# FEM surface export ¡ª frame 468
# Vertices: 642  Faces: 1280
v -0.51633543 1.02302766 -0.00328591
v 0.51604939 1.02309370 -0.00072239
v -0.57058835 0.18657418 0.00823709
v 0.53214574 0.22888882 0.01124343
v -0.00570908 0.02617864 1.00418985
v 0.00229209 0.76033503 0.86744940
v -0.00289822 0.00018256 -0.98327512
v 0.00057133 0.75650048 -0.86685675
v 0.90493184 0.30191711 -0.56135786
v 0.90893394 0.29734185 0.55852318
v -0.90610844 0.30449125 -0.55036533
v -0.90043139 0.29317412 0.55984998
v -0.82757765 0.73454171 0.31831813
v -0.51940870 0.57042676 0.84108627
v -0.30495837 0.99128413 0.49205220
v 0.30720481 0.99140519 0.49412784
v -0.00028247 1.13278377 -0.00137656
v 0.30506021 0.99124056 -0.49296707
v -0.30704990 0.99041730 -0.49538869
v -0.51861238 0.56320101 -0.83826953
v -0.82562310 0.73121595 -0.31732643
v -1.04984701 0.28150478 0.00310939
v 0.52502650 0.56500775 0.83863419
v 0.82864577 0.73499554 0.31570178
v -0.56729811 0.05786858 0.92347461
v -0.00085344 0.28954563 1.05761385
v -0.89540696 0.00461724 -0.36457473
v -0.93486440 0.00000000 0.34196621
v -0.00112956 0.30487171 -1.07069135
v -0.57757509 0.06850251 -0.93316150
v 0.82622522 0.73615581 -0.31579795
v 0.51719779 0.57087946 -0.84047425
v 0.95664328 0.00000000 0.35731235
v 0.57387412 0.03496150 0.90384722
v 0.30423534 0.09327445 0.52026767
v -0.35661533 0.13839804 0.50091523
v -0.00487499 0.05605817 0.07266027
v -0.29729661 0.03135044 -0.48763245
v 0.32496089 0.03525084 -0.49677637
v 0.57493228 0.06252436 -0.93010736
v 0.95486486 0.01166444 -0.35603252
v 1.06673992 0.29356849 -0.00498397
v -0.69352704 0.90446198 0.15844019
v -0.58781064 0.89540070 0.42412704
v -0.42527655 1.03291893 0.25199372
v -0.73296934 0.43510124 0.72567087
v -0.70883429 0.67229545 0.60420251
v -0.89958102 0.51892263 0.45190093
v -0.15897258 0.89771175 0.70198697
v -0.43150231 0.81233317 0.69567341
v -0.26669925 0.68268043 0.88849062
v -0.15571117 1.09644389 0.25375268
v -0.26318005 1.10588145 -0.00103553
v 0.16126266 0.89726299 0.70166445
v 0.00118161 1.02188432 0.51569498
v 0.26267871 1.10600173 -0.00085294
v 0.15854420 1.09987032 0.25471663
v 0.42651516 1.03210998 0.25448611
v -0.15841612 1.09757471 -0.25713506
v -0.42529574 1.03167033 -0.25696704
v 0.42551562 1.03338361 -0.25530839
v 0.15561286 1.09878421 -0.25703052
v -0.16067947 0.89590478 -0.70236504
v 0.00071596 1.02151763 -0.51767826
v 0.16079181 0.89627898 -0.70229340
v -0.59022701 0.89141607 -0.42706847
v -0.69283807 0.90319264 -0.16306718
v -0.26616168 0.67546201 -0.88466537
v -0.43013671 0.80942404 -0.69775778
v -0.89667410 0.52048808 -0.45074379
v -0.70569146 0.66604656 -0.60617900
v -0.73707074 0.43153378 -0.72313613
v -0.86615902 0.75498998 -0.00046202
v -1.02677071 0.30112803 -0.29032332
v -0.99436665 0.52483243 -0.16600777
v -0.99006552 0.52324414 0.17092280
v -1.01414001 0.28268212 0.28891149
v 0.58953530 0.89026207 0.42583591
v 0.69234812 0.90551519 0.16063501
v 0.27092084 0.67721438 0.88740945
v 0.43114287 0.80784476 0.69566387
v 0.90238166 0.52662718 0.45199353
v 0.71060026 0.67137641 0.60517502
v 0.74391079 0.43789098 0.72516143
v -0.27619067 0.44061932 0.99714524
v 0.00180653 0.53987801 1.00417578
v -0.75985432 0.15706673 0.75660425
v -0.55490977 0.29760358 0.89750999
v 0.00100535 0.07701670 1.08066857
v -0.28434595 0.16378696 1.03013206
v -0.31953570 0.00000000 1.02125180
v -1.07267153 0.08716501 0.18672264
v -0.97197342 0.08230339 0.48975024
v -0.97235608 0.10177454 -0.47203323
v -1.07733011 0.10831286 -0.17882849
v -0.75951582 0.08037840 0.12180693
v -0.97004813 0.01988240 -0.04482174
v -0.74425679 0.19016917 -0.19318880
v -0.56266302 0.30424720 -0.90485728
v -0.77245408 0.17437944 -0.75682849
v 0.00088522 0.53634220 -1.00116181
v -0.27885070 0.43939763 -1.00054502
v -0.29844764 0.00000000 -1.01050389
v -0.28982702 0.16528559 -1.04164410
v -0.00353117 0.08365095 -1.08361661
v 0.43133163 0.81120586 -0.69748902
v 0.26737577 0.67630517 -0.88359016
v 0.69381601 0.90518212 -0.16079207
v 0.58996195 0.89369375 -0.42393792
v 0.73605084 0.44584835 -0.72611302
v 0.70847255 0.67309505 -0.60678643
v 0.89986092 0.52800471 -0.45175555
v 0.75175846 0.14050440 0.18568307
v 0.65134495 0.08181622 0.45214903
v 0.42486426 0.18628930 0.31339714
v 0.77390820 0.16958839 0.76559460
v 0.83005691 0.00000000 0.67581499
v 0.97603166 0.10374838 0.46909159
v 0.14680789 0.02576875 0.75913996
v 0.49555501 0.00668272 0.80406862
v 0.31330898 0.00000000 1.02444756
v 0.15802470 0.22028005 0.31182665
v 0.27609208 0.05196802 0.04832142
v -0.21297988 0.08620372 0.75947666
v -0.01070812 0.17142792 0.56973982
v -0.28871930 0.13111778 0.06919956
v -0.18166995 0.10641419 0.33289355
v -0.49339381 0.12005287 0.29624879
v 0.15766597 0.04573221 -0.21076155
v 0.48996601 0.10459917 -0.24772054
v -0.45512572 0.07131711 -0.24803327
v -0.18174912 0.02451931 -0.21126972
v 0.16337514 0.03028094 -0.75571251
v 0.01315099 0.04197506 -0.48123544
v -0.16914380 0.05538988 -0.71423179
v 0.62675750 0.11781565 -0.42372754
v 0.75053322 0.11462113 -0.15636869
v 0.31414780 0.00000000 -1.01963139
v 0.49116972 0.03538599 -0.77174830
v 0.97216231 0.08472603 -0.49638450
v 0.81501031 0.00000000 -0.68273222
v 0.76610446 0.17767014 -0.77069223
v 1.00263548 0.00077234 0.01309572
v 1.02602375 0.29873809 -0.29121524
v 1.07034063 0.08147901 -0.18902995
v 1.04977977 0.08146867 0.17315480
v 1.02640986 0.30311701 0.28831276
v 0.29244491 0.15581964 1.03046453
v 0.56293780 0.29584119 0.90348393
v 0.27897602 0.43635035 0.99870646
v -0.67600960 0.02811086 0.42733720
v -0.49950123 0.07775252 0.74822712
v -0.81862116 0.00000000 0.69151545
v -0.50045371 0.00650470 -0.72735202
v -0.61999160 0.14846045 -0.47189450
v -0.81000870 0.00000000 -0.67961228
v 0.55973762 0.30178100 -0.90348846
v 0.28541362 0.17982237 -1.04389322
v 0.27830583 0.44386378 -0.99862325
v 0.99415123 0.52813119 0.16650793
v 0.99052191 0.52993697 -0.16930816
v 0.86621934 0.75792521 -0.00020418
v -0.60850304 0.97157663 0.07840203
v -0.56365246 0.97846025 0.20804568
v -0.47385260 1.03353047 0.12613805
v -0.71520376 0.82361615 0.37436265
v -0.64577967 0.90600020 0.29332235
v -0.76722151 0.82520527 0.23836143
v -0.36806169 1.01829290 0.37463534
v -0.51010305 0.97066486 0.34078169
v -0.45002627 0.95029360 0.46297154
v -0.82279927 0.36472341 0.64700603
v -0.82744819 0.48002461 0.59604049
v -0.90942031 0.40666032 0.50816697
v -0.62268883 0.62549490 0.73237699
v -0.73024768 0.55616754 0.67222470
v -0.63343143 0.50520700 0.79121423
v -0.87160379 0.63187182 0.38939384
v -0.81056529 0.59914088 0.53282046
v -0.77676117 0.71104735 0.46639419
v -0.08027919 0.83382159 0.79084241
v -0.21485254 0.79645258 0.80399317
v -0.13302536 0.72486329 0.88707989
v -0.37030303 0.90896434 0.59943241
v -0.29677096 0.86004317 0.70558935
v -0.23388889 0.95028061 0.60104078
v -0.39647815 0.63129467 0.87392265
v -0.35393733 0.75174528 0.79932201
v -0.48141122 0.69951904 0.77795273
v -0.65559769 0.79308444 0.52024323
v -0.57710868 0.74955559 0.65930462
v -0.51561737 0.86109596 0.56630850
v -0.34796917 1.07756555 0.12604146
v -0.39193398 1.06980836 -0.00174951
v -0.23165022 1.05406082 0.37645507
v -0.29309103 1.07188308 0.25536007
v -0.13293470 1.12963092 -0.00163372
v -0.21085933 1.10799825 0.12743913
v -0.07844839 1.12469506 0.12792973
v 0.08373658 0.83284217 0.78892589
v 0.00146387 0.90505999 0.70899296
v 0.15452839 1.01411033 0.50985402
v 0.08156335 0.96671849 0.61230135
v 0.23701173 0.94917184 0.60191351
v -0.07721654 0.96593624 0.61260241
v -0.15237866 1.01510882 0.50956517
v 0.39316177 1.07120764 -0.00057061
v 0.34829035 1.07796884 0.12844762
v 0.47488627 1.03434658 0.12729114
v 0.07945007 1.12364602 0.12771355
v 0.21291636 1.11034513 0.12933072
v 0.13240473 1.12895894 -0.00109024
v 0.37155229 1.01815903 0.37720910
v 0.29336455 1.07294714 0.25750712
v 0.23422328 1.05377829 0.37710723
v -0.08037389 1.07092893 0.38965911
v 0.07963039 1.07072020 0.38829106
v -0.00036932 1.10726285 0.25640851
v -0.34785122 1.07740712 -0.13043746
v -0.47432342 1.03315294 -0.13061611
v -0.07955526 1.12558901 -0.12978409
v -0.21274732 1.11076164 -0.13002451
v -0.37087440 1.01619351 -0.37867272
v -0.29334190 1.07174313 -0.25896233
v -0.23463564 1.05302274 -0.37922582
v 0.47520995 1.03542709 -0.12935258
v 0.34790373 1.07992637 -0.12956485
v 0.23240584 1.05423892 -0.37841532
v 0.29191843 1.07298970 -0.25800210
v 0.36834058 1.01767528 -0.37717819
v 0.21137275 1.11086333 -0.12972379
v 0.07814609 1.12646031 -0.13021816
v -0.08080143 0.83140630 -0.79080379
v 0.00117900 0.90342665 -0.71161723
v 0.08256463 0.83063930 -0.79156983
v -0.15429957 1.01323295 -0.51220554
v -0.08004644 0.96651143 -0.61619818
v -0.23590587 0.94931519 -0.60300094
v 0.23674634 0.94917703 -0.60247970
v 0.08117174 0.96669328 -0.61512864
v 0.15328372 1.01407313 -0.51154709
v -0.00118914 1.10725534 -0.25927398
v 0.07962738 1.06993234 -0.39008260
v -0.08108731 1.06973863 -0.39102226
v -0.56448263 0.97759551 -0.21359755
v -0.60972041 0.97079802 -0.08287995
v -0.45260158 0.94801193 -0.46721888
v -0.51101351 0.96905535 -0.34498447
v -0.76542360 0.82237524 -0.24136302
v -0.64764619 0.90394121 -0.29750678
v -0.71503580 0.81793112 -0.37677440
v -0.13381994 0.71931893 -0.88355863
v -0.21373612 0.79392666 -0.80371368
v -0.47863346 0.69229102 -0.77772689
v -0.35148233 0.74798328 -0.79935867
v -0.39578381 0.62384439 -0.86999470
v -0.29673970 0.85686314 -0.70797884
v -0.37143815 0.90826362 -0.60335237
v -0.90703624 0.40890631 -0.50134701
v -0.82843316 0.47876608 -0.59429985
v -0.82786053 0.36543950 -0.64345568
v -0.77479416 0.70344132 -0.46663108
v -0.80984044 0.59739536 -0.53585255
v -0.87200004 0.63225645 -0.38860279
v -0.63226563 0.49771461 -0.78711843
v -0.72732294 0.55062807 -0.67183137
v -0.61959416 0.61751658 -0.72958875
v -0.51716244 0.85481119 -0.56855178
v -0.57494670 0.74198383 -0.66189224
v -0.65601808 0.78672910 -0.52162510
v -0.70229316 0.91225177 -0.00171486
v -0.85529429 0.74852091 -0.16188933
v -0.78652853 0.83512551 -0.08473861
v -0.78710634 0.83652562 0.08003850
v -0.85582602 0.75000656 0.15995587
v -0.97239846 0.29505691 -0.42373362
v -0.96778524 0.40753198 -0.37016532
v -1.03491867 0.40541220 -0.08092968
v -1.01273906 0.40903622 -0.22553673
v -1.04907131 0.28948081 -0.14336096
v -0.95486039 0.52439332 -0.31262761
v -0.92157853 0.63331413 -0.24706686
v -0.97037971 0.40408146 0.37426615
v -0.96784055 0.28974354 0.42854136
v -0.92026871 0.63448960 0.24923684
v -0.95313585 0.52343428 0.31463414
v -1.04770505 0.28321835 0.14751300
v -1.01143920 0.40417853 0.23228221
v -1.03557241 0.40401503 0.08869176
v -0.94174343 0.64534819 -0.08432748
v -1.00617456 0.52687424 0.00458047
v -0.94199151 0.64600706 0.08641684
v 0.56385839 0.97891778 0.21062277
v 0.60791939 0.97036701 0.07972225
v 0.45247522 0.94804507 0.46565744
v 0.51264441 0.96926504 0.34300998
v 0.76738584 0.82657117 0.23986964
v 0.64789677 0.90576285 0.29590032
v 0.71707547 0.82186735 0.37657601
v 0.13719076 0.72286612 0.88605982
v 0.21829131 0.79411960 0.80223984
v 0.48291126 0.69528109 0.77779675
v 0.35427019 0.74484307 0.79736495
v 0.40078798 0.62220418 0.87067872
v 0.29745403 0.85721499 0.70551282
v 0.37263387 0.90732610 0.60107780
v 0.91127998 0.40988958 0.50704491
v 0.83115298 0.48237309 0.59409958
v 0.83173102 0.36755934 0.64633477
v 0.77974302 0.70901465 0.46572843
v 0.81410521 0.60197455 0.53455561
v 0.87418091 0.63408756 0.38731295
v 0.64134079 0.50352520 0.79164457
v 0.73475713 0.55644357 0.67296517
v 0.62602204 0.62381494 0.73208898
v 0.51898324 0.85773355 0.56844515
v 0.57693326 0.74572581 0.65937436
v 0.65778291 0.78990948 0.52222741
v -0.13504714 0.61444145 0.95902896
v 0.00266441 0.65514028 0.94492567
v -0.40290478 0.50884414 0.92969257
v -0.27440101 0.56552720 0.95476246
v -0.00082110 0.41541767 1.04065239
v -0.13955028 0.49199373 1.01238108
v -0.14312720 0.36658010 1.04305005
v -0.83873886 0.22014941 0.66306508
v -0.75253165 0.29452550 0.74549961
v -0.55663955 0.16998406 0.91371113
v -0.65718418 0.22204077 0.83308184
v -0.66739213 0.10504863 0.84280491
v -0.64907497 0.36369616 0.81803560
v -0.54382437 0.43375868 0.87828040
v 0.00965950 0.00001883 1.06752729
v -0.14492296 0.00893639 1.07293737
v -0.16409302 0.00000000 1.02240980
v -0.14403558 0.22677454 1.05513477
v -0.14332193 0.12182918 1.05793571
v -0.00322061 0.17260025 1.05901015
v -0.44911882 0.00146273 0.98507071
v -0.28399590 0.05713040 1.04043448
v -0.41775948 0.09144198 0.99229014
v -0.42210013 0.36812523 0.95803809
v -0.42934921 0.22620866 0.97998661
v -0.28480524 0.30180249 1.02340329
v -1.00806355 0.18269260 0.39636326
v -0.93599099 0.17663047 0.52910942
v -1.06989682 0.18175668 0.09237914
v -1.04884923 0.18294363 0.24332185
v -0.99557358 0.00105682 0.43186375
v -1.03924036 0.08570700 0.34202042
v -1.04625285 0.00000000 0.27667275
v -0.94265234 0.19849724 -0.51692641
v -1.00922644 0.19331050 -0.38221979
v -1.04477739 0.02862600 -0.27215070
v -1.03557622 0.08046388 -0.33427176
v -0.97819620 0.00000000 -0.43051139
v -1.05788827 0.19752242 -0.24503776
v -1.07841170 0.18912122 -0.09066949
v -0.65433121 0.06733145 0.05385009
v -0.77546459 0.04358906 -0.06649832
v -0.68726921 0.17881072 -0.08068019
v -0.96927059 0.00230759 0.15300055
v -0.86975420 0.01213525 0.04777092
v -0.85779369 0.05866181 0.23162819
v -0.82884282 0.12344962 -0.29346031
v -0.87155622 0.11993832 -0.12071547
v -0.92723930 0.00562047 -0.20489497
v -1.09081292 0.08494314 0.00265747
v -1.07717335 0.00000000 -0.10179758
v -1.07938874 0.00000000 0.09242062
v -0.75865364 0.29567051 -0.73739928
v -0.84751630 0.23119859 -0.65145195
v -0.54487431 0.42923796 -0.87744743
v -0.65630406 0.36082280 -0.81575453
v -0.68057907 0.10674081 -0.84878659
v -0.66886312 0.23054673 -0.84113586
v -0.56492221 0.17555976 -0.92117530
v 0.00087161 0.64989352 -0.94147879
v -0.13542491 0.60973316 -0.95452327
v -0.14212941 0.37124789 -1.04674900
v -0.13879743 0.49007186 -1.00766051
v -0.00161375 0.42075327 -1.04386139
v -0.27338463 0.55977130 -0.94888258
v -0.40307373 0.50444001 -0.92716587
v -0.15134126 0.00000000 -1.01085854
v -0.14743368 0.03959461 -1.06169343
v 0.00228705 0.00000000 -1.06130159
v -0.42629117 0.10307238 -0.99741846
v -0.30013534 0.06409444 -1.04238927
v -0.44994700 0.00707542 -0.98971051
v -0.00650477 0.18642931 -1.08344734
v -0.15382102 0.11874477 -1.07268274
v -0.14526656 0.23390226 -1.07004452
v -0.42586851 0.36964110 -0.96705467
v -0.28556243 0.30252200 -1.03069735
v -0.42914930 0.23182639 -0.98489416
v 0.21658735 0.79415846 -0.80202991
v 0.13499643 0.72111553 -0.88497812
v 0.37230578 0.90879673 -0.60058051
v 0.29793566 0.85975087 -0.70642674
v 0.39450955 0.62447685 -0.86783981
v 0.35302174 0.74845505 -0.79809958
v 0.48041576 0.69569474 -0.77722627
v 0.60961276 0.97153026 -0.08074410
v 0.56558585 0.97992277 -0.21090183
v 0.71547401 0.82274681 -0.37373322
v 0.64857560 0.90670216 -0.29505470
v 0.76733214 0.82491750 -0.23814507
v 0.51215446 0.97168791 -0.34256327
v 0.45202115 0.95013505 -0.46599606
v 0.82569635 0.37554488 -0.64638340
v 0.83034390 0.48890957 -0.59429860
v 0.91242272 0.41498649 -0.50949764
v 0.62195158 0.62586933 -0.73280013
v 0.73036593 0.56154209 -0.67355371
v 0.63245869 0.51007968 -0.79123986
v 0.86981881 0.63554239 -0.38649228
v 0.81311488 0.60686463 -0.53662890
v 0.77508146 0.71096039 -0.46543023
v 0.51833040 0.85889053 -0.56712967
v 0.65684527 0.78935373 -0.51950628
v 0.57592916 0.74747652 -0.65979052
v 0.63507879 0.21075609 0.09906881
v 0.59353483 0.20010242 0.23797041
v 0.49516833 0.24262588 0.17705612
v 0.81891769 0.06027590 0.40346232
v 0.69408840 0.13429703 0.31878105
v 0.85872591 0.06827099 0.26353273
v 0.35917926 0.04125481 0.39162329
v 0.54315686 0.12925139 0.35980129
v 0.48652536 0.08075999 0.49144647
v 0.84468895 0.22951879 0.66287130
v 0.88363880 0.13461535 0.63316280
v 0.94041103 0.19228417 0.51955396
v 0.70820832 0.00000000 0.80365187
v 0.79865295 0.06380417 0.72970277
v 0.67864144 0.10701317 0.84861994
v 0.98091972 0.03090615 0.44419155
v 0.90940112 0.06763488 0.58260274
v 0.90266174 0.00000000 0.52062863
v 0.08055074 0.04805136 0.88899499
v 0.23287474 0.02524462 0.91919637
v 0.14912619 0.00000000 1.02914071
v 0.40346009 0.08309116 0.66260129
v 0.32805473 0.01414195 0.78611308
v 0.23638418 0.03007429 0.64633000
v 0.45434377 0.00021926 0.98265511
v 0.40147442 0.00000074 0.92172748
v 0.55015731 0.00000000 0.89879924
v 0.74788338 0.04022963 0.58115745
v 0.66925460 0.00000735 0.76695222
v 0.56666577 0.01632171 0.62775451
v 0.38771451 0.10466406 0.18507294
v 0.43053538 0.11374953 0.03810668
v 0.18463546 0.05632513 0.40228790
v 0.28232473 0.10625521 0.32472911
v 0.13194442 0.06321409 0.03404825
v 0.20671386 0.08872549 0.19414692
v 0.09238886 0.09969535 0.19034006
v -0.10681358 0.02831285 0.87271714
v -0.02863687 0.08673508 0.76955765
v -0.18366551 0.12755133 0.54614866
v -0.10552029 0.11756304 0.66098511
v -0.28655693 0.12273233 0.64347857
v 0.06858467 0.12801543 0.65248048
v 0.10625263 0.05068139 0.54270518
v -0.42401248 0.12951666 0.05784110
v -0.39145985 0.23009509 0.19446349
v -0.53478181 0.19614641 0.15847163
v -0.08659542 0.11275463 0.20001520
v -0.22755367 0.21621913 0.20028636
v -0.16132748 0.09508344 0.09434982
v -0.41815981 0.19637150 0.39122108
v -0.31833309 0.10906933 0.27567267
v -0.26834589 0.18814169 0.42621183
v 0.06875406 0.19837071 0.46382052
v -0.09744804 0.22230573 0.45708606
v 0.00918242 0.09565870 0.34751436
v 0.38950220 0.09769809 -0.10563319
v 0.47952455 0.23195733 -0.12551500
v 0.07854483 0.05905268 -0.08755486
v 0.23342308 0.05221192 -0.08894543
v 0.38373643 0.16441843 -0.37592849
v 0.33147290 0.05099403 -0.25612029
v 0.23716970 0.06676262 -0.36035419
v -0.53408056 0.07224390 -0.08858881
v -0.39208493 0.07114287 -0.09806564
v -0.23260592 0.01783589 -0.35524830
v -0.31544757 0.07316893 -0.22926615
v -0.37156746 0.07448709 -0.37337521
v -0.25501776 0.04239734 -0.06470458
v -0.11232939 0.05438849 -0.05856197
v 0.07805105 0.04844246 -0.86990809
v -0.01795780 0.02428735 -0.74973762
v -0.10346707 0.05028128 -0.87145346
v 0.18091407 0.05470131 -0.50304598
v 0.08556517 0.05592782 -0.62614357
v 0.25345752 0.09425834 -0.64959556
v -0.22521225 0.03614711 -0.60814857
v -0.09587400 0.01860496 -0.59327114
v -0.14016829 0.02014005 -0.47681844
v 0.00486843 0.05115578 -0.21810211
v -0.06673528 0.05425240 -0.35614821
v 0.10886921 0.07025991 -0.36273181
v 0.59924012 0.20252818 -0.22500357
v 0.65841460 0.17261310 -0.06987962
v 0.49626407 0.10446668 -0.48543051
v 0.54659027 0.16204888 -0.37364119
v 0.86611933 0.06024755 -0.25356582
v 0.69998354 0.11598666 -0.29418805
v 0.80050594 0.04812598 -0.40418407
v 0.15648514 0.00000000 -1.01443243
v 0.23212056 0.00250980 -0.89857948
v 0.55866301 0.00000000 -0.88283455
v 0.40309644 0.00000000 -0.88797480
v 0.45943755 0.02375517 -0.99734956
v 0.32511577 0.04670746 -0.77355999
v 0.41321722 0.09870305 -0.65318322
v 0.94048280 0.19943278 -0.53447837
v 0.88302779 0.12912226 -0.64445126
v 0.84075958 0.23918490 -0.66499782
v 0.87504607 0.00000000 -0.53159243
v 0.91706318 0.04877492 -0.60519034
v 0.99745214 0.00000000 -0.44612360
v 0.67575145 0.10859067 -0.85858387
v 0.80457300 0.07823385 -0.75364405
v 0.71071362 0.00000000 -0.82919747
v 0.57116759 0.02122904 -0.60294086
v 0.66882199 0.00261243 -0.72745591
v 0.72019291 0.09646421 -0.55837852
v 0.75444812 0.14096195 0.02440893
v 0.98866475 0.01971593 -0.18397701
v 0.88266367 0.06828057 -0.07240742
v 0.88921529 0.06512757 0.10413653
v 0.97007871 0.00002392 0.18388990
v 0.97687018 0.30563322 -0.43342096
v 1.00995076 0.19592488 -0.39610416
v 1.07292926 0.17633875 -0.09257208
v 1.05347252 0.18638110 -0.24176364
v 1.05684137 0.29716238 -0.14609922
v 1.03782785 0.09400796 -0.34946603
v 1.04247165 0.05240617 -0.28262424
v 1.01263773 0.19645226 0.38020080
v 0.97570860 0.29794806 0.42559370
v 1.01333320 0.00083830 0.28420779
v 1.02489114 0.08351029 0.32457456
v 1.05585861 0.29770875 0.14384003
v 1.04923904 0.18898334 0.23055474
v 1.06787431 0.18363723 0.08412825
v 1.07952297 0.00000000 -0.10255304
v 1.08800197 0.07001054 -0.00056121
v 1.07162750 0.00000000 0.09544313
v 0.16455458 0.02398885 1.06698930
v 0.43827122 0.08269763 0.98297763
v 0.30431479 0.05813384 1.03555477
v 0.14780158 0.11188770 1.06386232
v 0.14132796 0.22029385 1.04970241
v 0.75903147 0.30152118 0.74641734
v 0.55101776 0.42998019 0.88356197
v 0.65996867 0.36740804 0.82325649
v 0.66854769 0.23002498 0.84033155
v 0.56906480 0.16456629 0.92029005
v 0.14021577 0.61217433 0.95814568
v 0.14079376 0.36365864 1.04160011
v 0.14163843 0.48829362 1.00975800
v 0.27938533 0.56158835 0.95305008
v 0.40741450 0.50385559 0.93026996
v 0.43303415 0.22143285 0.97993296
v 0.42462498 0.36223876 0.96364099
v 0.28217337 0.29106709 1.02032888
v -0.63009787 0.11531676 0.20035386
v -0.52461725 0.09409043 0.46724460
v -0.58121699 0.14744346 0.35418341
v -0.72292519 0.06655289 0.28010121
v -0.80864310 0.08979793 0.38370684
v -0.26118520 0.00648466 0.89865935
v -0.57248473 0.00000000 0.89398593
v -0.43452567 0.00018697 0.89894623
v -0.35717139 0.05717758 0.76511705
v -0.42943093 0.08114847 0.61442548
v -0.86895013 0.11180656 0.63403648
v -0.88772649 0.00035455 0.51417834
v -0.89831269 0.02939182 0.59604293
v -0.79344904 0.05192116 0.74871838
v -0.70356494 0.00050653 0.82473361
v -0.59681779 0.01242039 0.59955692
v -0.67426759 0.00129268 0.73640025
v -0.78010434 0.00352410 0.55866301
v -0.24107008 0.00935887 -0.85440814
v -0.38059518 0.09903606 -0.62564421
v -0.34209934 0.00058259 -0.71235621
v -0.39715481 0.00000000 -0.86868960
v -0.55225730 0.00000000 -0.87843859
v -0.61805975 0.08805073 -0.21758960
v -0.74577111 0.04880510 -0.42498347
v -0.67919683 0.17234030 -0.34872201
v -0.53842902 0.03979586 -0.36160201
v -0.47564709 0.01662501 -0.47954521
v -0.88190138 0.13834228 -0.63311499
v -0.70256227 0.00272094 -0.82263517
v -0.80674309 0.07422465 -0.74274111
v -0.91209698 0.05281438 -0.58484310
v -0.86840874 0.00000000 -0.53036547
v -0.54671210 0.12166178 -0.62693137
v -0.70299947 0.01671053 -0.59420383
v -0.65664804 0.00000000 -0.73399007
v 0.75389785 0.30929053 -0.74547702
v 0.56706411 0.18342270 -0.92242676
v 0.66558635 0.23896375 -0.84134674
v 0.65391445 0.37404144 -0.82102138
v 0.54618025 0.43969530 -0.88019896
v 0.15120268 0.03979732 -1.06859648
v 0.13776067 0.23616360 -1.06772113
v 0.14272307 0.13623513 -1.07965779
v 0.29725164 0.07578711 -1.04944181
v 0.43118179 0.12152133 -1.00241196
v 0.13797776 0.61218911 -0.95420498
v 0.40360636 0.50648361 -0.92654377
v 0.27562225 0.56194299 -0.94726658
v 0.13968545 0.49247298 -1.00783157
v 0.14121225 0.37429833 -1.04605937
v 0.43162233 0.24098721 -0.98265821
v 0.28341171 0.30743417 -1.02421808
v 0.42501119 0.37292185 -0.95986718
v 0.97591788 0.41650674 0.37678748
v 1.04598653 0.41033936 0.08527608
v 1.02562118 0.41611171 0.22993582
v 0.95712066 0.53107679 0.31136450
v 0.92177349 0.63662893 0.24459645
v 0.97288489 0.41480955 -0.37653145
v 0.91848558 0.63875639 -0.24753308
v 0.95549756 0.52962023 -0.31289586
v 1.01638079 0.41228583 -0.23076124
v 1.03806460 0.41213235 -0.08846615
v 0.70163530 0.91267580 -0.00034253
v 0.85713792 0.75324464 0.15888338
v 0.78674895 0.83899486 0.08303729
v 0.78687334 0.83658779 -0.08080902
v 0.85667813 0.75085586 -0.15819117
v 1.00571179 0.52913404 0.00007136
v 0.94332683 0.64848918 -0.08545728
v 0.94301194 0.65007752 0.08370445
f 330 87 329
f 336 325 26
f 207 208 56
f 464 36 580
f 502 129 504
f 157 624 622
f 308 311 82
f 247 223 248
f 507 483 508
f 331 88 329
f 494 500 497
f 156 601 602
f 591 589 592
f 365 98 596
f 75 281 282
f 152 587 577
f 149 559 560
f 555 121 553
f 530 141 529
f 515 517 139
f 361 594 98
f 250 67 249
f 157 608 609
f 294 293 209
f 317 81 316
f 557 338 26
f 303 305 81
f 530 529 528
f 101 381 382
f 415 418 111
f 192 184 50
f 412 110 411
f 20 384 256
f 131 594 486
f 281 264 282
f 347 287 348
f 28 349 582
f 165 163 1
f 248 250 66
f 617 107 398
f 273 271 274
f 456 115 453
f 558 561 560
f 335 576 91
f 331 177 332
f 116 433 436
f 351 370 92
f 136 511 530
f 239 240 65
f 247 258 19
f 304 23 567
f 148 557 570
f 214 208 58
f 440 426 450
f 268 270 269
f 258 247 268
f 204 202 16
f 466 125 465
f 517 513 133
f 168 275 274
f 275 73 274
f 198 193 53
f 309 308 307
f 510 511 136
f 415 416 110
f 131 490 597
f 473 475 474
f 414 415 111
f 493 495 494
f 496 504 485
f 433 116 432
f 600 375 601
f 240 234 65
f 418 415 412
f 486 361 3
f 567 566 304
f 380 393 29
f 17 199 197
f 491 492 132
f 451 449 435
f 218 217 216
f 623 621 613
f 396 104 395
f 433 439 436
f 628 160 627
f 215 202 217
f 209 207 2
f 427 113 424
f 434 10 544
f 434 433 432
f 199 17 210
f 150 564 565
f 489 491 132
f 275 13 285
f 497 500 134
f 125 466 476
f 578 152 577
f 208 214 211
f 328 88 343
f 356 27 603
f 150 566 567
f 372 100 371
f 190 191 47
f 235 8 398
f 260 261 72
f 422 403 414
f 422 414 111
f 453 454 123
f 349 583 582
f 521 520 519
f 425 453 115
f 616 622 158
f 483 130 508
f 151 586 572
f 212 17 232
f 400 397 402
f 377 396 99
f 41 522 511
f 510 508 505
f 549 547 42
f 475 473 36
f 510 137 509
f 222 221 197
f 430 115 429
f 220 194 1
f 305 54 204
f 621 29 613
f 192 171 184
f 460 335 5
f 88 331 332
f 74 277 279
f 300 301 80
f 390 389 388
f 165 45 164
f 146 549 551
f 291 278 75
f 448 120 445
f 147 543 544
f 607 610 609
f 603 602 356
f 139 529 514
f 333 553 443
f 92 368 347
f 261 260 259
f 300 6 200
f 46 177 331
f 284 283 174
f 301 300 200
f 471 468 474
f 54 305 301
f 302 304 303
f 569 150 567
f 150 569 570
f 294 209 2
f 628 629 160
f 548 543 147
f 147 625 627
f 63 233 234
f 426 427 114
f 41 509 532
f 198 52 196
f 614 105 612
f 147 627 547
f 81 305 306
f 549 548 547
f 54 301 200
f 342 88 332
f 264 281 70
f 193 194 53
f 455 429 456
f 187 321 14
f 479 130 484
f 147 544 625
f 458 456 453
f 304 80 303
f 314 84 313
f 488 503 501
f 321 332 14
f 423 425 424
f 305 204 306
f 341 339 25
f 514 40 516
f 625 628 627
f 340 339 341
f 105 614 391
f 243 228 62
f 318 316 78
f 75 278 279
f 357 355 353
f 238 257 63
f 466 455 476
f 425 423 4
f 448 449 120
f 408 638 108
f 292 275 285
f 22 278 289
f 515 513 517
f 501 503 134
f 622 623 158
f 134 503 504
f 195 216 206
f 163 271 246
f 619 617 620
f 62 228 229
f 163 165 164
f 453 425 454
f 489 132 488
f 82 628 625
f 58 208 209
f 525 608 40
f 626 547 627
f 518 517 498
f 489 487 491
f 557 26 564
f 325 336 344
f 541 145 539
f 40 616 516
f 338 556 89
f 250 248 245
f 139 514 515
f 98 594 596
f 246 220 1
f 112 413 630
f 9 536 413
f 156 600 601
f 332 177 14
f 321 342 332
f 156 606 600
f 584 330 585
f 302 303 81
f 584 87 330
f 330 25 585
f 400 239 65
f 439 440 117
f 95 358 368
f 597 594 131
f 594 361 486
f 246 67 245
f 561 562 149
f 28 364 362
f 55 216 217
f 427 430 114
f 267 20 254
f 556 555 553
f 84 309 558
f 311 310 312
f 609 525 142
f 256 68 255
f 124 460 461
f 82 311 312
f 307 308 82
f 589 135 495
f 527 40 514
f 112 418 412
f 20 256 254
f 258 238 19
f 267 254 269
f 273 272 249
f 392 391 393
f 137 533 509
f 122 455 456
f 9 413 411
f 130 480 505
f 333 443 5
f 527 525 40
f 589 495 385
f 39 496 485
f 223 225 224
f 414 416 415
f 219 222 53
f 145 538 539
f 413 412 411
f 469 468 467
f 183 181 6
f 191 192 50
f 429 35 431
f 292 285 76
f 413 112 412
f 415 110 412
f 43 164 167
f 467 468 126
f 617 101 620
f 450 451 117
f 438 546 545
f 619 620 159
f 17 212 210
f 124 579 576
f 584 153 583
f 460 124 576
f 3 469 467
f 311 308 314
f 6 320 183
f 389 104 388
f 251 250 249
f 194 165 1
f 291 289 278
f 287 77 348
f 238 258 257
f 139 517 518
f 238 236 19
f 223 247 19
f 382 380 29
f 39 518 498
f 361 359 3
f 69 255 257
f 139 518 528
f 33 545 535
f 387 385 7
f 69 268 269
f 477 462 125
f 454 479 123
f 121 555 447
f 451 435 117
f 454 425 4
f 233 252 8
f 124 463 464
f 69 258 268
f 168 167 166
f 583 153 582
f 384 394 102
f 138 512 513
f 57 210 211
f 254 256 255
f 607 609 142
f 324 319 86
f 289 291 76
f 291 292 76
f 384 102 383
f 422 421 420
f 221 17 197
f 383 102 381
f 376 377 99
f 99 373 374
f 386 105 392
f 438 33 440
f 90 341 343
f 281 75 279
f 574 571 96
f 628 82 312
f 221 222 59
f 127 471 474
f 595 605 603
f 551 538 145
f 334 91 340
f 322 324 85
f 305 303 301
f 18 239 399
f 306 204 16
f 199 198 197
f 166 190 180
f 303 80 301
f 267 266 265
f 626 42 547
f 16 215 213
f 349 351 350
f 295 16 213
f 68 379 252
f 250 251 66
f 627 160 626
f 383 68 256
f 343 88 342
f 507 508 136
f 202 215 16
f 197 198 53
f 254 69 269
f 603 605 156
f 418 419 111
f 384 383 256
f 455 122 476
f 203 204 54
f 556 557 148
f 255 68 253
f 313 84 560
f 25 328 341
f 254 255 69
f 603 156 602
f 581 584 583
f 630 632 112
f 163 246 1
f 246 245 220
f 432 116 558
f 499 591 590
f 320 563 86
f 345 93 350
f 306 16 295
f 346 93 345
f 562 568 149
f 604 605 155
f 154 592 593
f 545 552 535
f 511 522 530
f 574 573 571
f 566 150 565
f 361 98 360
f 67 271 273
f 234 235 65
f 208 211 56
f 574 151 573
f 251 270 66
f 398 8 378
f 213 215 214
f 438 440 439
f 315 314 313
f 263 71 262
f 20 373 384
f 496 134 504
f 329 88 328
f 81 306 316
f 555 556 148
f 592 589 103
f 617 619 107
f 227 207 56
f 571 359 96
f 446 466 465
f 206 216 55
f 359 571 469
f 568 148 570
f 34 437 435
f 28 351 349
f 21 272 282
f 113 423 424
f 490 489 488
f 379 68 383
f 210 212 211
f 80 563 300
f 351 92 350
f 326 346 12
f 83 317 318
f 555 148 554
f 212 231 56
f 218 57 217
f 271 67 246
f 195 196 52
f 270 268 66
f 390 592 103
f 148 568 554
f 495 493 7
f 592 390 593
f 357 95 355
f 574 575 151
f 452 120 451
f 154 591 592
f 587 585 577
f 395 394 396
f 93 349 350
f 610 416 611
f 166 44 190
f 315 23 302
f 315 302 317
f 268 247 66
f 606 154 593
f 396 394 99
f 211 212 56
f 370 369 368
f 235 397 65
f 280 278 22
f 83 315 317
f 575 588 151
f 74 279 280
f 385 495 7
f 63 257 253
f 397 235 398
f 214 58 213
f 220 219 194
f 546 146 545
f 236 225 19
f 599 94 602
f 235 233 8
f 102 394 395
f 611 416 32
f 225 223 19
f 139 528 529
f 231 62 229
f 419 406 421
f 451 450 452
f 49 182 185
f 402 397 107
f 52 199 218
f 416 610 110
f 225 236 244
f 107 397 398
f 68 252 253
f 322 85 321
f 182 181 183
f 118 438 439
f 546 438 118
f 348 77 345
f 543 546 118
f 231 212 232
f 610 611 157
f 33 438 545
f 385 386 103
f 479 480 130
f 169 195 15
f 93 583 349
f 15 195 206
f 190 44 192
f 247 248 66
f 146 552 545
f 248 60 245
f 570 557 564
f 274 271 43
f 63 253 233
f 272 21 249
f 507 528 518
f 67 273 249
f 487 467 126
f 196 195 169
f 624 159 623
f 134 496 497
f 132 503 488
f 104 393 395
f 556 553 89
f 355 356 94
f 258 69 257
f 229 61 227
f 56 231 227
f 460 576 335
f 463 124 461
f 394 373 99
f 29 393 391
f 67 250 245
f 193 198 196
f 462 36 464
f 144 633 630
f 141 526 527
f 517 133 498
f 536 144 630
f 100 372 599
f 144 536 537
f 22 289 287
f 578 579 152
f 579 578 576
f 189 188 187
f 60 223 224
f 92 348 350
f 555 554 447
f 396 377 388
f 194 193 165
f 413 536 630
f 372 352 599
f 377 376 375
f 348 345 350
f 105 386 387
f 240 237 234
f 463 462 464
f 135 500 494
f 45 196 169
f 512 612 387
f 245 60 220
f 429 115 456
f 223 60 248
f 288 289 76
f 525 526 142
f 100 599 601
f 613 29 391
f 526 523 520
f 341 328 343
f 631 641 639
f 264 21 282
f 266 72 265
f 106 402 403
f 73 273 274
f 186 206 205
f 381 379 383
f 52 216 195
f 410 18 399
f 290 272 73
f 72 371 374
f 526 525 527
f 115 430 424
f 498 497 496
f 621 382 29
f 543 118 434
f 214 215 57
f 522 141 530
f 511 510 509
f 352 94 599
f 493 512 7
f 90 340 341
f 169 171 170
f 605 604 606
f 219 60 224
f 104 389 392
f 359 469 3
f 186 49 185
f 222 219 224
f 166 167 44
f 428 427 426
f 523 522 524
f 129 502 481
f 50 185 188
f 164 45 170
f 425 115 424
f 33 428 426
f 427 428 113
f 94 356 602
f 515 138 513
f 114 431 452
f 237 236 238
f 215 217 57
f 95 354 355
f 220 60 219
f 515 514 516
f 183 320 319
f 222 197 53
f 559 569 567
f 300 320 6
f 435 436 117
f 96 360 363
f 640 642 641
f 242 243 62
f 140 537 519
f 508 130 505
f 420 410 399
f 537 539 144
f 317 316 318
f 426 114 450
f 186 15 206
f 311 83 310
f 625 544 307
f 544 10 307
f 168 43 167
f 185 182 188
f 369 354 95
f 44 171 192
f 605 606 156
f 548 549 146
f 100 601 375
f 149 568 569
f 381 380 382
f 455 466 35
f 480 479 454
f 543 548 546
f 493 133 513
f 492 472 37
f 477 125 476
f 491 487 126
f 337 336 338
f 588 153 587
f 576 578 91
f 633 161 632
f 96 359 360
f 39 485 483
f 101 617 378
f 193 45 165
f 163 164 43
f 618 624 611
f 507 136 528
f 561 149 560
f 641 162 639
f 116 561 558
f 494 133 493
f 253 252 233
f 63 237 238
f 392 393 104
f 440 450 117
f 93 581 583
f 386 385 387
f 120 449 451
f 421 422 111
f 486 3 467
f 302 81 317
f 633 632 630
f 462 475 36
f 376 99 374
f 489 490 131
f 447 449 448
f 387 612 105
f 106 420 399
f 173 46 172
f 492 491 472
f 316 306 295
f 22 287 347
f 109 410 420
f 507 39 483
f 559 23 313
f 214 57 211
f 196 45 193
f 10 434 432
f 422 106 403
f 626 160 640
f 487 486 467
f 542 41 532
f 400 106 399
f 444 120 452
f 198 199 52
f 475 127 474
f 621 620 382
f 621 623 159
f 450 114 452
f 92 347 348
f 376 100 375
f 434 118 433
f 503 132 502
f 337 90 336
f 537 536 519
f 395 393 380
f 201 54 200
f 171 44 170
f 355 94 353
f 58 296 213
f 422 420 106
f 595 365 596
f 569 568 570
f 523 140 520
f 114 430 431
f 218 210 57
f 304 566 80
f 639 162 638
f 261 371 72
f 548 147 547
f 498 133 497
f 150 570 564
f 222 224 59
f 142 526 520
f 437 436 435
f 141 522 523
f 137 510 505
f 173 179 176
f 559 149 569
f 121 447 448
f 563 320 300
f 102 395 380
f 257 255 253
f 642 162 641
f 83 311 314
f 216 52 218
f 512 493 513
f 23 304 302
f 91 339 340
f 512 138 612
f 159 620 621
f 218 199 210
f 364 28 575
f 83 318 310
f 168 274 43
f 136 530 528
f 140 523 524
f 495 135 494
f 233 235 234
f 566 563 80
f 25 339 577
f 277 74 276
f 475 462 477
f 133 494 497
f 436 437 116
f 389 386 392
f 548 146 546
f 441 460 5
f 10 309 307
f 65 397 400
f 543 434 544
f 640 641 161
f 272 273 73
f 581 93 346
f 419 421 111
f 319 320 86
f 180 179 178
f 127 475 477
f 231 229 227
f 337 334 340
f 136 508 510
f 308 309 84
f 237 63 234
f 447 554 34
f 252 379 378
f 315 83 314
f 608 622 616
f 338 336 26
f 337 338 89
f 13 275 168
f 209 208 207
f 436 439 117
f 628 312 629
f 360 366 363
f 364 574 96
f 359 361 360
f 466 446 35
f 500 501 134
f 406 109 421
f 135 589 591
f 601 599 602
f 340 90 337
f 481 492 37
f 522 41 524
f 78 316 295
f 131 486 487
f 403 32 414
f 634 626 640
f 151 572 573
f 515 516 138
f 8 252 378
f 265 72 374
f 9 521 519
f 538 549 42
f 368 358 347
f 588 587 586
f 458 453 123
f 589 385 103
f 502 492 481
f 32 416 414
f 430 427 424
f 153 585 587
f 540 144 539
f 370 368 92
f 209 293 58
f 428 33 535
f 326 581 346
f 625 307 82
f 575 28 582
f 6 181 200
f 421 109 420
f 553 121 443
f 160 642 640
f 153 584 585
f 309 432 558
f 334 337 89
f 23 315 313
f 271 163 43
f 296 295 213
f 39 498 496
f 118 439 433
f 531 113 534
f 293 296 58
f 28 362 351
f 489 131 487
f 431 444 452
f 84 558 560
f 98 366 360
f 45 169 170
f 379 101 378
f 462 463 125
f 308 84 314
f 10 432 309
f 299 24 310
f 132 492 502
f 512 387 7
f 639 638 408
f 565 323 86
f 59 244 242
f 106 400 402
f 440 33 426
f 566 565 563
f 617 398 378
f 224 225 59
f 410 109 409
f 239 400 399
f 194 219 53
f 358 22 347
f 610 157 609
f 27 595 603
f 479 484 482
f 142 520 521
f 585 25 577
f 339 578 577
f 408 407 406
f 407 109 406
f 31 408 406
f 407 408 108
f 31 639 408
f 419 31 406
f 608 616 40
f 430 429 431
f 455 35 429
f 35 444 431
f 188 51 187
f 188 182 51
f 51 322 187
f 322 51 319
f 51 182 183
f 319 51 183
f 187 322 321
f 322 319 324
f 381 101 379
f 405 407 108
f 404 405 108
f 286 285 178
f 407 405 409
f 109 407 409
f 191 175 47
f 167 164 170
f 50 184 185
f 44 167 170
f 64 244 236
f 243 244 64
f 50 188 189
f 541 542 145
f 442 445 119
f 339 91 578
f 445 446 119
f 624 623 622
f 611 624 157
f 523 526 141
f 141 527 529
f 527 514 529
f 445 120 444
f 446 445 444
f 35 446 444
f 613 614 158
f 158 614 615
f 623 613 158
f 614 613 391
f 614 612 615
f 371 376 374
f 100 376 371
f 479 482 123
f 373 394 384
f 540 42 634
f 633 540 634
f 538 42 540
f 633 634 161
f 161 634 640
f 42 626 634
f 540 633 144
f 557 556 338
f 553 333 89
f 262 21 264
f 251 21 262
f 5 335 333
f 270 251 262
f 21 251 249
f 600 593 30
f 606 593 600
f 600 30 375
f 593 390 30
f 30 377 375
f 390 388 30
f 30 388 377
f 228 243 241
f 470 478 459
f 470 127 478
f 127 477 478
f 184 186 185
f 478 477 476
f 122 478 476
f 357 74 280
f 518 39 507
f 344 342 85
f 325 344 85
f 342 344 343
f 85 342 321
f 344 90 343
f 90 344 336
f 482 129 481
f 482 481 457
f 482 457 123
f 481 37 457
f 449 447 34
f 435 449 34
f 470 472 471
f 472 470 37
f 470 471 127
f 472 126 471
f 126 468 471
f 470 459 37
f 491 126 472
f 504 129 485
f 221 59 242
f 125 463 465
f 437 34 562
f 561 437 562
f 554 568 562
f 34 554 562
f 437 561 116
f 390 103 389
f 103 386 389
f 392 105 391
f 572 586 580
f 572 580 36
f 586 152 580
f 473 572 36
f 244 243 242
f 225 244 59
f 64 240 241
f 240 239 241
f 237 240 64
f 243 64 241
f 236 237 64
f 411 607 521
f 9 411 521
f 110 607 411
f 607 142 521
f 610 607 110
f 171 15 184
f 171 169 15
f 15 186 184
f 87 584 581
f 153 588 582
f 588 575 582
f 381 102 380
f 573 572 473
f 468 469 128
f 474 468 128
f 469 571 128
f 571 573 128
f 573 473 128
f 473 474 128
f 564 323 565
f 26 323 564
f 323 324 86
f 325 323 26
f 325 324 323
f 563 565 86
f 324 325 85
f 410 230 18
f 230 228 18
f 18 228 241
f 18 241 239
f 401 619 618
f 401 402 107
f 403 402 401
f 619 159 618
f 401 618 32
f 619 401 107
f 403 401 32
f 618 611 32
f 159 624 618
f 478 122 459
f 122 458 459
f 37 459 457
f 459 458 457
f 122 456 458
f 457 458 123
f 191 190 192
f 485 129 484
f 129 482 484
f 483 485 484
f 130 483 484
f 189 187 14
f 191 50 189
f 191 189 175
f 189 14 175
f 14 177 175
f 499 501 500
f 501 499 38
f 38 499 590
f 135 499 500
f 488 501 38
f 499 135 591
f 480 454 4
f 284 12 346
f 4 423 506
f 480 4 506
f 423 531 506
f 480 506 505
f 531 137 506
f 506 137 505
f 365 366 98
f 71 270 262
f 270 71 269
f 71 267 269
f 335 334 333
f 333 334 89
f 334 335 91
f 536 9 519
f 465 463 461
f 537 140 541
f 520 140 519
f 119 446 465
f 465 461 119
f 461 441 119
f 460 441 461
f 176 46 173
f 299 297 24
f 71 263 266
f 263 260 266
f 260 72 266
f 263 70 260
f 205 201 49
f 201 181 49
f 186 205 49
f 181 201 200
f 181 182 49
f 284 77 283
f 586 587 152
f 588 586 151
f 20 267 265
f 266 267 71
f 31 417 631
f 631 417 632
f 31 631 639
f 417 31 419
f 641 631 161
f 417 112 632
f 161 631 632
f 418 417 419
f 417 418 112
f 284 345 77
f 542 550 145
f 542 541 524
f 284 174 12
f 48 174 283
f 373 20 265
f 373 265 374
f 609 608 525
f 608 157 622
f 560 559 313
f 636 637 162
f 541 140 524
f 41 542 524
f 358 357 280
f 70 263 264
f 263 262 264
f 176 177 46
f 174 48 173
f 174 173 172
f 538 551 549
f 538 540 539
f 537 541 539
f 232 221 242
f 17 221 232
f 232 242 62
f 231 232 62
f 203 205 55
f 203 55 202
f 201 205 203
f 202 55 217
f 205 206 55
f 204 203 202
f 73 275 292
f 292 290 73
f 272 290 282
f 290 292 291
f 75 290 291
f 290 75 282
f 70 277 259
f 277 70 281
f 277 281 279
f 260 70 259
f 12 174 172
f 104 396 388
f 367 27 354
f 365 27 367
f 354 27 356
f 365 367 366
f 595 27 365
f 318 299 310
f 155 596 597
f 155 597 598
f 596 594 597
f 595 596 155
f 605 595 155
f 180 47 179
f 180 190 47
f 352 372 11
f 11 372 261
f 312 310 24
f 642 636 162
f 636 297 637
f 367 369 97
f 366 367 97
f 369 367 354
f 369 370 97
f 580 579 464
f 580 152 579
f 579 124 464
f 61 230 409
f 230 410 409
f 230 61 229
f 230 229 228
f 76 285 286
f 353 352 276
f 74 353 276
f 288 76 286
f 288 286 283
f 289 288 287
f 203 54 201
f 287 288 77
f 77 288 283
f 286 48 283
f 531 423 113
f 276 11 259
f 11 261 259
f 277 276 259
f 616 158 615
f 516 616 615
f 138 516 615
f 138 615 612
f 509 533 532
f 503 502 504
f 635 79 294
f 635 294 404
f 635 637 79
f 637 635 638
f 638 635 108
f 635 404 108
f 226 61 405
f 61 226 227
f 405 61 409
f 227 226 207
f 48 178 179
f 48 286 178
f 173 48 179
f 534 143 533
f 534 535 143
f 531 534 533
f 533 143 532
f 137 531 533
f 261 372 371
f 13 180 178
f 285 13 178
f 180 13 166
f 13 168 166
f 346 345 284
f 331 327 46
f 46 327 172
f 172 327 326
f 382 620 101
f 442 121 448
f 443 121 442
f 2 226 404
f 294 2 404
f 404 226 405
f 207 226 2
f 550 551 145
f 552 146 551
f 143 550 532
f 552 550 143
f 330 329 328
f 24 636 629
f 94 352 353
f 352 11 276
f 113 428 534
f 428 535 534
f 509 41 511
f 535 552 143
f 550 552 551
f 550 542 532
f 369 95 368
f 326 327 87
f 87 327 329
f 327 331 329
f 581 326 87
f 293 79 298
f 79 297 298
f 296 298 78
f 79 293 294
f 296 293 298
f 598 490 38
f 358 280 22
f 280 279 278
f 357 358 95
f 74 357 353
f 330 328 25
f 567 23 559
f 590 598 38
f 590 604 598
f 598 604 155
f 604 590 154
f 590 591 154
f 604 154 606
f 297 299 298
f 299 318 78
f 298 299 78
f 355 354 356
f 629 636 642
f 312 24 629
f 629 642 160
f 370 362 97
f 362 363 97
f 363 366 97
f 364 363 362
f 362 370 351
f 96 363 364
f 297 636 24
f 162 637 638
f 637 297 79
f 490 488 38
f 598 597 490
f 441 442 119
f 443 442 441
f 443 441 5
f 442 448 445
f 296 78 295
f 326 12 172
f 575 574 364
f 47 175 176
f 175 177 176
f 47 176 179
