# FEM surface export ¡ª frame 623
# Vertices: 642  Faces: 1280
v -0.50641406 0.78990495 0.00784527
v 0.50389922 0.80479914 -0.00350236
v -0.49866045 0.50051463 -0.01920191
v 0.47235066 0.42414886 -0.04656284
v -0.04123006 0.29852423 0.85726339
v 0.00379331 0.54236913 0.84825760
v 0.01575799 0.30418628 -0.85844874
v -0.01236995 0.55388755 -0.85083461
v 0.92726833 0.17616868 -0.61703819
v 0.93379456 0.18416286 0.59776306
v -0.94066542 0.18364175 -0.60025096
v -0.94093543 0.15922613 0.58763564
v -0.80067718 0.52011085 0.32246265
v -0.51405644 0.38332522 0.84959310
v -0.29523799 0.76246786 0.48168460
v 0.28900808 0.77374035 0.48112205
v 0.00246293 0.95558256 0.00009856
v 0.28915074 0.77721947 -0.48670051
v -0.30350190 0.77076709 -0.47636843
v -0.52125770 0.39703849 -0.84140426
v -0.80827630 0.52208424 -0.29793692
v -1.11282563 0.20940237 0.00270663
v 0.52540189 0.39649716 0.83574975
v 0.80791855 0.54044062 0.29562300
v -0.51957858 0.05946717 0.76584244
v 0.00922149 0.14138855 1.11969388
v -0.84544408 0.26603323 -0.31464580
v -0.83712286 0.23447025 0.30815461
v 0.00426889 0.15055360 -1.12293947
v -0.52288049 0.04695928 -0.83687919
v 0.81121385 0.53271401 -0.32629678
v 0.49726334 0.39757752 -0.85374165
v 0.85584551 0.21501234 0.34937513
v 0.49440524 0.09280100 0.89685732
v 0.31371838 0.41220966 0.47975960
v -0.28561783 0.51044345 0.49020827
v -0.02653416 0.30206463 0.04746677
v -0.30073595 0.35049048 -0.49078366
v 0.30376092 0.48209372 -0.42740670
v 0.56074309 0.07009569 -0.85961658
v 0.86245215 0.16604859 -0.29124007
v 1.11304617 0.19032520 -0.01521216
v -0.67322212 0.67406213 0.16572662
v -0.56320304 0.66165239 0.42010954
v -0.41554040 0.80193645 0.25057930
v -0.75112838 0.28604829 0.74562097
v -0.68427134 0.47003105 0.60853809
v -0.88513768 0.35626119 0.46974885
v -0.15232292 0.67560971 0.68473101
v -0.41166577 0.58980560 0.69113350
v -0.25404829 0.47410348 0.88724500
v -0.15457648 0.89725387 0.25218782
v -0.26571250 0.90632451 0.00026278
v 0.15001655 0.66714555 0.68095380
v -0.00318192 0.79961598 0.50238258
v 0.26431075 0.90985900 -0.00601859
v 0.15900561 0.89991611 0.25302696
v 0.41662970 0.81648642 0.24681458
v -0.15529601 0.89849800 -0.25168219
v -0.42310810 0.80752873 -0.24091683
v 0.41644534 0.82038224 -0.25253797
v 0.15652978 0.89794332 -0.25510594
v -0.16159634 0.67528796 -0.68008959
v -0.00302959 0.80755270 -0.50331211
v 0.14590365 0.68459177 -0.68752378
v -0.57980901 0.67135167 -0.40874952
v -0.68377143 0.67544711 -0.14262843
v -0.27194625 0.48507291 -0.86779672
v -0.42593053 0.59377122 -0.67685115
v -0.90344602 0.34753919 -0.45069712
v -0.70122606 0.47535422 -0.58815521
v -0.75419688 0.29142749 -0.74638993
v -0.85316879 0.54220480 0.01668825
v -1.06687224 0.15566866 -0.30451256
v -0.98859292 0.35547763 -0.17112139
v -0.98858237 0.35233936 0.17831543
v -1.07429922 0.21857031 0.30921593
v 0.56348246 0.67333311 0.40711874
v 0.66919452 0.68808454 0.14521196
v 0.26647729 0.47147638 0.87205511
v 0.41643456 0.59116971 0.66842765
v 0.90712178 0.37252861 0.45063326
v 0.70178235 0.48391750 0.58743519
v 0.76041019 0.30527642 0.74617440
v -0.28169471 0.26739728 1.03431380
v 0.00274211 0.35052696 1.01141524
v -0.78917831 0.00842920 0.78041220
v -0.57805455 0.15008637 0.94289446
v -0.02142306 0.11325610 1.02604127
v -0.29091269 0.00025963 1.07487655
v -0.28300750 0.24957550 0.88798875
v -1.05163980 0.00000000 0.19598341
v -0.93660718 0.03968196 0.49762636
v -0.95521688 0.00962389 -0.44504631
v -1.03620207 0.02855694 -0.15932545
v -0.69323260 0.38095769 0.11159786
v -0.90779185 0.23381843 0.00510845
v -0.69092351 0.43794274 -0.14618264
v -0.58653814 0.15514709 -0.95182937
v -0.79186839 0.00956855 -0.78727126
v -0.00916232 0.36000919 -1.00781393
v -0.28244707 0.29014894 -1.02968931
v -0.25277355 0.16739383 -0.89462799
v -0.28938192 0.03589644 -1.08441103
v -0.00292436 0.11099577 -1.01799655
v 0.40478483 0.60134298 -0.69454902
v 0.24918933 0.47832808 -0.88743067
v 0.67199200 0.67497206 -0.16946916
v 0.56790537 0.67869312 -0.42517081
v 0.72355568 0.28881371 -0.76337159
v 0.68673658 0.49312750 -0.60949135
v 0.90100551 0.37272692 -0.47788203
v 0.67016816 0.37459454 0.16436507
v 0.57594347 0.39336950 0.42170426
v 0.37081051 0.48137340 0.20952511
v 0.78777879 0.05299255 0.80277604
v 0.71358091 0.17895967 0.61741090
v 0.93256968 0.01960023 0.50506645
v 0.15379123 0.36253828 0.68853742
v 0.41264209 0.26627621 0.72005129
v 0.22765870 0.22566600 0.89735186
v 0.13837856 0.53747183 0.24998771
v 0.24210082 0.30721554 0.04996159
v -0.17258319 0.42525396 0.70079535
v 0.02648190 0.49772400 0.52510023
v -0.23194370 0.33255884 0.07798423
v -0.16607726 0.41416073 0.27292472
v -0.37391153 0.51759261 0.23554565
v 0.14018564 0.24409755 -0.24767691
v 0.43995127 0.37714255 -0.26416579
v -0.43025964 0.40487391 -0.24666418
v -0.19802774 0.24015829 -0.22173300
v 0.18233798 0.44103867 -0.67271465
v -0.01602126 0.35584873 -0.53461492
v -0.18564789 0.39806277 -0.71330822
v 0.61199659 0.35381305 -0.37350658
v 0.72040856 0.34954646 -0.12499635
v 0.26684001 0.20486052 -0.87861240
v 0.42469844 0.29973069 -0.67068619
v 0.97902238 0.00000000 -0.49289513
v 0.74240732 0.17584966 -0.58142668
v 0.81336397 0.03321445 -0.80594546
v 0.88890928 0.18837769 0.04382124
v 1.05224025 0.16842614 -0.31793860
v 1.04974520 0.00290330 -0.17723219
v 1.05044043 0.00050455 0.20000689
v 1.06921089 0.17657606 0.31000128
v 0.26171428 0.00596589 1.07619381
v 0.58699697 0.17394362 0.95508039
v 0.28553995 0.26891133 1.01151049
v -0.60081702 0.43801001 0.39747521
v -0.43741918 0.33064455 0.69738287
v -0.72289085 0.24329555 0.61612648
v -0.47138715 0.28313389 -0.70492917
v -0.57915348 0.39522478 -0.40979293
v -0.74660087 0.15108714 -0.58611500
v 0.58057100 0.18436787 -0.95450938
v 0.29118958 0.00956254 -1.06429124
v 0.27513221 0.28339231 -1.04423177
v 0.99386805 0.35331658 0.16834874
v 0.99243760 0.35966745 -0.17877781
v 0.84877986 0.54795849 -0.01814560
v -0.59444934 0.73309660 0.08816505
v -0.54573697 0.74059844 0.21019109
v -0.46145520 0.80373818 0.13019553
v -0.68595225 0.59473509 0.37726319
v -0.62511706 0.67339301 0.29587385
v -0.74318540 0.60225171 0.24619305
v -0.35789353 0.79177284 0.36928117
v -0.49116203 0.73451906 0.33653626
v -0.43389228 0.71785241 0.45674020
v -0.84703338 0.22663850 0.67282075
v -0.82810867 0.32051158 0.61173832
v -0.92625284 0.26816615 0.53517824
v -0.60826629 0.43059081 0.73498195
v -0.72417325 0.37912101 0.67735273
v -0.63659185 0.33147943 0.80544329
v -0.84471393 0.43953565 0.39401066
v -0.79124749 0.42001766 0.53613859
v -0.74490148 0.50010312 0.46679214
v -0.07700726 0.61218971 0.76991904
v -0.20259106 0.58160150 0.79262155
v -0.12209403 0.51249069 0.87575799
v -0.35568166 0.67941028 0.58938730
v -0.28186274 0.64098394 0.69226354
v -0.22659662 0.72374761 0.58706355
v -0.38505819 0.43112680 0.87754816
v -0.33685282 0.54182708 0.79449040
v -0.46254751 0.49074212 0.77972943
v -0.62721831 0.56857336 0.52441329
v -0.55568767 0.53506529 0.66402262
v -0.49578810 0.63183469 0.56354547
v -0.34150344 0.86173540 0.12737030
v -0.38812754 0.85034108 0.00362698
v -0.22770260 0.83763134 0.36956894
v -0.28903359 0.85759681 0.25475419
v -0.13329069 0.94045132 -0.00183198
v -0.21159561 0.91255176 0.12879795
v -0.07725525 0.93707144 0.12826277
v 0.07805101 0.60571414 0.76481003
v -0.00068187 0.67715269 0.68450105
v 0.14405660 0.79160124 0.49492854
v 0.07128951 0.73803914 0.59122831
v 0.22004408 0.72090262 0.58492523
v -0.08148908 0.73987263 0.59296268
v -0.15237413 0.79252702 0.49608251
v 0.38907382 0.86022711 -0.00500932
v 0.34652093 0.87344927 0.12209079
v 0.46330887 0.81680334 0.12206484
v 0.08348840 0.94102836 0.12830098
v 0.21668737 0.91538227 0.12569089
v 0.13527347 0.93929189 -0.00091847
v 0.35530680 0.80505359 0.36659995
v 0.29180405 0.86940473 0.25020486
v 0.22526130 0.84553808 0.37037557
v -0.07952971 0.85709679 0.38246432
v 0.07703863 0.85820663 0.38310975
v 0.00259884 0.91295743 0.25609878
v -0.34829399 0.86035883 -0.12251007
v -0.46724114 0.80494410 -0.11738189
v -0.07654051 0.94013882 -0.13054699
v -0.21453899 0.91260320 -0.12923174
v -0.36547899 0.79395884 -0.36096293
v -0.29342747 0.86166441 -0.24575835
v -0.23215257 0.83960682 -0.36499968
v 0.47010365 0.81850505 -0.13009447
v 0.34722394 0.86917710 -0.12985653
v 0.22666121 0.84703040 -0.37071890
v 0.28802049 0.86733782 -0.25360131
v 0.35580096 0.80934626 -0.37487957
v 0.21501286 0.91466099 -0.13217656
v 0.08284809 0.93714035 -0.12898594
v -0.09010129 0.61800611 -0.77116388
v -0.00866479 0.68791270 -0.69299549
v 0.06642417 0.61982816 -0.77279317
v -0.15362322 0.79775047 -0.49347088
v -0.08118235 0.74812222 -0.59406179
v -0.23222764 0.72726011 -0.58146983
v 0.21691380 0.73694366 -0.59079552
v 0.07036141 0.75360006 -0.59935594
v 0.14401284 0.80196458 -0.49997783
v 0.00192237 0.91180831 -0.25747567
v 0.07653334 0.86173749 -0.38298497
v -0.08002115 0.86135674 -0.37906691
v -0.55883294 0.74770659 -0.19579118
v -0.59875256 0.73690319 -0.06629907
v -0.44403878 0.72733140 -0.44964829
v -0.50435144 0.74628329 -0.32720444
v -0.75346565 0.60216683 -0.21941985
v -0.63888264 0.68098968 -0.27905691
v -0.70304042 0.60328126 -0.35691115
v -0.13726772 0.52581674 -0.86395186
v -0.21588263 0.57955778 -0.78354377
v -0.48141426 0.49798897 -0.75667000
v -0.35196245 0.54329515 -0.77701950
v -0.40035388 0.45198694 -0.85770428
v -0.29392317 0.63699812 -0.68579835
v -0.36561045 0.68716842 -0.58257991
v -0.93829525 0.26856619 -0.52579534
v -0.84203345 0.31968737 -0.60216874
v -0.85801393 0.21205333 -0.68249708
v -0.75899607 0.49954104 -0.45003280
v -0.81074804 0.41461548 -0.52600944
v -0.85559195 0.43820760 -0.37853301
v -0.64204222 0.34035891 -0.79049009
v -0.73340911 0.38311505 -0.66218168
v -0.62268543 0.43408522 -0.72084600
v -0.50945753 0.64365041 -0.55130666
v -0.57329750 0.53858221 -0.64030755
v -0.64516521 0.57969910 -0.50134200
v -0.68889749 0.67841709 0.01243697
v -0.84516245 0.53577214 -0.14537212
v -0.77484703 0.60922945 -0.06693018
v -0.77027577 0.61142260 0.09429792
v -0.83817899 0.53651464 0.17110409
v -1.01742244 0.17497915 -0.45153278
v -0.99685979 0.27254230 -0.38401544
v -1.06039798 0.27105632 -0.10271069
v -1.03605402 0.26576287 -0.24839677
v -1.09336543 0.18149748 -0.15109856
v -0.94627631 0.36898306 -0.31266144
v -0.90230811 0.43533275 -0.23316503
v -0.98749828 0.27896470 0.39809451
v -1.01352763 0.18826641 0.45178512
v -0.90480554 0.43856692 0.25593761
v -0.94694030 0.36597329 0.32711333
v -1.10966623 0.19993487 0.14944604
v -1.04012394 0.28230819 0.24063815
v -1.07058620 0.28580704 0.08738174
v -0.93025732 0.45359525 -0.06911391
v -1.00325620 0.35097337 0.00371794
v -0.93365520 0.44494623 0.09908268
v 0.54749280 0.75680351 0.19979052
v 0.59012163 0.74663043 0.06972067
v 0.42852837 0.72784460 0.44925794
v 0.48800918 0.74951422 0.32953721
v 0.74168992 0.61848813 0.22366090
v 0.62103093 0.68777555 0.28023005
v 0.69206685 0.61346948 0.35771710
v 0.13856645 0.51213443 0.86856806
v 0.21147913 0.57111645 0.77606595
v 0.47636676 0.49622586 0.75540876
v 0.34473863 0.53234410 0.77107352
v 0.39624536 0.43437049 0.85190600
v 0.28422740 0.62847817 0.68277836
v 0.35270011 0.68708307 0.57792735
v 0.93008733 0.28193569 0.53162694
v 0.84759593 0.34746334 0.60802865
v 0.85497057 0.24151249 0.69201463
v 0.75807732 0.51879102 0.44403252
v 0.80852270 0.43519309 0.52120811
v 0.86241931 0.45687973 0.37180996
v 0.64569944 0.35552192 0.79882967
v 0.73888552 0.39783767 0.67052627
v 0.62344545 0.44133058 0.71214044
v 0.49760565 0.63631821 0.54756010
v 0.56216455 0.54289776 0.63641584
v 0.63359785 0.58027703 0.49917018
v -0.12233481 0.41458726 0.95571578
v 0.00465977 0.44860467 0.93115270
v -0.39977351 0.33142829 0.94945925
v -0.26380637 0.37074977 0.95758903
v 0.00712853 0.24233149 1.06619954
v -0.13434960 0.30715820 1.02594924
v -0.14565976 0.20621429 1.07785213
v -0.86856681 0.09777286 0.69743562
v -0.78282040 0.16197422 0.77610922
v -0.58386570 0.01278750 0.91458470
v -0.70288813 0.08288749 0.88247210
v -0.65621281 0.00339286 0.77638465
v -0.67658871 0.22168066 0.85563844
v -0.55570823 0.28113988 0.91698444
v -0.03536090 0.19993220 0.93839341
v -0.16746178 0.19119757 1.01012254
v -0.17505027 0.26510251 0.89718795
v -0.13413380 0.09291757 1.11001968
v -0.15863554 0.04911038 1.08099401
v 0.00665504 0.03746663 1.13976645
v -0.41665885 0.13607861 0.87021255
v -0.28281000 0.12414204 0.97919381
v -0.40384635 0.00168721 0.91125208
v -0.42790639 0.21226782 0.99674928
v -0.43965951 0.08126530 1.03904080
v -0.28811726 0.12373310 1.07559621
v -1.06164372 0.10411944 0.40926695
v -0.96826786 0.07443914 0.54706955
v -1.10543263 0.07854137 0.09924942
v -1.08317363 0.09810955 0.25868446
v -0.87855208 0.13305162 0.40989661
v -1.00035322 0.01176080 0.35570794
v -0.95240176 0.11305258 0.26168242
v -0.98112929 0.06710174 -0.54333687
v -1.05547404 0.06949099 -0.39810625
v -0.93695241 0.14848894 -0.24803321
v -1.01309502 0.10878884 -0.32160076
v -0.90291387 0.15375605 -0.41762519
v -1.11037457 0.06730806 -0.22761996
v -1.13885736 0.09016919 -0.09114490
v -0.61347300 0.46821272 0.04635800
v -0.72485483 0.40180233 -0.01530778
v -0.58898771 0.42970812 -0.10357559
v -0.87357402 0.20578825 0.15586525
v -0.81473035 0.26487926 0.06214616
v -0.75959533 0.26593447 0.18258458
v -0.78696841 0.35392118 -0.24623834
v -0.80006057 0.33403966 -0.08918263
v -0.88390142 0.25121513 -0.15989599
v -1.05199420 0.00011611 0.01598709
v -0.96968234 0.13232554 -0.07948904
v -0.96763915 0.10364734 0.09314844
v -0.79367077 0.15836610 -0.78919148
v -0.88013047 0.07744391 -0.71224523
v -0.55892080 0.27696851 -0.89956534
v -0.68036854 0.23318627 -0.85675973
v -0.66598547 0.00000000 -0.82013768
v -0.69806582 0.09918939 -0.87689996
v -0.58695340 0.02958316 -0.96886885
v -0.00210608 0.45666310 -0.93529212
v -0.13974209 0.44448024 -0.94329458
v -0.14795512 0.24191158 -1.09015083
v -0.14480174 0.33794463 -1.01547611
v -0.00696495 0.27120113 -1.07595670
v -0.27990824 0.38635153 -0.94890440
v -0.40950084 0.33913988 -0.93721592
v -0.12210035 0.25363219 -0.88513541
v -0.11657561 0.15375581 -0.95205861
v 0.01010330 0.20305492 -0.93226451
v -0.40939334 0.00000000 -0.98524946
v -0.25052696 0.06974968 -0.96448678
v -0.37989488 0.09555500 -0.86501819
v 0.00875535 0.02639046 -1.12107503
v -0.13244642 0.04262539 -1.05141211
v -0.14435224 0.11394867 -1.12004828
v -0.43578550 0.22968586 -1.01204443
v -0.30842960 0.17497791 -1.09005713
v -0.46414676 0.09278628 -1.05965996
v 0.19546443 0.58776563 -0.79369801
v 0.11831059 0.52203268 -0.87589699
v 0.34830293 0.69420016 -0.59078622
v 0.27610889 0.64857829 -0.69503421
v 0.37414032 0.42598185 -0.88133687
v 0.32489455 0.54866225 -0.79798990
v 0.45095548 0.50136203 -0.78237063
v 0.59204745 0.74674869 -0.08609725
v 0.55182517 0.75657052 -0.21205606
v 0.69596076 0.61578047 -0.37599948
v 0.62549609 0.68727475 -0.30031958
v 0.74768138 0.60744429 -0.24615875
v 0.49289861 0.75521076 -0.34007472
v 0.43225634 0.73666739 -0.46252581
v 0.83244175 0.22566526 -0.70597225
v 0.82814038 0.33827531 -0.63360161
v 0.91363114 0.28091767 -0.55838376
v 0.59937078 0.44792554 -0.74328291
v 0.71726727 0.40217963 -0.68976307
v 0.61884922 0.35167950 -0.80951512
v 0.85835618 0.45562354 -0.40568879
v 0.79846126 0.43287626 -0.54826063
v 0.75669158 0.52292693 -0.46897942
v 0.49376273 0.64313126 -0.56747985
v 0.63316107 0.59217423 -0.52297956
v 0.54998291 0.54502946 -0.66506785
v 0.56170571 0.38887048 0.06273288
v 0.53186172 0.43408930 0.19527298
v 0.46254635 0.46270815 0.10438826
v 0.72851455 0.31005615 0.38139206
v 0.63091964 0.38899058 0.32019195
v 0.78069478 0.31373182 0.24884604
v 0.34694570 0.44447047 0.34287834
v 0.47579199 0.45038354 0.31990188
v 0.42971340 0.40918544 0.44545022
v 0.88305658 0.11635111 0.71683544
v 0.87887990 0.03250257 0.63799292
v 0.99081951 0.10733337 0.56201696
v 0.62612301 0.14466907 0.75461268
v 0.73079693 0.06185243 0.71867836
v 0.62497348 0.01670394 0.84746706
v 0.89038748 0.08817986 0.39282238
v 0.81422895 0.11349485 0.56611341
v 0.76687264 0.18917088 0.46214351
v 0.05316966 0.32887194 0.75554150
v 0.18852030 0.30085456 0.79176229
v 0.08914070 0.27099073 0.86060095
v 0.37278122 0.32133171 0.59855801
v 0.27680251 0.34302691 0.68771863
v 0.24282655 0.39893684 0.59485167
v 0.36794215 0.13229311 0.91769260
v 0.34982073 0.22995935 0.81360549
v 0.48547068 0.16877384 0.81447983
v 0.65064347 0.29601279 0.53040403
v 0.57010633 0.23838738 0.68011010
v 0.50186378 0.34387380 0.58280510
v 0.34651905 0.33269420 0.16213898
v 0.36805826 0.30511001 0.01363778
v 0.23094061 0.49302828 0.39186004
v 0.28110230 0.47393283 0.25516066
v 0.12069370 0.31316611 0.02841884
v 0.19485049 0.39201471 0.19348066
v 0.09704687 0.39044783 0.14995541
v -0.09689191 0.37147087 0.76003855
v -0.00205741 0.42964900 0.68704826
v -0.13035473 0.52731103 0.50683659
v -0.07341426 0.49056047 0.61111373
v -0.22881617 0.46240610 0.59375769
v 0.10010703 0.41843790 0.61940247
v 0.17256886 0.43186584 0.52414310
v -0.38534144 0.39625722 0.03355573
v -0.32449171 0.47727004 0.13239862
v -0.46866170 0.51184618 0.11385548
v -0.06738952 0.38864332 0.13481706
v -0.18332110 0.49899358 0.09115421
v -0.16976540 0.37014773 0.02011170
v -0.35921305 0.53162706 0.36553487
v -0.26813504 0.55266452 0.22791487
v -0.20955750 0.55266476 0.36895168
v 0.10211786 0.49349767 0.41016269
v -0.06054235 0.54420477 0.38526285
v 0.00617387 0.41099143 0.28937933
v 0.34043568 0.28816167 -0.12141901
v 0.46405602 0.41296735 -0.13557538
v 0.05813623 0.29339996 -0.11507390
v 0.20272192 0.28667897 -0.10359927
v 0.35001612 0.48793614 -0.33380604
v 0.29546201 0.33598247 -0.26625189
v 0.24775077 0.34455237 -0.38957232
v -0.43360075 0.45737895 -0.15720870
v -0.37367761 0.34186578 -0.09251594
v -0.24155495 0.22470762 -0.35537019
v -0.32015291 0.28892660 -0.22255075
v -0.38099036 0.32345808 -0.35520917
v -0.25403890 0.23410803 -0.06853087
v -0.13812853 0.29460496 -0.08961073
v 0.08467440 0.38122547 -0.75572366
v 0.00277421 0.44138256 -0.66460913
v -0.07834852 0.35906422 -0.77122408
v 0.14013870 0.36614189 -0.49368030
v 0.09332142 0.34004930 -0.64487964
v 0.22263360 0.45248735 -0.54773676
v -0.22183487 0.29645553 -0.62641531
v -0.08308430 0.44529828 -0.62791407
v -0.14763504 0.31725782 -0.52483982
v -0.01877479 0.23037675 -0.23315620
v -0.07305615 0.25062564 -0.38026580
v 0.10478532 0.29208091 -0.39705965
v 0.59307742 0.40752661 -0.15972745
v 0.60881215 0.39239049 -0.04470124
v 0.44490618 0.41704798 -0.43216264
v 0.52736914 0.42049012 -0.31327781
v 0.79399335 0.25804579 -0.20410500
v 0.68906224 0.34855333 -0.23843034
v 0.76090193 0.27688953 -0.33343214
v 0.13624527 0.25336188 -0.88451612
v 0.19022360 0.34430560 -0.80098403
v 0.48686355 0.21927093 -0.77550864
v 0.35850161 0.29123282 -0.79251933
v 0.41002086 0.12572037 -0.85353887
v 0.29901975 0.37129050 -0.68040061
v 0.35247365 0.39517459 -0.55021703
v 0.98182768 0.06803632 -0.55876601
v 0.89370602 0.01724846 -0.63573796
v 0.87229943 0.10833675 -0.71551394
v 0.81939679 0.18962395 -0.45230463
v 0.85717410 0.08600150 -0.52309412
v 0.90767413 0.07138176 -0.36385864
v 0.70716327 0.01677893 -0.83507597
v 0.76081872 0.10471414 -0.71321648
v 0.64466578 0.15289928 -0.75202411
v 0.51689732 0.32351550 -0.52441674
v 0.60769391 0.23476927 -0.63389659
v 0.67987758 0.28278100 -0.47446784
v 0.68784684 0.32037041 0.03724033
v 0.88914508 0.21880093 -0.13774791
v 0.80191666 0.28270355 -0.01766727
v 0.81698257 0.27175382 0.12662411
v 0.90660614 0.19441384 0.21358728
v 0.99768215 0.17476870 -0.48043647
v 1.05460989 0.08690776 -0.41644159
v 1.10880375 0.07255556 -0.09788270
v 1.08863914 0.11283293 -0.25270465
v 1.09382641 0.17358007 -0.16704436
v 1.03740478 0.00000000 -0.33670098
v 0.97728074 0.09847476 -0.23806825
v 1.06209791 0.08309811 0.42373714
v 1.01354635 0.17596465 0.45595846
v 0.96330488 0.10430187 0.27343461
v 1.01352823 0.00218560 0.35831669
v 1.10842729 0.17071463 0.15446702
v 1.07452261 0.06638096 0.26090246
v 1.10109782 0.08727486 0.09362462
v 0.99082643 0.13156626 -0.08447959
v 1.08326089 0.00121794 0.01684951
v 0.98589575 0.10599279 0.08623131
v 0.12745962 0.16883591 0.96531516
v 0.37048674 0.00439830 0.97962230
v 0.27858210 0.14119400 0.99792534
v 0.12931277 0.01677197 1.02929759
v 0.15803888 0.11540030 1.14392793
v 0.78692234 0.17940736 0.80758655
v 0.56964177 0.29560617 0.91572213
v 0.68368083 0.25426251 0.86258137
v 0.69153225 0.11885535 0.90347880
v 0.56277621 0.04040460 0.97148544
v 0.13976859 0.41664320 0.95532435
v 0.15904017 0.19510621 1.08591962
v 0.14082779 0.30417615 1.02242446
v 0.28054985 0.38872176 0.95389372
v 0.41138148 0.34710217 0.93119627
v 0.44972754 0.09429783 1.04516339
v 0.44226891 0.22705892 1.00717998
v 0.30833608 0.13146846 1.08652830
v -0.57312047 0.47754547 0.18491834
v -0.44958606 0.48396719 0.46222192
v -0.49196097 0.47572386 0.32873905
v -0.64113843 0.39238611 0.25073212
v -0.70849890 0.31766850 0.32919550
v -0.21478660 0.34035277 0.78955895
v -0.48168871 0.22728780 0.77941877
v -0.34772399 0.26441929 0.82518524
v -0.30931038 0.35518414 0.72056049
v -0.37021923 0.43494645 0.61254710
v -0.86227256 0.01439703 0.64649731
v -0.78571206 0.25007045 0.46527255
v -0.84470576 0.14431770 0.56273699
v -0.76248991 0.13432910 0.69816476
v -0.63553786 0.18190165 0.75503606
v -0.52825636 0.39571291 0.55899334
v -0.59413487 0.27170977 0.66871887
v -0.65155053 0.36603308 0.50618899
v -0.22811311 0.30334094 -0.81692743
v -0.36105898 0.38899118 -0.58439988
v -0.33987898 0.35394469 -0.70915502
v -0.35086712 0.24030384 -0.80795795
v -0.48912293 0.15325952 -0.76835746
v -0.54981822 0.47745997 -0.17743748
v -0.71929133 0.32947513 -0.37315848
v -0.64159161 0.40821221 -0.27934945
v -0.50309908 0.46052405 -0.33507892
v -0.45935997 0.42375806 -0.47380427
v -0.89812183 0.00000000 -0.62255973
v -0.64762092 0.09662721 -0.73644036
v -0.78232741 0.03755960 -0.68031859
v -0.84496850 0.08314157 -0.51657975
v -0.79215002 0.21112342 -0.44497916
v -0.52525955 0.31934461 -0.57499135
v -0.65975791 0.27896413 -0.51596397
v -0.60105187 0.16562483 -0.63629180
v 0.77879709 0.16539933 -0.80542952
v 0.60083109 0.07643320 -0.93587512
v 0.70648617 0.10296465 -0.89439857
v 0.66836625 0.22440875 -0.86977381
v 0.54276395 0.28818086 -0.91382062
v 0.14746130 0.14660890 -0.97500515
v 0.15169609 0.06184242 -1.10181725
v 0.15012519 0.08274750 -1.07216835
v 0.29306695 0.07659051 -0.95035756
v 0.41864160 0.00000000 -0.93903762
v 0.12705787 0.41852346 -0.95790589
v 0.38973168 0.33694327 -0.95608133
v 0.26380065 0.37619171 -0.96595985
v 0.13338557 0.32071283 -1.03052962
v 0.14430545 0.21667641 -1.09207344
v 0.45976272 0.09719692 -1.03470087
v 0.29172945 0.15272883 -1.09030151
v 0.42763865 0.23228675 -1.01772034
v 1.00352550 0.28068256 0.39384219
v 1.07869291 0.25130966 0.08483528
v 1.05473781 0.26125476 0.23635173
v 0.96875173 0.36493874 0.31026560
v 0.91204989 0.45218551 0.23355938
v 0.98861587 0.26949814 -0.41053885
v 0.90826446 0.44458717 -0.26330635
v 0.95569777 0.37073702 -0.33384341
v 1.03535068 0.28008094 -0.25617954
v 1.07530916 0.28626087 -0.10053542
v 0.68066931 0.68790179 -0.01567733
v 0.83846051 0.55247575 0.14149524
v 0.76668739 0.62574673 0.06530271
v 0.76627129 0.61024374 -0.09574842
v 0.84061331 0.53253949 -0.17239630
v 1.01222742 0.35504472 0.00276308
v 0.93506283 0.44984338 -0.09408390
v 0.93461823 0.46041548 0.07370223
f 330 87 329
f 336 325 26
f 207 208 56
f 464 36 580
f 502 129 504
f 157 624 622
f 308 311 82
f 247 223 248
f 507 483 508
f 331 88 329
f 494 500 497
f 156 601 602
f 591 589 592
f 365 98 596
f 75 281 282
f 152 587 577
f 149 559 560
f 555 121 553
f 530 141 529
f 515 517 139
f 361 594 98
f 250 67 249
f 157 608 609
f 294 293 209
f 317 81 316
f 557 338 26
f 303 305 81
f 530 529 528
f 101 381 382
f 415 418 111
f 192 184 50
f 412 110 411
f 20 384 256
f 131 594 486
f 281 264 282
f 347 287 348
f 28 349 582
f 165 163 1
f 248 250 66
f 617 107 398
f 273 271 274
f 456 115 453
f 558 561 560
f 335 576 91
f 331 177 332
f 116 433 436
f 351 370 92
f 136 511 530
f 239 240 65
f 247 258 19
f 304 23 567
f 148 557 570
f 214 208 58
f 440 426 450
f 268 270 269
f 258 247 268
f 204 202 16
f 466 125 465
f 517 513 133
f 168 275 274
f 275 73 274
f 198 193 53
f 309 308 307
f 510 511 136
f 415 416 110
f 131 490 597
f 473 475 474
f 414 415 111
f 493 495 494
f 496 504 485
f 433 116 432
f 600 375 601
f 240 234 65
f 418 415 412
f 486 361 3
f 567 566 304
f 380 393 29
f 17 199 197
f 491 492 132
f 451 449 435
f 218 217 216
f 623 621 613
f 396 104 395
f 433 439 436
f 628 160 627
f 215 202 217
f 209 207 2
f 427 113 424
f 434 10 544
f 434 433 432
f 199 17 210
f 150 564 565
f 489 491 132
f 275 13 285
f 497 500 134
f 125 466 476
f 578 152 577
f 208 214 211
f 328 88 343
f 356 27 603
f 150 566 567
f 372 100 371
f 190 191 47
f 235 8 398
f 260 261 72
f 422 403 414
f 422 414 111
f 453 454 123
f 349 583 582
f 521 520 519
f 425 453 115
f 616 622 158
f 483 130 508
f 151 586 572
f 212 17 232
f 400 397 402
f 377 396 99
f 41 522 511
f 510 508 505
f 549 547 42
f 475 473 36
f 510 137 509
f 222 221 197
f 430 115 429
f 220 194 1
f 305 54 204
f 621 29 613
f 192 171 184
f 460 335 5
f 88 331 332
f 74 277 279
f 300 301 80
f 390 389 388
f 165 45 164
f 146 549 551
f 291 278 75
f 448 120 445
f 147 543 544
f 607 610 609
f 603 602 356
f 139 529 514
f 333 553 443
f 92 368 347
f 261 260 259
f 300 6 200
f 46 177 331
f 284 283 174
f 301 300 200
f 471 468 474
f 54 305 301
f 302 304 303
f 569 150 567
f 150 569 570
f 294 209 2
f 628 629 160
f 548 543 147
f 147 625 627
f 63 233 234
f 426 427 114
f 41 509 532
f 198 52 196
f 614 105 612
f 147 627 547
f 81 305 306
f 549 548 547
f 54 301 200
f 342 88 332
f 264 281 70
f 193 194 53
f 455 429 456
f 187 321 14
f 479 130 484
f 147 544 625
f 458 456 453
f 304 80 303
f 314 84 313
f 488 503 501
f 321 332 14
f 423 425 424
f 305 204 306
f 341 339 25
f 514 40 516
f 625 628 627
f 340 339 341
f 105 614 391
f 243 228 62
f 318 316 78
f 75 278 279
f 357 355 353
f 238 257 63
f 466 455 476
f 425 423 4
f 448 449 120
f 408 638 108
f 292 275 285
f 22 278 289
f 515 513 517
f 501 503 134
f 622 623 158
f 134 503 504
f 195 216 206
f 163 271 246
f 619 617 620
f 62 228 229
f 163 165 164
f 453 425 454
f 489 132 488
f 82 628 625
f 58 208 209
f 525 608 40
f 626 547 627
f 518 517 498
f 489 487 491
f 557 26 564
f 325 336 344
f 541 145 539
f 40 616 516
f 338 556 89
f 250 248 245
f 139 514 515
f 98 594 596
f 246 220 1
f 112 413 630
f 9 536 413
f 156 600 601
f 332 177 14
f 321 342 332
f 156 606 600
f 584 330 585
f 302 303 81
f 584 87 330
f 330 25 585
f 400 239 65
f 439 440 117
f 95 358 368
f 597 594 131
f 594 361 486
f 246 67 245
f 561 562 149
f 28 364 362
f 55 216 217
f 427 430 114
f 267 20 254
f 556 555 553
f 84 309 558
f 311 310 312
f 609 525 142
f 256 68 255
f 124 460 461
f 82 311 312
f 307 308 82
f 589 135 495
f 527 40 514
f 112 418 412
f 20 256 254
f 258 238 19
f 267 254 269
f 273 272 249
f 392 391 393
f 137 533 509
f 122 455 456
f 9 413 411
f 130 480 505
f 333 443 5
f 527 525 40
f 589 495 385
f 39 496 485
f 223 225 224
f 414 416 415
f 219 222 53
f 145 538 539
f 413 412 411
f 469 468 467
f 183 181 6
f 191 192 50
f 429 35 431
f 292 285 76
f 413 112 412
f 415 110 412
f 43 164 167
f 467 468 126
f 617 101 620
f 450 451 117
f 438 546 545
f 619 620 159
f 17 212 210
f 124 579 576
f 584 153 583
f 460 124 576
f 3 469 467
f 311 308 314
f 6 320 183
f 389 104 388
f 251 250 249
f 194 165 1
f 291 289 278
f 287 77 348
f 238 258 257
f 139 517 518
f 238 236 19
f 223 247 19
f 382 380 29
f 39 518 498
f 361 359 3
f 69 255 257
f 139 518 528
f 33 545 535
f 387 385 7
f 69 268 269
f 477 462 125
f 454 479 123
f 121 555 447
f 451 435 117
f 454 425 4
f 233 252 8
f 124 463 464
f 69 258 268
f 168 167 166
f 583 153 582
f 384 394 102
f 138 512 513
f 57 210 211
f 254 256 255
f 607 609 142
f 324 319 86
f 289 291 76
f 291 292 76
f 384 102 383
f 422 421 420
f 221 17 197
f 383 102 381
f 376 377 99
f 99 373 374
f 386 105 392
f 438 33 440
f 90 341 343
f 281 75 279
f 574 571 96
f 628 82 312
f 221 222 59
f 127 471 474
f 595 605 603
f 551 538 145
f 334 91 340
f 322 324 85
f 305 303 301
f 18 239 399
f 306 204 16
f 199 198 197
f 166 190 180
f 303 80 301
f 267 266 265
f 626 42 547
f 16 215 213
f 349 351 350
f 295 16 213
f 68 379 252
f 250 251 66
f 627 160 626
f 383 68 256
f 343 88 342
f 507 508 136
f 202 215 16
f 197 198 53
f 254 69 269
f 603 605 156
f 418 419 111
f 384 383 256
f 455 122 476
f 203 204 54
f 556 557 148
f 255 68 253
f 313 84 560
f 25 328 341
f 254 255 69
f 603 156 602
f 581 584 583
f 630 632 112
f 163 246 1
f 246 245 220
f 432 116 558
f 499 591 590
f 320 563 86
f 345 93 350
f 306 16 295
f 346 93 345
f 562 568 149
f 604 605 155
f 154 592 593
f 545 552 535
f 511 522 530
f 574 573 571
f 566 150 565
f 361 98 360
f 67 271 273
f 234 235 65
f 208 211 56
f 574 151 573
f 251 270 66
f 398 8 378
f 213 215 214
f 438 440 439
f 315 314 313
f 263 71 262
f 20 373 384
f 496 134 504
f 329 88 328
f 81 306 316
f 555 556 148
f 592 589 103
f 617 619 107
f 227 207 56
f 571 359 96
f 446 466 465
f 206 216 55
f 359 571 469
f 568 148 570
f 34 437 435
f 28 351 349
f 21 272 282
f 113 423 424
f 490 489 488
f 379 68 383
f 210 212 211
f 80 563 300
f 351 92 350
f 326 346 12
f 83 317 318
f 555 148 554
f 212 231 56
f 218 57 217
f 271 67 246
f 195 196 52
f 270 268 66
f 390 592 103
f 148 568 554
f 495 493 7
f 592 390 593
f 357 95 355
f 574 575 151
f 452 120 451
f 154 591 592
f 587 585 577
f 395 394 396
f 93 349 350
f 610 416 611
f 166 44 190
f 315 23 302
f 315 302 317
f 268 247 66
f 606 154 593
f 396 394 99
f 211 212 56
f 370 369 368
f 235 397 65
f 280 278 22
f 83 315 317
f 575 588 151
f 74 279 280
f 385 495 7
f 63 257 253
f 397 235 398
f 214 58 213
f 220 219 194
f 546 146 545
f 236 225 19
f 599 94 602
f 235 233 8
f 102 394 395
f 611 416 32
f 225 223 19
f 139 528 529
f 231 62 229
f 419 406 421
f 451 450 452
f 49 182 185
f 402 397 107
f 52 199 218
f 416 610 110
f 225 236 244
f 107 397 398
f 68 252 253
f 322 85 321
f 182 181 183
f 118 438 439
f 546 438 118
f 348 77 345
f 543 546 118
f 231 212 232
f 610 611 157
f 33 438 545
f 385 386 103
f 479 480 130
f 169 195 15
f 93 583 349
f 15 195 206
f 190 44 192
f 247 248 66
f 146 552 545
f 248 60 245
f 570 557 564
f 274 271 43
f 63 253 233
f 272 21 249
f 507 528 518
f 67 273 249
f 487 467 126
f 196 195 169
f 624 159 623
f 134 496 497
f 132 503 488
f 104 393 395
f 556 553 89
f 355 356 94
f 258 69 257
f 229 61 227
f 56 231 227
f 460 576 335
f 463 124 461
f 394 373 99
f 29 393 391
f 67 250 245
f 193 198 196
f 462 36 464
f 144 633 630
f 141 526 527
f 517 133 498
f 536 144 630
f 100 372 599
f 144 536 537
f 22 289 287
f 578 579 152
f 579 578 576
f 189 188 187
f 60 223 224
f 92 348 350
f 555 554 447
f 396 377 388
f 194 193 165
f 413 536 630
f 372 352 599
f 377 376 375
f 348 345 350
f 105 386 387
f 240 237 234
f 463 462 464
f 135 500 494
f 45 196 169
f 512 612 387
f 245 60 220
f 429 115 456
f 223 60 248
f 288 289 76
f 525 526 142
f 100 599 601
f 613 29 391
f 526 523 520
f 341 328 343
f 631 641 639
f 264 21 282
f 266 72 265
f 106 402 403
f 73 273 274
f 186 206 205
f 381 379 383
f 52 216 195
f 410 18 399
f 290 272 73
f 72 371 374
f 526 525 527
f 115 430 424
f 498 497 496
f 621 382 29
f 543 118 434
f 214 215 57
f 522 141 530
f 511 510 509
f 352 94 599
f 493 512 7
f 90 340 341
f 169 171 170
f 605 604 606
f 219 60 224
f 104 389 392
f 359 469 3
f 186 49 185
f 222 219 224
f 166 167 44
f 428 427 426
f 523 522 524
f 129 502 481
f 50 185 188
f 164 45 170
f 425 115 424
f 33 428 426
f 427 428 113
f 94 356 602
f 515 138 513
f 114 431 452
f 237 236 238
f 215 217 57
f 95 354 355
f 220 60 219
f 515 514 516
f 183 320 319
f 222 197 53
f 559 569 567
f 300 320 6
f 435 436 117
f 96 360 363
f 640 642 641
f 242 243 62
f 140 537 519
f 508 130 505
f 420 410 399
f 537 539 144
f 317 316 318
f 426 114 450
f 186 15 206
f 311 83 310
f 625 544 307
f 544 10 307
f 168 43 167
f 185 182 188
f 369 354 95
f 44 171 192
f 605 606 156
f 548 549 146
f 100 601 375
f 149 568 569
f 381 380 382
f 455 466 35
f 480 479 454
f 543 548 546
f 493 133 513
f 492 472 37
f 477 125 476
f 491 487 126
f 337 336 338
f 588 153 587
f 576 578 91
f 633 161 632
f 96 359 360
f 39 485 483
f 101 617 378
f 193 45 165
f 163 164 43
f 618 624 611
f 507 136 528
f 561 149 560
f 641 162 639
f 116 561 558
f 494 133 493
f 253 252 233
f 63 237 238
f 392 393 104
f 440 450 117
f 93 581 583
f 386 385 387
f 120 449 451
f 421 422 111
f 486 3 467
f 302 81 317
f 633 632 630
f 462 475 36
f 376 99 374
f 489 490 131
f 447 449 448
f 387 612 105
f 106 420 399
f 173 46 172
f 492 491 472
f 316 306 295
f 22 287 347
f 109 410 420
f 507 39 483
f 559 23 313
f 214 57 211
f 196 45 193
f 10 434 432
f 422 106 403
f 626 160 640
f 487 486 467
f 542 41 532
f 400 106 399
f 444 120 452
f 198 199 52
f 475 127 474
f 621 620 382
f 621 623 159
f 450 114 452
f 92 347 348
f 376 100 375
f 434 118 433
f 503 132 502
f 337 90 336
f 537 536 519
f 395 393 380
f 201 54 200
f 171 44 170
f 355 94 353
f 58 296 213
f 422 420 106
f 595 365 596
f 569 568 570
f 523 140 520
f 114 430 431
f 218 210 57
f 304 566 80
f 639 162 638
f 261 371 72
f 548 147 547
f 498 133 497
f 150 570 564
f 222 224 59
f 142 526 520
f 437 436 435
f 141 522 523
f 137 510 505
f 173 179 176
f 559 149 569
f 121 447 448
f 563 320 300
f 102 395 380
f 257 255 253
f 642 162 641
f 83 311 314
f 216 52 218
f 512 493 513
f 23 304 302
f 91 339 340
f 512 138 612
f 159 620 621
f 218 199 210
f 364 28 575
f 83 318 310
f 168 274 43
f 136 530 528
f 140 523 524
f 495 135 494
f 233 235 234
f 566 563 80
f 25 339 577
f 277 74 276
f 475 462 477
f 133 494 497
f 436 437 116
f 389 386 392
f 548 146 546
f 441 460 5
f 10 309 307
f 65 397 400
f 543 434 544
f 640 641 161
f 272 273 73
f 581 93 346
f 419 421 111
f 319 320 86
f 180 179 178
f 127 475 477
f 231 229 227
f 337 334 340
f 136 508 510
f 308 309 84
f 237 63 234
f 447 554 34
f 252 379 378
f 315 83 314
f 608 622 616
f 338 336 26
f 337 338 89
f 13 275 168
f 209 208 207
f 436 439 117
f 628 312 629
f 360 366 363
f 364 574 96
f 359 361 360
f 466 446 35
f 500 501 134
f 406 109 421
f 135 589 591
f 601 599 602
f 340 90 337
f 481 492 37
f 522 41 524
f 78 316 295
f 131 486 487
f 403 32 414
f 634 626 640
f 151 572 573
f 515 516 138
f 8 252 378
f 265 72 374
f 9 521 519
f 538 549 42
f 368 358 347
f 588 587 586
f 458 453 123
f 589 385 103
f 502 492 481
f 32 416 414
f 430 427 424
f 153 585 587
f 540 144 539
f 370 368 92
f 209 293 58
f 428 33 535
f 326 581 346
f 625 307 82
f 575 28 582
f 6 181 200
f 421 109 420
f 553 121 443
f 160 642 640
f 153 584 585
f 309 432 558
f 334 337 89
f 23 315 313
f 271 163 43
f 296 295 213
f 39 498 496
f 118 439 433
f 531 113 534
f 293 296 58
f 28 362 351
f 489 131 487
f 431 444 452
f 84 558 560
f 98 366 360
f 45 169 170
f 379 101 378
f 462 463 125
f 308 84 314
f 10 432 309
f 299 24 310
f 132 492 502
f 512 387 7
f 639 638 408
f 565 323 86
f 59 244 242
f 106 400 402
f 440 33 426
f 566 565 563
f 617 398 378
f 224 225 59
f 410 109 409
f 239 400 399
f 194 219 53
f 358 22 347
f 610 157 609
f 27 595 603
f 479 484 482
f 142 520 521
f 585 25 577
f 339 578 577
f 408 407 406
f 407 109 406
f 31 408 406
f 407 408 108
f 31 639 408
f 419 31 406
f 608 616 40
f 430 429 431
f 455 35 429
f 35 444 431
f 188 51 187
f 188 182 51
f 51 322 187
f 322 51 319
f 51 182 183
f 319 51 183
f 187 322 321
f 322 319 324
f 381 101 379
f 405 407 108
f 404 405 108
f 286 285 178
f 407 405 409
f 109 407 409
f 191 175 47
f 167 164 170
f 50 184 185
f 44 167 170
f 64 244 236
f 243 244 64
f 50 188 189
f 541 542 145
f 442 445 119
f 339 91 578
f 445 446 119
f 624 623 622
f 611 624 157
f 523 526 141
f 141 527 529
f 527 514 529
f 445 120 444
f 446 445 444
f 35 446 444
f 613 614 158
f 158 614 615
f 623 613 158
f 614 613 391
f 614 612 615
f 371 376 374
f 100 376 371
f 479 482 123
f 373 394 384
f 540 42 634
f 633 540 634
f 538 42 540
f 633 634 161
f 161 634 640
f 42 626 634
f 540 633 144
f 557 556 338
f 553 333 89
f 262 21 264
f 251 21 262
f 5 335 333
f 270 251 262
f 21 251 249
f 600 593 30
f 606 593 600
f 600 30 375
f 593 390 30
f 30 377 375
f 390 388 30
f 30 388 377
f 228 243 241
f 470 478 459
f 470 127 478
f 127 477 478
f 184 186 185
f 478 477 476
f 122 478 476
f 357 74 280
f 518 39 507
f 344 342 85
f 325 344 85
f 342 344 343
f 85 342 321
f 344 90 343
f 90 344 336
f 482 129 481
f 482 481 457
f 482 457 123
f 481 37 457
f 449 447 34
f 435 449 34
f 470 472 471
f 472 470 37
f 470 471 127
f 472 126 471
f 126 468 471
f 470 459 37
f 491 126 472
f 504 129 485
f 221 59 242
f 125 463 465
f 437 34 562
f 561 437 562
f 554 568 562
f 34 554 562
f 437 561 116
f 390 103 389
f 103 386 389
f 392 105 391
f 572 586 580
f 572 580 36
f 586 152 580
f 473 572 36
f 244 243 242
f 225 244 59
f 64 240 241
f 240 239 241
f 237 240 64
f 243 64 241
f 236 237 64
f 411 607 521
f 9 411 521
f 110 607 411
f 607 142 521
f 610 607 110
f 171 15 184
f 171 169 15
f 15 186 184
f 87 584 581
f 153 588 582
f 588 575 582
f 381 102 380
f 573 572 473
f 468 469 128
f 474 468 128
f 469 571 128
f 571 573 128
f 573 473 128
f 473 474 128
f 564 323 565
f 26 323 564
f 323 324 86
f 325 323 26
f 325 324 323
f 563 565 86
f 324 325 85
f 410 230 18
f 230 228 18
f 18 228 241
f 18 241 239
f 401 619 618
f 401 402 107
f 403 402 401
f 619 159 618
f 401 618 32
f 619 401 107
f 403 401 32
f 618 611 32
f 159 624 618
f 478 122 459
f 122 458 459
f 37 459 457
f 459 458 457
f 122 456 458
f 457 458 123
f 191 190 192
f 485 129 484
f 129 482 484
f 483 485 484
f 130 483 484
f 189 187 14
f 191 50 189
f 191 189 175
f 189 14 175
f 14 177 175
f 499 501 500
f 501 499 38
f 38 499 590
f 135 499 500
f 488 501 38
f 499 135 591
f 480 454 4
f 284 12 346
f 4 423 506
f 480 4 506
f 423 531 506
f 480 506 505
f 531 137 506
f 506 137 505
f 365 366 98
f 71 270 262
f 270 71 269
f 71 267 269
f 335 334 333
f 333 334 89
f 334 335 91
f 536 9 519
f 465 463 461
f 537 140 541
f 520 140 519
f 119 446 465
f 465 461 119
f 461 441 119
f 460 441 461
f 176 46 173
f 299 297 24
f 71 263 266
f 263 260 266
f 260 72 266
f 263 70 260
f 205 201 49
f 201 181 49
f 186 205 49
f 181 201 200
f 181 182 49
f 284 77 283
f 586 587 152
f 588 586 151
f 20 267 265
f 266 267 71
f 31 417 631
f 631 417 632
f 31 631 639
f 417 31 419
f 641 631 161
f 417 112 632
f 161 631 632
f 418 417 419
f 417 418 112
f 284 345 77
f 542 550 145
f 542 541 524
f 284 174 12
f 48 174 283
f 373 20 265
f 373 265 374
f 609 608 525
f 608 157 622
f 560 559 313
f 636 637 162
f 541 140 524
f 41 542 524
f 358 357 280
f 70 263 264
f 263 262 264
f 176 177 46
f 174 48 173
f 174 173 172
f 538 551 549
f 538 540 539
f 537 541 539
f 232 221 242
f 17 221 232
f 232 242 62
f 231 232 62
f 203 205 55
f 203 55 202
f 201 205 203
f 202 55 217
f 205 206 55
f 204 203 202
f 73 275 292
f 292 290 73
f 272 290 282
f 290 292 291
f 75 290 291
f 290 75 282
f 70 277 259
f 277 70 281
f 277 281 279
f 260 70 259
f 12 174 172
f 104 396 388
f 367 27 354
f 365 27 367
f 354 27 356
f 365 367 366
f 595 27 365
f 318 299 310
f 155 596 597
f 155 597 598
f 596 594 597
f 595 596 155
f 605 595 155
f 180 47 179
f 180 190 47
f 352 372 11
f 11 372 261
f 312 310 24
f 642 636 162
f 636 297 637
f 367 369 97
f 366 367 97
f 369 367 354
f 369 370 97
f 580 579 464
f 580 152 579
f 579 124 464
f 61 230 409
f 230 410 409
f 230 61 229
f 230 229 228
f 76 285 286
f 353 352 276
f 74 353 276
f 288 76 286
f 288 286 283
f 289 288 287
f 203 54 201
f 287 288 77
f 77 288 283
f 286 48 283
f 531 423 113
f 276 11 259
f 11 261 259
f 277 276 259
f 616 158 615
f 516 616 615
f 138 516 615
f 138 615 612
f 509 533 532
f 503 502 504
f 635 79 294
f 635 294 404
f 635 637 79
f 637 635 638
f 638 635 108
f 635 404 108
f 226 61 405
f 61 226 227
f 405 61 409
f 227 226 207
f 48 178 179
f 48 286 178
f 173 48 179
f 534 143 533
f 534 535 143
f 531 534 533
f 533 143 532
f 137 531 533
f 261 372 371
f 13 180 178
f 285 13 178
f 180 13 166
f 13 168 166
f 346 345 284
f 331 327 46
f 46 327 172
f 172 327 326
f 382 620 101
f 442 121 448
f 443 121 442
f 2 226 404
f 294 2 404
f 404 226 405
f 207 226 2
f 550 551 145
f 552 146 551
f 143 550 532
f 552 550 143
f 330 329 328
f 24 636 629
f 94 352 353
f 352 11 276
f 113 428 534
f 428 535 534
f 509 41 511
f 535 552 143
f 550 552 551
f 550 542 532
f 369 95 368
f 326 327 87
f 87 327 329
f 327 331 329
f 581 326 87
f 293 79 298
f 79 297 298
f 296 298 78
f 79 293 294
f 296 293 298
f 598 490 38
f 358 280 22
f 280 279 278
f 357 358 95
f 74 357 353
f 330 328 25
f 567 23 559
f 590 598 38
f 590 604 598
f 598 604 155
f 604 590 154
f 590 591 154
f 604 154 606
f 297 299 298
f 299 318 78
f 298 299 78
f 355 354 356
f 629 636 642
f 312 24 629
f 629 642 160
f 370 362 97
f 362 363 97
f 363 366 97
f 364 363 362
f 362 370 351
f 96 363 364
f 297 636 24
f 162 637 638
f 637 297 79
f 490 488 38
f 598 597 490
f 441 442 119
f 443 442 441
f 443 441 5
f 442 448 445
f 296 78 295
f 326 12 172
f 575 574 364
f 47 175 176
f 175 177 176
f 47 176 179
