# FEM surface export ¡ª frame 312
# Vertices: 642  Faces: 1280
v -0.52541256 1.39769804 -0.00003378
v 0.52552760 1.39586997 0.00052436
v -0.61001205 0.00000000 -0.01128572
v 0.60342801 0.00000000 -0.01158333
v 0.00226110 0.10659392 0.92821842
v -0.00134044 1.08984041 0.85853058
v -0.00050471 0.10958551 -0.93273681
v 0.00000653 1.08780706 -0.85732901
v 0.88485855 0.59185320 -0.54822212
v 0.88424963 0.59263963 0.54667640
v -0.88370728 0.59150916 -0.54733926
v -0.88234740 0.59369671 0.54566061
v -0.81658500 1.06343877 0.31179854
v -0.50870591 0.88441211 0.82401305
v -0.30929908 1.35672593 0.49970669
v 0.30932337 1.35628772 0.50081539
v 0.00022458 1.53986478 0.00011087
v 0.30924636 1.35658216 -0.50005299
v -0.30916309 1.35773706 -0.50021189
v -0.50995362 0.88216698 -0.82395804
v -0.81657577 1.06443977 -0.31192631
v -1.03808188 0.58944017 -0.00138794
v 0.50987393 0.88470674 0.82599020
v 0.81677908 1.06146038 0.31173953
v -0.53175187 0.30452186 0.86459792
v 0.00004525 0.59063590 1.03983510
v -0.88480330 0.13078956 -0.33475223
v -0.88189667 0.13258186 0.34029421
v -0.00227849 0.59252214 -1.03921115
v -0.53133237 0.30054322 -0.86143005
v 0.81732368 1.06187892 -0.31154865
v 0.50850171 0.88183784 -0.82365942
v 0.88392270 0.13144532 0.33847737
v 0.53520268 0.30342036 0.86348665
v 0.34660152 0.00000000 0.57173824
v -0.36318716 0.00000000 0.57645541
v -0.00724606 0.00000000 0.00622983
v -0.35599476 0.00000000 -0.56565750
v 0.35367763 0.00000000 -0.56918752
v 0.53527731 0.30290240 -0.86551911
v 0.88777465 0.13110568 -0.33738062
v 1.04214656 0.59156990 -0.00120871
v -0.69523716 1.25544810 0.16083640
v -0.58936363 1.24250734 0.42632270
v -0.43374458 1.40842164 0.25939330
v -0.71881127 0.74502158 0.71229976
v -0.69677079 0.99361986 0.59494537
v -0.88009590 0.83723015 0.44244418
v -0.16133071 1.24715233 0.70367855
v -0.42823333 1.14711761 0.69177264
v -0.26355186 1.00275290 0.87398893
v -0.16191593 1.49277484 0.26245412
v -0.27235913 1.50361860 0.00015303
v 0.16043364 1.24619126 0.70406258
v 0.00011990 1.39595771 0.52542591
v 0.27274397 1.50298679 0.00040238
v 0.16270484 1.49307752 0.26288226
v 0.43400547 1.40722549 0.26014826
v -0.16198814 1.49309289 -0.26240450
v -0.43359157 1.40925062 -0.25961721
v 0.43383896 1.40798104 -0.25959587
v 0.16222528 1.49302971 -0.26244947
v -0.16075833 1.24601460 -0.70315087
v 0.00065961 1.39649487 -0.52534211
v 0.16152057 1.24593210 -0.70396942
v -0.58970016 1.24237728 -0.42640862
v -0.69536287 1.25525534 -0.16124132
v -0.26358584 0.99986643 -0.87222433
v -0.42763266 1.14666176 -0.69202304
v -0.88153100 0.83769041 -0.44408962
v -0.69637412 0.99330443 -0.59517264
v -0.72189039 0.74305439 -0.71313369
v -0.85780776 1.08868706 -0.00004161
v -0.99940926 0.59043676 -0.28523132
v -0.97308916 0.84017628 -0.16722569
v -0.97094172 0.83940017 0.16496640
v -0.99801552 0.58984810 0.28231898
v 0.58972657 1.23933458 0.42687702
v 0.69508451 1.25319278 0.16107552
v 0.26260373 1.00068760 0.87449008
v 0.42730319 1.14529848 0.69239211
v 0.88102937 0.83611155 0.44320655
v 0.69752049 0.99236035 0.59547961
v 0.72196430 0.74433649 0.71221268
v -0.26934111 0.74577320 0.97799313
v -0.00089039 0.85053110 0.98358339
v -0.73679763 0.44358882 0.73011267
v -0.54371703 0.59418684 0.88325971
v 0.00170982 0.33278567 1.02232707
v -0.27459657 0.43848020 1.00189435
v -0.27948812 0.18632279 0.93298322
v -1.00753462 0.34066030 0.17240104
v -0.91497052 0.34853539 0.45979437
v -0.91376090 0.34669462 -0.46123546
v -1.00984645 0.34283349 -0.17412888
v -0.78604811 0.00000000 0.18793388
v -0.93357438 0.10829176 0.00262951
v -0.78155410 0.00000000 -0.18008034
v -0.54686433 0.59040165 -0.88322622
v -0.73599058 0.43693382 -0.72776705
v -0.00128931 0.84977281 -0.98193032
v -0.27140480 0.74500579 -0.97837418
v -0.28151041 0.18654048 -0.93507719
v -0.27688631 0.43763915 -0.99987334
v 0.00077337 0.33682746 -1.02265680
v 0.42816585 1.14405775 -0.69124627
v 0.26354390 0.99940574 -0.87278664
v 0.69520199 1.25295758 -0.16057834
v 0.58984208 1.23938036 -0.42508662
v 0.72131491 0.74284744 -0.71421635
v 0.69765252 0.99191016 -0.59536701
v 0.88287324 0.83606726 -0.44425651
v 0.78084242 0.00000000 0.18410775
v 0.66004771 0.00000000 0.47844243
v 0.49546790 0.00000000 0.29538772
v 0.74068302 0.44333911 0.73279649
v 0.74204659 0.19387221 0.63618612
v 0.91411984 0.34772867 0.46180508
v 0.18247971 0.00000000 0.78867787
v 0.47027665 0.05754602 0.76200700
v 0.28217226 0.19001922 0.93483621
v 0.17325130 0.00000000 0.29514214
v 0.30646721 0.00000000 -0.00582150
v -0.17584461 0.00000000 0.78819728
v -0.00651355 0.00000000 0.60969365
v -0.31375593 0.00000000 -0.00027402
v -0.19093339 0.00000000 0.29585046
v -0.51431131 0.00000000 0.29397067
v 0.17927632 0.00000000 -0.29939950
v 0.47626427 0.00000000 -0.28698459
v -0.48643252 0.00000000 -0.30366513
v -0.17923024 0.00000000 -0.29563588
v 0.17844623 0.00055484 -0.79006016
v -0.00337214 0.00000000 -0.60293484
v -0.17862938 0.00000000 -0.79023445
v 0.66028506 0.00000000 -0.47461289
v 0.77481878 0.00000000 -0.18125236
v 0.28302896 0.18961583 -0.93516046
v 0.46980017 0.06617793 -0.76379317
v 0.91574448 0.34493878 -0.45995653
v 0.74655348 0.19503345 -0.63738370
v 0.73997325 0.44102603 -0.73148322
v 0.93363833 0.11159565 0.00089988
v 1.00134778 0.59092885 -0.28640413
v 1.00984693 0.34543258 -0.17279665
v 1.00991726 0.34605631 0.17302182
v 0.99918807 0.59074724 0.28324011
v 0.27747354 0.43957096 0.99909365
v 0.54639554 0.59543967 0.88466311
v 0.26924852 0.74602354 0.97865504
v -0.66590947 0.00520551 0.48588797
v -0.47015280 0.05466304 0.76205653
v -0.74369502 0.20235579 0.63914520
v -0.46820289 0.05513329 -0.76454973
v -0.66791385 0.00000000 -0.48077652
v -0.74063128 0.18907388 -0.63210738
v 0.54490066 0.59112334 -0.88411862
v 0.27580106 0.44237018 -1.00236773
v 0.26914978 0.74437529 -0.97779864
v 0.97201246 0.83770579 0.16543821
v 0.97174662 0.83785784 -0.16549794
v 0.85792607 1.08634830 0.00027893
v -0.61571586 1.33346212 0.08127346
v -0.57104480 1.34179711 0.21301082
v -0.48366761 1.41084087 0.13106997
v -0.71149653 1.15992308 0.37314150
v -0.64866590 1.25593185 0.29639140
v -0.76245314 1.16451645 0.23776247
v -0.37513852 1.39031732 0.38321373
v -0.51610333 1.33252680 0.34622094
v -0.45451069 1.30832422 0.46846467
v -0.80755353 0.67017144 0.63563597
v -0.81060010 0.79422855 0.58504045
v -0.88881612 0.71705276 0.49817905
v -0.61041832 0.94341993 0.71774238
v -0.71530735 0.87212747 0.65942621
v -0.61919659 0.81643319 0.77472556
v -0.85564005 0.95332342 0.38008243
v -0.79612333 0.91896409 0.52383459
v -0.76610321 1.03396451 0.45835009
v -0.08212523 1.17382038 0.78766304
v -0.21483281 1.13137448 0.79773945
v -0.13343102 1.05013084 0.87449557
v -0.37257758 1.25990546 0.60224360
v -0.29755718 1.20386362 0.70482641
v -0.23737499 1.30844891 0.60708636
v -0.38944116 0.94743478 0.85715610
v -0.34956184 1.08014381 0.79029042
v -0.47408652 1.02143538 0.76668787
v -0.65111548 1.12493038 0.51698476
v -0.56966054 1.07695079 0.65200573
v -0.51532954 1.20277488 0.56599981
v -0.35738617 1.46740651 0.13148205
v -0.40244547 1.45874321 0.00024146
v -0.23840086 1.43542266 0.38557807
v -0.30102462 1.45929587 0.26366964
v -0.13739957 1.53172123 0.00002964
v -0.21932399 1.50760436 0.13259855
v -0.08175302 1.52851522 0.13282119
v 0.08091880 1.17299962 0.78759199
v -0.00035188 1.25548375 0.71236211
v 0.15625416 1.38546646 0.51904762
v 0.08090195 1.32876098 0.62010032
v 0.23686308 1.30729473 0.60794383
v -0.08109454 1.32867444 0.62014610
v -0.15633038 1.38679183 0.51886439
v 0.40317604 1.45751107 0.00060898
v 0.35807937 1.46639299 0.13216877
v 0.48424166 1.40954638 0.13144359
v 0.08240455 1.52788699 0.13314843
v 0.22005644 1.50753963 0.13313305
v 0.13785689 1.53121674 0.00032460
v 0.37553063 1.38918245 0.38395607
v 0.30131540 1.45922852 0.26426542
v 0.23861799 1.43436074 0.38610986
v -0.08209785 1.45638394 0.39936447
v 0.08212555 1.45572746 0.39876819
v 0.00014423 1.50542700 0.26590437
v -0.35742092 1.46745872 -0.13134117
v -0.48394880 1.41115808 -0.13090616
v -0.08184264 1.52848744 -0.13272771
v -0.21944766 1.50838959 -0.13245697
v -0.37474540 1.39090896 -0.38332951
v -0.30061707 1.46010637 -0.26342019
v -0.23827334 1.43596244 -0.38572982
v 0.48440486 1.41021168 -0.13068619
v 0.35810745 1.46723449 -0.13110137
v 0.23868069 1.43554199 -0.38580745
v 0.30099884 1.45954800 -0.26367640
v 0.37512264 1.39009643 -0.38336092
v 0.21970022 1.50775862 -0.13233300
v 0.08211504 1.52827716 -0.13271610
v -0.08135933 1.17245674 -0.78737605
v 0.00029825 1.25490975 -0.71291256
v 0.08185756 1.17161179 -0.78740042
v -0.15602870 1.38660705 -0.51878238
v -0.08073352 1.32888412 -0.62023807
v -0.23711477 1.30842161 -0.60713476
v 0.23775914 1.30805063 -0.60769862
v 0.08158956 1.32895672 -0.62075680
v 0.15662625 1.38628769 -0.51895553
v 0.00003727 1.50528526 -0.26573062
v 0.08253223 1.45654261 -0.39869463
v -0.08186150 1.45674586 -0.39895681
v -0.57150096 1.34209991 -0.21330959
v -0.61608231 1.33373153 -0.08117526
v -0.45444995 1.30856717 -0.46883419
v -0.51655185 1.33386457 -0.34653327
v -0.76281321 1.16543853 -0.23838185
v -0.64916229 1.25601459 -0.29691663
v -0.71127480 1.16026497 -0.37370682
v -0.13276589 1.04930806 -0.87296391
v -0.21435227 1.13025653 -0.79760242
v -0.47377813 1.01969957 -0.76582044
v -0.34902421 1.07802689 -0.78963554
v -0.39017639 0.94511557 -0.85564661
v -0.29701081 1.20284164 -0.70533544
v -0.37252834 1.26016414 -0.60292250
v -0.89100826 0.71619803 -0.50000364
v -0.81247038 0.79380339 -0.58598709
v -0.80995214 0.66793460 -0.63682711
v -0.76566398 1.03408968 -0.45889589
v -0.79653990 0.91925496 -0.52490234
v -0.85678917 0.95440531 -0.38090149
v -0.62148112 0.81432366 -0.77580249
v -0.71649772 0.87135679 -0.65997308
v -0.61104661 0.94150883 -0.71815646
v -0.51550448 1.20267677 -0.56664526
v -0.56917840 1.07570171 -0.65239477
v -0.65078187 1.12448347 -0.51665002
v -0.70457387 1.26466966 0.00001409
v -0.84763497 1.08277059 -0.15830590
v -0.78405815 1.17777801 -0.08164016
v -0.78366286 1.17742193 0.08125722
v -0.84671730 1.08207726 0.15767699
v -0.95066577 0.59196490 -0.42007586
v -0.95164704 0.71576548 -0.36980343
v -1.01649880 0.71672344 -0.08578680
v -0.99432874 0.71632320 -0.22792575
v -1.02865660 0.59083509 -0.14454231
v -0.93599969 0.84117895 -0.30855227
v -0.90449935 0.95651597 -0.24260210
v -0.95072216 0.71586156 0.36767006
v -0.95013928 0.59217376 0.41883957
v -0.90369362 0.95599180 0.24164066
v -0.93501127 0.84144008 0.30693254
v -1.02892005 0.59105253 0.14195223
v -0.99433303 0.71661919 0.22557573
v -1.01718378 0.71668267 0.08322108
v -0.92672402 0.96980828 -0.08381078
v -0.98503023 0.84320343 -0.00031608
v -0.92639667 0.96941113 0.08314825
v 0.57157248 1.34037757 0.21350791
v 0.61572474 1.33116305 0.08126019
v 0.45477605 1.30620968 0.46953213
v 0.51664799 1.33123732 0.34683841
v 0.76250297 1.16245639 0.23858844
v 0.64895213 1.25389719 0.29714406
v 0.71164000 1.15805578 0.37407601
v 0.13174067 1.04970169 0.87527251
v 0.21374722 1.12981689 0.79784817
v 0.47396404 1.02107990 0.76798773
v 0.34829134 1.07782495 0.79061508
v 0.38919333 0.94544190 0.85761970
v 0.29638481 1.20085061 0.70555627
v 0.37240666 1.25790811 0.60303545
v 0.88971299 0.71450782 0.49790642
v 0.81168717 0.79189432 0.58393902
v 0.80898470 0.66826695 0.63457501
v 0.76621097 1.03257573 0.45898616
v 0.79649508 0.91749787 0.52428180
v 0.85640508 0.95203984 0.38031965
v 0.62164205 0.81694990 0.77723974
v 0.71605736 0.87052709 0.65941030
v 0.61185533 0.94298732 0.71887213
v 0.51615423 1.19978642 0.56734264
v 0.56961769 1.07593346 0.65263456
v 0.65133715 1.12288010 0.51724136
v -0.13440818 0.93074268 0.94042373
v -0.00085221 0.97340101 0.92882234
v -0.39409947 0.81804425 0.91140795
v -0.26924273 0.87722898 0.93438584
v -0.00080609 0.72187680 1.02059650
v -0.13616663 0.79949498 0.99033809
v -0.13803025 0.66831118 1.02172804
v -0.81805849 0.51771563 0.64414257
v -0.73709816 0.59479827 0.73014081
v -0.54294860 0.44641486 0.88489914
v -0.64586020 0.51844591 0.81488454
v -0.64038932 0.37266096 0.80521446
v -0.63733315 0.66965944 0.80522597
v -0.53177083 0.74093407 0.86341000
v 0.00227909 0.21166429 0.98579240
v -0.13928309 0.25263512 0.99062651
v -0.14024568 0.13811605 0.94221610
v -0.13813779 0.51371258 1.03290510
v -0.13811707 0.38218397 1.02085233
v -0.00070877 0.46066907 1.04028738
v -0.41195980 0.24129981 0.90701938
v -0.27955920 0.30760217 0.97747010
v -0.40629083 0.36681458 0.94558716
v -0.41091073 0.66952056 0.94264925
v -0.41657215 0.51419502 0.95602930
v -0.27606398 0.59138471 1.00168359
v -0.97129369 0.46908060 0.37682113
v -0.90618479 0.46917355 0.50851887
v -1.03543484 0.46441808 0.08556253
v -1.01340544 0.46506676 0.22904973
v -0.90868676 0.23611687 0.40464115
v -0.97270012 0.34526429 0.32032347
v -0.95769602 0.23058134 0.25862563
v -0.90790713 0.46748066 -0.51019192
v -0.96997237 0.46623987 -0.37813976
v -0.95825654 0.22799794 -0.25663623
v -0.96994042 0.34132326 -0.32103834
v -0.90698451 0.23007958 -0.40471044
v -1.01376665 0.46345398 -0.23345326
v -1.03846323 0.46456319 -0.08876428
v -0.71105462 0.00000000 0.08553934
v -0.80037707 0.00000000 0.00209433
v -0.70571566 0.00000000 -0.09432846
v -0.91880918 0.11920433 0.17464919
v -0.86965150 0.04006776 0.09621466
v -0.84239447 0.04493441 0.26822633
v -0.84353936 0.04368486 -0.26324698
v -0.86746490 0.03875291 -0.08732867
v -0.92042917 0.10997564 -0.17058851
v -1.02323222 0.34060484 -0.00080816
v -0.98561674 0.21774566 -0.08849812
v -0.98779690 0.21893723 0.08868408
v -0.73836523 0.58976042 -0.72965956
v -0.81807435 0.51322567 -0.64360803
v -0.53487265 0.73798561 -0.86324418
v -0.64122045 0.66594791 -0.80519712
v -0.64153838 0.36553919 -0.80177993
v -0.64804775 0.51208067 -0.81565493
v -0.54623634 0.44159898 -0.88421613
v -0.00000652 0.97240996 -0.92724925
v -0.13416697 0.93051714 -0.93897158
v -0.13912742 0.66984624 -1.02144706
v -0.13722406 0.80017710 -0.98926979
v -0.00189960 0.72318166 -1.02032351
v -0.27008015 0.87591314 -0.93367845
v -0.39545855 0.81637895 -0.91078275
v -0.14164533 0.14424346 -0.94624972
v -0.14092508 0.25753203 -0.99082476
v 0.00073754 0.21722861 -0.98767722
v -0.40743828 0.36512640 -0.94322842
v -0.28094912 0.30886927 -0.97562951
v -0.41054782 0.23942623 -0.90731210
v -0.00160993 0.46197316 -1.04169440
v -0.14051390 0.38370943 -1.02079582
v -0.14076126 0.51451260 -1.03241718
v -0.41418445 0.66891921 -0.94401288
v -0.27876168 0.59159762 -1.00195885
v -0.41840681 0.51220524 -0.95455098
v 0.21504539 1.12959576 -0.79750311
v 0.13268544 1.04797351 -0.87365621
v 0.37337160 1.25874519 -0.60263932
v 0.29785487 1.20160449 -0.70491743
v 0.38971880 0.94391990 -0.85622013
v 0.34972900 1.07653511 -0.78899759
v 0.47420174 1.01817811 -0.76508796
v 0.61607546 1.33199346 -0.08073898
v 0.57186836 1.34086013 -0.21263590
v 0.71157086 1.15807855 -0.37233853
v 0.64930385 1.25331771 -0.29592928
v 0.76279056 1.16247702 -0.23735061
v 0.51690012 1.33165431 -0.34571156
v 0.45496029 1.30747402 -0.46902278
v 0.81016678 0.66822612 -0.63776720
v 0.81344348 0.79327101 -0.58679438
v 0.89209861 0.71574694 -0.50089443
v 0.61065131 0.94107324 -0.71718556
v 0.71587157 0.86895078 -0.66021711
v 0.62037998 0.81472313 -0.77667928
v 0.85680765 0.95247507 -0.38127571
v 0.79709464 0.91779149 -0.52520543
v 0.76613843 1.03327513 -0.45839858
v 0.51599932 1.19961989 -0.56560445
v 0.65155840 1.12273526 -0.51614964
v 0.56976300 1.07432759 -0.65140533
v 0.70749646 0.00000000 0.09941150
v 0.65528154 0.00000000 0.25554457
v 0.55576283 0.00000000 0.14032719
v 0.78711432 0.05760206 0.41025323
v 0.73056853 0.00000000 0.33547848
v 0.84693819 0.05428271 0.25999069
v 0.42411956 0.00000000 0.44237235
v 0.58978879 0.00000000 0.40741277
v 0.51539242 0.00000000 0.53630030
v 0.82014948 0.51623714 0.64552891
v 0.83849472 0.39065191 0.60443175
v 0.90812552 0.46937585 0.51033664
v 0.64778513 0.24470463 0.76004595
v 0.74676323 0.31597602 0.68919843
v 0.64257860 0.37045339 0.80380422
v 0.90605229 0.23615497 0.40355855
v 0.83648795 0.26656815 0.55333114
v 0.82438356 0.15620691 0.49500713
v 0.09175098 0.03435741 0.87073833
v 0.23798421 0.06754451 0.87416285
v 0.14554544 0.14123802 0.93929076
v 0.41500676 0.00000000 0.67685068
v 0.33142033 0.01038729 0.77943182
v 0.26862633 0.00000000 0.69161886
v 0.41317469 0.24372044 0.90806627
v 0.37940007 0.11582848 0.85854644
v 0.50959331 0.16946380 0.82229853
v 0.71503532 0.07923714 0.56640077
v 0.61689723 0.11596302 0.70550632
v 0.57597554 0.01505184 0.63195115
v 0.40566039 0.00000000 0.14994960
v 0.45502892 0.00000000 -0.00321317
v 0.26562154 0.00000000 0.44457272
v 0.33657169 0.00000000 0.30376092
v 0.15015572 0.00000000 0.00606062
v 0.23827250 0.00000000 0.15081535
v 0.08214099 0.00000000 0.15208845
v -0.09021975 0.03789992 0.87459767
v 0.00439990 0.00000000 0.80028409
v -0.19089475 0.00000000 0.60190946
v -0.09406459 0.00000000 0.70933890
v -0.27706879 0.00000000 0.69482034
v 0.08984204 0.00000000 0.70471185
v 0.17565972 0.00000000 0.60161453
v -0.46654159 0.00000000 -0.00634566
v -0.41623849 0.00000000 0.14411636
v -0.56251383 0.00000000 0.14090532
v -0.10297462 0.00000000 0.15021630
v -0.25666299 0.00000000 0.14362600
v -0.16102919 0.00000000 0.00485247
v -0.44298917 0.00000000 0.44525290
v -0.36211127 0.00000000 0.30082992
v -0.28666458 0.00000000 0.44567156
v 0.08823229 0.00000000 0.45690835
v -0.10249053 0.00000000 0.46024948
v -0.01078083 0.00000000 0.30394009
v 0.39382872 0.00000000 -0.14542627
v 0.53970891 0.00000000 -0.15520944
v 0.08882910 0.00000000 -0.14365990
v 0.24063770 0.00000000 -0.14949696
v 0.42078373 0.00000000 -0.42584968
v 0.32800633 0.00000000 -0.29161781
v 0.26814103 0.00000000 -0.43236515
v -0.55378973 0.00000000 -0.16016662
v -0.41038847 0.00000000 -0.15636678
v -0.26889926 0.00000000 -0.43184802
v -0.33685321 0.00000000 -0.29682893
v -0.41961995 0.00000000 -0.43439823
v -0.25088257 0.00000000 -0.14908667
v -0.09659366 0.00000000 -0.14792997
v 0.09009752 0.03989005 -0.87882626
v 0.00037964 0.00000000 -0.80189073
v -0.09097960 0.03631578 -0.87825203
v 0.17424032 0.00000000 -0.59444481
v 0.09482317 0.00000000 -0.71277362
v 0.27859133 0.00000000 -0.69049913
v -0.28039381 0.00000000 -0.68862361
v -0.09687662 0.00000000 -0.71053064
v -0.18174350 0.00000000 -0.58975494
v 0.00071523 0.00000000 -0.29636478
v -0.09155988 0.00000000 -0.45259091
v 0.08654739 0.00000000 -0.45117670
v 0.64726603 0.00000000 -0.24274187
v 0.71104032 0.00000000 -0.09228634
v 0.51382947 0.00000000 -0.52910054
v 0.57735783 0.00000000 -0.38573232
v 0.84574682 0.05398342 -0.26292765
v 0.73337793 0.00000000 -0.33287564
v 0.78812885 0.05454829 -0.41227216
v 0.14429703 0.14735435 -0.94612801
v 0.23456794 0.07444202 -0.87686932
v 0.50995076 0.17003369 -0.82660908
v 0.37821621 0.11877057 -0.85923964
v 0.41375107 0.24162121 -0.90987408
v 0.33260915 0.02005924 -0.78865302
v 0.41906977 0.00000000 -0.67390364
v 0.90812290 0.46701950 -0.50903702
v 0.83911306 0.38940123 -0.60575283
v 0.82117128 0.51518029 -0.64496839
v 0.82649875 0.15614885 -0.49468535
v 0.83971894 0.26631865 -0.55275917
v 0.91009414 0.23192230 -0.40401751
v 0.64469087 0.36985317 -0.80560678
v 0.74885279 0.31217229 -0.69029754
v 0.64643627 0.24579066 -0.76152229
v 0.57753772 0.02448757 -0.62956440
v 0.61935908 0.12012552 -0.70799762
v 0.71425539 0.07604466 -0.56277978
v 0.79811436 0.00000000 0.00035332
v 0.92178690 0.11166674 -0.16937153
v 0.87039357 0.03356367 -0.09124603
v 0.87123173 0.04227816 0.09048282
v 0.92060494 0.11596730 0.17345338
v 0.95182300 0.59215629 -0.42130888
v 0.97057724 0.46724001 -0.37736955
v 1.03879690 0.46592864 -0.08735760
v 1.01550221 0.46724463 -0.23237324
v 1.03162992 0.59177035 -0.14422610
v 0.97441834 0.34364182 -0.32088074
v 0.95915616 0.23000598 -0.25570664
v 0.97121817 0.46802056 0.37804863
v 0.95114905 0.59160215 0.41842419
v 0.95832652 0.23475026 0.25811419
v 0.97297931 0.34673586 0.32095775
v 1.02934837 0.59071743 0.14284414
v 1.01442671 0.46645322 0.23096447
v 1.03724170 0.46734247 0.08592916
v 0.98357129 0.22148626 -0.08790541
v 1.02543414 0.34286878 0.00050119
v 0.98332685 0.22251381 0.09036228
v 0.14229845 0.25662971 0.99143547
v 0.41138223 0.37049529 0.94354230
v 0.28342029 0.31097093 0.97792697
v 0.14125170 0.38535333 1.02093232
v 0.13854064 0.51361150 1.03189766
v 0.73791766 0.59468293 0.72989035
v 0.53503519 0.74158514 0.86668545
v 0.64109808 0.67087579 0.80645692
v 0.64821094 0.51873100 0.81583709
v 0.54699975 0.44778425 0.88320011
v 0.13295273 0.92936039 0.94033116
v 0.13708207 0.66920662 1.02277637
v 0.13513079 0.79962188 0.99099922
v 0.26862606 0.87663406 0.93589318
v 0.39451370 0.81786537 0.91256827
v 0.41808906 0.51656085 0.95418262
v 0.41253173 0.67102444 0.94560498
v 0.27609763 0.59247220 1.00268376
v -0.66010195 0.00000000 0.23864032
v -0.52323139 0.00000000 0.54057240
v -0.59787363 0.00000000 0.39554667
v -0.73304933 0.00000000 0.34090984
v -0.78523695 0.04895962 0.41692531
v -0.23611106 0.07318199 0.87774318
v -0.50840861 0.17088243 0.82312459
v -0.37921348 0.11792979 0.85618734
v -0.32887024 0.01732824 0.78533268
v -0.42255381 0.00000000 0.68325144
v -0.83649552 0.39433154 0.60411489
v -0.82477909 0.16065817 0.49608943
v -0.83712721 0.27216989 0.55322891
v -0.74744290 0.31880608 0.69208777
v -0.64555484 0.24781103 0.76331627
v -0.57732809 0.02098548 0.63458896
v -0.61751437 0.12163477 0.70954043
v -0.71322536 0.08323080 0.57050163
v -0.23216672 0.07582629 -0.88087809
v -0.42569092 0.00000000 -0.68774980
v -0.32808241 0.01635638 -0.78656411
v -0.37759081 0.11476569 -0.85753357
v -0.50594735 0.16881990 -0.82148445
v -0.64503151 0.00000000 -0.24817936
v -0.78552252 0.05040555 -0.41364589
v -0.73438150 0.00000000 -0.33408478
v -0.58339828 0.00000000 -0.40102848
v -0.51299369 0.00000000 -0.53581941
v -0.83566767 0.38923740 -0.60412502
v -0.64366090 0.24119721 -0.75715888
v -0.74624920 0.30871257 -0.68932283
v -0.83632129 0.26454720 -0.55276489
v -0.82073271 0.15491353 -0.49229163
v -0.57690883 0.01533157 -0.63319629
v -0.70930070 0.06964602 -0.56840324
v -0.61260492 0.11818398 -0.70594466
v 0.73911202 0.59142756 -0.73136675
v 0.54629606 0.44471684 -0.88465303
v 0.64756358 0.51597881 -0.81601912
v 0.64029378 0.66743296 -0.80686265
v 0.53350800 0.73825359 -0.86373192
v 0.14192939 0.25797758 -0.99283421
v 0.13692588 0.51571393 -1.03415239
v 0.13950458 0.38563555 -1.02266860
v 0.28227705 0.31254506 -0.98014033
v 0.40983436 0.36812159 -0.94580561
v 0.13375142 0.92863333 -0.93881875
v 0.39445972 0.81535017 -0.91104138
v 0.26898766 0.87411803 -0.93258023
v 0.13497002 0.79939586 -0.98937672
v 0.13526978 0.66975373 -1.02101433
v 0.41716740 0.51420665 -0.95465750
v 0.27526686 0.59300512 -1.00197446
v 0.41213498 0.66823840 -0.94285214
v 0.95225805 0.71515805 0.36912560
v 1.01833582 0.71462542 0.08525259
v 0.99727821 0.71643299 0.22699904
v 0.93646514 0.84033281 0.30766493
v 0.90531671 0.95473450 0.24148807
v 0.95317489 0.71599394 -0.36972561
v 0.90425277 0.95429432 -0.24259517
v 0.93759024 0.83997834 -0.30792537
v 0.99640369 0.71585739 -0.22733699
v 1.01893222 0.71765167 -0.08414478
v 0.70461410 1.26271832 -0.00009626
v 0.84768808 1.08045483 0.15773033
v 0.78413433 1.17595589 0.08183498
v 0.78362954 1.17509365 -0.08072232
v 0.84725231 1.07949817 -0.15699852
v 0.98432469 0.84115839 0.00068889
v 0.92498803 0.96604615 -0.08355308
v 0.92643535 0.96684194 0.08321896
f 330 87 329
f 336 325 26
f 207 208 56
f 464 36 580
f 502 129 504
f 157 624 622
f 308 311 82
f 247 223 248
f 507 483 508
f 331 88 329
f 494 500 497
f 156 601 602
f 591 589 592
f 365 98 596
f 75 281 282
f 152 587 577
f 149 559 560
f 555 121 553
f 530 141 529
f 515 517 139
f 361 594 98
f 250 67 249
f 157 608 609
f 294 293 209
f 317 81 316
f 557 338 26
f 303 305 81
f 530 529 528
f 101 381 382
f 415 418 111
f 192 184 50
f 412 110 411
f 20 384 256
f 131 594 486
f 281 264 282
f 347 287 348
f 28 349 582
f 165 163 1
f 248 250 66
f 617 107 398
f 273 271 274
f 456 115 453
f 558 561 560
f 335 576 91
f 331 177 332
f 116 433 436
f 351 370 92
f 136 511 530
f 239 240 65
f 247 258 19
f 304 23 567
f 148 557 570
f 214 208 58
f 440 426 450
f 268 270 269
f 258 247 268
f 204 202 16
f 466 125 465
f 517 513 133
f 168 275 274
f 275 73 274
f 198 193 53
f 309 308 307
f 510 511 136
f 415 416 110
f 131 490 597
f 473 475 474
f 414 415 111
f 493 495 494
f 496 504 485
f 433 116 432
f 600 375 601
f 240 234 65
f 418 415 412
f 486 361 3
f 567 566 304
f 380 393 29
f 17 199 197
f 491 492 132
f 451 449 435
f 218 217 216
f 623 621 613
f 396 104 395
f 433 439 436
f 628 160 627
f 215 202 217
f 209 207 2
f 427 113 424
f 434 10 544
f 434 433 432
f 199 17 210
f 150 564 565
f 489 491 132
f 275 13 285
f 497 500 134
f 125 466 476
f 578 152 577
f 208 214 211
f 328 88 343
f 356 27 603
f 150 566 567
f 372 100 371
f 190 191 47
f 235 8 398
f 260 261 72
f 422 403 414
f 422 414 111
f 453 454 123
f 349 583 582
f 521 520 519
f 425 453 115
f 616 622 158
f 483 130 508
f 151 586 572
f 212 17 232
f 400 397 402
f 377 396 99
f 41 522 511
f 510 508 505
f 549 547 42
f 475 473 36
f 510 137 509
f 222 221 197
f 430 115 429
f 220 194 1
f 305 54 204
f 621 29 613
f 192 171 184
f 460 335 5
f 88 331 332
f 74 277 279
f 300 301 80
f 390 389 388
f 165 45 164
f 146 549 551
f 291 278 75
f 448 120 445
f 147 543 544
f 607 610 609
f 603 602 356
f 139 529 514
f 333 553 443
f 92 368 347
f 261 260 259
f 300 6 200
f 46 177 331
f 284 283 174
f 301 300 200
f 471 468 474
f 54 305 301
f 302 304 303
f 569 150 567
f 150 569 570
f 294 209 2
f 628 629 160
f 548 543 147
f 147 625 627
f 63 233 234
f 426 427 114
f 41 509 532
f 198 52 196
f 614 105 612
f 147 627 547
f 81 305 306
f 549 548 547
f 54 301 200
f 342 88 332
f 264 281 70
f 193 194 53
f 455 429 456
f 187 321 14
f 479 130 484
f 147 544 625
f 458 456 453
f 304 80 303
f 314 84 313
f 488 503 501
f 321 332 14
f 423 425 424
f 305 204 306
f 341 339 25
f 514 40 516
f 625 628 627
f 340 339 341
f 105 614 391
f 243 228 62
f 318 316 78
f 75 278 279
f 357 355 353
f 238 257 63
f 466 455 476
f 425 423 4
f 448 449 120
f 408 638 108
f 292 275 285
f 22 278 289
f 515 513 517
f 501 503 134
f 622 623 158
f 134 503 504
f 195 216 206
f 163 271 246
f 619 617 620
f 62 228 229
f 163 165 164
f 453 425 454
f 489 132 488
f 82 628 625
f 58 208 209
f 525 608 40
f 626 547 627
f 518 517 498
f 489 487 491
f 557 26 564
f 325 336 344
f 541 145 539
f 40 616 516
f 338 556 89
f 250 248 245
f 139 514 515
f 98 594 596
f 246 220 1
f 112 413 630
f 9 536 413
f 156 600 601
f 332 177 14
f 321 342 332
f 156 606 600
f 584 330 585
f 302 303 81
f 584 87 330
f 330 25 585
f 400 239 65
f 439 440 117
f 95 358 368
f 597 594 131
f 594 361 486
f 246 67 245
f 561 562 149
f 28 364 362
f 55 216 217
f 427 430 114
f 267 20 254
f 556 555 553
f 84 309 558
f 311 310 312
f 609 525 142
f 256 68 255
f 124 460 461
f 82 311 312
f 307 308 82
f 589 135 495
f 527 40 514
f 112 418 412
f 20 256 254
f 258 238 19
f 267 254 269
f 273 272 249
f 392 391 393
f 137 533 509
f 122 455 456
f 9 413 411
f 130 480 505
f 333 443 5
f 527 525 40
f 589 495 385
f 39 496 485
f 223 225 224
f 414 416 415
f 219 222 53
f 145 538 539
f 413 412 411
f 469 468 467
f 183 181 6
f 191 192 50
f 429 35 431
f 292 285 76
f 413 112 412
f 415 110 412
f 43 164 167
f 467 468 126
f 617 101 620
f 450 451 117
f 438 546 545
f 619 620 159
f 17 212 210
f 124 579 576
f 584 153 583
f 460 124 576
f 3 469 467
f 311 308 314
f 6 320 183
f 389 104 388
f 251 250 249
f 194 165 1
f 291 289 278
f 287 77 348
f 238 258 257
f 139 517 518
f 238 236 19
f 223 247 19
f 382 380 29
f 39 518 498
f 361 359 3
f 69 255 257
f 139 518 528
f 33 545 535
f 387 385 7
f 69 268 269
f 477 462 125
f 454 479 123
f 121 555 447
f 451 435 117
f 454 425 4
f 233 252 8
f 124 463 464
f 69 258 268
f 168 167 166
f 583 153 582
f 384 394 102
f 138 512 513
f 57 210 211
f 254 256 255
f 607 609 142
f 324 319 86
f 289 291 76
f 291 292 76
f 384 102 383
f 422 421 420
f 221 17 197
f 383 102 381
f 376 377 99
f 99 373 374
f 386 105 392
f 438 33 440
f 90 341 343
f 281 75 279
f 574 571 96
f 628 82 312
f 221 222 59
f 127 471 474
f 595 605 603
f 551 538 145
f 334 91 340
f 322 324 85
f 305 303 301
f 18 239 399
f 306 204 16
f 199 198 197
f 166 190 180
f 303 80 301
f 267 266 265
f 626 42 547
f 16 215 213
f 349 351 350
f 295 16 213
f 68 379 252
f 250 251 66
f 627 160 626
f 383 68 256
f 343 88 342
f 507 508 136
f 202 215 16
f 197 198 53
f 254 69 269
f 603 605 156
f 418 419 111
f 384 383 256
f 455 122 476
f 203 204 54
f 556 557 148
f 255 68 253
f 313 84 560
f 25 328 341
f 254 255 69
f 603 156 602
f 581 584 583
f 630 632 112
f 163 246 1
f 246 245 220
f 432 116 558
f 499 591 590
f 320 563 86
f 345 93 350
f 306 16 295
f 346 93 345
f 562 568 149
f 604 605 155
f 154 592 593
f 545 552 535
f 511 522 530
f 574 573 571
f 566 150 565
f 361 98 360
f 67 271 273
f 234 235 65
f 208 211 56
f 574 151 573
f 251 270 66
f 398 8 378
f 213 215 214
f 438 440 439
f 315 314 313
f 263 71 262
f 20 373 384
f 496 134 504
f 329 88 328
f 81 306 316
f 555 556 148
f 592 589 103
f 617 619 107
f 227 207 56
f 571 359 96
f 446 466 465
f 206 216 55
f 359 571 469
f 568 148 570
f 34 437 435
f 28 351 349
f 21 272 282
f 113 423 424
f 490 489 488
f 379 68 383
f 210 212 211
f 80 563 300
f 351 92 350
f 326 346 12
f 83 317 318
f 555 148 554
f 212 231 56
f 218 57 217
f 271 67 246
f 195 196 52
f 270 268 66
f 390 592 103
f 148 568 554
f 495 493 7
f 592 390 593
f 357 95 355
f 574 575 151
f 452 120 451
f 154 591 592
f 587 585 577
f 395 394 396
f 93 349 350
f 610 416 611
f 166 44 190
f 315 23 302
f 315 302 317
f 268 247 66
f 606 154 593
f 396 394 99
f 211 212 56
f 370 369 368
f 235 397 65
f 280 278 22
f 83 315 317
f 575 588 151
f 74 279 280
f 385 495 7
f 63 257 253
f 397 235 398
f 214 58 213
f 220 219 194
f 546 146 545
f 236 225 19
f 599 94 602
f 235 233 8
f 102 394 395
f 611 416 32
f 225 223 19
f 139 528 529
f 231 62 229
f 419 406 421
f 451 450 452
f 49 182 185
f 402 397 107
f 52 199 218
f 416 610 110
f 225 236 244
f 107 397 398
f 68 252 253
f 322 85 321
f 182 181 183
f 118 438 439
f 546 438 118
f 348 77 345
f 543 546 118
f 231 212 232
f 610 611 157
f 33 438 545
f 385 386 103
f 479 480 130
f 169 195 15
f 93 583 349
f 15 195 206
f 190 44 192
f 247 248 66
f 146 552 545
f 248 60 245
f 570 557 564
f 274 271 43
f 63 253 233
f 272 21 249
f 507 528 518
f 67 273 249
f 487 467 126
f 196 195 169
f 624 159 623
f 134 496 497
f 132 503 488
f 104 393 395
f 556 553 89
f 355 356 94
f 258 69 257
f 229 61 227
f 56 231 227
f 460 576 335
f 463 124 461
f 394 373 99
f 29 393 391
f 67 250 245
f 193 198 196
f 462 36 464
f 144 633 630
f 141 526 527
f 517 133 498
f 536 144 630
f 100 372 599
f 144 536 537
f 22 289 287
f 578 579 152
f 579 578 576
f 189 188 187
f 60 223 224
f 92 348 350
f 555 554 447
f 396 377 388
f 194 193 165
f 413 536 630
f 372 352 599
f 377 376 375
f 348 345 350
f 105 386 387
f 240 237 234
f 463 462 464
f 135 500 494
f 45 196 169
f 512 612 387
f 245 60 220
f 429 115 456
f 223 60 248
f 288 289 76
f 525 526 142
f 100 599 601
f 613 29 391
f 526 523 520
f 341 328 343
f 631 641 639
f 264 21 282
f 266 72 265
f 106 402 403
f 73 273 274
f 186 206 205
f 381 379 383
f 52 216 195
f 410 18 399
f 290 272 73
f 72 371 374
f 526 525 527
f 115 430 424
f 498 497 496
f 621 382 29
f 543 118 434
f 214 215 57
f 522 141 530
f 511 510 509
f 352 94 599
f 493 512 7
f 90 340 341
f 169 171 170
f 605 604 606
f 219 60 224
f 104 389 392
f 359 469 3
f 186 49 185
f 222 219 224
f 166 167 44
f 428 427 426
f 523 522 524
f 129 502 481
f 50 185 188
f 164 45 170
f 425 115 424
f 33 428 426
f 427 428 113
f 94 356 602
f 515 138 513
f 114 431 452
f 237 236 238
f 215 217 57
f 95 354 355
f 220 60 219
f 515 514 516
f 183 320 319
f 222 197 53
f 559 569 567
f 300 320 6
f 435 436 117
f 96 360 363
f 640 642 641
f 242 243 62
f 140 537 519
f 508 130 505
f 420 410 399
f 537 539 144
f 317 316 318
f 426 114 450
f 186 15 206
f 311 83 310
f 625 544 307
f 544 10 307
f 168 43 167
f 185 182 188
f 369 354 95
f 44 171 192
f 605 606 156
f 548 549 146
f 100 601 375
f 149 568 569
f 381 380 382
f 455 466 35
f 480 479 454
f 543 548 546
f 493 133 513
f 492 472 37
f 477 125 476
f 491 487 126
f 337 336 338
f 588 153 587
f 576 578 91
f 633 161 632
f 96 359 360
f 39 485 483
f 101 617 378
f 193 45 165
f 163 164 43
f 618 624 611
f 507 136 528
f 561 149 560
f 641 162 639
f 116 561 558
f 494 133 493
f 253 252 233
f 63 237 238
f 392 393 104
f 440 450 117
f 93 581 583
f 386 385 387
f 120 449 451
f 421 422 111
f 486 3 467
f 302 81 317
f 633 632 630
f 462 475 36
f 376 99 374
f 489 490 131
f 447 449 448
f 387 612 105
f 106 420 399
f 173 46 172
f 492 491 472
f 316 306 295
f 22 287 347
f 109 410 420
f 507 39 483
f 559 23 313
f 214 57 211
f 196 45 193
f 10 434 432
f 422 106 403
f 626 160 640
f 487 486 467
f 542 41 532
f 400 106 399
f 444 120 452
f 198 199 52
f 475 127 474
f 621 620 382
f 621 623 159
f 450 114 452
f 92 347 348
f 376 100 375
f 434 118 433
f 503 132 502
f 337 90 336
f 537 536 519
f 395 393 380
f 201 54 200
f 171 44 170
f 355 94 353
f 58 296 213
f 422 420 106
f 595 365 596
f 569 568 570
f 523 140 520
f 114 430 431
f 218 210 57
f 304 566 80
f 639 162 638
f 261 371 72
f 548 147 547
f 498 133 497
f 150 570 564
f 222 224 59
f 142 526 520
f 437 436 435
f 141 522 523
f 137 510 505
f 173 179 176
f 559 149 569
f 121 447 448
f 563 320 300
f 102 395 380
f 257 255 253
f 642 162 641
f 83 311 314
f 216 52 218
f 512 493 513
f 23 304 302
f 91 339 340
f 512 138 612
f 159 620 621
f 218 199 210
f 364 28 575
f 83 318 310
f 168 274 43
f 136 530 528
f 140 523 524
f 495 135 494
f 233 235 234
f 566 563 80
f 25 339 577
f 277 74 276
f 475 462 477
f 133 494 497
f 436 437 116
f 389 386 392
f 548 146 546
f 441 460 5
f 10 309 307
f 65 397 400
f 543 434 544
f 640 641 161
f 272 273 73
f 581 93 346
f 419 421 111
f 319 320 86
f 180 179 178
f 127 475 477
f 231 229 227
f 337 334 340
f 136 508 510
f 308 309 84
f 237 63 234
f 447 554 34
f 252 379 378
f 315 83 314
f 608 622 616
f 338 336 26
f 337 338 89
f 13 275 168
f 209 208 207
f 436 439 117
f 628 312 629
f 360 366 363
f 364 574 96
f 359 361 360
f 466 446 35
f 500 501 134
f 406 109 421
f 135 589 591
f 601 599 602
f 340 90 337
f 481 492 37
f 522 41 524
f 78 316 295
f 131 486 487
f 403 32 414
f 634 626 640
f 151 572 573
f 515 516 138
f 8 252 378
f 265 72 374
f 9 521 519
f 538 549 42
f 368 358 347
f 588 587 586
f 458 453 123
f 589 385 103
f 502 492 481
f 32 416 414
f 430 427 424
f 153 585 587
f 540 144 539
f 370 368 92
f 209 293 58
f 428 33 535
f 326 581 346
f 625 307 82
f 575 28 582
f 6 181 200
f 421 109 420
f 553 121 443
f 160 642 640
f 153 584 585
f 309 432 558
f 334 337 89
f 23 315 313
f 271 163 43
f 296 295 213
f 39 498 496
f 118 439 433
f 531 113 534
f 293 296 58
f 28 362 351
f 489 131 487
f 431 444 452
f 84 558 560
f 98 366 360
f 45 169 170
f 379 101 378
f 462 463 125
f 308 84 314
f 10 432 309
f 299 24 310
f 132 492 502
f 512 387 7
f 639 638 408
f 565 323 86
f 59 244 242
f 106 400 402
f 440 33 426
f 566 565 563
f 617 398 378
f 224 225 59
f 410 109 409
f 239 400 399
f 194 219 53
f 358 22 347
f 610 157 609
f 27 595 603
f 479 484 482
f 142 520 521
f 585 25 577
f 339 578 577
f 408 407 406
f 407 109 406
f 31 408 406
f 407 408 108
f 31 639 408
f 419 31 406
f 608 616 40
f 430 429 431
f 455 35 429
f 35 444 431
f 188 51 187
f 188 182 51
f 51 322 187
f 322 51 319
f 51 182 183
f 319 51 183
f 187 322 321
f 322 319 324
f 381 101 379
f 405 407 108
f 404 405 108
f 286 285 178
f 407 405 409
f 109 407 409
f 191 175 47
f 167 164 170
f 50 184 185
f 44 167 170
f 64 244 236
f 243 244 64
f 50 188 189
f 541 542 145
f 442 445 119
f 339 91 578
f 445 446 119
f 624 623 622
f 611 624 157
f 523 526 141
f 141 527 529
f 527 514 529
f 445 120 444
f 446 445 444
f 35 446 444
f 613 614 158
f 158 614 615
f 623 613 158
f 614 613 391
f 614 612 615
f 371 376 374
f 100 376 371
f 479 482 123
f 373 394 384
f 540 42 634
f 633 540 634
f 538 42 540
f 633 634 161
f 161 634 640
f 42 626 634
f 540 633 144
f 557 556 338
f 553 333 89
f 262 21 264
f 251 21 262
f 5 335 333
f 270 251 262
f 21 251 249
f 600 593 30
f 606 593 600
f 600 30 375
f 593 390 30
f 30 377 375
f 390 388 30
f 30 388 377
f 228 243 241
f 470 478 459
f 470 127 478
f 127 477 478
f 184 186 185
f 478 477 476
f 122 478 476
f 357 74 280
f 518 39 507
f 344 342 85
f 325 344 85
f 342 344 343
f 85 342 321
f 344 90 343
f 90 344 336
f 482 129 481
f 482 481 457
f 482 457 123
f 481 37 457
f 449 447 34
f 435 449 34
f 470 472 471
f 472 470 37
f 470 471 127
f 472 126 471
f 126 468 471
f 470 459 37
f 491 126 472
f 504 129 485
f 221 59 242
f 125 463 465
f 437 34 562
f 561 437 562
f 554 568 562
f 34 554 562
f 437 561 116
f 390 103 389
f 103 386 389
f 392 105 391
f 572 586 580
f 572 580 36
f 586 152 580
f 473 572 36
f 244 243 242
f 225 244 59
f 64 240 241
f 240 239 241
f 237 240 64
f 243 64 241
f 236 237 64
f 411 607 521
f 9 411 521
f 110 607 411
f 607 142 521
f 610 607 110
f 171 15 184
f 171 169 15
f 15 186 184
f 87 584 581
f 153 588 582
f 588 575 582
f 381 102 380
f 573 572 473
f 468 469 128
f 474 468 128
f 469 571 128
f 571 573 128
f 573 473 128
f 473 474 128
f 564 323 565
f 26 323 564
f 323 324 86
f 325 323 26
f 325 324 323
f 563 565 86
f 324 325 85
f 410 230 18
f 230 228 18
f 18 228 241
f 18 241 239
f 401 619 618
f 401 402 107
f 403 402 401
f 619 159 618
f 401 618 32
f 619 401 107
f 403 401 32
f 618 611 32
f 159 624 618
f 478 122 459
f 122 458 459
f 37 459 457
f 459 458 457
f 122 456 458
f 457 458 123
f 191 190 192
f 485 129 484
f 129 482 484
f 483 485 484
f 130 483 484
f 189 187 14
f 191 50 189
f 191 189 175
f 189 14 175
f 14 177 175
f 499 501 500
f 501 499 38
f 38 499 590
f 135 499 500
f 488 501 38
f 499 135 591
f 480 454 4
f 284 12 346
f 4 423 506
f 480 4 506
f 423 531 506
f 480 506 505
f 531 137 506
f 506 137 505
f 365 366 98
f 71 270 262
f 270 71 269
f 71 267 269
f 335 334 333
f 333 334 89
f 334 335 91
f 536 9 519
f 465 463 461
f 537 140 541
f 520 140 519
f 119 446 465
f 465 461 119
f 461 441 119
f 460 441 461
f 176 46 173
f 299 297 24
f 71 263 266
f 263 260 266
f 260 72 266
f 263 70 260
f 205 201 49
f 201 181 49
f 186 205 49
f 181 201 200
f 181 182 49
f 284 77 283
f 586 587 152
f 588 586 151
f 20 267 265
f 266 267 71
f 31 417 631
f 631 417 632
f 31 631 639
f 417 31 419
f 641 631 161
f 417 112 632
f 161 631 632
f 418 417 419
f 417 418 112
f 284 345 77
f 542 550 145
f 542 541 524
f 284 174 12
f 48 174 283
f 373 20 265
f 373 265 374
f 609 608 525
f 608 157 622
f 560 559 313
f 636 637 162
f 541 140 524
f 41 542 524
f 358 357 280
f 70 263 264
f 263 262 264
f 176 177 46
f 174 48 173
f 174 173 172
f 538 551 549
f 538 540 539
f 537 541 539
f 232 221 242
f 17 221 232
f 232 242 62
f 231 232 62
f 203 205 55
f 203 55 202
f 201 205 203
f 202 55 217
f 205 206 55
f 204 203 202
f 73 275 292
f 292 290 73
f 272 290 282
f 290 292 291
f 75 290 291
f 290 75 282
f 70 277 259
f 277 70 281
f 277 281 279
f 260 70 259
f 12 174 172
f 104 396 388
f 367 27 354
f 365 27 367
f 354 27 356
f 365 367 366
f 595 27 365
f 318 299 310
f 155 596 597
f 155 597 598
f 596 594 597
f 595 596 155
f 605 595 155
f 180 47 179
f 180 190 47
f 352 372 11
f 11 372 261
f 312 310 24
f 642 636 162
f 636 297 637
f 367 369 97
f 366 367 97
f 369 367 354
f 369 370 97
f 580 579 464
f 580 152 579
f 579 124 464
f 61 230 409
f 230 410 409
f 230 61 229
f 230 229 228
f 76 285 286
f 353 352 276
f 74 353 276
f 288 76 286
f 288 286 283
f 289 288 287
f 203 54 201
f 287 288 77
f 77 288 283
f 286 48 283
f 531 423 113
f 276 11 259
f 11 261 259
f 277 276 259
f 616 158 615
f 516 616 615
f 138 516 615
f 138 615 612
f 509 533 532
f 503 502 504
f 635 79 294
f 635 294 404
f 635 637 79
f 637 635 638
f 638 635 108
f 635 404 108
f 226 61 405
f 61 226 227
f 405 61 409
f 227 226 207
f 48 178 179
f 48 286 178
f 173 48 179
f 534 143 533
f 534 535 143
f 531 534 533
f 533 143 532
f 137 531 533
f 261 372 371
f 13 180 178
f 285 13 178
f 180 13 166
f 13 168 166
f 346 345 284
f 331 327 46
f 46 327 172
f 172 327 326
f 382 620 101
f 442 121 448
f 443 121 442
f 2 226 404
f 294 2 404
f 404 226 405
f 207 226 2
f 550 551 145
f 552 146 551
f 143 550 532
f 552 550 143
f 330 329 328
f 24 636 629
f 94 352 353
f 352 11 276
f 113 428 534
f 428 535 534
f 509 41 511
f 535 552 143
f 550 552 551
f 550 542 532
f 369 95 368
f 326 327 87
f 87 327 329
f 327 331 329
f 581 326 87
f 293 79 298
f 79 297 298
f 296 298 78
f 79 293 294
f 296 293 298
f 598 490 38
f 358 280 22
f 280 279 278
f 357 358 95
f 74 357 353
f 330 328 25
f 567 23 559
f 590 598 38
f 590 604 598
f 598 604 155
f 604 590 154
f 590 591 154
f 604 154 606
f 297 299 298
f 299 318 78
f 298 299 78
f 355 354 356
f 629 636 642
f 312 24 629
f 629 642 160
f 370 362 97
f 362 363 97
f 363 366 97
f 364 363 362
f 362 370 351
f 96 363 364
f 297 636 24
f 162 637 638
f 637 297 79
f 490 488 38
f 598 597 490
f 441 442 119
f 443 442 441
f 443 441 5
f 442 448 445
f 296 78 295
f 326 12 172
f 575 574 364
f 47 175 176
f 175 177 176
f 47 176 179
