# FEM surface export ¡ª frame 436
# Vertices: 642  Faces: 1280
v -0.51776570 1.08309722 -0.00320056
v 0.51831222 1.08268559 -0.00046135
v -0.50903958 0.05113884 -0.04436522
v 0.54775912 0.18314807 0.00657801
v 0.00902000 0.00000000 0.99304342
v 0.00120353 0.81882250 0.86611843
v 0.00359432 0.00000000 -1.00320446
v -0.00032182 0.81685030 -0.86574435
v 0.90797424 0.35758999 -0.55896419
v 0.90732992 0.35035068 0.55697846
v -0.90364075 0.34428439 -0.55694354
v -0.90221500 0.34997579 0.55909717
v -0.82543361 0.79564929 0.31406334
v -0.51833588 0.62951106 0.84043080
v -0.30590487 1.05015874 0.49263230
v 0.30666661 1.05069423 0.49514112
v -0.00001365 1.19247782 -0.00122946
v 0.30486280 1.05118752 -0.49442521
v -0.30680689 1.05010569 -0.49572387
v -0.51877248 0.62448102 -0.83970076
v -0.82626253 0.79244328 -0.31629032
v -1.06454265 0.35184929 0.00548634
v 0.52142143 0.62550569 0.84111500
v 0.82690275 0.79586637 0.31596112
v -0.54829502 0.08661330 0.89099622
v 0.00272005 0.35410741 1.06484056
v -0.93500435 0.00000000 -0.36928862
v -0.96240956 0.00000000 0.36167982
v -0.00054143 0.35526171 -1.06270373
v -0.55382109 0.09592194 -0.89599597
v 0.82713974 0.79414713 -0.31496844
v 0.51781368 0.62942249 -0.84192908
v 0.94584030 0.00000000 0.34429470
v 0.55180770 0.08861645 0.88163501
v 0.32044181 0.01749799 0.56267804
v -0.36116931 0.05857818 0.53545141
v -0.00957819 0.02026176 0.02992732
v -0.33249810 0.02175348 -0.49625340
v 0.31324312 0.00791313 -0.51986754
v 0.54856753 0.10735536 -0.90052563
v 0.93843299 0.00094184 -0.33933046
v 1.06846189 0.35401595 -0.00282069
v -0.69352472 0.96479970 0.15783733
v -0.58822846 0.95413685 0.42348129
v -0.42662781 1.09224093 0.25259864
v -0.73757958 0.49766374 0.72953278
v -0.70787245 0.73353916 0.60255390
v -0.89921987 0.58569700 0.45211634
v -0.15973224 0.95615095 0.70164776
v -0.43102667 0.87115574 0.69358832
v -0.26582590 0.73995364 0.88606888
v -0.15702285 1.15768707 0.25449133
v -0.26443982 1.16640389 -0.00133554
v 0.16047703 0.95593804 0.70256919
v -0.00010648 1.08204722 0.51746106
v 0.26458526 1.16531813 -0.00082737
v 0.15913182 1.15999007 0.25532499
v 0.42769840 1.09175742 0.25536123
v -0.15811865 1.15811694 -0.25745851
v -0.42613935 1.09189415 -0.25786009
v 0.42703974 1.09292531 -0.25602707
v 0.15767834 1.15939140 -0.25705114
v -0.16138937 0.95667303 -0.70235300
v 0.00088150 1.08210790 -0.51793736
v 0.15992457 0.95726573 -0.70295167
v -0.58999306 0.95018345 -0.42677677
v -0.69368571 0.96255577 -0.16260076
v -0.26659325 0.73557532 -0.88467145
v -0.43035868 0.86848938 -0.69615334
v -0.89914894 0.58291090 -0.45389503
v -0.70612454 0.72637719 -0.60281658
v -0.73598170 0.49161515 -0.72952652
v -0.86544937 0.81630689 -0.00193443
v -1.02052212 0.34586531 -0.28443021
v -0.99325073 0.58535010 -0.17125508
v -0.98972213 0.58761841 0.16841769
v -1.02087665 0.34641826 0.29261008
v 0.58995396 0.95059568 0.42632556
v 0.69384289 0.96440715 0.16095929
v 0.26884729 0.73714042 0.88721579
v 0.43201223 0.86753511 0.69650471
v 0.90383291 0.58469123 0.45317352
v 0.71038800 0.73118526 0.60630596
v 0.74180686 0.49779302 0.72802222
v -0.27571437 0.49993587 1.00142539
v 0.00167479 0.59955132 1.00497818
v -0.75357372 0.21173032 0.74430454
v -0.55614811 0.35647574 0.90180784
v -0.00511368 0.12927173 1.04440248
v -0.28116363 0.21063422 1.02097881
v -0.29271409 0.00214561 0.99040812
v -1.02974427 0.11320470 0.17694567
v -0.93636465 0.11945710 0.47640246
v -0.94453019 0.12426052 -0.46728787
v -1.04442680 0.11874592 -0.17244312
v -0.77407992 0.03383344 0.13412687
v -0.99444669 0.00000000 -0.02271575
v -0.76300097 0.09785829 -0.18735999
v -0.56073976 0.35499236 -0.90031552
v -0.75761288 0.21028632 -0.74204981
v 0.00023364 0.59596568 -1.00057614
v -0.27528971 0.49644330 -0.99848622
v -0.29865444 0.00229845 -0.98838145
v -0.28644550 0.21269257 -1.02746880
v -0.00087622 0.12828171 -1.06270170
v 0.43158284 0.86991876 -0.69696450
v 0.26692474 0.73729765 -0.88615525
v 0.69456375 0.96410835 -0.16118792
v 0.58943945 0.95165592 -0.42439240
v 0.73801494 0.49914038 -0.73085856
v 0.70892787 0.73006028 -0.60581857
v 0.90136921 0.58774757 -0.45390606
v 0.78266656 0.09088963 0.16681388
v 0.66230786 0.00326375 0.47863495
v 0.45977861 0.09985901 0.27969903
v 0.76516896 0.20779534 0.74901605
v 0.78377593 0.00004735 0.64780402
v 0.94677353 0.12983026 0.47039416
v 0.16846029 0.00000000 0.82134992
v 0.51112318 0.00000000 0.81153810
v 0.30120337 0.00021648 0.99559510
v 0.16876633 0.09560920 0.30193651
v 0.26114681 0.02473697 0.00433745
v -0.21201381 0.00488541 0.78842700
v -0.03314121 0.04781822 0.57545829
v -0.28603122 0.06971235 0.05699667
v -0.18828821 0.04657665 0.27455518
v -0.45078650 0.01975410 0.23642355
v 0.13948719 0.05750704 -0.26256886
v 0.45877239 0.05277455 -0.24341664
v -0.42080268 0.03583365 -0.25527704
v -0.15177861 0.02228292 -0.19151632
v 0.21950950 0.00157573 -0.76376021
v -0.01460623 0.00085214 -0.50712723
v -0.16749765 0.00298942 -0.78880233
v 0.65030962 0.05259648 -0.45785305
v 0.75883639 0.13337936 -0.17639805
v 0.29401815 0.01775428 -0.99897355
v 0.51328444 0.00000000 -0.81113863
v 0.94159788 0.12701464 -0.47222266
v 0.79400522 0.01010244 -0.68129963
v 0.76411861 0.21882702 -0.75321013
v 0.98597836 0.00000000 -0.00520896
v 1.02543712 0.35596663 -0.29267716
v 1.02735102 0.12474596 -0.17690751
v 1.03552115 0.12295640 0.17163593
v 1.02816045 0.35346735 0.28727263
v 0.28249401 0.20742160 1.01856303
v 0.56389195 0.34984490 0.90170455
v 0.28026459 0.49769109 1.00075924
v -0.69034874 0.00000000 0.46483511
v -0.50506699 0.00332117 0.79241538
v -0.78543133 0.00394925 0.68247312
v -0.48633325 0.00029008 -0.78236586
v -0.65952146 0.07979972 -0.47872686
v -0.80067289 0.03936185 -0.67351025
v 0.55836719 0.35374105 -0.90175378
v 0.28438061 0.22237740 -1.02525699
v 0.27485311 0.49905878 -0.99921072
v 0.99412370 0.58792263 0.16775125
v 0.99233222 0.58908409 -0.16929978
v 0.86649740 0.81782377 0.00088396
v -0.60974598 1.03092086 0.07843038
v -0.56513220 1.03770018 0.20840503
v -0.47536433 1.09344983 0.12650752
v -0.71461779 0.88219690 0.37247375
v -0.64652318 0.96490878 0.29292661
v -0.76583111 0.88631505 0.23591147
v -0.36915427 1.07714283 0.37535822
v -0.51145309 1.02986300 0.34093589
v -0.45095298 1.01021373 0.46285403
v -0.82758272 0.42459506 0.65118742
v -0.82989597 0.54468632 0.59905624
v -0.90954661 0.47018966 0.51088709
v -0.62155807 0.68594903 0.73062307
v -0.73076707 0.61935377 0.67308658
v -0.63453394 0.56646037 0.79282200
v -0.86931854 0.69569379 0.38591781
v -0.81130892 0.66303581 0.53358024
v -0.77592689 0.77173686 0.46364939
v -0.08132210 0.89240032 0.79035830
v -0.21475789 0.85501206 0.80294764
v -0.13280953 0.78207457 0.88539976
v -0.37088028 0.96821535 0.59967500
v -0.29684818 0.91867155 0.70510489
v -0.23511870 1.00864732 0.60158318
v -0.39526182 0.69067043 0.87201446
v -0.35321969 0.81057876 0.79678959
v -0.48022896 0.75834268 0.77541548
v -0.65518224 0.85244876 0.51837373
v -0.57629550 0.80905235 0.65674388
v -0.51546913 0.92075127 0.56491840
v -0.34949842 1.13798010 0.12659192
v -0.39341584 1.13042355 -0.00152146
v -0.23289625 1.11409009 0.37710482
v -0.29458457 1.13146126 0.25624278
v -0.13331662 1.18971372 -0.00183901
v -0.21265320 1.16892540 0.12777804
v -0.07914957 1.18562949 0.12847051
v 0.08218230 0.89142442 0.78951454
v 0.00007062 0.96336973 0.71022362
v 0.15344834 1.07356679 0.51145381
v 0.08042829 1.02568758 0.61405313
v 0.23663729 1.00860274 0.60312295
v -0.07855406 1.02520382 0.61409831
v -0.15361869 1.07452893 0.51100272
v 0.39519039 1.13101113 -0.00052529
v 0.35007793 1.13771200 0.12853412
v 0.47662255 1.09378612 0.12766479
v 0.08021411 1.18370950 0.12804195
v 0.21421579 1.17027044 0.12918474
v 0.13342583 1.18890607 -0.00131039
v 0.37168828 1.07766891 0.37792417
v 0.29399195 1.13293445 0.25801855
v 0.23414324 1.11294281 0.37826574
v -0.08100554 1.13138938 0.39079419
v 0.07934898 1.13072860 0.38940221
v -0.00061720 1.16819930 0.25738889
v -0.34912902 1.13792706 -0.13080499
v -0.47509107 1.09295225 -0.13100119
v -0.07934831 1.18582165 -0.13030463
v -0.21331161 1.17107546 -0.13057990
v -0.37059727 1.07593215 -0.37961257
v -0.29398847 1.13181162 -0.25965184
v -0.23399192 1.11347711 -0.37932044
v 0.47650394 1.09546721 -0.12907293
v 0.34998867 1.14041185 -0.12962781
v 0.23329079 1.11488760 -0.37888610
v 0.29432583 1.13365376 -0.25850299
v 0.36896145 1.07797348 -0.37837029
v 0.21312110 1.17063570 -0.12977119
v 0.07910255 1.18634605 -0.13035452
v -0.08215985 0.89195633 -0.79060704
v 0.00037198 0.96473336 -0.71183956
v 0.08202940 0.89090675 -0.79117221
v -0.15469095 1.07381713 -0.51232719
v -0.08071937 1.02730703 -0.61588937
v -0.23693196 1.00932348 -0.60353506
v 0.23521250 1.01004183 -0.60353935
v 0.08015094 1.02798188 -0.61565298
v 0.15322429 1.07503033 -0.51220912
v -0.00005385 1.16794145 -0.25931692
v 0.08077004 1.13083375 -0.38970244
v -0.08000026 1.13018835 -0.39133650
v -0.56491023 1.03675807 -0.21385643
v -0.61071390 1.03016913 -0.08292623
v -0.45235851 1.00735271 -0.46770814
v -0.51178813 1.02848017 -0.34552252
v -0.76642954 0.88372189 -0.24126802
v -0.64806086 0.96367764 -0.29735059
v -0.71561152 0.87920910 -0.37641475
v -0.13443360 0.77986801 -0.88316733
v -0.21532191 0.85405219 -0.80303454
v -0.47886792 0.75235897 -0.77645701
v -0.35236686 0.80711567 -0.79837525
v -0.39590776 0.68456322 -0.87016881
v -0.29798794 0.91777271 -0.70757359
v -0.37234905 0.96760887 -0.60261053
v -0.90972495 0.46459255 -0.51193655
v -0.82715613 0.53726405 -0.59848899
v -0.82570881 0.41697627 -0.65024996
v -0.77505958 0.76470798 -0.46438521
v -0.80877006 0.65827698 -0.53276843
v -0.86980981 0.69025028 -0.38685662
v -0.63322002 0.56295979 -0.79078358
v -0.72932613 0.61363387 -0.67205900
v -0.62050527 0.68161935 -0.72926748
v -0.51698887 0.91503459 -0.56815004
v -0.57551986 0.80306941 -0.65953821
v -0.65595865 0.84608400 -0.52048570
v -0.70231742 0.97162491 -0.00199011
v -0.85574073 0.80974931 -0.16149774
v -0.78688163 0.89591366 -0.08407167
v -0.78668004 0.89688641 0.07918735
v -0.85397261 0.81037229 0.15756588
v -0.97022629 0.34619936 -0.42484519
v -0.97411782 0.46571031 -0.37742090
v -1.03819716 0.47017100 -0.08562201
v -1.02040970 0.46900076 -0.23113230
v -1.05197644 0.35108656 -0.14189234
v -0.95544797 0.58441663 -0.31515619
v -0.91877562 0.69286090 -0.24730921
v -0.97265685 0.46784198 0.37928885
v -0.97191310 0.34886000 0.43208462
v -0.91877234 0.69626832 0.24518356
v -0.95421153 0.59039742 0.31387082
v -1.05033159 0.35082611 0.14999589
v -1.01629174 0.47229335 0.23495726
v -1.04067159 0.47115639 0.08903661
v -0.94076729 0.70637268 -0.08668417
v -1.00646436 0.58930343 0.00015792
v -0.94137079 0.70822787 0.08223197
v 0.56572354 1.03793991 0.21062727
v 0.61028790 1.02958536 0.07992763
v 0.45271650 1.00854945 0.46669564
v 0.51393038 1.02944505 0.34370741
v 0.76759064 0.88636070 0.23962794
v 0.64861053 0.96515578 0.29607627
v 0.71628165 0.88121730 0.37561959
v 0.13547839 0.78180909 0.88565838
v 0.21744122 0.85432130 0.80350524
v 0.48279709 0.75559533 0.77966791
v 0.35401368 0.80709112 0.79806787
v 0.39861611 0.68582988 0.87381983
v 0.29756451 0.91747940 0.70689380
v 0.37296477 0.96686798 0.60208386
v 0.91325814 0.46786222 0.51063591
v 0.83335412 0.54371989 0.59788311
v 0.82995236 0.42279905 0.64873093
v 0.77749914 0.76782840 0.46460137
v 0.81294429 0.66176236 0.53506494
v 0.87450433 0.69601065 0.38757074
v 0.63669896 0.56263715 0.79469824
v 0.73339146 0.61699623 0.67664921
v 0.62393075 0.68310893 0.73314577
v 0.51822549 0.91719854 0.56847292
v 0.57633924 0.80492032 0.65847516
v 0.65692580 0.84946454 0.52093589
v -0.13503873 0.67138869 0.95663613
v 0.00137843 0.71304429 0.94291258
v -0.40303731 0.56935537 0.93277657
v -0.27411869 0.62249011 0.95289862
v 0.00327606 0.47717673 1.04564106
v -0.13784808 0.55076659 1.01323676
v -0.14005986 0.42914903 1.04788291
v -0.83608806 0.27708772 0.65694916
v -0.75330162 0.35358238 0.74430048
v -0.55791378 0.21900724 0.90454960
v -0.66184717 0.28501108 0.83020771
v -0.65790880 0.14662747 0.82437497
v -0.65281630 0.42824090 0.82403070
v -0.54377282 0.49618134 0.88411009
v 0.00264348 0.03664206 1.03445280
v -0.14797474 0.05749594 1.02223349
v -0.13853687 0.00000000 1.00566483
v -0.14048681 0.28390256 1.05463529
v -0.14844804 0.16796178 1.04851592
v -0.00000281 0.23450007 1.06266677
v -0.41986266 0.04508656 0.95251966
v -0.29170057 0.09346405 1.00669932
v -0.41783217 0.14755698 0.96825761
v -0.42067659 0.42849281 0.96606922
v -0.42534879 0.28058097 0.97512442
v -0.28189832 0.35379186 1.02422786
v -0.99547440 0.23295163 0.38972977
v -0.92482960 0.22982070 0.52091283
v -1.06039357 0.23166800 0.09265995
v -1.03546643 0.22834477 0.23643103
v -0.95829469 0.03366569 0.42732555
v -0.99657077 0.11691185 0.33128166
v -1.00368285 0.02189511 0.26495880
v -0.93109101 0.23107333 -0.51678383
v -0.99136174 0.23260821 -0.37980971
v -1.02076900 0.04317032 -0.25912753
v -0.99799448 0.12321299 -0.32446709
v -0.95782149 0.02297821 -0.41902789
v -1.03481460 0.23168291 -0.22982636
v -1.06282902 0.23670690 -0.08156116
v -0.64915413 0.00000000 0.04376597
v -0.75322580 0.00000000 -0.06146704
v -0.61400813 0.02857347 -0.14730066
v -0.98892432 0.00000000 0.17672764
v -0.89101619 0.00000000 0.06462391
v -0.87248784 0.00013779 0.24425735
v -0.84773284 0.00201513 -0.26273832
v -0.89126515 0.00469015 -0.12529998
v -0.98551655 0.00000000 -0.19835433
v -1.05296671 0.11682382 0.00130390
v -1.05899668 0.02306051 -0.08796036
v -1.05046177 0.02007832 0.08945465
v -0.75319397 0.34810933 -0.74276799
v -0.83795381 0.27417925 -0.65353340
v -0.54534358 0.48970291 -0.87926102
v -0.65382910 0.42031616 -0.82130039
v -0.66750896 0.15220635 -0.82904387
v -0.66521466 0.27917883 -0.83225143
v -0.56568104 0.21880412 -0.90602452
v 0.00047851 0.71065456 -0.94074625
v -0.13510832 0.67071944 -0.95512861
v -0.14109829 0.42650861 -1.04467213
v -0.13846923 0.54909182 -1.00889623
v -0.00009558 0.47655991 -1.04176927
v -0.27306381 0.61999023 -0.94978029
v -0.40139073 0.56325155 -0.92841762
v -0.15431716 0.00000000 -1.01733172
v -0.15006289 0.05996373 -1.04168427
v -0.00040612 0.02783804 -1.05230749
v -0.42378396 0.15112472 -0.97579455
v -0.29207516 0.09850749 -1.00935209
v -0.43246007 0.04407438 -0.94709653
v -0.00092800 0.23552828 -1.06772828
v -0.14513165 0.16566357 -1.04935884
v -0.14422719 0.28435448 -1.05792928
v -0.42223990 0.42466810 -0.96201259
v -0.28662133 0.35355613 -1.02387094
v -0.43223819 0.27952817 -0.97686672
v 0.21644612 0.85366833 -0.80178159
v 0.13428284 0.78036737 -0.88428789
v 0.37109712 0.96862251 -0.60143554
v 0.29756498 0.91947556 -0.70605832
v 0.39626473 0.68860471 -0.87098587
v 0.35360903 0.80931115 -0.79766077
v 0.48158330 0.75489187 -0.77600461
v 0.61120170 1.03018808 -0.08108603
v 0.56560016 1.03858626 -0.21063858
v 0.71641725 0.88086635 -0.37459284
v 0.64801753 0.96568978 -0.29527032
v 0.76811641 0.88523048 -0.23949425
v 0.51243836 1.02981138 -0.34328979
v 0.45178133 1.00980985 -0.46700242
v 0.83105719 0.42847380 -0.65213978
v 0.83182830 0.54696542 -0.60054833
v 0.91376406 0.47421768 -0.51028293
v 0.62132704 0.68392390 -0.73092812
v 0.73015654 0.61708450 -0.67383951
v 0.63235712 0.56432724 -0.79273397
v 0.87061411 0.69415796 -0.38596079
v 0.81237006 0.66289723 -0.53513318
v 0.77622586 0.76780570 -0.46477017
v 0.51731330 0.91826797 -0.56743520
v 0.65723419 0.84813243 -0.51991612
v 0.57613367 0.80600321 -0.65830213
v 0.65850270 0.13897248 0.07885588
v 0.62616706 0.06979188 0.22375220
v 0.50456834 0.13192423 0.15030380
v 0.80855626 0.00641722 0.41901961
v 0.70793229 0.08611535 0.33415139
v 0.85875535 0.08325464 0.26193944
v 0.39281371 0.00000000 0.40757027
v 0.56677389 0.02764144 0.37817889
v 0.48665795 0.02076244 0.52690625
v 0.84264404 0.27668658 0.65835136
v 0.86836302 0.16612232 0.62176371
v 0.92957330 0.23577844 0.52184153
v 0.68046999 0.02643502 0.78178173
v 0.77577651 0.09384294 0.70884371
v 0.66670990 0.13954709 0.82002920
v 0.95335138 0.04480797 0.41334045
v 0.87917715 0.06833215 0.57262170
v 0.87924308 0.00000000 0.50998700
v 0.08607004 0.01962599 0.92216581
v 0.25562301 0.00003002 0.93442047
v 0.15407696 0.00000000 1.01604962
v 0.40929502 0.01641863 0.69078785
v 0.33464843 0.00139610 0.80772167
v 0.24496864 0.00200943 0.68930852
v 0.42812166 0.03541608 0.94549716
v 0.41878146 0.00000000 0.91796148
v 0.54948944 0.00000000 0.87788153
v 0.76083916 0.00000000 0.60241878
v 0.66654062 0.00000000 0.75575370
v 0.58442432 0.00009830 0.65083104
v 0.37220597 0.01838514 0.13184357
v 0.42713121 0.06166140 -0.00701062
v 0.23134732 0.00419449 0.41783306
v 0.31775504 0.03464510 0.27679557
v 0.13291878 0.02210915 0.01355364
v 0.20457345 0.03793921 0.14123811
v 0.08328405 0.07130631 0.15189004
v -0.10578679 0.00003077 0.92164266
v -0.02903363 0.00312923 0.81350970
v -0.19834498 0.09864046 0.57821345
v -0.10750945 0.07142990 0.70809937
v -0.28461823 0.06568633 0.67501920
v 0.07122985 0.03293734 0.70180970
v 0.13987941 0.00666875 0.56065369
v -0.39616144 0.07632580 0.03338362
v -0.38535967 0.16524819 0.14484689
v -0.52830195 0.11026911 0.09143201
v -0.09327226 0.07223507 0.14508007
v -0.22253869 0.18337148 0.16654798
v -0.15569077 0.07485492 0.04217015
v -0.43519992 0.06758725 0.40871218
v -0.31267947 0.06658068 0.27016947
v -0.28380597 0.15022567 0.41734710
v 0.07558436 0.14357154 0.45817581
v -0.11253242 0.14772807 0.43911731
v -0.01317878 0.05298729 0.30483106
v 0.37006551 0.04965482 -0.10550076
v 0.50012678 0.14991346 -0.13380487
v 0.08249125 0.05294814 -0.10509016
v 0.19855893 0.02613763 -0.12550440
v 0.39973316 0.06461247 -0.38045856
v 0.30043557 0.01525168 -0.24491593
v 0.24205792 0.01237248 -0.37095344
v -0.44134590 0.04020136 -0.13954721
v -0.33972889 0.02609554 -0.09092052
v -0.24983993 0.00000000 -0.32477945
v -0.29654676 0.03133028 -0.20025213
v -0.37400424 0.02453353 -0.37430397
v -0.25562426 0.08230679 -0.08986446
v -0.11279094 0.04754659 -0.10688427
v 0.10734324 0.00730788 -0.88503343
v 0.02405187 0.00057989 -0.77873057
v -0.08346106 0.02357656 -0.89628333
v 0.17677541 0.01837592 -0.51506907
v 0.11918718 0.00000000 -0.63453639
v 0.28158513 0.01416563 -0.61343658
v -0.24331535 0.00000000 -0.63827002
v -0.07393395 0.02328600 -0.65216655
v -0.14495642 0.02004616 -0.49596578
v 0.00816437 0.06238558 -0.21987137
v -0.07805182 0.00511083 -0.34657478
v 0.08228333 0.03722537 -0.36067995
v 0.61928475 0.15199178 -0.23536317
v 0.64552540 0.16475715 -0.09028425
v 0.50509238 0.01035462 -0.48951370
v 0.55213314 0.09823599 -0.37053400
v 0.85832167 0.05206718 -0.25974283
v 0.71415877 0.11600986 -0.31970820
v 0.79771543 0.06716105 -0.41227251
v 0.15209365 0.00000000 -1.01508057
v 0.25840542 0.00086841 -0.91781455
v 0.54027843 0.00059228 -0.87910002
v 0.41107771 0.00000000 -0.92282283
v 0.43153730 0.05401793 -0.96054137
v 0.36368752 0.02519409 -0.79316956
v 0.42325309 0.02334980 -0.66753066
v 0.93431485 0.24268350 -0.51735401
v 0.86801887 0.17950495 -0.62026411
v 0.84462965 0.29044661 -0.65855604
v 0.87606853 0.00000000 -0.51325268
v 0.88009095 0.06878342 -0.58252198
v 0.96656460 0.04381616 -0.42859909
v 0.66023374 0.15808927 -0.82978320
v 0.77366579 0.10818020 -0.71672606
v 0.67908376 0.05457103 -0.80360985
v 0.58520806 0.00000000 -0.63783044
v 0.66445553 0.00000000 -0.76065433
v 0.72942507 0.00152979 -0.58832014
v 0.78826141 0.11148123 -0.00663888
v 0.96873218 0.00071238 -0.18444124
v 0.87597173 0.07497628 -0.09269656
v 0.91152865 0.05162553 0.08801867
v 0.97645491 0.00051765 0.18271017
v 0.97423548 0.35542050 -0.42915630
v 0.99316174 0.24027233 -0.38431135
v 1.06002629 0.23235291 -0.08980349
v 1.03375745 0.23527186 -0.23573120
v 1.05607033 0.35203221 -0.14871331
v 0.99747378 0.12829633 -0.33198720
v 1.00841761 0.06634691 -0.27060774
v 0.99752367 0.23600587 0.38564268
v 0.97718579 0.34860379 0.42685786
v 1.01147532 0.04925332 0.25884783
v 0.99929070 0.13057005 0.32325041
v 1.05451167 0.35111842 0.14186130
v 1.04351830 0.23598656 0.23407696
v 1.06057131 0.23423758 0.08441376
v 1.03417289 0.02669566 -0.10032558
v 1.04864097 0.11426480 -0.00116219
v 1.03641379 0.01908542 0.08336823
v 0.15253909 0.04908522 1.02514994
v 0.42072037 0.14394231 0.96466851
v 0.29600054 0.08646227 0.99830365
v 0.14347099 0.15521973 1.03368771
v 0.14404635 0.27698693 1.05401409
v 0.75837183 0.35306439 0.74520355
v 0.55196565 0.48993737 0.88852328
v 0.66044116 0.42623371 0.82402235
v 0.66641301 0.27623999 0.83136529
v 0.56164598 0.21039227 0.90050966
v 0.13825938 0.67149371 0.95749992
v 0.14597370 0.42508358 1.04858863
v 0.14212604 0.54922938 1.01242423
v 0.27699521 0.62181628 0.95415992
v 0.40642506 0.56410539 0.93146241
v 0.43183196 0.27770647 0.97497696
v 0.42764869 0.42313337 0.96873021
v 0.28784493 0.35122025 1.02751219
v -0.61265576 0.02130878 0.19298457
v -0.53505141 0.00878010 0.51705283
v -0.58371204 0.02106059 0.35850024
v -0.73690641 0.03464655 0.29808533
v -0.82103992 0.02092755 0.41621986
v -0.25219154 0.00000000 0.93471205
v -0.52794003 0.00000000 0.89496940
v -0.40192404 0.00000000 0.92483789
v -0.36188835 0.00145700 0.81819415
v -0.44525582 0.03027785 0.67283803
v -0.85440397 0.16218445 0.61927181
v -0.87659538 0.00000000 0.53027183
v -0.86415166 0.05430872 0.57617027
v -0.76606411 0.09823623 0.71321768
v -0.66732824 0.03417313 0.79492092
v -0.60980082 0.00000000 0.64048392
v -0.66453654 0.00000000 0.76869816
v -0.75584418 0.00000000 0.60506898
v -0.25176206 0.00015953 -0.93513358
v -0.38176101 0.06367179 -0.65145886
v -0.33177006 0.00167978 -0.80001760
v -0.41569743 0.00000000 -0.92849189
v -0.55887938 0.00100402 -0.89317906
v -0.58929181 0.08920474 -0.23362562
v -0.79349744 0.00000194 -0.42323634
v -0.70563149 0.08020194 -0.33288473
v -0.51781505 0.01631210 -0.37328646
v -0.47998816 0.07814780 -0.50893223
v -0.86205214 0.16730115 -0.61642241
v -0.68298829 0.04849108 -0.80078018
v -0.78164321 0.09905870 -0.71421409
v -0.88958949 0.07701653 -0.57220912
v -0.88418835 0.00000000 -0.52917147
v -0.57865906 0.02790258 -0.63748187
v -0.75795674 0.00000000 -0.60299259
v -0.66822821 0.00000000 -0.76457047
v 0.75727564 0.35669279 -0.74586356
v 0.55960375 0.22424221 -0.90582424
v 0.66698349 0.28704050 -0.83239347
v 0.65591460 0.42579159 -0.82579428
v 0.54563278 0.49336454 -0.88375717
v 0.14699125 0.06922441 -1.04956198
v 0.14237377 0.28419548 -1.05743456
v 0.14527999 0.17626840 -1.05660069
v 0.29217893 0.10849021 -1.02669692
v 0.42331159 0.15575793 -0.97779846
v 0.13637163 0.67046410 -0.95422471
v 0.40214652 0.56677479 -0.93123645
v 0.27442780 0.62208259 -0.95115149
v 0.13781324 0.54849660 -1.00841439
v 0.14074200 0.42540285 -1.04221869
v 0.43004793 0.28091606 -0.97454059
v 0.28513134 0.35643721 -1.02332962
v 0.42138198 0.42863286 -0.96372736
v 0.97992516 0.46829075 0.37941107
v 1.04520643 0.46968833 0.08608958
v 1.02552533 0.47475624 0.23243374
v 0.95809877 0.58892971 0.31499347
v 0.92174572 0.69652939 0.24540207
v 0.97171855 0.47393402 -0.37658182
v 0.91899723 0.69748193 -0.24625006
v 0.95628792 0.59034944 -0.31418616
v 1.01818967 0.47497013 -0.23218298
v 1.04427242 0.47463861 -0.08750733
v 0.70279902 0.97174859 0.00008770
v 0.85703242 0.81232786 0.15997252
v 0.78769535 0.89784050 0.08288693
v 0.78810811 0.89707398 -0.08168077
v 0.85740781 0.81105220 -0.15803489
v 1.00583434 0.59029239 0.00026638
v 0.94382995 0.70935249 -0.08458135
v 0.94366342 0.70971471 0.08510463
f 330 87 329
f 336 325 26
f 207 208 56
f 464 36 580
f 502 129 504
f 157 624 622
f 308 311 82
f 247 223 248
f 507 483 508
f 331 88 329
f 494 500 497
f 156 601 602
f 591 589 592
f 365 98 596
f 75 281 282
f 152 587 577
f 149 559 560
f 555 121 553
f 530 141 529
f 515 517 139
f 361 594 98
f 250 67 249
f 157 608 609
f 294 293 209
f 317 81 316
f 557 338 26
f 303 305 81
f 530 529 528
f 101 381 382
f 415 418 111
f 192 184 50
f 412 110 411
f 20 384 256
f 131 594 486
f 281 264 282
f 347 287 348
f 28 349 582
f 165 163 1
f 248 250 66
f 617 107 398
f 273 271 274
f 456 115 453
f 558 561 560
f 335 576 91
f 331 177 332
f 116 433 436
f 351 370 92
f 136 511 530
f 239 240 65
f 247 258 19
f 304 23 567
f 148 557 570
f 214 208 58
f 440 426 450
f 268 270 269
f 258 247 268
f 204 202 16
f 466 125 465
f 517 513 133
f 168 275 274
f 275 73 274
f 198 193 53
f 309 308 307
f 510 511 136
f 415 416 110
f 131 490 597
f 473 475 474
f 414 415 111
f 493 495 494
f 496 504 485
f 433 116 432
f 600 375 601
f 240 234 65
f 418 415 412
f 486 361 3
f 567 566 304
f 380 393 29
f 17 199 197
f 491 492 132
f 451 449 435
f 218 217 216
f 623 621 613
f 396 104 395
f 433 439 436
f 628 160 627
f 215 202 217
f 209 207 2
f 427 113 424
f 434 10 544
f 434 433 432
f 199 17 210
f 150 564 565
f 489 491 132
f 275 13 285
f 497 500 134
f 125 466 476
f 578 152 577
f 208 214 211
f 328 88 343
f 356 27 603
f 150 566 567
f 372 100 371
f 190 191 47
f 235 8 398
f 260 261 72
f 422 403 414
f 422 414 111
f 453 454 123
f 349 583 582
f 521 520 519
f 425 453 115
f 616 622 158
f 483 130 508
f 151 586 572
f 212 17 232
f 400 397 402
f 377 396 99
f 41 522 511
f 510 508 505
f 549 547 42
f 475 473 36
f 510 137 509
f 222 221 197
f 430 115 429
f 220 194 1
f 305 54 204
f 621 29 613
f 192 171 184
f 460 335 5
f 88 331 332
f 74 277 279
f 300 301 80
f 390 389 388
f 165 45 164
f 146 549 551
f 291 278 75
f 448 120 445
f 147 543 544
f 607 610 609
f 603 602 356
f 139 529 514
f 333 553 443
f 92 368 347
f 261 260 259
f 300 6 200
f 46 177 331
f 284 283 174
f 301 300 200
f 471 468 474
f 54 305 301
f 302 304 303
f 569 150 567
f 150 569 570
f 294 209 2
f 628 629 160
f 548 543 147
f 147 625 627
f 63 233 234
f 426 427 114
f 41 509 532
f 198 52 196
f 614 105 612
f 147 627 547
f 81 305 306
f 549 548 547
f 54 301 200
f 342 88 332
f 264 281 70
f 193 194 53
f 455 429 456
f 187 321 14
f 479 130 484
f 147 544 625
f 458 456 453
f 304 80 303
f 314 84 313
f 488 503 501
f 321 332 14
f 423 425 424
f 305 204 306
f 341 339 25
f 514 40 516
f 625 628 627
f 340 339 341
f 105 614 391
f 243 228 62
f 318 316 78
f 75 278 279
f 357 355 353
f 238 257 63
f 466 455 476
f 425 423 4
f 448 449 120
f 408 638 108
f 292 275 285
f 22 278 289
f 515 513 517
f 501 503 134
f 622 623 158
f 134 503 504
f 195 216 206
f 163 271 246
f 619 617 620
f 62 228 229
f 163 165 164
f 453 425 454
f 489 132 488
f 82 628 625
f 58 208 209
f 525 608 40
f 626 547 627
f 518 517 498
f 489 487 491
f 557 26 564
f 325 336 344
f 541 145 539
f 40 616 516
f 338 556 89
f 250 248 245
f 139 514 515
f 98 594 596
f 246 220 1
f 112 413 630
f 9 536 413
f 156 600 601
f 332 177 14
f 321 342 332
f 156 606 600
f 584 330 585
f 302 303 81
f 584 87 330
f 330 25 585
f 400 239 65
f 439 440 117
f 95 358 368
f 597 594 131
f 594 361 486
f 246 67 245
f 561 562 149
f 28 364 362
f 55 216 217
f 427 430 114
f 267 20 254
f 556 555 553
f 84 309 558
f 311 310 312
f 609 525 142
f 256 68 255
f 124 460 461
f 82 311 312
f 307 308 82
f 589 135 495
f 527 40 514
f 112 418 412
f 20 256 254
f 258 238 19
f 267 254 269
f 273 272 249
f 392 391 393
f 137 533 509
f 122 455 456
f 9 413 411
f 130 480 505
f 333 443 5
f 527 525 40
f 589 495 385
f 39 496 485
f 223 225 224
f 414 416 415
f 219 222 53
f 145 538 539
f 413 412 411
f 469 468 467
f 183 181 6
f 191 192 50
f 429 35 431
f 292 285 76
f 413 112 412
f 415 110 412
f 43 164 167
f 467 468 126
f 617 101 620
f 450 451 117
f 438 546 545
f 619 620 159
f 17 212 210
f 124 579 576
f 584 153 583
f 460 124 576
f 3 469 467
f 311 308 314
f 6 320 183
f 389 104 388
f 251 250 249
f 194 165 1
f 291 289 278
f 287 77 348
f 238 258 257
f 139 517 518
f 238 236 19
f 223 247 19
f 382 380 29
f 39 518 498
f 361 359 3
f 69 255 257
f 139 518 528
f 33 545 535
f 387 385 7
f 69 268 269
f 477 462 125
f 454 479 123
f 121 555 447
f 451 435 117
f 454 425 4
f 233 252 8
f 124 463 464
f 69 258 268
f 168 167 166
f 583 153 582
f 384 394 102
f 138 512 513
f 57 210 211
f 254 256 255
f 607 609 142
f 324 319 86
f 289 291 76
f 291 292 76
f 384 102 383
f 422 421 420
f 221 17 197
f 383 102 381
f 376 377 99
f 99 373 374
f 386 105 392
f 438 33 440
f 90 341 343
f 281 75 279
f 574 571 96
f 628 82 312
f 221 222 59
f 127 471 474
f 595 605 603
f 551 538 145
f 334 91 340
f 322 324 85
f 305 303 301
f 18 239 399
f 306 204 16
f 199 198 197
f 166 190 180
f 303 80 301
f 267 266 265
f 626 42 547
f 16 215 213
f 349 351 350
f 295 16 213
f 68 379 252
f 250 251 66
f 627 160 626
f 383 68 256
f 343 88 342
f 507 508 136
f 202 215 16
f 197 198 53
f 254 69 269
f 603 605 156
f 418 419 111
f 384 383 256
f 455 122 476
f 203 204 54
f 556 557 148
f 255 68 253
f 313 84 560
f 25 328 341
f 254 255 69
f 603 156 602
f 581 584 583
f 630 632 112
f 163 246 1
f 246 245 220
f 432 116 558
f 499 591 590
f 320 563 86
f 345 93 350
f 306 16 295
f 346 93 345
f 562 568 149
f 604 605 155
f 154 592 593
f 545 552 535
f 511 522 530
f 574 573 571
f 566 150 565
f 361 98 360
f 67 271 273
f 234 235 65
f 208 211 56
f 574 151 573
f 251 270 66
f 398 8 378
f 213 215 214
f 438 440 439
f 315 314 313
f 263 71 262
f 20 373 384
f 496 134 504
f 329 88 328
f 81 306 316
f 555 556 148
f 592 589 103
f 617 619 107
f 227 207 56
f 571 359 96
f 446 466 465
f 206 216 55
f 359 571 469
f 568 148 570
f 34 437 435
f 28 351 349
f 21 272 282
f 113 423 424
f 490 489 488
f 379 68 383
f 210 212 211
f 80 563 300
f 351 92 350
f 326 346 12
f 83 317 318
f 555 148 554
f 212 231 56
f 218 57 217
f 271 67 246
f 195 196 52
f 270 268 66
f 390 592 103
f 148 568 554
f 495 493 7
f 592 390 593
f 357 95 355
f 574 575 151
f 452 120 451
f 154 591 592
f 587 585 577
f 395 394 396
f 93 349 350
f 610 416 611
f 166 44 190
f 315 23 302
f 315 302 317
f 268 247 66
f 606 154 593
f 396 394 99
f 211 212 56
f 370 369 368
f 235 397 65
f 280 278 22
f 83 315 317
f 575 588 151
f 74 279 280
f 385 495 7
f 63 257 253
f 397 235 398
f 214 58 213
f 220 219 194
f 546 146 545
f 236 225 19
f 599 94 602
f 235 233 8
f 102 394 395
f 611 416 32
f 225 223 19
f 139 528 529
f 231 62 229
f 419 406 421
f 451 450 452
f 49 182 185
f 402 397 107
f 52 199 218
f 416 610 110
f 225 236 244
f 107 397 398
f 68 252 253
f 322 85 321
f 182 181 183
f 118 438 439
f 546 438 118
f 348 77 345
f 543 546 118
f 231 212 232
f 610 611 157
f 33 438 545
f 385 386 103
f 479 480 130
f 169 195 15
f 93 583 349
f 15 195 206
f 190 44 192
f 247 248 66
f 146 552 545
f 248 60 245
f 570 557 564
f 274 271 43
f 63 253 233
f 272 21 249
f 507 528 518
f 67 273 249
f 487 467 126
f 196 195 169
f 624 159 623
f 134 496 497
f 132 503 488
f 104 393 395
f 556 553 89
f 355 356 94
f 258 69 257
f 229 61 227
f 56 231 227
f 460 576 335
f 463 124 461
f 394 373 99
f 29 393 391
f 67 250 245
f 193 198 196
f 462 36 464
f 144 633 630
f 141 526 527
f 517 133 498
f 536 144 630
f 100 372 599
f 144 536 537
f 22 289 287
f 578 579 152
f 579 578 576
f 189 188 187
f 60 223 224
f 92 348 350
f 555 554 447
f 396 377 388
f 194 193 165
f 413 536 630
f 372 352 599
f 377 376 375
f 348 345 350
f 105 386 387
f 240 237 234
f 463 462 464
f 135 500 494
f 45 196 169
f 512 612 387
f 245 60 220
f 429 115 456
f 223 60 248
f 288 289 76
f 525 526 142
f 100 599 601
f 613 29 391
f 526 523 520
f 341 328 343
f 631 641 639
f 264 21 282
f 266 72 265
f 106 402 403
f 73 273 274
f 186 206 205
f 381 379 383
f 52 216 195
f 410 18 399
f 290 272 73
f 72 371 374
f 526 525 527
f 115 430 424
f 498 497 496
f 621 382 29
f 543 118 434
f 214 215 57
f 522 141 530
f 511 510 509
f 352 94 599
f 493 512 7
f 90 340 341
f 169 171 170
f 605 604 606
f 219 60 224
f 104 389 392
f 359 469 3
f 186 49 185
f 222 219 224
f 166 167 44
f 428 427 426
f 523 522 524
f 129 502 481
f 50 185 188
f 164 45 170
f 425 115 424
f 33 428 426
f 427 428 113
f 94 356 602
f 515 138 513
f 114 431 452
f 237 236 238
f 215 217 57
f 95 354 355
f 220 60 219
f 515 514 516
f 183 320 319
f 222 197 53
f 559 569 567
f 300 320 6
f 435 436 117
f 96 360 363
f 640 642 641
f 242 243 62
f 140 537 519
f 508 130 505
f 420 410 399
f 537 539 144
f 317 316 318
f 426 114 450
f 186 15 206
f 311 83 310
f 625 544 307
f 544 10 307
f 168 43 167
f 185 182 188
f 369 354 95
f 44 171 192
f 605 606 156
f 548 549 146
f 100 601 375
f 149 568 569
f 381 380 382
f 455 466 35
f 480 479 454
f 543 548 546
f 493 133 513
f 492 472 37
f 477 125 476
f 491 487 126
f 337 336 338
f 588 153 587
f 576 578 91
f 633 161 632
f 96 359 360
f 39 485 483
f 101 617 378
f 193 45 165
f 163 164 43
f 618 624 611
f 507 136 528
f 561 149 560
f 641 162 639
f 116 561 558
f 494 133 493
f 253 252 233
f 63 237 238
f 392 393 104
f 440 450 117
f 93 581 583
f 386 385 387
f 120 449 451
f 421 422 111
f 486 3 467
f 302 81 317
f 633 632 630
f 462 475 36
f 376 99 374
f 489 490 131
f 447 449 448
f 387 612 105
f 106 420 399
f 173 46 172
f 492 491 472
f 316 306 295
f 22 287 347
f 109 410 420
f 507 39 483
f 559 23 313
f 214 57 211
f 196 45 193
f 10 434 432
f 422 106 403
f 626 160 640
f 487 486 467
f 542 41 532
f 400 106 399
f 444 120 452
f 198 199 52
f 475 127 474
f 621 620 382
f 621 623 159
f 450 114 452
f 92 347 348
f 376 100 375
f 434 118 433
f 503 132 502
f 337 90 336
f 537 536 519
f 395 393 380
f 201 54 200
f 171 44 170
f 355 94 353
f 58 296 213
f 422 420 106
f 595 365 596
f 569 568 570
f 523 140 520
f 114 430 431
f 218 210 57
f 304 566 80
f 639 162 638
f 261 371 72
f 548 147 547
f 498 133 497
f 150 570 564
f 222 224 59
f 142 526 520
f 437 436 435
f 141 522 523
f 137 510 505
f 173 179 176
f 559 149 569
f 121 447 448
f 563 320 300
f 102 395 380
f 257 255 253
f 642 162 641
f 83 311 314
f 216 52 218
f 512 493 513
f 23 304 302
f 91 339 340
f 512 138 612
f 159 620 621
f 218 199 210
f 364 28 575
f 83 318 310
f 168 274 43
f 136 530 528
f 140 523 524
f 495 135 494
f 233 235 234
f 566 563 80
f 25 339 577
f 277 74 276
f 475 462 477
f 133 494 497
f 436 437 116
f 389 386 392
f 548 146 546
f 441 460 5
f 10 309 307
f 65 397 400
f 543 434 544
f 640 641 161
f 272 273 73
f 581 93 346
f 419 421 111
f 319 320 86
f 180 179 178
f 127 475 477
f 231 229 227
f 337 334 340
f 136 508 510
f 308 309 84
f 237 63 234
f 447 554 34
f 252 379 378
f 315 83 314
f 608 622 616
f 338 336 26
f 337 338 89
f 13 275 168
f 209 208 207
f 436 439 117
f 628 312 629
f 360 366 363
f 364 574 96
f 359 361 360
f 466 446 35
f 500 501 134
f 406 109 421
f 135 589 591
f 601 599 602
f 340 90 337
f 481 492 37
f 522 41 524
f 78 316 295
f 131 486 487
f 403 32 414
f 634 626 640
f 151 572 573
f 515 516 138
f 8 252 378
f 265 72 374
f 9 521 519
f 538 549 42
f 368 358 347
f 588 587 586
f 458 453 123
f 589 385 103
f 502 492 481
f 32 416 414
f 430 427 424
f 153 585 587
f 540 144 539
f 370 368 92
f 209 293 58
f 428 33 535
f 326 581 346
f 625 307 82
f 575 28 582
f 6 181 200
f 421 109 420
f 553 121 443
f 160 642 640
f 153 584 585
f 309 432 558
f 334 337 89
f 23 315 313
f 271 163 43
f 296 295 213
f 39 498 496
f 118 439 433
f 531 113 534
f 293 296 58
f 28 362 351
f 489 131 487
f 431 444 452
f 84 558 560
f 98 366 360
f 45 169 170
f 379 101 378
f 462 463 125
f 308 84 314
f 10 432 309
f 299 24 310
f 132 492 502
f 512 387 7
f 639 638 408
f 565 323 86
f 59 244 242
f 106 400 402
f 440 33 426
f 566 565 563
f 617 398 378
f 224 225 59
f 410 109 409
f 239 400 399
f 194 219 53
f 358 22 347
f 610 157 609
f 27 595 603
f 479 484 482
f 142 520 521
f 585 25 577
f 339 578 577
f 408 407 406
f 407 109 406
f 31 408 406
f 407 408 108
f 31 639 408
f 419 31 406
f 608 616 40
f 430 429 431
f 455 35 429
f 35 444 431
f 188 51 187
f 188 182 51
f 51 322 187
f 322 51 319
f 51 182 183
f 319 51 183
f 187 322 321
f 322 319 324
f 381 101 379
f 405 407 108
f 404 405 108
f 286 285 178
f 407 405 409
f 109 407 409
f 191 175 47
f 167 164 170
f 50 184 185
f 44 167 170
f 64 244 236
f 243 244 64
f 50 188 189
f 541 542 145
f 442 445 119
f 339 91 578
f 445 446 119
f 624 623 622
f 611 624 157
f 523 526 141
f 141 527 529
f 527 514 529
f 445 120 444
f 446 445 444
f 35 446 444
f 613 614 158
f 158 614 615
f 623 613 158
f 614 613 391
f 614 612 615
f 371 376 374
f 100 376 371
f 479 482 123
f 373 394 384
f 540 42 634
f 633 540 634
f 538 42 540
f 633 634 161
f 161 634 640
f 42 626 634
f 540 633 144
f 557 556 338
f 553 333 89
f 262 21 264
f 251 21 262
f 5 335 333
f 270 251 262
f 21 251 249
f 600 593 30
f 606 593 600
f 600 30 375
f 593 390 30
f 30 377 375
f 390 388 30
f 30 388 377
f 228 243 241
f 470 478 459
f 470 127 478
f 127 477 478
f 184 186 185
f 478 477 476
f 122 478 476
f 357 74 280
f 518 39 507
f 344 342 85
f 325 344 85
f 342 344 343
f 85 342 321
f 344 90 343
f 90 344 336
f 482 129 481
f 482 481 457
f 482 457 123
f 481 37 457
f 449 447 34
f 435 449 34
f 470 472 471
f 472 470 37
f 470 471 127
f 472 126 471
f 126 468 471
f 470 459 37
f 491 126 472
f 504 129 485
f 221 59 242
f 125 463 465
f 437 34 562
f 561 437 562
f 554 568 562
f 34 554 562
f 437 561 116
f 390 103 389
f 103 386 389
f 392 105 391
f 572 586 580
f 572 580 36
f 586 152 580
f 473 572 36
f 244 243 242
f 225 244 59
f 64 240 241
f 240 239 241
f 237 240 64
f 243 64 241
f 236 237 64
f 411 607 521
f 9 411 521
f 110 607 411
f 607 142 521
f 610 607 110
f 171 15 184
f 171 169 15
f 15 186 184
f 87 584 581
f 153 588 582
f 588 575 582
f 381 102 380
f 573 572 473
f 468 469 128
f 474 468 128
f 469 571 128
f 571 573 128
f 573 473 128
f 473 474 128
f 564 323 565
f 26 323 564
f 323 324 86
f 325 323 26
f 325 324 323
f 563 565 86
f 324 325 85
f 410 230 18
f 230 228 18
f 18 228 241
f 18 241 239
f 401 619 618
f 401 402 107
f 403 402 401
f 619 159 618
f 401 618 32
f 619 401 107
f 403 401 32
f 618 611 32
f 159 624 618
f 478 122 459
f 122 458 459
f 37 459 457
f 459 458 457
f 122 456 458
f 457 458 123
f 191 190 192
f 485 129 484
f 129 482 484
f 483 485 484
f 130 483 484
f 189 187 14
f 191 50 189
f 191 189 175
f 189 14 175
f 14 177 175
f 499 501 500
f 501 499 38
f 38 499 590
f 135 499 500
f 488 501 38
f 499 135 591
f 480 454 4
f 284 12 346
f 4 423 506
f 480 4 506
f 423 531 506
f 480 506 505
f 531 137 506
f 506 137 505
f 365 366 98
f 71 270 262
f 270 71 269
f 71 267 269
f 335 334 333
f 333 334 89
f 334 335 91
f 536 9 519
f 465 463 461
f 537 140 541
f 520 140 519
f 119 446 465
f 465 461 119
f 461 441 119
f 460 441 461
f 176 46 173
f 299 297 24
f 71 263 266
f 263 260 266
f 260 72 266
f 263 70 260
f 205 201 49
f 201 181 49
f 186 205 49
f 181 201 200
f 181 182 49
f 284 77 283
f 586 587 152
f 588 586 151
f 20 267 265
f 266 267 71
f 31 417 631
f 631 417 632
f 31 631 639
f 417 31 419
f 641 631 161
f 417 112 632
f 161 631 632
f 418 417 419
f 417 418 112
f 284 345 77
f 542 550 145
f 542 541 524
f 284 174 12
f 48 174 283
f 373 20 265
f 373 265 374
f 609 608 525
f 608 157 622
f 560 559 313
f 636 637 162
f 541 140 524
f 41 542 524
f 358 357 280
f 70 263 264
f 263 262 264
f 176 177 46
f 174 48 173
f 174 173 172
f 538 551 549
f 538 540 539
f 537 541 539
f 232 221 242
f 17 221 232
f 232 242 62
f 231 232 62
f 203 205 55
f 203 55 202
f 201 205 203
f 202 55 217
f 205 206 55
f 204 203 202
f 73 275 292
f 292 290 73
f 272 290 282
f 290 292 291
f 75 290 291
f 290 75 282
f 70 277 259
f 277 70 281
f 277 281 279
f 260 70 259
f 12 174 172
f 104 396 388
f 367 27 354
f 365 27 367
f 354 27 356
f 365 367 366
f 595 27 365
f 318 299 310
f 155 596 597
f 155 597 598
f 596 594 597
f 595 596 155
f 605 595 155
f 180 47 179
f 180 190 47
f 352 372 11
f 11 372 261
f 312 310 24
f 642 636 162
f 636 297 637
f 367 369 97
f 366 367 97
f 369 367 354
f 369 370 97
f 580 579 464
f 580 152 579
f 579 124 464
f 61 230 409
f 230 410 409
f 230 61 229
f 230 229 228
f 76 285 286
f 353 352 276
f 74 353 276
f 288 76 286
f 288 286 283
f 289 288 287
f 203 54 201
f 287 288 77
f 77 288 283
f 286 48 283
f 531 423 113
f 276 11 259
f 11 261 259
f 277 276 259
f 616 158 615
f 516 616 615
f 138 516 615
f 138 615 612
f 509 533 532
f 503 502 504
f 635 79 294
f 635 294 404
f 635 637 79
f 637 635 638
f 638 635 108
f 635 404 108
f 226 61 405
f 61 226 227
f 405 61 409
f 227 226 207
f 48 178 179
f 48 286 178
f 173 48 179
f 534 143 533
f 534 535 143
f 531 534 533
f 533 143 532
f 137 531 533
f 261 372 371
f 13 180 178
f 285 13 178
f 180 13 166
f 13 168 166
f 346 345 284
f 331 327 46
f 46 327 172
f 172 327 326
f 382 620 101
f 442 121 448
f 443 121 442
f 2 226 404
f 294 2 404
f 404 226 405
f 207 226 2
f 550 551 145
f 552 146 551
f 143 550 532
f 552 550 143
f 330 329 328
f 24 636 629
f 94 352 353
f 352 11 276
f 113 428 534
f 428 535 534
f 509 41 511
f 535 552 143
f 550 552 551
f 550 542 532
f 369 95 368
f 326 327 87
f 87 327 329
f 327 331 329
f 581 326 87
f 293 79 298
f 79 297 298
f 296 298 78
f 79 293 294
f 296 293 298
f 598 490 38
f 358 280 22
f 280 279 278
f 357 358 95
f 74 357 353
f 330 328 25
f 567 23 559
f 590 598 38
f 590 604 598
f 598 604 155
f 604 590 154
f 590 591 154
f 604 154 606
f 297 299 298
f 299 318 78
f 298 299 78
f 355 354 356
f 629 636 642
f 312 24 629
f 629 642 160
f 370 362 97
f 362 363 97
f 363 366 97
f 364 363 362
f 362 370 351
f 96 363 364
f 297 636 24
f 162 637 638
f 637 297 79
f 490 488 38
f 598 597 490
f 441 442 119
f 443 442 441
f 443 441 5
f 442 448 445
f 296 78 295
f 326 12 172
f 575 574 364
f 47 175 176
f 175 177 176
f 47 176 179
