# FEM surface export ¡ª frame 829
# Vertices: 642  Faces: 1280
v -0.52820492 0.84302223 -0.02526754
v 0.49642986 0.89428592 -0.02032670
v -0.50412625 0.77396715 -0.00049775
v 0.57380331 0.62633109 0.01006951
v 0.02518291 0.34831044 0.85116929
v -0.04044904 0.58256316 0.84439212
v -0.01912696 0.42631155 -0.81336373
v 0.00638523 0.52018714 -0.85867226
v 0.88912886 0.10831565 -0.56264687
v 0.88428348 0.13309015 0.55788428
v -0.91990870 0.10486053 -0.55518365
v -0.88725585 0.05520603 0.57210261
v -0.80687380 0.48839694 0.31026456
v -0.53458363 0.32990947 0.81246924
v -0.36519325 0.82103890 0.47969383
v 0.25178674 0.87228209 0.49559802
v -0.03174854 1.00491285 -0.04430357
v 0.29700893 0.80925322 -0.52252811
v -0.31514516 0.77548981 -0.52643520
v -0.50522095 0.32876241 -0.82727426
v -0.80833483 0.52781391 -0.30621558
v -1.06752098 0.12082468 -0.02872440
v 0.48877981 0.41301119 0.83911186
v 0.79838991 0.60566562 0.31403816
v -0.50590038 0.17393282 0.79509705
v -0.01448659 0.09514695 1.05787730
v -0.81436568 0.36564720 -0.30202490
v -0.83676362 0.38393244 0.32032534
v 0.00975803 0.08829670 -1.07611692
v -0.53591007 0.17466943 -0.79878485
v 0.80719465 0.56917620 -0.32417902
v 0.51512438 0.34038138 -0.81951326
v 0.80470407 0.22727947 0.26908863
v 0.54001403 0.12546313 0.81926829
v 0.34460700 0.57451671 0.54471695
v -0.24737462 0.66593659 0.54351133
v 0.03867821 0.57006699 0.07421236
v -0.23902658 0.52825606 -0.43393114
v 0.30740002 0.68996036 -0.50625414
v 0.47755417 0.20858313 -0.82923055
v 0.81284612 0.34414196 -0.32603580
v 1.05168986 0.14972025 -0.00766684
v -0.69699878 0.69661248 0.14538319
v -0.61053759 0.68528789 0.40666115
v -0.45460340 0.86396509 0.22981550
v -0.72624165 0.18835203 0.69957930
v -0.71300024 0.43526316 0.59281790
v -0.88841093 0.28050205 0.44587612
v -0.22784071 0.72907758 0.68419260
v -0.47291124 0.59437108 0.68418968
v -0.29616165 0.47179702 0.85707253
v -0.19575091 0.96618634 0.23568745
v -0.28220549 0.95480555 -0.04434033
v 0.11048867 0.74645799 0.71223146
v -0.06189102 0.87080431 0.51793021
v 0.24335831 0.99555498 -0.01991308
v 0.10923485 0.98039311 0.24069872
v 0.38765636 0.91509122 0.24946621
v -0.17772682 0.93147421 -0.31245708
v -0.44630364 0.83261734 -0.29179728
v 0.40903750 0.88370675 -0.27882996
v 0.14814439 0.95237154 -0.29143247
v -0.16169487 0.66358942 -0.70455444
v -0.00872735 0.82780516 -0.55443186
v 0.15922910 0.67785490 -0.71244806
v -0.58477259 0.67443836 -0.43526646
v -0.67749429 0.69583654 -0.16354690
v -0.26420367 0.43503931 -0.87310827
v -0.43599290 0.57648510 -0.70151478
v -0.88973558 0.30723614 -0.46043101
v -0.69538015 0.45783612 -0.61260366
v -0.71521235 0.22640403 -0.72944731
v -0.83591628 0.52386612 -0.00393875
v -1.03637862 0.07233665 -0.27256653
v -0.97502983 0.34018019 -0.19356793
v -0.95990914 0.30151045 0.15848511
v -1.00355053 0.11143393 0.28657237
v 0.55767745 0.76745445 0.42261180
v 0.66153187 0.77817202 0.14448674
v 0.22744104 0.51630419 0.88139349
v 0.38675499 0.67020458 0.68944055
v 0.88263428 0.39321274 0.44977757
v 0.66991931 0.54173386 0.61514312
v 0.72148961 0.30005631 0.72116697
v -0.29570115 0.24536163 0.97816563
v -0.03437778 0.33079559 0.97931445
v -0.72421980 0.09902069 0.70161080
v -0.57076252 0.07032237 0.90414727
v 0.01566022 0.08844772 0.95939499
v -0.29675251 0.00825020 0.97624433
v -0.26644057 0.24644189 0.87263274
v -0.98465252 0.14010885 0.19041234
v -0.86078578 0.11308609 0.42280194
v -0.89591497 0.16842324 -0.40445429
v -0.97318846 0.17628604 -0.14789155
v -0.65150666 0.59277636 0.17109984
v -0.84381193 0.40257025 0.00630933
v -0.67034960 0.57009012 -0.14457239
v -0.56692749 0.08016065 -0.88972199
v -0.75644135 0.05417715 -0.69303370
v -0.01097320 0.31223699 -1.00023448
v -0.27190852 0.17501609 -0.99961257
v -0.29592285 0.34819126 -0.83256274
v -0.28964895 0.11801755 -0.95863080
v -0.03617390 0.14998080 -0.96752983
v 0.42389005 0.59705734 -0.70250469
v 0.27633369 0.44397244 -0.87318051
v 0.66495454 0.76203996 -0.18633497
v 0.57231891 0.70669347 -0.44899726
v 0.73385590 0.24749079 -0.72517532
v 0.69981635 0.46870953 -0.60951436
v 0.87651610 0.34337965 -0.44983181
v 0.74392843 0.43388253 0.16655998
v 0.60788471 0.44583145 0.40886691
v 0.47655481 0.60841268 0.25203222
v 0.72633284 0.00452428 0.71671772
v 0.71274513 0.17584427 0.52779901
v 0.88582563 0.12677810 0.39498311
v 0.23410732 0.50970733 0.70469487
v 0.47289041 0.36516607 0.66396469
v 0.28608501 0.24024145 0.83216923
v 0.23987262 0.75349659 0.29394463
v 0.32031038 0.53062147 0.03614390
v -0.10205606 0.53219068 0.75271285
v 0.05281683 0.67511356 0.55954617
v -0.24878636 0.65041417 0.04742808
v -0.12173966 0.79386699 0.30151421
v -0.37379122 0.74470192 0.27536383
v 0.22823620 0.61192346 -0.26049998
v 0.46143481 0.69067955 -0.25129944
v -0.39895362 0.62737757 -0.24897236
v -0.10429175 0.57823336 -0.18813309
v 0.15610686 0.59924054 -0.67562962
v 0.01879208 0.77179044 -0.48304963
v -0.17509255 0.58912116 -0.65243810
v 0.60964692 0.56317627 -0.43469915
v 0.70758486 0.50496060 -0.15141770
v 0.21647842 0.29582518 -0.85231090
v 0.41197020 0.47459400 -0.69296294
v 0.89815140 0.11033148 -0.47342977
v 0.67099583 0.30265695 -0.61935747
v 0.69815928 0.08269034 -0.73325771
v 0.84908444 0.26707953 -0.03472271
v 1.01736367 0.13865910 -0.30667102
v 0.99929655 0.08092405 -0.18654655
v 0.96496040 0.00000000 0.10643557
v 1.02535486 0.17075080 0.30623171
v 0.33117798 0.00266032 1.00677121
v 0.54900503 0.15934090 0.92269599
v 0.25395373 0.24858883 0.98627084
v -0.54401141 0.59597170 0.44996020
v -0.39260271 0.43138486 0.71318388
v -0.64627230 0.32832137 0.56574202
v -0.43334532 0.45147747 -0.69727826
v -0.57400870 0.51779038 -0.40575898
v -0.68729866 0.26496267 -0.56235969
v 0.55381179 0.09553476 -0.91052973
v 0.22212374 0.01056629 -0.94885844
v 0.28315505 0.21093440 -0.99597633
v 0.97821528 0.39360765 0.16661893
v 0.95213348 0.36401188 -0.16587953
v 0.83142120 0.62760103 -0.01407773
v -0.61536986 0.78110743 0.06504844
v -0.57966661 0.78301257 0.19690663
v -0.49104103 0.86110562 0.10510860
v -0.71463400 0.58714992 0.36341393
v -0.65992832 0.68971586 0.28652799
v -0.76004124 0.59172499 0.22525601
v -0.42091674 0.84519559 0.35784358
v -0.54343832 0.78584570 0.32669669
v -0.49383047 0.76039213 0.45334417
v -0.78559029 0.13186799 0.64050817
v -0.81236970 0.23280787 0.58047754
v -0.89072245 0.16248959 0.50486207
v -0.63098294 0.38776207 0.71186280
v -0.72704917 0.32190341 0.65838277
v -0.63843066 0.26602659 0.77194703
v -0.84748578 0.37994978 0.37383315
v -0.79016256 0.34016830 0.53182226
v -0.77219701 0.46127293 0.45449165
v -0.13137023 0.66424215 0.75972188
v -0.26198557 0.60709667 0.78446060
v -0.16246773 0.53967124 0.85777020
v -0.42019084 0.72108269 0.59011358
v -0.34849170 0.66742778 0.68714362
v -0.30344537 0.77691180 0.58960986
v -0.42114007 0.39772418 0.83514094
v -0.39042360 0.53658050 0.78267926
v -0.51175338 0.47194687 0.75800484
v -0.66597730 0.57004064 0.50005251
v -0.60991699 0.52474189 0.63802534
v -0.54519075 0.65297294 0.55184776
v -0.37379968 0.92183578 0.09332261
v -0.41362983 0.90911168 -0.04364868
v -0.28245887 0.90575075 0.36425585
v -0.33028048 0.92856508 0.24157329
v -0.15760538 0.98858631 -0.04895969
v -0.24472180 0.96342218 0.09679579
v -0.12205643 0.99386150 0.09538370
v 0.03987392 0.67101419 0.78778189
v -0.06255469 0.74474025 0.70771772
v 0.09908117 0.87989926 0.51742178
v 0.02100113 0.81502479 0.62361562
v 0.18200924 0.81593484 0.61249149
v -0.14643836 0.80996400 0.61392373
v -0.21874034 0.85452884 0.50624716
v 0.37621829 0.95196831 -0.02578780
v 0.32075733 0.96201205 0.10849972
v 0.44570965 0.91332674 0.11716347
v 0.03554880 1.00615764 0.10243388
v 0.17682615 1.00165653 0.11239542
v 0.10559764 1.00990760 -0.03066586
v 0.32741189 0.90175605 0.37716836
v 0.25586724 0.95550054 0.24240766
v 0.18676722 0.93856728 0.37322736
v -0.13280094 0.92690945 0.38861531
v 0.02743604 0.93896496 0.38965827
v -0.04834101 0.97374004 0.24405299
v -0.37212434 0.91064310 -0.17086346
v -0.49791098 0.84818941 -0.16231476
v -0.09887969 0.98456401 -0.18756893
v -0.23344670 0.95479918 -0.18165755
v -0.38219205 0.80383319 -0.41288501
v -0.31932279 0.88682985 -0.30435887
v -0.24616575 0.85637826 -0.42031944
v 0.46675703 0.89599609 -0.15756737
v 0.33354041 0.95126855 -0.15406206
v 0.22455624 0.89432639 -0.41290081
v 0.27878717 0.92956883 -0.28647625
v 0.36199537 0.85645694 -0.40620598
v 0.20029303 0.98272890 -0.15742970
v 0.06113041 0.99405968 -0.17265767
v -0.07924950 0.59730262 -0.78705901
v 0.00446976 0.67864472 -0.72383255
v 0.08762073 0.60869008 -0.79948151
v -0.16486290 0.80719799 -0.54811472
v -0.09275214 0.74825782 -0.64224470
v -0.24533328 0.72366673 -0.62944996
v 0.22495636 0.75461572 -0.62761170
v 0.06611890 0.75220615 -0.64230394
v 0.14713255 0.82882798 -0.54888886
v -0.01512113 0.96071464 -0.30923948
v 0.07003475 0.90055645 -0.43526959
v -0.09207796 0.89077741 -0.43499821
v -0.57521367 0.77144653 -0.23194799
v -0.61677784 0.76881468 -0.08968879
v -0.45753670 0.73519510 -0.48420754
v -0.52262813 0.76343727 -0.36514139
v -0.73995066 0.62279141 -0.24116832
v -0.64004076 0.69522262 -0.30667561
v -0.70097691 0.60371554 -0.37979931
v -0.13302876 0.49145499 -0.87446719
v -0.21561538 0.56256557 -0.80021244
v -0.46890351 0.45821762 -0.78074867
v -0.35203761 0.51379353 -0.79510403
v -0.38966933 0.39100626 -0.85828763
v -0.29995257 0.61456132 -0.71593112
v -0.37476045 0.68343759 -0.61980712
v -0.89613563 0.21433318 -0.52350748
v -0.81501126 0.27297094 -0.61195791
v -0.81944454 0.14381488 -0.65859956
v -0.76519769 0.48756978 -0.46329793
v -0.80037487 0.39598721 -0.53856868
v -0.85181451 0.42431501 -0.37974459
v -0.60856193 0.27806172 -0.78526157
v -0.71394092 0.34171396 -0.67697996
v -0.60761124 0.40320039 -0.73138368
v -0.51256496 0.64159942 -0.58384353
v -0.57598466 0.52318883 -0.67402524
v -0.64781404 0.56394655 -0.52942491
v -0.70347875 0.69798064 -0.00654474
v -0.82106674 0.54848927 -0.15861203
v -0.76752704 0.61566204 -0.08368000
v -0.77397865 0.60340220 0.07536092
v -0.83567005 0.51302183 0.15988950
v -0.99990922 0.08594198 -0.40765536
v -0.98791528 0.20639572 -0.39109597
v -1.03322423 0.24810639 -0.11282431
v -1.02368319 0.22528073 -0.25187582
v -1.03317094 0.13323675 -0.16092607
v -0.93607438 0.31893590 -0.34425247
v -0.89395583 0.43330055 -0.24265969
v -0.95658225 0.18200359 0.37179998
v -0.97215897 0.06748056 0.43999824
v -0.88825363 0.39408648 0.23876521
v -0.91181993 0.28390327 0.30450186
v -1.05062032 0.09459671 0.12682763
v -0.99230844 0.19100885 0.21541274
v -1.01941466 0.21814334 0.06130850
v -0.90691179 0.44357491 -0.09149095
v -0.97754431 0.33735612 -0.01299690
v -0.91085827 0.41783369 0.08015615
v 0.53393763 0.86077529 0.20785125
v 0.58073223 0.84360951 0.06589969
v 0.41083360 0.83181071 0.46271122
v 0.47843134 0.84792459 0.34223413
v 0.74298930 0.69801176 0.22745708
v 0.61776453 0.78429198 0.28692728
v 0.68430340 0.70052332 0.36993924
v 0.09594087 0.54856914 0.87264723
v 0.17891519 0.63029152 0.80254012
v 0.44246575 0.54937810 0.78407669
v 0.31156075 0.60115659 0.79646724
v 0.35577860 0.47211206 0.87198246
v 0.24970207 0.71261317 0.69906682
v 0.32469803 0.78026539 0.59370410
v 0.88743258 0.26061046 0.50370073
v 0.80415261 0.34401172 0.58444136
v 0.81586277 0.21626374 0.65030706
v 0.74579704 0.57993394 0.46611622
v 0.77997530 0.47477391 0.53751779
v 0.84871703 0.50448179 0.39162537
v 0.60486770 0.35939297 0.77766967
v 0.70013642 0.41425300 0.65172839
v 0.59011722 0.48460564 0.73567188
v 0.47561735 0.73373890 0.55860573
v 0.53026366 0.61683989 0.65739512
v 0.62562734 0.65953368 0.52297616
v -0.17623824 0.43212384 0.92261600
v -0.04285385 0.45822266 0.91021746
v -0.42737737 0.28695568 0.90612280
v -0.30838618 0.35424134 0.91083699
v -0.01289724 0.22228427 1.03649390
v -0.16680937 0.30112955 0.97960204
v -0.16539012 0.18773584 1.04504442
v -0.82251209 0.00408261 0.63737494
v -0.74708110 0.04676847 0.75473940
v -0.52800119 0.08323174 0.83829457
v -0.65479887 0.01297153 0.81190103
v -0.61536443 0.14479844 0.73930025
v -0.66796660 0.12758313 0.81985492
v -0.55456823 0.20301676 0.86722857
v 0.02676689 0.20106734 0.90500039
v -0.12897040 0.16206521 0.92288375
v -0.11125270 0.28958419 0.88181883
v -0.16002697 0.04907585 1.06599295
v -0.13709514 0.04191691 0.98635185
v 0.02771458 0.00668016 1.04759896
v -0.40586996 0.20995311 0.86258465
v -0.26383543 0.12515077 0.91058564
v -0.40114757 0.11000005 0.90806848
v -0.43252152 0.16572855 0.94994962
v -0.43061376 0.01892939 0.95486581
v -0.29343101 0.10824788 1.01833177
v -0.99454129 0.03114548 0.35513112
v -0.89431173 0.00000000 0.49812016
v -1.03311622 0.11557025 0.04316282
v -1.02255094 0.03674952 0.22398606
v -0.83925152 0.26060188 0.38490433
v -0.95276695 0.18702625 0.32344934
v -0.92230171 0.25735149 0.24773420
v -0.90931982 0.11065611 -0.48252848
v -0.96743625 0.13362648 -0.35222739
v -0.89759409 0.26109132 -0.24497011
v -0.93098611 0.19785376 -0.27819729
v -0.85572881 0.26288053 -0.37998211
v -0.99369586 0.11606311 -0.20944376
v -1.04184687 0.05842381 -0.08409809
v -0.60425889 0.69683003 0.09040815
v -0.67049015 0.59839171 0.00415465
v -0.58475918 0.67277759 -0.06718526
v -0.81270862 0.37563032 0.18665978
v -0.74385744 0.49908414 0.10265880
v -0.73423392 0.48436230 0.24814838
v -0.76072490 0.44850117 -0.20749338
v -0.75778782 0.48366383 -0.05394135
v -0.83249032 0.35865808 -0.13227560
v -0.97020257 0.14945687 0.03456830
v -0.89803332 0.27052879 -0.06385826
v -0.90517056 0.26237127 0.09206094
v -0.76250029 0.09081797 -0.73729134
v -0.85453230 0.00217314 -0.63283563
v -0.53586447 0.19316958 -0.86819905
v -0.64411449 0.12968735 -0.78941703
v -0.64424402 0.10066148 -0.74366432
v -0.67266667 0.00369681 -0.80106401
v -0.56911600 0.03135873 -0.84204823
v 0.00188741 0.42292002 -0.93406558
v -0.13759783 0.37656590 -0.95650035
v -0.14911366 0.12802464 -1.05580592
v -0.13773978 0.23898079 -1.01071203
v 0.00567880 0.20350377 -1.05503309
v -0.25693232 0.30547664 -0.93635243
v -0.37795463 0.27537757 -0.90796804
v -0.17017543 0.39042825 -0.85101122
v -0.15117975 0.26889238 -0.91271061
v -0.03112386 0.29821956 -0.90712363
v -0.42705801 0.12786776 -0.85316449
v -0.29682493 0.20189963 -0.91681272
v -0.42359394 0.25937644 -0.84477085
v -0.05238622 0.01228551 -1.03200197
v -0.14338844 0.11957546 -0.97643900
v -0.16771059 0.01999122 -1.04651737
v -0.41928273 0.16188706 -0.96885800
v -0.29411310 0.04962939 -1.01769865
v -0.43114978 0.03494679 -0.93450958
v 0.22882940 0.56519282 -0.80440021
v 0.14485170 0.49712673 -0.88049543
v 0.35693279 0.71384466 -0.62478960
v 0.29599264 0.64671737 -0.71640575
v 0.40614310 0.41105193 -0.85676092
v 0.36175647 0.52302557 -0.79349560
v 0.48724276 0.48065490 -0.76623040
v 0.58919668 0.83754539 -0.10392474
v 0.55007315 0.82857829 -0.24597287
v 0.69940907 0.65471256 -0.38344795
v 0.62753594 0.73627031 -0.31956092
v 0.74904150 0.67180687 -0.25185171
v 0.49749228 0.80449599 -0.37478423
v 0.44303373 0.77221125 -0.49674541
v 0.79982835 0.14770696 -0.65529293
v 0.80939555 0.28559169 -0.58436728
v 0.89825791 0.21364601 -0.50401914
v 0.61330068 0.41366604 -0.71261775
v 0.72719413 0.35057753 -0.67102212
v 0.61635536 0.31244782 -0.78845835
v 0.84294575 0.45896748 -0.39586580
v 0.78077888 0.42128152 -0.53576553
v 0.75677097 0.53012383 -0.47017482
v 0.49668834 0.66485679 -0.58597803
v 0.64080375 0.59065151 -0.52279544
v 0.57230115 0.54741073 -0.65232396
v 0.64901906 0.53856915 0.09879111
v 0.61821806 0.54631537 0.23028561
v 0.47685891 0.55209732 0.12293625
v 0.70859736 0.34061456 0.37081745
v 0.67130536 0.44765648 0.29605025
v 0.75194418 0.32945293 0.22113095
v 0.42075953 0.59703374 0.42358354
v 0.55136424 0.54290754 0.36350697
v 0.48745319 0.52441776 0.47488889
v 0.84074092 0.05360084 0.65736127
v 0.79408556 0.09283108 0.56371939
v 0.91826749 0.01370086 0.48621750
v 0.62867284 0.15155682 0.66824090
v 0.71586055 0.10159401 0.62349552
v 0.66121912 0.06662693 0.75659519
v 0.84636903 0.10094320 0.33133456
v 0.79020751 0.06448383 0.45003623
v 0.75958520 0.19408149 0.39577326
v 0.13072571 0.42888305 0.80462819
v 0.26389831 0.34903407 0.79259014
v 0.14191799 0.28456637 0.88699967
v 0.40917200 0.48151749 0.59125137
v 0.35576797 0.42966852 0.71890235
v 0.31749567 0.54939926 0.62848848
v 0.41701663 0.21733724 0.84327757
v 0.39653921 0.29349735 0.74856991
v 0.50213397 0.25069278 0.73737413
v 0.65970606 0.30385885 0.47536629
v 0.58779126 0.26767424 0.60170138
v 0.55873072 0.40266019 0.52322787
v 0.42257401 0.68184757 0.14389883
v 0.42274258 0.57222533 0.03298334
v 0.28470814 0.65239990 0.42310733
v 0.36695376 0.67581815 0.29727501
v 0.17355567 0.54804045 0.05439665
v 0.27924481 0.68531007 0.14182706
v 0.12267749 0.64103919 0.18284312
v -0.05723658 0.42309812 0.83349812
v 0.06298079 0.50073332 0.75630516
v -0.11612374 0.67387623 0.54795414
v -0.02482568 0.62591088 0.67759424
v -0.19908132 0.58287841 0.66006780
v 0.13037047 0.60151583 0.64770263
v 0.21422550 0.63274270 0.56663275
v -0.41128013 0.66151184 0.04104628
v -0.33321306 0.79910445 0.15929332
v -0.45610422 0.77560753 0.13885425
v -0.05589203 0.66464341 0.17696953
v -0.18234205 0.79593384 0.16860162
v -0.12102395 0.63149059 0.06321212
v -0.29904041 0.74057627 0.43672130
v -0.25945720 0.75391483 0.30882016
v -0.17804056 0.74891180 0.43746939
v 0.13907683 0.71304053 0.43361738
v -0.03790286 0.75009173 0.43579683
v 0.05746260 0.63902587 0.33023891
v 0.37580648 0.65170074 -0.13866161
v 0.50019401 0.66342115 -0.10356309
v 0.11261281 0.57306063 -0.09708575
v 0.25820416 0.56171429 -0.11075871
v 0.39344665 0.70763338 -0.38974410
v 0.36734885 0.74276453 -0.26395479
v 0.28721133 0.75850379 -0.38317773
v -0.43729547 0.71336305 -0.15193528
v -0.34119302 0.60781634 -0.09466085
v -0.16589580 0.50507295 -0.31635997
v -0.23984236 0.59112692 -0.23006646
v -0.35228768 0.55982852 -0.38533872
v -0.18819723 0.59475714 -0.09670332
v -0.02985544 0.66810906 -0.05173629
v 0.06976968 0.53553456 -0.77109718
v -0.02039355 0.61450082 -0.69251561
v -0.08760145 0.52118891 -0.75611323
v 0.19273332 0.73274058 -0.52305424
v 0.07831094 0.69343919 -0.58746016
v 0.25749940 0.64747190 -0.60873103
v -0.15605354 0.52710533 -0.57624847
v -0.08940149 0.71163273 -0.59130782
v -0.06920095 0.60244268 -0.45886478
v 0.08470831 0.59411418 -0.23212327
v 0.00397351 0.59415746 -0.35562903
v 0.11607968 0.73312342 -0.36261931
v 0.60082430 0.61104643 -0.20281793
v 0.61565119 0.54368442 -0.04201927
v 0.46540704 0.62928379 -0.46724638
v 0.53079033 0.62885815 -0.35169345
v 0.76876181 0.44189748 -0.24280117
v 0.67312247 0.50017732 -0.30148014
v 0.71244007 0.41794413 -0.39508075
v 0.11007547 0.37224352 -0.85779917
v 0.19161479 0.44591129 -0.78108561
v 0.44839826 0.33392325 -0.76912075
v 0.32533231 0.38922635 -0.79445666
v 0.34731942 0.28393772 -0.87152570
v 0.28630179 0.52647305 -0.68904859
v 0.38782313 0.60724479 -0.59940541
v 0.91899252 0.00000000 -0.50587827
v 0.81844532 0.06896947 -0.61358738
v 0.81558084 0.01889336 -0.67591691
v 0.74691719 0.27879283 -0.47494876
v 0.80444604 0.18364556 -0.55534106
v 0.85896790 0.23210797 -0.39175403
v 0.61700195 0.18324444 -0.78639871
v 0.73691630 0.18220791 -0.65666980
v 0.59866565 0.27891099 -0.73462856
v 0.52875179 0.52276915 -0.56342834
v 0.53009331 0.40602449 -0.67332757
v 0.64721805 0.42564699 -0.52568883
v 0.71007246 0.46423730 0.01002396
v 0.83921188 0.33074749 -0.17582914
v 0.76817203 0.39171460 -0.07764163
v 0.79441416 0.33994696 0.07880879
v 0.84323394 0.21753891 0.12381846
v 0.97455710 0.13009389 -0.42597505
v 0.99289840 0.00003788 -0.38692787
v 1.06555676 0.02270081 -0.09557265
v 1.02784944 0.01083226 -0.24384452
v 1.04152977 0.13357173 -0.15864511
v 0.96873492 0.10076256 -0.33538938
v 0.90722620 0.21743321 -0.27694297
v 0.98295647 0.01566210 0.35206082
v 0.96162778 0.15108183 0.42242622
v 0.87872124 0.08206706 0.19288255
v 0.92771250 0.01025610 0.27621853
v 1.04266846 0.16846398 0.14529030
v 1.01010561 0.05733435 0.21698768
v 1.05173635 0.04139806 0.07550139
v 0.91623354 0.17016864 -0.12040837
v 0.98840922 0.01178844 -0.07022955
v 0.91378391 0.13160740 0.02766524
v 0.16259316 0.16594237 0.95453471
v 0.43708959 0.11418416 0.90895045
v 0.29064584 0.13459404 0.93264771
v 0.18821010 0.04765504 1.01364458
v 0.17287369 0.00091928 1.06340814
v 0.75066996 0.14991795 0.75503528
v 0.52449203 0.28463891 0.88918608
v 0.64441407 0.22753996 0.83353955
v 0.65444911 0.06178957 0.84265536
v 0.59457541 0.01813466 0.88330787
v 0.09382499 0.43571258 0.94624591
v 0.13516641 0.13853821 1.02909935
v 0.11845136 0.28554836 0.99740857
v 0.22673494 0.38353178 0.94431162
v 0.37588856 0.33691332 0.91138917
v 0.46664327 0.06644820 0.97666907
v 0.40603563 0.19896969 0.97188789
v 0.29952252 0.09518729 1.03561413
v -0.53708541 0.71163440 0.24033974
v -0.39090165 0.65383804 0.51261389
v -0.45500180 0.69844002 0.37391821
v -0.61162156 0.59546781 0.31601644
v -0.67998242 0.48448730 0.36243993
v -0.18126313 0.39031556 0.81195951
v -0.45642063 0.30287668 0.75631517
v -0.33753800 0.32882383 0.80759823
v -0.27511778 0.46287960 0.73071188
v -0.33628494 0.57538074 0.63271403
v -0.81035435 0.11456688 0.54343116
v -0.72592545 0.35613519 0.43691254
v -0.76198512 0.23525320 0.48021096
v -0.71181566 0.19005291 0.60934627
v -0.57828921 0.22959732 0.69333202
v -0.47438481 0.52666807 0.58121014
v -0.52534318 0.37509140 0.63824970
v -0.62227905 0.48140839 0.51837927
v -0.22778781 0.49265686 -0.78229260
v -0.32814151 0.56773680 -0.57514971
v -0.29973704 0.49794266 -0.67485839
v -0.36991856 0.39163870 -0.78020561
v -0.50760972 0.31796253 -0.75139678
v -0.55613530 0.64536595 -0.20863970
v -0.72006041 0.43292996 -0.35671365
v -0.65188491 0.53995824 -0.27552444
v -0.50053155 0.63246328 -0.33429003
v -0.42526680 0.59193993 -0.45349139
v -0.83302599 0.12296356 -0.57297724
v -0.61700207 0.22586778 -0.68219858
v -0.73119807 0.15052514 -0.62782705
v -0.78920251 0.20416415 -0.49349377
v -0.76823676 0.31277189 -0.45581463
v -0.49942023 0.46309808 -0.53578341
v -0.63594794 0.38690767 -0.49685159
v -0.55168366 0.35998547 -0.63068616
v 0.73925430 0.10815536 -0.76265639
v 0.51705897 0.08828124 -0.87143767
v 0.63657737 0.02054308 -0.81511825
v 0.65871620 0.17303458 -0.81374055
v 0.54618001 0.21974967 -0.86681908
v 0.06667294 0.22414024 -0.91483879
v 0.10813862 0.00000447 -1.03889263
v 0.08590098 0.06990299 -0.93808401
v 0.21604674 0.17360222 -0.90653998
v 0.34427091 0.11187590 -0.88246286
v 0.13321608 0.38043424 -0.94240946
v 0.39347234 0.28680518 -0.91757244
v 0.27952316 0.33985525 -0.93929201
v 0.13557044 0.26197994 -1.00597072
v 0.14052850 0.15580398 -1.05780661
v 0.40128088 0.00088286 -0.93971211
v 0.26868707 0.07768907 -1.02299201
v 0.42947495 0.14405170 -0.94622904
v 0.97572607 0.28367624 0.37830302
v 1.02373290 0.27408147 0.08464921
v 1.02774012 0.28681943 0.23607942
v 0.95241988 0.41087586 0.31032574
v 0.90978855 0.50521070 0.24655524
v 0.95808047 0.25237441 -0.36499694
v 0.89139658 0.47355831 -0.25211430
v 0.93224853 0.36542436 -0.30762482
v 1.01636171 0.25268331 -0.22128041
v 1.02488267 0.25771782 -0.08870661
v 0.67313564 0.77333313 -0.02081607
v 0.82846349 0.62693161 0.15418245
v 0.75885558 0.70315009 0.06608620
v 0.75595605 0.69694579 -0.10409337
v 0.83528817 0.60296041 -0.17165087
v 0.97569972 0.39354300 -0.00556159
v 0.90841752 0.50850946 -0.08829252
v 0.91489536 0.52666378 0.08518675
f 330 87 329
f 336 325 26
f 207 208 56
f 464 36 580
f 502 129 504
f 157 624 622
f 308 311 82
f 247 223 248
f 507 483 508
f 331 88 329
f 494 500 497
f 156 601 602
f 591 589 592
f 365 98 596
f 75 281 282
f 152 587 577
f 149 559 560
f 555 121 553
f 530 141 529
f 515 517 139
f 361 594 98
f 250 67 249
f 157 608 609
f 294 293 209
f 317 81 316
f 557 338 26
f 303 305 81
f 530 529 528
f 101 381 382
f 415 418 111
f 192 184 50
f 412 110 411
f 20 384 256
f 131 594 486
f 281 264 282
f 347 287 348
f 28 349 582
f 165 163 1
f 248 250 66
f 617 107 398
f 273 271 274
f 456 115 453
f 558 561 560
f 335 576 91
f 331 177 332
f 116 433 436
f 351 370 92
f 136 511 530
f 239 240 65
f 247 258 19
f 304 23 567
f 148 557 570
f 214 208 58
f 440 426 450
f 268 270 269
f 258 247 268
f 204 202 16
f 466 125 465
f 517 513 133
f 168 275 274
f 275 73 274
f 198 193 53
f 309 308 307
f 510 511 136
f 415 416 110
f 131 490 597
f 473 475 474
f 414 415 111
f 493 495 494
f 496 504 485
f 433 116 432
f 600 375 601
f 240 234 65
f 418 415 412
f 486 361 3
f 567 566 304
f 380 393 29
f 17 199 197
f 491 492 132
f 451 449 435
f 218 217 216
f 623 621 613
f 396 104 395
f 433 439 436
f 628 160 627
f 215 202 217
f 209 207 2
f 427 113 424
f 434 10 544
f 434 433 432
f 199 17 210
f 150 564 565
f 489 491 132
f 275 13 285
f 497 500 134
f 125 466 476
f 578 152 577
f 208 214 211
f 328 88 343
f 356 27 603
f 150 566 567
f 372 100 371
f 190 191 47
f 235 8 398
f 260 261 72
f 422 403 414
f 422 414 111
f 453 454 123
f 349 583 582
f 521 520 519
f 425 453 115
f 616 622 158
f 483 130 508
f 151 586 572
f 212 17 232
f 400 397 402
f 377 396 99
f 41 522 511
f 510 508 505
f 549 547 42
f 475 473 36
f 510 137 509
f 222 221 197
f 430 115 429
f 220 194 1
f 305 54 204
f 621 29 613
f 192 171 184
f 460 335 5
f 88 331 332
f 74 277 279
f 300 301 80
f 390 389 388
f 165 45 164
f 146 549 551
f 291 278 75
f 448 120 445
f 147 543 544
f 607 610 609
f 603 602 356
f 139 529 514
f 333 553 443
f 92 368 347
f 261 260 259
f 300 6 200
f 46 177 331
f 284 283 174
f 301 300 200
f 471 468 474
f 54 305 301
f 302 304 303
f 569 150 567
f 150 569 570
f 294 209 2
f 628 629 160
f 548 543 147
f 147 625 627
f 63 233 234
f 426 427 114
f 41 509 532
f 198 52 196
f 614 105 612
f 147 627 547
f 81 305 306
f 549 548 547
f 54 301 200
f 342 88 332
f 264 281 70
f 193 194 53
f 455 429 456
f 187 321 14
f 479 130 484
f 147 544 625
f 458 456 453
f 304 80 303
f 314 84 313
f 488 503 501
f 321 332 14
f 423 425 424
f 305 204 306
f 341 339 25
f 514 40 516
f 625 628 627
f 340 339 341
f 105 614 391
f 243 228 62
f 318 316 78
f 75 278 279
f 357 355 353
f 238 257 63
f 466 455 476
f 425 423 4
f 448 449 120
f 408 638 108
f 292 275 285
f 22 278 289
f 515 513 517
f 501 503 134
f 622 623 158
f 134 503 504
f 195 216 206
f 163 271 246
f 619 617 620
f 62 228 229
f 163 165 164
f 453 425 454
f 489 132 488
f 82 628 625
f 58 208 209
f 525 608 40
f 626 547 627
f 518 517 498
f 489 487 491
f 557 26 564
f 325 336 344
f 541 145 539
f 40 616 516
f 338 556 89
f 250 248 245
f 139 514 515
f 98 594 596
f 246 220 1
f 112 413 630
f 9 536 413
f 156 600 601
f 332 177 14
f 321 342 332
f 156 606 600
f 584 330 585
f 302 303 81
f 584 87 330
f 330 25 585
f 400 239 65
f 439 440 117
f 95 358 368
f 597 594 131
f 594 361 486
f 246 67 245
f 561 562 149
f 28 364 362
f 55 216 217
f 427 430 114
f 267 20 254
f 556 555 553
f 84 309 558
f 311 310 312
f 609 525 142
f 256 68 255
f 124 460 461
f 82 311 312
f 307 308 82
f 589 135 495
f 527 40 514
f 112 418 412
f 20 256 254
f 258 238 19
f 267 254 269
f 273 272 249
f 392 391 393
f 137 533 509
f 122 455 456
f 9 413 411
f 130 480 505
f 333 443 5
f 527 525 40
f 589 495 385
f 39 496 485
f 223 225 224
f 414 416 415
f 219 222 53
f 145 538 539
f 413 412 411
f 469 468 467
f 183 181 6
f 191 192 50
f 429 35 431
f 292 285 76
f 413 112 412
f 415 110 412
f 43 164 167
f 467 468 126
f 617 101 620
f 450 451 117
f 438 546 545
f 619 620 159
f 17 212 210
f 124 579 576
f 584 153 583
f 460 124 576
f 3 469 467
f 311 308 314
f 6 320 183
f 389 104 388
f 251 250 249
f 194 165 1
f 291 289 278
f 287 77 348
f 238 258 257
f 139 517 518
f 238 236 19
f 223 247 19
f 382 380 29
f 39 518 498
f 361 359 3
f 69 255 257
f 139 518 528
f 33 545 535
f 387 385 7
f 69 268 269
f 477 462 125
f 454 479 123
f 121 555 447
f 451 435 117
f 454 425 4
f 233 252 8
f 124 463 464
f 69 258 268
f 168 167 166
f 583 153 582
f 384 394 102
f 138 512 513
f 57 210 211
f 254 256 255
f 607 609 142
f 324 319 86
f 289 291 76
f 291 292 76
f 384 102 383
f 422 421 420
f 221 17 197
f 383 102 381
f 376 377 99
f 99 373 374
f 386 105 392
f 438 33 440
f 90 341 343
f 281 75 279
f 574 571 96
f 628 82 312
f 221 222 59
f 127 471 474
f 595 605 603
f 551 538 145
f 334 91 340
f 322 324 85
f 305 303 301
f 18 239 399
f 306 204 16
f 199 198 197
f 166 190 180
f 303 80 301
f 267 266 265
f 626 42 547
f 16 215 213
f 349 351 350
f 295 16 213
f 68 379 252
f 250 251 66
f 627 160 626
f 383 68 256
f 343 88 342
f 507 508 136
f 202 215 16
f 197 198 53
f 254 69 269
f 603 605 156
f 418 419 111
f 384 383 256
f 455 122 476
f 203 204 54
f 556 557 148
f 255 68 253
f 313 84 560
f 25 328 341
f 254 255 69
f 603 156 602
f 581 584 583
f 630 632 112
f 163 246 1
f 246 245 220
f 432 116 558
f 499 591 590
f 320 563 86
f 345 93 350
f 306 16 295
f 346 93 345
f 562 568 149
f 604 605 155
f 154 592 593
f 545 552 535
f 511 522 530
f 574 573 571
f 566 150 565
f 361 98 360
f 67 271 273
f 234 235 65
f 208 211 56
f 574 151 573
f 251 270 66
f 398 8 378
f 213 215 214
f 438 440 439
f 315 314 313
f 263 71 262
f 20 373 384
f 496 134 504
f 329 88 328
f 81 306 316
f 555 556 148
f 592 589 103
f 617 619 107
f 227 207 56
f 571 359 96
f 446 466 465
f 206 216 55
f 359 571 469
f 568 148 570
f 34 437 435
f 28 351 349
f 21 272 282
f 113 423 424
f 490 489 488
f 379 68 383
f 210 212 211
f 80 563 300
f 351 92 350
f 326 346 12
f 83 317 318
f 555 148 554
f 212 231 56
f 218 57 217
f 271 67 246
f 195 196 52
f 270 268 66
f 390 592 103
f 148 568 554
f 495 493 7
f 592 390 593
f 357 95 355
f 574 575 151
f 452 120 451
f 154 591 592
f 587 585 577
f 395 394 396
f 93 349 350
f 610 416 611
f 166 44 190
f 315 23 302
f 315 302 317
f 268 247 66
f 606 154 593
f 396 394 99
f 211 212 56
f 370 369 368
f 235 397 65
f 280 278 22
f 83 315 317
f 575 588 151
f 74 279 280
f 385 495 7
f 63 257 253
f 397 235 398
f 214 58 213
f 220 219 194
f 546 146 545
f 236 225 19
f 599 94 602
f 235 233 8
f 102 394 395
f 611 416 32
f 225 223 19
f 139 528 529
f 231 62 229
f 419 406 421
f 451 450 452
f 49 182 185
f 402 397 107
f 52 199 218
f 416 610 110
f 225 236 244
f 107 397 398
f 68 252 253
f 322 85 321
f 182 181 183
f 118 438 439
f 546 438 118
f 348 77 345
f 543 546 118
f 231 212 232
f 610 611 157
f 33 438 545
f 385 386 103
f 479 480 130
f 169 195 15
f 93 583 349
f 15 195 206
f 190 44 192
f 247 248 66
f 146 552 545
f 248 60 245
f 570 557 564
f 274 271 43
f 63 253 233
f 272 21 249
f 507 528 518
f 67 273 249
f 487 467 126
f 196 195 169
f 624 159 623
f 134 496 497
f 132 503 488
f 104 393 395
f 556 553 89
f 355 356 94
f 258 69 257
f 229 61 227
f 56 231 227
f 460 576 335
f 463 124 461
f 394 373 99
f 29 393 391
f 67 250 245
f 193 198 196
f 462 36 464
f 144 633 630
f 141 526 527
f 517 133 498
f 536 144 630
f 100 372 599
f 144 536 537
f 22 289 287
f 578 579 152
f 579 578 576
f 189 188 187
f 60 223 224
f 92 348 350
f 555 554 447
f 396 377 388
f 194 193 165
f 413 536 630
f 372 352 599
f 377 376 375
f 348 345 350
f 105 386 387
f 240 237 234
f 463 462 464
f 135 500 494
f 45 196 169
f 512 612 387
f 245 60 220
f 429 115 456
f 223 60 248
f 288 289 76
f 525 526 142
f 100 599 601
f 613 29 391
f 526 523 520
f 341 328 343
f 631 641 639
f 264 21 282
f 266 72 265
f 106 402 403
f 73 273 274
f 186 206 205
f 381 379 383
f 52 216 195
f 410 18 399
f 290 272 73
f 72 371 374
f 526 525 527
f 115 430 424
f 498 497 496
f 621 382 29
f 543 118 434
f 214 215 57
f 522 141 530
f 511 510 509
f 352 94 599
f 493 512 7
f 90 340 341
f 169 171 170
f 605 604 606
f 219 60 224
f 104 389 392
f 359 469 3
f 186 49 185
f 222 219 224
f 166 167 44
f 428 427 426
f 523 522 524
f 129 502 481
f 50 185 188
f 164 45 170
f 425 115 424
f 33 428 426
f 427 428 113
f 94 356 602
f 515 138 513
f 114 431 452
f 237 236 238
f 215 217 57
f 95 354 355
f 220 60 219
f 515 514 516
f 183 320 319
f 222 197 53
f 559 569 567
f 300 320 6
f 435 436 117
f 96 360 363
f 640 642 641
f 242 243 62
f 140 537 519
f 508 130 505
f 420 410 399
f 537 539 144
f 317 316 318
f 426 114 450
f 186 15 206
f 311 83 310
f 625 544 307
f 544 10 307
f 168 43 167
f 185 182 188
f 369 354 95
f 44 171 192
f 605 606 156
f 548 549 146
f 100 601 375
f 149 568 569
f 381 380 382
f 455 466 35
f 480 479 454
f 543 548 546
f 493 133 513
f 492 472 37
f 477 125 476
f 491 487 126
f 337 336 338
f 588 153 587
f 576 578 91
f 633 161 632
f 96 359 360
f 39 485 483
f 101 617 378
f 193 45 165
f 163 164 43
f 618 624 611
f 507 136 528
f 561 149 560
f 641 162 639
f 116 561 558
f 494 133 493
f 253 252 233
f 63 237 238
f 392 393 104
f 440 450 117
f 93 581 583
f 386 385 387
f 120 449 451
f 421 422 111
f 486 3 467
f 302 81 317
f 633 632 630
f 462 475 36
f 376 99 374
f 489 490 131
f 447 449 448
f 387 612 105
f 106 420 399
f 173 46 172
f 492 491 472
f 316 306 295
f 22 287 347
f 109 410 420
f 507 39 483
f 559 23 313
f 214 57 211
f 196 45 193
f 10 434 432
f 422 106 403
f 626 160 640
f 487 486 467
f 542 41 532
f 400 106 399
f 444 120 452
f 198 199 52
f 475 127 474
f 621 620 382
f 621 623 159
f 450 114 452
f 92 347 348
f 376 100 375
f 434 118 433
f 503 132 502
f 337 90 336
f 537 536 519
f 395 393 380
f 201 54 200
f 171 44 170
f 355 94 353
f 58 296 213
f 422 420 106
f 595 365 596
f 569 568 570
f 523 140 520
f 114 430 431
f 218 210 57
f 304 566 80
f 639 162 638
f 261 371 72
f 548 147 547
f 498 133 497
f 150 570 564
f 222 224 59
f 142 526 520
f 437 436 435
f 141 522 523
f 137 510 505
f 173 179 176
f 559 149 569
f 121 447 448
f 563 320 300
f 102 395 380
f 257 255 253
f 642 162 641
f 83 311 314
f 216 52 218
f 512 493 513
f 23 304 302
f 91 339 340
f 512 138 612
f 159 620 621
f 218 199 210
f 364 28 575
f 83 318 310
f 168 274 43
f 136 530 528
f 140 523 524
f 495 135 494
f 233 235 234
f 566 563 80
f 25 339 577
f 277 74 276
f 475 462 477
f 133 494 497
f 436 437 116
f 389 386 392
f 548 146 546
f 441 460 5
f 10 309 307
f 65 397 400
f 543 434 544
f 640 641 161
f 272 273 73
f 581 93 346
f 419 421 111
f 319 320 86
f 180 179 178
f 127 475 477
f 231 229 227
f 337 334 340
f 136 508 510
f 308 309 84
f 237 63 234
f 447 554 34
f 252 379 378
f 315 83 314
f 608 622 616
f 338 336 26
f 337 338 89
f 13 275 168
f 209 208 207
f 436 439 117
f 628 312 629
f 360 366 363
f 364 574 96
f 359 361 360
f 466 446 35
f 500 501 134
f 406 109 421
f 135 589 591
f 601 599 602
f 340 90 337
f 481 492 37
f 522 41 524
f 78 316 295
f 131 486 487
f 403 32 414
f 634 626 640
f 151 572 573
f 515 516 138
f 8 252 378
f 265 72 374
f 9 521 519
f 538 549 42
f 368 358 347
f 588 587 586
f 458 453 123
f 589 385 103
f 502 492 481
f 32 416 414
f 430 427 424
f 153 585 587
f 540 144 539
f 370 368 92
f 209 293 58
f 428 33 535
f 326 581 346
f 625 307 82
f 575 28 582
f 6 181 200
f 421 109 420
f 553 121 443
f 160 642 640
f 153 584 585
f 309 432 558
f 334 337 89
f 23 315 313
f 271 163 43
f 296 295 213
f 39 498 496
f 118 439 433
f 531 113 534
f 293 296 58
f 28 362 351
f 489 131 487
f 431 444 452
f 84 558 560
f 98 366 360
f 45 169 170
f 379 101 378
f 462 463 125
f 308 84 314
f 10 432 309
f 299 24 310
f 132 492 502
f 512 387 7
f 639 638 408
f 565 323 86
f 59 244 242
f 106 400 402
f 440 33 426
f 566 565 563
f 617 398 378
f 224 225 59
f 410 109 409
f 239 400 399
f 194 219 53
f 358 22 347
f 610 157 609
f 27 595 603
f 479 484 482
f 142 520 521
f 585 25 577
f 339 578 577
f 408 407 406
f 407 109 406
f 31 408 406
f 407 408 108
f 31 639 408
f 419 31 406
f 608 616 40
f 430 429 431
f 455 35 429
f 35 444 431
f 188 51 187
f 188 182 51
f 51 322 187
f 322 51 319
f 51 182 183
f 319 51 183
f 187 322 321
f 322 319 324
f 381 101 379
f 405 407 108
f 404 405 108
f 286 285 178
f 407 405 409
f 109 407 409
f 191 175 47
f 167 164 170
f 50 184 185
f 44 167 170
f 64 244 236
f 243 244 64
f 50 188 189
f 541 542 145
f 442 445 119
f 339 91 578
f 445 446 119
f 624 623 622
f 611 624 157
f 523 526 141
f 141 527 529
f 527 514 529
f 445 120 444
f 446 445 444
f 35 446 444
f 613 614 158
f 158 614 615
f 623 613 158
f 614 613 391
f 614 612 615
f 371 376 374
f 100 376 371
f 479 482 123
f 373 394 384
f 540 42 634
f 633 540 634
f 538 42 540
f 633 634 161
f 161 634 640
f 42 626 634
f 540 633 144
f 557 556 338
f 553 333 89
f 262 21 264
f 251 21 262
f 5 335 333
f 270 251 262
f 21 251 249
f 600 593 30
f 606 593 600
f 600 30 375
f 593 390 30
f 30 377 375
f 390 388 30
f 30 388 377
f 228 243 241
f 470 478 459
f 470 127 478
f 127 477 478
f 184 186 185
f 478 477 476
f 122 478 476
f 357 74 280
f 518 39 507
f 344 342 85
f 325 344 85
f 342 344 343
f 85 342 321
f 344 90 343
f 90 344 336
f 482 129 481
f 482 481 457
f 482 457 123
f 481 37 457
f 449 447 34
f 435 449 34
f 470 472 471
f 472 470 37
f 470 471 127
f 472 126 471
f 126 468 471
f 470 459 37
f 491 126 472
f 504 129 485
f 221 59 242
f 125 463 465
f 437 34 562
f 561 437 562
f 554 568 562
f 34 554 562
f 437 561 116
f 390 103 389
f 103 386 389
f 392 105 391
f 572 586 580
f 572 580 36
f 586 152 580
f 473 572 36
f 244 243 242
f 225 244 59
f 64 240 241
f 240 239 241
f 237 240 64
f 243 64 241
f 236 237 64
f 411 607 521
f 9 411 521
f 110 607 411
f 607 142 521
f 610 607 110
f 171 15 184
f 171 169 15
f 15 186 184
f 87 584 581
f 153 588 582
f 588 575 582
f 381 102 380
f 573 572 473
f 468 469 128
f 474 468 128
f 469 571 128
f 571 573 128
f 573 473 128
f 473 474 128
f 564 323 565
f 26 323 564
f 323 324 86
f 325 323 26
f 325 324 323
f 563 565 86
f 324 325 85
f 410 230 18
f 230 228 18
f 18 228 241
f 18 241 239
f 401 619 618
f 401 402 107
f 403 402 401
f 619 159 618
f 401 618 32
f 619 401 107
f 403 401 32
f 618 611 32
f 159 624 618
f 478 122 459
f 122 458 459
f 37 459 457
f 459 458 457
f 122 456 458
f 457 458 123
f 191 190 192
f 485 129 484
f 129 482 484
f 483 485 484
f 130 483 484
f 189 187 14
f 191 50 189
f 191 189 175
f 189 14 175
f 14 177 175
f 499 501 500
f 501 499 38
f 38 499 590
f 135 499 500
f 488 501 38
f 499 135 591
f 480 454 4
f 284 12 346
f 4 423 506
f 480 4 506
f 423 531 506
f 480 506 505
f 531 137 506
f 506 137 505
f 365 366 98
f 71 270 262
f 270 71 269
f 71 267 269
f 335 334 333
f 333 334 89
f 334 335 91
f 536 9 519
f 465 463 461
f 537 140 541
f 520 140 519
f 119 446 465
f 465 461 119
f 461 441 119
f 460 441 461
f 176 46 173
f 299 297 24
f 71 263 266
f 263 260 266
f 260 72 266
f 263 70 260
f 205 201 49
f 201 181 49
f 186 205 49
f 181 201 200
f 181 182 49
f 284 77 283
f 586 587 152
f 588 586 151
f 20 267 265
f 266 267 71
f 31 417 631
f 631 417 632
f 31 631 639
f 417 31 419
f 641 631 161
f 417 112 632
f 161 631 632
f 418 417 419
f 417 418 112
f 284 345 77
f 542 550 145
f 542 541 524
f 284 174 12
f 48 174 283
f 373 20 265
f 373 265 374
f 609 608 525
f 608 157 622
f 560 559 313
f 636 637 162
f 541 140 524
f 41 542 524
f 358 357 280
f 70 263 264
f 263 262 264
f 176 177 46
f 174 48 173
f 174 173 172
f 538 551 549
f 538 540 539
f 537 541 539
f 232 221 242
f 17 221 232
f 232 242 62
f 231 232 62
f 203 205 55
f 203 55 202
f 201 205 203
f 202 55 217
f 205 206 55
f 204 203 202
f 73 275 292
f 292 290 73
f 272 290 282
f 290 292 291
f 75 290 291
f 290 75 282
f 70 277 259
f 277 70 281
f 277 281 279
f 260 70 259
f 12 174 172
f 104 396 388
f 367 27 354
f 365 27 367
f 354 27 356
f 365 367 366
f 595 27 365
f 318 299 310
f 155 596 597
f 155 597 598
f 596 594 597
f 595 596 155
f 605 595 155
f 180 47 179
f 180 190 47
f 352 372 11
f 11 372 261
f 312 310 24
f 642 636 162
f 636 297 637
f 367 369 97
f 366 367 97
f 369 367 354
f 369 370 97
f 580 579 464
f 580 152 579
f 579 124 464
f 61 230 409
f 230 410 409
f 230 61 229
f 230 229 228
f 76 285 286
f 353 352 276
f 74 353 276
f 288 76 286
f 288 286 283
f 289 288 287
f 203 54 201
f 287 288 77
f 77 288 283
f 286 48 283
f 531 423 113
f 276 11 259
f 11 261 259
f 277 276 259
f 616 158 615
f 516 616 615
f 138 516 615
f 138 615 612
f 509 533 532
f 503 502 504
f 635 79 294
f 635 294 404
f 635 637 79
f 637 635 638
f 638 635 108
f 635 404 108
f 226 61 405
f 61 226 227
f 405 61 409
f 227 226 207
f 48 178 179
f 48 286 178
f 173 48 179
f 534 143 533
f 534 535 143
f 531 534 533
f 533 143 532
f 137 531 533
f 261 372 371
f 13 180 178
f 285 13 178
f 180 13 166
f 13 168 166
f 346 345 284
f 331 327 46
f 46 327 172
f 172 327 326
f 382 620 101
f 442 121 448
f 443 121 442
f 2 226 404
f 294 2 404
f 404 226 405
f 207 226 2
f 550 551 145
f 552 146 551
f 143 550 532
f 552 550 143
f 330 329 328
f 24 636 629
f 94 352 353
f 352 11 276
f 113 428 534
f 428 535 534
f 509 41 511
f 535 552 143
f 550 552 551
f 550 542 532
f 369 95 368
f 326 327 87
f 87 327 329
f 327 331 329
f 581 326 87
f 293 79 298
f 79 297 298
f 296 298 78
f 79 293 294
f 296 293 298
f 598 490 38
f 358 280 22
f 280 279 278
f 357 358 95
f 74 357 353
f 330 328 25
f 567 23 559
f 590 598 38
f 590 604 598
f 598 604 155
f 604 590 154
f 590 591 154
f 604 154 606
f 297 299 298
f 299 318 78
f 298 299 78
f 355 354 356
f 629 636 642
f 312 24 629
f 629 642 160
f 370 362 97
f 362 363 97
f 363 366 97
f 364 363 362
f 362 370 351
f 96 363 364
f 297 636 24
f 162 637 638
f 637 297 79
f 490 488 38
f 598 597 490
f 441 442 119
f 443 442 441
f 443 441 5
f 442 448 445
f 296 78 295
f 326 12 172
f 575 574 364
f 47 175 176
f 175 177 176
f 47 176 179
