# FEM surface export ¡ª frame 586
# Vertices: 642  Faces: 1280
v -0.51075977 0.84952253 0.00071890
v 0.51402366 0.85333472 -0.00032831
v -0.47696880 0.47672373 -0.00389246
v 0.52080977 0.41135061 0.02920493
v -0.01303740 0.19712043 0.91321808
v -0.00335040 0.57760465 0.83319366
v -0.01120905 0.16007318 -0.87244916
v -0.00880016 0.57655734 -0.84037852
v 0.93995821 0.19776589 -0.58979964
v 0.95521611 0.17871928 0.57221884
v -0.93499249 0.17498308 -0.58047235
v -0.93576640 0.19237012 0.58269620
v -0.79319650 0.55096710 0.31566370
v -0.49337742 0.40277514 0.83643788
v -0.30356821 0.80591208 0.48333964
v 0.30165502 0.81337804 0.48850372
v -0.00095161 1.00475144 0.00281368
v 0.30496985 0.81444561 -0.48626766
v -0.30945885 0.80890995 -0.48303947
v -0.51910204 0.40077671 -0.81641620
v -0.80964673 0.55122560 -0.29446632
v -1.08888030 0.17222500 -0.01372142
v 0.51342905 0.42116097 0.81902844
v 0.80782598 0.54922050 0.29958943
v -0.54248857 0.00116230 0.88523185
v 0.01112129 0.17694272 1.10605860
v -0.85763371 0.22524236 -0.29664376
v -0.85586226 0.24209328 0.30053020
v -0.00896797 0.18411656 -1.11818433
v -0.56328863 0.00181456 -0.91004187
v 0.80495179 0.55264217 -0.31462473
v 0.49982890 0.41937193 -0.83876169
v 0.83166051 0.18953858 0.32555407
v 0.50911260 0.00010071 0.92504436
v 0.28562704 0.38764983 0.49543351
v -0.32146493 0.39715871 0.51128048
v 0.02244751 0.19703372 0.06099357
v -0.25425923 0.27520442 -0.51143324
v 0.33246452 0.31789353 -0.49344316
v 0.56359440 0.07113619 -0.89771956
v 0.86636460 0.17095552 -0.30797899
v 1.12062645 0.19304119 -0.00971321
v -0.66196901 0.71407264 0.16159594
v -0.56539536 0.70381391 0.41780135
v -0.42418531 0.85949922 0.25476483
v -0.72677499 0.30302757 0.73870754
v -0.67526793 0.49350706 0.60229707
v -0.88360220 0.38158327 0.45511213
v -0.15891249 0.70566684 0.67908680
v -0.40627664 0.61391872 0.66983151
v -0.25073755 0.50084865 0.86697066
v -0.16567838 0.95645010 0.26016396
v -0.26859784 0.96348751 0.00194108
v 0.15060627 0.70733571 0.68209660
v -0.00159913 0.85209584 0.51300442
v 0.27001637 0.96747333 0.00553960
v 0.15975854 0.95456588 0.25978896
v 0.42751873 0.86350965 0.25333712
v -0.16316517 0.95244116 -0.25653040
v -0.42656645 0.86259168 -0.25079733
v 0.42571637 0.86595684 -0.25347185
v 0.15964358 0.95633352 -0.25584853
v -0.16240378 0.71226400 -0.68391287
v -0.00250808 0.85318172 -0.51262671
v 0.15591717 0.71218574 -0.68526560
v -0.58240199 0.70082861 -0.40347531
v -0.67120016 0.70585817 -0.15122376
v -0.26719484 0.49698076 -0.85892898
v -0.42132217 0.62326294 -0.66901404
v -0.89651412 0.37115237 -0.44281247
v -0.69191760 0.49975467 -0.58012557
v -0.75492793 0.28551033 -0.72886026
v -0.83206278 0.57093924 0.00940629
v -1.06630802 0.19351086 -0.30506095
v -0.98881853 0.36967590 -0.15609023
v -0.97220498 0.36469081 0.17709796
v -1.06140876 0.17753768 0.29566517
v 0.57748324 0.70383227 0.41119689
v 0.67883509 0.71282166 0.15317009
v 0.25989196 0.49831957 0.85764235
v 0.40866482 0.62346882 0.67401505
v 0.88990474 0.37077117 0.43474489
v 0.68799621 0.50003928 0.57617199
v 0.74649656 0.29799628 0.71483171
v -0.26146191 0.29614508 1.01218343
v 0.01216937 0.39105016 0.99714452
v -0.81313503 0.06803092 0.78897101
v -0.57421362 0.19791581 0.92807925
v 0.01018722 0.05883044 1.10802150
v -0.30721366 0.06638932 1.09034753
v -0.27775180 0.13136223 0.93025255
v -1.08657885 0.00862525 0.17729843
v -0.98811233 0.00793677 0.49919522
v -0.98676980 0.04492003 -0.48364359
v -1.09732199 0.05739479 -0.16765340
v -0.66034597 0.40626380 0.15849739
v -0.89691049 0.24742401 0.01522259
v -0.69184488 0.36725205 -0.17098285
v -0.58917218 0.18517485 -0.93594337
v -0.82370234 0.07451469 -0.80097747
v -0.00638577 0.38114297 -0.99649239
v -0.27844474 0.30719626 -1.01179063
v -0.30486128 0.13747054 -0.92655843
v -0.30208766 0.05285160 -1.09102726
v 0.01859304 0.06568021 -1.07678473
v 0.41935232 0.62539738 -0.67726302
v 0.25322995 0.50193202 -0.86618602
v 0.67615271 0.71441019 -0.15793817
v 0.58024263 0.69896036 -0.41267630
v 0.73885179 0.31254584 -0.75053287
v 0.68633264 0.50752419 -0.60225481
v 0.89119041 0.37951183 -0.46051005
v 0.68953282 0.29623252 0.17524575
v 0.59685910 0.28347987 0.44382453
v 0.42228937 0.40381208 0.27400902
v 0.80191505 0.06322926 0.79452401
v 0.74186325 0.11684904 0.67154896
v 0.97395414 0.00029070 0.50650322
v 0.15504931 0.31966624 0.72290635
v 0.41679791 0.22015114 0.70974267
v 0.25086913 0.12946272 0.93497401
v 0.16505587 0.43793678 0.23556779
v 0.28414476 0.25118777 0.04267721
v -0.17568845 0.35237250 0.70945567
v -0.01835466 0.41679019 0.48887879
v -0.26306877 0.29872411 0.04845126
v -0.16844758 0.31986585 0.27954939
v -0.40261787 0.43879986 0.24474530
v 0.14118302 0.17013738 -0.23901615
v 0.47404546 0.25772464 -0.22575863
v -0.36877829 0.36426356 -0.29187530
v -0.20143422 0.13512847 -0.22019483
v 0.14854570 0.33710372 -0.71569693
v -0.01378259 0.19072594 -0.54602492
v -0.15325390 0.31513906 -0.70155948
v 0.61019212 0.32114807 -0.37926033
v 0.70514274 0.32934079 -0.14809841
v 0.28161892 0.13264395 -0.87107217
v 0.45043406 0.25641102 -0.67269158
v 0.99890250 0.00005778 -0.51919371
v 0.74919158 0.13105837 -0.62763864
v 0.79366595 0.07070456 -0.81608927
v 0.87664348 0.21837814 0.01975584
v 1.07314646 0.20235607 -0.32116508
v 1.07219958 0.00000000 -0.18169120
v 1.06985652 0.00616412 0.18350005
v 1.07192349 0.18114875 0.29082301
v 0.31217259 0.09079356 1.09403360
v 0.58555555 0.19481213 0.93567598
v 0.28383106 0.29555479 1.00512850
v -0.59845781 0.31891340 0.42884210
v -0.43027252 0.26823273 0.69893241
v -0.72074598 0.13467214 0.61989439
v -0.43251854 0.21801646 -0.71208429
v -0.57770401 0.31168941 -0.45056090
v -0.71576136 0.12296043 -0.62385172
v 0.57734877 0.19760586 -0.95703608
v 0.28332546 0.03651689 -1.09825552
v 0.26303717 0.29250076 -1.01393962
v 0.98480302 0.37117168 0.14889272
v 0.98065227 0.35681239 -0.17724206
v 0.84331256 0.56954205 -0.00943560
v -0.59291464 0.78246850 0.07983643
v -0.54843771 0.79253912 0.20634755
v -0.47097915 0.86470962 0.12783688
v -0.68420398 0.63191468 0.37150308
v -0.62155205 0.71360362 0.28932941
v -0.73095393 0.63343388 0.23918521
v -0.36818150 0.84083378 0.37414813
v -0.49957141 0.78132164 0.33560309
v -0.44001362 0.75920373 0.45358583
v -0.84222913 0.24581850 0.66621608
v -0.81202406 0.34352309 0.60654294
v -0.91329896 0.29065403 0.51901078
v -0.58668017 0.45648569 0.72703815
v -0.70037454 0.40294930 0.67681587
v -0.60963380 0.35254660 0.79523081
v -0.84527642 0.45761648 0.38649529
v -0.78440440 0.43685299 0.53613162
v -0.74736774 0.52836740 0.46256956
v -0.08128437 0.64484847 0.75967944
v -0.20512271 0.60226923 0.77203834
v -0.12424571 0.54457110 0.85352302
v -0.35878029 0.71632761 0.57847697
v -0.28658000 0.66790313 0.68075210
v -0.23294385 0.76178336 0.58653378
v -0.37365931 0.45370886 0.86066699
v -0.33154827 0.55848092 0.77283674
v -0.45318687 0.51353872 0.76119989
v -0.62628025 0.60004765 0.51539260
v -0.54657102 0.55578762 0.64416820
v -0.49298608 0.66195142 0.55118531
v -0.35169634 0.92517459 0.12903404
v -0.39577466 0.91764569 0.00142134
v -0.23881207 0.89061850 0.37611833
v -0.29935256 0.91556299 0.25994709
v -0.13639346 0.99182612 0.00202216
v -0.22140163 0.97060686 0.13263214
v -0.08481096 0.99389744 0.13308528
v 0.07617828 0.64500660 0.76212144
v -0.00409122 0.71536988 0.68613476
v 0.15154783 0.84400767 0.50583822
v 0.07617601 0.78683490 0.60174716
v 0.22481601 0.76653486 0.59120417
v -0.08410986 0.78301859 0.60068339
v -0.15675077 0.84121877 0.50474155
v 0.39592686 0.91791528 0.00284066
v 0.35394421 0.92855072 0.13211092
v 0.47641650 0.86666882 0.12819213
v 0.07956978 0.99543709 0.13354754
v 0.21653457 0.97250932 0.13451183
v 0.13573286 0.99357921 0.00133663
v 0.36765417 0.84815478 0.37611797
v 0.29910114 0.91968852 0.26034090
v 0.23408639 0.89551693 0.37968901
v -0.08323294 0.91534621 0.39158550
v 0.08002482 0.91534925 0.39286703
v -0.00333070 0.97035247 0.26422623
v -0.35253835 0.92538154 -0.12560315
v -0.47540233 0.86721015 -0.12539475
v -0.08362737 0.98943096 -0.12859297
v -0.21776868 0.96773994 -0.12740347
v -0.37091443 0.84349072 -0.36927468
v -0.29817677 0.91731060 -0.25560147
v -0.23972422 0.89220363 -0.37746295
v 0.47404167 0.86793864 -0.12816995
v 0.35181591 0.92774540 -0.12525152
v 0.23579051 0.89430010 -0.37617862
v 0.29754514 0.92141742 -0.25774160
v 0.37147865 0.85249263 -0.37287393
v 0.21728286 0.97095186 -0.12816946
v 0.07897471 0.98971921 -0.12934527
v -0.08505253 0.64746577 -0.76790464
v -0.00403130 0.72004384 -0.69258535
v 0.07547874 0.64839727 -0.76881605
v -0.15934528 0.84364456 -0.50419873
v -0.08459835 0.78668094 -0.60166991
v -0.23871453 0.76253128 -0.58579642
v 0.23310399 0.76864082 -0.59103453
v 0.07709590 0.78737134 -0.60433954
v 0.15388171 0.84140718 -0.50439483
v -0.00273518 0.96631294 -0.26016629
v 0.07968479 0.91525561 -0.38968560
v -0.08477668 0.91578346 -0.39122230
v -0.55784476 0.79256219 -0.20263363
v -0.59609717 0.78272998 -0.07627497
v -0.45007217 0.76394773 -0.44693777
v -0.50920671 0.78832597 -0.32795438
v -0.74668133 0.62912077 -0.21984686
v -0.63460678 0.70850199 -0.27999008
v -0.70268780 0.62889379 -0.35291970
v -0.13853042 0.54447472 -0.85492849
v -0.21625741 0.60902983 -0.77719265
v -0.47510692 0.51688200 -0.75021476
v -0.34910601 0.56526154 -0.77281910
v -0.39621904 0.45214424 -0.84486490
v -0.29757556 0.67388225 -0.68293101
v -0.37211609 0.72035456 -0.57753688
v -0.92373991 0.27291703 -0.50977659
v -0.83472735 0.33747512 -0.58829099
v -0.85047734 0.24051866 -0.66229278
v -0.76430464 0.52712345 -0.44434538
v -0.80117708 0.43692383 -0.51676786
v -0.86347377 0.46292922 -0.36850342
v -0.64541084 0.35615641 -0.77743644
v -0.73199314 0.39421308 -0.65685713
v -0.62003940 0.45388132 -0.70758140
v -0.51012975 0.66941106 -0.54124159
v -0.56153262 0.56400830 -0.63262475
v -0.64365214 0.60148841 -0.49303573
v -0.67680126 0.72093379 0.00610522
v -0.83147794 0.56271267 -0.14350054
v -0.75682759 0.64277691 -0.07029806
v -0.75057948 0.64465493 0.08756558
v -0.81787694 0.56515729 0.16327952
v -1.01430190 0.17877629 -0.45084772
v -0.98455888 0.27285331 -0.37924644
v -1.05235064 0.28127563 -0.08010791
v -1.02732968 0.26418561 -0.22480817
v -1.07658923 0.18398039 -0.15888236
v -0.95114011 0.36934909 -0.30088940
v -0.90577739 0.46281943 -0.22896282
v -0.97896153 0.27623931 0.38660115
v -1.01092005 0.18776511 0.44636741
v -0.88974714 0.46184269 0.25148210
v -0.94583559 0.37208772 0.31760201
v -1.09917724 0.18218429 0.14258972
v -1.02548540 0.27524102 0.23955302
v -1.05693138 0.27830946 0.09078807
v -0.92044187 0.47288549 -0.06908726
v -0.99178380 0.37089440 0.01595248
v -0.90882713 0.47302723 0.09393168
v 0.56236583 0.79666752 0.20470464
v 0.60306877 0.78654456 0.07602550
v 0.44722915 0.76837873 0.45450759
v 0.50628358 0.79077876 0.33463702
v 0.74892074 0.62892228 0.22416060
v 0.63467556 0.71465737 0.28352115
v 0.69910085 0.63097167 0.35604885
v 0.12821960 0.54173487 0.85794342
v 0.20397773 0.60681516 0.77351344
v 0.46167019 0.52832812 0.75065136
v 0.33340737 0.56585014 0.77184713
v 0.38589764 0.45874125 0.84432870
v 0.28260356 0.66669744 0.68379492
v 0.35986856 0.72096437 0.58413231
v 0.91864741 0.26962414 0.50286126
v 0.83279723 0.33098936 0.58166957
v 0.84565395 0.22869663 0.64714086
v 0.75641030 0.52641678 0.44200677
v 0.79556358 0.43322027 0.50915527
v 0.85501409 0.46029547 0.36722687
v 0.63447142 0.36402264 0.76882124
v 0.72379404 0.40629748 0.64299321
v 0.61016309 0.46591476 0.70263040
v 0.50283962 0.66842854 0.55090451
v 0.55276471 0.57512331 0.63092762
v 0.63755840 0.60275006 0.49686342
v -0.12492558 0.45456776 0.94045305
v 0.00990645 0.47966224 0.92067659
v -0.38618875 0.35013160 0.93650019
v -0.25878671 0.40110874 0.94713849
v 0.00740327 0.28475633 1.06410336
v -0.12434839 0.34797347 1.01329398
v -0.13580362 0.23464997 1.07167864
v -0.88578129 0.11872122 0.68881899
v -0.78065693 0.19256105 0.77060962
v -0.58302963 0.06114773 0.95229304
v -0.69796318 0.13062936 0.87040526
v -0.69035178 0.00697485 0.84942460
v -0.65508002 0.24282297 0.84452981
v -0.53014684 0.29860458 0.89971906
v -0.01484356 0.11093430 1.00664949
v -0.16215107 0.09491695 1.03218400
v -0.14893410 0.19175941 0.92334402
v -0.14654492 0.11289869 1.11149120
v -0.15317029 0.01436053 1.11822093
v 0.00445100 0.09900118 1.13344884
v -0.41767758 0.08089432 0.89491212
v -0.30842352 0.07472484 0.99138075
v -0.45171547 0.00074065 1.03281271
v -0.41893879 0.22686395 0.98654604
v -0.45126474 0.10552206 1.01620543
v -0.28793621 0.17883882 1.05446458
v -1.05009866 0.09905633 0.39997080
v -1.00174534 0.09256936 0.55764639
v -1.12919378 0.09949973 0.08592010
v -1.10051787 0.08414612 0.24295484
v -0.91122836 0.10626026 0.38350832
v -1.03500307 0.00416033 0.34018472
v -0.95505625 0.12174547 0.25016055
v -0.97932267 0.06295267 -0.54958957
v -1.06389832 0.09806624 -0.40700874
v -0.96953458 0.13828845 -0.25228757
v -1.01601732 0.01400965 -0.30617619
v -0.91334772 0.12243099 -0.40677756
v -1.11467254 0.09249370 -0.25692138
v -1.13470995 0.12901655 -0.11346187
v -0.57546657 0.42972192 0.08205983
v -0.69311392 0.37528184 -0.01543120
v -0.58470553 0.44010216 -0.09180940
v -0.86887527 0.24263041 0.16021354
v -0.76579690 0.29914853 0.07827561
v -0.76022112 0.34800369 0.23600687
v -0.78400314 0.28343409 -0.23460153
v -0.78085387 0.28100038 -0.06580781
v -0.87710440 0.22468643 -0.11481532
v -1.10647094 0.02622270 -0.01039792
v -0.99766874 0.13100180 -0.07862460
v -0.99606740 0.12584123 0.09847157
v -0.78864074 0.17845562 -0.77651560
v -0.89009607 0.12777404 -0.68542236
v -0.55924648 0.30984664 -0.88849640
v -0.67656380 0.23913859 -0.83057547
v -0.69460368 0.01216959 -0.85510057
v -0.70871383 0.11738032 -0.88928378
v -0.60382330 0.07001880 -0.98284376
v -0.01084931 0.47895887 -0.92286593
v -0.14199889 0.44553661 -0.93848938
v -0.14828537 0.24855861 -1.07779741
v -0.14071028 0.34820428 -1.01278687
v -0.00690378 0.29556534 -1.06674218
v -0.28089362 0.39670962 -0.93738145
v -0.40466222 0.35636353 -0.92000043
v -0.15533894 0.16430365 -0.91908842
v -0.15293296 0.06313988 -1.00329018
v -0.00326145 0.14316423 -0.95606554
v -0.45256674 0.00118665 -1.03359115
v -0.29637939 0.02777927 -1.03961241
v -0.42531866 0.06807738 -0.93781835
v 0.00502035 0.08598019 -1.15350354
v -0.14136070 0.00585483 -1.10977852
v -0.15454471 0.11915935 -1.12576914
v -0.43203637 0.26230651 -0.98905146
v -0.29435030 0.19494437 -1.07486618
v -0.45098335 0.12892596 -1.03178632
v 0.20733011 0.61146003 -0.78369796
v 0.12113098 0.54211444 -0.86130595
v 0.36834753 0.72778791 -0.58438599
v 0.29053149 0.67638141 -0.68648738
v 0.37883678 0.45787862 -0.86089611
v 0.34021631 0.56970423 -0.77709949
v 0.46239191 0.52283138 -0.76077175
v 0.60125947 0.79002154 -0.07804161
v 0.56114250 0.79872900 -0.20731489
v 0.69734550 0.63112420 -0.36876911
v 0.63764030 0.71419024 -0.29077184
v 0.74278533 0.63609034 -0.23597775
v 0.50791019 0.78853416 -0.33427688
v 0.44940642 0.77031034 -0.45316619
v 0.84891975 0.26525950 -0.67533076
v 0.82558262 0.35172337 -0.61457419
v 0.92248648 0.29377592 -0.52711439
v 0.60374576 0.46489406 -0.72455472
v 0.71844387 0.40589678 -0.68195492
v 0.61914372 0.37358373 -0.80778837
v 0.85189962 0.46537527 -0.39338312
v 0.78669018 0.44346583 -0.53898358
v 0.75615698 0.53156114 -0.46021214
v 0.50876868 0.67239577 -0.55300641
v 0.63919419 0.60766739 -0.51324630
v 0.55593169 0.56888229 -0.64912736
v 0.60263640 0.35218906 0.08569250
v 0.54184490 0.36245972 0.22436652
v 0.45211828 0.42087165 0.14419146
v 0.70221931 0.21235661 0.42280152
v 0.63086253 0.29571867 0.31319934
v 0.74855506 0.23942384 0.26848978
v 0.36348757 0.38953686 0.39565256
v 0.49040857 0.32846695 0.35194319
v 0.45377210 0.34055659 0.47068989
v 0.90473443 0.12082786 0.69335121
v 0.90815413 0.00218058 0.64919907
v 0.99935901 0.08609263 0.56266522
v 0.62562305 0.00791367 0.79765511
v 0.77245051 0.00000000 0.74190491
v 0.68096846 0.00000000 0.89294815
v 0.91276836 0.11203845 0.42240018
v 0.85271335 0.04263087 0.58439827
v 0.82038850 0.14876702 0.50887144
v 0.06126158 0.28169614 0.84466308
v 0.21375205 0.23392341 0.84595793
v 0.11815035 0.19935067 0.93299264
v 0.34715393 0.30595148 0.58049297
v 0.29239798 0.27963200 0.73402452
v 0.22170840 0.35229230 0.60721308
v 0.38856447 0.10306744 0.92438930
v 0.35455179 0.14986442 0.82999146
v 0.48432511 0.11458322 0.81633788
v 0.66841513 0.21265921 0.56893641
v 0.57858878 0.15082584 0.69709593
v 0.50362289 0.25300866 0.59408945
v 0.37046123 0.28701988 0.16028610
v 0.41953447 0.27123469 0.00639919
v 0.24483863 0.41635349 0.37175977
v 0.31348687 0.43053126 0.24624842
v 0.15708828 0.23379947 0.03652076
v 0.25101945 0.40823534 0.09219645
v 0.12083474 0.32933748 0.15886304
v -0.10008441 0.28305605 0.80733335
v 0.00095262 0.35214889 0.73440635
v -0.15689795 0.40420046 0.52492410
v -0.07935497 0.39413649 0.63082033
v -0.23818485 0.39245486 0.61326915
v 0.05527268 0.38235328 0.59437060
v 0.13217627 0.40302822 0.49978596
v -0.40315926 0.33013082 0.00679180
v -0.33145809 0.44006157 0.11906261
v -0.43612972 0.49417248 0.11606976
v -0.04816927 0.29014263 0.16552210
v -0.18107137 0.42424273 0.13935909
v -0.13666709 0.24737209 0.07978532
v -0.36839625 0.41597793 0.37736169
v -0.28717205 0.46367940 0.27857274
v -0.26804507 0.44007164 0.39811203
v 0.08767640 0.45979738 0.37577596
v -0.09298269 0.46406764 0.37578127
v 0.00880901 0.31203541 0.30871308
v 0.36005294 0.28586984 -0.12822303
v 0.46273723 0.40623111 -0.09687673
v 0.07569529 0.20100044 -0.10062710
v 0.20984048 0.22448359 -0.10131325
v 0.37406227 0.31956640 -0.35178792
v 0.30937368 0.19293995 -0.26057160
v 0.23564042 0.20890471 -0.40271658
v -0.41690180 0.42168772 -0.15472500
v -0.34657723 0.28018302 -0.11303312
v -0.24295275 0.12087520 -0.36429271
v -0.32948199 0.17930618 -0.25076953
v -0.36240962 0.26087362 -0.38498509
v -0.24674861 0.15391938 -0.06326010
v -0.10692859 0.18615893 -0.05607702
v 0.09028614 0.23173618 -0.79716653
v -0.01947897 0.31335762 -0.73177350
v -0.10086916 0.23351419 -0.80895168
v 0.16273957 0.26883796 -0.53056341
v 0.09209173 0.25042787 -0.63996238
v 0.22693847 0.38918602 -0.60082781
v -0.22033569 0.21348149 -0.64037544
v -0.11488312 0.26620960 -0.64601701
v -0.16366330 0.17461602 -0.51313633
v -0.02151999 0.14915372 -0.22964673
v -0.08000528 0.12537584 -0.37894681
v 0.08789638 0.20583311 -0.39573789
v 0.54891521 0.35466269 -0.16903956
v 0.61525184 0.35829130 -0.07828657
v 0.47279397 0.40836209 -0.40342444
v 0.48844916 0.37470740 -0.30957007
v 0.77415150 0.24349388 -0.21177067
v 0.66306406 0.29663229 -0.25266784
v 0.71941102 0.20914821 -0.35667950
v 0.14682648 0.18671463 -0.84921956
v 0.25432402 0.24607459 -0.77463788
v 0.52424157 0.12755312 -0.76827645
v 0.40042311 0.18879554 -0.79960012
v 0.41519919 0.07280900 -0.87723297
v 0.31085071 0.31455329 -0.70261490
v 0.38563389 0.37424451 -0.57252777
v 0.98608834 0.08356627 -0.56903756
v 0.90248990 0.05732998 -0.67621732
v 0.87464792 0.14218192 -0.70797324
v 0.81200027 0.13273193 -0.48434421
v 0.88944072 0.07465991 -0.57964665
v 0.91842723 0.04746846 -0.40324128
v 0.67718285 0.00072073 -0.86977875
v 0.78160310 0.00164226 -0.72278547
v 0.66319102 0.09143274 -0.75239307
v 0.53630942 0.35663557 -0.54517019
v 0.60695386 0.22982250 -0.65070075
v 0.67212707 0.25363305 -0.49192610
v 0.68883657 0.31511408 0.00167204
v 0.90966833 0.18373452 -0.14899582
v 0.80253267 0.26308185 -0.06476430
v 0.77308142 0.27882868 0.08151368
v 0.85901308 0.21677315 0.16131499
v 1.01408768 0.18590134 -0.46315634
v 1.05209231 0.09673480 -0.42527801
v 1.14310467 0.11099627 -0.10917848
v 1.10546684 0.11513934 -0.26109657
v 1.10747349 0.19649343 -0.16499878
v 1.05756152 0.00804061 -0.35114563
v 0.97941345 0.06962106 -0.25402632
v 1.06483686 0.09890038 0.40796027
v 1.01936483 0.19358170 0.43778664
v 0.97016388 0.12561573 0.27220812
v 1.03372431 0.00802083 0.34810191
v 1.10076094 0.17963949 0.14727548
v 1.09065032 0.06218685 0.24238224
v 1.12568116 0.08071787 0.08512762
v 1.00433016 0.10192758 -0.07514610
v 1.11276352 0.02141855 0.00302901
v 0.98823828 0.10652687 0.10711700
v 0.12451404 0.10359234 0.99329776
v 0.42178741 0.00969065 1.04403198
v 0.26397866 0.03060523 1.03411293
v 0.14833322 0.02598774 1.12166679
v 0.16288781 0.11258771 1.11689651
v 0.79578429 0.18714042 0.76879823
v 0.55913270 0.31718865 0.88770914
v 0.68004704 0.25215650 0.83659309
v 0.70236224 0.12663077 0.88175869
v 0.59417194 0.08281466 0.96851891
v 0.14369148 0.43960738 0.93187076
v 0.15210718 0.24661571 1.07311380
v 0.15484075 0.35232243 1.00825489
v 0.27915919 0.39824277 0.93845296
v 0.40291098 0.35784084 0.91722500
v 0.45509198 0.14090191 1.01589525
v 0.43916187 0.25976184 0.98763031
v 0.29645321 0.18526007 1.06285596
v -0.52715218 0.43614233 0.19366650
v -0.48630965 0.37649721 0.46116850
v -0.50486130 0.39698270 0.34881037
v -0.62500012 0.38840398 0.29661015
v -0.71289700 0.32479501 0.37259841
v -0.24219601 0.26335493 0.84314156
v -0.50424677 0.12684719 0.76631659
v -0.38493103 0.18750140 0.83130032
v -0.31592688 0.30976075 0.73947233
v -0.37870076 0.35907769 0.59400308
v -0.91927725 0.00047310 0.65059555
v -0.79645282 0.18297692 0.43851423
v -0.85769838 0.08971544 0.54213798
v -0.76949173 0.02896678 0.66216844
v -0.62181753 0.04846970 0.72060096
v -0.54086602 0.31259617 0.58897340
v -0.59645015 0.22902913 0.66430259
v -0.68351877 0.24333508 0.51373333
v -0.23625016 0.23212461 -0.82011890
v -0.33766079 0.29769138 -0.61647916
v -0.29266253 0.25726426 -0.70694703
v -0.38608435 0.18354987 -0.80331963
v -0.49258325 0.12279289 -0.81888252
v -0.54823989 0.43038648 -0.23801629
v -0.74212033 0.31751138 -0.39919356
v -0.64716399 0.33809921 -0.32512665
v -0.46317515 0.37381035 -0.38155502
v -0.40906280 0.34984347 -0.50053734
v -0.90535754 0.00089822 -0.66169465
v -0.64395672 0.07189728 -0.76087379
v -0.78038788 0.02776411 -0.72301596
v -0.83230823 0.07953770 -0.55004758
v -0.80315846 0.20217866 -0.46863747
v -0.51155370 0.30657327 -0.60267460
v -0.66347861 0.24616300 -0.53842711
v -0.57426167 0.19567971 -0.67576468
v 0.77894926 0.20715524 -0.79597265
v 0.57998759 0.05650423 -0.96626639
v 0.69423866 0.12634358 -0.89297807
v 0.65938151 0.26078853 -0.85601461
v 0.54305351 0.30805069 -0.90258217
v 0.15643552 0.12896664 -0.96741998
v 0.14336796 0.10801132 -1.14750314
v 0.16189075 0.13641717 -1.05375767
v 0.30983165 0.08988247 -0.99230361
v 0.42353746 0.00937804 -1.00567472
v 0.12191366 0.44310632 -0.93910247
v 0.38626400 0.36052293 -0.93172729
v 0.25803709 0.39727134 -0.94124985
v 0.13046470 0.33656994 -1.01583040
v 0.12796584 0.22926551 -1.07852280
v 0.43850428 0.12848575 -1.02770734
v 0.27338216 0.18433419 -1.08190513
v 0.41941765 0.25447595 -0.99130768
v 0.98791444 0.28110233 0.36877817
v 1.05670547 0.27063024 0.08297431
v 1.03352964 0.29047015 0.22216919
v 0.94637662 0.38130859 0.29686397
v 0.90659070 0.46544674 0.22613086
v 0.98931527 0.28465563 -0.39652410
v 0.89726508 0.45776197 -0.25323132
v 0.95065928 0.37486058 -0.32192397
v 1.03647316 0.27846214 -0.24912418
v 1.05855072 0.27823281 -0.09538815
v 0.68758392 0.72376609 -0.00305693
v 0.83469963 0.56343573 0.14352933
v 0.76764542 0.64457077 0.07272766
v 0.76310974 0.64328814 -0.08347543
v 0.82769990 0.56314731 -0.16269431
v 0.99323833 0.36526266 -0.01529241
v 0.91152328 0.46130812 -0.09534102
v 0.92008215 0.46543106 0.06837257
f 330 87 329
f 336 325 26
f 207 208 56
f 464 36 580
f 502 129 504
f 157 624 622
f 308 311 82
f 247 223 248
f 507 483 508
f 331 88 329
f 494 500 497
f 156 601 602
f 591 589 592
f 365 98 596
f 75 281 282
f 152 587 577
f 149 559 560
f 555 121 553
f 530 141 529
f 515 517 139
f 361 594 98
f 250 67 249
f 157 608 609
f 294 293 209
f 317 81 316
f 557 338 26
f 303 305 81
f 530 529 528
f 101 381 382
f 415 418 111
f 192 184 50
f 412 110 411
f 20 384 256
f 131 594 486
f 281 264 282
f 347 287 348
f 28 349 582
f 165 163 1
f 248 250 66
f 617 107 398
f 273 271 274
f 456 115 453
f 558 561 560
f 335 576 91
f 331 177 332
f 116 433 436
f 351 370 92
f 136 511 530
f 239 240 65
f 247 258 19
f 304 23 567
f 148 557 570
f 214 208 58
f 440 426 450
f 268 270 269
f 258 247 268
f 204 202 16
f 466 125 465
f 517 513 133
f 168 275 274
f 275 73 274
f 198 193 53
f 309 308 307
f 510 511 136
f 415 416 110
f 131 490 597
f 473 475 474
f 414 415 111
f 493 495 494
f 496 504 485
f 433 116 432
f 600 375 601
f 240 234 65
f 418 415 412
f 486 361 3
f 567 566 304
f 380 393 29
f 17 199 197
f 491 492 132
f 451 449 435
f 218 217 216
f 623 621 613
f 396 104 395
f 433 439 436
f 628 160 627
f 215 202 217
f 209 207 2
f 427 113 424
f 434 10 544
f 434 433 432
f 199 17 210
f 150 564 565
f 489 491 132
f 275 13 285
f 497 500 134
f 125 466 476
f 578 152 577
f 208 214 211
f 328 88 343
f 356 27 603
f 150 566 567
f 372 100 371
f 190 191 47
f 235 8 398
f 260 261 72
f 422 403 414
f 422 414 111
f 453 454 123
f 349 583 582
f 521 520 519
f 425 453 115
f 616 622 158
f 483 130 508
f 151 586 572
f 212 17 232
f 400 397 402
f 377 396 99
f 41 522 511
f 510 508 505
f 549 547 42
f 475 473 36
f 510 137 509
f 222 221 197
f 430 115 429
f 220 194 1
f 305 54 204
f 621 29 613
f 192 171 184
f 460 335 5
f 88 331 332
f 74 277 279
f 300 301 80
f 390 389 388
f 165 45 164
f 146 549 551
f 291 278 75
f 448 120 445
f 147 543 544
f 607 610 609
f 603 602 356
f 139 529 514
f 333 553 443
f 92 368 347
f 261 260 259
f 300 6 200
f 46 177 331
f 284 283 174
f 301 300 200
f 471 468 474
f 54 305 301
f 302 304 303
f 569 150 567
f 150 569 570
f 294 209 2
f 628 629 160
f 548 543 147
f 147 625 627
f 63 233 234
f 426 427 114
f 41 509 532
f 198 52 196
f 614 105 612
f 147 627 547
f 81 305 306
f 549 548 547
f 54 301 200
f 342 88 332
f 264 281 70
f 193 194 53
f 455 429 456
f 187 321 14
f 479 130 484
f 147 544 625
f 458 456 453
f 304 80 303
f 314 84 313
f 488 503 501
f 321 332 14
f 423 425 424
f 305 204 306
f 341 339 25
f 514 40 516
f 625 628 627
f 340 339 341
f 105 614 391
f 243 228 62
f 318 316 78
f 75 278 279
f 357 355 353
f 238 257 63
f 466 455 476
f 425 423 4
f 448 449 120
f 408 638 108
f 292 275 285
f 22 278 289
f 515 513 517
f 501 503 134
f 622 623 158
f 134 503 504
f 195 216 206
f 163 271 246
f 619 617 620
f 62 228 229
f 163 165 164
f 453 425 454
f 489 132 488
f 82 628 625
f 58 208 209
f 525 608 40
f 626 547 627
f 518 517 498
f 489 487 491
f 557 26 564
f 325 336 344
f 541 145 539
f 40 616 516
f 338 556 89
f 250 248 245
f 139 514 515
f 98 594 596
f 246 220 1
f 112 413 630
f 9 536 413
f 156 600 601
f 332 177 14
f 321 342 332
f 156 606 600
f 584 330 585
f 302 303 81
f 584 87 330
f 330 25 585
f 400 239 65
f 439 440 117
f 95 358 368
f 597 594 131
f 594 361 486
f 246 67 245
f 561 562 149
f 28 364 362
f 55 216 217
f 427 430 114
f 267 20 254
f 556 555 553
f 84 309 558
f 311 310 312
f 609 525 142
f 256 68 255
f 124 460 461
f 82 311 312
f 307 308 82
f 589 135 495
f 527 40 514
f 112 418 412
f 20 256 254
f 258 238 19
f 267 254 269
f 273 272 249
f 392 391 393
f 137 533 509
f 122 455 456
f 9 413 411
f 130 480 505
f 333 443 5
f 527 525 40
f 589 495 385
f 39 496 485
f 223 225 224
f 414 416 415
f 219 222 53
f 145 538 539
f 413 412 411
f 469 468 467
f 183 181 6
f 191 192 50
f 429 35 431
f 292 285 76
f 413 112 412
f 415 110 412
f 43 164 167
f 467 468 126
f 617 101 620
f 450 451 117
f 438 546 545
f 619 620 159
f 17 212 210
f 124 579 576
f 584 153 583
f 460 124 576
f 3 469 467
f 311 308 314
f 6 320 183
f 389 104 388
f 251 250 249
f 194 165 1
f 291 289 278
f 287 77 348
f 238 258 257
f 139 517 518
f 238 236 19
f 223 247 19
f 382 380 29
f 39 518 498
f 361 359 3
f 69 255 257
f 139 518 528
f 33 545 535
f 387 385 7
f 69 268 269
f 477 462 125
f 454 479 123
f 121 555 447
f 451 435 117
f 454 425 4
f 233 252 8
f 124 463 464
f 69 258 268
f 168 167 166
f 583 153 582
f 384 394 102
f 138 512 513
f 57 210 211
f 254 256 255
f 607 609 142
f 324 319 86
f 289 291 76
f 291 292 76
f 384 102 383
f 422 421 420
f 221 17 197
f 383 102 381
f 376 377 99
f 99 373 374
f 386 105 392
f 438 33 440
f 90 341 343
f 281 75 279
f 574 571 96
f 628 82 312
f 221 222 59
f 127 471 474
f 595 605 603
f 551 538 145
f 334 91 340
f 322 324 85
f 305 303 301
f 18 239 399
f 306 204 16
f 199 198 197
f 166 190 180
f 303 80 301
f 267 266 265
f 626 42 547
f 16 215 213
f 349 351 350
f 295 16 213
f 68 379 252
f 250 251 66
f 627 160 626
f 383 68 256
f 343 88 342
f 507 508 136
f 202 215 16
f 197 198 53
f 254 69 269
f 603 605 156
f 418 419 111
f 384 383 256
f 455 122 476
f 203 204 54
f 556 557 148
f 255 68 253
f 313 84 560
f 25 328 341
f 254 255 69
f 603 156 602
f 581 584 583
f 630 632 112
f 163 246 1
f 246 245 220
f 432 116 558
f 499 591 590
f 320 563 86
f 345 93 350
f 306 16 295
f 346 93 345
f 562 568 149
f 604 605 155
f 154 592 593
f 545 552 535
f 511 522 530
f 574 573 571
f 566 150 565
f 361 98 360
f 67 271 273
f 234 235 65
f 208 211 56
f 574 151 573
f 251 270 66
f 398 8 378
f 213 215 214
f 438 440 439
f 315 314 313
f 263 71 262
f 20 373 384
f 496 134 504
f 329 88 328
f 81 306 316
f 555 556 148
f 592 589 103
f 617 619 107
f 227 207 56
f 571 359 96
f 446 466 465
f 206 216 55
f 359 571 469
f 568 148 570
f 34 437 435
f 28 351 349
f 21 272 282
f 113 423 424
f 490 489 488
f 379 68 383
f 210 212 211
f 80 563 300
f 351 92 350
f 326 346 12
f 83 317 318
f 555 148 554
f 212 231 56
f 218 57 217
f 271 67 246
f 195 196 52
f 270 268 66
f 390 592 103
f 148 568 554
f 495 493 7
f 592 390 593
f 357 95 355
f 574 575 151
f 452 120 451
f 154 591 592
f 587 585 577
f 395 394 396
f 93 349 350
f 610 416 611
f 166 44 190
f 315 23 302
f 315 302 317
f 268 247 66
f 606 154 593
f 396 394 99
f 211 212 56
f 370 369 368
f 235 397 65
f 280 278 22
f 83 315 317
f 575 588 151
f 74 279 280
f 385 495 7
f 63 257 253
f 397 235 398
f 214 58 213
f 220 219 194
f 546 146 545
f 236 225 19
f 599 94 602
f 235 233 8
f 102 394 395
f 611 416 32
f 225 223 19
f 139 528 529
f 231 62 229
f 419 406 421
f 451 450 452
f 49 182 185
f 402 397 107
f 52 199 218
f 416 610 110
f 225 236 244
f 107 397 398
f 68 252 253
f 322 85 321
f 182 181 183
f 118 438 439
f 546 438 118
f 348 77 345
f 543 546 118
f 231 212 232
f 610 611 157
f 33 438 545
f 385 386 103
f 479 480 130
f 169 195 15
f 93 583 349
f 15 195 206
f 190 44 192
f 247 248 66
f 146 552 545
f 248 60 245
f 570 557 564
f 274 271 43
f 63 253 233
f 272 21 249
f 507 528 518
f 67 273 249
f 487 467 126
f 196 195 169
f 624 159 623
f 134 496 497
f 132 503 488
f 104 393 395
f 556 553 89
f 355 356 94
f 258 69 257
f 229 61 227
f 56 231 227
f 460 576 335
f 463 124 461
f 394 373 99
f 29 393 391
f 67 250 245
f 193 198 196
f 462 36 464
f 144 633 630
f 141 526 527
f 517 133 498
f 536 144 630
f 100 372 599
f 144 536 537
f 22 289 287
f 578 579 152
f 579 578 576
f 189 188 187
f 60 223 224
f 92 348 350
f 555 554 447
f 396 377 388
f 194 193 165
f 413 536 630
f 372 352 599
f 377 376 375
f 348 345 350
f 105 386 387
f 240 237 234
f 463 462 464
f 135 500 494
f 45 196 169
f 512 612 387
f 245 60 220
f 429 115 456
f 223 60 248
f 288 289 76
f 525 526 142
f 100 599 601
f 613 29 391
f 526 523 520
f 341 328 343
f 631 641 639
f 264 21 282
f 266 72 265
f 106 402 403
f 73 273 274
f 186 206 205
f 381 379 383
f 52 216 195
f 410 18 399
f 290 272 73
f 72 371 374
f 526 525 527
f 115 430 424
f 498 497 496
f 621 382 29
f 543 118 434
f 214 215 57
f 522 141 530
f 511 510 509
f 352 94 599
f 493 512 7
f 90 340 341
f 169 171 170
f 605 604 606
f 219 60 224
f 104 389 392
f 359 469 3
f 186 49 185
f 222 219 224
f 166 167 44
f 428 427 426
f 523 522 524
f 129 502 481
f 50 185 188
f 164 45 170
f 425 115 424
f 33 428 426
f 427 428 113
f 94 356 602
f 515 138 513
f 114 431 452
f 237 236 238
f 215 217 57
f 95 354 355
f 220 60 219
f 515 514 516
f 183 320 319
f 222 197 53
f 559 569 567
f 300 320 6
f 435 436 117
f 96 360 363
f 640 642 641
f 242 243 62
f 140 537 519
f 508 130 505
f 420 410 399
f 537 539 144
f 317 316 318
f 426 114 450
f 186 15 206
f 311 83 310
f 625 544 307
f 544 10 307
f 168 43 167
f 185 182 188
f 369 354 95
f 44 171 192
f 605 606 156
f 548 549 146
f 100 601 375
f 149 568 569
f 381 380 382
f 455 466 35
f 480 479 454
f 543 548 546
f 493 133 513
f 492 472 37
f 477 125 476
f 491 487 126
f 337 336 338
f 588 153 587
f 576 578 91
f 633 161 632
f 96 359 360
f 39 485 483
f 101 617 378
f 193 45 165
f 163 164 43
f 618 624 611
f 507 136 528
f 561 149 560
f 641 162 639
f 116 561 558
f 494 133 493
f 253 252 233
f 63 237 238
f 392 393 104
f 440 450 117
f 93 581 583
f 386 385 387
f 120 449 451
f 421 422 111
f 486 3 467
f 302 81 317
f 633 632 630
f 462 475 36
f 376 99 374
f 489 490 131
f 447 449 448
f 387 612 105
f 106 420 399
f 173 46 172
f 492 491 472
f 316 306 295
f 22 287 347
f 109 410 420
f 507 39 483
f 559 23 313
f 214 57 211
f 196 45 193
f 10 434 432
f 422 106 403
f 626 160 640
f 487 486 467
f 542 41 532
f 400 106 399
f 444 120 452
f 198 199 52
f 475 127 474
f 621 620 382
f 621 623 159
f 450 114 452
f 92 347 348
f 376 100 375
f 434 118 433
f 503 132 502
f 337 90 336
f 537 536 519
f 395 393 380
f 201 54 200
f 171 44 170
f 355 94 353
f 58 296 213
f 422 420 106
f 595 365 596
f 569 568 570
f 523 140 520
f 114 430 431
f 218 210 57
f 304 566 80
f 639 162 638
f 261 371 72
f 548 147 547
f 498 133 497
f 150 570 564
f 222 224 59
f 142 526 520
f 437 436 435
f 141 522 523
f 137 510 505
f 173 179 176
f 559 149 569
f 121 447 448
f 563 320 300
f 102 395 380
f 257 255 253
f 642 162 641
f 83 311 314
f 216 52 218
f 512 493 513
f 23 304 302
f 91 339 340
f 512 138 612
f 159 620 621
f 218 199 210
f 364 28 575
f 83 318 310
f 168 274 43
f 136 530 528
f 140 523 524
f 495 135 494
f 233 235 234
f 566 563 80
f 25 339 577
f 277 74 276
f 475 462 477
f 133 494 497
f 436 437 116
f 389 386 392
f 548 146 546
f 441 460 5
f 10 309 307
f 65 397 400
f 543 434 544
f 640 641 161
f 272 273 73
f 581 93 346
f 419 421 111
f 319 320 86
f 180 179 178
f 127 475 477
f 231 229 227
f 337 334 340
f 136 508 510
f 308 309 84
f 237 63 234
f 447 554 34
f 252 379 378
f 315 83 314
f 608 622 616
f 338 336 26
f 337 338 89
f 13 275 168
f 209 208 207
f 436 439 117
f 628 312 629
f 360 366 363
f 364 574 96
f 359 361 360
f 466 446 35
f 500 501 134
f 406 109 421
f 135 589 591
f 601 599 602
f 340 90 337
f 481 492 37
f 522 41 524
f 78 316 295
f 131 486 487
f 403 32 414
f 634 626 640
f 151 572 573
f 515 516 138
f 8 252 378
f 265 72 374
f 9 521 519
f 538 549 42
f 368 358 347
f 588 587 586
f 458 453 123
f 589 385 103
f 502 492 481
f 32 416 414
f 430 427 424
f 153 585 587
f 540 144 539
f 370 368 92
f 209 293 58
f 428 33 535
f 326 581 346
f 625 307 82
f 575 28 582
f 6 181 200
f 421 109 420
f 553 121 443
f 160 642 640
f 153 584 585
f 309 432 558
f 334 337 89
f 23 315 313
f 271 163 43
f 296 295 213
f 39 498 496
f 118 439 433
f 531 113 534
f 293 296 58
f 28 362 351
f 489 131 487
f 431 444 452
f 84 558 560
f 98 366 360
f 45 169 170
f 379 101 378
f 462 463 125
f 308 84 314
f 10 432 309
f 299 24 310
f 132 492 502
f 512 387 7
f 639 638 408
f 565 323 86
f 59 244 242
f 106 400 402
f 440 33 426
f 566 565 563
f 617 398 378
f 224 225 59
f 410 109 409
f 239 400 399
f 194 219 53
f 358 22 347
f 610 157 609
f 27 595 603
f 479 484 482
f 142 520 521
f 585 25 577
f 339 578 577
f 408 407 406
f 407 109 406
f 31 408 406
f 407 408 108
f 31 639 408
f 419 31 406
f 608 616 40
f 430 429 431
f 455 35 429
f 35 444 431
f 188 51 187
f 188 182 51
f 51 322 187
f 322 51 319
f 51 182 183
f 319 51 183
f 187 322 321
f 322 319 324
f 381 101 379
f 405 407 108
f 404 405 108
f 286 285 178
f 407 405 409
f 109 407 409
f 191 175 47
f 167 164 170
f 50 184 185
f 44 167 170
f 64 244 236
f 243 244 64
f 50 188 189
f 541 542 145
f 442 445 119
f 339 91 578
f 445 446 119
f 624 623 622
f 611 624 157
f 523 526 141
f 141 527 529
f 527 514 529
f 445 120 444
f 446 445 444
f 35 446 444
f 613 614 158
f 158 614 615
f 623 613 158
f 614 613 391
f 614 612 615
f 371 376 374
f 100 376 371
f 479 482 123
f 373 394 384
f 540 42 634
f 633 540 634
f 538 42 540
f 633 634 161
f 161 634 640
f 42 626 634
f 540 633 144
f 557 556 338
f 553 333 89
f 262 21 264
f 251 21 262
f 5 335 333
f 270 251 262
f 21 251 249
f 600 593 30
f 606 593 600
f 600 30 375
f 593 390 30
f 30 377 375
f 390 388 30
f 30 388 377
f 228 243 241
f 470 478 459
f 470 127 478
f 127 477 478
f 184 186 185
f 478 477 476
f 122 478 476
f 357 74 280
f 518 39 507
f 344 342 85
f 325 344 85
f 342 344 343
f 85 342 321
f 344 90 343
f 90 344 336
f 482 129 481
f 482 481 457
f 482 457 123
f 481 37 457
f 449 447 34
f 435 449 34
f 470 472 471
f 472 470 37
f 470 471 127
f 472 126 471
f 126 468 471
f 470 459 37
f 491 126 472
f 504 129 485
f 221 59 242
f 125 463 465
f 437 34 562
f 561 437 562
f 554 568 562
f 34 554 562
f 437 561 116
f 390 103 389
f 103 386 389
f 392 105 391
f 572 586 580
f 572 580 36
f 586 152 580
f 473 572 36
f 244 243 242
f 225 244 59
f 64 240 241
f 240 239 241
f 237 240 64
f 243 64 241
f 236 237 64
f 411 607 521
f 9 411 521
f 110 607 411
f 607 142 521
f 610 607 110
f 171 15 184
f 171 169 15
f 15 186 184
f 87 584 581
f 153 588 582
f 588 575 582
f 381 102 380
f 573 572 473
f 468 469 128
f 474 468 128
f 469 571 128
f 571 573 128
f 573 473 128
f 473 474 128
f 564 323 565
f 26 323 564
f 323 324 86
f 325 323 26
f 325 324 323
f 563 565 86
f 324 325 85
f 410 230 18
f 230 228 18
f 18 228 241
f 18 241 239
f 401 619 618
f 401 402 107
f 403 402 401
f 619 159 618
f 401 618 32
f 619 401 107
f 403 401 32
f 618 611 32
f 159 624 618
f 478 122 459
f 122 458 459
f 37 459 457
f 459 458 457
f 122 456 458
f 457 458 123
f 191 190 192
f 485 129 484
f 129 482 484
f 483 485 484
f 130 483 484
f 189 187 14
f 191 50 189
f 191 189 175
f 189 14 175
f 14 177 175
f 499 501 500
f 501 499 38
f 38 499 590
f 135 499 500
f 488 501 38
f 499 135 591
f 480 454 4
f 284 12 346
f 4 423 506
f 480 4 506
f 423 531 506
f 480 506 505
f 531 137 506
f 506 137 505
f 365 366 98
f 71 270 262
f 270 71 269
f 71 267 269
f 335 334 333
f 333 334 89
f 334 335 91
f 536 9 519
f 465 463 461
f 537 140 541
f 520 140 519
f 119 446 465
f 465 461 119
f 461 441 119
f 460 441 461
f 176 46 173
f 299 297 24
f 71 263 266
f 263 260 266
f 260 72 266
f 263 70 260
f 205 201 49
f 201 181 49
f 186 205 49
f 181 201 200
f 181 182 49
f 284 77 283
f 586 587 152
f 588 586 151
f 20 267 265
f 266 267 71
f 31 417 631
f 631 417 632
f 31 631 639
f 417 31 419
f 641 631 161
f 417 112 632
f 161 631 632
f 418 417 419
f 417 418 112
f 284 345 77
f 542 550 145
f 542 541 524
f 284 174 12
f 48 174 283
f 373 20 265
f 373 265 374
f 609 608 525
f 608 157 622
f 560 559 313
f 636 637 162
f 541 140 524
f 41 542 524
f 358 357 280
f 70 263 264
f 263 262 264
f 176 177 46
f 174 48 173
f 174 173 172
f 538 551 549
f 538 540 539
f 537 541 539
f 232 221 242
f 17 221 232
f 232 242 62
f 231 232 62
f 203 205 55
f 203 55 202
f 201 205 203
f 202 55 217
f 205 206 55
f 204 203 202
f 73 275 292
f 292 290 73
f 272 290 282
f 290 292 291
f 75 290 291
f 290 75 282
f 70 277 259
f 277 70 281
f 277 281 279
f 260 70 259
f 12 174 172
f 104 396 388
f 367 27 354
f 365 27 367
f 354 27 356
f 365 367 366
f 595 27 365
f 318 299 310
f 155 596 597
f 155 597 598
f 596 594 597
f 595 596 155
f 605 595 155
f 180 47 179
f 180 190 47
f 352 372 11
f 11 372 261
f 312 310 24
f 642 636 162
f 636 297 637
f 367 369 97
f 366 367 97
f 369 367 354
f 369 370 97
f 580 579 464
f 580 152 579
f 579 124 464
f 61 230 409
f 230 410 409
f 230 61 229
f 230 229 228
f 76 285 286
f 353 352 276
f 74 353 276
f 288 76 286
f 288 286 283
f 289 288 287
f 203 54 201
f 287 288 77
f 77 288 283
f 286 48 283
f 531 423 113
f 276 11 259
f 11 261 259
f 277 276 259
f 616 158 615
f 516 616 615
f 138 516 615
f 138 615 612
f 509 533 532
f 503 502 504
f 635 79 294
f 635 294 404
f 635 637 79
f 637 635 638
f 638 635 108
f 635 404 108
f 226 61 405
f 61 226 227
f 405 61 409
f 227 226 207
f 48 178 179
f 48 286 178
f 173 48 179
f 534 143 533
f 534 535 143
f 531 534 533
f 533 143 532
f 137 531 533
f 261 372 371
f 13 180 178
f 285 13 178
f 180 13 166
f 13 168 166
f 346 345 284
f 331 327 46
f 46 327 172
f 172 327 326
f 382 620 101
f 442 121 448
f 443 121 442
f 2 226 404
f 294 2 404
f 404 226 405
f 207 226 2
f 550 551 145
f 552 146 551
f 143 550 532
f 552 550 143
f 330 329 328
f 24 636 629
f 94 352 353
f 352 11 276
f 113 428 534
f 428 535 534
f 509 41 511
f 535 552 143
f 550 552 551
f 550 542 532
f 369 95 368
f 326 327 87
f 87 327 329
f 327 331 329
f 581 326 87
f 293 79 298
f 79 297 298
f 296 298 78
f 79 293 294
f 296 293 298
f 598 490 38
f 358 280 22
f 280 279 278
f 357 358 95
f 74 357 353
f 330 328 25
f 567 23 559
f 590 598 38
f 590 604 598
f 598 604 155
f 604 590 154
f 590 591 154
f 604 154 606
f 297 299 298
f 299 318 78
f 298 299 78
f 355 354 356
f 629 636 642
f 312 24 629
f 629 642 160
f 370 362 97
f 362 363 97
f 363 366 97
f 364 363 362
f 362 370 351
f 96 363 364
f 297 636 24
f 162 637 638
f 637 297 79
f 490 488 38
f 598 597 490
f 441 442 119
f 443 442 441
f 443 441 5
f 442 448 445
f 296 78 295
f 326 12 172
f 575 574 364
f 47 175 176
f 175 177 176
f 47 176 179
