# FEM surface export ¡ª frame 669
# Vertices: 642  Faces: 1280
v -0.50960928 0.76067764 0.00913913
v 0.49921969 0.76844507 -0.01573049
v -0.53702229 0.58764094 0.02914289
v 0.54133004 0.50833386 -0.00193815
v -0.00504203 0.27220160 0.86042517
v -0.00218358 0.54172236 0.86476755
v -0.01173815 0.31051597 -0.84747368
v -0.01484149 0.55383021 -0.87550557
v 0.94418669 0.14931490 -0.58305615
v 0.95032120 0.13652667 0.60225964
v -0.94202405 0.13427393 -0.58203065
v -0.94711339 0.12942986 0.57393664
v -0.81586754 0.52158856 0.32306504
v -0.52149123 0.36021432 0.86032701
v -0.29794052 0.73144525 0.49271038
v 0.29757354 0.73209417 0.47040346
v -0.00740260 0.84049737 -0.00571685
v 0.27775055 0.75252652 -0.50273252
v -0.31319219 0.74499732 -0.48466906
v -0.52426594 0.38821024 -0.86271042
v -0.82451600 0.53239751 -0.31061283
v -1.11474085 0.16784184 -0.00430404
v 0.54150599 0.38885632 0.86525548
v 0.82642037 0.56041509 0.30923742
v -0.53448480 0.17532735 0.84250933
v 0.00644423 0.11680881 1.11231577
v -0.81556916 0.27851522 -0.31563297
v -0.83116287 0.24851012 0.34110990
v 0.01979599 0.11437207 -1.10303295
v -0.51031864 0.08992750 -0.82120579
v 0.81222898 0.55936670 -0.35638684
v 0.51054007 0.36818787 -0.87322903
v 0.82928711 0.20874211 0.33483928
v 0.52371889 0.16799720 0.84739250
v 0.29727125 0.57918072 0.44269475
v -0.30196366 0.59485865 0.46122307
v -0.02128015 0.40095973 0.03643407
v -0.31762633 0.41102827 -0.50073409
v 0.32400787 0.52831542 -0.46961173
v 0.51871192 0.20323972 -0.84633750
v 0.80620337 0.16143900 -0.29024512
v 1.11789453 0.20182753 0.00353727
v -0.67674458 0.65792555 0.17163995
v -0.57404721 0.64740610 0.43229091
v -0.41633302 0.76322186 0.25760379
v -0.75473613 0.25391164 0.75646079
v -0.71372610 0.45505950 0.61480981
v -0.90635073 0.34265637 0.47223866
v -0.15181053 0.65077931 0.70329005
v -0.41996416 0.58520514 0.70237404
v -0.27499226 0.46636632 0.90331489
v -0.15632430 0.80808228 0.24806380
v -0.26079020 0.81887019 0.00097586
v 0.16748036 0.64975309 0.69147313
v 0.00011000 0.75370330 0.50753647
v 0.25173187 0.83038414 -0.00559137
v 0.14205812 0.81599540 0.24061447
v 0.40510181 0.76862949 0.23720840
v -0.16494086 0.82082772 -0.24984913
v -0.42225349 0.77291137 -0.24808556
v 0.40673554 0.78154171 -0.26459286
v 0.14064197 0.83087718 -0.25848603
v -0.17371665 0.66777188 -0.69507205
v -0.01153698 0.77000910 -0.51442671
v 0.13998370 0.66983461 -0.70913160
v -0.58783454 0.65335423 -0.41157827
v -0.67941576 0.66534764 -0.14600521
v -0.26781362 0.48153505 -0.88946718
v -0.42892301 0.59570342 -0.68527168
v -0.91279924 0.35040143 -0.47662798
v -0.71515810 0.46692407 -0.60800266
v -0.75969476 0.25015518 -0.76396227
v -0.84848237 0.54984009 0.00776884
v -1.05785108 0.14059441 -0.31653807
v -1.00727630 0.36306539 -0.18611947
v -0.98342234 0.35565838 0.16525806
v -1.07156634 0.16818742 0.30136731
v 0.57887977 0.66264546 0.40456340
v 0.67432523 0.68079978 0.14353463
v 0.27878603 0.48055190 0.89685094
v 0.43321109 0.58792460 0.68424314
v 0.92394263 0.37565836 0.45937327
v 0.71822667 0.49882823 0.60748559
v 0.77842093 0.29199037 0.75366324
v -0.28682002 0.27051127 1.04512715
v -0.00399934 0.35912007 1.02131784
v -0.77613580 0.05553763 0.79807973
v -0.56290150 0.08305442 0.95623791
v -0.02742732 0.09557755 1.02318799
v -0.31562561 0.05445268 1.01707971
v -0.28695530 0.25919545 0.89266902
v -0.98872519 0.00016420 0.20632394
v -0.91711342 0.09509818 0.47760969
v -0.94736129 0.12311383 -0.47790873
v -0.97281224 0.00136179 -0.15215966
v -0.72801608 0.42787957 0.19203784
v -0.86014718 0.25103185 0.02891874
v -0.70893478 0.40607518 -0.12352690
v -0.57776380 0.12833768 -0.94901866
v -0.75050396 0.01677425 -0.75307006
v -0.00579576 0.34588203 -1.03679705
v -0.28253525 0.28395739 -1.04811025
v -0.27823433 0.17727485 -0.87575984
v -0.23699678 0.01242775 -1.02274227
v 0.03522244 0.09731068 -0.99254304
v 0.40535077 0.60509241 -0.71936536
v 0.25175026 0.47629511 -0.90253901
v 0.67383450 0.68330139 -0.17783530
v 0.56069398 0.67247492 -0.44195861
v 0.74400890 0.26685292 -0.77834511
v 0.68704969 0.48047656 -0.64627808
v 0.90001446 0.37055212 -0.50767064
v 0.70329326 0.41516742 0.16771176
v 0.57995355 0.41053361 0.41167378
v 0.45582777 0.55147099 0.26777527
v 0.75972557 0.01353969 0.78636438
v 0.68378222 0.20562738 0.60606700
v 0.88460076 0.00950179 0.48384491
v 0.15157135 0.47497693 0.69613767
v 0.43100178 0.37963375 0.66313350
v 0.29879627 0.22203721 0.84715492
v 0.15878651 0.61328852 0.21314283
v 0.24131300 0.33044520 0.01381379
v -0.14257054 0.46125984 0.70075727
v -0.01834787 0.56657666 0.48206425
v -0.26877111 0.56498706 0.01251048
v -0.19101951 0.52852082 0.28206614
v -0.42681611 0.61232877 0.25823846
v 0.14406696 0.45041317 -0.25887844
v 0.45602092 0.41498259 -0.19415629
v -0.43521416 0.56834424 -0.22416347
v -0.20407532 0.38547567 -0.21827705
v 0.14504071 0.44673303 -0.64263165
v -0.03382150 0.43955916 -0.49652705
v -0.14796691 0.46450976 -0.69090331
v 0.63734871 0.39940029 -0.40735829
v 0.73420376 0.37589717 -0.14763664
v 0.28368506 0.24873535 -0.86441094
v 0.45357788 0.38200322 -0.65622228
v 0.94157892 0.00000000 -0.44603667
v 0.71659905 0.16605283 -0.58043355
v 0.74273181 0.03828436 -0.78116429
v 0.87115645 0.22122590 0.04628825
v 1.07659602 0.19021289 -0.31585583
v 1.04359543 0.00000000 -0.14672494
v 1.02224708 0.00000000 0.20672089
v 1.06524181 0.18076260 0.31249306
v 0.31237775 0.01220531 1.05650246
v 0.60291260 0.12175675 0.94879186
v 0.29275012 0.28091103 1.03001928
v -0.59734738 0.46551549 0.42667338
v -0.42620394 0.39200351 0.67026162
v -0.71404511 0.21449238 0.60164362
v -0.39659840 0.37244189 -0.69371670
v -0.57149678 0.44852886 -0.41769484
v -0.69714242 0.27216634 -0.60792798
v 0.56879205 0.08680130 -0.93502492
v 0.29711556 0.04019725 -1.04417193
v 0.27265525 0.26729196 -1.04194057
v 1.01910555 0.39822277 0.15413927
v 1.00040436 0.39882216 -0.20553459
v 0.85868341 0.57357138 -0.02334605
v -0.59661609 0.71694177 0.09333985
v -0.54749095 0.72051203 0.21968757
v -0.46536085 0.76509923 0.13495898
v -0.71046960 0.58378023 0.38510022
v -0.63099897 0.65530884 0.30634260
v -0.75028735 0.58900434 0.24314083
v -0.35921115 0.74745625 0.37542602
v -0.49545515 0.71093357 0.35121471
v -0.43500727 0.69985861 0.46641457
v -0.86395925 0.19385001 0.67757338
v -0.84566522 0.29391229 0.62428892
v -0.93119359 0.23932925 0.53363353
v -0.62567198 0.41757101 0.75089449
v -0.73715830 0.36009142 0.69425511
v -0.63997990 0.30064055 0.81850821
v -0.86128765 0.44666040 0.39508116
v -0.82518983 0.39697161 0.55099958
v -0.77704298 0.49648151 0.48074859
v -0.07975479 0.59860504 0.78904641
v -0.21193600 0.55630791 0.81300402
v -0.13760254 0.49895349 0.89835286
v -0.35446259 0.66084355 0.60685390
v -0.28243592 0.61826110 0.71252173
v -0.22379103 0.69702810 0.60282338
v -0.40158707 0.42214003 0.88464040
v -0.35134214 0.52784222 0.80573201
v -0.47911566 0.49137890 0.78631753
v -0.64955395 0.57010102 0.52466726
v -0.57442069 0.53432173 0.66567242
v -0.49764222 0.62670255 0.56769520
v -0.34353149 0.79676437 0.12948328
v -0.38840058 0.79545581 0.00677768
v -0.22789852 0.77869701 0.37284932
v -0.28877258 0.78804910 0.25476697
v -0.13572133 0.83928579 -0.00405258
v -0.21156462 0.81676638 0.12466734
v -0.08497962 0.83353555 0.12064774
v 0.08617769 0.59995306 0.78714693
v 0.01270911 0.66125375 0.70428950
v 0.14781724 0.74509126 0.49294758
v 0.08875103 0.71031648 0.60004842
v 0.24124825 0.69629550 0.58291674
v -0.06707535 0.70987374 0.61081362
v -0.14778949 0.74728084 0.50700700
v 0.38238221 0.80076319 -0.01134764
v 0.33101815 0.80039674 0.11493217
v 0.45398727 0.77427852 0.11124127
v 0.06964525 0.83650142 0.11698497
v 0.19925830 0.82741898 0.12380991
v 0.12535839 0.84578830 -0.00547800
v 0.35690960 0.75009137 0.35645923
v 0.27365968 0.79231179 0.24104534
v 0.21628381 0.77613515 0.35647926
v -0.08388593 0.79269421 0.38197178
v 0.06523255 0.79033780 0.37322259
v -0.00908427 0.82058251 0.24250773
v -0.34745383 0.80325925 -0.12302984
v -0.46901011 0.76946068 -0.11886247
v -0.08813000 0.84161961 -0.12680909
v -0.21658567 0.82858115 -0.12331801
v -0.36822897 0.76420820 -0.36797455
v -0.29380688 0.80327398 -0.25094265
v -0.23382649 0.79089123 -0.36886120
v 0.45994598 0.78029794 -0.14186668
v 0.33342516 0.81366295 -0.13373709
v 0.21567333 0.79860389 -0.38016862
v 0.27531844 0.81365299 -0.26073679
v 0.34653470 0.77434039 -0.38383988
v 0.19737363 0.84031016 -0.13219459
v 0.06667180 0.84838909 -0.12855542
v -0.09622037 0.61543477 -0.78998685
v -0.01550722 0.67654759 -0.71190774
v 0.06592607 0.61287457 -0.79303920
v -0.16468181 0.76168704 -0.50403434
v -0.09289179 0.72611058 -0.61025488
v -0.24531029 0.71181124 -0.59139937
v 0.21164225 0.71523339 -0.61297971
v 0.06149463 0.72849548 -0.61616391
v 0.13268521 0.76741123 -0.51308566
v -0.01229285 0.83334911 -0.25511357
v 0.06485746 0.80915362 -0.38578674
v -0.08680067 0.80243474 -0.38459036
v -0.55466360 0.72705817 -0.20265932
v -0.59827298 0.72012109 -0.06882108
v -0.45313346 0.70757878 -0.45142388
v -0.50837868 0.72205949 -0.33488744
v -0.75818640 0.60679448 -0.22714387
v -0.63813448 0.67129916 -0.28221568
v -0.70927459 0.60086524 -0.36735380
v -0.14191455 0.52050263 -0.89190346
v -0.22046587 0.58246446 -0.80384326
v -0.48145112 0.49699643 -0.77946681
v -0.35354462 0.54406631 -0.79575557
v -0.39674538 0.44618693 -0.88364798
v -0.30247301 0.63880044 -0.70035356
v -0.37673333 0.67635471 -0.58727318
v -0.93601596 0.23382676 -0.52612442
v -0.84263253 0.29819539 -0.62104535
v -0.85858488 0.18742052 -0.68573809
v -0.77249074 0.51030499 -0.46451804
v -0.82118493 0.42195505 -0.54562074
v -0.87391090 0.44993681 -0.39509162
v -0.65548289 0.32766333 -0.81369632
v -0.74677712 0.37518480 -0.68898058
v -0.62738091 0.43841073 -0.74135363
v -0.51904827 0.63129103 -0.55406076
v -0.57536155 0.54070276 -0.65795898
v -0.65119475 0.56875873 -0.51580387
v -0.68660748 0.66660202 0.01346420
v -0.84732068 0.54504031 -0.15395054
v -0.77435529 0.60709172 -0.06890430
v -0.77197725 0.60270607 0.09189699
v -0.83893603 0.53532273 0.16545351
v -1.00962651 0.11250349 -0.45313582
v -1.00951910 0.25312945 -0.39508817
v -1.05304313 0.25449359 -0.08643700
v -1.05486393 0.25035459 -0.24274133
v -1.10985327 0.14583616 -0.15794449
v -0.97009224 0.35348633 -0.32658163
v -0.92532557 0.45219982 -0.25515530
v -0.98719436 0.25414613 0.39375877
v -1.01948333 0.14712547 0.44335669
v -0.90987754 0.44197389 0.24885547
v -0.94822985 0.36140978 0.32514486
v -1.09687471 0.19064909 0.14523256
v -1.02241707 0.27856731 0.24257737
v -1.06402099 0.29004931 0.08269511
v -0.92629218 0.46967712 -0.09067655
v -1.00771308 0.37890372 -0.00751937
v -0.92772508 0.46110433 0.07969831
v 0.54133964 0.73357660 0.18867248
v 0.58811694 0.72735703 0.06019403
v 0.44250262 0.69322073 0.44243652
v 0.49654439 0.72220206 0.31959608
v 0.75707430 0.62286663 0.22387417
v 0.63212883 0.68018872 0.27247471
v 0.70823348 0.62095851 0.36074051
v 0.13903047 0.51393992 0.89492643
v 0.22035156 0.56925094 0.80460465
v 0.48788029 0.51074141 0.78571928
v 0.35861084 0.53254914 0.79798555
v 0.41365358 0.42696416 0.88918597
v 0.29758003 0.62022305 0.69610554
v 0.37005046 0.66084820 0.58130151
v 0.94108951 0.25861561 0.53783023
v 0.85125983 0.33629635 0.61258346
v 0.86621207 0.20812774 0.69113767
v 0.78434330 0.52776343 0.45666525
v 0.82707858 0.44359940 0.54033035
v 0.89203537 0.47189641 0.38189092
v 0.66071254 0.34040141 0.82286960
v 0.74311972 0.39713976 0.69353420
v 0.63733900 0.45621744 0.75046122
v 0.51923186 0.62347054 0.55324173
v 0.58223373 0.54286075 0.65463293
v 0.65274173 0.59214759 0.50959396
v -0.13980129 0.39473101 0.97487772
v -0.00171588 0.45566154 0.94850659
v -0.41120848 0.30810252 0.95451742
v -0.28055060 0.36138728 0.98133296
v 0.00323647 0.24116619 1.07937610
v -0.14637987 0.29303065 1.04975057
v -0.14779000 0.18856691 1.10251474
v -0.87543565 0.10128148 0.69576377
v -0.78038496 0.16030850 0.79227811
v -0.56193900 0.07573930 0.91233307
v -0.67630285 0.03435506 0.87556285
v -0.67014140 0.11357725 0.82100046
v -0.67809987 0.17788783 0.87484843
v -0.55835909 0.23490356 0.91916478
v 0.00603268 0.17841057 0.95296085
v -0.15924069 0.17154956 0.95812553
v -0.12640193 0.24201716 0.88707709
v -0.17467687 0.04151152 1.09982431
v -0.15857099 0.08455889 1.03488386
v -0.01210507 0.01279278 1.08986759
v -0.37965590 0.21639609 0.84612286
v -0.31315145 0.15844682 0.97275990
v -0.42297760 0.12198678 0.97544044
v -0.43257034 0.17489895 1.00945020
v -0.43457395 0.01667514 1.01711762
v -0.30447188 0.12995504 1.08048689
v -1.01566803 0.02240998 0.39618796
v -0.98785621 0.01994502 0.54669052
v -1.09261906 0.05568475 0.11081988
v -1.07055521 0.05185562 0.24751042
v -0.85973686 0.16399643 0.38907012
v -0.94696975 0.01413552 0.35604951
v -0.89812297 0.11777238 0.27300218
v -0.96335232 0.02767340 -0.54690766
v -1.02520084 0.00016487 -0.40140250
v -0.92368299 0.14565678 -0.23026788
v -0.96486944 0.07695059 -0.31283277
v -0.90130717 0.20502824 -0.39257705
v -1.07917738 0.00718996 -0.22926866
v -1.09645605 0.04880474 -0.07505073
v -0.61508423 0.48482871 0.11893907
v -0.72248691 0.43883589 0.03088140
v -0.61293757 0.48683110 -0.06663662
v -0.83713251 0.25031188 0.19340840
v -0.77900755 0.34619284 0.13892485
v -0.79465729 0.34504050 0.29088503
v -0.77184975 0.36725193 -0.21931908
v -0.78602678 0.32905832 -0.03900393
v -0.82175434 0.24291646 -0.14971261
v -0.98767614 0.00057089 0.03257075
v -0.89853710 0.12585439 -0.05150937
v -0.91675222 0.13462040 0.11606368
v -0.78616256 0.09144095 -0.78381252
v -0.87772942 0.04010959 -0.68638331
v -0.57690400 0.26608440 -0.91540176
v -0.69102919 0.18095098 -0.87936133
v -0.63212681 0.10953824 -0.81339610
v -0.67850286 0.02661312 -0.88060230
v -0.56238341 0.00000000 -0.91425687
v -0.01341309 0.45382676 -0.96185094
v -0.14262398 0.42112678 -0.97519660
v -0.14256521 0.20646180 -1.09904552
v -0.14109623 0.31290510 -1.04332972
v -0.00314636 0.23185608 -1.08771539
v -0.28320202 0.38074094 -0.97033125
v -0.41567829 0.33130240 -0.95231092
v -0.14929013 0.24741741 -0.87636220
v -0.13350323 0.12204881 -0.93346071
v 0.00086472 0.22547784 -0.92706579
v -0.37994787 0.00000000 -0.93131882
v -0.25203958 0.07683218 -0.88367438
v -0.41104552 0.11210436 -0.83847785
v 0.02215755 0.00037381 -1.09370065
v -0.08430216 0.01103750 -0.99527800
v -0.13148248 0.09346338 -1.08155477
v -0.43846568 0.23032422 -1.01031077
v -0.30058390 0.14512993 -1.08096254
v -0.41931063 0.05979810 -1.01084805
v 0.19861358 0.57903767 -0.81756246
v 0.11769599 0.52078897 -0.90177846
v 0.34202081 0.68693727 -0.61643267
v 0.27291751 0.63969558 -0.72598547
v 0.39125374 0.43139806 -0.89500082
v 0.33814973 0.54505372 -0.82034409
v 0.47231528 0.49334842 -0.80004412
v 0.58893776 0.73069859 -0.09767860
v 0.54452288 0.74237174 -0.22799563
v 0.69031358 0.61852825 -0.40398604
v 0.62315917 0.68773651 -0.31303355
v 0.74766684 0.62405378 -0.26590919
v 0.48952124 0.73461741 -0.35810983
v 0.42055485 0.72332478 -0.47803017
v 0.85468459 0.20861250 -0.67827803
v 0.83269584 0.31723973 -0.63911313
v 0.93283910 0.26140526 -0.54753959
v 0.61443454 0.43464640 -0.77002817
v 0.72965711 0.37568730 -0.72174680
v 0.62394971 0.31019622 -0.84163177
v 0.85700327 0.47133917 -0.43702015
v 0.79204196 0.42561880 -0.57904327
v 0.74914116 0.52540535 -0.50889951
v 0.48634532 0.64946187 -0.58577418
v 0.62596774 0.58579761 -0.54853600
v 0.55145884 0.55142266 -0.68431193
v 0.62368757 0.49287951 0.08823414
v 0.57993650 0.45827076 0.21575364
v 0.48529357 0.51731747 0.13058685
v 0.71272457 0.32150084 0.36010012
v 0.65453100 0.40697360 0.31024477
v 0.77481419 0.29970589 0.25311029
v 0.36517122 0.59799451 0.35658908
v 0.50224334 0.48036772 0.34424543
v 0.43974042 0.50978094 0.42648953
v 0.88117892 0.05923544 0.70869058
v 0.84855437 0.06934701 0.64137453
v 0.97109348 0.03344527 0.55296093
v 0.60609782 0.19445188 0.73122805
v 0.70098454 0.08670510 0.69681877
v 0.62486297 0.08013181 0.83314270
v 0.85590839 0.11164481 0.40119052
v 0.78156823 0.12998460 0.55979592
v 0.74179184 0.20314804 0.47103861
v 0.08257514 0.33617970 0.77683616
v 0.22242418 0.34619173 0.78074741
v 0.15178141 0.25156453 0.90310609
v 0.37144497 0.50643128 0.56867653
v 0.29568383 0.45697010 0.67265946
v 0.20549810 0.54506636 0.58200288
v 0.41908413 0.22384802 0.86926138
v 0.34923631 0.32618675 0.74429536
v 0.47997400 0.26516727 0.75053281
v 0.63282156 0.31462947 0.47505000
v 0.55737370 0.32199776 0.60205954
v 0.50079387 0.42384198 0.50348341
v 0.38023829 0.42291081 0.15528417
v 0.39007613 0.40644053 0.01181379
v 0.22547358 0.61399400 0.32162479
v 0.32187676 0.56427991 0.25552315
v 0.10311151 0.36945936 0.01777227
v 0.21001273 0.44005904 0.14288500
v 0.06213874 0.48162398 0.16070856
v -0.06800591 0.38080701 0.77164811
v 0.00080361 0.46914178 0.71757489
v -0.14010179 0.60221428 0.50077105
v -0.07551929 0.52511150 0.61768049
v -0.20608893 0.53329945 0.56508732
v 0.05790774 0.53580278 0.60706192
v 0.13754916 0.58133447 0.46402147
v -0.41613245 0.56157988 0.07390693
v -0.34494370 0.66388649 0.14018609
v -0.49059874 0.62907541 0.14889923
v -0.08696113 0.51175588 0.16417046
v -0.19339539 0.64321411 0.14385401
v -0.16548909 0.47938678 0.04135586
v -0.39602441 0.62757981 0.36789218
v -0.27800491 0.68652493 0.25048673
v -0.24836901 0.65442944 0.33973959
v 0.08437306 0.66567087 0.36066034
v -0.09313978 0.64530051 0.35521632
v 0.01035797 0.50363094 0.30386943
v 0.30819896 0.39067605 -0.12010837
v 0.45898268 0.49076211 -0.08639287
v 0.07082830 0.40884101 -0.12431737
v 0.17131531 0.37245822 -0.15149607
v 0.43055928 0.48124367 -0.35259596
v 0.31310853 0.49019349 -0.25050944
v 0.23632452 0.48993349 -0.37758422
v -0.47621268 0.59977764 -0.08003925
v -0.40491748 0.47311449 -0.08049178
v -0.26933759 0.38606724 -0.34571156
v -0.33752313 0.43911380 -0.22613500
v -0.40932149 0.48872846 -0.35692552
v -0.27144313 0.40579811 -0.07586967
v -0.13001269 0.43623304 -0.09168881
v 0.07425382 0.38505143 -0.74813378
v -0.02454583 0.44559649 -0.64678741
v -0.09361162 0.38013476 -0.75460798
v 0.14030410 0.43690073 -0.49160150
v 0.07588891 0.53519249 -0.53692704
v 0.24391581 0.48991555 -0.57207239
v -0.18447314 0.35233033 -0.58727849
v -0.08604348 0.53699976 -0.56249911
v -0.17062120 0.46536237 -0.49350536
v -0.01228758 0.41251647 -0.24800900
v -0.09703347 0.38153529 -0.37855521
v 0.07693098 0.44480541 -0.36010331
v 0.60275793 0.50189787 -0.20853129
v 0.61288387 0.45065430 -0.09849302
v 0.49369571 0.45731026 -0.43801102
v 0.55820310 0.47996515 -0.32202694
v 0.77012992 0.27573928 -0.23062144
v 0.68597293 0.41285899 -0.27433977
v 0.72521275 0.27475822 -0.35739955
v 0.13943490 0.29488489 -0.84595460
v 0.22271486 0.37753779 -0.78366214
v 0.51335377 0.29383853 -0.75456303
v 0.37498909 0.33230981 -0.75724888
v 0.39771953 0.28004217 -0.86105227
v 0.30466700 0.42294449 -0.65853661
v 0.39131677 0.44162202 -0.57109535
v 0.97071338 0.05995187 -0.54222322
v 0.87155956 0.01169477 -0.62855995
v 0.85968095 0.06675855 -0.68710417
v 0.77339679 0.18076469 -0.45145407
v 0.82838070 0.07450903 -0.51939321
v 0.86610579 0.06049141 -0.37947905
v 0.62751877 0.14636150 -0.81424117
v 0.74130553 0.09356047 -0.67506272
v 0.63741547 0.21195465 -0.72918051
v 0.54538566 0.37720114 -0.54743361
v 0.61309564 0.29709753 -0.61666358
v 0.68442899 0.29629308 -0.49433520
v 0.70525467 0.40998128 -0.00262363
v 0.86669564 0.18575950 -0.12839161
v 0.80630630 0.28273574 -0.07046212
v 0.81873161 0.33252716 0.08959925
v 0.85163927 0.22965045 0.17783329
v 1.01973069 0.17303103 -0.45105129
v 1.04323101 0.07984186 -0.39492941
v 1.11730134 0.08580194 -0.07460627
v 1.08934999 0.08875634 -0.23802067
v 1.09755862 0.18975934 -0.15589432
v 1.01153445 0.00047652 -0.29700154
v 0.92680097 0.05863054 -0.23184904
v 1.03649473 0.08331531 0.41781873
v 1.01623094 0.16344394 0.46963668
v 0.92830366 0.09729203 0.26845437
v 0.98231196 0.00000000 0.35828301
v 1.09377646 0.17787565 0.15835264
v 1.06650591 0.05857097 0.26891297
v 1.09054470 0.09705190 0.10281484
v 0.93919200 0.10285281 -0.06751649
v 1.03508019 0.00637206 0.02720659
v 0.94524050 0.10739345 0.12467332
v 0.14120775 0.11720938 0.96216279
v 0.39237389 0.15188923 0.93111378
v 0.29908124 0.10427754 0.97394764
v 0.13178658 0.07720099 1.04800427
v 0.16123818 0.04117948 1.09252536
v 0.79225951 0.13947366 0.79857832
v 0.58714992 0.26039574 0.93151313
v 0.71140087 0.21069889 0.86592573
v 0.67716807 0.06032820 0.88447726
v 0.51550770 0.04794826 0.93983930
v 0.14140800 0.41793412 0.96255451
v 0.15315557 0.21361274 1.09836102
v 0.14156185 0.32034400 1.04218781
v 0.28839737 0.38502672 0.97540176
v 0.42784905 0.32055372 0.95677865
v 0.42720589 0.04909367 1.01210952
v 0.45118335 0.19694732 1.00858510
v 0.29154423 0.14761214 1.07662070
v -0.58629167 0.52579242 0.22782457
v -0.46208581 0.53265834 0.46636143
v -0.51997173 0.55916643 0.33505186
v -0.65360618 0.43983558 0.32361168
v -0.70481294 0.35464466 0.39956412
v -0.18473090 0.34908825 0.79258192
v -0.46314380 0.27593213 0.73978996
v -0.32538676 0.35334629 0.76640195
v -0.28519356 0.46369222 0.70104659
v -0.35296378 0.49572200 0.57818043
v -0.88100362 0.02824546 0.63910192
v -0.77374208 0.21565413 0.48831680
v -0.80017370 0.14648519 0.55834311
v -0.75103295 0.13709535 0.69129825
v -0.64120066 0.21550943 0.73810691
v -0.50749189 0.41838059 0.52999151
v -0.56933355 0.30576146 0.66095465
v -0.64557898 0.33037406 0.50895160
v -0.20868216 0.32984021 -0.82246786
v -0.29427809 0.44815227 -0.57308561
v -0.26782772 0.40386358 -0.72460586
v -0.34062120 0.26450565 -0.76907992
v -0.44687930 0.24400195 -0.76111925
v -0.56779712 0.49449849 -0.17749125
v -0.71524948 0.37653008 -0.36362147
v -0.64397693 0.42228389 -0.25501639
v -0.54222280 0.51740885 -0.33448830
v -0.46827650 0.49387866 -0.49625874
v -0.84287995 0.08331243 -0.61784530
v -0.59537691 0.23470181 -0.75304610
v -0.72091669 0.16502331 -0.68932885
v -0.81272978 0.20829046 -0.54618496
v -0.79116666 0.28617054 -0.47535694
v -0.49064830 0.44122297 -0.58439934
v -0.64646411 0.38492182 -0.51999372
v -0.56060511 0.32891983 -0.67655092
v 0.78118819 0.15096967 -0.78225881
v 0.53911531 0.10593963 -0.92293358
v 0.66953301 0.02462430 -0.87613142
v 0.67239660 0.17432287 -0.86710829
v 0.55524570 0.22656623 -0.92710739
v 0.13542949 0.20100936 -0.93962550
v 0.16952215 0.04237564 -1.10629547
v 0.16363896 0.05908880 -1.00711310
v 0.27685913 0.17625780 -0.96433187
v 0.38894022 0.19163220 -0.96530855
v 0.12221234 0.41593802 -0.96843117
v 0.40312377 0.30565485 -0.96780634
v 0.26758468 0.37498361 -0.97223300
v 0.12579584 0.30992350 -1.04044986
v 0.14907303 0.19550504 -1.09458995
v 0.42815638 0.02166695 -1.00092733
v 0.29433841 0.14214747 -1.08916986
v 0.42509496 0.18318284 -1.00459218
v 1.01112652 0.28601864 0.39493787
v 1.07885110 0.28975824 0.08786718
v 1.05128181 0.29314148 0.23841953
v 0.99505031 0.38728142 0.31097975
v 0.94638461 0.48402396 0.23700154
v 0.99339956 0.29785058 -0.41241804
v 0.91748822 0.48932984 -0.28860608
v 0.94970465 0.40023252 -0.35775286
v 1.04317260 0.29771730 -0.26470196
v 1.07916713 0.30708015 -0.10768028
v 0.68470114 0.68512422 -0.01497390
v 0.85585600 0.57054472 0.14335904
v 0.77750337 0.63186067 0.06931844
v 0.77435929 0.63222158 -0.10067993
v 0.84694141 0.57207036 -0.19309242
v 1.02137852 0.38190460 -0.02525158
v 0.94566619 0.50069189 -0.11733004
v 0.95018023 0.49479118 0.06265168
f 330 87 329
f 336 325 26
f 207 208 56
f 464 36 580
f 502 129 504
f 157 624 622
f 308 311 82
f 247 223 248
f 507 483 508
f 331 88 329
f 494 500 497
f 156 601 602
f 591 589 592
f 365 98 596
f 75 281 282
f 152 587 577
f 149 559 560
f 555 121 553
f 530 141 529
f 515 517 139
f 361 594 98
f 250 67 249
f 157 608 609
f 294 293 209
f 317 81 316
f 557 338 26
f 303 305 81
f 530 529 528
f 101 381 382
f 415 418 111
f 192 184 50
f 412 110 411
f 20 384 256
f 131 594 486
f 281 264 282
f 347 287 348
f 28 349 582
f 165 163 1
f 248 250 66
f 617 107 398
f 273 271 274
f 456 115 453
f 558 561 560
f 335 576 91
f 331 177 332
f 116 433 436
f 351 370 92
f 136 511 530
f 239 240 65
f 247 258 19
f 304 23 567
f 148 557 570
f 214 208 58
f 440 426 450
f 268 270 269
f 258 247 268
f 204 202 16
f 466 125 465
f 517 513 133
f 168 275 274
f 275 73 274
f 198 193 53
f 309 308 307
f 510 511 136
f 415 416 110
f 131 490 597
f 473 475 474
f 414 415 111
f 493 495 494
f 496 504 485
f 433 116 432
f 600 375 601
f 240 234 65
f 418 415 412
f 486 361 3
f 567 566 304
f 380 393 29
f 17 199 197
f 491 492 132
f 451 449 435
f 218 217 216
f 623 621 613
f 396 104 395
f 433 439 436
f 628 160 627
f 215 202 217
f 209 207 2
f 427 113 424
f 434 10 544
f 434 433 432
f 199 17 210
f 150 564 565
f 489 491 132
f 275 13 285
f 497 500 134
f 125 466 476
f 578 152 577
f 208 214 211
f 328 88 343
f 356 27 603
f 150 566 567
f 372 100 371
f 190 191 47
f 235 8 398
f 260 261 72
f 422 403 414
f 422 414 111
f 453 454 123
f 349 583 582
f 521 520 519
f 425 453 115
f 616 622 158
f 483 130 508
f 151 586 572
f 212 17 232
f 400 397 402
f 377 396 99
f 41 522 511
f 510 508 505
f 549 547 42
f 475 473 36
f 510 137 509
f 222 221 197
f 430 115 429
f 220 194 1
f 305 54 204
f 621 29 613
f 192 171 184
f 460 335 5
f 88 331 332
f 74 277 279
f 300 301 80
f 390 389 388
f 165 45 164
f 146 549 551
f 291 278 75
f 448 120 445
f 147 543 544
f 607 610 609
f 603 602 356
f 139 529 514
f 333 553 443
f 92 368 347
f 261 260 259
f 300 6 200
f 46 177 331
f 284 283 174
f 301 300 200
f 471 468 474
f 54 305 301
f 302 304 303
f 569 150 567
f 150 569 570
f 294 209 2
f 628 629 160
f 548 543 147
f 147 625 627
f 63 233 234
f 426 427 114
f 41 509 532
f 198 52 196
f 614 105 612
f 147 627 547
f 81 305 306
f 549 548 547
f 54 301 200
f 342 88 332
f 264 281 70
f 193 194 53
f 455 429 456
f 187 321 14
f 479 130 484
f 147 544 625
f 458 456 453
f 304 80 303
f 314 84 313
f 488 503 501
f 321 332 14
f 423 425 424
f 305 204 306
f 341 339 25
f 514 40 516
f 625 628 627
f 340 339 341
f 105 614 391
f 243 228 62
f 318 316 78
f 75 278 279
f 357 355 353
f 238 257 63
f 466 455 476
f 425 423 4
f 448 449 120
f 408 638 108
f 292 275 285
f 22 278 289
f 515 513 517
f 501 503 134
f 622 623 158
f 134 503 504
f 195 216 206
f 163 271 246
f 619 617 620
f 62 228 229
f 163 165 164
f 453 425 454
f 489 132 488
f 82 628 625
f 58 208 209
f 525 608 40
f 626 547 627
f 518 517 498
f 489 487 491
f 557 26 564
f 325 336 344
f 541 145 539
f 40 616 516
f 338 556 89
f 250 248 245
f 139 514 515
f 98 594 596
f 246 220 1
f 112 413 630
f 9 536 413
f 156 600 601
f 332 177 14
f 321 342 332
f 156 606 600
f 584 330 585
f 302 303 81
f 584 87 330
f 330 25 585
f 400 239 65
f 439 440 117
f 95 358 368
f 597 594 131
f 594 361 486
f 246 67 245
f 561 562 149
f 28 364 362
f 55 216 217
f 427 430 114
f 267 20 254
f 556 555 553
f 84 309 558
f 311 310 312
f 609 525 142
f 256 68 255
f 124 460 461
f 82 311 312
f 307 308 82
f 589 135 495
f 527 40 514
f 112 418 412
f 20 256 254
f 258 238 19
f 267 254 269
f 273 272 249
f 392 391 393
f 137 533 509
f 122 455 456
f 9 413 411
f 130 480 505
f 333 443 5
f 527 525 40
f 589 495 385
f 39 496 485
f 223 225 224
f 414 416 415
f 219 222 53
f 145 538 539
f 413 412 411
f 469 468 467
f 183 181 6
f 191 192 50
f 429 35 431
f 292 285 76
f 413 112 412
f 415 110 412
f 43 164 167
f 467 468 126
f 617 101 620
f 450 451 117
f 438 546 545
f 619 620 159
f 17 212 210
f 124 579 576
f 584 153 583
f 460 124 576
f 3 469 467
f 311 308 314
f 6 320 183
f 389 104 388
f 251 250 249
f 194 165 1
f 291 289 278
f 287 77 348
f 238 258 257
f 139 517 518
f 238 236 19
f 223 247 19
f 382 380 29
f 39 518 498
f 361 359 3
f 69 255 257
f 139 518 528
f 33 545 535
f 387 385 7
f 69 268 269
f 477 462 125
f 454 479 123
f 121 555 447
f 451 435 117
f 454 425 4
f 233 252 8
f 124 463 464
f 69 258 268
f 168 167 166
f 583 153 582
f 384 394 102
f 138 512 513
f 57 210 211
f 254 256 255
f 607 609 142
f 324 319 86
f 289 291 76
f 291 292 76
f 384 102 383
f 422 421 420
f 221 17 197
f 383 102 381
f 376 377 99
f 99 373 374
f 386 105 392
f 438 33 440
f 90 341 343
f 281 75 279
f 574 571 96
f 628 82 312
f 221 222 59
f 127 471 474
f 595 605 603
f 551 538 145
f 334 91 340
f 322 324 85
f 305 303 301
f 18 239 399
f 306 204 16
f 199 198 197
f 166 190 180
f 303 80 301
f 267 266 265
f 626 42 547
f 16 215 213
f 349 351 350
f 295 16 213
f 68 379 252
f 250 251 66
f 627 160 626
f 383 68 256
f 343 88 342
f 507 508 136
f 202 215 16
f 197 198 53
f 254 69 269
f 603 605 156
f 418 419 111
f 384 383 256
f 455 122 476
f 203 204 54
f 556 557 148
f 255 68 253
f 313 84 560
f 25 328 341
f 254 255 69
f 603 156 602
f 581 584 583
f 630 632 112
f 163 246 1
f 246 245 220
f 432 116 558
f 499 591 590
f 320 563 86
f 345 93 350
f 306 16 295
f 346 93 345
f 562 568 149
f 604 605 155
f 154 592 593
f 545 552 535
f 511 522 530
f 574 573 571
f 566 150 565
f 361 98 360
f 67 271 273
f 234 235 65
f 208 211 56
f 574 151 573
f 251 270 66
f 398 8 378
f 213 215 214
f 438 440 439
f 315 314 313
f 263 71 262
f 20 373 384
f 496 134 504
f 329 88 328
f 81 306 316
f 555 556 148
f 592 589 103
f 617 619 107
f 227 207 56
f 571 359 96
f 446 466 465
f 206 216 55
f 359 571 469
f 568 148 570
f 34 437 435
f 28 351 349
f 21 272 282
f 113 423 424
f 490 489 488
f 379 68 383
f 210 212 211
f 80 563 300
f 351 92 350
f 326 346 12
f 83 317 318
f 555 148 554
f 212 231 56
f 218 57 217
f 271 67 246
f 195 196 52
f 270 268 66
f 390 592 103
f 148 568 554
f 495 493 7
f 592 390 593
f 357 95 355
f 574 575 151
f 452 120 451
f 154 591 592
f 587 585 577
f 395 394 396
f 93 349 350
f 610 416 611
f 166 44 190
f 315 23 302
f 315 302 317
f 268 247 66
f 606 154 593
f 396 394 99
f 211 212 56
f 370 369 368
f 235 397 65
f 280 278 22
f 83 315 317
f 575 588 151
f 74 279 280
f 385 495 7
f 63 257 253
f 397 235 398
f 214 58 213
f 220 219 194
f 546 146 545
f 236 225 19
f 599 94 602
f 235 233 8
f 102 394 395
f 611 416 32
f 225 223 19
f 139 528 529
f 231 62 229
f 419 406 421
f 451 450 452
f 49 182 185
f 402 397 107
f 52 199 218
f 416 610 110
f 225 236 244
f 107 397 398
f 68 252 253
f 322 85 321
f 182 181 183
f 118 438 439
f 546 438 118
f 348 77 345
f 543 546 118
f 231 212 232
f 610 611 157
f 33 438 545
f 385 386 103
f 479 480 130
f 169 195 15
f 93 583 349
f 15 195 206
f 190 44 192
f 247 248 66
f 146 552 545
f 248 60 245
f 570 557 564
f 274 271 43
f 63 253 233
f 272 21 249
f 507 528 518
f 67 273 249
f 487 467 126
f 196 195 169
f 624 159 623
f 134 496 497
f 132 503 488
f 104 393 395
f 556 553 89
f 355 356 94
f 258 69 257
f 229 61 227
f 56 231 227
f 460 576 335
f 463 124 461
f 394 373 99
f 29 393 391
f 67 250 245
f 193 198 196
f 462 36 464
f 144 633 630
f 141 526 527
f 517 133 498
f 536 144 630
f 100 372 599
f 144 536 537
f 22 289 287
f 578 579 152
f 579 578 576
f 189 188 187
f 60 223 224
f 92 348 350
f 555 554 447
f 396 377 388
f 194 193 165
f 413 536 630
f 372 352 599
f 377 376 375
f 348 345 350
f 105 386 387
f 240 237 234
f 463 462 464
f 135 500 494
f 45 196 169
f 512 612 387
f 245 60 220
f 429 115 456
f 223 60 248
f 288 289 76
f 525 526 142
f 100 599 601
f 613 29 391
f 526 523 520
f 341 328 343
f 631 641 639
f 264 21 282
f 266 72 265
f 106 402 403
f 73 273 274
f 186 206 205
f 381 379 383
f 52 216 195
f 410 18 399
f 290 272 73
f 72 371 374
f 526 525 527
f 115 430 424
f 498 497 496
f 621 382 29
f 543 118 434
f 214 215 57
f 522 141 530
f 511 510 509
f 352 94 599
f 493 512 7
f 90 340 341
f 169 171 170
f 605 604 606
f 219 60 224
f 104 389 392
f 359 469 3
f 186 49 185
f 222 219 224
f 166 167 44
f 428 427 426
f 523 522 524
f 129 502 481
f 50 185 188
f 164 45 170
f 425 115 424
f 33 428 426
f 427 428 113
f 94 356 602
f 515 138 513
f 114 431 452
f 237 236 238
f 215 217 57
f 95 354 355
f 220 60 219
f 515 514 516
f 183 320 319
f 222 197 53
f 559 569 567
f 300 320 6
f 435 436 117
f 96 360 363
f 640 642 641
f 242 243 62
f 140 537 519
f 508 130 505
f 420 410 399
f 537 539 144
f 317 316 318
f 426 114 450
f 186 15 206
f 311 83 310
f 625 544 307
f 544 10 307
f 168 43 167
f 185 182 188
f 369 354 95
f 44 171 192
f 605 606 156
f 548 549 146
f 100 601 375
f 149 568 569
f 381 380 382
f 455 466 35
f 480 479 454
f 543 548 546
f 493 133 513
f 492 472 37
f 477 125 476
f 491 487 126
f 337 336 338
f 588 153 587
f 576 578 91
f 633 161 632
f 96 359 360
f 39 485 483
f 101 617 378
f 193 45 165
f 163 164 43
f 618 624 611
f 507 136 528
f 561 149 560
f 641 162 639
f 116 561 558
f 494 133 493
f 253 252 233
f 63 237 238
f 392 393 104
f 440 450 117
f 93 581 583
f 386 385 387
f 120 449 451
f 421 422 111
f 486 3 467
f 302 81 317
f 633 632 630
f 462 475 36
f 376 99 374
f 489 490 131
f 447 449 448
f 387 612 105
f 106 420 399
f 173 46 172
f 492 491 472
f 316 306 295
f 22 287 347
f 109 410 420
f 507 39 483
f 559 23 313
f 214 57 211
f 196 45 193
f 10 434 432
f 422 106 403
f 626 160 640
f 487 486 467
f 542 41 532
f 400 106 399
f 444 120 452
f 198 199 52
f 475 127 474
f 621 620 382
f 621 623 159
f 450 114 452
f 92 347 348
f 376 100 375
f 434 118 433
f 503 132 502
f 337 90 336
f 537 536 519
f 395 393 380
f 201 54 200
f 171 44 170
f 355 94 353
f 58 296 213
f 422 420 106
f 595 365 596
f 569 568 570
f 523 140 520
f 114 430 431
f 218 210 57
f 304 566 80
f 639 162 638
f 261 371 72
f 548 147 547
f 498 133 497
f 150 570 564
f 222 224 59
f 142 526 520
f 437 436 435
f 141 522 523
f 137 510 505
f 173 179 176
f 559 149 569
f 121 447 448
f 563 320 300
f 102 395 380
f 257 255 253
f 642 162 641
f 83 311 314
f 216 52 218
f 512 493 513
f 23 304 302
f 91 339 340
f 512 138 612
f 159 620 621
f 218 199 210
f 364 28 575
f 83 318 310
f 168 274 43
f 136 530 528
f 140 523 524
f 495 135 494
f 233 235 234
f 566 563 80
f 25 339 577
f 277 74 276
f 475 462 477
f 133 494 497
f 436 437 116
f 389 386 392
f 548 146 546
f 441 460 5
f 10 309 307
f 65 397 400
f 543 434 544
f 640 641 161
f 272 273 73
f 581 93 346
f 419 421 111
f 319 320 86
f 180 179 178
f 127 475 477
f 231 229 227
f 337 334 340
f 136 508 510
f 308 309 84
f 237 63 234
f 447 554 34
f 252 379 378
f 315 83 314
f 608 622 616
f 338 336 26
f 337 338 89
f 13 275 168
f 209 208 207
f 436 439 117
f 628 312 629
f 360 366 363
f 364 574 96
f 359 361 360
f 466 446 35
f 500 501 134
f 406 109 421
f 135 589 591
f 601 599 602
f 340 90 337
f 481 492 37
f 522 41 524
f 78 316 295
f 131 486 487
f 403 32 414
f 634 626 640
f 151 572 573
f 515 516 138
f 8 252 378
f 265 72 374
f 9 521 519
f 538 549 42
f 368 358 347
f 588 587 586
f 458 453 123
f 589 385 103
f 502 492 481
f 32 416 414
f 430 427 424
f 153 585 587
f 540 144 539
f 370 368 92
f 209 293 58
f 428 33 535
f 326 581 346
f 625 307 82
f 575 28 582
f 6 181 200
f 421 109 420
f 553 121 443
f 160 642 640
f 153 584 585
f 309 432 558
f 334 337 89
f 23 315 313
f 271 163 43
f 296 295 213
f 39 498 496
f 118 439 433
f 531 113 534
f 293 296 58
f 28 362 351
f 489 131 487
f 431 444 452
f 84 558 560
f 98 366 360
f 45 169 170
f 379 101 378
f 462 463 125
f 308 84 314
f 10 432 309
f 299 24 310
f 132 492 502
f 512 387 7
f 639 638 408
f 565 323 86
f 59 244 242
f 106 400 402
f 440 33 426
f 566 565 563
f 617 398 378
f 224 225 59
f 410 109 409
f 239 400 399
f 194 219 53
f 358 22 347
f 610 157 609
f 27 595 603
f 479 484 482
f 142 520 521
f 585 25 577
f 339 578 577
f 408 407 406
f 407 109 406
f 31 408 406
f 407 408 108
f 31 639 408
f 419 31 406
f 608 616 40
f 430 429 431
f 455 35 429
f 35 444 431
f 188 51 187
f 188 182 51
f 51 322 187
f 322 51 319
f 51 182 183
f 319 51 183
f 187 322 321
f 322 319 324
f 381 101 379
f 405 407 108
f 404 405 108
f 286 285 178
f 407 405 409
f 109 407 409
f 191 175 47
f 167 164 170
f 50 184 185
f 44 167 170
f 64 244 236
f 243 244 64
f 50 188 189
f 541 542 145
f 442 445 119
f 339 91 578
f 445 446 119
f 624 623 622
f 611 624 157
f 523 526 141
f 141 527 529
f 527 514 529
f 445 120 444
f 446 445 444
f 35 446 444
f 613 614 158
f 158 614 615
f 623 613 158
f 614 613 391
f 614 612 615
f 371 376 374
f 100 376 371
f 479 482 123
f 373 394 384
f 540 42 634
f 633 540 634
f 538 42 540
f 633 634 161
f 161 634 640
f 42 626 634
f 540 633 144
f 557 556 338
f 553 333 89
f 262 21 264
f 251 21 262
f 5 335 333
f 270 251 262
f 21 251 249
f 600 593 30
f 606 593 600
f 600 30 375
f 593 390 30
f 30 377 375
f 390 388 30
f 30 388 377
f 228 243 241
f 470 478 459
f 470 127 478
f 127 477 478
f 184 186 185
f 478 477 476
f 122 478 476
f 357 74 280
f 518 39 507
f 344 342 85
f 325 344 85
f 342 344 343
f 85 342 321
f 344 90 343
f 90 344 336
f 482 129 481
f 482 481 457
f 482 457 123
f 481 37 457
f 449 447 34
f 435 449 34
f 470 472 471
f 472 470 37
f 470 471 127
f 472 126 471
f 126 468 471
f 470 459 37
f 491 126 472
f 504 129 485
f 221 59 242
f 125 463 465
f 437 34 562
f 561 437 562
f 554 568 562
f 34 554 562
f 437 561 116
f 390 103 389
f 103 386 389
f 392 105 391
f 572 586 580
f 572 580 36
f 586 152 580
f 473 572 36
f 244 243 242
f 225 244 59
f 64 240 241
f 240 239 241
f 237 240 64
f 243 64 241
f 236 237 64
f 411 607 521
f 9 411 521
f 110 607 411
f 607 142 521
f 610 607 110
f 171 15 184
f 171 169 15
f 15 186 184
f 87 584 581
f 153 588 582
f 588 575 582
f 381 102 380
f 573 572 473
f 468 469 128
f 474 468 128
f 469 571 128
f 571 573 128
f 573 473 128
f 473 474 128
f 564 323 565
f 26 323 564
f 323 324 86
f 325 323 26
f 325 324 323
f 563 565 86
f 324 325 85
f 410 230 18
f 230 228 18
f 18 228 241
f 18 241 239
f 401 619 618
f 401 402 107
f 403 402 401
f 619 159 618
f 401 618 32
f 619 401 107
f 403 401 32
f 618 611 32
f 159 624 618
f 478 122 459
f 122 458 459
f 37 459 457
f 459 458 457
f 122 456 458
f 457 458 123
f 191 190 192
f 485 129 484
f 129 482 484
f 483 485 484
f 130 483 484
f 189 187 14
f 191 50 189
f 191 189 175
f 189 14 175
f 14 177 175
f 499 501 500
f 501 499 38
f 38 499 590
f 135 499 500
f 488 501 38
f 499 135 591
f 480 454 4
f 284 12 346
f 4 423 506
f 480 4 506
f 423 531 506
f 480 506 505
f 531 137 506
f 506 137 505
f 365 366 98
f 71 270 262
f 270 71 269
f 71 267 269
f 335 334 333
f 333 334 89
f 334 335 91
f 536 9 519
f 465 463 461
f 537 140 541
f 520 140 519
f 119 446 465
f 465 461 119
f 461 441 119
f 460 441 461
f 176 46 173
f 299 297 24
f 71 263 266
f 263 260 266
f 260 72 266
f 263 70 260
f 205 201 49
f 201 181 49
f 186 205 49
f 181 201 200
f 181 182 49
f 284 77 283
f 586 587 152
f 588 586 151
f 20 267 265
f 266 267 71
f 31 417 631
f 631 417 632
f 31 631 639
f 417 31 419
f 641 631 161
f 417 112 632
f 161 631 632
f 418 417 419
f 417 418 112
f 284 345 77
f 542 550 145
f 542 541 524
f 284 174 12
f 48 174 283
f 373 20 265
f 373 265 374
f 609 608 525
f 608 157 622
f 560 559 313
f 636 637 162
f 541 140 524
f 41 542 524
f 358 357 280
f 70 263 264
f 263 262 264
f 176 177 46
f 174 48 173
f 174 173 172
f 538 551 549
f 538 540 539
f 537 541 539
f 232 221 242
f 17 221 232
f 232 242 62
f 231 232 62
f 203 205 55
f 203 55 202
f 201 205 203
f 202 55 217
f 205 206 55
f 204 203 202
f 73 275 292
f 292 290 73
f 272 290 282
f 290 292 291
f 75 290 291
f 290 75 282
f 70 277 259
f 277 70 281
f 277 281 279
f 260 70 259
f 12 174 172
f 104 396 388
f 367 27 354
f 365 27 367
f 354 27 356
f 365 367 366
f 595 27 365
f 318 299 310
f 155 596 597
f 155 597 598
f 596 594 597
f 595 596 155
f 605 595 155
f 180 47 179
f 180 190 47
f 352 372 11
f 11 372 261
f 312 310 24
f 642 636 162
f 636 297 637
f 367 369 97
f 366 367 97
f 369 367 354
f 369 370 97
f 580 579 464
f 580 152 579
f 579 124 464
f 61 230 409
f 230 410 409
f 230 61 229
f 230 229 228
f 76 285 286
f 353 352 276
f 74 353 276
f 288 76 286
f 288 286 283
f 289 288 287
f 203 54 201
f 287 288 77
f 77 288 283
f 286 48 283
f 531 423 113
f 276 11 259
f 11 261 259
f 277 276 259
f 616 158 615
f 516 616 615
f 138 516 615
f 138 615 612
f 509 533 532
f 503 502 504
f 635 79 294
f 635 294 404
f 635 637 79
f 637 635 638
f 638 635 108
f 635 404 108
f 226 61 405
f 61 226 227
f 405 61 409
f 227 226 207
f 48 178 179
f 48 286 178
f 173 48 179
f 534 143 533
f 534 535 143
f 531 534 533
f 533 143 532
f 137 531 533
f 261 372 371
f 13 180 178
f 285 13 178
f 180 13 166
f 13 168 166
f 346 345 284
f 331 327 46
f 46 327 172
f 172 327 326
f 382 620 101
f 442 121 448
f 443 121 442
f 2 226 404
f 294 2 404
f 404 226 405
f 207 226 2
f 550 551 145
f 552 146 551
f 143 550 532
f 552 550 143
f 330 329 328
f 24 636 629
f 94 352 353
f 352 11 276
f 113 428 534
f 428 535 534
f 509 41 511
f 535 552 143
f 550 552 551
f 550 542 532
f 369 95 368
f 326 327 87
f 87 327 329
f 327 331 329
f 581 326 87
f 293 79 298
f 79 297 298
f 296 298 78
f 79 293 294
f 296 293 298
f 598 490 38
f 358 280 22
f 280 279 278
f 357 358 95
f 74 357 353
f 330 328 25
f 567 23 559
f 590 598 38
f 590 604 598
f 598 604 155
f 604 590 154
f 590 591 154
f 604 154 606
f 297 299 298
f 299 318 78
f 298 299 78
f 355 354 356
f 629 636 642
f 312 24 629
f 629 642 160
f 370 362 97
f 362 363 97
f 363 366 97
f 364 363 362
f 362 370 351
f 96 363 364
f 297 636 24
f 162 637 638
f 637 297 79
f 490 488 38
f 598 597 490
f 441 442 119
f 443 442 441
f 443 441 5
f 442 448 445
f 296 78 295
f 326 12 172
f 575 574 364
f 47 175 176
f 175 177 176
f 47 176 179
