# FEM surface export ¡ª frame 410
# Vertices: 642  Faces: 1280
v -0.51989782 1.14069140 -0.00258288
v 0.52055353 1.13982403 -0.00039879
v -0.54313564 0.01208799 -0.03878080
v 0.55186170 0.11784109 0.00885687
v 0.00671894 0.00000000 0.96527004
v -0.00006396 0.87006897 0.86681759
v -0.00341400 0.00080551 -0.98205680
v -0.00094376 0.87001652 -0.86607766
v 0.90628660 0.40442899 -0.56202084
v 0.90731829 0.39922342 0.55913800
v -0.90241200 0.39924118 -0.55876863
v -0.90409368 0.40470424 0.56120783
v -0.82655752 0.84683621 0.31491429
v -0.51828474 0.68176824 0.83954734
v -0.30738747 1.10695398 0.49523467
v 0.30735573 1.10773826 0.49684757
v 0.00059965 1.25769353 -0.00102742
v 0.30665869 1.10874939 -0.49597329
v -0.30738485 1.10750735 -0.49753496
v -0.51971865 0.67673212 -0.83832359
v -0.82670546 0.84528697 -0.31641757
v -1.06573772 0.40152517 0.00377806
v 0.52127439 0.67895031 0.84088767
v 0.82653028 0.84789181 0.31581303
v -0.54298151 0.13368231 0.88176543
v 0.00279122 0.40217760 1.06646717
v -0.93067735 0.00000000 -0.34723157
v -0.91960484 0.00154666 0.35431510
v -0.00143480 0.40385988 -1.06259286
v -0.54804242 0.13729385 -0.87954748
v 0.82724661 0.84663099 -0.31637317
v 0.51817596 0.68004525 -0.84051764
v 0.91869754 0.00000000 0.33892658
v 0.54946578 0.12780127 0.87696218
v 0.34071600 0.00095439 0.58069563
v -0.35177833 0.00325134 0.55668771
v 0.01053980 0.04793384 0.03198026
v -0.33802184 0.00568102 -0.51062602
v 0.34076262 0.00051225 -0.48330256
v 0.55267841 0.13848262 -0.88995779
v 0.92434686 0.00000000 -0.35256615
v 1.06793165 0.40490764 -0.00131559
v -0.69582826 1.01907229 0.15905136
v -0.58977461 1.00791156 0.42520404
v -0.42908850 1.15016103 0.25460649
v -0.73671579 0.55100614 0.72964954
v -0.70739353 0.78416938 0.60228980
v -0.89899462 0.63743669 0.45105177
v -0.16074862 1.01107633 0.70384330
v -0.43138456 0.92335314 0.69527119
v -0.26676884 0.79079390 0.88591325
v -0.15841135 1.21964192 0.25661814
v -0.26659083 1.22882450 -0.00093203
v 0.16030347 1.01101756 0.70429313
v 0.00003369 1.14012039 0.51957887
v 0.26731634 1.22790444 -0.00033197
v 0.16028921 1.22137856 0.25721583
v 0.42964277 1.15006542 0.25612491
v -0.15857106 1.21987510 -0.25893742
v -0.42783076 1.15045476 -0.25848967
v 0.42945942 1.15102673 -0.25651106
v 0.15913533 1.22088110 -0.25845927
v -0.16191159 1.01114392 -0.70383692
v 0.00144354 1.14092910 -0.52003628
v 0.16016884 1.01230359 -0.70438957
v -0.59072614 1.00566375 -0.42769948
v -0.69548959 1.01783252 -0.16309367
v -0.26778960 0.78772271 -0.88390410
v -0.43119130 0.92164809 -0.69740635
v -0.89921576 0.63465130 -0.45234278
v -0.70680666 0.78001201 -0.60272795
v -0.73773122 0.54551142 -0.72810197
v -0.86650950 0.86812949 -0.00155170
v -1.02290010 0.40206203 -0.28939262
v -0.99361444 0.63697004 -0.17068228
v -0.98954576 0.63885009 0.16714236
v -1.02380574 0.40120783 0.29222274
v 0.59050912 1.00602841 0.42702094
v 0.69503051 1.01910949 0.16045313
v 0.26842943 0.78882819 0.88675302
v 0.43126121 0.92124802 0.69673222
v 0.90000302 0.63547045 0.45318484
v 0.70940983 0.78267527 0.60477066
v 0.74068654 0.54865450 0.72827423
v -0.27484441 0.55024618 0.99950480
v 0.00058121 0.64809847 1.00330174
v -0.75323540 0.26121396 0.74684000
v -0.55778050 0.40541881 0.90615612
v 0.00168580 0.16379406 1.04400837
v -0.28137571 0.26226291 1.02537596
v -0.28887746 0.04008429 0.96156561
v -1.02152276 0.16293016 0.17864250
v -0.93101579 0.17252749 0.47320339
v -0.92938304 0.16894506 -0.46510893
v -1.02457654 0.17242883 -0.17372753
v -0.79797810 0.00132315 0.16937533
v -0.98217511 0.00000000 -0.00694391
v -0.79075527 0.01269151 -0.19566558
v -0.55737966 0.40384021 -0.90295184
v -0.75109339 0.25771266 -0.74191767
v -0.00046332 0.64765435 -1.00002003
v -0.27514783 0.54663515 -0.99898320
v -0.28917220 0.04333622 -0.96076387
v -0.28620479 0.26062435 -1.02311826
v 0.00126925 0.17343369 -1.05082858
v 0.43046504 0.92296314 -0.69738168
v 0.26666361 0.78984582 -0.88607240
v 0.69555414 1.01859391 -0.16203697
v 0.59012461 1.00634909 -0.42618737
v 0.73605895 0.54766566 -0.72962731
v 0.70793253 0.78152674 -0.60568947
v 0.90120012 0.63496828 -0.45287922
v 0.77640951 0.04011400 0.17781444
v 0.67872906 0.00000000 0.48370251
v 0.47685400 0.03908570 0.29953119
v 0.75944370 0.25576702 0.74505681
v 0.75906211 0.02692234 0.64343214
v 0.93765926 0.16713861 0.46502203
v 0.17778490 0.00000000 0.82595819
v 0.50173527 0.00000000 0.80503106
v 0.28361896 0.03531930 0.95173264
v 0.15910666 0.04086253 0.27761433
v 0.27832037 0.01973690 0.01585713
v -0.19833806 0.00000000 0.83400679
v -0.02720679 0.00781394 0.58160162
v -0.25977412 0.03476566 0.01581144
v -0.18165359 0.07419062 0.27908206
v -0.47615287 0.00000000 0.25429690
v 0.15487523 0.03098530 -0.23635148
v 0.48407784 0.00963782 -0.24337356
v -0.43029577 0.01610148 -0.27091795
v -0.14249784 0.01385351 -0.21401237
v 0.20852192 0.00000000 -0.79505700
v 0.00613916 0.00008511 -0.51261997
v -0.17234591 0.00000000 -0.78572637
v 0.68361425 0.00343286 -0.47295821
v 0.78416550 0.04052760 -0.17632839
v 0.28915215 0.04897939 -0.97165507
v 0.49685153 0.00000000 -0.80855131
v 0.93717992 0.17892283 -0.47006732
v 0.77126807 0.04302887 -0.66254383
v 0.75767249 0.26024300 -0.74661511
v 0.99028438 0.00000000 -0.00789050
v 1.02485192 0.40408462 -0.29069671
v 1.02954412 0.17077722 -0.17501722
v 1.02911890 0.17076173 0.17256573
v 1.02546525 0.40330550 0.29023999
v 0.28605217 0.25521722 1.02010536
v 0.56157315 0.40547544 0.90671891
v 0.27757689 0.54816359 0.99891078
v -0.69336671 0.00000000 0.49673322
v -0.49687871 0.00000000 0.80329233
v -0.77281737 0.06115768 0.65207529
v -0.47999281 0.00000000 -0.81320930
v -0.66886342 0.01149467 -0.48629734
v -0.77087075 0.05418136 -0.65184164
v 0.55878043 0.40369278 -0.90458214
v 0.28439519 0.26347706 -1.02404273
v 0.27446103 0.54835522 -0.99777031
v 0.99238312 0.63875204 0.16916309
v 0.99252605 0.63999128 -0.16834797
v 0.86695629 0.86974645 0.00002226
v -0.61212617 1.08707798 0.07903608
v -0.56734264 1.09392583 0.21003987
v -0.47782239 1.15176105 0.12777700
v -0.71616161 0.93500763 0.37336421
v -0.64833933 1.01974630 0.29466587
v -0.76789260 0.93856263 0.23723166
v -0.37144583 1.13546264 0.37800032
v -0.51313126 1.08590114 0.34319082
v -0.45260429 1.06492281 0.46546867
v -0.82798719 0.47893956 0.65196514
v -0.82880956 0.59713405 0.59714222
v -0.91085452 0.52355921 0.51071030
v -0.62134880 0.73734981 0.72924495
v -0.73044735 0.67079258 0.67109078
v -0.63389689 0.61892599 0.79227537
v -0.86975759 0.74603099 0.38567984
v -0.81018996 0.71421272 0.53136104
v -0.77575558 0.82219005 0.46326452
v -0.08169263 0.94588423 0.79128814
v -0.21578698 0.90766627 0.80383027
v -0.13400315 0.83378381 0.88470685
v -0.37179855 1.02283585 0.60150939
v -0.29795626 0.97278219 0.70699430
v -0.23616962 1.06501031 0.60436714
v -0.39616561 0.74114126 0.87130278
v -0.35374653 0.86206400 0.79790640
v -0.48096278 0.80933517 0.77530116
v -0.65636414 0.90450275 0.51935941
v -0.57656658 0.86041242 0.65729266
v -0.51681161 0.97328234 0.56711668
v -0.35174355 1.19880760 0.12776710
v -0.39593714 1.19086623 -0.00131936
v -0.23500191 1.17341208 0.37966979
v -0.29666039 1.19214511 0.25819284
v -0.13434070 1.25363827 -0.00125182
v -0.21416664 1.23164630 0.12907024
v -0.07952366 1.24939263 0.12924008
v 0.08206662 0.94543141 0.79111940
v -0.00033825 1.01873744 0.71165305
v 0.15441740 1.13105726 0.51317441
v 0.08012851 1.08255184 0.61593467
v 0.23618491 1.06415308 0.60498208
v -0.07984989 1.08221102 0.61638987
v -0.15486969 1.13273239 0.51358086
v 0.39794967 1.19045246 0.00014962
v 0.35272545 1.19795597 0.12977299
v 0.47933191 1.15196013 0.12844482
v 0.08109213 1.24830019 0.12948385
v 0.21623541 1.23235512 0.13051118
v 0.13536277 1.25297010 -0.00044420
v 0.37316537 1.13515806 0.37952182
v 0.29634759 1.19297147 0.25965586
v 0.23564823 1.17236674 0.38001776
v -0.08166175 1.19134390 0.39312989
v 0.08007003 1.19087136 0.39148188
v -0.00041732 1.23089433 0.25921693
v -0.35081717 1.19846511 -0.13126200
v -0.47749856 1.15171087 -0.13111602
v -0.07960240 1.24957645 -0.13078742
v -0.21452309 1.23359954 -0.13123152
v -0.37116599 1.13446069 -0.38076526
v -0.29502657 1.19258773 -0.26087809
v -0.23446976 1.17308950 -0.38162190
v 0.47962874 1.15258527 -0.12933528
v 0.35273591 1.19999647 -0.12965976
v 0.23578620 1.17442060 -0.38050145
v 0.29626286 1.19353437 -0.25927258
v 0.37139505 1.13579047 -0.37910724
v 0.21516144 1.23299825 -0.13032798
v 0.08048941 1.25015187 -0.13086291
v -0.08252873 0.94593495 -0.79157269
v -0.00011162 1.01955760 -0.71314985
v 0.08144114 0.94570345 -0.79203439
v -0.15418868 1.13203979 -0.51432103
v -0.08062769 1.08322620 -0.61768812
v -0.23652582 1.06529427 -0.60483921
v 0.23660021 1.06640661 -0.60527521
v 0.08078108 1.08409262 -0.61754584
v 0.15490904 1.13309288 -0.51385272
v 0.00045007 1.23035872 -0.26094195
v 0.08192889 1.19110644 -0.39217496
v -0.07982725 1.19095850 -0.39309469
v -0.56708413 1.09358752 -0.21429797
v -0.61271429 1.08628774 -0.08308189
v -0.45289290 1.06379199 -0.46839863
v -0.51296312 1.08584273 -0.34652555
v -0.76757008 0.93740958 -0.24131808
v -0.64917988 1.01910079 -0.29816136
v -0.71607578 0.93314826 -0.37676209
v -0.13514762 0.83288497 -0.88293481
v -0.21612702 0.90695697 -0.80368811
v -0.48026857 0.80496877 -0.77641231
v -0.35360730 0.85948622 -0.79836607
v -0.39695433 0.73591089 -0.86916798
v -0.29821655 0.97133416 -0.70836490
v -0.37246180 1.02243829 -0.60399336
v -0.90902472 0.51830816 -0.51042557
v -0.82861245 0.59200597 -0.59655595
v -0.82741219 0.47254685 -0.64989507
v -0.77565974 0.81723040 -0.46444511
v -0.80981547 0.71053874 -0.53245115
v -0.87120932 0.74333984 -0.38682008
v -0.63409817 0.61288732 -0.78986627
v -0.72990263 0.66652125 -0.67061555
v -0.62137419 0.73381579 -0.72895074
v -0.51723468 0.97018850 -0.56910998
v -0.57587731 0.85623688 -0.65989709
v -0.65638906 0.90047044 -0.52114302
v -0.70443708 1.02657580 -0.00156844
v -0.85654855 0.86230147 -0.16132556
v -0.78823072 0.94897223 -0.08365740
v -0.78845197 0.94959205 0.07994067
v -0.85561907 0.86300635 0.15808289
v -0.97194648 0.40112659 -0.42874122
v -0.97192520 0.51838315 -0.37803507
v -1.03799486 0.52017832 -0.08698507
v -1.01666939 0.52116859 -0.23212814
v -1.05321145 0.40250713 -0.14459856
v -0.95569199 0.63713872 -0.31474784
v -0.91984773 0.74519497 -0.24709831
v -0.97317684 0.52092981 0.37654370
v -0.97260761 0.40198642 0.43003684
v -0.91848415 0.74775732 0.24475877
v -0.95406562 0.64257401 0.31270853
v -1.05453157 0.40431497 0.14889307
v -1.01710725 0.52525920 0.23177557
v -1.04230607 0.52334213 0.08551130
v -0.94112390 0.75841588 -0.08640027
v -1.00502980 0.64075899 -0.00079049
v -0.94148713 0.75941509 0.08294287
v 0.56775296 1.09458828 0.21112770
v 0.61246884 1.08542395 0.07961655
v 0.45327216 1.06376445 0.46777943
v 0.51454359 1.08583438 0.34419224
v 0.76791859 0.93919122 0.23967016
v 0.64955354 1.01983643 0.29608896
v 0.71636558 0.93453580 0.37609449
v 0.13475117 0.83390945 0.88571256
v 0.21681890 0.90709299 0.80416512
v 0.48232096 0.80834055 0.77879357
v 0.35351348 0.85951942 0.79841965
v 0.39814022 0.73705792 0.87216580
v 0.29716623 0.97091728 0.70780361
v 0.37259430 1.02176261 0.60278195
v 0.90970987 0.51795572 0.51148170
v 0.83025301 0.59414637 0.59715396
v 0.82857376 0.47352463 0.64872551
v 0.77730614 0.82030112 0.46521282
v 0.81168687 0.71291715 0.53424567
v 0.87172115 0.74702829 0.38732636
v 0.63606012 0.61513746 0.79426223
v 0.73147690 0.66778892 0.67367363
v 0.62375736 0.73493034 0.73173928
v 0.51906580 0.97097439 0.56956196
v 0.57684177 0.85794270 0.65927649
v 0.65764737 0.90276015 0.52179056
v -0.13527450 0.72297901 0.95555913
v 0.00069340 0.76274967 0.94287390
v -0.40227833 0.61874831 0.92963159
v -0.27389354 0.67348748 0.95112234
v 0.00122798 0.52627063 1.04450428
v -0.13838036 0.60026401 1.01063323
v -0.14047018 0.47652563 1.04759729
v -0.83767360 0.33028817 0.66141838
v -0.75487310 0.40615758 0.74909627
v -0.55540663 0.26588285 0.90343732
v -0.66157758 0.33275801 0.83519679
v -0.65284699 0.19494593 0.81959313
v -0.65382081 0.47968930 0.82686508
v -0.54397953 0.54761183 0.88376051
v 0.00177063 0.06059866 1.01039898
v -0.14468843 0.10419729 1.01200390
v -0.14243154 0.01544253 0.97929758
v -0.13978517 0.33151963 1.05945778
v -0.14218701 0.21443608 1.04776704
v 0.00180434 0.27962300 1.06765854
v -0.42095187 0.07892896 0.92537814
v -0.28749397 0.14364439 0.99808204
v -0.41490719 0.19044380 0.96464580
v -0.41981634 0.47769800 0.96427321
v -0.42684361 0.32911563 0.97775155
v -0.28218371 0.40429378 1.02599120
v -0.99504423 0.28335807 0.38897571
v -0.92534196 0.28676224 0.52184349
v -1.05892897 0.28040871 0.09336916
v -1.03669405 0.27949002 0.23905864
v -0.92579889 0.07071957 0.41953588
v -0.98725003 0.16449676 0.33004084
v -0.97786862 0.06283269 0.26464626
v -0.92518270 0.28107095 -0.51848304
v -0.98976052 0.28218424 -0.38292211
v -0.97474843 0.06758581 -0.25824898
v -0.98888630 0.16530921 -0.32382137
v -0.91872066 0.06616363 -0.40551212
v -1.03639960 0.28206605 -0.23540108
v -1.06142902 0.28218794 -0.08374820
v -0.68318677 0.00000000 0.05800726
v -0.78787422 0.00000000 -0.02853575
v -0.65612769 0.00255447 -0.13288458
v -0.97439414 0.00000000 0.17929471
v -0.90210176 0.00000000 0.08120531
v -0.87903839 0.00000000 0.26284429
v -0.87691396 0.00000000 -0.27959904
v -0.91329920 0.00000000 -0.11059037
v -0.97691244 0.00000000 -0.18520780
v -1.03804469 0.16275929 0.00243465
v -1.00966787 0.06148824 -0.09143322
v -1.00398409 0.05376578 0.09309368
v -0.75465089 0.40022665 -0.74643415
v -0.83518386 0.32501438 -0.65594679
v -0.54421872 0.54274762 -0.88138711
v -0.65474176 0.47284031 -0.82364029
v -0.65709257 0.19496819 -0.81708896
v -0.65993345 0.32626769 -0.83131284
v -0.55742574 0.26389667 -0.90268588
v -0.00043197 0.76258802 -0.94068110
v -0.13645276 0.72309387 -0.95397854
v -0.13945884 0.47810337 -1.04462242
v -0.13813902 0.60045522 -1.00802362
v 0.00030131 0.52778494 -1.04206538
v -0.27320081 0.67038822 -0.94898844
v -0.40135124 0.61475486 -0.92849171
v -0.15014140 0.00038573 -0.98125505
v -0.14347669 0.09816717 -1.01976979
v -0.00064732 0.06908840 -1.02290618
v -0.42086655 0.19143680 -0.96795446
v -0.28811735 0.14321458 -1.00244009
v -0.42721105 0.08427212 -0.93296111
v -0.00011877 0.28316620 -1.06682515
v -0.14428884 0.21225399 -1.04653370
v -0.14430603 0.33172536 -1.05640638
v -0.42083350 0.47453737 -0.96336091
v -0.28340322 0.40327901 -1.02570963
v -0.42662555 0.32716450 -0.97395080
v 0.21604142 0.90770924 -0.80335045
v 0.13360023 0.83424586 -0.88462281
v 0.37234190 1.02396858 -0.60295361
v 0.29750994 0.97403049 -0.70771939
v 0.39629689 0.73913538 -0.87038827
v 0.35315809 0.86209816 -0.79802400
v 0.48125622 0.80681336 -0.77527815
v 0.61297411 1.08612585 -0.08111995
v 0.56849670 1.09442496 -0.21170828
v 0.71596718 0.93347698 -0.37537596
v 0.64929259 1.01936960 -0.29689902
v 0.76770836 0.93728679 -0.23991151
v 0.51446301 1.08640957 -0.34431759
v 0.45305720 1.06576622 -0.46837240
v 0.82827336 0.47569600 -0.65383971
v 0.83045155 0.59457433 -0.59847683
v 0.91257262 0.52132952 -0.51193100
v 0.62108672 0.73391807 -0.73003501
v 0.72954535 0.66686577 -0.67269915
v 0.63275242 0.61539298 -0.79233736
v 0.87084335 0.74428350 -0.38768098
v 0.81194407 0.71388263 -0.53526253
v 0.77557933 0.82042569 -0.46589005
v 0.51753789 0.97140718 -0.56870753
v 0.65667087 0.90072215 -0.52080989
v 0.57545257 0.85787016 -0.65890992
v 0.66001922 0.09466080 0.11095723
v 0.61998636 0.06841575 0.24080199
v 0.52340919 0.08368689 0.15518571
v 0.82740921 0.00000000 0.43686336
v 0.74213433 0.00706473 0.32426372
v 0.87673813 0.00073286 0.27534023
v 0.41765246 0.00000000 0.43955180
v 0.58820587 0.00598220 0.39447755
v 0.52178437 0.00190151 0.54665196
v 0.84111482 0.32760143 0.65848398
v 0.85924846 0.20728956 0.61377406
v 0.92972577 0.28056940 0.51796079
v 0.66378361 0.07430127 0.77513665
v 0.76339245 0.13716128 0.69756407
v 0.65770400 0.19023877 0.81693143
v 0.93021441 0.07031711 0.41325632
v 0.85655844 0.09460262 0.55699795
v 0.84717274 0.00249613 0.50037426
v 0.10112068 0.00122573 0.93006527
v 0.25230208 0.00000000 0.93231130
v 0.14822513 0.00095598 0.97510368
v 0.43404016 0.02190748 0.70254886
v 0.34955525 0.00000000 0.82682520
v 0.25811014 0.00033629 0.71011424
v 0.42016914 0.08349566 0.92555630
v 0.40038258 0.00000000 0.89668310
v 0.52718908 0.01733931 0.85704428
v 0.75570005 0.00000000 0.59723479
v 0.64787596 0.00000000 0.74070561
v 0.60733944 0.00000000 0.65048826
v 0.38208777 0.00000000 0.15014121
v 0.41894466 0.04043613 0.02007519
v 0.25559440 0.00000000 0.43499309
v 0.31964883 0.02686133 0.29174721
v 0.14471672 0.03736126 0.02442342
v 0.20952275 0.02110210 0.16377738
v 0.08412396 0.04610209 0.16022032
v -0.09314743 0.00000000 0.93137032
v -0.01708434 0.00000167 0.83249718
v -0.19307153 0.06864946 0.55063051
v -0.13226938 0.00966354 0.68564218
v -0.29182851 0.02305037 0.69114012
v 0.06934816 0.00269815 0.71644509
v 0.15142085 0.00131619 0.58238637
v -0.40553880 0.01659324 0.00327025
v -0.37015125 0.08632510 0.11730077
v -0.51833028 0.03260565 0.10892136
v -0.09316591 0.05628199 0.14236873
v -0.22031432 0.16054471 0.14172575
v -0.13377792 0.03806598 0.02972753
v -0.42507854 0.01686965 0.40184161
v -0.30301201 0.03073467 0.24096937
v -0.28937536 0.04686163 0.39615038
v 0.06782317 0.06837487 0.43044695
v -0.12046251 0.08026879 0.43658057
v -0.02465476 0.00151877 0.29302588
v 0.36368799 0.01813572 -0.09494898
v 0.50717396 0.04436419 -0.13489512
v 0.08878706 0.03810103 -0.11224376
v 0.21050477 0.02414692 -0.10428112
v 0.41355368 0.02553408 -0.34816006
v 0.31913650 0.01530640 -0.23365802
v 0.22996973 0.00397069 -0.32913697
v -0.48938274 0.01336247 -0.15181966
v -0.35422942 0.00000000 -0.12295219
v -0.22847995 0.01817041 -0.37041917
v -0.28184623 0.00060720 -0.24614830
v -0.37970012 0.02706341 -0.40330625
v -0.21595745 0.02173157 -0.11995069
v -0.08614863 0.03201523 -0.11247547
v 0.10014881 0.00513914 -0.90083021
v 0.01782357 0.00000000 -0.80399752
v -0.09683612 0.00103031 -0.89943689
v 0.17951505 0.00000000 -0.51066798
v 0.10792653 0.00000000 -0.65645403
v 0.28338245 0.00012549 -0.65309381
v -0.25918797 0.00000000 -0.65780771
v -0.06880798 0.00199168 -0.67425114
v -0.15111107 0.02119479 -0.54723281
v -0.00299855 0.06145739 -0.24157912
v -0.08548098 0.00384087 -0.37535298
v 0.10106792 0.02825068 -0.37633935
v 0.63281387 0.10148376 -0.21702582
v 0.66999757 0.04194063 -0.07007134
v 0.52481872 0.00066553 -0.47706407
v 0.56841844 0.09012408 -0.36142185
v 0.87855887 0.00000000 -0.28235331
v 0.73184580 0.02163463 -0.32689062
v 0.82975835 0.00003753 -0.44712588
v 0.14702477 0.01721589 -0.98550475
v 0.25294542 0.00016844 -0.90913069
v 0.53359348 0.04179353 -0.85979736
v 0.40206301 0.00728193 -0.90626007
v 0.42492998 0.08775217 -0.93769115
v 0.36317226 0.04032800 -0.80230802
v 0.43514532 0.00069752 -0.64957559
v 0.93082643 0.28828770 -0.52072394
v 0.86019456 0.21229003 -0.61860728
v 0.84138125 0.32923231 -0.65986323
v 0.86922669 0.01823930 -0.51534247
v 0.85841167 0.10230408 -0.56615931
v 0.93765497 0.08730425 -0.40958479
v 0.66052610 0.19565554 -0.82254475
v 0.76905286 0.14034180 -0.70618057
v 0.67280728 0.09293791 -0.78485405
v 0.59790993 0.00000000 -0.63970608
v 0.64870334 0.00000000 -0.75333375
v 0.74423128 0.00000000 -0.60736936
v 0.79329598 0.06159541 0.01595180
v 0.96924126 0.00036698 -0.19257711
v 0.90215105 0.00101836 -0.09937532
v 0.91615885 0.00814674 0.08436491
v 0.95516992 0.00000000 0.16529799
v 0.97488105 0.40523615 -0.43000409
v 0.99285197 0.28990772 -0.38315138
v 1.06333673 0.28242096 -0.08799047
v 1.03937256 0.28672871 -0.23509507
v 1.05623007 0.40358573 -0.14712690
v 0.99226606 0.17585440 -0.32373846
v 0.98797977 0.08423425 -0.26106182
v 0.99504745 0.28179207 0.38279086
v 0.97701210 0.40193439 0.42882207
v 0.99073362 0.07142340 0.26122901
v 0.99234682 0.16715762 0.32159561
v 1.05614066 0.40205908 0.14617744
v 1.03987014 0.28301063 0.23380683
v 1.06192517 0.28419900 0.08523206
v 1.00664639 0.05949498 -0.09370395
v 1.04194796 0.16491386 -0.00159519
v 1.01030552 0.06155555 0.08921915
v 0.14473344 0.09084812 1.00911057
v 0.42167065 0.18949150 0.95985937
v 0.28958029 0.13553193 0.99436253
v 0.14513662 0.20828111 1.04192293
v 0.14588995 0.32876080 1.06136346
v 0.75724834 0.40342507 0.74655378
v 0.54861557 0.54330289 0.88807178
v 0.65810812 0.47852945 0.82561636
v 0.66546357 0.33004323 0.83251536
v 0.56040114 0.26342735 0.89869469
v 0.13734131 0.72197640 0.95582342
v 0.14363347 0.47538278 1.04775691
v 0.14015105 0.59921747 1.01031196
v 0.27572539 0.67245126 0.95229149
v 0.40428078 0.61595917 0.93064713
v 0.43077523 0.32606474 0.97636229
v 0.42460212 0.47402152 0.96839970
v 0.28693882 0.40122288 1.02964222
v -0.64512545 0.00130913 0.21395344
v -0.52244008 0.00026046 0.52750927
v -0.59343785 0.00151232 0.37290257
v -0.75380576 0.03004700 0.33315933
v -0.82261807 0.00003165 0.43050668
v -0.25063598 0.00000000 0.93316257
v -0.52145427 0.00894769 0.84258336
v -0.39280087 0.00000000 0.89806169
v -0.34943050 0.00000000 0.83264595
v -0.44466764 0.00000000 0.70593858
v -0.85315043 0.21387546 0.61649841
v -0.85265273 0.00000000 0.50795954
v -0.85317129 0.10091128 0.56368661
v -0.76045537 0.14767949 0.70477080
v -0.65912181 0.07952432 0.78220671
v -0.60826719 0.00000000 0.66816866
v -0.65273064 0.00000000 0.73241705
v -0.75756413 0.00000000 0.59887320
v -0.25344181 0.00000000 -0.92522365
v -0.41688779 0.00554636 -0.66307336
v -0.33508211 0.00000000 -0.81401104
v -0.39264408 0.00000000 -0.89954692
v -0.52552211 0.02146823 -0.84646195
v -0.61588025 0.10130908 -0.23655526
v -0.82360059 0.00000000 -0.43684614
v -0.72883576 0.00497148 -0.33593354
v -0.54193079 0.03485946 -0.37207550
v -0.50416893 0.09627190 -0.51325417
v -0.85258859 0.20881554 -0.61117655
v -0.66740358 0.08448311 -0.77512455
v -0.76304823 0.14163721 -0.69907892
v -0.85969496 0.10139164 -0.56283718
v -0.85056692 0.01471873 -0.50391281
v -0.57802695 0.00005069 -0.64558971
v -0.74382830 0.00000000 -0.60149443
v -0.64066827 0.00000000 -0.73159420
v 0.75623071 0.40169331 -0.74808693
v 0.56054682 0.26358801 -0.90336007
v 0.66311246 0.33156869 -0.83406037
v 0.65584904 0.47444746 -0.82591128
v 0.54684418 0.54368830 -0.88267720
v 0.14666818 0.10639942 -1.02967775
v 0.14237711 0.33237228 -1.05568063
v 0.14500122 0.21686843 -1.05279410
v 0.29146457 0.14810964 -1.00938594
v 0.42248583 0.19694866 -0.96774644
v 0.13606952 0.72346884 -0.95342487
v 0.40276751 0.61621183 -0.93003756
v 0.27427554 0.67301017 -0.95011985
v 0.13792923 0.60039973 -1.00724268
v 0.13983507 0.47590688 -1.04304290
v 0.42853421 0.33071470 -0.97584492
v 0.28315690 0.40496281 -1.02454126
v 0.42184409 0.47740689 -0.96416807
v 0.97557181 0.51994371 0.37989891
v 1.04415512 0.51968062 0.08840878
v 1.02245009 0.52416849 0.23321612
v 0.95587820 0.64015102 0.31537813
v 0.92091864 0.74851400 0.24585219
v 0.97513258 0.52428579 -0.37756401
v 0.91911846 0.74883997 -0.24721754
v 0.95646632 0.63956708 -0.31320909
v 1.02009213 0.52506191 -0.23170686
v 1.04117751 0.52468753 -0.08605545
v 0.70459867 1.02603066 -0.00117322
v 0.85737789 0.86557359 0.15939996
v 0.78837800 0.95137554 0.08186777
v 0.78872621 0.94927782 -0.08278465
v 0.85732514 0.86220145 -0.15879737
v 1.00465798 0.64025712 0.00249951
v 0.94282788 0.75906688 -0.08472555
v 0.94302821 0.76141363 0.08513021
f 330 87 329
f 336 325 26
f 207 208 56
f 464 36 580
f 502 129 504
f 157 624 622
f 308 311 82
f 247 223 248
f 507 483 508
f 331 88 329
f 494 500 497
f 156 601 602
f 591 589 592
f 365 98 596
f 75 281 282
f 152 587 577
f 149 559 560
f 555 121 553
f 530 141 529
f 515 517 139
f 361 594 98
f 250 67 249
f 157 608 609
f 294 293 209
f 317 81 316
f 557 338 26
f 303 305 81
f 530 529 528
f 101 381 382
f 415 418 111
f 192 184 50
f 412 110 411
f 20 384 256
f 131 594 486
f 281 264 282
f 347 287 348
f 28 349 582
f 165 163 1
f 248 250 66
f 617 107 398
f 273 271 274
f 456 115 453
f 558 561 560
f 335 576 91
f 331 177 332
f 116 433 436
f 351 370 92
f 136 511 530
f 239 240 65
f 247 258 19
f 304 23 567
f 148 557 570
f 214 208 58
f 440 426 450
f 268 270 269
f 258 247 268
f 204 202 16
f 466 125 465
f 517 513 133
f 168 275 274
f 275 73 274
f 198 193 53
f 309 308 307
f 510 511 136
f 415 416 110
f 131 490 597
f 473 475 474
f 414 415 111
f 493 495 494
f 496 504 485
f 433 116 432
f 600 375 601
f 240 234 65
f 418 415 412
f 486 361 3
f 567 566 304
f 380 393 29
f 17 199 197
f 491 492 132
f 451 449 435
f 218 217 216
f 623 621 613
f 396 104 395
f 433 439 436
f 628 160 627
f 215 202 217
f 209 207 2
f 427 113 424
f 434 10 544
f 434 433 432
f 199 17 210
f 150 564 565
f 489 491 132
f 275 13 285
f 497 500 134
f 125 466 476
f 578 152 577
f 208 214 211
f 328 88 343
f 356 27 603
f 150 566 567
f 372 100 371
f 190 191 47
f 235 8 398
f 260 261 72
f 422 403 414
f 422 414 111
f 453 454 123
f 349 583 582
f 521 520 519
f 425 453 115
f 616 622 158
f 483 130 508
f 151 586 572
f 212 17 232
f 400 397 402
f 377 396 99
f 41 522 511
f 510 508 505
f 549 547 42
f 475 473 36
f 510 137 509
f 222 221 197
f 430 115 429
f 220 194 1
f 305 54 204
f 621 29 613
f 192 171 184
f 460 335 5
f 88 331 332
f 74 277 279
f 300 301 80
f 390 389 388
f 165 45 164
f 146 549 551
f 291 278 75
f 448 120 445
f 147 543 544
f 607 610 609
f 603 602 356
f 139 529 514
f 333 553 443
f 92 368 347
f 261 260 259
f 300 6 200
f 46 177 331
f 284 283 174
f 301 300 200
f 471 468 474
f 54 305 301
f 302 304 303
f 569 150 567
f 150 569 570
f 294 209 2
f 628 629 160
f 548 543 147
f 147 625 627
f 63 233 234
f 426 427 114
f 41 509 532
f 198 52 196
f 614 105 612
f 147 627 547
f 81 305 306
f 549 548 547
f 54 301 200
f 342 88 332
f 264 281 70
f 193 194 53
f 455 429 456
f 187 321 14
f 479 130 484
f 147 544 625
f 458 456 453
f 304 80 303
f 314 84 313
f 488 503 501
f 321 332 14
f 423 425 424
f 305 204 306
f 341 339 25
f 514 40 516
f 625 628 627
f 340 339 341
f 105 614 391
f 243 228 62
f 318 316 78
f 75 278 279
f 357 355 353
f 238 257 63
f 466 455 476
f 425 423 4
f 448 449 120
f 408 638 108
f 292 275 285
f 22 278 289
f 515 513 517
f 501 503 134
f 622 623 158
f 134 503 504
f 195 216 206
f 163 271 246
f 619 617 620
f 62 228 229
f 163 165 164
f 453 425 454
f 489 132 488
f 82 628 625
f 58 208 209
f 525 608 40
f 626 547 627
f 518 517 498
f 489 487 491
f 557 26 564
f 325 336 344
f 541 145 539
f 40 616 516
f 338 556 89
f 250 248 245
f 139 514 515
f 98 594 596
f 246 220 1
f 112 413 630
f 9 536 413
f 156 600 601
f 332 177 14
f 321 342 332
f 156 606 600
f 584 330 585
f 302 303 81
f 584 87 330
f 330 25 585
f 400 239 65
f 439 440 117
f 95 358 368
f 597 594 131
f 594 361 486
f 246 67 245
f 561 562 149
f 28 364 362
f 55 216 217
f 427 430 114
f 267 20 254
f 556 555 553
f 84 309 558
f 311 310 312
f 609 525 142
f 256 68 255
f 124 460 461
f 82 311 312
f 307 308 82
f 589 135 495
f 527 40 514
f 112 418 412
f 20 256 254
f 258 238 19
f 267 254 269
f 273 272 249
f 392 391 393
f 137 533 509
f 122 455 456
f 9 413 411
f 130 480 505
f 333 443 5
f 527 525 40
f 589 495 385
f 39 496 485
f 223 225 224
f 414 416 415
f 219 222 53
f 145 538 539
f 413 412 411
f 469 468 467
f 183 181 6
f 191 192 50
f 429 35 431
f 292 285 76
f 413 112 412
f 415 110 412
f 43 164 167
f 467 468 126
f 617 101 620
f 450 451 117
f 438 546 545
f 619 620 159
f 17 212 210
f 124 579 576
f 584 153 583
f 460 124 576
f 3 469 467
f 311 308 314
f 6 320 183
f 389 104 388
f 251 250 249
f 194 165 1
f 291 289 278
f 287 77 348
f 238 258 257
f 139 517 518
f 238 236 19
f 223 247 19
f 382 380 29
f 39 518 498
f 361 359 3
f 69 255 257
f 139 518 528
f 33 545 535
f 387 385 7
f 69 268 269
f 477 462 125
f 454 479 123
f 121 555 447
f 451 435 117
f 454 425 4
f 233 252 8
f 124 463 464
f 69 258 268
f 168 167 166
f 583 153 582
f 384 394 102
f 138 512 513
f 57 210 211
f 254 256 255
f 607 609 142
f 324 319 86
f 289 291 76
f 291 292 76
f 384 102 383
f 422 421 420
f 221 17 197
f 383 102 381
f 376 377 99
f 99 373 374
f 386 105 392
f 438 33 440
f 90 341 343
f 281 75 279
f 574 571 96
f 628 82 312
f 221 222 59
f 127 471 474
f 595 605 603
f 551 538 145
f 334 91 340
f 322 324 85
f 305 303 301
f 18 239 399
f 306 204 16
f 199 198 197
f 166 190 180
f 303 80 301
f 267 266 265
f 626 42 547
f 16 215 213
f 349 351 350
f 295 16 213
f 68 379 252
f 250 251 66
f 627 160 626
f 383 68 256
f 343 88 342
f 507 508 136
f 202 215 16
f 197 198 53
f 254 69 269
f 603 605 156
f 418 419 111
f 384 383 256
f 455 122 476
f 203 204 54
f 556 557 148
f 255 68 253
f 313 84 560
f 25 328 341
f 254 255 69
f 603 156 602
f 581 584 583
f 630 632 112
f 163 246 1
f 246 245 220
f 432 116 558
f 499 591 590
f 320 563 86
f 345 93 350
f 306 16 295
f 346 93 345
f 562 568 149
f 604 605 155
f 154 592 593
f 545 552 535
f 511 522 530
f 574 573 571
f 566 150 565
f 361 98 360
f 67 271 273
f 234 235 65
f 208 211 56
f 574 151 573
f 251 270 66
f 398 8 378
f 213 215 214
f 438 440 439
f 315 314 313
f 263 71 262
f 20 373 384
f 496 134 504
f 329 88 328
f 81 306 316
f 555 556 148
f 592 589 103
f 617 619 107
f 227 207 56
f 571 359 96
f 446 466 465
f 206 216 55
f 359 571 469
f 568 148 570
f 34 437 435
f 28 351 349
f 21 272 282
f 113 423 424
f 490 489 488
f 379 68 383
f 210 212 211
f 80 563 300
f 351 92 350
f 326 346 12
f 83 317 318
f 555 148 554
f 212 231 56
f 218 57 217
f 271 67 246
f 195 196 52
f 270 268 66
f 390 592 103
f 148 568 554
f 495 493 7
f 592 390 593
f 357 95 355
f 574 575 151
f 452 120 451
f 154 591 592
f 587 585 577
f 395 394 396
f 93 349 350
f 610 416 611
f 166 44 190
f 315 23 302
f 315 302 317
f 268 247 66
f 606 154 593
f 396 394 99
f 211 212 56
f 370 369 368
f 235 397 65
f 280 278 22
f 83 315 317
f 575 588 151
f 74 279 280
f 385 495 7
f 63 257 253
f 397 235 398
f 214 58 213
f 220 219 194
f 546 146 545
f 236 225 19
f 599 94 602
f 235 233 8
f 102 394 395
f 611 416 32
f 225 223 19
f 139 528 529
f 231 62 229
f 419 406 421
f 451 450 452
f 49 182 185
f 402 397 107
f 52 199 218
f 416 610 110
f 225 236 244
f 107 397 398
f 68 252 253
f 322 85 321
f 182 181 183
f 118 438 439
f 546 438 118
f 348 77 345
f 543 546 118
f 231 212 232
f 610 611 157
f 33 438 545
f 385 386 103
f 479 480 130
f 169 195 15
f 93 583 349
f 15 195 206
f 190 44 192
f 247 248 66
f 146 552 545
f 248 60 245
f 570 557 564
f 274 271 43
f 63 253 233
f 272 21 249
f 507 528 518
f 67 273 249
f 487 467 126
f 196 195 169
f 624 159 623
f 134 496 497
f 132 503 488
f 104 393 395
f 556 553 89
f 355 356 94
f 258 69 257
f 229 61 227
f 56 231 227
f 460 576 335
f 463 124 461
f 394 373 99
f 29 393 391
f 67 250 245
f 193 198 196
f 462 36 464
f 144 633 630
f 141 526 527
f 517 133 498
f 536 144 630
f 100 372 599
f 144 536 537
f 22 289 287
f 578 579 152
f 579 578 576
f 189 188 187
f 60 223 224
f 92 348 350
f 555 554 447
f 396 377 388
f 194 193 165
f 413 536 630
f 372 352 599
f 377 376 375
f 348 345 350
f 105 386 387
f 240 237 234
f 463 462 464
f 135 500 494
f 45 196 169
f 512 612 387
f 245 60 220
f 429 115 456
f 223 60 248
f 288 289 76
f 525 526 142
f 100 599 601
f 613 29 391
f 526 523 520
f 341 328 343
f 631 641 639
f 264 21 282
f 266 72 265
f 106 402 403
f 73 273 274
f 186 206 205
f 381 379 383
f 52 216 195
f 410 18 399
f 290 272 73
f 72 371 374
f 526 525 527
f 115 430 424
f 498 497 496
f 621 382 29
f 543 118 434
f 214 215 57
f 522 141 530
f 511 510 509
f 352 94 599
f 493 512 7
f 90 340 341
f 169 171 170
f 605 604 606
f 219 60 224
f 104 389 392
f 359 469 3
f 186 49 185
f 222 219 224
f 166 167 44
f 428 427 426
f 523 522 524
f 129 502 481
f 50 185 188
f 164 45 170
f 425 115 424
f 33 428 426
f 427 428 113
f 94 356 602
f 515 138 513
f 114 431 452
f 237 236 238
f 215 217 57
f 95 354 355
f 220 60 219
f 515 514 516
f 183 320 319
f 222 197 53
f 559 569 567
f 300 320 6
f 435 436 117
f 96 360 363
f 640 642 641
f 242 243 62
f 140 537 519
f 508 130 505
f 420 410 399
f 537 539 144
f 317 316 318
f 426 114 450
f 186 15 206
f 311 83 310
f 625 544 307
f 544 10 307
f 168 43 167
f 185 182 188
f 369 354 95
f 44 171 192
f 605 606 156
f 548 549 146
f 100 601 375
f 149 568 569
f 381 380 382
f 455 466 35
f 480 479 454
f 543 548 546
f 493 133 513
f 492 472 37
f 477 125 476
f 491 487 126
f 337 336 338
f 588 153 587
f 576 578 91
f 633 161 632
f 96 359 360
f 39 485 483
f 101 617 378
f 193 45 165
f 163 164 43
f 618 624 611
f 507 136 528
f 561 149 560
f 641 162 639
f 116 561 558
f 494 133 493
f 253 252 233
f 63 237 238
f 392 393 104
f 440 450 117
f 93 581 583
f 386 385 387
f 120 449 451
f 421 422 111
f 486 3 467
f 302 81 317
f 633 632 630
f 462 475 36
f 376 99 374
f 489 490 131
f 447 449 448
f 387 612 105
f 106 420 399
f 173 46 172
f 492 491 472
f 316 306 295
f 22 287 347
f 109 410 420
f 507 39 483
f 559 23 313
f 214 57 211
f 196 45 193
f 10 434 432
f 422 106 403
f 626 160 640
f 487 486 467
f 542 41 532
f 400 106 399
f 444 120 452
f 198 199 52
f 475 127 474
f 621 620 382
f 621 623 159
f 450 114 452
f 92 347 348
f 376 100 375
f 434 118 433
f 503 132 502
f 337 90 336
f 537 536 519
f 395 393 380
f 201 54 200
f 171 44 170
f 355 94 353
f 58 296 213
f 422 420 106
f 595 365 596
f 569 568 570
f 523 140 520
f 114 430 431
f 218 210 57
f 304 566 80
f 639 162 638
f 261 371 72
f 548 147 547
f 498 133 497
f 150 570 564
f 222 224 59
f 142 526 520
f 437 436 435
f 141 522 523
f 137 510 505
f 173 179 176
f 559 149 569
f 121 447 448
f 563 320 300
f 102 395 380
f 257 255 253
f 642 162 641
f 83 311 314
f 216 52 218
f 512 493 513
f 23 304 302
f 91 339 340
f 512 138 612
f 159 620 621
f 218 199 210
f 364 28 575
f 83 318 310
f 168 274 43
f 136 530 528
f 140 523 524
f 495 135 494
f 233 235 234
f 566 563 80
f 25 339 577
f 277 74 276
f 475 462 477
f 133 494 497
f 436 437 116
f 389 386 392
f 548 146 546
f 441 460 5
f 10 309 307
f 65 397 400
f 543 434 544
f 640 641 161
f 272 273 73
f 581 93 346
f 419 421 111
f 319 320 86
f 180 179 178
f 127 475 477
f 231 229 227
f 337 334 340
f 136 508 510
f 308 309 84
f 237 63 234
f 447 554 34
f 252 379 378
f 315 83 314
f 608 622 616
f 338 336 26
f 337 338 89
f 13 275 168
f 209 208 207
f 436 439 117
f 628 312 629
f 360 366 363
f 364 574 96
f 359 361 360
f 466 446 35
f 500 501 134
f 406 109 421
f 135 589 591
f 601 599 602
f 340 90 337
f 481 492 37
f 522 41 524
f 78 316 295
f 131 486 487
f 403 32 414
f 634 626 640
f 151 572 573
f 515 516 138
f 8 252 378
f 265 72 374
f 9 521 519
f 538 549 42
f 368 358 347
f 588 587 586
f 458 453 123
f 589 385 103
f 502 492 481
f 32 416 414
f 430 427 424
f 153 585 587
f 540 144 539
f 370 368 92
f 209 293 58
f 428 33 535
f 326 581 346
f 625 307 82
f 575 28 582
f 6 181 200
f 421 109 420
f 553 121 443
f 160 642 640
f 153 584 585
f 309 432 558
f 334 337 89
f 23 315 313
f 271 163 43
f 296 295 213
f 39 498 496
f 118 439 433
f 531 113 534
f 293 296 58
f 28 362 351
f 489 131 487
f 431 444 452
f 84 558 560
f 98 366 360
f 45 169 170
f 379 101 378
f 462 463 125
f 308 84 314
f 10 432 309
f 299 24 310
f 132 492 502
f 512 387 7
f 639 638 408
f 565 323 86
f 59 244 242
f 106 400 402
f 440 33 426
f 566 565 563
f 617 398 378
f 224 225 59
f 410 109 409
f 239 400 399
f 194 219 53
f 358 22 347
f 610 157 609
f 27 595 603
f 479 484 482
f 142 520 521
f 585 25 577
f 339 578 577
f 408 407 406
f 407 109 406
f 31 408 406
f 407 408 108
f 31 639 408
f 419 31 406
f 608 616 40
f 430 429 431
f 455 35 429
f 35 444 431
f 188 51 187
f 188 182 51
f 51 322 187
f 322 51 319
f 51 182 183
f 319 51 183
f 187 322 321
f 322 319 324
f 381 101 379
f 405 407 108
f 404 405 108
f 286 285 178
f 407 405 409
f 109 407 409
f 191 175 47
f 167 164 170
f 50 184 185
f 44 167 170
f 64 244 236
f 243 244 64
f 50 188 189
f 541 542 145
f 442 445 119
f 339 91 578
f 445 446 119
f 624 623 622
f 611 624 157
f 523 526 141
f 141 527 529
f 527 514 529
f 445 120 444
f 446 445 444
f 35 446 444
f 613 614 158
f 158 614 615
f 623 613 158
f 614 613 391
f 614 612 615
f 371 376 374
f 100 376 371
f 479 482 123
f 373 394 384
f 540 42 634
f 633 540 634
f 538 42 540
f 633 634 161
f 161 634 640
f 42 626 634
f 540 633 144
f 557 556 338
f 553 333 89
f 262 21 264
f 251 21 262
f 5 335 333
f 270 251 262
f 21 251 249
f 600 593 30
f 606 593 600
f 600 30 375
f 593 390 30
f 30 377 375
f 390 388 30
f 30 388 377
f 228 243 241
f 470 478 459
f 470 127 478
f 127 477 478
f 184 186 185
f 478 477 476
f 122 478 476
f 357 74 280
f 518 39 507
f 344 342 85
f 325 344 85
f 342 344 343
f 85 342 321
f 344 90 343
f 90 344 336
f 482 129 481
f 482 481 457
f 482 457 123
f 481 37 457
f 449 447 34
f 435 449 34
f 470 472 471
f 472 470 37
f 470 471 127
f 472 126 471
f 126 468 471
f 470 459 37
f 491 126 472
f 504 129 485
f 221 59 242
f 125 463 465
f 437 34 562
f 561 437 562
f 554 568 562
f 34 554 562
f 437 561 116
f 390 103 389
f 103 386 389
f 392 105 391
f 572 586 580
f 572 580 36
f 586 152 580
f 473 572 36
f 244 243 242
f 225 244 59
f 64 240 241
f 240 239 241
f 237 240 64
f 243 64 241
f 236 237 64
f 411 607 521
f 9 411 521
f 110 607 411
f 607 142 521
f 610 607 110
f 171 15 184
f 171 169 15
f 15 186 184
f 87 584 581
f 153 588 582
f 588 575 582
f 381 102 380
f 573 572 473
f 468 469 128
f 474 468 128
f 469 571 128
f 571 573 128
f 573 473 128
f 473 474 128
f 564 323 565
f 26 323 564
f 323 324 86
f 325 323 26
f 325 324 323
f 563 565 86
f 324 325 85
f 410 230 18
f 230 228 18
f 18 228 241
f 18 241 239
f 401 619 618
f 401 402 107
f 403 402 401
f 619 159 618
f 401 618 32
f 619 401 107
f 403 401 32
f 618 611 32
f 159 624 618
f 478 122 459
f 122 458 459
f 37 459 457
f 459 458 457
f 122 456 458
f 457 458 123
f 191 190 192
f 485 129 484
f 129 482 484
f 483 485 484
f 130 483 484
f 189 187 14
f 191 50 189
f 191 189 175
f 189 14 175
f 14 177 175
f 499 501 500
f 501 499 38
f 38 499 590
f 135 499 500
f 488 501 38
f 499 135 591
f 480 454 4
f 284 12 346
f 4 423 506
f 480 4 506
f 423 531 506
f 480 506 505
f 531 137 506
f 506 137 505
f 365 366 98
f 71 270 262
f 270 71 269
f 71 267 269
f 335 334 333
f 333 334 89
f 334 335 91
f 536 9 519
f 465 463 461
f 537 140 541
f 520 140 519
f 119 446 465
f 465 461 119
f 461 441 119
f 460 441 461
f 176 46 173
f 299 297 24
f 71 263 266
f 263 260 266
f 260 72 266
f 263 70 260
f 205 201 49
f 201 181 49
f 186 205 49
f 181 201 200
f 181 182 49
f 284 77 283
f 586 587 152
f 588 586 151
f 20 267 265
f 266 267 71
f 31 417 631
f 631 417 632
f 31 631 639
f 417 31 419
f 641 631 161
f 417 112 632
f 161 631 632
f 418 417 419
f 417 418 112
f 284 345 77
f 542 550 145
f 542 541 524
f 284 174 12
f 48 174 283
f 373 20 265
f 373 265 374
f 609 608 525
f 608 157 622
f 560 559 313
f 636 637 162
f 541 140 524
f 41 542 524
f 358 357 280
f 70 263 264
f 263 262 264
f 176 177 46
f 174 48 173
f 174 173 172
f 538 551 549
f 538 540 539
f 537 541 539
f 232 221 242
f 17 221 232
f 232 242 62
f 231 232 62
f 203 205 55
f 203 55 202
f 201 205 203
f 202 55 217
f 205 206 55
f 204 203 202
f 73 275 292
f 292 290 73
f 272 290 282
f 290 292 291
f 75 290 291
f 290 75 282
f 70 277 259
f 277 70 281
f 277 281 279
f 260 70 259
f 12 174 172
f 104 396 388
f 367 27 354
f 365 27 367
f 354 27 356
f 365 367 366
f 595 27 365
f 318 299 310
f 155 596 597
f 155 597 598
f 596 594 597
f 595 596 155
f 605 595 155
f 180 47 179
f 180 190 47
f 352 372 11
f 11 372 261
f 312 310 24
f 642 636 162
f 636 297 637
f 367 369 97
f 366 367 97
f 369 367 354
f 369 370 97
f 580 579 464
f 580 152 579
f 579 124 464
f 61 230 409
f 230 410 409
f 230 61 229
f 230 229 228
f 76 285 286
f 353 352 276
f 74 353 276
f 288 76 286
f 288 286 283
f 289 288 287
f 203 54 201
f 287 288 77
f 77 288 283
f 286 48 283
f 531 423 113
f 276 11 259
f 11 261 259
f 277 276 259
f 616 158 615
f 516 616 615
f 138 516 615
f 138 615 612
f 509 533 532
f 503 502 504
f 635 79 294
f 635 294 404
f 635 637 79
f 637 635 638
f 638 635 108
f 635 404 108
f 226 61 405
f 61 226 227
f 405 61 409
f 227 226 207
f 48 178 179
f 48 286 178
f 173 48 179
f 534 143 533
f 534 535 143
f 531 534 533
f 533 143 532
f 137 531 533
f 261 372 371
f 13 180 178
f 285 13 178
f 180 13 166
f 13 168 166
f 346 345 284
f 331 327 46
f 46 327 172
f 172 327 326
f 382 620 101
f 442 121 448
f 443 121 442
f 2 226 404
f 294 2 404
f 404 226 405
f 207 226 2
f 550 551 145
f 552 146 551
f 143 550 532
f 552 550 143
f 330 329 328
f 24 636 629
f 94 352 353
f 352 11 276
f 113 428 534
f 428 535 534
f 509 41 511
f 535 552 143
f 550 552 551
f 550 542 532
f 369 95 368
f 326 327 87
f 87 327 329
f 327 331 329
f 581 326 87
f 293 79 298
f 79 297 298
f 296 298 78
f 79 293 294
f 296 293 298
f 598 490 38
f 358 280 22
f 280 279 278
f 357 358 95
f 74 357 353
f 330 328 25
f 567 23 559
f 590 598 38
f 590 604 598
f 598 604 155
f 604 590 154
f 590 591 154
f 604 154 606
f 297 299 298
f 299 318 78
f 298 299 78
f 355 354 356
f 629 636 642
f 312 24 629
f 629 642 160
f 370 362 97
f 362 363 97
f 363 366 97
f 364 363 362
f 362 370 351
f 96 363 364
f 297 636 24
f 162 637 638
f 637 297 79
f 490 488 38
f 598 597 490
f 441 442 119
f 443 442 441
f 443 441 5
f 442 448 445
f 296 78 295
f 326 12 172
f 575 574 364
f 47 175 176
f 175 177 176
f 47 176 179
