# FEM surface export ¡ª frame 893
# Vertices: 642  Faces: 1280
v -0.55535030 0.87068868 -0.02870729
v 0.48317620 0.95643693 -0.01715178
v -0.48302016 0.74352270 0.04521615
v 0.55429727 0.61190933 0.03762728
v 0.02536261 0.34774536 0.86487496
v -0.06659529 0.61694467 0.83330429
v -0.02539483 0.44707143 -0.87553668
v 0.01804590 0.55748093 -0.83861691
v 0.88060385 0.07456587 -0.51941031
v 0.87758845 0.18819578 0.54522443
v -0.85783106 0.06392585 -0.56276190
v -0.88892716 0.07669691 0.52164185
v -0.79953116 0.53301096 0.29312447
v -0.49648112 0.33410367 0.77464211
v -0.37664199 0.87732673 0.46393174
v 0.23264940 0.95099533 0.48180121
v -0.06629150 1.10133719 -0.03576694
v 0.28911731 0.86343193 -0.51621461
v -0.30986011 0.84593683 -0.51383740
v -0.48416129 0.37718374 -0.79635847
v -0.80252641 0.51532120 -0.31236559
v -1.01490831 0.12674023 0.01305699
v 0.45599821 0.46155882 0.83080161
v 0.75679702 0.62604797 0.30613443
v -0.50209028 0.19580832 0.86340111
v 0.00039239 0.12360550 1.01571834
v -0.80002737 0.39733264 -0.25395226
v -0.80925947 0.44295698 0.31698966
v 0.00275774 0.02373621 -1.01518190
v -0.49280587 0.17418246 -0.79161030
v 0.77137649 0.57438576 -0.28607765
v 0.50481695 0.34827715 -0.78947145
v 0.84002924 0.20252284 0.30896023
v 0.54356253 0.15203971 0.80064791
v 0.39992017 0.53277457 0.50268042
v -0.23731077 0.64481491 0.55617195
v 0.02417694 0.50734037 0.06266315
v -0.31403172 0.57108229 -0.49996409
v 0.29161176 0.64569771 -0.47023860
v 0.49562475 0.22626619 -0.85034943
v 0.84569943 0.40797809 -0.31854576
v 1.02601337 0.14652489 0.01103040
v -0.70821702 0.71403944 0.14177106
v -0.60759240 0.69799304 0.40276650
v -0.49481931 0.89961672 0.23750038
v -0.68194664 0.19553520 0.66782910
v -0.65569323 0.41364792 0.56865907
v -0.83913839 0.29938892 0.42404729
v -0.22545421 0.77578807 0.66426671
v -0.44268078 0.62439495 0.64220947
v -0.29586077 0.49259952 0.83493370
v -0.24200432 1.05163896 0.23488052
v -0.33845007 1.02479219 -0.03479638
v 0.07484739 0.80033654 0.67687106
v -0.07024170 0.95084232 0.49065325
v 0.22103369 1.07698011 -0.02402861
v 0.08976077 1.07121980 0.23056263
v 0.36362910 0.98450905 0.23359790
v -0.21712635 1.01577985 -0.29107800
v -0.45954213 0.88227016 -0.29063010
v 0.40344679 0.94461119 -0.27858844
v 0.11651322 1.03044343 -0.28557736
v -0.15156449 0.72045338 -0.70997041
v -0.01590347 0.90320367 -0.54145247
v 0.15470669 0.72958481 -0.70792472
v -0.56858683 0.69101435 -0.43756464
v -0.70520151 0.70426184 -0.18162195
v -0.23278192 0.45792916 -0.83522522
v -0.40606776 0.59735429 -0.67883277
v -0.86135644 0.29389563 -0.44895533
v -0.67599475 0.46869212 -0.56657028
v -0.72129172 0.25773692 -0.72105575
v -0.85150939 0.55256116 -0.02090632
v -0.99298370 0.04535031 -0.26429915
v -0.97228277 0.30252808 -0.17906591
v -0.93474936 0.32747221 0.16247958
v -0.94732928 0.21614239 0.26117086
v 0.51151508 0.81661183 0.42639822
v 0.64201409 0.81096101 0.15403976
v 0.20594168 0.55604410 0.84731376
v 0.32236263 0.71518493 0.67193091
v 0.83973819 0.43567529 0.44986650
v 0.61763126 0.58692038 0.61235225
v 0.69870847 0.34749162 0.69528240
v -0.28170827 0.26252827 0.97762418
v -0.03900578 0.37259457 0.94676501
v -0.74095362 0.09443492 0.70715427
v -0.54854071 0.05366355 0.87907594
v 0.00969635 0.12698326 1.00491714
v -0.31046483 0.00960342 0.98020059
v -0.23686507 0.31093717 0.87958115
v -0.95292747 0.22836256 0.20103474
v -0.89544654 0.27220002 0.48384070
v -0.84981662 0.15049712 -0.39863530
v -0.94803143 0.18179317 -0.10347201
v -0.65089244 0.60715586 0.15962993
v -0.85102719 0.45090583 0.00017373
v -0.66624182 0.60831374 -0.12585880
v -0.52226043 0.13464507 -0.89729887
v -0.69754970 0.00922725 -0.67054003
v 0.02346211 0.29250902 -0.90524119
v -0.24294010 0.23345086 -0.96307856
v -0.29638657 0.34574929 -0.85114795
v -0.26896521 0.09596337 -0.98800379
v -0.00155894 0.25612766 -1.01979494
v 0.42017940 0.62895709 -0.67263407
v 0.27877706 0.47544208 -0.83603752
v 0.66299707 0.78083819 -0.14731747
v 0.57958305 0.74698585 -0.40913844
v 0.70366585 0.19480306 -0.69367850
v 0.66800702 0.45503983 -0.56174642
v 0.83514905 0.32571596 -0.41681752
v 0.71895409 0.39745495 0.16926631
v 0.62269688 0.36986390 0.39146397
v 0.49508953 0.57795984 0.26312795
v 0.73913872 0.04299088 0.71898592
v 0.70625734 0.15076552 0.56064636
v 0.84274012 0.13782212 0.36849171
v 0.20962961 0.46092308 0.71491528
v 0.45710778 0.34691083 0.66551560
v 0.27122873 0.23452884 0.89277577
v 0.28047764 0.68798327 0.25868967
v 0.35597843 0.55953944 0.02800635
v -0.11364621 0.51544237 0.71934378
v 0.11556028 0.63821805 0.51750022
v -0.22157721 0.61912590 0.08193603
v -0.06814557 0.74458301 0.30326766
v -0.38537371 0.73385173 0.29697934
v 0.18691987 0.58124793 -0.24386884
v 0.45707566 0.68478131 -0.22407000
v -0.42804661 0.67053980 -0.19631873
v -0.16654260 0.56301630 -0.20141758
v 0.14121956 0.55816507 -0.69843102
v -0.03885565 0.63775432 -0.49365172
v -0.18455203 0.56107086 -0.69842589
v 0.58922654 0.58178896 -0.40095821
v 0.72709173 0.48954347 -0.11398943
v 0.25747916 0.33977455 -0.90069729
v 0.42535433 0.49419010 -0.69802397
v 0.88327992 0.23771147 -0.44993269
v 0.65897042 0.37520882 -0.62662518
v 0.71207196 0.08256245 -0.72853804
v 0.86258978 0.31275254 0.01867249
v 1.00507605 0.14467809 -0.28442416
v 0.96985090 0.09435382 -0.19113253
v 1.01863241 0.04530151 0.12333378
v 0.98351920 0.19175549 0.29252875
v 0.31158367 0.01684316 1.00636303
v 0.53619289 0.17998967 0.88633901
v 0.24099290 0.31924266 0.95975214
v -0.53962916 0.61239105 0.46029091
v -0.35237989 0.43695346 0.72059625
v -0.66245383 0.38412160 0.60457963
v -0.45803225 0.48961565 -0.68992805
v -0.61334938 0.56605196 -0.39331508
v -0.68778235 0.29936892 -0.55144775
v 0.54155171 0.07100942 -0.88152051
v 0.28073162 0.07928094 -1.00687218
v 0.27516887 0.24869256 -0.95981550
v 0.93101567 0.39662325 0.16994250
v 0.91615421 0.36279413 -0.15599263
v 0.82428384 0.62601125 0.02673263
v -0.64592266 0.80188727 0.05052527
v -0.60171998 0.80403364 0.18917854
v -0.53357589 0.89454883 0.10239095
v -0.70787024 0.58349067 0.36275810
v -0.66997474 0.69807380 0.28260320
v -0.76054496 0.62130517 0.21833441
v -0.44331530 0.90341878 0.35216311
v -0.56294692 0.80500633 0.32133430
v -0.49539268 0.79226011 0.43548027
v -0.79944456 0.14228661 0.59310323
v -0.77642912 0.24604312 0.54411674
v -0.86641014 0.16171660 0.46156201
v -0.58964539 0.37934458 0.67255270
v -0.68425947 0.30092186 0.61802959
v -0.59026283 0.25562328 0.72898620
v -0.81975108 0.43691817 0.37255135
v -0.76911348 0.35092971 0.49501112
v -0.74486560 0.44500822 0.43333089
v -0.13766922 0.69581956 0.76146078
v -0.26144737 0.64923292 0.75020599
v -0.17627683 0.55898958 0.83442855
v -0.41109011 0.76448441 0.56113613
v -0.34543172 0.70661765 0.66348320
v -0.29693353 0.82727557 0.56115484
v -0.39739540 0.41039771 0.82386446
v -0.37500525 0.56942981 0.73862666
v -0.48290035 0.47452089 0.73013419
v -0.63893890 0.55203003 0.49375018
v -0.54846209 0.52607799 0.60484064
v -0.52470863 0.66725940 0.53026712
v -0.42379233 0.97422999 0.09919396
v -0.45697296 0.95542204 -0.03894607
v -0.31540713 0.97473323 0.35836357
v -0.37377152 0.99211073 0.23616344
v -0.20735998 1.07293403 -0.03444023
v -0.30053961 1.05243611 0.09848495
v -0.16203938 1.09527242 0.09748340
v 0.00535740 0.70747828 0.75840503
v -0.06638467 0.79223698 0.68520027
v 0.07951638 0.96116596 0.49856433
v 0.00016519 0.88816625 0.59096491
v 0.14884995 0.88670689 0.58419442
v -0.14176407 0.86951077 0.58500761
v -0.22590631 0.93378466 0.48665914
v 0.35895467 1.02236509 -0.03257092
v 0.29655105 1.04344451 0.09878050
v 0.42430171 0.98274833 0.10991747
v 0.00543790 1.10191858 0.09680027
v 0.15098594 1.08523703 0.10336139
v 0.08037556 1.09802055 -0.02525836
v 0.29835522 0.97954071 0.36303774
v 0.22991104 1.03552198 0.23152627
v 0.16405377 1.01777387 0.36671752
v -0.15135990 1.01964009 0.36917582
v 0.01861033 1.02944362 0.37305093
v -0.07162010 1.07816899 0.23641101
v -0.40699962 0.97249866 -0.16730788
v -0.51773423 0.88956010 -0.16637081
v -0.14764619 1.06703758 -0.16083786
v -0.28333589 1.03275490 -0.16913308
v -0.38720721 0.86918181 -0.40259320
v -0.34238183 0.96371901 -0.29855210
v -0.26218900 0.93892729 -0.40713206
v 0.45376158 0.96256965 -0.15591560
v 0.31745350 1.02477598 -0.15393326
v 0.20896563 0.96181130 -0.41224402
v 0.25894582 0.99809384 -0.28505629
v 0.34954125 0.92125756 -0.39997360
v 0.16865103 1.06520081 -0.15223406
v 0.02906900 1.08493137 -0.15629527
v -0.06607413 0.64322352 -0.78363103
v 0.00345794 0.74811000 -0.71308237
v 0.08625089 0.66001296 -0.78223455
v -0.16454153 0.88623804 -0.53925967
v -0.07544988 0.82005149 -0.62822062
v -0.22465648 0.78895158 -0.62308484
v 0.21620090 0.80661267 -0.62301338
v 0.07492541 0.82665890 -0.63464618
v 0.13271491 0.89196926 -0.53824532
v -0.05278687 1.03875351 -0.28888097
v 0.05149003 0.97880650 -0.41759408
v -0.10728953 0.97190768 -0.41501126
v -0.59048015 0.80439162 -0.23847802
v -0.63381606 0.79466981 -0.10850488
v -0.44484302 0.77878046 -0.47783399
v -0.52044785 0.79440987 -0.36597705
v -0.75557005 0.61102408 -0.24164948
v -0.64654619 0.69900399 -0.31508413
v -0.69032425 0.61044621 -0.37272951
v -0.10759228 0.52434987 -0.84127331
v -0.20117030 0.59359092 -0.77893144
v -0.44979191 0.49845368 -0.73061174
v -0.32280141 0.51667517 -0.76247525
v -0.37104332 0.42599040 -0.81905663
v -0.28710169 0.66086197 -0.69655788
v -0.35215491 0.72352892 -0.60036141
v -0.88269186 0.19170539 -0.50698364
v -0.79015899 0.27942905 -0.59327722
v -0.80632299 0.18067399 -0.63861215
v -0.73248202 0.51716948 -0.44343349
v -0.78207052 0.40062538 -0.49485067
v -0.82189292 0.41112638 -0.38236171
v -0.61801881 0.31616122 -0.76167417
v -0.70299983 0.36883992 -0.65066016
v -0.59752178 0.42682654 -0.70610619
v -0.47934309 0.66030157 -0.57599247
v -0.52288699 0.52264786 -0.63050896
v -0.60532218 0.57758892 -0.51301044
v -0.71297419 0.72596383 -0.02387506
v -0.82970524 0.53873134 -0.16996916
v -0.78033304 0.63751543 -0.09593123
v -0.79391170 0.63731116 0.06168759
v -0.84562230 0.54111367 0.14074486
v -0.92973489 0.04190417 -0.42563257
v -0.93695211 0.16510710 -0.38198805
v -1.01899302 0.22603241 -0.08853561
v -0.99014562 0.18503824 -0.23435400
v -1.01626265 0.09956860 -0.11757018
v -0.91045314 0.29768646 -0.30714080
v -0.88305414 0.40568712 -0.23420116
v -0.91854179 0.22370817 0.37354261
v -0.95733500 0.13151476 0.43338397
v -0.86751676 0.43446052 0.23051722
v -0.89206457 0.34080258 0.30213690
v -1.03700292 0.13052042 0.15193890
v -0.96819043 0.23544042 0.22661589
v -1.00114167 0.23637542 0.09111015
v -0.91827494 0.42724264 -0.09396634
v -0.97679281 0.33128205 -0.01162604
v -0.92235053 0.44281322 0.06868075
v 0.50831068 0.91237342 0.19770099
v 0.56657934 0.89258683 0.06593724
v 0.37163416 0.88800097 0.45478961
v 0.43803436 0.90259749 0.32960907
v 0.70318204 0.71796262 0.23872204
v 0.58412248 0.82150167 0.29413229
v 0.63823140 0.72900677 0.37818941
v 0.05926698 0.58734173 0.85071611
v 0.12970476 0.67275840 0.77613229
v 0.39855662 0.60616624 0.75532794
v 0.26431939 0.64010864 0.77215797
v 0.34334385 0.52102035 0.84829545
v 0.19404632 0.75653714 0.67892200
v 0.27339572 0.82923138 0.57799649
v 0.86326045 0.32062581 0.49435779
v 0.78351986 0.39618996 0.58148289
v 0.79266638 0.26697773 0.62459123
v 0.68745089 0.60905606 0.45843953
v 0.73125607 0.51625144 0.52523029
v 0.80148023 0.53504473 0.37186527
v 0.59396660 0.41018626 0.77570158
v 0.66642243 0.47463048 0.65515703
v 0.54337728 0.53066665 0.73070729
v 0.42671087 0.76728171 0.55894172
v 0.47699893 0.65501767 0.66187519
v 0.56091005 0.69341624 0.52229130
v -0.17307812 0.44052756 0.91011834
v -0.03796811 0.49893212 0.91005671
v -0.40910301 0.27964813 0.88850695
v -0.28892702 0.36337304 0.89405841
v -0.01299958 0.23392560 0.99921131
v -0.14068408 0.30281118 0.97613609
v -0.14582579 0.19090010 1.01629674
v -0.81463039 0.05751896 0.61415190
v -0.72246134 0.08817383 0.70932531
v -0.54652029 0.11929132 0.84347916
v -0.65621078 0.01870461 0.78984392
v -0.63193893 0.19138984 0.77076989
v -0.61937356 0.11320341 0.77617967
v -0.52801687 0.18564248 0.83076948
v 0.01883750 0.23833710 0.93734211
v -0.10310856 0.19247225 0.92427248
v -0.09776948 0.31410936 0.88984162
v -0.14268504 0.05970043 1.04604709
v -0.15089203 0.07175044 0.98813051
v 0.01002446 0.01998574 1.06427836
v -0.35978568 0.25898772 0.87156934
v -0.26249915 0.16314705 0.96144009
v -0.39122155 0.11960483 0.94439244
v -0.41554928 0.14886205 0.91330296
v -0.44528383 0.02751468 0.95810187
v -0.29426497 0.12073539 0.98705494
v -0.95538586 0.15994021 0.38470709
v -0.90691280 0.16948655 0.53551048
v -0.91153663 0.04957628 0.15284762
v -0.99940997 0.11138160 0.26182815
v -0.87304544 0.36813006 0.40864140
v -0.91646612 0.22909771 0.31567830
v -0.92156565 0.34609523 0.26270697
v -0.88251394 0.04845401 -0.46751162
v -0.93839067 0.05367731 -0.33750278
v -0.87514114 0.28128344 -0.21268292
v -0.91011447 0.16220093 -0.26030654
v -0.81324631 0.28040293 -0.30253291
v -0.99823833 0.05671982 -0.17654489
v -1.01767075 0.02336594 -0.02612755
v -0.56806988 0.69236475 0.10832141
v -0.66933745 0.63693953 0.01956058
v -0.58125538 0.69371355 -0.03856117
v -0.84651053 0.44682586 0.15500490
v -0.74939394 0.55225414 0.10088351
v -0.73047537 0.52887619 0.24422173
v -0.72880822 0.52760500 -0.18817319
v -0.76410997 0.53858638 -0.04583766
v -0.81333691 0.42201406 -0.12049919
v -0.97587526 0.19105659 0.03633834
v -0.91002887 0.32358336 -0.05459603
v -0.92342961 0.34597841 0.07772078
v -0.73973286 0.09897264 -0.72608167
v -0.80006397 0.01792066 -0.62037027
v -0.52625680 0.26780027 -0.85380405
v -0.64412653 0.19093300 -0.81248206
v -0.60830498 0.08004726 -0.73503906
v -0.63139701 0.03243270 -0.82172859
v -0.52074456 0.01187181 -0.85661399
v 0.02743390 0.42679679 -0.88095254
v -0.10156122 0.40152490 -0.90176672
v -0.11161363 0.16846515 -0.99521708
v -0.10533994 0.27098042 -0.94392169
v 0.01708063 0.17898710 -0.96888888
v -0.24401028 0.35085604 -0.90392822
v -0.35856351 0.31265357 -0.89291537
v -0.16424495 0.40154713 -0.87897164
v -0.16564219 0.29029739 -0.93754983
v -0.00552983 0.35119894 -0.94812113
v -0.38122597 0.13625996 -0.86527812
v -0.29310209 0.21077161 -0.91383934
v -0.38923946 0.27816451 -0.80990416
v 0.02441864 0.16431580 -1.05677867
v -0.13394219 0.18221021 -1.02105916
v -0.09227978 0.06096037 -1.03225935
v -0.41088751 0.21218199 -0.96213233
v -0.26743641 0.12186465 -1.01131034
v -0.41548574 0.04135170 -0.96042955
v 0.22054896 0.61023211 -0.78930992
v 0.15669146 0.52282441 -0.84677494
v 0.35993192 0.76007062 -0.60084444
v 0.28689212 0.68691367 -0.69468009
v 0.39620197 0.40900612 -0.80628669
v 0.35476929 0.55526972 -0.76391339
v 0.47343183 0.49647874 -0.73605001
v 0.58632523 0.89097524 -0.08533017
v 0.54901749 0.88086581 -0.21258508
v 0.68568134 0.66010201 -0.35233170
v 0.62545800 0.77407187 -0.28098044
v 0.72245651 0.69150543 -0.22779831
v 0.50190288 0.85624325 -0.35018954
v 0.44281441 0.82604724 -0.46557102
v 0.78380275 0.12368485 -0.61274368
v 0.78622675 0.25446308 -0.54876989
v 0.85459340 0.19088021 -0.45887375
v 0.59991384 0.40120780 -0.68448251
v 0.69925392 0.32597539 -0.62678868
v 0.61545551 0.27596825 -0.74751872
v 0.81337661 0.46165296 -0.35680515
v 0.75615191 0.38704276 -0.48970771
v 0.73701680 0.52151352 -0.44002053
v 0.50158656 0.70379841 -0.55143243
v 0.62954789 0.61178082 -0.50308710
v 0.55810696 0.54621649 -0.61702257
v 0.65190732 0.50462812 0.10259235
v 0.64158869 0.48155376 0.20518619
v 0.52180141 0.60147119 0.14812835
v 0.71094668 0.27839959 0.33758205
v 0.70782030 0.38720676 0.29202160
v 0.77406752 0.29600346 0.26093575
v 0.48389041 0.53405774 0.36112922
v 0.59304518 0.46153918 0.31248924
v 0.54857779 0.47429615 0.45568955
v 0.82400799 0.10851452 0.65054828
v 0.77275246 0.16434065 0.53813934
v 0.88304746 0.05086838 0.49733877
v 0.63869578 0.18251586 0.70189291
v 0.71388656 0.12066973 0.63659453
v 0.61131239 0.08710196 0.78656083
v 0.88924545 0.09192106 0.32913926
v 0.82090747 0.04800319 0.48138437
v 0.78519946 0.14446110 0.41058448
v 0.13359903 0.39202121 0.76413304
v 0.24211368 0.34619910 0.78962028
v 0.15862806 0.31119800 0.87170321
v 0.44590944 0.45789006 0.58198470
v 0.34356740 0.43234313 0.67674983
v 0.31343475 0.52713871 0.61473596
v 0.42875671 0.20267306 0.85298401
v 0.36259881 0.27138457 0.78007579
v 0.51339400 0.26556531 0.74880403
v 0.67616159 0.25537515 0.47057617
v 0.61013478 0.27212554 0.63229913
v 0.58308125 0.36592197 0.54052347
v 0.44085878 0.67025083 0.13642111
v 0.44141552 0.53349108 -0.03045058
v 0.35242355 0.61235434 0.38907403
v 0.37750387 0.63395035 0.24969448
v 0.19647098 0.53634745 0.01528859
v 0.32512411 0.69298428 0.10261031
v 0.15268916 0.61312360 0.14762583
v -0.02837268 0.39700168 0.77009761
v 0.07235505 0.49128470 0.70385808
v -0.04681597 0.64102775 0.53577554
v 0.00968557 0.57388210 0.62187505
v -0.16703157 0.59542638 0.61888373
v 0.16693918 0.56243753 0.60841638
v 0.25930730 0.58582628 0.51930588
v -0.34871918 0.63346756 0.08264685
v -0.27227336 0.75951910 0.17698684
v -0.42317730 0.76630139 0.16766898
v -0.00258483 0.65391237 0.15838791
v -0.13212422 0.77129984 0.16766205
v -0.11037225 0.58045435 0.08994514
v -0.28759897 0.71484166 0.43268710
v -0.23512086 0.72108972 0.30685404
v -0.13999407 0.71246183 0.41774100
v 0.18627907 0.67706150 0.37865990
v 0.02817876 0.69508845 0.42138332
v 0.09064947 0.58250517 0.28386173
v 0.36099738 0.68693560 -0.09868074
v 0.53752017 0.66545761 -0.09145909
v 0.11875074 0.54181862 -0.08131122
v 0.25842473 0.57200652 -0.12404778
v 0.35957399 0.65549743 -0.33650187
v 0.28683957 0.73322719 -0.21566953
v 0.20220222 0.69732010 -0.34708109
v -0.45623764 0.75582731 -0.08100837
v -0.31382799 0.67555583 -0.06532658
v -0.26870403 0.50449419 -0.33696401
v -0.30709699 0.58828384 -0.19837895
v -0.39315999 0.56975722 -0.34676933
v -0.20107648 0.52742672 -0.06580484
v -0.06736998 0.58427757 -0.04821657
v 0.05841434 0.51067394 -0.80590904
v -0.01689194 0.56492233 -0.70855701
v -0.10379761 0.52266425 -0.80053431
v 0.15035042 0.68362886 -0.51019388
v 0.07811335 0.60888636 -0.60122353
v 0.24585021 0.60632986 -0.56960511
v -0.27440792 0.48435435 -0.58736908
v -0.11138752 0.57815814 -0.61521411
v -0.15900350 0.47392058 -0.48016030
v 0.04014284 0.60290813 -0.23223917
v -0.09168661 0.56511402 -0.37026986
v 0.08247519 0.68792444 -0.36700612
v 0.59341323 0.57611215 -0.16577284
v 0.64897853 0.55819505 -0.02533824
v 0.43710992 0.61510384 -0.43280441
v 0.51356846 0.60118008 -0.29191375
v 0.79082566 0.44861937 -0.23330554
v 0.67326808 0.53833306 -0.25723544
v 0.72377592 0.50595862 -0.37004885
v 0.13123596 0.41739559 -0.89868271
v 0.20379816 0.44999269 -0.80340815
v 0.45830932 0.36725548 -0.77153885
v 0.34048823 0.38327470 -0.79696101
v 0.39117098 0.27458209 -0.87205547
v 0.29374880 0.51508909 -0.70426965
v 0.36676648 0.59913421 -0.60905594
v 0.86924070 0.12280383 -0.54312313
v 0.79484302 0.16656306 -0.59864390
v 0.81252944 0.03796215 -0.63996285
v 0.76851887 0.41490731 -0.46757391
v 0.78036934 0.32459515 -0.53341657
v 0.85983461 0.31542617 -0.37600544
v 0.62053168 0.17221265 -0.79678410
v 0.71914679 0.21955115 -0.67042422
v 0.60897136 0.28125393 -0.74110210
v 0.50851136 0.54974353 -0.55553085
v 0.53449786 0.45335677 -0.69941688
v 0.64490718 0.49995008 -0.54412085
v 0.76220858 0.44044277 0.02327500
v 0.86113304 0.34897017 -0.14892831
v 0.81045324 0.42582387 -0.07423443
v 0.80688411 0.33609942 0.09157757
v 0.86794156 0.24111481 0.15701142
v 0.97265559 0.14529796 -0.42110929
v 0.97789645 0.09706119 -0.41235763
v 1.04418981 0.01216890 -0.09497755
v 1.01340532 0.04175563 -0.24767701
v 1.01042593 0.11989557 -0.13976939
v 0.95319033 0.16450228 -0.33817646
v 0.92569065 0.24574998 -0.26045495
v 0.94994956 0.02241691 0.36456025
v 0.94867635 0.18074973 0.42098004
v 0.91323006 0.12284253 0.22466858
v 0.95598453 0.00148810 0.27818826
v 1.00285780 0.15753376 0.14531058
v 1.02701092 0.07380644 0.21619077
v 1.05305433 0.03185290 0.05884674
v 0.94986475 0.21732704 -0.09961324
v 1.00046551 0.13741091 -0.03591758
v 0.96542597 0.17681934 0.07610880
v 0.16925167 0.18771847 0.97118652
v 0.41899446 0.13685235 0.90297467
v 0.27914086 0.13482401 0.93765622
v 0.17270485 0.07731202 1.02868772
v 0.15143506 0.10057672 1.05580795
v 0.74269927 0.21100974 0.72032028
v 0.52137464 0.31761274 0.87241066
v 0.63437909 0.26668140 0.79530382
v 0.63075435 0.10235189 0.78691649
v 0.53845733 0.01835339 0.87104595
v 0.08356234 0.47089025 0.90716332
v 0.12937577 0.21770015 0.99903721
v 0.11099236 0.34909266 0.96718109
v 0.22828789 0.43760428 0.91839850
v 0.36450750 0.37578157 0.90891868
v 0.41881436 0.09885839 0.97062081
v 0.40460682 0.25751406 0.95100254
v 0.27370116 0.17466627 1.00790000
v -0.50222200 0.69449109 0.24597216
v -0.39763942 0.63305521 0.49546695
v -0.45356494 0.69801027 0.40349424
v -0.60629147 0.60941124 0.30314225
v -0.68178612 0.55682272 0.36456767
v -0.16238806 0.41151232 0.82079619
v -0.46544042 0.32916501 0.77475542
v -0.32256541 0.36793435 0.78793311
v -0.23030633 0.47777149 0.71882814
v -0.30583456 0.55783242 0.63527912
v -0.82928926 0.20567504 0.64004183
v -0.76982176 0.45563972 0.48271990
v -0.78644210 0.33174419 0.55367273
v -0.72722262 0.25342336 0.68847752
v -0.59325284 0.31231025 0.76274610
v -0.45370838 0.53511018 0.60954010
v -0.52764648 0.43416357 0.67626917
v -0.62138397 0.52004862 0.52890480
v -0.22448614 0.48046932 -0.78647625
v -0.40233794 0.58661062 -0.58059996
v -0.32027420 0.52912271 -0.68135089
v -0.37892249 0.42725289 -0.79228359
v -0.48559654 0.33103213 -0.73434156
v -0.53406084 0.68735671 -0.14689428
v -0.70596254 0.48708767 -0.30982089
v -0.62076598 0.61860430 -0.24997258
v -0.52177185 0.68195659 -0.31050223
v -0.47494072 0.63938177 -0.43962488
v -0.78833425 0.08858420 -0.54474217
v -0.60914230 0.22054324 -0.67164361
v -0.71887249 0.16097967 -0.61221498
v -0.79428136 0.21103892 -0.46427360
v -0.75059837 0.34363094 -0.39779696
v -0.54736680 0.51473755 -0.53718674
v -0.64097100 0.43325582 -0.45880753
v -0.54836267 0.37306562 -0.61731988
v 0.71122682 0.06532564 -0.72183889
v 0.53165841 0.07196290 -0.85027063
v 0.63165176 0.01946930 -0.80064756
v 0.63533598 0.16325332 -0.80122507
v 0.52518606 0.21804869 -0.83658886
v 0.14284381 0.30960256 -0.97217971
v 0.15342131 0.06911268 -1.04486406
v 0.13552032 0.20794097 -1.03732431
v 0.28572670 0.21449605 -0.95293355
v 0.39784247 0.12632886 -0.94221336
v 0.14404207 0.38198295 -0.86273164
v 0.39387643 0.30793178 -0.87021083
v 0.25933275 0.32942128 -0.85883874
v 0.14067711 0.26853746 -0.93186665
v 0.13437732 0.14897098 -0.98510855
v 0.41962871 0.02172830 -0.96168989
v 0.30418742 0.15596834 -0.99811119
v 0.42305276 0.17439204 -0.92720151
v 0.92626411 0.31287432 0.37884757
v 0.97596604 0.25898600 0.09423378
v 0.96844816 0.29927874 0.24012679
v 0.89440447 0.43694177 0.31300238
v 0.85244787 0.52770030 0.23221804
v 0.94159275 0.24646302 -0.35588807
v 0.85921645 0.47574386 -0.22323464
v 0.88614297 0.36224261 -0.30329296
v 0.96532369 0.25086284 -0.21536690
v 0.99345994 0.25819412 -0.07601014
v 0.66903514 0.81746030 -0.00791979
v 0.79376614 0.63751507 0.15445039
v 0.73287380 0.72748846 0.08177240
v 0.74829566 0.70651364 -0.06451079
v 0.80159265 0.61479110 -0.13615033
v 0.93452305 0.37056595 0.00038097
v 0.86821723 0.50511253 -0.06772923
v 0.87675524 0.50888878 0.09573699
f 330 87 329
f 336 325 26
f 207 208 56
f 464 36 580
f 502 129 504
f 157 624 622
f 308 311 82
f 247 223 248
f 507 483 508
f 331 88 329
f 494 500 497
f 156 601 602
f 591 589 592
f 365 98 596
f 75 281 282
f 152 587 577
f 149 559 560
f 555 121 553
f 530 141 529
f 515 517 139
f 361 594 98
f 250 67 249
f 157 608 609
f 294 293 209
f 317 81 316
f 557 338 26
f 303 305 81
f 530 529 528
f 101 381 382
f 415 418 111
f 192 184 50
f 412 110 411
f 20 384 256
f 131 594 486
f 281 264 282
f 347 287 348
f 28 349 582
f 165 163 1
f 248 250 66
f 617 107 398
f 273 271 274
f 456 115 453
f 558 561 560
f 335 576 91
f 331 177 332
f 116 433 436
f 351 370 92
f 136 511 530
f 239 240 65
f 247 258 19
f 304 23 567
f 148 557 570
f 214 208 58
f 440 426 450
f 268 270 269
f 258 247 268
f 204 202 16
f 466 125 465
f 517 513 133
f 168 275 274
f 275 73 274
f 198 193 53
f 309 308 307
f 510 511 136
f 415 416 110
f 131 490 597
f 473 475 474
f 414 415 111
f 493 495 494
f 496 504 485
f 433 116 432
f 600 375 601
f 240 234 65
f 418 415 412
f 486 361 3
f 567 566 304
f 380 393 29
f 17 199 197
f 491 492 132
f 451 449 435
f 218 217 216
f 623 621 613
f 396 104 395
f 433 439 436
f 628 160 627
f 215 202 217
f 209 207 2
f 427 113 424
f 434 10 544
f 434 433 432
f 199 17 210
f 150 564 565
f 489 491 132
f 275 13 285
f 497 500 134
f 125 466 476
f 578 152 577
f 208 214 211
f 328 88 343
f 356 27 603
f 150 566 567
f 372 100 371
f 190 191 47
f 235 8 398
f 260 261 72
f 422 403 414
f 422 414 111
f 453 454 123
f 349 583 582
f 521 520 519
f 425 453 115
f 616 622 158
f 483 130 508
f 151 586 572
f 212 17 232
f 400 397 402
f 377 396 99
f 41 522 511
f 510 508 505
f 549 547 42
f 475 473 36
f 510 137 509
f 222 221 197
f 430 115 429
f 220 194 1
f 305 54 204
f 621 29 613
f 192 171 184
f 460 335 5
f 88 331 332
f 74 277 279
f 300 301 80
f 390 389 388
f 165 45 164
f 146 549 551
f 291 278 75
f 448 120 445
f 147 543 544
f 607 610 609
f 603 602 356
f 139 529 514
f 333 553 443
f 92 368 347
f 261 260 259
f 300 6 200
f 46 177 331
f 284 283 174
f 301 300 200
f 471 468 474
f 54 305 301
f 302 304 303
f 569 150 567
f 150 569 570
f 294 209 2
f 628 629 160
f 548 543 147
f 147 625 627
f 63 233 234
f 426 427 114
f 41 509 532
f 198 52 196
f 614 105 612
f 147 627 547
f 81 305 306
f 549 548 547
f 54 301 200
f 342 88 332
f 264 281 70
f 193 194 53
f 455 429 456
f 187 321 14
f 479 130 484
f 147 544 625
f 458 456 453
f 304 80 303
f 314 84 313
f 488 503 501
f 321 332 14
f 423 425 424
f 305 204 306
f 341 339 25
f 514 40 516
f 625 628 627
f 340 339 341
f 105 614 391
f 243 228 62
f 318 316 78
f 75 278 279
f 357 355 353
f 238 257 63
f 466 455 476
f 425 423 4
f 448 449 120
f 408 638 108
f 292 275 285
f 22 278 289
f 515 513 517
f 501 503 134
f 622 623 158
f 134 503 504
f 195 216 206
f 163 271 246
f 619 617 620
f 62 228 229
f 163 165 164
f 453 425 454
f 489 132 488
f 82 628 625
f 58 208 209
f 525 608 40
f 626 547 627
f 518 517 498
f 489 487 491
f 557 26 564
f 325 336 344
f 541 145 539
f 40 616 516
f 338 556 89
f 250 248 245
f 139 514 515
f 98 594 596
f 246 220 1
f 112 413 630
f 9 536 413
f 156 600 601
f 332 177 14
f 321 342 332
f 156 606 600
f 584 330 585
f 302 303 81
f 584 87 330
f 330 25 585
f 400 239 65
f 439 440 117
f 95 358 368
f 597 594 131
f 594 361 486
f 246 67 245
f 561 562 149
f 28 364 362
f 55 216 217
f 427 430 114
f 267 20 254
f 556 555 553
f 84 309 558
f 311 310 312
f 609 525 142
f 256 68 255
f 124 460 461
f 82 311 312
f 307 308 82
f 589 135 495
f 527 40 514
f 112 418 412
f 20 256 254
f 258 238 19
f 267 254 269
f 273 272 249
f 392 391 393
f 137 533 509
f 122 455 456
f 9 413 411
f 130 480 505
f 333 443 5
f 527 525 40
f 589 495 385
f 39 496 485
f 223 225 224
f 414 416 415
f 219 222 53
f 145 538 539
f 413 412 411
f 469 468 467
f 183 181 6
f 191 192 50
f 429 35 431
f 292 285 76
f 413 112 412
f 415 110 412
f 43 164 167
f 467 468 126
f 617 101 620
f 450 451 117
f 438 546 545
f 619 620 159
f 17 212 210
f 124 579 576
f 584 153 583
f 460 124 576
f 3 469 467
f 311 308 314
f 6 320 183
f 389 104 388
f 251 250 249
f 194 165 1
f 291 289 278
f 287 77 348
f 238 258 257
f 139 517 518
f 238 236 19
f 223 247 19
f 382 380 29
f 39 518 498
f 361 359 3
f 69 255 257
f 139 518 528
f 33 545 535
f 387 385 7
f 69 268 269
f 477 462 125
f 454 479 123
f 121 555 447
f 451 435 117
f 454 425 4
f 233 252 8
f 124 463 464
f 69 258 268
f 168 167 166
f 583 153 582
f 384 394 102
f 138 512 513
f 57 210 211
f 254 256 255
f 607 609 142
f 324 319 86
f 289 291 76
f 291 292 76
f 384 102 383
f 422 421 420
f 221 17 197
f 383 102 381
f 376 377 99
f 99 373 374
f 386 105 392
f 438 33 440
f 90 341 343
f 281 75 279
f 574 571 96
f 628 82 312
f 221 222 59
f 127 471 474
f 595 605 603
f 551 538 145
f 334 91 340
f 322 324 85
f 305 303 301
f 18 239 399
f 306 204 16
f 199 198 197
f 166 190 180
f 303 80 301
f 267 266 265
f 626 42 547
f 16 215 213
f 349 351 350
f 295 16 213
f 68 379 252
f 250 251 66
f 627 160 626
f 383 68 256
f 343 88 342
f 507 508 136
f 202 215 16
f 197 198 53
f 254 69 269
f 603 605 156
f 418 419 111
f 384 383 256
f 455 122 476
f 203 204 54
f 556 557 148
f 255 68 253
f 313 84 560
f 25 328 341
f 254 255 69
f 603 156 602
f 581 584 583
f 630 632 112
f 163 246 1
f 246 245 220
f 432 116 558
f 499 591 590
f 320 563 86
f 345 93 350
f 306 16 295
f 346 93 345
f 562 568 149
f 604 605 155
f 154 592 593
f 545 552 535
f 511 522 530
f 574 573 571
f 566 150 565
f 361 98 360
f 67 271 273
f 234 235 65
f 208 211 56
f 574 151 573
f 251 270 66
f 398 8 378
f 213 215 214
f 438 440 439
f 315 314 313
f 263 71 262
f 20 373 384
f 496 134 504
f 329 88 328
f 81 306 316
f 555 556 148
f 592 589 103
f 617 619 107
f 227 207 56
f 571 359 96
f 446 466 465
f 206 216 55
f 359 571 469
f 568 148 570
f 34 437 435
f 28 351 349
f 21 272 282
f 113 423 424
f 490 489 488
f 379 68 383
f 210 212 211
f 80 563 300
f 351 92 350
f 326 346 12
f 83 317 318
f 555 148 554
f 212 231 56
f 218 57 217
f 271 67 246
f 195 196 52
f 270 268 66
f 390 592 103
f 148 568 554
f 495 493 7
f 592 390 593
f 357 95 355
f 574 575 151
f 452 120 451
f 154 591 592
f 587 585 577
f 395 394 396
f 93 349 350
f 610 416 611
f 166 44 190
f 315 23 302
f 315 302 317
f 268 247 66
f 606 154 593
f 396 394 99
f 211 212 56
f 370 369 368
f 235 397 65
f 280 278 22
f 83 315 317
f 575 588 151
f 74 279 280
f 385 495 7
f 63 257 253
f 397 235 398
f 214 58 213
f 220 219 194
f 546 146 545
f 236 225 19
f 599 94 602
f 235 233 8
f 102 394 395
f 611 416 32
f 225 223 19
f 139 528 529
f 231 62 229
f 419 406 421
f 451 450 452
f 49 182 185
f 402 397 107
f 52 199 218
f 416 610 110
f 225 236 244
f 107 397 398
f 68 252 253
f 322 85 321
f 182 181 183
f 118 438 439
f 546 438 118
f 348 77 345
f 543 546 118
f 231 212 232
f 610 611 157
f 33 438 545
f 385 386 103
f 479 480 130
f 169 195 15
f 93 583 349
f 15 195 206
f 190 44 192
f 247 248 66
f 146 552 545
f 248 60 245
f 570 557 564
f 274 271 43
f 63 253 233
f 272 21 249
f 507 528 518
f 67 273 249
f 487 467 126
f 196 195 169
f 624 159 623
f 134 496 497
f 132 503 488
f 104 393 395
f 556 553 89
f 355 356 94
f 258 69 257
f 229 61 227
f 56 231 227
f 460 576 335
f 463 124 461
f 394 373 99
f 29 393 391
f 67 250 245
f 193 198 196
f 462 36 464
f 144 633 630
f 141 526 527
f 517 133 498
f 536 144 630
f 100 372 599
f 144 536 537
f 22 289 287
f 578 579 152
f 579 578 576
f 189 188 187
f 60 223 224
f 92 348 350
f 555 554 447
f 396 377 388
f 194 193 165
f 413 536 630
f 372 352 599
f 377 376 375
f 348 345 350
f 105 386 387
f 240 237 234
f 463 462 464
f 135 500 494
f 45 196 169
f 512 612 387
f 245 60 220
f 429 115 456
f 223 60 248
f 288 289 76
f 525 526 142
f 100 599 601
f 613 29 391
f 526 523 520
f 341 328 343
f 631 641 639
f 264 21 282
f 266 72 265
f 106 402 403
f 73 273 274
f 186 206 205
f 381 379 383
f 52 216 195
f 410 18 399
f 290 272 73
f 72 371 374
f 526 525 527
f 115 430 424
f 498 497 496
f 621 382 29
f 543 118 434
f 214 215 57
f 522 141 530
f 511 510 509
f 352 94 599
f 493 512 7
f 90 340 341
f 169 171 170
f 605 604 606
f 219 60 224
f 104 389 392
f 359 469 3
f 186 49 185
f 222 219 224
f 166 167 44
f 428 427 426
f 523 522 524
f 129 502 481
f 50 185 188
f 164 45 170
f 425 115 424
f 33 428 426
f 427 428 113
f 94 356 602
f 515 138 513
f 114 431 452
f 237 236 238
f 215 217 57
f 95 354 355
f 220 60 219
f 515 514 516
f 183 320 319
f 222 197 53
f 559 569 567
f 300 320 6
f 435 436 117
f 96 360 363
f 640 642 641
f 242 243 62
f 140 537 519
f 508 130 505
f 420 410 399
f 537 539 144
f 317 316 318
f 426 114 450
f 186 15 206
f 311 83 310
f 625 544 307
f 544 10 307
f 168 43 167
f 185 182 188
f 369 354 95
f 44 171 192
f 605 606 156
f 548 549 146
f 100 601 375
f 149 568 569
f 381 380 382
f 455 466 35
f 480 479 454
f 543 548 546
f 493 133 513
f 492 472 37
f 477 125 476
f 491 487 126
f 337 336 338
f 588 153 587
f 576 578 91
f 633 161 632
f 96 359 360
f 39 485 483
f 101 617 378
f 193 45 165
f 163 164 43
f 618 624 611
f 507 136 528
f 561 149 560
f 641 162 639
f 116 561 558
f 494 133 493
f 253 252 233
f 63 237 238
f 392 393 104
f 440 450 117
f 93 581 583
f 386 385 387
f 120 449 451
f 421 422 111
f 486 3 467
f 302 81 317
f 633 632 630
f 462 475 36
f 376 99 374
f 489 490 131
f 447 449 448
f 387 612 105
f 106 420 399
f 173 46 172
f 492 491 472
f 316 306 295
f 22 287 347
f 109 410 420
f 507 39 483
f 559 23 313
f 214 57 211
f 196 45 193
f 10 434 432
f 422 106 403
f 626 160 640
f 487 486 467
f 542 41 532
f 400 106 399
f 444 120 452
f 198 199 52
f 475 127 474
f 621 620 382
f 621 623 159
f 450 114 452
f 92 347 348
f 376 100 375
f 434 118 433
f 503 132 502
f 337 90 336
f 537 536 519
f 395 393 380
f 201 54 200
f 171 44 170
f 355 94 353
f 58 296 213
f 422 420 106
f 595 365 596
f 569 568 570
f 523 140 520
f 114 430 431
f 218 210 57
f 304 566 80
f 639 162 638
f 261 371 72
f 548 147 547
f 498 133 497
f 150 570 564
f 222 224 59
f 142 526 520
f 437 436 435
f 141 522 523
f 137 510 505
f 173 179 176
f 559 149 569
f 121 447 448
f 563 320 300
f 102 395 380
f 257 255 253
f 642 162 641
f 83 311 314
f 216 52 218
f 512 493 513
f 23 304 302
f 91 339 340
f 512 138 612
f 159 620 621
f 218 199 210
f 364 28 575
f 83 318 310
f 168 274 43
f 136 530 528
f 140 523 524
f 495 135 494
f 233 235 234
f 566 563 80
f 25 339 577
f 277 74 276
f 475 462 477
f 133 494 497
f 436 437 116
f 389 386 392
f 548 146 546
f 441 460 5
f 10 309 307
f 65 397 400
f 543 434 544
f 640 641 161
f 272 273 73
f 581 93 346
f 419 421 111
f 319 320 86
f 180 179 178
f 127 475 477
f 231 229 227
f 337 334 340
f 136 508 510
f 308 309 84
f 237 63 234
f 447 554 34
f 252 379 378
f 315 83 314
f 608 622 616
f 338 336 26
f 337 338 89
f 13 275 168
f 209 208 207
f 436 439 117
f 628 312 629
f 360 366 363
f 364 574 96
f 359 361 360
f 466 446 35
f 500 501 134
f 406 109 421
f 135 589 591
f 601 599 602
f 340 90 337
f 481 492 37
f 522 41 524
f 78 316 295
f 131 486 487
f 403 32 414
f 634 626 640
f 151 572 573
f 515 516 138
f 8 252 378
f 265 72 374
f 9 521 519
f 538 549 42
f 368 358 347
f 588 587 586
f 458 453 123
f 589 385 103
f 502 492 481
f 32 416 414
f 430 427 424
f 153 585 587
f 540 144 539
f 370 368 92
f 209 293 58
f 428 33 535
f 326 581 346
f 625 307 82
f 575 28 582
f 6 181 200
f 421 109 420
f 553 121 443
f 160 642 640
f 153 584 585
f 309 432 558
f 334 337 89
f 23 315 313
f 271 163 43
f 296 295 213
f 39 498 496
f 118 439 433
f 531 113 534
f 293 296 58
f 28 362 351
f 489 131 487
f 431 444 452
f 84 558 560
f 98 366 360
f 45 169 170
f 379 101 378
f 462 463 125
f 308 84 314
f 10 432 309
f 299 24 310
f 132 492 502
f 512 387 7
f 639 638 408
f 565 323 86
f 59 244 242
f 106 400 402
f 440 33 426
f 566 565 563
f 617 398 378
f 224 225 59
f 410 109 409
f 239 400 399
f 194 219 53
f 358 22 347
f 610 157 609
f 27 595 603
f 479 484 482
f 142 520 521
f 585 25 577
f 339 578 577
f 408 407 406
f 407 109 406
f 31 408 406
f 407 408 108
f 31 639 408
f 419 31 406
f 608 616 40
f 430 429 431
f 455 35 429
f 35 444 431
f 188 51 187
f 188 182 51
f 51 322 187
f 322 51 319
f 51 182 183
f 319 51 183
f 187 322 321
f 322 319 324
f 381 101 379
f 405 407 108
f 404 405 108
f 286 285 178
f 407 405 409
f 109 407 409
f 191 175 47
f 167 164 170
f 50 184 185
f 44 167 170
f 64 244 236
f 243 244 64
f 50 188 189
f 541 542 145
f 442 445 119
f 339 91 578
f 445 446 119
f 624 623 622
f 611 624 157
f 523 526 141
f 141 527 529
f 527 514 529
f 445 120 444
f 446 445 444
f 35 446 444
f 613 614 158
f 158 614 615
f 623 613 158
f 614 613 391
f 614 612 615
f 371 376 374
f 100 376 371
f 479 482 123
f 373 394 384
f 540 42 634
f 633 540 634
f 538 42 540
f 633 634 161
f 161 634 640
f 42 626 634
f 540 633 144
f 557 556 338
f 553 333 89
f 262 21 264
f 251 21 262
f 5 335 333
f 270 251 262
f 21 251 249
f 600 593 30
f 606 593 600
f 600 30 375
f 593 390 30
f 30 377 375
f 390 388 30
f 30 388 377
f 228 243 241
f 470 478 459
f 470 127 478
f 127 477 478
f 184 186 185
f 478 477 476
f 122 478 476
f 357 74 280
f 518 39 507
f 344 342 85
f 325 344 85
f 342 344 343
f 85 342 321
f 344 90 343
f 90 344 336
f 482 129 481
f 482 481 457
f 482 457 123
f 481 37 457
f 449 447 34
f 435 449 34
f 470 472 471
f 472 470 37
f 470 471 127
f 472 126 471
f 126 468 471
f 470 459 37
f 491 126 472
f 504 129 485
f 221 59 242
f 125 463 465
f 437 34 562
f 561 437 562
f 554 568 562
f 34 554 562
f 437 561 116
f 390 103 389
f 103 386 389
f 392 105 391
f 572 586 580
f 572 580 36
f 586 152 580
f 473 572 36
f 244 243 242
f 225 244 59
f 64 240 241
f 240 239 241
f 237 240 64
f 243 64 241
f 236 237 64
f 411 607 521
f 9 411 521
f 110 607 411
f 607 142 521
f 610 607 110
f 171 15 184
f 171 169 15
f 15 186 184
f 87 584 581
f 153 588 582
f 588 575 582
f 381 102 380
f 573 572 473
f 468 469 128
f 474 468 128
f 469 571 128
f 571 573 128
f 573 473 128
f 473 474 128
f 564 323 565
f 26 323 564
f 323 324 86
f 325 323 26
f 325 324 323
f 563 565 86
f 324 325 85
f 410 230 18
f 230 228 18
f 18 228 241
f 18 241 239
f 401 619 618
f 401 402 107
f 403 402 401
f 619 159 618
f 401 618 32
f 619 401 107
f 403 401 32
f 618 611 32
f 159 624 618
f 478 122 459
f 122 458 459
f 37 459 457
f 459 458 457
f 122 456 458
f 457 458 123
f 191 190 192
f 485 129 484
f 129 482 484
f 483 485 484
f 130 483 484
f 189 187 14
f 191 50 189
f 191 189 175
f 189 14 175
f 14 177 175
f 499 501 500
f 501 499 38
f 38 499 590
f 135 499 500
f 488 501 38
f 499 135 591
f 480 454 4
f 284 12 346
f 4 423 506
f 480 4 506
f 423 531 506
f 480 506 505
f 531 137 506
f 506 137 505
f 365 366 98
f 71 270 262
f 270 71 269
f 71 267 269
f 335 334 333
f 333 334 89
f 334 335 91
f 536 9 519
f 465 463 461
f 537 140 541
f 520 140 519
f 119 446 465
f 465 461 119
f 461 441 119
f 460 441 461
f 176 46 173
f 299 297 24
f 71 263 266
f 263 260 266
f 260 72 266
f 263 70 260
f 205 201 49
f 201 181 49
f 186 205 49
f 181 201 200
f 181 182 49
f 284 77 283
f 586 587 152
f 588 586 151
f 20 267 265
f 266 267 71
f 31 417 631
f 631 417 632
f 31 631 639
f 417 31 419
f 641 631 161
f 417 112 632
f 161 631 632
f 418 417 419
f 417 418 112
f 284 345 77
f 542 550 145
f 542 541 524
f 284 174 12
f 48 174 283
f 373 20 265
f 373 265 374
f 609 608 525
f 608 157 622
f 560 559 313
f 636 637 162
f 541 140 524
f 41 542 524
f 358 357 280
f 70 263 264
f 263 262 264
f 176 177 46
f 174 48 173
f 174 173 172
f 538 551 549
f 538 540 539
f 537 541 539
f 232 221 242
f 17 221 232
f 232 242 62
f 231 232 62
f 203 205 55
f 203 55 202
f 201 205 203
f 202 55 217
f 205 206 55
f 204 203 202
f 73 275 292
f 292 290 73
f 272 290 282
f 290 292 291
f 75 290 291
f 290 75 282
f 70 277 259
f 277 70 281
f 277 281 279
f 260 70 259
f 12 174 172
f 104 396 388
f 367 27 354
f 365 27 367
f 354 27 356
f 365 367 366
f 595 27 365
f 318 299 310
f 155 596 597
f 155 597 598
f 596 594 597
f 595 596 155
f 605 595 155
f 180 47 179
f 180 190 47
f 352 372 11
f 11 372 261
f 312 310 24
f 642 636 162
f 636 297 637
f 367 369 97
f 366 367 97
f 369 367 354
f 369 370 97
f 580 579 464
f 580 152 579
f 579 124 464
f 61 230 409
f 230 410 409
f 230 61 229
f 230 229 228
f 76 285 286
f 353 352 276
f 74 353 276
f 288 76 286
f 288 286 283
f 289 288 287
f 203 54 201
f 287 288 77
f 77 288 283
f 286 48 283
f 531 423 113
f 276 11 259
f 11 261 259
f 277 276 259
f 616 158 615
f 516 616 615
f 138 516 615
f 138 615 612
f 509 533 532
f 503 502 504
f 635 79 294
f 635 294 404
f 635 637 79
f 637 635 638
f 638 635 108
f 635 404 108
f 226 61 405
f 61 226 227
f 405 61 409
f 227 226 207
f 48 178 179
f 48 286 178
f 173 48 179
f 534 143 533
f 534 535 143
f 531 534 533
f 533 143 532
f 137 531 533
f 261 372 371
f 13 180 178
f 285 13 178
f 180 13 166
f 13 168 166
f 346 345 284
f 331 327 46
f 46 327 172
f 172 327 326
f 382 620 101
f 442 121 448
f 443 121 442
f 2 226 404
f 294 2 404
f 404 226 405
f 207 226 2
f 550 551 145
f 552 146 551
f 143 550 532
f 552 550 143
f 330 329 328
f 24 636 629
f 94 352 353
f 352 11 276
f 113 428 534
f 428 535 534
f 509 41 511
f 535 552 143
f 550 552 551
f 550 542 532
f 369 95 368
f 326 327 87
f 87 327 329
f 327 331 329
f 581 326 87
f 293 79 298
f 79 297 298
f 296 298 78
f 79 293 294
f 296 293 298
f 598 490 38
f 358 280 22
f 280 279 278
f 357 358 95
f 74 357 353
f 330 328 25
f 567 23 559
f 590 598 38
f 590 604 598
f 598 604 155
f 604 590 154
f 590 591 154
f 604 154 606
f 297 299 298
f 299 318 78
f 298 299 78
f 355 354 356
f 629 636 642
f 312 24 629
f 629 642 160
f 370 362 97
f 362 363 97
f 363 366 97
f 364 363 362
f 362 370 351
f 96 363 364
f 297 636 24
f 162 637 638
f 637 297 79
f 490 488 38
f 598 597 490
f 441 442 119
f 443 442 441
f 443 441 5
f 442 448 445
f 296 78 295
f 326 12 172
f 575 574 364
f 47 175 176
f 175 177 176
f 47 176 179
