# FEM surface export ¡ª frame 223
# Vertices: 642  Faces: 1280
v -0.52645916 1.61572206 -0.00003249
v 0.52634633 1.61531401 -0.00006445
v -0.57486057 0.00000000 0.00093857
v 0.56632990 0.00000000 0.00055880
v 0.00018087 0.25162846 0.87813115
v -0.00025608 1.29223537 0.85256422
v -0.00059902 0.25331068 -0.88052815
v 0.00009426 1.29171276 -0.85208970
v 0.85729003 0.77152014 -0.52977312
v 0.85683531 0.77060872 0.52914500
v -0.85707176 0.77225697 -0.53016764
v -0.85704148 0.77154899 0.52960366
v -0.81074369 1.26582098 0.30981013
v -0.50162554 1.07662892 0.81124002
v -0.30946982 1.57394540 0.50062072
v 0.30946285 1.57394230 0.50062722
v 0.00008881 1.76446545 -0.00003183
v 0.30947402 1.57390058 -0.50058532
v -0.30928102 1.57413602 -0.50068045
v -0.50132781 1.07640803 -0.81158477
v -0.81077695 1.26644492 -0.30973312
v -1.00660074 0.77024388 -0.00020300
v 0.50226063 1.07707238 0.81196934
v 0.81063199 1.26587546 0.30960897
v -0.51020950 0.46822801 0.82684088
v -0.00041883 0.77061492 1.00771511
v -0.83466035 0.27970436 -0.31902778
v -0.83485544 0.28094786 0.32023364
v -0.00032449 0.77202541 -1.00794029
v -0.50903887 0.46616486 -0.82472235
v 0.81060952 1.26592934 -0.30963480
v 0.50114149 1.07605410 -0.81092411
v 0.83837539 0.27822536 0.31860459
v 0.51087421 0.46752885 0.82596427
v 0.33454311 0.00643948 0.53350270
v -0.33104151 0.00441962 0.53324133
v -0.00323656 0.00000000 0.00346653
v -0.32940602 0.00327864 -0.53447020
v 0.33047661 0.00602582 -0.53541696
v 0.51008838 0.46700469 -0.82562113
v 0.83807242 0.27924165 -0.31999195
v 1.00792658 0.77100462 0.00042982
v -0.69485897 1.46727717 0.16098720
v -0.58879387 1.45352316 0.42608872
v -0.43449891 1.62757099 0.26016879
v -0.70485955 0.92986417 0.69649565
v -0.68972409 1.19156766 0.58907580
v -0.86551446 1.02754414 0.43543047
v -0.16091555 1.45909941 0.70297545
v -0.42620066 1.35341263 0.68933177
v -0.26073241 1.20080447 0.86475468
v -0.16251311 1.71564496 0.26313838
v -0.27344474 1.72653639 0.00000056
v 0.16087078 1.45893431 0.70299280
v 0.00005906 1.61530793 0.52627259
v 0.27357420 1.72639298 0.00000579
v 0.16278642 1.71570146 0.26318437
v 0.43448853 1.62737465 0.26019853
v -0.16250780 1.71567512 -0.26317269
v -0.43441084 1.62771714 -0.26023111
v 0.43443879 1.62736928 -0.26023984
v 0.16269250 1.71559536 -0.26318139
v -0.16065732 1.45890176 -0.70297152
v 0.00021496 1.61535239 -0.52634859
v 0.16099927 1.45880914 -0.70303470
v -0.58859169 1.45358491 -0.42594579
v -0.69480419 1.46737123 -0.16092558
v -0.26042897 1.20030093 -0.86466527
v -0.42582390 1.35338438 -0.68933797
v -0.86580896 1.02823281 -0.43555400
v -0.68960160 1.19216716 -0.58935821
v -0.70519060 0.92993599 -0.69723618
v -0.85252666 1.29186916 0.00012256
v -0.96884555 0.77130896 -0.27575320
v -0.95482618 1.03096902 -0.16303898
v -0.95445663 1.03035295 0.16319750
v -0.96842086 0.77045828 0.27504310
v 0.58883953 1.45330083 0.42594713
v 0.69471282 1.46707284 0.16067721
v 0.26063696 1.20015013 0.86491174
v 0.42607656 1.35332048 0.68923074
v 0.86553228 1.02743244 0.43546480
v 0.69018739 1.19176626 0.58886266
v 0.70552117 0.92919308 0.69604886
v -0.26420543 0.93187112 0.95577633
v -0.00027149 1.04112589 0.96545243
v -0.71164036 0.61391574 0.70307833
v -0.52998388 0.77238816 0.85688937
v -0.00009609 0.50037843 0.97883248
v -0.26652679 0.61116678 0.96414417
v -0.26596275 0.34309348 0.88721430
v -0.96618718 0.51215523 0.16550426
v -0.87697774 0.51539689 0.44150794
v -0.87648404 0.51599061 -0.44173801
v -0.96763247 0.51251096 -0.16607530
v -0.73640370 0.09048940 0.17117994
v -0.87905312 0.25601271 0.00024541
v -0.73157150 0.08669762 -0.16892175
v -0.52959061 0.77097100 -0.85771894
v -0.71054316 0.61323047 -0.70291877
v -0.00007720 1.04148042 -0.96517563
v -0.26405710 0.93167627 -0.95574838
v -0.26835918 0.34175006 -0.88673210
v -0.26561844 0.61034727 -0.96262026
v 0.00000471 0.50258702 -0.97886568
v 0.42595503 1.35291827 -0.68909591
v 0.26065069 1.19994688 -0.86424679
v 0.69455117 1.46684551 -0.16088593
v 0.58856428 1.45294166 -0.42571601
v 0.70491880 0.92971224 -0.69683218
v 0.68957913 1.19180369 -0.58904946
v 0.86591822 1.02804625 -0.43557557
v 0.73416919 0.08329522 0.16989239
v 0.62144506 0.09902679 0.44952086
v 0.46872762 0.00000000 0.27780923
v 0.71156526 0.61301339 0.70301723
v 0.70728064 0.35116661 0.60523307
v 0.87598658 0.51381153 0.44068947
v 0.16936319 0.09327167 0.73327422
v 0.44307366 0.19398904 0.71800792
v 0.26650572 0.34394419 0.88712466
v 0.17517118 0.00000000 0.28236917
v 0.28974822 0.00000000 -0.00625470
v -0.16895674 0.09344190 0.73317909
v -0.00039736 0.00000000 0.56596822
v -0.29629150 0.00000000 -0.00083275
v -0.17672369 0.00000000 0.28358018
v -0.46662542 0.00000000 0.27836925
v 0.16952421 0.00000000 -0.28481841
v 0.46580479 0.00000000 -0.27850616
v -0.46843314 0.00000000 -0.28423697
v -0.17657204 0.00000000 -0.28507450
v 0.16942325 0.09447441 -0.74064517
v 0.00124850 0.00000000 -0.56293678
v -0.16855448 0.09147684 -0.73820347
v 0.62081820 0.10155810 -0.44930360
v 0.73286068 0.08460830 -0.17036688
v 0.26717329 0.34265247 -0.88667834
v 0.44116667 0.19498695 -0.71609843
v 0.87759471 0.51486218 -0.44114542
v 0.70724064 0.35250306 -0.60488677
v 0.71134049 0.61336535 -0.70321500
v 0.88182384 0.25202695 -0.00164509
v 0.96984595 0.77157563 -0.27551013
v 0.96706843 0.51189560 -0.16539499
v 0.96561939 0.51070267 0.16450769
v 0.96775836 0.76998377 0.27513859
v 0.26602307 0.61135691 0.96330583
v 0.53036118 0.77176279 0.85688972
v 0.26398882 0.93180734 0.95595056
v -0.61942774 0.10258161 0.45026281
v -0.44327220 0.19439791 0.71835983
v -0.70637625 0.35321823 0.60608751
v -0.44567826 0.19100736 -0.72036195
v -0.62145942 0.10167508 -0.44891241
v -0.70652407 0.35072264 -0.60348058
v 0.52942288 0.77081400 -0.85655147
v 0.26607063 0.61254102 -0.96380883
v 0.26422259 0.93155026 -0.95541126
v 0.95431268 1.03071618 0.16341540
v 0.95454109 1.03083313 -0.16274513
v 0.85215181 1.29152489 0.00003701
v -0.61649305 1.54893374 0.08125339
v -0.57203466 1.55773461 0.21333331
v -0.48500144 1.62983084 0.13135000
v -0.70852363 1.36703217 0.37245473
v -0.64843297 1.46767497 0.29660758
v -0.75999790 1.37219512 0.23760495
v -0.37555936 1.60884678 0.38410538
v -0.51683939 1.54854608 0.34666723
v -0.45467409 1.52312076 0.46911651
v -0.78813285 0.85130322 0.61896574
v -0.79548448 0.98160738 0.57341576
v -0.86896765 0.90055901 0.48680893
v -0.60299468 1.13867986 0.70880550
v -0.70418602 1.06362867 0.64930356
v -0.60871476 1.00528014 0.76075208
v -0.84606606 1.14994276 0.37606442
v -0.78557831 1.11323476 0.51749295
v -0.75956434 1.23431671 0.45485801
v -0.08131969 1.38152885 0.78508413
v -0.21356668 1.33715069 0.79409724
v -0.13169919 1.25101054 0.86696851
v -0.37236905 1.47229099 0.60230786
v -0.29657686 1.41300309 0.70330107
v -0.23739228 1.52365482 0.60752362
v -0.38469851 1.14205813 0.84586233
v -0.34694770 1.28238046 0.78499752
v -0.46955723 1.22038531 0.75957805
v -0.64785045 1.32980335 0.51439601
v -0.56540477 1.27934659 0.64781892
v -0.51427042 1.41199112 0.56508559
v -0.35860047 1.68895650 0.13182054
v -0.40372977 1.67969811 0.00002800
v -0.23885158 1.65577781 0.38666445
v -0.30161262 1.68094194 0.26438698
v -0.13800760 1.75519776 -0.00001248
v -0.22023392 1.73090291 0.13291748
v -0.08220813 1.75233114 0.13316528
v 0.08118459 1.38127851 0.78501654
v 0.00006623 1.46818674 0.71208006
v 0.15662418 1.60480344 0.51979256
v 0.08130982 1.54509902 0.62078941
v 0.23739640 1.52348304 0.60757774
v -0.08111194 1.54509532 0.62086171
v -0.15653318 1.60506570 0.51982480
v 0.40389508 1.67953789 -0.00000159
v 0.35872826 1.68878520 0.13180149
v 0.48502919 1.62959790 0.13129738
v 0.08246151 1.75213242 0.13319585
v 0.22047687 1.73095179 0.13294731
v 0.13817279 1.75504196 0.00001533
v 0.37559143 1.60859883 0.38404536
v 0.30173704 1.68089521 0.26439369
v 0.23899485 1.65556550 0.38660672
v -0.08229455 1.67769170 0.40008205
v 0.08243880 1.67751122 0.39991727
v 0.00012863 1.72849119 0.26665786
v -0.35853821 1.68901479 -0.13180344
v -0.48496467 1.62983000 -0.13137259
v -0.08223418 1.75227022 -0.13324405
v -0.22028372 1.73112333 -0.13296993
v -0.37537718 1.60888088 -0.38410589
v -0.30151665 1.68100274 -0.26436427
v -0.23883124 1.65583968 -0.38662672
v 0.48503509 1.62966096 -0.13138296
v 0.35873011 1.68892908 -0.13178432
v 0.23901783 1.65573800 -0.38662231
v 0.30166069 1.68090284 -0.26439315
v 0.37554508 1.60866058 -0.38407120
v 0.22038063 1.73095417 -0.13291679
v 0.08239134 1.75223529 -0.13322839
v -0.08110923 1.38110089 -0.78498030
v 0.00017228 1.46792293 -0.71227962
v 0.08130588 1.38096011 -0.78499919
v -0.15642045 1.60500634 -0.51989269
v -0.08100391 1.54515362 -0.62103415
v -0.23722662 1.52367258 -0.60761422
v 0.23750746 1.52361000 -0.60763425
v 0.08141914 1.54508269 -0.62104160
v 0.15674163 1.60490501 -0.51983553
v 0.00008410 1.72842383 -0.26668736
v 0.08252343 1.67758262 -0.40000358
v -0.08226468 1.67770708 -0.40006480
v -0.57191831 1.55770755 -0.21335143
v -0.61651653 1.54899371 -0.08119217
v -0.45448327 1.52302539 -0.46908227
v -0.51676250 1.54871118 -0.34669629
v -0.76005876 1.37272620 -0.23754132
v -0.64837402 1.46769834 -0.29653299
v -0.70839012 1.36732650 -0.37244871
v -0.13136949 1.25084591 -0.86665952
v -0.21329726 1.33690643 -0.79402524
v -0.46929809 1.22036362 -0.75952888
v -0.34665027 1.28202128 -0.78494316
v -0.38451505 1.14199209 -0.84609812
v -0.29629886 1.41284418 -0.70344305
v -0.37212998 1.47239518 -0.60236335
v -0.86950058 0.90125847 -0.48715791
v -0.79606307 0.98223984 -0.57387483
v -0.78834039 0.85166633 -0.61967784
v -0.75949585 1.23501933 -0.45521405
v -0.78567511 1.11376059 -0.51773232
v -0.84620011 1.15085018 -0.37613854
v -0.60890782 1.00522697 -0.76165861
v -0.70452017 1.06384361 -0.64969575
v -0.60295296 1.13838029 -0.70911235
v -0.51402646 1.41206264 -0.56526619
v -0.56528783 1.27933228 -0.64803427
v -0.64762485 1.33017170 -0.51438248
v -0.70402044 1.47671223 0.00006982
v -0.84215784 1.28567553 -0.15679877
v -0.78161961 1.38594079 -0.08121457
v -0.78150666 1.38574886 0.08134903
v -0.84197664 1.28528595 0.15690510
v -0.92187852 0.77193987 -0.40664563
v -0.92901266 0.90155542 -0.36009058
v -0.99281126 0.90233421 -0.08248865
v -0.97096312 0.90221065 -0.22118860
v -0.99761111 0.77089685 -0.13906793
v -0.91966659 1.03248203 -0.30235422
v -0.89346373 1.15332234 -0.23928061
v -0.92881608 0.90082705 0.36010095
v -0.92189330 0.77110469 0.40655267
v -0.89343363 1.15274060 0.23944512
v -0.91937923 1.03142750 0.30238363
v -0.99742913 0.77030450 0.13880326
v -0.97100681 0.90130860 0.22125895
v -0.99266148 0.90191120 0.08270413
v -0.91577607 1.16671264 -0.08243155
v -0.96756160 1.03426552 0.00023682
v -0.91555130 1.16634285 0.08276939
v 0.57197154 1.55755401 0.21322103
v 0.61629027 1.54854882 0.08102317
v 0.45466650 1.52287984 0.46909258
v 0.51685506 1.54833722 0.34654763
v 0.75981939 1.37213349 0.23740533
v 0.64840555 1.46748805 0.29638636
v 0.70840931 1.36703253 0.37230697
v 0.13138118 1.25075078 0.86716366
v 0.21334714 1.33671892 0.79400420
v 0.46987540 1.22066319 0.75973505
v 0.34687576 1.28203702 0.78501689
v 0.38491464 1.14196396 0.84621811
v 0.29634050 1.41242552 0.70332676
v 0.37222365 1.47199953 0.60219210
v 0.86868954 0.89957803 0.48610672
v 0.79544866 0.98040593 0.57247305
v 0.78831935 0.85059327 0.61826617
v 0.75967503 1.23452616 0.45489210
v 0.78582311 1.11288416 0.51723641
v 0.84593332 1.15011430 0.37593684
v 0.61000818 1.00566638 0.76134956
v 0.70478517 1.06314588 0.64854568
v 0.60387218 1.13895297 0.70888382
v 0.51433641 1.41173959 0.56510389
v 0.56574434 1.27958727 0.64775366
v 0.64796591 1.32986581 0.51420414
v -0.13226409 1.12574768 0.92720616
v -0.00024665 1.17020845 0.91751575
v -0.38774231 1.00715506 0.89427727
v -0.26516366 1.06934011 0.91930228
v -0.00045409 0.90721482 0.99561661
v -0.13347687 0.98866522 0.97019750
v -0.13423885 0.85198444 0.99361932
v -0.79196399 0.69160593 0.62186044
v -0.71703470 0.77198702 0.70818400
v -0.52615434 0.61821437 0.85207033
v -0.62668079 0.69224417 0.78791744
v -0.61702013 0.53900027 0.77223110
v -0.62351137 0.85138226 0.78410101
v -0.52172595 0.92580205 0.84388793
v -0.00008562 0.37138039 0.93762881
v -0.13451247 0.41681427 0.94527406
v -0.13435364 0.29144478 0.89148962
v -0.13492464 0.68979830 0.99776274
v -0.13476485 0.55340582 0.98079145
v -0.00090146 0.63462132 1.00208366
v -0.39278790 0.40224421 0.86497980
v -0.26922286 0.47397429 0.93503213
v -0.39250818 0.53652167 0.90708876
v -0.40236309 0.85260761 0.91841650
v -0.40441251 0.69074577 0.92351031
v -0.26890153 0.77167261 0.97193378
v -0.93480057 0.64181727 0.36263129
v -0.87480634 0.64179409 0.49012518
v -0.99831551 0.63991827 0.08314853
v -0.97671282 0.64021868 0.22246379
v -0.86443132 0.39414462 0.38531420
v -0.93168676 0.51135361 0.30693227
v -0.91185957 0.39152199 0.24503671
v -0.87466764 0.64309204 -0.49077684
v -0.93494195 0.64213645 -0.36329067
v -0.91234559 0.39094174 -0.24497077
v -0.93106538 0.51166999 -0.30702901
v -0.86371583 0.39353755 -0.38469440
v -0.97746480 0.64073735 -0.22337703
v -0.99925947 0.63994235 -0.08388799
v -0.66056478 0.02441986 0.08694009
v -0.74586183 0.08068327 0.00118729
v -0.65933400 0.02551984 -0.08491615
v -0.86871982 0.26363578 0.16264910
v -0.81650734 0.16499226 0.08593081
v -0.79325485 0.17816217 0.24815065
v -0.78811699 0.17532788 -0.24682157
v -0.81438011 0.16383971 -0.08489566
v -0.86710149 0.26036182 -0.16217043
v -0.98102379 0.50917935 -0.00015327
v -0.93613362 0.37835839 -0.08520250
v -0.93702734 0.37915337 0.08348773
v -0.71610993 0.77165526 -0.70843887
v -0.79133844 0.69206101 -0.62235516
v -0.52170312 0.92514461 -0.84439427
v -0.62372655 0.85100794 -0.78490114
v -0.61604446 0.53724343 -0.77075654
v -0.62592405 0.69110817 -0.78862464
v -0.52510375 0.61640614 -0.85103148
v 0.00009013 1.17035270 -0.91709632
v -0.13193591 1.12558663 -0.92683852
v -0.13397536 0.85254622 -0.99350995
v -0.13336147 0.98889589 -0.97026229
v -0.00020668 0.90804231 -0.99566489
v -0.26501819 1.06900418 -0.91933578
v -0.38765481 1.00702345 -0.89439422
v -0.13614127 0.29319942 -0.89427811
v -0.13548161 0.41780961 -0.94474691
v -0.00049457 0.37406495 -0.93874103
v -0.39139593 0.53503573 -0.90452963
v -0.26897073 0.47380918 -0.93325150
v -0.39251590 0.40030634 -0.86449736
v -0.00011676 0.63581085 -1.00292695
v -0.13447857 0.55388671 -0.97968209
v -0.13438570 0.69008857 -0.99733204
v -0.40190485 0.85238963 -0.91919309
v -0.26822650 0.77090257 -0.97115946
v -0.40311038 0.68973911 -0.92261142
v 0.21350113 1.33683503 -0.79400933
v 0.13157003 1.25049567 -0.86657852
v 0.37238288 1.47211218 -0.60231096
v 0.29654798 1.41251755 -0.70333362
v 0.38448539 1.14128006 -0.84559196
v 0.34681663 1.28153527 -0.78467292
v 0.46928981 1.22002447 -0.75929564
v 0.61636066 1.54863560 -0.08128857
v 0.57195169 1.55749071 -0.21331441
v 0.70810044 1.36677086 -0.37211585
v 0.64818949 1.46702600 -0.29631066
v 0.75964820 1.37197828 -0.23735137
v 0.51680607 1.54822624 -0.34652656
v 0.45463598 1.52284443 -0.46908453
v 0.78842843 0.85156834 -0.61920208
v 0.79592317 0.98187560 -0.57374334
v 0.86962408 0.90103000 -0.48711786
v 0.60284376 1.13864744 -0.70877320
v 0.70404088 1.06333911 -0.64930463
v 0.60873598 1.00513494 -0.76128608
v 0.84614015 1.15067923 -0.37625748
v 0.78544015 1.11340940 -0.51758617
v 0.75935757 1.23477042 -0.45492351
v 0.51410925 1.41146123 -0.56492114
v 0.64754570 1.32977092 -0.51409870
v 0.56525028 1.27920902 -0.64763618
v 0.66068530 0.02519773 0.09135226
v 0.61305141 0.01715965 0.23073533
v 0.52283049 0.00000000 0.14040427
v 0.73867261 0.18235976 0.38698110
v 0.68481755 0.08691053 0.31299222
v 0.78989375 0.17496175 0.24464256
v 0.40579838 0.00000000 0.41246700
v 0.55334729 0.02802674 0.37174630
v 0.48534101 0.04506568 0.50096565
v 0.79135811 0.69071943 0.62135190
v 0.80450636 0.56004763 0.57958317
v 0.87451851 0.64083600 0.48985344
v 0.61617512 0.40514946 0.72448826
v 0.71520841 0.47936508 0.65953511
v 0.61668605 0.53803116 0.77111435
v 0.86272883 0.39299700 0.38354695
v 0.79935706 0.42886823 0.52697796
v 0.78236163 0.30795583 0.46908256
v 0.08452596 0.16517946 0.81417871
v 0.21965213 0.20874426 0.82285959
v 0.13461144 0.29375729 0.89172232
v 0.39028889 0.08370017 0.63460845
v 0.31013328 0.13859253 0.73450404
v 0.25358495 0.04168199 0.64124334
v 0.39243534 0.40202317 0.86533052
v 0.35716024 0.26284754 0.81160450
v 0.48186484 0.32405415 0.78115910
v 0.67261440 0.21557198 0.53391087
v 0.58429724 0.26588848 0.67010361
v 0.53878611 0.14009050 0.59431100
v 0.38420552 0.00000000 0.13834871
v 0.43235070 0.00000000 -0.00190269
v 0.25752795 0.00000000 0.42086086
v 0.32389107 0.00000000 0.28473163
v 0.14509378 0.00000000 0.00310650
v 0.23169668 0.00000000 0.13927123
v 0.08450849 0.00000000 0.14565648
v -0.08440784 0.16451888 0.81506050
v 0.00150537 0.08456724 0.74463075
v -0.16899221 0.00000000 0.56093961
v -0.08600927 0.02468890 0.65955269
v -0.25204876 0.04309141 0.64337569
v 0.08818316 0.02265520 0.65900713
v 0.16912307 0.00000000 0.55836326
v -0.43854299 0.00000000 -0.00218926
v -0.38910693 0.00000000 0.13989189
v -0.52679890 0.00000000 0.14241660
v -0.09466261 0.00000000 0.14352843
v -0.24029529 0.00000000 0.14292961
v -0.15179715 0.00000000 0.00155896
v -0.40329993 0.00000000 0.41349673
v -0.32746786 0.00000000 0.28558844
v -0.25701949 0.00000000 0.41659299
v 0.08668498 0.00000000 0.42761552
v -0.08992091 0.00000000 0.43001384
v -0.00283025 0.00000000 0.28605863
v 0.38216999 0.00000000 -0.14725678
v 0.51833135 0.00000000 -0.14037503
v 0.08738893 0.00000000 -0.13920724
v 0.23185746 0.00000000 -0.14724876
v 0.40501890 0.00000000 -0.41105592
v 0.32023126 0.00000000 -0.28725889
v 0.25583196 0.00000000 -0.41864043
v -0.52379930 0.00000000 -0.14468527
v -0.38803101 0.00000000 -0.14432552
v -0.25661960 0.00000000 -0.41749784
v -0.32660156 0.00000000 -0.28713498
v -0.40132728 0.00000000 -0.41630650
v -0.24059130 0.00000000 -0.14387959
v -0.09098671 0.00000000 -0.14407206
v 0.08319087 0.16779308 -0.81763804
v -0.00064071 0.08334802 -0.74906904
v -0.08523482 0.16657944 -0.81645435
v 0.17018257 0.00000000 -0.55540168
v 0.08799797 0.02727728 -0.66281313
v 0.25233600 0.04061037 -0.64663285
v -0.25120845 0.04466299 -0.64462560
v -0.08529554 0.02166074 -0.66107565
v -0.16796641 0.00000000 -0.55533445
v 0.00161946 0.00000000 -0.28487304
v -0.08584746 0.00000000 -0.43077111
v 0.09134143 0.00000000 -0.42514434
v 0.61585307 0.01749068 -0.22849849
v 0.65810215 0.01949448 -0.08526105
v 0.48196387 0.04193820 -0.49854669
v 0.55224872 0.02537856 -0.36918491
v 0.79312629 0.17718966 -0.24829729
v 0.68788117 0.08777861 -0.31391138
v 0.73913610 0.18318847 -0.38812751
v 0.13556452 0.29441488 -0.89539099
v 0.21978499 0.21013403 -0.82308489
v 0.48100188 0.32321188 -0.78168720
v 0.35607779 0.26341471 -0.81022519
v 0.39247364 0.40174320 -0.86488968
v 0.31001812 0.13900116 -0.73489434
v 0.38979265 0.07958326 -0.63216496
v 0.87500519 0.64213419 -0.49021265
v 0.80478001 0.56143963 -0.58043104
v 0.79206932 0.69196606 -0.62190217
v 0.78167641 0.31031132 -0.46946314
v 0.80066228 0.43040267 -0.52780437
v 0.86510295 0.39274436 -0.38474879
v 0.61708975 0.53771085 -0.77158457
v 0.71596366 0.47950721 -0.66014695
v 0.61486447 0.40501070 -0.72416103
v 0.53434449 0.13775240 -0.59005457
v 0.58229810 0.26621485 -0.66875559
v 0.67076385 0.21780629 -0.53402615
v 0.74371535 0.07656447 -0.00093012
v 0.87109685 0.25880882 -0.16247413
v 0.81567430 0.16036463 -0.08651512
v 0.81686616 0.16168505 0.08262938
v 0.86926246 0.25769472 0.15982862
v 0.92228454 0.77173299 -0.40664259
v 0.93525988 0.64156884 -0.36253238
v 0.99920273 0.63996917 -0.08323003
v 0.97800040 0.64061826 -0.22279514
v 0.99869055 0.77179748 -0.13867852
v 0.93262810 0.51075351 -0.30685148
v 0.91356158 0.38996062 -0.24485850
v 0.93400097 0.64019895 0.36206907
v 0.92091686 0.77014679 0.40562397
v 0.91058642 0.39034647 0.24314962
v 0.93050402 0.50986224 0.30557770
v 0.99714327 0.77063483 0.13963284
v 0.97603732 0.63909072 0.22202179
v 0.99881285 0.63947862 0.08325165
v 0.93610978 0.37700444 -0.08488666
v 0.98011833 0.50805902 -0.00004440
v 0.93458843 0.37632400 0.08349701
v 0.13431184 0.41749379 0.94539064
v 0.39226598 0.53656036 0.90550917
v 0.26916820 0.47452757 0.93455285
v 0.13473310 0.55389649 0.98096842
v 0.13374852 0.68965644 0.99691290
v 0.71677041 0.77125043 0.70724386
v 0.52276701 0.92602956 0.84425610
v 0.62433267 0.85095215 0.78406745
v 0.62680411 0.69193965 0.78742802
v 0.52608746 0.61745787 0.85088515
v 0.13185872 1.12496054 0.92708534
v 0.13347118 0.85207355 0.99381799
v 0.13298446 0.98841631 0.97065717
v 0.26505286 1.06893420 0.91972417
v 0.38800183 1.00700474 0.89445037
v 0.40364745 0.69018865 0.92136782
v 0.40230754 0.85275084 0.91885298
v 0.26812312 0.77119362 0.97102553
v -0.61647397 0.02462165 0.23182487
v -0.48207289 0.04278693 0.49974468
v -0.55173290 0.02490270 0.37261099
v -0.68705702 0.09020851 0.31651819
v -0.73727226 0.18195075 0.39003223
v -0.22212590 0.21018459 0.82468140
v -0.48308438 0.32523260 0.78230494
v -0.35842741 0.26565951 0.81192178
v -0.31101981 0.13992524 0.73747402
v -0.39362726 0.08452734 0.63740522
v -0.80420554 0.56173366 0.58013982
v -0.78047228 0.31036243 0.46972582
v -0.80018330 0.43061110 0.52815294
v -0.71645826 0.48052150 0.66127074
v -0.61637646 0.40619183 0.72694564
v -0.53937459 0.14018422 0.59282726
v -0.58295089 0.26664528 0.67061806
v -0.66932017 0.21785729 0.53429210
v -0.22169352 0.20920397 -0.82214886
v -0.39278144 0.08309776 -0.63370752
v -0.31278116 0.13252458 -0.73785001
v -0.35832855 0.26118591 -0.80924302
v -0.48237696 0.32344151 -0.78028435
v -0.61170244 0.01902603 -0.22577147
v -0.73734969 0.18063785 -0.38736975
v -0.68364799 0.08542675 -0.31341875
v -0.54963893 0.02607714 -0.37083220
v -0.48187175 0.03966702 -0.49991411
v -0.80395401 0.56202978 -0.58045930
v -0.61481309 0.40477616 -0.72298950
v -0.71586323 0.47901785 -0.66068733
v -0.79982066 0.43023723 -0.52774000
v -0.77934521 0.30991545 -0.46759972
v -0.53782225 0.13650231 -0.59015214
v -0.67101544 0.21486133 -0.53448439
v -0.58300763 0.26518559 -0.66919756
v 0.71674049 0.77158022 -0.70837951
v 0.52606338 0.61748165 -0.85101575
v 0.62627506 0.69153923 -0.78786147
v 0.62355900 0.85128391 -0.78442746
v 0.52144611 0.92514813 -0.84359902
v 0.13425574 0.41865423 -0.94582671
v 0.13409135 0.69084352 -0.99801326
v 0.13434562 0.55485785 -0.98119676
v 0.26900306 0.47530797 -0.93489695
v 0.39258173 0.53669477 -0.90597832
v 0.13212301 1.12528610 -0.92668265
v 0.38755739 1.00646901 -0.89376408
v 0.26496696 1.06838655 -0.91849113
v 0.13340835 0.98897600 -0.97020173
v 0.13354021 0.85292518 -0.99368930
v 0.40380242 0.69038236 -0.92176080
v 0.26830339 0.77175474 -0.97103357
v 0.40194112 0.85182083 -0.91756743
v 0.92835557 0.90057117 0.36001563
v 0.99258721 0.90239233 0.08356357
v 0.97093195 0.90181512 0.22169329
v 0.91957259 1.03206146 0.30254018
v 0.89348841 1.15315711 0.23937814
v 0.92944056 0.90124857 -0.36004400
v 0.89332098 1.15295637 -0.23926723
v 0.91985726 1.03232253 -0.30236021
v 0.97175831 0.90232354 -0.22118270
v 0.99314392 0.90279090 -0.08197451
v 0.70381916 1.47635281 -0.00017397
v 0.84175861 1.28515053 0.15670863
v 0.78136170 1.38560224 0.08120122
v 0.78118306 1.38541174 -0.08117516
v 0.84156895 1.28506351 -0.15662223
v 0.96721590 1.03433669 0.00037546
v 0.91481113 1.16609120 -0.08241724
v 0.91517442 1.16609049 0.08258235
f 330 87 329
f 336 325 26
f 207 208 56
f 464 36 580
f 502 129 504
f 157 624 622
f 308 311 82
f 247 223 248
f 507 483 508
f 331 88 329
f 494 500 497
f 156 601 602
f 591 589 592
f 365 98 596
f 75 281 282
f 152 587 577
f 149 559 560
f 555 121 553
f 530 141 529
f 515 517 139
f 361 594 98
f 250 67 249
f 157 608 609
f 294 293 209
f 317 81 316
f 557 338 26
f 303 305 81
f 530 529 528
f 101 381 382
f 415 418 111
f 192 184 50
f 412 110 411
f 20 384 256
f 131 594 486
f 281 264 282
f 347 287 348
f 28 349 582
f 165 163 1
f 248 250 66
f 617 107 398
f 273 271 274
f 456 115 453
f 558 561 560
f 335 576 91
f 331 177 332
f 116 433 436
f 351 370 92
f 136 511 530
f 239 240 65
f 247 258 19
f 304 23 567
f 148 557 570
f 214 208 58
f 440 426 450
f 268 270 269
f 258 247 268
f 204 202 16
f 466 125 465
f 517 513 133
f 168 275 274
f 275 73 274
f 198 193 53
f 309 308 307
f 510 511 136
f 415 416 110
f 131 490 597
f 473 475 474
f 414 415 111
f 493 495 494
f 496 504 485
f 433 116 432
f 600 375 601
f 240 234 65
f 418 415 412
f 486 361 3
f 567 566 304
f 380 393 29
f 17 199 197
f 491 492 132
f 451 449 435
f 218 217 216
f 623 621 613
f 396 104 395
f 433 439 436
f 628 160 627
f 215 202 217
f 209 207 2
f 427 113 424
f 434 10 544
f 434 433 432
f 199 17 210
f 150 564 565
f 489 491 132
f 275 13 285
f 497 500 134
f 125 466 476
f 578 152 577
f 208 214 211
f 328 88 343
f 356 27 603
f 150 566 567
f 372 100 371
f 190 191 47
f 235 8 398
f 260 261 72
f 422 403 414
f 422 414 111
f 453 454 123
f 349 583 582
f 521 520 519
f 425 453 115
f 616 622 158
f 483 130 508
f 151 586 572
f 212 17 232
f 400 397 402
f 377 396 99
f 41 522 511
f 510 508 505
f 549 547 42
f 475 473 36
f 510 137 509
f 222 221 197
f 430 115 429
f 220 194 1
f 305 54 204
f 621 29 613
f 192 171 184
f 460 335 5
f 88 331 332
f 74 277 279
f 300 301 80
f 390 389 388
f 165 45 164
f 146 549 551
f 291 278 75
f 448 120 445
f 147 543 544
f 607 610 609
f 603 602 356
f 139 529 514
f 333 553 443
f 92 368 347
f 261 260 259
f 300 6 200
f 46 177 331
f 284 283 174
f 301 300 200
f 471 468 474
f 54 305 301
f 302 304 303
f 569 150 567
f 150 569 570
f 294 209 2
f 628 629 160
f 548 543 147
f 147 625 627
f 63 233 234
f 426 427 114
f 41 509 532
f 198 52 196
f 614 105 612
f 147 627 547
f 81 305 306
f 549 548 547
f 54 301 200
f 342 88 332
f 264 281 70
f 193 194 53
f 455 429 456
f 187 321 14
f 479 130 484
f 147 544 625
f 458 456 453
f 304 80 303
f 314 84 313
f 488 503 501
f 321 332 14
f 423 425 424
f 305 204 306
f 341 339 25
f 514 40 516
f 625 628 627
f 340 339 341
f 105 614 391
f 243 228 62
f 318 316 78
f 75 278 279
f 357 355 353
f 238 257 63
f 466 455 476
f 425 423 4
f 448 449 120
f 408 638 108
f 292 275 285
f 22 278 289
f 515 513 517
f 501 503 134
f 622 623 158
f 134 503 504
f 195 216 206
f 163 271 246
f 619 617 620
f 62 228 229
f 163 165 164
f 453 425 454
f 489 132 488
f 82 628 625
f 58 208 209
f 525 608 40
f 626 547 627
f 518 517 498
f 489 487 491
f 557 26 564
f 325 336 344
f 541 145 539
f 40 616 516
f 338 556 89
f 250 248 245
f 139 514 515
f 98 594 596
f 246 220 1
f 112 413 630
f 9 536 413
f 156 600 601
f 332 177 14
f 321 342 332
f 156 606 600
f 584 330 585
f 302 303 81
f 584 87 330
f 330 25 585
f 400 239 65
f 439 440 117
f 95 358 368
f 597 594 131
f 594 361 486
f 246 67 245
f 561 562 149
f 28 364 362
f 55 216 217
f 427 430 114
f 267 20 254
f 556 555 553
f 84 309 558
f 311 310 312
f 609 525 142
f 256 68 255
f 124 460 461
f 82 311 312
f 307 308 82
f 589 135 495
f 527 40 514
f 112 418 412
f 20 256 254
f 258 238 19
f 267 254 269
f 273 272 249
f 392 391 393
f 137 533 509
f 122 455 456
f 9 413 411
f 130 480 505
f 333 443 5
f 527 525 40
f 589 495 385
f 39 496 485
f 223 225 224
f 414 416 415
f 219 222 53
f 145 538 539
f 413 412 411
f 469 468 467
f 183 181 6
f 191 192 50
f 429 35 431
f 292 285 76
f 413 112 412
f 415 110 412
f 43 164 167
f 467 468 126
f 617 101 620
f 450 451 117
f 438 546 545
f 619 620 159
f 17 212 210
f 124 579 576
f 584 153 583
f 460 124 576
f 3 469 467
f 311 308 314
f 6 320 183
f 389 104 388
f 251 250 249
f 194 165 1
f 291 289 278
f 287 77 348
f 238 258 257
f 139 517 518
f 238 236 19
f 223 247 19
f 382 380 29
f 39 518 498
f 361 359 3
f 69 255 257
f 139 518 528
f 33 545 535
f 387 385 7
f 69 268 269
f 477 462 125
f 454 479 123
f 121 555 447
f 451 435 117
f 454 425 4
f 233 252 8
f 124 463 464
f 69 258 268
f 168 167 166
f 583 153 582
f 384 394 102
f 138 512 513
f 57 210 211
f 254 256 255
f 607 609 142
f 324 319 86
f 289 291 76
f 291 292 76
f 384 102 383
f 422 421 420
f 221 17 197
f 383 102 381
f 376 377 99
f 99 373 374
f 386 105 392
f 438 33 440
f 90 341 343
f 281 75 279
f 574 571 96
f 628 82 312
f 221 222 59
f 127 471 474
f 595 605 603
f 551 538 145
f 334 91 340
f 322 324 85
f 305 303 301
f 18 239 399
f 306 204 16
f 199 198 197
f 166 190 180
f 303 80 301
f 267 266 265
f 626 42 547
f 16 215 213
f 349 351 350
f 295 16 213
f 68 379 252
f 250 251 66
f 627 160 626
f 383 68 256
f 343 88 342
f 507 508 136
f 202 215 16
f 197 198 53
f 254 69 269
f 603 605 156
f 418 419 111
f 384 383 256
f 455 122 476
f 203 204 54
f 556 557 148
f 255 68 253
f 313 84 560
f 25 328 341
f 254 255 69
f 603 156 602
f 581 584 583
f 630 632 112
f 163 246 1
f 246 245 220
f 432 116 558
f 499 591 590
f 320 563 86
f 345 93 350
f 306 16 295
f 346 93 345
f 562 568 149
f 604 605 155
f 154 592 593
f 545 552 535
f 511 522 530
f 574 573 571
f 566 150 565
f 361 98 360
f 67 271 273
f 234 235 65
f 208 211 56
f 574 151 573
f 251 270 66
f 398 8 378
f 213 215 214
f 438 440 439
f 315 314 313
f 263 71 262
f 20 373 384
f 496 134 504
f 329 88 328
f 81 306 316
f 555 556 148
f 592 589 103
f 617 619 107
f 227 207 56
f 571 359 96
f 446 466 465
f 206 216 55
f 359 571 469
f 568 148 570
f 34 437 435
f 28 351 349
f 21 272 282
f 113 423 424
f 490 489 488
f 379 68 383
f 210 212 211
f 80 563 300
f 351 92 350
f 326 346 12
f 83 317 318
f 555 148 554
f 212 231 56
f 218 57 217
f 271 67 246
f 195 196 52
f 270 268 66
f 390 592 103
f 148 568 554
f 495 493 7
f 592 390 593
f 357 95 355
f 574 575 151
f 452 120 451
f 154 591 592
f 587 585 577
f 395 394 396
f 93 349 350
f 610 416 611
f 166 44 190
f 315 23 302
f 315 302 317
f 268 247 66
f 606 154 593
f 396 394 99
f 211 212 56
f 370 369 368
f 235 397 65
f 280 278 22
f 83 315 317
f 575 588 151
f 74 279 280
f 385 495 7
f 63 257 253
f 397 235 398
f 214 58 213
f 220 219 194
f 546 146 545
f 236 225 19
f 599 94 602
f 235 233 8
f 102 394 395
f 611 416 32
f 225 223 19
f 139 528 529
f 231 62 229
f 419 406 421
f 451 450 452
f 49 182 185
f 402 397 107
f 52 199 218
f 416 610 110
f 225 236 244
f 107 397 398
f 68 252 253
f 322 85 321
f 182 181 183
f 118 438 439
f 546 438 118
f 348 77 345
f 543 546 118
f 231 212 232
f 610 611 157
f 33 438 545
f 385 386 103
f 479 480 130
f 169 195 15
f 93 583 349
f 15 195 206
f 190 44 192
f 247 248 66
f 146 552 545
f 248 60 245
f 570 557 564
f 274 271 43
f 63 253 233
f 272 21 249
f 507 528 518
f 67 273 249
f 487 467 126
f 196 195 169
f 624 159 623
f 134 496 497
f 132 503 488
f 104 393 395
f 556 553 89
f 355 356 94
f 258 69 257
f 229 61 227
f 56 231 227
f 460 576 335
f 463 124 461
f 394 373 99
f 29 393 391
f 67 250 245
f 193 198 196
f 462 36 464
f 144 633 630
f 141 526 527
f 517 133 498
f 536 144 630
f 100 372 599
f 144 536 537
f 22 289 287
f 578 579 152
f 579 578 576
f 189 188 187
f 60 223 224
f 92 348 350
f 555 554 447
f 396 377 388
f 194 193 165
f 413 536 630
f 372 352 599
f 377 376 375
f 348 345 350
f 105 386 387
f 240 237 234
f 463 462 464
f 135 500 494
f 45 196 169
f 512 612 387
f 245 60 220
f 429 115 456
f 223 60 248
f 288 289 76
f 525 526 142
f 100 599 601
f 613 29 391
f 526 523 520
f 341 328 343
f 631 641 639
f 264 21 282
f 266 72 265
f 106 402 403
f 73 273 274
f 186 206 205
f 381 379 383
f 52 216 195
f 410 18 399
f 290 272 73
f 72 371 374
f 526 525 527
f 115 430 424
f 498 497 496
f 621 382 29
f 543 118 434
f 214 215 57
f 522 141 530
f 511 510 509
f 352 94 599
f 493 512 7
f 90 340 341
f 169 171 170
f 605 604 606
f 219 60 224
f 104 389 392
f 359 469 3
f 186 49 185
f 222 219 224
f 166 167 44
f 428 427 426
f 523 522 524
f 129 502 481
f 50 185 188
f 164 45 170
f 425 115 424
f 33 428 426
f 427 428 113
f 94 356 602
f 515 138 513
f 114 431 452
f 237 236 238
f 215 217 57
f 95 354 355
f 220 60 219
f 515 514 516
f 183 320 319
f 222 197 53
f 559 569 567
f 300 320 6
f 435 436 117
f 96 360 363
f 640 642 641
f 242 243 62
f 140 537 519
f 508 130 505
f 420 410 399
f 537 539 144
f 317 316 318
f 426 114 450
f 186 15 206
f 311 83 310
f 625 544 307
f 544 10 307
f 168 43 167
f 185 182 188
f 369 354 95
f 44 171 192
f 605 606 156
f 548 549 146
f 100 601 375
f 149 568 569
f 381 380 382
f 455 466 35
f 480 479 454
f 543 548 546
f 493 133 513
f 492 472 37
f 477 125 476
f 491 487 126
f 337 336 338
f 588 153 587
f 576 578 91
f 633 161 632
f 96 359 360
f 39 485 483
f 101 617 378
f 193 45 165
f 163 164 43
f 618 624 611
f 507 136 528
f 561 149 560
f 641 162 639
f 116 561 558
f 494 133 493
f 253 252 233
f 63 237 238
f 392 393 104
f 440 450 117
f 93 581 583
f 386 385 387
f 120 449 451
f 421 422 111
f 486 3 467
f 302 81 317
f 633 632 630
f 462 475 36
f 376 99 374
f 489 490 131
f 447 449 448
f 387 612 105
f 106 420 399
f 173 46 172
f 492 491 472
f 316 306 295
f 22 287 347
f 109 410 420
f 507 39 483
f 559 23 313
f 214 57 211
f 196 45 193
f 10 434 432
f 422 106 403
f 626 160 640
f 487 486 467
f 542 41 532
f 400 106 399
f 444 120 452
f 198 199 52
f 475 127 474
f 621 620 382
f 621 623 159
f 450 114 452
f 92 347 348
f 376 100 375
f 434 118 433
f 503 132 502
f 337 90 336
f 537 536 519
f 395 393 380
f 201 54 200
f 171 44 170
f 355 94 353
f 58 296 213
f 422 420 106
f 595 365 596
f 569 568 570
f 523 140 520
f 114 430 431
f 218 210 57
f 304 566 80
f 639 162 638
f 261 371 72
f 548 147 547
f 498 133 497
f 150 570 564
f 222 224 59
f 142 526 520
f 437 436 435
f 141 522 523
f 137 510 505
f 173 179 176
f 559 149 569
f 121 447 448
f 563 320 300
f 102 395 380
f 257 255 253
f 642 162 641
f 83 311 314
f 216 52 218
f 512 493 513
f 23 304 302
f 91 339 340
f 512 138 612
f 159 620 621
f 218 199 210
f 364 28 575
f 83 318 310
f 168 274 43
f 136 530 528
f 140 523 524
f 495 135 494
f 233 235 234
f 566 563 80
f 25 339 577
f 277 74 276
f 475 462 477
f 133 494 497
f 436 437 116
f 389 386 392
f 548 146 546
f 441 460 5
f 10 309 307
f 65 397 400
f 543 434 544
f 640 641 161
f 272 273 73
f 581 93 346
f 419 421 111
f 319 320 86
f 180 179 178
f 127 475 477
f 231 229 227
f 337 334 340
f 136 508 510
f 308 309 84
f 237 63 234
f 447 554 34
f 252 379 378
f 315 83 314
f 608 622 616
f 338 336 26
f 337 338 89
f 13 275 168
f 209 208 207
f 436 439 117
f 628 312 629
f 360 366 363
f 364 574 96
f 359 361 360
f 466 446 35
f 500 501 134
f 406 109 421
f 135 589 591
f 601 599 602
f 340 90 337
f 481 492 37
f 522 41 524
f 78 316 295
f 131 486 487
f 403 32 414
f 634 626 640
f 151 572 573
f 515 516 138
f 8 252 378
f 265 72 374
f 9 521 519
f 538 549 42
f 368 358 347
f 588 587 586
f 458 453 123
f 589 385 103
f 502 492 481
f 32 416 414
f 430 427 424
f 153 585 587
f 540 144 539
f 370 368 92
f 209 293 58
f 428 33 535
f 326 581 346
f 625 307 82
f 575 28 582
f 6 181 200
f 421 109 420
f 553 121 443
f 160 642 640
f 153 584 585
f 309 432 558
f 334 337 89
f 23 315 313
f 271 163 43
f 296 295 213
f 39 498 496
f 118 439 433
f 531 113 534
f 293 296 58
f 28 362 351
f 489 131 487
f 431 444 452
f 84 558 560
f 98 366 360
f 45 169 170
f 379 101 378
f 462 463 125
f 308 84 314
f 10 432 309
f 299 24 310
f 132 492 502
f 512 387 7
f 639 638 408
f 565 323 86
f 59 244 242
f 106 400 402
f 440 33 426
f 566 565 563
f 617 398 378
f 224 225 59
f 410 109 409
f 239 400 399
f 194 219 53
f 358 22 347
f 610 157 609
f 27 595 603
f 479 484 482
f 142 520 521
f 585 25 577
f 339 578 577
f 408 407 406
f 407 109 406
f 31 408 406
f 407 408 108
f 31 639 408
f 419 31 406
f 608 616 40
f 430 429 431
f 455 35 429
f 35 444 431
f 188 51 187
f 188 182 51
f 51 322 187
f 322 51 319
f 51 182 183
f 319 51 183
f 187 322 321
f 322 319 324
f 381 101 379
f 405 407 108
f 404 405 108
f 286 285 178
f 407 405 409
f 109 407 409
f 191 175 47
f 167 164 170
f 50 184 185
f 44 167 170
f 64 244 236
f 243 244 64
f 50 188 189
f 541 542 145
f 442 445 119
f 339 91 578
f 445 446 119
f 624 623 622
f 611 624 157
f 523 526 141
f 141 527 529
f 527 514 529
f 445 120 444
f 446 445 444
f 35 446 444
f 613 614 158
f 158 614 615
f 623 613 158
f 614 613 391
f 614 612 615
f 371 376 374
f 100 376 371
f 479 482 123
f 373 394 384
f 540 42 634
f 633 540 634
f 538 42 540
f 633 634 161
f 161 634 640
f 42 626 634
f 540 633 144
f 557 556 338
f 553 333 89
f 262 21 264
f 251 21 262
f 5 335 333
f 270 251 262
f 21 251 249
f 600 593 30
f 606 593 600
f 600 30 375
f 593 390 30
f 30 377 375
f 390 388 30
f 30 388 377
f 228 243 241
f 470 478 459
f 470 127 478
f 127 477 478
f 184 186 185
f 478 477 476
f 122 478 476
f 357 74 280
f 518 39 507
f 344 342 85
f 325 344 85
f 342 344 343
f 85 342 321
f 344 90 343
f 90 344 336
f 482 129 481
f 482 481 457
f 482 457 123
f 481 37 457
f 449 447 34
f 435 449 34
f 470 472 471
f 472 470 37
f 470 471 127
f 472 126 471
f 126 468 471
f 470 459 37
f 491 126 472
f 504 129 485
f 221 59 242
f 125 463 465
f 437 34 562
f 561 437 562
f 554 568 562
f 34 554 562
f 437 561 116
f 390 103 389
f 103 386 389
f 392 105 391
f 572 586 580
f 572 580 36
f 586 152 580
f 473 572 36
f 244 243 242
f 225 244 59
f 64 240 241
f 240 239 241
f 237 240 64
f 243 64 241
f 236 237 64
f 411 607 521
f 9 411 521
f 110 607 411
f 607 142 521
f 610 607 110
f 171 15 184
f 171 169 15
f 15 186 184
f 87 584 581
f 153 588 582
f 588 575 582
f 381 102 380
f 573 572 473
f 468 469 128
f 474 468 128
f 469 571 128
f 571 573 128
f 573 473 128
f 473 474 128
f 564 323 565
f 26 323 564
f 323 324 86
f 325 323 26
f 325 324 323
f 563 565 86
f 324 325 85
f 410 230 18
f 230 228 18
f 18 228 241
f 18 241 239
f 401 619 618
f 401 402 107
f 403 402 401
f 619 159 618
f 401 618 32
f 619 401 107
f 403 401 32
f 618 611 32
f 159 624 618
f 478 122 459
f 122 458 459
f 37 459 457
f 459 458 457
f 122 456 458
f 457 458 123
f 191 190 192
f 485 129 484
f 129 482 484
f 483 485 484
f 130 483 484
f 189 187 14
f 191 50 189
f 191 189 175
f 189 14 175
f 14 177 175
f 499 501 500
f 501 499 38
f 38 499 590
f 135 499 500
f 488 501 38
f 499 135 591
f 480 454 4
f 284 12 346
f 4 423 506
f 480 4 506
f 423 531 506
f 480 506 505
f 531 137 506
f 506 137 505
f 365 366 98
f 71 270 262
f 270 71 269
f 71 267 269
f 335 334 333
f 333 334 89
f 334 335 91
f 536 9 519
f 465 463 461
f 537 140 541
f 520 140 519
f 119 446 465
f 465 461 119
f 461 441 119
f 460 441 461
f 176 46 173
f 299 297 24
f 71 263 266
f 263 260 266
f 260 72 266
f 263 70 260
f 205 201 49
f 201 181 49
f 186 205 49
f 181 201 200
f 181 182 49
f 284 77 283
f 586 587 152
f 588 586 151
f 20 267 265
f 266 267 71
f 31 417 631
f 631 417 632
f 31 631 639
f 417 31 419
f 641 631 161
f 417 112 632
f 161 631 632
f 418 417 419
f 417 418 112
f 284 345 77
f 542 550 145
f 542 541 524
f 284 174 12
f 48 174 283
f 373 20 265
f 373 265 374
f 609 608 525
f 608 157 622
f 560 559 313
f 636 637 162
f 541 140 524
f 41 542 524
f 358 357 280
f 70 263 264
f 263 262 264
f 176 177 46
f 174 48 173
f 174 173 172
f 538 551 549
f 538 540 539
f 537 541 539
f 232 221 242
f 17 221 232
f 232 242 62
f 231 232 62
f 203 205 55
f 203 55 202
f 201 205 203
f 202 55 217
f 205 206 55
f 204 203 202
f 73 275 292
f 292 290 73
f 272 290 282
f 290 292 291
f 75 290 291
f 290 75 282
f 70 277 259
f 277 70 281
f 277 281 279
f 260 70 259
f 12 174 172
f 104 396 388
f 367 27 354
f 365 27 367
f 354 27 356
f 365 367 366
f 595 27 365
f 318 299 310
f 155 596 597
f 155 597 598
f 596 594 597
f 595 596 155
f 605 595 155
f 180 47 179
f 180 190 47
f 352 372 11
f 11 372 261
f 312 310 24
f 642 636 162
f 636 297 637
f 367 369 97
f 366 367 97
f 369 367 354
f 369 370 97
f 580 579 464
f 580 152 579
f 579 124 464
f 61 230 409
f 230 410 409
f 230 61 229
f 230 229 228
f 76 285 286
f 353 352 276
f 74 353 276
f 288 76 286
f 288 286 283
f 289 288 287
f 203 54 201
f 287 288 77
f 77 288 283
f 286 48 283
f 531 423 113
f 276 11 259
f 11 261 259
f 277 276 259
f 616 158 615
f 516 616 615
f 138 516 615
f 138 615 612
f 509 533 532
f 503 502 504
f 635 79 294
f 635 294 404
f 635 637 79
f 637 635 638
f 638 635 108
f 635 404 108
f 226 61 405
f 61 226 227
f 405 61 409
f 227 226 207
f 48 178 179
f 48 286 178
f 173 48 179
f 534 143 533
f 534 535 143
f 531 534 533
f 533 143 532
f 137 531 533
f 261 372 371
f 13 180 178
f 285 13 178
f 180 13 166
f 13 168 166
f 346 345 284
f 331 327 46
f 46 327 172
f 172 327 326
f 382 620 101
f 442 121 448
f 443 121 442
f 2 226 404
f 294 2 404
f 404 226 405
f 207 226 2
f 550 551 145
f 552 146 551
f 143 550 532
f 552 550 143
f 330 329 328
f 24 636 629
f 94 352 353
f 352 11 276
f 113 428 534
f 428 535 534
f 509 41 511
f 535 552 143
f 550 552 551
f 550 542 532
f 369 95 368
f 326 327 87
f 87 327 329
f 327 331 329
f 581 326 87
f 293 79 298
f 79 297 298
f 296 298 78
f 79 293 294
f 296 293 298
f 598 490 38
f 358 280 22
f 280 279 278
f 357 358 95
f 74 357 353
f 330 328 25
f 567 23 559
f 590 598 38
f 590 604 598
f 598 604 155
f 604 590 154
f 590 591 154
f 604 154 606
f 297 299 298
f 299 318 78
f 298 299 78
f 355 354 356
f 629 636 642
f 312 24 629
f 629 642 160
f 370 362 97
f 362 363 97
f 363 366 97
f 364 363 362
f 362 370 351
f 96 363 364
f 297 636 24
f 162 637 638
f 637 297 79
f 490 488 38
f 598 597 490
f 441 442 119
f 443 442 441
f 443 441 5
f 442 448 445
f 296 78 295
f 326 12 172
f 575 574 364
f 47 175 176
f 175 177 176
f 47 176 179
