# FEM surface export ¡ª frame 495
# Vertices: 642  Faces: 1280
v -0.51682454 0.97582918 -0.00231304
v 0.51738620 0.97881651 -0.00087492
v -0.55212295 0.27976787 0.04126304
v 0.55775309 0.23145737 0.02381762
v -0.03096220 0.04755345 0.95996219
v 0.00265980 0.70992196 0.86478603
v -0.00778152 0.03998762 -0.95679259
v 0.00029312 0.70512480 -0.86127436
v 0.90799344 0.26441413 -0.57398063
v 0.91105568 0.26390359 0.55514443
v -0.91214776 0.26765314 -0.54854739
v -0.90171015 0.25996247 0.56644911
v -0.82357651 0.68116677 0.31796402
v -0.51556337 0.51709461 0.83222222
v -0.30357179 0.94682252 0.49212521
v 0.30733037 0.94634527 0.49340403
v -0.00051418 1.09384322 -0.00167677
v 0.30604759 0.94709224 -0.49408492
v -0.30559924 0.94350421 -0.49665013
v -0.51472539 0.51270938 -0.82831752
v -0.82306445 0.68067932 -0.31580335
v -1.07071054 0.25058094 0.00390046
v 0.52211136 0.52137560 0.83612597
v 0.82589853 0.68812782 0.31511503
v -0.57773286 0.02032411 0.94060504
v 0.00215625 0.25496516 1.05991733
v -0.92753941 0.09034917 -0.35785598
v -0.93955153 0.03251043 0.31267959
v -0.00580654 0.27302161 -1.07219803
v -0.60010785 0.05428523 -0.94483042
v 0.82510483 0.68629754 -0.31450200
v 0.51359165 0.51966000 -0.82800150
v 0.91709369 0.00735382 0.36731339
v 0.58438659 0.01449532 0.93848503
v 0.33133882 0.15412919 0.52570707
v -0.35542843 0.20846078 0.54212332
v 0.01826601 0.06521051 0.07457683
v -0.29646704 0.05492069 -0.45912206
v 0.31637123 0.12295125 -0.51797819
v 0.58055907 0.02452155 -0.94160813
v 0.93028378 0.05735673 -0.36085033
v 1.07465124 0.25347540 -0.00718699
v -0.69419307 0.85666883 0.16051878
v -0.58742869 0.84583431 0.42576542
v -0.42489460 0.98701453 0.25248823
v -0.72693563 0.38291961 0.71980333
v -0.70294070 0.61702847 0.60002559
v -0.88894904 0.46865353 0.44786617
v -0.15852834 0.85488832 0.70169574
v -0.43081850 0.76624721 0.69448203
v -0.26556131 0.63324541 0.88176715
v -0.15585984 1.05648959 0.25432006
v -0.26481375 1.06563711 -0.00102632
v 0.16222784 0.85093611 0.70201641
v 0.00210147 0.97951138 0.51557738
v 0.26396668 1.06626165 -0.00118082
v 0.15959252 1.05821240 0.25433880
v 0.42738223 0.98889565 0.25377029
v -0.15930906 1.05630791 -0.25890037
v -0.42617536 0.98732877 -0.25759578
v 0.42626870 0.99012941 -0.25515848
v 0.15637210 1.05741322 -0.25889441
v -0.15969460 0.84922415 -0.70317596
v 0.00170932 0.97608298 -0.51909178
v 0.16033649 0.84845430 -0.70171607
v -0.58825237 0.83898008 -0.42700961
v -0.69408011 0.85451823 -0.16249649
v -0.26686800 0.62355375 -0.87893718
v -0.42820525 0.75748575 -0.69529623
v -0.88974583 0.47534481 -0.44048804
v -0.69932175 0.61482483 -0.59894949
v -0.73558331 0.39283517 -0.71556860
v -0.86359346 0.70276362 0.00248999
v -1.02584076 0.26541439 -0.28519726
v -0.97891986 0.47700521 -0.16080770
v -0.97620434 0.46444350 0.17082021
v -1.02131331 0.25264460 0.29862660
v 0.59189337 0.84766799 0.42612118
v 0.69404262 0.85904688 0.15968113
v 0.26894060 0.62817848 0.88330591
v 0.43354964 0.75911182 0.69262481
v 0.89698315 0.47572893 0.44798273
v 0.71050793 0.62024254 0.59702599
v 0.73657024 0.39146245 0.72204036
v -0.27350017 0.38808554 0.98715228
v -0.00150097 0.48657644 0.99346828
v -0.77383900 0.13432153 0.76588142
v -0.55338508 0.25018609 0.89842522
v 0.00463712 0.06392951 1.10644865
v -0.27904800 0.12211177 1.04783392
v -0.31609598 0.00000000 0.99751210
v -1.08331192 0.09125516 0.19156629
v -0.98858494 0.07100176 0.49490526
v -0.99302638 0.07737385 -0.49914151
v -1.08977437 0.07432803 -0.17796580
v -0.74051297 0.10561430 0.13357618
v -0.94536883 0.09812298 -0.01627769
v -0.73561233 0.21478181 -0.18469164
v -0.56047618 0.27347192 -0.91606748
v -0.78298241 0.15910609 -0.77007443
v -0.00111217 0.49359140 -0.99116105
v -0.27212325 0.39457849 -0.99177420
v -0.32228634 0.00000000 -1.00493574
v -0.29941124 0.13981837 -1.05850685
v -0.00408087 0.06271187 -1.11005282
v 0.42979807 0.76290411 -0.69416368
v 0.26684886 0.62554693 -0.87767547
v 0.69344485 0.85778880 -0.16150741
v 0.58972627 0.84671485 -0.42422238
v 0.72968173 0.39777493 -0.71846181
v 0.70289397 0.62535602 -0.59720004
v 0.89440662 0.47946790 -0.44718444
v 0.74465775 0.14144462 0.20786011
v 0.62053657 0.18541944 0.47899732
v 0.43142545 0.25335810 0.29085821
v 0.78169578 0.15147059 0.77400178
v 0.82581180 0.00000000 0.70122242
v 0.98466867 0.08685196 0.48784986
v 0.15269238 0.13616970 0.76028591
v 0.46885926 0.06780770 0.77581960
v 0.30430558 0.00000000 1.00958908
v 0.13865598 0.28029305 0.29223698
v 0.29782867 0.09749529 0.06876602
v -0.18961675 0.10705744 0.74161804
v -0.02703476 0.16575067 0.55880862
v -0.29685926 0.11191817 0.07029849
v -0.19131264 0.14699967 0.28566870
v -0.43210879 0.24093908 0.27554035
v 0.17319734 0.06443048 -0.21907811
v 0.46808770 0.11889116 -0.23959970
v -0.43897396 0.14232756 -0.23809464
v -0.15493086 0.03887803 -0.20010564
v 0.16446933 0.14530772 -0.74780059
v -0.00063760 0.06134474 -0.45532680
v -0.16064504 0.02505472 -0.69368410
v 0.61708540 0.10672126 -0.43182307
v 0.77237505 0.17958972 -0.15258396
v 0.31188455 0.00000000 -1.00690293
v 0.46050635 0.05102540 -0.73109823
v 0.98825759 0.09631585 -0.50732940
v 0.78934729 0.00000000 -0.68473941
v 0.78121626 0.14307249 -0.78128499
v 0.94296312 0.03737112 0.00218552
v 1.02995181 0.26914474 -0.30169874
v 1.09220386 0.08540986 -0.20215383
v 1.07929385 0.07521910 0.18493931
v 1.02614141 0.26339197 0.27653357
v 0.29558107 0.12977193 1.04792762
v 0.55811101 0.25924098 0.91798306
v 0.27282542 0.39511800 0.99243456
v -0.67230141 0.16402099 0.42118934
v -0.51088041 0.08645758 0.74604523
v -0.81735623 0.00000000 0.66143984
v -0.48223454 0.03956480 -0.74456364
v -0.64192039 0.15656105 -0.46064737
v -0.80687588 0.03064584 -0.67361856
v 0.55930203 0.26766309 -0.90870398
v 0.28006038 0.14678924 -1.05982566
v 0.27348393 0.39939383 -0.99030256
v 0.98584127 0.48414770 0.16740803
v 0.98234427 0.47504699 -0.16639641
v 0.86510515 0.70978618 0.00119967
v -0.60996145 0.92437476 0.07913806
v -0.56442183 0.93188411 0.20933355
v -0.47446823 0.98761660 0.12677717
v -0.71488869 0.77186412 0.37682685
v -0.64634424 0.85785949 0.29614776
v -0.76635838 0.77641314 0.24088718
v -0.36668074 0.97345859 0.37455201
v -0.50978154 0.92440540 0.34195611
v -0.44908300 0.90467638 0.46313688
v -0.81865364 0.31893632 0.65049857
v -0.81873834 0.43249956 0.59167093
v -0.89846677 0.36281869 0.50853288
v -0.61855900 0.56945539 0.72335756
v -0.72237957 0.50127590 0.66537887
v -0.62471157 0.44839466 0.77901971
v -0.86384791 0.57583332 0.38504982
v -0.80511200 0.54802728 0.52973676
v -0.77232474 0.65471089 0.46392041
v -0.07922220 0.78927636 0.79042840
v -0.21352091 0.75288963 0.80373037
v -0.13209234 0.67611629 0.88268411
v -0.36965111 0.86471212 0.59994769
v -0.29593703 0.81556040 0.70519704
v -0.23305422 0.90709990 0.60085559
v -0.39429080 0.58027357 0.86548853
v -0.35277161 0.70577812 0.79662460
v -0.48010820 0.64951044 0.77318865
v -0.65443522 0.74105495 0.51986980
v -0.57470554 0.69938481 0.65578830
v -0.51525617 0.81414974 0.56670934
v -0.34856790 1.03518379 0.12673229
v -0.39338595 1.02707231 -0.00110010
v -0.23083183 1.01076901 0.37647298
v -0.29305083 1.02917230 0.25624466
v -0.13382249 1.08918738 -0.00187199
v -0.21198846 1.06787741 0.12811559
v -0.07872391 1.08494353 0.12850003
v 0.08429412 0.78639907 0.78988153
v 0.00194149 0.86050081 0.71002209
v 0.15532209 0.97003132 0.50950879
v 0.08213247 0.92219311 0.61275369
v 0.23822494 0.90380025 0.60151923
v -0.07703649 0.92315614 0.61274207
v -0.15155177 0.97128779 0.50948554
v 0.39396217 1.02968287 -0.00052981
v 0.34950361 1.03690159 0.12822437
v 0.47659087 0.99125499 0.12700218
v 0.08006628 1.08477366 0.12811504
v 0.21381013 1.06972706 0.12850884
v 0.13276093 1.09021962 -0.00199665
v 0.37198693 0.97461915 0.37669343
v 0.29379928 1.03100264 0.25700581
v 0.23502061 1.01021695 0.37661695
v -0.07932566 1.02827251 0.38964394
v 0.08133563 1.02834058 0.38878542
v 0.00036461 1.06705046 0.25736496
v -0.34916100 1.03498006 -0.13051303
v -0.47447112 0.98678750 -0.13037567
v -0.08043655 1.08628964 -0.13120222
v -0.21406583 1.06991851 -0.13096334
v -0.37044576 0.97124600 -0.38046086
v -0.29455715 1.02897394 -0.26001662
v -0.23436891 1.00945961 -0.38066757
v 0.47568291 0.99173051 -0.12870829
v 0.34889308 1.03851902 -0.12982401
v 0.23319207 1.01190245 -0.37941083
v 0.29321101 1.03170729 -0.25905702
v 0.36963466 0.97465068 -0.37756687
v 0.21191515 1.06986511 -0.13113931
v 0.07804037 1.08727860 -0.13168854
v -0.08057356 0.78090721 -0.78859371
v 0.00194987 0.85584646 -0.71086955
v 0.08180100 0.78259677 -0.78879344
v -0.15377440 0.96811378 -0.51325202
v -0.07913681 0.92070007 -0.61684364
v -0.23478070 0.90182120 -0.60415101
v 0.23592001 0.90467507 -0.60349149
v 0.08124013 0.91927481 -0.61624432
v 0.15406540 0.97016615 -0.51272523
v -0.00133919 1.06719482 -0.26164919
v 0.08004020 1.02655208 -0.39179370
v -0.08023388 1.02657330 -0.39307922
v -0.56436312 0.92960238 -0.21390189
v -0.60995919 0.92196208 -0.08298550
v -0.45129362 0.89948314 -0.46793801
v -0.51187015 0.92077452 -0.34621626
v -0.76612175 0.77385885 -0.24148455
v -0.64747763 0.85441804 -0.29764733
v -0.71322787 0.76872981 -0.37747127
v -0.13356951 0.66895956 -0.87814331
v -0.21443599 0.74177980 -0.80024290
v -0.47541800 0.63910824 -0.77175516
v -0.35133147 0.69393945 -0.79450333
v -0.39377299 0.56998748 -0.86272818
v -0.29681599 0.80908275 -0.70588112
v -0.37120631 0.85899663 -0.60208488
v -0.90495282 0.36799720 -0.49558049
v -0.82253528 0.44022435 -0.58213031
v -0.83135688 0.33035076 -0.63880205
v -0.76964378 0.65383488 -0.46502075
v -0.80068082 0.54962289 -0.52234399
v -0.85947984 0.57801563 -0.38131505
v -0.63047951 0.45645741 -0.77742523
v -0.72382748 0.50380528 -0.66128039
v -0.61568356 0.56819272 -0.72173947
v -0.51329899 0.80412710 -0.56838334
v -0.57046127 0.69023180 -0.65840292
v -0.65158355 0.73571175 -0.52290869
v -0.70205694 0.86261982 -0.00045211
v -0.85402071 0.70037031 -0.15763250
v -0.78592414 0.78614986 -0.08135372
v -0.78692371 0.78614628 0.08323318
v -0.85377771 0.69701517 0.16242622
v -0.97903019 0.26726842 -0.42064109
v -0.96742851 0.37021267 -0.36356097
v -1.03277779 0.36536229 -0.07964973
v -1.00795317 0.37419853 -0.22145118
v -1.06159830 0.26202017 -0.14107259
v -0.94627994 0.48312888 -0.30404940
v -0.91033620 0.58274013 -0.24087980
v -0.96177185 0.35871288 0.37962213
v -0.97572643 0.25476867 0.44088817
v -0.91356438 0.57699168 0.24755304
v -0.94559461 0.46588638 0.31228998
v -1.05648649 0.24696894 0.15232594
v -1.00682771 0.35243130 0.23307174
v -1.03353095 0.35641184 0.08782326
v -0.93420923 0.59548342 -0.08025298
v -0.99466854 0.47399616 0.00428007
v -0.93401694 0.58866388 0.08782100
v 0.56583726 0.93394113 0.20951724
v 0.61013037 0.92427570 0.07884543
v 0.45334032 0.90543067 0.46569440
v 0.51385701 0.92557949 0.34160033
v 0.76775330 0.77941072 0.23842478
v 0.64980662 0.86021006 0.29467404
v 0.71679294 0.77507955 0.37445059
v 0.13618340 0.67361259 0.88218707
v 0.21903618 0.74698317 0.80282003
v 0.48571482 0.64654148 0.77437824
v 0.35623407 0.69940335 0.79526240
v 0.39867952 0.57890660 0.86782598
v 0.29853132 0.80976164 0.70518821
v 0.37333417 0.85897487 0.59890258
v 0.90742660 0.36250246 0.50446749
v 0.82698327 0.43151352 0.58822793
v 0.82700109 0.32691363 0.64701432
v 0.77590972 0.65754622 0.46267691
v 0.81038707 0.54876864 0.52693450
v 0.86798942 0.58517206 0.38338050
v 0.63553274 0.45856422 0.78800684
v 0.73142731 0.50759447 0.66339743
v 0.62627202 0.57499886 0.72308058
v 0.51846325 0.80898160 0.56518215
v 0.57848239 0.69642854 0.65300792
v 0.65874279 0.74123180 0.51933610
v -0.13637534 0.56315070 0.94937617
v -0.00092821 0.60307485 0.93799156
v -0.40015435 0.45652246 0.91952211
v -0.27387491 0.51239300 0.94267857
v -0.00190188 0.37138477 1.03323185
v -0.13939121 0.44106093 0.99861139
v -0.13782342 0.31960762 1.03062916
v -0.84475726 0.18687576 0.66776663
v -0.75274581 0.25097010 0.74809855
v -0.56688666 0.13075125 0.93151593
v -0.66382325 0.18625581 0.84178412
v -0.67879391 0.07491722 0.86045051
v -0.64466703 0.31168723 0.81084347
v -0.53815639 0.37858054 0.87061119
v -0.01955695 0.00066773 1.06735253
v -0.15479745 0.00000000 1.08976805
v -0.18433540 0.05220142 0.98601145
v -0.13292816 0.18603951 1.06580496
v -0.14755349 0.08309441 1.08406854
v 0.00340062 0.15000175 1.08896327
v -0.45257029 0.00000000 0.99442661
v -0.30461094 0.02295812 1.06379032
v -0.42359579 0.07181223 1.00943959
v -0.41628134 0.31568059 0.95451313
v -0.42772359 0.18372881 0.98453921
v -0.27737460 0.25227335 1.02246785
v -1.01358664 0.15800913 0.40211609
v -0.94817537 0.15214416 0.54070246
v -1.09500372 0.16767542 0.09803969
v -1.06122243 0.17000629 0.25138041
v -1.00029111 0.00000000 0.41945100
v -1.04570591 0.07465088 0.34625322
v -1.03853798 0.00000000 0.25544560
v -0.96390837 0.17236683 -0.53041685
v -1.02529788 0.16883026 -0.39310461
v -1.04445958 0.00000000 -0.29304358
v -1.04611468 0.07417743 -0.34084460
v -0.99046475 0.00000000 -0.44595963
v -1.07128179 0.16977306 -0.23596075
v -1.09763253 0.16518833 -0.08321231
v -0.65714073 0.22193526 0.08459488
v -0.73116320 0.19390160 0.00894078
v -0.63952494 0.24554388 -0.07940128
v -0.95996875 0.06783564 0.13237384
v -0.83429700 0.10738831 0.04546316
v -0.85450125 0.09873847 0.21793224
v -0.83175123 0.12706520 -0.27623749
v -0.83114046 0.13746867 -0.10559017
v -0.94672710 0.09398865 -0.18874486
v -1.10325170 0.08909252 0.01219168
v -1.07178092 0.00000000 -0.11468016
v -1.06583130 0.00000000 0.06694182
v -0.76282489 0.27659416 -0.75004488
v -0.85612798 0.21760416 -0.66481811
v -0.54584283 0.39183596 -0.87939501
v -0.65519798 0.32830134 -0.81836420
v -0.69402546 0.09445695 -0.85687447
v -0.67481506 0.20994565 -0.85434675
v -0.57676029 0.14801930 -0.93414873
v -0.00053883 0.60099894 -0.93167120
v -0.13703078 0.56224442 -0.94685274
v -0.13980028 0.33731931 -1.04026771
v -0.13741313 0.44825238 -1.00182116
v 0.00004403 0.38593867 -1.03753805
v -0.27368090 0.50851065 -0.94013596
v -0.39815938 0.45550606 -0.91949743
v -0.16205275 0.00095183 -0.99817842
v -0.15791029 0.00658094 -1.07916272
v -0.00398260 0.00000000 -1.06968248
v -0.44721994 0.08050498 -1.01758420
v -0.30966705 0.02744204 -1.04965305
v -0.47863010 0.00000000 -0.99889863
v -0.00634995 0.16317132 -1.09316456
v -0.15891685 0.09648550 -1.09438920
v -0.15115127 0.20110621 -1.07261181
v -0.41801849 0.32941195 -0.96041799
v -0.28343108 0.26595888 -1.02931929
v -0.43285787 0.19887321 -0.98962992
v 0.21598257 0.74510258 -0.80063641
v 0.13395320 0.67037380 -0.87803614
v 0.37089369 0.86408216 -0.60095632
v 0.29692021 0.81203580 -0.70516664
v 0.39320081 0.57434255 -0.86028135
v 0.35158795 0.69874638 -0.79374778
v 0.47663900 0.64588660 -0.77010429
v 0.61015278 0.92486715 -0.08064573
v 0.56502318 0.93303961 -0.20959240
v 0.71483910 0.77276558 -0.37389576
v 0.64754528 0.85927659 -0.29516354
v 0.76618379 0.77716857 -0.23862232
v 0.51259077 0.92557710 -0.34218249
v 0.45237499 0.90517336 -0.46552324
v 0.82506686 0.33030382 -0.65393877
v 0.82243192 0.43742076 -0.58977944
v 0.90527171 0.37018880 -0.51165682
v 0.61610794 0.57957023 -0.72180843
v 0.72259599 0.51413143 -0.66239655
v 0.62743849 0.46233481 -0.78068501
v 0.86671382 0.58561057 -0.38463375
v 0.80365032 0.55447882 -0.52724993
v 0.77331841 0.66081393 -0.46238512
v 0.51650584 0.81409591 -0.56690466
v 0.65391380 0.74366951 -0.51754910
v 0.57210779 0.70040745 -0.65438700
v 0.64387673 0.20769475 0.12550151
v 0.58795756 0.21779861 0.24204372
v 0.49468312 0.24900043 0.16557033
v 0.74437815 0.07703278 0.42369428
v 0.67395037 0.14643691 0.33838710
v 0.82623762 0.05790519 0.29091203
v 0.40497643 0.22051138 0.42188835
v 0.53386265 0.20828320 0.38142493
v 0.47666067 0.17482542 0.50953072
v 0.85148877 0.20413426 0.66529316
v 0.89877367 0.11348349 0.64436686
v 0.95286828 0.17309920 0.52948904
v 0.71550965 0.00000000 0.83639282
v 0.80714226 0.07153112 0.74534470
v 0.68740904 0.08271788 0.86005539
v 0.98404253 0.00000000 0.42132801
v 0.91718125 0.04039917 0.59574294
v 0.88295746 0.00006480 0.54445291
v 0.06166792 0.08378725 0.86256301
v 0.19989876 0.07660901 0.87781715
v 0.14010251 0.01072810 0.97099435
v 0.39316210 0.13552311 0.65888727
v 0.31603646 0.10674348 0.76464027
v 0.25569290 0.14976227 0.64840311
v 0.45480821 0.00000000 0.98672903
v 0.36797926 0.02507737 0.89134502
v 0.53271478 0.00000000 0.86672175
v 0.72521764 0.07018360 0.57499319
v 0.64067334 0.03526569 0.72090369
v 0.56468374 0.13685873 0.63334674
v 0.40393692 0.10875855 0.19018911
v 0.44267270 0.12823188 0.05552331
v 0.24395359 0.23048100 0.40007085
v 0.29395160 0.17357028 0.31528419
v 0.15362240 0.07817793 0.07293307
v 0.23589090 0.13626146 0.21011701
v 0.09043225 0.15478738 0.20352282
v -0.13652579 0.10664058 0.86154163
v -0.02788829 0.10924906 0.76539773
v -0.17397079 0.22465238 0.53869939
v -0.09286504 0.18108527 0.65867949
v -0.27048951 0.17134492 0.63478303
v 0.08164482 0.12443933 0.66316080
v 0.16204607 0.11830578 0.54643947
v -0.45422047 0.14930424 0.05233179
v -0.38531840 0.25209242 0.14369003
v -0.52167225 0.27263618 0.17573899
v -0.07911981 0.15354207 0.18286563
v -0.22352834 0.23888201 0.14307766
v -0.13829781 0.09538833 0.06364181
v -0.40920785 0.20153737 0.42379430
v -0.32646954 0.18804933 0.28655195
v -0.25743979 0.25962412 0.42137143
v 0.07511445 0.23290887 0.44571978
v -0.09322941 0.24194966 0.42459720
v -0.00821448 0.13302991 0.34595910
v 0.39195892 0.07878573 -0.07287895
v 0.51329851 0.19408426 -0.10559269
v 0.09860507 0.03541883 -0.07620475
v 0.22935313 0.06112102 -0.06995368
v 0.40804785 0.18696648 -0.37075332
v 0.33175957 0.07948180 -0.22494578
v 0.26574522 0.11205165 -0.36306643
v -0.50590831 0.19569428 -0.11705248
v -0.39477822 0.09893842 -0.08673631
v -0.23424405 0.09134962 -0.32935590
v -0.29697788 0.08503030 -0.21191932
v -0.38593209 0.10695045 -0.35998118
v -0.23525369 0.03953144 -0.06888289
v -0.08638177 0.04996845 -0.06767246
v 0.07758081 0.10044290 -0.84978074
v -0.02675956 0.09523482 -0.73163277
v -0.11008640 0.07671946 -0.85273993
v 0.15858418 0.15947038 -0.49713212
v 0.07808965 0.09195296 -0.62113655
v 0.24996236 0.20205420 -0.64318496
v -0.21459432 0.02428773 -0.57660240
v -0.07427623 0.02571756 -0.56879085
v -0.15468544 0.04611408 -0.45483488
v 0.00648962 0.04385221 -0.21172468
v -0.07111181 0.07295526 -0.34925640
v 0.10793627 0.08990705 -0.34855169
v 0.63741791 0.16181831 -0.17794722
v 0.68486339 0.19490603 -0.04484330
v 0.48449811 0.21407124 -0.46952128
v 0.57529855 0.19527078 -0.32701182
v 0.83890414 0.12250771 -0.25553316
v 0.71965647 0.14986691 -0.29834378
v 0.78259104 0.06409404 -0.39960507
v 0.14802724 0.00003174 -1.00014555
v 0.23027402 0.07178228 -0.89718735
v 0.54674786 0.00109043 -0.88068986
v 0.39574936 0.00230868 -0.87316400
v 0.45570970 0.00000000 -1.00349534
v 0.30689338 0.08428462 -0.75649470
v 0.39680955 0.15309948 -0.63013649
v 0.95621943 0.17803006 -0.54679537
v 0.90152097 0.11011914 -0.65362334
v 0.85563439 0.20676820 -0.67954659
v 0.87529242 0.00000000 -0.52052194
v 0.92708421 0.00872157 -0.60512584
v 0.98140991 0.00000000 -0.44751704
v 0.69778997 0.08121205 -0.87116241
v 0.82787573 0.05548083 -0.75393021
v 0.71039325 0.00000000 -0.82483870
v 0.54055077 0.15861569 -0.60234416
v 0.61051291 0.07584374 -0.70550489
v 0.69332564 0.03832012 -0.55624968
v 0.77109838 0.16840889 0.03715665
v 0.95587409 0.09099826 -0.17523377
v 0.86564654 0.13505876 -0.07436870
v 0.87283206 0.09929059 0.11826204
v 0.96871936 0.01817382 0.18879910
v 0.97355050 0.26741076 -0.44342256
v 1.02284837 0.17510945 -0.40533355
v 1.09600401 0.15393519 -0.10208028
v 1.07311535 0.17208979 -0.26175570
v 1.06644857 0.26153812 -0.15507869
v 1.04881465 0.06678672 -0.36149979
v 1.02618587 0.03154726 -0.27556878
v 1.00921643 0.17167358 0.38380459
v 0.97579861 0.26581886 0.41791078
v 1.04150963 0.00000000 0.26756290
v 1.03983796 0.07347009 0.34064168
v 1.05949020 0.26036155 0.13658930
v 1.06156075 0.16861446 0.23358223
v 1.09183967 0.15519755 0.08334739
v 1.06687415 0.00000000 -0.11105193
v 1.10994256 0.06862025 -0.00460548
v 1.07533181 0.00000000 0.08573864
v 0.14775454 0.01237613 1.08062744
v 0.44296366 0.06606895 1.00176609
v 0.30912420 0.04870758 1.05160046
v 0.15622240 0.09553938 1.09254217
v 0.14590399 0.18857376 1.06706500
v 0.75956976 0.26644844 0.75132519
v 0.54550308 0.39201540 0.88681018
v 0.65490896 0.32570559 0.82809979
v 0.67086786 0.20454307 0.85040480
v 0.57842743 0.12919065 0.92858088
v 0.13549656 0.56339365 0.95185041
v 0.13787779 0.32067060 1.03511071
v 0.13377129 0.44030654 1.00204718
v 0.27216822 0.51400894 0.94688910
v 0.40069032 0.46274295 0.92685425
v 0.43348885 0.18520111 0.99156946
v 0.42030108 0.32421038 0.96500093
v 0.28180563 0.25415784 1.02766919
v -0.62664104 0.20756316 0.22425674
v -0.51179123 0.18044458 0.48697004
v -0.54899120 0.15903448 0.34757864
v -0.71952313 0.13260862 0.27607033
v -0.80902612 0.08724193 0.37165681
v -0.27027971 0.09351677 0.88307399
v -0.54798424 0.00011222 0.87941307
v -0.41947043 0.07205582 0.88938677
v -0.35336125 0.13365044 0.76605862
v -0.42792347 0.13075869 0.62561369
v -0.89225990 0.08244099 0.64449626
v -0.90423453 0.03123078 0.49047238
v -0.91605186 0.00000000 0.59547943
v -0.80503339 0.05009588 0.74895960
v -0.72457528 0.00000000 0.83364761
v -0.60582805 0.11911970 0.58111978
v -0.65620810 0.03485272 0.71668357
v -0.74788862 0.05370565 0.53359085
v -0.25121403 0.03093335 -0.85171890
v -0.36448917 0.12591988 -0.63567764
v -0.33185181 0.00003022 -0.70502687
v -0.40887344 0.00179957 -0.87191743
v -0.56350976 0.00000000 -0.87802440
v -0.62338698 0.13235635 -0.20674439
v -0.79905838 0.16543044 -0.43998805
v -0.67872101 0.21746351 -0.34141687
v -0.54864657 0.07981926 -0.34522432
v -0.45983440 0.07310897 -0.48074079
v -0.90661037 0.11802114 -0.64929986
v -0.71231872 0.00000000 -0.83202934
v -0.81720120 0.06266604 -0.74224186
v -0.92644823 0.01925981 -0.59232455
v -0.86786616 0.00990060 -0.52538061
v -0.56221777 0.12523471 -0.62292725
v -0.71790493 0.10340587 -0.58899802
v -0.64893419 0.00821156 -0.72901106
v 0.75891042 0.26471782 -0.75612342
v 0.57847524 0.15256894 -0.93951213
v 0.67178792 0.20502050 -0.85673630
v 0.65313184 0.33537900 -0.81934071
v 0.54058433 0.39088762 -0.87012702
v 0.15006572 0.00157851 -1.06783891
v 0.14036699 0.21201976 -1.08096921
v 0.14148484 0.09358810 -1.08358502
v 0.30068737 0.03168714 -1.05773187
v 0.43056184 0.09759829 -1.01611948
v 0.13527721 0.56268829 -0.94432157
v 0.40030190 0.46251717 -0.91791397
v 0.27328199 0.51317739 -0.93888658
v 0.13884743 0.45186028 -1.00046742
v 0.13833211 0.33835241 -1.04055393
v 0.43588105 0.20811930 -0.99612314
v 0.28387520 0.27786422 -1.03434432
v 0.41995797 0.33381143 -0.96044326
v 0.96891582 0.36631599 0.37271371
v 1.03927982 0.36997542 0.08584999
v 1.01684701 0.37488464 0.22794177
v 0.95161802 0.48372471 0.31240079
v 0.91751122 0.59021682 0.24490926
v 0.96966255 0.36782488 -0.37955776
v 0.91307294 0.58732224 -0.24455711
v 0.94862252 0.48017719 -0.30936885
v 1.01587927 0.36768609 -0.23475944
v 1.03825486 0.36403668 -0.08833367
v 0.70150143 0.86464435 -0.00094692
v 0.85576463 0.70337582 0.15951581
v 0.78623235 0.79064846 0.08169811
v 0.78679651 0.78950983 -0.08250974
v 0.85558170 0.70203406 -0.15686604
v 0.99716693 0.47934109 0.00008690
v 0.93727982 0.59639060 -0.08375133
v 0.93713576 0.59876150 0.08361581
f 330 87 329
f 336 325 26
f 207 208 56
f 464 36 580
f 502 129 504
f 157 624 622
f 308 311 82
f 247 223 248
f 507 483 508
f 331 88 329
f 494 500 497
f 156 601 602
f 591 589 592
f 365 98 596
f 75 281 282
f 152 587 577
f 149 559 560
f 555 121 553
f 530 141 529
f 515 517 139
f 361 594 98
f 250 67 249
f 157 608 609
f 294 293 209
f 317 81 316
f 557 338 26
f 303 305 81
f 530 529 528
f 101 381 382
f 415 418 111
f 192 184 50
f 412 110 411
f 20 384 256
f 131 594 486
f 281 264 282
f 347 287 348
f 28 349 582
f 165 163 1
f 248 250 66
f 617 107 398
f 273 271 274
f 456 115 453
f 558 561 560
f 335 576 91
f 331 177 332
f 116 433 436
f 351 370 92
f 136 511 530
f 239 240 65
f 247 258 19
f 304 23 567
f 148 557 570
f 214 208 58
f 440 426 450
f 268 270 269
f 258 247 268
f 204 202 16
f 466 125 465
f 517 513 133
f 168 275 274
f 275 73 274
f 198 193 53
f 309 308 307
f 510 511 136
f 415 416 110
f 131 490 597
f 473 475 474
f 414 415 111
f 493 495 494
f 496 504 485
f 433 116 432
f 600 375 601
f 240 234 65
f 418 415 412
f 486 361 3
f 567 566 304
f 380 393 29
f 17 199 197
f 491 492 132
f 451 449 435
f 218 217 216
f 623 621 613
f 396 104 395
f 433 439 436
f 628 160 627
f 215 202 217
f 209 207 2
f 427 113 424
f 434 10 544
f 434 433 432
f 199 17 210
f 150 564 565
f 489 491 132
f 275 13 285
f 497 500 134
f 125 466 476
f 578 152 577
f 208 214 211
f 328 88 343
f 356 27 603
f 150 566 567
f 372 100 371
f 190 191 47
f 235 8 398
f 260 261 72
f 422 403 414
f 422 414 111
f 453 454 123
f 349 583 582
f 521 520 519
f 425 453 115
f 616 622 158
f 483 130 508
f 151 586 572
f 212 17 232
f 400 397 402
f 377 396 99
f 41 522 511
f 510 508 505
f 549 547 42
f 475 473 36
f 510 137 509
f 222 221 197
f 430 115 429
f 220 194 1
f 305 54 204
f 621 29 613
f 192 171 184
f 460 335 5
f 88 331 332
f 74 277 279
f 300 301 80
f 390 389 388
f 165 45 164
f 146 549 551
f 291 278 75
f 448 120 445
f 147 543 544
f 607 610 609
f 603 602 356
f 139 529 514
f 333 553 443
f 92 368 347
f 261 260 259
f 300 6 200
f 46 177 331
f 284 283 174
f 301 300 200
f 471 468 474
f 54 305 301
f 302 304 303
f 569 150 567
f 150 569 570
f 294 209 2
f 628 629 160
f 548 543 147
f 147 625 627
f 63 233 234
f 426 427 114
f 41 509 532
f 198 52 196
f 614 105 612
f 147 627 547
f 81 305 306
f 549 548 547
f 54 301 200
f 342 88 332
f 264 281 70
f 193 194 53
f 455 429 456
f 187 321 14
f 479 130 484
f 147 544 625
f 458 456 453
f 304 80 303
f 314 84 313
f 488 503 501
f 321 332 14
f 423 425 424
f 305 204 306
f 341 339 25
f 514 40 516
f 625 628 627
f 340 339 341
f 105 614 391
f 243 228 62
f 318 316 78
f 75 278 279
f 357 355 353
f 238 257 63
f 466 455 476
f 425 423 4
f 448 449 120
f 408 638 108
f 292 275 285
f 22 278 289
f 515 513 517
f 501 503 134
f 622 623 158
f 134 503 504
f 195 216 206
f 163 271 246
f 619 617 620
f 62 228 229
f 163 165 164
f 453 425 454
f 489 132 488
f 82 628 625
f 58 208 209
f 525 608 40
f 626 547 627
f 518 517 498
f 489 487 491
f 557 26 564
f 325 336 344
f 541 145 539
f 40 616 516
f 338 556 89
f 250 248 245
f 139 514 515
f 98 594 596
f 246 220 1
f 112 413 630
f 9 536 413
f 156 600 601
f 332 177 14
f 321 342 332
f 156 606 600
f 584 330 585
f 302 303 81
f 584 87 330
f 330 25 585
f 400 239 65
f 439 440 117
f 95 358 368
f 597 594 131
f 594 361 486
f 246 67 245
f 561 562 149
f 28 364 362
f 55 216 217
f 427 430 114
f 267 20 254
f 556 555 553
f 84 309 558
f 311 310 312
f 609 525 142
f 256 68 255
f 124 460 461
f 82 311 312
f 307 308 82
f 589 135 495
f 527 40 514
f 112 418 412
f 20 256 254
f 258 238 19
f 267 254 269
f 273 272 249
f 392 391 393
f 137 533 509
f 122 455 456
f 9 413 411
f 130 480 505
f 333 443 5
f 527 525 40
f 589 495 385
f 39 496 485
f 223 225 224
f 414 416 415
f 219 222 53
f 145 538 539
f 413 412 411
f 469 468 467
f 183 181 6
f 191 192 50
f 429 35 431
f 292 285 76
f 413 112 412
f 415 110 412
f 43 164 167
f 467 468 126
f 617 101 620
f 450 451 117
f 438 546 545
f 619 620 159
f 17 212 210
f 124 579 576
f 584 153 583
f 460 124 576
f 3 469 467
f 311 308 314
f 6 320 183
f 389 104 388
f 251 250 249
f 194 165 1
f 291 289 278
f 287 77 348
f 238 258 257
f 139 517 518
f 238 236 19
f 223 247 19
f 382 380 29
f 39 518 498
f 361 359 3
f 69 255 257
f 139 518 528
f 33 545 535
f 387 385 7
f 69 268 269
f 477 462 125
f 454 479 123
f 121 555 447
f 451 435 117
f 454 425 4
f 233 252 8
f 124 463 464
f 69 258 268
f 168 167 166
f 583 153 582
f 384 394 102
f 138 512 513
f 57 210 211
f 254 256 255
f 607 609 142
f 324 319 86
f 289 291 76
f 291 292 76
f 384 102 383
f 422 421 420
f 221 17 197
f 383 102 381
f 376 377 99
f 99 373 374
f 386 105 392
f 438 33 440
f 90 341 343
f 281 75 279
f 574 571 96
f 628 82 312
f 221 222 59
f 127 471 474
f 595 605 603
f 551 538 145
f 334 91 340
f 322 324 85
f 305 303 301
f 18 239 399
f 306 204 16
f 199 198 197
f 166 190 180
f 303 80 301
f 267 266 265
f 626 42 547
f 16 215 213
f 349 351 350
f 295 16 213
f 68 379 252
f 250 251 66
f 627 160 626
f 383 68 256
f 343 88 342
f 507 508 136
f 202 215 16
f 197 198 53
f 254 69 269
f 603 605 156
f 418 419 111
f 384 383 256
f 455 122 476
f 203 204 54
f 556 557 148
f 255 68 253
f 313 84 560
f 25 328 341
f 254 255 69
f 603 156 602
f 581 584 583
f 630 632 112
f 163 246 1
f 246 245 220
f 432 116 558
f 499 591 590
f 320 563 86
f 345 93 350
f 306 16 295
f 346 93 345
f 562 568 149
f 604 605 155
f 154 592 593
f 545 552 535
f 511 522 530
f 574 573 571
f 566 150 565
f 361 98 360
f 67 271 273
f 234 235 65
f 208 211 56
f 574 151 573
f 251 270 66
f 398 8 378
f 213 215 214
f 438 440 439
f 315 314 313
f 263 71 262
f 20 373 384
f 496 134 504
f 329 88 328
f 81 306 316
f 555 556 148
f 592 589 103
f 617 619 107
f 227 207 56
f 571 359 96
f 446 466 465
f 206 216 55
f 359 571 469
f 568 148 570
f 34 437 435
f 28 351 349
f 21 272 282
f 113 423 424
f 490 489 488
f 379 68 383
f 210 212 211
f 80 563 300
f 351 92 350
f 326 346 12
f 83 317 318
f 555 148 554
f 212 231 56
f 218 57 217
f 271 67 246
f 195 196 52
f 270 268 66
f 390 592 103
f 148 568 554
f 495 493 7
f 592 390 593
f 357 95 355
f 574 575 151
f 452 120 451
f 154 591 592
f 587 585 577
f 395 394 396
f 93 349 350
f 610 416 611
f 166 44 190
f 315 23 302
f 315 302 317
f 268 247 66
f 606 154 593
f 396 394 99
f 211 212 56
f 370 369 368
f 235 397 65
f 280 278 22
f 83 315 317
f 575 588 151
f 74 279 280
f 385 495 7
f 63 257 253
f 397 235 398
f 214 58 213
f 220 219 194
f 546 146 545
f 236 225 19
f 599 94 602
f 235 233 8
f 102 394 395
f 611 416 32
f 225 223 19
f 139 528 529
f 231 62 229
f 419 406 421
f 451 450 452
f 49 182 185
f 402 397 107
f 52 199 218
f 416 610 110
f 225 236 244
f 107 397 398
f 68 252 253
f 322 85 321
f 182 181 183
f 118 438 439
f 546 438 118
f 348 77 345
f 543 546 118
f 231 212 232
f 610 611 157
f 33 438 545
f 385 386 103
f 479 480 130
f 169 195 15
f 93 583 349
f 15 195 206
f 190 44 192
f 247 248 66
f 146 552 545
f 248 60 245
f 570 557 564
f 274 271 43
f 63 253 233
f 272 21 249
f 507 528 518
f 67 273 249
f 487 467 126
f 196 195 169
f 624 159 623
f 134 496 497
f 132 503 488
f 104 393 395
f 556 553 89
f 355 356 94
f 258 69 257
f 229 61 227
f 56 231 227
f 460 576 335
f 463 124 461
f 394 373 99
f 29 393 391
f 67 250 245
f 193 198 196
f 462 36 464
f 144 633 630
f 141 526 527
f 517 133 498
f 536 144 630
f 100 372 599
f 144 536 537
f 22 289 287
f 578 579 152
f 579 578 576
f 189 188 187
f 60 223 224
f 92 348 350
f 555 554 447
f 396 377 388
f 194 193 165
f 413 536 630
f 372 352 599
f 377 376 375
f 348 345 350
f 105 386 387
f 240 237 234
f 463 462 464
f 135 500 494
f 45 196 169
f 512 612 387
f 245 60 220
f 429 115 456
f 223 60 248
f 288 289 76
f 525 526 142
f 100 599 601
f 613 29 391
f 526 523 520
f 341 328 343
f 631 641 639
f 264 21 282
f 266 72 265
f 106 402 403
f 73 273 274
f 186 206 205
f 381 379 383
f 52 216 195
f 410 18 399
f 290 272 73
f 72 371 374
f 526 525 527
f 115 430 424
f 498 497 496
f 621 382 29
f 543 118 434
f 214 215 57
f 522 141 530
f 511 510 509
f 352 94 599
f 493 512 7
f 90 340 341
f 169 171 170
f 605 604 606
f 219 60 224
f 104 389 392
f 359 469 3
f 186 49 185
f 222 219 224
f 166 167 44
f 428 427 426
f 523 522 524
f 129 502 481
f 50 185 188
f 164 45 170
f 425 115 424
f 33 428 426
f 427 428 113
f 94 356 602
f 515 138 513
f 114 431 452
f 237 236 238
f 215 217 57
f 95 354 355
f 220 60 219
f 515 514 516
f 183 320 319
f 222 197 53
f 559 569 567
f 300 320 6
f 435 436 117
f 96 360 363
f 640 642 641
f 242 243 62
f 140 537 519
f 508 130 505
f 420 410 399
f 537 539 144
f 317 316 318
f 426 114 450
f 186 15 206
f 311 83 310
f 625 544 307
f 544 10 307
f 168 43 167
f 185 182 188
f 369 354 95
f 44 171 192
f 605 606 156
f 548 549 146
f 100 601 375
f 149 568 569
f 381 380 382
f 455 466 35
f 480 479 454
f 543 548 546
f 493 133 513
f 492 472 37
f 477 125 476
f 491 487 126
f 337 336 338
f 588 153 587
f 576 578 91
f 633 161 632
f 96 359 360
f 39 485 483
f 101 617 378
f 193 45 165
f 163 164 43
f 618 624 611
f 507 136 528
f 561 149 560
f 641 162 639
f 116 561 558
f 494 133 493
f 253 252 233
f 63 237 238
f 392 393 104
f 440 450 117
f 93 581 583
f 386 385 387
f 120 449 451
f 421 422 111
f 486 3 467
f 302 81 317
f 633 632 630
f 462 475 36
f 376 99 374
f 489 490 131
f 447 449 448
f 387 612 105
f 106 420 399
f 173 46 172
f 492 491 472
f 316 306 295
f 22 287 347
f 109 410 420
f 507 39 483
f 559 23 313
f 214 57 211
f 196 45 193
f 10 434 432
f 422 106 403
f 626 160 640
f 487 486 467
f 542 41 532
f 400 106 399
f 444 120 452
f 198 199 52
f 475 127 474
f 621 620 382
f 621 623 159
f 450 114 452
f 92 347 348
f 376 100 375
f 434 118 433
f 503 132 502
f 337 90 336
f 537 536 519
f 395 393 380
f 201 54 200
f 171 44 170
f 355 94 353
f 58 296 213
f 422 420 106
f 595 365 596
f 569 568 570
f 523 140 520
f 114 430 431
f 218 210 57
f 304 566 80
f 639 162 638
f 261 371 72
f 548 147 547
f 498 133 497
f 150 570 564
f 222 224 59
f 142 526 520
f 437 436 435
f 141 522 523
f 137 510 505
f 173 179 176
f 559 149 569
f 121 447 448
f 563 320 300
f 102 395 380
f 257 255 253
f 642 162 641
f 83 311 314
f 216 52 218
f 512 493 513
f 23 304 302
f 91 339 340
f 512 138 612
f 159 620 621
f 218 199 210
f 364 28 575
f 83 318 310
f 168 274 43
f 136 530 528
f 140 523 524
f 495 135 494
f 233 235 234
f 566 563 80
f 25 339 577
f 277 74 276
f 475 462 477
f 133 494 497
f 436 437 116
f 389 386 392
f 548 146 546
f 441 460 5
f 10 309 307
f 65 397 400
f 543 434 544
f 640 641 161
f 272 273 73
f 581 93 346
f 419 421 111
f 319 320 86
f 180 179 178
f 127 475 477
f 231 229 227
f 337 334 340
f 136 508 510
f 308 309 84
f 237 63 234
f 447 554 34
f 252 379 378
f 315 83 314
f 608 622 616
f 338 336 26
f 337 338 89
f 13 275 168
f 209 208 207
f 436 439 117
f 628 312 629
f 360 366 363
f 364 574 96
f 359 361 360
f 466 446 35
f 500 501 134
f 406 109 421
f 135 589 591
f 601 599 602
f 340 90 337
f 481 492 37
f 522 41 524
f 78 316 295
f 131 486 487
f 403 32 414
f 634 626 640
f 151 572 573
f 515 516 138
f 8 252 378
f 265 72 374
f 9 521 519
f 538 549 42
f 368 358 347
f 588 587 586
f 458 453 123
f 589 385 103
f 502 492 481
f 32 416 414
f 430 427 424
f 153 585 587
f 540 144 539
f 370 368 92
f 209 293 58
f 428 33 535
f 326 581 346
f 625 307 82
f 575 28 582
f 6 181 200
f 421 109 420
f 553 121 443
f 160 642 640
f 153 584 585
f 309 432 558
f 334 337 89
f 23 315 313
f 271 163 43
f 296 295 213
f 39 498 496
f 118 439 433
f 531 113 534
f 293 296 58
f 28 362 351
f 489 131 487
f 431 444 452
f 84 558 560
f 98 366 360
f 45 169 170
f 379 101 378
f 462 463 125
f 308 84 314
f 10 432 309
f 299 24 310
f 132 492 502
f 512 387 7
f 639 638 408
f 565 323 86
f 59 244 242
f 106 400 402
f 440 33 426
f 566 565 563
f 617 398 378
f 224 225 59
f 410 109 409
f 239 400 399
f 194 219 53
f 358 22 347
f 610 157 609
f 27 595 603
f 479 484 482
f 142 520 521
f 585 25 577
f 339 578 577
f 408 407 406
f 407 109 406
f 31 408 406
f 407 408 108
f 31 639 408
f 419 31 406
f 608 616 40
f 430 429 431
f 455 35 429
f 35 444 431
f 188 51 187
f 188 182 51
f 51 322 187
f 322 51 319
f 51 182 183
f 319 51 183
f 187 322 321
f 322 319 324
f 381 101 379
f 405 407 108
f 404 405 108
f 286 285 178
f 407 405 409
f 109 407 409
f 191 175 47
f 167 164 170
f 50 184 185
f 44 167 170
f 64 244 236
f 243 244 64
f 50 188 189
f 541 542 145
f 442 445 119
f 339 91 578
f 445 446 119
f 624 623 622
f 611 624 157
f 523 526 141
f 141 527 529
f 527 514 529
f 445 120 444
f 446 445 444
f 35 446 444
f 613 614 158
f 158 614 615
f 623 613 158
f 614 613 391
f 614 612 615
f 371 376 374
f 100 376 371
f 479 482 123
f 373 394 384
f 540 42 634
f 633 540 634
f 538 42 540
f 633 634 161
f 161 634 640
f 42 626 634
f 540 633 144
f 557 556 338
f 553 333 89
f 262 21 264
f 251 21 262
f 5 335 333
f 270 251 262
f 21 251 249
f 600 593 30
f 606 593 600
f 600 30 375
f 593 390 30
f 30 377 375
f 390 388 30
f 30 388 377
f 228 243 241
f 470 478 459
f 470 127 478
f 127 477 478
f 184 186 185
f 478 477 476
f 122 478 476
f 357 74 280
f 518 39 507
f 344 342 85
f 325 344 85
f 342 344 343
f 85 342 321
f 344 90 343
f 90 344 336
f 482 129 481
f 482 481 457
f 482 457 123
f 481 37 457
f 449 447 34
f 435 449 34
f 470 472 471
f 472 470 37
f 470 471 127
f 472 126 471
f 126 468 471
f 470 459 37
f 491 126 472
f 504 129 485
f 221 59 242
f 125 463 465
f 437 34 562
f 561 437 562
f 554 568 562
f 34 554 562
f 437 561 116
f 390 103 389
f 103 386 389
f 392 105 391
f 572 586 580
f 572 580 36
f 586 152 580
f 473 572 36
f 244 243 242
f 225 244 59
f 64 240 241
f 240 239 241
f 237 240 64
f 243 64 241
f 236 237 64
f 411 607 521
f 9 411 521
f 110 607 411
f 607 142 521
f 610 607 110
f 171 15 184
f 171 169 15
f 15 186 184
f 87 584 581
f 153 588 582
f 588 575 582
f 381 102 380
f 573 572 473
f 468 469 128
f 474 468 128
f 469 571 128
f 571 573 128
f 573 473 128
f 473 474 128
f 564 323 565
f 26 323 564
f 323 324 86
f 325 323 26
f 325 324 323
f 563 565 86
f 324 325 85
f 410 230 18
f 230 228 18
f 18 228 241
f 18 241 239
f 401 619 618
f 401 402 107
f 403 402 401
f 619 159 618
f 401 618 32
f 619 401 107
f 403 401 32
f 618 611 32
f 159 624 618
f 478 122 459
f 122 458 459
f 37 459 457
f 459 458 457
f 122 456 458
f 457 458 123
f 191 190 192
f 485 129 484
f 129 482 484
f 483 485 484
f 130 483 484
f 189 187 14
f 191 50 189
f 191 189 175
f 189 14 175
f 14 177 175
f 499 501 500
f 501 499 38
f 38 499 590
f 135 499 500
f 488 501 38
f 499 135 591
f 480 454 4
f 284 12 346
f 4 423 506
f 480 4 506
f 423 531 506
f 480 506 505
f 531 137 506
f 506 137 505
f 365 366 98
f 71 270 262
f 270 71 269
f 71 267 269
f 335 334 333
f 333 334 89
f 334 335 91
f 536 9 519
f 465 463 461
f 537 140 541
f 520 140 519
f 119 446 465
f 465 461 119
f 461 441 119
f 460 441 461
f 176 46 173
f 299 297 24
f 71 263 266
f 263 260 266
f 260 72 266
f 263 70 260
f 205 201 49
f 201 181 49
f 186 205 49
f 181 201 200
f 181 182 49
f 284 77 283
f 586 587 152
f 588 586 151
f 20 267 265
f 266 267 71
f 31 417 631
f 631 417 632
f 31 631 639
f 417 31 419
f 641 631 161
f 417 112 632
f 161 631 632
f 418 417 419
f 417 418 112
f 284 345 77
f 542 550 145
f 542 541 524
f 284 174 12
f 48 174 283
f 373 20 265
f 373 265 374
f 609 608 525
f 608 157 622
f 560 559 313
f 636 637 162
f 541 140 524
f 41 542 524
f 358 357 280
f 70 263 264
f 263 262 264
f 176 177 46
f 174 48 173
f 174 173 172
f 538 551 549
f 538 540 539
f 537 541 539
f 232 221 242
f 17 221 232
f 232 242 62
f 231 232 62
f 203 205 55
f 203 55 202
f 201 205 203
f 202 55 217
f 205 206 55
f 204 203 202
f 73 275 292
f 292 290 73
f 272 290 282
f 290 292 291
f 75 290 291
f 290 75 282
f 70 277 259
f 277 70 281
f 277 281 279
f 260 70 259
f 12 174 172
f 104 396 388
f 367 27 354
f 365 27 367
f 354 27 356
f 365 367 366
f 595 27 365
f 318 299 310
f 155 596 597
f 155 597 598
f 596 594 597
f 595 596 155
f 605 595 155
f 180 47 179
f 180 190 47
f 352 372 11
f 11 372 261
f 312 310 24
f 642 636 162
f 636 297 637
f 367 369 97
f 366 367 97
f 369 367 354
f 369 370 97
f 580 579 464
f 580 152 579
f 579 124 464
f 61 230 409
f 230 410 409
f 230 61 229
f 230 229 228
f 76 285 286
f 353 352 276
f 74 353 276
f 288 76 286
f 288 286 283
f 289 288 287
f 203 54 201
f 287 288 77
f 77 288 283
f 286 48 283
f 531 423 113
f 276 11 259
f 11 261 259
f 277 276 259
f 616 158 615
f 516 616 615
f 138 516 615
f 138 615 612
f 509 533 532
f 503 502 504
f 635 79 294
f 635 294 404
f 635 637 79
f 637 635 638
f 638 635 108
f 635 404 108
f 226 61 405
f 61 226 227
f 405 61 409
f 227 226 207
f 48 178 179
f 48 286 178
f 173 48 179
f 534 143 533
f 534 535 143
f 531 534 533
f 533 143 532
f 137 531 533
f 261 372 371
f 13 180 178
f 285 13 178
f 180 13 166
f 13 168 166
f 346 345 284
f 331 327 46
f 46 327 172
f 172 327 326
f 382 620 101
f 442 121 448
f 443 121 442
f 2 226 404
f 294 2 404
f 404 226 405
f 207 226 2
f 550 551 145
f 552 146 551
f 143 550 532
f 552 550 143
f 330 329 328
f 24 636 629
f 94 352 353
f 352 11 276
f 113 428 534
f 428 535 534
f 509 41 511
f 535 552 143
f 550 552 551
f 550 542 532
f 369 95 368
f 326 327 87
f 87 327 329
f 327 331 329
f 581 326 87
f 293 79 298
f 79 297 298
f 296 298 78
f 79 293 294
f 296 293 298
f 598 490 38
f 358 280 22
f 280 279 278
f 357 358 95
f 74 357 353
f 330 328 25
f 567 23 559
f 590 598 38
f 590 604 598
f 598 604 155
f 604 590 154
f 590 591 154
f 604 154 606
f 297 299 298
f 299 318 78
f 298 299 78
f 355 354 356
f 629 636 642
f 312 24 629
f 629 642 160
f 370 362 97
f 362 363 97
f 363 366 97
f 364 363 362
f 362 370 351
f 96 363 364
f 297 636 24
f 162 637 638
f 637 297 79
f 490 488 38
f 598 597 490
f 441 442 119
f 443 442 441
f 443 441 5
f 442 448 445
f 296 78 295
f 326 12 172
f 575 574 364
f 47 175 176
f 175 177 176
f 47 176 179
