# FEM surface export ¡ª frame 892
# Vertices: 642  Faces: 1280
v -0.55537069 0.86983705 -0.02886277
v 0.48377645 0.95477068 -0.01655339
v -0.48414475 0.74415982 0.04392301
v 0.55479807 0.60825622 0.03512939
v 0.02458008 0.34761298 0.86518908
v -0.06542296 0.61431599 0.83344764
v -0.02527498 0.44754264 -0.87503457
v 0.01729050 0.55666679 -0.84113419
v 0.88036704 0.07456025 -0.52082664
v 0.87600017 0.18572314 0.54534298
v -0.86019552 0.06394469 -0.56264544
v -0.88578963 0.07940035 0.52251482
v -0.79932874 0.53401119 0.29396260
v -0.49554408 0.33542314 0.77342492
v -0.37696883 0.87710547 0.46498582
v 0.23304652 0.95032084 0.48191601
v -0.06636690 1.10099304 -0.03698226
v 0.29080522 0.86250454 -0.51757932
v -0.30883977 0.84531319 -0.51397192
v -0.48510015 0.37729478 -0.79689693
v -0.80329603 0.51446128 -0.31225854
v -1.01611280 0.12762579 0.01462388
v 0.45686850 0.46375769 0.83100009
v 0.75711727 0.62433958 0.30676970
v -0.50296980 0.19250202 0.86077809
v -0.00007763 0.12340474 1.01613593
v -0.79970545 0.39803752 -0.25302777
v -0.80730766 0.44448057 0.31870154
v 0.00108385 0.02730501 -1.01685095
v -0.49205977 0.17676938 -0.79341096
v 0.77090770 0.57410663 -0.28719002
v 0.50654298 0.34628251 -0.78933996
v 0.83927411 0.20164579 0.30751902
v 0.54423600 0.15337366 0.80009848
v 0.39995292 0.53219074 0.50286162
v -0.23430105 0.64561671 0.55619013
v 0.02392986 0.50645912 0.06240975
v -0.31458789 0.57073873 -0.49739364
v 0.29215643 0.64517528 -0.46978065
v 0.49045554 0.23008400 -0.85366642
v 0.84786451 0.40765989 -0.32013679
v 1.02525675 0.14780360 0.01208321
v -0.70760834 0.71313274 0.14289923
v -0.60919678 0.69774473 0.40489545
v -0.49437177 0.89895087 0.23813088
v -0.67982835 0.19304921 0.66538936
v -0.65628296 0.41208225 0.56782812
v -0.83961689 0.30194774 0.42274404
v -0.22560933 0.77362597 0.66423661
v -0.44114459 0.62330294 0.64267218
v -0.29384011 0.49378702 0.83548486
v -0.24192372 1.05107880 0.23371734
v -0.33941588 1.02545226 -0.03573030
v 0.07557926 0.79823774 0.67772877
v -0.06990959 0.95055413 0.49035859
v 0.22204679 1.07574296 -0.02385290
v 0.09055793 1.07016706 0.23020242
v 0.36494023 0.98341501 0.23481032
v -0.21737176 1.01490235 -0.29072487
v -0.45906019 0.88195187 -0.29004094
v 0.40368852 0.94393075 -0.27863771
v 0.11585782 1.02957094 -0.28754976
v -0.15036406 0.71886104 -0.71030217
v -0.01591546 0.90205210 -0.54127681
v 0.15472302 0.72784036 -0.70865333
v -0.56838012 0.69053894 -0.43749851
v -0.70468986 0.70212686 -0.18246903
v -0.23269491 0.45719498 -0.83467501
v -0.40526146 0.59710675 -0.67979342
v -0.85952890 0.29552281 -0.44814825
v -0.67501056 0.46953297 -0.56781983
v -0.72199726 0.25773278 -0.72251385
v -0.85063070 0.55343801 -0.01994947
v -0.99402010 0.04738376 -0.26510823
v -0.97137833 0.30204108 -0.17729427
v -0.93431830 0.32750395 0.16161960
v -0.94645393 0.21568397 0.25871438
v 0.51250106 0.81445670 0.42631239
v 0.64334995 0.80975068 0.15452291
v 0.20535105 0.55312693 0.84737533
v 0.32235456 0.71441543 0.67202097
v 0.83927661 0.43499351 0.45028505
v 0.61831897 0.58627218 0.61193973
v 0.69939953 0.34777933 0.69621754
v -0.28062424 0.26414809 0.97801411
v -0.03887002 0.37099290 0.94869953
v -0.73878878 0.08961308 0.70852745
v -0.54747748 0.05599054 0.87733513
v 0.00624011 0.12507099 1.00366259
v -0.30988735 0.00877056 0.97714967
v -0.23737052 0.31379917 0.88115740
v -0.94930249 0.22632423 0.19976029
v -0.89307404 0.26890457 0.48249444
v -0.84654307 0.15299883 -0.39720115
v -0.94685131 0.18238027 -0.10486960
v -0.65220964 0.60612291 0.16251984
v -0.85187924 0.45548683 0.00125304
v -0.66718924 0.60905230 -0.12728772
v -0.52234429 0.13305472 -0.89768052
v -0.69544584 0.00689415 -0.67359644
v 0.02231517 0.29366091 -0.90657842
v -0.24282667 0.23311788 -0.96348321
v -0.29674217 0.34479293 -0.84960282
v -0.26873931 0.09608678 -0.98961288
v -0.00111999 0.25400254 -1.01853585
v 0.42056641 0.62920028 -0.67323798
v 0.27972201 0.47580779 -0.83643061
v 0.66490650 0.77980119 -0.14708075
v 0.58030111 0.74689406 -0.40914559
v 0.70538402 0.19422996 -0.69366223
v 0.66978717 0.45395967 -0.56254894
v 0.83623111 0.32527095 -0.41697383
v 0.71710533 0.39875203 0.17095532
v 0.62320668 0.36989185 0.39213526
v 0.49497819 0.58047467 0.26170266
v 0.73737109 0.04275382 0.71667719
v 0.70901179 0.15026514 0.55998433
v 0.84387928 0.13790417 0.36626512
v 0.20980743 0.46429080 0.71854627
v 0.45648775 0.34620312 0.66714460
v 0.27203688 0.23494205 0.89529568
v 0.27961984 0.68913025 0.25685385
v 0.35775256 0.55753845 0.02826574
v -0.11372747 0.51581275 0.72046191
v 0.11386380 0.63873297 0.51760495
v -0.22122288 0.61708754 0.07765497
v -0.07016418 0.74143648 0.30385062
v -0.38751453 0.73431420 0.29278070
v 0.18572503 0.57797295 -0.24849233
v 0.45370942 0.68187308 -0.22591278
v -0.42768607 0.66994548 -0.19572140
v -0.16737202 0.56363946 -0.20172372
v 0.13830090 0.55879968 -0.69678313
v -0.03479672 0.63861167 -0.49111217
v -0.18541385 0.56082463 -0.69652975
v 0.58808261 0.58666593 -0.40255755
v 0.72920287 0.48584464 -0.11573215
v 0.25561804 0.33840787 -0.89857095
v 0.42522934 0.49398068 -0.69871157
v 0.88124526 0.23798636 -0.44953966
v 0.65823078 0.37619567 -0.62697768
v 0.71328855 0.08514559 -0.72963107
v 0.86446410 0.31430230 0.01910150
v 1.00270808 0.14447385 -0.28437531
v 0.96746278 0.09401109 -0.19251886
v 1.01647353 0.04434100 0.12151722
v 0.98246956 0.19081622 0.29776365
v 0.30754751 0.01849530 1.00400484
v 0.53781664 0.18072754 0.88635975
v 0.24280600 0.31890082 0.95925313
v -0.54073548 0.61001539 0.46159557
v -0.35078570 0.43515742 0.71906233
v -0.66154855 0.38186169 0.60741943
v -0.45768860 0.48711446 -0.69247371
v -0.61736971 0.56890583 -0.39433703
v -0.68773913 0.29865268 -0.55179542
v 0.53950536 0.06966655 -0.88346815
v 0.27781272 0.07658765 -1.00287795
v 0.27617237 0.24835214 -0.95992833
v 0.93143368 0.39684561 0.16940516
v 0.91558260 0.36171162 -0.15666096
v 0.82567972 0.62533808 0.02566820
v -0.64626878 0.80049378 0.04999239
v -0.60269266 0.80457538 0.18856692
v -0.53406477 0.89358801 0.10222049
v -0.70826381 0.58222455 0.36433357
v -0.66959041 0.69751287 0.28447056
v -0.75972432 0.62103868 0.21983865
v -0.44381467 0.90325308 0.35315141
v -0.56433058 0.80435401 0.32129553
v -0.49630615 0.79142439 0.43559897
v -0.79737777 0.14325950 0.59339929
v -0.77891487 0.24538891 0.54725152
v -0.86663342 0.16234471 0.46302345
v -0.58973080 0.37936887 0.67253977
v -0.68594998 0.30188817 0.61902201
v -0.59003907 0.25584081 0.72864079
v -0.81918842 0.43660241 0.37382147
v -0.76895553 0.34940392 0.49680999
v -0.74529427 0.44395697 0.43395284
v -0.13745201 0.69372314 0.76151419
v -0.25968182 0.64677233 0.75023013
v -0.17616951 0.55977345 0.83488262
v -0.40997964 0.76364577 0.56220329
v -0.34408230 0.70606560 0.66374946
v -0.29569617 0.82724035 0.56214285
v -0.39596304 0.41045174 0.82284492
v -0.37344962 0.56842393 0.73761243
v -0.48162696 0.47421822 0.72958273
v -0.63989162 0.55159712 0.49426642
v -0.54962510 0.52565753 0.60452777
v -0.52489346 0.66629750 0.53132802
v -0.42507228 0.97344118 0.09850739
v -0.45719078 0.95513970 -0.04008740
v -0.31578642 0.97386235 0.35739866
v -0.37468201 0.99155134 0.23588960
v -0.20758986 1.07191837 -0.03511567
v -0.30151582 1.05227911 0.09770680
v -0.16215754 1.09529805 0.09692772
v 0.00638442 0.70555454 0.75892538
v -0.06470643 0.79190838 0.68574357
v 0.08036322 0.96000773 0.49784178
v 0.00027218 0.88694036 0.59094328
v 0.14878488 0.88426954 0.58431911
v -0.14129587 0.86924374 0.58553684
v -0.22549564 0.93316799 0.48700312
v 0.35962376 1.02197802 -0.03245426
v 0.29733932 1.04245448 0.09947500
v 0.42506045 0.98103720 0.11129981
v 0.00589188 1.10180771 0.09578848
v 0.15170176 1.08450949 0.10328131
v 0.08138882 1.09739602 -0.02582040
v 0.29879948 0.97806931 0.36306542
v 0.23121613 1.03429580 0.23233169
v 0.16513965 1.01765311 0.36723045
v -0.15132882 1.01927245 0.36847615
v 0.01909774 1.03010952 0.37288833
v -0.07133489 1.07882357 0.23584141
v -0.40672269 0.97219390 -0.16805600
v -0.51692641 0.88875341 -0.16686688
v -0.14796469 1.06645179 -0.16227354
v -0.28299141 1.03169847 -0.16965969
v -0.38762331 0.86883169 -0.40298462
v -0.34191117 0.96230155 -0.29866618
v -0.26158088 0.93800473 -0.40648118
v 0.45499399 0.96109486 -0.15534176
v 0.31815997 1.02434134 -0.15417032
v 0.21037270 0.96046299 -0.41310316
v 0.25949928 0.99743414 -0.28617236
v 0.35040346 0.91931498 -0.40015325
v 0.16928700 1.06302369 -0.15316668
v 0.02983367 1.08291960 -0.15650231
v -0.06522180 0.64208072 -0.78359467
v 0.00446235 0.74644125 -0.71423674
v 0.08557205 0.65825850 -0.78408778
v -0.16453679 0.88564140 -0.53992981
v -0.07484396 0.81981874 -0.62900239
v -0.22460225 0.78748232 -0.62326127
v 0.21538563 0.80522037 -0.62336504
v 0.07527863 0.82708710 -0.63480294
v 0.13370094 0.89134139 -0.53863376
v -0.05315786 1.03792357 -0.28980052
v 0.05152882 0.97803956 -0.41839299
v -0.10755408 0.97050881 -0.41558200
v -0.58966553 0.80381542 -0.23867834
v -0.63249892 0.79323089 -0.10889487
v -0.44505641 0.77752161 -0.47833410
v -0.52005619 0.79435265 -0.36590394
v -0.75593805 0.60901868 -0.24103543
v -0.64564669 0.69856465 -0.31562525
v -0.69082701 0.60849994 -0.37242606
v -0.10869876 0.52389836 -0.84288305
v -0.20085983 0.59201527 -0.78028375
v -0.45052251 0.49771723 -0.73213798
v -0.32382980 0.51698768 -0.76356125
v -0.37074232 0.42555422 -0.81834257
v -0.28614762 0.65932155 -0.69889015
v -0.35146171 0.72175270 -0.60124886
v -0.88485366 0.19071229 -0.50424141
v -0.78936839 0.27949965 -0.59474510
v -0.80587471 0.18007568 -0.63895345
v -0.73067540 0.51663995 -0.44264203
v -0.78377986 0.39956638 -0.49643129
v -0.82151628 0.41180560 -0.38232407
v -0.61796552 0.31593835 -0.76328272
v -0.70430809 0.37001240 -0.65250462
v -0.59681934 0.42534477 -0.70574230
v -0.47950244 0.65847486 -0.57621020
v -0.52220982 0.52230710 -0.63137388
v -0.60441726 0.57811266 -0.51363182
v -0.71148723 0.72555459 -0.02379963
v -0.83019888 0.53793097 -0.16936295
v -0.77954489 0.63700384 -0.09592128
v -0.79335147 0.63822389 0.06191142
v -0.84422100 0.54329091 0.14028789
v -0.92992878 0.04257607 -0.42226103
v -0.93822223 0.16638121 -0.37912351
v -1.02007270 0.22466625 -0.08928612
v -0.99110413 0.18526487 -0.23410225
v -1.01813543 0.09649424 -0.11930417
v -0.90858644 0.29926467 -0.30580500
v -0.88455850 0.40595672 -0.23468350
v -0.92129570 0.22541144 0.37329650
v -0.95926815 0.13473867 0.43490112
v -0.86937308 0.43504834 0.22923829
v -0.89157814 0.34154761 0.30124652
v -1.03923357 0.12701437 0.14980936
v -0.96938777 0.23535594 0.22717488
v -1.00127566 0.23692815 0.09084477
v -0.91801900 0.42915487 -0.09395964
v -0.97734720 0.33157602 -0.01108724
v -0.92198187 0.44300288 0.06851224
v 0.50936192 0.91085476 0.19793841
v 0.56791681 0.89093381 0.06625108
v 0.37218323 0.88712543 0.45505065
v 0.43851149 0.90127558 0.32932118
v 0.70437747 0.71695542 0.23901381
v 0.58524203 0.82010776 0.29347411
v 0.63871258 0.72673970 0.37760553
v 0.05912965 0.58541036 0.85136145
v 0.12919089 0.66982734 0.77530175
v 0.39818263 0.60537601 0.75466514
v 0.26360777 0.63839650 0.77279216
v 0.34304231 0.51943487 0.84731567
v 0.19462116 0.75496387 0.67982799
v 0.27350694 0.82744116 0.57816452
v 0.86357057 0.31911173 0.49468732
v 0.78203803 0.39583507 0.58295494
v 0.79215378 0.26582056 0.62369251
v 0.68894100 0.60769123 0.45909297
v 0.73084956 0.51474965 0.52460033
v 0.80207705 0.53332657 0.37275204
v 0.59439445 0.40794003 0.77634972
v 0.66688371 0.47461751 0.65620679
v 0.54398447 0.53022599 0.73054701
v 0.42686969 0.76568788 0.55906570
v 0.47777838 0.65437514 0.66208112
v 0.56272936 0.69171923 0.52155071
v -0.17421886 0.43941855 0.91097665
v -0.03835754 0.49636617 0.91011208
v -0.40706769 0.28094754 0.88812369
v -0.28910652 0.36373904 0.89506716
v -0.01114734 0.23243049 0.99901634
v -0.13837345 0.30220774 0.97932363
v -0.14552699 0.19030638 1.01781058
v -0.81371921 0.05437052 0.61195451
v -0.71946096 0.08832059 0.70460701
v -0.54790998 0.12001130 0.84337670
v -0.65537190 0.01802788 0.79157615
v -0.63296437 0.18663336 0.76929802
v -0.62158978 0.11392651 0.77570170
v -0.52830976 0.18746659 0.82984751
v 0.02028685 0.24027155 0.93343055
v -0.10429349 0.19415198 0.92289346
v -0.09695950 0.31436071 0.89293313
v -0.14378196 0.05910782 1.04821599
v -0.15291634 0.07043117 0.98852170
v 0.01003764 0.02063818 1.06200314
v -0.35784566 0.26105070 0.86944664
v -0.26267412 0.16411230 0.95548081
v -0.39295086 0.11886460 0.94081134
v -0.41350508 0.14897190 0.91430318
v -0.44390771 0.02562078 0.95818233
v -0.29696473 0.12054946 0.98999012
v -0.95398813 0.15684545 0.38477638
v -0.90708107 0.16720742 0.53414005
v -0.91082108 0.04683392 0.15286766
v -1.00223362 0.11011913 0.25821647
v -0.86888164 0.36860773 0.40718976
v -0.91623944 0.22853617 0.30973011
v -0.92156416 0.34784549 0.26283652
v -0.88369012 0.04798943 -0.46972811
v -0.93512857 0.05418972 -0.33821824
v -0.87383544 0.27858153 -0.21101926
v -0.90541047 0.16102739 -0.26030949
v -0.80986112 0.27956438 -0.30102572
v -1.00121486 0.05589893 -0.17794621
v -1.01786661 0.02466487 -0.02717252
v -0.57030952 0.69362020 0.10657974
v -0.66838402 0.63969237 0.02027185
v -0.58242202 0.69606435 -0.04173481
v -0.84889126 0.44407484 0.15429628
v -0.74883372 0.55360240 0.10317342
v -0.73132408 0.52910662 0.24803798
v -0.73333585 0.52703094 -0.18991393
v -0.76485777 0.53876197 -0.04756131
v -0.81385773 0.42874649 -0.11922359
v -0.97503358 0.18968427 0.03596270
v -0.91249913 0.32331207 -0.05337241
v -0.92396873 0.34744358 0.07848189
v -0.74306613 0.09918869 -0.72620511
v -0.80039448 0.01875315 -0.62042749
v -0.52482152 0.26736939 -0.85260761
v -0.64476252 0.19089319 -0.81270987
v -0.60673738 0.07782413 -0.73741424
v -0.63174021 0.03321332 -0.82183021
v -0.52042717 0.01069109 -0.85596806
v 0.02753028 0.42360044 -0.88218302
v -0.10121357 0.40248224 -0.90252423
v -0.11057494 0.16740917 -0.99349564
v -0.10507773 0.26750010 -0.94506001
v 0.01788501 0.17999773 -0.96819705
v -0.24377286 0.35198125 -0.90521491
v -0.35943979 0.31183025 -0.89321887
v -0.16404276 0.39973101 -0.87761390
v -0.16618538 0.28422770 -0.93388665
v -0.01090034 0.35387239 -0.94737756
v -0.38084871 0.13680787 -0.86359155
v -0.29237351 0.20939946 -0.91962892
v -0.38965380 0.27901152 -0.81162918
v 0.02512394 0.16336524 -1.05995023
v -0.13421665 0.18314540 -1.02103066
v -0.09602918 0.05961218 -1.03522074
v -0.41150662 0.21048470 -0.96163499
v -0.26745722 0.12203913 -1.00835299
v -0.41505831 0.03910753 -0.96219724
v 0.22083463 0.60887825 -0.78972954
v 0.15575726 0.52133697 -0.84713435
v 0.36094940 0.75969160 -0.60169280
v 0.28746656 0.68628997 -0.69475806
v 0.39797518 0.40796033 -0.80670941
v 0.35457748 0.55437350 -0.76497996
v 0.47227943 0.49603507 -0.73623890
v 0.58760548 0.88876063 -0.08456524
v 0.54886532 0.87922168 -0.21243620
v 0.68571138 0.65836746 -0.35250503
v 0.62656766 0.77338415 -0.28077909
v 0.72260320 0.69060010 -0.22915670
v 0.50303251 0.85529178 -0.35028329
v 0.44351825 0.82521892 -0.46628535
v 0.78543359 0.12476856 -0.61686939
v 0.78743941 0.25248900 -0.54598057
v 0.85392982 0.19095616 -0.45859015
v 0.59780139 0.40047413 -0.68693686
v 0.69948143 0.32529438 -0.62569088
v 0.61392176 0.27529332 -0.74721533
v 0.81560200 0.46193850 -0.35555431
v 0.75657386 0.38658214 -0.49078321
v 0.73793507 0.52174306 -0.44089735
v 0.50264478 0.70317709 -0.55172116
v 0.62938362 0.61162430 -0.50332063
v 0.55814600 0.54484224 -0.61865038
v 0.65378278 0.50593543 0.09999715
v 0.64128810 0.48021036 0.20484209
v 0.52618062 0.60133636 0.14804903
v 0.71280646 0.27659023 0.33623838
v 0.70999050 0.38978672 0.29123241
v 0.77658314 0.29893842 0.26134264
v 0.48361984 0.53552037 0.35657668
v 0.59281999 0.46067560 0.31108102
v 0.54545575 0.47285128 0.45452365
v 0.82337880 0.10714918 0.64963669
v 0.77708417 0.16445687 0.53790855
v 0.88451535 0.04962802 0.49661192
v 0.64053208 0.18243279 0.70258194
v 0.71169770 0.11939543 0.63603270
v 0.61312509 0.08551528 0.78506774
v 0.88764274 0.09367854 0.32721189
v 0.81881386 0.04812152 0.47859350
v 0.78600281 0.14616613 0.40983412
v 0.13486868 0.39230430 0.76356530
v 0.23948957 0.34697586 0.79428804
v 0.15854654 0.30754715 0.87387872
v 0.44734105 0.45401806 0.58460921
v 0.33753490 0.43602404 0.67453152
v 0.31396320 0.52612334 0.61415696
v 0.42940626 0.20334192 0.85320616
v 0.36118782 0.27366126 0.78099084
v 0.51192236 0.26381540 0.74564332
v 0.67627758 0.25422165 0.47036898
v 0.60886234 0.27114937 0.63111341
v 0.57887208 0.36722365 0.53833425
v 0.43773955 0.67207557 0.13458402
v 0.44231230 0.52936047 -0.03004910
v 0.35197255 0.61215395 0.38971040
v 0.37699571 0.63124150 0.24630465
v 0.19495183 0.53740025 0.01707530
v 0.32077637 0.69806767 0.10614932
v 0.15131013 0.61106682 0.14712529
v -0.02820697 0.39959660 0.77637845
v 0.07132408 0.48655891 0.70531857
v -0.04568650 0.64019811 0.53779572
v 0.00850645 0.57608759 0.62335503
v -0.16513726 0.59741259 0.61734974
v 0.16568556 0.56114852 0.61096036
v 0.25512084 0.58540779 0.52027500
v -0.35009888 0.63650537 0.08189679
v -0.26980600 0.75856870 0.17440711
v -0.42355895 0.76521897 0.16753168
v -0.00353565 0.65781975 0.15896286
v -0.13108344 0.76870584 0.16616708
v -0.11005888 0.58290112 0.08730800
v -0.28871256 0.71417254 0.43262812
v -0.23593320 0.72034621 0.30723056
v -0.14073363 0.71495920 0.42198578
v 0.18311970 0.67901176 0.38277933
v 0.02730344 0.69822425 0.42245972
v 0.09146146 0.58418536 0.28532887
v 0.36355388 0.68544579 -0.09402808
v 0.53865272 0.66354960 -0.09124082
v 0.11541261 0.54098833 -0.08264153
v 0.26001358 0.57300615 -0.12137568
v 0.36142075 0.65769827 -0.33473659
v 0.28714451 0.73248738 -0.21469495
v 0.20194906 0.70071524 -0.34982339
v -0.45760322 0.75801075 -0.07880707
v -0.31311458 0.67585182 -0.06667782
v -0.26870191 0.50274217 -0.33885667
v -0.30431885 0.58990794 -0.20056941
v -0.39284208 0.57282901 -0.34486836
v -0.20024532 0.52726591 -0.06578051
v -0.06697058 0.58389699 -0.04838074
v 0.06094702 0.51266271 -0.80739248
v -0.01715226 0.56477624 -0.70760566
v -0.10255898 0.52120459 -0.79964054
v 0.14935705 0.68151921 -0.51120025
v 0.07462309 0.60857022 -0.59957373
v 0.24373402 0.60616100 -0.56761068
v -0.27565703 0.48519382 -0.58964634
v -0.11085744 0.57723767 -0.61518675
v -0.15844414 0.47649068 -0.48379141
v 0.03718484 0.60779876 -0.23219526
v -0.08925786 0.56415677 -0.37209693
v 0.07877593 0.68592489 -0.36571893
v 0.59484220 0.57479060 -0.16552910
v 0.65331525 0.56159753 -0.02501812
v 0.43665087 0.61448413 -0.43344510
v 0.51622820 0.60443008 -0.29198509
v 0.79205978 0.44830447 -0.23104125
v 0.67645848 0.53626549 -0.26072496
v 0.72611046 0.50315177 -0.36967480
v 0.13272773 0.41515541 -0.89789790
v 0.20441216 0.45090601 -0.80572993
v 0.45729244 0.36796579 -0.77134693
v 0.33779088 0.38203219 -0.79696149
v 0.38892084 0.27213302 -0.87414932
v 0.29535031 0.51298964 -0.70450598
v 0.36841878 0.59527540 -0.61080486
v 0.87397915 0.12470704 -0.54149914
v 0.79328173 0.17149305 -0.59905154
v 0.81280631 0.04141656 -0.63855565
v 0.77148855 0.41197863 -0.46733046
v 0.78139150 0.32624218 -0.53034985
v 0.86270446 0.31594089 -0.37522337
v 0.62292391 0.17212483 -0.79677969
v 0.71749640 0.22088981 -0.66901714
v 0.61081427 0.27806702 -0.74120939
v 0.51340300 0.55168140 -0.55570722
v 0.53206974 0.45526609 -0.69586325
v 0.64560062 0.50122136 -0.54313242
v 0.76294225 0.44124749 0.02325212
v 0.86572725 0.34748742 -0.14943077
v 0.80974984 0.42717105 -0.07314666
v 0.80630696 0.33823314 0.08822899
v 0.86806196 0.24267273 0.15583009
v 0.97249621 0.14601418 -0.42125297
v 0.97774595 0.09275457 -0.41225621
v 1.04054070 0.01662070 -0.09513643
v 1.01161253 0.04266893 -0.24840084
v 1.00967896 0.12099133 -0.13767706
v 0.95182043 0.16297308 -0.33712119
v 0.92515844 0.24553712 -0.25657374
v 0.94852877 0.02266838 0.36286107
v 0.94829690 0.18079159 0.41932783
v 0.91459316 0.12143435 0.22450270
v 0.95674783 0.00071646 0.27510986
v 1.00312543 0.15769938 0.14621246
v 1.02728510 0.07507178 0.21553095
v 1.05385149 0.03315696 0.06109019
v 0.95351273 0.21945837 -0.09628003
v 1.00092995 0.13722780 -0.03371458
v 0.96334380 0.17606567 0.07548945
v 0.17232525 0.18884577 0.97001123
v 0.41756275 0.13618760 0.90301329
v 0.28077394 0.13576095 0.93712044
v 0.16851552 0.08029012 1.02735853
v 0.15362264 0.09830277 1.05662167
v 0.74375850 0.20969348 0.72115773
v 0.52072859 0.31688681 0.87179720
v 0.63417339 0.26499060 0.79602963
v 0.62936115 0.10034602 0.78634930
v 0.53806686 0.01800773 0.87078834
v 0.08329207 0.46997330 0.90743285
v 0.12944400 0.21840186 0.99952507
v 0.11161053 0.34887880 0.96641123
v 0.22972788 0.43694738 0.91675746
v 0.36336577 0.37407565 0.90945494
v 0.41775879 0.09617998 0.97000813
v 0.40435860 0.25590405 0.95162910
v 0.27289480 0.17419870 1.00870597
v -0.50356632 0.69388753 0.24676473
v -0.39918527 0.63180292 0.49735922
v -0.45654380 0.69764739 0.39994296
v -0.60525095 0.60992879 0.30253857
v -0.68425339 0.55927211 0.36066127
v -0.16094552 0.41152743 0.82135600
v -0.46511716 0.33113214 0.77160436
v -0.32276896 0.36986312 0.78934562
v -0.23277484 0.47626331 0.71550018
v -0.30442670 0.55841953 0.63226682
v -0.83169115 0.20179977 0.63986629
v -0.77450258 0.45491168 0.48643357
v -0.78712809 0.33475658 0.55015367
v -0.72804862 0.25258178 0.68917066
v -0.59498948 0.30946165 0.75841880
v -0.45462227 0.53482795 0.61060840
v -0.52814770 0.42933923 0.67614496
v -0.62209970 0.51911932 0.53002131
v -0.22458662 0.48074761 -0.78427196
v -0.40313607 0.58480304 -0.57590950
v -0.32279444 0.52980453 -0.68079549
v -0.37550551 0.42245653 -0.79526985
v -0.48772451 0.33186144 -0.73379105
v -0.53418922 0.68979740 -0.14779285
v -0.70600396 0.48749626 -0.31013152
v -0.62105793 0.61863852 -0.25088146
v -0.52286500 0.68201357 -0.31310415
v -0.47876903 0.64051098 -0.43824100
v -0.78476757 0.08468567 -0.54745686
v -0.60678142 0.21769948 -0.66974884
v -0.71657938 0.16146699 -0.61186254
v -0.79275560 0.21491686 -0.46251670
v -0.75217366 0.34460482 -0.39838240
v -0.54322898 0.51518458 -0.53812343
v -0.64229321 0.43338087 -0.45991206
v -0.54913467 0.37330583 -0.61667478
v 0.71053112 0.06682155 -0.72032738
v 0.53370845 0.06933738 -0.84932256
v 0.63384140 0.01846487 -0.80157226
v 0.63639379 0.16167520 -0.80067950
v 0.52473360 0.21714555 -0.83807439
v 0.14337772 0.31134635 -0.97359741
v 0.15055843 0.06623290 -1.04374778
v 0.13562712 0.20356749 -1.03537023
v 0.28679797 0.21547049 -0.95030445
v 0.39738423 0.12590583 -0.94409639
v 0.14344610 0.38092279 -0.86428285
v 0.39396599 0.30694193 -0.87095481
v 0.26001087 0.32935610 -0.86134768
v 0.14172833 0.27110144 -0.93312329
v 0.13662247 0.15197907 -0.98534638
v 0.41622710 0.02160822 -0.96528566
v 0.30407438 0.15505023 -0.99875182
v 0.42364499 0.17206538 -0.92694688
v 0.92690462 0.31211638 0.37810573
v 0.97690964 0.26005927 0.09588934
v 0.96867234 0.29922125 0.24091375
v 0.89386368 0.43731272 0.31126770
v 0.85151446 0.52768731 0.23116316
v 0.94055074 0.24647552 -0.35754037
v 0.86101460 0.47579506 -0.22319451
v 0.88751930 0.36283103 -0.30219010
v 0.96435815 0.25057352 -0.21436691
v 0.99291253 0.25855380 -0.07672300
v 0.67063564 0.81643897 -0.00779266
v 0.79339945 0.63716382 0.15425529
v 0.73283798 0.72556299 0.08109590
v 0.74967116 0.70528877 -0.06507943
v 0.80283362 0.61355555 -0.13735650
v 0.93431872 0.36990508 -0.00044903
v 0.86921662 0.50472558 -0.06811623
v 0.87814188 0.50794268 0.09477000
f 330 87 329
f 336 325 26
f 207 208 56
f 464 36 580
f 502 129 504
f 157 624 622
f 308 311 82
f 247 223 248
f 507 483 508
f 331 88 329
f 494 500 497
f 156 601 602
f 591 589 592
f 365 98 596
f 75 281 282
f 152 587 577
f 149 559 560
f 555 121 553
f 530 141 529
f 515 517 139
f 361 594 98
f 250 67 249
f 157 608 609
f 294 293 209
f 317 81 316
f 557 338 26
f 303 305 81
f 530 529 528
f 101 381 382
f 415 418 111
f 192 184 50
f 412 110 411
f 20 384 256
f 131 594 486
f 281 264 282
f 347 287 348
f 28 349 582
f 165 163 1
f 248 250 66
f 617 107 398
f 273 271 274
f 456 115 453
f 558 561 560
f 335 576 91
f 331 177 332
f 116 433 436
f 351 370 92
f 136 511 530
f 239 240 65
f 247 258 19
f 304 23 567
f 148 557 570
f 214 208 58
f 440 426 450
f 268 270 269
f 258 247 268
f 204 202 16
f 466 125 465
f 517 513 133
f 168 275 274
f 275 73 274
f 198 193 53
f 309 308 307
f 510 511 136
f 415 416 110
f 131 490 597
f 473 475 474
f 414 415 111
f 493 495 494
f 496 504 485
f 433 116 432
f 600 375 601
f 240 234 65
f 418 415 412
f 486 361 3
f 567 566 304
f 380 393 29
f 17 199 197
f 491 492 132
f 451 449 435
f 218 217 216
f 623 621 613
f 396 104 395
f 433 439 436
f 628 160 627
f 215 202 217
f 209 207 2
f 427 113 424
f 434 10 544
f 434 433 432
f 199 17 210
f 150 564 565
f 489 491 132
f 275 13 285
f 497 500 134
f 125 466 476
f 578 152 577
f 208 214 211
f 328 88 343
f 356 27 603
f 150 566 567
f 372 100 371
f 190 191 47
f 235 8 398
f 260 261 72
f 422 403 414
f 422 414 111
f 453 454 123
f 349 583 582
f 521 520 519
f 425 453 115
f 616 622 158
f 483 130 508
f 151 586 572
f 212 17 232
f 400 397 402
f 377 396 99
f 41 522 511
f 510 508 505
f 549 547 42
f 475 473 36
f 510 137 509
f 222 221 197
f 430 115 429
f 220 194 1
f 305 54 204
f 621 29 613
f 192 171 184
f 460 335 5
f 88 331 332
f 74 277 279
f 300 301 80
f 390 389 388
f 165 45 164
f 146 549 551
f 291 278 75
f 448 120 445
f 147 543 544
f 607 610 609
f 603 602 356
f 139 529 514
f 333 553 443
f 92 368 347
f 261 260 259
f 300 6 200
f 46 177 331
f 284 283 174
f 301 300 200
f 471 468 474
f 54 305 301
f 302 304 303
f 569 150 567
f 150 569 570
f 294 209 2
f 628 629 160
f 548 543 147
f 147 625 627
f 63 233 234
f 426 427 114
f 41 509 532
f 198 52 196
f 614 105 612
f 147 627 547
f 81 305 306
f 549 548 547
f 54 301 200
f 342 88 332
f 264 281 70
f 193 194 53
f 455 429 456
f 187 321 14
f 479 130 484
f 147 544 625
f 458 456 453
f 304 80 303
f 314 84 313
f 488 503 501
f 321 332 14
f 423 425 424
f 305 204 306
f 341 339 25
f 514 40 516
f 625 628 627
f 340 339 341
f 105 614 391
f 243 228 62
f 318 316 78
f 75 278 279
f 357 355 353
f 238 257 63
f 466 455 476
f 425 423 4
f 448 449 120
f 408 638 108
f 292 275 285
f 22 278 289
f 515 513 517
f 501 503 134
f 622 623 158
f 134 503 504
f 195 216 206
f 163 271 246
f 619 617 620
f 62 228 229
f 163 165 164
f 453 425 454
f 489 132 488
f 82 628 625
f 58 208 209
f 525 608 40
f 626 547 627
f 518 517 498
f 489 487 491
f 557 26 564
f 325 336 344
f 541 145 539
f 40 616 516
f 338 556 89
f 250 248 245
f 139 514 515
f 98 594 596
f 246 220 1
f 112 413 630
f 9 536 413
f 156 600 601
f 332 177 14
f 321 342 332
f 156 606 600
f 584 330 585
f 302 303 81
f 584 87 330
f 330 25 585
f 400 239 65
f 439 440 117
f 95 358 368
f 597 594 131
f 594 361 486
f 246 67 245
f 561 562 149
f 28 364 362
f 55 216 217
f 427 430 114
f 267 20 254
f 556 555 553
f 84 309 558
f 311 310 312
f 609 525 142
f 256 68 255
f 124 460 461
f 82 311 312
f 307 308 82
f 589 135 495
f 527 40 514
f 112 418 412
f 20 256 254
f 258 238 19
f 267 254 269
f 273 272 249
f 392 391 393
f 137 533 509
f 122 455 456
f 9 413 411
f 130 480 505
f 333 443 5
f 527 525 40
f 589 495 385
f 39 496 485
f 223 225 224
f 414 416 415
f 219 222 53
f 145 538 539
f 413 412 411
f 469 468 467
f 183 181 6
f 191 192 50
f 429 35 431
f 292 285 76
f 413 112 412
f 415 110 412
f 43 164 167
f 467 468 126
f 617 101 620
f 450 451 117
f 438 546 545
f 619 620 159
f 17 212 210
f 124 579 576
f 584 153 583
f 460 124 576
f 3 469 467
f 311 308 314
f 6 320 183
f 389 104 388
f 251 250 249
f 194 165 1
f 291 289 278
f 287 77 348
f 238 258 257
f 139 517 518
f 238 236 19
f 223 247 19
f 382 380 29
f 39 518 498
f 361 359 3
f 69 255 257
f 139 518 528
f 33 545 535
f 387 385 7
f 69 268 269
f 477 462 125
f 454 479 123
f 121 555 447
f 451 435 117
f 454 425 4
f 233 252 8
f 124 463 464
f 69 258 268
f 168 167 166
f 583 153 582
f 384 394 102
f 138 512 513
f 57 210 211
f 254 256 255
f 607 609 142
f 324 319 86
f 289 291 76
f 291 292 76
f 384 102 383
f 422 421 420
f 221 17 197
f 383 102 381
f 376 377 99
f 99 373 374
f 386 105 392
f 438 33 440
f 90 341 343
f 281 75 279
f 574 571 96
f 628 82 312
f 221 222 59
f 127 471 474
f 595 605 603
f 551 538 145
f 334 91 340
f 322 324 85
f 305 303 301
f 18 239 399
f 306 204 16
f 199 198 197
f 166 190 180
f 303 80 301
f 267 266 265
f 626 42 547
f 16 215 213
f 349 351 350
f 295 16 213
f 68 379 252
f 250 251 66
f 627 160 626
f 383 68 256
f 343 88 342
f 507 508 136
f 202 215 16
f 197 198 53
f 254 69 269
f 603 605 156
f 418 419 111
f 384 383 256
f 455 122 476
f 203 204 54
f 556 557 148
f 255 68 253
f 313 84 560
f 25 328 341
f 254 255 69
f 603 156 602
f 581 584 583
f 630 632 112
f 163 246 1
f 246 245 220
f 432 116 558
f 499 591 590
f 320 563 86
f 345 93 350
f 306 16 295
f 346 93 345
f 562 568 149
f 604 605 155
f 154 592 593
f 545 552 535
f 511 522 530
f 574 573 571
f 566 150 565
f 361 98 360
f 67 271 273
f 234 235 65
f 208 211 56
f 574 151 573
f 251 270 66
f 398 8 378
f 213 215 214
f 438 440 439
f 315 314 313
f 263 71 262
f 20 373 384
f 496 134 504
f 329 88 328
f 81 306 316
f 555 556 148
f 592 589 103
f 617 619 107
f 227 207 56
f 571 359 96
f 446 466 465
f 206 216 55
f 359 571 469
f 568 148 570
f 34 437 435
f 28 351 349
f 21 272 282
f 113 423 424
f 490 489 488
f 379 68 383
f 210 212 211
f 80 563 300
f 351 92 350
f 326 346 12
f 83 317 318
f 555 148 554
f 212 231 56
f 218 57 217
f 271 67 246
f 195 196 52
f 270 268 66
f 390 592 103
f 148 568 554
f 495 493 7
f 592 390 593
f 357 95 355
f 574 575 151
f 452 120 451
f 154 591 592
f 587 585 577
f 395 394 396
f 93 349 350
f 610 416 611
f 166 44 190
f 315 23 302
f 315 302 317
f 268 247 66
f 606 154 593
f 396 394 99
f 211 212 56
f 370 369 368
f 235 397 65
f 280 278 22
f 83 315 317
f 575 588 151
f 74 279 280
f 385 495 7
f 63 257 253
f 397 235 398
f 214 58 213
f 220 219 194
f 546 146 545
f 236 225 19
f 599 94 602
f 235 233 8
f 102 394 395
f 611 416 32
f 225 223 19
f 139 528 529
f 231 62 229
f 419 406 421
f 451 450 452
f 49 182 185
f 402 397 107
f 52 199 218
f 416 610 110
f 225 236 244
f 107 397 398
f 68 252 253
f 322 85 321
f 182 181 183
f 118 438 439
f 546 438 118
f 348 77 345
f 543 546 118
f 231 212 232
f 610 611 157
f 33 438 545
f 385 386 103
f 479 480 130
f 169 195 15
f 93 583 349
f 15 195 206
f 190 44 192
f 247 248 66
f 146 552 545
f 248 60 245
f 570 557 564
f 274 271 43
f 63 253 233
f 272 21 249
f 507 528 518
f 67 273 249
f 487 467 126
f 196 195 169
f 624 159 623
f 134 496 497
f 132 503 488
f 104 393 395
f 556 553 89
f 355 356 94
f 258 69 257
f 229 61 227
f 56 231 227
f 460 576 335
f 463 124 461
f 394 373 99
f 29 393 391
f 67 250 245
f 193 198 196
f 462 36 464
f 144 633 630
f 141 526 527
f 517 133 498
f 536 144 630
f 100 372 599
f 144 536 537
f 22 289 287
f 578 579 152
f 579 578 576
f 189 188 187
f 60 223 224
f 92 348 350
f 555 554 447
f 396 377 388
f 194 193 165
f 413 536 630
f 372 352 599
f 377 376 375
f 348 345 350
f 105 386 387
f 240 237 234
f 463 462 464
f 135 500 494
f 45 196 169
f 512 612 387
f 245 60 220
f 429 115 456
f 223 60 248
f 288 289 76
f 525 526 142
f 100 599 601
f 613 29 391
f 526 523 520
f 341 328 343
f 631 641 639
f 264 21 282
f 266 72 265
f 106 402 403
f 73 273 274
f 186 206 205
f 381 379 383
f 52 216 195
f 410 18 399
f 290 272 73
f 72 371 374
f 526 525 527
f 115 430 424
f 498 497 496
f 621 382 29
f 543 118 434
f 214 215 57
f 522 141 530
f 511 510 509
f 352 94 599
f 493 512 7
f 90 340 341
f 169 171 170
f 605 604 606
f 219 60 224
f 104 389 392
f 359 469 3
f 186 49 185
f 222 219 224
f 166 167 44
f 428 427 426
f 523 522 524
f 129 502 481
f 50 185 188
f 164 45 170
f 425 115 424
f 33 428 426
f 427 428 113
f 94 356 602
f 515 138 513
f 114 431 452
f 237 236 238
f 215 217 57
f 95 354 355
f 220 60 219
f 515 514 516
f 183 320 319
f 222 197 53
f 559 569 567
f 300 320 6
f 435 436 117
f 96 360 363
f 640 642 641
f 242 243 62
f 140 537 519
f 508 130 505
f 420 410 399
f 537 539 144
f 317 316 318
f 426 114 450
f 186 15 206
f 311 83 310
f 625 544 307
f 544 10 307
f 168 43 167
f 185 182 188
f 369 354 95
f 44 171 192
f 605 606 156
f 548 549 146
f 100 601 375
f 149 568 569
f 381 380 382
f 455 466 35
f 480 479 454
f 543 548 546
f 493 133 513
f 492 472 37
f 477 125 476
f 491 487 126
f 337 336 338
f 588 153 587
f 576 578 91
f 633 161 632
f 96 359 360
f 39 485 483
f 101 617 378
f 193 45 165
f 163 164 43
f 618 624 611
f 507 136 528
f 561 149 560
f 641 162 639
f 116 561 558
f 494 133 493
f 253 252 233
f 63 237 238
f 392 393 104
f 440 450 117
f 93 581 583
f 386 385 387
f 120 449 451
f 421 422 111
f 486 3 467
f 302 81 317
f 633 632 630
f 462 475 36
f 376 99 374
f 489 490 131
f 447 449 448
f 387 612 105
f 106 420 399
f 173 46 172
f 492 491 472
f 316 306 295
f 22 287 347
f 109 410 420
f 507 39 483
f 559 23 313
f 214 57 211
f 196 45 193
f 10 434 432
f 422 106 403
f 626 160 640
f 487 486 467
f 542 41 532
f 400 106 399
f 444 120 452
f 198 199 52
f 475 127 474
f 621 620 382
f 621 623 159
f 450 114 452
f 92 347 348
f 376 100 375
f 434 118 433
f 503 132 502
f 337 90 336
f 537 536 519
f 395 393 380
f 201 54 200
f 171 44 170
f 355 94 353
f 58 296 213
f 422 420 106
f 595 365 596
f 569 568 570
f 523 140 520
f 114 430 431
f 218 210 57
f 304 566 80
f 639 162 638
f 261 371 72
f 548 147 547
f 498 133 497
f 150 570 564
f 222 224 59
f 142 526 520
f 437 436 435
f 141 522 523
f 137 510 505
f 173 179 176
f 559 149 569
f 121 447 448
f 563 320 300
f 102 395 380
f 257 255 253
f 642 162 641
f 83 311 314
f 216 52 218
f 512 493 513
f 23 304 302
f 91 339 340
f 512 138 612
f 159 620 621
f 218 199 210
f 364 28 575
f 83 318 310
f 168 274 43
f 136 530 528
f 140 523 524
f 495 135 494
f 233 235 234
f 566 563 80
f 25 339 577
f 277 74 276
f 475 462 477
f 133 494 497
f 436 437 116
f 389 386 392
f 548 146 546
f 441 460 5
f 10 309 307
f 65 397 400
f 543 434 544
f 640 641 161
f 272 273 73
f 581 93 346
f 419 421 111
f 319 320 86
f 180 179 178
f 127 475 477
f 231 229 227
f 337 334 340
f 136 508 510
f 308 309 84
f 237 63 234
f 447 554 34
f 252 379 378
f 315 83 314
f 608 622 616
f 338 336 26
f 337 338 89
f 13 275 168
f 209 208 207
f 436 439 117
f 628 312 629
f 360 366 363
f 364 574 96
f 359 361 360
f 466 446 35
f 500 501 134
f 406 109 421
f 135 589 591
f 601 599 602
f 340 90 337
f 481 492 37
f 522 41 524
f 78 316 295
f 131 486 487
f 403 32 414
f 634 626 640
f 151 572 573
f 515 516 138
f 8 252 378
f 265 72 374
f 9 521 519
f 538 549 42
f 368 358 347
f 588 587 586
f 458 453 123
f 589 385 103
f 502 492 481
f 32 416 414
f 430 427 424
f 153 585 587
f 540 144 539
f 370 368 92
f 209 293 58
f 428 33 535
f 326 581 346
f 625 307 82
f 575 28 582
f 6 181 200
f 421 109 420
f 553 121 443
f 160 642 640
f 153 584 585
f 309 432 558
f 334 337 89
f 23 315 313
f 271 163 43
f 296 295 213
f 39 498 496
f 118 439 433
f 531 113 534
f 293 296 58
f 28 362 351
f 489 131 487
f 431 444 452
f 84 558 560
f 98 366 360
f 45 169 170
f 379 101 378
f 462 463 125
f 308 84 314
f 10 432 309
f 299 24 310
f 132 492 502
f 512 387 7
f 639 638 408
f 565 323 86
f 59 244 242
f 106 400 402
f 440 33 426
f 566 565 563
f 617 398 378
f 224 225 59
f 410 109 409
f 239 400 399
f 194 219 53
f 358 22 347
f 610 157 609
f 27 595 603
f 479 484 482
f 142 520 521
f 585 25 577
f 339 578 577
f 408 407 406
f 407 109 406
f 31 408 406
f 407 408 108
f 31 639 408
f 419 31 406
f 608 616 40
f 430 429 431
f 455 35 429
f 35 444 431
f 188 51 187
f 188 182 51
f 51 322 187
f 322 51 319
f 51 182 183
f 319 51 183
f 187 322 321
f 322 319 324
f 381 101 379
f 405 407 108
f 404 405 108
f 286 285 178
f 407 405 409
f 109 407 409
f 191 175 47
f 167 164 170
f 50 184 185
f 44 167 170
f 64 244 236
f 243 244 64
f 50 188 189
f 541 542 145
f 442 445 119
f 339 91 578
f 445 446 119
f 624 623 622
f 611 624 157
f 523 526 141
f 141 527 529
f 527 514 529
f 445 120 444
f 446 445 444
f 35 446 444
f 613 614 158
f 158 614 615
f 623 613 158
f 614 613 391
f 614 612 615
f 371 376 374
f 100 376 371
f 479 482 123
f 373 394 384
f 540 42 634
f 633 540 634
f 538 42 540
f 633 634 161
f 161 634 640
f 42 626 634
f 540 633 144
f 557 556 338
f 553 333 89
f 262 21 264
f 251 21 262
f 5 335 333
f 270 251 262
f 21 251 249
f 600 593 30
f 606 593 600
f 600 30 375
f 593 390 30
f 30 377 375
f 390 388 30
f 30 388 377
f 228 243 241
f 470 478 459
f 470 127 478
f 127 477 478
f 184 186 185
f 478 477 476
f 122 478 476
f 357 74 280
f 518 39 507
f 344 342 85
f 325 344 85
f 342 344 343
f 85 342 321
f 344 90 343
f 90 344 336
f 482 129 481
f 482 481 457
f 482 457 123
f 481 37 457
f 449 447 34
f 435 449 34
f 470 472 471
f 472 470 37
f 470 471 127
f 472 126 471
f 126 468 471
f 470 459 37
f 491 126 472
f 504 129 485
f 221 59 242
f 125 463 465
f 437 34 562
f 561 437 562
f 554 568 562
f 34 554 562
f 437 561 116
f 390 103 389
f 103 386 389
f 392 105 391
f 572 586 580
f 572 580 36
f 586 152 580
f 473 572 36
f 244 243 242
f 225 244 59
f 64 240 241
f 240 239 241
f 237 240 64
f 243 64 241
f 236 237 64
f 411 607 521
f 9 411 521
f 110 607 411
f 607 142 521
f 610 607 110
f 171 15 184
f 171 169 15
f 15 186 184
f 87 584 581
f 153 588 582
f 588 575 582
f 381 102 380
f 573 572 473
f 468 469 128
f 474 468 128
f 469 571 128
f 571 573 128
f 573 473 128
f 473 474 128
f 564 323 565
f 26 323 564
f 323 324 86
f 325 323 26
f 325 324 323
f 563 565 86
f 324 325 85
f 410 230 18
f 230 228 18
f 18 228 241
f 18 241 239
f 401 619 618
f 401 402 107
f 403 402 401
f 619 159 618
f 401 618 32
f 619 401 107
f 403 401 32
f 618 611 32
f 159 624 618
f 478 122 459
f 122 458 459
f 37 459 457
f 459 458 457
f 122 456 458
f 457 458 123
f 191 190 192
f 485 129 484
f 129 482 484
f 483 485 484
f 130 483 484
f 189 187 14
f 191 50 189
f 191 189 175
f 189 14 175
f 14 177 175
f 499 501 500
f 501 499 38
f 38 499 590
f 135 499 500
f 488 501 38
f 499 135 591
f 480 454 4
f 284 12 346
f 4 423 506
f 480 4 506
f 423 531 506
f 480 506 505
f 531 137 506
f 506 137 505
f 365 366 98
f 71 270 262
f 270 71 269
f 71 267 269
f 335 334 333
f 333 334 89
f 334 335 91
f 536 9 519
f 465 463 461
f 537 140 541
f 520 140 519
f 119 446 465
f 465 461 119
f 461 441 119
f 460 441 461
f 176 46 173
f 299 297 24
f 71 263 266
f 263 260 266
f 260 72 266
f 263 70 260
f 205 201 49
f 201 181 49
f 186 205 49
f 181 201 200
f 181 182 49
f 284 77 283
f 586 587 152
f 588 586 151
f 20 267 265
f 266 267 71
f 31 417 631
f 631 417 632
f 31 631 639
f 417 31 419
f 641 631 161
f 417 112 632
f 161 631 632
f 418 417 419
f 417 418 112
f 284 345 77
f 542 550 145
f 542 541 524
f 284 174 12
f 48 174 283
f 373 20 265
f 373 265 374
f 609 608 525
f 608 157 622
f 560 559 313
f 636 637 162
f 541 140 524
f 41 542 524
f 358 357 280
f 70 263 264
f 263 262 264
f 176 177 46
f 174 48 173
f 174 173 172
f 538 551 549
f 538 540 539
f 537 541 539
f 232 221 242
f 17 221 232
f 232 242 62
f 231 232 62
f 203 205 55
f 203 55 202
f 201 205 203
f 202 55 217
f 205 206 55
f 204 203 202
f 73 275 292
f 292 290 73
f 272 290 282
f 290 292 291
f 75 290 291
f 290 75 282
f 70 277 259
f 277 70 281
f 277 281 279
f 260 70 259
f 12 174 172
f 104 396 388
f 367 27 354
f 365 27 367
f 354 27 356
f 365 367 366
f 595 27 365
f 318 299 310
f 155 596 597
f 155 597 598
f 596 594 597
f 595 596 155
f 605 595 155
f 180 47 179
f 180 190 47
f 352 372 11
f 11 372 261
f 312 310 24
f 642 636 162
f 636 297 637
f 367 369 97
f 366 367 97
f 369 367 354
f 369 370 97
f 580 579 464
f 580 152 579
f 579 124 464
f 61 230 409
f 230 410 409
f 230 61 229
f 230 229 228
f 76 285 286
f 353 352 276
f 74 353 276
f 288 76 286
f 288 286 283
f 289 288 287
f 203 54 201
f 287 288 77
f 77 288 283
f 286 48 283
f 531 423 113
f 276 11 259
f 11 261 259
f 277 276 259
f 616 158 615
f 516 616 615
f 138 516 615
f 138 615 612
f 509 533 532
f 503 502 504
f 635 79 294
f 635 294 404
f 635 637 79
f 637 635 638
f 638 635 108
f 635 404 108
f 226 61 405
f 61 226 227
f 405 61 409
f 227 226 207
f 48 178 179
f 48 286 178
f 173 48 179
f 534 143 533
f 534 535 143
f 531 534 533
f 533 143 532
f 137 531 533
f 261 372 371
f 13 180 178
f 285 13 178
f 180 13 166
f 13 168 166
f 346 345 284
f 331 327 46
f 46 327 172
f 172 327 326
f 382 620 101
f 442 121 448
f 443 121 442
f 2 226 404
f 294 2 404
f 404 226 405
f 207 226 2
f 550 551 145
f 552 146 551
f 143 550 532
f 552 550 143
f 330 329 328
f 24 636 629
f 94 352 353
f 352 11 276
f 113 428 534
f 428 535 534
f 509 41 511
f 535 552 143
f 550 552 551
f 550 542 532
f 369 95 368
f 326 327 87
f 87 327 329
f 327 331 329
f 581 326 87
f 293 79 298
f 79 297 298
f 296 298 78
f 79 293 294
f 296 293 298
f 598 490 38
f 358 280 22
f 280 279 278
f 357 358 95
f 74 357 353
f 330 328 25
f 567 23 559
f 590 598 38
f 590 604 598
f 598 604 155
f 604 590 154
f 590 591 154
f 604 154 606
f 297 299 298
f 299 318 78
f 298 299 78
f 355 354 356
f 629 636 642
f 312 24 629
f 629 642 160
f 370 362 97
f 362 363 97
f 363 366 97
f 364 363 362
f 362 370 351
f 96 363 364
f 297 636 24
f 162 637 638
f 637 297 79
f 490 488 38
f 598 597 490
f 441 442 119
f 443 442 441
f 443 441 5
f 442 448 445
f 296 78 295
f 326 12 172
f 575 574 364
f 47 175 176
f 175 177 176
f 47 176 179
