# FEM surface export ¡ª frame 251
# Vertices: 642  Faces: 1280
v -0.52667868 1.55227494 0.00000053
v 0.52650207 1.55171466 -0.00000207
v -0.58853781 0.00000000 -0.00028119
v 0.57656008 0.00000000 -0.00390789
v 0.00094082 0.20324871 0.89228481
v -0.00062317 1.23150206 0.85369909
v -0.00070674 0.20526439 -0.89475024
v 0.00006359 1.23061252 -0.85317278
v 0.86412257 0.71576262 -0.53406686
v 0.86295801 0.71408278 0.53309429
v -0.86322469 0.71706921 -0.53436154
v -0.86338007 0.71667790 0.53375870
v -0.81195158 1.20488870 0.31025758
v -0.50322378 1.01797223 0.81343478
v -0.30962235 1.51059532 0.50065058
v 0.30965805 1.51059616 0.50085104
v 0.00019536 1.70036030 -0.00004510
v 0.30962881 1.51055241 -0.50082624
v -0.30935708 1.51098073 -0.50100094
v -0.50271749 1.01746404 -0.81422961
v -0.81195271 1.20594883 -0.31019121
v -1.01349747 0.71439427 -0.00080073
v 0.50380337 1.01846337 0.81459343
v 0.81171715 1.20456314 0.30988896
v -0.51586497 0.41684175 0.83850741
v -0.00043050 0.71508378 1.01555145
v -0.84903347 0.23033154 -0.32362387
v -0.84890473 0.23292786 0.32553270
v -0.00088279 0.71651393 -1.01534474
v -0.51567376 0.41280007 -0.83421594
v 0.81184685 1.20465994 -0.30987939
v 0.50237018 1.01662064 -0.81285238
v 0.85230744 0.22909983 0.32444525
v 0.51726449 0.41557762 0.83725238
v 0.33638197 0.00000000 0.54695356
v -0.34177852 0.00000000 0.54325348
v -0.00434635 0.00000000 0.00111706
v -0.33571920 0.00000000 -0.54529911
v 0.33572155 0.00000000 -0.54782778
v 0.51619864 0.41368365 -0.83677512
v 0.85234326 0.23110923 -0.32551691
v 1.01635408 0.71495235 -0.00003221
v -0.69547951 1.40472925 0.16108380
v -0.58925378 1.39113581 0.42637974
v -0.43471161 1.56404042 0.26029375
v -0.70804691 0.87282526 0.69964314
v -0.69085711 1.13151169 0.59013593
v -0.86836427 0.96936649 0.43664581
v -0.16101180 1.39674020 0.70322329
v -0.42662844 1.29187822 0.68982172
v -0.26136392 1.14093494 0.86625063
v -0.16253224 1.65180779 0.26322481
v -0.27346820 1.66268063 0.00005982
v 0.16092069 1.39634562 0.70345831
v 0.00010153 1.55179155 0.52640510
v 0.27371255 1.66238260 -0.00004039
v 0.16292010 1.65188038 0.26328224
v 0.43471265 1.56377065 0.26035008
v -0.16244607 1.65175343 -0.26328236
v -0.43455002 1.56436574 -0.26035550
v 0.43468493 1.56372440 -0.26026204
v 0.16274811 1.65161979 -0.26326308
v -0.16067767 1.39624941 -0.70343471
v 0.00031743 1.55178857 -0.52655882
v 0.16118813 1.39620721 -0.70353913
v -0.58895886 1.39127886 -0.42628953
v -0.69537568 1.40489233 -0.16099438
v -0.26089993 1.13974798 -0.86590934
v -0.42608592 1.29175842 -0.69009143
v -0.86864483 0.97022873 -0.43713924
v -0.69056445 1.13217676 -0.59051800
v -0.70836997 0.87297624 -0.70073760
v -0.85388523 1.23100770 0.00021677
v -0.97603005 0.71595824 -0.27823213
v -0.95806181 0.97301716 -0.16352943
v -0.95751059 0.97184604 0.16378176
v -0.97543454 0.71484578 0.27696601
v 0.58924788 1.39055812 0.42620054
v 0.69500721 1.40436375 0.16087376
v 0.26113147 1.13973451 0.86656725
v 0.42658946 1.29169703 0.68979841
v 0.86824745 0.96814507 0.43657684
v 0.69170606 1.13126516 0.58963424
v 0.70872027 0.87141025 0.69882250
v -0.26561242 0.87451881 0.96029383
v -0.00052328 0.98270786 0.96876097
v -0.71896863 0.56085777 0.71058834
v -0.53336018 0.71703231 0.86331981
v 0.00087869 0.44701743 0.99109375
v -0.26804563 0.55726612 0.97446668
v -0.27023500 0.29264835 0.90105075
v -0.97806740 0.45920846 0.16758682
v -0.88753539 0.46325052 0.44694918
v -0.88640159 0.46244141 -0.44744024
v -0.97895592 0.45959491 -0.16921766
v -0.75027198 0.05218244 0.17630741
v -0.89441556 0.20715660 0.00042853
v -0.74431151 0.04800059 -0.16961168
v -0.53364545 0.71495110 -0.86420500
v -0.71725172 0.55833977 -0.70973110
v -0.00031945 0.98313099 -0.96825671
v -0.26537448 0.87421411 -0.96063131
v -0.27330792 0.29039037 -0.90034848
v -0.26900437 0.55578917 -0.97199392
v -0.00085175 0.44970927 -0.99055630
v 0.42632154 1.29071832 -0.68953198
v 0.26122844 1.13946497 -0.86570770
v 0.69480526 1.40395570 -0.16094521
v 0.58894008 1.38998818 -0.42572433
v 0.70835662 0.87206513 -0.69994766
v 0.69082707 1.13146138 -0.58998090
v 0.86919415 0.96915776 -0.43679070
v 0.74689806 0.04489910 0.17201851
v 0.63529617 0.05929675 0.45842972
v 0.47579497 0.00000000 0.28250647
v 0.71899742 0.55912101 0.71115053
v 0.71832842 0.30139017 0.61529392
v 0.88705271 0.46058235 0.44630957
v 0.17422903 0.05471398 0.74829620
v 0.45171547 0.14725043 0.73115307
v 0.27043825 0.29481331 0.90085268
v 0.17577562 0.00000000 0.28627700
v 0.29313585 0.00000000 -0.00485341
v -0.16983292 0.05489250 0.74993938
v -0.00063421 0.00000000 0.57708484
v -0.30492613 0.00000000 -0.00194633
v -0.17657584 0.00000000 0.28096816
v -0.48038313 0.00000000 0.28435218
v 0.17341408 0.00000000 -0.28756517
v 0.47162491 0.00000000 -0.28401628
v -0.47639397 0.00000000 -0.28964478
v -0.18319859 0.00000000 -0.28743339
v 0.17377071 0.05470732 -0.75416720
v 0.00344119 0.00000000 -0.57546335
v -0.17073330 0.05353671 -0.75434285
v 0.63277298 0.06034042 -0.45703337
v 0.74541801 0.04728797 -0.17358646
v 0.27083418 0.29138559 -0.89929348
v 0.45083818 0.15051581 -0.72986633
v 0.88877648 0.46151036 -0.44661397
v 0.71842033 0.30243853 -0.61494434
v 0.71908993 0.55909598 -0.71123683
v 0.89582193 0.20389199 -0.00139796
v 0.97771722 0.71557093 -0.27800947
v 0.97912878 0.45865747 -0.16755390
v 0.97828722 0.45727649 0.16668847
v 0.97483122 0.71379524 0.27683824
v 0.26839390 0.55789483 0.97383732
v 0.53406787 0.71679932 0.86342311
v 0.26506534 0.87445837 0.96063900
v -0.62997353 0.06515145 0.45793504
v -0.45156750 0.14653741 0.73213023
v -0.71691936 0.30485058 0.61530131
v -0.45235759 0.14402777 -0.73321575
v -0.63328224 0.06223293 -0.45760715
v -0.71642435 0.29833853 -0.61160839
v 0.53350151 0.71499568 -0.86294687
v 0.26784119 0.55909967 -0.97462279
v 0.26562777 0.87400168 -0.95996475
v 0.95744437 0.97160465 0.16380753
v 0.95734793 0.97172278 -0.16284646
v 0.85322827 1.23030555 0.00005390
v -0.61681312 1.48577046 0.08135677
v -0.57240045 1.49447906 0.21346010
v -0.48524582 1.56624162 0.13146724
v -0.70929748 1.30514455 0.37272039
v -0.64903522 1.40514827 0.29682326
v -0.76087707 1.31033123 0.23781356
v -0.37578335 1.54539454 0.38425726
v -0.51713514 1.48544180 0.34686828
v -0.45490459 1.46016538 0.46938479
v -0.79274881 0.79549533 0.62284046
v -0.79852039 0.92423213 0.57557738
v -0.87335771 0.84413993 0.48922703
v -0.60434884 1.07916379 0.71012270
v -0.70622849 1.00490963 0.65095282
v -0.61087179 0.94720697 0.76303840
v -0.84795868 1.09019029 0.37673852
v -0.78744209 1.05413997 0.51855469
v -0.76078218 1.17361736 0.45543340
v -0.08151905 1.31984389 0.78561354
v -0.21388444 1.27591836 0.79477662
v -0.13216439 1.19036651 0.86823577
v -0.37263942 1.40979278 0.60254717
v -0.29684713 1.35116184 0.70373321
v -0.23759964 1.46073973 0.60773593
v -0.38581756 1.08290577 0.84798098
v -0.34749910 1.22168803 0.78593999
v -0.47047511 1.16017735 0.76069123
v -0.64855492 1.26836157 0.51494837
v -0.56618667 1.21837223 0.64850801
v -0.51472789 1.34986019 0.56551480
v -0.35875791 1.62517893 0.13190705
v -0.40385672 1.61601651 0.00008530
v -0.23891148 1.59215581 0.38674685
v -0.30171627 1.61714387 0.26445153
v -0.13798113 1.69125414 -0.00003921
v -0.22025123 1.66696358 0.13294947
v -0.08216655 1.68836594 0.13317348
v 0.08113141 1.31951547 0.78573912
v -0.00007261 1.40564740 0.71242541
v 0.15676098 1.54116309 0.51985443
v 0.08133110 1.48197734 0.62102824
v 0.23755209 1.46040726 0.60787702
v -0.08122728 1.48203015 0.62107319
v -0.15663613 1.54161048 0.51995575
v 0.40407273 1.61567438 0.00003276
v 0.35893685 1.62483537 0.13185963
v 0.48522016 1.56596255 0.13137922
v 0.08260362 1.68799090 0.13323565
v 0.22067985 1.66699862 0.13302130
v 0.13832842 1.69107926 -0.00000051
v 0.37583971 1.54493737 0.38418019
v 0.30197144 1.61715436 0.26450318
v 0.23922519 1.59175146 0.38665888
v -0.08226683 1.61390769 0.40023652
v 0.08255096 1.61364293 0.39992458
v 0.00014258 1.66458607 0.26672786
v -0.35857078 1.62529659 -0.13182293
v -0.48516124 1.56642735 -0.13142341
v -0.08212122 1.68818724 -0.13329168
v -0.22024955 1.66719401 -0.13305564
v -0.37542409 1.54551673 -0.38430533
v -0.30151162 1.61730850 -0.26450098
v -0.23878185 1.59218681 -0.38680506
v 0.48526445 1.56595695 -0.13135755
v 0.35889316 1.62503695 -0.13183118
v 0.23916648 1.59200346 -0.38675517
v 0.30178878 1.61707819 -0.26446363
v 0.37571779 1.54518497 -0.38416004
v 0.22051421 1.66701102 -0.13302210
v 0.08246570 1.68817270 -0.13332623
v -0.08115587 1.31911099 -0.78567684
v 0.00018650 1.40521526 -0.71268505
v 0.08138588 1.31884325 -0.78556824
v -0.15635307 1.54155695 -0.52012455
v -0.08093291 1.48197055 -0.62129891
v -0.23718542 1.46063256 -0.60791904
v 0.23768792 1.46051276 -0.60793853
v 0.08156729 1.48195016 -0.62136519
v 0.15684526 1.54131424 -0.51998466
v 0.00013959 1.66441023 -0.26676250
v 0.08265199 1.61375582 -0.40009996
v -0.08215114 1.61388195 -0.40018529
v -0.57227641 1.49468279 -0.21343982
v -0.61687064 1.48591137 -0.08114701
v -0.45454177 1.46019316 -0.46941790
v -0.51704991 1.48582840 -0.34687760
v -0.76082802 1.31114602 -0.23776092
v -0.64890224 1.40527320 -0.29677317
v -0.70911819 1.30581462 -0.37291989
v -0.13161567 1.19024229 -0.86783111
v -0.21341257 1.27522373 -0.79487103
v -0.46994382 1.15990746 -0.76073581
v -0.34700218 1.22083962 -0.78586537
v -0.38530591 1.08225453 -0.84784883
v -0.29635862 1.35064113 -0.70414400
v -0.37216577 1.40983486 -0.60292786
v -0.87402976 0.84489590 -0.48983893
v -0.79906625 0.92502862 -0.57635880
v -0.79296476 0.79564428 -0.62340814
v -0.76053554 1.17474711 -0.45600730
v -0.78741872 1.05487704 -0.51914644
v -0.84803635 1.09156621 -0.37704042
v -0.61100179 0.94703907 -0.76483548
v -0.70658964 1.00539005 -0.65188164
v -0.60424572 1.07875347 -0.71100932
v -0.51425564 1.35011888 -0.56578916
v -0.56586868 1.21840751 -0.64908922
v -0.64821672 1.26875210 -0.51505458
v -0.70462972 1.41415977 0.00017917
v -0.84340155 1.22499514 -0.15708037
v -0.78247565 1.32408524 -0.08130157
v -0.78235757 1.32376504 0.08147712
v -0.84324223 1.22435081 0.15720867
v -0.92862290 0.71707201 -0.40998125
v -0.93363732 0.84483188 -0.36188814
v -0.99781859 0.84556901 -0.08300672
v -0.97504997 0.84532082 -0.22236413
v -1.00499845 0.71548933 -0.14049652
v -0.92234421 0.97441792 -0.30330953
v -0.89545143 1.09399867 -0.23982380
v -0.93360579 0.84410918 0.36164352
v -0.92885339 0.71612358 0.40983239
v -0.89532584 1.09300017 0.23988730
v -0.92246401 0.97312957 0.30325368
v -1.00497663 0.71473342 0.13954604
v -0.97599024 0.84417665 0.22211649
v -0.99772829 0.84500730 0.08284986
v -0.91790396 1.10732985 -0.08252975
v -0.97080934 0.97607982 0.00043462
v -0.91761327 1.10657716 0.08303773
v 0.57227451 1.49441051 0.21340676
v 0.61652559 1.48530936 0.08110685
v 0.45496967 1.45969820 0.46933201
v 0.51719636 1.48525381 0.34679276
v 0.76045513 1.30998409 0.23758872
v 0.64885068 1.40478134 0.29670918
v 0.70918143 1.30500615 0.37268743
v 0.13151351 1.19019842 0.86872327
v 0.21359390 1.27516806 0.79490191
v 0.47082245 1.16066957 0.76126254
v 0.34730360 1.22113883 0.78610921
v 0.38569292 1.08231091 0.84818190
v 0.29660189 1.35014498 0.70390272
v 0.37257206 1.40920746 0.60246783
v 0.87266982 0.84129667 0.48819813
v 0.79840922 0.92141086 0.57411432
v 0.79249203 0.79313397 0.62160295
v 0.76091361 1.17345119 0.45539197
v 0.78774357 1.05277443 0.51804793
v 0.84771842 1.08965909 0.37653971
v 0.61243594 0.94749296 0.76410645
v 0.70675677 1.00377154 0.64975584
v 0.60555106 1.07926917 0.71037298
v 0.51486313 1.34919226 0.56549805
v 0.56667495 1.21845603 0.64842838
v 0.64872795 1.26805210 0.51459485
v -0.13296218 1.06631589 0.92953235
v -0.00030692 1.11039281 0.91952890
v -0.38936675 0.94917661 0.89753389
v -0.26620761 1.01060295 0.92183024
v -0.00072588 0.85029835 1.00093663
v -0.13428426 0.93051100 0.97408766
v -0.13534583 0.79524046 0.99984127
v -0.79896903 0.63775122 0.62782532
v -0.72215128 0.71700221 0.71351743
v -0.53062254 0.56456053 0.86127537
v -0.63172096 0.63820791 0.79490405
v -0.62361676 0.48678830 0.78172296
v -0.62694341 0.79520911 0.78865623
v -0.52414525 0.86874336 0.84780228
v 0.00110385 0.31918693 0.95072794
v -0.13516979 0.36481133 0.95799357
v -0.13613404 0.24196087 0.90667957
v -0.13537616 0.63482392 1.00689542
v -0.13513462 0.49950117 0.99186218
v -0.00062998 0.58029509 1.01277387
v -0.39804491 0.35048077 0.87687105
v -0.27137768 0.42139146 0.94700080
v -0.39552325 0.48323995 0.91785872
v -0.40458506 0.79580796 0.92393512
v -0.40723747 0.63565350 0.93199825
v -0.27055109 0.71579307 0.97932482
v -0.94426292 0.58858842 0.36684197
v -0.88314003 0.58827466 0.49537337
v -1.00795507 0.58560300 0.08355037
v -0.98640227 0.58623374 0.22440551
v -0.87719184 0.34446043 0.39021319
v -0.94295603 0.46020329 0.31066760
v -0.92509216 0.34107989 0.24897495
v -0.88323635 0.58890301 -0.49591053
v -0.94382924 0.58777744 -0.36759752
v -0.92518187 0.33883873 -0.24822003
v -0.94172823 0.45778778 -0.31163576
v -0.87566316 0.34072378 -0.39049232
v -0.98705852 0.58587760 -0.22672151
v -1.00960612 0.58533192 -0.08577380
v -0.67219150 0.00110273 0.08881948
v -0.75740683 0.04031831 0.00265652
v -0.66675997 0.00027156 -0.08567006
v -0.88394886 0.21631913 0.16547601
v -0.83036005 0.11973616 0.08866940
v -0.80800891 0.13344544 0.25377485
v -0.80306494 0.13017802 -0.24969293
v -0.82874382 0.11806402 -0.08482274
v -0.88267010 0.21019033 -0.16428094
v -0.99314946 0.45652786 -0.00064662
v -0.94994432 0.32779822 -0.08649188
v -0.95181108 0.32884803 0.08497018
v -0.72136682 0.71576256 -0.71373051
v -0.79783189 0.63718688 -0.62772655
v -0.52410764 0.86755043 -0.84858012
v -0.62743509 0.79440022 -0.78968346
v -0.62289828 0.48310736 -0.77877402
v -0.63141936 0.63571227 -0.79559588
v -0.53071272 0.56155050 -0.85991102
v 0.00019562 1.11052847 -0.91880542
v -0.13228752 1.06635547 -0.92895150
v -0.13497314 0.79635793 -0.99977022
v -0.13401403 0.93115729 -0.97407216
v -0.00036829 0.85132998 -1.00081396
v -0.26587018 1.01003420 -0.92214566
v -0.38894233 0.94865519 -0.89774626
v -0.13890338 0.24334711 -0.90963078
v -0.13761067 0.36551595 -0.95721018
v -0.00076300 0.32244202 -0.95217675
v -0.39604959 0.48073733 -0.91488308
v -0.27288303 0.42026559 -0.94448709
v -0.39868310 0.34751821 -0.87601793
v -0.00125116 0.58149654 -1.01327598
v -0.13711186 0.49982312 -0.99035454
v -0.13639782 0.63538378 -1.00625420
v -0.40439785 0.79570210 -0.92488247
v -0.27078441 0.71531856 -0.97868043
v -0.40701562 0.63420302 -0.93055630
v 0.21377872 1.27526736 -0.79481041
v 0.13185434 1.18970120 -0.86797601
v 0.37269872 1.40930402 -0.60267609
v 0.29690492 1.35018432 -0.70393765
v 0.38534608 1.08135605 -0.84732163
v 0.34728360 1.22004521 -0.78538024
v 0.46993601 1.15899682 -0.76020563
v 0.61662668 1.48538923 -0.08121704
v 0.57223082 1.49411523 -0.21333385
v 0.70879918 1.30461586 -0.37229830
v 0.64866185 1.40401256 -0.29643542
v 0.76024890 1.30980933 -0.23745088
v 0.51708698 1.48484051 -0.34650636
v 0.45475915 1.45972729 -0.46925294
v 0.79341608 0.79514831 -0.62278622
v 0.79941934 0.92420763 -0.57595569
v 0.87453508 0.84405345 -0.49011451
v 0.60405034 1.07845795 -0.70997012
v 0.70601565 1.00393093 -0.65096480
v 0.61105895 0.94653100 -0.76405162
v 0.84797895 1.09050643 -0.37701222
v 0.78709286 1.05374324 -0.51850909
v 0.76040435 1.17399156 -0.45533347
v 0.51439440 1.34879196 -0.56518710
v 0.64809752 1.26807332 -0.51452863
v 0.56578040 1.21762466 -0.64828932
v 0.67074358 0.00044475 0.09238569
v 0.62456387 0.00000000 0.23289557
v 0.52781135 0.00000000 0.13736099
v 0.75218838 0.13818333 0.39390597
v 0.69753677 0.04685222 0.31743908
v 0.80473620 0.13041604 0.25090396
v 0.40949169 0.00000000 0.41939178
v 0.56688797 0.00552250 0.38112006
v 0.49584419 0.01369545 0.50936395
v 0.79829484 0.63524693 0.62749618
v 0.81413656 0.50592679 0.58609343
v 0.88353682 0.58614600 0.49504963
v 0.62596297 0.35422546 0.73559111
v 0.72433674 0.42802173 0.66838843
v 0.62344956 0.48519665 0.78108102
v 0.87551147 0.34196061 0.38870522
v 0.81015164 0.37655461 0.53415281
v 0.79494178 0.25823113 0.47678089
v 0.08828639 0.12188794 0.83022052
v 0.22600451 0.16206494 0.83662111
v 0.13827823 0.24360420 0.90430140
v 0.39926523 0.04596543 0.64762127
v 0.31691208 0.09534275 0.74826682
v 0.25707692 0.00966419 0.65567726
v 0.39862627 0.35222384 0.87776971
v 0.36482748 0.21630830 0.82499892
v 0.49001500 0.27460524 0.79234684
v 0.68328935 0.17006385 0.54364628
v 0.59405309 0.21756284 0.68135500
v 0.54843718 0.09678394 0.60562116
v 0.39098719 0.00000000 0.14134152
v 0.43907705 0.00000000 -0.00318164
v 0.25819674 0.00000000 0.42527583
v 0.32711646 0.00000000 0.28678942
v 0.14592116 0.00000000 0.00139283
v 0.23384522 0.00000000 0.14373593
v 0.08752584 0.00000000 0.14358869
v -0.08685165 0.12156304 0.83292317
v 0.00253304 0.05144411 0.76471257
v -0.17677480 0.00000000 0.56924146
v -0.08646780 0.00320849 0.66930360
v -0.25190896 0.01148985 0.65793478
v 0.08635705 0.00235095 0.67705017
v 0.16990292 0.00000000 0.57434833
v -0.44917747 0.00000000 -0.00679177
v -0.39917272 0.00000000 0.13972856
v -0.53836882 0.00000000 0.14190094
v -0.09464341 0.00000000 0.14105414
v -0.24704272 0.00000000 0.14204253
v -0.15618575 0.00000000 0.00373708
v -0.41908824 0.00000000 0.42360717
v -0.33422038 0.00000000 0.28911862
v -0.26788637 0.00000000 0.42288068
v 0.08850365 0.00000000 0.43894348
v -0.09379659 0.00000000 0.43732044
v 0.00069369 0.00000000 0.28862876
v 0.38733724 0.00000000 -0.14219011
v 0.52432954 0.00000000 -0.14785936
v 0.08570969 0.00000000 -0.14346144
v 0.23329441 0.00000000 -0.14629270
v 0.41117743 0.00000000 -0.41894230
v 0.32540283 0.00000000 -0.28341287
v 0.26346782 0.00000000 -0.41795480
v -0.53373146 0.00000000 -0.14666700
v -0.39597580 0.00000000 -0.15024914
v -0.26313525 0.00000000 -0.42160138
v -0.33502591 0.00000000 -0.29071537
v -0.40778074 0.00000000 -0.42298856
v -0.24495938 0.00000000 -0.14555104
v -0.09533864 0.00000000 -0.14462137
v 0.08673778 0.12371725 -0.83407253
v 0.00325598 0.04685954 -0.76714611
v -0.08656262 0.12311271 -0.83358318
v 0.17594042 0.00000000 -0.56426758
v 0.08842129 0.00038664 -0.67392677
v 0.25781786 0.00977908 -0.66142058
v -0.25488669 0.01514233 -0.66227812
v -0.08570726 0.00000000 -0.68130744
v -0.16945650 0.00000000 -0.56711781
v -0.00591291 0.00000000 -0.28883511
v -0.08967137 0.00000000 -0.43535021
v 0.08862887 0.00000000 -0.43351480
v 0.62651449 0.00025586 -0.23321570
v 0.67376488 0.00000000 -0.08776276
v 0.49496374 0.00833225 -0.50397891
v 0.56053180 0.00044640 -0.37398264
v 0.80635220 0.13443750 -0.25220799
v 0.69957101 0.04975978 -0.32046276
v 0.75122571 0.13873398 -0.39477491
v 0.13793944 0.24495329 -0.90906942
v 0.22423130 0.16312174 -0.83689964
v 0.48870072 0.27113149 -0.79289675
v 0.36225042 0.21394813 -0.82349163
v 0.39753523 0.34888449 -0.87587094
v 0.31729043 0.09665329 -0.74849665
v 0.39978680 0.04815368 -0.64428568
v 0.88423508 0.58747298 -0.49543306
v 0.81456298 0.50745851 -0.58769172
v 0.79970396 0.63666445 -0.62784064
v 0.79485893 0.26083136 -0.47777742
v 0.81217092 0.37865245 -0.53554791
v 0.87794220 0.34145996 -0.39058924
v 0.62446976 0.48414609 -0.78160769
v 0.72524732 0.42681992 -0.66927004
v 0.62303662 0.35312003 -0.73469907
v 0.54726195 0.09700336 -0.60075021
v 0.59325361 0.21709433 -0.68023241
v 0.68273062 0.17159992 -0.54367310
v 0.75659055 0.03872262 -0.00028128
v 0.88610691 0.21077910 -0.16506457
v 0.82919288 0.11679791 -0.08782420
v 0.83087015 0.11767592 0.08459863
v 0.88218135 0.20784721 0.16323584
v 0.92967957 0.71608847 -0.41013947
v 0.94514084 0.58703315 -0.36649930
v 1.01025021 0.58515960 -0.08443065
v 0.98853713 0.58624572 -0.22529961
v 1.00690317 0.71603793 -0.13991541
v 0.94445914 0.45770457 -0.31076312
v 0.92676377 0.33864707 -0.24827680
v 0.94372666 0.58557612 0.36589268
v 0.92770487 0.71365815 0.40832606
v 0.92349935 0.33829468 0.24588656
v 0.94263041 0.45685273 0.30948040
v 1.00465763 0.71461815 0.14053074
v 0.98559970 0.58426386 0.22407593
v 1.00867391 0.58518875 0.08394745
v 0.94987518 0.32637900 -0.08601066
v 0.99297482 0.45519444 0.00011303
v 0.94749624 0.32500228 0.08452053
v 0.13598095 0.36589783 0.95801276
v 0.39675793 0.48482352 0.91739565
v 0.27214044 0.42339584 0.94780809
v 0.13567363 0.50127536 0.99285889
v 0.13490960 0.63522756 1.00667012
v 0.72160381 0.71552402 0.71258175
v 0.52577072 0.86932862 0.84918356
v 0.62818229 0.79453069 0.78894126
v 0.63209242 0.63748860 0.79473823
v 0.53109169 0.56426722 0.86021513
v 0.13202821 1.06516230 0.92915416
v 0.13421269 0.79552662 1.00041735
v 0.13331798 0.93026495 0.97464663
v 0.26561657 1.00976956 0.92268407
v 0.38924968 0.94880348 0.89774466
v 0.40659225 0.63615173 0.92978781
v 0.40496001 0.79675770 0.92527860
v 0.27003393 0.71586752 0.97903860
v -0.62744057 0.00087151 0.23484299
v -0.49573967 0.01107796 0.50850755
v -0.56522006 0.00068194 0.37708235
v -0.69945651 0.05006365 0.32237554
v -0.74893498 0.13674481 0.39634407
v -0.22738677 0.16429307 0.84098637
v -0.49002784 0.27544340 0.79415417
v -0.36437124 0.21559504 0.82497805
v -0.31816199 0.09367961 0.75185227
v -0.40250778 0.04647046 0.64962149
v -0.81331998 0.50952262 0.58726442
v -0.79311049 0.26236001 0.47617894
v -0.81103772 0.38064459 0.53579503
v -0.72536451 0.42970249 0.67042506
v -0.62392217 0.35644823 0.73793763
v -0.54991657 0.09983980 0.60425663
v -0.59297299 0.21944202 0.68248981
v -0.68141931 0.17279224 0.54402894
v -0.22626019 0.16304721 -0.83711118
v -0.40217352 0.04482558 -0.64839447
v -0.31767660 0.08751567 -0.75191581
v -0.36415082 0.21186669 -0.82265967
v -0.48942015 0.27155301 -0.79117566
v -0.62116474 0.00009318 -0.22950941
v -0.75134319 0.13541356 -0.39412045
v -0.69673711 0.04866075 -0.31760171
v -0.55915397 0.00040641 -0.37595540
v -0.49268109 0.00737541 -0.50936562
v -0.81242609 0.50836724 -0.58719176
v -0.62314928 0.35173193 -0.73232985
v -0.72420114 0.42536977 -0.66867691
v -0.80933774 0.37710935 -0.53464240
v -0.79006290 0.25897878 -0.47422925
v -0.54750371 0.09143126 -0.60296845
v -0.68108124 0.16594046 -0.54388648
v -0.59159815 0.21573819 -0.67915618
v 0.72274303 0.71574730 -0.71341920
v 0.53147304 0.56304264 -0.86037308
v 0.63208532 0.63649130 -0.79490662
v 0.62764126 0.79435408 -0.78878593
v 0.52405208 0.86742949 -0.84719986
v 0.13542238 0.36625630 -0.95862740
v 0.13442279 0.63632739 -1.00731099
v 0.13482314 0.50096053 -0.99223816
v 0.27195004 0.42274445 -0.94718629
v 0.39632213 0.48300931 -0.91728717
v 0.13250706 1.06555200 -0.92877549
v 0.38900325 0.94809121 -0.89663786
v 0.26572779 1.00905907 -0.92077112
v 0.13394849 0.93100142 -0.97412694
v 0.13410355 0.79655850 -0.99973297
v 0.40720421 0.63535351 -0.92988205
v 0.27008188 0.71610552 -0.97819972
v 0.40458944 0.79494506 -0.92291147
v 0.93297654 0.84256762 0.36167932
v 0.99789673 0.84448922 0.08409853
v 0.97640759 0.84430432 0.22275956
v 0.92255318 0.97293824 0.30343714
v 0.89551139 1.09281099 0.23979792
v 0.93486100 0.84401995 -0.36205611
v 0.89520317 1.09274769 -0.23963973
v 0.92331558 0.97350937 -0.30303723
v 0.97702378 0.84485573 -0.22246343
v 0.99869740 0.84560096 -0.08216064
v 0.70423156 1.41361034 -0.00009493
v 0.84295237 1.22383082 0.15692681
v 0.78207207 1.32350814 0.08130927
v 0.78166449 1.32320404 -0.08121989
v 0.84263396 1.22371113 -0.15665728
v 0.97015011 0.97529435 0.00065131
v 0.91631633 1.10575616 -0.08246275
v 0.91691905 1.10584331 0.08274272
f 330 87 329
f 336 325 26
f 207 208 56
f 464 36 580
f 502 129 504
f 157 624 622
f 308 311 82
f 247 223 248
f 507 483 508
f 331 88 329
f 494 500 497
f 156 601 602
f 591 589 592
f 365 98 596
f 75 281 282
f 152 587 577
f 149 559 560
f 555 121 553
f 530 141 529
f 515 517 139
f 361 594 98
f 250 67 249
f 157 608 609
f 294 293 209
f 317 81 316
f 557 338 26
f 303 305 81
f 530 529 528
f 101 381 382
f 415 418 111
f 192 184 50
f 412 110 411
f 20 384 256
f 131 594 486
f 281 264 282
f 347 287 348
f 28 349 582
f 165 163 1
f 248 250 66
f 617 107 398
f 273 271 274
f 456 115 453
f 558 561 560
f 335 576 91
f 331 177 332
f 116 433 436
f 351 370 92
f 136 511 530
f 239 240 65
f 247 258 19
f 304 23 567
f 148 557 570
f 214 208 58
f 440 426 450
f 268 270 269
f 258 247 268
f 204 202 16
f 466 125 465
f 517 513 133
f 168 275 274
f 275 73 274
f 198 193 53
f 309 308 307
f 510 511 136
f 415 416 110
f 131 490 597
f 473 475 474
f 414 415 111
f 493 495 494
f 496 504 485
f 433 116 432
f 600 375 601
f 240 234 65
f 418 415 412
f 486 361 3
f 567 566 304
f 380 393 29
f 17 199 197
f 491 492 132
f 451 449 435
f 218 217 216
f 623 621 613
f 396 104 395
f 433 439 436
f 628 160 627
f 215 202 217
f 209 207 2
f 427 113 424
f 434 10 544
f 434 433 432
f 199 17 210
f 150 564 565
f 489 491 132
f 275 13 285
f 497 500 134
f 125 466 476
f 578 152 577
f 208 214 211
f 328 88 343
f 356 27 603
f 150 566 567
f 372 100 371
f 190 191 47
f 235 8 398
f 260 261 72
f 422 403 414
f 422 414 111
f 453 454 123
f 349 583 582
f 521 520 519
f 425 453 115
f 616 622 158
f 483 130 508
f 151 586 572
f 212 17 232
f 400 397 402
f 377 396 99
f 41 522 511
f 510 508 505
f 549 547 42
f 475 473 36
f 510 137 509
f 222 221 197
f 430 115 429
f 220 194 1
f 305 54 204
f 621 29 613
f 192 171 184
f 460 335 5
f 88 331 332
f 74 277 279
f 300 301 80
f 390 389 388
f 165 45 164
f 146 549 551
f 291 278 75
f 448 120 445
f 147 543 544
f 607 610 609
f 603 602 356
f 139 529 514
f 333 553 443
f 92 368 347
f 261 260 259
f 300 6 200
f 46 177 331
f 284 283 174
f 301 300 200
f 471 468 474
f 54 305 301
f 302 304 303
f 569 150 567
f 150 569 570
f 294 209 2
f 628 629 160
f 548 543 147
f 147 625 627
f 63 233 234
f 426 427 114
f 41 509 532
f 198 52 196
f 614 105 612
f 147 627 547
f 81 305 306
f 549 548 547
f 54 301 200
f 342 88 332
f 264 281 70
f 193 194 53
f 455 429 456
f 187 321 14
f 479 130 484
f 147 544 625
f 458 456 453
f 304 80 303
f 314 84 313
f 488 503 501
f 321 332 14
f 423 425 424
f 305 204 306
f 341 339 25
f 514 40 516
f 625 628 627
f 340 339 341
f 105 614 391
f 243 228 62
f 318 316 78
f 75 278 279
f 357 355 353
f 238 257 63
f 466 455 476
f 425 423 4
f 448 449 120
f 408 638 108
f 292 275 285
f 22 278 289
f 515 513 517
f 501 503 134
f 622 623 158
f 134 503 504
f 195 216 206
f 163 271 246
f 619 617 620
f 62 228 229
f 163 165 164
f 453 425 454
f 489 132 488
f 82 628 625
f 58 208 209
f 525 608 40
f 626 547 627
f 518 517 498
f 489 487 491
f 557 26 564
f 325 336 344
f 541 145 539
f 40 616 516
f 338 556 89
f 250 248 245
f 139 514 515
f 98 594 596
f 246 220 1
f 112 413 630
f 9 536 413
f 156 600 601
f 332 177 14
f 321 342 332
f 156 606 600
f 584 330 585
f 302 303 81
f 584 87 330
f 330 25 585
f 400 239 65
f 439 440 117
f 95 358 368
f 597 594 131
f 594 361 486
f 246 67 245
f 561 562 149
f 28 364 362
f 55 216 217
f 427 430 114
f 267 20 254
f 556 555 553
f 84 309 558
f 311 310 312
f 609 525 142
f 256 68 255
f 124 460 461
f 82 311 312
f 307 308 82
f 589 135 495
f 527 40 514
f 112 418 412
f 20 256 254
f 258 238 19
f 267 254 269
f 273 272 249
f 392 391 393
f 137 533 509
f 122 455 456
f 9 413 411
f 130 480 505
f 333 443 5
f 527 525 40
f 589 495 385
f 39 496 485
f 223 225 224
f 414 416 415
f 219 222 53
f 145 538 539
f 413 412 411
f 469 468 467
f 183 181 6
f 191 192 50
f 429 35 431
f 292 285 76
f 413 112 412
f 415 110 412
f 43 164 167
f 467 468 126
f 617 101 620
f 450 451 117
f 438 546 545
f 619 620 159
f 17 212 210
f 124 579 576
f 584 153 583
f 460 124 576
f 3 469 467
f 311 308 314
f 6 320 183
f 389 104 388
f 251 250 249
f 194 165 1
f 291 289 278
f 287 77 348
f 238 258 257
f 139 517 518
f 238 236 19
f 223 247 19
f 382 380 29
f 39 518 498
f 361 359 3
f 69 255 257
f 139 518 528
f 33 545 535
f 387 385 7
f 69 268 269
f 477 462 125
f 454 479 123
f 121 555 447
f 451 435 117
f 454 425 4
f 233 252 8
f 124 463 464
f 69 258 268
f 168 167 166
f 583 153 582
f 384 394 102
f 138 512 513
f 57 210 211
f 254 256 255
f 607 609 142
f 324 319 86
f 289 291 76
f 291 292 76
f 384 102 383
f 422 421 420
f 221 17 197
f 383 102 381
f 376 377 99
f 99 373 374
f 386 105 392
f 438 33 440
f 90 341 343
f 281 75 279
f 574 571 96
f 628 82 312
f 221 222 59
f 127 471 474
f 595 605 603
f 551 538 145
f 334 91 340
f 322 324 85
f 305 303 301
f 18 239 399
f 306 204 16
f 199 198 197
f 166 190 180
f 303 80 301
f 267 266 265
f 626 42 547
f 16 215 213
f 349 351 350
f 295 16 213
f 68 379 252
f 250 251 66
f 627 160 626
f 383 68 256
f 343 88 342
f 507 508 136
f 202 215 16
f 197 198 53
f 254 69 269
f 603 605 156
f 418 419 111
f 384 383 256
f 455 122 476
f 203 204 54
f 556 557 148
f 255 68 253
f 313 84 560
f 25 328 341
f 254 255 69
f 603 156 602
f 581 584 583
f 630 632 112
f 163 246 1
f 246 245 220
f 432 116 558
f 499 591 590
f 320 563 86
f 345 93 350
f 306 16 295
f 346 93 345
f 562 568 149
f 604 605 155
f 154 592 593
f 545 552 535
f 511 522 530
f 574 573 571
f 566 150 565
f 361 98 360
f 67 271 273
f 234 235 65
f 208 211 56
f 574 151 573
f 251 270 66
f 398 8 378
f 213 215 214
f 438 440 439
f 315 314 313
f 263 71 262
f 20 373 384
f 496 134 504
f 329 88 328
f 81 306 316
f 555 556 148
f 592 589 103
f 617 619 107
f 227 207 56
f 571 359 96
f 446 466 465
f 206 216 55
f 359 571 469
f 568 148 570
f 34 437 435
f 28 351 349
f 21 272 282
f 113 423 424
f 490 489 488
f 379 68 383
f 210 212 211
f 80 563 300
f 351 92 350
f 326 346 12
f 83 317 318
f 555 148 554
f 212 231 56
f 218 57 217
f 271 67 246
f 195 196 52
f 270 268 66
f 390 592 103
f 148 568 554
f 495 493 7
f 592 390 593
f 357 95 355
f 574 575 151
f 452 120 451
f 154 591 592
f 587 585 577
f 395 394 396
f 93 349 350
f 610 416 611
f 166 44 190
f 315 23 302
f 315 302 317
f 268 247 66
f 606 154 593
f 396 394 99
f 211 212 56
f 370 369 368
f 235 397 65
f 280 278 22
f 83 315 317
f 575 588 151
f 74 279 280
f 385 495 7
f 63 257 253
f 397 235 398
f 214 58 213
f 220 219 194
f 546 146 545
f 236 225 19
f 599 94 602
f 235 233 8
f 102 394 395
f 611 416 32
f 225 223 19
f 139 528 529
f 231 62 229
f 419 406 421
f 451 450 452
f 49 182 185
f 402 397 107
f 52 199 218
f 416 610 110
f 225 236 244
f 107 397 398
f 68 252 253
f 322 85 321
f 182 181 183
f 118 438 439
f 546 438 118
f 348 77 345
f 543 546 118
f 231 212 232
f 610 611 157
f 33 438 545
f 385 386 103
f 479 480 130
f 169 195 15
f 93 583 349
f 15 195 206
f 190 44 192
f 247 248 66
f 146 552 545
f 248 60 245
f 570 557 564
f 274 271 43
f 63 253 233
f 272 21 249
f 507 528 518
f 67 273 249
f 487 467 126
f 196 195 169
f 624 159 623
f 134 496 497
f 132 503 488
f 104 393 395
f 556 553 89
f 355 356 94
f 258 69 257
f 229 61 227
f 56 231 227
f 460 576 335
f 463 124 461
f 394 373 99
f 29 393 391
f 67 250 245
f 193 198 196
f 462 36 464
f 144 633 630
f 141 526 527
f 517 133 498
f 536 144 630
f 100 372 599
f 144 536 537
f 22 289 287
f 578 579 152
f 579 578 576
f 189 188 187
f 60 223 224
f 92 348 350
f 555 554 447
f 396 377 388
f 194 193 165
f 413 536 630
f 372 352 599
f 377 376 375
f 348 345 350
f 105 386 387
f 240 237 234
f 463 462 464
f 135 500 494
f 45 196 169
f 512 612 387
f 245 60 220
f 429 115 456
f 223 60 248
f 288 289 76
f 525 526 142
f 100 599 601
f 613 29 391
f 526 523 520
f 341 328 343
f 631 641 639
f 264 21 282
f 266 72 265
f 106 402 403
f 73 273 274
f 186 206 205
f 381 379 383
f 52 216 195
f 410 18 399
f 290 272 73
f 72 371 374
f 526 525 527
f 115 430 424
f 498 497 496
f 621 382 29
f 543 118 434
f 214 215 57
f 522 141 530
f 511 510 509
f 352 94 599
f 493 512 7
f 90 340 341
f 169 171 170
f 605 604 606
f 219 60 224
f 104 389 392
f 359 469 3
f 186 49 185
f 222 219 224
f 166 167 44
f 428 427 426
f 523 522 524
f 129 502 481
f 50 185 188
f 164 45 170
f 425 115 424
f 33 428 426
f 427 428 113
f 94 356 602
f 515 138 513
f 114 431 452
f 237 236 238
f 215 217 57
f 95 354 355
f 220 60 219
f 515 514 516
f 183 320 319
f 222 197 53
f 559 569 567
f 300 320 6
f 435 436 117
f 96 360 363
f 640 642 641
f 242 243 62
f 140 537 519
f 508 130 505
f 420 410 399
f 537 539 144
f 317 316 318
f 426 114 450
f 186 15 206
f 311 83 310
f 625 544 307
f 544 10 307
f 168 43 167
f 185 182 188
f 369 354 95
f 44 171 192
f 605 606 156
f 548 549 146
f 100 601 375
f 149 568 569
f 381 380 382
f 455 466 35
f 480 479 454
f 543 548 546
f 493 133 513
f 492 472 37
f 477 125 476
f 491 487 126
f 337 336 338
f 588 153 587
f 576 578 91
f 633 161 632
f 96 359 360
f 39 485 483
f 101 617 378
f 193 45 165
f 163 164 43
f 618 624 611
f 507 136 528
f 561 149 560
f 641 162 639
f 116 561 558
f 494 133 493
f 253 252 233
f 63 237 238
f 392 393 104
f 440 450 117
f 93 581 583
f 386 385 387
f 120 449 451
f 421 422 111
f 486 3 467
f 302 81 317
f 633 632 630
f 462 475 36
f 376 99 374
f 489 490 131
f 447 449 448
f 387 612 105
f 106 420 399
f 173 46 172
f 492 491 472
f 316 306 295
f 22 287 347
f 109 410 420
f 507 39 483
f 559 23 313
f 214 57 211
f 196 45 193
f 10 434 432
f 422 106 403
f 626 160 640
f 487 486 467
f 542 41 532
f 400 106 399
f 444 120 452
f 198 199 52
f 475 127 474
f 621 620 382
f 621 623 159
f 450 114 452
f 92 347 348
f 376 100 375
f 434 118 433
f 503 132 502
f 337 90 336
f 537 536 519
f 395 393 380
f 201 54 200
f 171 44 170
f 355 94 353
f 58 296 213
f 422 420 106
f 595 365 596
f 569 568 570
f 523 140 520
f 114 430 431
f 218 210 57
f 304 566 80
f 639 162 638
f 261 371 72
f 548 147 547
f 498 133 497
f 150 570 564
f 222 224 59
f 142 526 520
f 437 436 435
f 141 522 523
f 137 510 505
f 173 179 176
f 559 149 569
f 121 447 448
f 563 320 300
f 102 395 380
f 257 255 253
f 642 162 641
f 83 311 314
f 216 52 218
f 512 493 513
f 23 304 302
f 91 339 340
f 512 138 612
f 159 620 621
f 218 199 210
f 364 28 575
f 83 318 310
f 168 274 43
f 136 530 528
f 140 523 524
f 495 135 494
f 233 235 234
f 566 563 80
f 25 339 577
f 277 74 276
f 475 462 477
f 133 494 497
f 436 437 116
f 389 386 392
f 548 146 546
f 441 460 5
f 10 309 307
f 65 397 400
f 543 434 544
f 640 641 161
f 272 273 73
f 581 93 346
f 419 421 111
f 319 320 86
f 180 179 178
f 127 475 477
f 231 229 227
f 337 334 340
f 136 508 510
f 308 309 84
f 237 63 234
f 447 554 34
f 252 379 378
f 315 83 314
f 608 622 616
f 338 336 26
f 337 338 89
f 13 275 168
f 209 208 207
f 436 439 117
f 628 312 629
f 360 366 363
f 364 574 96
f 359 361 360
f 466 446 35
f 500 501 134
f 406 109 421
f 135 589 591
f 601 599 602
f 340 90 337
f 481 492 37
f 522 41 524
f 78 316 295
f 131 486 487
f 403 32 414
f 634 626 640
f 151 572 573
f 515 516 138
f 8 252 378
f 265 72 374
f 9 521 519
f 538 549 42
f 368 358 347
f 588 587 586
f 458 453 123
f 589 385 103
f 502 492 481
f 32 416 414
f 430 427 424
f 153 585 587
f 540 144 539
f 370 368 92
f 209 293 58
f 428 33 535
f 326 581 346
f 625 307 82
f 575 28 582
f 6 181 200
f 421 109 420
f 553 121 443
f 160 642 640
f 153 584 585
f 309 432 558
f 334 337 89
f 23 315 313
f 271 163 43
f 296 295 213
f 39 498 496
f 118 439 433
f 531 113 534
f 293 296 58
f 28 362 351
f 489 131 487
f 431 444 452
f 84 558 560
f 98 366 360
f 45 169 170
f 379 101 378
f 462 463 125
f 308 84 314
f 10 432 309
f 299 24 310
f 132 492 502
f 512 387 7
f 639 638 408
f 565 323 86
f 59 244 242
f 106 400 402
f 440 33 426
f 566 565 563
f 617 398 378
f 224 225 59
f 410 109 409
f 239 400 399
f 194 219 53
f 358 22 347
f 610 157 609
f 27 595 603
f 479 484 482
f 142 520 521
f 585 25 577
f 339 578 577
f 408 407 406
f 407 109 406
f 31 408 406
f 407 408 108
f 31 639 408
f 419 31 406
f 608 616 40
f 430 429 431
f 455 35 429
f 35 444 431
f 188 51 187
f 188 182 51
f 51 322 187
f 322 51 319
f 51 182 183
f 319 51 183
f 187 322 321
f 322 319 324
f 381 101 379
f 405 407 108
f 404 405 108
f 286 285 178
f 407 405 409
f 109 407 409
f 191 175 47
f 167 164 170
f 50 184 185
f 44 167 170
f 64 244 236
f 243 244 64
f 50 188 189
f 541 542 145
f 442 445 119
f 339 91 578
f 445 446 119
f 624 623 622
f 611 624 157
f 523 526 141
f 141 527 529
f 527 514 529
f 445 120 444
f 446 445 444
f 35 446 444
f 613 614 158
f 158 614 615
f 623 613 158
f 614 613 391
f 614 612 615
f 371 376 374
f 100 376 371
f 479 482 123
f 373 394 384
f 540 42 634
f 633 540 634
f 538 42 540
f 633 634 161
f 161 634 640
f 42 626 634
f 540 633 144
f 557 556 338
f 553 333 89
f 262 21 264
f 251 21 262
f 5 335 333
f 270 251 262
f 21 251 249
f 600 593 30
f 606 593 600
f 600 30 375
f 593 390 30
f 30 377 375
f 390 388 30
f 30 388 377
f 228 243 241
f 470 478 459
f 470 127 478
f 127 477 478
f 184 186 185
f 478 477 476
f 122 478 476
f 357 74 280
f 518 39 507
f 344 342 85
f 325 344 85
f 342 344 343
f 85 342 321
f 344 90 343
f 90 344 336
f 482 129 481
f 482 481 457
f 482 457 123
f 481 37 457
f 449 447 34
f 435 449 34
f 470 472 471
f 472 470 37
f 470 471 127
f 472 126 471
f 126 468 471
f 470 459 37
f 491 126 472
f 504 129 485
f 221 59 242
f 125 463 465
f 437 34 562
f 561 437 562
f 554 568 562
f 34 554 562
f 437 561 116
f 390 103 389
f 103 386 389
f 392 105 391
f 572 586 580
f 572 580 36
f 586 152 580
f 473 572 36
f 244 243 242
f 225 244 59
f 64 240 241
f 240 239 241
f 237 240 64
f 243 64 241
f 236 237 64
f 411 607 521
f 9 411 521
f 110 607 411
f 607 142 521
f 610 607 110
f 171 15 184
f 171 169 15
f 15 186 184
f 87 584 581
f 153 588 582
f 588 575 582
f 381 102 380
f 573 572 473
f 468 469 128
f 474 468 128
f 469 571 128
f 571 573 128
f 573 473 128
f 473 474 128
f 564 323 565
f 26 323 564
f 323 324 86
f 325 323 26
f 325 324 323
f 563 565 86
f 324 325 85
f 410 230 18
f 230 228 18
f 18 228 241
f 18 241 239
f 401 619 618
f 401 402 107
f 403 402 401
f 619 159 618
f 401 618 32
f 619 401 107
f 403 401 32
f 618 611 32
f 159 624 618
f 478 122 459
f 122 458 459
f 37 459 457
f 459 458 457
f 122 456 458
f 457 458 123
f 191 190 192
f 485 129 484
f 129 482 484
f 483 485 484
f 130 483 484
f 189 187 14
f 191 50 189
f 191 189 175
f 189 14 175
f 14 177 175
f 499 501 500
f 501 499 38
f 38 499 590
f 135 499 500
f 488 501 38
f 499 135 591
f 480 454 4
f 284 12 346
f 4 423 506
f 480 4 506
f 423 531 506
f 480 506 505
f 531 137 506
f 506 137 505
f 365 366 98
f 71 270 262
f 270 71 269
f 71 267 269
f 335 334 333
f 333 334 89
f 334 335 91
f 536 9 519
f 465 463 461
f 537 140 541
f 520 140 519
f 119 446 465
f 465 461 119
f 461 441 119
f 460 441 461
f 176 46 173
f 299 297 24
f 71 263 266
f 263 260 266
f 260 72 266
f 263 70 260
f 205 201 49
f 201 181 49
f 186 205 49
f 181 201 200
f 181 182 49
f 284 77 283
f 586 587 152
f 588 586 151
f 20 267 265
f 266 267 71
f 31 417 631
f 631 417 632
f 31 631 639
f 417 31 419
f 641 631 161
f 417 112 632
f 161 631 632
f 418 417 419
f 417 418 112
f 284 345 77
f 542 550 145
f 542 541 524
f 284 174 12
f 48 174 283
f 373 20 265
f 373 265 374
f 609 608 525
f 608 157 622
f 560 559 313
f 636 637 162
f 541 140 524
f 41 542 524
f 358 357 280
f 70 263 264
f 263 262 264
f 176 177 46
f 174 48 173
f 174 173 172
f 538 551 549
f 538 540 539
f 537 541 539
f 232 221 242
f 17 221 232
f 232 242 62
f 231 232 62
f 203 205 55
f 203 55 202
f 201 205 203
f 202 55 217
f 205 206 55
f 204 203 202
f 73 275 292
f 292 290 73
f 272 290 282
f 290 292 291
f 75 290 291
f 290 75 282
f 70 277 259
f 277 70 281
f 277 281 279
f 260 70 259
f 12 174 172
f 104 396 388
f 367 27 354
f 365 27 367
f 354 27 356
f 365 367 366
f 595 27 365
f 318 299 310
f 155 596 597
f 155 597 598
f 596 594 597
f 595 596 155
f 605 595 155
f 180 47 179
f 180 190 47
f 352 372 11
f 11 372 261
f 312 310 24
f 642 636 162
f 636 297 637
f 367 369 97
f 366 367 97
f 369 367 354
f 369 370 97
f 580 579 464
f 580 152 579
f 579 124 464
f 61 230 409
f 230 410 409
f 230 61 229
f 230 229 228
f 76 285 286
f 353 352 276
f 74 353 276
f 288 76 286
f 288 286 283
f 289 288 287
f 203 54 201
f 287 288 77
f 77 288 283
f 286 48 283
f 531 423 113
f 276 11 259
f 11 261 259
f 277 276 259
f 616 158 615
f 516 616 615
f 138 516 615
f 138 615 612
f 509 533 532
f 503 502 504
f 635 79 294
f 635 294 404
f 635 637 79
f 637 635 638
f 638 635 108
f 635 404 108
f 226 61 405
f 61 226 227
f 405 61 409
f 227 226 207
f 48 178 179
f 48 286 178
f 173 48 179
f 534 143 533
f 534 535 143
f 531 534 533
f 533 143 532
f 137 531 533
f 261 372 371
f 13 180 178
f 285 13 178
f 180 13 166
f 13 168 166
f 346 345 284
f 331 327 46
f 46 327 172
f 172 327 326
f 382 620 101
f 442 121 448
f 443 121 442
f 2 226 404
f 294 2 404
f 404 226 405
f 207 226 2
f 550 551 145
f 552 146 551
f 143 550 532
f 552 550 143
f 330 329 328
f 24 636 629
f 94 352 353
f 352 11 276
f 113 428 534
f 428 535 534
f 509 41 511
f 535 552 143
f 550 552 551
f 550 542 532
f 369 95 368
f 326 327 87
f 87 327 329
f 327 331 329
f 581 326 87
f 293 79 298
f 79 297 298
f 296 298 78
f 79 293 294
f 296 293 298
f 598 490 38
f 358 280 22
f 280 279 278
f 357 358 95
f 74 357 353
f 330 328 25
f 567 23 559
f 590 598 38
f 590 604 598
f 598 604 155
f 604 590 154
f 590 591 154
f 604 154 606
f 297 299 298
f 299 318 78
f 298 299 78
f 355 354 356
f 629 636 642
f 312 24 629
f 629 642 160
f 370 362 97
f 362 363 97
f 363 366 97
f 364 363 362
f 362 370 351
f 96 363 364
f 297 636 24
f 162 637 638
f 637 297 79
f 490 488 38
f 598 597 490
f 441 442 119
f 443 442 441
f 443 441 5
f 442 448 445
f 296 78 295
f 326 12 172
f 575 574 364
f 47 175 176
f 175 177 176
f 47 176 179
