# FEM surface export ¡ª frame 466
# Vertices: 642  Faces: 1280
v -0.51635104 1.02650464 -0.00326550
v 0.51606923 1.02654326 -0.00078963
v -0.56637156 0.17673494 0.00200093
v 0.53003693 0.22140294 0.01086326
v -0.00397283 0.02191273 1.00332725
v 0.00210887 0.76370895 0.86729884
v -0.00132266 0.00001176 -0.98518723
v 0.00055239 0.76014221 -0.86675376
v 0.90513200 0.30527648 -0.56082761
v 0.90847725 0.30020830 0.55880499
v -0.90608305 0.30729702 -0.55117780
v -0.90065372 0.29650924 0.55946952
v -0.82752901 0.73852378 0.31801119
v -0.51940346 0.57419443 0.84142917
v -0.30504945 0.99462652 0.49200255
v 0.30713543 0.99488825 0.49414939
v -0.00026151 1.13590527 -0.00135973
v 0.30494943 0.99467194 -0.49297714
v -0.30708089 0.99382371 -0.49534869
v -0.51886916 0.56731856 -0.83884525
v -0.82566255 0.73511302 -0.31725684
v -1.05042791 0.28557360 0.00326402
v 0.52484143 0.56843269 0.83888406
v 0.82856673 0.73859948 0.31553456
v -0.56694907 0.06053764 0.92088711
v -0.00079362 0.29381570 1.05806470
v -0.89491320 0.00332614 -0.36374781
v -0.93619043 0.00000000 0.34244993
v -0.00148314 0.30743137 -1.07004559
v -0.57604581 0.07146657 -0.93407708
v 0.82643026 0.73993731 -0.31575671
v 0.51726127 0.57455385 -0.84101373
v 0.95209682 0.00000000 0.35707989
v 0.57224005 0.03870494 0.90297008
v 0.30210599 0.08682171 0.52105963
v -0.35933971 0.13918607 0.50073904
v -0.00708665 0.05253206 0.07013918
v -0.29439577 0.02894147 -0.48782915
v 0.33248165 0.02914441 -0.49858907
v 0.57364619 0.06626523 -0.92812490
v 0.95379299 0.00932599 -0.35656366
v 1.06658804 0.29723692 -0.00478756
v -0.69337851 0.90801871 0.15833037
v -0.58781683 0.89895254 0.42399198
v -0.42524767 1.03636765 0.25184810
v -0.73347420 0.43893617 0.72569817
v -0.70880181 0.67631024 0.60424882
v -0.89968067 0.52274793 0.45232755
v -0.15903445 0.90103889 0.70186478
v -0.43143719 0.81576693 0.69537836
v -0.26678714 0.68615669 0.88846904
v -0.15582395 1.09973335 0.25377053
v -0.26318586 1.10909975 -0.00106578
v 0.16130465 0.90073383 0.70167553
v 0.00111028 1.02523088 0.51570791
v 0.26271072 1.10921812 -0.00086464
v 0.15852827 1.10316157 0.25470716
v 0.42650574 1.03550887 0.25445327
v -0.15838088 1.10086870 -0.25700104
v -0.42529353 1.03509092 -0.25696161
v 0.42552966 1.03679347 -0.25538054
v 0.15566744 1.10212469 -0.25697920
v -0.16076076 0.89957416 -0.70231396
v 0.00064480 1.02497137 -0.51753885
v 0.16071075 0.89978909 -0.70228291
v -0.59029478 0.89504910 -0.42706418
v -0.69287157 0.90688711 -0.16301860
v -0.26614824 0.67924082 -0.88468343
v -0.43022534 0.81295913 -0.69775319
v -0.89760649 0.52445716 -0.45185497
v -0.70580989 0.66974181 -0.60606009
v -0.73733056 0.43482032 -0.72391188
v -0.86612093 0.75881946 -0.00074175
v -1.02613580 0.30288264 -0.28978625
v -0.99505460 0.52848852 -0.16678141
v -0.99083799 0.52793568 0.17104118
v -1.01367688 0.28622100 0.28867945
v 0.58940166 0.89371860 0.42586416
v 0.69225377 0.90905935 0.16067843
v 0.27080384 0.68077511 0.88723475
v 0.43106961 0.81141233 0.69565821
v 0.90259272 0.53022188 0.45206511
v 0.71052992 0.67511076 0.60549200
v 0.74364513 0.44138598 0.72543126
v -0.27606609 0.44429928 0.99758023
v 0.00201723 0.54381305 1.00448525
v -0.75892222 0.16021509 0.75564331
v -0.55544949 0.30115098 0.89794964
v 0.00143033 0.07825160 1.07835484
v -0.28464961 0.16613685 1.02989852
v -0.31582907 0.00000000 1.01964152
v -1.07104361 0.08660048 0.18611562
v -0.96894497 0.08367126 0.48851368
v -0.97021282 0.10278919 -0.47031608
v -1.07564723 0.10822328 -0.17911908
v -0.75841010 0.08001401 0.12267284
v -0.97327530 0.01510543 -0.04226038
v -0.74813378 0.18693621 -0.19351573
v -0.56318635 0.30710042 -0.90476817
v -0.77105039 0.17585923 -0.75562143
v 0.00072218 0.53972459 -1.00135517
v -0.27900326 0.44289955 -1.00114143
v -0.29906726 0.00000000 -1.01348853
v -0.28913566 0.16822112 -1.04078031
v -0.00171179 0.08652212 -1.08282220
v 0.43137190 0.81464368 -0.69742954
v 0.26734221 0.68005335 -0.88393563
v 0.69380540 0.90872943 -0.16080013
v 0.58992141 0.89716363 -0.42394212
v 0.73594737 0.44874722 -0.72644782
v 0.70859689 0.67667842 -0.60701084
v 0.90012121 0.53142554 -0.45189309
v 0.74999070 0.14036521 0.18239754
v 0.65364182 0.07329176 0.45372096
v 0.43109518 0.17926861 0.31720847
v 0.77338856 0.17130464 0.76441360
v 0.82781786 0.00000000 0.67232561
v 0.97512013 0.10396411 0.46929151
v 0.14604600 0.02030394 0.75987631
v 0.49468422 0.00490313 0.80539244
v 0.31352478 0.00000000 1.02621949
v 0.15948379 0.21664472 0.31181952
v 0.27463147 0.04779128 0.04202161
v -0.21176517 0.08656260 0.75768036
v -0.01255601 0.17052914 0.57190406
v -0.28682303 0.13334477 0.07100460
v -0.18181378 0.10441960 0.33197275
v -0.49601719 0.11083268 0.29144359
v 0.15294626 0.04526343 -0.21173042
v 0.49134195 0.10239343 -0.24552046
v -0.45613298 0.06777267 -0.24725333
v -0.18324663 0.02394164 -0.21053849
v 0.16611962 0.02574169 -0.75790250
v 0.01182471 0.03978782 -0.48006514
v -0.17217566 0.05617292 -0.71753418
v 0.62283874 0.12049351 -0.42560279
v 0.75313938 0.11264206 -0.15850736
v 0.31532192 0.00000000 -1.02161646
v 0.49428344 0.03027244 -0.77219856
v 0.97022349 0.08718424 -0.49564159
v 0.81723410 0.00000000 -0.68304771
v 0.76373303 0.17992067 -0.76859188
v 1.00327229 0.00036025 0.01082352
v 1.02523506 0.30196843 -0.29008842
v 1.06840241 0.08130513 -0.18901886
v 1.04721999 0.08359845 0.17213817
v 1.02589726 0.30538371 0.28823769
v 0.29093453 0.15753669 1.02876878
v 0.56339759 0.29897386 0.90346229
v 0.27964354 0.43979600 0.99875832
v -0.67788231 0.02152791 0.42923981
v -0.49896598 0.07760539 0.74918556
v -0.81412935 0.00000000 0.68798089
v -0.50149417 0.00442195 -0.73349011
v -0.62491488 0.14896177 -0.47317311
v -0.80999291 0.00108311 -0.67786914
v 0.56035030 0.30488744 -0.90370071
v 0.28440329 0.18250440 -1.04243112
v 0.27839187 0.44730341 -0.99904174
v 0.99434835 0.53146815 0.16652431
v 0.99117875 0.53388309 -0.16952567
v 0.86630714 0.76156086 -0.00011172
v -0.60847163 0.97502184 0.07836371
v -0.56369060 0.98188621 0.20799874
v -0.47381109 1.03693199 0.12614153
v -0.71514845 0.82726556 0.37409028
v -0.64577484 0.90953976 0.29320139
v -0.76697958 0.82882929 0.23803759
v -0.36810127 1.02171636 0.37452614
v -0.51011813 0.97408694 0.34061673
v -0.45001554 0.95369774 0.46285203
v -0.82305431 0.36813006 0.64733022
v -0.82779199 0.48405281 0.59680378
v -0.90952486 0.41010919 0.50831705
v -0.62278479 0.62929636 0.73242992
v -0.73052704 0.56038392 0.67264777
v -0.63370568 0.50916928 0.79173553
v -0.87161034 0.63593340 0.38935840
v -0.81075078 0.60334927 0.53299206
v -0.77674466 0.71497518 0.46620947
v -0.08032436 0.83728480 0.79069149
v -0.21482824 0.79982018 0.80389172
v -0.13307807 0.72826612 0.88687760
v -0.37022963 0.91242111 0.59927380
v -0.29680830 0.86326671 0.70549047
v -0.23385878 0.95363349 0.60095817
v -0.39646262 0.63476157 0.87404579
v -0.35393429 0.75501370 0.79916191
v -0.48137295 0.70306247 0.77791643
v -0.65558428 0.79680097 0.52012300
v -0.57706696 0.75317413 0.65921271
v -0.51558536 0.86450398 0.56613088
v -0.34791934 1.08092403 0.12601434
v -0.39191625 1.07319558 -0.00171775
v -0.23177516 1.05738449 0.37649125
v -0.29310295 1.07519758 0.25532758
v -0.13294707 1.13288367 -0.00163490
v -0.21090920 1.11126971 0.12739480
v -0.07850116 1.12795877 0.12788494
v 0.08368801 0.83640945 0.78888953
v 0.00144250 0.90838861 0.70887280
v 0.15444978 1.01747489 0.50991565
v 0.08150381 0.97010446 0.61231959
v 0.23697823 0.95268494 0.60195434
v -0.07724395 0.96928698 0.61258388
v -0.15247728 1.01847529 0.50956589
v 0.39318150 1.07444036 -0.00059105
v 0.34836015 1.08124745 0.12845294
v 0.47497073 1.03772509 0.12723385
v 0.07942189 1.12683296 0.12769370
v 0.21288092 1.11357462 0.12927055
v 0.13241218 1.13215423 -0.00109975
v 0.37157980 1.02151370 0.37728882
v 0.29336604 1.07624137 0.25755250
v 0.23417151 1.05702746 0.37717295
v -0.08047547 1.07425690 0.38967595
v 0.07956811 1.07404006 0.38827005
v -0.00048994 1.11054659 0.25638849
v -0.34781721 1.08073890 -0.13045859
v -0.47432458 1.03657401 -0.13058937
v -0.07951317 1.12879157 -0.12969781
v -0.21270891 1.11404145 -0.13000058
v -0.37086171 1.01958215 -0.37861869
v -0.29329658 1.07506943 -0.25894019
v -0.23463693 1.05640924 -0.37912184
v 0.47524515 1.03884983 -0.12945290
v 0.34793931 1.08329463 -0.12957324
v 0.23244162 1.05766273 -0.37835896
v 0.29197431 1.07639575 -0.25794384
v 0.36831316 1.02108872 -0.37716696
v 0.21133773 1.11411500 -0.12967913
v 0.07813565 1.12967896 -0.13019462
v -0.08084758 0.83505720 -0.79074353
v 0.00110942 0.90698844 -0.71157354
v 0.08252463 0.83418071 -0.79148668
v -0.15429808 1.01673770 -0.51214272
v -0.08011483 0.96992981 -0.61613053
v -0.23594823 0.95280159 -0.60286880
v 0.23665613 0.95263445 -0.60245264
v 0.08105611 0.97018021 -0.61503232
v 0.15321550 1.01749599 -0.51148254
v -0.00114124 1.11052597 -0.25919721
v 0.07962926 1.07325637 -0.38999975
v -0.08112815 1.07316303 -0.39083439
v -0.56443799 0.98100495 -0.21359171
v -0.60976493 0.97424960 -0.08290662
v -0.45258287 0.95142406 -0.46710443
v -0.51102304 0.97253239 -0.34495530
v -0.76542699 0.82614398 -0.24124640
v -0.64761823 0.90762091 -0.29747093
v -0.71511233 0.82178479 -0.37661305
v -0.13383037 0.72310853 -0.88348103
v -0.21378675 0.79744661 -0.80364776
v -0.47865573 0.69608772 -0.77785081
v -0.35160959 0.75161427 -0.79938084
v -0.39582172 0.62777901 -0.87019438
v -0.29678756 0.86037540 -0.70789427
v -0.37150192 0.91165936 -0.60326183
v -0.90767527 0.41222283 -0.50245124
v -0.82878977 0.48211378 -0.59564531
v -0.82820183 0.36831933 -0.64460337
v -0.77485383 0.70682967 -0.46645516
v -0.80998999 0.60075629 -0.53614062
v -0.87225240 0.63579893 -0.38870046
v -0.63235617 0.50204468 -0.78798610
v -0.72761101 0.55435818 -0.67216468
v -0.61977959 0.62177646 -0.72995317
v -0.51712000 0.85842663 -0.56852764
v -0.57500505 0.74574369 -0.66175699
v -0.65603888 0.79038966 -0.52143472
v -0.70216644 0.91590184 -0.00162944
v -0.85515320 0.75226152 -0.16199228
v -0.78644538 0.83894724 -0.08467698
v -0.78700948 0.84027296 0.07988141
v -0.85565120 0.75379425 0.15946078
v -0.97272164 0.29793078 -0.42353767
v -0.96840346 0.41097826 -0.37101299
v -1.03569877 0.40991729 -0.08095136
v -1.01337838 0.41213632 -0.22589512
v -1.04876173 0.29298508 -0.14308138
v -0.95541465 0.52740997 -0.31315726
v -0.92186946 0.63707316 -0.24726374
v -0.97087270 0.40788954 0.37424052
v -0.96813184 0.29253826 0.42834261
v -0.92037725 0.63878328 0.24908514
v -0.95346934 0.52803993 0.31490135
v -1.04724681 0.28722611 0.14790188
v -1.01223636 0.40859812 0.23227601
v -1.03591657 0.40786448 0.08901756
v -0.94182783 0.64899176 -0.08454669
v -1.00633276 0.53059208 0.00437314
v -0.94229108 0.65002763 0.08611007
v 0.56385189 0.98240274 0.21068269
v 0.60795939 0.97389960 0.07977472
v 0.45245412 0.95144492 0.46569663
v 0.51260078 0.97282970 0.34309855
v 0.76730609 0.83003891 0.23980018
v 0.64785552 0.90912056 0.29596087
v 0.71698767 0.82518286 0.37653765
v 0.13707796 0.72640169 0.88598955
v 0.21821585 0.79783177 0.80226392
v 0.48281437 0.69891560 0.77799374
v 0.35418043 0.74859041 0.79736722
v 0.40075538 0.62586254 0.87081724
v 0.29756156 0.86098266 0.70559639
v 0.37268257 0.91097474 0.60103947
v 0.91172570 0.41339883 0.50742221
v 0.83135295 0.48622721 0.59443390
v 0.83195567 0.37093845 0.64635390
v 0.77975440 0.71259379 0.46566662
v 0.81427485 0.60583556 0.53479546
v 0.87430149 0.63792139 0.38725039
v 0.64105749 0.50667703 0.79185081
v 0.73469114 0.56022096 0.67335844
v 0.62576497 0.62730396 0.73257315
v 0.51902205 0.86130971 0.56850874
v 0.57684797 0.74924177 0.65944242
v 0.65767932 0.79356426 0.52215874
v -0.13499393 0.61810189 0.95916641
v 0.00267056 0.65862995 0.94504088
v -0.40282938 0.51251680 0.93005556
v -0.27430680 0.56919891 0.95512795
v -0.00058170 0.41957533 1.04123271
v -0.13938440 0.49575061 1.01253450
v -0.14294046 0.37041727 1.04356456
v -0.83794868 0.22385785 0.66225660
v -0.75250602 0.29806831 0.74561614
v -0.55568635 0.17359489 0.91291732
v -0.65700305 0.22543733 0.83269179
v -0.66577411 0.10795573 0.84085482
v -0.64979327 0.36801425 0.81821126
v -0.54414600 0.43779683 0.87909919
v 0.00961292 0.00000000 1.06594574
v -0.14412829 0.01247424 1.06977654
v -0.16229565 0.00000000 1.02171052
v -0.14432573 0.22990265 1.05465353
v -0.14263776 0.12515524 1.05561006
v -0.00321326 0.17584348 1.05769980
v -0.44556141 0.00000000 0.98318988
v -0.28279710 0.05963901 1.03867424
v -0.41800508 0.09349012 0.99055421
v -0.42234430 0.37218544 0.95876741
v -0.42910728 0.22964595 0.97917819
v -0.28515649 0.30501428 1.02323925
v -1.00678337 0.18507728 0.39542511
v -0.93495387 0.17920078 0.52858031
v -1.06843483 0.18446381 0.09282450
v -1.04714072 0.18404730 0.24239381
v -0.99338067 0.00000000 0.43272609
v -1.03569245 0.08632342 0.34008658
v -1.04337335 0.00000000 0.27662519
v -0.94142526 0.20113239 -0.51696241
v -1.00838161 0.19502404 -0.38117319
v -1.04303634 0.03095109 -0.27373734
v -1.03320634 0.08201560 -0.33446217
v -0.97653550 0.00000000 -0.42996112
v -1.05697024 0.19909148 -0.24391828
v -1.07731926 0.19134320 -0.08992950
v -0.65173346 0.05607882 0.04974771
v -0.77628893 0.03765019 -0.06820748
v -0.68666542 0.16592252 -0.08491503
v -0.97400784 0.00164469 0.15574747
v -0.86938107 0.00977005 0.05123663
v -0.85875380 0.05128121 0.23227799
v -0.82408315 0.11452566 -0.29180813
v -0.87343675 0.10992395 -0.12194734
v -0.93047398 0.00229415 -0.20908013
v -1.08901894 0.08595832 0.00270540
v -1.07515383 0.00000000 -0.10175649
v -1.07747889 0.00000000 0.09214675
v -0.75821120 0.29896733 -0.73876393
v -0.84624761 0.23377503 -0.65175647
v -0.54505461 0.43250173 -0.87736684
v -0.65600502 0.36407480 -0.81553143
v -0.68088460 0.10880027 -0.84817672
v -0.66872603 0.23306330 -0.84033900
v -0.56498146 0.17797472 -0.91960853
v 0.00067524 0.65351284 -0.94160068
v -0.13549833 0.61363775 -0.95475864
v -0.14264381 0.37427691 -1.04657841
v -0.13854051 0.49347952 -1.00796509
v -0.00149771 0.42362657 -1.04405224
v -0.27315113 0.56338131 -0.94904637
v -0.40290233 0.50792575 -0.92729068
v -0.15051757 0.00000000 -1.01293123
v -0.14535350 0.04313448 -1.06191444
v 0.00229687 0.00000000 -1.06355107
v -0.42485207 0.10530831 -0.99581063
v -0.29958475 0.06724242 -1.04172885
v -0.44815409 0.00871555 -0.98907655
v -0.00575416 0.18833017 -1.08382058
v -0.15381224 0.12054250 -1.07158577
v -0.14480852 0.23613587 -1.06955159
v -0.42627615 0.37285557 -0.96760005
v -0.28581268 0.30526468 -1.03041875
v -0.42987406 0.23417671 -0.98500592
v 0.21657492 0.79758680 -0.80200022
v 0.13495949 0.72465748 -0.88494933
v 0.37224418 0.91219151 -0.60055876
v 0.29786786 0.86321104 -0.70631832
v 0.39452448 0.62808788 -0.86793399
v 0.35302219 0.75219274 -0.79803252
v 0.48066682 0.69916928 -0.77708793
v 0.60965925 0.97498423 -0.08068376
v 0.56564581 0.98331034 -0.21093082
v 0.71559471 0.82633275 -0.37366885
v 0.64863431 0.91032445 -0.29519171
v 0.76744044 0.82858342 -0.23799227
v 0.51208061 0.97501510 -0.34255919
v 0.45191363 0.95359433 -0.46602234
v 0.82625157 0.37915343 -0.64681792
v 0.83061391 0.49233013 -0.59475648
v 0.91273886 0.41816112 -0.50912923
v 0.62218761 0.62926775 -0.73288816
v 0.73062992 0.56472433 -0.67393917
v 0.63223106 0.51385623 -0.79170769
v 0.86982632 0.63903457 -0.38658932
v 0.81299281 0.61036813 -0.53669250
v 0.77518678 0.71455330 -0.46553624
v 0.51822042 0.86222416 -0.56703609
v 0.65688413 0.79290462 -0.51943099
v 0.57603639 0.75108320 -0.65970355
v 0.63696593 0.21052986 0.09412961
v 0.59403592 0.19642675 0.23553208
v 0.50156784 0.22954948 0.17622006
v 0.81639296 0.06594300 0.40189883
v 0.69575047 0.12894295 0.32243255
v 0.85283661 0.05761309 0.26494235
v 0.35916799 0.03290596 0.39209840
v 0.54233193 0.12029723 0.35934800
v 0.48916391 0.07268911 0.49123386
v 0.84300804 0.23207051 0.66180491
v 0.88278264 0.13626473 0.63139987
v 0.93944204 0.19411714 0.51893604
v 0.70453733 0.00000000 0.80104578
v 0.79481244 0.06485316 0.72893745
v 0.67649388 0.10739185 0.84697831
v 0.98147601 0.03360663 0.44109210
v 0.90891546 0.06929878 0.58227497
v 0.90172780 0.00000000 0.51631087
v 0.08240319 0.05037295 0.89261866
v 0.23543194 0.02096110 0.92161679
v 0.15257455 0.00000000 1.02626765
v 0.40544447 0.07838073 0.66172075
v 0.33071148 0.01155429 0.78879052
v 0.23472309 0.02511476 0.65011531
v 0.45332715 0.00000000 0.98260981
v 0.40302780 0.00000000 0.92031604
v 0.55157137 0.00000000 0.89895010
v 0.75085884 0.03128129 0.58110839
v 0.66880888 0.00000000 0.76746780
v 0.56734264 0.01306672 0.62844378
v 0.38695681 0.10394741 0.18065411
v 0.42827338 0.10786440 0.03389625
v 0.18598558 0.04781484 0.40027118
v 0.28390107 0.10307843 0.32296047
v 0.13013573 0.06215878 0.03391018
v 0.20555224 0.08425750 0.18827225
v 0.08874612 0.09878803 0.19064324
v -0.10588432 0.02099578 0.87765980
v -0.02701055 0.07656506 0.77303225
v -0.18001387 0.12673798 0.54132247
v -0.10799091 0.11084422 0.66088116
v -0.28785616 0.11803714 0.64238596
v 0.06526581 0.12612213 0.65520847
v 0.10185774 0.04917051 0.54507494
v -0.42381266 0.12842518 0.05971573
v -0.39261079 0.22562295 0.19951662
v -0.53361815 0.18924977 0.15363722
v -0.08775633 0.11035706 0.20214191
v -0.22945769 0.20978183 0.20172559
v -0.16305220 0.09184207 0.09319545
v -0.41575852 0.19220215 0.39076975
v -0.32007748 0.10646875 0.27524766
v -0.26483473 0.18594904 0.42601669
v 0.07145837 0.19442838 0.46080148
v -0.09861758 0.21794558 0.46085277
v 0.00831536 0.09446870 0.34754133
v 0.39114150 0.09941720 -0.10564866
v 0.47562030 0.23639224 -0.12557235
v 0.07654421 0.06002567 -0.09099816
v 0.23290773 0.05356637 -0.08564659
v 0.38429061 0.16140656 -0.37900433
v 0.33061957 0.05260025 -0.25478786
v 0.23720762 0.06251717 -0.36052695
v -0.52305472 0.06598838 -0.09311508
v -0.39161608 0.06865842 -0.09446293
v -0.23149365 0.01606858 -0.35340968
v -0.31940478 0.07199452 -0.23021443
v -0.36760402 0.06701862 -0.37401986
v -0.25584558 0.04635769 -0.06602635
v -0.11511186 0.05046953 -0.06078639
v 0.07694399 0.04964611 -0.87187338
v -0.01638142 0.02118855 -0.75173247
v -0.10447426 0.04610567 -0.87431645
v 0.17657088 0.04818165 -0.50246847
v 0.09271690 0.04407522 -0.62634391
v 0.25733787 0.08947821 -0.65142053
v -0.22436196 0.03485866 -0.61249977
v -0.09513596 0.01629774 -0.59732491
v -0.14311886 0.01596874 -0.47814602
v 0.00605671 0.04965723 -0.21905236
v -0.07034385 0.04977738 -0.35386601
v 0.10528142 0.06913195 -0.36023280
v 0.59188712 0.20167573 -0.22786829
v 0.65887088 0.17050964 -0.08353308
v 0.49680990 0.09237625 -0.48558444
v 0.54227108 0.15962039 -0.37391725
v 0.86586130 0.05841611 -0.25356144
v 0.70242763 0.11643355 -0.29305458
v 0.79738456 0.04760839 -0.40283221
v 0.15722303 0.00000000 -1.01736665
v 0.23480184 0.00137750 -0.90244651
v 0.55786592 0.00000000 -0.88652813
v 0.40399671 0.00000000 -0.89099103
v 0.45625439 0.02650960 -0.99620450
v 0.32987618 0.04038184 -0.77511352
v 0.41813743 0.09885352 -0.65165442
v 0.93880719 0.20165631 -0.53470403
v 0.88086551 0.13150316 -0.64323467
v 0.84060258 0.24334155 -0.66476536
v 0.88011307 0.00000000 -0.52780777
v 0.91537070 0.04973546 -0.60661864
v 0.99250692 0.00000000 -0.44135711
v 0.67369080 0.11097902 -0.85660076
v 0.80216581 0.07901897 -0.75238705
v 0.71103019 0.00313132 -0.82724106
v 0.57111061 0.01639630 -0.60361880
v 0.66878247 0.00140801 -0.73219341
v 0.72027284 0.09205317 -0.55398166
v 0.75314188 0.14028028 0.02226459
v 0.99044240 0.01736242 -0.18569760
v 0.87997025 0.06979434 -0.07324737
v 0.88924950 0.06226572 0.10519860
v 0.97034198 0.00000000 0.18513323
v 0.97658247 0.30860600 -0.43244523
v 1.00876999 0.19813874 -0.39477780
v 1.07058704 0.17991179 -0.09180878
v 1.05197489 0.18830036 -0.23998009
v 1.05643713 0.30026376 -0.14535610
v 1.03407502 0.09421197 -0.34724018
v 1.04008234 0.05338569 -0.28038567
v 1.01211393 0.19871275 0.38076392
v 0.97518831 0.30124944 0.42613733
v 1.01554823 0.00000000 0.28437126
v 1.02324998 0.08615397 0.32416117
v 1.05619347 0.30103779 0.14389934
v 1.04847980 0.19084837 0.23044571
v 1.06723404 0.18618411 0.08469459
v 1.07636690 0.00000000 -0.09921400
v 1.08434737 0.07113543 -0.00143992
v 1.06920397 0.00000000 0.09588701
v 0.16099070 0.02682459 1.06517828
v 0.43777934 0.08616516 0.98046029
v 0.30387381 0.05811913 1.03273916
v 0.14730029 0.11364558 1.06290746
v 0.14108293 0.22361305 1.04938161
v 0.75941062 0.30392501 0.74567646
v 0.55116081 0.43327838 0.88359189
v 0.66024661 0.37033901 0.82300138
v 0.66778892 0.23238403 0.83954597
v 0.56797600 0.16611782 0.91856819
v 0.14036632 0.61582202 0.95823997
v 0.14140871 0.36738750 1.04244757
v 0.14188972 0.49192187 1.01012588
v 0.27930045 0.56532729 0.95324254
v 0.40749177 0.50737011 0.93035930
v 0.43283203 0.22506015 0.97921365
v 0.42534158 0.36555526 0.96361244
v 0.28249112 0.29453069 1.02005661
v -0.63046414 0.10863659 0.19477135
v -0.52643669 0.08972844 0.46956122
v -0.57945925 0.13604118 0.35297006
v -0.72307098 0.06422610 0.28202608
v -0.80823356 0.08716161 0.38497555
v -0.25954854 0.00420249 0.90399909
v -0.56998622 0.00000000 0.89500040
v -0.43292984 0.00008352 0.90067619
v -0.35973534 0.04911481 0.77114934
v -0.43252003 0.07624446 0.61599225
v -0.86743706 0.11341771 0.63261431
v -0.88711917 0.00008901 0.51403648
v -0.89654595 0.02976373 0.59552515
v -0.79078352 0.05284331 0.74674666
v -0.70220768 0.00051727 0.82408106
v -0.59690052 0.00974167 0.59948641
v -0.67410195 0.00080591 0.73849112
v -0.78021747 0.00274741 0.56095237
v -0.24501918 0.00828350 -0.86046886
v -0.38678339 0.09195866 -0.62532735
v -0.34406266 0.00000000 -0.71595657
v -0.39741072 0.00000000 -0.87423044
v -0.55095208 0.00000000 -0.87853450
v -0.62148768 0.07883504 -0.21462981
v -0.74334341 0.04456481 -0.42497334
v -0.67867213 0.17104271 -0.34800112
v -0.53826547 0.03596452 -0.36161795
v -0.47444645 0.02152333 -0.48266408
v -0.88062459 0.13849905 -0.63136566
v -0.70163244 0.00609691 -0.82225543
v -0.80551654 0.07500970 -0.74065721
v -0.91166294 0.05717808 -0.58228689
v -0.87062371 0.00000000 -0.52838969
v -0.54800683 0.12093785 -0.62761432
v -0.70640242 0.01096352 -0.59352356
v -0.65726167 0.00000000 -0.73555863
v 0.75398451 0.31221914 -0.74601072
v 0.56658572 0.18624662 -0.92166728
v 0.66462302 0.24223664 -0.84064412
v 0.65393752 0.37702900 -0.82096809
v 0.54637784 0.44299725 -0.88078326
v 0.15112187 0.04334360 -1.06915259
v 0.13761175 0.23868617 -1.06661880
v 0.14344557 0.13865009 -1.07971835
v 0.29746231 0.07778593 -1.04859936
v 0.43000489 0.12204923 -1.00077975
v 0.13773438 0.61574900 -0.95441812
v 0.40350023 0.50965470 -0.92683136
v 0.27552336 0.56576735 -0.94772947
v 0.13961114 0.49550936 -1.00795043
v 0.14133930 0.37709185 -1.04673421
v 0.43182078 0.24354327 -0.98159474
v 0.28374633 0.30975130 -1.02318144
v 0.42526567 0.37573150 -0.95970893
v 0.97631985 0.41969243 0.37669456
v 1.04602301 0.41375065 0.08488949
v 1.02526617 0.41907281 0.22956689
v 0.95746237 0.53461570 0.31144994
v 0.92211246 0.64019269 0.24445105
v 0.97323424 0.41848221 -0.37655213
v 0.91852295 0.64248908 -0.24758425
v 0.95572668 0.53329444 -0.31307599
v 1.01690125 0.41637284 -0.23082079
v 1.03806305 0.41604406 -0.08874988
v 0.70171529 0.91626972 -0.00034073
v 0.85723013 0.75694513 0.15887173
v 0.78668404 0.84255046 0.08302920
v 0.78690678 0.84020102 -0.08080558
v 0.85672688 0.75450802 -0.15803170
v 1.00594401 0.53315187 0.00024966
v 0.94329321 0.65193105 -0.08558723
v 0.94322383 0.65386778 0.08374688
f 330 87 329
f 336 325 26
f 207 208 56
f 464 36 580
f 502 129 504
f 157 624 622
f 308 311 82
f 247 223 248
f 507 483 508
f 331 88 329
f 494 500 497
f 156 601 602
f 591 589 592
f 365 98 596
f 75 281 282
f 152 587 577
f 149 559 560
f 555 121 553
f 530 141 529
f 515 517 139
f 361 594 98
f 250 67 249
f 157 608 609
f 294 293 209
f 317 81 316
f 557 338 26
f 303 305 81
f 530 529 528
f 101 381 382
f 415 418 111
f 192 184 50
f 412 110 411
f 20 384 256
f 131 594 486
f 281 264 282
f 347 287 348
f 28 349 582
f 165 163 1
f 248 250 66
f 617 107 398
f 273 271 274
f 456 115 453
f 558 561 560
f 335 576 91
f 331 177 332
f 116 433 436
f 351 370 92
f 136 511 530
f 239 240 65
f 247 258 19
f 304 23 567
f 148 557 570
f 214 208 58
f 440 426 450
f 268 270 269
f 258 247 268
f 204 202 16
f 466 125 465
f 517 513 133
f 168 275 274
f 275 73 274
f 198 193 53
f 309 308 307
f 510 511 136
f 415 416 110
f 131 490 597
f 473 475 474
f 414 415 111
f 493 495 494
f 496 504 485
f 433 116 432
f 600 375 601
f 240 234 65
f 418 415 412
f 486 361 3
f 567 566 304
f 380 393 29
f 17 199 197
f 491 492 132
f 451 449 435
f 218 217 216
f 623 621 613
f 396 104 395
f 433 439 436
f 628 160 627
f 215 202 217
f 209 207 2
f 427 113 424
f 434 10 544
f 434 433 432
f 199 17 210
f 150 564 565
f 489 491 132
f 275 13 285
f 497 500 134
f 125 466 476
f 578 152 577
f 208 214 211
f 328 88 343
f 356 27 603
f 150 566 567
f 372 100 371
f 190 191 47
f 235 8 398
f 260 261 72
f 422 403 414
f 422 414 111
f 453 454 123
f 349 583 582
f 521 520 519
f 425 453 115
f 616 622 158
f 483 130 508
f 151 586 572
f 212 17 232
f 400 397 402
f 377 396 99
f 41 522 511
f 510 508 505
f 549 547 42
f 475 473 36
f 510 137 509
f 222 221 197
f 430 115 429
f 220 194 1
f 305 54 204
f 621 29 613
f 192 171 184
f 460 335 5
f 88 331 332
f 74 277 279
f 300 301 80
f 390 389 388
f 165 45 164
f 146 549 551
f 291 278 75
f 448 120 445
f 147 543 544
f 607 610 609
f 603 602 356
f 139 529 514
f 333 553 443
f 92 368 347
f 261 260 259
f 300 6 200
f 46 177 331
f 284 283 174
f 301 300 200
f 471 468 474
f 54 305 301
f 302 304 303
f 569 150 567
f 150 569 570
f 294 209 2
f 628 629 160
f 548 543 147
f 147 625 627
f 63 233 234
f 426 427 114
f 41 509 532
f 198 52 196
f 614 105 612
f 147 627 547
f 81 305 306
f 549 548 547
f 54 301 200
f 342 88 332
f 264 281 70
f 193 194 53
f 455 429 456
f 187 321 14
f 479 130 484
f 147 544 625
f 458 456 453
f 304 80 303
f 314 84 313
f 488 503 501
f 321 332 14
f 423 425 424
f 305 204 306
f 341 339 25
f 514 40 516
f 625 628 627
f 340 339 341
f 105 614 391
f 243 228 62
f 318 316 78
f 75 278 279
f 357 355 353
f 238 257 63
f 466 455 476
f 425 423 4
f 448 449 120
f 408 638 108
f 292 275 285
f 22 278 289
f 515 513 517
f 501 503 134
f 622 623 158
f 134 503 504
f 195 216 206
f 163 271 246
f 619 617 620
f 62 228 229
f 163 165 164
f 453 425 454
f 489 132 488
f 82 628 625
f 58 208 209
f 525 608 40
f 626 547 627
f 518 517 498
f 489 487 491
f 557 26 564
f 325 336 344
f 541 145 539
f 40 616 516
f 338 556 89
f 250 248 245
f 139 514 515
f 98 594 596
f 246 220 1
f 112 413 630
f 9 536 413
f 156 600 601
f 332 177 14
f 321 342 332
f 156 606 600
f 584 330 585
f 302 303 81
f 584 87 330
f 330 25 585
f 400 239 65
f 439 440 117
f 95 358 368
f 597 594 131
f 594 361 486
f 246 67 245
f 561 562 149
f 28 364 362
f 55 216 217
f 427 430 114
f 267 20 254
f 556 555 553
f 84 309 558
f 311 310 312
f 609 525 142
f 256 68 255
f 124 460 461
f 82 311 312
f 307 308 82
f 589 135 495
f 527 40 514
f 112 418 412
f 20 256 254
f 258 238 19
f 267 254 269
f 273 272 249
f 392 391 393
f 137 533 509
f 122 455 456
f 9 413 411
f 130 480 505
f 333 443 5
f 527 525 40
f 589 495 385
f 39 496 485
f 223 225 224
f 414 416 415
f 219 222 53
f 145 538 539
f 413 412 411
f 469 468 467
f 183 181 6
f 191 192 50
f 429 35 431
f 292 285 76
f 413 112 412
f 415 110 412
f 43 164 167
f 467 468 126
f 617 101 620
f 450 451 117
f 438 546 545
f 619 620 159
f 17 212 210
f 124 579 576
f 584 153 583
f 460 124 576
f 3 469 467
f 311 308 314
f 6 320 183
f 389 104 388
f 251 250 249
f 194 165 1
f 291 289 278
f 287 77 348
f 238 258 257
f 139 517 518
f 238 236 19
f 223 247 19
f 382 380 29
f 39 518 498
f 361 359 3
f 69 255 257
f 139 518 528
f 33 545 535
f 387 385 7
f 69 268 269
f 477 462 125
f 454 479 123
f 121 555 447
f 451 435 117
f 454 425 4
f 233 252 8
f 124 463 464
f 69 258 268
f 168 167 166
f 583 153 582
f 384 394 102
f 138 512 513
f 57 210 211
f 254 256 255
f 607 609 142
f 324 319 86
f 289 291 76
f 291 292 76
f 384 102 383
f 422 421 420
f 221 17 197
f 383 102 381
f 376 377 99
f 99 373 374
f 386 105 392
f 438 33 440
f 90 341 343
f 281 75 279
f 574 571 96
f 628 82 312
f 221 222 59
f 127 471 474
f 595 605 603
f 551 538 145
f 334 91 340
f 322 324 85
f 305 303 301
f 18 239 399
f 306 204 16
f 199 198 197
f 166 190 180
f 303 80 301
f 267 266 265
f 626 42 547
f 16 215 213
f 349 351 350
f 295 16 213
f 68 379 252
f 250 251 66
f 627 160 626
f 383 68 256
f 343 88 342
f 507 508 136
f 202 215 16
f 197 198 53
f 254 69 269
f 603 605 156
f 418 419 111
f 384 383 256
f 455 122 476
f 203 204 54
f 556 557 148
f 255 68 253
f 313 84 560
f 25 328 341
f 254 255 69
f 603 156 602
f 581 584 583
f 630 632 112
f 163 246 1
f 246 245 220
f 432 116 558
f 499 591 590
f 320 563 86
f 345 93 350
f 306 16 295
f 346 93 345
f 562 568 149
f 604 605 155
f 154 592 593
f 545 552 535
f 511 522 530
f 574 573 571
f 566 150 565
f 361 98 360
f 67 271 273
f 234 235 65
f 208 211 56
f 574 151 573
f 251 270 66
f 398 8 378
f 213 215 214
f 438 440 439
f 315 314 313
f 263 71 262
f 20 373 384
f 496 134 504
f 329 88 328
f 81 306 316
f 555 556 148
f 592 589 103
f 617 619 107
f 227 207 56
f 571 359 96
f 446 466 465
f 206 216 55
f 359 571 469
f 568 148 570
f 34 437 435
f 28 351 349
f 21 272 282
f 113 423 424
f 490 489 488
f 379 68 383
f 210 212 211
f 80 563 300
f 351 92 350
f 326 346 12
f 83 317 318
f 555 148 554
f 212 231 56
f 218 57 217
f 271 67 246
f 195 196 52
f 270 268 66
f 390 592 103
f 148 568 554
f 495 493 7
f 592 390 593
f 357 95 355
f 574 575 151
f 452 120 451
f 154 591 592
f 587 585 577
f 395 394 396
f 93 349 350
f 610 416 611
f 166 44 190
f 315 23 302
f 315 302 317
f 268 247 66
f 606 154 593
f 396 394 99
f 211 212 56
f 370 369 368
f 235 397 65
f 280 278 22
f 83 315 317
f 575 588 151
f 74 279 280
f 385 495 7
f 63 257 253
f 397 235 398
f 214 58 213
f 220 219 194
f 546 146 545
f 236 225 19
f 599 94 602
f 235 233 8
f 102 394 395
f 611 416 32
f 225 223 19
f 139 528 529
f 231 62 229
f 419 406 421
f 451 450 452
f 49 182 185
f 402 397 107
f 52 199 218
f 416 610 110
f 225 236 244
f 107 397 398
f 68 252 253
f 322 85 321
f 182 181 183
f 118 438 439
f 546 438 118
f 348 77 345
f 543 546 118
f 231 212 232
f 610 611 157
f 33 438 545
f 385 386 103
f 479 480 130
f 169 195 15
f 93 583 349
f 15 195 206
f 190 44 192
f 247 248 66
f 146 552 545
f 248 60 245
f 570 557 564
f 274 271 43
f 63 253 233
f 272 21 249
f 507 528 518
f 67 273 249
f 487 467 126
f 196 195 169
f 624 159 623
f 134 496 497
f 132 503 488
f 104 393 395
f 556 553 89
f 355 356 94
f 258 69 257
f 229 61 227
f 56 231 227
f 460 576 335
f 463 124 461
f 394 373 99
f 29 393 391
f 67 250 245
f 193 198 196
f 462 36 464
f 144 633 630
f 141 526 527
f 517 133 498
f 536 144 630
f 100 372 599
f 144 536 537
f 22 289 287
f 578 579 152
f 579 578 576
f 189 188 187
f 60 223 224
f 92 348 350
f 555 554 447
f 396 377 388
f 194 193 165
f 413 536 630
f 372 352 599
f 377 376 375
f 348 345 350
f 105 386 387
f 240 237 234
f 463 462 464
f 135 500 494
f 45 196 169
f 512 612 387
f 245 60 220
f 429 115 456
f 223 60 248
f 288 289 76
f 525 526 142
f 100 599 601
f 613 29 391
f 526 523 520
f 341 328 343
f 631 641 639
f 264 21 282
f 266 72 265
f 106 402 403
f 73 273 274
f 186 206 205
f 381 379 383
f 52 216 195
f 410 18 399
f 290 272 73
f 72 371 374
f 526 525 527
f 115 430 424
f 498 497 496
f 621 382 29
f 543 118 434
f 214 215 57
f 522 141 530
f 511 510 509
f 352 94 599
f 493 512 7
f 90 340 341
f 169 171 170
f 605 604 606
f 219 60 224
f 104 389 392
f 359 469 3
f 186 49 185
f 222 219 224
f 166 167 44
f 428 427 426
f 523 522 524
f 129 502 481
f 50 185 188
f 164 45 170
f 425 115 424
f 33 428 426
f 427 428 113
f 94 356 602
f 515 138 513
f 114 431 452
f 237 236 238
f 215 217 57
f 95 354 355
f 220 60 219
f 515 514 516
f 183 320 319
f 222 197 53
f 559 569 567
f 300 320 6
f 435 436 117
f 96 360 363
f 640 642 641
f 242 243 62
f 140 537 519
f 508 130 505
f 420 410 399
f 537 539 144
f 317 316 318
f 426 114 450
f 186 15 206
f 311 83 310
f 625 544 307
f 544 10 307
f 168 43 167
f 185 182 188
f 369 354 95
f 44 171 192
f 605 606 156
f 548 549 146
f 100 601 375
f 149 568 569
f 381 380 382
f 455 466 35
f 480 479 454
f 543 548 546
f 493 133 513
f 492 472 37
f 477 125 476
f 491 487 126
f 337 336 338
f 588 153 587
f 576 578 91
f 633 161 632
f 96 359 360
f 39 485 483
f 101 617 378
f 193 45 165
f 163 164 43
f 618 624 611
f 507 136 528
f 561 149 560
f 641 162 639
f 116 561 558
f 494 133 493
f 253 252 233
f 63 237 238
f 392 393 104
f 440 450 117
f 93 581 583
f 386 385 387
f 120 449 451
f 421 422 111
f 486 3 467
f 302 81 317
f 633 632 630
f 462 475 36
f 376 99 374
f 489 490 131
f 447 449 448
f 387 612 105
f 106 420 399
f 173 46 172
f 492 491 472
f 316 306 295
f 22 287 347
f 109 410 420
f 507 39 483
f 559 23 313
f 214 57 211
f 196 45 193
f 10 434 432
f 422 106 403
f 626 160 640
f 487 486 467
f 542 41 532
f 400 106 399
f 444 120 452
f 198 199 52
f 475 127 474
f 621 620 382
f 621 623 159
f 450 114 452
f 92 347 348
f 376 100 375
f 434 118 433
f 503 132 502
f 337 90 336
f 537 536 519
f 395 393 380
f 201 54 200
f 171 44 170
f 355 94 353
f 58 296 213
f 422 420 106
f 595 365 596
f 569 568 570
f 523 140 520
f 114 430 431
f 218 210 57
f 304 566 80
f 639 162 638
f 261 371 72
f 548 147 547
f 498 133 497
f 150 570 564
f 222 224 59
f 142 526 520
f 437 436 435
f 141 522 523
f 137 510 505
f 173 179 176
f 559 149 569
f 121 447 448
f 563 320 300
f 102 395 380
f 257 255 253
f 642 162 641
f 83 311 314
f 216 52 218
f 512 493 513
f 23 304 302
f 91 339 340
f 512 138 612
f 159 620 621
f 218 199 210
f 364 28 575
f 83 318 310
f 168 274 43
f 136 530 528
f 140 523 524
f 495 135 494
f 233 235 234
f 566 563 80
f 25 339 577
f 277 74 276
f 475 462 477
f 133 494 497
f 436 437 116
f 389 386 392
f 548 146 546
f 441 460 5
f 10 309 307
f 65 397 400
f 543 434 544
f 640 641 161
f 272 273 73
f 581 93 346
f 419 421 111
f 319 320 86
f 180 179 178
f 127 475 477
f 231 229 227
f 337 334 340
f 136 508 510
f 308 309 84
f 237 63 234
f 447 554 34
f 252 379 378
f 315 83 314
f 608 622 616
f 338 336 26
f 337 338 89
f 13 275 168
f 209 208 207
f 436 439 117
f 628 312 629
f 360 366 363
f 364 574 96
f 359 361 360
f 466 446 35
f 500 501 134
f 406 109 421
f 135 589 591
f 601 599 602
f 340 90 337
f 481 492 37
f 522 41 524
f 78 316 295
f 131 486 487
f 403 32 414
f 634 626 640
f 151 572 573
f 515 516 138
f 8 252 378
f 265 72 374
f 9 521 519
f 538 549 42
f 368 358 347
f 588 587 586
f 458 453 123
f 589 385 103
f 502 492 481
f 32 416 414
f 430 427 424
f 153 585 587
f 540 144 539
f 370 368 92
f 209 293 58
f 428 33 535
f 326 581 346
f 625 307 82
f 575 28 582
f 6 181 200
f 421 109 420
f 553 121 443
f 160 642 640
f 153 584 585
f 309 432 558
f 334 337 89
f 23 315 313
f 271 163 43
f 296 295 213
f 39 498 496
f 118 439 433
f 531 113 534
f 293 296 58
f 28 362 351
f 489 131 487
f 431 444 452
f 84 558 560
f 98 366 360
f 45 169 170
f 379 101 378
f 462 463 125
f 308 84 314
f 10 432 309
f 299 24 310
f 132 492 502
f 512 387 7
f 639 638 408
f 565 323 86
f 59 244 242
f 106 400 402
f 440 33 426
f 566 565 563
f 617 398 378
f 224 225 59
f 410 109 409
f 239 400 399
f 194 219 53
f 358 22 347
f 610 157 609
f 27 595 603
f 479 484 482
f 142 520 521
f 585 25 577
f 339 578 577
f 408 407 406
f 407 109 406
f 31 408 406
f 407 408 108
f 31 639 408
f 419 31 406
f 608 616 40
f 430 429 431
f 455 35 429
f 35 444 431
f 188 51 187
f 188 182 51
f 51 322 187
f 322 51 319
f 51 182 183
f 319 51 183
f 187 322 321
f 322 319 324
f 381 101 379
f 405 407 108
f 404 405 108
f 286 285 178
f 407 405 409
f 109 407 409
f 191 175 47
f 167 164 170
f 50 184 185
f 44 167 170
f 64 244 236
f 243 244 64
f 50 188 189
f 541 542 145
f 442 445 119
f 339 91 578
f 445 446 119
f 624 623 622
f 611 624 157
f 523 526 141
f 141 527 529
f 527 514 529
f 445 120 444
f 446 445 444
f 35 446 444
f 613 614 158
f 158 614 615
f 623 613 158
f 614 613 391
f 614 612 615
f 371 376 374
f 100 376 371
f 479 482 123
f 373 394 384
f 540 42 634
f 633 540 634
f 538 42 540
f 633 634 161
f 161 634 640
f 42 626 634
f 540 633 144
f 557 556 338
f 553 333 89
f 262 21 264
f 251 21 262
f 5 335 333
f 270 251 262
f 21 251 249
f 600 593 30
f 606 593 600
f 600 30 375
f 593 390 30
f 30 377 375
f 390 388 30
f 30 388 377
f 228 243 241
f 470 478 459
f 470 127 478
f 127 477 478
f 184 186 185
f 478 477 476
f 122 478 476
f 357 74 280
f 518 39 507
f 344 342 85
f 325 344 85
f 342 344 343
f 85 342 321
f 344 90 343
f 90 344 336
f 482 129 481
f 482 481 457
f 482 457 123
f 481 37 457
f 449 447 34
f 435 449 34
f 470 472 471
f 472 470 37
f 470 471 127
f 472 126 471
f 126 468 471
f 470 459 37
f 491 126 472
f 504 129 485
f 221 59 242
f 125 463 465
f 437 34 562
f 561 437 562
f 554 568 562
f 34 554 562
f 437 561 116
f 390 103 389
f 103 386 389
f 392 105 391
f 572 586 580
f 572 580 36
f 586 152 580
f 473 572 36
f 244 243 242
f 225 244 59
f 64 240 241
f 240 239 241
f 237 240 64
f 243 64 241
f 236 237 64
f 411 607 521
f 9 411 521
f 110 607 411
f 607 142 521
f 610 607 110
f 171 15 184
f 171 169 15
f 15 186 184
f 87 584 581
f 153 588 582
f 588 575 582
f 381 102 380
f 573 572 473
f 468 469 128
f 474 468 128
f 469 571 128
f 571 573 128
f 573 473 128
f 473 474 128
f 564 323 565
f 26 323 564
f 323 324 86
f 325 323 26
f 325 324 323
f 563 565 86
f 324 325 85
f 410 230 18
f 230 228 18
f 18 228 241
f 18 241 239
f 401 619 618
f 401 402 107
f 403 402 401
f 619 159 618
f 401 618 32
f 619 401 107
f 403 401 32
f 618 611 32
f 159 624 618
f 478 122 459
f 122 458 459
f 37 459 457
f 459 458 457
f 122 456 458
f 457 458 123
f 191 190 192
f 485 129 484
f 129 482 484
f 483 485 484
f 130 483 484
f 189 187 14
f 191 50 189
f 191 189 175
f 189 14 175
f 14 177 175
f 499 501 500
f 501 499 38
f 38 499 590
f 135 499 500
f 488 501 38
f 499 135 591
f 480 454 4
f 284 12 346
f 4 423 506
f 480 4 506
f 423 531 506
f 480 506 505
f 531 137 506
f 506 137 505
f 365 366 98
f 71 270 262
f 270 71 269
f 71 267 269
f 335 334 333
f 333 334 89
f 334 335 91
f 536 9 519
f 465 463 461
f 537 140 541
f 520 140 519
f 119 446 465
f 465 461 119
f 461 441 119
f 460 441 461
f 176 46 173
f 299 297 24
f 71 263 266
f 263 260 266
f 260 72 266
f 263 70 260
f 205 201 49
f 201 181 49
f 186 205 49
f 181 201 200
f 181 182 49
f 284 77 283
f 586 587 152
f 588 586 151
f 20 267 265
f 266 267 71
f 31 417 631
f 631 417 632
f 31 631 639
f 417 31 419
f 641 631 161
f 417 112 632
f 161 631 632
f 418 417 419
f 417 418 112
f 284 345 77
f 542 550 145
f 542 541 524
f 284 174 12
f 48 174 283
f 373 20 265
f 373 265 374
f 609 608 525
f 608 157 622
f 560 559 313
f 636 637 162
f 541 140 524
f 41 542 524
f 358 357 280
f 70 263 264
f 263 262 264
f 176 177 46
f 174 48 173
f 174 173 172
f 538 551 549
f 538 540 539
f 537 541 539
f 232 221 242
f 17 221 232
f 232 242 62
f 231 232 62
f 203 205 55
f 203 55 202
f 201 205 203
f 202 55 217
f 205 206 55
f 204 203 202
f 73 275 292
f 292 290 73
f 272 290 282
f 290 292 291
f 75 290 291
f 290 75 282
f 70 277 259
f 277 70 281
f 277 281 279
f 260 70 259
f 12 174 172
f 104 396 388
f 367 27 354
f 365 27 367
f 354 27 356
f 365 367 366
f 595 27 365
f 318 299 310
f 155 596 597
f 155 597 598
f 596 594 597
f 595 596 155
f 605 595 155
f 180 47 179
f 180 190 47
f 352 372 11
f 11 372 261
f 312 310 24
f 642 636 162
f 636 297 637
f 367 369 97
f 366 367 97
f 369 367 354
f 369 370 97
f 580 579 464
f 580 152 579
f 579 124 464
f 61 230 409
f 230 410 409
f 230 61 229
f 230 229 228
f 76 285 286
f 353 352 276
f 74 353 276
f 288 76 286
f 288 286 283
f 289 288 287
f 203 54 201
f 287 288 77
f 77 288 283
f 286 48 283
f 531 423 113
f 276 11 259
f 11 261 259
f 277 276 259
f 616 158 615
f 516 616 615
f 138 516 615
f 138 615 612
f 509 533 532
f 503 502 504
f 635 79 294
f 635 294 404
f 635 637 79
f 637 635 638
f 638 635 108
f 635 404 108
f 226 61 405
f 61 226 227
f 405 61 409
f 227 226 207
f 48 178 179
f 48 286 178
f 173 48 179
f 534 143 533
f 534 535 143
f 531 534 533
f 533 143 532
f 137 531 533
f 261 372 371
f 13 180 178
f 285 13 178
f 180 13 166
f 13 168 166
f 346 345 284
f 331 327 46
f 46 327 172
f 172 327 326
f 382 620 101
f 442 121 448
f 443 121 442
f 2 226 404
f 294 2 404
f 404 226 405
f 207 226 2
f 550 551 145
f 552 146 551
f 143 550 532
f 552 550 143
f 330 329 328
f 24 636 629
f 94 352 353
f 352 11 276
f 113 428 534
f 428 535 534
f 509 41 511
f 535 552 143
f 550 552 551
f 550 542 532
f 369 95 368
f 326 327 87
f 87 327 329
f 327 331 329
f 581 326 87
f 293 79 298
f 79 297 298
f 296 298 78
f 79 293 294
f 296 293 298
f 598 490 38
f 358 280 22
f 280 279 278
f 357 358 95
f 74 357 353
f 330 328 25
f 567 23 559
f 590 598 38
f 590 604 598
f 598 604 155
f 604 590 154
f 590 591 154
f 604 154 606
f 297 299 298
f 299 318 78
f 298 299 78
f 355 354 356
f 629 636 642
f 312 24 629
f 629 642 160
f 370 362 97
f 362 363 97
f 363 366 97
f 364 363 362
f 362 370 351
f 96 363 364
f 297 636 24
f 162 637 638
f 637 297 79
f 490 488 38
f 598 597 490
f 441 442 119
f 443 442 441
f 443 441 5
f 442 448 445
f 296 78 295
f 326 12 172
f 575 574 364
f 47 175 176
f 175 177 176
f 47 176 179
