# FEM surface export ¡ª frame 437
# Vertices: 642  Faces: 1280
v -0.51769060 1.08102536 -0.00321539
v 0.51820475 1.08065724 -0.00048354
v -0.50883442 0.05348291 -0.04404027
v 0.54573798 0.18642461 0.00704256
v 0.00917912 0.00000000 0.99409628
v 0.00121380 0.81693792 0.86610222
v 0.00398555 0.00000000 -1.00214100
v -0.00027678 0.81489384 -0.86572003
v 0.90801346 0.35583726 -0.55902922
v 0.90716475 0.34837326 0.55686474
v -0.90391099 0.34260383 -0.55689412
v -0.90222079 0.34786177 0.55914980
v -0.82541800 0.79371345 0.31407472
v -0.51838404 0.62753892 0.84049869
v -0.30587116 1.04809701 0.49254161
v 0.30665293 1.04869342 0.49507311
v -0.00003540 1.19019818 -0.00123031
v 0.30481255 1.04911911 -0.49437270
v -0.30681115 1.04803813 -0.49568197
v -0.51872975 0.62256384 -0.83974296
v -0.82622659 0.79049742 -0.31629801
v -1.06445456 0.34990463 0.00548266
v 0.52149409 0.62348741 0.84105909
v 0.82694238 0.79394066 0.31591341
v -0.54864484 0.08547515 0.89171809
v 0.00259888 0.35244474 1.06475222
v -0.93403077 0.00000000 -0.36989042
v -0.96269810 0.00000000 0.36111692
v -0.00055850 0.35339639 -1.06280851
v -0.55444652 0.09560703 -0.89735639
v 0.82716984 0.79225910 -0.31494677
v 0.51776963 0.62750363 -0.84193778
v 0.94588166 0.00000000 0.34332410
v 0.55197108 0.08672480 0.88253051
v 0.31978458 0.01889675 0.56247598
v -0.36017808 0.06358422 0.53380948
v -0.01069849 0.02013935 0.03089246
v -0.33103397 0.02226773 -0.49529409
v 0.31367683 0.00947011 -0.52106816
v 0.54891884 0.10539354 -0.90177315
v 0.93754447 0.00126768 -0.33816534
v 1.06839418 0.35186198 -0.00297933
v -0.69343328 0.96279281 0.15779577
v -0.58817011 0.95214140 0.42341706
v -0.42652798 1.09016132 0.25248426
v -0.73762065 0.49561957 0.72944856
v -0.70785135 0.73157495 0.60263461
v -0.89921153 0.58361870 0.45223203
v -0.15969244 0.95413452 0.70156491
v -0.43100494 0.86920339 0.69353414
v -0.26584435 0.73802078 0.88610452
v -0.15697993 1.15552855 0.25442973
v -0.26437551 1.16419506 -0.00134881
v 0.16052973 0.95397276 0.70251340
v -0.00008479 1.07997000 0.51739502
v 0.26448491 1.16314399 -0.00082889
v 0.15907317 1.15784824 0.25527593
v 0.42760614 1.08965635 0.25532299
v -0.15811980 1.15595841 -0.25739893
v -0.42609018 1.08981168 -0.25782967
v 0.42694634 1.09086978 -0.25600773
v 0.15761608 1.15725410 -0.25703457
v -0.16137007 0.95471430 -0.70233923
v 0.00085466 1.08000541 -0.51786840
v 0.15992074 0.95524168 -0.70291555
v -0.58998430 0.94817114 -0.42674419
v -0.69363338 0.96056485 -0.16259643
v -0.26653430 0.73365146 -0.88468313
v -0.43034014 0.86648464 -0.69612515
v -0.89924484 0.58098245 -0.45403865
v -0.70609039 0.72436780 -0.60289878
v -0.73606718 0.48963392 -0.72960401
v -0.86538970 0.81437373 -0.00196212
v -1.02041054 0.34382933 -0.28429744
v -0.99336922 0.58338779 -0.17129128
v -0.98982710 0.58572912 0.16853942
v -1.02065575 0.34423986 0.29248855
v 0.58990353 0.94854486 0.42629388
v 0.69373840 0.96243650 0.16099365
v 0.26889688 0.73517889 0.88722461
v 0.43199024 0.86554849 0.69647938
v 0.90396047 0.58277965 0.45315203
v 0.71035218 0.72927737 0.60634893
v 0.74177295 0.49581498 0.72794050
v -0.27573514 0.49796161 1.00135112
v 0.00174021 0.59763801 1.00504541
v -0.75374782 0.20987369 0.74429983
v -0.55619770 0.35466719 0.90159464
v -0.00534266 0.12747391 1.04431999
v -0.28136832 0.20860003 1.02129340
v -0.29340103 0.00189676 0.99218416
v -1.03072453 0.11145429 0.17707564
v -0.93729979 0.11790457 0.47685674
v -0.94621545 0.12336788 -0.46788245
v -1.04587531 0.11691517 -0.17230412
v -0.77318293 0.03585153 0.13322283
v -0.99299264 0.00000000 -0.02258457
v -0.76389456 0.10204031 -0.18698129
v -0.56090939 0.35307249 -0.90021294
v -0.75812250 0.20863803 -0.74259764
v 0.00015960 0.59395623 -1.00055683
v -0.27537188 0.49458808 -0.99853134
v -0.29815853 0.00258436 -0.99027759
v -0.28636512 0.21088192 -1.02767992
v -0.00056421 0.12701350 -1.06390285
v 0.43159869 0.86793435 -0.69692647
v 0.26693383 0.73534209 -0.88614202
v 0.69451791 0.96212780 -0.16115403
v 0.58943278 0.94967741 -0.42434815
v 0.73799664 0.49739030 -0.73085672
v 0.70894682 0.72820944 -0.60588658
v 0.90131855 0.58585030 -0.45382446
v 0.78182548 0.09346175 0.16723399
v 0.66140240 0.00415705 0.47830307
v 0.46080175 0.10386116 0.28320438
v 0.76537597 0.20619026 0.74923927
v 0.78457546 0.00000000 0.64889425
v 0.94716841 0.12854759 0.47072741
v 0.16786595 0.00000000 0.82046670
v 0.51072013 0.00000000 0.81130081
v 0.30258852 0.00000000 0.99732405
v 0.16903259 0.09901702 0.30229223
v 0.26001525 0.02278766 0.00338445
v -0.21099129 0.00607275 0.78765446
v -0.03318562 0.05142130 0.57574123
v -0.28816819 0.07252340 0.05898000
v -0.18946187 0.04664078 0.27641493
v -0.45162725 0.02344682 0.23668805
v 0.13977104 0.05982553 -0.26296127
v 0.45775285 0.05498378 -0.24236992
v -0.42063448 0.03681313 -0.25516856
v -0.15330608 0.02212603 -0.19189759
v 0.21859354 0.00192011 -0.76304656
v -0.01560553 0.00124488 -0.50517046
v -0.16800489 0.00362067 -0.78820527
v 0.64957076 0.05565270 -0.45659047
v 0.75731629 0.13548948 -0.17898163
v 0.29491895 0.01740155 -1.00096202
v 0.51306945 0.00000000 -0.81060064
v 0.94232875 0.12533446 -0.47269243
v 0.79547513 0.00782646 -0.68270397
v 0.76403952 0.21760413 -0.75364041
v 0.98637640 0.00000000 -0.00480001
v 1.02537024 0.35412595 -0.29270056
v 1.02820897 0.12337235 -0.17660052
v 1.03617048 0.12142824 0.17158318
v 1.02820063 0.35168791 0.28715000
v 0.28262275 0.20531815 1.01837993
v 0.56399798 0.34789285 0.90158749
v 0.28025192 0.49571490 1.00081706
v -0.69061345 0.00000000 0.46329969
v -0.50430071 0.00436742 0.79204291
v -0.78587574 0.00084158 0.68271059
v -0.48638976 0.00034491 -0.77951717
v -0.65812731 0.08195449 -0.47899961
v -0.80192876 0.03851199 -0.67558616
v 0.55856550 0.35201779 -0.90175974
v 0.28418788 0.22065623 -1.02552223
v 0.27486745 0.49727502 -0.99926382
v 0.99420607 0.58600390 0.16765985
v 0.99235326 0.58713502 -0.16937676
v 0.86645210 0.81588513 0.00093728
v -0.60966289 1.02888703 0.07840815
v -0.56507361 1.03564703 0.20835364
v -0.47524244 1.09135079 0.12645951
v -0.71458107 0.88023776 0.37244031
v -0.64646965 0.96292007 0.29291290
v -0.76574552 0.88435489 0.23584081
v -0.36908418 1.07509708 0.37524736
v -0.51137751 1.02787888 0.34084809
v -0.45089850 1.00820446 0.46276927
v -0.82752967 0.42251953 0.65112519
v -0.82989186 0.54269230 0.59908354
v -0.90937722 0.46805146 0.51084346
v -0.62160450 0.68398184 0.73071814
v -0.73075885 0.61737061 0.67310190
v -0.63454211 0.56449443 0.79282492
v -0.86932063 0.69374651 0.38606533
v -0.81135464 0.66112375 0.53366315
v -0.77589256 0.76979029 0.46367607
v -0.08129995 0.89047396 0.79027271
v -0.21473897 0.85305661 0.80296272
v -0.13278377 0.78017002 0.88542646
v -0.37080514 0.96621525 0.59963161
v -0.29678819 0.91667670 0.70505863
v -0.23504639 1.00663197 0.60149717
v -0.39528733 0.68868941 0.87209427
v -0.35322258 0.80862546 0.79674810
v -0.48022509 0.75638211 0.77544105
v -0.65517145 0.85051560 0.51838529
v -0.57629520 0.80709332 0.65674835
v -0.51542401 0.91877687 0.56487250
v -0.34937188 1.13585031 0.12654766
v -0.39332733 1.12829387 -0.00151322
v -0.23283270 1.11195517 0.37703711
v -0.29450300 1.12934327 0.25618708
v -0.13328031 1.18749249 -0.00183661
v -0.21258648 1.16674030 0.12775600
v -0.07912441 1.18341410 0.12845604
v 0.08221407 0.88947570 0.78947473
v 0.00011651 0.96135771 0.71016389
v 0.15344884 1.07149386 0.51138419
v 0.08046137 1.02362394 0.61398852
v 0.23667374 1.00660431 0.60304242
v -0.07848904 1.02317417 0.61402792
v -0.15356326 1.07243323 0.51090032
v 0.39509165 1.12887180 -0.00055065
v 0.35001543 1.13559783 0.12850901
v 0.47654590 1.09170604 0.12763861
v 0.08017243 1.18148220 0.12800197
v 0.21412560 1.16810012 0.12913302
v 0.13335447 1.18670094 -0.00134923
v 0.37165695 1.07558990 0.37790543
v 0.29391366 1.13080788 0.25798011
v 0.23409837 1.11082470 0.37820899
v -0.08098012 1.12924385 0.39069971
v 0.07933142 1.12859607 0.38933873
v -0.00064031 1.16600227 0.25732964
v -0.34907654 1.13578832 -0.13079512
v -0.47499502 1.09084094 -0.13097508
v -0.07934193 1.18362176 -0.13027857
v -0.21326508 1.16889381 -0.13053532
v -0.37058479 1.07383931 -0.37956816
v -0.29395106 1.12966704 -0.25960428
v -0.23400839 1.11136687 -0.37925383
v 0.47641090 1.09342682 -0.12908913
v 0.34988111 1.13830042 -0.12961234
v 0.23321746 1.11277306 -0.37882906
v 0.29424244 1.13156402 -0.25845751
v 0.36884841 1.07590997 -0.37831730
v 0.21299952 1.16844344 -0.12975928
v 0.07902785 1.18416631 -0.13035050
v -0.08213399 0.88996118 -0.79058343
v 0.00039484 0.96270621 -0.71180272
v 0.08206085 0.88887292 -0.79112637
v -0.15471037 1.07174003 -0.51227456
v -0.08069145 1.02523434 -0.61582655
v -0.23692547 1.00729024 -0.60349548
v 0.23519936 1.00798500 -0.60347807
v 0.08015556 1.02592194 -0.61559248
v 0.15318495 1.07292151 -0.51213813
v -0.00007545 1.16577470 -0.25930199
v 0.08071553 1.12866509 -0.38963968
v -0.08004446 1.12805986 -0.39126390
v -0.56481832 1.03469050 -0.21383350
v -0.61065233 1.02813292 -0.08292976
v -0.45234510 1.00531042 -0.46766371
v -0.51177096 1.02642262 -0.34548691
v -0.76639640 0.88174379 -0.24124452
v -0.64803052 0.96166152 -0.29732659
v -0.71559733 0.87725741 -0.37639922
v -0.13438955 0.77791697 -0.88312453
v -0.21529059 0.85205477 -0.80299592
v -0.47887358 0.75043124 -0.77650124
v -0.35233164 0.80516815 -0.79836780
v -0.39588085 0.68265390 -0.87017292
v -0.29796401 0.91579074 -0.70754158
v -0.37232551 0.96560782 -0.60256296
v -0.90983963 0.46265021 -0.51199210
v -0.82717931 0.53520221 -0.59867406
v -0.82580560 0.41497886 -0.65023988
v -0.77501112 0.76268017 -0.46439341
v -0.80869144 0.65621161 -0.53284597
v -0.86982578 0.68825161 -0.38687685
v -0.63319880 0.56095845 -0.79076082
v -0.72927898 0.61159211 -0.67215753
v -0.62044400 0.67962480 -0.72933137
v -0.51694918 0.91304660 -0.56814790
v -0.57552773 0.80108017 -0.65955329
v -0.65592635 0.84410727 -0.52048379
v -0.70222312 0.96965545 -0.00195469
v -0.85565573 0.80781704 -0.16151044
v -0.78681111 0.89405191 -0.08405519
v -0.78663850 0.89494258 0.07917683
v -0.85393673 0.80838948 0.15755938
v -0.97027981 0.34434015 -0.42461929
v -0.97419518 0.46366221 -0.37734345
v -1.03831077 0.46838129 -0.08552269
v -1.02041268 0.46693915 -0.23109756
v -1.05193746 0.34917825 -0.14174549
v -0.95554370 0.58232927 -0.31521016
v -0.91881049 0.69089836 -0.24731523
v -0.97258562 0.46568999 0.37937325
v -0.97203976 0.34666762 0.43218604
v -0.91881382 0.69434625 0.24529082
v -0.95422363 0.58841175 0.31402344
v -1.05006909 0.34863079 0.14999634
v -1.01625025 0.47024307 0.23503426
v -1.04054737 0.46904168 0.08922335
v -0.94078267 0.70437521 -0.08667092
v -1.00649595 0.58728260 0.00022745
v -0.94145316 0.70631480 0.08228613
v 0.56562674 1.03590298 0.21062437
v 0.61018664 1.02758873 0.07992208
v 0.45269927 1.00651562 0.46665484
v 0.51387560 1.02743208 0.34369496
v 0.76758730 0.88437283 0.23959292
v 0.64857954 0.96308887 0.29608208
v 0.71629781 0.87921083 0.37559670
v 0.13550419 0.77986974 0.88567901
v 0.21744010 0.85236299 0.80347186
v 0.48277536 0.75362444 0.77972758
v 0.35396975 0.80517119 0.79804027
v 0.39867699 0.68384910 0.87381554
v 0.29758433 0.91555351 0.70684242
v 0.37297523 0.96492088 0.60202003
v 0.91336495 0.46603915 0.51065594
v 0.83345926 0.54180938 0.59792179
v 0.83005911 0.42097238 0.64866334
v 0.77752548 0.76586217 0.46459600
v 0.81297934 0.65984470 0.53506535
v 0.87458968 0.69416219 0.38753900
v 0.63675123 0.56058967 0.79460257
v 0.73349637 0.61509436 0.67671448
v 0.62392968 0.68117094 0.73320502
v 0.51821345 0.91522199 0.56843549
v 0.57627416 0.80297166 0.65846401
v 0.65691721 0.84750777 0.52090257
v -0.13498360 0.66949630 0.95672375
v 0.00141288 0.71115452 0.94293237
v -0.40306771 0.56751508 0.93284780
v -0.27410325 0.62057453 0.95300257
v 0.00331882 0.47538313 1.04570448
v -0.13784693 0.54891378 1.01327634
v -0.14002649 0.42732507 1.04769683
v -0.83616620 0.27512485 0.65710288
v -0.75321358 0.35168430 0.74415547
v -0.55805194 0.21755472 0.90482587
v -0.66184902 0.28305867 0.82994449
v -0.65812218 0.14485031 0.82447600
v -0.65279061 0.42634636 0.82376808
v -0.54378015 0.49421927 0.88405800
v 0.00294870 0.03513908 1.03576970
v -0.14773351 0.05593989 1.02357078
v -0.13877812 0.00000000 1.00697446
v -0.14070246 0.28188509 1.05404747
v -0.14864197 0.16622482 1.04883242
v -0.00032227 0.23278917 1.06238937
v -0.42058361 0.04369694 0.95352310
v -0.29189253 0.09201895 1.00799692
v -0.41751772 0.14582068 0.96855742
v -0.42070478 0.42673641 0.96600759
v -0.42538977 0.27886161 0.97492874
v -0.28184259 0.35194623 1.02406764
v -0.99555629 0.23113927 0.38976687
v -0.92495924 0.22783454 0.52108198
v -1.06064892 0.23021735 0.09261244
v -1.03547442 0.22631386 0.23626862
v -0.96042019 0.03269467 0.42737493
v -0.99765348 0.11529445 0.33121613
v -1.00577688 0.02015363 0.26556784
v -0.93154752 0.22972563 -0.51703233
v -0.99203557 0.23101470 -0.37991941
v -1.02300835 0.04295852 -0.25999257
v -0.99877739 0.12155661 -0.32454970
v -0.95913470 0.02167764 -0.42027432
v -1.03514183 0.23006904 -0.22965048
v -1.06320596 0.23487933 -0.08166210
v -0.64824092 0.00000000 0.04271167
v -0.75330412 0.00000000 -0.06202823
v -0.61602885 0.03203677 -0.14726377
v -0.98962146 0.00000000 0.17702304
v -0.89113063 0.00000000 0.06449407
v -0.87150872 0.00025093 0.24360466
v -0.84620202 0.00279563 -0.26201475
v -0.89080864 0.00562352 -0.12552494
v -0.98501164 0.00000000 -0.19815749
v -1.05417955 0.11553352 0.00142809
v -1.06007671 0.02158478 -0.08829647
v -1.05178630 0.01939187 0.08921569
v -0.75335640 0.34635231 -0.74263614
v -0.83840448 0.27270356 -0.65373981
v -0.54542667 0.48772115 -0.87909442
v -0.65386140 0.41829723 -0.82111102
v -0.66795874 0.15059328 -0.82998234
v -0.66570807 0.27761769 -0.83247268
v -0.56591052 0.21710286 -0.90649819
v 0.00050307 0.70867890 -0.94076830
v -0.13509640 0.66879576 -0.95516241
v -0.14126191 0.42466095 -1.04462242
v -0.13845135 0.54716742 -1.00890613
v -0.00008926 0.47460237 -1.04178166
v -0.27305254 0.61800522 -0.94973177
v -0.40145484 0.56128997 -0.92834961
v -0.15406555 0.00000000 -1.01824689
v -0.15028882 0.05869228 -1.04354048
v -0.00003168 0.02745027 -1.05367041
v -0.42384398 0.14980337 -0.97639203
v -0.29264966 0.09707849 -1.01057816
v -0.43334508 0.04235655 -0.94880086
v -0.00089860 0.23365012 -1.06842172
v -0.14505814 0.16355708 -1.04991865
v -0.14423274 0.28249869 -1.05805731
v -0.42238823 0.42282841 -0.96222591
v -0.28674287 0.35155424 -1.02387547
v -0.43267485 0.27783236 -0.97744876
v 0.21644625 0.85166031 -0.80174768
v 0.13429502 0.77835202 -0.88426179
v 0.37109330 0.96659005 -0.60138732
v 0.29755694 0.91743934 -0.70599884
v 0.39618984 0.68663818 -0.87092984
v 0.35360014 0.80737519 -0.79766363
v 0.48158866 0.75296342 -0.77603126
v 0.61112893 1.02816463 -0.08104835
v 0.56553721 1.03655732 -0.21060592
v 0.71647042 0.87892020 -0.37457833
v 0.64801508 0.96372515 -0.29526156
v 0.76811039 0.88332427 -0.23946440
v 0.51236230 1.02777278 -0.34323770
v 0.45173815 1.00780356 -0.46694565
v 0.83103454 0.42673561 -0.65217811
v 0.83189654 0.54521644 -0.60045713
v 0.91370958 0.47245774 -0.51034439
v 0.62134457 0.68206471 -0.73097104
v 0.73026597 0.61523056 -0.67392522
v 0.63232726 0.56250626 -0.79268819
v 0.87060964 0.69220227 -0.38600013
v 0.81226557 0.66105068 -0.53513783
v 0.77628595 0.76589018 -0.46474269
v 0.51732308 0.91628432 -0.56738424
v 0.65725315 0.84618241 -0.51984864
v 0.57617557 0.80413157 -0.65827310
v 0.66032177 0.14049792 0.07690720
v 0.62575179 0.07171994 0.22363372
v 0.50499743 0.13315479 0.15101983
v 0.80771893 0.00837058 0.41731244
v 0.70421255 0.08696198 0.33584678
v 0.85537422 0.08128951 0.26098311
v 0.39137694 0.00000000 0.40665439
v 0.56577790 0.02925260 0.37753379
v 0.48543087 0.02134803 0.52611858
v 0.84226048 0.27503416 0.65814221
v 0.86888725 0.16472074 0.62202448
v 0.92966574 0.23403472 0.52187562
v 0.68123662 0.02460029 0.78242183
v 0.77653146 0.09338625 0.70999509
v 0.66660637 0.13772753 0.82034814
v 0.95476335 0.04426625 0.41218638
v 0.87958390 0.06860437 0.57262170
v 0.88100016 0.00000000 0.50995189
v 0.08532120 0.02116989 0.92130190
v 0.25465199 0.00005511 0.93291253
v 0.15369777 0.00000000 1.01667619
v 0.40850234 0.01780461 0.69021320
v 0.33500233 0.00154501 0.80639982
v 0.24446289 0.00174898 0.68847710
v 0.42877817 0.03357688 0.94600958
v 0.41915277 0.00000000 0.91986322
v 0.55089933 0.00000000 0.87855536
v 0.76181936 0.00000178 0.60085624
v 0.66650593 0.00000000 0.75554520
v 0.58299977 0.00014488 0.64978445
v 0.37385249 0.02063877 0.13366379
v 0.42702362 0.06300896 -0.00441355
v 0.23004739 0.00404612 0.41600338
v 0.31832319 0.03507792 0.27665323
v 0.13174967 0.02262022 0.01314367
v 0.20418498 0.03724663 0.14011973
v 0.08304764 0.07144934 0.15246828
v -0.10482919 0.00002827 0.92079842
v -0.02901768 0.00335362 0.81158412
v -0.19969869 0.10315901 0.57783413
v -0.10769001 0.07407763 0.70725232
v -0.28400189 0.06372909 0.67490208
v 0.07105421 0.03524777 0.70143384
v 0.13909125 0.00688982 0.56128544
v -0.39868641 0.07655481 0.03464467
v -0.38669854 0.16748387 0.14881487
v -0.52973044 0.11328086 0.09136901
v -0.09228776 0.07473698 0.14795049
v -0.22244669 0.18434983 0.16894723
v -0.15739907 0.07408819 0.04114133
v -0.43497768 0.07119053 0.40789050
v -0.31366187 0.06814354 0.27288508
v -0.28443319 0.15387459 0.41741100
v 0.07763205 0.14734922 0.45942098
v -0.11378905 0.14859675 0.44036138
v -0.01274495 0.05587517 0.30640996
v 0.37131017 0.05213914 -0.10415009
v 0.49947867 0.15497892 -0.13457718
v 0.08277593 0.05459658 -0.10341314
v 0.19885789 0.02723520 -0.12521641
v 0.39870882 0.06692754 -0.38176146
v 0.30124503 0.01590713 -0.24507716
v 0.24297337 0.01390764 -0.37189147
v -0.44189122 0.04158726 -0.13901208
v -0.34015030 0.02754860 -0.08949455
v -0.24997097 0.00087154 -0.32454497
v -0.29808319 0.03102938 -0.20009476
v -0.37262514 0.02538148 -0.37525451
v -0.25598389 0.08428079 -0.08943722
v -0.11355600 0.04613051 -0.10790753
v 0.10751475 0.00899981 -0.88399220
v 0.02318829 0.00074981 -0.77768546
v -0.08420968 0.02326016 -0.89493757
v 0.17620920 0.01820176 -0.51567966
v 0.11707182 0.00000000 -0.63427836
v 0.28152117 0.01559292 -0.61371481
v -0.24285614 0.00000491 -0.63818628
v -0.07452626 0.02452883 -0.64993209
v -0.14392477 0.01801789 -0.49401906
v 0.00741226 0.06104756 -0.21773432
v -0.07857963 0.00642804 -0.34689522
v 0.08262648 0.03822034 -0.36121309
v 0.61784357 0.15280175 -0.23573184
v 0.64566457 0.16355318 -0.09064101
v 0.50418174 0.01096846 -0.48957461
v 0.54988635 0.10154022 -0.37215862
v 0.85674298 0.05120772 -0.25893196
v 0.71142572 0.11758266 -0.31918335
v 0.79769886 0.07429671 -0.41085348
v 0.15312758 0.00000000 -1.01687741
v 0.25766784 0.00064443 -0.91881728
v 0.54053950 0.00098590 -0.88032824
v 0.41141713 0.00000000 -0.92277765
v 0.43270108 0.05271029 -0.96147388
v 0.36321974 0.02287180 -0.79214031
v 0.42287341 0.02606289 -0.66739196
v 0.93449539 0.24092850 -0.51738888
v 0.86837715 0.17843972 -0.62078154
v 0.84461129 0.28913322 -0.65864843
v 0.87659526 0.00000000 -0.51235348
v 0.88042194 0.06744278 -0.58344018
v 0.96753716 0.04241333 -0.42866737
v 0.66012973 0.15652253 -0.83033937
v 0.77403748 0.10705736 -0.71718848
v 0.67902356 0.05257892 -0.80532128
v 0.58546203 0.00000000 -0.63640004
v 0.66415197 0.00000000 -0.75991940
v 0.72879684 0.00205911 -0.58510643
v 0.78726131 0.11438441 -0.00858183
v 0.96810412 0.00087721 -0.18444395
v 0.87448829 0.07351261 -0.09339076
v 0.91111714 0.05130835 0.08739892
v 0.97633660 0.00089319 0.18417662
v 0.97423989 0.35343808 -0.42915291
v 0.99316829 0.23829614 -0.38432872
v 1.05987871 0.23044840 -0.08994533
v 1.03374541 0.23341523 -0.23588379
v 1.05595791 0.35015678 -0.14888893
v 0.99857289 0.12666564 -0.33242905
v 1.00915813 0.06585096 -0.27072808
v 0.99735320 0.23459779 0.38569054
v 0.97714877 0.34699714 0.42692104
v 1.01292491 0.04773923 0.25895932
v 0.99940735 0.12968993 0.32328808
v 1.05437577 0.34911290 0.14169855
v 1.04382396 0.23443651 0.23400542
v 1.06068695 0.23254886 0.08399614
v 1.03466892 0.02495012 -0.09965920
v 1.04910827 0.11243283 -0.00121746
v 1.03760517 0.01725973 0.08346095
v 0.15332045 0.04802565 1.02735257
v 0.42117056 0.14231196 0.96527350
v 0.29624313 0.08451146 0.99945438
v 0.14362854 0.15297525 1.03330219
v 0.14392717 0.27492678 1.05356359
v 0.75843585 0.35118288 0.74518335
v 0.55208170 0.48793504 0.88841939
v 0.66056019 0.42414585 0.82401037
v 0.66650265 0.27423525 0.83154696
v 0.56188405 0.20897052 0.90077740
v 0.13833080 0.66958582 0.95754856
v 0.14592837 0.42315039 1.04848886
v 0.14216231 0.54741728 1.01254153
v 0.27715650 0.61985528 0.95418602
v 0.40655211 0.56208485 0.93138415
v 0.43182769 0.27583975 0.97505653
v 0.42780897 0.42115143 0.96868527
v 0.28775418 0.34932935 1.02719712
v -0.61294156 0.02272341 0.19207361
v -0.53496444 0.01016672 0.51545227
v -0.58258653 0.02242614 0.35791346
v -0.73711604 0.03598977 0.29741281
v -0.82167798 0.02221563 0.41616857
v -0.25321484 0.00000000 0.93425345
v -0.52838129 0.00000000 0.89637113
v -0.40201110 0.00000000 0.92491406
v -0.36187786 0.00176364 0.81602180
v -0.44654545 0.03244707 0.67096674
v -0.85492301 0.16033860 0.61990684
v -0.87758869 0.00000000 0.53052711
v -0.86452311 0.05248681 0.57674801
v -0.76684421 0.09624486 0.71408325
v -0.66767180 0.03266874 0.79543710
v -0.60946286 0.00000000 0.63931167
v -0.66562301 0.00000000 0.76868725
v -0.75531703 0.00000000 0.60359770
v -0.25213256 0.00020387 -0.93457800
v -0.38249776 0.06368390 -0.65033895
v -0.33244553 0.00211433 -0.79829335
v -0.41726810 0.00000000 -0.92734689
v -0.55995309 0.00161613 -0.89337087
v -0.59013343 0.08524541 -0.23348249
v -0.79165882 0.00004084 -0.42411873
v -0.70462114 0.08517829 -0.33317885
v -0.51746738 0.01350834 -0.37266457
v -0.47937182 0.07726715 -0.51053500
v -0.86236262 0.16595279 -0.61655128
v -0.68371552 0.04727536 -0.80180317
v -0.78268862 0.09753397 -0.71555650
v -0.89114767 0.07725240 -0.57229722
v -0.88477236 0.00000000 -0.52959216
v -0.57914770 0.03049365 -0.63843429
v -0.75828415 0.00000000 -0.60341418
v -0.66800129 0.00000000 -0.76463580
v 0.75724864 0.35518199 -0.74589521
v 0.55927294 0.22262283 -0.90587044
v 0.66696602 0.28546658 -0.83261544
v 0.65599316 0.42407194 -0.82581168
v 0.54578090 0.49152991 -0.88380384
v 0.14732555 0.06838384 -1.05080497
v 0.14222144 0.28250223 -1.05733871
v 0.14542393 0.17486726 -1.05743563
v 0.29247603 0.10737447 -1.02773416
v 0.42305064 0.15445180 -0.97873962
v 0.13635620 0.66850573 -0.95423806
v 0.40214092 0.56477952 -0.93110222
v 0.27439141 0.62019378 -0.95116735
v 0.13777804 0.54660892 -1.00840807
v 0.14083056 0.42355478 -1.04232442
v 0.43003207 0.27941060 -0.97477823
v 0.28526691 0.35463035 -1.02320528
v 0.42149425 0.42669198 -0.96355981
v 0.98008329 0.46631753 0.37933886
v 1.04526758 0.46774650 0.08602312
v 1.02545249 0.47287709 0.23230426
v 0.95811349 0.58696741 0.31499150
v 0.92177910 0.69453841 0.24536292
v 0.97173160 0.47199473 -0.37663385
v 0.91888970 0.69561142 -0.24628483
v 0.95634782 0.58848631 -0.31420869
v 1.01817977 0.47303852 -0.23219834
v 1.04422653 0.47274148 -0.08740043
v 0.70276648 0.96975064 0.00015423
v 0.85704321 0.81036270 0.15998252
v 0.78763378 0.89584678 0.08293277
v 0.78806788 0.89513540 -0.08167624
v 0.85737151 0.80915308 -0.15797439
v 1.00586212 0.58850271 0.00019862
v 0.94379586 0.70742553 -0.08463813
v 0.94370240 0.70779675 0.08510268
f 330 87 329
f 336 325 26
f 207 208 56
f 464 36 580
f 502 129 504
f 157 624 622
f 308 311 82
f 247 223 248
f 507 483 508
f 331 88 329
f 494 500 497
f 156 601 602
f 591 589 592
f 365 98 596
f 75 281 282
f 152 587 577
f 149 559 560
f 555 121 553
f 530 141 529
f 515 517 139
f 361 594 98
f 250 67 249
f 157 608 609
f 294 293 209
f 317 81 316
f 557 338 26
f 303 305 81
f 530 529 528
f 101 381 382
f 415 418 111
f 192 184 50
f 412 110 411
f 20 384 256
f 131 594 486
f 281 264 282
f 347 287 348
f 28 349 582
f 165 163 1
f 248 250 66
f 617 107 398
f 273 271 274
f 456 115 453
f 558 561 560
f 335 576 91
f 331 177 332
f 116 433 436
f 351 370 92
f 136 511 530
f 239 240 65
f 247 258 19
f 304 23 567
f 148 557 570
f 214 208 58
f 440 426 450
f 268 270 269
f 258 247 268
f 204 202 16
f 466 125 465
f 517 513 133
f 168 275 274
f 275 73 274
f 198 193 53
f 309 308 307
f 510 511 136
f 415 416 110
f 131 490 597
f 473 475 474
f 414 415 111
f 493 495 494
f 496 504 485
f 433 116 432
f 600 375 601
f 240 234 65
f 418 415 412
f 486 361 3
f 567 566 304
f 380 393 29
f 17 199 197
f 491 492 132
f 451 449 435
f 218 217 216
f 623 621 613
f 396 104 395
f 433 439 436
f 628 160 627
f 215 202 217
f 209 207 2
f 427 113 424
f 434 10 544
f 434 433 432
f 199 17 210
f 150 564 565
f 489 491 132
f 275 13 285
f 497 500 134
f 125 466 476
f 578 152 577
f 208 214 211
f 328 88 343
f 356 27 603
f 150 566 567
f 372 100 371
f 190 191 47
f 235 8 398
f 260 261 72
f 422 403 414
f 422 414 111
f 453 454 123
f 349 583 582
f 521 520 519
f 425 453 115
f 616 622 158
f 483 130 508
f 151 586 572
f 212 17 232
f 400 397 402
f 377 396 99
f 41 522 511
f 510 508 505
f 549 547 42
f 475 473 36
f 510 137 509
f 222 221 197
f 430 115 429
f 220 194 1
f 305 54 204
f 621 29 613
f 192 171 184
f 460 335 5
f 88 331 332
f 74 277 279
f 300 301 80
f 390 389 388
f 165 45 164
f 146 549 551
f 291 278 75
f 448 120 445
f 147 543 544
f 607 610 609
f 603 602 356
f 139 529 514
f 333 553 443
f 92 368 347
f 261 260 259
f 300 6 200
f 46 177 331
f 284 283 174
f 301 300 200
f 471 468 474
f 54 305 301
f 302 304 303
f 569 150 567
f 150 569 570
f 294 209 2
f 628 629 160
f 548 543 147
f 147 625 627
f 63 233 234
f 426 427 114
f 41 509 532
f 198 52 196
f 614 105 612
f 147 627 547
f 81 305 306
f 549 548 547
f 54 301 200
f 342 88 332
f 264 281 70
f 193 194 53
f 455 429 456
f 187 321 14
f 479 130 484
f 147 544 625
f 458 456 453
f 304 80 303
f 314 84 313
f 488 503 501
f 321 332 14
f 423 425 424
f 305 204 306
f 341 339 25
f 514 40 516
f 625 628 627
f 340 339 341
f 105 614 391
f 243 228 62
f 318 316 78
f 75 278 279
f 357 355 353
f 238 257 63
f 466 455 476
f 425 423 4
f 448 449 120
f 408 638 108
f 292 275 285
f 22 278 289
f 515 513 517
f 501 503 134
f 622 623 158
f 134 503 504
f 195 216 206
f 163 271 246
f 619 617 620
f 62 228 229
f 163 165 164
f 453 425 454
f 489 132 488
f 82 628 625
f 58 208 209
f 525 608 40
f 626 547 627
f 518 517 498
f 489 487 491
f 557 26 564
f 325 336 344
f 541 145 539
f 40 616 516
f 338 556 89
f 250 248 245
f 139 514 515
f 98 594 596
f 246 220 1
f 112 413 630
f 9 536 413
f 156 600 601
f 332 177 14
f 321 342 332
f 156 606 600
f 584 330 585
f 302 303 81
f 584 87 330
f 330 25 585
f 400 239 65
f 439 440 117
f 95 358 368
f 597 594 131
f 594 361 486
f 246 67 245
f 561 562 149
f 28 364 362
f 55 216 217
f 427 430 114
f 267 20 254
f 556 555 553
f 84 309 558
f 311 310 312
f 609 525 142
f 256 68 255
f 124 460 461
f 82 311 312
f 307 308 82
f 589 135 495
f 527 40 514
f 112 418 412
f 20 256 254
f 258 238 19
f 267 254 269
f 273 272 249
f 392 391 393
f 137 533 509
f 122 455 456
f 9 413 411
f 130 480 505
f 333 443 5
f 527 525 40
f 589 495 385
f 39 496 485
f 223 225 224
f 414 416 415
f 219 222 53
f 145 538 539
f 413 412 411
f 469 468 467
f 183 181 6
f 191 192 50
f 429 35 431
f 292 285 76
f 413 112 412
f 415 110 412
f 43 164 167
f 467 468 126
f 617 101 620
f 450 451 117
f 438 546 545
f 619 620 159
f 17 212 210
f 124 579 576
f 584 153 583
f 460 124 576
f 3 469 467
f 311 308 314
f 6 320 183
f 389 104 388
f 251 250 249
f 194 165 1
f 291 289 278
f 287 77 348
f 238 258 257
f 139 517 518
f 238 236 19
f 223 247 19
f 382 380 29
f 39 518 498
f 361 359 3
f 69 255 257
f 139 518 528
f 33 545 535
f 387 385 7
f 69 268 269
f 477 462 125
f 454 479 123
f 121 555 447
f 451 435 117
f 454 425 4
f 233 252 8
f 124 463 464
f 69 258 268
f 168 167 166
f 583 153 582
f 384 394 102
f 138 512 513
f 57 210 211
f 254 256 255
f 607 609 142
f 324 319 86
f 289 291 76
f 291 292 76
f 384 102 383
f 422 421 420
f 221 17 197
f 383 102 381
f 376 377 99
f 99 373 374
f 386 105 392
f 438 33 440
f 90 341 343
f 281 75 279
f 574 571 96
f 628 82 312
f 221 222 59
f 127 471 474
f 595 605 603
f 551 538 145
f 334 91 340
f 322 324 85
f 305 303 301
f 18 239 399
f 306 204 16
f 199 198 197
f 166 190 180
f 303 80 301
f 267 266 265
f 626 42 547
f 16 215 213
f 349 351 350
f 295 16 213
f 68 379 252
f 250 251 66
f 627 160 626
f 383 68 256
f 343 88 342
f 507 508 136
f 202 215 16
f 197 198 53
f 254 69 269
f 603 605 156
f 418 419 111
f 384 383 256
f 455 122 476
f 203 204 54
f 556 557 148
f 255 68 253
f 313 84 560
f 25 328 341
f 254 255 69
f 603 156 602
f 581 584 583
f 630 632 112
f 163 246 1
f 246 245 220
f 432 116 558
f 499 591 590
f 320 563 86
f 345 93 350
f 306 16 295
f 346 93 345
f 562 568 149
f 604 605 155
f 154 592 593
f 545 552 535
f 511 522 530
f 574 573 571
f 566 150 565
f 361 98 360
f 67 271 273
f 234 235 65
f 208 211 56
f 574 151 573
f 251 270 66
f 398 8 378
f 213 215 214
f 438 440 439
f 315 314 313
f 263 71 262
f 20 373 384
f 496 134 504
f 329 88 328
f 81 306 316
f 555 556 148
f 592 589 103
f 617 619 107
f 227 207 56
f 571 359 96
f 446 466 465
f 206 216 55
f 359 571 469
f 568 148 570
f 34 437 435
f 28 351 349
f 21 272 282
f 113 423 424
f 490 489 488
f 379 68 383
f 210 212 211
f 80 563 300
f 351 92 350
f 326 346 12
f 83 317 318
f 555 148 554
f 212 231 56
f 218 57 217
f 271 67 246
f 195 196 52
f 270 268 66
f 390 592 103
f 148 568 554
f 495 493 7
f 592 390 593
f 357 95 355
f 574 575 151
f 452 120 451
f 154 591 592
f 587 585 577
f 395 394 396
f 93 349 350
f 610 416 611
f 166 44 190
f 315 23 302
f 315 302 317
f 268 247 66
f 606 154 593
f 396 394 99
f 211 212 56
f 370 369 368
f 235 397 65
f 280 278 22
f 83 315 317
f 575 588 151
f 74 279 280
f 385 495 7
f 63 257 253
f 397 235 398
f 214 58 213
f 220 219 194
f 546 146 545
f 236 225 19
f 599 94 602
f 235 233 8
f 102 394 395
f 611 416 32
f 225 223 19
f 139 528 529
f 231 62 229
f 419 406 421
f 451 450 452
f 49 182 185
f 402 397 107
f 52 199 218
f 416 610 110
f 225 236 244
f 107 397 398
f 68 252 253
f 322 85 321
f 182 181 183
f 118 438 439
f 546 438 118
f 348 77 345
f 543 546 118
f 231 212 232
f 610 611 157
f 33 438 545
f 385 386 103
f 479 480 130
f 169 195 15
f 93 583 349
f 15 195 206
f 190 44 192
f 247 248 66
f 146 552 545
f 248 60 245
f 570 557 564
f 274 271 43
f 63 253 233
f 272 21 249
f 507 528 518
f 67 273 249
f 487 467 126
f 196 195 169
f 624 159 623
f 134 496 497
f 132 503 488
f 104 393 395
f 556 553 89
f 355 356 94
f 258 69 257
f 229 61 227
f 56 231 227
f 460 576 335
f 463 124 461
f 394 373 99
f 29 393 391
f 67 250 245
f 193 198 196
f 462 36 464
f 144 633 630
f 141 526 527
f 517 133 498
f 536 144 630
f 100 372 599
f 144 536 537
f 22 289 287
f 578 579 152
f 579 578 576
f 189 188 187
f 60 223 224
f 92 348 350
f 555 554 447
f 396 377 388
f 194 193 165
f 413 536 630
f 372 352 599
f 377 376 375
f 348 345 350
f 105 386 387
f 240 237 234
f 463 462 464
f 135 500 494
f 45 196 169
f 512 612 387
f 245 60 220
f 429 115 456
f 223 60 248
f 288 289 76
f 525 526 142
f 100 599 601
f 613 29 391
f 526 523 520
f 341 328 343
f 631 641 639
f 264 21 282
f 266 72 265
f 106 402 403
f 73 273 274
f 186 206 205
f 381 379 383
f 52 216 195
f 410 18 399
f 290 272 73
f 72 371 374
f 526 525 527
f 115 430 424
f 498 497 496
f 621 382 29
f 543 118 434
f 214 215 57
f 522 141 530
f 511 510 509
f 352 94 599
f 493 512 7
f 90 340 341
f 169 171 170
f 605 604 606
f 219 60 224
f 104 389 392
f 359 469 3
f 186 49 185
f 222 219 224
f 166 167 44
f 428 427 426
f 523 522 524
f 129 502 481
f 50 185 188
f 164 45 170
f 425 115 424
f 33 428 426
f 427 428 113
f 94 356 602
f 515 138 513
f 114 431 452
f 237 236 238
f 215 217 57
f 95 354 355
f 220 60 219
f 515 514 516
f 183 320 319
f 222 197 53
f 559 569 567
f 300 320 6
f 435 436 117
f 96 360 363
f 640 642 641
f 242 243 62
f 140 537 519
f 508 130 505
f 420 410 399
f 537 539 144
f 317 316 318
f 426 114 450
f 186 15 206
f 311 83 310
f 625 544 307
f 544 10 307
f 168 43 167
f 185 182 188
f 369 354 95
f 44 171 192
f 605 606 156
f 548 549 146
f 100 601 375
f 149 568 569
f 381 380 382
f 455 466 35
f 480 479 454
f 543 548 546
f 493 133 513
f 492 472 37
f 477 125 476
f 491 487 126
f 337 336 338
f 588 153 587
f 576 578 91
f 633 161 632
f 96 359 360
f 39 485 483
f 101 617 378
f 193 45 165
f 163 164 43
f 618 624 611
f 507 136 528
f 561 149 560
f 641 162 639
f 116 561 558
f 494 133 493
f 253 252 233
f 63 237 238
f 392 393 104
f 440 450 117
f 93 581 583
f 386 385 387
f 120 449 451
f 421 422 111
f 486 3 467
f 302 81 317
f 633 632 630
f 462 475 36
f 376 99 374
f 489 490 131
f 447 449 448
f 387 612 105
f 106 420 399
f 173 46 172
f 492 491 472
f 316 306 295
f 22 287 347
f 109 410 420
f 507 39 483
f 559 23 313
f 214 57 211
f 196 45 193
f 10 434 432
f 422 106 403
f 626 160 640
f 487 486 467
f 542 41 532
f 400 106 399
f 444 120 452
f 198 199 52
f 475 127 474
f 621 620 382
f 621 623 159
f 450 114 452
f 92 347 348
f 376 100 375
f 434 118 433
f 503 132 502
f 337 90 336
f 537 536 519
f 395 393 380
f 201 54 200
f 171 44 170
f 355 94 353
f 58 296 213
f 422 420 106
f 595 365 596
f 569 568 570
f 523 140 520
f 114 430 431
f 218 210 57
f 304 566 80
f 639 162 638
f 261 371 72
f 548 147 547
f 498 133 497
f 150 570 564
f 222 224 59
f 142 526 520
f 437 436 435
f 141 522 523
f 137 510 505
f 173 179 176
f 559 149 569
f 121 447 448
f 563 320 300
f 102 395 380
f 257 255 253
f 642 162 641
f 83 311 314
f 216 52 218
f 512 493 513
f 23 304 302
f 91 339 340
f 512 138 612
f 159 620 621
f 218 199 210
f 364 28 575
f 83 318 310
f 168 274 43
f 136 530 528
f 140 523 524
f 495 135 494
f 233 235 234
f 566 563 80
f 25 339 577
f 277 74 276
f 475 462 477
f 133 494 497
f 436 437 116
f 389 386 392
f 548 146 546
f 441 460 5
f 10 309 307
f 65 397 400
f 543 434 544
f 640 641 161
f 272 273 73
f 581 93 346
f 419 421 111
f 319 320 86
f 180 179 178
f 127 475 477
f 231 229 227
f 337 334 340
f 136 508 510
f 308 309 84
f 237 63 234
f 447 554 34
f 252 379 378
f 315 83 314
f 608 622 616
f 338 336 26
f 337 338 89
f 13 275 168
f 209 208 207
f 436 439 117
f 628 312 629
f 360 366 363
f 364 574 96
f 359 361 360
f 466 446 35
f 500 501 134
f 406 109 421
f 135 589 591
f 601 599 602
f 340 90 337
f 481 492 37
f 522 41 524
f 78 316 295
f 131 486 487
f 403 32 414
f 634 626 640
f 151 572 573
f 515 516 138
f 8 252 378
f 265 72 374
f 9 521 519
f 538 549 42
f 368 358 347
f 588 587 586
f 458 453 123
f 589 385 103
f 502 492 481
f 32 416 414
f 430 427 424
f 153 585 587
f 540 144 539
f 370 368 92
f 209 293 58
f 428 33 535
f 326 581 346
f 625 307 82
f 575 28 582
f 6 181 200
f 421 109 420
f 553 121 443
f 160 642 640
f 153 584 585
f 309 432 558
f 334 337 89
f 23 315 313
f 271 163 43
f 296 295 213
f 39 498 496
f 118 439 433
f 531 113 534
f 293 296 58
f 28 362 351
f 489 131 487
f 431 444 452
f 84 558 560
f 98 366 360
f 45 169 170
f 379 101 378
f 462 463 125
f 308 84 314
f 10 432 309
f 299 24 310
f 132 492 502
f 512 387 7
f 639 638 408
f 565 323 86
f 59 244 242
f 106 400 402
f 440 33 426
f 566 565 563
f 617 398 378
f 224 225 59
f 410 109 409
f 239 400 399
f 194 219 53
f 358 22 347
f 610 157 609
f 27 595 603
f 479 484 482
f 142 520 521
f 585 25 577
f 339 578 577
f 408 407 406
f 407 109 406
f 31 408 406
f 407 408 108
f 31 639 408
f 419 31 406
f 608 616 40
f 430 429 431
f 455 35 429
f 35 444 431
f 188 51 187
f 188 182 51
f 51 322 187
f 322 51 319
f 51 182 183
f 319 51 183
f 187 322 321
f 322 319 324
f 381 101 379
f 405 407 108
f 404 405 108
f 286 285 178
f 407 405 409
f 109 407 409
f 191 175 47
f 167 164 170
f 50 184 185
f 44 167 170
f 64 244 236
f 243 244 64
f 50 188 189
f 541 542 145
f 442 445 119
f 339 91 578
f 445 446 119
f 624 623 622
f 611 624 157
f 523 526 141
f 141 527 529
f 527 514 529
f 445 120 444
f 446 445 444
f 35 446 444
f 613 614 158
f 158 614 615
f 623 613 158
f 614 613 391
f 614 612 615
f 371 376 374
f 100 376 371
f 479 482 123
f 373 394 384
f 540 42 634
f 633 540 634
f 538 42 540
f 633 634 161
f 161 634 640
f 42 626 634
f 540 633 144
f 557 556 338
f 553 333 89
f 262 21 264
f 251 21 262
f 5 335 333
f 270 251 262
f 21 251 249
f 600 593 30
f 606 593 600
f 600 30 375
f 593 390 30
f 30 377 375
f 390 388 30
f 30 388 377
f 228 243 241
f 470 478 459
f 470 127 478
f 127 477 478
f 184 186 185
f 478 477 476
f 122 478 476
f 357 74 280
f 518 39 507
f 344 342 85
f 325 344 85
f 342 344 343
f 85 342 321
f 344 90 343
f 90 344 336
f 482 129 481
f 482 481 457
f 482 457 123
f 481 37 457
f 449 447 34
f 435 449 34
f 470 472 471
f 472 470 37
f 470 471 127
f 472 126 471
f 126 468 471
f 470 459 37
f 491 126 472
f 504 129 485
f 221 59 242
f 125 463 465
f 437 34 562
f 561 437 562
f 554 568 562
f 34 554 562
f 437 561 116
f 390 103 389
f 103 386 389
f 392 105 391
f 572 586 580
f 572 580 36
f 586 152 580
f 473 572 36
f 244 243 242
f 225 244 59
f 64 240 241
f 240 239 241
f 237 240 64
f 243 64 241
f 236 237 64
f 411 607 521
f 9 411 521
f 110 607 411
f 607 142 521
f 610 607 110
f 171 15 184
f 171 169 15
f 15 186 184
f 87 584 581
f 153 588 582
f 588 575 582
f 381 102 380
f 573 572 473
f 468 469 128
f 474 468 128
f 469 571 128
f 571 573 128
f 573 473 128
f 473 474 128
f 564 323 565
f 26 323 564
f 323 324 86
f 325 323 26
f 325 324 323
f 563 565 86
f 324 325 85
f 410 230 18
f 230 228 18
f 18 228 241
f 18 241 239
f 401 619 618
f 401 402 107
f 403 402 401
f 619 159 618
f 401 618 32
f 619 401 107
f 403 401 32
f 618 611 32
f 159 624 618
f 478 122 459
f 122 458 459
f 37 459 457
f 459 458 457
f 122 456 458
f 457 458 123
f 191 190 192
f 485 129 484
f 129 482 484
f 483 485 484
f 130 483 484
f 189 187 14
f 191 50 189
f 191 189 175
f 189 14 175
f 14 177 175
f 499 501 500
f 501 499 38
f 38 499 590
f 135 499 500
f 488 501 38
f 499 135 591
f 480 454 4
f 284 12 346
f 4 423 506
f 480 4 506
f 423 531 506
f 480 506 505
f 531 137 506
f 506 137 505
f 365 366 98
f 71 270 262
f 270 71 269
f 71 267 269
f 335 334 333
f 333 334 89
f 334 335 91
f 536 9 519
f 465 463 461
f 537 140 541
f 520 140 519
f 119 446 465
f 465 461 119
f 461 441 119
f 460 441 461
f 176 46 173
f 299 297 24
f 71 263 266
f 263 260 266
f 260 72 266
f 263 70 260
f 205 201 49
f 201 181 49
f 186 205 49
f 181 201 200
f 181 182 49
f 284 77 283
f 586 587 152
f 588 586 151
f 20 267 265
f 266 267 71
f 31 417 631
f 631 417 632
f 31 631 639
f 417 31 419
f 641 631 161
f 417 112 632
f 161 631 632
f 418 417 419
f 417 418 112
f 284 345 77
f 542 550 145
f 542 541 524
f 284 174 12
f 48 174 283
f 373 20 265
f 373 265 374
f 609 608 525
f 608 157 622
f 560 559 313
f 636 637 162
f 541 140 524
f 41 542 524
f 358 357 280
f 70 263 264
f 263 262 264
f 176 177 46
f 174 48 173
f 174 173 172
f 538 551 549
f 538 540 539
f 537 541 539
f 232 221 242
f 17 221 232
f 232 242 62
f 231 232 62
f 203 205 55
f 203 55 202
f 201 205 203
f 202 55 217
f 205 206 55
f 204 203 202
f 73 275 292
f 292 290 73
f 272 290 282
f 290 292 291
f 75 290 291
f 290 75 282
f 70 277 259
f 277 70 281
f 277 281 279
f 260 70 259
f 12 174 172
f 104 396 388
f 367 27 354
f 365 27 367
f 354 27 356
f 365 367 366
f 595 27 365
f 318 299 310
f 155 596 597
f 155 597 598
f 596 594 597
f 595 596 155
f 605 595 155
f 180 47 179
f 180 190 47
f 352 372 11
f 11 372 261
f 312 310 24
f 642 636 162
f 636 297 637
f 367 369 97
f 366 367 97
f 369 367 354
f 369 370 97
f 580 579 464
f 580 152 579
f 579 124 464
f 61 230 409
f 230 410 409
f 230 61 229
f 230 229 228
f 76 285 286
f 353 352 276
f 74 353 276
f 288 76 286
f 288 286 283
f 289 288 287
f 203 54 201
f 287 288 77
f 77 288 283
f 286 48 283
f 531 423 113
f 276 11 259
f 11 261 259
f 277 276 259
f 616 158 615
f 516 616 615
f 138 516 615
f 138 615 612
f 509 533 532
f 503 502 504
f 635 79 294
f 635 294 404
f 635 637 79
f 637 635 638
f 638 635 108
f 635 404 108
f 226 61 405
f 61 226 227
f 405 61 409
f 227 226 207
f 48 178 179
f 48 286 178
f 173 48 179
f 534 143 533
f 534 535 143
f 531 534 533
f 533 143 532
f 137 531 533
f 261 372 371
f 13 180 178
f 285 13 178
f 180 13 166
f 13 168 166
f 346 345 284
f 331 327 46
f 46 327 172
f 172 327 326
f 382 620 101
f 442 121 448
f 443 121 442
f 2 226 404
f 294 2 404
f 404 226 405
f 207 226 2
f 550 551 145
f 552 146 551
f 143 550 532
f 552 550 143
f 330 329 328
f 24 636 629
f 94 352 353
f 352 11 276
f 113 428 534
f 428 535 534
f 509 41 511
f 535 552 143
f 550 552 551
f 550 542 532
f 369 95 368
f 326 327 87
f 87 327 329
f 327 331 329
f 581 326 87
f 293 79 298
f 79 297 298
f 296 298 78
f 79 293 294
f 296 293 298
f 598 490 38
f 358 280 22
f 280 279 278
f 357 358 95
f 74 357 353
f 330 328 25
f 567 23 559
f 590 598 38
f 590 604 598
f 598 604 155
f 604 590 154
f 590 591 154
f 604 154 606
f 297 299 298
f 299 318 78
f 298 299 78
f 355 354 356
f 629 636 642
f 312 24 629
f 629 642 160
f 370 362 97
f 362 363 97
f 363 366 97
f 364 363 362
f 362 370 351
f 96 363 364
f 297 636 24
f 162 637 638
f 637 297 79
f 490 488 38
f 598 597 490
f 441 442 119
f 443 442 441
f 443 441 5
f 442 448 445
f 296 78 295
f 326 12 172
f 575 574 364
f 47 175 176
f 175 177 176
f 47 176 179
