# FEM surface export ¡ª frame 36
# Vertices: 642  Faces: 1280
v -0.52573109 1.85376155 0.00000011
v 0.52573121 1.85376143 -0.00000001
v -0.52573109 0.15245982 -0.00000002
v 0.52573109 0.15245979 -0.00000001
v -0.00000003 0.47737944 0.85065079
v 0.00000001 1.52884173 0.85065073
v -0.00000003 0.47737953 -0.85065079
v 0.00000001 1.52884173 -0.85065079
v 0.85065079 1.00311065 -0.52573109
v 0.85065079 1.00311053 0.52573109
v -0.85065079 1.00311053 -0.52573109
v -0.85065079 1.00311065 0.52573109
v -0.80901688 1.50311065 0.30901706
v -0.49999988 1.31212783 0.80901694
v -0.30901700 1.81212771 0.50000000
v 0.30901706 1.81212759 0.50000000
v 0.00000003 2.00311041 0.00000000
v 0.30901700 1.81212783 -0.50000006
v -0.30901700 1.81212759 -0.50000000
v -0.50000000 1.31212771 -0.80901700
v -0.80901700 1.50311065 -0.30901688
v -1.00000000 1.00311053 -0.00000001
v 0.49999985 1.31212771 0.80901694
v 0.80901700 1.50311053 0.30901694
v -0.50000000 0.69409347 0.80901700
v 0.00000006 1.00311065 1.00000000
v -0.80901700 0.50311065 -0.30901700
v -0.80901700 0.50311065 0.30901700
v 0.00000005 1.00311077 -1.00000000
v -0.50000000 0.69409353 -0.80901700
v 0.80901700 1.50311053 -0.30901691
v 0.50000000 1.31212771 -0.80901700
v 0.80901700 0.50311065 0.30901700
v 0.50000000 0.69409353 0.80901700
v 0.30901700 0.19409366 0.50000000
v -0.30901700 0.19409359 0.50000000
v -0.00000001 0.00311059 -0.00000001
v -0.30901700 0.19409363 -0.50000000
v 0.30901700 0.19409360 -0.50000000
v 0.50000000 0.69409359 -0.80901706
v 0.80901700 0.50311065 -0.30901700
v 1.00000000 1.00311053 -0.00000003
v -0.69378048 1.70515704 0.16062203
v -0.58778524 1.69130158 0.42532539
v -0.43388847 1.86577904 0.25989184
v -0.70204645 1.16373265 0.69378048
v -0.68819094 1.42843604 0.58778524
v -0.86266845 1.26300251 0.43388855
v -0.16062200 1.69689119 0.70204645
v -0.42532545 1.59089577 0.68819094
v -0.25989178 1.43699920 0.86266845
v -0.16245990 1.95416713 0.26286563
v -0.27326652 1.96504891 -0.00000000
v 0.16062213 1.69689119 0.70204645
v -0.00000005 1.85376143 0.52573109
v 0.27326652 1.96504891 -0.00000000
v 0.16245987 1.95416713 0.26286572
v 0.43388864 1.86577916 0.25989187
v -0.16245981 1.95416713 -0.26286548
v -0.43388864 1.86577904 -0.25989193
v 0.43388849 1.86577904 -0.25989190
v 0.16245985 1.95416713 -0.26286548
v -0.16062203 1.69689119 -0.70204645
v -0.00000002 1.85376143 -0.52573109
v 0.16062200 1.69689119 -0.70204645
v -0.58778524 1.69130147 -0.42532539
v -0.69378048 1.70515716 -0.16062203
v -0.25989184 1.43699920 -0.86266845
v -0.42532539 1.59089589 -0.68819094
v -0.86266845 1.26300251 -0.43388855
v -0.68819094 1.42843580 -0.58778524
v -0.70204645 1.16373253 -0.69378048
v -0.85065079 1.52884173 0.00000006
v -0.96193838 1.00311065 -0.27326661
v -0.95105654 1.26597619 -0.16245985
v -0.95105654 1.26597607 0.16245991
v -0.96193838 1.00311065 0.27326652
v 0.58778524 1.69130170 0.42532539
v 0.69378048 1.70515716 0.16062200
v 0.25989193 1.43699908 0.86266845
v 0.42532539 1.59089601 0.68819094
v 0.86266834 1.26300240 0.43388852
v 0.68819094 1.42843592 0.58778524
v 0.70204645 1.16373265 0.69378048
v -0.26286554 1.16557038 0.95105654
v 0.00000003 1.27637720 0.96193838
v -0.70204645 0.84248871 0.69378048
v -0.52573115 1.00311065 0.85065079
v 0.00000006 0.72984415 0.96193838
v -0.26286554 0.84065074 0.95105654
v -0.25989193 0.56922203 0.86266845
v -0.95105654 0.74024498 0.16245984
v -0.86266845 0.74321878 0.43388849
v -0.86266845 0.74321872 -0.43388855
v -0.95105654 0.74024504 -0.16245987
v -0.69378048 0.30106422 0.16062203
v -0.85065079 0.47737956 0.00000001
v -0.69378048 0.30106422 -0.16062203
v -0.52573109 1.00311065 -0.85065079
v -0.70204645 0.84248859 -0.69378048
v 0.00000003 1.27637720 -0.96193838
v -0.26286554 1.16557050 -0.95105654
v -0.25989193 0.56922215 -0.86266845
v -0.26286554 0.84065080 -0.95105654
v -0.00000002 0.72984409 -0.96193838
v 0.42532539 1.59089589 -0.68819094
v 0.25989193 1.43699908 -0.86266845
v 0.69378048 1.70515716 -0.16062200
v 0.58778524 1.69130147 -0.42532539
v 0.70204645 1.16373265 -0.69378048
v 0.68819094 1.42843604 -0.58778524
v 0.86266845 1.26300251 -0.43388855
v 0.69378048 0.30106422 0.16062202
v 0.58778524 0.31491974 0.42532539
v 0.43388855 0.14044216 0.25989193
v 0.70204645 0.84248865 0.69378048
v 0.68819094 0.57778525 0.58778524
v 0.86266845 0.74321872 0.43388855
v 0.16062203 0.30933017 0.70204645
v 0.42532539 0.41532543 0.68819094
v 0.25989193 0.56922215 0.86266845
v 0.16245985 0.05205408 0.26286557
v 0.27326652 0.04117225 0.00000001
v -0.16062197 0.30933028 0.70204645
v -0.00000000 0.15245982 0.52573109
v -0.27326652 0.04117224 -0.00000000
v -0.16245985 0.05205411 0.26286554
v -0.43388855 0.14044215 0.25989193
v 0.16245985 0.05205407 -0.26286557
v 0.43388855 0.14044215 -0.25989196
v -0.43388852 0.14044212 -0.25989193
v -0.16245987 0.05205410 -0.26286554
v 0.16062206 0.30933017 -0.70204645
v -0.00000002 0.15245979 -0.52573109
v -0.16062202 0.30933008 -0.70204645
v 0.58778524 0.31491968 -0.42532539
v 0.69378048 0.30106419 -0.16062200
v 0.25989196 0.56922203 -0.86266845
v 0.42532539 0.41532540 -0.68819094
v 0.86266845 0.74321860 -0.43388855
v 0.68819094 0.57778519 -0.58778524
v 0.70204645 0.84248859 -0.69378048
v 0.85065079 0.47737947 -0.00000002
v 0.96193838 1.00311041 -0.27326652
v 0.95105654 0.74024498 -0.16245985
v 0.95105654 0.74024516 0.16245985
v 0.96193838 1.00311053 0.27326661
v 0.26286554 0.84065080 0.95105654
v 0.52573109 1.00311053 0.85065079
v 0.26286554 1.16557038 0.95105672
v -0.58778524 0.31491965 0.42532539
v -0.42532539 0.41532540 0.68819094
v -0.68819094 0.57778531 0.58778524
v -0.42532539 0.41532537 -0.68819094
v -0.58778524 0.31491974 -0.42532533
v -0.68819094 0.57778525 -0.58778524
v 0.52573109 1.00311053 -0.85065079
v 0.26286557 0.84065074 -0.95105654
v 0.26286554 1.16557050 -0.95105654
v 0.95105654 1.26597619 0.16245991
v 0.95105654 1.26597619 -0.16245991
v 0.85065067 1.52884161 -0.00000002
v -0.61564201 1.78695369 0.08108634
v -0.57125163 1.79575992 0.21302281
v -0.48444164 1.86803973 0.13120027
v -0.70710677 1.60461164 0.37174800
v -0.64741188 1.70542049 0.29600459
v -0.75865233 1.60993564 0.23708628
v -0.37503856 1.84702194 0.38361374
v -0.51612163 1.78656220 0.34615302
v -0.45399049 1.76104605 0.46842986
v -0.78384304 1.08419693 0.61564201
v -0.79264921 1.21613359 0.57125163
v -0.86492932 1.13431096 0.48444170
v -0.60150093 1.37485850 0.70710677
v -0.70230985 1.29911518 0.64741188
v -0.60682517 1.24019694 0.75865233
v -0.84391147 1.38672423 0.37503844
v -0.78345168 1.34926367 0.51612163
v -0.75793552 1.47154057 0.45399046
v -0.08108626 1.61875260 0.78384310
v -0.21302290 1.57436228 0.79264921
v -0.13120046 1.48755217 0.86492926
v -0.37174815 1.71021748 0.60150093
v -0.29600468 1.65052259 0.70230985
v -0.23708631 1.76176298 0.60682517
v -0.38361368 1.37814939 0.84391147
v -0.34615296 1.51923239 0.78345168
v -0.46842986 1.45710111 0.75793540
v -0.64657778 1.56736481 0.51337546
v -0.56425422 1.51648605 0.64657778
v -0.51337546 1.64968848 0.56425422
v -0.35822880 1.92741513 0.13165535
v -0.40335533 1.91815388 0.00000002
v -0.23867691 1.89411712 0.38618734
v -0.30125889 1.91935468 0.26408279
v -0.13795231 1.99354970 -0.00000002
v -0.22011706 1.96950316 0.13279253
v -0.08224238 1.99079895 0.13307120
v 0.08108629 1.61875260 0.78384304
v -0.00000003 1.70601785 0.71128172
v 0.15643452 1.84328842 0.51925850
v 0.08114185 1.78331506 0.62023956
v 0.23708631 1.76176298 0.60682517
v -0.08114181 1.78331482 0.62023956
v -0.15643443 1.84328866 0.51925850
v 0.40335533 1.91815400 -0.00000004
v 0.35822877 1.92741525 0.13165538
v 0.48444194 1.86804008 0.13120039
v 0.08224253 1.99079883 0.13307111
v 0.22011700 1.96950328 0.13279249
v 0.13795225 1.99354947 0.00000008
v 0.37503856 1.84702218 0.38361374
v 0.30125883 1.91935480 0.26408276
v 0.23867700 1.89411712 0.38618746
v -0.08232362 1.91609299 0.39960709
v 0.08232349 1.91609299 0.39960706
v 0.00000002 1.96697176 0.26640475
v -0.35822886 1.92741513 -0.13165537
v -0.48444161 1.86803997 -0.13120039
v -0.08224247 1.99079895 -0.13307105
v -0.22011709 1.96950316 -0.13279241
v -0.37503856 1.84702206 -0.38361374
v -0.30125889 1.91935468 -0.26408270
v -0.23867692 1.89411724 -0.38618734
v 0.48444167 1.86803997 -0.13120030
v 0.35822883 1.92741537 -0.13165534
v 0.23867707 1.89411747 -0.38618734
v 0.30125889 1.91935468 -0.26408270
v 0.37503871 1.84702229 -0.38361365
v 0.22011702 1.96950316 -0.13279241
v 0.08224252 1.99079895 -0.13307105
v -0.08108625 1.61875284 -0.78384298
v -0.00000002 1.70601773 -0.71128172
v 0.08108628 1.61875272 -0.78384304
v -0.15643452 1.84328866 -0.51925850
v -0.08114192 1.78331494 -0.62023956
v -0.23708622 1.76176298 -0.60682517
v 0.23708634 1.76176310 -0.60682517
v 0.08114190 1.78331518 -0.62023956
v 0.15643442 1.84328866 -0.51925850
v -0.00000004 1.96697176 -0.26640481
v 0.08232363 1.91609323 -0.39960706
v -0.08232360 1.91609311 -0.39960697
v -0.57125163 1.79575992 -0.21302283
v -0.61564213 1.78695369 -0.08108629
v -0.45399034 1.76104605 -0.46842986
v -0.51612163 1.78656232 -0.34615302
v -0.75865221 1.60993576 -0.23708625
v -0.64741188 1.70542049 -0.29600459
v -0.70710677 1.60461152 -0.37174800
v -0.13120031 1.48755240 -0.86492926
v -0.21302277 1.57436228 -0.79264933
v -0.46842998 1.45710111 -0.75793540
v -0.34615302 1.51923227 -0.78345168
v -0.38361365 1.37814927 -0.84391141
v -0.29600453 1.65052247 -0.70230985
v -0.37174803 1.71021748 -0.60150093
v -0.86492932 1.13431096 -0.48444167
v -0.79264915 1.21613348 -0.57125163
v -0.78384304 1.08419704 -0.61564201
v -0.75793540 1.47154045 -0.45399055
v -0.78345168 1.34926367 -0.51612151
v -0.84391147 1.38672423 -0.37503856
v -0.60682517 1.24019694 -0.75865251
v -0.70230985 1.29911518 -0.64741188
v -0.60150093 1.37485874 -0.70710677
v -0.51337546 1.64968836 -0.56425422
v -0.56425422 1.51648593 -0.64657778
v -0.64657778 1.56736481 -0.51337546
v -0.70290697 1.71439242 -0.00000005
v -0.84017789 1.52236903 -0.15643445
v -0.78020436 1.62335026 -0.08114183
v -0.78020436 1.62335014 0.08114187
v -0.84017789 1.52236915 0.15643442
v -0.91504341 1.00311065 -0.40335530
v -0.92430460 1.13476598 -0.35822898
v -0.98768836 1.13618171 -0.08224243
v -0.96639258 1.13590312 -0.22011706
v -0.99043888 1.00311065 -0.13795221
v -0.91624415 1.26719344 -0.30125889
v -0.89100653 1.38929808 -0.23867692
v -0.92430460 1.13476598 0.35822892
v -0.91504341 1.00311053 0.40335530
v -0.89100647 1.38929796 0.23867705
v -0.91624415 1.26719344 0.30125889
v -0.99043894 1.00311053 0.13795230
v -0.96639258 1.13590300 0.22011702
v -0.98768836 1.13618171 0.08224248
v -0.91298246 1.40271759 -0.08232355
v -0.96386129 1.26951528 0.00000001
v -0.91298246 1.40271759 0.08232357
v 0.57125163 1.79575956 0.21302287
v 0.61564201 1.78695369 0.08108640
v 0.45399043 1.76104593 0.46842986
v 0.51612163 1.78656220 0.34615302
v 0.75865233 1.60993564 0.23708622
v 0.64741188 1.70542049 0.29600447
v 0.70710677 1.60461164 0.37174800
v 0.13120037 1.48755229 0.86492932
v 0.21302287 1.57436216 0.79264921
v 0.46842986 1.45710111 0.75793540
v 0.34615290 1.51923227 0.78345168
v 0.38361374 1.37814915 0.84391147
v 0.29600462 1.65052247 0.70230985
v 0.37174797 1.71021748 0.60150093
v 0.86492932 1.13431108 0.48444161
v 0.79264933 1.21613348 0.57125163
v 0.78384304 1.08419669 0.61564201
v 0.75793540 1.47154033 0.45399049
v 0.78345168 1.34926343 0.51612163
v 0.84391147 1.38672423 0.37503859
v 0.60682511 1.24019706 0.75865233
v 0.70230985 1.29911530 0.64741188
v 0.60150093 1.37485862 0.70710677
v 0.51337546 1.64968824 0.56425422
v 0.56425422 1.51648593 0.64657778
v 0.64657778 1.56736481 0.51337546
v -0.13165537 1.36133945 0.92430460
v -0.00000008 1.40646601 0.91504341
v -0.38618737 1.24178755 0.89100653
v -0.26408270 1.30436957 0.91624415
v -0.00000008 1.14106274 0.99043888
v -0.13279250 1.22322762 0.96639258
v -0.13307111 1.08535314 0.98768836
v -0.78384304 0.92202437 0.61564201
v -0.71128178 1.00311065 0.70290703
v -0.51925850 0.84667611 0.84017789
v -0.62023956 0.92196876 0.78020436
v -0.60682517 0.76602435 0.75865233
v -0.62023956 1.08425236 0.78020436
v -0.51925850 1.15954506 0.84017789
v -0.00000001 0.59975529 0.91504341
v -0.13165535 0.64488167 0.92430460
v -0.13120037 0.51866895 0.86492932
v -0.13307114 0.92086810 0.98768836
v -0.13279246 0.78299356 0.96639258
v -0.00000001 0.86515844 0.99043888
v -0.38361374 0.62807208 0.84391147
v -0.26408285 0.70185184 0.91624415
v -0.38618743 0.76443356 0.89100653
v -0.39960706 1.08543408 0.91298246
v -0.39960706 0.92078704 0.91298246
v -0.26640481 1.00311053 0.96386135
v -0.92430460 0.87145537 0.35822880
v -0.86492932 0.87191027 0.48444164
v -0.98768836 0.87003970 0.08224250
v -0.96639258 0.87031823 0.22011706
v -0.84391147 0.61949694 0.37503856
v -0.91624415 0.73902786 0.30125889
v -0.89100653 0.61692327 0.23867689
v -0.86492932 0.87191027 -0.48444164
v -0.92430460 0.87145531 -0.35822880
v -0.89100653 0.61692327 -0.23867697
v -0.91624415 0.73902792 -0.30125889
v -0.84391147 0.61949694 -0.37503856
v -0.96639258 0.87031817 -0.22011705
v -0.98768836 0.87003958 -0.08224244
v -0.61564201 0.21926764 0.08108631
v -0.70290703 0.29182893 -0.00000000
v -0.61564201 0.21926761 -0.08108629
v -0.84017789 0.48385209 0.15643446
v -0.78020436 0.38287109 0.08114180
v -0.75865233 0.39628550 0.23708633
v -0.75865233 0.39628541 -0.23708625
v -0.78020436 0.38287103 -0.08114186
v -0.84017789 0.48385209 -0.15643446
v -0.96386129 0.73670590 -0.00000000
v -0.91298246 0.60350358 -0.08232355
v -0.91298246 0.60350364 0.08232358
v -0.71128166 1.00311053 -0.70290703
v -0.78384304 0.92202437 -0.61564201
v -0.51925850 1.15954506 -0.84017789
v -0.62023956 1.08425236 -0.78020436
v -0.60682517 0.76602435 -0.75865233
v -0.62023956 0.92196882 -0.78020436
v -0.51925850 0.84667623 -0.84017789
v 0.00000010 1.40646589 -0.91504341
v -0.13165544 1.36133921 -0.92430460
v -0.13307104 1.08535302 -0.98768836
v -0.13279249 1.22322786 -0.96639270
v -0.00000005 1.14106286 -0.99043888
v -0.26408267 1.30436957 -0.91624409
v -0.38618734 1.24178755 -0.89100665
v -0.13120037 0.51866913 -0.86492932
v -0.13165541 0.64488167 -0.92430460
v 0.00000004 0.59975517 -0.91504335
v -0.38618737 0.76443374 -0.89100653
v -0.26408285 0.70185173 -0.91624415
v -0.38361374 0.62807202 -0.84391147
v -0.00000002 0.86515844 -0.99043888
v -0.13279247 0.78299361 -0.96639258
v -0.13307114 0.92086822 -0.98768836
v -0.39960712 1.08543432 -0.91298246
v -0.26640469 1.00311053 -0.96386129
v -0.39960706 0.92078710 -0.91298246
v 0.21302290 1.57436216 -0.79264921
v 0.13120036 1.48755229 -0.86492932
v 0.37174821 1.71021771 -0.60150111
v 0.29600462 1.65052271 -0.70230985
v 0.38361365 1.37814927 -0.84391141
v 0.34615302 1.51923227 -0.78345168
v 0.46842986 1.45710111 -0.75793540
v 0.61564201 1.78695369 -0.08108629
v 0.57125163 1.79575992 -0.21302295
v 0.70710671 1.60461152 -0.37174809
v 0.64741188 1.70542037 -0.29600459
v 0.75865221 1.60993552 -0.23708631
v 0.51612163 1.78656244 -0.34615302
v 0.45399049 1.76104605 -0.46842986
v 0.78384304 1.08419669 -0.61564219
v 0.79264921 1.21613348 -0.57125163
v 0.86492932 1.13431096 -0.48444158
v 0.60150093 1.37485862 -0.70710677
v 0.70230985 1.29911530 -0.64741188
v 0.60682517 1.24019682 -0.75865233
v 0.84391141 1.38672447 -0.37503844
v 0.78345168 1.34926355 -0.51612163
v 0.75793540 1.47154033 -0.45399046
v 0.51337546 1.64968848 -0.56425422
v 0.64657778 1.56736457 -0.51337546
v 0.56425428 1.51648581 -0.64657778
v 0.61564201 0.21926761 0.08108629
v 0.57125163 0.21046136 0.21302286
v 0.48444164 0.13818128 0.13120037
v 0.70710677 0.40160963 0.37174803
v 0.64741188 0.30080080 0.29600456
v 0.75865233 0.39628547 0.23708636
v 0.37503856 0.15919924 0.38361374
v 0.51612163 0.21965896 0.34615302
v 0.45399049 0.24517523 0.46842983
v 0.78384304 0.92202437 0.61564201
v 0.79264921 0.79008788 0.57125163
v 0.86492932 0.87191027 0.48444152
v 0.60150093 0.63136262 0.70710677
v 0.70230985 0.70710599 0.64741188
v 0.60682517 0.76602441 0.75865233
v 0.84391153 0.61949688 0.37503856
v 0.78345168 0.65695763 0.51612163
v 0.75793540 0.53468078 0.45399049
v 0.08108629 0.38746864 0.78384304
v 0.21302283 0.43185893 0.79264921
v 0.13120040 0.51866901 0.86492932
v 0.37174800 0.29600385 0.60150093
v 0.29600462 0.35569870 0.70230985
v 0.23708630 0.24445833 0.60682517
v 0.38361374 0.62807208 0.84391147
v 0.34615302 0.48698911 0.78345168
v 0.46842986 0.54912013 0.75793540
v 0.64657778 0.43885642 0.51337546
v 0.56425422 0.48973522 0.64657778
v 0.51337546 0.35653290 0.56425422
v 0.35822883 0.07880603 0.13165538
v 0.40335536 0.08806720 -0.00000000
v 0.23867695 0.11210412 0.38618737
v 0.30125889 0.08686643 0.26408276
v 0.13795224 0.01267172 0.00000000
v 0.22011702 0.03671799 0.13279249
v 0.08224247 0.01542225 0.13307111
v -0.08108628 0.38746858 0.78384304
v 0.00000002 0.30020362 0.71128172
v -0.15643446 0.16293271 0.51925850
v -0.08114186 0.22290623 0.62023956
v -0.23708625 0.24445832 0.60682517
v 0.08114182 0.22290626 0.62023956
v 0.15643445 0.16293278 0.51925850
v -0.40335536 0.08806720 -0.00000004
v -0.35822880 0.07880598 0.13165538
v -0.48444164 0.13818128 0.13120037
v -0.08224247 0.01542226 0.13307108
v -0.22011705 0.03671801 0.13279246
v -0.13795225 0.01267170 -0.00000002
v -0.37503856 0.15919912 0.38361374
v -0.30125889 0.08686642 0.26408276
v -0.23867694 0.11210409 0.38618737
v 0.08232359 0.09012815 0.39960706
v -0.08232359 0.09012815 0.39960706
v -0.00000000 0.03924934 0.26640469
v 0.35822886 0.07880601 -0.13165541
v 0.48444164 0.13818127 -0.13120037
v 0.08224247 0.01542225 -0.13307111
v 0.22011703 0.03671799 -0.13279247
v 0.37503856 0.15919913 -0.38361374
v 0.30125892 0.08686643 -0.26408276
v 0.23867694 0.11210404 -0.38618737
v -0.48444164 0.13818127 -0.13120042
v -0.35822880 0.07880601 -0.13165537
v -0.23867695 0.11210410 -0.38618737
v -0.30125889 0.08686642 -0.26408276
v -0.37503853 0.15919916 -0.38361374
v -0.22011703 0.03671799 -0.13279247
v -0.08224247 0.01542227 -0.13307111
v 0.08108629 0.38746858 -0.78384304
v 0.00000002 0.30020356 -0.71128172
v -0.08108635 0.38746858 -0.78384304
v 0.15643446 0.16293269 -0.51925850
v 0.08114185 0.22290623 -0.62023956
v 0.23708633 0.24445833 -0.60682517
v -0.23708630 0.24445830 -0.60682517
v -0.08114188 0.22290623 -0.62023956
v -0.15643446 0.16293269 -0.51925850
v -0.00000002 0.03924934 -0.26640469
v -0.08232358 0.09012809 -0.39960709
v 0.08232358 0.09012809 -0.39960706
v 0.57125163 0.21046141 -0.21302283
v 0.61564201 0.21926755 -0.08108625
v 0.45399049 0.24517521 -0.46842986
v 0.51612163 0.21965891 -0.34615302
v 0.75865233 0.39628547 -0.23708627
v 0.64741188 0.30080071 -0.29600459
v 0.70710677 0.40160957 -0.37174803
v 0.13120039 0.51866907 -0.86492932
v 0.21302287 0.43185902 -0.79264921
v 0.46842986 0.54912013 -0.75793540
v 0.34615299 0.48698905 -0.78345168
v 0.38361374 0.62807202 -0.84391147
v 0.29600456 0.35569876 -0.70230985
v 0.37174803 0.29600385 -0.60150093
v 0.86492932 0.87191027 -0.48444155
v 0.79264921 0.79008788 -0.57125163
v 0.78384304 0.92202425 -0.61564201
v 0.75793540 0.53468078 -0.45399049
v 0.78345168 0.65695757 -0.51612163
v 0.84391147 0.61949694 -0.37503856
v 0.60682517 0.76602429 -0.75865233
v 0.70230985 0.70710599 -0.64741188
v 0.60150093 0.63136256 -0.70710677
v 0.51337546 0.35653284 -0.56425422
v 0.56425422 0.48973522 -0.64657778
v 0.64657778 0.43885642 -0.51337546
v 0.70290703 0.29182890 0.00000001
v 0.84017789 0.48385218 -0.15643446
v 0.78020436 0.38287103 -0.08114183
v 0.78020436 0.38287109 0.08114187
v 0.84017789 0.48385221 0.15643446
v 0.91504341 1.00311053 -0.40335536
v 0.92430460 0.87145531 -0.35822880
v 0.98768836 0.87003958 -0.08224247
v 0.96639252 0.87031823 -0.22011709
v 0.99043888 1.00311053 -0.13795230
v 0.91624415 0.73902786 -0.30125895
v 0.89100653 0.61692327 -0.23867698
v 0.92430460 0.87145525 0.35822880
v 0.91504341 1.00311053 0.40335539
v 0.89100653 0.61692321 0.23867695
v 0.91624415 0.73902792 0.30125892
v 0.99043888 1.00311065 0.13795225
v 0.96639258 0.87031811 0.22011705
v 0.98768836 0.87003952 0.08224250
v 0.91298246 0.60350353 -0.08232360
v 0.96386129 0.73670590 0.00000000
v 0.91298246 0.60350353 0.08232355
v 0.13165534 0.64488178 0.92430460
v 0.38618737 0.76443368 0.89100653
v 0.26408276 0.70185167 0.91624415
v 0.13279244 0.78299350 0.96639258
v 0.13307111 0.92086816 0.98768836
v 0.71128172 1.00311053 0.70290697
v 0.51925850 1.15954506 0.84017789
v 0.62023968 1.08425236 0.78020436
v 0.62023956 0.92196882 0.78020436
v 0.51925850 0.84667611 0.84017789
v 0.13165537 1.36133945 0.92430460
v 0.13307114 1.08535302 0.98768836
v 0.13279247 1.22322774 0.96639258
v 0.26408276 1.30436933 0.91624409
v 0.38618743 1.24178755 0.89100653
v 0.39960706 0.92078710 0.91298246
v 0.39960700 1.08543408 0.91298246
v 0.26640469 1.00311065 0.96386129
v -0.57125163 0.21046141 0.21302289
v -0.45399049 0.24517517 0.46842986
v -0.51612163 0.21965891 0.34615302
v -0.64741188 0.30080077 0.29600462
v -0.70710677 0.40160966 0.37174803
v -0.21302284 0.43185893 0.79264921
v -0.46842986 0.54912013 0.75793540
v -0.34615302 0.48698902 0.78345168
v -0.29600459 0.35569876 0.70230985
v -0.37174800 0.29600385 0.60150093
v -0.79264921 0.79008776 0.57125163
v -0.75793540 0.53468078 0.45399049
v -0.78345168 0.65695763 0.51612163
v -0.70230985 0.70710605 0.64741188
v -0.60150093 0.63136256 0.70710677
v -0.51337546 0.35653281 0.56425422
v -0.56425422 0.48973522 0.64657778
v -0.64657778 0.43885636 0.51337546
v -0.21302289 0.43185896 -0.79264921
v -0.37174803 0.29600388 -0.60150093
v -0.29600459 0.35569873 -0.70230985
v -0.34615302 0.48698905 -0.78345168
v -0.46842986 0.54912007 -0.75793540
v -0.57125163 0.21046144 -0.21302289
v -0.70710677 0.40160969 -0.37174803
v -0.64741188 0.30080080 -0.29600459
v -0.51612163 0.21965893 -0.34615302
v -0.45399049 0.24517520 -0.46842986
v -0.79264921 0.79008782 -0.57125163
v -0.60150093 0.63136262 -0.70710677
v -0.70230985 0.70710605 -0.64741188
v -0.78345168 0.65695757 -0.51612163
v -0.75793540 0.53468072 -0.45399043
v -0.51337546 0.35653284 -0.56425422
v -0.64657778 0.43885642 -0.51337546
v -0.56425422 0.48973525 -0.64657778
v 0.71128184 1.00311041 -0.70290703
v 0.51925850 0.84667617 -0.84017789
v 0.62023956 0.92196882 -0.78020436
v 0.62023956 1.08425248 -0.78020436
v 0.51925850 1.15954506 -0.84017789
v 0.13165537 0.64488178 -0.92430460
v 0.13307111 0.92086810 -0.98768836
v 0.13279247 0.78299350 -0.96639258
v 0.26408282 0.70185161 -0.91624415
v 0.38618737 0.76443368 -0.89100653
v 0.13165531 1.36133945 -0.92430454
v 0.38618737 1.24178743 -0.89100647
v 0.26408267 1.30436957 -0.91624415
v 0.13279250 1.22322786 -0.96639258
v 0.13307108 1.08535302 -0.98768836
v 0.39960715 0.92078710 -0.91298246
v 0.26640463 1.00311065 -0.96386129
v 0.39960706 1.08543408 -0.91298246
v 0.92430460 1.13476598 0.35822880
v 0.98768842 1.13618171 0.08224247
v 0.96639258 1.13590300 0.22011703
v 0.91624409 1.26719344 0.30125889
v 0.89100653 1.38929796 0.23867686
v 0.92430454 1.13476598 -0.35822883
v 0.89100641 1.38929808 -0.23867701
v 0.91624415 1.26719332 -0.30125895
v 0.96639258 1.13590312 -0.22011706
v 0.98768836 1.13618159 -0.08224250
v 0.70290709 1.71439242 0.00000008
v 0.84017789 1.52236915 0.15643452
v 0.78020436 1.62335014 0.08114189
v 0.78020436 1.62335026 -0.08114191
v 0.84017789 1.52236927 -0.15643440
v 0.96386129 1.26951540 0.00000002
v 0.91298246 1.40271759 -0.08232351
v 0.91298246 1.40271759 0.08232357
f 330 87 329
f 336 325 26
f 207 208 56
f 464 36 580
f 502 129 504
f 157 624 622
f 308 311 82
f 247 223 248
f 507 483 508
f 331 88 329
f 494 500 497
f 156 601 602
f 591 589 592
f 365 98 596
f 75 281 282
f 152 587 577
f 149 559 560
f 555 121 553
f 530 141 529
f 515 517 139
f 361 594 98
f 250 67 249
f 157 608 609
f 294 293 209
f 317 81 316
f 557 338 26
f 303 305 81
f 530 529 528
f 101 381 382
f 415 418 111
f 192 184 50
f 412 110 411
f 20 384 256
f 131 594 486
f 281 264 282
f 347 287 348
f 28 349 582
f 165 163 1
f 248 250 66
f 617 107 398
f 273 271 274
f 456 115 453
f 558 561 560
f 335 576 91
f 331 177 332
f 116 433 436
f 351 370 92
f 136 511 530
f 239 240 65
f 247 258 19
f 304 23 567
f 148 557 570
f 214 208 58
f 440 426 450
f 268 270 269
f 258 247 268
f 204 202 16
f 466 125 465
f 517 513 133
f 168 275 274
f 275 73 274
f 198 193 53
f 309 308 307
f 510 511 136
f 415 416 110
f 131 490 597
f 473 475 474
f 414 415 111
f 493 495 494
f 496 504 485
f 433 116 432
f 600 375 601
f 240 234 65
f 418 415 412
f 486 361 3
f 567 566 304
f 380 393 29
f 17 199 197
f 491 492 132
f 451 449 435
f 218 217 216
f 623 621 613
f 396 104 395
f 433 439 436
f 628 160 627
f 215 202 217
f 209 207 2
f 427 113 424
f 434 10 544
f 434 433 432
f 199 17 210
f 150 564 565
f 489 491 132
f 275 13 285
f 497 500 134
f 125 466 476
f 578 152 577
f 208 214 211
f 328 88 343
f 356 27 603
f 150 566 567
f 372 100 371
f 190 191 47
f 235 8 398
f 260 261 72
f 422 403 414
f 422 414 111
f 453 454 123
f 349 583 582
f 521 520 519
f 425 453 115
f 616 622 158
f 483 130 508
f 151 586 572
f 212 17 232
f 400 397 402
f 377 396 99
f 41 522 511
f 510 508 505
f 549 547 42
f 475 473 36
f 510 137 509
f 222 221 197
f 430 115 429
f 220 194 1
f 305 54 204
f 621 29 613
f 192 171 184
f 460 335 5
f 88 331 332
f 74 277 279
f 300 301 80
f 390 389 388
f 165 45 164
f 146 549 551
f 291 278 75
f 448 120 445
f 147 543 544
f 607 610 609
f 603 602 356
f 139 529 514
f 333 553 443
f 92 368 347
f 261 260 259
f 300 6 200
f 46 177 331
f 284 283 174
f 301 300 200
f 471 468 474
f 54 305 301
f 302 304 303
f 569 150 567
f 150 569 570
f 294 209 2
f 628 629 160
f 548 543 147
f 147 625 627
f 63 233 234
f 426 427 114
f 41 509 532
f 198 52 196
f 614 105 612
f 147 627 547
f 81 305 306
f 549 548 547
f 54 301 200
f 342 88 332
f 264 281 70
f 193 194 53
f 455 429 456
f 187 321 14
f 479 130 484
f 147 544 625
f 458 456 453
f 304 80 303
f 314 84 313
f 488 503 501
f 321 332 14
f 423 425 424
f 305 204 306
f 341 339 25
f 514 40 516
f 625 628 627
f 340 339 341
f 105 614 391
f 243 228 62
f 318 316 78
f 75 278 279
f 357 355 353
f 238 257 63
f 466 455 476
f 425 423 4
f 448 449 120
f 408 638 108
f 292 275 285
f 22 278 289
f 515 513 517
f 501 503 134
f 622 623 158
f 134 503 504
f 195 216 206
f 163 271 246
f 619 617 620
f 62 228 229
f 163 165 164
f 453 425 454
f 489 132 488
f 82 628 625
f 58 208 209
f 525 608 40
f 626 547 627
f 518 517 498
f 489 487 491
f 557 26 564
f 325 336 344
f 541 145 539
f 40 616 516
f 338 556 89
f 250 248 245
f 139 514 515
f 98 594 596
f 246 220 1
f 112 413 630
f 9 536 413
f 156 600 601
f 332 177 14
f 321 342 332
f 156 606 600
f 584 330 585
f 302 303 81
f 584 87 330
f 330 25 585
f 400 239 65
f 439 440 117
f 95 358 368
f 597 594 131
f 594 361 486
f 246 67 245
f 561 562 149
f 28 364 362
f 55 216 217
f 427 430 114
f 267 20 254
f 556 555 553
f 84 309 558
f 311 310 312
f 609 525 142
f 256 68 255
f 124 460 461
f 82 311 312
f 307 308 82
f 589 135 495
f 527 40 514
f 112 418 412
f 20 256 254
f 258 238 19
f 267 254 269
f 273 272 249
f 392 391 393
f 137 533 509
f 122 455 456
f 9 413 411
f 130 480 505
f 333 443 5
f 527 525 40
f 589 495 385
f 39 496 485
f 223 225 224
f 414 416 415
f 219 222 53
f 145 538 539
f 413 412 411
f 469 468 467
f 183 181 6
f 191 192 50
f 429 35 431
f 292 285 76
f 413 112 412
f 415 110 412
f 43 164 167
f 467 468 126
f 617 101 620
f 450 451 117
f 438 546 545
f 619 620 159
f 17 212 210
f 124 579 576
f 584 153 583
f 460 124 576
f 3 469 467
f 311 308 314
f 6 320 183
f 389 104 388
f 251 250 249
f 194 165 1
f 291 289 278
f 287 77 348
f 238 258 257
f 139 517 518
f 238 236 19
f 223 247 19
f 382 380 29
f 39 518 498
f 361 359 3
f 69 255 257
f 139 518 528
f 33 545 535
f 387 385 7
f 69 268 269
f 477 462 125
f 454 479 123
f 121 555 447
f 451 435 117
f 454 425 4
f 233 252 8
f 124 463 464
f 69 258 268
f 168 167 166
f 583 153 582
f 384 394 102
f 138 512 513
f 57 210 211
f 254 256 255
f 607 609 142
f 324 319 86
f 289 291 76
f 291 292 76
f 384 102 383
f 422 421 420
f 221 17 197
f 383 102 381
f 376 377 99
f 99 373 374
f 386 105 392
f 438 33 440
f 90 341 343
f 281 75 279
f 574 571 96
f 628 82 312
f 221 222 59
f 127 471 474
f 595 605 603
f 551 538 145
f 334 91 340
f 322 324 85
f 305 303 301
f 18 239 399
f 306 204 16
f 199 198 197
f 166 190 180
f 303 80 301
f 267 266 265
f 626 42 547
f 16 215 213
f 349 351 350
f 295 16 213
f 68 379 252
f 250 251 66
f 627 160 626
f 383 68 256
f 343 88 342
f 507 508 136
f 202 215 16
f 197 198 53
f 254 69 269
f 603 605 156
f 418 419 111
f 384 383 256
f 455 122 476
f 203 204 54
f 556 557 148
f 255 68 253
f 313 84 560
f 25 328 341
f 254 255 69
f 603 156 602
f 581 584 583
f 630 632 112
f 163 246 1
f 246 245 220
f 432 116 558
f 499 591 590
f 320 563 86
f 345 93 350
f 306 16 295
f 346 93 345
f 562 568 149
f 604 605 155
f 154 592 593
f 545 552 535
f 511 522 530
f 574 573 571
f 566 150 565
f 361 98 360
f 67 271 273
f 234 235 65
f 208 211 56
f 574 151 573
f 251 270 66
f 398 8 378
f 213 215 214
f 438 440 439
f 315 314 313
f 263 71 262
f 20 373 384
f 496 134 504
f 329 88 328
f 81 306 316
f 555 556 148
f 592 589 103
f 617 619 107
f 227 207 56
f 571 359 96
f 446 466 465
f 206 216 55
f 359 571 469
f 568 148 570
f 34 437 435
f 28 351 349
f 21 272 282
f 113 423 424
f 490 489 488
f 379 68 383
f 210 212 211
f 80 563 300
f 351 92 350
f 326 346 12
f 83 317 318
f 555 148 554
f 212 231 56
f 218 57 217
f 271 67 246
f 195 196 52
f 270 268 66
f 390 592 103
f 148 568 554
f 495 493 7
f 592 390 593
f 357 95 355
f 574 575 151
f 452 120 451
f 154 591 592
f 587 585 577
f 395 394 396
f 93 349 350
f 610 416 611
f 166 44 190
f 315 23 302
f 315 302 317
f 268 247 66
f 606 154 593
f 396 394 99
f 211 212 56
f 370 369 368
f 235 397 65
f 280 278 22
f 83 315 317
f 575 588 151
f 74 279 280
f 385 495 7
f 63 257 253
f 397 235 398
f 214 58 213
f 220 219 194
f 546 146 545
f 236 225 19
f 599 94 602
f 235 233 8
f 102 394 395
f 611 416 32
f 225 223 19
f 139 528 529
f 231 62 229
f 419 406 421
f 451 450 452
f 49 182 185
f 402 397 107
f 52 199 218
f 416 610 110
f 225 236 244
f 107 397 398
f 68 252 253
f 322 85 321
f 182 181 183
f 118 438 439
f 546 438 118
f 348 77 345
f 543 546 118
f 231 212 232
f 610 611 157
f 33 438 545
f 385 386 103
f 479 480 130
f 169 195 15
f 93 583 349
f 15 195 206
f 190 44 192
f 247 248 66
f 146 552 545
f 248 60 245
f 570 557 564
f 274 271 43
f 63 253 233
f 272 21 249
f 507 528 518
f 67 273 249
f 487 467 126
f 196 195 169
f 624 159 623
f 134 496 497
f 132 503 488
f 104 393 395
f 556 553 89
f 355 356 94
f 258 69 257
f 229 61 227
f 56 231 227
f 460 576 335
f 463 124 461
f 394 373 99
f 29 393 391
f 67 250 245
f 193 198 196
f 462 36 464
f 144 633 630
f 141 526 527
f 517 133 498
f 536 144 630
f 100 372 599
f 144 536 537
f 22 289 287
f 578 579 152
f 579 578 576
f 189 188 187
f 60 223 224
f 92 348 350
f 555 554 447
f 396 377 388
f 194 193 165
f 413 536 630
f 372 352 599
f 377 376 375
f 348 345 350
f 105 386 387
f 240 237 234
f 463 462 464
f 135 500 494
f 45 196 169
f 512 612 387
f 245 60 220
f 429 115 456
f 223 60 248
f 288 289 76
f 525 526 142
f 100 599 601
f 613 29 391
f 526 523 520
f 341 328 343
f 631 641 639
f 264 21 282
f 266 72 265
f 106 402 403
f 73 273 274
f 186 206 205
f 381 379 383
f 52 216 195
f 410 18 399
f 290 272 73
f 72 371 374
f 526 525 527
f 115 430 424
f 498 497 496
f 621 382 29
f 543 118 434
f 214 215 57
f 522 141 530
f 511 510 509
f 352 94 599
f 493 512 7
f 90 340 341
f 169 171 170
f 605 604 606
f 219 60 224
f 104 389 392
f 359 469 3
f 186 49 185
f 222 219 224
f 166 167 44
f 428 427 426
f 523 522 524
f 129 502 481
f 50 185 188
f 164 45 170
f 425 115 424
f 33 428 426
f 427 428 113
f 94 356 602
f 515 138 513
f 114 431 452
f 237 236 238
f 215 217 57
f 95 354 355
f 220 60 219
f 515 514 516
f 183 320 319
f 222 197 53
f 559 569 567
f 300 320 6
f 435 436 117
f 96 360 363
f 640 642 641
f 242 243 62
f 140 537 519
f 508 130 505
f 420 410 399
f 537 539 144
f 317 316 318
f 426 114 450
f 186 15 206
f 311 83 310
f 625 544 307
f 544 10 307
f 168 43 167
f 185 182 188
f 369 354 95
f 44 171 192
f 605 606 156
f 548 549 146
f 100 601 375
f 149 568 569
f 381 380 382
f 455 466 35
f 480 479 454
f 543 548 546
f 493 133 513
f 492 472 37
f 477 125 476
f 491 487 126
f 337 336 338
f 588 153 587
f 576 578 91
f 633 161 632
f 96 359 360
f 39 485 483
f 101 617 378
f 193 45 165
f 163 164 43
f 618 624 611
f 507 136 528
f 561 149 560
f 641 162 639
f 116 561 558
f 494 133 493
f 253 252 233
f 63 237 238
f 392 393 104
f 440 450 117
f 93 581 583
f 386 385 387
f 120 449 451
f 421 422 111
f 486 3 467
f 302 81 317
f 633 632 630
f 462 475 36
f 376 99 374
f 489 490 131
f 447 449 448
f 387 612 105
f 106 420 399
f 173 46 172
f 492 491 472
f 316 306 295
f 22 287 347
f 109 410 420
f 507 39 483
f 559 23 313
f 214 57 211
f 196 45 193
f 10 434 432
f 422 106 403
f 626 160 640
f 487 486 467
f 542 41 532
f 400 106 399
f 444 120 452
f 198 199 52
f 475 127 474
f 621 620 382
f 621 623 159
f 450 114 452
f 92 347 348
f 376 100 375
f 434 118 433
f 503 132 502
f 337 90 336
f 537 536 519
f 395 393 380
f 201 54 200
f 171 44 170
f 355 94 353
f 58 296 213
f 422 420 106
f 595 365 596
f 569 568 570
f 523 140 520
f 114 430 431
f 218 210 57
f 304 566 80
f 639 162 638
f 261 371 72
f 548 147 547
f 498 133 497
f 150 570 564
f 222 224 59
f 142 526 520
f 437 436 435
f 141 522 523
f 137 510 505
f 173 179 176
f 559 149 569
f 121 447 448
f 563 320 300
f 102 395 380
f 257 255 253
f 642 162 641
f 83 311 314
f 216 52 218
f 512 493 513
f 23 304 302
f 91 339 340
f 512 138 612
f 159 620 621
f 218 199 210
f 364 28 575
f 83 318 310
f 168 274 43
f 136 530 528
f 140 523 524
f 495 135 494
f 233 235 234
f 566 563 80
f 25 339 577
f 277 74 276
f 475 462 477
f 133 494 497
f 436 437 116
f 389 386 392
f 548 146 546
f 441 460 5
f 10 309 307
f 65 397 400
f 543 434 544
f 640 641 161
f 272 273 73
f 581 93 346
f 419 421 111
f 319 320 86
f 180 179 178
f 127 475 477
f 231 229 227
f 337 334 340
f 136 508 510
f 308 309 84
f 237 63 234
f 447 554 34
f 252 379 378
f 315 83 314
f 608 622 616
f 338 336 26
f 337 338 89
f 13 275 168
f 209 208 207
f 436 439 117
f 628 312 629
f 360 366 363
f 364 574 96
f 359 361 360
f 466 446 35
f 500 501 134
f 406 109 421
f 135 589 591
f 601 599 602
f 340 90 337
f 481 492 37
f 522 41 524
f 78 316 295
f 131 486 487
f 403 32 414
f 634 626 640
f 151 572 573
f 515 516 138
f 8 252 378
f 265 72 374
f 9 521 519
f 538 549 42
f 368 358 347
f 588 587 586
f 458 453 123
f 589 385 103
f 502 492 481
f 32 416 414
f 430 427 424
f 153 585 587
f 540 144 539
f 370 368 92
f 209 293 58
f 428 33 535
f 326 581 346
f 625 307 82
f 575 28 582
f 6 181 200
f 421 109 420
f 553 121 443
f 160 642 640
f 153 584 585
f 309 432 558
f 334 337 89
f 23 315 313
f 271 163 43
f 296 295 213
f 39 498 496
f 118 439 433
f 531 113 534
f 293 296 58
f 28 362 351
f 489 131 487
f 431 444 452
f 84 558 560
f 98 366 360
f 45 169 170
f 379 101 378
f 462 463 125
f 308 84 314
f 10 432 309
f 299 24 310
f 132 492 502
f 512 387 7
f 639 638 408
f 565 323 86
f 59 244 242
f 106 400 402
f 440 33 426
f 566 565 563
f 617 398 378
f 224 225 59
f 410 109 409
f 239 400 399
f 194 219 53
f 358 22 347
f 610 157 609
f 27 595 603
f 479 484 482
f 142 520 521
f 585 25 577
f 339 578 577
f 408 407 406
f 407 109 406
f 31 408 406
f 407 408 108
f 31 639 408
f 419 31 406
f 608 616 40
f 430 429 431
f 455 35 429
f 35 444 431
f 188 51 187
f 188 182 51
f 51 322 187
f 322 51 319
f 51 182 183
f 319 51 183
f 187 322 321
f 322 319 324
f 381 101 379
f 405 407 108
f 404 405 108
f 286 285 178
f 407 405 409
f 109 407 409
f 191 175 47
f 167 164 170
f 50 184 185
f 44 167 170
f 64 244 236
f 243 244 64
f 50 188 189
f 541 542 145
f 442 445 119
f 339 91 578
f 445 446 119
f 624 623 622
f 611 624 157
f 523 526 141
f 141 527 529
f 527 514 529
f 445 120 444
f 446 445 444
f 35 446 444
f 613 614 158
f 158 614 615
f 623 613 158
f 614 613 391
f 614 612 615
f 371 376 374
f 100 376 371
f 479 482 123
f 373 394 384
f 540 42 634
f 633 540 634
f 538 42 540
f 633 634 161
f 161 634 640
f 42 626 634
f 540 633 144
f 557 556 338
f 553 333 89
f 262 21 264
f 251 21 262
f 5 335 333
f 270 251 262
f 21 251 249
f 600 593 30
f 606 593 600
f 600 30 375
f 593 390 30
f 30 377 375
f 390 388 30
f 30 388 377
f 228 243 241
f 470 478 459
f 470 127 478
f 127 477 478
f 184 186 185
f 478 477 476
f 122 478 476
f 357 74 280
f 518 39 507
f 344 342 85
f 325 344 85
f 342 344 343
f 85 342 321
f 344 90 343
f 90 344 336
f 482 129 481
f 482 481 457
f 482 457 123
f 481 37 457
f 449 447 34
f 435 449 34
f 470 472 471
f 472 470 37
f 470 471 127
f 472 126 471
f 126 468 471
f 470 459 37
f 491 126 472
f 504 129 485
f 221 59 242
f 125 463 465
f 437 34 562
f 561 437 562
f 554 568 562
f 34 554 562
f 437 561 116
f 390 103 389
f 103 386 389
f 392 105 391
f 572 586 580
f 572 580 36
f 586 152 580
f 473 572 36
f 244 243 242
f 225 244 59
f 64 240 241
f 240 239 241
f 237 240 64
f 243 64 241
f 236 237 64
f 411 607 521
f 9 411 521
f 110 607 411
f 607 142 521
f 610 607 110
f 171 15 184
f 171 169 15
f 15 186 184
f 87 584 581
f 153 588 582
f 588 575 582
f 381 102 380
f 573 572 473
f 468 469 128
f 474 468 128
f 469 571 128
f 571 573 128
f 573 473 128
f 473 474 128
f 564 323 565
f 26 323 564
f 323 324 86
f 325 323 26
f 325 324 323
f 563 565 86
f 324 325 85
f 410 230 18
f 230 228 18
f 18 228 241
f 18 241 239
f 401 619 618
f 401 402 107
f 403 402 401
f 619 159 618
f 401 618 32
f 619 401 107
f 403 401 32
f 618 611 32
f 159 624 618
f 478 122 459
f 122 458 459
f 37 459 457
f 459 458 457
f 122 456 458
f 457 458 123
f 191 190 192
f 485 129 484
f 129 482 484
f 483 485 484
f 130 483 484
f 189 187 14
f 191 50 189
f 191 189 175
f 189 14 175
f 14 177 175
f 499 501 500
f 501 499 38
f 38 499 590
f 135 499 500
f 488 501 38
f 499 135 591
f 480 454 4
f 284 12 346
f 4 423 506
f 480 4 506
f 423 531 506
f 480 506 505
f 531 137 506
f 506 137 505
f 365 366 98
f 71 270 262
f 270 71 269
f 71 267 269
f 335 334 333
f 333 334 89
f 334 335 91
f 536 9 519
f 465 463 461
f 537 140 541
f 520 140 519
f 119 446 465
f 465 461 119
f 461 441 119
f 460 441 461
f 176 46 173
f 299 297 24
f 71 263 266
f 263 260 266
f 260 72 266
f 263 70 260
f 205 201 49
f 201 181 49
f 186 205 49
f 181 201 200
f 181 182 49
f 284 77 283
f 586 587 152
f 588 586 151
f 20 267 265
f 266 267 71
f 31 417 631
f 631 417 632
f 31 631 639
f 417 31 419
f 641 631 161
f 417 112 632
f 161 631 632
f 418 417 419
f 417 418 112
f 284 345 77
f 542 550 145
f 542 541 524
f 284 174 12
f 48 174 283
f 373 20 265
f 373 265 374
f 609 608 525
f 608 157 622
f 560 559 313
f 636 637 162
f 541 140 524
f 41 542 524
f 358 357 280
f 70 263 264
f 263 262 264
f 176 177 46
f 174 48 173
f 174 173 172
f 538 551 549
f 538 540 539
f 537 541 539
f 232 221 242
f 17 221 232
f 232 242 62
f 231 232 62
f 203 205 55
f 203 55 202
f 201 205 203
f 202 55 217
f 205 206 55
f 204 203 202
f 73 275 292
f 292 290 73
f 272 290 282
f 290 292 291
f 75 290 291
f 290 75 282
f 70 277 259
f 277 70 281
f 277 281 279
f 260 70 259
f 12 174 172
f 104 396 388
f 367 27 354
f 365 27 367
f 354 27 356
f 365 367 366
f 595 27 365
f 318 299 310
f 155 596 597
f 155 597 598
f 596 594 597
f 595 596 155
f 605 595 155
f 180 47 179
f 180 190 47
f 352 372 11
f 11 372 261
f 312 310 24
f 642 636 162
f 636 297 637
f 367 369 97
f 366 367 97
f 369 367 354
f 369 370 97
f 580 579 464
f 580 152 579
f 579 124 464
f 61 230 409
f 230 410 409
f 230 61 229
f 230 229 228
f 76 285 286
f 353 352 276
f 74 353 276
f 288 76 286
f 288 286 283
f 289 288 287
f 203 54 201
f 287 288 77
f 77 288 283
f 286 48 283
f 531 423 113
f 276 11 259
f 11 261 259
f 277 276 259
f 616 158 615
f 516 616 615
f 138 516 615
f 138 615 612
f 509 533 532
f 503 502 504
f 635 79 294
f 635 294 404
f 635 637 79
f 637 635 638
f 638 635 108
f 635 404 108
f 226 61 405
f 61 226 227
f 405 61 409
f 227 226 207
f 48 178 179
f 48 286 178
f 173 48 179
f 534 143 533
f 534 535 143
f 531 534 533
f 533 143 532
f 137 531 533
f 261 372 371
f 13 180 178
f 285 13 178
f 180 13 166
f 13 168 166
f 346 345 284
f 331 327 46
f 46 327 172
f 172 327 326
f 382 620 101
f 442 121 448
f 443 121 442
f 2 226 404
f 294 2 404
f 404 226 405
f 207 226 2
f 550 551 145
f 552 146 551
f 143 550 532
f 552 550 143
f 330 329 328
f 24 636 629
f 94 352 353
f 352 11 276
f 113 428 534
f 428 535 534
f 509 41 511
f 535 552 143
f 550 552 551
f 550 542 532
f 369 95 368
f 326 327 87
f 87 327 329
f 327 331 329
f 581 326 87
f 293 79 298
f 79 297 298
f 296 298 78
f 79 293 294
f 296 293 298
f 598 490 38
f 358 280 22
f 280 279 278
f 357 358 95
f 74 357 353
f 330 328 25
f 567 23 559
f 590 598 38
f 590 604 598
f 598 604 155
f 604 590 154
f 590 591 154
f 604 154 606
f 297 299 298
f 299 318 78
f 298 299 78
f 355 354 356
f 629 636 642
f 312 24 629
f 629 642 160
f 370 362 97
f 362 363 97
f 363 366 97
f 364 363 362
f 362 370 351
f 96 363 364
f 297 636 24
f 162 637 638
f 637 297 79
f 490 488 38
f 598 597 490
f 441 442 119
f 443 442 441
f 443 441 5
f 442 448 445
f 296 78 295
f 326 12 172
f 575 574 364
f 47 175 176
f 175 177 176
f 47 176 179
