# FEM surface export ¡ª frame 449
# Vertices: 642  Faces: 1280
v -0.51687348 1.05720830 -0.00325570
v 0.51700270 1.05725133 -0.00082551
v -0.52058738 0.09692408 -0.03541545
v 0.54112864 0.20860150 0.01029730
v 0.00443049 0.00000000 1.00557530
v 0.00111509 0.79438144 0.86616385
v 0.00651413 0.00000000 -0.99188966
v 0.00016421 0.79168683 -0.86568189
v 0.90692389 0.33420643 -0.55934322
v 0.90513176 0.32528472 0.55730844
v -0.90679324 0.32665396 -0.55550158
v -0.90286750 0.32503563 0.56003445
v -0.82597154 0.77084279 0.31500292
v -0.51889354 0.60512024 0.84173119
v -0.30557960 1.02450001 0.49187729
v 0.30667928 1.02561057 0.49444351
v -0.00017494 1.16505277 -0.00125156
v 0.30450463 1.02538061 -0.49370742
v -0.30702537 1.02429461 -0.49536708
v -0.51870918 0.60017979 -0.84022862
v -0.82580537 0.76750982 -0.31652191
v -1.06105864 0.32466865 0.00496924
v 0.52276951 0.60001284 0.84042889
v 0.82753897 0.77082211 0.31521586
v -0.55778921 0.07615350 0.90614259
v 0.00100911 0.33159381 1.06287229
v -0.91318166 0.00000000 -0.35878262
v -0.95265687 0.00000000 0.35175130
v -0.00185324 0.33250332 -1.06394863
v -0.56132638 0.09246615 -0.91922343
v 0.82762158 0.77061158 -0.31510127
v 0.51745957 0.60512847 -0.84233570
v 0.95834303 0.00000000 0.35269907
v 0.56195194 0.06313595 0.89471620
v 0.30316746 0.03912660 0.54580045
v -0.34751305 0.12528308 0.52896255
v -0.02415387 0.02811266 0.03928054
v -0.29901040 0.01633069 -0.49391627
v 0.33464783 0.03238987 -0.53153515
v 0.56177694 0.08624113 -0.91609424
v 0.93569916 0.00000000 -0.34596416
v 1.06726432 0.32812509 -0.00405871
v -0.69266063 0.93940216 0.15768376
v -0.58770889 0.92918181 0.42307147
v -0.42552882 1.06648946 0.25145802
v -0.73738366 0.47199830 0.72808635
v -0.70779449 0.70841086 0.60385150
v -0.89959425 0.55816489 0.45361850
v -0.15942149 0.93085438 0.70106602
v -0.43091467 0.84622568 0.69335037
v -0.26635563 0.71541888 0.88712591
v -0.15656984 1.13077891 0.25395110
v -0.26373762 1.13927042 -0.00136417
v 0.16117658 0.93111658 0.70207798
v 0.00036391 1.05599189 0.51656592
v 0.26346016 1.13878548 -0.00084691
v 0.15855986 1.13349402 0.25483367
v 0.42677045 1.06574810 0.25472471
v -0.15818414 1.13140988 -0.25679773
v -0.42560667 1.06586432 -0.25735241
v 0.42603242 1.06728435 -0.25581968
v 0.15675132 1.13291073 -0.25697652
v -0.16121604 0.93161571 -0.70230693
v 0.00054063 1.05590594 -0.51723874
v 0.16006643 0.93138081 -0.70256108
v -0.59012187 0.92522871 -0.42674029
v -0.69322610 0.93773168 -0.16265520
v -0.26610571 0.71093202 -0.88467222
v -0.43033549 0.84308726 -0.69648284
v -0.90058041 0.55817145 -0.45579147
v -0.70586628 0.70113635 -0.60407090
v -0.73692548 0.46605971 -0.72926140
v -0.86523885 0.79122609 -0.00212043
v -1.02018225 0.32219067 -0.28436053
v -0.99541521 0.56031936 -0.17109038
v -0.99169785 0.56374645 0.17034844
v -1.01680958 0.31842649 0.29038209
v 0.58928370 0.92480475 0.42604923
v 0.69259083 0.93963420 0.16115721
v 0.26968011 0.71199590 0.88692081
v 0.43152246 0.84236372 0.69597065
v 0.90439731 0.56040126 0.45264575
v 0.71004319 0.70664650 0.60663092
v 0.74167120 0.47234035 0.72673482
v -0.27559400 0.47507465 1.00028074
v 0.00205510 0.57496309 1.00568032
v -0.75314325 0.18754520 0.74626571
v -0.55853385 0.33197308 0.90007031
v -0.00525617 0.10252107 1.05248475
v -0.28430173 0.18697192 1.02748656
v -0.29526401 0.00000000 1.00981832
v -1.04925072 0.09241120 0.17897499
v -0.94666374 0.10028300 0.48025265
v -0.96232820 0.11620961 -0.47257990
v -1.06062162 0.10570284 -0.17440097
v -0.76229334 0.05929191 0.12976877
v -0.99377733 0.00001922 -0.01619139
v -0.76941490 0.14609738 -0.19502763
v -0.56404895 0.33103606 -0.90078437
v -0.76229906 0.19225918 -0.74796885
v -0.00030544 0.57016718 -1.00063169
v -0.27712446 0.47267488 -1.00029683
v -0.29461324 0.00012356 -1.01387668
v -0.28460038 0.19109602 -1.03039598
v -0.00039248 0.11168365 -1.07661974
v 0.43158963 0.84478456 -0.69676816
v 0.26712185 0.71229392 -0.88583332
v 0.69402176 0.93923372 -0.16090788
v 0.58951759 0.92699254 -0.42406911
v 0.73634613 0.47612476 -0.72994363
v 0.70908165 0.70663047 -0.60691071
v 0.90102726 0.56251085 -0.45266530
v 0.75297105 0.12971808 0.17133078
v 0.65356147 0.01748618 0.46955836
v 0.45139766 0.13559549 0.31980193
v 0.76731265 0.18924046 0.75318503
v 0.79876167 0.00000000 0.65565032
v 0.95654535 0.11439553 0.47214064
v 0.16118813 0.00023038 0.80224442
v 0.50254607 0.00000135 0.80933928
v 0.31666049 0.00000000 1.01491213
v 0.17011751 0.15675659 0.29826605
v 0.25962320 0.00243586 0.00695247
v -0.19551410 0.02997428 0.78616500
v -0.03581673 0.11452732 0.57880610
v -0.29913023 0.11440362 0.06944998
v -0.19251339 0.06115353 0.30637485
v -0.48857546 0.05163025 0.23597722
v 0.15124948 0.06812950 -0.24970953
v 0.46574277 0.07277227 -0.24200685
v -0.43089217 0.04577531 -0.25848302
v -0.17814913 0.02134010 -0.18892978
v 0.20137340 0.00714471 -0.76253587
v -0.01470147 0.02056280 -0.49188164
v -0.17682344 0.01982102 -0.75562519
v 0.63229001 0.09450911 -0.43860233
v 0.75241137 0.13569786 -0.18827784
v 0.30712652 0.00491000 -1.02097404
v 0.50454402 0.00373920 -0.79646170
v 0.95574057 0.11154368 -0.48270380
v 0.80134875 0.00000000 -0.68069696
v 0.75892609 0.20238397 -0.75603575
v 0.99845499 0.00000000 0.00496009
v 1.02325845 0.33172089 -0.29106581
v 1.04012764 0.10492555 -0.17762186
v 1.04069257 0.10315766 0.17138569
v 1.02660775 0.33056477 0.28682277
v 0.28447163 0.17972288 1.01899993
v 0.56416297 0.32632166 0.90234375
v 0.28060362 0.47171551 1.00010765
v -0.69114256 0.00000621 0.44058380
v -0.50350684 0.03314494 0.78497624
v -0.80260193 0.00006286 0.68088216
v -0.49102941 0.00000000 -0.76116949
v -0.64116108 0.09881752 -0.47786763
v -0.80871117 0.02828735 -0.67717683
v 0.56082028 0.33269024 -0.90309238
v 0.28375369 0.20235853 -1.03416860
v 0.27615908 0.47626591 -0.99968231
v 0.99479359 0.56292129 0.16671807
v 0.99315661 0.56485218 -0.17026012
v 0.86629456 0.79294747 0.00115015
v -0.60883707 1.00542343 0.07822806
v -0.56442893 1.01208544 0.20797344
v -0.47404367 1.06733942 0.12611233
v -0.71461332 0.85775620 0.37244156
v -0.64598304 0.93996483 0.29289001
v -0.76545352 0.86092758 0.23567638
v -0.36846974 1.05186439 0.37426946
v -0.51057363 1.00477564 0.34010389
v -0.45033830 0.98454732 0.46223795
v -0.82653081 0.39831015 0.65019649
v -0.82971418 0.51896471 0.59936869
v -0.90830946 0.44266090 0.51021636
v -0.62234640 0.66082096 0.73163378
v -0.73110038 0.59410971 0.67334437
v -0.63441914 0.54167670 0.79311019
v -0.87012029 0.67008859 0.38804275
v -0.81158483 0.63811862 0.53418618
v -0.77576333 0.74671274 0.46437833
v -0.08091082 0.86790633 0.78967291
v -0.21464226 0.83018434 0.80328417
v -0.13287979 0.75793767 0.88568944
v -0.36997709 0.94304317 0.59916347
v -0.29652947 0.89344674 0.70473480
v -0.23420970 0.98352516 0.60079122
v -0.39586562 0.66531181 0.87331855
v -0.35343796 0.78535163 0.79703516
v -0.48061275 0.73340970 0.77636307
v -0.65529728 0.82793522 0.51892680
v -0.57652950 0.78410810 0.65742278
v -0.51516861 0.89537281 0.56484127
v -0.34813353 1.11159921 0.12612180
v -0.39243433 1.10401857 -0.00147168
v -0.23238501 1.08758998 0.37659338
v -0.29364851 1.10533595 0.25560996
v -0.13303836 1.16273034 -0.00172534
v -0.21176957 1.14192212 0.12750696
v -0.07884260 1.15844738 0.12813896
v 0.08288738 0.86696082 0.78912503
v 0.00078691 0.93817139 0.70929450
v 0.15374671 1.04767311 0.51062489
v 0.08096336 1.00009775 0.61319816
v 0.23693007 0.98347312 0.60235447
v -0.07782545 0.99964827 0.61322051
v -0.15307297 1.04856503 0.50994861
v 0.39402437 1.10444367 -0.00072986
v 0.34933361 1.11152089 0.12842411
v 0.47585851 1.06797171 0.12727576
v 0.07966157 1.15668857 0.12768577
v 0.21318680 1.14355445 0.12879738
v 0.13272719 1.16206694 -0.00149510
v 0.37155578 1.05176687 0.37774903
v 0.29337525 1.10652709 0.25773576
v 0.23383799 1.08671820 0.37767488
v -0.08083157 1.10475373 0.38988838
v 0.07927158 1.10435581 0.38864383
v -0.00091521 1.14113438 0.25669214
v -0.34834787 1.11138487 -0.13068451
v -0.47430518 1.06683588 -0.13063377
v -0.07932330 1.15885699 -0.12982874
v -0.21278891 1.14430046 -0.13008666
v -0.37059760 1.04993641 -0.37899455
v -0.29351160 1.10535061 -0.25915277
v -0.23433758 1.08716404 -0.37877941
v 0.47567543 1.06978345 -0.12941042
v 0.34875941 1.11409879 -0.12953238
v 0.23269901 1.08859980 -0.37834185
v 0.29316753 1.10751057 -0.25799525
v 0.36804596 1.05202091 -0.37764221
v 0.21170864 1.14387596 -0.12965573
v 0.07832176 1.15969169 -0.13027935
v -0.08160529 0.86672479 -0.79036248
v 0.00068730 0.93883300 -0.71148294
v 0.08236743 0.86530387 -0.79083645
v -0.15465973 1.04783535 -0.51190144
v -0.08046339 1.00101602 -0.61556005
v -0.23658423 0.98367846 -0.60289967
v 0.23548293 0.98396820 -0.60282034
v 0.08036245 1.00173819 -0.61507970
v 0.15294769 1.04861140 -0.51145607
v -0.00045991 1.14114332 -0.25920120
v 0.08009021 1.10390484 -0.38937542
v -0.08072534 1.10391629 -0.39049828
v -0.56409460 1.01102006 -0.21366715
v -0.61013728 1.00461590 -0.08300639
v -0.45230955 0.98173231 -0.46699339
v -0.51151401 1.00286758 -0.34518284
v -0.76593512 0.85846329 -0.24096276
v -0.64770699 0.93852097 -0.29716483
v -0.71542436 0.85429919 -0.37617114
v -0.13375986 0.75488621 -0.88271707
v -0.21470802 0.82851398 -0.80271482
v -0.47912279 0.72803152 -0.77712721
v -0.35217714 0.78252077 -0.79858226
v -0.39543262 0.65998513 -0.87044263
v -0.29755062 0.89227790 -0.70731682
v -0.37196016 0.94216639 -0.60234845
v -0.91066188 0.44054398 -0.51117039
v -0.82856363 0.51190251 -0.60029179
v -0.82807630 0.39339986 -0.65040952
v -0.77451479 0.73839468 -0.46482944
v -0.80876249 0.63144761 -0.53432781
v -0.87118614 0.66546732 -0.38764566
v -0.63384044 0.53593999 -0.79081249
v -0.72876900 0.58736479 -0.67312706
v -0.61988628 0.65599513 -0.73001754
v -0.51669073 0.88982880 -0.56824988
v -0.57546508 0.77757531 -0.66015762
v -0.65567321 0.82116801 -0.52057004
v -0.70156324 0.94686401 -0.00148853
v -0.85480267 0.78463811 -0.16183086
v -0.78608274 0.87180108 -0.08402318
v -0.78640455 0.87199354 0.07924242
v -0.85403252 0.78531915 0.15769479
v -0.97229493 0.32328248 -0.42266691
v -0.97395092 0.44099200 -0.37620538
v -1.03929555 0.44612256 -0.08308061
v -1.01910615 0.44238079 -0.22979113
v -1.05061126 0.32659981 -0.14135312
v -0.95682275 0.55758584 -0.31561738
v -0.92021251 0.66807020 -0.24752694
v -0.97213584 0.44047543 0.37776563
v -0.97140771 0.32076189 0.43116945
v -0.91970962 0.67200065 0.24690504
v -0.95440006 0.56451172 0.31583494
v -1.04643524 0.32244539 0.15011282
v -1.01629198 0.44530347 0.23449910
v -1.03872907 0.44303820 0.09067576
v -0.94135034 0.68096536 -0.08602311
v -1.00657690 0.56318384 0.00151669
v -0.94270378 0.68333381 0.08342139
v 0.56456429 1.01273358 0.21071114
v 0.60904890 1.00454223 0.07985447
v 0.45249674 0.98263782 0.46621892
v 0.51306736 1.00412214 0.34353065
v 0.76741415 0.86094040 0.23936620
v 0.64815491 0.93922120 0.29607707
v 0.71653593 0.85552621 0.37567246
v 0.13581575 0.75715274 0.88591856
v 0.21754700 0.82943660 0.80303198
v 0.48253608 0.73040348 0.77987081
v 0.35353711 0.78185123 0.79780591
v 0.39984068 0.65962833 0.87290651
v 0.29787228 0.89296669 0.70627522
v 0.37298071 0.94220108 0.60125154
v 0.91380012 0.44419804 0.51014245
v 0.83374089 0.51905358 0.59769404
v 0.83168536 0.40089977 0.64797997
v 0.77834207 0.74298155 0.46486780
v 0.81358784 0.63716954 0.53503513
v 0.87496942 0.67151463 0.38706130
v 0.63826609 0.53674895 0.79333121
v 0.73427391 0.59237760 0.67633629
v 0.62420464 0.65817964 0.73381692
v 0.51856089 0.89216113 0.56832230
v 0.57585853 0.78008109 0.65868592
v 0.65715152 0.82471114 0.52106255
v -0.13452390 0.64803809 0.95814288
v 0.00189290 0.68835479 0.94377249
v -0.40291092 0.54506713 0.93270749
v -0.27396035 0.59885192 0.95459408
v 0.00332759 0.45426005 1.04573047
v -0.13787369 0.52684224 1.01292694
v -0.14033499 0.40422502 1.04556215
v -0.83680153 0.25382054 0.65983856
v -0.75293434 0.32830715 0.74404532
v -0.55485547 0.19928299 0.90730125
v -0.66044331 0.25863296 0.82967252
v -0.66038406 0.12907284 0.82862705
v -0.65311474 0.40343422 0.82087910
v -0.54392689 0.47085705 0.88288283
v 0.00218865 0.01310652 1.05331314
v -0.14175585 0.03872352 1.04652536
v -0.14712070 0.00000000 1.01061499
v -0.14392275 0.25901085 1.05009449
v -0.14631496 0.14654855 1.05160463
v -0.00338698 0.20956604 1.05931783
v -0.43188611 0.02819141 0.96674556
v -0.28525144 0.08235887 1.02065504
v -0.41609237 0.12215716 0.97537452
v -0.42158252 0.40520793 0.96419322
v -0.42715845 0.25882608 0.97369200
v -0.28308180 0.33096740 1.02211618
v -0.99757069 0.21066992 0.39065152
v -0.92805135 0.20635486 0.52457416
v -1.06149077 0.21136056 0.09240043
v -1.03677905 0.20535353 0.23702297
v -0.97477978 0.02452412 0.42673343
v -1.01448500 0.09843046 0.33391973
v -1.02261245 0.00190083 0.26726335
v -0.93579656 0.21716401 -0.51992220
v -0.99974275 0.21373984 -0.37881184
v -1.03267908 0.03987972 -0.27828762
v -1.01441586 0.10273585 -0.32809749
v -0.96767879 0.00772701 -0.42965969
v -1.04403162 0.21371527 -0.23214568
v -1.06791782 0.21401754 -0.08468443
v -0.64682865 0.00305723 0.03456023
v -0.76849973 0.00101006 -0.05609246
v -0.64601958 0.08050714 -0.13219836
v -0.98676497 0.00000000 0.17007613
v -0.87924379 0.00095600 0.06252123
v -0.86236620 0.00833275 0.23899771
v -0.81346726 0.03338402 -0.27015191
v -0.88335705 0.02913314 -0.12954952
v -0.96767020 0.00000000 -0.19861551
v -1.07161033 0.10276694 0.00259203
v -1.06756508 0.00351308 -0.09823397
v -1.06215429 0.00745387 0.09302188
v -0.75708359 0.32778329 -0.74206239
v -0.83990663 0.25643387 -0.65612978
v -0.54607415 0.46450254 -0.87789911
v -0.65500683 0.39464676 -0.81829542
v -0.67499375 0.13174313 -0.83787197
v -0.66796100 0.25835213 -0.83425325
v -0.56706548 0.19888771 -0.91153920
v 0.00019564 0.68517327 -0.94145602
v -0.13545726 0.64626849 -0.95517629
v -0.14259975 0.40289432 -1.04441679
v -0.13800612 0.52378815 -1.00882530
v -0.00010261 0.45168963 -1.04312408
v -0.27280593 0.59470308 -0.94940788
v -0.40226957 0.53825665 -0.92768222
v -0.14948206 0.00000000 -1.02861500
v -0.14566109 0.05312102 -1.06003976
v 0.00494596 0.01842255 -1.06482267
v -0.42302641 0.13312112 -0.98404115
v -0.29849726 0.08525379 -1.02576494
v -0.44298500 0.02168214 -0.97794741
v -0.00139668 0.21221970 -1.08121932
v -0.14706451 0.13888589 -1.05995262
v -0.14476505 0.26090181 -1.06111979
v -0.42443478 0.40131688 -0.96584052
v -0.28777772 0.32928824 -1.02586401
v -0.43557319 0.25813460 -0.98322934
v 0.21639986 0.82811022 -0.80174685
v 0.13440663 0.75504112 -0.88411194
v 0.37142530 0.94296515 -0.60082072
v 0.29747111 0.89378613 -0.70556670
v 0.39501497 0.66231883 -0.86948574
v 0.35338536 0.78453529 -0.79760742
v 0.48173431 0.73001641 -0.77629381
v 0.61038637 1.00501537 -0.08056787
v 0.56541765 1.01325452 -0.21055363
v 0.71671033 0.85627908 -0.37418798
v 0.64831656 0.94101232 -0.29551196
v 0.76792449 0.86062461 -0.23867580
v 0.51176882 1.00454450 -0.34274730
v 0.45143276 0.98445678 -0.46640986
v 0.82996207 0.40697274 -0.65172243
v 0.83200043 0.52387863 -0.59908706
v 0.91316128 0.44973293 -0.51012617
v 0.62207508 0.65972894 -0.73169935
v 0.73154044 0.59352684 -0.67474514
v 0.63161170 0.54233575 -0.79276800
v 0.87021726 0.66938180 -0.38697052
v 0.81140304 0.63965511 -0.53570741
v 0.77643222 0.74408054 -0.46508101
v 0.51750684 0.89286852 -0.56688327
v 0.65731299 0.82336867 -0.51916033
v 0.57647270 0.78210068 -0.65830117
v 0.65965229 0.15912746 0.07104609
v 0.61399066 0.11543095 0.22176148
v 0.52054971 0.14968649 0.16733544
v 0.81550193 0.05907102 0.41593939
v 0.68579602 0.10321651 0.33797324
v 0.82865542 0.03715518 0.25104117
v 0.37717879 0.00063554 0.39824647
v 0.54840982 0.05679251 0.36587879
v 0.48254147 0.03332597 0.51531684
v 0.83681798 0.25585097 0.65526819
v 0.87553132 0.14946881 0.62630016
v 0.93241745 0.21555220 0.51952666
v 0.68700600 0.00770244 0.79111522
v 0.77953333 0.08819673 0.72100008
v 0.66292232 0.11808223 0.82669979
v 0.96723807 0.04023155 0.40963161
v 0.88707197 0.07210492 0.57272685
v 0.89846820 0.00000000 0.50866938
v 0.08951347 0.04494729 0.91115552
v 0.24495606 0.00198449 0.91738689
v 0.15665886 0.00000000 1.01794636
v 0.40705696 0.04334560 0.68376821
v 0.33908430 0.00287406 0.80344152
v 0.23704068 0.00231398 0.67975944
v 0.44729012 0.01140742 0.95514089
v 0.41886815 0.00000000 0.92686445
v 0.55412990 0.00000000 0.88813907
v 0.76237655 0.00097757 0.58522737
v 0.66637516 0.00000000 0.75657457
v 0.57843620 0.00007082 0.64097208
v 0.37562406 0.06381322 0.15241124
v 0.42528406 0.08789212 0.02265713
v 0.20863499 0.00800958 0.39820951
v 0.30842426 0.06437401 0.28492168
v 0.12004158 0.03424507 0.03138864
v 0.20439789 0.05201229 0.15873857
v 0.08077373 0.07694099 0.17596249
v -0.09895667 0.00037812 0.91366625
v -0.01917147 0.01080257 0.79750222
v -0.19911654 0.14232633 0.55353528
v -0.12368639 0.09773652 0.67595595
v -0.28874025 0.05443381 0.64841712
v 0.06297448 0.07391867 0.68886799
v 0.11912316 0.02317976 0.55275089
v -0.41863793 0.09965224 0.06699613
v -0.40117869 0.19137627 0.19262877
v -0.52991426 0.14569849 0.10309868
v -0.08590130 0.09715075 0.18312028
v -0.22734018 0.19040203 0.19210581
v -0.16538617 0.07288288 0.04767210
v -0.42217737 0.12567963 0.39572698
v -0.32104763 0.08145642 0.29008090
v -0.28479716 0.18263792 0.41946650
v 0.08889291 0.16299252 0.46264598
v -0.10726602 0.16415566 0.45868781
v -0.00828664 0.07889439 0.33982930
v 0.38650563 0.08092505 -0.09483903
v 0.47759384 0.22179411 -0.13492295
v 0.07372072 0.07076539 -0.09627061
v 0.21159425 0.04084452 -0.12209118
v 0.39477944 0.10704128 -0.39300036
v 0.31721586 0.02856749 -0.24110885
v 0.24549030 0.02408302 -0.37247872
v -0.45419592 0.04959583 -0.13335459
v -0.35384279 0.05166193 -0.07781105
v -0.23717552 0.00949094 -0.33086133
v -0.33213842 0.04607191 -0.21194008
v -0.37149101 0.03936689 -0.38001657
v -0.25598162 0.08468165 -0.08145662
v -0.11489977 0.03802751 -0.10167483
v 0.10226820 0.03361504 -0.87709695
v 0.00783501 0.00443531 -0.76562124
v -0.09655691 0.02391375 -0.88497859
v 0.17032288 0.02558963 -0.50268102
v 0.08365186 0.00000000 -0.63232124
v 0.27687922 0.03193120 -0.62968624
v -0.23810355 0.00559955 -0.63533711
v -0.08391480 0.02873662 -0.62025398
v -0.14479610 0.00215472 -0.49197006
v 0.00580898 0.05130186 -0.21536614
v -0.07482235 0.02389996 -0.34242275
v 0.07703495 0.05084002 -0.36285350
v 0.59255773 0.16825470 -0.23838691
v 0.64227152 0.17339690 -0.08985140
v 0.49856582 0.02173693 -0.48827788
v 0.52398723 0.14451787 -0.37645489
v 0.85635436 0.05109766 -0.25432777
v 0.69083309 0.12678905 -0.31730762
v 0.78670281 0.05647952 -0.40289068
v 0.16052662 0.00000000 -1.03299940
v 0.25058383 0.00000000 -0.92415434
v 0.55403429 0.00000000 -0.90105212
v 0.40683115 0.00000000 -0.91871208
v 0.44479942 0.03970514 -0.98492903
v 0.35349786 0.00161562 -0.78800893
v 0.42897663 0.07986137 -0.65855271
v 0.93546933 0.22061002 -0.52226645
v 0.87008929 0.16250862 -0.63159740
v 0.84259176 0.27266058 -0.66126209
v 0.89002496 0.00000000 -0.51274514
v 0.88679546 0.05199994 -0.59379286
v 0.97300369 0.01564354 -0.42610213
v 0.66104865 0.13688380 -0.83979475
v 0.78244489 0.09068423 -0.73400831
v 0.69317484 0.03190046 -0.82184213
v 0.58533317 0.00059441 -0.61524802
v 0.66776079 0.00000000 -0.74591315
v 0.73381245 0.01856915 -0.55003405
v 0.77858436 0.13448618 -0.01493807
v 0.97949964 0.00446843 -0.18613407
v 0.86928445 0.07193946 -0.09362742
v 0.89215451 0.05110953 0.08811037
v 0.97809786 0.00040102 0.18905205
v 0.97490847 0.33262098 -0.42925516
v 0.99583888 0.21845642 -0.38526747
v 1.06249487 0.20769191 -0.09007171
v 1.03752160 0.21403129 -0.23708159
v 1.05454314 0.32839951 -0.14766552
v 1.01532531 0.10863034 -0.33853945
v 1.01960766 0.06033647 -0.27361849
v 0.99957889 0.21911579 0.38473248
v 0.97541994 0.32892960 0.42794502
v 1.02520406 0.03036213 0.25675642
v 1.00316513 0.11474930 0.32108447
v 1.05456948 0.32757387 0.14120252
v 1.04535627 0.21631566 0.23115110
v 1.06404936 0.21293202 0.08146638
v 1.04903686 0.00000000 -0.09490547
v 1.05673110 0.09288792 -0.00264367
v 1.04421937 0.00042947 0.09622745
v 0.15358028 0.04233278 1.04651999
v 0.42689922 0.12302895 0.97166294
v 0.29879823 0.06461120 1.01630867
v 0.14688869 0.13007395 1.04122937
v 0.14229816 0.25253925 1.04985356
v 0.75851417 0.32877475 0.74477869
v 0.55260539 0.46439832 0.88608027
v 0.66149014 0.39918119 0.82374376
v 0.66773975 0.25281653 0.83379048
v 0.56360322 0.19164024 0.90361464
v 0.13959448 0.64696431 0.95812094
v 0.14456655 0.40016177 1.04713285
v 0.14225993 0.52462953 1.01269805
v 0.27836934 0.59687001 0.95425308
v 0.40732121 0.53836042 0.93070382
v 0.43176386 0.25428441 0.97590268
v 0.42908734 0.39664933 0.96685433
v 0.28617823 0.32635555 1.02227437
v -0.62719005 0.04592726 0.18437371
v -0.52013487 0.04474463 0.49651417
v -0.58441442 0.04569812 0.35930192
v -0.73418432 0.05456864 0.28805420
v -0.82437116 0.04417639 0.40521148
v -0.25810802 0.00000000 0.92548382
v -0.54705876 0.00000000 0.89866173
v -0.40496689 0.00000000 0.92586386
v -0.35954079 0.00882140 0.79727417
v -0.44306707 0.05491380 0.64761436
v -0.85926479 0.13874279 0.62474453
v -0.88633251 0.00000000 0.52482313
v -0.88219225 0.03463742 0.58650535
v -0.77334887 0.07503052 0.72401124
v -0.67547834 0.01320948 0.80659759
v -0.61152947 0.00000000 0.62426978
v -0.67964917 0.00000000 0.76238090
v -0.75567460 0.00000087 0.58443749
v -0.26630342 0.00120285 -0.91322851
v -0.39127538 0.05203071 -0.64163429
v -0.33801955 0.00776211 -0.76819462
v -0.42187816 0.00000000 -0.90565926
v -0.56520903 0.00283258 -0.88911629
v -0.60612512 0.06574003 -0.22446780
v -0.76134264 0.01512789 -0.42465329
v -0.67854220 0.12232118 -0.34269896
v -0.53448313 0.02237705 -0.36843607
v -0.47931078 0.06838785 -0.49971911
v -0.86570871 0.14976636 -0.61631918
v -0.69300562 0.03205789 -0.81257755
v -0.79464817 0.08361878 -0.72884315
v -0.90032476 0.07751229 -0.57152343
v -0.87970871 0.00000000 -0.52876431
v -0.57598090 0.07186184 -0.63669896
v -0.74197304 0.00000000 -0.59457332
v -0.66314614 0.00000000 -0.75647283
v 0.75722992 0.33762860 -0.74724203
v 0.55878991 0.20268144 -0.91121083
v 0.66376048 0.26772779 -0.83629650
v 0.65634841 0.40416649 -0.82409793
v 0.54727107 0.47033682 -0.88347691
v 0.15260133 0.06024719 -1.06773460
v 0.14118904 0.26403782 -1.05856144
v 0.14675882 0.15933727 -1.07136798
v 0.29407886 0.09343827 -1.03863943
v 0.42046222 0.13918106 -0.98582304
v 0.13593246 0.64601922 -0.95446789
v 0.40244949 0.54028583 -0.92904395
v 0.27447224 0.59783363 -0.95085317
v 0.13755888 0.52386308 -1.00793839
v 0.14179292 0.40235177 -1.04555941
v 0.43046248 0.26441544 -0.97776061
v 0.28513435 0.33427760 -1.02116311
v 0.42364386 0.40381157 -0.96123463
v 0.98059404 0.44487220 0.37817866
v 1.04508710 0.44363448 0.08444939
v 1.02457333 0.45006442 0.23085067
v 0.95845073 0.56456369 0.31421360
v 0.92247713 0.67118758 0.24473155
v 0.97347391 0.44978717 -0.37710029
v 0.91805476 0.67376494 -0.24696288
v 0.95680529 0.56550324 -0.31411216
v 1.01849043 0.44991463 -0.23186637
v 1.04250705 0.45032668 -0.08713721
v 0.70244712 0.94680804 0.00038043
v 0.85735571 0.78769720 0.15965942
v 0.78679633 0.87294585 0.08312190
v 0.78759301 0.87207419 -0.08147574
v 0.85695320 0.78638983 -0.15731429
v 1.00590265 0.56640708 0.00013649
v 0.94324952 0.68372685 -0.08544925
v 0.94407451 0.68533450 0.08474179
f 330 87 329
f 336 325 26
f 207 208 56
f 464 36 580
f 502 129 504
f 157 624 622
f 308 311 82
f 247 223 248
f 507 483 508
f 331 88 329
f 494 500 497
f 156 601 602
f 591 589 592
f 365 98 596
f 75 281 282
f 152 587 577
f 149 559 560
f 555 121 553
f 530 141 529
f 515 517 139
f 361 594 98
f 250 67 249
f 157 608 609
f 294 293 209
f 317 81 316
f 557 338 26
f 303 305 81
f 530 529 528
f 101 381 382
f 415 418 111
f 192 184 50
f 412 110 411
f 20 384 256
f 131 594 486
f 281 264 282
f 347 287 348
f 28 349 582
f 165 163 1
f 248 250 66
f 617 107 398
f 273 271 274
f 456 115 453
f 558 561 560
f 335 576 91
f 331 177 332
f 116 433 436
f 351 370 92
f 136 511 530
f 239 240 65
f 247 258 19
f 304 23 567
f 148 557 570
f 214 208 58
f 440 426 450
f 268 270 269
f 258 247 268
f 204 202 16
f 466 125 465
f 517 513 133
f 168 275 274
f 275 73 274
f 198 193 53
f 309 308 307
f 510 511 136
f 415 416 110
f 131 490 597
f 473 475 474
f 414 415 111
f 493 495 494
f 496 504 485
f 433 116 432
f 600 375 601
f 240 234 65
f 418 415 412
f 486 361 3
f 567 566 304
f 380 393 29
f 17 199 197
f 491 492 132
f 451 449 435
f 218 217 216
f 623 621 613
f 396 104 395
f 433 439 436
f 628 160 627
f 215 202 217
f 209 207 2
f 427 113 424
f 434 10 544
f 434 433 432
f 199 17 210
f 150 564 565
f 489 491 132
f 275 13 285
f 497 500 134
f 125 466 476
f 578 152 577
f 208 214 211
f 328 88 343
f 356 27 603
f 150 566 567
f 372 100 371
f 190 191 47
f 235 8 398
f 260 261 72
f 422 403 414
f 422 414 111
f 453 454 123
f 349 583 582
f 521 520 519
f 425 453 115
f 616 622 158
f 483 130 508
f 151 586 572
f 212 17 232
f 400 397 402
f 377 396 99
f 41 522 511
f 510 508 505
f 549 547 42
f 475 473 36
f 510 137 509
f 222 221 197
f 430 115 429
f 220 194 1
f 305 54 204
f 621 29 613
f 192 171 184
f 460 335 5
f 88 331 332
f 74 277 279
f 300 301 80
f 390 389 388
f 165 45 164
f 146 549 551
f 291 278 75
f 448 120 445
f 147 543 544
f 607 610 609
f 603 602 356
f 139 529 514
f 333 553 443
f 92 368 347
f 261 260 259
f 300 6 200
f 46 177 331
f 284 283 174
f 301 300 200
f 471 468 474
f 54 305 301
f 302 304 303
f 569 150 567
f 150 569 570
f 294 209 2
f 628 629 160
f 548 543 147
f 147 625 627
f 63 233 234
f 426 427 114
f 41 509 532
f 198 52 196
f 614 105 612
f 147 627 547
f 81 305 306
f 549 548 547
f 54 301 200
f 342 88 332
f 264 281 70
f 193 194 53
f 455 429 456
f 187 321 14
f 479 130 484
f 147 544 625
f 458 456 453
f 304 80 303
f 314 84 313
f 488 503 501
f 321 332 14
f 423 425 424
f 305 204 306
f 341 339 25
f 514 40 516
f 625 628 627
f 340 339 341
f 105 614 391
f 243 228 62
f 318 316 78
f 75 278 279
f 357 355 353
f 238 257 63
f 466 455 476
f 425 423 4
f 448 449 120
f 408 638 108
f 292 275 285
f 22 278 289
f 515 513 517
f 501 503 134
f 622 623 158
f 134 503 504
f 195 216 206
f 163 271 246
f 619 617 620
f 62 228 229
f 163 165 164
f 453 425 454
f 489 132 488
f 82 628 625
f 58 208 209
f 525 608 40
f 626 547 627
f 518 517 498
f 489 487 491
f 557 26 564
f 325 336 344
f 541 145 539
f 40 616 516
f 338 556 89
f 250 248 245
f 139 514 515
f 98 594 596
f 246 220 1
f 112 413 630
f 9 536 413
f 156 600 601
f 332 177 14
f 321 342 332
f 156 606 600
f 584 330 585
f 302 303 81
f 584 87 330
f 330 25 585
f 400 239 65
f 439 440 117
f 95 358 368
f 597 594 131
f 594 361 486
f 246 67 245
f 561 562 149
f 28 364 362
f 55 216 217
f 427 430 114
f 267 20 254
f 556 555 553
f 84 309 558
f 311 310 312
f 609 525 142
f 256 68 255
f 124 460 461
f 82 311 312
f 307 308 82
f 589 135 495
f 527 40 514
f 112 418 412
f 20 256 254
f 258 238 19
f 267 254 269
f 273 272 249
f 392 391 393
f 137 533 509
f 122 455 456
f 9 413 411
f 130 480 505
f 333 443 5
f 527 525 40
f 589 495 385
f 39 496 485
f 223 225 224
f 414 416 415
f 219 222 53
f 145 538 539
f 413 412 411
f 469 468 467
f 183 181 6
f 191 192 50
f 429 35 431
f 292 285 76
f 413 112 412
f 415 110 412
f 43 164 167
f 467 468 126
f 617 101 620
f 450 451 117
f 438 546 545
f 619 620 159
f 17 212 210
f 124 579 576
f 584 153 583
f 460 124 576
f 3 469 467
f 311 308 314
f 6 320 183
f 389 104 388
f 251 250 249
f 194 165 1
f 291 289 278
f 287 77 348
f 238 258 257
f 139 517 518
f 238 236 19
f 223 247 19
f 382 380 29
f 39 518 498
f 361 359 3
f 69 255 257
f 139 518 528
f 33 545 535
f 387 385 7
f 69 268 269
f 477 462 125
f 454 479 123
f 121 555 447
f 451 435 117
f 454 425 4
f 233 252 8
f 124 463 464
f 69 258 268
f 168 167 166
f 583 153 582
f 384 394 102
f 138 512 513
f 57 210 211
f 254 256 255
f 607 609 142
f 324 319 86
f 289 291 76
f 291 292 76
f 384 102 383
f 422 421 420
f 221 17 197
f 383 102 381
f 376 377 99
f 99 373 374
f 386 105 392
f 438 33 440
f 90 341 343
f 281 75 279
f 574 571 96
f 628 82 312
f 221 222 59
f 127 471 474
f 595 605 603
f 551 538 145
f 334 91 340
f 322 324 85
f 305 303 301
f 18 239 399
f 306 204 16
f 199 198 197
f 166 190 180
f 303 80 301
f 267 266 265
f 626 42 547
f 16 215 213
f 349 351 350
f 295 16 213
f 68 379 252
f 250 251 66
f 627 160 626
f 383 68 256
f 343 88 342
f 507 508 136
f 202 215 16
f 197 198 53
f 254 69 269
f 603 605 156
f 418 419 111
f 384 383 256
f 455 122 476
f 203 204 54
f 556 557 148
f 255 68 253
f 313 84 560
f 25 328 341
f 254 255 69
f 603 156 602
f 581 584 583
f 630 632 112
f 163 246 1
f 246 245 220
f 432 116 558
f 499 591 590
f 320 563 86
f 345 93 350
f 306 16 295
f 346 93 345
f 562 568 149
f 604 605 155
f 154 592 593
f 545 552 535
f 511 522 530
f 574 573 571
f 566 150 565
f 361 98 360
f 67 271 273
f 234 235 65
f 208 211 56
f 574 151 573
f 251 270 66
f 398 8 378
f 213 215 214
f 438 440 439
f 315 314 313
f 263 71 262
f 20 373 384
f 496 134 504
f 329 88 328
f 81 306 316
f 555 556 148
f 592 589 103
f 617 619 107
f 227 207 56
f 571 359 96
f 446 466 465
f 206 216 55
f 359 571 469
f 568 148 570
f 34 437 435
f 28 351 349
f 21 272 282
f 113 423 424
f 490 489 488
f 379 68 383
f 210 212 211
f 80 563 300
f 351 92 350
f 326 346 12
f 83 317 318
f 555 148 554
f 212 231 56
f 218 57 217
f 271 67 246
f 195 196 52
f 270 268 66
f 390 592 103
f 148 568 554
f 495 493 7
f 592 390 593
f 357 95 355
f 574 575 151
f 452 120 451
f 154 591 592
f 587 585 577
f 395 394 396
f 93 349 350
f 610 416 611
f 166 44 190
f 315 23 302
f 315 302 317
f 268 247 66
f 606 154 593
f 396 394 99
f 211 212 56
f 370 369 368
f 235 397 65
f 280 278 22
f 83 315 317
f 575 588 151
f 74 279 280
f 385 495 7
f 63 257 253
f 397 235 398
f 214 58 213
f 220 219 194
f 546 146 545
f 236 225 19
f 599 94 602
f 235 233 8
f 102 394 395
f 611 416 32
f 225 223 19
f 139 528 529
f 231 62 229
f 419 406 421
f 451 450 452
f 49 182 185
f 402 397 107
f 52 199 218
f 416 610 110
f 225 236 244
f 107 397 398
f 68 252 253
f 322 85 321
f 182 181 183
f 118 438 439
f 546 438 118
f 348 77 345
f 543 546 118
f 231 212 232
f 610 611 157
f 33 438 545
f 385 386 103
f 479 480 130
f 169 195 15
f 93 583 349
f 15 195 206
f 190 44 192
f 247 248 66
f 146 552 545
f 248 60 245
f 570 557 564
f 274 271 43
f 63 253 233
f 272 21 249
f 507 528 518
f 67 273 249
f 487 467 126
f 196 195 169
f 624 159 623
f 134 496 497
f 132 503 488
f 104 393 395
f 556 553 89
f 355 356 94
f 258 69 257
f 229 61 227
f 56 231 227
f 460 576 335
f 463 124 461
f 394 373 99
f 29 393 391
f 67 250 245
f 193 198 196
f 462 36 464
f 144 633 630
f 141 526 527
f 517 133 498
f 536 144 630
f 100 372 599
f 144 536 537
f 22 289 287
f 578 579 152
f 579 578 576
f 189 188 187
f 60 223 224
f 92 348 350
f 555 554 447
f 396 377 388
f 194 193 165
f 413 536 630
f 372 352 599
f 377 376 375
f 348 345 350
f 105 386 387
f 240 237 234
f 463 462 464
f 135 500 494
f 45 196 169
f 512 612 387
f 245 60 220
f 429 115 456
f 223 60 248
f 288 289 76
f 525 526 142
f 100 599 601
f 613 29 391
f 526 523 520
f 341 328 343
f 631 641 639
f 264 21 282
f 266 72 265
f 106 402 403
f 73 273 274
f 186 206 205
f 381 379 383
f 52 216 195
f 410 18 399
f 290 272 73
f 72 371 374
f 526 525 527
f 115 430 424
f 498 497 496
f 621 382 29
f 543 118 434
f 214 215 57
f 522 141 530
f 511 510 509
f 352 94 599
f 493 512 7
f 90 340 341
f 169 171 170
f 605 604 606
f 219 60 224
f 104 389 392
f 359 469 3
f 186 49 185
f 222 219 224
f 166 167 44
f 428 427 426
f 523 522 524
f 129 502 481
f 50 185 188
f 164 45 170
f 425 115 424
f 33 428 426
f 427 428 113
f 94 356 602
f 515 138 513
f 114 431 452
f 237 236 238
f 215 217 57
f 95 354 355
f 220 60 219
f 515 514 516
f 183 320 319
f 222 197 53
f 559 569 567
f 300 320 6
f 435 436 117
f 96 360 363
f 640 642 641
f 242 243 62
f 140 537 519
f 508 130 505
f 420 410 399
f 537 539 144
f 317 316 318
f 426 114 450
f 186 15 206
f 311 83 310
f 625 544 307
f 544 10 307
f 168 43 167
f 185 182 188
f 369 354 95
f 44 171 192
f 605 606 156
f 548 549 146
f 100 601 375
f 149 568 569
f 381 380 382
f 455 466 35
f 480 479 454
f 543 548 546
f 493 133 513
f 492 472 37
f 477 125 476
f 491 487 126
f 337 336 338
f 588 153 587
f 576 578 91
f 633 161 632
f 96 359 360
f 39 485 483
f 101 617 378
f 193 45 165
f 163 164 43
f 618 624 611
f 507 136 528
f 561 149 560
f 641 162 639
f 116 561 558
f 494 133 493
f 253 252 233
f 63 237 238
f 392 393 104
f 440 450 117
f 93 581 583
f 386 385 387
f 120 449 451
f 421 422 111
f 486 3 467
f 302 81 317
f 633 632 630
f 462 475 36
f 376 99 374
f 489 490 131
f 447 449 448
f 387 612 105
f 106 420 399
f 173 46 172
f 492 491 472
f 316 306 295
f 22 287 347
f 109 410 420
f 507 39 483
f 559 23 313
f 214 57 211
f 196 45 193
f 10 434 432
f 422 106 403
f 626 160 640
f 487 486 467
f 542 41 532
f 400 106 399
f 444 120 452
f 198 199 52
f 475 127 474
f 621 620 382
f 621 623 159
f 450 114 452
f 92 347 348
f 376 100 375
f 434 118 433
f 503 132 502
f 337 90 336
f 537 536 519
f 395 393 380
f 201 54 200
f 171 44 170
f 355 94 353
f 58 296 213
f 422 420 106
f 595 365 596
f 569 568 570
f 523 140 520
f 114 430 431
f 218 210 57
f 304 566 80
f 639 162 638
f 261 371 72
f 548 147 547
f 498 133 497
f 150 570 564
f 222 224 59
f 142 526 520
f 437 436 435
f 141 522 523
f 137 510 505
f 173 179 176
f 559 149 569
f 121 447 448
f 563 320 300
f 102 395 380
f 257 255 253
f 642 162 641
f 83 311 314
f 216 52 218
f 512 493 513
f 23 304 302
f 91 339 340
f 512 138 612
f 159 620 621
f 218 199 210
f 364 28 575
f 83 318 310
f 168 274 43
f 136 530 528
f 140 523 524
f 495 135 494
f 233 235 234
f 566 563 80
f 25 339 577
f 277 74 276
f 475 462 477
f 133 494 497
f 436 437 116
f 389 386 392
f 548 146 546
f 441 460 5
f 10 309 307
f 65 397 400
f 543 434 544
f 640 641 161
f 272 273 73
f 581 93 346
f 419 421 111
f 319 320 86
f 180 179 178
f 127 475 477
f 231 229 227
f 337 334 340
f 136 508 510
f 308 309 84
f 237 63 234
f 447 554 34
f 252 379 378
f 315 83 314
f 608 622 616
f 338 336 26
f 337 338 89
f 13 275 168
f 209 208 207
f 436 439 117
f 628 312 629
f 360 366 363
f 364 574 96
f 359 361 360
f 466 446 35
f 500 501 134
f 406 109 421
f 135 589 591
f 601 599 602
f 340 90 337
f 481 492 37
f 522 41 524
f 78 316 295
f 131 486 487
f 403 32 414
f 634 626 640
f 151 572 573
f 515 516 138
f 8 252 378
f 265 72 374
f 9 521 519
f 538 549 42
f 368 358 347
f 588 587 586
f 458 453 123
f 589 385 103
f 502 492 481
f 32 416 414
f 430 427 424
f 153 585 587
f 540 144 539
f 370 368 92
f 209 293 58
f 428 33 535
f 326 581 346
f 625 307 82
f 575 28 582
f 6 181 200
f 421 109 420
f 553 121 443
f 160 642 640
f 153 584 585
f 309 432 558
f 334 337 89
f 23 315 313
f 271 163 43
f 296 295 213
f 39 498 496
f 118 439 433
f 531 113 534
f 293 296 58
f 28 362 351
f 489 131 487
f 431 444 452
f 84 558 560
f 98 366 360
f 45 169 170
f 379 101 378
f 462 463 125
f 308 84 314
f 10 432 309
f 299 24 310
f 132 492 502
f 512 387 7
f 639 638 408
f 565 323 86
f 59 244 242
f 106 400 402
f 440 33 426
f 566 565 563
f 617 398 378
f 224 225 59
f 410 109 409
f 239 400 399
f 194 219 53
f 358 22 347
f 610 157 609
f 27 595 603
f 479 484 482
f 142 520 521
f 585 25 577
f 339 578 577
f 408 407 406
f 407 109 406
f 31 408 406
f 407 408 108
f 31 639 408
f 419 31 406
f 608 616 40
f 430 429 431
f 455 35 429
f 35 444 431
f 188 51 187
f 188 182 51
f 51 322 187
f 322 51 319
f 51 182 183
f 319 51 183
f 187 322 321
f 322 319 324
f 381 101 379
f 405 407 108
f 404 405 108
f 286 285 178
f 407 405 409
f 109 407 409
f 191 175 47
f 167 164 170
f 50 184 185
f 44 167 170
f 64 244 236
f 243 244 64
f 50 188 189
f 541 542 145
f 442 445 119
f 339 91 578
f 445 446 119
f 624 623 622
f 611 624 157
f 523 526 141
f 141 527 529
f 527 514 529
f 445 120 444
f 446 445 444
f 35 446 444
f 613 614 158
f 158 614 615
f 623 613 158
f 614 613 391
f 614 612 615
f 371 376 374
f 100 376 371
f 479 482 123
f 373 394 384
f 540 42 634
f 633 540 634
f 538 42 540
f 633 634 161
f 161 634 640
f 42 626 634
f 540 633 144
f 557 556 338
f 553 333 89
f 262 21 264
f 251 21 262
f 5 335 333
f 270 251 262
f 21 251 249
f 600 593 30
f 606 593 600
f 600 30 375
f 593 390 30
f 30 377 375
f 390 388 30
f 30 388 377
f 228 243 241
f 470 478 459
f 470 127 478
f 127 477 478
f 184 186 185
f 478 477 476
f 122 478 476
f 357 74 280
f 518 39 507
f 344 342 85
f 325 344 85
f 342 344 343
f 85 342 321
f 344 90 343
f 90 344 336
f 482 129 481
f 482 481 457
f 482 457 123
f 481 37 457
f 449 447 34
f 435 449 34
f 470 472 471
f 472 470 37
f 470 471 127
f 472 126 471
f 126 468 471
f 470 459 37
f 491 126 472
f 504 129 485
f 221 59 242
f 125 463 465
f 437 34 562
f 561 437 562
f 554 568 562
f 34 554 562
f 437 561 116
f 390 103 389
f 103 386 389
f 392 105 391
f 572 586 580
f 572 580 36
f 586 152 580
f 473 572 36
f 244 243 242
f 225 244 59
f 64 240 241
f 240 239 241
f 237 240 64
f 243 64 241
f 236 237 64
f 411 607 521
f 9 411 521
f 110 607 411
f 607 142 521
f 610 607 110
f 171 15 184
f 171 169 15
f 15 186 184
f 87 584 581
f 153 588 582
f 588 575 582
f 381 102 380
f 573 572 473
f 468 469 128
f 474 468 128
f 469 571 128
f 571 573 128
f 573 473 128
f 473 474 128
f 564 323 565
f 26 323 564
f 323 324 86
f 325 323 26
f 325 324 323
f 563 565 86
f 324 325 85
f 410 230 18
f 230 228 18
f 18 228 241
f 18 241 239
f 401 619 618
f 401 402 107
f 403 402 401
f 619 159 618
f 401 618 32
f 619 401 107
f 403 401 32
f 618 611 32
f 159 624 618
f 478 122 459
f 122 458 459
f 37 459 457
f 459 458 457
f 122 456 458
f 457 458 123
f 191 190 192
f 485 129 484
f 129 482 484
f 483 485 484
f 130 483 484
f 189 187 14
f 191 50 189
f 191 189 175
f 189 14 175
f 14 177 175
f 499 501 500
f 501 499 38
f 38 499 590
f 135 499 500
f 488 501 38
f 499 135 591
f 480 454 4
f 284 12 346
f 4 423 506
f 480 4 506
f 423 531 506
f 480 506 505
f 531 137 506
f 506 137 505
f 365 366 98
f 71 270 262
f 270 71 269
f 71 267 269
f 335 334 333
f 333 334 89
f 334 335 91
f 536 9 519
f 465 463 461
f 537 140 541
f 520 140 519
f 119 446 465
f 465 461 119
f 461 441 119
f 460 441 461
f 176 46 173
f 299 297 24
f 71 263 266
f 263 260 266
f 260 72 266
f 263 70 260
f 205 201 49
f 201 181 49
f 186 205 49
f 181 201 200
f 181 182 49
f 284 77 283
f 586 587 152
f 588 586 151
f 20 267 265
f 266 267 71
f 31 417 631
f 631 417 632
f 31 631 639
f 417 31 419
f 641 631 161
f 417 112 632
f 161 631 632
f 418 417 419
f 417 418 112
f 284 345 77
f 542 550 145
f 542 541 524
f 284 174 12
f 48 174 283
f 373 20 265
f 373 265 374
f 609 608 525
f 608 157 622
f 560 559 313
f 636 637 162
f 541 140 524
f 41 542 524
f 358 357 280
f 70 263 264
f 263 262 264
f 176 177 46
f 174 48 173
f 174 173 172
f 538 551 549
f 538 540 539
f 537 541 539
f 232 221 242
f 17 221 232
f 232 242 62
f 231 232 62
f 203 205 55
f 203 55 202
f 201 205 203
f 202 55 217
f 205 206 55
f 204 203 202
f 73 275 292
f 292 290 73
f 272 290 282
f 290 292 291
f 75 290 291
f 290 75 282
f 70 277 259
f 277 70 281
f 277 281 279
f 260 70 259
f 12 174 172
f 104 396 388
f 367 27 354
f 365 27 367
f 354 27 356
f 365 367 366
f 595 27 365
f 318 299 310
f 155 596 597
f 155 597 598
f 596 594 597
f 595 596 155
f 605 595 155
f 180 47 179
f 180 190 47
f 352 372 11
f 11 372 261
f 312 310 24
f 642 636 162
f 636 297 637
f 367 369 97
f 366 367 97
f 369 367 354
f 369 370 97
f 580 579 464
f 580 152 579
f 579 124 464
f 61 230 409
f 230 410 409
f 230 61 229
f 230 229 228
f 76 285 286
f 353 352 276
f 74 353 276
f 288 76 286
f 288 286 283
f 289 288 287
f 203 54 201
f 287 288 77
f 77 288 283
f 286 48 283
f 531 423 113
f 276 11 259
f 11 261 259
f 277 276 259
f 616 158 615
f 516 616 615
f 138 516 615
f 138 615 612
f 509 533 532
f 503 502 504
f 635 79 294
f 635 294 404
f 635 637 79
f 637 635 638
f 638 635 108
f 635 404 108
f 226 61 405
f 61 226 227
f 405 61 409
f 227 226 207
f 48 178 179
f 48 286 178
f 173 48 179
f 534 143 533
f 534 535 143
f 531 534 533
f 533 143 532
f 137 531 533
f 261 372 371
f 13 180 178
f 285 13 178
f 180 13 166
f 13 168 166
f 346 345 284
f 331 327 46
f 46 327 172
f 172 327 326
f 382 620 101
f 442 121 448
f 443 121 442
f 2 226 404
f 294 2 404
f 404 226 405
f 207 226 2
f 550 551 145
f 552 146 551
f 143 550 532
f 552 550 143
f 330 329 328
f 24 636 629
f 94 352 353
f 352 11 276
f 113 428 534
f 428 535 534
f 509 41 511
f 535 552 143
f 550 552 551
f 550 542 532
f 369 95 368
f 326 327 87
f 87 327 329
f 327 331 329
f 581 326 87
f 293 79 298
f 79 297 298
f 296 298 78
f 79 293 294
f 296 293 298
f 598 490 38
f 358 280 22
f 280 279 278
f 357 358 95
f 74 357 353
f 330 328 25
f 567 23 559
f 590 598 38
f 590 604 598
f 598 604 155
f 604 590 154
f 590 591 154
f 604 154 606
f 297 299 298
f 299 318 78
f 298 299 78
f 355 354 356
f 629 636 642
f 312 24 629
f 629 642 160
f 370 362 97
f 362 363 97
f 363 366 97
f 364 363 362
f 362 370 351
f 96 363 364
f 297 636 24
f 162 637 638
f 637 297 79
f 490 488 38
f 598 597 490
f 441 442 119
f 443 442 441
f 443 441 5
f 442 448 445
f 296 78 295
f 326 12 172
f 575 574 364
f 47 175 176
f 175 177 176
f 47 176 179
