# FEM surface export ¡ª frame 530
# Vertices: 642  Faces: 1280
v -0.51757377 0.92117363 0.00025551
v 0.51734555 0.92466253 -0.00031032
v -0.51252037 0.31869698 -0.00244415
v 0.51921707 0.24582316 0.02721974
v -0.01864366 0.09051689 0.91899651
v -0.00369067 0.64766371 0.84781927
v 0.01830511 0.10097399 -0.93531424
v -0.00128127 0.64687461 -0.84653348
v 0.92573756 0.23596103 -0.57231897
v 0.90444463 0.23925146 0.55421793
v -0.92075056 0.24313012 -0.56430835
v -0.91062921 0.22295718 0.57565725
v -0.80850929 0.61295992 0.30836305
v -0.50497562 0.45551106 0.82053453
v -0.30464181 0.89137495 0.49175096
v 0.30713469 0.88661253 0.49059850
v -0.00097395 1.05037868 -0.00215386
v 0.30347547 0.88935691 -0.49248508
v -0.30296373 0.88731933 -0.49409199
v -0.50704914 0.46732384 -0.81806457
v -0.80453187 0.61919093 -0.30167904
v -1.07165277 0.22142895 0.00533966
v 0.50559330 0.46978694 0.82598859
v 0.81047779 0.61642170 0.30511224
v -0.59454322 0.00011469 0.93865353
v 0.00831116 0.21389049 1.07572329
v -0.88843417 0.11835032 -0.36122158
v -0.89314222 0.09232891 0.30062056
v -0.00848293 0.23090832 -1.07473707
v -0.58820176 0.00021808 -0.94935364
v 0.81176358 0.61925060 -0.30630672
v 0.51013649 0.46380395 -0.81593943
v 0.89581782 0.04927707 0.34839609
v 0.58267021 0.01235113 0.94358635
v 0.31386632 0.31096223 0.52585399
v -0.29341510 0.29576245 0.49264559
v 0.01612740 0.07837752 0.06322441
v -0.32947671 0.05676941 -0.46036354
v 0.34156114 0.14324968 -0.49823594
v 0.57366168 0.00039369 -0.93820947
v 0.84358722 0.14851442 -0.32272232
v 1.07606280 0.22475439 -0.01510492
v -0.69181561 0.79369766 0.15998797
v -0.58498961 0.78303146 0.42125684
v -0.42703718 0.93386507 0.25535718
v -0.72075599 0.33466157 0.72718161
v -0.68940622 0.55080295 0.58981681
v -0.87408143 0.41876289 0.44799864
v -0.15767322 0.79301077 0.69451094
v -0.42405209 0.69657856 0.68540907
v -0.26327628 0.56236088 0.86200154
v -0.15750414 1.00841260 0.25468925
v -0.26809743 1.01691735 -0.00127532
v 0.16267619 0.79256201 0.69483596
v 0.00267762 0.92622846 0.51563996
v 0.26550660 1.01740408 -0.00230388
v 0.15945162 1.00900912 0.25492272
v 0.42715421 0.93443882 0.25472364
v -0.15898845 1.00897026 -0.25919804
v -0.42704603 0.93160045 -0.25636715
v 0.42671567 0.93511128 -0.25434241
v 0.15882181 1.01117468 -0.25827387
v -0.15825266 0.78516328 -0.69473523
v 0.00147278 0.92299056 -0.51937324
v 0.16113310 0.78939569 -0.69619298
v -0.57969820 0.78160989 -0.42384163
v -0.68877685 0.79649794 -0.15800561
v -0.26304451 0.56202364 -0.86010027
v -0.41962349 0.69062227 -0.68233448
v -0.88206321 0.41845745 -0.43094337
v -0.69089299 0.55403972 -0.57692957
v -0.73663986 0.36277404 -0.71976411
v -0.84965187 0.63978696 0.00223510
v -1.04202604 0.22387289 -0.28864706
v -0.96547598 0.42168620 -0.15605517
v -0.96706003 0.42036673 0.17673749
v -1.03381133 0.22144446 0.30322039
v 0.58339286 0.78099877 0.41893151
v 0.68794763 0.79622489 0.15995428
v 0.26096091 0.56811911 0.86383498
v 0.42832232 0.69913512 0.68453383
v 0.87914878 0.42279372 0.43630475
v 0.69338536 0.55234009 0.58626759
v 0.71884108 0.34175795 0.71513647
v -0.26457638 0.33869585 0.98289895
v 0.00054889 0.42863524 0.97500253
v -0.78510416 0.10671607 0.78607553
v -0.54667652 0.21472104 0.92574435
v 0.00091751 0.03882932 1.12170076
v -0.29172444 0.09049717 1.08543491
v -0.33295646 0.08738851 0.93918121
v -1.10578597 0.03895381 0.19275668
v -1.00517321 0.06490020 0.50139886
v -0.99473435 0.04976120 -0.51138532
v -1.10795474 0.03320853 -0.19230226
v -0.73329729 0.27411661 0.17873085
v -0.93974185 0.09182955 -0.00349524
v -0.74279815 0.27524060 -0.15349881
v -0.56766123 0.24233423 -0.91334569
v -0.79561639 0.11819531 -0.77436680
v -0.00274013 0.43669552 -0.98052931
v -0.27808237 0.34857982 -0.98628289
v -0.27868307 0.00409383 -0.97160411
v -0.30818132 0.11344662 -1.07731009
v -0.01412037 0.01278730 -1.12521040
v 0.42555949 0.69241297 -0.67903006
v 0.26248837 0.56977761 -0.86511928
v 0.68794125 0.79392207 -0.15589644
v 0.57996184 0.78265786 -0.41710615
v 0.72751302 0.34886676 -0.72892326
v 0.69186497 0.55853027 -0.58496922
v 0.88438284 0.41525930 -0.44675264
v 0.72958726 0.19653754 0.19178593
v 0.62155199 0.15718880 0.46938479
v 0.46170554 0.29439297 0.29814246
v 0.78403038 0.11746848 0.76735687
v 0.74994564 0.02908686 0.67762297
v 0.99510294 0.04845800 0.50607377
v 0.15034553 0.18896784 0.75371844
v 0.45128402 0.15636635 0.73967361
v 0.26663658 0.06387027 0.97024834
v 0.16657163 0.29180193 0.25354579
v 0.29051957 0.08523168 0.03984204
v -0.15667123 0.20009825 0.72386283
v 0.01466925 0.29928389 0.52453536
v -0.27841628 0.15945898 0.04267121
v -0.16905521 0.19009323 0.24229141
v -0.42021260 0.29205188 0.25810352
v 0.16843082 0.11140072 -0.21918193
v 0.44407019 0.18136325 -0.24558619
v -0.42526445 0.23302373 -0.22785079
v -0.16453949 0.07734925 -0.22271432
v 0.16867431 0.22954379 -0.71228802
v 0.02272314 0.08731375 -0.49474657
v -0.14803874 0.08559528 -0.71139902
v 0.60494316 0.25592676 -0.46298495
v 0.69237083 0.26988754 -0.14616671
v 0.30390733 0.07726159 -0.97163522
v 0.43628418 0.14311010 -0.73459685
v 1.01627815 0.04259174 -0.51407850
v 0.77746403 0.05372475 -0.65222132
v 0.79949147 0.12116029 -0.78885394
v 0.92791879 0.10845213 0.01424286
v 1.04264069 0.22020778 -0.29863453
v 1.11384654 0.02243485 -0.20026243
v 1.10649931 0.09137027 0.18346229
v 1.03033364 0.22544432 0.28720167
v 0.30436417 0.11304145 1.07593870
v 0.56767309 0.23414262 0.90826815
v 0.27390003 0.35275909 0.98169965
v -0.60467988 0.21449578 0.43612602
v -0.45294133 0.16040713 0.68678677
v -0.75878233 0.09666073 0.61966819
v -0.45978597 0.11508708 -0.75747305
v -0.62779707 0.23530629 -0.44858199
v -0.78308004 0.10501784 -0.66311955
v 0.56589282 0.23234957 -0.92661506
v 0.28481498 0.10158660 -1.07423413
v 0.27285594 0.34770662 -0.99272209
v 0.96660048 0.42040697 0.15586667
v 0.96984643 0.41910583 -0.16846219
v 0.85038626 0.64254546 -0.00143984
v -0.60892195 0.86699861 0.08247185
v -0.56438220 0.87483650 0.21139067
v -0.47657382 0.93527281 0.12896748
v -0.70442992 0.70293999 0.36709851
v -0.64341706 0.79337543 0.29149055
v -0.75791341 0.70550001 0.23456724
v -0.36865890 0.91994750 0.37648395
v -0.51112437 0.86623174 0.34220660
v -0.44910148 0.84571457 0.46238363
v -0.81984651 0.27750158 0.65782052
v -0.80625570 0.38139096 0.59211463
v -0.89789695 0.31888083 0.51301855
v -0.60252720 0.50897950 0.71381199
v -0.70677590 0.44455799 0.66433620
v -0.61517751 0.39371148 0.77911133
v -0.84577858 0.51301003 0.37898505
v -0.78819072 0.48434687 0.52345753
v -0.75984597 0.58839101 0.45283142
v -0.08076287 0.72444791 0.77769572
v -0.21380210 0.68349844 0.78918558
v -0.13344523 0.60701931 0.86335480
v -0.36822736 0.80184978 0.59559625
v -0.29310772 0.75118220 0.69642699
v -0.23353042 0.84925997 0.59813595
v -0.38838693 0.51123458 0.84804201
v -0.34748065 0.63352549 0.78159219
v -0.47059566 0.57781529 0.75784975
v -0.64458287 0.67243743 0.50953263
v -0.56369758 0.62920856 0.64444780
v -0.51086360 0.74809146 0.56067669
v -0.35208136 0.98502147 0.12751910
v -0.39717925 0.97541898 -0.00118717
v -0.23172404 0.95890862 0.37671387
v -0.29571325 0.97960013 0.25763986
v -0.13564464 1.04239523 -0.00211149
v -0.21497205 1.02090228 0.12839663
v -0.08060099 1.03942561 0.12836587
v 0.08201450 0.72495216 0.77893281
v 0.00278783 0.80246210 0.70488161
v 0.15662940 0.91480500 0.50858277
v 0.08452456 0.86761492 0.61205232
v 0.23987661 0.84704399 0.59718496
v -0.07767431 0.86830240 0.61176920
v -0.15263012 0.91663164 0.50891382
v 0.39538625 0.97772133 -0.00262834
v 0.35057074 0.98645085 0.12628764
v 0.47553411 0.93737519 0.12780964
v 0.08004895 1.03992414 0.12714143
v 0.21491595 1.02201378 0.12804830
v 0.13367955 1.04269385 -0.00240146
v 0.37024984 0.91756910 0.37612459
v 0.29513851 0.97905117 0.25603503
v 0.23508105 0.95689273 0.37689775
v -0.07959401 0.97595620 0.38942733
v 0.08102124 0.97568595 0.38932905
v 0.00013491 1.01919162 0.25726932
v -0.35264120 0.98584151 -0.13066798
v -0.47755033 0.93372440 -0.12884720
v -0.08062802 1.04015136 -0.13205224
v -0.21548878 1.02170265 -0.13104589
v -0.36873120 0.91627818 -0.37915802
v -0.29531682 0.97852564 -0.26049936
v -0.23364833 0.95795065 -0.38084128
v 0.47723743 0.93610263 -0.12883362
v 0.35021946 0.98670542 -0.13013984
v 0.23368213 0.95962065 -0.37885478
v 0.29486737 0.98122627 -0.25820100
v 0.36766124 0.92078596 -0.37588593
v 0.21420445 1.02366984 -0.13130765
v 0.07952165 1.04062760 -0.13172592
v -0.08176267 0.71863556 -0.77734286
v 0.00049307 0.79603839 -0.70623904
v 0.08197388 0.72103846 -0.77728719
v -0.15284280 0.91332030 -0.51240623
v -0.07924647 0.86151052 -0.61294228
v -0.23223484 0.84192163 -0.60050893
v 0.23525243 0.84467447 -0.59922922
v 0.08099122 0.86359084 -0.61358023
v 0.15411556 0.91464764 -0.51180613
v 0.00025341 1.02008080 -0.26175508
v 0.08126251 0.97792137 -0.39250779
v -0.07988512 0.97648388 -0.39381003
v -0.56529051 0.87242270 -0.20906191
v -0.60893786 0.86573571 -0.07775877
v -0.44593772 0.84216416 -0.46616066
v -0.50776267 0.86432332 -0.34267473
v -0.75247425 0.71032965 -0.23047549
v -0.64040273 0.79419971 -0.29359087
v -0.69984043 0.70514220 -0.36513987
v -0.13223644 0.60974354 -0.86224407
v -0.21158053 0.67638367 -0.78861415
v -0.47070357 0.57960516 -0.75134015
v -0.34585541 0.62756562 -0.77786404
v -0.38869700 0.51894295 -0.84666514
v -0.29014507 0.74230945 -0.69769078
v -0.36514246 0.79662746 -0.59719855
v -0.91095680 0.32809559 -0.49781191
v -0.82101786 0.39359301 -0.57938892
v -0.83466542 0.29915795 -0.64766079
v -0.75642592 0.58598435 -0.44232062
v -0.79319477 0.48875973 -0.51155210
v -0.84659654 0.51825529 -0.36769629
v -0.62268132 0.41611439 -0.77561837
v -0.71949875 0.45643091 -0.65148509
v -0.61218113 0.51477295 -0.70688605
v -0.50873625 0.74547696 -0.56021065
v -0.56269848 0.62851167 -0.63908410
v -0.64492428 0.66961455 -0.50562614
v -0.69830954 0.80275571 0.00146921
v -0.83746517 0.63736528 -0.15289362
v -0.77621371 0.72219515 -0.07918887
v -0.77835006 0.72043324 0.08127111
v -0.84039909 0.63257194 0.15611689
v -0.99271595 0.24297260 -0.42838138
v -0.96984982 0.31840533 -0.36303407
v -1.02928281 0.32550219 -0.07559235
v -1.00705171 0.32102463 -0.22202869
v -1.06370652 0.22878905 -0.14208093
v -0.93021286 0.42623714 -0.29617682
v -0.89203572 0.52395535 -0.23168351
v -0.96050316 0.32163817 0.38192225
v -0.98224646 0.22798654 0.44429418
v -0.89251697 0.51698500 0.24376014
v -0.93479836 0.42125541 0.31591341
v -1.07042861 0.23047584 0.15837730
v -1.00648999 0.32396245 0.24052416
v -1.03362942 0.32892448 0.09513455
v -0.91700464 0.53598160 -0.07584438
v -0.97717142 0.42418629 0.00909736
v -0.91869730 0.52979094 0.08989347
v 0.56386042 0.87526262 0.20865199
v 0.60853058 0.86793303 0.07966907
v 0.45058185 0.84118330 0.46107608
v 0.51132458 0.86546570 0.34101966
v 0.75700057 0.71128196 0.23365779
v 0.64233518 0.79628086 0.29147598
v 0.70470911 0.70644236 0.36559880
v 0.13016187 0.61233312 0.86631680
v 0.21530338 0.68715686 0.78866947
v 0.47394904 0.58676153 0.76171261
v 0.34827709 0.64040047 0.78213692
v 0.38745981 0.51900941 0.85163236
v 0.29868644 0.75345153 0.69540060
v 0.37458721 0.80066574 0.59426755
v 0.89372712 0.32393038 0.49433249
v 0.81203341 0.37734258 0.58213907
v 0.81730914 0.29364705 0.63856107
v 0.76075763 0.59119427 0.45024812
v 0.79222101 0.48667496 0.51648039
v 0.84924102 0.51627535 0.37241551
v 0.61901498 0.40764853 0.78000498
v 0.71515352 0.44516712 0.65517563
v 0.60924810 0.50923491 0.71152496
v 0.51471162 0.74507141 0.55866027
v 0.56789351 0.63189471 0.64374030
v 0.64760399 0.67133462 0.50770694
v -0.13517694 0.50036448 0.92729288
v -0.00203474 0.53719437 0.91654348
v -0.38978645 0.39762160 0.90883768
v -0.26649794 0.44881678 0.92401946
v -0.00103202 0.32126078 1.02694178
v -0.13127983 0.38370928 0.98431218
v -0.13410740 0.27131188 1.03697455
v -0.85731351 0.15778708 0.68802881
v -0.75672460 0.21927953 0.76717401
v -0.57235628 0.09416138 0.94995195
v -0.66808820 0.15776564 0.86562163
v -0.70290196 0.04197548 0.87673569
v -0.64087957 0.26913878 0.83056873
v -0.53123683 0.33212170 0.87619680
v -0.02958699 0.03857941 1.03983724
v -0.18214971 0.01044272 1.05889690
v -0.18150334 0.09037006 0.93219942
v -0.14579292 0.15882781 1.09227014
v -0.14812128 0.04830079 1.10991514
v 0.00121597 0.13891588 1.11068988
v -0.47599453 0.03054196 0.93481207
v -0.32889390 0.00035870 1.05912161
v -0.45109630 0.06078494 1.04410899
v -0.40921926 0.27119473 0.96309656
v -0.42535609 0.14372726 1.01059639
v -0.27710801 0.21952392 1.03597629
v -1.03367066 0.13250834 0.41640240
v -0.96479970 0.12659140 0.55604666
v -1.10349953 0.13676111 0.09780274
v -1.08004844 0.13321075 0.25272128
v -0.98718506 0.01286002 0.40242517
v -1.06650651 0.05312490 0.35011554
v -1.01228392 0.01535044 0.24188192
v -0.97172302 0.14515603 -0.54438818
v -1.04159272 0.14325657 -0.40446606
v -1.02145529 0.04982011 -0.30516544
v -1.04619014 0.04444641 -0.35822341
v -0.95712906 0.01741727 -0.45762870
v -1.08151400 0.12462213 -0.24472342
v -1.10603952 0.13180587 -0.09342694
v -0.62600356 0.29706848 0.08819091
v -0.74360317 0.26628283 -0.01145646
v -0.63466150 0.32156563 -0.08491080
v -0.91551328 0.12298106 0.13154884
v -0.85945791 0.20692001 0.07026885
v -0.81937563 0.19610345 0.23764229
v -0.82341111 0.20773329 -0.25481555
v -0.85618019 0.20204139 -0.09088625
v -0.94673324 0.12708242 -0.19607456
v -1.11513782 0.05103338 0.00118827
v -1.05315638 0.00112572 -0.13962571
v -1.02317095 0.00000000 0.05574265
v -0.76609337 0.24628036 -0.75403965
v -0.86540270 0.18917900 -0.67099559
v -0.53939611 0.34815067 -0.87322628
v -0.65675449 0.30173421 -0.81833702
v -0.70065099 0.06305898 -0.87124401
v -0.69041151 0.18882415 -0.85584879
v -0.59939533 0.12126213 -0.94777125
v 0.00132934 0.54452568 -0.91768402
v -0.13338909 0.50638223 -0.93063045
v -0.14759949 0.28925428 -1.03703558
v -0.14075792 0.39734426 -0.98891091
v -0.01042180 0.33326539 -1.03266191
v -0.27263153 0.45863631 -0.92801511
v -0.39744303 0.40532732 -0.91321689
v -0.13087250 0.06253911 -0.98822778
v -0.14411889 0.00000000 -1.06653774
v 0.00811179 0.02906815 -1.04213774
v -0.45641813 0.07657184 -1.02845800
v -0.30819711 0.00054286 -1.07003653
v -0.44109890 0.00000000 -0.99052274
v -0.01047412 0.12987542 -1.09849834
v -0.15887552 0.06135482 -1.11613095
v -0.15707123 0.16734654 -1.08502424
v -0.42475954 0.27924326 -0.96315026
v -0.29744387 0.22519487 -1.04041183
v -0.45082757 0.17105030 -0.99954510
v 0.21614598 0.68425024 -0.78589326
v 0.13214825 0.61325151 -0.86364913
v 0.36934268 0.79900664 -0.59347045
v 0.29658213 0.74746245 -0.69516194
v 0.39103597 0.51936507 -0.84961587
v 0.35131010 0.63338208 -0.77651650
v 0.47450563 0.58061206 -0.75037217
v 0.60884959 0.86698383 -0.07895191
v 0.56450921 0.87435752 -0.20851110
v 0.70216286 0.70881712 -0.36363482
v 0.64014298 0.79426163 -0.28886333
v 0.75438488 0.71161002 -0.23277076
v 0.50904197 0.86729252 -0.33948806
v 0.44729578 0.84693223 -0.46167636
v 0.83021784 0.29492503 -0.65586364
v 0.81415290 0.39058137 -0.59575003
v 0.90305829 0.33182663 -0.51586103
v 0.60974902 0.50875211 -0.70486665
v 0.71272528 0.44180766 -0.65630060
v 0.62260091 0.40320125 -0.78118533
v 0.85431188 0.51846564 -0.37939215
v 0.78993076 0.49218595 -0.51961154
v 0.76157635 0.59455448 -0.44655722
v 0.50885528 0.74373263 -0.55418599
v 0.64377284 0.67442471 -0.50318033
v 0.56303132 0.62792921 -0.63698053
v 0.60226929 0.23374380 0.10048681
v 0.59917885 0.23020118 0.26009920
v 0.49043125 0.29012874 0.18437204
v 0.75832516 0.09848859 0.42859191
v 0.69664484 0.18093728 0.33289412
v 0.82573634 0.13762158 0.26802444
v 0.40384722 0.31000417 0.41097549
v 0.54189491 0.20967309 0.39153293
v 0.47840104 0.26137999 0.49777073
v 0.85468197 0.18020207 0.66880530
v 0.90570235 0.09216991 0.65391475
v 0.96006209 0.13692504 0.53588659
v 0.68630093 0.00167358 0.83030474
v 0.81690276 0.00127450 0.74838501
v 0.69932842 0.04917061 0.85543227
v 0.96987921 0.00000000 0.43137676
v 0.90917367 0.00000000 0.62260139
v 0.85410517 0.02342661 0.54217327
v 0.06922838 0.14604136 0.83356321
v 0.22562033 0.12807994 0.87673736
v 0.12510876 0.10703775 0.94627488
v 0.37583357 0.22677247 0.63025343
v 0.30915961 0.15117252 0.74742013
v 0.23060222 0.24917720 0.65288019
v 0.44601461 0.01108224 0.94181222
v 0.36757976 0.09568001 0.87297326
v 0.52667105 0.12278794 0.84796709
v 0.72027260 0.07709812 0.57219398
v 0.62946045 0.10864247 0.71841562
v 0.54667777 0.15302362 0.59505069
v 0.41125447 0.15767688 0.19543301
v 0.42347166 0.13719817 0.03472357
v 0.25794843 0.30381349 0.38766527
v 0.33163345 0.31006861 0.26157674
v 0.15344235 0.08371214 0.04768253
v 0.25850689 0.21230300 0.15150079
v 0.10571589 0.15611479 0.15638815
v -0.10186832 0.17243132 0.81743640
v 0.01058596 0.23308997 0.73080587
v -0.15111460 0.32857406 0.53070092
v -0.08393995 0.27598596 0.63131064
v -0.23997064 0.25547209 0.62690693
v 0.07491258 0.27425772 0.63813049
v 0.18227628 0.30842754 0.53830743
v -0.41143951 0.21715102 0.01263750
v -0.32453516 0.30496126 0.13308889
v -0.45545051 0.34545207 0.13654400
v -0.06469268 0.15126207 0.13994148
v -0.17031202 0.30228406 0.12868437
v -0.14791532 0.14082763 0.05517001
v -0.37164545 0.33658639 0.37104067
v -0.27815175 0.34955361 0.25780469
v -0.20587309 0.34575099 0.36632386
v 0.11215101 0.30002755 0.40475193
v -0.05334203 0.33213785 0.35416713
v 0.03516453 0.16047449 0.29983276
v 0.37235409 0.14625046 -0.07641412
v 0.48215136 0.22688736 -0.12081883
v 0.09823557 0.10256007 -0.08498324
v 0.22804736 0.07431618 -0.08285902
v 0.39369252 0.17937186 -0.38289073
v 0.33904171 0.10890688 -0.22208738
v 0.24931006 0.10340225 -0.35516673
v -0.47747812 0.31697455 -0.13599274
v -0.38223323 0.18195750 -0.11397760
v -0.22365670 0.06268267 -0.32949814
v -0.31319076 0.12700163 -0.23572287
v -0.36375818 0.16506371 -0.36650604
v -0.24993086 0.08105518 -0.09512581
v -0.09700844 0.09920631 -0.07949801
v 0.10276826 0.13891783 -0.81412703
v -0.00493525 0.20784895 -0.73435086
v -0.08093076 0.14697370 -0.84180415
v 0.17682940 0.17319374 -0.48692098
v 0.11237769 0.13803688 -0.64410579
v 0.25132462 0.24754959 -0.58338404
v -0.23742449 0.02952204 -0.59834719
v -0.05239474 0.09235407 -0.61885041
v -0.15384659 0.06807564 -0.49208039
v 0.02642156 0.11582312 -0.21005824
v -0.05144713 0.07305044 -0.35818905
v 0.10299827 0.13298632 -0.34731892
v 0.57723618 0.25755033 -0.21708570
v 0.60870606 0.21618696 -0.06012179
v 0.46966201 0.27476546 -0.48996601
v 0.50448304 0.26992029 -0.36438072
v 0.78367853 0.21050467 -0.22944275
v 0.66944969 0.25578490 -0.31112775
v 0.72238672 0.17661816 -0.39732593
v 0.16526756 0.08116204 -0.96566647
v 0.22639401 0.14949913 -0.85281962
v 0.50919342 0.07140939 -0.85687941
v 0.38012093 0.14397024 -0.86791384
v 0.42934847 0.00060726 -0.97322702
v 0.29693669 0.18539497 -0.72675586
v 0.38991758 0.23877382 -0.62189603
v 0.97112483 0.12913668 -0.56001842
v 0.91419953 0.06554032 -0.66779739
v 0.87289977 0.17854439 -0.68471092
v 0.80528617 0.05598687 -0.49755064
v 0.91732889 0.00001258 -0.59778428
v 0.92018217 0.09326611 -0.41888750
v 0.71587163 0.06949652 -0.88776958
v 0.82065207 0.00253122 -0.75585645
v 0.68061852 0.00000000 -0.81822711
v 0.54225397 0.17891735 -0.60759991
v 0.60536885 0.06011112 -0.70172930
v 0.69858497 0.12478488 -0.55798328
v 0.70573592 0.23620860 0.02917873
v 0.90661579 0.15322119 -0.14799148
v 0.81526887 0.21171373 -0.05307073
v 0.83207881 0.19641840 0.10502914
v 0.93179083 0.11415416 0.16406327
v 0.98924673 0.22773254 -0.44164225
v 1.03999209 0.12836850 -0.40773711
v 1.10813451 0.12908398 -0.11066933
v 1.08651507 0.11202132 -0.25384346
v 1.06964552 0.23416759 -0.16192530
v 1.07750320 0.03111619 -0.35951889
v 1.00099492 0.08948563 -0.26773641
v 1.03766739 0.14233884 0.39394379
v 0.97666401 0.22542082 0.42221728
v 1.02335787 0.00000000 0.26328295
v 1.07005787 0.08350099 0.34720519
v 1.05856729 0.23365799 0.13742480
v 1.07566106 0.16301733 0.23460560
v 1.10063827 0.15837260 0.07363354
v 1.01642263 0.08020158 -0.09342893
v 1.13536668 0.05706850 -0.00528690
v 1.04471099 0.00000000 0.08776172
v 0.12628686 0.00000000 1.06613982
v 0.43996930 0.06009895 1.03931046
v 0.30461773 0.00001318 1.06188321
v 0.15683168 0.08051749 1.11412835
v 0.16063419 0.17081927 1.09107220
v 0.76176560 0.23362431 0.74694008
v 0.54314333 0.34982401 0.87770230
v 0.65628088 0.28308526 0.82202297
v 0.68080413 0.17476425 0.84740615
v 0.58360624 0.09940107 0.92989761
v 0.13142578 0.49857065 0.92703199
v 0.14183787 0.29279259 1.03929341
v 0.13617992 0.39623916 0.98852116
v 0.26722035 0.45533177 0.92808372
v 0.39469919 0.40635452 0.91242707
v 0.44408858 0.17099369 0.99333519
v 0.42836457 0.29667211 0.96868467
v 0.29451141 0.23582074 1.03919578
v -0.56120586 0.28089136 0.22799939
v -0.45162138 0.26065767 0.49392697
v -0.52807200 0.29517063 0.35316858
v -0.68395442 0.26024762 0.30493051
v -0.76442277 0.18018889 0.36092374
v -0.25274628 0.13379927 0.82872897
v -0.55440497 0.12413394 0.80432075
v -0.41646114 0.09604649 0.82168025
v -0.33199242 0.19184011 0.71950269
v -0.38582048 0.25081620 0.60007453
v -0.90898007 0.06512479 0.65820575
v -0.86025786 0.07291099 0.46676341
v -0.90598434 0.00000000 0.59026098
v -0.83208364 0.00488812 0.75253522
v -0.69859409 0.01158061 0.78382415
v -0.53269500 0.18131962 0.58189648
v -0.63709468 0.13541682 0.67037433
v -0.70653987 0.16836318 0.51139438
v -0.21886767 0.09495055 -0.88003349
v -0.38333276 0.11007807 -0.61340702
v -0.31059551 0.04772918 -0.75435656
v -0.38272882 0.05565079 -0.87986732
v -0.53004473 0.00675573 -0.85394806
v -0.59949249 0.20790586 -0.18955791
v -0.75904518 0.21203963 -0.38450727
v -0.68903649 0.27040482 -0.28915185
v -0.53052747 0.16601397 -0.32126960
v -0.46834764 0.19439307 -0.46562901
v -0.90155029 0.07311145 -0.65229142
v -0.69976717 0.00445276 -0.80958265
v -0.81698549 0.00000000 -0.77130395
v -0.86146033 0.03242913 -0.59619296
v -0.83367193 0.13179687 -0.50156623
v -0.56097209 0.18700680 -0.61614543
v -0.70631826 0.18007332 -0.53943354
v -0.63684648 0.12024795 -0.73283219
v 0.77358311 0.24365446 -0.76243687
v 0.58907694 0.12742269 -0.95303094
v 0.68784595 0.18492265 -0.86341101
v 0.65559644 0.29131842 -0.83235890
v 0.54159623 0.34567666 -0.87834972
v 0.15161473 0.00366311 -1.05617440
v 0.13668285 0.16458136 -1.09475970
v 0.13422097 0.05422396 -1.09905446
v 0.30078399 0.00662414 -1.06167424
v 0.44854838 0.07022799 -1.03180814
v 0.13409820 0.50642794 -0.93511480
v 0.39675969 0.41508931 -0.91463900
v 0.26834604 0.45764998 -0.93129432
v 0.13490906 0.39590579 -0.99436343
v 0.13100560 0.29164234 -1.04012322
v 0.43893266 0.16445303 -1.00562739
v 0.28374219 0.22259288 -1.04625452
v 0.42114782 0.28743619 -0.96929294
v 0.96153766 0.32317552 0.36780941
v 1.02478385 0.32166481 0.07799341
v 1.00967681 0.32288772 0.22517361
v 0.93396568 0.42664361 0.29824930
v 0.89604878 0.52081662 0.23486106
v 0.97270203 0.32510889 -0.38358730
v 0.90164459 0.52002859 -0.24146979
v 0.93890744 0.42349061 -0.31122902
v 1.01215649 0.32668069 -0.24099684
v 1.03162932 0.32789135 -0.09186275
v 0.69832581 0.80325764 0.00211783
v 0.84184897 0.63315922 0.15493245
v 0.77771664 0.72250777 0.08113293
v 0.77586162 0.72117794 -0.08084170
v 0.83866614 0.63361728 -0.15697618
v 0.98146856 0.42773804 -0.00722788
v 0.91720229 0.53191209 -0.08365667
v 0.91827828 0.53134763 0.07759635
f 330 87 329
f 336 325 26
f 207 208 56
f 464 36 580
f 502 129 504
f 157 624 622
f 308 311 82
f 247 223 248
f 507 483 508
f 331 88 329
f 494 500 497
f 156 601 602
f 591 589 592
f 365 98 596
f 75 281 282
f 152 587 577
f 149 559 560
f 555 121 553
f 530 141 529
f 515 517 139
f 361 594 98
f 250 67 249
f 157 608 609
f 294 293 209
f 317 81 316
f 557 338 26
f 303 305 81
f 530 529 528
f 101 381 382
f 415 418 111
f 192 184 50
f 412 110 411
f 20 384 256
f 131 594 486
f 281 264 282
f 347 287 348
f 28 349 582
f 165 163 1
f 248 250 66
f 617 107 398
f 273 271 274
f 456 115 453
f 558 561 560
f 335 576 91
f 331 177 332
f 116 433 436
f 351 370 92
f 136 511 530
f 239 240 65
f 247 258 19
f 304 23 567
f 148 557 570
f 214 208 58
f 440 426 450
f 268 270 269
f 258 247 268
f 204 202 16
f 466 125 465
f 517 513 133
f 168 275 274
f 275 73 274
f 198 193 53
f 309 308 307
f 510 511 136
f 415 416 110
f 131 490 597
f 473 475 474
f 414 415 111
f 493 495 494
f 496 504 485
f 433 116 432
f 600 375 601
f 240 234 65
f 418 415 412
f 486 361 3
f 567 566 304
f 380 393 29
f 17 199 197
f 491 492 132
f 451 449 435
f 218 217 216
f 623 621 613
f 396 104 395
f 433 439 436
f 628 160 627
f 215 202 217
f 209 207 2
f 427 113 424
f 434 10 544
f 434 433 432
f 199 17 210
f 150 564 565
f 489 491 132
f 275 13 285
f 497 500 134
f 125 466 476
f 578 152 577
f 208 214 211
f 328 88 343
f 356 27 603
f 150 566 567
f 372 100 371
f 190 191 47
f 235 8 398
f 260 261 72
f 422 403 414
f 422 414 111
f 453 454 123
f 349 583 582
f 521 520 519
f 425 453 115
f 616 622 158
f 483 130 508
f 151 586 572
f 212 17 232
f 400 397 402
f 377 396 99
f 41 522 511
f 510 508 505
f 549 547 42
f 475 473 36
f 510 137 509
f 222 221 197
f 430 115 429
f 220 194 1
f 305 54 204
f 621 29 613
f 192 171 184
f 460 335 5
f 88 331 332
f 74 277 279
f 300 301 80
f 390 389 388
f 165 45 164
f 146 549 551
f 291 278 75
f 448 120 445
f 147 543 544
f 607 610 609
f 603 602 356
f 139 529 514
f 333 553 443
f 92 368 347
f 261 260 259
f 300 6 200
f 46 177 331
f 284 283 174
f 301 300 200
f 471 468 474
f 54 305 301
f 302 304 303
f 569 150 567
f 150 569 570
f 294 209 2
f 628 629 160
f 548 543 147
f 147 625 627
f 63 233 234
f 426 427 114
f 41 509 532
f 198 52 196
f 614 105 612
f 147 627 547
f 81 305 306
f 549 548 547
f 54 301 200
f 342 88 332
f 264 281 70
f 193 194 53
f 455 429 456
f 187 321 14
f 479 130 484
f 147 544 625
f 458 456 453
f 304 80 303
f 314 84 313
f 488 503 501
f 321 332 14
f 423 425 424
f 305 204 306
f 341 339 25
f 514 40 516
f 625 628 627
f 340 339 341
f 105 614 391
f 243 228 62
f 318 316 78
f 75 278 279
f 357 355 353
f 238 257 63
f 466 455 476
f 425 423 4
f 448 449 120
f 408 638 108
f 292 275 285
f 22 278 289
f 515 513 517
f 501 503 134
f 622 623 158
f 134 503 504
f 195 216 206
f 163 271 246
f 619 617 620
f 62 228 229
f 163 165 164
f 453 425 454
f 489 132 488
f 82 628 625
f 58 208 209
f 525 608 40
f 626 547 627
f 518 517 498
f 489 487 491
f 557 26 564
f 325 336 344
f 541 145 539
f 40 616 516
f 338 556 89
f 250 248 245
f 139 514 515
f 98 594 596
f 246 220 1
f 112 413 630
f 9 536 413
f 156 600 601
f 332 177 14
f 321 342 332
f 156 606 600
f 584 330 585
f 302 303 81
f 584 87 330
f 330 25 585
f 400 239 65
f 439 440 117
f 95 358 368
f 597 594 131
f 594 361 486
f 246 67 245
f 561 562 149
f 28 364 362
f 55 216 217
f 427 430 114
f 267 20 254
f 556 555 553
f 84 309 558
f 311 310 312
f 609 525 142
f 256 68 255
f 124 460 461
f 82 311 312
f 307 308 82
f 589 135 495
f 527 40 514
f 112 418 412
f 20 256 254
f 258 238 19
f 267 254 269
f 273 272 249
f 392 391 393
f 137 533 509
f 122 455 456
f 9 413 411
f 130 480 505
f 333 443 5
f 527 525 40
f 589 495 385
f 39 496 485
f 223 225 224
f 414 416 415
f 219 222 53
f 145 538 539
f 413 412 411
f 469 468 467
f 183 181 6
f 191 192 50
f 429 35 431
f 292 285 76
f 413 112 412
f 415 110 412
f 43 164 167
f 467 468 126
f 617 101 620
f 450 451 117
f 438 546 545
f 619 620 159
f 17 212 210
f 124 579 576
f 584 153 583
f 460 124 576
f 3 469 467
f 311 308 314
f 6 320 183
f 389 104 388
f 251 250 249
f 194 165 1
f 291 289 278
f 287 77 348
f 238 258 257
f 139 517 518
f 238 236 19
f 223 247 19
f 382 380 29
f 39 518 498
f 361 359 3
f 69 255 257
f 139 518 528
f 33 545 535
f 387 385 7
f 69 268 269
f 477 462 125
f 454 479 123
f 121 555 447
f 451 435 117
f 454 425 4
f 233 252 8
f 124 463 464
f 69 258 268
f 168 167 166
f 583 153 582
f 384 394 102
f 138 512 513
f 57 210 211
f 254 256 255
f 607 609 142
f 324 319 86
f 289 291 76
f 291 292 76
f 384 102 383
f 422 421 420
f 221 17 197
f 383 102 381
f 376 377 99
f 99 373 374
f 386 105 392
f 438 33 440
f 90 341 343
f 281 75 279
f 574 571 96
f 628 82 312
f 221 222 59
f 127 471 474
f 595 605 603
f 551 538 145
f 334 91 340
f 322 324 85
f 305 303 301
f 18 239 399
f 306 204 16
f 199 198 197
f 166 190 180
f 303 80 301
f 267 266 265
f 626 42 547
f 16 215 213
f 349 351 350
f 295 16 213
f 68 379 252
f 250 251 66
f 627 160 626
f 383 68 256
f 343 88 342
f 507 508 136
f 202 215 16
f 197 198 53
f 254 69 269
f 603 605 156
f 418 419 111
f 384 383 256
f 455 122 476
f 203 204 54
f 556 557 148
f 255 68 253
f 313 84 560
f 25 328 341
f 254 255 69
f 603 156 602
f 581 584 583
f 630 632 112
f 163 246 1
f 246 245 220
f 432 116 558
f 499 591 590
f 320 563 86
f 345 93 350
f 306 16 295
f 346 93 345
f 562 568 149
f 604 605 155
f 154 592 593
f 545 552 535
f 511 522 530
f 574 573 571
f 566 150 565
f 361 98 360
f 67 271 273
f 234 235 65
f 208 211 56
f 574 151 573
f 251 270 66
f 398 8 378
f 213 215 214
f 438 440 439
f 315 314 313
f 263 71 262
f 20 373 384
f 496 134 504
f 329 88 328
f 81 306 316
f 555 556 148
f 592 589 103
f 617 619 107
f 227 207 56
f 571 359 96
f 446 466 465
f 206 216 55
f 359 571 469
f 568 148 570
f 34 437 435
f 28 351 349
f 21 272 282
f 113 423 424
f 490 489 488
f 379 68 383
f 210 212 211
f 80 563 300
f 351 92 350
f 326 346 12
f 83 317 318
f 555 148 554
f 212 231 56
f 218 57 217
f 271 67 246
f 195 196 52
f 270 268 66
f 390 592 103
f 148 568 554
f 495 493 7
f 592 390 593
f 357 95 355
f 574 575 151
f 452 120 451
f 154 591 592
f 587 585 577
f 395 394 396
f 93 349 350
f 610 416 611
f 166 44 190
f 315 23 302
f 315 302 317
f 268 247 66
f 606 154 593
f 396 394 99
f 211 212 56
f 370 369 368
f 235 397 65
f 280 278 22
f 83 315 317
f 575 588 151
f 74 279 280
f 385 495 7
f 63 257 253
f 397 235 398
f 214 58 213
f 220 219 194
f 546 146 545
f 236 225 19
f 599 94 602
f 235 233 8
f 102 394 395
f 611 416 32
f 225 223 19
f 139 528 529
f 231 62 229
f 419 406 421
f 451 450 452
f 49 182 185
f 402 397 107
f 52 199 218
f 416 610 110
f 225 236 244
f 107 397 398
f 68 252 253
f 322 85 321
f 182 181 183
f 118 438 439
f 546 438 118
f 348 77 345
f 543 546 118
f 231 212 232
f 610 611 157
f 33 438 545
f 385 386 103
f 479 480 130
f 169 195 15
f 93 583 349
f 15 195 206
f 190 44 192
f 247 248 66
f 146 552 545
f 248 60 245
f 570 557 564
f 274 271 43
f 63 253 233
f 272 21 249
f 507 528 518
f 67 273 249
f 487 467 126
f 196 195 169
f 624 159 623
f 134 496 497
f 132 503 488
f 104 393 395
f 556 553 89
f 355 356 94
f 258 69 257
f 229 61 227
f 56 231 227
f 460 576 335
f 463 124 461
f 394 373 99
f 29 393 391
f 67 250 245
f 193 198 196
f 462 36 464
f 144 633 630
f 141 526 527
f 517 133 498
f 536 144 630
f 100 372 599
f 144 536 537
f 22 289 287
f 578 579 152
f 579 578 576
f 189 188 187
f 60 223 224
f 92 348 350
f 555 554 447
f 396 377 388
f 194 193 165
f 413 536 630
f 372 352 599
f 377 376 375
f 348 345 350
f 105 386 387
f 240 237 234
f 463 462 464
f 135 500 494
f 45 196 169
f 512 612 387
f 245 60 220
f 429 115 456
f 223 60 248
f 288 289 76
f 525 526 142
f 100 599 601
f 613 29 391
f 526 523 520
f 341 328 343
f 631 641 639
f 264 21 282
f 266 72 265
f 106 402 403
f 73 273 274
f 186 206 205
f 381 379 383
f 52 216 195
f 410 18 399
f 290 272 73
f 72 371 374
f 526 525 527
f 115 430 424
f 498 497 496
f 621 382 29
f 543 118 434
f 214 215 57
f 522 141 530
f 511 510 509
f 352 94 599
f 493 512 7
f 90 340 341
f 169 171 170
f 605 604 606
f 219 60 224
f 104 389 392
f 359 469 3
f 186 49 185
f 222 219 224
f 166 167 44
f 428 427 426
f 523 522 524
f 129 502 481
f 50 185 188
f 164 45 170
f 425 115 424
f 33 428 426
f 427 428 113
f 94 356 602
f 515 138 513
f 114 431 452
f 237 236 238
f 215 217 57
f 95 354 355
f 220 60 219
f 515 514 516
f 183 320 319
f 222 197 53
f 559 569 567
f 300 320 6
f 435 436 117
f 96 360 363
f 640 642 641
f 242 243 62
f 140 537 519
f 508 130 505
f 420 410 399
f 537 539 144
f 317 316 318
f 426 114 450
f 186 15 206
f 311 83 310
f 625 544 307
f 544 10 307
f 168 43 167
f 185 182 188
f 369 354 95
f 44 171 192
f 605 606 156
f 548 549 146
f 100 601 375
f 149 568 569
f 381 380 382
f 455 466 35
f 480 479 454
f 543 548 546
f 493 133 513
f 492 472 37
f 477 125 476
f 491 487 126
f 337 336 338
f 588 153 587
f 576 578 91
f 633 161 632
f 96 359 360
f 39 485 483
f 101 617 378
f 193 45 165
f 163 164 43
f 618 624 611
f 507 136 528
f 561 149 560
f 641 162 639
f 116 561 558
f 494 133 493
f 253 252 233
f 63 237 238
f 392 393 104
f 440 450 117
f 93 581 583
f 386 385 387
f 120 449 451
f 421 422 111
f 486 3 467
f 302 81 317
f 633 632 630
f 462 475 36
f 376 99 374
f 489 490 131
f 447 449 448
f 387 612 105
f 106 420 399
f 173 46 172
f 492 491 472
f 316 306 295
f 22 287 347
f 109 410 420
f 507 39 483
f 559 23 313
f 214 57 211
f 196 45 193
f 10 434 432
f 422 106 403
f 626 160 640
f 487 486 467
f 542 41 532
f 400 106 399
f 444 120 452
f 198 199 52
f 475 127 474
f 621 620 382
f 621 623 159
f 450 114 452
f 92 347 348
f 376 100 375
f 434 118 433
f 503 132 502
f 337 90 336
f 537 536 519
f 395 393 380
f 201 54 200
f 171 44 170
f 355 94 353
f 58 296 213
f 422 420 106
f 595 365 596
f 569 568 570
f 523 140 520
f 114 430 431
f 218 210 57
f 304 566 80
f 639 162 638
f 261 371 72
f 548 147 547
f 498 133 497
f 150 570 564
f 222 224 59
f 142 526 520
f 437 436 435
f 141 522 523
f 137 510 505
f 173 179 176
f 559 149 569
f 121 447 448
f 563 320 300
f 102 395 380
f 257 255 253
f 642 162 641
f 83 311 314
f 216 52 218
f 512 493 513
f 23 304 302
f 91 339 340
f 512 138 612
f 159 620 621
f 218 199 210
f 364 28 575
f 83 318 310
f 168 274 43
f 136 530 528
f 140 523 524
f 495 135 494
f 233 235 234
f 566 563 80
f 25 339 577
f 277 74 276
f 475 462 477
f 133 494 497
f 436 437 116
f 389 386 392
f 548 146 546
f 441 460 5
f 10 309 307
f 65 397 400
f 543 434 544
f 640 641 161
f 272 273 73
f 581 93 346
f 419 421 111
f 319 320 86
f 180 179 178
f 127 475 477
f 231 229 227
f 337 334 340
f 136 508 510
f 308 309 84
f 237 63 234
f 447 554 34
f 252 379 378
f 315 83 314
f 608 622 616
f 338 336 26
f 337 338 89
f 13 275 168
f 209 208 207
f 436 439 117
f 628 312 629
f 360 366 363
f 364 574 96
f 359 361 360
f 466 446 35
f 500 501 134
f 406 109 421
f 135 589 591
f 601 599 602
f 340 90 337
f 481 492 37
f 522 41 524
f 78 316 295
f 131 486 487
f 403 32 414
f 634 626 640
f 151 572 573
f 515 516 138
f 8 252 378
f 265 72 374
f 9 521 519
f 538 549 42
f 368 358 347
f 588 587 586
f 458 453 123
f 589 385 103
f 502 492 481
f 32 416 414
f 430 427 424
f 153 585 587
f 540 144 539
f 370 368 92
f 209 293 58
f 428 33 535
f 326 581 346
f 625 307 82
f 575 28 582
f 6 181 200
f 421 109 420
f 553 121 443
f 160 642 640
f 153 584 585
f 309 432 558
f 334 337 89
f 23 315 313
f 271 163 43
f 296 295 213
f 39 498 496
f 118 439 433
f 531 113 534
f 293 296 58
f 28 362 351
f 489 131 487
f 431 444 452
f 84 558 560
f 98 366 360
f 45 169 170
f 379 101 378
f 462 463 125
f 308 84 314
f 10 432 309
f 299 24 310
f 132 492 502
f 512 387 7
f 639 638 408
f 565 323 86
f 59 244 242
f 106 400 402
f 440 33 426
f 566 565 563
f 617 398 378
f 224 225 59
f 410 109 409
f 239 400 399
f 194 219 53
f 358 22 347
f 610 157 609
f 27 595 603
f 479 484 482
f 142 520 521
f 585 25 577
f 339 578 577
f 408 407 406
f 407 109 406
f 31 408 406
f 407 408 108
f 31 639 408
f 419 31 406
f 608 616 40
f 430 429 431
f 455 35 429
f 35 444 431
f 188 51 187
f 188 182 51
f 51 322 187
f 322 51 319
f 51 182 183
f 319 51 183
f 187 322 321
f 322 319 324
f 381 101 379
f 405 407 108
f 404 405 108
f 286 285 178
f 407 405 409
f 109 407 409
f 191 175 47
f 167 164 170
f 50 184 185
f 44 167 170
f 64 244 236
f 243 244 64
f 50 188 189
f 541 542 145
f 442 445 119
f 339 91 578
f 445 446 119
f 624 623 622
f 611 624 157
f 523 526 141
f 141 527 529
f 527 514 529
f 445 120 444
f 446 445 444
f 35 446 444
f 613 614 158
f 158 614 615
f 623 613 158
f 614 613 391
f 614 612 615
f 371 376 374
f 100 376 371
f 479 482 123
f 373 394 384
f 540 42 634
f 633 540 634
f 538 42 540
f 633 634 161
f 161 634 640
f 42 626 634
f 540 633 144
f 557 556 338
f 553 333 89
f 262 21 264
f 251 21 262
f 5 335 333
f 270 251 262
f 21 251 249
f 600 593 30
f 606 593 600
f 600 30 375
f 593 390 30
f 30 377 375
f 390 388 30
f 30 388 377
f 228 243 241
f 470 478 459
f 470 127 478
f 127 477 478
f 184 186 185
f 478 477 476
f 122 478 476
f 357 74 280
f 518 39 507
f 344 342 85
f 325 344 85
f 342 344 343
f 85 342 321
f 344 90 343
f 90 344 336
f 482 129 481
f 482 481 457
f 482 457 123
f 481 37 457
f 449 447 34
f 435 449 34
f 470 472 471
f 472 470 37
f 470 471 127
f 472 126 471
f 126 468 471
f 470 459 37
f 491 126 472
f 504 129 485
f 221 59 242
f 125 463 465
f 437 34 562
f 561 437 562
f 554 568 562
f 34 554 562
f 437 561 116
f 390 103 389
f 103 386 389
f 392 105 391
f 572 586 580
f 572 580 36
f 586 152 580
f 473 572 36
f 244 243 242
f 225 244 59
f 64 240 241
f 240 239 241
f 237 240 64
f 243 64 241
f 236 237 64
f 411 607 521
f 9 411 521
f 110 607 411
f 607 142 521
f 610 607 110
f 171 15 184
f 171 169 15
f 15 186 184
f 87 584 581
f 153 588 582
f 588 575 582
f 381 102 380
f 573 572 473
f 468 469 128
f 474 468 128
f 469 571 128
f 571 573 128
f 573 473 128
f 473 474 128
f 564 323 565
f 26 323 564
f 323 324 86
f 325 323 26
f 325 324 323
f 563 565 86
f 324 325 85
f 410 230 18
f 230 228 18
f 18 228 241
f 18 241 239
f 401 619 618
f 401 402 107
f 403 402 401
f 619 159 618
f 401 618 32
f 619 401 107
f 403 401 32
f 618 611 32
f 159 624 618
f 478 122 459
f 122 458 459
f 37 459 457
f 459 458 457
f 122 456 458
f 457 458 123
f 191 190 192
f 485 129 484
f 129 482 484
f 483 485 484
f 130 483 484
f 189 187 14
f 191 50 189
f 191 189 175
f 189 14 175
f 14 177 175
f 499 501 500
f 501 499 38
f 38 499 590
f 135 499 500
f 488 501 38
f 499 135 591
f 480 454 4
f 284 12 346
f 4 423 506
f 480 4 506
f 423 531 506
f 480 506 505
f 531 137 506
f 506 137 505
f 365 366 98
f 71 270 262
f 270 71 269
f 71 267 269
f 335 334 333
f 333 334 89
f 334 335 91
f 536 9 519
f 465 463 461
f 537 140 541
f 520 140 519
f 119 446 465
f 465 461 119
f 461 441 119
f 460 441 461
f 176 46 173
f 299 297 24
f 71 263 266
f 263 260 266
f 260 72 266
f 263 70 260
f 205 201 49
f 201 181 49
f 186 205 49
f 181 201 200
f 181 182 49
f 284 77 283
f 586 587 152
f 588 586 151
f 20 267 265
f 266 267 71
f 31 417 631
f 631 417 632
f 31 631 639
f 417 31 419
f 641 631 161
f 417 112 632
f 161 631 632
f 418 417 419
f 417 418 112
f 284 345 77
f 542 550 145
f 542 541 524
f 284 174 12
f 48 174 283
f 373 20 265
f 373 265 374
f 609 608 525
f 608 157 622
f 560 559 313
f 636 637 162
f 541 140 524
f 41 542 524
f 358 357 280
f 70 263 264
f 263 262 264
f 176 177 46
f 174 48 173
f 174 173 172
f 538 551 549
f 538 540 539
f 537 541 539
f 232 221 242
f 17 221 232
f 232 242 62
f 231 232 62
f 203 205 55
f 203 55 202
f 201 205 203
f 202 55 217
f 205 206 55
f 204 203 202
f 73 275 292
f 292 290 73
f 272 290 282
f 290 292 291
f 75 290 291
f 290 75 282
f 70 277 259
f 277 70 281
f 277 281 279
f 260 70 259
f 12 174 172
f 104 396 388
f 367 27 354
f 365 27 367
f 354 27 356
f 365 367 366
f 595 27 365
f 318 299 310
f 155 596 597
f 155 597 598
f 596 594 597
f 595 596 155
f 605 595 155
f 180 47 179
f 180 190 47
f 352 372 11
f 11 372 261
f 312 310 24
f 642 636 162
f 636 297 637
f 367 369 97
f 366 367 97
f 369 367 354
f 369 370 97
f 580 579 464
f 580 152 579
f 579 124 464
f 61 230 409
f 230 410 409
f 230 61 229
f 230 229 228
f 76 285 286
f 353 352 276
f 74 353 276
f 288 76 286
f 288 286 283
f 289 288 287
f 203 54 201
f 287 288 77
f 77 288 283
f 286 48 283
f 531 423 113
f 276 11 259
f 11 261 259
f 277 276 259
f 616 158 615
f 516 616 615
f 138 516 615
f 138 615 612
f 509 533 532
f 503 502 504
f 635 79 294
f 635 294 404
f 635 637 79
f 637 635 638
f 638 635 108
f 635 404 108
f 226 61 405
f 61 226 227
f 405 61 409
f 227 226 207
f 48 178 179
f 48 286 178
f 173 48 179
f 534 143 533
f 534 535 143
f 531 534 533
f 533 143 532
f 137 531 533
f 261 372 371
f 13 180 178
f 285 13 178
f 180 13 166
f 13 168 166
f 346 345 284
f 331 327 46
f 46 327 172
f 172 327 326
f 382 620 101
f 442 121 448
f 443 121 442
f 2 226 404
f 294 2 404
f 404 226 405
f 207 226 2
f 550 551 145
f 552 146 551
f 143 550 532
f 552 550 143
f 330 329 328
f 24 636 629
f 94 352 353
f 352 11 276
f 113 428 534
f 428 535 534
f 509 41 511
f 535 552 143
f 550 552 551
f 550 542 532
f 369 95 368
f 326 327 87
f 87 327 329
f 327 331 329
f 581 326 87
f 293 79 298
f 79 297 298
f 296 298 78
f 79 293 294
f 296 293 298
f 598 490 38
f 358 280 22
f 280 279 278
f 357 358 95
f 74 357 353
f 330 328 25
f 567 23 559
f 590 598 38
f 590 604 598
f 598 604 155
f 604 590 154
f 590 591 154
f 604 154 606
f 297 299 298
f 299 318 78
f 298 299 78
f 355 354 356
f 629 636 642
f 312 24 629
f 629 642 160
f 370 362 97
f 362 363 97
f 363 366 97
f 364 363 362
f 362 370 351
f 96 363 364
f 297 636 24
f 162 637 638
f 637 297 79
f 490 488 38
f 598 597 490
f 441 442 119
f 443 442 441
f 443 441 5
f 442 448 445
f 296 78 295
f 326 12 172
f 575 574 364
f 47 175 176
f 175 177 176
f 47 176 179
