# FEM surface export ¡ª frame 229
# Vertices: 642  Faces: 1280
v -0.52654034 1.60268462 -0.00003503
v 0.52642757 1.60229766 -0.00006836
v -0.57732630 0.00000000 0.00051953
v 0.56825310 0.00000000 0.00024227
v 0.00020328 0.24088672 0.88070524
v -0.00028503 1.27948332 0.85275114
v -0.00075816 0.24259180 -0.88357174
v 0.00009827 1.27897859 -0.85225242
v 0.85849845 0.75977284 -0.53050339
v 0.85789216 0.75865364 0.52978206
v -0.85816586 0.76073068 -0.53095675
v -0.85816550 0.76000577 0.53037244
v -0.81092167 1.25309074 0.30989373
v -0.50188923 1.06430078 0.81159091
v -0.30951849 1.56091511 0.50067055
v 0.30951983 1.56092644 0.50069296
v 0.00011296 1.75140727 -0.00003574
v 0.30953252 1.56088829 -0.50063688
v -0.30928946 1.56113327 -0.50074255
v -0.50156724 1.06409407 -0.81200927
v -0.81098533 1.25381815 -0.30981836
v -1.00775409 0.75852150 -0.00028935
v 0.50251526 1.06476033 0.81238258
v 0.81080121 1.25317037 0.30968693
v -0.51140583 0.45728266 0.82919413
v -0.00053359 0.75892228 1.00912416
v -0.83728743 0.26900351 -0.31980428
v -0.83766609 0.27063626 0.32102969
v -0.00044178 0.76040041 -1.00936580
v -0.51023102 0.45484260 -0.82673597
v 0.81079984 1.25314081 -0.30967107
v 0.50128758 1.06358111 -0.81119412
v 0.84130675 0.26728174 0.31981930
v 0.51215339 0.45691323 0.82833034
v 0.33568266 0.00042105 0.53565764
v -0.33371183 0.00027938 0.53432614
v -0.00376554 0.00000000 0.00328016
v -0.33114502 0.00060129 -0.53616524
v 0.33002242 0.00000000 -0.53304845
v 0.51131779 0.45573881 -0.82784373
v 0.84082913 0.26879677 -0.32102111
v 1.00948393 0.75924587 0.00041243
v -0.69497705 1.45431149 0.16102727
v -0.58888859 1.44057393 0.42615640
v -0.43455499 1.61452365 0.26021442
v -0.70537078 0.91784912 0.69703764
v -0.68989360 1.17895675 0.58919412
v -0.86595517 1.01528752 0.43566966
v -0.16094972 1.44618583 0.70303804
v -0.42627150 1.34062946 0.68944800
v -0.26083839 1.18830216 0.86501878
v -0.16253021 1.70261097 0.26317221
v -0.27347517 1.71347654 0.00000953
v 0.16089725 1.44599676 0.70309973
v 0.00005841 1.60224462 0.52633750
v 0.27363735 1.71334541 -0.00000643
v 0.16283834 1.70264554 0.26322678
v 0.43457055 1.61434901 0.26026002
v -0.16251062 1.70262337 -0.26321062
v -0.43446109 1.61468613 -0.26027507
v 0.43453068 1.61434722 -0.26028025
v 0.16273043 1.70253372 -0.26321977
v -0.16064925 1.44594634 -0.70306665
v 0.00024739 1.60229325 -0.52643740
v 0.16103235 1.44586444 -0.70313478
v -0.58864427 1.44064999 -0.42600158
v -0.69491297 1.45447099 -0.16093135
v -0.26049516 1.18772531 -0.86487955
v -0.42586443 1.34052980 -0.68948781
v -0.86624801 1.01607442 -0.43577617
v -0.68976289 1.17961884 -0.58954751
v -0.70568645 0.91793251 -0.69785148
v -0.85272014 1.27916336 0.00011701
v -0.97010309 0.75963664 -0.27615964
v -0.95540243 1.01880002 -0.16312112
v -0.95486903 1.01803398 0.16330995
v -0.96961707 0.75877243 0.27531910
v 0.58896697 1.44038141 0.42602000
v 0.69480956 1.45414817 0.16071680
v 0.26073176 1.18756711 0.86518949
v 0.42617774 1.34052300 0.68931091
v 0.86591649 1.01504087 0.43566638
v 0.69044769 1.17916238 0.58897328
v 0.70612836 0.91708016 0.69644445
v -0.26447299 0.91989863 0.95652264
v -0.00032914 1.02885365 0.96598345
v -0.71304685 0.60273623 0.70461226
v -0.53060257 0.76072693 0.85796356
v 0.00003968 0.48894843 0.98131192
v -0.26691374 0.59976888 0.96610415
v -0.26650006 0.33254653 0.89010710
v -0.96845198 0.50108188 0.16589446
v -0.87907434 0.50433850 0.44277358
v -0.87855685 0.50468725 -0.44278225
v -0.96992666 0.50119722 -0.16675077
v -0.74041933 0.08151726 0.17179050
v -0.88164026 0.24562548 0.00006042
v -0.73463368 0.07734711 -0.16927487
v -0.53024024 0.75921690 -0.85889417
v -0.71180522 0.60174000 -0.70429605
v -0.00011037 1.02922428 -0.96560925
v -0.26430622 0.91962695 -0.95661300
v -0.26941466 0.33061755 -0.88947147
v -0.26623577 0.59888321 -0.96449095
v -0.00023122 0.49138486 -0.98124754
v 0.42599934 1.34000158 -0.68915063
v 0.26072675 1.18726587 -0.86443567
v 0.69463086 1.45388412 -0.16090813
v 0.58863294 1.43990803 -0.42574829
v 0.70537561 0.91758329 -0.69730932
v 0.68974549 1.17920446 -0.58920151
v 0.86641514 1.01580572 -0.43577987
v 0.73769933 0.07497890 0.17177063
v 0.62373012 0.09072075 0.45200852
v 0.47026774 0.00000000 0.27869043
v 0.71293265 0.60158849 0.70451736
v 0.70955437 0.34038189 0.60718364
v 0.87812376 0.50239521 0.44171581
v 0.17076357 0.08419400 0.73608822
v 0.44471705 0.18423238 0.72082871
v 0.26707929 0.33352819 0.88994622
v 0.17512949 0.00000000 0.28201708
v 0.29110792 0.00000000 -0.00654485
v -0.17081101 0.08411270 0.73530459
v -0.00113670 0.00000000 0.56727260
v -0.29986981 0.00000000 -0.00082725
v -0.17679693 0.00000000 0.28236365
v -0.46919262 0.00000000 0.28180629
v 0.17055109 0.00000000 -0.28478640
v 0.46535519 0.00000000 -0.27993989
v -0.46994615 0.00000000 -0.28446367
v -0.17663260 0.00000000 -0.28478101
v 0.17081301 0.08572266 -0.74254125
v 0.00494908 0.00000000 -0.56545007
v -0.16964112 0.08207612 -0.74149007
v 0.62331688 0.09399791 -0.45121831
v 0.73601663 0.07689413 -0.17143857
v 0.26803240 0.33177847 -0.88936055
v 0.44276336 0.18489505 -0.71789086
v 0.87972689 0.50347954 -0.44223195
v 0.70948285 0.34179869 -0.60688972
v 0.71289784 0.60192156 -0.70476121
v 0.88477987 0.24147989 -0.00151179
v 0.97129524 0.75986916 -0.27597049
v 0.96950358 0.50050795 -0.16583551
v 0.96798581 0.49945599 0.16492556
v 0.96887487 0.75816244 0.27531654
v 0.26647452 0.60000312 0.96542466
v 0.53106517 0.76012045 0.85798049
v 0.26413009 0.91980016 0.95666039
v -0.62146074 0.09494328 0.45189643
v -0.44481117 0.18419275 0.72036976
v -0.70836538 0.34255958 0.60782737
v -0.44701403 0.18053913 -0.72257179
v -0.62405258 0.09339723 -0.45141017
v -0.70825881 0.33945918 -0.60508078
v 0.53017259 0.75908417 -0.85765308
v 0.26642370 0.60112566 -0.96585345
v 0.26445088 0.91948611 -0.95619774
v 0.95482528 1.01841080 0.16349228
v 0.95496911 1.01854086 -0.16275354
v 0.85234058 1.27880776 0.00007536
v -0.61657953 1.53590083 0.08127980
v -0.57211608 1.54471636 0.21336706
v -0.48507938 1.61680233 0.13137314
v -0.70865691 1.35414779 0.37251887
v -0.64853084 1.45471275 0.29663977
v -0.76016104 1.35932362 0.23766898
v -0.37559360 1.59581780 0.38414714
v -0.51692164 1.53551531 0.34670955
v -0.45473978 1.51013589 0.46916601
v -0.78889370 0.83953899 0.61958885
v -0.79591316 0.96950442 0.57374656
v -0.86970121 0.88863945 0.48719430
v -0.60316795 1.12623370 0.70902783
v -0.70443696 1.05129838 0.64958125
v -0.60906476 0.99308240 0.76114011
v -0.84637302 1.13742030 0.37620068
v -0.78587407 1.10078835 0.51768482
v -0.75974661 1.22160017 0.45494220
v -0.08136466 1.36870468 0.78520322
v -0.21363822 1.32440090 0.79421884
v -0.13175109 1.23841238 0.86719573
v -0.37244564 1.45932567 0.60237074
v -0.29662898 1.40015697 0.70339203
v -0.23744878 1.51067770 0.60759330
v -0.38489535 1.12963772 0.84613800
v -0.34703717 1.26968193 0.78513783
v -0.46969333 1.20778561 0.75971311
v -0.64797813 1.31698275 0.51448643
v -0.56552464 1.26664305 0.64795738
v -0.51437229 1.39906657 0.56516820
v -0.35866362 1.67591202 0.13184778
v -0.40378937 1.66663110 0.00003252
v -0.23887417 1.64273465 0.38670331
v -0.30164573 1.66788542 0.26442036
v -0.13801107 1.74214101 0.00000107
v -0.22026023 1.71785450 0.13294180
v -0.08220403 1.73927355 0.13318788
v 0.08117644 1.36845541 0.78518462
v 0.00006314 1.45524716 0.71215588
v 0.15665206 1.59173667 0.51984066
v 0.08134054 1.53209531 0.62085313
v 0.23743363 1.51046574 0.60763264
v -0.08112463 1.53210580 0.62092990
v -0.15655410 1.59202623 0.51987016
v 0.40397689 1.66648495 -0.00001455
v 0.35881102 1.67572141 0.13180780
v 0.48510990 1.61655819 0.13131942
v 0.08249842 1.73906100 0.13320681
v 0.22053680 1.71789157 0.13296045
v 0.13821027 1.74197817 0.00000871
v 0.37567562 1.59555578 0.38411951
v 0.30181175 1.66784704 0.26442990
v 0.23905878 1.64249456 0.38666138
v -0.08229344 1.66463268 0.40012702
v 0.08246865 1.66445422 0.39997572
v 0.00014230 1.71543336 0.26669052
v -0.35857114 1.67597938 -0.13182145
v -0.48502764 1.61679983 -0.13138674
v -0.08222145 1.73919713 -0.13325682
v -0.22028969 1.71806598 -0.13298391
v -0.37540966 1.59585440 -0.38415623
v -0.30154204 1.66797900 -0.26441735
v -0.23883189 1.64279068 -0.38668728
v 0.48512211 1.61663318 -0.13140781
v 0.35881200 1.67588937 -0.13181531
v 0.23906189 1.64270878 -0.38666001
v 0.30171853 1.66787422 -0.26441354
v 0.37561131 1.59564602 -0.38410559
v 0.22043753 1.71790910 -0.13293426
v 0.08242840 1.73918319 -0.13325655
v -0.08109456 1.36821592 -0.78508312
v 0.00020017 1.45494723 -0.71237594
v 0.08131941 1.36809146 -0.78509140
v -0.15640049 1.59197497 -0.51996654
v -0.08098520 1.53212178 -0.62111413
v -0.23721887 1.51067638 -0.60768700
v 0.23755732 1.51063895 -0.60771269
v 0.08144400 1.53204060 -0.62114102
v 0.15677227 1.59184659 -0.51988792
v 0.00011143 1.71536946 -0.26672199
v 0.08254416 1.66450655 -0.40007237
v -0.08224627 1.66465139 -0.40012968
v -0.57198101 1.54468596 -0.21337226
v -0.61660397 1.53599072 -0.08118446
v -0.45452359 1.51005292 -0.46915910
v -0.51682758 1.53571594 -0.34674069
v -0.76019675 1.35991204 -0.23756449
v -0.64848506 1.45476007 -0.29658705
v -0.70850980 1.35453856 -0.37253055
v -0.13136585 1.23816955 -0.86684120
v -0.21329175 1.32407033 -0.79415017
v -0.46936393 1.20773518 -0.75973386
v -0.34670022 1.26927388 -0.78511155
v -0.38458663 1.12943101 -0.84635758
v -0.29631767 1.39991605 -0.70353299
v -0.37215769 1.45942354 -0.60243881
v -0.87022549 0.88940853 -0.48758963
v -0.79658729 0.97027171 -0.57430232
v -0.78912675 0.83996361 -0.62038291
v -0.75966728 1.22241092 -0.45534334
v -0.78601110 1.10142982 -0.51796228
v -0.84650445 1.13841927 -0.37629461
v -0.60926181 0.99306071 -0.76214981
v -0.70484936 1.05155432 -0.65001732
v -0.60312682 1.12589276 -0.70938760
v -0.51406962 1.39917064 -0.56538492
v -0.56536859 1.26660299 -0.64819980
v -0.64773184 1.31740522 -0.51450908
v -0.70413083 1.46373892 0.00007970
v -0.84238940 1.27300096 -0.15683930
v -0.78176129 1.37309277 -0.08123507
v -0.78165281 1.37286556 0.08137712
v -0.84219825 1.27256465 0.15695606
v -0.92313069 0.76041991 -0.40721506
v -0.92978895 0.88964134 -0.36036739
v -0.99365085 0.89040548 -0.08254563
v -0.97162682 0.89031339 -0.22138231
v -0.99888897 0.75929636 -0.13928780
v -0.92015553 1.02035773 -0.30251002
v -0.89374131 1.14088309 -0.23935065
v -0.92961591 0.88887376 0.36036631
v -0.92315686 0.75953245 0.40714750
v -0.89371276 1.14019370 0.23954774
v -0.91986912 1.01912522 0.30256790
v -0.99879694 0.75863731 0.13893069
v -0.97186720 0.88928336 0.22143076
v -0.99353850 0.88993013 0.08276883
v -0.91612601 1.15425265 -0.08244347
v -0.96811420 1.02204466 0.00026559
v -0.91584772 1.15382016 0.08281554
v 0.57206976 1.54455113 0.21325755
v 0.61637360 1.53555751 0.08102775
v 0.45476693 1.50988781 0.46917826
v 0.51696736 1.53534400 0.34660783
v 0.75994015 1.35927677 0.23745097
v 0.64853996 1.45456278 0.29646146
v 0.70854980 1.35415614 0.37237528
v 0.13140754 1.23810863 0.86738139
v 0.21338916 1.32393956 0.79420179
v 0.47005519 1.20813978 0.75998175
v 0.34697166 1.26939440 0.78521502
v 0.38507921 1.12955689 0.84656900
v 0.29638442 1.39951837 0.70345020
v 0.37230328 1.45903563 0.60224468
v 0.86926138 0.88728297 0.48643562
v 0.79587662 0.96800488 0.57264310
v 0.78899956 0.83845431 0.61872852
v 0.75987941 1.22182262 0.45498702
v 0.78612173 1.10032761 0.51735228
v 0.84621406 1.13755655 0.37603939
v 0.61044186 0.99354106 0.76175737
v 0.70509422 1.05069232 0.64869189
v 0.60414261 1.12649596 0.70906109
v 0.51447004 1.39880157 0.56518477
v 0.56593341 1.26688290 0.64787352
v 0.64811313 1.31706309 0.51427573
v -0.13237502 1.11331379 0.92757767
v -0.00026361 1.15766943 0.91786236
v -0.38799298 0.99493748 0.89475691
v -0.26534301 1.05707204 0.91976273
v -0.00056540 0.89524955 0.99649608
v -0.13359746 0.97642314 0.97075307
v -0.13451618 0.83999521 0.99464726
v -0.79330927 0.68019611 0.62296361
v -0.71798497 0.76044554 0.70915115
v -0.52709365 0.60686672 0.85384184
v -0.62768483 0.68091172 0.78926492
v -0.61836368 0.52798867 0.77422708
v -0.62404305 0.83953267 0.78482318
v -0.52216101 0.91377807 0.84450543
v 0.00008812 0.36032614 0.94002438
v -0.13451126 0.40565866 0.94792604
v -0.13475940 0.28048965 0.89433259
v -0.13510956 0.67814255 0.99935794
v -0.13470340 0.54207993 0.98304468
v -0.00092163 0.62307346 1.00394785
v -0.39368522 0.39138588 0.86753625
v -0.26939246 0.46302700 0.93746722
v -0.39309305 0.52531618 0.90923280
v -0.40284351 0.84067839 0.91928071
v -0.40504041 0.67920637 0.92516047
v -0.26926863 0.76001817 0.97326124
v -0.93657291 0.63057202 0.36342424
v -0.87648261 0.63052720 0.49111307
v -1.00008428 0.62860018 0.08321355
v -0.97845811 0.62887686 0.22280285
v -0.86684483 0.38342166 0.38641253
v -0.93400675 0.50043565 0.30784211
v -0.91465628 0.38083401 0.24588762
v -0.87622696 0.63172406 -0.49176547
v -0.93669188 0.63074440 -0.36417261
v -0.91491926 0.37958768 -0.24575193
v -0.93307519 0.50027251 -0.30789787
v -0.86606985 0.38216352 -0.38592356
v -0.97921002 0.62922066 -0.22399241
v -1.00119686 0.62848437 -0.08425339
v -0.66401494 0.01948512 0.08741280
v -0.74922144 0.07200792 0.00147495
v -0.66151363 0.02073171 -0.08464962
v -0.87159824 0.25352603 0.16322680
v -0.82069147 0.15523060 0.08637090
v -0.79636735 0.16837473 0.24885875
v -0.79101259 0.16520393 -0.24728787
v -0.81762677 0.15340808 -0.08534351
v -0.86985236 0.24966776 -0.16264898
v -0.98350620 0.49808171 -0.00025877
v -0.93875062 0.36750957 -0.08546004
v -0.94001770 0.36840889 0.08390813
v -0.71699756 0.76002252 -0.70937032
v -0.79250681 0.68053329 -0.62336475
v -0.52208853 0.91309786 -0.84507382
v -0.62433815 0.83913022 -0.78581655
v -0.61737072 0.52578366 -0.77256137
v -0.62693673 0.67947841 -0.78997099
v -0.52610326 0.60484785 -0.85271442
v 0.00011049 1.15782189 -0.91735274
v -0.13197447 1.11315703 -0.92714983
v -0.13412006 0.84074187 -0.99455464
v -0.13346569 0.97675967 -0.97083789
v -0.00023472 0.89620441 -0.99655521
v -0.26514173 1.05666053 -0.91974294
v -0.38781250 0.99474663 -0.89487100
v -0.13668340 0.28238747 -0.89722431
v -0.13611689 0.40666133 -0.94716203
v -0.00073882 0.36302727 -0.94134039
v -0.39223850 0.52354145 -0.90655071
v -0.26971319 0.46251953 -0.93551505
v -0.39369547 0.38906148 -0.86689132
v -0.00027678 0.62440068 -1.00488830
v -0.13501787 0.54246610 -0.98181093
v -0.13470019 0.67852747 -0.99903542
v -0.40229774 0.84048229 -0.92022902
v -0.26859364 0.75925052 -0.97255468
v -0.40377188 0.67807907 -0.92410219
v 0.21354677 1.32400501 -0.79416525
v 0.13158916 1.23784649 -0.86678100
v 0.37244901 1.45915294 -0.60239661
v 0.29658702 1.39958572 -0.70342183
v 0.38457769 1.12866127 -0.84580415
v 0.34688342 1.26877511 -0.78480893
v 0.46937603 1.20730710 -0.75943434
v 0.61643589 1.53563201 -0.08131374
v 0.57202303 1.54446948 -0.21335733
v 0.70824397 1.35386777 -0.37216449
v 0.64825386 1.45398760 -0.29633656
v 0.75977886 1.35911036 -0.23741025
v 0.51689231 1.53520167 -0.34657544
v 0.45471489 1.50984621 -0.46914890
v 0.78928393 0.83972156 -0.61979336
v 0.79643685 0.96971291 -0.57411820
v 0.87040800 0.88904238 -0.48756701
v 0.60300511 1.12610316 -0.70898312
v 0.70431137 1.05094075 -0.64954615
v 0.60906494 0.99284297 -0.76166880
v 0.84642398 1.13813353 -0.37634784
v 0.78567576 1.10094225 -0.51771277
v 0.75953603 1.22207034 -0.45498419
v 0.51417667 1.39849198 -0.56497550
v 0.64766937 1.31695032 -0.51417172
v 0.56533492 1.26641464 -0.64773333
v 0.66459513 0.02021828 0.09209517
v 0.61418861 0.01096895 0.23145488
v 0.52578670 0.00000000 0.13923343
v 0.74147081 0.17248580 0.38835210
v 0.68608415 0.07686605 0.31523460
v 0.79233038 0.16508551 0.24580491
v 0.40648678 0.00000000 0.41448811
v 0.55608249 0.02283254 0.37364212
v 0.48701328 0.03731354 0.50327849
v 0.79274839 0.67890579 0.62254274
v 0.80628002 0.54852700 0.58093911
v 0.87613910 0.62916058 0.49082270
v 0.61790913 0.39434737 0.72658396
v 0.71715581 0.46815899 0.66127032
v 0.61808687 0.52673262 0.77295232
v 0.86524332 0.38200286 0.38440394
v 0.80163753 0.41766208 0.52844882
v 0.78511900 0.29715174 0.47069010
v 0.08551914 0.15550716 0.81687456
v 0.22122854 0.19865111 0.82492602
v 0.13530132 0.28347272 0.89478272
v 0.39159477 0.07417347 0.63658583
v 0.31183702 0.12965392 0.73680592
v 0.25594211 0.03454818 0.64504230
v 0.39335364 0.39134857 0.86813897
v 0.35839614 0.25286403 0.81460106
v 0.48343533 0.31374699 0.78401637
v 0.67554533 0.20620972 0.53608227
v 0.58620608 0.25549319 0.67234129
v 0.54035336 0.13096552 0.59728014
v 0.38544154 0.00000000 0.13817734
v 0.43468514 0.00000000 -0.00392801
v 0.25736648 0.00000000 0.42202511
v 0.32488641 0.00000000 0.28632286
v 0.14584991 0.00000000 0.00224692
v 0.23219405 0.00000000 0.14072995
v 0.08509988 0.00000000 0.14588311
v -0.08481401 0.15444823 0.81799817
v 0.00104986 0.07733200 0.74989289
v -0.17063150 0.00000000 0.56207699
v -0.08573307 0.01997288 0.66362625
v -0.25387341 0.03516435 0.64588982
v 0.08883710 0.01859575 0.66202867
v 0.16980268 0.00000000 0.56078678
v -0.44071591 0.00000000 -0.00211327
v -0.39088148 0.00000000 0.13978855
v -0.53028870 0.00000000 0.14185426
v -0.09475075 0.00000000 0.14393656
v -0.24122021 0.00000000 0.14183180
v -0.15269987 0.00000000 0.00164198
v -0.40587515 0.00000000 0.41688177
v -0.32812718 0.00000000 0.28646988
v -0.25916007 0.00000000 0.41868684
v 0.08880521 0.00000000 0.42995414
v -0.09017801 0.00000000 0.43217090
v -0.00246005 0.00000000 0.28752792
v 0.38334286 0.00000000 -0.14638110
v 0.51904738 0.00000000 -0.14172103
v 0.08771340 0.00000000 -0.14008664
v 0.23243007 0.00000000 -0.14791960
v 0.40802914 0.00000000 -0.41297233
v 0.32026553 0.00000000 -0.28796512
v 0.25658739 0.00000000 -0.41846457
v -0.52525538 0.00000000 -0.14415729
v -0.38962042 0.00000000 -0.14560133
v -0.25983879 0.00000000 -0.41935790
v -0.32859340 0.00000000 -0.29020554
v -0.40350321 0.00000000 -0.41627306
v -0.24219327 0.00000000 -0.14410669
v -0.09135720 0.00000000 -0.14379188
v 0.08374352 0.15834047 -0.82014781
v -0.00056549 0.07511230 -0.75300348
v -0.08581533 0.15675882 -0.81939554
v 0.17203060 0.00000000 -0.55800176
v 0.08683965 0.02123688 -0.66681516
v 0.25507605 0.03440442 -0.65046638
v -0.25352177 0.03732443 -0.64855391
v -0.08555949 0.01724083 -0.66482800
v -0.16797653 0.00000000 -0.55816221
v 0.00051220 0.00000000 -0.28542659
v -0.08643752 0.00000000 -0.43157843
v 0.08970414 0.00000000 -0.42714456
v 0.61794394 0.01205194 -0.22878875
v 0.65834874 0.01298373 -0.08482565
v 0.48304716 0.03604119 -0.50096709
v 0.55547768 0.01894898 -0.36965185
v 0.79691416 0.16823414 -0.24946526
v 0.69128919 0.08032423 -0.31542143
v 0.74252439 0.17372866 -0.39037424
v 0.13588436 0.28379574 -0.89823276
v 0.22051501 0.20012812 -0.82603341
v 0.48234680 0.31218475 -0.78406984
v 0.35710484 0.25264648 -0.81243026
v 0.39346334 0.39080468 -0.86759174
v 0.31240788 0.12967354 -0.73704922
v 0.39233723 0.06920914 -0.63598090
v 0.87666470 0.63060397 -0.49121368
v 0.80668002 0.54986781 -0.58194435
v 0.79346633 0.68029630 -0.62292224
v 0.78410566 0.29955885 -0.47092173
v 0.80300659 0.41919845 -0.52938128
v 0.86771512 0.38167220 -0.38592792
v 0.61868948 0.52638042 -0.77367735
v 0.71784836 0.46826562 -0.66194642
v 0.61624730 0.39399812 -0.72621524
v 0.53645176 0.12817870 -0.59248847
v 0.58412397 0.25543949 -0.67067528
v 0.67365837 0.20820682 -0.53688103
v 0.74715924 0.06832846 -0.00112398
v 0.87410557 0.24820769 -0.16285624
v 0.81962502 0.15095425 -0.08711645
v 0.81971741 0.15184577 0.08307546
v 0.87164068 0.24696992 0.16028711
v 0.92358875 0.76006502 -0.40722391
v 0.93715417 0.63012964 -0.36329567
v 1.00108624 0.62843376 -0.08339023
v 0.97996777 0.62909961 -0.22326504
v 1.00013781 0.76004052 -0.13886820
v 0.93499041 0.49954310 -0.30763662
v 0.91611201 0.37872601 -0.24541317
v 0.93570614 0.62861961 0.36278588
v 0.92207628 0.75822383 0.40602973
v 0.91282809 0.37921187 0.24367674
v 0.93288141 0.49873689 0.30632332
v 0.99837565 0.75872052 0.13974430
v 0.97775704 0.62749666 0.22241141
v 1.00070822 0.62790865 0.08344444
v 0.93898845 0.36591637 -0.08519232
v 0.98252171 0.49678740 -0.00001256
v 0.93744224 0.36533472 0.08361846
v 0.13477598 0.40662539 0.94826323
v 0.39317685 0.52554119 0.90795565
v 0.26969430 0.46344617 0.93680495
v 0.13500288 0.54268491 0.98328370
v 0.13392392 0.67821634 0.99864781
v 0.71756220 0.75957513 0.70819014
v 0.52332455 0.91410840 0.84510827
v 0.62501198 0.83917481 0.78488564
v 0.62774849 0.68034458 0.78875971
v 0.52710664 0.60637414 0.85280639
v 0.13188750 1.11247051 0.92742884
v 0.13354273 0.84022480 0.99496144
v 0.13299362 0.97625422 0.97129697
v 0.26516503 1.05663526 0.92019445
v 0.38820067 0.99480772 0.89497751
v 0.40420219 0.67875981 0.92283547
v 0.40280753 0.84093958 0.91997761
v 0.26847035 0.75949359 0.97243446
v -0.61773276 0.01826751 0.23275703
v -0.48483938 0.03485516 0.50164562
v -0.55416685 0.01954641 0.37450558
v -0.69018102 0.08205662 0.31718925
v -0.74021184 0.17296499 0.39178902
v -0.22284293 0.20013939 0.82792991
v -0.48440307 0.31490439 0.78498161
v -0.35919347 0.25526246 0.81439203
v -0.31269881 0.13017878 0.74023145
v -0.39568698 0.07565454 0.64009076
v -0.80597758 0.55064929 0.58159316
v -0.78328776 0.30040237 0.47138730
v -0.80237997 0.41987589 0.52983135
v -0.71832275 0.46965429 0.66310263
v -0.61810201 0.39567947 0.72915989
v -0.54177886 0.13137265 0.59548593
v -0.58557475 0.25690129 0.67338389
v -0.67207140 0.20833418 0.53644341
v -0.22237584 0.19917651 -0.82479912
v -0.39458144 0.07466733 -0.63800639
v -0.31382975 0.12267081 -0.74071109
v -0.35948691 0.25037679 -0.81162202
v -0.48375410 0.31230858 -0.78248179
v -0.61465317 0.01365373 -0.22653463
v -0.73997182 0.17033647 -0.38855603
v -0.68758595 0.07668757 -0.31413525
v -0.55258590 0.02232641 -0.37243077
v -0.48284233 0.03306454 -0.50401890
v -0.80557829 0.55073184 -0.58178353
v -0.61651951 0.39359227 -0.72490257
v -0.71765733 0.46757647 -0.66247743
v -0.80174482 0.41904381 -0.52912229
v -0.78155798 0.29893127 -0.46902508
v -0.53983849 0.12710960 -0.59263492
v -0.67322743 0.20440213 -0.53633964
v -0.58453065 0.25437748 -0.67122704
v 0.71778584 0.75985503 -0.70923710
v 0.52709603 0.60607105 -0.85266072
v 0.62739909 0.67998701 -0.78911412
v 0.62413764 0.83926409 -0.78508651
v 0.52187824 0.91305548 -0.84415466
v 0.13439801 0.40738377 -0.94835240
v 0.13423924 0.67937779 -0.99975830
v 0.13441075 0.54340690 -0.98330551
v 0.26937050 0.46409720 -0.93738091
v 0.39330709 0.52557135 -0.90818220
v 0.13218923 1.11284304 -0.92696494
v 0.38778672 0.99416441 -0.89417702
v 0.26508236 1.05593681 -0.91880769
v 0.13352062 0.97684175 -0.97082359
v 0.13361336 0.84105599 -0.99478859
v 0.40449730 0.67897207 -0.92330408
v 0.26866865 0.76006758 -0.97221506
v 0.40243897 0.83986670 -0.91848177
v 0.92897749 0.88839400 0.36033481
v 0.99349159 0.89028740 0.08369744
v 0.97176933 0.88977951 0.22184525
v 0.91999495 1.01969945 0.30272248
v 0.89385158 1.14063919 0.23948047
v 0.93027806 0.88927835 -0.36033651
v 0.89360857 1.14036751 -0.23931894
v 0.92040735 1.02002978 -0.30246708
v 0.97266251 0.89031357 -0.22137335
v 0.99406260 0.89078325 -0.08202033
v 0.70391876 1.46341443 -0.00015476
v 0.84198773 1.27238250 0.15678245
v 0.78151548 1.37273312 0.08124732
v 0.78128582 1.37254930 -0.08117406
v 0.84177500 1.27235222 -0.15664580
v 0.96766311 1.02195597 0.00041885
v 0.91505343 1.15355372 -0.08243007
v 0.91543067 1.15349352 0.08260410
f 330 87 329
f 336 325 26
f 207 208 56
f 464 36 580
f 502 129 504
f 157 624 622
f 308 311 82
f 247 223 248
f 507 483 508
f 331 88 329
f 494 500 497
f 156 601 602
f 591 589 592
f 365 98 596
f 75 281 282
f 152 587 577
f 149 559 560
f 555 121 553
f 530 141 529
f 515 517 139
f 361 594 98
f 250 67 249
f 157 608 609
f 294 293 209
f 317 81 316
f 557 338 26
f 303 305 81
f 530 529 528
f 101 381 382
f 415 418 111
f 192 184 50
f 412 110 411
f 20 384 256
f 131 594 486
f 281 264 282
f 347 287 348
f 28 349 582
f 165 163 1
f 248 250 66
f 617 107 398
f 273 271 274
f 456 115 453
f 558 561 560
f 335 576 91
f 331 177 332
f 116 433 436
f 351 370 92
f 136 511 530
f 239 240 65
f 247 258 19
f 304 23 567
f 148 557 570
f 214 208 58
f 440 426 450
f 268 270 269
f 258 247 268
f 204 202 16
f 466 125 465
f 517 513 133
f 168 275 274
f 275 73 274
f 198 193 53
f 309 308 307
f 510 511 136
f 415 416 110
f 131 490 597
f 473 475 474
f 414 415 111
f 493 495 494
f 496 504 485
f 433 116 432
f 600 375 601
f 240 234 65
f 418 415 412
f 486 361 3
f 567 566 304
f 380 393 29
f 17 199 197
f 491 492 132
f 451 449 435
f 218 217 216
f 623 621 613
f 396 104 395
f 433 439 436
f 628 160 627
f 215 202 217
f 209 207 2
f 427 113 424
f 434 10 544
f 434 433 432
f 199 17 210
f 150 564 565
f 489 491 132
f 275 13 285
f 497 500 134
f 125 466 476
f 578 152 577
f 208 214 211
f 328 88 343
f 356 27 603
f 150 566 567
f 372 100 371
f 190 191 47
f 235 8 398
f 260 261 72
f 422 403 414
f 422 414 111
f 453 454 123
f 349 583 582
f 521 520 519
f 425 453 115
f 616 622 158
f 483 130 508
f 151 586 572
f 212 17 232
f 400 397 402
f 377 396 99
f 41 522 511
f 510 508 505
f 549 547 42
f 475 473 36
f 510 137 509
f 222 221 197
f 430 115 429
f 220 194 1
f 305 54 204
f 621 29 613
f 192 171 184
f 460 335 5
f 88 331 332
f 74 277 279
f 300 301 80
f 390 389 388
f 165 45 164
f 146 549 551
f 291 278 75
f 448 120 445
f 147 543 544
f 607 610 609
f 603 602 356
f 139 529 514
f 333 553 443
f 92 368 347
f 261 260 259
f 300 6 200
f 46 177 331
f 284 283 174
f 301 300 200
f 471 468 474
f 54 305 301
f 302 304 303
f 569 150 567
f 150 569 570
f 294 209 2
f 628 629 160
f 548 543 147
f 147 625 627
f 63 233 234
f 426 427 114
f 41 509 532
f 198 52 196
f 614 105 612
f 147 627 547
f 81 305 306
f 549 548 547
f 54 301 200
f 342 88 332
f 264 281 70
f 193 194 53
f 455 429 456
f 187 321 14
f 479 130 484
f 147 544 625
f 458 456 453
f 304 80 303
f 314 84 313
f 488 503 501
f 321 332 14
f 423 425 424
f 305 204 306
f 341 339 25
f 514 40 516
f 625 628 627
f 340 339 341
f 105 614 391
f 243 228 62
f 318 316 78
f 75 278 279
f 357 355 353
f 238 257 63
f 466 455 476
f 425 423 4
f 448 449 120
f 408 638 108
f 292 275 285
f 22 278 289
f 515 513 517
f 501 503 134
f 622 623 158
f 134 503 504
f 195 216 206
f 163 271 246
f 619 617 620
f 62 228 229
f 163 165 164
f 453 425 454
f 489 132 488
f 82 628 625
f 58 208 209
f 525 608 40
f 626 547 627
f 518 517 498
f 489 487 491
f 557 26 564
f 325 336 344
f 541 145 539
f 40 616 516
f 338 556 89
f 250 248 245
f 139 514 515
f 98 594 596
f 246 220 1
f 112 413 630
f 9 536 413
f 156 600 601
f 332 177 14
f 321 342 332
f 156 606 600
f 584 330 585
f 302 303 81
f 584 87 330
f 330 25 585
f 400 239 65
f 439 440 117
f 95 358 368
f 597 594 131
f 594 361 486
f 246 67 245
f 561 562 149
f 28 364 362
f 55 216 217
f 427 430 114
f 267 20 254
f 556 555 553
f 84 309 558
f 311 310 312
f 609 525 142
f 256 68 255
f 124 460 461
f 82 311 312
f 307 308 82
f 589 135 495
f 527 40 514
f 112 418 412
f 20 256 254
f 258 238 19
f 267 254 269
f 273 272 249
f 392 391 393
f 137 533 509
f 122 455 456
f 9 413 411
f 130 480 505
f 333 443 5
f 527 525 40
f 589 495 385
f 39 496 485
f 223 225 224
f 414 416 415
f 219 222 53
f 145 538 539
f 413 412 411
f 469 468 467
f 183 181 6
f 191 192 50
f 429 35 431
f 292 285 76
f 413 112 412
f 415 110 412
f 43 164 167
f 467 468 126
f 617 101 620
f 450 451 117
f 438 546 545
f 619 620 159
f 17 212 210
f 124 579 576
f 584 153 583
f 460 124 576
f 3 469 467
f 311 308 314
f 6 320 183
f 389 104 388
f 251 250 249
f 194 165 1
f 291 289 278
f 287 77 348
f 238 258 257
f 139 517 518
f 238 236 19
f 223 247 19
f 382 380 29
f 39 518 498
f 361 359 3
f 69 255 257
f 139 518 528
f 33 545 535
f 387 385 7
f 69 268 269
f 477 462 125
f 454 479 123
f 121 555 447
f 451 435 117
f 454 425 4
f 233 252 8
f 124 463 464
f 69 258 268
f 168 167 166
f 583 153 582
f 384 394 102
f 138 512 513
f 57 210 211
f 254 256 255
f 607 609 142
f 324 319 86
f 289 291 76
f 291 292 76
f 384 102 383
f 422 421 420
f 221 17 197
f 383 102 381
f 376 377 99
f 99 373 374
f 386 105 392
f 438 33 440
f 90 341 343
f 281 75 279
f 574 571 96
f 628 82 312
f 221 222 59
f 127 471 474
f 595 605 603
f 551 538 145
f 334 91 340
f 322 324 85
f 305 303 301
f 18 239 399
f 306 204 16
f 199 198 197
f 166 190 180
f 303 80 301
f 267 266 265
f 626 42 547
f 16 215 213
f 349 351 350
f 295 16 213
f 68 379 252
f 250 251 66
f 627 160 626
f 383 68 256
f 343 88 342
f 507 508 136
f 202 215 16
f 197 198 53
f 254 69 269
f 603 605 156
f 418 419 111
f 384 383 256
f 455 122 476
f 203 204 54
f 556 557 148
f 255 68 253
f 313 84 560
f 25 328 341
f 254 255 69
f 603 156 602
f 581 584 583
f 630 632 112
f 163 246 1
f 246 245 220
f 432 116 558
f 499 591 590
f 320 563 86
f 345 93 350
f 306 16 295
f 346 93 345
f 562 568 149
f 604 605 155
f 154 592 593
f 545 552 535
f 511 522 530
f 574 573 571
f 566 150 565
f 361 98 360
f 67 271 273
f 234 235 65
f 208 211 56
f 574 151 573
f 251 270 66
f 398 8 378
f 213 215 214
f 438 440 439
f 315 314 313
f 263 71 262
f 20 373 384
f 496 134 504
f 329 88 328
f 81 306 316
f 555 556 148
f 592 589 103
f 617 619 107
f 227 207 56
f 571 359 96
f 446 466 465
f 206 216 55
f 359 571 469
f 568 148 570
f 34 437 435
f 28 351 349
f 21 272 282
f 113 423 424
f 490 489 488
f 379 68 383
f 210 212 211
f 80 563 300
f 351 92 350
f 326 346 12
f 83 317 318
f 555 148 554
f 212 231 56
f 218 57 217
f 271 67 246
f 195 196 52
f 270 268 66
f 390 592 103
f 148 568 554
f 495 493 7
f 592 390 593
f 357 95 355
f 574 575 151
f 452 120 451
f 154 591 592
f 587 585 577
f 395 394 396
f 93 349 350
f 610 416 611
f 166 44 190
f 315 23 302
f 315 302 317
f 268 247 66
f 606 154 593
f 396 394 99
f 211 212 56
f 370 369 368
f 235 397 65
f 280 278 22
f 83 315 317
f 575 588 151
f 74 279 280
f 385 495 7
f 63 257 253
f 397 235 398
f 214 58 213
f 220 219 194
f 546 146 545
f 236 225 19
f 599 94 602
f 235 233 8
f 102 394 395
f 611 416 32
f 225 223 19
f 139 528 529
f 231 62 229
f 419 406 421
f 451 450 452
f 49 182 185
f 402 397 107
f 52 199 218
f 416 610 110
f 225 236 244
f 107 397 398
f 68 252 253
f 322 85 321
f 182 181 183
f 118 438 439
f 546 438 118
f 348 77 345
f 543 546 118
f 231 212 232
f 610 611 157
f 33 438 545
f 385 386 103
f 479 480 130
f 169 195 15
f 93 583 349
f 15 195 206
f 190 44 192
f 247 248 66
f 146 552 545
f 248 60 245
f 570 557 564
f 274 271 43
f 63 253 233
f 272 21 249
f 507 528 518
f 67 273 249
f 487 467 126
f 196 195 169
f 624 159 623
f 134 496 497
f 132 503 488
f 104 393 395
f 556 553 89
f 355 356 94
f 258 69 257
f 229 61 227
f 56 231 227
f 460 576 335
f 463 124 461
f 394 373 99
f 29 393 391
f 67 250 245
f 193 198 196
f 462 36 464
f 144 633 630
f 141 526 527
f 517 133 498
f 536 144 630
f 100 372 599
f 144 536 537
f 22 289 287
f 578 579 152
f 579 578 576
f 189 188 187
f 60 223 224
f 92 348 350
f 555 554 447
f 396 377 388
f 194 193 165
f 413 536 630
f 372 352 599
f 377 376 375
f 348 345 350
f 105 386 387
f 240 237 234
f 463 462 464
f 135 500 494
f 45 196 169
f 512 612 387
f 245 60 220
f 429 115 456
f 223 60 248
f 288 289 76
f 525 526 142
f 100 599 601
f 613 29 391
f 526 523 520
f 341 328 343
f 631 641 639
f 264 21 282
f 266 72 265
f 106 402 403
f 73 273 274
f 186 206 205
f 381 379 383
f 52 216 195
f 410 18 399
f 290 272 73
f 72 371 374
f 526 525 527
f 115 430 424
f 498 497 496
f 621 382 29
f 543 118 434
f 214 215 57
f 522 141 530
f 511 510 509
f 352 94 599
f 493 512 7
f 90 340 341
f 169 171 170
f 605 604 606
f 219 60 224
f 104 389 392
f 359 469 3
f 186 49 185
f 222 219 224
f 166 167 44
f 428 427 426
f 523 522 524
f 129 502 481
f 50 185 188
f 164 45 170
f 425 115 424
f 33 428 426
f 427 428 113
f 94 356 602
f 515 138 513
f 114 431 452
f 237 236 238
f 215 217 57
f 95 354 355
f 220 60 219
f 515 514 516
f 183 320 319
f 222 197 53
f 559 569 567
f 300 320 6
f 435 436 117
f 96 360 363
f 640 642 641
f 242 243 62
f 140 537 519
f 508 130 505
f 420 410 399
f 537 539 144
f 317 316 318
f 426 114 450
f 186 15 206
f 311 83 310
f 625 544 307
f 544 10 307
f 168 43 167
f 185 182 188
f 369 354 95
f 44 171 192
f 605 606 156
f 548 549 146
f 100 601 375
f 149 568 569
f 381 380 382
f 455 466 35
f 480 479 454
f 543 548 546
f 493 133 513
f 492 472 37
f 477 125 476
f 491 487 126
f 337 336 338
f 588 153 587
f 576 578 91
f 633 161 632
f 96 359 360
f 39 485 483
f 101 617 378
f 193 45 165
f 163 164 43
f 618 624 611
f 507 136 528
f 561 149 560
f 641 162 639
f 116 561 558
f 494 133 493
f 253 252 233
f 63 237 238
f 392 393 104
f 440 450 117
f 93 581 583
f 386 385 387
f 120 449 451
f 421 422 111
f 486 3 467
f 302 81 317
f 633 632 630
f 462 475 36
f 376 99 374
f 489 490 131
f 447 449 448
f 387 612 105
f 106 420 399
f 173 46 172
f 492 491 472
f 316 306 295
f 22 287 347
f 109 410 420
f 507 39 483
f 559 23 313
f 214 57 211
f 196 45 193
f 10 434 432
f 422 106 403
f 626 160 640
f 487 486 467
f 542 41 532
f 400 106 399
f 444 120 452
f 198 199 52
f 475 127 474
f 621 620 382
f 621 623 159
f 450 114 452
f 92 347 348
f 376 100 375
f 434 118 433
f 503 132 502
f 337 90 336
f 537 536 519
f 395 393 380
f 201 54 200
f 171 44 170
f 355 94 353
f 58 296 213
f 422 420 106
f 595 365 596
f 569 568 570
f 523 140 520
f 114 430 431
f 218 210 57
f 304 566 80
f 639 162 638
f 261 371 72
f 548 147 547
f 498 133 497
f 150 570 564
f 222 224 59
f 142 526 520
f 437 436 435
f 141 522 523
f 137 510 505
f 173 179 176
f 559 149 569
f 121 447 448
f 563 320 300
f 102 395 380
f 257 255 253
f 642 162 641
f 83 311 314
f 216 52 218
f 512 493 513
f 23 304 302
f 91 339 340
f 512 138 612
f 159 620 621
f 218 199 210
f 364 28 575
f 83 318 310
f 168 274 43
f 136 530 528
f 140 523 524
f 495 135 494
f 233 235 234
f 566 563 80
f 25 339 577
f 277 74 276
f 475 462 477
f 133 494 497
f 436 437 116
f 389 386 392
f 548 146 546
f 441 460 5
f 10 309 307
f 65 397 400
f 543 434 544
f 640 641 161
f 272 273 73
f 581 93 346
f 419 421 111
f 319 320 86
f 180 179 178
f 127 475 477
f 231 229 227
f 337 334 340
f 136 508 510
f 308 309 84
f 237 63 234
f 447 554 34
f 252 379 378
f 315 83 314
f 608 622 616
f 338 336 26
f 337 338 89
f 13 275 168
f 209 208 207
f 436 439 117
f 628 312 629
f 360 366 363
f 364 574 96
f 359 361 360
f 466 446 35
f 500 501 134
f 406 109 421
f 135 589 591
f 601 599 602
f 340 90 337
f 481 492 37
f 522 41 524
f 78 316 295
f 131 486 487
f 403 32 414
f 634 626 640
f 151 572 573
f 515 516 138
f 8 252 378
f 265 72 374
f 9 521 519
f 538 549 42
f 368 358 347
f 588 587 586
f 458 453 123
f 589 385 103
f 502 492 481
f 32 416 414
f 430 427 424
f 153 585 587
f 540 144 539
f 370 368 92
f 209 293 58
f 428 33 535
f 326 581 346
f 625 307 82
f 575 28 582
f 6 181 200
f 421 109 420
f 553 121 443
f 160 642 640
f 153 584 585
f 309 432 558
f 334 337 89
f 23 315 313
f 271 163 43
f 296 295 213
f 39 498 496
f 118 439 433
f 531 113 534
f 293 296 58
f 28 362 351
f 489 131 487
f 431 444 452
f 84 558 560
f 98 366 360
f 45 169 170
f 379 101 378
f 462 463 125
f 308 84 314
f 10 432 309
f 299 24 310
f 132 492 502
f 512 387 7
f 639 638 408
f 565 323 86
f 59 244 242
f 106 400 402
f 440 33 426
f 566 565 563
f 617 398 378
f 224 225 59
f 410 109 409
f 239 400 399
f 194 219 53
f 358 22 347
f 610 157 609
f 27 595 603
f 479 484 482
f 142 520 521
f 585 25 577
f 339 578 577
f 408 407 406
f 407 109 406
f 31 408 406
f 407 408 108
f 31 639 408
f 419 31 406
f 608 616 40
f 430 429 431
f 455 35 429
f 35 444 431
f 188 51 187
f 188 182 51
f 51 322 187
f 322 51 319
f 51 182 183
f 319 51 183
f 187 322 321
f 322 319 324
f 381 101 379
f 405 407 108
f 404 405 108
f 286 285 178
f 407 405 409
f 109 407 409
f 191 175 47
f 167 164 170
f 50 184 185
f 44 167 170
f 64 244 236
f 243 244 64
f 50 188 189
f 541 542 145
f 442 445 119
f 339 91 578
f 445 446 119
f 624 623 622
f 611 624 157
f 523 526 141
f 141 527 529
f 527 514 529
f 445 120 444
f 446 445 444
f 35 446 444
f 613 614 158
f 158 614 615
f 623 613 158
f 614 613 391
f 614 612 615
f 371 376 374
f 100 376 371
f 479 482 123
f 373 394 384
f 540 42 634
f 633 540 634
f 538 42 540
f 633 634 161
f 161 634 640
f 42 626 634
f 540 633 144
f 557 556 338
f 553 333 89
f 262 21 264
f 251 21 262
f 5 335 333
f 270 251 262
f 21 251 249
f 600 593 30
f 606 593 600
f 600 30 375
f 593 390 30
f 30 377 375
f 390 388 30
f 30 388 377
f 228 243 241
f 470 478 459
f 470 127 478
f 127 477 478
f 184 186 185
f 478 477 476
f 122 478 476
f 357 74 280
f 518 39 507
f 344 342 85
f 325 344 85
f 342 344 343
f 85 342 321
f 344 90 343
f 90 344 336
f 482 129 481
f 482 481 457
f 482 457 123
f 481 37 457
f 449 447 34
f 435 449 34
f 470 472 471
f 472 470 37
f 470 471 127
f 472 126 471
f 126 468 471
f 470 459 37
f 491 126 472
f 504 129 485
f 221 59 242
f 125 463 465
f 437 34 562
f 561 437 562
f 554 568 562
f 34 554 562
f 437 561 116
f 390 103 389
f 103 386 389
f 392 105 391
f 572 586 580
f 572 580 36
f 586 152 580
f 473 572 36
f 244 243 242
f 225 244 59
f 64 240 241
f 240 239 241
f 237 240 64
f 243 64 241
f 236 237 64
f 411 607 521
f 9 411 521
f 110 607 411
f 607 142 521
f 610 607 110
f 171 15 184
f 171 169 15
f 15 186 184
f 87 584 581
f 153 588 582
f 588 575 582
f 381 102 380
f 573 572 473
f 468 469 128
f 474 468 128
f 469 571 128
f 571 573 128
f 573 473 128
f 473 474 128
f 564 323 565
f 26 323 564
f 323 324 86
f 325 323 26
f 325 324 323
f 563 565 86
f 324 325 85
f 410 230 18
f 230 228 18
f 18 228 241
f 18 241 239
f 401 619 618
f 401 402 107
f 403 402 401
f 619 159 618
f 401 618 32
f 619 401 107
f 403 401 32
f 618 611 32
f 159 624 618
f 478 122 459
f 122 458 459
f 37 459 457
f 459 458 457
f 122 456 458
f 457 458 123
f 191 190 192
f 485 129 484
f 129 482 484
f 483 485 484
f 130 483 484
f 189 187 14
f 191 50 189
f 191 189 175
f 189 14 175
f 14 177 175
f 499 501 500
f 501 499 38
f 38 499 590
f 135 499 500
f 488 501 38
f 499 135 591
f 480 454 4
f 284 12 346
f 4 423 506
f 480 4 506
f 423 531 506
f 480 506 505
f 531 137 506
f 506 137 505
f 365 366 98
f 71 270 262
f 270 71 269
f 71 267 269
f 335 334 333
f 333 334 89
f 334 335 91
f 536 9 519
f 465 463 461
f 537 140 541
f 520 140 519
f 119 446 465
f 465 461 119
f 461 441 119
f 460 441 461
f 176 46 173
f 299 297 24
f 71 263 266
f 263 260 266
f 260 72 266
f 263 70 260
f 205 201 49
f 201 181 49
f 186 205 49
f 181 201 200
f 181 182 49
f 284 77 283
f 586 587 152
f 588 586 151
f 20 267 265
f 266 267 71
f 31 417 631
f 631 417 632
f 31 631 639
f 417 31 419
f 641 631 161
f 417 112 632
f 161 631 632
f 418 417 419
f 417 418 112
f 284 345 77
f 542 550 145
f 542 541 524
f 284 174 12
f 48 174 283
f 373 20 265
f 373 265 374
f 609 608 525
f 608 157 622
f 560 559 313
f 636 637 162
f 541 140 524
f 41 542 524
f 358 357 280
f 70 263 264
f 263 262 264
f 176 177 46
f 174 48 173
f 174 173 172
f 538 551 549
f 538 540 539
f 537 541 539
f 232 221 242
f 17 221 232
f 232 242 62
f 231 232 62
f 203 205 55
f 203 55 202
f 201 205 203
f 202 55 217
f 205 206 55
f 204 203 202
f 73 275 292
f 292 290 73
f 272 290 282
f 290 292 291
f 75 290 291
f 290 75 282
f 70 277 259
f 277 70 281
f 277 281 279
f 260 70 259
f 12 174 172
f 104 396 388
f 367 27 354
f 365 27 367
f 354 27 356
f 365 367 366
f 595 27 365
f 318 299 310
f 155 596 597
f 155 597 598
f 596 594 597
f 595 596 155
f 605 595 155
f 180 47 179
f 180 190 47
f 352 372 11
f 11 372 261
f 312 310 24
f 642 636 162
f 636 297 637
f 367 369 97
f 366 367 97
f 369 367 354
f 369 370 97
f 580 579 464
f 580 152 579
f 579 124 464
f 61 230 409
f 230 410 409
f 230 61 229
f 230 229 228
f 76 285 286
f 353 352 276
f 74 353 276
f 288 76 286
f 288 286 283
f 289 288 287
f 203 54 201
f 287 288 77
f 77 288 283
f 286 48 283
f 531 423 113
f 276 11 259
f 11 261 259
f 277 276 259
f 616 158 615
f 516 616 615
f 138 516 615
f 138 615 612
f 509 533 532
f 503 502 504
f 635 79 294
f 635 294 404
f 635 637 79
f 637 635 638
f 638 635 108
f 635 404 108
f 226 61 405
f 61 226 227
f 405 61 409
f 227 226 207
f 48 178 179
f 48 286 178
f 173 48 179
f 534 143 533
f 534 535 143
f 531 534 533
f 533 143 532
f 137 531 533
f 261 372 371
f 13 180 178
f 285 13 178
f 180 13 166
f 13 168 166
f 346 345 284
f 331 327 46
f 46 327 172
f 172 327 326
f 382 620 101
f 442 121 448
f 443 121 442
f 2 226 404
f 294 2 404
f 404 226 405
f 207 226 2
f 550 551 145
f 552 146 551
f 143 550 532
f 552 550 143
f 330 329 328
f 24 636 629
f 94 352 353
f 352 11 276
f 113 428 534
f 428 535 534
f 509 41 511
f 535 552 143
f 550 552 551
f 550 542 532
f 369 95 368
f 326 327 87
f 87 327 329
f 327 331 329
f 581 326 87
f 293 79 298
f 79 297 298
f 296 298 78
f 79 293 294
f 296 293 298
f 598 490 38
f 358 280 22
f 280 279 278
f 357 358 95
f 74 357 353
f 330 328 25
f 567 23 559
f 590 598 38
f 590 604 598
f 598 604 155
f 604 590 154
f 590 591 154
f 604 154 606
f 297 299 298
f 299 318 78
f 298 299 78
f 355 354 356
f 629 636 642
f 312 24 629
f 629 642 160
f 370 362 97
f 362 363 97
f 363 366 97
f 364 363 362
f 362 370 351
f 96 363 364
f 297 636 24
f 162 637 638
f 637 297 79
f 490 488 38
f 598 597 490
f 441 442 119
f 443 442 441
f 443 441 5
f 442 448 445
f 296 78 295
f 326 12 172
f 575 574 364
f 47 175 176
f 175 177 176
f 47 176 179
