# FEM surface export ¡ª frame 670
# Vertices: 642  Faces: 1280
v -0.50967687 0.76046985 0.00922934
v 0.49921262 0.76803720 -0.01595836
v -0.53749198 0.59178931 0.02845545
v 0.54326844 0.51319408 -0.00113836
v -0.00488352 0.27137855 0.85943520
v -0.00239789 0.54226959 0.86530745
v -0.00810401 0.31222743 -0.84482276
v -0.01416017 0.55430436 -0.87655962
v 0.94317728 0.14939383 -0.58363909
v 0.94813102 0.13717313 0.60192609
v -0.94159216 0.13369529 -0.58380920
v -0.94757456 0.12875876 0.57429481
v -0.81600392 0.52223456 0.32287374
v -0.52158916 0.35954541 0.85993987
v -0.29777962 0.73100531 0.49300003
v 0.29810193 0.73158056 0.47008803
v -0.00766819 0.83802593 -0.00570621
v 0.27780458 0.75255877 -0.50269967
v -0.31370249 0.74452239 -0.48449200
v -0.52481210 0.38767937 -0.86273259
v -0.82482523 0.53246945 -0.31095198
v -1.11549854 0.16826181 -0.00436718
v 0.54172140 0.39002284 0.86581492
v 0.82682949 0.56069273 0.30969578
v -0.53695482 0.17235345 0.84521949
v 0.00532426 0.11655036 1.11238050
v -0.81097138 0.27792975 -0.31579068
v -0.83320606 0.24681653 0.34343186
v 0.02116290 0.11328222 -1.10385728
v -0.51056480 0.09124660 -0.82455033
v 0.81221658 0.56020164 -0.35673764
v 0.51049799 0.36660495 -0.87417334
v 0.82918346 0.20875672 0.33190948
v 0.52277207 0.16620858 0.84458762
v 0.30032778 0.58058745 0.44413936
v -0.30295646 0.59634167 0.46338800
v -0.02348339 0.40064991 0.03856093
v -0.31674162 0.41501063 -0.50100565
v 0.32348672 0.53320462 -0.46982875
v 0.51292825 0.20076437 -0.84626257
v 0.80459219 0.16087119 -0.28877833
v 1.11678505 0.20029148 0.00349934
v -0.67652494 0.65809292 0.17151542
v -0.57446951 0.64747322 0.43227631
v -0.41636395 0.76281410 0.25795153
v -0.75628674 0.25463063 0.75565606
v -0.71377623 0.45525730 0.61528635
v -0.90675217 0.34224817 0.47235951
v -0.15152787 0.65084827 0.70347887
v -0.42030057 0.58508241 0.70194554
v -0.27580461 0.46660298 0.90352076
v -0.15613054 0.80650938 0.24808821
v -0.26081815 0.81736261 0.00112274
v 0.16762228 0.64916170 0.69189423
v 0.00043738 0.75295591 0.50796008
v 0.25107938 0.82853007 -0.00587576
v 0.14154859 0.81437689 0.24069767
v 0.40493006 0.76780009 0.23673363
v -0.16487037 0.81964952 -0.25013623
v -0.42228761 0.77226019 -0.24813065
v 0.40662265 0.78084356 -0.26516688
v 0.14006071 0.82980722 -0.25893247
v -0.17374459 0.66821879 -0.69512469
v -0.01168009 0.76927912 -0.51486450
v 0.13998093 0.66997862 -0.70953476
v -0.58850271 0.65310252 -0.41189083
v -0.67928803 0.66597462 -0.14574882
v -0.26793742 0.48103157 -0.89060700
v -0.42896801 0.59591353 -0.68586558
v -0.91330433 0.34981555 -0.47640151
v -0.71607679 0.46715465 -0.60885268
v -0.76072890 0.25092986 -0.76492810
v -0.84807736 0.55028963 0.00686824
v -1.05655885 0.13928194 -0.31690133
v -1.00782561 0.36217433 -0.18740399
v -0.98354942 0.35606840 0.16474657
v -1.07172179 0.16592307 0.30013850
v 0.57927305 0.66277200 0.40489468
v 0.67450392 0.68102777 0.14416902
v 0.27881581 0.48119301 0.89733338
v 0.43365759 0.58859396 0.68454516
v 0.92404431 0.37582403 0.45915550
v 0.71924591 0.49860248 0.60789061
v 0.77915156 0.29204425 0.75368881
v -0.28693256 0.27009824 1.04588115
v -0.00489925 0.35943419 1.02243781
v -0.77825576 0.05609291 0.79829895
v -0.56284791 0.07936773 0.95857978
v -0.02722755 0.09295771 1.02379620
v -0.31368881 0.05520733 1.01763761
v -0.28422999 0.25986800 0.89330178
v -0.98905581 0.00028710 0.20778798
v -0.91770500 0.09331097 0.47761419
v -0.94605559 0.12056955 -0.47684005
v -0.97119546 0.00244978 -0.15390261
v -0.72760677 0.43339053 0.19198969
v -0.85743976 0.24824513 0.02883267
v -0.70908946 0.40907848 -0.12500124
v -0.57828039 0.12633249 -0.94762582
v -0.74988604 0.01967248 -0.75263870
v -0.00550311 0.34512222 -1.03672135
v -0.28274977 0.28231049 -1.04826999
v -0.27847478 0.17719799 -0.87554145
v -0.23615173 0.01236106 -1.02052963
v 0.03441424 0.09809466 -0.99259526
v 0.40533644 0.60471570 -0.71961397
v 0.25138101 0.47593737 -0.90266079
v 0.67384475 0.68380338 -0.17815115
v 0.56084859 0.67225629 -0.44238412
v 0.74440306 0.26613793 -0.77770978
v 0.68744540 0.47972277 -0.64623237
v 0.90040028 0.37170935 -0.50726217
v 0.70270312 0.41660017 0.16992766
v 0.58191907 0.41058171 0.41351923
v 0.45294785 0.55347663 0.27132091
v 0.75849843 0.01227553 0.78680074
v 0.68460548 0.20460720 0.60615134
v 0.88387179 0.01010274 0.48473439
v 0.14976066 0.47687605 0.69423866
v 0.43176660 0.37889192 0.66294461
v 0.29770184 0.22336355 0.84857857
v 0.15714519 0.61571079 0.21496439
v 0.24239095 0.33250216 0.01384515
v -0.14610514 0.46032807 0.69924766
v -0.01948640 0.56723827 0.48207465
v -0.26604000 0.56969547 0.01023400
v -0.19013645 0.53168309 0.28111687
v -0.42834476 0.61232996 0.25402290
v 0.14244547 0.45240000 -0.25700438
v 0.45679191 0.41892925 -0.19866030
v -0.43526345 0.57382435 -0.22572136
v -0.20612475 0.38683978 -0.21662354
v 0.14681713 0.44817719 -0.64238131
v -0.03513135 0.44038862 -0.49535954
v -0.14926335 0.46223813 -0.69150978
v 0.63731009 0.40009993 -0.40635481
v 0.73381776 0.37312904 -0.14915505
v 0.28193724 0.25122952 -0.86452001
v 0.45101768 0.38408139 -0.65812612
v 0.94170547 0.00000000 -0.44550249
v 0.71752274 0.16675359 -0.57860851
v 0.74204576 0.03979038 -0.78127158
v 0.86762595 0.22479962 0.04421750
v 1.07499933 0.19091855 -0.31416368
v 1.04289269 0.00000000 -0.14689736
v 1.02034914 0.00000000 0.20633940
v 1.06458390 0.18145695 0.31391197
v 0.31316474 0.01247597 1.05530596
v 0.60170013 0.12167346 0.94863075
v 0.29203379 0.28082326 1.03005135
v -0.59942508 0.46519208 0.42734599
v -0.42816967 0.39144465 0.66994303
v -0.71659398 0.21367596 0.60491121
v -0.39570197 0.37518352 -0.69431263
v -0.57165593 0.44882420 -0.41364959
v -0.69341040 0.27461696 -0.61093491
v 0.56744033 0.08529092 -0.93308634
v 0.30006033 0.04289252 -1.04164779
v 0.27261534 0.26728296 -1.04174435
v 1.01858163 0.39922830 0.15387148
v 1.00200355 0.39908531 -0.20554343
v 0.85851324 0.57499880 -0.02408228
v -0.59688157 0.71676040 0.09347059
v -0.54799157 0.72031194 0.21989454
v -0.46547613 0.76466364 0.13521215
v -0.71119320 0.58395416 0.38489377
v -0.63166511 0.65537173 0.30664441
v -0.75047016 0.58953309 0.24263741
v -0.35898760 0.74724406 0.37591022
v -0.49555287 0.71093607 0.35159299
v -0.43477222 0.69962668 0.46698293
v -0.86633104 0.19480312 0.67739356
v -0.84607899 0.29501238 0.62391168
v -0.93284160 0.23913482 0.53227347
v -0.62620258 0.41767791 0.75118655
v -0.73689628 0.36023140 0.69426376
v -0.63983184 0.29994074 0.81798595
v -0.86074734 0.44701594 0.39547172
v -0.82548857 0.39817533 0.55123347
v -0.77696782 0.49701357 0.48082778
v -0.08049358 0.59856743 0.78979784
v -0.21227834 0.55659634 0.81337404
v -0.13821262 0.49999142 0.89862502
v -0.35439751 0.66032141 0.60722691
v -0.28204203 0.61790109 0.71239030
v -0.22364807 0.69671524 0.60288560
v -0.40160981 0.42163903 0.88475794
v -0.35208565 0.52716678 0.80563748
v -0.47973844 0.49123192 0.78610182
v -0.64986795 0.57011086 0.52473909
v -0.57501549 0.53419858 0.66654480
v -0.49812645 0.62653506 0.56791782
v -0.34359658 0.79553014 0.12963179
v -0.38840699 0.79462916 0.00693749
v -0.22731359 0.77792162 0.37315932
v -0.28873008 0.78699702 0.25500754
v -0.13576414 0.83743954 -0.00415068
v -0.21170837 0.81480926 0.12473035
v -0.08515517 0.83149600 0.12078339
v 0.08527727 0.60013735 0.78743750
v 0.01259528 0.66106933 0.70465547
v 0.14836949 0.74441791 0.49298355
v 0.08900422 0.70979458 0.60028499
v 0.24152295 0.69548643 0.58307362
v -0.06684592 0.70964319 0.61094886
v -0.14749068 0.74678767 0.50718892
v 0.38206929 0.79975754 -0.01167414
v 0.33069253 0.79924524 0.11465959
v 0.45386627 0.77385461 0.11076232
v 0.06927861 0.83421832 0.11680606
v 0.19870369 0.82557601 0.12364361
v 0.12509018 0.84371567 -0.00568205
v 0.35697207 0.74894726 0.35601807
v 0.27334437 0.79085767 0.24081524
v 0.21624303 0.77536106 0.35626921
v -0.08375154 0.79187191 0.38224518
v 0.06481147 0.78924900 0.37359905
v -0.00934681 0.81873947 0.24252233
v -0.34730542 0.80211860 -0.12286027
v -0.46901521 0.76914304 -0.11885832
v -0.08814046 0.83990270 -0.12697163
v -0.21655825 0.82724530 -0.12346964
v -0.36859843 0.76354170 -0.36773193
v -0.29395339 0.80242789 -0.25082895
v -0.23404637 0.79010880 -0.36900911
v 0.45977253 0.77989364 -0.14218518
v 0.33291322 0.81220406 -0.13419309
v 0.21510446 0.79812479 -0.38028181
v 0.27464154 0.81305593 -0.26088706
v 0.34609845 0.77420032 -0.38400525
v 0.19657306 0.83858407 -0.13258567
v 0.06623130 0.84654105 -0.12850899
v -0.09522234 0.61559075 -0.79016221
v -0.01525111 0.67619443 -0.71203941
v 0.06611780 0.61281580 -0.79357910
v -0.16493699 0.76090521 -0.50442851
v -0.09305732 0.72602510 -0.61085129
v -0.24567522 0.71144241 -0.59147465
v 0.21165645 0.71505624 -0.61326575
v 0.06149037 0.72804475 -0.61663705
v 0.13281453 0.76666534 -0.51341325
v -0.01229048 0.83181423 -0.25549325
v 0.06471412 0.80803663 -0.38606954
v -0.08714417 0.80165863 -0.38484061
v -0.55467594 0.72711444 -0.20252565
v -0.59823644 0.72033674 -0.06853221
v -0.45400295 0.70725310 -0.45114651
v -0.50863123 0.72138840 -0.33462819
v -0.75818282 0.60698378 -0.22742134
v -0.63811916 0.67164320 -0.28207937
v -0.70961356 0.60150588 -0.36747110
v -0.14210969 0.52050352 -0.89217508
v -0.21988386 0.58276308 -0.80424052
v -0.48145497 0.49747863 -0.77995121
v -0.35315371 0.54471052 -0.79638118
v -0.39716610 0.44506285 -0.88398433
v -0.30245101 0.63868791 -0.70053035
v -0.37689063 0.67602962 -0.58724052
v -0.93761659 0.23371859 -0.52594340
v -0.84414458 0.29638311 -0.62050325
v -0.86033964 0.18428679 -0.68487883
v -0.77268249 0.51034760 -0.46544939
v -0.82119721 0.42135382 -0.54653382
v -0.87406516 0.44925284 -0.39567927
v -0.65480328 0.32805991 -0.81492585
v -0.74751067 0.37434971 -0.68901247
v -0.62737095 0.43825120 -0.74161208
v -0.51927841 0.63114178 -0.55465847
v -0.57546782 0.54103458 -0.65874690
v -0.65105164 0.56922460 -0.51589209
v -0.68672431 0.66639709 0.01296866
v -0.84729904 0.54570943 -0.15499528
v -0.77463621 0.60748380 -0.06958241
v -0.77151287 0.60314196 0.09124734
v -0.83908093 0.53478074 0.16520880
v -1.00643599 0.10970926 -0.45225179
v -1.00774753 0.25219539 -0.39720514
v -1.05412924 0.25547776 -0.08668261
v -1.05587363 0.25059965 -0.24315296
v -1.11168814 0.14709105 -0.15790047
v -0.97098619 0.35348019 -0.32724097
v -0.92532194 0.45215455 -0.25539997
v -0.98807538 0.25371617 0.39377576
v -1.02100515 0.14690660 0.44390047
v -0.90981096 0.44160366 0.24868125
v -0.94856149 0.36086792 0.32497334
v -1.09728122 0.18897693 0.14464615
v -1.02300477 0.27737656 0.24235657
v -1.06509113 0.28879094 0.08297390
v -0.92568421 0.46867877 -0.09134512
v -1.00745249 0.37893012 -0.00733502
v -0.92708743 0.46087861 0.07914744
v 0.54102695 0.73324358 0.18844800
v 0.58825678 0.72736049 0.06053593
v 0.44294637 0.69296205 0.44240344
v 0.49706608 0.72169369 0.31924418
v 0.75758153 0.62312305 0.22409238
v 0.63248318 0.68020469 0.27259067
v 0.70840579 0.62137651 0.36085337
v 0.13899046 0.51479679 0.89532143
v 0.22030853 0.57003760 0.80547732
v 0.48795635 0.51097816 0.78653508
v 0.35864782 0.53289193 0.79894793
v 0.41372836 0.42713210 0.88967353
v 0.29789343 0.62041980 0.69691741
v 0.37026581 0.66164267 0.58154565
v 0.94109720 0.25686115 0.53817475
v 0.85249317 0.33453053 0.61206061
v 0.86604989 0.20680845 0.69261128
v 0.78476465 0.52827412 0.45693707
v 0.82697541 0.44344142 0.54133660
v 0.89219427 0.47228155 0.38236058
v 0.66200835 0.33900124 0.82195890
v 0.74378324 0.39699769 0.69356269
v 0.63763005 0.45727533 0.75082403
v 0.51936138 0.62449110 0.55330014
v 0.58205986 0.54369330 0.65493566
v 0.65303528 0.59184188 0.51018625
v -0.13952875 0.39556155 0.97525519
v -0.00099646 0.45699826 0.94864249
v -0.41059595 0.30715641 0.95544761
v -0.28045949 0.36173090 0.98170155
v 0.00381469 0.24209882 1.08076966
v -0.14747296 0.29333633 1.05102789
v -0.14784472 0.18926801 1.10320163
v -0.87535506 0.10235220 0.69532681
v -0.77899617 0.16189267 0.79099441
v -0.56387013 0.07039867 0.91346991
v -0.67499071 0.03329081 0.87646908
v -0.66696119 0.11348426 0.81820893
v -0.67775548 0.17831838 0.87484640
v -0.55837971 0.23451595 0.91960406
v 0.00303070 0.17821127 0.94966620
v -0.15724783 0.16659175 0.95707363
v -0.12475146 0.24264231 0.88704741
v -0.17611201 0.04065756 1.10034037
v -0.16025473 0.08623069 1.03589618
v -0.01197692 0.01283792 1.09008682
v -0.37819079 0.21260381 0.85219222
v -0.31327641 0.16122168 0.97648823
v -0.42046586 0.12050161 0.97403914
v -0.43328810 0.17478338 1.00982642
v -0.43687937 0.01708640 1.01795959
v -0.30702850 0.13007997 1.08006537
v -1.01572120 0.01928615 0.39468920
v -0.98807389 0.01884791 0.54830188
v -1.08897936 0.05276899 0.10879976
v -1.07360864 0.05163106 0.24746758
v -0.85880905 0.16063496 0.38642645
v -0.94421726 0.01513182 0.35344791
v -0.89652640 0.11724297 0.27163440
v -0.96072859 0.02713916 -0.54834288
v -1.02587700 0.00000000 -0.40335420
v -0.92266071 0.14776370 -0.23162670
v -0.96266174 0.07457632 -0.31268689
v -0.90193713 0.20613918 -0.39209503
v -1.07756972 0.00767090 -0.22824624
v -1.09426022 0.04750608 -0.07542695
v -0.61565316 0.49023548 0.11997764
v -0.72551847 0.44054076 0.03155037
v -0.61703914 0.48920271 -0.06531459
v -0.83738071 0.24866810 0.19402783
v -0.77757919 0.34941223 0.13656840
v -0.79287970 0.34437376 0.28870800
v -0.77048200 0.36729819 -0.21778020
v -0.78690761 0.32726407 -0.03845566
v -0.82450432 0.24737675 -0.15123031
v -0.98567516 0.00103089 0.03369220
v -0.89603263 0.12467095 -0.05210540
v -0.91627163 0.13574269 0.11734974
v -0.78534245 0.09145275 -0.78382266
v -0.87470388 0.03634934 -0.68676949
v -0.57650679 0.26620024 -0.91530257
v -0.69135588 0.18016943 -0.87907130
v -0.63012683 0.10997080 -0.81244564
v -0.67920262 0.02538014 -0.87990087
v -0.56286263 0.00000000 -0.91248029
v -0.01364916 0.45297822 -0.96209997
v -0.14347054 0.42073968 -0.97592509
v -0.14310329 0.20509377 -1.09899497
v -0.14121090 0.31298998 -1.04312098
v -0.00274802 0.23043779 -1.08707952
v -0.28464901 0.37961465 -0.97084820
v -0.41559836 0.33151466 -0.95305192
v -0.14857982 0.24804553 -0.87736064
v -0.13509792 0.12333365 -0.93373007
v -0.00003752 0.22735685 -0.92546064
v -0.38011861 0.00000000 -0.93345428
v -0.25610894 0.07782423 -0.88315511
v -0.41084522 0.11198439 -0.83985919
v 0.02399411 0.00040035 -1.09387636
v -0.08439846 0.01025372 -0.99297744
v -0.13102020 0.09408968 -1.08152890
v -0.43858507 0.22954041 -1.01030564
v -0.29970753 0.14328641 -1.08098483
v -0.41933054 0.05971922 -1.01143718
v 0.19913346 0.57889420 -0.81776291
v 0.11772667 0.52059758 -0.90216285
v 0.34203032 0.68682855 -0.61649179
v 0.27322254 0.63957262 -0.72615314
v 0.39157519 0.43125439 -0.89575112
v 0.33819139 0.54578400 -0.82042319
v 0.47329187 0.49132866 -0.79967928
v 0.58929610 0.73051828 -0.09749149
v 0.54448521 0.74223882 -0.22793096
v 0.69030708 0.61886406 -0.40477547
v 0.62309879 0.68794721 -0.31347975
v 0.74755216 0.62484902 -0.26648894
v 0.48957390 0.73415184 -0.35848293
v 0.42059612 0.72329462 -0.47820798
v 0.85500222 0.20768464 -0.68000871
v 0.83417016 0.31397924 -0.63841695
v 0.93340290 0.26236251 -0.54637742
v 0.61493486 0.43378505 -0.77074766
v 0.72923917 0.37542674 -0.72217739
v 0.62317395 0.30896303 -0.84068751
v 0.85756123 0.47157592 -0.43666390
v 0.79238600 0.42526385 -0.57870185
v 0.75020260 0.52522081 -0.50943726
v 0.48642021 0.64930058 -0.58580816
v 0.62625408 0.58580089 -0.54880464
v 0.55156481 0.55129123 -0.68433136
v 0.62015802 0.49381697 0.08639291
v 0.58258295 0.45708990 0.21988003
v 0.48907647 0.52187270 0.13139026
v 0.71063226 0.32062477 0.36101237
v 0.65357000 0.40681002 0.30691805
v 0.77367938 0.29985455 0.24987397
v 0.36863595 0.59806114 0.35546416
v 0.50370181 0.48098215 0.34544411
v 0.44184723 0.51132208 0.42905775
v 0.87935716 0.05693294 0.70706737
v 0.84798384 0.07149919 0.64385074
v 0.97043377 0.03176303 0.55545586
v 0.60684609 0.19451216 0.73232257
v 0.70305800 0.08457730 0.69863588
v 0.62655258 0.07993846 0.83395427
v 0.85473543 0.11232088 0.40026712
v 0.78034335 0.13050039 0.55842501
v 0.74246556 0.20383368 0.47164246
v 0.08019906 0.33761930 0.77338803
v 0.22366318 0.34950790 0.77450383
v 0.15137838 0.25212139 0.89833099
v 0.37086144 0.50407755 0.56411308
v 0.29861301 0.45709288 0.67247981
v 0.20288812 0.54671878 0.57899928
v 0.41951799 0.22382745 0.87229896
v 0.34991556 0.32692149 0.74222195
v 0.48264596 0.26482332 0.74980032
v 0.63145489 0.31430158 0.47824466
v 0.55927181 0.31875548 0.60004002
v 0.50188655 0.42436957 0.50433671
v 0.38032055 0.42857048 0.15332255
v 0.39686307 0.40965343 0.01180115
v 0.22520861 0.61626613 0.32592255
v 0.32441750 0.56648415 0.25091335
v 0.10288219 0.37000221 0.02092554
v 0.21081795 0.44083396 0.14280902
v 0.06339563 0.48467639 0.16003814
v -0.06665798 0.38044563 0.77398533
v -0.00085408 0.46909779 0.71914887
v -0.14357120 0.60566163 0.50168961
v -0.07561409 0.52370518 0.61549294
v -0.20738007 0.53427470 0.56740308
v 0.05592284 0.53473777 0.60800731
v 0.13835946 0.58011246 0.46575361
v -0.41659841 0.56338781 0.07156309
v -0.34452379 0.66946882 0.13918577
v -0.48889551 0.62831503 0.14801200
v -0.08742984 0.51298159 0.16501257
v -0.19373150 0.64610672 0.14263806
v -0.16625237 0.47874460 0.04073128
v -0.39412501 0.62603635 0.36970791
v -0.27643734 0.68630892 0.24687505
v -0.25126976 0.65554565 0.33940387
v 0.08415464 0.66871685 0.36176324
v -0.09266448 0.64335960 0.35646963
v 0.00923228 0.50363839 0.30358547
v 0.30980667 0.39839140 -0.11798078
v 0.45746830 0.49175900 -0.09015639
v 0.07232711 0.41194034 -0.12521414
v 0.17128938 0.37456068 -0.14889064
v 0.43349868 0.48390743 -0.35547382
v 0.31741112 0.49860466 -0.24708886
v 0.23590915 0.49350134 -0.37563005
v -0.47562009 0.60433215 -0.08052030
v -0.40578532 0.47768793 -0.07955493
v -0.27010843 0.38781229 -0.34214842
v -0.34186512 0.44199124 -0.22647718
v -0.40411916 0.48692337 -0.35706925
v -0.27226052 0.40888828 -0.07634925
v -0.12786053 0.43948814 -0.08627351
v 0.07298390 0.38660502 -0.74650073
v -0.02308707 0.44932723 -0.64836442
v -0.09609665 0.38000450 -0.75173253
v 0.14177540 0.43336010 -0.49286023
v 0.07361701 0.53645444 -0.53629863
v 0.24312118 0.49585119 -0.57504272
v -0.18435079 0.35163936 -0.58654124
v -0.08832969 0.53566253 -0.56412309
v -0.16611525 0.46574926 -0.49423912
v -0.01285225 0.41744977 -0.24957994
v -0.09627536 0.38336033 -0.37814558
v 0.07873961 0.44793972 -0.35956913
v 0.60173976 0.50329691 -0.20988657
v 0.61798048 0.45337486 -0.09658957
v 0.49278817 0.45637307 -0.44036895
v 0.56138390 0.48010209 -0.32242933
v 0.76950675 0.27289635 -0.22923473
v 0.69113195 0.41207245 -0.27169928
v 0.72669238 0.27049348 -0.35509878
v 0.13844569 0.29545471 -0.84622627
v 0.22122879 0.37611866 -0.78237492
v 0.51095468 0.29216126 -0.75337535
v 0.37455451 0.32994410 -0.75738305
v 0.39638156 0.27850914 -0.85918748
v 0.30410948 0.42364785 -0.66231000
v 0.39190701 0.44295236 -0.57093257
v 0.96834499 0.05939126 -0.54270339
v 0.86863333 0.00976821 -0.62872839
v 0.85843307 0.06510308 -0.68697649
v 0.77493811 0.18129110 -0.45091841
v 0.82524878 0.07276385 -0.52277827
v 0.86539936 0.06159420 -0.37877080
v 0.62967032 0.15017296 -0.81436235
v 0.74238396 0.09642865 -0.67427093
v 0.63841850 0.21421346 -0.73046130
v 0.54690385 0.37919238 -0.54934198
v 0.61517829 0.30015922 -0.61717629
v 0.68494511 0.29843643 -0.49209705
v 0.70514452 0.40884191 0.00028979
v 0.86577237 0.18809710 -0.12666889
v 0.80345184 0.28116596 -0.07174749
v 0.81557554 0.33383694 0.09264883
v 0.85127485 0.22542986 0.17867003
v 1.01965582 0.17386900 -0.45220247
v 1.04330003 0.08108194 -0.39539325
v 1.11890852 0.08537727 -0.07534297
v 1.08884048 0.08742653 -0.23724703
v 1.09812117 0.18763489 -0.15452076
v 1.00930989 0.00020840 -0.29830876
v 0.92831308 0.05885022 -0.23020385
v 1.03464901 0.08215670 0.41751403
v 1.01619720 0.16366667 0.47091198
v 0.92645556 0.09620430 0.26887667
v 0.98322487 0.00000000 0.35620570
v 1.09387147 0.17832305 0.15859367
v 1.06752694 0.05883869 0.26792705
v 1.09120917 0.09903812 0.10241486
v 0.93397486 0.10170976 -0.06493466
v 1.03672540 0.00515789 0.02749081
v 0.94513190 0.10762732 0.12489161
v 0.14095438 0.12059557 0.95814741
v 0.39002523 0.15114318 0.92758036
v 0.30064535 0.10636567 0.97265369
v 0.13271186 0.07751201 1.04089415
v 0.16144122 0.03948944 1.09191930
v 0.79435319 0.13661566 0.79786754
v 0.58754969 0.25978640 0.93108845
v 0.71127385 0.21242762 0.86619413
v 0.67623824 0.06060420 0.88347274
v 0.51223975 0.04935690 0.94136995
v 0.14126115 0.41898033 0.96334279
v 0.15235011 0.21311198 1.10023379
v 0.14132623 0.32010722 1.04220903
v 0.28791496 0.38486478 0.97533417
v 0.42805260 0.32090354 0.95757782
v 0.42832598 0.04621246 1.01121712
v 0.44994536 0.19489202 1.00707853
v 0.29040495 0.14781410 1.07764220
v -0.58368683 0.53036922 0.22858474
v -0.46758911 0.53424889 0.46906024
v -0.52249551 0.56069964 0.33769318
v -0.65334761 0.43804103 0.32178348
v -0.70567089 0.35409465 0.39633715
v -0.18365923 0.35150504 0.79401499
v -0.46330321 0.27550808 0.74158525
v -0.32570976 0.35177511 0.76717997
v -0.28167322 0.46346703 0.70418388
v -0.35076153 0.49556762 0.57835829
v -0.87714076 0.03295378 0.64307195
v -0.77527374 0.21754906 0.48805717
v -0.79767352 0.14413947 0.55811799
v -0.75033635 0.13702133 0.69255954
v -0.63880402 0.21473280 0.73782736
v -0.50854170 0.41692179 0.53220761
v -0.57009834 0.30391049 0.66575873
v -0.64490557 0.33088732 0.50947469
v -0.20938833 0.32782176 -0.82037103
v -0.29270470 0.45012158 -0.57330650
v -0.26640373 0.40425208 -0.72562236
v -0.34425813 0.26892921 -0.76941407
v -0.44214898 0.24656631 -0.76077348
v -0.57017124 0.49723953 -0.18101947
v -0.71279395 0.37770972 -0.36399060
v -0.64400381 0.42290694 -0.25390708
v -0.54408634 0.52020913 -0.33377093
v -0.47186473 0.49462196 -0.49387988
v -0.84457207 0.08895581 -0.61911058
v -0.59383887 0.23750804 -0.75140363
v -0.71830386 0.16440079 -0.68687093
v -0.80866754 0.21321237 -0.54253185
v -0.79013020 0.29123646 -0.47548953
v -0.48809654 0.44412011 -0.58548748
v -0.64544904 0.38613451 -0.51770639
v -0.56146544 0.33018926 -0.67439926
v 0.78065771 0.15049224 -0.78187519
v 0.53672481 0.10233431 -0.92361522
v 0.66905558 0.02267342 -0.87425631
v 0.67155254 0.17283568 -0.86638463
v 0.55640769 0.22568607 -0.92775017
v 0.13606431 0.20144463 -0.93962109
v 0.16853714 0.04315404 -1.10510683
v 0.16195649 0.06410884 -1.00596237
v 0.27914080 0.17758399 -0.96231866
v 0.38697505 0.19131915 -0.96280843
v 0.12173828 0.41563219 -0.96816105
v 0.40310583 0.30422601 -0.96727568
v 0.26836613 0.37463140 -0.97264028
v 0.12520596 0.30906329 -1.03941000
v 0.14915480 0.19430180 -1.09475362
v 0.42864516 0.01969716 -1.00094438
v 0.29327470 0.14234531 -1.08903790
v 0.42569759 0.18173592 -1.00266850
v 1.01104295 0.28568500 0.39587227
v 1.07897878 0.29029873 0.08788984
v 1.05147004 0.29456350 0.23909047
v 0.99449533 0.38860738 0.31041849
v 0.94579488 0.48498106 0.23685767
v 0.99428457 0.29897788 -0.41248927
v 0.91702497 0.49014729 -0.28852072
v 0.95018142 0.40093672 -0.35778782
v 1.04180670 0.29802528 -0.26420093
v 1.07985342 0.30762139 -0.10648084
v 0.68484449 0.68507212 -0.01416019
v 0.85595918 0.57127261 0.14274724
v 0.77763748 0.63204968 0.06950124
v 0.77420914 0.63328165 -0.10105490
v 0.84649265 0.57331234 -0.19373702
v 1.02215314 0.38270253 -0.02493693
v 0.94547802 0.50136262 -0.11781597
v 0.95013869 0.49575791 0.06166599
f 330 87 329
f 336 325 26
f 207 208 56
f 464 36 580
f 502 129 504
f 157 624 622
f 308 311 82
f 247 223 248
f 507 483 508
f 331 88 329
f 494 500 497
f 156 601 602
f 591 589 592
f 365 98 596
f 75 281 282
f 152 587 577
f 149 559 560
f 555 121 553
f 530 141 529
f 515 517 139
f 361 594 98
f 250 67 249
f 157 608 609
f 294 293 209
f 317 81 316
f 557 338 26
f 303 305 81
f 530 529 528
f 101 381 382
f 415 418 111
f 192 184 50
f 412 110 411
f 20 384 256
f 131 594 486
f 281 264 282
f 347 287 348
f 28 349 582
f 165 163 1
f 248 250 66
f 617 107 398
f 273 271 274
f 456 115 453
f 558 561 560
f 335 576 91
f 331 177 332
f 116 433 436
f 351 370 92
f 136 511 530
f 239 240 65
f 247 258 19
f 304 23 567
f 148 557 570
f 214 208 58
f 440 426 450
f 268 270 269
f 258 247 268
f 204 202 16
f 466 125 465
f 517 513 133
f 168 275 274
f 275 73 274
f 198 193 53
f 309 308 307
f 510 511 136
f 415 416 110
f 131 490 597
f 473 475 474
f 414 415 111
f 493 495 494
f 496 504 485
f 433 116 432
f 600 375 601
f 240 234 65
f 418 415 412
f 486 361 3
f 567 566 304
f 380 393 29
f 17 199 197
f 491 492 132
f 451 449 435
f 218 217 216
f 623 621 613
f 396 104 395
f 433 439 436
f 628 160 627
f 215 202 217
f 209 207 2
f 427 113 424
f 434 10 544
f 434 433 432
f 199 17 210
f 150 564 565
f 489 491 132
f 275 13 285
f 497 500 134
f 125 466 476
f 578 152 577
f 208 214 211
f 328 88 343
f 356 27 603
f 150 566 567
f 372 100 371
f 190 191 47
f 235 8 398
f 260 261 72
f 422 403 414
f 422 414 111
f 453 454 123
f 349 583 582
f 521 520 519
f 425 453 115
f 616 622 158
f 483 130 508
f 151 586 572
f 212 17 232
f 400 397 402
f 377 396 99
f 41 522 511
f 510 508 505
f 549 547 42
f 475 473 36
f 510 137 509
f 222 221 197
f 430 115 429
f 220 194 1
f 305 54 204
f 621 29 613
f 192 171 184
f 460 335 5
f 88 331 332
f 74 277 279
f 300 301 80
f 390 389 388
f 165 45 164
f 146 549 551
f 291 278 75
f 448 120 445
f 147 543 544
f 607 610 609
f 603 602 356
f 139 529 514
f 333 553 443
f 92 368 347
f 261 260 259
f 300 6 200
f 46 177 331
f 284 283 174
f 301 300 200
f 471 468 474
f 54 305 301
f 302 304 303
f 569 150 567
f 150 569 570
f 294 209 2
f 628 629 160
f 548 543 147
f 147 625 627
f 63 233 234
f 426 427 114
f 41 509 532
f 198 52 196
f 614 105 612
f 147 627 547
f 81 305 306
f 549 548 547
f 54 301 200
f 342 88 332
f 264 281 70
f 193 194 53
f 455 429 456
f 187 321 14
f 479 130 484
f 147 544 625
f 458 456 453
f 304 80 303
f 314 84 313
f 488 503 501
f 321 332 14
f 423 425 424
f 305 204 306
f 341 339 25
f 514 40 516
f 625 628 627
f 340 339 341
f 105 614 391
f 243 228 62
f 318 316 78
f 75 278 279
f 357 355 353
f 238 257 63
f 466 455 476
f 425 423 4
f 448 449 120
f 408 638 108
f 292 275 285
f 22 278 289
f 515 513 517
f 501 503 134
f 622 623 158
f 134 503 504
f 195 216 206
f 163 271 246
f 619 617 620
f 62 228 229
f 163 165 164
f 453 425 454
f 489 132 488
f 82 628 625
f 58 208 209
f 525 608 40
f 626 547 627
f 518 517 498
f 489 487 491
f 557 26 564
f 325 336 344
f 541 145 539
f 40 616 516
f 338 556 89
f 250 248 245
f 139 514 515
f 98 594 596
f 246 220 1
f 112 413 630
f 9 536 413
f 156 600 601
f 332 177 14
f 321 342 332
f 156 606 600
f 584 330 585
f 302 303 81
f 584 87 330
f 330 25 585
f 400 239 65
f 439 440 117
f 95 358 368
f 597 594 131
f 594 361 486
f 246 67 245
f 561 562 149
f 28 364 362
f 55 216 217
f 427 430 114
f 267 20 254
f 556 555 553
f 84 309 558
f 311 310 312
f 609 525 142
f 256 68 255
f 124 460 461
f 82 311 312
f 307 308 82
f 589 135 495
f 527 40 514
f 112 418 412
f 20 256 254
f 258 238 19
f 267 254 269
f 273 272 249
f 392 391 393
f 137 533 509
f 122 455 456
f 9 413 411
f 130 480 505
f 333 443 5
f 527 525 40
f 589 495 385
f 39 496 485
f 223 225 224
f 414 416 415
f 219 222 53
f 145 538 539
f 413 412 411
f 469 468 467
f 183 181 6
f 191 192 50
f 429 35 431
f 292 285 76
f 413 112 412
f 415 110 412
f 43 164 167
f 467 468 126
f 617 101 620
f 450 451 117
f 438 546 545
f 619 620 159
f 17 212 210
f 124 579 576
f 584 153 583
f 460 124 576
f 3 469 467
f 311 308 314
f 6 320 183
f 389 104 388
f 251 250 249
f 194 165 1
f 291 289 278
f 287 77 348
f 238 258 257
f 139 517 518
f 238 236 19
f 223 247 19
f 382 380 29
f 39 518 498
f 361 359 3
f 69 255 257
f 139 518 528
f 33 545 535
f 387 385 7
f 69 268 269
f 477 462 125
f 454 479 123
f 121 555 447
f 451 435 117
f 454 425 4
f 233 252 8
f 124 463 464
f 69 258 268
f 168 167 166
f 583 153 582
f 384 394 102
f 138 512 513
f 57 210 211
f 254 256 255
f 607 609 142
f 324 319 86
f 289 291 76
f 291 292 76
f 384 102 383
f 422 421 420
f 221 17 197
f 383 102 381
f 376 377 99
f 99 373 374
f 386 105 392
f 438 33 440
f 90 341 343
f 281 75 279
f 574 571 96
f 628 82 312
f 221 222 59
f 127 471 474
f 595 605 603
f 551 538 145
f 334 91 340
f 322 324 85
f 305 303 301
f 18 239 399
f 306 204 16
f 199 198 197
f 166 190 180
f 303 80 301
f 267 266 265
f 626 42 547
f 16 215 213
f 349 351 350
f 295 16 213
f 68 379 252
f 250 251 66
f 627 160 626
f 383 68 256
f 343 88 342
f 507 508 136
f 202 215 16
f 197 198 53
f 254 69 269
f 603 605 156
f 418 419 111
f 384 383 256
f 455 122 476
f 203 204 54
f 556 557 148
f 255 68 253
f 313 84 560
f 25 328 341
f 254 255 69
f 603 156 602
f 581 584 583
f 630 632 112
f 163 246 1
f 246 245 220
f 432 116 558
f 499 591 590
f 320 563 86
f 345 93 350
f 306 16 295
f 346 93 345
f 562 568 149
f 604 605 155
f 154 592 593
f 545 552 535
f 511 522 530
f 574 573 571
f 566 150 565
f 361 98 360
f 67 271 273
f 234 235 65
f 208 211 56
f 574 151 573
f 251 270 66
f 398 8 378
f 213 215 214
f 438 440 439
f 315 314 313
f 263 71 262
f 20 373 384
f 496 134 504
f 329 88 328
f 81 306 316
f 555 556 148
f 592 589 103
f 617 619 107
f 227 207 56
f 571 359 96
f 446 466 465
f 206 216 55
f 359 571 469
f 568 148 570
f 34 437 435
f 28 351 349
f 21 272 282
f 113 423 424
f 490 489 488
f 379 68 383
f 210 212 211
f 80 563 300
f 351 92 350
f 326 346 12
f 83 317 318
f 555 148 554
f 212 231 56
f 218 57 217
f 271 67 246
f 195 196 52
f 270 268 66
f 390 592 103
f 148 568 554
f 495 493 7
f 592 390 593
f 357 95 355
f 574 575 151
f 452 120 451
f 154 591 592
f 587 585 577
f 395 394 396
f 93 349 350
f 610 416 611
f 166 44 190
f 315 23 302
f 315 302 317
f 268 247 66
f 606 154 593
f 396 394 99
f 211 212 56
f 370 369 368
f 235 397 65
f 280 278 22
f 83 315 317
f 575 588 151
f 74 279 280
f 385 495 7
f 63 257 253
f 397 235 398
f 214 58 213
f 220 219 194
f 546 146 545
f 236 225 19
f 599 94 602
f 235 233 8
f 102 394 395
f 611 416 32
f 225 223 19
f 139 528 529
f 231 62 229
f 419 406 421
f 451 450 452
f 49 182 185
f 402 397 107
f 52 199 218
f 416 610 110
f 225 236 244
f 107 397 398
f 68 252 253
f 322 85 321
f 182 181 183
f 118 438 439
f 546 438 118
f 348 77 345
f 543 546 118
f 231 212 232
f 610 611 157
f 33 438 545
f 385 386 103
f 479 480 130
f 169 195 15
f 93 583 349
f 15 195 206
f 190 44 192
f 247 248 66
f 146 552 545
f 248 60 245
f 570 557 564
f 274 271 43
f 63 253 233
f 272 21 249
f 507 528 518
f 67 273 249
f 487 467 126
f 196 195 169
f 624 159 623
f 134 496 497
f 132 503 488
f 104 393 395
f 556 553 89
f 355 356 94
f 258 69 257
f 229 61 227
f 56 231 227
f 460 576 335
f 463 124 461
f 394 373 99
f 29 393 391
f 67 250 245
f 193 198 196
f 462 36 464
f 144 633 630
f 141 526 527
f 517 133 498
f 536 144 630
f 100 372 599
f 144 536 537
f 22 289 287
f 578 579 152
f 579 578 576
f 189 188 187
f 60 223 224
f 92 348 350
f 555 554 447
f 396 377 388
f 194 193 165
f 413 536 630
f 372 352 599
f 377 376 375
f 348 345 350
f 105 386 387
f 240 237 234
f 463 462 464
f 135 500 494
f 45 196 169
f 512 612 387
f 245 60 220
f 429 115 456
f 223 60 248
f 288 289 76
f 525 526 142
f 100 599 601
f 613 29 391
f 526 523 520
f 341 328 343
f 631 641 639
f 264 21 282
f 266 72 265
f 106 402 403
f 73 273 274
f 186 206 205
f 381 379 383
f 52 216 195
f 410 18 399
f 290 272 73
f 72 371 374
f 526 525 527
f 115 430 424
f 498 497 496
f 621 382 29
f 543 118 434
f 214 215 57
f 522 141 530
f 511 510 509
f 352 94 599
f 493 512 7
f 90 340 341
f 169 171 170
f 605 604 606
f 219 60 224
f 104 389 392
f 359 469 3
f 186 49 185
f 222 219 224
f 166 167 44
f 428 427 426
f 523 522 524
f 129 502 481
f 50 185 188
f 164 45 170
f 425 115 424
f 33 428 426
f 427 428 113
f 94 356 602
f 515 138 513
f 114 431 452
f 237 236 238
f 215 217 57
f 95 354 355
f 220 60 219
f 515 514 516
f 183 320 319
f 222 197 53
f 559 569 567
f 300 320 6
f 435 436 117
f 96 360 363
f 640 642 641
f 242 243 62
f 140 537 519
f 508 130 505
f 420 410 399
f 537 539 144
f 317 316 318
f 426 114 450
f 186 15 206
f 311 83 310
f 625 544 307
f 544 10 307
f 168 43 167
f 185 182 188
f 369 354 95
f 44 171 192
f 605 606 156
f 548 549 146
f 100 601 375
f 149 568 569
f 381 380 382
f 455 466 35
f 480 479 454
f 543 548 546
f 493 133 513
f 492 472 37
f 477 125 476
f 491 487 126
f 337 336 338
f 588 153 587
f 576 578 91
f 633 161 632
f 96 359 360
f 39 485 483
f 101 617 378
f 193 45 165
f 163 164 43
f 618 624 611
f 507 136 528
f 561 149 560
f 641 162 639
f 116 561 558
f 494 133 493
f 253 252 233
f 63 237 238
f 392 393 104
f 440 450 117
f 93 581 583
f 386 385 387
f 120 449 451
f 421 422 111
f 486 3 467
f 302 81 317
f 633 632 630
f 462 475 36
f 376 99 374
f 489 490 131
f 447 449 448
f 387 612 105
f 106 420 399
f 173 46 172
f 492 491 472
f 316 306 295
f 22 287 347
f 109 410 420
f 507 39 483
f 559 23 313
f 214 57 211
f 196 45 193
f 10 434 432
f 422 106 403
f 626 160 640
f 487 486 467
f 542 41 532
f 400 106 399
f 444 120 452
f 198 199 52
f 475 127 474
f 621 620 382
f 621 623 159
f 450 114 452
f 92 347 348
f 376 100 375
f 434 118 433
f 503 132 502
f 337 90 336
f 537 536 519
f 395 393 380
f 201 54 200
f 171 44 170
f 355 94 353
f 58 296 213
f 422 420 106
f 595 365 596
f 569 568 570
f 523 140 520
f 114 430 431
f 218 210 57
f 304 566 80
f 639 162 638
f 261 371 72
f 548 147 547
f 498 133 497
f 150 570 564
f 222 224 59
f 142 526 520
f 437 436 435
f 141 522 523
f 137 510 505
f 173 179 176
f 559 149 569
f 121 447 448
f 563 320 300
f 102 395 380
f 257 255 253
f 642 162 641
f 83 311 314
f 216 52 218
f 512 493 513
f 23 304 302
f 91 339 340
f 512 138 612
f 159 620 621
f 218 199 210
f 364 28 575
f 83 318 310
f 168 274 43
f 136 530 528
f 140 523 524
f 495 135 494
f 233 235 234
f 566 563 80
f 25 339 577
f 277 74 276
f 475 462 477
f 133 494 497
f 436 437 116
f 389 386 392
f 548 146 546
f 441 460 5
f 10 309 307
f 65 397 400
f 543 434 544
f 640 641 161
f 272 273 73
f 581 93 346
f 419 421 111
f 319 320 86
f 180 179 178
f 127 475 477
f 231 229 227
f 337 334 340
f 136 508 510
f 308 309 84
f 237 63 234
f 447 554 34
f 252 379 378
f 315 83 314
f 608 622 616
f 338 336 26
f 337 338 89
f 13 275 168
f 209 208 207
f 436 439 117
f 628 312 629
f 360 366 363
f 364 574 96
f 359 361 360
f 466 446 35
f 500 501 134
f 406 109 421
f 135 589 591
f 601 599 602
f 340 90 337
f 481 492 37
f 522 41 524
f 78 316 295
f 131 486 487
f 403 32 414
f 634 626 640
f 151 572 573
f 515 516 138
f 8 252 378
f 265 72 374
f 9 521 519
f 538 549 42
f 368 358 347
f 588 587 586
f 458 453 123
f 589 385 103
f 502 492 481
f 32 416 414
f 430 427 424
f 153 585 587
f 540 144 539
f 370 368 92
f 209 293 58
f 428 33 535
f 326 581 346
f 625 307 82
f 575 28 582
f 6 181 200
f 421 109 420
f 553 121 443
f 160 642 640
f 153 584 585
f 309 432 558
f 334 337 89
f 23 315 313
f 271 163 43
f 296 295 213
f 39 498 496
f 118 439 433
f 531 113 534
f 293 296 58
f 28 362 351
f 489 131 487
f 431 444 452
f 84 558 560
f 98 366 360
f 45 169 170
f 379 101 378
f 462 463 125
f 308 84 314
f 10 432 309
f 299 24 310
f 132 492 502
f 512 387 7
f 639 638 408
f 565 323 86
f 59 244 242
f 106 400 402
f 440 33 426
f 566 565 563
f 617 398 378
f 224 225 59
f 410 109 409
f 239 400 399
f 194 219 53
f 358 22 347
f 610 157 609
f 27 595 603
f 479 484 482
f 142 520 521
f 585 25 577
f 339 578 577
f 408 407 406
f 407 109 406
f 31 408 406
f 407 408 108
f 31 639 408
f 419 31 406
f 608 616 40
f 430 429 431
f 455 35 429
f 35 444 431
f 188 51 187
f 188 182 51
f 51 322 187
f 322 51 319
f 51 182 183
f 319 51 183
f 187 322 321
f 322 319 324
f 381 101 379
f 405 407 108
f 404 405 108
f 286 285 178
f 407 405 409
f 109 407 409
f 191 175 47
f 167 164 170
f 50 184 185
f 44 167 170
f 64 244 236
f 243 244 64
f 50 188 189
f 541 542 145
f 442 445 119
f 339 91 578
f 445 446 119
f 624 623 622
f 611 624 157
f 523 526 141
f 141 527 529
f 527 514 529
f 445 120 444
f 446 445 444
f 35 446 444
f 613 614 158
f 158 614 615
f 623 613 158
f 614 613 391
f 614 612 615
f 371 376 374
f 100 376 371
f 479 482 123
f 373 394 384
f 540 42 634
f 633 540 634
f 538 42 540
f 633 634 161
f 161 634 640
f 42 626 634
f 540 633 144
f 557 556 338
f 553 333 89
f 262 21 264
f 251 21 262
f 5 335 333
f 270 251 262
f 21 251 249
f 600 593 30
f 606 593 600
f 600 30 375
f 593 390 30
f 30 377 375
f 390 388 30
f 30 388 377
f 228 243 241
f 470 478 459
f 470 127 478
f 127 477 478
f 184 186 185
f 478 477 476
f 122 478 476
f 357 74 280
f 518 39 507
f 344 342 85
f 325 344 85
f 342 344 343
f 85 342 321
f 344 90 343
f 90 344 336
f 482 129 481
f 482 481 457
f 482 457 123
f 481 37 457
f 449 447 34
f 435 449 34
f 470 472 471
f 472 470 37
f 470 471 127
f 472 126 471
f 126 468 471
f 470 459 37
f 491 126 472
f 504 129 485
f 221 59 242
f 125 463 465
f 437 34 562
f 561 437 562
f 554 568 562
f 34 554 562
f 437 561 116
f 390 103 389
f 103 386 389
f 392 105 391
f 572 586 580
f 572 580 36
f 586 152 580
f 473 572 36
f 244 243 242
f 225 244 59
f 64 240 241
f 240 239 241
f 237 240 64
f 243 64 241
f 236 237 64
f 411 607 521
f 9 411 521
f 110 607 411
f 607 142 521
f 610 607 110
f 171 15 184
f 171 169 15
f 15 186 184
f 87 584 581
f 153 588 582
f 588 575 582
f 381 102 380
f 573 572 473
f 468 469 128
f 474 468 128
f 469 571 128
f 571 573 128
f 573 473 128
f 473 474 128
f 564 323 565
f 26 323 564
f 323 324 86
f 325 323 26
f 325 324 323
f 563 565 86
f 324 325 85
f 410 230 18
f 230 228 18
f 18 228 241
f 18 241 239
f 401 619 618
f 401 402 107
f 403 402 401
f 619 159 618
f 401 618 32
f 619 401 107
f 403 401 32
f 618 611 32
f 159 624 618
f 478 122 459
f 122 458 459
f 37 459 457
f 459 458 457
f 122 456 458
f 457 458 123
f 191 190 192
f 485 129 484
f 129 482 484
f 483 485 484
f 130 483 484
f 189 187 14
f 191 50 189
f 191 189 175
f 189 14 175
f 14 177 175
f 499 501 500
f 501 499 38
f 38 499 590
f 135 499 500
f 488 501 38
f 499 135 591
f 480 454 4
f 284 12 346
f 4 423 506
f 480 4 506
f 423 531 506
f 480 506 505
f 531 137 506
f 506 137 505
f 365 366 98
f 71 270 262
f 270 71 269
f 71 267 269
f 335 334 333
f 333 334 89
f 334 335 91
f 536 9 519
f 465 463 461
f 537 140 541
f 520 140 519
f 119 446 465
f 465 461 119
f 461 441 119
f 460 441 461
f 176 46 173
f 299 297 24
f 71 263 266
f 263 260 266
f 260 72 266
f 263 70 260
f 205 201 49
f 201 181 49
f 186 205 49
f 181 201 200
f 181 182 49
f 284 77 283
f 586 587 152
f 588 586 151
f 20 267 265
f 266 267 71
f 31 417 631
f 631 417 632
f 31 631 639
f 417 31 419
f 641 631 161
f 417 112 632
f 161 631 632
f 418 417 419
f 417 418 112
f 284 345 77
f 542 550 145
f 542 541 524
f 284 174 12
f 48 174 283
f 373 20 265
f 373 265 374
f 609 608 525
f 608 157 622
f 560 559 313
f 636 637 162
f 541 140 524
f 41 542 524
f 358 357 280
f 70 263 264
f 263 262 264
f 176 177 46
f 174 48 173
f 174 173 172
f 538 551 549
f 538 540 539
f 537 541 539
f 232 221 242
f 17 221 232
f 232 242 62
f 231 232 62
f 203 205 55
f 203 55 202
f 201 205 203
f 202 55 217
f 205 206 55
f 204 203 202
f 73 275 292
f 292 290 73
f 272 290 282
f 290 292 291
f 75 290 291
f 290 75 282
f 70 277 259
f 277 70 281
f 277 281 279
f 260 70 259
f 12 174 172
f 104 396 388
f 367 27 354
f 365 27 367
f 354 27 356
f 365 367 366
f 595 27 365
f 318 299 310
f 155 596 597
f 155 597 598
f 596 594 597
f 595 596 155
f 605 595 155
f 180 47 179
f 180 190 47
f 352 372 11
f 11 372 261
f 312 310 24
f 642 636 162
f 636 297 637
f 367 369 97
f 366 367 97
f 369 367 354
f 369 370 97
f 580 579 464
f 580 152 579
f 579 124 464
f 61 230 409
f 230 410 409
f 230 61 229
f 230 229 228
f 76 285 286
f 353 352 276
f 74 353 276
f 288 76 286
f 288 286 283
f 289 288 287
f 203 54 201
f 287 288 77
f 77 288 283
f 286 48 283
f 531 423 113
f 276 11 259
f 11 261 259
f 277 276 259
f 616 158 615
f 516 616 615
f 138 516 615
f 138 615 612
f 509 533 532
f 503 502 504
f 635 79 294
f 635 294 404
f 635 637 79
f 637 635 638
f 638 635 108
f 635 404 108
f 226 61 405
f 61 226 227
f 405 61 409
f 227 226 207
f 48 178 179
f 48 286 178
f 173 48 179
f 534 143 533
f 534 535 143
f 531 534 533
f 533 143 532
f 137 531 533
f 261 372 371
f 13 180 178
f 285 13 178
f 180 13 166
f 13 168 166
f 346 345 284
f 331 327 46
f 46 327 172
f 172 327 326
f 382 620 101
f 442 121 448
f 443 121 442
f 2 226 404
f 294 2 404
f 404 226 405
f 207 226 2
f 550 551 145
f 552 146 551
f 143 550 532
f 552 550 143
f 330 329 328
f 24 636 629
f 94 352 353
f 352 11 276
f 113 428 534
f 428 535 534
f 509 41 511
f 535 552 143
f 550 552 551
f 550 542 532
f 369 95 368
f 326 327 87
f 87 327 329
f 327 331 329
f 581 326 87
f 293 79 298
f 79 297 298
f 296 298 78
f 79 293 294
f 296 293 298
f 598 490 38
f 358 280 22
f 280 279 278
f 357 358 95
f 74 357 353
f 330 328 25
f 567 23 559
f 590 598 38
f 590 604 598
f 598 604 155
f 604 590 154
f 590 591 154
f 604 154 606
f 297 299 298
f 299 318 78
f 298 299 78
f 355 354 356
f 629 636 642
f 312 24 629
f 629 642 160
f 370 362 97
f 362 363 97
f 363 366 97
f 364 363 362
f 362 370 351
f 96 363 364
f 297 636 24
f 162 637 638
f 637 297 79
f 490 488 38
f 598 597 490
f 441 442 119
f 443 442 441
f 443 441 5
f 442 448 445
f 296 78 295
f 326 12 172
f 575 574 364
f 47 175 176
f 175 177 176
f 47 176 179
