# FEM surface export ¡ª frame 795
# Vertices: 642  Faces: 1280
v -0.50291717 0.80429518 -0.01614662
v 0.47792888 0.85932350 -0.02094157
v -0.49789625 0.68843305 0.05093292
v 0.56584883 0.62163252 0.03997214
v 0.05260503 0.31336951 0.85080236
v -0.03401959 0.58073056 0.87314051
v -0.02752043 0.34508520 -0.84726918
v 0.00849327 0.54065323 -0.87306476
v 0.90618533 0.12011208 -0.56042910
v 0.90479630 0.14133275 0.57441723
v -0.89575875 0.04742659 -0.56782383
v -0.92486447 0.04379532 0.55493158
v -0.82255203 0.51361585 0.31907660
v -0.53355491 0.34443492 0.84514326
v -0.29817876 0.77258772 0.47208577
v 0.27424648 0.83128649 0.47999066
v -0.01546367 0.92724574 -0.00667665
v 0.27175176 0.77560961 -0.50357425
v -0.30364746 0.75641984 -0.50943077
v -0.51821387 0.33266798 -0.83965409
v -0.82355434 0.52112490 -0.33751267
v -1.04598594 0.12750830 -0.00459886
v 0.51946247 0.40565652 0.83375627
v 0.80199677 0.61076021 0.32060766
v -0.50071007 0.17309108 0.81707197
v -0.00870464 0.14773600 1.05384552
v -0.78090870 0.36329305 -0.28481677
v -0.78231627 0.39335772 0.33289185
v 0.00330470 0.06792631 -1.06570327
v -0.52305138 0.16651750 -0.80575854
v 0.79889244 0.57551843 -0.32537481
v 0.52963012 0.36130208 -0.83828402
v 0.79248869 0.20620047 0.25165522
v 0.51706505 0.13832019 0.79540610
v 0.36615762 0.61108261 0.53430742
v -0.30336398 0.63822919 0.54127806
v 0.03231979 0.61466151 0.06325834
v -0.23550618 0.49793279 -0.44835067
v 0.30180424 0.66070539 -0.51196134
v 0.50495058 0.17602190 -0.81035155
v 0.82267851 0.32395127 -0.30721894
v 1.04883528 0.17075925 -0.00329820
v -0.68142366 0.68693936 0.14773601
v -0.58436507 0.67285132 0.39883226
v -0.41309074 0.81219792 0.22850670
v -0.75082856 0.22618851 0.71822011
v -0.71118695 0.44581777 0.60120273
v -0.89144737 0.28665397 0.44042930
v -0.18517584 0.69505638 0.70238638
v -0.45197022 0.59519732 0.68534231
v -0.29694334 0.47467098 0.88969886
v -0.16072573 0.87371635 0.23151150
v -0.26804286 0.88990146 -0.02303291
v 0.13002659 0.72401732 0.69290131
v -0.01798158 0.82210237 0.50446671
v 0.23006681 0.92001319 -0.01634419
v 0.12999456 0.91191030 0.24672033
v 0.39015186 0.87582707 0.23109525
v -0.16472428 0.87835312 -0.27455994
v -0.41881594 0.80986589 -0.28044638
v 0.38566917 0.85079473 -0.26457769
v 0.12156062 0.89391267 -0.27317342
v -0.15815938 0.67136621 -0.71249241
v -0.00910923 0.79110426 -0.52762282
v 0.15820429 0.66794676 -0.70839828
v -0.59152931 0.67009634 -0.44670665
v -0.69416356 0.69388074 -0.17118277
v -0.25824103 0.45817855 -0.89344072
v -0.43160400 0.57215697 -0.69720232
v -0.91508597 0.31353998 -0.45883748
v -0.71069813 0.44731641 -0.62276512
v -0.74285179 0.18929736 -0.73851466
v -0.85797501 0.54679513 0.00331046
v -1.01590335 0.09637857 -0.29798430
v -0.98492855 0.33912051 -0.17249320
v -0.98254335 0.30482203 0.18560453
v -1.01949704 0.12029522 0.28121030
v 0.54174167 0.75616384 0.41423601
v 0.65896308 0.76567566 0.15181468
v 0.25055563 0.52079445 0.88054293
v 0.40768179 0.66217887 0.70113289
v 0.88819861 0.39134672 0.45959172
v 0.69296426 0.53797978 0.61455572
v 0.74679017 0.29936624 0.75294447
v -0.27024987 0.25456563 0.98745918
v -0.01081924 0.35141727 0.98361319
v -0.71919495 0.01720684 0.74186474
v -0.57762367 0.07587858 0.90515536
v 0.00313846 0.09698793 0.99867809
v -0.27946043 0.01242669 1.01469481
v -0.19616035 0.26041117 0.85034531
v -0.98435318 0.16720003 0.13384749
v -0.88926494 0.09888963 0.44305626
v -0.91969353 0.15180419 -0.41566217
v -0.99609280 0.16449189 -0.12068259
v -0.67058772 0.58148068 0.16834514
v -0.85898536 0.40760598 -0.00730994
v -0.67172945 0.55235213 -0.13241170
v -0.55846131 0.09559097 -0.90001875
v -0.73055100 0.00017953 -0.69000697
v 0.01585192 0.32978842 -1.02217770
v -0.26815405 0.23464668 -1.00072825
v -0.28219470 0.30512378 -0.84713471
v -0.31056002 0.03086232 -0.92112005
v -0.02197928 0.08579966 -0.90338653
v 0.42783219 0.60027641 -0.69948238
v 0.27221549 0.46313241 -0.89199185
v 0.66514194 0.74710876 -0.16917750
v 0.55699253 0.72040671 -0.42307237
v 0.74030238 0.24069503 -0.71641225
v 0.69620687 0.48830223 -0.61183727
v 0.89895976 0.35559025 -0.46738690
v 0.71008211 0.43072337 0.13540325
v 0.60418528 0.40238181 0.40817356
v 0.46341926 0.64183736 0.30323938
v 0.72754961 0.00603718 0.69329345
v 0.67188245 0.17441110 0.54772747
v 0.89467484 0.12018993 0.40633848
v 0.18013524 0.47142315 0.71865028
v 0.45075038 0.33931541 0.69899130
v 0.32221702 0.24611716 0.87048870
v 0.16940971 0.75429392 0.30618754
v 0.26833990 0.56957990 -0.00411301
v -0.13382988 0.50787485 0.74116504
v 0.04512190 0.65625513 0.60280907
v -0.20348741 0.65662038 0.07192184
v -0.09236322 0.77655923 0.33205190
v -0.40858984 0.70304143 0.29833031
v 0.15216279 0.62956059 -0.26596186
v 0.45342711 0.68440479 -0.22944544
v -0.37154332 0.59856498 -0.19261146
v -0.05448186 0.64217407 -0.18792279
v 0.13634253 0.55726981 -0.72165269
v 0.00870790 0.66703027 -0.50643808
v -0.19239832 0.58431631 -0.72307819
v 0.59596860 0.52978861 -0.42334080
v 0.71694016 0.45780173 -0.14034370
v 0.23107544 0.27539498 -0.85121530
v 0.40145153 0.44177106 -0.67529798
v 0.85764569 0.13111082 -0.45120510
v 0.67410934 0.28004599 -0.57704836
v 0.70920742 0.00000000 -0.70334727
v 0.83699238 0.24675186 -0.02055731
v 1.01467979 0.14374205 -0.30314061
v 0.89266717 0.00977328 -0.25112858
v 0.96076429 0.00000000 0.12061000
v 1.01815081 0.15476494 0.30603501
v 0.27713779 0.02575080 1.00533390
v 0.55064923 0.13011566 0.91284651
v 0.27036613 0.29729632 0.99428904
v -0.58686095 0.50706464 0.44926804
v -0.41550666 0.39837211 0.71060401
v -0.68662471 0.23566499 0.55979633
v -0.44394350 0.44374901 -0.64248395
v -0.57833004 0.54661208 -0.41204643
v -0.70254749 0.28485060 -0.57863444
v 0.55934590 0.06907447 -0.87639248
v 0.27282691 0.03402524 -0.97793615
v 0.28751889 0.24329981 -1.02728343
v 0.97884375 0.39481801 0.18571796
v 0.98268509 0.39594412 -0.17841063
v 0.84710056 0.60939264 -0.00265449
v -0.59851325 0.75513721 0.05812692
v -0.55748475 0.75665015 0.18875515
v -0.46063682 0.81033480 0.11093232
v -0.70948219 0.60221922 0.36053318
v -0.63911837 0.68725610 0.27938101
v -0.75620753 0.60135937 0.23132940
v -0.35349348 0.79648972 0.34791023
v -0.50321865 0.75758737 0.31652102
v -0.44335014 0.73635960 0.43713963
v -0.85616112 0.12765281 0.64145041
v -0.83827561 0.26408911 0.58489895
v -0.92546511 0.18329339 0.51343977
v -0.62782204 0.39685956 0.72126740
v -0.74387687 0.34626821 0.65759289
v -0.65702587 0.28506303 0.79532886
v -0.86964220 0.40284473 0.38368246
v -0.80884778 0.38362911 0.52362436
v -0.77404290 0.48792973 0.46073905
v -0.11940396 0.64518416 0.79354352
v -0.25204194 0.58971179 0.80373633
v -0.16500203 0.52309304 0.88928944
v -0.38497335 0.69948465 0.57970065
v -0.32584429 0.64527613 0.69517195
v -0.24447331 0.73970693 0.59253651
v -0.41520876 0.40143958 0.87821621
v -0.39156085 0.54039991 0.80381536
v -0.49770251 0.47448471 0.78141642
v -0.65367770 0.56025076 0.51032847
v -0.58069605 0.52612346 0.64879471
v -0.52100313 0.64478499 0.54346699
v -0.34289679 0.85692453 0.10282486
v -0.38451213 0.85142463 -0.02032224
v -0.22725913 0.82846749 0.35162446
v -0.29098520 0.84776944 0.22624102
v -0.13855667 0.91513181 -0.01247894
v -0.21220566 0.89494157 0.10301221
v -0.08559112 0.91114414 0.12127396
v 0.04556888 0.66520619 0.78955263
v -0.03160013 0.71431124 0.71148831
v 0.12213118 0.83309549 0.50242847
v 0.05063024 0.77383035 0.60481209
v 0.21187975 0.79016882 0.58899164
v -0.09585944 0.75931436 0.60720116
v -0.15542595 0.79991597 0.49846491
v 0.34925592 0.89759398 -0.01383950
v 0.30660829 0.90680403 0.11667754
v 0.43824813 0.87417185 0.10278648
v 0.05548537 0.92859715 0.11943126
v 0.18052201 0.92571908 0.11842515
v 0.10965106 0.93088335 -0.00939740
v 0.33319926 0.86713034 0.35905978
v 0.25527164 0.90437162 0.24900477
v 0.19628935 0.87544018 0.37024802
v -0.09498131 0.85293496 0.37714934
v 0.05450936 0.87439817 0.38150558
v -0.02135593 0.90046269 0.24868602
v -0.34290320 0.85436773 -0.15747675
v -0.45597917 0.81620795 -0.14757434
v -0.09222308 0.91004461 -0.14219475
v -0.21767151 0.89173532 -0.14513694
v -0.37253830 0.78866524 -0.40339682
v -0.28825760 0.85396588 -0.28440148
v -0.24332167 0.82989609 -0.39965042
v 0.42922014 0.86631709 -0.14078599
v 0.30808404 0.89784670 -0.14529131
v 0.20088589 0.84695250 -0.38730425
v 0.25788349 0.87832111 -0.27432349
v 0.33259970 0.81965399 -0.38986960
v 0.18117276 0.91716844 -0.14552912
v 0.05710233 0.91869527 -0.13543196
v -0.08041968 0.60642076 -0.79987413
v 0.00252898 0.67455178 -0.71899062
v 0.07780255 0.60948271 -0.80369037
v -0.15586109 0.78200161 -0.52330518
v -0.07537035 0.73382568 -0.62414193
v -0.22770506 0.71356934 -0.60948449
v 0.21938945 0.72527403 -0.60993117
v 0.07582642 0.73717403 -0.62265652
v 0.12903827 0.79478765 -0.52042657
v -0.01901749 0.89582974 -0.26655197
v 0.05001043 0.84899050 -0.40250850
v -0.09680644 0.84595442 -0.40630311
v -0.55295354 0.76522326 -0.22761708
v -0.59945339 0.75378799 -0.09902687
v -0.45429656 0.71463192 -0.48578098
v -0.51050526 0.74739361 -0.36266544
v -0.76519704 0.60461068 -0.24801171
v -0.65100271 0.68916166 -0.31049305
v -0.71369380 0.60550100 -0.38910177
v -0.11694439 0.50375587 -0.88815355
v -0.20884189 0.56184238 -0.80725545
v -0.47923774 0.46050009 -0.78557158
v -0.34477061 0.52194667 -0.79910326
v -0.39521337 0.40242252 -0.87779766
v -0.29174230 0.62922245 -0.71404821
v -0.36391222 0.68039024 -0.60944986
v -0.90258372 0.17448699 -0.52050734
v -0.83986455 0.24444620 -0.59904546
v -0.83287054 0.13827945 -0.66241050
v -0.77741462 0.49828526 -0.47778869
v -0.82120323 0.37958813 -0.54571301
v -0.87260056 0.42849478 -0.40914035
v -0.64463735 0.27855495 -0.79178524
v -0.73257470 0.31630909 -0.67189789
v -0.62615722 0.38125125 -0.73727697
v -0.51257128 0.61899209 -0.58389056
v -0.57741565 0.50015259 -0.66194457
v -0.66211367 0.56731695 -0.53270382
v -0.69368595 0.70119405 -0.01009015
v -0.84251970 0.54287797 -0.16550787
v -0.77614385 0.62996650 -0.07886028
v -0.77883732 0.62010568 0.08362743
v -0.84578788 0.53414524 0.15827596
v -0.97669041 0.06342226 -0.43522593
v -0.97371894 0.20147681 -0.39326030
v -1.04464912 0.22067864 -0.08827756
v -1.00956070 0.19832422 -0.22324073
v -1.06436002 0.08460576 -0.13934641
v -0.95771730 0.31910241 -0.31480330
v -0.91115874 0.43505692 -0.25982192
v -0.96794331 0.17842603 0.38414711
v -0.97728443 0.06738326 0.42150432
v -0.92181057 0.41799569 0.25564539
v -0.94073254 0.28691775 0.30985457
v -1.05094564 0.14922029 0.14373450
v -1.01032960 0.18941006 0.24504311
v -1.03349531 0.23589137 0.09152737
v -0.92840964 0.43970317 -0.08306705
v -0.99034441 0.32706800 0.00287352
v -0.93077981 0.43122613 0.09391634
v 0.52389449 0.82692742 0.18608624
v 0.57732528 0.81377083 0.05721809
v 0.40814322 0.80798435 0.45353296
v 0.46525246 0.82021022 0.31795961
v 0.73714930 0.69831413 0.24056409
v 0.60825324 0.76812047 0.28580013
v 0.68021852 0.69536263 0.37727022
v 0.10606994 0.56270802 0.88093853
v 0.18042852 0.64230227 0.79761046
v 0.46462789 0.54372281 0.77754712
v 0.32804781 0.60170501 0.79483026
v 0.38356704 0.46533734 0.86740202
v 0.26286939 0.70091349 0.69393349
v 0.33854750 0.75280005 0.59433907
v 0.90662533 0.26534289 0.52460045
v 0.82756954 0.34068087 0.60863847
v 0.82021594 0.20587008 0.66276574
v 0.75257218 0.58108467 0.47128946
v 0.79168004 0.46072692 0.54735637
v 0.85353947 0.50725293 0.39374605
v 0.64136147 0.35998741 0.81620479
v 0.72266471 0.40911296 0.69213367
v 0.61388952 0.47614995 0.73762870
v 0.47394431 0.72185439 0.56286317
v 0.54830462 0.60643965 0.65130943
v 0.62191564 0.66642553 0.52318513
v -0.15094914 0.42485619 0.96670520
v -0.01676118 0.47296011 0.93696672
v -0.42150363 0.27473313 0.93915009
v -0.29408130 0.36650053 0.96325856
v -0.01814839 0.25088263 1.03845823
v -0.13512617 0.29790983 0.99662554
v -0.13930422 0.16083707 1.03304887
v -0.84735566 0.00135832 0.66928262
v -0.77204382 0.11302224 0.73033690
v -0.53297663 0.04535193 0.88890827
v -0.67600644 0.00625603 0.84426451
v -0.60061038 0.07850690 0.74362087
v -0.67723888 0.14892745 0.82224250
v -0.56311536 0.20920019 0.87932885
v 0.05341082 0.21401113 0.93149465
v -0.08262063 0.16777438 0.93752581
v -0.07777651 0.31716380 0.88849163
v -0.14015116 0.03930814 1.05907845
v -0.13538991 0.06102630 0.99374640
v -0.01124548 0.01582704 1.06466174
v -0.33530661 0.21508238 0.84970069
v -0.22344781 0.15363188 0.94240564
v -0.35154009 0.11916907 0.91467267
v -0.42746711 0.14493243 0.96128029
v -0.42210168 0.00948358 0.98508310
v -0.28617460 0.11300187 1.01484895
v -0.98187900 0.02515421 0.38016742
v -0.90559775 0.00198301 0.51116043
v -1.06905413 0.08400742 0.11970150
v -1.02268744 0.05201700 0.22037499
v -0.84130609 0.23748326 0.38588434
v -0.94142765 0.16629219 0.30097476
v -0.88152188 0.28324464 0.24471888
v -0.89472210 0.01936065 -0.48391363
v -0.98171574 0.01136067 -0.35487890
v -0.90058875 0.25758404 -0.20867534
v -0.93550515 0.13001604 -0.27664855
v -0.84517074 0.26241046 -0.34919679
v -1.03372335 0.05662867 -0.19133809
v -1.06912029 0.05465275 -0.03808738
v -0.57170892 0.57889825 0.12204357
v -0.67378962 0.55376595 0.02708757
v -0.59165692 0.63210350 -0.04235322
v -0.82860100 0.41366410 0.16391954
v -0.78443420 0.49878550 0.09978519
v -0.71281964 0.48412833 0.23599026
v -0.72223902 0.47613227 -0.21181379
v -0.76138830 0.48732740 -0.06322956
v -0.81964177 0.39692613 -0.14180851
v -0.99908954 0.17708305 0.00403138
v -0.93647021 0.30410704 -0.07505634
v -0.90952498 0.30259669 0.07841913
v -0.75532949 0.07457358 -0.76506919
v -0.83929497 0.00052900 -0.64640152
v -0.54740006 0.20936927 -0.88119888
v -0.65763903 0.14302760 -0.83932340
v -0.62194878 0.07599552 -0.74218196
v -0.63718534 0.00000000 -0.81826639
v -0.52125233 0.00153926 -0.84300470
v 0.01599241 0.43689635 -0.94187129
v -0.11633902 0.40763485 -0.96450126
v -0.15041505 0.16023991 -1.05635726
v -0.13370392 0.28939852 -1.01698685
v -0.00391353 0.20343122 -1.06233799
v -0.27488980 0.35970247 -0.95237404
v -0.40056100 0.28075346 -0.93475944
v -0.14886902 0.34470466 -0.84669662
v -0.14123018 0.21297491 -0.87877882
v -0.01798352 0.23629098 -0.87043750
v -0.41201526 0.13976224 -0.90557003
v -0.27557907 0.17831743 -0.91191018
v -0.38080823 0.21227577 -0.82747161
v -0.00952318 0.00000000 -1.00606954
v -0.16813369 0.08526358 -0.94135517
v -0.16931748 0.00727497 -1.05128348
v -0.40219033 0.15189111 -0.96538061
v -0.28888312 0.07109772 -1.06062901
v -0.42692655 0.00015014 -0.94802785
v 0.21310547 0.57731253 -0.80649161
v 0.13982940 0.50165296 -0.89963651
v 0.35656410 0.69314069 -0.60176027
v 0.29484230 0.63812226 -0.70693004
v 0.40972647 0.41502270 -0.88468426
v 0.35601613 0.54013437 -0.80827600
v 0.48303449 0.48175314 -0.78842735
v 0.57364798 0.81552494 -0.09460352
v 0.52699399 0.81075972 -0.21202983
v 0.68808836 0.64827502 -0.37871173
v 0.61583036 0.74308193 -0.29760376
v 0.73818481 0.67342329 -0.25164804
v 0.47463381 0.79286879 -0.34513786
v 0.41513005 0.75320101 -0.46729735
v 0.84523052 0.17283297 -0.66281432
v 0.84213674 0.28250945 -0.59713262
v 0.91017658 0.21962740 -0.50644654
v 0.63484710 0.42074016 -0.73406911
v 0.73442572 0.36706999 -0.66772211
v 0.64752471 0.27949420 -0.78760165
v 0.85350585 0.47334319 -0.39850524
v 0.80962473 0.41887093 -0.54396325
v 0.75975370 0.52765763 -0.48013595
v 0.49867943 0.66330898 -0.56170446
v 0.63932508 0.60851884 -0.52065533
v 0.56279820 0.53915185 -0.66617090
v 0.65651089 0.52752501 0.11652121
v 0.61112225 0.54217964 0.22461566
v 0.50533646 0.65841150 0.16659360
v 0.70994097 0.32448220 0.32136247
v 0.64197600 0.41826785 0.27289069
v 0.74024606 0.31614304 0.17999890
v 0.44172004 0.64090437 0.41507655
v 0.55515021 0.53531981 0.35215595
v 0.51730090 0.51381904 0.47350645
v 0.84264958 0.05387223 0.65993798
v 0.80128008 0.10588774 0.57607716
v 0.92893255 0.02694364 0.50203091
v 0.59969187 0.16118942 0.67328572
v 0.67851740 0.09370171 0.64459366
v 0.61230779 0.06097049 0.76073933
v 0.81701517 0.07410259 0.34255078
v 0.77113551 0.13792749 0.48503089
v 0.73714638 0.18400061 0.39631450
v 0.09464561 0.40404752 0.79901499
v 0.25464913 0.36009198 0.78625894
v 0.19295363 0.30320790 0.86318403
v 0.43107793 0.46931982 0.60589355
v 0.35217476 0.43074843 0.69571167
v 0.29120302 0.53165072 0.65167254
v 0.42843255 0.20206802 0.86139923
v 0.39628083 0.28353456 0.76420623
v 0.50836873 0.25582701 0.73112422
v 0.66373265 0.29531178 0.45309716
v 0.59561539 0.28742257 0.61987507
v 0.55321801 0.37964654 0.55251008
v 0.34704888 0.65464824 0.15183289
v 0.41912705 0.62320536 -0.00152903
v 0.27224007 0.69065690 0.41696110
v 0.32814848 0.71152407 0.30141956
v 0.14471936 0.56090856 0.02827033
v 0.18709555 0.69886148 0.13561115
v 0.08204179 0.65009707 0.18926182
v -0.05872784 0.43066922 0.79627836
v 0.01437099 0.48878798 0.70359474
v -0.14188379 0.66168630 0.54272532
v -0.06097206 0.60430372 0.65859503
v -0.20751953 0.58166689 0.64766681
v 0.13133997 0.58389115 0.65346289
v 0.22214592 0.65467542 0.57244605
v -0.34856105 0.66226381 0.08031937
v -0.29227921 0.77856451 0.18695524
v -0.42857280 0.73870343 0.16844973
v -0.08713543 0.69437528 0.18696174
v -0.14807615 0.83613825 0.17843549
v -0.12388161 0.66060549 0.08545314
v -0.37450495 0.67329162 0.43580231
v -0.27588055 0.77109677 0.30040598
v -0.23018530 0.75904357 0.42245048
v 0.11603046 0.72280782 0.45624390
v -0.04299372 0.74253577 0.47356561
v 0.02393267 0.63687599 0.32344204
v 0.35583484 0.73594004 -0.09011438
v 0.54391140 0.70158148 -0.11019841
v 0.13325644 0.65698969 -0.08460805
v 0.24702598 0.58660525 -0.12667473
v 0.39599565 0.68219048 -0.35607684
v 0.29975560 0.73024929 -0.23591632
v 0.23542000 0.71350068 -0.37239826
v -0.43596435 0.67619139 -0.07686132
v -0.30989552 0.56694990 -0.05050157
v -0.14396611 0.51489270 -0.31545791
v -0.20577273 0.58293515 -0.18659654
v -0.31170639 0.56088901 -0.34826264
v -0.15887785 0.62827992 -0.06855920
v -0.06414663 0.68385112 -0.05970664
v 0.04582327 0.43639818 -0.78888381
v -0.01605858 0.56200135 -0.73714030
v -0.11842779 0.46181262 -0.78648120
v 0.16371712 0.71214712 -0.50379723
v 0.08168957 0.65619785 -0.61989176
v 0.22198740 0.63994265 -0.63605171
v -0.18831806 0.48203403 -0.58958840
v -0.09467653 0.63864934 -0.63426185
v -0.08830923 0.54063451 -0.50717771
v 0.09001507 0.69233638 -0.19205214
v 0.01644954 0.60187668 -0.34269732
v 0.09179819 0.77151215 -0.37268469
v 0.59835613 0.57502437 -0.18644132
v 0.61844265 0.56258827 -0.04654763
v 0.44287628 0.59148240 -0.45761052
v 0.54518789 0.57671118 -0.33007148
v 0.76407015 0.39541298 -0.22091325
v 0.66262662 0.50714320 -0.25405434
v 0.70149350 0.42667243 -0.34927815
v 0.10703167 0.32308623 -0.83957773
v 0.18252353 0.43276015 -0.81790555
v 0.43962568 0.30720323 -0.73653269
v 0.31165782 0.36618769 -0.78036761
v 0.37526846 0.22343422 -0.83509725
v 0.26063296 0.50099009 -0.72247428
v 0.33665648 0.56925762 -0.61166167
v 0.88876355 0.00000000 -0.49210316
v 0.77570766 0.05532561 -0.56105173
v 0.83475542 0.02527243 -0.63500065
v 0.76685756 0.32506210 -0.45488125
v 0.77515972 0.21347238 -0.51002121
v 0.86426318 0.24369188 -0.39699030
v 0.64064968 0.10075081 -0.78017825
v 0.69966394 0.11327095 -0.62967885
v 0.59731948 0.20485020 -0.69604075
v 0.49906975 0.49601176 -0.57060027
v 0.54835832 0.36862007 -0.63384968
v 0.65090078 0.41151729 -0.50358349
v 0.73972911 0.45060718 0.01032307
v 0.83355916 0.29265898 -0.16546981
v 0.80940861 0.36377001 -0.07012627
v 0.77451134 0.33442739 0.06559742
v 0.83921182 0.23489225 0.12234584
v 0.97068942 0.12422688 -0.42161393
v 0.96195138 0.00549096 -0.37695810
v 1.03784096 0.03593203 -0.09883408
v 1.01232374 0.04270963 -0.23609525
v 1.04529119 0.15031075 -0.15639150
v 0.93131977 0.09492234 -0.37202543
v 0.90203273 0.20462409 -0.26383516
v 0.98111802 0.00818589 0.36670345
v 0.95849222 0.13260151 0.43895295
v 0.87964338 0.06239203 0.22664055
v 0.94597220 0.00000000 0.28279230
v 1.04243600 0.16633774 0.14638682
v 1.01053596 0.05196834 0.22034824
v 1.02519667 0.06332907 0.05712736
v 0.87934250 0.12454300 -0.12200906
v 0.92135978 0.00000000 -0.06953852
v 0.89783484 0.10914237 0.06905677
v 0.16653909 0.19315435 0.94498998
v 0.40515843 0.11285129 0.89641523
v 0.28054884 0.12593795 0.92169154
v 0.13705170 0.11544706 1.00896907
v 0.14522587 0.05348911 1.06360996
v 0.76797932 0.14954802 0.75492126
v 0.55970621 0.28653097 0.90864807
v 0.66606128 0.22964905 0.84134352
v 0.65001017 0.07340205 0.80399799
v 0.55420697 0.02166943 0.87172568
v 0.11260009 0.44027132 0.94160938
v 0.12084674 0.21147737 1.03082740
v 0.12437152 0.32686257 1.00272655
v 0.25869292 0.40556449 0.94492120
v 0.39956129 0.34686473 0.92756355
v 0.41408691 0.05877683 0.98540622
v 0.41092420 0.20694841 0.97520339
v 0.27030605 0.15679367 1.05048347
v -0.52871007 0.64347124 0.24492313
v -0.46129099 0.57684302 0.50688255
v -0.52318758 0.62978554 0.39145467
v -0.63078535 0.54879403 0.33105680
v -0.72033602 0.45290315 0.41255340
v -0.17030077 0.42746630 0.79510558
v -0.44576702 0.28258154 0.77413124
v -0.30953684 0.34852669 0.78371137
v -0.26285163 0.45971891 0.71968263
v -0.36543766 0.52628708 0.63740444
v -0.78933597 0.02842827 0.56850517
v -0.76528740 0.29795495 0.45244652
v -0.80372059 0.16988817 0.51555234
v -0.70320809 0.12824610 0.63726360
v -0.60530955 0.20922676 0.70422685
v -0.50864971 0.42811745 0.58691180
v -0.55397385 0.30199319 0.65182769
v -0.63998383 0.37781775 0.50820959
v -0.24475296 0.45705238 -0.78298682
v -0.32009825 0.58694959 -0.55910552
v -0.32496575 0.53793544 -0.69451147
v -0.37240952 0.36021349 -0.76827741
v -0.48080125 0.30861551 -0.74299860
v -0.53994882 0.62922883 -0.17389642
v -0.67073935 0.45976168 -0.35498592
v -0.61487216 0.55949974 -0.27742916
v -0.47134888 0.60287684 -0.30973914
v -0.43522221 0.60099250 -0.44093055
v -0.84918338 0.08621801 -0.55295289
v -0.63637048 0.21108058 -0.72714770
v -0.74283004 0.14661424 -0.64545709
v -0.80941743 0.23909545 -0.49355561
v -0.74843681 0.33763772 -0.42682716
v -0.52540630 0.51576471 -0.55547833
v -0.65171939 0.43668199 -0.50685573
v -0.58015651 0.36889619 -0.64058346
v 0.77261305 0.10742445 -0.73859817
v 0.54669482 0.06112155 -0.88403600
v 0.65443742 0.01093054 -0.82432473
v 0.66497219 0.14256372 -0.80121201
v 0.57745332 0.21678327 -0.89177650
v 0.10556448 0.17917041 -0.87989217
v 0.15474878 0.00246635 -1.01751876
v 0.11684670 0.04969257 -0.94325656
v 0.25269842 0.14731014 -0.89259815
v 0.39099351 0.10661592 -0.90272385
v 0.15326428 0.39031360 -0.96301061
v 0.42264643 0.28659746 -0.94313323
v 0.28498390 0.34978032 -0.95835996
v 0.14089145 0.27038956 -1.01957166
v 0.15050367 0.15487304 -1.06961238
v 0.41692048 0.00639660 -0.97783750
v 0.29846796 0.11469831 -1.04704320
v 0.44074982 0.18376482 -0.97756875
v 0.96882230 0.27629101 0.39370471
v 1.03261149 0.27216303 0.09260465
v 1.02103257 0.27874339 0.25258708
v 0.93791288 0.40816692 0.31924325
v 0.90165734 0.51792520 0.24850021
v 0.95963615 0.24379778 -0.37477738
v 0.89981449 0.49146745 -0.25242481
v 0.94322413 0.37840009 -0.32717812
v 1.00881684 0.27618450 -0.24211513
v 1.04988503 0.28596863 -0.09197282
v 0.67570728 0.75250077 -0.01779704
v 0.83234364 0.63071090 0.15437661
v 0.75888687 0.70259166 0.07726178
v 0.76201004 0.67300874 -0.08930250
v 0.83064252 0.60658509 -0.16894753
v 0.98811960 0.39518318 0.00062609
v 0.92690498 0.51771164 -0.08881117
v 0.93320268 0.51771915 0.08854546
f 330 87 329
f 336 325 26
f 207 208 56
f 464 36 580
f 502 129 504
f 157 624 622
f 308 311 82
f 247 223 248
f 507 483 508
f 331 88 329
f 494 500 497
f 156 601 602
f 591 589 592
f 365 98 596
f 75 281 282
f 152 587 577
f 149 559 560
f 555 121 553
f 530 141 529
f 515 517 139
f 361 594 98
f 250 67 249
f 157 608 609
f 294 293 209
f 317 81 316
f 557 338 26
f 303 305 81
f 530 529 528
f 101 381 382
f 415 418 111
f 192 184 50
f 412 110 411
f 20 384 256
f 131 594 486
f 281 264 282
f 347 287 348
f 28 349 582
f 165 163 1
f 248 250 66
f 617 107 398
f 273 271 274
f 456 115 453
f 558 561 560
f 335 576 91
f 331 177 332
f 116 433 436
f 351 370 92
f 136 511 530
f 239 240 65
f 247 258 19
f 304 23 567
f 148 557 570
f 214 208 58
f 440 426 450
f 268 270 269
f 258 247 268
f 204 202 16
f 466 125 465
f 517 513 133
f 168 275 274
f 275 73 274
f 198 193 53
f 309 308 307
f 510 511 136
f 415 416 110
f 131 490 597
f 473 475 474
f 414 415 111
f 493 495 494
f 496 504 485
f 433 116 432
f 600 375 601
f 240 234 65
f 418 415 412
f 486 361 3
f 567 566 304
f 380 393 29
f 17 199 197
f 491 492 132
f 451 449 435
f 218 217 216
f 623 621 613
f 396 104 395
f 433 439 436
f 628 160 627
f 215 202 217
f 209 207 2
f 427 113 424
f 434 10 544
f 434 433 432
f 199 17 210
f 150 564 565
f 489 491 132
f 275 13 285
f 497 500 134
f 125 466 476
f 578 152 577
f 208 214 211
f 328 88 343
f 356 27 603
f 150 566 567
f 372 100 371
f 190 191 47
f 235 8 398
f 260 261 72
f 422 403 414
f 422 414 111
f 453 454 123
f 349 583 582
f 521 520 519
f 425 453 115
f 616 622 158
f 483 130 508
f 151 586 572
f 212 17 232
f 400 397 402
f 377 396 99
f 41 522 511
f 510 508 505
f 549 547 42
f 475 473 36
f 510 137 509
f 222 221 197
f 430 115 429
f 220 194 1
f 305 54 204
f 621 29 613
f 192 171 184
f 460 335 5
f 88 331 332
f 74 277 279
f 300 301 80
f 390 389 388
f 165 45 164
f 146 549 551
f 291 278 75
f 448 120 445
f 147 543 544
f 607 610 609
f 603 602 356
f 139 529 514
f 333 553 443
f 92 368 347
f 261 260 259
f 300 6 200
f 46 177 331
f 284 283 174
f 301 300 200
f 471 468 474
f 54 305 301
f 302 304 303
f 569 150 567
f 150 569 570
f 294 209 2
f 628 629 160
f 548 543 147
f 147 625 627
f 63 233 234
f 426 427 114
f 41 509 532
f 198 52 196
f 614 105 612
f 147 627 547
f 81 305 306
f 549 548 547
f 54 301 200
f 342 88 332
f 264 281 70
f 193 194 53
f 455 429 456
f 187 321 14
f 479 130 484
f 147 544 625
f 458 456 453
f 304 80 303
f 314 84 313
f 488 503 501
f 321 332 14
f 423 425 424
f 305 204 306
f 341 339 25
f 514 40 516
f 625 628 627
f 340 339 341
f 105 614 391
f 243 228 62
f 318 316 78
f 75 278 279
f 357 355 353
f 238 257 63
f 466 455 476
f 425 423 4
f 448 449 120
f 408 638 108
f 292 275 285
f 22 278 289
f 515 513 517
f 501 503 134
f 622 623 158
f 134 503 504
f 195 216 206
f 163 271 246
f 619 617 620
f 62 228 229
f 163 165 164
f 453 425 454
f 489 132 488
f 82 628 625
f 58 208 209
f 525 608 40
f 626 547 627
f 518 517 498
f 489 487 491
f 557 26 564
f 325 336 344
f 541 145 539
f 40 616 516
f 338 556 89
f 250 248 245
f 139 514 515
f 98 594 596
f 246 220 1
f 112 413 630
f 9 536 413
f 156 600 601
f 332 177 14
f 321 342 332
f 156 606 600
f 584 330 585
f 302 303 81
f 584 87 330
f 330 25 585
f 400 239 65
f 439 440 117
f 95 358 368
f 597 594 131
f 594 361 486
f 246 67 245
f 561 562 149
f 28 364 362
f 55 216 217
f 427 430 114
f 267 20 254
f 556 555 553
f 84 309 558
f 311 310 312
f 609 525 142
f 256 68 255
f 124 460 461
f 82 311 312
f 307 308 82
f 589 135 495
f 527 40 514
f 112 418 412
f 20 256 254
f 258 238 19
f 267 254 269
f 273 272 249
f 392 391 393
f 137 533 509
f 122 455 456
f 9 413 411
f 130 480 505
f 333 443 5
f 527 525 40
f 589 495 385
f 39 496 485
f 223 225 224
f 414 416 415
f 219 222 53
f 145 538 539
f 413 412 411
f 469 468 467
f 183 181 6
f 191 192 50
f 429 35 431
f 292 285 76
f 413 112 412
f 415 110 412
f 43 164 167
f 467 468 126
f 617 101 620
f 450 451 117
f 438 546 545
f 619 620 159
f 17 212 210
f 124 579 576
f 584 153 583
f 460 124 576
f 3 469 467
f 311 308 314
f 6 320 183
f 389 104 388
f 251 250 249
f 194 165 1
f 291 289 278
f 287 77 348
f 238 258 257
f 139 517 518
f 238 236 19
f 223 247 19
f 382 380 29
f 39 518 498
f 361 359 3
f 69 255 257
f 139 518 528
f 33 545 535
f 387 385 7
f 69 268 269
f 477 462 125
f 454 479 123
f 121 555 447
f 451 435 117
f 454 425 4
f 233 252 8
f 124 463 464
f 69 258 268
f 168 167 166
f 583 153 582
f 384 394 102
f 138 512 513
f 57 210 211
f 254 256 255
f 607 609 142
f 324 319 86
f 289 291 76
f 291 292 76
f 384 102 383
f 422 421 420
f 221 17 197
f 383 102 381
f 376 377 99
f 99 373 374
f 386 105 392
f 438 33 440
f 90 341 343
f 281 75 279
f 574 571 96
f 628 82 312
f 221 222 59
f 127 471 474
f 595 605 603
f 551 538 145
f 334 91 340
f 322 324 85
f 305 303 301
f 18 239 399
f 306 204 16
f 199 198 197
f 166 190 180
f 303 80 301
f 267 266 265
f 626 42 547
f 16 215 213
f 349 351 350
f 295 16 213
f 68 379 252
f 250 251 66
f 627 160 626
f 383 68 256
f 343 88 342
f 507 508 136
f 202 215 16
f 197 198 53
f 254 69 269
f 603 605 156
f 418 419 111
f 384 383 256
f 455 122 476
f 203 204 54
f 556 557 148
f 255 68 253
f 313 84 560
f 25 328 341
f 254 255 69
f 603 156 602
f 581 584 583
f 630 632 112
f 163 246 1
f 246 245 220
f 432 116 558
f 499 591 590
f 320 563 86
f 345 93 350
f 306 16 295
f 346 93 345
f 562 568 149
f 604 605 155
f 154 592 593
f 545 552 535
f 511 522 530
f 574 573 571
f 566 150 565
f 361 98 360
f 67 271 273
f 234 235 65
f 208 211 56
f 574 151 573
f 251 270 66
f 398 8 378
f 213 215 214
f 438 440 439
f 315 314 313
f 263 71 262
f 20 373 384
f 496 134 504
f 329 88 328
f 81 306 316
f 555 556 148
f 592 589 103
f 617 619 107
f 227 207 56
f 571 359 96
f 446 466 465
f 206 216 55
f 359 571 469
f 568 148 570
f 34 437 435
f 28 351 349
f 21 272 282
f 113 423 424
f 490 489 488
f 379 68 383
f 210 212 211
f 80 563 300
f 351 92 350
f 326 346 12
f 83 317 318
f 555 148 554
f 212 231 56
f 218 57 217
f 271 67 246
f 195 196 52
f 270 268 66
f 390 592 103
f 148 568 554
f 495 493 7
f 592 390 593
f 357 95 355
f 574 575 151
f 452 120 451
f 154 591 592
f 587 585 577
f 395 394 396
f 93 349 350
f 610 416 611
f 166 44 190
f 315 23 302
f 315 302 317
f 268 247 66
f 606 154 593
f 396 394 99
f 211 212 56
f 370 369 368
f 235 397 65
f 280 278 22
f 83 315 317
f 575 588 151
f 74 279 280
f 385 495 7
f 63 257 253
f 397 235 398
f 214 58 213
f 220 219 194
f 546 146 545
f 236 225 19
f 599 94 602
f 235 233 8
f 102 394 395
f 611 416 32
f 225 223 19
f 139 528 529
f 231 62 229
f 419 406 421
f 451 450 452
f 49 182 185
f 402 397 107
f 52 199 218
f 416 610 110
f 225 236 244
f 107 397 398
f 68 252 253
f 322 85 321
f 182 181 183
f 118 438 439
f 546 438 118
f 348 77 345
f 543 546 118
f 231 212 232
f 610 611 157
f 33 438 545
f 385 386 103
f 479 480 130
f 169 195 15
f 93 583 349
f 15 195 206
f 190 44 192
f 247 248 66
f 146 552 545
f 248 60 245
f 570 557 564
f 274 271 43
f 63 253 233
f 272 21 249
f 507 528 518
f 67 273 249
f 487 467 126
f 196 195 169
f 624 159 623
f 134 496 497
f 132 503 488
f 104 393 395
f 556 553 89
f 355 356 94
f 258 69 257
f 229 61 227
f 56 231 227
f 460 576 335
f 463 124 461
f 394 373 99
f 29 393 391
f 67 250 245
f 193 198 196
f 462 36 464
f 144 633 630
f 141 526 527
f 517 133 498
f 536 144 630
f 100 372 599
f 144 536 537
f 22 289 287
f 578 579 152
f 579 578 576
f 189 188 187
f 60 223 224
f 92 348 350
f 555 554 447
f 396 377 388
f 194 193 165
f 413 536 630
f 372 352 599
f 377 376 375
f 348 345 350
f 105 386 387
f 240 237 234
f 463 462 464
f 135 500 494
f 45 196 169
f 512 612 387
f 245 60 220
f 429 115 456
f 223 60 248
f 288 289 76
f 525 526 142
f 100 599 601
f 613 29 391
f 526 523 520
f 341 328 343
f 631 641 639
f 264 21 282
f 266 72 265
f 106 402 403
f 73 273 274
f 186 206 205
f 381 379 383
f 52 216 195
f 410 18 399
f 290 272 73
f 72 371 374
f 526 525 527
f 115 430 424
f 498 497 496
f 621 382 29
f 543 118 434
f 214 215 57
f 522 141 530
f 511 510 509
f 352 94 599
f 493 512 7
f 90 340 341
f 169 171 170
f 605 604 606
f 219 60 224
f 104 389 392
f 359 469 3
f 186 49 185
f 222 219 224
f 166 167 44
f 428 427 426
f 523 522 524
f 129 502 481
f 50 185 188
f 164 45 170
f 425 115 424
f 33 428 426
f 427 428 113
f 94 356 602
f 515 138 513
f 114 431 452
f 237 236 238
f 215 217 57
f 95 354 355
f 220 60 219
f 515 514 516
f 183 320 319
f 222 197 53
f 559 569 567
f 300 320 6
f 435 436 117
f 96 360 363
f 640 642 641
f 242 243 62
f 140 537 519
f 508 130 505
f 420 410 399
f 537 539 144
f 317 316 318
f 426 114 450
f 186 15 206
f 311 83 310
f 625 544 307
f 544 10 307
f 168 43 167
f 185 182 188
f 369 354 95
f 44 171 192
f 605 606 156
f 548 549 146
f 100 601 375
f 149 568 569
f 381 380 382
f 455 466 35
f 480 479 454
f 543 548 546
f 493 133 513
f 492 472 37
f 477 125 476
f 491 487 126
f 337 336 338
f 588 153 587
f 576 578 91
f 633 161 632
f 96 359 360
f 39 485 483
f 101 617 378
f 193 45 165
f 163 164 43
f 618 624 611
f 507 136 528
f 561 149 560
f 641 162 639
f 116 561 558
f 494 133 493
f 253 252 233
f 63 237 238
f 392 393 104
f 440 450 117
f 93 581 583
f 386 385 387
f 120 449 451
f 421 422 111
f 486 3 467
f 302 81 317
f 633 632 630
f 462 475 36
f 376 99 374
f 489 490 131
f 447 449 448
f 387 612 105
f 106 420 399
f 173 46 172
f 492 491 472
f 316 306 295
f 22 287 347
f 109 410 420
f 507 39 483
f 559 23 313
f 214 57 211
f 196 45 193
f 10 434 432
f 422 106 403
f 626 160 640
f 487 486 467
f 542 41 532
f 400 106 399
f 444 120 452
f 198 199 52
f 475 127 474
f 621 620 382
f 621 623 159
f 450 114 452
f 92 347 348
f 376 100 375
f 434 118 433
f 503 132 502
f 337 90 336
f 537 536 519
f 395 393 380
f 201 54 200
f 171 44 170
f 355 94 353
f 58 296 213
f 422 420 106
f 595 365 596
f 569 568 570
f 523 140 520
f 114 430 431
f 218 210 57
f 304 566 80
f 639 162 638
f 261 371 72
f 548 147 547
f 498 133 497
f 150 570 564
f 222 224 59
f 142 526 520
f 437 436 435
f 141 522 523
f 137 510 505
f 173 179 176
f 559 149 569
f 121 447 448
f 563 320 300
f 102 395 380
f 257 255 253
f 642 162 641
f 83 311 314
f 216 52 218
f 512 493 513
f 23 304 302
f 91 339 340
f 512 138 612
f 159 620 621
f 218 199 210
f 364 28 575
f 83 318 310
f 168 274 43
f 136 530 528
f 140 523 524
f 495 135 494
f 233 235 234
f 566 563 80
f 25 339 577
f 277 74 276
f 475 462 477
f 133 494 497
f 436 437 116
f 389 386 392
f 548 146 546
f 441 460 5
f 10 309 307
f 65 397 400
f 543 434 544
f 640 641 161
f 272 273 73
f 581 93 346
f 419 421 111
f 319 320 86
f 180 179 178
f 127 475 477
f 231 229 227
f 337 334 340
f 136 508 510
f 308 309 84
f 237 63 234
f 447 554 34
f 252 379 378
f 315 83 314
f 608 622 616
f 338 336 26
f 337 338 89
f 13 275 168
f 209 208 207
f 436 439 117
f 628 312 629
f 360 366 363
f 364 574 96
f 359 361 360
f 466 446 35
f 500 501 134
f 406 109 421
f 135 589 591
f 601 599 602
f 340 90 337
f 481 492 37
f 522 41 524
f 78 316 295
f 131 486 487
f 403 32 414
f 634 626 640
f 151 572 573
f 515 516 138
f 8 252 378
f 265 72 374
f 9 521 519
f 538 549 42
f 368 358 347
f 588 587 586
f 458 453 123
f 589 385 103
f 502 492 481
f 32 416 414
f 430 427 424
f 153 585 587
f 540 144 539
f 370 368 92
f 209 293 58
f 428 33 535
f 326 581 346
f 625 307 82
f 575 28 582
f 6 181 200
f 421 109 420
f 553 121 443
f 160 642 640
f 153 584 585
f 309 432 558
f 334 337 89
f 23 315 313
f 271 163 43
f 296 295 213
f 39 498 496
f 118 439 433
f 531 113 534
f 293 296 58
f 28 362 351
f 489 131 487
f 431 444 452
f 84 558 560
f 98 366 360
f 45 169 170
f 379 101 378
f 462 463 125
f 308 84 314
f 10 432 309
f 299 24 310
f 132 492 502
f 512 387 7
f 639 638 408
f 565 323 86
f 59 244 242
f 106 400 402
f 440 33 426
f 566 565 563
f 617 398 378
f 224 225 59
f 410 109 409
f 239 400 399
f 194 219 53
f 358 22 347
f 610 157 609
f 27 595 603
f 479 484 482
f 142 520 521
f 585 25 577
f 339 578 577
f 408 407 406
f 407 109 406
f 31 408 406
f 407 408 108
f 31 639 408
f 419 31 406
f 608 616 40
f 430 429 431
f 455 35 429
f 35 444 431
f 188 51 187
f 188 182 51
f 51 322 187
f 322 51 319
f 51 182 183
f 319 51 183
f 187 322 321
f 322 319 324
f 381 101 379
f 405 407 108
f 404 405 108
f 286 285 178
f 407 405 409
f 109 407 409
f 191 175 47
f 167 164 170
f 50 184 185
f 44 167 170
f 64 244 236
f 243 244 64
f 50 188 189
f 541 542 145
f 442 445 119
f 339 91 578
f 445 446 119
f 624 623 622
f 611 624 157
f 523 526 141
f 141 527 529
f 527 514 529
f 445 120 444
f 446 445 444
f 35 446 444
f 613 614 158
f 158 614 615
f 623 613 158
f 614 613 391
f 614 612 615
f 371 376 374
f 100 376 371
f 479 482 123
f 373 394 384
f 540 42 634
f 633 540 634
f 538 42 540
f 633 634 161
f 161 634 640
f 42 626 634
f 540 633 144
f 557 556 338
f 553 333 89
f 262 21 264
f 251 21 262
f 5 335 333
f 270 251 262
f 21 251 249
f 600 593 30
f 606 593 600
f 600 30 375
f 593 390 30
f 30 377 375
f 390 388 30
f 30 388 377
f 228 243 241
f 470 478 459
f 470 127 478
f 127 477 478
f 184 186 185
f 478 477 476
f 122 478 476
f 357 74 280
f 518 39 507
f 344 342 85
f 325 344 85
f 342 344 343
f 85 342 321
f 344 90 343
f 90 344 336
f 482 129 481
f 482 481 457
f 482 457 123
f 481 37 457
f 449 447 34
f 435 449 34
f 470 472 471
f 472 470 37
f 470 471 127
f 472 126 471
f 126 468 471
f 470 459 37
f 491 126 472
f 504 129 485
f 221 59 242
f 125 463 465
f 437 34 562
f 561 437 562
f 554 568 562
f 34 554 562
f 437 561 116
f 390 103 389
f 103 386 389
f 392 105 391
f 572 586 580
f 572 580 36
f 586 152 580
f 473 572 36
f 244 243 242
f 225 244 59
f 64 240 241
f 240 239 241
f 237 240 64
f 243 64 241
f 236 237 64
f 411 607 521
f 9 411 521
f 110 607 411
f 607 142 521
f 610 607 110
f 171 15 184
f 171 169 15
f 15 186 184
f 87 584 581
f 153 588 582
f 588 575 582
f 381 102 380
f 573 572 473
f 468 469 128
f 474 468 128
f 469 571 128
f 571 573 128
f 573 473 128
f 473 474 128
f 564 323 565
f 26 323 564
f 323 324 86
f 325 323 26
f 325 324 323
f 563 565 86
f 324 325 85
f 410 230 18
f 230 228 18
f 18 228 241
f 18 241 239
f 401 619 618
f 401 402 107
f 403 402 401
f 619 159 618
f 401 618 32
f 619 401 107
f 403 401 32
f 618 611 32
f 159 624 618
f 478 122 459
f 122 458 459
f 37 459 457
f 459 458 457
f 122 456 458
f 457 458 123
f 191 190 192
f 485 129 484
f 129 482 484
f 483 485 484
f 130 483 484
f 189 187 14
f 191 50 189
f 191 189 175
f 189 14 175
f 14 177 175
f 499 501 500
f 501 499 38
f 38 499 590
f 135 499 500
f 488 501 38
f 499 135 591
f 480 454 4
f 284 12 346
f 4 423 506
f 480 4 506
f 423 531 506
f 480 506 505
f 531 137 506
f 506 137 505
f 365 366 98
f 71 270 262
f 270 71 269
f 71 267 269
f 335 334 333
f 333 334 89
f 334 335 91
f 536 9 519
f 465 463 461
f 537 140 541
f 520 140 519
f 119 446 465
f 465 461 119
f 461 441 119
f 460 441 461
f 176 46 173
f 299 297 24
f 71 263 266
f 263 260 266
f 260 72 266
f 263 70 260
f 205 201 49
f 201 181 49
f 186 205 49
f 181 201 200
f 181 182 49
f 284 77 283
f 586 587 152
f 588 586 151
f 20 267 265
f 266 267 71
f 31 417 631
f 631 417 632
f 31 631 639
f 417 31 419
f 641 631 161
f 417 112 632
f 161 631 632
f 418 417 419
f 417 418 112
f 284 345 77
f 542 550 145
f 542 541 524
f 284 174 12
f 48 174 283
f 373 20 265
f 373 265 374
f 609 608 525
f 608 157 622
f 560 559 313
f 636 637 162
f 541 140 524
f 41 542 524
f 358 357 280
f 70 263 264
f 263 262 264
f 176 177 46
f 174 48 173
f 174 173 172
f 538 551 549
f 538 540 539
f 537 541 539
f 232 221 242
f 17 221 232
f 232 242 62
f 231 232 62
f 203 205 55
f 203 55 202
f 201 205 203
f 202 55 217
f 205 206 55
f 204 203 202
f 73 275 292
f 292 290 73
f 272 290 282
f 290 292 291
f 75 290 291
f 290 75 282
f 70 277 259
f 277 70 281
f 277 281 279
f 260 70 259
f 12 174 172
f 104 396 388
f 367 27 354
f 365 27 367
f 354 27 356
f 365 367 366
f 595 27 365
f 318 299 310
f 155 596 597
f 155 597 598
f 596 594 597
f 595 596 155
f 605 595 155
f 180 47 179
f 180 190 47
f 352 372 11
f 11 372 261
f 312 310 24
f 642 636 162
f 636 297 637
f 367 369 97
f 366 367 97
f 369 367 354
f 369 370 97
f 580 579 464
f 580 152 579
f 579 124 464
f 61 230 409
f 230 410 409
f 230 61 229
f 230 229 228
f 76 285 286
f 353 352 276
f 74 353 276
f 288 76 286
f 288 286 283
f 289 288 287
f 203 54 201
f 287 288 77
f 77 288 283
f 286 48 283
f 531 423 113
f 276 11 259
f 11 261 259
f 277 276 259
f 616 158 615
f 516 616 615
f 138 516 615
f 138 615 612
f 509 533 532
f 503 502 504
f 635 79 294
f 635 294 404
f 635 637 79
f 637 635 638
f 638 635 108
f 635 404 108
f 226 61 405
f 61 226 227
f 405 61 409
f 227 226 207
f 48 178 179
f 48 286 178
f 173 48 179
f 534 143 533
f 534 535 143
f 531 534 533
f 533 143 532
f 137 531 533
f 261 372 371
f 13 180 178
f 285 13 178
f 180 13 166
f 13 168 166
f 346 345 284
f 331 327 46
f 46 327 172
f 172 327 326
f 382 620 101
f 442 121 448
f 443 121 442
f 2 226 404
f 294 2 404
f 404 226 405
f 207 226 2
f 550 551 145
f 552 146 551
f 143 550 532
f 552 550 143
f 330 329 328
f 24 636 629
f 94 352 353
f 352 11 276
f 113 428 534
f 428 535 534
f 509 41 511
f 535 552 143
f 550 552 551
f 550 542 532
f 369 95 368
f 326 327 87
f 87 327 329
f 327 331 329
f 581 326 87
f 293 79 298
f 79 297 298
f 296 298 78
f 79 293 294
f 296 293 298
f 598 490 38
f 358 280 22
f 280 279 278
f 357 358 95
f 74 357 353
f 330 328 25
f 567 23 559
f 590 598 38
f 590 604 598
f 598 604 155
f 604 590 154
f 590 591 154
f 604 154 606
f 297 299 298
f 299 318 78
f 298 299 78
f 355 354 356
f 629 636 642
f 312 24 629
f 629 642 160
f 370 362 97
f 362 363 97
f 363 366 97
f 364 363 362
f 362 370 351
f 96 363 364
f 297 636 24
f 162 637 638
f 637 297 79
f 490 488 38
f 598 597 490
f 441 442 119
f 443 442 441
f 443 441 5
f 442 448 445
f 296 78 295
f 326 12 172
f 575 574 364
f 47 175 176
f 175 177 176
f 47 176 179
