# FEM surface export ¡ª frame 152
# Vertices: 642  Faces: 1280
v -0.52578658 1.74531949 0.00000138
v 0.52576846 1.74527895 0.00000034
v -0.54201567 0.04845657 -0.00061926
v 0.54117954 0.04911236 -0.00037500
v -0.00000841 0.36954752 0.85437858
v -0.00001566 1.42048907 0.85083365
v -0.00005427 0.36988258 -0.85489440
v 0.00000078 1.42041934 -0.85077327
v 0.85112894 0.89486367 -0.52603692
v 0.85115033 0.89478701 0.52602613
v -0.85113311 0.89480102 -0.52608371
v -0.85117632 0.89478570 0.52597493
v -0.80918390 1.39470673 0.30907714
v -0.50015628 1.20377266 0.80925810
v -0.30905116 1.70367193 0.50005305
v 0.30905080 1.70367992 0.50005186
v 0.00000065 1.89462030 -0.00000324
v 0.30904406 1.70365453 -0.50003904
v -0.30904844 1.70369375 -0.50005561
v -0.50014001 1.20373964 -0.80925453
v -0.80919641 1.39472425 -0.30907786
v -1.00041533 0.89468873 -0.00001444
v 0.50018972 1.20381558 0.80935103
v 0.80913562 1.39467466 0.30906099
v -0.50085670 0.58603573 0.81041050
v 0.00004237 0.89482296 1.00061965
v -0.81271279 0.39574525 -0.31026801
v -0.81194013 0.39554727 0.31008759
v -0.00001684 0.89485985 -1.00062406
v -0.50077003 0.58606774 -0.81038421
v 0.80913436 1.39465117 -0.30906102
v 0.50010389 1.20372653 -0.80919814
v 0.81286234 0.39528412 0.31025878
v 0.50090140 0.58609718 0.81028658
v 0.31807366 0.08840962 0.51117563
v -0.31600553 0.08761892 0.50973773
v -0.00303089 0.00000000 -0.00336916
v -0.31717145 0.09087911 -0.51208514
v 0.31622279 0.08958797 -0.51274025
v 0.50095248 0.58624148 -0.81048846
v 0.81300670 0.39614367 -0.31043655
v 1.00066769 0.89485818 0.00003383
v -0.69387054 1.59671640 0.16064638
v -0.58786511 1.58289003 0.42540354
v -0.43392941 1.75732422 0.25991434
v -0.70229328 1.05538905 0.69401515
v -0.68834788 1.32002091 0.58791715
v -0.86294931 1.15462518 0.43403018
v -0.16063771 1.58844912 0.70213467
v -0.42540634 1.48247743 0.68829149
v -0.25993961 1.32864535 0.86288863
v -0.16246724 1.84568918 0.26288870
v -0.27327934 1.85656595 -0.00000090
v 0.16064121 1.58842862 0.70212132
v 0.00000334 1.74528396 0.52578002
v 0.27328539 1.85655570 -0.00000041
v 0.16247550 1.84571004 0.26289433
v 0.43392739 1.75730705 0.25991350
v -0.16246642 1.84568548 -0.26288500
v -0.43392882 1.75733900 -0.25991502
v 0.43392390 1.75729549 -0.25991476
v 0.16247170 1.84568036 -0.26288828
v -0.16063114 1.58842981 -0.70212525
v 0.00000634 1.74529064 -0.52578008
v 0.16064636 1.58842576 -0.70212835
v -0.58787048 1.58288574 -0.42537543
v -0.69386142 1.59671783 -0.16064967
v -0.25993520 1.32856679 -0.86282784
v -0.42537874 1.48248446 -0.68829125
v -0.86294967 1.15464127 -0.43402824
v -0.68832761 1.32004881 -0.58793914
v -0.70228696 1.05538237 -0.69405806
v -0.85082406 1.42044556 0.00000434
v -0.96245569 0.89472997 -0.27346632
v -0.95139563 1.15761328 -0.16252533
v -0.95140183 1.15759563 0.16251859
v -0.96248120 0.89473903 0.27339637
v 0.58786166 1.58284068 0.42537749
v 0.69384599 1.59668946 0.16063163
v 0.25997072 1.32851243 0.86285383
v 0.42538035 1.48246455 0.68828076
v 0.86291522 1.15457988 0.43403146
v 0.68836772 1.32004094 0.58789015
v 0.70228279 1.05532622 0.69397831
v -0.26295379 1.05724645 0.95147318
v 0.00000842 1.16799474 0.96223485
v -0.70298231 0.73439491 0.69445598
v -0.52604735 0.89491236 0.85110772
v 0.00005832 0.62173104 0.96339333
v -0.26303652 0.73241740 0.95209670
v -0.26068190 0.46148264 0.86596751
v -0.95202744 0.63213444 0.16268757
v -0.86368448 0.63508290 0.43436563
v -0.86364716 0.63507688 -0.43440592
v -0.95225638 0.63217825 -0.16265945
v -0.70301473 0.19354478 0.16310565
v -0.85474581 0.37035063 -0.00001395
v -0.70436895 0.19368553 -0.16251427
v -0.52604687 0.89474475 -0.85114723
v -0.70274007 0.73432094 -0.69451785
v -0.00000172 1.16802406 -0.96220726
v -0.26294619 1.05723488 -0.95145327
v -0.26080531 0.46132120 -0.86524856
v -0.26309529 0.73242176 -0.95191377
v 0.00006609 0.62193733 -0.96336311
v 0.42537352 1.48242891 -0.68827242
v 0.25996074 1.32856250 -0.86281347
v 0.69384432 1.59668422 -0.16064030
v 0.58784944 1.58283460 -0.42535770
v 0.70228994 1.05536807 -0.69402361
v 0.68833512 1.32002068 -0.58791888
v 0.86289406 1.15458441 -0.43398833
v 0.70464784 0.19299585 0.16293663
v 0.59634417 0.20753823 0.43100420
v 0.44835007 0.03940235 0.26889405
v 0.70274204 0.73430490 0.69446361
v 0.69029468 0.47010919 0.58957368
v 0.86371547 0.63507015 0.43429893
v 0.16289784 0.20251527 0.71100825
v 0.42825496 0.30804014 0.69294614
v 0.26042083 0.46177524 0.86540097
v 0.16995309 0.00000000 0.27631828
v 0.28841636 0.00000000 -0.00071597
v -0.16356549 0.20191652 0.71022248
v -0.00019915 0.05393134 0.54365867
v -0.28793058 0.00000000 0.00082750
v -0.16988018 0.00000000 0.27429757
v -0.44700387 0.04101706 0.26721129
v 0.16997798 0.00000000 -0.27078134
v 0.44498807 0.03854202 -0.26807508
v -0.44955537 0.04095542 -0.26837984
v -0.16919430 0.00000000 -0.27365661
v 0.16279846 0.20181292 -0.71170652
v 0.00044438 0.04905383 -0.53794217
v -0.16160041 0.20058480 -0.71152520
v 0.59567273 0.20661484 -0.43042317
v 0.70426273 0.19297552 -0.16332982
v 0.26094240 0.46136123 -0.86524093
v 0.42806813 0.30763885 -0.69260317
v 0.86390573 0.63541996 -0.43452150
v 0.69012356 0.47027037 -0.58956546
v 0.70273244 0.73438787 -0.69453859
v 0.85450441 0.36952201 -0.00002072
v 0.96254373 0.89482462 -0.27346349
v 0.95225132 0.63219672 -0.16257812
v 0.95198423 0.63204503 0.16251408
v 0.96231532 0.89471346 0.27339983
v 0.26314020 0.73246008 0.95192665
v 0.52602637 0.89477360 0.85100710
v 0.26297680 1.05714285 0.95147407
v -0.59509498 0.20656490 0.43080044
v -0.42909414 0.30762208 0.69341803
v -0.69025946 0.46971518 0.58934426
v -0.42883182 0.30751196 -0.69452226
v -0.59585357 0.20808321 -0.43041706
v -0.69049001 0.46990034 -0.58982879
v 0.52602750 0.89481539 -0.85114110
v 0.26310617 0.73254812 -0.95202643
v 0.26299760 1.05725193 -0.95145446
v 0.95132869 1.15756214 0.16250862
v 0.95129853 1.15756667 -0.16250840
v 0.85077900 1.42039585 -0.00000211
v -0.61570680 1.67851782 0.08110130
v -0.57130760 1.68732214 0.21304823
v -0.48447952 1.75958288 0.13121450
v -0.70725864 1.49621451 0.37181693
v -0.64749146 1.59700596 0.29605946
v -0.75875860 1.50149238 0.23711488
v -0.37507516 1.73856282 0.38365400
v -0.51616746 1.67811763 0.34619877
v -0.45403436 1.65259922 0.46848792
v -0.78422827 0.97588056 0.61589259
v -0.79292351 1.10778654 0.57143319
v -0.86526197 1.02592409 0.48461378
v -0.60165411 1.26644778 0.70726979
v -0.70251435 1.19072676 0.64757949
v -0.60699588 1.13181055 0.75880420
v -0.84414303 1.27832890 0.37514019
v -0.78365904 1.24088001 0.51625443
v -0.75809550 1.36310756 0.45406830
v -0.08109576 1.51034093 0.78395784
v -0.21305315 1.46594965 0.79279047
v -0.13121830 1.37915695 0.86513078
v -0.37178496 1.60177159 0.60157675
v -0.29604289 1.54209411 0.70240724
v -0.23710895 1.65330303 0.60689217
v -0.38371274 1.26983190 0.84415680
v -0.34623006 1.41086888 0.78362221
v -0.46854779 1.34873199 0.75811863
v -0.64671165 1.45895851 0.51349157
v -0.56437707 1.40808702 0.64669621
v -0.51344037 1.54126489 0.56432992
v -0.35825679 1.81894195 0.13166977
v -0.40338272 1.80967677 0.00000498
v -0.23868966 1.78565049 0.38622904
v -0.30128348 1.81088138 0.26410580
v -0.13795950 1.88508546 -0.00000147
v -0.22012831 1.86101961 0.13280012
v -0.08224592 1.88233054 0.13307649
v 0.08109819 1.51032758 0.78392762
v 0.00000843 1.59757590 0.71135467
v 0.15644526 1.73480785 0.51930314
v 0.08115329 1.67484522 0.62029123
v 0.23710798 1.65329385 0.60688549
v -0.08113580 1.67484784 0.62029552
v -0.15643921 1.73483205 0.51931185
v 0.40338764 1.80965698 0.00000025
v 0.35825926 1.81892478 0.13166593
v 0.48447335 1.75955582 0.13120702
v 0.08225100 1.88231301 0.13307957
v 0.22013731 1.86103427 0.13280423
v 0.13796632 1.88508129 -0.00000032
v 0.37507695 1.73854601 0.38364181
v 0.30129287 1.81088972 0.26410809
v 0.23869425 1.78563845 0.38622019
v -0.08232297 1.80762661 0.39965090
v 0.08232550 1.80761111 0.39963058
v 0.00000192 1.85850167 0.26642579
v -0.35825083 1.81894040 -0.13166425
v -0.48448130 1.75958180 -0.13121074
v -0.08224627 1.88231683 -0.13308230
v -0.22013092 1.86103070 -0.13280439
v -0.37507135 1.73857272 -0.38365158
v -0.30127713 1.81088185 -0.26410070
v -0.23869520 1.78565228 -0.38621607
v 0.48448101 1.75956523 -0.13121051
v 0.35826111 1.81893051 -0.13166225
v 0.23869768 1.78563535 -0.38621613
v 0.30128208 1.81086814 -0.26410410
v 0.37506843 1.73853934 -0.38364476
v 0.22013164 1.86102271 -0.13280267
v 0.08224721 1.88231909 -0.13308501
v -0.08109388 1.51030767 -0.78394175
v 0.00000408 1.59755325 -0.71137100
v 0.08110312 1.51027966 -0.78393120
v -0.15644322 1.73481929 -0.51930636
v -0.08113577 1.67485929 -0.62030882
v -0.23710364 1.65330994 -0.60688680
v 0.23711273 1.65328705 -0.60687935
v 0.08116173 1.67486036 -0.62030542
v 0.15645327 1.73480809 -0.51929474
v 0.00000119 1.85848999 -0.26642475
v 0.08233342 1.80761218 -0.39963078
v -0.08232740 1.80762112 -0.39964047
v -0.57130319 1.68732190 -0.21304794
v -0.61571246 1.67851877 -0.08109231
v -0.45403641 1.65260208 -0.46848339
v -0.51617742 1.67813587 -0.34619576
v -0.75878406 1.50154161 -0.23713620
v -0.64749789 1.59699917 -0.29604459
v -0.70723879 1.49620700 -0.37180531
v -0.13122164 1.37914634 -0.86508179
v -0.21304539 1.46592653 -0.79277712
v -0.46851915 1.34870005 -0.75808072
v -0.34619889 1.41082358 -0.78358966
v -0.38370448 1.26977408 -0.84409422
v -0.29603496 1.54209363 -0.70241767
v -0.37178060 1.60179484 -0.60157996
v -0.86536866 1.02598929 -0.48467353
v -0.79298502 1.10785091 -0.57150203
v -0.78419614 0.97586966 -0.61597204
v -0.75808877 1.36315238 -0.45409790
v -0.78368366 1.24092269 -0.51628375
v -0.84414703 1.27835917 -0.37513092
v -0.60702634 1.13184106 -0.75894022
v -0.70253038 1.19074523 -0.64762789
v -0.60164148 1.26643443 -0.70729381
v -0.51343411 1.54125917 -0.56434381
v -0.56438035 1.40808725 -0.64673322
v -0.64668018 1.45895207 -0.51345241
v -0.70300651 1.60597765 0.00000679
v -0.84036630 1.41399205 -0.15647668
v -0.78033143 1.51493943 -0.08115149
v -0.78030872 1.51491272 0.08115273
v -0.84031880 1.41395152 0.15646057
v -0.91557401 0.89476794 -0.40361080
v -0.92475098 1.02643299 -0.35837567
v -0.98811251 1.02779484 -0.08224659
v -0.96676517 1.02749920 -0.22017229
v -0.99098754 0.89471465 -0.13801862
v -0.91649705 1.15882254 -0.30133882
v -0.89123994 1.28092480 -0.23873515
v -0.92473668 1.02641726 0.35839805
v -0.91561890 0.89477515 0.40360031
v -0.89126396 1.28092504 0.23874177
v -0.91657138 1.15884066 0.30136639
v -0.99096346 0.89473182 0.13802318
v -0.96683306 1.02750719 0.22021563
v -0.98804927 1.02776968 0.08228839
v -0.91326231 1.29434943 -0.08234753
v -0.96419764 1.16114008 0.00001772
v -0.91323739 1.29434407 0.08234193
v 0.57129651 1.68730140 0.21304068
v 0.61568177 1.67847693 0.08108540
v 0.45403460 1.65258443 0.46848133
v 0.51616710 1.67810559 0.34618500
v 0.75873756 1.50147223 0.23711145
v 0.64748341 1.59696674 0.29604119
v 0.70719856 1.49616051 0.37179223
v 0.13123573 1.37913322 0.86514336
v 0.21306038 1.46590424 0.79276133
v 0.46854520 1.34876442 0.75814390
v 0.34620082 1.41079497 0.78360146
v 0.38370708 1.26971376 0.84412634
v 0.29602498 1.54205585 0.70239300
v 0.37177983 1.60174346 0.60155380
v 0.86524230 1.02589166 0.48457909
v 0.79288125 1.10770202 0.57137525
v 0.78418452 0.97583801 0.61588979
v 0.75807422 1.36311948 0.45405525
v 0.78365076 1.24084759 0.51623863
v 0.84409177 1.27832007 0.37511817
v 0.60706639 1.13186729 0.75892597
v 0.70249718 1.19069862 0.64751261
v 0.60172522 1.26652753 0.70730782
v 0.51344538 1.54123473 0.56432641
v 0.56436533 1.40808725 0.64667642
v 0.64667076 1.45892763 0.51344132
v -0.13167103 1.25295925 0.92458582
v 0.00003602 1.29806590 0.91528004
v -0.38630852 1.13344419 0.89130062
v -0.26416513 1.19603658 0.91654080
v 0.00000106 1.03272474 0.99086273
v -0.13282000 1.11484647 0.96673763
v -0.13312566 0.97698027 0.98817402
v -0.78453201 0.81377316 0.61601776
v -0.71178514 0.89487332 0.70328856
v -0.51987088 0.73848575 0.84116983
v -0.62077755 0.81382340 0.78072697
v -0.60778767 0.65795368 0.75981766
v -0.62046748 0.97591347 0.78046221
v -0.51944762 1.05120289 0.84043396
v 0.00018298 0.49195343 0.91721147
v -0.13179177 0.53693968 0.92623430
v -0.13155460 0.41085458 0.86830038
v -0.13309099 0.81257397 0.98838019
v -0.13286220 0.67479765 0.96772152
v 0.00003640 0.75695699 0.99135190
v -0.38473907 0.52041215 0.84622449
v -0.26445937 0.59386683 0.91796285
v -0.38666537 0.65638661 0.89230889
v -0.39983141 0.97709489 0.91343319
v -0.39997819 0.81258202 0.91392022
v -0.26653978 0.89481038 0.96457756
v -0.92496336 0.76315320 0.35842216
v -0.86565506 0.76357889 0.48474124
v -0.98850685 0.76179594 0.08235234
v -0.96714807 0.76203305 0.22031371
v -0.84582561 0.51167566 0.37587717
v -0.91715604 0.63083094 0.30157930
v -0.89267677 0.50907397 0.23909821
v -0.86555183 0.76366448 -0.48484701
v -0.92511058 0.76320279 -0.35860315
v -0.89303213 0.50919586 -0.23918313
v -0.91748226 0.63096255 -0.30159745
v -0.84558821 0.51168752 -0.37564623
v -0.96731293 0.76207298 -0.22033814
v -0.98852217 0.76171994 -0.08231235
v -0.62813646 0.11201680 0.08146926
v -0.71226919 0.18498696 0.00031600
v -0.62860107 0.11256959 -0.08362482
v -0.84371853 0.37669945 0.15681386
v -0.78662866 0.27572080 0.08193141
v -0.76499206 0.28888634 0.23865612
v -0.76473802 0.28876436 -0.23903027
v -0.78767633 0.27536985 -0.08177160
v -0.84409416 0.37646016 -0.15739891
v -0.96504170 0.62862748 0.00005080
v -0.91494983 0.49580565 -0.08261149
v -0.91513640 0.49581510 0.08234870
v -0.71164811 0.89484721 -0.70328170
v -0.78441811 0.81376320 -0.61615509
v -0.51950902 1.05111849 -0.84047449
v -0.62053907 0.97590178 -0.78051984
v -0.60763627 0.65792030 -0.75971538
v -0.62067592 0.81370789 -0.78079790
v -0.51967889 0.73837662 -0.84089464
v 0.00002165 1.29808009 -0.91522449
v -0.13166288 1.25297678 -0.92453045
v -0.13315438 0.97703868 -0.98814428
v -0.13283093 1.11488879 -0.96673197
v -0.00001339 1.03277791 -0.99087757
v -0.26414543 1.19600403 -0.91654295
v -0.38633725 1.13344812 -0.89130318
v -0.13183907 0.41084206 -0.86856627
v -0.13203503 0.53696352 -0.92628688
v 0.00002243 0.49209386 -0.91759962
v -0.38657683 0.65621763 -0.89203674
v -0.26452664 0.59388453 -0.91774237
v -0.38457114 0.52006519 -0.84595996
v 0.00000959 0.75697166 -0.99132949
v -0.13289794 0.67488396 -0.96729606
v -0.13318062 0.81261188 -0.98837191
v -0.39981902 0.97716445 -0.91351283
v -0.26656204 0.89481515 -0.96436912
v -0.39993963 0.81255656 -0.91375697
v 0.21306142 1.46590722 -0.79274976
v 0.13123251 1.37912405 -0.86507052
v 0.37179345 1.60174680 -0.60156453
v 0.29604411 1.54205871 -0.70239031
v 0.38369420 1.26971686 -0.84406561
v 0.34620699 1.41076481 -0.78354907
v 0.46850654 1.34865677 -0.75804639
v 0.61569190 1.67848420 -0.08109716
v 0.57130182 1.68729520 -0.21303909
v 0.70720929 1.49615693 -0.37178701
v 0.64748144 1.59695566 -0.29603219
v 0.75875318 1.50147665 -0.23711428
v 0.51616997 1.67808592 -0.34617421
v 0.45403174 1.65257883 -0.46848220
v 0.78417802 0.97590798 -0.61589509
v 0.79292953 1.10780883 -0.57146162
v 0.86528891 1.02600574 -0.48467240
v 0.60162020 1.26643896 -0.70723569
v 0.70248204 1.19068909 -0.64757770
v 0.60701150 1.13184738 -0.75889987
v 0.84405661 1.27829039 -0.37510392
v 0.78365660 1.24086297 -0.51624256
v 0.75804329 1.36311042 -0.45406374
v 0.51342803 1.54120851 -0.56431597
v 0.64665687 1.45891535 -0.51344573
v 0.56433898 1.40804327 -0.64667177
v 0.62887204 0.11365193 0.08365266
v 0.58497709 0.10417464 0.21892098
v 0.49911964 0.03758635 0.13480195
v 0.71269518 0.29440489 0.37454569
v 0.65671766 0.19366190 0.30006716
v 0.76448941 0.28855559 0.23878679
v 0.38655651 0.05468986 0.39259472
v 0.52793145 0.11362408 0.35439274
v 0.46364364 0.13831374 0.47799221
v 0.78445286 0.81374478 0.61614609
v 0.79364926 0.68192917 0.57192189
v 0.86572695 0.76365376 0.48485494
v 0.60281438 0.52355379 0.70857912
v 0.70353806 0.59917861 0.64847386
v 0.60768163 0.65796202 0.75967628
v 0.84555513 0.51163340 0.37579796
v 0.78479636 0.54906058 0.51685274
v 0.76031029 0.42681158 0.45539546
v 0.08146953 0.28000405 0.78964001
v 0.21422990 0.32469141 0.79774678
v 0.13147324 0.41121495 0.86832917
v 0.37672567 0.18813877 0.61025649
v 0.29914281 0.24896561 0.70966554
v 0.24244079 0.13784893 0.61817473
v 0.38427311 0.52036220 0.84590060
v 0.34762007 0.37969449 0.78721803
v 0.46980932 0.44157621 0.76057982
v 0.65090454 0.33140031 0.51690048
v 0.56694525 0.38236457 0.64981002
v 0.51865131 0.24961613 0.57032096
v 0.37054515 0.00000000 0.13524105
v 0.41474688 0.00369404 0.00048989
v 0.24744302 0.01904762 0.39849326
v 0.31316009 0.00000000 0.27017877
v 0.14421469 0.00000000 -0.00173543
v 0.23078704 0.00000000 0.13890436
v 0.08786748 0.00000000 0.13705188
v -0.08220695 0.27985728 0.78950840
v -0.00021938 0.19293283 0.72037148
v -0.16125506 0.05960731 0.53381008
v -0.08306924 0.11695749 0.63386524
v -0.24160646 0.13793333 0.61688560
v 0.08324968 0.11569547 0.63452697
v 0.16253634 0.05920852 0.53571230
v -0.42109579 0.00039889 0.00121811
v -0.37563670 0.00036447 0.14027642
v -0.50056636 0.03757311 0.13394932
v -0.08712697 0.00000000 0.13647451
v -0.23322308 0.00000000 0.14338693
v -0.14735961 0.00000000 -0.00050734
v -0.38350341 0.05346164 0.39160115
v -0.31195971 0.00000000 0.27518606
v -0.24866790 0.01591031 0.39887226
v 0.08320764 0.00736433 0.41598195
v -0.08605026 0.00539700 0.41737095
v -0.00033934 0.00000000 0.27412346
v 0.37118822 0.00000000 -0.13524932
v 0.49616450 0.03877778 -0.13492976
v 0.08672366 0.00000000 -0.14112177
v 0.23380964 0.00000000 -0.13804962
v 0.38477153 0.05407028 -0.39636031
v 0.31032676 0.00034140 -0.27372393
v 0.24715440 0.01659589 -0.39864337
v -0.49656096 0.03854247 -0.13471062
v -0.37013036 0.00000000 -0.13444562
v -0.24696477 0.02236609 -0.39760220
v -0.31472012 0.00347396 -0.27112815
v -0.38626039 0.05680970 -0.39568728
v -0.23397051 0.00000000 -0.14120722
v -0.08756451 0.00000000 -0.14338486
v 0.08175282 0.28042313 -0.79038012
v 0.00015029 0.19186407 -0.72094929
v -0.08148722 0.27989537 -0.78981584
v 0.16070227 0.05886583 -0.53300250
v 0.08268186 0.11691043 -0.63175082
v 0.24066950 0.13715538 -0.61930716
v -0.24132113 0.13898942 -0.61918008
v -0.08202869 0.11339086 -0.63374209
v -0.16149554 0.06096174 -0.53280413
v 0.00286210 0.00000000 -0.28159511
v -0.08444279 0.00387962 -0.41189340
v 0.08911547 0.00061425 -0.40953791
v 0.58453214 0.10326947 -0.21658769
v 0.62890500 0.11186535 -0.08203527
v 0.46344572 0.13740371 -0.47664288
v 0.52478755 0.11138818 -0.35220167
v 0.76534790 0.28883603 -0.23920524
v 0.65557742 0.19245090 -0.29996130
v 0.71253693 0.29440713 -0.37421519
v 0.13199551 0.41107243 -0.86898816
v 0.21474329 0.32457012 -0.79736608
v 0.47002509 0.44149080 -0.76032549
v 0.34792361 0.37937543 -0.78697228
v 0.38460293 0.52022368 -0.84581482
v 0.29890430 0.24817383 -0.70878172
v 0.37647128 0.18837126 -0.60947746
v 0.86572725 0.76387227 -0.48492852
v 0.79357719 0.68216211 -0.57203102
v 0.78443980 0.81390274 -0.61616546
v 0.76100892 0.42736685 -0.45595577
v 0.78494632 0.54931170 -0.51723975
v 0.84628856 0.51214164 -0.37602586
v 0.60764766 0.65794158 -0.75965720
v 0.70338464 0.59916943 -0.64847392
v 0.60277659 0.52370006 -0.70865870
v 0.51793313 0.24855436 -0.56982738
v 0.56662303 0.38235024 -0.64950746
v 0.65028769 0.33174938 -0.51640528
v 0.71366549 0.18411890 -0.00029327
v 0.84417695 0.37640882 -0.15703891
v 0.78679913 0.27510580 -0.08211665
v 0.78692770 0.27490953 0.08156284
v 0.84398288 0.37587866 0.15703157
v 0.91558951 0.89488184 -0.40360633
v 0.92513531 0.76323426 -0.35853565
v 0.98853368 0.76186109 -0.08229692
v 0.96728379 0.76216316 -0.22029388
v 0.99107057 0.89491087 -0.13803466
v 0.91751438 0.63093531 -0.30162171
v 0.89339107 0.50930405 -0.23914868
v 0.92494172 0.76313162 0.35846615
v 0.91550303 0.89474988 0.40352696
v 0.89297736 0.50907040 0.23904435
v 0.91721058 0.63079250 0.30147851
v 0.99094373 0.89478022 0.13813385
v 0.96696985 0.76197141 0.22024529
v 0.98852068 0.76186377 0.08232774
v 0.91519541 0.49573362 -0.08236383
v 0.96486574 0.62864316 0.00002035
v 0.91506892 0.49551004 0.08247003
v 0.13200599 0.53708136 0.92638671
v 0.38671017 0.65635067 0.89193952
v 0.26454318 0.59395200 0.91773701
v 0.13299292 0.67487675 0.96758103
v 0.13319917 0.81254846 0.98837662
v 0.71169937 0.89483523 0.70326954
v 0.51952368 1.05119872 0.84050822
v 0.62053591 0.97586489 0.78049815
v 0.62071973 0.81372964 0.78071642
v 0.51980466 0.73851347 0.84100741
v 0.13169119 1.25284481 0.92450202
v 0.13316236 0.97696531 0.98819292
v 0.13283427 1.11480367 0.96675706
v 0.26416999 1.19593382 0.91657412
v 0.38632447 1.13335359 0.89130276
v 0.39983216 0.81247479 0.91343939
v 0.39985251 0.97708535 0.91348553
v 0.26656681 0.89470273 0.96437293
v -0.58296275 0.10471645 0.21680768
v -0.46118566 0.13672568 0.47550073
v -0.52577209 0.11262681 0.35350260
v -0.65624267 0.19316681 0.30051142
v -0.71201473 0.29394406 0.37472013
v -0.21503752 0.32453600 0.79809833
v -0.47061202 0.44131896 0.76084691
v -0.34835494 0.37985370 0.78760350
v -0.29959804 0.24860218 0.70892453
v -0.37725127 0.18829343 0.60973752
v -0.79359990 0.68192202 0.57182491
v -0.76066220 0.42667571 0.45557833
v -0.78495336 0.54882342 0.51699984
v -0.70364684 0.59905863 0.64829433
v -0.60295320 0.52339590 0.70881695
v -0.51897532 0.24809527 0.56954658
v -0.56745106 0.38155490 0.64979380
v -0.65008420 0.33080921 0.51636261
v -0.21420841 0.32411760 -0.79733938
v -0.37740761 0.18943210 -0.61086023
v -0.29928932 0.24750248 -0.71069133
v -0.34775299 0.37934625 -0.78748149
v -0.47018483 0.44128996 -0.76076096
v -0.58505678 0.10487638 -0.21701248
v -0.71333361 0.29413682 -0.37468949
v -0.65661347 0.19359808 -0.30006170
v -0.52775401 0.11310761 -0.35291514
v -0.46403018 0.13917199 -0.47732881
v -0.79352540 0.68186277 -0.57179779
v -0.60277063 0.52363783 -0.70863479
v -0.70357436 0.59903866 -0.64852232
v -0.78506619 0.54893905 -0.51724946
v -0.76041663 0.42721194 -0.45550543
v -0.51863736 0.24922213 -0.56984496
v -0.65092576 0.33111298 -0.51700693
v -0.56686342 0.38200122 -0.65003270
v 0.71170110 0.89488024 -0.70332462
v 0.51976889 0.73848319 -0.84098941
v 0.62068921 0.81380188 -0.78081924
v 0.62052065 0.97595865 -0.78054839
v 0.51943547 1.05117249 -0.84045005
v 0.13209215 0.53719717 -0.92661017
v 0.13315491 0.81260192 -0.98834836
v 0.13302498 0.67500633 -0.96777511
v 0.26460299 0.59394020 -0.91789818
v 0.38668594 0.65636212 -0.89216495
v 0.13170046 1.25293517 -0.92450511
v 0.38630715 1.13336885 -0.89120603
v 0.26416394 1.19595706 -0.91643673
v 0.13284840 1.11488056 -0.96671540
v 0.13309766 0.97705543 -0.98822618
v 0.39993268 0.81257600 -0.91368383
v 0.26654264 0.89484829 -0.96436614
v 0.39980558 0.97702926 -0.91332078
v 0.92460346 1.02635562 0.35834160
v 0.98808479 1.02782142 0.08236490
v 0.96666735 1.02748883 0.22020386
v 0.91655272 1.15880859 0.30136293
v 0.89122856 1.28090429 0.23870733
v 0.92468417 1.02643728 -0.35837674
v 0.89116389 1.28086483 -0.23872350
v 0.91648656 1.15880108 -0.30133665
v 0.96678531 1.02756798 -0.22024465
v 0.98812670 1.02788901 -0.08222067
v 0.70298511 1.60593808 -0.00000863
v 0.84030712 1.41394401 0.15644673
v 0.78030002 1.51489973 0.08114556
v 0.78029680 1.51489079 -0.08114629
v 0.84030992 1.41391528 -0.15645587
v 0.96414876 1.16113234 0.00001040
v 0.91315871 1.29428101 -0.08234894
v 0.91317761 1.29429674 0.08233444
f 330 87 329
f 336 325 26
f 207 208 56
f 464 36 580
f 502 129 504
f 157 624 622
f 308 311 82
f 247 223 248
f 507 483 508
f 331 88 329
f 494 500 497
f 156 601 602
f 591 589 592
f 365 98 596
f 75 281 282
f 152 587 577
f 149 559 560
f 555 121 553
f 530 141 529
f 515 517 139
f 361 594 98
f 250 67 249
f 157 608 609
f 294 293 209
f 317 81 316
f 557 338 26
f 303 305 81
f 530 529 528
f 101 381 382
f 415 418 111
f 192 184 50
f 412 110 411
f 20 384 256
f 131 594 486
f 281 264 282
f 347 287 348
f 28 349 582
f 165 163 1
f 248 250 66
f 617 107 398
f 273 271 274
f 456 115 453
f 558 561 560
f 335 576 91
f 331 177 332
f 116 433 436
f 351 370 92
f 136 511 530
f 239 240 65
f 247 258 19
f 304 23 567
f 148 557 570
f 214 208 58
f 440 426 450
f 268 270 269
f 258 247 268
f 204 202 16
f 466 125 465
f 517 513 133
f 168 275 274
f 275 73 274
f 198 193 53
f 309 308 307
f 510 511 136
f 415 416 110
f 131 490 597
f 473 475 474
f 414 415 111
f 493 495 494
f 496 504 485
f 433 116 432
f 600 375 601
f 240 234 65
f 418 415 412
f 486 361 3
f 567 566 304
f 380 393 29
f 17 199 197
f 491 492 132
f 451 449 435
f 218 217 216
f 623 621 613
f 396 104 395
f 433 439 436
f 628 160 627
f 215 202 217
f 209 207 2
f 427 113 424
f 434 10 544
f 434 433 432
f 199 17 210
f 150 564 565
f 489 491 132
f 275 13 285
f 497 500 134
f 125 466 476
f 578 152 577
f 208 214 211
f 328 88 343
f 356 27 603
f 150 566 567
f 372 100 371
f 190 191 47
f 235 8 398
f 260 261 72
f 422 403 414
f 422 414 111
f 453 454 123
f 349 583 582
f 521 520 519
f 425 453 115
f 616 622 158
f 483 130 508
f 151 586 572
f 212 17 232
f 400 397 402
f 377 396 99
f 41 522 511
f 510 508 505
f 549 547 42
f 475 473 36
f 510 137 509
f 222 221 197
f 430 115 429
f 220 194 1
f 305 54 204
f 621 29 613
f 192 171 184
f 460 335 5
f 88 331 332
f 74 277 279
f 300 301 80
f 390 389 388
f 165 45 164
f 146 549 551
f 291 278 75
f 448 120 445
f 147 543 544
f 607 610 609
f 603 602 356
f 139 529 514
f 333 553 443
f 92 368 347
f 261 260 259
f 300 6 200
f 46 177 331
f 284 283 174
f 301 300 200
f 471 468 474
f 54 305 301
f 302 304 303
f 569 150 567
f 150 569 570
f 294 209 2
f 628 629 160
f 548 543 147
f 147 625 627
f 63 233 234
f 426 427 114
f 41 509 532
f 198 52 196
f 614 105 612
f 147 627 547
f 81 305 306
f 549 548 547
f 54 301 200
f 342 88 332
f 264 281 70
f 193 194 53
f 455 429 456
f 187 321 14
f 479 130 484
f 147 544 625
f 458 456 453
f 304 80 303
f 314 84 313
f 488 503 501
f 321 332 14
f 423 425 424
f 305 204 306
f 341 339 25
f 514 40 516
f 625 628 627
f 340 339 341
f 105 614 391
f 243 228 62
f 318 316 78
f 75 278 279
f 357 355 353
f 238 257 63
f 466 455 476
f 425 423 4
f 448 449 120
f 408 638 108
f 292 275 285
f 22 278 289
f 515 513 517
f 501 503 134
f 622 623 158
f 134 503 504
f 195 216 206
f 163 271 246
f 619 617 620
f 62 228 229
f 163 165 164
f 453 425 454
f 489 132 488
f 82 628 625
f 58 208 209
f 525 608 40
f 626 547 627
f 518 517 498
f 489 487 491
f 557 26 564
f 325 336 344
f 541 145 539
f 40 616 516
f 338 556 89
f 250 248 245
f 139 514 515
f 98 594 596
f 246 220 1
f 112 413 630
f 9 536 413
f 156 600 601
f 332 177 14
f 321 342 332
f 156 606 600
f 584 330 585
f 302 303 81
f 584 87 330
f 330 25 585
f 400 239 65
f 439 440 117
f 95 358 368
f 597 594 131
f 594 361 486
f 246 67 245
f 561 562 149
f 28 364 362
f 55 216 217
f 427 430 114
f 267 20 254
f 556 555 553
f 84 309 558
f 311 310 312
f 609 525 142
f 256 68 255
f 124 460 461
f 82 311 312
f 307 308 82
f 589 135 495
f 527 40 514
f 112 418 412
f 20 256 254
f 258 238 19
f 267 254 269
f 273 272 249
f 392 391 393
f 137 533 509
f 122 455 456
f 9 413 411
f 130 480 505
f 333 443 5
f 527 525 40
f 589 495 385
f 39 496 485
f 223 225 224
f 414 416 415
f 219 222 53
f 145 538 539
f 413 412 411
f 469 468 467
f 183 181 6
f 191 192 50
f 429 35 431
f 292 285 76
f 413 112 412
f 415 110 412
f 43 164 167
f 467 468 126
f 617 101 620
f 450 451 117
f 438 546 545
f 619 620 159
f 17 212 210
f 124 579 576
f 584 153 583
f 460 124 576
f 3 469 467
f 311 308 314
f 6 320 183
f 389 104 388
f 251 250 249
f 194 165 1
f 291 289 278
f 287 77 348
f 238 258 257
f 139 517 518
f 238 236 19
f 223 247 19
f 382 380 29
f 39 518 498
f 361 359 3
f 69 255 257
f 139 518 528
f 33 545 535
f 387 385 7
f 69 268 269
f 477 462 125
f 454 479 123
f 121 555 447
f 451 435 117
f 454 425 4
f 233 252 8
f 124 463 464
f 69 258 268
f 168 167 166
f 583 153 582
f 384 394 102
f 138 512 513
f 57 210 211
f 254 256 255
f 607 609 142
f 324 319 86
f 289 291 76
f 291 292 76
f 384 102 383
f 422 421 420
f 221 17 197
f 383 102 381
f 376 377 99
f 99 373 374
f 386 105 392
f 438 33 440
f 90 341 343
f 281 75 279
f 574 571 96
f 628 82 312
f 221 222 59
f 127 471 474
f 595 605 603
f 551 538 145
f 334 91 340
f 322 324 85
f 305 303 301
f 18 239 399
f 306 204 16
f 199 198 197
f 166 190 180
f 303 80 301
f 267 266 265
f 626 42 547
f 16 215 213
f 349 351 350
f 295 16 213
f 68 379 252
f 250 251 66
f 627 160 626
f 383 68 256
f 343 88 342
f 507 508 136
f 202 215 16
f 197 198 53
f 254 69 269
f 603 605 156
f 418 419 111
f 384 383 256
f 455 122 476
f 203 204 54
f 556 557 148
f 255 68 253
f 313 84 560
f 25 328 341
f 254 255 69
f 603 156 602
f 581 584 583
f 630 632 112
f 163 246 1
f 246 245 220
f 432 116 558
f 499 591 590
f 320 563 86
f 345 93 350
f 306 16 295
f 346 93 345
f 562 568 149
f 604 605 155
f 154 592 593
f 545 552 535
f 511 522 530
f 574 573 571
f 566 150 565
f 361 98 360
f 67 271 273
f 234 235 65
f 208 211 56
f 574 151 573
f 251 270 66
f 398 8 378
f 213 215 214
f 438 440 439
f 315 314 313
f 263 71 262
f 20 373 384
f 496 134 504
f 329 88 328
f 81 306 316
f 555 556 148
f 592 589 103
f 617 619 107
f 227 207 56
f 571 359 96
f 446 466 465
f 206 216 55
f 359 571 469
f 568 148 570
f 34 437 435
f 28 351 349
f 21 272 282
f 113 423 424
f 490 489 488
f 379 68 383
f 210 212 211
f 80 563 300
f 351 92 350
f 326 346 12
f 83 317 318
f 555 148 554
f 212 231 56
f 218 57 217
f 271 67 246
f 195 196 52
f 270 268 66
f 390 592 103
f 148 568 554
f 495 493 7
f 592 390 593
f 357 95 355
f 574 575 151
f 452 120 451
f 154 591 592
f 587 585 577
f 395 394 396
f 93 349 350
f 610 416 611
f 166 44 190
f 315 23 302
f 315 302 317
f 268 247 66
f 606 154 593
f 396 394 99
f 211 212 56
f 370 369 368
f 235 397 65
f 280 278 22
f 83 315 317
f 575 588 151
f 74 279 280
f 385 495 7
f 63 257 253
f 397 235 398
f 214 58 213
f 220 219 194
f 546 146 545
f 236 225 19
f 599 94 602
f 235 233 8
f 102 394 395
f 611 416 32
f 225 223 19
f 139 528 529
f 231 62 229
f 419 406 421
f 451 450 452
f 49 182 185
f 402 397 107
f 52 199 218
f 416 610 110
f 225 236 244
f 107 397 398
f 68 252 253
f 322 85 321
f 182 181 183
f 118 438 439
f 546 438 118
f 348 77 345
f 543 546 118
f 231 212 232
f 610 611 157
f 33 438 545
f 385 386 103
f 479 480 130
f 169 195 15
f 93 583 349
f 15 195 206
f 190 44 192
f 247 248 66
f 146 552 545
f 248 60 245
f 570 557 564
f 274 271 43
f 63 253 233
f 272 21 249
f 507 528 518
f 67 273 249
f 487 467 126
f 196 195 169
f 624 159 623
f 134 496 497
f 132 503 488
f 104 393 395
f 556 553 89
f 355 356 94
f 258 69 257
f 229 61 227
f 56 231 227
f 460 576 335
f 463 124 461
f 394 373 99
f 29 393 391
f 67 250 245
f 193 198 196
f 462 36 464
f 144 633 630
f 141 526 527
f 517 133 498
f 536 144 630
f 100 372 599
f 144 536 537
f 22 289 287
f 578 579 152
f 579 578 576
f 189 188 187
f 60 223 224
f 92 348 350
f 555 554 447
f 396 377 388
f 194 193 165
f 413 536 630
f 372 352 599
f 377 376 375
f 348 345 350
f 105 386 387
f 240 237 234
f 463 462 464
f 135 500 494
f 45 196 169
f 512 612 387
f 245 60 220
f 429 115 456
f 223 60 248
f 288 289 76
f 525 526 142
f 100 599 601
f 613 29 391
f 526 523 520
f 341 328 343
f 631 641 639
f 264 21 282
f 266 72 265
f 106 402 403
f 73 273 274
f 186 206 205
f 381 379 383
f 52 216 195
f 410 18 399
f 290 272 73
f 72 371 374
f 526 525 527
f 115 430 424
f 498 497 496
f 621 382 29
f 543 118 434
f 214 215 57
f 522 141 530
f 511 510 509
f 352 94 599
f 493 512 7
f 90 340 341
f 169 171 170
f 605 604 606
f 219 60 224
f 104 389 392
f 359 469 3
f 186 49 185
f 222 219 224
f 166 167 44
f 428 427 426
f 523 522 524
f 129 502 481
f 50 185 188
f 164 45 170
f 425 115 424
f 33 428 426
f 427 428 113
f 94 356 602
f 515 138 513
f 114 431 452
f 237 236 238
f 215 217 57
f 95 354 355
f 220 60 219
f 515 514 516
f 183 320 319
f 222 197 53
f 559 569 567
f 300 320 6
f 435 436 117
f 96 360 363
f 640 642 641
f 242 243 62
f 140 537 519
f 508 130 505
f 420 410 399
f 537 539 144
f 317 316 318
f 426 114 450
f 186 15 206
f 311 83 310
f 625 544 307
f 544 10 307
f 168 43 167
f 185 182 188
f 369 354 95
f 44 171 192
f 605 606 156
f 548 549 146
f 100 601 375
f 149 568 569
f 381 380 382
f 455 466 35
f 480 479 454
f 543 548 546
f 493 133 513
f 492 472 37
f 477 125 476
f 491 487 126
f 337 336 338
f 588 153 587
f 576 578 91
f 633 161 632
f 96 359 360
f 39 485 483
f 101 617 378
f 193 45 165
f 163 164 43
f 618 624 611
f 507 136 528
f 561 149 560
f 641 162 639
f 116 561 558
f 494 133 493
f 253 252 233
f 63 237 238
f 392 393 104
f 440 450 117
f 93 581 583
f 386 385 387
f 120 449 451
f 421 422 111
f 486 3 467
f 302 81 317
f 633 632 630
f 462 475 36
f 376 99 374
f 489 490 131
f 447 449 448
f 387 612 105
f 106 420 399
f 173 46 172
f 492 491 472
f 316 306 295
f 22 287 347
f 109 410 420
f 507 39 483
f 559 23 313
f 214 57 211
f 196 45 193
f 10 434 432
f 422 106 403
f 626 160 640
f 487 486 467
f 542 41 532
f 400 106 399
f 444 120 452
f 198 199 52
f 475 127 474
f 621 620 382
f 621 623 159
f 450 114 452
f 92 347 348
f 376 100 375
f 434 118 433
f 503 132 502
f 337 90 336
f 537 536 519
f 395 393 380
f 201 54 200
f 171 44 170
f 355 94 353
f 58 296 213
f 422 420 106
f 595 365 596
f 569 568 570
f 523 140 520
f 114 430 431
f 218 210 57
f 304 566 80
f 639 162 638
f 261 371 72
f 548 147 547
f 498 133 497
f 150 570 564
f 222 224 59
f 142 526 520
f 437 436 435
f 141 522 523
f 137 510 505
f 173 179 176
f 559 149 569
f 121 447 448
f 563 320 300
f 102 395 380
f 257 255 253
f 642 162 641
f 83 311 314
f 216 52 218
f 512 493 513
f 23 304 302
f 91 339 340
f 512 138 612
f 159 620 621
f 218 199 210
f 364 28 575
f 83 318 310
f 168 274 43
f 136 530 528
f 140 523 524
f 495 135 494
f 233 235 234
f 566 563 80
f 25 339 577
f 277 74 276
f 475 462 477
f 133 494 497
f 436 437 116
f 389 386 392
f 548 146 546
f 441 460 5
f 10 309 307
f 65 397 400
f 543 434 544
f 640 641 161
f 272 273 73
f 581 93 346
f 419 421 111
f 319 320 86
f 180 179 178
f 127 475 477
f 231 229 227
f 337 334 340
f 136 508 510
f 308 309 84
f 237 63 234
f 447 554 34
f 252 379 378
f 315 83 314
f 608 622 616
f 338 336 26
f 337 338 89
f 13 275 168
f 209 208 207
f 436 439 117
f 628 312 629
f 360 366 363
f 364 574 96
f 359 361 360
f 466 446 35
f 500 501 134
f 406 109 421
f 135 589 591
f 601 599 602
f 340 90 337
f 481 492 37
f 522 41 524
f 78 316 295
f 131 486 487
f 403 32 414
f 634 626 640
f 151 572 573
f 515 516 138
f 8 252 378
f 265 72 374
f 9 521 519
f 538 549 42
f 368 358 347
f 588 587 586
f 458 453 123
f 589 385 103
f 502 492 481
f 32 416 414
f 430 427 424
f 153 585 587
f 540 144 539
f 370 368 92
f 209 293 58
f 428 33 535
f 326 581 346
f 625 307 82
f 575 28 582
f 6 181 200
f 421 109 420
f 553 121 443
f 160 642 640
f 153 584 585
f 309 432 558
f 334 337 89
f 23 315 313
f 271 163 43
f 296 295 213
f 39 498 496
f 118 439 433
f 531 113 534
f 293 296 58
f 28 362 351
f 489 131 487
f 431 444 452
f 84 558 560
f 98 366 360
f 45 169 170
f 379 101 378
f 462 463 125
f 308 84 314
f 10 432 309
f 299 24 310
f 132 492 502
f 512 387 7
f 639 638 408
f 565 323 86
f 59 244 242
f 106 400 402
f 440 33 426
f 566 565 563
f 617 398 378
f 224 225 59
f 410 109 409
f 239 400 399
f 194 219 53
f 358 22 347
f 610 157 609
f 27 595 603
f 479 484 482
f 142 520 521
f 585 25 577
f 339 578 577
f 408 407 406
f 407 109 406
f 31 408 406
f 407 408 108
f 31 639 408
f 419 31 406
f 608 616 40
f 430 429 431
f 455 35 429
f 35 444 431
f 188 51 187
f 188 182 51
f 51 322 187
f 322 51 319
f 51 182 183
f 319 51 183
f 187 322 321
f 322 319 324
f 381 101 379
f 405 407 108
f 404 405 108
f 286 285 178
f 407 405 409
f 109 407 409
f 191 175 47
f 167 164 170
f 50 184 185
f 44 167 170
f 64 244 236
f 243 244 64
f 50 188 189
f 541 542 145
f 442 445 119
f 339 91 578
f 445 446 119
f 624 623 622
f 611 624 157
f 523 526 141
f 141 527 529
f 527 514 529
f 445 120 444
f 446 445 444
f 35 446 444
f 613 614 158
f 158 614 615
f 623 613 158
f 614 613 391
f 614 612 615
f 371 376 374
f 100 376 371
f 479 482 123
f 373 394 384
f 540 42 634
f 633 540 634
f 538 42 540
f 633 634 161
f 161 634 640
f 42 626 634
f 540 633 144
f 557 556 338
f 553 333 89
f 262 21 264
f 251 21 262
f 5 335 333
f 270 251 262
f 21 251 249
f 600 593 30
f 606 593 600
f 600 30 375
f 593 390 30
f 30 377 375
f 390 388 30
f 30 388 377
f 228 243 241
f 470 478 459
f 470 127 478
f 127 477 478
f 184 186 185
f 478 477 476
f 122 478 476
f 357 74 280
f 518 39 507
f 344 342 85
f 325 344 85
f 342 344 343
f 85 342 321
f 344 90 343
f 90 344 336
f 482 129 481
f 482 481 457
f 482 457 123
f 481 37 457
f 449 447 34
f 435 449 34
f 470 472 471
f 472 470 37
f 470 471 127
f 472 126 471
f 126 468 471
f 470 459 37
f 491 126 472
f 504 129 485
f 221 59 242
f 125 463 465
f 437 34 562
f 561 437 562
f 554 568 562
f 34 554 562
f 437 561 116
f 390 103 389
f 103 386 389
f 392 105 391
f 572 586 580
f 572 580 36
f 586 152 580
f 473 572 36
f 244 243 242
f 225 244 59
f 64 240 241
f 240 239 241
f 237 240 64
f 243 64 241
f 236 237 64
f 411 607 521
f 9 411 521
f 110 607 411
f 607 142 521
f 610 607 110
f 171 15 184
f 171 169 15
f 15 186 184
f 87 584 581
f 153 588 582
f 588 575 582
f 381 102 380
f 573 572 473
f 468 469 128
f 474 468 128
f 469 571 128
f 571 573 128
f 573 473 128
f 473 474 128
f 564 323 565
f 26 323 564
f 323 324 86
f 325 323 26
f 325 324 323
f 563 565 86
f 324 325 85
f 410 230 18
f 230 228 18
f 18 228 241
f 18 241 239
f 401 619 618
f 401 402 107
f 403 402 401
f 619 159 618
f 401 618 32
f 619 401 107
f 403 401 32
f 618 611 32
f 159 624 618
f 478 122 459
f 122 458 459
f 37 459 457
f 459 458 457
f 122 456 458
f 457 458 123
f 191 190 192
f 485 129 484
f 129 482 484
f 483 485 484
f 130 483 484
f 189 187 14
f 191 50 189
f 191 189 175
f 189 14 175
f 14 177 175
f 499 501 500
f 501 499 38
f 38 499 590
f 135 499 500
f 488 501 38
f 499 135 591
f 480 454 4
f 284 12 346
f 4 423 506
f 480 4 506
f 423 531 506
f 480 506 505
f 531 137 506
f 506 137 505
f 365 366 98
f 71 270 262
f 270 71 269
f 71 267 269
f 335 334 333
f 333 334 89
f 334 335 91
f 536 9 519
f 465 463 461
f 537 140 541
f 520 140 519
f 119 446 465
f 465 461 119
f 461 441 119
f 460 441 461
f 176 46 173
f 299 297 24
f 71 263 266
f 263 260 266
f 260 72 266
f 263 70 260
f 205 201 49
f 201 181 49
f 186 205 49
f 181 201 200
f 181 182 49
f 284 77 283
f 586 587 152
f 588 586 151
f 20 267 265
f 266 267 71
f 31 417 631
f 631 417 632
f 31 631 639
f 417 31 419
f 641 631 161
f 417 112 632
f 161 631 632
f 418 417 419
f 417 418 112
f 284 345 77
f 542 550 145
f 542 541 524
f 284 174 12
f 48 174 283
f 373 20 265
f 373 265 374
f 609 608 525
f 608 157 622
f 560 559 313
f 636 637 162
f 541 140 524
f 41 542 524
f 358 357 280
f 70 263 264
f 263 262 264
f 176 177 46
f 174 48 173
f 174 173 172
f 538 551 549
f 538 540 539
f 537 541 539
f 232 221 242
f 17 221 232
f 232 242 62
f 231 232 62
f 203 205 55
f 203 55 202
f 201 205 203
f 202 55 217
f 205 206 55
f 204 203 202
f 73 275 292
f 292 290 73
f 272 290 282
f 290 292 291
f 75 290 291
f 290 75 282
f 70 277 259
f 277 70 281
f 277 281 279
f 260 70 259
f 12 174 172
f 104 396 388
f 367 27 354
f 365 27 367
f 354 27 356
f 365 367 366
f 595 27 365
f 318 299 310
f 155 596 597
f 155 597 598
f 596 594 597
f 595 596 155
f 605 595 155
f 180 47 179
f 180 190 47
f 352 372 11
f 11 372 261
f 312 310 24
f 642 636 162
f 636 297 637
f 367 369 97
f 366 367 97
f 369 367 354
f 369 370 97
f 580 579 464
f 580 152 579
f 579 124 464
f 61 230 409
f 230 410 409
f 230 61 229
f 230 229 228
f 76 285 286
f 353 352 276
f 74 353 276
f 288 76 286
f 288 286 283
f 289 288 287
f 203 54 201
f 287 288 77
f 77 288 283
f 286 48 283
f 531 423 113
f 276 11 259
f 11 261 259
f 277 276 259
f 616 158 615
f 516 616 615
f 138 516 615
f 138 615 612
f 509 533 532
f 503 502 504
f 635 79 294
f 635 294 404
f 635 637 79
f 637 635 638
f 638 635 108
f 635 404 108
f 226 61 405
f 61 226 227
f 405 61 409
f 227 226 207
f 48 178 179
f 48 286 178
f 173 48 179
f 534 143 533
f 534 535 143
f 531 534 533
f 533 143 532
f 137 531 533
f 261 372 371
f 13 180 178
f 285 13 178
f 180 13 166
f 13 168 166
f 346 345 284
f 331 327 46
f 46 327 172
f 172 327 326
f 382 620 101
f 442 121 448
f 443 121 442
f 2 226 404
f 294 2 404
f 404 226 405
f 207 226 2
f 550 551 145
f 552 146 551
f 143 550 532
f 552 550 143
f 330 329 328
f 24 636 629
f 94 352 353
f 352 11 276
f 113 428 534
f 428 535 534
f 509 41 511
f 535 552 143
f 550 552 551
f 550 542 532
f 369 95 368
f 326 327 87
f 87 327 329
f 327 331 329
f 581 326 87
f 293 79 298
f 79 297 298
f 296 298 78
f 79 293 294
f 296 293 298
f 598 490 38
f 358 280 22
f 280 279 278
f 357 358 95
f 74 357 353
f 330 328 25
f 567 23 559
f 590 598 38
f 590 604 598
f 598 604 155
f 604 590 154
f 590 591 154
f 604 154 606
f 297 299 298
f 299 318 78
f 298 299 78
f 355 354 356
f 629 636 642
f 312 24 629
f 629 642 160
f 370 362 97
f 362 363 97
f 363 366 97
f 364 363 362
f 362 370 351
f 96 363 364
f 297 636 24
f 162 637 638
f 637 297 79
f 490 488 38
f 598 597 490
f 441 442 119
f 443 442 441
f 443 441 5
f 442 448 445
f 296 78 295
f 326 12 172
f 575 574 364
f 47 175 176
f 175 177 176
f 47 176 179
