# FEM surface export ¡ª frame 288
# Vertices: 642  Faces: 1280
v -0.52649593 1.46082151 -0.00001894
v 0.52646112 1.45985997 0.00028116
v -0.59819740 0.00000000 -0.00541315
v 0.58827007 0.00000000 -0.00461461
v 0.00127611 0.14411660 0.91573721
v -0.00099358 1.14596260 0.85606921
v 0.00062413 0.14674518 -0.91895556
v -0.00019703 1.14469218 -0.85505426
v 0.87633008 0.64018065 -0.54184979
v 0.87513745 0.63952595 0.54048944
v -0.87503231 0.64051396 -0.54239231
v -0.87433761 0.64209265 0.54099357
v -0.81398177 1.11976993 0.31088763
v -0.50637543 0.93707645 0.81887931
v -0.30952632 1.41935110 0.50029528
v 0.30974224 1.41923738 0.50109428
v 0.00023359 1.60651672 -0.00004655
v 0.30973616 1.41927493 -0.50076950
v -0.30931604 1.42009783 -0.50087917
v -0.50634438 0.93551040 -0.81947315
v -0.81399375 1.12089944 -0.31100047
v -1.02774429 0.63852352 -0.00147317
v 0.50683981 0.93706596 0.82049602
v 0.81394345 1.11820865 0.31075028
v -0.52532375 0.34798938 0.85491461
v 0.00001614 0.63955247 1.02975023
v -0.87022555 0.16849773 -0.33026648
v -0.86758107 0.16797341 0.33422133
v -0.00197571 0.64093363 -1.02902377
v -0.52501154 0.34249827 -0.84907103
v 0.81452703 1.11838305 -0.31068197
v 0.50580847 0.93471050 -0.81804419
v 0.87258708 0.16839063 0.33392784
v 0.52808559 0.34805423 0.85397971
v 0.34200129 0.00000000 0.56063265
v -0.35588029 0.00000000 0.56344765
v -0.00750965 0.00000000 0.00398118
v -0.34398931 0.00000000 -0.55567724
v 0.34660071 0.00000000 -0.55851698
v 0.52742624 0.34555748 -0.85385221
v 0.87371039 0.16968526 -0.33384788
v 1.03147030 0.63954580 -0.00078677
v -0.69559151 1.31590378 0.16112289
v -0.58940661 1.30228603 0.42632821
v -0.43452141 1.47211337 0.26011625
v -0.71452332 0.79520202 0.70692444
v -0.69378936 1.04809892 0.59228998
v -0.87452585 0.88950557 0.43957838
v -0.16111657 1.30752039 0.70341122
v -0.42726472 1.20498669 0.69063252
v -0.26254365 1.05724216 0.86997420
v -0.16238657 1.55871475 0.26313600
v -0.27311227 1.56929243 0.00010784
v 0.16084588 1.30682325 0.70395452
v 0.00008666 1.45970356 0.52617645
v 0.27357060 1.56896603 0.00014707
v 0.16294739 1.55871570 0.26335713
v 0.43462214 1.47142267 0.26069200
v -0.16239414 1.55851734 -0.26306948
v -0.43436778 1.47276342 -0.26025954
v 0.43476406 1.47177029 -0.26008114
v 0.16263320 1.55837011 -0.26307189
v -0.16082576 1.30673015 -0.70350647
v 0.00044304 1.45996249 -0.52658772
v 0.16142336 1.30672824 -0.70398086
v -0.58926773 1.30258501 -0.42644113
v -0.69552213 1.31600308 -0.16104801
v -0.26224440 1.05549109 -0.86903685
v -0.42680866 1.20448005 -0.69099116
v -0.87520927 0.89005810 -0.44069904
v -0.69325918 1.04831088 -0.59281862
v -0.71572536 0.79422152 -0.70795649
v -0.85567689 1.14564610 0.00026515
v -0.98892522 0.63951409 -0.28249469
v -0.96558744 0.89265168 -0.16542368
v -0.96422660 0.89139575 0.16444866
v -0.98854089 0.63918078 0.28006917
v 0.58977759 1.30033231 0.42647657
v 0.69533712 1.31454480 0.16102830
v 0.26169568 1.05584121 0.87077725
v 0.42710105 1.20379221 0.69109601
v 0.87482262 0.88762778 0.44020015
v 0.69476432 1.04695690 0.59245151
v 0.71590781 0.79378444 0.70614153
v -0.26768383 0.79645663 0.96985835
v -0.00096133 0.90285623 0.97688252
v -0.72891450 0.48882890 0.72222805
v -0.53899634 0.64281934 0.87487394
v 0.00197976 0.37639126 1.00974417
v -0.27167073 0.48484281 0.99128139
v -0.27600825 0.22687452 0.92055875
v -0.99672908 0.38779217 0.17030217
v -0.90313625 0.39397597 0.45485315
v -0.90231150 0.39144465 -0.45587727
v -0.99788076 0.38894281 -0.17278191
v -0.77063727 0.00564461 0.17969517
v -0.91525418 0.14332230 0.00203282
v -0.76902735 0.00747990 -0.17545310
v -0.54163301 0.63875920 -0.87503034
v -0.72885251 0.48376265 -0.72090149
v -0.00059022 0.90238643 -0.97527057
v -0.26881704 0.79574132 -0.97074962
v -0.27845547 0.22587858 -0.92175049
v -0.27448890 0.48269659 -0.98865283
v -0.00028576 0.38042611 -1.00963676
v 0.42722872 1.20249867 -0.69030559
v 0.26246920 1.05490875 -0.86912256
v 0.69531268 1.31421220 -0.16081634
v 0.58945632 1.30020046 -0.42561862
v 0.71557331 0.79306537 -0.70766616
v 0.69425142 1.04697013 -0.59237015
v 0.87657124 0.88841349 -0.44043496
v 0.77061141 0.01049529 0.17854172
v 0.64983130 0.01840774 0.47012720
v 0.48823696 0.00000000 0.29341456
v 0.73130012 0.48860461 0.72395074
v 0.73330128 0.23548847 0.62910658
v 0.90387851 0.39091080 0.45551836
v 0.17728747 0.01504386 0.77286953
v 0.46409073 0.08763460 0.75016087
v 0.27880478 0.22958951 0.92027324
v 0.17423671 0.00000000 0.29246551
v 0.29757917 0.00000000 -0.00209953
v -0.17537333 0.01664153 0.77827084
v -0.00614412 0.00000000 0.59361684
v -0.30870646 0.00000000 -0.00235940
v -0.18773712 0.00000000 0.28997284
v -0.50176275 0.00000000 0.28856641
v 0.17718652 0.00000000 -0.29377598
v 0.47261065 0.00000000 -0.28502640
v -0.48327744 0.00000000 -0.29633349
v -0.18575318 0.00000000 -0.29117921
v 0.17702635 0.01809552 -0.77971101
v -0.00351169 0.00000000 -0.59204310
v -0.17637762 0.01255289 -0.77453703
v 0.65149599 0.01578244 -0.47032064
v 0.76644135 0.01551784 -0.17891385
v 0.27891356 0.22755706 -0.92010659
v 0.46480748 0.09728981 -0.74993259
v 0.90501726 0.39006108 -0.45501399
v 0.73497909 0.23674479 -0.62762141
v 0.73108584 0.48711574 -0.72410804
v 0.92050821 0.14647260 0.00026872
v 0.99212229 0.63978964 -0.28269041
v 0.99611092 0.38749692 -0.17070909
v 0.99742556 0.38801998 0.17009303
v 0.98909909 0.63853484 0.27994224
v 0.27281106 0.48562741 0.98930466
v 0.54080170 0.64319843 0.87631601
v 0.26713568 0.79713571 0.97056329
v -0.65272808 0.02649681 0.47439179
v -0.46204939 0.08391888 0.74895036
v -0.73242521 0.24125177 0.63055205
v -0.46283701 0.08433015 -0.74982840
v -0.65335995 0.01735520 -0.47007477
v -0.73079330 0.22992700 -0.62423134
v 0.53988945 0.63912940 -0.87520331
v 0.27169982 0.48725563 -0.99138296
v 0.26768342 0.79516774 -0.96999437
v 0.96464401 0.89044356 0.16505948
v 0.96468443 0.89026642 -0.16402049
v 0.85556430 1.14360321 0.00020044
v -0.61664987 1.39528286 0.08139306
v -0.57215786 1.40377629 0.21329710
v -0.48498908 1.47450185 0.13141079
v -0.71018350 1.21796775 0.37279943
v -0.64912164 1.31611216 0.29668519
v -0.76181263 1.22324908 0.23783682
v -0.37556174 1.45368469 0.38393447
v -0.51695061 1.39460969 0.34660676
v -0.45482361 1.36997664 0.46903417
v -0.80125856 0.71944636 0.63013744
v -0.80494261 0.84562945 0.58051509
v -0.88231945 0.76727879 0.49425408
v -0.60744953 0.99717122 0.71394360
v -0.71085167 0.92456049 0.65550685
v -0.61571944 0.86795563 0.76951087
v -0.85169184 1.00746238 0.37813276
v -0.79174274 0.97242343 0.52112210
v -0.76328993 1.08936000 0.45659807
v -0.08187561 1.23233318 0.78658378
v -0.21433283 1.18900335 0.79616511
v -0.13269205 1.10558832 0.87128490
v -0.37265390 1.32040262 0.60247535
v -0.29703698 1.26289487 0.70418733
v -0.23756041 1.37033987 0.60753399
v -0.38793781 1.00070763 0.85247642
v -0.34853530 1.13615978 0.78796178
v -0.47239384 1.07623589 0.76335245
v -0.64979964 1.18202770 0.51572144
v -0.56787908 1.13324070 0.65004659
v -0.51505148 1.26178217 0.56567711
v -0.35848990 1.53231072 0.13184246
v -0.40345597 1.52323413 0.00016500
v -0.23872715 1.49976337 0.38641971
v -0.30151203 1.52422714 0.26426879
v -0.13780978 1.59768116 -0.00001036
v -0.22003572 1.57341015 0.13289654
v -0.08207062 1.59468484 0.13318162
v 0.08085099 1.23185694 0.78679317
v -0.00007595 1.31634259 0.71246332
v 0.15665942 1.44920385 0.51969439
v 0.08141420 1.39107955 0.62074959
v 0.23746890 1.36961353 0.60800844
v -0.08110376 1.39124393 0.62081242
v -0.15652934 1.44994700 0.51958197
v 0.40408066 1.52284098 0.00031655
v 0.35891876 1.53178751 0.13214794
v 0.48508859 1.47366977 0.13163294
v 0.08261500 1.59416091 0.13322446
v 0.22065470 1.57353854 0.13317950
v 0.13824835 1.59744573 0.00005720
v 0.37586433 1.45283115 0.38446125
v 0.30194211 1.52436209 0.26471940
v 0.23914385 1.49911702 0.38677001
v -0.08222783 1.52109516 0.40001526
v 0.08245911 1.52067339 0.39976442
v 0.00013665 1.57124782 0.26663220
v -0.35821617 1.53242195 -0.13170591
v -0.48482633 1.47473609 -0.13129137
v -0.08203086 1.59444392 -0.13321592
v -0.22004680 1.57386994 -0.13303663
v -0.37540984 1.45409739 -0.38416564
v -0.30140302 1.52476704 -0.26436302
v -0.23858899 1.49993145 -0.38659132
v 0.48525944 1.47398567 -0.13111900
v 0.35888284 1.53220010 -0.13159588
v 0.23916255 1.49964333 -0.38648126
v 0.30171403 1.52431345 -0.26414281
v 0.37574819 1.45345783 -0.38400260
v 0.22043088 1.57359028 -0.13280258
v 0.08243539 1.59455061 -0.13329922
v -0.08143684 1.23123777 -0.78653771
v 0.00015036 1.31567216 -0.71298921
v 0.08145544 1.23081863 -0.78639299
v -0.15622561 1.44992507 -0.51994073
v -0.08091483 1.39107144 -0.62120849
v -0.23710479 1.37014771 -0.60771805
v 0.23794457 1.36994946 -0.60798490
v 0.08171097 1.39110196 -0.62150329
v 0.15688248 1.44948864 -0.51980406
v 0.00014412 1.57108116 -0.26662388
v 0.08264047 1.52105534 -0.39996183
v -0.08206718 1.52128839 -0.40005699
v -0.57204741 1.40412974 -0.21340075
v -0.61677080 1.39559817 -0.08109716
v -0.45457605 1.37023914 -0.46942833
v -0.51706135 1.39564288 -0.34682286
v -0.76178956 1.22392571 -0.23800264
v -0.64922714 1.31633222 -0.29690522
v -0.71013832 1.21888053 -0.37340337
v -0.13223499 1.10509765 -0.87025279
v -0.21395357 1.18806899 -0.79609883
v -0.47171217 1.07513678 -0.76324105
v -0.34803429 1.13481152 -0.78767645
v -0.38759124 0.99920475 -0.85180831
v -0.29681087 1.26216912 -0.70472044
v -0.37232763 1.32050157 -0.60302174
v -0.88352144 0.76661450 -0.49578398
v -0.80609524 0.84547907 -0.58163315
v -0.80230242 0.71799737 -0.63095891
v -0.76270616 1.09011865 -0.45752236
v -0.79174179 0.97274500 -0.52192497
v -0.85190189 1.00866055 -0.37885839
v -0.61647463 0.86690181 -0.77107513
v -0.71173495 0.92418736 -0.65622252
v -0.60763288 0.99597675 -0.71474987
v -0.51465648 1.26211560 -0.56637138
v -0.56748450 1.13281894 -0.65073687
v -0.64929175 1.18226171 -0.51584148
v -0.70475197 1.32512891 0.00018308
v -0.84530687 1.13966715 -0.15748551
v -0.78316700 1.23663151 -0.08144172
v -0.78300780 1.23646808 0.08151145
v -0.84492141 1.13896978 0.15751918
v -0.94110948 0.64067483 -0.41613859
v -0.94391769 0.76685894 -0.36649990
v -1.00810039 0.76745832 -0.08461218
v -0.98562992 0.76725447 -0.22553951
v -1.01827824 0.63972670 -0.14307238
v -0.92923510 0.89419115 -0.30586088
v -0.89946365 1.01114130 -0.24094383
v -0.94325078 0.76647460 0.36500466
v -0.94141990 0.64113539 0.41508824
v -0.89933819 1.01012361 0.24072945
v -0.92912287 0.89316690 0.30515695
v -1.01902604 0.63985562 0.14080961
v -0.98606533 0.76666027 0.22414590
v -1.00846970 0.76723701 0.08303829
v -0.92213231 1.02442968 -0.08300297
v -0.97791147 0.89561009 0.00005335
v -0.92189425 1.02374244 0.08319120
v 0.57224512 1.40311253 0.21361999
v 0.61648732 1.39419222 0.08121584
v 0.45513794 1.36859155 0.46970701
v 0.51734930 1.39379561 0.34701508
v 0.76156443 1.22164512 0.23809244
v 0.64937204 1.31481862 0.29702544
v 0.71043509 1.21647811 0.37332511
v 0.13153352 1.10547149 0.87198955
v 0.21356656 1.18798363 0.79660273
v 0.47247043 1.07605422 0.76461935
v 0.34779885 1.13504052 0.78831536
v 0.38729113 0.99960089 0.85308552
v 0.29646948 1.26098001 0.70484298
v 0.37263510 1.31913388 0.60296524
v 0.88173109 0.76347214 0.49376729
v 0.80546045 0.84216344 0.57939291
v 0.80157983 0.71683764 0.62890267
v 0.76356393 1.08803582 0.45709857
v 0.79235959 0.97034246 0.52121413
v 0.85193521 1.00613022 0.37845373
v 0.61732113 0.86798149 0.77106816
v 0.71169901 0.92257047 0.65475905
v 0.60883099 0.99638051 0.71451038
v 0.51562524 1.25986850 0.56642967
v 0.56825268 1.13246846 0.65045106
v 0.65009850 1.18055964 0.51568788
v -0.13382120 0.98434925 0.93503958
v -0.00064816 1.02746165 0.92428243
v -0.39204925 0.86967993 0.90491426
v -0.26788744 0.92968136 0.92827314
v -0.00080735 0.77264977 1.01215661
v -0.13535906 0.85138649 0.98284316
v -0.13676342 0.71859932 1.01244557
v -0.80981684 0.56435561 0.63754761
v -0.73063213 0.64240003 0.72320622
v -0.53739405 0.49309954 0.87523168
v -0.63950533 0.56548417 0.80633563
v -0.63338524 0.41653955 0.79595321
v -0.63290405 0.71942079 0.79810029
v -0.52852601 0.79153508 0.85679829
v 0.00212066 0.25283894 0.97191066
v -0.13759965 0.29674408 0.97776955
v -0.13899373 0.17788793 0.92918885
v -0.13679329 0.56132841 1.02234471
v -0.13700318 0.42793021 1.00920439
v -0.00067003 0.50668138 1.02870500
v -0.40648422 0.28255537 0.89498156
v -0.27694988 0.35142589 0.96486855
v -0.40192211 0.41228583 0.93477041
v -0.40824395 0.71930009 0.93482691
v -0.41193435 0.56208378 0.94649535
v -0.27324855 0.64065337 0.99260837
v -0.95971495 0.51605415 0.37227082
v -0.89698446 0.51628458 0.50317603
v -1.02485085 0.51247215 0.08433608
v -1.00260544 0.51298130 0.22712824
v -0.89403862 0.27719221 0.39866164
v -0.96043116 0.39011163 0.31610307
v -0.94353187 0.27236426 0.25453520
v -0.89715350 0.51470530 -0.50476766
v -0.95895344 0.51390195 -0.37432992
v -0.94441432 0.26968601 -0.25262958
v -0.95929050 0.38710210 -0.31764522
v -0.89457875 0.27299014 -0.39877033
v -1.00304568 0.51212353 -0.23107253
v -1.02675152 0.51181436 -0.08787774
v -0.69414937 0.00000000 0.08766911
v -0.77602065 0.00000000 0.00226451
v -0.69139838 0.00000000 -0.09203603
v -0.90391892 0.15337570 0.17109516
v -0.85087526 0.06264240 0.09089711
v -0.82698625 0.07420784 0.25945508
v -0.82929099 0.07660106 -0.25704309
v -0.84876966 0.06206023 -0.08589400
v -0.90559107 0.14741804 -0.16585293
v -1.01256752 0.38594547 -0.00108230
v -0.97120255 0.26018089 -0.08756930
v -0.97309428 0.26134834 0.08712069
v -0.73116207 0.63927317 -0.72275567
v -0.80956990 0.56161875 -0.63722342
v -0.52996844 0.78857917 -0.85669577
v -0.63524842 0.71661258 -0.79854178
v -0.63402498 0.41046232 -0.79167849
v -0.64162952 0.56047547 -0.80712044
v -0.54042768 0.48787686 -0.87394255
v 0.00020087 1.02713692 -0.92289430
v -0.13306536 0.98394185 -0.93401468
v -0.13746414 0.71929282 -1.01193738
v -0.13551579 0.85149479 -0.98237842
v -0.00117958 0.77343273 -1.01152766
v -0.26788458 0.92875487 -0.92827731
v -0.39223889 0.86839843 -0.90467918
v -0.14069387 0.18133679 -0.93232334
v -0.13921367 0.29821235 -0.97742832
v 0.00068647 0.25704342 -0.97386330
v -0.40347824 0.40937957 -0.93135965
v -0.27748349 0.35139653 -0.96349996
v -0.40609643 0.28093508 -0.89589471
v -0.00162921 0.50841236 -1.03014553
v -0.13953337 0.42852685 -1.00836992
v -0.13937706 0.56127101 -1.02174330
v -0.40999565 0.71859312 -0.93579555
v -0.27571902 0.63937813 -0.99200213
v -0.41431952 0.55938935 -0.94442332
v 0.21430138 1.18787098 -0.79611719
v 0.13218130 1.10451019 -0.87065756
v 0.37317100 1.31939507 -0.60295683
v 0.29734993 1.26121533 -0.70452720
v 0.38775453 0.99802303 -0.85151267
v 0.34848338 1.13356924 -0.78698558
v 0.47201896 1.07368076 -0.76215005
v 0.61680043 1.39454353 -0.08109631
v 0.57233453 1.40314984 -0.21319577
v 0.71008438 1.21657908 -0.37223339
v 0.64913017 1.31407619 -0.29626191
v 0.76140851 1.22136915 -0.23742749
v 0.51734936 1.39394760 -0.34646413
v 0.45508704 1.36912954 -0.46950614
v 0.80318737 0.71783501 -0.63082403
v 0.80717278 0.84460688 -0.58176905
v 0.88456851 0.76612228 -0.49589050
v 0.60747963 0.99509531 -0.71310627
v 0.71127462 0.92178911 -0.65541959
v 0.61635846 0.86623621 -0.77053726
v 0.85267538 1.00694466 -0.37899420
v 0.79236442 0.97128314 -0.52163029
v 0.76341802 1.08890903 -0.45668745
v 0.51524830 1.25943017 -0.56551528
v 0.64984441 1.18062794 -0.51518762
v 0.56762040 1.13099134 -0.64945680
v 0.69494820 0.00000000 0.09372163
v 0.64552057 0.00000000 0.24494600
v 0.54477745 0.00000000 0.14458843
v 0.77225846 0.08350009 0.40195850
v 0.70962447 0.00000000 0.32586810
v 0.82619232 0.07767470 0.25814456
v 0.41972262 0.00000000 0.43041107
v 0.58122778 0.00000000 0.39475346
v 0.50762969 0.00000000 0.52503818
v 0.81102103 0.56279486 0.63777423
v 0.82865030 0.43564939 0.59752196
v 0.89809990 0.51398236 0.50368810
v 0.63842905 0.28740600 0.75017476
v 0.73732537 0.35976914 0.68150365
v 0.63410193 0.41566429 0.79489136
v 0.89393675 0.27629018 0.39856166
v 0.82645136 0.30930984 0.54663891
v 0.81322068 0.19481772 0.48890465
v 0.09042275 0.06858137 0.85773009
v 0.23278330 0.10320214 0.85872203
v 0.14262523 0.18116426 0.92708886
v 0.41149735 0.00607446 0.66304195
v 0.32502916 0.04505044 0.76799458
v 0.26447073 0.00000000 0.67642957
v 0.40900621 0.28549528 0.89540428
v 0.37495121 0.15329106 0.84553975
v 0.50271648 0.20948479 0.80861062
v 0.70159352 0.11239527 0.55615616
v 0.60775238 0.15254003 0.69533980
v 0.56501877 0.04299781 0.62352997
v 0.40120938 0.00000000 0.14630286
v 0.44722602 0.00000000 -0.00066810
v 0.26355872 0.00000000 0.43463394
v 0.33367786 0.00000000 0.29620722
v 0.14506355 0.00000000 0.00477099
v 0.23810521 0.00000000 0.14975443
v 0.08009579 0.00000000 0.14921711
v -0.08786220 0.06764333 0.85639787
v 0.00349000 0.00671965 0.78685737
v -0.18813342 0.00000000 0.59132284
v -0.09043753 0.00000000 0.69211376
v -0.26271015 0.00000000 0.67976701
v 0.08899979 0.00000000 0.69235611
v 0.17238197 0.00000000 0.58909035
v -0.45701787 0.00000000 -0.00669213
v -0.40988424 0.00000000 0.14201389
v -0.55257583 0.00000000 0.14151105
v -0.10436637 0.00000000 0.14557405
v -0.25211859 0.00000000 0.14300883
v -0.15937951 0.00000000 0.00329574
v -0.43327659 0.00000000 0.43378100
v -0.35128641 0.00000000 0.29452530
v -0.28026506 0.00000000 0.43461093
v 0.08735793 0.00000000 0.44909376
v -0.09997587 0.00000000 0.44947448
v -0.00991848 0.00000000 0.29733139
v 0.38729331 0.00000000 -0.14099163
v 0.52902174 0.00000000 -0.15253031
v 0.08678450 0.00000000 -0.14454536
v 0.23571917 0.00000000 -0.14578395
v 0.41936532 0.00000000 -0.42375550
v 0.32604510 0.00000000 -0.28759012
v 0.26825160 0.00000000 -0.42443264
v -0.54541886 0.00000000 -0.15288922
v -0.40398401 0.00000000 -0.15509447
v -0.26675630 0.00000000 -0.42671543
v -0.34212697 0.00000000 -0.29533723
v -0.41720158 0.00000000 -0.43052265
v -0.24965143 0.00000000 -0.15022917
v -0.09716261 0.00000000 -0.14670020
v 0.08915932 0.07204942 -0.86178899
v 0.00093009 0.01114958 -0.79000986
v -0.08923517 0.07149649 -0.86071664
v 0.17348321 0.00000000 -0.58298177
v 0.09379761 0.00000000 -0.69772440
v 0.26881525 0.00000000 -0.67778003
v -0.27060497 0.00000000 -0.68040818
v -0.09380244 0.00000000 -0.70094460
v -0.17509750 0.00000000 -0.58108699
v -0.00465834 0.00000000 -0.29176605
v -0.09148297 0.00000000 -0.44254380
v 0.08818641 0.00000000 -0.44425839
v 0.63887376 0.00000000 -0.23902585
v 0.69634920 0.00000000 -0.09241667
v 0.50411922 0.00000000 -0.52135783
v 0.57348984 0.00000000 -0.38324896
v 0.83249849 0.08533106 -0.26019701
v 0.71934056 0.01123289 -0.32749385
v 0.77290338 0.08399939 -0.40690774
v 0.14323506 0.18341324 -0.93099111
v 0.23240086 0.10635434 -0.86283606
v 0.50326473 0.20829405 -0.81069964
v 0.37406892 0.15435982 -0.84380114
v 0.40793154 0.28272504 -0.89409453
v 0.32723248 0.04827001 -0.77516979
v 0.41266677 0.01366054 -0.66601187
v 0.89832830 0.51361597 -0.50403702
v 0.82870370 0.43488130 -0.59879881
v 0.81217051 0.56218189 -0.63801557
v 0.81311512 0.19540723 -0.48847303
v 0.82874721 0.30959299 -0.54554993
v 0.89745450 0.27360752 -0.39940310
v 0.63586742 0.41402870 -0.79713297
v 0.73964030 0.35768479 -0.68237686
v 0.63831222 0.28705239 -0.74967104
v 0.56691396 0.04912686 -0.61847186
v 0.60981691 0.15511245 -0.69800788
v 0.70266694 0.11215711 -0.55909151
v 0.78195643 0.00527446 -0.00015864
v 0.91010082 0.14992136 -0.16820616
v 0.85639554 0.06484184 -0.08917981
v 0.85801202 0.07054587 0.08896589
v 0.90697920 0.15055552 0.17017236
v 0.94281912 0.64014143 -0.41638553
v 0.96069562 0.51362169 -0.37295967
v 1.02748573 0.51162064 -0.08686536
v 1.00458372 0.51306784 -0.22940777
v 1.02140772 0.64021367 -0.14236812
v 0.96189439 0.38732618 -0.31679094
v 0.94689631 0.27092823 -0.25307873
v 0.96049851 0.51347071 0.37269241
v 0.94142979 0.63884735 0.41371113
v 0.94453788 0.27447653 0.25358894
v 0.96115637 0.38887262 0.31621337
v 1.01892602 0.63849145 0.14151749
v 1.00272954 0.51131117 0.22750206
v 1.02548647 0.51219618 0.08418716
v 0.96897161 0.25997844 -0.08738053
v 1.01188588 0.38504872 -0.00017782
v 0.96770966 0.26103660 0.08741871
v 0.14076883 0.29765785 0.97707814
v 0.40458721 0.41528845 0.93413490
v 0.27941102 0.35383850 0.96535385
v 0.13891353 0.42953637 1.00927675
v 0.13696794 0.56094778 1.02166557
v 0.73105490 0.64153725 0.72266805
v 0.53101569 0.79173005 0.85923499
v 0.63545394 0.71910560 0.79902750
v 0.64141273 0.56567347 0.80768138
v 0.53993028 0.49383914 0.87478226
v 0.13221270 0.98292965 0.93508571
v 0.13584225 0.71916980 1.01341295
v 0.13405327 0.85125017 0.98380470
v 0.26692340 0.92941219 0.92982382
v 0.39182478 0.86931163 0.90544391
v 0.41255483 0.56309789 0.94452131
v 0.40918863 0.72045964 0.93749475
v 0.27345344 0.64133829 0.99341619
v -0.64884400 0.00000000 0.23680861
v -0.51109171 0.00000000 0.52437955
v -0.58657497 0.00000000 0.38704467
v -0.72094363 0.00747166 0.32969823
v -0.76860553 0.07827555 0.40704691
v -0.23273532 0.10702986 0.86318654
v -0.50004476 0.20786262 0.80966699
v -0.37421831 0.15419257 0.84451300
v -0.32784703 0.04579961 0.77384716
v -0.41330400 0.00345066 0.66574514
v -0.82640421 0.43909329 0.59738892
v -0.81054127 0.19860515 0.48848978
v -0.82609558 0.31364030 0.54629570
v -0.73806143 0.36117423 0.68391615
v -0.63615310 0.28885463 0.75425696
v -0.56458747 0.04886967 0.62445295
v -0.60557455 0.15667656 0.69745022
v -0.69972885 0.11528781 0.56125849
v -0.23046196 0.10768705 -0.86080956
v -0.41464710 0.00118480 -0.66810095
v -0.32585075 0.03908528 -0.77408201
v -0.37254524 0.15130860 -0.84325296
v -0.49779847 0.20566434 -0.80928713
v -0.63777643 0.00000000 -0.24278605
v -0.77051884 0.08099876 -0.40494776
v -0.72123319 0.01069920 -0.32663533
v -0.57466793 0.00000000 -0.39113766
v -0.50280088 0.00000000 -0.52636522
v -0.82603365 0.43548939 -0.59783602
v -0.63460898 0.28290197 -0.74571931
v -0.73775184 0.35320911 -0.68083084
v -0.82493955 0.30694288 -0.54575622
v -0.80835479 0.19386217 -0.48533958
v -0.56650400 0.04171664 -0.62130183
v -0.69753349 0.10546499 -0.55875808
v -0.60295290 0.15341070 -0.69534439
v 0.73252255 0.64010632 -0.72382975
v 0.53997767 0.49114630 -0.87585384
v 0.64117843 0.56267226 -0.80750453
v 0.63475800 0.71663237 -0.79888064
v 0.52926755 0.78859758 -0.85584760
v 0.13935030 0.29865539 -0.97887123
v 0.13559358 0.56238747 -1.02288866
v 0.13719511 0.42931920 -1.00998163
v 0.27797911 0.35388112 -0.96694648
v 0.40368667 0.41307634 -0.93507791
v 0.13331611 0.98289323 -0.93360537
v 0.39202017 0.86743951 -0.90385026
v 0.26746991 0.92711210 -0.92652422
v 0.13465273 0.85121739 -0.98238158
v 0.13462718 0.71933174 -1.01199889
v 0.41262197 0.56126702 -0.94489837
v 0.27297482 0.64060664 -0.99200636
v 0.40887752 0.71754390 -0.93416303
v 0.94325310 0.76468271 0.36604708
v 1.00929344 0.76552516 0.08496761
v 0.98801297 0.76658875 0.22525205
v 0.92954659 0.89216954 0.30602199
v 0.90015239 1.00914824 0.24085435
v 0.94519687 0.76599199 -0.36604974
v 0.89984298 1.00865376 -0.24097855
v 0.93094957 0.89234102 -0.30541959
v 0.98774964 0.76635045 -0.22496645
v 1.01001787 0.76752681 -0.08311768
v 0.70476943 1.32370818 0.00000490
v 0.84537137 1.13716924 0.15754209
v 0.78336841 1.23501933 0.08169792
v 0.78277540 1.23449171 -0.08102554
v 0.84495389 1.13683391 -0.15688802
v 0.97730601 0.89344847 0.00095152
v 0.92051852 1.02116489 -0.08284117
v 0.92144132 1.02147329 0.08303489
f 330 87 329
f 336 325 26
f 207 208 56
f 464 36 580
f 502 129 504
f 157 624 622
f 308 311 82
f 247 223 248
f 507 483 508
f 331 88 329
f 494 500 497
f 156 601 602
f 591 589 592
f 365 98 596
f 75 281 282
f 152 587 577
f 149 559 560
f 555 121 553
f 530 141 529
f 515 517 139
f 361 594 98
f 250 67 249
f 157 608 609
f 294 293 209
f 317 81 316
f 557 338 26
f 303 305 81
f 530 529 528
f 101 381 382
f 415 418 111
f 192 184 50
f 412 110 411
f 20 384 256
f 131 594 486
f 281 264 282
f 347 287 348
f 28 349 582
f 165 163 1
f 248 250 66
f 617 107 398
f 273 271 274
f 456 115 453
f 558 561 560
f 335 576 91
f 331 177 332
f 116 433 436
f 351 370 92
f 136 511 530
f 239 240 65
f 247 258 19
f 304 23 567
f 148 557 570
f 214 208 58
f 440 426 450
f 268 270 269
f 258 247 268
f 204 202 16
f 466 125 465
f 517 513 133
f 168 275 274
f 275 73 274
f 198 193 53
f 309 308 307
f 510 511 136
f 415 416 110
f 131 490 597
f 473 475 474
f 414 415 111
f 493 495 494
f 496 504 485
f 433 116 432
f 600 375 601
f 240 234 65
f 418 415 412
f 486 361 3
f 567 566 304
f 380 393 29
f 17 199 197
f 491 492 132
f 451 449 435
f 218 217 216
f 623 621 613
f 396 104 395
f 433 439 436
f 628 160 627
f 215 202 217
f 209 207 2
f 427 113 424
f 434 10 544
f 434 433 432
f 199 17 210
f 150 564 565
f 489 491 132
f 275 13 285
f 497 500 134
f 125 466 476
f 578 152 577
f 208 214 211
f 328 88 343
f 356 27 603
f 150 566 567
f 372 100 371
f 190 191 47
f 235 8 398
f 260 261 72
f 422 403 414
f 422 414 111
f 453 454 123
f 349 583 582
f 521 520 519
f 425 453 115
f 616 622 158
f 483 130 508
f 151 586 572
f 212 17 232
f 400 397 402
f 377 396 99
f 41 522 511
f 510 508 505
f 549 547 42
f 475 473 36
f 510 137 509
f 222 221 197
f 430 115 429
f 220 194 1
f 305 54 204
f 621 29 613
f 192 171 184
f 460 335 5
f 88 331 332
f 74 277 279
f 300 301 80
f 390 389 388
f 165 45 164
f 146 549 551
f 291 278 75
f 448 120 445
f 147 543 544
f 607 610 609
f 603 602 356
f 139 529 514
f 333 553 443
f 92 368 347
f 261 260 259
f 300 6 200
f 46 177 331
f 284 283 174
f 301 300 200
f 471 468 474
f 54 305 301
f 302 304 303
f 569 150 567
f 150 569 570
f 294 209 2
f 628 629 160
f 548 543 147
f 147 625 627
f 63 233 234
f 426 427 114
f 41 509 532
f 198 52 196
f 614 105 612
f 147 627 547
f 81 305 306
f 549 548 547
f 54 301 200
f 342 88 332
f 264 281 70
f 193 194 53
f 455 429 456
f 187 321 14
f 479 130 484
f 147 544 625
f 458 456 453
f 304 80 303
f 314 84 313
f 488 503 501
f 321 332 14
f 423 425 424
f 305 204 306
f 341 339 25
f 514 40 516
f 625 628 627
f 340 339 341
f 105 614 391
f 243 228 62
f 318 316 78
f 75 278 279
f 357 355 353
f 238 257 63
f 466 455 476
f 425 423 4
f 448 449 120
f 408 638 108
f 292 275 285
f 22 278 289
f 515 513 517
f 501 503 134
f 622 623 158
f 134 503 504
f 195 216 206
f 163 271 246
f 619 617 620
f 62 228 229
f 163 165 164
f 453 425 454
f 489 132 488
f 82 628 625
f 58 208 209
f 525 608 40
f 626 547 627
f 518 517 498
f 489 487 491
f 557 26 564
f 325 336 344
f 541 145 539
f 40 616 516
f 338 556 89
f 250 248 245
f 139 514 515
f 98 594 596
f 246 220 1
f 112 413 630
f 9 536 413
f 156 600 601
f 332 177 14
f 321 342 332
f 156 606 600
f 584 330 585
f 302 303 81
f 584 87 330
f 330 25 585
f 400 239 65
f 439 440 117
f 95 358 368
f 597 594 131
f 594 361 486
f 246 67 245
f 561 562 149
f 28 364 362
f 55 216 217
f 427 430 114
f 267 20 254
f 556 555 553
f 84 309 558
f 311 310 312
f 609 525 142
f 256 68 255
f 124 460 461
f 82 311 312
f 307 308 82
f 589 135 495
f 527 40 514
f 112 418 412
f 20 256 254
f 258 238 19
f 267 254 269
f 273 272 249
f 392 391 393
f 137 533 509
f 122 455 456
f 9 413 411
f 130 480 505
f 333 443 5
f 527 525 40
f 589 495 385
f 39 496 485
f 223 225 224
f 414 416 415
f 219 222 53
f 145 538 539
f 413 412 411
f 469 468 467
f 183 181 6
f 191 192 50
f 429 35 431
f 292 285 76
f 413 112 412
f 415 110 412
f 43 164 167
f 467 468 126
f 617 101 620
f 450 451 117
f 438 546 545
f 619 620 159
f 17 212 210
f 124 579 576
f 584 153 583
f 460 124 576
f 3 469 467
f 311 308 314
f 6 320 183
f 389 104 388
f 251 250 249
f 194 165 1
f 291 289 278
f 287 77 348
f 238 258 257
f 139 517 518
f 238 236 19
f 223 247 19
f 382 380 29
f 39 518 498
f 361 359 3
f 69 255 257
f 139 518 528
f 33 545 535
f 387 385 7
f 69 268 269
f 477 462 125
f 454 479 123
f 121 555 447
f 451 435 117
f 454 425 4
f 233 252 8
f 124 463 464
f 69 258 268
f 168 167 166
f 583 153 582
f 384 394 102
f 138 512 513
f 57 210 211
f 254 256 255
f 607 609 142
f 324 319 86
f 289 291 76
f 291 292 76
f 384 102 383
f 422 421 420
f 221 17 197
f 383 102 381
f 376 377 99
f 99 373 374
f 386 105 392
f 438 33 440
f 90 341 343
f 281 75 279
f 574 571 96
f 628 82 312
f 221 222 59
f 127 471 474
f 595 605 603
f 551 538 145
f 334 91 340
f 322 324 85
f 305 303 301
f 18 239 399
f 306 204 16
f 199 198 197
f 166 190 180
f 303 80 301
f 267 266 265
f 626 42 547
f 16 215 213
f 349 351 350
f 295 16 213
f 68 379 252
f 250 251 66
f 627 160 626
f 383 68 256
f 343 88 342
f 507 508 136
f 202 215 16
f 197 198 53
f 254 69 269
f 603 605 156
f 418 419 111
f 384 383 256
f 455 122 476
f 203 204 54
f 556 557 148
f 255 68 253
f 313 84 560
f 25 328 341
f 254 255 69
f 603 156 602
f 581 584 583
f 630 632 112
f 163 246 1
f 246 245 220
f 432 116 558
f 499 591 590
f 320 563 86
f 345 93 350
f 306 16 295
f 346 93 345
f 562 568 149
f 604 605 155
f 154 592 593
f 545 552 535
f 511 522 530
f 574 573 571
f 566 150 565
f 361 98 360
f 67 271 273
f 234 235 65
f 208 211 56
f 574 151 573
f 251 270 66
f 398 8 378
f 213 215 214
f 438 440 439
f 315 314 313
f 263 71 262
f 20 373 384
f 496 134 504
f 329 88 328
f 81 306 316
f 555 556 148
f 592 589 103
f 617 619 107
f 227 207 56
f 571 359 96
f 446 466 465
f 206 216 55
f 359 571 469
f 568 148 570
f 34 437 435
f 28 351 349
f 21 272 282
f 113 423 424
f 490 489 488
f 379 68 383
f 210 212 211
f 80 563 300
f 351 92 350
f 326 346 12
f 83 317 318
f 555 148 554
f 212 231 56
f 218 57 217
f 271 67 246
f 195 196 52
f 270 268 66
f 390 592 103
f 148 568 554
f 495 493 7
f 592 390 593
f 357 95 355
f 574 575 151
f 452 120 451
f 154 591 592
f 587 585 577
f 395 394 396
f 93 349 350
f 610 416 611
f 166 44 190
f 315 23 302
f 315 302 317
f 268 247 66
f 606 154 593
f 396 394 99
f 211 212 56
f 370 369 368
f 235 397 65
f 280 278 22
f 83 315 317
f 575 588 151
f 74 279 280
f 385 495 7
f 63 257 253
f 397 235 398
f 214 58 213
f 220 219 194
f 546 146 545
f 236 225 19
f 599 94 602
f 235 233 8
f 102 394 395
f 611 416 32
f 225 223 19
f 139 528 529
f 231 62 229
f 419 406 421
f 451 450 452
f 49 182 185
f 402 397 107
f 52 199 218
f 416 610 110
f 225 236 244
f 107 397 398
f 68 252 253
f 322 85 321
f 182 181 183
f 118 438 439
f 546 438 118
f 348 77 345
f 543 546 118
f 231 212 232
f 610 611 157
f 33 438 545
f 385 386 103
f 479 480 130
f 169 195 15
f 93 583 349
f 15 195 206
f 190 44 192
f 247 248 66
f 146 552 545
f 248 60 245
f 570 557 564
f 274 271 43
f 63 253 233
f 272 21 249
f 507 528 518
f 67 273 249
f 487 467 126
f 196 195 169
f 624 159 623
f 134 496 497
f 132 503 488
f 104 393 395
f 556 553 89
f 355 356 94
f 258 69 257
f 229 61 227
f 56 231 227
f 460 576 335
f 463 124 461
f 394 373 99
f 29 393 391
f 67 250 245
f 193 198 196
f 462 36 464
f 144 633 630
f 141 526 527
f 517 133 498
f 536 144 630
f 100 372 599
f 144 536 537
f 22 289 287
f 578 579 152
f 579 578 576
f 189 188 187
f 60 223 224
f 92 348 350
f 555 554 447
f 396 377 388
f 194 193 165
f 413 536 630
f 372 352 599
f 377 376 375
f 348 345 350
f 105 386 387
f 240 237 234
f 463 462 464
f 135 500 494
f 45 196 169
f 512 612 387
f 245 60 220
f 429 115 456
f 223 60 248
f 288 289 76
f 525 526 142
f 100 599 601
f 613 29 391
f 526 523 520
f 341 328 343
f 631 641 639
f 264 21 282
f 266 72 265
f 106 402 403
f 73 273 274
f 186 206 205
f 381 379 383
f 52 216 195
f 410 18 399
f 290 272 73
f 72 371 374
f 526 525 527
f 115 430 424
f 498 497 496
f 621 382 29
f 543 118 434
f 214 215 57
f 522 141 530
f 511 510 509
f 352 94 599
f 493 512 7
f 90 340 341
f 169 171 170
f 605 604 606
f 219 60 224
f 104 389 392
f 359 469 3
f 186 49 185
f 222 219 224
f 166 167 44
f 428 427 426
f 523 522 524
f 129 502 481
f 50 185 188
f 164 45 170
f 425 115 424
f 33 428 426
f 427 428 113
f 94 356 602
f 515 138 513
f 114 431 452
f 237 236 238
f 215 217 57
f 95 354 355
f 220 60 219
f 515 514 516
f 183 320 319
f 222 197 53
f 559 569 567
f 300 320 6
f 435 436 117
f 96 360 363
f 640 642 641
f 242 243 62
f 140 537 519
f 508 130 505
f 420 410 399
f 537 539 144
f 317 316 318
f 426 114 450
f 186 15 206
f 311 83 310
f 625 544 307
f 544 10 307
f 168 43 167
f 185 182 188
f 369 354 95
f 44 171 192
f 605 606 156
f 548 549 146
f 100 601 375
f 149 568 569
f 381 380 382
f 455 466 35
f 480 479 454
f 543 548 546
f 493 133 513
f 492 472 37
f 477 125 476
f 491 487 126
f 337 336 338
f 588 153 587
f 576 578 91
f 633 161 632
f 96 359 360
f 39 485 483
f 101 617 378
f 193 45 165
f 163 164 43
f 618 624 611
f 507 136 528
f 561 149 560
f 641 162 639
f 116 561 558
f 494 133 493
f 253 252 233
f 63 237 238
f 392 393 104
f 440 450 117
f 93 581 583
f 386 385 387
f 120 449 451
f 421 422 111
f 486 3 467
f 302 81 317
f 633 632 630
f 462 475 36
f 376 99 374
f 489 490 131
f 447 449 448
f 387 612 105
f 106 420 399
f 173 46 172
f 492 491 472
f 316 306 295
f 22 287 347
f 109 410 420
f 507 39 483
f 559 23 313
f 214 57 211
f 196 45 193
f 10 434 432
f 422 106 403
f 626 160 640
f 487 486 467
f 542 41 532
f 400 106 399
f 444 120 452
f 198 199 52
f 475 127 474
f 621 620 382
f 621 623 159
f 450 114 452
f 92 347 348
f 376 100 375
f 434 118 433
f 503 132 502
f 337 90 336
f 537 536 519
f 395 393 380
f 201 54 200
f 171 44 170
f 355 94 353
f 58 296 213
f 422 420 106
f 595 365 596
f 569 568 570
f 523 140 520
f 114 430 431
f 218 210 57
f 304 566 80
f 639 162 638
f 261 371 72
f 548 147 547
f 498 133 497
f 150 570 564
f 222 224 59
f 142 526 520
f 437 436 435
f 141 522 523
f 137 510 505
f 173 179 176
f 559 149 569
f 121 447 448
f 563 320 300
f 102 395 380
f 257 255 253
f 642 162 641
f 83 311 314
f 216 52 218
f 512 493 513
f 23 304 302
f 91 339 340
f 512 138 612
f 159 620 621
f 218 199 210
f 364 28 575
f 83 318 310
f 168 274 43
f 136 530 528
f 140 523 524
f 495 135 494
f 233 235 234
f 566 563 80
f 25 339 577
f 277 74 276
f 475 462 477
f 133 494 497
f 436 437 116
f 389 386 392
f 548 146 546
f 441 460 5
f 10 309 307
f 65 397 400
f 543 434 544
f 640 641 161
f 272 273 73
f 581 93 346
f 419 421 111
f 319 320 86
f 180 179 178
f 127 475 477
f 231 229 227
f 337 334 340
f 136 508 510
f 308 309 84
f 237 63 234
f 447 554 34
f 252 379 378
f 315 83 314
f 608 622 616
f 338 336 26
f 337 338 89
f 13 275 168
f 209 208 207
f 436 439 117
f 628 312 629
f 360 366 363
f 364 574 96
f 359 361 360
f 466 446 35
f 500 501 134
f 406 109 421
f 135 589 591
f 601 599 602
f 340 90 337
f 481 492 37
f 522 41 524
f 78 316 295
f 131 486 487
f 403 32 414
f 634 626 640
f 151 572 573
f 515 516 138
f 8 252 378
f 265 72 374
f 9 521 519
f 538 549 42
f 368 358 347
f 588 587 586
f 458 453 123
f 589 385 103
f 502 492 481
f 32 416 414
f 430 427 424
f 153 585 587
f 540 144 539
f 370 368 92
f 209 293 58
f 428 33 535
f 326 581 346
f 625 307 82
f 575 28 582
f 6 181 200
f 421 109 420
f 553 121 443
f 160 642 640
f 153 584 585
f 309 432 558
f 334 337 89
f 23 315 313
f 271 163 43
f 296 295 213
f 39 498 496
f 118 439 433
f 531 113 534
f 293 296 58
f 28 362 351
f 489 131 487
f 431 444 452
f 84 558 560
f 98 366 360
f 45 169 170
f 379 101 378
f 462 463 125
f 308 84 314
f 10 432 309
f 299 24 310
f 132 492 502
f 512 387 7
f 639 638 408
f 565 323 86
f 59 244 242
f 106 400 402
f 440 33 426
f 566 565 563
f 617 398 378
f 224 225 59
f 410 109 409
f 239 400 399
f 194 219 53
f 358 22 347
f 610 157 609
f 27 595 603
f 479 484 482
f 142 520 521
f 585 25 577
f 339 578 577
f 408 407 406
f 407 109 406
f 31 408 406
f 407 408 108
f 31 639 408
f 419 31 406
f 608 616 40
f 430 429 431
f 455 35 429
f 35 444 431
f 188 51 187
f 188 182 51
f 51 322 187
f 322 51 319
f 51 182 183
f 319 51 183
f 187 322 321
f 322 319 324
f 381 101 379
f 405 407 108
f 404 405 108
f 286 285 178
f 407 405 409
f 109 407 409
f 191 175 47
f 167 164 170
f 50 184 185
f 44 167 170
f 64 244 236
f 243 244 64
f 50 188 189
f 541 542 145
f 442 445 119
f 339 91 578
f 445 446 119
f 624 623 622
f 611 624 157
f 523 526 141
f 141 527 529
f 527 514 529
f 445 120 444
f 446 445 444
f 35 446 444
f 613 614 158
f 158 614 615
f 623 613 158
f 614 613 391
f 614 612 615
f 371 376 374
f 100 376 371
f 479 482 123
f 373 394 384
f 540 42 634
f 633 540 634
f 538 42 540
f 633 634 161
f 161 634 640
f 42 626 634
f 540 633 144
f 557 556 338
f 553 333 89
f 262 21 264
f 251 21 262
f 5 335 333
f 270 251 262
f 21 251 249
f 600 593 30
f 606 593 600
f 600 30 375
f 593 390 30
f 30 377 375
f 390 388 30
f 30 388 377
f 228 243 241
f 470 478 459
f 470 127 478
f 127 477 478
f 184 186 185
f 478 477 476
f 122 478 476
f 357 74 280
f 518 39 507
f 344 342 85
f 325 344 85
f 342 344 343
f 85 342 321
f 344 90 343
f 90 344 336
f 482 129 481
f 482 481 457
f 482 457 123
f 481 37 457
f 449 447 34
f 435 449 34
f 470 472 471
f 472 470 37
f 470 471 127
f 472 126 471
f 126 468 471
f 470 459 37
f 491 126 472
f 504 129 485
f 221 59 242
f 125 463 465
f 437 34 562
f 561 437 562
f 554 568 562
f 34 554 562
f 437 561 116
f 390 103 389
f 103 386 389
f 392 105 391
f 572 586 580
f 572 580 36
f 586 152 580
f 473 572 36
f 244 243 242
f 225 244 59
f 64 240 241
f 240 239 241
f 237 240 64
f 243 64 241
f 236 237 64
f 411 607 521
f 9 411 521
f 110 607 411
f 607 142 521
f 610 607 110
f 171 15 184
f 171 169 15
f 15 186 184
f 87 584 581
f 153 588 582
f 588 575 582
f 381 102 380
f 573 572 473
f 468 469 128
f 474 468 128
f 469 571 128
f 571 573 128
f 573 473 128
f 473 474 128
f 564 323 565
f 26 323 564
f 323 324 86
f 325 323 26
f 325 324 323
f 563 565 86
f 324 325 85
f 410 230 18
f 230 228 18
f 18 228 241
f 18 241 239
f 401 619 618
f 401 402 107
f 403 402 401
f 619 159 618
f 401 618 32
f 619 401 107
f 403 401 32
f 618 611 32
f 159 624 618
f 478 122 459
f 122 458 459
f 37 459 457
f 459 458 457
f 122 456 458
f 457 458 123
f 191 190 192
f 485 129 484
f 129 482 484
f 483 485 484
f 130 483 484
f 189 187 14
f 191 50 189
f 191 189 175
f 189 14 175
f 14 177 175
f 499 501 500
f 501 499 38
f 38 499 590
f 135 499 500
f 488 501 38
f 499 135 591
f 480 454 4
f 284 12 346
f 4 423 506
f 480 4 506
f 423 531 506
f 480 506 505
f 531 137 506
f 506 137 505
f 365 366 98
f 71 270 262
f 270 71 269
f 71 267 269
f 335 334 333
f 333 334 89
f 334 335 91
f 536 9 519
f 465 463 461
f 537 140 541
f 520 140 519
f 119 446 465
f 465 461 119
f 461 441 119
f 460 441 461
f 176 46 173
f 299 297 24
f 71 263 266
f 263 260 266
f 260 72 266
f 263 70 260
f 205 201 49
f 201 181 49
f 186 205 49
f 181 201 200
f 181 182 49
f 284 77 283
f 586 587 152
f 588 586 151
f 20 267 265
f 266 267 71
f 31 417 631
f 631 417 632
f 31 631 639
f 417 31 419
f 641 631 161
f 417 112 632
f 161 631 632
f 418 417 419
f 417 418 112
f 284 345 77
f 542 550 145
f 542 541 524
f 284 174 12
f 48 174 283
f 373 20 265
f 373 265 374
f 609 608 525
f 608 157 622
f 560 559 313
f 636 637 162
f 541 140 524
f 41 542 524
f 358 357 280
f 70 263 264
f 263 262 264
f 176 177 46
f 174 48 173
f 174 173 172
f 538 551 549
f 538 540 539
f 537 541 539
f 232 221 242
f 17 221 232
f 232 242 62
f 231 232 62
f 203 205 55
f 203 55 202
f 201 205 203
f 202 55 217
f 205 206 55
f 204 203 202
f 73 275 292
f 292 290 73
f 272 290 282
f 290 292 291
f 75 290 291
f 290 75 282
f 70 277 259
f 277 70 281
f 277 281 279
f 260 70 259
f 12 174 172
f 104 396 388
f 367 27 354
f 365 27 367
f 354 27 356
f 365 367 366
f 595 27 365
f 318 299 310
f 155 596 597
f 155 597 598
f 596 594 597
f 595 596 155
f 605 595 155
f 180 47 179
f 180 190 47
f 352 372 11
f 11 372 261
f 312 310 24
f 642 636 162
f 636 297 637
f 367 369 97
f 366 367 97
f 369 367 354
f 369 370 97
f 580 579 464
f 580 152 579
f 579 124 464
f 61 230 409
f 230 410 409
f 230 61 229
f 230 229 228
f 76 285 286
f 353 352 276
f 74 353 276
f 288 76 286
f 288 286 283
f 289 288 287
f 203 54 201
f 287 288 77
f 77 288 283
f 286 48 283
f 531 423 113
f 276 11 259
f 11 261 259
f 277 276 259
f 616 158 615
f 516 616 615
f 138 516 615
f 138 615 612
f 509 533 532
f 503 502 504
f 635 79 294
f 635 294 404
f 635 637 79
f 637 635 638
f 638 635 108
f 635 404 108
f 226 61 405
f 61 226 227
f 405 61 409
f 227 226 207
f 48 178 179
f 48 286 178
f 173 48 179
f 534 143 533
f 534 535 143
f 531 534 533
f 533 143 532
f 137 531 533
f 261 372 371
f 13 180 178
f 285 13 178
f 180 13 166
f 13 168 166
f 346 345 284
f 331 327 46
f 46 327 172
f 172 327 326
f 382 620 101
f 442 121 448
f 443 121 442
f 2 226 404
f 294 2 404
f 404 226 405
f 207 226 2
f 550 551 145
f 552 146 551
f 143 550 532
f 552 550 143
f 330 329 328
f 24 636 629
f 94 352 353
f 352 11 276
f 113 428 534
f 428 535 534
f 509 41 511
f 535 552 143
f 550 552 551
f 550 542 532
f 369 95 368
f 326 327 87
f 87 327 329
f 327 331 329
f 581 326 87
f 293 79 298
f 79 297 298
f 296 298 78
f 79 293 294
f 296 293 298
f 598 490 38
f 358 280 22
f 280 279 278
f 357 358 95
f 74 357 353
f 330 328 25
f 567 23 559
f 590 598 38
f 590 604 598
f 598 604 155
f 604 590 154
f 590 591 154
f 604 154 606
f 297 299 298
f 299 318 78
f 298 299 78
f 355 354 356
f 629 636 642
f 312 24 629
f 629 642 160
f 370 362 97
f 362 363 97
f 363 366 97
f 364 363 362
f 362 370 351
f 96 363 364
f 297 636 24
f 162 637 638
f 637 297 79
f 490 488 38
f 598 597 490
f 441 442 119
f 443 442 441
f 443 441 5
f 442 448 445
f 296 78 295
f 326 12 172
f 575 574 364
f 47 175 176
f 175 177 176
f 47 176 179
