# FEM surface export ¡ª frame 123
# Vertices: 642  Faces: 1280
v -0.52573383 1.78470659 -0.00000001
v 0.52573222 1.78470314 -0.00000022
v -0.53201735 0.08365770 0.00053833
v 0.53434289 0.08336515 -0.00004787
v -0.00003994 0.40835166 0.85130489
v -0.00000060 1.45979142 0.85065937
v 0.00001836 0.40838063 -0.85144174
v -0.00000081 1.45978963 -0.85065842
v 0.85069627 0.93406969 -0.52575952
v 0.85071665 0.93407989 0.52577376
v -0.85071343 0.93407732 -0.52577221
v -0.85070443 0.93406522 0.52576196
v -0.80902618 1.43405795 0.30902186
v -0.50001293 1.24308228 0.80904067
v -0.30901816 1.74306977 0.50000173
v 0.30901825 1.74307144 0.50000221
v 0.00000006 1.93405151 -0.00000010
v 0.30901787 1.74307036 -0.50000113
v -0.30901861 1.74307346 -0.50000244
v -0.50001401 1.24308348 -0.80903918
v -0.80902952 1.43406200 -0.30902147
v -1.00004482 0.93405986 -0.00000507
v 0.50001538 1.24308848 0.80904907
v 0.80902296 1.43405735 0.30902004
v -0.50011760 0.62508816 0.80921572
v 0.00000412 0.93406957 1.00005972
v -0.80963612 0.43412793 -0.30923635
v -0.80945259 0.43415698 0.30913585
v 0.00000017 0.93407720 -1.00006080
v -0.50011927 0.62506938 -0.80923337
v 0.80902308 1.43405426 -0.30901939
v 0.50000620 1.24307787 -0.80902958
v 0.80955619 0.43409145 0.30921227
v 0.50011897 0.62508029 0.80915713
v 0.31354222 0.12465461 0.50508219
v -0.31292084 0.12416651 0.50426799
v -0.00066597 0.00000000 -0.00135071
v -0.31148496 0.12532324 -0.50386649
v 0.31191665 0.12527484 -0.50395471
v 0.50014120 0.62509912 -0.80925161
v 0.80971849 0.43428007 -0.30926138
v 1.00008547 0.93408185 0.00000285
v -0.69378567 1.63610208 0.16062309
v -0.58778906 1.62224996 0.42533034
v -0.43389007 1.79672277 0.25989249
v -0.70206934 1.09468889 0.69381166
v -0.68820012 1.35938334 0.58779401
v -0.86269540 1.19395757 0.43390507
v -0.16062301 1.62783480 0.70205003
v -0.42532903 1.52184248 0.68819535
v -0.25989336 1.36795008 0.86268234
v -0.16246013 1.88510931 0.26286632
v -0.27326679 1.89599097 -0.00000010
v 0.16062264 1.62783420 0.70204937
v 0.00000002 1.78470325 0.52573276
v 0.27326718 1.89599013 -0.00000007
v 0.16246009 1.88511074 0.26286665
v 0.43388987 1.79672205 0.25989255
v -0.16246013 1.88510883 -0.26286632
v -0.43389022 1.79672480 -0.25989279
v 0.43388957 1.79672086 -0.25989246
v 0.16246031 1.88510895 -0.26286608
v -0.16062260 1.62783456 -0.70205027
v 0.00000014 1.78470373 -0.52573270
v 0.16062279 1.62783444 -0.70204949
v -0.58779091 1.62224960 -0.42532790
v -0.69378459 1.63610220 -0.16062364
v -0.25989416 1.36794508 -0.86267751
v -0.42532945 1.52184534 -0.68819737
v -0.86269301 1.19395506 -0.43390003
v -0.68820012 1.35938704 -0.58779615
v -0.70206863 1.09468782 -0.69380224
v -0.85066229 1.45979333 0.00000241
v -0.96199882 0.93406284 -0.27328941
v -0.95108986 1.19693244 -0.16246851
v -0.95109046 1.19693220 0.16246572
v -0.96200365 0.93406206 0.27328530
v 0.58778924 1.62224579 0.42532840
v 0.69378304 1.63610065 0.16062245
v 0.25989622 1.36793613 0.86267209
v 0.42532703 1.52184105 0.68819374
v 0.86268669 1.19395053 0.43390250
v 0.68820149 1.35938549 0.58778977
v 0.70206833 1.09468615 0.69379717
v -0.26287150 1.09652698 0.95109344
v 0.00000242 1.20732951 0.96195978
v -0.70217741 0.77347344 0.69388396
v -0.52576727 0.93408549 0.85069156
v 0.00001686 0.66081691 0.96214938
v -0.26287121 0.77161330 0.95119542
v -0.26000699 0.50013465 0.86318183
v -0.95121485 0.67119658 0.16250107
v -0.86279279 0.67418164 0.43393984
v -0.86281830 0.67419493 -0.43396828
v -0.95126384 0.67120993 -0.16249549
v -0.69605178 0.23193724 0.16149744
v -0.85127825 0.40844586 0.00009124
v -0.69652277 0.23163417 -0.16125545
v -0.52578008 0.93406558 -0.85072500
v -0.70212537 0.77346539 -0.69386625
v -0.00000162 1.20732749 -0.96195614
v -0.26287484 1.09653521 -0.95110691
v -0.26008978 0.50016165 -0.86310458
v -0.26289111 0.77161354 -0.95118278
v 0.00002212 0.66083890 -0.96214217
v 0.42532718 1.52183926 -0.68819422
v 0.25989616 1.36794567 -0.86267692
v 0.69378316 1.63610101 -0.16062304
v 0.58778787 1.62224495 -0.42532617
v 0.70206541 1.09468651 -0.69379908
v 0.68819875 1.35938478 -0.58779383
v 0.86268365 1.19395053 -0.43389526
v 0.69703269 0.23177914 0.16136582
v 0.59007531 0.24538538 0.42611918
v 0.43997598 0.07063715 0.26392400
v 0.70214903 0.77346385 0.69389594
v 0.68851006 0.50869882 0.58807260
v 0.86276948 0.67416066 0.43392655
v 0.16112307 0.24037647 0.70482212
v 0.42576349 0.34636357 0.68900514
v 0.26008490 0.50029016 0.86312044
v 0.16700755 0.00055876 0.26984939
v 0.28292182 0.00000000 0.00008002
v -0.16125295 0.23996294 0.70398146
v -0.00037376 0.08581161 0.53194147
v -0.28386000 0.00000000 -0.00124950
v -0.17008284 0.00033426 0.27025387
v -0.43808177 0.07209329 0.26340237
v 0.16525348 0.00020308 -0.26884258
v 0.43837887 0.07018935 -0.26304871
v -0.44105646 0.07247018 -0.26399657
v -0.16701898 0.00000000 -0.26886892
v 0.16109663 0.24026072 -0.70459849
v 0.00021245 0.08262084 -0.53151572
v -0.16084433 0.23972386 -0.70504630
v 0.58993310 0.24559386 -0.42675388
v 0.69744843 0.23176678 -0.16172759
v 0.26008615 0.50013208 -0.86306661
v 0.42585081 0.34631833 -0.68911123
v 0.86285162 0.67421454 -0.43395936
v 0.68855035 0.50883901 -0.58810925
v 0.70213717 0.77347529 -0.69388044
v 0.85109645 0.40829098 0.00002258
v 0.96200591 0.93406951 -0.27328825
v 0.95119303 0.67120713 -0.16249314
v 0.95116508 0.67120165 0.16246803
v 0.96197385 0.93406057 0.27327952
v 0.26289615 0.77161688 0.95114809
v 0.52575338 0.93406630 0.85069108
v 0.26287293 1.09651840 0.95108759
v -0.58977479 0.24541509 0.42680901
v -0.42610216 0.34657371 0.68958586
v -0.68850875 0.50874519 0.58800077
v -0.42611143 0.34617165 -0.68937886
v -0.58985490 0.24573655 -0.42690355
v -0.68868995 0.50878382 -0.58810472
v 0.52575862 0.93407261 -0.85070336
v 0.26290220 0.77162081 -0.95118314
v 0.26287925 1.09653139 -0.95109463
v 0.95107734 1.19692647 0.16246335
v 0.95107210 1.19692540 -0.16246372
v 0.85065830 1.45978856 0.00000020
v -0.61564505 1.71789861 0.08108702
v -0.57125431 1.72670436 0.21302396
v -0.48444325 1.79898286 0.13120106
v -0.70711672 1.53556061 0.37175205
v -0.64741576 1.63636804 0.29600757
v -0.75865799 1.54088080 0.23708794
v -0.37503994 1.77796483 0.38361540
v -0.51612341 1.71750653 0.34615523
v -0.45399228 1.69198942 0.46843234
v -0.78388041 1.01515758 0.61566561
v -0.79267365 1.14708889 0.57126683
v -0.86495894 1.06526029 0.48446089
v -0.60151082 1.30580592 0.70711786
v -0.70232946 1.23006725 0.64742714
v -0.60683936 1.17114699 0.75866681
v -0.84392875 1.31767559 0.37504795
v -0.78346527 1.28021324 0.51613128
v -0.75794500 1.40248525 0.45399472
v -0.08108657 1.54969907 0.78384840
v -0.21302353 1.50530815 0.79265493
v -0.13120164 1.41849983 0.86493981
v -0.37174931 1.64116073 0.60150367
v -0.29600573 1.58146822 0.70231396
v -0.23708697 1.69270551 0.60682744
v -0.38362148 1.30911148 0.84393328
v -0.34615695 1.45018327 0.78346145
v -0.46843761 1.38805294 0.75794637
v -0.64658493 1.49831212 0.51338297
v -0.56426167 1.44743395 0.64658338
v -0.51337785 1.58063364 0.56425792
v -0.35822985 1.85835731 0.13165615
v -0.40335616 1.84909630 0.00000035
v -0.23867728 1.82505989 0.38618898
v -0.30125993 1.85029709 0.26408383
v -0.13795243 1.92449212 -0.00000010
v -0.22011745 1.90044498 0.13279270
v -0.08224278 1.92174172 0.13307121
v 0.08108703 1.54969859 0.78384691
v 0.00000038 1.63696146 0.71128416
v 0.15643470 1.77423000 0.51925999
v 0.08114249 1.71425748 0.62024093
v 0.23708673 1.69270527 0.60682762
v -0.08114160 1.71425736 0.62024117
v -0.15643460 1.77423143 0.51926029
v 0.40335613 1.84909499 0.00000002
v 0.35822967 1.85835660 0.13165545
v 0.48444277 1.79898190 0.13120024
v 0.08224269 1.92174017 0.13307121
v 0.22011769 1.90044594 0.13279292
v 0.13795283 1.92449272 -0.00000010
v 0.37503979 1.77796459 0.38361421
v 0.30125982 1.85029769 0.26408377
v 0.23867734 1.82505918 0.38618830
v -0.08232363 1.84703505 0.39960852
v 0.08232334 1.84703422 0.39960748
v -0.00000017 1.89791417 0.26640570
v -0.35822985 1.85835767 -0.13165563
v -0.48444340 1.79898345 -0.13120057
v -0.08224250 1.92174065 -0.13307145
v -0.22011776 1.90044546 -0.13279298
v -0.37504020 1.77796686 -0.38361564
v -0.30125949 1.85029781 -0.26408303
v -0.23867758 1.82506049 -0.38618803
v 0.48444301 1.79898214 -0.13120063
v 0.35822991 1.85835707 -0.13165540
v 0.23867792 1.82505894 -0.38618812
v 0.30125952 1.85029614 -0.26408330
v 0.37503928 1.77796328 -0.38361472
v 0.22011752 1.90044487 -0.13279290
v 0.08224268 1.92174041 -0.13307163
v -0.08108709 1.54969728 -0.78384805
v 0.00000003 1.63696086 -0.71128559
v 0.08108696 1.54969549 -0.78384662
v -0.15643501 1.77423155 -0.51925981
v -0.08114125 1.71425951 -0.62024289
v -0.23708703 1.69270718 -0.60682786
v 0.23708701 1.69270551 -0.60682720
v 0.08114272 1.71425855 -0.62024176
v 0.15643497 1.77423036 -0.51925933
v -0.00000012 1.89791346 -0.26640534
v 0.08232397 1.84703505 -0.39960766
v -0.08232357 1.84703541 -0.39960808
v -0.57125378 1.72670543 -0.21302412
v -0.61564571 1.71789932 -0.08108644
v -0.45399269 1.69199145 -0.46843264
v -0.51612419 1.71750867 -0.34615523
v -0.75866067 1.54088557 -0.23708993
v -0.64741695 1.63636756 -0.29600665
v -0.70711571 1.53556073 -0.37175199
v -0.13120234 1.41850042 -0.86493844
v -0.21302359 1.50530815 -0.79265618
v -0.46843803 1.38805211 -0.75794643
v -0.34615651 1.45018232 -0.78346223
v -0.38361955 1.30910087 -0.84392434
v -0.29600731 1.58146834 -0.70231676
v -0.37174907 1.64116585 -0.60150629
v -0.86497557 1.06526875 -0.48446354
v -0.79268646 1.14709806 -0.57127756
v -0.78388703 1.01515138 -0.61567867
v -0.75794554 1.40249097 -0.45399803
v -0.78347272 1.28022003 -0.51613748
v -0.84393340 1.31767833 -0.37504673
v -0.60684466 1.17115426 -0.75867939
v -0.70233047 1.23006892 -0.64743084
v -0.60151303 1.30580664 -0.70712137
v -0.51337802 1.58063543 -0.56425893
v -0.56426632 1.44743907 -0.64659125
v -0.64658535 1.49831355 -0.51337945
v -0.70291322 1.64533985 0.00000094
v -0.84019148 1.45332217 -0.15643774
v -0.78021193 1.55429828 -0.08114264
v -0.78020972 1.55429602 0.08114330
v -0.84018493 1.45331669 0.15643877
v -0.91511106 0.93407989 -0.40338218
v -0.92434388 1.06571889 -0.35823971
v -0.98773170 1.06713569 -0.08224378
v -0.96641248 1.06685245 -0.22012582
v -0.99050701 0.93406504 -0.13796288
v -0.91626722 1.19814670 -0.30126566
v -0.89102727 1.32025242 -0.23868287
v -0.92435151 1.06572342 0.35825360
v -0.91511172 0.93406808 0.40339017
v -0.89102513 1.32024837 0.23868355
v -0.91627866 1.19815516 0.30127323
v -0.99050891 0.93406761 0.13796239
v -0.96643889 1.06685948 0.22013235
v -0.98772037 1.06713402 0.08224671
v -0.91300857 1.33367312 -0.08232711
v -0.96389258 1.20047212 0.00000152
v -0.91300541 1.33367610 0.08232465
v 0.57125360 1.72670472 0.21302384
v 0.61564386 1.71789634 0.08108602
v 0.45399180 1.69199014 0.46843201
v 0.51612294 1.71750689 0.34615409
v 0.75865626 1.54087913 0.23708794
v 0.64741552 1.63636518 0.29600671
v 0.70711100 1.53555644 0.37175098
v 0.13120246 1.41849685 0.86493826
v 0.21302448 1.50530577 0.79265398
v 0.46843705 1.38805997 0.75795168
v 0.34615403 1.45017815 0.78345901
v 0.38361469 1.30909431 0.84392488
v 0.29600468 1.58146560 0.70231283
v 0.37174925 1.64115930 0.60150236
v 0.86495388 1.06526327 0.48445255
v 0.79266548 1.14708173 0.57126015
v 0.78387135 1.01515055 0.61566234
v 0.75794274 1.40248823 0.45399520
v 0.78346390 1.28021240 0.51613003
v 0.84392184 1.31767511 0.37504470
v 0.60684812 1.17115664 0.75867921
v 0.70232362 1.23006380 0.64741540
v 0.60152096 1.30581701 0.70712113
v 0.51337820 1.58063316 0.56425679
v 0.56426001 1.44743562 0.64658237
v 0.64658201 1.49831080 0.51337981
v -0.13165468 1.29228961 0.92432439
v 0.00000490 1.33741415 0.91505766
v -0.38619745 1.17274284 0.89103085
v -0.26408798 1.23532271 0.91626656
v -0.00000179 1.07201874 0.99047512
v -0.13279335 1.15417838 0.96641928
v -0.13307615 1.01630604 0.98772722
v -0.78391886 0.85298944 0.61569613
v -0.71134120 0.93408054 0.70296234
v -0.51934963 0.77763939 0.84031087
v -0.62030071 0.85294479 0.78025854
v -0.60697252 0.69698983 0.75884038
v -0.62025255 1.01520252 0.78022617
v -0.51927137 1.09049439 0.84019297
v 0.00004976 0.53072375 0.91544068
v -0.13168806 0.57582283 0.92460740
v -0.13123642 0.44952250 0.86546433
v -0.13307548 0.85183227 0.98775709
v -0.13278346 0.71395206 0.96652758
v -0.00000453 0.79613304 0.99054891
v -0.38374221 0.55900931 0.84425128
v -0.26414225 0.63280857 0.91655296
v -0.38624224 0.69538122 0.89120185
v -0.39962634 1.01638615 0.91301221
v -0.39966995 0.85176712 0.91312212
v -0.26642025 0.93406874 0.96393305
v -0.92437363 0.80240834 0.35824984
v -0.86502349 0.80286288 0.48448122
v -0.98779392 0.80100328 0.08225535
v -0.96648896 0.80127394 0.22014286
v -0.84426057 0.55049485 0.37516406
v -0.91637337 0.66998088 0.30129546
v -0.89120716 0.54789001 0.23874626
v -0.86502451 0.80288041 -0.48449904
v -0.92442524 0.80242258 -0.35828695
v -0.89138061 0.54790258 -0.23874547
v -0.91641176 0.66998076 -0.30131006
v -0.84417957 0.55048418 -0.37513381
v -0.96651566 0.80126351 -0.22015578
v -0.98780155 0.80098683 -0.08226173
v -0.62003928 0.14941835 0.08194209
v -0.70568299 0.22282133 0.00021966
v -0.61987287 0.15026551 -0.08132175
v -0.84073824 0.41498601 0.15651254
v -0.78161705 0.31387511 0.08156662
v -0.76005536 0.32728004 0.23748229
v -0.76001281 0.32715860 -0.23749955
v -0.78195381 0.31357741 -0.08130657
v -0.84094834 0.41486350 -0.15653422
v -0.96405250 0.66767138 0.00001296
v -0.91335297 0.53453553 -0.08235370
v -0.91326547 0.53448641 0.08235318
v -0.71133542 0.93407184 -0.70295852
v -0.78392226 0.85299063 -0.61570686
v -0.51928735 1.09050238 -0.84020901
v -0.62028921 1.01521182 -0.78025085
v -0.60692620 0.69699556 -0.75877810
v -0.62030053 0.85292256 -0.78027368
v -0.51932967 0.77762324 -0.84027380
v 0.00000139 1.33741593 -0.91505790
v -0.13165495 1.29229152 -0.92432040
v -0.13307537 1.01631427 -0.98773837
v -0.13279349 1.15418386 -0.96641958
v -0.00000084 1.07202446 -0.99047577
v -0.26408675 1.23532403 -0.91626781
v -0.38619906 1.17274857 -0.89102983
v -0.13131043 0.44959971 -0.86560237
v -0.13172957 0.57584667 -0.92459583
v 0.00001258 0.53076178 -0.91545433
v -0.38624129 0.69538152 -0.89113134
v -0.26415545 0.63284165 -0.91648686
v -0.38377303 0.55900848 -0.84425324
v 0.00000193 0.79612625 -0.99057001
v -0.13280259 0.71396375 -0.96651429
v -0.13307925 0.85183549 -0.98779047
v -0.39963770 1.01641536 -0.91307080
v -0.26642299 0.93407661 -0.96393758
v -0.39965585 0.85175920 -0.91310805
v 0.21302482 1.50530624 -0.79265422
v 0.13120131 1.41850007 -0.86493820
v 0.37174958 1.64116049 -0.60150325
v 0.29600605 1.58146620 -0.70231336
v 0.38361883 1.30909550 -0.84392202
v 0.34615526 1.45017612 -0.78345591
v 0.46843359 1.38804650 -0.75794101
v 0.61564404 1.71789694 -0.08108675
v 0.57125336 1.72670341 -0.21302345
v 0.70711231 1.53555560 -0.37174988
v 0.64741439 1.63636363 -0.29600546
v 0.75865775 1.54087973 -0.23708886
v 0.51612341 1.71750462 -0.34615332
v 0.45399183 1.69198895 -0.46843204
v 0.78386909 1.01515329 -0.61566162
v 0.79266959 1.14708769 -0.57126731
v 0.86495841 1.06526804 -0.48446497
v 0.60150826 1.30580711 -0.70711458
v 0.70232069 1.23006284 -0.64742273
v 0.60684103 1.17115223 -0.75867409
v 0.84392017 1.31766999 -0.37504238
v 0.78346527 1.28021276 -0.51612866
v 0.75794107 1.40248656 -0.45399460
v 0.51337731 1.58063078 -0.56425655
v 0.64658129 1.49830985 -0.51337886
v 0.56425810 1.44743180 -0.64658290
v 0.62117618 0.15053532 0.08180745
v 0.57646394 0.14034905 0.21554202
v 0.49235079 0.06927177 0.13314380
v 0.70798552 0.33252195 0.37202480
v 0.65004987 0.23158336 0.29705670
v 0.75982016 0.32732123 0.23742433
v 0.38004863 0.08918113 0.38788345
v 0.51971203 0.14959346 0.34836182
v 0.45826066 0.17548361 0.47176793
v 0.78392172 0.85299128 0.61571783
v 0.79279351 0.72102559 0.57133269
v 0.86505705 0.80286086 0.48450682
v 0.60162926 0.56231451 0.70724362
v 0.70245481 0.63807422 0.64755040
v 0.60689002 0.69696295 0.75875682
v 0.84412879 0.55049950 0.37513337
v 0.78357702 0.58791971 0.51620865
v 0.75831366 0.46561480 0.45419541
v 0.08091573 0.31860191 0.78467804
v 0.21314470 0.36314967 0.79381168
v 0.13126697 0.44969144 0.86535758
v 0.37343749 0.22676298 0.60444444
v 0.29663643 0.28700864 0.70479769
v 0.23937854 0.17545144 0.61119330
v 0.38378313 0.55910218 0.84417623
v 0.34646109 0.41812623 0.78402233
v 0.46862549 0.48012790 0.75822991
v 0.64709151 0.36968991 0.51358336
v 0.56457782 0.42075247 0.64698029
v 0.51472217 0.28781721 0.56581324
v 0.36665756 0.01497111 0.13503715
v 0.41066796 0.02607560 0.00057786
v 0.24283619 0.04649657 0.39320821
v 0.30563226 0.02192687 0.26887584
v 0.14204545 0.00000000 -0.00073103
v 0.22830591 0.00000000 0.13836178
v 0.08773082 0.00000000 0.13850760
v -0.08127030 0.31839263 0.78461462
v 0.00023277 0.23086499 0.71422774
v -0.15921728 0.09366181 0.52593374
v -0.08160442 0.15341370 0.62508571
v -0.23884621 0.17487533 0.61030662
v 0.08204783 0.15285827 0.62607849
v 0.15951332 0.09419811 0.52662235
v -0.41433901 0.02343681 -0.00146491
v -0.36856920 0.01739841 0.13550441
v -0.49091655 0.06995881 0.13254382
v -0.08367296 0.00000000 0.13775200
v -0.22748169 0.00000000 0.13849576
v -0.14263059 0.00000000 0.00055087
v -0.37909752 0.08880479 0.38706037
v -0.30586800 0.02065647 0.26987466
v -0.24394621 0.04472603 0.39319980
v 0.08372191 0.02840097 0.40804064
v -0.08535606 0.02701502 0.40838224
v -0.00240972 0.00000000 0.27360919
v 0.36579514 0.01766284 -0.13365382
v 0.49150255 0.07016262 -0.13207749
v 0.08480381 0.00000000 -0.13874018
v 0.22789548 0.00000000 -0.13640803
v 0.37985057 0.08931599 -0.38910142
v 0.30459398 0.02274664 -0.27084377
v 0.24192765 0.04329398 -0.39342788
v -0.49043086 0.07069465 -0.13277012
v -0.36761373 0.01532152 -0.13639924
v -0.24236837 0.04812266 -0.39016178
v -0.30625862 0.02336556 -0.26740307
v -0.37954429 0.09046265 -0.38767797
v -0.23092954 0.00000000 -0.13924074
v -0.08617115 0.00000000 -0.13938051
v 0.08117115 0.31848919 -0.78530407
v -0.00009499 0.23085487 -0.71376759
v -0.08116136 0.31852260 -0.78516513
v 0.15849601 0.09386993 -0.52646053
v 0.08187621 0.15392321 -0.62428099
v 0.23883751 0.17544813 -0.61085171
v -0.23834933 0.17529432 -0.61098337
v -0.08128354 0.15247956 -0.62494266
v -0.15885180 0.09418075 -0.52498639
v -0.00001243 0.00000000 -0.27605176
v -0.08562855 0.02552932 -0.40596774
v 0.08554261 0.02432291 -0.40637609
v 0.57626277 0.14069118 -0.21433350
v 0.62142283 0.15009136 -0.08179233
v 0.45722759 0.17571075 -0.47109777
v 0.51997501 0.14946179 -0.34825978
v 0.76036245 0.32732219 -0.23746394
v 0.64969611 0.23159428 -0.29713383
v 0.70836300 0.33275330 -0.37225771
v 0.13136579 0.44961795 -0.86563748
v 0.21339844 0.36291569 -0.79359776
v 0.46869275 0.48014674 -0.75835091
v 0.34649506 0.41794136 -0.78408301
v 0.38374510 0.55902904 -0.84420788
v 0.29661709 0.28665781 -0.70386654
v 0.37362528 0.22684547 -0.60400456
v 0.86502242 0.80288917 -0.48450062
v 0.79277980 0.72106946 -0.57136023
v 0.78391546 0.85299844 -0.61569262
v 0.75843006 0.46573243 -0.45436952
v 0.78369993 0.58798641 -0.51628643
v 0.84426272 0.55055094 -0.37520269
v 0.60695398 0.69700676 -0.75881463
v 0.70248288 0.63810420 -0.64756858
v 0.60170186 0.56239998 -0.70736223
v 0.51450568 0.28738284 -0.56573212
v 0.56468767 0.42078760 -0.64713991
v 0.64738864 0.37000963 -0.51404667
v 0.70635170 0.22301400 -0.00028157
v 0.84074116 0.41494232 -0.15641306
v 0.78173423 0.31403241 -0.08125430
v 0.78114289 0.31380647 0.08141547
v 0.84074205 0.41481555 0.15657048
v 0.91509819 0.93407357 -0.40338141
v 0.92440563 0.80240417 -0.35825989
v 0.98777664 0.80100805 -0.08224091
v 0.96649498 0.80127829 -0.22013928
v 0.99050033 0.93407357 -0.13795768
v 0.91635525 0.66997111 -0.30128908
v 0.89130330 0.54792303 -0.23873284
v 0.92437923 0.80240309 0.35826048
v 0.91510367 0.93407816 0.40337315
v 0.89125848 0.54791963 0.23871772
v 0.91636670 0.66998249 0.30128074
v 0.99049467 0.93406653 0.13797809
v 0.96644908 0.80126232 0.22014210
v 0.98779047 0.80101460 0.08226566
v 0.91342503 0.53450912 -0.08236307
v 0.96398324 0.66769713 0.00000235
v 0.91332412 0.53448659 0.08231471
v 0.13173236 0.57586604 0.92464238
v 0.38625526 0.69541019 0.89113277
v 0.26416546 0.63283640 0.91644019
v 0.13282929 0.71396661 0.96653473
v 0.13308492 0.85182709 0.98774272
v 0.71131957 0.93408275 0.70295590
v 0.51927114 1.09050298 0.84020638
v 0.62026542 1.01520944 0.78024375
v 0.62027061 0.85292441 0.78026438
v 0.51930559 0.77764392 0.84026420
v 0.13166162 1.29228020 0.92431116
v 0.13307682 1.01631021 0.98773593
v 0.13279632 1.15417695 0.96641678
v 0.26408762 1.23531425 0.91626513
v 0.38618967 1.17272818 0.89102846
v 0.39963442 0.85174370 0.91304219
v 0.39962333 1.01638138 0.91301745
v 0.26641908 0.93406522 0.96389985
v -0.57468063 0.14095587 0.21493855
v -0.45657837 0.17525865 0.47110501
v -0.51935679 0.14972378 0.34883127
v -0.64961314 0.23160960 0.29725879
v -0.70807719 0.33262458 0.37233040
v -0.21318924 0.36277354 0.79338872
v -0.46880713 0.48021975 0.75858539
v -0.34644794 0.41792461 0.78411978
v -0.29645720 0.28654307 0.70386404
v -0.37318602 0.22679524 0.60433334
v -0.79276842 0.72106457 0.57132965
v -0.75850171 0.46563247 0.45421702
v -0.78368372 0.58791584 0.51626045
v -0.70248890 0.63807189 0.64753622
v -0.60166955 0.56233311 0.70728844
v -0.51464367 0.28728279 0.56561315
v -0.56485796 0.42070997 0.64710104
v -0.64731067 0.36982232 0.51386118
v -0.21332037 0.36289483 -0.79340702
v -0.37305534 0.22679354 -0.60387671
v -0.29681161 0.28639755 -0.70420742
v -0.34655347 0.41790265 -0.78426558
v -0.46880147 0.48010021 -0.75848567
v -0.57625431 0.14135861 -0.21468551
v -0.70825279 0.33252263 -0.37239155
v -0.64975566 0.23170710 -0.29716370
v -0.52106655 0.15008251 -0.34938452
v -0.45737359 0.17556442 -0.47214353
v -0.79277456 0.72106427 -0.57133561
v -0.60173970 0.56237286 -0.70736790
v -0.70251441 0.63808453 -0.64760071
v -0.78374016 0.58797008 -0.51625818
v -0.75839722 0.46572381 -0.45417613
v -0.51450509 0.28745329 -0.56556493
v -0.64751220 0.36979222 -0.51411903
v -0.56491882 0.42066634 -0.64732522
v 0.71132314 0.93407696 -0.70294356
v 0.51932120 0.77764881 -0.84029430
v 0.62029231 0.85294610 -0.78027332
v 0.62026554 1.01521301 -0.78023410
v 0.51927286 1.09049749 -0.84019876
v 0.13173063 0.57586253 -0.92462778
v 0.13307904 0.85183144 -0.98776960
v 0.13283361 0.71395814 -0.96657145
v 0.26415417 0.63282073 -0.91647446
v 0.38624966 0.69539088 -0.89115846
v 0.13165724 1.29228854 -0.92431694
v 0.38619667 1.17273271 -0.89101964
v 0.26408833 1.23531866 -0.91625601
v 0.13279672 1.15418112 -0.96641690
v 0.13307013 1.01631129 -0.98774195
v 0.39964151 0.85175270 -0.91305643
v 0.26641971 0.93407708 -0.96390712
v 0.39962777 1.01637781 -0.91300589
v 0.92432970 1.06571949 0.35823843
v 0.98772943 1.06713963 0.08225754
v 0.96641517 1.06685460 0.22012310
v 0.91627342 1.19814837 0.30126897
v 0.89102298 1.32025063 0.23867805
v 0.92433649 1.06572437 -0.35824230
v 0.89101565 1.32024443 -0.23868050
v 0.91626191 1.19814289 -0.30126435
v 0.96642631 1.06685841 -0.22012958
v 0.98772889 1.06714451 -0.08223937
v 0.70291054 1.64533675 -0.00000039
v 0.84018600 1.45331705 0.15643528
v 0.78020930 1.55429602 0.08114217
v 0.78020895 1.55429542 -0.08114164
v 0.84018630 1.45331562 -0.15643632
v 0.96388531 1.20046782 0.00000034
v 0.91299438 1.33366597 -0.08232631
v 0.91299587 1.33366752 0.08232430
f 330 87 329
f 336 325 26
f 207 208 56
f 464 36 580
f 502 129 504
f 157 624 622
f 308 311 82
f 247 223 248
f 507 483 508
f 331 88 329
f 494 500 497
f 156 601 602
f 591 589 592
f 365 98 596
f 75 281 282
f 152 587 577
f 149 559 560
f 555 121 553
f 530 141 529
f 515 517 139
f 361 594 98
f 250 67 249
f 157 608 609
f 294 293 209
f 317 81 316
f 557 338 26
f 303 305 81
f 530 529 528
f 101 381 382
f 415 418 111
f 192 184 50
f 412 110 411
f 20 384 256
f 131 594 486
f 281 264 282
f 347 287 348
f 28 349 582
f 165 163 1
f 248 250 66
f 617 107 398
f 273 271 274
f 456 115 453
f 558 561 560
f 335 576 91
f 331 177 332
f 116 433 436
f 351 370 92
f 136 511 530
f 239 240 65
f 247 258 19
f 304 23 567
f 148 557 570
f 214 208 58
f 440 426 450
f 268 270 269
f 258 247 268
f 204 202 16
f 466 125 465
f 517 513 133
f 168 275 274
f 275 73 274
f 198 193 53
f 309 308 307
f 510 511 136
f 415 416 110
f 131 490 597
f 473 475 474
f 414 415 111
f 493 495 494
f 496 504 485
f 433 116 432
f 600 375 601
f 240 234 65
f 418 415 412
f 486 361 3
f 567 566 304
f 380 393 29
f 17 199 197
f 491 492 132
f 451 449 435
f 218 217 216
f 623 621 613
f 396 104 395
f 433 439 436
f 628 160 627
f 215 202 217
f 209 207 2
f 427 113 424
f 434 10 544
f 434 433 432
f 199 17 210
f 150 564 565
f 489 491 132
f 275 13 285
f 497 500 134
f 125 466 476
f 578 152 577
f 208 214 211
f 328 88 343
f 356 27 603
f 150 566 567
f 372 100 371
f 190 191 47
f 235 8 398
f 260 261 72
f 422 403 414
f 422 414 111
f 453 454 123
f 349 583 582
f 521 520 519
f 425 453 115
f 616 622 158
f 483 130 508
f 151 586 572
f 212 17 232
f 400 397 402
f 377 396 99
f 41 522 511
f 510 508 505
f 549 547 42
f 475 473 36
f 510 137 509
f 222 221 197
f 430 115 429
f 220 194 1
f 305 54 204
f 621 29 613
f 192 171 184
f 460 335 5
f 88 331 332
f 74 277 279
f 300 301 80
f 390 389 388
f 165 45 164
f 146 549 551
f 291 278 75
f 448 120 445
f 147 543 544
f 607 610 609
f 603 602 356
f 139 529 514
f 333 553 443
f 92 368 347
f 261 260 259
f 300 6 200
f 46 177 331
f 284 283 174
f 301 300 200
f 471 468 474
f 54 305 301
f 302 304 303
f 569 150 567
f 150 569 570
f 294 209 2
f 628 629 160
f 548 543 147
f 147 625 627
f 63 233 234
f 426 427 114
f 41 509 532
f 198 52 196
f 614 105 612
f 147 627 547
f 81 305 306
f 549 548 547
f 54 301 200
f 342 88 332
f 264 281 70
f 193 194 53
f 455 429 456
f 187 321 14
f 479 130 484
f 147 544 625
f 458 456 453
f 304 80 303
f 314 84 313
f 488 503 501
f 321 332 14
f 423 425 424
f 305 204 306
f 341 339 25
f 514 40 516
f 625 628 627
f 340 339 341
f 105 614 391
f 243 228 62
f 318 316 78
f 75 278 279
f 357 355 353
f 238 257 63
f 466 455 476
f 425 423 4
f 448 449 120
f 408 638 108
f 292 275 285
f 22 278 289
f 515 513 517
f 501 503 134
f 622 623 158
f 134 503 504
f 195 216 206
f 163 271 246
f 619 617 620
f 62 228 229
f 163 165 164
f 453 425 454
f 489 132 488
f 82 628 625
f 58 208 209
f 525 608 40
f 626 547 627
f 518 517 498
f 489 487 491
f 557 26 564
f 325 336 344
f 541 145 539
f 40 616 516
f 338 556 89
f 250 248 245
f 139 514 515
f 98 594 596
f 246 220 1
f 112 413 630
f 9 536 413
f 156 600 601
f 332 177 14
f 321 342 332
f 156 606 600
f 584 330 585
f 302 303 81
f 584 87 330
f 330 25 585
f 400 239 65
f 439 440 117
f 95 358 368
f 597 594 131
f 594 361 486
f 246 67 245
f 561 562 149
f 28 364 362
f 55 216 217
f 427 430 114
f 267 20 254
f 556 555 553
f 84 309 558
f 311 310 312
f 609 525 142
f 256 68 255
f 124 460 461
f 82 311 312
f 307 308 82
f 589 135 495
f 527 40 514
f 112 418 412
f 20 256 254
f 258 238 19
f 267 254 269
f 273 272 249
f 392 391 393
f 137 533 509
f 122 455 456
f 9 413 411
f 130 480 505
f 333 443 5
f 527 525 40
f 589 495 385
f 39 496 485
f 223 225 224
f 414 416 415
f 219 222 53
f 145 538 539
f 413 412 411
f 469 468 467
f 183 181 6
f 191 192 50
f 429 35 431
f 292 285 76
f 413 112 412
f 415 110 412
f 43 164 167
f 467 468 126
f 617 101 620
f 450 451 117
f 438 546 545
f 619 620 159
f 17 212 210
f 124 579 576
f 584 153 583
f 460 124 576
f 3 469 467
f 311 308 314
f 6 320 183
f 389 104 388
f 251 250 249
f 194 165 1
f 291 289 278
f 287 77 348
f 238 258 257
f 139 517 518
f 238 236 19
f 223 247 19
f 382 380 29
f 39 518 498
f 361 359 3
f 69 255 257
f 139 518 528
f 33 545 535
f 387 385 7
f 69 268 269
f 477 462 125
f 454 479 123
f 121 555 447
f 451 435 117
f 454 425 4
f 233 252 8
f 124 463 464
f 69 258 268
f 168 167 166
f 583 153 582
f 384 394 102
f 138 512 513
f 57 210 211
f 254 256 255
f 607 609 142
f 324 319 86
f 289 291 76
f 291 292 76
f 384 102 383
f 422 421 420
f 221 17 197
f 383 102 381
f 376 377 99
f 99 373 374
f 386 105 392
f 438 33 440
f 90 341 343
f 281 75 279
f 574 571 96
f 628 82 312
f 221 222 59
f 127 471 474
f 595 605 603
f 551 538 145
f 334 91 340
f 322 324 85
f 305 303 301
f 18 239 399
f 306 204 16
f 199 198 197
f 166 190 180
f 303 80 301
f 267 266 265
f 626 42 547
f 16 215 213
f 349 351 350
f 295 16 213
f 68 379 252
f 250 251 66
f 627 160 626
f 383 68 256
f 343 88 342
f 507 508 136
f 202 215 16
f 197 198 53
f 254 69 269
f 603 605 156
f 418 419 111
f 384 383 256
f 455 122 476
f 203 204 54
f 556 557 148
f 255 68 253
f 313 84 560
f 25 328 341
f 254 255 69
f 603 156 602
f 581 584 583
f 630 632 112
f 163 246 1
f 246 245 220
f 432 116 558
f 499 591 590
f 320 563 86
f 345 93 350
f 306 16 295
f 346 93 345
f 562 568 149
f 604 605 155
f 154 592 593
f 545 552 535
f 511 522 530
f 574 573 571
f 566 150 565
f 361 98 360
f 67 271 273
f 234 235 65
f 208 211 56
f 574 151 573
f 251 270 66
f 398 8 378
f 213 215 214
f 438 440 439
f 315 314 313
f 263 71 262
f 20 373 384
f 496 134 504
f 329 88 328
f 81 306 316
f 555 556 148
f 592 589 103
f 617 619 107
f 227 207 56
f 571 359 96
f 446 466 465
f 206 216 55
f 359 571 469
f 568 148 570
f 34 437 435
f 28 351 349
f 21 272 282
f 113 423 424
f 490 489 488
f 379 68 383
f 210 212 211
f 80 563 300
f 351 92 350
f 326 346 12
f 83 317 318
f 555 148 554
f 212 231 56
f 218 57 217
f 271 67 246
f 195 196 52
f 270 268 66
f 390 592 103
f 148 568 554
f 495 493 7
f 592 390 593
f 357 95 355
f 574 575 151
f 452 120 451
f 154 591 592
f 587 585 577
f 395 394 396
f 93 349 350
f 610 416 611
f 166 44 190
f 315 23 302
f 315 302 317
f 268 247 66
f 606 154 593
f 396 394 99
f 211 212 56
f 370 369 368
f 235 397 65
f 280 278 22
f 83 315 317
f 575 588 151
f 74 279 280
f 385 495 7
f 63 257 253
f 397 235 398
f 214 58 213
f 220 219 194
f 546 146 545
f 236 225 19
f 599 94 602
f 235 233 8
f 102 394 395
f 611 416 32
f 225 223 19
f 139 528 529
f 231 62 229
f 419 406 421
f 451 450 452
f 49 182 185
f 402 397 107
f 52 199 218
f 416 610 110
f 225 236 244
f 107 397 398
f 68 252 253
f 322 85 321
f 182 181 183
f 118 438 439
f 546 438 118
f 348 77 345
f 543 546 118
f 231 212 232
f 610 611 157
f 33 438 545
f 385 386 103
f 479 480 130
f 169 195 15
f 93 583 349
f 15 195 206
f 190 44 192
f 247 248 66
f 146 552 545
f 248 60 245
f 570 557 564
f 274 271 43
f 63 253 233
f 272 21 249
f 507 528 518
f 67 273 249
f 487 467 126
f 196 195 169
f 624 159 623
f 134 496 497
f 132 503 488
f 104 393 395
f 556 553 89
f 355 356 94
f 258 69 257
f 229 61 227
f 56 231 227
f 460 576 335
f 463 124 461
f 394 373 99
f 29 393 391
f 67 250 245
f 193 198 196
f 462 36 464
f 144 633 630
f 141 526 527
f 517 133 498
f 536 144 630
f 100 372 599
f 144 536 537
f 22 289 287
f 578 579 152
f 579 578 576
f 189 188 187
f 60 223 224
f 92 348 350
f 555 554 447
f 396 377 388
f 194 193 165
f 413 536 630
f 372 352 599
f 377 376 375
f 348 345 350
f 105 386 387
f 240 237 234
f 463 462 464
f 135 500 494
f 45 196 169
f 512 612 387
f 245 60 220
f 429 115 456
f 223 60 248
f 288 289 76
f 525 526 142
f 100 599 601
f 613 29 391
f 526 523 520
f 341 328 343
f 631 641 639
f 264 21 282
f 266 72 265
f 106 402 403
f 73 273 274
f 186 206 205
f 381 379 383
f 52 216 195
f 410 18 399
f 290 272 73
f 72 371 374
f 526 525 527
f 115 430 424
f 498 497 496
f 621 382 29
f 543 118 434
f 214 215 57
f 522 141 530
f 511 510 509
f 352 94 599
f 493 512 7
f 90 340 341
f 169 171 170
f 605 604 606
f 219 60 224
f 104 389 392
f 359 469 3
f 186 49 185
f 222 219 224
f 166 167 44
f 428 427 426
f 523 522 524
f 129 502 481
f 50 185 188
f 164 45 170
f 425 115 424
f 33 428 426
f 427 428 113
f 94 356 602
f 515 138 513
f 114 431 452
f 237 236 238
f 215 217 57
f 95 354 355
f 220 60 219
f 515 514 516
f 183 320 319
f 222 197 53
f 559 569 567
f 300 320 6
f 435 436 117
f 96 360 363
f 640 642 641
f 242 243 62
f 140 537 519
f 508 130 505
f 420 410 399
f 537 539 144
f 317 316 318
f 426 114 450
f 186 15 206
f 311 83 310
f 625 544 307
f 544 10 307
f 168 43 167
f 185 182 188
f 369 354 95
f 44 171 192
f 605 606 156
f 548 549 146
f 100 601 375
f 149 568 569
f 381 380 382
f 455 466 35
f 480 479 454
f 543 548 546
f 493 133 513
f 492 472 37
f 477 125 476
f 491 487 126
f 337 336 338
f 588 153 587
f 576 578 91
f 633 161 632
f 96 359 360
f 39 485 483
f 101 617 378
f 193 45 165
f 163 164 43
f 618 624 611
f 507 136 528
f 561 149 560
f 641 162 639
f 116 561 558
f 494 133 493
f 253 252 233
f 63 237 238
f 392 393 104
f 440 450 117
f 93 581 583
f 386 385 387
f 120 449 451
f 421 422 111
f 486 3 467
f 302 81 317
f 633 632 630
f 462 475 36
f 376 99 374
f 489 490 131
f 447 449 448
f 387 612 105
f 106 420 399
f 173 46 172
f 492 491 472
f 316 306 295
f 22 287 347
f 109 410 420
f 507 39 483
f 559 23 313
f 214 57 211
f 196 45 193
f 10 434 432
f 422 106 403
f 626 160 640
f 487 486 467
f 542 41 532
f 400 106 399
f 444 120 452
f 198 199 52
f 475 127 474
f 621 620 382
f 621 623 159
f 450 114 452
f 92 347 348
f 376 100 375
f 434 118 433
f 503 132 502
f 337 90 336
f 537 536 519
f 395 393 380
f 201 54 200
f 171 44 170
f 355 94 353
f 58 296 213
f 422 420 106
f 595 365 596
f 569 568 570
f 523 140 520
f 114 430 431
f 218 210 57
f 304 566 80
f 639 162 638
f 261 371 72
f 548 147 547
f 498 133 497
f 150 570 564
f 222 224 59
f 142 526 520
f 437 436 435
f 141 522 523
f 137 510 505
f 173 179 176
f 559 149 569
f 121 447 448
f 563 320 300
f 102 395 380
f 257 255 253
f 642 162 641
f 83 311 314
f 216 52 218
f 512 493 513
f 23 304 302
f 91 339 340
f 512 138 612
f 159 620 621
f 218 199 210
f 364 28 575
f 83 318 310
f 168 274 43
f 136 530 528
f 140 523 524
f 495 135 494
f 233 235 234
f 566 563 80
f 25 339 577
f 277 74 276
f 475 462 477
f 133 494 497
f 436 437 116
f 389 386 392
f 548 146 546
f 441 460 5
f 10 309 307
f 65 397 400
f 543 434 544
f 640 641 161
f 272 273 73
f 581 93 346
f 419 421 111
f 319 320 86
f 180 179 178
f 127 475 477
f 231 229 227
f 337 334 340
f 136 508 510
f 308 309 84
f 237 63 234
f 447 554 34
f 252 379 378
f 315 83 314
f 608 622 616
f 338 336 26
f 337 338 89
f 13 275 168
f 209 208 207
f 436 439 117
f 628 312 629
f 360 366 363
f 364 574 96
f 359 361 360
f 466 446 35
f 500 501 134
f 406 109 421
f 135 589 591
f 601 599 602
f 340 90 337
f 481 492 37
f 522 41 524
f 78 316 295
f 131 486 487
f 403 32 414
f 634 626 640
f 151 572 573
f 515 516 138
f 8 252 378
f 265 72 374
f 9 521 519
f 538 549 42
f 368 358 347
f 588 587 586
f 458 453 123
f 589 385 103
f 502 492 481
f 32 416 414
f 430 427 424
f 153 585 587
f 540 144 539
f 370 368 92
f 209 293 58
f 428 33 535
f 326 581 346
f 625 307 82
f 575 28 582
f 6 181 200
f 421 109 420
f 553 121 443
f 160 642 640
f 153 584 585
f 309 432 558
f 334 337 89
f 23 315 313
f 271 163 43
f 296 295 213
f 39 498 496
f 118 439 433
f 531 113 534
f 293 296 58
f 28 362 351
f 489 131 487
f 431 444 452
f 84 558 560
f 98 366 360
f 45 169 170
f 379 101 378
f 462 463 125
f 308 84 314
f 10 432 309
f 299 24 310
f 132 492 502
f 512 387 7
f 639 638 408
f 565 323 86
f 59 244 242
f 106 400 402
f 440 33 426
f 566 565 563
f 617 398 378
f 224 225 59
f 410 109 409
f 239 400 399
f 194 219 53
f 358 22 347
f 610 157 609
f 27 595 603
f 479 484 482
f 142 520 521
f 585 25 577
f 339 578 577
f 408 407 406
f 407 109 406
f 31 408 406
f 407 408 108
f 31 639 408
f 419 31 406
f 608 616 40
f 430 429 431
f 455 35 429
f 35 444 431
f 188 51 187
f 188 182 51
f 51 322 187
f 322 51 319
f 51 182 183
f 319 51 183
f 187 322 321
f 322 319 324
f 381 101 379
f 405 407 108
f 404 405 108
f 286 285 178
f 407 405 409
f 109 407 409
f 191 175 47
f 167 164 170
f 50 184 185
f 44 167 170
f 64 244 236
f 243 244 64
f 50 188 189
f 541 542 145
f 442 445 119
f 339 91 578
f 445 446 119
f 624 623 622
f 611 624 157
f 523 526 141
f 141 527 529
f 527 514 529
f 445 120 444
f 446 445 444
f 35 446 444
f 613 614 158
f 158 614 615
f 623 613 158
f 614 613 391
f 614 612 615
f 371 376 374
f 100 376 371
f 479 482 123
f 373 394 384
f 540 42 634
f 633 540 634
f 538 42 540
f 633 634 161
f 161 634 640
f 42 626 634
f 540 633 144
f 557 556 338
f 553 333 89
f 262 21 264
f 251 21 262
f 5 335 333
f 270 251 262
f 21 251 249
f 600 593 30
f 606 593 600
f 600 30 375
f 593 390 30
f 30 377 375
f 390 388 30
f 30 388 377
f 228 243 241
f 470 478 459
f 470 127 478
f 127 477 478
f 184 186 185
f 478 477 476
f 122 478 476
f 357 74 280
f 518 39 507
f 344 342 85
f 325 344 85
f 342 344 343
f 85 342 321
f 344 90 343
f 90 344 336
f 482 129 481
f 482 481 457
f 482 457 123
f 481 37 457
f 449 447 34
f 435 449 34
f 470 472 471
f 472 470 37
f 470 471 127
f 472 126 471
f 126 468 471
f 470 459 37
f 491 126 472
f 504 129 485
f 221 59 242
f 125 463 465
f 437 34 562
f 561 437 562
f 554 568 562
f 34 554 562
f 437 561 116
f 390 103 389
f 103 386 389
f 392 105 391
f 572 586 580
f 572 580 36
f 586 152 580
f 473 572 36
f 244 243 242
f 225 244 59
f 64 240 241
f 240 239 241
f 237 240 64
f 243 64 241
f 236 237 64
f 411 607 521
f 9 411 521
f 110 607 411
f 607 142 521
f 610 607 110
f 171 15 184
f 171 169 15
f 15 186 184
f 87 584 581
f 153 588 582
f 588 575 582
f 381 102 380
f 573 572 473
f 468 469 128
f 474 468 128
f 469 571 128
f 571 573 128
f 573 473 128
f 473 474 128
f 564 323 565
f 26 323 564
f 323 324 86
f 325 323 26
f 325 324 323
f 563 565 86
f 324 325 85
f 410 230 18
f 230 228 18
f 18 228 241
f 18 241 239
f 401 619 618
f 401 402 107
f 403 402 401
f 619 159 618
f 401 618 32
f 619 401 107
f 403 401 32
f 618 611 32
f 159 624 618
f 478 122 459
f 122 458 459
f 37 459 457
f 459 458 457
f 122 456 458
f 457 458 123
f 191 190 192
f 485 129 484
f 129 482 484
f 483 485 484
f 130 483 484
f 189 187 14
f 191 50 189
f 191 189 175
f 189 14 175
f 14 177 175
f 499 501 500
f 501 499 38
f 38 499 590
f 135 499 500
f 488 501 38
f 499 135 591
f 480 454 4
f 284 12 346
f 4 423 506
f 480 4 506
f 423 531 506
f 480 506 505
f 531 137 506
f 506 137 505
f 365 366 98
f 71 270 262
f 270 71 269
f 71 267 269
f 335 334 333
f 333 334 89
f 334 335 91
f 536 9 519
f 465 463 461
f 537 140 541
f 520 140 519
f 119 446 465
f 465 461 119
f 461 441 119
f 460 441 461
f 176 46 173
f 299 297 24
f 71 263 266
f 263 260 266
f 260 72 266
f 263 70 260
f 205 201 49
f 201 181 49
f 186 205 49
f 181 201 200
f 181 182 49
f 284 77 283
f 586 587 152
f 588 586 151
f 20 267 265
f 266 267 71
f 31 417 631
f 631 417 632
f 31 631 639
f 417 31 419
f 641 631 161
f 417 112 632
f 161 631 632
f 418 417 419
f 417 418 112
f 284 345 77
f 542 550 145
f 542 541 524
f 284 174 12
f 48 174 283
f 373 20 265
f 373 265 374
f 609 608 525
f 608 157 622
f 560 559 313
f 636 637 162
f 541 140 524
f 41 542 524
f 358 357 280
f 70 263 264
f 263 262 264
f 176 177 46
f 174 48 173
f 174 173 172
f 538 551 549
f 538 540 539
f 537 541 539
f 232 221 242
f 17 221 232
f 232 242 62
f 231 232 62
f 203 205 55
f 203 55 202
f 201 205 203
f 202 55 217
f 205 206 55
f 204 203 202
f 73 275 292
f 292 290 73
f 272 290 282
f 290 292 291
f 75 290 291
f 290 75 282
f 70 277 259
f 277 70 281
f 277 281 279
f 260 70 259
f 12 174 172
f 104 396 388
f 367 27 354
f 365 27 367
f 354 27 356
f 365 367 366
f 595 27 365
f 318 299 310
f 155 596 597
f 155 597 598
f 596 594 597
f 595 596 155
f 605 595 155
f 180 47 179
f 180 190 47
f 352 372 11
f 11 372 261
f 312 310 24
f 642 636 162
f 636 297 637
f 367 369 97
f 366 367 97
f 369 367 354
f 369 370 97
f 580 579 464
f 580 152 579
f 579 124 464
f 61 230 409
f 230 410 409
f 230 61 229
f 230 229 228
f 76 285 286
f 353 352 276
f 74 353 276
f 288 76 286
f 288 286 283
f 289 288 287
f 203 54 201
f 287 288 77
f 77 288 283
f 286 48 283
f 531 423 113
f 276 11 259
f 11 261 259
f 277 276 259
f 616 158 615
f 516 616 615
f 138 516 615
f 138 615 612
f 509 533 532
f 503 502 504
f 635 79 294
f 635 294 404
f 635 637 79
f 637 635 638
f 638 635 108
f 635 404 108
f 226 61 405
f 61 226 227
f 405 61 409
f 227 226 207
f 48 178 179
f 48 286 178
f 173 48 179
f 534 143 533
f 534 535 143
f 531 534 533
f 533 143 532
f 137 531 533
f 261 372 371
f 13 180 178
f 285 13 178
f 180 13 166
f 13 168 166
f 346 345 284
f 331 327 46
f 46 327 172
f 172 327 326
f 382 620 101
f 442 121 448
f 443 121 442
f 2 226 404
f 294 2 404
f 404 226 405
f 207 226 2
f 550 551 145
f 552 146 551
f 143 550 532
f 552 550 143
f 330 329 328
f 24 636 629
f 94 352 353
f 352 11 276
f 113 428 534
f 428 535 534
f 509 41 511
f 535 552 143
f 550 552 551
f 550 542 532
f 369 95 368
f 326 327 87
f 87 327 329
f 327 331 329
f 581 326 87
f 293 79 298
f 79 297 298
f 296 298 78
f 79 293 294
f 296 293 298
f 598 490 38
f 358 280 22
f 280 279 278
f 357 358 95
f 74 357 353
f 330 328 25
f 567 23 559
f 590 598 38
f 590 604 598
f 598 604 155
f 604 590 154
f 590 591 154
f 604 154 606
f 297 299 298
f 299 318 78
f 298 299 78
f 355 354 356
f 629 636 642
f 312 24 629
f 629 642 160
f 370 362 97
f 362 363 97
f 363 366 97
f 364 363 362
f 362 370 351
f 96 363 364
f 297 636 24
f 162 637 638
f 637 297 79
f 490 488 38
f 598 597 490
f 441 442 119
f 443 442 441
f 443 441 5
f 442 448 445
f 296 78 295
f 326 12 172
f 575 574 364
f 47 175 176
f 175 177 176
f 47 176 179
