# FEM surface export ¡ª frame 848
# Vertices: 642  Faces: 1280
v -0.55696988 0.84394026 -0.02176908
v 0.50266612 0.90996557 -0.01212644
v -0.51929832 0.73308957 0.00542475
v 0.57210606 0.58058482 0.01717448
v 0.00016402 0.33245945 0.89341253
v -0.04762982 0.56397706 0.83970463
v -0.00981849 0.45137224 -0.85100448
v -0.00029186 0.53001761 -0.85824060
v 0.89261830 0.13155051 -0.54788077
v 0.88616186 0.15284148 0.55945975
v -0.90871787 0.07771925 -0.56094050
v -0.89254260 0.09919216 0.52678376
v -0.79333973 0.49347413 0.31552663
v -0.52340275 0.32470003 0.78576106
v -0.38295335 0.82833874 0.47756818
v 0.25651416 0.87670845 0.48945981
v -0.03986260 1.05517912 -0.05246588
v 0.30616346 0.83122015 -0.52974683
v -0.31465524 0.78468919 -0.53150940
v -0.50431842 0.32830414 -0.82517028
v -0.78658861 0.52201462 -0.31826165
v -1.04926789 0.12075332 -0.01648553
v 0.45531741 0.43958962 0.83657658
v 0.79946518 0.61384785 0.30048841
v -0.51606148 0.17663698 0.78226775
v 0.01330891 0.10986773 1.07177258
v -0.77941340 0.36414805 -0.28177023
v -0.75812507 0.41748664 0.32086104
v -0.02444452 0.12385693 -1.05568528
v -0.52896005 0.16754912 -0.80728459
v 0.80198687 0.55959904 -0.32751265
v 0.50709182 0.35585690 -0.80644006
v 0.85049522 0.19694191 0.25550085
v 0.56741810 0.14488672 0.80337715
v 0.34051210 0.57211339 0.48125499
v -0.21380985 0.67902875 0.50332576
v 0.03949327 0.55549335 0.02656012
v -0.28082526 0.53288287 -0.49109414
v 0.36859190 0.66743022 -0.47395858
v 0.44884828 0.21992625 -0.82983732
v 0.82975852 0.34184074 -0.32237762
v 1.05134034 0.14854090 -0.00567017
v -0.69963443 0.68778116 0.14698455
v -0.61549979 0.67837191 0.41599143
v -0.49332756 0.87897623 0.24465571
v -0.68978143 0.17178483 0.70136440
v -0.70473188 0.41967997 0.58874828
v -0.84088296 0.27727011 0.42589727
v -0.22085872 0.73086452 0.68013227
v -0.45773935 0.58409220 0.68437386
v -0.29414293 0.47653535 0.83764434
v -0.23698914 0.99883276 0.22749242
v -0.32038009 0.97932494 -0.04035097
v 0.10089061 0.75868326 0.68119079
v -0.07556680 0.92121387 0.50760823
v 0.23667949 1.01734030 -0.03689499
v 0.11013352 1.01627779 0.23377956
v 0.38896763 0.93091774 0.25676224
v -0.18143526 0.95903188 -0.31571388
v -0.44122157 0.84394914 -0.29369551
v 0.43268681 0.89531386 -0.28187007
v 0.15206154 0.98147660 -0.30993149
v -0.15954928 0.66468602 -0.72661996
v -0.00492301 0.84687090 -0.56961018
v 0.16413666 0.69361913 -0.71623403
v -0.58702409 0.68040645 -0.44334742
v -0.68547273 0.69667506 -0.16843186
v -0.25189185 0.43391138 -0.87758774
v -0.41293555 0.58945578 -0.71124923
v -0.87469542 0.31745824 -0.46501493
v -0.68086761 0.43523806 -0.59289688
v -0.72055185 0.22249338 -0.70217687
v -0.82442987 0.53481352 -0.00015680
v -1.03121305 0.09869452 -0.28498533
v -0.97376627 0.32849574 -0.18708526
v -0.95091349 0.31399706 0.15762381
v -1.01519728 0.15569727 0.25805956
v 0.55541980 0.77577198 0.41956773
v 0.65446967 0.78725326 0.15241596
v 0.20302226 0.51199996 0.87190729
v 0.37836766 0.66704506 0.68701321
v 0.86610651 0.39719731 0.46208581
v 0.66821408 0.55169904 0.58815420
v 0.69702470 0.31678855 0.72640705
v -0.29861468 0.25795460 0.98024148
v -0.02616830 0.34557834 0.98763460
v -0.75126958 0.08564486 0.68027991
v -0.54399544 0.03898642 0.89053375
v 0.02315836 0.07667172 0.97161835
v -0.27274495 0.00000000 0.96902281
v -0.25733733 0.23685193 0.84525061
v -0.96277952 0.16748814 0.17522477
v -0.89093852 0.17610073 0.43800572
v -0.86163640 0.17124033 -0.44759923
v -0.93885642 0.17411025 -0.13032156
v -0.67675090 0.64141887 0.17953569
v -0.81992316 0.39651355 0.04197627
v -0.68318659 0.57068533 -0.13749285
v -0.55736440 0.12346135 -0.88529229
v -0.71752834 0.05409110 -0.68150157
v 0.01260680 0.31730095 -0.99272346
v -0.26421720 0.20301051 -0.98114336
v -0.27834132 0.32920823 -0.87306643
v -0.29619950 0.05857942 -0.94280165
v -0.05359352 0.18034084 -0.99555570
v 0.42154828 0.59370708 -0.70212984
v 0.25875708 0.45120719 -0.87371254
v 0.66618627 0.76086402 -0.18105011
v 0.57780677 0.71202624 -0.44916204
v 0.72590572 0.19601823 -0.69804001
v 0.68988520 0.47687900 -0.58725083
v 0.86875117 0.34997970 -0.44535926
v 0.74277222 0.44596410 0.15450801
v 0.62214077 0.40230402 0.42532009
v 0.49897248 0.61706185 0.29664013
v 0.74258345 0.00382563 0.70530903
v 0.69226152 0.16164118 0.54539090
v 0.89640737 0.10306425 0.37511849
v 0.21301912 0.48231086 0.73898673
v 0.49400893 0.34301880 0.65007806
v 0.30227649 0.23781867 0.85831803
v 0.22215468 0.74256867 0.29166961
v 0.29067498 0.52328378 0.06974679
v -0.14251262 0.52400023 0.75621361
v 0.08280585 0.66371304 0.56201798
v -0.23581263 0.63611472 0.04199627
v -0.08213553 0.76386607 0.27325866
v -0.39274636 0.70650476 0.29808369
v 0.23752022 0.60600084 -0.25024387
v 0.45868537 0.67661536 -0.23960590
v -0.41216305 0.69904023 -0.26098976
v -0.11428390 0.56379312 -0.22795863
v 0.16948496 0.61003697 -0.68990940
v 0.02009175 0.74134207 -0.46222022
v -0.17640914 0.58891052 -0.68440223
v 0.61118716 0.49533692 -0.45947614
v 0.72973925 0.53033447 -0.16925895
v 0.21367876 0.32421401 -0.87023026
v 0.42410126 0.46959576 -0.72082967
v 0.89374679 0.12461922 -0.47645631
v 0.72223723 0.28499737 -0.61012244
v 0.70138597 0.16326094 -0.75546294
v 0.85859114 0.28118268 -0.01980891
v 1.00128722 0.13574380 -0.28418708
v 0.97943437 0.14088719 -0.16346847
v 0.98558235 0.00002625 0.10252085
v 0.99870896 0.18326317 0.29016143
v 0.30394047 0.02013895 0.99783123
v 0.54405630 0.15466751 0.90263510
v 0.22598088 0.25637421 0.97877157
v -0.54477298 0.59005237 0.45087337
v -0.38224295 0.45912471 0.71672028
v -0.67663544 0.33567986 0.57306671
v -0.45620084 0.45436487 -0.64613199
v -0.59443617 0.54951477 -0.41217101
v -0.68293697 0.25047037 -0.56860214
v 0.54423898 0.06108988 -0.89567596
v 0.20948073 0.02130911 -0.95780456
v 0.28343654 0.20943031 -0.97851944
v 0.96908659 0.40582854 0.16914064
v 0.96497089 0.35622391 -0.15271099
v 0.83387530 0.61479259 -0.01352281
v -0.63289356 0.77190518 0.07164344
v -0.59679115 0.79458225 0.20200807
v -0.52703148 0.87456143 0.11259863
v -0.70913929 0.59106004 0.35487548
v -0.65804821 0.69929469 0.28142250
v -0.75350314 0.60365194 0.23337305
v -0.44633657 0.86164623 0.36962724
v -0.55314010 0.78241992 0.33797434
v -0.50622022 0.75702828 0.46336788
v -0.80299729 0.11900128 0.63725537
v -0.76408774 0.23726895 0.57739085
v -0.86411136 0.18969809 0.50281441
v -0.61271483 0.37548918 0.69899845
v -0.69602895 0.29181978 0.63933450
v -0.62120491 0.25382677 0.76510966
v -0.83607256 0.38536215 0.38180140
v -0.79411632 0.36847749 0.50591350
v -0.77477562 0.47187340 0.44676179
v -0.13012603 0.65479195 0.77533340
v -0.25062984 0.60133141 0.76803684
v -0.16782555 0.52398050 0.85039467
v -0.42444867 0.71017706 0.58989137
v -0.34781781 0.66884768 0.69345534
v -0.30323347 0.79565251 0.58665884
v -0.41344413 0.40725660 0.81366891
v -0.36977893 0.52899748 0.75034100
v -0.49419671 0.45834032 0.73111665
v -0.67874676 0.55375344 0.50407165
v -0.59630144 0.50696403 0.64366585
v -0.56061429 0.64244723 0.56683540
v -0.41008767 0.94697887 0.10407595
v -0.44598192 0.91853982 -0.02600168
v -0.32261610 0.92689973 0.35817581
v -0.37100869 0.94475555 0.23250285
v -0.18208383 1.01848900 -0.04999859
v -0.27261829 1.00661206 0.09178060
v -0.13432050 1.04273820 0.09015293
v 0.01619027 0.66790271 0.77140653
v -0.06160848 0.75332838 0.69160235
v 0.08610438 0.91463077 0.50150955
v 0.01798180 0.85106140 0.60431361
v 0.17951025 0.83041662 0.58904701
v -0.15136079 0.83362204 0.59892291
v -0.23373237 0.88679951 0.49051762
v 0.37526405 0.97052366 -0.02208950
v 0.32118276 0.99377030 0.10890933
v 0.44766951 0.93462539 0.12229257
v 0.03670305 1.04291809 0.09151378
v 0.17733701 1.02699661 0.09724164
v 0.09901092 1.04814196 -0.04043020
v 0.32104897 0.90936172 0.37653336
v 0.25288358 0.98489618 0.24436918
v 0.17461312 0.95265627 0.36779776
v -0.16056405 0.97536677 0.36788878
v 0.00888790 0.98553938 0.36903137
v -0.06569953 1.03013015 0.22491707
v -0.38672161 0.91813582 -0.16767231
v -0.50210857 0.85694772 -0.15813340
v -0.11381868 1.00918484 -0.18723810
v -0.25604114 0.97618216 -0.18193994
v -0.37709633 0.82944763 -0.41675135
v -0.31746030 0.91618782 -0.30824041
v -0.24445094 0.88311553 -0.43358126
v 0.46585414 0.91088188 -0.14336589
v 0.33808917 0.96475434 -0.16014776
v 0.23805450 0.91491848 -0.41862866
v 0.29566714 0.95525396 -0.29146150
v 0.36843526 0.87149608 -0.40688440
v 0.19219841 1.01195991 -0.17404173
v 0.05673514 1.02579582 -0.18448021
v -0.07947437 0.59984678 -0.79984152
v -0.00872612 0.68383318 -0.72091126
v 0.07915555 0.61139816 -0.78449434
v -0.16886149 0.82012600 -0.55582201
v -0.08411444 0.75933057 -0.64524418
v -0.24068137 0.72947675 -0.63294250
v 0.23696740 0.76809686 -0.62918442
v 0.08509550 0.77686572 -0.65103567
v 0.15272239 0.85371202 -0.55292422
v -0.01648518 0.97849697 -0.32504022
v 0.07458724 0.92771131 -0.44689891
v -0.09160043 0.90500408 -0.45306522
v -0.57814360 0.77552378 -0.22864798
v -0.62784439 0.77475548 -0.09334797
v -0.45740095 0.74344766 -0.48930880
v -0.51557696 0.76847976 -0.36048773
v -0.74136561 0.60773897 -0.23915955
v -0.64225990 0.68722588 -0.30672789
v -0.69131345 0.60257906 -0.37876251
v -0.12054109 0.47864833 -0.86909258
v -0.20114198 0.54618317 -0.80162537
v -0.45646012 0.46671849 -0.77342749
v -0.32399318 0.51340294 -0.79597402
v -0.38454306 0.39248231 -0.85283238
v -0.29389790 0.63753831 -0.71533972
v -0.38026848 0.68624020 -0.61815333
v -0.91797465 0.21910812 -0.52189809
v -0.79879981 0.27732304 -0.58522195
v -0.82935113 0.16315609 -0.63651645
v -0.75005847 0.48510137 -0.45131311
v -0.78548557 0.37705755 -0.52426660
v -0.84513611 0.41772687 -0.39526552
v -0.61495250 0.28643206 -0.77055377
v -0.69602054 0.34017122 -0.65062368
v -0.58598047 0.40473726 -0.72770196
v -0.51554960 0.64069146 -0.57630688
v -0.55815154 0.53407651 -0.65822417
v -0.64294988 0.56939930 -0.51489699
v -0.69916147 0.70102459 -0.00121495
v -0.81660628 0.53028876 -0.16034696
v -0.76037776 0.62394810 -0.08425856
v -0.76618743 0.60425586 0.07098544
v -0.81724942 0.52352595 0.16240858
v -0.97600698 0.09239753 -0.42915249
v -0.97335386 0.21323004 -0.38620645
v -1.03642452 0.23390403 -0.09211195
v -1.02527666 0.21884668 -0.23836641
v -1.04413104 0.12242949 -0.15778784
v -0.94005275 0.33153689 -0.32267216
v -0.87677658 0.42712247 -0.26152116
v -0.93362129 0.23298927 0.36314023
v -0.96221352 0.14032087 0.39412108
v -0.85960001 0.39503634 0.24024500
v -0.92641640 0.29745239 0.29624036
v -1.04726779 0.10804393 0.13883914
v -1.00140011 0.20783712 0.22003061
v -1.02393317 0.21355295 0.07649925
v -0.90451884 0.43508488 -0.09141915
v -0.96754622 0.32189253 -0.00995826
v -0.89245343 0.43053323 0.08238325
v 0.53348356 0.87064612 0.20697513
v 0.58543092 0.85402381 0.06907625
v 0.41298041 0.83399248 0.46840218
v 0.48195291 0.86203218 0.34498078
v 0.73431754 0.70768172 0.22829404
v 0.61688864 0.79114085 0.29619825
v 0.68537301 0.69566000 0.36490405
v 0.07831842 0.54215050 0.85851425
v 0.14963056 0.64389551 0.78271079
v 0.43115246 0.55415297 0.76281846
v 0.28710920 0.60304332 0.78219301
v 0.33036208 0.49118233 0.86218679
v 0.24466375 0.72487617 0.70022702
v 0.32285893 0.77776355 0.60372502
v 0.87837350 0.27955392 0.51835674
v 0.79217720 0.35067186 0.59293938
v 0.79819298 0.22752994 0.64921731
v 0.74277145 0.58592975 0.45276394
v 0.76465982 0.46752802 0.53010237
v 0.83841568 0.51486307 0.37833804
v 0.58295238 0.39092544 0.78974521
v 0.68808156 0.43268833 0.66560483
v 0.57730025 0.50552648 0.71487993
v 0.47643140 0.73350811 0.56316817
v 0.53297234 0.62185645 0.65190369
v 0.61717331 0.67196059 0.51137835
v -0.17051335 0.41649613 0.91953737
v -0.02499791 0.46292230 0.91900933
v -0.42685342 0.30858767 0.89214969
v -0.30392212 0.35955909 0.90911543
v -0.01381675 0.22691223 1.03241622
v -0.16185352 0.29771218 0.99066597
v -0.14414573 0.19108276 1.04130960
v -0.82014638 0.02177230 0.62238503
v -0.73780966 0.04602889 0.73398334
v -0.56892413 0.01939168 0.82688886
v -0.66594499 0.00213089 0.80333757
v -0.63443750 0.11802346 0.71636081
v -0.62421036 0.11836069 0.82168120
v -0.53513730 0.19788754 0.86452818
v -0.00469754 0.20612222 0.94826543
v -0.10772285 0.14434442 0.90213197
v -0.12179083 0.30268523 0.88139319
v -0.13461688 0.04610458 1.05231094
v -0.12141196 0.04949012 0.97501075
v 0.01916415 0.00000000 1.06051314
v -0.38581923 0.17000771 0.78267372
v -0.24797252 0.13976476 0.90027267
v -0.40192211 0.04371940 0.87357742
v -0.43096116 0.17946722 0.94709915
v -0.42357677 0.02477770 0.96462172
v -0.28547704 0.11268520 1.00923538
v -0.97979635 0.01798897 0.35929146
v -0.88833827 0.03239549 0.48862308
v -1.02656913 0.07706080 0.09222430
v -0.99078947 0.01587937 0.24324048
v -0.85623991 0.30042234 0.37640652
v -0.91072822 0.14893934 0.28480792
v -0.85811377 0.29986379 0.25659215
v -0.85628408 0.10770831 -0.50984406
v -0.91389489 0.12553006 -0.33363679
v -0.88770491 0.26920688 -0.21972005
v -0.89998341 0.18572013 -0.30555084
v -0.84422177 0.26245654 -0.36714199
v -0.97933137 0.10258348 -0.18611757
v -1.03551316 0.03436221 -0.06957547
v -0.59442544 0.70518523 0.08775549
v -0.69289380 0.62338340 0.03002234
v -0.62051821 0.68208575 -0.08426172
v -0.82391191 0.44430703 0.15752377
v -0.76126355 0.55518132 0.09192480
v -0.72921908 0.54113084 0.26048058
v -0.74349105 0.47823313 -0.23892722
v -0.76591289 0.49908087 -0.07199357
v -0.82805830 0.40131336 -0.13198213
v -0.96366072 0.14648812 0.02046193
v -0.90613151 0.28027618 -0.05727518
v -0.89735556 0.28603053 0.11294804
v -0.75755984 0.06969551 -0.73548985
v -0.84298915 0.01170828 -0.64887470
v -0.53806818 0.22971834 -0.88466793
v -0.66178083 0.15406500 -0.82257915
v -0.62026590 0.09884410 -0.75646502
v -0.64202106 0.00968228 -0.79887056
v -0.54485667 0.02420122 -0.85845828
v 0.00334065 0.42148918 -0.92641163
v -0.12880823 0.36329687 -0.93573856
v -0.13516556 0.13666405 -1.02617288
v -0.13226552 0.26233470 -0.98068416
v -0.00010884 0.22648196 -1.03698146
v -0.27009869 0.31513441 -0.93532175
v -0.38673696 0.27469975 -0.90634692
v -0.14627199 0.37972024 -0.87800217
v -0.17424226 0.25508410 -0.94807708
v -0.03518071 0.30759156 -0.91567409
v -0.41445947 0.14854491 -0.91310722
v -0.30397573 0.21394853 -0.92420608
v -0.39421940 0.24018109 -0.83080912
v -0.04400115 0.03087239 -1.04520500
v -0.18503401 0.11745512 -0.99649256
v -0.16250467 0.00077587 -1.05234134
v -0.39643231 0.14514440 -0.94401467
v -0.27339789 0.06055411 -1.01095009
v -0.43671083 0.02036512 -0.93989629
v 0.20908315 0.57905936 -0.79821891
v 0.12329426 0.48817861 -0.86817539
v 0.37295732 0.72317469 -0.62042421
v 0.30053821 0.65068454 -0.71769267
v 0.38664299 0.40374079 -0.85523635
v 0.34525305 0.52782530 -0.79652226
v 0.47051612 0.49075225 -0.76251572
v 0.59814316 0.83939946 -0.09219419
v 0.55344838 0.83678055 -0.22738613
v 0.70256341 0.65001118 -0.38910815
v 0.62209392 0.74631375 -0.32040340
v 0.73968887 0.66868716 -0.25469443
v 0.51038659 0.81992114 -0.37306774
v 0.45170072 0.78403193 -0.49136582
v 0.80628675 0.16140658 -0.62022310
v 0.80307519 0.29042098 -0.58494425
v 0.89370149 0.24002959 -0.49150479
v 0.60398275 0.41161692 -0.71238667
v 0.70667166 0.35152477 -0.65285593
v 0.61629236 0.26990956 -0.75937337
v 0.83967400 0.44892022 -0.38181087
v 0.78478140 0.40309685 -0.52509922
v 0.75175971 0.52002633 -0.46235988
v 0.50884128 0.66267395 -0.58654439
v 0.64619321 0.61576521 -0.52452534
v 0.57240599 0.53749055 -0.65308243
v 0.66714275 0.51996779 0.06564735
v 0.63065487 0.51369858 0.22109239
v 0.53286582 0.59728402 0.16576560
v 0.73699516 0.31130221 0.34020641
v 0.66996384 0.42353952 0.29235524
v 0.78162551 0.32377908 0.22007996
v 0.43197307 0.58794004 0.38123736
v 0.55271310 0.51259094 0.35244048
v 0.49982062 0.48094901 0.46052411
v 0.83262873 0.06627039 0.64334774
v 0.83819038 0.10670031 0.56590986
v 0.91229171 0.02959513 0.47872418
v 0.63216186 0.13606782 0.66081464
v 0.73985249 0.07374851 0.60275543
v 0.66320884 0.05714970 0.74008363
v 0.85620493 0.07437098 0.30598584
v 0.80118138 0.10852800 0.46743086
v 0.77622169 0.17090453 0.38751134
v 0.11121344 0.40470114 0.81558967
v 0.26142067 0.37687898 0.76502001
v 0.14208820 0.31623793 0.86250150
v 0.42267510 0.46756110 0.57352042
v 0.35751367 0.43659526 0.67712456
v 0.26547855 0.52851665 0.59491146
v 0.43886623 0.18879071 0.83730412
v 0.39036998 0.26062474 0.74298900
v 0.52226776 0.23443687 0.72539145
v 0.69368798 0.25814494 0.47835606
v 0.61333388 0.27846077 0.61614335
v 0.55696350 0.37477779 0.53140062
v 0.42208925 0.64230335 0.10705809
v 0.44419360 0.52917171 -0.02738618
v 0.31886902 0.67999703 0.38272345
v 0.38277712 0.69274014 0.26189074
v 0.18188672 0.59333813 0.04124358
v 0.28945863 0.68515992 0.17243193
v 0.14040631 0.61463183 0.17579882
v -0.05069001 0.42770058 0.79329526
v 0.04057841 0.53062159 0.71736491
v -0.09057424 0.65925348 0.57148927
v -0.02945534 0.58679676 0.66192228
v -0.17558251 0.61631632 0.62788558
v 0.16639094 0.58821404 0.64105642
v 0.21784027 0.65682673 0.52243543
v -0.38949630 0.66855770 0.00907033
v -0.30755979 0.77403921 0.14843534
v -0.46687290 0.76616579 0.15660487
v -0.03085509 0.62828916 0.15939283
v -0.15133086 0.76768035 0.15442528
v -0.10258092 0.60842633 0.05929051
v -0.29860744 0.71620744 0.37360108
v -0.24223104 0.80438328 0.25407860
v -0.17948346 0.74714053 0.40001729
v 0.16885331 0.72259551 0.44663659
v 0.00433510 0.74169248 0.44376031
v 0.05350697 0.61288625 0.33598593
v 0.38552722 0.62713897 -0.10066352
v 0.54362535 0.63280201 -0.10451230
v 0.16453215 0.58216703 -0.12230468
v 0.26967981 0.53366947 -0.08366599
v 0.41602764 0.67945886 -0.34926218
v 0.32303134 0.73776060 -0.22380662
v 0.27181917 0.74362671 -0.33841741
v -0.48262087 0.74290597 -0.13579591
v -0.35415983 0.61497205 -0.12178984
v -0.21836993 0.51075554 -0.30371380
v -0.24701217 0.60616159 -0.20112471
v -0.36815396 0.57468331 -0.34221572
v -0.18988591 0.57567453 -0.08433958
v -0.04610460 0.58650404 -0.09631121
v 0.04905684 0.51925772 -0.74764556
v -0.00330451 0.61686271 -0.68410343
v -0.10578240 0.51970220 -0.74931663
v 0.18265881 0.72743350 -0.48682055
v 0.08129864 0.69397587 -0.59799337
v 0.26270044 0.66271549 -0.58927643
v -0.16616288 0.51187116 -0.60781986
v -0.09347675 0.68819296 -0.58832085
v -0.13075115 0.59337455 -0.45802233
v 0.07665261 0.59312481 -0.22738305
v -0.02849947 0.58521551 -0.36238119
v 0.10281508 0.70350271 -0.32289127
v 0.61549449 0.61918145 -0.21329558
v 0.66295624 0.55467528 -0.09376357
v 0.49361837 0.62469816 -0.45150807
v 0.58011448 0.64218146 -0.36679557
v 0.76427627 0.45304033 -0.24827205
v 0.65825003 0.55922723 -0.31153524
v 0.71940500 0.45099670 -0.36878166
v 0.09253810 0.39209762 -0.84962302
v 0.20268899 0.47829252 -0.80163682
v 0.45724449 0.34812158 -0.78789085
v 0.33336329 0.41077012 -0.80079299
v 0.34225446 0.23376352 -0.85779512
v 0.30336475 0.54730868 -0.70787257
v 0.39876691 0.59850782 -0.61213803
v 0.88870186 0.05013064 -0.54934716
v 0.80766273 0.16358587 -0.61375612
v 0.80068350 0.06954508 -0.66587055
v 0.78245038 0.32886732 -0.48941112
v 0.83339834 0.21917613 -0.55424249
v 0.87687528 0.24364114 -0.39327541
v 0.56886804 0.17760718 -0.81572217
v 0.69794005 0.22789462 -0.71192527
v 0.58679879 0.30322310 -0.74804908
v 0.51128477 0.52865785 -0.59592515
v 0.58575809 0.41485211 -0.66524601
v 0.66084749 0.42738199 -0.55868953
v 0.74698144 0.48984998 0.00092760
v 0.85034096 0.33962154 -0.16742189
v 0.80169129 0.43094188 -0.09200553
v 0.79794461 0.36532250 0.07725358
v 0.83049822 0.24389730 0.11866561
v 0.95701605 0.14156516 -0.40986380
v 0.97928476 0.02800215 -0.40543777
v 1.06690097 0.01679261 -0.09709866
v 1.03869772 0.06014977 -0.25066474
v 1.03909123 0.13595726 -0.12492514
v 0.95940787 0.11091071 -0.33270118
v 0.92087078 0.22278693 -0.27722472
v 0.96808022 0.03708889 0.33174193
v 0.95448840 0.15321194 0.42597845
v 0.87609380 0.11364543 0.16571510
v 0.92281884 0.00000000 0.23417234
v 1.04270542 0.17375168 0.13259654
v 1.01307118 0.09932882 0.19901636
v 1.06501949 0.03924455 0.07061877
v 0.93035412 0.23016705 -0.08553497
v 1.00313365 0.08532488 -0.05151019
v 0.92004871 0.13358560 0.04219515
v 0.14524394 0.19201349 0.92883068
v 0.43658093 0.10280367 0.89772928
v 0.30240434 0.14441825 0.91617423
v 0.15491743 0.07981859 0.98951930
v 0.16243356 0.01342257 1.06184149
v 0.75835580 0.16199297 0.74034828
v 0.50864100 0.29375911 0.86746031
v 0.63159567 0.23330782 0.82092685
v 0.66831678 0.08106179 0.82358229
v 0.57623112 0.02095404 0.87989157
v 0.09135660 0.41716164 0.94394082
v 0.14519136 0.15005648 1.04350412
v 0.09211936 0.27895626 0.99026465
v 0.22266601 0.39273283 0.93927658
v 0.35061583 0.34571528 0.91549349
v 0.44503936 0.05112159 0.96773827
v 0.40041459 0.21452804 0.94870347
v 0.29201597 0.10419709 1.01584303
v -0.53907496 0.70357978 0.23831317
v -0.38239524 0.62137020 0.47198135
v -0.47507432 0.69935989 0.37442917
v -0.64371139 0.62439078 0.32857844
v -0.66902542 0.53956854 0.41305003
v -0.21217373 0.38917899 0.83226019
v -0.46795413 0.30786863 0.74597228
v -0.32863501 0.34303984 0.76303208
v -0.25872707 0.48936450 0.73348248
v -0.30023485 0.58856952 0.62060297
v -0.80884689 0.12412330 0.56110549
v -0.76683718 0.36690417 0.48099637
v -0.78729022 0.25267991 0.52157027
v -0.70713496 0.21582088 0.63462007
v -0.60242647 0.28234631 0.70039350
v -0.46329391 0.54843640 0.61580217
v -0.54289919 0.40025374 0.66903883
v -0.61007190 0.44339165 0.54633886
v -0.24995601 0.44658652 -0.79388970
v -0.33498275 0.52189809 -0.59016317
v -0.30123252 0.48880231 -0.68997282
v -0.38263503 0.39241230 -0.76942211
v -0.48020235 0.31475565 -0.74806869
v -0.55596066 0.69047964 -0.23940597
v -0.68366671 0.45704937 -0.36159351
v -0.63025075 0.58056086 -0.27149656
v -0.50044310 0.63170832 -0.37684301
v -0.45290512 0.61097008 -0.48868492
v -0.81712943 0.12459717 -0.57228398
v -0.63017434 0.24359837 -0.69046801
v -0.69733340 0.15516773 -0.61326879
v -0.77803612 0.20149602 -0.48260292
v -0.73977315 0.30277956 -0.45546058
v -0.53776520 0.51470906 -0.53192657
v -0.64059025 0.39868569 -0.50069243
v -0.57241255 0.35362157 -0.61993235
v 0.74427485 0.05305920 -0.72498518
v 0.49523875 0.07513729 -0.87519139
v 0.63661408 0.05660976 -0.82699174
v 0.64599794 0.13902217 -0.79854852
v 0.53914946 0.21064916 -0.84276521
v 0.09482114 0.24301156 -0.93142879
v 0.11732027 0.03662373 -1.03714669
v 0.07388586 0.10224885 -0.98523057
v 0.21232943 0.15491568 -0.90749645
v 0.34742239 0.10700120 -0.91406536
v 0.13983506 0.39056486 -0.93977618
v 0.40642533 0.26967463 -0.90869319
v 0.27209085 0.32960635 -0.92514038
v 0.14089181 0.25350183 -0.99553567
v 0.12859933 0.15395950 -1.02685165
v 0.39718086 0.00142815 -0.95814663
v 0.27553758 0.09924003 -1.02629364
v 0.42730349 0.13232960 -0.94413918
v 0.93941897 0.28135028 0.39110848
v 1.02320898 0.27588156 0.07960616
v 0.99414492 0.29882151 0.22514893
v 0.92334199 0.39877400 0.32143101
v 0.89388502 0.51290077 0.24255757
v 0.94811314 0.25006554 -0.37344241
v 0.87225759 0.45984679 -0.25097090
v 0.91925925 0.34386301 -0.30218884
v 0.98848963 0.24701035 -0.22358452
v 1.02393341 0.26265058 -0.07856951
v 0.67850989 0.77997571 -0.01373880
v 0.83034039 0.62659770 0.14121106
v 0.75230610 0.71054500 0.06509125
v 0.75322944 0.68880743 -0.09849403
v 0.82236236 0.59289873 -0.16911338
v 0.97480327 0.39980483 0.00550219
v 0.90791023 0.48243240 -0.09981824
v 0.90858090 0.51136482 0.06795639
f 330 87 329
f 336 325 26
f 207 208 56
f 464 36 580
f 502 129 504
f 157 624 622
f 308 311 82
f 247 223 248
f 507 483 508
f 331 88 329
f 494 500 497
f 156 601 602
f 591 589 592
f 365 98 596
f 75 281 282
f 152 587 577
f 149 559 560
f 555 121 553
f 530 141 529
f 515 517 139
f 361 594 98
f 250 67 249
f 157 608 609
f 294 293 209
f 317 81 316
f 557 338 26
f 303 305 81
f 530 529 528
f 101 381 382
f 415 418 111
f 192 184 50
f 412 110 411
f 20 384 256
f 131 594 486
f 281 264 282
f 347 287 348
f 28 349 582
f 165 163 1
f 248 250 66
f 617 107 398
f 273 271 274
f 456 115 453
f 558 561 560
f 335 576 91
f 331 177 332
f 116 433 436
f 351 370 92
f 136 511 530
f 239 240 65
f 247 258 19
f 304 23 567
f 148 557 570
f 214 208 58
f 440 426 450
f 268 270 269
f 258 247 268
f 204 202 16
f 466 125 465
f 517 513 133
f 168 275 274
f 275 73 274
f 198 193 53
f 309 308 307
f 510 511 136
f 415 416 110
f 131 490 597
f 473 475 474
f 414 415 111
f 493 495 494
f 496 504 485
f 433 116 432
f 600 375 601
f 240 234 65
f 418 415 412
f 486 361 3
f 567 566 304
f 380 393 29
f 17 199 197
f 491 492 132
f 451 449 435
f 218 217 216
f 623 621 613
f 396 104 395
f 433 439 436
f 628 160 627
f 215 202 217
f 209 207 2
f 427 113 424
f 434 10 544
f 434 433 432
f 199 17 210
f 150 564 565
f 489 491 132
f 275 13 285
f 497 500 134
f 125 466 476
f 578 152 577
f 208 214 211
f 328 88 343
f 356 27 603
f 150 566 567
f 372 100 371
f 190 191 47
f 235 8 398
f 260 261 72
f 422 403 414
f 422 414 111
f 453 454 123
f 349 583 582
f 521 520 519
f 425 453 115
f 616 622 158
f 483 130 508
f 151 586 572
f 212 17 232
f 400 397 402
f 377 396 99
f 41 522 511
f 510 508 505
f 549 547 42
f 475 473 36
f 510 137 509
f 222 221 197
f 430 115 429
f 220 194 1
f 305 54 204
f 621 29 613
f 192 171 184
f 460 335 5
f 88 331 332
f 74 277 279
f 300 301 80
f 390 389 388
f 165 45 164
f 146 549 551
f 291 278 75
f 448 120 445
f 147 543 544
f 607 610 609
f 603 602 356
f 139 529 514
f 333 553 443
f 92 368 347
f 261 260 259
f 300 6 200
f 46 177 331
f 284 283 174
f 301 300 200
f 471 468 474
f 54 305 301
f 302 304 303
f 569 150 567
f 150 569 570
f 294 209 2
f 628 629 160
f 548 543 147
f 147 625 627
f 63 233 234
f 426 427 114
f 41 509 532
f 198 52 196
f 614 105 612
f 147 627 547
f 81 305 306
f 549 548 547
f 54 301 200
f 342 88 332
f 264 281 70
f 193 194 53
f 455 429 456
f 187 321 14
f 479 130 484
f 147 544 625
f 458 456 453
f 304 80 303
f 314 84 313
f 488 503 501
f 321 332 14
f 423 425 424
f 305 204 306
f 341 339 25
f 514 40 516
f 625 628 627
f 340 339 341
f 105 614 391
f 243 228 62
f 318 316 78
f 75 278 279
f 357 355 353
f 238 257 63
f 466 455 476
f 425 423 4
f 448 449 120
f 408 638 108
f 292 275 285
f 22 278 289
f 515 513 517
f 501 503 134
f 622 623 158
f 134 503 504
f 195 216 206
f 163 271 246
f 619 617 620
f 62 228 229
f 163 165 164
f 453 425 454
f 489 132 488
f 82 628 625
f 58 208 209
f 525 608 40
f 626 547 627
f 518 517 498
f 489 487 491
f 557 26 564
f 325 336 344
f 541 145 539
f 40 616 516
f 338 556 89
f 250 248 245
f 139 514 515
f 98 594 596
f 246 220 1
f 112 413 630
f 9 536 413
f 156 600 601
f 332 177 14
f 321 342 332
f 156 606 600
f 584 330 585
f 302 303 81
f 584 87 330
f 330 25 585
f 400 239 65
f 439 440 117
f 95 358 368
f 597 594 131
f 594 361 486
f 246 67 245
f 561 562 149
f 28 364 362
f 55 216 217
f 427 430 114
f 267 20 254
f 556 555 553
f 84 309 558
f 311 310 312
f 609 525 142
f 256 68 255
f 124 460 461
f 82 311 312
f 307 308 82
f 589 135 495
f 527 40 514
f 112 418 412
f 20 256 254
f 258 238 19
f 267 254 269
f 273 272 249
f 392 391 393
f 137 533 509
f 122 455 456
f 9 413 411
f 130 480 505
f 333 443 5
f 527 525 40
f 589 495 385
f 39 496 485
f 223 225 224
f 414 416 415
f 219 222 53
f 145 538 539
f 413 412 411
f 469 468 467
f 183 181 6
f 191 192 50
f 429 35 431
f 292 285 76
f 413 112 412
f 415 110 412
f 43 164 167
f 467 468 126
f 617 101 620
f 450 451 117
f 438 546 545
f 619 620 159
f 17 212 210
f 124 579 576
f 584 153 583
f 460 124 576
f 3 469 467
f 311 308 314
f 6 320 183
f 389 104 388
f 251 250 249
f 194 165 1
f 291 289 278
f 287 77 348
f 238 258 257
f 139 517 518
f 238 236 19
f 223 247 19
f 382 380 29
f 39 518 498
f 361 359 3
f 69 255 257
f 139 518 528
f 33 545 535
f 387 385 7
f 69 268 269
f 477 462 125
f 454 479 123
f 121 555 447
f 451 435 117
f 454 425 4
f 233 252 8
f 124 463 464
f 69 258 268
f 168 167 166
f 583 153 582
f 384 394 102
f 138 512 513
f 57 210 211
f 254 256 255
f 607 609 142
f 324 319 86
f 289 291 76
f 291 292 76
f 384 102 383
f 422 421 420
f 221 17 197
f 383 102 381
f 376 377 99
f 99 373 374
f 386 105 392
f 438 33 440
f 90 341 343
f 281 75 279
f 574 571 96
f 628 82 312
f 221 222 59
f 127 471 474
f 595 605 603
f 551 538 145
f 334 91 340
f 322 324 85
f 305 303 301
f 18 239 399
f 306 204 16
f 199 198 197
f 166 190 180
f 303 80 301
f 267 266 265
f 626 42 547
f 16 215 213
f 349 351 350
f 295 16 213
f 68 379 252
f 250 251 66
f 627 160 626
f 383 68 256
f 343 88 342
f 507 508 136
f 202 215 16
f 197 198 53
f 254 69 269
f 603 605 156
f 418 419 111
f 384 383 256
f 455 122 476
f 203 204 54
f 556 557 148
f 255 68 253
f 313 84 560
f 25 328 341
f 254 255 69
f 603 156 602
f 581 584 583
f 630 632 112
f 163 246 1
f 246 245 220
f 432 116 558
f 499 591 590
f 320 563 86
f 345 93 350
f 306 16 295
f 346 93 345
f 562 568 149
f 604 605 155
f 154 592 593
f 545 552 535
f 511 522 530
f 574 573 571
f 566 150 565
f 361 98 360
f 67 271 273
f 234 235 65
f 208 211 56
f 574 151 573
f 251 270 66
f 398 8 378
f 213 215 214
f 438 440 439
f 315 314 313
f 263 71 262
f 20 373 384
f 496 134 504
f 329 88 328
f 81 306 316
f 555 556 148
f 592 589 103
f 617 619 107
f 227 207 56
f 571 359 96
f 446 466 465
f 206 216 55
f 359 571 469
f 568 148 570
f 34 437 435
f 28 351 349
f 21 272 282
f 113 423 424
f 490 489 488
f 379 68 383
f 210 212 211
f 80 563 300
f 351 92 350
f 326 346 12
f 83 317 318
f 555 148 554
f 212 231 56
f 218 57 217
f 271 67 246
f 195 196 52
f 270 268 66
f 390 592 103
f 148 568 554
f 495 493 7
f 592 390 593
f 357 95 355
f 574 575 151
f 452 120 451
f 154 591 592
f 587 585 577
f 395 394 396
f 93 349 350
f 610 416 611
f 166 44 190
f 315 23 302
f 315 302 317
f 268 247 66
f 606 154 593
f 396 394 99
f 211 212 56
f 370 369 368
f 235 397 65
f 280 278 22
f 83 315 317
f 575 588 151
f 74 279 280
f 385 495 7
f 63 257 253
f 397 235 398
f 214 58 213
f 220 219 194
f 546 146 545
f 236 225 19
f 599 94 602
f 235 233 8
f 102 394 395
f 611 416 32
f 225 223 19
f 139 528 529
f 231 62 229
f 419 406 421
f 451 450 452
f 49 182 185
f 402 397 107
f 52 199 218
f 416 610 110
f 225 236 244
f 107 397 398
f 68 252 253
f 322 85 321
f 182 181 183
f 118 438 439
f 546 438 118
f 348 77 345
f 543 546 118
f 231 212 232
f 610 611 157
f 33 438 545
f 385 386 103
f 479 480 130
f 169 195 15
f 93 583 349
f 15 195 206
f 190 44 192
f 247 248 66
f 146 552 545
f 248 60 245
f 570 557 564
f 274 271 43
f 63 253 233
f 272 21 249
f 507 528 518
f 67 273 249
f 487 467 126
f 196 195 169
f 624 159 623
f 134 496 497
f 132 503 488
f 104 393 395
f 556 553 89
f 355 356 94
f 258 69 257
f 229 61 227
f 56 231 227
f 460 576 335
f 463 124 461
f 394 373 99
f 29 393 391
f 67 250 245
f 193 198 196
f 462 36 464
f 144 633 630
f 141 526 527
f 517 133 498
f 536 144 630
f 100 372 599
f 144 536 537
f 22 289 287
f 578 579 152
f 579 578 576
f 189 188 187
f 60 223 224
f 92 348 350
f 555 554 447
f 396 377 388
f 194 193 165
f 413 536 630
f 372 352 599
f 377 376 375
f 348 345 350
f 105 386 387
f 240 237 234
f 463 462 464
f 135 500 494
f 45 196 169
f 512 612 387
f 245 60 220
f 429 115 456
f 223 60 248
f 288 289 76
f 525 526 142
f 100 599 601
f 613 29 391
f 526 523 520
f 341 328 343
f 631 641 639
f 264 21 282
f 266 72 265
f 106 402 403
f 73 273 274
f 186 206 205
f 381 379 383
f 52 216 195
f 410 18 399
f 290 272 73
f 72 371 374
f 526 525 527
f 115 430 424
f 498 497 496
f 621 382 29
f 543 118 434
f 214 215 57
f 522 141 530
f 511 510 509
f 352 94 599
f 493 512 7
f 90 340 341
f 169 171 170
f 605 604 606
f 219 60 224
f 104 389 392
f 359 469 3
f 186 49 185
f 222 219 224
f 166 167 44
f 428 427 426
f 523 522 524
f 129 502 481
f 50 185 188
f 164 45 170
f 425 115 424
f 33 428 426
f 427 428 113
f 94 356 602
f 515 138 513
f 114 431 452
f 237 236 238
f 215 217 57
f 95 354 355
f 220 60 219
f 515 514 516
f 183 320 319
f 222 197 53
f 559 569 567
f 300 320 6
f 435 436 117
f 96 360 363
f 640 642 641
f 242 243 62
f 140 537 519
f 508 130 505
f 420 410 399
f 537 539 144
f 317 316 318
f 426 114 450
f 186 15 206
f 311 83 310
f 625 544 307
f 544 10 307
f 168 43 167
f 185 182 188
f 369 354 95
f 44 171 192
f 605 606 156
f 548 549 146
f 100 601 375
f 149 568 569
f 381 380 382
f 455 466 35
f 480 479 454
f 543 548 546
f 493 133 513
f 492 472 37
f 477 125 476
f 491 487 126
f 337 336 338
f 588 153 587
f 576 578 91
f 633 161 632
f 96 359 360
f 39 485 483
f 101 617 378
f 193 45 165
f 163 164 43
f 618 624 611
f 507 136 528
f 561 149 560
f 641 162 639
f 116 561 558
f 494 133 493
f 253 252 233
f 63 237 238
f 392 393 104
f 440 450 117
f 93 581 583
f 386 385 387
f 120 449 451
f 421 422 111
f 486 3 467
f 302 81 317
f 633 632 630
f 462 475 36
f 376 99 374
f 489 490 131
f 447 449 448
f 387 612 105
f 106 420 399
f 173 46 172
f 492 491 472
f 316 306 295
f 22 287 347
f 109 410 420
f 507 39 483
f 559 23 313
f 214 57 211
f 196 45 193
f 10 434 432
f 422 106 403
f 626 160 640
f 487 486 467
f 542 41 532
f 400 106 399
f 444 120 452
f 198 199 52
f 475 127 474
f 621 620 382
f 621 623 159
f 450 114 452
f 92 347 348
f 376 100 375
f 434 118 433
f 503 132 502
f 337 90 336
f 537 536 519
f 395 393 380
f 201 54 200
f 171 44 170
f 355 94 353
f 58 296 213
f 422 420 106
f 595 365 596
f 569 568 570
f 523 140 520
f 114 430 431
f 218 210 57
f 304 566 80
f 639 162 638
f 261 371 72
f 548 147 547
f 498 133 497
f 150 570 564
f 222 224 59
f 142 526 520
f 437 436 435
f 141 522 523
f 137 510 505
f 173 179 176
f 559 149 569
f 121 447 448
f 563 320 300
f 102 395 380
f 257 255 253
f 642 162 641
f 83 311 314
f 216 52 218
f 512 493 513
f 23 304 302
f 91 339 340
f 512 138 612
f 159 620 621
f 218 199 210
f 364 28 575
f 83 318 310
f 168 274 43
f 136 530 528
f 140 523 524
f 495 135 494
f 233 235 234
f 566 563 80
f 25 339 577
f 277 74 276
f 475 462 477
f 133 494 497
f 436 437 116
f 389 386 392
f 548 146 546
f 441 460 5
f 10 309 307
f 65 397 400
f 543 434 544
f 640 641 161
f 272 273 73
f 581 93 346
f 419 421 111
f 319 320 86
f 180 179 178
f 127 475 477
f 231 229 227
f 337 334 340
f 136 508 510
f 308 309 84
f 237 63 234
f 447 554 34
f 252 379 378
f 315 83 314
f 608 622 616
f 338 336 26
f 337 338 89
f 13 275 168
f 209 208 207
f 436 439 117
f 628 312 629
f 360 366 363
f 364 574 96
f 359 361 360
f 466 446 35
f 500 501 134
f 406 109 421
f 135 589 591
f 601 599 602
f 340 90 337
f 481 492 37
f 522 41 524
f 78 316 295
f 131 486 487
f 403 32 414
f 634 626 640
f 151 572 573
f 515 516 138
f 8 252 378
f 265 72 374
f 9 521 519
f 538 549 42
f 368 358 347
f 588 587 586
f 458 453 123
f 589 385 103
f 502 492 481
f 32 416 414
f 430 427 424
f 153 585 587
f 540 144 539
f 370 368 92
f 209 293 58
f 428 33 535
f 326 581 346
f 625 307 82
f 575 28 582
f 6 181 200
f 421 109 420
f 553 121 443
f 160 642 640
f 153 584 585
f 309 432 558
f 334 337 89
f 23 315 313
f 271 163 43
f 296 295 213
f 39 498 496
f 118 439 433
f 531 113 534
f 293 296 58
f 28 362 351
f 489 131 487
f 431 444 452
f 84 558 560
f 98 366 360
f 45 169 170
f 379 101 378
f 462 463 125
f 308 84 314
f 10 432 309
f 299 24 310
f 132 492 502
f 512 387 7
f 639 638 408
f 565 323 86
f 59 244 242
f 106 400 402
f 440 33 426
f 566 565 563
f 617 398 378
f 224 225 59
f 410 109 409
f 239 400 399
f 194 219 53
f 358 22 347
f 610 157 609
f 27 595 603
f 479 484 482
f 142 520 521
f 585 25 577
f 339 578 577
f 408 407 406
f 407 109 406
f 31 408 406
f 407 408 108
f 31 639 408
f 419 31 406
f 608 616 40
f 430 429 431
f 455 35 429
f 35 444 431
f 188 51 187
f 188 182 51
f 51 322 187
f 322 51 319
f 51 182 183
f 319 51 183
f 187 322 321
f 322 319 324
f 381 101 379
f 405 407 108
f 404 405 108
f 286 285 178
f 407 405 409
f 109 407 409
f 191 175 47
f 167 164 170
f 50 184 185
f 44 167 170
f 64 244 236
f 243 244 64
f 50 188 189
f 541 542 145
f 442 445 119
f 339 91 578
f 445 446 119
f 624 623 622
f 611 624 157
f 523 526 141
f 141 527 529
f 527 514 529
f 445 120 444
f 446 445 444
f 35 446 444
f 613 614 158
f 158 614 615
f 623 613 158
f 614 613 391
f 614 612 615
f 371 376 374
f 100 376 371
f 479 482 123
f 373 394 384
f 540 42 634
f 633 540 634
f 538 42 540
f 633 634 161
f 161 634 640
f 42 626 634
f 540 633 144
f 557 556 338
f 553 333 89
f 262 21 264
f 251 21 262
f 5 335 333
f 270 251 262
f 21 251 249
f 600 593 30
f 606 593 600
f 600 30 375
f 593 390 30
f 30 377 375
f 390 388 30
f 30 388 377
f 228 243 241
f 470 478 459
f 470 127 478
f 127 477 478
f 184 186 185
f 478 477 476
f 122 478 476
f 357 74 280
f 518 39 507
f 344 342 85
f 325 344 85
f 342 344 343
f 85 342 321
f 344 90 343
f 90 344 336
f 482 129 481
f 482 481 457
f 482 457 123
f 481 37 457
f 449 447 34
f 435 449 34
f 470 472 471
f 472 470 37
f 470 471 127
f 472 126 471
f 126 468 471
f 470 459 37
f 491 126 472
f 504 129 485
f 221 59 242
f 125 463 465
f 437 34 562
f 561 437 562
f 554 568 562
f 34 554 562
f 437 561 116
f 390 103 389
f 103 386 389
f 392 105 391
f 572 586 580
f 572 580 36
f 586 152 580
f 473 572 36
f 244 243 242
f 225 244 59
f 64 240 241
f 240 239 241
f 237 240 64
f 243 64 241
f 236 237 64
f 411 607 521
f 9 411 521
f 110 607 411
f 607 142 521
f 610 607 110
f 171 15 184
f 171 169 15
f 15 186 184
f 87 584 581
f 153 588 582
f 588 575 582
f 381 102 380
f 573 572 473
f 468 469 128
f 474 468 128
f 469 571 128
f 571 573 128
f 573 473 128
f 473 474 128
f 564 323 565
f 26 323 564
f 323 324 86
f 325 323 26
f 325 324 323
f 563 565 86
f 324 325 85
f 410 230 18
f 230 228 18
f 18 228 241
f 18 241 239
f 401 619 618
f 401 402 107
f 403 402 401
f 619 159 618
f 401 618 32
f 619 401 107
f 403 401 32
f 618 611 32
f 159 624 618
f 478 122 459
f 122 458 459
f 37 459 457
f 459 458 457
f 122 456 458
f 457 458 123
f 191 190 192
f 485 129 484
f 129 482 484
f 483 485 484
f 130 483 484
f 189 187 14
f 191 50 189
f 191 189 175
f 189 14 175
f 14 177 175
f 499 501 500
f 501 499 38
f 38 499 590
f 135 499 500
f 488 501 38
f 499 135 591
f 480 454 4
f 284 12 346
f 4 423 506
f 480 4 506
f 423 531 506
f 480 506 505
f 531 137 506
f 506 137 505
f 365 366 98
f 71 270 262
f 270 71 269
f 71 267 269
f 335 334 333
f 333 334 89
f 334 335 91
f 536 9 519
f 465 463 461
f 537 140 541
f 520 140 519
f 119 446 465
f 465 461 119
f 461 441 119
f 460 441 461
f 176 46 173
f 299 297 24
f 71 263 266
f 263 260 266
f 260 72 266
f 263 70 260
f 205 201 49
f 201 181 49
f 186 205 49
f 181 201 200
f 181 182 49
f 284 77 283
f 586 587 152
f 588 586 151
f 20 267 265
f 266 267 71
f 31 417 631
f 631 417 632
f 31 631 639
f 417 31 419
f 641 631 161
f 417 112 632
f 161 631 632
f 418 417 419
f 417 418 112
f 284 345 77
f 542 550 145
f 542 541 524
f 284 174 12
f 48 174 283
f 373 20 265
f 373 265 374
f 609 608 525
f 608 157 622
f 560 559 313
f 636 637 162
f 541 140 524
f 41 542 524
f 358 357 280
f 70 263 264
f 263 262 264
f 176 177 46
f 174 48 173
f 174 173 172
f 538 551 549
f 538 540 539
f 537 541 539
f 232 221 242
f 17 221 232
f 232 242 62
f 231 232 62
f 203 205 55
f 203 55 202
f 201 205 203
f 202 55 217
f 205 206 55
f 204 203 202
f 73 275 292
f 292 290 73
f 272 290 282
f 290 292 291
f 75 290 291
f 290 75 282
f 70 277 259
f 277 70 281
f 277 281 279
f 260 70 259
f 12 174 172
f 104 396 388
f 367 27 354
f 365 27 367
f 354 27 356
f 365 367 366
f 595 27 365
f 318 299 310
f 155 596 597
f 155 597 598
f 596 594 597
f 595 596 155
f 605 595 155
f 180 47 179
f 180 190 47
f 352 372 11
f 11 372 261
f 312 310 24
f 642 636 162
f 636 297 637
f 367 369 97
f 366 367 97
f 369 367 354
f 369 370 97
f 580 579 464
f 580 152 579
f 579 124 464
f 61 230 409
f 230 410 409
f 230 61 229
f 230 229 228
f 76 285 286
f 353 352 276
f 74 353 276
f 288 76 286
f 288 286 283
f 289 288 287
f 203 54 201
f 287 288 77
f 77 288 283
f 286 48 283
f 531 423 113
f 276 11 259
f 11 261 259
f 277 276 259
f 616 158 615
f 516 616 615
f 138 516 615
f 138 615 612
f 509 533 532
f 503 502 504
f 635 79 294
f 635 294 404
f 635 637 79
f 637 635 638
f 638 635 108
f 635 404 108
f 226 61 405
f 61 226 227
f 405 61 409
f 227 226 207
f 48 178 179
f 48 286 178
f 173 48 179
f 534 143 533
f 534 535 143
f 531 534 533
f 533 143 532
f 137 531 533
f 261 372 371
f 13 180 178
f 285 13 178
f 180 13 166
f 13 168 166
f 346 345 284
f 331 327 46
f 46 327 172
f 172 327 326
f 382 620 101
f 442 121 448
f 443 121 442
f 2 226 404
f 294 2 404
f 404 226 405
f 207 226 2
f 550 551 145
f 552 146 551
f 143 550 532
f 552 550 143
f 330 329 328
f 24 636 629
f 94 352 353
f 352 11 276
f 113 428 534
f 428 535 534
f 509 41 511
f 535 552 143
f 550 552 551
f 550 542 532
f 369 95 368
f 326 327 87
f 87 327 329
f 327 331 329
f 581 326 87
f 293 79 298
f 79 297 298
f 296 298 78
f 79 293 294
f 296 293 298
f 598 490 38
f 358 280 22
f 280 279 278
f 357 358 95
f 74 357 353
f 330 328 25
f 567 23 559
f 590 598 38
f 590 604 598
f 598 604 155
f 604 590 154
f 590 591 154
f 604 154 606
f 297 299 298
f 299 318 78
f 298 299 78
f 355 354 356
f 629 636 642
f 312 24 629
f 629 642 160
f 370 362 97
f 362 363 97
f 363 366 97
f 364 363 362
f 362 370 351
f 96 363 364
f 297 636 24
f 162 637 638
f 637 297 79
f 490 488 38
f 598 597 490
f 441 442 119
f 443 442 441
f 443 441 5
f 442 448 445
f 296 78 295
f 326 12 172
f 575 574 364
f 47 175 176
f 175 177 176
f 47 176 179
