# FEM surface export ¡ª frame 309
# Vertices: 642  Faces: 1280
v -0.52554488 1.40565741 -0.00002093
v 0.52563649 1.40392828 0.00047313
v -0.60858178 0.00000000 -0.01027766
v 0.60326725 0.00000000 -0.01039241
v 0.00209111 0.11131749 0.92691290
v -0.00137226 1.09690940 0.85818523
v -0.00015316 0.11419023 -0.93119353
v 0.00002291 1.09492683 -0.85701352
v 0.88380158 0.59782588 -0.54754233
v 0.88318133 0.59846240 0.54591638
v -0.88255000 0.59754866 -0.54666889
v -0.88134426 0.59976161 0.54511881
v -0.81621987 1.07046652 0.31163132
v -0.50842142 0.89097869 0.82330704
v -0.30934018 1.36461258 0.49977475
v 0.30937541 1.36419404 0.50088423
v 0.00021847 1.54826963 0.00008229
v 0.30930179 1.36446631 -0.50019342
v -0.30921531 1.36560500 -0.50033975
v -0.50943863 0.88880390 -0.82336706
v -0.81617361 1.07151175 -0.31174174
v -1.03682268 0.59562063 -0.00144937
v 0.50949764 0.89121968 0.82526124
v 0.81636322 1.06847560 0.31158638
v -0.53087723 0.30971155 0.86342901
v 0.00004328 0.59650248 1.03862190
v -0.88325393 0.13533495 -0.33452645
v -0.87982458 0.13668357 0.33894527
v -0.00230354 0.59849918 -1.03795242
v -0.53042078 0.30527535 -0.85979676
v 0.81690639 1.06889617 -0.31136283
v 0.50815636 0.88838243 -0.82284939
v 0.88312173 0.13641044 0.33816472
v 0.53434801 0.30888104 0.86195254
v 0.34530762 0.00000000 0.57026690
v -0.36195320 0.00000000 0.57431442
v -0.00719666 0.00000000 0.00643701
v -0.35484582 0.00000000 -0.56379354
v 0.35257798 0.00000000 -0.56742752
v 0.53423750 0.30811512 -0.86406010
v 0.88648957 0.13606842 -0.33740830
v 1.04093981 0.59741956 -0.00121665
v -0.69528300 1.26303983 0.16084620
v -0.58933181 1.25000834 0.42630553
v -0.43385217 1.41648698 0.25949025
v -0.71823114 0.75130439 0.71153599
v -0.69633013 1.00048673 0.59457690
v -0.87932289 0.84374934 0.44204074
v -0.16126259 1.25474942 0.70364016
v -0.42810068 1.15430820 0.69156677
v -0.26344132 1.00952911 0.87342989
v -0.16199873 1.50112605 0.26255032
v -0.27246547 1.51194918 0.00015950
v 0.16046020 1.25376177 0.70405376
v 0.00011545 1.40404153 0.52549547
v 0.27285171 1.51131523 0.00037381
v 0.16270775 1.50140822 0.26292843
v 0.43408781 1.41530478 0.26021650
v -0.16206516 1.50137568 -0.26251280
v -0.43369684 1.41728437 -0.25970653
v 0.43397021 1.41602075 -0.25965339
v 0.16226172 1.50127888 -0.26253864
v -0.16078863 1.25363529 -0.70316339
v 0.00061085 1.40452862 -0.52548659
v 0.16153218 1.25354481 -0.70396280
v -0.58964652 1.24996591 -0.42642871
v -0.69535440 1.26286042 -0.16121437
v -0.26339296 1.00672626 -0.87173557
v -0.42751020 1.15390921 -0.69184476
v -0.88082016 0.84425277 -0.44373983
v -0.69590837 1.00013494 -0.59486258
v -0.72109216 0.74941748 -0.71245921
v -0.85750872 1.09579194 0.00000139
v -0.99798697 0.59648919 -0.28492051
v -0.97213459 0.84673572 -0.16697364
v -0.97011143 0.84590870 0.16494642
v -0.99682260 0.59603906 0.28198355
v 0.58971435 1.24696052 0.42679819
v 0.69509757 1.26084709 0.16107622
v 0.26245955 1.00755930 0.87394512
v 0.42726961 1.15257633 0.69222033
v 0.88015044 0.84250301 0.44279549
v 0.69712675 0.99911284 0.59504759
v 0.72113007 0.75042194 0.71143866
v -0.26908869 0.75209647 0.97695154
v -0.00090821 0.85706407 0.98273164
v -0.73587102 0.44918922 0.72910678
v -0.54300517 0.60027683 0.88224685
v 0.00162795 0.33827719 1.02069724
v -0.27426031 0.44422901 1.00045490
v -0.27917776 0.19159016 0.93144900
v -1.00613046 0.34632945 0.17207004
v -0.91361493 0.35384676 0.45888874
v -0.91267544 0.35213977 -0.46057376
v -1.00861001 0.34841067 -0.17400606
v -0.78393555 0.00000000 0.18713495
v -0.93157738 0.11215932 0.00302869
v -0.77895236 0.00004992 -0.17983498
v -0.54625803 0.59633482 -0.88213855
v -0.73506737 0.44268683 -0.72692996
v -0.00124588 0.85626853 -0.98106176
v -0.27104849 0.75123930 -0.97735220
v -0.28116316 0.19133592 -0.93355376
v -0.27657712 0.44327056 -0.99841696
v 0.00069307 0.34212229 -1.02106774
v 0.42800158 1.15130913 -0.69106919
v 0.26340520 1.00633943 -0.87226343
v 0.69516730 1.26062560 -0.16059430
v 0.58976328 1.24697804 -0.42511183
v 0.72063386 0.74906826 -0.71339214
v 0.69724888 0.99877095 -0.59494686
v 0.88210648 0.84247190 -0.44371900
v 0.77782393 0.00000000 0.18276803
v 0.65869534 0.00182498 0.47758865
v 0.49550480 0.00000000 0.29533491
v 0.73958170 0.44898391 0.73177427
v 0.74092758 0.19889948 0.63532680
v 0.91267735 0.35322911 0.46112445
v 0.18273202 0.00000000 0.78567719
v 0.46907488 0.06103383 0.76036650
v 0.28202105 0.19487418 0.93306732
v 0.17316063 0.00000000 0.29429108
v 0.30526960 0.00000000 -0.00531369
v -0.17540960 0.00000000 0.78450686
v -0.00646684 0.00000000 0.60784429
v -0.31393081 0.00000000 -0.00073419
v -0.19043227 0.00000000 0.29565260
v -0.51255864 0.00000000 0.29490227
v 0.17879570 0.00000000 -0.29838529
v 0.47649676 0.00000000 -0.28707784
v -0.48660579 0.00000000 -0.30351856
v -0.17944263 0.00000000 -0.29513410
v 0.17768921 0.00048853 -0.78980595
v -0.00344400 0.00000000 -0.60128987
v -0.17733638 0.00000000 -0.78647530
v 0.65826261 0.00024208 -0.47276896
v 0.77166063 0.00000000 -0.18157817
v 0.28262088 0.19425599 -0.93366343
v 0.46916556 0.07010581 -0.76229745
v 0.91440529 0.35051072 -0.45938748
v 0.74525440 0.19988975 -0.63655090
v 0.73873669 0.44675210 -0.73056757
v 0.93225843 0.11622032 0.00129704
v 1.00018120 0.59689200 -0.28592309
v 1.00819492 0.35063732 -0.17250904
v 1.00833511 0.35119557 0.17269562
v 0.99799192 0.59671926 0.28284654
v 0.27668667 0.44534904 0.99805087
v 0.54570150 0.60134655 0.88370341
v 0.26905733 0.75233734 0.97763532
v -0.66440725 0.00862994 0.48407367
v -0.46895084 0.05756507 0.75891161
v -0.74211735 0.20740733 0.63811260
v -0.46778876 0.05858037 -0.76322275
v -0.66636521 0.00012370 -0.47778523
v -0.73916072 0.19365779 -0.63073784
v 0.54428756 0.59712261 -0.88308662
v 0.27516720 0.44804293 -1.00105548
v 0.26894158 0.75060582 -0.97678137
v 0.97104734 0.84423220 0.16541931
v 0.97076344 0.84432316 -0.16528361
v 0.85757875 1.09346473 0.00027365
v -0.61582059 1.34124756 0.08129954
v -0.57122064 1.34959435 0.21309273
v -0.48385322 1.41883206 0.13113701
v -0.71129030 1.16720843 0.37305683
v -0.64872432 1.26349461 0.29640967
v -0.76233274 1.17185736 0.23774606
v -0.37523228 1.39828646 0.38332543
v -0.51620471 1.34038293 0.34628552
v -0.45456693 1.31605637 0.46855062
v -0.80673534 0.67624378 0.63501579
v -0.80992806 0.80061179 0.58449256
v -0.88796806 0.72336298 0.49776226
v -0.61005330 0.95012236 0.71719515
v -0.71478611 0.87868673 0.65887380
v -0.61876309 0.82288837 0.77400529
v -0.85508287 0.96010345 0.37984669
v -0.79548800 0.92565829 0.52348346
v -0.76565748 1.04083979 0.45806229
v -0.08211374 1.18112350 0.78750801
v -0.21474750 1.13856256 0.79747403
v -0.13340329 1.05699885 0.87401414
v -0.37255427 1.26749420 0.60226643
v -0.29746690 1.21128201 0.70473814
v -0.23738705 1.31623936 0.60715747
v -0.38925850 0.95407474 0.85657382
v -0.34941766 1.08716094 0.78995615
v -0.47384903 1.02821898 0.76623291
v -0.65091729 1.13205469 0.51680088
v -0.56939751 1.08391118 0.65171182
v -0.51528406 1.21015835 0.56595713
v -0.35753667 1.47560501 0.13153450
v -0.40258959 1.46693933 0.00024386
v -0.23846345 1.44355249 0.38568345
v -0.30111381 1.46753335 0.26375648
v -0.13745984 1.54005480 -0.00001216
v -0.21940887 1.51592779 0.13263009
v -0.08178706 1.53689277 0.13285489
v 0.08088692 1.18034279 0.78749716
v -0.00035528 1.26309896 0.71240896
v 0.15632711 1.39352143 0.51912969
v 0.08092044 1.33661318 0.62021768
v 0.23693337 1.31513274 0.60799247
v -0.08112376 1.33657205 0.62024951
v -0.15638010 1.39475834 0.51896077
v 0.40327913 1.46578729 0.00059264
v 0.35820350 1.47465622 0.13218379
v 0.48439020 1.41761839 0.13147469
v 0.08242974 1.53623104 0.13319057
v 0.22015020 1.51589191 0.13315997
v 0.13790688 1.53959370 0.00030188
v 0.37556699 1.39717007 0.38403380
v 0.30138734 1.46746206 0.26434278
v 0.23871504 1.44255292 0.38616565
v -0.08213323 1.46456289 0.39946604
v 0.08220093 1.46393514 0.39886451
v 0.00011063 1.51375878 0.26603240
v -0.35752332 1.47565603 -0.13137950
v -0.48408270 1.41922152 -0.13096842
v -0.08185611 1.53681374 -0.13281648
v -0.21952359 1.51665592 -0.13254823
v -0.37483627 1.39888740 -0.38344622
v -0.30072051 1.46824646 -0.26353690
v -0.23833767 1.44404781 -0.38585961
v 0.48453090 1.41820562 -0.13075069
v 0.35818541 1.47538948 -0.13116786
v 0.23874435 1.44361842 -0.38591996
v 0.30109498 1.46770930 -0.26377136
v 0.37520725 1.39809108 -0.38348991
v 0.21978706 1.51604521 -0.13243051
v 0.08214668 1.53662574 -0.13280740
v -0.08139648 1.17980528 -0.78724599
v 0.00023365 1.26250052 -0.71288258
v 0.08178940 1.17903197 -0.78726745
v -0.15607694 1.39460349 -0.51895505
v -0.08074873 1.33670008 -0.62035328
v -0.23711023 1.31618845 -0.60720456
v 0.23778751 1.31580508 -0.60776448
v 0.08161180 1.33681858 -0.62085402
v 0.15667327 1.39425564 -0.51910239
v 0.00002850 1.51357758 -0.26585314
v 0.08257287 1.46469951 -0.39885357
v -0.08190535 1.46490049 -0.39907518
v -0.57159716 1.34994924 -0.21331157
v -0.61615986 1.34152663 -0.08117184
v -0.45441684 1.31635404 -0.46888185
v -0.51662874 1.34163797 -0.34653458
v -0.76260668 1.17278707 -0.23829652
v -0.64914525 1.26362944 -0.29692489
v -0.71110964 1.16762137 -0.37364727
v -0.13268046 1.05630422 -0.87257028
v -0.21431157 1.13748372 -0.79740775
v -0.47353178 1.02664971 -0.76546687
v -0.34887597 1.08513808 -0.78929853
v -0.38984719 0.95192206 -0.85510242
v -0.29692090 1.21028733 -0.70527136
v -0.37245637 1.26773620 -0.60296708
v -0.89011961 0.72254020 -0.49953699
v -0.81165254 0.80018288 -0.58543956
v -0.80897659 0.67418915 -0.63613003
v -0.76521707 1.04105294 -0.45861745
v -0.79585361 0.92591375 -0.52453029
v -0.85613871 0.96116465 -0.38059613
v -0.62081611 0.82087898 -0.77520806
v -0.71586519 0.87790060 -0.65950978
v -0.61058223 0.94830698 -0.71773624
v -0.51540565 1.21018302 -0.56653363
v -0.56890249 1.08283556 -0.65213686
v -0.65056306 1.13171601 -0.51650417
v -0.70459336 1.27229238 0.00005675
v -0.84722185 1.08989155 -0.15819229
v -0.78391814 1.18518186 -0.08156922
v -0.78357112 1.18480051 0.08131342
v -0.84642702 1.08916271 0.15761612
v -0.94951481 0.59804857 -0.41961470
v -0.95070428 0.72213137 -0.36945727
v -1.01551616 0.72307462 -0.08568741
v -0.99317735 0.72263205 -0.22767067
v -1.02736676 0.59689057 -0.14436452
v -0.93505996 0.84767550 -0.30822873
v -0.90381896 0.96331120 -0.24239083
v -0.94973761 0.72215468 0.36738834
v -0.94904310 0.59829926 0.41842806
v -0.90309006 0.96274900 0.24150960
v -0.93419540 0.84794641 0.30671576
v -1.02777886 0.59717488 0.14171858
v -0.99330264 0.72286052 0.22542061
v -1.01604235 0.72300762 0.08321401
v -0.92610091 0.97663528 -0.08371259
v -0.98405534 0.84969169 -0.00026511
v -0.92580080 0.97617370 0.08315473
v 0.57170290 1.34823334 0.21351059
v 0.61586308 1.33909678 0.08122748
v 0.45482776 1.31403875 0.46953356
v 0.51674575 1.33916771 0.34686852
v 0.76233011 1.16980481 0.23850270
v 0.64898819 1.26146758 0.29714131
v 0.71147865 1.16531372 0.37399772
v 0.13171655 1.05668783 0.87485176
v 0.21373090 1.13706291 0.79764467
v 0.47374475 1.02789283 0.76753604
v 0.34820685 1.08493841 0.79025447
v 0.38890091 0.95219243 0.85700130
v 0.29641563 1.20834064 0.70544469
v 0.37244499 1.26557755 0.60304302
v 0.88869739 0.72055852 0.49737155
v 0.81085372 0.79813051 0.58334678
v 0.80801463 0.67426306 0.63383251
v 0.76581109 1.03944886 0.45875776
v 0.79595822 0.92404968 0.52388769
v 0.85571140 0.95870996 0.38007447
v 0.62108284 0.82319528 0.77646607
v 0.71544570 0.87696034 0.65875334
v 0.61146182 0.94959676 0.71827763
v 0.51605999 1.20729458 0.56720465
v 0.56940979 1.08295608 0.65235507
v 0.65111405 1.13003767 0.51703161
v -0.13435248 0.93743342 0.93973410
v -0.00081039 0.98020172 0.92822808
v -0.39379516 0.82451200 0.91055715
v -0.26907247 0.88376468 0.93353313
v -0.00078578 0.72807097 1.01944542
v -0.13608953 0.80597651 0.98942912
v -0.13787268 0.67454171 1.02057397
v -0.81714916 0.52346563 0.64334774
v -0.73629582 0.60072184 0.72927570
v -0.54233962 0.45209098 0.88363791
v -0.64511967 0.52430367 0.81388545
v -0.63942045 0.37782839 0.80397731
v -0.63672519 0.67582512 0.80429035
v -0.53132194 0.74728507 0.86254030
v 0.00219581 0.21679728 0.98441434
v -0.13913688 0.25801024 0.98893648
v -0.13993521 0.14265542 0.94010568
v -0.13803677 0.51958895 1.03165793
v -0.13789402 0.38799003 1.01955700
v -0.00073053 0.46641517 1.03899348
v -0.41176474 0.24661210 0.90569907
v -0.27917027 0.31300291 0.97615254
v -0.40557641 0.37239215 0.94433647
v -0.41050410 0.67580229 0.94180769
v -0.41600871 0.52019066 0.95485872
v -0.27574873 0.59750056 1.00055206
v -0.96986061 0.47490537 0.37636620
v -0.90489066 0.47500595 0.50775468
v -1.03422642 0.47045249 0.08536111
v -1.01193821 0.47094914 0.22882585
v -0.90694964 0.24079604 0.40364677
v -0.97111392 0.35063607 0.31974661
v -0.95613724 0.23549847 0.25796571
v -0.90648884 0.47322023 -0.50954026
v -0.96861285 0.47216746 -0.37777281
v -0.95662433 0.23293395 -0.25593778
v -0.96854347 0.34673592 -0.32044348
v -0.90546477 0.23536362 -0.40430886
v -1.01237571 0.46947038 -0.23321296
v -1.03703487 0.47036245 -0.08875951
v -0.70882124 0.00000000 0.08533443
v -0.79671162 0.00000000 0.00090213
v -0.70497060 0.00000000 -0.09458955
v -0.91665423 0.12239076 0.17370051
v -0.86651719 0.04260772 0.09687175
v -0.84004480 0.04811056 0.26761404
v -0.84086746 0.04770846 -0.26274961
v -0.86577851 0.04172700 -0.08731429
v -0.91787434 0.11384283 -0.17025121
v -1.02184057 0.34635448 -0.00073559
v -0.98329747 0.22290137 -0.08800318
v -0.98594087 0.22403923 0.08864208
v -0.73744756 0.59593850 -0.72896105
v -0.81697804 0.51930851 -0.64301240
v -0.53428441 0.74425280 -0.86240453
v -0.64043570 0.67221713 -0.80433661
v -0.64057040 0.37091261 -0.80058265
v -0.64725679 0.51803374 -0.81458676
v -0.54557896 0.44724369 -0.88294113
v 0.00006263 0.97921216 -0.92665297
v -0.13400246 0.93719172 -0.93829674
v -0.13896729 0.67592341 -1.02028239
v -0.13707869 0.80655777 -0.98837322
v -0.00180939 0.72940010 -1.01918471
v -0.26985914 0.88244063 -0.93294734
v -0.39506969 0.82283098 -0.90999407
v -0.14158928 0.14898057 -0.94487482
v -0.14051846 0.26267341 -0.98916632
v 0.00097527 0.22219506 -0.98594552
v -0.40696010 0.37065366 -0.94174790
v -0.28040498 0.31428140 -0.97421360
v -0.40987700 0.24427412 -0.90584934
v -0.00162842 0.46764892 -1.04016745
v -0.14042573 0.38919404 -1.01941729
v -0.14054900 0.52026707 -1.03110492
v -0.41365883 0.67505747 -0.94292957
v -0.27845585 0.59751827 -1.00077999
v -0.41802132 0.51809168 -0.95334655
v 0.21493399 1.13691056 -0.79730123
v 0.13264795 1.05501175 -0.87321794
v 0.37335551 1.26631868 -0.60270149
v 0.29781863 1.20905364 -0.70488983
v 0.38950294 0.95065027 -0.85561115
v 0.34955356 1.08360112 -0.78868288
v 0.47389948 1.02505612 -0.76463974
v 0.61618465 1.33987224 -0.08075321
v 0.57195050 1.34863734 -0.21271494
v 0.71136850 1.16537416 -0.37232277
v 0.64930612 1.26090658 -0.29599670
v 0.76256180 1.16983616 -0.23734064
v 0.51694489 1.33945048 -0.34579885
v 0.45490453 1.31519389 -0.46908173
v 0.80924183 0.67430419 -0.63694799
v 0.81272030 0.79966873 -0.58613008
v 0.89123338 0.72195780 -0.50030047
v 0.61025238 0.94772732 -0.71658367
v 0.71529073 0.87546760 -0.65957743
v 0.61989880 0.82111788 -0.77591640
v 0.85620880 0.95918232 -0.38094676
v 0.79644382 0.92438114 -0.52467674
v 0.76574695 1.04015541 -0.45807397
v 0.51587993 1.20707965 -0.56555235
v 0.65130800 1.12993896 -0.51597965
v 0.56945723 1.08131981 -0.65109837
v 0.70653874 0.00000000 0.09789050
v 0.65440059 0.00000000 0.25436181
v 0.55280298 0.00000000 0.13960099
v 0.78571093 0.06130003 0.40935934
v 0.72887349 0.00000000 0.33399931
v 0.84381807 0.05604378 0.25859395
v 0.42382467 0.00000000 0.44177654
v 0.58866286 0.00000000 0.40595853
v 0.51479805 0.00000000 0.53578180
v 0.81908929 0.52198923 0.64464581
v 0.83735937 0.39618826 0.60348690
v 0.90694773 0.47491437 0.50960082
v 0.64665467 0.24996395 0.75885361
v 0.74561864 0.32149363 0.68819803
v 0.64160353 0.37619647 0.80280823
v 0.90448993 0.24136822 0.40304103
v 0.83499187 0.27170008 0.55239844
v 0.82286823 0.16065903 0.49443513
v 0.09264753 0.03863803 0.86894554
v 0.23736973 0.07182731 0.87183934
v 0.14519228 0.14627205 0.93803066
v 0.41410422 0.00000000 0.67440993
v 0.33064896 0.01542755 0.77826512
v 0.26838312 0.00000000 0.69095182
v 0.41273150 0.24881181 0.90666485
v 0.37889656 0.12073740 0.85701394
v 0.50880939 0.17402725 0.82090491
v 0.71390551 0.08321059 0.56507462
v 0.61587459 0.12049626 0.70419592
v 0.57507598 0.01854980 0.63110989
v 0.40552378 0.00000000 0.15056975
v 0.45251399 0.00000000 -0.00411373
v 0.26432759 0.00000000 0.44292623
v 0.33592620 0.00000000 0.30259350
v 0.15034166 0.00000000 0.00656515
v 0.23840821 0.00000000 0.15127088
v 0.08235119 0.00000000 0.15227680
v -0.09084105 0.04061923 0.87190264
v 0.00425522 0.00000000 0.79731488
v -0.19023868 0.00000000 0.60199636
v -0.09456251 0.00000000 0.70692104
v -0.27624518 0.00000000 0.69385737
v 0.09051973 0.00000000 0.70317549
v 0.17468579 0.00000000 0.59922594
v -0.46514961 0.00000000 -0.00662137
v -0.41534638 0.00000000 0.14390096
v -0.56130964 0.00000000 0.14141260
v -0.10335114 0.00000000 0.15004750
v -0.25554568 0.00000000 0.14359456
v -0.16136107 0.00000000 0.00454591
v -0.44212285 0.00000000 0.44392669
v -0.36008042 0.00000000 0.29994252
v -0.28624573 0.00000000 0.44417882
v 0.08797299 0.00000000 0.45535398
v -0.10172763 0.00000000 0.45863661
v -0.01035536 0.00000000 0.30328074
v 0.39275065 0.00000000 -0.14615148
v 0.53878313 0.00000000 -0.15419336
v 0.08776124 0.00000000 -0.14337847
v 0.23933896 0.00000000 -0.14990576
v 0.42075104 0.00000000 -0.42569709
v 0.32632324 0.00000000 -0.29175380
v 0.26718214 0.00000000 -0.43200871
v -0.55285829 0.00000000 -0.15982836
v -0.40963164 0.00000000 -0.15690845
v -0.26814294 0.00000000 -0.43125921
v -0.33685595 0.00000000 -0.29585755
v -0.41887987 0.00000000 -0.43260330
v -0.25081655 0.00000000 -0.14951132
v -0.09696954 0.00000000 -0.14858165
v 0.08892061 0.04358346 -0.87474161
v -0.00067168 0.00000000 -0.79994267
v -0.09110040 0.04055548 -0.87521380
v 0.17337844 0.00000000 -0.59243631
v 0.09385197 0.00000000 -0.71179354
v 0.27719203 0.00000000 -0.68929267
v -0.27848551 0.00000000 -0.68835104
v -0.09655745 0.00000000 -0.71020216
v -0.17983088 0.00000000 -0.58833164
v 0.00062383 0.00000000 -0.29625836
v -0.09166310 0.00000000 -0.45070043
v 0.08573166 0.00000000 -0.45129976
v 0.64647126 0.00000000 -0.24169143
v 0.71247125 0.00000000 -0.09424485
v 0.51277310 0.00000000 -0.52865082
v 0.57755971 0.00000000 -0.38585684
v 0.84313434 0.05713734 -0.26241973
v 0.73012859 0.00000000 -0.33127153
v 0.78488344 0.05694095 -0.41113693
v 0.14420140 0.15171659 -0.94440174
v 0.23469278 0.07904744 -0.87559515
v 0.50930601 0.17450164 -0.82480049
v 0.37820104 0.12322538 -0.85752010
v 0.41293958 0.24626659 -0.90791589
v 0.33221623 0.02383616 -0.78657383
v 0.41794950 0.00010552 -0.67178178
v 0.90699577 0.47290772 -0.50844288
v 0.83801270 0.39508268 -0.60481310
v 0.81992775 0.52082986 -0.64423931
v 0.82549524 0.16111259 -0.49418357
v 0.83834255 0.27157018 -0.55188549
v 0.90867823 0.23703313 -0.40332267
v 0.64368725 0.37532428 -0.80456042
v 0.74780178 0.31791201 -0.68904883
v 0.64521384 0.25111249 -0.76014555
v 0.57663178 0.02819383 -0.62820238
v 0.61839956 0.12485333 -0.70738328
v 0.71233529 0.08003855 -0.56185579
v 0.79559493 0.00000000 -0.00022928
v 0.92040789 0.11726338 -0.16919330
v 0.86674088 0.03609203 -0.09134275
v 0.87002909 0.04536777 0.09136572
v 0.91913611 0.12049665 0.17341687
v 0.95068610 0.59803349 -0.42070454
v 0.96912575 0.47284675 -0.37680414
v 1.03735566 0.47143054 -0.08733004
v 1.01411200 0.47284001 -0.23210986
v 1.03041542 0.59769791 -0.14397754
v 0.97292882 0.34888053 -0.32048574
v 0.95814490 0.23529306 -0.25559363
v 0.96995723 0.47357512 0.37733600
v 0.94995773 0.59739935 0.41780216
v 0.95702839 0.24005426 0.25741285
v 0.97163194 0.35182157 0.32047758
v 1.02806509 0.59662664 0.14261897
v 1.01298833 0.47197032 0.23055182
v 1.03581214 0.47286823 0.08562503
v 0.98185098 0.22624363 -0.08778980
v 1.02375019 0.34803489 0.00048846
v 0.98156863 0.22715086 0.08983695
v 0.14182502 0.26162526 0.98970008
v 0.41067919 0.37604469 0.94222176
v 0.28301030 0.31612238 0.97615212
v 0.14101619 0.39063829 1.01924229
v 0.13826214 0.51947981 1.03063524
v 0.73709089 0.60056138 0.72895676
v 0.53449285 0.74784178 0.86578298
v 0.64034861 0.67681229 0.80554551
v 0.64739698 0.52463061 0.81482196
v 0.54594499 0.45360327 0.88215131
v 0.13287081 0.93604338 0.93965310
v 0.13697164 0.67543727 1.02161813
v 0.13497877 0.80604792 0.99008083
v 0.26839381 0.88316751 0.93510222
v 0.39415655 0.82431358 0.91167891
v 0.41726092 0.52248734 0.95309281
v 0.41213301 0.67722851 0.94461310
v 0.27571499 0.59853059 1.00150406
v -0.65838158 0.00000000 0.23822621
v -0.52084452 0.00000000 0.53756917
v -0.59670430 0.00000000 0.39496636
v -0.73276806 0.00000000 0.34067395
v -0.78343731 0.05137166 0.41532752
v -0.23577811 0.07746419 0.87598723
v -0.50726843 0.17514719 0.82121646
v -0.37913987 0.12260223 0.85534048
v -0.32815498 0.02120650 0.78376490
v -0.42151430 0.00000000 0.68099713
v -0.83513838 0.39996424 0.60328746
v -0.82251734 0.16523056 0.49515736
v -0.83563346 0.27754551 0.55205286
v -0.74606162 0.32407823 0.69122601
v -0.64439487 0.25266084 0.76224214
v -0.57552177 0.02481282 0.63302433
v -0.61656928 0.12610194 0.70884556
v -0.71193236 0.08697748 0.56993580
v -0.23197842 0.07937440 -0.87810904
v -0.42477137 0.00000000 -0.68582475
v -0.32648018 0.01942547 -0.78564113
v -0.37745425 0.11901269 -0.85543495
v -0.50474036 0.17310113 -0.81985599
v -0.64393169 0.00000000 -0.24787648
v -0.78317600 0.05368977 -0.41182718
v -0.73164189 0.00000000 -0.33348805
v -0.58167279 0.00000000 -0.40012658
v -0.51336557 0.00000000 -0.53423697
v -0.83440530 0.39475730 -0.60314655
v -0.64268172 0.24593505 -0.75595754
v -0.74505919 0.31414059 -0.68834186
v -0.83508092 0.26978037 -0.55194634
v -0.81923056 0.15967193 -0.49147132
v -0.57620054 0.01894912 -0.63161904
v -0.70764011 0.07373562 -0.56673270
v -0.61121893 0.12252910 -0.70461744
v 0.73822659 0.59745151 -0.73051488
v 0.54548502 0.45049319 -0.88361901
v 0.64665949 0.52172559 -0.81511003
v 0.63963145 0.67351568 -0.80585259
v 0.53298080 0.74446422 -0.86276209
v 0.14187542 0.26291704 -0.99119335
v 0.13669127 0.52154011 -1.03274894
v 0.13931133 0.39092451 -1.02101004
v 0.28197643 0.31758574 -0.97865343
v 0.40902036 0.37349930 -0.94422227
v 0.13369535 0.93531919 -0.93811476
v 0.39415574 0.82177299 -0.91013688
v 0.26880890 0.88068789 -0.93172729
v 0.13495299 0.80579489 -0.98846388
v 0.13515803 0.67584252 -1.01985073
v 0.41659006 0.52009016 -0.95352715
v 0.27496436 0.59897077 -1.00085866
v 0.41168058 0.67430830 -0.94177920
v 0.95113611 0.72133195 0.36873370
v 1.01716423 0.72089261 0.08517737
v 0.99617702 0.72262460 0.22678211
v 0.93557471 0.84673905 0.30743244
v 0.90458483 0.96145499 0.24143350
v 0.95223778 0.72219223 -0.36924687
v 0.90362090 0.96100587 -0.24237549
v 0.93670553 0.84645373 -0.30755445
v 0.99528223 0.72209668 -0.22702473
v 1.01786578 0.72385865 -0.08398117
v 0.70464933 1.27031922 -0.00005089
v 0.84731698 1.08745182 0.15770383
v 0.78400832 1.18326068 0.08182716
v 0.78347820 1.18250012 -0.08076630
v 0.84691298 1.08663011 -0.15694743
v 0.98337913 0.84765941 0.00073613
v 0.92432249 0.97286701 -0.08347036
v 0.92572236 0.97360098 0.08319573
f 330 87 329
f 336 325 26
f 207 208 56
f 464 36 580
f 502 129 504
f 157 624 622
f 308 311 82
f 247 223 248
f 507 483 508
f 331 88 329
f 494 500 497
f 156 601 602
f 591 589 592
f 365 98 596
f 75 281 282
f 152 587 577
f 149 559 560
f 555 121 553
f 530 141 529
f 515 517 139
f 361 594 98
f 250 67 249
f 157 608 609
f 294 293 209
f 317 81 316
f 557 338 26
f 303 305 81
f 530 529 528
f 101 381 382
f 415 418 111
f 192 184 50
f 412 110 411
f 20 384 256
f 131 594 486
f 281 264 282
f 347 287 348
f 28 349 582
f 165 163 1
f 248 250 66
f 617 107 398
f 273 271 274
f 456 115 453
f 558 561 560
f 335 576 91
f 331 177 332
f 116 433 436
f 351 370 92
f 136 511 530
f 239 240 65
f 247 258 19
f 304 23 567
f 148 557 570
f 214 208 58
f 440 426 450
f 268 270 269
f 258 247 268
f 204 202 16
f 466 125 465
f 517 513 133
f 168 275 274
f 275 73 274
f 198 193 53
f 309 308 307
f 510 511 136
f 415 416 110
f 131 490 597
f 473 475 474
f 414 415 111
f 493 495 494
f 496 504 485
f 433 116 432
f 600 375 601
f 240 234 65
f 418 415 412
f 486 361 3
f 567 566 304
f 380 393 29
f 17 199 197
f 491 492 132
f 451 449 435
f 218 217 216
f 623 621 613
f 396 104 395
f 433 439 436
f 628 160 627
f 215 202 217
f 209 207 2
f 427 113 424
f 434 10 544
f 434 433 432
f 199 17 210
f 150 564 565
f 489 491 132
f 275 13 285
f 497 500 134
f 125 466 476
f 578 152 577
f 208 214 211
f 328 88 343
f 356 27 603
f 150 566 567
f 372 100 371
f 190 191 47
f 235 8 398
f 260 261 72
f 422 403 414
f 422 414 111
f 453 454 123
f 349 583 582
f 521 520 519
f 425 453 115
f 616 622 158
f 483 130 508
f 151 586 572
f 212 17 232
f 400 397 402
f 377 396 99
f 41 522 511
f 510 508 505
f 549 547 42
f 475 473 36
f 510 137 509
f 222 221 197
f 430 115 429
f 220 194 1
f 305 54 204
f 621 29 613
f 192 171 184
f 460 335 5
f 88 331 332
f 74 277 279
f 300 301 80
f 390 389 388
f 165 45 164
f 146 549 551
f 291 278 75
f 448 120 445
f 147 543 544
f 607 610 609
f 603 602 356
f 139 529 514
f 333 553 443
f 92 368 347
f 261 260 259
f 300 6 200
f 46 177 331
f 284 283 174
f 301 300 200
f 471 468 474
f 54 305 301
f 302 304 303
f 569 150 567
f 150 569 570
f 294 209 2
f 628 629 160
f 548 543 147
f 147 625 627
f 63 233 234
f 426 427 114
f 41 509 532
f 198 52 196
f 614 105 612
f 147 627 547
f 81 305 306
f 549 548 547
f 54 301 200
f 342 88 332
f 264 281 70
f 193 194 53
f 455 429 456
f 187 321 14
f 479 130 484
f 147 544 625
f 458 456 453
f 304 80 303
f 314 84 313
f 488 503 501
f 321 332 14
f 423 425 424
f 305 204 306
f 341 339 25
f 514 40 516
f 625 628 627
f 340 339 341
f 105 614 391
f 243 228 62
f 318 316 78
f 75 278 279
f 357 355 353
f 238 257 63
f 466 455 476
f 425 423 4
f 448 449 120
f 408 638 108
f 292 275 285
f 22 278 289
f 515 513 517
f 501 503 134
f 622 623 158
f 134 503 504
f 195 216 206
f 163 271 246
f 619 617 620
f 62 228 229
f 163 165 164
f 453 425 454
f 489 132 488
f 82 628 625
f 58 208 209
f 525 608 40
f 626 547 627
f 518 517 498
f 489 487 491
f 557 26 564
f 325 336 344
f 541 145 539
f 40 616 516
f 338 556 89
f 250 248 245
f 139 514 515
f 98 594 596
f 246 220 1
f 112 413 630
f 9 536 413
f 156 600 601
f 332 177 14
f 321 342 332
f 156 606 600
f 584 330 585
f 302 303 81
f 584 87 330
f 330 25 585
f 400 239 65
f 439 440 117
f 95 358 368
f 597 594 131
f 594 361 486
f 246 67 245
f 561 562 149
f 28 364 362
f 55 216 217
f 427 430 114
f 267 20 254
f 556 555 553
f 84 309 558
f 311 310 312
f 609 525 142
f 256 68 255
f 124 460 461
f 82 311 312
f 307 308 82
f 589 135 495
f 527 40 514
f 112 418 412
f 20 256 254
f 258 238 19
f 267 254 269
f 273 272 249
f 392 391 393
f 137 533 509
f 122 455 456
f 9 413 411
f 130 480 505
f 333 443 5
f 527 525 40
f 589 495 385
f 39 496 485
f 223 225 224
f 414 416 415
f 219 222 53
f 145 538 539
f 413 412 411
f 469 468 467
f 183 181 6
f 191 192 50
f 429 35 431
f 292 285 76
f 413 112 412
f 415 110 412
f 43 164 167
f 467 468 126
f 617 101 620
f 450 451 117
f 438 546 545
f 619 620 159
f 17 212 210
f 124 579 576
f 584 153 583
f 460 124 576
f 3 469 467
f 311 308 314
f 6 320 183
f 389 104 388
f 251 250 249
f 194 165 1
f 291 289 278
f 287 77 348
f 238 258 257
f 139 517 518
f 238 236 19
f 223 247 19
f 382 380 29
f 39 518 498
f 361 359 3
f 69 255 257
f 139 518 528
f 33 545 535
f 387 385 7
f 69 268 269
f 477 462 125
f 454 479 123
f 121 555 447
f 451 435 117
f 454 425 4
f 233 252 8
f 124 463 464
f 69 258 268
f 168 167 166
f 583 153 582
f 384 394 102
f 138 512 513
f 57 210 211
f 254 256 255
f 607 609 142
f 324 319 86
f 289 291 76
f 291 292 76
f 384 102 383
f 422 421 420
f 221 17 197
f 383 102 381
f 376 377 99
f 99 373 374
f 386 105 392
f 438 33 440
f 90 341 343
f 281 75 279
f 574 571 96
f 628 82 312
f 221 222 59
f 127 471 474
f 595 605 603
f 551 538 145
f 334 91 340
f 322 324 85
f 305 303 301
f 18 239 399
f 306 204 16
f 199 198 197
f 166 190 180
f 303 80 301
f 267 266 265
f 626 42 547
f 16 215 213
f 349 351 350
f 295 16 213
f 68 379 252
f 250 251 66
f 627 160 626
f 383 68 256
f 343 88 342
f 507 508 136
f 202 215 16
f 197 198 53
f 254 69 269
f 603 605 156
f 418 419 111
f 384 383 256
f 455 122 476
f 203 204 54
f 556 557 148
f 255 68 253
f 313 84 560
f 25 328 341
f 254 255 69
f 603 156 602
f 581 584 583
f 630 632 112
f 163 246 1
f 246 245 220
f 432 116 558
f 499 591 590
f 320 563 86
f 345 93 350
f 306 16 295
f 346 93 345
f 562 568 149
f 604 605 155
f 154 592 593
f 545 552 535
f 511 522 530
f 574 573 571
f 566 150 565
f 361 98 360
f 67 271 273
f 234 235 65
f 208 211 56
f 574 151 573
f 251 270 66
f 398 8 378
f 213 215 214
f 438 440 439
f 315 314 313
f 263 71 262
f 20 373 384
f 496 134 504
f 329 88 328
f 81 306 316
f 555 556 148
f 592 589 103
f 617 619 107
f 227 207 56
f 571 359 96
f 446 466 465
f 206 216 55
f 359 571 469
f 568 148 570
f 34 437 435
f 28 351 349
f 21 272 282
f 113 423 424
f 490 489 488
f 379 68 383
f 210 212 211
f 80 563 300
f 351 92 350
f 326 346 12
f 83 317 318
f 555 148 554
f 212 231 56
f 218 57 217
f 271 67 246
f 195 196 52
f 270 268 66
f 390 592 103
f 148 568 554
f 495 493 7
f 592 390 593
f 357 95 355
f 574 575 151
f 452 120 451
f 154 591 592
f 587 585 577
f 395 394 396
f 93 349 350
f 610 416 611
f 166 44 190
f 315 23 302
f 315 302 317
f 268 247 66
f 606 154 593
f 396 394 99
f 211 212 56
f 370 369 368
f 235 397 65
f 280 278 22
f 83 315 317
f 575 588 151
f 74 279 280
f 385 495 7
f 63 257 253
f 397 235 398
f 214 58 213
f 220 219 194
f 546 146 545
f 236 225 19
f 599 94 602
f 235 233 8
f 102 394 395
f 611 416 32
f 225 223 19
f 139 528 529
f 231 62 229
f 419 406 421
f 451 450 452
f 49 182 185
f 402 397 107
f 52 199 218
f 416 610 110
f 225 236 244
f 107 397 398
f 68 252 253
f 322 85 321
f 182 181 183
f 118 438 439
f 546 438 118
f 348 77 345
f 543 546 118
f 231 212 232
f 610 611 157
f 33 438 545
f 385 386 103
f 479 480 130
f 169 195 15
f 93 583 349
f 15 195 206
f 190 44 192
f 247 248 66
f 146 552 545
f 248 60 245
f 570 557 564
f 274 271 43
f 63 253 233
f 272 21 249
f 507 528 518
f 67 273 249
f 487 467 126
f 196 195 169
f 624 159 623
f 134 496 497
f 132 503 488
f 104 393 395
f 556 553 89
f 355 356 94
f 258 69 257
f 229 61 227
f 56 231 227
f 460 576 335
f 463 124 461
f 394 373 99
f 29 393 391
f 67 250 245
f 193 198 196
f 462 36 464
f 144 633 630
f 141 526 527
f 517 133 498
f 536 144 630
f 100 372 599
f 144 536 537
f 22 289 287
f 578 579 152
f 579 578 576
f 189 188 187
f 60 223 224
f 92 348 350
f 555 554 447
f 396 377 388
f 194 193 165
f 413 536 630
f 372 352 599
f 377 376 375
f 348 345 350
f 105 386 387
f 240 237 234
f 463 462 464
f 135 500 494
f 45 196 169
f 512 612 387
f 245 60 220
f 429 115 456
f 223 60 248
f 288 289 76
f 525 526 142
f 100 599 601
f 613 29 391
f 526 523 520
f 341 328 343
f 631 641 639
f 264 21 282
f 266 72 265
f 106 402 403
f 73 273 274
f 186 206 205
f 381 379 383
f 52 216 195
f 410 18 399
f 290 272 73
f 72 371 374
f 526 525 527
f 115 430 424
f 498 497 496
f 621 382 29
f 543 118 434
f 214 215 57
f 522 141 530
f 511 510 509
f 352 94 599
f 493 512 7
f 90 340 341
f 169 171 170
f 605 604 606
f 219 60 224
f 104 389 392
f 359 469 3
f 186 49 185
f 222 219 224
f 166 167 44
f 428 427 426
f 523 522 524
f 129 502 481
f 50 185 188
f 164 45 170
f 425 115 424
f 33 428 426
f 427 428 113
f 94 356 602
f 515 138 513
f 114 431 452
f 237 236 238
f 215 217 57
f 95 354 355
f 220 60 219
f 515 514 516
f 183 320 319
f 222 197 53
f 559 569 567
f 300 320 6
f 435 436 117
f 96 360 363
f 640 642 641
f 242 243 62
f 140 537 519
f 508 130 505
f 420 410 399
f 537 539 144
f 317 316 318
f 426 114 450
f 186 15 206
f 311 83 310
f 625 544 307
f 544 10 307
f 168 43 167
f 185 182 188
f 369 354 95
f 44 171 192
f 605 606 156
f 548 549 146
f 100 601 375
f 149 568 569
f 381 380 382
f 455 466 35
f 480 479 454
f 543 548 546
f 493 133 513
f 492 472 37
f 477 125 476
f 491 487 126
f 337 336 338
f 588 153 587
f 576 578 91
f 633 161 632
f 96 359 360
f 39 485 483
f 101 617 378
f 193 45 165
f 163 164 43
f 618 624 611
f 507 136 528
f 561 149 560
f 641 162 639
f 116 561 558
f 494 133 493
f 253 252 233
f 63 237 238
f 392 393 104
f 440 450 117
f 93 581 583
f 386 385 387
f 120 449 451
f 421 422 111
f 486 3 467
f 302 81 317
f 633 632 630
f 462 475 36
f 376 99 374
f 489 490 131
f 447 449 448
f 387 612 105
f 106 420 399
f 173 46 172
f 492 491 472
f 316 306 295
f 22 287 347
f 109 410 420
f 507 39 483
f 559 23 313
f 214 57 211
f 196 45 193
f 10 434 432
f 422 106 403
f 626 160 640
f 487 486 467
f 542 41 532
f 400 106 399
f 444 120 452
f 198 199 52
f 475 127 474
f 621 620 382
f 621 623 159
f 450 114 452
f 92 347 348
f 376 100 375
f 434 118 433
f 503 132 502
f 337 90 336
f 537 536 519
f 395 393 380
f 201 54 200
f 171 44 170
f 355 94 353
f 58 296 213
f 422 420 106
f 595 365 596
f 569 568 570
f 523 140 520
f 114 430 431
f 218 210 57
f 304 566 80
f 639 162 638
f 261 371 72
f 548 147 547
f 498 133 497
f 150 570 564
f 222 224 59
f 142 526 520
f 437 436 435
f 141 522 523
f 137 510 505
f 173 179 176
f 559 149 569
f 121 447 448
f 563 320 300
f 102 395 380
f 257 255 253
f 642 162 641
f 83 311 314
f 216 52 218
f 512 493 513
f 23 304 302
f 91 339 340
f 512 138 612
f 159 620 621
f 218 199 210
f 364 28 575
f 83 318 310
f 168 274 43
f 136 530 528
f 140 523 524
f 495 135 494
f 233 235 234
f 566 563 80
f 25 339 577
f 277 74 276
f 475 462 477
f 133 494 497
f 436 437 116
f 389 386 392
f 548 146 546
f 441 460 5
f 10 309 307
f 65 397 400
f 543 434 544
f 640 641 161
f 272 273 73
f 581 93 346
f 419 421 111
f 319 320 86
f 180 179 178
f 127 475 477
f 231 229 227
f 337 334 340
f 136 508 510
f 308 309 84
f 237 63 234
f 447 554 34
f 252 379 378
f 315 83 314
f 608 622 616
f 338 336 26
f 337 338 89
f 13 275 168
f 209 208 207
f 436 439 117
f 628 312 629
f 360 366 363
f 364 574 96
f 359 361 360
f 466 446 35
f 500 501 134
f 406 109 421
f 135 589 591
f 601 599 602
f 340 90 337
f 481 492 37
f 522 41 524
f 78 316 295
f 131 486 487
f 403 32 414
f 634 626 640
f 151 572 573
f 515 516 138
f 8 252 378
f 265 72 374
f 9 521 519
f 538 549 42
f 368 358 347
f 588 587 586
f 458 453 123
f 589 385 103
f 502 492 481
f 32 416 414
f 430 427 424
f 153 585 587
f 540 144 539
f 370 368 92
f 209 293 58
f 428 33 535
f 326 581 346
f 625 307 82
f 575 28 582
f 6 181 200
f 421 109 420
f 553 121 443
f 160 642 640
f 153 584 585
f 309 432 558
f 334 337 89
f 23 315 313
f 271 163 43
f 296 295 213
f 39 498 496
f 118 439 433
f 531 113 534
f 293 296 58
f 28 362 351
f 489 131 487
f 431 444 452
f 84 558 560
f 98 366 360
f 45 169 170
f 379 101 378
f 462 463 125
f 308 84 314
f 10 432 309
f 299 24 310
f 132 492 502
f 512 387 7
f 639 638 408
f 565 323 86
f 59 244 242
f 106 400 402
f 440 33 426
f 566 565 563
f 617 398 378
f 224 225 59
f 410 109 409
f 239 400 399
f 194 219 53
f 358 22 347
f 610 157 609
f 27 595 603
f 479 484 482
f 142 520 521
f 585 25 577
f 339 578 577
f 408 407 406
f 407 109 406
f 31 408 406
f 407 408 108
f 31 639 408
f 419 31 406
f 608 616 40
f 430 429 431
f 455 35 429
f 35 444 431
f 188 51 187
f 188 182 51
f 51 322 187
f 322 51 319
f 51 182 183
f 319 51 183
f 187 322 321
f 322 319 324
f 381 101 379
f 405 407 108
f 404 405 108
f 286 285 178
f 407 405 409
f 109 407 409
f 191 175 47
f 167 164 170
f 50 184 185
f 44 167 170
f 64 244 236
f 243 244 64
f 50 188 189
f 541 542 145
f 442 445 119
f 339 91 578
f 445 446 119
f 624 623 622
f 611 624 157
f 523 526 141
f 141 527 529
f 527 514 529
f 445 120 444
f 446 445 444
f 35 446 444
f 613 614 158
f 158 614 615
f 623 613 158
f 614 613 391
f 614 612 615
f 371 376 374
f 100 376 371
f 479 482 123
f 373 394 384
f 540 42 634
f 633 540 634
f 538 42 540
f 633 634 161
f 161 634 640
f 42 626 634
f 540 633 144
f 557 556 338
f 553 333 89
f 262 21 264
f 251 21 262
f 5 335 333
f 270 251 262
f 21 251 249
f 600 593 30
f 606 593 600
f 600 30 375
f 593 390 30
f 30 377 375
f 390 388 30
f 30 388 377
f 228 243 241
f 470 478 459
f 470 127 478
f 127 477 478
f 184 186 185
f 478 477 476
f 122 478 476
f 357 74 280
f 518 39 507
f 344 342 85
f 325 344 85
f 342 344 343
f 85 342 321
f 344 90 343
f 90 344 336
f 482 129 481
f 482 481 457
f 482 457 123
f 481 37 457
f 449 447 34
f 435 449 34
f 470 472 471
f 472 470 37
f 470 471 127
f 472 126 471
f 126 468 471
f 470 459 37
f 491 126 472
f 504 129 485
f 221 59 242
f 125 463 465
f 437 34 562
f 561 437 562
f 554 568 562
f 34 554 562
f 437 561 116
f 390 103 389
f 103 386 389
f 392 105 391
f 572 586 580
f 572 580 36
f 586 152 580
f 473 572 36
f 244 243 242
f 225 244 59
f 64 240 241
f 240 239 241
f 237 240 64
f 243 64 241
f 236 237 64
f 411 607 521
f 9 411 521
f 110 607 411
f 607 142 521
f 610 607 110
f 171 15 184
f 171 169 15
f 15 186 184
f 87 584 581
f 153 588 582
f 588 575 582
f 381 102 380
f 573 572 473
f 468 469 128
f 474 468 128
f 469 571 128
f 571 573 128
f 573 473 128
f 473 474 128
f 564 323 565
f 26 323 564
f 323 324 86
f 325 323 26
f 325 324 323
f 563 565 86
f 324 325 85
f 410 230 18
f 230 228 18
f 18 228 241
f 18 241 239
f 401 619 618
f 401 402 107
f 403 402 401
f 619 159 618
f 401 618 32
f 619 401 107
f 403 401 32
f 618 611 32
f 159 624 618
f 478 122 459
f 122 458 459
f 37 459 457
f 459 458 457
f 122 456 458
f 457 458 123
f 191 190 192
f 485 129 484
f 129 482 484
f 483 485 484
f 130 483 484
f 189 187 14
f 191 50 189
f 191 189 175
f 189 14 175
f 14 177 175
f 499 501 500
f 501 499 38
f 38 499 590
f 135 499 500
f 488 501 38
f 499 135 591
f 480 454 4
f 284 12 346
f 4 423 506
f 480 4 506
f 423 531 506
f 480 506 505
f 531 137 506
f 506 137 505
f 365 366 98
f 71 270 262
f 270 71 269
f 71 267 269
f 335 334 333
f 333 334 89
f 334 335 91
f 536 9 519
f 465 463 461
f 537 140 541
f 520 140 519
f 119 446 465
f 465 461 119
f 461 441 119
f 460 441 461
f 176 46 173
f 299 297 24
f 71 263 266
f 263 260 266
f 260 72 266
f 263 70 260
f 205 201 49
f 201 181 49
f 186 205 49
f 181 201 200
f 181 182 49
f 284 77 283
f 586 587 152
f 588 586 151
f 20 267 265
f 266 267 71
f 31 417 631
f 631 417 632
f 31 631 639
f 417 31 419
f 641 631 161
f 417 112 632
f 161 631 632
f 418 417 419
f 417 418 112
f 284 345 77
f 542 550 145
f 542 541 524
f 284 174 12
f 48 174 283
f 373 20 265
f 373 265 374
f 609 608 525
f 608 157 622
f 560 559 313
f 636 637 162
f 541 140 524
f 41 542 524
f 358 357 280
f 70 263 264
f 263 262 264
f 176 177 46
f 174 48 173
f 174 173 172
f 538 551 549
f 538 540 539
f 537 541 539
f 232 221 242
f 17 221 232
f 232 242 62
f 231 232 62
f 203 205 55
f 203 55 202
f 201 205 203
f 202 55 217
f 205 206 55
f 204 203 202
f 73 275 292
f 292 290 73
f 272 290 282
f 290 292 291
f 75 290 291
f 290 75 282
f 70 277 259
f 277 70 281
f 277 281 279
f 260 70 259
f 12 174 172
f 104 396 388
f 367 27 354
f 365 27 367
f 354 27 356
f 365 367 366
f 595 27 365
f 318 299 310
f 155 596 597
f 155 597 598
f 596 594 597
f 595 596 155
f 605 595 155
f 180 47 179
f 180 190 47
f 352 372 11
f 11 372 261
f 312 310 24
f 642 636 162
f 636 297 637
f 367 369 97
f 366 367 97
f 369 367 354
f 369 370 97
f 580 579 464
f 580 152 579
f 579 124 464
f 61 230 409
f 230 410 409
f 230 61 229
f 230 229 228
f 76 285 286
f 353 352 276
f 74 353 276
f 288 76 286
f 288 286 283
f 289 288 287
f 203 54 201
f 287 288 77
f 77 288 283
f 286 48 283
f 531 423 113
f 276 11 259
f 11 261 259
f 277 276 259
f 616 158 615
f 516 616 615
f 138 516 615
f 138 615 612
f 509 533 532
f 503 502 504
f 635 79 294
f 635 294 404
f 635 637 79
f 637 635 638
f 638 635 108
f 635 404 108
f 226 61 405
f 61 226 227
f 405 61 409
f 227 226 207
f 48 178 179
f 48 286 178
f 173 48 179
f 534 143 533
f 534 535 143
f 531 534 533
f 533 143 532
f 137 531 533
f 261 372 371
f 13 180 178
f 285 13 178
f 180 13 166
f 13 168 166
f 346 345 284
f 331 327 46
f 46 327 172
f 172 327 326
f 382 620 101
f 442 121 448
f 443 121 442
f 2 226 404
f 294 2 404
f 404 226 405
f 207 226 2
f 550 551 145
f 552 146 551
f 143 550 532
f 552 550 143
f 330 329 328
f 24 636 629
f 94 352 353
f 352 11 276
f 113 428 534
f 428 535 534
f 509 41 511
f 535 552 143
f 550 552 551
f 550 542 532
f 369 95 368
f 326 327 87
f 87 327 329
f 327 331 329
f 581 326 87
f 293 79 298
f 79 297 298
f 296 298 78
f 79 293 294
f 296 293 298
f 598 490 38
f 358 280 22
f 280 279 278
f 357 358 95
f 74 357 353
f 330 328 25
f 567 23 559
f 590 598 38
f 590 604 598
f 598 604 155
f 604 590 154
f 590 591 154
f 604 154 606
f 297 299 298
f 299 318 78
f 298 299 78
f 355 354 356
f 629 636 642
f 312 24 629
f 629 642 160
f 370 362 97
f 362 363 97
f 363 366 97
f 364 363 362
f 362 370 351
f 96 363 364
f 297 636 24
f 162 637 638
f 637 297 79
f 490 488 38
f 598 597 490
f 441 442 119
f 443 442 441
f 443 441 5
f 442 448 445
f 296 78 295
f 326 12 172
f 575 574 364
f 47 175 176
f 175 177 176
f 47 176 179
