# FEM surface export ¡ª frame 855
# Vertices: 642  Faces: 1280
v -0.56175089 0.84550303 -0.02152938
v 0.50061923 0.91580594 -0.01566624
v -0.51725334 0.73166388 0.00794314
v 0.56275249 0.57442772 0.03069361
v 0.00845248 0.32793400 0.89130932
v -0.05454576 0.56714499 0.83307791
v -0.03237093 0.43770054 -0.85043871
v -0.00123979 0.52360696 -0.85489893
v 0.89502943 0.11737383 -0.53562230
v 0.88003427 0.16004860 0.54748684
v -0.91278356 0.07961977 -0.55809218
v -0.88256949 0.10165367 0.52004039
v -0.79456198 0.49581611 0.31428790
v -0.51726824 0.32185841 0.77798373
v -0.37657681 0.83362955 0.47836855
v 0.24914436 0.88184071 0.48680934
v -0.04604253 1.06418192 -0.05201942
v 0.31021336 0.83692116 -0.52314514
v -0.31650692 0.78696448 -0.52931488
v -0.49424759 0.34152964 -0.82561016
v -0.78761697 0.51584023 -0.32057256
v -1.04622829 0.12314649 -0.01112780
v 0.45460901 0.44369721 0.83408433
v 0.79061985 0.61854273 0.30432987
v -0.51627409 0.16607557 0.78375286
v 0.00134931 0.11548912 1.07406485
v -0.79062724 0.37662783 -0.29907343
v -0.74206519 0.43198228 0.32775983
v -0.01185584 0.12747508 -1.04715466
v -0.52735680 0.17590632 -0.80029660
v 0.79783022 0.55373579 -0.31877559
v 0.51268160 0.35415956 -0.81552172
v 0.84112257 0.18766561 0.26314354
v 0.56882644 0.11579587 0.79510587
v 0.36308697 0.57893723 0.47373232
v -0.23830625 0.67822057 0.50119466
v 0.05046247 0.55006695 0.02803894
v -0.31459385 0.54682553 -0.48733833
v 0.31731701 0.68560445 -0.46451479
v 0.45090526 0.20681581 -0.84606594
v 0.85808575 0.34560430 -0.33180413
v 1.04643488 0.13663301 -0.00091987
v -0.69735616 0.68950611 0.15402639
v -0.61986887 0.67180628 0.42155838
v -0.50196528 0.87954378 0.24372450
v -0.70328790 0.17251985 0.69814581
v -0.69674927 0.40841410 0.58477670
v -0.83791161 0.28207031 0.43257728
v -0.20879801 0.73169476 0.68369567
v -0.44856331 0.58330804 0.67482865
v -0.29776084 0.46712422 0.83295172
v -0.24641559 1.00646114 0.22274569
v -0.33241647 0.98721528 -0.04082343
v 0.09226694 0.75709158 0.67448801
v -0.07752691 0.93400019 0.49674806
v 0.23401433 1.02033854 -0.04135832
v 0.10822041 1.02959669 0.23173815
v 0.38538152 0.94556642 0.25115636
v -0.18262838 0.96300405 -0.30947638
v -0.44286358 0.85420120 -0.28897765
v 0.42959031 0.90582585 -0.28166682
v 0.15282927 0.98987210 -0.30697820
v -0.15324262 0.67359209 -0.72808814
v -0.00385531 0.85404599 -0.56938672
v 0.16212988 0.70305526 -0.71697015
v -0.57841873 0.68104601 -0.44294176
v -0.68789381 0.69329119 -0.17407385
v -0.24682103 0.43842664 -0.87745959
v -0.40312964 0.59078687 -0.70529282
v -0.88210559 0.33012357 -0.45271289
v -0.67764908 0.44626090 -0.59289408
v -0.73138589 0.22640656 -0.70923871
v -0.83001310 0.54358500 -0.00077443
v -1.00687850 0.09099866 -0.27962342
v -0.97127002 0.32188615 -0.18235949
v -0.95736897 0.32458240 0.16055360
v -1.01004159 0.14615782 0.25633791
v 0.54755527 0.77653265 0.41688776
v 0.65663391 0.78955466 0.15251137
v 0.19554481 0.51484388 0.86521357
v 0.37226835 0.67529708 0.68945014
v 0.85497856 0.40144023 0.45914364
v 0.66565770 0.54923081 0.58141851
v 0.69642478 0.32347122 0.72957540
v -0.28145471 0.26438361 0.97939080
v -0.03290398 0.34337321 0.98171377
v -0.75794977 0.07924067 0.68923140
v -0.54330760 0.05265469 0.89405113
v 0.02713063 0.08166282 0.98070443
v -0.26779300 0.00000000 0.96764439
v -0.25653103 0.23090731 0.84322035
v -0.97478837 0.18241324 0.17326134
v -0.89822787 0.18370931 0.42692724
v -0.83527672 0.16699393 -0.42925286
v -0.95015568 0.15321651 -0.14146268
v -0.69154173 0.64637792 0.18699200
v -0.83795774 0.43484318 0.02253361
v -0.68535143 0.58253688 -0.14973830
v -0.55221927 0.12287493 -0.88366950
v -0.71160775 0.04543030 -0.69446397
v 0.01626365 0.32040906 -0.98314685
v -0.25915763 0.21436776 -0.97210383
v -0.28854966 0.32172135 -0.87904644
v -0.29491276 0.05850031 -0.95722771
v -0.04296922 0.18554308 -1.00158656
v 0.42206118 0.59722370 -0.69512928
v 0.25414318 0.45305049 -0.86700284
v 0.66715199 0.75410074 -0.17444076
v 0.57983249 0.72161824 -0.44509178
v 0.70730019 0.19682072 -0.68848634
v 0.68277001 0.47738028 -0.57657444
v 0.86385107 0.34570560 -0.44157246
v 0.72775519 0.43815041 0.15300642
v 0.63780355 0.38590619 0.41511166
v 0.49348974 0.59474021 0.27724171
v 0.74630332 0.00512361 0.69567782
v 0.69914317 0.15064067 0.54807931
v 0.88767022 0.10973447 0.38264051
v 0.21162221 0.47079787 0.72790051
v 0.47919592 0.34536067 0.65545452
v 0.29944962 0.24617647 0.86071593
v 0.22026439 0.72830975 0.30653512
v 0.28955001 0.52496803 0.05544409
v -0.13467471 0.52293175 0.73170036
v 0.08484622 0.64945406 0.57554781
v -0.22657065 0.62481529 0.05665630
v -0.05621444 0.75466859 0.27136829
v -0.38818541 0.73279279 0.27377141
v 0.20297226 0.63254964 -0.23214878
v 0.46051112 0.67760915 -0.21810558
v -0.42395204 0.72400463 -0.26583406
v -0.12761970 0.57153207 -0.20739923
v 0.17437260 0.61122805 -0.70521539
v 0.00350891 0.72881442 -0.49354860
v -0.17553002 0.59253269 -0.70298386
v 0.59927410 0.50456202 -0.44157982
v 0.73390651 0.53748572 -0.17436409
v 0.22468694 0.31680065 -0.87059319
v 0.43135852 0.47264004 -0.71886599
v 0.89654028 0.14153659 -0.46461135
v 0.73107278 0.30332923 -0.60695839
v 0.69154608 0.16562924 -0.75958693
v 0.87806696 0.31163388 -0.01892643
v 0.99359387 0.14464886 -0.28129753
v 0.98438179 0.15600938 -0.17928766
v 0.98213279 0.00055275 0.11169714
v 1.00018287 0.20934960 0.28550720
v 0.27867830 0.02801626 0.99865007
v 0.54169083 0.15045713 0.89108431
v 0.24637422 0.26779526 0.97651881
v -0.55554086 0.58982605 0.45988646
v -0.37916210 0.47307903 0.69355935
v -0.69294947 0.33179110 0.59966183
v -0.45852071 0.44410944 -0.63411200
v -0.58952051 0.55836076 -0.41487786
v -0.68754858 0.26282227 -0.56945050
v 0.55498105 0.06542539 -0.88633931
v 0.19593808 0.01564482 -0.97225821
v 0.28536880 0.21708046 -0.97924167
v 0.95801890 0.40467465 0.16978727
v 0.96691465 0.36093053 -0.16002552
v 0.82945448 0.61077261 -0.01527825
v -0.63745898 0.76555282 0.06872248
v -0.60327572 0.78897059 0.20050070
v -0.53654444 0.87696815 0.11126120
v -0.71225464 0.59559995 0.35956302
v -0.66585892 0.69746685 0.28158718
v -0.75593019 0.60381740 0.23513208
v -0.44467995 0.86645496 0.36587551
v -0.56220138 0.77986145 0.34037665
v -0.50555414 0.75782770 0.46290109
v -0.80783111 0.11332156 0.63315630
v -0.76598328 0.24414128 0.57639080
v -0.86364615 0.19369434 0.48604006
v -0.60788530 0.37337443 0.69242346
v -0.70158839 0.30208167 0.63765109
v -0.60621464 0.25304648 0.75091428
v -0.83201408 0.38502356 0.36894852
v -0.78997135 0.35615370 0.50332338
v -0.76500565 0.47756547 0.44433802
v -0.12924616 0.64806646 0.76944315
v -0.24429323 0.59846544 0.76648229
v -0.17654432 0.51676768 0.84703487
v -0.42329255 0.72057331 0.59186858
v -0.33068499 0.68260926 0.68069702
v -0.29695013 0.79132318 0.58692300
v -0.40379867 0.40275744 0.80828702
v -0.36079681 0.53333092 0.75021869
v -0.49458992 0.45077339 0.72093511
v -0.67547852 0.55018270 0.50832915
v -0.58505821 0.50165188 0.63638914
v -0.56283665 0.63575441 0.56386530
v -0.41902661 0.95314461 0.10360618
v -0.45261747 0.92619818 -0.02383184
v -0.32818830 0.93501991 0.35427666
v -0.37936717 0.94411469 0.22679755
v -0.19141652 1.03178048 -0.05142144
v -0.28733373 1.01955044 0.09011706
v -0.14343832 1.05539405 0.08385172
v 0.00878504 0.67108589 0.76562858
v -0.06003382 0.76015306 0.68316370
v 0.08637918 0.91881645 0.49417260
v 0.01678728 0.86261141 0.59415126
v 0.17233171 0.82840312 0.58769113
v -0.15329005 0.83875686 0.59388560
v -0.23188636 0.89879197 0.48876926
v 0.37244520 0.97831875 -0.01756432
v 0.31744656 0.99927425 0.11332089
v 0.44858244 0.94056636 0.12158661
v 0.03736978 1.05767012 0.08939881
v 0.17846072 1.03310013 0.09696854
v 0.09557790 1.05166984 -0.04841438
v 0.32338977 0.91215795 0.37265819
v 0.24979189 0.99607831 0.25218710
v 0.17451958 0.96054530 0.36062899
v -0.16588601 0.98628968 0.36109662
v 0.00645105 0.99937803 0.36401221
v -0.06937899 1.04477596 0.22229721
v -0.39075536 0.92442524 -0.16684675
v -0.50219709 0.85832179 -0.15545763
v -0.11801576 1.02234173 -0.18219380
v -0.26008582 0.98471630 -0.17840794
v -0.37881035 0.83520198 -0.41696537
v -0.31866115 0.92120540 -0.30550534
v -0.25075138 0.88854778 -0.43371812
v 0.46256572 0.91831475 -0.14614408
v 0.33842388 0.96942788 -0.16033423
v 0.23283395 0.92536682 -0.41927394
v 0.29675871 0.96006125 -0.29542771
v 0.37108046 0.88360149 -0.41099808
v 0.19169624 1.02148366 -0.17900673
v 0.04932849 1.03590417 -0.19115829
v -0.08012681 0.59847486 -0.80213732
v -0.00815731 0.68540013 -0.72190028
v 0.07961383 0.61383158 -0.78320515
v -0.16515297 0.83037144 -0.55527258
v -0.08069809 0.76557863 -0.64721131
v -0.23757088 0.73319995 -0.63031608
v 0.24372932 0.77603883 -0.62669551
v 0.08871570 0.77738070 -0.65024287
v 0.15617816 0.85688776 -0.55229020
v -0.02135621 0.98537904 -0.32065293
v 0.07388801 0.93651706 -0.44710061
v -0.09417854 0.91969079 -0.45289648
v -0.57558644 0.77585727 -0.23026016
v -0.62698466 0.77469373 -0.09702367
v -0.45718756 0.75011945 -0.48790345
v -0.51621282 0.77411234 -0.36373347
v -0.74529684 0.60338718 -0.23959149
v -0.63781059 0.68880272 -0.31165954
v -0.69065815 0.59889269 -0.37676522
v -0.11987670 0.47602394 -0.86242485
v -0.19925851 0.54854655 -0.80346280
v -0.44934106 0.47349295 -0.76388520
v -0.31900638 0.51398820 -0.79497027
v -0.37797019 0.39321890 -0.85671145
v -0.27678230 0.64387417 -0.72030741
v -0.37560520 0.68604243 -0.61833483
v -0.89830333 0.22310902 -0.51605773
v -0.80936170 0.26714274 -0.57547528
v -0.83969247 0.16932438 -0.64130431
v -0.74501693 0.48296425 -0.46197480
v -0.77050114 0.37573257 -0.53072363
v -0.83382523 0.41128084 -0.39272931
v -0.61940467 0.28288531 -0.77098662
v -0.69312984 0.33813822 -0.64344126
v -0.58732468 0.40406710 -0.71489447
v -0.50861084 0.64078599 -0.57835859
v -0.55052835 0.53216934 -0.65357238
v -0.63602060 0.56904930 -0.51556420
v -0.69514036 0.70004457 -0.00797081
v -0.82152206 0.52871263 -0.15959629
v -0.76955193 0.62075126 -0.08985431
v -0.75837970 0.61428410 0.07602246
v -0.81100690 0.52424562 0.16680197
v -0.96885872 0.09464393 -0.42905912
v -0.97088575 0.22478829 -0.38532537
v -1.02693439 0.22261521 -0.09394975
v -1.02389848 0.21749547 -0.23715438
v -1.05257106 0.10439879 -0.13939172
v -0.94083267 0.32294992 -0.31146064
v -0.87514079 0.42120531 -0.25719321
v -0.91958272 0.24783203 0.36110577
v -0.94046599 0.14701834 0.38438538
v -0.85860461 0.39939067 0.23734237
v -0.92258841 0.29954562 0.29477966
v -1.04930830 0.11237299 0.12695824
v -0.99375629 0.21187311 0.22018072
v -1.02051246 0.21465592 0.08640828
v -0.90308815 0.43471423 -0.09223780
v -0.97007221 0.32277128 -0.00738384
v -0.88542157 0.43801320 0.07938661
v 0.53783149 0.87593043 0.21195814
v 0.58853871 0.86129260 0.07396619
v 0.40788180 0.83505994 0.46810323
v 0.47487670 0.87029421 0.34501079
v 0.73082811 0.70642489 0.23348933
v 0.61119658 0.79322386 0.29542768
v 0.68164366 0.69752413 0.36923450
v 0.07969315 0.54434800 0.85497922
v 0.14237557 0.63861609 0.77843380
v 0.41959110 0.56490678 0.76049805
v 0.28011516 0.60593164 0.78245258
v 0.32999280 0.48953176 0.85583818
v 0.23952432 0.72341818 0.69829756
v 0.31862924 0.78276080 0.59978443
v 0.86956125 0.28504330 0.51616889
v 0.78521794 0.35292432 0.60371339
v 0.79841709 0.23364545 0.65355062
v 0.73772842 0.58993268 0.45311555
v 0.76435208 0.47019154 0.52476513
v 0.83191645 0.51601052 0.38007581
v 0.57250047 0.39810538 0.78464884
v 0.68018264 0.43753085 0.66973543
v 0.57613629 0.51588666 0.71011412
v 0.47015134 0.73292941 0.56332767
v 0.52887851 0.62471586 0.64060307
v 0.61562842 0.67801559 0.50465852
v -0.16341281 0.41279843 0.91880250
v -0.02685126 0.46585101 0.91481829
v -0.42673448 0.31400099 0.88898909
v -0.29933855 0.36235148 0.91416520
v 0.00190656 0.22607782 1.02477562
v -0.15432194 0.29813647 0.99311197
v -0.14142191 0.19371998 1.04947591
v -0.80284685 0.01548404 0.61409730
v -0.70588219 0.05261593 0.71103060
v -0.55929697 0.00533163 0.81972069
v -0.68019736 0.00355911 0.78860593
v -0.63140845 0.13543598 0.71515638
v -0.61869097 0.11994568 0.80991399
v -0.52217454 0.19846369 0.86558396
v 0.00707225 0.21680053 0.94911927
v -0.11151726 0.15810357 0.92290670
v -0.13323149 0.29940447 0.88756156
v -0.13212581 0.04534309 1.05115938
v -0.12233560 0.05589680 0.97022676
v 0.01588975 0.00000000 1.06285560
v -0.36432245 0.19657625 0.79389894
v -0.30087706 0.09427758 0.88721293
v -0.41168359 0.04106579 0.84915996
v -0.42233789 0.18540044 0.93983173
v -0.41676795 0.01893081 0.96318531
v -0.27550244 0.12578945 1.02043545
v -0.97003686 0.03912095 0.35428497
v -0.89047629 0.04968118 0.48117703
v -1.01885700 0.03182130 0.11648238
v -0.96002334 0.02819315 0.25426608
v -0.84393531 0.32178271 0.36446524
v -0.88639855 0.17917503 0.27129406
v -0.86088020 0.31516051 0.25706580
v -0.85981244 0.09820793 -0.48672545
v -0.90763551 0.12819095 -0.33997029
v -0.86501962 0.27376828 -0.20209722
v -0.91692883 0.18677473 -0.28512833
v -0.83450663 0.26454327 -0.34916902
v -0.98993921 0.10826930 -0.19690393
v -1.03999043 0.02702137 -0.07205204
v -0.60157365 0.69851547 0.10097165
v -0.69146895 0.61784929 0.02454108
v -0.61656308 0.67505264 -0.06591508
v -0.80526638 0.45014748 0.17657876
v -0.75989991 0.54230726 0.10219587
v -0.74175149 0.56399006 0.27918109
v -0.74377888 0.48462826 -0.22863805
v -0.76350236 0.51232916 -0.06230493
v -0.82250166 0.39274022 -0.12950262
v -0.95763117 0.16472250 0.02430954
v -0.89455956 0.30264658 -0.05270882
v -0.88330191 0.29417053 0.11892004
v -0.76631057 0.08349651 -0.73807847
v -0.82974046 0.01026146 -0.63991266
v -0.52867192 0.24034023 -0.88952774
v -0.65372223 0.16925767 -0.82135385
v -0.60629231 0.09787206 -0.74177444
v -0.63435048 0.01472411 -0.80522645
v -0.52892798 0.02078551 -0.86109167
v 0.00535022 0.40823066 -0.91149801
v -0.12249673 0.36645216 -0.93019009
v -0.13499196 0.15097980 -1.02242887
v -0.12928571 0.26833880 -0.97518182
v 0.01119588 0.22578791 -1.02239656
v -0.26538122 0.34080562 -0.92973155
v -0.37648988 0.27304369 -0.91543877
v -0.14452462 0.38942859 -0.87777996
v -0.15990202 0.26246437 -0.94343776
v -0.01547537 0.31855050 -0.93141145
v -0.41684106 0.15614066 -0.91557384
v -0.30682462 0.19049641 -0.94027418
v -0.38611513 0.24486879 -0.83409750
v -0.04456180 0.04616207 -1.05032265
v -0.17119728 0.12795565 -1.00397730
v -0.15301503 0.00508820 -1.04639113
v -0.39459789 0.14912464 -0.94368052
v -0.26990762 0.06865487 -1.00902438
v -0.43122560 0.00339882 -0.94278115
v 0.20735112 0.57623243 -0.79938596
v 0.12063528 0.49311772 -0.86676151
v 0.37700143 0.72517246 -0.61704618
v 0.29961604 0.65787244 -0.71748698
v 0.39575055 0.40821853 -0.85397655
v 0.33653650 0.52929872 -0.79125667
v 0.46544412 0.48633415 -0.75933439
v 0.59249038 0.84406453 -0.08995034
v 0.55174065 0.84192210 -0.22364913
v 0.69517344 0.64411312 -0.38887388
v 0.62551624 0.74919659 -0.31373593
v 0.73984015 0.66154557 -0.25098655
v 0.51049012 0.82365727 -0.36583290
v 0.45488429 0.78960472 -0.48904714
v 0.80966425 0.15556748 -0.59974462
v 0.78317046 0.28295678 -0.59215510
v 0.87650412 0.25534114 -0.49071720
v 0.60791576 0.41141856 -0.69752109
v 0.70084667 0.34170765 -0.64851946
v 0.61757207 0.27165031 -0.74109554
v 0.83451718 0.45933160 -0.38596418
v 0.78382647 0.39842993 -0.52074498
v 0.74916863 0.51768565 -0.46315408
v 0.51523358 0.66475332 -0.58264130
v 0.64398175 0.61645943 -0.52242863
v 0.57222915 0.53183323 -0.65485704
v 0.67063081 0.53752458 0.06136354
v 0.61633205 0.51242453 0.20805106
v 0.56629145 0.60057521 0.13930836
v 0.77033055 0.31561577 0.33543110
v 0.69543278 0.41407457 0.29824898
v 0.80909640 0.31041366 0.22648369
v 0.43185085 0.57342839 0.36018911
v 0.55968678 0.49603799 0.34477484
v 0.48956716 0.46446016 0.44449997
v 0.83076042 0.07018536 0.63822401
v 0.84189779 0.10444453 0.55945551
v 0.91950691 0.03121909 0.47080112
v 0.63393939 0.13616456 0.65669316
v 0.75889724 0.06635671 0.62643957
v 0.66182321 0.06777326 0.74441165
v 0.85739392 0.07555529 0.30332536
v 0.81084335 0.11024935 0.46412173
v 0.78780895 0.16734113 0.38749149
v 0.10259999 0.42112505 0.81571615
v 0.25116849 0.39089566 0.79068089
v 0.16508308 0.29862472 0.86181885
v 0.40897956 0.45829150 0.56560671
v 0.36201176 0.43070775 0.68453133
v 0.28746247 0.53097504 0.59563255
v 0.44255134 0.21313122 0.83780175
v 0.39354452 0.29606393 0.77147549
v 0.52421975 0.23797353 0.72910029
v 0.70279860 0.26537138 0.47135288
v 0.62531751 0.28334135 0.62212765
v 0.55412865 0.36367330 0.53916997
v 0.42472899 0.64763933 0.12202818
v 0.42469314 0.50341934 0.04643061
v 0.31787252 0.67950618 0.36013237
v 0.38416409 0.68114322 0.25526080
v 0.17017129 0.59069437 0.04251652
v 0.28936091 0.68478066 0.15759534
v 0.14726605 0.60283059 0.16214117
v -0.06031734 0.42985439 0.77952623
v 0.04161688 0.52077800 0.73896331
v -0.10674649 0.65499121 0.55428225
v -0.02987537 0.59485483 0.65620327
v -0.17206131 0.61391658 0.61028218
v 0.15786368 0.58592057 0.64711833
v 0.24015984 0.63234931 0.49818134
v -0.35987151 0.65873474 0.03458594
v -0.29822591 0.77075952 0.14238159
v -0.46306416 0.76218981 0.14916955
v -0.02777976 0.60952550 0.16961743
v -0.14140911 0.75137174 0.14604604
v -0.08341292 0.60195607 0.02887996
v -0.31144777 0.72165942 0.36843640
v -0.22880672 0.79605168 0.26919574
v -0.16828163 0.73510039 0.41439116
v 0.17674229 0.72450209 0.44176602
v 0.00252140 0.74959284 0.44483995
v 0.05148317 0.62102091 0.31689259
v 0.40207997 0.63942415 -0.08160670
v 0.55672109 0.63492507 -0.09969858
v 0.15131181 0.57776326 -0.12127140
v 0.25658119 0.55486357 -0.09500716
v 0.42165020 0.67514259 -0.34850174
v 0.32481733 0.71685147 -0.19075117
v 0.28259620 0.72882575 -0.34259468
v -0.47856349 0.75108916 -0.14940208
v -0.36523229 0.62822431 -0.12432212
v -0.22865146 0.52048957 -0.30622429
v -0.29820380 0.59433591 -0.19378807
v -0.38554063 0.57888955 -0.33038682
v -0.18766232 0.57465726 -0.09847437
v -0.04734096 0.55989766 -0.11526252
v 0.05702345 0.51414186 -0.74999797
v -0.00631912 0.61565858 -0.68703198
v -0.11432419 0.51754916 -0.76786178
v 0.17516613 0.73536658 -0.47742137
v 0.08093946 0.66319662 -0.59049201
v 0.26091632 0.64616996 -0.59383750
v -0.19726425 0.50318521 -0.59828150
v -0.08957594 0.67415309 -0.59646082
v -0.14950387 0.57374263 -0.47129309
v 0.07779614 0.58724570 -0.21001795
v -0.03357323 0.56810534 -0.35342306
v 0.09669302 0.71751112 -0.31998181
v 0.61640555 0.60698736 -0.21716689
v 0.68612832 0.53511763 -0.08276310
v 0.50201648 0.63362950 -0.46148178
v 0.57182854 0.63572323 -0.34930080
v 0.79367352 0.43856150 -0.24520615
v 0.66795814 0.55644715 -0.29528207
v 0.72313523 0.44107273 -0.37082580
v 0.11965143 0.39930820 -0.86948067
v 0.18360876 0.47864681 -0.79916233
v 0.45300153 0.34799987 -0.78675503
v 0.32828012 0.40069339 -0.81156898
v 0.32141864 0.25840732 -0.84117627
v 0.30161610 0.55137241 -0.71398807
v 0.40670773 0.60273194 -0.60171372
v 0.88957816 0.07490873 -0.54599237
v 0.81344545 0.19460052 -0.60356593
v 0.80464798 0.09252905 -0.66374213
v 0.80207080 0.34577161 -0.46960369
v 0.82186776 0.23790285 -0.54875427
v 0.89012253 0.24905470 -0.40396893
v 0.57080525 0.16121477 -0.81242281
v 0.69605130 0.24537845 -0.71189415
v 0.57538134 0.29938111 -0.75018996
v 0.51921600 0.51660907 -0.58958012
v 0.58872372 0.39712581 -0.67647111
v 0.67976612 0.45220140 -0.55086833
v 0.75819206 0.49860886 -0.00740778
v 0.85471094 0.34403774 -0.16936123
v 0.80853903 0.42196855 -0.08587877
v 0.80665004 0.36905369 0.06824066
v 0.84187967 0.25255111 0.12592375
v 0.95255166 0.14648762 -0.42622650
v 0.95820779 0.02983748 -0.41268685
v 1.07033741 0.02408667 -0.10192650
v 1.02101827 0.07221394 -0.25963065
v 1.03033888 0.14011106 -0.13381834
v 0.94581884 0.13594039 -0.35794410
v 0.92663717 0.25903568 -0.25715750
v 0.96978474 0.03827286 0.33063701
v 0.95053923 0.15174931 0.42050195
v 0.89628965 0.11315911 0.15260579
v 0.92747480 0.00235339 0.22921585
v 1.03473783 0.18318526 0.13387357
v 1.01306081 0.10945443 0.19114064
v 1.06313002 0.04762115 0.07277424
v 0.92225975 0.24762331 -0.08103826
v 0.99323809 0.11366804 -0.03453360
v 0.91734123 0.13441558 0.03542367
v 0.16122198 0.19934720 0.92202091
v 0.43048036 0.11230295 0.89938313
v 0.30148894 0.13976733 0.92353368
v 0.14698136 0.08418666 1.00067103
v 0.16170782 0.01829094 1.05119431
v 0.74756062 0.16879509 0.74302465
v 0.50970125 0.30524051 0.87258178
v 0.62642574 0.24885486 0.81490201
v 0.66938668 0.08507329 0.80655718
v 0.58900571 0.02315073 0.87502182
v 0.08780248 0.41821721 0.94175875
v 0.14610049 0.17444280 1.04063594
v 0.09616787 0.28142089 1.00049818
v 0.21914884 0.39261511 0.93435848
v 0.34798452 0.35598773 0.91600597
v 0.43237567 0.04877752 0.96356505
v 0.40868464 0.19918263 0.94735992
v 0.28183585 0.12224367 1.01439834
v -0.56055427 0.70080781 0.24343532
v -0.37654865 0.63599223 0.48360866
v -0.47900039 0.66504526 0.38272300
v -0.61697590 0.63899642 0.33542624
v -0.66001165 0.52773935 0.42696613
v -0.20310703 0.39339930 0.81367373
v -0.46132538 0.30583382 0.74291497
v -0.33894071 0.34616256 0.76211071
v -0.24529199 0.50171542 0.72532970
v -0.31079799 0.56117946 0.62168425
v -0.84379393 0.14461070 0.57673305
v -0.76738572 0.38233304 0.48401284
v -0.80954963 0.26561555 0.53090745
v -0.71712017 0.20351195 0.65511566
v -0.59615666 0.28060055 0.72366285
v -0.47466758 0.53465647 0.58198106
v -0.52929258 0.40348783 0.68721884
v -0.60583407 0.44609880 0.54969329
v -0.23712273 0.44727102 -0.80184257
v -0.36413956 0.54025018 -0.61252427
v -0.30416557 0.50285578 -0.68592799
v -0.38439396 0.39371669 -0.74393821
v -0.48648268 0.30358258 -0.73498869
v -0.56893146 0.69167864 -0.22462295
v -0.68330705 0.46789438 -0.35894558
v -0.64184552 0.58521593 -0.28053403
v -0.49838534 0.64013880 -0.36176226
v -0.45235214 0.61253589 -0.49779493
v -0.77534032 0.11434598 -0.58010012
v -0.62147319 0.24188566 -0.69240034
v -0.68734324 0.15650707 -0.62713003
v -0.75605243 0.20144472 -0.49185643
v -0.73607105 0.31578237 -0.44026837
v -0.52962726 0.52067029 -0.54656178
v -0.64350533 0.41611326 -0.50691861
v -0.59362757 0.35969844 -0.61956125
v 0.74653929 0.03479252 -0.70271349
v 0.48686865 0.05898402 -0.87322116
v 0.63914001 0.06711469 -0.81395453
v 0.63638324 0.12424935 -0.79793179
v 0.53184676 0.20015624 -0.83258420
v 0.10057027 0.26114011 -0.94083792
v 0.10682412 0.03519820 -1.04432833
v 0.07351229 0.10277162 -0.98094028
v 0.22984813 0.17099853 -0.92713487
v 0.33981407 0.11962868 -0.92722553
v 0.15137944 0.38492662 -0.93816227
v 0.40546632 0.27993611 -0.89623111
v 0.26707011 0.33755627 -0.92468071
v 0.14780067 0.25703511 -0.99864233
v 0.13474771 0.16179553 -1.02088761
v 0.39581224 0.00007927 -0.97508454
v 0.28226951 0.11043721 -1.02357447
v 0.42975733 0.12577145 -0.94171977
v 0.93092370 0.28079435 0.38963121
v 1.01124918 0.27660769 0.08246829
v 0.99330497 0.30318376 0.23319648
v 0.90881127 0.40236735 0.32578534
v 0.88756245 0.50385290 0.24174739
v 0.93768120 0.23282753 -0.36137533
v 0.87758172 0.45411921 -0.25073510
v 0.91651982 0.35280958 -0.30262971
v 0.97234285 0.24154752 -0.21246116
v 1.00978470 0.25966913 -0.06776323
v 0.67994082 0.78140545 -0.01297958
v 0.83098900 0.62311095 0.14349340
v 0.76054239 0.71459419 0.07498252
v 0.75598800 0.68872356 -0.09286636
v 0.81965452 0.58303666 -0.16673386
v 0.98446095 0.39689964 0.00744327
v 0.90698546 0.47859097 -0.09647989
v 0.90693742 0.50512630 0.06379615
f 330 87 329
f 336 325 26
f 207 208 56
f 464 36 580
f 502 129 504
f 157 624 622
f 308 311 82
f 247 223 248
f 507 483 508
f 331 88 329
f 494 500 497
f 156 601 602
f 591 589 592
f 365 98 596
f 75 281 282
f 152 587 577
f 149 559 560
f 555 121 553
f 530 141 529
f 515 517 139
f 361 594 98
f 250 67 249
f 157 608 609
f 294 293 209
f 317 81 316
f 557 338 26
f 303 305 81
f 530 529 528
f 101 381 382
f 415 418 111
f 192 184 50
f 412 110 411
f 20 384 256
f 131 594 486
f 281 264 282
f 347 287 348
f 28 349 582
f 165 163 1
f 248 250 66
f 617 107 398
f 273 271 274
f 456 115 453
f 558 561 560
f 335 576 91
f 331 177 332
f 116 433 436
f 351 370 92
f 136 511 530
f 239 240 65
f 247 258 19
f 304 23 567
f 148 557 570
f 214 208 58
f 440 426 450
f 268 270 269
f 258 247 268
f 204 202 16
f 466 125 465
f 517 513 133
f 168 275 274
f 275 73 274
f 198 193 53
f 309 308 307
f 510 511 136
f 415 416 110
f 131 490 597
f 473 475 474
f 414 415 111
f 493 495 494
f 496 504 485
f 433 116 432
f 600 375 601
f 240 234 65
f 418 415 412
f 486 361 3
f 567 566 304
f 380 393 29
f 17 199 197
f 491 492 132
f 451 449 435
f 218 217 216
f 623 621 613
f 396 104 395
f 433 439 436
f 628 160 627
f 215 202 217
f 209 207 2
f 427 113 424
f 434 10 544
f 434 433 432
f 199 17 210
f 150 564 565
f 489 491 132
f 275 13 285
f 497 500 134
f 125 466 476
f 578 152 577
f 208 214 211
f 328 88 343
f 356 27 603
f 150 566 567
f 372 100 371
f 190 191 47
f 235 8 398
f 260 261 72
f 422 403 414
f 422 414 111
f 453 454 123
f 349 583 582
f 521 520 519
f 425 453 115
f 616 622 158
f 483 130 508
f 151 586 572
f 212 17 232
f 400 397 402
f 377 396 99
f 41 522 511
f 510 508 505
f 549 547 42
f 475 473 36
f 510 137 509
f 222 221 197
f 430 115 429
f 220 194 1
f 305 54 204
f 621 29 613
f 192 171 184
f 460 335 5
f 88 331 332
f 74 277 279
f 300 301 80
f 390 389 388
f 165 45 164
f 146 549 551
f 291 278 75
f 448 120 445
f 147 543 544
f 607 610 609
f 603 602 356
f 139 529 514
f 333 553 443
f 92 368 347
f 261 260 259
f 300 6 200
f 46 177 331
f 284 283 174
f 301 300 200
f 471 468 474
f 54 305 301
f 302 304 303
f 569 150 567
f 150 569 570
f 294 209 2
f 628 629 160
f 548 543 147
f 147 625 627
f 63 233 234
f 426 427 114
f 41 509 532
f 198 52 196
f 614 105 612
f 147 627 547
f 81 305 306
f 549 548 547
f 54 301 200
f 342 88 332
f 264 281 70
f 193 194 53
f 455 429 456
f 187 321 14
f 479 130 484
f 147 544 625
f 458 456 453
f 304 80 303
f 314 84 313
f 488 503 501
f 321 332 14
f 423 425 424
f 305 204 306
f 341 339 25
f 514 40 516
f 625 628 627
f 340 339 341
f 105 614 391
f 243 228 62
f 318 316 78
f 75 278 279
f 357 355 353
f 238 257 63
f 466 455 476
f 425 423 4
f 448 449 120
f 408 638 108
f 292 275 285
f 22 278 289
f 515 513 517
f 501 503 134
f 622 623 158
f 134 503 504
f 195 216 206
f 163 271 246
f 619 617 620
f 62 228 229
f 163 165 164
f 453 425 454
f 489 132 488
f 82 628 625
f 58 208 209
f 525 608 40
f 626 547 627
f 518 517 498
f 489 487 491
f 557 26 564
f 325 336 344
f 541 145 539
f 40 616 516
f 338 556 89
f 250 248 245
f 139 514 515
f 98 594 596
f 246 220 1
f 112 413 630
f 9 536 413
f 156 600 601
f 332 177 14
f 321 342 332
f 156 606 600
f 584 330 585
f 302 303 81
f 584 87 330
f 330 25 585
f 400 239 65
f 439 440 117
f 95 358 368
f 597 594 131
f 594 361 486
f 246 67 245
f 561 562 149
f 28 364 362
f 55 216 217
f 427 430 114
f 267 20 254
f 556 555 553
f 84 309 558
f 311 310 312
f 609 525 142
f 256 68 255
f 124 460 461
f 82 311 312
f 307 308 82
f 589 135 495
f 527 40 514
f 112 418 412
f 20 256 254
f 258 238 19
f 267 254 269
f 273 272 249
f 392 391 393
f 137 533 509
f 122 455 456
f 9 413 411
f 130 480 505
f 333 443 5
f 527 525 40
f 589 495 385
f 39 496 485
f 223 225 224
f 414 416 415
f 219 222 53
f 145 538 539
f 413 412 411
f 469 468 467
f 183 181 6
f 191 192 50
f 429 35 431
f 292 285 76
f 413 112 412
f 415 110 412
f 43 164 167
f 467 468 126
f 617 101 620
f 450 451 117
f 438 546 545
f 619 620 159
f 17 212 210
f 124 579 576
f 584 153 583
f 460 124 576
f 3 469 467
f 311 308 314
f 6 320 183
f 389 104 388
f 251 250 249
f 194 165 1
f 291 289 278
f 287 77 348
f 238 258 257
f 139 517 518
f 238 236 19
f 223 247 19
f 382 380 29
f 39 518 498
f 361 359 3
f 69 255 257
f 139 518 528
f 33 545 535
f 387 385 7
f 69 268 269
f 477 462 125
f 454 479 123
f 121 555 447
f 451 435 117
f 454 425 4
f 233 252 8
f 124 463 464
f 69 258 268
f 168 167 166
f 583 153 582
f 384 394 102
f 138 512 513
f 57 210 211
f 254 256 255
f 607 609 142
f 324 319 86
f 289 291 76
f 291 292 76
f 384 102 383
f 422 421 420
f 221 17 197
f 383 102 381
f 376 377 99
f 99 373 374
f 386 105 392
f 438 33 440
f 90 341 343
f 281 75 279
f 574 571 96
f 628 82 312
f 221 222 59
f 127 471 474
f 595 605 603
f 551 538 145
f 334 91 340
f 322 324 85
f 305 303 301
f 18 239 399
f 306 204 16
f 199 198 197
f 166 190 180
f 303 80 301
f 267 266 265
f 626 42 547
f 16 215 213
f 349 351 350
f 295 16 213
f 68 379 252
f 250 251 66
f 627 160 626
f 383 68 256
f 343 88 342
f 507 508 136
f 202 215 16
f 197 198 53
f 254 69 269
f 603 605 156
f 418 419 111
f 384 383 256
f 455 122 476
f 203 204 54
f 556 557 148
f 255 68 253
f 313 84 560
f 25 328 341
f 254 255 69
f 603 156 602
f 581 584 583
f 630 632 112
f 163 246 1
f 246 245 220
f 432 116 558
f 499 591 590
f 320 563 86
f 345 93 350
f 306 16 295
f 346 93 345
f 562 568 149
f 604 605 155
f 154 592 593
f 545 552 535
f 511 522 530
f 574 573 571
f 566 150 565
f 361 98 360
f 67 271 273
f 234 235 65
f 208 211 56
f 574 151 573
f 251 270 66
f 398 8 378
f 213 215 214
f 438 440 439
f 315 314 313
f 263 71 262
f 20 373 384
f 496 134 504
f 329 88 328
f 81 306 316
f 555 556 148
f 592 589 103
f 617 619 107
f 227 207 56
f 571 359 96
f 446 466 465
f 206 216 55
f 359 571 469
f 568 148 570
f 34 437 435
f 28 351 349
f 21 272 282
f 113 423 424
f 490 489 488
f 379 68 383
f 210 212 211
f 80 563 300
f 351 92 350
f 326 346 12
f 83 317 318
f 555 148 554
f 212 231 56
f 218 57 217
f 271 67 246
f 195 196 52
f 270 268 66
f 390 592 103
f 148 568 554
f 495 493 7
f 592 390 593
f 357 95 355
f 574 575 151
f 452 120 451
f 154 591 592
f 587 585 577
f 395 394 396
f 93 349 350
f 610 416 611
f 166 44 190
f 315 23 302
f 315 302 317
f 268 247 66
f 606 154 593
f 396 394 99
f 211 212 56
f 370 369 368
f 235 397 65
f 280 278 22
f 83 315 317
f 575 588 151
f 74 279 280
f 385 495 7
f 63 257 253
f 397 235 398
f 214 58 213
f 220 219 194
f 546 146 545
f 236 225 19
f 599 94 602
f 235 233 8
f 102 394 395
f 611 416 32
f 225 223 19
f 139 528 529
f 231 62 229
f 419 406 421
f 451 450 452
f 49 182 185
f 402 397 107
f 52 199 218
f 416 610 110
f 225 236 244
f 107 397 398
f 68 252 253
f 322 85 321
f 182 181 183
f 118 438 439
f 546 438 118
f 348 77 345
f 543 546 118
f 231 212 232
f 610 611 157
f 33 438 545
f 385 386 103
f 479 480 130
f 169 195 15
f 93 583 349
f 15 195 206
f 190 44 192
f 247 248 66
f 146 552 545
f 248 60 245
f 570 557 564
f 274 271 43
f 63 253 233
f 272 21 249
f 507 528 518
f 67 273 249
f 487 467 126
f 196 195 169
f 624 159 623
f 134 496 497
f 132 503 488
f 104 393 395
f 556 553 89
f 355 356 94
f 258 69 257
f 229 61 227
f 56 231 227
f 460 576 335
f 463 124 461
f 394 373 99
f 29 393 391
f 67 250 245
f 193 198 196
f 462 36 464
f 144 633 630
f 141 526 527
f 517 133 498
f 536 144 630
f 100 372 599
f 144 536 537
f 22 289 287
f 578 579 152
f 579 578 576
f 189 188 187
f 60 223 224
f 92 348 350
f 555 554 447
f 396 377 388
f 194 193 165
f 413 536 630
f 372 352 599
f 377 376 375
f 348 345 350
f 105 386 387
f 240 237 234
f 463 462 464
f 135 500 494
f 45 196 169
f 512 612 387
f 245 60 220
f 429 115 456
f 223 60 248
f 288 289 76
f 525 526 142
f 100 599 601
f 613 29 391
f 526 523 520
f 341 328 343
f 631 641 639
f 264 21 282
f 266 72 265
f 106 402 403
f 73 273 274
f 186 206 205
f 381 379 383
f 52 216 195
f 410 18 399
f 290 272 73
f 72 371 374
f 526 525 527
f 115 430 424
f 498 497 496
f 621 382 29
f 543 118 434
f 214 215 57
f 522 141 530
f 511 510 509
f 352 94 599
f 493 512 7
f 90 340 341
f 169 171 170
f 605 604 606
f 219 60 224
f 104 389 392
f 359 469 3
f 186 49 185
f 222 219 224
f 166 167 44
f 428 427 426
f 523 522 524
f 129 502 481
f 50 185 188
f 164 45 170
f 425 115 424
f 33 428 426
f 427 428 113
f 94 356 602
f 515 138 513
f 114 431 452
f 237 236 238
f 215 217 57
f 95 354 355
f 220 60 219
f 515 514 516
f 183 320 319
f 222 197 53
f 559 569 567
f 300 320 6
f 435 436 117
f 96 360 363
f 640 642 641
f 242 243 62
f 140 537 519
f 508 130 505
f 420 410 399
f 537 539 144
f 317 316 318
f 426 114 450
f 186 15 206
f 311 83 310
f 625 544 307
f 544 10 307
f 168 43 167
f 185 182 188
f 369 354 95
f 44 171 192
f 605 606 156
f 548 549 146
f 100 601 375
f 149 568 569
f 381 380 382
f 455 466 35
f 480 479 454
f 543 548 546
f 493 133 513
f 492 472 37
f 477 125 476
f 491 487 126
f 337 336 338
f 588 153 587
f 576 578 91
f 633 161 632
f 96 359 360
f 39 485 483
f 101 617 378
f 193 45 165
f 163 164 43
f 618 624 611
f 507 136 528
f 561 149 560
f 641 162 639
f 116 561 558
f 494 133 493
f 253 252 233
f 63 237 238
f 392 393 104
f 440 450 117
f 93 581 583
f 386 385 387
f 120 449 451
f 421 422 111
f 486 3 467
f 302 81 317
f 633 632 630
f 462 475 36
f 376 99 374
f 489 490 131
f 447 449 448
f 387 612 105
f 106 420 399
f 173 46 172
f 492 491 472
f 316 306 295
f 22 287 347
f 109 410 420
f 507 39 483
f 559 23 313
f 214 57 211
f 196 45 193
f 10 434 432
f 422 106 403
f 626 160 640
f 487 486 467
f 542 41 532
f 400 106 399
f 444 120 452
f 198 199 52
f 475 127 474
f 621 620 382
f 621 623 159
f 450 114 452
f 92 347 348
f 376 100 375
f 434 118 433
f 503 132 502
f 337 90 336
f 537 536 519
f 395 393 380
f 201 54 200
f 171 44 170
f 355 94 353
f 58 296 213
f 422 420 106
f 595 365 596
f 569 568 570
f 523 140 520
f 114 430 431
f 218 210 57
f 304 566 80
f 639 162 638
f 261 371 72
f 548 147 547
f 498 133 497
f 150 570 564
f 222 224 59
f 142 526 520
f 437 436 435
f 141 522 523
f 137 510 505
f 173 179 176
f 559 149 569
f 121 447 448
f 563 320 300
f 102 395 380
f 257 255 253
f 642 162 641
f 83 311 314
f 216 52 218
f 512 493 513
f 23 304 302
f 91 339 340
f 512 138 612
f 159 620 621
f 218 199 210
f 364 28 575
f 83 318 310
f 168 274 43
f 136 530 528
f 140 523 524
f 495 135 494
f 233 235 234
f 566 563 80
f 25 339 577
f 277 74 276
f 475 462 477
f 133 494 497
f 436 437 116
f 389 386 392
f 548 146 546
f 441 460 5
f 10 309 307
f 65 397 400
f 543 434 544
f 640 641 161
f 272 273 73
f 581 93 346
f 419 421 111
f 319 320 86
f 180 179 178
f 127 475 477
f 231 229 227
f 337 334 340
f 136 508 510
f 308 309 84
f 237 63 234
f 447 554 34
f 252 379 378
f 315 83 314
f 608 622 616
f 338 336 26
f 337 338 89
f 13 275 168
f 209 208 207
f 436 439 117
f 628 312 629
f 360 366 363
f 364 574 96
f 359 361 360
f 466 446 35
f 500 501 134
f 406 109 421
f 135 589 591
f 601 599 602
f 340 90 337
f 481 492 37
f 522 41 524
f 78 316 295
f 131 486 487
f 403 32 414
f 634 626 640
f 151 572 573
f 515 516 138
f 8 252 378
f 265 72 374
f 9 521 519
f 538 549 42
f 368 358 347
f 588 587 586
f 458 453 123
f 589 385 103
f 502 492 481
f 32 416 414
f 430 427 424
f 153 585 587
f 540 144 539
f 370 368 92
f 209 293 58
f 428 33 535
f 326 581 346
f 625 307 82
f 575 28 582
f 6 181 200
f 421 109 420
f 553 121 443
f 160 642 640
f 153 584 585
f 309 432 558
f 334 337 89
f 23 315 313
f 271 163 43
f 296 295 213
f 39 498 496
f 118 439 433
f 531 113 534
f 293 296 58
f 28 362 351
f 489 131 487
f 431 444 452
f 84 558 560
f 98 366 360
f 45 169 170
f 379 101 378
f 462 463 125
f 308 84 314
f 10 432 309
f 299 24 310
f 132 492 502
f 512 387 7
f 639 638 408
f 565 323 86
f 59 244 242
f 106 400 402
f 440 33 426
f 566 565 563
f 617 398 378
f 224 225 59
f 410 109 409
f 239 400 399
f 194 219 53
f 358 22 347
f 610 157 609
f 27 595 603
f 479 484 482
f 142 520 521
f 585 25 577
f 339 578 577
f 408 407 406
f 407 109 406
f 31 408 406
f 407 408 108
f 31 639 408
f 419 31 406
f 608 616 40
f 430 429 431
f 455 35 429
f 35 444 431
f 188 51 187
f 188 182 51
f 51 322 187
f 322 51 319
f 51 182 183
f 319 51 183
f 187 322 321
f 322 319 324
f 381 101 379
f 405 407 108
f 404 405 108
f 286 285 178
f 407 405 409
f 109 407 409
f 191 175 47
f 167 164 170
f 50 184 185
f 44 167 170
f 64 244 236
f 243 244 64
f 50 188 189
f 541 542 145
f 442 445 119
f 339 91 578
f 445 446 119
f 624 623 622
f 611 624 157
f 523 526 141
f 141 527 529
f 527 514 529
f 445 120 444
f 446 445 444
f 35 446 444
f 613 614 158
f 158 614 615
f 623 613 158
f 614 613 391
f 614 612 615
f 371 376 374
f 100 376 371
f 479 482 123
f 373 394 384
f 540 42 634
f 633 540 634
f 538 42 540
f 633 634 161
f 161 634 640
f 42 626 634
f 540 633 144
f 557 556 338
f 553 333 89
f 262 21 264
f 251 21 262
f 5 335 333
f 270 251 262
f 21 251 249
f 600 593 30
f 606 593 600
f 600 30 375
f 593 390 30
f 30 377 375
f 390 388 30
f 30 388 377
f 228 243 241
f 470 478 459
f 470 127 478
f 127 477 478
f 184 186 185
f 478 477 476
f 122 478 476
f 357 74 280
f 518 39 507
f 344 342 85
f 325 344 85
f 342 344 343
f 85 342 321
f 344 90 343
f 90 344 336
f 482 129 481
f 482 481 457
f 482 457 123
f 481 37 457
f 449 447 34
f 435 449 34
f 470 472 471
f 472 470 37
f 470 471 127
f 472 126 471
f 126 468 471
f 470 459 37
f 491 126 472
f 504 129 485
f 221 59 242
f 125 463 465
f 437 34 562
f 561 437 562
f 554 568 562
f 34 554 562
f 437 561 116
f 390 103 389
f 103 386 389
f 392 105 391
f 572 586 580
f 572 580 36
f 586 152 580
f 473 572 36
f 244 243 242
f 225 244 59
f 64 240 241
f 240 239 241
f 237 240 64
f 243 64 241
f 236 237 64
f 411 607 521
f 9 411 521
f 110 607 411
f 607 142 521
f 610 607 110
f 171 15 184
f 171 169 15
f 15 186 184
f 87 584 581
f 153 588 582
f 588 575 582
f 381 102 380
f 573 572 473
f 468 469 128
f 474 468 128
f 469 571 128
f 571 573 128
f 573 473 128
f 473 474 128
f 564 323 565
f 26 323 564
f 323 324 86
f 325 323 26
f 325 324 323
f 563 565 86
f 324 325 85
f 410 230 18
f 230 228 18
f 18 228 241
f 18 241 239
f 401 619 618
f 401 402 107
f 403 402 401
f 619 159 618
f 401 618 32
f 619 401 107
f 403 401 32
f 618 611 32
f 159 624 618
f 478 122 459
f 122 458 459
f 37 459 457
f 459 458 457
f 122 456 458
f 457 458 123
f 191 190 192
f 485 129 484
f 129 482 484
f 483 485 484
f 130 483 484
f 189 187 14
f 191 50 189
f 191 189 175
f 189 14 175
f 14 177 175
f 499 501 500
f 501 499 38
f 38 499 590
f 135 499 500
f 488 501 38
f 499 135 591
f 480 454 4
f 284 12 346
f 4 423 506
f 480 4 506
f 423 531 506
f 480 506 505
f 531 137 506
f 506 137 505
f 365 366 98
f 71 270 262
f 270 71 269
f 71 267 269
f 335 334 333
f 333 334 89
f 334 335 91
f 536 9 519
f 465 463 461
f 537 140 541
f 520 140 519
f 119 446 465
f 465 461 119
f 461 441 119
f 460 441 461
f 176 46 173
f 299 297 24
f 71 263 266
f 263 260 266
f 260 72 266
f 263 70 260
f 205 201 49
f 201 181 49
f 186 205 49
f 181 201 200
f 181 182 49
f 284 77 283
f 586 587 152
f 588 586 151
f 20 267 265
f 266 267 71
f 31 417 631
f 631 417 632
f 31 631 639
f 417 31 419
f 641 631 161
f 417 112 632
f 161 631 632
f 418 417 419
f 417 418 112
f 284 345 77
f 542 550 145
f 542 541 524
f 284 174 12
f 48 174 283
f 373 20 265
f 373 265 374
f 609 608 525
f 608 157 622
f 560 559 313
f 636 637 162
f 541 140 524
f 41 542 524
f 358 357 280
f 70 263 264
f 263 262 264
f 176 177 46
f 174 48 173
f 174 173 172
f 538 551 549
f 538 540 539
f 537 541 539
f 232 221 242
f 17 221 232
f 232 242 62
f 231 232 62
f 203 205 55
f 203 55 202
f 201 205 203
f 202 55 217
f 205 206 55
f 204 203 202
f 73 275 292
f 292 290 73
f 272 290 282
f 290 292 291
f 75 290 291
f 290 75 282
f 70 277 259
f 277 70 281
f 277 281 279
f 260 70 259
f 12 174 172
f 104 396 388
f 367 27 354
f 365 27 367
f 354 27 356
f 365 367 366
f 595 27 365
f 318 299 310
f 155 596 597
f 155 597 598
f 596 594 597
f 595 596 155
f 605 595 155
f 180 47 179
f 180 190 47
f 352 372 11
f 11 372 261
f 312 310 24
f 642 636 162
f 636 297 637
f 367 369 97
f 366 367 97
f 369 367 354
f 369 370 97
f 580 579 464
f 580 152 579
f 579 124 464
f 61 230 409
f 230 410 409
f 230 61 229
f 230 229 228
f 76 285 286
f 353 352 276
f 74 353 276
f 288 76 286
f 288 286 283
f 289 288 287
f 203 54 201
f 287 288 77
f 77 288 283
f 286 48 283
f 531 423 113
f 276 11 259
f 11 261 259
f 277 276 259
f 616 158 615
f 516 616 615
f 138 516 615
f 138 615 612
f 509 533 532
f 503 502 504
f 635 79 294
f 635 294 404
f 635 637 79
f 637 635 638
f 638 635 108
f 635 404 108
f 226 61 405
f 61 226 227
f 405 61 409
f 227 226 207
f 48 178 179
f 48 286 178
f 173 48 179
f 534 143 533
f 534 535 143
f 531 534 533
f 533 143 532
f 137 531 533
f 261 372 371
f 13 180 178
f 285 13 178
f 180 13 166
f 13 168 166
f 346 345 284
f 331 327 46
f 46 327 172
f 172 327 326
f 382 620 101
f 442 121 448
f 443 121 442
f 2 226 404
f 294 2 404
f 404 226 405
f 207 226 2
f 550 551 145
f 552 146 551
f 143 550 532
f 552 550 143
f 330 329 328
f 24 636 629
f 94 352 353
f 352 11 276
f 113 428 534
f 428 535 534
f 509 41 511
f 535 552 143
f 550 552 551
f 550 542 532
f 369 95 368
f 326 327 87
f 87 327 329
f 327 331 329
f 581 326 87
f 293 79 298
f 79 297 298
f 296 298 78
f 79 293 294
f 296 293 298
f 598 490 38
f 358 280 22
f 280 279 278
f 357 358 95
f 74 357 353
f 330 328 25
f 567 23 559
f 590 598 38
f 590 604 598
f 598 604 155
f 604 590 154
f 590 591 154
f 604 154 606
f 297 299 298
f 299 318 78
f 298 299 78
f 355 354 356
f 629 636 642
f 312 24 629
f 629 642 160
f 370 362 97
f 362 363 97
f 363 366 97
f 364 363 362
f 362 370 351
f 96 363 364
f 297 636 24
f 162 637 638
f 637 297 79
f 490 488 38
f 598 597 490
f 441 442 119
f 443 442 441
f 443 441 5
f 442 448 445
f 296 78 295
f 326 12 172
f 575 574 364
f 47 175 176
f 175 177 176
f 47 176 179
