# FEM surface export ¡ª frame 163
# Vertices: 642  Faces: 1280
v -0.52584869 1.72832036 -0.00000076
v 0.52581918 1.72824907 0.00000306
v -0.54597968 0.03622004 -0.00024778
v 0.54361367 0.03482660 -0.00104027
v -0.00014535 0.35302162 0.85695952
v -0.00002561 1.40353858 0.85099524
v 0.00000354 0.35349348 -0.85745853
v 0.00000825 1.40341437 -0.85088301
v 0.85146332 0.87806177 -0.52624846
v 0.85143453 0.87786591 0.52618045
v -0.85146928 0.87795138 -0.52628797
v -0.85151774 0.87791401 0.52613389
v -0.80932832 1.37771368 0.30913198
v -0.50025994 1.18681097 0.80939645
v -0.30908614 1.68665886 0.50011456
v 0.30908948 1.68667138 0.50010765
v 0.00000346 1.87759018 -0.00000656
v 0.30907893 1.68662214 -0.50008786
v -0.30907887 1.68669474 -0.50011557
v -0.50022912 1.18673933 -0.80941224
v -0.80933309 1.37774217 -0.30912879
v -1.00071931 0.87774199 -0.00000396
v 0.50033700 1.18686807 0.80955255
v 0.80926222 1.37766445 0.30909324
v -0.50151879 0.56952161 0.81146407
v 0.00005661 0.87790579 1.00099277
v -0.81474423 0.37948424 -0.31099322
v -0.81403768 0.37903756 0.31081820
v -0.00002230 0.87804812 -1.00100863
v -0.50134695 0.56960368 -0.81135410
v 0.80925280 1.37763703 -0.30910322
v 0.50018644 1.18672860 -0.80933237
v 0.81567252 0.37894151 0.31117460
v 0.50150794 0.56962657 0.81139362
v 0.32036459 0.07353179 0.51349986
v -0.31707603 0.07341611 0.51134866
v -0.00195707 0.00000000 -0.00340920
v -0.31815258 0.07668067 -0.51448274
v 0.31725383 0.07580138 -0.51508343
v 0.50155467 0.56979394 -0.81142467
v 0.81533480 0.37993035 -0.31129822
v 1.00104797 0.87800223 0.00005407
v -0.69395959 1.57970929 0.16066992
v -0.58794683 1.56589437 0.42546844
v -0.43398017 1.74031484 0.25994170
v -0.70245755 1.03843689 0.69412380
v -0.68847269 1.30302179 0.58801681
v -0.86313522 1.13763273 0.43411374
v -0.16065773 1.57144320 0.70222294
v -0.42548126 1.46548092 0.68839365
v -0.25998703 1.31168282 0.86305058
v -0.16247553 1.82866442 0.26291648
v -0.27329797 1.83953631 0.00000010
v 0.16066651 1.57141364 0.70220637
v 0.00000829 1.72825801 0.52583748
v 0.27331078 1.83952105 -0.00000087
v 0.16249773 1.82870197 0.26292947
v 0.43397760 1.74028230 0.25994438
v -0.16247672 1.82865787 -0.26291165
v -0.43397561 1.74033666 -0.25994438
v 0.43397203 1.74026632 -0.25994483
v 0.16248788 1.82865405 -0.26291591
v -0.16063899 1.57140303 -0.70220274
v 0.00001450 1.72827089 -0.52584583
v 0.16067730 1.57140028 -0.70221931
v -0.58794290 1.56588662 -0.42542762
v -0.69394583 1.57971144 -0.16067423
v -0.25997096 1.31156504 -0.86297762
v -0.42542595 1.46547556 -0.68838060
v -0.86315489 1.13768387 -0.43412855
v -0.68843555 1.30306160 -0.58804893
v -0.70244539 1.03842902 -0.69422579
v -0.85096586 1.40344656 -0.00000071
v -0.96279210 0.87781316 -0.27355665
v -0.95162499 1.14063227 -0.16256566
v -0.95162606 1.14060307 0.16256166
v -0.96278650 0.87779796 0.27345356
v 0.58793843 1.56581342 0.42542931
v 0.69392520 1.57966352 0.16064167
v 0.26003149 1.31148291 0.86303747
v 0.42544314 1.46546185 0.68837965
v 0.86312044 1.13758767 0.43412387
v 0.68852705 1.30306196 0.58799851
v 0.70246530 1.03833818 0.69412410
v -0.26301077 1.04031479 0.95174259
v -0.00000192 1.15100598 0.96244794
v -0.70354432 0.71769720 0.69491661
v -0.52627015 0.87803364 0.85145253
v 0.00010953 0.60516179 0.96428925
v -0.26316130 0.71576029 0.95277691
v -0.26142931 0.44521880 0.86823094
v -0.95277435 0.61550915 0.16282313
v -0.86435783 0.61839741 0.43474671
v -0.86455274 0.61852312 -0.43485811
v -0.95309573 0.61548626 -0.16284847
v -0.70685256 0.17731267 0.16391799
v -0.85709590 0.35428250 -0.00001776
v -0.70838279 0.17802393 -0.16341613
v -0.52627194 0.87786925 -0.85150880
v -0.70317179 0.71761721 -0.69498086
v 0.00000330 1.15107358 -0.96241355
v -0.26301876 1.04029965 -0.95168638
v -0.26136169 0.44490427 -0.86701208
v -0.26320410 0.71563411 -0.95243537
v 0.00004398 0.60545814 -0.96432686
v 0.42543018 1.46539676 -0.68835980
v 0.26002020 1.31154299 -0.86293471
v 0.69392014 1.57964313 -0.16065893
v 0.58792424 1.56580734 -0.42540228
v 0.70245796 1.03842854 -0.69421035
v 0.68845969 1.30301797 -0.58802128
v 0.86309320 1.13761675 -0.43408188
v 0.70792347 0.17688237 0.16351789
v 0.59917021 0.19114654 0.43299136
v 0.45148823 0.02944604 0.27190077
v 0.70320606 0.71758693 0.69488102
v 0.69186586 0.45375198 0.59101081
v 0.86446828 0.61848825 0.43462071
v 0.16335689 0.18615270 0.71378827
v 0.42973232 0.29166284 0.69541872
v 0.26091197 0.44543475 0.86722744
v 0.17019233 0.00000000 0.27747729
v 0.28786781 0.00000000 -0.00139337
v -0.16452347 0.18592994 0.71350861
v -0.00016663 0.04280635 0.54536718
v -0.28860408 0.00000000 0.00079201
v -0.17046918 0.00000000 0.27547970
v -0.44782469 0.02795569 0.26816949
v 0.16934212 0.00000000 -0.27377713
v 0.44912723 0.02749166 -0.27034295
v -0.45129174 0.02962694 -0.27116388
v -0.17112723 0.00000000 -0.27606252
v 0.16330251 0.18589845 -0.71543103
v 0.00005958 0.03699751 -0.54046929
v -0.16240087 0.18436782 -0.71505421
v 0.59848028 0.19072330 -0.43269446
v 0.70764542 0.17648970 -0.16403760
v 0.26162151 0.44491583 -0.86686897
v 0.42957067 0.29131180 -0.69504380
v 0.86466950 0.61889488 -0.43490395
v 0.69152695 0.45406333 -0.59076321
v 0.70313406 0.71769321 -0.69495207
v 0.85721958 0.35312229 -0.00027220
v 0.96294183 0.87800300 -0.27357358
v 0.95307887 0.61561579 -0.16262548
v 0.95265239 0.61538309 0.16259998
v 0.96259952 0.87777752 0.27349931
v 0.26332951 0.71570933 0.95249373
v 0.52627635 0.87791383 0.85130847
v 0.26306093 1.04019403 0.95178676
v -0.59760588 0.19065869 0.43270266
v -0.43050948 0.29125318 0.69618839
v -0.69171321 0.45329061 0.59077591
v -0.43060237 0.29135972 -0.69762868
v -0.59910309 0.19221328 -0.43243501
v -0.69185048 0.45354775 -0.59085679
v 0.52618510 0.87792200 -0.85141528
v 0.26330262 0.71590948 -0.95264626
v 0.26307589 1.04031634 -0.95169926
v 0.95154101 1.14055955 0.16255167
v 0.95151401 1.14059925 -0.16253777
v 0.85090137 1.40336847 -0.00000750
v -0.61577845 1.66151404 0.08111702
v -0.57137096 1.67032123 0.21307607
v -0.48452911 1.74257410 0.13122968
v -0.70737648 1.47922504 0.37187424
v -0.64757669 1.58001447 0.29610714
v -0.75886595 1.48448169 0.23714674
v -0.37511814 1.72155428 0.38370144
v -0.51622510 1.66111386 0.34624523
v -0.45408919 1.63559818 0.46855268
v -0.78445631 0.95894170 0.61603010
v -0.79309839 1.09082067 0.57154703
v -0.86548644 1.00897276 0.48471853
v -0.60177147 1.24946952 0.70738006
v -0.70263821 1.17374241 0.64767766
v -0.60710865 1.11485100 0.75891018
v -0.84430170 1.26132107 0.37521455
v -0.78380936 1.22389674 0.51634592
v -0.75822568 1.34610593 0.45413619
v -0.08110541 1.49336326 0.78406858
v -0.21308713 1.44896519 0.79292339
v -0.13123988 1.36218905 0.86530048
v -0.37183484 1.58476734 0.60165286
v -0.29608822 1.52509511 0.70250022
v -0.23713198 1.63628685 0.60696226
v -0.38377640 1.25285828 0.84430158
v -0.34628993 1.39389670 0.78375793
v -0.46863431 1.33175206 0.75825989
v -0.64682424 1.44196582 0.51358056
v -0.56447297 1.39110112 0.64680105
v -0.51351076 1.52426553 0.56440479
v -0.35829175 1.80191982 0.13168697
v -0.40341669 1.79264951 0.00000749
v -0.23870590 1.76863515 0.38627589
v -0.30131379 1.79385984 0.26413471
v -0.13796932 1.86807466 -0.00000259
v -0.22014268 1.84398890 0.13281173
v -0.08224909 1.86531520 0.13308479
v 0.08111267 1.49332929 0.78402275
v 0.00001375 1.58057070 0.71143317
v 0.15646140 1.71777606 0.51935685
v 0.08116746 1.65782523 0.62035006
v 0.23713830 1.63627148 0.60695630
v -0.08113333 1.65782678 0.62035936
v -0.15644820 1.71782005 0.51937294
v 0.40343180 1.79261577 0.00000250
v 0.35829893 1.80189037 0.13168214
v 0.48451820 1.74252558 0.13121966
v 0.08226493 1.86528659 0.13309138
v 0.22016466 1.84401906 0.13281955
v 0.13798253 1.86806619 -0.00000013
v 0.37512383 1.72151923 0.38368180
v 0.30133316 1.79387486 0.26414102
v 0.23871921 1.76861310 0.38626340
v -0.08232297 1.79061246 0.39970249
v 0.08233043 1.79058123 0.39966586
v 0.00000716 1.84148562 0.26645216
v -0.35827893 1.80191517 -0.13167757
v -0.48452720 1.74257040 -0.13122468
v -0.08225091 1.86528945 -0.13309793
v -0.22014914 1.84401095 -0.13282126
v -0.37510875 1.72156477 -0.38369456
v -0.30130303 1.79386187 -0.26412666
v -0.23871581 1.76863599 -0.38625601
v 0.48453295 1.74254429 -0.13122390
v 0.35830277 1.80190301 -0.13167265
v 0.23872447 1.76860452 -0.38625440
v 0.30131441 1.79383779 -0.26413283
v 0.37510827 1.72150993 -0.38368762
v 0.22015271 1.84399951 -0.13281567
v 0.08225619 1.86529493 -0.13310015
v -0.08109751 1.49329543 -0.78403777
v 0.00001031 1.58052635 -0.71146601
v 0.08112499 1.49324203 -0.78402275
v -0.15645018 1.71779799 -0.51936525
v -0.08113290 1.65783560 -0.62038201
v -0.23712225 1.63629675 -0.60695565
v 0.23714972 1.63624895 -0.60694474
v 0.08118404 1.65784836 -0.62038410
v 0.15647902 1.71777284 -0.51934558
v 0.00000267 1.84146333 -0.26645094
v 0.08234799 1.79058850 -0.39966804
v -0.08233277 1.79060256 -0.39968541
v -0.57136101 1.67031419 -0.21307445
v -0.61578554 1.66151476 -0.08109799
v -0.45408472 1.63559270 -0.46853688
v -0.51623464 1.66113794 -0.34623921
v -0.75890249 1.48455906 -0.23717478
v -0.64758128 1.58000267 -0.29608721
v -0.70734936 1.47921729 -0.37185961
v -0.13123612 1.36216438 -0.86521959
v -0.21307297 1.44892037 -0.79289401
v -0.46858761 1.33169675 -0.75819629
v -0.34623566 1.39381838 -0.78370064
v -0.38377589 1.25279438 -0.84424198
v -0.29606518 1.52509141 -0.70251244
v -0.37181878 1.58479297 -0.60165173
v -0.86559355 1.00904453 -0.48482057
v -0.79317027 1.09089231 -0.57165331
v -0.78440839 0.95895016 -0.61616951
v -0.75820869 1.34616733 -0.45418546
v -0.78383756 1.22395885 -0.51638919
v -0.84430563 1.26138127 -0.37519750
v -0.60715240 1.11486506 -0.75913066
v -0.70268315 1.17377806 -0.64777994
v -0.60175568 1.24943078 -0.70743477
v -0.51349759 1.52425730 -0.56442863
v -0.56446850 1.39107990 -0.64684027
v -0.64676821 1.44195068 -0.51352704
v -0.70309985 1.58898389 0.00000998
v -0.84051949 1.39700806 -0.15650308
v -0.78044671 1.49794209 -0.08115869
v -0.78041452 1.49790609 0.08115833
v -0.84045851 1.39695513 0.15647830
v -0.91588384 0.87788934 -0.40374306
v -0.92500645 1.00948191 -0.35846207
v -0.98840934 1.01083505 -0.08225638
v -0.96701467 1.01052678 -0.22024092
v -0.99134427 0.87779778 -0.13805778
v -0.91670150 1.14184296 -0.30139589
v -0.89140207 1.26393974 -0.23877141
v -0.92500466 1.00945663 0.35849193
v -0.91597652 0.87787467 0.40373477
v -0.89144945 1.26394081 0.23879290
v -0.91676748 1.14184642 0.30142343
v -0.99126089 0.87776500 0.13805301
v -0.96709424 1.01049924 0.22028106
v -0.98828161 1.01077747 0.08233132
v -0.91345155 1.27735603 -0.08235762
v -0.96443057 1.14414740 0.00003201
v -0.91342324 1.27735174 0.08236004
v 0.57135373 1.67028069 0.21306138
v 0.61573529 1.66144359 0.08108848
v 0.45408872 1.63555908 0.46854079
v 0.51622492 1.66108429 0.34622547
v 0.75883394 1.48444879 0.23713298
v 0.64756119 1.57994866 0.29607639
v 0.70730001 1.47914600 0.37183273
v 0.13125663 1.36213458 0.86532974
v 0.21309160 1.44887722 0.79287517
v 0.46864647 1.33179557 0.75830007
v 0.34625509 1.39378357 0.78373939
v 0.38379723 1.25271153 0.84429443
v 0.29605657 1.52502644 0.70248520
v 0.37181905 1.58472097 0.60162097
v 0.86549032 1.00890684 0.48468217
v 0.79307747 1.09070492 0.57147688
v 0.78445184 0.95890939 0.61606658
v 0.75821233 1.34611976 0.45410779
v 0.78382802 1.22385573 0.51632571
v 0.84425747 1.26132226 0.37517473
v 0.60724956 1.11490309 0.75911075
v 0.70266759 1.17371380 0.64763111
v 0.60188937 1.24957240 0.70747066
v 0.51352084 1.52421665 0.56440794
v 0.56447101 1.39110386 0.64677620
v 0.64677250 1.44192147 0.51350015
v -0.13169739 1.23599589 0.92478836
v 0.00002906 1.28107738 0.91546470
v -0.38639617 1.11650932 0.89149994
v -0.26422253 1.17909682 0.91674298
v 0.00000341 1.01575959 0.99114996
v -0.13284527 1.09788251 0.96697837
v -0.13315558 0.96003485 0.98850441
v -0.78494787 0.79694384 0.61627358
v -0.71208674 0.87801880 0.70352197
v -0.52025461 0.72175992 0.84174120
v -0.62110728 0.79702675 0.78108752
v -0.60843575 0.64135009 0.76050121
v -0.62066323 0.95901597 0.78067017
v -0.51959008 1.03427565 0.84064680
v 0.00016930 0.47546703 0.91878438
v -0.13197200 0.52059215 0.92741805
v -0.13196000 0.39433122 0.87063110
v -0.13312289 0.79575467 0.98895633
v -0.13288687 0.65818268 0.96857643
v 0.00005540 0.74016780 0.99201477
v -0.38554436 0.50393051 0.84758592
v -0.26483378 0.57745034 0.91919696
v -0.38703290 0.63979429 0.89317411
v -0.39996448 0.96021008 0.91375822
v -0.40021807 0.79580063 0.91441953
v -0.26665300 0.87798119 0.96504545
v -0.92546409 0.74640644 0.35860854
v -0.86611593 0.74676836 0.48497695
v -0.98903185 0.74498671 0.08240335
v -0.96763951 0.74520552 0.22043513
v -0.84716642 0.49511716 0.37641433
v -0.91794103 0.61416745 0.30191654
v -0.89396006 0.49265072 0.23942387
v -0.86609870 0.74693906 -0.48516497
v -0.92565453 0.74642974 -0.35881051
v -0.89452201 0.49274039 -0.23961708
v -0.91827977 0.61436206 -0.30184340
v -0.84710640 0.49520007 -0.37633172
v -0.96786058 0.74525172 -0.22044952
v -0.98909765 0.74492025 -0.08236641
v -0.63221031 0.09673454 0.08220774
v -0.71632481 0.16924332 0.00032606
v -0.63279730 0.09870800 -0.08329139
v -0.84605253 0.36049783 0.15717472
v -0.78982079 0.25954503 0.08233917
v -0.76814884 0.27262878 0.23927642
v -0.76794773 0.27248901 -0.23991708
v -0.79095453 0.25928447 -0.08211551
v -0.84636092 0.36017346 -0.15774566
v -0.96593040 0.61199462 0.00000092
v -0.91649002 0.47945791 -0.08285552
v -0.91663218 0.47952396 0.08240985
v -0.71191102 0.87798941 -0.70356143
v -0.78479153 0.79695505 -0.61645085
v -0.51963711 1.03410983 -0.84065568
v -0.62068832 0.95893019 -0.78070438
v -0.60816997 0.64129812 -0.76040667
v -0.62095505 0.79684973 -0.78118026
v -0.52002054 0.72160816 -0.84148318
v 0.00003961 1.28110468 -0.91537732
v -0.13167308 1.23601472 -0.92471027
v -0.13320322 0.96012819 -0.98842794
v -0.13287219 1.09795117 -0.96697468
v -0.00001907 1.01587033 -0.99116510
v -0.26420671 1.17904043 -0.91675335
v -0.38645431 1.11648571 -0.89151096
v -0.13218282 0.39440739 -0.87098330
v -0.13232405 0.52043015 -0.92764705
v 0.00005467 0.47578081 -0.91925389
v -0.38683307 0.63957703 -0.89283806
v -0.26476106 0.57734573 -0.91879886
v -0.38517183 0.50367522 -0.84744763
v 0.00001006 0.74026263 -0.99197096
v -0.13297455 0.65819943 -0.96787935
v -0.13324220 0.79580069 -0.98885399
v -0.39993671 0.96022671 -0.91378033
v -0.26664415 0.87792414 -0.96470618
v -0.40012407 0.79573029 -0.91421711
v 0.21310073 1.44888008 -0.79284692
v 0.13126659 1.36210895 -0.86518681
v 0.37184715 1.58471382 -0.60163629
v 0.29608676 1.52502620 -0.70247781
v 0.38375777 1.25269592 -0.84418279
v 0.34626123 1.39372575 -0.78364515
v 0.46857759 1.33163846 -0.75814980
v 0.61575532 1.66145790 -0.08110747
v 0.57136518 1.67027509 -0.21306054
v 0.70730585 1.47913969 -0.37182745
v 0.64756233 1.57993054 -0.29606602
v 0.75885087 1.48444796 -0.23713447
v 0.51622921 1.66105664 -0.34620652
v 0.45408514 1.63555491 -0.46854234
v 0.78443390 0.95905209 -0.61611813
v 0.79315484 1.09090495 -0.57163495
v 0.86555827 1.00911856 -0.48480478
v 0.60172153 1.24943697 -0.70734638
v 0.70261890 1.17369246 -0.64771450
v 0.60712814 1.11488283 -0.75906217
v 0.84419239 1.26130164 -0.37517190
v 0.78381234 1.22388768 -0.51634842
v 0.75814855 1.34611523 -0.45412919
v 0.51349527 1.52417171 -0.56438935
v 0.64673853 1.44189310 -0.51351130
v 0.56442302 1.39102161 -0.64675808
v 0.63172758 0.09831671 0.08367602
v 0.58867180 0.08937965 0.22039343
v 0.50549841 0.02762691 0.13646552
v 0.71553338 0.27830881 0.37611425
v 0.66039252 0.17797311 0.30151108
v 0.76804614 0.27236316 0.23948306
v 0.38954473 0.04321288 0.39503175
v 0.53142166 0.09877004 0.35649797
v 0.46699628 0.12315850 0.48104140
v 0.78475797 0.79691875 0.61635751
v 0.79430610 0.66529232 0.57236969
v 0.86616969 0.74687004 0.48508269
v 0.60387373 0.50722957 0.70980775
v 0.70436138 0.58268893 0.64913231
v 0.60830146 0.64142209 0.76034296
v 0.84675193 0.49527451 0.37642619
v 0.78580511 0.53268516 0.51744252
v 0.76220876 0.41034466 0.45677570
v 0.08171456 0.26376274 0.79237062
v 0.21510847 0.30865660 0.80087954
v 0.13189283 0.39475772 0.87023288
v 0.37825778 0.17185219 0.61329597
v 0.30008897 0.23289470 0.71311277
v 0.24383716 0.12236432 0.62074959
v 0.38474652 0.50387442 0.84731060
v 0.34890375 0.36343357 0.78919756
v 0.47104838 0.42535102 0.76225853
v 0.65284050 0.31477231 0.51875222
v 0.56857467 0.36610627 0.65170425
v 0.52038246 0.23357829 0.57349509
v 0.37368140 0.00000000 0.13648322
v 0.41582307 0.00000000 0.00234573
v 0.24829169 0.00978178 0.40033537
v 0.31407049 0.00000000 0.27276158
v 0.14403442 0.00000000 -0.00165077
v 0.22927740 0.00000000 0.13930599
v 0.08789281 0.00000000 0.13631031
v -0.08279589 0.26344275 0.79242796
v 0.00054640 0.17706507 0.72432363
v -0.16159216 0.04652238 0.53623742
v -0.08378880 0.10274465 0.63690656
v -0.24230894 0.12209291 0.61860287
v 0.08386780 0.10020430 0.63863939
v 0.16287021 0.04611987 0.53706747
v -0.42165366 0.00000000 0.00143664
v -0.37707037 0.00000000 0.14053811
v -0.50418746 0.02675876 0.13531792
v -0.08760226 0.00000000 0.13580240
v -0.23354663 0.00000000 0.14429209
v -0.14667229 0.00000000 -0.00074898
v -0.38561055 0.04138578 0.39448661
v -0.31477031 0.00000000 0.27849063
v -0.24832794 0.00580389 0.40126932
v 0.08284026 0.00000000 0.41761279
v -0.08666621 0.00036657 0.41754171
v 0.00136768 0.00000000 0.27459663
v 0.37323871 0.00000000 -0.13704018
v 0.50025827 0.02782790 -0.13530172
v 0.08634423 0.00000000 -0.14199369
v 0.23261982 0.00000000 -0.13819648
v 0.38828042 0.04283871 -0.39843202
v 0.31349719 0.00000000 -0.27624726
v 0.24832174 0.00594278 -0.40103984
v -0.50287741 0.02847802 -0.13644496
v -0.37307456 0.00000000 -0.13690779
v -0.24760608 0.01246247 -0.39895788
v -0.31758532 0.00000000 -0.27225572
v -0.38738307 0.04346474 -0.39726835
v -0.23363163 0.00000000 -0.14119948
v -0.08772817 0.00000000 -0.14555876
v 0.08205882 0.26426780 -0.79353124
v -0.00004350 0.17560478 -0.72453094
v -0.08173731 0.26351345 -0.79276419
v 0.16205087 0.04467436 -0.53677303
v 0.08261488 0.10211217 -0.63384175
v 0.24172612 0.12226881 -0.62320745
v -0.24248831 0.12420488 -0.62285680
v -0.08263461 0.09827813 -0.63721216
v -0.16227047 0.04865064 -0.53610414
v 0.00395430 0.00000000 -0.28260487
v -0.08308380 0.00000000 -0.41433036
v 0.08951882 0.00000000 -0.41001666
v 0.58786756 0.08828091 -0.21806003
v 0.63342720 0.09621971 -0.08252831
v 0.46600062 0.12176241 -0.47957245
v 0.52877069 0.09623972 -0.35394099
v 0.76859069 0.27253759 -0.24020657
v 0.65925515 0.17678909 -0.30139214
v 0.71538651 0.27841187 -0.37575641
v 0.13253866 0.39467272 -0.87163299
v 0.21548434 0.30839318 -0.80022007
v 0.47109222 0.42513710 -0.76182407
v 0.34897050 0.36303535 -0.78899759
v 0.38523266 0.50370377 -0.84707767
v 0.29999247 0.23212457 -0.71200639
v 0.37815690 0.17204523 -0.61273813
v 0.86623091 0.74717587 -0.48522192
v 0.79412925 0.66564226 -0.57245773
v 0.78483528 0.79719520 -0.61652571
v 0.76285255 0.41107658 -0.45708746
v 0.78596890 0.53293407 -0.51796061
v 0.84772909 0.49581826 -0.37665591
v 0.60813576 0.64136946 -0.76029587
v 0.70411944 0.58269322 -0.64915586
v 0.60357583 0.50727886 -0.70957655
v 0.51969439 0.23191391 -0.57228100
v 0.56814861 0.36579984 -0.65108985
v 0.65213889 0.31557375 -0.51818699
v 0.71673864 0.16777629 -0.00040828
v 0.84669143 0.35997236 -0.15763566
v 0.78995800 0.25859863 -0.08247582
v 0.79063869 0.25851211 0.08144522
v 0.84654522 0.35933992 0.15717061
v 0.91594046 0.87806517 -0.40376669
v 0.92563462 0.74652481 -0.35872889
v 0.98908937 0.74513358 -0.08230045
v 0.96785516 0.74545568 -0.22039998
v 0.99149001 0.87810040 -0.13808128
v 0.91838431 0.61437106 -0.30185670
v 0.89491582 0.49289531 -0.23950204
v 0.92539656 0.74631208 0.35861427
v 0.91575760 0.87779164 0.40364140
v 0.89425212 0.49264839 0.23930693
v 0.91790360 0.61408740 0.30165255
v 0.99128008 0.87789780 0.13822117
v 0.96744084 0.74515629 0.22032918
v 0.98911369 0.74510652 0.08237102
v 0.91659677 0.47930571 -0.08249677
v 0.96555609 0.61203057 0.00006298
v 0.91639233 0.47903669 0.08256797
v 0.13202949 0.52062845 0.92772216
v 0.38704431 0.63976127 0.89272165
v 0.26471350 0.57747060 0.91886026
v 0.13305306 0.65825367 0.96830958
v 0.13328633 0.79572093 0.98890144
v 0.71198726 0.87795144 0.70346707
v 0.51972401 1.03426194 0.84072220
v 0.62074614 0.95889157 0.78067154
v 0.62109160 0.79694396 0.78107154
v 0.52020454 0.72180426 0.84151107
v 0.13170290 1.23580861 0.92469609
v 0.13321160 0.95998371 0.98850733
v 0.13284916 1.09778929 0.96701908
v 0.26423171 1.17894375 0.91682774
v 0.38643959 1.11638486 0.89152867
v 0.40000674 0.79559481 0.91376102
v 0.40000159 0.96016330 0.91377455
v 0.26667264 0.87780172 0.96472907
v -0.58546120 0.09002463 0.21835066
v -0.46351147 0.12103732 0.47849160
v -0.52870840 0.09777504 0.35526091
v -0.65980798 0.17731678 0.30179417
v -0.71466506 0.27757517 0.37608609
v -0.21606615 0.30842206 0.80102533
v -0.47197750 0.42504752 0.76295471
v -0.34948957 0.36340722 0.79009372
v -0.30070040 0.23227881 0.71211678
v -0.37887999 0.17215395 0.61287892
v -0.79421699 0.66520494 0.57221663
v -0.76244670 0.41012341 0.45673427
v -0.78602463 0.53213513 0.51767671
v -0.70459205 0.58249849 0.64902550
v -0.60420322 0.50692570 0.71040303
v -0.52122021 0.23209511 0.57196349
v -0.56922662 0.36521316 0.65168953
v -0.65212667 0.31447539 0.51803017
v -0.21493459 0.30774602 -0.80033118
v -0.37943977 0.17352140 -0.61285412
v -0.30086759 0.23097356 -0.71426696
v -0.34861356 0.36299810 -0.78996938
v -0.47120905 0.42512742 -0.76259017
v -0.58866870 0.09074347 -0.21891788
v -0.71610159 0.27804077 -0.37599552
v -0.66054869 0.17772542 -0.30176255
v -0.52982974 0.09824666 -0.35528117
v -0.46706596 0.12319763 -0.48052591
v -0.79420948 0.66525078 -0.57237840
v -0.60370034 0.50722748 -0.70978701
v -0.70443940 0.58244687 -0.64939010
v -0.78632319 0.53261471 -0.51799124
v -0.76232606 0.41088679 -0.45652848
v -0.52133429 0.23334999 -0.57247680
v -0.65323526 0.31483319 -0.51875240
v -0.56859422 0.36577430 -0.65207672
v 0.71196491 0.87803948 -0.70365345
v 0.52009910 0.72180587 -0.84155250
v 0.62097269 0.79705471 -0.78121704
v 0.62068635 0.95905507 -0.78078049
v 0.51954603 1.03420913 -0.84064877
v 0.13234784 0.52090651 -0.92806917
v 0.13321982 0.79584390 -0.98881006
v 0.13314071 0.65846515 -0.96863496
v 0.26494557 0.57745141 -0.91904992
v 0.38705704 0.63974386 -0.89293849
v 0.13173833 1.23593998 -0.92466223
v 0.38639277 1.11638236 -0.89137292
v 0.26422590 1.17895842 -0.91659129
v 0.13288185 1.09793401 -0.96694356
v 0.13312876 0.96017051 -0.98854464
v 0.40010861 0.79576373 -0.91408741
v 0.26663610 0.87801492 -0.96474218
v 0.39991578 0.96008539 -0.91358095
v 0.92483717 1.00936604 0.35842618
v 0.98834193 1.01088023 0.08242091
v 0.96688712 1.01049376 0.22027284
v 0.91676766 1.14181817 0.30142894
v 0.89140576 1.26390636 0.23873831
v 0.92496121 1.00951004 -0.35847768
v 0.89131331 1.26386404 -0.23876187
v 0.91669375 1.14185214 -0.30140549
v 0.96708059 1.01066267 -0.22032198
v 0.98841751 1.01097596 -0.08222527
v 0.70307600 1.58891845 -0.00001852
v 0.84043360 1.39693236 0.15645663
v 0.78040218 1.49787724 0.08114808
v 0.78039241 1.49785459 -0.08115607
v 0.84042710 1.39688444 -0.15647256
v 0.96436894 1.14415896 0.00002437
v 0.91331166 1.27725959 -0.08236159
v 0.91334623 1.27728307 0.08234524
f 330 87 329
f 336 325 26
f 207 208 56
f 464 36 580
f 502 129 504
f 157 624 622
f 308 311 82
f 247 223 248
f 507 483 508
f 331 88 329
f 494 500 497
f 156 601 602
f 591 589 592
f 365 98 596
f 75 281 282
f 152 587 577
f 149 559 560
f 555 121 553
f 530 141 529
f 515 517 139
f 361 594 98
f 250 67 249
f 157 608 609
f 294 293 209
f 317 81 316
f 557 338 26
f 303 305 81
f 530 529 528
f 101 381 382
f 415 418 111
f 192 184 50
f 412 110 411
f 20 384 256
f 131 594 486
f 281 264 282
f 347 287 348
f 28 349 582
f 165 163 1
f 248 250 66
f 617 107 398
f 273 271 274
f 456 115 453
f 558 561 560
f 335 576 91
f 331 177 332
f 116 433 436
f 351 370 92
f 136 511 530
f 239 240 65
f 247 258 19
f 304 23 567
f 148 557 570
f 214 208 58
f 440 426 450
f 268 270 269
f 258 247 268
f 204 202 16
f 466 125 465
f 517 513 133
f 168 275 274
f 275 73 274
f 198 193 53
f 309 308 307
f 510 511 136
f 415 416 110
f 131 490 597
f 473 475 474
f 414 415 111
f 493 495 494
f 496 504 485
f 433 116 432
f 600 375 601
f 240 234 65
f 418 415 412
f 486 361 3
f 567 566 304
f 380 393 29
f 17 199 197
f 491 492 132
f 451 449 435
f 218 217 216
f 623 621 613
f 396 104 395
f 433 439 436
f 628 160 627
f 215 202 217
f 209 207 2
f 427 113 424
f 434 10 544
f 434 433 432
f 199 17 210
f 150 564 565
f 489 491 132
f 275 13 285
f 497 500 134
f 125 466 476
f 578 152 577
f 208 214 211
f 328 88 343
f 356 27 603
f 150 566 567
f 372 100 371
f 190 191 47
f 235 8 398
f 260 261 72
f 422 403 414
f 422 414 111
f 453 454 123
f 349 583 582
f 521 520 519
f 425 453 115
f 616 622 158
f 483 130 508
f 151 586 572
f 212 17 232
f 400 397 402
f 377 396 99
f 41 522 511
f 510 508 505
f 549 547 42
f 475 473 36
f 510 137 509
f 222 221 197
f 430 115 429
f 220 194 1
f 305 54 204
f 621 29 613
f 192 171 184
f 460 335 5
f 88 331 332
f 74 277 279
f 300 301 80
f 390 389 388
f 165 45 164
f 146 549 551
f 291 278 75
f 448 120 445
f 147 543 544
f 607 610 609
f 603 602 356
f 139 529 514
f 333 553 443
f 92 368 347
f 261 260 259
f 300 6 200
f 46 177 331
f 284 283 174
f 301 300 200
f 471 468 474
f 54 305 301
f 302 304 303
f 569 150 567
f 150 569 570
f 294 209 2
f 628 629 160
f 548 543 147
f 147 625 627
f 63 233 234
f 426 427 114
f 41 509 532
f 198 52 196
f 614 105 612
f 147 627 547
f 81 305 306
f 549 548 547
f 54 301 200
f 342 88 332
f 264 281 70
f 193 194 53
f 455 429 456
f 187 321 14
f 479 130 484
f 147 544 625
f 458 456 453
f 304 80 303
f 314 84 313
f 488 503 501
f 321 332 14
f 423 425 424
f 305 204 306
f 341 339 25
f 514 40 516
f 625 628 627
f 340 339 341
f 105 614 391
f 243 228 62
f 318 316 78
f 75 278 279
f 357 355 353
f 238 257 63
f 466 455 476
f 425 423 4
f 448 449 120
f 408 638 108
f 292 275 285
f 22 278 289
f 515 513 517
f 501 503 134
f 622 623 158
f 134 503 504
f 195 216 206
f 163 271 246
f 619 617 620
f 62 228 229
f 163 165 164
f 453 425 454
f 489 132 488
f 82 628 625
f 58 208 209
f 525 608 40
f 626 547 627
f 518 517 498
f 489 487 491
f 557 26 564
f 325 336 344
f 541 145 539
f 40 616 516
f 338 556 89
f 250 248 245
f 139 514 515
f 98 594 596
f 246 220 1
f 112 413 630
f 9 536 413
f 156 600 601
f 332 177 14
f 321 342 332
f 156 606 600
f 584 330 585
f 302 303 81
f 584 87 330
f 330 25 585
f 400 239 65
f 439 440 117
f 95 358 368
f 597 594 131
f 594 361 486
f 246 67 245
f 561 562 149
f 28 364 362
f 55 216 217
f 427 430 114
f 267 20 254
f 556 555 553
f 84 309 558
f 311 310 312
f 609 525 142
f 256 68 255
f 124 460 461
f 82 311 312
f 307 308 82
f 589 135 495
f 527 40 514
f 112 418 412
f 20 256 254
f 258 238 19
f 267 254 269
f 273 272 249
f 392 391 393
f 137 533 509
f 122 455 456
f 9 413 411
f 130 480 505
f 333 443 5
f 527 525 40
f 589 495 385
f 39 496 485
f 223 225 224
f 414 416 415
f 219 222 53
f 145 538 539
f 413 412 411
f 469 468 467
f 183 181 6
f 191 192 50
f 429 35 431
f 292 285 76
f 413 112 412
f 415 110 412
f 43 164 167
f 467 468 126
f 617 101 620
f 450 451 117
f 438 546 545
f 619 620 159
f 17 212 210
f 124 579 576
f 584 153 583
f 460 124 576
f 3 469 467
f 311 308 314
f 6 320 183
f 389 104 388
f 251 250 249
f 194 165 1
f 291 289 278
f 287 77 348
f 238 258 257
f 139 517 518
f 238 236 19
f 223 247 19
f 382 380 29
f 39 518 498
f 361 359 3
f 69 255 257
f 139 518 528
f 33 545 535
f 387 385 7
f 69 268 269
f 477 462 125
f 454 479 123
f 121 555 447
f 451 435 117
f 454 425 4
f 233 252 8
f 124 463 464
f 69 258 268
f 168 167 166
f 583 153 582
f 384 394 102
f 138 512 513
f 57 210 211
f 254 256 255
f 607 609 142
f 324 319 86
f 289 291 76
f 291 292 76
f 384 102 383
f 422 421 420
f 221 17 197
f 383 102 381
f 376 377 99
f 99 373 374
f 386 105 392
f 438 33 440
f 90 341 343
f 281 75 279
f 574 571 96
f 628 82 312
f 221 222 59
f 127 471 474
f 595 605 603
f 551 538 145
f 334 91 340
f 322 324 85
f 305 303 301
f 18 239 399
f 306 204 16
f 199 198 197
f 166 190 180
f 303 80 301
f 267 266 265
f 626 42 547
f 16 215 213
f 349 351 350
f 295 16 213
f 68 379 252
f 250 251 66
f 627 160 626
f 383 68 256
f 343 88 342
f 507 508 136
f 202 215 16
f 197 198 53
f 254 69 269
f 603 605 156
f 418 419 111
f 384 383 256
f 455 122 476
f 203 204 54
f 556 557 148
f 255 68 253
f 313 84 560
f 25 328 341
f 254 255 69
f 603 156 602
f 581 584 583
f 630 632 112
f 163 246 1
f 246 245 220
f 432 116 558
f 499 591 590
f 320 563 86
f 345 93 350
f 306 16 295
f 346 93 345
f 562 568 149
f 604 605 155
f 154 592 593
f 545 552 535
f 511 522 530
f 574 573 571
f 566 150 565
f 361 98 360
f 67 271 273
f 234 235 65
f 208 211 56
f 574 151 573
f 251 270 66
f 398 8 378
f 213 215 214
f 438 440 439
f 315 314 313
f 263 71 262
f 20 373 384
f 496 134 504
f 329 88 328
f 81 306 316
f 555 556 148
f 592 589 103
f 617 619 107
f 227 207 56
f 571 359 96
f 446 466 465
f 206 216 55
f 359 571 469
f 568 148 570
f 34 437 435
f 28 351 349
f 21 272 282
f 113 423 424
f 490 489 488
f 379 68 383
f 210 212 211
f 80 563 300
f 351 92 350
f 326 346 12
f 83 317 318
f 555 148 554
f 212 231 56
f 218 57 217
f 271 67 246
f 195 196 52
f 270 268 66
f 390 592 103
f 148 568 554
f 495 493 7
f 592 390 593
f 357 95 355
f 574 575 151
f 452 120 451
f 154 591 592
f 587 585 577
f 395 394 396
f 93 349 350
f 610 416 611
f 166 44 190
f 315 23 302
f 315 302 317
f 268 247 66
f 606 154 593
f 396 394 99
f 211 212 56
f 370 369 368
f 235 397 65
f 280 278 22
f 83 315 317
f 575 588 151
f 74 279 280
f 385 495 7
f 63 257 253
f 397 235 398
f 214 58 213
f 220 219 194
f 546 146 545
f 236 225 19
f 599 94 602
f 235 233 8
f 102 394 395
f 611 416 32
f 225 223 19
f 139 528 529
f 231 62 229
f 419 406 421
f 451 450 452
f 49 182 185
f 402 397 107
f 52 199 218
f 416 610 110
f 225 236 244
f 107 397 398
f 68 252 253
f 322 85 321
f 182 181 183
f 118 438 439
f 546 438 118
f 348 77 345
f 543 546 118
f 231 212 232
f 610 611 157
f 33 438 545
f 385 386 103
f 479 480 130
f 169 195 15
f 93 583 349
f 15 195 206
f 190 44 192
f 247 248 66
f 146 552 545
f 248 60 245
f 570 557 564
f 274 271 43
f 63 253 233
f 272 21 249
f 507 528 518
f 67 273 249
f 487 467 126
f 196 195 169
f 624 159 623
f 134 496 497
f 132 503 488
f 104 393 395
f 556 553 89
f 355 356 94
f 258 69 257
f 229 61 227
f 56 231 227
f 460 576 335
f 463 124 461
f 394 373 99
f 29 393 391
f 67 250 245
f 193 198 196
f 462 36 464
f 144 633 630
f 141 526 527
f 517 133 498
f 536 144 630
f 100 372 599
f 144 536 537
f 22 289 287
f 578 579 152
f 579 578 576
f 189 188 187
f 60 223 224
f 92 348 350
f 555 554 447
f 396 377 388
f 194 193 165
f 413 536 630
f 372 352 599
f 377 376 375
f 348 345 350
f 105 386 387
f 240 237 234
f 463 462 464
f 135 500 494
f 45 196 169
f 512 612 387
f 245 60 220
f 429 115 456
f 223 60 248
f 288 289 76
f 525 526 142
f 100 599 601
f 613 29 391
f 526 523 520
f 341 328 343
f 631 641 639
f 264 21 282
f 266 72 265
f 106 402 403
f 73 273 274
f 186 206 205
f 381 379 383
f 52 216 195
f 410 18 399
f 290 272 73
f 72 371 374
f 526 525 527
f 115 430 424
f 498 497 496
f 621 382 29
f 543 118 434
f 214 215 57
f 522 141 530
f 511 510 509
f 352 94 599
f 493 512 7
f 90 340 341
f 169 171 170
f 605 604 606
f 219 60 224
f 104 389 392
f 359 469 3
f 186 49 185
f 222 219 224
f 166 167 44
f 428 427 426
f 523 522 524
f 129 502 481
f 50 185 188
f 164 45 170
f 425 115 424
f 33 428 426
f 427 428 113
f 94 356 602
f 515 138 513
f 114 431 452
f 237 236 238
f 215 217 57
f 95 354 355
f 220 60 219
f 515 514 516
f 183 320 319
f 222 197 53
f 559 569 567
f 300 320 6
f 435 436 117
f 96 360 363
f 640 642 641
f 242 243 62
f 140 537 519
f 508 130 505
f 420 410 399
f 537 539 144
f 317 316 318
f 426 114 450
f 186 15 206
f 311 83 310
f 625 544 307
f 544 10 307
f 168 43 167
f 185 182 188
f 369 354 95
f 44 171 192
f 605 606 156
f 548 549 146
f 100 601 375
f 149 568 569
f 381 380 382
f 455 466 35
f 480 479 454
f 543 548 546
f 493 133 513
f 492 472 37
f 477 125 476
f 491 487 126
f 337 336 338
f 588 153 587
f 576 578 91
f 633 161 632
f 96 359 360
f 39 485 483
f 101 617 378
f 193 45 165
f 163 164 43
f 618 624 611
f 507 136 528
f 561 149 560
f 641 162 639
f 116 561 558
f 494 133 493
f 253 252 233
f 63 237 238
f 392 393 104
f 440 450 117
f 93 581 583
f 386 385 387
f 120 449 451
f 421 422 111
f 486 3 467
f 302 81 317
f 633 632 630
f 462 475 36
f 376 99 374
f 489 490 131
f 447 449 448
f 387 612 105
f 106 420 399
f 173 46 172
f 492 491 472
f 316 306 295
f 22 287 347
f 109 410 420
f 507 39 483
f 559 23 313
f 214 57 211
f 196 45 193
f 10 434 432
f 422 106 403
f 626 160 640
f 487 486 467
f 542 41 532
f 400 106 399
f 444 120 452
f 198 199 52
f 475 127 474
f 621 620 382
f 621 623 159
f 450 114 452
f 92 347 348
f 376 100 375
f 434 118 433
f 503 132 502
f 337 90 336
f 537 536 519
f 395 393 380
f 201 54 200
f 171 44 170
f 355 94 353
f 58 296 213
f 422 420 106
f 595 365 596
f 569 568 570
f 523 140 520
f 114 430 431
f 218 210 57
f 304 566 80
f 639 162 638
f 261 371 72
f 548 147 547
f 498 133 497
f 150 570 564
f 222 224 59
f 142 526 520
f 437 436 435
f 141 522 523
f 137 510 505
f 173 179 176
f 559 149 569
f 121 447 448
f 563 320 300
f 102 395 380
f 257 255 253
f 642 162 641
f 83 311 314
f 216 52 218
f 512 493 513
f 23 304 302
f 91 339 340
f 512 138 612
f 159 620 621
f 218 199 210
f 364 28 575
f 83 318 310
f 168 274 43
f 136 530 528
f 140 523 524
f 495 135 494
f 233 235 234
f 566 563 80
f 25 339 577
f 277 74 276
f 475 462 477
f 133 494 497
f 436 437 116
f 389 386 392
f 548 146 546
f 441 460 5
f 10 309 307
f 65 397 400
f 543 434 544
f 640 641 161
f 272 273 73
f 581 93 346
f 419 421 111
f 319 320 86
f 180 179 178
f 127 475 477
f 231 229 227
f 337 334 340
f 136 508 510
f 308 309 84
f 237 63 234
f 447 554 34
f 252 379 378
f 315 83 314
f 608 622 616
f 338 336 26
f 337 338 89
f 13 275 168
f 209 208 207
f 436 439 117
f 628 312 629
f 360 366 363
f 364 574 96
f 359 361 360
f 466 446 35
f 500 501 134
f 406 109 421
f 135 589 591
f 601 599 602
f 340 90 337
f 481 492 37
f 522 41 524
f 78 316 295
f 131 486 487
f 403 32 414
f 634 626 640
f 151 572 573
f 515 516 138
f 8 252 378
f 265 72 374
f 9 521 519
f 538 549 42
f 368 358 347
f 588 587 586
f 458 453 123
f 589 385 103
f 502 492 481
f 32 416 414
f 430 427 424
f 153 585 587
f 540 144 539
f 370 368 92
f 209 293 58
f 428 33 535
f 326 581 346
f 625 307 82
f 575 28 582
f 6 181 200
f 421 109 420
f 553 121 443
f 160 642 640
f 153 584 585
f 309 432 558
f 334 337 89
f 23 315 313
f 271 163 43
f 296 295 213
f 39 498 496
f 118 439 433
f 531 113 534
f 293 296 58
f 28 362 351
f 489 131 487
f 431 444 452
f 84 558 560
f 98 366 360
f 45 169 170
f 379 101 378
f 462 463 125
f 308 84 314
f 10 432 309
f 299 24 310
f 132 492 502
f 512 387 7
f 639 638 408
f 565 323 86
f 59 244 242
f 106 400 402
f 440 33 426
f 566 565 563
f 617 398 378
f 224 225 59
f 410 109 409
f 239 400 399
f 194 219 53
f 358 22 347
f 610 157 609
f 27 595 603
f 479 484 482
f 142 520 521
f 585 25 577
f 339 578 577
f 408 407 406
f 407 109 406
f 31 408 406
f 407 408 108
f 31 639 408
f 419 31 406
f 608 616 40
f 430 429 431
f 455 35 429
f 35 444 431
f 188 51 187
f 188 182 51
f 51 322 187
f 322 51 319
f 51 182 183
f 319 51 183
f 187 322 321
f 322 319 324
f 381 101 379
f 405 407 108
f 404 405 108
f 286 285 178
f 407 405 409
f 109 407 409
f 191 175 47
f 167 164 170
f 50 184 185
f 44 167 170
f 64 244 236
f 243 244 64
f 50 188 189
f 541 542 145
f 442 445 119
f 339 91 578
f 445 446 119
f 624 623 622
f 611 624 157
f 523 526 141
f 141 527 529
f 527 514 529
f 445 120 444
f 446 445 444
f 35 446 444
f 613 614 158
f 158 614 615
f 623 613 158
f 614 613 391
f 614 612 615
f 371 376 374
f 100 376 371
f 479 482 123
f 373 394 384
f 540 42 634
f 633 540 634
f 538 42 540
f 633 634 161
f 161 634 640
f 42 626 634
f 540 633 144
f 557 556 338
f 553 333 89
f 262 21 264
f 251 21 262
f 5 335 333
f 270 251 262
f 21 251 249
f 600 593 30
f 606 593 600
f 600 30 375
f 593 390 30
f 30 377 375
f 390 388 30
f 30 388 377
f 228 243 241
f 470 478 459
f 470 127 478
f 127 477 478
f 184 186 185
f 478 477 476
f 122 478 476
f 357 74 280
f 518 39 507
f 344 342 85
f 325 344 85
f 342 344 343
f 85 342 321
f 344 90 343
f 90 344 336
f 482 129 481
f 482 481 457
f 482 457 123
f 481 37 457
f 449 447 34
f 435 449 34
f 470 472 471
f 472 470 37
f 470 471 127
f 472 126 471
f 126 468 471
f 470 459 37
f 491 126 472
f 504 129 485
f 221 59 242
f 125 463 465
f 437 34 562
f 561 437 562
f 554 568 562
f 34 554 562
f 437 561 116
f 390 103 389
f 103 386 389
f 392 105 391
f 572 586 580
f 572 580 36
f 586 152 580
f 473 572 36
f 244 243 242
f 225 244 59
f 64 240 241
f 240 239 241
f 237 240 64
f 243 64 241
f 236 237 64
f 411 607 521
f 9 411 521
f 110 607 411
f 607 142 521
f 610 607 110
f 171 15 184
f 171 169 15
f 15 186 184
f 87 584 581
f 153 588 582
f 588 575 582
f 381 102 380
f 573 572 473
f 468 469 128
f 474 468 128
f 469 571 128
f 571 573 128
f 573 473 128
f 473 474 128
f 564 323 565
f 26 323 564
f 323 324 86
f 325 323 26
f 325 324 323
f 563 565 86
f 324 325 85
f 410 230 18
f 230 228 18
f 18 228 241
f 18 241 239
f 401 619 618
f 401 402 107
f 403 402 401
f 619 159 618
f 401 618 32
f 619 401 107
f 403 401 32
f 618 611 32
f 159 624 618
f 478 122 459
f 122 458 459
f 37 459 457
f 459 458 457
f 122 456 458
f 457 458 123
f 191 190 192
f 485 129 484
f 129 482 484
f 483 485 484
f 130 483 484
f 189 187 14
f 191 50 189
f 191 189 175
f 189 14 175
f 14 177 175
f 499 501 500
f 501 499 38
f 38 499 590
f 135 499 500
f 488 501 38
f 499 135 591
f 480 454 4
f 284 12 346
f 4 423 506
f 480 4 506
f 423 531 506
f 480 506 505
f 531 137 506
f 506 137 505
f 365 366 98
f 71 270 262
f 270 71 269
f 71 267 269
f 335 334 333
f 333 334 89
f 334 335 91
f 536 9 519
f 465 463 461
f 537 140 541
f 520 140 519
f 119 446 465
f 465 461 119
f 461 441 119
f 460 441 461
f 176 46 173
f 299 297 24
f 71 263 266
f 263 260 266
f 260 72 266
f 263 70 260
f 205 201 49
f 201 181 49
f 186 205 49
f 181 201 200
f 181 182 49
f 284 77 283
f 586 587 152
f 588 586 151
f 20 267 265
f 266 267 71
f 31 417 631
f 631 417 632
f 31 631 639
f 417 31 419
f 641 631 161
f 417 112 632
f 161 631 632
f 418 417 419
f 417 418 112
f 284 345 77
f 542 550 145
f 542 541 524
f 284 174 12
f 48 174 283
f 373 20 265
f 373 265 374
f 609 608 525
f 608 157 622
f 560 559 313
f 636 637 162
f 541 140 524
f 41 542 524
f 358 357 280
f 70 263 264
f 263 262 264
f 176 177 46
f 174 48 173
f 174 173 172
f 538 551 549
f 538 540 539
f 537 541 539
f 232 221 242
f 17 221 232
f 232 242 62
f 231 232 62
f 203 205 55
f 203 55 202
f 201 205 203
f 202 55 217
f 205 206 55
f 204 203 202
f 73 275 292
f 292 290 73
f 272 290 282
f 290 292 291
f 75 290 291
f 290 75 282
f 70 277 259
f 277 70 281
f 277 281 279
f 260 70 259
f 12 174 172
f 104 396 388
f 367 27 354
f 365 27 367
f 354 27 356
f 365 367 366
f 595 27 365
f 318 299 310
f 155 596 597
f 155 597 598
f 596 594 597
f 595 596 155
f 605 595 155
f 180 47 179
f 180 190 47
f 352 372 11
f 11 372 261
f 312 310 24
f 642 636 162
f 636 297 637
f 367 369 97
f 366 367 97
f 369 367 354
f 369 370 97
f 580 579 464
f 580 152 579
f 579 124 464
f 61 230 409
f 230 410 409
f 230 61 229
f 230 229 228
f 76 285 286
f 353 352 276
f 74 353 276
f 288 76 286
f 288 286 283
f 289 288 287
f 203 54 201
f 287 288 77
f 77 288 283
f 286 48 283
f 531 423 113
f 276 11 259
f 11 261 259
f 277 276 259
f 616 158 615
f 516 616 615
f 138 516 615
f 138 615 612
f 509 533 532
f 503 502 504
f 635 79 294
f 635 294 404
f 635 637 79
f 637 635 638
f 638 635 108
f 635 404 108
f 226 61 405
f 61 226 227
f 405 61 409
f 227 226 207
f 48 178 179
f 48 286 178
f 173 48 179
f 534 143 533
f 534 535 143
f 531 534 533
f 533 143 532
f 137 531 533
f 261 372 371
f 13 180 178
f 285 13 178
f 180 13 166
f 13 168 166
f 346 345 284
f 331 327 46
f 46 327 172
f 172 327 326
f 382 620 101
f 442 121 448
f 443 121 442
f 2 226 404
f 294 2 404
f 404 226 405
f 207 226 2
f 550 551 145
f 552 146 551
f 143 550 532
f 552 550 143
f 330 329 328
f 24 636 629
f 94 352 353
f 352 11 276
f 113 428 534
f 428 535 534
f 509 41 511
f 535 552 143
f 550 552 551
f 550 542 532
f 369 95 368
f 326 327 87
f 87 327 329
f 327 331 329
f 581 326 87
f 293 79 298
f 79 297 298
f 296 298 78
f 79 293 294
f 296 293 298
f 598 490 38
f 358 280 22
f 280 279 278
f 357 358 95
f 74 357 353
f 330 328 25
f 567 23 559
f 590 598 38
f 590 604 598
f 598 604 155
f 604 590 154
f 590 591 154
f 604 154 606
f 297 299 298
f 299 318 78
f 298 299 78
f 355 354 356
f 629 636 642
f 312 24 629
f 629 642 160
f 370 362 97
f 362 363 97
f 363 366 97
f 364 363 362
f 362 370 351
f 96 363 364
f 297 636 24
f 162 637 638
f 637 297 79
f 490 488 38
f 598 597 490
f 441 442 119
f 443 442 441
f 443 441 5
f 442 448 445
f 296 78 295
f 326 12 172
f 575 574 364
f 47 175 176
f 175 177 176
f 47 176 179
