# FEM surface export ¡ª frame 499
# Vertices: 642  Faces: 1280
v -0.51705021 0.96901655 -0.00203147
v 0.51765352 0.97261256 -0.00121786
v -0.54194999 0.28288782 0.03246633
v 0.55087054 0.22676453 0.02284575
v -0.03168707 0.04695510 0.95947301
v 0.00250830 0.70162904 0.86323494
v -0.00842445 0.05528228 -0.95568526
v 0.00007859 0.69757318 -0.85948509
v 0.90958613 0.26160628 -0.57444566
v 0.91040081 0.26083687 0.55499953
v -0.91399789 0.26518413 -0.54937279
v -0.90241104 0.25387907 0.56721985
v -0.82243478 0.67326969 0.31692857
v -0.51477927 0.50876027 0.82926643
v -0.30328387 0.94027328 0.49185556
v 0.30717474 0.93963248 0.49328393
v -0.00049549 1.08870769 -0.00174067
v 0.30588508 0.94045889 -0.49410620
v -0.30539081 0.93619001 -0.49668130
v -0.51490134 0.50692928 -0.82683462
v -0.82216537 0.67408824 -0.31474400
v -1.07325101 0.24820134 0.00450336
v 0.52044356 0.51463509 0.83494818
v 0.82448071 0.68062365 0.31428680
v -0.58438796 0.01432239 0.94263184
v 0.00259878 0.25238362 1.06072414
v -0.92667276 0.10209099 -0.35864949
v -0.93799716 0.04901941 0.30451092
v -0.00750570 0.26904625 -1.07311177
v -0.59860092 0.05617271 -0.94849336
v 0.82406378 0.67845172 -0.31349310
v 0.51285303 0.51186490 -0.82574409
v 0.91710913 0.00906860 0.36618689
v 0.58808786 0.01300454 0.93913126
v 0.32221553 0.16317871 0.52802771
v -0.35419348 0.23229071 0.54128253
v 0.01349494 0.06340447 0.07537398
v -0.29626378 0.05460612 -0.45649460
v 0.30977362 0.13121253 -0.51505393
v 0.58328837 0.02157171 -0.94435221
v 0.92443687 0.06851992 -0.35724115
v 1.07581532 0.25023550 -0.00836482
v -0.69403583 0.84940255 0.16105315
v -0.58744740 0.83854538 0.42591155
v -0.42490190 0.98053998 0.25242481
v -0.72579193 0.37584999 0.71823466
v -0.70110828 0.60907918 0.59848601
v -0.88609278 0.46103084 0.44778696
v -0.15840378 0.84827960 0.70135713
v -0.43052185 0.75913703 0.69352329
v -0.26566917 0.62520480 0.87985271
v -0.15617304 1.05062687 0.25455657
v -0.26518998 1.05979311 -0.00109328
v 0.16252975 0.84442854 0.70160472
v 0.00216945 0.97324246 0.51535457
v 0.26441231 1.06103122 -0.00143106
v 0.15979595 1.05233610 0.25429651
v 0.42769751 0.98307717 0.25358948
v -0.15933320 1.05046356 -0.25895354
v -0.42635840 0.98079300 -0.25742641
v 0.42663819 0.98385382 -0.25524440
v 0.15657297 1.05149853 -0.25902379
v -0.15970092 0.84223157 -0.70296794
v 0.00182745 0.96939886 -0.51889473
v 0.16010001 0.84119177 -0.70126998
v -0.58788103 0.83165169 -0.42704847
v -0.69419754 0.84778988 -0.16205949
v -0.26680875 0.61622632 -0.87732518
v -0.42747223 0.74920988 -0.69470531
v -0.88969225 0.46912855 -0.44013369
v -0.69795644 0.60699993 -0.59636706
v -0.73634285 0.38846117 -0.71519005
v -0.86320674 0.69540024 0.00251364
v -1.02687109 0.25930440 -0.28401950
v -0.97727567 0.47092465 -0.16012706
v -0.97541189 0.45711029 0.17079203
v -1.02111173 0.25072891 0.29929826
v 0.59173429 0.84145302 0.42614102
v 0.69405252 0.85226572 0.15940224
v 0.26778728 0.62066400 0.88123608
v 0.43395561 0.75190169 0.69139481
v 0.89585197 0.46848339 0.44697168
v 0.70960850 0.61231071 0.59527570
v 0.73525757 0.38581178 0.72240877
v -0.27224156 0.38088459 0.98520678
v -0.00150893 0.47966298 0.99038768
v -0.77296257 0.13139251 0.76920503
v -0.55265069 0.24403310 0.90147001
v 0.00623601 0.06497993 1.11015999
v -0.27985001 0.11477985 1.05131233
v -0.31406099 0.00028449 0.98487198
v -1.08181763 0.08678681 0.18946837
v -0.98794228 0.06723783 0.49563199
v -0.99490565 0.07570749 -0.49974731
v -1.08631229 0.06893215 -0.17919528
v -0.73705500 0.12995115 0.13630953
v -0.95024663 0.09189987 -0.01360187
v -0.74113840 0.21314047 -0.17617959
v -0.56231993 0.26830181 -0.91662323
v -0.78568870 0.15595141 -0.76937151
v -0.00134402 0.48786122 -0.98950714
v -0.27271897 0.38987809 -0.99100506
v -0.32097468 0.00000000 -1.00811207
v -0.30072188 0.13685083 -1.05930924
v -0.00469689 0.06339985 -1.11143696
v 0.42904922 0.75491059 -0.69268262
v 0.26643592 0.61818242 -0.87645644
v 0.69309235 0.85073972 -0.16150174
v 0.58924425 0.83966583 -0.42402977
v 0.72946346 0.39087558 -0.71797091
v 0.70105135 0.61783987 -0.59479600
v 0.89247411 0.47249046 -0.44660577
v 0.73999971 0.15094319 0.20867532
v 0.62511599 0.17760181 0.48369253
v 0.43120039 0.25991589 0.29671884
v 0.78168929 0.14890678 0.77417821
v 0.82665533 0.00000000 0.70649296
v 0.98615670 0.08189535 0.48960888
v 0.15494584 0.14325365 0.74794590
v 0.45923784 0.08390457 0.76616895
v 0.30007035 0.00000000 1.00620770
v 0.14914915 0.28194779 0.29694623
v 0.30072743 0.09414554 0.06566631
v -0.19582342 0.12127743 0.74097258
v -0.01718313 0.17033741 0.55985510
v -0.28418240 0.11430376 0.06730518
v -0.19447371 0.15934364 0.28697726
v -0.43569446 0.25346750 0.29080379
v 0.17869626 0.06970984 -0.21730056
v 0.47224250 0.13090299 -0.23486227
v -0.43924606 0.15032575 -0.24145718
v -0.15903409 0.03509698 -0.20172794
v 0.17079341 0.17067178 -0.74639982
v -0.00088127 0.06423762 -0.44986543
v -0.16432537 0.01374015 -0.69548202
v 0.60766727 0.12402412 -0.42938125
v 0.76289451 0.19105043 -0.15208985
v 0.31209236 0.00071977 -1.00101388
v 0.45946920 0.05445848 -0.73185223
v 0.98554325 0.09501642 -0.50847977
v 0.78407997 0.00024475 -0.68369859
v 0.78367251 0.13988781 -0.78168583
v 0.94933307 0.05024462 0.00681957
v 1.02993798 0.26559731 -0.30155855
v 1.09197295 0.07937055 -0.19978631
v 1.08184004 0.07731444 0.18515046
v 1.02415562 0.25615129 0.27760935
v 0.29691347 0.12701242 1.04777491
v 0.55829650 0.25474912 0.91949266
v 0.27293742 0.39040884 0.99135703
v -0.66051662 0.16504914 0.41625816
v -0.49834228 0.09084541 0.74193197
v -0.81548512 0.00000000 0.65250403
v -0.48120296 0.05452213 -0.75051379
v -0.64735860 0.16341780 -0.46630505
v -0.80368376 0.04561817 -0.67746466
v 0.56061989 0.26389953 -0.91198301
v 0.27931952 0.13967173 -1.06107605
v 0.27321199 0.39338705 -0.99014193
v 0.98307592 0.47679579 0.16701467
v 0.98051864 0.46736252 -0.16623722
v 0.86457980 0.70219356 0.00078999
v -0.61014742 0.91727173 0.07929225
v -0.56471169 0.92500156 0.20943820
v -0.47465485 0.98095095 0.12695237
v -0.71435934 0.76401705 0.37651706
v -0.64654434 0.85071850 0.29666334
v -0.76579654 0.76853365 0.24079037
v -0.36657643 0.96708041 0.37437919
v -0.50992739 0.91756332 0.34191439
v -0.44887871 0.89784765 0.46314138
v -0.81743050 0.31263041 0.65053511
v -0.81687683 0.42573068 0.59246761
v -0.89680797 0.35707617 0.50850487
v -0.61747044 0.56177229 0.72202718
v -0.72016913 0.49315512 0.66374809
v -0.62382418 0.44045100 0.77807629
v -0.86170554 0.56748629 0.38369229
v -0.80292827 0.54047453 0.52820104
v -0.77117604 0.64671296 0.46260205
v -0.07885960 0.78197104 0.79000282
v -0.21322818 0.74597669 0.80294818
v -0.13208382 0.66824442 0.88076097
v -0.36953673 0.85816252 0.59954983
v -0.29587498 0.80857307 0.70464766
v -0.23278733 0.90059477 0.60060185
v -0.39388067 0.57174981 0.86339408
v -0.35228273 0.69809163 0.79551035
v -0.47932982 0.64148152 0.77151942
v -0.65379590 0.73325980 0.51913553
v -0.57377374 0.69132912 0.65453529
v -0.51505232 0.80669099 0.56638259
v -0.34872380 1.02901006 0.12684217
v -0.39365971 1.02080345 -0.00089318
v -0.23100279 1.00470114 0.37665206
v -0.29310745 1.02296793 0.25632784
v -0.13404261 1.08372402 -0.00196303
v -0.21243772 1.06224847 0.12800153
v -0.07905510 1.07952368 0.12842299
v 0.08443150 0.77929670 0.78926843
v 0.00209874 0.85387117 0.70976239
v 0.15534036 0.96367764 0.50957042
v 0.08216692 0.91580683 0.61265975
v 0.23843676 0.89721596 0.60140723
v -0.07696637 0.91692883 0.61249250
v -0.15164308 0.96512836 0.50940359
v 0.39413598 1.02359271 -0.00065739
v 0.34978390 1.03087020 0.12799540
v 0.47706589 0.98519653 0.12673302
v 0.08005983 1.07936430 0.12812777
v 0.21395768 1.06404293 0.12835793
v 0.13287500 1.08463466 -0.00211792
v 0.37214389 0.96820146 0.37679380
v 0.29404673 1.02492523 0.25699532
v 0.23522438 1.00385463 0.37667742
v -0.07937191 1.02209246 0.38981974
v 0.08160298 1.02213967 0.38871244
v 0.00032244 1.06143641 0.25747633
v -0.34946737 1.02877927 -0.13053723
v -0.47486088 0.98008287 -0.13020973
v -0.08057632 1.08079970 -0.13121574
v -0.21440384 1.06415260 -0.13108106
v -0.37036887 0.96434885 -0.38047537
v -0.29462886 1.02280366 -0.26015723
v -0.23424640 1.00300670 -0.38075852
v 0.47595912 0.98537409 -0.12893033
v 0.34938219 1.03277326 -0.12997369
v 0.23356448 1.00592911 -0.37959218
v 0.29357067 1.02588868 -0.25904807
v 0.36988407 0.96839100 -0.37738487
v 0.21216531 1.06435311 -0.13130280
v 0.07805274 1.08167124 -0.13192876
v -0.08079211 0.77315867 -0.78751576
v 0.00191854 0.84868765 -0.71019208
v 0.08135560 0.77513015 -0.78760242
v -0.15340647 0.96176946 -0.51350987
v -0.07909402 0.91341794 -0.61660540
v -0.23440537 0.89461631 -0.60401344
v 0.23559925 0.89784670 -0.60343897
v 0.08100818 0.91209054 -0.61589295
v 0.15404758 0.96350646 -0.51281488
v -0.00133898 1.06135333 -0.26179469
v 0.08008610 1.02017772 -0.39218831
v -0.08014004 1.02049494 -0.39290017
v -0.56462383 0.92246592 -0.21376839
v -0.61018836 0.91477311 -0.08296192
v -0.45099398 0.89215118 -0.46791956
v -0.51187897 0.91372913 -0.34612942
v -0.76556563 0.76749760 -0.24092565
v -0.64695138 0.84760612 -0.29737654
v -0.71286476 0.76200032 -0.37703279
v -0.13380490 0.66198516 -0.87609041
v -0.21469662 0.73381829 -0.79895931
v -0.47455588 0.63176209 -0.77026373
v -0.35109818 0.68579817 -0.79311913
v -0.39336586 0.56227380 -0.86085272
v -0.29644948 0.80108386 -0.70506763
v -0.37077957 0.85068589 -0.60195601
v -0.90493482 0.36395243 -0.49537149
v -0.82147789 0.43332276 -0.58166772
v -0.83200246 0.32675850 -0.63954496
v -0.76851606 0.64557797 -0.46371129
v -0.79912394 0.54134881 -0.52052629
v -0.85789114 0.56994522 -0.37986654
v -0.62995017 0.45174244 -0.77656817
v -0.72323376 0.49772522 -0.65873349
v -0.61547858 0.56240660 -0.72133213
v -0.51217777 0.79703379 -0.56814772
v -0.56919569 0.68313265 -0.65700555
v -0.65057206 0.72790080 -0.52213103
v -0.70200026 0.85571539 0.00005570
v -0.85313225 0.69338781 -0.15717557
v -0.78557938 0.77940869 -0.08064830
v -0.78656054 0.77888006 0.08379977
v -0.85296667 0.68948835 0.16183983
v -0.98085815 0.26470456 -0.41974515
v -0.96719694 0.36543426 -0.36294675
v -1.03382885 0.36152482 -0.07884450
v -1.00511825 0.36736554 -0.22081387
v -1.06195402 0.25951514 -0.13995175
v -0.94416583 0.47709337 -0.30238348
v -0.90837944 0.57582295 -0.24026725
v -0.96107793 0.35413387 0.38027644
v -0.97802711 0.25208843 0.44296685
v -0.91173553 0.56916803 0.24669836
v -0.94364482 0.45833349 0.31191218
v -1.05840874 0.24426065 0.15300772
v -1.00760269 0.34672958 0.23305616
v -1.03445280 0.35110244 0.08821151
v -0.93274671 0.58804870 -0.07986244
v -0.99183702 0.46629554 0.00450078
v -0.93219584 0.58037651 0.08780366
v 0.56623918 0.92749262 0.20953509
v 0.61044121 0.91787136 0.07884634
v 0.45335850 0.89865661 0.46549368
v 0.51398271 0.91965330 0.34164447
v 0.76706421 0.77213949 0.23790655
v 0.64981544 0.85323924 0.29458055
v 0.71606678 0.76731896 0.37363461
v 0.13559037 0.66597790 0.88018674
v 0.21913439 0.74023163 0.80199522
v 0.48546165 0.63898396 0.77298266
v 0.35614124 0.69263029 0.79397678
v 0.39747074 0.57254797 0.86597508
v 0.29932654 0.80335152 0.70494902
v 0.37367782 0.85224205 0.59836286
v 0.90598208 0.35571522 0.50314522
v 0.82556927 0.42452189 0.58693343
v 0.82617122 0.32250747 0.64699113
v 0.77483153 0.64966118 0.46127310
v 0.80980426 0.54132581 0.52589911
v 0.86706823 0.57729512 0.38202491
v 0.63360488 0.45121968 0.78775966
v 0.72977251 0.50014603 0.66204256
v 0.62527633 0.56717956 0.72208971
v 0.51853788 0.80182183 0.56468260
v 0.57852125 0.68865430 0.65190196
v 0.65808076 0.73377198 0.51804531
v -0.13690302 0.55572534 0.94690895
v -0.00116494 0.59546667 0.93618649
v -0.39882493 0.44823492 0.91716266
v -0.27352104 0.50409186 0.93983847
v -0.00180520 0.36715153 1.03144586
v -0.13880025 0.43383092 0.99531454
v -0.13663796 0.31342301 1.02992725
v -0.84622842 0.18210812 0.66948539
v -0.75315255 0.24499208 0.74961740
v -0.56780523 0.12592112 0.93172365
v -0.66389579 0.18162413 0.84349287
v -0.67989773 0.07484079 0.86412221
v -0.64411741 0.30571699 0.81146860
v -0.53800315 0.37154847 0.87129140
v -0.02080912 0.00238865 1.06685424
v -0.15611205 0.00000000 1.08889985
v -0.18634830 0.07076989 0.98496461
v -0.13270243 0.18174116 1.06957984
v -0.14617452 0.08045807 1.08972895
v 0.00452614 0.14518158 1.09133470
v -0.45715243 0.00008616 0.99226576
v -0.30247003 0.01873581 1.06663275
v -0.42709813 0.06815571 1.01230299
v -0.41576880 0.30953535 0.95502639
v -0.42703989 0.17863190 0.98804498
v -0.27533764 0.24515960 1.02327740
v -1.01318598 0.15551278 0.40252912
v -0.94986188 0.14721490 0.54256004
v -1.09608924 0.16817527 0.10105301
v -1.06307101 0.16511144 0.25286284
v -0.99919850 0.00000000 0.41671479
v -1.04729450 0.07290620 0.34940106
v -1.03637850 0.00000749 0.25079316
v -0.96274090 0.16961212 -0.53221679
v -1.02794302 0.16318488 -0.39212438
v -1.04276788 0.00000000 -0.29933971
v -1.05213404 0.07511203 -0.34380302
v -0.99085253 0.00000000 -0.44386420
v -1.07332969 0.16477901 -0.23447096
v -1.09769452 0.16108716 -0.08069704
v -0.64604092 0.22218819 0.08214474
v -0.73567867 0.19815506 -0.00569677
v -0.64731014 0.25169060 -0.07276221
v -0.95827389 0.07392753 0.11811372
v -0.81751752 0.14077225 0.05912069
v -0.85538995 0.09845210 0.21380742
v -0.82470185 0.13773018 -0.27909884
v -0.83035958 0.13868049 -0.11495490
v -0.93343443 0.09287931 -0.18829645
v -1.10031545 0.08864778 0.01095234
v -1.06695211 0.00004060 -0.11808943
v -1.06536388 0.00000000 0.06500781
v -0.76314443 0.27319872 -0.75134289
v -0.85764796 0.21252100 -0.66596729
v -0.54453772 0.38604623 -0.87861019
v -0.65468061 0.32528892 -0.81786257
v -0.69547337 0.09549066 -0.85539448
v -0.67644876 0.20914593 -0.85619640
v -0.57815236 0.14341305 -0.93247783
v -0.00124440 0.59462416 -0.92949498
v -0.13695920 0.55580997 -0.94490474
v -0.14024007 0.33193928 -1.03879189
v -0.13645349 0.44201773 -1.00059402
v -0.00001958 0.38010922 -1.03593016
v -0.27275127 0.50191921 -0.93861610
v -0.39785352 0.44952357 -0.91780591
v -0.16382447 0.00297247 -0.99966961
v -0.15914282 0.00977703 -1.08273995
v -0.00502086 0.00000000 -1.06904197
v -0.44941840 0.07920136 -1.01796842
v -0.31396589 0.02644285 -1.05191982
v -0.47971183 0.00000000 -0.99963480
v -0.00546811 0.15694420 -1.09652460
v -0.16067453 0.09462187 -1.09739769
v -0.15016913 0.19525155 -1.07321644
v -0.41871759 0.32442549 -0.96095854
v -0.28383860 0.25921696 -1.02702343
v -0.43575788 0.19343668 -0.99043316
v 0.21549900 0.73768461 -0.79961783
v 0.13361810 0.66270691 -0.87622237
v 0.37031376 0.85701907 -0.60055953
v 0.29661173 0.80467206 -0.70458448
v 0.39306352 0.56682849 -0.85843176
v 0.35112944 0.69115299 -0.79206830
v 0.47605899 0.63813418 -0.76768869
v 0.61019051 0.91804284 -0.08066747
v 0.56517428 0.92598546 -0.20976210
v 0.71428877 0.76575804 -0.37335154
v 0.64743638 0.85226762 -0.29529905
v 0.76586741 0.76976246 -0.23793612
v 0.51254392 0.91852593 -0.34205788
v 0.45209169 0.89849150 -0.46529946
v 0.82586515 0.32632244 -0.65429521
v 0.82124949 0.42905775 -0.58856118
v 0.90561235 0.36356914 -0.51067048
v 0.61452001 0.57184756 -0.71897411
v 0.72061938 0.50580585 -0.66020077
v 0.62659097 0.45435151 -0.77857202
v 0.86503893 0.57844293 -0.38354144
v 0.80110353 0.54616654 -0.52507353
v 0.77156764 0.65309024 -0.46095017
v 0.51529795 0.80648553 -0.56606644
v 0.65277725 0.73741871 -0.51648200
v 0.57113302 0.69268864 -0.65242839
v 0.65341663 0.20725957 0.12587881
v 0.58459806 0.21708366 0.24471813
v 0.50787210 0.24161144 0.15440364
v 0.74668670 0.07445655 0.40879774
v 0.68074602 0.16436891 0.33731061
v 0.82395095 0.06415875 0.28393301
v 0.40124124 0.24162413 0.42123899
v 0.53221673 0.21114233 0.38251412
v 0.47658715 0.18064082 0.51761985
v 0.85174161 0.20149499 0.66539580
v 0.89866877 0.11245497 0.64241874
v 0.95277756 0.16976257 0.52962917
v 0.71227586 0.00000000 0.83805650
v 0.80842632 0.06647442 0.74604493
v 0.69024515 0.08254443 0.86204147
v 0.98200893 0.00000000 0.43166539
v 0.91404736 0.03090532 0.59563953
v 0.87930965 0.00098731 0.54682082
v 0.06844163 0.09683250 0.86045390
v 0.20240809 0.07938214 0.87239361
v 0.13722746 0.01579138 0.97002220
v 0.39173511 0.14195253 0.66321605
v 0.30813128 0.12671414 0.76079547
v 0.24811146 0.17595695 0.64677614
v 0.45241487 0.00000000 0.98959231
v 0.36412248 0.04072049 0.88257229
v 0.53189045 0.00005824 0.86618781
v 0.71562511 0.08062086 0.58211213
v 0.62983364 0.05273374 0.71895647
v 0.56245065 0.14947902 0.63204336
v 0.40241349 0.12155075 0.19254562
v 0.44580901 0.12236232 0.06012540
v 0.24389125 0.25431913 0.40978429
v 0.30141953 0.20075531 0.31928110
v 0.15860105 0.07611095 0.06930405
v 0.23575167 0.14434484 0.20982656
v 0.09037919 0.15408207 0.19636665
v -0.13212466 0.10434526 0.85847533
v -0.03474643 0.10980777 0.76565754
v -0.17166975 0.22680119 0.53579587
v -0.09184263 0.18860771 0.65091377
v -0.26308015 0.19156526 0.63597149
v 0.07491737 0.12966719 0.66609263
v 0.16369848 0.15113978 0.54614568
v -0.45252037 0.15617211 0.05037762
v -0.38315937 0.25555256 0.14073136
v -0.52397770 0.28714138 0.17221296
v -0.07912713 0.15632865 0.18114918
v -0.21963546 0.23999420 0.13821214
v -0.13619463 0.09373974 0.06139407
v -0.40568361 0.20691952 0.43043891
v -0.32518250 0.19634372 0.28421941
v -0.25670379 0.26439828 0.41633129
v 0.08231416 0.23112759 0.43586054
v -0.09166284 0.24803732 0.41973945
v -0.01132275 0.13456011 0.33890480
v 0.38908675 0.08053403 -0.07298715
v 0.51214927 0.19442834 -0.09968473
v 0.09779330 0.03787678 -0.07515559
v 0.23269024 0.06375694 -0.06955786
v 0.40848309 0.18757035 -0.36962181
v 0.33510587 0.07380927 -0.23053464
v 0.26434240 0.11566672 -0.36503083
v -0.49474090 0.21807399 -0.10838800
v -0.39416257 0.09992089 -0.08792091
v -0.23528959 0.08945002 -0.32164440
v -0.29725721 0.09198016 -0.21390133
v -0.39292195 0.10840070 -0.35669068
v -0.23302096 0.04397983 -0.07025299
v -0.08926005 0.04494574 -0.07598984
v 0.07867204 0.10609752 -0.84802806
v -0.02054505 0.11377677 -0.72802395
v -0.10752727 0.07518687 -0.84773535
v 0.15649764 0.17389362 -0.49925315
v 0.09761737 0.08469730 -0.60667920
v 0.25457489 0.21520495 -0.63986272
v -0.21729198 0.02392816 -0.57300794
v -0.07130348 0.02885065 -0.57122689
v -0.14581354 0.04811443 -0.44854629
v 0.00501658 0.04285892 -0.21608315
v -0.07208634 0.07501391 -0.33935180
v 0.11187737 0.09684868 -0.34371129
v 0.63302344 0.15914510 -0.17783262
v 0.67577881 0.19343635 -0.04616697
v 0.47527763 0.22588769 -0.46823347
v 0.57874531 0.20750830 -0.32875761
v 0.83246666 0.13402863 -0.25859734
v 0.71479702 0.15985803 -0.29622713
v 0.77427834 0.07257428 -0.39879188
v 0.14990838 0.00068109 -0.99409908
v 0.22879942 0.08506986 -0.89249045
v 0.54003781 0.00651306 -0.87616831
v 0.39120212 0.00923227 -0.86444980
v 0.46132258 0.00000000 -1.00311315
v 0.30511725 0.09914852 -0.74942744
v 0.39008966 0.15534216 -0.62857211
v 0.95503896 0.17853454 -0.54802966
v 0.90194356 0.10620525 -0.65671611
v 0.85770029 0.20282161 -0.68158507
v 0.87166697 0.00000692 -0.51516825
v 0.92614025 0.00000000 -0.61082852
v 0.98020416 0.00001445 -0.44571853
v 0.70054370 0.07978754 -0.87314248
v 0.83293456 0.05083613 -0.75455487
v 0.70526433 0.00000000 -0.82333827
v 0.53550464 0.15624599 -0.60709482
v 0.59730834 0.08527155 -0.71178579
v 0.68202436 0.03366759 -0.55000842
v 0.76761419 0.17824598 0.03561722
v 0.95166868 0.10926670 -0.16863298
v 0.86375231 0.14674130 -0.07623138
v 0.87473267 0.10322224 0.11809418
v 0.95824444 0.02283089 0.19156030
v 0.97494984 0.26258132 -0.44175935
v 1.02420104 0.17117546 -0.40344715
v 1.09909415 0.15246509 -0.10571709
v 1.07366216 0.16709352 -0.25908378
v 1.06746078 0.25898263 -0.15428650
v 1.05407917 0.06440295 -0.36244735
v 1.02338576 0.03500368 -0.27443689
v 1.01179636 0.16709132 0.38523158
v 0.97389263 0.26160273 0.41731551
v 1.04208517 0.00000000 0.27172869
v 1.04431081 0.07782371 0.34205443
v 1.06043148 0.25572407 0.13604920
v 1.06402552 0.16721641 0.23485257
v 1.09524941 0.15328376 0.08210473
v 1.05897152 0.00000000 -0.10843804
v 1.10891783 0.07047221 -0.00504181
v 1.07315445 0.00000000 0.08110144
v 0.14073925 0.01063841 1.08156443
v 0.44488889 0.06508715 1.00665712
v 0.30688456 0.04284247 1.05042052
v 0.15641949 0.09585819 1.09640658
v 0.14865898 0.18666191 1.07039642
v 0.75841403 0.26128945 0.75079131
v 0.54441249 0.38641602 0.88783067
v 0.65270054 0.32063204 0.82752615
v 0.67136508 0.20048767 0.85072047
v 0.57768148 0.12752905 0.93103129
v 0.13481571 0.55604923 0.94955748
v 0.13850778 0.31631652 1.03589988
v 0.13372324 0.43321773 0.99976218
v 0.27084985 0.50719619 0.94466454
v 0.39932135 0.45671603 0.92532408
v 0.43443528 0.18302853 0.99279666
v 0.41854006 0.32030138 0.96562445
v 0.28209972 0.25035349 1.02824056
v -0.62946486 0.21743390 0.22276017
v -0.51040167 0.18983905 0.48513126
v -0.53891265 0.16417547 0.34521359
v -0.70746231 0.14235066 0.28200981
v -0.80190957 0.09926513 0.37124264
v -0.27713183 0.10939263 0.87792748
v -0.54176259 0.00207209 0.87593430
v -0.41814232 0.09108137 0.88617992
v -0.34985584 0.14349882 0.76549155
v -0.42300981 0.14082469 0.62845075
v -0.89392555 0.08123794 0.64696044
v -0.89546221 0.04334588 0.48124826
v -0.92043233 0.00133094 0.59821033
v -0.80938232 0.04787973 0.75075793
v -0.72567415 0.00000000 0.82941198
v -0.60557199 0.14154938 0.58290696
v -0.64612019 0.04880048 0.70668709
v -0.74055517 0.07129867 0.53336293
v -0.25259939 0.03645241 -0.85809344
v -0.36493814 0.12184852 -0.64084566
v -0.33205694 0.00000000 -0.71279877
v -0.40533090 0.00264638 -0.88080668
v -0.56026334 0.00000000 -0.87080169
v -0.62068272 0.14956148 -0.19876902
v -0.79065782 0.17064561 -0.43003693
v -0.68184614 0.21006754 -0.33130494
v -0.55264300 0.08219908 -0.34663147
v -0.45941746 0.09299774 -0.48190105
v -0.90632981 0.11789226 -0.65399891
v -0.71589172 0.00000000 -0.83416253
v -0.81879866 0.05930294 -0.74520785
v -0.92209822 0.01743256 -0.58897185
v -0.86246699 0.02176249 -0.51783586
v -0.56613702 0.12093541 -0.61974901
v -0.71814412 0.11165763 -0.57898229
v -0.65022594 0.01314702 -0.72622710
v 0.76076382 0.25922671 -0.75724006
v 0.57901281 0.14774378 -0.94159907
v 0.67157423 0.20025627 -0.85884607
v 0.65263832 0.32949194 -0.81963438
v 0.54073548 0.38486513 -0.86940593
v 0.14896232 0.00005175 -1.07006013
v 0.13890213 0.20661433 -1.08005774
v 0.14408290 0.09264304 -1.09091806
v 0.30358002 0.03069639 -1.05734324
v 0.42902574 0.09106831 -1.01720452
v 0.13444142 0.55559528 -0.94237894
v 0.39973843 0.45617104 -0.91642046
v 0.27245677 0.50605518 -0.93713629
v 0.13850209 0.44600415 -0.99942595
v 0.13744296 0.33329681 -1.04200578
v 0.43545163 0.20374723 -0.99877822
v 0.28363103 0.27224526 -1.03409433
v 0.42030075 0.32806706 -0.96062303
v 0.96689183 0.36008084 0.36993510
v 1.03961861 0.36518747 0.08428364
v 1.01487660 0.36767593 0.22502495
v 0.95029384 0.47612175 0.31157786
v 0.91654301 0.58319485 0.24411155
v 0.96878445 0.36171642 -0.37931207
v 0.91206592 0.57891792 -0.24367887
v 0.94650573 0.47259983 -0.30897993
v 1.01614213 0.36177459 -0.23473020
v 1.03761303 0.35863468 -0.08894970
v 0.70149267 0.85784554 -0.00117979
v 0.85491663 0.69630092 0.15868531
v 0.78599858 0.78356856 0.08124496
v 0.78627455 0.78208917 -0.08246621
v 0.85493845 0.69408798 -0.15649772
v 0.99467313 0.47160137 -0.00008941
v 0.93543488 0.58804673 -0.08339869
v 0.93525028 0.59087837 0.08327118
f 330 87 329
f 336 325 26
f 207 208 56
f 464 36 580
f 502 129 504
f 157 624 622
f 308 311 82
f 247 223 248
f 507 483 508
f 331 88 329
f 494 500 497
f 156 601 602
f 591 589 592
f 365 98 596
f 75 281 282
f 152 587 577
f 149 559 560
f 555 121 553
f 530 141 529
f 515 517 139
f 361 594 98
f 250 67 249
f 157 608 609
f 294 293 209
f 317 81 316
f 557 338 26
f 303 305 81
f 530 529 528
f 101 381 382
f 415 418 111
f 192 184 50
f 412 110 411
f 20 384 256
f 131 594 486
f 281 264 282
f 347 287 348
f 28 349 582
f 165 163 1
f 248 250 66
f 617 107 398
f 273 271 274
f 456 115 453
f 558 561 560
f 335 576 91
f 331 177 332
f 116 433 436
f 351 370 92
f 136 511 530
f 239 240 65
f 247 258 19
f 304 23 567
f 148 557 570
f 214 208 58
f 440 426 450
f 268 270 269
f 258 247 268
f 204 202 16
f 466 125 465
f 517 513 133
f 168 275 274
f 275 73 274
f 198 193 53
f 309 308 307
f 510 511 136
f 415 416 110
f 131 490 597
f 473 475 474
f 414 415 111
f 493 495 494
f 496 504 485
f 433 116 432
f 600 375 601
f 240 234 65
f 418 415 412
f 486 361 3
f 567 566 304
f 380 393 29
f 17 199 197
f 491 492 132
f 451 449 435
f 218 217 216
f 623 621 613
f 396 104 395
f 433 439 436
f 628 160 627
f 215 202 217
f 209 207 2
f 427 113 424
f 434 10 544
f 434 433 432
f 199 17 210
f 150 564 565
f 489 491 132
f 275 13 285
f 497 500 134
f 125 466 476
f 578 152 577
f 208 214 211
f 328 88 343
f 356 27 603
f 150 566 567
f 372 100 371
f 190 191 47
f 235 8 398
f 260 261 72
f 422 403 414
f 422 414 111
f 453 454 123
f 349 583 582
f 521 520 519
f 425 453 115
f 616 622 158
f 483 130 508
f 151 586 572
f 212 17 232
f 400 397 402
f 377 396 99
f 41 522 511
f 510 508 505
f 549 547 42
f 475 473 36
f 510 137 509
f 222 221 197
f 430 115 429
f 220 194 1
f 305 54 204
f 621 29 613
f 192 171 184
f 460 335 5
f 88 331 332
f 74 277 279
f 300 301 80
f 390 389 388
f 165 45 164
f 146 549 551
f 291 278 75
f 448 120 445
f 147 543 544
f 607 610 609
f 603 602 356
f 139 529 514
f 333 553 443
f 92 368 347
f 261 260 259
f 300 6 200
f 46 177 331
f 284 283 174
f 301 300 200
f 471 468 474
f 54 305 301
f 302 304 303
f 569 150 567
f 150 569 570
f 294 209 2
f 628 629 160
f 548 543 147
f 147 625 627
f 63 233 234
f 426 427 114
f 41 509 532
f 198 52 196
f 614 105 612
f 147 627 547
f 81 305 306
f 549 548 547
f 54 301 200
f 342 88 332
f 264 281 70
f 193 194 53
f 455 429 456
f 187 321 14
f 479 130 484
f 147 544 625
f 458 456 453
f 304 80 303
f 314 84 313
f 488 503 501
f 321 332 14
f 423 425 424
f 305 204 306
f 341 339 25
f 514 40 516
f 625 628 627
f 340 339 341
f 105 614 391
f 243 228 62
f 318 316 78
f 75 278 279
f 357 355 353
f 238 257 63
f 466 455 476
f 425 423 4
f 448 449 120
f 408 638 108
f 292 275 285
f 22 278 289
f 515 513 517
f 501 503 134
f 622 623 158
f 134 503 504
f 195 216 206
f 163 271 246
f 619 617 620
f 62 228 229
f 163 165 164
f 453 425 454
f 489 132 488
f 82 628 625
f 58 208 209
f 525 608 40
f 626 547 627
f 518 517 498
f 489 487 491
f 557 26 564
f 325 336 344
f 541 145 539
f 40 616 516
f 338 556 89
f 250 248 245
f 139 514 515
f 98 594 596
f 246 220 1
f 112 413 630
f 9 536 413
f 156 600 601
f 332 177 14
f 321 342 332
f 156 606 600
f 584 330 585
f 302 303 81
f 584 87 330
f 330 25 585
f 400 239 65
f 439 440 117
f 95 358 368
f 597 594 131
f 594 361 486
f 246 67 245
f 561 562 149
f 28 364 362
f 55 216 217
f 427 430 114
f 267 20 254
f 556 555 553
f 84 309 558
f 311 310 312
f 609 525 142
f 256 68 255
f 124 460 461
f 82 311 312
f 307 308 82
f 589 135 495
f 527 40 514
f 112 418 412
f 20 256 254
f 258 238 19
f 267 254 269
f 273 272 249
f 392 391 393
f 137 533 509
f 122 455 456
f 9 413 411
f 130 480 505
f 333 443 5
f 527 525 40
f 589 495 385
f 39 496 485
f 223 225 224
f 414 416 415
f 219 222 53
f 145 538 539
f 413 412 411
f 469 468 467
f 183 181 6
f 191 192 50
f 429 35 431
f 292 285 76
f 413 112 412
f 415 110 412
f 43 164 167
f 467 468 126
f 617 101 620
f 450 451 117
f 438 546 545
f 619 620 159
f 17 212 210
f 124 579 576
f 584 153 583
f 460 124 576
f 3 469 467
f 311 308 314
f 6 320 183
f 389 104 388
f 251 250 249
f 194 165 1
f 291 289 278
f 287 77 348
f 238 258 257
f 139 517 518
f 238 236 19
f 223 247 19
f 382 380 29
f 39 518 498
f 361 359 3
f 69 255 257
f 139 518 528
f 33 545 535
f 387 385 7
f 69 268 269
f 477 462 125
f 454 479 123
f 121 555 447
f 451 435 117
f 454 425 4
f 233 252 8
f 124 463 464
f 69 258 268
f 168 167 166
f 583 153 582
f 384 394 102
f 138 512 513
f 57 210 211
f 254 256 255
f 607 609 142
f 324 319 86
f 289 291 76
f 291 292 76
f 384 102 383
f 422 421 420
f 221 17 197
f 383 102 381
f 376 377 99
f 99 373 374
f 386 105 392
f 438 33 440
f 90 341 343
f 281 75 279
f 574 571 96
f 628 82 312
f 221 222 59
f 127 471 474
f 595 605 603
f 551 538 145
f 334 91 340
f 322 324 85
f 305 303 301
f 18 239 399
f 306 204 16
f 199 198 197
f 166 190 180
f 303 80 301
f 267 266 265
f 626 42 547
f 16 215 213
f 349 351 350
f 295 16 213
f 68 379 252
f 250 251 66
f 627 160 626
f 383 68 256
f 343 88 342
f 507 508 136
f 202 215 16
f 197 198 53
f 254 69 269
f 603 605 156
f 418 419 111
f 384 383 256
f 455 122 476
f 203 204 54
f 556 557 148
f 255 68 253
f 313 84 560
f 25 328 341
f 254 255 69
f 603 156 602
f 581 584 583
f 630 632 112
f 163 246 1
f 246 245 220
f 432 116 558
f 499 591 590
f 320 563 86
f 345 93 350
f 306 16 295
f 346 93 345
f 562 568 149
f 604 605 155
f 154 592 593
f 545 552 535
f 511 522 530
f 574 573 571
f 566 150 565
f 361 98 360
f 67 271 273
f 234 235 65
f 208 211 56
f 574 151 573
f 251 270 66
f 398 8 378
f 213 215 214
f 438 440 439
f 315 314 313
f 263 71 262
f 20 373 384
f 496 134 504
f 329 88 328
f 81 306 316
f 555 556 148
f 592 589 103
f 617 619 107
f 227 207 56
f 571 359 96
f 446 466 465
f 206 216 55
f 359 571 469
f 568 148 570
f 34 437 435
f 28 351 349
f 21 272 282
f 113 423 424
f 490 489 488
f 379 68 383
f 210 212 211
f 80 563 300
f 351 92 350
f 326 346 12
f 83 317 318
f 555 148 554
f 212 231 56
f 218 57 217
f 271 67 246
f 195 196 52
f 270 268 66
f 390 592 103
f 148 568 554
f 495 493 7
f 592 390 593
f 357 95 355
f 574 575 151
f 452 120 451
f 154 591 592
f 587 585 577
f 395 394 396
f 93 349 350
f 610 416 611
f 166 44 190
f 315 23 302
f 315 302 317
f 268 247 66
f 606 154 593
f 396 394 99
f 211 212 56
f 370 369 368
f 235 397 65
f 280 278 22
f 83 315 317
f 575 588 151
f 74 279 280
f 385 495 7
f 63 257 253
f 397 235 398
f 214 58 213
f 220 219 194
f 546 146 545
f 236 225 19
f 599 94 602
f 235 233 8
f 102 394 395
f 611 416 32
f 225 223 19
f 139 528 529
f 231 62 229
f 419 406 421
f 451 450 452
f 49 182 185
f 402 397 107
f 52 199 218
f 416 610 110
f 225 236 244
f 107 397 398
f 68 252 253
f 322 85 321
f 182 181 183
f 118 438 439
f 546 438 118
f 348 77 345
f 543 546 118
f 231 212 232
f 610 611 157
f 33 438 545
f 385 386 103
f 479 480 130
f 169 195 15
f 93 583 349
f 15 195 206
f 190 44 192
f 247 248 66
f 146 552 545
f 248 60 245
f 570 557 564
f 274 271 43
f 63 253 233
f 272 21 249
f 507 528 518
f 67 273 249
f 487 467 126
f 196 195 169
f 624 159 623
f 134 496 497
f 132 503 488
f 104 393 395
f 556 553 89
f 355 356 94
f 258 69 257
f 229 61 227
f 56 231 227
f 460 576 335
f 463 124 461
f 394 373 99
f 29 393 391
f 67 250 245
f 193 198 196
f 462 36 464
f 144 633 630
f 141 526 527
f 517 133 498
f 536 144 630
f 100 372 599
f 144 536 537
f 22 289 287
f 578 579 152
f 579 578 576
f 189 188 187
f 60 223 224
f 92 348 350
f 555 554 447
f 396 377 388
f 194 193 165
f 413 536 630
f 372 352 599
f 377 376 375
f 348 345 350
f 105 386 387
f 240 237 234
f 463 462 464
f 135 500 494
f 45 196 169
f 512 612 387
f 245 60 220
f 429 115 456
f 223 60 248
f 288 289 76
f 525 526 142
f 100 599 601
f 613 29 391
f 526 523 520
f 341 328 343
f 631 641 639
f 264 21 282
f 266 72 265
f 106 402 403
f 73 273 274
f 186 206 205
f 381 379 383
f 52 216 195
f 410 18 399
f 290 272 73
f 72 371 374
f 526 525 527
f 115 430 424
f 498 497 496
f 621 382 29
f 543 118 434
f 214 215 57
f 522 141 530
f 511 510 509
f 352 94 599
f 493 512 7
f 90 340 341
f 169 171 170
f 605 604 606
f 219 60 224
f 104 389 392
f 359 469 3
f 186 49 185
f 222 219 224
f 166 167 44
f 428 427 426
f 523 522 524
f 129 502 481
f 50 185 188
f 164 45 170
f 425 115 424
f 33 428 426
f 427 428 113
f 94 356 602
f 515 138 513
f 114 431 452
f 237 236 238
f 215 217 57
f 95 354 355
f 220 60 219
f 515 514 516
f 183 320 319
f 222 197 53
f 559 569 567
f 300 320 6
f 435 436 117
f 96 360 363
f 640 642 641
f 242 243 62
f 140 537 519
f 508 130 505
f 420 410 399
f 537 539 144
f 317 316 318
f 426 114 450
f 186 15 206
f 311 83 310
f 625 544 307
f 544 10 307
f 168 43 167
f 185 182 188
f 369 354 95
f 44 171 192
f 605 606 156
f 548 549 146
f 100 601 375
f 149 568 569
f 381 380 382
f 455 466 35
f 480 479 454
f 543 548 546
f 493 133 513
f 492 472 37
f 477 125 476
f 491 487 126
f 337 336 338
f 588 153 587
f 576 578 91
f 633 161 632
f 96 359 360
f 39 485 483
f 101 617 378
f 193 45 165
f 163 164 43
f 618 624 611
f 507 136 528
f 561 149 560
f 641 162 639
f 116 561 558
f 494 133 493
f 253 252 233
f 63 237 238
f 392 393 104
f 440 450 117
f 93 581 583
f 386 385 387
f 120 449 451
f 421 422 111
f 486 3 467
f 302 81 317
f 633 632 630
f 462 475 36
f 376 99 374
f 489 490 131
f 447 449 448
f 387 612 105
f 106 420 399
f 173 46 172
f 492 491 472
f 316 306 295
f 22 287 347
f 109 410 420
f 507 39 483
f 559 23 313
f 214 57 211
f 196 45 193
f 10 434 432
f 422 106 403
f 626 160 640
f 487 486 467
f 542 41 532
f 400 106 399
f 444 120 452
f 198 199 52
f 475 127 474
f 621 620 382
f 621 623 159
f 450 114 452
f 92 347 348
f 376 100 375
f 434 118 433
f 503 132 502
f 337 90 336
f 537 536 519
f 395 393 380
f 201 54 200
f 171 44 170
f 355 94 353
f 58 296 213
f 422 420 106
f 595 365 596
f 569 568 570
f 523 140 520
f 114 430 431
f 218 210 57
f 304 566 80
f 639 162 638
f 261 371 72
f 548 147 547
f 498 133 497
f 150 570 564
f 222 224 59
f 142 526 520
f 437 436 435
f 141 522 523
f 137 510 505
f 173 179 176
f 559 149 569
f 121 447 448
f 563 320 300
f 102 395 380
f 257 255 253
f 642 162 641
f 83 311 314
f 216 52 218
f 512 493 513
f 23 304 302
f 91 339 340
f 512 138 612
f 159 620 621
f 218 199 210
f 364 28 575
f 83 318 310
f 168 274 43
f 136 530 528
f 140 523 524
f 495 135 494
f 233 235 234
f 566 563 80
f 25 339 577
f 277 74 276
f 475 462 477
f 133 494 497
f 436 437 116
f 389 386 392
f 548 146 546
f 441 460 5
f 10 309 307
f 65 397 400
f 543 434 544
f 640 641 161
f 272 273 73
f 581 93 346
f 419 421 111
f 319 320 86
f 180 179 178
f 127 475 477
f 231 229 227
f 337 334 340
f 136 508 510
f 308 309 84
f 237 63 234
f 447 554 34
f 252 379 378
f 315 83 314
f 608 622 616
f 338 336 26
f 337 338 89
f 13 275 168
f 209 208 207
f 436 439 117
f 628 312 629
f 360 366 363
f 364 574 96
f 359 361 360
f 466 446 35
f 500 501 134
f 406 109 421
f 135 589 591
f 601 599 602
f 340 90 337
f 481 492 37
f 522 41 524
f 78 316 295
f 131 486 487
f 403 32 414
f 634 626 640
f 151 572 573
f 515 516 138
f 8 252 378
f 265 72 374
f 9 521 519
f 538 549 42
f 368 358 347
f 588 587 586
f 458 453 123
f 589 385 103
f 502 492 481
f 32 416 414
f 430 427 424
f 153 585 587
f 540 144 539
f 370 368 92
f 209 293 58
f 428 33 535
f 326 581 346
f 625 307 82
f 575 28 582
f 6 181 200
f 421 109 420
f 553 121 443
f 160 642 640
f 153 584 585
f 309 432 558
f 334 337 89
f 23 315 313
f 271 163 43
f 296 295 213
f 39 498 496
f 118 439 433
f 531 113 534
f 293 296 58
f 28 362 351
f 489 131 487
f 431 444 452
f 84 558 560
f 98 366 360
f 45 169 170
f 379 101 378
f 462 463 125
f 308 84 314
f 10 432 309
f 299 24 310
f 132 492 502
f 512 387 7
f 639 638 408
f 565 323 86
f 59 244 242
f 106 400 402
f 440 33 426
f 566 565 563
f 617 398 378
f 224 225 59
f 410 109 409
f 239 400 399
f 194 219 53
f 358 22 347
f 610 157 609
f 27 595 603
f 479 484 482
f 142 520 521
f 585 25 577
f 339 578 577
f 408 407 406
f 407 109 406
f 31 408 406
f 407 408 108
f 31 639 408
f 419 31 406
f 608 616 40
f 430 429 431
f 455 35 429
f 35 444 431
f 188 51 187
f 188 182 51
f 51 322 187
f 322 51 319
f 51 182 183
f 319 51 183
f 187 322 321
f 322 319 324
f 381 101 379
f 405 407 108
f 404 405 108
f 286 285 178
f 407 405 409
f 109 407 409
f 191 175 47
f 167 164 170
f 50 184 185
f 44 167 170
f 64 244 236
f 243 244 64
f 50 188 189
f 541 542 145
f 442 445 119
f 339 91 578
f 445 446 119
f 624 623 622
f 611 624 157
f 523 526 141
f 141 527 529
f 527 514 529
f 445 120 444
f 446 445 444
f 35 446 444
f 613 614 158
f 158 614 615
f 623 613 158
f 614 613 391
f 614 612 615
f 371 376 374
f 100 376 371
f 479 482 123
f 373 394 384
f 540 42 634
f 633 540 634
f 538 42 540
f 633 634 161
f 161 634 640
f 42 626 634
f 540 633 144
f 557 556 338
f 553 333 89
f 262 21 264
f 251 21 262
f 5 335 333
f 270 251 262
f 21 251 249
f 600 593 30
f 606 593 600
f 600 30 375
f 593 390 30
f 30 377 375
f 390 388 30
f 30 388 377
f 228 243 241
f 470 478 459
f 470 127 478
f 127 477 478
f 184 186 185
f 478 477 476
f 122 478 476
f 357 74 280
f 518 39 507
f 344 342 85
f 325 344 85
f 342 344 343
f 85 342 321
f 344 90 343
f 90 344 336
f 482 129 481
f 482 481 457
f 482 457 123
f 481 37 457
f 449 447 34
f 435 449 34
f 470 472 471
f 472 470 37
f 470 471 127
f 472 126 471
f 126 468 471
f 470 459 37
f 491 126 472
f 504 129 485
f 221 59 242
f 125 463 465
f 437 34 562
f 561 437 562
f 554 568 562
f 34 554 562
f 437 561 116
f 390 103 389
f 103 386 389
f 392 105 391
f 572 586 580
f 572 580 36
f 586 152 580
f 473 572 36
f 244 243 242
f 225 244 59
f 64 240 241
f 240 239 241
f 237 240 64
f 243 64 241
f 236 237 64
f 411 607 521
f 9 411 521
f 110 607 411
f 607 142 521
f 610 607 110
f 171 15 184
f 171 169 15
f 15 186 184
f 87 584 581
f 153 588 582
f 588 575 582
f 381 102 380
f 573 572 473
f 468 469 128
f 474 468 128
f 469 571 128
f 571 573 128
f 573 473 128
f 473 474 128
f 564 323 565
f 26 323 564
f 323 324 86
f 325 323 26
f 325 324 323
f 563 565 86
f 324 325 85
f 410 230 18
f 230 228 18
f 18 228 241
f 18 241 239
f 401 619 618
f 401 402 107
f 403 402 401
f 619 159 618
f 401 618 32
f 619 401 107
f 403 401 32
f 618 611 32
f 159 624 618
f 478 122 459
f 122 458 459
f 37 459 457
f 459 458 457
f 122 456 458
f 457 458 123
f 191 190 192
f 485 129 484
f 129 482 484
f 483 485 484
f 130 483 484
f 189 187 14
f 191 50 189
f 191 189 175
f 189 14 175
f 14 177 175
f 499 501 500
f 501 499 38
f 38 499 590
f 135 499 500
f 488 501 38
f 499 135 591
f 480 454 4
f 284 12 346
f 4 423 506
f 480 4 506
f 423 531 506
f 480 506 505
f 531 137 506
f 506 137 505
f 365 366 98
f 71 270 262
f 270 71 269
f 71 267 269
f 335 334 333
f 333 334 89
f 334 335 91
f 536 9 519
f 465 463 461
f 537 140 541
f 520 140 519
f 119 446 465
f 465 461 119
f 461 441 119
f 460 441 461
f 176 46 173
f 299 297 24
f 71 263 266
f 263 260 266
f 260 72 266
f 263 70 260
f 205 201 49
f 201 181 49
f 186 205 49
f 181 201 200
f 181 182 49
f 284 77 283
f 586 587 152
f 588 586 151
f 20 267 265
f 266 267 71
f 31 417 631
f 631 417 632
f 31 631 639
f 417 31 419
f 641 631 161
f 417 112 632
f 161 631 632
f 418 417 419
f 417 418 112
f 284 345 77
f 542 550 145
f 542 541 524
f 284 174 12
f 48 174 283
f 373 20 265
f 373 265 374
f 609 608 525
f 608 157 622
f 560 559 313
f 636 637 162
f 541 140 524
f 41 542 524
f 358 357 280
f 70 263 264
f 263 262 264
f 176 177 46
f 174 48 173
f 174 173 172
f 538 551 549
f 538 540 539
f 537 541 539
f 232 221 242
f 17 221 232
f 232 242 62
f 231 232 62
f 203 205 55
f 203 55 202
f 201 205 203
f 202 55 217
f 205 206 55
f 204 203 202
f 73 275 292
f 292 290 73
f 272 290 282
f 290 292 291
f 75 290 291
f 290 75 282
f 70 277 259
f 277 70 281
f 277 281 279
f 260 70 259
f 12 174 172
f 104 396 388
f 367 27 354
f 365 27 367
f 354 27 356
f 365 367 366
f 595 27 365
f 318 299 310
f 155 596 597
f 155 597 598
f 596 594 597
f 595 596 155
f 605 595 155
f 180 47 179
f 180 190 47
f 352 372 11
f 11 372 261
f 312 310 24
f 642 636 162
f 636 297 637
f 367 369 97
f 366 367 97
f 369 367 354
f 369 370 97
f 580 579 464
f 580 152 579
f 579 124 464
f 61 230 409
f 230 410 409
f 230 61 229
f 230 229 228
f 76 285 286
f 353 352 276
f 74 353 276
f 288 76 286
f 288 286 283
f 289 288 287
f 203 54 201
f 287 288 77
f 77 288 283
f 286 48 283
f 531 423 113
f 276 11 259
f 11 261 259
f 277 276 259
f 616 158 615
f 516 616 615
f 138 516 615
f 138 615 612
f 509 533 532
f 503 502 504
f 635 79 294
f 635 294 404
f 635 637 79
f 637 635 638
f 638 635 108
f 635 404 108
f 226 61 405
f 61 226 227
f 405 61 409
f 227 226 207
f 48 178 179
f 48 286 178
f 173 48 179
f 534 143 533
f 534 535 143
f 531 534 533
f 533 143 532
f 137 531 533
f 261 372 371
f 13 180 178
f 285 13 178
f 180 13 166
f 13 168 166
f 346 345 284
f 331 327 46
f 46 327 172
f 172 327 326
f 382 620 101
f 442 121 448
f 443 121 442
f 2 226 404
f 294 2 404
f 404 226 405
f 207 226 2
f 550 551 145
f 552 146 551
f 143 550 532
f 552 550 143
f 330 329 328
f 24 636 629
f 94 352 353
f 352 11 276
f 113 428 534
f 428 535 534
f 509 41 511
f 535 552 143
f 550 552 551
f 550 542 532
f 369 95 368
f 326 327 87
f 87 327 329
f 327 331 329
f 581 326 87
f 293 79 298
f 79 297 298
f 296 298 78
f 79 293 294
f 296 293 298
f 598 490 38
f 358 280 22
f 280 279 278
f 357 358 95
f 74 357 353
f 330 328 25
f 567 23 559
f 590 598 38
f 590 604 598
f 598 604 155
f 604 590 154
f 590 591 154
f 604 154 606
f 297 299 298
f 299 318 78
f 298 299 78
f 355 354 356
f 629 636 642
f 312 24 629
f 629 642 160
f 370 362 97
f 362 363 97
f 363 366 97
f 364 363 362
f 362 370 351
f 96 363 364
f 297 636 24
f 162 637 638
f 637 297 79
f 490 488 38
f 598 597 490
f 441 442 119
f 443 442 441
f 443 441 5
f 442 448 445
f 296 78 295
f 326 12 172
f 575 574 364
f 47 175 176
f 175 177 176
f 47 176 179
