# FEM surface export ¡ª frame 213
# Vertices: 642  Faces: 1280
v -0.52629781 1.63669956 -0.00002752
v 0.52620173 1.63632870 -0.00004102
v -0.56867546 0.00076286 0.00024844
v 0.56062895 0.00000000 0.00000891
v -0.00026087 0.26941827 0.87378889
v -0.00023864 1.31285751 0.85224193
v -0.00061696 0.27079862 -0.87563539
v 0.00005599 1.31234932 -0.85182887
v 0.85563862 0.79070747 -0.52879149
v 0.85534024 0.79008859 0.52824491
v -0.85560834 0.79117435 -0.52911252
v -0.85548908 0.79050767 0.52859229
v -0.81044555 1.28652298 0.30966279
v -0.50127339 1.09676301 0.81079561
v -0.30936253 1.59493208 0.50048572
v 0.30936569 1.59494245 0.50051695
v 0.00006085 1.78557622 -0.00002188
v 0.30937526 1.59485614 -0.50048411
v -0.30925637 1.59508634 -0.50054818
v -0.50106210 1.09650874 -0.81103182
v -0.81045473 1.28695834 -0.30958596
v -1.00487709 0.78946155 -0.00014078
v 0.50181496 1.09713066 0.81134772
v 0.81032777 1.28647423 0.30944675
v -0.50838667 0.48621088 0.82336980
v -0.00021865 0.78990185 1.00574589
v -0.83069539 0.29762560 -0.31735310
v -0.83038330 0.29747674 0.31867054
v -0.00016571 0.79102403 -1.00600183
v -0.50709838 0.48470256 -0.82143122
v 0.81030154 1.28663099 -0.30953461
v 0.50095254 1.09636974 -0.81059831
v 0.83371389 0.29608363 0.31696919
v 0.50849146 0.48509729 0.82231772
v 0.33027902 0.01723420 0.52905250
v -0.32774776 0.01513588 0.53070581
v -0.00376757 0.00000000 0.00309374
v -0.32636800 0.01595416 -0.52851748
v 0.32932794 0.01779937 -0.53242970
v 0.50811452 0.48531237 -0.82201612
v 0.83332849 0.29686052 -0.31809470
v 1.00596237 0.79030192 0.00045442
v -0.69466341 1.48819685 0.16089796
v -0.58859092 1.47443116 0.42593735
v -0.43437806 1.64859307 0.26010954
v -0.70427698 0.94946867 0.69584984
v -0.68942910 1.21213698 0.58887726
v -0.86492056 1.04760814 0.43507105
v -0.16083260 1.47996545 0.70280200
v -0.42604315 1.37415254 0.68909764
v -0.26055121 1.22117913 0.86431170
v -0.16249387 1.73671031 0.26308322
v -0.27339867 1.74761868 0.00000258
v 0.16081798 1.47983325 0.70281440
v 0.00005039 1.63637686 0.52615684
v 0.27349195 1.74749017 0.00001568
v 0.16269450 1.73679066 0.26312402
v 0.43434834 1.64840198 0.26011804
v -0.16250430 1.73673201 -0.26310840
v -0.43429771 1.64870405 -0.26016098
v 0.43429744 1.64837265 -0.26015157
v 0.16262627 1.73668385 -0.26310763
v -0.16066049 1.47979903 -0.70277989
v 0.00014939 1.63641083 -0.52620327
v 0.16093321 1.47970307 -0.70283717
v -0.58847076 1.47448719 -0.42583826
v -0.69459105 1.48820889 -0.16087534
v -0.26034614 1.22075665 -0.86425763
v -0.42576328 1.37421799 -0.68910223
v -0.86516309 1.04812467 -0.43523324
v -0.68932861 1.21253550 -0.58907646
v -0.70447296 0.94954044 -0.69638240
v -0.85219961 1.31250679 0.00013182
v -0.96712196 0.79037720 -0.27519619
v -0.95404613 1.05091608 -0.16290586
v -0.95383292 1.05044425 0.16305380
v -0.96683306 0.78965843 0.27467319
v 0.58858556 1.47416317 0.42578682
v 0.69451457 1.48796570 0.16063929
v 0.26051408 1.22060025 0.86447877
v 0.42590657 1.37406588 0.68906814
v 0.86498576 1.04756677 0.43513668
v 0.68979502 1.21227062 0.58869553
v 0.70465505 0.94899076 0.69553906
v -0.26384023 0.95141327 0.95466465
v -0.00018436 1.06123650 0.96472275
v -0.70953584 0.63229585 0.70083380
v -0.52903157 0.79135191 0.85544842
v -0.00017429 0.51937407 0.97529805
v -0.26579627 0.62990862 0.96120334
v -0.26540023 0.36087969 0.88293195
v -0.96284175 0.53032649 0.16484915
v -0.87375331 0.53345674 0.43971607
v -0.87348664 0.53450376 -0.44012338
v -0.96404678 0.53100020 -0.16513780
v -0.73033577 0.10480704 0.17052051
v -0.87473643 0.27308115 -0.00002085
v -0.72717631 0.10243492 -0.16789770
v -0.52880746 0.79024106 -0.85603666
v -0.70871437 0.63198018 -0.70096362
v -0.00005718 1.06148744 -0.96455282
v -0.26375416 0.95132953 -0.95467824
v -0.26647997 0.36028171 -0.88224119
v -0.26479033 0.62918359 -0.95976532
v 0.00025945 0.52100968 -0.97521824
v 0.42584980 1.37378848 -0.68894160
v 0.26053226 1.22055948 -0.86395520
v 0.69439220 1.48780167 -0.16083398
v 0.58841479 1.47397768 -0.42562944
v 0.70430231 0.94950521 -0.69621193
v 0.68930739 1.21230292 -0.58880132
v 0.86523634 1.04797220 -0.43524212
v 0.72842938 0.09888770 0.16750602
v 0.61783803 0.11398401 0.44559184
v 0.46617311 0.00000000 0.28025267
v 0.70946461 0.63178957 0.70077986
v 0.70369387 0.36925858 0.60206348
v 0.87292868 0.53262877 0.43914437
v 0.16685431 0.10804168 0.72997314
v 0.44026539 0.21000160 0.71347302
v 0.26524007 0.36151695 0.88284677
v 0.17418414 0.00000000 0.28265697
v 0.28897148 0.00000000 -0.00578355
v -0.16668023 0.10898641 0.73076695
v 0.00162556 0.00048081 0.56290442
v -0.29556763 0.00000000 -0.00075603
v -0.17498201 0.00000000 0.28252545
v -0.46502116 0.00000000 0.27730310
v 0.17107281 0.00000000 -0.28359640
v 0.46520200 0.00000000 -0.27647987
v -0.46479079 0.00000000 -0.28205657
v -0.17471413 0.00000000 -0.28473461
v 0.16733524 0.10912166 -0.73713654
v -0.00173090 0.00000000 -0.55928236
v -0.16689986 0.10685323 -0.73361135
v 0.61636227 0.11472142 -0.44555259
v 0.72733468 0.09895011 -0.16852622
v 0.26599538 0.36086321 -0.88250840
v 0.43892825 0.21189973 -0.71297336
v 0.87435520 0.53355265 -0.43957278
v 0.70404959 0.37051812 -0.60184491
v 0.70911413 0.63208777 -0.70102394
v 0.87716311 0.26975417 -0.00153217
v 0.96787423 0.79067236 -0.27489662
v 0.96359020 0.53050685 -0.16471595
v 0.96198547 0.52936262 0.16393971
v 0.96634281 0.78941405 0.27481985
v 0.26530811 0.62983656 0.96014047
v 0.52928615 0.79076087 0.85524642
v 0.26380318 0.95136750 0.95491910
v -0.61502415 0.11658073 0.44668216
v -0.44068277 0.21073744 0.71494645
v -0.70342678 0.37067032 0.60257614
v -0.44324222 0.20884506 -0.71601254
v -0.61616862 0.11576992 -0.44497502
v -0.70371515 0.36934853 -0.60110641
v 0.52847022 0.79009765 -0.85510725
v 0.26547399 0.63105637 -0.96098697
v 0.26392418 0.95131886 -0.95437080
v 0.95358640 1.05071318 0.16323401
v 0.95380515 1.05082893 -0.16268836
v 0.85182136 1.31215286 -0.00001061
v -0.61631018 1.56988859 0.08121394
v -0.57188350 1.57867789 0.21326281
v -0.48487604 1.65081501 0.13132024
v -0.70826489 1.38786435 0.37230900
v -0.64826137 1.48857713 0.29649541
v -0.75974154 1.39307034 0.23749466
v -0.37547594 1.62984598 0.38402483
v -0.51669347 1.56952047 0.34657702
v -0.45451823 1.54403698 0.46902248
v -0.78716362 0.87064695 0.61819690
v -0.79492372 1.00146210 0.57296240
v -0.86800158 0.92011160 0.48625961
v -0.60274148 1.15898323 0.70846540
v -0.70384687 1.08368504 0.64890480
v -0.60829759 1.02523005 0.76026559
v -0.84562522 1.17041314 0.37586662
v -0.78515607 1.13356423 0.51721144
v -0.75926423 1.25498891 0.45470709
v -0.08125241 1.40225708 0.78484386
v -0.21343671 1.35783863 0.79383600
v -0.13161471 1.27144003 0.86657798
v -0.37221208 1.49322164 0.60217124
v -0.29645610 1.43377769 0.70313448
v -0.23731673 1.54460192 0.60738891
v -0.38445449 1.16237128 0.84553123
v -0.34680218 1.30298340 0.78472978
v -0.46934986 1.24087393 0.75929689
v -0.64759105 1.35061705 0.51421380
v -0.56518996 1.29997301 0.64757824
v -0.51408517 1.43286777 0.56495470
v -0.35850748 1.71000087 0.13178182
v -0.40363148 1.70076740 0.00002153
v -0.23880823 1.67681777 0.38657764
v -0.30153698 1.70198858 0.26431882
v -0.13800056 1.77626789 -0.00001739
v -0.22020236 1.75197458 0.13288945
v -0.08222016 1.77340686 0.13313939
v 0.08117435 1.40205443 0.78476298
v 0.00003898 1.48907733 0.71193820
v 0.15658055 1.62586975 0.51968032
v 0.08125446 1.56607354 0.62068677
v 0.23733024 1.54449666 0.60744971
v -0.08111473 1.56607783 0.62073195
v -0.15651174 1.62607062 0.51972604
v 0.40375742 1.70063782 0.00001899
v 0.35859466 1.70987475 0.13179046
v 0.48488796 1.65063310 0.13127446
v 0.08240315 1.77324641 0.13317786
v 0.22038877 1.75205064 0.13293330
v 0.13812704 1.77614403 0.00001779
v 0.37545058 1.62962639 0.38393229
v 0.30162242 1.70196390 0.26434705
v 0.23891363 1.67666233 0.38651162
v -0.08230074 1.69875121 0.40000358
v 0.08240257 1.69859433 0.39983621
v 0.00009125 1.74956775 0.26660982
v -0.35847095 1.71003866 -0.13176832
v -0.48485869 1.65084159 -0.13135016
v -0.08224120 1.77335453 -0.13321844
v -0.22026037 1.75216842 -0.13295341
v -0.37530899 1.62986565 -0.38400409
v -0.30146062 1.70202315 -0.26430064
v -0.23881313 1.67684913 -0.38652739
v 0.48488620 1.65065646 -0.13133357
v 0.35859063 1.70997036 -0.13174847
v 0.23894812 1.67673409 -0.38654432
v 0.30156001 1.70192087 -0.26434040
v 0.37542349 1.62965047 -0.38398170
v 0.22030959 1.75203085 -0.13290073
v 0.08234192 1.77331412 -0.13319489
v -0.08111281 1.40193367 -0.78478181
v 0.00012008 1.48886883 -0.71206045
v 0.08127369 1.40175772 -0.78476232
v -0.15644740 1.62600744 -0.51974279
v -0.08103684 1.56613708 -0.62085396
v -0.23720759 1.54462075 -0.60743475
v 0.23742566 1.54450667 -0.60746098
v 0.08137801 1.56608808 -0.62086761
v 0.15667841 1.62592125 -0.51971400
v 0.00004831 1.74949718 -0.26662588
v 0.08248764 1.69866800 -0.39990678
v -0.08228660 1.69873691 -0.39995334
v -0.57179034 1.57869816 -0.21330541
v -0.61633468 1.56992340 -0.08117353
v -0.45437211 1.54397523 -0.46894312
v -0.51664162 1.56964469 -0.34658974
v -0.75978947 1.39343810 -0.23747908
v -0.64819676 1.48857415 -0.29642522
v -0.70817113 1.38804662 -0.37232056
v -0.13138099 1.27140009 -0.86634916
v -0.21325821 1.35767901 -0.79379326
v -0.46918809 1.24087417 -0.75921416
v -0.34658375 1.30273318 -0.78465563
v -0.38441005 1.16238070 -0.84566587
v -0.29624739 1.43370986 -0.70326579
v -0.37204224 1.49332416 -0.60222596
v -0.86848700 0.92067957 -0.48656553
v -0.79528111 1.00183868 -0.57329667
v -0.78726244 0.87090665 -0.61869687
v -0.75922179 1.25549650 -0.45498705
v -0.78519875 1.13390696 -0.51744837
v -0.84579343 1.17113519 -0.37592155
v -0.60845995 1.02515411 -0.76104182
v -0.70407242 1.08387828 -0.64925963
v -0.60268152 1.15872765 -0.70869309
v -0.51390517 1.43290210 -0.56504101
v -0.56512350 1.30000651 -0.64776313
v -0.64744091 1.35084081 -0.51416546
v -0.70381910 1.49758053 0.00006476
v -0.84176642 1.30622375 -0.15673085
v -0.78136319 1.40670514 -0.08121148
v -0.78126967 1.40657675 0.08131442
v -0.84160757 1.30592895 0.15683028
v -0.92018002 0.79083055 -0.40586063
v -0.92800027 0.92101341 -0.35965702
v -0.99167180 0.92188573 -0.08243352
v -0.96994644 0.92164761 -0.22092885
v -0.99586713 0.78994089 -0.13876078
v -0.91890496 1.05227232 -0.30212396
v -0.89305502 1.17360854 -0.23918554
v -0.92777711 0.92043447 0.35971034
v -0.92017972 0.79015309 0.40578073
v -0.89300293 1.17319369 0.23928465
v -0.91871256 1.05158544 0.30211812
v -0.99557757 0.78949887 0.13863583
v -0.96992356 0.92098361 0.22101176
v -0.99141854 0.92153025 0.08260439
v -0.91525549 1.18704629 -0.08240713
v -0.96682090 1.05426276 0.00019850
v -0.91513151 1.18675697 0.08267576
v 0.57181340 1.57854259 0.21317607
v 0.61615533 1.56954062 0.08103076
v 0.45448181 1.54383266 0.46894082
v 0.51666337 1.56932271 0.34645417
v 0.75959194 1.39292145 0.23730960
v 0.64817727 1.48834062 0.29627991
v 0.70815665 1.38781214 0.37219906
v 0.13138714 1.27131045 0.86678874
v 0.21330188 1.35744750 0.79369038
v 0.46956703 1.24107790 0.75939786
v 0.34670237 1.30260336 0.78468519
v 0.38462353 1.16217768 0.84567380
v 0.29626712 1.43331611 0.70310891
v 0.37210920 1.49295175 0.60209233
v 0.86791003 0.91959840 0.48570710
v 0.79489022 1.00063789 0.57229185
v 0.78737289 0.87038887 0.61772507
v 0.75936240 1.25512779 0.45470285
v 0.78537554 1.13330579 0.51704192
v 0.84554297 1.17051494 0.37575525
v 0.60932702 1.02542233 0.76079035
v 0.70435601 1.08344758 0.64840043
v 0.60343754 1.15922034 0.70860940
v 0.51412010 1.43264866 0.56494933
v 0.56541109 1.30017948 0.64754450
v 0.64768589 1.35060322 0.51405466
v -0.13213268 1.14590955 0.92661595
v -0.00016550 1.19061637 0.91703820
v -0.38735956 1.02708602 0.89360052
v -0.26489773 1.08934462 0.91863155
v -0.00022078 0.92688203 0.99443865
v -0.13330995 1.00857043 0.96944594
v -0.13385513 0.87159121 0.99225205
v -0.79005629 0.71038806 0.62027442
v -0.71566713 0.79089218 0.70683396
v -0.52472544 0.63677043 0.84946632
v -0.62518090 0.71098822 0.78596669
v -0.61498022 0.55714768 0.76930887
v -0.62274933 0.87084097 0.78309816
v -0.52112162 0.94542962 0.84298557
v -0.00033252 0.38991109 0.93363667
v -0.13445707 0.43526977 0.94071293
v -0.13376288 0.30960491 0.88736349
v -0.13443677 0.70887661 0.99525106
v -0.13463874 0.57197320 0.97751790
v -0.00083142 0.65352994 0.99928910
v -0.39163789 0.42018634 0.86108017
v -0.26860213 0.49230713 0.93124253
v -0.39133918 0.55502415 0.90368378
v -0.40169477 0.87206095 0.91726899
v -0.40343040 0.70963174 0.92116106
v -0.26822376 0.79068345 0.97009033
v -0.93227148 0.66035402 0.36149207
v -0.87235266 0.66033894 0.48860773
v -0.99578810 0.65855837 0.08303296
v -0.97424752 0.65880239 0.22193252
v -0.86055839 0.41182461 0.38315567
v -0.92818385 0.52946979 0.30554655
v -0.90748209 0.40912691 0.24378268
v -0.87239856 0.66169775 -0.48928291
v -0.93243372 0.66079098 -0.36204535
v -0.90845251 0.40957159 -0.24358229
v -0.92803675 0.53015751 -0.30568993
v -0.86016250 0.41198006 -0.38279006
v -0.97487026 0.65951556 -0.22255370
v -0.99652565 0.65864879 -0.08337438
v -0.65568829 0.03486454 0.08609549
v -0.73877174 0.09564993 0.00124757
v -0.65424293 0.03496236 -0.08537126
v -0.86416978 0.28059217 0.16147774
v -0.81014383 0.18158947 0.08534691
v -0.78870916 0.19416079 0.24746031
v -0.78420168 0.19215727 -0.24580567
v -0.80966276 0.18040718 -0.08421367
v -0.86296344 0.27795160 -0.16147931
v -0.97720742 0.52735776 -0.00003631
v -0.93176204 0.39639860 -0.08463959
v -0.93249995 0.39684665 0.08304285
v -0.71502465 0.79072452 -0.70708841
v -0.78964275 0.71085858 -0.62071192
v -0.52116132 0.94481623 -0.84338367
v -0.62289917 0.87047708 -0.78364038
v -0.61403137 0.55603307 -0.76808524
v -0.62456483 0.71013981 -0.78659916
v -0.52372235 0.63536024 -0.84851241
v 0.00008049 1.19071376 -0.91673172
v -0.13190207 1.14585125 -0.92637402
v -0.13377538 0.87189239 -0.99211210
v -0.13324055 1.00871992 -0.96951616
v -0.00015475 0.92744303 -0.99446177
v -0.26482645 1.08911717 -0.91876382
v -0.38740051 1.02699554 -0.89373326
v -0.13523336 0.31116182 -0.88943917
v -0.13457121 0.43616277 -0.94109160
v -0.00007223 0.39222443 -0.93456084
v -0.39001331 0.55381900 -0.90160120
v -0.26781034 0.49212515 -0.92972469
v -0.39081156 0.41877177 -0.86059082
v 0.00001706 0.65455520 -0.99994838
v -0.13386948 0.57263219 -0.97655690
v -0.13404050 0.70909548 -0.99501163
v -0.40135601 0.87186182 -0.91772532
v -0.26779863 0.79011673 -0.96931106
v -0.40232736 0.70877188 -0.92034775
v 0.21340704 1.35757005 -0.79371798
v 0.13152219 1.27107179 -0.86627620
v 0.37225923 1.49301219 -0.60216010
v 0.29645863 1.43338788 -0.70315331
v 0.38434097 1.16186929 -0.84527427
v 0.34669095 1.30223823 -0.78439987
v 0.46912524 1.24060190 -0.75904214
v 0.61621505 1.56962085 -0.08122820
v 0.57180476 1.57846081 -0.21323605
v 0.70787013 1.38761604 -0.37203109
v 0.64806545 1.48804998 -0.29626101
v 0.75941813 1.39280689 -0.23726688
v 0.51664317 1.56922042 -0.34642565
v 0.45445839 1.54378784 -0.46893397
v 0.78728443 0.87101454 -0.61837757
v 0.79522884 1.00183809 -0.57323670
v 0.86854911 0.92064494 -0.48659155
v 0.60258633 1.15897501 -0.70843363
v 0.70370936 1.08355188 -0.64895725
v 0.60834736 1.02522945 -0.76079267
v 0.84568143 1.17099249 -0.37605646
v 0.78503674 1.13369775 -0.51732165
v 0.75904959 1.25535250 -0.45475551
v 0.51396060 1.43241835 -0.56479782
v 0.64730835 1.35053611 -0.51394212
v 0.56505740 1.29987848 -0.64745218
v 0.65322644 0.03421192 0.08800897
v 0.60872722 0.02722870 0.22854860
v 0.51858878 0.00000000 0.14092588
v 0.73429781 0.19888850 0.38460097
v 0.68208879 0.10290585 0.31003657
v 0.78762227 0.19193885 0.24398483
v 0.40424278 0.00032420 0.41076574
v 0.55014634 0.03777774 0.36864322
v 0.48231784 0.05829960 0.49663344
v 0.78947949 0.71002495 0.61976451
v 0.80208445 0.57917589 0.57766074
v 0.87224561 0.65996808 0.48849565
v 0.61362636 0.42301273 0.72128218
v 0.71244609 0.49794045 0.65689427
v 0.61451811 0.55653274 0.76836908
v 0.85880250 0.41127941 0.38197279
v 0.79595441 0.44751880 0.52473629
v 0.77786106 0.32588741 0.46651807
v 0.08281308 0.18202932 0.80971676
v 0.21791130 0.22545442 0.81913280
v 0.13400762 0.31068683 0.88617498
v 0.38837174 0.09827358 0.63058025
v 0.30709937 0.15413900 0.73115236
v 0.24971128 0.05440787 0.63536245
v 0.39067793 0.41956070 0.86072385
v 0.35555112 0.28018168 0.80649489
v 0.47944164 0.34128752 0.77630609
v 0.66837323 0.23229329 0.53066766
v 0.58092129 0.28304186 0.66629970
v 0.53551316 0.15543960 0.59050131
v 0.38249388 0.00000000 0.13759248
v 0.42923719 0.00000000 -0.00173092
v 0.25686818 0.00000000 0.41671607
v 0.32229242 0.00000000 0.28335765
v 0.14439410 0.00000000 0.00119152
v 0.23083028 0.00000000 0.13894115
v 0.08423738 0.00000000 0.14430781
v -0.08420163 0.18127540 0.80973530
v 0.00240286 0.09863997 0.74099690
v -0.16436990 0.00000000 0.55257022
v -0.08768865 0.03437193 0.65201014
v -0.24912752 0.05615145 0.63746452
v 0.08789201 0.03177270 0.65414983
v 0.16695039 0.00000000 0.55116534
v -0.43393677 0.00000000 -0.00351705
v -0.38790834 0.00000000 0.14055036
v -0.52236760 0.00000000 0.14181025
v -0.09543347 0.00000000 0.14218242
v -0.24016230 0.00000000 0.14282438
v -0.15048838 0.00000000 0.00237328
v -0.40009871 0.00103436 0.40978703
v -0.32355133 0.00000000 0.28317100
v -0.25570059 0.00000000 0.41507307
v 0.08634587 0.00000000 0.42858124
v -0.08873149 0.00000000 0.42920336
v -0.00186229 0.00000000 0.28408310
v 0.37975508 0.00000000 -0.14485252
v 0.51689225 0.00000000 -0.14002010
v 0.08811580 0.00000000 -0.13945179
v 0.23043917 0.00000000 -0.14632583
v 0.39934766 0.00059617 -0.40886423
v 0.31857756 0.00000000 -0.28635463
v 0.25497994 0.00000000 -0.41719609
v -0.52131307 0.00000000 -0.14269556
v -0.38497350 0.00000000 -0.14256094
v -0.25255013 0.00000000 -0.41484702
v -0.32622892 0.00000000 -0.28773516
v -0.39663461 0.00000000 -0.41215467
v -0.23804775 0.00000000 -0.14326914
v -0.08978383 0.00000000 -0.14350559
v 0.08269970 0.18442261 -0.81276482
v -0.00016389 0.09797641 -0.74435955
v -0.08480862 0.18308397 -0.81171536
v 0.16707155 0.00000000 -0.55038214
v 0.08764023 0.03750419 -0.65303361
v 0.24897452 0.05315776 -0.64196718
v -0.24961631 0.05727685 -0.64044958
v -0.08493281 0.03151458 -0.65603381
v -0.16688471 0.00017095 -0.55291754
v 0.00226538 0.00000000 -0.28415507
v -0.08366773 0.00000000 -0.42805117
v 0.09145088 0.00000000 -0.42421296
v 0.61099839 0.02682845 -0.22664875
v 0.65553540 0.03062884 -0.08561953
v 0.48112506 0.05303733 -0.49256599
v 0.54644102 0.03516915 -0.36689574
v 0.78795952 0.19277689 -0.24669027
v 0.68137336 0.10153536 -0.31173477
v 0.73375279 0.19940045 -0.38572946
v 0.13500988 0.31213909 -0.89073551
v 0.21878457 0.22691263 -0.81901914
v 0.47895214 0.34119809 -0.77727968
v 0.35436261 0.28095394 -0.80643117
v 0.39086676 0.41971096 -0.86068392
v 0.30787265 0.15431677 -0.73098189
v 0.38643104 0.09689592 -0.62808698
v 0.87266755 0.66100419 -0.48876604
v 0.80193692 0.58038545 -0.57818693
v 0.79006571 0.71095502 -0.62050915
v 0.77762485 0.32807377 -0.46678695
v 0.79714465 0.44884962 -0.52539778
v 0.86127043 0.41115141 -0.38290927
v 0.61473233 0.55630440 -0.76847339
v 0.71305162 0.49805981 -0.65738159
v 0.61222476 0.42296576 -0.72074258
v 0.53135026 0.15407401 -0.58723444
v 0.57962775 0.28330198 -0.66544110
v 0.66589051 0.23436187 -0.53034210
v 0.73750472 0.09087135 -0.00109651
v 0.86624241 0.27635449 -0.16165563
v 0.80997247 0.17679784 -0.08616266
v 0.81222641 0.17834565 0.08201072
v 0.86493087 0.27532879 0.15920582
v 0.92053866 0.79084700 -0.40584141
v 0.93259799 0.66028833 -0.36141425
v 0.99636376 0.65895444 -0.08299877
v 0.97520387 0.65936899 -0.22213644
v 0.99668509 0.79103142 -0.13847962
v 0.92908973 0.52919841 -0.30554417
v 0.90937734 0.40821713 -0.24373303
v 0.93158478 0.65932274 0.36112046
v 0.91940325 0.78965205 0.40508133
v 0.90673727 0.40809584 0.24210893
v 0.92702198 0.52825201 0.30444455
v 0.99556851 0.79012644 0.13944477
v 0.97353995 0.65820432 0.22151847
v 0.99607414 0.65851390 0.08307379
v 0.93157804 0.39522362 -0.08452816
v 0.97642064 0.52665234 -0.00004528
v 0.93049717 0.39443395 0.08314632
v 0.13346530 0.43586099 0.94111973
v 0.39114478 0.55482817 0.90194178
v 0.26810229 0.49306664 0.93091518
v 0.13408835 0.57250196 0.97777927
v 0.13352658 0.70848143 0.99445724
v 0.71550244 0.79038203 0.70604193
v 0.52206093 0.94557816 0.84324837
v 0.62337840 0.87026423 0.78299916
v 0.62542707 0.71081352 0.78563905
v 0.52463996 0.63602495 0.84833634
v 0.13181077 1.14527512 0.92652625
v 0.13344543 0.87143540 0.99229777
v 0.13298957 1.00824916 0.96973497
v 0.26486325 1.08898115 0.91904694
v 0.38766858 1.02690041 0.89368802
v 0.40260911 0.70902807 0.91922855
v 0.40177351 0.87217116 0.91752428
v 0.26766106 0.79029876 0.96911567
v -0.61231697 0.03204084 0.23047550
v -0.47831991 0.05405808 0.49507272
v -0.54858506 0.03336610 0.36989546
v -0.68157476 0.10367077 0.31349581
v -0.73193485 0.19714834 0.38715994
v -0.22040585 0.22730403 0.81945497
v -0.48073965 0.34256405 0.77819103
v -0.35661498 0.28236422 0.80713588
v -0.30895373 0.15545245 0.73325974
v -0.39017108 0.10005728 0.63221616
v -0.80164301 0.58008426 0.57811844
v -0.77630436 0.32771438 0.46695536
v -0.79705536 0.44862089 0.52582073
v -0.71363449 0.49841765 0.65831292
v -0.61355501 0.42382407 0.72330749
v -0.53485894 0.15508576 0.58940351
v -0.57994616 0.28328043 0.66604310
v -0.66515255 0.23403215 0.53093791
v -0.22074281 0.22615051 -0.81770790
v -0.39055029 0.09786691 -0.62883359
v -0.31110370 0.14914010 -0.73366529
v -0.35637489 0.27923334 -0.80537450
v -0.48001984 0.34151751 -0.77633268
v -0.60706884 0.02820973 -0.22619548
v -0.73314971 0.19781236 -0.38564956
v -0.67812443 0.10115297 -0.31156400
v -0.54275924 0.03335188 -0.36639053
v -0.47929442 0.05172221 -0.49445963
v -0.80147964 0.58064473 -0.57852793
v -0.61226767 0.42314968 -0.71992797
v -0.71315795 0.49770501 -0.65795201
v -0.79638141 0.44853479 -0.52559286
v -0.77600157 0.32794330 -0.46519348
v -0.53499573 0.15247026 -0.58718342
v -0.66768730 0.23269424 -0.53152400
v -0.58044940 0.28301284 -0.66571468
v 0.71541131 0.79078412 -0.70714712
v 0.52444172 0.63614434 -0.84847140
v 0.62482083 0.71053994 -0.78611732
v 0.62281740 0.87084967 -0.78351384
v 0.52087998 0.94495457 -0.84284735
v 0.13422482 0.43700004 -0.94177860
v 0.13396391 0.70964348 -0.99555039
v 0.13427508 0.57345849 -0.97805941
v 0.26833180 0.49363503 -0.93113285
v 0.39128390 0.55500007 -0.90254730
v 0.13204211 1.14556241 -0.92622983
v 0.38726488 1.02661061 -0.89316219
v 0.26479292 1.08867824 -0.91804212
v 0.13326068 1.00879431 -0.96941829
v 0.13341855 0.87230128 -0.99229193
v 0.40269366 0.70927507 -0.91966927
v 0.26780859 0.79086512 -0.96934789
v 0.40131769 0.87142044 -0.91639864
v 0.92749417 0.92031157 0.35954407
v 0.99144632 0.92211878 0.08333720
v 0.96978849 0.92143267 0.22136295
v 0.91887105 1.05206001 0.30224982
v 0.89290547 1.17342186 0.23920819
v 0.92832524 0.92081308 -0.35968557
v 0.89283895 1.17340207 -0.23917404
v 0.91910422 1.05232060 -0.30214906
v 0.97046912 0.92191660 -0.22096132
v 0.99184871 0.92238331 -0.08196046
v 0.70364815 1.49722850 -0.00015873
v 0.84142077 1.30580068 0.15661599
v 0.78112465 1.40639377 0.08115812
v 0.78097332 1.40621161 -0.08119286
v 0.84125143 1.30567884 -0.15657476
v 0.96652019 1.05446374 0.00030959
v 0.91442323 1.18650091 -0.08241225
v 0.91474873 1.18657029 0.08254387
f 330 87 329
f 336 325 26
f 207 208 56
f 464 36 580
f 502 129 504
f 157 624 622
f 308 311 82
f 247 223 248
f 507 483 508
f 331 88 329
f 494 500 497
f 156 601 602
f 591 589 592
f 365 98 596
f 75 281 282
f 152 587 577
f 149 559 560
f 555 121 553
f 530 141 529
f 515 517 139
f 361 594 98
f 250 67 249
f 157 608 609
f 294 293 209
f 317 81 316
f 557 338 26
f 303 305 81
f 530 529 528
f 101 381 382
f 415 418 111
f 192 184 50
f 412 110 411
f 20 384 256
f 131 594 486
f 281 264 282
f 347 287 348
f 28 349 582
f 165 163 1
f 248 250 66
f 617 107 398
f 273 271 274
f 456 115 453
f 558 561 560
f 335 576 91
f 331 177 332
f 116 433 436
f 351 370 92
f 136 511 530
f 239 240 65
f 247 258 19
f 304 23 567
f 148 557 570
f 214 208 58
f 440 426 450
f 268 270 269
f 258 247 268
f 204 202 16
f 466 125 465
f 517 513 133
f 168 275 274
f 275 73 274
f 198 193 53
f 309 308 307
f 510 511 136
f 415 416 110
f 131 490 597
f 473 475 474
f 414 415 111
f 493 495 494
f 496 504 485
f 433 116 432
f 600 375 601
f 240 234 65
f 418 415 412
f 486 361 3
f 567 566 304
f 380 393 29
f 17 199 197
f 491 492 132
f 451 449 435
f 218 217 216
f 623 621 613
f 396 104 395
f 433 439 436
f 628 160 627
f 215 202 217
f 209 207 2
f 427 113 424
f 434 10 544
f 434 433 432
f 199 17 210
f 150 564 565
f 489 491 132
f 275 13 285
f 497 500 134
f 125 466 476
f 578 152 577
f 208 214 211
f 328 88 343
f 356 27 603
f 150 566 567
f 372 100 371
f 190 191 47
f 235 8 398
f 260 261 72
f 422 403 414
f 422 414 111
f 453 454 123
f 349 583 582
f 521 520 519
f 425 453 115
f 616 622 158
f 483 130 508
f 151 586 572
f 212 17 232
f 400 397 402
f 377 396 99
f 41 522 511
f 510 508 505
f 549 547 42
f 475 473 36
f 510 137 509
f 222 221 197
f 430 115 429
f 220 194 1
f 305 54 204
f 621 29 613
f 192 171 184
f 460 335 5
f 88 331 332
f 74 277 279
f 300 301 80
f 390 389 388
f 165 45 164
f 146 549 551
f 291 278 75
f 448 120 445
f 147 543 544
f 607 610 609
f 603 602 356
f 139 529 514
f 333 553 443
f 92 368 347
f 261 260 259
f 300 6 200
f 46 177 331
f 284 283 174
f 301 300 200
f 471 468 474
f 54 305 301
f 302 304 303
f 569 150 567
f 150 569 570
f 294 209 2
f 628 629 160
f 548 543 147
f 147 625 627
f 63 233 234
f 426 427 114
f 41 509 532
f 198 52 196
f 614 105 612
f 147 627 547
f 81 305 306
f 549 548 547
f 54 301 200
f 342 88 332
f 264 281 70
f 193 194 53
f 455 429 456
f 187 321 14
f 479 130 484
f 147 544 625
f 458 456 453
f 304 80 303
f 314 84 313
f 488 503 501
f 321 332 14
f 423 425 424
f 305 204 306
f 341 339 25
f 514 40 516
f 625 628 627
f 340 339 341
f 105 614 391
f 243 228 62
f 318 316 78
f 75 278 279
f 357 355 353
f 238 257 63
f 466 455 476
f 425 423 4
f 448 449 120
f 408 638 108
f 292 275 285
f 22 278 289
f 515 513 517
f 501 503 134
f 622 623 158
f 134 503 504
f 195 216 206
f 163 271 246
f 619 617 620
f 62 228 229
f 163 165 164
f 453 425 454
f 489 132 488
f 82 628 625
f 58 208 209
f 525 608 40
f 626 547 627
f 518 517 498
f 489 487 491
f 557 26 564
f 325 336 344
f 541 145 539
f 40 616 516
f 338 556 89
f 250 248 245
f 139 514 515
f 98 594 596
f 246 220 1
f 112 413 630
f 9 536 413
f 156 600 601
f 332 177 14
f 321 342 332
f 156 606 600
f 584 330 585
f 302 303 81
f 584 87 330
f 330 25 585
f 400 239 65
f 439 440 117
f 95 358 368
f 597 594 131
f 594 361 486
f 246 67 245
f 561 562 149
f 28 364 362
f 55 216 217
f 427 430 114
f 267 20 254
f 556 555 553
f 84 309 558
f 311 310 312
f 609 525 142
f 256 68 255
f 124 460 461
f 82 311 312
f 307 308 82
f 589 135 495
f 527 40 514
f 112 418 412
f 20 256 254
f 258 238 19
f 267 254 269
f 273 272 249
f 392 391 393
f 137 533 509
f 122 455 456
f 9 413 411
f 130 480 505
f 333 443 5
f 527 525 40
f 589 495 385
f 39 496 485
f 223 225 224
f 414 416 415
f 219 222 53
f 145 538 539
f 413 412 411
f 469 468 467
f 183 181 6
f 191 192 50
f 429 35 431
f 292 285 76
f 413 112 412
f 415 110 412
f 43 164 167
f 467 468 126
f 617 101 620
f 450 451 117
f 438 546 545
f 619 620 159
f 17 212 210
f 124 579 576
f 584 153 583
f 460 124 576
f 3 469 467
f 311 308 314
f 6 320 183
f 389 104 388
f 251 250 249
f 194 165 1
f 291 289 278
f 287 77 348
f 238 258 257
f 139 517 518
f 238 236 19
f 223 247 19
f 382 380 29
f 39 518 498
f 361 359 3
f 69 255 257
f 139 518 528
f 33 545 535
f 387 385 7
f 69 268 269
f 477 462 125
f 454 479 123
f 121 555 447
f 451 435 117
f 454 425 4
f 233 252 8
f 124 463 464
f 69 258 268
f 168 167 166
f 583 153 582
f 384 394 102
f 138 512 513
f 57 210 211
f 254 256 255
f 607 609 142
f 324 319 86
f 289 291 76
f 291 292 76
f 384 102 383
f 422 421 420
f 221 17 197
f 383 102 381
f 376 377 99
f 99 373 374
f 386 105 392
f 438 33 440
f 90 341 343
f 281 75 279
f 574 571 96
f 628 82 312
f 221 222 59
f 127 471 474
f 595 605 603
f 551 538 145
f 334 91 340
f 322 324 85
f 305 303 301
f 18 239 399
f 306 204 16
f 199 198 197
f 166 190 180
f 303 80 301
f 267 266 265
f 626 42 547
f 16 215 213
f 349 351 350
f 295 16 213
f 68 379 252
f 250 251 66
f 627 160 626
f 383 68 256
f 343 88 342
f 507 508 136
f 202 215 16
f 197 198 53
f 254 69 269
f 603 605 156
f 418 419 111
f 384 383 256
f 455 122 476
f 203 204 54
f 556 557 148
f 255 68 253
f 313 84 560
f 25 328 341
f 254 255 69
f 603 156 602
f 581 584 583
f 630 632 112
f 163 246 1
f 246 245 220
f 432 116 558
f 499 591 590
f 320 563 86
f 345 93 350
f 306 16 295
f 346 93 345
f 562 568 149
f 604 605 155
f 154 592 593
f 545 552 535
f 511 522 530
f 574 573 571
f 566 150 565
f 361 98 360
f 67 271 273
f 234 235 65
f 208 211 56
f 574 151 573
f 251 270 66
f 398 8 378
f 213 215 214
f 438 440 439
f 315 314 313
f 263 71 262
f 20 373 384
f 496 134 504
f 329 88 328
f 81 306 316
f 555 556 148
f 592 589 103
f 617 619 107
f 227 207 56
f 571 359 96
f 446 466 465
f 206 216 55
f 359 571 469
f 568 148 570
f 34 437 435
f 28 351 349
f 21 272 282
f 113 423 424
f 490 489 488
f 379 68 383
f 210 212 211
f 80 563 300
f 351 92 350
f 326 346 12
f 83 317 318
f 555 148 554
f 212 231 56
f 218 57 217
f 271 67 246
f 195 196 52
f 270 268 66
f 390 592 103
f 148 568 554
f 495 493 7
f 592 390 593
f 357 95 355
f 574 575 151
f 452 120 451
f 154 591 592
f 587 585 577
f 395 394 396
f 93 349 350
f 610 416 611
f 166 44 190
f 315 23 302
f 315 302 317
f 268 247 66
f 606 154 593
f 396 394 99
f 211 212 56
f 370 369 368
f 235 397 65
f 280 278 22
f 83 315 317
f 575 588 151
f 74 279 280
f 385 495 7
f 63 257 253
f 397 235 398
f 214 58 213
f 220 219 194
f 546 146 545
f 236 225 19
f 599 94 602
f 235 233 8
f 102 394 395
f 611 416 32
f 225 223 19
f 139 528 529
f 231 62 229
f 419 406 421
f 451 450 452
f 49 182 185
f 402 397 107
f 52 199 218
f 416 610 110
f 225 236 244
f 107 397 398
f 68 252 253
f 322 85 321
f 182 181 183
f 118 438 439
f 546 438 118
f 348 77 345
f 543 546 118
f 231 212 232
f 610 611 157
f 33 438 545
f 385 386 103
f 479 480 130
f 169 195 15
f 93 583 349
f 15 195 206
f 190 44 192
f 247 248 66
f 146 552 545
f 248 60 245
f 570 557 564
f 274 271 43
f 63 253 233
f 272 21 249
f 507 528 518
f 67 273 249
f 487 467 126
f 196 195 169
f 624 159 623
f 134 496 497
f 132 503 488
f 104 393 395
f 556 553 89
f 355 356 94
f 258 69 257
f 229 61 227
f 56 231 227
f 460 576 335
f 463 124 461
f 394 373 99
f 29 393 391
f 67 250 245
f 193 198 196
f 462 36 464
f 144 633 630
f 141 526 527
f 517 133 498
f 536 144 630
f 100 372 599
f 144 536 537
f 22 289 287
f 578 579 152
f 579 578 576
f 189 188 187
f 60 223 224
f 92 348 350
f 555 554 447
f 396 377 388
f 194 193 165
f 413 536 630
f 372 352 599
f 377 376 375
f 348 345 350
f 105 386 387
f 240 237 234
f 463 462 464
f 135 500 494
f 45 196 169
f 512 612 387
f 245 60 220
f 429 115 456
f 223 60 248
f 288 289 76
f 525 526 142
f 100 599 601
f 613 29 391
f 526 523 520
f 341 328 343
f 631 641 639
f 264 21 282
f 266 72 265
f 106 402 403
f 73 273 274
f 186 206 205
f 381 379 383
f 52 216 195
f 410 18 399
f 290 272 73
f 72 371 374
f 526 525 527
f 115 430 424
f 498 497 496
f 621 382 29
f 543 118 434
f 214 215 57
f 522 141 530
f 511 510 509
f 352 94 599
f 493 512 7
f 90 340 341
f 169 171 170
f 605 604 606
f 219 60 224
f 104 389 392
f 359 469 3
f 186 49 185
f 222 219 224
f 166 167 44
f 428 427 426
f 523 522 524
f 129 502 481
f 50 185 188
f 164 45 170
f 425 115 424
f 33 428 426
f 427 428 113
f 94 356 602
f 515 138 513
f 114 431 452
f 237 236 238
f 215 217 57
f 95 354 355
f 220 60 219
f 515 514 516
f 183 320 319
f 222 197 53
f 559 569 567
f 300 320 6
f 435 436 117
f 96 360 363
f 640 642 641
f 242 243 62
f 140 537 519
f 508 130 505
f 420 410 399
f 537 539 144
f 317 316 318
f 426 114 450
f 186 15 206
f 311 83 310
f 625 544 307
f 544 10 307
f 168 43 167
f 185 182 188
f 369 354 95
f 44 171 192
f 605 606 156
f 548 549 146
f 100 601 375
f 149 568 569
f 381 380 382
f 455 466 35
f 480 479 454
f 543 548 546
f 493 133 513
f 492 472 37
f 477 125 476
f 491 487 126
f 337 336 338
f 588 153 587
f 576 578 91
f 633 161 632
f 96 359 360
f 39 485 483
f 101 617 378
f 193 45 165
f 163 164 43
f 618 624 611
f 507 136 528
f 561 149 560
f 641 162 639
f 116 561 558
f 494 133 493
f 253 252 233
f 63 237 238
f 392 393 104
f 440 450 117
f 93 581 583
f 386 385 387
f 120 449 451
f 421 422 111
f 486 3 467
f 302 81 317
f 633 632 630
f 462 475 36
f 376 99 374
f 489 490 131
f 447 449 448
f 387 612 105
f 106 420 399
f 173 46 172
f 492 491 472
f 316 306 295
f 22 287 347
f 109 410 420
f 507 39 483
f 559 23 313
f 214 57 211
f 196 45 193
f 10 434 432
f 422 106 403
f 626 160 640
f 487 486 467
f 542 41 532
f 400 106 399
f 444 120 452
f 198 199 52
f 475 127 474
f 621 620 382
f 621 623 159
f 450 114 452
f 92 347 348
f 376 100 375
f 434 118 433
f 503 132 502
f 337 90 336
f 537 536 519
f 395 393 380
f 201 54 200
f 171 44 170
f 355 94 353
f 58 296 213
f 422 420 106
f 595 365 596
f 569 568 570
f 523 140 520
f 114 430 431
f 218 210 57
f 304 566 80
f 639 162 638
f 261 371 72
f 548 147 547
f 498 133 497
f 150 570 564
f 222 224 59
f 142 526 520
f 437 436 435
f 141 522 523
f 137 510 505
f 173 179 176
f 559 149 569
f 121 447 448
f 563 320 300
f 102 395 380
f 257 255 253
f 642 162 641
f 83 311 314
f 216 52 218
f 512 493 513
f 23 304 302
f 91 339 340
f 512 138 612
f 159 620 621
f 218 199 210
f 364 28 575
f 83 318 310
f 168 274 43
f 136 530 528
f 140 523 524
f 495 135 494
f 233 235 234
f 566 563 80
f 25 339 577
f 277 74 276
f 475 462 477
f 133 494 497
f 436 437 116
f 389 386 392
f 548 146 546
f 441 460 5
f 10 309 307
f 65 397 400
f 543 434 544
f 640 641 161
f 272 273 73
f 581 93 346
f 419 421 111
f 319 320 86
f 180 179 178
f 127 475 477
f 231 229 227
f 337 334 340
f 136 508 510
f 308 309 84
f 237 63 234
f 447 554 34
f 252 379 378
f 315 83 314
f 608 622 616
f 338 336 26
f 337 338 89
f 13 275 168
f 209 208 207
f 436 439 117
f 628 312 629
f 360 366 363
f 364 574 96
f 359 361 360
f 466 446 35
f 500 501 134
f 406 109 421
f 135 589 591
f 601 599 602
f 340 90 337
f 481 492 37
f 522 41 524
f 78 316 295
f 131 486 487
f 403 32 414
f 634 626 640
f 151 572 573
f 515 516 138
f 8 252 378
f 265 72 374
f 9 521 519
f 538 549 42
f 368 358 347
f 588 587 586
f 458 453 123
f 589 385 103
f 502 492 481
f 32 416 414
f 430 427 424
f 153 585 587
f 540 144 539
f 370 368 92
f 209 293 58
f 428 33 535
f 326 581 346
f 625 307 82
f 575 28 582
f 6 181 200
f 421 109 420
f 553 121 443
f 160 642 640
f 153 584 585
f 309 432 558
f 334 337 89
f 23 315 313
f 271 163 43
f 296 295 213
f 39 498 496
f 118 439 433
f 531 113 534
f 293 296 58
f 28 362 351
f 489 131 487
f 431 444 452
f 84 558 560
f 98 366 360
f 45 169 170
f 379 101 378
f 462 463 125
f 308 84 314
f 10 432 309
f 299 24 310
f 132 492 502
f 512 387 7
f 639 638 408
f 565 323 86
f 59 244 242
f 106 400 402
f 440 33 426
f 566 565 563
f 617 398 378
f 224 225 59
f 410 109 409
f 239 400 399
f 194 219 53
f 358 22 347
f 610 157 609
f 27 595 603
f 479 484 482
f 142 520 521
f 585 25 577
f 339 578 577
f 408 407 406
f 407 109 406
f 31 408 406
f 407 408 108
f 31 639 408
f 419 31 406
f 608 616 40
f 430 429 431
f 455 35 429
f 35 444 431
f 188 51 187
f 188 182 51
f 51 322 187
f 322 51 319
f 51 182 183
f 319 51 183
f 187 322 321
f 322 319 324
f 381 101 379
f 405 407 108
f 404 405 108
f 286 285 178
f 407 405 409
f 109 407 409
f 191 175 47
f 167 164 170
f 50 184 185
f 44 167 170
f 64 244 236
f 243 244 64
f 50 188 189
f 541 542 145
f 442 445 119
f 339 91 578
f 445 446 119
f 624 623 622
f 611 624 157
f 523 526 141
f 141 527 529
f 527 514 529
f 445 120 444
f 446 445 444
f 35 446 444
f 613 614 158
f 158 614 615
f 623 613 158
f 614 613 391
f 614 612 615
f 371 376 374
f 100 376 371
f 479 482 123
f 373 394 384
f 540 42 634
f 633 540 634
f 538 42 540
f 633 634 161
f 161 634 640
f 42 626 634
f 540 633 144
f 557 556 338
f 553 333 89
f 262 21 264
f 251 21 262
f 5 335 333
f 270 251 262
f 21 251 249
f 600 593 30
f 606 593 600
f 600 30 375
f 593 390 30
f 30 377 375
f 390 388 30
f 30 388 377
f 228 243 241
f 470 478 459
f 470 127 478
f 127 477 478
f 184 186 185
f 478 477 476
f 122 478 476
f 357 74 280
f 518 39 507
f 344 342 85
f 325 344 85
f 342 344 343
f 85 342 321
f 344 90 343
f 90 344 336
f 482 129 481
f 482 481 457
f 482 457 123
f 481 37 457
f 449 447 34
f 435 449 34
f 470 472 471
f 472 470 37
f 470 471 127
f 472 126 471
f 126 468 471
f 470 459 37
f 491 126 472
f 504 129 485
f 221 59 242
f 125 463 465
f 437 34 562
f 561 437 562
f 554 568 562
f 34 554 562
f 437 561 116
f 390 103 389
f 103 386 389
f 392 105 391
f 572 586 580
f 572 580 36
f 586 152 580
f 473 572 36
f 244 243 242
f 225 244 59
f 64 240 241
f 240 239 241
f 237 240 64
f 243 64 241
f 236 237 64
f 411 607 521
f 9 411 521
f 110 607 411
f 607 142 521
f 610 607 110
f 171 15 184
f 171 169 15
f 15 186 184
f 87 584 581
f 153 588 582
f 588 575 582
f 381 102 380
f 573 572 473
f 468 469 128
f 474 468 128
f 469 571 128
f 571 573 128
f 573 473 128
f 473 474 128
f 564 323 565
f 26 323 564
f 323 324 86
f 325 323 26
f 325 324 323
f 563 565 86
f 324 325 85
f 410 230 18
f 230 228 18
f 18 228 241
f 18 241 239
f 401 619 618
f 401 402 107
f 403 402 401
f 619 159 618
f 401 618 32
f 619 401 107
f 403 401 32
f 618 611 32
f 159 624 618
f 478 122 459
f 122 458 459
f 37 459 457
f 459 458 457
f 122 456 458
f 457 458 123
f 191 190 192
f 485 129 484
f 129 482 484
f 483 485 484
f 130 483 484
f 189 187 14
f 191 50 189
f 191 189 175
f 189 14 175
f 14 177 175
f 499 501 500
f 501 499 38
f 38 499 590
f 135 499 500
f 488 501 38
f 499 135 591
f 480 454 4
f 284 12 346
f 4 423 506
f 480 4 506
f 423 531 506
f 480 506 505
f 531 137 506
f 506 137 505
f 365 366 98
f 71 270 262
f 270 71 269
f 71 267 269
f 335 334 333
f 333 334 89
f 334 335 91
f 536 9 519
f 465 463 461
f 537 140 541
f 520 140 519
f 119 446 465
f 465 461 119
f 461 441 119
f 460 441 461
f 176 46 173
f 299 297 24
f 71 263 266
f 263 260 266
f 260 72 266
f 263 70 260
f 205 201 49
f 201 181 49
f 186 205 49
f 181 201 200
f 181 182 49
f 284 77 283
f 586 587 152
f 588 586 151
f 20 267 265
f 266 267 71
f 31 417 631
f 631 417 632
f 31 631 639
f 417 31 419
f 641 631 161
f 417 112 632
f 161 631 632
f 418 417 419
f 417 418 112
f 284 345 77
f 542 550 145
f 542 541 524
f 284 174 12
f 48 174 283
f 373 20 265
f 373 265 374
f 609 608 525
f 608 157 622
f 560 559 313
f 636 637 162
f 541 140 524
f 41 542 524
f 358 357 280
f 70 263 264
f 263 262 264
f 176 177 46
f 174 48 173
f 174 173 172
f 538 551 549
f 538 540 539
f 537 541 539
f 232 221 242
f 17 221 232
f 232 242 62
f 231 232 62
f 203 205 55
f 203 55 202
f 201 205 203
f 202 55 217
f 205 206 55
f 204 203 202
f 73 275 292
f 292 290 73
f 272 290 282
f 290 292 291
f 75 290 291
f 290 75 282
f 70 277 259
f 277 70 281
f 277 281 279
f 260 70 259
f 12 174 172
f 104 396 388
f 367 27 354
f 365 27 367
f 354 27 356
f 365 367 366
f 595 27 365
f 318 299 310
f 155 596 597
f 155 597 598
f 596 594 597
f 595 596 155
f 605 595 155
f 180 47 179
f 180 190 47
f 352 372 11
f 11 372 261
f 312 310 24
f 642 636 162
f 636 297 637
f 367 369 97
f 366 367 97
f 369 367 354
f 369 370 97
f 580 579 464
f 580 152 579
f 579 124 464
f 61 230 409
f 230 410 409
f 230 61 229
f 230 229 228
f 76 285 286
f 353 352 276
f 74 353 276
f 288 76 286
f 288 286 283
f 289 288 287
f 203 54 201
f 287 288 77
f 77 288 283
f 286 48 283
f 531 423 113
f 276 11 259
f 11 261 259
f 277 276 259
f 616 158 615
f 516 616 615
f 138 516 615
f 138 615 612
f 509 533 532
f 503 502 504
f 635 79 294
f 635 294 404
f 635 637 79
f 637 635 638
f 638 635 108
f 635 404 108
f 226 61 405
f 61 226 227
f 405 61 409
f 227 226 207
f 48 178 179
f 48 286 178
f 173 48 179
f 534 143 533
f 534 535 143
f 531 534 533
f 533 143 532
f 137 531 533
f 261 372 371
f 13 180 178
f 285 13 178
f 180 13 166
f 13 168 166
f 346 345 284
f 331 327 46
f 46 327 172
f 172 327 326
f 382 620 101
f 442 121 448
f 443 121 442
f 2 226 404
f 294 2 404
f 404 226 405
f 207 226 2
f 550 551 145
f 552 146 551
f 143 550 532
f 552 550 143
f 330 329 328
f 24 636 629
f 94 352 353
f 352 11 276
f 113 428 534
f 428 535 534
f 509 41 511
f 535 552 143
f 550 552 551
f 550 542 532
f 369 95 368
f 326 327 87
f 87 327 329
f 327 331 329
f 581 326 87
f 293 79 298
f 79 297 298
f 296 298 78
f 79 293 294
f 296 293 298
f 598 490 38
f 358 280 22
f 280 279 278
f 357 358 95
f 74 357 353
f 330 328 25
f 567 23 559
f 590 598 38
f 590 604 598
f 598 604 155
f 604 590 154
f 590 591 154
f 604 154 606
f 297 299 298
f 299 318 78
f 298 299 78
f 355 354 356
f 629 636 642
f 312 24 629
f 629 642 160
f 370 362 97
f 362 363 97
f 363 366 97
f 364 363 362
f 362 370 351
f 96 363 364
f 297 636 24
f 162 637 638
f 637 297 79
f 490 488 38
f 598 597 490
f 441 442 119
f 443 442 441
f 443 441 5
f 442 448 445
f 296 78 295
f 326 12 172
f 575 574 364
f 47 175 176
f 175 177 176
f 47 176 179
