# FEM surface export ¡ª frame 448
# Vertices: 642  Faces: 1280
v -0.51693141 1.05911732 -0.00326102
v 0.51709157 1.05914140 -0.00079842
v -0.51841778 0.09255423 -0.03656521
v 0.54096198 0.21024066 0.01195897
v 0.00445706 0.00000000 1.00557506
v 0.00111390 0.79625571 0.86613882
v 0.00644768 0.00000000 -0.99215555
v 0.00013466 0.79360139 -0.86565757
v 0.90711820 0.33602139 -0.55934203
v 0.90524381 0.32706463 0.55716389
v -0.90669304 0.32777900 -0.55564761
v -0.90283126 0.32677200 0.56001240
v -0.82588017 0.77271676 0.31486636
v -0.51885766 0.60692680 0.84162271
v -0.30560005 1.02637792 0.49190098
v 0.30666441 1.02747989 0.49448067
v -0.00017007 1.16698408 -0.00124816
v 0.30450955 1.02728486 -0.49376580
v -0.30700421 1.02619708 -0.49538267
v -0.51865798 0.60202694 -0.84019738
v -0.82583332 0.76940602 -0.31648883
v -1.06155968 0.32692468 0.00504725
v 0.52264160 0.60193264 0.84048289
v 0.82748425 0.77275628 0.31526428
v -0.55703115 0.07672109 0.90471631
v 0.00115330 0.33353060 1.06312883
v -0.91509831 0.00000000 -0.35974398
v -0.95312518 0.00000000 0.35202721
v -0.00168236 0.33413297 -1.06382918
v -0.56146568 0.09273218 -0.91800332
v 0.82760388 0.77236891 -0.31506500
v 0.51747537 0.60694128 -0.84229028
v 0.95620096 0.00000000 0.35042217
v 0.56098491 0.06483017 0.89397299
v 0.30524212 0.03730805 0.54744083
v -0.34741545 0.12150986 0.52932608
v -0.02305808 0.02700090 0.03836355
v -0.30128583 0.01700198 -0.49343342
v 0.33320737 0.03066737 -0.53150785
v 0.56084853 0.08726661 -0.91511571
v 0.93455726 0.00029353 -0.34523299
v 1.06735528 0.32995805 -0.00405743
v -0.69269007 0.94130373 0.15766676
v -0.58772707 0.93102092 0.42306188
v -0.42559046 1.06836677 0.25150684
v -0.73746049 0.47391087 0.72824395
v -0.70776701 0.71029419 0.60375929
v -0.89954954 0.56031281 0.45354328
v -0.15943518 0.93272048 0.70106548
v -0.43090346 0.84809995 0.69331741
v -0.26629266 0.71723473 0.88701147
v -0.15660079 1.13276064 0.25397357
v -0.26378408 1.14122951 -0.00137391
v 0.16113304 0.93297434 0.70210266
v 0.00031852 1.05792379 0.51663721
v 0.26353073 1.14069211 -0.00084400
v 0.15858415 1.13542759 0.25485960
v 0.42681697 1.06764531 0.25477368
v -0.15817605 1.13335967 -0.25683370
v -0.42563930 1.06778717 -0.25739309
v 0.42609078 1.06917644 -0.25583494
v 0.15682963 1.13485324 -0.25697896
v -0.16122812 0.93352443 -0.70231044
v 0.00056116 1.05783546 -0.51727104
v 0.16003901 0.93333280 -0.70258784
v -0.59009677 0.92705613 -0.42671829
v -0.69324934 0.93956989 -0.16264205
v -0.26612014 0.71280736 -0.88467681
v -0.43032506 0.84496808 -0.69640535
v -0.90049630 0.56007314 -0.45570931
v -0.70586461 0.70301813 -0.60396361
v -0.73689234 0.46804252 -0.72941470
v -0.86520475 0.79314691 -0.00213281
v -1.02006197 0.32377180 -0.28420869
v -0.99523962 0.56222343 -0.17116441
v -0.99153328 0.56559563 0.17018954
v -1.01719344 0.32050040 0.29059923
v 0.58932513 0.92672241 0.42606100
v 0.69266719 0.94148129 0.16116613
v 0.26960757 0.71389532 0.88696408
v 0.43157414 0.84425056 0.69601649
v 0.90444386 0.56222159 0.45269963
v 0.71004063 0.70850992 0.60663438
v 0.74164182 0.47426772 0.72683966
v -0.27561310 0.47690508 1.00036991
v 0.00204845 0.57679600 1.00566030
v -0.75326961 0.18933888 0.74592382
v -0.55834621 0.33390346 0.90012163
v -0.00557903 0.10466647 1.05129731
v -0.28407276 0.18844481 1.02695620
v -0.29480374 0.00000000 1.00948191
v -1.04736340 0.09365825 0.17878494
v -0.94593781 0.10173415 0.47991973
v -0.96190435 0.11681319 -0.47264919
v -1.05948877 0.10601795 -0.17438546
v -0.76354289 0.05775770 0.12968574
v -0.99343437 0.00000000 -0.01636748
v -0.77004170 0.14300495 -0.19321144
v -0.56373262 0.33267736 -0.90054268
v -0.76190591 0.19336334 -0.74769998
v -0.00031214 0.57209945 -1.00058818
v -0.27694470 0.47447830 -1.00008142
v -0.29434639 0.00019068 -1.01219177
v -0.28472537 0.19246012 -1.02996063
v -0.00012513 0.11301018 -1.07575417
v 0.43159816 0.84665465 -0.69675171
v 0.26711097 0.71419668 -0.88587624
v 0.69405448 0.94108355 -0.16091809
v 0.58950007 0.92881095 -0.42407969
v 0.73653150 0.47791225 -0.73009497
v 0.70907938 0.70839256 -0.60683089
v 0.90103155 0.56446260 -0.45274553
v 0.75461268 0.12731107 0.17082787
v 0.65329856 0.01589236 0.47157368
v 0.45228612 0.13361281 0.31833509
v 0.76710385 0.19049491 0.75270677
v 0.79705316 0.00000000 0.65583521
v 0.95537311 0.11543524 0.47207463
v 0.16196780 0.00012769 0.80388224
v 0.50305074 0.00000000 0.80967712
v 0.31647840 0.00000000 1.01244950
v 0.16956067 0.15233298 0.29877427
v 0.25846905 0.00097390 0.00538056
v -0.19683316 0.02694052 0.78677428
v -0.03534714 0.10812768 0.57857823
v -0.29945847 0.11092113 0.06862772
v -0.19364838 0.05855284 0.30355835
v -0.48564172 0.05029377 0.23409943
v 0.15045084 0.06888650 -0.25196436
v 0.46414897 0.07085122 -0.24205245
v -0.42930356 0.04529842 -0.25796989
v -0.17635389 0.02103525 -0.18921000
v 0.20267797 0.00667590 -0.76176369
v -0.01539448 0.01810202 -0.49293059
v -0.17644592 0.01775931 -0.75845087
v 0.63441294 0.09128667 -0.43940836
v 0.75279105 0.13649793 -0.19045116
v 0.30745262 0.00577684 -1.01943231
v 0.50596845 0.00296086 -0.79877108
v 0.95448869 0.11230154 -0.48172644
v 0.80126011 0.00079576 -0.68164873
v 0.75944787 0.20376110 -0.75596964
v 0.99857950 0.00000000 0.00511171
v 1.02344728 0.33360520 -0.29132965
v 1.03896272 0.10692078 -0.17705044
v 1.04057324 0.10463142 0.17146581
v 1.02676666 0.33231789 0.28675458
v 0.28437644 0.18167631 1.01867962
v 0.56422508 0.32797974 0.90217465
v 0.28051776 0.47372004 1.00024188
v -0.69122851 0.00000000 0.44224849
v -0.50381792 0.02901952 0.78601837
v -0.80058932 0.00012376 0.68077767
v -0.49030036 0.00000000 -0.76197672
v -0.64282048 0.09728701 -0.47685355
v -0.80853802 0.02964040 -0.67699122
v 0.56067717 0.33426028 -0.90291262
v 0.28379279 0.20362695 -1.03324997
v 0.27595758 0.47798064 -0.99965686
v 0.99477386 0.56485254 0.16677317
v 0.99308121 0.56664550 -0.17021926
v 0.86628276 0.79483807 0.00117849
v -0.60889107 1.00731087 0.07823478
v -0.56448150 1.01396716 0.20798932
v -0.47411287 1.06925201 0.12612385
v -0.71458429 0.85956436 0.37240452
v -0.64601111 0.94181544 0.29288968
v -0.76542234 0.86287004 0.23562232
v -0.36850664 1.05371881 0.37431666
v -0.51062709 1.00666010 0.34013802
v -0.45037833 0.98647481 0.46224418
v -0.82668465 0.40025374 0.65029794
v -0.82975787 0.52095598 0.59935176
v -0.90829122 0.44473255 0.51029259
v -0.62227994 0.66271245 0.73157376
v -0.73106122 0.59602487 0.67330962
v -0.63443983 0.54354179 0.79308718
v -0.87000853 0.67208093 0.38789436
v -0.81158882 0.64006048 0.53418976
v -0.77573544 0.74860156 0.46428949
v -0.08094759 0.86975318 0.78967482
v -0.21464318 0.83204961 0.80325454
v -0.13284999 0.75974762 0.88566554
v -0.37002361 0.94491613 0.59920037
v -0.29651904 0.89533818 0.70473492
v -0.23426826 0.98537737 0.60082471
v -0.39581159 0.66720855 0.87321532
v -0.35340700 0.78726453 0.79694569
v -0.48055905 0.73526883 0.77624655
v -0.65527624 0.82978010 0.51885682
v -0.57650012 0.78598017 0.65732253
v -0.51516157 0.89729047 0.56480944
v -0.34820411 1.11353171 0.12614782
v -0.39249560 1.10595500 -0.00146820
v -0.23240711 1.08952141 0.37660655
v -0.29370797 1.10723996 0.25565082
v -0.13304618 1.16465902 -0.00173616
v -0.21183577 1.14389086 0.12752774
v -0.07886283 1.16041303 0.12817304
v 0.08282012 0.86878407 0.78914833
v 0.00072941 0.94003391 0.70937186
v 0.15370716 1.04957604 0.51068020
v 0.08092022 1.00196803 0.61326599
v 0.23692375 0.98534441 0.60239255
v -0.07787396 1.00154734 0.61328518
v -0.15310365 1.05045903 0.51000416
v 0.39410290 1.10637903 -0.00072609
v 0.34939170 1.11343884 0.12842074
v 0.47590730 1.06986392 0.12730443
v 0.07969961 1.15862298 0.12770018
v 0.21324658 1.14548898 0.12879989
v 0.13276416 1.16399586 -0.00150729
v 0.37154952 1.05366814 0.37776309
v 0.29339278 1.10845804 0.25774437
v 0.23383893 1.08862519 0.37770918
v -0.08083668 1.10669816 0.38992792
v 0.07926639 1.10627913 0.38869384
v -0.00090097 1.14309907 0.25673589
v -0.34841102 1.11332870 -0.13069560
v -0.47432876 1.06873798 -0.13065778
v -0.07932026 1.16080463 -0.12986952
v -0.21281882 1.14623833 -0.13011292
v -0.37058502 1.05184042 -0.37904242
v -0.29354534 1.10727549 -0.25918150
v -0.23430631 1.08910072 -0.37879556
v 0.47571474 1.07169831 -0.12937891
v 0.34883818 1.11603606 -0.12953071
v 0.23272093 1.09053266 -0.37836796
v 0.29325902 1.10944843 -0.25802454
v 0.36806706 1.05394959 -0.37769496
v 0.21178965 1.14579594 -0.12966312
v 0.07836144 1.16161835 -0.13028780
v -0.08165886 0.86861813 -0.79036790
v 0.00066352 0.94078946 -0.71149838
v 0.08235396 0.86721092 -0.79083639
v -0.15468289 1.04975855 -0.51191306
v -0.08047602 1.00297356 -0.61554772
v -0.23662671 0.98558724 -0.60295004
v 0.23542942 0.98591739 -0.60286707
v 0.08033670 1.00370646 -0.61511248
v 0.15295206 1.05056322 -0.51149356
v -0.00041863 1.14310133 -0.25921017
v 0.08013725 1.10587001 -0.38936469
v -0.08066721 1.10583723 -0.39054433
v -0.56411910 1.01290357 -0.21367528
v -0.61016572 1.00650394 -0.08300114
v -0.45230415 0.98362654 -0.46704400
v -0.51154298 1.00474930 -0.34520331
v -0.76597887 0.86037958 -0.24097596
v -0.64772815 0.94037884 -0.29716480
v -0.71543664 0.85619885 -0.37618667
v -0.13380434 0.75678062 -0.88272071
v -0.21477570 0.83043540 -0.80270928
v -0.47911671 0.72987425 -0.77707279
v -0.35217610 0.78436410 -0.79854053
v -0.39546347 0.66184962 -0.87039769
v -0.29759246 0.89422029 -0.70731884
v -0.37199086 0.94407094 -0.60233414
v -0.91065228 0.44229189 -0.51139539
v -0.82842672 0.51374680 -0.60024446
v -0.82783735 0.39498612 -0.65046471
v -0.77453208 0.74039441 -0.46476230
v -0.80868924 0.63345957 -0.53416431
v -0.87102741 0.66728616 -0.38755351
v -0.63383323 0.53797698 -0.79078484
v -0.72878188 0.58933020 -0.67307001
v -0.61991066 0.65794885 -0.72995871
v -0.51669019 0.89172888 -0.56823486
v -0.57548523 0.77949864 -0.66007835
v -0.65567666 0.82302493 -0.52055424
v -0.70157784 0.94871271 -0.00152113
v -0.85484767 0.78657305 -0.16179878
v -0.78612036 0.87368453 -0.08401158
v -0.78640258 0.87388188 0.07922981
v -0.85398257 0.78718960 0.15767384
v -0.97211510 0.32493266 -0.42275956
v -0.97410411 0.44277653 -0.37631786
v -1.03928971 0.44807291 -0.08331416
v -1.01931667 0.44436473 -0.22998691
v -1.05076802 0.32849360 -0.14132696
v -0.95675480 0.55958670 -0.31560829
v -0.92003667 0.66991442 -0.24750580
v -0.97214127 0.44251132 0.37804627
v -0.97159332 0.32279021 0.43139687
v -0.91961825 0.67383027 0.24675646
v -0.95438975 0.56652200 0.31574219
v -1.04671669 0.32462677 0.15010495
v -1.01630032 0.44741258 0.23465525
v -1.03889763 0.44522083 0.09063466
v -0.94129729 0.68287963 -0.08610804
v -1.00658321 0.56516773 0.00136213
v -0.94261324 0.68526286 0.08330069
v 0.56464100 1.01458323 0.21069932
v 0.60913640 1.00640452 0.07985685
v 0.45251128 0.98458296 0.46625227
v 0.51313484 1.00601447 0.34354588
v 0.76743901 0.86284900 0.23936687
v 0.64819169 0.94112712 0.29607800
v 0.71651453 0.85745025 0.37563676
v 0.13577795 0.75901008 0.88590914
v 0.21752490 0.83131093 0.80307561
v 0.48254344 0.73230296 0.77991951
v 0.35353991 0.78381789 0.79782754
v 0.39973682 0.66167182 0.87303472
v 0.29785269 0.89483213 0.70631677
v 0.37298638 0.94406086 0.60130614
v 0.91384751 0.44604477 0.51025182
v 0.83379722 0.52095503 0.59780461
v 0.83155745 0.40254182 0.64803815
v 0.77824003 0.74483061 0.46482694
v 0.81351608 0.63902116 0.53502595
v 0.87498164 0.67346448 0.38709381
v 0.63809299 0.53867316 0.79341507
v 0.73424405 0.59426415 0.67644787
v 0.62416244 0.66007215 0.73378074
v 0.51850796 0.89403200 0.56830907
v 0.57585204 0.78195512 0.65863895
v 0.65712130 0.82656944 0.52100903
v -0.13453516 0.64976209 0.95801461
v 0.00184810 0.69023085 0.94366169
v -0.40294385 0.54697692 0.93279058
v -0.27396786 0.60057831 0.95444733
v 0.00343081 0.45606586 1.04581225
v -0.13785343 0.52868515 1.01298988
v -0.14026816 0.40621287 1.04569745
v -0.83679450 0.25541860 0.65966094
v -0.75294250 0.33024827 0.74392205
v -0.55532622 0.20078935 0.90716416
v -0.66064423 0.26068631 0.82950020
v -0.66002917 0.13003042 0.82794070
v -0.65312380 0.40539965 0.82109094
v -0.54388988 0.47279778 0.88301903
v 0.00287065 0.01523067 1.05173361
v -0.14257908 0.04019136 1.04476738
v -0.14636688 0.00000000 1.01050270
v -0.14367907 0.26078928 1.05009317
v -0.14683184 0.14795512 1.05132484
v -0.00335381 0.21167666 1.05962765
v -0.43156523 0.02939012 0.96577376
v -0.28557566 0.08327206 1.01941681
v -0.41583690 0.12433181 0.97458303
v -0.42146650 0.40705568 0.96441573
v -0.42696759 0.26047921 0.97363591
v -0.28281403 0.33263150 1.02218986
v -0.99729037 0.21231416 0.39056328
v -0.92768681 0.20802960 0.52421820
v -1.06150222 0.21300799 0.09230933
v -1.03651524 0.20688388 0.23687464
v -0.97426444 0.02512087 0.42656645
v -1.01302528 0.09950329 0.33340514
v -1.02153552 0.00368475 0.26735789
v -0.93556136 0.21804738 -0.51993114
v -0.99917156 0.21511899 -0.37909994
v -1.03245342 0.04025244 -0.27704221
v -1.01297617 0.10413650 -0.32735494
v -0.96731573 0.00881665 -0.42922226
v -1.04305589 0.21473257 -0.23140624
v -1.06744432 0.21564375 -0.08439455
v -0.64650196 0.00203539 0.03465353
v -0.76795644 0.00051768 -0.05645498
v -0.64374173 0.07640898 -0.13501102
v -0.98739821 0.00000000 0.17139022
v -0.88027418 0.00083069 0.06186488
v -0.86284405 0.00700320 0.23996823
v -0.81626248 0.02937915 -0.26890361
v -0.88369340 0.02615931 -0.12902254
v -0.97054219 0.00000000 -0.19822204
v -1.07017446 0.10380984 0.00261709
v -1.06799209 0.00492798 -0.09752502
v -1.06143367 0.00881063 0.09278968
v -0.75692743 0.32925692 -0.74189508
v -0.83998334 0.25779918 -0.65605426
v -0.54606825 0.46642342 -0.87794477
v -0.65485370 0.39658532 -0.81858993
v -0.67465121 0.13325191 -0.83703142
v -0.66805536 0.25995663 -0.83404988
v -0.56704658 0.20034261 -0.91118819
v 0.00025410 0.68710178 -0.94139373
v -0.13541099 0.64812899 -0.95518720
v -0.14250666 0.40468055 -1.04436958
v -0.13804521 0.52571517 -1.00884044
v -0.00009788 0.45353720 -1.04295957
v -0.27282611 0.59658694 -0.94941539
v -0.40222114 0.54012620 -0.92771971
v -0.14998832 0.00000000 -1.02849233
v -0.14630033 0.05303557 -1.05947864
v 0.00397488 0.01999491 -1.06375408
v -0.42291471 0.13474910 -0.98348874
v -0.29829773 0.08615322 -1.02405202
v -0.44257757 0.02311038 -0.97554857
v -0.00121924 0.21389711 -1.08019817
v -0.14670900 0.14062712 -1.05895877
v -0.14479071 0.26266688 -1.06073713
v -0.42424121 0.40307897 -0.96553659
v -0.28774574 0.33095387 -1.02559197
v -0.43560264 0.25971437 -0.98284620
v 0.21639943 0.83002084 -0.80172718
v 0.13438675 0.75691330 -0.88410127
v 0.37137729 0.94487977 -0.60086280
v 0.29747185 0.89569128 -0.70557302
v 0.39510304 0.66441309 -0.86963475
v 0.35340974 0.78642750 -0.79761523
v 0.48172787 0.73191041 -0.77627587
v 0.61043996 1.00686455 -0.08059983
v 0.56539369 1.01511943 -0.21053348
v 0.71672988 0.85810256 -0.37423885
v 0.64827502 0.94284821 -0.29548240
v 0.76794416 0.86251742 -0.23876424
v 0.51179051 1.00639284 -0.34277663
v 0.45143893 0.98635405 -0.46644428
v 0.83007938 0.40855759 -0.65187746
v 0.83205843 0.52570289 -0.59923232
v 0.91317755 0.45171401 -0.51026726
v 0.62198484 0.66157997 -0.73162544
v 0.73147178 0.59529942 -0.67470348
v 0.63168037 0.54393274 -0.79271305
v 0.87026298 0.67123377 -0.38690925
v 0.81141311 0.64139414 -0.53562593
v 0.77647084 0.74582475 -0.46501252
v 0.51748466 0.89478183 -0.56691223
v 0.65732276 0.82522351 -0.51919597
v 0.57647318 0.78392595 -0.65825754
v 0.66152817 0.15558961 0.07198372
v 0.61621857 0.11117949 0.21995993
v 0.51988816 0.14757407 0.16608360
v 0.81460792 0.05262491 0.41531196
v 0.68549788 0.10208502 0.33894196
v 0.83048224 0.03864453 0.25182164
v 0.37773323 0.00039884 0.39902359
v 0.54979849 0.05382860 0.36700383
v 0.48231062 0.03154782 0.51625329
v 0.83712226 0.25742453 0.65542060
v 0.87499136 0.15048589 0.62628990
v 0.93229395 0.21706189 0.51972789
v 0.68669605 0.00889672 0.79023004
v 0.77961558 0.08902025 0.72031254
v 0.66279459 0.11951796 0.82588154
v 0.96617711 0.04044078 0.40876013
v 0.88607359 0.07191309 0.57238561
v 0.89751613 0.00000000 0.50857931
v 0.08875024 0.04341093 0.91287136
v 0.24554364 0.00165854 0.91838706
v 0.15591165 0.00000000 1.01893282
v 0.40737891 0.04120693 0.68461108
v 0.33990037 0.00276035 0.80320030
v 0.23714904 0.00172407 0.68196797
v 0.44617471 0.01270527 0.95408821
v 0.41909561 0.00000000 0.92728466
v 0.55425060 0.00000000 0.88733619
v 0.76267815 0.00080059 0.58513898
v 0.66650486 0.00000000 0.75606227
v 0.57800847 0.00015337 0.64052141
v 0.37678459 0.05951936 0.15130451
v 0.42593533 0.08380336 0.02316260
v 0.21122004 0.00685123 0.39922401
v 0.31012544 0.06050992 0.28301647
v 0.12008072 0.03297950 0.02915983
v 0.20418505 0.04889763 0.15608905
v 0.08072864 0.07496376 0.17386213
v -0.09941522 0.00022300 0.91407830
v -0.01985883 0.00929212 0.79850745
v -0.20160066 0.14137706 0.55714089
v -0.12245111 0.09699319 0.67841357
v -0.28731361 0.05266728 0.65156126
v 0.06382388 0.06988592 0.69034290
v 0.12033145 0.02138214 0.55389464
v -0.41780144 0.09609156 0.06492145
v -0.40058690 0.18945782 0.18972339
v -0.53048402 0.14321990 0.10150284
v -0.08540742 0.09636243 0.18014185
v -0.22701350 0.19047908 0.19135638
v -0.16624781 0.07151520 0.04439516
v -0.42395914 0.12068181 0.39673126
v -0.31965986 0.08134371 0.29036924
v -0.28708413 0.18169202 0.41897607
v 0.09023459 0.16181248 0.46314183
v -0.10880060 0.16244322 0.45758557
v -0.00847348 0.07741492 0.33699107
v 0.38446996 0.07746413 -0.09517012
v 0.47942823 0.21817540 -0.13654083
v 0.07492808 0.07032736 -0.09595120
v 0.21032792 0.03950676 -0.12357562
v 0.39451450 0.10297036 -0.39247179
v 0.31593642 0.02645793 -0.24055585
v 0.24590391 0.02344599 -0.37280920
v -0.45271355 0.04942849 -0.13439880
v -0.35139030 0.04996702 -0.07822084
v -0.23885797 0.00899594 -0.32975549
v -0.32951605 0.04486572 -0.21018630
v -0.37030518 0.03753202 -0.37989572
v -0.25615019 0.08603001 -0.08211685
v -0.11502039 0.03806151 -0.10307011
v 0.10379543 0.03135856 -0.87692249
v 0.00985639 0.00397124 -0.76590753
v -0.09504252 0.02356113 -0.88651431
v 0.17021923 0.02441642 -0.50383258
v 0.08495765 0.00000000 -0.63299370
v 0.27712354 0.03043608 -0.62726432
v -0.23853713 0.00473391 -0.63579667
v -0.08297029 0.02931611 -0.62265068
v -0.14429596 0.00142377 -0.49140495
v 0.00590811 0.05222310 -0.21463600
v -0.07552638 0.02269456 -0.34278867
v 0.07753793 0.04924803 -0.36362508
v 0.59509575 0.16628234 -0.23863211
v 0.64710426 0.17552467 -0.08807270
v 0.49849212 0.02020934 -0.48881346
v 0.52522069 0.14222860 -0.37780604
v 0.85288137 0.05263277 -0.25424364
v 0.69136882 0.12633124 -0.31782019
v 0.78629732 0.05569200 -0.40281001
v 0.15990429 0.00000000 -1.03281903
v 0.25127479 0.00000000 -0.92430639
v 0.55231595 0.00000000 -0.89962089
v 0.40696156 0.00000000 -0.91928142
v 0.44404155 0.04039012 -0.98272181
v 0.35448340 0.00075134 -0.78890491
v 0.42812997 0.07486620 -0.65927726
v 0.93544251 0.22213109 -0.52140003
v 0.87014645 0.16418515 -0.63056087
v 0.84287500 0.27414232 -0.66094899
v 0.88779557 0.00000000 -0.51077712
v 0.88538420 0.05281731 -0.59285307
v 0.97260344 0.01873460 -0.42562839
v 0.66073030 0.13858667 -0.83883560
v 0.78140581 0.09196725 -0.73182291
v 0.69126189 0.03332376 -0.82154638
v 0.58575797 0.00038234 -0.61662102
v 0.66771299 0.00000000 -0.74812371
v 0.73433834 0.01626068 -0.55082768
v 0.77916992 0.13459638 -0.01506682
v 0.97855991 0.00353000 -0.18633032
v 0.86764538 0.07299299 -0.09465837
v 0.89415395 0.05055913 0.08796851
v 0.97775060 0.00105214 0.18963577
v 0.97483140 0.33409026 -0.42924815
v 0.99534768 0.21984147 -0.38510209
v 1.06205106 0.20948698 -0.09025087
v 1.03697276 0.21556523 -0.23699994
v 1.05459201 0.33013752 -0.14796989
v 1.01413870 0.11003907 -0.33813187
v 1.01868474 0.06077339 -0.27437261
v 0.99898559 0.22032970 0.38496214
v 0.97562617 0.33042479 0.42786562
v 1.02468622 0.03179054 0.25666690
v 1.00236201 0.11630898 0.32122573
v 1.05437016 0.32920593 0.14115895
v 1.04544711 0.21791571 0.23142138
v 1.06372809 0.21458200 0.08136477
v 1.04733109 0.00033302 -0.09456140
v 1.05589783 0.09439037 -0.00250864
v 1.04364800 0.00000000 0.09472176
v 0.15403652 0.04275344 1.04516685
v 0.42625841 0.12494140 0.97146320
v 0.29838115 0.06579079 1.01497173
v 0.14681864 0.13138258 1.03970087
v 0.14249173 0.25433478 1.04995871
v 0.75848442 0.33055687 0.74488169
v 0.55262738 0.46633497 0.88631600
v 0.66149479 0.40118316 0.82380056
v 0.66758794 0.25428721 0.83358210
v 0.56371462 0.19334260 0.90300411
v 0.13947466 0.64882797 0.95807409
v 0.14473419 0.40204778 1.04724371
v 0.14225927 0.52660167 1.01278961
v 0.27833834 0.59873575 0.95425713
v 0.40729237 0.54027492 0.93072498
v 0.43175170 0.25599530 0.97585374
v 0.42909664 0.39869967 0.96710765
v 0.28630698 0.32827869 1.02269471
v -0.62556815 0.04350943 0.18511146
v -0.52136534 0.04073445 0.49710706
v -0.58375549 0.04282745 0.35951111
v -0.73407120 0.05301397 0.28898895
v -0.82509804 0.04148985 0.40629491
v -0.25780961 0.00000000 0.92678905
v -0.54553783 0.00000000 0.89885420
v -0.40375420 0.00000000 0.92589217
v -0.35965383 0.00794097 0.79824936
v -0.44332838 0.05394225 0.64952910
v -0.85873365 0.14075361 0.62462687
v -0.88505465 0.00000000 0.52533269
v -0.88122147 0.03533338 0.58614898
v -0.77282822 0.07649753 0.72321141
v -0.67406577 0.01492055 0.80488777
v -0.61085266 0.00000000 0.62547672
v -0.67879999 0.00000000 0.76401132
v -0.75536686 0.00000000 0.58588803
v -0.26608410 0.00098467 -0.91587496
v -0.39096832 0.05283194 -0.64349902
v -0.33736947 0.00750976 -0.77150834
v -0.42249003 0.00000000 -0.90660763
v -0.56512129 0.00359150 -0.88825303
v -0.60477740 0.06488840 -0.22496100
v -0.76429683 0.01280750 -0.42502284
v -0.68010563 0.12064259 -0.34321707
v -0.53296196 0.01907699 -0.36897114
v -0.47963852 0.06946599 -0.50205046
v -0.86518687 0.15100501 -0.61633474
v -0.69187737 0.03345496 -0.81157809
v -0.79383367 0.08446652 -0.72806484
v -0.89988285 0.07776262 -0.57185888
v -0.88077605 0.00000000 -0.52935892
v -0.57727057 0.06788146 -0.63806766
v -0.74407583 0.00000000 -0.59652478
v -0.66332537 0.00000000 -0.75790948
v 0.75726271 0.33907804 -0.74713975
v 0.55848384 0.20408864 -0.91044497
v 0.66409463 0.26914629 -0.83592403
v 0.65641034 0.40578207 -0.82438898
v 0.54721212 0.47203624 -0.88357168
v 0.15210930 0.06088065 -1.06632137
v 0.14124441 0.26549515 -1.05824471
v 0.14672361 0.16059622 -1.07009208
v 0.29366860 0.09450781 -1.03789961
v 0.42037687 0.14057791 -0.98541087
v 0.13594577 0.64782983 -0.95443869
v 0.40241575 0.54231197 -0.92920965
v 0.27441615 0.59969664 -0.95094377
v 0.13753852 0.52573907 -1.00798059
v 0.14176029 0.40401411 -1.04520941
v 0.43033808 0.26554605 -0.97758037
v 0.28523421 0.33589774 -1.02132988
v 0.42346522 0.40565771 -0.96145487
v 0.98070008 0.44647208 0.37830102
v 1.04514861 0.44561431 0.08460296
v 1.02463150 0.45199513 0.23098277
v 0.95841622 0.56633443 0.31434211
v 0.92240870 0.67308623 0.24479458
v 0.97329718 0.45160091 -0.37710792
v 0.91807967 0.67557460 -0.24689497
v 0.95680118 0.56745338 -0.31413844
v 1.01847088 0.45182323 -0.23192851
v 1.04277420 0.45221120 -0.08699095
v 0.70247918 0.94864833 0.00040713
v 0.85732239 0.78953201 0.15971717
v 0.78685892 0.87478507 0.08312751
v 0.78763551 0.87398589 -0.08151004
v 0.85697967 0.78829116 -0.15735097
v 1.00589585 0.56829566 0.00009680
v 0.94329047 0.68571228 -0.08538407
v 0.94406372 0.68717325 0.08479678
f 330 87 329
f 336 325 26
f 207 208 56
f 464 36 580
f 502 129 504
f 157 624 622
f 308 311 82
f 247 223 248
f 507 483 508
f 331 88 329
f 494 500 497
f 156 601 602
f 591 589 592
f 365 98 596
f 75 281 282
f 152 587 577
f 149 559 560
f 555 121 553
f 530 141 529
f 515 517 139
f 361 594 98
f 250 67 249
f 157 608 609
f 294 293 209
f 317 81 316
f 557 338 26
f 303 305 81
f 530 529 528
f 101 381 382
f 415 418 111
f 192 184 50
f 412 110 411
f 20 384 256
f 131 594 486
f 281 264 282
f 347 287 348
f 28 349 582
f 165 163 1
f 248 250 66
f 617 107 398
f 273 271 274
f 456 115 453
f 558 561 560
f 335 576 91
f 331 177 332
f 116 433 436
f 351 370 92
f 136 511 530
f 239 240 65
f 247 258 19
f 304 23 567
f 148 557 570
f 214 208 58
f 440 426 450
f 268 270 269
f 258 247 268
f 204 202 16
f 466 125 465
f 517 513 133
f 168 275 274
f 275 73 274
f 198 193 53
f 309 308 307
f 510 511 136
f 415 416 110
f 131 490 597
f 473 475 474
f 414 415 111
f 493 495 494
f 496 504 485
f 433 116 432
f 600 375 601
f 240 234 65
f 418 415 412
f 486 361 3
f 567 566 304
f 380 393 29
f 17 199 197
f 491 492 132
f 451 449 435
f 218 217 216
f 623 621 613
f 396 104 395
f 433 439 436
f 628 160 627
f 215 202 217
f 209 207 2
f 427 113 424
f 434 10 544
f 434 433 432
f 199 17 210
f 150 564 565
f 489 491 132
f 275 13 285
f 497 500 134
f 125 466 476
f 578 152 577
f 208 214 211
f 328 88 343
f 356 27 603
f 150 566 567
f 372 100 371
f 190 191 47
f 235 8 398
f 260 261 72
f 422 403 414
f 422 414 111
f 453 454 123
f 349 583 582
f 521 520 519
f 425 453 115
f 616 622 158
f 483 130 508
f 151 586 572
f 212 17 232
f 400 397 402
f 377 396 99
f 41 522 511
f 510 508 505
f 549 547 42
f 475 473 36
f 510 137 509
f 222 221 197
f 430 115 429
f 220 194 1
f 305 54 204
f 621 29 613
f 192 171 184
f 460 335 5
f 88 331 332
f 74 277 279
f 300 301 80
f 390 389 388
f 165 45 164
f 146 549 551
f 291 278 75
f 448 120 445
f 147 543 544
f 607 610 609
f 603 602 356
f 139 529 514
f 333 553 443
f 92 368 347
f 261 260 259
f 300 6 200
f 46 177 331
f 284 283 174
f 301 300 200
f 471 468 474
f 54 305 301
f 302 304 303
f 569 150 567
f 150 569 570
f 294 209 2
f 628 629 160
f 548 543 147
f 147 625 627
f 63 233 234
f 426 427 114
f 41 509 532
f 198 52 196
f 614 105 612
f 147 627 547
f 81 305 306
f 549 548 547
f 54 301 200
f 342 88 332
f 264 281 70
f 193 194 53
f 455 429 456
f 187 321 14
f 479 130 484
f 147 544 625
f 458 456 453
f 304 80 303
f 314 84 313
f 488 503 501
f 321 332 14
f 423 425 424
f 305 204 306
f 341 339 25
f 514 40 516
f 625 628 627
f 340 339 341
f 105 614 391
f 243 228 62
f 318 316 78
f 75 278 279
f 357 355 353
f 238 257 63
f 466 455 476
f 425 423 4
f 448 449 120
f 408 638 108
f 292 275 285
f 22 278 289
f 515 513 517
f 501 503 134
f 622 623 158
f 134 503 504
f 195 216 206
f 163 271 246
f 619 617 620
f 62 228 229
f 163 165 164
f 453 425 454
f 489 132 488
f 82 628 625
f 58 208 209
f 525 608 40
f 626 547 627
f 518 517 498
f 489 487 491
f 557 26 564
f 325 336 344
f 541 145 539
f 40 616 516
f 338 556 89
f 250 248 245
f 139 514 515
f 98 594 596
f 246 220 1
f 112 413 630
f 9 536 413
f 156 600 601
f 332 177 14
f 321 342 332
f 156 606 600
f 584 330 585
f 302 303 81
f 584 87 330
f 330 25 585
f 400 239 65
f 439 440 117
f 95 358 368
f 597 594 131
f 594 361 486
f 246 67 245
f 561 562 149
f 28 364 362
f 55 216 217
f 427 430 114
f 267 20 254
f 556 555 553
f 84 309 558
f 311 310 312
f 609 525 142
f 256 68 255
f 124 460 461
f 82 311 312
f 307 308 82
f 589 135 495
f 527 40 514
f 112 418 412
f 20 256 254
f 258 238 19
f 267 254 269
f 273 272 249
f 392 391 393
f 137 533 509
f 122 455 456
f 9 413 411
f 130 480 505
f 333 443 5
f 527 525 40
f 589 495 385
f 39 496 485
f 223 225 224
f 414 416 415
f 219 222 53
f 145 538 539
f 413 412 411
f 469 468 467
f 183 181 6
f 191 192 50
f 429 35 431
f 292 285 76
f 413 112 412
f 415 110 412
f 43 164 167
f 467 468 126
f 617 101 620
f 450 451 117
f 438 546 545
f 619 620 159
f 17 212 210
f 124 579 576
f 584 153 583
f 460 124 576
f 3 469 467
f 311 308 314
f 6 320 183
f 389 104 388
f 251 250 249
f 194 165 1
f 291 289 278
f 287 77 348
f 238 258 257
f 139 517 518
f 238 236 19
f 223 247 19
f 382 380 29
f 39 518 498
f 361 359 3
f 69 255 257
f 139 518 528
f 33 545 535
f 387 385 7
f 69 268 269
f 477 462 125
f 454 479 123
f 121 555 447
f 451 435 117
f 454 425 4
f 233 252 8
f 124 463 464
f 69 258 268
f 168 167 166
f 583 153 582
f 384 394 102
f 138 512 513
f 57 210 211
f 254 256 255
f 607 609 142
f 324 319 86
f 289 291 76
f 291 292 76
f 384 102 383
f 422 421 420
f 221 17 197
f 383 102 381
f 376 377 99
f 99 373 374
f 386 105 392
f 438 33 440
f 90 341 343
f 281 75 279
f 574 571 96
f 628 82 312
f 221 222 59
f 127 471 474
f 595 605 603
f 551 538 145
f 334 91 340
f 322 324 85
f 305 303 301
f 18 239 399
f 306 204 16
f 199 198 197
f 166 190 180
f 303 80 301
f 267 266 265
f 626 42 547
f 16 215 213
f 349 351 350
f 295 16 213
f 68 379 252
f 250 251 66
f 627 160 626
f 383 68 256
f 343 88 342
f 507 508 136
f 202 215 16
f 197 198 53
f 254 69 269
f 603 605 156
f 418 419 111
f 384 383 256
f 455 122 476
f 203 204 54
f 556 557 148
f 255 68 253
f 313 84 560
f 25 328 341
f 254 255 69
f 603 156 602
f 581 584 583
f 630 632 112
f 163 246 1
f 246 245 220
f 432 116 558
f 499 591 590
f 320 563 86
f 345 93 350
f 306 16 295
f 346 93 345
f 562 568 149
f 604 605 155
f 154 592 593
f 545 552 535
f 511 522 530
f 574 573 571
f 566 150 565
f 361 98 360
f 67 271 273
f 234 235 65
f 208 211 56
f 574 151 573
f 251 270 66
f 398 8 378
f 213 215 214
f 438 440 439
f 315 314 313
f 263 71 262
f 20 373 384
f 496 134 504
f 329 88 328
f 81 306 316
f 555 556 148
f 592 589 103
f 617 619 107
f 227 207 56
f 571 359 96
f 446 466 465
f 206 216 55
f 359 571 469
f 568 148 570
f 34 437 435
f 28 351 349
f 21 272 282
f 113 423 424
f 490 489 488
f 379 68 383
f 210 212 211
f 80 563 300
f 351 92 350
f 326 346 12
f 83 317 318
f 555 148 554
f 212 231 56
f 218 57 217
f 271 67 246
f 195 196 52
f 270 268 66
f 390 592 103
f 148 568 554
f 495 493 7
f 592 390 593
f 357 95 355
f 574 575 151
f 452 120 451
f 154 591 592
f 587 585 577
f 395 394 396
f 93 349 350
f 610 416 611
f 166 44 190
f 315 23 302
f 315 302 317
f 268 247 66
f 606 154 593
f 396 394 99
f 211 212 56
f 370 369 368
f 235 397 65
f 280 278 22
f 83 315 317
f 575 588 151
f 74 279 280
f 385 495 7
f 63 257 253
f 397 235 398
f 214 58 213
f 220 219 194
f 546 146 545
f 236 225 19
f 599 94 602
f 235 233 8
f 102 394 395
f 611 416 32
f 225 223 19
f 139 528 529
f 231 62 229
f 419 406 421
f 451 450 452
f 49 182 185
f 402 397 107
f 52 199 218
f 416 610 110
f 225 236 244
f 107 397 398
f 68 252 253
f 322 85 321
f 182 181 183
f 118 438 439
f 546 438 118
f 348 77 345
f 543 546 118
f 231 212 232
f 610 611 157
f 33 438 545
f 385 386 103
f 479 480 130
f 169 195 15
f 93 583 349
f 15 195 206
f 190 44 192
f 247 248 66
f 146 552 545
f 248 60 245
f 570 557 564
f 274 271 43
f 63 253 233
f 272 21 249
f 507 528 518
f 67 273 249
f 487 467 126
f 196 195 169
f 624 159 623
f 134 496 497
f 132 503 488
f 104 393 395
f 556 553 89
f 355 356 94
f 258 69 257
f 229 61 227
f 56 231 227
f 460 576 335
f 463 124 461
f 394 373 99
f 29 393 391
f 67 250 245
f 193 198 196
f 462 36 464
f 144 633 630
f 141 526 527
f 517 133 498
f 536 144 630
f 100 372 599
f 144 536 537
f 22 289 287
f 578 579 152
f 579 578 576
f 189 188 187
f 60 223 224
f 92 348 350
f 555 554 447
f 396 377 388
f 194 193 165
f 413 536 630
f 372 352 599
f 377 376 375
f 348 345 350
f 105 386 387
f 240 237 234
f 463 462 464
f 135 500 494
f 45 196 169
f 512 612 387
f 245 60 220
f 429 115 456
f 223 60 248
f 288 289 76
f 525 526 142
f 100 599 601
f 613 29 391
f 526 523 520
f 341 328 343
f 631 641 639
f 264 21 282
f 266 72 265
f 106 402 403
f 73 273 274
f 186 206 205
f 381 379 383
f 52 216 195
f 410 18 399
f 290 272 73
f 72 371 374
f 526 525 527
f 115 430 424
f 498 497 496
f 621 382 29
f 543 118 434
f 214 215 57
f 522 141 530
f 511 510 509
f 352 94 599
f 493 512 7
f 90 340 341
f 169 171 170
f 605 604 606
f 219 60 224
f 104 389 392
f 359 469 3
f 186 49 185
f 222 219 224
f 166 167 44
f 428 427 426
f 523 522 524
f 129 502 481
f 50 185 188
f 164 45 170
f 425 115 424
f 33 428 426
f 427 428 113
f 94 356 602
f 515 138 513
f 114 431 452
f 237 236 238
f 215 217 57
f 95 354 355
f 220 60 219
f 515 514 516
f 183 320 319
f 222 197 53
f 559 569 567
f 300 320 6
f 435 436 117
f 96 360 363
f 640 642 641
f 242 243 62
f 140 537 519
f 508 130 505
f 420 410 399
f 537 539 144
f 317 316 318
f 426 114 450
f 186 15 206
f 311 83 310
f 625 544 307
f 544 10 307
f 168 43 167
f 185 182 188
f 369 354 95
f 44 171 192
f 605 606 156
f 548 549 146
f 100 601 375
f 149 568 569
f 381 380 382
f 455 466 35
f 480 479 454
f 543 548 546
f 493 133 513
f 492 472 37
f 477 125 476
f 491 487 126
f 337 336 338
f 588 153 587
f 576 578 91
f 633 161 632
f 96 359 360
f 39 485 483
f 101 617 378
f 193 45 165
f 163 164 43
f 618 624 611
f 507 136 528
f 561 149 560
f 641 162 639
f 116 561 558
f 494 133 493
f 253 252 233
f 63 237 238
f 392 393 104
f 440 450 117
f 93 581 583
f 386 385 387
f 120 449 451
f 421 422 111
f 486 3 467
f 302 81 317
f 633 632 630
f 462 475 36
f 376 99 374
f 489 490 131
f 447 449 448
f 387 612 105
f 106 420 399
f 173 46 172
f 492 491 472
f 316 306 295
f 22 287 347
f 109 410 420
f 507 39 483
f 559 23 313
f 214 57 211
f 196 45 193
f 10 434 432
f 422 106 403
f 626 160 640
f 487 486 467
f 542 41 532
f 400 106 399
f 444 120 452
f 198 199 52
f 475 127 474
f 621 620 382
f 621 623 159
f 450 114 452
f 92 347 348
f 376 100 375
f 434 118 433
f 503 132 502
f 337 90 336
f 537 536 519
f 395 393 380
f 201 54 200
f 171 44 170
f 355 94 353
f 58 296 213
f 422 420 106
f 595 365 596
f 569 568 570
f 523 140 520
f 114 430 431
f 218 210 57
f 304 566 80
f 639 162 638
f 261 371 72
f 548 147 547
f 498 133 497
f 150 570 564
f 222 224 59
f 142 526 520
f 437 436 435
f 141 522 523
f 137 510 505
f 173 179 176
f 559 149 569
f 121 447 448
f 563 320 300
f 102 395 380
f 257 255 253
f 642 162 641
f 83 311 314
f 216 52 218
f 512 493 513
f 23 304 302
f 91 339 340
f 512 138 612
f 159 620 621
f 218 199 210
f 364 28 575
f 83 318 310
f 168 274 43
f 136 530 528
f 140 523 524
f 495 135 494
f 233 235 234
f 566 563 80
f 25 339 577
f 277 74 276
f 475 462 477
f 133 494 497
f 436 437 116
f 389 386 392
f 548 146 546
f 441 460 5
f 10 309 307
f 65 397 400
f 543 434 544
f 640 641 161
f 272 273 73
f 581 93 346
f 419 421 111
f 319 320 86
f 180 179 178
f 127 475 477
f 231 229 227
f 337 334 340
f 136 508 510
f 308 309 84
f 237 63 234
f 447 554 34
f 252 379 378
f 315 83 314
f 608 622 616
f 338 336 26
f 337 338 89
f 13 275 168
f 209 208 207
f 436 439 117
f 628 312 629
f 360 366 363
f 364 574 96
f 359 361 360
f 466 446 35
f 500 501 134
f 406 109 421
f 135 589 591
f 601 599 602
f 340 90 337
f 481 492 37
f 522 41 524
f 78 316 295
f 131 486 487
f 403 32 414
f 634 626 640
f 151 572 573
f 515 516 138
f 8 252 378
f 265 72 374
f 9 521 519
f 538 549 42
f 368 358 347
f 588 587 586
f 458 453 123
f 589 385 103
f 502 492 481
f 32 416 414
f 430 427 424
f 153 585 587
f 540 144 539
f 370 368 92
f 209 293 58
f 428 33 535
f 326 581 346
f 625 307 82
f 575 28 582
f 6 181 200
f 421 109 420
f 553 121 443
f 160 642 640
f 153 584 585
f 309 432 558
f 334 337 89
f 23 315 313
f 271 163 43
f 296 295 213
f 39 498 496
f 118 439 433
f 531 113 534
f 293 296 58
f 28 362 351
f 489 131 487
f 431 444 452
f 84 558 560
f 98 366 360
f 45 169 170
f 379 101 378
f 462 463 125
f 308 84 314
f 10 432 309
f 299 24 310
f 132 492 502
f 512 387 7
f 639 638 408
f 565 323 86
f 59 244 242
f 106 400 402
f 440 33 426
f 566 565 563
f 617 398 378
f 224 225 59
f 410 109 409
f 239 400 399
f 194 219 53
f 358 22 347
f 610 157 609
f 27 595 603
f 479 484 482
f 142 520 521
f 585 25 577
f 339 578 577
f 408 407 406
f 407 109 406
f 31 408 406
f 407 408 108
f 31 639 408
f 419 31 406
f 608 616 40
f 430 429 431
f 455 35 429
f 35 444 431
f 188 51 187
f 188 182 51
f 51 322 187
f 322 51 319
f 51 182 183
f 319 51 183
f 187 322 321
f 322 319 324
f 381 101 379
f 405 407 108
f 404 405 108
f 286 285 178
f 407 405 409
f 109 407 409
f 191 175 47
f 167 164 170
f 50 184 185
f 44 167 170
f 64 244 236
f 243 244 64
f 50 188 189
f 541 542 145
f 442 445 119
f 339 91 578
f 445 446 119
f 624 623 622
f 611 624 157
f 523 526 141
f 141 527 529
f 527 514 529
f 445 120 444
f 446 445 444
f 35 446 444
f 613 614 158
f 158 614 615
f 623 613 158
f 614 613 391
f 614 612 615
f 371 376 374
f 100 376 371
f 479 482 123
f 373 394 384
f 540 42 634
f 633 540 634
f 538 42 540
f 633 634 161
f 161 634 640
f 42 626 634
f 540 633 144
f 557 556 338
f 553 333 89
f 262 21 264
f 251 21 262
f 5 335 333
f 270 251 262
f 21 251 249
f 600 593 30
f 606 593 600
f 600 30 375
f 593 390 30
f 30 377 375
f 390 388 30
f 30 388 377
f 228 243 241
f 470 478 459
f 470 127 478
f 127 477 478
f 184 186 185
f 478 477 476
f 122 478 476
f 357 74 280
f 518 39 507
f 344 342 85
f 325 344 85
f 342 344 343
f 85 342 321
f 344 90 343
f 90 344 336
f 482 129 481
f 482 481 457
f 482 457 123
f 481 37 457
f 449 447 34
f 435 449 34
f 470 472 471
f 472 470 37
f 470 471 127
f 472 126 471
f 126 468 471
f 470 459 37
f 491 126 472
f 504 129 485
f 221 59 242
f 125 463 465
f 437 34 562
f 561 437 562
f 554 568 562
f 34 554 562
f 437 561 116
f 390 103 389
f 103 386 389
f 392 105 391
f 572 586 580
f 572 580 36
f 586 152 580
f 473 572 36
f 244 243 242
f 225 244 59
f 64 240 241
f 240 239 241
f 237 240 64
f 243 64 241
f 236 237 64
f 411 607 521
f 9 411 521
f 110 607 411
f 607 142 521
f 610 607 110
f 171 15 184
f 171 169 15
f 15 186 184
f 87 584 581
f 153 588 582
f 588 575 582
f 381 102 380
f 573 572 473
f 468 469 128
f 474 468 128
f 469 571 128
f 571 573 128
f 573 473 128
f 473 474 128
f 564 323 565
f 26 323 564
f 323 324 86
f 325 323 26
f 325 324 323
f 563 565 86
f 324 325 85
f 410 230 18
f 230 228 18
f 18 228 241
f 18 241 239
f 401 619 618
f 401 402 107
f 403 402 401
f 619 159 618
f 401 618 32
f 619 401 107
f 403 401 32
f 618 611 32
f 159 624 618
f 478 122 459
f 122 458 459
f 37 459 457
f 459 458 457
f 122 456 458
f 457 458 123
f 191 190 192
f 485 129 484
f 129 482 484
f 483 485 484
f 130 483 484
f 189 187 14
f 191 50 189
f 191 189 175
f 189 14 175
f 14 177 175
f 499 501 500
f 501 499 38
f 38 499 590
f 135 499 500
f 488 501 38
f 499 135 591
f 480 454 4
f 284 12 346
f 4 423 506
f 480 4 506
f 423 531 506
f 480 506 505
f 531 137 506
f 506 137 505
f 365 366 98
f 71 270 262
f 270 71 269
f 71 267 269
f 335 334 333
f 333 334 89
f 334 335 91
f 536 9 519
f 465 463 461
f 537 140 541
f 520 140 519
f 119 446 465
f 465 461 119
f 461 441 119
f 460 441 461
f 176 46 173
f 299 297 24
f 71 263 266
f 263 260 266
f 260 72 266
f 263 70 260
f 205 201 49
f 201 181 49
f 186 205 49
f 181 201 200
f 181 182 49
f 284 77 283
f 586 587 152
f 588 586 151
f 20 267 265
f 266 267 71
f 31 417 631
f 631 417 632
f 31 631 639
f 417 31 419
f 641 631 161
f 417 112 632
f 161 631 632
f 418 417 419
f 417 418 112
f 284 345 77
f 542 550 145
f 542 541 524
f 284 174 12
f 48 174 283
f 373 20 265
f 373 265 374
f 609 608 525
f 608 157 622
f 560 559 313
f 636 637 162
f 541 140 524
f 41 542 524
f 358 357 280
f 70 263 264
f 263 262 264
f 176 177 46
f 174 48 173
f 174 173 172
f 538 551 549
f 538 540 539
f 537 541 539
f 232 221 242
f 17 221 232
f 232 242 62
f 231 232 62
f 203 205 55
f 203 55 202
f 201 205 203
f 202 55 217
f 205 206 55
f 204 203 202
f 73 275 292
f 292 290 73
f 272 290 282
f 290 292 291
f 75 290 291
f 290 75 282
f 70 277 259
f 277 70 281
f 277 281 279
f 260 70 259
f 12 174 172
f 104 396 388
f 367 27 354
f 365 27 367
f 354 27 356
f 365 367 366
f 595 27 365
f 318 299 310
f 155 596 597
f 155 597 598
f 596 594 597
f 595 596 155
f 605 595 155
f 180 47 179
f 180 190 47
f 352 372 11
f 11 372 261
f 312 310 24
f 642 636 162
f 636 297 637
f 367 369 97
f 366 367 97
f 369 367 354
f 369 370 97
f 580 579 464
f 580 152 579
f 579 124 464
f 61 230 409
f 230 410 409
f 230 61 229
f 230 229 228
f 76 285 286
f 353 352 276
f 74 353 276
f 288 76 286
f 288 286 283
f 289 288 287
f 203 54 201
f 287 288 77
f 77 288 283
f 286 48 283
f 531 423 113
f 276 11 259
f 11 261 259
f 277 276 259
f 616 158 615
f 516 616 615
f 138 516 615
f 138 615 612
f 509 533 532
f 503 502 504
f 635 79 294
f 635 294 404
f 635 637 79
f 637 635 638
f 638 635 108
f 635 404 108
f 226 61 405
f 61 226 227
f 405 61 409
f 227 226 207
f 48 178 179
f 48 286 178
f 173 48 179
f 534 143 533
f 534 535 143
f 531 534 533
f 533 143 532
f 137 531 533
f 261 372 371
f 13 180 178
f 285 13 178
f 180 13 166
f 13 168 166
f 346 345 284
f 331 327 46
f 46 327 172
f 172 327 326
f 382 620 101
f 442 121 448
f 443 121 442
f 2 226 404
f 294 2 404
f 404 226 405
f 207 226 2
f 550 551 145
f 552 146 551
f 143 550 532
f 552 550 143
f 330 329 328
f 24 636 629
f 94 352 353
f 352 11 276
f 113 428 534
f 428 535 534
f 509 41 511
f 535 552 143
f 550 552 551
f 550 542 532
f 369 95 368
f 326 327 87
f 87 327 329
f 327 331 329
f 581 326 87
f 293 79 298
f 79 297 298
f 296 298 78
f 79 293 294
f 296 293 298
f 598 490 38
f 358 280 22
f 280 279 278
f 357 358 95
f 74 357 353
f 330 328 25
f 567 23 559
f 590 598 38
f 590 604 598
f 598 604 155
f 604 590 154
f 590 591 154
f 604 154 606
f 297 299 298
f 299 318 78
f 298 299 78
f 355 354 356
f 629 636 642
f 312 24 629
f 629 642 160
f 370 362 97
f 362 363 97
f 363 366 97
f 364 363 362
f 362 370 351
f 96 363 364
f 297 636 24
f 162 637 638
f 637 297 79
f 490 488 38
f 598 597 490
f 441 442 119
f 443 442 441
f 443 441 5
f 442 448 445
f 296 78 295
f 326 12 172
f 575 574 364
f 47 175 176
f 175 177 176
f 47 176 179
