# FEM surface export ¡ª frame 445
# Vertices: 642  Faces: 1280
v -0.51711977 1.06492722 -0.00327011
v 0.51737368 1.06487334 -0.00070977
v -0.51314276 0.07993525 -0.03932140
v 0.53933126 0.21169344 0.01480864
v 0.00518749 0.00000000 1.00403678
v 0.00113975 0.80188781 0.86608911
v 0.00606897 0.00000000 -0.99373335
v 0.00004024 0.79936999 -0.86561966
v 0.90760416 0.34148583 -0.55933642
v 0.90570509 0.33264118 0.55682266
v -0.90616208 0.33128399 -0.55608612
v -0.90265268 0.33212897 0.55985564
v -0.82564664 0.77837223 0.31451976
v -0.51874340 0.61238891 0.84128040
v -0.30566218 1.03211117 0.49200535
v 0.30663231 1.03313911 0.49460977
v -0.00014999 1.17295814 -0.00124017
v 0.30454624 1.03307521 -0.49393865
v -0.30693775 1.03198719 -0.49543935
v -0.51856560 0.60756660 -0.84008372
v -0.82592940 0.77511054 -0.31640887
v -1.06280565 0.33353272 0.00523618
v 0.52227598 0.60771501 0.84063572
v 0.82732457 0.77854902 0.31543428
v -0.55445123 0.07853686 0.90039349
v 0.00156648 0.33904487 1.06378138
v -0.92111611 0.00000000 -0.36373088
v -0.95587158 0.00000000 0.35331967
v -0.00119052 0.33912724 -1.06355131
v -0.56062061 0.09337931 -0.91251904
v 0.82750779 0.77766949 -0.31497586
v 0.51752871 0.61243457 -0.84215128
v 0.95017278 0.00000000 0.34446764
v 0.55789208 0.07043805 0.89133847
v 0.31129912 0.03205313 0.55272061
v -0.34921676 0.10762586 0.52941954
v -0.01931210 0.02397451 0.03646025
v -0.30975205 0.01967544 -0.49175024
v 0.32721677 0.02605349 -0.52974457
v 0.55771720 0.09093930 -0.91245645
v 0.93301678 0.00113916 -0.34277916
v 1.06763101 0.33555609 -0.00399609
v -0.69282627 0.94705606 0.15764150
v -0.58780664 0.93661743 0.42307812
v -0.42580429 1.07410252 0.25170040
v -0.73760951 0.47967407 0.72865295
v -0.70772958 0.71600389 0.60345304
v -0.89940816 0.56673598 0.45324582
v -0.15948048 0.93840420 0.70111215
v -0.43089303 0.85377252 0.69328302
v -0.26612213 0.72277343 0.88668376
v -0.15669325 1.13879550 0.25405806
v -0.26392904 1.14723825 -0.00139144
v 0.16098393 0.93859750 0.70218390
v 0.00018747 1.06379235 0.51685041
v 0.26375982 1.14654529 -0.00083719
v 0.15867937 1.14133346 0.25494993
v 0.42698336 1.07344007 0.25493029
v -0.15815425 1.13931394 -0.25696209
v -0.42574567 1.07363474 -0.25751972
v 0.42628694 1.07493007 -0.25587857
v 0.15706037 1.14077079 -0.25698420
v -0.16126080 0.93926144 -0.70231426
v 0.00063293 1.06370842 -0.51739478
v 0.15997270 0.93923461 -0.70266974
v -0.59003246 0.93262553 -0.42667019
v -0.69332653 0.94514453 -0.16261157
v -0.26618472 0.71844929 -0.88469094
v -0.43030044 0.85070235 -0.69621927
v -0.90017414 0.56575292 -0.45533454
v -0.70588565 0.70871186 -0.60365337
v -0.73676699 0.47396636 -0.72972250
v -0.86515194 0.79892349 -0.00213265
v -1.01989341 0.32879627 -0.28393638
v -0.99468458 0.56794560 -0.17130859
v -0.99101454 0.57106280 0.16970046
v -1.01830566 0.32684907 0.29122537
v 0.58946890 0.93253928 0.42610404
v 0.69292414 0.94707459 0.16116662
v 0.26939246 0.71963352 0.88708937
v 0.43171760 0.84995973 0.69616008
v 0.90449345 0.56773293 0.45285648
v 0.71007311 0.71412653 0.60660928
v 0.74160409 0.48009735 0.72716355
v -0.27567935 0.48248446 1.00063550
v 0.00202750 0.58237404 1.00555062
v -0.75373966 0.19489756 0.74511969
v -0.55764419 0.33969149 0.90033591
v -0.00612258 0.11118271 1.04808378
v -0.28332087 0.19324090 1.02523971
v -0.29432195 0.00003733 1.00681484
v -1.04186964 0.09795161 0.17834798
v -0.94386435 0.10611389 0.47916201
v -0.95944941 0.11841462 -0.47223756
v -1.05560267 0.10757881 -0.17395912
v -0.76679456 0.05258041 0.12966438
v -0.99097359 0.00000000 -0.01811335
v -0.77050668 0.13303195 -0.18865733
v -0.56276804 0.33789721 -0.90005249
v -0.76088309 0.19694830 -0.74672872
v -0.00028266 0.57797217 -1.00050664
v -0.27642235 0.47991639 -0.99948370
v -0.29426172 0.00005142 -1.00654590
v -0.28521109 0.19693711 -1.02900815
v 0.00060105 0.11691321 -1.07289279
v 0.43161964 0.85233748 -0.69673687
v 0.26706734 0.71991456 -0.88597888
v 0.69416529 0.94669223 -0.16095772
v 0.58945757 0.93434000 -0.42412084
v 0.73708856 0.48327869 -0.73046094
v 0.70905977 0.71371102 -0.60657090
v 0.90105784 0.57033932 -0.45302233
v 0.76156956 0.11871082 0.16946740
v 0.65386277 0.01209342 0.47594866
v 0.45664990 0.12778357 0.31210169
v 0.76660353 0.19442219 0.75146323
v 0.79253221 0.00000000 0.65574157
v 0.95225996 0.11877036 0.47191149
v 0.16423836 0.00000765 0.80850607
v 0.50475729 0.00000000 0.81020647
v 0.31443334 0.00000000 1.00536335
v 0.16776462 0.13845254 0.30104560
v 0.25626311 0.00216513 0.00179051
v -0.20125642 0.01939728 0.78695172
v -0.03381448 0.08968060 0.57796758
v -0.29925728 0.09978411 0.06689059
v -0.19542454 0.05218244 0.29517046
v -0.47460473 0.04619480 0.23236550
v 0.14711443 0.06968759 -0.25780478
v 0.45975417 0.06707938 -0.24149705
v -0.42505080 0.04370729 -0.25617576
v -0.17025618 0.02107237 -0.19059174
v 0.20663622 0.00525118 -0.76043713
v -0.01706259 0.01106682 -0.49548173
v -0.17470972 0.01244331 -0.76806635
v 0.64043385 0.08142014 -0.44323143
v 0.75331897 0.13849412 -0.19364859
v 0.30701753 0.00861750 -1.01448357
v 0.50932080 0.00119570 -0.80427182
v 0.95076025 0.11477347 -0.47874805
v 0.80154324 0.00191670 -0.68464106
v 0.76109320 0.20775384 -0.75577086
v 0.99705118 0.00000000 0.00340302
v 1.02407229 0.33926409 -0.29199755
v 1.03579116 0.11224797 -0.17577784
v 1.03997004 0.10916542 0.17154323
v 1.02732372 0.33760551 0.28665408
v 0.28401050 0.18790689 1.01799238
v 0.56436485 0.33309805 0.90172398
v 0.28031728 0.47974908 1.00060189
v -0.69131833 0.00000000 0.44800547
v -0.50467288 0.01812522 0.78838176
v -0.79400754 0.00134160 0.68051404
v -0.48845205 0.00000000 -0.76472282
v -0.64804822 0.09364153 -0.47584665
v -0.80806255 0.03276756 -0.67768127
v 0.56018782 0.33896360 -0.90240997
v 0.28377989 0.20773295 -1.03047347
v 0.27544513 0.48316911 -0.99957377
v 0.99468541 0.57063979 0.16697305
v 0.99283212 0.57207739 -0.17004125
v 0.86626929 0.80053377 0.00120538
v -0.60907120 1.01304877 0.07826492
v -0.56463921 1.01970291 0.20805286
v -0.47436121 1.07508814 0.12617746
v -0.71451807 0.86504799 0.37233850
v -0.64610910 0.94743276 0.29288769
v -0.76538730 0.86871338 0.23554349
v -0.36863193 1.05936110 0.37450185
v -0.51080579 1.01235461 0.34027582
v -0.45050612 0.99231583 0.46230441
v -0.82703394 0.40618470 0.65056366
v -0.82984382 0.52688736 0.59927750
v -0.90836710 0.45101660 0.51048082
v -0.62208080 0.66843355 0.73138082
v -0.73093504 0.60178155 0.67322409
v -0.63449550 0.54916042 0.79299992
v -0.86970949 0.67803681 0.38741136
v -0.81157607 0.64584172 0.53413916
v -0.77570254 0.75431490 0.46405569
v -0.08105565 0.87532741 0.78974074
v -0.21465325 0.83768916 0.80316508
v -0.13277641 0.76522338 0.88560241
v -0.37020040 0.95059615 0.59931445
v -0.29651827 0.90105814 0.70477271
v -0.23446220 0.99101084 0.60095477
v -0.39564693 0.67296934 0.87289345
v -0.35332751 0.79304707 0.79674900
v -0.48041195 0.74091542 0.77592719
v -0.65521878 0.83534777 0.51866865
v -0.57641709 0.79164588 0.65706539
v -0.51517379 0.90309006 0.56475073
v -0.34845856 1.11942303 0.12623753
v -0.39269480 1.11185539 -0.00146703
v -0.23248321 1.09542990 0.37666872
v -0.29390135 1.11305416 0.25578257
v -0.13308069 1.17058980 -0.00176979
v -0.21203870 1.14990616 0.12759046
v -0.07892776 1.16643453 0.12827075
v 0.08262161 0.87430263 0.78922248
v 0.00055404 0.94569880 0.70960587
v 0.15359947 1.05537879 0.51085609
v 0.08078646 1.00767541 0.61346781
v 0.23688887 0.99101520 0.60252595
v -0.07802603 1.00731564 0.61348367
v -0.15320380 1.05624521 0.51019853
v 0.39435145 1.11230206 -0.00070165
v 0.34956127 1.11928701 0.12841769
v 0.47605601 1.07563221 0.12739637
v 0.07982276 1.16456437 0.12775634
v 0.21345137 1.15141606 0.12883756
v 0.13289072 1.16991210 -0.00151833
v 0.37154213 1.05946481 0.37780038
v 0.29347229 1.11435485 0.25777951
v 0.23386401 1.09446299 0.37782228
v -0.08085541 1.11264038 0.39007854
v 0.07926114 1.11215413 0.38885552
v -0.00084216 1.14911091 0.25688040
v -0.34860328 1.11925817 -0.13072546
v -0.47443452 1.07455218 -0.13073923
v -0.07931631 1.16677427 -0.12999462
v -0.21292210 1.15217197 -0.13020663
v -0.37055871 1.05764818 -0.37918890
v -0.29365176 1.11316037 -0.25927719
v -0.23421225 1.09499931 -0.37886971
v 0.47585210 1.07750118 -0.12928528
v 0.34909248 1.12193382 -0.12953404
v 0.23280531 1.09641683 -0.37846252
v 0.29353461 1.11533141 -0.25812489
v 0.36818087 1.05980420 -0.37786162
v 0.21207097 1.15169489 -0.12968610
v 0.07850412 1.16751695 -0.13031030
v -0.08181386 0.87433666 -0.79040509
v 0.00058987 0.94669753 -0.71155888
v 0.08229715 0.87299114 -0.79086626
v -0.15473491 1.05560088 -0.51196939
v -0.08051808 1.00892282 -0.61554551
v -0.23674351 0.99138016 -0.60310870
v 0.23529924 0.99182671 -0.60301811
v 0.08026727 1.00967038 -0.61521894
v 0.15298095 1.05650139 -0.51163185
v -0.00030395 1.14907777 -0.25923333
v 0.08028626 1.11187792 -0.38936526
v -0.08048666 1.11169279 -0.39071003
v -0.56423634 1.01865494 -0.21370418
v -0.61026490 1.01224983 -0.08298138
v -0.45229694 0.98938954 -0.46721438
v -0.51161975 1.01048207 -0.34526682
v -0.76610661 0.86614710 -0.24103242
v -0.64780021 0.94602311 -0.29718307
v -0.71547699 0.86189991 -0.37624317
v -0.13396198 0.76249206 -0.88277704
v -0.21495898 0.83625126 -0.80273616
v -0.47906223 0.73540258 -0.77691615
v -0.35218054 0.78993332 -0.79844183
v -0.39558440 0.66746753 -0.87027985
v -0.29771006 0.90006536 -0.70734799
v -0.37208688 0.94984603 -0.60233009
v -0.91054624 0.44764140 -0.51186287
v -0.82799500 0.51937366 -0.59998119
v -0.82712483 0.39998299 -0.65047479
v -0.77462476 0.74643779 -0.46459582
v -0.80852991 0.63959372 -0.53371543
v -0.87056434 0.67282277 -0.38729912
v -0.63366950 0.54422271 -0.79071468
v -0.72886175 0.59530061 -0.67285955
v -0.62001473 0.66381705 -0.72978938
v -0.51671517 0.89746207 -0.56819528
v -0.57552910 0.78531462 -0.65986931
v -0.65571225 0.82865494 -0.52051842
v -0.70166767 0.95430553 -0.00163243
v -0.85502076 0.79237658 -0.16170256
v -0.78627062 0.87928206 -0.08399422
v -0.78642249 0.87957191 0.07919644
v -0.85388142 0.79285270 0.15761970
v -0.97153217 0.33001554 -0.42311820
v -0.97438145 0.44820470 -0.37661180
v -1.03915381 0.45379749 -0.08402959
v -1.01982987 0.45042187 -0.23048070
v -1.05120468 0.33411700 -0.14126086
v -0.95647842 0.56568277 -0.31554013
v -0.91955930 0.67551082 -0.24743894
v -0.97218287 0.44871029 0.37878254
v -0.97205049 0.32908580 0.43194696
v -0.91935003 0.67933077 0.24631938
v -0.95434731 0.57251793 0.31536135
v -1.04765928 0.33117574 0.15006091
v -1.01625609 0.45370886 0.23500930
v -1.03939068 0.45178062 0.09040955
v -0.94112897 0.68865377 -0.08633874
v -1.00659525 0.57115471 0.00095471
v -0.94230139 0.69102913 0.08296436
v 0.56488746 1.02021027 0.21066523
v 0.60940796 1.01204944 0.07986940
v 0.45255944 0.99047369 0.46635461
v 0.51334566 1.01173854 0.34358931
v 0.76750433 0.86863208 0.23939037
v 0.64830303 0.94694525 0.29608354
v 0.71645057 0.86329442 0.37556261
v 0.13568932 0.76461864 0.88586348
v 0.21747541 0.83696783 0.80319601
v 0.48258540 0.73804313 0.77998972
v 0.35359949 0.78969526 0.79788190
v 0.39941302 0.66778386 0.87337434
v 0.29778194 0.90043181 0.70644838
v 0.37299833 0.94966859 0.60148740
v 0.91389036 0.45154551 0.51052135
v 0.83387250 0.52663779 0.59801382
v 0.83113956 0.40740150 0.64818054
v 0.77796668 0.75044334 0.46471977
v 0.81332737 0.64462769 0.53501797
v 0.87497503 0.67923635 0.38721055
v 0.63759977 0.54451537 0.79370564
v 0.73412216 0.59992784 0.67670172
v 0.62405664 0.66578186 0.73364723
v 0.51836360 0.89970100 0.56829065
v 0.57588685 0.78761381 0.65852952
v 0.65703183 0.83218306 0.52088815
v -0.13460387 0.65497780 0.95762718
v 0.00172002 0.69591689 0.94336599
v -0.40303615 0.55265850 0.93296510
v -0.27399632 0.60583258 0.95400828
v 0.00357070 0.46136999 1.04594231
v -0.13783184 0.53420436 1.01316655
v -0.14010841 0.41213351 1.04617000
v -0.83672053 0.26038483 0.65899575
v -0.75295573 0.33613992 0.74369228
v -0.55670732 0.20540442 0.90669554
v -0.66115993 0.26685697 0.82914889
v -0.65918165 0.13318950 0.82630682
v -0.65305156 0.41120845 0.82175547
v -0.54382008 0.47862017 0.88338757
v 0.00438164 0.02117947 1.04675937
v -0.14475946 0.04450855 1.03877473
v -0.14368260 0.00000000 1.01058674
v -0.14286223 0.26624709 1.05048275
v -0.14816353 0.15250829 1.05050695
v -0.00295358 0.21784607 1.06045270
v -0.42947808 0.03315560 0.96231329
v -0.28708741 0.08562634 1.01531625
v -0.41544339 0.13063531 0.97243488
v -0.42116091 0.41252971 0.96500725
v -0.42639998 0.26543459 0.97369152
v -0.28218526 0.33773240 1.02258527
v -0.99660891 0.21729356 0.39032128
v -0.92669070 0.21312962 0.52316809
v -1.06159604 0.21792030 0.09222830
v -1.03592908 0.21163535 0.23642993
v -0.97224504 0.02680374 0.42660517
v -1.00848579 0.10310306 0.33199194
v -1.01812792 0.00838830 0.26803118
v -0.93474406 0.22083160 -0.51953506
v -0.99737233 0.21931542 -0.37986657
v -1.03206527 0.04127340 -0.27216402
v -1.00862777 0.10857143 -0.32563818
v -0.96597481 0.01206352 -0.42764494
v -1.04032838 0.21815827 -0.22968344
v -1.06618202 0.22064640 -0.08352268
v -0.64573389 0.00034804 0.03563971
v -0.76438832 0.00000940 -0.05850984
v -0.63674986 0.06381334 -0.14174482
v -0.99004257 0.00000000 0.17511718
v -0.88399071 0.00043539 0.06065289
v -0.86445016 0.00382162 0.24203166
v -0.82558542 0.01864627 -0.26511240
v -0.88535589 0.01843968 -0.12743972
v -0.97736573 0.00000000 -0.19727229
v -1.06565869 0.10681453 0.00244333
v -1.06739759 0.00941697 -0.09481335
v -1.05929470 0.01246593 0.09140187
v -0.75609928 0.33365387 -0.74169433
v -0.84017599 0.26185647 -0.65560079
v -0.54598665 0.47217548 -0.87812567
v -0.65443558 0.40243688 -0.81941485
v -0.67311293 0.13781804 -0.83505040
v -0.66813034 0.26481286 -0.83358073
v -0.56691486 0.20470321 -0.91008794
v 0.00041266 0.69292992 -0.94119167
v -0.13527089 0.65370560 -0.95522052
v -0.14223576 0.41007492 -1.04431832
v -0.13816909 0.53156298 -1.00888073
v -0.00009134 0.45917058 -1.04248977
v -0.27289316 0.60230249 -0.94945353
v -0.40203694 0.54580140 -0.92785740
v -0.15158732 0.00000000 -1.02665377
v -0.14827560 0.05305019 -1.05725420
v 0.00171850 0.02373546 -1.06103158
v -0.42296943 0.13925938 -0.98167092
v -0.29740426 0.08875670 -1.02008629
v -0.44093952 0.02801697 -0.96752828
v -0.00084481 0.21906203 -1.07677627
v -0.14580871 0.14643283 -1.05604029
v -0.14473778 0.26800171 -1.05974281
v -0.42369181 0.40839797 -0.96458161
v -0.28756151 0.33619449 -1.02486587
v -0.43534800 0.26453218 -0.98158187
v 0.21640848 0.83581984 -0.80168021
v 0.13434616 0.76261055 -0.88410354
v 0.37124956 0.95068353 -0.60099924
v 0.29748565 0.90148556 -0.70563149
v 0.39540043 0.67062467 -0.87007540
v 0.35347632 0.79210329 -0.79764199
v 0.48169017 0.73761976 -0.77622086
v 0.61060834 1.01249588 -0.08071267
v 0.56534797 1.02079868 -0.21049750
v 0.71673989 0.86365008 -0.37437350
v 0.64816099 0.94841164 -0.29538926
v 0.76800126 0.86818600 -0.23901393
v 0.51188880 1.01203108 -0.34287807
v 0.45148110 0.99209762 -0.46655792
v 0.83041769 0.41335759 -0.65218109
v 0.83216333 0.53110915 -0.59961027
v 0.91326684 0.45760000 -0.51054627
v 0.62173164 0.66715378 -0.73141932
v 0.73119891 0.60065418 -0.67454278
v 0.63190097 0.54878646 -0.79258507
v 0.87039691 0.67684269 -0.38666561
v 0.81153315 0.64665008 -0.53541094
v 0.77653027 0.75112319 -0.46483803
v 0.51742780 0.90057218 -0.56701720
v 0.65733421 0.83084220 -0.51933599
v 0.57644409 0.78940195 -0.65817952
v 0.66638654 0.14794260 0.07359152
v 0.62132943 0.09874070 0.21737447
v 0.51598269 0.14255673 0.16159163
v 0.81114751 0.03555110 0.41303262
v 0.68660539 0.09741586 0.34151655
v 0.83590436 0.04607992 0.25475067
v 0.38013032 0.00004584 0.40137005
v 0.55435878 0.04566171 0.37043247
v 0.48192042 0.02711965 0.51877576
v 0.83834887 0.26218525 0.65609300
v 0.87331903 0.15389524 0.62559837
v 0.93173176 0.22152711 0.52047884
v 0.68568444 0.01253682 0.78766370
v 0.77972919 0.09078566 0.71807653
v 0.66325957 0.12414381 0.82385832
v 0.96360046 0.04112909 0.40738988
v 0.88358998 0.07121530 0.57193542
v 0.89399773 0.00000000 0.50853997
v 0.08596139 0.03766964 0.91679662
v 0.24764800 0.00089477 0.92182040
v 0.15411694 0.00000000 1.02037525
v 0.40752319 0.03458741 0.68623233
v 0.34095868 0.00247656 0.80263633
v 0.23786971 0.00058845 0.68632627
v 0.44121176 0.01756364 0.95129031
v 0.41909069 0.00000000 0.92820680
v 0.55464655 0.00000000 0.88475120
v 0.76362532 0.00040321 0.58694547
v 0.66675228 0.00000000 0.75514466
v 0.57714766 0.00035149 0.64063913
v 0.37987009 0.04664199 0.14718218
v 0.42635310 0.07365270 0.02132868
v 0.21829693 0.00428034 0.40290162
v 0.31519580 0.04934217 0.27849710
v 0.12180918 0.02965949 0.02214736
v 0.20350863 0.04066719 0.14775957
v 0.07994684 0.07069171 0.16658242
v -0.10023212 0.00001699 0.91552681
v -0.02266762 0.00624361 0.80106658
v -0.20654282 0.13618803 0.56672394
v -0.11754342 0.09257717 0.68735301
v -0.28413507 0.05065734 0.66131401
v 0.06627422 0.05860974 0.69441193
v 0.12500873 0.01560740 0.55813938
v -0.41455659 0.08628581 0.05603400
v -0.39767420 0.18380845 0.18009457
v -0.53230512 0.13551477 0.09719734
v -0.08482860 0.09289990 0.17093584
v -0.22574407 0.19032195 0.18755879
v -0.16726124 0.06878133 0.03767957
v -0.42897817 0.10574082 0.39969146
v -0.31758034 0.07948799 0.28880200
v -0.29062095 0.17736092 0.41837439
v 0.09249986 0.15891016 0.46379516
v -0.11356454 0.15804088 0.45347869
v -0.00851920 0.07281068 0.32781392
v 0.37932965 0.06867982 -0.09695978
v 0.48582846 0.20295212 -0.13982692
v 0.07873326 0.06772363 -0.09577010
v 0.20652260 0.03576165 -0.12544805
v 0.39401734 0.09119868 -0.39043957
v 0.31208792 0.02096499 -0.23929045
v 0.24679117 0.02179759 -0.37363479
v -0.44893613 0.04863989 -0.13636412
v -0.34601897 0.04385588 -0.08000582
v -0.24367633 0.00733218 -0.32699957
v -0.32009065 0.03975770 -0.20582469
v -0.36749351 0.03244347 -0.37954524
v -0.25644895 0.08897822 -0.08438865
v -0.11583114 0.03872271 -0.10671437
v 0.10688055 0.02472177 -0.87740254
v 0.01510817 0.00281753 -0.76783133
v -0.09115647 0.02270311 -0.88938439
v 0.17077453 0.02115938 -0.50851780
v 0.09219512 0.00000000 -0.63434488
v 0.27867588 0.02827992 -0.61964756
v -0.23958746 0.00247480 -0.63751292
v -0.08014398 0.03005829 -0.63032401
v -0.14287037 0.00029239 -0.48926765
v 0.00569635 0.05423028 -0.21269037
v -0.07776388 0.01864187 -0.34454110
v 0.07982193 0.04524542 -0.36478424
v 0.60236162 0.16131504 -0.23858173
v 0.65680367 0.17690125 -0.08616844
v 0.49864113 0.01678885 -0.49000052
v 0.53054911 0.13300590 -0.38008893
v 0.84426516 0.05670810 -0.25441539
v 0.69470572 0.12448644 -0.31825829
v 0.78804988 0.05977776 -0.40294302
v 0.15803032 0.00000000 -1.03072262
v 0.25291729 0.00000000 -0.92414027
v 0.54732251 0.00000000 -0.89442837
v 0.40841216 0.00000000 -0.92050993
v 0.44129592 0.04292833 -0.97553664
v 0.35784706 0.00441653 -0.79012197
v 0.42463633 0.05849808 -0.66142148
v 0.93532354 0.22698057 -0.51938534
v 0.87020385 0.16878326 -0.62741393
v 0.84365320 0.27844271 -0.66007626
v 0.88234520 0.00000000 -0.50679421
v 0.88248217 0.05608819 -0.59030885
v 0.97135073 0.02719304 -0.42517909
v 0.66008347 0.14365689 -0.83607101
v 0.77873677 0.09617525 -0.72583365
v 0.68606788 0.03781272 -0.81933749
v 0.58642781 0.00006174 -0.62146711
v 0.66678905 0.00000000 -0.75393856
v 0.73335463 0.01078247 -0.55595881
v 0.78030020 0.13307965 -0.01486427
v 0.97566450 0.00102488 -0.18608135
v 0.86694926 0.07301731 -0.09686096
v 0.90223491 0.04870465 0.08681218
v 0.97632670 0.00250047 0.19084351
v 0.97460747 0.33879510 -0.42920056
v 0.99420732 0.22425337 -0.38475144
v 1.06082380 0.21509363 -0.09051079
v 1.03562605 0.22016627 -0.23673970
v 1.05481315 0.33544669 -0.14872654
v 1.00989854 0.11436157 -0.33670366
v 1.01574612 0.06206886 -0.27474308
v 0.99768847 0.22402635 0.38545161
v 0.97621638 0.33487424 0.42759457
v 1.02282429 0.03598611 0.25746512
v 1.00065911 0.12068235 0.32200250
v 1.05398548 0.33425415 0.14112668
v 1.04556417 0.22253816 0.23230848
v 1.06270897 0.21949644 0.08142179
v 1.04223871 0.00780660 -0.09431395
v 1.05367124 0.09889022 -0.00220612
v 1.04252827 0.00416849 0.09001866
v 0.15513217 0.04380189 1.04093921
v 0.42460394 0.13010506 0.97048062
v 0.29750952 0.06992225 1.01061523
v 0.14618793 0.13610855 1.03587496
v 0.14301239 0.25973478 1.05051494
v 0.75850600 0.33605966 0.74507874
v 0.55262023 0.47217029 0.88701129
v 0.66139841 0.40734214 0.82391936
v 0.66714734 0.25910589 0.83304703
v 0.56379312 0.19806990 0.90181732
v 0.13911542 0.65444452 0.95792907
v 0.14519651 0.40772954 1.04756653
v 0.14225893 0.53246123 1.01295614
v 0.27817747 0.60439056 0.95425814
v 0.40718639 0.54609835 0.93082851
v 0.43173209 0.26122445 0.97570097
v 0.42895916 0.40489432 0.96776956
v 0.28669861 0.33404359 1.02401268
v -0.62070966 0.03690730 0.18706772
v -0.52565634 0.02968924 0.50000238
v -0.58145928 0.03568079 0.35916850
v -0.73458678 0.04814792 0.29162315
v -0.82588911 0.03456121 0.40972236
v -0.25752291 0.00000000 0.93013597
v -0.54017872 0.00000000 0.89949703
v -0.40154067 0.00000000 0.92559582
v -0.36018494 0.00567551 0.80100960
v -0.44378707 0.05046202 0.65536445
v -0.85751814 0.14638136 0.62398487
v -0.88187259 0.00000000 0.52715796
v -0.87596869 0.03869171 0.58396953
v -0.77155733 0.08105651 0.72082955
v -0.67096251 0.02007089 0.80062336
v -0.60893136 0.00000000 0.62894243
v -0.67561316 0.00000000 0.76734924
v -0.75482178 0.00000000 0.59051996
v -0.26302242 0.00054591 -0.92320031
v -0.38982123 0.05620022 -0.64711779
v -0.33590105 0.00631894 -0.78045541
v -0.42357367 0.00000000 -0.91094077
v -0.56408024 0.00496965 -0.88703799
v -0.60049516 0.06390056 -0.22729722
v -0.77306896 0.00660260 -0.42607015
v -0.68671972 0.11518959 -0.34254882
v -0.52747095 0.00997441 -0.36991355
v -0.47956771 0.07209605 -0.50887638
v -0.86416680 0.15494518 -0.61664236
v -0.68875325 0.03749163 -0.80877322
v -0.79112506 0.08733054 -0.72537875
v -0.89881319 0.07817727 -0.57272023
v -0.88362962 0.00000000 -0.53054255
v -0.57964975 0.05626689 -0.64097196
v -0.75023317 0.00000000 -0.60146457
v -0.66417974 0.00000000 -0.76164263
v 0.75724602 0.34341422 -0.74676490
v 0.55805087 0.20886728 -0.90839440
v 0.66515434 0.27344406 -0.83483887
v 0.65647602 0.41066206 -0.82512826
v 0.54693830 0.47721753 -0.88379282
v 0.15045716 0.06277825 -1.06175268
v 0.14137205 0.26988220 -1.05751050
v 0.14645855 0.16436249 -1.06616080
v 0.29310802 0.09796408 -1.03550804
v 0.42055511 0.14456563 -0.98427963
v 0.13604718 0.65331966 -0.95436120
v 0.40231493 0.54845548 -0.92973483
v 0.27429783 0.60527313 -0.95112962
v 0.13754874 0.53142101 -1.00812447
v 0.14158456 0.40914094 -1.04418397
v 0.43005562 0.26899442 -0.97692811
v 0.28549442 0.34082213 -1.02188385
v 0.42289552 0.41127983 -0.96209437
v 0.98082924 0.45148006 0.37863597
v 1.04532480 0.45167360 0.08509269
v 1.02482951 0.45774937 0.23134649
v 0.95830721 0.57174611 0.31465423
v 0.92220145 0.67883837 0.24497563
v 0.97272772 0.45704243 -0.37706807
v 0.91820943 0.68099272 -0.24669932
v 0.95674336 0.57328552 -0.31420031
v 1.01837838 0.45756489 -0.23208159
v 1.04340351 0.45778850 -0.08677358
v 0.70256323 0.95424074 0.00043821
v 0.85722244 0.79508692 0.15986213
v 0.78706676 0.88037133 0.08312685
v 0.78775746 0.87973058 -0.08159121
v 0.85707247 0.79399091 -0.15749376
v 1.00590396 0.57391661 0.00001892
v 0.94342941 0.69168508 -0.08517642
v 0.94399989 0.69271845 0.08493660
f 330 87 329
f 336 325 26
f 207 208 56
f 464 36 580
f 502 129 504
f 157 624 622
f 308 311 82
f 247 223 248
f 507 483 508
f 331 88 329
f 494 500 497
f 156 601 602
f 591 589 592
f 365 98 596
f 75 281 282
f 152 587 577
f 149 559 560
f 555 121 553
f 530 141 529
f 515 517 139
f 361 594 98
f 250 67 249
f 157 608 609
f 294 293 209
f 317 81 316
f 557 338 26
f 303 305 81
f 530 529 528
f 101 381 382
f 415 418 111
f 192 184 50
f 412 110 411
f 20 384 256
f 131 594 486
f 281 264 282
f 347 287 348
f 28 349 582
f 165 163 1
f 248 250 66
f 617 107 398
f 273 271 274
f 456 115 453
f 558 561 560
f 335 576 91
f 331 177 332
f 116 433 436
f 351 370 92
f 136 511 530
f 239 240 65
f 247 258 19
f 304 23 567
f 148 557 570
f 214 208 58
f 440 426 450
f 268 270 269
f 258 247 268
f 204 202 16
f 466 125 465
f 517 513 133
f 168 275 274
f 275 73 274
f 198 193 53
f 309 308 307
f 510 511 136
f 415 416 110
f 131 490 597
f 473 475 474
f 414 415 111
f 493 495 494
f 496 504 485
f 433 116 432
f 600 375 601
f 240 234 65
f 418 415 412
f 486 361 3
f 567 566 304
f 380 393 29
f 17 199 197
f 491 492 132
f 451 449 435
f 218 217 216
f 623 621 613
f 396 104 395
f 433 439 436
f 628 160 627
f 215 202 217
f 209 207 2
f 427 113 424
f 434 10 544
f 434 433 432
f 199 17 210
f 150 564 565
f 489 491 132
f 275 13 285
f 497 500 134
f 125 466 476
f 578 152 577
f 208 214 211
f 328 88 343
f 356 27 603
f 150 566 567
f 372 100 371
f 190 191 47
f 235 8 398
f 260 261 72
f 422 403 414
f 422 414 111
f 453 454 123
f 349 583 582
f 521 520 519
f 425 453 115
f 616 622 158
f 483 130 508
f 151 586 572
f 212 17 232
f 400 397 402
f 377 396 99
f 41 522 511
f 510 508 505
f 549 547 42
f 475 473 36
f 510 137 509
f 222 221 197
f 430 115 429
f 220 194 1
f 305 54 204
f 621 29 613
f 192 171 184
f 460 335 5
f 88 331 332
f 74 277 279
f 300 301 80
f 390 389 388
f 165 45 164
f 146 549 551
f 291 278 75
f 448 120 445
f 147 543 544
f 607 610 609
f 603 602 356
f 139 529 514
f 333 553 443
f 92 368 347
f 261 260 259
f 300 6 200
f 46 177 331
f 284 283 174
f 301 300 200
f 471 468 474
f 54 305 301
f 302 304 303
f 569 150 567
f 150 569 570
f 294 209 2
f 628 629 160
f 548 543 147
f 147 625 627
f 63 233 234
f 426 427 114
f 41 509 532
f 198 52 196
f 614 105 612
f 147 627 547
f 81 305 306
f 549 548 547
f 54 301 200
f 342 88 332
f 264 281 70
f 193 194 53
f 455 429 456
f 187 321 14
f 479 130 484
f 147 544 625
f 458 456 453
f 304 80 303
f 314 84 313
f 488 503 501
f 321 332 14
f 423 425 424
f 305 204 306
f 341 339 25
f 514 40 516
f 625 628 627
f 340 339 341
f 105 614 391
f 243 228 62
f 318 316 78
f 75 278 279
f 357 355 353
f 238 257 63
f 466 455 476
f 425 423 4
f 448 449 120
f 408 638 108
f 292 275 285
f 22 278 289
f 515 513 517
f 501 503 134
f 622 623 158
f 134 503 504
f 195 216 206
f 163 271 246
f 619 617 620
f 62 228 229
f 163 165 164
f 453 425 454
f 489 132 488
f 82 628 625
f 58 208 209
f 525 608 40
f 626 547 627
f 518 517 498
f 489 487 491
f 557 26 564
f 325 336 344
f 541 145 539
f 40 616 516
f 338 556 89
f 250 248 245
f 139 514 515
f 98 594 596
f 246 220 1
f 112 413 630
f 9 536 413
f 156 600 601
f 332 177 14
f 321 342 332
f 156 606 600
f 584 330 585
f 302 303 81
f 584 87 330
f 330 25 585
f 400 239 65
f 439 440 117
f 95 358 368
f 597 594 131
f 594 361 486
f 246 67 245
f 561 562 149
f 28 364 362
f 55 216 217
f 427 430 114
f 267 20 254
f 556 555 553
f 84 309 558
f 311 310 312
f 609 525 142
f 256 68 255
f 124 460 461
f 82 311 312
f 307 308 82
f 589 135 495
f 527 40 514
f 112 418 412
f 20 256 254
f 258 238 19
f 267 254 269
f 273 272 249
f 392 391 393
f 137 533 509
f 122 455 456
f 9 413 411
f 130 480 505
f 333 443 5
f 527 525 40
f 589 495 385
f 39 496 485
f 223 225 224
f 414 416 415
f 219 222 53
f 145 538 539
f 413 412 411
f 469 468 467
f 183 181 6
f 191 192 50
f 429 35 431
f 292 285 76
f 413 112 412
f 415 110 412
f 43 164 167
f 467 468 126
f 617 101 620
f 450 451 117
f 438 546 545
f 619 620 159
f 17 212 210
f 124 579 576
f 584 153 583
f 460 124 576
f 3 469 467
f 311 308 314
f 6 320 183
f 389 104 388
f 251 250 249
f 194 165 1
f 291 289 278
f 287 77 348
f 238 258 257
f 139 517 518
f 238 236 19
f 223 247 19
f 382 380 29
f 39 518 498
f 361 359 3
f 69 255 257
f 139 518 528
f 33 545 535
f 387 385 7
f 69 268 269
f 477 462 125
f 454 479 123
f 121 555 447
f 451 435 117
f 454 425 4
f 233 252 8
f 124 463 464
f 69 258 268
f 168 167 166
f 583 153 582
f 384 394 102
f 138 512 513
f 57 210 211
f 254 256 255
f 607 609 142
f 324 319 86
f 289 291 76
f 291 292 76
f 384 102 383
f 422 421 420
f 221 17 197
f 383 102 381
f 376 377 99
f 99 373 374
f 386 105 392
f 438 33 440
f 90 341 343
f 281 75 279
f 574 571 96
f 628 82 312
f 221 222 59
f 127 471 474
f 595 605 603
f 551 538 145
f 334 91 340
f 322 324 85
f 305 303 301
f 18 239 399
f 306 204 16
f 199 198 197
f 166 190 180
f 303 80 301
f 267 266 265
f 626 42 547
f 16 215 213
f 349 351 350
f 295 16 213
f 68 379 252
f 250 251 66
f 627 160 626
f 383 68 256
f 343 88 342
f 507 508 136
f 202 215 16
f 197 198 53
f 254 69 269
f 603 605 156
f 418 419 111
f 384 383 256
f 455 122 476
f 203 204 54
f 556 557 148
f 255 68 253
f 313 84 560
f 25 328 341
f 254 255 69
f 603 156 602
f 581 584 583
f 630 632 112
f 163 246 1
f 246 245 220
f 432 116 558
f 499 591 590
f 320 563 86
f 345 93 350
f 306 16 295
f 346 93 345
f 562 568 149
f 604 605 155
f 154 592 593
f 545 552 535
f 511 522 530
f 574 573 571
f 566 150 565
f 361 98 360
f 67 271 273
f 234 235 65
f 208 211 56
f 574 151 573
f 251 270 66
f 398 8 378
f 213 215 214
f 438 440 439
f 315 314 313
f 263 71 262
f 20 373 384
f 496 134 504
f 329 88 328
f 81 306 316
f 555 556 148
f 592 589 103
f 617 619 107
f 227 207 56
f 571 359 96
f 446 466 465
f 206 216 55
f 359 571 469
f 568 148 570
f 34 437 435
f 28 351 349
f 21 272 282
f 113 423 424
f 490 489 488
f 379 68 383
f 210 212 211
f 80 563 300
f 351 92 350
f 326 346 12
f 83 317 318
f 555 148 554
f 212 231 56
f 218 57 217
f 271 67 246
f 195 196 52
f 270 268 66
f 390 592 103
f 148 568 554
f 495 493 7
f 592 390 593
f 357 95 355
f 574 575 151
f 452 120 451
f 154 591 592
f 587 585 577
f 395 394 396
f 93 349 350
f 610 416 611
f 166 44 190
f 315 23 302
f 315 302 317
f 268 247 66
f 606 154 593
f 396 394 99
f 211 212 56
f 370 369 368
f 235 397 65
f 280 278 22
f 83 315 317
f 575 588 151
f 74 279 280
f 385 495 7
f 63 257 253
f 397 235 398
f 214 58 213
f 220 219 194
f 546 146 545
f 236 225 19
f 599 94 602
f 235 233 8
f 102 394 395
f 611 416 32
f 225 223 19
f 139 528 529
f 231 62 229
f 419 406 421
f 451 450 452
f 49 182 185
f 402 397 107
f 52 199 218
f 416 610 110
f 225 236 244
f 107 397 398
f 68 252 253
f 322 85 321
f 182 181 183
f 118 438 439
f 546 438 118
f 348 77 345
f 543 546 118
f 231 212 232
f 610 611 157
f 33 438 545
f 385 386 103
f 479 480 130
f 169 195 15
f 93 583 349
f 15 195 206
f 190 44 192
f 247 248 66
f 146 552 545
f 248 60 245
f 570 557 564
f 274 271 43
f 63 253 233
f 272 21 249
f 507 528 518
f 67 273 249
f 487 467 126
f 196 195 169
f 624 159 623
f 134 496 497
f 132 503 488
f 104 393 395
f 556 553 89
f 355 356 94
f 258 69 257
f 229 61 227
f 56 231 227
f 460 576 335
f 463 124 461
f 394 373 99
f 29 393 391
f 67 250 245
f 193 198 196
f 462 36 464
f 144 633 630
f 141 526 527
f 517 133 498
f 536 144 630
f 100 372 599
f 144 536 537
f 22 289 287
f 578 579 152
f 579 578 576
f 189 188 187
f 60 223 224
f 92 348 350
f 555 554 447
f 396 377 388
f 194 193 165
f 413 536 630
f 372 352 599
f 377 376 375
f 348 345 350
f 105 386 387
f 240 237 234
f 463 462 464
f 135 500 494
f 45 196 169
f 512 612 387
f 245 60 220
f 429 115 456
f 223 60 248
f 288 289 76
f 525 526 142
f 100 599 601
f 613 29 391
f 526 523 520
f 341 328 343
f 631 641 639
f 264 21 282
f 266 72 265
f 106 402 403
f 73 273 274
f 186 206 205
f 381 379 383
f 52 216 195
f 410 18 399
f 290 272 73
f 72 371 374
f 526 525 527
f 115 430 424
f 498 497 496
f 621 382 29
f 543 118 434
f 214 215 57
f 522 141 530
f 511 510 509
f 352 94 599
f 493 512 7
f 90 340 341
f 169 171 170
f 605 604 606
f 219 60 224
f 104 389 392
f 359 469 3
f 186 49 185
f 222 219 224
f 166 167 44
f 428 427 426
f 523 522 524
f 129 502 481
f 50 185 188
f 164 45 170
f 425 115 424
f 33 428 426
f 427 428 113
f 94 356 602
f 515 138 513
f 114 431 452
f 237 236 238
f 215 217 57
f 95 354 355
f 220 60 219
f 515 514 516
f 183 320 319
f 222 197 53
f 559 569 567
f 300 320 6
f 435 436 117
f 96 360 363
f 640 642 641
f 242 243 62
f 140 537 519
f 508 130 505
f 420 410 399
f 537 539 144
f 317 316 318
f 426 114 450
f 186 15 206
f 311 83 310
f 625 544 307
f 544 10 307
f 168 43 167
f 185 182 188
f 369 354 95
f 44 171 192
f 605 606 156
f 548 549 146
f 100 601 375
f 149 568 569
f 381 380 382
f 455 466 35
f 480 479 454
f 543 548 546
f 493 133 513
f 492 472 37
f 477 125 476
f 491 487 126
f 337 336 338
f 588 153 587
f 576 578 91
f 633 161 632
f 96 359 360
f 39 485 483
f 101 617 378
f 193 45 165
f 163 164 43
f 618 624 611
f 507 136 528
f 561 149 560
f 641 162 639
f 116 561 558
f 494 133 493
f 253 252 233
f 63 237 238
f 392 393 104
f 440 450 117
f 93 581 583
f 386 385 387
f 120 449 451
f 421 422 111
f 486 3 467
f 302 81 317
f 633 632 630
f 462 475 36
f 376 99 374
f 489 490 131
f 447 449 448
f 387 612 105
f 106 420 399
f 173 46 172
f 492 491 472
f 316 306 295
f 22 287 347
f 109 410 420
f 507 39 483
f 559 23 313
f 214 57 211
f 196 45 193
f 10 434 432
f 422 106 403
f 626 160 640
f 487 486 467
f 542 41 532
f 400 106 399
f 444 120 452
f 198 199 52
f 475 127 474
f 621 620 382
f 621 623 159
f 450 114 452
f 92 347 348
f 376 100 375
f 434 118 433
f 503 132 502
f 337 90 336
f 537 536 519
f 395 393 380
f 201 54 200
f 171 44 170
f 355 94 353
f 58 296 213
f 422 420 106
f 595 365 596
f 569 568 570
f 523 140 520
f 114 430 431
f 218 210 57
f 304 566 80
f 639 162 638
f 261 371 72
f 548 147 547
f 498 133 497
f 150 570 564
f 222 224 59
f 142 526 520
f 437 436 435
f 141 522 523
f 137 510 505
f 173 179 176
f 559 149 569
f 121 447 448
f 563 320 300
f 102 395 380
f 257 255 253
f 642 162 641
f 83 311 314
f 216 52 218
f 512 493 513
f 23 304 302
f 91 339 340
f 512 138 612
f 159 620 621
f 218 199 210
f 364 28 575
f 83 318 310
f 168 274 43
f 136 530 528
f 140 523 524
f 495 135 494
f 233 235 234
f 566 563 80
f 25 339 577
f 277 74 276
f 475 462 477
f 133 494 497
f 436 437 116
f 389 386 392
f 548 146 546
f 441 460 5
f 10 309 307
f 65 397 400
f 543 434 544
f 640 641 161
f 272 273 73
f 581 93 346
f 419 421 111
f 319 320 86
f 180 179 178
f 127 475 477
f 231 229 227
f 337 334 340
f 136 508 510
f 308 309 84
f 237 63 234
f 447 554 34
f 252 379 378
f 315 83 314
f 608 622 616
f 338 336 26
f 337 338 89
f 13 275 168
f 209 208 207
f 436 439 117
f 628 312 629
f 360 366 363
f 364 574 96
f 359 361 360
f 466 446 35
f 500 501 134
f 406 109 421
f 135 589 591
f 601 599 602
f 340 90 337
f 481 492 37
f 522 41 524
f 78 316 295
f 131 486 487
f 403 32 414
f 634 626 640
f 151 572 573
f 515 516 138
f 8 252 378
f 265 72 374
f 9 521 519
f 538 549 42
f 368 358 347
f 588 587 586
f 458 453 123
f 589 385 103
f 502 492 481
f 32 416 414
f 430 427 424
f 153 585 587
f 540 144 539
f 370 368 92
f 209 293 58
f 428 33 535
f 326 581 346
f 625 307 82
f 575 28 582
f 6 181 200
f 421 109 420
f 553 121 443
f 160 642 640
f 153 584 585
f 309 432 558
f 334 337 89
f 23 315 313
f 271 163 43
f 296 295 213
f 39 498 496
f 118 439 433
f 531 113 534
f 293 296 58
f 28 362 351
f 489 131 487
f 431 444 452
f 84 558 560
f 98 366 360
f 45 169 170
f 379 101 378
f 462 463 125
f 308 84 314
f 10 432 309
f 299 24 310
f 132 492 502
f 512 387 7
f 639 638 408
f 565 323 86
f 59 244 242
f 106 400 402
f 440 33 426
f 566 565 563
f 617 398 378
f 224 225 59
f 410 109 409
f 239 400 399
f 194 219 53
f 358 22 347
f 610 157 609
f 27 595 603
f 479 484 482
f 142 520 521
f 585 25 577
f 339 578 577
f 408 407 406
f 407 109 406
f 31 408 406
f 407 408 108
f 31 639 408
f 419 31 406
f 608 616 40
f 430 429 431
f 455 35 429
f 35 444 431
f 188 51 187
f 188 182 51
f 51 322 187
f 322 51 319
f 51 182 183
f 319 51 183
f 187 322 321
f 322 319 324
f 381 101 379
f 405 407 108
f 404 405 108
f 286 285 178
f 407 405 409
f 109 407 409
f 191 175 47
f 167 164 170
f 50 184 185
f 44 167 170
f 64 244 236
f 243 244 64
f 50 188 189
f 541 542 145
f 442 445 119
f 339 91 578
f 445 446 119
f 624 623 622
f 611 624 157
f 523 526 141
f 141 527 529
f 527 514 529
f 445 120 444
f 446 445 444
f 35 446 444
f 613 614 158
f 158 614 615
f 623 613 158
f 614 613 391
f 614 612 615
f 371 376 374
f 100 376 371
f 479 482 123
f 373 394 384
f 540 42 634
f 633 540 634
f 538 42 540
f 633 634 161
f 161 634 640
f 42 626 634
f 540 633 144
f 557 556 338
f 553 333 89
f 262 21 264
f 251 21 262
f 5 335 333
f 270 251 262
f 21 251 249
f 600 593 30
f 606 593 600
f 600 30 375
f 593 390 30
f 30 377 375
f 390 388 30
f 30 388 377
f 228 243 241
f 470 478 459
f 470 127 478
f 127 477 478
f 184 186 185
f 478 477 476
f 122 478 476
f 357 74 280
f 518 39 507
f 344 342 85
f 325 344 85
f 342 344 343
f 85 342 321
f 344 90 343
f 90 344 336
f 482 129 481
f 482 481 457
f 482 457 123
f 481 37 457
f 449 447 34
f 435 449 34
f 470 472 471
f 472 470 37
f 470 471 127
f 472 126 471
f 126 468 471
f 470 459 37
f 491 126 472
f 504 129 485
f 221 59 242
f 125 463 465
f 437 34 562
f 561 437 562
f 554 568 562
f 34 554 562
f 437 561 116
f 390 103 389
f 103 386 389
f 392 105 391
f 572 586 580
f 572 580 36
f 586 152 580
f 473 572 36
f 244 243 242
f 225 244 59
f 64 240 241
f 240 239 241
f 237 240 64
f 243 64 241
f 236 237 64
f 411 607 521
f 9 411 521
f 110 607 411
f 607 142 521
f 610 607 110
f 171 15 184
f 171 169 15
f 15 186 184
f 87 584 581
f 153 588 582
f 588 575 582
f 381 102 380
f 573 572 473
f 468 469 128
f 474 468 128
f 469 571 128
f 571 573 128
f 573 473 128
f 473 474 128
f 564 323 565
f 26 323 564
f 323 324 86
f 325 323 26
f 325 324 323
f 563 565 86
f 324 325 85
f 410 230 18
f 230 228 18
f 18 228 241
f 18 241 239
f 401 619 618
f 401 402 107
f 403 402 401
f 619 159 618
f 401 618 32
f 619 401 107
f 403 401 32
f 618 611 32
f 159 624 618
f 478 122 459
f 122 458 459
f 37 459 457
f 459 458 457
f 122 456 458
f 457 458 123
f 191 190 192
f 485 129 484
f 129 482 484
f 483 485 484
f 130 483 484
f 189 187 14
f 191 50 189
f 191 189 175
f 189 14 175
f 14 177 175
f 499 501 500
f 501 499 38
f 38 499 590
f 135 499 500
f 488 501 38
f 499 135 591
f 480 454 4
f 284 12 346
f 4 423 506
f 480 4 506
f 423 531 506
f 480 506 505
f 531 137 506
f 506 137 505
f 365 366 98
f 71 270 262
f 270 71 269
f 71 267 269
f 335 334 333
f 333 334 89
f 334 335 91
f 536 9 519
f 465 463 461
f 537 140 541
f 520 140 519
f 119 446 465
f 465 461 119
f 461 441 119
f 460 441 461
f 176 46 173
f 299 297 24
f 71 263 266
f 263 260 266
f 260 72 266
f 263 70 260
f 205 201 49
f 201 181 49
f 186 205 49
f 181 201 200
f 181 182 49
f 284 77 283
f 586 587 152
f 588 586 151
f 20 267 265
f 266 267 71
f 31 417 631
f 631 417 632
f 31 631 639
f 417 31 419
f 641 631 161
f 417 112 632
f 161 631 632
f 418 417 419
f 417 418 112
f 284 345 77
f 542 550 145
f 542 541 524
f 284 174 12
f 48 174 283
f 373 20 265
f 373 265 374
f 609 608 525
f 608 157 622
f 560 559 313
f 636 637 162
f 541 140 524
f 41 542 524
f 358 357 280
f 70 263 264
f 263 262 264
f 176 177 46
f 174 48 173
f 174 173 172
f 538 551 549
f 538 540 539
f 537 541 539
f 232 221 242
f 17 221 232
f 232 242 62
f 231 232 62
f 203 205 55
f 203 55 202
f 201 205 203
f 202 55 217
f 205 206 55
f 204 203 202
f 73 275 292
f 292 290 73
f 272 290 282
f 290 292 291
f 75 290 291
f 290 75 282
f 70 277 259
f 277 70 281
f 277 281 279
f 260 70 259
f 12 174 172
f 104 396 388
f 367 27 354
f 365 27 367
f 354 27 356
f 365 367 366
f 595 27 365
f 318 299 310
f 155 596 597
f 155 597 598
f 596 594 597
f 595 596 155
f 605 595 155
f 180 47 179
f 180 190 47
f 352 372 11
f 11 372 261
f 312 310 24
f 642 636 162
f 636 297 637
f 367 369 97
f 366 367 97
f 369 367 354
f 369 370 97
f 580 579 464
f 580 152 579
f 579 124 464
f 61 230 409
f 230 410 409
f 230 61 229
f 230 229 228
f 76 285 286
f 353 352 276
f 74 353 276
f 288 76 286
f 288 286 283
f 289 288 287
f 203 54 201
f 287 288 77
f 77 288 283
f 286 48 283
f 531 423 113
f 276 11 259
f 11 261 259
f 277 276 259
f 616 158 615
f 516 616 615
f 138 516 615
f 138 615 612
f 509 533 532
f 503 502 504
f 635 79 294
f 635 294 404
f 635 637 79
f 637 635 638
f 638 635 108
f 635 404 108
f 226 61 405
f 61 226 227
f 405 61 409
f 227 226 207
f 48 178 179
f 48 286 178
f 173 48 179
f 534 143 533
f 534 535 143
f 531 534 533
f 533 143 532
f 137 531 533
f 261 372 371
f 13 180 178
f 285 13 178
f 180 13 166
f 13 168 166
f 346 345 284
f 331 327 46
f 46 327 172
f 172 327 326
f 382 620 101
f 442 121 448
f 443 121 442
f 2 226 404
f 294 2 404
f 404 226 405
f 207 226 2
f 550 551 145
f 552 146 551
f 143 550 532
f 552 550 143
f 330 329 328
f 24 636 629
f 94 352 353
f 352 11 276
f 113 428 534
f 428 535 534
f 509 41 511
f 535 552 143
f 550 552 551
f 550 542 532
f 369 95 368
f 326 327 87
f 87 327 329
f 327 331 329
f 581 326 87
f 293 79 298
f 79 297 298
f 296 298 78
f 79 293 294
f 296 293 298
f 598 490 38
f 358 280 22
f 280 279 278
f 357 358 95
f 74 357 353
f 330 328 25
f 567 23 559
f 590 598 38
f 590 604 598
f 598 604 155
f 604 590 154
f 590 591 154
f 604 154 606
f 297 299 298
f 299 318 78
f 298 299 78
f 355 354 356
f 629 636 642
f 312 24 629
f 629 642 160
f 370 362 97
f 362 363 97
f 363 366 97
f 364 363 362
f 362 370 351
f 96 363 364
f 297 636 24
f 162 637 638
f 637 297 79
f 490 488 38
f 598 597 490
f 441 442 119
f 443 442 441
f 443 441 5
f 442 448 445
f 296 78 295
f 326 12 172
f 575 574 364
f 47 175 176
f 175 177 176
f 47 176 179
