# FEM surface export ¡ª frame 147
# Vertices: 642  Faces: 1280
v -0.52576709 1.75267637 0.00000098
v 0.52575439 1.75264752 -0.00000011
v -0.54042000 0.05454014 -0.00061938
v 0.54028487 0.05553316 0.00000220
v -0.00002504 0.37674820 0.85346085
v -0.00001192 1.42782211 0.85077620
v -0.00008222 0.37700438 -0.85400254
v -0.00000047 1.42777467 -0.85073680
v 0.85100788 0.90216172 -0.52595806
v 0.85104245 0.90212363 0.52596641
v -0.85102212 0.90212607 -0.52600652
v -0.85104692 0.90210879 0.52592182
v -0.80913305 1.40205550 0.30905956
v -0.50011563 1.21111107 0.80920005
v -0.30903947 1.71103215 0.50003451
v 0.30903900 1.71103871 0.50003421
v 0.00000034 1.90199053 -0.00000213
v 0.30903405 1.71102107 -0.50002474
v -0.30903891 1.71104896 -0.50003719
v -0.50010514 1.21109176 -0.80919433
v -0.80914593 1.40207052 -0.30906013
v -1.00031197 0.90203708 -0.00001628
v 0.50013524 1.21114659 0.80926782
v 0.80909622 1.40203238 0.30904868
v -0.50066417 0.59327286 0.81008989
v 0.00003458 0.90214717 1.00047874
v -0.81195283 0.40283370 -0.30999380
v -0.81120139 0.40271181 0.30982074
v -0.00001398 0.90216577 -1.00047529
v -0.50058377 0.59326255 -0.81008101
v 0.80909622 1.40201294 -0.30904686
v 0.50007302 1.21107721 -0.80914730
v 0.81190866 0.40245903 0.30996349
v 0.50069702 0.59330297 0.80996376
v 0.31704292 0.09516826 0.51027793
v -0.31525975 0.09425199 0.50888759
v -0.00263890 0.00000000 -0.00321405
v -0.31653562 0.09681904 -0.51091164
v 0.31571352 0.09602191 -0.51146346
v 0.50075030 0.59343731 -0.81017476
v 0.81214154 0.40317917 -0.31010523
v 1.00051880 0.90217298 0.00002678
v -0.69384235 1.60407412 0.16063860
v -0.58783907 1.59024155 0.42538035
v -0.43391466 1.76468432 0.25990605
v -0.70222968 1.06272674 0.69396996
v -0.68830210 1.32737315 0.58788037
v -0.86287993 1.16197240 0.43399647
v -0.16063222 1.59580612 0.70210505
v -0.42538077 1.48982990 0.68825871
v -0.25992411 1.33598161 0.86282676
v -0.16246498 1.85305607 0.26288050
v -0.27327430 1.86393440 -0.00000088
v 0.16063409 1.59579098 0.70209503
v 0.00000187 1.75265050 0.52576262
v 0.27327853 1.86392701 -0.00000033
v 0.16247001 1.85307121 0.26288444
v 0.43391302 1.76467299 0.25990528
v -0.16246377 1.85305357 -0.26287791
v -0.43391544 1.76469600 -0.25990698
v 0.43391064 1.76466393 -0.25990653
v 0.16246726 1.85304928 -0.26287982
v -0.16062845 1.59579432 -0.70209998
v 0.00000420 1.75265551 -0.52576166
v 0.16063769 1.59579051 -0.70210022
v -0.58784527 1.59023893 -0.42535916
v -0.69383502 1.60407543 -0.16064142
v -0.25992236 1.33592248 -0.86277777
v -0.42536294 1.48983872 -0.68826127
v -0.86287510 1.16197991 -0.43399143
v -0.68828851 1.32739568 -0.58789724
v -0.70222765 1.06272089 -0.69398952
v -0.85077345 1.42779589 0.00000519
v -0.96233529 0.90206724 -0.27342439
v -0.95131087 1.16495824 -0.16251111
v -0.95131516 1.16494572 0.16250384
v -0.96236056 0.90208089 0.27337092
v 0.58783704 1.59020483 0.42536074
v 0.69382298 1.60405493 0.16062826
v 0.25994757 1.33587766 0.86278933
v 0.42536041 1.48981917 0.68824965
v 0.86284423 1.16193402 0.43399572
v 0.68831360 1.32738686 0.58785540
v 0.70222157 1.06268311 0.69392526
v -0.26293048 1.06457877 0.95137149
v 0.00000919 1.17534161 0.96215415
v -0.70277888 0.74165928 0.69430721
v -0.52597481 0.90222651 0.85098892
v 0.00004993 0.62898660 0.96310443
v -0.26298749 0.73969722 0.95185995
v -0.26042315 0.46854666 0.86512810
v -0.95181751 0.63937390 0.16264535
v -0.86345726 0.64233077 0.43424457
v -0.86338407 0.64233595 -0.43426794
v -0.95199811 0.63944370 -0.16261315
v -0.70146114 0.20061480 0.16280192
v -0.85383064 0.37733191 -0.00000298
v -0.70264626 0.20057191 -0.16216673
v -0.52597493 0.90207648 -0.85103136
v -0.70258904 0.74160039 -0.69435382
v -0.00000321 1.17535865 -0.96213037
v -0.26292434 1.06457138 -0.95136416
v -0.26061586 0.46850756 -0.86466539
v -0.26304930 0.73971844 -0.95173377
v 0.00006834 0.62912965 -0.96302724
v 0.42535686 1.48979449 -0.68824440
v 0.25993961 1.33592129 -0.86276960
v 0.69382238 1.60405290 -0.16063477
v 0.58782685 1.59019983 -0.42534533
v 0.70222509 1.06270719 -0.69395655
v 0.68829060 1.32737446 -0.58788061
v 0.86282653 1.16193545 -0.43395820
v 0.70309228 0.20001999 0.16267580
v 0.59509724 0.21450350 0.43007985
v 0.44695055 0.04510500 0.26761907
v 0.70259017 0.74158573 0.69432473
v 0.68977803 0.47722319 0.58909720
v 0.86344463 0.64231110 0.43419099
v 0.16266896 0.20942467 0.70961452
v 0.42758778 0.31509265 0.69201338
v 0.26039553 0.46889675 0.86480534
v 0.17002043 0.00000000 0.27506661
v 0.28779030 0.00000000 -0.00096766
v -0.16312973 0.20900796 0.70885384
v -0.00020811 0.05918095 0.54192924
v -0.28781995 0.00000000 0.00094419
v -0.16931625 0.00000000 0.27395639
v -0.44635674 0.04662060 0.26664072
v 0.16927624 0.00000000 -0.27011538
v 0.44447270 0.04429160 -0.26699778
v -0.44869435 0.04596038 -0.26768222
v -0.16873194 0.00000000 -0.27229428
v 0.16254377 0.20884198 -0.71011925
v 0.00035681 0.05486877 -0.53724527
v -0.16131192 0.20769960 -0.71005756
v 0.59444457 0.21374464 -0.42945239
v 0.70286179 0.20014471 -0.16321573
v 0.26071906 0.46854419 -0.86471665
v 0.42748058 0.31476605 -0.69171816
v 0.86364245 0.64260477 -0.43437815
v 0.68967092 0.47736487 -0.58917385
v 0.70258826 0.74165910 -0.69438255
v 0.85353988 0.37668997 0.00004738
v 0.96240008 0.90213424 -0.27341712
v 0.95197624 0.63941753 -0.16255696
v 0.95175308 0.63931376 0.16250044
v 0.96221548 0.90205634 0.27336591
v 0.26307631 0.73974562 0.95172614
v 0.52594227 0.90210068 0.85091078
v 0.26294512 1.06449091 0.95135820
v -0.59390014 0.21367227 0.42995566
v -0.42842469 0.31475586 0.69238788
v -0.68981218 0.47692558 0.58889121
v -0.42822328 0.31460699 -0.69330472
v -0.59447491 0.21496169 -0.42961037
v -0.69003522 0.47707161 -0.58948350
v 0.52595651 0.90213883 -0.85102862
v 0.26305678 0.73980796 -0.95181221
v 0.26296657 1.06458342 -0.95135707
v 0.95125157 1.16491687 0.16249451
v 0.95122457 1.16491556 -0.16249600
v 0.85073918 1.42775822 -0.00000087
v -0.61568475 1.68587387 0.08109634
v -0.57128853 1.69467795 0.21303959
v -0.48446560 1.76694345 0.13121015
v -0.70721489 1.50356221 0.37179637
v -0.64746457 1.60435736 0.29604328
v -0.75872433 1.50885153 0.23710532
v -0.37506250 1.74592400 0.38363987
v -0.51615077 1.68547523 0.34618387
v -0.45401862 1.65995646 0.46846837
v -0.78413606 0.98321408 0.61583537
v -0.79285318 1.11512530 0.57138842
v -0.86517870 1.03326738 0.48457330
v -0.60160989 1.27379632 0.70722514
v -0.70246381 1.19807518 0.64753902
v -0.60695255 1.13915145 0.75876594
v -0.84408152 1.28567994 0.37511280
v -0.78360099 1.24822414 0.51621753
v -0.75804836 1.37046301 0.45404530
v -0.08109291 1.51768923 0.78392118
v -0.21304211 1.47329867 0.79274487
v -0.13121195 1.38650024 0.86506951
v -0.37177083 1.60912919 0.60155153
v -0.29602879 1.54944730 0.70237529
v -0.23710145 1.66066456 0.60686952
v -0.38368675 1.27716863 0.84409571
v -0.34620777 1.41820872 0.78357285
v -0.46851465 1.35607469 0.75806564
v -0.64667088 1.46630800 0.51345813
v -0.56434155 1.41543448 0.64665931
v -0.51341820 1.54861796 0.56430572
v -0.35824636 1.82630730 0.13166507
v -0.40337288 1.81704402 0.00000366
v -0.23868489 1.79301453 0.38621455
v -0.30127478 1.81824732 0.26409745
v -0.13795692 1.89244819 -0.00000103
v -0.22012414 1.86838865 0.13279711
v -0.08224532 1.88969457 0.13307433
v 0.08109415 1.51768100 0.78389901
v 0.00000591 1.60493267 0.71132964
v 0.15644099 1.74217582 0.51928711
v 0.08114923 1.68220913 0.62027222
v 0.23709936 1.66065836 0.60686398
v -0.08113750 1.68221152 0.62027556
v -0.15643683 1.74219203 0.51929289
v 0.40337569 1.81703007 0.00000019
v 0.35824829 1.82629573 0.13166170
v 0.48446146 1.76692498 0.13120382
v 0.08224756 1.88968182 0.13307630
v 0.22012964 1.86839867 0.13280024
v 0.13796128 1.89244533 -0.00000030
v 0.37506294 1.74591267 0.38363090
v 0.30128080 1.81825292 0.26409921
v 0.23868750 1.79300535 0.38620794
v -0.08232284 1.81498945 0.39963546
v 0.08232445 1.81497896 0.39962131
v 0.00000075 1.86586607 0.26641828
v -0.35824284 1.82630706 -0.13166086
v -0.48446760 1.76694381 -0.13120671
v -0.08224489 1.88968503 -0.13307811
v -0.22012594 1.86839628 -0.13279982
v -0.37506014 1.74593258 -0.38363871
v -0.30126986 1.81824768 -0.26409328
v -0.23868892 1.79301620 -0.38620508
v 0.48446661 1.76693106 -0.13120654
v 0.35824892 1.82629919 -0.13165970
v 0.23869039 1.79300380 -0.38620552
v 0.30127332 1.81823742 -0.26409602
v 0.37505734 1.74590814 -0.38363332
v 0.22012608 1.86838973 -0.13279921
v 0.08224511 1.88968670 -0.13308030
v -0.08109178 1.51766694 -0.78391069
v 0.00000272 1.60491788 -0.71134114
v 0.08109689 1.51764762 -0.78390223
v -0.15644068 1.74218392 -0.51928896
v -0.08113701 1.68222272 -0.62028641
v -0.23709802 1.66067100 -0.60686564
v 0.23710266 1.66065502 -0.60686010
v 0.08115493 1.68222094 -0.62028211
v 0.15644628 1.74217689 -0.51928091
v 0.00000064 1.86585808 -0.26641729
v 0.08232940 1.81497979 -0.39962116
v -0.08232578 1.81498623 -0.39962801
v -0.57128590 1.69467962 -0.21304002
v -0.61568940 1.68587554 -0.08109038
v -0.45402133 1.65996075 -0.46846634
v -0.51615900 1.68548965 -0.34618163
v -0.75874430 1.50888789 -0.23712178
v -0.64747101 1.60435259 -0.29603142
v -0.70720011 1.50355685 -0.37178808
v -0.13121635 1.38649464 -0.86503530
v -0.21303721 1.47328377 -0.79273838
v -0.46849501 1.35605168 -0.75803977
v -0.34618619 1.41817713 -0.78355092
v -0.38367769 1.27711713 -0.84404176
v -0.29602671 1.54944837 -0.70238560
v -0.37176919 1.60915029 -0.60155630
v -0.86527336 1.03332400 -0.48461851
v -0.79291010 1.11517978 -0.57144195
v -0.78411853 0.98319697 -0.61589611
v -0.75804424 1.37049890 -0.45406646
v -0.78362447 1.24825895 -0.51624304
v -0.84408706 1.28570247 -0.37510660
v -0.60697585 1.13918078 -0.75886464
v -0.70247251 1.19808722 -0.64757043
v -0.60160184 1.27378976 -0.70724237
v -0.51341432 1.54861534 -0.56431550
v -0.56434733 1.41544032 -0.64669251
v -0.64665049 1.46630478 -0.51342797
v -0.70297629 1.61332929 0.00000564
v -0.84031188 1.42133737 -0.15646596
v -0.78029293 1.52229095 -0.08114880
v -0.78027505 1.52226985 0.08115041
v -0.84027433 1.42130446 0.15645522
v -0.91546196 0.90210283 -0.40355408
v -0.92464435 1.03376722 -0.35834092
v -0.98800564 1.03514099 -0.08224500
v -0.96666247 1.03484893 -0.22015463
v -0.99085897 0.90205693 -0.13800503
v -0.91642916 1.16616857 -0.30131927
v -0.89117998 1.28827024 -0.23872139
v -0.92463416 1.03375685 0.35836032
v -0.91548705 0.90210843 0.40355092
v -0.89119291 1.28826797 0.23872411
v -0.91649222 1.16618633 0.30134314
v -0.99085337 0.90208119 0.13800931
v -0.96672809 1.03486502 0.22019251
v -0.98796111 1.03512573 0.08227448
v -0.91319054 1.30169547 -0.08234255
v -0.96411103 1.16848934 0.00001368
v -0.91316921 1.30169213 0.08233631
v 0.57128042 1.69466448 0.21303457
v 0.61566722 1.68584526 0.08108512
v 0.45401850 1.65994847 0.46846348
v 0.51615065 1.68546844 0.34617350
v 0.75870854 1.50883651 0.23710401
v 0.64745951 1.60432863 0.29602945
v 0.70716852 1.50352120 0.37177908
v 0.13122697 1.38648438 0.86507565
v 0.21304889 1.47326767 0.79272443
v 0.46850991 1.35610092 0.75808507
v 0.34618348 1.41815257 0.78355402
v 0.38367552 1.27706957 0.84406394
v 0.29601642 1.54942095 0.70236433
v 0.37176833 1.60910857 0.60153431
v 0.86515158 1.03324592 0.48454064
v 0.79281193 1.11505783 0.57133847
v 0.78409213 0.98317498 0.61582547
v 0.75802952 1.37047362 0.45403627
v 0.78358966 1.24819911 0.51620555
v 0.84403515 1.28567111 0.37509638
v 0.60699916 1.13920307 0.75885713
v 0.70244074 1.19805014 0.64747685
v 0.60166478 1.27386069 0.70724946
v 0.51342201 1.54859602 0.56430137
v 0.56433046 1.41543472 0.64664453
v 0.64663917 1.46628511 0.51342106
v -0.13166261 1.26030183 0.92450911
v 0.00003252 1.30541337 0.91521055
v -0.38627774 1.14077759 0.89122415
v -0.26414311 1.20336819 0.91646266
v -0.00000144 1.04006183 0.99075556
v -0.13281052 1.12219071 0.96664578
v -0.13311411 0.98432231 0.98804814
v -0.78437448 0.82107836 0.61593735
v -0.71167237 0.90218717 0.70321101
v -0.51974511 0.74577677 0.84097910
v -0.62066036 0.82111621 0.78060693
v -0.60758537 0.66520190 0.75959921
v -0.62039876 0.98323792 0.78039443
v -0.51939547 1.05853295 0.84035999
v 0.00015614 0.49911958 0.91677362
v -0.13178220 0.54407978 0.92584151
v -0.13142461 0.41802132 0.86754590
v -0.13308607 0.81989151 0.98819649
v -0.13283385 0.68205601 0.96740049
v 0.00002716 0.76426113 0.99113762
v -0.38442507 0.52754319 0.84573150
v -0.26435438 0.60103935 0.91761053
v -0.38654566 0.66360259 0.89202261
v -0.39977857 0.98441905 0.91330880
v -0.39990801 0.81988144 0.91374606
v -0.26650873 0.90212387 0.96440566
v -0.92480040 0.77045625 0.35837081
v -0.86550111 0.77089286 0.48466814
v -0.98832101 0.76909816 0.08232880
v -0.96697599 0.76934099 0.22026794
v -0.84539479 0.51885986 0.37566385
v -0.91693509 0.63810009 0.30148667
v -0.89227253 0.51623148 0.23901115
v -0.86540240 0.77096301 -0.48475131
v -0.92494249 0.77050549 -0.35852623
v -0.89256513 0.51637292 -0.23905233
v -0.91722977 0.63819683 -0.30153173
v -0.84515470 0.51887012 -0.37544712
v -0.96712315 0.76937294 -0.22030377
v -0.98833156 0.76902413 -0.08230367
v -0.62643421 0.11902112 0.08154622
v -0.71089530 0.19190075 0.00033388
v -0.62699777 0.11911970 -0.08339836
v -0.84293312 0.38375956 0.15673938
v -0.78537357 0.28277189 0.08184186
v -0.76376355 0.29601243 0.23848891
v -0.76356012 0.29589877 -0.23863423
v -0.78635830 0.28234527 -0.08171991
v -0.84336144 0.38359421 -0.15718785
v -0.96477419 0.63587421 0.00005482
v -0.91452789 0.50298077 -0.08253989
v -0.91462368 0.50294816 0.08234967
v -0.71156484 0.90216309 -0.70319200
v -0.78429705 0.82107586 -0.61604804
v -0.51945317 1.05848253 -0.84040463
v -0.62048131 0.98324221 -0.78045279
v -0.60744929 0.66518527 -0.75947517
v -0.62058330 0.82102334 -0.78067005
v -0.51957214 0.74567550 -0.84070873
v 0.00001527 1.30542433 -0.91517162
v -0.13165982 1.26031506 -0.92446584
v -0.13313250 0.98436600 -0.98804033
v -0.13281833 1.12222230 -0.96664083
v -0.00000960 1.04010034 -0.99076444
v -0.26412591 1.20334446 -0.91646171
v -0.38629341 1.14078546 -0.89122260
v -0.13171712 0.41802892 -0.86774158
v -0.13194993 0.54417533 -0.92584163
v 0.00002933 0.49921191 -0.91703528
v -0.38649434 0.66348553 -0.89177698
v -0.26445827 0.60110646 -0.91739964
v -0.38434428 0.52722955 -0.84543687
v 0.00000985 0.76425099 -0.99112803
v -0.13287008 0.68215036 -0.96710175
v -0.13315763 0.81992096 -0.98821455
v -0.39977276 0.98449445 -0.91341007
v -0.26652911 0.90213925 -0.96425796
v -0.39987215 0.81986088 -0.91359699
v 0.21304895 1.47327077 -0.79271764
v 0.13122155 1.38648140 -0.86502850
v 0.37177762 1.60911369 -0.60154301
v 0.29603040 1.54942405 -0.70236349
v 0.38367078 1.27707398 -0.84402132
v 0.34618938 1.41813183 -0.78351754
v 0.46848208 1.35601687 -0.75801110
v 0.61567390 1.68585026 -0.08109356
v 0.57128352 1.69465959 -0.21303339
v 0.70717710 1.50351822 -0.37177414
v 0.64745671 1.60431981 -0.29602239
v 0.75872070 1.50884128 -0.23710600
v 0.51615286 1.68545306 -0.34616593
v 0.45401660 1.65994346 -0.46846405
v 0.78408682 0.98322070 -0.61582166
v 0.79284889 1.11513245 -0.57140005
v 0.86519068 1.03332531 -0.48461661
v 0.60158437 1.27379358 -0.70719689
v 0.70243138 1.19804418 -0.64752841
v 0.60696441 1.13918591 -0.75883615
v 0.84401214 1.28564608 -0.37508273
v 0.78359795 1.24821019 -0.51620543
v 0.75800842 1.37046492 -0.45404086
v 0.51340872 1.54857743 -0.56429416
v 0.64663064 1.46627700 -0.51342344
v 0.56431109 1.41540325 -0.64664227
v 0.62788141 0.12041321 0.08318186
v 0.58351868 0.11037675 0.21830270
v 0.49714246 0.04307507 0.13500941
v 0.71158361 0.30138218 0.37391588
v 0.65510565 0.20060106 0.29945734
v 0.76330781 0.29570001 0.23856024
v 0.38516358 0.06049239 0.39148393
v 0.52641457 0.12010800 0.35343122
v 0.46233463 0.14522168 0.47658452
v 0.78432745 0.82105905 0.61605227
v 0.79342973 0.68918133 0.57176709
v 0.86556524 0.77094823 0.48476985
v 0.60247487 0.53069639 0.70818794
v 0.70324832 0.60636514 0.64823824
v 0.60746020 0.66518372 0.75944072
v 0.84515929 0.51881284 0.37559938
v 0.78446078 0.55622697 0.51667386
v 0.75972354 0.43397608 0.45500377
v 0.08139219 0.28708878 0.78849834
v 0.21379630 0.33177710 0.79674417
v 0.13136679 0.41837206 0.86759138
v 0.37617156 0.19536787 0.60874981
v 0.29870087 0.25600594 0.70844561
v 0.24169233 0.14476712 0.61698657
v 0.38418993 0.52757365 0.84544200
v 0.34723997 0.38681731 0.78651088
v 0.46943673 0.44865918 0.75992680
v 0.65001738 0.33851701 0.51606053
v 0.56631756 0.38948864 0.64909303
v 0.51796198 0.25666910 0.56923836
v 0.36929327 0.00038318 0.13467588
v 0.41422912 0.00754227 -0.00011389
v 0.24647468 0.02347710 0.39793196
v 0.31170246 0.00342215 0.27000833
v 0.14388850 0.00000000 -0.00162016
v 0.23122694 0.00000000 0.13881703
v 0.08769909 0.00000000 0.13748820
v -0.08199485 0.28698143 0.78828233
v -0.00028445 0.19975096 0.71897840
v -0.16092965 0.06538066 0.53287148
v -0.08276587 0.12345107 0.63206893
v -0.24129248 0.14504258 0.61541677
v 0.08289485 0.12275703 0.63261896
v 0.16194887 0.06543726 0.53409523
v -0.42002612 0.00443623 0.00014969
v -0.37488639 0.00305608 0.13967212
v -0.49930918 0.04297642 0.13398926
v -0.08722360 0.00000000 0.13654672
v -0.23168050 0.00000000 0.14254165
v -0.14680761 0.00000000 0.00009919
v -0.38275248 0.05952643 0.39057517
v -0.31223616 0.00264674 0.27449754
v -0.24810493 0.02055526 0.39805606
v 0.08331744 0.01053661 0.41535679
v -0.08601359 0.00894243 0.41683125
v -0.00071669 0.00000000 0.27490345
v 0.37061945 0.00042050 -0.13461949
v 0.49509254 0.04406393 -0.13446933
v 0.08680020 0.00000000 -0.14070405
v 0.23396406 0.00000000 -0.13670769
v 0.38345486 0.05969683 -0.39550185
v 0.30979756 0.00440076 -0.27328429
v 0.24581480 0.02121138 -0.39804664
v -0.49458441 0.04359225 -0.13451648
v -0.36893663 0.00025340 -0.13472293
v -0.24680753 0.02686198 -0.39676866
v -0.31396183 0.00762336 -0.27080220
v -0.38623482 0.06295295 -0.39520290
v -0.23444609 0.00000000 -0.14094146
v -0.08753365 0.00000000 -0.14210619
v 0.08163103 0.28745756 -0.78920358
v 0.00010926 0.19908446 -0.71946055
v -0.08145197 0.28705308 -0.78872496
v 0.16026561 0.06474535 -0.53194684
v 0.08246189 0.12356000 -0.63001597
v 0.24025220 0.14409089 -0.61732382
v -0.24077058 0.14563398 -0.61740279
v -0.08178397 0.12032159 -0.63196480
v -0.16124783 0.06692144 -0.53129494
v 0.00264510 0.00000000 -0.28106287
v -0.08436116 0.00753198 -0.41137382
v 0.08943217 0.00355954 -0.40937015
v 0.58283520 0.10993097 -0.21610059
v 0.62765181 0.11902327 -0.08225654
v 0.46223104 0.14441329 -0.47546032
v 0.52327853 0.11813676 -0.35148364
v 0.76418340 0.29596406 -0.23881564
v 0.65420640 0.19958767 -0.29929867
v 0.71158069 0.30145487 -0.37378192
v 0.13180609 0.41819516 -0.86809260
v 0.21443984 0.33163294 -0.79648429
v 0.46967888 0.44863009 -0.75978494
v 0.34754196 0.38653183 -0.78627354
v 0.38440672 0.52741683 -0.84539151
v 0.29850066 0.25522190 -0.70755249
v 0.37589195 0.19525918 -0.60801709
v 0.86554557 0.77112389 -0.48482287
v 0.79338610 0.68936515 -0.57187092
v 0.78430367 0.82117045 -0.61603016
v 0.76031244 0.43449226 -0.45552859
v 0.78463238 0.55646271 -0.51700532
v 0.84578556 0.51923341 -0.37582228
v 0.60747850 0.66518134 -0.75944746
v 0.70314813 0.60638529 -0.64824373
v 0.60251993 0.53086472 -0.70834243
v 0.51727325 0.25590062 -0.56895101
v 0.56613362 0.38951635 -0.64899057
v 0.64958978 0.33875012 -0.51575220
v 0.71232015 0.19127317 -0.00032822
v 0.84327376 0.38354373 -0.15682618
v 0.78556365 0.28232586 -0.08197388
v 0.78550035 0.28204367 0.08161324
v 0.84311604 0.38306940 0.15695478
v 0.91545576 0.90217984 -0.40354651
v 0.92495716 0.77051234 -0.35846171
v 0.98832667 0.76914304 -0.08228520
v 0.96707767 0.76942599 -0.22025087
v 0.99091345 0.90220082 -0.13801210
v 0.91721416 0.63816381 -0.30153552
v 0.89284229 0.51643312 -0.23902833
v 0.92478752 0.77044141 0.35841292
v 0.91540396 0.90209723 0.40348387
v 0.89250767 0.51625329 0.23894873
v 0.91698009 0.63807464 0.30142674
v 0.99082059 0.90210551 0.13809857
v 0.96681386 0.76928395 0.22022299
v 0.98831666 0.76914835 0.08232256
v 0.91478062 0.50288683 -0.08236040
v 0.96463615 0.63589418 0.00000526
v 0.91465980 0.50272298 0.08240785
v 0.13196746 0.54424429 0.92592913
v 0.38657853 0.66360551 0.89170301
v 0.26447952 0.60115188 0.91740084
v 0.13297029 0.68213373 0.96731442
v 0.13316855 0.81986934 0.98819262
v 0.71158880 0.90215564 0.70319104
v 0.51944894 1.05853546 0.84042376
v 0.62046033 0.98321527 0.78042889
v 0.62058938 0.82102937 0.78059775
v 0.51966989 0.74578124 0.84082198
v 0.13168554 1.26021528 0.92443520
v 0.13313936 0.98432046 0.98806971
v 0.13282552 1.12216437 0.96665567
v 0.26414615 1.20328772 0.91647947
v 0.38627982 1.14070261 0.89121950
v 0.39977330 0.81979585 0.91333103
v 0.39979261 0.98441577 0.91336608
v 0.26652601 0.90204322 0.96423632
v -0.58121830 0.11120890 0.21659273
v -0.46000376 0.14368384 0.47412357
v -0.52451724 0.11915545 0.35252979
v -0.65475720 0.20016219 0.29980072
v -0.71105582 0.30113992 0.37415111
v -0.21459122 0.33157122 0.79704225
v -0.47011098 0.44850039 0.76020199
v -0.34789091 0.38693902 0.78670263
v -0.29904863 0.25563592 0.70790946
v -0.37656888 0.19527264 0.60847187
v -0.79338664 0.68920124 0.57169336
v -0.76007825 0.43395111 0.45520821
v -0.78464156 0.55610681 0.51682293
v -0.70330936 0.60628110 0.64806563
v -0.60254556 0.53061491 0.70828849
v -0.51802212 0.25523436 0.56878144
v -0.56679565 0.38880667 0.64910007
v -0.64935261 0.33799011 0.51571280
v -0.21400599 0.33129290 -0.79636896
v -0.37642229 0.19619168 -0.60941017
v -0.29864222 0.25470328 -0.70919091
v -0.34746236 0.38643163 -0.78661793
v -0.46983600 0.44840747 -0.76014012
v -0.58335525 0.11124384 -0.21651700
v -0.71221960 0.30121890 -0.37420711
v -0.65489256 0.20061709 -0.29930556
v -0.52643943 0.11991090 -0.35220295
v -0.46244591 0.14592403 -0.47596705
v -0.79331881 0.68915188 -0.57165539
v -0.60247850 0.53081381 -0.70828611
v -0.70330048 0.60627300 -0.64824373
v -0.78466284 0.55613381 -0.51696891
v -0.75981796 0.43431765 -0.45514321
v -0.51757413 0.25612906 -0.56883204
v -0.65004969 0.33827275 -0.51638472
v -0.56633008 0.38912228 -0.64930272
v 0.71159917 0.90218258 -0.70320988
v 0.51965606 0.74576288 -0.84080845
v 0.62058538 0.82108349 -0.78067374
v 0.62045264 0.98328042 -0.78046054
v 0.51938891 1.05851507 -0.84037566
v 0.13201031 0.54431534 -0.92609334
v 0.13313295 0.81990504 -0.98819757
v 0.13298732 0.68222409 -0.96746582
v 0.26448587 0.60114104 -0.91752708
v 0.38656452 0.66360068 -0.89190656
v 0.13168620 1.26028609 -0.92444682
v 0.38627401 1.14071906 -0.89114857
v 0.26414165 1.20331120 -0.91638023
v 0.13283423 1.12221479 -0.96662772
v 0.13308795 0.98437613 -0.98809570
v 0.39986181 0.81987327 -0.91352433
v 0.26650935 0.90216041 -0.96423626
v 0.39975902 0.98437244 -0.91322553
v 0.92452002 1.03371072 0.35831079
v 0.98798639 1.03516221 0.08233888
v 0.96659052 1.03484464 0.22017948
v 0.91647315 1.16615820 0.30133706
v 0.89116484 1.28825474 0.23869716
v 0.92458099 1.03376949 -0.35833785
v 0.89111418 1.28822088 -0.23871000
v 0.91641539 1.16614413 -0.30131361
v 0.96667892 1.03489470 -0.22021210
v 0.98801565 1.03521323 -0.08222385
v 0.70295841 1.61329997 -0.00000563
v 0.84026623 1.42130053 0.15644313
v 0.78026873 1.52226222 0.08114465
v 0.78026676 1.52225661 -0.08114412
v 0.84026968 1.42127943 -0.15645055
v 0.96406996 1.16847801 0.00000607
v 0.91310579 1.30164218 -0.08234310
v 0.91311979 1.30165374 0.08233123
f 330 87 329
f 336 325 26
f 207 208 56
f 464 36 580
f 502 129 504
f 157 624 622
f 308 311 82
f 247 223 248
f 507 483 508
f 331 88 329
f 494 500 497
f 156 601 602
f 591 589 592
f 365 98 596
f 75 281 282
f 152 587 577
f 149 559 560
f 555 121 553
f 530 141 529
f 515 517 139
f 361 594 98
f 250 67 249
f 157 608 609
f 294 293 209
f 317 81 316
f 557 338 26
f 303 305 81
f 530 529 528
f 101 381 382
f 415 418 111
f 192 184 50
f 412 110 411
f 20 384 256
f 131 594 486
f 281 264 282
f 347 287 348
f 28 349 582
f 165 163 1
f 248 250 66
f 617 107 398
f 273 271 274
f 456 115 453
f 558 561 560
f 335 576 91
f 331 177 332
f 116 433 436
f 351 370 92
f 136 511 530
f 239 240 65
f 247 258 19
f 304 23 567
f 148 557 570
f 214 208 58
f 440 426 450
f 268 270 269
f 258 247 268
f 204 202 16
f 466 125 465
f 517 513 133
f 168 275 274
f 275 73 274
f 198 193 53
f 309 308 307
f 510 511 136
f 415 416 110
f 131 490 597
f 473 475 474
f 414 415 111
f 493 495 494
f 496 504 485
f 433 116 432
f 600 375 601
f 240 234 65
f 418 415 412
f 486 361 3
f 567 566 304
f 380 393 29
f 17 199 197
f 491 492 132
f 451 449 435
f 218 217 216
f 623 621 613
f 396 104 395
f 433 439 436
f 628 160 627
f 215 202 217
f 209 207 2
f 427 113 424
f 434 10 544
f 434 433 432
f 199 17 210
f 150 564 565
f 489 491 132
f 275 13 285
f 497 500 134
f 125 466 476
f 578 152 577
f 208 214 211
f 328 88 343
f 356 27 603
f 150 566 567
f 372 100 371
f 190 191 47
f 235 8 398
f 260 261 72
f 422 403 414
f 422 414 111
f 453 454 123
f 349 583 582
f 521 520 519
f 425 453 115
f 616 622 158
f 483 130 508
f 151 586 572
f 212 17 232
f 400 397 402
f 377 396 99
f 41 522 511
f 510 508 505
f 549 547 42
f 475 473 36
f 510 137 509
f 222 221 197
f 430 115 429
f 220 194 1
f 305 54 204
f 621 29 613
f 192 171 184
f 460 335 5
f 88 331 332
f 74 277 279
f 300 301 80
f 390 389 388
f 165 45 164
f 146 549 551
f 291 278 75
f 448 120 445
f 147 543 544
f 607 610 609
f 603 602 356
f 139 529 514
f 333 553 443
f 92 368 347
f 261 260 259
f 300 6 200
f 46 177 331
f 284 283 174
f 301 300 200
f 471 468 474
f 54 305 301
f 302 304 303
f 569 150 567
f 150 569 570
f 294 209 2
f 628 629 160
f 548 543 147
f 147 625 627
f 63 233 234
f 426 427 114
f 41 509 532
f 198 52 196
f 614 105 612
f 147 627 547
f 81 305 306
f 549 548 547
f 54 301 200
f 342 88 332
f 264 281 70
f 193 194 53
f 455 429 456
f 187 321 14
f 479 130 484
f 147 544 625
f 458 456 453
f 304 80 303
f 314 84 313
f 488 503 501
f 321 332 14
f 423 425 424
f 305 204 306
f 341 339 25
f 514 40 516
f 625 628 627
f 340 339 341
f 105 614 391
f 243 228 62
f 318 316 78
f 75 278 279
f 357 355 353
f 238 257 63
f 466 455 476
f 425 423 4
f 448 449 120
f 408 638 108
f 292 275 285
f 22 278 289
f 515 513 517
f 501 503 134
f 622 623 158
f 134 503 504
f 195 216 206
f 163 271 246
f 619 617 620
f 62 228 229
f 163 165 164
f 453 425 454
f 489 132 488
f 82 628 625
f 58 208 209
f 525 608 40
f 626 547 627
f 518 517 498
f 489 487 491
f 557 26 564
f 325 336 344
f 541 145 539
f 40 616 516
f 338 556 89
f 250 248 245
f 139 514 515
f 98 594 596
f 246 220 1
f 112 413 630
f 9 536 413
f 156 600 601
f 332 177 14
f 321 342 332
f 156 606 600
f 584 330 585
f 302 303 81
f 584 87 330
f 330 25 585
f 400 239 65
f 439 440 117
f 95 358 368
f 597 594 131
f 594 361 486
f 246 67 245
f 561 562 149
f 28 364 362
f 55 216 217
f 427 430 114
f 267 20 254
f 556 555 553
f 84 309 558
f 311 310 312
f 609 525 142
f 256 68 255
f 124 460 461
f 82 311 312
f 307 308 82
f 589 135 495
f 527 40 514
f 112 418 412
f 20 256 254
f 258 238 19
f 267 254 269
f 273 272 249
f 392 391 393
f 137 533 509
f 122 455 456
f 9 413 411
f 130 480 505
f 333 443 5
f 527 525 40
f 589 495 385
f 39 496 485
f 223 225 224
f 414 416 415
f 219 222 53
f 145 538 539
f 413 412 411
f 469 468 467
f 183 181 6
f 191 192 50
f 429 35 431
f 292 285 76
f 413 112 412
f 415 110 412
f 43 164 167
f 467 468 126
f 617 101 620
f 450 451 117
f 438 546 545
f 619 620 159
f 17 212 210
f 124 579 576
f 584 153 583
f 460 124 576
f 3 469 467
f 311 308 314
f 6 320 183
f 389 104 388
f 251 250 249
f 194 165 1
f 291 289 278
f 287 77 348
f 238 258 257
f 139 517 518
f 238 236 19
f 223 247 19
f 382 380 29
f 39 518 498
f 361 359 3
f 69 255 257
f 139 518 528
f 33 545 535
f 387 385 7
f 69 268 269
f 477 462 125
f 454 479 123
f 121 555 447
f 451 435 117
f 454 425 4
f 233 252 8
f 124 463 464
f 69 258 268
f 168 167 166
f 583 153 582
f 384 394 102
f 138 512 513
f 57 210 211
f 254 256 255
f 607 609 142
f 324 319 86
f 289 291 76
f 291 292 76
f 384 102 383
f 422 421 420
f 221 17 197
f 383 102 381
f 376 377 99
f 99 373 374
f 386 105 392
f 438 33 440
f 90 341 343
f 281 75 279
f 574 571 96
f 628 82 312
f 221 222 59
f 127 471 474
f 595 605 603
f 551 538 145
f 334 91 340
f 322 324 85
f 305 303 301
f 18 239 399
f 306 204 16
f 199 198 197
f 166 190 180
f 303 80 301
f 267 266 265
f 626 42 547
f 16 215 213
f 349 351 350
f 295 16 213
f 68 379 252
f 250 251 66
f 627 160 626
f 383 68 256
f 343 88 342
f 507 508 136
f 202 215 16
f 197 198 53
f 254 69 269
f 603 605 156
f 418 419 111
f 384 383 256
f 455 122 476
f 203 204 54
f 556 557 148
f 255 68 253
f 313 84 560
f 25 328 341
f 254 255 69
f 603 156 602
f 581 584 583
f 630 632 112
f 163 246 1
f 246 245 220
f 432 116 558
f 499 591 590
f 320 563 86
f 345 93 350
f 306 16 295
f 346 93 345
f 562 568 149
f 604 605 155
f 154 592 593
f 545 552 535
f 511 522 530
f 574 573 571
f 566 150 565
f 361 98 360
f 67 271 273
f 234 235 65
f 208 211 56
f 574 151 573
f 251 270 66
f 398 8 378
f 213 215 214
f 438 440 439
f 315 314 313
f 263 71 262
f 20 373 384
f 496 134 504
f 329 88 328
f 81 306 316
f 555 556 148
f 592 589 103
f 617 619 107
f 227 207 56
f 571 359 96
f 446 466 465
f 206 216 55
f 359 571 469
f 568 148 570
f 34 437 435
f 28 351 349
f 21 272 282
f 113 423 424
f 490 489 488
f 379 68 383
f 210 212 211
f 80 563 300
f 351 92 350
f 326 346 12
f 83 317 318
f 555 148 554
f 212 231 56
f 218 57 217
f 271 67 246
f 195 196 52
f 270 268 66
f 390 592 103
f 148 568 554
f 495 493 7
f 592 390 593
f 357 95 355
f 574 575 151
f 452 120 451
f 154 591 592
f 587 585 577
f 395 394 396
f 93 349 350
f 610 416 611
f 166 44 190
f 315 23 302
f 315 302 317
f 268 247 66
f 606 154 593
f 396 394 99
f 211 212 56
f 370 369 368
f 235 397 65
f 280 278 22
f 83 315 317
f 575 588 151
f 74 279 280
f 385 495 7
f 63 257 253
f 397 235 398
f 214 58 213
f 220 219 194
f 546 146 545
f 236 225 19
f 599 94 602
f 235 233 8
f 102 394 395
f 611 416 32
f 225 223 19
f 139 528 529
f 231 62 229
f 419 406 421
f 451 450 452
f 49 182 185
f 402 397 107
f 52 199 218
f 416 610 110
f 225 236 244
f 107 397 398
f 68 252 253
f 322 85 321
f 182 181 183
f 118 438 439
f 546 438 118
f 348 77 345
f 543 546 118
f 231 212 232
f 610 611 157
f 33 438 545
f 385 386 103
f 479 480 130
f 169 195 15
f 93 583 349
f 15 195 206
f 190 44 192
f 247 248 66
f 146 552 545
f 248 60 245
f 570 557 564
f 274 271 43
f 63 253 233
f 272 21 249
f 507 528 518
f 67 273 249
f 487 467 126
f 196 195 169
f 624 159 623
f 134 496 497
f 132 503 488
f 104 393 395
f 556 553 89
f 355 356 94
f 258 69 257
f 229 61 227
f 56 231 227
f 460 576 335
f 463 124 461
f 394 373 99
f 29 393 391
f 67 250 245
f 193 198 196
f 462 36 464
f 144 633 630
f 141 526 527
f 517 133 498
f 536 144 630
f 100 372 599
f 144 536 537
f 22 289 287
f 578 579 152
f 579 578 576
f 189 188 187
f 60 223 224
f 92 348 350
f 555 554 447
f 396 377 388
f 194 193 165
f 413 536 630
f 372 352 599
f 377 376 375
f 348 345 350
f 105 386 387
f 240 237 234
f 463 462 464
f 135 500 494
f 45 196 169
f 512 612 387
f 245 60 220
f 429 115 456
f 223 60 248
f 288 289 76
f 525 526 142
f 100 599 601
f 613 29 391
f 526 523 520
f 341 328 343
f 631 641 639
f 264 21 282
f 266 72 265
f 106 402 403
f 73 273 274
f 186 206 205
f 381 379 383
f 52 216 195
f 410 18 399
f 290 272 73
f 72 371 374
f 526 525 527
f 115 430 424
f 498 497 496
f 621 382 29
f 543 118 434
f 214 215 57
f 522 141 530
f 511 510 509
f 352 94 599
f 493 512 7
f 90 340 341
f 169 171 170
f 605 604 606
f 219 60 224
f 104 389 392
f 359 469 3
f 186 49 185
f 222 219 224
f 166 167 44
f 428 427 426
f 523 522 524
f 129 502 481
f 50 185 188
f 164 45 170
f 425 115 424
f 33 428 426
f 427 428 113
f 94 356 602
f 515 138 513
f 114 431 452
f 237 236 238
f 215 217 57
f 95 354 355
f 220 60 219
f 515 514 516
f 183 320 319
f 222 197 53
f 559 569 567
f 300 320 6
f 435 436 117
f 96 360 363
f 640 642 641
f 242 243 62
f 140 537 519
f 508 130 505
f 420 410 399
f 537 539 144
f 317 316 318
f 426 114 450
f 186 15 206
f 311 83 310
f 625 544 307
f 544 10 307
f 168 43 167
f 185 182 188
f 369 354 95
f 44 171 192
f 605 606 156
f 548 549 146
f 100 601 375
f 149 568 569
f 381 380 382
f 455 466 35
f 480 479 454
f 543 548 546
f 493 133 513
f 492 472 37
f 477 125 476
f 491 487 126
f 337 336 338
f 588 153 587
f 576 578 91
f 633 161 632
f 96 359 360
f 39 485 483
f 101 617 378
f 193 45 165
f 163 164 43
f 618 624 611
f 507 136 528
f 561 149 560
f 641 162 639
f 116 561 558
f 494 133 493
f 253 252 233
f 63 237 238
f 392 393 104
f 440 450 117
f 93 581 583
f 386 385 387
f 120 449 451
f 421 422 111
f 486 3 467
f 302 81 317
f 633 632 630
f 462 475 36
f 376 99 374
f 489 490 131
f 447 449 448
f 387 612 105
f 106 420 399
f 173 46 172
f 492 491 472
f 316 306 295
f 22 287 347
f 109 410 420
f 507 39 483
f 559 23 313
f 214 57 211
f 196 45 193
f 10 434 432
f 422 106 403
f 626 160 640
f 487 486 467
f 542 41 532
f 400 106 399
f 444 120 452
f 198 199 52
f 475 127 474
f 621 620 382
f 621 623 159
f 450 114 452
f 92 347 348
f 376 100 375
f 434 118 433
f 503 132 502
f 337 90 336
f 537 536 519
f 395 393 380
f 201 54 200
f 171 44 170
f 355 94 353
f 58 296 213
f 422 420 106
f 595 365 596
f 569 568 570
f 523 140 520
f 114 430 431
f 218 210 57
f 304 566 80
f 639 162 638
f 261 371 72
f 548 147 547
f 498 133 497
f 150 570 564
f 222 224 59
f 142 526 520
f 437 436 435
f 141 522 523
f 137 510 505
f 173 179 176
f 559 149 569
f 121 447 448
f 563 320 300
f 102 395 380
f 257 255 253
f 642 162 641
f 83 311 314
f 216 52 218
f 512 493 513
f 23 304 302
f 91 339 340
f 512 138 612
f 159 620 621
f 218 199 210
f 364 28 575
f 83 318 310
f 168 274 43
f 136 530 528
f 140 523 524
f 495 135 494
f 233 235 234
f 566 563 80
f 25 339 577
f 277 74 276
f 475 462 477
f 133 494 497
f 436 437 116
f 389 386 392
f 548 146 546
f 441 460 5
f 10 309 307
f 65 397 400
f 543 434 544
f 640 641 161
f 272 273 73
f 581 93 346
f 419 421 111
f 319 320 86
f 180 179 178
f 127 475 477
f 231 229 227
f 337 334 340
f 136 508 510
f 308 309 84
f 237 63 234
f 447 554 34
f 252 379 378
f 315 83 314
f 608 622 616
f 338 336 26
f 337 338 89
f 13 275 168
f 209 208 207
f 436 439 117
f 628 312 629
f 360 366 363
f 364 574 96
f 359 361 360
f 466 446 35
f 500 501 134
f 406 109 421
f 135 589 591
f 601 599 602
f 340 90 337
f 481 492 37
f 522 41 524
f 78 316 295
f 131 486 487
f 403 32 414
f 634 626 640
f 151 572 573
f 515 516 138
f 8 252 378
f 265 72 374
f 9 521 519
f 538 549 42
f 368 358 347
f 588 587 586
f 458 453 123
f 589 385 103
f 502 492 481
f 32 416 414
f 430 427 424
f 153 585 587
f 540 144 539
f 370 368 92
f 209 293 58
f 428 33 535
f 326 581 346
f 625 307 82
f 575 28 582
f 6 181 200
f 421 109 420
f 553 121 443
f 160 642 640
f 153 584 585
f 309 432 558
f 334 337 89
f 23 315 313
f 271 163 43
f 296 295 213
f 39 498 496
f 118 439 433
f 531 113 534
f 293 296 58
f 28 362 351
f 489 131 487
f 431 444 452
f 84 558 560
f 98 366 360
f 45 169 170
f 379 101 378
f 462 463 125
f 308 84 314
f 10 432 309
f 299 24 310
f 132 492 502
f 512 387 7
f 639 638 408
f 565 323 86
f 59 244 242
f 106 400 402
f 440 33 426
f 566 565 563
f 617 398 378
f 224 225 59
f 410 109 409
f 239 400 399
f 194 219 53
f 358 22 347
f 610 157 609
f 27 595 603
f 479 484 482
f 142 520 521
f 585 25 577
f 339 578 577
f 408 407 406
f 407 109 406
f 31 408 406
f 407 408 108
f 31 639 408
f 419 31 406
f 608 616 40
f 430 429 431
f 455 35 429
f 35 444 431
f 188 51 187
f 188 182 51
f 51 322 187
f 322 51 319
f 51 182 183
f 319 51 183
f 187 322 321
f 322 319 324
f 381 101 379
f 405 407 108
f 404 405 108
f 286 285 178
f 407 405 409
f 109 407 409
f 191 175 47
f 167 164 170
f 50 184 185
f 44 167 170
f 64 244 236
f 243 244 64
f 50 188 189
f 541 542 145
f 442 445 119
f 339 91 578
f 445 446 119
f 624 623 622
f 611 624 157
f 523 526 141
f 141 527 529
f 527 514 529
f 445 120 444
f 446 445 444
f 35 446 444
f 613 614 158
f 158 614 615
f 623 613 158
f 614 613 391
f 614 612 615
f 371 376 374
f 100 376 371
f 479 482 123
f 373 394 384
f 540 42 634
f 633 540 634
f 538 42 540
f 633 634 161
f 161 634 640
f 42 626 634
f 540 633 144
f 557 556 338
f 553 333 89
f 262 21 264
f 251 21 262
f 5 335 333
f 270 251 262
f 21 251 249
f 600 593 30
f 606 593 600
f 600 30 375
f 593 390 30
f 30 377 375
f 390 388 30
f 30 388 377
f 228 243 241
f 470 478 459
f 470 127 478
f 127 477 478
f 184 186 185
f 478 477 476
f 122 478 476
f 357 74 280
f 518 39 507
f 344 342 85
f 325 344 85
f 342 344 343
f 85 342 321
f 344 90 343
f 90 344 336
f 482 129 481
f 482 481 457
f 482 457 123
f 481 37 457
f 449 447 34
f 435 449 34
f 470 472 471
f 472 470 37
f 470 471 127
f 472 126 471
f 126 468 471
f 470 459 37
f 491 126 472
f 504 129 485
f 221 59 242
f 125 463 465
f 437 34 562
f 561 437 562
f 554 568 562
f 34 554 562
f 437 561 116
f 390 103 389
f 103 386 389
f 392 105 391
f 572 586 580
f 572 580 36
f 586 152 580
f 473 572 36
f 244 243 242
f 225 244 59
f 64 240 241
f 240 239 241
f 237 240 64
f 243 64 241
f 236 237 64
f 411 607 521
f 9 411 521
f 110 607 411
f 607 142 521
f 610 607 110
f 171 15 184
f 171 169 15
f 15 186 184
f 87 584 581
f 153 588 582
f 588 575 582
f 381 102 380
f 573 572 473
f 468 469 128
f 474 468 128
f 469 571 128
f 571 573 128
f 573 473 128
f 473 474 128
f 564 323 565
f 26 323 564
f 323 324 86
f 325 323 26
f 325 324 323
f 563 565 86
f 324 325 85
f 410 230 18
f 230 228 18
f 18 228 241
f 18 241 239
f 401 619 618
f 401 402 107
f 403 402 401
f 619 159 618
f 401 618 32
f 619 401 107
f 403 401 32
f 618 611 32
f 159 624 618
f 478 122 459
f 122 458 459
f 37 459 457
f 459 458 457
f 122 456 458
f 457 458 123
f 191 190 192
f 485 129 484
f 129 482 484
f 483 485 484
f 130 483 484
f 189 187 14
f 191 50 189
f 191 189 175
f 189 14 175
f 14 177 175
f 499 501 500
f 501 499 38
f 38 499 590
f 135 499 500
f 488 501 38
f 499 135 591
f 480 454 4
f 284 12 346
f 4 423 506
f 480 4 506
f 423 531 506
f 480 506 505
f 531 137 506
f 506 137 505
f 365 366 98
f 71 270 262
f 270 71 269
f 71 267 269
f 335 334 333
f 333 334 89
f 334 335 91
f 536 9 519
f 465 463 461
f 537 140 541
f 520 140 519
f 119 446 465
f 465 461 119
f 461 441 119
f 460 441 461
f 176 46 173
f 299 297 24
f 71 263 266
f 263 260 266
f 260 72 266
f 263 70 260
f 205 201 49
f 201 181 49
f 186 205 49
f 181 201 200
f 181 182 49
f 284 77 283
f 586 587 152
f 588 586 151
f 20 267 265
f 266 267 71
f 31 417 631
f 631 417 632
f 31 631 639
f 417 31 419
f 641 631 161
f 417 112 632
f 161 631 632
f 418 417 419
f 417 418 112
f 284 345 77
f 542 550 145
f 542 541 524
f 284 174 12
f 48 174 283
f 373 20 265
f 373 265 374
f 609 608 525
f 608 157 622
f 560 559 313
f 636 637 162
f 541 140 524
f 41 542 524
f 358 357 280
f 70 263 264
f 263 262 264
f 176 177 46
f 174 48 173
f 174 173 172
f 538 551 549
f 538 540 539
f 537 541 539
f 232 221 242
f 17 221 232
f 232 242 62
f 231 232 62
f 203 205 55
f 203 55 202
f 201 205 203
f 202 55 217
f 205 206 55
f 204 203 202
f 73 275 292
f 292 290 73
f 272 290 282
f 290 292 291
f 75 290 291
f 290 75 282
f 70 277 259
f 277 70 281
f 277 281 279
f 260 70 259
f 12 174 172
f 104 396 388
f 367 27 354
f 365 27 367
f 354 27 356
f 365 367 366
f 595 27 365
f 318 299 310
f 155 596 597
f 155 597 598
f 596 594 597
f 595 596 155
f 605 595 155
f 180 47 179
f 180 190 47
f 352 372 11
f 11 372 261
f 312 310 24
f 642 636 162
f 636 297 637
f 367 369 97
f 366 367 97
f 369 367 354
f 369 370 97
f 580 579 464
f 580 152 579
f 579 124 464
f 61 230 409
f 230 410 409
f 230 61 229
f 230 229 228
f 76 285 286
f 353 352 276
f 74 353 276
f 288 76 286
f 288 286 283
f 289 288 287
f 203 54 201
f 287 288 77
f 77 288 283
f 286 48 283
f 531 423 113
f 276 11 259
f 11 261 259
f 277 276 259
f 616 158 615
f 516 616 615
f 138 516 615
f 138 615 612
f 509 533 532
f 503 502 504
f 635 79 294
f 635 294 404
f 635 637 79
f 637 635 638
f 638 635 108
f 635 404 108
f 226 61 405
f 61 226 227
f 405 61 409
f 227 226 207
f 48 178 179
f 48 286 178
f 173 48 179
f 534 143 533
f 534 535 143
f 531 534 533
f 533 143 532
f 137 531 533
f 261 372 371
f 13 180 178
f 285 13 178
f 180 13 166
f 13 168 166
f 346 345 284
f 331 327 46
f 46 327 172
f 172 327 326
f 382 620 101
f 442 121 448
f 443 121 442
f 2 226 404
f 294 2 404
f 404 226 405
f 207 226 2
f 550 551 145
f 552 146 551
f 143 550 532
f 552 550 143
f 330 329 328
f 24 636 629
f 94 352 353
f 352 11 276
f 113 428 534
f 428 535 534
f 509 41 511
f 535 552 143
f 550 552 551
f 550 542 532
f 369 95 368
f 326 327 87
f 87 327 329
f 327 331 329
f 581 326 87
f 293 79 298
f 79 297 298
f 296 298 78
f 79 293 294
f 296 293 298
f 598 490 38
f 358 280 22
f 280 279 278
f 357 358 95
f 74 357 353
f 330 328 25
f 567 23 559
f 590 598 38
f 590 604 598
f 598 604 155
f 604 590 154
f 590 591 154
f 604 154 606
f 297 299 298
f 299 318 78
f 298 299 78
f 355 354 356
f 629 636 642
f 312 24 629
f 629 642 160
f 370 362 97
f 362 363 97
f 363 366 97
f 364 363 362
f 362 370 351
f 96 363 364
f 297 636 24
f 162 637 638
f 637 297 79
f 490 488 38
f 598 597 490
f 441 442 119
f 443 442 441
f 443 441 5
f 442 448 445
f 296 78 295
f 326 12 172
f 575 574 364
f 47 175 176
f 175 177 176
f 47 176 179
