# FEM surface export ¡ª frame 496
# Vertices: 642  Faces: 1280
v -0.51687723 0.97411364 -0.00223885
v 0.51745749 0.97725832 -0.00095706
v -0.54994488 0.28083482 0.03977146
v 0.55581880 0.22967003 0.02305332
v -0.03114306 0.04735100 0.95964432
v 0.00261990 0.70783514 0.86442298
v -0.00835043 0.04370859 -0.95644420
v 0.00024522 0.70322073 -0.86083722
v 0.90838081 0.26365951 -0.57422060
v 0.91095418 0.26302204 0.55512160
v -0.91259897 0.26696402 -0.54868114
v -0.90179080 0.25847754 0.56666619
v -0.82330436 0.67921078 0.31772071
v -0.51536793 0.51500869 0.83151400
v -0.30350119 0.94517887 0.49206364
v 0.30729190 0.94467700 0.49337432
v -0.00051023 1.09254408 -0.00169219
v 0.30601776 0.94544303 -0.49409986
v -0.30554160 0.94167560 -0.49666503
v -0.51477087 0.51120603 -0.82796460
v -0.82286906 0.67901725 -0.31555781
v -1.07147431 0.24998672 0.00405552
v 0.52171582 0.51972258 0.83588386
v 0.82557374 0.68629462 0.31493190
v -0.57923025 0.01880008 0.94090134
v 0.00224252 0.25436389 1.06018674
v -0.92710090 0.09401613 -0.35691187
v -0.93892568 0.03637443 0.31075773
v -0.00629282 0.27208599 -1.07243371
v -0.60047829 0.05490715 -0.94641536
v 0.82488769 0.68436438 -0.31428000
v 0.51340377 0.51768816 -0.82743013
v 0.91688234 0.00774485 0.36687142
v 0.58549827 0.01407852 0.93875200
v 0.32933357 0.15602367 0.52672130
v -0.35577506 0.21428193 0.54206580
v 0.01722921 0.06489745 0.07475393
v -0.29635733 0.05494504 -0.45819852
v 0.31595472 0.12393479 -0.51708090
v 0.58102286 0.02376320 -0.94214511
v 0.92922992 0.06005952 -0.36069515
v 1.07498991 0.25264210 -0.00748513
v -0.69415832 0.85485560 0.16064714
v -0.58743602 0.84400141 0.42581382
v -0.42488685 0.98538452 0.25246915
v -0.72668511 0.38115948 0.71936756
v -0.70249885 0.61505425 0.59965408
v -0.88822991 0.46672156 0.44784719
v -0.15850581 0.85325235 0.70161653
v -0.43074670 0.76448762 0.69424891
v -0.26557910 0.63126951 0.88130212
v -0.15593700 1.05502915 0.25437957
v -0.26490790 1.06417954 -0.00104190
v 0.16230406 0.84929836 0.70193380
v 0.00212171 0.97794873 0.51552260
v 0.26407641 1.06494331 -0.00123890
v 0.15964840 1.05673683 0.25432417
v 0.42745817 0.98742974 0.25371531
v -0.15932254 1.05484116 -0.25891775
v -0.42622110 0.98570269 -0.25756285
v 0.42635638 0.98856574 -0.25518233
v 0.15642069 1.05593264 -0.25893453
v -0.15969874 0.84748936 -0.70314437
v 0.00173937 0.97440946 -0.51904958
v 0.16027552 0.84663200 -0.70161128
v -0.58816427 0.83711624 -0.42701837
v -0.69413018 0.85283124 -0.16239499
v -0.26687095 0.62171358 -0.87855011
v -0.42804748 0.75542575 -0.69516093
v -0.88976139 0.47380719 -0.44041643
v -0.69897395 0.61286843 -0.59833759
v -0.73575687 0.39170590 -0.71546561
v -0.86349058 0.70089322 0.00251288
v -1.02606106 0.26388022 -0.28491232
v -0.97848749 0.47546917 -0.16065678
v -0.97596812 0.46258208 0.17082269
v -1.02127707 0.25215843 0.29879865
v 0.59187859 0.84613359 0.42613608
v 0.69405538 0.85735631 0.15961009
v 0.26866776 0.62630063 0.88281262
v 0.43366399 0.75730968 0.69232482
v 0.89672661 0.47388270 0.44777513
v 0.71032214 0.61827743 0.59659398
v 0.73622626 0.38999096 0.72210789
v -0.27320126 0.38625243 0.98664582
v -0.00151024 0.48483279 0.99273098
v -0.77374905 0.13367429 0.76656926
v -0.55321753 0.24856818 0.89910799
v 0.00511021 0.06415775 1.10726237
v -0.27928251 0.12020724 1.04873705
v -0.31559670 0.00000808 0.99429852
v -1.08286250 0.09025649 0.19095604
v -0.98843986 0.07013938 0.49507090
v -0.99323076 0.07679536 -0.49937984
v -1.08866930 0.07285234 -0.17790373
v -0.73866808 0.11136981 0.13404280
v -0.94706172 0.09667637 -0.01550949
v -0.73699099 0.21424197 -0.18249092
v -0.56090796 0.27229533 -0.91641432
v -0.78361654 0.15829705 -0.76996821
v -0.00117148 0.49215144 -0.99074328
v -0.27221757 0.39335093 -0.99157846
v -0.32196927 0.00000000 -1.00594354
v -0.29979941 0.13912833 -1.05886042
v -0.00396731 0.06284617 -1.11045992
v 0.42962617 0.76093614 -0.69381535
v 0.26675662 0.62369031 -0.87737733
v 0.69336653 0.85603911 -0.16152252
v 0.58962715 0.84496206 -0.42418832
v 0.72959054 0.39603519 -0.71829337
v 0.70245266 0.62349778 -0.59661245
v 0.89396954 0.47770986 -0.44703135
v 0.74346888 0.14363629 0.20817564
v 0.62147760 0.18431832 0.48073474
v 0.43124422 0.25489712 0.29305255
v 0.78175563 0.15082988 0.77410644
v 0.82654923 0.00000000 0.70293331
v 0.98513007 0.08559529 0.48833939
v 0.15309338 0.13856193 0.75706005
v 0.46635127 0.07156412 0.77373022
v 0.30362472 0.00000000 1.00876725
v 0.14072701 0.28099594 0.29301468
v 0.29855525 0.09701786 0.06834449
v -0.19097489 0.10955680 0.74161506
v -0.02477114 0.16646025 0.55910575
v -0.29384825 0.11241074 0.07008792
v -0.19188181 0.15001637 0.28616127
v -0.43181333 0.24302396 0.27868596
v 0.17477913 0.06642337 -0.21898800
v 0.46894515 0.12194002 -0.23832214
v -0.43842754 0.14437844 -0.23878568
v -0.15532379 0.03811365 -0.20093219
v 0.16628754 0.15185812 -0.74759895
v -0.00171902 0.06223848 -0.45383006
v -0.16114822 0.02242132 -0.69396961
v 0.61438173 0.11057990 -0.43081960
v 0.76960838 0.18192680 -0.15244645
v 0.31182683 0.00003139 -1.00611329
v 0.45995808 0.05216826 -0.73056954
v 0.98763901 0.09627963 -0.50767648
v 0.78798079 0.00000000 -0.68469137
v 0.78183359 0.14222313 -0.78138411
v 0.94382632 0.04040897 0.00267288
v 1.02991533 0.26821819 -0.30169654
v 1.09239352 0.08406673 -0.20138596
v 1.07975936 0.07569240 0.18500103
v 1.02564561 0.26146552 0.27673760
v 0.29590234 0.12899829 1.04787242
v 0.55808830 0.25804850 0.91853762
v 0.27288213 0.39392501 0.99215448
v -0.66985852 0.16485181 0.42003495
v -0.50830978 0.08775641 0.74529934
v -0.81672275 0.00000000 0.65913105
v -0.48179686 0.04309193 -0.74594170
v -0.64473021 0.15851901 -0.46192837
v -0.80666107 0.03466196 -0.67387009
v 0.55966675 0.26675549 -0.90955281
v 0.27972326 0.14490139 -1.06015527
v 0.27339897 0.39786881 -0.99024862
v 0.98519832 0.48233527 0.16734794
v 0.98192489 0.47311947 -0.16634291
v 0.86500847 0.70791322 0.00112458
v -0.61001450 0.92258894 0.07917807
v -0.56449127 0.93015909 0.20936115
v -0.47450939 0.98594159 0.12682290
v -0.71477020 0.76989579 0.37677491
v -0.64639705 0.85607290 0.29627949
v -0.76621479 0.77446592 0.24087845
v -0.36664155 0.97185624 0.37450218
v -0.50980949 0.92268103 0.34194472
v -0.44902477 0.90296113 0.46313363
v -0.81833798 0.31733966 0.65055925
v -0.81827217 0.43082976 0.59187353
v -0.89801890 0.36135960 0.50851935
v -0.61830717 0.56749159 0.72300392
v -0.72184986 0.49922472 0.66498953
v -0.62447280 0.44637305 0.77873766
v -0.86330980 0.57374990 0.38471863
v -0.80460650 0.54616326 0.52938020
v -0.77205271 0.65269947 0.46360829
v -0.07913259 0.78747678 0.79033709
v -0.21344078 0.75119036 0.80355936
v -0.13208601 0.67416024 0.88222736
v -0.36961544 0.86308068 0.59985548
v -0.29592311 0.81381440 0.70507634
v -0.23298152 0.90548378 0.60079342
v -0.39417958 0.57816738 0.86498219
v -0.35266027 0.70387250 0.79636443
v -0.47993466 0.64752799 0.77280146
v -0.65428996 0.73911059 0.51970536
v -0.57448769 0.69740009 0.65548706
v -0.51521564 0.81229353 0.56663465
v -0.34859997 1.03364217 0.12675966
v -0.39345470 1.02550960 -0.00104583
v -0.23086888 1.00924230 0.37651739
v -0.29305941 1.02761626 0.25626642
v -0.13387918 1.08781385 -0.00189522
v -0.21209726 1.06646585 0.12809245
v -0.07880235 1.08358133 0.12848260
v 0.08432654 0.78463537 0.78975862
v 0.00198137 0.85884583 0.70996594
v 0.15532914 0.96844214 0.50952399
v 0.08214349 0.92059129 0.61273241
v 0.23827861 0.90215367 0.60149693
v -0.07701758 0.92159557 0.61268157
v -0.15156853 0.96974093 0.50946420
v 0.39400634 1.02816391 -0.00055480
v 0.34957886 1.03539765 0.12817650
v 0.47671911 0.98973709 0.12693386
v 0.08006837 1.08341634 0.12812249
v 0.21384673 1.06829977 0.12846442
v 0.13278805 1.08883023 -0.00203041
v 0.37203127 0.97301829 0.37671542
v 0.29385772 1.02948391 0.25700453
v 0.23507097 1.00861835 0.37662929
v -0.07933542 1.02672696 0.38968608
v 0.08140750 1.02679396 0.38877180
v 0.00035354 1.06564426 0.25739735
v -0.34923172 1.03342772 -0.13051920
v -0.47455490 0.98509783 -0.13033876
v -0.08047244 1.08491421 -0.13121058
v -0.21414903 1.06847477 -0.13099784
v -0.37042263 0.96952760 -0.38047603
v -0.29457837 1.02742982 -0.26005581
v -0.23434158 1.00785196 -0.38069367
v 0.47574794 0.99014330 -0.12876086
v 0.34900713 1.03708279 -0.12985978
v 0.23328453 1.01041424 -0.37945578
v 0.29330122 1.03025544 -0.25906166
v 0.36970896 0.97309279 -0.37753001
v 0.21197008 1.06847382 -0.13118458
v 0.07804006 1.08588219 -0.13175213
v -0.08061494 0.77895910 -0.78833604
v 0.00195373 0.85406232 -0.71071362
v 0.08169331 0.78073770 -0.78851461
v -0.15368760 0.96652359 -0.51331401
v -0.07912448 0.91889596 -0.61679846
v -0.23468874 0.90001655 -0.60412091
v 0.23584050 0.90298307 -0.60349113
v 0.08118470 0.91746855 -0.61617416
v 0.15406360 0.96851301 -0.51275396
v -0.00134137 1.06574070 -0.26169500
v 0.08005124 1.02495253 -0.39189479
v -0.08021032 1.02505195 -0.39304492
v -0.56441802 0.92780471 -0.21387851
v -0.61001283 0.92014068 -0.08298767
v -0.45122328 0.89763761 -0.46793595
v -0.51188368 0.91900074 -0.34620714
v -0.76602268 0.77225924 -0.24135961
v -0.64736408 0.85269737 -0.29758459
v -0.71314949 0.76704246 -0.37737435
v -0.13362746 0.66720748 -0.87765908
v -0.21450461 0.73977321 -0.79993796
v -0.47521123 0.63722998 -0.77138466
v -0.35128897 0.69187582 -0.79416513
v -0.39367872 0.56807059 -0.86229891
v -0.29675642 0.80710155 -0.70567763
v -0.37112650 0.85693049 -0.60204852
v -0.90491170 0.36697641 -0.49553689
v -0.82226479 0.43852580 -0.58197880
v -0.83156747 0.32940435 -0.63899887
v -0.76937473 0.65177613 -0.46474451
v -0.80029100 0.54761755 -0.52185887
v -0.85904402 0.57595545 -0.38094291
v -0.63038480 0.45536458 -0.77714491
v -0.72369814 0.50223845 -0.66067588
v -0.61564118 0.56676185 -0.72164536
v -0.51301539 0.80231750 -0.56833440
v -0.57014352 0.68844616 -0.65807223
v -0.65133548 0.73377681 -0.52275503
v -0.70203084 0.86087269 -0.00033191
v -0.85381842 0.69863725 -0.15750889
v -0.78584015 0.78445756 -0.08116809
v -0.78684324 0.78433287 0.08338370
v -0.85357690 0.69513428 0.16230108
v -0.97950220 0.26664504 -0.42042002
v -0.96740687 0.36902335 -0.36335903
v -1.03305674 0.36440146 -0.07945461
v -1.00733113 0.37258336 -0.22129035
v -1.06172061 0.26140770 -0.14078130
v -0.94579732 0.48160413 -0.30362469
v -0.90986383 0.58099866 -0.24071792
v -0.96158785 0.35751769 0.37981114
v -0.97637731 0.25404730 0.44149143
v -0.91312933 0.57503033 0.24735053
v -0.94512647 0.46397316 0.31219113
v -1.05693412 0.24627185 0.15250118
v -1.00701523 0.35093513 0.23306964
v -1.03374505 0.35499814 0.08790074
v -0.93385321 0.59360647 -0.08015557
v -0.99397254 0.47204238 0.00431083
v -0.93357807 0.58657283 0.08782063
v 0.56594080 0.93233347 0.20951974
v 0.61022288 0.92266423 0.07884142
v 0.45335507 0.90377194 0.46565595
v 0.51389658 0.92409849 0.34160036
v 0.76760417 0.77759635 0.23829749
v 0.64983279 0.85847473 0.29464576
v 0.71664006 0.77315223 0.37425581
v 0.13604334 0.67170316 0.88171518
v 0.21906441 0.74530727 0.80265749
v 0.48568809 0.64465475 0.77405792
v 0.35623258 0.69772041 0.79497927
v 0.39840326 0.57734120 0.86740392
v 0.29872265 0.80815160 0.70514929
v 0.37341151 0.85727549 0.59876108
v 0.90711737 0.36077580 0.50416875
v 0.82666504 0.42974016 0.58787596
v 0.82680559 0.32579452 0.64709252
v 0.77564645 0.65557706 0.46235234
v 0.81027603 0.54689246 0.52665871
v 0.86773390 0.58323568 0.38304019
v 0.63506699 0.45670947 0.78795612
v 0.73103064 0.50574976 0.66302282
v 0.62605625 0.57306945 0.72282714
v 0.51848418 0.80718434 0.56505239
v 0.57852024 0.69449538 0.65272307
v 0.65861636 0.73938650 0.51903665
v -0.13653156 0.56129843 0.94876927
v -0.00099662 0.60117096 0.93757552
v -0.39982179 0.45443842 0.91891962
v -0.27380165 0.51029789 0.94199759
v -0.00189116 0.37025541 1.03280413
v -0.13926965 0.43926650 0.99781692
v -0.13754275 0.31801432 1.03040826
v -0.84506720 0.18565786 0.66812527
v -0.75282663 0.24945371 0.74846822
v -0.56724399 0.12960912 0.93151540
v -0.66374922 0.18500899 0.84216315
v -0.67894328 0.07475769 0.86127341
v -0.64457214 0.31015751 0.81091297
v -0.53813183 0.37680736 0.87077832
v -0.01969241 0.00101798 1.06720459
v -0.15496024 0.00000000 1.08977413
v -0.18501315 0.05681209 0.98610306
v -0.13271061 0.18490128 1.06673336
v -0.14717650 0.08243327 1.08523750
v 0.00365898 0.14878364 1.08947301
v -0.45341185 0.00000000 0.99443024
v -0.30430716 0.02195774 1.06432164
v -0.42432487 0.07096767 1.01016712
v -0.41614860 0.31411248 0.95464200
v -0.42753768 0.18239309 0.98525298
v -0.27678281 0.25046691 1.02265120
v -1.01340747 0.15734263 0.40218747
v -0.94857109 0.15090312 0.54117823
v -1.09554052 0.16787431 0.09884097
v -1.06160259 0.16882548 0.25177941
v -1.00000966 0.00000000 0.41892597
v -1.04604089 0.07422150 0.34687066
v -1.03782666 0.00000000 0.25442314
v -0.96372902 0.17169742 -0.53095680
v -1.02592421 0.16746111 -0.39300308
v -1.04404378 0.00000000 -0.29490042
v -1.04774308 0.07438663 -0.34174764
v -0.99063838 0.00000000 -0.44560117
v -1.07192481 0.16865245 -0.23545270
v -1.09773445 0.16414408 -0.08245813
v -0.65434510 0.22193575 0.08357523
v -0.73139721 0.19419050 0.00640037
v -0.64134449 0.24658507 -0.07783403
v -0.96100616 0.07063703 0.12923774
v -0.82891196 0.11644070 0.04877972
v -0.85507250 0.09859253 0.21718870
v -0.83017153 0.12916426 -0.27660728
v -0.83068353 0.13726610 -0.10862983
v -0.94295579 0.09349201 -0.18826820
v -1.10224247 0.08902228 0.01196295
v -1.07134068 0.00000000 -0.11524661
v -1.06558526 0.00000000 0.06625528
v -0.76289630 0.27589127 -0.75051409
v -0.85643399 0.21649306 -0.66513067
v -0.54558033 0.39041567 -0.87923163
v -0.65501702 0.32749298 -0.81817335
v -0.69465959 0.09468894 -0.85621160
v -0.67520922 0.20971791 -0.85489702
v -0.57707459 0.14690372 -0.93378788
v -0.00071899 0.59937233 -0.93111455
v -0.13704836 0.56064999 -0.94639361
v -0.13989857 0.33599994 -1.03987288
v -0.13715820 0.44670215 -1.00153947
v 0.00002983 0.38447413 -1.03710890
v -0.27342975 0.50678474 -0.93972796
v -0.39804932 0.45391148 -0.91907191
v -0.16249873 0.00132614 -0.99843276
v -0.15795554 0.00731623 -1.08053398
v -0.00465994 0.00000000 -1.06996298
v -0.44775367 0.08014292 -1.01784444
v -0.31088191 0.02727302 -1.04964161
v -0.47912374 0.00008747 -0.99942404
v -0.00608898 0.16165851 -1.09396112
v -0.15937252 0.09602699 -1.09509444
v -0.15096520 0.19964956 -1.07274950
v -0.41813508 0.32815516 -0.96053261
v -0.28347337 0.26432401 -1.02874064
v -0.43359369 0.19749449 -0.98978966
v 0.21586719 0.74324358 -0.80041176
v 0.13387512 0.66844660 -0.87758702
v 0.37075415 0.86234206 -0.60087705
v 0.29683602 0.81019890 -0.70502841
v 0.39317068 0.57242727 -0.85981369
v 0.35146883 0.69684571 -0.79334545
v 0.47648481 0.64395517 -0.76951337
v 0.61017054 0.92315882 -0.08064280
v 0.56505817 0.93127567 -0.20962287
v 0.71472770 0.77100152 -0.37377727
v 0.64752889 0.85754120 -0.29520974
v 0.76612669 0.77533376 -0.23845880
v 0.51258451 0.92381418 -0.34215209
v 0.45231307 0.90350604 -0.46547547
v 0.82535028 0.32928520 -0.65409428
v 0.82212627 0.43523121 -0.58943850
v 0.90532303 0.36850125 -0.51143521
v 0.61571074 0.57766521 -0.72111154
v 0.72210163 0.51207447 -0.66184855
v 0.62717587 0.46039802 -0.78013688
v 0.86632758 0.58379763 -0.38438985
v 0.80301654 0.55240172 -0.52669692
v 0.77292937 0.65888757 -0.46207109
v 0.51622427 0.81222779 -0.56672442
v 0.65364218 0.74211723 -0.51730716
v 0.57188207 0.69851720 -0.65391886
v 0.64656448 0.20778009 0.12567806
v 0.58712661 0.21792874 0.24231452
v 0.49835119 0.24729711 0.16277793
v 0.74382931 0.07704911 0.41967374
v 0.67532390 0.15097205 0.33873433
v 0.82561696 0.05948230 0.29007855
v 0.40522745 0.22655654 0.42200586
v 0.53342646 0.20902713 0.38172728
v 0.47648600 0.17620248 0.51120335
v 0.85160863 0.20346832 0.66522849
v 0.89877194 0.11321502 0.64388895
v 0.95266700 0.17230849 0.52963489
v 0.71470588 0.00000000 0.83709407
v 0.80733258 0.07045805 0.74542153
v 0.68809366 0.08258909 0.86063004
v 0.98309422 0.00000000 0.42371312
v 0.91643178 0.03819637 0.59571862
v 0.88205159 0.00017140 0.54484963
v 0.06361017 0.08733610 0.86195433
v 0.20021409 0.07732950 0.87663072
v 0.13925762 0.01191633 0.97023827
v 0.39257041 0.13737077 0.66001499
v 0.31448445 0.11173093 0.76340175
v 0.25371987 0.15652841 0.64821285
v 0.45458689 0.00000000 0.98750365
v 0.36677068 0.02850754 0.88890976
v 0.53205627 0.00000000 0.86620438
v 0.72259533 0.07277337 0.57726526
v 0.63767534 0.03930008 0.72012764
v 0.56495619 0.14074342 0.63343066
v 0.40391085 0.11156587 0.19015965
v 0.44469625 0.12642555 0.05754922
v 0.24446918 0.23822457 0.40223816
v 0.29584423 0.17886092 0.31510329
v 0.15459742 0.07738106 0.07215402
v 0.23570688 0.13857706 0.21027698
v 0.09006316 0.15466352 0.20249999
v -0.13577862 0.10637756 0.86119926
v -0.03017359 0.10921443 0.76545328
v -0.17340712 0.22646736 0.53903395
v -0.09220038 0.18335065 0.65646881
v -0.26899895 0.17632197 0.63492048
v 0.08001097 0.12560575 0.66401684
v 0.16312256 0.12559830 0.54715019
v -0.45451233 0.15035674 0.05217782
v -0.38483998 0.25308919 0.14279112
v -0.52245033 0.27608830 0.17492625
v -0.07899423 0.15443324 0.18238620
v -0.22287853 0.23904341 0.14167795
v -0.13811421 0.09476697 0.06300671
v -0.40830272 0.20262754 0.42575395
v -0.32748613 0.18927826 0.28727007
v -0.25735465 0.26083350 0.41982973
v 0.07630280 0.23251024 0.44356498
v -0.09252026 0.24319650 0.42321745
v -0.00943148 0.13371690 0.34439710
v 0.39072132 0.07853182 -0.07264200
v 0.51352262 0.19420330 -0.10420066
v 0.09829664 0.03547767 -0.07586936
v 0.22998911 0.06198143 -0.07001727
v 0.40792310 0.18700169 -0.37048995
v 0.33319896 0.07844938 -0.22610603
v 0.26547980 0.11318409 -0.36315224
v -0.50312603 0.20099969 -0.11565717
v -0.39532170 0.09890439 -0.08661932
v -0.23426761 0.09133679 -0.32720536
v -0.29705331 0.08734726 -0.21255468
v -0.38831487 0.10764340 -0.35940716
v -0.23428278 0.04055638 -0.06927524
v -0.08606659 0.04836620 -0.06991419
v 0.07762850 0.10270043 -0.84948534
v -0.02569046 0.09967061 -0.73064327
v -0.10940141 0.07592041 -0.85203820
v 0.15785973 0.16325207 -0.49734682
v 0.08270956 0.08989976 -0.61782676
v 0.25131056 0.20565617 -0.64294636
v -0.21463956 0.02383827 -0.57539076
v -0.07339820 0.02610853 -0.56917483
v -0.15264274 0.04665417 -0.45324162
v 0.00557365 0.04332609 -0.21292581
v -0.07193025 0.07355479 -0.34665197
v 0.10937842 0.09190162 -0.34750178
v 0.63662332 0.16088128 -0.17724632
v 0.68269557 0.19326644 -0.04547223
v 0.48202857 0.21712914 -0.46922335
v 0.57676244 0.19838768 -0.32770476
v 0.83636957 0.12560385 -0.25651586
v 0.71870387 0.15236650 -0.29751778
v 0.78127569 0.06598072 -0.39936221
v 0.14831866 0.00009540 -0.99875051
v 0.22991104 0.07547779 -0.89647543
v 0.54525608 0.00201848 -0.88004738
v 0.39534691 0.00351079 -0.87122512
v 0.45733187 0.00000000 -1.00369942
v 0.30606559 0.08754987 -0.75480872
v 0.39580652 0.15385367 -0.62934572
v 0.95599085 0.17825569 -0.54713851
v 0.90162063 0.10916590 -0.65442282
v 0.85615438 0.20587905 -0.68008751
v 0.87517613 0.00000000 -0.51887441
v 0.92692620 0.00602264 -0.60626376
v 0.98097211 0.00000000 -0.44684339
v 0.69856673 0.08074588 -0.87165368
v 0.82900089 0.05435397 -0.75416422
v 0.70931607 0.00000000 -0.82422358
v 0.53959894 0.15869634 -0.60388058
v 0.60733289 0.07957972 -0.70610529
v 0.68942082 0.03697496 -0.55489939
v 0.76990634 0.17096759 0.03610373
v 0.95523471 0.09549180 -0.17329814
v 0.86531520 0.13777545 -0.07534420
v 0.87383151 0.10009871 0.11809872
v 0.96631849 0.01920518 0.18973659
v 0.97372174 0.26606345 -0.44302744
v 1.02320814 0.17421690 -0.40480599
v 1.09681320 0.15348251 -0.10288121
v 1.07326210 0.17101890 -0.26136324
v 1.06669450 0.26089254 -0.15480994
v 1.04985297 0.06607672 -0.36190677
v 1.02557623 0.03218624 -0.27441677
v 1.00968409 0.17053449 0.38405693
v 0.97534615 0.26481453 0.41775206
v 1.04233885 0.00000000 0.26868120
v 1.04103982 0.07455657 0.34133387
v 1.05990541 0.25922856 0.13644084
v 1.06212461 0.16824901 0.23392785
v 1.09277821 0.15454231 0.08312090
v 1.06474888 0.00000000 -0.11051790
v 1.10957730 0.06904887 -0.00498351
v 1.07521427 0.00000000 0.08431446
v 0.14578457 0.01220323 1.08093214
v 0.44323441 0.06583180 1.00288272
v 0.30867633 0.04737846 1.05114055
v 0.15633309 0.09543613 1.09394622
v 0.14651948 0.18812749 1.06782126
v 0.75926840 0.26509571 0.75117624
v 0.54523110 0.39062828 0.88704425
v 0.65439343 0.32438451 0.82805371
v 0.67099136 0.20353653 0.85042816
v 0.57836616 0.12873726 0.92916769
v 0.13532428 0.56157881 0.95131963
v 0.13805935 0.31950712 1.03526449
v 0.13370578 0.43849823 1.00150943
v 0.27179539 0.51231140 0.94636732
v 0.40032923 0.46128613 0.92653066
v 0.43372357 0.18462509 0.99187720
v 0.41991544 0.32317755 0.96512216
v 0.28183746 0.25315109 1.02786672
v -0.62766963 0.21030171 0.22322020
v -0.51152372 0.18312168 0.48676229
v -0.54586285 0.15983839 0.34692588
v -0.71676815 0.13463198 0.27722386
v -0.80699611 0.08974201 0.37152699
v -0.27206498 0.09814171 0.88266313
v -0.54631364 0.00031403 0.87927079
v -0.41938359 0.07733963 0.88911515
v -0.35236070 0.13617299 0.76668030
v -0.42613927 0.13285299 0.62580270
v -0.89258367 0.08206014 0.64499533
v -0.90233076 0.03388154 0.48801008
v -0.91648924 0.00059950 0.59593582
v -0.80584562 0.04953097 0.74927038
v -0.72509187 0.00000000 0.83256477
v -0.60676008 0.12476075 0.58147550
v -0.65387249 0.03815919 0.71385634
v -0.74606109 0.05786853 0.53349692
v -0.25177181 0.03232279 -0.85291743
v -0.36510894 0.12503573 -0.63739157
v -0.33218095 0.00000000 -0.70684278
v -0.40864614 0.00188232 -0.87498790
v -0.56319261 0.00000000 -0.87654454
v -0.62247425 0.13673632 -0.20448519
v -0.79743493 0.16735871 -0.43777433
v -0.67926067 0.21572773 -0.33900943
v -0.54994130 0.08027783 -0.34544566
v -0.45884746 0.07825816 -0.48078066
v -0.90682155 0.11780367 -0.65045440
v -0.71302414 0.00000000 -0.83265883
v -0.81750339 0.06189838 -0.74265140
v -0.92585742 0.01907594 -0.59149170
v -0.86629730 0.01248236 -0.52358389
v -0.56349975 0.12410813 -0.62231290
v -0.71798736 0.10534716 -0.58696413
v -0.64919204 0.00926034 -0.72850913
v 0.75928372 0.26321924 -0.75650036
v 0.57865667 0.15145528 -0.93999344
v 0.67160970 0.20378809 -0.85722071
v 0.65298504 0.33387053 -0.81936324
v 0.54056615 0.38933131 -0.86990499
v 0.14998244 0.00086413 -1.06857777
v 0.13993928 0.21065187 -1.08074713
v 0.14226769 0.09317334 -1.08546889
v 0.30126053 0.03128433 -1.05789495
v 0.42998552 0.09587791 -1.01603186
v 0.13504907 0.56089169 -0.94383472
v 0.40015951 0.46088615 -0.91752267
v 0.27308640 0.51138699 -0.93844140
v 0.13876046 0.45040783 -1.00018108
v 0.13812037 0.33710229 -1.04088044
v 0.43599313 0.20702802 -0.99685371
v 0.28383180 0.27657372 -1.03424454
v 0.42001373 0.33236381 -0.96044314
v 0.96840495 0.36469024 0.37205705
v 1.03938270 0.36881948 0.08549812
v 1.01628029 0.37309805 0.22724430
v 0.95131516 0.48180071 0.31224450
v 0.91731614 0.58851552 0.24473062
v 0.96947432 0.36625183 -0.37950310
v 0.91281456 0.58525461 -0.24433230
v 0.94809890 0.47828314 -0.30925119
v 1.01601338 0.36626458 -0.23480232
v 1.03806591 0.36258012 -0.08847403
v 0.70150995 0.86293536 -0.00101303
v 0.85558581 0.70161784 0.15932950
v 0.78618103 0.78888482 0.08158788
v 0.78669411 0.78768075 -0.08251055
v 0.85545522 0.70007002 -0.15675883
v 0.99654573 0.47741300 0.00005725
v 0.93682659 0.59427464 -0.08367474
v 0.93669754 0.59680611 0.08353957
f 330 87 329
f 336 325 26
f 207 208 56
f 464 36 580
f 502 129 504
f 157 624 622
f 308 311 82
f 247 223 248
f 507 483 508
f 331 88 329
f 494 500 497
f 156 601 602
f 591 589 592
f 365 98 596
f 75 281 282
f 152 587 577
f 149 559 560
f 555 121 553
f 530 141 529
f 515 517 139
f 361 594 98
f 250 67 249
f 157 608 609
f 294 293 209
f 317 81 316
f 557 338 26
f 303 305 81
f 530 529 528
f 101 381 382
f 415 418 111
f 192 184 50
f 412 110 411
f 20 384 256
f 131 594 486
f 281 264 282
f 347 287 348
f 28 349 582
f 165 163 1
f 248 250 66
f 617 107 398
f 273 271 274
f 456 115 453
f 558 561 560
f 335 576 91
f 331 177 332
f 116 433 436
f 351 370 92
f 136 511 530
f 239 240 65
f 247 258 19
f 304 23 567
f 148 557 570
f 214 208 58
f 440 426 450
f 268 270 269
f 258 247 268
f 204 202 16
f 466 125 465
f 517 513 133
f 168 275 274
f 275 73 274
f 198 193 53
f 309 308 307
f 510 511 136
f 415 416 110
f 131 490 597
f 473 475 474
f 414 415 111
f 493 495 494
f 496 504 485
f 433 116 432
f 600 375 601
f 240 234 65
f 418 415 412
f 486 361 3
f 567 566 304
f 380 393 29
f 17 199 197
f 491 492 132
f 451 449 435
f 218 217 216
f 623 621 613
f 396 104 395
f 433 439 436
f 628 160 627
f 215 202 217
f 209 207 2
f 427 113 424
f 434 10 544
f 434 433 432
f 199 17 210
f 150 564 565
f 489 491 132
f 275 13 285
f 497 500 134
f 125 466 476
f 578 152 577
f 208 214 211
f 328 88 343
f 356 27 603
f 150 566 567
f 372 100 371
f 190 191 47
f 235 8 398
f 260 261 72
f 422 403 414
f 422 414 111
f 453 454 123
f 349 583 582
f 521 520 519
f 425 453 115
f 616 622 158
f 483 130 508
f 151 586 572
f 212 17 232
f 400 397 402
f 377 396 99
f 41 522 511
f 510 508 505
f 549 547 42
f 475 473 36
f 510 137 509
f 222 221 197
f 430 115 429
f 220 194 1
f 305 54 204
f 621 29 613
f 192 171 184
f 460 335 5
f 88 331 332
f 74 277 279
f 300 301 80
f 390 389 388
f 165 45 164
f 146 549 551
f 291 278 75
f 448 120 445
f 147 543 544
f 607 610 609
f 603 602 356
f 139 529 514
f 333 553 443
f 92 368 347
f 261 260 259
f 300 6 200
f 46 177 331
f 284 283 174
f 301 300 200
f 471 468 474
f 54 305 301
f 302 304 303
f 569 150 567
f 150 569 570
f 294 209 2
f 628 629 160
f 548 543 147
f 147 625 627
f 63 233 234
f 426 427 114
f 41 509 532
f 198 52 196
f 614 105 612
f 147 627 547
f 81 305 306
f 549 548 547
f 54 301 200
f 342 88 332
f 264 281 70
f 193 194 53
f 455 429 456
f 187 321 14
f 479 130 484
f 147 544 625
f 458 456 453
f 304 80 303
f 314 84 313
f 488 503 501
f 321 332 14
f 423 425 424
f 305 204 306
f 341 339 25
f 514 40 516
f 625 628 627
f 340 339 341
f 105 614 391
f 243 228 62
f 318 316 78
f 75 278 279
f 357 355 353
f 238 257 63
f 466 455 476
f 425 423 4
f 448 449 120
f 408 638 108
f 292 275 285
f 22 278 289
f 515 513 517
f 501 503 134
f 622 623 158
f 134 503 504
f 195 216 206
f 163 271 246
f 619 617 620
f 62 228 229
f 163 165 164
f 453 425 454
f 489 132 488
f 82 628 625
f 58 208 209
f 525 608 40
f 626 547 627
f 518 517 498
f 489 487 491
f 557 26 564
f 325 336 344
f 541 145 539
f 40 616 516
f 338 556 89
f 250 248 245
f 139 514 515
f 98 594 596
f 246 220 1
f 112 413 630
f 9 536 413
f 156 600 601
f 332 177 14
f 321 342 332
f 156 606 600
f 584 330 585
f 302 303 81
f 584 87 330
f 330 25 585
f 400 239 65
f 439 440 117
f 95 358 368
f 597 594 131
f 594 361 486
f 246 67 245
f 561 562 149
f 28 364 362
f 55 216 217
f 427 430 114
f 267 20 254
f 556 555 553
f 84 309 558
f 311 310 312
f 609 525 142
f 256 68 255
f 124 460 461
f 82 311 312
f 307 308 82
f 589 135 495
f 527 40 514
f 112 418 412
f 20 256 254
f 258 238 19
f 267 254 269
f 273 272 249
f 392 391 393
f 137 533 509
f 122 455 456
f 9 413 411
f 130 480 505
f 333 443 5
f 527 525 40
f 589 495 385
f 39 496 485
f 223 225 224
f 414 416 415
f 219 222 53
f 145 538 539
f 413 412 411
f 469 468 467
f 183 181 6
f 191 192 50
f 429 35 431
f 292 285 76
f 413 112 412
f 415 110 412
f 43 164 167
f 467 468 126
f 617 101 620
f 450 451 117
f 438 546 545
f 619 620 159
f 17 212 210
f 124 579 576
f 584 153 583
f 460 124 576
f 3 469 467
f 311 308 314
f 6 320 183
f 389 104 388
f 251 250 249
f 194 165 1
f 291 289 278
f 287 77 348
f 238 258 257
f 139 517 518
f 238 236 19
f 223 247 19
f 382 380 29
f 39 518 498
f 361 359 3
f 69 255 257
f 139 518 528
f 33 545 535
f 387 385 7
f 69 268 269
f 477 462 125
f 454 479 123
f 121 555 447
f 451 435 117
f 454 425 4
f 233 252 8
f 124 463 464
f 69 258 268
f 168 167 166
f 583 153 582
f 384 394 102
f 138 512 513
f 57 210 211
f 254 256 255
f 607 609 142
f 324 319 86
f 289 291 76
f 291 292 76
f 384 102 383
f 422 421 420
f 221 17 197
f 383 102 381
f 376 377 99
f 99 373 374
f 386 105 392
f 438 33 440
f 90 341 343
f 281 75 279
f 574 571 96
f 628 82 312
f 221 222 59
f 127 471 474
f 595 605 603
f 551 538 145
f 334 91 340
f 322 324 85
f 305 303 301
f 18 239 399
f 306 204 16
f 199 198 197
f 166 190 180
f 303 80 301
f 267 266 265
f 626 42 547
f 16 215 213
f 349 351 350
f 295 16 213
f 68 379 252
f 250 251 66
f 627 160 626
f 383 68 256
f 343 88 342
f 507 508 136
f 202 215 16
f 197 198 53
f 254 69 269
f 603 605 156
f 418 419 111
f 384 383 256
f 455 122 476
f 203 204 54
f 556 557 148
f 255 68 253
f 313 84 560
f 25 328 341
f 254 255 69
f 603 156 602
f 581 584 583
f 630 632 112
f 163 246 1
f 246 245 220
f 432 116 558
f 499 591 590
f 320 563 86
f 345 93 350
f 306 16 295
f 346 93 345
f 562 568 149
f 604 605 155
f 154 592 593
f 545 552 535
f 511 522 530
f 574 573 571
f 566 150 565
f 361 98 360
f 67 271 273
f 234 235 65
f 208 211 56
f 574 151 573
f 251 270 66
f 398 8 378
f 213 215 214
f 438 440 439
f 315 314 313
f 263 71 262
f 20 373 384
f 496 134 504
f 329 88 328
f 81 306 316
f 555 556 148
f 592 589 103
f 617 619 107
f 227 207 56
f 571 359 96
f 446 466 465
f 206 216 55
f 359 571 469
f 568 148 570
f 34 437 435
f 28 351 349
f 21 272 282
f 113 423 424
f 490 489 488
f 379 68 383
f 210 212 211
f 80 563 300
f 351 92 350
f 326 346 12
f 83 317 318
f 555 148 554
f 212 231 56
f 218 57 217
f 271 67 246
f 195 196 52
f 270 268 66
f 390 592 103
f 148 568 554
f 495 493 7
f 592 390 593
f 357 95 355
f 574 575 151
f 452 120 451
f 154 591 592
f 587 585 577
f 395 394 396
f 93 349 350
f 610 416 611
f 166 44 190
f 315 23 302
f 315 302 317
f 268 247 66
f 606 154 593
f 396 394 99
f 211 212 56
f 370 369 368
f 235 397 65
f 280 278 22
f 83 315 317
f 575 588 151
f 74 279 280
f 385 495 7
f 63 257 253
f 397 235 398
f 214 58 213
f 220 219 194
f 546 146 545
f 236 225 19
f 599 94 602
f 235 233 8
f 102 394 395
f 611 416 32
f 225 223 19
f 139 528 529
f 231 62 229
f 419 406 421
f 451 450 452
f 49 182 185
f 402 397 107
f 52 199 218
f 416 610 110
f 225 236 244
f 107 397 398
f 68 252 253
f 322 85 321
f 182 181 183
f 118 438 439
f 546 438 118
f 348 77 345
f 543 546 118
f 231 212 232
f 610 611 157
f 33 438 545
f 385 386 103
f 479 480 130
f 169 195 15
f 93 583 349
f 15 195 206
f 190 44 192
f 247 248 66
f 146 552 545
f 248 60 245
f 570 557 564
f 274 271 43
f 63 253 233
f 272 21 249
f 507 528 518
f 67 273 249
f 487 467 126
f 196 195 169
f 624 159 623
f 134 496 497
f 132 503 488
f 104 393 395
f 556 553 89
f 355 356 94
f 258 69 257
f 229 61 227
f 56 231 227
f 460 576 335
f 463 124 461
f 394 373 99
f 29 393 391
f 67 250 245
f 193 198 196
f 462 36 464
f 144 633 630
f 141 526 527
f 517 133 498
f 536 144 630
f 100 372 599
f 144 536 537
f 22 289 287
f 578 579 152
f 579 578 576
f 189 188 187
f 60 223 224
f 92 348 350
f 555 554 447
f 396 377 388
f 194 193 165
f 413 536 630
f 372 352 599
f 377 376 375
f 348 345 350
f 105 386 387
f 240 237 234
f 463 462 464
f 135 500 494
f 45 196 169
f 512 612 387
f 245 60 220
f 429 115 456
f 223 60 248
f 288 289 76
f 525 526 142
f 100 599 601
f 613 29 391
f 526 523 520
f 341 328 343
f 631 641 639
f 264 21 282
f 266 72 265
f 106 402 403
f 73 273 274
f 186 206 205
f 381 379 383
f 52 216 195
f 410 18 399
f 290 272 73
f 72 371 374
f 526 525 527
f 115 430 424
f 498 497 496
f 621 382 29
f 543 118 434
f 214 215 57
f 522 141 530
f 511 510 509
f 352 94 599
f 493 512 7
f 90 340 341
f 169 171 170
f 605 604 606
f 219 60 224
f 104 389 392
f 359 469 3
f 186 49 185
f 222 219 224
f 166 167 44
f 428 427 426
f 523 522 524
f 129 502 481
f 50 185 188
f 164 45 170
f 425 115 424
f 33 428 426
f 427 428 113
f 94 356 602
f 515 138 513
f 114 431 452
f 237 236 238
f 215 217 57
f 95 354 355
f 220 60 219
f 515 514 516
f 183 320 319
f 222 197 53
f 559 569 567
f 300 320 6
f 435 436 117
f 96 360 363
f 640 642 641
f 242 243 62
f 140 537 519
f 508 130 505
f 420 410 399
f 537 539 144
f 317 316 318
f 426 114 450
f 186 15 206
f 311 83 310
f 625 544 307
f 544 10 307
f 168 43 167
f 185 182 188
f 369 354 95
f 44 171 192
f 605 606 156
f 548 549 146
f 100 601 375
f 149 568 569
f 381 380 382
f 455 466 35
f 480 479 454
f 543 548 546
f 493 133 513
f 492 472 37
f 477 125 476
f 491 487 126
f 337 336 338
f 588 153 587
f 576 578 91
f 633 161 632
f 96 359 360
f 39 485 483
f 101 617 378
f 193 45 165
f 163 164 43
f 618 624 611
f 507 136 528
f 561 149 560
f 641 162 639
f 116 561 558
f 494 133 493
f 253 252 233
f 63 237 238
f 392 393 104
f 440 450 117
f 93 581 583
f 386 385 387
f 120 449 451
f 421 422 111
f 486 3 467
f 302 81 317
f 633 632 630
f 462 475 36
f 376 99 374
f 489 490 131
f 447 449 448
f 387 612 105
f 106 420 399
f 173 46 172
f 492 491 472
f 316 306 295
f 22 287 347
f 109 410 420
f 507 39 483
f 559 23 313
f 214 57 211
f 196 45 193
f 10 434 432
f 422 106 403
f 626 160 640
f 487 486 467
f 542 41 532
f 400 106 399
f 444 120 452
f 198 199 52
f 475 127 474
f 621 620 382
f 621 623 159
f 450 114 452
f 92 347 348
f 376 100 375
f 434 118 433
f 503 132 502
f 337 90 336
f 537 536 519
f 395 393 380
f 201 54 200
f 171 44 170
f 355 94 353
f 58 296 213
f 422 420 106
f 595 365 596
f 569 568 570
f 523 140 520
f 114 430 431
f 218 210 57
f 304 566 80
f 639 162 638
f 261 371 72
f 548 147 547
f 498 133 497
f 150 570 564
f 222 224 59
f 142 526 520
f 437 436 435
f 141 522 523
f 137 510 505
f 173 179 176
f 559 149 569
f 121 447 448
f 563 320 300
f 102 395 380
f 257 255 253
f 642 162 641
f 83 311 314
f 216 52 218
f 512 493 513
f 23 304 302
f 91 339 340
f 512 138 612
f 159 620 621
f 218 199 210
f 364 28 575
f 83 318 310
f 168 274 43
f 136 530 528
f 140 523 524
f 495 135 494
f 233 235 234
f 566 563 80
f 25 339 577
f 277 74 276
f 475 462 477
f 133 494 497
f 436 437 116
f 389 386 392
f 548 146 546
f 441 460 5
f 10 309 307
f 65 397 400
f 543 434 544
f 640 641 161
f 272 273 73
f 581 93 346
f 419 421 111
f 319 320 86
f 180 179 178
f 127 475 477
f 231 229 227
f 337 334 340
f 136 508 510
f 308 309 84
f 237 63 234
f 447 554 34
f 252 379 378
f 315 83 314
f 608 622 616
f 338 336 26
f 337 338 89
f 13 275 168
f 209 208 207
f 436 439 117
f 628 312 629
f 360 366 363
f 364 574 96
f 359 361 360
f 466 446 35
f 500 501 134
f 406 109 421
f 135 589 591
f 601 599 602
f 340 90 337
f 481 492 37
f 522 41 524
f 78 316 295
f 131 486 487
f 403 32 414
f 634 626 640
f 151 572 573
f 515 516 138
f 8 252 378
f 265 72 374
f 9 521 519
f 538 549 42
f 368 358 347
f 588 587 586
f 458 453 123
f 589 385 103
f 502 492 481
f 32 416 414
f 430 427 424
f 153 585 587
f 540 144 539
f 370 368 92
f 209 293 58
f 428 33 535
f 326 581 346
f 625 307 82
f 575 28 582
f 6 181 200
f 421 109 420
f 553 121 443
f 160 642 640
f 153 584 585
f 309 432 558
f 334 337 89
f 23 315 313
f 271 163 43
f 296 295 213
f 39 498 496
f 118 439 433
f 531 113 534
f 293 296 58
f 28 362 351
f 489 131 487
f 431 444 452
f 84 558 560
f 98 366 360
f 45 169 170
f 379 101 378
f 462 463 125
f 308 84 314
f 10 432 309
f 299 24 310
f 132 492 502
f 512 387 7
f 639 638 408
f 565 323 86
f 59 244 242
f 106 400 402
f 440 33 426
f 566 565 563
f 617 398 378
f 224 225 59
f 410 109 409
f 239 400 399
f 194 219 53
f 358 22 347
f 610 157 609
f 27 595 603
f 479 484 482
f 142 520 521
f 585 25 577
f 339 578 577
f 408 407 406
f 407 109 406
f 31 408 406
f 407 408 108
f 31 639 408
f 419 31 406
f 608 616 40
f 430 429 431
f 455 35 429
f 35 444 431
f 188 51 187
f 188 182 51
f 51 322 187
f 322 51 319
f 51 182 183
f 319 51 183
f 187 322 321
f 322 319 324
f 381 101 379
f 405 407 108
f 404 405 108
f 286 285 178
f 407 405 409
f 109 407 409
f 191 175 47
f 167 164 170
f 50 184 185
f 44 167 170
f 64 244 236
f 243 244 64
f 50 188 189
f 541 542 145
f 442 445 119
f 339 91 578
f 445 446 119
f 624 623 622
f 611 624 157
f 523 526 141
f 141 527 529
f 527 514 529
f 445 120 444
f 446 445 444
f 35 446 444
f 613 614 158
f 158 614 615
f 623 613 158
f 614 613 391
f 614 612 615
f 371 376 374
f 100 376 371
f 479 482 123
f 373 394 384
f 540 42 634
f 633 540 634
f 538 42 540
f 633 634 161
f 161 634 640
f 42 626 634
f 540 633 144
f 557 556 338
f 553 333 89
f 262 21 264
f 251 21 262
f 5 335 333
f 270 251 262
f 21 251 249
f 600 593 30
f 606 593 600
f 600 30 375
f 593 390 30
f 30 377 375
f 390 388 30
f 30 388 377
f 228 243 241
f 470 478 459
f 470 127 478
f 127 477 478
f 184 186 185
f 478 477 476
f 122 478 476
f 357 74 280
f 518 39 507
f 344 342 85
f 325 344 85
f 342 344 343
f 85 342 321
f 344 90 343
f 90 344 336
f 482 129 481
f 482 481 457
f 482 457 123
f 481 37 457
f 449 447 34
f 435 449 34
f 470 472 471
f 472 470 37
f 470 471 127
f 472 126 471
f 126 468 471
f 470 459 37
f 491 126 472
f 504 129 485
f 221 59 242
f 125 463 465
f 437 34 562
f 561 437 562
f 554 568 562
f 34 554 562
f 437 561 116
f 390 103 389
f 103 386 389
f 392 105 391
f 572 586 580
f 572 580 36
f 586 152 580
f 473 572 36
f 244 243 242
f 225 244 59
f 64 240 241
f 240 239 241
f 237 240 64
f 243 64 241
f 236 237 64
f 411 607 521
f 9 411 521
f 110 607 411
f 607 142 521
f 610 607 110
f 171 15 184
f 171 169 15
f 15 186 184
f 87 584 581
f 153 588 582
f 588 575 582
f 381 102 380
f 573 572 473
f 468 469 128
f 474 468 128
f 469 571 128
f 571 573 128
f 573 473 128
f 473 474 128
f 564 323 565
f 26 323 564
f 323 324 86
f 325 323 26
f 325 324 323
f 563 565 86
f 324 325 85
f 410 230 18
f 230 228 18
f 18 228 241
f 18 241 239
f 401 619 618
f 401 402 107
f 403 402 401
f 619 159 618
f 401 618 32
f 619 401 107
f 403 401 32
f 618 611 32
f 159 624 618
f 478 122 459
f 122 458 459
f 37 459 457
f 459 458 457
f 122 456 458
f 457 458 123
f 191 190 192
f 485 129 484
f 129 482 484
f 483 485 484
f 130 483 484
f 189 187 14
f 191 50 189
f 191 189 175
f 189 14 175
f 14 177 175
f 499 501 500
f 501 499 38
f 38 499 590
f 135 499 500
f 488 501 38
f 499 135 591
f 480 454 4
f 284 12 346
f 4 423 506
f 480 4 506
f 423 531 506
f 480 506 505
f 531 137 506
f 506 137 505
f 365 366 98
f 71 270 262
f 270 71 269
f 71 267 269
f 335 334 333
f 333 334 89
f 334 335 91
f 536 9 519
f 465 463 461
f 537 140 541
f 520 140 519
f 119 446 465
f 465 461 119
f 461 441 119
f 460 441 461
f 176 46 173
f 299 297 24
f 71 263 266
f 263 260 266
f 260 72 266
f 263 70 260
f 205 201 49
f 201 181 49
f 186 205 49
f 181 201 200
f 181 182 49
f 284 77 283
f 586 587 152
f 588 586 151
f 20 267 265
f 266 267 71
f 31 417 631
f 631 417 632
f 31 631 639
f 417 31 419
f 641 631 161
f 417 112 632
f 161 631 632
f 418 417 419
f 417 418 112
f 284 345 77
f 542 550 145
f 542 541 524
f 284 174 12
f 48 174 283
f 373 20 265
f 373 265 374
f 609 608 525
f 608 157 622
f 560 559 313
f 636 637 162
f 541 140 524
f 41 542 524
f 358 357 280
f 70 263 264
f 263 262 264
f 176 177 46
f 174 48 173
f 174 173 172
f 538 551 549
f 538 540 539
f 537 541 539
f 232 221 242
f 17 221 232
f 232 242 62
f 231 232 62
f 203 205 55
f 203 55 202
f 201 205 203
f 202 55 217
f 205 206 55
f 204 203 202
f 73 275 292
f 292 290 73
f 272 290 282
f 290 292 291
f 75 290 291
f 290 75 282
f 70 277 259
f 277 70 281
f 277 281 279
f 260 70 259
f 12 174 172
f 104 396 388
f 367 27 354
f 365 27 367
f 354 27 356
f 365 367 366
f 595 27 365
f 318 299 310
f 155 596 597
f 155 597 598
f 596 594 597
f 595 596 155
f 605 595 155
f 180 47 179
f 180 190 47
f 352 372 11
f 11 372 261
f 312 310 24
f 642 636 162
f 636 297 637
f 367 369 97
f 366 367 97
f 369 367 354
f 369 370 97
f 580 579 464
f 580 152 579
f 579 124 464
f 61 230 409
f 230 410 409
f 230 61 229
f 230 229 228
f 76 285 286
f 353 352 276
f 74 353 276
f 288 76 286
f 288 286 283
f 289 288 287
f 203 54 201
f 287 288 77
f 77 288 283
f 286 48 283
f 531 423 113
f 276 11 259
f 11 261 259
f 277 276 259
f 616 158 615
f 516 616 615
f 138 516 615
f 138 615 612
f 509 533 532
f 503 502 504
f 635 79 294
f 635 294 404
f 635 637 79
f 637 635 638
f 638 635 108
f 635 404 108
f 226 61 405
f 61 226 227
f 405 61 409
f 227 226 207
f 48 178 179
f 48 286 178
f 173 48 179
f 534 143 533
f 534 535 143
f 531 534 533
f 533 143 532
f 137 531 533
f 261 372 371
f 13 180 178
f 285 13 178
f 180 13 166
f 13 168 166
f 346 345 284
f 331 327 46
f 46 327 172
f 172 327 326
f 382 620 101
f 442 121 448
f 443 121 442
f 2 226 404
f 294 2 404
f 404 226 405
f 207 226 2
f 550 551 145
f 552 146 551
f 143 550 532
f 552 550 143
f 330 329 328
f 24 636 629
f 94 352 353
f 352 11 276
f 113 428 534
f 428 535 534
f 509 41 511
f 535 552 143
f 550 552 551
f 550 542 532
f 369 95 368
f 326 327 87
f 87 327 329
f 327 331 329
f 581 326 87
f 293 79 298
f 79 297 298
f 296 298 78
f 79 293 294
f 296 293 298
f 598 490 38
f 358 280 22
f 280 279 278
f 357 358 95
f 74 357 353
f 330 328 25
f 567 23 559
f 590 598 38
f 590 604 598
f 598 604 155
f 604 590 154
f 590 591 154
f 604 154 606
f 297 299 298
f 299 318 78
f 298 299 78
f 355 354 356
f 629 636 642
f 312 24 629
f 629 642 160
f 370 362 97
f 362 363 97
f 363 366 97
f 364 363 362
f 362 370 351
f 96 363 364
f 297 636 24
f 162 637 638
f 637 297 79
f 490 488 38
f 598 597 490
f 441 442 119
f 443 442 441
f 443 441 5
f 442 448 445
f 296 78 295
f 326 12 172
f 575 574 364
f 47 175 176
f 175 177 176
f 47 176 179
