# FEM surface export ¡ª frame 645
# Vertices: 642  Faces: 1280
v -0.50639045 0.76707673 0.00766285
v 0.50063235 0.78395551 -0.00999222
v -0.52946085 0.51944536 0.02803482
v 0.51643968 0.46328408 -0.01466541
v 0.00698062 0.30220914 0.85425931
v 0.01134615 0.53386557 0.86199552
v 0.00367374 0.27417654 -0.84302789
v -0.01151174 0.54588550 -0.86049795
v 0.94626504 0.17223310 -0.60182250
v 0.95056218 0.17316297 0.59563154
v -0.94256580 0.15137565 -0.57934308
v -0.92384136 0.15735812 0.59099793
v -0.80823302 0.51492155 0.33298737
v -0.51678687 0.38279533 0.85938120
v -0.29600435 0.74367702 0.48675883
v 0.28996250 0.74713236 0.47817186
v -0.00002334 0.90423775 -0.00362765
v 0.28327456 0.76218134 -0.49384522
v -0.29945064 0.75619346 -0.48077047
v -0.52972919 0.38974467 -0.84942657
v -0.81051046 0.52691478 -0.30399123
v -1.10984135 0.18966357 -0.00221920
v 0.53198314 0.38580787 0.85390574
v 0.81608766 0.54093260 0.29873782
v -0.54024571 0.16016504 0.82200265
v 0.00194684 0.13135104 1.11711133
v -0.83042341 0.26147208 -0.31065381
v -0.78557336 0.24764065 0.31850654
v -0.00947807 0.12810126 -1.12167799
v -0.49896458 0.07229941 -0.83739603
v 0.80801266 0.54502147 -0.33935747
v 0.49891400 0.39178854 -0.86780870
v 0.82916021 0.22483605 0.32993239
v 0.52193177 0.13466768 0.85387063
v 0.27114475 0.49169669 0.45986754
v -0.28004569 0.55997229 0.46875203
v -0.02647041 0.37073845 0.01875360
v -0.32240218 0.34523442 -0.50811774
v 0.32060623 0.48214391 -0.45103398
v 0.53513336 0.12890688 -0.83520526
v 0.85180247 0.19136354 -0.29719746
v 1.11090398 0.19755866 -0.01380290
v -0.67789626 0.65911192 0.17489575
v -0.56458926 0.65003675 0.42984080
v -0.41271538 0.77417326 0.25071818
v -0.74616969 0.25545543 0.76919091
v -0.69534785 0.46346352 0.61071891
v -0.89473981 0.35516074 0.47056210
v -0.14698046 0.65701950 0.69636071
v -0.41571766 0.58706999 0.69930142
v -0.25672600 0.46438754 0.89113075
v -0.15535730 0.85451120 0.24552992
v -0.26144680 0.86321974 0.00016203
v 0.15972927 0.66367501 0.68275899
v -0.00249354 0.77347237 0.49933514
v 0.26207119 0.87418640 -0.00244688
v 0.15453795 0.85747778 0.24409707
v 0.41213736 0.78813088 0.23987272
v -0.16097824 0.85788423 -0.24719630
v -0.42125595 0.78761387 -0.24355151
v 0.41012907 0.80212677 -0.25808787
v 0.15480012 0.86657888 -0.25207609
v -0.17224102 0.66889596 -0.68817371
v -0.00632835 0.78782636 -0.50402051
v 0.13607320 0.67420208 -0.70109719
v -0.57621181 0.66345161 -0.41099021
v -0.68333054 0.66077405 -0.14742354
v -0.27160901 0.48740798 -0.87524265
v -0.43738681 0.59174126 -0.67884570
v -0.90109724 0.36237651 -0.46054247
v -0.69821233 0.46748129 -0.59914362
v -0.74650133 0.28291687 -0.75398111
v -0.85720479 0.53916711 0.01327086
v -1.08298481 0.16679035 -0.29654095
v -0.99714935 0.36311680 -0.17797801
v -0.98592854 0.37000909 0.17514671
v -1.05897236 0.19282587 0.31734553
v 0.56448662 0.65738511 0.40466699
v 0.66796124 0.67950046 0.13528128
v 0.27155069 0.46877861 0.87945050
v 0.42453751 0.57761770 0.67593759
v 0.91881186 0.37702894 0.45847440
v 0.70212132 0.49081141 0.59806144
v 0.76416498 0.30395311 0.75294441
v -0.27461129 0.27053091 1.02949369
v 0.00473423 0.34607908 1.02097058
v -0.79047364 0.00206445 0.76812637
v -0.57483435 0.13845263 0.94945508
v -0.00191982 0.10490081 1.06765497
v -0.29699671 0.02239447 1.05034757
v -0.27835801 0.25893024 0.88379592
v -0.97291005 0.00000000 0.17840840
v -0.92895222 0.10231307 0.49387351
v -0.93094844 0.08862869 -0.43973252
v -1.02268338 0.03985118 -0.17049317
v -0.70000952 0.36491963 0.14908266
v -0.87359571 0.24339947 0.03207875
v -0.67837250 0.39291143 -0.15623952
v -0.58453405 0.13470645 -0.94682902
v -0.78963619 0.00018443 -0.78187031
v -0.00606748 0.36544821 -1.01672769
v -0.28373531 0.29417387 -1.02935827
v -0.25114062 0.18685652 -0.88904411
v -0.26250562 0.02383749 -1.02898014
v 0.01862334 0.06389318 -1.03862464
v 0.40671512 0.60008919 -0.70815068
v 0.25351915 0.48089334 -0.90110624
v 0.67576361 0.67777056 -0.17577404
v 0.56032306 0.67780071 -0.43401653
v 0.74177372 0.28070548 -0.77589470
v 0.68553805 0.49130592 -0.63101041
v 0.89843643 0.36535639 -0.49724331
v 0.71745473 0.37195379 0.14996065
v 0.57812601 0.40340501 0.39500001
v 0.39932409 0.51613659 0.20642243
v 0.77161580 0.02380722 0.79121482
v 0.68014103 0.19829622 0.59140533
v 0.91737258 0.00044031 0.49658713
v 0.17774893 0.41223192 0.69723094
v 0.39352596 0.37503445 0.69297427
v 0.23960236 0.20092924 0.92800158
v 0.16116400 0.57882589 0.21829365
v 0.21984951 0.28370225 0.02890038
v -0.14403956 0.41297850 0.65570307
v 0.03364269 0.58058387 0.49730819
v -0.27423334 0.43156767 0.06601001
v -0.17329581 0.46101019 0.26475167
v -0.43751270 0.59710103 0.23639779
v 0.15498342 0.33556649 -0.24489383
v 0.42776719 0.36089751 -0.23689014
v -0.41130027 0.48153317 -0.25576037
v -0.21021999 0.32754427 -0.22512242
v 0.17046769 0.43542710 -0.66604310
v -0.03482785 0.42205513 -0.51183039
v -0.16349629 0.48220935 -0.68549150
v 0.60573584 0.37244755 -0.38717344
v 0.71456444 0.36232010 -0.14623170
v 0.27139384 0.28068823 -0.88006341
v 0.44610161 0.32899010 -0.63425857
v 0.93317342 0.00000000 -0.46713015
v 0.72840261 0.17493102 -0.59779745
v 0.78721642 0.00223075 -0.77261072
v 0.90218574 0.24266559 0.02489839
v 1.06209981 0.18639831 -0.31973758
v 1.02791238 0.00000000 -0.14513513
v 1.02222991 0.00000000 0.19832732
v 1.07493341 0.17218275 0.30477095
v 0.30031165 0.01514402 1.05262232
v 0.58880365 0.14887623 0.95916271
v 0.29008579 0.26578513 1.03597248
v -0.56782526 0.44193438 0.41326350
v -0.40983728 0.38730738 0.66926664
v -0.73359060 0.24276797 0.60827923
v -0.43901902 0.31611079 -0.71116090
v -0.58916777 0.40236434 -0.41974843
v -0.73062962 0.21961918 -0.63026679
v 0.57140756 0.13871723 -0.96406102
v 0.30299792 0.00428818 -1.04597998
v 0.27388012 0.27928689 -1.04075575
v 1.01902175 0.36242715 0.16449393
v 0.99300772 0.38313022 -0.19877364
v 0.85832566 0.55448723 -0.00900470
v -0.59508836 0.71956640 0.09042266
v -0.54730272 0.72417498 0.21326101
v -0.46094701 0.77652216 0.13105352
v -0.69069886 0.58635205 0.38107473
v -0.62478656 0.65777999 0.30257630
v -0.75219953 0.58927506 0.25222051
v -0.35559198 0.76373112 0.36757132
v -0.49316651 0.71463966 0.34017307
v -0.43733081 0.70227307 0.45715204
v -0.83992898 0.19888905 0.68785954
v -0.83117437 0.29945025 0.61945122
v -0.91677022 0.25152194 0.53431749
v -0.61790311 0.42898417 0.73869693
v -0.73656726 0.36726725 0.68954301
v -0.64105380 0.32567653 0.81551987
v -0.85577828 0.42805815 0.39508522
v -0.79479885 0.39525470 0.54535562
v -0.76143420 0.48985234 0.47185817
v -0.06605819 0.59806859 0.78563881
v -0.19971976 0.56631267 0.80378026
v -0.12227198 0.50151402 0.88610649
v -0.35745749 0.67378336 0.59705907
v -0.28350469 0.62615061 0.70732504
v -0.22640403 0.70659232 0.59710246
v -0.39527681 0.42985496 0.88833088
v -0.34019244 0.52613729 0.80431885
v -0.47387099 0.49070323 0.78253704
v -0.63755369 0.56189024 0.52485549
v -0.56520915 0.53047758 0.66132236
v -0.49674252 0.62523246 0.57199907
v -0.34211200 0.82766765 0.12590338
v -0.38659662 0.81988758 0.00266992
v -0.22726652 0.80327654 0.36686900
v -0.28692141 0.82082051 0.25006181
v -0.13306452 0.89049965 -0.00145607
v -0.20948634 0.87048107 0.12461226
v -0.07805759 0.88912803 0.12321354
v 0.09099519 0.60115200 0.77452707
v 0.00182202 0.66495878 0.69661319
v 0.14047529 0.76607203 0.49248859
v 0.07294181 0.72236121 0.59552962
v 0.22417136 0.70745039 0.58079118
v -0.07581877 0.71968371 0.59954602
v -0.14854147 0.76735294 0.49801654
v 0.38347113 0.83207792 -0.00320504
v 0.34000286 0.83892357 0.12282552
v 0.46115151 0.79283965 0.11561894
v 0.07845622 0.89168996 0.12192965
v 0.20968398 0.87460530 0.12208636
v 0.13202223 0.89867705 -0.00661901
v 0.35498393 0.77707791 0.36373088
v 0.28435609 0.83178782 0.24721596
v 0.22182810 0.80843270 0.36463338
v -0.08282291 0.82091349 0.37793779
v 0.07390548 0.82382995 0.37337950
v -0.00336383 0.86824691 0.24753362
v -0.34582493 0.83175910 -0.12377764
v -0.46811798 0.78383428 -0.11704709
v -0.08306821 0.89088148 -0.12514178
v -0.21364114 0.86873072 -0.12614301
v -0.36528325 0.77961147 -0.36615992
v -0.29183450 0.82728612 -0.24784964
v -0.23188584 0.81535077 -0.36535805
v 0.46072176 0.79844922 -0.13353764
v 0.34241408 0.84685540 -0.13060410
v 0.22091068 0.82266492 -0.37663940
v 0.28519574 0.84134424 -0.25912717
v 0.34925613 0.78825927 -0.37941608
v 0.21276326 0.87800562 -0.13071315
v 0.07740896 0.89512473 -0.13250113
v -0.09392372 0.61418349 -0.78059965
v -0.01761635 0.67808253 -0.70188236
v 0.06230316 0.61646265 -0.79031271
v -0.15385069 0.77872884 -0.49613062
v -0.09089845 0.73362082 -0.60236627
v -0.23388235 0.71819872 -0.58834618
v 0.21298791 0.72345471 -0.60283595
v 0.06324976 0.73598492 -0.60817850
v 0.13798511 0.78320861 -0.50456601
v -0.00543016 0.87470144 -0.25272533
v 0.07386716 0.83779722 -0.37713328
v -0.08293457 0.83597213 -0.37898669
v -0.55761576 0.73402911 -0.19542380
v -0.60029632 0.72211790 -0.06820659
v -0.44002122 0.72015953 -0.45445684
v -0.50218570 0.73213768 -0.32903698
v -0.75504977 0.59562647 -0.22486016
v -0.63487464 0.66562235 -0.28008926
v -0.70235658 0.60206205 -0.35783193
v -0.14196068 0.51866215 -0.87078798
v -0.22692177 0.58202416 -0.78392965
v -0.48681453 0.49540058 -0.76505649
v -0.36134538 0.54158634 -0.77997255
v -0.40414470 0.44320562 -0.86279613
v -0.30498081 0.63526303 -0.68893731
v -0.36769354 0.67945439 -0.58758903
v -0.93313789 0.26937026 -0.53862315
v -0.83652008 0.33347130 -0.61694056
v -0.85215825 0.21602014 -0.67502958
v -0.76712799 0.49682760 -0.45355916
v -0.80272275 0.41815123 -0.53305858
v -0.86334711 0.44184962 -0.38225707
v -0.64364946 0.33179572 -0.81863588
v -0.73412436 0.37793228 -0.68367726
v -0.62690395 0.43901372 -0.73140413
v -0.50901800 0.63584816 -0.55302978
v -0.57383734 0.53315455 -0.64240855
v -0.65141487 0.56923002 -0.50127882
v -0.69065976 0.67167974 0.01519107
v -0.84116000 0.53939533 -0.14580357
v -0.77162057 0.60409749 -0.06454953
v -0.77283520 0.60103399 0.09977620
v -0.84187257 0.52831149 0.17445637
v -1.01920474 0.15892541 -0.44611874
v -0.99571258 0.25488439 -0.39991915
v -1.05683577 0.27055073 -0.09462022
v -1.03786564 0.26277643 -0.24465775
v -1.09386623 0.16630770 -0.15667465
v -0.96088076 0.35662350 -0.32075220
v -0.90754569 0.44792697 -0.23971462
v -0.98322463 0.27633217 0.39964864
v -1.00778651 0.16621846 0.45914534
v -0.90376359 0.43914542 0.25405043
v -0.95672154 0.37208936 0.32675031
v -1.09604406 0.23259392 0.15411891
v -1.02897978 0.30143678 0.24456230
v -1.06480765 0.30514869 0.08245630
v -0.93894607 0.45320022 -0.07829343
v -1.00903261 0.36190179 -0.00164119
v -0.93844891 0.44834584 0.09245449
v 0.54434264 0.74500269 0.19379772
v 0.58863693 0.73056692 0.05961052
v 0.43083996 0.70949751 0.44932508
v 0.48739821 0.73019624 0.32411966
v 0.74614984 0.61998814 0.21761952
v 0.62080514 0.68109226 0.27654552
v 0.69860280 0.61377662 0.35271275
v 0.14034325 0.50599849 0.87192154
v 0.22230774 0.56356704 0.78112507
v 0.48116085 0.49424756 0.77065027
v 0.35173690 0.53241187 0.77931595
v 0.40536794 0.44245183 0.87633681
v 0.29211745 0.61961770 0.68101639
v 0.35941532 0.66185701 0.57714450
v 0.94839513 0.27961826 0.52458698
v 0.85240459 0.34185243 0.61058885
v 0.86841446 0.24681938 0.67539352
v 0.76699680 0.52903485 0.45344910
v 0.81404412 0.44084907 0.53520226
v 0.87431967 0.46684885 0.38518775
v 0.64679223 0.34069759 0.81245756
v 0.74108255 0.39849293 0.68086469
v 0.62597811 0.44408998 0.73321915
v 0.50646806 0.62195212 0.54992521
v 0.56669813 0.54016930 0.64200389
v 0.64161211 0.58323860 0.50095576
v -0.13767605 0.40288380 0.96439135
v 0.00560308 0.44263518 0.94821090
v -0.41718215 0.32215053 0.95498168
v -0.28366399 0.36188948 0.96447021
v 0.01143570 0.24427900 1.07455230
v -0.13761018 0.30253762 1.02822590
v -0.13840090 0.20062736 1.10082674
v -0.87250638 0.07496148 0.69945139
v -0.77327371 0.12653135 0.79221439
v -0.56333476 0.00000000 0.88349849
v -0.69723845 0.05217063 0.86569113
v -0.63298827 0.04127980 0.72957373
v -0.66077137 0.18309037 0.87600762
v -0.54928720 0.25243607 0.90964317
v -0.01757783 0.21518146 0.95546353
v -0.13811478 0.19832650 0.96102136
v -0.13975966 0.28624433 0.84534985
v -0.14606406 0.04992597 1.12069392
v -0.15170339 0.08494172 1.00011528
v 0.00732816 0.00875353 1.11236632
v -0.43456495 0.22909886 0.86099374
v -0.27981654 0.14655741 0.97055733
v -0.37550965 0.09951755 0.87472630
v -0.42779499 0.18887182 1.01113069
v -0.45544365 0.04626699 1.01926863
v -0.29694283 0.12361045 1.07150912
v -1.04243934 0.07841641 0.40970469
v -0.97809750 0.06325411 0.55594891
v -1.10089767 0.07841974 0.11237808
v -1.06358540 0.08581214 0.23972112
v -0.86972469 0.14810258 0.38369977
v -0.96525264 0.00914943 0.34745765
v -0.91074908 0.13569257 0.25868520
v -0.97412968 0.04801425 -0.51931047
v -1.03954661 0.02533974 -0.39241391
v -0.93666422 0.15136857 -0.22118813
v -0.97775280 0.13377485 -0.28722626
v -0.86319607 0.16037819 -0.36688367
v -1.07932341 0.01238789 -0.25437731
v -1.11509633 0.04328884 -0.08140413
v -0.62984699 0.46029612 0.10586949
v -0.71131653 0.42619610 0.00130911
v -0.61466461 0.47566831 -0.05949513
v -0.83223975 0.23914450 0.16281590
v -0.76714712 0.30901030 0.11889648
v -0.76257551 0.32766089 0.25483152
v -0.76891744 0.29791337 -0.22813237
v -0.78211153 0.34288397 -0.05324971
v -0.88595009 0.25404608 -0.13117403
v -1.02170277 0.00000000 0.01779344
v -0.96115392 0.13436377 -0.06514813
v -0.94038266 0.12058549 0.09956115
v -0.79264373 0.13138285 -0.78248686
v -0.88366246 0.09316910 -0.68037581
v -0.55630791 0.28006056 -0.91652465
v -0.68036830 0.20705135 -0.85948926
v -0.64325577 0.02723611 -0.81477547
v -0.69723558 0.04847631 -0.88381040
v -0.56404358 0.00158613 -0.94060129
v -0.00817189 0.46016362 -0.94069648
v -0.13782117 0.42686021 -0.95336521
v -0.13788714 0.22837049 -1.10054600
v -0.14542153 0.32296985 -1.03038216
v 0.00139779 0.26362702 -1.08502352
v -0.27178457 0.39821550 -0.95763612
v -0.40331784 0.35364440 -0.94197088
v -0.11705615 0.23534650 -0.87745368
v -0.14233062 0.08854287 -0.96817183
v 0.02080174 0.17522879 -0.94151145
v -0.39997178 0.00000000 -0.92122042
v -0.27159363 0.05994258 -0.95143348
v -0.36055109 0.10420039 -0.86704397
v -0.00480595 0.00690945 -1.10271859
v -0.11640562 0.00231763 -1.04456162
v -0.15480690 0.08520948 -1.11250031
v -0.44582868 0.23587139 -1.02058434
v -0.29355076 0.17641339 -1.08522177
v -0.43434340 0.07584713 -1.03628159
v 0.19708459 0.58632898 -0.80482578
v 0.12214983 0.51813722 -0.88975763
v 0.34512454 0.68977314 -0.60891718
v 0.27250996 0.64277869 -0.70920950
v 0.37386975 0.44015142 -0.88759702
v 0.33339372 0.54358512 -0.80912197
v 0.46045899 0.49657941 -0.79765624
v 0.58976746 0.73629850 -0.09438706
v 0.54488033 0.74560970 -0.21924673
v 0.68909943 0.61338627 -0.38904375
v 0.62507612 0.68095285 -0.30716875
v 0.74832177 0.61163294 -0.25419500
v 0.48634398 0.74525106 -0.34776101
v 0.42660618 0.72905064 -0.47553879
v 0.86078411 0.22860430 -0.69992030
v 0.82999891 0.32174000 -0.63986969
v 0.93203247 0.26463217 -0.55276155
v 0.60087317 0.44225597 -0.75939292
v 0.71239609 0.38278690 -0.70592332
v 0.62681448 0.33654094 -0.82030630
v 0.86024934 0.45643777 -0.41996220
v 0.79814637 0.43713990 -0.57143366
v 0.75076056 0.53178531 -0.49263754
v 0.48964128 0.64862287 -0.58167624
v 0.62664282 0.59470451 -0.53769338
v 0.55118239 0.55314964 -0.67754483
v 0.65103006 0.41328022 0.07717048
v 0.57451892 0.46489123 0.15564546
v 0.44045699 0.50045586 0.09441570
v 0.70013660 0.34991196 0.39382911
v 0.64879835 0.43070677 0.29122263
v 0.78765410 0.33250532 0.26230228
v 0.35505959 0.53014010 0.35128570
v 0.50143546 0.47740826 0.29397249
v 0.43767312 0.45733854 0.42331186
v 0.89163619 0.10293324 0.70512807
v 0.84333670 0.04452707 0.65205908
v 0.98537397 0.05320283 0.56687045
v 0.59010750 0.18836337 0.69950181
v 0.72213310 0.11856925 0.67695284
v 0.64672422 0.09003826 0.78625733
v 0.86738402 0.10065611 0.42144725
v 0.80198932 0.10093044 0.54893911
v 0.76991212 0.21030103 0.47144294
v 0.08869398 0.37302238 0.78576404
v 0.18525890 0.31290928 0.82043856
v 0.11567033 0.22236058 0.88989383
v 0.33243984 0.40797359 0.57977313
v 0.27591735 0.37260363 0.72731048
v 0.22381732 0.47145721 0.61452466
v 0.37788343 0.18150781 0.88054782
v 0.31876305 0.28590187 0.83149344
v 0.44460550 0.27885163 0.77479124
v 0.63633084 0.31086543 0.53412205
v 0.55317014 0.32261002 0.65325993
v 0.49449274 0.39309177 0.55241007
v 0.32961386 0.35213533 0.15030798
v 0.36639443 0.35669091 0.03520555
v 0.20360239 0.54289466 0.36682692
v 0.27285758 0.46646976 0.27778396
v 0.10948391 0.37715250 0.01596892
v 0.17734319 0.41307995 0.16393630
v 0.10342169 0.44583401 0.11978468
v -0.08399206 0.36622337 0.75969231
v 0.00077715 0.40311337 0.67631841
v -0.11483723 0.56298131 0.48543409
v -0.06367943 0.51549631 0.59072137
v -0.21874836 0.49947524 0.57975918
v 0.10605317 0.49578214 0.58947253
v 0.14837226 0.52957666 0.47337276
v -0.40025896 0.43357974 0.04409498
v -0.35182324 0.55928659 0.15495484
v -0.49430299 0.56713831 0.13517983
v -0.07916143 0.43339735 0.10725471
v -0.20724763 0.56861436 0.13469118
v -0.16089031 0.40640530 0.05364360
v -0.33562210 0.58860189 0.33618814
v -0.29558170 0.60794461 0.24614307
v -0.19256973 0.61396670 0.37386826
v 0.08776271 0.60417843 0.36542952
v -0.05078045 0.62217522 0.35500759
v -0.00036351 0.44858798 0.24984492
v 0.34068573 0.33014065 -0.11459505
v 0.45460954 0.47156563 -0.11828414
v 0.07211503 0.33408740 -0.12198528
v 0.20221063 0.31150448 -0.11221549
v 0.38204530 0.49625331 -0.32533690
v 0.30012509 0.38575533 -0.28046286
v 0.25296769 0.38776791 -0.39965612
v -0.46636224 0.49644724 -0.09949797
v -0.38769832 0.39153093 -0.11130212
v -0.26385379 0.31088123 -0.38014156
v -0.33324301 0.35169342 -0.23733702
v -0.38614205 0.39033115 -0.36993018
v -0.26441252 0.32048076 -0.07224915
v -0.13937382 0.34050202 -0.08945214
v 0.07318141 0.38671276 -0.78308564
v -0.01078655 0.45261300 -0.68523937
v -0.09269610 0.37205100 -0.77834344
v 0.14479563 0.48954582 -0.51022172
v 0.06742521 0.41585240 -0.59320402
v 0.26002756 0.45653865 -0.59003091
v -0.19947061 0.35343745 -0.59084409
v -0.07813112 0.51644468 -0.57237858
v -0.18846616 0.46246046 -0.44810873
v -0.03296661 0.31757507 -0.23883821
v -0.09647819 0.34208390 -0.38013554
v 0.08153803 0.38363457 -0.38843310
v 0.57057279 0.43585962 -0.16073923
v 0.61737329 0.40308705 -0.03065240
v 0.47089276 0.45803800 -0.39681116
v 0.52320206 0.46025315 -0.27990839
v 0.79885942 0.30572310 -0.24180421
v 0.66356003 0.37739953 -0.27076489
v 0.74275321 0.28637129 -0.36071071
v 0.14042722 0.29422316 -0.86821723
v 0.22166187 0.36894289 -0.77265120
v 0.48644304 0.26489502 -0.76325995
v 0.36729231 0.32821414 -0.78769398
v 0.38116670 0.17098467 -0.88480073
v 0.32478994 0.39548910 -0.66061908
v 0.40052781 0.40647477 -0.55801803
v 0.98882669 0.06581755 -0.54054618
v 0.89309001 0.04234063 -0.64584368
v 0.88326424 0.10526935 -0.70800090
v 0.80611736 0.18050155 -0.45667818
v 0.84772837 0.09373239 -0.52451622
v 0.89731985 0.09347495 -0.37615827
v 0.67873603 0.06522269 -0.81979424
v 0.76840895 0.09643114 -0.68277144
v 0.62767607 0.14220959 -0.71471679
v 0.52598655 0.37310481 -0.51297772
v 0.57518315 0.26471400 -0.62998968
v 0.66088074 0.25837892 -0.50940788
v 0.73637098 0.34578660 0.01100734
v 0.88493574 0.20262580 -0.14652157
v 0.81310189 0.28653666 -0.08575468
v 0.80251563 0.27233809 0.09369379
v 0.87618905 0.23471142 0.18448792
v 1.01248229 0.16947508 -0.46666339
v 1.04615581 0.06825197 -0.39886919
v 1.12585092 0.09560384 -0.07675124
v 1.09080064 0.08038802 -0.24124770
v 1.10013425 0.18728362 -0.17243044
v 0.99280101 0.00726712 -0.30711859
v 0.92668653 0.07288839 -0.21943469
v 1.02772677 0.08288598 0.41757914
v 1.02432954 0.18888341 0.45759553
v 0.91973919 0.08125718 0.31373644
v 0.98830634 0.00000000 0.36147043
v 1.09661949 0.16247107 0.15063280
v 1.06518269 0.05566664 0.26440492
v 1.09451115 0.08474733 0.10026153
v 0.95634705 0.11355206 -0.04753292
v 1.05293655 0.00000000 0.03203078
v 0.95461106 0.11860842 0.13681118
v 0.11190719 0.17693062 0.95722651
v 0.41949224 0.05580735 0.96978003
v 0.26904696 0.11917596 0.98063564
v 0.13899118 0.04158635 1.05714965
v 0.14922167 0.10956804 1.11810803
v 0.79797810 0.16906251 0.79000193
v 0.56455141 0.26880181 0.92427951
v 0.69025117 0.22333883 0.86833912
v 0.68632728 0.09604259 0.87978345
v 0.58817184 0.00552547 0.93136889
v 0.14285536 0.41206262 0.96334767
v 0.15721369 0.20583755 1.08971751
v 0.14893126 0.31048453 1.03460240
v 0.28717676 0.38029104 0.96602422
v 0.41363528 0.33631536 0.95267594
v 0.46983930 0.08435638 1.05303121
v 0.44386661 0.21382476 1.01903987
v 0.30985269 0.13739319 1.08413911
v -0.60555327 0.48712856 0.23243707
v -0.44428664 0.51536590 0.42070442
v -0.50782281 0.54282510 0.32824692
v -0.64410377 0.42545348 0.30146608
v -0.69561160 0.36958110 0.36963424
v -0.22430748 0.35209662 0.77932912
v -0.51583540 0.30797565 0.75019103
v -0.38213426 0.30621493 0.77123719
v -0.28718024 0.40525565 0.65983087
v -0.34656185 0.46762076 0.56566936
v -0.86023074 0.00000000 0.63346350
v -0.78132945 0.24539937 0.44387561
v -0.81977266 0.14263728 0.57342005
v -0.75796461 0.12360650 0.70095456
v -0.62808198 0.22278059 0.71073908
v -0.49919608 0.45471942 0.54749966
v -0.57581556 0.33479175 0.62570125
v -0.65527195 0.35736501 0.49872768
v -0.23083411 0.31537908 -0.77209127
v -0.38714749 0.39594054 -0.60339695
v -0.31417811 0.40550458 -0.70892650
v -0.33699656 0.26663360 -0.78167075
v -0.45311302 0.17194191 -0.76741958
v -0.54164159 0.45569843 -0.18203086
v -0.73135358 0.36180153 -0.37291121
v -0.65196174 0.43351468 -0.29527438
v -0.51121974 0.47562188 -0.33065847
v -0.44220495 0.45781484 -0.44903210
v -0.87184423 0.00066281 -0.62001574
v -0.61825073 0.12100259 -0.72982216
v -0.77065855 0.10116266 -0.71276146
v -0.81026900 0.11516006 -0.54760635
v -0.79476482 0.22906780 -0.46209356
v -0.51902854 0.38944283 -0.55326909
v -0.67125595 0.30689687 -0.51305920
v -0.56735414 0.26579383 -0.64586365
v 0.78510922 0.13722795 -0.78389096
v 0.58122742 0.11542364 -0.93073416
v 0.69229662 0.09608670 -0.87303680
v 0.65942305 0.20469053 -0.86891192
v 0.55990332 0.28945836 -0.92062753
v 0.15469374 0.17450880 -0.94981569
v 0.14027099 0.05710436 -1.09174228
v 0.15879379 0.06596576 -1.03554535
v 0.29586351 0.16160309 -0.98202431
v 0.39810252 0.03318133 -0.92515486
v 0.12872022 0.42457822 -0.97524494
v 0.39794421 0.33031192 -0.96225482
v 0.26256812 0.37759382 -0.97323692
v 0.12842774 0.30811912 -1.03922045
v 0.14217050 0.19931792 -1.09985507
v 0.44070643 0.07145470 -1.03316700
v 0.29425809 0.13304608 -1.06500661
v 0.43894815 0.22022197 -1.01845276
v 1.01538157 0.27439117 0.38701388
v 1.07458186 0.26777044 0.08419195
v 1.05904007 0.27210146 0.24059427
v 0.97161591 0.38137975 0.31617394
v 0.92407632 0.45914581 0.23482236
v 0.99477178 0.27569112 -0.41814274
v 0.90946269 0.46450314 -0.27731794
v 0.96480519 0.36956081 -0.35183772
v 1.04337716 0.29465595 -0.26533523
v 1.05983937 0.30531192 -0.10539452
v 0.68376160 0.68206894 -0.02353571
v 0.84319884 0.56053269 0.14521959
v 0.76874530 0.62625605 0.06102819
v 0.77339423 0.61327517 -0.09893087
v 0.84702367 0.54677093 -0.17488056
v 1.01662564 0.37818623 -0.01088492
v 0.93635195 0.46672714 -0.10026082
v 0.94860625 0.47010261 0.08100986
f 330 87 329
f 336 325 26
f 207 208 56
f 464 36 580
f 502 129 504
f 157 624 622
f 308 311 82
f 247 223 248
f 507 483 508
f 331 88 329
f 494 500 497
f 156 601 602
f 591 589 592
f 365 98 596
f 75 281 282
f 152 587 577
f 149 559 560
f 555 121 553
f 530 141 529
f 515 517 139
f 361 594 98
f 250 67 249
f 157 608 609
f 294 293 209
f 317 81 316
f 557 338 26
f 303 305 81
f 530 529 528
f 101 381 382
f 415 418 111
f 192 184 50
f 412 110 411
f 20 384 256
f 131 594 486
f 281 264 282
f 347 287 348
f 28 349 582
f 165 163 1
f 248 250 66
f 617 107 398
f 273 271 274
f 456 115 453
f 558 561 560
f 335 576 91
f 331 177 332
f 116 433 436
f 351 370 92
f 136 511 530
f 239 240 65
f 247 258 19
f 304 23 567
f 148 557 570
f 214 208 58
f 440 426 450
f 268 270 269
f 258 247 268
f 204 202 16
f 466 125 465
f 517 513 133
f 168 275 274
f 275 73 274
f 198 193 53
f 309 308 307
f 510 511 136
f 415 416 110
f 131 490 597
f 473 475 474
f 414 415 111
f 493 495 494
f 496 504 485
f 433 116 432
f 600 375 601
f 240 234 65
f 418 415 412
f 486 361 3
f 567 566 304
f 380 393 29
f 17 199 197
f 491 492 132
f 451 449 435
f 218 217 216
f 623 621 613
f 396 104 395
f 433 439 436
f 628 160 627
f 215 202 217
f 209 207 2
f 427 113 424
f 434 10 544
f 434 433 432
f 199 17 210
f 150 564 565
f 489 491 132
f 275 13 285
f 497 500 134
f 125 466 476
f 578 152 577
f 208 214 211
f 328 88 343
f 356 27 603
f 150 566 567
f 372 100 371
f 190 191 47
f 235 8 398
f 260 261 72
f 422 403 414
f 422 414 111
f 453 454 123
f 349 583 582
f 521 520 519
f 425 453 115
f 616 622 158
f 483 130 508
f 151 586 572
f 212 17 232
f 400 397 402
f 377 396 99
f 41 522 511
f 510 508 505
f 549 547 42
f 475 473 36
f 510 137 509
f 222 221 197
f 430 115 429
f 220 194 1
f 305 54 204
f 621 29 613
f 192 171 184
f 460 335 5
f 88 331 332
f 74 277 279
f 300 301 80
f 390 389 388
f 165 45 164
f 146 549 551
f 291 278 75
f 448 120 445
f 147 543 544
f 607 610 609
f 603 602 356
f 139 529 514
f 333 553 443
f 92 368 347
f 261 260 259
f 300 6 200
f 46 177 331
f 284 283 174
f 301 300 200
f 471 468 474
f 54 305 301
f 302 304 303
f 569 150 567
f 150 569 570
f 294 209 2
f 628 629 160
f 548 543 147
f 147 625 627
f 63 233 234
f 426 427 114
f 41 509 532
f 198 52 196
f 614 105 612
f 147 627 547
f 81 305 306
f 549 548 547
f 54 301 200
f 342 88 332
f 264 281 70
f 193 194 53
f 455 429 456
f 187 321 14
f 479 130 484
f 147 544 625
f 458 456 453
f 304 80 303
f 314 84 313
f 488 503 501
f 321 332 14
f 423 425 424
f 305 204 306
f 341 339 25
f 514 40 516
f 625 628 627
f 340 339 341
f 105 614 391
f 243 228 62
f 318 316 78
f 75 278 279
f 357 355 353
f 238 257 63
f 466 455 476
f 425 423 4
f 448 449 120
f 408 638 108
f 292 275 285
f 22 278 289
f 515 513 517
f 501 503 134
f 622 623 158
f 134 503 504
f 195 216 206
f 163 271 246
f 619 617 620
f 62 228 229
f 163 165 164
f 453 425 454
f 489 132 488
f 82 628 625
f 58 208 209
f 525 608 40
f 626 547 627
f 518 517 498
f 489 487 491
f 557 26 564
f 325 336 344
f 541 145 539
f 40 616 516
f 338 556 89
f 250 248 245
f 139 514 515
f 98 594 596
f 246 220 1
f 112 413 630
f 9 536 413
f 156 600 601
f 332 177 14
f 321 342 332
f 156 606 600
f 584 330 585
f 302 303 81
f 584 87 330
f 330 25 585
f 400 239 65
f 439 440 117
f 95 358 368
f 597 594 131
f 594 361 486
f 246 67 245
f 561 562 149
f 28 364 362
f 55 216 217
f 427 430 114
f 267 20 254
f 556 555 553
f 84 309 558
f 311 310 312
f 609 525 142
f 256 68 255
f 124 460 461
f 82 311 312
f 307 308 82
f 589 135 495
f 527 40 514
f 112 418 412
f 20 256 254
f 258 238 19
f 267 254 269
f 273 272 249
f 392 391 393
f 137 533 509
f 122 455 456
f 9 413 411
f 130 480 505
f 333 443 5
f 527 525 40
f 589 495 385
f 39 496 485
f 223 225 224
f 414 416 415
f 219 222 53
f 145 538 539
f 413 412 411
f 469 468 467
f 183 181 6
f 191 192 50
f 429 35 431
f 292 285 76
f 413 112 412
f 415 110 412
f 43 164 167
f 467 468 126
f 617 101 620
f 450 451 117
f 438 546 545
f 619 620 159
f 17 212 210
f 124 579 576
f 584 153 583
f 460 124 576
f 3 469 467
f 311 308 314
f 6 320 183
f 389 104 388
f 251 250 249
f 194 165 1
f 291 289 278
f 287 77 348
f 238 258 257
f 139 517 518
f 238 236 19
f 223 247 19
f 382 380 29
f 39 518 498
f 361 359 3
f 69 255 257
f 139 518 528
f 33 545 535
f 387 385 7
f 69 268 269
f 477 462 125
f 454 479 123
f 121 555 447
f 451 435 117
f 454 425 4
f 233 252 8
f 124 463 464
f 69 258 268
f 168 167 166
f 583 153 582
f 384 394 102
f 138 512 513
f 57 210 211
f 254 256 255
f 607 609 142
f 324 319 86
f 289 291 76
f 291 292 76
f 384 102 383
f 422 421 420
f 221 17 197
f 383 102 381
f 376 377 99
f 99 373 374
f 386 105 392
f 438 33 440
f 90 341 343
f 281 75 279
f 574 571 96
f 628 82 312
f 221 222 59
f 127 471 474
f 595 605 603
f 551 538 145
f 334 91 340
f 322 324 85
f 305 303 301
f 18 239 399
f 306 204 16
f 199 198 197
f 166 190 180
f 303 80 301
f 267 266 265
f 626 42 547
f 16 215 213
f 349 351 350
f 295 16 213
f 68 379 252
f 250 251 66
f 627 160 626
f 383 68 256
f 343 88 342
f 507 508 136
f 202 215 16
f 197 198 53
f 254 69 269
f 603 605 156
f 418 419 111
f 384 383 256
f 455 122 476
f 203 204 54
f 556 557 148
f 255 68 253
f 313 84 560
f 25 328 341
f 254 255 69
f 603 156 602
f 581 584 583
f 630 632 112
f 163 246 1
f 246 245 220
f 432 116 558
f 499 591 590
f 320 563 86
f 345 93 350
f 306 16 295
f 346 93 345
f 562 568 149
f 604 605 155
f 154 592 593
f 545 552 535
f 511 522 530
f 574 573 571
f 566 150 565
f 361 98 360
f 67 271 273
f 234 235 65
f 208 211 56
f 574 151 573
f 251 270 66
f 398 8 378
f 213 215 214
f 438 440 439
f 315 314 313
f 263 71 262
f 20 373 384
f 496 134 504
f 329 88 328
f 81 306 316
f 555 556 148
f 592 589 103
f 617 619 107
f 227 207 56
f 571 359 96
f 446 466 465
f 206 216 55
f 359 571 469
f 568 148 570
f 34 437 435
f 28 351 349
f 21 272 282
f 113 423 424
f 490 489 488
f 379 68 383
f 210 212 211
f 80 563 300
f 351 92 350
f 326 346 12
f 83 317 318
f 555 148 554
f 212 231 56
f 218 57 217
f 271 67 246
f 195 196 52
f 270 268 66
f 390 592 103
f 148 568 554
f 495 493 7
f 592 390 593
f 357 95 355
f 574 575 151
f 452 120 451
f 154 591 592
f 587 585 577
f 395 394 396
f 93 349 350
f 610 416 611
f 166 44 190
f 315 23 302
f 315 302 317
f 268 247 66
f 606 154 593
f 396 394 99
f 211 212 56
f 370 369 368
f 235 397 65
f 280 278 22
f 83 315 317
f 575 588 151
f 74 279 280
f 385 495 7
f 63 257 253
f 397 235 398
f 214 58 213
f 220 219 194
f 546 146 545
f 236 225 19
f 599 94 602
f 235 233 8
f 102 394 395
f 611 416 32
f 225 223 19
f 139 528 529
f 231 62 229
f 419 406 421
f 451 450 452
f 49 182 185
f 402 397 107
f 52 199 218
f 416 610 110
f 225 236 244
f 107 397 398
f 68 252 253
f 322 85 321
f 182 181 183
f 118 438 439
f 546 438 118
f 348 77 345
f 543 546 118
f 231 212 232
f 610 611 157
f 33 438 545
f 385 386 103
f 479 480 130
f 169 195 15
f 93 583 349
f 15 195 206
f 190 44 192
f 247 248 66
f 146 552 545
f 248 60 245
f 570 557 564
f 274 271 43
f 63 253 233
f 272 21 249
f 507 528 518
f 67 273 249
f 487 467 126
f 196 195 169
f 624 159 623
f 134 496 497
f 132 503 488
f 104 393 395
f 556 553 89
f 355 356 94
f 258 69 257
f 229 61 227
f 56 231 227
f 460 576 335
f 463 124 461
f 394 373 99
f 29 393 391
f 67 250 245
f 193 198 196
f 462 36 464
f 144 633 630
f 141 526 527
f 517 133 498
f 536 144 630
f 100 372 599
f 144 536 537
f 22 289 287
f 578 579 152
f 579 578 576
f 189 188 187
f 60 223 224
f 92 348 350
f 555 554 447
f 396 377 388
f 194 193 165
f 413 536 630
f 372 352 599
f 377 376 375
f 348 345 350
f 105 386 387
f 240 237 234
f 463 462 464
f 135 500 494
f 45 196 169
f 512 612 387
f 245 60 220
f 429 115 456
f 223 60 248
f 288 289 76
f 525 526 142
f 100 599 601
f 613 29 391
f 526 523 520
f 341 328 343
f 631 641 639
f 264 21 282
f 266 72 265
f 106 402 403
f 73 273 274
f 186 206 205
f 381 379 383
f 52 216 195
f 410 18 399
f 290 272 73
f 72 371 374
f 526 525 527
f 115 430 424
f 498 497 496
f 621 382 29
f 543 118 434
f 214 215 57
f 522 141 530
f 511 510 509
f 352 94 599
f 493 512 7
f 90 340 341
f 169 171 170
f 605 604 606
f 219 60 224
f 104 389 392
f 359 469 3
f 186 49 185
f 222 219 224
f 166 167 44
f 428 427 426
f 523 522 524
f 129 502 481
f 50 185 188
f 164 45 170
f 425 115 424
f 33 428 426
f 427 428 113
f 94 356 602
f 515 138 513
f 114 431 452
f 237 236 238
f 215 217 57
f 95 354 355
f 220 60 219
f 515 514 516
f 183 320 319
f 222 197 53
f 559 569 567
f 300 320 6
f 435 436 117
f 96 360 363
f 640 642 641
f 242 243 62
f 140 537 519
f 508 130 505
f 420 410 399
f 537 539 144
f 317 316 318
f 426 114 450
f 186 15 206
f 311 83 310
f 625 544 307
f 544 10 307
f 168 43 167
f 185 182 188
f 369 354 95
f 44 171 192
f 605 606 156
f 548 549 146
f 100 601 375
f 149 568 569
f 381 380 382
f 455 466 35
f 480 479 454
f 543 548 546
f 493 133 513
f 492 472 37
f 477 125 476
f 491 487 126
f 337 336 338
f 588 153 587
f 576 578 91
f 633 161 632
f 96 359 360
f 39 485 483
f 101 617 378
f 193 45 165
f 163 164 43
f 618 624 611
f 507 136 528
f 561 149 560
f 641 162 639
f 116 561 558
f 494 133 493
f 253 252 233
f 63 237 238
f 392 393 104
f 440 450 117
f 93 581 583
f 386 385 387
f 120 449 451
f 421 422 111
f 486 3 467
f 302 81 317
f 633 632 630
f 462 475 36
f 376 99 374
f 489 490 131
f 447 449 448
f 387 612 105
f 106 420 399
f 173 46 172
f 492 491 472
f 316 306 295
f 22 287 347
f 109 410 420
f 507 39 483
f 559 23 313
f 214 57 211
f 196 45 193
f 10 434 432
f 422 106 403
f 626 160 640
f 487 486 467
f 542 41 532
f 400 106 399
f 444 120 452
f 198 199 52
f 475 127 474
f 621 620 382
f 621 623 159
f 450 114 452
f 92 347 348
f 376 100 375
f 434 118 433
f 503 132 502
f 337 90 336
f 537 536 519
f 395 393 380
f 201 54 200
f 171 44 170
f 355 94 353
f 58 296 213
f 422 420 106
f 595 365 596
f 569 568 570
f 523 140 520
f 114 430 431
f 218 210 57
f 304 566 80
f 639 162 638
f 261 371 72
f 548 147 547
f 498 133 497
f 150 570 564
f 222 224 59
f 142 526 520
f 437 436 435
f 141 522 523
f 137 510 505
f 173 179 176
f 559 149 569
f 121 447 448
f 563 320 300
f 102 395 380
f 257 255 253
f 642 162 641
f 83 311 314
f 216 52 218
f 512 493 513
f 23 304 302
f 91 339 340
f 512 138 612
f 159 620 621
f 218 199 210
f 364 28 575
f 83 318 310
f 168 274 43
f 136 530 528
f 140 523 524
f 495 135 494
f 233 235 234
f 566 563 80
f 25 339 577
f 277 74 276
f 475 462 477
f 133 494 497
f 436 437 116
f 389 386 392
f 548 146 546
f 441 460 5
f 10 309 307
f 65 397 400
f 543 434 544
f 640 641 161
f 272 273 73
f 581 93 346
f 419 421 111
f 319 320 86
f 180 179 178
f 127 475 477
f 231 229 227
f 337 334 340
f 136 508 510
f 308 309 84
f 237 63 234
f 447 554 34
f 252 379 378
f 315 83 314
f 608 622 616
f 338 336 26
f 337 338 89
f 13 275 168
f 209 208 207
f 436 439 117
f 628 312 629
f 360 366 363
f 364 574 96
f 359 361 360
f 466 446 35
f 500 501 134
f 406 109 421
f 135 589 591
f 601 599 602
f 340 90 337
f 481 492 37
f 522 41 524
f 78 316 295
f 131 486 487
f 403 32 414
f 634 626 640
f 151 572 573
f 515 516 138
f 8 252 378
f 265 72 374
f 9 521 519
f 538 549 42
f 368 358 347
f 588 587 586
f 458 453 123
f 589 385 103
f 502 492 481
f 32 416 414
f 430 427 424
f 153 585 587
f 540 144 539
f 370 368 92
f 209 293 58
f 428 33 535
f 326 581 346
f 625 307 82
f 575 28 582
f 6 181 200
f 421 109 420
f 553 121 443
f 160 642 640
f 153 584 585
f 309 432 558
f 334 337 89
f 23 315 313
f 271 163 43
f 296 295 213
f 39 498 496
f 118 439 433
f 531 113 534
f 293 296 58
f 28 362 351
f 489 131 487
f 431 444 452
f 84 558 560
f 98 366 360
f 45 169 170
f 379 101 378
f 462 463 125
f 308 84 314
f 10 432 309
f 299 24 310
f 132 492 502
f 512 387 7
f 639 638 408
f 565 323 86
f 59 244 242
f 106 400 402
f 440 33 426
f 566 565 563
f 617 398 378
f 224 225 59
f 410 109 409
f 239 400 399
f 194 219 53
f 358 22 347
f 610 157 609
f 27 595 603
f 479 484 482
f 142 520 521
f 585 25 577
f 339 578 577
f 408 407 406
f 407 109 406
f 31 408 406
f 407 408 108
f 31 639 408
f 419 31 406
f 608 616 40
f 430 429 431
f 455 35 429
f 35 444 431
f 188 51 187
f 188 182 51
f 51 322 187
f 322 51 319
f 51 182 183
f 319 51 183
f 187 322 321
f 322 319 324
f 381 101 379
f 405 407 108
f 404 405 108
f 286 285 178
f 407 405 409
f 109 407 409
f 191 175 47
f 167 164 170
f 50 184 185
f 44 167 170
f 64 244 236
f 243 244 64
f 50 188 189
f 541 542 145
f 442 445 119
f 339 91 578
f 445 446 119
f 624 623 622
f 611 624 157
f 523 526 141
f 141 527 529
f 527 514 529
f 445 120 444
f 446 445 444
f 35 446 444
f 613 614 158
f 158 614 615
f 623 613 158
f 614 613 391
f 614 612 615
f 371 376 374
f 100 376 371
f 479 482 123
f 373 394 384
f 540 42 634
f 633 540 634
f 538 42 540
f 633 634 161
f 161 634 640
f 42 626 634
f 540 633 144
f 557 556 338
f 553 333 89
f 262 21 264
f 251 21 262
f 5 335 333
f 270 251 262
f 21 251 249
f 600 593 30
f 606 593 600
f 600 30 375
f 593 390 30
f 30 377 375
f 390 388 30
f 30 388 377
f 228 243 241
f 470 478 459
f 470 127 478
f 127 477 478
f 184 186 185
f 478 477 476
f 122 478 476
f 357 74 280
f 518 39 507
f 344 342 85
f 325 344 85
f 342 344 343
f 85 342 321
f 344 90 343
f 90 344 336
f 482 129 481
f 482 481 457
f 482 457 123
f 481 37 457
f 449 447 34
f 435 449 34
f 470 472 471
f 472 470 37
f 470 471 127
f 472 126 471
f 126 468 471
f 470 459 37
f 491 126 472
f 504 129 485
f 221 59 242
f 125 463 465
f 437 34 562
f 561 437 562
f 554 568 562
f 34 554 562
f 437 561 116
f 390 103 389
f 103 386 389
f 392 105 391
f 572 586 580
f 572 580 36
f 586 152 580
f 473 572 36
f 244 243 242
f 225 244 59
f 64 240 241
f 240 239 241
f 237 240 64
f 243 64 241
f 236 237 64
f 411 607 521
f 9 411 521
f 110 607 411
f 607 142 521
f 610 607 110
f 171 15 184
f 171 169 15
f 15 186 184
f 87 584 581
f 153 588 582
f 588 575 582
f 381 102 380
f 573 572 473
f 468 469 128
f 474 468 128
f 469 571 128
f 571 573 128
f 573 473 128
f 473 474 128
f 564 323 565
f 26 323 564
f 323 324 86
f 325 323 26
f 325 324 323
f 563 565 86
f 324 325 85
f 410 230 18
f 230 228 18
f 18 228 241
f 18 241 239
f 401 619 618
f 401 402 107
f 403 402 401
f 619 159 618
f 401 618 32
f 619 401 107
f 403 401 32
f 618 611 32
f 159 624 618
f 478 122 459
f 122 458 459
f 37 459 457
f 459 458 457
f 122 456 458
f 457 458 123
f 191 190 192
f 485 129 484
f 129 482 484
f 483 485 484
f 130 483 484
f 189 187 14
f 191 50 189
f 191 189 175
f 189 14 175
f 14 177 175
f 499 501 500
f 501 499 38
f 38 499 590
f 135 499 500
f 488 501 38
f 499 135 591
f 480 454 4
f 284 12 346
f 4 423 506
f 480 4 506
f 423 531 506
f 480 506 505
f 531 137 506
f 506 137 505
f 365 366 98
f 71 270 262
f 270 71 269
f 71 267 269
f 335 334 333
f 333 334 89
f 334 335 91
f 536 9 519
f 465 463 461
f 537 140 541
f 520 140 519
f 119 446 465
f 465 461 119
f 461 441 119
f 460 441 461
f 176 46 173
f 299 297 24
f 71 263 266
f 263 260 266
f 260 72 266
f 263 70 260
f 205 201 49
f 201 181 49
f 186 205 49
f 181 201 200
f 181 182 49
f 284 77 283
f 586 587 152
f 588 586 151
f 20 267 265
f 266 267 71
f 31 417 631
f 631 417 632
f 31 631 639
f 417 31 419
f 641 631 161
f 417 112 632
f 161 631 632
f 418 417 419
f 417 418 112
f 284 345 77
f 542 550 145
f 542 541 524
f 284 174 12
f 48 174 283
f 373 20 265
f 373 265 374
f 609 608 525
f 608 157 622
f 560 559 313
f 636 637 162
f 541 140 524
f 41 542 524
f 358 357 280
f 70 263 264
f 263 262 264
f 176 177 46
f 174 48 173
f 174 173 172
f 538 551 549
f 538 540 539
f 537 541 539
f 232 221 242
f 17 221 232
f 232 242 62
f 231 232 62
f 203 205 55
f 203 55 202
f 201 205 203
f 202 55 217
f 205 206 55
f 204 203 202
f 73 275 292
f 292 290 73
f 272 290 282
f 290 292 291
f 75 290 291
f 290 75 282
f 70 277 259
f 277 70 281
f 277 281 279
f 260 70 259
f 12 174 172
f 104 396 388
f 367 27 354
f 365 27 367
f 354 27 356
f 365 367 366
f 595 27 365
f 318 299 310
f 155 596 597
f 155 597 598
f 596 594 597
f 595 596 155
f 605 595 155
f 180 47 179
f 180 190 47
f 352 372 11
f 11 372 261
f 312 310 24
f 642 636 162
f 636 297 637
f 367 369 97
f 366 367 97
f 369 367 354
f 369 370 97
f 580 579 464
f 580 152 579
f 579 124 464
f 61 230 409
f 230 410 409
f 230 61 229
f 230 229 228
f 76 285 286
f 353 352 276
f 74 353 276
f 288 76 286
f 288 286 283
f 289 288 287
f 203 54 201
f 287 288 77
f 77 288 283
f 286 48 283
f 531 423 113
f 276 11 259
f 11 261 259
f 277 276 259
f 616 158 615
f 516 616 615
f 138 516 615
f 138 615 612
f 509 533 532
f 503 502 504
f 635 79 294
f 635 294 404
f 635 637 79
f 637 635 638
f 638 635 108
f 635 404 108
f 226 61 405
f 61 226 227
f 405 61 409
f 227 226 207
f 48 178 179
f 48 286 178
f 173 48 179
f 534 143 533
f 534 535 143
f 531 534 533
f 533 143 532
f 137 531 533
f 261 372 371
f 13 180 178
f 285 13 178
f 180 13 166
f 13 168 166
f 346 345 284
f 331 327 46
f 46 327 172
f 172 327 326
f 382 620 101
f 442 121 448
f 443 121 442
f 2 226 404
f 294 2 404
f 404 226 405
f 207 226 2
f 550 551 145
f 552 146 551
f 143 550 532
f 552 550 143
f 330 329 328
f 24 636 629
f 94 352 353
f 352 11 276
f 113 428 534
f 428 535 534
f 509 41 511
f 535 552 143
f 550 552 551
f 550 542 532
f 369 95 368
f 326 327 87
f 87 327 329
f 327 331 329
f 581 326 87
f 293 79 298
f 79 297 298
f 296 298 78
f 79 293 294
f 296 293 298
f 598 490 38
f 358 280 22
f 280 279 278
f 357 358 95
f 74 357 353
f 330 328 25
f 567 23 559
f 590 598 38
f 590 604 598
f 598 604 155
f 604 590 154
f 590 591 154
f 604 154 606
f 297 299 298
f 299 318 78
f 298 299 78
f 355 354 356
f 629 636 642
f 312 24 629
f 629 642 160
f 370 362 97
f 362 363 97
f 363 366 97
f 364 363 362
f 362 370 351
f 96 363 364
f 297 636 24
f 162 637 638
f 637 297 79
f 490 488 38
f 598 597 490
f 441 442 119
f 443 442 441
f 443 441 5
f 442 448 445
f 296 78 295
f 326 12 172
f 575 574 364
f 47 175 176
f 175 177 176
f 47 176 179
