# FEM surface export ¡ª frame 208
# Vertices: 642  Faces: 1280
v -0.52622223 1.64686143 -0.00002748
v 0.52614176 1.64654338 -0.00002699
v -0.56552774 0.00118679 0.00057669
v 0.55655336 0.00000000 -0.00042224
v -0.00051976 0.27840519 0.87158906
v -0.00022238 1.32283652 0.85206532
v -0.00057294 0.27949190 -0.87344980
v 0.00003754 1.32237470 -0.85168928
v 0.85495871 0.80010104 -0.52838999
v 0.85468924 0.79958916 0.52787620
v -0.85499978 0.80050117 -0.52869248
v -0.85485625 0.79986650 0.52819592
v -0.81028163 1.29658949 0.30958471
v -0.50112152 1.10659599 0.81060517
v -0.30930820 1.60510218 0.50041807
v 0.30932489 1.60512924 0.50046551
v 0.00005167 1.79584146 -0.00001746
v 0.30933231 1.60501599 -0.50043041
v -0.30923587 1.60523868 -0.50047839
v -0.50096768 1.10635161 -0.81079793
v -0.81029546 1.29694510 -0.30951366
v -1.00412703 0.79891419 -0.00013178
v 0.50158590 1.10689366 0.81104928
v 0.81016731 1.29650068 0.30936229
v -0.50751060 0.49503869 0.82178009
v -0.00015118 0.79945165 1.00497282
v -0.82879674 0.30643103 -0.31649837
v -0.82829148 0.30569488 0.31772289
v -0.00013130 0.80036396 -1.00523257
v -0.50615835 0.49382925 -0.81996304
v 0.81014442 1.29666853 -0.30946961
v 0.50084853 1.10626352 -0.81044376
v 0.83153039 0.30471629 0.31635541
v 0.50737011 0.49402937 0.82070708
v 0.32853636 0.02215942 0.52739692
v -0.32729971 0.02108153 0.52827901
v -0.00389262 0.00000000 0.00228776
v -0.32540104 0.02140974 -0.52719408
v 0.32808656 0.02393059 -0.52940083
v 0.50716841 0.49430954 -0.82037127
v 0.83096212 0.30559424 -0.31716853
v 1.00523031 0.79979712 0.00046006
v -0.69456190 1.49833167 0.16085321
v -0.58848023 1.48456049 0.42585453
v -0.43431643 1.65878356 0.26008981
v -0.70404631 0.95906693 0.69559580
v -0.68927580 1.22214758 0.58874720
v -0.86465299 1.05743015 0.43491143
v -0.16079547 1.49008918 0.70270175
v -0.42595184 1.38424659 0.68898326
v -0.26045862 1.23111534 0.86410183
v -0.16249064 1.74694943 0.26306066
v -0.27338517 1.75785339 0.00000677
v 0.16079432 1.48997581 0.70272899
v 0.00004271 1.64659202 0.52611017
v 0.27346703 1.75775075 0.00001608
v 0.16265629 1.74703050 0.26310292
v 0.43429068 1.65861404 0.26009583
v -0.16250597 1.74695957 -0.26308221
v -0.43424174 1.65886915 -0.26013198
v 0.43424591 1.65857446 -0.26011482
v 0.16260172 1.74693084 -0.26307726
v -0.16065770 1.48992836 -0.70267838
v 0.00012132 1.64662468 -0.52615166
v 0.16089827 1.48983693 -0.70273399
v -0.58839488 1.48461306 -0.42578053
v -0.69448173 1.49832594 -0.16083743
v -0.26030686 1.23073697 -0.86403900
v -0.42572939 1.38432145 -0.68899173
v -0.86485749 1.05785942 -0.43507192
v -0.68919200 1.22245479 -0.58893645
v -0.70415276 0.95912224 -0.69602609
v -0.85201621 1.32253432 0.00012228
v -0.96642292 0.79971665 -0.27493742
v -0.95372385 1.06069446 -0.16285223
v -0.95350105 1.06025994 0.16299108
v -0.96618468 0.79911339 0.27450067
v 0.58846289 1.48429418 0.42571032
v 0.69442230 1.49811983 0.16063403
v 0.26045629 1.23057878 0.86427021
v 0.42582479 1.38415539 0.68897545
v 0.86472702 1.05738091 0.43497631
v 0.68960381 1.22225893 0.58860964
v 0.70431173 0.95869547 0.69533008
v -0.26369423 0.96102118 0.95418274
v -0.00014539 1.07105613 0.96440220
v -0.70864612 0.64139694 0.69988519
v -0.52858716 0.80063927 0.85482311
v -0.00026394 0.52861941 0.97368634
v -0.26540953 0.63915306 0.95989084
v -0.26525036 0.36995128 0.88118261
v -0.96132243 0.53932589 0.16450466
v -0.87235266 0.54237992 0.43897000
v -0.87221849 0.54352719 -0.43936488
v -0.96240592 0.54005915 -0.16476996
v -0.72757971 0.11200510 0.17009741
v -0.87248206 0.28149843 -0.00022679
v -0.72519851 0.11007823 -0.16739857
v -0.52845907 0.79969972 -0.85531282
v -0.70794123 0.64120620 -0.70011830
v -0.00005367 1.07124960 -0.96424288
v -0.26364917 0.96094775 -0.95426899
v -0.26567915 0.36935446 -0.88020700
v -0.26448762 0.63847345 -0.95855230
v 0.00033608 0.53011650 -0.97366315
v 0.42578486 1.38390684 -0.68884116
v 0.26046309 1.23057413 -0.86378986
v 0.69431978 1.49798226 -0.16080473
v 0.58833587 1.48417044 -0.42559239
v 0.70401031 0.95916462 -0.69593960
v 0.68916440 1.22228348 -0.58867592
v 0.86491764 1.05772924 -0.43507665
v 0.72650635 0.10702566 0.16697559
v 0.61618674 0.12200449 0.44422856
v 0.46235970 0.00000000 0.28045142
v 0.70849967 0.64102447 0.69978482
v 0.70201933 0.37819099 0.60064948
v 0.87160289 0.54192549 0.43845400
v 0.16570707 0.11539680 0.72859979
v 0.43864653 0.21809590 0.71116120
v 0.26457182 0.37045830 0.88086367
v 0.17385192 0.00000000 0.28321856
v 0.28889194 0.00000000 -0.00475554
v -0.16679144 0.11656447 0.72877872
v 0.00197124 0.00027570 0.56171656
v -0.29603922 0.00000000 -0.00039309
v -0.17434004 0.00000000 0.28131881
v -0.46164832 0.00000000 0.27812615
v 0.17179015 0.00000000 -0.28329340
v 0.46225819 0.00000000 -0.27537721
v -0.46299949 0.00000000 -0.27870792
v -0.17420925 0.00000000 -0.28363800
v 0.16712965 0.11649737 -0.73487282
v -0.00175247 0.00048476 -0.55781931
v -0.16665895 0.11430804 -0.73160696
v 0.61410958 0.12249006 -0.44382069
v 0.72522700 0.10692559 -0.16848668
v 0.26554427 0.36986589 -0.88056499
v 0.43781522 0.22017968 -0.71120888
v 0.87289512 0.54274338 -0.43887204
v 0.70250082 0.37949523 -0.60041940
v 0.70817089 0.64126289 -0.70008039
v 0.87468493 0.27853742 -0.00140028
v 0.96707773 0.80004054 -0.27465633
v 0.96208745 0.53962845 -0.16439025
v 0.96036214 0.53859669 0.16369958
v 0.96576577 0.79898787 0.27461845
v 0.26497149 0.63893938 0.95886058
v 0.52881026 0.80006838 0.85451877
v 0.26370445 0.96094143 0.95443797
v -0.61231774 0.12378092 0.44486508
v -0.43940020 0.21905650 0.71243000
v -0.70177662 0.37911600 0.60077304
v -0.44184217 0.21754780 -0.71358556
v -0.61436647 0.12347338 -0.44391119
v -0.70222545 0.37841710 -0.59981704
v 0.52810836 0.79959035 -0.85453933
v 0.26518109 0.64007711 -0.95977825
v 0.26379958 0.96100831 -0.95395660
v 0.95325732 1.06047869 0.16312410
v 0.95342749 1.06060648 -0.16265213
v 0.85165995 1.32219076 -0.00001811
v -0.61621875 1.58003020 0.08119719
v -0.57180756 1.58882642 0.21323116
v -0.48482314 1.66099679 0.13130905
v -0.70812160 1.39796615 0.37222913
v -0.64816517 1.49869788 0.29642129
v -0.75961727 1.40320182 0.23744173
v -0.37542552 1.64002764 0.38398644
v -0.51662391 1.57967556 0.34652761
v -0.45443854 1.55417728 0.46896645
v -0.78677523 0.88016826 0.61788386
v -0.79467046 1.01119053 0.57275432
v -0.86761528 0.92971283 0.48601362
v -0.60260123 1.16889501 0.70830536
v -0.70367283 1.09348226 0.64872366
v -0.60814047 1.03498542 0.76007646
v -0.84542674 1.18041611 0.37577721
v -0.78496063 1.14346933 0.51708007
v -0.75910330 1.26503956 0.45461959
v -0.08122445 1.41230798 0.78471947
v -0.21337278 1.36789906 0.79368758
v -0.13156049 1.28139877 0.86637956
v -0.37213689 1.50336134 0.60209560
v -0.29638991 1.44386423 0.70304573
v -0.23728923 1.55476260 0.60732317
v -0.38435760 1.17229581 0.84536791
v -0.34672469 1.31299484 0.78458011
v -0.46923941 1.25085461 0.75912482
v -0.64745384 1.36072814 0.51410842
v -0.56507689 1.31001318 0.64746386
v -0.51399100 1.44298470 0.56488657
v -0.35847473 1.72022009 0.13176849
v -0.40359458 1.71098650 0.00001802
v -0.23879012 1.68702781 0.38653511
v -0.30150124 1.71220279 0.26429102
v -0.13800029 1.78649473 -0.00001254
v -0.22019593 1.76221800 0.13288267
v -0.08222696 1.78364217 0.13313423
v 0.08116479 1.41214776 0.78465557
v 0.00002410 1.49920523 0.71186441
v 0.15656264 1.63608599 0.51962715
v 0.08123423 1.57624948 0.62064111
v 0.23730011 1.55468464 0.60737604
v -0.08112357 1.57626116 0.62067318
v -0.15650497 1.63625145 0.51967639
v 0.40370402 1.71088994 0.00002478
v 0.35854396 1.72012269 0.13178483
v 0.48482999 1.66084599 0.13127172
v 0.08237994 1.78351033 0.13317023
v 0.22035556 1.76230133 0.13292633
v 0.13810854 1.78639185 0.00001575
v 0.37539500 1.63983202 0.38389513
v 0.30157843 1.71219695 0.26433000
v 0.23888624 1.68690062 0.38647670
v -0.08230592 1.70896912 0.39996710
v 0.08239049 1.70883381 0.39981538
v 0.00007325 1.75980270 0.26659146
v -0.35844177 1.72024786 -0.13175496
v -0.48481390 1.66103232 -0.13133775
v -0.08224294 1.78359127 -0.13320510
v -0.22024770 1.76238143 -0.13294370
v -0.37528011 1.64003909 -0.38395432
v -0.30143604 1.71223354 -0.26428238
v -0.23880175 1.68703771 -0.38648969
v 0.48482707 1.66085517 -0.13131388
v 0.35853842 1.72019529 -0.13173941
v 0.23891775 1.68693018 -0.38650554
v 0.30152065 1.71213591 -0.26431257
v 0.37537140 1.63984287 -0.38393700
v 0.22028910 1.76227641 -0.13289517
v 0.08232772 1.78356099 -0.13318375
v -0.08110289 1.41202986 -0.78466594
v 0.00009891 1.49901891 -0.71195024
v 0.08125588 1.41185546 -0.78462529
v -0.15645717 1.63619328 -0.51967335
v -0.08105356 1.57629883 -0.62076783
v -0.23719169 1.55477655 -0.60734367
v 0.23739067 1.55464697 -0.60737574
v 0.08135507 1.57625973 -0.62079543
v 0.15665016 1.63610840 -0.51965624
v 0.00003719 1.75973749 -0.26660001
v 0.08246982 1.70889986 -0.39987755
v -0.08229703 1.70894277 -0.39991274
v -0.57172531 1.58886445 -0.21327668
v -0.61624134 1.58006096 -0.08115727
v -0.45431694 1.55413806 -0.46887553
v -0.51657867 1.57977712 -0.34653276
v -0.75964254 1.40348256 -0.23743168
v -0.64811212 1.49869061 -0.29637370
v -0.70804822 1.39811587 -0.37225556
v -0.13136990 1.28137982 -0.86617917
v -0.21322328 1.36775589 -0.79365689
v -0.46911499 1.25085962 -0.75906646
v -0.34654984 1.31280088 -0.78451127
v -0.38433266 1.17227733 -0.84543902
v -0.29622281 1.44381225 -0.70315278
v -0.37199795 1.50345659 -0.60214281
v -0.86805177 0.93021315 -0.48629612
v -0.79495007 1.01147389 -0.57305503
v -0.78681928 0.88039249 -0.61829561
v -0.75907791 1.26545203 -0.45486170
v -0.78500199 1.14374650 -0.51732588
v -0.84561539 1.18103254 -0.37582800
v -0.60827863 1.03493869 -0.76077342
v -0.70387036 1.09365487 -0.64904535
v -0.60253990 1.16866469 -0.70848793
v -0.51383400 1.44300139 -0.56493241
v -0.56502336 1.31005394 -0.64761955
v -0.64734340 1.36088240 -0.51405925
v -0.70371109 1.50767350 0.00005973
v -0.84156984 1.31620228 -0.15669772
v -0.78122491 1.41677427 -0.08121635
v -0.78115088 1.41667628 0.08129670
v -0.84142888 1.31596661 0.15679085
v -0.91952604 0.80013388 -0.40552273
v -0.92756528 0.93053907 -0.35946038
v -0.99119359 0.93149364 -0.08240906
v -0.96947312 0.93119979 -0.22082159
v -0.99511909 0.79931390 -0.13863629
v -0.91855854 1.06197381 -0.30201864
v -0.89284182 1.18350625 -0.23913285
v -0.92736393 0.93006134 0.35953021
v -0.91949141 0.79955029 0.40547806
v -0.89277595 1.18316090 0.23921528
v -0.91841704 1.06144989 0.30200791
v -0.99485731 0.79897565 0.13855526
v -0.96950418 0.93063843 0.22090912
v -0.99090272 0.93116003 0.08256188
v -0.91500491 1.19695270 -0.08239765
v -0.96650296 1.06406236 0.00017890
v -0.91491228 1.19671786 0.08262498
v 0.57174724 1.58872294 0.21316223
v 0.61609977 1.57974064 0.08104232
v 0.45440310 1.55399501 0.46887639
v 0.51658499 1.57950556 0.34641835
v 0.75947708 1.40302610 0.23726325
v 0.64807701 1.49846435 0.29624093
v 0.70802671 1.39788675 0.37214196
v 0.13139360 1.28132021 0.86657619
v 0.21328287 1.36753583 0.79355478
v 0.46941009 1.25103891 0.75924039
v 0.34662241 1.31263208 0.78453135
v 0.38448736 1.17206240 0.84542662
v 0.29623222 1.44346201 0.70300674
v 0.37206331 1.50312567 0.60203767
v 0.86755878 0.92933822 0.48555684
v 0.79464805 1.01051223 0.57220942
v 0.78694975 0.88003623 0.61749786
v 0.75920886 1.26514554 0.45459905
v 0.78515846 1.14325643 0.51694185
v 0.84536988 1.18046451 0.37565714
v 0.60901344 1.03511775 0.76054144
v 0.70415092 1.09334099 0.64835298
v 0.60320979 1.16910863 0.70845985
v 0.51402861 1.44278824 0.56487411
v 0.56525111 1.31018960 0.64744186
v 0.64753908 1.36068726 0.51396900
v -0.13207339 1.15572953 0.92633116
v -0.00012171 1.20054162 0.91682494
v -0.38718569 1.03680682 0.89329273
v -0.26478070 1.09912384 0.91833836
v -0.00012799 0.93656218 0.99396396
v -0.13323149 1.01826704 0.96909136
v -0.13371350 0.88117015 0.99169570
v -0.78925520 0.71966147 0.61958832
v -0.71509188 0.80019778 0.70627987
v -0.52413046 0.64586592 0.84831077
v -0.62454718 0.72025865 0.78516889
v -0.61407346 0.56614077 0.76801991
v -0.62240249 0.88037908 0.78266567
v -0.52086878 0.95504415 0.84260255
v -0.00037608 0.39922401 0.93156630
v -0.13420632 0.44443649 0.93868011
v -0.13364995 0.31846997 0.88532329
v -0.13416113 0.71821767 0.99409717
v -0.13444336 0.58123600 0.97620505
v -0.00073433 0.66280991 0.99802059
v -0.39112121 0.42905116 0.85924560
v -0.26813474 0.50149608 0.92946106
v -0.39074266 0.56414253 0.90213168
v -0.40143695 0.88156760 0.91676700
v -0.40296155 0.71889979 0.92017591
v -0.26790878 0.80007476 0.96932524
v -0.93117487 0.66949642 0.36100090
v -0.87134033 0.66951191 0.48795953
v -0.99474049 0.66779310 0.08297095
v -0.97321999 0.66799259 0.22169439
v -0.85866839 0.42050743 0.38208494
v -0.92666996 0.53843218 0.30495736
v -0.90550125 0.41786268 0.24320988
v -0.87141532 0.67084402 -0.48862913
v -0.93138641 0.66994905 -0.36155033
v -0.90667057 0.41857582 -0.24295269
v -0.92667127 0.53918725 -0.30510461
v -0.85849929 0.42093810 -0.38189116
v -0.97377121 0.66867876 -0.22222762
v -0.99536026 0.66782504 -0.08317970
v -0.65294230 0.04094093 0.08601885
v -0.73547900 0.10331457 0.00123249
v -0.65136415 0.04101221 -0.08549055
v -0.86185813 0.28890842 0.16087236
v -0.80768287 0.18975170 0.08513938
v -0.78615665 0.20206448 0.24672264
v -0.78231740 0.20059487 -0.24526843
v -0.80750722 0.18836607 -0.08405001
v -0.86089611 0.28655937 -0.16104466
v -0.97547287 0.53633064 0.00001244
v -0.92962575 0.40529987 -0.08432886
v -0.93037772 0.40554973 0.08298250
v -0.71458989 0.80013698 -0.70652801
v -0.78889197 0.72004843 -0.61998892
v -0.52092594 0.95445853 -0.84292012
v -0.62256104 0.88004744 -0.78314853
v -0.61314559 0.56517845 -0.76694655
v -0.62402344 0.71946990 -0.78570944
v -0.52314723 0.64466107 -0.84736729
v 0.00007607 1.20061636 -0.91654497
v -0.13188009 1.15572596 -0.92613834
v -0.13368884 0.88139468 -0.99153477
v -0.13319440 1.01841414 -0.96917254
v -0.00013688 0.93698269 -0.99394965
v -0.26473150 1.09893072 -0.91847408
v -0.38725808 1.03671956 -0.89340103
v -0.13470413 0.32004410 -0.88712513
v -0.13418828 0.44516072 -0.93931592
v 0.00008795 0.40115499 -0.93257946
v -0.38939995 0.56299770 -0.90031427
v -0.26727793 0.50118196 -0.92816454
v -0.39002773 0.42782781 -0.85877496
v 0.00004799 0.66376227 -0.99864960
v -0.13366610 0.58184242 -0.97519112
v -0.13391446 0.71841198 -0.99405533
v -0.40112421 0.88139975 -0.91711760
v -0.26762015 0.79958260 -0.96857649
v -0.40203768 0.71810150 -0.91937286
v 0.21335663 1.36762106 -0.79356641
v 0.13147892 1.28109646 -0.86610663
v 0.37219962 1.50315285 -0.60208809
v 0.29640004 1.44350159 -0.70304674
v 0.38425717 1.17187679 -0.84510416
v 0.34662414 1.31232440 -0.78425956
v 0.46903476 1.25059795 -0.75889975
v 0.61614847 1.57980931 -0.08120118
v 0.57173473 1.58863378 -0.21320528
v 0.70777339 1.39772987 -0.37199625
v 0.64799482 1.49823546 -0.29623440
v 0.75931847 1.40293372 -0.23724316
v 0.51657170 1.57940865 -0.34638757
v 0.45438269 1.55394709 -0.46886164
v 0.78683084 0.88055825 -0.61802703
v 0.79491019 1.01158142 -0.57301623
v 0.86807823 0.93023801 -0.48636514
v 0.60245252 1.16886592 -0.70826870
v 0.70355982 1.09341824 -0.64877915
v 0.60817772 1.03503203 -0.76056063
v 0.84545052 1.18087304 -0.37592480
v 0.78482866 1.14358592 -0.51716453
v 0.75889444 1.26534319 -0.45464706
v 0.51388699 1.44258690 -0.56473595
v 0.64719582 1.36062121 -0.51385784
v 0.56494969 1.30990243 -0.64734560
v 0.64970350 0.03989915 0.08669706
v 0.60606998 0.03259516 0.22683582
v 0.51622218 0.00000000 0.14116770
v 0.73235857 0.20700349 0.38338116
v 0.67946631 0.11036972 0.30850399
v 0.78589374 0.20031601 0.24371319
v 0.40417039 0.00370677 0.40957990
v 0.54872811 0.04319800 0.36695224
v 0.48097682 0.06422655 0.49500003
v 0.78873372 0.71943021 0.61915857
v 0.80099732 0.58861935 0.57686597
v 0.87132674 0.66940057 0.48789385
v 0.61240315 0.43193468 0.71972048
v 0.71134245 0.50703043 0.65573895
v 0.61359876 0.56563342 0.76717001
v 0.85703814 0.42025140 0.38109225
v 0.79450178 0.45677432 0.52373278
v 0.77574098 0.33484745 0.46529657
v 0.08225136 0.19052972 0.80739087
v 0.21755318 0.23375033 0.81665117
v 0.13384095 0.31956527 0.88389081
v 0.38743818 0.10517747 0.62875432
v 0.30594879 0.16197310 0.72908723
v 0.24867037 0.06071629 0.63413030
v 0.38981530 0.42832476 0.85871977
v 0.35460284 0.28890431 0.80424547
v 0.47828990 0.35012415 0.77429622
v 0.66672283 0.24104685 0.52936959
v 0.57918507 0.29158261 0.66433764
v 0.53350604 0.16328496 0.58878970
v 0.38162312 0.00000000 0.13733353
v 0.42972392 0.00000000 -0.00181342
v 0.25613463 0.00000000 0.41415584
v 0.32170808 0.00000000 0.28292945
v 0.14428079 0.00000000 0.00014075
v 0.23058143 0.00000000 0.13966341
v 0.08494508 0.00000000 0.14378116
v -0.08400541 0.18954602 0.80718678
v 0.00232376 0.10637746 0.74024248
v -0.16478787 0.00000000 0.54974443
v -0.08688501 0.04002259 0.65065795
v -0.24852173 0.06283622 0.63604748
v 0.08804020 0.03753829 0.65243459
v 0.16604932 0.00025952 0.54877448
v -0.43267712 0.00000000 -0.00309541
v -0.38739899 0.00000000 0.14047314
v -0.52164823 0.00000000 0.14102165
v -0.09531112 0.00000000 0.14207046
v -0.23961857 0.00000000 0.14345609
v -0.15056905 0.00000000 0.00239429
v -0.39910027 0.00000000 0.40850511
v -0.32334495 0.00000000 0.28383955
v -0.25548762 0.00000000 0.41400507
v 0.08590668 0.00000000 0.42812881
v -0.08804381 0.00000000 0.42897832
v -0.00113370 0.00000000 0.28332216
v 0.37874842 0.00000000 -0.14428388
v 0.51572347 0.00000000 -0.13970849
v 0.08853509 0.00000000 -0.14038172
v 0.23151070 0.00000000 -0.14663278
v 0.39853811 0.00000000 -0.40671477
v 0.31841123 0.00000000 -0.28618035
v 0.25405830 0.00000000 -0.41616413
v -0.51984203 0.00000000 -0.14186478
v -0.38266835 0.00000000 -0.14381145
v -0.25115216 0.00000000 -0.41376564
v -0.32640210 0.00000000 -0.28743169
v -0.39481571 0.00104721 -0.40959868
v -0.23752129 0.00000000 -0.14327435
v -0.08903121 0.00000000 -0.14292784
v 0.08250403 0.19283278 -0.81019366
v -0.00050481 0.10562899 -0.74233449
v -0.08475167 0.19136073 -0.80934179
v 0.16613543 0.00026768 -0.54889679
v 0.08676878 0.04347137 -0.65055090
v 0.24763171 0.05986974 -0.64002275
v -0.24931324 0.06383210 -0.63872540
v -0.08497535 0.03790399 -0.65403825
v -0.16596586 0.00264447 -0.55252522
v 0.00354139 0.00000000 -0.28456262
v -0.08270365 0.00000000 -0.42655560
v 0.09071172 0.00000000 -0.42457521
v 0.60799772 0.03187843 -0.22583884
v 0.65211374 0.03495198 -0.08471326
v 0.48021534 0.05968499 -0.49096066
v 0.54347056 0.03942705 -0.36402562
v 0.78610492 0.20099117 -0.24597670
v 0.67839980 0.10915308 -0.31071892
v 0.73163968 0.20762597 -0.38477173
v 0.13475068 0.32090059 -0.88838083
v 0.21839847 0.23540477 -0.81715298
v 0.47795492 0.35004181 -0.77511287
v 0.35379347 0.28952339 -0.80420560
v 0.39017916 0.42863753 -0.85873109
v 0.30684227 0.16227552 -0.72908276
v 0.38584056 0.10458399 -0.62658739
v 0.87168354 0.67028147 -0.48815510
v 0.80069757 0.58962107 -0.57723588
v 0.78921622 0.72023731 -0.61990690
v 0.77559274 0.33685681 -0.46535501
v 0.79556978 0.45787230 -0.52431178
v 0.85943067 0.42019653 -0.38209343
v 0.61372370 0.56542510 -0.76717305
v 0.71173292 0.50718242 -0.65611094
v 0.61096388 0.43190458 -0.71912098
v 0.52993357 0.16196331 -0.58597022
v 0.57834297 0.29176047 -0.66365302
v 0.66412365 0.24292184 -0.52912766
v 0.73524320 0.09855316 -0.00109461
v 0.86377597 0.28501067 -0.16113028
v 0.80787122 0.18529999 -0.08573057
v 0.80994463 0.18647997 0.08183392
v 0.86268473 0.28411251 0.15886825
v 0.91982275 0.80022269 -0.40550849
v 0.93151289 0.66948533 -0.36093602
v 0.99509060 0.66830742 -0.08283421
v 0.97403574 0.66855252 -0.22183660
v 0.99584305 0.80041522 -0.13838317
v 0.92750019 0.53824568 -0.30494457
v 0.90731257 0.41714483 -0.24309479
v 0.93054867 0.66872448 0.36070564
v 0.91881293 0.79917711 0.40485376
v 0.90485823 0.41692626 0.24159329
v 0.92553532 0.53737915 0.30398542
v 0.99493909 0.79963672 0.13930826
v 0.97247285 0.66758454 0.22133642
v 0.99493492 0.66783810 0.08307770
v 0.92959595 0.40414119 -0.08435422
v 0.97468024 0.53581280 -0.00004266
v 0.92871433 0.40340242 0.08293539
v 0.13327451 0.44497076 0.93929893
v 0.39062604 0.56388652 0.90044165
v 0.26755196 0.50219584 0.92907488
v 0.13380086 0.58167124 0.97638053
v 0.13346051 0.71780103 0.99344307
v 0.71491206 0.79983020 0.70559382
v 0.52177155 0.95517385 0.84288967
v 0.62296534 0.87980795 0.78258127
v 0.62478662 0.72000533 0.78489071
v 0.52400213 0.64527529 0.84735960
v 0.13178627 1.15518355 0.92625189
v 0.13344996 0.88095129 0.99169505
v 0.13298464 1.01795912 0.96932018
v 0.26476991 1.09879315 0.91872740
v 0.38748780 1.03662348 0.89333481
v 0.40208724 0.71831524 0.91828823
v 0.40159258 0.88169450 0.91704756
v 0.26749218 0.79964125 0.96835560
v -0.60778707 0.03568752 0.22919896
v -0.47659588 0.06022242 0.49194050
v -0.54652697 0.03869235 0.36819226
v -0.67844003 0.11070047 0.31170446
v -0.72952187 0.20526376 0.38596171
v -0.21954870 0.23594321 0.81718820
v -0.47959197 0.35117850 0.77619517
v -0.35564941 0.29062065 0.80481619
v -0.30775201 0.16295682 0.73097283
v -0.38880202 0.10722354 0.63005018
v -0.80051482 0.58915472 0.57722771
v -0.77459085 0.33649278 0.46550804
v -0.79559630 0.45744434 0.52478999
v -0.71237123 0.50728464 0.65699255
v -0.61229044 0.43265408 0.72156441
v -0.53266823 0.16266526 0.58723497
v -0.57880098 0.29175803 0.66430902
v -0.66347980 0.24215062 0.52922916
v -0.22013511 0.23482746 -0.81551588
v -0.38987187 0.10586627 -0.62731153
v -0.31017932 0.15757358 -0.73161656
v -0.35539326 0.28817949 -0.80351198
v -0.47890186 0.35036483 -0.77446032
v -0.60484523 0.03385745 -0.22517432
v -0.73114163 0.20628400 -0.38462362
v -0.67618364 0.10903896 -0.31040445
v -0.54103142 0.03790613 -0.36502761
v -0.47816184 0.05806789 -0.49399447
v -0.80040818 0.58972931 -0.57760358
v -0.61112285 0.43225744 -0.71851814
v -0.71198016 0.50684255 -0.65681320
v -0.79495507 0.45763829 -0.52451104
v -0.77433556 0.33681691 -0.46400946
v -0.53362364 0.16061588 -0.58586723
v -0.66611588 0.24144123 -0.53013259
v -0.57912046 0.29179698 -0.66396737
v 0.71488619 0.80020463 -0.70660913
v 0.52371615 0.64531898 -0.84730989
v 0.62422514 0.71987736 -0.78538060
v 0.62248296 0.88038397 -0.78310955
v 0.52065778 0.95466346 -0.84252363
v 0.13414416 0.44597667 -0.93982261
v 0.13389955 0.71887189 -0.99450833
v 0.13419652 0.58253628 -0.97668564
v 0.26791623 0.50258517 -0.92940754
v 0.39066568 0.56407070 -0.90102911
v 0.13200566 1.15547025 -0.92598522
v 0.38714260 1.03643382 -0.89287633
v 0.26471415 1.09856939 -0.91781771
v 0.13320805 1.01849568 -0.96907467
v 0.13336019 0.88177574 -0.99174100
v 0.40224668 0.71861702 -0.91882730
v 0.26761889 0.80025226 -0.96860075
v 0.40108901 0.88103759 -0.91594422
v 0.92709243 0.92992461 0.35935268
v 0.99099475 0.93174791 0.08320606
v 0.96930480 0.93104327 0.22116858
v 0.91850990 1.06178844 0.30211276
v 0.89263570 1.18328977 0.23912594
v 0.92782193 0.93040442 -0.35952619
v 0.89259404 1.18333817 -0.23912334
v 0.91876882 1.06207526 -0.30203882
v 0.96990937 0.93151158 -0.22086304
v 0.99129611 0.93197680 -0.08199010
v 0.70357168 1.50736499 -0.00013738
v 0.84127516 1.31582284 0.15658717
v 0.78102028 1.41648853 0.08115260
v 0.78087205 1.41632187 -0.08120168
v 0.84111160 1.31571615 -0.15655617
v 0.96618462 1.06425714 0.00027308
v 0.91423917 1.19646335 -0.08241273
v 0.91453254 1.19653511 0.08252146
f 330 87 329
f 336 325 26
f 207 208 56
f 464 36 580
f 502 129 504
f 157 624 622
f 308 311 82
f 247 223 248
f 507 483 508
f 331 88 329
f 494 500 497
f 156 601 602
f 591 589 592
f 365 98 596
f 75 281 282
f 152 587 577
f 149 559 560
f 555 121 553
f 530 141 529
f 515 517 139
f 361 594 98
f 250 67 249
f 157 608 609
f 294 293 209
f 317 81 316
f 557 338 26
f 303 305 81
f 530 529 528
f 101 381 382
f 415 418 111
f 192 184 50
f 412 110 411
f 20 384 256
f 131 594 486
f 281 264 282
f 347 287 348
f 28 349 582
f 165 163 1
f 248 250 66
f 617 107 398
f 273 271 274
f 456 115 453
f 558 561 560
f 335 576 91
f 331 177 332
f 116 433 436
f 351 370 92
f 136 511 530
f 239 240 65
f 247 258 19
f 304 23 567
f 148 557 570
f 214 208 58
f 440 426 450
f 268 270 269
f 258 247 268
f 204 202 16
f 466 125 465
f 517 513 133
f 168 275 274
f 275 73 274
f 198 193 53
f 309 308 307
f 510 511 136
f 415 416 110
f 131 490 597
f 473 475 474
f 414 415 111
f 493 495 494
f 496 504 485
f 433 116 432
f 600 375 601
f 240 234 65
f 418 415 412
f 486 361 3
f 567 566 304
f 380 393 29
f 17 199 197
f 491 492 132
f 451 449 435
f 218 217 216
f 623 621 613
f 396 104 395
f 433 439 436
f 628 160 627
f 215 202 217
f 209 207 2
f 427 113 424
f 434 10 544
f 434 433 432
f 199 17 210
f 150 564 565
f 489 491 132
f 275 13 285
f 497 500 134
f 125 466 476
f 578 152 577
f 208 214 211
f 328 88 343
f 356 27 603
f 150 566 567
f 372 100 371
f 190 191 47
f 235 8 398
f 260 261 72
f 422 403 414
f 422 414 111
f 453 454 123
f 349 583 582
f 521 520 519
f 425 453 115
f 616 622 158
f 483 130 508
f 151 586 572
f 212 17 232
f 400 397 402
f 377 396 99
f 41 522 511
f 510 508 505
f 549 547 42
f 475 473 36
f 510 137 509
f 222 221 197
f 430 115 429
f 220 194 1
f 305 54 204
f 621 29 613
f 192 171 184
f 460 335 5
f 88 331 332
f 74 277 279
f 300 301 80
f 390 389 388
f 165 45 164
f 146 549 551
f 291 278 75
f 448 120 445
f 147 543 544
f 607 610 609
f 603 602 356
f 139 529 514
f 333 553 443
f 92 368 347
f 261 260 259
f 300 6 200
f 46 177 331
f 284 283 174
f 301 300 200
f 471 468 474
f 54 305 301
f 302 304 303
f 569 150 567
f 150 569 570
f 294 209 2
f 628 629 160
f 548 543 147
f 147 625 627
f 63 233 234
f 426 427 114
f 41 509 532
f 198 52 196
f 614 105 612
f 147 627 547
f 81 305 306
f 549 548 547
f 54 301 200
f 342 88 332
f 264 281 70
f 193 194 53
f 455 429 456
f 187 321 14
f 479 130 484
f 147 544 625
f 458 456 453
f 304 80 303
f 314 84 313
f 488 503 501
f 321 332 14
f 423 425 424
f 305 204 306
f 341 339 25
f 514 40 516
f 625 628 627
f 340 339 341
f 105 614 391
f 243 228 62
f 318 316 78
f 75 278 279
f 357 355 353
f 238 257 63
f 466 455 476
f 425 423 4
f 448 449 120
f 408 638 108
f 292 275 285
f 22 278 289
f 515 513 517
f 501 503 134
f 622 623 158
f 134 503 504
f 195 216 206
f 163 271 246
f 619 617 620
f 62 228 229
f 163 165 164
f 453 425 454
f 489 132 488
f 82 628 625
f 58 208 209
f 525 608 40
f 626 547 627
f 518 517 498
f 489 487 491
f 557 26 564
f 325 336 344
f 541 145 539
f 40 616 516
f 338 556 89
f 250 248 245
f 139 514 515
f 98 594 596
f 246 220 1
f 112 413 630
f 9 536 413
f 156 600 601
f 332 177 14
f 321 342 332
f 156 606 600
f 584 330 585
f 302 303 81
f 584 87 330
f 330 25 585
f 400 239 65
f 439 440 117
f 95 358 368
f 597 594 131
f 594 361 486
f 246 67 245
f 561 562 149
f 28 364 362
f 55 216 217
f 427 430 114
f 267 20 254
f 556 555 553
f 84 309 558
f 311 310 312
f 609 525 142
f 256 68 255
f 124 460 461
f 82 311 312
f 307 308 82
f 589 135 495
f 527 40 514
f 112 418 412
f 20 256 254
f 258 238 19
f 267 254 269
f 273 272 249
f 392 391 393
f 137 533 509
f 122 455 456
f 9 413 411
f 130 480 505
f 333 443 5
f 527 525 40
f 589 495 385
f 39 496 485
f 223 225 224
f 414 416 415
f 219 222 53
f 145 538 539
f 413 412 411
f 469 468 467
f 183 181 6
f 191 192 50
f 429 35 431
f 292 285 76
f 413 112 412
f 415 110 412
f 43 164 167
f 467 468 126
f 617 101 620
f 450 451 117
f 438 546 545
f 619 620 159
f 17 212 210
f 124 579 576
f 584 153 583
f 460 124 576
f 3 469 467
f 311 308 314
f 6 320 183
f 389 104 388
f 251 250 249
f 194 165 1
f 291 289 278
f 287 77 348
f 238 258 257
f 139 517 518
f 238 236 19
f 223 247 19
f 382 380 29
f 39 518 498
f 361 359 3
f 69 255 257
f 139 518 528
f 33 545 535
f 387 385 7
f 69 268 269
f 477 462 125
f 454 479 123
f 121 555 447
f 451 435 117
f 454 425 4
f 233 252 8
f 124 463 464
f 69 258 268
f 168 167 166
f 583 153 582
f 384 394 102
f 138 512 513
f 57 210 211
f 254 256 255
f 607 609 142
f 324 319 86
f 289 291 76
f 291 292 76
f 384 102 383
f 422 421 420
f 221 17 197
f 383 102 381
f 376 377 99
f 99 373 374
f 386 105 392
f 438 33 440
f 90 341 343
f 281 75 279
f 574 571 96
f 628 82 312
f 221 222 59
f 127 471 474
f 595 605 603
f 551 538 145
f 334 91 340
f 322 324 85
f 305 303 301
f 18 239 399
f 306 204 16
f 199 198 197
f 166 190 180
f 303 80 301
f 267 266 265
f 626 42 547
f 16 215 213
f 349 351 350
f 295 16 213
f 68 379 252
f 250 251 66
f 627 160 626
f 383 68 256
f 343 88 342
f 507 508 136
f 202 215 16
f 197 198 53
f 254 69 269
f 603 605 156
f 418 419 111
f 384 383 256
f 455 122 476
f 203 204 54
f 556 557 148
f 255 68 253
f 313 84 560
f 25 328 341
f 254 255 69
f 603 156 602
f 581 584 583
f 630 632 112
f 163 246 1
f 246 245 220
f 432 116 558
f 499 591 590
f 320 563 86
f 345 93 350
f 306 16 295
f 346 93 345
f 562 568 149
f 604 605 155
f 154 592 593
f 545 552 535
f 511 522 530
f 574 573 571
f 566 150 565
f 361 98 360
f 67 271 273
f 234 235 65
f 208 211 56
f 574 151 573
f 251 270 66
f 398 8 378
f 213 215 214
f 438 440 439
f 315 314 313
f 263 71 262
f 20 373 384
f 496 134 504
f 329 88 328
f 81 306 316
f 555 556 148
f 592 589 103
f 617 619 107
f 227 207 56
f 571 359 96
f 446 466 465
f 206 216 55
f 359 571 469
f 568 148 570
f 34 437 435
f 28 351 349
f 21 272 282
f 113 423 424
f 490 489 488
f 379 68 383
f 210 212 211
f 80 563 300
f 351 92 350
f 326 346 12
f 83 317 318
f 555 148 554
f 212 231 56
f 218 57 217
f 271 67 246
f 195 196 52
f 270 268 66
f 390 592 103
f 148 568 554
f 495 493 7
f 592 390 593
f 357 95 355
f 574 575 151
f 452 120 451
f 154 591 592
f 587 585 577
f 395 394 396
f 93 349 350
f 610 416 611
f 166 44 190
f 315 23 302
f 315 302 317
f 268 247 66
f 606 154 593
f 396 394 99
f 211 212 56
f 370 369 368
f 235 397 65
f 280 278 22
f 83 315 317
f 575 588 151
f 74 279 280
f 385 495 7
f 63 257 253
f 397 235 398
f 214 58 213
f 220 219 194
f 546 146 545
f 236 225 19
f 599 94 602
f 235 233 8
f 102 394 395
f 611 416 32
f 225 223 19
f 139 528 529
f 231 62 229
f 419 406 421
f 451 450 452
f 49 182 185
f 402 397 107
f 52 199 218
f 416 610 110
f 225 236 244
f 107 397 398
f 68 252 253
f 322 85 321
f 182 181 183
f 118 438 439
f 546 438 118
f 348 77 345
f 543 546 118
f 231 212 232
f 610 611 157
f 33 438 545
f 385 386 103
f 479 480 130
f 169 195 15
f 93 583 349
f 15 195 206
f 190 44 192
f 247 248 66
f 146 552 545
f 248 60 245
f 570 557 564
f 274 271 43
f 63 253 233
f 272 21 249
f 507 528 518
f 67 273 249
f 487 467 126
f 196 195 169
f 624 159 623
f 134 496 497
f 132 503 488
f 104 393 395
f 556 553 89
f 355 356 94
f 258 69 257
f 229 61 227
f 56 231 227
f 460 576 335
f 463 124 461
f 394 373 99
f 29 393 391
f 67 250 245
f 193 198 196
f 462 36 464
f 144 633 630
f 141 526 527
f 517 133 498
f 536 144 630
f 100 372 599
f 144 536 537
f 22 289 287
f 578 579 152
f 579 578 576
f 189 188 187
f 60 223 224
f 92 348 350
f 555 554 447
f 396 377 388
f 194 193 165
f 413 536 630
f 372 352 599
f 377 376 375
f 348 345 350
f 105 386 387
f 240 237 234
f 463 462 464
f 135 500 494
f 45 196 169
f 512 612 387
f 245 60 220
f 429 115 456
f 223 60 248
f 288 289 76
f 525 526 142
f 100 599 601
f 613 29 391
f 526 523 520
f 341 328 343
f 631 641 639
f 264 21 282
f 266 72 265
f 106 402 403
f 73 273 274
f 186 206 205
f 381 379 383
f 52 216 195
f 410 18 399
f 290 272 73
f 72 371 374
f 526 525 527
f 115 430 424
f 498 497 496
f 621 382 29
f 543 118 434
f 214 215 57
f 522 141 530
f 511 510 509
f 352 94 599
f 493 512 7
f 90 340 341
f 169 171 170
f 605 604 606
f 219 60 224
f 104 389 392
f 359 469 3
f 186 49 185
f 222 219 224
f 166 167 44
f 428 427 426
f 523 522 524
f 129 502 481
f 50 185 188
f 164 45 170
f 425 115 424
f 33 428 426
f 427 428 113
f 94 356 602
f 515 138 513
f 114 431 452
f 237 236 238
f 215 217 57
f 95 354 355
f 220 60 219
f 515 514 516
f 183 320 319
f 222 197 53
f 559 569 567
f 300 320 6
f 435 436 117
f 96 360 363
f 640 642 641
f 242 243 62
f 140 537 519
f 508 130 505
f 420 410 399
f 537 539 144
f 317 316 318
f 426 114 450
f 186 15 206
f 311 83 310
f 625 544 307
f 544 10 307
f 168 43 167
f 185 182 188
f 369 354 95
f 44 171 192
f 605 606 156
f 548 549 146
f 100 601 375
f 149 568 569
f 381 380 382
f 455 466 35
f 480 479 454
f 543 548 546
f 493 133 513
f 492 472 37
f 477 125 476
f 491 487 126
f 337 336 338
f 588 153 587
f 576 578 91
f 633 161 632
f 96 359 360
f 39 485 483
f 101 617 378
f 193 45 165
f 163 164 43
f 618 624 611
f 507 136 528
f 561 149 560
f 641 162 639
f 116 561 558
f 494 133 493
f 253 252 233
f 63 237 238
f 392 393 104
f 440 450 117
f 93 581 583
f 386 385 387
f 120 449 451
f 421 422 111
f 486 3 467
f 302 81 317
f 633 632 630
f 462 475 36
f 376 99 374
f 489 490 131
f 447 449 448
f 387 612 105
f 106 420 399
f 173 46 172
f 492 491 472
f 316 306 295
f 22 287 347
f 109 410 420
f 507 39 483
f 559 23 313
f 214 57 211
f 196 45 193
f 10 434 432
f 422 106 403
f 626 160 640
f 487 486 467
f 542 41 532
f 400 106 399
f 444 120 452
f 198 199 52
f 475 127 474
f 621 620 382
f 621 623 159
f 450 114 452
f 92 347 348
f 376 100 375
f 434 118 433
f 503 132 502
f 337 90 336
f 537 536 519
f 395 393 380
f 201 54 200
f 171 44 170
f 355 94 353
f 58 296 213
f 422 420 106
f 595 365 596
f 569 568 570
f 523 140 520
f 114 430 431
f 218 210 57
f 304 566 80
f 639 162 638
f 261 371 72
f 548 147 547
f 498 133 497
f 150 570 564
f 222 224 59
f 142 526 520
f 437 436 435
f 141 522 523
f 137 510 505
f 173 179 176
f 559 149 569
f 121 447 448
f 563 320 300
f 102 395 380
f 257 255 253
f 642 162 641
f 83 311 314
f 216 52 218
f 512 493 513
f 23 304 302
f 91 339 340
f 512 138 612
f 159 620 621
f 218 199 210
f 364 28 575
f 83 318 310
f 168 274 43
f 136 530 528
f 140 523 524
f 495 135 494
f 233 235 234
f 566 563 80
f 25 339 577
f 277 74 276
f 475 462 477
f 133 494 497
f 436 437 116
f 389 386 392
f 548 146 546
f 441 460 5
f 10 309 307
f 65 397 400
f 543 434 544
f 640 641 161
f 272 273 73
f 581 93 346
f 419 421 111
f 319 320 86
f 180 179 178
f 127 475 477
f 231 229 227
f 337 334 340
f 136 508 510
f 308 309 84
f 237 63 234
f 447 554 34
f 252 379 378
f 315 83 314
f 608 622 616
f 338 336 26
f 337 338 89
f 13 275 168
f 209 208 207
f 436 439 117
f 628 312 629
f 360 366 363
f 364 574 96
f 359 361 360
f 466 446 35
f 500 501 134
f 406 109 421
f 135 589 591
f 601 599 602
f 340 90 337
f 481 492 37
f 522 41 524
f 78 316 295
f 131 486 487
f 403 32 414
f 634 626 640
f 151 572 573
f 515 516 138
f 8 252 378
f 265 72 374
f 9 521 519
f 538 549 42
f 368 358 347
f 588 587 586
f 458 453 123
f 589 385 103
f 502 492 481
f 32 416 414
f 430 427 424
f 153 585 587
f 540 144 539
f 370 368 92
f 209 293 58
f 428 33 535
f 326 581 346
f 625 307 82
f 575 28 582
f 6 181 200
f 421 109 420
f 553 121 443
f 160 642 640
f 153 584 585
f 309 432 558
f 334 337 89
f 23 315 313
f 271 163 43
f 296 295 213
f 39 498 496
f 118 439 433
f 531 113 534
f 293 296 58
f 28 362 351
f 489 131 487
f 431 444 452
f 84 558 560
f 98 366 360
f 45 169 170
f 379 101 378
f 462 463 125
f 308 84 314
f 10 432 309
f 299 24 310
f 132 492 502
f 512 387 7
f 639 638 408
f 565 323 86
f 59 244 242
f 106 400 402
f 440 33 426
f 566 565 563
f 617 398 378
f 224 225 59
f 410 109 409
f 239 400 399
f 194 219 53
f 358 22 347
f 610 157 609
f 27 595 603
f 479 484 482
f 142 520 521
f 585 25 577
f 339 578 577
f 408 407 406
f 407 109 406
f 31 408 406
f 407 408 108
f 31 639 408
f 419 31 406
f 608 616 40
f 430 429 431
f 455 35 429
f 35 444 431
f 188 51 187
f 188 182 51
f 51 322 187
f 322 51 319
f 51 182 183
f 319 51 183
f 187 322 321
f 322 319 324
f 381 101 379
f 405 407 108
f 404 405 108
f 286 285 178
f 407 405 409
f 109 407 409
f 191 175 47
f 167 164 170
f 50 184 185
f 44 167 170
f 64 244 236
f 243 244 64
f 50 188 189
f 541 542 145
f 442 445 119
f 339 91 578
f 445 446 119
f 624 623 622
f 611 624 157
f 523 526 141
f 141 527 529
f 527 514 529
f 445 120 444
f 446 445 444
f 35 446 444
f 613 614 158
f 158 614 615
f 623 613 158
f 614 613 391
f 614 612 615
f 371 376 374
f 100 376 371
f 479 482 123
f 373 394 384
f 540 42 634
f 633 540 634
f 538 42 540
f 633 634 161
f 161 634 640
f 42 626 634
f 540 633 144
f 557 556 338
f 553 333 89
f 262 21 264
f 251 21 262
f 5 335 333
f 270 251 262
f 21 251 249
f 600 593 30
f 606 593 600
f 600 30 375
f 593 390 30
f 30 377 375
f 390 388 30
f 30 388 377
f 228 243 241
f 470 478 459
f 470 127 478
f 127 477 478
f 184 186 185
f 478 477 476
f 122 478 476
f 357 74 280
f 518 39 507
f 344 342 85
f 325 344 85
f 342 344 343
f 85 342 321
f 344 90 343
f 90 344 336
f 482 129 481
f 482 481 457
f 482 457 123
f 481 37 457
f 449 447 34
f 435 449 34
f 470 472 471
f 472 470 37
f 470 471 127
f 472 126 471
f 126 468 471
f 470 459 37
f 491 126 472
f 504 129 485
f 221 59 242
f 125 463 465
f 437 34 562
f 561 437 562
f 554 568 562
f 34 554 562
f 437 561 116
f 390 103 389
f 103 386 389
f 392 105 391
f 572 586 580
f 572 580 36
f 586 152 580
f 473 572 36
f 244 243 242
f 225 244 59
f 64 240 241
f 240 239 241
f 237 240 64
f 243 64 241
f 236 237 64
f 411 607 521
f 9 411 521
f 110 607 411
f 607 142 521
f 610 607 110
f 171 15 184
f 171 169 15
f 15 186 184
f 87 584 581
f 153 588 582
f 588 575 582
f 381 102 380
f 573 572 473
f 468 469 128
f 474 468 128
f 469 571 128
f 571 573 128
f 573 473 128
f 473 474 128
f 564 323 565
f 26 323 564
f 323 324 86
f 325 323 26
f 325 324 323
f 563 565 86
f 324 325 85
f 410 230 18
f 230 228 18
f 18 228 241
f 18 241 239
f 401 619 618
f 401 402 107
f 403 402 401
f 619 159 618
f 401 618 32
f 619 401 107
f 403 401 32
f 618 611 32
f 159 624 618
f 478 122 459
f 122 458 459
f 37 459 457
f 459 458 457
f 122 456 458
f 457 458 123
f 191 190 192
f 485 129 484
f 129 482 484
f 483 485 484
f 130 483 484
f 189 187 14
f 191 50 189
f 191 189 175
f 189 14 175
f 14 177 175
f 499 501 500
f 501 499 38
f 38 499 590
f 135 499 500
f 488 501 38
f 499 135 591
f 480 454 4
f 284 12 346
f 4 423 506
f 480 4 506
f 423 531 506
f 480 506 505
f 531 137 506
f 506 137 505
f 365 366 98
f 71 270 262
f 270 71 269
f 71 267 269
f 335 334 333
f 333 334 89
f 334 335 91
f 536 9 519
f 465 463 461
f 537 140 541
f 520 140 519
f 119 446 465
f 465 461 119
f 461 441 119
f 460 441 461
f 176 46 173
f 299 297 24
f 71 263 266
f 263 260 266
f 260 72 266
f 263 70 260
f 205 201 49
f 201 181 49
f 186 205 49
f 181 201 200
f 181 182 49
f 284 77 283
f 586 587 152
f 588 586 151
f 20 267 265
f 266 267 71
f 31 417 631
f 631 417 632
f 31 631 639
f 417 31 419
f 641 631 161
f 417 112 632
f 161 631 632
f 418 417 419
f 417 418 112
f 284 345 77
f 542 550 145
f 542 541 524
f 284 174 12
f 48 174 283
f 373 20 265
f 373 265 374
f 609 608 525
f 608 157 622
f 560 559 313
f 636 637 162
f 541 140 524
f 41 542 524
f 358 357 280
f 70 263 264
f 263 262 264
f 176 177 46
f 174 48 173
f 174 173 172
f 538 551 549
f 538 540 539
f 537 541 539
f 232 221 242
f 17 221 232
f 232 242 62
f 231 232 62
f 203 205 55
f 203 55 202
f 201 205 203
f 202 55 217
f 205 206 55
f 204 203 202
f 73 275 292
f 292 290 73
f 272 290 282
f 290 292 291
f 75 290 291
f 290 75 282
f 70 277 259
f 277 70 281
f 277 281 279
f 260 70 259
f 12 174 172
f 104 396 388
f 367 27 354
f 365 27 367
f 354 27 356
f 365 367 366
f 595 27 365
f 318 299 310
f 155 596 597
f 155 597 598
f 596 594 597
f 595 596 155
f 605 595 155
f 180 47 179
f 180 190 47
f 352 372 11
f 11 372 261
f 312 310 24
f 642 636 162
f 636 297 637
f 367 369 97
f 366 367 97
f 369 367 354
f 369 370 97
f 580 579 464
f 580 152 579
f 579 124 464
f 61 230 409
f 230 410 409
f 230 61 229
f 230 229 228
f 76 285 286
f 353 352 276
f 74 353 276
f 288 76 286
f 288 286 283
f 289 288 287
f 203 54 201
f 287 288 77
f 77 288 283
f 286 48 283
f 531 423 113
f 276 11 259
f 11 261 259
f 277 276 259
f 616 158 615
f 516 616 615
f 138 516 615
f 138 615 612
f 509 533 532
f 503 502 504
f 635 79 294
f 635 294 404
f 635 637 79
f 637 635 638
f 638 635 108
f 635 404 108
f 226 61 405
f 61 226 227
f 405 61 409
f 227 226 207
f 48 178 179
f 48 286 178
f 173 48 179
f 534 143 533
f 534 535 143
f 531 534 533
f 533 143 532
f 137 531 533
f 261 372 371
f 13 180 178
f 285 13 178
f 180 13 166
f 13 168 166
f 346 345 284
f 331 327 46
f 46 327 172
f 172 327 326
f 382 620 101
f 442 121 448
f 443 121 442
f 2 226 404
f 294 2 404
f 404 226 405
f 207 226 2
f 550 551 145
f 552 146 551
f 143 550 532
f 552 550 143
f 330 329 328
f 24 636 629
f 94 352 353
f 352 11 276
f 113 428 534
f 428 535 534
f 509 41 511
f 535 552 143
f 550 552 551
f 550 542 532
f 369 95 368
f 326 327 87
f 87 327 329
f 327 331 329
f 581 326 87
f 293 79 298
f 79 297 298
f 296 298 78
f 79 293 294
f 296 293 298
f 598 490 38
f 358 280 22
f 280 279 278
f 357 358 95
f 74 357 353
f 330 328 25
f 567 23 559
f 590 598 38
f 590 604 598
f 598 604 155
f 604 590 154
f 590 591 154
f 604 154 606
f 297 299 298
f 299 318 78
f 298 299 78
f 355 354 356
f 629 636 642
f 312 24 629
f 629 642 160
f 370 362 97
f 362 363 97
f 363 366 97
f 364 363 362
f 362 370 351
f 96 363 364
f 297 636 24
f 162 637 638
f 637 297 79
f 490 488 38
f 598 597 490
f 441 442 119
f 443 442 441
f 443 441 5
f 442 448 445
f 296 78 295
f 326 12 172
f 575 574 364
f 47 175 176
f 175 177 176
f 47 176 179
