# FEM surface export ¡ª frame 463
# Vertices: 642  Faces: 1280
v -0.51638591 1.03174555 -0.00323760
v 0.51613826 1.03177798 -0.00087278
v -0.55872297 0.16179524 -0.00668221
v 0.52699488 0.21188740 0.00991174
v -0.00130591 0.01482966 1.00114131
v 0.00183874 0.76886117 0.86704755
v 0.00121670 0.00000000 -0.98744410
v 0.00051247 0.76559305 -0.86654431
v 0.90526217 0.31023708 -0.56025177
v 0.90755683 0.30443120 0.55902326
v -0.90608710 0.31111947 -0.55241990
v -0.90119314 0.30157578 0.55925643
v -0.82736790 0.74441493 0.31750169
v -0.51935023 0.57978308 0.84185272
v -0.30517727 0.99968660 0.49193615
v 0.30703524 1.00016832 0.49417683
v -0.00023554 1.14066720 -0.00133543
v 0.30480158 0.99988741 -0.49303278
v -0.30711484 0.99898386 -0.49531120
v -0.51913524 0.57341397 -0.83951277
v -0.82568204 0.74091178 -0.31714496
v -1.05186081 0.29208308 0.00350658
v 0.52453226 0.57371509 0.83924443
v 0.82840717 0.74409294 0.31531608
v -0.56575483 0.06438739 0.91816211
v -0.00066316 0.30052435 1.05880177
v -0.89516032 0.00190559 -0.36175263
v -0.93966180 0.00000000 0.34331620
v -0.00200340 0.31139082 -1.06876910
v -0.57091075 0.07639457 -0.93172926
v 0.82676935 0.74555355 -0.31567344
v 0.51731706 0.58002388 -0.84167081
v 0.94932312 0.00000000 0.35801250
v 0.57076758 0.04401605 0.90192777
v 0.29925492 0.07664196 0.52325875
v -0.36168879 0.14030287 0.50345004
v -0.01212960 0.04744110 0.06574328
v -0.29251924 0.02555787 -0.48777136
v 0.33959848 0.03076414 -0.50500953
v 0.57091039 0.07137445 -0.92539042
v 0.95256287 0.00548229 -0.35866737
v 1.06646419 0.30268744 -0.00460326
v -0.69314879 0.91341573 0.15818037
v -0.58779836 0.90425336 0.42378163
v -0.42521355 1.04154623 0.25164390
v -0.73429608 0.44471511 0.72584945
v -0.70867187 0.68220055 0.60430634
v -0.89976156 0.52865946 0.45289326
v -0.15912683 0.90608770 0.70167327
v -0.43133223 0.82096004 0.69491267
v -0.26687610 0.69128996 0.88836849
v -0.15599009 1.10481453 0.25379586
v -0.26322767 1.11403787 -0.00111796
v 0.16135781 0.90596056 0.70172340
v 0.00099486 1.03035557 0.51576984
v 0.26278189 1.11412001 -0.00087533
v 0.15850720 1.10819221 0.25469527
v 0.42650083 1.04064667 0.25442001
v -0.15833552 1.10591650 -0.25683936
v -0.42530924 1.04028571 -0.25697899
v 0.42556322 1.04197311 -0.25548479
v 0.15578781 1.10724676 -0.25693792
v -0.16087401 0.90513515 -0.70226353
v 0.00055748 1.03021109 -0.51736712
v 0.16058695 0.90512556 -0.70228791
v -0.59035242 0.90041608 -0.42704338
v -0.69292974 0.91238326 -0.16294532
v -0.26612255 0.68486089 -0.88468021
v -0.43032280 0.81819481 -0.69766307
v -0.89882410 0.53049088 -0.45330340
v -0.70592451 0.67525733 -0.60577905
v -0.73753506 0.43984017 -0.72506297
v -0.86601502 0.76454681 -0.00113295
v -1.02491188 0.30554226 -0.28874537
v -0.99579501 0.53399789 -0.16791992
v -0.99171406 0.53484643 0.17120257
v -1.01335537 0.29162803 0.28854030
v 0.58925086 0.89898998 0.42590603
v 0.69216460 0.91438776 0.16076058
v 0.27062032 0.68614817 0.88699836
v 0.43101627 0.81676364 0.69565493
v 0.90291250 0.53555661 0.45213625
v 0.71043473 0.68070352 0.60587782
v 0.74316233 0.44665074 0.72572768
v -0.27587771 0.44979963 0.99822539
v 0.00220304 0.54956633 1.00489080
v -0.75743204 0.16509297 0.75388759
v -0.55644602 0.30642334 0.89858758
v 0.00144429 0.08035857 1.07352245
v -0.28496167 0.16970766 1.02981067
v -0.31060907 0.00000000 1.01619530
v -1.06862485 0.08605448 0.18498042
v -0.96414948 0.08582354 0.48644707
v -0.96733779 0.10455402 -0.46872893
v -1.07273877 0.10777681 -0.17974439
v -0.75630814 0.07842625 0.12461635
v -0.97776723 0.00949079 -0.03680392
v -0.75380534 0.18110910 -0.19623443
v -0.56399876 0.31131127 -0.90451258
v -0.76909333 0.17843106 -0.75382781
v 0.00044431 0.54483098 -1.00145781
v -0.27901578 0.44810140 -1.00174010
v -0.30002046 0.00000000 -1.01737189
v -0.28781524 0.17256784 -1.03920400
v 0.00006829 0.09088931 -1.08207953
v 0.43142691 0.81980944 -0.69731605
v 0.26728138 0.68570107 -0.88442886
v 0.69380182 0.91404849 -0.16081606
v 0.58985305 0.90236330 -0.42395833
v 0.73570794 0.45309284 -0.72699279
v 0.70875943 0.68203157 -0.60723233
v 0.90045822 0.53660220 -0.45204329
v 0.74879181 0.14046499 0.17813118
v 0.65797174 0.06144963 0.45557112
v 0.44055566 0.17169359 0.32195702
v 0.77243024 0.17403120 0.76239830
v 0.82366163 0.00000000 0.66664016
v 0.97309053 0.10472056 0.47018090
v 0.14861022 0.01347445 0.76410526
v 0.49369052 0.00289648 0.80681062
v 0.31284362 0.00000000 1.02632356
v 0.16130091 0.21135205 0.31127843
v 0.27327278 0.04134621 0.03351214
v -0.20748790 0.08376590 0.75687802
v -0.01744384 0.16886586 0.57513165
v -0.28636986 0.13585380 0.07448089
v -0.18146519 0.09984735 0.32998604
v -0.49598926 0.09765101 0.28333414
v 0.14820297 0.04584834 -0.21545397
v 0.48932683 0.09949043 -0.24180591
v -0.45416927 0.06398433 -0.24566989
v -0.18494311 0.02496376 -0.20700033
v 0.17146762 0.01972427 -0.76141453
v 0.00797630 0.03759564 -0.47843957
v -0.17616259 0.05488598 -0.72415185
v 0.61994863 0.12232259 -0.43041974
v 0.75723910 0.11210360 -0.16119263
v 0.31659433 0.00000000 -1.02368367
v 0.49714667 0.02307558 -0.77185166
v 0.96816611 0.09153683 -0.49365261
v 0.81861734 0.00000000 -0.68304229
v 0.76048732 0.18336521 -0.76508099
v 1.00270510 0.00002945 0.00593846
v 1.02413905 0.30691442 -0.28899115
v 1.06473100 0.08235756 -0.18803415
v 1.04428303 0.08677078 0.17094153
v 1.02545857 0.30903059 0.28804043
v 0.28872040 0.16034263 1.02632654
v 0.56383097 0.30374345 0.90351057
v 0.28044257 0.44506058 0.99884087
v -0.68108934 0.01375852 0.43119672
v -0.49977702 0.07610598 0.75407827
v -0.80821627 0.00000000 0.68332690
v -0.50156665 0.00207356 -0.74173778
v -0.63074428 0.14659803 -0.47917724
v -0.81138140 0.00077311 -0.67551315
v 0.56104815 0.30973327 -0.90396237
v 0.28323707 0.18637720 -1.04091072
v 0.27838978 0.45247164 -0.99947083
v 0.99457306 0.53665608 0.16652751
v 0.99206239 0.53962785 -0.16981460
v 0.86639643 0.76702183 0.00009539
v -0.60845423 0.98021436 0.07831063
v -0.56377459 0.98704618 0.20795211
v -0.47375980 1.04207349 0.12613857
v -0.71506608 0.83270264 0.37369862
v -0.64577782 0.91484433 0.29306054
v -0.76661891 0.83432996 0.23753422
v -0.36815235 1.02689087 0.37437305
v -0.51014823 0.97928947 0.34039137
v -0.45001239 0.95887774 0.46267810
v -0.82352787 0.37321708 0.64789778
v -0.82826841 0.49019131 0.59778368
v -0.90949237 0.41543120 0.50861579
v -0.62286913 0.63490587 0.73239243
v -0.73085344 0.56662887 0.67314595
v -0.63398117 0.51506907 0.79233903
v -0.87152267 0.64199948 0.38926384
v -0.81100678 0.60967922 0.53326541
v -0.77663243 0.72071630 0.46589911
v -0.08040722 0.84255815 0.79044616
v -0.21478057 0.80495971 0.80375284
v -0.13312791 0.73338211 0.88655937
v -0.37010199 0.91767174 0.59909141
v -0.29681829 0.86822909 0.70532185
v -0.23383226 0.95872182 0.60084587
v -0.39641353 0.63998079 0.87412316
v -0.35389692 0.76001859 0.79884624
v -0.48128968 0.70834655 0.77777576
v -0.65555513 0.80233008 0.51993650
v -0.57697856 0.75857985 0.65899813
v -0.51552337 0.86969501 0.56585193
v -0.34785828 1.08605468 0.12598766
v -0.39192304 1.07836556 -0.00166361
v -0.23194335 1.06242692 0.37653175
v -0.29313689 1.08024824 0.25530565
v -0.13296908 1.13783753 -0.00163878
v -0.21100931 1.11629999 0.12735595
v -0.07857399 1.13296914 0.12785006
v 0.08360327 0.84178221 0.78887886
v 0.00138883 0.91342509 0.70875973
v 0.15433112 1.02256882 0.51001459
v 0.08141836 0.97522026 0.61239398
v 0.23694469 0.95800042 0.60201329
v -0.07730324 0.97439253 0.61259866
v -0.15261310 1.02356970 0.50957805
v 0.39324531 1.07938182 -0.00062461
v 0.34849754 1.08627355 0.12845920
v 0.47512120 1.04284859 0.12716770
v 0.07940067 1.13172960 0.12766807
v 0.21284845 1.11851406 0.12916258
v 0.13243282 1.13706887 -0.00114233
v 0.37161049 1.02661133 0.37740114
v 0.29336235 1.08127129 0.25760934
v 0.23409092 1.06196165 0.37726688
v -0.08060221 1.07933247 0.38969317
v 0.07948784 1.07910252 0.38826251
v -0.00065470 1.11558568 0.25637946
v -0.34780505 1.08583474 -0.13049509
v -0.47431263 1.04172647 -0.13055302
v -0.07945871 1.13371205 -0.12961000
v -0.21266653 1.11905730 -0.12997569
v -0.37083128 1.02471912 -0.37858614
v -0.29326156 1.08013177 -0.25892958
v -0.23462614 1.06156623 -0.37898570
v 0.47530374 1.04406965 -0.12955904
v 0.34801432 1.08844435 -0.12958001
v 0.23249358 1.06287980 -0.37829235
v 0.29210097 1.08161426 -0.25788209
v 0.36825585 1.02629268 -0.37717882
v 0.21129793 1.11906111 -0.12963502
v 0.07812380 1.13462353 -0.13018090
v -0.08093604 0.84057367 -0.79064536
v 0.00101479 0.91239250 -0.71151751
v 0.08247189 0.83952343 -0.79133356
v -0.15431786 1.02204168 -0.51205570
v -0.08020701 0.97513288 -0.61602479
v -0.23602486 0.95807046 -0.60272151
v 0.23648076 0.95790815 -0.60244304
v 0.08089101 0.97548324 -0.61493266
v 0.15312605 1.02271688 -0.51140261
v -0.00105067 1.11555958 -0.25913021
v 0.07965410 1.07832968 -0.38986921
v -0.08115811 1.07836735 -0.39060467
v -0.56434476 0.98612624 -0.21359318
v -0.60983264 0.97944158 -0.08294640
v -0.45253235 0.95656717 -0.46695396
v -0.51106822 0.97774774 -0.34494779
v -0.76545978 0.83181047 -0.24111003
v -0.64759326 0.91309744 -0.29741046
v -0.71520662 0.82755786 -0.37641037
v -0.13379183 0.72874182 -0.88331842
v -0.21387713 0.80273581 -0.80348063
v -0.47871074 0.70177650 -0.77790678
v -0.35180628 0.75704503 -0.79933095
v -0.39578533 0.63360661 -0.87042987
v -0.29689008 0.86575848 -0.70774931
v -0.37159342 0.91680282 -0.60308260
v -0.90861040 0.41714883 -0.50424105
v -0.82915539 0.48721775 -0.59741312
v -0.82872021 0.37271237 -0.64617127
v -0.77484900 0.71200955 -0.46615610
v -0.80999821 0.60580426 -0.53627443
v -0.87242943 0.64101398 -0.38871706
v -0.63248152 0.50840819 -0.78917551
v -0.72804475 0.56011993 -0.67259216
v -0.61991662 0.62806594 -0.73030448
v -0.51703101 0.86385816 -0.56848639
v -0.57508391 0.75133538 -0.66150355
v -0.65600091 0.79582906 -0.52118129
v -0.70198226 0.92136133 -0.00150739
v -0.85495859 0.75788885 -0.16207014
v -0.78630680 0.84473312 -0.08454143
v -0.78685719 0.84586716 0.07967750
v -0.85534638 0.75941741 0.15882492
v -0.97314125 0.30229315 -0.42319015
v -0.96943390 0.41621861 -0.37233302
v -1.03679073 0.41666269 -0.08104592
v -1.01446271 0.41697726 -0.22652362
v -1.04863155 0.29861367 -0.14253084
v -0.95607728 0.53211856 -0.31392875
v -0.92204940 0.64264029 -0.24745968
v -0.97143716 0.41354677 0.37442216
v -0.96863872 0.29681385 0.42828578
v -0.92045444 0.64508331 0.24880403
v -0.95387006 0.53485721 0.31528598
v -1.04653764 0.29322788 0.14857063
v -1.01339161 0.41521928 0.23235768
v -1.03641021 0.41374326 0.08951979
v -0.94184649 0.65451705 -0.08483010
v -1.00646591 0.53619206 0.00397966
v -0.94265151 0.65599567 0.08560493
v 0.56388229 0.98765939 0.21074329
v 0.60806870 0.97921425 0.07982735
v 0.45243213 0.95665681 0.46577218
v 0.51256901 0.97823423 0.34321243
v 0.76723075 0.83529556 0.23968595
v 0.64783174 0.91419464 0.29602695
v 0.71687454 0.83023053 0.37643269
v 0.13685738 0.73173076 0.88592190
v 0.21808888 0.80340958 0.80234927
v 0.48271057 0.70439422 0.77833366
v 0.35405207 0.75432837 0.79739785
v 0.40069383 0.63151830 0.87108374
v 0.29770744 0.86664951 0.70572400
v 0.37276193 0.91645318 0.60098606
v 0.91227186 0.41867667 0.50806034
v 0.83175641 0.49201983 0.59498006
v 0.83219790 0.37611851 0.64647394
v 0.77967757 0.71791899 0.46554494
v 0.81439728 0.61152846 0.53503358
v 0.87445128 0.64374948 0.38714427
v 0.64057916 0.51152444 0.79216796
v 0.73459256 0.56590170 0.67394155
v 0.62537992 0.63257062 0.73315477
v 0.51904452 0.86668015 0.56854826
v 0.57667089 0.75454807 0.65943956
v 0.65754956 0.79904538 0.52201492
v -0.13487968 0.62354285 0.95924610
v 0.00259642 0.66374695 0.94506842
v -0.40274966 0.51811337 0.93061024
v -0.27416635 0.57463312 0.95548147
v -0.00006511 0.42598018 1.04224765
v -0.13907669 0.50126863 1.01260793
v -0.14245611 0.37629160 1.04413676
v -0.83714724 0.22962099 0.66129392
v -0.75248480 0.30328655 0.74571890
v -0.55433196 0.17867379 0.91165257
v -0.65714246 0.23082848 0.83217323
v -0.66411471 0.11247816 0.83865076
v -0.65077817 0.37446076 0.81848949
v -0.54442406 0.44371763 0.88011473
v 0.00714413 0.00000000 1.06350517
v -0.14173499 0.01749665 1.06437659
v -0.15871878 0.00000000 1.01930356
v -0.14467907 0.23473978 1.05379510
v -0.14176950 0.12962876 1.05316341
v -0.00319846 0.18104038 1.05662858
v -0.44023773 0.00618557 0.97901827
v -0.28257909 0.06359634 1.03687942
v -0.41848001 0.09674373 0.98790336
v -0.42256573 0.37820345 0.95986724
v -0.42882273 0.23488927 0.97790670
v -0.28556731 0.30961147 1.02298117
v -1.00480711 0.18894733 0.39408621
v -0.93351847 0.18349266 0.52796245
v -1.06633735 0.18884444 0.09344842
v -1.04458582 0.18643928 0.24086235
v -0.98944402 0.00583399 0.43294713
v -1.03094566 0.08759062 0.33806399
v -1.03893542 0.00000000 0.27633220
v -0.93997264 0.20480631 -0.51728535
v -1.00704682 0.19764395 -0.37971961
v -1.04093194 0.03361605 -0.27646104
v -1.02982295 0.08491302 -0.33481798
v -0.97417337 0.00000000 -0.42992207
v -1.05554092 0.20147191 -0.24167427
v -1.07572389 0.19474335 -0.08873431
v -0.64912534 0.04169178 0.04464111
v -0.77473181 0.02962235 -0.06843613
v -0.68242657 0.14676736 -0.09162463
v -0.98117256 0.00078623 0.15951039
v -0.87027150 0.00655505 0.05595699
v -0.85959184 0.04089971 0.23321888
v -0.81553900 0.09917074 -0.28774193
v -0.87535042 0.09356725 -0.12445857
v -0.93458593 0.00021961 -0.21214405
v -1.08634973 0.08794180 0.00252915
v -1.07016742 0.00000000 -0.10114962
v -1.07427967 0.00001087 0.09117460
v -0.75738555 0.30422300 -0.74095941
v -0.84433568 0.23777704 -0.65258139
v -0.54533523 0.43770513 -0.87736052
v -0.65582758 0.36907026 -0.81543744
v -0.68032062 0.11211158 -0.84763062
v -0.66843283 0.23712064 -0.83909726
v -0.56537676 0.18134674 -0.91759712
v 0.00036171 0.65896463 -0.94171101
v -0.13559335 0.61950517 -0.95498598
v -0.14318328 0.37899637 -1.04620719
v -0.13820358 0.49861667 -1.00830615
v -0.00116916 0.42810670 -1.04425406
v -0.27291340 0.56882834 -0.94920969
v -0.40266332 0.51316410 -0.92740959
v -0.14913812 0.00000000 -1.01543880
v -0.14330493 0.04747897 -1.06274641
v 0.00321192 0.00077254 -1.06521392
v -0.42379004 0.10901234 -0.99336839
v -0.29862937 0.07136151 -1.03888118
v -0.44623867 0.01101934 -0.98852366
v -0.00470533 0.19166592 -1.08456540
v -0.15336196 0.12319215 -1.06996548
v -0.14433566 0.23962975 -1.06841683
v -0.42654026 0.37768951 -0.96805346
v -0.28629214 0.30930948 -1.02987754
v -0.43106744 0.23791035 -0.98524421
v 0.21654962 0.80274862 -0.80196267
v 0.13487937 0.72993630 -0.88481826
v 0.37213004 0.91736507 -0.60054368
v 0.29775801 0.86842453 -0.70613271
v 0.39453378 0.63366848 -0.86806607
v 0.35304567 0.75786197 -0.79790300
v 0.48101896 0.70441371 -0.77686763
v 0.60975164 0.98017204 -0.08059278
v 0.56569439 0.98841494 -0.21092643
v 0.71581203 0.83163619 -0.37363288
v 0.64867979 0.91574651 -0.29537803
v 0.76757425 0.83414364 -0.23787333
v 0.51196939 0.98003405 -0.34255821
v 0.45176315 0.95884740 -0.46606791
v 0.82710129 0.38439715 -0.64763165
v 0.83092386 0.49766555 -0.59559757
v 0.91303402 0.42315161 -0.50875348
v 0.62246764 0.63445109 -0.73285198
v 0.73100156 0.56957263 -0.67437559
v 0.63187116 0.51934928 -0.79230887
v 0.86983901 0.64426810 -0.38674271
v 0.81267846 0.61557281 -0.53668094
v 0.77539068 0.71987498 -0.46564218
v 0.51805478 0.86733210 -0.56691891
v 0.65695769 0.79821312 -0.51930773
v 0.57616186 0.75652909 -0.65949517
v 0.64157760 0.20943588 0.08534934
v 0.59428382 0.18780644 0.23415129
v 0.50763053 0.20946446 0.17387329
v 0.81224406 0.07650636 0.40050313
v 0.69943476 0.11977742 0.32966873
v 0.84342891 0.04473791 0.26544580
v 0.36102012 0.02208949 0.39330113
v 0.54078192 0.10720019 0.35886046
v 0.49018940 0.06258629 0.49241716
v 0.84055942 0.23593159 0.65996689
v 0.88166684 0.13864322 0.62850147
v 0.93764418 0.19692835 0.51857042
v 0.69919056 0.00018602 0.79827029
v 0.78903288 0.06779113 0.72812945
v 0.67338556 0.10763429 0.84373903
v 0.98248821 0.03633681 0.43570006
v 0.90669072 0.07126544 0.58149511
v 0.90137506 0.00072484 0.51184189
v 0.08438152 0.05282988 0.89724278
v 0.23955047 0.01506109 0.92194355
v 0.15782067 0.00000000 1.02087283
v 0.40759808 0.07201201 0.66108716
v 0.33290198 0.00857661 0.79373676
v 0.23243362 0.01848121 0.65492719
v 0.45082030 0.00064782 0.98079556
v 0.40483326 0.00000000 0.91965431
v 0.55386621 0.00000000 0.89851695
v 0.75436485 0.02044048 0.58304864
v 0.66805583 0.00000000 0.76690549
v 0.56984562 0.00865785 0.63211572
v 0.38423696 0.10217050 0.17287502
v 0.42137715 0.10578725 0.02832190
v 0.18832636 0.03622459 0.39750749
v 0.28804681 0.09815228 0.31781369
v 0.12895709 0.05927046 0.03518229
v 0.20477873 0.07886785 0.18083170
v 0.08141489 0.09682561 0.19093664
v -0.10307052 0.01282326 0.88671255
v -0.02376281 0.06084152 0.77781731
v -0.17522828 0.12953515 0.53472197
v -0.11288892 0.10216969 0.66222340
v -0.29104134 0.10833856 0.64008749
v 0.06106644 0.12180489 0.66072786
v 0.09954234 0.04526210 0.54819298
v -0.42452016 0.12703584 0.06106071
v -0.39445746 0.21909961 0.20527837
v -0.53208619 0.17968428 0.14392404
v -0.08812873 0.10774652 0.20277475
v -0.23142256 0.20080784 0.20269603
v -0.16218677 0.08767691 0.09055475
v -0.41317976 0.18404929 0.38957131
v -0.32576090 0.10111900 0.27453950
v -0.26001108 0.18479174 0.42710882
v 0.07552582 0.18760641 0.45651707
v -0.10045757 0.20870627 0.46441469
v 0.00717015 0.09303930 0.34877938
v 0.39466423 0.10189673 -0.10502897
v 0.47180831 0.23914093 -0.12572527
v 0.07383847 0.06210950 -0.09542061
v 0.23095512 0.05421280 -0.08405468
v 0.38652930 0.15501654 -0.38447216
v 0.32961297 0.05447994 -0.25048316
v 0.23848803 0.05484105 -0.36200234
v -0.50502193 0.05930683 -0.10171937
v -0.39100152 0.06569573 -0.08913322
v -0.22986375 0.01471325 -0.34956759
v -0.32539627 0.06701943 -0.23199718
v -0.36464110 0.05760348 -0.37640846
v -0.25586462 0.05337872 -0.06950861
v -0.11917999 0.04557466 -0.06713660
v 0.07641073 0.05144440 -0.87557846
v -0.01423633 0.01697518 -0.75573915
v -0.10618866 0.03943986 -0.87611490
v 0.17173152 0.03986925 -0.50191891
v 0.09941230 0.02517997 -0.62585098
v 0.26494610 0.08260809 -0.65268803
v -0.22466925 0.02980813 -0.62034953
v -0.09350046 0.01475679 -0.60201472
v -0.14643727 0.01014722 -0.48058113
v 0.00631693 0.04575948 -0.22010636
v -0.07410050 0.04291797 -0.35041234
v 0.09830291 0.06794748 -0.35720900
v 0.58239794 0.19890001 -0.23059490
v 0.65083915 0.16947241 -0.10264935
v 0.49686784 0.07507207 -0.48583367
v 0.53513759 0.15715560 -0.37249798
v 0.86511612 0.05786006 -0.25425538
v 0.70632589 0.11758661 -0.29438189
v 0.79092121 0.05060307 -0.40066344
v 0.15808821 0.00000000 -1.02180719
v 0.23838684 0.00049959 -0.90811217
v 0.55758327 0.00000000 -0.89276159
v 0.40517077 0.00000000 -0.89694303
v 0.45144290 0.03005658 -0.99415213
v 0.33847663 0.03049746 -0.77806693
v 0.42318273 0.09814649 -0.64893144
v 0.93689996 0.20468810 -0.53457814
v 0.87744981 0.13605417 -0.64147562
v 0.84053254 0.24928001 -0.66448909
v 0.88807255 0.00000000 -0.52337170
v 0.91237879 0.05043074 -0.60762262
v 0.98406863 0.00000000 -0.43493760
v 0.67064750 0.11482511 -0.85356808
v 0.79874218 0.08022745 -0.75093091
v 0.71127504 0.00918319 -0.82474935
v 0.57173014 0.01119083 -0.60464782
v 0.66740644 0.00036362 -0.73667121
v 0.71903801 0.08019079 -0.54802120
v 0.75526100 0.13758469 0.01675452
v 0.99258858 0.01398368 -0.18475521
v 0.87664360 0.07043017 -0.07492991
v 0.88889349 0.05833473 0.10561645
v 0.97097480 0.00000000 0.18612346
v 0.97618699 0.31311151 -0.43111348
v 1.00662017 0.20148718 -0.39255819
v 1.06798542 0.18521482 -0.09038594
v 1.04939187 0.19199491 -0.23809521
v 1.05564618 0.30493802 -0.14463226
v 1.02846503 0.09496177 -0.34470111
v 1.03716624 0.05534569 -0.27731436
v 1.01076245 0.20222342 0.38136262
v 0.97457689 0.30632913 0.42688045
v 1.02067316 0.00518152 0.28182593
v 1.02032733 0.09067370 0.32385296
v 1.05661678 0.30591199 0.14364094
v 1.04753256 0.19423328 0.23035148
v 1.06652915 0.19032447 0.08491147
v 1.07332706 0.00000000 -0.09565374
v 1.07832289 0.07363216 -0.00277113
v 1.06551731 0.00000000 0.09766869
v 0.15570526 0.03056532 1.06146729
v 0.43659905 0.09206333 0.97732371
v 0.30367535 0.05800936 1.02916384
v 0.14660893 0.11657415 1.06125128
v 0.14090325 0.22857478 1.04925072
v 0.75985891 0.30766815 0.74464601
v 0.55141544 0.43839917 0.88373899
v 0.66057581 0.37486374 0.82281423
v 0.66721243 0.23594296 0.83859366
v 0.56590217 0.16896950 0.91560477
v 0.14048970 0.62128258 0.95834106
v 0.14216872 0.37313724 1.04368484
v 0.14212713 0.49746916 1.01063991
v 0.27906981 0.57095307 0.95353442
v 0.40755183 0.51268727 0.93047225
v 0.43252307 0.23041151 0.97823679
v 0.42636922 0.37058508 0.96374762
v 0.28316936 0.29986718 1.01977038
v -0.63188785 0.09699316 0.18753666
v -0.52659231 0.08418979 0.47506499
v -0.57893014 0.11704565 0.35198775
v -0.72405714 0.06148640 0.28314042
v -0.80884600 0.08215620 0.38799939
v -0.25858811 0.00180450 0.91120362
v -0.56512922 0.00000000 0.89644861
v -0.42968330 0.00004561 0.90546870
v -0.36231545 0.03774120 0.77847034
v -0.43565395 0.07089274 0.61921984
v -0.86516863 0.11609754 0.63059741
v -0.88746238 0.00000000 0.51453698
v -0.89603627 0.03018259 0.59531987
v -0.78697968 0.05515600 0.74273515
v -0.69971365 0.00014054 0.82327658
v -0.59940267 0.00623207 0.60105830
v -0.67559791 0.00030167 0.74059731
v -0.77711463 0.00179099 0.56515825
v -0.24970862 0.00677785 -0.87101012
v -0.39373913 0.07959612 -0.62349600
v -0.34597960 0.00164881 -0.72221494
v -0.40008140 0.00000000 -0.88289756
v -0.55093193 0.00000000 -0.88043964
v -0.62334555 0.06696479 -0.21230678
v -0.74118257 0.03986883 -0.42422935
v -0.67861027 0.16608316 -0.34494570
v -0.53879696 0.03308262 -0.36197910
v -0.47197881 0.03214199 -0.48633865
v -0.87877965 0.13906662 -0.62818438
v -0.70051134 0.01103174 -0.82171047
v -0.80356604 0.07612899 -0.73794067
v -0.91070867 0.06311935 -0.57838470
v -0.87236357 0.00000000 -0.52605599
v -0.55005765 0.11762266 -0.62716073
v -0.71336144 0.00421936 -0.59127724
v -0.65841043 0.00000000 -0.73928261
v 0.75435114 0.31665498 -0.74676210
v 0.56596214 0.18977076 -0.92037368
v 0.66336405 0.24706846 -0.83973104
v 0.65420461 0.38163862 -0.82100141
v 0.54666269 0.44781530 -0.88149804
v 0.15105082 0.04800952 -1.07038987
v 0.13795036 0.24279626 -1.06494844
v 0.14449845 0.14211676 -1.07964408
v 0.29857740 0.08069351 -1.04694593
v 0.42788717 0.12314523 -0.99783856
v 0.13730249 0.62108082 -0.95461005
v 0.40326771 0.51452333 -0.92721397
v 0.27536622 0.57148618 -0.94840628
v 0.13931602 0.50006282 -1.00798106
v 0.14147024 0.38130832 -1.04747772
v 0.43189117 0.24745433 -0.98030412
v 0.28414425 0.31344059 -1.02196527
v 0.42536685 0.38012338 -0.95954818
v 0.97705710 0.42425632 0.37666047
v 1.04580498 0.41879725 0.08440529
v 1.02480686 0.42385295 0.22931348
v 0.95791209 0.53997612 0.31176808
v 0.92250204 0.64553922 0.24430230
v 0.97370350 0.42400655 -0.37659267
v 0.91846848 0.64806759 -0.24761540
v 0.95604503 0.53882217 -0.31333575
v 1.01754427 0.42249811 -0.23096399
v 1.03830051 0.42206404 -0.08906338
v 0.70184314 0.92164737 -0.00028731
v 0.85736018 0.76242757 0.15891013
v 0.78659058 0.84787142 0.08302125
v 0.78698713 0.84568840 -0.08086047
v 0.85677654 0.76003188 -0.15776950
v 1.00616622 0.53918678 0.00045443
v 0.94321460 0.65719503 -0.08573256
v 0.94350779 0.65951973 0.08386057
f 330 87 329
f 336 325 26
f 207 208 56
f 464 36 580
f 502 129 504
f 157 624 622
f 308 311 82
f 247 223 248
f 507 483 508
f 331 88 329
f 494 500 497
f 156 601 602
f 591 589 592
f 365 98 596
f 75 281 282
f 152 587 577
f 149 559 560
f 555 121 553
f 530 141 529
f 515 517 139
f 361 594 98
f 250 67 249
f 157 608 609
f 294 293 209
f 317 81 316
f 557 338 26
f 303 305 81
f 530 529 528
f 101 381 382
f 415 418 111
f 192 184 50
f 412 110 411
f 20 384 256
f 131 594 486
f 281 264 282
f 347 287 348
f 28 349 582
f 165 163 1
f 248 250 66
f 617 107 398
f 273 271 274
f 456 115 453
f 558 561 560
f 335 576 91
f 331 177 332
f 116 433 436
f 351 370 92
f 136 511 530
f 239 240 65
f 247 258 19
f 304 23 567
f 148 557 570
f 214 208 58
f 440 426 450
f 268 270 269
f 258 247 268
f 204 202 16
f 466 125 465
f 517 513 133
f 168 275 274
f 275 73 274
f 198 193 53
f 309 308 307
f 510 511 136
f 415 416 110
f 131 490 597
f 473 475 474
f 414 415 111
f 493 495 494
f 496 504 485
f 433 116 432
f 600 375 601
f 240 234 65
f 418 415 412
f 486 361 3
f 567 566 304
f 380 393 29
f 17 199 197
f 491 492 132
f 451 449 435
f 218 217 216
f 623 621 613
f 396 104 395
f 433 439 436
f 628 160 627
f 215 202 217
f 209 207 2
f 427 113 424
f 434 10 544
f 434 433 432
f 199 17 210
f 150 564 565
f 489 491 132
f 275 13 285
f 497 500 134
f 125 466 476
f 578 152 577
f 208 214 211
f 328 88 343
f 356 27 603
f 150 566 567
f 372 100 371
f 190 191 47
f 235 8 398
f 260 261 72
f 422 403 414
f 422 414 111
f 453 454 123
f 349 583 582
f 521 520 519
f 425 453 115
f 616 622 158
f 483 130 508
f 151 586 572
f 212 17 232
f 400 397 402
f 377 396 99
f 41 522 511
f 510 508 505
f 549 547 42
f 475 473 36
f 510 137 509
f 222 221 197
f 430 115 429
f 220 194 1
f 305 54 204
f 621 29 613
f 192 171 184
f 460 335 5
f 88 331 332
f 74 277 279
f 300 301 80
f 390 389 388
f 165 45 164
f 146 549 551
f 291 278 75
f 448 120 445
f 147 543 544
f 607 610 609
f 603 602 356
f 139 529 514
f 333 553 443
f 92 368 347
f 261 260 259
f 300 6 200
f 46 177 331
f 284 283 174
f 301 300 200
f 471 468 474
f 54 305 301
f 302 304 303
f 569 150 567
f 150 569 570
f 294 209 2
f 628 629 160
f 548 543 147
f 147 625 627
f 63 233 234
f 426 427 114
f 41 509 532
f 198 52 196
f 614 105 612
f 147 627 547
f 81 305 306
f 549 548 547
f 54 301 200
f 342 88 332
f 264 281 70
f 193 194 53
f 455 429 456
f 187 321 14
f 479 130 484
f 147 544 625
f 458 456 453
f 304 80 303
f 314 84 313
f 488 503 501
f 321 332 14
f 423 425 424
f 305 204 306
f 341 339 25
f 514 40 516
f 625 628 627
f 340 339 341
f 105 614 391
f 243 228 62
f 318 316 78
f 75 278 279
f 357 355 353
f 238 257 63
f 466 455 476
f 425 423 4
f 448 449 120
f 408 638 108
f 292 275 285
f 22 278 289
f 515 513 517
f 501 503 134
f 622 623 158
f 134 503 504
f 195 216 206
f 163 271 246
f 619 617 620
f 62 228 229
f 163 165 164
f 453 425 454
f 489 132 488
f 82 628 625
f 58 208 209
f 525 608 40
f 626 547 627
f 518 517 498
f 489 487 491
f 557 26 564
f 325 336 344
f 541 145 539
f 40 616 516
f 338 556 89
f 250 248 245
f 139 514 515
f 98 594 596
f 246 220 1
f 112 413 630
f 9 536 413
f 156 600 601
f 332 177 14
f 321 342 332
f 156 606 600
f 584 330 585
f 302 303 81
f 584 87 330
f 330 25 585
f 400 239 65
f 439 440 117
f 95 358 368
f 597 594 131
f 594 361 486
f 246 67 245
f 561 562 149
f 28 364 362
f 55 216 217
f 427 430 114
f 267 20 254
f 556 555 553
f 84 309 558
f 311 310 312
f 609 525 142
f 256 68 255
f 124 460 461
f 82 311 312
f 307 308 82
f 589 135 495
f 527 40 514
f 112 418 412
f 20 256 254
f 258 238 19
f 267 254 269
f 273 272 249
f 392 391 393
f 137 533 509
f 122 455 456
f 9 413 411
f 130 480 505
f 333 443 5
f 527 525 40
f 589 495 385
f 39 496 485
f 223 225 224
f 414 416 415
f 219 222 53
f 145 538 539
f 413 412 411
f 469 468 467
f 183 181 6
f 191 192 50
f 429 35 431
f 292 285 76
f 413 112 412
f 415 110 412
f 43 164 167
f 467 468 126
f 617 101 620
f 450 451 117
f 438 546 545
f 619 620 159
f 17 212 210
f 124 579 576
f 584 153 583
f 460 124 576
f 3 469 467
f 311 308 314
f 6 320 183
f 389 104 388
f 251 250 249
f 194 165 1
f 291 289 278
f 287 77 348
f 238 258 257
f 139 517 518
f 238 236 19
f 223 247 19
f 382 380 29
f 39 518 498
f 361 359 3
f 69 255 257
f 139 518 528
f 33 545 535
f 387 385 7
f 69 268 269
f 477 462 125
f 454 479 123
f 121 555 447
f 451 435 117
f 454 425 4
f 233 252 8
f 124 463 464
f 69 258 268
f 168 167 166
f 583 153 582
f 384 394 102
f 138 512 513
f 57 210 211
f 254 256 255
f 607 609 142
f 324 319 86
f 289 291 76
f 291 292 76
f 384 102 383
f 422 421 420
f 221 17 197
f 383 102 381
f 376 377 99
f 99 373 374
f 386 105 392
f 438 33 440
f 90 341 343
f 281 75 279
f 574 571 96
f 628 82 312
f 221 222 59
f 127 471 474
f 595 605 603
f 551 538 145
f 334 91 340
f 322 324 85
f 305 303 301
f 18 239 399
f 306 204 16
f 199 198 197
f 166 190 180
f 303 80 301
f 267 266 265
f 626 42 547
f 16 215 213
f 349 351 350
f 295 16 213
f 68 379 252
f 250 251 66
f 627 160 626
f 383 68 256
f 343 88 342
f 507 508 136
f 202 215 16
f 197 198 53
f 254 69 269
f 603 605 156
f 418 419 111
f 384 383 256
f 455 122 476
f 203 204 54
f 556 557 148
f 255 68 253
f 313 84 560
f 25 328 341
f 254 255 69
f 603 156 602
f 581 584 583
f 630 632 112
f 163 246 1
f 246 245 220
f 432 116 558
f 499 591 590
f 320 563 86
f 345 93 350
f 306 16 295
f 346 93 345
f 562 568 149
f 604 605 155
f 154 592 593
f 545 552 535
f 511 522 530
f 574 573 571
f 566 150 565
f 361 98 360
f 67 271 273
f 234 235 65
f 208 211 56
f 574 151 573
f 251 270 66
f 398 8 378
f 213 215 214
f 438 440 439
f 315 314 313
f 263 71 262
f 20 373 384
f 496 134 504
f 329 88 328
f 81 306 316
f 555 556 148
f 592 589 103
f 617 619 107
f 227 207 56
f 571 359 96
f 446 466 465
f 206 216 55
f 359 571 469
f 568 148 570
f 34 437 435
f 28 351 349
f 21 272 282
f 113 423 424
f 490 489 488
f 379 68 383
f 210 212 211
f 80 563 300
f 351 92 350
f 326 346 12
f 83 317 318
f 555 148 554
f 212 231 56
f 218 57 217
f 271 67 246
f 195 196 52
f 270 268 66
f 390 592 103
f 148 568 554
f 495 493 7
f 592 390 593
f 357 95 355
f 574 575 151
f 452 120 451
f 154 591 592
f 587 585 577
f 395 394 396
f 93 349 350
f 610 416 611
f 166 44 190
f 315 23 302
f 315 302 317
f 268 247 66
f 606 154 593
f 396 394 99
f 211 212 56
f 370 369 368
f 235 397 65
f 280 278 22
f 83 315 317
f 575 588 151
f 74 279 280
f 385 495 7
f 63 257 253
f 397 235 398
f 214 58 213
f 220 219 194
f 546 146 545
f 236 225 19
f 599 94 602
f 235 233 8
f 102 394 395
f 611 416 32
f 225 223 19
f 139 528 529
f 231 62 229
f 419 406 421
f 451 450 452
f 49 182 185
f 402 397 107
f 52 199 218
f 416 610 110
f 225 236 244
f 107 397 398
f 68 252 253
f 322 85 321
f 182 181 183
f 118 438 439
f 546 438 118
f 348 77 345
f 543 546 118
f 231 212 232
f 610 611 157
f 33 438 545
f 385 386 103
f 479 480 130
f 169 195 15
f 93 583 349
f 15 195 206
f 190 44 192
f 247 248 66
f 146 552 545
f 248 60 245
f 570 557 564
f 274 271 43
f 63 253 233
f 272 21 249
f 507 528 518
f 67 273 249
f 487 467 126
f 196 195 169
f 624 159 623
f 134 496 497
f 132 503 488
f 104 393 395
f 556 553 89
f 355 356 94
f 258 69 257
f 229 61 227
f 56 231 227
f 460 576 335
f 463 124 461
f 394 373 99
f 29 393 391
f 67 250 245
f 193 198 196
f 462 36 464
f 144 633 630
f 141 526 527
f 517 133 498
f 536 144 630
f 100 372 599
f 144 536 537
f 22 289 287
f 578 579 152
f 579 578 576
f 189 188 187
f 60 223 224
f 92 348 350
f 555 554 447
f 396 377 388
f 194 193 165
f 413 536 630
f 372 352 599
f 377 376 375
f 348 345 350
f 105 386 387
f 240 237 234
f 463 462 464
f 135 500 494
f 45 196 169
f 512 612 387
f 245 60 220
f 429 115 456
f 223 60 248
f 288 289 76
f 525 526 142
f 100 599 601
f 613 29 391
f 526 523 520
f 341 328 343
f 631 641 639
f 264 21 282
f 266 72 265
f 106 402 403
f 73 273 274
f 186 206 205
f 381 379 383
f 52 216 195
f 410 18 399
f 290 272 73
f 72 371 374
f 526 525 527
f 115 430 424
f 498 497 496
f 621 382 29
f 543 118 434
f 214 215 57
f 522 141 530
f 511 510 509
f 352 94 599
f 493 512 7
f 90 340 341
f 169 171 170
f 605 604 606
f 219 60 224
f 104 389 392
f 359 469 3
f 186 49 185
f 222 219 224
f 166 167 44
f 428 427 426
f 523 522 524
f 129 502 481
f 50 185 188
f 164 45 170
f 425 115 424
f 33 428 426
f 427 428 113
f 94 356 602
f 515 138 513
f 114 431 452
f 237 236 238
f 215 217 57
f 95 354 355
f 220 60 219
f 515 514 516
f 183 320 319
f 222 197 53
f 559 569 567
f 300 320 6
f 435 436 117
f 96 360 363
f 640 642 641
f 242 243 62
f 140 537 519
f 508 130 505
f 420 410 399
f 537 539 144
f 317 316 318
f 426 114 450
f 186 15 206
f 311 83 310
f 625 544 307
f 544 10 307
f 168 43 167
f 185 182 188
f 369 354 95
f 44 171 192
f 605 606 156
f 548 549 146
f 100 601 375
f 149 568 569
f 381 380 382
f 455 466 35
f 480 479 454
f 543 548 546
f 493 133 513
f 492 472 37
f 477 125 476
f 491 487 126
f 337 336 338
f 588 153 587
f 576 578 91
f 633 161 632
f 96 359 360
f 39 485 483
f 101 617 378
f 193 45 165
f 163 164 43
f 618 624 611
f 507 136 528
f 561 149 560
f 641 162 639
f 116 561 558
f 494 133 493
f 253 252 233
f 63 237 238
f 392 393 104
f 440 450 117
f 93 581 583
f 386 385 387
f 120 449 451
f 421 422 111
f 486 3 467
f 302 81 317
f 633 632 630
f 462 475 36
f 376 99 374
f 489 490 131
f 447 449 448
f 387 612 105
f 106 420 399
f 173 46 172
f 492 491 472
f 316 306 295
f 22 287 347
f 109 410 420
f 507 39 483
f 559 23 313
f 214 57 211
f 196 45 193
f 10 434 432
f 422 106 403
f 626 160 640
f 487 486 467
f 542 41 532
f 400 106 399
f 444 120 452
f 198 199 52
f 475 127 474
f 621 620 382
f 621 623 159
f 450 114 452
f 92 347 348
f 376 100 375
f 434 118 433
f 503 132 502
f 337 90 336
f 537 536 519
f 395 393 380
f 201 54 200
f 171 44 170
f 355 94 353
f 58 296 213
f 422 420 106
f 595 365 596
f 569 568 570
f 523 140 520
f 114 430 431
f 218 210 57
f 304 566 80
f 639 162 638
f 261 371 72
f 548 147 547
f 498 133 497
f 150 570 564
f 222 224 59
f 142 526 520
f 437 436 435
f 141 522 523
f 137 510 505
f 173 179 176
f 559 149 569
f 121 447 448
f 563 320 300
f 102 395 380
f 257 255 253
f 642 162 641
f 83 311 314
f 216 52 218
f 512 493 513
f 23 304 302
f 91 339 340
f 512 138 612
f 159 620 621
f 218 199 210
f 364 28 575
f 83 318 310
f 168 274 43
f 136 530 528
f 140 523 524
f 495 135 494
f 233 235 234
f 566 563 80
f 25 339 577
f 277 74 276
f 475 462 477
f 133 494 497
f 436 437 116
f 389 386 392
f 548 146 546
f 441 460 5
f 10 309 307
f 65 397 400
f 543 434 544
f 640 641 161
f 272 273 73
f 581 93 346
f 419 421 111
f 319 320 86
f 180 179 178
f 127 475 477
f 231 229 227
f 337 334 340
f 136 508 510
f 308 309 84
f 237 63 234
f 447 554 34
f 252 379 378
f 315 83 314
f 608 622 616
f 338 336 26
f 337 338 89
f 13 275 168
f 209 208 207
f 436 439 117
f 628 312 629
f 360 366 363
f 364 574 96
f 359 361 360
f 466 446 35
f 500 501 134
f 406 109 421
f 135 589 591
f 601 599 602
f 340 90 337
f 481 492 37
f 522 41 524
f 78 316 295
f 131 486 487
f 403 32 414
f 634 626 640
f 151 572 573
f 515 516 138
f 8 252 378
f 265 72 374
f 9 521 519
f 538 549 42
f 368 358 347
f 588 587 586
f 458 453 123
f 589 385 103
f 502 492 481
f 32 416 414
f 430 427 424
f 153 585 587
f 540 144 539
f 370 368 92
f 209 293 58
f 428 33 535
f 326 581 346
f 625 307 82
f 575 28 582
f 6 181 200
f 421 109 420
f 553 121 443
f 160 642 640
f 153 584 585
f 309 432 558
f 334 337 89
f 23 315 313
f 271 163 43
f 296 295 213
f 39 498 496
f 118 439 433
f 531 113 534
f 293 296 58
f 28 362 351
f 489 131 487
f 431 444 452
f 84 558 560
f 98 366 360
f 45 169 170
f 379 101 378
f 462 463 125
f 308 84 314
f 10 432 309
f 299 24 310
f 132 492 502
f 512 387 7
f 639 638 408
f 565 323 86
f 59 244 242
f 106 400 402
f 440 33 426
f 566 565 563
f 617 398 378
f 224 225 59
f 410 109 409
f 239 400 399
f 194 219 53
f 358 22 347
f 610 157 609
f 27 595 603
f 479 484 482
f 142 520 521
f 585 25 577
f 339 578 577
f 408 407 406
f 407 109 406
f 31 408 406
f 407 408 108
f 31 639 408
f 419 31 406
f 608 616 40
f 430 429 431
f 455 35 429
f 35 444 431
f 188 51 187
f 188 182 51
f 51 322 187
f 322 51 319
f 51 182 183
f 319 51 183
f 187 322 321
f 322 319 324
f 381 101 379
f 405 407 108
f 404 405 108
f 286 285 178
f 407 405 409
f 109 407 409
f 191 175 47
f 167 164 170
f 50 184 185
f 44 167 170
f 64 244 236
f 243 244 64
f 50 188 189
f 541 542 145
f 442 445 119
f 339 91 578
f 445 446 119
f 624 623 622
f 611 624 157
f 523 526 141
f 141 527 529
f 527 514 529
f 445 120 444
f 446 445 444
f 35 446 444
f 613 614 158
f 158 614 615
f 623 613 158
f 614 613 391
f 614 612 615
f 371 376 374
f 100 376 371
f 479 482 123
f 373 394 384
f 540 42 634
f 633 540 634
f 538 42 540
f 633 634 161
f 161 634 640
f 42 626 634
f 540 633 144
f 557 556 338
f 553 333 89
f 262 21 264
f 251 21 262
f 5 335 333
f 270 251 262
f 21 251 249
f 600 593 30
f 606 593 600
f 600 30 375
f 593 390 30
f 30 377 375
f 390 388 30
f 30 388 377
f 228 243 241
f 470 478 459
f 470 127 478
f 127 477 478
f 184 186 185
f 478 477 476
f 122 478 476
f 357 74 280
f 518 39 507
f 344 342 85
f 325 344 85
f 342 344 343
f 85 342 321
f 344 90 343
f 90 344 336
f 482 129 481
f 482 481 457
f 482 457 123
f 481 37 457
f 449 447 34
f 435 449 34
f 470 472 471
f 472 470 37
f 470 471 127
f 472 126 471
f 126 468 471
f 470 459 37
f 491 126 472
f 504 129 485
f 221 59 242
f 125 463 465
f 437 34 562
f 561 437 562
f 554 568 562
f 34 554 562
f 437 561 116
f 390 103 389
f 103 386 389
f 392 105 391
f 572 586 580
f 572 580 36
f 586 152 580
f 473 572 36
f 244 243 242
f 225 244 59
f 64 240 241
f 240 239 241
f 237 240 64
f 243 64 241
f 236 237 64
f 411 607 521
f 9 411 521
f 110 607 411
f 607 142 521
f 610 607 110
f 171 15 184
f 171 169 15
f 15 186 184
f 87 584 581
f 153 588 582
f 588 575 582
f 381 102 380
f 573 572 473
f 468 469 128
f 474 468 128
f 469 571 128
f 571 573 128
f 573 473 128
f 473 474 128
f 564 323 565
f 26 323 564
f 323 324 86
f 325 323 26
f 325 324 323
f 563 565 86
f 324 325 85
f 410 230 18
f 230 228 18
f 18 228 241
f 18 241 239
f 401 619 618
f 401 402 107
f 403 402 401
f 619 159 618
f 401 618 32
f 619 401 107
f 403 401 32
f 618 611 32
f 159 624 618
f 478 122 459
f 122 458 459
f 37 459 457
f 459 458 457
f 122 456 458
f 457 458 123
f 191 190 192
f 485 129 484
f 129 482 484
f 483 485 484
f 130 483 484
f 189 187 14
f 191 50 189
f 191 189 175
f 189 14 175
f 14 177 175
f 499 501 500
f 501 499 38
f 38 499 590
f 135 499 500
f 488 501 38
f 499 135 591
f 480 454 4
f 284 12 346
f 4 423 506
f 480 4 506
f 423 531 506
f 480 506 505
f 531 137 506
f 506 137 505
f 365 366 98
f 71 270 262
f 270 71 269
f 71 267 269
f 335 334 333
f 333 334 89
f 334 335 91
f 536 9 519
f 465 463 461
f 537 140 541
f 520 140 519
f 119 446 465
f 465 461 119
f 461 441 119
f 460 441 461
f 176 46 173
f 299 297 24
f 71 263 266
f 263 260 266
f 260 72 266
f 263 70 260
f 205 201 49
f 201 181 49
f 186 205 49
f 181 201 200
f 181 182 49
f 284 77 283
f 586 587 152
f 588 586 151
f 20 267 265
f 266 267 71
f 31 417 631
f 631 417 632
f 31 631 639
f 417 31 419
f 641 631 161
f 417 112 632
f 161 631 632
f 418 417 419
f 417 418 112
f 284 345 77
f 542 550 145
f 542 541 524
f 284 174 12
f 48 174 283
f 373 20 265
f 373 265 374
f 609 608 525
f 608 157 622
f 560 559 313
f 636 637 162
f 541 140 524
f 41 542 524
f 358 357 280
f 70 263 264
f 263 262 264
f 176 177 46
f 174 48 173
f 174 173 172
f 538 551 549
f 538 540 539
f 537 541 539
f 232 221 242
f 17 221 232
f 232 242 62
f 231 232 62
f 203 205 55
f 203 55 202
f 201 205 203
f 202 55 217
f 205 206 55
f 204 203 202
f 73 275 292
f 292 290 73
f 272 290 282
f 290 292 291
f 75 290 291
f 290 75 282
f 70 277 259
f 277 70 281
f 277 281 279
f 260 70 259
f 12 174 172
f 104 396 388
f 367 27 354
f 365 27 367
f 354 27 356
f 365 367 366
f 595 27 365
f 318 299 310
f 155 596 597
f 155 597 598
f 596 594 597
f 595 596 155
f 605 595 155
f 180 47 179
f 180 190 47
f 352 372 11
f 11 372 261
f 312 310 24
f 642 636 162
f 636 297 637
f 367 369 97
f 366 367 97
f 369 367 354
f 369 370 97
f 580 579 464
f 580 152 579
f 579 124 464
f 61 230 409
f 230 410 409
f 230 61 229
f 230 229 228
f 76 285 286
f 353 352 276
f 74 353 276
f 288 76 286
f 288 286 283
f 289 288 287
f 203 54 201
f 287 288 77
f 77 288 283
f 286 48 283
f 531 423 113
f 276 11 259
f 11 261 259
f 277 276 259
f 616 158 615
f 516 616 615
f 138 516 615
f 138 615 612
f 509 533 532
f 503 502 504
f 635 79 294
f 635 294 404
f 635 637 79
f 637 635 638
f 638 635 108
f 635 404 108
f 226 61 405
f 61 226 227
f 405 61 409
f 227 226 207
f 48 178 179
f 48 286 178
f 173 48 179
f 534 143 533
f 534 535 143
f 531 534 533
f 533 143 532
f 137 531 533
f 261 372 371
f 13 180 178
f 285 13 178
f 180 13 166
f 13 168 166
f 346 345 284
f 331 327 46
f 46 327 172
f 172 327 326
f 382 620 101
f 442 121 448
f 443 121 442
f 2 226 404
f 294 2 404
f 404 226 405
f 207 226 2
f 550 551 145
f 552 146 551
f 143 550 532
f 552 550 143
f 330 329 328
f 24 636 629
f 94 352 353
f 352 11 276
f 113 428 534
f 428 535 534
f 509 41 511
f 535 552 143
f 550 552 551
f 550 542 532
f 369 95 368
f 326 327 87
f 87 327 329
f 327 331 329
f 581 326 87
f 293 79 298
f 79 297 298
f 296 298 78
f 79 293 294
f 296 293 298
f 598 490 38
f 358 280 22
f 280 279 278
f 357 358 95
f 74 357 353
f 330 328 25
f 567 23 559
f 590 598 38
f 590 604 598
f 598 604 155
f 604 590 154
f 590 591 154
f 604 154 606
f 297 299 298
f 299 318 78
f 298 299 78
f 355 354 356
f 629 636 642
f 312 24 629
f 629 642 160
f 370 362 97
f 362 363 97
f 363 366 97
f 364 363 362
f 362 370 351
f 96 363 364
f 297 636 24
f 162 637 638
f 637 297 79
f 490 488 38
f 598 597 490
f 441 442 119
f 443 442 441
f 443 441 5
f 442 448 445
f 296 78 295
f 326 12 172
f 575 574 364
f 47 175 176
f 175 177 176
f 47 176 179
