# FEM surface export ¡ª frame 882
# Vertices: 642  Faces: 1280
v -0.55793029 0.85758716 -0.03189252
v 0.48584345 0.94290495 -0.01106705
v -0.50062877 0.75530589 0.03116142
v 0.59362471 0.58368778 0.02219248
v 0.03837595 0.34344956 0.84359604
v -0.06115875 0.59493381 0.83121973
v -0.00176465 0.44443318 -0.86869389
v 0.01716225 0.53713518 -0.85218048
v 0.87706119 0.08366774 -0.55153602
v 0.86545533 0.16681390 0.53579193
v -0.89142662 0.06421315 -0.55670053
v -0.86591560 0.07943415 0.53005093
v -0.79898608 0.52862120 0.29181159
v -0.49513990 0.34271422 0.77948791
v -0.37734419 0.86933094 0.47555491
v 0.23701082 0.92853057 0.48537230
v -0.06527352 1.09370077 -0.04568474
v 0.30428782 0.85390985 -0.52607775
v -0.30188903 0.83035123 -0.52077675
v -0.49806827 0.38220438 -0.80218107
v -0.80219084 0.50190574 -0.30629188
v -1.02912164 0.13920900 0.01894982
v 0.46785375 0.46626195 0.82222080
v 0.75851238 0.61585152 0.31573316
v -0.50235170 0.17842935 0.81318247
v 0.00292110 0.11720230 1.03173769
v -0.78914011 0.39729112 -0.24995378
v -0.79681146 0.46167421 0.34346846
v 0.01087142 0.08153024 -1.03088367
v -0.49149966 0.17105886 -0.77279383
v 0.77534246 0.56751370 -0.29748106
v 0.50330454 0.33375141 -0.79162276
v 0.84180480 0.19835447 0.26649752
v 0.53830963 0.15484010 0.81590509
v 0.40693647 0.53679013 0.49335393
v -0.21947274 0.66860759 0.52250028
v 0.03476370 0.50691497 0.06238210
v -0.33234295 0.57543039 -0.46835983
v 0.32170284 0.65750664 -0.45473745
v 0.49085608 0.22741660 -0.83613652
v 0.85859752 0.37976068 -0.30582210
v 1.01602685 0.14917624 0.01965896
v -0.70066243 0.70470446 0.15452069
v -0.62009907 0.69344676 0.42682308
v -0.49084356 0.89381069 0.23682494
v -0.68766850 0.20330609 0.65626371
v -0.67058903 0.39719436 0.55725121
v -0.84251356 0.31009120 0.41997281
v -0.21631370 0.75260806 0.66326189
v -0.43599534 0.61469543 0.65174037
v -0.28615353 0.50123227 0.83423930
v -0.24597692 1.04826450 0.22204383
v -0.34533805 1.02710235 -0.04199819
v 0.08336072 0.78322995 0.67974460
v -0.06878077 0.94847572 0.48838758
v 0.23045513 1.06007767 -0.02501014
v 0.09922191 1.06031859 0.22662945
v 0.37805632 0.97210729 0.24764539
v -0.21046820 1.00362539 -0.29174501
v -0.45757103 0.88262230 -0.28621754
v 0.40565217 0.93914849 -0.27935606
v 0.11686281 1.02171397 -0.30053332
v -0.14301990 0.70817232 -0.71329713
v -0.01355675 0.88943785 -0.54405785
v 0.15187681 0.71981025 -0.71612489
v -0.57142317 0.68829209 -0.43486911
v -0.69356322 0.68887663 -0.18729673
v -0.23153611 0.44941059 -0.84216881
v -0.39425743 0.59346110 -0.68717360
v -0.84911120 0.30834612 -0.43633127
v -0.65965736 0.45903787 -0.58160865
v -0.72154880 0.25574747 -0.72795641
v -0.84798837 0.55958873 -0.00920005
v -1.01075172 0.06567469 -0.27424464
v -0.96270418 0.30685267 -0.16115586
v -0.94276857 0.33507350 0.15675397
v -0.95901662 0.19133049 0.26342484
v 0.51729518 0.79743701 0.42056873
v 0.65566075 0.80008006 0.15987250
v 0.19742548 0.52809119 0.85325098
v 0.33185160 0.70435846 0.67458725
v 0.83738434 0.41654944 0.44121882
v 0.62816405 0.57526594 0.60441768
v 0.70547581 0.35231295 0.71354848
v -0.26819170 0.27320111 0.97773427
v -0.01622703 0.35812327 0.97579545
v -0.70705670 0.06762052 0.70814514
v -0.54006082 0.08023482 0.87055224
v -0.00807017 0.12711352 0.98399204
v -0.29203936 0.00139722 0.96195096
v -0.24226417 0.30310279 0.87887537
v -0.92873347 0.21398295 0.16158214
v -0.88337219 0.25591764 0.46030328
v -0.84004784 0.18679807 -0.39715827
v -0.96884006 0.14555195 -0.11553497
v -0.66473371 0.60933530 0.19602752
v -0.82704920 0.46896774 0.02852497
v -0.68604749 0.61728799 -0.14120615
v -0.54077387 0.12015775 -0.89873749
v -0.67951536 0.00000000 -0.68233359
v 0.00704764 0.30551371 -0.93447584
v -0.24686952 0.24304892 -0.96753258
v -0.28500485 0.34222236 -0.85262311
v -0.26401794 0.10981224 -0.99951011
v -0.00021109 0.25118876 -1.00393283
v 0.42863223 0.62928945 -0.67806059
v 0.27562523 0.46708897 -0.84604269
v 0.68102366 0.77178800 -0.14998846
v 0.58493763 0.74640757 -0.41568545
v 0.70743716 0.19627613 -0.67317325
v 0.68014753 0.45531389 -0.57583153
v 0.84397459 0.33059651 -0.41872028
v 0.72107679 0.41828892 0.16773069
v 0.63988328 0.36186615 0.38744059
v 0.50872886 0.54854244 0.23393655
v 0.74042857 0.03651232 0.69848067
v 0.74869800 0.15926813 0.55853617
v 0.87435907 0.14093028 0.35134313
v 0.22633079 0.49079907 0.69990355
v 0.45324340 0.34478176 0.69008213
v 0.30393934 0.24996629 0.89684415
v 0.25374758 0.70294654 0.25933656
v 0.34886050 0.55421782 0.03476497
v -0.08701381 0.50006145 0.70736629
v 0.09011460 0.64753705 0.53932863
v -0.20946641 0.59742278 0.06065707
v -0.07470580 0.71984768 0.31323600
v -0.35514322 0.73716587 0.29602957
v 0.16801657 0.59766394 -0.24813583
v 0.43562594 0.65544748 -0.19278559
v -0.42836475 0.70753294 -0.20160651
v -0.15813404 0.55852830 -0.22244848
v 0.13918118 0.55808932 -0.69592673
v -0.00230836 0.65863979 -0.50839621
v -0.19970338 0.57527721 -0.68896604
v 0.58937740 0.58559626 -0.39514276
v 0.73913682 0.47599846 -0.15338653
v 0.24828234 0.31925455 -0.89803284
v 0.42926329 0.49156004 -0.69684845
v 0.87365341 0.22582248 -0.45806962
v 0.66790670 0.37423682 -0.61689240
v 0.73114753 0.11761923 -0.74065638
v 0.89385366 0.32848027 -0.00149759
v 0.98709702 0.14929293 -0.27421999
v 0.96921170 0.11778662 -0.19934443
v 0.99510354 0.02751664 0.11754226
v 0.99237490 0.16179931 0.30919713
v 0.28501168 0.02034467 1.01520157
v 0.54259813 0.17141378 0.88796860
v 0.25526005 0.31193924 0.97405523
v -0.54625714 0.59068084 0.46226546
v -0.37157288 0.44927275 0.69840020
v -0.69882792 0.37256223 0.64093077
v -0.44206044 0.45250240 -0.70207787
v -0.60566348 0.59504116 -0.40759057
v -0.68823379 0.28111228 -0.54425377
v 0.52668786 0.05854565 -0.86701274
v 0.23790698 0.05657903 -0.98606157
v 0.28946784 0.24605915 -0.95763129
v 0.93526006 0.40010014 0.16366555
v 0.92043138 0.36278287 -0.16387771
v 0.83325005 0.61538917 0.00585045
v -0.64099187 0.78290278 0.05132245
v -0.61675119 0.80102998 0.18808042
v -0.53766632 0.88162237 0.10235207
v -0.71642089 0.58102024 0.37376246
v -0.66607016 0.69414389 0.29488063
v -0.75336480 0.61759424 0.23339930
v -0.44100884 0.88962513 0.36018056
v -0.56899017 0.79409927 0.32175305
v -0.51116818 0.78157949 0.43614462
v -0.77218246 0.14259198 0.59533989
v -0.79344010 0.22252585 0.56041843
v -0.86279756 0.18611841 0.47389153
v -0.58799595 0.37422433 0.66941655
v -0.68413126 0.30167273 0.61735213
v -0.59485173 0.25783756 0.72604942
v -0.81295514 0.41938776 0.35994288
v -0.76035810 0.33923802 0.51593590
v -0.74116302 0.44380766 0.44197881
v -0.13727336 0.68065476 0.75110042
v -0.24643156 0.62271911 0.75243014
v -0.17740813 0.55451089 0.84538573
v -0.40661737 0.74789888 0.57193589
v -0.33367258 0.70017314 0.66790259
v -0.28663772 0.82708955 0.57809377
v -0.38330939 0.40946192 0.81239069
v -0.35921934 0.55073851 0.74670827
v -0.47089699 0.47831711 0.72262317
v -0.65472770 0.54895234 0.50028932
v -0.56350571 0.51777279 0.62007916
v -0.53402579 0.65593410 0.53713500
v -0.43522778 0.96686667 0.09296501
v -0.46020100 0.95102775 -0.04383876
v -0.31840748 0.96572936 0.34493965
v -0.38106546 0.98070687 0.23035780
v -0.20855799 1.06473243 -0.03882952
v -0.30941707 1.04462826 0.09082525
v -0.16295005 1.08880329 0.09195624
v 0.01333254 0.69262999 0.76126450
v -0.06182856 0.77870691 0.68429047
v 0.08621852 0.94771862 0.49074182
v 0.00497678 0.87123930 0.59246868
v 0.15002629 0.86090600 0.58973646
v -0.14102505 0.86172640 0.59273583
v -0.22325398 0.92594665 0.48620883
v 0.35939372 1.01352954 -0.02376714
v 0.30753991 1.02941787 0.10853597
v 0.43448448 0.96521723 0.11710163
v 0.01359891 1.09590650 0.08901072
v 0.16039537 1.07121789 0.10175867
v 0.08607467 1.08681524 -0.03420440
v 0.30649585 0.96113348 0.36532661
v 0.24277599 1.02638054 0.23861566
v 0.17431837 1.01353931 0.36412159
v -0.15742074 1.01324606 0.35925710
v 0.01873172 1.03062987 0.36775100
v -0.07004505 1.07989240 0.22843663
v -0.40297335 0.96416801 -0.17088950
v -0.51225913 0.88112289 -0.16468793
v -0.14477424 1.05859041 -0.17404194
v -0.27535009 1.02082515 -0.17076543
v -0.38855788 0.86272740 -0.40736473
v -0.33890578 0.94655114 -0.29728428
v -0.25725639 0.92574728 -0.40654621
v 0.45594367 0.94847834 -0.14475690
v 0.32551396 1.01430011 -0.15905552
v 0.22098655 0.94749445 -0.41648176
v 0.26839700 0.99155629 -0.29727054
v 0.36100459 0.90264606 -0.40123469
v 0.18072560 1.04305494 -0.16728666
v 0.03583377 1.06414402 -0.16499557
v -0.06227775 0.62753683 -0.78246772
v 0.00982411 0.72915441 -0.72621614
v 0.07914971 0.62856221 -0.79636002
v -0.15967524 0.87628257 -0.54823643
v -0.07585644 0.81153232 -0.64049733
v -0.22721362 0.77674049 -0.62804472
v 0.22172557 0.79581517 -0.62471062
v 0.07471139 0.82187521 -0.63518167
v 0.14483893 0.88610464 -0.54127616
v -0.04991275 1.03057539 -0.29990354
v 0.05427826 0.96737564 -0.43009591
v -0.11063473 0.95985192 -0.42303103
v -0.58115506 0.79348940 -0.23897035
v -0.62560946 0.78037751 -0.11391067
v -0.44451314 0.76215726 -0.48905808
v -0.51654643 0.79001170 -0.36741418
v -0.75435233 0.59367466 -0.24634974
v -0.64156872 0.69922340 -0.31725079
v -0.69099504 0.59841454 -0.37601891
v -0.11378908 0.50402993 -0.85245609
v -0.19045621 0.57530433 -0.78971642
v -0.45520285 0.47688803 -0.74541265
v -0.33350196 0.52693802 -0.77968001
v -0.35912696 0.42050347 -0.82236296
v -0.27434918 0.65149462 -0.71495456
v -0.35020486 0.70992297 -0.61211777
v -0.88553226 0.19795555 -0.50076592
v -0.80416614 0.27160180 -0.58702731
v -0.80697185 0.17236190 -0.64014304
v -0.72196209 0.49433911 -0.44941860
v -0.76797998 0.39807382 -0.51865631
v -0.82429308 0.42103761 -0.37524292
v -0.60871977 0.30770576 -0.77047271
v -0.70753050 0.37216067 -0.65757960
v -0.58997017 0.40223253 -0.70400226
v -0.48244387 0.65059161 -0.57177538
v -0.52263778 0.52307791 -0.64083868
v -0.60430700 0.58379501 -0.51744044
v -0.70487458 0.72137344 -0.02205224
v -0.83285469 0.52760816 -0.16065581
v -0.77500165 0.62629199 -0.09427452
v -0.77811033 0.64091122 0.07016592
v -0.82285345 0.55697596 0.13422927
v -0.94974262 0.05537293 -0.41600797
v -0.95064026 0.19189830 -0.35583058
v -1.01709759 0.19792807 -0.09249968
v -1.00065601 0.18473651 -0.23320039
v -1.03930795 0.08028889 -0.12759104
v -0.90078807 0.31559035 -0.30174974
v -0.89520144 0.41148388 -0.24535702
v -0.92161804 0.23037690 0.37391368
v -0.94631940 0.15730202 0.38695011
v -0.88604933 0.43739057 0.22244327
v -0.89361769 0.34498343 0.29581851
v -1.03249133 0.11000540 0.14310789
v -0.97098464 0.22839107 0.23126511
v -1.00635350 0.23618409 0.08617844
v -0.90939522 0.44700673 -0.09000646
v -0.98418862 0.33268031 -0.00237258
v -0.91907996 0.44706661 0.07090963
v 0.52069902 0.89371485 0.20206058
v 0.57731497 0.87820178 0.07567339
v 0.38077798 0.87356013 0.45882004
v 0.44933537 0.88793552 0.33142704
v 0.71469414 0.70676684 0.23509239
v 0.59295326 0.81123012 0.29085237
v 0.65004534 0.71415573 0.37191072
v 0.06506465 0.56808245 0.85585541
v 0.12594083 0.64808601 0.76893479
v 0.39193606 0.59917569 0.75288945
v 0.26126754 0.62305480 0.77148175
v 0.33297592 0.49843934 0.83944625
v 0.20514999 0.74162167 0.69113022
v 0.27871776 0.81355149 0.58331144
v 0.86707699 0.29844683 0.50469828
v 0.77189219 0.38731065 0.58736742
v 0.79657906 0.25545672 0.62675714
v 0.70708293 0.60263479 0.46391445
v 0.73979121 0.50533342 0.53006834
v 0.80170500 0.52097481 0.38044727
v 0.58089828 0.39214954 0.77670491
v 0.67039859 0.46710271 0.66993403
v 0.55390382 0.52999157 0.72616702
v 0.43304500 0.75176322 0.55443078
v 0.48849323 0.65089446 0.64727741
v 0.58133441 0.68002212 0.51211077
v -0.15913703 0.42327279 0.92214757
v -0.05535504 0.47047919 0.90667439
v -0.39645511 0.29206172 0.88365859
v -0.28554654 0.37317747 0.91073608
v 0.00598468 0.24082161 1.01672173
v -0.14162455 0.30608380 0.98924392
v -0.14981766 0.18275206 1.02690589
v -0.81269228 0.01787518 0.62202072
v -0.72754735 0.08997947 0.68046635
v -0.56396955 0.08611579 0.86096406
v -0.66358870 0.00046710 0.81367612
v -0.63791984 0.12312486 0.76660568
v -0.62422365 0.11603479 0.78407580
v -0.52135217 0.19409776 0.82184881
v 0.02636317 0.22396599 0.90352553
v -0.14005424 0.21098058 0.94079804
v -0.11224494 0.30225971 0.89308113
v -0.15747908 0.05413011 1.06148505
v -0.15792628 0.05861707 0.98412985
v 0.00708152 0.01773143 1.03925323
v -0.36924800 0.25012898 0.84685796
v -0.26805747 0.17108764 0.91357291
v -0.40171793 0.12223414 0.89408869
v -0.40326959 0.16057958 0.93022698
v -0.43137556 0.01012688 0.95345885
v -0.28407207 0.12145751 1.00879049
v -0.94225687 0.11332062 0.37646869
v -0.93382728 0.14374541 0.52309823
v -0.90997660 0.02249798 0.14781696
v -0.99808937 0.09301458 0.23775637
v -0.83355391 0.36955118 0.38460669
v -0.92557257 0.22737028 0.30333343
v -0.89895040 0.35581711 0.24796355
v -0.87749249 0.04832334 -0.47353646
v -0.92614532 0.07645287 -0.33937126
v -0.87781084 0.28884244 -0.17306525
v -0.88053334 0.15219609 -0.24696556
v -0.78681159 0.27231607 -0.29505467
v -1.00057149 0.05746139 -0.19391301
v -1.02035213 0.04001217 -0.04555812
v -0.59041584 0.69430798 0.10732434
v -0.68506747 0.63620406 0.01982603
v -0.59547973 0.70737219 -0.06854521
v -0.84087998 0.45857304 0.17201804
v -0.76331270 0.54729092 0.11206556
v -0.76144975 0.53127843 0.26491663
v -0.76091284 0.51718509 -0.21082956
v -0.76322156 0.54519123 -0.05947072
v -0.82421494 0.42956895 -0.09442367
v -0.95979089 0.18306808 0.04223542
v -0.89190644 0.31063026 -0.05029937
v -0.92927963 0.34930345 0.09767022
v -0.73785979 0.09938332 -0.74724400
v -0.80414563 0.01723250 -0.62636715
v -0.51477915 0.26325315 -0.85386789
v -0.64395875 0.18993464 -0.82929981
v -0.58344781 0.09234614 -0.74537838
v -0.64763117 0.03795046 -0.83175629
v -0.51174390 0.00217364 -0.84912604
v 0.02626913 0.42201066 -0.89911437
v -0.10341914 0.39478198 -0.90012664
v -0.10741465 0.16110212 -0.99162924
v -0.10012947 0.25660348 -0.94933116
v 0.02949881 0.18567166 -0.96924531
v -0.23203689 0.35426474 -0.90303403
v -0.37902412 0.31401637 -0.89023632
v -0.15622440 0.39552397 -0.84838980
v -0.16589807 0.25550672 -0.93386024
v -0.01032055 0.33947197 -0.93432558
v -0.39142400 0.13715996 -0.86916882
v -0.29752934 0.21254794 -0.92867213
v -0.41378456 0.27209106 -0.83241922
v 0.00512860 0.13632970 -1.07022643
v -0.13563854 0.16369754 -1.00667238
v -0.14316790 0.04391108 -1.05878925
v -0.40770522 0.18845147 -0.95550460
v -0.26590100 0.11026844 -0.98578835
v -0.41023788 0.02297050 -0.96667349
v 0.21911548 0.60131526 -0.78818625
v 0.14199580 0.50875056 -0.85283166
v 0.36980510 0.75228786 -0.60858417
v 0.29906544 0.68230629 -0.70529258
v 0.39807880 0.39764991 -0.81554371
v 0.35243586 0.54769182 -0.77255416
v 0.46587452 0.48037881 -0.73680902
v 0.59078604 0.86446667 -0.08509038
v 0.54984659 0.85934192 -0.21304233
v 0.68213499 0.65286958 -0.36069289
v 0.63790858 0.76410174 -0.28227675
v 0.72729325 0.67344612 -0.22959965
v 0.50698417 0.84861189 -0.34898534
v 0.44997272 0.81281763 -0.47467792
v 0.77818674 0.12378072 -0.61581582
v 0.79267073 0.23694834 -0.53843993
v 0.87195748 0.18617466 -0.48245630
v 0.59604067 0.39932013 -0.68564230
v 0.69950056 0.31788296 -0.62890047
v 0.62032348 0.27474347 -0.74823064
v 0.82263237 0.44904649 -0.35947844
v 0.77077699 0.38802961 -0.49476498
v 0.73740870 0.51796138 -0.44723114
v 0.51344341 0.69487381 -0.55751270
v 0.63079751 0.60438669 -0.50374657
v 0.55179739 0.53983998 -0.63415921
v 0.66773146 0.51058292 0.08793937
v 0.62731695 0.49446172 0.21179323
v 0.55259883 0.58357549 0.14704975
v 0.73633349 0.27601367 0.33001530
v 0.69170958 0.38612923 0.27737939
v 0.79682642 0.31454805 0.21704136
v 0.46741527 0.56579149 0.35569501
v 0.58936608 0.46124771 0.30588561
v 0.52630049 0.47086436 0.43773475
v 0.80629462 0.09114750 0.63262188
v 0.81712234 0.14125811 0.53464407
v 0.88868171 0.05133881 0.46688730
v 0.65002209 0.17641746 0.69921178
v 0.72161472 0.10402144 0.63076353
v 0.64722085 0.06965095 0.78440553
v 0.86313486 0.09104218 0.32994533
v 0.81927180 0.05754222 0.46711862
v 0.78151780 0.15931869 0.40497819
v 0.13633618 0.40147352 0.78161842
v 0.24443021 0.35714430 0.80791986
v 0.15813424 0.27359024 0.90462053
v 0.42697024 0.42087069 0.60858881
v 0.29961124 0.42902452 0.68279308
v 0.31729126 0.50603384 0.59795249
v 0.41535187 0.21468075 0.85478371
v 0.35207781 0.32331565 0.78210533
v 0.49821076 0.25821263 0.74275315
v 0.67766529 0.25440940 0.48252997
v 0.59749961 0.25721285 0.60692638
v 0.55200523 0.37369719 0.52757275
v 0.41343221 0.65583193 0.10886452
v 0.45993918 0.51235396 0.01711844
v 0.33567691 0.61894071 0.37344852
v 0.38472894 0.61582893 0.23762521
v 0.19856036 0.54855466 0.04284967
v 0.28022027 0.71168602 0.10547156
v 0.15732922 0.62013549 0.15265080
v -0.02803610 0.44086900 0.82043487
v 0.04843185 0.46261600 0.71942973
v -0.05805560 0.67155725 0.55906564
v 0.00301758 0.58052623 0.63790625
v -0.15166984 0.58931148 0.63464975
v 0.15531930 0.53683418 0.64508176
v 0.23313670 0.60165250 0.52533734
v -0.37941402 0.65675080 0.07866989
v -0.27059725 0.74756622 0.15196712
v -0.42903486 0.75599730 0.16847600
v -0.00916081 0.65129888 0.16164167
v -0.12380743 0.76193959 0.14609857
v -0.10500973 0.58766896 0.08103529
v -0.30882132 0.70164979 0.43139857
v -0.21968606 0.73568428 0.29771188
v -0.16188876 0.73419315 0.44131845
v 0.19298972 0.68597066 0.41234490
v 0.00262528 0.74201995 0.41804859
v 0.08115705 0.58346903 0.31206581
v 0.40202844 0.68265682 -0.05572972
v 0.53259647 0.63927609 -0.09801149
v 0.10450567 0.54097545 -0.10807770
v 0.26180211 0.57040632 -0.10960124
v 0.37996462 0.69004089 -0.33279142
v 0.31231478 0.70562226 -0.22146721
v 0.23081474 0.71648020 -0.35689756
v -0.45791408 0.75949728 -0.07810517
v -0.31095412 0.68014491 -0.07866275
v -0.25826758 0.48660505 -0.34629011
v -0.29343823 0.59494966 -0.23054579
v -0.38008782 0.60605776 -0.32381597
v -0.20116511 0.53362137 -0.08086452
v -0.08086357 0.57457727 -0.07745974
v 0.08611725 0.50813901 -0.79588020
v -0.02266049 0.56755024 -0.71602321
v -0.08285670 0.51843774 -0.77910012
v 0.13995253 0.66346008 -0.47976071
v 0.04283278 0.63742799 -0.59752947
v 0.21608801 0.61308271 -0.58135211
v -0.25745940 0.49801016 -0.60368776
v -0.10700493 0.57868385 -0.61291164
v -0.15332536 0.50246465 -0.51648194
v -0.00182576 0.63331890 -0.22378226
v -0.09144680 0.53833461 -0.36955950
v 0.05132710 0.70752293 -0.35194111
v 0.61624736 0.56904668 -0.17891237
v 0.68383503 0.51837122 -0.07937058
v 0.45778885 0.59870344 -0.44520637
v 0.54042214 0.59476578 -0.31918156
v 0.81063318 0.43090767 -0.22829615
v 0.67563421 0.52719718 -0.29602894
v 0.74040574 0.48803079 -0.37010568
v 0.12331413 0.40976906 -0.89310098
v 0.19767517 0.46715173 -0.80929750
v 0.44725734 0.36044973 -0.78254944
v 0.33256713 0.39118320 -0.80540138
v 0.36899239 0.26448309 -0.89688236
v 0.27946958 0.52343631 -0.70691967
v 0.38451961 0.56772649 -0.60239065
v 0.89901584 0.12797634 -0.51308751
v 0.79520422 0.20642720 -0.60022771
v 0.81173122 0.08048009 -0.61773783
v 0.79076105 0.39718273 -0.49004743
v 0.78370732 0.33064118 -0.52669013
v 0.89291084 0.31805056 -0.37939686
v 0.63003403 0.15626656 -0.79784328
v 0.70742583 0.25255549 -0.65197629
v 0.58804852 0.29647323 -0.74421352
v 0.54094857 0.57287228 -0.55534852
v 0.54328078 0.45065790 -0.65999490
v 0.64797717 0.48276934 -0.50451648
v 0.73454565 0.47572824 0.03537840
v 0.90402037 0.34881043 -0.15970619
v 0.81770998 0.39506301 -0.05853281
v 0.80426198 0.36858070 0.09271796
v 0.86769617 0.25554422 0.15223093
v 0.93286574 0.14929406 -0.42452514
v 0.96498781 0.04526048 -0.40847549
v 1.00880492 0.04892517 -0.10383964
v 0.99667627 0.02146802 -0.26107359
v 1.01581931 0.14175645 -0.12412045
v 0.93337268 0.15394655 -0.33977410
v 0.94475472 0.26650035 -0.24186602
v 0.96053767 0.02869481 0.35044584
v 0.94317877 0.16959400 0.41208339
v 0.92591274 0.09690083 0.19142221
v 0.93280828 0.00073701 0.25879413
v 1.02566755 0.16208106 0.16317125
v 1.02049589 0.10496431 0.21503335
v 1.06543529 0.03751755 0.08297633
v 0.95932680 0.24553134 -0.08495146
v 1.00419092 0.13857104 -0.02001112
v 0.93594229 0.17758687 0.06558623
v 0.16107537 0.21898818 0.95918137
v 0.41502866 0.12541637 0.89380085
v 0.29961276 0.13858384 0.95142251
v 0.14784500 0.11082106 1.04427564
v 0.16274060 0.07454088 1.05394614
v 0.72948629 0.18698119 0.72680032
v 0.51235086 0.31768864 0.86854136
v 0.64049327 0.25588712 0.80900455
v 0.62889802 0.08688397 0.79074579
v 0.54008704 0.02950473 0.87232846
v 0.08219016 0.45690930 0.91259664
v 0.13089778 0.22658589 1.01966047
v 0.11147198 0.34825760 0.96932578
v 0.24026641 0.43503240 0.90516728
v 0.36288640 0.37350455 0.90511972
v 0.41368118 0.07794799 0.94937623
v 0.40342340 0.22457604 0.94933158
v 0.27290106 0.16668749 1.01378155
v -0.53063869 0.69567740 0.23749283
v -0.40249312 0.64097804 0.49580956
v -0.46720091 0.66180092 0.37357041
v -0.61041242 0.64150769 0.31772852
v -0.67514223 0.54896814 0.39435425
v -0.15258212 0.40334797 0.80507922
v -0.44331867 0.32160476 0.76081222
v -0.31399396 0.38344091 0.81159109
v -0.23539095 0.47050288 0.70991772
v -0.30420089 0.56664783 0.59926468
v -0.82494801 0.17377560 0.59369308
v -0.72430122 0.43767932 0.49169767
v -0.80310136 0.32111093 0.55517548
v -0.74451441 0.23691954 0.68721765
v -0.61097193 0.27631164 0.72405750
v -0.46437722 0.52498919 0.59554744
v -0.54007894 0.41146719 0.66250920
v -0.62852824 0.50440693 0.54257363
v -0.24113010 0.47791716 -0.77795845
v -0.40770364 0.57661474 -0.55343276
v -0.35124001 0.54202008 -0.68274617
v -0.35372832 0.39871898 -0.78704780
v -0.49746731 0.33240011 -0.73645538
v -0.55864048 0.71273643 -0.18387151
v -0.70665574 0.48811540 -0.32342646
v -0.64040858 0.60808355 -0.26505095
v -0.51927942 0.68992913 -0.32415020
v -0.49478567 0.64409667 -0.43547091
v -0.76745391 0.07825970 -0.54798788
v -0.56623757 0.20033461 -0.66536331
v -0.69071376 0.14958057 -0.61533785
v -0.76805824 0.21802889 -0.46781176
v -0.75607163 0.35734490 -0.39785340
v -0.51573658 0.52458286 -0.54554093
v -0.66246343 0.44638801 -0.47218978
v -0.57439226 0.37155300 -0.61164731
v 0.72766286 0.06983761 -0.71498871
v 0.52139258 0.07042389 -0.86416727
v 0.63252807 0.00574300 -0.80539173
v 0.61323541 0.13255197 -0.78046274
v 0.52710038 0.20824113 -0.85253805
v 0.14308988 0.31738776 -0.98479992
v 0.13844210 0.03278976 -1.04712105
v 0.15176629 0.18226001 -1.02650762
v 0.27564731 0.20573851 -0.95369685
v 0.38825566 0.11822645 -0.92072231
v 0.14757679 0.38141790 -0.88922852
v 0.39759251 0.29233643 -0.87379700
v 0.27566418 0.34518310 -0.89009011
v 0.14527683 0.28404054 -0.94140458
v 0.15027930 0.18162026 -0.99471992
v 0.39764470 0.01774761 -0.97446370
v 0.29704809 0.14144075 -1.02348542
v 0.41703999 0.15850203 -0.92187762
v 0.93182927 0.30988079 0.37198627
v 0.99341494 0.28096506 0.10489834
v 0.97739857 0.29875618 0.24581215
v 0.89567029 0.42603135 0.29899582
v 0.84864229 0.52907544 0.22456317
v 0.92949820 0.24845037 -0.35953042
v 0.87133640 0.47596499 -0.22329573
v 0.90675634 0.36488378 -0.29063281
v 0.96462381 0.24727423 -0.21819784
v 0.98328942 0.25054440 -0.07645074
v 0.67746341 0.80198592 0.00138177
v 0.79953873 0.62985080 0.15417711
v 0.73947382 0.71417612 0.07442247
v 0.76057947 0.69397545 -0.07357875
v 0.81142306 0.59839082 -0.14992508
v 0.94420946 0.37505865 -0.00185721
v 0.88245404 0.49592155 -0.07356842
v 0.89334053 0.50034636 0.08254702
f 330 87 329
f 336 325 26
f 207 208 56
f 464 36 580
f 502 129 504
f 157 624 622
f 308 311 82
f 247 223 248
f 507 483 508
f 331 88 329
f 494 500 497
f 156 601 602
f 591 589 592
f 365 98 596
f 75 281 282
f 152 587 577
f 149 559 560
f 555 121 553
f 530 141 529
f 515 517 139
f 361 594 98
f 250 67 249
f 157 608 609
f 294 293 209
f 317 81 316
f 557 338 26
f 303 305 81
f 530 529 528
f 101 381 382
f 415 418 111
f 192 184 50
f 412 110 411
f 20 384 256
f 131 594 486
f 281 264 282
f 347 287 348
f 28 349 582
f 165 163 1
f 248 250 66
f 617 107 398
f 273 271 274
f 456 115 453
f 558 561 560
f 335 576 91
f 331 177 332
f 116 433 436
f 351 370 92
f 136 511 530
f 239 240 65
f 247 258 19
f 304 23 567
f 148 557 570
f 214 208 58
f 440 426 450
f 268 270 269
f 258 247 268
f 204 202 16
f 466 125 465
f 517 513 133
f 168 275 274
f 275 73 274
f 198 193 53
f 309 308 307
f 510 511 136
f 415 416 110
f 131 490 597
f 473 475 474
f 414 415 111
f 493 495 494
f 496 504 485
f 433 116 432
f 600 375 601
f 240 234 65
f 418 415 412
f 486 361 3
f 567 566 304
f 380 393 29
f 17 199 197
f 491 492 132
f 451 449 435
f 218 217 216
f 623 621 613
f 396 104 395
f 433 439 436
f 628 160 627
f 215 202 217
f 209 207 2
f 427 113 424
f 434 10 544
f 434 433 432
f 199 17 210
f 150 564 565
f 489 491 132
f 275 13 285
f 497 500 134
f 125 466 476
f 578 152 577
f 208 214 211
f 328 88 343
f 356 27 603
f 150 566 567
f 372 100 371
f 190 191 47
f 235 8 398
f 260 261 72
f 422 403 414
f 422 414 111
f 453 454 123
f 349 583 582
f 521 520 519
f 425 453 115
f 616 622 158
f 483 130 508
f 151 586 572
f 212 17 232
f 400 397 402
f 377 396 99
f 41 522 511
f 510 508 505
f 549 547 42
f 475 473 36
f 510 137 509
f 222 221 197
f 430 115 429
f 220 194 1
f 305 54 204
f 621 29 613
f 192 171 184
f 460 335 5
f 88 331 332
f 74 277 279
f 300 301 80
f 390 389 388
f 165 45 164
f 146 549 551
f 291 278 75
f 448 120 445
f 147 543 544
f 607 610 609
f 603 602 356
f 139 529 514
f 333 553 443
f 92 368 347
f 261 260 259
f 300 6 200
f 46 177 331
f 284 283 174
f 301 300 200
f 471 468 474
f 54 305 301
f 302 304 303
f 569 150 567
f 150 569 570
f 294 209 2
f 628 629 160
f 548 543 147
f 147 625 627
f 63 233 234
f 426 427 114
f 41 509 532
f 198 52 196
f 614 105 612
f 147 627 547
f 81 305 306
f 549 548 547
f 54 301 200
f 342 88 332
f 264 281 70
f 193 194 53
f 455 429 456
f 187 321 14
f 479 130 484
f 147 544 625
f 458 456 453
f 304 80 303
f 314 84 313
f 488 503 501
f 321 332 14
f 423 425 424
f 305 204 306
f 341 339 25
f 514 40 516
f 625 628 627
f 340 339 341
f 105 614 391
f 243 228 62
f 318 316 78
f 75 278 279
f 357 355 353
f 238 257 63
f 466 455 476
f 425 423 4
f 448 449 120
f 408 638 108
f 292 275 285
f 22 278 289
f 515 513 517
f 501 503 134
f 622 623 158
f 134 503 504
f 195 216 206
f 163 271 246
f 619 617 620
f 62 228 229
f 163 165 164
f 453 425 454
f 489 132 488
f 82 628 625
f 58 208 209
f 525 608 40
f 626 547 627
f 518 517 498
f 489 487 491
f 557 26 564
f 325 336 344
f 541 145 539
f 40 616 516
f 338 556 89
f 250 248 245
f 139 514 515
f 98 594 596
f 246 220 1
f 112 413 630
f 9 536 413
f 156 600 601
f 332 177 14
f 321 342 332
f 156 606 600
f 584 330 585
f 302 303 81
f 584 87 330
f 330 25 585
f 400 239 65
f 439 440 117
f 95 358 368
f 597 594 131
f 594 361 486
f 246 67 245
f 561 562 149
f 28 364 362
f 55 216 217
f 427 430 114
f 267 20 254
f 556 555 553
f 84 309 558
f 311 310 312
f 609 525 142
f 256 68 255
f 124 460 461
f 82 311 312
f 307 308 82
f 589 135 495
f 527 40 514
f 112 418 412
f 20 256 254
f 258 238 19
f 267 254 269
f 273 272 249
f 392 391 393
f 137 533 509
f 122 455 456
f 9 413 411
f 130 480 505
f 333 443 5
f 527 525 40
f 589 495 385
f 39 496 485
f 223 225 224
f 414 416 415
f 219 222 53
f 145 538 539
f 413 412 411
f 469 468 467
f 183 181 6
f 191 192 50
f 429 35 431
f 292 285 76
f 413 112 412
f 415 110 412
f 43 164 167
f 467 468 126
f 617 101 620
f 450 451 117
f 438 546 545
f 619 620 159
f 17 212 210
f 124 579 576
f 584 153 583
f 460 124 576
f 3 469 467
f 311 308 314
f 6 320 183
f 389 104 388
f 251 250 249
f 194 165 1
f 291 289 278
f 287 77 348
f 238 258 257
f 139 517 518
f 238 236 19
f 223 247 19
f 382 380 29
f 39 518 498
f 361 359 3
f 69 255 257
f 139 518 528
f 33 545 535
f 387 385 7
f 69 268 269
f 477 462 125
f 454 479 123
f 121 555 447
f 451 435 117
f 454 425 4
f 233 252 8
f 124 463 464
f 69 258 268
f 168 167 166
f 583 153 582
f 384 394 102
f 138 512 513
f 57 210 211
f 254 256 255
f 607 609 142
f 324 319 86
f 289 291 76
f 291 292 76
f 384 102 383
f 422 421 420
f 221 17 197
f 383 102 381
f 376 377 99
f 99 373 374
f 386 105 392
f 438 33 440
f 90 341 343
f 281 75 279
f 574 571 96
f 628 82 312
f 221 222 59
f 127 471 474
f 595 605 603
f 551 538 145
f 334 91 340
f 322 324 85
f 305 303 301
f 18 239 399
f 306 204 16
f 199 198 197
f 166 190 180
f 303 80 301
f 267 266 265
f 626 42 547
f 16 215 213
f 349 351 350
f 295 16 213
f 68 379 252
f 250 251 66
f 627 160 626
f 383 68 256
f 343 88 342
f 507 508 136
f 202 215 16
f 197 198 53
f 254 69 269
f 603 605 156
f 418 419 111
f 384 383 256
f 455 122 476
f 203 204 54
f 556 557 148
f 255 68 253
f 313 84 560
f 25 328 341
f 254 255 69
f 603 156 602
f 581 584 583
f 630 632 112
f 163 246 1
f 246 245 220
f 432 116 558
f 499 591 590
f 320 563 86
f 345 93 350
f 306 16 295
f 346 93 345
f 562 568 149
f 604 605 155
f 154 592 593
f 545 552 535
f 511 522 530
f 574 573 571
f 566 150 565
f 361 98 360
f 67 271 273
f 234 235 65
f 208 211 56
f 574 151 573
f 251 270 66
f 398 8 378
f 213 215 214
f 438 440 439
f 315 314 313
f 263 71 262
f 20 373 384
f 496 134 504
f 329 88 328
f 81 306 316
f 555 556 148
f 592 589 103
f 617 619 107
f 227 207 56
f 571 359 96
f 446 466 465
f 206 216 55
f 359 571 469
f 568 148 570
f 34 437 435
f 28 351 349
f 21 272 282
f 113 423 424
f 490 489 488
f 379 68 383
f 210 212 211
f 80 563 300
f 351 92 350
f 326 346 12
f 83 317 318
f 555 148 554
f 212 231 56
f 218 57 217
f 271 67 246
f 195 196 52
f 270 268 66
f 390 592 103
f 148 568 554
f 495 493 7
f 592 390 593
f 357 95 355
f 574 575 151
f 452 120 451
f 154 591 592
f 587 585 577
f 395 394 396
f 93 349 350
f 610 416 611
f 166 44 190
f 315 23 302
f 315 302 317
f 268 247 66
f 606 154 593
f 396 394 99
f 211 212 56
f 370 369 368
f 235 397 65
f 280 278 22
f 83 315 317
f 575 588 151
f 74 279 280
f 385 495 7
f 63 257 253
f 397 235 398
f 214 58 213
f 220 219 194
f 546 146 545
f 236 225 19
f 599 94 602
f 235 233 8
f 102 394 395
f 611 416 32
f 225 223 19
f 139 528 529
f 231 62 229
f 419 406 421
f 451 450 452
f 49 182 185
f 402 397 107
f 52 199 218
f 416 610 110
f 225 236 244
f 107 397 398
f 68 252 253
f 322 85 321
f 182 181 183
f 118 438 439
f 546 438 118
f 348 77 345
f 543 546 118
f 231 212 232
f 610 611 157
f 33 438 545
f 385 386 103
f 479 480 130
f 169 195 15
f 93 583 349
f 15 195 206
f 190 44 192
f 247 248 66
f 146 552 545
f 248 60 245
f 570 557 564
f 274 271 43
f 63 253 233
f 272 21 249
f 507 528 518
f 67 273 249
f 487 467 126
f 196 195 169
f 624 159 623
f 134 496 497
f 132 503 488
f 104 393 395
f 556 553 89
f 355 356 94
f 258 69 257
f 229 61 227
f 56 231 227
f 460 576 335
f 463 124 461
f 394 373 99
f 29 393 391
f 67 250 245
f 193 198 196
f 462 36 464
f 144 633 630
f 141 526 527
f 517 133 498
f 536 144 630
f 100 372 599
f 144 536 537
f 22 289 287
f 578 579 152
f 579 578 576
f 189 188 187
f 60 223 224
f 92 348 350
f 555 554 447
f 396 377 388
f 194 193 165
f 413 536 630
f 372 352 599
f 377 376 375
f 348 345 350
f 105 386 387
f 240 237 234
f 463 462 464
f 135 500 494
f 45 196 169
f 512 612 387
f 245 60 220
f 429 115 456
f 223 60 248
f 288 289 76
f 525 526 142
f 100 599 601
f 613 29 391
f 526 523 520
f 341 328 343
f 631 641 639
f 264 21 282
f 266 72 265
f 106 402 403
f 73 273 274
f 186 206 205
f 381 379 383
f 52 216 195
f 410 18 399
f 290 272 73
f 72 371 374
f 526 525 527
f 115 430 424
f 498 497 496
f 621 382 29
f 543 118 434
f 214 215 57
f 522 141 530
f 511 510 509
f 352 94 599
f 493 512 7
f 90 340 341
f 169 171 170
f 605 604 606
f 219 60 224
f 104 389 392
f 359 469 3
f 186 49 185
f 222 219 224
f 166 167 44
f 428 427 426
f 523 522 524
f 129 502 481
f 50 185 188
f 164 45 170
f 425 115 424
f 33 428 426
f 427 428 113
f 94 356 602
f 515 138 513
f 114 431 452
f 237 236 238
f 215 217 57
f 95 354 355
f 220 60 219
f 515 514 516
f 183 320 319
f 222 197 53
f 559 569 567
f 300 320 6
f 435 436 117
f 96 360 363
f 640 642 641
f 242 243 62
f 140 537 519
f 508 130 505
f 420 410 399
f 537 539 144
f 317 316 318
f 426 114 450
f 186 15 206
f 311 83 310
f 625 544 307
f 544 10 307
f 168 43 167
f 185 182 188
f 369 354 95
f 44 171 192
f 605 606 156
f 548 549 146
f 100 601 375
f 149 568 569
f 381 380 382
f 455 466 35
f 480 479 454
f 543 548 546
f 493 133 513
f 492 472 37
f 477 125 476
f 491 487 126
f 337 336 338
f 588 153 587
f 576 578 91
f 633 161 632
f 96 359 360
f 39 485 483
f 101 617 378
f 193 45 165
f 163 164 43
f 618 624 611
f 507 136 528
f 561 149 560
f 641 162 639
f 116 561 558
f 494 133 493
f 253 252 233
f 63 237 238
f 392 393 104
f 440 450 117
f 93 581 583
f 386 385 387
f 120 449 451
f 421 422 111
f 486 3 467
f 302 81 317
f 633 632 630
f 462 475 36
f 376 99 374
f 489 490 131
f 447 449 448
f 387 612 105
f 106 420 399
f 173 46 172
f 492 491 472
f 316 306 295
f 22 287 347
f 109 410 420
f 507 39 483
f 559 23 313
f 214 57 211
f 196 45 193
f 10 434 432
f 422 106 403
f 626 160 640
f 487 486 467
f 542 41 532
f 400 106 399
f 444 120 452
f 198 199 52
f 475 127 474
f 621 620 382
f 621 623 159
f 450 114 452
f 92 347 348
f 376 100 375
f 434 118 433
f 503 132 502
f 337 90 336
f 537 536 519
f 395 393 380
f 201 54 200
f 171 44 170
f 355 94 353
f 58 296 213
f 422 420 106
f 595 365 596
f 569 568 570
f 523 140 520
f 114 430 431
f 218 210 57
f 304 566 80
f 639 162 638
f 261 371 72
f 548 147 547
f 498 133 497
f 150 570 564
f 222 224 59
f 142 526 520
f 437 436 435
f 141 522 523
f 137 510 505
f 173 179 176
f 559 149 569
f 121 447 448
f 563 320 300
f 102 395 380
f 257 255 253
f 642 162 641
f 83 311 314
f 216 52 218
f 512 493 513
f 23 304 302
f 91 339 340
f 512 138 612
f 159 620 621
f 218 199 210
f 364 28 575
f 83 318 310
f 168 274 43
f 136 530 528
f 140 523 524
f 495 135 494
f 233 235 234
f 566 563 80
f 25 339 577
f 277 74 276
f 475 462 477
f 133 494 497
f 436 437 116
f 389 386 392
f 548 146 546
f 441 460 5
f 10 309 307
f 65 397 400
f 543 434 544
f 640 641 161
f 272 273 73
f 581 93 346
f 419 421 111
f 319 320 86
f 180 179 178
f 127 475 477
f 231 229 227
f 337 334 340
f 136 508 510
f 308 309 84
f 237 63 234
f 447 554 34
f 252 379 378
f 315 83 314
f 608 622 616
f 338 336 26
f 337 338 89
f 13 275 168
f 209 208 207
f 436 439 117
f 628 312 629
f 360 366 363
f 364 574 96
f 359 361 360
f 466 446 35
f 500 501 134
f 406 109 421
f 135 589 591
f 601 599 602
f 340 90 337
f 481 492 37
f 522 41 524
f 78 316 295
f 131 486 487
f 403 32 414
f 634 626 640
f 151 572 573
f 515 516 138
f 8 252 378
f 265 72 374
f 9 521 519
f 538 549 42
f 368 358 347
f 588 587 586
f 458 453 123
f 589 385 103
f 502 492 481
f 32 416 414
f 430 427 424
f 153 585 587
f 540 144 539
f 370 368 92
f 209 293 58
f 428 33 535
f 326 581 346
f 625 307 82
f 575 28 582
f 6 181 200
f 421 109 420
f 553 121 443
f 160 642 640
f 153 584 585
f 309 432 558
f 334 337 89
f 23 315 313
f 271 163 43
f 296 295 213
f 39 498 496
f 118 439 433
f 531 113 534
f 293 296 58
f 28 362 351
f 489 131 487
f 431 444 452
f 84 558 560
f 98 366 360
f 45 169 170
f 379 101 378
f 462 463 125
f 308 84 314
f 10 432 309
f 299 24 310
f 132 492 502
f 512 387 7
f 639 638 408
f 565 323 86
f 59 244 242
f 106 400 402
f 440 33 426
f 566 565 563
f 617 398 378
f 224 225 59
f 410 109 409
f 239 400 399
f 194 219 53
f 358 22 347
f 610 157 609
f 27 595 603
f 479 484 482
f 142 520 521
f 585 25 577
f 339 578 577
f 408 407 406
f 407 109 406
f 31 408 406
f 407 408 108
f 31 639 408
f 419 31 406
f 608 616 40
f 430 429 431
f 455 35 429
f 35 444 431
f 188 51 187
f 188 182 51
f 51 322 187
f 322 51 319
f 51 182 183
f 319 51 183
f 187 322 321
f 322 319 324
f 381 101 379
f 405 407 108
f 404 405 108
f 286 285 178
f 407 405 409
f 109 407 409
f 191 175 47
f 167 164 170
f 50 184 185
f 44 167 170
f 64 244 236
f 243 244 64
f 50 188 189
f 541 542 145
f 442 445 119
f 339 91 578
f 445 446 119
f 624 623 622
f 611 624 157
f 523 526 141
f 141 527 529
f 527 514 529
f 445 120 444
f 446 445 444
f 35 446 444
f 613 614 158
f 158 614 615
f 623 613 158
f 614 613 391
f 614 612 615
f 371 376 374
f 100 376 371
f 479 482 123
f 373 394 384
f 540 42 634
f 633 540 634
f 538 42 540
f 633 634 161
f 161 634 640
f 42 626 634
f 540 633 144
f 557 556 338
f 553 333 89
f 262 21 264
f 251 21 262
f 5 335 333
f 270 251 262
f 21 251 249
f 600 593 30
f 606 593 600
f 600 30 375
f 593 390 30
f 30 377 375
f 390 388 30
f 30 388 377
f 228 243 241
f 470 478 459
f 470 127 478
f 127 477 478
f 184 186 185
f 478 477 476
f 122 478 476
f 357 74 280
f 518 39 507
f 344 342 85
f 325 344 85
f 342 344 343
f 85 342 321
f 344 90 343
f 90 344 336
f 482 129 481
f 482 481 457
f 482 457 123
f 481 37 457
f 449 447 34
f 435 449 34
f 470 472 471
f 472 470 37
f 470 471 127
f 472 126 471
f 126 468 471
f 470 459 37
f 491 126 472
f 504 129 485
f 221 59 242
f 125 463 465
f 437 34 562
f 561 437 562
f 554 568 562
f 34 554 562
f 437 561 116
f 390 103 389
f 103 386 389
f 392 105 391
f 572 586 580
f 572 580 36
f 586 152 580
f 473 572 36
f 244 243 242
f 225 244 59
f 64 240 241
f 240 239 241
f 237 240 64
f 243 64 241
f 236 237 64
f 411 607 521
f 9 411 521
f 110 607 411
f 607 142 521
f 610 607 110
f 171 15 184
f 171 169 15
f 15 186 184
f 87 584 581
f 153 588 582
f 588 575 582
f 381 102 380
f 573 572 473
f 468 469 128
f 474 468 128
f 469 571 128
f 571 573 128
f 573 473 128
f 473 474 128
f 564 323 565
f 26 323 564
f 323 324 86
f 325 323 26
f 325 324 323
f 563 565 86
f 324 325 85
f 410 230 18
f 230 228 18
f 18 228 241
f 18 241 239
f 401 619 618
f 401 402 107
f 403 402 401
f 619 159 618
f 401 618 32
f 619 401 107
f 403 401 32
f 618 611 32
f 159 624 618
f 478 122 459
f 122 458 459
f 37 459 457
f 459 458 457
f 122 456 458
f 457 458 123
f 191 190 192
f 485 129 484
f 129 482 484
f 483 485 484
f 130 483 484
f 189 187 14
f 191 50 189
f 191 189 175
f 189 14 175
f 14 177 175
f 499 501 500
f 501 499 38
f 38 499 590
f 135 499 500
f 488 501 38
f 499 135 591
f 480 454 4
f 284 12 346
f 4 423 506
f 480 4 506
f 423 531 506
f 480 506 505
f 531 137 506
f 506 137 505
f 365 366 98
f 71 270 262
f 270 71 269
f 71 267 269
f 335 334 333
f 333 334 89
f 334 335 91
f 536 9 519
f 465 463 461
f 537 140 541
f 520 140 519
f 119 446 465
f 465 461 119
f 461 441 119
f 460 441 461
f 176 46 173
f 299 297 24
f 71 263 266
f 263 260 266
f 260 72 266
f 263 70 260
f 205 201 49
f 201 181 49
f 186 205 49
f 181 201 200
f 181 182 49
f 284 77 283
f 586 587 152
f 588 586 151
f 20 267 265
f 266 267 71
f 31 417 631
f 631 417 632
f 31 631 639
f 417 31 419
f 641 631 161
f 417 112 632
f 161 631 632
f 418 417 419
f 417 418 112
f 284 345 77
f 542 550 145
f 542 541 524
f 284 174 12
f 48 174 283
f 373 20 265
f 373 265 374
f 609 608 525
f 608 157 622
f 560 559 313
f 636 637 162
f 541 140 524
f 41 542 524
f 358 357 280
f 70 263 264
f 263 262 264
f 176 177 46
f 174 48 173
f 174 173 172
f 538 551 549
f 538 540 539
f 537 541 539
f 232 221 242
f 17 221 232
f 232 242 62
f 231 232 62
f 203 205 55
f 203 55 202
f 201 205 203
f 202 55 217
f 205 206 55
f 204 203 202
f 73 275 292
f 292 290 73
f 272 290 282
f 290 292 291
f 75 290 291
f 290 75 282
f 70 277 259
f 277 70 281
f 277 281 279
f 260 70 259
f 12 174 172
f 104 396 388
f 367 27 354
f 365 27 367
f 354 27 356
f 365 367 366
f 595 27 365
f 318 299 310
f 155 596 597
f 155 597 598
f 596 594 597
f 595 596 155
f 605 595 155
f 180 47 179
f 180 190 47
f 352 372 11
f 11 372 261
f 312 310 24
f 642 636 162
f 636 297 637
f 367 369 97
f 366 367 97
f 369 367 354
f 369 370 97
f 580 579 464
f 580 152 579
f 579 124 464
f 61 230 409
f 230 410 409
f 230 61 229
f 230 229 228
f 76 285 286
f 353 352 276
f 74 353 276
f 288 76 286
f 288 286 283
f 289 288 287
f 203 54 201
f 287 288 77
f 77 288 283
f 286 48 283
f 531 423 113
f 276 11 259
f 11 261 259
f 277 276 259
f 616 158 615
f 516 616 615
f 138 516 615
f 138 615 612
f 509 533 532
f 503 502 504
f 635 79 294
f 635 294 404
f 635 637 79
f 637 635 638
f 638 635 108
f 635 404 108
f 226 61 405
f 61 226 227
f 405 61 409
f 227 226 207
f 48 178 179
f 48 286 178
f 173 48 179
f 534 143 533
f 534 535 143
f 531 534 533
f 533 143 532
f 137 531 533
f 261 372 371
f 13 180 178
f 285 13 178
f 180 13 166
f 13 168 166
f 346 345 284
f 331 327 46
f 46 327 172
f 172 327 326
f 382 620 101
f 442 121 448
f 443 121 442
f 2 226 404
f 294 2 404
f 404 226 405
f 207 226 2
f 550 551 145
f 552 146 551
f 143 550 532
f 552 550 143
f 330 329 328
f 24 636 629
f 94 352 353
f 352 11 276
f 113 428 534
f 428 535 534
f 509 41 511
f 535 552 143
f 550 552 551
f 550 542 532
f 369 95 368
f 326 327 87
f 87 327 329
f 327 331 329
f 581 326 87
f 293 79 298
f 79 297 298
f 296 298 78
f 79 293 294
f 296 293 298
f 598 490 38
f 358 280 22
f 280 279 278
f 357 358 95
f 74 357 353
f 330 328 25
f 567 23 559
f 590 598 38
f 590 604 598
f 598 604 155
f 604 590 154
f 590 591 154
f 604 154 606
f 297 299 298
f 299 318 78
f 298 299 78
f 355 354 356
f 629 636 642
f 312 24 629
f 629 642 160
f 370 362 97
f 362 363 97
f 363 366 97
f 364 363 362
f 362 370 351
f 96 363 364
f 297 636 24
f 162 637 638
f 637 297 79
f 490 488 38
f 598 597 490
f 441 442 119
f 443 442 441
f 443 441 5
f 442 448 445
f 296 78 295
f 326 12 172
f 575 574 364
f 47 175 176
f 175 177 176
f 47 176 179
