# FEM surface export ¡ª frame 43
# Vertices: 642  Faces: 1280
v -0.52573109 1.85094857 -0.00000017
v 0.52573103 1.85094869 0.00000012
v -0.52573109 0.14964724 -0.00000004
v 0.52573109 0.14964719 0.00000000
v 0.00000005 0.47456694 0.85065079
v 0.00000007 1.52602911 0.85065091
v 0.00000001 0.47456697 -0.85065079
v 0.00000003 1.52602899 -0.85065079
v 0.85065079 1.00029790 -0.52573115
v 0.85065079 1.00029802 0.52573109
v -0.85065073 1.00029802 -0.52573109
v -0.85065073 1.00029802 0.52573109
v -0.80901718 1.50029802 0.30901691
v -0.49999994 1.30931532 0.80901694
v -0.30901700 1.80931520 0.50000000
v 0.30901715 1.80931497 0.50000000
v -0.00000007 2.00029826 0.00000004
v 0.30901697 1.80931509 -0.50000006
v -0.30901700 1.80931473 -0.50000000
v -0.50000000 1.30931509 -0.80901700
v -0.80901700 1.50029802 -0.30901688
v -1.00000000 1.00029802 0.00000000
v 0.50000006 1.30931520 0.80901694
v 0.80901700 1.50029790 0.30901706
v -0.50000000 0.69128096 0.80901700
v -0.00000001 1.00029802 1.00000000
v -0.80901700 0.50029796 -0.30901691
v -0.80901700 0.50029808 0.30901691
v 0.00000014 1.00029802 -1.00000000
v -0.49999991 0.69128102 -0.80901700
v 0.80901700 1.50029790 -0.30901691
v 0.50000000 1.30931520 -0.80901700
v 0.80901700 0.50029808 0.30901700
v 0.50000006 0.69128096 0.80901700
v 0.30901700 0.19128111 0.50000000
v -0.30901700 0.19128101 0.50000000
v -0.00000000 0.00029798 -0.00000001
v -0.30901700 0.19128107 -0.50000000
v 0.30901700 0.19128105 -0.50000000
v 0.50000000 0.69128096 -0.80901694
v 0.80901700 0.50029802 -0.30901700
v 1.00000000 1.00029802 -0.00000001
v -0.69378036 1.70234454 0.16062203
v -0.58778524 1.68848884 0.42532539
v -0.43388855 1.86296654 0.25989184
v -0.70204645 1.16092014 0.69378048
v -0.68819082 1.42562330 0.58778512
v -0.86266845 1.26018989 0.43388855
v -0.16062202 1.69407845 0.70204645
v -0.42532536 1.58808327 0.68819094
v -0.25989193 1.43418658 0.86266845
v -0.16245984 1.95135450 0.26286548
v -0.27326652 1.96223629 0.00000004
v 0.16062205 1.69407856 0.70204645
v 0.00000004 1.85094893 0.52573109
v 0.27326652 1.96223640 0.00000003
v 0.16245984 1.95135427 0.26286560
v 0.43388849 1.86296666 0.25989184
v -0.16245990 1.95135438 -0.26286551
v -0.43388864 1.86296666 -0.25989199
v 0.43388849 1.86296654 -0.25989175
v 0.16245985 1.95135438 -0.26286554
v -0.16062208 1.69407856 -0.70204645
v -0.00000006 1.85094869 -0.52573109
v 0.16062197 1.69407868 -0.70204645
v -0.58778524 1.68848896 -0.42532539
v -0.69378048 1.70234454 -0.16062203
v -0.25989184 1.43418658 -0.86266845
v -0.42532545 1.58808339 -0.68819094
v -0.86266845 1.26018989 -0.43388855
v -0.68819100 1.42562330 -0.58778524
v -0.70204645 1.16092002 -0.69378048
v -0.85065079 1.52602911 0.00000005
v -0.96193838 1.00029802 -0.27326652
v -0.95105654 1.26316357 -0.16245987
v -0.95105654 1.26316345 0.16245985
v -0.96193838 1.00029802 0.27326652
v 0.58778524 1.68848896 0.42532539
v 0.69378060 1.70234442 0.16062203
v 0.25989190 1.43418658 0.86266845
v 0.42532539 1.58808339 0.68819088
v 0.86266875 1.26018989 0.43388861
v 0.68819094 1.42562330 0.58778518
v 0.70204645 1.16092014 0.69378048
v -0.26286554 1.16275787 0.95105654
v -0.00000006 1.27356458 0.96193838
v -0.70204645 0.83967608 0.69378048
v -0.52573115 1.00029814 0.85065079
v -0.00000003 0.72703141 0.96193838
v -0.26286554 0.83783811 0.95105654
v -0.25989193 0.56640941 0.86266845
v -0.95105654 0.73743242 0.16245984
v -0.86266845 0.74040610 0.43388855
v -0.86266845 0.74040622 -0.43388855
v -0.95105654 0.73743248 -0.16245987
v -0.69378048 0.29825166 0.16062203
v -0.85065079 0.47456700 0.00000002
v -0.69378048 0.29825160 -0.16062203
v -0.52573103 1.00029802 -0.85065079
v -0.70204645 0.83967602 -0.69378048
v 0.00000002 1.27356458 -0.96193838
v -0.26286554 1.16275799 -0.95105654
v -0.25989193 0.56640959 -0.86266845
v -0.26286554 0.83783823 -0.95105654
v -0.00000003 0.72703147 -0.96193838
v 0.42532539 1.58808327 -0.68819094
v 0.25989199 1.43418658 -0.86266845
v 0.69378048 1.70234454 -0.16062197
v 0.58778524 1.68848884 -0.42532539
v 0.70204645 1.16091990 -0.69378048
v 0.68819112 1.42562342 -0.58778524
v 0.86266845 1.26018989 -0.43388855
v 0.69378048 0.29825160 0.16062202
v 0.58778524 0.31210709 0.42532539
v 0.43388855 0.13762957 0.25989193
v 0.70204645 0.83967608 0.69378048
v 0.68819094 0.57497263 0.58778524
v 0.86266845 0.74040604 0.43388855
v 0.16062203 0.30651751 0.70204645
v 0.42532539 0.41251278 0.68819094
v 0.25989193 0.56640935 0.86266845
v 0.16245985 0.04924151 0.26286557
v 0.27326652 0.03835962 -0.00000001
v -0.16062205 0.30651754 0.70204645
v -0.00000002 0.14964722 0.52573109
v -0.27326652 0.03835963 -0.00000001
v -0.16245985 0.04924148 0.26286554
v -0.43388855 0.13762957 0.25989193
v 0.16245985 0.04924148 -0.26286557
v 0.43388855 0.13762952 -0.25989196
v -0.43388852 0.13762954 -0.25989193
v -0.16245987 0.04924147 -0.26286554
v 0.16062206 0.30651757 -0.70204645
v -0.00000002 0.14964718 -0.52573109
v -0.16062202 0.30651754 -0.70204645
v 0.58778524 0.31210712 -0.42532539
v 0.69378048 0.29825163 -0.16062200
v 0.25989184 0.56640953 -0.86266845
v 0.42532539 0.41251281 -0.68819094
v 0.86266845 0.74040616 -0.43388855
v 0.68819094 0.57497263 -0.58778524
v 0.70204645 0.83967590 -0.69378048
v 0.85065079 0.47456697 -0.00000005
v 0.96193838 1.00029802 -0.27326652
v 0.95105654 0.73743248 -0.16245988
v 0.95105654 0.73743248 0.16245991
v 0.96193838 1.00029790 0.27326664
v 0.26286554 0.83783817 0.95105642
v 0.52573109 1.00029802 0.85065079
v 0.26286554 1.16275787 0.95105660
v -0.58778524 0.31210709 0.42532539
v -0.42532539 0.41251278 0.68819094
v -0.68819094 0.57497257 0.58778524
v -0.42532539 0.41251272 -0.68819094
v -0.58778524 0.31210712 -0.42532548
v -0.68819094 0.57497269 -0.58778524
v 0.52573109 1.00029790 -0.85065079
v 0.26286557 0.83783811 -0.95105654
v 0.26286554 1.16275799 -0.95105654
v 0.95105654 1.26316357 0.16245990
v 0.95105654 1.26316357 -0.16245988
v 0.85065067 1.52602887 0.00000001
v -0.61564201 1.78414094 0.08108620
v -0.57125163 1.79294717 0.21302289
v -0.48444167 1.86522746 0.13120043
v -0.70710677 1.60179901 0.37174800
v -0.64741188 1.70260775 0.29600453
v -0.75865233 1.60712314 0.23708628
v -0.37503865 1.84420931 0.38361362
v -0.51612163 1.78374946 0.34615290
v -0.45399064 1.75823331 0.46842986
v -0.78384304 1.08138430 0.61564201
v -0.79264921 1.21332109 0.57125163
v -0.86492932 1.13149834 0.48444170
v -0.60150093 1.37204599 0.70710677
v -0.70230985 1.29630256 0.64741188
v -0.60682517 1.23738432 0.75865233
v -0.84391141 1.38391173 0.37503865
v -0.78345168 1.34645104 0.51612163
v -0.75793540 1.46872783 0.45399040
v -0.08108629 1.61593986 0.78384286
v -0.21302289 1.57154965 0.79264921
v -0.13120040 1.48473966 0.86492926
v -0.37174809 1.70740485 0.60150093
v -0.29600465 1.64770997 0.70230991
v -0.23708634 1.75895035 0.60682517
v -0.38361368 1.37533665 0.84391147
v -0.34615296 1.51641977 0.78345168
v -0.46842986 1.45428824 0.75793540
v -0.64657778 1.56455231 0.51337546
v -0.56425422 1.51367342 0.64657778
v -0.51337546 1.64687586 0.56425422
v -0.35822892 1.92460251 0.13165542
v -0.40335533 1.91534138 0.00000001
v -0.23867705 1.89130437 0.38618740
v -0.30125889 1.91654205 0.26408291
v -0.13795218 1.99073660 0.00000013
v -0.22011696 1.96669066 0.13279250
v -0.08224249 1.98798621 0.13307109
v 0.08108634 1.61593997 0.78384304
v 0.00000005 1.70320511 0.71128172
v 0.15643448 1.84047592 0.51925850
v 0.08114190 1.78050256 0.62023956
v 0.23708639 1.75895035 0.60682517
v -0.08114190 1.78050256 0.62023956
v -0.15643443 1.84047604 0.51925850
v 0.40335548 1.91534150 0.00000001
v 0.35822889 1.92460263 0.13165547
v 0.48444167 1.86522710 0.13120040
v 0.08224251 1.98798633 0.13307118
v 0.22011706 1.96669054 0.13279249
v 0.13795225 1.99073708 0.00000006
v 0.37503856 1.84420943 0.38361362
v 0.30125901 1.91654217 0.26408276
v 0.23867700 1.89130449 0.38618743
v -0.08232360 1.91328061 0.39960709
v 0.08232357 1.91328049 0.39960706
v -0.00000000 1.96415925 0.26640475
v -0.35822886 1.92460263 -0.13165537
v -0.48444173 1.86522746 -0.13120031
v -0.08224247 1.98798633 -0.13307099
v -0.22011703 1.96669054 -0.13279241
v -0.37503856 1.84420955 -0.38361374
v -0.30125895 1.91654217 -0.26408282
v -0.23867685 1.89130473 -0.38618723
v 0.48444155 1.86522746 -0.13120036
v 0.35822895 1.92460275 -0.13165542
v 0.23867685 1.89130473 -0.38618734
v 0.30125889 1.91654217 -0.26408270
v 0.37503868 1.84420955 -0.38361368
v 0.22011697 1.96669066 -0.13279241
v 0.08224252 1.98798633 -0.13307111
v -0.08108624 1.61594009 -0.78384298
v -0.00000003 1.70320511 -0.71128172
v 0.08108630 1.61594009 -0.78384304
v -0.15643436 1.84047592 -0.51925850
v -0.08114184 1.78050244 -0.62023956
v -0.23708636 1.75895023 -0.60682517
v 0.23708637 1.75895035 -0.60682505
v 0.08114175 1.78050244 -0.62023938
v 0.15643437 1.84047604 -0.51925850
v -0.00000001 1.96415925 -0.26640472
v 0.08232361 1.91328049 -0.39960700
v -0.08232356 1.91328037 -0.39960706
v -0.57125163 1.79294729 -0.21302283
v -0.61564201 1.78414094 -0.08108624
v -0.45399046 1.75823343 -0.46842986
v -0.51612163 1.78374982 -0.34615302
v -0.75865227 1.60712314 -0.23708625
v -0.64741188 1.70260763 -0.29600459
v -0.70710677 1.60179901 -0.37174794
v -0.13120031 1.48473954 -0.86492914
v -0.21302272 1.57154977 -0.79264921
v -0.46842977 1.45428860 -0.75793540
v -0.34615299 1.51641965 -0.78345168
v -0.38361368 1.37533653 -0.84391135
v -0.29600453 1.64771008 -0.70230985
v -0.37174788 1.70740473 -0.60150093
v -0.86492932 1.13149834 -0.48444176
v -0.79264921 1.21332073 -0.57125163
v -0.78384304 1.08138430 -0.61564201
v -0.75793540 1.46872771 -0.45399052
v -0.78345168 1.34645116 -0.51612163
v -0.84391135 1.38391161 -0.37503856
v -0.60682517 1.23738432 -0.75865227
v -0.70230985 1.29630268 -0.64741188
v -0.60150093 1.37204611 -0.70710677
v -0.51337546 1.64687586 -0.56425422
v -0.56425422 1.51367331 -0.64657778
v -0.64657778 1.56455219 -0.51337546
v -0.70290697 1.71157968 0.00000002
v -0.84017789 1.51955664 -0.15643437
v -0.78020436 1.62053764 -0.08114185
v -0.78020436 1.62053764 0.08114185
v -0.84017801 1.51955640 0.15643461
v -0.91504341 1.00029802 -0.40335545
v -0.92430460 1.13195336 -0.35822883
v -0.98768836 1.13336909 -0.08224244
v -0.96639258 1.13309038 -0.22011706
v -0.99043888 1.00029814 -0.13795227
v -0.91624415 1.26438081 -0.30125886
v -0.89100653 1.38648546 -0.23867692
v -0.92430460 1.13195348 0.35822874
v -0.91504341 1.00029802 0.40335530
v -0.89100647 1.38648534 0.23867700
v -0.91624415 1.26438081 0.30125895
v -0.99043894 1.00029802 0.13795213
v -0.96639258 1.13309062 0.22011708
v -0.98768836 1.13336909 0.08224244
v -0.91298246 1.39990485 -0.08232357
v -0.96386129 1.26670265 -0.00000000
v -0.91298246 1.39990509 0.08232363
v 0.57125163 1.79294729 0.21302290
v 0.61564201 1.78414118 0.08108626
v 0.45399040 1.75823331 0.46842986
v 0.51612151 1.78374970 0.34615302
v 0.75865227 1.60712302 0.23708621
v 0.64741188 1.70260787 0.29600465
v 0.70710677 1.60179877 0.37174788
v 0.13120034 1.48473954 0.86492926
v 0.21302278 1.57154965 0.79264921
v 0.46842986 1.45428836 0.75793540
v 0.34615299 1.51641953 0.78345168
v 0.38361374 1.37533653 0.84391147
v 0.29600462 1.64770997 0.70230985
v 0.37174809 1.70740485 0.60150093
v 0.86492926 1.13149869 0.48444164
v 0.79264921 1.21332073 0.57125163
v 0.78384304 1.08138418 0.61564201
v 0.75793540 1.46872771 0.45399049
v 0.78345168 1.34645104 0.51612163
v 0.84391147 1.38391173 0.37503859
v 0.60682511 1.23738432 0.75865233
v 0.70230985 1.29630268 0.64741188
v 0.60150093 1.37204611 0.70710677
v 0.51337546 1.64687586 0.56425422
v 0.56425422 1.51367319 0.64657772
v 0.64657766 1.56455207 0.51337546
v -0.13165538 1.35852683 0.92430460
v -0.00000015 1.40365350 0.91504341
v -0.38618729 1.23897481 0.89100653
v -0.26408288 1.30155706 0.91624415
v -0.00000002 1.13825023 0.99043888
v -0.13279250 1.22041500 0.96639258
v -0.13307111 1.08254051 0.98768836
v -0.78384304 0.91921180 0.61564201
v -0.71128178 1.00029814 0.70290703
v -0.51925850 0.84386343 0.84017783
v -0.62023956 0.91915613 0.78020436
v -0.60682517 0.76321173 0.75865233
v -0.62023956 1.08143985 0.78020436
v -0.51925850 1.15673256 0.84017789
v -0.00000005 0.59694260 0.91504341
v -0.13165538 0.64206916 0.92430460
v -0.13120037 0.51585650 0.86492932
v -0.13307117 0.91805553 0.98768836
v -0.13279241 0.78018087 0.96639258
v 0.00000001 0.86234581 0.99043888
v -0.38361374 0.62525940 0.84391147
v -0.26408267 0.69903916 0.91624415
v -0.38618743 0.76162106 0.89100653
v -0.39960706 1.08262157 0.91298258
v -0.39960706 0.91797441 0.91298246
v -0.26640463 1.00029802 0.96386135
v -0.92430460 0.86864269 0.35822880
v -0.86492932 0.86909753 0.48444164
v -0.98768836 0.86722684 0.08224253
v -0.96639258 0.86750543 0.22011708
v -0.84391147 0.61668438 0.37503856
v -0.91624415 0.73621529 0.30125889
v -0.89100653 0.61411059 0.23867694
v -0.86492944 0.86909765 -0.48444164
v -0.92430460 0.86864281 -0.35822880
v -0.89100653 0.61411059 -0.23867694
v -0.91624415 0.73621535 -0.30125889
v -0.84391147 0.61668432 -0.37503856
v -0.96639258 0.86750555 -0.22011706
v -0.98768836 0.86722696 -0.08224246
v -0.61564201 0.21645497 0.08108630
v -0.70290703 0.28901637 0.00000001
v -0.61564201 0.21645498 -0.08108633
v -0.84017789 0.48103961 0.15643445
v -0.78020436 0.38005844 0.08114184
v -0.75865233 0.39347285 0.23708633
v -0.75865233 0.39347285 -0.23708633
v -0.78020436 0.38005847 -0.08114182
v -0.84017789 0.48103958 -0.15643446
v -0.96386129 0.73389333 -0.00000003
v -0.91298246 0.60069096 -0.08232362
v -0.91298246 0.60069096 0.08232358
v -0.71128178 1.00029790 -0.70290703
v -0.78384304 0.91921163 -0.61564201
v -0.51925850 1.15673244 -0.84017789
v -0.62023956 1.08143985 -0.78020436
v -0.60682517 0.76321185 -0.75865233
v -0.62023956 0.91915619 -0.78020436
v -0.51925850 0.84386361 -0.84017789
v -0.00000024 1.40365338 -0.91504353
v -0.13165525 1.35852695 -0.92430466
v -0.13307112 1.08254051 -0.98768836
v -0.13279249 1.22041500 -0.96639246
v -0.00000000 1.13825023 -0.99043888
v -0.26408279 1.30155694 -0.91624415
v -0.38618740 1.23897505 -0.89100647
v -0.13120040 0.51585633 -0.86492932
v -0.13165535 0.64206922 -0.92430460
v -0.00000002 0.59694260 -0.91504347
v -0.38618737 0.76162112 -0.89100653
v -0.26408270 0.69903916 -0.91624409
v -0.38361374 0.62525946 -0.84391147
v -0.00000004 0.86234581 -0.99043888
v -0.13279247 0.78018099 -0.96639258
v -0.13307106 0.91805559 -0.98768836
v -0.39960712 1.08262169 -0.91298246
v -0.26640469 1.00029802 -0.96386129
v -0.39960706 0.91797441 -0.91298246
v 0.21302292 1.57154965 -0.79264921
v 0.13120030 1.48473966 -0.86492932
v 0.37174806 1.70740461 -0.60150069
v 0.29600462 1.64771008 -0.70230985
v 0.38361374 1.37533677 -0.84391141
v 0.34615302 1.51641965 -0.78345168
v 0.46842986 1.45428848 -0.75793540
v 0.61564201 1.78414118 -0.08108637
v 0.57125163 1.79294729 -0.21302284
v 0.70710671 1.60179889 -0.37174809
v 0.64741188 1.70260775 -0.29600459
v 0.75865215 1.60712326 -0.23708627
v 0.51612163 1.78374970 -0.34615302
v 0.45399037 1.75823355 -0.46842986
v 0.78384292 1.08138418 -0.61564183
v 0.79264921 1.21332073 -0.57125163
v 0.86492926 1.13149846 -0.48444170
v 0.60150093 1.37204611 -0.70710677
v 0.70230985 1.29630268 -0.64741188
v 0.60682517 1.23738420 -0.75865233
v 0.84391159 1.38391173 -0.37503865
v 0.78345168 1.34645104 -0.51612163
v 0.75793540 1.46872783 -0.45399046
v 0.51337546 1.64687598 -0.56425422
v 0.64657778 1.56455219 -0.51337546
v 0.56425422 1.51367331 -0.64657778
v 0.61564201 0.21645503 0.08108629
v 0.57125163 0.20764880 0.21302290
v 0.48444164 0.13536869 0.13120037
v 0.70710677 0.39879707 0.37174803
v 0.64741188 0.29798815 0.29600456
v 0.75865233 0.39347288 0.23708630
v 0.37503856 0.15638658 0.38361374
v 0.51612163 0.21684639 0.34615302
v 0.45399049 0.24236268 0.46842989
v 0.78384304 0.91921169 0.61564201
v 0.79264921 0.78727520 0.57125163
v 0.86492932 0.86909765 0.48444164
v 0.60150093 0.62854999 0.70710677
v 0.70230985 0.70429349 0.64741188
v 0.60682517 0.76321173 0.75865233
v 0.84391147 0.61668432 0.37503856
v 0.78345168 0.65414500 0.51612163
v 0.75793540 0.53186816 0.45399049
v 0.08108625 0.38465604 0.78384304
v 0.21302290 0.42904633 0.79264921
v 0.13120031 0.51585639 0.86492932
v 0.37174800 0.29319134 0.60150093
v 0.29600459 0.35288608 0.70230985
v 0.23708636 0.24164577 0.60682517
v 0.38361374 0.62525940 0.84391147
v 0.34615302 0.48417646 0.78345168
v 0.46842986 0.54630750 0.75793540
v 0.64657778 0.43604383 0.51337546
v 0.56425422 0.48692259 0.64657778
v 0.51337546 0.35372034 0.56425422
v 0.35822883 0.07599343 0.13165541
v 0.40335536 0.08525457 0.00000002
v 0.23867695 0.10929155 0.38618737
v 0.30125889 0.08405387 0.26408276
v 0.13795225 0.00985914 -0.00000001
v 0.22011706 0.03390540 0.13279249
v 0.08224247 0.01260968 0.13307109
v -0.08108625 0.38465610 0.78384304
v 0.00000005 0.29739097 0.71128172
v -0.15643448 0.16012014 0.51925850
v -0.08114189 0.22009374 0.62023956
v -0.23708627 0.24164575 0.60682517
v 0.08114182 0.22009368 0.62023956
v 0.15643445 0.16012017 0.51925856
v -0.40335536 0.08525462 -0.00000000
v -0.35822880 0.07599340 0.13165538
v -0.48444164 0.13536869 0.13120033
v -0.08224249 0.01260969 0.13307108
v -0.22011703 0.03390540 0.13279244
v -0.13795225 0.00985912 -0.00000001
v -0.37503856 0.15638652 0.38361374
v -0.30125892 0.08405381 0.26408279
v -0.23867694 0.10929149 0.38618737
v 0.08232357 0.08731553 0.39960706
v -0.08232359 0.08731555 0.39960706
v -0.00000001 0.03643674 0.26640469
v 0.35822886 0.07599342 -0.13165540
v 0.48444164 0.13536865 -0.13120040
v 0.08224247 0.01260966 -0.13307111
v 0.22011703 0.03390540 -0.13279247
v 0.37503853 0.15638657 -0.38361374
v 0.30125892 0.08405385 -0.26408279
v 0.23867694 0.10929144 -0.38618737
v -0.48444164 0.13536872 -0.13120042
v -0.35822880 0.07599345 -0.13165537
v -0.23867695 0.10929152 -0.38618737
v -0.30125889 0.08405383 -0.26408276
v -0.37503853 0.15638657 -0.38361374
v -0.22011703 0.03390537 -0.13279247
v -0.08224247 0.01260965 -0.13307111
v 0.08108624 0.38465607 -0.78384304
v 0.00000001 0.29739100 -0.71128172
v -0.08108630 0.38465607 -0.78384304
v 0.15643448 0.16012011 -0.51925850
v 0.08114187 0.22009365 -0.62023956
v 0.23708633 0.24164572 -0.60682517
v -0.23708634 0.24164571 -0.60682517
v -0.08114186 0.22009365 -0.62023956
v -0.15643448 0.16012016 -0.51925850
v -0.00000002 0.03643674 -0.26640469
v -0.08232357 0.08731551 -0.39960709
v 0.08232358 0.08731548 -0.39960706
v 0.57125163 0.20764881 -0.21302283
v 0.61564201 0.21645503 -0.08108628
v 0.45399049 0.24236263 -0.46842986
v 0.51612163 0.21684633 -0.34615302
v 0.75865233 0.39347288 -0.23708634
v 0.64741188 0.29798821 -0.29600459
v 0.70710677 0.39879709 -0.37174800
v 0.13120037 0.51585639 -0.86492932
v 0.21302287 0.42904639 -0.79264921
v 0.46842986 0.54630750 -0.75793540
v 0.34615299 0.48417643 -0.78345168
v 0.38361374 0.62525946 -0.84391147
v 0.29600462 0.35288614 -0.70230985
v 0.37174803 0.29319134 -0.60150093
v 0.86492932 0.86909759 -0.48444161
v 0.79264921 0.78727520 -0.57125163
v 0.78384310 0.91921169 -0.61564201
v 0.75793540 0.53186828 -0.45399046
v 0.78345168 0.65414500 -0.51612163
v 0.84391147 0.61668426 -0.37503856
v 0.60682517 0.76321173 -0.75865233
v 0.70230985 0.70429343 -0.64741188
v 0.60150093 0.62854987 -0.70710677
v 0.51337546 0.35372028 -0.56425422
v 0.56425434 0.48692262 -0.64657778
v 0.64657778 0.43604386 -0.51337546
v 0.70290703 0.28901634 0.00000001
v 0.84017789 0.48103955 -0.15643452
v 0.78020436 0.38005850 -0.08114183
v 0.78020436 0.38005853 0.08114182
v 0.84017789 0.48103955 0.15643449
v 0.91504341 1.00029802 -0.40335536
v 0.92430460 0.86864269 -0.35822880
v 0.98768836 0.86722696 -0.08224253
v 0.96639264 0.86750531 -0.22011697
v 0.99043888 1.00029814 -0.13795231
v 0.91624421 0.73621535 -0.30125886
v 0.89100653 0.61411059 -0.23867689
v 0.92430460 0.86864269 0.35822877
v 0.91504341 1.00029802 0.40335539
v 0.89100653 0.61411065 0.23867685
v 0.91624415 0.73621523 0.30125892
v 0.99043888 1.00029802 0.13795228
v 0.96639258 0.86750561 0.22011712
v 0.98768836 0.86722696 0.08224248
v 0.91298246 0.60069090 -0.08232357
v 0.96386129 0.73389333 -0.00000006
v 0.91298246 0.60069096 0.08232354
v 0.13165529 0.64206922 0.92430460
v 0.38618737 0.76162112 0.89100653
v 0.26408276 0.69903910 0.91624415
v 0.13279253 0.78018093 0.96639258
v 0.13307111 0.91805553 0.98768836
v 0.71128184 1.00029790 0.70290709
v 0.51925850 1.15673244 0.84017789
v 0.62023944 1.08143985 0.78020436
v 0.62023956 0.91915619 0.78020436
v 0.51925850 0.84386349 0.84017789
v 0.13165537 1.35852695 0.92430460
v 0.13307109 1.08254051 0.98768836
v 0.13279250 1.22041512 0.96639258
v 0.26408273 1.30155671 0.91624421
v 0.38618737 1.23897505 0.89100653
v 0.39960706 0.91797447 0.91298246
v 0.39960715 1.08262157 0.91298234
v 0.26640469 1.00029802 0.96386129
v -0.57125163 0.20764877 0.21302289
v -0.45399049 0.24236260 0.46842986
v -0.51612163 0.21684635 0.34615302
v -0.64741188 0.29798818 0.29600462
v -0.70710677 0.39879704 0.37174806
v -0.21302287 0.42904636 0.79264921
v -0.46842986 0.54630744 0.75793540
v -0.34615302 0.48417643 0.78345168
v -0.29600459 0.35288617 0.70230985
v -0.37174803 0.29319128 0.60150093
v -0.79264921 0.78727531 0.57125163
v -0.75793540 0.53186822 0.45399046
v -0.78345174 0.65414494 0.51612163
v -0.70230985 0.70429343 0.64741188
v -0.60150093 0.62854993 0.70710677
v -0.51337546 0.35372028 0.56425422
v -0.56425422 0.48692250 0.64657778
v -0.64657778 0.43604386 0.51337546
v -0.21302283 0.42904642 -0.79264921
v -0.37174803 0.29319125 -0.60150093
v -0.29600459 0.35288611 -0.70230985
v -0.34615302 0.48417640 -0.78345168
v -0.46842986 0.54630744 -0.75793540
v -0.57125163 0.20764887 -0.21302293
v -0.70710677 0.39879707 -0.37174800
v -0.64741188 0.29798824 -0.29600465
v -0.51612163 0.21684638 -0.34615302
v -0.45399049 0.24236263 -0.46842986
v -0.79264921 0.78727525 -0.57125163
v -0.60150093 0.62855005 -0.70710677
v -0.70230985 0.70429343 -0.64741188
v -0.78345168 0.65414500 -0.51612163
v -0.75793540 0.53186816 -0.45399049
v -0.51337546 0.35372028 -0.56425422
v -0.64657778 0.43604386 -0.51337546
v -0.56425422 0.48692268 -0.64657778
v 0.71128154 1.00029802 -0.70290703
v 0.51925850 0.84386355 -0.84017789
v 0.62023956 0.91915607 -0.78020430
v 0.62023956 1.08143985 -0.78020436
v 0.51925850 1.15673244 -0.84017789
v 0.13165541 0.64206922 -0.92430460
v 0.13307106 0.91805553 -0.98768836
v 0.13279241 0.78018105 -0.96639258
v 0.26408270 0.69903916 -0.91624415
v 0.38618731 0.76162106 -0.89100653
v 0.13165535 1.35852695 -0.92430454
v 0.38618734 1.23897481 -0.89100653
v 0.26408276 1.30155683 -0.91624415
v 0.13279256 1.22041523 -0.96639258
v 0.13307108 1.08254039 -0.98768836
v 0.39960697 0.91797441 -0.91298240
v 0.26640463 1.00029802 -0.96386129
v 0.39960706 1.08262134 -0.91298246
v 0.92430460 1.13195336 0.35822880
v 0.98768842 1.13336909 0.08224247
v 0.96639258 1.13309038 0.22011703
v 0.91624409 1.26438057 0.30125889
v 0.89100653 1.38648546 0.23867697
v 0.92430454 1.13195348 -0.35822883
v 0.89100665 1.38648546 -0.23867683
v 0.91624415 1.26438081 -0.30125895
v 0.96639258 1.13309050 -0.22011706
v 0.98768836 1.13336909 -0.08224253
v 0.70290720 1.71157980 0.00000006
v 0.84017789 1.51955652 0.15643434
v 0.78020436 1.62053764 0.08114182
v 0.78020436 1.62053764 -0.08114186
v 0.84017789 1.51955640 -0.15643436
v 0.96386129 1.26670277 -0.00000000
v 0.91298246 1.39990509 -0.08232363
v 0.91298246 1.39990509 0.08232358
f 330 87 329
f 336 325 26
f 207 208 56
f 464 36 580
f 502 129 504
f 157 624 622
f 308 311 82
f 247 223 248
f 507 483 508
f 331 88 329
f 494 500 497
f 156 601 602
f 591 589 592
f 365 98 596
f 75 281 282
f 152 587 577
f 149 559 560
f 555 121 553
f 530 141 529
f 515 517 139
f 361 594 98
f 250 67 249
f 157 608 609
f 294 293 209
f 317 81 316
f 557 338 26
f 303 305 81
f 530 529 528
f 101 381 382
f 415 418 111
f 192 184 50
f 412 110 411
f 20 384 256
f 131 594 486
f 281 264 282
f 347 287 348
f 28 349 582
f 165 163 1
f 248 250 66
f 617 107 398
f 273 271 274
f 456 115 453
f 558 561 560
f 335 576 91
f 331 177 332
f 116 433 436
f 351 370 92
f 136 511 530
f 239 240 65
f 247 258 19
f 304 23 567
f 148 557 570
f 214 208 58
f 440 426 450
f 268 270 269
f 258 247 268
f 204 202 16
f 466 125 465
f 517 513 133
f 168 275 274
f 275 73 274
f 198 193 53
f 309 308 307
f 510 511 136
f 415 416 110
f 131 490 597
f 473 475 474
f 414 415 111
f 493 495 494
f 496 504 485
f 433 116 432
f 600 375 601
f 240 234 65
f 418 415 412
f 486 361 3
f 567 566 304
f 380 393 29
f 17 199 197
f 491 492 132
f 451 449 435
f 218 217 216
f 623 621 613
f 396 104 395
f 433 439 436
f 628 160 627
f 215 202 217
f 209 207 2
f 427 113 424
f 434 10 544
f 434 433 432
f 199 17 210
f 150 564 565
f 489 491 132
f 275 13 285
f 497 500 134
f 125 466 476
f 578 152 577
f 208 214 211
f 328 88 343
f 356 27 603
f 150 566 567
f 372 100 371
f 190 191 47
f 235 8 398
f 260 261 72
f 422 403 414
f 422 414 111
f 453 454 123
f 349 583 582
f 521 520 519
f 425 453 115
f 616 622 158
f 483 130 508
f 151 586 572
f 212 17 232
f 400 397 402
f 377 396 99
f 41 522 511
f 510 508 505
f 549 547 42
f 475 473 36
f 510 137 509
f 222 221 197
f 430 115 429
f 220 194 1
f 305 54 204
f 621 29 613
f 192 171 184
f 460 335 5
f 88 331 332
f 74 277 279
f 300 301 80
f 390 389 388
f 165 45 164
f 146 549 551
f 291 278 75
f 448 120 445
f 147 543 544
f 607 610 609
f 603 602 356
f 139 529 514
f 333 553 443
f 92 368 347
f 261 260 259
f 300 6 200
f 46 177 331
f 284 283 174
f 301 300 200
f 471 468 474
f 54 305 301
f 302 304 303
f 569 150 567
f 150 569 570
f 294 209 2
f 628 629 160
f 548 543 147
f 147 625 627
f 63 233 234
f 426 427 114
f 41 509 532
f 198 52 196
f 614 105 612
f 147 627 547
f 81 305 306
f 549 548 547
f 54 301 200
f 342 88 332
f 264 281 70
f 193 194 53
f 455 429 456
f 187 321 14
f 479 130 484
f 147 544 625
f 458 456 453
f 304 80 303
f 314 84 313
f 488 503 501
f 321 332 14
f 423 425 424
f 305 204 306
f 341 339 25
f 514 40 516
f 625 628 627
f 340 339 341
f 105 614 391
f 243 228 62
f 318 316 78
f 75 278 279
f 357 355 353
f 238 257 63
f 466 455 476
f 425 423 4
f 448 449 120
f 408 638 108
f 292 275 285
f 22 278 289
f 515 513 517
f 501 503 134
f 622 623 158
f 134 503 504
f 195 216 206
f 163 271 246
f 619 617 620
f 62 228 229
f 163 165 164
f 453 425 454
f 489 132 488
f 82 628 625
f 58 208 209
f 525 608 40
f 626 547 627
f 518 517 498
f 489 487 491
f 557 26 564
f 325 336 344
f 541 145 539
f 40 616 516
f 338 556 89
f 250 248 245
f 139 514 515
f 98 594 596
f 246 220 1
f 112 413 630
f 9 536 413
f 156 600 601
f 332 177 14
f 321 342 332
f 156 606 600
f 584 330 585
f 302 303 81
f 584 87 330
f 330 25 585
f 400 239 65
f 439 440 117
f 95 358 368
f 597 594 131
f 594 361 486
f 246 67 245
f 561 562 149
f 28 364 362
f 55 216 217
f 427 430 114
f 267 20 254
f 556 555 553
f 84 309 558
f 311 310 312
f 609 525 142
f 256 68 255
f 124 460 461
f 82 311 312
f 307 308 82
f 589 135 495
f 527 40 514
f 112 418 412
f 20 256 254
f 258 238 19
f 267 254 269
f 273 272 249
f 392 391 393
f 137 533 509
f 122 455 456
f 9 413 411
f 130 480 505
f 333 443 5
f 527 525 40
f 589 495 385
f 39 496 485
f 223 225 224
f 414 416 415
f 219 222 53
f 145 538 539
f 413 412 411
f 469 468 467
f 183 181 6
f 191 192 50
f 429 35 431
f 292 285 76
f 413 112 412
f 415 110 412
f 43 164 167
f 467 468 126
f 617 101 620
f 450 451 117
f 438 546 545
f 619 620 159
f 17 212 210
f 124 579 576
f 584 153 583
f 460 124 576
f 3 469 467
f 311 308 314
f 6 320 183
f 389 104 388
f 251 250 249
f 194 165 1
f 291 289 278
f 287 77 348
f 238 258 257
f 139 517 518
f 238 236 19
f 223 247 19
f 382 380 29
f 39 518 498
f 361 359 3
f 69 255 257
f 139 518 528
f 33 545 535
f 387 385 7
f 69 268 269
f 477 462 125
f 454 479 123
f 121 555 447
f 451 435 117
f 454 425 4
f 233 252 8
f 124 463 464
f 69 258 268
f 168 167 166
f 583 153 582
f 384 394 102
f 138 512 513
f 57 210 211
f 254 256 255
f 607 609 142
f 324 319 86
f 289 291 76
f 291 292 76
f 384 102 383
f 422 421 420
f 221 17 197
f 383 102 381
f 376 377 99
f 99 373 374
f 386 105 392
f 438 33 440
f 90 341 343
f 281 75 279
f 574 571 96
f 628 82 312
f 221 222 59
f 127 471 474
f 595 605 603
f 551 538 145
f 334 91 340
f 322 324 85
f 305 303 301
f 18 239 399
f 306 204 16
f 199 198 197
f 166 190 180
f 303 80 301
f 267 266 265
f 626 42 547
f 16 215 213
f 349 351 350
f 295 16 213
f 68 379 252
f 250 251 66
f 627 160 626
f 383 68 256
f 343 88 342
f 507 508 136
f 202 215 16
f 197 198 53
f 254 69 269
f 603 605 156
f 418 419 111
f 384 383 256
f 455 122 476
f 203 204 54
f 556 557 148
f 255 68 253
f 313 84 560
f 25 328 341
f 254 255 69
f 603 156 602
f 581 584 583
f 630 632 112
f 163 246 1
f 246 245 220
f 432 116 558
f 499 591 590
f 320 563 86
f 345 93 350
f 306 16 295
f 346 93 345
f 562 568 149
f 604 605 155
f 154 592 593
f 545 552 535
f 511 522 530
f 574 573 571
f 566 150 565
f 361 98 360
f 67 271 273
f 234 235 65
f 208 211 56
f 574 151 573
f 251 270 66
f 398 8 378
f 213 215 214
f 438 440 439
f 315 314 313
f 263 71 262
f 20 373 384
f 496 134 504
f 329 88 328
f 81 306 316
f 555 556 148
f 592 589 103
f 617 619 107
f 227 207 56
f 571 359 96
f 446 466 465
f 206 216 55
f 359 571 469
f 568 148 570
f 34 437 435
f 28 351 349
f 21 272 282
f 113 423 424
f 490 489 488
f 379 68 383
f 210 212 211
f 80 563 300
f 351 92 350
f 326 346 12
f 83 317 318
f 555 148 554
f 212 231 56
f 218 57 217
f 271 67 246
f 195 196 52
f 270 268 66
f 390 592 103
f 148 568 554
f 495 493 7
f 592 390 593
f 357 95 355
f 574 575 151
f 452 120 451
f 154 591 592
f 587 585 577
f 395 394 396
f 93 349 350
f 610 416 611
f 166 44 190
f 315 23 302
f 315 302 317
f 268 247 66
f 606 154 593
f 396 394 99
f 211 212 56
f 370 369 368
f 235 397 65
f 280 278 22
f 83 315 317
f 575 588 151
f 74 279 280
f 385 495 7
f 63 257 253
f 397 235 398
f 214 58 213
f 220 219 194
f 546 146 545
f 236 225 19
f 599 94 602
f 235 233 8
f 102 394 395
f 611 416 32
f 225 223 19
f 139 528 529
f 231 62 229
f 419 406 421
f 451 450 452
f 49 182 185
f 402 397 107
f 52 199 218
f 416 610 110
f 225 236 244
f 107 397 398
f 68 252 253
f 322 85 321
f 182 181 183
f 118 438 439
f 546 438 118
f 348 77 345
f 543 546 118
f 231 212 232
f 610 611 157
f 33 438 545
f 385 386 103
f 479 480 130
f 169 195 15
f 93 583 349
f 15 195 206
f 190 44 192
f 247 248 66
f 146 552 545
f 248 60 245
f 570 557 564
f 274 271 43
f 63 253 233
f 272 21 249
f 507 528 518
f 67 273 249
f 487 467 126
f 196 195 169
f 624 159 623
f 134 496 497
f 132 503 488
f 104 393 395
f 556 553 89
f 355 356 94
f 258 69 257
f 229 61 227
f 56 231 227
f 460 576 335
f 463 124 461
f 394 373 99
f 29 393 391
f 67 250 245
f 193 198 196
f 462 36 464
f 144 633 630
f 141 526 527
f 517 133 498
f 536 144 630
f 100 372 599
f 144 536 537
f 22 289 287
f 578 579 152
f 579 578 576
f 189 188 187
f 60 223 224
f 92 348 350
f 555 554 447
f 396 377 388
f 194 193 165
f 413 536 630
f 372 352 599
f 377 376 375
f 348 345 350
f 105 386 387
f 240 237 234
f 463 462 464
f 135 500 494
f 45 196 169
f 512 612 387
f 245 60 220
f 429 115 456
f 223 60 248
f 288 289 76
f 525 526 142
f 100 599 601
f 613 29 391
f 526 523 520
f 341 328 343
f 631 641 639
f 264 21 282
f 266 72 265
f 106 402 403
f 73 273 274
f 186 206 205
f 381 379 383
f 52 216 195
f 410 18 399
f 290 272 73
f 72 371 374
f 526 525 527
f 115 430 424
f 498 497 496
f 621 382 29
f 543 118 434
f 214 215 57
f 522 141 530
f 511 510 509
f 352 94 599
f 493 512 7
f 90 340 341
f 169 171 170
f 605 604 606
f 219 60 224
f 104 389 392
f 359 469 3
f 186 49 185
f 222 219 224
f 166 167 44
f 428 427 426
f 523 522 524
f 129 502 481
f 50 185 188
f 164 45 170
f 425 115 424
f 33 428 426
f 427 428 113
f 94 356 602
f 515 138 513
f 114 431 452
f 237 236 238
f 215 217 57
f 95 354 355
f 220 60 219
f 515 514 516
f 183 320 319
f 222 197 53
f 559 569 567
f 300 320 6
f 435 436 117
f 96 360 363
f 640 642 641
f 242 243 62
f 140 537 519
f 508 130 505
f 420 410 399
f 537 539 144
f 317 316 318
f 426 114 450
f 186 15 206
f 311 83 310
f 625 544 307
f 544 10 307
f 168 43 167
f 185 182 188
f 369 354 95
f 44 171 192
f 605 606 156
f 548 549 146
f 100 601 375
f 149 568 569
f 381 380 382
f 455 466 35
f 480 479 454
f 543 548 546
f 493 133 513
f 492 472 37
f 477 125 476
f 491 487 126
f 337 336 338
f 588 153 587
f 576 578 91
f 633 161 632
f 96 359 360
f 39 485 483
f 101 617 378
f 193 45 165
f 163 164 43
f 618 624 611
f 507 136 528
f 561 149 560
f 641 162 639
f 116 561 558
f 494 133 493
f 253 252 233
f 63 237 238
f 392 393 104
f 440 450 117
f 93 581 583
f 386 385 387
f 120 449 451
f 421 422 111
f 486 3 467
f 302 81 317
f 633 632 630
f 462 475 36
f 376 99 374
f 489 490 131
f 447 449 448
f 387 612 105
f 106 420 399
f 173 46 172
f 492 491 472
f 316 306 295
f 22 287 347
f 109 410 420
f 507 39 483
f 559 23 313
f 214 57 211
f 196 45 193
f 10 434 432
f 422 106 403
f 626 160 640
f 487 486 467
f 542 41 532
f 400 106 399
f 444 120 452
f 198 199 52
f 475 127 474
f 621 620 382
f 621 623 159
f 450 114 452
f 92 347 348
f 376 100 375
f 434 118 433
f 503 132 502
f 337 90 336
f 537 536 519
f 395 393 380
f 201 54 200
f 171 44 170
f 355 94 353
f 58 296 213
f 422 420 106
f 595 365 596
f 569 568 570
f 523 140 520
f 114 430 431
f 218 210 57
f 304 566 80
f 639 162 638
f 261 371 72
f 548 147 547
f 498 133 497
f 150 570 564
f 222 224 59
f 142 526 520
f 437 436 435
f 141 522 523
f 137 510 505
f 173 179 176
f 559 149 569
f 121 447 448
f 563 320 300
f 102 395 380
f 257 255 253
f 642 162 641
f 83 311 314
f 216 52 218
f 512 493 513
f 23 304 302
f 91 339 340
f 512 138 612
f 159 620 621
f 218 199 210
f 364 28 575
f 83 318 310
f 168 274 43
f 136 530 528
f 140 523 524
f 495 135 494
f 233 235 234
f 566 563 80
f 25 339 577
f 277 74 276
f 475 462 477
f 133 494 497
f 436 437 116
f 389 386 392
f 548 146 546
f 441 460 5
f 10 309 307
f 65 397 400
f 543 434 544
f 640 641 161
f 272 273 73
f 581 93 346
f 419 421 111
f 319 320 86
f 180 179 178
f 127 475 477
f 231 229 227
f 337 334 340
f 136 508 510
f 308 309 84
f 237 63 234
f 447 554 34
f 252 379 378
f 315 83 314
f 608 622 616
f 338 336 26
f 337 338 89
f 13 275 168
f 209 208 207
f 436 439 117
f 628 312 629
f 360 366 363
f 364 574 96
f 359 361 360
f 466 446 35
f 500 501 134
f 406 109 421
f 135 589 591
f 601 599 602
f 340 90 337
f 481 492 37
f 522 41 524
f 78 316 295
f 131 486 487
f 403 32 414
f 634 626 640
f 151 572 573
f 515 516 138
f 8 252 378
f 265 72 374
f 9 521 519
f 538 549 42
f 368 358 347
f 588 587 586
f 458 453 123
f 589 385 103
f 502 492 481
f 32 416 414
f 430 427 424
f 153 585 587
f 540 144 539
f 370 368 92
f 209 293 58
f 428 33 535
f 326 581 346
f 625 307 82
f 575 28 582
f 6 181 200
f 421 109 420
f 553 121 443
f 160 642 640
f 153 584 585
f 309 432 558
f 334 337 89
f 23 315 313
f 271 163 43
f 296 295 213
f 39 498 496
f 118 439 433
f 531 113 534
f 293 296 58
f 28 362 351
f 489 131 487
f 431 444 452
f 84 558 560
f 98 366 360
f 45 169 170
f 379 101 378
f 462 463 125
f 308 84 314
f 10 432 309
f 299 24 310
f 132 492 502
f 512 387 7
f 639 638 408
f 565 323 86
f 59 244 242
f 106 400 402
f 440 33 426
f 566 565 563
f 617 398 378
f 224 225 59
f 410 109 409
f 239 400 399
f 194 219 53
f 358 22 347
f 610 157 609
f 27 595 603
f 479 484 482
f 142 520 521
f 585 25 577
f 339 578 577
f 408 407 406
f 407 109 406
f 31 408 406
f 407 408 108
f 31 639 408
f 419 31 406
f 608 616 40
f 430 429 431
f 455 35 429
f 35 444 431
f 188 51 187
f 188 182 51
f 51 322 187
f 322 51 319
f 51 182 183
f 319 51 183
f 187 322 321
f 322 319 324
f 381 101 379
f 405 407 108
f 404 405 108
f 286 285 178
f 407 405 409
f 109 407 409
f 191 175 47
f 167 164 170
f 50 184 185
f 44 167 170
f 64 244 236
f 243 244 64
f 50 188 189
f 541 542 145
f 442 445 119
f 339 91 578
f 445 446 119
f 624 623 622
f 611 624 157
f 523 526 141
f 141 527 529
f 527 514 529
f 445 120 444
f 446 445 444
f 35 446 444
f 613 614 158
f 158 614 615
f 623 613 158
f 614 613 391
f 614 612 615
f 371 376 374
f 100 376 371
f 479 482 123
f 373 394 384
f 540 42 634
f 633 540 634
f 538 42 540
f 633 634 161
f 161 634 640
f 42 626 634
f 540 633 144
f 557 556 338
f 553 333 89
f 262 21 264
f 251 21 262
f 5 335 333
f 270 251 262
f 21 251 249
f 600 593 30
f 606 593 600
f 600 30 375
f 593 390 30
f 30 377 375
f 390 388 30
f 30 388 377
f 228 243 241
f 470 478 459
f 470 127 478
f 127 477 478
f 184 186 185
f 478 477 476
f 122 478 476
f 357 74 280
f 518 39 507
f 344 342 85
f 325 344 85
f 342 344 343
f 85 342 321
f 344 90 343
f 90 344 336
f 482 129 481
f 482 481 457
f 482 457 123
f 481 37 457
f 449 447 34
f 435 449 34
f 470 472 471
f 472 470 37
f 470 471 127
f 472 126 471
f 126 468 471
f 470 459 37
f 491 126 472
f 504 129 485
f 221 59 242
f 125 463 465
f 437 34 562
f 561 437 562
f 554 568 562
f 34 554 562
f 437 561 116
f 390 103 389
f 103 386 389
f 392 105 391
f 572 586 580
f 572 580 36
f 586 152 580
f 473 572 36
f 244 243 242
f 225 244 59
f 64 240 241
f 240 239 241
f 237 240 64
f 243 64 241
f 236 237 64
f 411 607 521
f 9 411 521
f 110 607 411
f 607 142 521
f 610 607 110
f 171 15 184
f 171 169 15
f 15 186 184
f 87 584 581
f 153 588 582
f 588 575 582
f 381 102 380
f 573 572 473
f 468 469 128
f 474 468 128
f 469 571 128
f 571 573 128
f 573 473 128
f 473 474 128
f 564 323 565
f 26 323 564
f 323 324 86
f 325 323 26
f 325 324 323
f 563 565 86
f 324 325 85
f 410 230 18
f 230 228 18
f 18 228 241
f 18 241 239
f 401 619 618
f 401 402 107
f 403 402 401
f 619 159 618
f 401 618 32
f 619 401 107
f 403 401 32
f 618 611 32
f 159 624 618
f 478 122 459
f 122 458 459
f 37 459 457
f 459 458 457
f 122 456 458
f 457 458 123
f 191 190 192
f 485 129 484
f 129 482 484
f 483 485 484
f 130 483 484
f 189 187 14
f 191 50 189
f 191 189 175
f 189 14 175
f 14 177 175
f 499 501 500
f 501 499 38
f 38 499 590
f 135 499 500
f 488 501 38
f 499 135 591
f 480 454 4
f 284 12 346
f 4 423 506
f 480 4 506
f 423 531 506
f 480 506 505
f 531 137 506
f 506 137 505
f 365 366 98
f 71 270 262
f 270 71 269
f 71 267 269
f 335 334 333
f 333 334 89
f 334 335 91
f 536 9 519
f 465 463 461
f 537 140 541
f 520 140 519
f 119 446 465
f 465 461 119
f 461 441 119
f 460 441 461
f 176 46 173
f 299 297 24
f 71 263 266
f 263 260 266
f 260 72 266
f 263 70 260
f 205 201 49
f 201 181 49
f 186 205 49
f 181 201 200
f 181 182 49
f 284 77 283
f 586 587 152
f 588 586 151
f 20 267 265
f 266 267 71
f 31 417 631
f 631 417 632
f 31 631 639
f 417 31 419
f 641 631 161
f 417 112 632
f 161 631 632
f 418 417 419
f 417 418 112
f 284 345 77
f 542 550 145
f 542 541 524
f 284 174 12
f 48 174 283
f 373 20 265
f 373 265 374
f 609 608 525
f 608 157 622
f 560 559 313
f 636 637 162
f 541 140 524
f 41 542 524
f 358 357 280
f 70 263 264
f 263 262 264
f 176 177 46
f 174 48 173
f 174 173 172
f 538 551 549
f 538 540 539
f 537 541 539
f 232 221 242
f 17 221 232
f 232 242 62
f 231 232 62
f 203 205 55
f 203 55 202
f 201 205 203
f 202 55 217
f 205 206 55
f 204 203 202
f 73 275 292
f 292 290 73
f 272 290 282
f 290 292 291
f 75 290 291
f 290 75 282
f 70 277 259
f 277 70 281
f 277 281 279
f 260 70 259
f 12 174 172
f 104 396 388
f 367 27 354
f 365 27 367
f 354 27 356
f 365 367 366
f 595 27 365
f 318 299 310
f 155 596 597
f 155 597 598
f 596 594 597
f 595 596 155
f 605 595 155
f 180 47 179
f 180 190 47
f 352 372 11
f 11 372 261
f 312 310 24
f 642 636 162
f 636 297 637
f 367 369 97
f 366 367 97
f 369 367 354
f 369 370 97
f 580 579 464
f 580 152 579
f 579 124 464
f 61 230 409
f 230 410 409
f 230 61 229
f 230 229 228
f 76 285 286
f 353 352 276
f 74 353 276
f 288 76 286
f 288 286 283
f 289 288 287
f 203 54 201
f 287 288 77
f 77 288 283
f 286 48 283
f 531 423 113
f 276 11 259
f 11 261 259
f 277 276 259
f 616 158 615
f 516 616 615
f 138 516 615
f 138 615 612
f 509 533 532
f 503 502 504
f 635 79 294
f 635 294 404
f 635 637 79
f 637 635 638
f 638 635 108
f 635 404 108
f 226 61 405
f 61 226 227
f 405 61 409
f 227 226 207
f 48 178 179
f 48 286 178
f 173 48 179
f 534 143 533
f 534 535 143
f 531 534 533
f 533 143 532
f 137 531 533
f 261 372 371
f 13 180 178
f 285 13 178
f 180 13 166
f 13 168 166
f 346 345 284
f 331 327 46
f 46 327 172
f 172 327 326
f 382 620 101
f 442 121 448
f 443 121 442
f 2 226 404
f 294 2 404
f 404 226 405
f 207 226 2
f 550 551 145
f 552 146 551
f 143 550 532
f 552 550 143
f 330 329 328
f 24 636 629
f 94 352 353
f 352 11 276
f 113 428 534
f 428 535 534
f 509 41 511
f 535 552 143
f 550 552 551
f 550 542 532
f 369 95 368
f 326 327 87
f 87 327 329
f 327 331 329
f 581 326 87
f 293 79 298
f 79 297 298
f 296 298 78
f 79 293 294
f 296 293 298
f 598 490 38
f 358 280 22
f 280 279 278
f 357 358 95
f 74 357 353
f 330 328 25
f 567 23 559
f 590 598 38
f 590 604 598
f 598 604 155
f 604 590 154
f 590 591 154
f 604 154 606
f 297 299 298
f 299 318 78
f 298 299 78
f 355 354 356
f 629 636 642
f 312 24 629
f 629 642 160
f 370 362 97
f 362 363 97
f 363 366 97
f 364 363 362
f 362 370 351
f 96 363 364
f 297 636 24
f 162 637 638
f 637 297 79
f 490 488 38
f 598 597 490
f 441 442 119
f 443 442 441
f 443 441 5
f 442 448 445
f 296 78 295
f 326 12 172
f 575 574 364
f 47 175 176
f 175 177 176
f 47 176 179
