# FEM surface export ¡ª frame 425
# Vertices: 642  Faces: 1280
v -0.51862156 1.10667324 -0.00297775
v 0.51942289 1.10585690 -0.00034728
v -0.51623529 0.03417296 -0.04319260
v 0.56187022 0.15598360 0.00510969
v 0.00647157 0.00000000 0.98239446
v 0.00071192 0.83975804 0.86650664
v -0.00443925 0.00000000 -1.00174785
v -0.00074287 0.83878458 -0.86596763
v 0.90674537 0.37677199 -0.55894679
v 0.90835589 0.37132272 0.55882871
v -0.90206778 0.36562136 -0.55738622
v -0.90285617 0.37363103 0.55992281
v -0.82604420 0.81701505 0.31432378
v -0.51790696 0.65192002 0.84014529
v -0.30642849 1.07351947 0.49377853
v 0.30692980 1.07369924 0.49594781
v 0.00030437 1.21893835 -0.00120096
v 0.30558863 1.07478833 -0.49503270
v -0.30697742 1.07363784 -0.49637371
v -0.51926291 0.64622670 -0.83914709
v -0.82654780 0.81427503 -0.31628367
v -1.06514072 0.37275475 0.00505761
v 0.52109772 0.64809805 0.84153682
v 0.82665128 0.81731790 0.31615090
v -0.54608357 0.10271824 0.88442189
v 0.00338659 0.37397596 1.06606913
v -0.94468397 0.00000000 -0.35864985
v -0.95006478 0.00000000 0.35825312
v -0.00026951 0.37563708 -1.06224632
v -0.54960859 0.10759956 -0.88082421
v 0.82715219 0.81585807 -0.31550765
v 0.51830536 0.65070570 -0.84176117
v 0.93563658 0.00000000 0.34827790
v 0.55227274 0.10468004 0.87881589
v 0.32732931 0.00735679 0.56865644
v -0.35996333 0.02167204 0.55249345
v 0.00894257 0.03021077 0.02354250
v -0.33445284 0.01465582 -0.49419442
v 0.33285287 0.00018688 -0.50475037
v 0.55287969 0.12188721 -0.89233363
v 0.94213939 0.00000000 -0.35458785
v 1.06786001 0.37646344 -0.00234033
v -0.69461429 0.98730046 0.15845127
v -0.58899522 0.97656405 0.42425558
v -0.42774689 1.11593211 0.25377247
v -0.73688895 0.52020144 0.73006016
v -0.70786929 0.75507498 0.60221720
v -0.89949524 0.60803556 0.45147851
v -0.16030633 0.97884649 0.70270598
v -0.43121526 0.89284021 0.69435024
v -0.26591006 0.76132274 0.88593715
v -0.15759566 1.18250871 0.25532341
v -0.26529288 1.19177902 -0.00114694
v 0.16016090 0.97835749 0.70333809
v -0.00012185 1.10570931 0.51823604
v 0.26576778 1.19053614 -0.00074404
v 0.15976289 1.18466949 0.25599098
v 0.42873824 1.11571789 0.25558424
v -0.15817723 1.18297398 -0.25812259
v -0.42676988 1.11568367 -0.25807220
v 0.42812887 1.11647296 -0.25626981
v 0.15829173 1.18409944 -0.25748900
v -0.16166961 0.97888613 -0.70279926
v 0.00112318 1.10614252 -0.51876879
v 0.16001041 0.97991830 -0.70347261
v -0.59027785 0.97309601 -0.42731681
v -0.69444174 0.98532748 -0.16273342
v -0.26725534 0.75724614 -0.88437003
v -0.43071145 0.89075875 -0.69680262
v -0.89868897 0.60456860 -0.45277166
v -0.70656860 0.74894094 -0.60233384
v -0.73655385 0.51419985 -0.72861207
v -0.86613274 0.83776236 -0.00170950
v -1.02197576 0.36990955 -0.28700766
v -0.99286473 0.60728019 -0.17062476
v -0.98924708 0.60913903 0.16739948
v -1.02267516 0.37029499 0.29343972
v 0.59033245 0.97372156 0.42672437
v 0.69475317 0.98682904 0.16057590
v 0.26850131 0.75885099 0.88698351
v 0.43199655 0.88985711 0.69660765
v 0.90199858 0.60594934 0.45322794
v 0.71042812 0.75246429 0.60579580
v 0.74187297 0.51975220 0.72869235
v -0.27516004 0.52171987 1.00148451
v 0.00105892 0.62015116 1.00444162
v -0.75146234 0.23238474 0.74597210
v -0.55688226 0.37612745 0.90427232
v -0.00070737 0.14431319 1.04622686
v -0.28050816 0.23289482 1.02047443
v -0.28309578 0.00942459 0.97146112
v -1.02263427 0.13341810 0.17732301
v -0.92918372 0.13944113 0.47159779
v -0.93295687 0.13893570 -0.46414658
v -1.02944028 0.14399074 -0.17261161
v -0.78349590 0.01588163 0.15110244
v -0.99524730 0.00000000 -0.01619861
v -0.76186013 0.05302481 -0.19097665
v -0.55877805 0.37568146 -0.90173215
v -0.75131565 0.23029859 -0.73976791
v 0.00049508 0.61789757 -1.00066638
v -0.27496186 0.51728743 -0.99872911
v -0.29523075 0.01550932 -0.97069222
v -0.28692162 0.23271394 -1.02409899
v -0.00126488 0.14471142 -1.05143774
v 0.43117511 0.89206558 -0.69728607
v 0.26694474 0.75921702 -0.88621974
v 0.69504201 0.98658454 -0.16160880
v 0.58963633 0.97418618 -0.42511007
v 0.73702455 0.51895076 -0.73048806
v 0.70862722 0.75109464 -0.60553718
v 0.90190351 0.60780442 -0.45411578
v 0.77978837 0.07859010 0.16754107
v 0.67149615 0.00000000 0.47770113
v 0.46668595 0.05555230 0.26722205
v 0.76211047 0.22704932 0.74632871
v 0.77432472 0.00118280 0.64503801
v 0.94141644 0.14517608 0.46675193
v 0.16988951 0.00000000 0.82622868
v 0.51046252 0.00000000 0.81436259
v 0.29608238 0.00270044 0.96727437
v 0.16023222 0.07329203 0.29660815
v 0.27084059 0.02810788 0.01100610
v -0.21397725 0.00005293 0.80489326
v -0.02800717 0.02028285 0.57623845
v -0.26519614 0.04003220 0.03205562
v -0.17853829 0.05735730 0.26457670
v -0.46019915 0.00000597 0.23864821
v 0.14528790 0.03223723 -0.25429595
v 0.47750056 0.03044351 -0.24195881
v -0.42832130 0.02880760 -0.25814626
v -0.14353536 0.02705393 -0.18741810
v 0.21566153 0.00000000 -0.77465802
v -0.00503458 0.00000000 -0.52455080
v -0.16413686 0.00016739 -0.78334725
v 0.66115737 0.02337444 -0.46820498
v 0.77418149 0.09439949 -0.16242509
v 0.28598285 0.02817629 -0.98197818
v 0.51085037 0.00000000 -0.81577677
v 0.93868327 0.14776441 -0.47019827
v 0.78634715 0.02855224 -0.66806144
v 0.76154298 0.23401372 -0.74823284
v 0.99717730 0.00000000 -0.00946442
v 1.02493560 0.37617588 -0.29127398
v 1.02353799 0.14348602 -0.17694198
v 1.02989912 0.14153346 0.17159642
v 1.02712774 0.37400347 0.28926027
v 0.28305268 0.22863354 1.01957107
v 0.56272614 0.37265891 0.90408528
v 0.27975330 0.51917243 0.99981666
v -0.68732727 0.00000000 0.47954160
v -0.49988616 0.00000000 0.80049521
v -0.77469045 0.03643941 0.66567421
v -0.48338723 0.00000000 -0.81184065
v -0.66690004 0.05529580 -0.47610533
v -0.78307223 0.04518354 -0.66314626
v 0.55746901 0.37406918 -0.90247601
v 0.28619516 0.24009858 -1.02512550
v 0.27478197 0.51913851 -0.99843824
v 0.99318737 0.60915154 0.16867886
v 0.99264860 0.61103576 -0.16878478
v 0.86708248 0.83949518 0.00034794
v -0.61074746 1.05404902 0.07866503
v -0.56591475 1.06091952 0.20913112
v -0.47660717 1.11732256 0.12712558
v -0.71533394 0.90432298 0.37291092
v -0.64719546 0.98751336 0.29340568
v -0.76698625 0.90806842 0.23671921
v -0.37011814 1.10079002 0.37664866
v -0.51221907 1.05258107 0.34201488
v -0.45162973 1.03265607 0.46397987
v -0.82798982 0.44759706 0.65169322
v -0.82992435 0.56681836 0.59840518
v -0.91094631 0.49347073 0.51119715
v -0.62139732 0.70773250 0.72974688
v -0.73106587 0.64142513 0.67263258
v -0.63428897 0.58881372 0.79295623
v -0.86966175 0.71692002 0.38511515
v -0.81072581 0.68433177 0.53248310
v -0.77608430 0.79312778 0.46348721
v -0.08140039 0.91423643 0.79107881
v -0.21513006 0.87696266 0.80307072
v -0.13337092 0.80352420 0.88501179
v -0.37147433 0.99081945 0.60028476
v -0.29759303 0.94119608 0.70575625
v -0.23576884 1.03167903 0.60274506
v -0.39541602 0.71229833 0.87156969
v -0.35331741 0.83213913 0.79737812
v -0.48056206 0.78003496 0.77527499
v -0.65556061 0.87418151 0.51856261
v -0.57648790 0.83076560 0.65696084
v -0.51599568 0.94262964 0.56581104
v -0.35075650 1.16253650 0.12710313
v -0.39448953 1.15493667 -0.00157301
v -0.23384640 1.13835919 0.37809873
v -0.29551882 1.15591466 0.25694898
v -0.13379838 1.21550107 -0.00171846
v -0.21332809 1.19413733 0.12812856
v -0.07937950 1.21126127 0.12860292
v 0.08209021 0.91361523 0.79012895
v -0.00022488 0.98619032 0.71079940
v 0.15371901 1.09706247 0.51221335
v 0.08015243 1.04912734 0.61481190
v 0.23624413 1.03129077 0.60410190
v -0.07932322 1.04833162 0.61497176
v -0.15428853 1.09842157 0.51220399
v 0.39633390 1.15529299 -0.00021827
v 0.35097799 1.16205752 0.12899901
v 0.47772875 1.11759710 0.12789285
v 0.08059592 1.20973098 0.12858394
v 0.21514466 1.19525421 0.12980679
v 0.13434741 1.21462643 -0.00079710
v 0.37225971 1.10127687 0.37832913
v 0.29504669 1.15725636 0.25862423
v 0.23476915 1.13712537 0.37896800
v -0.08136588 1.15582228 0.39187214
v 0.07963637 1.15518653 0.39015013
v -0.00047358 1.19351292 0.25804922
v -0.34968734 1.16245258 -0.13096862
v -0.47629932 1.11705852 -0.13115886
v -0.07944194 1.21134424 -0.13047621
v -0.21382248 1.19630301 -0.13099487
v -0.37080252 1.09982407 -0.38006803
v -0.29438487 1.15647161 -0.26021817
v -0.23399641 1.13762140 -0.38027206
v 0.47781610 1.11869252 -0.12904234
v 0.35123011 1.16456842 -0.12978031
v 0.23435500 1.13911974 -0.37962905
v 0.29516754 1.15766668 -0.25898445
v 0.37027940 1.10144079 -0.37881148
v 0.21426238 1.19593179 -0.12997700
v 0.07988562 1.21179330 -0.13043912
v -0.08224426 0.91438746 -0.79089355
v 0.00013125 0.98744661 -0.71232581
v 0.08175306 0.91380954 -0.79171026
v -0.15437168 1.09754848 -0.51306987
v -0.08097500 1.05044365 -0.61676794
v -0.23681059 1.03230965 -0.60391706
v 0.23565874 1.03320324 -0.60424894
v 0.08025339 1.05100620 -0.61650062
v 0.15384454 1.09892619 -0.51297361
v 0.00015128 1.19297528 -0.25971177
v 0.08133739 1.15551472 -0.39069739
v -0.07974248 1.15479755 -0.39207923
v -0.56597674 1.06018591 -0.21417432
v -0.61153370 1.05317664 -0.08296771
v -0.45259422 1.03048873 -0.46799013
v -0.51204813 1.05195665 -0.34601364
v -0.76687527 0.90589869 -0.24133480
v -0.64843082 0.98661065 -0.29769164
v -0.71574473 0.90138501 -0.37652940
v -0.13484052 0.80183232 -0.88325346
v -0.21566021 0.87619680 -0.80341291
v -0.47925901 0.77419007 -0.77637196
v -0.35291708 0.82900566 -0.79853660
v -0.39633203 0.70563203 -0.86985368
v -0.29811546 0.93986130 -0.70796877
v -0.37247652 0.99009466 -0.60323167
v -0.90878153 0.48679355 -0.51125723
v -0.82788658 0.56047362 -0.59711188
v -0.82538569 0.44003317 -0.65073872
v -0.77551544 0.78681678 -0.46432725
v -0.80974710 0.68054318 -0.53231627
v -0.87049544 0.71280432 -0.38697588
v -0.63391167 0.58345699 -0.79087263
v -0.72964883 0.63600320 -0.67090553
v -0.62107092 0.70364201 -0.72870553
v -0.51733989 0.93766993 -0.56835514
v -0.57548314 0.82520294 -0.65961486
v -0.65627986 0.86851639 -0.52063566
v -0.70342630 0.99404401 -0.00212171
v -0.85648638 0.83134687 -0.16148295
v -0.78760874 0.91724747 -0.08420920
v -0.78733349 0.91866773 0.07950522
v -0.85467982 0.83248693 0.15780422
v -0.97099769 0.36816424 -0.42703015
v -0.97295791 0.48869866 -0.37786174
v -1.03750038 0.49027467 -0.08593830
v -1.01922107 0.49136728 -0.23143068
v -1.05225706 0.37249443 -0.14361420
v -0.95517969 0.60705280 -0.31464729
v -0.91907489 0.71476877 -0.24730214
v -0.97328639 0.49141732 0.37752980
v -0.97069317 0.37196764 0.43024024
v -0.91860950 0.71784282 0.24445646
v -0.95413160 0.61237723 0.31288362
v -1.05306911 0.37461782 0.14972085
v -1.01697159 0.49500412 0.23342319
v -1.04172111 0.49386317 0.08703861
v -0.94099838 0.72844511 -0.08671012
v -1.00586474 0.61137933 -0.00056136
v -0.94105983 0.72959077 0.08221818
v 0.56675214 1.06128716 0.21077017
v 0.61139327 1.05236328 0.07990377
v 0.45290664 1.03130364 0.46717653
v 0.51429003 1.05242324 0.34384277
v 0.76765275 0.90833795 0.23994906
v 0.64893389 0.98819017 0.29594964
v 0.71614730 0.90339768 0.37592056
v 0.13520339 0.80358118 0.88560909
v 0.21739164 0.87629670 0.80387002
v 0.48284090 0.77756280 0.77905947
v 0.35411468 0.82849598 0.79835248
v 0.39840421 0.70737869 0.87336606
v 0.29742628 0.93936729 0.70742482
v 0.37278664 0.98909163 0.60260576
v 0.91177410 0.48847049 0.51089221
v 0.83185041 0.56490493 0.59764546
v 0.82938415 0.44400269 0.64881444
v 0.77749383 0.78979194 0.46493900
v 0.81258255 0.68311626 0.53477377
v 0.87322295 0.71692014 0.38766560
v 0.63640904 0.58511215 0.79514360
v 0.73223752 0.63800752 0.67532343
v 0.62403202 0.70470160 0.73250502
v 0.51866603 0.93937063 0.56902152
v 0.57697546 0.82683331 0.65879148
v 0.65732718 0.87156051 0.52148432
v -0.13534532 0.69307417 0.95607960
v 0.00106860 0.73368084 0.94295955
v -0.40242040 0.58972079 0.93148285
v -0.27419600 0.64404953 0.95196617
v 0.00258454 0.49764496 1.04491949
v -0.13812931 0.57152438 1.01214540
v -0.14061452 0.44865781 1.04917407
v -0.83611244 0.29942459 0.65741760
v -0.75494951 0.37472129 0.74654996
v -0.55501378 0.23609652 0.90264207
v -0.66099226 0.30510226 0.83333999
v -0.65420693 0.16814727 0.82275975
v -0.65376270 0.44963464 0.82638741
v -0.54372352 0.51787788 0.88424176
v -0.00378775 0.05106584 1.01737618
v -0.14581236 0.07631166 1.01384413
v -0.13741782 0.00000000 0.98835540
v -0.13933867 0.30518785 1.05951214
v -0.14418894 0.18798298 1.04501891
v 0.00197810 0.25206557 1.06525743
v -0.42040122 0.06084317 0.93898243
v -0.28588969 0.11711702 1.00072634
v -0.41749793 0.16504872 0.96573514
v -0.42041409 0.44828564 0.96584600
v -0.42591679 0.30009937 0.97663522
v -0.28276813 0.37511769 1.02560472
v -0.99523085 0.25368276 0.38977829
v -0.92416131 0.25350812 0.52019119
v -1.05790460 0.24900267 0.09367991
v -1.03505290 0.25066924 0.23896174
v -0.93648916 0.04650282 0.42476583
v -0.98842996 0.13448943 0.32977408
v -0.98280883 0.04007035 0.26752585
v -0.92617393 0.25002599 -0.51585609
v -0.98673576 0.25213173 -0.37962303
v -0.99782538 0.04872460 -0.25535253
v -0.99547571 0.14099872 -0.32307106
v -0.93742579 0.03897537 -0.40736529
v -1.03448105 0.25101179 -0.23297934
v -1.05959511 0.25617346 -0.08244903
v -0.66349316 0.00000038 0.04919562
v -0.76113302 0.00000000 -0.04859281
v -0.61795390 0.00383939 -0.14420921
v -0.98788685 0.00000000 0.17354883
v -0.88875264 0.00000000 0.06016427
v -0.87832850 0.00000000 0.25497416
v -0.85913086 0.00000000 -0.27044252
v -0.90039146 0.00004380 -0.12150712
v -0.98497820 0.00000000 -0.18927376
v -1.04270124 0.13381168 0.00029923
v -1.03885055 0.03938098 -0.08921000
v -1.02862000 0.03031815 0.09211908
v -0.75377774 0.36956629 -0.74412441
v -0.83478820 0.29392299 -0.65321624
v -0.54451066 0.51200366 -0.88102061
v -0.65388966 0.44273207 -0.82337761
v -0.66307652 0.16885604 -0.81976837
v -0.66145313 0.29711601 -0.82950383
v -0.56183684 0.23805828 -0.90255034
v 0.00002791 0.73230910 -0.94089907
v -0.13560964 0.69238704 -0.95452011
v -0.13949785 0.44759244 -1.04481459
v -0.13820796 0.57034463 -1.00859237
v -0.00003167 0.49850246 -1.04241002
v -0.27299440 0.64129305 -0.94995511
v -0.40099183 0.58506829 -0.92901629
v -0.15808998 0.00000000 -1.00277901
v -0.14705022 0.07480433 -1.02745700
v -0.00212078 0.03936018 -1.03563917
v -0.42166877 0.16723593 -0.97087604
v -0.29017305 0.11688253 -1.00428402
v -0.42733970 0.06116824 -0.93475747
v -0.00043274 0.25626060 -1.06575084
v -0.14574327 0.18730101 -1.04665065
v -0.14524676 0.30476269 -1.05701852
v -0.42109555 0.44548061 -0.96153790
v -0.28500199 0.37537757 -1.02507937
v -0.42825842 0.29861540 -0.97187519
v 0.21634702 0.87604779 -0.80243385
v 0.13395180 0.80295193 -0.88454294
v 0.37146851 0.99155980 -0.60200310
v 0.29759461 0.94226223 -0.70679104
v 0.39659819 0.71016395 -0.87098891
v 0.35357839 0.83115482 -0.79768676
v 0.48159093 0.77640659 -0.77571923
v 0.61204308 1.05320096 -0.08131891
v 0.56678206 1.06159973 -0.21113259
v 0.71588624 0.90267360 -0.37480697
v 0.64833593 0.98790675 -0.29579976
v 0.76801705 0.90660113 -0.23958763
v 0.51338381 1.05309606 -0.34387505
v 0.45232552 1.03261924 -0.46767920
v 0.83063143 0.44805264 -0.65234655
v 0.83124793 0.56639564 -0.60052037
v 0.91380864 0.49314836 -0.51046288
v 0.62130123 0.70440763 -0.73062474
v 0.72944790 0.63783062 -0.67308253
v 0.63270861 0.58572412 -0.79303503
v 0.87060618 0.71575469 -0.38646790
v 0.81308347 0.68388963 -0.53526723
v 0.77560478 0.78965563 -0.46534669
v 0.51727134 0.94031030 -0.56802034
v 0.65696901 0.86998701 -0.52053285
v 0.57583445 0.82729602 -0.65860343
v 0.65837955 0.11189019 0.09787438
v 0.62349242 0.06628263 0.23130216
v 0.50464326 0.11976504 0.14844579
v 0.82681853 0.00000308 0.43742168
v 0.73752898 0.04683900 0.33012137
v 0.87676990 0.02965313 0.27011260
v 0.40875670 0.00000000 0.42406863
v 0.57506114 0.01517088 0.38403648
v 0.50924861 0.01146571 0.53326863
v 0.84351450 0.29668564 0.65945667
v 0.86281818 0.18121777 0.61889607
v 0.93110377 0.25604522 0.51922613
v 0.67098880 0.04765337 0.77569950
v 0.76877099 0.10635147 0.70110786
v 0.66313100 0.16195366 0.81844676
v 0.94589502 0.05175582 0.42055383
v 0.87196040 0.07212757 0.56782264
v 0.86221445 0.00000000 0.50324786
v 0.09376104 0.00792114 0.92892450
v 0.25919375 0.00000000 0.94087732
v 0.15088466 0.00000000 0.99564070
v 0.42533213 0.01578688 0.70173067
v 0.34110093 0.00036425 0.82352239
v 0.24905236 0.00212511 0.69745964
v 0.43036631 0.05420350 0.93806744
v 0.40992466 0.00000000 0.90899104
v 0.53348672 0.00168491 0.87000602
v 0.75501722 0.00000000 0.60640782
v 0.66419470 0.00000000 0.75796431
v 0.59641457 0.00000000 0.65070009
v 0.36777747 0.00137347 0.11860257
v 0.42539579 0.04554756 0.01010376
v 0.24531394 0.00224412 0.42834386
v 0.31645024 0.03342945 0.28222144
v 0.14495136 0.03051248 0.02641957
v 0.20994288 0.03413507 0.15571401
v 0.07119866 0.05618313 0.14999612
v -0.10231129 0.00000000 0.93334007
v -0.01992280 0.00099526 0.82822800
v -0.19543454 0.06660312 0.56493032
v -0.12231077 0.04008710 0.69987386
v -0.28769287 0.06583896 0.68440413
v 0.06718118 0.01417095 0.70484143
v 0.14051555 0.00153205 0.56813395
v -0.37684247 0.05176910 0.02187238
v -0.37144500 0.13971137 0.11739742
v -0.51377827 0.07394879 0.09746359
v -0.09163504 0.05864291 0.12898396
v -0.22248702 0.17415932 0.14974067
v -0.15091738 0.06657986 0.04475448
v -0.43420619 0.03711147 0.40052027
v -0.31008482 0.04940066 0.24487747
v -0.28710553 0.10176814 0.42180404
v 0.07046874 0.10102493 0.44379833
v -0.10798547 0.13524273 0.43630356
v -0.02124635 0.01005123 0.29190329
v 0.35899338 0.02647832 -0.11683050
v 0.50017071 0.10042962 -0.13693775
v 0.08033381 0.04320536 -0.11998690
v 0.20344824 0.01823959 -0.11931153
v 0.40547174 0.04383592 -0.36823368
v 0.31143397 0.01123793 -0.24734598
v 0.23339020 0.00011149 -0.34206697
v -0.45022529 0.02877894 -0.14622858
v -0.34101227 0.00770298 -0.09959053
v -0.23725109 0.02167337 -0.33762771
v -0.28739864 0.02163010 -0.21425536
v -0.37848082 0.01634135 -0.37143523
v -0.24087459 0.05742813 -0.09963132
v -0.10109889 0.05466240 -0.09765551
v 0.11044697 0.00080649 -0.89188403
v 0.03379638 0.00000259 -0.79000509
v -0.08370116 0.01346007 -0.89718527
v 0.18029642 0.00237346 -0.50724107
v 0.11518095 0.00000000 -0.64690572
v 0.27964497 0.00228038 -0.62986684
v -0.25055754 0.00000000 -0.65069515
v -0.06622271 0.00957250 -0.66699094
v -0.15767312 0.03039804 -0.51974994
v 0.00602694 0.07186051 -0.24185033
v -0.07426824 0.00000000 -0.35271415
v 0.08290896 0.03035161 -0.36464691
v 0.62807608 0.13992439 -0.22639282
v 0.67019743 0.11503723 -0.07404876
v 0.50997502 0.00522358 -0.48703480
v 0.56690872 0.07939623 -0.35955819
v 0.86625838 0.01844664 -0.26811671
v 0.73179370 0.08014186 -0.32270414
v 0.81355429 0.01082717 -0.43358573
v 0.14571051 0.00000000 -0.99939030
v 0.25913671 0.00000352 -0.90825939
v 0.53832519 0.01992907 -0.87463272
v 0.40964592 0.00000000 -0.91284412
v 0.42645863 0.06706542 -0.95008409
v 0.36801872 0.04145179 -0.79380822
v 0.42561564 0.00671767 -0.65744585
v 0.93224019 0.26142314 -0.51880413
v 0.86439347 0.19153713 -0.61837828
v 0.84417230 0.30555093 -0.65842348
v 0.87508428 0.00042323 -0.51652080
v 0.86916882 0.08305626 -0.57413143
v 0.94943720 0.05916036 -0.41643620
v 0.66046739 0.17432906 -0.82435930
v 0.77202082 0.11935814 -0.71270865
v 0.67784137 0.07391525 -0.79130751
v 0.58770591 0.00000000 -0.64304638
v 0.65888095 0.00000000 -0.76742953
v 0.73438758 0.00000000 -0.60651350
v 0.77912945 0.09645968 0.02010027
v 0.98029089 0.00000000 -0.19400977
v 0.88865232 0.05258222 -0.09014867
v 0.91663849 0.03445854 0.08762752
v 0.97229683 0.00000000 0.17474508
v 0.97479874 0.37776583 -0.42883340
v 0.99307907 0.26279375 -0.38392982
v 1.06288433 0.25362554 -0.08737841
v 1.03684366 0.25876659 -0.23391190
v 1.05639184 0.37325782 -0.14743391
v 0.99166340 0.14827731 -0.32861105
v 1.00055397 0.07193759 -0.27051780
v 0.99877673 0.25327790 0.38359964
v 0.97698510 0.36898750 0.42700669
v 1.00231612 0.06281233 0.26484117
v 0.99642253 0.13932922 0.32387862
v 1.05600893 0.37370455 0.14480050
v 1.04081917 0.25398722 0.23407008
v 1.06038272 0.25507066 0.08581816
v 1.02447796 0.04192369 -0.09770865
v 1.04379046 0.13469246 -0.00234487
v 1.02361453 0.03882139 0.08391236
v 0.14474674 0.06694992 1.00840914
v 0.41795963 0.16423599 0.96024942
v 0.29069069 0.10810773 0.99330240
v 0.14402772 0.17851953 1.03791177
v 0.14552389 0.30044311 1.05848682
v 0.75753838 0.37355259 0.74568409
v 0.55033135 0.51251537 0.88863653
v 0.65932786 0.44872868 0.82444078
v 0.66515177 0.29863381 0.83096665
v 0.56159252 0.23044695 0.89699537
v 0.13776724 0.69269133 0.95684910
v 0.14604166 0.44601023 1.04880083
v 0.14126529 0.56947839 1.01120698
v 0.27584541 0.64356250 0.95345664
v 0.40484831 0.58609384 0.93176329
v 0.43124130 0.29784048 0.97499734
v 0.42652425 0.44458690 0.96888679
v 0.28770331 0.37189129 1.02946949
v -0.61721909 0.01002843 0.20647208
v -0.52231783 0.00259693 0.52018762
v -0.59134036 0.00965982 0.36922276
v -0.73824835 0.02991931 0.30735615
v -0.81623751 0.00832128 0.41712680
v -0.25233307 0.00000000 0.93757558
v -0.52757883 0.00021527 0.86664635
v -0.39331308 0.00000000 0.91411161
v -0.36099589 0.00001472 0.83105236
v -0.44325081 0.00657651 0.69067824
v -0.84922099 0.18413769 0.61404550
v -0.86559755 0.00000000 0.52299494
v -0.85705507 0.07373618 0.57033366
v -0.75868726 0.11785956 0.70514405
v -0.66104531 0.05215264 0.78565818
v -0.60717720 0.00000000 0.64839381
v -0.66002226 0.00000000 0.76576680
v -0.76595861 0.00000000 0.61135060
v -0.25239590 0.00000000 -0.93430215
v -0.39837477 0.03955613 -0.66301876
v -0.32730862 0.00000000 -0.81142819
v -0.40717661 0.00000000 -0.92680550
v -0.53855664 0.00124728 -0.86303526
v -0.59308296 0.11708152 -0.23612624
v -0.81393772 0.00000000 -0.42022076
v -0.70286739 0.03642209 -0.33724499
v -0.53091305 0.03666729 -0.37208831
v -0.49005300 0.09429426 -0.49694157
v -0.85747552 0.18167405 -0.61355275
v -0.67233276 0.06293186 -0.78719467
v -0.77225292 0.11726563 -0.70389986
v -0.87362677 0.07974690 -0.56719238
v -0.87313491 0.00238520 -0.51842093
v -0.56871337 0.00791244 -0.63112104
v -0.75042117 0.00000000 -0.59796596
v -0.66133875 0.00000000 -0.75620258
v 0.75727749 0.37421718 -0.74661291
v 0.56326026 0.24055280 -0.90530950
v 0.66550368 0.30551779 -0.83167958
v 0.65554988 0.44551295 -0.82562530
v 0.54501438 0.51425761 -0.88324171
v 0.14248411 0.08156859 -1.03635287
v 0.14319858 0.30375618 -1.05757177
v 0.14319310 0.19232483 -1.05109775
v 0.28895795 0.12337460 -1.01707649
v 0.42324176 0.17209587 -0.97014201
v 0.13631974 0.69267905 -0.95389009
v 0.40256095 0.58794332 -0.93159831
v 0.27455851 0.64335358 -0.95101225
v 0.13827406 0.56951004 -1.00799072
v 0.14006041 0.44608304 -1.04254544
v 0.42908195 0.30115151 -0.97369742
v 0.28356186 0.37696597 -1.02434230
v 0.42139390 0.44945139 -0.96513021
v 0.97803861 0.49048373 0.37995929
v 1.04483175 0.49075654 0.08708241
v 1.02544034 0.49537989 0.23339552
v 0.95765793 0.61060864 0.31488958
v 0.92155749 0.71856284 0.24571730
v 0.97298455 0.49561206 -0.37679163
v 0.91993082 0.71883929 -0.24634279
v 0.95589185 0.61084515 -0.31359056
v 1.01909828 0.49597779 -0.23192731
v 1.04347134 0.49547967 -0.08757994
v 0.70341349 0.99432135 -0.00077207
v 0.85704851 0.83471435 0.15968765
v 0.78815478 0.92033947 0.08225429
v 0.78855628 0.91870344 -0.08189169
v 0.85763848 0.83226877 -0.15853782
v 1.00547707 0.61028063 0.00154741
v 0.94385988 0.73010796 -0.08427119
v 0.94338548 0.73129654 0.08503690
f 330 87 329
f 336 325 26
f 207 208 56
f 464 36 580
f 502 129 504
f 157 624 622
f 308 311 82
f 247 223 248
f 507 483 508
f 331 88 329
f 494 500 497
f 156 601 602
f 591 589 592
f 365 98 596
f 75 281 282
f 152 587 577
f 149 559 560
f 555 121 553
f 530 141 529
f 515 517 139
f 361 594 98
f 250 67 249
f 157 608 609
f 294 293 209
f 317 81 316
f 557 338 26
f 303 305 81
f 530 529 528
f 101 381 382
f 415 418 111
f 192 184 50
f 412 110 411
f 20 384 256
f 131 594 486
f 281 264 282
f 347 287 348
f 28 349 582
f 165 163 1
f 248 250 66
f 617 107 398
f 273 271 274
f 456 115 453
f 558 561 560
f 335 576 91
f 331 177 332
f 116 433 436
f 351 370 92
f 136 511 530
f 239 240 65
f 247 258 19
f 304 23 567
f 148 557 570
f 214 208 58
f 440 426 450
f 268 270 269
f 258 247 268
f 204 202 16
f 466 125 465
f 517 513 133
f 168 275 274
f 275 73 274
f 198 193 53
f 309 308 307
f 510 511 136
f 415 416 110
f 131 490 597
f 473 475 474
f 414 415 111
f 493 495 494
f 496 504 485
f 433 116 432
f 600 375 601
f 240 234 65
f 418 415 412
f 486 361 3
f 567 566 304
f 380 393 29
f 17 199 197
f 491 492 132
f 451 449 435
f 218 217 216
f 623 621 613
f 396 104 395
f 433 439 436
f 628 160 627
f 215 202 217
f 209 207 2
f 427 113 424
f 434 10 544
f 434 433 432
f 199 17 210
f 150 564 565
f 489 491 132
f 275 13 285
f 497 500 134
f 125 466 476
f 578 152 577
f 208 214 211
f 328 88 343
f 356 27 603
f 150 566 567
f 372 100 371
f 190 191 47
f 235 8 398
f 260 261 72
f 422 403 414
f 422 414 111
f 453 454 123
f 349 583 582
f 521 520 519
f 425 453 115
f 616 622 158
f 483 130 508
f 151 586 572
f 212 17 232
f 400 397 402
f 377 396 99
f 41 522 511
f 510 508 505
f 549 547 42
f 475 473 36
f 510 137 509
f 222 221 197
f 430 115 429
f 220 194 1
f 305 54 204
f 621 29 613
f 192 171 184
f 460 335 5
f 88 331 332
f 74 277 279
f 300 301 80
f 390 389 388
f 165 45 164
f 146 549 551
f 291 278 75
f 448 120 445
f 147 543 544
f 607 610 609
f 603 602 356
f 139 529 514
f 333 553 443
f 92 368 347
f 261 260 259
f 300 6 200
f 46 177 331
f 284 283 174
f 301 300 200
f 471 468 474
f 54 305 301
f 302 304 303
f 569 150 567
f 150 569 570
f 294 209 2
f 628 629 160
f 548 543 147
f 147 625 627
f 63 233 234
f 426 427 114
f 41 509 532
f 198 52 196
f 614 105 612
f 147 627 547
f 81 305 306
f 549 548 547
f 54 301 200
f 342 88 332
f 264 281 70
f 193 194 53
f 455 429 456
f 187 321 14
f 479 130 484
f 147 544 625
f 458 456 453
f 304 80 303
f 314 84 313
f 488 503 501
f 321 332 14
f 423 425 424
f 305 204 306
f 341 339 25
f 514 40 516
f 625 628 627
f 340 339 341
f 105 614 391
f 243 228 62
f 318 316 78
f 75 278 279
f 357 355 353
f 238 257 63
f 466 455 476
f 425 423 4
f 448 449 120
f 408 638 108
f 292 275 285
f 22 278 289
f 515 513 517
f 501 503 134
f 622 623 158
f 134 503 504
f 195 216 206
f 163 271 246
f 619 617 620
f 62 228 229
f 163 165 164
f 453 425 454
f 489 132 488
f 82 628 625
f 58 208 209
f 525 608 40
f 626 547 627
f 518 517 498
f 489 487 491
f 557 26 564
f 325 336 344
f 541 145 539
f 40 616 516
f 338 556 89
f 250 248 245
f 139 514 515
f 98 594 596
f 246 220 1
f 112 413 630
f 9 536 413
f 156 600 601
f 332 177 14
f 321 342 332
f 156 606 600
f 584 330 585
f 302 303 81
f 584 87 330
f 330 25 585
f 400 239 65
f 439 440 117
f 95 358 368
f 597 594 131
f 594 361 486
f 246 67 245
f 561 562 149
f 28 364 362
f 55 216 217
f 427 430 114
f 267 20 254
f 556 555 553
f 84 309 558
f 311 310 312
f 609 525 142
f 256 68 255
f 124 460 461
f 82 311 312
f 307 308 82
f 589 135 495
f 527 40 514
f 112 418 412
f 20 256 254
f 258 238 19
f 267 254 269
f 273 272 249
f 392 391 393
f 137 533 509
f 122 455 456
f 9 413 411
f 130 480 505
f 333 443 5
f 527 525 40
f 589 495 385
f 39 496 485
f 223 225 224
f 414 416 415
f 219 222 53
f 145 538 539
f 413 412 411
f 469 468 467
f 183 181 6
f 191 192 50
f 429 35 431
f 292 285 76
f 413 112 412
f 415 110 412
f 43 164 167
f 467 468 126
f 617 101 620
f 450 451 117
f 438 546 545
f 619 620 159
f 17 212 210
f 124 579 576
f 584 153 583
f 460 124 576
f 3 469 467
f 311 308 314
f 6 320 183
f 389 104 388
f 251 250 249
f 194 165 1
f 291 289 278
f 287 77 348
f 238 258 257
f 139 517 518
f 238 236 19
f 223 247 19
f 382 380 29
f 39 518 498
f 361 359 3
f 69 255 257
f 139 518 528
f 33 545 535
f 387 385 7
f 69 268 269
f 477 462 125
f 454 479 123
f 121 555 447
f 451 435 117
f 454 425 4
f 233 252 8
f 124 463 464
f 69 258 268
f 168 167 166
f 583 153 582
f 384 394 102
f 138 512 513
f 57 210 211
f 254 256 255
f 607 609 142
f 324 319 86
f 289 291 76
f 291 292 76
f 384 102 383
f 422 421 420
f 221 17 197
f 383 102 381
f 376 377 99
f 99 373 374
f 386 105 392
f 438 33 440
f 90 341 343
f 281 75 279
f 574 571 96
f 628 82 312
f 221 222 59
f 127 471 474
f 595 605 603
f 551 538 145
f 334 91 340
f 322 324 85
f 305 303 301
f 18 239 399
f 306 204 16
f 199 198 197
f 166 190 180
f 303 80 301
f 267 266 265
f 626 42 547
f 16 215 213
f 349 351 350
f 295 16 213
f 68 379 252
f 250 251 66
f 627 160 626
f 383 68 256
f 343 88 342
f 507 508 136
f 202 215 16
f 197 198 53
f 254 69 269
f 603 605 156
f 418 419 111
f 384 383 256
f 455 122 476
f 203 204 54
f 556 557 148
f 255 68 253
f 313 84 560
f 25 328 341
f 254 255 69
f 603 156 602
f 581 584 583
f 630 632 112
f 163 246 1
f 246 245 220
f 432 116 558
f 499 591 590
f 320 563 86
f 345 93 350
f 306 16 295
f 346 93 345
f 562 568 149
f 604 605 155
f 154 592 593
f 545 552 535
f 511 522 530
f 574 573 571
f 566 150 565
f 361 98 360
f 67 271 273
f 234 235 65
f 208 211 56
f 574 151 573
f 251 270 66
f 398 8 378
f 213 215 214
f 438 440 439
f 315 314 313
f 263 71 262
f 20 373 384
f 496 134 504
f 329 88 328
f 81 306 316
f 555 556 148
f 592 589 103
f 617 619 107
f 227 207 56
f 571 359 96
f 446 466 465
f 206 216 55
f 359 571 469
f 568 148 570
f 34 437 435
f 28 351 349
f 21 272 282
f 113 423 424
f 490 489 488
f 379 68 383
f 210 212 211
f 80 563 300
f 351 92 350
f 326 346 12
f 83 317 318
f 555 148 554
f 212 231 56
f 218 57 217
f 271 67 246
f 195 196 52
f 270 268 66
f 390 592 103
f 148 568 554
f 495 493 7
f 592 390 593
f 357 95 355
f 574 575 151
f 452 120 451
f 154 591 592
f 587 585 577
f 395 394 396
f 93 349 350
f 610 416 611
f 166 44 190
f 315 23 302
f 315 302 317
f 268 247 66
f 606 154 593
f 396 394 99
f 211 212 56
f 370 369 368
f 235 397 65
f 280 278 22
f 83 315 317
f 575 588 151
f 74 279 280
f 385 495 7
f 63 257 253
f 397 235 398
f 214 58 213
f 220 219 194
f 546 146 545
f 236 225 19
f 599 94 602
f 235 233 8
f 102 394 395
f 611 416 32
f 225 223 19
f 139 528 529
f 231 62 229
f 419 406 421
f 451 450 452
f 49 182 185
f 402 397 107
f 52 199 218
f 416 610 110
f 225 236 244
f 107 397 398
f 68 252 253
f 322 85 321
f 182 181 183
f 118 438 439
f 546 438 118
f 348 77 345
f 543 546 118
f 231 212 232
f 610 611 157
f 33 438 545
f 385 386 103
f 479 480 130
f 169 195 15
f 93 583 349
f 15 195 206
f 190 44 192
f 247 248 66
f 146 552 545
f 248 60 245
f 570 557 564
f 274 271 43
f 63 253 233
f 272 21 249
f 507 528 518
f 67 273 249
f 487 467 126
f 196 195 169
f 624 159 623
f 134 496 497
f 132 503 488
f 104 393 395
f 556 553 89
f 355 356 94
f 258 69 257
f 229 61 227
f 56 231 227
f 460 576 335
f 463 124 461
f 394 373 99
f 29 393 391
f 67 250 245
f 193 198 196
f 462 36 464
f 144 633 630
f 141 526 527
f 517 133 498
f 536 144 630
f 100 372 599
f 144 536 537
f 22 289 287
f 578 579 152
f 579 578 576
f 189 188 187
f 60 223 224
f 92 348 350
f 555 554 447
f 396 377 388
f 194 193 165
f 413 536 630
f 372 352 599
f 377 376 375
f 348 345 350
f 105 386 387
f 240 237 234
f 463 462 464
f 135 500 494
f 45 196 169
f 512 612 387
f 245 60 220
f 429 115 456
f 223 60 248
f 288 289 76
f 525 526 142
f 100 599 601
f 613 29 391
f 526 523 520
f 341 328 343
f 631 641 639
f 264 21 282
f 266 72 265
f 106 402 403
f 73 273 274
f 186 206 205
f 381 379 383
f 52 216 195
f 410 18 399
f 290 272 73
f 72 371 374
f 526 525 527
f 115 430 424
f 498 497 496
f 621 382 29
f 543 118 434
f 214 215 57
f 522 141 530
f 511 510 509
f 352 94 599
f 493 512 7
f 90 340 341
f 169 171 170
f 605 604 606
f 219 60 224
f 104 389 392
f 359 469 3
f 186 49 185
f 222 219 224
f 166 167 44
f 428 427 426
f 523 522 524
f 129 502 481
f 50 185 188
f 164 45 170
f 425 115 424
f 33 428 426
f 427 428 113
f 94 356 602
f 515 138 513
f 114 431 452
f 237 236 238
f 215 217 57
f 95 354 355
f 220 60 219
f 515 514 516
f 183 320 319
f 222 197 53
f 559 569 567
f 300 320 6
f 435 436 117
f 96 360 363
f 640 642 641
f 242 243 62
f 140 537 519
f 508 130 505
f 420 410 399
f 537 539 144
f 317 316 318
f 426 114 450
f 186 15 206
f 311 83 310
f 625 544 307
f 544 10 307
f 168 43 167
f 185 182 188
f 369 354 95
f 44 171 192
f 605 606 156
f 548 549 146
f 100 601 375
f 149 568 569
f 381 380 382
f 455 466 35
f 480 479 454
f 543 548 546
f 493 133 513
f 492 472 37
f 477 125 476
f 491 487 126
f 337 336 338
f 588 153 587
f 576 578 91
f 633 161 632
f 96 359 360
f 39 485 483
f 101 617 378
f 193 45 165
f 163 164 43
f 618 624 611
f 507 136 528
f 561 149 560
f 641 162 639
f 116 561 558
f 494 133 493
f 253 252 233
f 63 237 238
f 392 393 104
f 440 450 117
f 93 581 583
f 386 385 387
f 120 449 451
f 421 422 111
f 486 3 467
f 302 81 317
f 633 632 630
f 462 475 36
f 376 99 374
f 489 490 131
f 447 449 448
f 387 612 105
f 106 420 399
f 173 46 172
f 492 491 472
f 316 306 295
f 22 287 347
f 109 410 420
f 507 39 483
f 559 23 313
f 214 57 211
f 196 45 193
f 10 434 432
f 422 106 403
f 626 160 640
f 487 486 467
f 542 41 532
f 400 106 399
f 444 120 452
f 198 199 52
f 475 127 474
f 621 620 382
f 621 623 159
f 450 114 452
f 92 347 348
f 376 100 375
f 434 118 433
f 503 132 502
f 337 90 336
f 537 536 519
f 395 393 380
f 201 54 200
f 171 44 170
f 355 94 353
f 58 296 213
f 422 420 106
f 595 365 596
f 569 568 570
f 523 140 520
f 114 430 431
f 218 210 57
f 304 566 80
f 639 162 638
f 261 371 72
f 548 147 547
f 498 133 497
f 150 570 564
f 222 224 59
f 142 526 520
f 437 436 435
f 141 522 523
f 137 510 505
f 173 179 176
f 559 149 569
f 121 447 448
f 563 320 300
f 102 395 380
f 257 255 253
f 642 162 641
f 83 311 314
f 216 52 218
f 512 493 513
f 23 304 302
f 91 339 340
f 512 138 612
f 159 620 621
f 218 199 210
f 364 28 575
f 83 318 310
f 168 274 43
f 136 530 528
f 140 523 524
f 495 135 494
f 233 235 234
f 566 563 80
f 25 339 577
f 277 74 276
f 475 462 477
f 133 494 497
f 436 437 116
f 389 386 392
f 548 146 546
f 441 460 5
f 10 309 307
f 65 397 400
f 543 434 544
f 640 641 161
f 272 273 73
f 581 93 346
f 419 421 111
f 319 320 86
f 180 179 178
f 127 475 477
f 231 229 227
f 337 334 340
f 136 508 510
f 308 309 84
f 237 63 234
f 447 554 34
f 252 379 378
f 315 83 314
f 608 622 616
f 338 336 26
f 337 338 89
f 13 275 168
f 209 208 207
f 436 439 117
f 628 312 629
f 360 366 363
f 364 574 96
f 359 361 360
f 466 446 35
f 500 501 134
f 406 109 421
f 135 589 591
f 601 599 602
f 340 90 337
f 481 492 37
f 522 41 524
f 78 316 295
f 131 486 487
f 403 32 414
f 634 626 640
f 151 572 573
f 515 516 138
f 8 252 378
f 265 72 374
f 9 521 519
f 538 549 42
f 368 358 347
f 588 587 586
f 458 453 123
f 589 385 103
f 502 492 481
f 32 416 414
f 430 427 424
f 153 585 587
f 540 144 539
f 370 368 92
f 209 293 58
f 428 33 535
f 326 581 346
f 625 307 82
f 575 28 582
f 6 181 200
f 421 109 420
f 553 121 443
f 160 642 640
f 153 584 585
f 309 432 558
f 334 337 89
f 23 315 313
f 271 163 43
f 296 295 213
f 39 498 496
f 118 439 433
f 531 113 534
f 293 296 58
f 28 362 351
f 489 131 487
f 431 444 452
f 84 558 560
f 98 366 360
f 45 169 170
f 379 101 378
f 462 463 125
f 308 84 314
f 10 432 309
f 299 24 310
f 132 492 502
f 512 387 7
f 639 638 408
f 565 323 86
f 59 244 242
f 106 400 402
f 440 33 426
f 566 565 563
f 617 398 378
f 224 225 59
f 410 109 409
f 239 400 399
f 194 219 53
f 358 22 347
f 610 157 609
f 27 595 603
f 479 484 482
f 142 520 521
f 585 25 577
f 339 578 577
f 408 407 406
f 407 109 406
f 31 408 406
f 407 408 108
f 31 639 408
f 419 31 406
f 608 616 40
f 430 429 431
f 455 35 429
f 35 444 431
f 188 51 187
f 188 182 51
f 51 322 187
f 322 51 319
f 51 182 183
f 319 51 183
f 187 322 321
f 322 319 324
f 381 101 379
f 405 407 108
f 404 405 108
f 286 285 178
f 407 405 409
f 109 407 409
f 191 175 47
f 167 164 170
f 50 184 185
f 44 167 170
f 64 244 236
f 243 244 64
f 50 188 189
f 541 542 145
f 442 445 119
f 339 91 578
f 445 446 119
f 624 623 622
f 611 624 157
f 523 526 141
f 141 527 529
f 527 514 529
f 445 120 444
f 446 445 444
f 35 446 444
f 613 614 158
f 158 614 615
f 623 613 158
f 614 613 391
f 614 612 615
f 371 376 374
f 100 376 371
f 479 482 123
f 373 394 384
f 540 42 634
f 633 540 634
f 538 42 540
f 633 634 161
f 161 634 640
f 42 626 634
f 540 633 144
f 557 556 338
f 553 333 89
f 262 21 264
f 251 21 262
f 5 335 333
f 270 251 262
f 21 251 249
f 600 593 30
f 606 593 600
f 600 30 375
f 593 390 30
f 30 377 375
f 390 388 30
f 30 388 377
f 228 243 241
f 470 478 459
f 470 127 478
f 127 477 478
f 184 186 185
f 478 477 476
f 122 478 476
f 357 74 280
f 518 39 507
f 344 342 85
f 325 344 85
f 342 344 343
f 85 342 321
f 344 90 343
f 90 344 336
f 482 129 481
f 482 481 457
f 482 457 123
f 481 37 457
f 449 447 34
f 435 449 34
f 470 472 471
f 472 470 37
f 470 471 127
f 472 126 471
f 126 468 471
f 470 459 37
f 491 126 472
f 504 129 485
f 221 59 242
f 125 463 465
f 437 34 562
f 561 437 562
f 554 568 562
f 34 554 562
f 437 561 116
f 390 103 389
f 103 386 389
f 392 105 391
f 572 586 580
f 572 580 36
f 586 152 580
f 473 572 36
f 244 243 242
f 225 244 59
f 64 240 241
f 240 239 241
f 237 240 64
f 243 64 241
f 236 237 64
f 411 607 521
f 9 411 521
f 110 607 411
f 607 142 521
f 610 607 110
f 171 15 184
f 171 169 15
f 15 186 184
f 87 584 581
f 153 588 582
f 588 575 582
f 381 102 380
f 573 572 473
f 468 469 128
f 474 468 128
f 469 571 128
f 571 573 128
f 573 473 128
f 473 474 128
f 564 323 565
f 26 323 564
f 323 324 86
f 325 323 26
f 325 324 323
f 563 565 86
f 324 325 85
f 410 230 18
f 230 228 18
f 18 228 241
f 18 241 239
f 401 619 618
f 401 402 107
f 403 402 401
f 619 159 618
f 401 618 32
f 619 401 107
f 403 401 32
f 618 611 32
f 159 624 618
f 478 122 459
f 122 458 459
f 37 459 457
f 459 458 457
f 122 456 458
f 457 458 123
f 191 190 192
f 485 129 484
f 129 482 484
f 483 485 484
f 130 483 484
f 189 187 14
f 191 50 189
f 191 189 175
f 189 14 175
f 14 177 175
f 499 501 500
f 501 499 38
f 38 499 590
f 135 499 500
f 488 501 38
f 499 135 591
f 480 454 4
f 284 12 346
f 4 423 506
f 480 4 506
f 423 531 506
f 480 506 505
f 531 137 506
f 506 137 505
f 365 366 98
f 71 270 262
f 270 71 269
f 71 267 269
f 335 334 333
f 333 334 89
f 334 335 91
f 536 9 519
f 465 463 461
f 537 140 541
f 520 140 519
f 119 446 465
f 465 461 119
f 461 441 119
f 460 441 461
f 176 46 173
f 299 297 24
f 71 263 266
f 263 260 266
f 260 72 266
f 263 70 260
f 205 201 49
f 201 181 49
f 186 205 49
f 181 201 200
f 181 182 49
f 284 77 283
f 586 587 152
f 588 586 151
f 20 267 265
f 266 267 71
f 31 417 631
f 631 417 632
f 31 631 639
f 417 31 419
f 641 631 161
f 417 112 632
f 161 631 632
f 418 417 419
f 417 418 112
f 284 345 77
f 542 550 145
f 542 541 524
f 284 174 12
f 48 174 283
f 373 20 265
f 373 265 374
f 609 608 525
f 608 157 622
f 560 559 313
f 636 637 162
f 541 140 524
f 41 542 524
f 358 357 280
f 70 263 264
f 263 262 264
f 176 177 46
f 174 48 173
f 174 173 172
f 538 551 549
f 538 540 539
f 537 541 539
f 232 221 242
f 17 221 232
f 232 242 62
f 231 232 62
f 203 205 55
f 203 55 202
f 201 205 203
f 202 55 217
f 205 206 55
f 204 203 202
f 73 275 292
f 292 290 73
f 272 290 282
f 290 292 291
f 75 290 291
f 290 75 282
f 70 277 259
f 277 70 281
f 277 281 279
f 260 70 259
f 12 174 172
f 104 396 388
f 367 27 354
f 365 27 367
f 354 27 356
f 365 367 366
f 595 27 365
f 318 299 310
f 155 596 597
f 155 597 598
f 596 594 597
f 595 596 155
f 605 595 155
f 180 47 179
f 180 190 47
f 352 372 11
f 11 372 261
f 312 310 24
f 642 636 162
f 636 297 637
f 367 369 97
f 366 367 97
f 369 367 354
f 369 370 97
f 580 579 464
f 580 152 579
f 579 124 464
f 61 230 409
f 230 410 409
f 230 61 229
f 230 229 228
f 76 285 286
f 353 352 276
f 74 353 276
f 288 76 286
f 288 286 283
f 289 288 287
f 203 54 201
f 287 288 77
f 77 288 283
f 286 48 283
f 531 423 113
f 276 11 259
f 11 261 259
f 277 276 259
f 616 158 615
f 516 616 615
f 138 516 615
f 138 615 612
f 509 533 532
f 503 502 504
f 635 79 294
f 635 294 404
f 635 637 79
f 637 635 638
f 638 635 108
f 635 404 108
f 226 61 405
f 61 226 227
f 405 61 409
f 227 226 207
f 48 178 179
f 48 286 178
f 173 48 179
f 534 143 533
f 534 535 143
f 531 534 533
f 533 143 532
f 137 531 533
f 261 372 371
f 13 180 178
f 285 13 178
f 180 13 166
f 13 168 166
f 346 345 284
f 331 327 46
f 46 327 172
f 172 327 326
f 382 620 101
f 442 121 448
f 443 121 442
f 2 226 404
f 294 2 404
f 404 226 405
f 207 226 2
f 550 551 145
f 552 146 551
f 143 550 532
f 552 550 143
f 330 329 328
f 24 636 629
f 94 352 353
f 352 11 276
f 113 428 534
f 428 535 534
f 509 41 511
f 535 552 143
f 550 552 551
f 550 542 532
f 369 95 368
f 326 327 87
f 87 327 329
f 327 331 329
f 581 326 87
f 293 79 298
f 79 297 298
f 296 298 78
f 79 293 294
f 296 293 298
f 598 490 38
f 358 280 22
f 280 279 278
f 357 358 95
f 74 357 353
f 330 328 25
f 567 23 559
f 590 598 38
f 590 604 598
f 598 604 155
f 604 590 154
f 590 591 154
f 604 154 606
f 297 299 298
f 299 318 78
f 298 299 78
f 355 354 356
f 629 636 642
f 312 24 629
f 629 642 160
f 370 362 97
f 362 363 97
f 363 366 97
f 364 363 362
f 362 370 351
f 96 363 364
f 297 636 24
f 162 637 638
f 637 297 79
f 490 488 38
f 598 597 490
f 441 442 119
f 443 442 441
f 443 441 5
f 442 448 445
f 296 78 295
f 326 12 172
f 575 574 364
f 47 175 176
f 175 177 176
f 47 176 179
