# FEM surface export ¡ª frame 563
# Vertices: 642  Faces: 1280
v -0.51690739 0.88405383 0.00152158
v 0.51862699 0.88677198 0.00495494
v -0.51962060 0.44033951 0.00113118
v 0.50445551 0.38776529 0.00587883
v -0.00008306 0.19686189 0.90314090
v -0.00228837 0.59749317 0.83574623
v 0.01787238 0.12532289 -0.89865029
v -0.00144594 0.59498531 -0.83945501
v 0.93502206 0.20954150 -0.59272093
v 0.92441070 0.20215924 0.56352776
v -0.92708635 0.19412819 -0.57373869
v -0.91696554 0.20692031 0.59105915
v -0.79310423 0.57434785 0.30810294
v -0.49079520 0.42211425 0.82585609
v -0.30313751 0.84044063 0.49052432
v 0.30739394 0.84446830 0.49040419
v -0.00154314 1.02018547 -0.00005055
v 0.30380797 0.84042573 -0.48994768
v -0.30451536 0.84135228 -0.48944381
v -0.51107889 0.43288606 -0.81746107
v -0.80135411 0.56917620 -0.29315352
v -1.09453964 0.19078839 0.00705671
v 0.50860465 0.43001175 0.82269198
v 0.80736041 0.56792146 0.29941535
v -0.60574335 0.00487330 0.91435689
v 0.00926396 0.20036043 1.09186399
v -0.84685218 0.18670365 -0.32788113
v -0.86241466 0.17770223 0.32909164
v -0.01008623 0.19061142 -1.10442472
v -0.58494765 0.00174855 -0.90931571
v 0.79955482 0.57534647 -0.30914545
v 0.50035703 0.42880136 -0.82611477
v 0.85253781 0.16125394 0.35001954
v 0.57529050 0.00000000 0.92816561
v 0.28857085 0.31141889 0.48641011
v -0.30535120 0.35861057 0.48490956
v 0.01829529 0.14551048 0.04863355
v -0.26626393 0.15936211 -0.53933322
v 0.31684941 0.19214834 -0.49962604
v 0.58236980 0.04984150 -0.89392513
v 0.87328845 0.17028424 -0.32141873
v 1.10652709 0.21155177 -0.01582502
v -0.67318553 0.74531096 0.15856105
v -0.57471991 0.72996044 0.41833979
v -0.42752677 0.89293629 0.25559533
v -0.71479756 0.31994072 0.74065918
v -0.67813736 0.51292986 0.59194696
v -0.87050015 0.38953403 0.45910138
v -0.15889274 0.73624432 0.68540055
v -0.41270918 0.64182240 0.67373461
v -0.25310203 0.51474369 0.85696280
v -0.16284184 0.97742993 0.25894198
v -0.26988915 0.98693013 -0.00072627
v 0.15593685 0.74202764 0.68614793
v 0.00081850 0.88482153 0.51564264
v 0.26929525 0.98960906 0.00269035
v 0.15933648 0.97994435 0.25975999
v 0.42936578 0.89456886 0.25748488
v -0.16228704 0.97456241 -0.25615078
v -0.42554972 0.89243883 -0.25468582
v 0.42581201 0.89638597 -0.25332001
v 0.15760574 0.97591931 -0.25662324
v -0.16222651 0.73392969 -0.68466675
v -0.00120162 0.88153905 -0.51492894
v 0.15993538 0.73851353 -0.68564516
v -0.57873261 0.72929001 -0.40770170
v -0.67731565 0.73917228 -0.15271945
v -0.26452297 0.51730019 -0.85126150
v -0.42767051 0.64086235 -0.66757649
v -0.89379644 0.39585194 -0.43509674
v -0.69240975 0.51745695 -0.57676148
v -0.73753399 0.32503450 -0.71517617
v -0.83298403 0.59739190 0.00967315
v -1.04122317 0.18579613 -0.29452023
v -0.98390132 0.38715950 -0.15593755
v -0.96649742 0.39161131 0.17729208
v -1.03957021 0.19374093 0.30449715
v 0.58345860 0.73159069 0.41755369
v 0.68502462 0.74396861 0.15785402
v 0.25441542 0.53051966 0.85811204
v 0.41859969 0.65241480 0.67527586
v 0.87781602 0.38902652 0.43537828
v 0.68815911 0.51755434 0.58440346
v 0.74075961 0.31262264 0.70330250
v -0.26416168 0.31240812 0.99887645
v 0.00550502 0.40666524 0.98571825
v -0.79486454 0.07809828 0.79724801
v -0.55898213 0.18546282 0.93029970
v -0.01194236 0.02565724 1.10228992
v -0.30018786 0.09554608 1.08214855
v -0.30238062 0.12152552 0.95246208
v -1.11181211 0.00281483 0.17219597
v -1.01741624 0.03594943 0.47024158
v -0.99414843 0.01116032 -0.48204383
v -1.08409297 0.00000000 -0.18896081
v -0.69650257 0.32803643 0.14678997
v -0.88808739 0.23542844 -0.02785247
v -0.71105981 0.34265560 -0.16750336
v -0.57976556 0.21160910 -0.92779130
v -0.81085640 0.07488821 -0.79325354
v -0.01010475 0.39935574 -0.98241585
v -0.28274694 0.31694922 -0.99897444
v -0.28990296 0.09326945 -0.96340883
v -0.30284607 0.08185979 -1.10151732
v 0.01323403 0.01672219 -1.12349343
v 0.42612597 0.64331430 -0.67120844
v 0.26099545 0.52526277 -0.86123395
v 0.68172681 0.74756843 -0.15320362
v 0.58007455 0.72826141 -0.40945524
v 0.73361838 0.32540250 -0.74267781
v 0.69044930 0.51156324 -0.59133482
v 0.89324903 0.39545521 -0.45271489
v 0.68319631 0.24776246 0.15862510
v 0.60319966 0.19615342 0.47067344
v 0.44377619 0.32822540 0.26951087
v 0.79644030 0.07856315 0.78663838
v 0.73662889 0.07526875 0.66460454
v 1.00762606 0.02421288 0.50057411
v 0.12882160 0.31385332 0.71199483
v 0.43065965 0.20026283 0.74915153
v 0.26778314 0.06335498 0.94616354
v 0.17948145 0.41802189 0.21413915
v 0.29482907 0.14537904 0.00444941
v -0.16598822 0.27122205 0.69611710
v 0.00276005 0.40613684 0.49834472
v -0.28150013 0.22475588 0.06111836
v -0.12493916 0.24116708 0.28928503
v -0.38778582 0.39987627 0.25466692
v 0.14022313 0.15249266 -0.24890877
v 0.46746182 0.24546765 -0.21431419
v -0.41913956 0.27385071 -0.26186639
v -0.19398880 0.10720237 -0.19179453
v 0.16627207 0.25349671 -0.72600198
v -0.00976045 0.13501853 -0.51616710
v -0.16839506 0.23499762 -0.72527635
v 0.61418122 0.29062179 -0.39466411
v 0.68784368 0.27213606 -0.14049172
v 0.28945929 0.12913370 -0.91536611
v 0.46280593 0.24319825 -0.68916363
v 0.99298298 0.00165897 -0.49299976
v 0.75676066 0.11092841 -0.63263327
v 0.80747002 0.10112963 -0.80103248
v 0.85383081 0.19253699 -0.00252450
v 1.06220615 0.19297954 -0.31601429
v 1.10382020 0.00000000 -0.19005190
v 1.11642027 0.05026047 0.19312415
v 1.05033684 0.20431945 0.28457701
v 0.29960668 0.09705266 1.08954346
v 0.58244413 0.21112052 0.91430742
v 0.27920172 0.32780725 0.98538929
v -0.61197108 0.31182805 0.41892812
v -0.46459824 0.20225298 0.73399740
v -0.77415991 0.03309204 0.60211492
v -0.43941674 0.17274120 -0.72752678
v -0.58353573 0.31399295 -0.43615144
v -0.74248618 0.11406045 -0.65231645
v 0.56199014 0.20916095 -0.94773906
v 0.30930901 0.08974065 -1.09230900
v 0.26532224 0.32165650 -1.00962901
v 0.97110486 0.38735756 0.15999626
v 0.96308023 0.38155389 -0.17707022
v 0.84516591 0.59389615 -0.00448566
v -0.60312134 0.81775701 0.08021453
v -0.56079382 0.82549703 0.20984791
v -0.47795221 0.89589828 0.13001825
v -0.69323915 0.65443033 0.36914992
v -0.63140309 0.74388117 0.29218718
v -0.73738545 0.66210258 0.23538195
v -0.36994776 0.87386906 0.37703693
v -0.50558871 0.81553787 0.33879822
v -0.44639513 0.79225206 0.45632011
v -0.81922072 0.26627439 0.67570883
v -0.80614585 0.36079538 0.61021239
v -0.90005839 0.30181465 0.53004253
v -0.59332162 0.46918684 0.71360427
v -0.70314091 0.42029080 0.67024994
v -0.60481232 0.36851734 0.78677863
v -0.83831280 0.48321095 0.38363999
v -0.78348655 0.45693615 0.52984750
v -0.74700004 0.54252231 0.45538545
v -0.08370821 0.67093426 0.76628000
v -0.20859660 0.62561166 0.77178991
v -0.12868726 0.55752897 0.85281771
v -0.36564648 0.74775839 0.58649778
v -0.29016277 0.69685429 0.68522346
v -0.23365158 0.79392558 0.59484261
v -0.37365890 0.47080889 0.84495127
v -0.33559608 0.58052778 0.76887250
v -0.45888856 0.53270239 0.75261223
v -0.63504273 0.62042016 0.51065528
v -0.55163580 0.58084750 0.64186335
v -0.50211871 0.68991739 0.55145609
v -0.35361564 0.95266622 0.13008258
v -0.39652503 0.94630390 0.00079024
v -0.23822853 0.91981244 0.37896356
v -0.29808021 0.94324434 0.25941175
v -0.13716164 1.00970328 -0.00017234
v -0.21922950 0.99283046 0.12965421
v -0.08321590 1.01105785 0.13084051
v 0.07565866 0.67581761 0.76807034
v -0.00210845 0.74844772 0.69326109
v 0.15671217 0.87586325 0.50924963
v 0.07939220 0.82072258 0.60649180
v 0.23274232 0.79980910 0.59497935
v -0.08139282 0.81783265 0.60783297
v -0.15438633 0.87321609 0.51054519
v 0.39705840 0.94772393 0.00529834
v 0.35344535 0.95422459 0.13378066
v 0.47892985 0.89616710 0.13215759
v 0.07891428 1.01098096 0.13143197
v 0.21544768 0.99340290 0.13252737
v 0.13434242 1.01245272 0.00085190
v 0.37209746 0.87660462 0.37738070
v 0.29745850 0.94749600 0.26256606
v 0.23789294 0.92324513 0.38088962
v -0.08244785 0.94339675 0.39301708
v 0.08180246 0.94346076 0.39374706
v -0.00194752 0.99047166 0.26262456
v -0.35143417 0.95008689 -0.12969364
v -0.47418624 0.89569414 -0.12772661
v -0.08350305 1.00855684 -0.12913586
v -0.21744861 0.98795933 -0.12996675
v -0.36900070 0.87590885 -0.37545002
v -0.29683870 0.94267577 -0.25978193
v -0.23305044 0.91750365 -0.37770873
v 0.47631639 0.90045702 -0.12486582
v 0.35268959 0.95560902 -0.12619813
v 0.23438433 0.92066783 -0.37863323
v 0.29526410 0.94413650 -0.25744075
v 0.36789978 0.87619096 -0.37471005
v 0.21550451 0.99103576 -0.12832025
v 0.07867273 1.01034725 -0.12996812
v -0.08422159 0.66734052 -0.76994282
v -0.00362382 0.74524313 -0.69381297
v 0.07856216 0.67331874 -0.76757294
v -0.15451603 0.86938506 -0.50781918
v -0.08206736 0.81251597 -0.60471594
v -0.23359109 0.79295021 -0.59229785
v 0.23284684 0.79576963 -0.59257782
v 0.07854082 0.81516796 -0.60649002
v 0.15277779 0.87308472 -0.50867182
v -0.00246296 0.98866653 -0.26067632
v 0.07986119 0.94196534 -0.39251947
v -0.08123748 0.93987447 -0.39171919
v -0.55858725 0.82549757 -0.20750372
v -0.60264301 0.82080567 -0.07908966
v -0.44714558 0.79506594 -0.45205727
v -0.50807732 0.81973946 -0.33611849
v -0.74361950 0.65471113 -0.22358306
v -0.63493073 0.74078262 -0.28323770
v -0.69678128 0.65397388 -0.35365230
v -0.13419129 0.56291854 -0.85380220
v -0.21614376 0.62977487 -0.77670825
v -0.47127935 0.53962350 -0.74313813
v -0.34988737 0.58196986 -0.76621073
v -0.38831720 0.47442633 -0.84161949
v -0.29784513 0.69215715 -0.68438184
v -0.36774790 0.74464464 -0.58423603
v -0.91608447 0.30259860 -0.50771022
v -0.82686216 0.36345303 -0.58168000
v -0.83866125 0.24893375 -0.64866292
v -0.75597030 0.54733175 -0.44125482
v -0.80025291 0.46002921 -0.50883347
v -0.85363954 0.48284853 -0.36381081
v -0.63088626 0.37268916 -0.77173114
v -0.72136784 0.42480853 -0.64888066
v -0.61004049 0.47784862 -0.70407158
v -0.50606978 0.69854027 -0.54412621
v -0.56467336 0.58368778 -0.62406296
v -0.63995379 0.62705219 -0.49227202
v -0.68457627 0.75137496 0.00107485
v -0.82511640 0.58688635 -0.14361379
v -0.76126361 0.66600752 -0.07404814
v -0.75760972 0.67060840 0.08353901
v -0.82107013 0.59277058 0.16191970
v -0.99136680 0.20344731 -0.44082031
v -0.97708333 0.28801340 -0.37246385
v -1.03494978 0.28123018 -0.08191477
v -1.01512587 0.28737697 -0.22455342
v -1.07917476 0.18756138 -0.14571148
v -0.94725329 0.39267898 -0.29526463
v -0.89819980 0.48126808 -0.22451620
v -0.96306366 0.29155263 0.38871586
v -0.99169922 0.19874388 0.45200816
v -0.88376462 0.48542133 0.24590664
v -0.92502409 0.39443099 0.32120523
v -1.07370138 0.20720398 0.15738587
v -1.00994420 0.29734948 0.24100819
v -1.03898466 0.30224875 0.08976945
v -0.91241431 0.49787709 -0.07078203
v -0.97999865 0.39587823 0.00879902
v -0.90775609 0.49970427 0.09150160
v 0.56623971 0.82720101 0.21229737
v 0.60898089 0.82185870 0.08359685
v 0.45139438 0.79482180 0.45852971
v 0.51246220 0.81903708 0.34112665
v 0.75136679 0.65992922 0.23180966
v 0.64096332 0.74438578 0.29175365
v 0.70379305 0.65336406 0.36475992
v 0.12808380 0.56982201 0.85492963
v 0.20582883 0.64108926 0.77939939
v 0.46457908 0.54848707 0.75740415
v 0.33728695 0.59672296 0.77108407
v 0.38162732 0.48535389 0.84962326
v 0.29195404 0.70358485 0.69170833
v 0.36772937 0.75757438 0.59042841
v 0.90718561 0.28529739 0.49560603
v 0.81495386 0.34473792 0.57315749
v 0.83323449 0.24551535 0.63976568
v 0.75403804 0.54651350 0.44810620
v 0.79029930 0.45076638 0.51286972
v 0.84670699 0.47504684 0.37131298
v 0.63119751 0.38143408 0.76558393
v 0.70690435 0.41500884 0.64273965
v 0.60395086 0.48052269 0.70949465
v 0.50865173 0.69857752 0.55471522
v 0.55973154 0.59338731 0.64034426
v 0.63949221 0.62760782 0.50558579
v -0.12566777 0.46404862 0.92905796
v 0.00429599 0.50360012 0.91404963
v -0.38239783 0.36502749 0.91833824
v -0.25443813 0.41330132 0.93211097
v 0.00646492 0.30313703 1.04595912
v -0.12543075 0.35788381 1.00062466
v -0.13314883 0.25573674 1.05438960
v -0.86869061 0.13661905 0.69471967
v -0.76589876 0.19277658 0.77711791
v -0.59132165 0.08564540 0.95302707
v -0.68506193 0.13615614 0.87677497
v -0.71327287 0.00087024 0.86808729
v -0.64423192 0.25010797 0.84142148
v -0.52593124 0.30395380 0.88691592
v -0.01987077 0.09797186 0.99686110
v -0.17557108 0.10537532 1.02470994
v -0.16622370 0.17005795 0.91727775
v -0.13450226 0.13721371 1.10913122
v -0.15709487 0.01241298 1.09282994
v 0.00942856 0.09839948 1.13001490
v -0.43537483 0.07357892 0.91751814
v -0.31994301 0.03097619 1.05847859
v -0.46689543 0.01649575 1.02457988
v -0.40693274 0.24274933 0.97418463
v -0.43663245 0.12411441 1.01016796
v -0.27316868 0.18790172 1.05411851
v -1.04657269 0.09528468 0.40105903
v -0.98032004 0.10348209 0.55298430
v -1.11313164 0.08861755 0.08714713
v -1.08933318 0.09577479 0.23762903
v -0.93986779 0.10059592 0.40126604
v -1.06203306 0.00056587 0.33114481
v -0.98607677 0.08575775 0.25108257
v -0.98392254 0.08057903 -0.55433923
v -1.03977990 0.11072724 -0.41599923
v -0.97451121 0.10619627 -0.23905315
v -1.03048635 0.01497103 -0.34814101
v -0.93459553 0.12909357 -0.41543192
v -1.09168530 0.08522616 -0.25108349
v -1.13020134 0.10385623 -0.10487550
v -0.60833842 0.40597966 0.09133037
v -0.70981139 0.36473280 -0.01328256
v -0.60018468 0.37285188 -0.09593917
v -0.90192467 0.22881247 0.16559616
v -0.80682749 0.30306357 0.08337135
v -0.79610753 0.27216676 0.24010569
v -0.78236818 0.26931927 -0.26391461
v -0.80409873 0.32476345 -0.09724075
v -0.85332727 0.20971464 -0.18268070
v -1.11384594 0.00073854 -0.01544947
v -1.00303125 0.11369735 -0.08386355
v -1.00036645 0.12629414 0.09264799
v -0.78851265 0.19407392 -0.75199336
v -0.88053787 0.10533423 -0.67888832
v -0.55185282 0.31769124 -0.87620676
v -0.67145234 0.24918918 -0.82445252
v -0.69045764 0.00000000 -0.83070856
v -0.70040488 0.14252633 -0.87406051
v -0.59743148 0.09382837 -0.96841860
v -0.00205414 0.49982807 -0.91337699
v -0.13706100 0.46051168 -0.92635530
v -0.14698671 0.25934750 -1.06676424
v -0.14280230 0.35207698 -0.99784476
v -0.00491807 0.30388224 -1.04856014
v -0.26938599 0.41875359 -0.92791170
v -0.39725655 0.37520921 -0.90908450
v -0.12772621 0.10114907 -0.93568093
v -0.12042782 0.00166722 -1.02855265
v 0.01525423 0.07819818 -1.00283909
v -0.44820079 0.04292065 -1.04048681
v -0.29014629 0.00000000 -1.04955232
v -0.43187961 0.01378771 -0.92775273
v -0.02124752 0.08422963 -1.13631499
v -0.16328292 0.00830963 -1.14666331
v -0.16156562 0.12720744 -1.11055303
v -0.43420672 0.27234486 -0.97786057
v -0.30056268 0.20765625 -1.05726039
v -0.45258871 0.14647795 -1.02419794
v 0.21047987 0.63671291 -0.77884251
v 0.13107687 0.56238604 -0.85673231
v 0.36735526 0.74884105 -0.58607543
v 0.29542384 0.69594139 -0.68703562
v 0.38543823 0.47874391 -0.85182750
v 0.34583411 0.58831054 -0.77067780
v 0.46575826 0.53973174 -0.75094658
v 0.60593396 0.82595646 -0.07662539
v 0.56081903 0.83081818 -0.20553020
v 0.69484568 0.65985990 -0.36097240
v 0.63746119 0.74355567 -0.28329596
v 0.74473649 0.66361082 -0.23166448
v 0.50712246 0.81871688 -0.33516201
v 0.44694212 0.79301339 -0.45475888
v 0.84133857 0.27121630 -0.67439306
v 0.83025151 0.36250490 -0.60308486
v 0.92365444 0.29634356 -0.52153039
v 0.60097408 0.47833920 -0.71512592
v 0.71503800 0.41422221 -0.67283732
v 0.61920857 0.37409565 -0.79467243
v 0.84452480 0.48461306 -0.38529971
v 0.79337901 0.45308831 -0.53224009
v 0.75082058 0.55087638 -0.45228723
v 0.51203227 0.69339055 -0.54903823
v 0.64346647 0.62573969 -0.50336355
v 0.56461632 0.58077031 -0.63604581
v 0.61672217 0.32311156 0.08229544
v 0.57912081 0.31502038 0.21864571
v 0.49172616 0.35348275 0.15176076
v 0.73753965 0.17774700 0.38712361
v 0.66935873 0.24750414 0.32774034
v 0.76718414 0.23542076 0.24832895
v 0.36487976 0.30914322 0.39144602
v 0.53173691 0.27448076 0.36693493
v 0.45185211 0.24828026 0.50162172
v 0.88470149 0.13213615 0.69371212
v 0.92500919 0.01734143 0.66000491
v 0.98534107 0.10806253 0.55346775
v 0.66483212 0.00000000 0.78420001
v 0.81706595 0.00000000 0.74901611
v 0.70500821 0.01730658 0.88352078
v 0.92461097 0.01300497 0.40715852
v 0.88187069 0.00193314 0.59936690
v 0.82796210 0.08749858 0.51097959
v 0.08851056 0.23243321 0.81688297
v 0.21124291 0.19743522 0.84135687
v 0.13809095 0.12737893 0.94791651
v 0.37378293 0.30805624 0.64042956
v 0.28910685 0.28594312 0.70910054
v 0.21367800 0.36394191 0.56822014
v 0.41682512 0.03169739 0.95107341
v 0.34169552 0.17121519 0.84306920
v 0.48055044 0.06660666 0.83149821
v 0.66315931 0.11029467 0.54313123
v 0.56052452 0.11966112 0.70746064
v 0.51948780 0.21104564 0.59935308
v 0.37905836 0.22940628 0.13703802
v 0.43094140 0.24626777 0.01184937
v 0.22365078 0.37549710 0.36963919
v 0.31703886 0.36347350 0.24862017
v 0.16758023 0.16406102 0.01287307
v 0.24325980 0.29891124 0.09960365
v 0.13702905 0.23670135 0.15844718
v -0.07747076 0.24286285 0.81003720
v -0.01059513 0.29317838 0.72151655
v -0.15697317 0.37693053 0.50322503
v -0.09048314 0.35019085 0.59917158
v -0.26145142 0.30333021 0.59327203
v 0.07798317 0.35824704 0.61011827
v 0.13462943 0.39125100 0.48024905
v -0.39138815 0.32809851 0.05147508
v -0.30444244 0.40773812 0.14564006
v -0.47797573 0.43953696 0.15332477
v -0.04829916 0.23588525 0.14705192
v -0.17359002 0.34762365 0.12913078
v -0.14359368 0.16468355 0.04933955
v -0.33502534 0.37577748 0.36274451
v -0.24099612 0.39655477 0.29145750
v -0.20237687 0.38423532 0.37778828
v 0.08081231 0.44145757 0.35616758
v -0.05330330 0.40983760 0.37184328
v 0.06885838 0.26417994 0.29229268
v 0.38027313 0.23524262 -0.10437417
v 0.42348298 0.39456958 -0.11442230
v 0.09418057 0.16390052 -0.10721882
v 0.22455169 0.15450008 -0.12061013
v 0.39091817 0.24074276 -0.35324132
v 0.32300174 0.15639527 -0.23178490
v 0.24340826 0.15546156 -0.36487854
v -0.45498478 0.35009933 -0.12563293
v -0.38666058 0.21518286 -0.10150116
v -0.23342340 0.09372797 -0.34841460
v -0.31195945 0.17508531 -0.23243587
v -0.36853138 0.17862068 -0.37749964
v -0.25638333 0.13398977 -0.07614557
v -0.09818387 0.11184626 -0.08407140
v 0.09567454 0.18964599 -0.81165367
v 0.01023350 0.22117391 -0.73504776
v -0.09232245 0.19424687 -0.83481330
v 0.16432670 0.19773848 -0.49476472
v 0.09973224 0.16445012 -0.62044573
v 0.25062221 0.27297920 -0.61654252
v -0.23579803 0.13809262 -0.66889417
v -0.09025465 0.19704755 -0.64070380
v -0.14041744 0.10666458 -0.50762975
v -0.00618119 0.14617126 -0.22642864
v -0.08124216 0.07851142 -0.33922103
v 0.07560318 0.16347736 -0.37062111
v 0.53734410 0.35903946 -0.18112436
v 0.60208744 0.31886894 -0.04505212
v 0.43823123 0.29342368 -0.44849592
v 0.48700017 0.33198196 -0.33505955
v 0.75560331 0.23146923 -0.25133964
v 0.64007181 0.30381337 -0.28493026
v 0.74029487 0.24744155 -0.38929105
v 0.15504628 0.17201066 -0.90363973
v 0.23621653 0.20069288 -0.81102335
v 0.51412630 0.12497260 -0.77091420
v 0.37460393 0.18197116 -0.79771161
v 0.43518993 0.10249802 -0.91260344
v 0.31221828 0.28525957 -0.75205421
v 0.37295786 0.32345036 -0.60472745
v 0.97816122 0.10691125 -0.55186367
v 0.90512878 0.03856893 -0.66130006
v 0.88343489 0.15208340 -0.69581008
v 0.83340657 0.17090365 -0.48496357
v 0.89226609 0.08735029 -0.55777752
v 0.94387531 0.08761249 -0.41221371
v 0.72068667 0.02004138 -0.88539577
v 0.80876905 0.00000000 -0.71526110
v 0.67394596 0.02669879 -0.74831909
v 0.53361213 0.26052257 -0.53936982
v 0.62512839 0.20096776 -0.66707313
v 0.68367112 0.26033875 -0.53211522
v 0.69559038 0.25130445 0.01350692
v 0.87922764 0.20986927 -0.18198298
v 0.77814442 0.18979788 -0.09535722
v 0.77837408 0.18933313 0.08936074
v 0.88107228 0.18776147 0.18917815
v 1.00326025 0.20155805 -0.45865944
v 1.05654132 0.11577918 -0.41976744
v 1.13588560 0.09700527 -0.09990294
v 1.10934520 0.09963665 -0.25696823
v 1.09920645 0.19206935 -0.16313271
v 1.05870008 0.02054263 -0.34855857
v 0.97819197 0.08297557 -0.25344622
v 1.06282651 0.11025887 0.39952785
v 1.00015569 0.20149198 0.42350772
v 0.96912587 0.03864724 0.26675010
v 1.08644176 0.05138933 0.35103437
v 1.07722545 0.19304234 0.12913944
v 1.09937942 0.12426176 0.24559687
v 1.12650204 0.11466900 0.07761592
v 0.99470747 0.10124140 -0.09331068
v 1.11694217 0.00000000 -0.00365198
v 0.98249292 0.08016479 0.08032414
v 0.13906062 0.04241892 1.04927766
v 0.44789118 0.07437391 1.04714823
v 0.31357202 0.00047298 1.06180894
v 0.15542397 0.05523536 1.11949980
v 0.15256318 0.15276316 1.10224998
v 0.77119523 0.19656253 0.75242072
v 0.55314779 0.31626922 0.86836159
v 0.66610301 0.26019669 0.81075740
v 0.69627094 0.15098770 0.86048281
v 0.60193825 0.11894341 0.95743388
v 0.13395052 0.46966469 0.93274981
v 0.15250063 0.26120469 1.05888891
v 0.14158018 0.36173263 1.00019991
v 0.26759163 0.42658615 0.93067724
v 0.39880648 0.37485862 0.91071206
v 0.45564196 0.15138550 1.01471663
v 0.43189219 0.26514062 0.96036118
v 0.29865289 0.21001890 1.04271007
v -0.57569909 0.41098118 0.22635977
v -0.44919816 0.33914524 0.45759499
v -0.51261532 0.36851084 0.34123519
v -0.66493255 0.32373118 0.28297228
v -0.75020164 0.26202953 0.39996544
v -0.22694397 0.19518463 0.79378998
v -0.51970124 0.07783280 0.83856028
v -0.36854103 0.15754721 0.81602550
v -0.31591359 0.21802200 0.66737258
v -0.39943725 0.28676552 0.58888978
v -0.91941041 0.03768327 0.65504897
v -0.83142960 0.14987041 0.49349585
v -0.90143681 0.01705898 0.55110365
v -0.82370436 0.00000000 0.73213017
v -0.69516152 0.08407611 0.76094854
v -0.53259861 0.25125295 0.57785523
v -0.59502488 0.11164149 0.67940551
v -0.68958867 0.20699930 0.54886359
v -0.22808833 0.11143863 -0.80835921
v -0.34284866 0.22005439 -0.59702796
v -0.32395580 0.19211617 -0.70919216
v -0.36899129 0.09044821 -0.84580022
v -0.48457158 0.12332265 -0.81769174
v -0.56188595 0.23855719 -0.22152492
v -0.71838099 0.22422798 -0.39407286
v -0.65362668 0.30531019 -0.30754080
v -0.53449202 0.28817308 -0.37251481
v -0.40806273 0.28005606 -0.49152008
v -0.89971304 0.00021698 -0.65266520
v -0.67270482 0.10116071 -0.78670514
v -0.79448140 0.02712204 -0.74744034
v -0.87032956 0.08872581 -0.57194155
v -0.81762177 0.14262405 -0.49740514
v -0.48743811 0.25654373 -0.58810043
v -0.66545761 0.21702652 -0.56028414
v -0.60198879 0.16585979 -0.69704163
v 0.77372456 0.21333390 -0.77505660
v 0.58525974 0.08854140 -0.95866436
v 0.69177145 0.15040198 -0.88127697
v 0.65310144 0.26334831 -0.84727132
v 0.53533185 0.31730393 -0.89043003
v 0.15339252 0.13002637 -1.02631366
v 0.13403170 0.13210818 -1.11401689
v 0.14890617 0.10625856 -1.10794592
v 0.30787888 0.06307950 -1.03105783
v 0.44485703 0.00258994 -1.02526355
v 0.12930702 0.46282145 -0.93596208
v 0.38763788 0.37762317 -0.92387027
v 0.26445100 0.42072117 -0.93259352
v 0.12811716 0.36467975 -1.00366509
v 0.13450789 0.25989524 -1.06691813
v 0.44250497 0.12593693 -1.03345644
v 0.27644292 0.18828282 -1.06384110
v 0.41442996 0.25981706 -0.98936343
v 0.97047192 0.30036020 0.36867604
v 1.04280531 0.30151165 0.07612488
v 1.02632046 0.30053619 0.22325048
v 0.93858939 0.39341044 0.30005327
v 0.89968061 0.48140278 0.23428623
v 0.97821712 0.28682089 -0.38700968
v 0.89340270 0.47870877 -0.25245395
v 0.94393069 0.38686290 -0.31528172
v 1.02294159 0.28237429 -0.24450554
v 1.04495609 0.29899842 -0.09871140
v 0.69285232 0.75736022 0.00063886
v 0.83743352 0.58332568 0.14957230
v 0.77267039 0.67199355 0.07973679
v 0.76771683 0.67142904 -0.07749216
v 0.83022946 0.59057921 -0.16020511
v 0.97872263 0.38709715 -0.01091735
v 0.90776163 0.48987788 -0.09401645
v 0.91722602 0.48410094 0.07130213
f 330 87 329
f 336 325 26
f 207 208 56
f 464 36 580
f 502 129 504
f 157 624 622
f 308 311 82
f 247 223 248
f 507 483 508
f 331 88 329
f 494 500 497
f 156 601 602
f 591 589 592
f 365 98 596
f 75 281 282
f 152 587 577
f 149 559 560
f 555 121 553
f 530 141 529
f 515 517 139
f 361 594 98
f 250 67 249
f 157 608 609
f 294 293 209
f 317 81 316
f 557 338 26
f 303 305 81
f 530 529 528
f 101 381 382
f 415 418 111
f 192 184 50
f 412 110 411
f 20 384 256
f 131 594 486
f 281 264 282
f 347 287 348
f 28 349 582
f 165 163 1
f 248 250 66
f 617 107 398
f 273 271 274
f 456 115 453
f 558 561 560
f 335 576 91
f 331 177 332
f 116 433 436
f 351 370 92
f 136 511 530
f 239 240 65
f 247 258 19
f 304 23 567
f 148 557 570
f 214 208 58
f 440 426 450
f 268 270 269
f 258 247 268
f 204 202 16
f 466 125 465
f 517 513 133
f 168 275 274
f 275 73 274
f 198 193 53
f 309 308 307
f 510 511 136
f 415 416 110
f 131 490 597
f 473 475 474
f 414 415 111
f 493 495 494
f 496 504 485
f 433 116 432
f 600 375 601
f 240 234 65
f 418 415 412
f 486 361 3
f 567 566 304
f 380 393 29
f 17 199 197
f 491 492 132
f 451 449 435
f 218 217 216
f 623 621 613
f 396 104 395
f 433 439 436
f 628 160 627
f 215 202 217
f 209 207 2
f 427 113 424
f 434 10 544
f 434 433 432
f 199 17 210
f 150 564 565
f 489 491 132
f 275 13 285
f 497 500 134
f 125 466 476
f 578 152 577
f 208 214 211
f 328 88 343
f 356 27 603
f 150 566 567
f 372 100 371
f 190 191 47
f 235 8 398
f 260 261 72
f 422 403 414
f 422 414 111
f 453 454 123
f 349 583 582
f 521 520 519
f 425 453 115
f 616 622 158
f 483 130 508
f 151 586 572
f 212 17 232
f 400 397 402
f 377 396 99
f 41 522 511
f 510 508 505
f 549 547 42
f 475 473 36
f 510 137 509
f 222 221 197
f 430 115 429
f 220 194 1
f 305 54 204
f 621 29 613
f 192 171 184
f 460 335 5
f 88 331 332
f 74 277 279
f 300 301 80
f 390 389 388
f 165 45 164
f 146 549 551
f 291 278 75
f 448 120 445
f 147 543 544
f 607 610 609
f 603 602 356
f 139 529 514
f 333 553 443
f 92 368 347
f 261 260 259
f 300 6 200
f 46 177 331
f 284 283 174
f 301 300 200
f 471 468 474
f 54 305 301
f 302 304 303
f 569 150 567
f 150 569 570
f 294 209 2
f 628 629 160
f 548 543 147
f 147 625 627
f 63 233 234
f 426 427 114
f 41 509 532
f 198 52 196
f 614 105 612
f 147 627 547
f 81 305 306
f 549 548 547
f 54 301 200
f 342 88 332
f 264 281 70
f 193 194 53
f 455 429 456
f 187 321 14
f 479 130 484
f 147 544 625
f 458 456 453
f 304 80 303
f 314 84 313
f 488 503 501
f 321 332 14
f 423 425 424
f 305 204 306
f 341 339 25
f 514 40 516
f 625 628 627
f 340 339 341
f 105 614 391
f 243 228 62
f 318 316 78
f 75 278 279
f 357 355 353
f 238 257 63
f 466 455 476
f 425 423 4
f 448 449 120
f 408 638 108
f 292 275 285
f 22 278 289
f 515 513 517
f 501 503 134
f 622 623 158
f 134 503 504
f 195 216 206
f 163 271 246
f 619 617 620
f 62 228 229
f 163 165 164
f 453 425 454
f 489 132 488
f 82 628 625
f 58 208 209
f 525 608 40
f 626 547 627
f 518 517 498
f 489 487 491
f 557 26 564
f 325 336 344
f 541 145 539
f 40 616 516
f 338 556 89
f 250 248 245
f 139 514 515
f 98 594 596
f 246 220 1
f 112 413 630
f 9 536 413
f 156 600 601
f 332 177 14
f 321 342 332
f 156 606 600
f 584 330 585
f 302 303 81
f 584 87 330
f 330 25 585
f 400 239 65
f 439 440 117
f 95 358 368
f 597 594 131
f 594 361 486
f 246 67 245
f 561 562 149
f 28 364 362
f 55 216 217
f 427 430 114
f 267 20 254
f 556 555 553
f 84 309 558
f 311 310 312
f 609 525 142
f 256 68 255
f 124 460 461
f 82 311 312
f 307 308 82
f 589 135 495
f 527 40 514
f 112 418 412
f 20 256 254
f 258 238 19
f 267 254 269
f 273 272 249
f 392 391 393
f 137 533 509
f 122 455 456
f 9 413 411
f 130 480 505
f 333 443 5
f 527 525 40
f 589 495 385
f 39 496 485
f 223 225 224
f 414 416 415
f 219 222 53
f 145 538 539
f 413 412 411
f 469 468 467
f 183 181 6
f 191 192 50
f 429 35 431
f 292 285 76
f 413 112 412
f 415 110 412
f 43 164 167
f 467 468 126
f 617 101 620
f 450 451 117
f 438 546 545
f 619 620 159
f 17 212 210
f 124 579 576
f 584 153 583
f 460 124 576
f 3 469 467
f 311 308 314
f 6 320 183
f 389 104 388
f 251 250 249
f 194 165 1
f 291 289 278
f 287 77 348
f 238 258 257
f 139 517 518
f 238 236 19
f 223 247 19
f 382 380 29
f 39 518 498
f 361 359 3
f 69 255 257
f 139 518 528
f 33 545 535
f 387 385 7
f 69 268 269
f 477 462 125
f 454 479 123
f 121 555 447
f 451 435 117
f 454 425 4
f 233 252 8
f 124 463 464
f 69 258 268
f 168 167 166
f 583 153 582
f 384 394 102
f 138 512 513
f 57 210 211
f 254 256 255
f 607 609 142
f 324 319 86
f 289 291 76
f 291 292 76
f 384 102 383
f 422 421 420
f 221 17 197
f 383 102 381
f 376 377 99
f 99 373 374
f 386 105 392
f 438 33 440
f 90 341 343
f 281 75 279
f 574 571 96
f 628 82 312
f 221 222 59
f 127 471 474
f 595 605 603
f 551 538 145
f 334 91 340
f 322 324 85
f 305 303 301
f 18 239 399
f 306 204 16
f 199 198 197
f 166 190 180
f 303 80 301
f 267 266 265
f 626 42 547
f 16 215 213
f 349 351 350
f 295 16 213
f 68 379 252
f 250 251 66
f 627 160 626
f 383 68 256
f 343 88 342
f 507 508 136
f 202 215 16
f 197 198 53
f 254 69 269
f 603 605 156
f 418 419 111
f 384 383 256
f 455 122 476
f 203 204 54
f 556 557 148
f 255 68 253
f 313 84 560
f 25 328 341
f 254 255 69
f 603 156 602
f 581 584 583
f 630 632 112
f 163 246 1
f 246 245 220
f 432 116 558
f 499 591 590
f 320 563 86
f 345 93 350
f 306 16 295
f 346 93 345
f 562 568 149
f 604 605 155
f 154 592 593
f 545 552 535
f 511 522 530
f 574 573 571
f 566 150 565
f 361 98 360
f 67 271 273
f 234 235 65
f 208 211 56
f 574 151 573
f 251 270 66
f 398 8 378
f 213 215 214
f 438 440 439
f 315 314 313
f 263 71 262
f 20 373 384
f 496 134 504
f 329 88 328
f 81 306 316
f 555 556 148
f 592 589 103
f 617 619 107
f 227 207 56
f 571 359 96
f 446 466 465
f 206 216 55
f 359 571 469
f 568 148 570
f 34 437 435
f 28 351 349
f 21 272 282
f 113 423 424
f 490 489 488
f 379 68 383
f 210 212 211
f 80 563 300
f 351 92 350
f 326 346 12
f 83 317 318
f 555 148 554
f 212 231 56
f 218 57 217
f 271 67 246
f 195 196 52
f 270 268 66
f 390 592 103
f 148 568 554
f 495 493 7
f 592 390 593
f 357 95 355
f 574 575 151
f 452 120 451
f 154 591 592
f 587 585 577
f 395 394 396
f 93 349 350
f 610 416 611
f 166 44 190
f 315 23 302
f 315 302 317
f 268 247 66
f 606 154 593
f 396 394 99
f 211 212 56
f 370 369 368
f 235 397 65
f 280 278 22
f 83 315 317
f 575 588 151
f 74 279 280
f 385 495 7
f 63 257 253
f 397 235 398
f 214 58 213
f 220 219 194
f 546 146 545
f 236 225 19
f 599 94 602
f 235 233 8
f 102 394 395
f 611 416 32
f 225 223 19
f 139 528 529
f 231 62 229
f 419 406 421
f 451 450 452
f 49 182 185
f 402 397 107
f 52 199 218
f 416 610 110
f 225 236 244
f 107 397 398
f 68 252 253
f 322 85 321
f 182 181 183
f 118 438 439
f 546 438 118
f 348 77 345
f 543 546 118
f 231 212 232
f 610 611 157
f 33 438 545
f 385 386 103
f 479 480 130
f 169 195 15
f 93 583 349
f 15 195 206
f 190 44 192
f 247 248 66
f 146 552 545
f 248 60 245
f 570 557 564
f 274 271 43
f 63 253 233
f 272 21 249
f 507 528 518
f 67 273 249
f 487 467 126
f 196 195 169
f 624 159 623
f 134 496 497
f 132 503 488
f 104 393 395
f 556 553 89
f 355 356 94
f 258 69 257
f 229 61 227
f 56 231 227
f 460 576 335
f 463 124 461
f 394 373 99
f 29 393 391
f 67 250 245
f 193 198 196
f 462 36 464
f 144 633 630
f 141 526 527
f 517 133 498
f 536 144 630
f 100 372 599
f 144 536 537
f 22 289 287
f 578 579 152
f 579 578 576
f 189 188 187
f 60 223 224
f 92 348 350
f 555 554 447
f 396 377 388
f 194 193 165
f 413 536 630
f 372 352 599
f 377 376 375
f 348 345 350
f 105 386 387
f 240 237 234
f 463 462 464
f 135 500 494
f 45 196 169
f 512 612 387
f 245 60 220
f 429 115 456
f 223 60 248
f 288 289 76
f 525 526 142
f 100 599 601
f 613 29 391
f 526 523 520
f 341 328 343
f 631 641 639
f 264 21 282
f 266 72 265
f 106 402 403
f 73 273 274
f 186 206 205
f 381 379 383
f 52 216 195
f 410 18 399
f 290 272 73
f 72 371 374
f 526 525 527
f 115 430 424
f 498 497 496
f 621 382 29
f 543 118 434
f 214 215 57
f 522 141 530
f 511 510 509
f 352 94 599
f 493 512 7
f 90 340 341
f 169 171 170
f 605 604 606
f 219 60 224
f 104 389 392
f 359 469 3
f 186 49 185
f 222 219 224
f 166 167 44
f 428 427 426
f 523 522 524
f 129 502 481
f 50 185 188
f 164 45 170
f 425 115 424
f 33 428 426
f 427 428 113
f 94 356 602
f 515 138 513
f 114 431 452
f 237 236 238
f 215 217 57
f 95 354 355
f 220 60 219
f 515 514 516
f 183 320 319
f 222 197 53
f 559 569 567
f 300 320 6
f 435 436 117
f 96 360 363
f 640 642 641
f 242 243 62
f 140 537 519
f 508 130 505
f 420 410 399
f 537 539 144
f 317 316 318
f 426 114 450
f 186 15 206
f 311 83 310
f 625 544 307
f 544 10 307
f 168 43 167
f 185 182 188
f 369 354 95
f 44 171 192
f 605 606 156
f 548 549 146
f 100 601 375
f 149 568 569
f 381 380 382
f 455 466 35
f 480 479 454
f 543 548 546
f 493 133 513
f 492 472 37
f 477 125 476
f 491 487 126
f 337 336 338
f 588 153 587
f 576 578 91
f 633 161 632
f 96 359 360
f 39 485 483
f 101 617 378
f 193 45 165
f 163 164 43
f 618 624 611
f 507 136 528
f 561 149 560
f 641 162 639
f 116 561 558
f 494 133 493
f 253 252 233
f 63 237 238
f 392 393 104
f 440 450 117
f 93 581 583
f 386 385 387
f 120 449 451
f 421 422 111
f 486 3 467
f 302 81 317
f 633 632 630
f 462 475 36
f 376 99 374
f 489 490 131
f 447 449 448
f 387 612 105
f 106 420 399
f 173 46 172
f 492 491 472
f 316 306 295
f 22 287 347
f 109 410 420
f 507 39 483
f 559 23 313
f 214 57 211
f 196 45 193
f 10 434 432
f 422 106 403
f 626 160 640
f 487 486 467
f 542 41 532
f 400 106 399
f 444 120 452
f 198 199 52
f 475 127 474
f 621 620 382
f 621 623 159
f 450 114 452
f 92 347 348
f 376 100 375
f 434 118 433
f 503 132 502
f 337 90 336
f 537 536 519
f 395 393 380
f 201 54 200
f 171 44 170
f 355 94 353
f 58 296 213
f 422 420 106
f 595 365 596
f 569 568 570
f 523 140 520
f 114 430 431
f 218 210 57
f 304 566 80
f 639 162 638
f 261 371 72
f 548 147 547
f 498 133 497
f 150 570 564
f 222 224 59
f 142 526 520
f 437 436 435
f 141 522 523
f 137 510 505
f 173 179 176
f 559 149 569
f 121 447 448
f 563 320 300
f 102 395 380
f 257 255 253
f 642 162 641
f 83 311 314
f 216 52 218
f 512 493 513
f 23 304 302
f 91 339 340
f 512 138 612
f 159 620 621
f 218 199 210
f 364 28 575
f 83 318 310
f 168 274 43
f 136 530 528
f 140 523 524
f 495 135 494
f 233 235 234
f 566 563 80
f 25 339 577
f 277 74 276
f 475 462 477
f 133 494 497
f 436 437 116
f 389 386 392
f 548 146 546
f 441 460 5
f 10 309 307
f 65 397 400
f 543 434 544
f 640 641 161
f 272 273 73
f 581 93 346
f 419 421 111
f 319 320 86
f 180 179 178
f 127 475 477
f 231 229 227
f 337 334 340
f 136 508 510
f 308 309 84
f 237 63 234
f 447 554 34
f 252 379 378
f 315 83 314
f 608 622 616
f 338 336 26
f 337 338 89
f 13 275 168
f 209 208 207
f 436 439 117
f 628 312 629
f 360 366 363
f 364 574 96
f 359 361 360
f 466 446 35
f 500 501 134
f 406 109 421
f 135 589 591
f 601 599 602
f 340 90 337
f 481 492 37
f 522 41 524
f 78 316 295
f 131 486 487
f 403 32 414
f 634 626 640
f 151 572 573
f 515 516 138
f 8 252 378
f 265 72 374
f 9 521 519
f 538 549 42
f 368 358 347
f 588 587 586
f 458 453 123
f 589 385 103
f 502 492 481
f 32 416 414
f 430 427 424
f 153 585 587
f 540 144 539
f 370 368 92
f 209 293 58
f 428 33 535
f 326 581 346
f 625 307 82
f 575 28 582
f 6 181 200
f 421 109 420
f 553 121 443
f 160 642 640
f 153 584 585
f 309 432 558
f 334 337 89
f 23 315 313
f 271 163 43
f 296 295 213
f 39 498 496
f 118 439 433
f 531 113 534
f 293 296 58
f 28 362 351
f 489 131 487
f 431 444 452
f 84 558 560
f 98 366 360
f 45 169 170
f 379 101 378
f 462 463 125
f 308 84 314
f 10 432 309
f 299 24 310
f 132 492 502
f 512 387 7
f 639 638 408
f 565 323 86
f 59 244 242
f 106 400 402
f 440 33 426
f 566 565 563
f 617 398 378
f 224 225 59
f 410 109 409
f 239 400 399
f 194 219 53
f 358 22 347
f 610 157 609
f 27 595 603
f 479 484 482
f 142 520 521
f 585 25 577
f 339 578 577
f 408 407 406
f 407 109 406
f 31 408 406
f 407 408 108
f 31 639 408
f 419 31 406
f 608 616 40
f 430 429 431
f 455 35 429
f 35 444 431
f 188 51 187
f 188 182 51
f 51 322 187
f 322 51 319
f 51 182 183
f 319 51 183
f 187 322 321
f 322 319 324
f 381 101 379
f 405 407 108
f 404 405 108
f 286 285 178
f 407 405 409
f 109 407 409
f 191 175 47
f 167 164 170
f 50 184 185
f 44 167 170
f 64 244 236
f 243 244 64
f 50 188 189
f 541 542 145
f 442 445 119
f 339 91 578
f 445 446 119
f 624 623 622
f 611 624 157
f 523 526 141
f 141 527 529
f 527 514 529
f 445 120 444
f 446 445 444
f 35 446 444
f 613 614 158
f 158 614 615
f 623 613 158
f 614 613 391
f 614 612 615
f 371 376 374
f 100 376 371
f 479 482 123
f 373 394 384
f 540 42 634
f 633 540 634
f 538 42 540
f 633 634 161
f 161 634 640
f 42 626 634
f 540 633 144
f 557 556 338
f 553 333 89
f 262 21 264
f 251 21 262
f 5 335 333
f 270 251 262
f 21 251 249
f 600 593 30
f 606 593 600
f 600 30 375
f 593 390 30
f 30 377 375
f 390 388 30
f 30 388 377
f 228 243 241
f 470 478 459
f 470 127 478
f 127 477 478
f 184 186 185
f 478 477 476
f 122 478 476
f 357 74 280
f 518 39 507
f 344 342 85
f 325 344 85
f 342 344 343
f 85 342 321
f 344 90 343
f 90 344 336
f 482 129 481
f 482 481 457
f 482 457 123
f 481 37 457
f 449 447 34
f 435 449 34
f 470 472 471
f 472 470 37
f 470 471 127
f 472 126 471
f 126 468 471
f 470 459 37
f 491 126 472
f 504 129 485
f 221 59 242
f 125 463 465
f 437 34 562
f 561 437 562
f 554 568 562
f 34 554 562
f 437 561 116
f 390 103 389
f 103 386 389
f 392 105 391
f 572 586 580
f 572 580 36
f 586 152 580
f 473 572 36
f 244 243 242
f 225 244 59
f 64 240 241
f 240 239 241
f 237 240 64
f 243 64 241
f 236 237 64
f 411 607 521
f 9 411 521
f 110 607 411
f 607 142 521
f 610 607 110
f 171 15 184
f 171 169 15
f 15 186 184
f 87 584 581
f 153 588 582
f 588 575 582
f 381 102 380
f 573 572 473
f 468 469 128
f 474 468 128
f 469 571 128
f 571 573 128
f 573 473 128
f 473 474 128
f 564 323 565
f 26 323 564
f 323 324 86
f 325 323 26
f 325 324 323
f 563 565 86
f 324 325 85
f 410 230 18
f 230 228 18
f 18 228 241
f 18 241 239
f 401 619 618
f 401 402 107
f 403 402 401
f 619 159 618
f 401 618 32
f 619 401 107
f 403 401 32
f 618 611 32
f 159 624 618
f 478 122 459
f 122 458 459
f 37 459 457
f 459 458 457
f 122 456 458
f 457 458 123
f 191 190 192
f 485 129 484
f 129 482 484
f 483 485 484
f 130 483 484
f 189 187 14
f 191 50 189
f 191 189 175
f 189 14 175
f 14 177 175
f 499 501 500
f 501 499 38
f 38 499 590
f 135 499 500
f 488 501 38
f 499 135 591
f 480 454 4
f 284 12 346
f 4 423 506
f 480 4 506
f 423 531 506
f 480 506 505
f 531 137 506
f 506 137 505
f 365 366 98
f 71 270 262
f 270 71 269
f 71 267 269
f 335 334 333
f 333 334 89
f 334 335 91
f 536 9 519
f 465 463 461
f 537 140 541
f 520 140 519
f 119 446 465
f 465 461 119
f 461 441 119
f 460 441 461
f 176 46 173
f 299 297 24
f 71 263 266
f 263 260 266
f 260 72 266
f 263 70 260
f 205 201 49
f 201 181 49
f 186 205 49
f 181 201 200
f 181 182 49
f 284 77 283
f 586 587 152
f 588 586 151
f 20 267 265
f 266 267 71
f 31 417 631
f 631 417 632
f 31 631 639
f 417 31 419
f 641 631 161
f 417 112 632
f 161 631 632
f 418 417 419
f 417 418 112
f 284 345 77
f 542 550 145
f 542 541 524
f 284 174 12
f 48 174 283
f 373 20 265
f 373 265 374
f 609 608 525
f 608 157 622
f 560 559 313
f 636 637 162
f 541 140 524
f 41 542 524
f 358 357 280
f 70 263 264
f 263 262 264
f 176 177 46
f 174 48 173
f 174 173 172
f 538 551 549
f 538 540 539
f 537 541 539
f 232 221 242
f 17 221 232
f 232 242 62
f 231 232 62
f 203 205 55
f 203 55 202
f 201 205 203
f 202 55 217
f 205 206 55
f 204 203 202
f 73 275 292
f 292 290 73
f 272 290 282
f 290 292 291
f 75 290 291
f 290 75 282
f 70 277 259
f 277 70 281
f 277 281 279
f 260 70 259
f 12 174 172
f 104 396 388
f 367 27 354
f 365 27 367
f 354 27 356
f 365 367 366
f 595 27 365
f 318 299 310
f 155 596 597
f 155 597 598
f 596 594 597
f 595 596 155
f 605 595 155
f 180 47 179
f 180 190 47
f 352 372 11
f 11 372 261
f 312 310 24
f 642 636 162
f 636 297 637
f 367 369 97
f 366 367 97
f 369 367 354
f 369 370 97
f 580 579 464
f 580 152 579
f 579 124 464
f 61 230 409
f 230 410 409
f 230 61 229
f 230 229 228
f 76 285 286
f 353 352 276
f 74 353 276
f 288 76 286
f 288 286 283
f 289 288 287
f 203 54 201
f 287 288 77
f 77 288 283
f 286 48 283
f 531 423 113
f 276 11 259
f 11 261 259
f 277 276 259
f 616 158 615
f 516 616 615
f 138 516 615
f 138 615 612
f 509 533 532
f 503 502 504
f 635 79 294
f 635 294 404
f 635 637 79
f 637 635 638
f 638 635 108
f 635 404 108
f 226 61 405
f 61 226 227
f 405 61 409
f 227 226 207
f 48 178 179
f 48 286 178
f 173 48 179
f 534 143 533
f 534 535 143
f 531 534 533
f 533 143 532
f 137 531 533
f 261 372 371
f 13 180 178
f 285 13 178
f 180 13 166
f 13 168 166
f 346 345 284
f 331 327 46
f 46 327 172
f 172 327 326
f 382 620 101
f 442 121 448
f 443 121 442
f 2 226 404
f 294 2 404
f 404 226 405
f 207 226 2
f 550 551 145
f 552 146 551
f 143 550 532
f 552 550 143
f 330 329 328
f 24 636 629
f 94 352 353
f 352 11 276
f 113 428 534
f 428 535 534
f 509 41 511
f 535 552 143
f 550 552 551
f 550 542 532
f 369 95 368
f 326 327 87
f 87 327 329
f 327 331 329
f 581 326 87
f 293 79 298
f 79 297 298
f 296 298 78
f 79 293 294
f 296 293 298
f 598 490 38
f 358 280 22
f 280 279 278
f 357 358 95
f 74 357 353
f 330 328 25
f 567 23 559
f 590 598 38
f 590 604 598
f 598 604 155
f 604 590 154
f 590 591 154
f 604 154 606
f 297 299 298
f 299 318 78
f 298 299 78
f 355 354 356
f 629 636 642
f 312 24 629
f 629 642 160
f 370 362 97
f 362 363 97
f 363 366 97
f 364 363 362
f 362 370 351
f 96 363 364
f 297 636 24
f 162 637 638
f 637 297 79
f 490 488 38
f 598 597 490
f 441 442 119
f 443 442 441
f 443 441 5
f 442 448 445
f 296 78 295
f 326 12 172
f 575 574 364
f 47 175 176
f 175 177 176
f 47 176 179
