# FEM surface export ¡ª frame 160
# Vertices: 642  Faces: 1280
v -0.52582884 1.73306739 0.00000006
v 0.52580231 1.73300481 0.00000206
v -0.54469419 0.03931014 -0.00037961
v 0.54251564 0.03881834 -0.00101267
v -0.00008358 0.35761574 0.85619980
v -0.00002237 1.40827441 0.85094756
v -0.00000341 0.35805804 -0.85667455
v 0.00000553 1.40816474 -0.85084963
v 0.85136157 0.88274419 -0.52618462
v 0.85134810 0.88258386 0.52613378
v -0.85136151 0.88264102 -0.52622521
v -0.85141665 0.88261634 0.52608258
v -0.80928582 1.38246191 0.30911481
v -0.50023031 1.19154942 0.80935860
v -0.30907559 1.69141102 0.50009543
v 0.30907723 1.69142199 0.50009006
v 0.00000241 1.88234520 -0.00000557
v 0.30906758 1.69138002 -0.50007188
v -0.30906934 1.69144225 -0.50009680
v -0.50020349 1.19148743 -0.80936641
v -0.80929345 1.38248587 -0.30911365
v -1.00062382 0.88246870 -0.00000731
v 0.50029486 1.19160235 0.80949706
v 0.80922276 1.38241625 0.30908412
v -0.50129628 0.57410151 0.81112152
v 0.00005324 0.88262594 1.00087702
v -0.81412619 0.38400522 -0.31078446
v -0.81341213 0.38362694 0.31059730
v -0.00001999 0.88273031 -1.00089443
v -0.50116467 0.57417917 -0.81103319
v 0.80921638 1.38238931 -0.30909041
v 0.50016278 1.19147718 -0.80929375
v 0.81482607 0.38346148 0.31088895
v 0.50130928 0.57419467 0.81102806
v 0.31972492 0.07745165 0.51283693
v -0.31690404 0.07719976 0.51085210
v -0.00231173 0.00000000 -0.00328268
v -0.31789035 0.08072150 -0.51385504
v 0.31693566 0.07949971 -0.51448476
v 0.50136220 0.57436234 -0.81113034
v 0.81465000 0.38445538 -0.31105232
v 1.00093520 0.88269997 0.00004738
v -0.69393224 1.58445954 0.16066259
v -0.58792168 1.57064223 0.42544931
v -0.43396381 1.74506497 0.25993285
v -0.70241022 1.04316866 0.69409108
v -0.68843621 1.30777109 0.58798826
v -0.86308044 1.14237952 0.43409055
v -0.16065098 1.57619333 0.70219612
v -0.42545879 1.47022855 0.68836218
v -0.25997254 1.31642139 0.86300373
v -0.16247284 1.83341873 0.26290771
v -0.27329171 1.84429181 -0.00000014
v 0.16065842 1.57616556 0.70217973
v 0.00000673 1.73301303 0.52581924
v 0.27330247 1.84427774 -0.00000071
v 0.16249043 1.83345163 0.26291811
v 0.43396142 1.74503696 0.25993419
v -0.16247308 1.83341265 -0.26290274
v -0.43396056 1.74508560 -0.25993475
v 0.43395638 1.74502230 -0.25993478
v 0.16248260 1.83340824 -0.26290706
v -0.16063654 1.57615960 -0.70217890
v 0.00001144 1.73302376 -0.52582461
v 0.16066751 1.57615650 -0.70219111
v -0.58792132 1.57063544 -0.42541128
v -0.69391960 1.58446157 -0.16066690
v -0.25996029 1.31631362 -0.86293244
v -0.42541146 1.47022796 -0.68835342
v -0.86309409 1.14241946 -0.43409902
v -0.68840414 1.30780721 -0.58801728
v -0.70239741 1.04316103 -0.69417697
v -0.85092366 1.40819633 0.00000090
v -0.96268791 0.88253021 -0.27353212
v -0.95155638 1.14537442 -0.16255304
v -0.95156199 1.14534903 0.16254853
v -0.96269619 0.88252324 0.27343687
v 0.58791482 1.57056999 0.42541352
v 0.69389957 1.58441877 0.16063851
v 0.26001415 1.31624043 0.86298382
v 0.42542404 1.47021186 0.68834907
v 0.86305934 1.14233255 0.43409759
v 0.68847913 1.30780435 0.58796513
v 0.70240712 1.04307711 0.69408059
v -0.26299399 1.04503894 0.95166135
v 0.00000198 1.15575171 0.96238518
v -0.70337242 0.72234571 0.69477081
v -0.52619809 0.88273549 0.85134703
v 0.00009130 0.60975945 0.96399659
v -0.26312363 0.72038537 0.95256376
v -0.26121360 0.44976142 0.86757755
v -0.95251894 0.62013549 0.16277562
v -0.86414063 0.62304920 0.43462613
v -0.86425948 0.62310958 -0.43471447
v -0.95282018 0.62012696 -0.16278358
v -0.70575142 0.18182123 0.16367650
v -0.85642499 0.35877135 -0.00002032
v -0.70729691 0.18236901 -0.16315573
v -0.52620107 0.88257152 -0.85139400
v -0.70303434 0.72226334 -0.69483680
v 0.00000183 1.15580773 -0.96235365
v -0.26299533 1.04502535 -0.95161647
v -0.26119137 0.44946381 -0.86645657
v -0.26317266 0.72030926 -0.95226860
v 0.00004952 0.61004341 -0.96403188
v 0.42541212 1.47015524 -0.68833297
v 0.26000291 1.31629825 -0.86290008
v 0.69389600 1.58440387 -0.16065300
v 0.58790064 1.57056355 -0.42538771
v 0.70240927 1.04315460 -0.69415420
v 0.68842345 1.30776751 -0.58799195
v 0.86303276 1.14235067 -0.43405238
v 0.70706475 0.18139963 0.16336824
v 0.59838641 0.19574580 0.43248975
v 0.45047358 0.03208381 0.27139473
v 0.70305616 0.72223848 0.69474649
v 0.69137901 0.45830655 0.59057194
v 0.86423802 0.62309647 0.43451935
v 0.16321994 0.19073418 0.71305478
v 0.42934376 0.29624867 0.69468528
v 0.26069367 0.44998342 0.86665785
v 0.17002873 0.00000000 0.27736521
v 0.28824440 0.00000000 -0.00116086
v -0.16428849 0.19032109 0.71261084
v -0.00012156 0.04586383 0.54502988
v -0.28847447 0.00000000 0.00076777
v -0.17068928 0.00000000 0.27508786
v -0.44727319 0.03151735 0.26787663
v 0.16980310 0.00000000 -0.27288738
v 0.44700629 0.02999147 -0.26981413
v -0.45050716 0.03298926 -0.27020156
v -0.17069355 0.00000000 -0.27563381
v 0.16318591 0.19028980 -0.71439821
v 0.00028699 0.04010879 -0.53930908
v -0.16218254 0.18884698 -0.71409106
v 0.59770191 0.19509296 -0.43209517
v 0.70669860 0.18106115 -0.16374220
v 0.26141319 0.44948080 -0.86633670
v 0.42914435 0.29585096 -0.69432044
v 0.86442876 0.62349927 -0.43478957
v 0.69109029 0.45857352 -0.59039211
v 0.70300645 0.72233450 -0.69482315
v 0.85639906 0.35768262 -0.00018722
v 0.96281928 0.88268864 -0.27354315
v 0.95281315 0.62023199 -0.16261144
v 0.95244390 0.62001485 0.16256568
v 0.96251279 0.88250011 0.27346846
v 0.26327312 0.72036773 0.95231140
v 0.52619779 0.88260901 0.85121322
v 0.26303643 1.04492199 0.95169508
v -0.59694278 0.19504590 0.43217713
v -0.43012753 0.29584098 0.69541019
v -0.69124812 0.45784500 0.59033304
v -0.43004513 0.29585707 -0.69671744
v -0.59811890 0.19667384 -0.43183109
v -0.69141632 0.45808333 -0.59051603
v 0.52614248 0.88263261 -0.85133523
v 0.26323333 0.72053099 -0.95245004
v 0.26305315 1.04504371 -0.95162880
v 0.95147896 1.14530826 0.16253813
v 0.95144945 1.14533448 -0.16252987
v 0.85086399 1.40812576 -0.00000569
v -0.61575609 1.66626346 0.08111226
v -0.57135075 1.67506969 0.21306719
v -0.48451293 1.74732399 0.13122493
v -0.70734274 1.48397183 0.37185773
v -0.64755011 1.58476090 0.29609287
v -0.75883269 1.48923302 0.23713632
v -0.37510440 1.72630394 0.38368613
v -0.51620656 1.66586280 0.34623092
v -0.45407170 1.64034653 0.46853232
v -0.78439093 0.96366864 0.61598992
v -0.79304928 1.09555876 0.57151389
v -0.86541820 1.01370227 0.48468736
v -0.60173845 1.25421131 0.70734936
v -0.70260358 1.17848527 0.64764977
v -0.60707539 1.11958718 0.75887781
v -0.84425664 1.26607394 0.37519300
v -0.78376704 1.22864187 0.51632106
v -0.75818777 1.35085559 0.45411569
v -0.08110222 1.49810469 0.78403515
v -0.21307682 1.45370913 0.79288381
v -0.13123299 1.36692798 0.86525118
v -0.37181896 1.58951676 0.60162961
v -0.29607400 1.52984333 0.70247233
v -0.23712482 1.64103973 0.60694081
v -0.38375866 1.25760150 0.84426248
v -0.34627274 1.39863861 0.78371817
v -0.46860969 1.33649635 0.75821960
v -0.64679170 1.44671333 0.51355523
v -0.56444526 1.39584613 0.64676976
v -0.51348883 1.52901423 0.56438202
v -0.35828060 1.80667377 0.13168120
v -0.40340573 1.79740489 0.00000685
v -0.23870060 1.77338660 0.38626099
v -0.30130398 1.79861307 0.26412535
v -0.13796607 1.87282419 -0.00000203
v -0.22013791 1.84874499 0.13280764
v -0.08224820 1.87006640 0.13308197
v 0.08110803 1.49807739 0.78399259
v 0.00001243 1.58532071 0.71140909
v 0.15645601 1.72253311 0.51933986
v 0.08116320 1.66257894 0.62033170
v 0.23712838 1.64102590 0.60693419
v -0.08113370 1.66258121 0.62033933
v -0.15644525 1.72257161 0.51935399
v 0.40341720 1.79737449 0.00000164
v 0.35828590 1.80664706 0.13167655
v 0.48450339 1.74728143 0.13121518
v 0.08226016 1.87004077 0.13308740
v 0.22015558 1.84877038 0.13281445
v 0.13797705 1.87281740 -0.00000025
v 0.37510890 1.72627473 0.38366851
v 0.30131999 1.79862607 0.26413026
v 0.23871101 1.77336776 0.38624936
v -0.08232294 1.79536366 0.39968616
v 0.08232858 1.79533732 0.39965418
v 0.00000522 1.84623718 0.26644361
v -0.35826981 1.80666983 -0.13167314
v -0.48451227 1.74732125 -0.13121988
v -0.08224951 1.87004423 -0.13309284
v -0.22014308 1.84876359 -0.13281576
v -0.37509695 1.72631443 -0.38368109
v -0.30129477 1.79861474 -0.26411799
v -0.23870917 1.77338815 -0.38624293
v 0.48451623 1.74729788 -0.13121960
v 0.35828927 1.80665779 -0.13166913
v 0.23871565 1.77336073 -0.38624197
v 0.30130371 1.79859364 -0.26412353
v 0.37509522 1.72626531 -0.38367349
v 0.22014564 1.84875298 -0.13281149
v 0.08225299 1.87004876 -0.13309506
v -0.08109661 1.49804783 -0.78400862
v 0.00000788 1.58528268 -0.71143669
v 0.08111771 1.49800134 -0.78399444
v -0.15644813 1.72255194 -0.51934636
v -0.08113378 1.66259074 -0.62035877
v -0.23711628 1.64104819 -0.60693395
v 0.23713756 1.64100862 -0.60692382
v 0.08117670 1.66260028 -0.62035924
v 0.15647054 1.72253096 -0.51932871
v 0.00000197 1.84621775 -0.26644239
v 0.08234322 1.79534221 -0.39965555
v -0.08233119 1.79535496 -0.39967072
v -0.57134277 1.67506444 -0.21306609
v -0.61576265 1.66626406 -0.08109614
v -0.45406955 1.64034355 -0.46852025
v -0.51621753 1.66588604 -0.34622598
v -0.75886649 1.48930299 -0.23716384
v -0.64755541 1.58475018 -0.29607370
v -0.70731664 1.48396313 -0.37184253
v -0.13123189 1.36690831 -0.86517847
v -0.21306467 1.45367038 -0.79285884
v -0.46856695 1.33644712 -0.75816149
v -0.34622449 1.39856935 -0.78366733
v -0.38375607 1.25753868 -0.84419805
v -0.29605585 1.52984071 -0.70248443
v -0.37180647 1.58954191 -0.60162956
v -0.86552835 1.01377344 -0.48477665
v -0.79311615 1.09562993 -0.57160968
v -0.78434223 0.96367246 -0.61611044
v -0.75817382 1.35091233 -0.45415983
v -0.78379303 1.22869813 -0.51635855
v -0.84425926 1.26612389 -0.37517753
v -0.60711610 1.11960888 -0.75907719
v -0.70263916 1.17851686 -0.64773631
v -0.60172176 1.25418031 -0.70739371
v -0.51347786 1.52900589 -0.56440312
v -0.56444317 1.39583194 -0.64680970
v -0.64674181 1.44670033 -0.51350439
v -0.70307130 1.59373069 0.00000899
v -0.84047443 1.40175331 -0.15649557
v -0.78041172 1.50269091 -0.08115643
v -0.78038162 1.50265646 0.08115674
v -0.84041542 1.40170300 0.15647234
v -0.91578537 0.88258958 -0.40370554
v -0.92493439 1.01421440 -0.35843635
v -0.98831969 1.01556730 -0.08225301
v -0.96694499 1.01526296 -0.22021791
v -0.99123436 0.88251257 -0.13804555
v -0.91663766 1.14658391 -0.30137727
v -0.89135420 1.26868463 -0.23876089
v -0.92492527 1.01419115 0.35846481
v -0.91586822 0.88258439 0.40369281
v -0.89139712 1.26868689 0.23877777
v -0.91671234 1.14659512 0.30140683
v -0.99116755 0.88249737 0.13804474
v -0.96701998 1.01524758 0.22026159
v -0.98821163 1.01551950 0.08231845
v -0.91339701 1.28210449 -0.08235501
v -0.96436173 1.14889312 0.00002686
v -0.91336900 1.28209889 0.08235411
v 0.57133496 1.67503488 0.21305458
v 0.61571759 1.66620088 0.08108726
v 0.45407140 1.64031482 0.46852198
v 0.51620615 1.66583896 0.34621230
v 0.75880337 1.48920369 0.23712660
v 0.64753687 1.58470225 0.29606566
v 0.70726770 1.48389828 0.37182045
v 0.13125116 1.36688352 0.86527580
v 0.21308251 1.45363426 0.79284018
v 0.46861658 1.33653748 0.75825596
v 0.34623823 1.39853573 0.78369790
v 0.38377047 1.25746036 0.84424633
v 0.29604632 1.52978384 0.70245659
v 0.37180650 1.58947539 0.60159940
v 0.86541790 1.01364744 0.48465204
v 0.79301918 1.09545112 0.57144713
v 0.78437006 0.96363086 0.61601323
v 0.75817001 1.35086799 0.45409256
v 0.78377461 1.22860181 0.51630062
v 0.84420758 1.26607120 0.37515882
v 0.60719484 1.11964190 0.75905675
v 0.70261532 1.17845619 0.64759320
v 0.60184169 1.25430989 0.70742309
v 0.51349723 1.52897024 0.56438208
v 0.56443852 1.39584780 0.64674479
v 0.64674038 1.44667161 0.51348263
v -0.13168973 1.24073255 0.92472965
v 0.00003276 1.28582382 0.91541189
v -0.38636881 1.12123680 0.89144158
v -0.26420578 1.18382657 0.91668469
v 0.00000393 1.02049708 0.99106336
v -0.13283801 1.10261750 0.96690840
v -0.13314621 0.96476185 0.98840582
v -0.78482133 0.80163419 0.61618912
v -0.71199584 0.88271433 0.70344681
v -0.52012992 0.72640526 0.84155101
v -0.62100279 0.80170369 0.78097141
v -0.60822678 0.64595813 0.76027203
v -0.62060475 0.96373022 0.78060395
v -0.51954782 1.03899992 0.84058166
v 0.00019134 0.48006546 0.91827005
v -0.13189207 0.52514303 0.92703092
v -0.13183109 0.39893463 0.86989808
v -0.13311043 0.80043572 0.98877287
v -0.13288401 0.66279942 0.96832097
v 0.00004851 0.74483687 0.99180472
v -0.38532290 0.50852817 0.84716398
v -0.26471063 0.58201480 0.91878569
v -0.38691387 0.64441705 0.89289892
v -0.39992484 0.96491933 0.91366428
v -0.40013713 0.80047166 0.91425753
v -0.26661345 0.88266784 0.96490431
v -0.92530292 0.75106353 0.35854390
v -0.86596781 0.75144845 0.48490041
v -0.98886794 0.74966830 0.08239055
v -0.96748424 0.74989206 0.22039825
v -0.84674037 0.49973533 0.37626094
v -0.91767770 0.61879885 0.30180573
v -0.89354521 0.49722302 0.23931316
v -0.86591309 0.75158459 -0.48506057
v -0.92547292 0.75109488 -0.35874650
v -0.89405280 0.49730358 -0.23948494
v -0.91801530 0.61897796 -0.30175596
v -0.84661394 0.49978375 -0.37611201
v -0.96768606 0.74993944 -0.22040880
v -0.98891443 0.74959892 -0.08234283
v -0.63108206 0.10083117 0.08187050
v -0.71505314 0.17360373 0.00027288
v -0.63151562 0.10239509 -0.08342616
v -0.84533209 0.36500639 0.15704179
v -0.78890669 0.26404357 0.08220242
v -0.76723897 0.27712896 0.23904333
v -0.76702213 0.27697706 -0.23967618
v -0.79001158 0.26376629 -0.08198570
v -0.84562808 0.36467940 -0.15766940
v -0.96563542 0.61662048 0.00001903
v -0.91598004 0.48398864 -0.08277991
v -0.91617364 0.48404843 0.08238511
v -0.71182668 0.88268626 -0.70347309
v -0.78466862 0.80162996 -0.61635667
v -0.51960188 1.03885555 -0.84060180
v -0.62064195 0.96366942 -0.78064603
v -0.60800463 0.64591181 -0.76019120
v -0.62086463 0.80154473 -0.78105533
v -0.51991379 0.72627598 -0.84129804
v 0.00003457 1.28584635 -0.91533196
v -0.13166976 1.24075258 -0.92465740
v -0.13318974 0.96484613 -0.98834080
v -0.13285916 1.10267961 -0.96690398
v -0.00001802 1.02058852 -0.99108279
v -0.26418740 1.18377781 -0.91669422
v -0.38642099 1.12122393 -0.89145142
v -0.13207586 0.39896625 -0.87024677
v -0.13223651 0.52501994 -0.92721325
v 0.00003557 0.48032415 -0.91873652
v -0.38674912 0.64420104 -0.89258790
v -0.26467532 0.58194023 -0.91846746
v -0.38499665 0.50823689 -0.84699976
v 0.00000898 0.74490970 -0.99176306
v -0.13295138 0.66283941 -0.96769214
v -0.13322301 0.80048108 -0.98870093
v -0.39990219 0.96495485 -0.91369754
v -0.26662028 0.88263547 -0.96459919
v -0.40006652 0.80041778 -0.91406965
v 0.21308842 1.45363700 -0.79281759
v 0.13125628 1.36686289 -0.86515319
v 0.37182999 1.58947146 -0.60161340
v 0.29607359 1.52978492 -0.70245028
v 0.38373926 1.25745320 -0.84414935
v 0.34624472 1.39848626 -0.78361607
v 0.46855661 1.33639276 -0.75811893
v 0.61573470 1.66621339 -0.08110423
v 0.57134497 1.67502868 -0.21305349
v 0.70727646 1.48389292 -0.37181494
v 0.64753717 1.58468664 -0.29605523
v 0.75882095 1.48920512 -0.23712851
v 0.51621008 1.66581285 -0.34619561
v 0.45406774 1.64030993 -0.46852332
v 0.78435665 0.96375179 -0.61604917
v 0.79308850 1.09562385 -0.57158381
v 0.86547774 1.01382995 -0.48476741
v 0.60169166 1.25418591 -0.70731324
v 0.70257974 1.17843854 -0.64767462
v 0.60709596 1.11962140 -0.75901556
v 0.84415066 1.26604378 -0.37515044
v 0.78376800 1.22862768 -0.51631737
v 0.75811666 1.35086167 -0.45411003
v 0.51347351 1.52893066 -0.56436616
v 0.64671361 1.44664836 -0.51349169
v 0.56439757 1.39577723 -0.64673233
v 0.63080937 0.10250980 0.08386068
v 0.58759338 0.09354933 0.21999848
v 0.50383705 0.03021788 0.13556914
v 0.71471113 0.28280792 0.37567359
v 0.65933019 0.18234296 0.30107811
v 0.76696765 0.27685252 0.23924789
v 0.38859734 0.04628925 0.39421511
v 0.53040642 0.10279793 0.35587138
v 0.46611777 0.12720811 0.48021978
v 0.78466749 0.80160373 0.61629665
v 0.79409653 0.66991723 0.57222950
v 0.86603200 0.75154376 0.48501346
v 0.60354227 0.51176196 0.70942491
v 0.70410508 0.58727926 0.64892465
v 0.60811114 0.64601845 0.76013333
v 0.84637505 0.49980828 0.37622443
v 0.78548396 0.53723365 0.51724637
v 0.76160669 0.41493422 0.45632991
v 0.08163250 0.26828265 0.79160196
v 0.21491766 0.31313011 0.79993725
v 0.13177204 0.39930463 0.86963385
v 0.37779194 0.17635378 0.61256057
v 0.29981369 0.23734108 0.71212798
v 0.24355590 0.12663466 0.62007970
v 0.38454974 0.50844437 0.84686536
v 0.34851539 0.36794749 0.78856599
v 0.47066274 0.42986888 0.76177186
v 0.65232950 0.31944004 0.51826823
v 0.56811595 0.37061232 0.65114099
v 0.51985413 0.23801675 0.57255632
v 0.37301821 0.00000000 0.13615781
v 0.41540176 0.00030554 0.00248028
v 0.24846993 0.01216803 0.39947987
v 0.31409016 0.00000000 0.27211419
v 0.14396101 0.00000000 -0.00173000
v 0.22945476 0.00000000 0.13913776
v 0.08781165 0.00000000 0.13636957
v -0.08264796 0.26800698 0.79161155
v 0.00032628 0.18149817 0.72317690
v -0.16163546 0.05021456 0.53544849
v -0.08362346 0.10663614 0.63626105
v -0.24210735 0.12626265 0.61824697
v 0.08380391 0.10431539 0.63763583
v 0.16267246 0.04986951 0.53673249
v -0.42139399 0.00000000 0.00232761
v -0.37688082 0.00042669 0.14037110
v -0.50284404 0.02949823 0.13461384
v -0.08720899 0.00000000 0.13578470
v -0.23373082 0.00000000 0.14455941
v -0.14688073 0.00000000 -0.00094458
v -0.38493335 0.04447540 0.39347389
v -0.31317279 0.00000000 0.27739665
v -0.24854572 0.00872931 0.40062857
v 0.08263204 0.00213313 0.41703299
v -0.08631378 0.00022411 0.41741899
v 0.00104770 0.00000000 0.27432573
v 0.37259239 0.00000000 -0.13704722
v 0.49916694 0.03070992 -0.13520464
v 0.08648483 0.00000000 -0.14176048
v 0.23285735 0.00000000 -0.13843329
v 0.38727340 0.04581956 -0.39755443
v 0.31240878 0.00000000 -0.27552372
v 0.24802822 0.00903887 -0.40012705
v -0.50099754 0.03112453 -0.13565017
v -0.37235495 0.00000000 -0.13599502
v -0.24742064 0.01502043 -0.39854169
v -0.31696776 0.00038585 -0.27158466
v -0.38660058 0.04686896 -0.39622447
v -0.23367222 0.00000000 -0.14121822
v -0.08789919 0.00000000 -0.14509879
v 0.08198153 0.26875868 -0.79260308
v 0.00005028 0.18006642 -0.72352594
v -0.08163512 0.26805899 -0.79188216
v 0.16143695 0.04862204 -0.53545070
v 0.08261464 0.10617362 -0.63346553
v 0.24147555 0.12628414 -0.62223524
v -0.24217156 0.12820752 -0.62195742
v -0.08246294 0.10236271 -0.63633114
v -0.16189913 0.05184970 -0.53532678
v 0.00375785 0.00000000 -0.28247353
v -0.08324647 0.00041136 -0.41359386
v 0.08891321 0.00000000 -0.40940753
v 0.58698744 0.09238395 -0.21760161
v 0.63199806 0.10039196 -0.08224408
v 0.46534589 0.12600270 -0.47879127
v 0.52765936 0.10036878 -0.35335031
v 0.76762503 0.27705666 -0.23990941
v 0.65820104 0.18108074 -0.30100694
v 0.71451020 0.28284499 -0.37525514
v 0.13238393 0.39923477 -0.87082160
v 0.21527004 0.31289831 -0.79930949
v 0.47075576 0.42969000 -0.76137573
v 0.34867519 0.36755586 -0.78836781
v 0.38502070 0.50829750 -0.84668428
v 0.29962134 0.23658881 -0.71109545
v 0.37765515 0.17662774 -0.61190104
v 0.86607444 0.75182635 -0.48513168
v 0.79395145 0.67023677 -0.57232815
v 0.78471053 0.80184662 -0.61642021
v 0.76231086 0.41558895 -0.45674977
v 0.78563416 0.53748578 -0.51772833
v 0.84728372 0.50037128 -0.37646016
v 0.60798138 0.64597499 -0.76009047
v 0.70388496 0.58726287 -0.64893818
v 0.60331750 0.51184255 -0.70928627
v 0.51917511 0.23647448 -0.57153153
v 0.56766582 0.37039927 -0.65057379
v 0.65157759 0.32010135 -0.51766062
v 0.71582198 0.17230451 -0.00031805
v 0.84592289 0.36454964 -0.15745759
v 0.78905821 0.26319292 -0.08232618
v 0.78958499 0.26307413 0.08145443
v 0.84575033 0.36395401 0.15713347
v 0.91583610 0.88275433 -0.40371859
v 0.92547655 0.75117505 -0.35867089
v 0.98892242 0.74978751 -0.08230244
v 0.96767914 0.75011069 -0.22036970
v 0.99136311 0.88278806 -0.13806997
v 0.91810876 0.61897761 -0.30178386
v 0.89445007 0.49747306 -0.23939170
v 0.92525291 0.75099707 0.35856754
v 0.91568065 0.88252175 0.40360740
v 0.89387101 0.49720919 0.23923221
v 0.91768295 0.61873317 0.30159277
v 0.99117845 0.88260448 0.13819453
v 0.96729320 0.74983847 0.22029842
v 0.98893034 0.74977398 0.08235028
v 0.91612327 0.48388052 -0.08243772
v 0.96533090 0.61664784 0.00005241
v 0.91595095 0.48360899 0.08255336
v 0.13201863 0.52521151 0.92731112
v 0.38695452 0.64436567 0.89246786
v 0.26465490 0.58205056 0.91849327
v 0.13303183 0.66287577 0.96808475
v 0.13326032 0.80040425 0.98874062
v 0.71190315 0.88265967 0.70340979
v 0.51966411 1.03898752 0.84065956
v 0.62068218 0.96362585 0.78062153
v 0.62097800 0.80161369 0.78096050
v 0.52008051 0.72645718 0.84135413
v 0.13169983 1.24056637 0.92463857
v 0.13319860 0.96471995 0.98841482
v 0.13284585 1.10253930 0.96694356
v 0.26421413 1.18368745 0.91675407
v 0.38640696 1.12112164 0.89146322
v 0.39995202 0.80029947 0.91365898
v 0.39995691 0.96488458 0.91368860
v 0.26664171 0.88251179 0.96462429
v -0.58491355 0.09406286 0.21770877
v -0.46288458 0.12527399 0.47774306
v -0.52795249 0.10193162 0.35483682
v -0.65883625 0.18169777 0.30147487
v -0.71387798 0.28210607 0.37570754
v -0.21578634 0.31289226 0.80012202
v -0.47158039 0.42955267 0.76229197
v -0.34915581 0.36799717 0.78934556
v -0.30039921 0.23682211 0.71110910
v -0.37837529 0.17662923 0.61198664
v -0.79402465 0.66985303 0.57209229
v -0.76189083 0.41469675 0.45636752
v -0.78566474 0.53676265 0.51743776
v -0.70430869 0.58710265 0.64879030
v -0.60382205 0.51148748 0.70992851
v -0.52058536 0.23650087 0.57117283
v -0.56870514 0.36971840 0.65110946
v -0.65151674 0.31900334 0.51754594
v -0.21469396 0.31229073 -0.79942667
v -0.37889701 0.17798874 -0.61240226
v -0.30042210 0.23555979 -0.71327710
v -0.34833765 0.36756185 -0.78924143
v -0.47089392 0.42960867 -0.76203144
v -0.58776402 0.09452756 -0.21827619
v -0.71528065 0.28248307 -0.37559801
v -0.65951645 0.18213174 -0.30133319
v -0.52930051 0.10226043 -0.35454881
v -0.46641108 0.12766124 -0.47968769
v -0.79398775 0.66985017 -0.57217908
v -0.60340840 0.51177764 -0.70941764
v -0.70416373 0.58706260 -0.64912248
v -0.78594154 0.53713799 -0.51776713
v -0.76172936 0.41542819 -0.45621294
v -0.52058542 0.23780027 -0.57171690
v -0.65257478 0.31933156 -0.51822603
v -0.56805313 0.37026849 -0.65147060
v 0.71188706 0.88273501 -0.70355344
v 0.51999354 0.72644037 -0.84137076
v 0.62088579 0.80171955 -0.78109628
v 0.62063915 0.96377242 -0.78071141
v 0.51951551 1.03894448 -0.84059024
v 0.13226391 0.52543718 -0.92761999
v 0.13319989 0.80050337 -0.98865968
v 0.13310124 0.66306216 -0.96837014
v 0.26483625 0.58203149 -0.91868061
v 0.38693881 0.64436615 -0.89269084
v 0.13172778 1.24068677 -0.92461681
v 0.38636860 1.12112617 -0.89132214
v 0.26420709 1.18370569 -0.91654646
v 0.13287248 1.10266519 -0.96687829
v 0.13311912 0.96487927 -0.98845464
v 0.40005508 0.80044776 -0.91396666
v 0.26660705 0.88270354 -0.96462595
v 0.39988500 0.96481168 -0.91350418
v 0.92476779 1.01410818 0.35840097
v 0.98826569 1.01560616 0.08240566
v 0.96682036 1.01523721 0.22025202
v 0.91670495 1.14656353 0.30141008
v 0.89135307 1.26865518 0.23872827
v 0.92488015 1.01423311 -0.35844880
v 0.89126790 1.26861227 -0.23875037
v 0.91663063 1.14658189 -0.30138448
v 0.96699226 1.01537979 -0.22030148
v 0.98833179 1.01569569 -0.08222187
v 0.70304656 1.59367204 -0.00001535
v 0.84039444 1.40168500 0.15645377
v 0.78036976 1.50263262 0.08114741
v 0.78036267 1.50261462 -0.08115273
v 0.84039217 1.40164220 -0.15646741
v 0.96430337 1.14889812 0.00002038
v 0.91326612 1.28201389 -0.08235832
v 0.91329569 1.28203630 0.08234160
f 330 87 329
f 336 325 26
f 207 208 56
f 464 36 580
f 502 129 504
f 157 624 622
f 308 311 82
f 247 223 248
f 507 483 508
f 331 88 329
f 494 500 497
f 156 601 602
f 591 589 592
f 365 98 596
f 75 281 282
f 152 587 577
f 149 559 560
f 555 121 553
f 530 141 529
f 515 517 139
f 361 594 98
f 250 67 249
f 157 608 609
f 294 293 209
f 317 81 316
f 557 338 26
f 303 305 81
f 530 529 528
f 101 381 382
f 415 418 111
f 192 184 50
f 412 110 411
f 20 384 256
f 131 594 486
f 281 264 282
f 347 287 348
f 28 349 582
f 165 163 1
f 248 250 66
f 617 107 398
f 273 271 274
f 456 115 453
f 558 561 560
f 335 576 91
f 331 177 332
f 116 433 436
f 351 370 92
f 136 511 530
f 239 240 65
f 247 258 19
f 304 23 567
f 148 557 570
f 214 208 58
f 440 426 450
f 268 270 269
f 258 247 268
f 204 202 16
f 466 125 465
f 517 513 133
f 168 275 274
f 275 73 274
f 198 193 53
f 309 308 307
f 510 511 136
f 415 416 110
f 131 490 597
f 473 475 474
f 414 415 111
f 493 495 494
f 496 504 485
f 433 116 432
f 600 375 601
f 240 234 65
f 418 415 412
f 486 361 3
f 567 566 304
f 380 393 29
f 17 199 197
f 491 492 132
f 451 449 435
f 218 217 216
f 623 621 613
f 396 104 395
f 433 439 436
f 628 160 627
f 215 202 217
f 209 207 2
f 427 113 424
f 434 10 544
f 434 433 432
f 199 17 210
f 150 564 565
f 489 491 132
f 275 13 285
f 497 500 134
f 125 466 476
f 578 152 577
f 208 214 211
f 328 88 343
f 356 27 603
f 150 566 567
f 372 100 371
f 190 191 47
f 235 8 398
f 260 261 72
f 422 403 414
f 422 414 111
f 453 454 123
f 349 583 582
f 521 520 519
f 425 453 115
f 616 622 158
f 483 130 508
f 151 586 572
f 212 17 232
f 400 397 402
f 377 396 99
f 41 522 511
f 510 508 505
f 549 547 42
f 475 473 36
f 510 137 509
f 222 221 197
f 430 115 429
f 220 194 1
f 305 54 204
f 621 29 613
f 192 171 184
f 460 335 5
f 88 331 332
f 74 277 279
f 300 301 80
f 390 389 388
f 165 45 164
f 146 549 551
f 291 278 75
f 448 120 445
f 147 543 544
f 607 610 609
f 603 602 356
f 139 529 514
f 333 553 443
f 92 368 347
f 261 260 259
f 300 6 200
f 46 177 331
f 284 283 174
f 301 300 200
f 471 468 474
f 54 305 301
f 302 304 303
f 569 150 567
f 150 569 570
f 294 209 2
f 628 629 160
f 548 543 147
f 147 625 627
f 63 233 234
f 426 427 114
f 41 509 532
f 198 52 196
f 614 105 612
f 147 627 547
f 81 305 306
f 549 548 547
f 54 301 200
f 342 88 332
f 264 281 70
f 193 194 53
f 455 429 456
f 187 321 14
f 479 130 484
f 147 544 625
f 458 456 453
f 304 80 303
f 314 84 313
f 488 503 501
f 321 332 14
f 423 425 424
f 305 204 306
f 341 339 25
f 514 40 516
f 625 628 627
f 340 339 341
f 105 614 391
f 243 228 62
f 318 316 78
f 75 278 279
f 357 355 353
f 238 257 63
f 466 455 476
f 425 423 4
f 448 449 120
f 408 638 108
f 292 275 285
f 22 278 289
f 515 513 517
f 501 503 134
f 622 623 158
f 134 503 504
f 195 216 206
f 163 271 246
f 619 617 620
f 62 228 229
f 163 165 164
f 453 425 454
f 489 132 488
f 82 628 625
f 58 208 209
f 525 608 40
f 626 547 627
f 518 517 498
f 489 487 491
f 557 26 564
f 325 336 344
f 541 145 539
f 40 616 516
f 338 556 89
f 250 248 245
f 139 514 515
f 98 594 596
f 246 220 1
f 112 413 630
f 9 536 413
f 156 600 601
f 332 177 14
f 321 342 332
f 156 606 600
f 584 330 585
f 302 303 81
f 584 87 330
f 330 25 585
f 400 239 65
f 439 440 117
f 95 358 368
f 597 594 131
f 594 361 486
f 246 67 245
f 561 562 149
f 28 364 362
f 55 216 217
f 427 430 114
f 267 20 254
f 556 555 553
f 84 309 558
f 311 310 312
f 609 525 142
f 256 68 255
f 124 460 461
f 82 311 312
f 307 308 82
f 589 135 495
f 527 40 514
f 112 418 412
f 20 256 254
f 258 238 19
f 267 254 269
f 273 272 249
f 392 391 393
f 137 533 509
f 122 455 456
f 9 413 411
f 130 480 505
f 333 443 5
f 527 525 40
f 589 495 385
f 39 496 485
f 223 225 224
f 414 416 415
f 219 222 53
f 145 538 539
f 413 412 411
f 469 468 467
f 183 181 6
f 191 192 50
f 429 35 431
f 292 285 76
f 413 112 412
f 415 110 412
f 43 164 167
f 467 468 126
f 617 101 620
f 450 451 117
f 438 546 545
f 619 620 159
f 17 212 210
f 124 579 576
f 584 153 583
f 460 124 576
f 3 469 467
f 311 308 314
f 6 320 183
f 389 104 388
f 251 250 249
f 194 165 1
f 291 289 278
f 287 77 348
f 238 258 257
f 139 517 518
f 238 236 19
f 223 247 19
f 382 380 29
f 39 518 498
f 361 359 3
f 69 255 257
f 139 518 528
f 33 545 535
f 387 385 7
f 69 268 269
f 477 462 125
f 454 479 123
f 121 555 447
f 451 435 117
f 454 425 4
f 233 252 8
f 124 463 464
f 69 258 268
f 168 167 166
f 583 153 582
f 384 394 102
f 138 512 513
f 57 210 211
f 254 256 255
f 607 609 142
f 324 319 86
f 289 291 76
f 291 292 76
f 384 102 383
f 422 421 420
f 221 17 197
f 383 102 381
f 376 377 99
f 99 373 374
f 386 105 392
f 438 33 440
f 90 341 343
f 281 75 279
f 574 571 96
f 628 82 312
f 221 222 59
f 127 471 474
f 595 605 603
f 551 538 145
f 334 91 340
f 322 324 85
f 305 303 301
f 18 239 399
f 306 204 16
f 199 198 197
f 166 190 180
f 303 80 301
f 267 266 265
f 626 42 547
f 16 215 213
f 349 351 350
f 295 16 213
f 68 379 252
f 250 251 66
f 627 160 626
f 383 68 256
f 343 88 342
f 507 508 136
f 202 215 16
f 197 198 53
f 254 69 269
f 603 605 156
f 418 419 111
f 384 383 256
f 455 122 476
f 203 204 54
f 556 557 148
f 255 68 253
f 313 84 560
f 25 328 341
f 254 255 69
f 603 156 602
f 581 584 583
f 630 632 112
f 163 246 1
f 246 245 220
f 432 116 558
f 499 591 590
f 320 563 86
f 345 93 350
f 306 16 295
f 346 93 345
f 562 568 149
f 604 605 155
f 154 592 593
f 545 552 535
f 511 522 530
f 574 573 571
f 566 150 565
f 361 98 360
f 67 271 273
f 234 235 65
f 208 211 56
f 574 151 573
f 251 270 66
f 398 8 378
f 213 215 214
f 438 440 439
f 315 314 313
f 263 71 262
f 20 373 384
f 496 134 504
f 329 88 328
f 81 306 316
f 555 556 148
f 592 589 103
f 617 619 107
f 227 207 56
f 571 359 96
f 446 466 465
f 206 216 55
f 359 571 469
f 568 148 570
f 34 437 435
f 28 351 349
f 21 272 282
f 113 423 424
f 490 489 488
f 379 68 383
f 210 212 211
f 80 563 300
f 351 92 350
f 326 346 12
f 83 317 318
f 555 148 554
f 212 231 56
f 218 57 217
f 271 67 246
f 195 196 52
f 270 268 66
f 390 592 103
f 148 568 554
f 495 493 7
f 592 390 593
f 357 95 355
f 574 575 151
f 452 120 451
f 154 591 592
f 587 585 577
f 395 394 396
f 93 349 350
f 610 416 611
f 166 44 190
f 315 23 302
f 315 302 317
f 268 247 66
f 606 154 593
f 396 394 99
f 211 212 56
f 370 369 368
f 235 397 65
f 280 278 22
f 83 315 317
f 575 588 151
f 74 279 280
f 385 495 7
f 63 257 253
f 397 235 398
f 214 58 213
f 220 219 194
f 546 146 545
f 236 225 19
f 599 94 602
f 235 233 8
f 102 394 395
f 611 416 32
f 225 223 19
f 139 528 529
f 231 62 229
f 419 406 421
f 451 450 452
f 49 182 185
f 402 397 107
f 52 199 218
f 416 610 110
f 225 236 244
f 107 397 398
f 68 252 253
f 322 85 321
f 182 181 183
f 118 438 439
f 546 438 118
f 348 77 345
f 543 546 118
f 231 212 232
f 610 611 157
f 33 438 545
f 385 386 103
f 479 480 130
f 169 195 15
f 93 583 349
f 15 195 206
f 190 44 192
f 247 248 66
f 146 552 545
f 248 60 245
f 570 557 564
f 274 271 43
f 63 253 233
f 272 21 249
f 507 528 518
f 67 273 249
f 487 467 126
f 196 195 169
f 624 159 623
f 134 496 497
f 132 503 488
f 104 393 395
f 556 553 89
f 355 356 94
f 258 69 257
f 229 61 227
f 56 231 227
f 460 576 335
f 463 124 461
f 394 373 99
f 29 393 391
f 67 250 245
f 193 198 196
f 462 36 464
f 144 633 630
f 141 526 527
f 517 133 498
f 536 144 630
f 100 372 599
f 144 536 537
f 22 289 287
f 578 579 152
f 579 578 576
f 189 188 187
f 60 223 224
f 92 348 350
f 555 554 447
f 396 377 388
f 194 193 165
f 413 536 630
f 372 352 599
f 377 376 375
f 348 345 350
f 105 386 387
f 240 237 234
f 463 462 464
f 135 500 494
f 45 196 169
f 512 612 387
f 245 60 220
f 429 115 456
f 223 60 248
f 288 289 76
f 525 526 142
f 100 599 601
f 613 29 391
f 526 523 520
f 341 328 343
f 631 641 639
f 264 21 282
f 266 72 265
f 106 402 403
f 73 273 274
f 186 206 205
f 381 379 383
f 52 216 195
f 410 18 399
f 290 272 73
f 72 371 374
f 526 525 527
f 115 430 424
f 498 497 496
f 621 382 29
f 543 118 434
f 214 215 57
f 522 141 530
f 511 510 509
f 352 94 599
f 493 512 7
f 90 340 341
f 169 171 170
f 605 604 606
f 219 60 224
f 104 389 392
f 359 469 3
f 186 49 185
f 222 219 224
f 166 167 44
f 428 427 426
f 523 522 524
f 129 502 481
f 50 185 188
f 164 45 170
f 425 115 424
f 33 428 426
f 427 428 113
f 94 356 602
f 515 138 513
f 114 431 452
f 237 236 238
f 215 217 57
f 95 354 355
f 220 60 219
f 515 514 516
f 183 320 319
f 222 197 53
f 559 569 567
f 300 320 6
f 435 436 117
f 96 360 363
f 640 642 641
f 242 243 62
f 140 537 519
f 508 130 505
f 420 410 399
f 537 539 144
f 317 316 318
f 426 114 450
f 186 15 206
f 311 83 310
f 625 544 307
f 544 10 307
f 168 43 167
f 185 182 188
f 369 354 95
f 44 171 192
f 605 606 156
f 548 549 146
f 100 601 375
f 149 568 569
f 381 380 382
f 455 466 35
f 480 479 454
f 543 548 546
f 493 133 513
f 492 472 37
f 477 125 476
f 491 487 126
f 337 336 338
f 588 153 587
f 576 578 91
f 633 161 632
f 96 359 360
f 39 485 483
f 101 617 378
f 193 45 165
f 163 164 43
f 618 624 611
f 507 136 528
f 561 149 560
f 641 162 639
f 116 561 558
f 494 133 493
f 253 252 233
f 63 237 238
f 392 393 104
f 440 450 117
f 93 581 583
f 386 385 387
f 120 449 451
f 421 422 111
f 486 3 467
f 302 81 317
f 633 632 630
f 462 475 36
f 376 99 374
f 489 490 131
f 447 449 448
f 387 612 105
f 106 420 399
f 173 46 172
f 492 491 472
f 316 306 295
f 22 287 347
f 109 410 420
f 507 39 483
f 559 23 313
f 214 57 211
f 196 45 193
f 10 434 432
f 422 106 403
f 626 160 640
f 487 486 467
f 542 41 532
f 400 106 399
f 444 120 452
f 198 199 52
f 475 127 474
f 621 620 382
f 621 623 159
f 450 114 452
f 92 347 348
f 376 100 375
f 434 118 433
f 503 132 502
f 337 90 336
f 537 536 519
f 395 393 380
f 201 54 200
f 171 44 170
f 355 94 353
f 58 296 213
f 422 420 106
f 595 365 596
f 569 568 570
f 523 140 520
f 114 430 431
f 218 210 57
f 304 566 80
f 639 162 638
f 261 371 72
f 548 147 547
f 498 133 497
f 150 570 564
f 222 224 59
f 142 526 520
f 437 436 435
f 141 522 523
f 137 510 505
f 173 179 176
f 559 149 569
f 121 447 448
f 563 320 300
f 102 395 380
f 257 255 253
f 642 162 641
f 83 311 314
f 216 52 218
f 512 493 513
f 23 304 302
f 91 339 340
f 512 138 612
f 159 620 621
f 218 199 210
f 364 28 575
f 83 318 310
f 168 274 43
f 136 530 528
f 140 523 524
f 495 135 494
f 233 235 234
f 566 563 80
f 25 339 577
f 277 74 276
f 475 462 477
f 133 494 497
f 436 437 116
f 389 386 392
f 548 146 546
f 441 460 5
f 10 309 307
f 65 397 400
f 543 434 544
f 640 641 161
f 272 273 73
f 581 93 346
f 419 421 111
f 319 320 86
f 180 179 178
f 127 475 477
f 231 229 227
f 337 334 340
f 136 508 510
f 308 309 84
f 237 63 234
f 447 554 34
f 252 379 378
f 315 83 314
f 608 622 616
f 338 336 26
f 337 338 89
f 13 275 168
f 209 208 207
f 436 439 117
f 628 312 629
f 360 366 363
f 364 574 96
f 359 361 360
f 466 446 35
f 500 501 134
f 406 109 421
f 135 589 591
f 601 599 602
f 340 90 337
f 481 492 37
f 522 41 524
f 78 316 295
f 131 486 487
f 403 32 414
f 634 626 640
f 151 572 573
f 515 516 138
f 8 252 378
f 265 72 374
f 9 521 519
f 538 549 42
f 368 358 347
f 588 587 586
f 458 453 123
f 589 385 103
f 502 492 481
f 32 416 414
f 430 427 424
f 153 585 587
f 540 144 539
f 370 368 92
f 209 293 58
f 428 33 535
f 326 581 346
f 625 307 82
f 575 28 582
f 6 181 200
f 421 109 420
f 553 121 443
f 160 642 640
f 153 584 585
f 309 432 558
f 334 337 89
f 23 315 313
f 271 163 43
f 296 295 213
f 39 498 496
f 118 439 433
f 531 113 534
f 293 296 58
f 28 362 351
f 489 131 487
f 431 444 452
f 84 558 560
f 98 366 360
f 45 169 170
f 379 101 378
f 462 463 125
f 308 84 314
f 10 432 309
f 299 24 310
f 132 492 502
f 512 387 7
f 639 638 408
f 565 323 86
f 59 244 242
f 106 400 402
f 440 33 426
f 566 565 563
f 617 398 378
f 224 225 59
f 410 109 409
f 239 400 399
f 194 219 53
f 358 22 347
f 610 157 609
f 27 595 603
f 479 484 482
f 142 520 521
f 585 25 577
f 339 578 577
f 408 407 406
f 407 109 406
f 31 408 406
f 407 408 108
f 31 639 408
f 419 31 406
f 608 616 40
f 430 429 431
f 455 35 429
f 35 444 431
f 188 51 187
f 188 182 51
f 51 322 187
f 322 51 319
f 51 182 183
f 319 51 183
f 187 322 321
f 322 319 324
f 381 101 379
f 405 407 108
f 404 405 108
f 286 285 178
f 407 405 409
f 109 407 409
f 191 175 47
f 167 164 170
f 50 184 185
f 44 167 170
f 64 244 236
f 243 244 64
f 50 188 189
f 541 542 145
f 442 445 119
f 339 91 578
f 445 446 119
f 624 623 622
f 611 624 157
f 523 526 141
f 141 527 529
f 527 514 529
f 445 120 444
f 446 445 444
f 35 446 444
f 613 614 158
f 158 614 615
f 623 613 158
f 614 613 391
f 614 612 615
f 371 376 374
f 100 376 371
f 479 482 123
f 373 394 384
f 540 42 634
f 633 540 634
f 538 42 540
f 633 634 161
f 161 634 640
f 42 626 634
f 540 633 144
f 557 556 338
f 553 333 89
f 262 21 264
f 251 21 262
f 5 335 333
f 270 251 262
f 21 251 249
f 600 593 30
f 606 593 600
f 600 30 375
f 593 390 30
f 30 377 375
f 390 388 30
f 30 388 377
f 228 243 241
f 470 478 459
f 470 127 478
f 127 477 478
f 184 186 185
f 478 477 476
f 122 478 476
f 357 74 280
f 518 39 507
f 344 342 85
f 325 344 85
f 342 344 343
f 85 342 321
f 344 90 343
f 90 344 336
f 482 129 481
f 482 481 457
f 482 457 123
f 481 37 457
f 449 447 34
f 435 449 34
f 470 472 471
f 472 470 37
f 470 471 127
f 472 126 471
f 126 468 471
f 470 459 37
f 491 126 472
f 504 129 485
f 221 59 242
f 125 463 465
f 437 34 562
f 561 437 562
f 554 568 562
f 34 554 562
f 437 561 116
f 390 103 389
f 103 386 389
f 392 105 391
f 572 586 580
f 572 580 36
f 586 152 580
f 473 572 36
f 244 243 242
f 225 244 59
f 64 240 241
f 240 239 241
f 237 240 64
f 243 64 241
f 236 237 64
f 411 607 521
f 9 411 521
f 110 607 411
f 607 142 521
f 610 607 110
f 171 15 184
f 171 169 15
f 15 186 184
f 87 584 581
f 153 588 582
f 588 575 582
f 381 102 380
f 573 572 473
f 468 469 128
f 474 468 128
f 469 571 128
f 571 573 128
f 573 473 128
f 473 474 128
f 564 323 565
f 26 323 564
f 323 324 86
f 325 323 26
f 325 324 323
f 563 565 86
f 324 325 85
f 410 230 18
f 230 228 18
f 18 228 241
f 18 241 239
f 401 619 618
f 401 402 107
f 403 402 401
f 619 159 618
f 401 618 32
f 619 401 107
f 403 401 32
f 618 611 32
f 159 624 618
f 478 122 459
f 122 458 459
f 37 459 457
f 459 458 457
f 122 456 458
f 457 458 123
f 191 190 192
f 485 129 484
f 129 482 484
f 483 485 484
f 130 483 484
f 189 187 14
f 191 50 189
f 191 189 175
f 189 14 175
f 14 177 175
f 499 501 500
f 501 499 38
f 38 499 590
f 135 499 500
f 488 501 38
f 499 135 591
f 480 454 4
f 284 12 346
f 4 423 506
f 480 4 506
f 423 531 506
f 480 506 505
f 531 137 506
f 506 137 505
f 365 366 98
f 71 270 262
f 270 71 269
f 71 267 269
f 335 334 333
f 333 334 89
f 334 335 91
f 536 9 519
f 465 463 461
f 537 140 541
f 520 140 519
f 119 446 465
f 465 461 119
f 461 441 119
f 460 441 461
f 176 46 173
f 299 297 24
f 71 263 266
f 263 260 266
f 260 72 266
f 263 70 260
f 205 201 49
f 201 181 49
f 186 205 49
f 181 201 200
f 181 182 49
f 284 77 283
f 586 587 152
f 588 586 151
f 20 267 265
f 266 267 71
f 31 417 631
f 631 417 632
f 31 631 639
f 417 31 419
f 641 631 161
f 417 112 632
f 161 631 632
f 418 417 419
f 417 418 112
f 284 345 77
f 542 550 145
f 542 541 524
f 284 174 12
f 48 174 283
f 373 20 265
f 373 265 374
f 609 608 525
f 608 157 622
f 560 559 313
f 636 637 162
f 541 140 524
f 41 542 524
f 358 357 280
f 70 263 264
f 263 262 264
f 176 177 46
f 174 48 173
f 174 173 172
f 538 551 549
f 538 540 539
f 537 541 539
f 232 221 242
f 17 221 232
f 232 242 62
f 231 232 62
f 203 205 55
f 203 55 202
f 201 205 203
f 202 55 217
f 205 206 55
f 204 203 202
f 73 275 292
f 292 290 73
f 272 290 282
f 290 292 291
f 75 290 291
f 290 75 282
f 70 277 259
f 277 70 281
f 277 281 279
f 260 70 259
f 12 174 172
f 104 396 388
f 367 27 354
f 365 27 367
f 354 27 356
f 365 367 366
f 595 27 365
f 318 299 310
f 155 596 597
f 155 597 598
f 596 594 597
f 595 596 155
f 605 595 155
f 180 47 179
f 180 190 47
f 352 372 11
f 11 372 261
f 312 310 24
f 642 636 162
f 636 297 637
f 367 369 97
f 366 367 97
f 369 367 354
f 369 370 97
f 580 579 464
f 580 152 579
f 579 124 464
f 61 230 409
f 230 410 409
f 230 61 229
f 230 229 228
f 76 285 286
f 353 352 276
f 74 353 276
f 288 76 286
f 288 286 283
f 289 288 287
f 203 54 201
f 287 288 77
f 77 288 283
f 286 48 283
f 531 423 113
f 276 11 259
f 11 261 259
f 277 276 259
f 616 158 615
f 516 616 615
f 138 516 615
f 138 615 612
f 509 533 532
f 503 502 504
f 635 79 294
f 635 294 404
f 635 637 79
f 637 635 638
f 638 635 108
f 635 404 108
f 226 61 405
f 61 226 227
f 405 61 409
f 227 226 207
f 48 178 179
f 48 286 178
f 173 48 179
f 534 143 533
f 534 535 143
f 531 534 533
f 533 143 532
f 137 531 533
f 261 372 371
f 13 180 178
f 285 13 178
f 180 13 166
f 13 168 166
f 346 345 284
f 331 327 46
f 46 327 172
f 172 327 326
f 382 620 101
f 442 121 448
f 443 121 442
f 2 226 404
f 294 2 404
f 404 226 405
f 207 226 2
f 550 551 145
f 552 146 551
f 143 550 532
f 552 550 143
f 330 329 328
f 24 636 629
f 94 352 353
f 352 11 276
f 113 428 534
f 428 535 534
f 509 41 511
f 535 552 143
f 550 552 551
f 550 542 532
f 369 95 368
f 326 327 87
f 87 327 329
f 327 331 329
f 581 326 87
f 293 79 298
f 79 297 298
f 296 298 78
f 79 293 294
f 296 293 298
f 598 490 38
f 358 280 22
f 280 279 278
f 357 358 95
f 74 357 353
f 330 328 25
f 567 23 559
f 590 598 38
f 590 604 598
f 598 604 155
f 604 590 154
f 590 591 154
f 604 154 606
f 297 299 298
f 299 318 78
f 298 299 78
f 355 354 356
f 629 636 642
f 312 24 629
f 629 642 160
f 370 362 97
f 362 363 97
f 363 366 97
f 364 363 362
f 362 370 351
f 96 363 364
f 297 636 24
f 162 637 638
f 637 297 79
f 490 488 38
f 598 597 490
f 441 442 119
f 443 442 441
f 443 441 5
f 442 448 445
f 296 78 295
f 326 12 172
f 575 574 364
f 47 175 176
f 175 177 176
f 47 176 179
