# FEM surface export ¡ª frame 264
# Vertices: 642  Faces: 1280
v -0.52672851 1.52115357 0.00001650
v 0.52656722 1.52027214 0.00009733
v -0.59065920 0.00000000 -0.00248495
v 0.57961392 0.00000000 -0.00627545
v 0.00161622 0.18257347 0.89968926
v -0.00073590 1.20210421 0.85441703
v 0.00033487 0.18324536 -0.90304333
v 0.00005857 1.20100939 -0.85374296
v 0.86825329 0.68933791 -0.53652573
v 0.86678427 0.68797988 0.53553522
v -0.86695153 0.69045550 -0.53692818
v -0.86704445 0.69078654 0.53621918
v -0.81270200 1.17543542 0.31046709
v -0.50422770 0.98984104 0.81490421
v -0.30968612 1.47952342 0.50070590
v 0.30974948 1.47938061 0.50090975
v 0.00020221 1.66826534 -0.00006652
v 0.30966213 1.47938740 -0.50085986
v -0.30936229 1.47998333 -0.50113153
v -0.50358278 0.98894519 -0.81574643
v -0.81265771 1.17670023 -0.31049964
v -1.01811612 0.68771672 -0.00096047
v 0.50481790 0.99027950 0.81644100
v 0.81255132 1.17470920 0.31009534
v -0.51859993 0.39266202 0.84403086
v -0.00023898 0.68863887 1.02033901
v -0.85651970 0.20790656 -0.32650343
v -0.85482109 0.21077035 0.32840484
v -0.00142515 0.69015372 -1.01965439
v -0.51896691 0.38811162 -0.83966398
v 0.81272662 1.17502892 -0.31021735
v 0.50328660 0.98801821 -0.81415063
v 0.85867989 0.20710495 0.32754806
v 0.52059692 0.39204761 0.84302139
v 0.34188631 0.00000000 0.55290145
v -0.34492698 0.00000000 0.55006510
v -0.00540978 0.00000000 0.00020610
v -0.34123063 0.00000000 -0.55063224
v 0.34264562 0.00000000 -0.55573869
v 0.51976079 0.38963830 -0.84316349
v 0.85841072 0.20861728 -0.32846674
v 1.02106285 0.68837923 -0.00025808
v -0.69570518 1.37431705 0.16117088
v -0.58949584 1.36073279 0.42652187
v -0.43482047 1.53270125 0.26024726
v -0.70991135 0.84577680 0.70148873
v -0.69176596 1.10250759 0.59066707
v -0.87024087 0.94163215 0.43743223
v -0.16114399 1.36624944 0.70344317
v -0.42693695 1.26199234 0.69018394
v -0.26172754 1.11188877 0.86742973
v -0.16249296 1.61990893 0.26322627
v -0.27341175 1.63082612 0.00001414
v 0.16094103 1.36580849 0.70359933
v 0.00018060 1.52039039 0.52644229
v 0.27366030 1.63038468 -0.00000370
v 0.16300595 1.62006414 0.26331681
v 0.43475679 1.53226256 0.26038826
v -0.16239214 1.61995077 -0.26332396
v -0.43462110 1.53314281 -0.26034293
v 0.43470109 1.53226960 -0.26029855
v 0.16278385 1.61979198 -0.26331785
v -0.16074479 1.36563659 -0.70367122
v 0.00042931 1.52046752 -0.52666062
v 0.16131157 1.36559653 -0.70382512
v -0.58918095 1.36092019 -0.42650867
v -0.69566596 1.37443244 -0.16109274
v -0.26123118 1.11042309 -0.86687541
v -0.42623961 1.26177335 -0.69046146
v -0.87049162 0.94227767 -0.43811423
v -0.69131351 1.10326874 -0.59118605
v -0.71062785 0.84563452 -0.70281088
v -0.85465878 1.20164049 0.00020935
v -0.98036319 0.68932396 -0.27973530
v -0.96018291 0.94513541 -0.16398527
v -0.95948964 0.94374466 0.16391210
v -0.97963029 0.68840194 0.27805015
v 0.58946168 1.35968184 0.42641088
v 0.69523299 1.37364280 0.16091643
v 0.26127923 1.11070871 0.86782700
v 0.42677584 1.26154459 0.69024444
v 0.87030780 0.93988758 0.43768007
v 0.69259584 1.10188794 0.59031099
v 0.71085995 0.84402174 0.70098442
v -0.26628560 0.84729087 0.96334839
v -0.00072448 0.95469445 0.97113812
v -0.72228283 0.53565967 0.71442091
v -0.53522408 0.69079852 0.86713111
v 0.00114020 0.42223853 0.99740016
v -0.26887494 0.53183568 0.97975749
v -0.27247983 0.26985583 0.90806413
v -0.98405170 0.43419656 0.16841988
v -0.89306682 0.43912280 0.44930932
v -0.89210087 0.43731689 -0.45049265
v -0.98509067 0.43413007 -0.17031877
v -0.75827688 0.03448570 0.17812073
v -0.90181673 0.18460158 0.00223782
v -0.75199157 0.03209083 -0.17108764
v -0.53604949 0.68824232 -0.86779654
v -0.72115934 0.53262717 -0.71324903
v -0.00037862 0.95501244 -0.97040224
v -0.26627204 0.84684485 -0.96360213
v -0.27554360 0.26703861 -0.90811449
v -0.27097940 0.52991778 -0.97744328
v -0.00070854 0.42517072 -0.99743509
v 0.42664111 1.26039290 -0.68983251
v 0.26161796 1.11019337 -0.86669421
v 0.69507015 1.37309492 -0.16095160
v 0.58922368 1.35926676 -0.42586732
v 0.71086377 0.84452146 -0.70215213
v 0.69175315 1.10216081 -0.59061277
v 0.87140661 0.94098407 -0.43782401
v 0.75835389 0.03109732 0.17467633
v 0.64056051 0.04056950 0.46133170
v 0.48030964 0.00000000 0.28218126
v 0.72313726 0.53418589 0.71569377
v 0.72353029 0.27778944 0.62019122
v 0.89267880 0.43578553 0.44935766
v 0.17433572 0.03851992 0.75579870
v 0.45649827 0.12694673 0.73748612
v 0.27412039 0.27188021 0.90706980
v 0.17693742 0.00000000 0.28870496
v 0.29493147 0.00000000 -0.00366727
v -0.17282473 0.03800894 0.75559944
v -0.00471265 0.00000000 0.58275604
v -0.30656528 0.00000000 -0.00049962
v -0.17874962 0.00000000 0.28555629
v -0.48750892 0.00000000 0.28683099
v 0.17492795 0.00000000 -0.28940403
v 0.46847716 0.00000000 -0.28305903
v -0.48029518 0.00000000 -0.29187456
v -0.18410927 0.00000000 -0.28892300
v 0.17680651 0.03928868 -0.76148289
v 0.00168326 0.00000000 -0.57613724
v -0.17406467 0.03964638 -0.76377380
v 0.64088005 0.04352731 -0.46197301
v 0.75305611 0.03533868 -0.17729551
v 0.27352557 0.26817197 -0.90619540
v 0.45439991 0.13083962 -0.73488677
v 0.89441061 0.43626559 -0.44944400
v 0.72431135 0.27913389 -0.61949694
v 0.72284830 0.53357404 -0.71531779
v 0.90321654 0.18232599 -0.00072627
v 0.98236227 0.68890351 -0.27950397
v 0.98532134 0.43382108 -0.16876255
v 0.98490340 0.43241760 0.16756944
v 0.97930455 0.68692428 0.27797511
v 0.26965818 0.53301275 0.97941744
v 0.53640962 0.69111037 0.86816722
v 0.26568139 0.84737736 0.96384883
v -0.63802737 0.04867076 0.46438611
v -0.45434543 0.12395987 0.73718393
v -0.72075325 0.28148276 0.62003791
v -0.45681408 0.12203944 -0.74031281
v -0.64176482 0.04454643 -0.46347117
v -0.72135097 0.27345249 -0.61582279
v 0.53559327 0.68839389 -0.86705160
v 0.26925039 0.53342134 -0.97997111
v 0.26638159 0.84652382 -0.96291584
v 0.95954365 0.94327515 0.16416548
v 0.95970982 0.94333214 -0.16311887
v 0.85402161 1.20048499 0.00003142
v -0.61695844 1.45496011 0.08137871
v -0.57245940 1.46364176 0.21351667
v -0.48520890 1.53499222 0.13145901
v -0.70978594 1.27521265 0.37288830
v -0.64919347 1.37473249 0.29690120
v -0.76127857 1.28030658 0.23792849
v -0.37587625 1.51415193 0.38425815
v -0.51721358 1.45451498 0.34690291
v -0.45504346 1.42942762 0.46935198
v -0.79547930 0.76897472 0.62503666
v -0.80063540 0.89688939 0.57701564
v -0.87620729 0.81749153 0.49084994
v -0.60529798 1.05064845 0.71114075
v -0.70760977 0.97698313 0.65213060
v -0.61231047 0.91947299 0.76482916
v -0.84910572 1.06140733 0.37716141
v -0.78883475 1.02577460 0.51922572
v -0.76164079 1.14444959 0.45577696
v -0.08159719 1.28987634 0.78599757
v -0.21407546 1.24606371 0.79529899
v -0.13236199 1.16123033 0.86915165
v -0.37275419 1.37926304 0.60260481
v -0.29705900 1.32098067 0.70398790
v -0.23761499 1.42979884 0.60773003
v -0.38642886 1.05433857 0.84924817
v -0.34780186 1.19227958 0.78662562
v -0.47102135 1.13120556 0.76159501
v -0.64905602 1.23859942 0.51525587
v -0.56677747 1.18901455 0.64901286
v -0.51488757 1.31971538 0.56561971
v -0.35870785 1.59356236 0.13191652
v -0.40383565 1.58445990 0.00011656
v -0.23891681 1.56067073 0.38673946
v -0.30180940 1.58551908 0.26449960
v -0.13794400 1.65935075 -0.00007961
v -0.22019260 1.63509524 0.13292767
v -0.08212101 1.65644395 0.13311985
v 0.08115811 1.28943825 0.78602588
v -0.00002710 1.37513041 0.71248651
v 0.15679978 1.50978887 0.51990044
v 0.08138121 1.45103979 0.62098014
v 0.23757660 1.42936862 0.60801607
v -0.08118908 1.45097136 0.62106735
v -0.15658817 1.51041210 0.51995051
v 0.40412945 1.58381283 0.00011317
v 0.35896447 1.59306276 0.13195404
v 0.48522425 1.53450525 0.13143168
v 0.08265647 1.65600908 0.13323745
v 0.22069627 1.63508201 0.13301706
v 0.13830632 1.65911388 0.00000989
v 0.37593937 1.51349938 0.38419446
v 0.30200434 1.58548307 0.26452395
v 0.23921926 1.56004906 0.38668752
v -0.08222259 1.58228755 0.40025333
v 0.08250201 1.58185375 0.39983371
v 0.00021028 1.63275123 0.26666969
v -0.35856628 1.59369195 -0.13184132
v -0.48519719 1.53516209 -0.13134755
v -0.08212274 1.65627134 -0.13330270
v -0.22021869 1.63543177 -0.13304074
v -0.37545735 1.51439524 -0.38440594
v -0.30149710 1.58573151 -0.26447400
v -0.23876967 1.56080520 -0.38686153
v 0.48532400 1.53459215 -0.13131000
v 0.35899061 1.59332347 -0.13175681
v 0.23920165 1.56053662 -0.38678455
v 0.30183467 1.58539474 -0.26449183
v 0.37577447 1.51383913 -0.38420779
v 0.22047272 1.63506782 -0.13298351
v 0.08246673 1.65618896 -0.13332000
v -0.08127376 1.28888965 -0.78603899
v 0.00020133 1.37461853 -0.71306545
v 0.08145012 1.28866041 -0.78604627
v -0.15634066 1.51028132 -0.52021629
v -0.08092225 1.45101392 -0.62146920
v -0.23725325 1.42974317 -0.60815459
v 0.23778740 1.42961943 -0.60816073
v 0.08159065 1.45102561 -0.62156039
v 0.15692772 1.51005113 -0.52007776
v 0.00014416 1.63253331 -0.26677501
v 0.08270306 1.58217025 -0.40006959
v -0.08210876 1.58234406 -0.40027058
v -0.57242578 1.46381509 -0.21349031
v -0.61704737 1.45510876 -0.08119450
v -0.45468944 1.42944419 -0.46957740
v -0.51715320 1.45511675 -0.34704238
v -0.76128376 1.28125060 -0.23787992
v -0.64907110 1.37491834 -0.29692072
v -0.70950633 1.27598810 -0.37309521
v -0.13179977 1.16092944 -0.86854970
v -0.21370175 1.24521923 -0.79533207
v -0.47042218 1.13064873 -0.76152015
v -0.34728914 1.19106531 -0.78644907
v -0.38592830 1.05348146 -0.84905028
v -0.29651663 1.32034910 -0.70443922
v -0.37232304 1.37930667 -0.60305935
v -0.87677026 0.81770134 -0.49159637
v -0.80127633 0.89743292 -0.57788509
v -0.79591608 0.76854849 -0.62590915
v -0.76123232 1.14555275 -0.45651558
v -0.78871465 1.02639866 -0.51997960
v -0.84915096 1.06287432 -0.37763500
v -0.61257017 0.91913694 -0.76668388
v -0.70801365 0.97727358 -0.65318698
v -0.60517484 1.05008912 -0.71227711
v -0.51448143 1.31996906 -0.56617445
v -0.56633192 1.18889964 -0.64971465
v -0.64856833 1.23913336 -0.51544648
v -0.70489156 1.38376725 0.00011641
v -0.84415835 1.19562781 -0.15721709
v -0.78294426 1.29412270 -0.08129325
v -0.78276509 1.29378736 0.08149266
v -0.84392446 1.19499063 0.15732993
v -0.93272686 0.69068712 -0.41201484
v -0.93654495 0.81773829 -0.36320728
v -1.00084054 0.81820303 -0.08349352
v -0.97822988 0.81815571 -0.22326112
v -1.00931275 0.68897158 -0.14141442
v -0.92426932 0.94665742 -0.30401903
v -0.89665055 1.06539214 -0.24016826
v -0.93654722 0.81693351 0.36279666
v -0.93290281 0.68978441 0.41173112
v -0.89658552 1.06423891 0.24017347
v -0.92443120 0.94519758 0.30373672
v -1.00954461 0.68844402 0.13989499
v -0.97904700 0.81697446 0.22270815
v -1.00102603 0.81782836 0.08279589
v -0.91919291 1.07864261 -0.08260800
v -0.97285175 0.94819593 0.00038555
v -0.91898811 1.07800174 0.08323345
v 0.57229275 1.46332610 0.21351019
v 0.61655062 1.45410478 0.08120087
v 0.45508945 1.42853451 0.46946841
v 0.51728356 1.45401704 0.34690621
v 0.76093161 1.27969742 0.23774432
v 0.64901447 1.37411308 0.29681510
v 0.70965880 1.27479494 0.37283781
v 0.13145934 1.16090071 0.86976844
v 0.21361575 1.24526346 0.79541421
v 0.47140396 1.13146210 0.76223058
v 0.34752265 1.19137096 0.78689647
v 0.38624376 1.05346704 0.84959573
v 0.29667321 1.31963980 0.70427084
v 0.37266019 1.37837446 0.60262048
v 0.87566900 0.81392783 0.48971877
v 0.80051750 0.89344651 0.57556915
v 0.79536444 0.76625669 0.62371671
v 0.76171994 1.14384055 0.45578784
v 0.78908366 1.02394843 0.51891840
v 0.84898889 1.06042957 0.37701613
v 0.61398447 0.91983569 0.76616877
v 0.70813686 0.97525007 0.65101486
v 0.60662878 1.05046666 0.71162921
v 0.51517898 1.31854653 0.56582516
v 0.56724501 1.18878567 0.64897007
v 0.64926505 1.23788261 0.51492620
v -0.13332120 1.03791249 0.93116760
v -0.00058594 1.08153117 0.92086333
v -0.39027992 0.92136538 0.89975566
v -0.26684955 0.98233426 0.92366004
v -0.00083346 0.82311821 1.00445819
v -0.13467959 0.90293741 0.97668356
v -0.13575672 0.76841646 1.00384700
v -0.80271971 0.61208630 0.63104135
v -0.72507477 0.69097126 0.71671999
v -0.53273225 0.53934449 0.86589211
v -0.63451177 0.61254245 0.79889828
v -0.62652266 0.46227577 0.78633887
v -0.62895763 0.76855856 0.79173940
v -0.52565378 0.84179050 0.85079384
v 0.00184727 0.29642141 0.95733935
v -0.13614880 0.34019300 0.96500576
v -0.13741392 0.21925156 0.91366845
v -0.13564642 0.60910273 1.01202607
v -0.13522319 0.47440270 0.99789423
v -0.00034460 0.55460161 1.01839578
v -0.40071616 0.32628804 0.88299954
v -0.27291989 0.39732996 0.95393544
v -0.39732370 0.45804292 0.92368656
v -0.40575847 0.76901323 0.92742634
v -0.40866664 0.60957140 0.93668687
v -0.27143359 0.68960023 0.98346043
v -0.94942236 0.56328523 0.36877808
v -0.88778800 0.56307226 0.49815291
v -1.01352227 0.55974972 0.08396499
v -0.99184775 0.56064653 0.22548167
v -0.88322914 0.32120553 0.39326501
v -0.94900936 0.43571159 0.31256554
v -0.93125778 0.31738424 0.25067490
v -0.88774544 0.56288362 -0.49898073
v -0.94904065 0.56195664 -0.37023044
v -0.93209738 0.31460884 -0.25045729
v -0.94698197 0.43294358 -0.31350088
v -0.88153040 0.31712428 -0.39342538
v -0.99210387 0.55985337 -0.22829568
v -1.01514828 0.55960244 -0.08645338
v -0.68102783 0.00000000 0.08654079
v -0.76601410 0.02060611 0.00183021
v -0.67692733 0.00000000 -0.08867578
v -0.88981181 0.19429089 0.16738378
v -0.83636904 0.09804523 0.08942515
v -0.81346804 0.11224548 0.25738424
v -0.80917317 0.10985350 -0.25140998
v -0.83526731 0.09796043 -0.08361845
v -0.88914567 0.18769298 -0.16452953
v -0.99927211 0.43178466 -0.00092707
v -0.95842576 0.30398291 -0.08714270
v -0.95959264 0.30526078 0.08524493
v -0.72453719 0.68931198 -0.71672189
v -0.80202353 0.61076343 -0.63090593
v -0.52586198 0.84003937 -0.85123354
v -0.62982190 0.76720583 -0.79244697
v -0.62665337 0.45753330 -0.78305233
v -0.63481039 0.60931313 -0.79953688
v -0.53398705 0.53558773 -0.86456096
v 0.00013934 1.08164561 -0.91995442
v -0.13243869 1.03775346 -0.93044925
v -0.13571687 0.76940244 -1.00342798
v -0.13439815 0.90341717 -0.97645837
v -0.00052888 0.82416946 -1.00407350
v -0.26641986 0.98174226 -0.92401117
v -0.38987818 0.92065215 -0.89988780
v -0.13933328 0.22101624 -0.91692072
v -0.13841945 0.34170136 -0.96397978
v -0.00034215 0.29933980 -0.95905679
v -0.39890108 0.45518646 -0.92028534
v -0.27481154 0.39601421 -0.95105147
v -0.40170518 0.32316342 -0.88279307
v -0.00183556 0.55579281 -1.01882768
v -0.13813145 0.47449276 -0.99689043
v -0.13764280 0.60938811 -1.01119137
v -0.40605748 0.76856774 -0.92835432
v -0.27241281 0.68871146 -0.98295140
v -0.40929684 0.60762656 -0.93499976
v 0.21401477 1.24524045 -0.79533333
v 0.13192883 1.16017652 -0.86870271
v 0.37290791 1.37861228 -0.60283011
v 0.29714647 1.31973517 -0.70418805
v 0.38606516 1.05234921 -0.84857309
v 0.34774277 1.19028866 -0.78597677
v 0.47063372 1.12959874 -0.76084083
v 0.61677581 1.45433712 -0.08117431
v 0.57241112 1.46313024 -0.21327245
v 0.70922726 1.27446461 -0.37235957
v 0.64888465 1.37324953 -0.29644591
v 0.76069003 1.27941632 -0.23745371
v 0.51727265 1.45382059 -0.34652200
v 0.45502636 1.42885506 -0.46944904
v 0.79677606 0.76818377 -0.62523776
v 0.80172402 0.89626825 -0.57750666
v 0.87765557 0.81672692 -0.49181542
v 0.60499561 1.04954588 -0.71084696
v 0.70745778 0.97525436 -0.65214670
v 0.61271083 0.91843218 -0.76585311
v 0.84943652 1.06165707 -0.37772226
v 0.78870225 1.02509236 -0.51947707
v 0.76127613 1.14470303 -0.45582342
v 0.51470435 1.31815422 -0.56543440
v 0.64857787 1.23797667 -0.51483703
v 0.56640708 1.18779397 -0.64872694
v 0.68139601 0.00000000 0.09086587
v 0.63503069 0.00000000 0.23799755
v 0.53283668 0.00000000 0.13902353
v 0.75819910 0.11853257 0.39684588
v 0.70572126 0.03006643 0.32186663
v 0.80957538 0.11056138 0.25084785
v 0.41050324 0.00000000 0.42161012
v 0.57318771 0.00083864 0.38492581
v 0.49913061 0.00037401 0.51272964
v 0.80225718 0.60952568 0.63077509
v 0.81887662 0.48092192 0.58969188
v 0.88807815 0.56071931 0.49786231
v 0.63019812 0.33111525 0.74063504
v 0.72891569 0.40364525 0.67252177
v 0.62724966 0.46085349 0.78604311
v 0.88182688 0.31861389 0.39181748
v 0.81579560 0.35242712 0.53840983
v 0.80135626 0.23568314 0.48146468
v 0.08950603 0.10275509 0.83891344
v 0.22930308 0.14066231 0.84307897
v 0.14042750 0.22196116 0.91281211
v 0.40024376 0.02989672 0.65262121
v 0.32059202 0.07477880 0.75410289
v 0.25808847 0.00046475 0.65953571
v 0.40111089 0.32830128 0.88438570
v 0.36769617 0.19213842 0.83145940
v 0.49439102 0.25229016 0.79952335
v 0.69050008 0.14863156 0.54766661
v 0.59850371 0.19512133 0.68599844
v 0.55369484 0.07788140 0.60862899
v 0.39212176 0.00000000 0.14328744
v 0.44019049 0.00000000 -0.00331391
v 0.25886732 0.00000000 0.42938808
v 0.33300987 0.00000000 0.29142934
v 0.14622004 0.00000000 0.00083592
v 0.23612633 0.00000000 0.14642137
v 0.08447456 0.00000000 0.14460145
v -0.08754284 0.10166223 0.84289628
v 0.00263926 0.03541171 0.77421832
v -0.18178357 0.00000000 0.57530046
v -0.09044315 0.00000000 0.67409605
v -0.25507966 0.00050009 0.66164535
v 0.08764540 0.00000000 0.68229687
v 0.17315035 0.00000000 0.57898539
v -0.45227206 0.00000000 -0.00474959
v -0.40349436 0.00000000 0.14209257
v -0.54393125 0.00000000 0.14273764
v -0.09597637 0.00000000 0.14214915
v -0.24626295 0.00000000 0.14205131
v -0.15666105 0.00000000 0.00213041
v -0.42396235 0.00000000 0.42613724
v -0.34354502 0.00000000 0.29091215
v -0.27098036 0.00000000 0.42492032
v 0.08767997 0.00000000 0.44189095
v -0.09667214 0.00000000 0.44181865
v -0.00283848 0.00000000 0.29157290
v 0.38662273 0.00000000 -0.14155924
v 0.52920377 0.00000000 -0.14948763
v 0.08482512 0.00000000 -0.14492026
v 0.23317260 0.00000000 -0.14478539
v 0.41239378 0.00000000 -0.41985774
v 0.32479095 0.00000000 -0.28487623
v 0.26557666 0.00000000 -0.42127249
v -0.53831697 0.00000000 -0.15001944
v -0.39883819 0.00000000 -0.15124224
v -0.26479924 0.00000000 -0.42273828
v -0.33883244 0.00000000 -0.29312313
v -0.41201615 0.00000000 -0.42515594
v -0.24778205 0.00000000 -0.14567721
v -0.09691574 0.00000000 -0.14783403
v 0.08869634 0.10473590 -0.84315413
v 0.00173964 0.03279493 -0.77654982
v -0.08660626 0.10375280 -0.84314883
v 0.17665710 0.00000000 -0.56804156
v 0.09064615 0.00000000 -0.68084043
v 0.26354334 0.00045745 -0.66492707
v -0.25433511 0.00000000 -0.66825187
v -0.09028374 0.00000000 -0.68785524
v -0.17212887 0.00000000 -0.57083833
v -0.00373744 0.00000000 -0.29134506
v -0.09118583 0.00000000 -0.44041142
v 0.08939976 0.00000000 -0.43616226
v 0.63376445 0.00000000 -0.23656949
v 0.68340343 0.00000000 -0.09206168
v 0.49664447 0.00097092 -0.50918645
v 0.56411481 0.00000000 -0.37734669
v 0.81493491 0.11607710 -0.25597212
v 0.71095222 0.03322519 -0.32326081
v 0.75909221 0.11886101 -0.39872479
v 0.13964292 0.22260471 -0.91646576
v 0.22759347 0.14226860 -0.84467614
v 0.49338686 0.24951939 -0.80001181
v 0.36614314 0.19248460 -0.82961273
v 0.40044484 0.32503867 -0.88301420
v 0.32168129 0.07801107 -0.75592285
v 0.40623933 0.03090036 -0.65073931
v 0.88914245 0.56166011 -0.49822852
v 0.81935596 0.48225048 -0.59154606
v 0.80399716 0.61063272 -0.63111413
v 0.80098206 0.23780347 -0.48087126
v 0.81728590 0.35469964 -0.53920960
v 0.88386035 0.31723034 -0.39355260
v 0.62823564 0.45908025 -0.78687924
v 0.72997046 0.40221420 -0.67379630
v 0.62775087 0.32986403 -0.74067450
v 0.55160666 0.07810259 -0.60419214
v 0.59868151 0.19581141 -0.68435484
v 0.69029135 0.15038988 -0.54637402
v 0.76549959 0.02716169 -0.00114353
v 0.89262694 0.18841644 -0.16605100
v 0.83875602 0.09739653 -0.08967049
v 0.84054172 0.09896054 0.08572645
v 0.88968426 0.18689658 0.16517024
v 0.93410277 0.68957484 -0.41214103
v 0.95053500 0.56125695 -0.36865589
v 1.01613390 0.55939221 -0.08516084
v 0.99420589 0.56080770 -0.22670175
v 1.01168942 0.68953049 -0.14066969
v 0.95063299 0.43303469 -0.31272504
v 0.93272018 0.31439638 -0.24986495
v 0.94924313 0.55981100 0.36807504
v 0.93189824 0.68712342 0.41005832
v 0.93053538 0.31531453 0.24855188
v 0.94909310 0.43284988 0.31150526
v 1.00904775 0.68785089 0.14095697
v 0.99135160 0.55835652 0.22507223
v 1.01436269 0.55935717 0.08424351
v 0.95508426 0.30269453 -0.08623971
v 0.99955255 0.43045306 -0.00010120
v 0.95401728 0.30160978 0.08581774
v 0.13837197 0.34155935 0.96434301
v 0.39890993 0.46014938 0.92311734
v 0.27433103 0.39910382 0.95347971
v 0.13677742 0.47599304 0.99843723
v 0.13544510 0.60937011 1.01186359
v 0.72465575 0.68942803 0.71575028
v 0.52727813 0.84214813 0.85201466
v 0.63042235 0.76799083 0.79210985
v 0.63500506 0.61218083 0.79917336
v 0.53379530 0.53937417 0.86526346
v 0.13206258 1.03651309 0.93091112
v 0.13473532 0.76885068 1.00465000
v 0.13356064 0.90261364 0.97742832
v 0.26605222 0.98159039 0.92470342
v 0.39007315 0.92100042 0.90016055
v 0.40868363 0.61059642 0.93501347
v 0.40602690 0.77015835 0.92880541
v 0.27117470 0.68978578 0.98384643
v -0.63455123 0.00000000 0.23516536
v -0.49655035 0.00063045 0.51554435
v -0.57341748 0.00000000 0.38362005
v -0.70696002 0.03105787 0.32419711
v -0.75610912 0.11318781 0.39982554
v -0.22999735 0.14390235 0.85016239
v -0.49398524 0.25215355 0.80019265
v -0.36795321 0.19290185 0.83174580
v -0.31881800 0.07466735 0.75836134
v -0.40693712 0.03058314 0.65494907
v -0.81766230 0.48462069 0.59036350
v -0.79804230 0.23953022 0.48031157
v -0.81600571 0.35671264 0.53935248
v -0.72978151 0.40573061 0.67549247
v -0.62894285 0.33280185 0.74460840
v -0.55505103 0.07983115 0.60979635
v -0.59611553 0.19664194 0.68661618
v -0.68576944 0.15214631 0.54732567
v -0.22736059 0.14297353 -0.84548819
v -0.40246877 0.02676801 -0.65353197
v -0.32004043 0.06932198 -0.75750160
v -0.36708513 0.18920612 -0.82834733
v -0.49322510 0.24853881 -0.79724997
v -0.62805593 0.00000000 -0.23557144
v -0.75743389 0.11495443 -0.39745092
v -0.70668197 0.03342960 -0.32211101
v -0.56520277 0.00000000 -0.38182074
v -0.49387714 0.00012981 -0.51038539
v -0.81694812 0.48248461 -0.59043819
v -0.62707502 0.32756734 -0.73657274
v -0.72884589 0.39990428 -0.67269057
v -0.81463987 0.35203609 -0.53874326
v -0.79638386 0.23592503 -0.47798905
v -0.55148375 0.07227046 -0.60727835
v -0.68708843 0.14432709 -0.54848039
v -0.59546047 0.19303054 -0.68441725
v 0.72582942 0.68895322 -0.71674359
v 0.53407168 0.53725111 -0.86537153
v 0.63479930 0.61046326 -0.79919022
v 0.63000101 0.76726055 -0.79192686
v 0.52580988 0.83976418 -0.84974498
v 0.13679084 0.34212118 -0.96498561
v 0.13453355 0.61043525 -1.01263452
v 0.13553172 0.47557771 -0.99814165
v 0.27358928 0.39810720 -0.95368618
v 0.39866894 0.45747048 -0.92278594
v 0.13270511 1.03687596 -0.93030828
v 0.39000413 0.91993171 -0.89873630
v 0.26632890 0.98064417 -0.92250001
v 0.13424033 0.90322685 -0.97647560
v 0.13434321 0.76962364 -1.00329852
v 0.40893266 0.60902345 -0.93458229
v 0.27103415 0.68962371 -0.98273230
v 0.40604076 0.76781374 -0.92637843
v 0.93637919 0.81520098 0.36299044
v 1.00124288 0.81688744 0.08438689
v 0.98000866 0.81696641 0.22362788
v 0.92473245 0.94477385 0.30411881
v 0.89690483 1.06384230 0.23997143
v 0.93818545 0.81667817 -0.36329222
v 0.89668268 1.06362522 -0.24004376
v 0.92566079 0.94522578 -0.30371159
v 0.98047799 0.81730610 -0.22322564
v 1.00214660 0.81827170 -0.08238681
v 0.70449239 1.38299334 -0.00020708
v 0.84370649 1.19419777 0.15697894
v 0.78247088 1.29334188 0.08128558
v 0.78212947 1.29281473 -0.08119801
v 0.84327865 1.19371247 -0.15672216
v 0.97240633 0.94693393 0.00081477
v 0.91758496 1.07633770 -0.08248194
v 0.91840148 1.07672179 0.08286720
f 330 87 329
f 336 325 26
f 207 208 56
f 464 36 580
f 502 129 504
f 157 624 622
f 308 311 82
f 247 223 248
f 507 483 508
f 331 88 329
f 494 500 497
f 156 601 602
f 591 589 592
f 365 98 596
f 75 281 282
f 152 587 577
f 149 559 560
f 555 121 553
f 530 141 529
f 515 517 139
f 361 594 98
f 250 67 249
f 157 608 609
f 294 293 209
f 317 81 316
f 557 338 26
f 303 305 81
f 530 529 528
f 101 381 382
f 415 418 111
f 192 184 50
f 412 110 411
f 20 384 256
f 131 594 486
f 281 264 282
f 347 287 348
f 28 349 582
f 165 163 1
f 248 250 66
f 617 107 398
f 273 271 274
f 456 115 453
f 558 561 560
f 335 576 91
f 331 177 332
f 116 433 436
f 351 370 92
f 136 511 530
f 239 240 65
f 247 258 19
f 304 23 567
f 148 557 570
f 214 208 58
f 440 426 450
f 268 270 269
f 258 247 268
f 204 202 16
f 466 125 465
f 517 513 133
f 168 275 274
f 275 73 274
f 198 193 53
f 309 308 307
f 510 511 136
f 415 416 110
f 131 490 597
f 473 475 474
f 414 415 111
f 493 495 494
f 496 504 485
f 433 116 432
f 600 375 601
f 240 234 65
f 418 415 412
f 486 361 3
f 567 566 304
f 380 393 29
f 17 199 197
f 491 492 132
f 451 449 435
f 218 217 216
f 623 621 613
f 396 104 395
f 433 439 436
f 628 160 627
f 215 202 217
f 209 207 2
f 427 113 424
f 434 10 544
f 434 433 432
f 199 17 210
f 150 564 565
f 489 491 132
f 275 13 285
f 497 500 134
f 125 466 476
f 578 152 577
f 208 214 211
f 328 88 343
f 356 27 603
f 150 566 567
f 372 100 371
f 190 191 47
f 235 8 398
f 260 261 72
f 422 403 414
f 422 414 111
f 453 454 123
f 349 583 582
f 521 520 519
f 425 453 115
f 616 622 158
f 483 130 508
f 151 586 572
f 212 17 232
f 400 397 402
f 377 396 99
f 41 522 511
f 510 508 505
f 549 547 42
f 475 473 36
f 510 137 509
f 222 221 197
f 430 115 429
f 220 194 1
f 305 54 204
f 621 29 613
f 192 171 184
f 460 335 5
f 88 331 332
f 74 277 279
f 300 301 80
f 390 389 388
f 165 45 164
f 146 549 551
f 291 278 75
f 448 120 445
f 147 543 544
f 607 610 609
f 603 602 356
f 139 529 514
f 333 553 443
f 92 368 347
f 261 260 259
f 300 6 200
f 46 177 331
f 284 283 174
f 301 300 200
f 471 468 474
f 54 305 301
f 302 304 303
f 569 150 567
f 150 569 570
f 294 209 2
f 628 629 160
f 548 543 147
f 147 625 627
f 63 233 234
f 426 427 114
f 41 509 532
f 198 52 196
f 614 105 612
f 147 627 547
f 81 305 306
f 549 548 547
f 54 301 200
f 342 88 332
f 264 281 70
f 193 194 53
f 455 429 456
f 187 321 14
f 479 130 484
f 147 544 625
f 458 456 453
f 304 80 303
f 314 84 313
f 488 503 501
f 321 332 14
f 423 425 424
f 305 204 306
f 341 339 25
f 514 40 516
f 625 628 627
f 340 339 341
f 105 614 391
f 243 228 62
f 318 316 78
f 75 278 279
f 357 355 353
f 238 257 63
f 466 455 476
f 425 423 4
f 448 449 120
f 408 638 108
f 292 275 285
f 22 278 289
f 515 513 517
f 501 503 134
f 622 623 158
f 134 503 504
f 195 216 206
f 163 271 246
f 619 617 620
f 62 228 229
f 163 165 164
f 453 425 454
f 489 132 488
f 82 628 625
f 58 208 209
f 525 608 40
f 626 547 627
f 518 517 498
f 489 487 491
f 557 26 564
f 325 336 344
f 541 145 539
f 40 616 516
f 338 556 89
f 250 248 245
f 139 514 515
f 98 594 596
f 246 220 1
f 112 413 630
f 9 536 413
f 156 600 601
f 332 177 14
f 321 342 332
f 156 606 600
f 584 330 585
f 302 303 81
f 584 87 330
f 330 25 585
f 400 239 65
f 439 440 117
f 95 358 368
f 597 594 131
f 594 361 486
f 246 67 245
f 561 562 149
f 28 364 362
f 55 216 217
f 427 430 114
f 267 20 254
f 556 555 553
f 84 309 558
f 311 310 312
f 609 525 142
f 256 68 255
f 124 460 461
f 82 311 312
f 307 308 82
f 589 135 495
f 527 40 514
f 112 418 412
f 20 256 254
f 258 238 19
f 267 254 269
f 273 272 249
f 392 391 393
f 137 533 509
f 122 455 456
f 9 413 411
f 130 480 505
f 333 443 5
f 527 525 40
f 589 495 385
f 39 496 485
f 223 225 224
f 414 416 415
f 219 222 53
f 145 538 539
f 413 412 411
f 469 468 467
f 183 181 6
f 191 192 50
f 429 35 431
f 292 285 76
f 413 112 412
f 415 110 412
f 43 164 167
f 467 468 126
f 617 101 620
f 450 451 117
f 438 546 545
f 619 620 159
f 17 212 210
f 124 579 576
f 584 153 583
f 460 124 576
f 3 469 467
f 311 308 314
f 6 320 183
f 389 104 388
f 251 250 249
f 194 165 1
f 291 289 278
f 287 77 348
f 238 258 257
f 139 517 518
f 238 236 19
f 223 247 19
f 382 380 29
f 39 518 498
f 361 359 3
f 69 255 257
f 139 518 528
f 33 545 535
f 387 385 7
f 69 268 269
f 477 462 125
f 454 479 123
f 121 555 447
f 451 435 117
f 454 425 4
f 233 252 8
f 124 463 464
f 69 258 268
f 168 167 166
f 583 153 582
f 384 394 102
f 138 512 513
f 57 210 211
f 254 256 255
f 607 609 142
f 324 319 86
f 289 291 76
f 291 292 76
f 384 102 383
f 422 421 420
f 221 17 197
f 383 102 381
f 376 377 99
f 99 373 374
f 386 105 392
f 438 33 440
f 90 341 343
f 281 75 279
f 574 571 96
f 628 82 312
f 221 222 59
f 127 471 474
f 595 605 603
f 551 538 145
f 334 91 340
f 322 324 85
f 305 303 301
f 18 239 399
f 306 204 16
f 199 198 197
f 166 190 180
f 303 80 301
f 267 266 265
f 626 42 547
f 16 215 213
f 349 351 350
f 295 16 213
f 68 379 252
f 250 251 66
f 627 160 626
f 383 68 256
f 343 88 342
f 507 508 136
f 202 215 16
f 197 198 53
f 254 69 269
f 603 605 156
f 418 419 111
f 384 383 256
f 455 122 476
f 203 204 54
f 556 557 148
f 255 68 253
f 313 84 560
f 25 328 341
f 254 255 69
f 603 156 602
f 581 584 583
f 630 632 112
f 163 246 1
f 246 245 220
f 432 116 558
f 499 591 590
f 320 563 86
f 345 93 350
f 306 16 295
f 346 93 345
f 562 568 149
f 604 605 155
f 154 592 593
f 545 552 535
f 511 522 530
f 574 573 571
f 566 150 565
f 361 98 360
f 67 271 273
f 234 235 65
f 208 211 56
f 574 151 573
f 251 270 66
f 398 8 378
f 213 215 214
f 438 440 439
f 315 314 313
f 263 71 262
f 20 373 384
f 496 134 504
f 329 88 328
f 81 306 316
f 555 556 148
f 592 589 103
f 617 619 107
f 227 207 56
f 571 359 96
f 446 466 465
f 206 216 55
f 359 571 469
f 568 148 570
f 34 437 435
f 28 351 349
f 21 272 282
f 113 423 424
f 490 489 488
f 379 68 383
f 210 212 211
f 80 563 300
f 351 92 350
f 326 346 12
f 83 317 318
f 555 148 554
f 212 231 56
f 218 57 217
f 271 67 246
f 195 196 52
f 270 268 66
f 390 592 103
f 148 568 554
f 495 493 7
f 592 390 593
f 357 95 355
f 574 575 151
f 452 120 451
f 154 591 592
f 587 585 577
f 395 394 396
f 93 349 350
f 610 416 611
f 166 44 190
f 315 23 302
f 315 302 317
f 268 247 66
f 606 154 593
f 396 394 99
f 211 212 56
f 370 369 368
f 235 397 65
f 280 278 22
f 83 315 317
f 575 588 151
f 74 279 280
f 385 495 7
f 63 257 253
f 397 235 398
f 214 58 213
f 220 219 194
f 546 146 545
f 236 225 19
f 599 94 602
f 235 233 8
f 102 394 395
f 611 416 32
f 225 223 19
f 139 528 529
f 231 62 229
f 419 406 421
f 451 450 452
f 49 182 185
f 402 397 107
f 52 199 218
f 416 610 110
f 225 236 244
f 107 397 398
f 68 252 253
f 322 85 321
f 182 181 183
f 118 438 439
f 546 438 118
f 348 77 345
f 543 546 118
f 231 212 232
f 610 611 157
f 33 438 545
f 385 386 103
f 479 480 130
f 169 195 15
f 93 583 349
f 15 195 206
f 190 44 192
f 247 248 66
f 146 552 545
f 248 60 245
f 570 557 564
f 274 271 43
f 63 253 233
f 272 21 249
f 507 528 518
f 67 273 249
f 487 467 126
f 196 195 169
f 624 159 623
f 134 496 497
f 132 503 488
f 104 393 395
f 556 553 89
f 355 356 94
f 258 69 257
f 229 61 227
f 56 231 227
f 460 576 335
f 463 124 461
f 394 373 99
f 29 393 391
f 67 250 245
f 193 198 196
f 462 36 464
f 144 633 630
f 141 526 527
f 517 133 498
f 536 144 630
f 100 372 599
f 144 536 537
f 22 289 287
f 578 579 152
f 579 578 576
f 189 188 187
f 60 223 224
f 92 348 350
f 555 554 447
f 396 377 388
f 194 193 165
f 413 536 630
f 372 352 599
f 377 376 375
f 348 345 350
f 105 386 387
f 240 237 234
f 463 462 464
f 135 500 494
f 45 196 169
f 512 612 387
f 245 60 220
f 429 115 456
f 223 60 248
f 288 289 76
f 525 526 142
f 100 599 601
f 613 29 391
f 526 523 520
f 341 328 343
f 631 641 639
f 264 21 282
f 266 72 265
f 106 402 403
f 73 273 274
f 186 206 205
f 381 379 383
f 52 216 195
f 410 18 399
f 290 272 73
f 72 371 374
f 526 525 527
f 115 430 424
f 498 497 496
f 621 382 29
f 543 118 434
f 214 215 57
f 522 141 530
f 511 510 509
f 352 94 599
f 493 512 7
f 90 340 341
f 169 171 170
f 605 604 606
f 219 60 224
f 104 389 392
f 359 469 3
f 186 49 185
f 222 219 224
f 166 167 44
f 428 427 426
f 523 522 524
f 129 502 481
f 50 185 188
f 164 45 170
f 425 115 424
f 33 428 426
f 427 428 113
f 94 356 602
f 515 138 513
f 114 431 452
f 237 236 238
f 215 217 57
f 95 354 355
f 220 60 219
f 515 514 516
f 183 320 319
f 222 197 53
f 559 569 567
f 300 320 6
f 435 436 117
f 96 360 363
f 640 642 641
f 242 243 62
f 140 537 519
f 508 130 505
f 420 410 399
f 537 539 144
f 317 316 318
f 426 114 450
f 186 15 206
f 311 83 310
f 625 544 307
f 544 10 307
f 168 43 167
f 185 182 188
f 369 354 95
f 44 171 192
f 605 606 156
f 548 549 146
f 100 601 375
f 149 568 569
f 381 380 382
f 455 466 35
f 480 479 454
f 543 548 546
f 493 133 513
f 492 472 37
f 477 125 476
f 491 487 126
f 337 336 338
f 588 153 587
f 576 578 91
f 633 161 632
f 96 359 360
f 39 485 483
f 101 617 378
f 193 45 165
f 163 164 43
f 618 624 611
f 507 136 528
f 561 149 560
f 641 162 639
f 116 561 558
f 494 133 493
f 253 252 233
f 63 237 238
f 392 393 104
f 440 450 117
f 93 581 583
f 386 385 387
f 120 449 451
f 421 422 111
f 486 3 467
f 302 81 317
f 633 632 630
f 462 475 36
f 376 99 374
f 489 490 131
f 447 449 448
f 387 612 105
f 106 420 399
f 173 46 172
f 492 491 472
f 316 306 295
f 22 287 347
f 109 410 420
f 507 39 483
f 559 23 313
f 214 57 211
f 196 45 193
f 10 434 432
f 422 106 403
f 626 160 640
f 487 486 467
f 542 41 532
f 400 106 399
f 444 120 452
f 198 199 52
f 475 127 474
f 621 620 382
f 621 623 159
f 450 114 452
f 92 347 348
f 376 100 375
f 434 118 433
f 503 132 502
f 337 90 336
f 537 536 519
f 395 393 380
f 201 54 200
f 171 44 170
f 355 94 353
f 58 296 213
f 422 420 106
f 595 365 596
f 569 568 570
f 523 140 520
f 114 430 431
f 218 210 57
f 304 566 80
f 639 162 638
f 261 371 72
f 548 147 547
f 498 133 497
f 150 570 564
f 222 224 59
f 142 526 520
f 437 436 435
f 141 522 523
f 137 510 505
f 173 179 176
f 559 149 569
f 121 447 448
f 563 320 300
f 102 395 380
f 257 255 253
f 642 162 641
f 83 311 314
f 216 52 218
f 512 493 513
f 23 304 302
f 91 339 340
f 512 138 612
f 159 620 621
f 218 199 210
f 364 28 575
f 83 318 310
f 168 274 43
f 136 530 528
f 140 523 524
f 495 135 494
f 233 235 234
f 566 563 80
f 25 339 577
f 277 74 276
f 475 462 477
f 133 494 497
f 436 437 116
f 389 386 392
f 548 146 546
f 441 460 5
f 10 309 307
f 65 397 400
f 543 434 544
f 640 641 161
f 272 273 73
f 581 93 346
f 419 421 111
f 319 320 86
f 180 179 178
f 127 475 477
f 231 229 227
f 337 334 340
f 136 508 510
f 308 309 84
f 237 63 234
f 447 554 34
f 252 379 378
f 315 83 314
f 608 622 616
f 338 336 26
f 337 338 89
f 13 275 168
f 209 208 207
f 436 439 117
f 628 312 629
f 360 366 363
f 364 574 96
f 359 361 360
f 466 446 35
f 500 501 134
f 406 109 421
f 135 589 591
f 601 599 602
f 340 90 337
f 481 492 37
f 522 41 524
f 78 316 295
f 131 486 487
f 403 32 414
f 634 626 640
f 151 572 573
f 515 516 138
f 8 252 378
f 265 72 374
f 9 521 519
f 538 549 42
f 368 358 347
f 588 587 586
f 458 453 123
f 589 385 103
f 502 492 481
f 32 416 414
f 430 427 424
f 153 585 587
f 540 144 539
f 370 368 92
f 209 293 58
f 428 33 535
f 326 581 346
f 625 307 82
f 575 28 582
f 6 181 200
f 421 109 420
f 553 121 443
f 160 642 640
f 153 584 585
f 309 432 558
f 334 337 89
f 23 315 313
f 271 163 43
f 296 295 213
f 39 498 496
f 118 439 433
f 531 113 534
f 293 296 58
f 28 362 351
f 489 131 487
f 431 444 452
f 84 558 560
f 98 366 360
f 45 169 170
f 379 101 378
f 462 463 125
f 308 84 314
f 10 432 309
f 299 24 310
f 132 492 502
f 512 387 7
f 639 638 408
f 565 323 86
f 59 244 242
f 106 400 402
f 440 33 426
f 566 565 563
f 617 398 378
f 224 225 59
f 410 109 409
f 239 400 399
f 194 219 53
f 358 22 347
f 610 157 609
f 27 595 603
f 479 484 482
f 142 520 521
f 585 25 577
f 339 578 577
f 408 407 406
f 407 109 406
f 31 408 406
f 407 408 108
f 31 639 408
f 419 31 406
f 608 616 40
f 430 429 431
f 455 35 429
f 35 444 431
f 188 51 187
f 188 182 51
f 51 322 187
f 322 51 319
f 51 182 183
f 319 51 183
f 187 322 321
f 322 319 324
f 381 101 379
f 405 407 108
f 404 405 108
f 286 285 178
f 407 405 409
f 109 407 409
f 191 175 47
f 167 164 170
f 50 184 185
f 44 167 170
f 64 244 236
f 243 244 64
f 50 188 189
f 541 542 145
f 442 445 119
f 339 91 578
f 445 446 119
f 624 623 622
f 611 624 157
f 523 526 141
f 141 527 529
f 527 514 529
f 445 120 444
f 446 445 444
f 35 446 444
f 613 614 158
f 158 614 615
f 623 613 158
f 614 613 391
f 614 612 615
f 371 376 374
f 100 376 371
f 479 482 123
f 373 394 384
f 540 42 634
f 633 540 634
f 538 42 540
f 633 634 161
f 161 634 640
f 42 626 634
f 540 633 144
f 557 556 338
f 553 333 89
f 262 21 264
f 251 21 262
f 5 335 333
f 270 251 262
f 21 251 249
f 600 593 30
f 606 593 600
f 600 30 375
f 593 390 30
f 30 377 375
f 390 388 30
f 30 388 377
f 228 243 241
f 470 478 459
f 470 127 478
f 127 477 478
f 184 186 185
f 478 477 476
f 122 478 476
f 357 74 280
f 518 39 507
f 344 342 85
f 325 344 85
f 342 344 343
f 85 342 321
f 344 90 343
f 90 344 336
f 482 129 481
f 482 481 457
f 482 457 123
f 481 37 457
f 449 447 34
f 435 449 34
f 470 472 471
f 472 470 37
f 470 471 127
f 472 126 471
f 126 468 471
f 470 459 37
f 491 126 472
f 504 129 485
f 221 59 242
f 125 463 465
f 437 34 562
f 561 437 562
f 554 568 562
f 34 554 562
f 437 561 116
f 390 103 389
f 103 386 389
f 392 105 391
f 572 586 580
f 572 580 36
f 586 152 580
f 473 572 36
f 244 243 242
f 225 244 59
f 64 240 241
f 240 239 241
f 237 240 64
f 243 64 241
f 236 237 64
f 411 607 521
f 9 411 521
f 110 607 411
f 607 142 521
f 610 607 110
f 171 15 184
f 171 169 15
f 15 186 184
f 87 584 581
f 153 588 582
f 588 575 582
f 381 102 380
f 573 572 473
f 468 469 128
f 474 468 128
f 469 571 128
f 571 573 128
f 573 473 128
f 473 474 128
f 564 323 565
f 26 323 564
f 323 324 86
f 325 323 26
f 325 324 323
f 563 565 86
f 324 325 85
f 410 230 18
f 230 228 18
f 18 228 241
f 18 241 239
f 401 619 618
f 401 402 107
f 403 402 401
f 619 159 618
f 401 618 32
f 619 401 107
f 403 401 32
f 618 611 32
f 159 624 618
f 478 122 459
f 122 458 459
f 37 459 457
f 459 458 457
f 122 456 458
f 457 458 123
f 191 190 192
f 485 129 484
f 129 482 484
f 483 485 484
f 130 483 484
f 189 187 14
f 191 50 189
f 191 189 175
f 189 14 175
f 14 177 175
f 499 501 500
f 501 499 38
f 38 499 590
f 135 499 500
f 488 501 38
f 499 135 591
f 480 454 4
f 284 12 346
f 4 423 506
f 480 4 506
f 423 531 506
f 480 506 505
f 531 137 506
f 506 137 505
f 365 366 98
f 71 270 262
f 270 71 269
f 71 267 269
f 335 334 333
f 333 334 89
f 334 335 91
f 536 9 519
f 465 463 461
f 537 140 541
f 520 140 519
f 119 446 465
f 465 461 119
f 461 441 119
f 460 441 461
f 176 46 173
f 299 297 24
f 71 263 266
f 263 260 266
f 260 72 266
f 263 70 260
f 205 201 49
f 201 181 49
f 186 205 49
f 181 201 200
f 181 182 49
f 284 77 283
f 586 587 152
f 588 586 151
f 20 267 265
f 266 267 71
f 31 417 631
f 631 417 632
f 31 631 639
f 417 31 419
f 641 631 161
f 417 112 632
f 161 631 632
f 418 417 419
f 417 418 112
f 284 345 77
f 542 550 145
f 542 541 524
f 284 174 12
f 48 174 283
f 373 20 265
f 373 265 374
f 609 608 525
f 608 157 622
f 560 559 313
f 636 637 162
f 541 140 524
f 41 542 524
f 358 357 280
f 70 263 264
f 263 262 264
f 176 177 46
f 174 48 173
f 174 173 172
f 538 551 549
f 538 540 539
f 537 541 539
f 232 221 242
f 17 221 232
f 232 242 62
f 231 232 62
f 203 205 55
f 203 55 202
f 201 205 203
f 202 55 217
f 205 206 55
f 204 203 202
f 73 275 292
f 292 290 73
f 272 290 282
f 290 292 291
f 75 290 291
f 290 75 282
f 70 277 259
f 277 70 281
f 277 281 279
f 260 70 259
f 12 174 172
f 104 396 388
f 367 27 354
f 365 27 367
f 354 27 356
f 365 367 366
f 595 27 365
f 318 299 310
f 155 596 597
f 155 597 598
f 596 594 597
f 595 596 155
f 605 595 155
f 180 47 179
f 180 190 47
f 352 372 11
f 11 372 261
f 312 310 24
f 642 636 162
f 636 297 637
f 367 369 97
f 366 367 97
f 369 367 354
f 369 370 97
f 580 579 464
f 580 152 579
f 579 124 464
f 61 230 409
f 230 410 409
f 230 61 229
f 230 229 228
f 76 285 286
f 353 352 276
f 74 353 276
f 288 76 286
f 288 286 283
f 289 288 287
f 203 54 201
f 287 288 77
f 77 288 283
f 286 48 283
f 531 423 113
f 276 11 259
f 11 261 259
f 277 276 259
f 616 158 615
f 516 616 615
f 138 516 615
f 138 615 612
f 509 533 532
f 503 502 504
f 635 79 294
f 635 294 404
f 635 637 79
f 637 635 638
f 638 635 108
f 635 404 108
f 226 61 405
f 61 226 227
f 405 61 409
f 227 226 207
f 48 178 179
f 48 286 178
f 173 48 179
f 534 143 533
f 534 535 143
f 531 534 533
f 533 143 532
f 137 531 533
f 261 372 371
f 13 180 178
f 285 13 178
f 180 13 166
f 13 168 166
f 346 345 284
f 331 327 46
f 46 327 172
f 172 327 326
f 382 620 101
f 442 121 448
f 443 121 442
f 2 226 404
f 294 2 404
f 404 226 405
f 207 226 2
f 550 551 145
f 552 146 551
f 143 550 532
f 552 550 143
f 330 329 328
f 24 636 629
f 94 352 353
f 352 11 276
f 113 428 534
f 428 535 534
f 509 41 511
f 535 552 143
f 550 552 551
f 550 542 532
f 369 95 368
f 326 327 87
f 87 327 329
f 327 331 329
f 581 326 87
f 293 79 298
f 79 297 298
f 296 298 78
f 79 293 294
f 296 293 298
f 598 490 38
f 358 280 22
f 280 279 278
f 357 358 95
f 74 357 353
f 330 328 25
f 567 23 559
f 590 598 38
f 590 604 598
f 598 604 155
f 604 590 154
f 590 591 154
f 604 154 606
f 297 299 298
f 299 318 78
f 298 299 78
f 355 354 356
f 629 636 642
f 312 24 629
f 629 642 160
f 370 362 97
f 362 363 97
f 363 366 97
f 364 363 362
f 362 370 351
f 96 363 364
f 297 636 24
f 162 637 638
f 637 297 79
f 490 488 38
f 598 597 490
f 441 442 119
f 443 442 441
f 443 441 5
f 442 448 445
f 296 78 295
f 326 12 172
f 575 574 364
f 47 175 176
f 175 177 176
f 47 176 179
