# FEM surface export ¡ª frame 451
# Vertices: 642  Faces: 1280
v -0.51676595 1.05343080 -0.00324347
v 0.51683378 1.05350101 -0.00087359
v -0.52539158 0.10580009 -0.03267823
v 0.54028147 0.20495968 0.00691593
v 0.00440822 0.00011736 1.00486004
v 0.00113716 0.79064095 0.86622882
v 0.00652316 0.00000000 -0.99160838
v 0.00022165 0.78787339 -0.86574847
v 0.90651137 0.33060235 -0.55935955
v 0.90500200 0.32186538 0.55763042
v -0.90687191 0.32443985 -0.55521673
v -0.90288842 0.32161927 0.56002986
v -0.82616967 0.76710641 0.31530440
v -0.51896316 0.60151947 0.84192824
v -0.30553773 1.02079296 0.49184495
v 0.30671453 1.02189517 0.49437788
v -0.00018284 1.16127753 -0.00125951
v 0.30450541 1.02160931 -0.49359074
v -0.30706394 1.02053058 -0.49534050
v -0.51883352 0.59647620 -0.84027517
v -0.82575697 0.76372266 -0.31659767
v -1.05993664 0.32008871 0.00478917
v 0.52303135 0.59618038 0.84031254
v 0.82765144 0.76695168 0.31513605
v -0.55911481 0.07500985 0.90882289
v 0.00071258 0.32756463 1.06231344
v -0.90953737 0.00000000 -0.35755372
v -0.95223469 0.00000000 0.35113746
v -0.00217179 0.32928675 -1.06425750
v -0.56059396 0.09168370 -0.92065430
v 0.82762825 0.76710147 -0.31518087
v 0.51743019 0.60152543 -0.84241366
v 0.96189618 0.00000000 0.35703328
v 0.56374645 0.06003556 0.89606792
v 0.29944775 0.04296603 0.54263699
v -0.34881553 0.13137895 0.52744865
v -0.02577870 0.03045344 0.04174943
v -0.29556015 0.01563354 -0.49430487
v 0.33647490 0.03623796 -0.53050995
v 0.56351286 0.08438890 -0.91831702
v 0.93879920 0.00000000 -0.34775719
v 1.06708205 0.32447949 -0.00406666
v -0.69262880 0.93561983 0.15772857
v -0.58768570 0.92553926 0.42311239
v -0.42542133 1.06278396 0.25138551
v -0.73717409 0.46816406 0.72774100
v -0.70787233 0.70467103 0.60401511
v -0.89967310 0.55386472 0.45372495
v -0.15939389 0.92716503 0.70108998
v -0.43094817 0.84250349 0.69345152
v -0.26648560 0.71183568 0.88735485
v -0.15650606 1.12686169 0.25391352
v -0.26364729 1.13541806 -0.00133951
v 0.16125262 0.92742616 0.70202994
v 0.00045621 1.05216527 0.51642442
v 0.26332796 1.13503695 -0.00085345
v 0.15852219 1.12967908 0.25478834
v 0.42669013 1.06200302 0.25463444
v -0.15820146 1.12756252 -0.25673813
v -0.42554569 1.06205833 -0.25727507
v 0.42592639 1.06353748 -0.25578701
v 0.15659429 1.12906969 -0.25696978
v -0.16118839 0.92780292 -0.70229620
v 0.00050618 1.05208814 -0.51718920
v 0.16012788 0.92750263 -0.70250851
v -0.59017515 0.92161250 -0.42678979
v -0.69318187 0.93407983 -0.16268569
v -0.26608580 0.70718896 -0.88466424
v -0.43035707 0.83937514 -0.69665575
v -0.90069360 0.55434406 -0.45587048
v -0.70588100 0.69739211 -0.60429299
v -0.73699671 0.46209711 -0.72888011
v -0.86532742 0.78739309 -0.00207430
v -1.02052414 0.31918889 -0.28475404
v -0.99573714 0.55651581 -0.17089364
v -0.99199671 0.55998391 0.17064673
v -1.01604259 0.31435204 0.28995207
v 0.58921331 0.92100000 0.42602852
v 0.69245392 0.93596345 0.16112699
v 0.26982445 0.70821792 0.88684052
v 0.43141586 0.83861452 0.69588542
v 0.90426302 0.55678588 0.45254016
v 0.71006715 0.70293123 0.60660541
v 0.74175793 0.46851763 0.72653705
v -0.27556598 0.47144940 1.00009358
v 0.00207569 0.57133341 1.00569189
v -0.75303173 0.18408355 0.74705440
v -0.55878973 0.32813281 0.89997739
v -0.00440872 0.09834000 1.05496669
v -0.28470016 0.18418303 1.02842748
v -0.29663917 0.00000000 1.00988460
v -1.05298138 0.09023753 0.17949083
v -0.94825792 0.09746692 0.48100960
v -0.96277350 0.11485913 -0.47216621
v -1.06245255 0.10536442 -0.17442963
v -0.75969750 0.06219069 0.12991518
v -0.99330217 0.00020697 -0.01670332
v -0.76767814 0.15194936 -0.19858371
v -0.56461549 0.32790685 -0.90136242
v -0.76315713 0.19015747 -0.74848473
v -0.00027090 0.56634802 -1.00074220
v -0.27748400 0.46908534 -1.00073302
v -0.29545882 0.00000000 -1.01683092
v -0.28444803 0.18851277 -1.03143620
v -0.00080539 0.10896396 -1.07819700
v 0.43157154 0.84108239 -0.69681644
v 0.26713872 0.70849013 -0.88573027
v 0.69396323 0.93556130 -0.16089070
v 0.58955699 0.92338914 -0.42405093
v 0.73600173 0.47257015 -0.72959816
v 0.70907825 0.70311844 -0.60705543
v 0.90101832 0.55863070 -0.45252553
v 0.75070584 0.13374674 0.17228463
v 0.65473664 0.02136781 0.46525133
v 0.45063904 0.13997765 0.32209113
v 0.76781440 0.18680780 0.75423706
v 0.80238301 0.00000000 0.65524393
v 0.95904261 0.11244462 0.47227392
v 0.15987714 0.00060373 0.79845673
v 0.50144714 0.00004375 0.80842596
v 0.31630045 0.00000000 1.01900756
v 0.17068622 0.16566984 0.29814419
v 0.26229152 0.00670114 0.01039146
v -0.19348761 0.03691851 0.78373903
v -0.03625213 0.12725629 0.57927889
v -0.29802454 0.12081882 0.07150044
v -0.18971494 0.06679956 0.31183374
v -0.49264815 0.05495936 0.24164580
v 0.15213421 0.06592625 -0.24488713
v 0.46885708 0.07779650 -0.24163471
v -0.43413171 0.04694724 -0.25887787
v -0.18126108 0.02248079 -0.18893714
v 0.19844735 0.00808536 -0.76435965
v -0.01304192 0.02526655 -0.48938552
v -0.17740881 0.02442521 -0.75061548
v 0.62825233 0.10071863 -0.43768656
v 0.75166208 0.13363305 -0.18302011
v 0.30668378 0.00283288 -1.02357233
v 0.50153744 0.00555668 -0.79130876
v 0.95821047 0.10991877 -0.48455638
v 0.80218107 0.00000000 -0.67925680
v 0.75799888 0.19957584 -0.75627232
v 0.99770492 0.00000000 0.00370914
v 1.02294099 0.32797557 -0.29049635
v 1.04275131 0.10074127 -0.17891933
v 1.04085422 0.10032316 0.17115021
v 1.02634001 0.32709843 0.28699720
v 0.28465247 0.17605178 1.01973975
v 0.56404465 0.32305917 0.90268117
v 0.28078696 0.46772644 0.99983740
v -0.69081199 0.00013136 0.43776917
v -0.50353837 0.04159583 0.78220838
v -0.80564439 0.00000000 0.68091667
v -0.49262100 0.00000000 -0.75955415
v -0.63837355 0.10272878 -0.48074564
v -0.80927831 0.02513188 -0.67778105
v 0.56107581 0.32952711 -0.90344161
v 0.28359184 0.19994698 -1.03587782
v 0.27658957 0.47285652 -0.99972910
v 0.99482006 0.55906093 0.16662738
v 0.99327779 0.56128317 -0.17031069
v 0.86632544 0.78918034 0.00106489
v -0.60873872 1.00168645 0.07821973
v -0.56432390 1.00836599 0.20794874
v -0.47392681 1.06356251 0.12609814
v -0.71467811 0.85416192 0.37253901
v -0.64593309 0.93629408 0.29289076
v -0.76554233 0.85705388 0.23582569
v -0.36840299 1.04819059 0.37419817
v -0.51047641 1.00102806 0.34005550
v -0.45026276 0.98072571 0.46224466
v -0.82616574 0.39448178 0.64996940
v -0.82960171 0.51495183 0.59937751
v -0.90840495 0.43855944 0.51004100
v -0.62247694 0.65706176 0.73175079
v -0.73116601 0.59027857 0.67341870
v -0.63437635 0.53794914 0.79313952
v -0.87035465 0.66609520 0.38831583
v -0.81156415 0.63420558 0.53414702
v -0.77584356 0.74295968 0.46457034
v -0.08083660 0.86422819 0.78969854
v -0.21464443 0.82647598 0.80334312
v -0.13294284 0.75434089 0.88574558
v -0.36990643 0.93932575 0.59909368
v -0.29656240 0.88968849 0.70475513
v -0.23410346 0.97985721 0.60073948
v -0.39597002 0.66155612 0.87351429
v -0.35350534 0.78155500 0.79724562
v -0.48072323 0.72972620 0.77660245
v -0.65534037 0.82425857 0.51907396
v -0.57658941 0.78038812 0.65764076
v -0.51519740 0.89156520 0.56492358
v -0.34801471 1.10777974 0.12607595
v -0.39232013 1.10018981 -0.00148356
v -0.23234254 1.08378494 0.37657610
v -0.29353788 1.10157716 0.25553375
v -0.13302669 1.15894258 -0.00170502
v -0.21164016 1.13803983 0.12746647
v -0.07880402 1.15457749 0.12807094
v 0.08301982 0.86333382 0.78907990
v 0.00089891 0.93448550 0.70914525
v 0.15382928 1.04391479 0.51051939
v 0.08104554 0.99640256 0.61306268
v 0.23693623 0.97975618 0.60228658
v -0.07773183 0.99588740 0.61309499
v -0.15301399 1.04482770 0.50985122
v 0.39387447 1.10063279 -0.00073105
v 0.34921476 1.10773146 0.12843265
v 0.47576088 1.06423128 0.12722370
v 0.07959140 1.15288603 0.12766320
v 0.21308121 1.13974714 0.12880723
v 0.13266057 1.15827119 -0.00145972
v 0.37157166 1.04801023 0.37771747
v 0.29335159 1.10271776 0.25772148
v 0.23384641 1.08296335 0.37761056
v -0.08082086 1.10091949 0.38982421
v 0.07928670 1.10056078 0.38855094
v -0.00093322 1.13726342 0.25661227
v -0.34822589 1.10754609 -0.13066059
v -0.47427347 1.06308377 -0.13059187
v -0.07933194 1.15502465 -0.12975159
v -0.21273683 1.14048314 -0.13004203
v -0.37062737 1.04617512 -0.37890199
v -0.29344776 1.10155499 -0.25909999
v -0.23439829 1.08333528 -0.37875992
v 0.47560468 1.06598282 -0.12947136
v 0.34861153 1.11026680 -0.12953886
v 0.23266219 1.08477533 -0.37829804
v 0.29298678 1.10366905 -0.25794369
v 0.36802676 1.04819882 -0.37754241
v 0.21156780 1.14010346 -0.12964161
v 0.07825430 1.15589595 -0.13026136
v -0.08149708 0.86295313 -0.79036355
v 0.00073335 0.93494189 -0.71145952
v 0.08238693 0.86151814 -0.79085255
v -0.15460718 1.04402435 -0.51188868
v -0.08043853 0.99714267 -0.61559957
v -0.23649617 0.97989470 -0.60280675
v 0.23560338 0.98010254 -0.60273308
v 0.08041766 0.99783438 -0.61501861
v 0.15294646 1.04474926 -0.51139498
v -0.00054598 1.13727880 -0.25918144
v 0.08000098 1.10003185 -0.38941133
v -0.08083542 1.10011792 -0.39042309
v -0.56406766 1.00730276 -0.21365260
v -0.61008596 1.00088072 -0.08301391
v -0.45232496 0.97798467 -0.46690628
v -0.51145118 0.99914628 -0.34514210
v -0.76584780 0.85463750 -0.24094534
v -0.64766955 0.93483573 -0.29717466
v -0.71540117 0.85049784 -0.37614790
v -0.13368908 0.75111234 -0.88273376
v -0.21456656 0.82469988 -0.80275053
v -0.47911283 0.72433704 -0.77724302
v -0.35217771 0.77884936 -0.79867792
v -0.39539489 0.65626186 -0.87053102
v -0.29746270 0.88840336 -0.70732611
v -0.37190172 0.93839139 -0.60239667
v -0.91063362 0.43709576 -0.51060283
v -0.82881469 0.50825524 -0.60031629
v -0.82852310 0.39032584 -0.65019727
v -0.77450401 0.73442566 -0.46497968
v -0.80893201 0.62748760 -0.53467119
v -0.87149554 0.66186726 -0.38783658
v -0.63376927 0.53194350 -0.79085833
v -0.72875589 0.58346462 -0.67321271
v -0.61985505 0.65208536 -0.73013711
v -0.51670474 0.88604522 -0.56828213
v -0.57541794 0.77375323 -0.66032851
v -0.65568054 0.81748253 -0.52060908
v -0.70155609 0.94318575 -0.00143277
v -0.85473412 0.78077126 -0.16189297
v -0.78602999 0.86800516 -0.08405624
v -0.78642195 0.86822891 0.07927047
v -0.85415626 0.78159893 0.15774404
v -0.97262496 0.32005665 -0.42252719
v -0.97354788 0.43744314 -0.37593886
v -1.03923857 0.44215649 -0.08263483
v -1.01862442 0.43847486 -0.22936465
v -1.05028474 0.32276013 -0.14139909
v -0.95691615 0.55363953 -0.31560269
v -0.92057866 0.66440946 -0.24756432
v -0.97212839 0.43645594 0.37717843
v -0.97100955 0.31682724 0.43066663
v -0.91988885 0.66833270 0.24720377
v -0.95441139 0.56046486 0.31596136
v -1.04595971 0.31809866 0.15010428
v -1.01621485 0.44107240 0.23414445
v -1.03838885 0.43869177 0.09070419
v -0.94144899 0.67714787 -0.08584721
v -1.00656390 0.55923593 0.00185046
v -0.94285607 0.67946541 0.08367677
v 0.56442028 1.00906789 0.21073386
v 0.60887903 1.00084436 0.07985244
v 0.45247069 0.97877806 0.46615288
v 0.51294011 1.00035822 0.34349859
v 0.76736230 0.85715377 0.23937549
v 0.64808321 0.93546093 0.29607689
v 0.71657854 0.85172033 0.37575901
v 0.13590805 0.75345600 0.88592839
v 0.21759981 0.82570142 0.80293924
v 0.48253155 0.72662508 0.77973634
v 0.35355741 0.77790970 0.79775566
v 0.40003568 0.65553802 0.87263513
v 0.29790241 0.88923287 0.70619518
v 0.37296683 0.93849325 0.60115367
v 0.91366297 0.44049188 0.50990772
v 0.83358055 0.51523519 0.59741372
v 0.83191442 0.39755020 0.64783257
v 0.77855831 0.73931503 0.46495560
v 0.81374240 0.63349187 0.53506219
v 0.87492698 0.66758102 0.38700959
v 0.63861388 0.53293580 0.79317957
v 0.73432225 0.58860457 0.67607749
v 0.62430125 0.65441442 0.73387086
v 0.51866841 0.88844597 0.56835687
v 0.57589990 0.77635193 0.65879351
v 0.65720999 0.82101089 0.52118540
v -0.13451903 0.64459896 0.95839232
v 0.00198637 0.68464482 0.94400567
v -0.40284720 0.54122567 0.93250686
v -0.27394959 0.59542441 0.95487845
v 0.00302636 0.45057011 1.04550183
v -0.13794170 0.52315515 1.01280653
v -0.14049448 0.40023753 1.04532540
v -0.83679301 0.25066632 0.66011423
v -0.75290400 0.32448396 0.74434477
v -0.55399334 0.19633093 0.90757984
v -0.65999699 0.25453737 0.83006483
v -0.66113150 0.12721339 0.83016676
v -0.65303463 0.39945585 0.82046646
v -0.54402155 0.46697506 0.88259166
v 0.00090088 0.00850162 1.05611610
v -0.14014275 0.03575916 1.04956055
v -0.14833435 0.00000000 1.01116049
v -0.14434622 0.25548944 1.05027509
v -0.14525379 0.14389971 1.05208051
v -0.00334495 0.20529234 1.05865860
v -0.43208718 0.02586366 0.96831262
v -0.28476906 0.08031549 1.02264059
v -0.41669434 0.11775075 0.97705364
v -0.42182645 0.40147668 0.96370989
v -0.42752510 0.25550884 0.97392333
v -0.28367537 0.32770470 1.02206540
v -0.99822623 0.20739791 0.39085868
v -0.92880821 0.20302385 0.52526391
v -1.06156909 0.20807055 0.09267540
v -1.03741670 0.20233744 0.23731080
v -0.97577822 0.02316146 0.42732778
v -1.01721478 0.09641828 0.33484897
v -1.02459359 0.00000000 0.26753271
v -0.93624538 0.21545990 -0.51971298
v -1.00085032 0.21103834 -0.37828770
v -1.03345394 0.03912684 -0.28004870
v -1.01722562 0.10002829 -0.32970926
v -0.96833336 0.00547056 -0.43039250
v -1.04605544 0.21180308 -0.23369290
v -1.06895232 0.21083443 -0.08525329
v -0.64744306 0.00589466 0.03470673
v -0.76874071 0.00272499 -0.05606628
v -0.65071666 0.08854996 -0.12599859
v -0.98624301 0.00000000 0.16767934
v -0.87754756 0.00118666 0.06376283
v -0.86146802 0.01139307 0.23693608
v -0.80872220 0.04182684 -0.27251664
v -0.88288337 0.03573374 -0.13038200
v -0.96142280 0.00000000 -0.19961399
v -1.07431638 0.10058948 0.00241772
v -1.06591821 0.00079941 -0.09927250
v -1.06363797 0.00452636 0.09305755
v -0.75720972 0.32478032 -0.74250716
v -0.83983654 0.25370321 -0.65613317
v -0.54605532 0.46064669 -0.87781936
v -0.65530676 0.39079541 -0.81769639
v -0.67547119 0.12873212 -0.83980757
v -0.66775000 0.25517476 -0.83473915
v -0.56705588 0.19599055 -0.91224146
v 0.00008403 0.68133909 -0.94156659
v -0.13554172 0.64253503 -0.95515853
v -0.14279495 0.39934412 -1.04455769
v -0.13793541 0.51998329 -1.00879252
v -0.00012484 0.44805008 -1.04344773
v -0.27277094 0.59096026 -0.94939691
v -0.40234384 0.53455377 -0.92762059
v -0.14860848 0.00000000 -1.02800703
v -0.14451058 0.05328830 -1.06110883
v 0.00687548 0.01496797 -1.06685317
v -0.42338827 0.12967330 -0.98509830
v -0.29873845 0.08343239 -1.02948010
v -0.44366357 0.01922776 -0.98201418
v -0.00180511 0.20893548 -1.08297825
v -0.14785527 0.13574222 -1.06187880
v -0.14465563 0.25741166 -1.06196809
v -0.42483607 0.39781371 -0.96641546
v -0.28778526 0.32608190 -1.02644253
v -0.43534735 0.25501990 -0.98392588
v 0.21640699 0.82432622 -0.80178803
v 0.13445628 0.75133657 -0.88415277
v 0.37152684 0.93916708 -0.60074365
v 0.29747704 0.89001656 -0.70557553
v 0.39486116 0.65810782 -0.86919487
v 0.35333374 0.78074616 -0.79759800
v 0.48173195 0.72624665 -0.77633232
v 0.61028242 1.00135577 -0.08051543
v 0.56547362 1.00956571 -0.21060376
v 0.71664703 0.85267037 -0.37408057
v 0.64840108 0.93736404 -0.29556319
v 0.76788473 0.85683322 -0.23849650
v 0.51174235 1.00089276 -0.34269544
v 0.45143279 0.98068845 -0.46634576
v 0.82971352 0.40381542 -0.65132684
v 0.83186018 0.52019280 -0.59875655
v 0.91314727 0.44576281 -0.50979388
v 0.62225366 0.65604001 -0.73185670
v 0.73163652 0.59000039 -0.67480856
v 0.63149393 0.53916049 -0.79287887
v 0.87012845 0.66570276 -0.38705558
v 0.81143236 0.63619268 -0.53587908
v 0.77632993 0.74061644 -0.46522453
v 0.51755697 0.88907081 -0.56683606
v 0.65728450 0.81968671 -0.51910806
v 0.57645828 0.77844852 -0.65841478
v 0.65618867 0.16746590 0.06902169
v 0.60912502 0.12433539 0.22611107
v 0.52073777 0.15466431 0.16931623
v 0.81646276 0.07216573 0.41630816
v 0.68740356 0.10481650 0.33647972
v 0.82544684 0.03525396 0.25033173
v 0.37617072 0.00137137 0.39686570
v 0.54587424 0.06302626 0.36376780
v 0.48315293 0.03715648 0.51296109
v 0.83640927 0.25274330 0.65512830
v 0.87657714 0.14760925 0.62603599
v 0.93263155 0.21250941 0.51922101
v 0.68764788 0.00527197 0.79277885
v 0.77944452 0.08614680 0.72232896
v 0.66360998 0.11543144 0.82858348
v 0.96978647 0.03982518 0.41196066
v 0.88934487 0.07243751 0.57370150
v 0.90004689 0.00000000 0.50887644
v 0.09042188 0.04746459 0.90759993
v 0.24402332 0.00276848 0.91584438
v 0.15836827 0.00000000 1.01568735
v 0.40603322 0.04750766 0.68143785
v 0.33721519 0.00314899 0.80389500
v 0.23659830 0.00376372 0.67472732
v 0.44855541 0.00924925 0.95755035
v 0.41778141 0.00000000 0.92604375
v 0.55394173 0.00000000 0.88957107
v 0.76180708 0.00147475 0.58620268
v 0.66612679 0.00000000 0.75792253
v 0.57917976 0.00004915 0.64223003
v 0.37377813 0.07208952 0.15429321
v 0.42318106 0.09599797 0.02097309
v 0.20351276 0.01062673 0.39656794
v 0.30528709 0.07171429 0.28906870
v 0.12076564 0.03713246 0.03519552
v 0.20475115 0.05810931 0.16337001
v 0.08006947 0.08113394 0.17947355
v -0.09779219 0.00086185 0.91273475
v -0.01830664 0.01470731 0.79510444
v -0.19349760 0.14381190 0.54634792
v -0.12516589 0.09794775 0.67216420
v -0.29190847 0.05946415 0.64293694
v 0.06127279 0.08224171 0.68570983
v 0.11692150 0.02644628 0.55117494
v -0.42010304 0.10659465 0.06935696
v -0.40171570 0.19530971 0.19792409
v -0.52906871 0.15048580 0.10662065
v -0.08697117 0.09847724 0.18862073
v -0.22794956 0.19024676 0.19318284
v -0.16319561 0.07573398 0.05521955
v -0.41882333 0.13550161 0.39370984
v -0.32496148 0.08105690 0.28823268
v -0.27899036 0.18409629 0.42100725
v 0.08604430 0.16547382 0.46112165
v -0.10474167 0.16815728 0.46053308
v -0.00717912 0.08182601 0.34491494
v 0.39067495 0.08803929 -0.09488079
v 0.47455609 0.22683482 -0.13162740
v 0.07168963 0.07101680 -0.09712397
v 0.21414793 0.04358136 -0.11766958
v 0.39518428 0.11516105 -0.39378133
v 0.31988436 0.03288573 -0.24148197
v 0.24467182 0.02578678 -0.37174183
v -0.45767000 0.04993060 -0.13061331
v -0.35971236 0.05452119 -0.07733960
v -0.23399870 0.01044703 -0.33325583
v -0.33614439 0.04781937 -0.21591611
v -0.37349078 0.04287231 -0.38030931
v -0.25557512 0.08153775 -0.08032493
v -0.11519744 0.03818764 -0.09859256
v 0.09867229 0.03813912 -0.87726068
v 0.00361607 0.00552336 -0.76540732
v -0.09990866 0.02464399 -0.88203096
v 0.17070843 0.02778406 -0.50115293
v 0.08309995 0.00000000 -0.63084030
v 0.27699998 0.03703771 -0.63348436
v -0.23697861 0.00752320 -0.63475859
v -0.08570389 0.02713407 -0.61592305
v -0.14575697 0.00338798 -0.49243784
v 0.00532184 0.04900547 -0.21679126
v -0.07374935 0.02611629 -0.34212679
v 0.07676273 0.05424505 -0.36096799
v 0.58745837 0.17263120 -0.23757143
v 0.63281310 0.16891733 -0.09463832
v 0.49867702 0.02564165 -0.48722455
v 0.52239823 0.14801407 -0.37339559
v 0.86167932 0.04956309 -0.25449717
v 0.69097519 0.12721130 -0.31552351
v 0.78928554 0.05971437 -0.40290442
v 0.16148029 0.00000000 -1.03275442
v 0.24895366 0.00000000 -0.92349511
v 0.55715555 0.00000000 -0.90326369
v 0.40703672 0.00000000 -0.91722715
v 0.44591644 0.03851503 -0.98866421
v 0.35206121 0.00376064 -0.78581607
v 0.42966226 0.08797289 -0.65689957
v 0.93550140 0.21774112 -0.52426136
v 0.87003589 0.15896405 -0.63357538
v 0.84203243 0.26962632 -0.66189426
v 0.89455605 0.00000000 -0.51684016
v 0.89021307 0.05079151 -0.59590340
v 0.97365755 0.00931369 -0.42725644
v 0.66184241 0.13348995 -0.84173399
v 0.78471571 0.08834732 -0.73834205
v 0.69717127 0.02906101 -0.82199782
v 0.58408755 0.00123210 -0.61284184
v 0.66750717 0.00000000 -0.74172109
v 0.73139501 0.02416082 -0.54921210
v 0.77687812 0.13373275 -0.01401469
v 0.98180884 0.00614322 -0.18515548
v 0.87470537 0.06842975 -0.09159873
v 0.89021516 0.05157885 0.08819737
v 0.97823173 0.00018129 0.18793346
v 0.97506362 0.32980266 -0.42925680
v 0.99698657 0.21579015 -0.38570607
v 1.06336308 0.20424348 -0.08960709
v 1.03880179 0.21093465 -0.23721485
v 1.05446196 0.32496285 -0.14700553
v 1.01727951 0.10589147 -0.33927792
v 1.02147746 0.05952525 -0.27187848
v 1.00098443 0.21670054 0.38418791
v 0.97501808 0.32590652 0.42806870
v 1.02620625 0.02739553 0.25778615
v 1.00511038 0.11150325 0.32106647
v 1.05504775 0.32437593 0.14135273
v 1.04519665 0.21303339 0.23067881
v 1.06462610 0.20961455 0.08182303
v 1.05255246 0.00134993 -0.09566563
v 1.05860424 0.08986059 -0.00299169
v 1.04591596 0.00112015 0.09886771
v 0.15264569 0.04133833 1.04905879
v 0.42829359 0.11891503 0.97198600
v 0.29980850 0.06253650 1.01871955
v 0.14682434 0.12780538 1.04453027
v 0.14190805 0.24895872 1.04973304
v 0.75865561 0.32531074 0.74452513
v 0.55252540 0.46054205 0.88561654
v 0.66143239 0.39527783 0.82360470
v 0.66799068 0.25006747 0.83428752
v 0.56333578 0.18808553 0.90511286
v 0.13982625 0.64325047 0.95820886
v 0.14422463 0.39638671 1.04688787
v 0.14226337 0.52067405 1.01247215
v 0.27841267 0.59316266 0.95423460
v 0.40737492 0.53457093 0.93067586
v 0.43179497 0.25089908 0.97601837
v 0.42898324 0.39259782 0.96631575
v 0.28590673 0.32250771 1.02149367
v -0.63015896 0.05121272 0.18285111
v -0.51822191 0.05295266 0.49545410
v -0.58523583 0.05234139 0.35838988
v -0.73448586 0.05731094 0.28619793
v -0.82230502 0.05001652 0.40311366
v -0.25903702 0.00000000 0.92285043
v -0.54965800 0.00000000 0.89839673
v -0.40800840 0.00000000 0.92544091
v -0.35941330 0.01081719 0.79500198
v -0.44154596 0.05702085 0.64392066
v -0.86039263 0.13460825 0.62495351
v -0.88882494 0.00000000 0.52384007
v -0.88328987 0.03373644 0.58693576
v -0.77462548 0.07207606 0.72572100
v -0.67884195 0.00990354 0.81023800
v -0.61250019 0.00003462 0.62161285
v -0.68090260 0.00000000 0.75849849
v -0.75668162 0.00002234 0.58168030
v -0.26547477 0.00174755 -0.90781534
v -0.39201725 0.05124596 -0.63718128
v -0.33956689 0.00798846 -0.76114744
v -0.42027333 0.00000000 -0.90420806
v -0.56468379 0.00099081 -0.89083713
v -0.60871768 0.06725087 -0.22368567
v -0.75567961 0.01983511 -0.42398199
v -0.67650902 0.12611572 -0.34097755
v -0.53696465 0.02830203 -0.36707294
v -0.47803381 0.06583095 -0.49556851
v -0.86709028 0.14744078 -0.61658317
v -0.69515699 0.02920704 -0.81460643
v -0.79615104 0.08207239 -0.73025405
v -0.90150875 0.07679642 -0.57102412
v -0.87758720 0.00000000 -0.52740890
v -0.57264835 0.07985350 -0.63367546
v -0.73786873 0.00000000 -0.59078336
v -0.66284162 0.00000000 -0.75358003
v 0.75707120 0.33471102 -0.74740314
v 0.55965275 0.20020524 -0.91278678
v 0.66316074 0.26489723 -0.83701277
v 0.65616643 0.40094146 -0.82348049
v 0.54733717 0.46698305 -0.88326460
v 0.15331854 0.05896927 -1.07018447
v 0.14101581 0.26109642 -1.05927813
v 0.14675944 0.15680838 -1.07375336
v 0.29519209 0.09143738 -1.03992271
v 0.42082626 0.13631260 -0.98681694
v 0.13594995 0.64242065 -0.95452851
v 0.40251929 0.53628600 -0.92872995
v 0.27460116 0.59409964 -0.95062864
v 0.13764814 0.52015650 -1.00786984
v 0.14181849 0.39910200 -1.04623759
v 0.43073481 0.26215488 -0.97806859
v 0.28494135 0.33106700 -1.02088177
v 0.42398193 0.40016618 -0.96079820
v 0.98028958 0.44176543 0.37791857
v 1.04498625 0.43976209 0.08418313
v 1.02447212 0.44618747 0.23056772
v 0.95850796 0.56105846 0.31392130
v 0.92260492 0.66741908 0.24460538
v 0.97378224 0.44614768 -0.37705719
v 0.91803348 0.67013514 -0.24709992
v 0.95678937 0.56160569 -0.31405023
v 1.01850462 0.44609532 -0.23173007
v 1.04188967 0.44649437 -0.08751888
v 0.70237613 0.94315773 0.00030587
v 0.85741723 0.78404963 0.15953463
v 0.78668606 0.86929691 0.08310503
v 0.78750503 0.86825657 -0.08139716
v 0.85690784 0.78258795 -0.15726329
v 1.00593698 0.56261098 0.00023062
v 0.94317961 0.67977554 -0.08556934
v 0.94407749 0.68166661 0.08462151
f 330 87 329
f 336 325 26
f 207 208 56
f 464 36 580
f 502 129 504
f 157 624 622
f 308 311 82
f 247 223 248
f 507 483 508
f 331 88 329
f 494 500 497
f 156 601 602
f 591 589 592
f 365 98 596
f 75 281 282
f 152 587 577
f 149 559 560
f 555 121 553
f 530 141 529
f 515 517 139
f 361 594 98
f 250 67 249
f 157 608 609
f 294 293 209
f 317 81 316
f 557 338 26
f 303 305 81
f 530 529 528
f 101 381 382
f 415 418 111
f 192 184 50
f 412 110 411
f 20 384 256
f 131 594 486
f 281 264 282
f 347 287 348
f 28 349 582
f 165 163 1
f 248 250 66
f 617 107 398
f 273 271 274
f 456 115 453
f 558 561 560
f 335 576 91
f 331 177 332
f 116 433 436
f 351 370 92
f 136 511 530
f 239 240 65
f 247 258 19
f 304 23 567
f 148 557 570
f 214 208 58
f 440 426 450
f 268 270 269
f 258 247 268
f 204 202 16
f 466 125 465
f 517 513 133
f 168 275 274
f 275 73 274
f 198 193 53
f 309 308 307
f 510 511 136
f 415 416 110
f 131 490 597
f 473 475 474
f 414 415 111
f 493 495 494
f 496 504 485
f 433 116 432
f 600 375 601
f 240 234 65
f 418 415 412
f 486 361 3
f 567 566 304
f 380 393 29
f 17 199 197
f 491 492 132
f 451 449 435
f 218 217 216
f 623 621 613
f 396 104 395
f 433 439 436
f 628 160 627
f 215 202 217
f 209 207 2
f 427 113 424
f 434 10 544
f 434 433 432
f 199 17 210
f 150 564 565
f 489 491 132
f 275 13 285
f 497 500 134
f 125 466 476
f 578 152 577
f 208 214 211
f 328 88 343
f 356 27 603
f 150 566 567
f 372 100 371
f 190 191 47
f 235 8 398
f 260 261 72
f 422 403 414
f 422 414 111
f 453 454 123
f 349 583 582
f 521 520 519
f 425 453 115
f 616 622 158
f 483 130 508
f 151 586 572
f 212 17 232
f 400 397 402
f 377 396 99
f 41 522 511
f 510 508 505
f 549 547 42
f 475 473 36
f 510 137 509
f 222 221 197
f 430 115 429
f 220 194 1
f 305 54 204
f 621 29 613
f 192 171 184
f 460 335 5
f 88 331 332
f 74 277 279
f 300 301 80
f 390 389 388
f 165 45 164
f 146 549 551
f 291 278 75
f 448 120 445
f 147 543 544
f 607 610 609
f 603 602 356
f 139 529 514
f 333 553 443
f 92 368 347
f 261 260 259
f 300 6 200
f 46 177 331
f 284 283 174
f 301 300 200
f 471 468 474
f 54 305 301
f 302 304 303
f 569 150 567
f 150 569 570
f 294 209 2
f 628 629 160
f 548 543 147
f 147 625 627
f 63 233 234
f 426 427 114
f 41 509 532
f 198 52 196
f 614 105 612
f 147 627 547
f 81 305 306
f 549 548 547
f 54 301 200
f 342 88 332
f 264 281 70
f 193 194 53
f 455 429 456
f 187 321 14
f 479 130 484
f 147 544 625
f 458 456 453
f 304 80 303
f 314 84 313
f 488 503 501
f 321 332 14
f 423 425 424
f 305 204 306
f 341 339 25
f 514 40 516
f 625 628 627
f 340 339 341
f 105 614 391
f 243 228 62
f 318 316 78
f 75 278 279
f 357 355 353
f 238 257 63
f 466 455 476
f 425 423 4
f 448 449 120
f 408 638 108
f 292 275 285
f 22 278 289
f 515 513 517
f 501 503 134
f 622 623 158
f 134 503 504
f 195 216 206
f 163 271 246
f 619 617 620
f 62 228 229
f 163 165 164
f 453 425 454
f 489 132 488
f 82 628 625
f 58 208 209
f 525 608 40
f 626 547 627
f 518 517 498
f 489 487 491
f 557 26 564
f 325 336 344
f 541 145 539
f 40 616 516
f 338 556 89
f 250 248 245
f 139 514 515
f 98 594 596
f 246 220 1
f 112 413 630
f 9 536 413
f 156 600 601
f 332 177 14
f 321 342 332
f 156 606 600
f 584 330 585
f 302 303 81
f 584 87 330
f 330 25 585
f 400 239 65
f 439 440 117
f 95 358 368
f 597 594 131
f 594 361 486
f 246 67 245
f 561 562 149
f 28 364 362
f 55 216 217
f 427 430 114
f 267 20 254
f 556 555 553
f 84 309 558
f 311 310 312
f 609 525 142
f 256 68 255
f 124 460 461
f 82 311 312
f 307 308 82
f 589 135 495
f 527 40 514
f 112 418 412
f 20 256 254
f 258 238 19
f 267 254 269
f 273 272 249
f 392 391 393
f 137 533 509
f 122 455 456
f 9 413 411
f 130 480 505
f 333 443 5
f 527 525 40
f 589 495 385
f 39 496 485
f 223 225 224
f 414 416 415
f 219 222 53
f 145 538 539
f 413 412 411
f 469 468 467
f 183 181 6
f 191 192 50
f 429 35 431
f 292 285 76
f 413 112 412
f 415 110 412
f 43 164 167
f 467 468 126
f 617 101 620
f 450 451 117
f 438 546 545
f 619 620 159
f 17 212 210
f 124 579 576
f 584 153 583
f 460 124 576
f 3 469 467
f 311 308 314
f 6 320 183
f 389 104 388
f 251 250 249
f 194 165 1
f 291 289 278
f 287 77 348
f 238 258 257
f 139 517 518
f 238 236 19
f 223 247 19
f 382 380 29
f 39 518 498
f 361 359 3
f 69 255 257
f 139 518 528
f 33 545 535
f 387 385 7
f 69 268 269
f 477 462 125
f 454 479 123
f 121 555 447
f 451 435 117
f 454 425 4
f 233 252 8
f 124 463 464
f 69 258 268
f 168 167 166
f 583 153 582
f 384 394 102
f 138 512 513
f 57 210 211
f 254 256 255
f 607 609 142
f 324 319 86
f 289 291 76
f 291 292 76
f 384 102 383
f 422 421 420
f 221 17 197
f 383 102 381
f 376 377 99
f 99 373 374
f 386 105 392
f 438 33 440
f 90 341 343
f 281 75 279
f 574 571 96
f 628 82 312
f 221 222 59
f 127 471 474
f 595 605 603
f 551 538 145
f 334 91 340
f 322 324 85
f 305 303 301
f 18 239 399
f 306 204 16
f 199 198 197
f 166 190 180
f 303 80 301
f 267 266 265
f 626 42 547
f 16 215 213
f 349 351 350
f 295 16 213
f 68 379 252
f 250 251 66
f 627 160 626
f 383 68 256
f 343 88 342
f 507 508 136
f 202 215 16
f 197 198 53
f 254 69 269
f 603 605 156
f 418 419 111
f 384 383 256
f 455 122 476
f 203 204 54
f 556 557 148
f 255 68 253
f 313 84 560
f 25 328 341
f 254 255 69
f 603 156 602
f 581 584 583
f 630 632 112
f 163 246 1
f 246 245 220
f 432 116 558
f 499 591 590
f 320 563 86
f 345 93 350
f 306 16 295
f 346 93 345
f 562 568 149
f 604 605 155
f 154 592 593
f 545 552 535
f 511 522 530
f 574 573 571
f 566 150 565
f 361 98 360
f 67 271 273
f 234 235 65
f 208 211 56
f 574 151 573
f 251 270 66
f 398 8 378
f 213 215 214
f 438 440 439
f 315 314 313
f 263 71 262
f 20 373 384
f 496 134 504
f 329 88 328
f 81 306 316
f 555 556 148
f 592 589 103
f 617 619 107
f 227 207 56
f 571 359 96
f 446 466 465
f 206 216 55
f 359 571 469
f 568 148 570
f 34 437 435
f 28 351 349
f 21 272 282
f 113 423 424
f 490 489 488
f 379 68 383
f 210 212 211
f 80 563 300
f 351 92 350
f 326 346 12
f 83 317 318
f 555 148 554
f 212 231 56
f 218 57 217
f 271 67 246
f 195 196 52
f 270 268 66
f 390 592 103
f 148 568 554
f 495 493 7
f 592 390 593
f 357 95 355
f 574 575 151
f 452 120 451
f 154 591 592
f 587 585 577
f 395 394 396
f 93 349 350
f 610 416 611
f 166 44 190
f 315 23 302
f 315 302 317
f 268 247 66
f 606 154 593
f 396 394 99
f 211 212 56
f 370 369 368
f 235 397 65
f 280 278 22
f 83 315 317
f 575 588 151
f 74 279 280
f 385 495 7
f 63 257 253
f 397 235 398
f 214 58 213
f 220 219 194
f 546 146 545
f 236 225 19
f 599 94 602
f 235 233 8
f 102 394 395
f 611 416 32
f 225 223 19
f 139 528 529
f 231 62 229
f 419 406 421
f 451 450 452
f 49 182 185
f 402 397 107
f 52 199 218
f 416 610 110
f 225 236 244
f 107 397 398
f 68 252 253
f 322 85 321
f 182 181 183
f 118 438 439
f 546 438 118
f 348 77 345
f 543 546 118
f 231 212 232
f 610 611 157
f 33 438 545
f 385 386 103
f 479 480 130
f 169 195 15
f 93 583 349
f 15 195 206
f 190 44 192
f 247 248 66
f 146 552 545
f 248 60 245
f 570 557 564
f 274 271 43
f 63 253 233
f 272 21 249
f 507 528 518
f 67 273 249
f 487 467 126
f 196 195 169
f 624 159 623
f 134 496 497
f 132 503 488
f 104 393 395
f 556 553 89
f 355 356 94
f 258 69 257
f 229 61 227
f 56 231 227
f 460 576 335
f 463 124 461
f 394 373 99
f 29 393 391
f 67 250 245
f 193 198 196
f 462 36 464
f 144 633 630
f 141 526 527
f 517 133 498
f 536 144 630
f 100 372 599
f 144 536 537
f 22 289 287
f 578 579 152
f 579 578 576
f 189 188 187
f 60 223 224
f 92 348 350
f 555 554 447
f 396 377 388
f 194 193 165
f 413 536 630
f 372 352 599
f 377 376 375
f 348 345 350
f 105 386 387
f 240 237 234
f 463 462 464
f 135 500 494
f 45 196 169
f 512 612 387
f 245 60 220
f 429 115 456
f 223 60 248
f 288 289 76
f 525 526 142
f 100 599 601
f 613 29 391
f 526 523 520
f 341 328 343
f 631 641 639
f 264 21 282
f 266 72 265
f 106 402 403
f 73 273 274
f 186 206 205
f 381 379 383
f 52 216 195
f 410 18 399
f 290 272 73
f 72 371 374
f 526 525 527
f 115 430 424
f 498 497 496
f 621 382 29
f 543 118 434
f 214 215 57
f 522 141 530
f 511 510 509
f 352 94 599
f 493 512 7
f 90 340 341
f 169 171 170
f 605 604 606
f 219 60 224
f 104 389 392
f 359 469 3
f 186 49 185
f 222 219 224
f 166 167 44
f 428 427 426
f 523 522 524
f 129 502 481
f 50 185 188
f 164 45 170
f 425 115 424
f 33 428 426
f 427 428 113
f 94 356 602
f 515 138 513
f 114 431 452
f 237 236 238
f 215 217 57
f 95 354 355
f 220 60 219
f 515 514 516
f 183 320 319
f 222 197 53
f 559 569 567
f 300 320 6
f 435 436 117
f 96 360 363
f 640 642 641
f 242 243 62
f 140 537 519
f 508 130 505
f 420 410 399
f 537 539 144
f 317 316 318
f 426 114 450
f 186 15 206
f 311 83 310
f 625 544 307
f 544 10 307
f 168 43 167
f 185 182 188
f 369 354 95
f 44 171 192
f 605 606 156
f 548 549 146
f 100 601 375
f 149 568 569
f 381 380 382
f 455 466 35
f 480 479 454
f 543 548 546
f 493 133 513
f 492 472 37
f 477 125 476
f 491 487 126
f 337 336 338
f 588 153 587
f 576 578 91
f 633 161 632
f 96 359 360
f 39 485 483
f 101 617 378
f 193 45 165
f 163 164 43
f 618 624 611
f 507 136 528
f 561 149 560
f 641 162 639
f 116 561 558
f 494 133 493
f 253 252 233
f 63 237 238
f 392 393 104
f 440 450 117
f 93 581 583
f 386 385 387
f 120 449 451
f 421 422 111
f 486 3 467
f 302 81 317
f 633 632 630
f 462 475 36
f 376 99 374
f 489 490 131
f 447 449 448
f 387 612 105
f 106 420 399
f 173 46 172
f 492 491 472
f 316 306 295
f 22 287 347
f 109 410 420
f 507 39 483
f 559 23 313
f 214 57 211
f 196 45 193
f 10 434 432
f 422 106 403
f 626 160 640
f 487 486 467
f 542 41 532
f 400 106 399
f 444 120 452
f 198 199 52
f 475 127 474
f 621 620 382
f 621 623 159
f 450 114 452
f 92 347 348
f 376 100 375
f 434 118 433
f 503 132 502
f 337 90 336
f 537 536 519
f 395 393 380
f 201 54 200
f 171 44 170
f 355 94 353
f 58 296 213
f 422 420 106
f 595 365 596
f 569 568 570
f 523 140 520
f 114 430 431
f 218 210 57
f 304 566 80
f 639 162 638
f 261 371 72
f 548 147 547
f 498 133 497
f 150 570 564
f 222 224 59
f 142 526 520
f 437 436 435
f 141 522 523
f 137 510 505
f 173 179 176
f 559 149 569
f 121 447 448
f 563 320 300
f 102 395 380
f 257 255 253
f 642 162 641
f 83 311 314
f 216 52 218
f 512 493 513
f 23 304 302
f 91 339 340
f 512 138 612
f 159 620 621
f 218 199 210
f 364 28 575
f 83 318 310
f 168 274 43
f 136 530 528
f 140 523 524
f 495 135 494
f 233 235 234
f 566 563 80
f 25 339 577
f 277 74 276
f 475 462 477
f 133 494 497
f 436 437 116
f 389 386 392
f 548 146 546
f 441 460 5
f 10 309 307
f 65 397 400
f 543 434 544
f 640 641 161
f 272 273 73
f 581 93 346
f 419 421 111
f 319 320 86
f 180 179 178
f 127 475 477
f 231 229 227
f 337 334 340
f 136 508 510
f 308 309 84
f 237 63 234
f 447 554 34
f 252 379 378
f 315 83 314
f 608 622 616
f 338 336 26
f 337 338 89
f 13 275 168
f 209 208 207
f 436 439 117
f 628 312 629
f 360 366 363
f 364 574 96
f 359 361 360
f 466 446 35
f 500 501 134
f 406 109 421
f 135 589 591
f 601 599 602
f 340 90 337
f 481 492 37
f 522 41 524
f 78 316 295
f 131 486 487
f 403 32 414
f 634 626 640
f 151 572 573
f 515 516 138
f 8 252 378
f 265 72 374
f 9 521 519
f 538 549 42
f 368 358 347
f 588 587 586
f 458 453 123
f 589 385 103
f 502 492 481
f 32 416 414
f 430 427 424
f 153 585 587
f 540 144 539
f 370 368 92
f 209 293 58
f 428 33 535
f 326 581 346
f 625 307 82
f 575 28 582
f 6 181 200
f 421 109 420
f 553 121 443
f 160 642 640
f 153 584 585
f 309 432 558
f 334 337 89
f 23 315 313
f 271 163 43
f 296 295 213
f 39 498 496
f 118 439 433
f 531 113 534
f 293 296 58
f 28 362 351
f 489 131 487
f 431 444 452
f 84 558 560
f 98 366 360
f 45 169 170
f 379 101 378
f 462 463 125
f 308 84 314
f 10 432 309
f 299 24 310
f 132 492 502
f 512 387 7
f 639 638 408
f 565 323 86
f 59 244 242
f 106 400 402
f 440 33 426
f 566 565 563
f 617 398 378
f 224 225 59
f 410 109 409
f 239 400 399
f 194 219 53
f 358 22 347
f 610 157 609
f 27 595 603
f 479 484 482
f 142 520 521
f 585 25 577
f 339 578 577
f 408 407 406
f 407 109 406
f 31 408 406
f 407 408 108
f 31 639 408
f 419 31 406
f 608 616 40
f 430 429 431
f 455 35 429
f 35 444 431
f 188 51 187
f 188 182 51
f 51 322 187
f 322 51 319
f 51 182 183
f 319 51 183
f 187 322 321
f 322 319 324
f 381 101 379
f 405 407 108
f 404 405 108
f 286 285 178
f 407 405 409
f 109 407 409
f 191 175 47
f 167 164 170
f 50 184 185
f 44 167 170
f 64 244 236
f 243 244 64
f 50 188 189
f 541 542 145
f 442 445 119
f 339 91 578
f 445 446 119
f 624 623 622
f 611 624 157
f 523 526 141
f 141 527 529
f 527 514 529
f 445 120 444
f 446 445 444
f 35 446 444
f 613 614 158
f 158 614 615
f 623 613 158
f 614 613 391
f 614 612 615
f 371 376 374
f 100 376 371
f 479 482 123
f 373 394 384
f 540 42 634
f 633 540 634
f 538 42 540
f 633 634 161
f 161 634 640
f 42 626 634
f 540 633 144
f 557 556 338
f 553 333 89
f 262 21 264
f 251 21 262
f 5 335 333
f 270 251 262
f 21 251 249
f 600 593 30
f 606 593 600
f 600 30 375
f 593 390 30
f 30 377 375
f 390 388 30
f 30 388 377
f 228 243 241
f 470 478 459
f 470 127 478
f 127 477 478
f 184 186 185
f 478 477 476
f 122 478 476
f 357 74 280
f 518 39 507
f 344 342 85
f 325 344 85
f 342 344 343
f 85 342 321
f 344 90 343
f 90 344 336
f 482 129 481
f 482 481 457
f 482 457 123
f 481 37 457
f 449 447 34
f 435 449 34
f 470 472 471
f 472 470 37
f 470 471 127
f 472 126 471
f 126 468 471
f 470 459 37
f 491 126 472
f 504 129 485
f 221 59 242
f 125 463 465
f 437 34 562
f 561 437 562
f 554 568 562
f 34 554 562
f 437 561 116
f 390 103 389
f 103 386 389
f 392 105 391
f 572 586 580
f 572 580 36
f 586 152 580
f 473 572 36
f 244 243 242
f 225 244 59
f 64 240 241
f 240 239 241
f 237 240 64
f 243 64 241
f 236 237 64
f 411 607 521
f 9 411 521
f 110 607 411
f 607 142 521
f 610 607 110
f 171 15 184
f 171 169 15
f 15 186 184
f 87 584 581
f 153 588 582
f 588 575 582
f 381 102 380
f 573 572 473
f 468 469 128
f 474 468 128
f 469 571 128
f 571 573 128
f 573 473 128
f 473 474 128
f 564 323 565
f 26 323 564
f 323 324 86
f 325 323 26
f 325 324 323
f 563 565 86
f 324 325 85
f 410 230 18
f 230 228 18
f 18 228 241
f 18 241 239
f 401 619 618
f 401 402 107
f 403 402 401
f 619 159 618
f 401 618 32
f 619 401 107
f 403 401 32
f 618 611 32
f 159 624 618
f 478 122 459
f 122 458 459
f 37 459 457
f 459 458 457
f 122 456 458
f 457 458 123
f 191 190 192
f 485 129 484
f 129 482 484
f 483 485 484
f 130 483 484
f 189 187 14
f 191 50 189
f 191 189 175
f 189 14 175
f 14 177 175
f 499 501 500
f 501 499 38
f 38 499 590
f 135 499 500
f 488 501 38
f 499 135 591
f 480 454 4
f 284 12 346
f 4 423 506
f 480 4 506
f 423 531 506
f 480 506 505
f 531 137 506
f 506 137 505
f 365 366 98
f 71 270 262
f 270 71 269
f 71 267 269
f 335 334 333
f 333 334 89
f 334 335 91
f 536 9 519
f 465 463 461
f 537 140 541
f 520 140 519
f 119 446 465
f 465 461 119
f 461 441 119
f 460 441 461
f 176 46 173
f 299 297 24
f 71 263 266
f 263 260 266
f 260 72 266
f 263 70 260
f 205 201 49
f 201 181 49
f 186 205 49
f 181 201 200
f 181 182 49
f 284 77 283
f 586 587 152
f 588 586 151
f 20 267 265
f 266 267 71
f 31 417 631
f 631 417 632
f 31 631 639
f 417 31 419
f 641 631 161
f 417 112 632
f 161 631 632
f 418 417 419
f 417 418 112
f 284 345 77
f 542 550 145
f 542 541 524
f 284 174 12
f 48 174 283
f 373 20 265
f 373 265 374
f 609 608 525
f 608 157 622
f 560 559 313
f 636 637 162
f 541 140 524
f 41 542 524
f 358 357 280
f 70 263 264
f 263 262 264
f 176 177 46
f 174 48 173
f 174 173 172
f 538 551 549
f 538 540 539
f 537 541 539
f 232 221 242
f 17 221 232
f 232 242 62
f 231 232 62
f 203 205 55
f 203 55 202
f 201 205 203
f 202 55 217
f 205 206 55
f 204 203 202
f 73 275 292
f 292 290 73
f 272 290 282
f 290 292 291
f 75 290 291
f 290 75 282
f 70 277 259
f 277 70 281
f 277 281 279
f 260 70 259
f 12 174 172
f 104 396 388
f 367 27 354
f 365 27 367
f 354 27 356
f 365 367 366
f 595 27 365
f 318 299 310
f 155 596 597
f 155 597 598
f 596 594 597
f 595 596 155
f 605 595 155
f 180 47 179
f 180 190 47
f 352 372 11
f 11 372 261
f 312 310 24
f 642 636 162
f 636 297 637
f 367 369 97
f 366 367 97
f 369 367 354
f 369 370 97
f 580 579 464
f 580 152 579
f 579 124 464
f 61 230 409
f 230 410 409
f 230 61 229
f 230 229 228
f 76 285 286
f 353 352 276
f 74 353 276
f 288 76 286
f 288 286 283
f 289 288 287
f 203 54 201
f 287 288 77
f 77 288 283
f 286 48 283
f 531 423 113
f 276 11 259
f 11 261 259
f 277 276 259
f 616 158 615
f 516 616 615
f 138 516 615
f 138 615 612
f 509 533 532
f 503 502 504
f 635 79 294
f 635 294 404
f 635 637 79
f 637 635 638
f 638 635 108
f 635 404 108
f 226 61 405
f 61 226 227
f 405 61 409
f 227 226 207
f 48 178 179
f 48 286 178
f 173 48 179
f 534 143 533
f 534 535 143
f 531 534 533
f 533 143 532
f 137 531 533
f 261 372 371
f 13 180 178
f 285 13 178
f 180 13 166
f 13 168 166
f 346 345 284
f 331 327 46
f 46 327 172
f 172 327 326
f 382 620 101
f 442 121 448
f 443 121 442
f 2 226 404
f 294 2 404
f 404 226 405
f 207 226 2
f 550 551 145
f 552 146 551
f 143 550 532
f 552 550 143
f 330 329 328
f 24 636 629
f 94 352 353
f 352 11 276
f 113 428 534
f 428 535 534
f 509 41 511
f 535 552 143
f 550 552 551
f 550 542 532
f 369 95 368
f 326 327 87
f 87 327 329
f 327 331 329
f 581 326 87
f 293 79 298
f 79 297 298
f 296 298 78
f 79 293 294
f 296 293 298
f 598 490 38
f 358 280 22
f 280 279 278
f 357 358 95
f 74 357 353
f 330 328 25
f 567 23 559
f 590 598 38
f 590 604 598
f 598 604 155
f 604 590 154
f 590 591 154
f 604 154 606
f 297 299 298
f 299 318 78
f 298 299 78
f 355 354 356
f 629 636 642
f 312 24 629
f 629 642 160
f 370 362 97
f 362 363 97
f 363 366 97
f 364 363 362
f 362 370 351
f 96 363 364
f 297 636 24
f 162 637 638
f 637 297 79
f 490 488 38
f 598 597 490
f 441 442 119
f 443 442 441
f 443 441 5
f 442 448 445
f 296 78 295
f 326 12 172
f 575 574 364
f 47 175 176
f 175 177 176
f 47 176 179
