# FEM surface export ¡ª frame 313
# Vertices: 642  Faces: 1280
v -0.52537113 1.39503956 -0.00004013
v 0.52549201 1.39318490 0.00054217
v -0.61052459 0.00000000 -0.01152327
v 0.60326654 0.00000000 -0.01179680
v 0.00232585 0.10505466 0.92871410
v -0.00132449 1.08748007 0.85864633
v -0.00060571 0.10803215 -0.93324578
v -0.00000324 1.08543563 -0.85743612
v 0.88520646 0.58986837 -0.54843336
v 0.88459986 0.59069604 0.54692167
v -0.88409764 0.58950567 -0.54757214
v -0.88267457 0.59168327 0.54585636
v -0.81670552 1.06109726 0.31185609
v -0.50880241 0.88222432 0.82425159
v -0.30928341 1.35409355 0.49968219
v 0.30930716 1.35365355 0.50079161
v 0.00022764 1.53706682 0.00012091
v 0.30923045 1.35395300 -0.50000471
v -0.30914354 1.35510957 -0.50016820
v -0.51012760 0.87995720 -0.82415706
v -0.81671244 1.06208098 -0.31199121
v -1.03849411 0.58737922 -0.00136758
v 0.50999945 0.88253313 0.82622844
v 0.81691688 1.05912960 0.31179208
v -0.53204018 0.30281812 0.86499316
v 0.00004484 0.58868825 1.04022825
v -0.88529801 0.12924652 -0.33488089
v -0.88256419 0.13120806 0.34073210
v -0.00227157 0.59053910 -1.03962886
v -0.53163213 0.29897940 -0.86195236
v 0.81746465 1.05954111 -0.31161398
v 0.50861627 0.87966108 -0.82393163
v 0.88417953 0.12979063 0.33855459
v 0.53550839 0.30161050 0.86398935
v 0.34704313 0.00000000 0.57222301
v -0.36361825 0.00000000 0.57712048
v -0.00724971 0.00000000 0.00611844
v -0.35625625 0.00000000 -0.56612891
v 0.35405692 0.00000000 -0.56958205
v 0.53564572 0.30117932 -0.86599171
v 0.88822430 0.12942502 -0.33736485
v 1.04253531 0.58962083 -0.00120859
v -0.69522166 1.25291777 0.16083419
v -0.58937502 1.24000442 0.42632812
v -0.43370640 1.40573013 0.25936249
v -0.71901590 0.74292284 0.71255499
v -0.69691855 0.99132419 0.59507084
v -0.88035375 0.83505690 0.44257843
v -0.16135286 1.24461997 0.70368952
v -0.42827600 1.14472365 0.69184154
v -0.26358539 1.00049150 0.87417710
v -0.16188765 1.48999453 0.26242295
v -0.27232283 1.50084078 0.00015137
v 0.16042747 1.24366724 0.70406717
v 0.00011927 1.39325988 0.52540380
v 0.27270946 1.50021231 0.00041123
v 0.16270365 1.49029970 0.26286814
v 0.43397763 1.40453172 0.26012987
v -0.16196200 1.49032974 -0.26236543
v -0.43355605 1.40656972 -0.25958905
v 0.43379813 1.40530121 -0.25957412
v 0.16221257 1.49027836 -0.26241696
v -0.16074814 1.24347603 -0.70314920
v 0.00067545 1.39381158 -0.52529639
v 0.16151552 1.24339604 -0.70397097
v -0.58971757 1.23984385 -0.42639974
v -0.69536632 1.25272119 -0.16124897
v -0.26365116 0.99758792 -0.87239188
v -0.42767563 1.14424229 -0.69208300
v -0.88176513 0.83550364 -0.44420221
v -0.69653094 0.99102777 -0.59527749
v -0.72215670 0.74093646 -0.71336359
v -0.85790682 1.08631766 -0.00005463
v -0.99987888 0.58841670 -0.28533140
v -0.97340405 0.83799112 -0.16730745
v -0.97121346 0.83722937 0.16497047
v -0.99841237 0.58778381 0.28243071
v 0.58973306 1.23679399 0.42690217
v 0.69508135 1.25064671 0.16107629
v 0.26265302 0.99839884 0.87467629
v 0.42731720 1.14287686 0.69245005
v 0.88132560 0.83398366 0.44334176
v 0.69765532 0.99011546 0.59562528
v 0.72224313 0.74231464 0.71246964
v -0.26942828 0.74366349 0.97833490
v -0.00088487 0.84836102 0.98386574
v -0.73711479 0.44172516 0.73044193
v -0.54394805 0.59216261 0.88359004
v 0.00176557 0.33095229 1.02287078
v -0.27471155 0.43656275 1.00238264
v -0.27959967 0.18454632 0.93347621
v -1.00802374 0.33880979 0.17251745
v -0.91542220 0.34678480 0.46012181
v -0.91412133 0.34486988 -0.46144554
v -1.01023722 0.34097457 -0.17418247
v -0.78667337 0.00000000 0.18811187
v -0.93420434 0.10703224 0.00252399
v -0.78254586 0.00000000 -0.18013653
v -0.54706979 0.58842695 -0.88359237
v -0.73630726 0.43502223 -0.72805870
v -0.00130090 0.84761333 -0.98221827
v -0.27152345 0.74293405 -0.97871637
v -0.28161409 0.18494351 -0.93558431
v -0.27698284 0.43575323 -1.00035477
v 0.00077345 0.33507174 -1.02317727
v 0.42822269 1.14164615 -0.69131088
v 0.26359016 0.99709690 -0.87296456
v 0.69521576 1.25040674 -0.16057378
v 0.58986998 1.23685110 -0.42507869
v 0.72153533 0.74077451 -0.71449256
v 0.69778526 0.98962671 -0.59550899
v 0.88312310 0.83394086 -0.44443569
v 0.78185272 0.00000000 0.18426491
v 0.66037995 0.00020307 0.47887665
v 0.49559131 0.00000000 0.29549986
v 0.74103290 0.44145361 0.73312366
v 0.74242467 0.19222260 0.63649601
v 0.91462404 0.34588799 0.46201733
v 0.18244919 0.00000000 0.78964651
v 0.47067454 0.05637953 0.76254535
v 0.28216320 0.18840398 0.93539160
v 0.17329323 0.00000000 0.29562265
v 0.30679533 0.00000000 -0.00594179
v -0.17605525 0.00000000 0.78948230
v -0.00662101 0.00000000 0.61017227
v -0.31366852 0.00000000 -0.00019255
v -0.19115120 0.00000000 0.29584935
v -0.51466817 0.00000000 0.29372093
v 0.17953089 0.00000000 -0.29946691
v 0.47606590 0.00000000 -0.28701460
v -0.48629311 0.00000000 -0.30382437
v -0.17929162 0.00000000 -0.29581806
v 0.17875732 0.00034770 -0.79023004
v -0.00349263 0.00000000 -0.60346174
v -0.17899750 0.00000000 -0.79145080
v 0.66109443 0.00000000 -0.47528389
v 0.77595729 0.00000000 -0.18126890
v 0.28314969 0.18805355 -0.93562299
v 0.47001961 0.06488031 -0.76438063
v 0.91621143 0.34310099 -0.46015081
v 0.74694854 0.19342016 -0.63763016
v 0.74038357 0.43912080 -0.73179841
v 0.93416363 0.11008275 0.00079145
v 1.00173748 0.58895618 -0.28655866
v 1.01037896 0.34369379 -0.17290676
v 1.01044822 0.34434444 0.17313732
v 0.99958485 0.58876210 0.28337669
v 0.27772090 0.43766204 0.99944979
v 0.54662627 0.59347373 0.88497251
v 0.26930922 0.74392378 0.97899055
v -0.66635525 0.00398906 0.48647991
v -0.47062370 0.05372673 0.76306868
v -0.74426091 0.20068790 0.63948196
v -0.46848315 0.05394550 -0.76496732
v -0.66838509 0.00000000 -0.48196259
v -0.74113071 0.18755116 -0.63259912
v 0.54510123 0.58912271 -0.88445246
v 0.27600574 0.44049701 -1.00281250
v 0.26922002 0.74230576 -0.97814417
v 0.97233373 0.83554018 0.16544691
v 0.97207350 0.83570898 -0.16557054
v 0.85804272 1.08397841 0.00028040
v -0.61568177 1.33086193 0.08126409
v -0.57098818 1.33919144 0.21298012
v -0.48360890 1.40817380 0.13104716
v -0.71156412 1.15749264 0.37317076
v -0.64864850 1.25340760 0.29638761
v -0.76249743 1.16207135 0.23776777
v -0.37510294 1.38765740 0.38317603
v -0.51607025 1.32990444 0.34619731
v -0.45449102 1.30574751 0.46843639
v -0.80782598 0.66814852 0.63583696
v -0.81081802 0.79210532 0.58521658
v -0.88910252 0.71494675 0.49831051
v -0.61053652 0.94118601 0.71792769
v -0.71547341 0.86993998 0.65961516
v -0.61934268 0.81428057 0.77496773
v -0.85582924 0.95106363 0.38015661
v -0.79633158 0.91673315 0.52395314
v -0.76625359 1.03167474 0.45844698
v -0.08212873 1.17138731 0.78771442
v -0.21486171 1.12898111 0.79783118
v -0.13343386 1.04783928 0.87465841
v -0.37258616 1.25737619 0.60223794
v -0.29758394 1.20138979 0.70485342
v -0.23737252 1.30585337 0.60706198
v -0.38950300 0.94522089 0.85734987
v -0.34961137 1.07780349 0.79040235
v -0.47416708 1.01917505 0.76683694
v -0.65118361 1.12255502 0.51704592
v -0.56975001 1.07463372 0.65210497
v -0.51534486 1.20031452 0.56601423
v -0.35733840 1.46466851 0.13146493
v -0.40239635 1.45600259 0.00023992
v -0.23837629 1.43271101 0.38554409
v -0.30099043 1.45654619 0.26364022
v -0.13737941 1.52894247 0.00004488
v -0.21929698 1.50482726 0.13258822
v -0.08174298 1.52572095 0.13281275
v 0.08092713 1.17055452 0.78762442
v -0.00034894 1.25294709 0.71234488
v 0.15622842 1.38277924 0.51901948
v 0.08090024 1.32613933 0.62006038
v 0.23684336 1.30468428 0.60792410
v -0.08108367 1.32604182 0.62011236
v -0.15631293 1.38413143 0.51883227
v 0.40314311 1.45475471 0.00061315
v 0.35803854 1.46363747 0.13216259
v 0.48418954 1.40685380 0.13143404
v 0.08239666 1.52510333 0.13313189
v 0.22002620 1.50475585 0.13312428
v 0.13784133 1.52842486 0.00033051
v 0.37551680 1.38652039 0.38393208
v 0.30129221 1.45648420 0.26424065
v 0.23858500 1.43163133 0.38609463
v -0.08208567 1.45365500 0.39932966
v 0.08210015 1.45299065 0.39874053
v 0.00015522 1.50264823 0.26586270
v -0.35738513 1.46472371 -0.13132828
v -0.48390159 1.40846467 -0.13088755
v -0.08183750 1.52570999 -0.13269703
v -0.21942320 1.50563192 -0.13242932
v -0.37471685 1.38824451 -0.38329184
v -0.30058444 1.45739067 -0.26338357
v -0.23824874 1.43326104 -0.38568398
v 0.48436287 1.40754616 -0.13066314
v 0.35808152 1.46451783 -0.13107905
v 0.23865955 1.43284726 -0.38576648
v 0.30096680 1.45682752 -0.26363990
v 0.37509561 1.38743126 -0.38331547
v 0.21967369 1.50500000 -0.13229887
v 0.08210527 1.52549732 -0.13268669
v -0.08134609 1.17000854 -0.78742027
v 0.00032060 1.25237930 -0.71292096
v 0.08187903 1.16913879 -0.78744471
v -0.15601063 1.38393843 -0.51872545
v -0.08072922 1.32627773 -0.62020212
v -0.23711395 1.30582988 -0.60711008
v 0.23774998 1.30546582 -0.60767174
v 0.08158357 1.32633185 -0.62072456
v 0.15660980 1.38362789 -0.51890445
v 0.00004115 1.50252259 -0.26569039
v 0.08251731 1.45381916 -0.39864337
v -0.08184653 1.45402348 -0.39891833
v -0.57146591 1.33947742 -0.21330854
v -0.61605674 1.33112860 -0.08117512
v -0.45446134 1.30596852 -0.46882120
v -0.51652610 1.33126783 -0.34653202
v -0.76288533 1.16298628 -0.23841329
v -0.64917088 1.25347161 -0.29691228
v -0.71133274 1.15781260 -0.37373027
v -0.13279723 1.04697502 -0.87309730
v -0.21436523 1.12784946 -0.79766697
v -0.47385940 1.01737952 -0.76594192
v -0.34907576 1.07565904 -0.78975224
v -0.39028463 0.94284612 -0.85583103
v -0.29704466 1.20035994 -0.70535785
v -0.37255189 1.25763845 -0.60290855
v -0.89130116 0.71407789 -0.50016159
v -0.81274056 0.79167956 -0.58616549
v -0.81027216 0.66584456 -0.63704723
v -0.76581484 1.03177297 -0.45899582
v -0.79676360 0.91703582 -0.52502251
v -0.85700226 0.95215356 -0.38100561
v -0.62170225 0.81214470 -0.77600175
v -0.71671242 0.86917597 -0.66013056
v -0.61120337 0.93924487 -0.71829480
v -0.51553345 1.20017254 -0.56668550
v -0.56927615 1.07332647 -0.65248442
v -0.65085524 1.12207127 -0.51670027
v -0.70456690 1.26212537 0.00000143
v -0.84777629 1.08039868 -0.15834281
v -0.78410387 1.17530727 -0.08166727
v -0.78369200 1.17496443 0.08123779
v -0.84681743 1.07971728 0.15769833
v -0.95105004 0.58993757 -0.42022279
v -0.95195991 0.71364272 -0.36991233
v -1.01682425 0.71460587 -0.08581622
v -0.99471056 0.71422493 -0.22800674
v -1.02907574 0.58881611 -0.14460099
v -0.93631285 0.83901936 -0.30865663
v -0.90472519 0.95425445 -0.24267095
v -0.95105428 0.71376282 0.36775443
v -0.95050198 0.59013230 0.41897440
v -0.90389615 0.95374012 0.24168427
v -0.93528771 0.83926928 0.30700302
v -1.02929294 0.58901221 0.14203210
v -0.99467385 0.71453977 0.22562598
v -1.01756430 0.71457493 0.08322390
v -0.92693341 0.96753186 -0.08384498
v -0.98535550 0.84104335 -0.00033224
v -0.92659336 0.96715581 0.08314488
v 0.57152689 1.33775854 0.21350828
v 0.61567616 1.32852006 0.08127206
v 0.45475957 1.30360281 0.46953344
v 0.51661789 1.32859004 0.34682888
v 0.76256382 1.16001272 0.23861751
v 0.64894527 1.25137699 0.29714531
v 0.71169418 1.15563583 0.37410191
v 0.13175020 1.04737246 0.87541169
v 0.21375218 1.12740433 0.79792249
v 0.47403735 1.01880956 0.76813781
v 0.34832147 1.07546020 0.79073632
v 0.38929197 0.94319594 0.85782802
v 0.29637104 1.19835734 0.70559382
v 0.37239367 1.25535440 0.60303360
v 0.89004421 0.71248752 0.49809164
v 0.81196702 0.78981954 0.58413911
v 0.80930388 0.66627234 0.63482821
v 0.76634908 1.03028798 0.45906177
v 0.79667813 0.91531724 0.52441233
v 0.85664403 0.94982529 0.38040212
v 0.62182838 0.81486756 0.77749389
v 0.71626502 0.86839181 0.65963334
v 0.61198545 0.94078654 0.71907008
v 0.51618522 1.19728827 0.56738877
v 0.56968826 1.07359564 0.65272665
v 0.65141380 1.12049758 0.51730931
v -0.13442475 0.92850977 0.94065243
v -0.00086419 0.97113472 0.92902029
v -0.39420554 0.81588835 0.91169125
v -0.26929897 0.87504739 0.93466866
v -0.00081257 0.71982270 1.02098000
v -0.13619421 0.79733777 0.99063700
v -0.13807981 0.66624153 1.02210748
v -0.81834853 0.51579314 0.64440393
v -0.73736006 0.59281880 0.73043466
v -0.54316354 0.44452938 0.88530648
v -0.64610064 0.51649535 0.81521356
v -0.64072382 0.37092343 0.80560505
v -0.63753861 0.66761017 0.80552924
v -0.53191996 0.73881954 0.86370170
v 0.00230435 0.20992544 0.98622143
v -0.13935313 0.25088307 0.99123126
v -0.14038697 0.13664214 0.94293046
v -0.13816880 0.51176035 1.03332007
v -0.13821101 0.38024342 1.02125371
v -0.00070035 0.45874578 1.04071629
v -0.41202974 0.23949565 0.90740764
v -0.27965093 0.30583382 0.97793496
v -0.40653673 0.36496449 0.94600111
v -0.41105008 0.66742283 0.94292784
v -0.41674289 0.51220304 0.95641911
v -0.27616113 0.58936429 1.00206256
v -0.97176415 0.46714821 0.37696406
v -0.90663230 0.46724391 0.50877738
v -1.03584337 0.46240836 0.08563095
v -1.01390207 0.46312511 0.22913073
v -0.90922868 0.23458150 0.40495676
v -0.97322220 0.34348512 0.32051113
v -0.95822805 0.22894146 0.25886497
v -0.90835977 0.46557969 -0.51040173
v -0.97041893 0.46427557 -0.37826046
v -0.95877367 0.22635743 -0.25684676
v -0.97043645 0.33952913 -0.32124195
v -0.90747672 0.22834012 -0.40482914
v -1.01424694 0.46148843 -0.23355044
v -1.03893507 0.46264014 -0.08875743
v -0.71172458 0.00000000 0.08559261
v -0.80153507 0.00000000 0.00255065
v -0.70597696 0.00000000 -0.09438044
v -0.91953826 0.11817769 0.17499186
v -0.87066031 0.03922331 0.09610181
v -0.84318084 0.04395578 0.26835400
v -0.84441298 0.04240907 -0.26340497
v -0.86799294 0.03774587 -0.08741184
v -0.92133003 0.10870706 -0.17063911
v -1.02371597 0.33868030 -0.00083993
v -0.98642564 0.21606123 -0.08866930
v -0.98839676 0.21723644 0.08867981
v -0.73867136 0.58771199 -0.72988278
v -0.81844300 0.51120764 -0.64379704
v -0.53506422 0.73589832 -0.86352313
v -0.64148241 0.66386706 -0.80548656
v -0.64185214 0.36376390 -0.80216449
v -0.64830840 0.51010782 -0.81600368
v -0.54644960 0.43972835 -0.88463968
v -0.00002979 0.97014678 -0.92744917
v -0.13422129 0.92829132 -0.93919736
v -0.13917784 0.66782844 -1.02183259
v -0.13726982 0.79805374 -0.98957103
v -0.00192746 0.72111541 -1.02070129
v -0.27015224 0.87374061 -0.93392384
v -0.39558753 0.81423545 -0.91104537
v -0.14169616 0.14264181 -0.94669485
v -0.14105599 0.25581732 -0.99136716
v 0.00065046 0.21558675 -0.98823559
v -0.40760347 0.36329255 -0.94371569
v -0.28108671 0.30706811 -0.97608930
v -0.41078487 0.23784575 -0.90781879
v -0.00159656 0.46009651 -1.04220593
v -0.14054245 0.38188180 -1.02123988
v -0.14083414 0.51260036 -1.03285325
v -0.41435704 0.66688150 -0.94437242
v -0.27885792 0.58962321 -1.00234437
v -0.41853106 0.51024461 -0.95494539
v 0.21508071 1.12715852 -0.79757094
v 0.13269615 1.04563189 -0.87380493
v 0.37337604 1.25622058 -0.60261905
v 0.29786393 1.19912362 -0.70492673
v 0.38978848 0.94168544 -0.85642219
v 0.34978589 1.07418346 -0.78910512
v 0.47430086 1.01588690 -0.76524067
v 0.61603957 1.32936621 -0.08073525
v 0.57183838 1.33826721 -0.21261007
v 0.71163803 1.15564609 -0.37234408
v 0.64930421 1.25079024 -0.29590541
v 0.76286715 1.16002417 -0.23735575
v 0.51688635 1.32905507 -0.34568354
v 0.45498025 1.30489898 -0.46900365
v 0.81047755 0.66621375 -0.63803071
v 0.81367570 0.79113960 -0.58701843
v 0.89237940 0.71368474 -0.50108886
v 0.61078423 0.93886018 -0.71738970
v 0.71606386 0.86678469 -0.66042995
v 0.62053919 0.81259507 -0.77693051
v 0.85701072 0.95024574 -0.38138545
v 0.79730982 0.91560024 -0.52538121
v 0.76627129 1.03098392 -0.45851234
v 0.51603949 1.19713581 -0.56562465
v 0.65164250 1.12033713 -0.51620680
v 0.56986439 1.07199991 -0.65150940
v 0.70787466 0.00000000 0.10000028
v 0.65546137 0.00000000 0.25586018
v 0.55658972 0.00000000 0.14059055
v 0.78760111 0.05634595 0.41049019
v 0.73112702 0.00000000 0.33602685
v 0.84785253 0.05366829 0.26046196
v 0.42424458 0.00000000 0.44268513
v 0.59017706 0.00000000 0.40780905
v 0.51557618 0.00000000 0.53650969
v 0.82049340 0.51432812 0.64581108
v 0.83888054 0.38881454 0.60476178
v 0.90850091 0.46751064 0.51057780
v 0.64815211 0.24295330 0.76043302
v 0.74713826 0.31415236 0.68953222
v 0.64289016 0.36854470 0.80413592
v 0.90657538 0.23442057 0.40375012
v 0.83700168 0.26487938 0.55364424
v 0.82489502 0.15473415 0.49519446
v 0.09148462 0.03297416 0.87133896
v 0.23815334 0.06616393 0.87483793
v 0.14571485 0.13957776 0.93976724
v 0.41557896 0.00000000 0.67741877
v 0.33167815 0.00870891 0.77982724
v 0.26855978 0.00000000 0.69182086
v 0.41333631 0.24201246 0.90851510
v 0.37954044 0.11415750 0.85907441
v 0.50987607 0.16794911 0.82276565
v 0.71541065 0.07787248 0.56688035
v 0.61720228 0.11442688 0.70592487
v 0.57610613 0.01394866 0.63216251
v 0.40574601 0.00000000 0.14975482
v 0.45559412 0.00000000 -0.00297764
v 0.26594090 0.00000000 0.44493920
v 0.33676749 0.00000000 0.30407453
v 0.15022193 0.00000000 0.00580109
v 0.23827583 0.00000000 0.15062429
v 0.08203163 0.00000000 0.15197967
v -0.08994022 0.03701272 0.87543452
v 0.00449366 0.00000000 0.80121082
v -0.19089256 0.00000000 0.60211724
v -0.09401572 0.00000000 0.71004611
v -0.27688819 0.00000000 0.69490373
v 0.08957268 0.00000000 0.70532322
v 0.17603272 0.00000000 0.60219938
v -0.46691328 0.00000000 -0.00635686
v -0.41650021 0.00000000 0.14422551
v -0.56295061 0.00000000 0.14078836
v -0.10296275 0.00000000 0.15027475
v -0.25694984 0.00000000 0.14378154
v -0.16100097 0.00000000 0.00501240
v -0.44329488 0.00000000 0.44549111
v -0.36260769 0.00000000 0.30112439
v -0.28672877 0.00000000 0.44614404
v 0.08834980 0.00000000 0.45736176
v -0.10269076 0.00000000 0.46077615
v -0.01095684 0.00000000 0.30416468
v 0.39421397 0.00000000 -0.14499857
v 0.53985095 0.00000000 -0.15553999
v 0.08930163 0.00000000 -0.14380601
v 0.24096631 0.00000000 -0.14943446
v 0.42077598 0.00000000 -0.42594090
v 0.32859096 0.00000000 -0.29140025
v 0.26854369 0.00000000 -0.43251634
v -0.55411536 0.00000000 -0.16026320
v -0.41046607 0.00000000 -0.15614183
v -0.26925734 0.00000000 -0.43201813
v -0.33695921 0.00000000 -0.29736617
v -0.41974196 0.00000000 -0.43493247
v -0.25091535 0.00000000 -0.14890601
v -0.09643642 0.00000000 -0.14769027
v 0.09052237 0.03865554 -0.88011968
v 0.00062260 0.00000000 -0.80261952
v -0.09083414 0.03505817 -0.87912381
v 0.17476104 0.00000000 -0.59507602
v 0.09516104 0.00000000 -0.71305728
v 0.27890939 0.00000000 -0.69101501
v -0.28079531 0.00000000 -0.68881065
v -0.09700684 0.00000000 -0.71068776
v -0.18228659 0.00000000 -0.59036016
v 0.00074995 0.00000000 -0.29633960
v -0.09154858 0.00000000 -0.45315531
v 0.08692738 0.00000000 -0.45119664
v 0.64765531 0.00000000 -0.24314757
v 0.71056646 0.00000000 -0.09178523
v 0.51418853 0.00000000 -0.52909678
v 0.57728004 0.00000000 -0.38568819
v 0.84646237 0.05306403 -0.26305634
v 0.73428959 0.00000000 -0.33326998
v 0.78906083 0.05387228 -0.41259083
v 0.14433287 0.14590371 -0.94668615
v 0.23453018 0.07285705 -0.87737459
v 0.51016814 0.16852680 -0.82716417
v 0.37819582 0.11729283 -0.85975313
v 0.41402009 0.24009141 -0.91046226
v 0.33273789 0.01879896 -0.78937739
v 0.41958585 0.00000000 -0.67475206
v 0.90848213 0.46504974 -0.50925058
v 0.83947307 0.38749906 -0.60607040
v 0.82158440 0.51330131 -0.64519757
v 0.82679451 0.15448514 -0.49484980
v 0.84017879 0.26458207 -0.55304009
v 0.91055256 0.23019579 -0.40422031
v 0.64501238 0.36803302 -0.80597401
v 0.74923122 0.31028697 -0.69073761
v 0.64686602 0.24401259 -0.76195019
v 0.57784283 0.02324655 -0.62998968
v 0.61967665 0.11852168 -0.70822579
v 0.71485883 0.07478272 -0.56310970
v 0.79884595 0.00000000 0.00060626
v 0.92231798 0.10979953 -0.16945383
v 0.87155455 0.03286287 -0.09120705
v 0.87160003 0.04119017 0.09019069
v 0.92108232 0.11445422 0.17344323
v 0.95220244 0.59019750 -0.42150787
v 0.97107333 0.46538886 -0.37755308
v 1.03927803 0.46410564 -0.08737349
v 1.01596856 0.46538863 -0.23244716
v 1.03203130 0.58980495 -0.14431259
v 0.97488773 0.34190989 -0.32099903
v 0.95947558 0.22821072 -0.25572363
v 0.97163433 0.46617788 0.37828174
v 0.95153975 0.58967698 0.41862804
v 0.95873684 0.23297435 0.25834018
v 0.97342116 0.34503609 0.32110900
v 1.02977014 0.58875543 0.14292656
v 1.01490223 0.46461698 0.23110151
v 1.03770459 0.46550182 0.08601940
v 0.98411489 0.21988650 -0.08793548
v 1.02599227 0.34115103 0.00051033
v 0.98389345 0.22096722 0.09051789
v 0.14248329 0.25490949 0.99197561
v 0.41159007 0.36864999 0.94400251
v 0.28356043 0.30926940 0.97851193
v 0.14131866 0.38358709 1.02150989
v 0.13864581 0.51166177 1.03231359
v 0.73820013 0.59271890 0.73019814
v 0.53521955 0.73950279 0.86698586
v 0.64135021 0.66890198 0.80675822
v 0.64848787 0.51677871 0.81616843
v 0.54732513 0.44583189 0.88355982
v 0.13297760 0.92713124 0.94055539
v 0.13712218 0.66713160 1.02315533
v 0.13517849 0.79747880 0.99130368
v 0.26870283 0.87446475 0.93615687
v 0.39463064 0.81571573 0.91285729
v 0.41836497 0.51458108 0.95453501
v 0.41266778 0.66895288 0.94593811
v 0.27623028 0.59045696 1.00307953
v -0.66063654 0.00000000 0.23872265
v -0.52405322 0.00000000 0.54146421
v -0.59819144 0.00000000 0.39579690
v -0.73317349 0.00000000 0.34081197
v -0.78575337 0.04821703 0.41747737
v -0.23625867 0.07179446 0.87828827
v -0.50878370 0.16947305 0.82370198
v -0.37923917 0.11637462 0.85652131
v -0.32912374 0.01606622 0.78576076
v -0.42288253 0.00000000 0.68395990
v -0.83694768 0.39245343 0.60438222
v -0.82553661 0.15917702 0.49644053
v -0.83764499 0.27038774 0.55364192
v -0.74790055 0.31704882 0.69238621
v -0.64592332 0.24620889 0.76367080
v -0.57785636 0.01971516 0.63514644
v -0.61773396 0.12012617 0.70973927
v -0.71365041 0.08196068 0.57068908
v -0.23229866 0.07465892 -0.88171810
v -0.42612338 0.00000000 -0.68845934
v -0.32861766 0.01529587 -0.78689563
v -0.37756836 0.11339017 -0.85829908
v -0.50635099 0.16738734 -0.82204777
v -0.64555204 0.00000000 -0.24811316
v -0.78632075 0.04936085 -0.41420102
v -0.73529881 0.00000000 -0.33432874
v -0.58385539 0.00000000 -0.40129218
v -0.51288211 0.00000000 -0.53632545
v -0.83607513 0.38741198 -0.60445893
v -0.64398253 0.23965101 -0.75752491
v -0.74663973 0.30691540 -0.68962902
v -0.83670163 0.26278108 -0.55304325
v -0.82124621 0.15333612 -0.49257943
v -0.57711637 0.01406750 -0.63378924
v -0.70992130 0.06838411 -0.56896627
v -0.61304885 0.11675137 -0.70638442
v 0.73941529 0.58942717 -0.73163188
v 0.54657954 0.44280854 -0.88501519
v 0.64787519 0.51405340 -0.81630480
v 0.64051324 0.66541153 -0.80719763
v 0.53368515 0.73618805 -0.86404967
v 0.14192270 0.25633326 -0.99336994
v 0.13701056 0.51377857 -1.03461158
v 0.13955137 0.38386354 -1.02320409
v 0.28237480 0.31083965 -0.98063153
v 0.41010627 0.36635536 -0.94635051
v 0.13377175 0.92641270 -0.93905330
v 0.39456028 0.81321496 -0.91133749
v 0.26904428 0.87193018 -0.93286383
v 0.13497172 0.79726934 -0.98968518
v 0.13531061 0.66772854 -1.02140605
v 0.41736752 0.51225293 -0.95502931
v 0.27537125 0.59101099 -1.00233698
v 0.41228867 0.66622078 -0.94320762
v 0.95262557 0.71310222 0.36925733
v 1.01872814 0.71254736 0.08527970
v 0.99764079 0.71437693 0.22707213
v 0.93675977 0.83819836 0.30774438
v 0.90556085 0.95249873 0.24150951
v 0.95347893 0.71393096 -0.36988485
v 0.90446627 0.95206076 -0.24266925
v 0.93788463 0.83782476 -0.30805242
v 0.99676913 0.71378434 -0.22743894
v 1.01928139 0.71558028 -0.08420437
v 0.70460224 1.26018357 -0.00010871
v 0.84781665 1.07812321 0.15774257
v 0.78418064 1.17352271 0.08184046
v 0.78368086 1.17262602 -0.08070841
v 0.84736890 1.07712376 -0.15701742
v 0.98463935 0.83899128 0.00067188
v 0.92521304 0.96377689 -0.08358072
v 0.92667162 0.96459210 0.08322665
f 330 87 329
f 336 325 26
f 207 208 56
f 464 36 580
f 502 129 504
f 157 624 622
f 308 311 82
f 247 223 248
f 507 483 508
f 331 88 329
f 494 500 497
f 156 601 602
f 591 589 592
f 365 98 596
f 75 281 282
f 152 587 577
f 149 559 560
f 555 121 553
f 530 141 529
f 515 517 139
f 361 594 98
f 250 67 249
f 157 608 609
f 294 293 209
f 317 81 316
f 557 338 26
f 303 305 81
f 530 529 528
f 101 381 382
f 415 418 111
f 192 184 50
f 412 110 411
f 20 384 256
f 131 594 486
f 281 264 282
f 347 287 348
f 28 349 582
f 165 163 1
f 248 250 66
f 617 107 398
f 273 271 274
f 456 115 453
f 558 561 560
f 335 576 91
f 331 177 332
f 116 433 436
f 351 370 92
f 136 511 530
f 239 240 65
f 247 258 19
f 304 23 567
f 148 557 570
f 214 208 58
f 440 426 450
f 268 270 269
f 258 247 268
f 204 202 16
f 466 125 465
f 517 513 133
f 168 275 274
f 275 73 274
f 198 193 53
f 309 308 307
f 510 511 136
f 415 416 110
f 131 490 597
f 473 475 474
f 414 415 111
f 493 495 494
f 496 504 485
f 433 116 432
f 600 375 601
f 240 234 65
f 418 415 412
f 486 361 3
f 567 566 304
f 380 393 29
f 17 199 197
f 491 492 132
f 451 449 435
f 218 217 216
f 623 621 613
f 396 104 395
f 433 439 436
f 628 160 627
f 215 202 217
f 209 207 2
f 427 113 424
f 434 10 544
f 434 433 432
f 199 17 210
f 150 564 565
f 489 491 132
f 275 13 285
f 497 500 134
f 125 466 476
f 578 152 577
f 208 214 211
f 328 88 343
f 356 27 603
f 150 566 567
f 372 100 371
f 190 191 47
f 235 8 398
f 260 261 72
f 422 403 414
f 422 414 111
f 453 454 123
f 349 583 582
f 521 520 519
f 425 453 115
f 616 622 158
f 483 130 508
f 151 586 572
f 212 17 232
f 400 397 402
f 377 396 99
f 41 522 511
f 510 508 505
f 549 547 42
f 475 473 36
f 510 137 509
f 222 221 197
f 430 115 429
f 220 194 1
f 305 54 204
f 621 29 613
f 192 171 184
f 460 335 5
f 88 331 332
f 74 277 279
f 300 301 80
f 390 389 388
f 165 45 164
f 146 549 551
f 291 278 75
f 448 120 445
f 147 543 544
f 607 610 609
f 603 602 356
f 139 529 514
f 333 553 443
f 92 368 347
f 261 260 259
f 300 6 200
f 46 177 331
f 284 283 174
f 301 300 200
f 471 468 474
f 54 305 301
f 302 304 303
f 569 150 567
f 150 569 570
f 294 209 2
f 628 629 160
f 548 543 147
f 147 625 627
f 63 233 234
f 426 427 114
f 41 509 532
f 198 52 196
f 614 105 612
f 147 627 547
f 81 305 306
f 549 548 547
f 54 301 200
f 342 88 332
f 264 281 70
f 193 194 53
f 455 429 456
f 187 321 14
f 479 130 484
f 147 544 625
f 458 456 453
f 304 80 303
f 314 84 313
f 488 503 501
f 321 332 14
f 423 425 424
f 305 204 306
f 341 339 25
f 514 40 516
f 625 628 627
f 340 339 341
f 105 614 391
f 243 228 62
f 318 316 78
f 75 278 279
f 357 355 353
f 238 257 63
f 466 455 476
f 425 423 4
f 448 449 120
f 408 638 108
f 292 275 285
f 22 278 289
f 515 513 517
f 501 503 134
f 622 623 158
f 134 503 504
f 195 216 206
f 163 271 246
f 619 617 620
f 62 228 229
f 163 165 164
f 453 425 454
f 489 132 488
f 82 628 625
f 58 208 209
f 525 608 40
f 626 547 627
f 518 517 498
f 489 487 491
f 557 26 564
f 325 336 344
f 541 145 539
f 40 616 516
f 338 556 89
f 250 248 245
f 139 514 515
f 98 594 596
f 246 220 1
f 112 413 630
f 9 536 413
f 156 600 601
f 332 177 14
f 321 342 332
f 156 606 600
f 584 330 585
f 302 303 81
f 584 87 330
f 330 25 585
f 400 239 65
f 439 440 117
f 95 358 368
f 597 594 131
f 594 361 486
f 246 67 245
f 561 562 149
f 28 364 362
f 55 216 217
f 427 430 114
f 267 20 254
f 556 555 553
f 84 309 558
f 311 310 312
f 609 525 142
f 256 68 255
f 124 460 461
f 82 311 312
f 307 308 82
f 589 135 495
f 527 40 514
f 112 418 412
f 20 256 254
f 258 238 19
f 267 254 269
f 273 272 249
f 392 391 393
f 137 533 509
f 122 455 456
f 9 413 411
f 130 480 505
f 333 443 5
f 527 525 40
f 589 495 385
f 39 496 485
f 223 225 224
f 414 416 415
f 219 222 53
f 145 538 539
f 413 412 411
f 469 468 467
f 183 181 6
f 191 192 50
f 429 35 431
f 292 285 76
f 413 112 412
f 415 110 412
f 43 164 167
f 467 468 126
f 617 101 620
f 450 451 117
f 438 546 545
f 619 620 159
f 17 212 210
f 124 579 576
f 584 153 583
f 460 124 576
f 3 469 467
f 311 308 314
f 6 320 183
f 389 104 388
f 251 250 249
f 194 165 1
f 291 289 278
f 287 77 348
f 238 258 257
f 139 517 518
f 238 236 19
f 223 247 19
f 382 380 29
f 39 518 498
f 361 359 3
f 69 255 257
f 139 518 528
f 33 545 535
f 387 385 7
f 69 268 269
f 477 462 125
f 454 479 123
f 121 555 447
f 451 435 117
f 454 425 4
f 233 252 8
f 124 463 464
f 69 258 268
f 168 167 166
f 583 153 582
f 384 394 102
f 138 512 513
f 57 210 211
f 254 256 255
f 607 609 142
f 324 319 86
f 289 291 76
f 291 292 76
f 384 102 383
f 422 421 420
f 221 17 197
f 383 102 381
f 376 377 99
f 99 373 374
f 386 105 392
f 438 33 440
f 90 341 343
f 281 75 279
f 574 571 96
f 628 82 312
f 221 222 59
f 127 471 474
f 595 605 603
f 551 538 145
f 334 91 340
f 322 324 85
f 305 303 301
f 18 239 399
f 306 204 16
f 199 198 197
f 166 190 180
f 303 80 301
f 267 266 265
f 626 42 547
f 16 215 213
f 349 351 350
f 295 16 213
f 68 379 252
f 250 251 66
f 627 160 626
f 383 68 256
f 343 88 342
f 507 508 136
f 202 215 16
f 197 198 53
f 254 69 269
f 603 605 156
f 418 419 111
f 384 383 256
f 455 122 476
f 203 204 54
f 556 557 148
f 255 68 253
f 313 84 560
f 25 328 341
f 254 255 69
f 603 156 602
f 581 584 583
f 630 632 112
f 163 246 1
f 246 245 220
f 432 116 558
f 499 591 590
f 320 563 86
f 345 93 350
f 306 16 295
f 346 93 345
f 562 568 149
f 604 605 155
f 154 592 593
f 545 552 535
f 511 522 530
f 574 573 571
f 566 150 565
f 361 98 360
f 67 271 273
f 234 235 65
f 208 211 56
f 574 151 573
f 251 270 66
f 398 8 378
f 213 215 214
f 438 440 439
f 315 314 313
f 263 71 262
f 20 373 384
f 496 134 504
f 329 88 328
f 81 306 316
f 555 556 148
f 592 589 103
f 617 619 107
f 227 207 56
f 571 359 96
f 446 466 465
f 206 216 55
f 359 571 469
f 568 148 570
f 34 437 435
f 28 351 349
f 21 272 282
f 113 423 424
f 490 489 488
f 379 68 383
f 210 212 211
f 80 563 300
f 351 92 350
f 326 346 12
f 83 317 318
f 555 148 554
f 212 231 56
f 218 57 217
f 271 67 246
f 195 196 52
f 270 268 66
f 390 592 103
f 148 568 554
f 495 493 7
f 592 390 593
f 357 95 355
f 574 575 151
f 452 120 451
f 154 591 592
f 587 585 577
f 395 394 396
f 93 349 350
f 610 416 611
f 166 44 190
f 315 23 302
f 315 302 317
f 268 247 66
f 606 154 593
f 396 394 99
f 211 212 56
f 370 369 368
f 235 397 65
f 280 278 22
f 83 315 317
f 575 588 151
f 74 279 280
f 385 495 7
f 63 257 253
f 397 235 398
f 214 58 213
f 220 219 194
f 546 146 545
f 236 225 19
f 599 94 602
f 235 233 8
f 102 394 395
f 611 416 32
f 225 223 19
f 139 528 529
f 231 62 229
f 419 406 421
f 451 450 452
f 49 182 185
f 402 397 107
f 52 199 218
f 416 610 110
f 225 236 244
f 107 397 398
f 68 252 253
f 322 85 321
f 182 181 183
f 118 438 439
f 546 438 118
f 348 77 345
f 543 546 118
f 231 212 232
f 610 611 157
f 33 438 545
f 385 386 103
f 479 480 130
f 169 195 15
f 93 583 349
f 15 195 206
f 190 44 192
f 247 248 66
f 146 552 545
f 248 60 245
f 570 557 564
f 274 271 43
f 63 253 233
f 272 21 249
f 507 528 518
f 67 273 249
f 487 467 126
f 196 195 169
f 624 159 623
f 134 496 497
f 132 503 488
f 104 393 395
f 556 553 89
f 355 356 94
f 258 69 257
f 229 61 227
f 56 231 227
f 460 576 335
f 463 124 461
f 394 373 99
f 29 393 391
f 67 250 245
f 193 198 196
f 462 36 464
f 144 633 630
f 141 526 527
f 517 133 498
f 536 144 630
f 100 372 599
f 144 536 537
f 22 289 287
f 578 579 152
f 579 578 576
f 189 188 187
f 60 223 224
f 92 348 350
f 555 554 447
f 396 377 388
f 194 193 165
f 413 536 630
f 372 352 599
f 377 376 375
f 348 345 350
f 105 386 387
f 240 237 234
f 463 462 464
f 135 500 494
f 45 196 169
f 512 612 387
f 245 60 220
f 429 115 456
f 223 60 248
f 288 289 76
f 525 526 142
f 100 599 601
f 613 29 391
f 526 523 520
f 341 328 343
f 631 641 639
f 264 21 282
f 266 72 265
f 106 402 403
f 73 273 274
f 186 206 205
f 381 379 383
f 52 216 195
f 410 18 399
f 290 272 73
f 72 371 374
f 526 525 527
f 115 430 424
f 498 497 496
f 621 382 29
f 543 118 434
f 214 215 57
f 522 141 530
f 511 510 509
f 352 94 599
f 493 512 7
f 90 340 341
f 169 171 170
f 605 604 606
f 219 60 224
f 104 389 392
f 359 469 3
f 186 49 185
f 222 219 224
f 166 167 44
f 428 427 426
f 523 522 524
f 129 502 481
f 50 185 188
f 164 45 170
f 425 115 424
f 33 428 426
f 427 428 113
f 94 356 602
f 515 138 513
f 114 431 452
f 237 236 238
f 215 217 57
f 95 354 355
f 220 60 219
f 515 514 516
f 183 320 319
f 222 197 53
f 559 569 567
f 300 320 6
f 435 436 117
f 96 360 363
f 640 642 641
f 242 243 62
f 140 537 519
f 508 130 505
f 420 410 399
f 537 539 144
f 317 316 318
f 426 114 450
f 186 15 206
f 311 83 310
f 625 544 307
f 544 10 307
f 168 43 167
f 185 182 188
f 369 354 95
f 44 171 192
f 605 606 156
f 548 549 146
f 100 601 375
f 149 568 569
f 381 380 382
f 455 466 35
f 480 479 454
f 543 548 546
f 493 133 513
f 492 472 37
f 477 125 476
f 491 487 126
f 337 336 338
f 588 153 587
f 576 578 91
f 633 161 632
f 96 359 360
f 39 485 483
f 101 617 378
f 193 45 165
f 163 164 43
f 618 624 611
f 507 136 528
f 561 149 560
f 641 162 639
f 116 561 558
f 494 133 493
f 253 252 233
f 63 237 238
f 392 393 104
f 440 450 117
f 93 581 583
f 386 385 387
f 120 449 451
f 421 422 111
f 486 3 467
f 302 81 317
f 633 632 630
f 462 475 36
f 376 99 374
f 489 490 131
f 447 449 448
f 387 612 105
f 106 420 399
f 173 46 172
f 492 491 472
f 316 306 295
f 22 287 347
f 109 410 420
f 507 39 483
f 559 23 313
f 214 57 211
f 196 45 193
f 10 434 432
f 422 106 403
f 626 160 640
f 487 486 467
f 542 41 532
f 400 106 399
f 444 120 452
f 198 199 52
f 475 127 474
f 621 620 382
f 621 623 159
f 450 114 452
f 92 347 348
f 376 100 375
f 434 118 433
f 503 132 502
f 337 90 336
f 537 536 519
f 395 393 380
f 201 54 200
f 171 44 170
f 355 94 353
f 58 296 213
f 422 420 106
f 595 365 596
f 569 568 570
f 523 140 520
f 114 430 431
f 218 210 57
f 304 566 80
f 639 162 638
f 261 371 72
f 548 147 547
f 498 133 497
f 150 570 564
f 222 224 59
f 142 526 520
f 437 436 435
f 141 522 523
f 137 510 505
f 173 179 176
f 559 149 569
f 121 447 448
f 563 320 300
f 102 395 380
f 257 255 253
f 642 162 641
f 83 311 314
f 216 52 218
f 512 493 513
f 23 304 302
f 91 339 340
f 512 138 612
f 159 620 621
f 218 199 210
f 364 28 575
f 83 318 310
f 168 274 43
f 136 530 528
f 140 523 524
f 495 135 494
f 233 235 234
f 566 563 80
f 25 339 577
f 277 74 276
f 475 462 477
f 133 494 497
f 436 437 116
f 389 386 392
f 548 146 546
f 441 460 5
f 10 309 307
f 65 397 400
f 543 434 544
f 640 641 161
f 272 273 73
f 581 93 346
f 419 421 111
f 319 320 86
f 180 179 178
f 127 475 477
f 231 229 227
f 337 334 340
f 136 508 510
f 308 309 84
f 237 63 234
f 447 554 34
f 252 379 378
f 315 83 314
f 608 622 616
f 338 336 26
f 337 338 89
f 13 275 168
f 209 208 207
f 436 439 117
f 628 312 629
f 360 366 363
f 364 574 96
f 359 361 360
f 466 446 35
f 500 501 134
f 406 109 421
f 135 589 591
f 601 599 602
f 340 90 337
f 481 492 37
f 522 41 524
f 78 316 295
f 131 486 487
f 403 32 414
f 634 626 640
f 151 572 573
f 515 516 138
f 8 252 378
f 265 72 374
f 9 521 519
f 538 549 42
f 368 358 347
f 588 587 586
f 458 453 123
f 589 385 103
f 502 492 481
f 32 416 414
f 430 427 424
f 153 585 587
f 540 144 539
f 370 368 92
f 209 293 58
f 428 33 535
f 326 581 346
f 625 307 82
f 575 28 582
f 6 181 200
f 421 109 420
f 553 121 443
f 160 642 640
f 153 584 585
f 309 432 558
f 334 337 89
f 23 315 313
f 271 163 43
f 296 295 213
f 39 498 496
f 118 439 433
f 531 113 534
f 293 296 58
f 28 362 351
f 489 131 487
f 431 444 452
f 84 558 560
f 98 366 360
f 45 169 170
f 379 101 378
f 462 463 125
f 308 84 314
f 10 432 309
f 299 24 310
f 132 492 502
f 512 387 7
f 639 638 408
f 565 323 86
f 59 244 242
f 106 400 402
f 440 33 426
f 566 565 563
f 617 398 378
f 224 225 59
f 410 109 409
f 239 400 399
f 194 219 53
f 358 22 347
f 610 157 609
f 27 595 603
f 479 484 482
f 142 520 521
f 585 25 577
f 339 578 577
f 408 407 406
f 407 109 406
f 31 408 406
f 407 408 108
f 31 639 408
f 419 31 406
f 608 616 40
f 430 429 431
f 455 35 429
f 35 444 431
f 188 51 187
f 188 182 51
f 51 322 187
f 322 51 319
f 51 182 183
f 319 51 183
f 187 322 321
f 322 319 324
f 381 101 379
f 405 407 108
f 404 405 108
f 286 285 178
f 407 405 409
f 109 407 409
f 191 175 47
f 167 164 170
f 50 184 185
f 44 167 170
f 64 244 236
f 243 244 64
f 50 188 189
f 541 542 145
f 442 445 119
f 339 91 578
f 445 446 119
f 624 623 622
f 611 624 157
f 523 526 141
f 141 527 529
f 527 514 529
f 445 120 444
f 446 445 444
f 35 446 444
f 613 614 158
f 158 614 615
f 623 613 158
f 614 613 391
f 614 612 615
f 371 376 374
f 100 376 371
f 479 482 123
f 373 394 384
f 540 42 634
f 633 540 634
f 538 42 540
f 633 634 161
f 161 634 640
f 42 626 634
f 540 633 144
f 557 556 338
f 553 333 89
f 262 21 264
f 251 21 262
f 5 335 333
f 270 251 262
f 21 251 249
f 600 593 30
f 606 593 600
f 600 30 375
f 593 390 30
f 30 377 375
f 390 388 30
f 30 388 377
f 228 243 241
f 470 478 459
f 470 127 478
f 127 477 478
f 184 186 185
f 478 477 476
f 122 478 476
f 357 74 280
f 518 39 507
f 344 342 85
f 325 344 85
f 342 344 343
f 85 342 321
f 344 90 343
f 90 344 336
f 482 129 481
f 482 481 457
f 482 457 123
f 481 37 457
f 449 447 34
f 435 449 34
f 470 472 471
f 472 470 37
f 470 471 127
f 472 126 471
f 126 468 471
f 470 459 37
f 491 126 472
f 504 129 485
f 221 59 242
f 125 463 465
f 437 34 562
f 561 437 562
f 554 568 562
f 34 554 562
f 437 561 116
f 390 103 389
f 103 386 389
f 392 105 391
f 572 586 580
f 572 580 36
f 586 152 580
f 473 572 36
f 244 243 242
f 225 244 59
f 64 240 241
f 240 239 241
f 237 240 64
f 243 64 241
f 236 237 64
f 411 607 521
f 9 411 521
f 110 607 411
f 607 142 521
f 610 607 110
f 171 15 184
f 171 169 15
f 15 186 184
f 87 584 581
f 153 588 582
f 588 575 582
f 381 102 380
f 573 572 473
f 468 469 128
f 474 468 128
f 469 571 128
f 571 573 128
f 573 473 128
f 473 474 128
f 564 323 565
f 26 323 564
f 323 324 86
f 325 323 26
f 325 324 323
f 563 565 86
f 324 325 85
f 410 230 18
f 230 228 18
f 18 228 241
f 18 241 239
f 401 619 618
f 401 402 107
f 403 402 401
f 619 159 618
f 401 618 32
f 619 401 107
f 403 401 32
f 618 611 32
f 159 624 618
f 478 122 459
f 122 458 459
f 37 459 457
f 459 458 457
f 122 456 458
f 457 458 123
f 191 190 192
f 485 129 484
f 129 482 484
f 483 485 484
f 130 483 484
f 189 187 14
f 191 50 189
f 191 189 175
f 189 14 175
f 14 177 175
f 499 501 500
f 501 499 38
f 38 499 590
f 135 499 500
f 488 501 38
f 499 135 591
f 480 454 4
f 284 12 346
f 4 423 506
f 480 4 506
f 423 531 506
f 480 506 505
f 531 137 506
f 506 137 505
f 365 366 98
f 71 270 262
f 270 71 269
f 71 267 269
f 335 334 333
f 333 334 89
f 334 335 91
f 536 9 519
f 465 463 461
f 537 140 541
f 520 140 519
f 119 446 465
f 465 461 119
f 461 441 119
f 460 441 461
f 176 46 173
f 299 297 24
f 71 263 266
f 263 260 266
f 260 72 266
f 263 70 260
f 205 201 49
f 201 181 49
f 186 205 49
f 181 201 200
f 181 182 49
f 284 77 283
f 586 587 152
f 588 586 151
f 20 267 265
f 266 267 71
f 31 417 631
f 631 417 632
f 31 631 639
f 417 31 419
f 641 631 161
f 417 112 632
f 161 631 632
f 418 417 419
f 417 418 112
f 284 345 77
f 542 550 145
f 542 541 524
f 284 174 12
f 48 174 283
f 373 20 265
f 373 265 374
f 609 608 525
f 608 157 622
f 560 559 313
f 636 637 162
f 541 140 524
f 41 542 524
f 358 357 280
f 70 263 264
f 263 262 264
f 176 177 46
f 174 48 173
f 174 173 172
f 538 551 549
f 538 540 539
f 537 541 539
f 232 221 242
f 17 221 232
f 232 242 62
f 231 232 62
f 203 205 55
f 203 55 202
f 201 205 203
f 202 55 217
f 205 206 55
f 204 203 202
f 73 275 292
f 292 290 73
f 272 290 282
f 290 292 291
f 75 290 291
f 290 75 282
f 70 277 259
f 277 70 281
f 277 281 279
f 260 70 259
f 12 174 172
f 104 396 388
f 367 27 354
f 365 27 367
f 354 27 356
f 365 367 366
f 595 27 365
f 318 299 310
f 155 596 597
f 155 597 598
f 596 594 597
f 595 596 155
f 605 595 155
f 180 47 179
f 180 190 47
f 352 372 11
f 11 372 261
f 312 310 24
f 642 636 162
f 636 297 637
f 367 369 97
f 366 367 97
f 369 367 354
f 369 370 97
f 580 579 464
f 580 152 579
f 579 124 464
f 61 230 409
f 230 410 409
f 230 61 229
f 230 229 228
f 76 285 286
f 353 352 276
f 74 353 276
f 288 76 286
f 288 286 283
f 289 288 287
f 203 54 201
f 287 288 77
f 77 288 283
f 286 48 283
f 531 423 113
f 276 11 259
f 11 261 259
f 277 276 259
f 616 158 615
f 516 616 615
f 138 516 615
f 138 615 612
f 509 533 532
f 503 502 504
f 635 79 294
f 635 294 404
f 635 637 79
f 637 635 638
f 638 635 108
f 635 404 108
f 226 61 405
f 61 226 227
f 405 61 409
f 227 226 207
f 48 178 179
f 48 286 178
f 173 48 179
f 534 143 533
f 534 535 143
f 531 534 533
f 533 143 532
f 137 531 533
f 261 372 371
f 13 180 178
f 285 13 178
f 180 13 166
f 13 168 166
f 346 345 284
f 331 327 46
f 46 327 172
f 172 327 326
f 382 620 101
f 442 121 448
f 443 121 442
f 2 226 404
f 294 2 404
f 404 226 405
f 207 226 2
f 550 551 145
f 552 146 551
f 143 550 532
f 552 550 143
f 330 329 328
f 24 636 629
f 94 352 353
f 352 11 276
f 113 428 534
f 428 535 534
f 509 41 511
f 535 552 143
f 550 552 551
f 550 542 532
f 369 95 368
f 326 327 87
f 87 327 329
f 327 331 329
f 581 326 87
f 293 79 298
f 79 297 298
f 296 298 78
f 79 293 294
f 296 293 298
f 598 490 38
f 358 280 22
f 280 279 278
f 357 358 95
f 74 357 353
f 330 328 25
f 567 23 559
f 590 598 38
f 590 604 598
f 598 604 155
f 604 590 154
f 590 591 154
f 604 154 606
f 297 299 298
f 299 318 78
f 298 299 78
f 355 354 356
f 629 636 642
f 312 24 629
f 629 642 160
f 370 362 97
f 362 363 97
f 363 366 97
f 364 363 362
f 362 370 351
f 96 363 364
f 297 636 24
f 162 637 638
f 637 297 79
f 490 488 38
f 598 597 490
f 441 442 119
f 443 442 441
f 443 441 5
f 442 448 445
f 296 78 295
f 326 12 172
f 575 574 364
f 47 175 176
f 175 177 176
f 47 176 179
