# FEM surface export ¡ª frame 255
# Vertices: 642  Faces: 1280
v -0.52669549 1.54279089 0.00000905
v 0.52650869 1.54212034 0.00002359
v -0.59010959 0.00000000 -0.00105171
v 0.57717478 0.00000000 -0.00462958
v 0.00115703 0.19679773 0.89450711
v -0.00067592 1.22258139 0.85391545
v -0.00026215 0.19844130 -0.89713830
v 0.00007269 1.22158873 -0.85336161
v 0.86534518 0.70765907 -0.53481120
v 0.86406541 0.70604193 0.53384340
v -0.86430073 0.70893973 -0.53509551
v -0.86447293 0.70874310 0.53449166
v -0.81219131 1.19589305 0.31032524
v -0.50351810 1.00937390 0.81384546
v -0.30964568 1.50112665 0.50066179
v 0.30968311 1.50108445 0.50086683
v 0.00019971 1.69057965 -0.00005068
v 0.30963296 1.50105679 -0.50084937
v -0.30936590 1.50153589 -0.50105792
v -0.50294703 1.00875127 -0.81468701
v -0.81216639 1.19702685 -0.31028023
v -1.01484573 0.70620996 -0.00085839
v 0.50412011 1.00986707 0.81512898
v 0.81196719 1.19544697 0.30993718
v -0.51665312 0.40943623 0.84017509
v -0.00036059 0.70698798 1.01694179
v -0.85167801 0.22343670 -0.32446179
v -0.85097003 0.22624008 0.32644168
v -0.00104791 0.70843858 -1.01659179
v -0.51671535 0.40521955 -0.83587444
v 0.81210661 1.19563258 -0.30996951
v 0.50262851 1.00788283 -0.81321549
v 0.85430491 0.22243363 0.32536274
v 0.51832753 0.40819749 0.83895499
v 0.33771068 0.00000000 0.54856390
v -0.34263381 0.00000000 0.54563618
v -0.00499037 0.00000000 0.00087009
v -0.33722079 0.00000000 -0.54732651
v 0.33766785 0.00000000 -0.54946262
v 0.51726025 0.40623716 -0.83867168
v 0.85423094 0.22415085 -0.32641348
v 1.01772666 0.70677763 -0.00011491
v -0.69556493 1.39545846 0.16110316
v -0.58933735 1.38188028 0.42643246
v -0.43474802 1.55450082 0.26028174
v -0.70859045 0.86453152 0.70012993
v -0.69111812 1.12265849 0.59032071
v -0.86890465 0.96087641 0.43685737
v -0.16104607 1.38746262 0.70329440
v -0.42672896 1.28275657 0.68992543
v -0.26147687 1.13206792 0.86658096
v -0.16252093 1.64209366 0.26322436
v -0.27345157 1.65299368 0.00005079
v 0.16092296 1.38703537 0.70350713
v 0.00012674 1.54224467 0.52641046
v 0.27369216 1.65262914 -0.00003423
v 0.16293839 1.64219975 0.26328301
v 0.43472400 1.55417109 0.26034790
v -0.16242450 1.64206719 -0.26329529
v -0.43457231 1.55486310 -0.26035279
v 0.43468389 1.55413115 -0.26026368
v 0.16275074 1.64192069 -0.26327604
v -0.16069899 1.38692689 -0.70351714
v 0.00034691 1.54224765 -0.52657366
v 0.16122937 1.38688302 -0.70363122
v -0.58904046 1.38203132 -0.42636573
v -0.69548005 1.39559233 -0.16102956
v -0.26099184 1.13076568 -0.86618429
v -0.42613018 1.28263366 -0.69020706
v -0.86920112 0.96168119 -0.43743658
v -0.69077188 1.12336993 -0.59072375
v -0.70902866 0.86462516 -0.70133609
v -0.85414743 1.22203422 0.00022338
v -0.97730935 0.70782828 -0.27868071
v -0.95865905 0.96450102 -0.16364393
v -0.95812070 0.96327090 0.16383147
v -0.97666806 0.70671892 0.27730209
v 0.58930343 1.38115537 0.42626041
v 0.69506437 1.39499247 0.16089045
v 0.26118317 1.13085270 0.86691689
v 0.42665669 1.28252292 0.68993425
v 0.86884224 0.95947313 0.43685538
v 0.69196737 1.12229085 0.58981079
v 0.70931232 0.86298257 0.69942987
v -0.26581922 0.86614811 0.96118647
v -0.00057646 0.97411376 0.96942663
v -0.72008038 0.55315548 0.71172208
v -0.53389513 0.70899361 0.86445796
v 0.00098603 0.43937054 0.99299353
v -0.26826546 0.54948968 0.97605324
v -0.27103394 0.28554180 0.90321338
v -0.97987109 0.45150670 0.16786908
v -0.88927358 0.45583874 0.44759846
v -0.88804448 0.45468739 -0.44840744
v -0.98072511 0.45185655 -0.16958590
v -0.75240546 0.04686931 0.17711705
v -0.89681703 0.20006315 0.00111303
v -0.74599189 0.04303272 -0.16972671
v -0.53431612 0.70674855 -0.86529183
v -0.71841735 0.55047005 -0.71079636
v -0.00034718 0.97454214 -0.96889448
v -0.26560557 0.86582148 -0.96146154
v -0.27411231 0.28313565 -0.90274811
v -0.26959962 0.54783499 -0.97357333
v -0.00081610 0.44217327 -0.99263388
v 0.42641890 1.28148615 -0.68963724
v 0.26134649 1.13054585 -0.86600560
v 0.69486713 1.39454007 -0.16094862
v 0.58902943 1.38062882 -0.42575219
v 0.70910549 0.86363977 -0.70056754
v 0.69110256 1.12252724 -0.59016442
v 0.86983353 0.96049750 -0.43706775
v 0.75092673 0.03959715 0.17181054
v 0.63736188 0.05322622 0.45883745
v 0.47654620 0.00000000 0.28197244
v 0.72024977 0.55140632 0.71252716
v 0.71996206 0.29417229 0.61675686
v 0.88872302 0.45298198 0.44723997
v 0.17412627 0.04985089 0.75028950
v 0.45330530 0.14096706 0.73333895
v 0.27154362 0.28775504 0.90271676
v 0.17625499 0.00000000 0.28670993
v 0.29371411 0.00000000 -0.00483916
v -0.16963549 0.04955267 0.75148296
v -0.00164208 0.00000000 0.57948297
v -0.30600944 0.00000000 -0.00209481
v -0.17716122 0.00000000 0.28105316
v -0.48309034 0.00000000 0.28515190
v 0.17331837 0.00000000 -0.28770271
v 0.47150499 0.00000000 -0.28412828
v -0.47686639 0.00000000 -0.29028571
v -0.18308330 0.00000000 -0.28851777
v 0.17415486 0.04937680 -0.75661111
v 0.00238292 0.00000000 -0.57659900
v -0.17101537 0.04912757 -0.75745541
v 0.63489354 0.05466838 -0.45801699
v 0.74740148 0.04331622 -0.17516650
v 0.27155995 0.28415716 -0.90115488
v 0.45215338 0.14443415 -0.73162723
v 0.89052218 0.45381060 -0.44745731
v 0.72008884 0.29521284 -0.61644626
v 0.72020620 0.55122143 -0.71245253
v 0.89798474 0.19724843 -0.00124986
v 0.97905421 0.70737958 -0.27842930
v 0.98100889 0.45108032 -0.16793981
v 0.98032957 0.44955683 0.16694564
v 0.97615445 0.70553160 0.27718765
v 0.26876020 0.55028880 0.97556877
v 0.53475434 0.70891124 0.86480677
v 0.26526782 0.86611551 0.96159244
v -0.63220352 0.05984936 0.45925137
v -0.45237404 0.13954705 0.73412853
v -0.71793264 0.29763073 0.61684197
v -0.45400316 0.13740104 -0.73577970
v -0.63571274 0.05650314 -0.45938927
v -0.71791714 0.29062411 -0.61283606
v 0.53413379 0.70683241 -0.86413640
v 0.26822716 0.55132878 -0.97624248
v 0.26586771 0.86556989 -0.96080500
v 0.95804942 0.96291316 0.16390444
v 0.95801950 0.96301967 -0.16291025
v 0.85345733 1.22121584 0.00003543
v -0.61686260 1.47638428 0.08136465
v -0.57243824 1.48507094 0.21348540
v -0.48524106 1.55670249 0.13147134
v -0.70945805 1.29601812 0.37277597
v -0.64911073 1.39588320 0.29686749
v -0.76100934 1.30115855 0.23784217
v -0.37582862 1.53587234 0.38426805
v -0.51716244 1.47604108 0.34689292
v -0.45495462 1.45079827 0.46939918
v -0.79355717 0.78735548 0.62349945
v -0.79915029 0.91586053 0.57599747
v -0.87418211 0.83596945 0.48970059
v -0.60463428 1.07041597 0.71039784
v -0.70665121 0.99636781 0.65127659
v -0.61127496 0.93870318 0.76350212
v -0.84830898 1.08139193 0.37685323
v -0.78783178 1.04547906 0.51874399
v -0.76103866 1.16470277 0.45554018
v -0.08154266 1.31071424 0.78572661
v -0.21394031 1.26683319 0.79493183
v -0.13224654 1.18145049 0.86849290
v -0.37267914 1.40050685 0.60257351
v -0.29691651 1.34198546 0.70381194
v -0.23760851 1.45132303 0.60774249
v -0.38599521 1.07418680 0.84837341
v -0.34759402 1.21274495 0.78615057
v -0.47064039 1.15133083 0.76097113
v -0.64870989 1.25928247 0.51505387
v -0.56636310 1.20938885 0.64865154
v -0.51478451 1.34068155 0.56556201
v -0.35874373 1.61554623 0.13191098
v -0.40385193 1.60642171 0.00009742
v -0.23891556 1.58256853 0.38674766
v -0.30174616 1.60751748 0.26446459
v -0.13796912 1.68154287 -0.00006235
v -0.22022942 1.65725875 0.13293731
v -0.08215100 1.67864931 0.13315032
v 0.08114128 1.31034660 0.78582400
v -0.00007614 1.39634526 0.71245950
v 0.15677924 1.53160536 0.51986235
v 0.08133075 1.47255254 0.62102813
v 0.23756577 1.45096421 0.60793340
v -0.08122836 1.47257173 0.62108231
v -0.15663068 1.53210688 0.51996338
v 0.40407780 1.60596943 0.00005807
v 0.35894075 1.61515117 0.13188364
v 0.48522112 1.55637705 0.13138838
v 0.08262061 1.67823887 0.13323851
v 0.22068696 1.65728116 0.13302182
v 0.13832724 1.68135023 0.00000408
v 0.37586442 1.53535557 0.38416970
v 0.30197978 1.60751069 0.26450273
v 0.23922876 1.58209968 0.38664943
v -0.08225331 1.60428035 0.40024734
v 0.08254361 1.60396135 0.39987996
v 0.00015652 1.65489280 0.26671180
v -0.35856715 1.61567295 -0.13182434
v -0.48517546 1.55690885 -0.13140795
v -0.08211391 1.67846620 -0.13329683
v -0.22023907 1.65752077 -0.13305654
v -0.37542778 1.53603482 -0.38434094
v -0.30150157 1.60768032 -0.26448885
v -0.23877734 1.58262801 -0.38682133
v 0.48527730 1.55637991 -0.13133858
v 0.35890648 1.61536288 -0.13180934
v 0.23917618 1.58240676 -0.38677061
v 0.30179703 1.60741866 -0.26447967
v 0.37573048 1.53563499 -0.38418004
v 0.22049713 1.65728128 -0.13302185
v 0.08246028 1.67842364 -0.13332473
v -0.08119199 1.30990708 -0.78580397
v 0.00018147 1.39588797 -0.71279532
v 0.08140757 1.30963349 -0.78572673
v -0.15635134 1.53203130 -0.52015603
v -0.08092730 1.47254801 -0.62135208
v -0.23720413 1.45122433 -0.60800028
v 0.23771283 1.45108950 -0.60800868
v 0.08157984 1.47254562 -0.62141585
v 0.15686904 1.53179181 -0.52001733
v 0.00013489 1.65469229 -0.26676303
v 0.08267488 1.60413659 -0.40007684
v -0.08213687 1.60426843 -0.40019760
v -0.57234359 1.48528945 -0.21345665
v -0.61693132 1.47651982 -0.08116165
v -0.45457411 1.45082092 -0.46947032
v -0.51708752 1.47647393 -0.34692469
v -0.76097471 1.30204272 -0.23780839
v -0.64896208 1.39602578 -0.29682106
v -0.70924890 1.29671538 -0.37298480
v -0.13168064 1.18131888 -0.86805159
v -0.21349818 1.26608431 -0.79502827
v -0.47009104 1.15099347 -0.76096666
v -0.34708160 1.21176350 -0.78603762
v -0.38549116 1.07349885 -0.84821051
v -0.29639146 1.34142423 -0.70426595
v -0.37220261 1.40054309 -0.60300511
v -0.87485033 0.83660531 -0.49034181
v -0.79969335 0.91659921 -0.57679474
v -0.79381436 0.78735018 -0.62411189
v -0.76074147 1.16585159 -0.45615837
v -0.78776318 1.04618287 -0.51939070
v -0.84836608 1.08281934 -0.37721264
v -0.61142671 0.93850589 -0.76539117
v -0.70698440 0.99680489 -0.65227509
v -0.60452247 1.06999767 -0.71140134
v -0.51432598 1.34094620 -0.56589842
v -0.56600469 1.20941031 -0.64928919
v -0.64832455 1.25970221 -0.51517874
v -0.70472729 1.40490937 0.00017288
v -0.84362966 1.21604800 -0.15713096
v -0.78263927 1.31494296 -0.08129436
v -0.78250140 1.31461167 0.08148297
v -0.84346581 1.21538317 0.15724693
v -0.92981613 0.70902866 -0.41058394
v -0.93445915 0.83654237 -0.36227101
v -0.99871069 0.83719796 -0.08314248
v -0.97592807 0.83699310 -0.22261049
v -1.00629592 0.70735896 -0.14077036
v -0.92287254 0.96589851 -0.30351046
v -0.89583081 1.08527291 -0.23993447
v -0.93446553 0.83579355 0.36196893
v -0.93002880 0.70805973 0.41040891
v -0.89570594 1.08422279 0.23996513
v -0.92303753 0.96459788 0.30338624
v -1.00631356 0.70663297 0.13965054
v -0.97686678 0.83584416 0.22227228
v -0.99868059 0.83669025 0.08282706
v -0.91829765 1.09857333 -0.08255842
v -0.97139531 0.96755534 0.00044203
v -0.91802490 1.09783471 0.08310425
v 0.57228327 1.48494673 0.21343571
v 0.61653143 1.47579873 0.08113448
v 0.45500377 1.45021057 0.46935958
v 0.51722014 1.47576571 0.34682724
v 0.76059550 1.30074608 0.23762874
v 0.64888984 1.39543378 0.29674470
v 0.70933098 1.29581690 0.37273952
v 0.13149768 1.18126035 0.86904907
v 0.21361467 1.26604497 0.79504532
v 0.47099286 1.15177011 0.76154196
v 0.34737283 1.21205842 0.78633672
v 0.38585219 1.07347977 0.84857416
v 0.29663873 1.34086096 0.70400912
v 0.37260658 1.39981878 0.60251546
v 0.87354094 0.83287430 0.48862121
v 0.79902017 0.91282070 0.57452190
v 0.79331529 0.78486311 0.62224269
v 0.76114917 1.16440976 0.45549861
v 0.78813362 1.04394424 0.51827627
v 0.84808218 1.08070552 0.37667146
v 0.61289757 0.93899035 0.76469421
v 0.70714349 0.99504077 0.65007716
v 0.60587496 1.07047033 0.71073878
v 0.51494789 1.33985960 0.56558865
v 0.56684315 1.20940328 0.64857745
v 0.64888394 1.25885022 0.51468933
v -0.13307740 1.05763328 0.93001646
v -0.00038482 1.10157943 0.91990167
v -0.38966042 0.94067901 0.89819264
v -0.26640710 1.00194013 0.92232215
v -0.00075069 0.84198701 1.00195801
v -0.13441870 0.92205989 0.97485638
v -0.13546503 0.78700125 1.00100553
v -0.80008864 0.62993169 0.62878233
v -0.72300893 0.70899552 0.71447229
v -0.53126550 0.55678171 0.86265093
v -0.63257051 0.63028711 0.79607821
v -0.62449652 0.47920957 0.78305387
v -0.62755907 0.78701627 0.78953958
v -0.52458709 0.86048853 0.84866202
v 0.00137946 0.31213605 0.95279711
v -0.13549529 0.35725096 0.96015149
v -0.13659605 0.23507896 0.90871620
v -0.13543946 0.62690973 1.00845814
v -0.13514279 0.49179560 0.99367094
v -0.00058493 0.57241189 1.01459742
v -0.39895707 0.34288579 0.87859857
v -0.27192092 0.41379681 0.94898582
v -0.39608553 0.47547749 0.91964567
v -0.40491289 0.78758156 0.92498958
v -0.40763801 0.62760383 0.93335682
v -0.27080208 0.70775300 0.98056656
v -0.94577104 0.58084011 0.36745372
v -0.88451016 0.58051556 0.49625635
v -1.00961792 0.57763827 0.08366743
v -0.98805374 0.57837617 0.22475383
v -0.87907416 0.33738399 0.39108899
v -0.94479537 0.45273662 0.31119868
v -0.92702961 0.33375040 0.24945776
v -0.88460439 0.58092266 -0.49680790
v -0.94535661 0.57983387 -0.36834776
v -0.92716885 0.33130798 -0.24883163
v -0.94337285 0.45014173 -0.31227094
v -0.87737250 0.33347261 -0.39134079
v -0.98862451 0.57789451 -0.22721455
v -1.01125836 0.57742178 -0.08601092
v -0.67427117 0.00080240 0.08763246
v -0.75882393 0.03405089 0.00249979
v -0.66783899 0.00004099 -0.08588125
v -0.88610256 0.20953797 0.16595483
v -0.83202231 0.11306912 0.08897535
v -0.80943322 0.12721097 0.25480434
v -0.80476487 0.12396593 -0.25040945
v -0.83068901 0.11217812 -0.08448785
v -0.88476247 0.20317276 -0.16441706
v -0.99497342 0.44893199 -0.00072360
v -0.95244336 0.32047793 -0.08671508
v -0.95408022 0.32161736 0.08504041
v -0.72228378 0.70766473 -0.71466118
v -0.79909021 0.62912285 -0.62868249
v -0.52460957 0.85910976 -0.84936875
v -0.62811428 0.78609371 -0.79047108
v -0.62398291 0.47526872 -0.78002048
v -0.63240296 0.62758839 -0.79675597
v -0.53168792 0.55356938 -0.86132914
v 0.00018435 1.10171950 -0.91913652
v -0.13233604 1.05763197 -0.92938590
v -0.13518408 0.78810740 -1.00086248
v -0.13413590 0.92268986 -0.97476959
v -0.00040767 0.84298962 -1.00174546
v -0.26603884 1.00137126 -0.92269820
v -0.38922936 0.94010651 -0.89838457
v -0.13910426 0.23631541 -0.91187036
v -0.13782291 0.35803857 -0.95920503
v -0.00064916 0.31536761 -0.95421261
v -0.39692160 0.47288266 -0.91648936
v -0.27344263 0.41277534 -0.94638944
v -0.39964008 0.33996150 -0.87794828
v -0.00145283 0.57358849 -1.01498246
v -0.13743719 0.49198028 -0.99224859
v -0.13675553 0.62740880 -1.00768137
v -0.40487981 0.78738880 -0.92589289
v -0.27126762 0.70715660 -0.97993028
v -0.40768531 0.62605178 -0.93187493
v 0.21384887 1.26614439 -0.79496783
v 0.13189749 1.18067849 -0.86820465
v 0.37276065 1.39995086 -0.60272747
v 0.29699227 1.34092414 -0.70403868
v 0.38555887 1.07252192 -0.84770286
v 0.34741315 1.21094811 -0.78555048
v 0.47012779 1.15002000 -0.76039964
v 0.61666882 1.47591972 -0.08119005
v 0.57228690 1.48465669 -0.21330962
v 0.70892537 1.29542458 -0.37232304
v 0.64874935 1.39464355 -0.29644805
v 0.76037335 1.30054891 -0.23744385
v 0.51713526 1.47537041 -0.34649277
v 0.45481119 1.45031691 -0.46930027
v 0.79439211 0.78689080 -0.62350202
v 0.80009449 0.91567343 -0.57638133
v 0.87545353 0.83569217 -0.49063098
v 0.60432482 1.06961000 -0.71021509
v 0.70642179 0.99515486 -0.65130085
v 0.61152750 0.93792462 -0.76459116
v 0.84838939 1.08168519 -0.37722167
v 0.78752834 1.04497135 -0.51877439
v 0.76064116 1.16505456 -0.45546865
v 0.51447517 1.33945942 -0.56526083
v 0.64822060 1.25890672 -0.51462704
v 0.56595147 1.20852184 -0.64842927
v 0.67254716 0.00000000 0.09235955
v 0.63007581 0.00000000 0.23422901
v 0.52897513 0.00000000 0.13744190
v 0.75411624 0.13222848 0.39489236
v 0.70080352 0.04179906 0.31853685
v 0.80574811 0.12410504 0.25073433
v 0.40918860 0.00000000 0.42095950
v 0.56893581 0.00213634 0.38274208
v 0.49677753 0.00987447 0.51045036
v 0.79941088 0.62731272 0.62845582
v 0.81558663 0.49818113 0.58712047
v 0.88496619 0.57835698 0.49585512
v 0.62737393 0.34709609 0.73721296
v 0.72564650 0.42058146 0.66965973
v 0.62456065 0.47772929 0.78264880
v 0.87736213 0.33472830 0.38964722
v 0.81179494 0.36907312 0.53534114
v 0.79678875 0.25126162 0.47817802
v 0.08882745 0.11584637 0.83272934
v 0.22708976 0.15547208 0.83846694
v 0.13895971 0.23682393 0.90685833
v 0.39941770 0.04139511 0.64892656
v 0.31816646 0.08868867 0.75053042
v 0.25656629 0.00661678 0.65658772
v 0.39953166 0.34498134 0.87976360
v 0.36564276 0.20884472 0.82696646
v 0.49130735 0.26758900 0.79425532
v 0.68536955 0.16341646 0.54485631
v 0.59544617 0.21070082 0.68288189
v 0.55026758 0.09080099 0.60661358
v 0.39167297 0.00000000 0.14132990
v 0.43861306 0.00000000 -0.00274377
v 0.25841787 0.00000000 0.42673126
v 0.32853800 0.00000000 0.28803879
v 0.14660944 0.00000000 0.00087811
v 0.23488173 0.00000000 0.14600769
v 0.08685345 0.00000000 0.14366731
v -0.08684549 0.11531395 0.83595055
v 0.00251346 0.04679215 0.76726800
v -0.17942742 0.00000000 0.57212085
v -0.08686081 0.00000000 0.66997361
v -0.25304461 0.00729661 0.65960699
v 0.08642641 0.00024878 0.67890531
v 0.17108336 0.00000000 0.57582027
v -0.44939288 0.00000000 -0.00652261
v -0.40044358 0.00000000 0.14049338
v -0.54008049 0.00000000 0.14177248
v -0.09528197 0.00000000 0.14139089
v -0.24678001 0.00000000 0.14263879
v -0.15635729 0.00000000 0.00378789
v -0.42035139 0.00000000 0.42463467
v -0.33621773 0.00000000 0.28903320
v -0.27024060 0.00000000 0.42268911
v 0.08772032 0.00000000 0.43974012
v -0.09411876 0.00000000 0.43900564
v 0.00042934 0.00000000 0.28871694
v 0.38793349 0.00000000 -0.14185585
v 0.52553022 0.00000000 -0.14815950
v 0.08534568 0.00000000 -0.14422700
v 0.23291418 0.00000000 -0.14587231
v 0.41154221 0.00000000 -0.41964608
v 0.32579780 0.00000000 -0.28333139
v 0.26485899 0.00000000 -0.41966811
v -0.53573346 0.00000000 -0.14752837
v -0.39689562 0.00000000 -0.15026952
v -0.26394236 0.00000000 -0.42204976
v -0.33704138 0.00000000 -0.29095760
v -0.40865153 0.00000000 -0.42464930
v -0.24551307 0.00000000 -0.14529857
v -0.09583985 0.00000000 -0.14561409
v 0.08711538 0.11760530 -0.83641064
v 0.00346271 0.04219214 -0.76989406
v -0.08617634 0.11705622 -0.83619750
v 0.17740694 0.00000000 -0.56459981
v 0.08813163 0.00000000 -0.67500407
v 0.25892168 0.00620920 -0.66259211
v -0.25414902 0.01041133 -0.66392893
v -0.08647361 0.00083426 -0.68337786
v -0.17075062 0.00000000 -0.56893915
v -0.00567495 0.00000000 -0.28990671
v -0.08965516 0.00000000 -0.43636972
v 0.08889086 0.00000000 -0.43396077
v 0.62859553 0.00000000 -0.23468731
v 0.67949283 0.00000000 -0.08956956
v 0.49592176 0.00357667 -0.50457692
v 0.56044585 0.00000000 -0.37501204
v 0.80824012 0.12856273 -0.25294590
v 0.70269471 0.04375624 -0.32165259
v 0.75313991 0.13250583 -0.39568266
v 0.13850182 0.23792368 -0.91124880
v 0.22507605 0.15669838 -0.83935875
v 0.49007362 0.26426160 -0.79511774
v 0.36327195 0.20710053 -0.82575339
v 0.39828449 0.34134915 -0.87771368
v 0.31857985 0.09103338 -0.75036865
v 0.40129352 0.04335470 -0.64609790
v 0.88575834 0.57959110 -0.49627388
v 0.81608158 0.49976468 -0.58881503
v 0.80100119 0.62867975 -0.62881762
v 0.79689115 0.25377482 -0.47892419
v 0.81370455 0.37130177 -0.53668314
v 0.87976098 0.33407074 -0.39146194
v 0.62554318 0.47641546 -0.78316265
v 0.72673780 0.41928732 -0.67064732
v 0.62451899 0.34586680 -0.73654377
v 0.54908854 0.09162486 -0.60173142
v 0.59513390 0.21065699 -0.68171042
v 0.68508059 0.16491738 -0.54423469
v 0.75911254 0.03482553 -0.00005826
v 0.88815820 0.20397504 -0.16543043
v 0.83130199 0.11075880 -0.08832854
v 0.83361518 0.11185545 0.08497478
v 0.88440311 0.20114574 0.16384366
v 0.93097436 0.70792562 -0.41074616
v 0.94675434 0.57909662 -0.36715278
v 1.01207960 0.57725030 -0.08464277
v 0.99026906 0.57843888 -0.22576421
v 1.00834322 0.70791477 -0.14012261
v 0.94630420 0.45006698 -0.31135482
v 0.92856944 0.33122957 -0.24876426
v 0.94537568 0.57763302 0.36651051
v 0.92890739 0.70546949 0.40884313
v 0.92574883 0.33126801 0.24654746
v 0.94458938 0.44936296 0.31010300
v 1.00594616 0.70644110 0.14070226
v 0.98730499 0.57625490 0.22438550
v 1.01029634 0.57728165 0.08410443
v 0.95150489 0.31914070 -0.08611374
v 0.99504012 0.44760200 0.00007928
v 0.94936436 0.31775987 0.08493959
v 0.13683842 0.35829186 0.95986485
v 0.39731294 0.47726119 0.91908520
v 0.27276841 0.41600665 0.94971943
v 0.13592646 0.49352834 0.99447876
v 0.13513988 0.62731487 1.00828445
v 0.72254539 0.70748800 0.71349120
v 0.52620810 0.86101466 0.84999144
v 0.62884283 0.78632796 0.78985292
v 0.63297480 0.62972420 0.79600495
v 0.53182238 0.55645430 0.86166340
v 0.13204792 1.05638444 0.92963493
v 0.13435975 0.78731614 1.00163329
v 0.13339871 0.92175543 0.97543985
v 0.26573625 1.00108564 0.92325771
v 0.38949391 0.94027883 0.89842850
v 0.40721178 0.62832803 0.93134904
v 0.40526697 0.78858745 0.92630106
v 0.27037111 0.70786798 0.98046023
v -0.62966126 0.00001919 0.23544514
v -0.49694517 0.00614011 0.51039302
v -0.56796694 0.00000000 0.37895718
v -0.70231730 0.04331662 0.32349458
v -0.75067973 0.12966013 0.39749300
v -0.22863729 0.15808411 0.84403002
v -0.49132663 0.26832590 0.79612499
v -0.36539021 0.20853648 0.82714808
v -0.31868145 0.08760912 0.75394189
v -0.40364531 0.04145550 0.65113133
v -0.81464827 0.50189847 0.58817184
v -0.79475039 0.25515428 0.47728905
v -0.81246185 0.37313655 0.53675890
v -0.72675085 0.42249185 0.67205697
v -0.62535322 0.34913418 0.74005115
v -0.55162841 0.09378459 0.60613668
v -0.59406435 0.21229452 0.68367773
v -0.68280727 0.16631870 0.54508680
v -0.22667322 0.15684305 -0.83984667
v -0.40226999 0.03894224 -0.64917940
v -0.31826076 0.08189558 -0.75366664
v -0.36512911 0.20492478 -0.82466072
v -0.49059826 0.26439339 -0.79293364
v -0.62271142 0.00000000 -0.23105101
v -0.75341904 0.12923557 -0.39494848
v -0.69895262 0.04356031 -0.31853065
v -0.56066298 0.00149226 -0.37729523
v -0.49384177 0.00255314 -0.50883943
v -0.81377113 0.50042188 -0.58813244
v -0.62438154 0.34420398 -0.73372257
v -0.72558463 0.41760552 -0.66986477
v -0.81104797 0.36938086 -0.53581208
v -0.79162467 0.25187159 -0.47544357
v -0.54879636 0.08530311 -0.60419410
v -0.68287635 0.15905812 -0.54538941
v -0.59279317 0.20876406 -0.68072575
v 0.72366714 0.70751798 -0.71437746
v 0.53228605 0.55506814 -0.86193591
v 0.63289899 0.62844759 -0.79616791
v 0.62838954 0.78609103 -0.78970265
v 0.52456909 0.85894650 -0.84793454
v 0.13573167 0.35881621 -0.96049255
v 0.13439031 0.62839955 -1.00889397
v 0.13496284 0.49318659 -0.99399269
v 0.27246737 0.41514781 -0.94911528
v 0.39703113 0.47509375 -0.91894597
v 0.13256483 1.05675840 -0.92923564
v 0.38929233 0.93949795 -0.89725196
v 0.26590243 1.00036907 -0.92126220
v 0.13402787 0.92248917 -0.97481221
v 0.13419957 0.78832191 -1.00073826
v 0.40777978 0.62719405 -0.93123513
v 0.27035525 0.70800048 -0.97955781
v 0.40501148 0.78662670 -0.92389494
v 0.93398958 0.83416724 0.36203307
v 0.99884045 0.83601427 0.08416077
v 0.97748429 0.83590233 0.22300991
v 0.92320687 0.96431112 0.30360305
v 0.89591008 1.08393157 0.23984107
v 0.93586135 0.83562469 -0.36242926
v 0.89562619 1.08386517 -0.23974781
v 0.92399460 0.96485990 -0.30322987
v 0.97801948 0.83641034 -0.22268340
v 0.99971682 0.83723360 -0.08222700
v 0.70430452 1.40427399 -0.00012511
v 0.84316534 1.21479368 0.15693091
v 0.78218073 1.31431162 0.08129232
v 0.78178954 1.31394053 -0.08122057
v 0.84281743 1.21456468 -0.15666553
v 0.97080576 0.96665311 0.00070937
v 0.91666508 1.09677207 -0.08246423
v 0.91734201 1.09696257 0.08278041
f 330 87 329
f 336 325 26
f 207 208 56
f 464 36 580
f 502 129 504
f 157 624 622
f 308 311 82
f 247 223 248
f 507 483 508
f 331 88 329
f 494 500 497
f 156 601 602
f 591 589 592
f 365 98 596
f 75 281 282
f 152 587 577
f 149 559 560
f 555 121 553
f 530 141 529
f 515 517 139
f 361 594 98
f 250 67 249
f 157 608 609
f 294 293 209
f 317 81 316
f 557 338 26
f 303 305 81
f 530 529 528
f 101 381 382
f 415 418 111
f 192 184 50
f 412 110 411
f 20 384 256
f 131 594 486
f 281 264 282
f 347 287 348
f 28 349 582
f 165 163 1
f 248 250 66
f 617 107 398
f 273 271 274
f 456 115 453
f 558 561 560
f 335 576 91
f 331 177 332
f 116 433 436
f 351 370 92
f 136 511 530
f 239 240 65
f 247 258 19
f 304 23 567
f 148 557 570
f 214 208 58
f 440 426 450
f 268 270 269
f 258 247 268
f 204 202 16
f 466 125 465
f 517 513 133
f 168 275 274
f 275 73 274
f 198 193 53
f 309 308 307
f 510 511 136
f 415 416 110
f 131 490 597
f 473 475 474
f 414 415 111
f 493 495 494
f 496 504 485
f 433 116 432
f 600 375 601
f 240 234 65
f 418 415 412
f 486 361 3
f 567 566 304
f 380 393 29
f 17 199 197
f 491 492 132
f 451 449 435
f 218 217 216
f 623 621 613
f 396 104 395
f 433 439 436
f 628 160 627
f 215 202 217
f 209 207 2
f 427 113 424
f 434 10 544
f 434 433 432
f 199 17 210
f 150 564 565
f 489 491 132
f 275 13 285
f 497 500 134
f 125 466 476
f 578 152 577
f 208 214 211
f 328 88 343
f 356 27 603
f 150 566 567
f 372 100 371
f 190 191 47
f 235 8 398
f 260 261 72
f 422 403 414
f 422 414 111
f 453 454 123
f 349 583 582
f 521 520 519
f 425 453 115
f 616 622 158
f 483 130 508
f 151 586 572
f 212 17 232
f 400 397 402
f 377 396 99
f 41 522 511
f 510 508 505
f 549 547 42
f 475 473 36
f 510 137 509
f 222 221 197
f 430 115 429
f 220 194 1
f 305 54 204
f 621 29 613
f 192 171 184
f 460 335 5
f 88 331 332
f 74 277 279
f 300 301 80
f 390 389 388
f 165 45 164
f 146 549 551
f 291 278 75
f 448 120 445
f 147 543 544
f 607 610 609
f 603 602 356
f 139 529 514
f 333 553 443
f 92 368 347
f 261 260 259
f 300 6 200
f 46 177 331
f 284 283 174
f 301 300 200
f 471 468 474
f 54 305 301
f 302 304 303
f 569 150 567
f 150 569 570
f 294 209 2
f 628 629 160
f 548 543 147
f 147 625 627
f 63 233 234
f 426 427 114
f 41 509 532
f 198 52 196
f 614 105 612
f 147 627 547
f 81 305 306
f 549 548 547
f 54 301 200
f 342 88 332
f 264 281 70
f 193 194 53
f 455 429 456
f 187 321 14
f 479 130 484
f 147 544 625
f 458 456 453
f 304 80 303
f 314 84 313
f 488 503 501
f 321 332 14
f 423 425 424
f 305 204 306
f 341 339 25
f 514 40 516
f 625 628 627
f 340 339 341
f 105 614 391
f 243 228 62
f 318 316 78
f 75 278 279
f 357 355 353
f 238 257 63
f 466 455 476
f 425 423 4
f 448 449 120
f 408 638 108
f 292 275 285
f 22 278 289
f 515 513 517
f 501 503 134
f 622 623 158
f 134 503 504
f 195 216 206
f 163 271 246
f 619 617 620
f 62 228 229
f 163 165 164
f 453 425 454
f 489 132 488
f 82 628 625
f 58 208 209
f 525 608 40
f 626 547 627
f 518 517 498
f 489 487 491
f 557 26 564
f 325 336 344
f 541 145 539
f 40 616 516
f 338 556 89
f 250 248 245
f 139 514 515
f 98 594 596
f 246 220 1
f 112 413 630
f 9 536 413
f 156 600 601
f 332 177 14
f 321 342 332
f 156 606 600
f 584 330 585
f 302 303 81
f 584 87 330
f 330 25 585
f 400 239 65
f 439 440 117
f 95 358 368
f 597 594 131
f 594 361 486
f 246 67 245
f 561 562 149
f 28 364 362
f 55 216 217
f 427 430 114
f 267 20 254
f 556 555 553
f 84 309 558
f 311 310 312
f 609 525 142
f 256 68 255
f 124 460 461
f 82 311 312
f 307 308 82
f 589 135 495
f 527 40 514
f 112 418 412
f 20 256 254
f 258 238 19
f 267 254 269
f 273 272 249
f 392 391 393
f 137 533 509
f 122 455 456
f 9 413 411
f 130 480 505
f 333 443 5
f 527 525 40
f 589 495 385
f 39 496 485
f 223 225 224
f 414 416 415
f 219 222 53
f 145 538 539
f 413 412 411
f 469 468 467
f 183 181 6
f 191 192 50
f 429 35 431
f 292 285 76
f 413 112 412
f 415 110 412
f 43 164 167
f 467 468 126
f 617 101 620
f 450 451 117
f 438 546 545
f 619 620 159
f 17 212 210
f 124 579 576
f 584 153 583
f 460 124 576
f 3 469 467
f 311 308 314
f 6 320 183
f 389 104 388
f 251 250 249
f 194 165 1
f 291 289 278
f 287 77 348
f 238 258 257
f 139 517 518
f 238 236 19
f 223 247 19
f 382 380 29
f 39 518 498
f 361 359 3
f 69 255 257
f 139 518 528
f 33 545 535
f 387 385 7
f 69 268 269
f 477 462 125
f 454 479 123
f 121 555 447
f 451 435 117
f 454 425 4
f 233 252 8
f 124 463 464
f 69 258 268
f 168 167 166
f 583 153 582
f 384 394 102
f 138 512 513
f 57 210 211
f 254 256 255
f 607 609 142
f 324 319 86
f 289 291 76
f 291 292 76
f 384 102 383
f 422 421 420
f 221 17 197
f 383 102 381
f 376 377 99
f 99 373 374
f 386 105 392
f 438 33 440
f 90 341 343
f 281 75 279
f 574 571 96
f 628 82 312
f 221 222 59
f 127 471 474
f 595 605 603
f 551 538 145
f 334 91 340
f 322 324 85
f 305 303 301
f 18 239 399
f 306 204 16
f 199 198 197
f 166 190 180
f 303 80 301
f 267 266 265
f 626 42 547
f 16 215 213
f 349 351 350
f 295 16 213
f 68 379 252
f 250 251 66
f 627 160 626
f 383 68 256
f 343 88 342
f 507 508 136
f 202 215 16
f 197 198 53
f 254 69 269
f 603 605 156
f 418 419 111
f 384 383 256
f 455 122 476
f 203 204 54
f 556 557 148
f 255 68 253
f 313 84 560
f 25 328 341
f 254 255 69
f 603 156 602
f 581 584 583
f 630 632 112
f 163 246 1
f 246 245 220
f 432 116 558
f 499 591 590
f 320 563 86
f 345 93 350
f 306 16 295
f 346 93 345
f 562 568 149
f 604 605 155
f 154 592 593
f 545 552 535
f 511 522 530
f 574 573 571
f 566 150 565
f 361 98 360
f 67 271 273
f 234 235 65
f 208 211 56
f 574 151 573
f 251 270 66
f 398 8 378
f 213 215 214
f 438 440 439
f 315 314 313
f 263 71 262
f 20 373 384
f 496 134 504
f 329 88 328
f 81 306 316
f 555 556 148
f 592 589 103
f 617 619 107
f 227 207 56
f 571 359 96
f 446 466 465
f 206 216 55
f 359 571 469
f 568 148 570
f 34 437 435
f 28 351 349
f 21 272 282
f 113 423 424
f 490 489 488
f 379 68 383
f 210 212 211
f 80 563 300
f 351 92 350
f 326 346 12
f 83 317 318
f 555 148 554
f 212 231 56
f 218 57 217
f 271 67 246
f 195 196 52
f 270 268 66
f 390 592 103
f 148 568 554
f 495 493 7
f 592 390 593
f 357 95 355
f 574 575 151
f 452 120 451
f 154 591 592
f 587 585 577
f 395 394 396
f 93 349 350
f 610 416 611
f 166 44 190
f 315 23 302
f 315 302 317
f 268 247 66
f 606 154 593
f 396 394 99
f 211 212 56
f 370 369 368
f 235 397 65
f 280 278 22
f 83 315 317
f 575 588 151
f 74 279 280
f 385 495 7
f 63 257 253
f 397 235 398
f 214 58 213
f 220 219 194
f 546 146 545
f 236 225 19
f 599 94 602
f 235 233 8
f 102 394 395
f 611 416 32
f 225 223 19
f 139 528 529
f 231 62 229
f 419 406 421
f 451 450 452
f 49 182 185
f 402 397 107
f 52 199 218
f 416 610 110
f 225 236 244
f 107 397 398
f 68 252 253
f 322 85 321
f 182 181 183
f 118 438 439
f 546 438 118
f 348 77 345
f 543 546 118
f 231 212 232
f 610 611 157
f 33 438 545
f 385 386 103
f 479 480 130
f 169 195 15
f 93 583 349
f 15 195 206
f 190 44 192
f 247 248 66
f 146 552 545
f 248 60 245
f 570 557 564
f 274 271 43
f 63 253 233
f 272 21 249
f 507 528 518
f 67 273 249
f 487 467 126
f 196 195 169
f 624 159 623
f 134 496 497
f 132 503 488
f 104 393 395
f 556 553 89
f 355 356 94
f 258 69 257
f 229 61 227
f 56 231 227
f 460 576 335
f 463 124 461
f 394 373 99
f 29 393 391
f 67 250 245
f 193 198 196
f 462 36 464
f 144 633 630
f 141 526 527
f 517 133 498
f 536 144 630
f 100 372 599
f 144 536 537
f 22 289 287
f 578 579 152
f 579 578 576
f 189 188 187
f 60 223 224
f 92 348 350
f 555 554 447
f 396 377 388
f 194 193 165
f 413 536 630
f 372 352 599
f 377 376 375
f 348 345 350
f 105 386 387
f 240 237 234
f 463 462 464
f 135 500 494
f 45 196 169
f 512 612 387
f 245 60 220
f 429 115 456
f 223 60 248
f 288 289 76
f 525 526 142
f 100 599 601
f 613 29 391
f 526 523 520
f 341 328 343
f 631 641 639
f 264 21 282
f 266 72 265
f 106 402 403
f 73 273 274
f 186 206 205
f 381 379 383
f 52 216 195
f 410 18 399
f 290 272 73
f 72 371 374
f 526 525 527
f 115 430 424
f 498 497 496
f 621 382 29
f 543 118 434
f 214 215 57
f 522 141 530
f 511 510 509
f 352 94 599
f 493 512 7
f 90 340 341
f 169 171 170
f 605 604 606
f 219 60 224
f 104 389 392
f 359 469 3
f 186 49 185
f 222 219 224
f 166 167 44
f 428 427 426
f 523 522 524
f 129 502 481
f 50 185 188
f 164 45 170
f 425 115 424
f 33 428 426
f 427 428 113
f 94 356 602
f 515 138 513
f 114 431 452
f 237 236 238
f 215 217 57
f 95 354 355
f 220 60 219
f 515 514 516
f 183 320 319
f 222 197 53
f 559 569 567
f 300 320 6
f 435 436 117
f 96 360 363
f 640 642 641
f 242 243 62
f 140 537 519
f 508 130 505
f 420 410 399
f 537 539 144
f 317 316 318
f 426 114 450
f 186 15 206
f 311 83 310
f 625 544 307
f 544 10 307
f 168 43 167
f 185 182 188
f 369 354 95
f 44 171 192
f 605 606 156
f 548 549 146
f 100 601 375
f 149 568 569
f 381 380 382
f 455 466 35
f 480 479 454
f 543 548 546
f 493 133 513
f 492 472 37
f 477 125 476
f 491 487 126
f 337 336 338
f 588 153 587
f 576 578 91
f 633 161 632
f 96 359 360
f 39 485 483
f 101 617 378
f 193 45 165
f 163 164 43
f 618 624 611
f 507 136 528
f 561 149 560
f 641 162 639
f 116 561 558
f 494 133 493
f 253 252 233
f 63 237 238
f 392 393 104
f 440 450 117
f 93 581 583
f 386 385 387
f 120 449 451
f 421 422 111
f 486 3 467
f 302 81 317
f 633 632 630
f 462 475 36
f 376 99 374
f 489 490 131
f 447 449 448
f 387 612 105
f 106 420 399
f 173 46 172
f 492 491 472
f 316 306 295
f 22 287 347
f 109 410 420
f 507 39 483
f 559 23 313
f 214 57 211
f 196 45 193
f 10 434 432
f 422 106 403
f 626 160 640
f 487 486 467
f 542 41 532
f 400 106 399
f 444 120 452
f 198 199 52
f 475 127 474
f 621 620 382
f 621 623 159
f 450 114 452
f 92 347 348
f 376 100 375
f 434 118 433
f 503 132 502
f 337 90 336
f 537 536 519
f 395 393 380
f 201 54 200
f 171 44 170
f 355 94 353
f 58 296 213
f 422 420 106
f 595 365 596
f 569 568 570
f 523 140 520
f 114 430 431
f 218 210 57
f 304 566 80
f 639 162 638
f 261 371 72
f 548 147 547
f 498 133 497
f 150 570 564
f 222 224 59
f 142 526 520
f 437 436 435
f 141 522 523
f 137 510 505
f 173 179 176
f 559 149 569
f 121 447 448
f 563 320 300
f 102 395 380
f 257 255 253
f 642 162 641
f 83 311 314
f 216 52 218
f 512 493 513
f 23 304 302
f 91 339 340
f 512 138 612
f 159 620 621
f 218 199 210
f 364 28 575
f 83 318 310
f 168 274 43
f 136 530 528
f 140 523 524
f 495 135 494
f 233 235 234
f 566 563 80
f 25 339 577
f 277 74 276
f 475 462 477
f 133 494 497
f 436 437 116
f 389 386 392
f 548 146 546
f 441 460 5
f 10 309 307
f 65 397 400
f 543 434 544
f 640 641 161
f 272 273 73
f 581 93 346
f 419 421 111
f 319 320 86
f 180 179 178
f 127 475 477
f 231 229 227
f 337 334 340
f 136 508 510
f 308 309 84
f 237 63 234
f 447 554 34
f 252 379 378
f 315 83 314
f 608 622 616
f 338 336 26
f 337 338 89
f 13 275 168
f 209 208 207
f 436 439 117
f 628 312 629
f 360 366 363
f 364 574 96
f 359 361 360
f 466 446 35
f 500 501 134
f 406 109 421
f 135 589 591
f 601 599 602
f 340 90 337
f 481 492 37
f 522 41 524
f 78 316 295
f 131 486 487
f 403 32 414
f 634 626 640
f 151 572 573
f 515 516 138
f 8 252 378
f 265 72 374
f 9 521 519
f 538 549 42
f 368 358 347
f 588 587 586
f 458 453 123
f 589 385 103
f 502 492 481
f 32 416 414
f 430 427 424
f 153 585 587
f 540 144 539
f 370 368 92
f 209 293 58
f 428 33 535
f 326 581 346
f 625 307 82
f 575 28 582
f 6 181 200
f 421 109 420
f 553 121 443
f 160 642 640
f 153 584 585
f 309 432 558
f 334 337 89
f 23 315 313
f 271 163 43
f 296 295 213
f 39 498 496
f 118 439 433
f 531 113 534
f 293 296 58
f 28 362 351
f 489 131 487
f 431 444 452
f 84 558 560
f 98 366 360
f 45 169 170
f 379 101 378
f 462 463 125
f 308 84 314
f 10 432 309
f 299 24 310
f 132 492 502
f 512 387 7
f 639 638 408
f 565 323 86
f 59 244 242
f 106 400 402
f 440 33 426
f 566 565 563
f 617 398 378
f 224 225 59
f 410 109 409
f 239 400 399
f 194 219 53
f 358 22 347
f 610 157 609
f 27 595 603
f 479 484 482
f 142 520 521
f 585 25 577
f 339 578 577
f 408 407 406
f 407 109 406
f 31 408 406
f 407 408 108
f 31 639 408
f 419 31 406
f 608 616 40
f 430 429 431
f 455 35 429
f 35 444 431
f 188 51 187
f 188 182 51
f 51 322 187
f 322 51 319
f 51 182 183
f 319 51 183
f 187 322 321
f 322 319 324
f 381 101 379
f 405 407 108
f 404 405 108
f 286 285 178
f 407 405 409
f 109 407 409
f 191 175 47
f 167 164 170
f 50 184 185
f 44 167 170
f 64 244 236
f 243 244 64
f 50 188 189
f 541 542 145
f 442 445 119
f 339 91 578
f 445 446 119
f 624 623 622
f 611 624 157
f 523 526 141
f 141 527 529
f 527 514 529
f 445 120 444
f 446 445 444
f 35 446 444
f 613 614 158
f 158 614 615
f 623 613 158
f 614 613 391
f 614 612 615
f 371 376 374
f 100 376 371
f 479 482 123
f 373 394 384
f 540 42 634
f 633 540 634
f 538 42 540
f 633 634 161
f 161 634 640
f 42 626 634
f 540 633 144
f 557 556 338
f 553 333 89
f 262 21 264
f 251 21 262
f 5 335 333
f 270 251 262
f 21 251 249
f 600 593 30
f 606 593 600
f 600 30 375
f 593 390 30
f 30 377 375
f 390 388 30
f 30 388 377
f 228 243 241
f 470 478 459
f 470 127 478
f 127 477 478
f 184 186 185
f 478 477 476
f 122 478 476
f 357 74 280
f 518 39 507
f 344 342 85
f 325 344 85
f 342 344 343
f 85 342 321
f 344 90 343
f 90 344 336
f 482 129 481
f 482 481 457
f 482 457 123
f 481 37 457
f 449 447 34
f 435 449 34
f 470 472 471
f 472 470 37
f 470 471 127
f 472 126 471
f 126 468 471
f 470 459 37
f 491 126 472
f 504 129 485
f 221 59 242
f 125 463 465
f 437 34 562
f 561 437 562
f 554 568 562
f 34 554 562
f 437 561 116
f 390 103 389
f 103 386 389
f 392 105 391
f 572 586 580
f 572 580 36
f 586 152 580
f 473 572 36
f 244 243 242
f 225 244 59
f 64 240 241
f 240 239 241
f 237 240 64
f 243 64 241
f 236 237 64
f 411 607 521
f 9 411 521
f 110 607 411
f 607 142 521
f 610 607 110
f 171 15 184
f 171 169 15
f 15 186 184
f 87 584 581
f 153 588 582
f 588 575 582
f 381 102 380
f 573 572 473
f 468 469 128
f 474 468 128
f 469 571 128
f 571 573 128
f 573 473 128
f 473 474 128
f 564 323 565
f 26 323 564
f 323 324 86
f 325 323 26
f 325 324 323
f 563 565 86
f 324 325 85
f 410 230 18
f 230 228 18
f 18 228 241
f 18 241 239
f 401 619 618
f 401 402 107
f 403 402 401
f 619 159 618
f 401 618 32
f 619 401 107
f 403 401 32
f 618 611 32
f 159 624 618
f 478 122 459
f 122 458 459
f 37 459 457
f 459 458 457
f 122 456 458
f 457 458 123
f 191 190 192
f 485 129 484
f 129 482 484
f 483 485 484
f 130 483 484
f 189 187 14
f 191 50 189
f 191 189 175
f 189 14 175
f 14 177 175
f 499 501 500
f 501 499 38
f 38 499 590
f 135 499 500
f 488 501 38
f 499 135 591
f 480 454 4
f 284 12 346
f 4 423 506
f 480 4 506
f 423 531 506
f 480 506 505
f 531 137 506
f 506 137 505
f 365 366 98
f 71 270 262
f 270 71 269
f 71 267 269
f 335 334 333
f 333 334 89
f 334 335 91
f 536 9 519
f 465 463 461
f 537 140 541
f 520 140 519
f 119 446 465
f 465 461 119
f 461 441 119
f 460 441 461
f 176 46 173
f 299 297 24
f 71 263 266
f 263 260 266
f 260 72 266
f 263 70 260
f 205 201 49
f 201 181 49
f 186 205 49
f 181 201 200
f 181 182 49
f 284 77 283
f 586 587 152
f 588 586 151
f 20 267 265
f 266 267 71
f 31 417 631
f 631 417 632
f 31 631 639
f 417 31 419
f 641 631 161
f 417 112 632
f 161 631 632
f 418 417 419
f 417 418 112
f 284 345 77
f 542 550 145
f 542 541 524
f 284 174 12
f 48 174 283
f 373 20 265
f 373 265 374
f 609 608 525
f 608 157 622
f 560 559 313
f 636 637 162
f 541 140 524
f 41 542 524
f 358 357 280
f 70 263 264
f 263 262 264
f 176 177 46
f 174 48 173
f 174 173 172
f 538 551 549
f 538 540 539
f 537 541 539
f 232 221 242
f 17 221 232
f 232 242 62
f 231 232 62
f 203 205 55
f 203 55 202
f 201 205 203
f 202 55 217
f 205 206 55
f 204 203 202
f 73 275 292
f 292 290 73
f 272 290 282
f 290 292 291
f 75 290 291
f 290 75 282
f 70 277 259
f 277 70 281
f 277 281 279
f 260 70 259
f 12 174 172
f 104 396 388
f 367 27 354
f 365 27 367
f 354 27 356
f 365 367 366
f 595 27 365
f 318 299 310
f 155 596 597
f 155 597 598
f 596 594 597
f 595 596 155
f 605 595 155
f 180 47 179
f 180 190 47
f 352 372 11
f 11 372 261
f 312 310 24
f 642 636 162
f 636 297 637
f 367 369 97
f 366 367 97
f 369 367 354
f 369 370 97
f 580 579 464
f 580 152 579
f 579 124 464
f 61 230 409
f 230 410 409
f 230 61 229
f 230 229 228
f 76 285 286
f 353 352 276
f 74 353 276
f 288 76 286
f 288 286 283
f 289 288 287
f 203 54 201
f 287 288 77
f 77 288 283
f 286 48 283
f 531 423 113
f 276 11 259
f 11 261 259
f 277 276 259
f 616 158 615
f 516 616 615
f 138 516 615
f 138 615 612
f 509 533 532
f 503 502 504
f 635 79 294
f 635 294 404
f 635 637 79
f 637 635 638
f 638 635 108
f 635 404 108
f 226 61 405
f 61 226 227
f 405 61 409
f 227 226 207
f 48 178 179
f 48 286 178
f 173 48 179
f 534 143 533
f 534 535 143
f 531 534 533
f 533 143 532
f 137 531 533
f 261 372 371
f 13 180 178
f 285 13 178
f 180 13 166
f 13 168 166
f 346 345 284
f 331 327 46
f 46 327 172
f 172 327 326
f 382 620 101
f 442 121 448
f 443 121 442
f 2 226 404
f 294 2 404
f 404 226 405
f 207 226 2
f 550 551 145
f 552 146 551
f 143 550 532
f 552 550 143
f 330 329 328
f 24 636 629
f 94 352 353
f 352 11 276
f 113 428 534
f 428 535 534
f 509 41 511
f 535 552 143
f 550 552 551
f 550 542 532
f 369 95 368
f 326 327 87
f 87 327 329
f 327 331 329
f 581 326 87
f 293 79 298
f 79 297 298
f 296 298 78
f 79 293 294
f 296 293 298
f 598 490 38
f 358 280 22
f 280 279 278
f 357 358 95
f 74 357 353
f 330 328 25
f 567 23 559
f 590 598 38
f 590 604 598
f 598 604 155
f 604 590 154
f 590 591 154
f 604 154 606
f 297 299 298
f 299 318 78
f 298 299 78
f 355 354 356
f 629 636 642
f 312 24 629
f 629 642 160
f 370 362 97
f 362 363 97
f 363 366 97
f 364 363 362
f 362 370 351
f 96 363 364
f 297 636 24
f 162 637 638
f 637 297 79
f 490 488 38
f 598 597 490
f 441 442 119
f 443 442 441
f 443 441 5
f 442 448 445
f 296 78 295
f 326 12 172
f 575 574 364
f 47 175 176
f 175 177 176
f 47 176 179
