# FEM surface export ¡ª frame 389
# Vertices: 642  Faces: 1280
v -0.52153528 1.19135571 -0.00193066
v 0.52167618 1.19051898 0.00010515
v -0.59798223 0.00016572 -0.02960551
v 0.56968606 0.09203981 0.02405137
v 0.00295392 0.00500428 0.95351946
v -0.00021931 0.91470391 0.86609918
v 0.00036239 0.03799054 -0.97728837
v -0.00135213 0.91451365 -0.86536503
v 0.90570974 0.44439033 -0.55982172
v 0.90467304 0.44219202 0.55855381
v -0.90396494 0.44211882 -0.55836999
v -0.90387523 0.44662800 0.55996180
v -0.82547480 0.89010024 0.31490690
v -0.51805198 0.72243375 0.83778095
v -0.30807287 1.15700710 0.49668965
v 0.30784976 1.15729845 0.49766546
v 0.00046888 1.31633532 -0.00032726
v 0.30774420 1.15809262 -0.49660972
v -0.30728716 1.15741730 -0.49848908
v -0.51909131 0.71973288 -0.83755916
v -0.82589370 0.88965940 -0.31622189
v -1.06374621 0.44131070 0.00054817
v 0.51999879 0.72153056 0.83880967
v 0.82569391 0.89194804 0.31531769
v -0.54224068 0.17241666 0.87940949
v 0.00250099 0.44054025 1.06450367
v -0.90618932 0.02023025 -0.34437993
v -0.90389454 0.02614532 0.34666771
v -0.00029412 0.44512001 -1.06055248
v -0.54421914 0.17247596 -0.88064170
v 0.82605886 0.88962144 -0.31676862
v 0.51700824 0.72220069 -0.83843935
v 0.89319974 0.00845163 0.33434346
v 0.54876488 0.16730359 0.87949717
v 0.35092250 0.00000000 0.58646661
v -0.37426251 0.00000000 0.56341994
v 0.00925822 0.00969363 0.02260715
v -0.34420365 0.00000000 -0.54788184
v 0.36704195 0.00001509 -0.51966435
v 0.54969132 0.17228451 -0.88778490
v 0.91063792 0.03333487 -0.34699148
v 1.06637359 0.44423166 -0.00124930
v -0.69655931 1.06554615 0.15960965
v -0.59016913 1.05432296 0.42634326
v -0.43032104 1.20202804 0.25572753
v -0.73549736 0.59177673 0.72720832
v -0.70649910 0.82595968 0.60160071
v -0.89700538 0.67833835 0.44987234
v -0.16095679 1.05838931 0.70444953
v -0.43159676 0.96795690 0.69576329
v -0.26649764 0.83333290 0.88511205
v -0.15909407 1.27570188 0.25835928
v -0.26784822 1.28485203 -0.00046874
v 0.16010997 1.05803347 0.70463794
v -0.00016733 1.19125724 0.52104896
v 0.26887646 1.28392160 0.00042742
v 0.16109893 1.27655089 0.25900692
v 0.43064487 1.20091641 0.25801384
v -0.15939894 1.27559268 -0.25974706
v -0.42934442 1.20235908 -0.25885651
v 0.43073931 1.20231533 -0.25660336
v 0.16023915 1.27590275 -0.25890219
v -0.16146211 1.05798101 -0.70419514
v 0.00186870 1.19130576 -0.52158946
v 0.16069894 1.05936360 -0.70493680
v -0.59079260 1.05295050 -0.42776343
v -0.69601166 1.06480753 -0.16289616
v -0.26772329 0.83079469 -0.88285333
v -0.43087757 0.96692735 -0.69656968
v -0.89746338 0.67631286 -0.45169270
v -0.70612848 0.82312310 -0.60272270
v -0.73664403 0.58776623 -0.72729409
v -0.86654365 0.91251683 -0.00101433
v -1.02285767 0.44134194 -0.29021066
v -0.99181467 0.67886728 -0.17026700
v -0.98853672 0.67947465 0.16755788
v -1.02174938 0.44213814 0.29040459
v 0.59083956 1.05234444 0.42719012
v 0.69518971 1.06582534 0.16048351
v 0.26724744 0.83131564 0.88544089
v 0.43033060 0.96696067 0.69649833
v 0.89860672 0.67805588 0.45214722
v 0.70784235 0.82648075 0.60372388
v 0.73818588 0.58944762 0.72625512
v -0.27451622 0.58976394 0.99646729
v 0.00032372 0.69037318 1.00072742
v -0.75496387 0.30100152 0.74748218
v -0.55665588 0.44711706 0.90383983
v 0.00354899 0.19936059 1.04883564
v -0.28072527 0.29941827 1.02727354
v -0.28740382 0.07252287 0.95632857
v -1.03018916 0.20349197 0.18063675
v -0.93620849 0.21489903 0.47328269
v -0.93584561 0.21121649 -0.47040960
v -1.03112364 0.20961463 -0.17436072
v -0.80989414 0.00000000 0.18738317
v -0.96005225 0.00783386 0.00070819
v -0.81009781 0.00000000 -0.18990429
v -0.55783468 0.44387692 -0.90200305
v -0.75173950 0.29684937 -0.74340266
v -0.00069591 0.69053847 -0.99821144
v -0.27599514 0.58985037 -0.99720114
v -0.29171294 0.07186603 -0.95689207
v -0.28256562 0.29721296 -1.02427351
v 0.00177838 0.20562389 -1.05003119
v 0.43031290 0.96729875 -0.69748986
v 0.26613641 0.83288932 -0.88470864
v 0.69592708 1.06440938 -0.16237544
v 0.59086514 1.05284238 -0.42617506
v 0.73634374 0.58918595 -0.72848904
v 0.70609623 0.82490647 -0.60478729
v 0.89835668 0.67821318 -0.45244050
v 0.79258907 0.00000000 0.17772461
v 0.68479776 0.00000000 0.49825695
v 0.47975168 0.03653172 0.31234637
v 0.75836086 0.29897192 0.74796921
v 0.75888038 0.06938519 0.64172208
v 0.93656015 0.20660973 0.46640283
v 0.18345453 0.00000000 0.82506329
v 0.49422082 0.00000000 0.79108924
v 0.28776109 0.06478018 0.95025879
v 0.15678178 0.00435401 0.28273469
v 0.26661387 0.01745718 0.01153908
v -0.19017000 0.00000000 0.82511729
v -0.02179471 0.00057464 0.60517156
v -0.26405966 0.00008610 0.00452015
v -0.18285288 0.01184302 0.26145265
v -0.48826820 0.00000000 0.27200997
v 0.16303417 0.02574351 -0.25563157
v 0.47334379 0.00668852 -0.24063843
v -0.47014228 0.00028430 -0.30957860
v -0.15569527 0.00000000 -0.27093992
v 0.19001287 0.00000000 -0.80030698
v -0.00341187 0.00000000 -0.54459751
v -0.17903803 0.00000000 -0.78928536
v 0.68980926 0.00000000 -0.48629507
v 0.79447424 0.00505428 -0.17087956
v 0.29379758 0.07939624 -0.96186382
v 0.49119845 0.00000000 -0.79228055
v 0.93851501 0.21200158 -0.47004819
v 0.75830364 0.06927709 -0.65259999
v 0.75627279 0.29919484 -0.74973714
v 0.94798976 0.00238236 -0.00787370
v 1.02591205 0.44466412 -0.29227650
v 1.02921772 0.20813943 -0.17550030
v 1.03331649 0.21031424 0.17573369
v 1.02235806 0.44430590 0.28967017
v 0.28614223 0.29541293 1.02170169
v 0.55994821 0.44667086 0.90619808
v 0.27656114 0.58983964 0.99758118
v -0.68934393 0.00000000 0.49817616
v -0.49072772 0.00000000 0.79521132
v -0.76535261 0.08517165 0.65281469
v -0.48419869 0.00000000 -0.79138148
v -0.68081778 0.00000000 -0.49450019
v -0.75854540 0.08010346 -0.65147442
v 0.55698401 0.44265077 -0.90308928
v 0.28325742 0.30325285 -1.02456117
v 0.27489588 0.59121591 -0.99685848
v 0.99026269 0.68045777 0.16862354
v 0.98911393 0.68023658 -0.16818172
v 0.86589140 0.91342562 -0.00056541
v -0.61339539 1.13550591 0.07974085
v -0.56877631 1.14292479 0.21043991
v -0.47951451 1.20320785 0.12844683
v -0.71586633 0.97943377 0.37430716
v -0.64924842 1.06632817 0.29541430
v -0.76783371 0.98337787 0.23781709
v -0.37217775 1.18626046 0.37914357
v -0.51439768 1.13462889 0.34385070
v -0.45331034 1.11379778 0.46626839
v -0.82681727 0.52008533 0.64993119
v -0.82680762 0.63791394 0.59488976
v -0.90890646 0.56475765 0.50867176
v -0.62032920 0.77866864 0.72812867
v -0.72836399 0.71210158 0.66992074
v -0.63262451 0.65850514 0.78952688
v -0.86840630 0.78782737 0.38516364
v -0.80882794 0.75555134 0.53118038
v -0.77515340 0.86409479 0.46305594
v -0.08259550 0.99167860 0.79169101
v -0.21605736 0.95219743 0.80429280
v -0.13393703 0.87683535 0.88479465
v -0.37265116 1.06978667 0.60272306
v -0.29793546 1.01878357 0.70735210
v -0.23662701 1.11375272 0.60527092
v -0.39552209 0.78231651 0.86992002
v -0.35371992 0.90575480 0.79786986
v -0.48038191 0.85159206 0.77524900
v -0.65604615 0.94757110 0.51994294
v -0.57598740 0.90368718 0.65754372
v -0.51707828 1.01892281 0.56750238
v -0.35324851 1.25265908 0.12898724
v -0.39736995 1.24397731 -0.00066445
v -0.23527662 1.22629309 0.38139367
v -0.29757738 1.24614882 0.25991967
v -0.13501327 1.31086612 -0.00076349
v -0.21550506 1.28793108 0.13026540
v -0.08006503 1.30683959 0.13081859
v 0.08103990 0.99096936 0.79118598
v -0.00024150 1.06636691 0.71235996
v 0.15459609 1.18191803 0.51448363
v 0.08067209 1.13179743 0.61669129
v 0.23650564 1.11290669 0.60526353
v -0.07966864 1.13142252 0.61738938
v -0.15505400 1.18347001 0.51479113
v 0.39954582 1.24387109 0.00064577
v 0.35428947 1.25156128 0.13049161
v 0.48015195 1.20253623 0.12969582
v 0.08186056 1.30528641 0.13077217
v 0.21767996 1.28867090 0.13163096
v 0.13586396 1.31016016 -0.00015403
v 0.37344825 1.18559849 0.38082317
v 0.29773960 1.24670255 0.26088220
v 0.23628870 1.22494292 0.38179836
v -0.08156631 1.24479520 0.39487135
v 0.08055199 1.24400640 0.39365858
v -0.00008909 1.28702986 0.26147944
v -0.35246548 1.25247514 -0.13105763
v -0.47873759 1.20300341 -0.13090417
v -0.08009681 1.30718303 -0.13138770
v -0.21589711 1.28969848 -0.13177530
v -0.37213284 1.18575943 -0.38178781
v -0.29663777 1.24642420 -0.26137221
v -0.23522277 1.22588670 -0.38236153
v 0.48076221 1.20384526 -0.12925427
v 0.35437733 1.25373352 -0.12927319
v 0.23649386 1.22671723 -0.38094324
v 0.29777870 1.24735630 -0.25947192
v 0.37242419 1.18690920 -0.37977701
v 0.21680108 1.28902364 -0.13027145
v 0.08095479 1.30744255 -0.13137399
v -0.08278216 0.99143815 -0.79140478
v 0.00028368 1.06647301 -0.71358478
v 0.08109034 0.99093676 -0.79181707
v -0.15430509 1.18258715 -0.51564586
v -0.07994230 1.13225210 -0.61863768
v -0.23635116 1.11327136 -0.60592419
v 0.23719180 1.11475205 -0.60589468
v 0.08170289 1.13313091 -0.61864680
v 0.15577528 1.18311608 -0.51484972
v 0.00043378 1.28661215 -0.26243654
v 0.08232270 1.24404013 -0.39344704
v -0.08009602 1.24415755 -0.39486530
v -0.56794840 1.14258099 -0.21372680
v -0.61383241 1.13536429 -0.08235256
v -0.45313948 1.11287892 -0.46916854
v -0.51407206 1.13516736 -0.34640470
v -0.76764810 0.98329097 -0.24135675
v -0.64982933 1.06597579 -0.29817972
v -0.71624029 0.97861892 -0.37685001
v -0.13555822 0.87706059 -0.88206416
v -0.21643233 0.95215356 -0.80312055
v -0.47971773 0.84887600 -0.77511412
v -0.35320944 0.90365243 -0.79731137
v -0.39649639 0.77918649 -0.86793709
v -0.29842505 1.01814675 -0.70836008
v -0.37264794 1.07011509 -0.60404617
v -0.90940738 0.56029338 -0.50940520
v -0.82779729 0.63409132 -0.59637648
v -0.82771075 0.51583380 -0.64975882
v -0.77461022 0.86154431 -0.46472251
v -0.80891550 0.75367612 -0.53219736
v -0.86920124 0.78641498 -0.38638765
v -0.63321000 0.65606868 -0.78940731
v -0.72929800 0.70914942 -0.67089474
v -0.62069482 0.77615076 -0.72839147
v -0.51732284 1.01680970 -0.56936103
v -0.57585466 0.90069115 -0.65955520
v -0.65605021 0.94556451 -0.52103949
v -0.70524961 1.07403588 -0.00126678
v -0.85626584 0.90728718 -0.16087134
v -0.78834605 0.99491060 -0.08358335
v -0.78850216 0.99505574 0.08011179
v -0.85532326 0.90662473 0.15833966
v -0.97213560 0.44229534 -0.42835277
v -0.97163522 0.55911863 -0.37630886
v -1.03747797 0.56193453 -0.08717668
v -1.01598072 0.56185466 -0.23268984
v -1.05256557 0.44347057 -0.14673387
v -0.95402175 0.67933816 -0.31412810
v -0.91854376 0.78876692 -0.24616994
v -0.97165877 0.56289297 0.37536573
v -0.97293919 0.44452009 0.42960781
v -0.91767043 0.78945619 0.24507563
v -0.95276564 0.68263465 0.31234297
v -1.05347073 0.44336644 0.14665157
v -1.01541436 0.56417382 0.23108895
v -1.03993642 0.56256521 0.08562060
v -0.94030964 0.80134833 -0.08553480
v -1.00405920 0.68174815 -0.00013763
v -0.94073957 0.80139172 0.08356519
v 0.56845903 1.14274311 0.21190913
v 0.61262679 1.13373041 0.07990446
v 0.45383957 1.11218083 0.46828818
v 0.51536506 1.13420761 0.34513596
v 0.76768595 0.98476797 0.23905504
v 0.65005028 1.06663060 0.29669914
v 0.71653312 0.98034471 0.37594721
v 0.13391039 0.87694013 0.88456124
v 0.21575007 0.95198655 0.80402976
v 0.48083854 0.85228825 0.77783567
v 0.35225183 0.90401387 0.79798663
v 0.39663652 0.77961266 0.87044472
v 0.29654732 1.01735389 0.70772982
v 0.37233758 1.06917012 0.60282451
v 0.90796649 0.56032854 0.50946206
v 0.82815254 0.63542628 0.59584111
v 0.82652205 0.51500905 0.64759529
v 0.77582479 0.86408550 0.46433058
v 0.80954844 0.75542945 0.53333426
v 0.87077624 0.78941280 0.38692844
v 0.63506180 0.65731204 0.79187250
v 0.72994041 0.71044064 0.67256892
v 0.62244248 0.77859592 0.73046523
v 0.51831907 1.01719069 0.56956011
v 0.57544094 0.90282136 0.65863818
v 0.65650672 0.94776034 0.52126318
v -0.13555692 0.76448745 0.95471835
v 0.00042667 0.80599767 0.94081593
v -0.40189219 0.65944916 0.92774552
v -0.27375647 0.71464527 0.94969130
v 0.00030426 0.56675744 1.04128540
v -0.13811913 0.64075500 1.00877595
v -0.14012524 0.51594132 1.04318190
v -0.83749312 0.37366951 0.66056895
v -0.75455332 0.44713396 0.74800754
v -0.55607742 0.30636299 0.90439701
v -0.66318727 0.37437484 0.83529967
v -0.65574402 0.23402950 0.82227182
v -0.65256810 0.51984841 0.82362479
v -0.54345298 0.58750933 0.88163942
v 0.00166785 0.09471647 1.01126802
v -0.14283225 0.12963150 1.01513672
v -0.14420180 0.04380084 0.97153103
v -0.13991255 0.37076825 1.05911291
v -0.14102027 0.24728440 1.04795218
v 0.00162325 0.31659564 1.06701267
v -0.42168963 0.11944701 0.92846352
v -0.28553948 0.18034072 1.00163877
v -0.41684881 0.23179674 0.96689552
v -0.41947126 0.51871765 0.96284920
v -0.42538926 0.37116781 0.97912079
v -0.28159639 0.44383174 1.02378774
v -0.99544156 0.32617944 0.38883314
v -0.92900825 0.32805079 0.52403092
v -1.06025350 0.32116205 0.09001892
v -1.03743839 0.32230449 0.23645785
v -0.92526239 0.11075472 0.41883451
v -0.99215442 0.21000370 0.33060220
v -0.97827923 0.10636853 0.26698887
v -0.92926264 0.32403040 -0.52080858
v -0.99190038 0.32319304 -0.38515007
v -0.97201979 0.10155359 -0.25900328
v -0.99197251 0.20746171 -0.32553595
v -0.92561352 0.10498989 -0.41262448
v -1.03797388 0.32162201 -0.23703641
v -1.06330454 0.32257137 -0.08819473
v -0.71406329 0.00000000 0.07598849
v -0.81536978 0.00000000 -0.00458495
v -0.71045732 0.00000000 -0.10945354
v -0.95397925 0.02568868 0.17507800
v -0.89924031 0.00000000 0.09767573
v -0.87795967 0.00000000 0.26867810
v -0.87295258 0.00000000 -0.28009555
v -0.90257078 0.00000000 -0.09618741
v -0.94859517 0.01581152 -0.17598470
v -1.04438686 0.20553306 0.00287919
v -1.00269771 0.09450368 -0.08707272
v -1.00488257 0.09260514 0.09566072
v -0.75478786 0.44119531 -0.74544847
v -0.83624142 0.36816153 -0.65670049
v -0.54493499 0.58431602 -0.87990975
v -0.65496540 0.51561308 -0.82275856
v -0.65580559 0.23340635 -0.82046783
v -0.66132522 0.36900017 -0.83306551
v -0.55735618 0.30261692 -0.90483987
v -0.00058572 0.80655992 -0.93956900
v -0.13633956 0.76615089 -0.95288408
v -0.14058225 0.51870948 -1.04306674
v -0.13910900 0.64292073 -1.00676966
v -0.00051400 0.57004845 -1.03977776
v -0.27444538 0.71412820 -0.94803756
v -0.40204984 0.65742415 -0.92695385
v -0.15044363 0.03747731 -0.97400272
v -0.14448006 0.13338199 -1.01397610
v 0.00329386 0.10253398 -1.01627588
v -0.41718209 0.22823662 -0.96469933
v -0.28705117 0.17925121 -0.99858892
v -0.42305756 0.11570755 -0.92824739
v -0.00004649 0.31993756 -1.06639707
v -0.14363027 0.24697879 -1.04624510
v -0.14206320 0.37137917 -1.05535471
v -0.42163900 0.51711273 -0.96241874
v -0.28371832 0.44344801 -1.02414060
v -0.42522076 0.36693290 -0.97516030
v 0.21548836 0.95320213 -0.80312645
v 0.13329838 0.87813270 -0.88402647
v 0.37294447 1.07086933 -0.60327774
v 0.29787779 1.01984954 -0.70784551
v 0.39514548 0.78133088 -0.86946559
v 0.35229233 0.90552938 -0.79786056
v 0.47958699 0.84977466 -0.77520990
v 0.61378872 1.13436961 -0.08123793
v 0.56902993 1.14310539 -0.21172500
v 0.71618068 0.97858620 -0.37567079
v 0.65002865 1.06584084 -0.29712841
v 0.76761389 0.98199809 -0.24040347
v 0.51518923 1.13498318 -0.34433705
v 0.45401499 1.11397374 -0.46845886
v 0.82789308 0.51661372 -0.65055662
v 0.82856637 0.63638818 -0.59738386
v 0.91048133 0.56301540 -0.51082993
v 0.61976975 0.77746952 -0.72875088
v 0.72833365 0.70905262 -0.67157120
v 0.63213241 0.65717971 -0.79074496
v 0.86902928 0.78748542 -0.38777196
v 0.80942208 0.75575185 -0.53453517
v 0.77420986 0.86361325 -0.46570981
v 0.51761025 1.01709855 -0.56872207
v 0.65597874 0.94584715 -0.52066201
v 0.57425588 0.90220779 -0.65870130
v 0.68386936 0.04250493 0.09224527
v 0.64015198 0.01594477 0.24155308
v 0.52960920 0.09524264 0.17468156
v 0.82808131 0.00000000 0.42785886
v 0.73923707 0.00000000 0.33813304
v 0.87731099 0.00000000 0.27119899
v 0.41968566 0.00000000 0.44601059
v 0.59744692 0.00000000 0.41667110
v 0.52773881 0.00000000 0.55547333
v 0.83968735 0.36881673 0.65918034
v 0.85866094 0.24832192 0.61586958
v 0.92895919 0.32303834 0.52106380
v 0.65922683 0.11383940 0.77054495
v 0.76386315 0.17932382 0.70088834
v 0.65866303 0.22942613 0.81851250
v 0.92368895 0.09966490 0.40187538
v 0.85662150 0.13387321 0.56002563
v 0.83688712 0.03640698 0.49494991
v 0.09501047 0.00000000 0.91294742
v 0.24348027 0.00000000 0.91000944
v 0.14579956 0.02591493 0.96388406
v 0.42978889 0.00424360 0.70861363
v 0.34619111 0.00000000 0.82149279
v 0.26605856 0.00000000 0.71173513
v 0.42063582 0.11263289 0.92323744
v 0.38885495 0.00000000 0.87514883
v 0.52527630 0.05417410 0.84565461
v 0.75227511 0.00000000 0.58627397
v 0.64159238 0.01032734 0.72615057
v 0.60293913 0.00000000 0.65410376
v 0.38542971 0.00000000 0.15663640
v 0.41316366 0.00783260 0.02901242
v 0.25506917 0.00000000 0.44300070
v 0.32021978 0.00723876 0.31279573
v 0.14213790 0.02023045 0.01687087
v 0.22338851 0.04175131 0.17449722
v 0.08195237 0.03265703 0.14749208
v -0.09668303 0.00000000 0.91679806
v -0.00937038 0.00000000 0.83235657
v -0.19753137 0.01982589 0.57801539
v -0.10837768 0.00000000 0.71159792
v -0.29390961 0.00259693 0.69543749
v 0.08503805 0.00001387 0.72866011
v 0.16631997 0.00000000 0.60444969
v -0.43346965 0.00000000 -0.01976574
v -0.38811979 0.02908433 0.12047698
v -0.54910302 0.00514161 0.11935158
v -0.09361386 0.04050166 0.13589422
v -0.23074836 0.10862238 0.13996983
v -0.13491419 0.02194591 0.01757908
v -0.43957636 0.00431485 0.41877243
v -0.31420198 0.00388991 0.26584175
v -0.27563128 0.00202424 0.40337411
v 0.07380999 0.03155953 0.45340618
v -0.10684117 0.04892971 0.43061799
v -0.01434567 0.01145085 0.28904343
v 0.37190157 0.00007345 -0.10447271
v 0.52557844 0.00244024 -0.10366368
v 0.08659500 0.05077708 -0.12408425
v 0.20572186 0.01365443 -0.10753413
v 0.43305075 0.00883095 -0.36526802
v 0.31019181 0.00303795 -0.23666948
v 0.27224091 0.00084460 -0.36653203
v -0.52580148 0.00000000 -0.16553567
v -0.37215954 0.00000000 -0.15618497
v -0.25146294 0.00718535 -0.40637755
v -0.31289965 0.00000000 -0.29017511
v -0.41296390 0.01636892 -0.43752405
v -0.21293402 0.00000000 -0.13769926
v -0.07745218 0.00002231 -0.13063706
v 0.09410175 0.00000000 -0.90356791
v 0.00608972 0.00000000 -0.81422114
v -0.09171803 0.00000000 -0.90207660
v 0.18600181 0.00000000 -0.53629255
v 0.10032220 0.00000000 -0.67003846
v 0.28271288 0.00000000 -0.66650003
v -0.26728955 0.00000000 -0.67234874
v -0.08630598 0.00000000 -0.68339121
v -0.15812026 0.00518525 -0.55363667
v 0.01624483 0.01253786 -0.25768733
v -0.07116921 0.00000000 -0.41494203
v 0.08844969 0.00268256 -0.38345924
v 0.64115244 0.03736018 -0.21407332
v 0.67564696 0.06081053 -0.08696070
v 0.54191267 0.00000000 -0.49764872
v 0.59522951 0.03858067 -0.35968000
v 0.87051797 0.00000000 -0.28071561
v 0.74631786 0.00005235 -0.33054557
v 0.81419289 0.00000000 -0.43938184
v 0.15234156 0.04749541 -0.97419918
v 0.24692430 0.00000000 -0.90573603
v 0.52860916 0.05524663 -0.84882909
v 0.39776567 0.02629524 -0.88645297
v 0.42796558 0.11911906 -0.93340111
v 0.35156119 0.00290943 -0.79950124
v 0.44024667 0.00000000 -0.66146576
v 0.92959577 0.32462043 -0.52160537
v 0.85838544 0.24769810 -0.61999553
v 0.83938718 0.36847502 -0.65856957
v 0.84446651 0.04393184 -0.50176954
v 0.85630983 0.13457696 -0.56110030
v 0.93800688 0.11603557 -0.41178161
v 0.65828431 0.23115468 -0.82726264
v 0.76669800 0.17849378 -0.70443118
v 0.66415143 0.11930480 -0.77895373
v 0.60448372 0.00000000 -0.64459699
v 0.63091618 0.00093887 -0.73182935
v 0.73762554 0.00000000 -0.59438974
v 0.80194664 0.00370154 0.00175192
v 0.94466317 0.01740524 -0.18432441
v 0.89253432 0.00000000 -0.09021894
v 0.90378374 0.00000000 0.08636322
v 0.94056356 0.00356278 0.16736808
v 0.97547066 0.44472796 -0.43090442
v 0.99582410 0.32780668 -0.38497269
v 1.06388605 0.32269228 -0.08905598
v 1.03821373 0.32582396 -0.23565897
v 1.05581474 0.44342828 -0.14668098
v 0.99500388 0.20997347 -0.32611760
v 0.98513097 0.11070079 -0.26341367
v 0.99520421 0.32410339 0.38646996
v 0.97322828 0.44242540 0.42797816
v 0.98059148 0.10783258 0.25801224
v 0.99434829 0.20929448 0.32590783
v 1.05163157 0.44214243 0.14536323
v 1.03891802 0.32377589 0.23716401
v 1.05905116 0.32512337 0.08749940
v 1.00194764 0.09254009 -0.09055616
v 1.05135238 0.20556206 0.00014381
v 1.00350177 0.09610984 0.08676492
v 0.14776301 0.12402915 1.01071405
v 0.42382905 0.22958221 0.96437699
v 0.29295731 0.17276479 0.99871320
v 0.14630631 0.24448204 1.04345381
v 0.14447068 0.36680821 1.05843592
v 0.75531083 0.44434911 0.74644983
v 0.54796839 0.58553541 0.88552618
v 0.65679377 0.51879346 0.82446539
v 0.66468394 0.37183803 0.83583975
v 0.56127781 0.30360919 0.90202951
v 0.13663021 0.76361048 0.95400703
v 0.14265576 0.51654196 1.04595363
v 0.13909264 0.64045137 1.00851953
v 0.27459332 0.71412748 0.95087808
v 0.40310195 0.65789288 0.92860967
v 0.42992106 0.36930218 0.97730601
v 0.42300299 0.51694947 0.96646428
v 0.28482196 0.44251451 1.02811468
v -0.65817088 0.00000000 0.23156716
v -0.53407329 0.00000000 0.54068899
v -0.60850173 0.00000000 0.39222860
v -0.76084858 0.00340566 0.34477237
v -0.81678683 0.00000000 0.42716452
v -0.24331391 0.00000000 0.91440994
v -0.52084839 0.05655881 0.84251714
v -0.39072049 0.01722909 0.88967627
v -0.34551015 0.00000000 0.82306182
v -0.44753942 0.00000000 0.71260983
v -0.85751480 0.25485498 0.61883086
v -0.84644562 0.04578263 0.50795346
v -0.85465038 0.14314258 0.56495655
v -0.76374066 0.18357940 0.70494533
v -0.65733045 0.11994720 0.77409464
v -0.60665303 0.00000000 0.66491920
v -0.64656591 0.02305929 0.73216569
v -0.73602223 0.00000000 0.58629483
v -0.24852900 0.00000000 -0.91693777
v -0.42995068 0.00000000 -0.68839645
v -0.33801991 0.00000000 -0.80653906
v -0.38851827 0.00744422 -0.88368779
v -0.51823312 0.05252916 -0.84680390
v -0.63858664 0.01121736 -0.24811772
v -0.80172992 0.00000000 -0.43251675
v -0.74036050 0.00000000 -0.34217787
v -0.58970493 0.02495018 -0.40438020
v -0.52054477 0.02351954 -0.53996968
v -0.85461068 0.25200620 -0.61678290
v -0.65905857 0.11990017 -0.77427214
v -0.76020324 0.17903252 -0.69959801
v -0.85686237 0.13863438 -0.56714553
v -0.84692222 0.04504944 -0.50607920
v -0.60082614 0.00000000 -0.65935308
v -0.73218536 0.00000000 -0.58965737
v -0.62792569 0.01501053 -0.72611064
v 0.75571865 0.44333687 -0.74548262
v 0.55962199 0.30343291 -0.90640336
v 0.66308153 0.37054774 -0.83343661
v 0.65502888 0.51514626 -0.82401121
v 0.54513490 0.58447111 -0.88011163
v 0.15020122 0.14276706 -1.02215958
v 0.14137633 0.37341660 -1.05576444
v 0.14558583 0.25373301 -1.05076468
v 0.29297942 0.18129134 -1.00723720
v 0.42073485 0.23285748 -0.97080857
v 0.13564165 0.76630491 -0.95273429
v 0.40211073 0.65844977 -0.92795008
v 0.27365854 0.71537173 -0.94859761
v 0.13773584 0.64290231 -1.00666690
v 0.14043617 0.51895380 -1.04114115
v 0.42761648 0.36764240 -0.97556341
v 0.28377593 0.44521156 -1.02242219
v 0.42167893 0.51849788 -0.96245277
v 0.97314912 0.56246376 0.37868232
v 1.04135180 0.56120300 0.08785656
v 1.02009904 0.56558996 0.23302194
v 0.95414627 0.68256825 0.31418759
v 0.91910017 0.79082143 0.24558401
v 0.97197866 0.56358683 -0.37661856
v 0.91707408 0.79025257 -0.24767199
v 0.95492035 0.68118024 -0.31332621
v 1.01611567 0.56324458 -0.23072177
v 1.04110563 0.56602973 -0.08544122
v 0.70474696 1.07271361 -0.00100678
v 0.85655075 0.90853661 0.15920931
v 0.78845084 0.99614233 0.08175568
v 0.78808743 0.99413282 -0.08287840
v 0.85613996 0.90555704 -0.15956523
v 1.00265813 0.68286133 0.00143317
v 0.93983334 0.80128866 -0.08516963
v 0.94064152 0.80326366 0.08467677
f 330 87 329
f 336 325 26
f 207 208 56
f 464 36 580
f 502 129 504
f 157 624 622
f 308 311 82
f 247 223 248
f 507 483 508
f 331 88 329
f 494 500 497
f 156 601 602
f 591 589 592
f 365 98 596
f 75 281 282
f 152 587 577
f 149 559 560
f 555 121 553
f 530 141 529
f 515 517 139
f 361 594 98
f 250 67 249
f 157 608 609
f 294 293 209
f 317 81 316
f 557 338 26
f 303 305 81
f 530 529 528
f 101 381 382
f 415 418 111
f 192 184 50
f 412 110 411
f 20 384 256
f 131 594 486
f 281 264 282
f 347 287 348
f 28 349 582
f 165 163 1
f 248 250 66
f 617 107 398
f 273 271 274
f 456 115 453
f 558 561 560
f 335 576 91
f 331 177 332
f 116 433 436
f 351 370 92
f 136 511 530
f 239 240 65
f 247 258 19
f 304 23 567
f 148 557 570
f 214 208 58
f 440 426 450
f 268 270 269
f 258 247 268
f 204 202 16
f 466 125 465
f 517 513 133
f 168 275 274
f 275 73 274
f 198 193 53
f 309 308 307
f 510 511 136
f 415 416 110
f 131 490 597
f 473 475 474
f 414 415 111
f 493 495 494
f 496 504 485
f 433 116 432
f 600 375 601
f 240 234 65
f 418 415 412
f 486 361 3
f 567 566 304
f 380 393 29
f 17 199 197
f 491 492 132
f 451 449 435
f 218 217 216
f 623 621 613
f 396 104 395
f 433 439 436
f 628 160 627
f 215 202 217
f 209 207 2
f 427 113 424
f 434 10 544
f 434 433 432
f 199 17 210
f 150 564 565
f 489 491 132
f 275 13 285
f 497 500 134
f 125 466 476
f 578 152 577
f 208 214 211
f 328 88 343
f 356 27 603
f 150 566 567
f 372 100 371
f 190 191 47
f 235 8 398
f 260 261 72
f 422 403 414
f 422 414 111
f 453 454 123
f 349 583 582
f 521 520 519
f 425 453 115
f 616 622 158
f 483 130 508
f 151 586 572
f 212 17 232
f 400 397 402
f 377 396 99
f 41 522 511
f 510 508 505
f 549 547 42
f 475 473 36
f 510 137 509
f 222 221 197
f 430 115 429
f 220 194 1
f 305 54 204
f 621 29 613
f 192 171 184
f 460 335 5
f 88 331 332
f 74 277 279
f 300 301 80
f 390 389 388
f 165 45 164
f 146 549 551
f 291 278 75
f 448 120 445
f 147 543 544
f 607 610 609
f 603 602 356
f 139 529 514
f 333 553 443
f 92 368 347
f 261 260 259
f 300 6 200
f 46 177 331
f 284 283 174
f 301 300 200
f 471 468 474
f 54 305 301
f 302 304 303
f 569 150 567
f 150 569 570
f 294 209 2
f 628 629 160
f 548 543 147
f 147 625 627
f 63 233 234
f 426 427 114
f 41 509 532
f 198 52 196
f 614 105 612
f 147 627 547
f 81 305 306
f 549 548 547
f 54 301 200
f 342 88 332
f 264 281 70
f 193 194 53
f 455 429 456
f 187 321 14
f 479 130 484
f 147 544 625
f 458 456 453
f 304 80 303
f 314 84 313
f 488 503 501
f 321 332 14
f 423 425 424
f 305 204 306
f 341 339 25
f 514 40 516
f 625 628 627
f 340 339 341
f 105 614 391
f 243 228 62
f 318 316 78
f 75 278 279
f 357 355 353
f 238 257 63
f 466 455 476
f 425 423 4
f 448 449 120
f 408 638 108
f 292 275 285
f 22 278 289
f 515 513 517
f 501 503 134
f 622 623 158
f 134 503 504
f 195 216 206
f 163 271 246
f 619 617 620
f 62 228 229
f 163 165 164
f 453 425 454
f 489 132 488
f 82 628 625
f 58 208 209
f 525 608 40
f 626 547 627
f 518 517 498
f 489 487 491
f 557 26 564
f 325 336 344
f 541 145 539
f 40 616 516
f 338 556 89
f 250 248 245
f 139 514 515
f 98 594 596
f 246 220 1
f 112 413 630
f 9 536 413
f 156 600 601
f 332 177 14
f 321 342 332
f 156 606 600
f 584 330 585
f 302 303 81
f 584 87 330
f 330 25 585
f 400 239 65
f 439 440 117
f 95 358 368
f 597 594 131
f 594 361 486
f 246 67 245
f 561 562 149
f 28 364 362
f 55 216 217
f 427 430 114
f 267 20 254
f 556 555 553
f 84 309 558
f 311 310 312
f 609 525 142
f 256 68 255
f 124 460 461
f 82 311 312
f 307 308 82
f 589 135 495
f 527 40 514
f 112 418 412
f 20 256 254
f 258 238 19
f 267 254 269
f 273 272 249
f 392 391 393
f 137 533 509
f 122 455 456
f 9 413 411
f 130 480 505
f 333 443 5
f 527 525 40
f 589 495 385
f 39 496 485
f 223 225 224
f 414 416 415
f 219 222 53
f 145 538 539
f 413 412 411
f 469 468 467
f 183 181 6
f 191 192 50
f 429 35 431
f 292 285 76
f 413 112 412
f 415 110 412
f 43 164 167
f 467 468 126
f 617 101 620
f 450 451 117
f 438 546 545
f 619 620 159
f 17 212 210
f 124 579 576
f 584 153 583
f 460 124 576
f 3 469 467
f 311 308 314
f 6 320 183
f 389 104 388
f 251 250 249
f 194 165 1
f 291 289 278
f 287 77 348
f 238 258 257
f 139 517 518
f 238 236 19
f 223 247 19
f 382 380 29
f 39 518 498
f 361 359 3
f 69 255 257
f 139 518 528
f 33 545 535
f 387 385 7
f 69 268 269
f 477 462 125
f 454 479 123
f 121 555 447
f 451 435 117
f 454 425 4
f 233 252 8
f 124 463 464
f 69 258 268
f 168 167 166
f 583 153 582
f 384 394 102
f 138 512 513
f 57 210 211
f 254 256 255
f 607 609 142
f 324 319 86
f 289 291 76
f 291 292 76
f 384 102 383
f 422 421 420
f 221 17 197
f 383 102 381
f 376 377 99
f 99 373 374
f 386 105 392
f 438 33 440
f 90 341 343
f 281 75 279
f 574 571 96
f 628 82 312
f 221 222 59
f 127 471 474
f 595 605 603
f 551 538 145
f 334 91 340
f 322 324 85
f 305 303 301
f 18 239 399
f 306 204 16
f 199 198 197
f 166 190 180
f 303 80 301
f 267 266 265
f 626 42 547
f 16 215 213
f 349 351 350
f 295 16 213
f 68 379 252
f 250 251 66
f 627 160 626
f 383 68 256
f 343 88 342
f 507 508 136
f 202 215 16
f 197 198 53
f 254 69 269
f 603 605 156
f 418 419 111
f 384 383 256
f 455 122 476
f 203 204 54
f 556 557 148
f 255 68 253
f 313 84 560
f 25 328 341
f 254 255 69
f 603 156 602
f 581 584 583
f 630 632 112
f 163 246 1
f 246 245 220
f 432 116 558
f 499 591 590
f 320 563 86
f 345 93 350
f 306 16 295
f 346 93 345
f 562 568 149
f 604 605 155
f 154 592 593
f 545 552 535
f 511 522 530
f 574 573 571
f 566 150 565
f 361 98 360
f 67 271 273
f 234 235 65
f 208 211 56
f 574 151 573
f 251 270 66
f 398 8 378
f 213 215 214
f 438 440 439
f 315 314 313
f 263 71 262
f 20 373 384
f 496 134 504
f 329 88 328
f 81 306 316
f 555 556 148
f 592 589 103
f 617 619 107
f 227 207 56
f 571 359 96
f 446 466 465
f 206 216 55
f 359 571 469
f 568 148 570
f 34 437 435
f 28 351 349
f 21 272 282
f 113 423 424
f 490 489 488
f 379 68 383
f 210 212 211
f 80 563 300
f 351 92 350
f 326 346 12
f 83 317 318
f 555 148 554
f 212 231 56
f 218 57 217
f 271 67 246
f 195 196 52
f 270 268 66
f 390 592 103
f 148 568 554
f 495 493 7
f 592 390 593
f 357 95 355
f 574 575 151
f 452 120 451
f 154 591 592
f 587 585 577
f 395 394 396
f 93 349 350
f 610 416 611
f 166 44 190
f 315 23 302
f 315 302 317
f 268 247 66
f 606 154 593
f 396 394 99
f 211 212 56
f 370 369 368
f 235 397 65
f 280 278 22
f 83 315 317
f 575 588 151
f 74 279 280
f 385 495 7
f 63 257 253
f 397 235 398
f 214 58 213
f 220 219 194
f 546 146 545
f 236 225 19
f 599 94 602
f 235 233 8
f 102 394 395
f 611 416 32
f 225 223 19
f 139 528 529
f 231 62 229
f 419 406 421
f 451 450 452
f 49 182 185
f 402 397 107
f 52 199 218
f 416 610 110
f 225 236 244
f 107 397 398
f 68 252 253
f 322 85 321
f 182 181 183
f 118 438 439
f 546 438 118
f 348 77 345
f 543 546 118
f 231 212 232
f 610 611 157
f 33 438 545
f 385 386 103
f 479 480 130
f 169 195 15
f 93 583 349
f 15 195 206
f 190 44 192
f 247 248 66
f 146 552 545
f 248 60 245
f 570 557 564
f 274 271 43
f 63 253 233
f 272 21 249
f 507 528 518
f 67 273 249
f 487 467 126
f 196 195 169
f 624 159 623
f 134 496 497
f 132 503 488
f 104 393 395
f 556 553 89
f 355 356 94
f 258 69 257
f 229 61 227
f 56 231 227
f 460 576 335
f 463 124 461
f 394 373 99
f 29 393 391
f 67 250 245
f 193 198 196
f 462 36 464
f 144 633 630
f 141 526 527
f 517 133 498
f 536 144 630
f 100 372 599
f 144 536 537
f 22 289 287
f 578 579 152
f 579 578 576
f 189 188 187
f 60 223 224
f 92 348 350
f 555 554 447
f 396 377 388
f 194 193 165
f 413 536 630
f 372 352 599
f 377 376 375
f 348 345 350
f 105 386 387
f 240 237 234
f 463 462 464
f 135 500 494
f 45 196 169
f 512 612 387
f 245 60 220
f 429 115 456
f 223 60 248
f 288 289 76
f 525 526 142
f 100 599 601
f 613 29 391
f 526 523 520
f 341 328 343
f 631 641 639
f 264 21 282
f 266 72 265
f 106 402 403
f 73 273 274
f 186 206 205
f 381 379 383
f 52 216 195
f 410 18 399
f 290 272 73
f 72 371 374
f 526 525 527
f 115 430 424
f 498 497 496
f 621 382 29
f 543 118 434
f 214 215 57
f 522 141 530
f 511 510 509
f 352 94 599
f 493 512 7
f 90 340 341
f 169 171 170
f 605 604 606
f 219 60 224
f 104 389 392
f 359 469 3
f 186 49 185
f 222 219 224
f 166 167 44
f 428 427 426
f 523 522 524
f 129 502 481
f 50 185 188
f 164 45 170
f 425 115 424
f 33 428 426
f 427 428 113
f 94 356 602
f 515 138 513
f 114 431 452
f 237 236 238
f 215 217 57
f 95 354 355
f 220 60 219
f 515 514 516
f 183 320 319
f 222 197 53
f 559 569 567
f 300 320 6
f 435 436 117
f 96 360 363
f 640 642 641
f 242 243 62
f 140 537 519
f 508 130 505
f 420 410 399
f 537 539 144
f 317 316 318
f 426 114 450
f 186 15 206
f 311 83 310
f 625 544 307
f 544 10 307
f 168 43 167
f 185 182 188
f 369 354 95
f 44 171 192
f 605 606 156
f 548 549 146
f 100 601 375
f 149 568 569
f 381 380 382
f 455 466 35
f 480 479 454
f 543 548 546
f 493 133 513
f 492 472 37
f 477 125 476
f 491 487 126
f 337 336 338
f 588 153 587
f 576 578 91
f 633 161 632
f 96 359 360
f 39 485 483
f 101 617 378
f 193 45 165
f 163 164 43
f 618 624 611
f 507 136 528
f 561 149 560
f 641 162 639
f 116 561 558
f 494 133 493
f 253 252 233
f 63 237 238
f 392 393 104
f 440 450 117
f 93 581 583
f 386 385 387
f 120 449 451
f 421 422 111
f 486 3 467
f 302 81 317
f 633 632 630
f 462 475 36
f 376 99 374
f 489 490 131
f 447 449 448
f 387 612 105
f 106 420 399
f 173 46 172
f 492 491 472
f 316 306 295
f 22 287 347
f 109 410 420
f 507 39 483
f 559 23 313
f 214 57 211
f 196 45 193
f 10 434 432
f 422 106 403
f 626 160 640
f 487 486 467
f 542 41 532
f 400 106 399
f 444 120 452
f 198 199 52
f 475 127 474
f 621 620 382
f 621 623 159
f 450 114 452
f 92 347 348
f 376 100 375
f 434 118 433
f 503 132 502
f 337 90 336
f 537 536 519
f 395 393 380
f 201 54 200
f 171 44 170
f 355 94 353
f 58 296 213
f 422 420 106
f 595 365 596
f 569 568 570
f 523 140 520
f 114 430 431
f 218 210 57
f 304 566 80
f 639 162 638
f 261 371 72
f 548 147 547
f 498 133 497
f 150 570 564
f 222 224 59
f 142 526 520
f 437 436 435
f 141 522 523
f 137 510 505
f 173 179 176
f 559 149 569
f 121 447 448
f 563 320 300
f 102 395 380
f 257 255 253
f 642 162 641
f 83 311 314
f 216 52 218
f 512 493 513
f 23 304 302
f 91 339 340
f 512 138 612
f 159 620 621
f 218 199 210
f 364 28 575
f 83 318 310
f 168 274 43
f 136 530 528
f 140 523 524
f 495 135 494
f 233 235 234
f 566 563 80
f 25 339 577
f 277 74 276
f 475 462 477
f 133 494 497
f 436 437 116
f 389 386 392
f 548 146 546
f 441 460 5
f 10 309 307
f 65 397 400
f 543 434 544
f 640 641 161
f 272 273 73
f 581 93 346
f 419 421 111
f 319 320 86
f 180 179 178
f 127 475 477
f 231 229 227
f 337 334 340
f 136 508 510
f 308 309 84
f 237 63 234
f 447 554 34
f 252 379 378
f 315 83 314
f 608 622 616
f 338 336 26
f 337 338 89
f 13 275 168
f 209 208 207
f 436 439 117
f 628 312 629
f 360 366 363
f 364 574 96
f 359 361 360
f 466 446 35
f 500 501 134
f 406 109 421
f 135 589 591
f 601 599 602
f 340 90 337
f 481 492 37
f 522 41 524
f 78 316 295
f 131 486 487
f 403 32 414
f 634 626 640
f 151 572 573
f 515 516 138
f 8 252 378
f 265 72 374
f 9 521 519
f 538 549 42
f 368 358 347
f 588 587 586
f 458 453 123
f 589 385 103
f 502 492 481
f 32 416 414
f 430 427 424
f 153 585 587
f 540 144 539
f 370 368 92
f 209 293 58
f 428 33 535
f 326 581 346
f 625 307 82
f 575 28 582
f 6 181 200
f 421 109 420
f 553 121 443
f 160 642 640
f 153 584 585
f 309 432 558
f 334 337 89
f 23 315 313
f 271 163 43
f 296 295 213
f 39 498 496
f 118 439 433
f 531 113 534
f 293 296 58
f 28 362 351
f 489 131 487
f 431 444 452
f 84 558 560
f 98 366 360
f 45 169 170
f 379 101 378
f 462 463 125
f 308 84 314
f 10 432 309
f 299 24 310
f 132 492 502
f 512 387 7
f 639 638 408
f 565 323 86
f 59 244 242
f 106 400 402
f 440 33 426
f 566 565 563
f 617 398 378
f 224 225 59
f 410 109 409
f 239 400 399
f 194 219 53
f 358 22 347
f 610 157 609
f 27 595 603
f 479 484 482
f 142 520 521
f 585 25 577
f 339 578 577
f 408 407 406
f 407 109 406
f 31 408 406
f 407 408 108
f 31 639 408
f 419 31 406
f 608 616 40
f 430 429 431
f 455 35 429
f 35 444 431
f 188 51 187
f 188 182 51
f 51 322 187
f 322 51 319
f 51 182 183
f 319 51 183
f 187 322 321
f 322 319 324
f 381 101 379
f 405 407 108
f 404 405 108
f 286 285 178
f 407 405 409
f 109 407 409
f 191 175 47
f 167 164 170
f 50 184 185
f 44 167 170
f 64 244 236
f 243 244 64
f 50 188 189
f 541 542 145
f 442 445 119
f 339 91 578
f 445 446 119
f 624 623 622
f 611 624 157
f 523 526 141
f 141 527 529
f 527 514 529
f 445 120 444
f 446 445 444
f 35 446 444
f 613 614 158
f 158 614 615
f 623 613 158
f 614 613 391
f 614 612 615
f 371 376 374
f 100 376 371
f 479 482 123
f 373 394 384
f 540 42 634
f 633 540 634
f 538 42 540
f 633 634 161
f 161 634 640
f 42 626 634
f 540 633 144
f 557 556 338
f 553 333 89
f 262 21 264
f 251 21 262
f 5 335 333
f 270 251 262
f 21 251 249
f 600 593 30
f 606 593 600
f 600 30 375
f 593 390 30
f 30 377 375
f 390 388 30
f 30 388 377
f 228 243 241
f 470 478 459
f 470 127 478
f 127 477 478
f 184 186 185
f 478 477 476
f 122 478 476
f 357 74 280
f 518 39 507
f 344 342 85
f 325 344 85
f 342 344 343
f 85 342 321
f 344 90 343
f 90 344 336
f 482 129 481
f 482 481 457
f 482 457 123
f 481 37 457
f 449 447 34
f 435 449 34
f 470 472 471
f 472 470 37
f 470 471 127
f 472 126 471
f 126 468 471
f 470 459 37
f 491 126 472
f 504 129 485
f 221 59 242
f 125 463 465
f 437 34 562
f 561 437 562
f 554 568 562
f 34 554 562
f 437 561 116
f 390 103 389
f 103 386 389
f 392 105 391
f 572 586 580
f 572 580 36
f 586 152 580
f 473 572 36
f 244 243 242
f 225 244 59
f 64 240 241
f 240 239 241
f 237 240 64
f 243 64 241
f 236 237 64
f 411 607 521
f 9 411 521
f 110 607 411
f 607 142 521
f 610 607 110
f 171 15 184
f 171 169 15
f 15 186 184
f 87 584 581
f 153 588 582
f 588 575 582
f 381 102 380
f 573 572 473
f 468 469 128
f 474 468 128
f 469 571 128
f 571 573 128
f 573 473 128
f 473 474 128
f 564 323 565
f 26 323 564
f 323 324 86
f 325 323 26
f 325 324 323
f 563 565 86
f 324 325 85
f 410 230 18
f 230 228 18
f 18 228 241
f 18 241 239
f 401 619 618
f 401 402 107
f 403 402 401
f 619 159 618
f 401 618 32
f 619 401 107
f 403 401 32
f 618 611 32
f 159 624 618
f 478 122 459
f 122 458 459
f 37 459 457
f 459 458 457
f 122 456 458
f 457 458 123
f 191 190 192
f 485 129 484
f 129 482 484
f 483 485 484
f 130 483 484
f 189 187 14
f 191 50 189
f 191 189 175
f 189 14 175
f 14 177 175
f 499 501 500
f 501 499 38
f 38 499 590
f 135 499 500
f 488 501 38
f 499 135 591
f 480 454 4
f 284 12 346
f 4 423 506
f 480 4 506
f 423 531 506
f 480 506 505
f 531 137 506
f 506 137 505
f 365 366 98
f 71 270 262
f 270 71 269
f 71 267 269
f 335 334 333
f 333 334 89
f 334 335 91
f 536 9 519
f 465 463 461
f 537 140 541
f 520 140 519
f 119 446 465
f 465 461 119
f 461 441 119
f 460 441 461
f 176 46 173
f 299 297 24
f 71 263 266
f 263 260 266
f 260 72 266
f 263 70 260
f 205 201 49
f 201 181 49
f 186 205 49
f 181 201 200
f 181 182 49
f 284 77 283
f 586 587 152
f 588 586 151
f 20 267 265
f 266 267 71
f 31 417 631
f 631 417 632
f 31 631 639
f 417 31 419
f 641 631 161
f 417 112 632
f 161 631 632
f 418 417 419
f 417 418 112
f 284 345 77
f 542 550 145
f 542 541 524
f 284 174 12
f 48 174 283
f 373 20 265
f 373 265 374
f 609 608 525
f 608 157 622
f 560 559 313
f 636 637 162
f 541 140 524
f 41 542 524
f 358 357 280
f 70 263 264
f 263 262 264
f 176 177 46
f 174 48 173
f 174 173 172
f 538 551 549
f 538 540 539
f 537 541 539
f 232 221 242
f 17 221 232
f 232 242 62
f 231 232 62
f 203 205 55
f 203 55 202
f 201 205 203
f 202 55 217
f 205 206 55
f 204 203 202
f 73 275 292
f 292 290 73
f 272 290 282
f 290 292 291
f 75 290 291
f 290 75 282
f 70 277 259
f 277 70 281
f 277 281 279
f 260 70 259
f 12 174 172
f 104 396 388
f 367 27 354
f 365 27 367
f 354 27 356
f 365 367 366
f 595 27 365
f 318 299 310
f 155 596 597
f 155 597 598
f 596 594 597
f 595 596 155
f 605 595 155
f 180 47 179
f 180 190 47
f 352 372 11
f 11 372 261
f 312 310 24
f 642 636 162
f 636 297 637
f 367 369 97
f 366 367 97
f 369 367 354
f 369 370 97
f 580 579 464
f 580 152 579
f 579 124 464
f 61 230 409
f 230 410 409
f 230 61 229
f 230 229 228
f 76 285 286
f 353 352 276
f 74 353 276
f 288 76 286
f 288 286 283
f 289 288 287
f 203 54 201
f 287 288 77
f 77 288 283
f 286 48 283
f 531 423 113
f 276 11 259
f 11 261 259
f 277 276 259
f 616 158 615
f 516 616 615
f 138 516 615
f 138 615 612
f 509 533 532
f 503 502 504
f 635 79 294
f 635 294 404
f 635 637 79
f 637 635 638
f 638 635 108
f 635 404 108
f 226 61 405
f 61 226 227
f 405 61 409
f 227 226 207
f 48 178 179
f 48 286 178
f 173 48 179
f 534 143 533
f 534 535 143
f 531 534 533
f 533 143 532
f 137 531 533
f 261 372 371
f 13 180 178
f 285 13 178
f 180 13 166
f 13 168 166
f 346 345 284
f 331 327 46
f 46 327 172
f 172 327 326
f 382 620 101
f 442 121 448
f 443 121 442
f 2 226 404
f 294 2 404
f 404 226 405
f 207 226 2
f 550 551 145
f 552 146 551
f 143 550 532
f 552 550 143
f 330 329 328
f 24 636 629
f 94 352 353
f 352 11 276
f 113 428 534
f 428 535 534
f 509 41 511
f 535 552 143
f 550 552 551
f 550 542 532
f 369 95 368
f 326 327 87
f 87 327 329
f 327 331 329
f 581 326 87
f 293 79 298
f 79 297 298
f 296 298 78
f 79 293 294
f 296 293 298
f 598 490 38
f 358 280 22
f 280 279 278
f 357 358 95
f 74 357 353
f 330 328 25
f 567 23 559
f 590 598 38
f 590 604 598
f 598 604 155
f 604 590 154
f 590 591 154
f 604 154 606
f 297 299 298
f 299 318 78
f 298 299 78
f 355 354 356
f 629 636 642
f 312 24 629
f 629 642 160
f 370 362 97
f 362 363 97
f 363 366 97
f 364 363 362
f 362 370 351
f 96 363 364
f 297 636 24
f 162 637 638
f 637 297 79
f 490 488 38
f 598 597 490
f 441 442 119
f 443 442 441
f 443 441 5
f 442 448 445
f 296 78 295
f 326 12 172
f 575 574 364
f 47 175 176
f 175 177 176
f 47 176 179
