# FEM surface export ¡ª frame 400
# Vertices: 642  Faces: 1280
v -0.52077711 1.16433430 -0.00229712
v 0.52112412 1.16362441 -0.00028645
v -0.57380933 0.00273494 -0.03753625
v 0.56298667 0.10181208 0.01365725
v 0.00299679 0.00000000 0.95840740
v -0.00011452 0.89132398 0.86654341
v 0.00045878 0.02220286 -0.98683077
v -0.00107499 0.89121324 -0.86594671
v 0.90628040 0.42349920 -0.56220561
v 0.90607113 0.41963232 0.55886203
v -0.90332246 0.42026386 -0.55842376
v -0.90392524 0.42551646 0.56104290
v -0.82612485 0.86735773 0.31501272
v -0.51860487 0.70101506 0.83866459
v -0.30785084 1.13034272 0.49605292
v 0.30760637 1.13121808 0.49725035
v 0.00054411 1.28500473 -0.00076341
v 0.30725211 1.13199437 -0.49642769
v -0.30738577 1.13097847 -0.49813527
v -0.51950777 0.69731927 -0.83805019
v -0.82654721 0.86634105 -0.31633538
v -1.06531131 0.42058772 0.00213860
v 0.52092886 0.69922483 0.83982998
v 0.82625991 0.86887038 0.31556273
v -0.54222912 0.15312232 0.88062334
v 0.00241507 0.42018470 1.06626630
v -0.90966231 0.00089550 -0.34439197
v -0.90870231 0.00975939 0.34918824
v -0.00098585 0.42383248 -1.06186628
v -0.54856843 0.15275954 -0.87956375
v 0.82675940 0.86699164 -0.31669241
v 0.51778322 0.70017850 -0.83941585
v 0.90214854 0.00000000 0.33364969
v 0.54760981 0.14650387 0.87836814
v 0.34882134 0.00000216 0.58238953
v -0.36018440 0.00013453 0.55495238
v 0.00652724 0.03643013 0.03106233
v -0.34407157 0.00025348 -0.53413028
v 0.35635689 0.00048376 -0.49904245
v 0.54996103 0.15628138 -0.88935620
v 0.91630453 0.01987015 -0.35067105
v 1.06770539 0.42334846 -0.00101060
v -0.69634044 1.04088044 0.15926790
v -0.58996218 1.02955389 0.42584905
v -0.42975178 1.17436194 0.25505045
v -0.73624355 0.57062668 0.72857577
v -0.70713788 0.80397356 0.60195488
v -0.89808303 0.65661544 0.45049059
v -0.16080174 1.03342128 0.70421070
v -0.43155745 0.94438869 0.69558078
v -0.26677516 0.81081510 0.88566470
v -0.15878364 1.24600661 0.25747344
v -0.26724702 1.25494134 -0.00074615
v 0.16026327 1.03325558 0.70460266
v -0.00007642 1.16411161 0.52039337
v 0.26813322 1.25412369 0.00004408
v 0.16060574 1.24728167 0.25807786
v 0.43002310 1.17385530 0.25709569
v -0.15899166 1.24598682 -0.25935319
v -0.42856848 1.17480874 -0.25884363
v 0.43013778 1.17512715 -0.25655821
v 0.15972012 1.24667192 -0.25877202
v -0.16180131 1.03332269 -0.70422041
v 0.00170984 1.16468787 -0.52086598
v 0.16037141 1.03462958 -0.70482963
v -0.59077579 1.02790630 -0.42770371
v -0.69588476 1.03986025 -0.16314282
v -0.26780531 0.80802482 -0.88345939
v -0.43116292 0.94286937 -0.69714767
v -0.89875942 0.65449667 -0.45228297
v -0.70660937 0.80057943 -0.60293120
v -0.73749822 0.56590492 -0.72780687
v -0.86661154 0.88900590 -0.00132218
v -1.02275515 0.42111710 -0.28995690
v -0.99325496 0.65689743 -0.17069051
v -0.98932773 0.65843469 0.16747078
v -1.02303469 0.42021134 0.29133442
v 0.59066427 1.02783537 0.42704031
v 0.69504762 1.04124808 0.16052407
v 0.26807734 0.80897230 0.88631153
v 0.43077779 0.94285512 0.69670939
v 0.89934272 0.65573221 0.45302680
v 0.70852947 0.80334347 0.60413331
v 0.73947513 0.56786942 0.72731447
v -0.27489689 0.56873673 0.99783182
v 0.00045650 0.66797328 1.00220346
v -0.75474715 0.27999169 0.74713188
v -0.55756599 0.42585206 0.90530151
v 0.00137392 0.18100177 1.04504442
v -0.28141287 0.28008172 1.02815092
v -0.28972477 0.05634962 0.95661455
v -1.02594984 0.18255875 0.17997286
v -0.93395478 0.19444764 0.47412416
v -0.93202919 0.19028664 -0.46828052
v -1.02658737 0.18960255 -0.17429757
v -0.81006306 0.00000000 0.18040363
v -0.97150809 0.00000000 0.00066329
v -0.81174815 0.00165268 -0.19546008
v -0.55699646 0.42304665 -0.90288734
v -0.75079584 0.27535084 -0.74259341
v -0.00077535 0.66806614 -0.99916601
v -0.27556053 0.56702632 -0.99831420
v -0.29171699 0.05814499 -0.95908457
v -0.28474563 0.27788261 -1.02381027
v 0.00218335 0.18885371 -1.05143869
v 0.43030912 0.94394034 -0.69755018
v 0.26640400 0.81039965 -0.88560277
v 0.69574565 1.04026616 -0.16223836
v 0.59052008 1.02828431 -0.42639542
v 0.73632860 0.56717241 -0.72921020
v 0.70717442 0.80220348 -0.60540205
v 0.89967394 0.65508413 -0.45237240
v 0.77985716 0.00622957 0.17150873
v 0.68123609 0.00000000 0.49433225
v 0.46820512 0.05501657 0.31535050
v 0.75886309 0.27658540 0.74648535
v 0.75507957 0.04804692 0.64188826
v 0.93732250 0.18405595 0.46524104
v 0.18060090 0.00000000 0.83106148
v 0.50434703 0.00000000 0.79608607
v 0.28230897 0.04804188 0.95009297
v 0.16061310 0.01430413 0.27967027
v 0.27041745 0.01552408 0.01902852
v -0.19783309 0.00000000 0.82821214
v -0.02627954 0.00437067 0.58843046
v -0.26483402 0.01455354 0.00752750
v -0.18636185 0.05377538 0.27166745
v -0.47248280 0.00000000 0.26657626
v 0.15691400 0.03112410 -0.23714943
v 0.47544032 0.01302992 -0.23833261
v -0.45076254 0.00387013 -0.29712850
v -0.14955172 0.00108743 -0.24125299
v 0.19618024 0.00000000 -0.79913884
v -0.00196086 0.00000000 -0.53071612
v -0.17561223 0.00000000 -0.78412294
v 0.69127882 0.00000723 -0.48071134
v 0.79328454 0.01748673 -0.17948186
v 0.29173583 0.06416361 -0.96737874
v 0.49390921 0.00000000 -0.79923427
v 0.93684101 0.19518110 -0.46933421
v 0.76284158 0.05283874 -0.65466583
v 0.75723517 0.27916440 -0.74958724
v 0.96824753 0.00000000 -0.01268011
v 1.02585495 0.42385191 -0.29195374
v 1.03042126 0.18833280 -0.17464401
v 1.03095043 0.19014686 0.17377560
v 1.02421391 0.42243224 0.28931564
v 0.28628004 0.27418169 1.02083421
v 0.56106639 0.42566910 0.90708303
v 0.27702373 0.56788760 0.99841571
v -0.69366074 0.00000000 0.50062150
v -0.49067587 0.00000000 0.80325735
v -0.76760417 0.07450465 0.65272945
v -0.48543394 0.00000000 -0.80445623
v -0.67499316 0.00016061 -0.49549520
v -0.76078677 0.06807046 -0.65239507
v 0.55838859 0.42251796 -0.90440148
v 0.28444314 0.28152964 -1.02448225
v 0.27435562 0.56859410 -0.99758720
v 0.99159795 0.65870094 0.16893618
v 0.99091434 0.65883821 -0.16821513
v 0.86635321 0.89032865 -0.00022127
v -0.61282569 1.10972202 0.07942183
v -0.56820303 1.11684561 0.21025999
v -0.47865018 1.17579639 0.12806909
v -0.71611702 0.95577490 0.37379506
v -0.64898264 1.04167199 0.29515323
v -0.76790071 0.95955616 0.23743090
v -0.37188849 1.15933526 0.37854072
v -0.51381570 1.10875309 0.34357932
v -0.45301762 1.08782172 0.46599907
v -0.82759374 0.49891543 0.65155756
v -0.82779187 0.61680168 0.59592462
v -0.91014993 0.54331231 0.51001114
v -0.62099308 0.75706488 0.72873801
v -0.72945291 0.69032913 0.67038590
v -0.63358349 0.63796300 0.79117364
v -0.86923707 0.76600498 0.38558057
v -0.80971694 0.73390669 0.53117722
v -0.77556843 0.84184057 0.46316960
v -0.08228292 0.96752673 0.79149657
v -0.21600804 0.92854381 0.80422568
v -0.13397627 0.85410899 0.88496405
v -0.37224728 1.04476333 0.60226548
v -0.29792058 0.99432278 0.70737880
v -0.23631881 1.08796847 0.60496616
v -0.39610940 0.76045507 0.87067395
v -0.35396338 0.88251805 0.79804957
v -0.48084402 0.82910454 0.77531236
v -0.65652329 0.92477757 0.51971185
v -0.57629275 0.88065529 0.65746337
v -0.51716679 0.99456114 0.56750596
v -0.35239410 1.22410381 0.12831809
v -0.39668161 1.21574235 -0.00099936
v -0.23519783 1.19812405 0.38055593
v -0.29716828 1.21753204 0.25906733
v -0.13464119 1.28041732 -0.00097577
v -0.21478981 1.25805771 0.12973498
v -0.07969891 1.27630270 0.13001309
v 0.08161900 0.96696329 0.79136914
v -0.00034270 1.04119337 0.71215159
v 0.15461162 1.15495062 0.51379615
v 0.08043215 1.10569036 0.61641258
v 0.23641935 1.08709359 0.60511529
v -0.07970463 1.10552859 0.61708629
v -0.15498886 1.15649045 0.51419365
v 0.39885807 1.21536994 0.00037136
v 0.35369399 1.22307146 0.13012463
v 0.47987133 1.17560041 0.12909466
v 0.08154384 1.27498519 0.13010497
v 0.21702121 1.25875211 0.13100010
v 0.13559742 1.27979279 -0.00039199
v 0.37341410 1.15875220 0.38032496
v 0.29699737 1.21817267 0.26026559
v 0.23605733 1.19706845 0.38081852
v -0.08161947 1.21640205 0.39396340
v 0.08030388 1.21577013 0.39256296
v -0.00030139 1.25719631 0.26031405
v -0.35168827 1.22373044 -0.13127780
v -0.47800577 1.17568684 -0.13106364
v -0.07978705 1.27661979 -0.13113730
v -0.21512258 1.25983465 -0.13145533
v -0.37158915 1.15856063 -0.38132879
v -0.29571724 1.21778643 -0.26115713
v -0.23485553 1.19789684 -0.38207272
v 0.48032847 1.17646658 -0.12943806
v 0.35355696 1.22503686 -0.12944263
v 0.23624212 1.19893575 -0.38070816
v 0.29702920 1.21888292 -0.25925422
v 0.37185189 1.15987957 -0.37940708
v 0.21586806 1.25909781 -0.13035631
v 0.08069839 1.27709889 -0.13122869
v -0.08285078 0.96746200 -0.79176110
v -0.00001672 1.04164815 -0.71349770
v 0.08120270 0.96712637 -0.79200190
v -0.15425082 1.15583193 -0.51506066
v -0.08016083 1.10615730 -0.61814457
v -0.23644601 1.08791959 -0.60552126
v 0.23698682 1.08928275 -0.60573733
v 0.08129454 1.10731757 -0.61809444
v 0.15544336 1.15660465 -0.51436919
v 0.00051545 1.25676417 -0.26180252
v 0.08219526 1.21587276 -0.39283979
v -0.07993953 1.21593511 -0.39393836
v -0.56750792 1.11659062 -0.21403643
v -0.61334854 1.10938168 -0.08285193
v -0.45297149 1.08691514 -0.46885282
v -0.51372087 1.10903692 -0.34651560
v -0.76774424 0.95920122 -0.24143726
v -0.64964217 1.04112101 -0.29821560
v -0.71633178 0.95466846 -0.37686259
v -0.13527544 0.85373294 -0.88271552
v -0.21644495 0.92820930 -0.80356711
v -0.48025492 0.82583559 -0.77584881
v -0.35359043 0.88020706 -0.79791874
v -0.39682361 0.75658381 -0.86858284
v -0.29834691 0.99338055 -0.70848942
v -0.37252700 1.04485905 -0.60419697
v -0.90976137 0.53885347 -0.50975025
v -0.82837129 0.61213487 -0.59673095
v -0.82803738 0.49381676 -0.64979434
v -0.77514547 0.83819491 -0.46467403
v -0.80952442 0.73108697 -0.53242409
v -0.87042707 0.76365632 -0.38658243
v -0.63371438 0.63380533 -0.78974366
v -0.72958571 0.68673486 -0.67104757
v -0.62129062 0.75399238 -0.72886556
v -0.51721227 0.99221307 -0.56943971
v -0.57612211 0.87725967 -0.65987915
v -0.65626884 0.92190647 -0.52130437
v -0.70484334 1.04906249 -0.00133710
v -0.85635662 0.88365167 -0.16103695
v -0.78831178 0.97084665 -0.08341123
v -0.78875852 0.97102326 0.08007656
v -0.85573399 0.88356400 0.15822671
v -0.97145849 0.42091608 -0.42868730
v -0.97226906 0.53790957 -0.37731600
v -1.03804827 0.54047143 -0.08712481
v -1.01652992 0.54057157 -0.23283193
v -1.05315912 0.42268121 -0.14570585
v -0.95534563 0.65698272 -0.31459278
v -0.91955805 0.76583421 -0.24666813
v -0.97256839 0.54065967 0.37594026
v -0.97333401 0.42194402 0.42991647
v -0.91817009 0.76763076 0.24508816
v -0.95378751 0.66187537 0.31273001
v -1.05385149 0.42367694 0.14838038
v -1.01663804 0.54409027 0.23156075
v -1.04168320 0.54208541 0.08545045
v -0.94082677 0.77870828 -0.08592316
v -1.00472105 0.66010535 -0.00050323
v -0.94138169 0.77927870 0.08330897
v 0.56812382 1.11714363 0.21147358
v 0.61265492 1.10821950 0.07957101
v 0.45359778 1.08649528 0.46805787
v 0.51495790 1.10872626 0.34464529
v 0.76797879 0.96073943 0.23926122
v 0.64998281 1.04163659 0.29645807
v 0.71662974 0.95617175 0.37611043
v 0.13435026 0.85418481 0.88529807
v 0.21627837 0.92812055 0.80421054
v 0.48167458 0.82916516 0.77858043
v 0.35295129 0.88055694 0.79842067
v 0.39750567 0.75721467 0.87134796
v 0.29685441 0.99273616 0.70779783
v 0.37245184 1.04428697 0.60278618
v 0.90884817 0.53819013 0.51067770
v 0.82917953 0.61372644 0.59643424
v 0.82764459 0.49317124 0.64813381
v 0.77664161 0.84092289 0.46482790
v 0.81063700 0.73303258 0.53389925
v 0.87128490 0.76717210 0.38717431
v 0.63562739 0.63488436 0.79305762
v 0.73109937 0.68811876 0.67332286
v 0.62331468 0.75558418 0.73118019
v 0.51879811 0.99280888 0.56964195
v 0.57627523 0.87918866 0.65912390
v 0.65722668 0.92402494 0.52153987
v -0.13545835 0.74256533 0.95522439
v 0.00051434 0.78319877 0.94190973
v -0.40226927 0.63841540 0.92873168
v -0.27377468 0.69296038 0.95065337
v 0.00090796 0.54537839 1.04337370
v -0.13819893 0.61950630 1.00996351
v -0.14035338 0.49545711 1.04522181
v -0.83729351 0.35125521 0.66182131
v -0.75486898 0.42651564 0.74933195
v -0.55657619 0.28572246 0.90380156
v -0.66289490 0.35248393 0.83564532
v -0.65522635 0.21310556 0.81908977
v -0.65325731 0.49924335 0.82563436
v -0.54383582 0.56690818 0.88327152
v 0.00269733 0.07458507 1.00857639
v -0.14305702 0.11843525 1.01412487
v -0.14155354 0.03324220 0.97320127
v -0.13991509 0.35010558 1.05926907
v -0.14303662 0.23024532 1.04873800
v 0.00163266 0.29751179 1.06793463
v -0.42006999 0.09459126 0.92506677
v -0.28753844 0.16076365 0.99823213
v -0.41608292 0.21054333 0.96584070
v -0.41964808 0.49758682 0.96363705
v -0.42630649 0.34960890 0.97886616
v -0.28185144 0.42312601 1.02512443
v -0.99460244 0.30386823 0.38840663
v -0.92728537 0.30713868 0.52375084
v -1.06027246 0.30001158 0.09144370
v -1.03704596 0.29999170 0.23766480
v -0.92442656 0.09157000 0.41693756
v -0.98909247 0.18567711 0.33075613
v -0.97921431 0.08358033 0.26674756
v -0.92826766 0.30199367 -0.52026814
v -0.99129063 0.30269265 -0.38359565
v -0.96960455 0.08266892 -0.26052213
v -0.98998106 0.18638022 -0.32499692
v -0.92055291 0.08361109 -0.41060197
v -1.03833556 0.30166772 -0.23687454
v -1.06238663 0.30137220 -0.08589280
v -0.70116049 0.00000000 0.06961147
v -0.80413139 0.00000000 -0.01021862
v -0.68838692 0.00066019 -0.11930177
v -0.96116871 0.00000000 0.17541520
v -0.90748125 0.00000000 0.09075824
v -0.88244796 0.00000000 0.26706427
v -0.87825757 0.00000000 -0.28402600
v -0.91162825 0.00000000 -0.10227886
v -0.95765775 0.00144161 -0.18167767
v -1.04125881 0.18357828 0.00378719
v -1.00439346 0.07703184 -0.08933277
v -1.00250721 0.07131256 0.09439935
v -0.75507438 0.41946092 -0.74608791
v -0.83604234 0.34652823 -0.65651029
v -0.54493719 0.56269330 -0.88082498
v -0.65479904 0.49372131 -0.82346720
v -0.65680319 0.21380545 -0.81946355
v -0.66074395 0.34644175 -0.83239889
v -0.55637294 0.28225508 -0.90391654
v -0.00051392 0.78349340 -0.94020313
v -0.13655907 0.74357802 -0.95354289
v -0.14012055 0.49750850 -1.04450107
v -0.13876957 0.62068146 -1.00749481
v -0.00019755 0.54746318 -1.04088688
v -0.27405760 0.69122541 -0.94864237
v -0.40163991 0.63479781 -0.92783856
v -0.14858489 0.01989772 -0.97624642
v -0.14281726 0.11534964 -1.01678729
v 0.00366497 0.08736397 -1.02105355
v -0.41853443 0.20925854 -0.96615332
v -0.28791559 0.16072670 -1.00058508
v -0.42634395 0.09838612 -0.93244511
v -0.00032311 0.30011341 -1.06692612
v -0.14475791 0.22934297 -1.04660511
v -0.14310341 0.35083172 -1.05550897
v -0.42123467 0.49471170 -0.96351564
v -0.28301370 0.42201677 -1.02518237
v -0.42584363 0.34627202 -0.97520733
v 0.21570486 0.92944813 -0.80347979
v 0.13353205 0.85518014 -0.88448685
v 0.37271425 1.04606736 -0.60333329
v 0.29756996 0.99568045 -0.70800495
v 0.39590847 0.75909424 -0.86996448
v 0.35269225 0.88277346 -0.79817647
v 0.48052061 0.82727361 -0.77523553
v 0.61342579 1.10879755 -0.08107630
v 0.56890434 1.11714554 -0.21180432
v 0.71621281 0.95470381 -0.37565219
v 0.64981806 1.04111302 -0.29720727
v 0.76768333 0.95842612 -0.24024093
v 0.51485872 1.10919046 -0.34435776
v 0.45351803 1.08854544 -0.46852952
v 0.82767922 0.49489009 -0.65281540
v 0.82951760 0.61433655 -0.59789568
v 0.91151357 0.54121971 -0.51181084
v 0.62070543 0.75462645 -0.72937191
v 0.72932225 0.68677682 -0.67229784
v 0.63254917 0.63506490 -0.79161280
v 0.87027818 0.76428735 -0.38775724
v 0.81065321 0.73390937 -0.53494674
v 0.77531826 0.84090555 -0.46586111
v 0.51771444 0.99294776 -0.56888407
v 0.65646553 0.92184854 -0.52077508
v 0.57483578 0.87885976 -0.65888762
v 0.67315924 0.08895340 0.09603567
v 0.62799829 0.04627642 0.24045619
v 0.52611119 0.07456192 0.16888191
v 0.82078755 0.00000000 0.43192276
v 0.74539435 0.00094640 0.32615873
v 0.88398439 0.00000000 0.27067420
v 0.42072898 0.00000000 0.44179448
v 0.59351611 0.00147143 0.40763375
v 0.52493757 0.00000000 0.55478340
v 0.84037948 0.34751526 0.65883040
v 0.85975355 0.22772370 0.61540091
v 0.92948562 0.30001605 0.51898360
v 0.66012728 0.09233383 0.77248895
v 0.76389909 0.15673147 0.69905752
v 0.65852511 0.20909046 0.81755716
v 0.92524546 0.08278555 0.40311286
v 0.85719007 0.11454209 0.55801159
v 0.84228444 0.01198622 0.49866587
v 0.09494702 0.00000342 0.91825569
v 0.25195545 0.00000000 0.92287296
v 0.14703047 0.00948782 0.96917474
v 0.43569821 0.01412311 0.70534956
v 0.34727654 0.00000000 0.82444626
v 0.26538083 0.00000050 0.70909292
v 0.41985118 0.09669544 0.92264932
v 0.38883448 0.00062335 0.88767070
v 0.52477789 0.03691603 0.85121018
v 0.75510889 0.00000000 0.59254503
v 0.64011639 0.00061183 0.72932154
v 0.60826278 0.00000000 0.65349126
v 0.38866821 0.00000000 0.16083518
v 0.42192197 0.02898897 0.02033425
v 0.24914227 0.00000000 0.44412661
v 0.31917810 0.01956340 0.29821971
v 0.14177509 0.03175414 0.02560465
v 0.21432462 0.02735738 0.16853961
v 0.08232567 0.04379106 0.15890871
v -0.09631015 0.00000000 0.92564690
v -0.01197840 0.00000000 0.82923007
v -0.19524172 0.05653412 0.56171131
v -0.12078760 0.00037866 0.70576942
v -0.28977257 0.00675627 0.69842452
v 0.07555722 0.00065156 0.71994287
v 0.16108552 0.00000000 0.59608036
v -0.41377759 0.00132870 -0.00470768
v -0.38024160 0.05303433 0.12441125
v -0.54126263 0.01466755 0.11468969
v -0.09195333 0.04668879 0.14633094
v -0.22749141 0.13638432 0.14009063
v -0.12644796 0.02897630 0.01598126
v -0.42814344 0.00893040 0.40594196
v -0.30059209 0.02404404 0.25982028
v -0.28555074 0.02229374 0.38896117
v 0.07582814 0.05013236 0.44144475
v -0.11943830 0.05921257 0.43769768
v -0.01895588 0.01153264 0.28923139
v 0.36436376 0.00323561 -0.09873843
v 0.51376599 0.01897176 -0.11637130
v 0.08441212 0.04496118 -0.11143757
v 0.21540387 0.01846590 -0.10759249
v 0.42154658 0.01565624 -0.35162020
v 0.31036937 0.00893357 -0.23388565
v 0.25414523 0.00000000 -0.34014103
v -0.50655293 0.00072481 -0.16199206
v -0.36046711 0.00000000 -0.14264685
v -0.24152972 0.01234029 -0.39269245
v -0.29418311 0.00000000 -0.27655643
v -0.39286181 0.01251019 -0.42219046
v -0.20647828 0.00273509 -0.13082072
v -0.07895420 0.01351898 -0.12219985
v 0.09200345 0.00244608 -0.90053886
v 0.01161502 0.00000000 -0.81232762
v -0.09465042 0.00000000 -0.89852422
v 0.18141459 0.00000000 -0.52544606
v 0.10810870 0.00000000 -0.66571754
v 0.28863761 0.00000000 -0.66495609
v -0.25553307 0.00000000 -0.66412097
v -0.07683250 0.00030340 -0.68020004
v -0.15384340 0.01295716 -0.55064750
v 0.00663939 0.03994229 -0.24188510
v -0.07621746 0.00017124 -0.38668314
v 0.08925558 0.00693466 -0.36308092
v 0.63813215 0.06864893 -0.21668294
v 0.68183333 0.04420369 -0.06117314
v 0.53504771 0.00000000 -0.47660145
v 0.57877088 0.07467297 -0.35954246
v 0.87214780 0.00000000 -0.27743608
v 0.73743296 0.00491988 -0.32983497
v 0.82175308 0.00000000 -0.43736202
v 0.14968541 0.03348896 -0.97974801
v 0.25003737 0.00000000 -0.90774691
v 0.52983242 0.04986209 -0.85386282
v 0.40127233 0.01870348 -0.89784163
v 0.42642519 0.10300471 -0.93673056
v 0.35455123 0.02022053 -0.80820310
v 0.43819073 0.00000028 -0.64971709
v 0.93070221 0.30573630 -0.52147865
v 0.85972685 0.22880527 -0.61854208
v 0.83994383 0.34818339 -0.66012776
v 0.85645407 0.03200323 -0.51028401
v 0.85894847 0.11521152 -0.56226027
v 0.93670911 0.10420929 -0.41147119
v 0.65968245 0.21126693 -0.82533693
v 0.76658100 0.15843932 -0.70441550
v 0.67069954 0.10572504 -0.78272206
v 0.60241395 0.00000000 -0.64068133
v 0.63855267 0.00000000 -0.74434447
v 0.74547583 0.00000000 -0.60295802
v 0.80472785 0.02232432 0.00730161
v 0.95352679 0.00564595 -0.18649194
v 0.90340722 0.00000000 -0.09344982
v 0.91586179 0.00215396 0.08688003
v 0.94376677 0.00000000 0.16552585
v 0.97548121 0.42365536 -0.43147382
v 0.99458873 0.30801088 -0.38435286
v 1.06278479 0.30220214 -0.08766285
v 1.03861415 0.30388620 -0.23491348
v 1.05590093 0.42233714 -0.14686355
v 0.99358058 0.19141397 -0.32466871
v 0.98529148 0.10147160 -0.26266113
v 0.99453104 0.30226505 0.38537824
v 0.97580969 0.42152503 0.42864263
v 0.98099446 0.08314522 0.25784338
v 0.99325109 0.19030015 0.32282734
v 1.05399048 0.42066714 0.14503878
v 1.03984058 0.30296153 0.23551905
v 1.06179762 0.30322343 0.08658850
v 1.00400519 0.07438482 -0.09015799
v 1.04585814 0.18458666 -0.00053025
v 0.99872023 0.07652500 0.08615153
v 0.14693840 0.10712812 1.01015556
v 0.42360902 0.20750366 0.96184069
v 0.29177672 0.15428384 0.99744987
v 0.14546880 0.22522345 1.04274213
v 0.14588781 0.34702554 1.06025565
v 0.75663376 0.42304567 0.74690145
v 0.54828650 0.56355315 0.88737237
v 0.65759361 0.49802792 0.82576400
v 0.66497856 0.35042804 0.83428741
v 0.56132931 0.28326297 0.90036058
v 0.13709112 0.74168664 0.95501143
v 0.14262731 0.49519640 1.04695296
v 0.13954592 0.61903870 1.00959456
v 0.27528808 0.69174540 0.95170081
v 0.40394968 0.63605326 0.92970866
v 0.43079418 0.34653893 0.97701991
v 0.42343372 0.49449918 0.96774602
v 0.28583381 0.42092574 1.02972245
v -0.65506947 0.00000730 0.22551338
v -0.53025520 0.00000000 0.52955496
v -0.59849590 0.00013190 0.38083223
v -0.76080924 0.01500609 0.34270090
v -0.82281256 0.00000000 0.43228003
v -0.24460919 0.00000000 0.92853338
v -0.52310711 0.03259016 0.84113187
v -0.38853991 0.00176848 0.88784063
v -0.34535673 0.00000000 0.83020705
v -0.44461086 0.00000000 0.71099693
v -0.85654044 0.23334694 0.61828262
v -0.84930599 0.02263827 0.50717080
v -0.85292083 0.12071863 0.56381160
v -0.76245224 0.16446173 0.70347095
v -0.65711635 0.09837656 0.77655071
v -0.61172551 0.00000000 0.66976029
v -0.64951962 0.00082533 0.73028463
v -0.74695349 0.00000000 0.58851171
v -0.25311711 0.00000000 -0.92103231
v -0.42002720 0.00022207 -0.67479825
v -0.33988580 0.00000000 -0.81089443
v -0.39180934 0.00036183 -0.88399589
v -0.52048969 0.03814253 -0.84484470
v -0.63226175 0.05682421 -0.24230255
v -0.81036192 0.00000000 -0.43623129
v -0.73935115 0.00000732 -0.34089369
v -0.56376463 0.03344676 -0.38906586
v -0.51282406 0.06128372 -0.51907331
v -0.85354149 0.22976774 -0.61489803
v -0.65953302 0.10018658 -0.77184856
v -0.76105052 0.15942366 -0.69779646
v -0.85927707 0.11850937 -0.56559724
v -0.84922451 0.03133455 -0.50308698
v -0.59390604 0.00000000 -0.65881264
v -0.73754156 0.00000000 -0.59554982
v -0.63292992 0.00136660 -0.72808862
v 0.75581813 0.42158589 -0.74712092
v 0.55968952 0.28196076 -0.90472966
v 0.66260225 0.34947145 -0.83450013
v 0.65617275 0.49388075 -0.82544780
v 0.54652101 0.56297874 -0.88171047
v 0.15077889 0.12448680 -1.02554858
v 0.14113694 0.35246703 -1.05646968
v 0.14675015 0.23488249 -1.05137360
v 0.29462856 0.16393264 -1.00720620
v 0.42248049 0.21357463 -0.96957552
v 0.13578239 0.74380916 -0.95330864
v 0.40251094 0.63584912 -0.92904490
v 0.27407673 0.69326705 -0.94942051
v 0.13771386 0.62092674 -1.00719309
v 0.14040765 0.49665338 -1.04226220
v 0.42862028 0.34727520 -0.97615379
v 0.28381118 0.42416641 -1.02340531
v 0.42177388 0.49681538 -0.96323752
v 0.97424442 0.54008663 0.37962937
v 1.04279518 0.53912300 0.08809955
v 1.02115822 0.54415578 0.23311943
v 0.95495802 0.66025758 0.31512284
v 0.92007661 0.76853162 0.24588299
v 0.97424197 0.54310513 -0.37741557
v 0.91810781 0.76854694 -0.24757294
v 0.95645440 0.65922987 -0.31320283
v 1.01847208 0.54312778 -0.23111989
v 1.04163635 0.54458672 -0.08523680
v 0.70493203 1.04780746 -0.00096918
v 0.85726756 0.88569200 0.15947445
v 0.78852820 0.97232258 0.08188508
v 0.78845340 0.97035986 -0.08310914
v 0.85684162 0.88268107 -0.15923278
v 1.00378501 0.66102976 0.00207690
v 0.94153506 0.77916425 -0.08501414
v 0.94212842 0.78127295 0.08509910
f 330 87 329
f 336 325 26
f 207 208 56
f 464 36 580
f 502 129 504
f 157 624 622
f 308 311 82
f 247 223 248
f 507 483 508
f 331 88 329
f 494 500 497
f 156 601 602
f 591 589 592
f 365 98 596
f 75 281 282
f 152 587 577
f 149 559 560
f 555 121 553
f 530 141 529
f 515 517 139
f 361 594 98
f 250 67 249
f 157 608 609
f 294 293 209
f 317 81 316
f 557 338 26
f 303 305 81
f 530 529 528
f 101 381 382
f 415 418 111
f 192 184 50
f 412 110 411
f 20 384 256
f 131 594 486
f 281 264 282
f 347 287 348
f 28 349 582
f 165 163 1
f 248 250 66
f 617 107 398
f 273 271 274
f 456 115 453
f 558 561 560
f 335 576 91
f 331 177 332
f 116 433 436
f 351 370 92
f 136 511 530
f 239 240 65
f 247 258 19
f 304 23 567
f 148 557 570
f 214 208 58
f 440 426 450
f 268 270 269
f 258 247 268
f 204 202 16
f 466 125 465
f 517 513 133
f 168 275 274
f 275 73 274
f 198 193 53
f 309 308 307
f 510 511 136
f 415 416 110
f 131 490 597
f 473 475 474
f 414 415 111
f 493 495 494
f 496 504 485
f 433 116 432
f 600 375 601
f 240 234 65
f 418 415 412
f 486 361 3
f 567 566 304
f 380 393 29
f 17 199 197
f 491 492 132
f 451 449 435
f 218 217 216
f 623 621 613
f 396 104 395
f 433 439 436
f 628 160 627
f 215 202 217
f 209 207 2
f 427 113 424
f 434 10 544
f 434 433 432
f 199 17 210
f 150 564 565
f 489 491 132
f 275 13 285
f 497 500 134
f 125 466 476
f 578 152 577
f 208 214 211
f 328 88 343
f 356 27 603
f 150 566 567
f 372 100 371
f 190 191 47
f 235 8 398
f 260 261 72
f 422 403 414
f 422 414 111
f 453 454 123
f 349 583 582
f 521 520 519
f 425 453 115
f 616 622 158
f 483 130 508
f 151 586 572
f 212 17 232
f 400 397 402
f 377 396 99
f 41 522 511
f 510 508 505
f 549 547 42
f 475 473 36
f 510 137 509
f 222 221 197
f 430 115 429
f 220 194 1
f 305 54 204
f 621 29 613
f 192 171 184
f 460 335 5
f 88 331 332
f 74 277 279
f 300 301 80
f 390 389 388
f 165 45 164
f 146 549 551
f 291 278 75
f 448 120 445
f 147 543 544
f 607 610 609
f 603 602 356
f 139 529 514
f 333 553 443
f 92 368 347
f 261 260 259
f 300 6 200
f 46 177 331
f 284 283 174
f 301 300 200
f 471 468 474
f 54 305 301
f 302 304 303
f 569 150 567
f 150 569 570
f 294 209 2
f 628 629 160
f 548 543 147
f 147 625 627
f 63 233 234
f 426 427 114
f 41 509 532
f 198 52 196
f 614 105 612
f 147 627 547
f 81 305 306
f 549 548 547
f 54 301 200
f 342 88 332
f 264 281 70
f 193 194 53
f 455 429 456
f 187 321 14
f 479 130 484
f 147 544 625
f 458 456 453
f 304 80 303
f 314 84 313
f 488 503 501
f 321 332 14
f 423 425 424
f 305 204 306
f 341 339 25
f 514 40 516
f 625 628 627
f 340 339 341
f 105 614 391
f 243 228 62
f 318 316 78
f 75 278 279
f 357 355 353
f 238 257 63
f 466 455 476
f 425 423 4
f 448 449 120
f 408 638 108
f 292 275 285
f 22 278 289
f 515 513 517
f 501 503 134
f 622 623 158
f 134 503 504
f 195 216 206
f 163 271 246
f 619 617 620
f 62 228 229
f 163 165 164
f 453 425 454
f 489 132 488
f 82 628 625
f 58 208 209
f 525 608 40
f 626 547 627
f 518 517 498
f 489 487 491
f 557 26 564
f 325 336 344
f 541 145 539
f 40 616 516
f 338 556 89
f 250 248 245
f 139 514 515
f 98 594 596
f 246 220 1
f 112 413 630
f 9 536 413
f 156 600 601
f 332 177 14
f 321 342 332
f 156 606 600
f 584 330 585
f 302 303 81
f 584 87 330
f 330 25 585
f 400 239 65
f 439 440 117
f 95 358 368
f 597 594 131
f 594 361 486
f 246 67 245
f 561 562 149
f 28 364 362
f 55 216 217
f 427 430 114
f 267 20 254
f 556 555 553
f 84 309 558
f 311 310 312
f 609 525 142
f 256 68 255
f 124 460 461
f 82 311 312
f 307 308 82
f 589 135 495
f 527 40 514
f 112 418 412
f 20 256 254
f 258 238 19
f 267 254 269
f 273 272 249
f 392 391 393
f 137 533 509
f 122 455 456
f 9 413 411
f 130 480 505
f 333 443 5
f 527 525 40
f 589 495 385
f 39 496 485
f 223 225 224
f 414 416 415
f 219 222 53
f 145 538 539
f 413 412 411
f 469 468 467
f 183 181 6
f 191 192 50
f 429 35 431
f 292 285 76
f 413 112 412
f 415 110 412
f 43 164 167
f 467 468 126
f 617 101 620
f 450 451 117
f 438 546 545
f 619 620 159
f 17 212 210
f 124 579 576
f 584 153 583
f 460 124 576
f 3 469 467
f 311 308 314
f 6 320 183
f 389 104 388
f 251 250 249
f 194 165 1
f 291 289 278
f 287 77 348
f 238 258 257
f 139 517 518
f 238 236 19
f 223 247 19
f 382 380 29
f 39 518 498
f 361 359 3
f 69 255 257
f 139 518 528
f 33 545 535
f 387 385 7
f 69 268 269
f 477 462 125
f 454 479 123
f 121 555 447
f 451 435 117
f 454 425 4
f 233 252 8
f 124 463 464
f 69 258 268
f 168 167 166
f 583 153 582
f 384 394 102
f 138 512 513
f 57 210 211
f 254 256 255
f 607 609 142
f 324 319 86
f 289 291 76
f 291 292 76
f 384 102 383
f 422 421 420
f 221 17 197
f 383 102 381
f 376 377 99
f 99 373 374
f 386 105 392
f 438 33 440
f 90 341 343
f 281 75 279
f 574 571 96
f 628 82 312
f 221 222 59
f 127 471 474
f 595 605 603
f 551 538 145
f 334 91 340
f 322 324 85
f 305 303 301
f 18 239 399
f 306 204 16
f 199 198 197
f 166 190 180
f 303 80 301
f 267 266 265
f 626 42 547
f 16 215 213
f 349 351 350
f 295 16 213
f 68 379 252
f 250 251 66
f 627 160 626
f 383 68 256
f 343 88 342
f 507 508 136
f 202 215 16
f 197 198 53
f 254 69 269
f 603 605 156
f 418 419 111
f 384 383 256
f 455 122 476
f 203 204 54
f 556 557 148
f 255 68 253
f 313 84 560
f 25 328 341
f 254 255 69
f 603 156 602
f 581 584 583
f 630 632 112
f 163 246 1
f 246 245 220
f 432 116 558
f 499 591 590
f 320 563 86
f 345 93 350
f 306 16 295
f 346 93 345
f 562 568 149
f 604 605 155
f 154 592 593
f 545 552 535
f 511 522 530
f 574 573 571
f 566 150 565
f 361 98 360
f 67 271 273
f 234 235 65
f 208 211 56
f 574 151 573
f 251 270 66
f 398 8 378
f 213 215 214
f 438 440 439
f 315 314 313
f 263 71 262
f 20 373 384
f 496 134 504
f 329 88 328
f 81 306 316
f 555 556 148
f 592 589 103
f 617 619 107
f 227 207 56
f 571 359 96
f 446 466 465
f 206 216 55
f 359 571 469
f 568 148 570
f 34 437 435
f 28 351 349
f 21 272 282
f 113 423 424
f 490 489 488
f 379 68 383
f 210 212 211
f 80 563 300
f 351 92 350
f 326 346 12
f 83 317 318
f 555 148 554
f 212 231 56
f 218 57 217
f 271 67 246
f 195 196 52
f 270 268 66
f 390 592 103
f 148 568 554
f 495 493 7
f 592 390 593
f 357 95 355
f 574 575 151
f 452 120 451
f 154 591 592
f 587 585 577
f 395 394 396
f 93 349 350
f 610 416 611
f 166 44 190
f 315 23 302
f 315 302 317
f 268 247 66
f 606 154 593
f 396 394 99
f 211 212 56
f 370 369 368
f 235 397 65
f 280 278 22
f 83 315 317
f 575 588 151
f 74 279 280
f 385 495 7
f 63 257 253
f 397 235 398
f 214 58 213
f 220 219 194
f 546 146 545
f 236 225 19
f 599 94 602
f 235 233 8
f 102 394 395
f 611 416 32
f 225 223 19
f 139 528 529
f 231 62 229
f 419 406 421
f 451 450 452
f 49 182 185
f 402 397 107
f 52 199 218
f 416 610 110
f 225 236 244
f 107 397 398
f 68 252 253
f 322 85 321
f 182 181 183
f 118 438 439
f 546 438 118
f 348 77 345
f 543 546 118
f 231 212 232
f 610 611 157
f 33 438 545
f 385 386 103
f 479 480 130
f 169 195 15
f 93 583 349
f 15 195 206
f 190 44 192
f 247 248 66
f 146 552 545
f 248 60 245
f 570 557 564
f 274 271 43
f 63 253 233
f 272 21 249
f 507 528 518
f 67 273 249
f 487 467 126
f 196 195 169
f 624 159 623
f 134 496 497
f 132 503 488
f 104 393 395
f 556 553 89
f 355 356 94
f 258 69 257
f 229 61 227
f 56 231 227
f 460 576 335
f 463 124 461
f 394 373 99
f 29 393 391
f 67 250 245
f 193 198 196
f 462 36 464
f 144 633 630
f 141 526 527
f 517 133 498
f 536 144 630
f 100 372 599
f 144 536 537
f 22 289 287
f 578 579 152
f 579 578 576
f 189 188 187
f 60 223 224
f 92 348 350
f 555 554 447
f 396 377 388
f 194 193 165
f 413 536 630
f 372 352 599
f 377 376 375
f 348 345 350
f 105 386 387
f 240 237 234
f 463 462 464
f 135 500 494
f 45 196 169
f 512 612 387
f 245 60 220
f 429 115 456
f 223 60 248
f 288 289 76
f 525 526 142
f 100 599 601
f 613 29 391
f 526 523 520
f 341 328 343
f 631 641 639
f 264 21 282
f 266 72 265
f 106 402 403
f 73 273 274
f 186 206 205
f 381 379 383
f 52 216 195
f 410 18 399
f 290 272 73
f 72 371 374
f 526 525 527
f 115 430 424
f 498 497 496
f 621 382 29
f 543 118 434
f 214 215 57
f 522 141 530
f 511 510 509
f 352 94 599
f 493 512 7
f 90 340 341
f 169 171 170
f 605 604 606
f 219 60 224
f 104 389 392
f 359 469 3
f 186 49 185
f 222 219 224
f 166 167 44
f 428 427 426
f 523 522 524
f 129 502 481
f 50 185 188
f 164 45 170
f 425 115 424
f 33 428 426
f 427 428 113
f 94 356 602
f 515 138 513
f 114 431 452
f 237 236 238
f 215 217 57
f 95 354 355
f 220 60 219
f 515 514 516
f 183 320 319
f 222 197 53
f 559 569 567
f 300 320 6
f 435 436 117
f 96 360 363
f 640 642 641
f 242 243 62
f 140 537 519
f 508 130 505
f 420 410 399
f 537 539 144
f 317 316 318
f 426 114 450
f 186 15 206
f 311 83 310
f 625 544 307
f 544 10 307
f 168 43 167
f 185 182 188
f 369 354 95
f 44 171 192
f 605 606 156
f 548 549 146
f 100 601 375
f 149 568 569
f 381 380 382
f 455 466 35
f 480 479 454
f 543 548 546
f 493 133 513
f 492 472 37
f 477 125 476
f 491 487 126
f 337 336 338
f 588 153 587
f 576 578 91
f 633 161 632
f 96 359 360
f 39 485 483
f 101 617 378
f 193 45 165
f 163 164 43
f 618 624 611
f 507 136 528
f 561 149 560
f 641 162 639
f 116 561 558
f 494 133 493
f 253 252 233
f 63 237 238
f 392 393 104
f 440 450 117
f 93 581 583
f 386 385 387
f 120 449 451
f 421 422 111
f 486 3 467
f 302 81 317
f 633 632 630
f 462 475 36
f 376 99 374
f 489 490 131
f 447 449 448
f 387 612 105
f 106 420 399
f 173 46 172
f 492 491 472
f 316 306 295
f 22 287 347
f 109 410 420
f 507 39 483
f 559 23 313
f 214 57 211
f 196 45 193
f 10 434 432
f 422 106 403
f 626 160 640
f 487 486 467
f 542 41 532
f 400 106 399
f 444 120 452
f 198 199 52
f 475 127 474
f 621 620 382
f 621 623 159
f 450 114 452
f 92 347 348
f 376 100 375
f 434 118 433
f 503 132 502
f 337 90 336
f 537 536 519
f 395 393 380
f 201 54 200
f 171 44 170
f 355 94 353
f 58 296 213
f 422 420 106
f 595 365 596
f 569 568 570
f 523 140 520
f 114 430 431
f 218 210 57
f 304 566 80
f 639 162 638
f 261 371 72
f 548 147 547
f 498 133 497
f 150 570 564
f 222 224 59
f 142 526 520
f 437 436 435
f 141 522 523
f 137 510 505
f 173 179 176
f 559 149 569
f 121 447 448
f 563 320 300
f 102 395 380
f 257 255 253
f 642 162 641
f 83 311 314
f 216 52 218
f 512 493 513
f 23 304 302
f 91 339 340
f 512 138 612
f 159 620 621
f 218 199 210
f 364 28 575
f 83 318 310
f 168 274 43
f 136 530 528
f 140 523 524
f 495 135 494
f 233 235 234
f 566 563 80
f 25 339 577
f 277 74 276
f 475 462 477
f 133 494 497
f 436 437 116
f 389 386 392
f 548 146 546
f 441 460 5
f 10 309 307
f 65 397 400
f 543 434 544
f 640 641 161
f 272 273 73
f 581 93 346
f 419 421 111
f 319 320 86
f 180 179 178
f 127 475 477
f 231 229 227
f 337 334 340
f 136 508 510
f 308 309 84
f 237 63 234
f 447 554 34
f 252 379 378
f 315 83 314
f 608 622 616
f 338 336 26
f 337 338 89
f 13 275 168
f 209 208 207
f 436 439 117
f 628 312 629
f 360 366 363
f 364 574 96
f 359 361 360
f 466 446 35
f 500 501 134
f 406 109 421
f 135 589 591
f 601 599 602
f 340 90 337
f 481 492 37
f 522 41 524
f 78 316 295
f 131 486 487
f 403 32 414
f 634 626 640
f 151 572 573
f 515 516 138
f 8 252 378
f 265 72 374
f 9 521 519
f 538 549 42
f 368 358 347
f 588 587 586
f 458 453 123
f 589 385 103
f 502 492 481
f 32 416 414
f 430 427 424
f 153 585 587
f 540 144 539
f 370 368 92
f 209 293 58
f 428 33 535
f 326 581 346
f 625 307 82
f 575 28 582
f 6 181 200
f 421 109 420
f 553 121 443
f 160 642 640
f 153 584 585
f 309 432 558
f 334 337 89
f 23 315 313
f 271 163 43
f 296 295 213
f 39 498 496
f 118 439 433
f 531 113 534
f 293 296 58
f 28 362 351
f 489 131 487
f 431 444 452
f 84 558 560
f 98 366 360
f 45 169 170
f 379 101 378
f 462 463 125
f 308 84 314
f 10 432 309
f 299 24 310
f 132 492 502
f 512 387 7
f 639 638 408
f 565 323 86
f 59 244 242
f 106 400 402
f 440 33 426
f 566 565 563
f 617 398 378
f 224 225 59
f 410 109 409
f 239 400 399
f 194 219 53
f 358 22 347
f 610 157 609
f 27 595 603
f 479 484 482
f 142 520 521
f 585 25 577
f 339 578 577
f 408 407 406
f 407 109 406
f 31 408 406
f 407 408 108
f 31 639 408
f 419 31 406
f 608 616 40
f 430 429 431
f 455 35 429
f 35 444 431
f 188 51 187
f 188 182 51
f 51 322 187
f 322 51 319
f 51 182 183
f 319 51 183
f 187 322 321
f 322 319 324
f 381 101 379
f 405 407 108
f 404 405 108
f 286 285 178
f 407 405 409
f 109 407 409
f 191 175 47
f 167 164 170
f 50 184 185
f 44 167 170
f 64 244 236
f 243 244 64
f 50 188 189
f 541 542 145
f 442 445 119
f 339 91 578
f 445 446 119
f 624 623 622
f 611 624 157
f 523 526 141
f 141 527 529
f 527 514 529
f 445 120 444
f 446 445 444
f 35 446 444
f 613 614 158
f 158 614 615
f 623 613 158
f 614 613 391
f 614 612 615
f 371 376 374
f 100 376 371
f 479 482 123
f 373 394 384
f 540 42 634
f 633 540 634
f 538 42 540
f 633 634 161
f 161 634 640
f 42 626 634
f 540 633 144
f 557 556 338
f 553 333 89
f 262 21 264
f 251 21 262
f 5 335 333
f 270 251 262
f 21 251 249
f 600 593 30
f 606 593 600
f 600 30 375
f 593 390 30
f 30 377 375
f 390 388 30
f 30 388 377
f 228 243 241
f 470 478 459
f 470 127 478
f 127 477 478
f 184 186 185
f 478 477 476
f 122 478 476
f 357 74 280
f 518 39 507
f 344 342 85
f 325 344 85
f 342 344 343
f 85 342 321
f 344 90 343
f 90 344 336
f 482 129 481
f 482 481 457
f 482 457 123
f 481 37 457
f 449 447 34
f 435 449 34
f 470 472 471
f 472 470 37
f 470 471 127
f 472 126 471
f 126 468 471
f 470 459 37
f 491 126 472
f 504 129 485
f 221 59 242
f 125 463 465
f 437 34 562
f 561 437 562
f 554 568 562
f 34 554 562
f 437 561 116
f 390 103 389
f 103 386 389
f 392 105 391
f 572 586 580
f 572 580 36
f 586 152 580
f 473 572 36
f 244 243 242
f 225 244 59
f 64 240 241
f 240 239 241
f 237 240 64
f 243 64 241
f 236 237 64
f 411 607 521
f 9 411 521
f 110 607 411
f 607 142 521
f 610 607 110
f 171 15 184
f 171 169 15
f 15 186 184
f 87 584 581
f 153 588 582
f 588 575 582
f 381 102 380
f 573 572 473
f 468 469 128
f 474 468 128
f 469 571 128
f 571 573 128
f 573 473 128
f 473 474 128
f 564 323 565
f 26 323 564
f 323 324 86
f 325 323 26
f 325 324 323
f 563 565 86
f 324 325 85
f 410 230 18
f 230 228 18
f 18 228 241
f 18 241 239
f 401 619 618
f 401 402 107
f 403 402 401
f 619 159 618
f 401 618 32
f 619 401 107
f 403 401 32
f 618 611 32
f 159 624 618
f 478 122 459
f 122 458 459
f 37 459 457
f 459 458 457
f 122 456 458
f 457 458 123
f 191 190 192
f 485 129 484
f 129 482 484
f 483 485 484
f 130 483 484
f 189 187 14
f 191 50 189
f 191 189 175
f 189 14 175
f 14 177 175
f 499 501 500
f 501 499 38
f 38 499 590
f 135 499 500
f 488 501 38
f 499 135 591
f 480 454 4
f 284 12 346
f 4 423 506
f 480 4 506
f 423 531 506
f 480 506 505
f 531 137 506
f 506 137 505
f 365 366 98
f 71 270 262
f 270 71 269
f 71 267 269
f 335 334 333
f 333 334 89
f 334 335 91
f 536 9 519
f 465 463 461
f 537 140 541
f 520 140 519
f 119 446 465
f 465 461 119
f 461 441 119
f 460 441 461
f 176 46 173
f 299 297 24
f 71 263 266
f 263 260 266
f 260 72 266
f 263 70 260
f 205 201 49
f 201 181 49
f 186 205 49
f 181 201 200
f 181 182 49
f 284 77 283
f 586 587 152
f 588 586 151
f 20 267 265
f 266 267 71
f 31 417 631
f 631 417 632
f 31 631 639
f 417 31 419
f 641 631 161
f 417 112 632
f 161 631 632
f 418 417 419
f 417 418 112
f 284 345 77
f 542 550 145
f 542 541 524
f 284 174 12
f 48 174 283
f 373 20 265
f 373 265 374
f 609 608 525
f 608 157 622
f 560 559 313
f 636 637 162
f 541 140 524
f 41 542 524
f 358 357 280
f 70 263 264
f 263 262 264
f 176 177 46
f 174 48 173
f 174 173 172
f 538 551 549
f 538 540 539
f 537 541 539
f 232 221 242
f 17 221 232
f 232 242 62
f 231 232 62
f 203 205 55
f 203 55 202
f 201 205 203
f 202 55 217
f 205 206 55
f 204 203 202
f 73 275 292
f 292 290 73
f 272 290 282
f 290 292 291
f 75 290 291
f 290 75 282
f 70 277 259
f 277 70 281
f 277 281 279
f 260 70 259
f 12 174 172
f 104 396 388
f 367 27 354
f 365 27 367
f 354 27 356
f 365 367 366
f 595 27 365
f 318 299 310
f 155 596 597
f 155 597 598
f 596 594 597
f 595 596 155
f 605 595 155
f 180 47 179
f 180 190 47
f 352 372 11
f 11 372 261
f 312 310 24
f 642 636 162
f 636 297 637
f 367 369 97
f 366 367 97
f 369 367 354
f 369 370 97
f 580 579 464
f 580 152 579
f 579 124 464
f 61 230 409
f 230 410 409
f 230 61 229
f 230 229 228
f 76 285 286
f 353 352 276
f 74 353 276
f 288 76 286
f 288 286 283
f 289 288 287
f 203 54 201
f 287 288 77
f 77 288 283
f 286 48 283
f 531 423 113
f 276 11 259
f 11 261 259
f 277 276 259
f 616 158 615
f 516 616 615
f 138 516 615
f 138 615 612
f 509 533 532
f 503 502 504
f 635 79 294
f 635 294 404
f 635 637 79
f 637 635 638
f 638 635 108
f 635 404 108
f 226 61 405
f 61 226 227
f 405 61 409
f 227 226 207
f 48 178 179
f 48 286 178
f 173 48 179
f 534 143 533
f 534 535 143
f 531 534 533
f 533 143 532
f 137 531 533
f 261 372 371
f 13 180 178
f 285 13 178
f 180 13 166
f 13 168 166
f 346 345 284
f 331 327 46
f 46 327 172
f 172 327 326
f 382 620 101
f 442 121 448
f 443 121 442
f 2 226 404
f 294 2 404
f 404 226 405
f 207 226 2
f 550 551 145
f 552 146 551
f 143 550 532
f 552 550 143
f 330 329 328
f 24 636 629
f 94 352 353
f 352 11 276
f 113 428 534
f 428 535 534
f 509 41 511
f 535 552 143
f 550 552 551
f 550 542 532
f 369 95 368
f 326 327 87
f 87 327 329
f 327 331 329
f 581 326 87
f 293 79 298
f 79 297 298
f 296 298 78
f 79 293 294
f 296 293 298
f 598 490 38
f 358 280 22
f 280 279 278
f 357 358 95
f 74 357 353
f 330 328 25
f 567 23 559
f 590 598 38
f 590 604 598
f 598 604 155
f 604 590 154
f 590 591 154
f 604 154 606
f 297 299 298
f 299 318 78
f 298 299 78
f 355 354 356
f 629 636 642
f 312 24 629
f 629 642 160
f 370 362 97
f 362 363 97
f 363 366 97
f 364 363 362
f 362 370 351
f 96 363 364
f 297 636 24
f 162 637 638
f 637 297 79
f 490 488 38
f 598 597 490
f 441 442 119
f 443 442 441
f 443 441 5
f 442 448 445
f 296 78 295
f 326 12 172
f 575 574 364
f 47 175 176
f 175 177 176
f 47 176 179
