# FEM surface export ¡ª frame 752
# Vertices: 642  Faces: 1280
v -0.49343073 0.76228541 -0.01282144
v 0.45434937 0.80567837 -0.02078069
v -0.52006280 0.66499275 0.06088445
v 0.57759023 0.60630596 0.02810197
v 0.01064866 0.37386578 0.83231330
v -0.00422662 0.57158148 0.86738724
v -0.02269298 0.27621746 -0.82146859
v -0.01219445 0.54183173 -0.87670934
v 0.92620432 0.12260215 -0.55729795
v 0.89886361 0.13564469 0.55760986
v -0.92595696 0.11795330 -0.55743539
v -0.92090106 0.11408457 0.58635551
v -0.81985909 0.54302001 0.30472159
v -0.53983325 0.36675844 0.82868367
v -0.30092737 0.72881383 0.46752578
v 0.28287297 0.77332181 0.46737972
v -0.01297623 0.82931906 0.00710546
v 0.26803175 0.75790513 -0.49682060
v -0.30604193 0.74948961 -0.49344808
v -0.52889544 0.35101032 -0.87152672
v -0.82549632 0.53755099 -0.32562298
v -1.07169330 0.13079590 0.00481838
v 0.53254616 0.41725740 0.85061550
v 0.81224746 0.60562748 0.31888777
v -0.47342575 0.17041764 0.83948272
v 0.01247429 0.11329068 1.06262350
v -0.82102907 0.34584993 -0.31402406
v -0.81206971 0.32034695 0.31115550
v 0.00569624 0.11439358 -1.08318365
v -0.51798493 0.15684882 -0.80336422
v 0.82040304 0.57485449 -0.33022073
v 0.53035617 0.37735054 -0.84806973
v 0.79603481 0.23666926 0.29760218
v 0.49817955 0.14689511 0.78838545
v 0.31712809 0.58660150 0.47295940
v -0.27172223 0.62323982 0.50390780
v 0.02167544 0.62128657 0.05018980
v -0.29013363 0.47688210 -0.45408526
v 0.34294206 0.59241098 -0.50621736
v 0.47034356 0.14213888 -0.83002013
v 0.77249497 0.22602953 -0.31520268
v 1.07971025 0.18741114 -0.00106986
v -0.67199177 0.68046546 0.14341165
v -0.56636375 0.65736651 0.40894297
v -0.39726338 0.75641519 0.22906162
v -0.73963666 0.23454665 0.74007577
v -0.70807695 0.46352708 0.59675515
v -0.91102391 0.33827549 0.45847523
v -0.15219890 0.67436665 0.67584890
v -0.42551172 0.59488893 0.66912669
v -0.28085077 0.48525590 0.88316911
v -0.13438858 0.79734391 0.25436953
v -0.24494390 0.80854511 0.01612748
v 0.14924166 0.69252408 0.68975300
v -0.00694437 0.76864243 0.48512587
v 0.21154504 0.82709968 -0.00739265
v 0.14935619 0.81811184 0.23275000
v 0.38722908 0.80462509 0.23490959
v -0.16112331 0.80851102 -0.24147601
v -0.40521774 0.77508783 -0.25281146
v 0.37393072 0.78960264 -0.26930019
v 0.11102675 0.81498784 -0.25124401
v -0.17499520 0.65851241 -0.70888072
v -0.01543510 0.75572634 -0.51287609
v 0.13369577 0.67082757 -0.70949465
v -0.58075291 0.65794533 -0.44062927
v -0.68026692 0.67352206 -0.17873649
v -0.28216058 0.46087933 -0.90695989
v -0.43467405 0.58182567 -0.71966583
v -0.89802152 0.33278024 -0.46589640
v -0.70922065 0.45672294 -0.62399036
v -0.74367279 0.23920663 -0.77377915
v -0.86656570 0.56261235 -0.01421646
v -1.03894472 0.10918661 -0.27729118
v -1.01190794 0.32917768 -0.16373394
v -1.00239444 0.35990635 0.16539404
v -1.04080284 0.12019488 0.29975766
v 0.57414877 0.72396123 0.41426414
v 0.64470482 0.74450129 0.14527223
v 0.27211940 0.51819128 0.90156388
v 0.42966115 0.64632165 0.68853241
v 0.91977477 0.38861138 0.48011371
v 0.72025067 0.52754974 0.61124593
v 0.75565612 0.28049117 0.73530555
v -0.29423127 0.26973096 1.02499676
v -0.00366354 0.35289884 1.03327429
v -0.70004934 0.00277605 0.74699736
v -0.54248518 0.08209803 0.93511355
v 0.02061306 0.14373995 0.98890090
v -0.24486598 0.00598802 1.00885332
v -0.25885156 0.26601601 0.87396836
v -0.93709379 0.07620938 0.17335539
v -0.88175005 0.09236360 0.45732495
v -0.87626213 0.12745459 -0.43942007
v -0.97737050 0.11931407 -0.19118948
v -0.71987385 0.48209742 0.16334487
v -0.84881669 0.35254592 -0.01749602
v -0.66549850 0.52491707 -0.15898779
v -0.59551644 0.10530696 -0.91428053
v -0.74484122 0.04049821 -0.69969040
v 0.00253715 0.34319514 -1.03811765
v -0.28641039 0.24591674 -1.03462875
v -0.27779165 0.18262126 -0.84418708
v -0.27218410 0.00012759 -0.99019855
v 0.00166447 0.06631596 -0.94751632
v 0.41077909 0.59972388 -0.71602660
v 0.26541597 0.47145507 -0.89250499
v 0.64764941 0.72124237 -0.17729771
v 0.55560076 0.68479294 -0.44017947
v 0.76505095 0.25294745 -0.73749775
v 0.70645612 0.47031108 -0.61376154
v 0.90861976 0.35677850 -0.46241078
v 0.71579784 0.43192762 0.15955557
v 0.60136455 0.41172311 0.41228619
v 0.47257149 0.60901248 0.26352197
v 0.73105335 0.00343726 0.75557685
v 0.68037003 0.18805632 0.58334708
v 0.87208927 0.12263934 0.40187019
v 0.17948340 0.50100470 0.71112394
v 0.41612583 0.36981609 0.66584212
v 0.21346329 0.23700503 0.84679770
v 0.23331530 0.76436532 0.28271425
v 0.27164248 0.56144297 0.04533827
v -0.13540091 0.52848536 0.70227700
v 0.03166685 0.66980070 0.55249304
v -0.26179919 0.63808817 0.05619678
v -0.13033468 0.72761184 0.32734191
v -0.46129131 0.66429156 0.29568738
v 0.20136516 0.65463293 -0.26402783
v 0.42769673 0.61860269 -0.18726575
v -0.41113272 0.67486352 -0.22529371
v -0.12606925 0.55272049 -0.21456723
v 0.17435890 0.45204183 -0.67378634
v 0.01944938 0.57766968 -0.53398204
v -0.16249382 0.49123800 -0.71428943
v 0.58804882 0.47700921 -0.38130948
v 0.69826365 0.44450241 -0.16310702
v 0.24216545 0.22265171 -0.87888014
v 0.43951789 0.38241968 -0.69522613
v 0.87206060 0.09942372 -0.44977629
v 0.68820322 0.21271470 -0.59239376
v 0.71354222 0.00000000 -0.74916774
v 0.84303647 0.22800651 0.00073940
v 1.03561938 0.15488571 -0.29021695
v 0.96699589 0.00000000 -0.20103915
v 0.97177649 0.00000000 0.13943453
v 1.03711510 0.17251737 0.29929313
v 0.30901924 0.03311258 1.00493753
v 0.57218432 0.12894046 0.92085034
v 0.27778122 0.28556260 1.02519655
v -0.55893350 0.49690282 0.42082167
v -0.37602493 0.43681985 0.69754666
v -0.65983951 0.25646734 0.62309098
v -0.42481926 0.42899665 -0.69685876
v -0.56536376 0.54764259 -0.41188458
v -0.69820029 0.27716541 -0.56951457
v 0.55653471 0.08884156 -0.92889780
v 0.26276761 0.00000000 -1.01962304
v 0.28856266 0.23228146 -1.02881968
v 0.99239826 0.42630714 0.17969221
v 0.99529499 0.40472054 -0.17785108
v 0.83929890 0.62796849 -0.00786695
v -0.57961529 0.72898912 0.06420878
v -0.53129852 0.72727913 0.19407015
v -0.44391540 0.75846368 0.11314132
v -0.70659739 0.60844308 0.35713750
v -0.61730200 0.67654997 0.28304371
v -0.75586087 0.61316085 0.21922372
v -0.35456520 0.74621171 0.34983200
v -0.48347926 0.71457249 0.32685336
v -0.42881233 0.69615066 0.44383299
v -0.82859600 0.17886436 0.66351753
v -0.84391958 0.28919321 0.61678231
v -0.94161785 0.24091713 0.52773321
v -0.63570291 0.40585682 0.71979338
v -0.74803638 0.35555416 0.66960847
v -0.63869292 0.29180804 0.78884989
v -0.87477607 0.44632611 0.38025084
v -0.80851275 0.41017458 0.53218478
v -0.77563769 0.51094413 0.45274651
v -0.08067320 0.63013738 0.78049821
v -0.21580063 0.59590715 0.79282558
v -0.14440168 0.52890491 0.88849723
v -0.35840368 0.67058849 0.57750201
v -0.29019055 0.62824667 0.68810940
v -0.23058665 0.69850862 0.57075000
v -0.41735652 0.43068776 0.85870653
v -0.36191708 0.54099578 0.78711003
v -0.49811062 0.50045383 0.75566065
v -0.65280128 0.58879340 0.49747831
v -0.58612269 0.54143167 0.63905799
v -0.50152344 0.62628388 0.55125260
v -0.32449442 0.78286183 0.12514766
v -0.36915302 0.78446972 0.00083650
v -0.22013929 0.77431959 0.36466542
v -0.27001911 0.77991414 0.25367510
v -0.13268897 0.82988280 0.00864312
v -0.19194946 0.80378592 0.13990629
v -0.07432473 0.82251829 0.13118671
v 0.07727730 0.63880146 0.78139484
v -0.00621284 0.69092184 0.68433326
v 0.13623774 0.76688409 0.47549891
v 0.06948351 0.73315209 0.58027124
v 0.22376323 0.73428708 0.58106357
v -0.07926506 0.72940212 0.57700092
v -0.15450254 0.76143068 0.47993660
v 0.33503869 0.81247747 -0.02389273
v 0.30369487 0.81966430 0.10954172
v 0.41805482 0.81386578 0.10338558
v 0.07431227 0.82594281 0.11553807
v 0.18705791 0.82717639 0.11590024
v 0.10016388 0.83696389 -0.01091708
v 0.35557559 0.79087281 0.35933122
v 0.26417968 0.80822772 0.23702666
v 0.21237913 0.79285765 0.34134722
v -0.07637639 0.79486328 0.37329826
v 0.06387535 0.79671991 0.35726857
v 0.00452415 0.81604314 0.23537347
v -0.33421108 0.80160081 -0.11580003
v -0.45643589 0.76928341 -0.13336894
v -0.09102605 0.82723618 -0.11485646
v -0.20929986 0.81933856 -0.10996596
v -0.35195366 0.77240491 -0.36838585
v -0.28033254 0.80028349 -0.24037744
v -0.22586502 0.78969061 -0.36293548
v 0.41703984 0.80334985 -0.14850126
v 0.28665906 0.82112598 -0.14204609
v 0.19370967 0.79261041 -0.37712997
v 0.24007684 0.80600554 -0.26088625
v 0.32579538 0.77321035 -0.38495946
v 0.16250199 0.83041018 -0.12873730
v 0.04013213 0.83112729 -0.12508643
v -0.09906663 0.60508215 -0.80151540
v -0.02048253 0.67166466 -0.71904671
v 0.06195151 0.61122185 -0.80073869
v -0.16613910 0.75446528 -0.50570697
v -0.10205813 0.71850157 -0.61472100
v -0.24498430 0.70957202 -0.60750586
v 0.20643343 0.72006249 -0.60733080
v 0.05234304 0.72409260 -0.61332649
v 0.12315333 0.76010054 -0.50857127
v -0.02921216 0.81248343 -0.24934268
v 0.05539993 0.79276037 -0.38021120
v -0.08730777 0.79097080 -0.37886629
v -0.54089403 0.73462629 -0.22909074
v -0.58999312 0.72915232 -0.10074426
v -0.43472314 0.71168411 -0.47115338
v -0.48923582 0.72257787 -0.35833809
v -0.76801747 0.61642462 -0.24415118
v -0.63144642 0.67967016 -0.30826411
v -0.71327478 0.60501111 -0.38803637
v -0.14030451 0.50363827 -0.90070027
v -0.22426043 0.56122351 -0.82284468
v -0.48823321 0.46880761 -0.80231321
v -0.36294866 0.52105355 -0.82091153
v -0.41546321 0.41293958 -0.89822668
v -0.29760760 0.61665130 -0.72573757
v -0.37009171 0.67468697 -0.61796635
v -0.91414565 0.21968003 -0.51743245
v -0.82367331 0.28347805 -0.62191445
v -0.83283913 0.16590774 -0.67515576
v -0.77581465 0.49857473 -0.47742233
v -0.80985647 0.39107376 -0.54712296
v -0.85613286 0.42440292 -0.39810899
v -0.64410096 0.30129370 -0.80515385
v -0.73171496 0.35192263 -0.68249440
v -0.62586939 0.41163096 -0.74914944
v -0.51244348 0.62691540 -0.58072400
v -0.58208048 0.52596289 -0.68509454
v -0.65470928 0.56306958 -0.53215104
v -0.68208390 0.69273806 -0.01211139
v -0.86079192 0.54573131 -0.16691186
v -0.77534062 0.63046598 -0.09319506
v -0.77762932 0.63393313 0.06477325
v -0.85884309 0.55956346 0.14247596
v -0.98588675 0.11087941 -0.41645595
v -0.98362869 0.22773321 -0.38434094
v -1.05827165 0.23820233 -0.08403188
v -1.02842653 0.23215559 -0.22636609
v -1.04323387 0.12822156 -0.14457881
v -0.96435219 0.34376127 -0.31394359
v -0.92441517 0.43452495 -0.25094584
v -0.99363399 0.24068251 0.38267064
v -0.99524307 0.11870687 0.45361453
v -0.92387646 0.45640588 0.23978473
v -0.95193571 0.34538490 0.31351948
v -1.06597364 0.11588903 0.15715834
v -1.03193104 0.24103677 0.23173375
v -1.06681406 0.23988400 0.09019198
v -0.96430618 0.44807467 -0.08721947
v -1.01418626 0.34647766 0.00755645
v -0.94806474 0.46634883 0.07903010
v 0.50416982 0.79381108 0.19101758
v 0.55252296 0.77925050 0.05696627
v 0.43386889 0.75126719 0.45463294
v 0.48394060 0.77865463 0.32874578
v 0.73463714 0.68788618 0.23242661
v 0.61402214 0.74961847 0.28521419
v 0.70207644 0.67589396 0.36596632
v 0.12994708 0.54765409 0.89817631
v 0.21408606 0.61520666 0.80383849
v 0.48434389 0.55380154 0.79322428
v 0.35641131 0.58021057 0.80403632
v 0.41016415 0.46989062 0.89423162
v 0.28997219 0.67371279 0.69891495
v 0.35938781 0.71963763 0.58536971
v 0.91668934 0.26047161 0.52424836
v 0.84013885 0.33532146 0.60893363
v 0.83589327 0.19805737 0.66363150
v 0.77399957 0.56112289 0.47171250
v 0.82275754 0.45847565 0.56202805
v 0.87384826 0.50767916 0.40407479
v 0.65346700 0.35093954 0.80194741
v 0.74162191 0.41138873 0.68074733
v 0.63079667 0.48714656 0.74943197
v 0.50467670 0.68624038 0.55785155
v 0.57456481 0.58736944 0.65576518
v 0.64932215 0.63315743 0.51697546
v -0.15581228 0.41397944 0.96436471
v -0.01639844 0.46342039 0.95795327
v -0.42755893 0.32570878 0.93407881
v -0.30113506 0.37481368 0.96028227
v -0.00331547 0.24017395 1.06891394
v -0.14866836 0.30024540 1.03190958
v -0.14658721 0.17500812 1.06910026
v -0.82843238 0.07615604 0.68695116
v -0.74432939 0.12587896 0.78758556
v -0.52555698 0.03251025 0.90183145
v -0.64390320 0.02707872 0.85134512
v -0.60115439 0.07779621 0.77322084
v -0.65384275 0.15426946 0.86221069
v -0.54214942 0.24188040 0.89619786
v 0.00934249 0.25356662 0.91409594
v -0.10517751 0.21915488 0.93991017
v -0.13075125 0.31755233 0.85566092
v -0.11269219 0.05082387 1.07317436
v -0.07277910 0.06036219 1.00707567
v 0.03986463 0.00639802 1.04470885
v -0.36696365 0.22926456 0.83865565
v -0.22475746 0.16129184 0.92448515
v -0.34794220 0.11137884 0.92825300
v -0.41743982 0.18137389 0.98163939
v -0.39448494 0.03008105 1.00596225
v -0.27515194 0.11490460 1.04542673
v -0.97462708 0.01160511 0.39008343
v -0.91604942 0.00157601 0.53798592
v -1.02255762 0.00131550 0.10423150
v -1.02428532 0.00771929 0.25634581
v -0.84467518 0.21946761 0.38432574
v -0.93361044 0.13010022 0.33450538
v -0.91097653 0.22354597 0.23965888
v -0.89292639 0.12618713 -0.50057167
v -0.97103912 0.01745428 -0.40704411
v -0.91376156 0.23678666 -0.27574182
v -0.95012313 0.10699393 -0.32033491
v -0.87367737 0.23695077 -0.38667119
v -1.01408339 0.00000000 -0.24728768
v -1.05804276 0.04022450 -0.09349212
v -0.64374197 0.57950372 0.11827274
v -0.71398342 0.52301246 0.00411782
v -0.59800482 0.59378856 -0.04582103
v -0.84312892 0.32875523 0.14025371
v -0.80725116 0.45922902 0.08636633
v -0.76508683 0.37258655 0.23946422
v -0.75501192 0.46021780 -0.23567817
v -0.77466547 0.46567628 -0.09222334
v -0.84911907 0.37700143 -0.17905113
v -0.92798418 0.06544283 -0.02306329
v -0.91586632 0.20567656 -0.09685911
v -0.92832035 0.22173740 0.08198962
v -0.79454905 0.09280816 -0.76216257
v -0.86276716 0.01925588 -0.63744622
v -0.56913263 0.24586792 -0.93705136
v -0.68807530 0.16796629 -0.86618173
v -0.65240437 0.12765370 -0.75536716
v -0.68264610 0.01145180 -0.81878424
v -0.58202469 0.00893758 -0.84945893
v -0.00782560 0.43933231 -0.96111804
v -0.14736846 0.41090870 -0.97802180
v -0.13931160 0.19626802 -1.08979940
v -0.14500900 0.30542594 -1.03349960
v 0.01602316 0.22540027 -1.07520235
v -0.29093063 0.34830087 -0.97567379
v -0.41791829 0.29885069 -0.96712989
v -0.14593016 0.22734244 -0.84475809
v -0.14514379 0.10579487 -0.89796108
v -0.02430700 0.17749703 -0.89466029
v -0.41674802 0.04355089 -0.87992656
v -0.29120567 0.07788966 -0.85996181
v -0.40533817 0.17121460 -0.80948985
v 0.00621054 0.00002589 -1.03128529
v -0.12452200 0.00018568 -0.93825799
v -0.14080109 0.05507335 -1.05221462
v -0.43874508 0.16378102 -1.01207602
v -0.28880167 0.10596611 -1.07675731
v -0.45174333 0.02672657 -0.98739499
v 0.20557722 0.57942647 -0.80821210
v 0.12475317 0.51246327 -0.89322233
v 0.34201214 0.68860883 -0.61757016
v 0.27299270 0.64203370 -0.71672559
v 0.40059528 0.41305193 -0.89102793
v 0.34927958 0.54271340 -0.81264287
v 0.48102134 0.49252182 -0.79978383
v 0.55729896 0.77081740 -0.10082882
v 0.51492715 0.76473927 -0.23096125
v 0.69949788 0.63755631 -0.39041975
v 0.60857689 0.71289492 -0.31374866
v 0.74442726 0.65637475 -0.24938633
v 0.47057649 0.74272621 -0.36000761
v 0.41368124 0.73104429 -0.48594156
v 0.84206015 0.17328934 -0.65797639
v 0.85040420 0.29151690 -0.60376561
v 0.92616272 0.25086984 -0.52094221
v 0.64091223 0.43060836 -0.74653530
v 0.74975491 0.36763123 -0.68699628
v 0.65321279 0.29626453 -0.81560034
v 0.86589551 0.47163695 -0.40155503
v 0.81563336 0.40807408 -0.54852170
v 0.76663113 0.52550304 -0.48581824
v 0.49155435 0.64667219 -0.58787966
v 0.64146817 0.59421068 -0.54056132
v 0.56226218 0.53680289 -0.67859066
v 0.61840844 0.50494981 0.09432157
v 0.60683542 0.50305516 0.23654768
v 0.51618373 0.57455468 0.15757652
v 0.72028518 0.34367687 0.38630787
v 0.67034346 0.42505029 0.32593638
v 0.78699470 0.32277861 0.23139168
v 0.43029237 0.60780221 0.36462724
v 0.52934682 0.50271100 0.34848556
v 0.46173465 0.52425218 0.45481923
v 0.83065826 0.04572953 0.65209705
v 0.79677558 0.07833986 0.58118224
v 0.92603809 0.04502993 0.49329689
v 0.62889379 0.16624358 0.69992733
v 0.72045207 0.09163450 0.64935380
v 0.63740331 0.07371918 0.78255284
v 0.79184711 0.15609372 0.34435442
v 0.75496864 0.11510129 0.48659390
v 0.70702255 0.21202733 0.42289099
v 0.11603615 0.43691960 0.80523789
v 0.24989682 0.40122080 0.77882332
v 0.11752217 0.34439072 0.87460715
v 0.37197223 0.47958589 0.58517820
v 0.30875796 0.45716047 0.68292797
v 0.23992792 0.55433989 0.59559655
v 0.39036769 0.22485451 0.83838350
v 0.33345366 0.30901501 0.75892735
v 0.47607705 0.24360904 0.72307605
v 0.64867854 0.30637395 0.50696880
v 0.54674661 0.28042993 0.60469794
v 0.53330052 0.41320494 0.53450423
v 0.37473869 0.52337450 0.17078331
v 0.42168182 0.52230185 0.02170257
v 0.29503128 0.69048381 0.35884634
v 0.36206818 0.68198627 0.24864261
v 0.15709645 0.61486775 0.06697498
v 0.27935979 0.67836827 0.15937056
v 0.13573281 0.68672806 0.18115035
v -0.07456699 0.44304249 0.79565400
v 0.01786757 0.52531642 0.72709763
v -0.11894873 0.66188151 0.51411909
v -0.05592756 0.59393746 0.63199043
v -0.21291165 0.58840668 0.60170406
v 0.09315712 0.58578604 0.63571310
v 0.17021774 0.65043348 0.50351471
v -0.37412089 0.57363284 0.07235706
v -0.37343085 0.72583157 0.18851195
v -0.49897471 0.65661770 0.18347123
v -0.04985877 0.69936043 0.17973813
v -0.21292022 0.77202380 0.17337921
v -0.13121822 0.64888167 0.07780651
v -0.36290890 0.65134412 0.40107256
v -0.30115423 0.71945763 0.30906233
v -0.22140466 0.71276212 0.42002258
v 0.13497055 0.74971980 0.41660684
v -0.03827840 0.73743993 0.42420754
v 0.07214012 0.63604236 0.30668306
v 0.36639437 0.57818186 -0.07385039
v 0.54648423 0.55687952 -0.10585379
v 0.10883261 0.63557315 -0.10765684
v 0.21251185 0.62292325 -0.07281855
v 0.41961363 0.60803086 -0.36164743
v 0.30266395 0.68528420 -0.25357321
v 0.30022398 0.68556422 -0.40115827
v -0.46301699 0.68412179 -0.07613195
v -0.36790204 0.58836055 -0.10717083
v -0.20132685 0.47374615 -0.31002223
v -0.24273281 0.58259594 -0.20344223
v -0.36865389 0.57904482 -0.34239239
v -0.19864413 0.61702329 -0.08529247
v -0.06013883 0.60179710 -0.10367463
v 0.09628966 0.37678051 -0.75493318
v 0.01518901 0.47299403 -0.68958473
v -0.08655214 0.38946402 -0.75943881
v 0.19790883 0.62685645 -0.53770095
v 0.10983050 0.56213593 -0.63061100
v 0.25112027 0.54231507 -0.61134034
v -0.18236922 0.41362604 -0.57065380
v -0.08237274 0.56098247 -0.62247807
v -0.13228026 0.49394619 -0.49263975
v 0.07363269 0.60045534 -0.26576012
v -0.03433553 0.53365743 -0.37889424
v 0.14629658 0.59121901 -0.37890536
v 0.59864658 0.56687665 -0.22682083
v 0.63556248 0.54545122 -0.10919870
v 0.46034551 0.54238236 -0.45823520
v 0.53262407 0.58821720 -0.33617890
v 0.75905621 0.33406693 -0.24738525
v 0.66493440 0.44685128 -0.26247954
v 0.68867421 0.35354796 -0.38086802
v 0.11113007 0.24542682 -0.86906624
v 0.21935870 0.34369451 -0.80873466
v 0.47333676 0.24869297 -0.76156157
v 0.35817426 0.29175887 -0.78150833
v 0.37885806 0.17088439 -0.84936148
v 0.29752332 0.42802072 -0.70230532
v 0.37625530 0.47915238 -0.59460282
v 0.93218040 0.00816767 -0.50956047
v 0.81100786 0.05116751 -0.58813232
v 0.83283114 0.01365205 -0.64491099
v 0.75911146 0.22886176 -0.46102992
v 0.76593930 0.15021586 -0.54102165
v 0.82124156 0.14245863 -0.39535326
v 0.58649099 0.04799665 -0.77735084
v 0.69515187 0.07753740 -0.67810178
v 0.57638675 0.15565412 -0.72612286
v 0.53539246 0.44852611 -0.56682986
v 0.57628667 0.32591277 -0.66645831
v 0.64572471 0.35932103 -0.50351942
v 0.71660370 0.44468009 0.01186445
v 0.80350345 0.22894062 -0.17877537
v 0.78271079 0.33971623 -0.07777240
v 0.78580660 0.33178401 0.08725440
v 0.81869024 0.21776666 0.14171667
v 0.98861384 0.11993101 -0.42882305
v 0.99262470 0.02084644 -0.37986925
v 1.08084953 0.07582674 -0.09092720
v 1.04606760 0.08446457 -0.23771170
v 1.06756341 0.19448787 -0.14932737
v 0.92229933 0.06866530 -0.32435289
v 0.85271633 0.09667215 -0.25603509
v 0.98436511 0.01418979 0.35936427
v 0.96884084 0.13539466 0.41380909
v 0.84605938 0.08397496 0.22195005
v 0.91189355 0.00815984 0.29413173
v 1.05856431 0.19301228 0.15256408
v 1.01771712 0.07674751 0.22614692
v 1.04301798 0.09276433 0.07641602
v 0.88866442 0.11421994 -0.11248199
v 0.98392481 0.00000000 -0.03900817
v 0.88926709 0.11156270 0.05574355
v 0.16278571 0.24265091 0.92546117
v 0.42143682 0.10425163 0.90073615
v 0.27505767 0.13660525 0.92435497
v 0.18065839 0.12202609 1.02616727
v 0.17632888 0.04192568 1.05151498
v 0.77786225 0.12988432 0.76140863
v 0.55876410 0.27692252 0.89433730
v 0.67862982 0.20088868 0.84644371
v 0.67585707 0.04502384 0.85323751
v 0.55583102 0.03780458 0.88424331
v 0.13449834 0.44868821 0.98537225
v 0.14441614 0.17926686 1.05803418
v 0.14112619 0.31327012 1.03631759
v 0.28124705 0.42015654 0.98209196
v 0.40999269 0.34853712 0.96349448
v 0.43764731 0.04406830 0.98465383
v 0.43830898 0.20098977 0.95899099
v 0.30236429 0.14002316 1.02668488
v -0.60529870 0.56991959 0.26041943
v -0.43010062 0.57573301 0.46376491
v -0.51942861 0.58751220 0.35891649
v -0.64675719 0.47896174 0.30759302
v -0.69293183 0.41690210 0.40103036
v -0.18728182 0.39783418 0.79197252
v -0.42975953 0.30254588 0.77597386
v -0.31953228 0.37770575 0.79088634
v -0.25156519 0.49136549 0.68926609
v -0.33645001 0.51958072 0.58677882
v -0.79168433 0.04242233 0.59137416
v -0.74274981 0.27448869 0.49559838
v -0.75178164 0.15177721 0.51121628
v -0.66400099 0.11071952 0.68091291
v -0.58451420 0.20193055 0.74839205
v -0.48657745 0.49155429 0.55888897
v -0.51284486 0.35835931 0.66008329
v -0.61973310 0.38671345 0.54264289
v -0.21052980 0.31397986 -0.78119832
v -0.30209216 0.50474524 -0.57755756
v -0.28164738 0.42505392 -0.71116781
v -0.37190187 0.27476284 -0.76539004
v -0.50129735 0.31376433 -0.72349185
v -0.56391239 0.61255431 -0.16725226
v -0.72329348 0.46173179 -0.36794785
v -0.65210718 0.55244297 -0.29194847
v -0.52914798 0.61469030 -0.31090808
v -0.43043286 0.57890141 -0.45415634
v -0.81319720 0.09739884 -0.57923424
v -0.62187761 0.24737962 -0.70637745
v -0.70241928 0.16768940 -0.65227813
v -0.78437483 0.16802764 -0.50713807
v -0.76719266 0.30100721 -0.46048895
v -0.50627536 0.47203106 -0.55749828
v -0.65975797 0.42728239 -0.49524361
v -0.58745557 0.36735216 -0.61818820
v 0.77909946 0.11370186 -0.75771695
v 0.51508260 0.07095803 -0.88273454
v 0.67364281 0.04311093 -0.85679513
v 0.66444027 0.16956957 -0.82481110
v 0.54918683 0.23092388 -0.89516038
v 0.09968583 0.15466902 -0.92948014
v 0.16168351 0.03684095 -1.05112660
v 0.14346096 0.04967562 -1.00275123
v 0.24383695 0.13519336 -0.93818438
v 0.35911393 0.08292908 -0.92832929
v 0.13727722 0.41532996 -0.96602458
v 0.41040492 0.30065921 -0.94943655
v 0.28307322 0.36440328 -0.96347135
v 0.15484263 0.29929245 -1.02268219
v 0.16966671 0.18383206 -1.08868623
v 0.41347742 0.00137917 -0.99949890
v 0.30676067 0.11180778 -1.06995904
v 0.43619034 0.15910341 -0.99615306
v 0.99112684 0.27901703 0.39127496
v 1.05513287 0.29650757 0.09287459
v 1.03107309 0.29760757 0.23423263
v 0.96745598 0.41342330 0.33276433
v 0.91977090 0.52472961 0.25555000
v 0.98382711 0.25665471 -0.38162473
v 0.91799325 0.50006467 -0.25625166
v 0.96432209 0.39027533 -0.32766575
v 1.02789402 0.29471189 -0.23725653
v 1.04459441 0.30015355 -0.08867346
v 0.65320617 0.74090332 -0.01813120
v 0.83244658 0.62969565 0.15759817
v 0.74340075 0.69678319 0.07613343
v 0.74892455 0.68351042 -0.08732674
v 0.84730935 0.60323024 -0.16459820
v 1.00783145 0.41213307 0.00452614
v 0.94996232 0.52493292 -0.08903728
v 0.93307877 0.54950702 0.08723810
f 330 87 329
f 336 325 26
f 207 208 56
f 464 36 580
f 502 129 504
f 157 624 622
f 308 311 82
f 247 223 248
f 507 483 508
f 331 88 329
f 494 500 497
f 156 601 602
f 591 589 592
f 365 98 596
f 75 281 282
f 152 587 577
f 149 559 560
f 555 121 553
f 530 141 529
f 515 517 139
f 361 594 98
f 250 67 249
f 157 608 609
f 294 293 209
f 317 81 316
f 557 338 26
f 303 305 81
f 530 529 528
f 101 381 382
f 415 418 111
f 192 184 50
f 412 110 411
f 20 384 256
f 131 594 486
f 281 264 282
f 347 287 348
f 28 349 582
f 165 163 1
f 248 250 66
f 617 107 398
f 273 271 274
f 456 115 453
f 558 561 560
f 335 576 91
f 331 177 332
f 116 433 436
f 351 370 92
f 136 511 530
f 239 240 65
f 247 258 19
f 304 23 567
f 148 557 570
f 214 208 58
f 440 426 450
f 268 270 269
f 258 247 268
f 204 202 16
f 466 125 465
f 517 513 133
f 168 275 274
f 275 73 274
f 198 193 53
f 309 308 307
f 510 511 136
f 415 416 110
f 131 490 597
f 473 475 474
f 414 415 111
f 493 495 494
f 496 504 485
f 433 116 432
f 600 375 601
f 240 234 65
f 418 415 412
f 486 361 3
f 567 566 304
f 380 393 29
f 17 199 197
f 491 492 132
f 451 449 435
f 218 217 216
f 623 621 613
f 396 104 395
f 433 439 436
f 628 160 627
f 215 202 217
f 209 207 2
f 427 113 424
f 434 10 544
f 434 433 432
f 199 17 210
f 150 564 565
f 489 491 132
f 275 13 285
f 497 500 134
f 125 466 476
f 578 152 577
f 208 214 211
f 328 88 343
f 356 27 603
f 150 566 567
f 372 100 371
f 190 191 47
f 235 8 398
f 260 261 72
f 422 403 414
f 422 414 111
f 453 454 123
f 349 583 582
f 521 520 519
f 425 453 115
f 616 622 158
f 483 130 508
f 151 586 572
f 212 17 232
f 400 397 402
f 377 396 99
f 41 522 511
f 510 508 505
f 549 547 42
f 475 473 36
f 510 137 509
f 222 221 197
f 430 115 429
f 220 194 1
f 305 54 204
f 621 29 613
f 192 171 184
f 460 335 5
f 88 331 332
f 74 277 279
f 300 301 80
f 390 389 388
f 165 45 164
f 146 549 551
f 291 278 75
f 448 120 445
f 147 543 544
f 607 610 609
f 603 602 356
f 139 529 514
f 333 553 443
f 92 368 347
f 261 260 259
f 300 6 200
f 46 177 331
f 284 283 174
f 301 300 200
f 471 468 474
f 54 305 301
f 302 304 303
f 569 150 567
f 150 569 570
f 294 209 2
f 628 629 160
f 548 543 147
f 147 625 627
f 63 233 234
f 426 427 114
f 41 509 532
f 198 52 196
f 614 105 612
f 147 627 547
f 81 305 306
f 549 548 547
f 54 301 200
f 342 88 332
f 264 281 70
f 193 194 53
f 455 429 456
f 187 321 14
f 479 130 484
f 147 544 625
f 458 456 453
f 304 80 303
f 314 84 313
f 488 503 501
f 321 332 14
f 423 425 424
f 305 204 306
f 341 339 25
f 514 40 516
f 625 628 627
f 340 339 341
f 105 614 391
f 243 228 62
f 318 316 78
f 75 278 279
f 357 355 353
f 238 257 63
f 466 455 476
f 425 423 4
f 448 449 120
f 408 638 108
f 292 275 285
f 22 278 289
f 515 513 517
f 501 503 134
f 622 623 158
f 134 503 504
f 195 216 206
f 163 271 246
f 619 617 620
f 62 228 229
f 163 165 164
f 453 425 454
f 489 132 488
f 82 628 625
f 58 208 209
f 525 608 40
f 626 547 627
f 518 517 498
f 489 487 491
f 557 26 564
f 325 336 344
f 541 145 539
f 40 616 516
f 338 556 89
f 250 248 245
f 139 514 515
f 98 594 596
f 246 220 1
f 112 413 630
f 9 536 413
f 156 600 601
f 332 177 14
f 321 342 332
f 156 606 600
f 584 330 585
f 302 303 81
f 584 87 330
f 330 25 585
f 400 239 65
f 439 440 117
f 95 358 368
f 597 594 131
f 594 361 486
f 246 67 245
f 561 562 149
f 28 364 362
f 55 216 217
f 427 430 114
f 267 20 254
f 556 555 553
f 84 309 558
f 311 310 312
f 609 525 142
f 256 68 255
f 124 460 461
f 82 311 312
f 307 308 82
f 589 135 495
f 527 40 514
f 112 418 412
f 20 256 254
f 258 238 19
f 267 254 269
f 273 272 249
f 392 391 393
f 137 533 509
f 122 455 456
f 9 413 411
f 130 480 505
f 333 443 5
f 527 525 40
f 589 495 385
f 39 496 485
f 223 225 224
f 414 416 415
f 219 222 53
f 145 538 539
f 413 412 411
f 469 468 467
f 183 181 6
f 191 192 50
f 429 35 431
f 292 285 76
f 413 112 412
f 415 110 412
f 43 164 167
f 467 468 126
f 617 101 620
f 450 451 117
f 438 546 545
f 619 620 159
f 17 212 210
f 124 579 576
f 584 153 583
f 460 124 576
f 3 469 467
f 311 308 314
f 6 320 183
f 389 104 388
f 251 250 249
f 194 165 1
f 291 289 278
f 287 77 348
f 238 258 257
f 139 517 518
f 238 236 19
f 223 247 19
f 382 380 29
f 39 518 498
f 361 359 3
f 69 255 257
f 139 518 528
f 33 545 535
f 387 385 7
f 69 268 269
f 477 462 125
f 454 479 123
f 121 555 447
f 451 435 117
f 454 425 4
f 233 252 8
f 124 463 464
f 69 258 268
f 168 167 166
f 583 153 582
f 384 394 102
f 138 512 513
f 57 210 211
f 254 256 255
f 607 609 142
f 324 319 86
f 289 291 76
f 291 292 76
f 384 102 383
f 422 421 420
f 221 17 197
f 383 102 381
f 376 377 99
f 99 373 374
f 386 105 392
f 438 33 440
f 90 341 343
f 281 75 279
f 574 571 96
f 628 82 312
f 221 222 59
f 127 471 474
f 595 605 603
f 551 538 145
f 334 91 340
f 322 324 85
f 305 303 301
f 18 239 399
f 306 204 16
f 199 198 197
f 166 190 180
f 303 80 301
f 267 266 265
f 626 42 547
f 16 215 213
f 349 351 350
f 295 16 213
f 68 379 252
f 250 251 66
f 627 160 626
f 383 68 256
f 343 88 342
f 507 508 136
f 202 215 16
f 197 198 53
f 254 69 269
f 603 605 156
f 418 419 111
f 384 383 256
f 455 122 476
f 203 204 54
f 556 557 148
f 255 68 253
f 313 84 560
f 25 328 341
f 254 255 69
f 603 156 602
f 581 584 583
f 630 632 112
f 163 246 1
f 246 245 220
f 432 116 558
f 499 591 590
f 320 563 86
f 345 93 350
f 306 16 295
f 346 93 345
f 562 568 149
f 604 605 155
f 154 592 593
f 545 552 535
f 511 522 530
f 574 573 571
f 566 150 565
f 361 98 360
f 67 271 273
f 234 235 65
f 208 211 56
f 574 151 573
f 251 270 66
f 398 8 378
f 213 215 214
f 438 440 439
f 315 314 313
f 263 71 262
f 20 373 384
f 496 134 504
f 329 88 328
f 81 306 316
f 555 556 148
f 592 589 103
f 617 619 107
f 227 207 56
f 571 359 96
f 446 466 465
f 206 216 55
f 359 571 469
f 568 148 570
f 34 437 435
f 28 351 349
f 21 272 282
f 113 423 424
f 490 489 488
f 379 68 383
f 210 212 211
f 80 563 300
f 351 92 350
f 326 346 12
f 83 317 318
f 555 148 554
f 212 231 56
f 218 57 217
f 271 67 246
f 195 196 52
f 270 268 66
f 390 592 103
f 148 568 554
f 495 493 7
f 592 390 593
f 357 95 355
f 574 575 151
f 452 120 451
f 154 591 592
f 587 585 577
f 395 394 396
f 93 349 350
f 610 416 611
f 166 44 190
f 315 23 302
f 315 302 317
f 268 247 66
f 606 154 593
f 396 394 99
f 211 212 56
f 370 369 368
f 235 397 65
f 280 278 22
f 83 315 317
f 575 588 151
f 74 279 280
f 385 495 7
f 63 257 253
f 397 235 398
f 214 58 213
f 220 219 194
f 546 146 545
f 236 225 19
f 599 94 602
f 235 233 8
f 102 394 395
f 611 416 32
f 225 223 19
f 139 528 529
f 231 62 229
f 419 406 421
f 451 450 452
f 49 182 185
f 402 397 107
f 52 199 218
f 416 610 110
f 225 236 244
f 107 397 398
f 68 252 253
f 322 85 321
f 182 181 183
f 118 438 439
f 546 438 118
f 348 77 345
f 543 546 118
f 231 212 232
f 610 611 157
f 33 438 545
f 385 386 103
f 479 480 130
f 169 195 15
f 93 583 349
f 15 195 206
f 190 44 192
f 247 248 66
f 146 552 545
f 248 60 245
f 570 557 564
f 274 271 43
f 63 253 233
f 272 21 249
f 507 528 518
f 67 273 249
f 487 467 126
f 196 195 169
f 624 159 623
f 134 496 497
f 132 503 488
f 104 393 395
f 556 553 89
f 355 356 94
f 258 69 257
f 229 61 227
f 56 231 227
f 460 576 335
f 463 124 461
f 394 373 99
f 29 393 391
f 67 250 245
f 193 198 196
f 462 36 464
f 144 633 630
f 141 526 527
f 517 133 498
f 536 144 630
f 100 372 599
f 144 536 537
f 22 289 287
f 578 579 152
f 579 578 576
f 189 188 187
f 60 223 224
f 92 348 350
f 555 554 447
f 396 377 388
f 194 193 165
f 413 536 630
f 372 352 599
f 377 376 375
f 348 345 350
f 105 386 387
f 240 237 234
f 463 462 464
f 135 500 494
f 45 196 169
f 512 612 387
f 245 60 220
f 429 115 456
f 223 60 248
f 288 289 76
f 525 526 142
f 100 599 601
f 613 29 391
f 526 523 520
f 341 328 343
f 631 641 639
f 264 21 282
f 266 72 265
f 106 402 403
f 73 273 274
f 186 206 205
f 381 379 383
f 52 216 195
f 410 18 399
f 290 272 73
f 72 371 374
f 526 525 527
f 115 430 424
f 498 497 496
f 621 382 29
f 543 118 434
f 214 215 57
f 522 141 530
f 511 510 509
f 352 94 599
f 493 512 7
f 90 340 341
f 169 171 170
f 605 604 606
f 219 60 224
f 104 389 392
f 359 469 3
f 186 49 185
f 222 219 224
f 166 167 44
f 428 427 426
f 523 522 524
f 129 502 481
f 50 185 188
f 164 45 170
f 425 115 424
f 33 428 426
f 427 428 113
f 94 356 602
f 515 138 513
f 114 431 452
f 237 236 238
f 215 217 57
f 95 354 355
f 220 60 219
f 515 514 516
f 183 320 319
f 222 197 53
f 559 569 567
f 300 320 6
f 435 436 117
f 96 360 363
f 640 642 641
f 242 243 62
f 140 537 519
f 508 130 505
f 420 410 399
f 537 539 144
f 317 316 318
f 426 114 450
f 186 15 206
f 311 83 310
f 625 544 307
f 544 10 307
f 168 43 167
f 185 182 188
f 369 354 95
f 44 171 192
f 605 606 156
f 548 549 146
f 100 601 375
f 149 568 569
f 381 380 382
f 455 466 35
f 480 479 454
f 543 548 546
f 493 133 513
f 492 472 37
f 477 125 476
f 491 487 126
f 337 336 338
f 588 153 587
f 576 578 91
f 633 161 632
f 96 359 360
f 39 485 483
f 101 617 378
f 193 45 165
f 163 164 43
f 618 624 611
f 507 136 528
f 561 149 560
f 641 162 639
f 116 561 558
f 494 133 493
f 253 252 233
f 63 237 238
f 392 393 104
f 440 450 117
f 93 581 583
f 386 385 387
f 120 449 451
f 421 422 111
f 486 3 467
f 302 81 317
f 633 632 630
f 462 475 36
f 376 99 374
f 489 490 131
f 447 449 448
f 387 612 105
f 106 420 399
f 173 46 172
f 492 491 472
f 316 306 295
f 22 287 347
f 109 410 420
f 507 39 483
f 559 23 313
f 214 57 211
f 196 45 193
f 10 434 432
f 422 106 403
f 626 160 640
f 487 486 467
f 542 41 532
f 400 106 399
f 444 120 452
f 198 199 52
f 475 127 474
f 621 620 382
f 621 623 159
f 450 114 452
f 92 347 348
f 376 100 375
f 434 118 433
f 503 132 502
f 337 90 336
f 537 536 519
f 395 393 380
f 201 54 200
f 171 44 170
f 355 94 353
f 58 296 213
f 422 420 106
f 595 365 596
f 569 568 570
f 523 140 520
f 114 430 431
f 218 210 57
f 304 566 80
f 639 162 638
f 261 371 72
f 548 147 547
f 498 133 497
f 150 570 564
f 222 224 59
f 142 526 520
f 437 436 435
f 141 522 523
f 137 510 505
f 173 179 176
f 559 149 569
f 121 447 448
f 563 320 300
f 102 395 380
f 257 255 253
f 642 162 641
f 83 311 314
f 216 52 218
f 512 493 513
f 23 304 302
f 91 339 340
f 512 138 612
f 159 620 621
f 218 199 210
f 364 28 575
f 83 318 310
f 168 274 43
f 136 530 528
f 140 523 524
f 495 135 494
f 233 235 234
f 566 563 80
f 25 339 577
f 277 74 276
f 475 462 477
f 133 494 497
f 436 437 116
f 389 386 392
f 548 146 546
f 441 460 5
f 10 309 307
f 65 397 400
f 543 434 544
f 640 641 161
f 272 273 73
f 581 93 346
f 419 421 111
f 319 320 86
f 180 179 178
f 127 475 477
f 231 229 227
f 337 334 340
f 136 508 510
f 308 309 84
f 237 63 234
f 447 554 34
f 252 379 378
f 315 83 314
f 608 622 616
f 338 336 26
f 337 338 89
f 13 275 168
f 209 208 207
f 436 439 117
f 628 312 629
f 360 366 363
f 364 574 96
f 359 361 360
f 466 446 35
f 500 501 134
f 406 109 421
f 135 589 591
f 601 599 602
f 340 90 337
f 481 492 37
f 522 41 524
f 78 316 295
f 131 486 487
f 403 32 414
f 634 626 640
f 151 572 573
f 515 516 138
f 8 252 378
f 265 72 374
f 9 521 519
f 538 549 42
f 368 358 347
f 588 587 586
f 458 453 123
f 589 385 103
f 502 492 481
f 32 416 414
f 430 427 424
f 153 585 587
f 540 144 539
f 370 368 92
f 209 293 58
f 428 33 535
f 326 581 346
f 625 307 82
f 575 28 582
f 6 181 200
f 421 109 420
f 553 121 443
f 160 642 640
f 153 584 585
f 309 432 558
f 334 337 89
f 23 315 313
f 271 163 43
f 296 295 213
f 39 498 496
f 118 439 433
f 531 113 534
f 293 296 58
f 28 362 351
f 489 131 487
f 431 444 452
f 84 558 560
f 98 366 360
f 45 169 170
f 379 101 378
f 462 463 125
f 308 84 314
f 10 432 309
f 299 24 310
f 132 492 502
f 512 387 7
f 639 638 408
f 565 323 86
f 59 244 242
f 106 400 402
f 440 33 426
f 566 565 563
f 617 398 378
f 224 225 59
f 410 109 409
f 239 400 399
f 194 219 53
f 358 22 347
f 610 157 609
f 27 595 603
f 479 484 482
f 142 520 521
f 585 25 577
f 339 578 577
f 408 407 406
f 407 109 406
f 31 408 406
f 407 408 108
f 31 639 408
f 419 31 406
f 608 616 40
f 430 429 431
f 455 35 429
f 35 444 431
f 188 51 187
f 188 182 51
f 51 322 187
f 322 51 319
f 51 182 183
f 319 51 183
f 187 322 321
f 322 319 324
f 381 101 379
f 405 407 108
f 404 405 108
f 286 285 178
f 407 405 409
f 109 407 409
f 191 175 47
f 167 164 170
f 50 184 185
f 44 167 170
f 64 244 236
f 243 244 64
f 50 188 189
f 541 542 145
f 442 445 119
f 339 91 578
f 445 446 119
f 624 623 622
f 611 624 157
f 523 526 141
f 141 527 529
f 527 514 529
f 445 120 444
f 446 445 444
f 35 446 444
f 613 614 158
f 158 614 615
f 623 613 158
f 614 613 391
f 614 612 615
f 371 376 374
f 100 376 371
f 479 482 123
f 373 394 384
f 540 42 634
f 633 540 634
f 538 42 540
f 633 634 161
f 161 634 640
f 42 626 634
f 540 633 144
f 557 556 338
f 553 333 89
f 262 21 264
f 251 21 262
f 5 335 333
f 270 251 262
f 21 251 249
f 600 593 30
f 606 593 600
f 600 30 375
f 593 390 30
f 30 377 375
f 390 388 30
f 30 388 377
f 228 243 241
f 470 478 459
f 470 127 478
f 127 477 478
f 184 186 185
f 478 477 476
f 122 478 476
f 357 74 280
f 518 39 507
f 344 342 85
f 325 344 85
f 342 344 343
f 85 342 321
f 344 90 343
f 90 344 336
f 482 129 481
f 482 481 457
f 482 457 123
f 481 37 457
f 449 447 34
f 435 449 34
f 470 472 471
f 472 470 37
f 470 471 127
f 472 126 471
f 126 468 471
f 470 459 37
f 491 126 472
f 504 129 485
f 221 59 242
f 125 463 465
f 437 34 562
f 561 437 562
f 554 568 562
f 34 554 562
f 437 561 116
f 390 103 389
f 103 386 389
f 392 105 391
f 572 586 580
f 572 580 36
f 586 152 580
f 473 572 36
f 244 243 242
f 225 244 59
f 64 240 241
f 240 239 241
f 237 240 64
f 243 64 241
f 236 237 64
f 411 607 521
f 9 411 521
f 110 607 411
f 607 142 521
f 610 607 110
f 171 15 184
f 171 169 15
f 15 186 184
f 87 584 581
f 153 588 582
f 588 575 582
f 381 102 380
f 573 572 473
f 468 469 128
f 474 468 128
f 469 571 128
f 571 573 128
f 573 473 128
f 473 474 128
f 564 323 565
f 26 323 564
f 323 324 86
f 325 323 26
f 325 324 323
f 563 565 86
f 324 325 85
f 410 230 18
f 230 228 18
f 18 228 241
f 18 241 239
f 401 619 618
f 401 402 107
f 403 402 401
f 619 159 618
f 401 618 32
f 619 401 107
f 403 401 32
f 618 611 32
f 159 624 618
f 478 122 459
f 122 458 459
f 37 459 457
f 459 458 457
f 122 456 458
f 457 458 123
f 191 190 192
f 485 129 484
f 129 482 484
f 483 485 484
f 130 483 484
f 189 187 14
f 191 50 189
f 191 189 175
f 189 14 175
f 14 177 175
f 499 501 500
f 501 499 38
f 38 499 590
f 135 499 500
f 488 501 38
f 499 135 591
f 480 454 4
f 284 12 346
f 4 423 506
f 480 4 506
f 423 531 506
f 480 506 505
f 531 137 506
f 506 137 505
f 365 366 98
f 71 270 262
f 270 71 269
f 71 267 269
f 335 334 333
f 333 334 89
f 334 335 91
f 536 9 519
f 465 463 461
f 537 140 541
f 520 140 519
f 119 446 465
f 465 461 119
f 461 441 119
f 460 441 461
f 176 46 173
f 299 297 24
f 71 263 266
f 263 260 266
f 260 72 266
f 263 70 260
f 205 201 49
f 201 181 49
f 186 205 49
f 181 201 200
f 181 182 49
f 284 77 283
f 586 587 152
f 588 586 151
f 20 267 265
f 266 267 71
f 31 417 631
f 631 417 632
f 31 631 639
f 417 31 419
f 641 631 161
f 417 112 632
f 161 631 632
f 418 417 419
f 417 418 112
f 284 345 77
f 542 550 145
f 542 541 524
f 284 174 12
f 48 174 283
f 373 20 265
f 373 265 374
f 609 608 525
f 608 157 622
f 560 559 313
f 636 637 162
f 541 140 524
f 41 542 524
f 358 357 280
f 70 263 264
f 263 262 264
f 176 177 46
f 174 48 173
f 174 173 172
f 538 551 549
f 538 540 539
f 537 541 539
f 232 221 242
f 17 221 232
f 232 242 62
f 231 232 62
f 203 205 55
f 203 55 202
f 201 205 203
f 202 55 217
f 205 206 55
f 204 203 202
f 73 275 292
f 292 290 73
f 272 290 282
f 290 292 291
f 75 290 291
f 290 75 282
f 70 277 259
f 277 70 281
f 277 281 279
f 260 70 259
f 12 174 172
f 104 396 388
f 367 27 354
f 365 27 367
f 354 27 356
f 365 367 366
f 595 27 365
f 318 299 310
f 155 596 597
f 155 597 598
f 596 594 597
f 595 596 155
f 605 595 155
f 180 47 179
f 180 190 47
f 352 372 11
f 11 372 261
f 312 310 24
f 642 636 162
f 636 297 637
f 367 369 97
f 366 367 97
f 369 367 354
f 369 370 97
f 580 579 464
f 580 152 579
f 579 124 464
f 61 230 409
f 230 410 409
f 230 61 229
f 230 229 228
f 76 285 286
f 353 352 276
f 74 353 276
f 288 76 286
f 288 286 283
f 289 288 287
f 203 54 201
f 287 288 77
f 77 288 283
f 286 48 283
f 531 423 113
f 276 11 259
f 11 261 259
f 277 276 259
f 616 158 615
f 516 616 615
f 138 516 615
f 138 615 612
f 509 533 532
f 503 502 504
f 635 79 294
f 635 294 404
f 635 637 79
f 637 635 638
f 638 635 108
f 635 404 108
f 226 61 405
f 61 226 227
f 405 61 409
f 227 226 207
f 48 178 179
f 48 286 178
f 173 48 179
f 534 143 533
f 534 535 143
f 531 534 533
f 533 143 532
f 137 531 533
f 261 372 371
f 13 180 178
f 285 13 178
f 180 13 166
f 13 168 166
f 346 345 284
f 331 327 46
f 46 327 172
f 172 327 326
f 382 620 101
f 442 121 448
f 443 121 442
f 2 226 404
f 294 2 404
f 404 226 405
f 207 226 2
f 550 551 145
f 552 146 551
f 143 550 532
f 552 550 143
f 330 329 328
f 24 636 629
f 94 352 353
f 352 11 276
f 113 428 534
f 428 535 534
f 509 41 511
f 535 552 143
f 550 552 551
f 550 542 532
f 369 95 368
f 326 327 87
f 87 327 329
f 327 331 329
f 581 326 87
f 293 79 298
f 79 297 298
f 296 298 78
f 79 293 294
f 296 293 298
f 598 490 38
f 358 280 22
f 280 279 278
f 357 358 95
f 74 357 353
f 330 328 25
f 567 23 559
f 590 598 38
f 590 604 598
f 598 604 155
f 604 590 154
f 590 591 154
f 604 154 606
f 297 299 298
f 299 318 78
f 298 299 78
f 355 354 356
f 629 636 642
f 312 24 629
f 629 642 160
f 370 362 97
f 362 363 97
f 363 366 97
f 364 363 362
f 362 370 351
f 96 363 364
f 297 636 24
f 162 637 638
f 637 297 79
f 490 488 38
f 598 597 490
f 441 442 119
f 443 442 441
f 443 441 5
f 442 448 445
f 296 78 295
f 326 12 172
f 575 574 364
f 47 175 176
f 175 177 176
f 47 176 179
