# FEM surface export ¡ª frame 191
# Vertices: 642  Faces: 1280
v -0.52605242 1.67985487 -0.00002138
v 0.52601838 1.67970562 0.00000438
v -0.55853891 0.01153169 0.00151501
v 0.55066448 0.00789578 0.00305435
v -0.00046792 0.30815399 0.86515015
v -0.00010883 1.35527158 0.85151422
v -0.00017157 0.30858174 -0.86691064
v 0.00003002 1.35501063 -0.85126394
v 0.85311747 0.83105808 -0.52729058
v 0.85293221 0.83065468 0.52697927
v -0.85327315 0.83125198 -0.52745241
v -0.85317159 0.83083165 0.52708119
v -0.80976832 1.32928443 0.30935580
v -0.50066906 1.13871086 0.80996627
v -0.30918652 1.63812447 0.50027901
v 0.30923137 1.63817406 0.50031567
v 0.00002766 1.82908189 -0.00001122
v 0.30922455 1.63803828 -0.50028431
v -0.30916637 1.63820863 -0.50030369
v -0.50063276 1.13861501 -0.81008649
v -0.80979890 1.32947743 -0.30931398
v -1.00230312 0.83019453 -0.00007974
v 0.50090235 1.13880444 0.81020039
v 0.80971551 1.32921076 0.30917189
v -0.50490993 0.52431029 0.81692213
v 0.00000317 0.83080351 1.00307906
v -0.82278186 0.33524948 -0.31401101
v -0.82174665 0.33414248 0.31423292
v -0.00011988 0.83121121 -1.00307345
v -0.50361717 0.52382302 -0.81603885
v 0.80968034 1.32927310 -0.30926654
v 0.50047523 1.13852906 -0.80987072
v 0.82454711 0.33391961 0.31410202
v 0.50493723 0.52445358 0.81621140
v 0.32498595 0.03956151 0.52310973
v -0.32301015 0.03933049 0.52204204
v -0.00214561 0.00000000 -0.00153937
v -0.32348058 0.04050126 -0.52281880
v 0.32474500 0.04158058 -0.52290440
v 0.50449908 0.52412975 -0.81591564
v 0.82391459 0.33463421 -0.31453684
v 1.00313377 0.83093941 0.00027134
v -0.69426298 1.53123212 0.16075185
v -0.58820003 1.51743329 0.42564508
v -0.43416506 1.69183326 0.26004466
v -0.70323050 0.99069899 0.69484264
v -0.68885267 1.25466669 0.58831680
v -0.86386925 1.08956242 0.43446290
v -0.16073428 1.52298295 0.70246547
v -0.42570341 1.41707408 0.68871415
v -0.26019281 1.26349866 0.86355567
v -0.16249424 1.78013980 0.26301014
v -0.27336618 1.79101658 0.00001007
v 0.16074519 1.52292323 0.70249879
v 0.00002254 1.67971230 0.52601588
v 0.27341351 1.79099095 0.00000634
v 0.16258386 1.78020704 0.26305190
v 0.43416357 1.69174957 0.26006156
v -0.16251379 1.78013492 -0.26302052
v -0.43411914 1.69185305 -0.26005799
v 0.43414578 1.69171619 -0.26005194
v 0.16255608 1.78014278 -0.26301590
v -0.16065095 1.52285099 -0.70242852
v 0.00006424 1.67974448 -0.52605683
v 0.16079913 1.52280438 -0.70248282
v -0.58816475 1.51744723 -0.42561445
v -0.69421536 1.53122973 -0.16074191
v -0.26014581 1.26328456 -0.86345190
v -0.42559808 1.41706026 -0.68868631
v -0.86395931 1.08974338 -0.43457487
v -0.68880314 1.25482845 -0.58847207
v -0.70326644 0.99067879 -0.69508916
v -0.85144997 1.35510194 0.00003405
v -0.96459228 0.83059216 -0.27411640
v -0.95272303 1.09268475 -0.16274378
v -0.95245260 1.09245110 0.16277437
v -0.96440172 0.83034354 0.27394879
v 0.58818460 1.51725268 0.42556450
v 0.69421053 1.53113472 0.16065072
v 0.26024315 1.26313710 0.86364251
v 0.42562246 1.41699469 0.68870395
v 0.86391950 1.08949006 0.43449625
v 0.68905419 1.25479615 0.58834076
v 0.70344996 0.99056643 0.69474345
v -0.26333144 0.99272144 0.95295531
v -0.00004779 1.10300994 0.96341586
v -0.70622730 0.67159688 0.69735038
v -0.52737749 0.83136433 0.85301274
v -0.00032016 0.55891579 0.96896404
v -0.26420939 0.66968572 0.95629245
v -0.26383331 0.39996952 0.87563336
v -0.95703262 0.56944495 0.16362897
v -0.86843109 0.57220387 0.43672988
v -0.86855745 0.57313174 -0.43706855
v -0.95772767 0.56973928 -0.16388592
v -0.71881598 0.13631445 0.16733350
v -0.86533254 0.30964369 -0.00009361
v -0.71852255 0.13582334 -0.16625141
v -0.52729791 0.83071911 -0.85330820
v -0.70564979 0.67149150 -0.69754994
v -0.00002058 1.10314870 -0.96324801
v -0.26337039 0.99258941 -0.95302147
v -0.26368687 0.39916500 -0.87459469
v -0.26382577 0.66905260 -0.95545465
v 0.00037682 0.55997616 -0.96906179
v 0.42560959 1.41681004 -0.68858951
v 0.26022196 1.26313758 -0.86327404
v 0.69416100 1.53104758 -0.16072848
v 0.58815026 1.51722813 -0.42553577
v 0.70314258 0.99077833 -0.69507307
v 0.68877906 1.25475705 -0.58832079
v 0.86394352 1.08976579 -0.43456927
v 0.72002500 0.13318822 0.16504990
v 0.60976768 0.14839718 0.43975779
v 0.45791209 0.00697179 0.27757415
v 0.70577538 0.67137247 0.69717097
v 0.69744110 0.40802982 0.59641415
v 0.86801744 0.57256019 0.43652037
v 0.16468248 0.14210960 0.72231817
v 0.43395931 0.24637160 0.70449317
v 0.26326808 0.40034401 0.87456363
v 0.17331500 0.00000000 0.28030476
v 0.28836635 0.00000000 -0.00228455
v -0.16492648 0.14248857 0.72027028
v 0.00077900 0.01464225 0.55704677
v -0.29273629 0.00000000 -0.00044575
v -0.17294772 0.00000000 0.27913371
v -0.45570117 0.00283820 0.27130875
v 0.17156334 0.00000000 -0.28107581
v 0.45805866 0.00369060 -0.27217230
v -0.46103737 0.00847941 -0.27756077
v -0.17216748 0.00000000 -0.28006753
v 0.16548549 0.14389376 -0.72613239
v -0.00064660 0.01215798 -0.55432802
v -0.16580014 0.14102656 -0.72477412
v 0.60765010 0.14914186 -0.44009003
v 0.71916032 0.13336535 -0.16746747
v 0.26396617 0.39956820 -0.87406278
v 0.43421614 0.24726190 -0.70394093
v 0.86877286 0.57291287 -0.43676364
v 0.69737369 0.40895554 -0.59584266
v 0.70557773 0.67156667 -0.69741899
v 0.86661237 0.30745611 -0.00092519
v 0.96497220 0.83098793 -0.27406183
v 0.95761913 0.56972462 -0.16343050
v 0.95619655 0.56909513 0.16319536
v 0.96409988 0.83044875 0.27400103
v 0.26393902 0.66938871 0.95577800
v 0.52753139 0.83087426 0.85270423
v 0.26337147 0.99247998 0.95302427
v -0.60511929 0.14833489 0.43931594
v -0.43525517 0.24640492 0.70398724
v -0.69668752 0.40754256 0.59577358
v -0.43717867 0.24628298 -0.70643312
v -0.60849720 0.15011123 -0.43989632
v -0.69745380 0.40834835 -0.59557110
v 0.52707803 0.83077210 -0.85294628
v 0.26429313 0.67009580 -0.95619935
v 0.26343039 0.99268788 -0.95280027
v 0.95231658 1.09249735 0.16278978
v 0.95235473 1.09267068 -0.16258200
v 0.85126799 1.35489428 -0.00001311
v -0.61600685 1.61299229 0.08115866
v -0.57160443 1.62181437 0.21316524
v -0.48470551 1.69406879 0.13127939
v -0.70770723 1.43076956 0.37202352
v -0.64787924 1.53155637 0.29623988
v -0.75925428 1.43604076 0.23729177
v -0.37527660 1.67306709 0.38387933
v -0.51644129 1.61264300 0.34639630
v -0.45426664 1.58713102 0.46878588
v -0.78560030 0.91150934 0.61690861
v -0.79384112 1.04299593 0.57210720
v -0.86656874 0.96129918 0.48530623
v -0.60213023 1.20124400 0.70781475
v -0.70310020 1.12564266 0.64815819
v -0.60764921 1.06690204 0.75951356
v -0.84485561 1.21299279 0.37549022
v -0.78434789 1.17570484 0.51667380
v -0.75861752 1.29771042 0.45435718
v -0.08115545 1.44500101 0.78439718
v -0.21320993 1.40061700 0.79328728
v -0.13137248 1.31392992 0.86582011
v -0.37198514 1.53628016 0.60188562
v -0.29623574 1.47667372 0.70278680
v -0.23722072 1.58776379 0.60716128
v -0.38405380 1.20465386 0.84477389
v -0.34648678 1.34558511 0.78415674
v -0.46889865 1.28340566 0.75862652
v -0.64711106 1.39352691 0.51380932
v -0.56476015 1.34271002 0.64714038
v -0.51374573 1.47582352 0.56466126
v -0.35841012 1.75337970 0.13174431
v -0.40352887 1.74411798 0.00000890
v -0.23875931 1.72013414 0.38642937
v -0.30142072 1.74533737 0.26423633
v -0.13800129 1.81961811 -0.00000243
v -0.22018941 1.79543722 0.13286583
v -0.08224507 1.81681621 0.13312313
v 0.08114601 1.44493127 0.78437692
v 0.00000832 1.53209531 0.71166724
v 0.15652326 1.66921449 0.51951689
v 0.08120425 1.60929418 0.62052506
v 0.23723602 1.58773065 0.60717964
v -0.08114623 1.60929859 0.62054843
v -0.15648542 1.66929400 0.51955545
v 0.40359670 1.74408877 0.00002150
v 0.35844636 1.75334752 0.13175760
v 0.48470384 1.69398344 0.13127217
v 0.08232891 1.81676209 0.13314438
v 0.22027928 1.79551268 0.13289119
v 0.13805535 1.81957626 0.00000706
v 0.37528384 1.67296290 0.38383067
v 0.30148020 1.74536765 0.26427513
v 0.23882243 1.72007430 0.38640970
v -0.08232085 1.74210155 0.39986795
v 0.08236323 1.74202538 0.39978793
v 0.00003652 1.79297662 0.26654571
v -0.35838076 1.75338233 -0.13172890
v -0.48469990 1.69408727 -0.13129339
v -0.08225438 1.81677175 -0.13316101
v -0.22021326 1.79550982 -0.13289629
v -0.37522152 1.67307115 -0.38383719
v -0.30139071 1.74536026 -0.26423800
v -0.23877653 1.72012246 -0.38641065
v 0.48471269 1.69400012 -0.13127604
v 0.35844865 1.75337672 -0.13171981
v 0.23883931 1.72005558 -0.38640460
v 0.30144262 1.74530315 -0.26424059
v 0.37525687 1.67295802 -0.38384023
v 0.22024573 1.79548824 -0.13286841
v 0.08230434 1.81677949 -0.13315777
v -0.08108084 1.44481730 -0.78433383
v 0.00005273 1.53196657 -0.71172011
v 0.08120776 1.44470775 -0.78429604
v -0.15646994 1.66926742 -0.51954281
v -0.08110523 1.60929465 -0.62059569
v -0.23716158 1.58777452 -0.60715771
v 0.23729990 1.58764911 -0.60717839
v 0.08128025 1.60929143 -0.62063724
v 0.15658335 1.66919720 -0.51953471
v 0.00001799 1.79294360 -0.26654556
v 0.08241576 1.74207163 -0.39982152
v -0.08232992 1.74207902 -0.39984250
v -0.57156491 1.62183630 -0.21317866
v -0.61601943 1.61301053 -0.08111990
v -0.45421433 1.58711469 -0.46871343
v -0.51641232 1.61267424 -0.34638497
v -0.75925320 1.43616581 -0.23728132
v -0.64786786 1.53154778 -0.29624310
v -0.70768571 1.43083930 -0.37206391
v -0.13128278 1.31386399 -0.86567277
v -0.21313794 1.40050137 -0.79324657
v -0.46884355 1.28339136 -0.75863355
v -0.34640506 1.34546220 -0.78409445
v -0.38401181 1.20453238 -0.84478813
v -0.29616508 1.47662020 -0.70280355
v -0.37192169 1.53633082 -0.60188818
v -0.86682296 0.96155804 -0.48549622
v -0.79408145 1.04317665 -0.57234561
v -0.78563356 0.91159976 -0.61719298
v -0.75861204 1.29788387 -0.45448950
v -0.78443289 1.17587423 -0.51686478
v -0.84499919 1.21328151 -0.37551731
v -0.60770345 1.06690645 -0.75988746
v -0.70324832 1.12570393 -0.64835709
v -0.60212111 1.20113349 -0.70790797
v -0.51366353 1.47580981 -0.56467503
v -0.56471783 1.34269536 -0.64718527
v -0.64705276 1.39355230 -0.51377648
v -0.70340163 1.54050457 0.00003203
v -0.84101349 1.34868371 -0.15660198
v -0.78082657 1.44950318 -0.08120257
v -0.78080165 1.44947243 0.08121586
v -0.84094715 1.34860504 0.15663640
v -0.91776901 0.83089918 -0.40452814
v -0.92622101 0.96187377 -0.35894966
v -0.98980892 0.96313787 -0.08231957
v -0.96811724 0.96278477 -0.22053660
v -0.99310905 0.83040911 -0.13831952
v -0.91762519 1.09390354 -0.30171987
v -0.89210051 1.21578324 -0.23893566
v -0.92620862 0.96172404 0.35897374
v -0.91769266 0.83066356 0.40457749
v -0.89204502 1.21562743 0.23900586
v -0.91754091 1.09367931 0.30170697
v -0.99305278 0.83030945 0.13827066
v -0.96827465 0.96251231 0.22059578
v -0.98954940 0.96291286 0.08245169
v -0.91420054 1.22918594 -0.08238285
v -0.96548420 1.09615278 0.00011844
v -0.91413081 1.22914803 0.08247737
v 0.57158518 1.62175357 0.21313471
v 0.61595863 1.61286986 0.08108789
v 0.45425937 1.58700466 0.46873569
v 0.51642805 1.61254680 0.34635285
v 0.75917572 1.43592918 0.23717962
v 0.64783674 1.53141427 0.29616955
v 0.70766914 1.43067765 0.37196895
v 0.13133286 1.31385612 0.86590940
v 0.21320263 1.40036750 0.79323190
v 0.46897849 1.28351510 0.75874299
v 0.34643579 1.34533191 0.78414875
v 0.38412955 1.20443940 0.84479547
v 0.29615393 1.47644222 0.70276433
v 0.37195668 1.53617227 0.60186607
v 0.86647546 0.96108174 0.48512706
v 0.79388219 1.04268169 0.57187456
v 0.78566694 0.91148752 0.61678147
v 0.75873065 1.29776919 0.45430648
v 0.78449160 1.17565703 0.51663154
v 0.84484756 1.21297610 0.37536761
v 0.60812449 1.06701934 0.75981313
v 0.70343322 1.12560189 0.64812893
v 0.60248530 1.20140290 0.70797151
v 0.51379782 1.47570562 0.56468070
v 0.56484932 1.34277105 0.64714831
v 0.64714372 1.39349532 0.51370990
v -0.13185212 1.18790519 0.92552477
v -0.00002647 1.23284805 0.91613674
v -0.38676792 1.06864655 0.89238769
v -0.26447955 1.13115668 0.91751373
v -0.00002538 0.96820015 0.99260038
v -0.13299197 1.05004227 0.96797538
v -0.13340650 0.91254234 0.99013251
v -0.78709817 0.75027972 0.61778104
v -0.71357781 0.83105993 0.70482749
v -0.52231371 0.67593634 0.84517276
v -0.62289590 0.75070256 0.78310949
v -0.61145502 0.59597862 0.76443046
v -0.62146747 0.91163987 0.78159302
v -0.52020711 0.98665261 0.84162700
v -0.00006331 0.42956984 0.92530483
v -0.13325113 0.47478616 0.93372083
v -0.13359265 0.34871176 0.87897778
v -0.13345607 0.74897087 0.99137956
v -0.13351716 0.61211586 0.97258782
v -0.00015342 0.69360495 0.99486333
v -0.38859901 0.45856571 0.85373622
v -0.26654366 0.53188986 0.92453939
v -0.38904154 0.59401762 0.89772373
v -0.40072414 0.91280377 0.91519284
v -0.40155098 0.74929106 0.91736919
v -0.26721692 0.83117384 0.96721375
v -0.92820060 0.69980800 0.35978958
v -0.86865824 0.70000321 0.48633119
v -0.99192911 0.69838768 0.08266778
v -0.97041661 0.69862330 0.22105844
v -0.85334432 0.44965166 0.37921470
v -0.92236406 0.56818461 0.30337965
v -0.90012544 0.44715485 0.24129678
v -0.86885136 0.70099741 -0.48690912
v -0.92864293 0.70015126 -0.36017671
v -0.90102047 0.44790679 -0.24123688
v -0.92266458 0.56878370 -0.30353215
v -0.85326135 0.45019007 -0.37915432
v -0.97090805 0.69883347 -0.22137223
v -0.99218631 0.69821131 -0.08279633
v -0.64371389 0.06161172 0.08608259
v -0.72831541 0.12861800 0.00132813
v -0.64474791 0.06382054 -0.08354255
v -0.85463041 0.31636891 0.15930198
v -0.80067271 0.21636009 0.08417384
v -0.77801210 0.22877373 0.24313302
v -0.77621651 0.22912264 -0.24280868
v -0.80071568 0.21527924 -0.08358153
v -0.85458875 0.31546021 -0.15958147
v -0.97069144 0.56615686 0.00005944
v -0.92335361 0.43460086 -0.08343213
v -0.92367303 0.43449825 0.08284139
v -0.71325350 0.83107448 -0.70502388
v -0.78687233 0.75049037 -0.61822927
v -0.52023333 0.98623419 -0.84165120
v -0.62163854 0.91144514 -0.78193372
v -0.61080712 0.59536201 -0.76393819
v -0.62252879 0.75014859 -0.78337765
v -0.52153647 0.67516387 -0.84418041
v 0.00005330 1.23290384 -0.91592407
v -0.13176790 1.18791747 -0.92538583
v -0.13344793 0.91269284 -0.98995137
v -0.13304059 1.05017471 -0.96802276
v -0.00008972 0.96838939 -0.99244183
v -0.26447421 1.13100493 -0.91751176
v -0.38680422 1.06852353 -0.89232171
v -0.13341735 0.34935692 -0.88020742
v -0.13309625 0.47495294 -0.93391323
v 0.00034903 0.43060607 -0.92653358
v -0.38806710 0.59335196 -0.89653313
v -0.26603645 0.53145838 -0.92368579
v -0.38761088 0.45773870 -0.85357046
v 0.00007899 0.69402069 -0.99527562
v -0.13323735 0.61211497 -0.97129858
v -0.13354780 0.74904472 -0.99139756
v -0.40051448 0.91273052 -0.91545993
v -0.26706237 0.83065003 -0.96654630
v -0.40114877 0.74892038 -0.91685557
v 0.21322480 1.40034974 -0.79316866
v 0.13134304 1.31372440 -0.86555696
v 0.37204161 1.53613341 -0.60188967
v 0.29623166 1.47640276 -0.70274907
v 0.38397655 1.20432198 -0.84457362
v 0.34643817 1.34518743 -0.78392303
v 0.46878678 1.28320193 -0.75848424
v 0.61599082 1.61290228 -0.08114716
v 0.57158059 1.62171221 -0.21314414
v 0.70756340 1.43062103 -0.37193140
v 0.64780259 1.53130972 -0.29616356
v 0.75911248 1.43588388 -0.23720804
v 0.51642722 1.61249936 -0.34633011
v 0.45425743 1.58698595 -0.46871912
v 0.78560412 0.91182750 -0.61707437
v 0.79398006 1.04325342 -0.57231194
v 0.86675626 0.96166843 -0.48554605
v 0.60206473 1.20119047 -0.70778489
v 0.70306444 1.12561059 -0.64819646
v 0.60760200 1.06694031 -0.75977319
v 0.84476942 1.21317029 -0.37550133
v 0.78425801 1.17582130 -0.51669806
v 0.75848508 1.29783571 -0.45433313
v 0.51372039 1.47560179 -0.56460142
v 0.64696187 1.39341068 -0.51366740
v 0.56467003 1.34255147 -0.64702737
v 0.64301419 0.06186011 0.08550096
v 0.59791911 0.05329742 0.22177124
v 0.50844854 0.00297570 0.14026527
v 0.72593045 0.23433667 0.38035312
v 0.67048454 0.13436063 0.30469513
v 0.77729595 0.22770542 0.24147826
v 0.40048677 0.01892797 0.40357929
v 0.54274195 0.06410211 0.36284563
v 0.47465855 0.08606996 0.48986202
v 0.78663939 0.75016576 0.61763424
v 0.79768234 0.61933047 0.57454646
v 0.86877269 0.70033973 0.48631933
v 0.60836768 0.46193954 0.71498072
v 0.70836234 0.53691018 0.65259337
v 0.61130220 0.59575725 0.76389188
v 0.85200280 0.44998705 0.37892503
v 0.79045683 0.48712382 0.52078223
v 0.76962155 0.36472684 0.46165958
v 0.08228540 0.21938434 0.80163312
v 0.21629946 0.26300383 0.80888867
v 0.13291614 0.34997860 0.87853253
v 0.38258344 0.12894531 0.62155783
v 0.30355984 0.18841809 0.72138780
v 0.24640092 0.08290402 0.63032681
v 0.38807571 0.45853218 0.85381228
v 0.35165322 0.31768319 0.79796594
v 0.47469628 0.37965819 0.76877213
v 0.66079670 0.26982340 0.52480245
v 0.57385784 0.32066980 0.65855372
v 0.52731019 0.19025643 0.58211243
v 0.37763411 0.00000000 0.13773870
v 0.42376643 0.00000000 -0.00079729
v 0.25385857 0.00000000 0.40951794
v 0.32107472 0.00000000 0.27918601
v 0.14510302 0.00000000 -0.00196510
v 0.23003560 0.00000000 0.14048687
v 0.08751496 0.00000000 0.14024103
v -0.08362009 0.21867102 0.80153024
v 0.00039662 0.13363396 0.73102915
v -0.16255702 0.01611912 0.54685253
v -0.08559665 0.06185601 0.64642382
v -0.24571744 0.08457784 0.62854952
v 0.08589200 0.05967811 0.64688367
v 0.16504514 0.01471112 0.54622275
v -0.42668781 0.00000000 -0.00363626
v -0.38351613 0.00000000 0.14127551
v -0.51494104 0.00185202 0.13952176
v -0.08962762 0.00000000 0.13924950
v -0.23732290 0.00000000 0.14419894
v -0.14932063 0.00000000 0.00196373
v -0.39528805 0.01475167 0.40378678
v -0.32143593 0.00000000 0.28205422
v -0.25187337 0.00000000 0.40932566
v 0.08506174 0.00000000 0.42393461
v -0.08776802 0.00000000 0.42560270
v -0.00155775 0.00000000 0.28153980
v 0.37856498 0.00000000 -0.14122111
v 0.51004606 0.00416926 -0.13762631
v 0.08861346 0.00000000 -0.14283796
v 0.23312750 0.00000000 -0.14219557
v 0.39685550 0.01470798 -0.40429598
v 0.31599727 0.00000000 -0.28236362
v 0.25139228 0.00000000 -0.40987951
v -0.51360863 0.00603271 -0.13951604
v -0.38173014 0.00000000 -0.14389428
v -0.24919693 0.00000000 -0.40941054
v -0.32177231 0.00000000 -0.28140411
v -0.39220184 0.01438408 -0.40452623
v -0.23671257 0.00000000 -0.14227214
v -0.08845820 0.00000000 -0.14399017
v 0.08188207 0.22047795 -0.80294490
v -0.00116491 0.13284244 -0.73428601
v -0.08358585 0.21948712 -0.80210388
v 0.16555147 0.01301451 -0.54691291
v 0.08522354 0.06618108 -0.64543521
v 0.24509759 0.08231953 -0.63325000
v -0.24785987 0.08664992 -0.63114554
v -0.08518679 0.05987209 -0.64771563
v -0.16253097 0.01899054 -0.54538989
v 0.00422341 0.00000000 -0.28445691
v -0.08196548 0.00000000 -0.42167807
v 0.08960371 0.00000000 -0.42200774
v 0.59994566 0.05228334 -0.22311385
v 0.64375865 0.05728753 -0.08361180
v 0.47388169 0.08424192 -0.48733261
v 0.53779811 0.05980931 -0.35953712
v 0.77858758 0.22883525 -0.24324988
v 0.67054069 0.13492107 -0.30731377
v 0.72498959 0.23458070 -0.38086960
v 0.13404153 0.34979731 -0.88090301
v 0.21717373 0.26387358 -0.81005329
v 0.47511157 0.37946245 -0.76863801
v 0.35181785 0.31840017 -0.79740393
v 0.38815361 0.45832688 -0.85289621
v 0.30395749 0.18922628 -0.72193801
v 0.38193172 0.12934090 -0.62163937
v 0.86892438 0.70079929 -0.48658341
v 0.79738039 0.61981815 -0.57471126
v 0.78694850 0.75076509 -0.61814284
v 0.76969355 0.36612380 -0.46165687
v 0.79107875 0.48760086 -0.52130365
v 0.85371864 0.45004362 -0.37941775
v 0.61089951 0.59547859 -0.76376265
v 0.70797354 0.53715205 -0.65263563
v 0.60756731 0.46187386 -0.71444541
v 0.52576518 0.18905136 -0.58060050
v 0.57400477 0.32096639 -0.65828729
v 0.65974009 0.27133027 -0.52475345
v 0.72855419 0.12479788 -0.00172976
v 0.85617000 0.31457230 -0.15947533
v 0.80072427 0.21354441 -0.08431713
v 0.80214232 0.21378943 0.08163793
v 0.85580277 0.31356314 0.15808304
v 0.91781050 0.83108616 -0.40459350
v 0.92853785 0.69995964 -0.35969311
v 0.99183798 0.69883978 -0.08230890
v 0.97085643 0.69897872 -0.22097223
v 0.99356258 0.83119607 -0.13814272
v 0.92294776 0.56823063 -0.30334702
v 0.90157408 0.44718632 -0.24140798
v 0.92784274 0.69953561 0.35951114
v 0.91725236 0.83038747 0.40423006
v 0.89972317 0.44707933 0.24032214
v 0.92160481 0.56767076 0.30282402
v 0.99308342 0.83072460 0.13874716
v 0.96978813 0.69839716 0.22088373
v 0.99202234 0.69849449 0.08289567
v 0.92420143 0.43370944 -0.08363419
v 0.96984190 0.56609464 0.00004942
v 0.92319500 0.43329677 0.08238959
v 0.13275494 0.47520828 0.93395489
v 0.38852406 0.59400290 0.89655793
v 0.26613379 0.53194600 0.92386234
v 0.13346834 0.61196971 0.97233468
v 0.13343845 0.74877131 0.99107862
v 0.71336412 0.83094335 0.70443934
v 0.52079171 0.98668540 0.84186137
v 0.62180233 0.91140938 0.78151697
v 0.62283689 0.75041175 0.78280401
v 0.52202499 0.67566353 0.84462082
v 0.13172850 1.18754578 0.92542815
v 0.13337725 0.91240579 0.99007446
v 0.13291892 1.04986489 0.96812260
v 0.26447281 1.13091516 0.91775066
v 0.38690284 1.06848872 0.89232588
v 0.40084764 0.74885577 0.91573942
v 0.40090513 0.91286284 0.91556495
v 0.26710853 0.83051366 0.96641934
v -0.59821963 0.05373523 0.22517833
v -0.47143835 0.08226523 0.48889399
v -0.53878409 0.05925472 0.36348087
v -0.67029387 0.13580434 0.30788839
v -0.72300869 0.23348790 0.38188064
v -0.21833001 0.26401448 0.81039596
v -0.47622716 0.37999430 0.76998776
v -0.35315570 0.31865883 0.79845774
v -0.30425161 0.18932384 0.72242171
v -0.38432768 0.13107054 0.62264234
v -0.79736811 0.61920124 0.57457650
v -0.76919782 0.36511049 0.46132764
v -0.79113734 0.48658654 0.52157372
v -0.70864832 0.53692544 0.65319586
v -0.60854036 0.46198067 0.71618277
v -0.52847236 0.18966869 0.57974893
v -0.57474673 0.32045677 0.65943199
v -0.65835661 0.26974532 0.52397436
v -0.21782905 0.26351655 -0.80883443
v -0.38596845 0.13209885 -0.62314397
v -0.30649889 0.18655549 -0.72416496
v -0.35260329 0.31755993 -0.79740399
v -0.47555912 0.37994158 -0.76904440
v -0.59852266 0.05577426 -0.22293027
v -0.72501385 0.23428100 -0.38092780
v -0.66932952 0.13549657 -0.30702883
v -0.53840882 0.06018614 -0.36426798
v -0.47163698 0.08343522 -0.48926523
v -0.79747146 0.61955994 -0.57486683
v -0.60744357 0.46224222 -0.71440947
v -0.70855641 0.53679824 -0.65335709
v -0.79122961 0.48740906 -0.52129179
v -0.76900107 0.36623907 -0.46050221
v -0.52881151 0.18895489 -0.58035946
v -0.66070920 0.27024621 -0.52494180
v -0.57437617 0.32095304 -0.65847009
v 0.71337086 0.83116275 -0.70512331
v 0.52183920 0.67562485 -0.84434700
v 0.62252998 0.75047368 -0.78326678
v 0.62146991 0.91162735 -0.78191316
v 0.52004868 0.98644882 -0.84156567
v 0.13342942 0.47563827 -0.93440497
v 0.13352647 0.74934399 -0.99163657
v 0.13377790 0.61269301 -0.97288162
v 0.26660234 0.53206849 -0.92442560
v 0.38895592 0.59401631 -0.89700311
v 0.13186701 1.18780482 -0.92523253
v 0.38675338 1.06840754 -0.89207095
v 0.26448721 1.13082159 -0.91712785
v 0.13306218 1.05025315 -0.96793866
v 0.13322863 0.91291863 -0.99007523
v 0.40122202 0.74923688 -0.91644096
v 0.26714644 0.83115649 -0.96655244
v 0.40046281 0.91257954 -0.91471016
v 0.92587233 0.96151489 0.35885563
v 0.98968303 0.96329021 0.08275547
v 0.96799302 0.96270102 0.22062263
v 0.91752696 1.09372759 0.30172604
v 0.89197040 1.21560693 0.23889916
v 0.92625231 0.96193939 -0.35896122
v 0.89189857 1.21566772 -0.23894496
v 0.91771197 1.09399498 -0.30170977
v 0.96838939 0.96304965 -0.22054513
v 0.98977852 0.96347219 -0.08216307
v 0.70338184 1.54036379 -0.00006725
v 0.84088594 1.34847796 0.15651879
v 0.78075713 1.44935429 0.08115403
v 0.78065681 1.44925249 -0.08120092
v 0.84077156 1.34842896 -0.15652511
v 0.96521860 1.09620368 0.00011616
v 0.91376162 1.22897041 -0.08239353
v 0.91391557 1.22897494 0.08243468
f 330 87 329
f 336 325 26
f 207 208 56
f 464 36 580
f 502 129 504
f 157 624 622
f 308 311 82
f 247 223 248
f 507 483 508
f 331 88 329
f 494 500 497
f 156 601 602
f 591 589 592
f 365 98 596
f 75 281 282
f 152 587 577
f 149 559 560
f 555 121 553
f 530 141 529
f 515 517 139
f 361 594 98
f 250 67 249
f 157 608 609
f 294 293 209
f 317 81 316
f 557 338 26
f 303 305 81
f 530 529 528
f 101 381 382
f 415 418 111
f 192 184 50
f 412 110 411
f 20 384 256
f 131 594 486
f 281 264 282
f 347 287 348
f 28 349 582
f 165 163 1
f 248 250 66
f 617 107 398
f 273 271 274
f 456 115 453
f 558 561 560
f 335 576 91
f 331 177 332
f 116 433 436
f 351 370 92
f 136 511 530
f 239 240 65
f 247 258 19
f 304 23 567
f 148 557 570
f 214 208 58
f 440 426 450
f 268 270 269
f 258 247 268
f 204 202 16
f 466 125 465
f 517 513 133
f 168 275 274
f 275 73 274
f 198 193 53
f 309 308 307
f 510 511 136
f 415 416 110
f 131 490 597
f 473 475 474
f 414 415 111
f 493 495 494
f 496 504 485
f 433 116 432
f 600 375 601
f 240 234 65
f 418 415 412
f 486 361 3
f 567 566 304
f 380 393 29
f 17 199 197
f 491 492 132
f 451 449 435
f 218 217 216
f 623 621 613
f 396 104 395
f 433 439 436
f 628 160 627
f 215 202 217
f 209 207 2
f 427 113 424
f 434 10 544
f 434 433 432
f 199 17 210
f 150 564 565
f 489 491 132
f 275 13 285
f 497 500 134
f 125 466 476
f 578 152 577
f 208 214 211
f 328 88 343
f 356 27 603
f 150 566 567
f 372 100 371
f 190 191 47
f 235 8 398
f 260 261 72
f 422 403 414
f 422 414 111
f 453 454 123
f 349 583 582
f 521 520 519
f 425 453 115
f 616 622 158
f 483 130 508
f 151 586 572
f 212 17 232
f 400 397 402
f 377 396 99
f 41 522 511
f 510 508 505
f 549 547 42
f 475 473 36
f 510 137 509
f 222 221 197
f 430 115 429
f 220 194 1
f 305 54 204
f 621 29 613
f 192 171 184
f 460 335 5
f 88 331 332
f 74 277 279
f 300 301 80
f 390 389 388
f 165 45 164
f 146 549 551
f 291 278 75
f 448 120 445
f 147 543 544
f 607 610 609
f 603 602 356
f 139 529 514
f 333 553 443
f 92 368 347
f 261 260 259
f 300 6 200
f 46 177 331
f 284 283 174
f 301 300 200
f 471 468 474
f 54 305 301
f 302 304 303
f 569 150 567
f 150 569 570
f 294 209 2
f 628 629 160
f 548 543 147
f 147 625 627
f 63 233 234
f 426 427 114
f 41 509 532
f 198 52 196
f 614 105 612
f 147 627 547
f 81 305 306
f 549 548 547
f 54 301 200
f 342 88 332
f 264 281 70
f 193 194 53
f 455 429 456
f 187 321 14
f 479 130 484
f 147 544 625
f 458 456 453
f 304 80 303
f 314 84 313
f 488 503 501
f 321 332 14
f 423 425 424
f 305 204 306
f 341 339 25
f 514 40 516
f 625 628 627
f 340 339 341
f 105 614 391
f 243 228 62
f 318 316 78
f 75 278 279
f 357 355 353
f 238 257 63
f 466 455 476
f 425 423 4
f 448 449 120
f 408 638 108
f 292 275 285
f 22 278 289
f 515 513 517
f 501 503 134
f 622 623 158
f 134 503 504
f 195 216 206
f 163 271 246
f 619 617 620
f 62 228 229
f 163 165 164
f 453 425 454
f 489 132 488
f 82 628 625
f 58 208 209
f 525 608 40
f 626 547 627
f 518 517 498
f 489 487 491
f 557 26 564
f 325 336 344
f 541 145 539
f 40 616 516
f 338 556 89
f 250 248 245
f 139 514 515
f 98 594 596
f 246 220 1
f 112 413 630
f 9 536 413
f 156 600 601
f 332 177 14
f 321 342 332
f 156 606 600
f 584 330 585
f 302 303 81
f 584 87 330
f 330 25 585
f 400 239 65
f 439 440 117
f 95 358 368
f 597 594 131
f 594 361 486
f 246 67 245
f 561 562 149
f 28 364 362
f 55 216 217
f 427 430 114
f 267 20 254
f 556 555 553
f 84 309 558
f 311 310 312
f 609 525 142
f 256 68 255
f 124 460 461
f 82 311 312
f 307 308 82
f 589 135 495
f 527 40 514
f 112 418 412
f 20 256 254
f 258 238 19
f 267 254 269
f 273 272 249
f 392 391 393
f 137 533 509
f 122 455 456
f 9 413 411
f 130 480 505
f 333 443 5
f 527 525 40
f 589 495 385
f 39 496 485
f 223 225 224
f 414 416 415
f 219 222 53
f 145 538 539
f 413 412 411
f 469 468 467
f 183 181 6
f 191 192 50
f 429 35 431
f 292 285 76
f 413 112 412
f 415 110 412
f 43 164 167
f 467 468 126
f 617 101 620
f 450 451 117
f 438 546 545
f 619 620 159
f 17 212 210
f 124 579 576
f 584 153 583
f 460 124 576
f 3 469 467
f 311 308 314
f 6 320 183
f 389 104 388
f 251 250 249
f 194 165 1
f 291 289 278
f 287 77 348
f 238 258 257
f 139 517 518
f 238 236 19
f 223 247 19
f 382 380 29
f 39 518 498
f 361 359 3
f 69 255 257
f 139 518 528
f 33 545 535
f 387 385 7
f 69 268 269
f 477 462 125
f 454 479 123
f 121 555 447
f 451 435 117
f 454 425 4
f 233 252 8
f 124 463 464
f 69 258 268
f 168 167 166
f 583 153 582
f 384 394 102
f 138 512 513
f 57 210 211
f 254 256 255
f 607 609 142
f 324 319 86
f 289 291 76
f 291 292 76
f 384 102 383
f 422 421 420
f 221 17 197
f 383 102 381
f 376 377 99
f 99 373 374
f 386 105 392
f 438 33 440
f 90 341 343
f 281 75 279
f 574 571 96
f 628 82 312
f 221 222 59
f 127 471 474
f 595 605 603
f 551 538 145
f 334 91 340
f 322 324 85
f 305 303 301
f 18 239 399
f 306 204 16
f 199 198 197
f 166 190 180
f 303 80 301
f 267 266 265
f 626 42 547
f 16 215 213
f 349 351 350
f 295 16 213
f 68 379 252
f 250 251 66
f 627 160 626
f 383 68 256
f 343 88 342
f 507 508 136
f 202 215 16
f 197 198 53
f 254 69 269
f 603 605 156
f 418 419 111
f 384 383 256
f 455 122 476
f 203 204 54
f 556 557 148
f 255 68 253
f 313 84 560
f 25 328 341
f 254 255 69
f 603 156 602
f 581 584 583
f 630 632 112
f 163 246 1
f 246 245 220
f 432 116 558
f 499 591 590
f 320 563 86
f 345 93 350
f 306 16 295
f 346 93 345
f 562 568 149
f 604 605 155
f 154 592 593
f 545 552 535
f 511 522 530
f 574 573 571
f 566 150 565
f 361 98 360
f 67 271 273
f 234 235 65
f 208 211 56
f 574 151 573
f 251 270 66
f 398 8 378
f 213 215 214
f 438 440 439
f 315 314 313
f 263 71 262
f 20 373 384
f 496 134 504
f 329 88 328
f 81 306 316
f 555 556 148
f 592 589 103
f 617 619 107
f 227 207 56
f 571 359 96
f 446 466 465
f 206 216 55
f 359 571 469
f 568 148 570
f 34 437 435
f 28 351 349
f 21 272 282
f 113 423 424
f 490 489 488
f 379 68 383
f 210 212 211
f 80 563 300
f 351 92 350
f 326 346 12
f 83 317 318
f 555 148 554
f 212 231 56
f 218 57 217
f 271 67 246
f 195 196 52
f 270 268 66
f 390 592 103
f 148 568 554
f 495 493 7
f 592 390 593
f 357 95 355
f 574 575 151
f 452 120 451
f 154 591 592
f 587 585 577
f 395 394 396
f 93 349 350
f 610 416 611
f 166 44 190
f 315 23 302
f 315 302 317
f 268 247 66
f 606 154 593
f 396 394 99
f 211 212 56
f 370 369 368
f 235 397 65
f 280 278 22
f 83 315 317
f 575 588 151
f 74 279 280
f 385 495 7
f 63 257 253
f 397 235 398
f 214 58 213
f 220 219 194
f 546 146 545
f 236 225 19
f 599 94 602
f 235 233 8
f 102 394 395
f 611 416 32
f 225 223 19
f 139 528 529
f 231 62 229
f 419 406 421
f 451 450 452
f 49 182 185
f 402 397 107
f 52 199 218
f 416 610 110
f 225 236 244
f 107 397 398
f 68 252 253
f 322 85 321
f 182 181 183
f 118 438 439
f 546 438 118
f 348 77 345
f 543 546 118
f 231 212 232
f 610 611 157
f 33 438 545
f 385 386 103
f 479 480 130
f 169 195 15
f 93 583 349
f 15 195 206
f 190 44 192
f 247 248 66
f 146 552 545
f 248 60 245
f 570 557 564
f 274 271 43
f 63 253 233
f 272 21 249
f 507 528 518
f 67 273 249
f 487 467 126
f 196 195 169
f 624 159 623
f 134 496 497
f 132 503 488
f 104 393 395
f 556 553 89
f 355 356 94
f 258 69 257
f 229 61 227
f 56 231 227
f 460 576 335
f 463 124 461
f 394 373 99
f 29 393 391
f 67 250 245
f 193 198 196
f 462 36 464
f 144 633 630
f 141 526 527
f 517 133 498
f 536 144 630
f 100 372 599
f 144 536 537
f 22 289 287
f 578 579 152
f 579 578 576
f 189 188 187
f 60 223 224
f 92 348 350
f 555 554 447
f 396 377 388
f 194 193 165
f 413 536 630
f 372 352 599
f 377 376 375
f 348 345 350
f 105 386 387
f 240 237 234
f 463 462 464
f 135 500 494
f 45 196 169
f 512 612 387
f 245 60 220
f 429 115 456
f 223 60 248
f 288 289 76
f 525 526 142
f 100 599 601
f 613 29 391
f 526 523 520
f 341 328 343
f 631 641 639
f 264 21 282
f 266 72 265
f 106 402 403
f 73 273 274
f 186 206 205
f 381 379 383
f 52 216 195
f 410 18 399
f 290 272 73
f 72 371 374
f 526 525 527
f 115 430 424
f 498 497 496
f 621 382 29
f 543 118 434
f 214 215 57
f 522 141 530
f 511 510 509
f 352 94 599
f 493 512 7
f 90 340 341
f 169 171 170
f 605 604 606
f 219 60 224
f 104 389 392
f 359 469 3
f 186 49 185
f 222 219 224
f 166 167 44
f 428 427 426
f 523 522 524
f 129 502 481
f 50 185 188
f 164 45 170
f 425 115 424
f 33 428 426
f 427 428 113
f 94 356 602
f 515 138 513
f 114 431 452
f 237 236 238
f 215 217 57
f 95 354 355
f 220 60 219
f 515 514 516
f 183 320 319
f 222 197 53
f 559 569 567
f 300 320 6
f 435 436 117
f 96 360 363
f 640 642 641
f 242 243 62
f 140 537 519
f 508 130 505
f 420 410 399
f 537 539 144
f 317 316 318
f 426 114 450
f 186 15 206
f 311 83 310
f 625 544 307
f 544 10 307
f 168 43 167
f 185 182 188
f 369 354 95
f 44 171 192
f 605 606 156
f 548 549 146
f 100 601 375
f 149 568 569
f 381 380 382
f 455 466 35
f 480 479 454
f 543 548 546
f 493 133 513
f 492 472 37
f 477 125 476
f 491 487 126
f 337 336 338
f 588 153 587
f 576 578 91
f 633 161 632
f 96 359 360
f 39 485 483
f 101 617 378
f 193 45 165
f 163 164 43
f 618 624 611
f 507 136 528
f 561 149 560
f 641 162 639
f 116 561 558
f 494 133 493
f 253 252 233
f 63 237 238
f 392 393 104
f 440 450 117
f 93 581 583
f 386 385 387
f 120 449 451
f 421 422 111
f 486 3 467
f 302 81 317
f 633 632 630
f 462 475 36
f 376 99 374
f 489 490 131
f 447 449 448
f 387 612 105
f 106 420 399
f 173 46 172
f 492 491 472
f 316 306 295
f 22 287 347
f 109 410 420
f 507 39 483
f 559 23 313
f 214 57 211
f 196 45 193
f 10 434 432
f 422 106 403
f 626 160 640
f 487 486 467
f 542 41 532
f 400 106 399
f 444 120 452
f 198 199 52
f 475 127 474
f 621 620 382
f 621 623 159
f 450 114 452
f 92 347 348
f 376 100 375
f 434 118 433
f 503 132 502
f 337 90 336
f 537 536 519
f 395 393 380
f 201 54 200
f 171 44 170
f 355 94 353
f 58 296 213
f 422 420 106
f 595 365 596
f 569 568 570
f 523 140 520
f 114 430 431
f 218 210 57
f 304 566 80
f 639 162 638
f 261 371 72
f 548 147 547
f 498 133 497
f 150 570 564
f 222 224 59
f 142 526 520
f 437 436 435
f 141 522 523
f 137 510 505
f 173 179 176
f 559 149 569
f 121 447 448
f 563 320 300
f 102 395 380
f 257 255 253
f 642 162 641
f 83 311 314
f 216 52 218
f 512 493 513
f 23 304 302
f 91 339 340
f 512 138 612
f 159 620 621
f 218 199 210
f 364 28 575
f 83 318 310
f 168 274 43
f 136 530 528
f 140 523 524
f 495 135 494
f 233 235 234
f 566 563 80
f 25 339 577
f 277 74 276
f 475 462 477
f 133 494 497
f 436 437 116
f 389 386 392
f 548 146 546
f 441 460 5
f 10 309 307
f 65 397 400
f 543 434 544
f 640 641 161
f 272 273 73
f 581 93 346
f 419 421 111
f 319 320 86
f 180 179 178
f 127 475 477
f 231 229 227
f 337 334 340
f 136 508 510
f 308 309 84
f 237 63 234
f 447 554 34
f 252 379 378
f 315 83 314
f 608 622 616
f 338 336 26
f 337 338 89
f 13 275 168
f 209 208 207
f 436 439 117
f 628 312 629
f 360 366 363
f 364 574 96
f 359 361 360
f 466 446 35
f 500 501 134
f 406 109 421
f 135 589 591
f 601 599 602
f 340 90 337
f 481 492 37
f 522 41 524
f 78 316 295
f 131 486 487
f 403 32 414
f 634 626 640
f 151 572 573
f 515 516 138
f 8 252 378
f 265 72 374
f 9 521 519
f 538 549 42
f 368 358 347
f 588 587 586
f 458 453 123
f 589 385 103
f 502 492 481
f 32 416 414
f 430 427 424
f 153 585 587
f 540 144 539
f 370 368 92
f 209 293 58
f 428 33 535
f 326 581 346
f 625 307 82
f 575 28 582
f 6 181 200
f 421 109 420
f 553 121 443
f 160 642 640
f 153 584 585
f 309 432 558
f 334 337 89
f 23 315 313
f 271 163 43
f 296 295 213
f 39 498 496
f 118 439 433
f 531 113 534
f 293 296 58
f 28 362 351
f 489 131 487
f 431 444 452
f 84 558 560
f 98 366 360
f 45 169 170
f 379 101 378
f 462 463 125
f 308 84 314
f 10 432 309
f 299 24 310
f 132 492 502
f 512 387 7
f 639 638 408
f 565 323 86
f 59 244 242
f 106 400 402
f 440 33 426
f 566 565 563
f 617 398 378
f 224 225 59
f 410 109 409
f 239 400 399
f 194 219 53
f 358 22 347
f 610 157 609
f 27 595 603
f 479 484 482
f 142 520 521
f 585 25 577
f 339 578 577
f 408 407 406
f 407 109 406
f 31 408 406
f 407 408 108
f 31 639 408
f 419 31 406
f 608 616 40
f 430 429 431
f 455 35 429
f 35 444 431
f 188 51 187
f 188 182 51
f 51 322 187
f 322 51 319
f 51 182 183
f 319 51 183
f 187 322 321
f 322 319 324
f 381 101 379
f 405 407 108
f 404 405 108
f 286 285 178
f 407 405 409
f 109 407 409
f 191 175 47
f 167 164 170
f 50 184 185
f 44 167 170
f 64 244 236
f 243 244 64
f 50 188 189
f 541 542 145
f 442 445 119
f 339 91 578
f 445 446 119
f 624 623 622
f 611 624 157
f 523 526 141
f 141 527 529
f 527 514 529
f 445 120 444
f 446 445 444
f 35 446 444
f 613 614 158
f 158 614 615
f 623 613 158
f 614 613 391
f 614 612 615
f 371 376 374
f 100 376 371
f 479 482 123
f 373 394 384
f 540 42 634
f 633 540 634
f 538 42 540
f 633 634 161
f 161 634 640
f 42 626 634
f 540 633 144
f 557 556 338
f 553 333 89
f 262 21 264
f 251 21 262
f 5 335 333
f 270 251 262
f 21 251 249
f 600 593 30
f 606 593 600
f 600 30 375
f 593 390 30
f 30 377 375
f 390 388 30
f 30 388 377
f 228 243 241
f 470 478 459
f 470 127 478
f 127 477 478
f 184 186 185
f 478 477 476
f 122 478 476
f 357 74 280
f 518 39 507
f 344 342 85
f 325 344 85
f 342 344 343
f 85 342 321
f 344 90 343
f 90 344 336
f 482 129 481
f 482 481 457
f 482 457 123
f 481 37 457
f 449 447 34
f 435 449 34
f 470 472 471
f 472 470 37
f 470 471 127
f 472 126 471
f 126 468 471
f 470 459 37
f 491 126 472
f 504 129 485
f 221 59 242
f 125 463 465
f 437 34 562
f 561 437 562
f 554 568 562
f 34 554 562
f 437 561 116
f 390 103 389
f 103 386 389
f 392 105 391
f 572 586 580
f 572 580 36
f 586 152 580
f 473 572 36
f 244 243 242
f 225 244 59
f 64 240 241
f 240 239 241
f 237 240 64
f 243 64 241
f 236 237 64
f 411 607 521
f 9 411 521
f 110 607 411
f 607 142 521
f 610 607 110
f 171 15 184
f 171 169 15
f 15 186 184
f 87 584 581
f 153 588 582
f 588 575 582
f 381 102 380
f 573 572 473
f 468 469 128
f 474 468 128
f 469 571 128
f 571 573 128
f 573 473 128
f 473 474 128
f 564 323 565
f 26 323 564
f 323 324 86
f 325 323 26
f 325 324 323
f 563 565 86
f 324 325 85
f 410 230 18
f 230 228 18
f 18 228 241
f 18 241 239
f 401 619 618
f 401 402 107
f 403 402 401
f 619 159 618
f 401 618 32
f 619 401 107
f 403 401 32
f 618 611 32
f 159 624 618
f 478 122 459
f 122 458 459
f 37 459 457
f 459 458 457
f 122 456 458
f 457 458 123
f 191 190 192
f 485 129 484
f 129 482 484
f 483 485 484
f 130 483 484
f 189 187 14
f 191 50 189
f 191 189 175
f 189 14 175
f 14 177 175
f 499 501 500
f 501 499 38
f 38 499 590
f 135 499 500
f 488 501 38
f 499 135 591
f 480 454 4
f 284 12 346
f 4 423 506
f 480 4 506
f 423 531 506
f 480 506 505
f 531 137 506
f 506 137 505
f 365 366 98
f 71 270 262
f 270 71 269
f 71 267 269
f 335 334 333
f 333 334 89
f 334 335 91
f 536 9 519
f 465 463 461
f 537 140 541
f 520 140 519
f 119 446 465
f 465 461 119
f 461 441 119
f 460 441 461
f 176 46 173
f 299 297 24
f 71 263 266
f 263 260 266
f 260 72 266
f 263 70 260
f 205 201 49
f 201 181 49
f 186 205 49
f 181 201 200
f 181 182 49
f 284 77 283
f 586 587 152
f 588 586 151
f 20 267 265
f 266 267 71
f 31 417 631
f 631 417 632
f 31 631 639
f 417 31 419
f 641 631 161
f 417 112 632
f 161 631 632
f 418 417 419
f 417 418 112
f 284 345 77
f 542 550 145
f 542 541 524
f 284 174 12
f 48 174 283
f 373 20 265
f 373 265 374
f 609 608 525
f 608 157 622
f 560 559 313
f 636 637 162
f 541 140 524
f 41 542 524
f 358 357 280
f 70 263 264
f 263 262 264
f 176 177 46
f 174 48 173
f 174 173 172
f 538 551 549
f 538 540 539
f 537 541 539
f 232 221 242
f 17 221 232
f 232 242 62
f 231 232 62
f 203 205 55
f 203 55 202
f 201 205 203
f 202 55 217
f 205 206 55
f 204 203 202
f 73 275 292
f 292 290 73
f 272 290 282
f 290 292 291
f 75 290 291
f 290 75 282
f 70 277 259
f 277 70 281
f 277 281 279
f 260 70 259
f 12 174 172
f 104 396 388
f 367 27 354
f 365 27 367
f 354 27 356
f 365 367 366
f 595 27 365
f 318 299 310
f 155 596 597
f 155 597 598
f 596 594 597
f 595 596 155
f 605 595 155
f 180 47 179
f 180 190 47
f 352 372 11
f 11 372 261
f 312 310 24
f 642 636 162
f 636 297 637
f 367 369 97
f 366 367 97
f 369 367 354
f 369 370 97
f 580 579 464
f 580 152 579
f 579 124 464
f 61 230 409
f 230 410 409
f 230 61 229
f 230 229 228
f 76 285 286
f 353 352 276
f 74 353 276
f 288 76 286
f 288 286 283
f 289 288 287
f 203 54 201
f 287 288 77
f 77 288 283
f 286 48 283
f 531 423 113
f 276 11 259
f 11 261 259
f 277 276 259
f 616 158 615
f 516 616 615
f 138 516 615
f 138 615 612
f 509 533 532
f 503 502 504
f 635 79 294
f 635 294 404
f 635 637 79
f 637 635 638
f 638 635 108
f 635 404 108
f 226 61 405
f 61 226 227
f 405 61 409
f 227 226 207
f 48 178 179
f 48 286 178
f 173 48 179
f 534 143 533
f 534 535 143
f 531 534 533
f 533 143 532
f 137 531 533
f 261 372 371
f 13 180 178
f 285 13 178
f 180 13 166
f 13 168 166
f 346 345 284
f 331 327 46
f 46 327 172
f 172 327 326
f 382 620 101
f 442 121 448
f 443 121 442
f 2 226 404
f 294 2 404
f 404 226 405
f 207 226 2
f 550 551 145
f 552 146 551
f 143 550 532
f 552 550 143
f 330 329 328
f 24 636 629
f 94 352 353
f 352 11 276
f 113 428 534
f 428 535 534
f 509 41 511
f 535 552 143
f 550 552 551
f 550 542 532
f 369 95 368
f 326 327 87
f 87 327 329
f 327 331 329
f 581 326 87
f 293 79 298
f 79 297 298
f 296 298 78
f 79 293 294
f 296 293 298
f 598 490 38
f 358 280 22
f 280 279 278
f 357 358 95
f 74 357 353
f 330 328 25
f 567 23 559
f 590 598 38
f 590 604 598
f 598 604 155
f 604 590 154
f 590 591 154
f 604 154 606
f 297 299 298
f 299 318 78
f 298 299 78
f 355 354 356
f 629 636 642
f 312 24 629
f 629 642 160
f 370 362 97
f 362 363 97
f 363 366 97
f 364 363 362
f 362 370 351
f 96 363 364
f 297 636 24
f 162 637 638
f 637 297 79
f 490 488 38
f 598 597 490
f 441 442 119
f 443 442 441
f 443 441 5
f 442 448 445
f 296 78 295
f 326 12 172
f 575 574 364
f 47 175 176
f 175 177 176
f 47 176 179
