# FEM surface export ¡ª frame 549
# Vertices: 642  Faces: 1280
v -0.51810712 0.89864731 0.00206054
v 0.51846439 0.90278488 0.00423658
v -0.50593579 0.39386922 0.00558154
v 0.49269024 0.31116813 0.01709140
v -0.01465819 0.16356353 0.91610891
v -0.00345331 0.61517298 0.84052014
v 0.01283302 0.13410981 -0.90585077
v 0.00085797 0.61514074 -0.84198272
v 0.93097001 0.21869047 -0.57727343
v 0.92251074 0.21789074 0.55735558
v -0.91942942 0.21141475 -0.57425475
v -0.91390640 0.21162598 0.58556151
v -0.79699171 0.59052628 0.30959624
v -0.49628663 0.43270332 0.82004946
v -0.30441004 0.86199236 0.49234542
v 0.30854487 0.86055207 0.48896012
v -0.00135298 1.03067982 -0.00165325
v 0.30289605 0.86162084 -0.49091414
v -0.30162516 0.86118281 -0.49154428
v -0.50964135 0.44645059 -0.81493443
v -0.79721999 0.58706665 -0.29502374
v -1.09319901 0.20868747 0.01040177
v 0.50645387 0.44799015 0.82291281
v 0.80496526 0.58468395 0.30217001
v -0.60119599 0.00057459 0.92962480
v 0.00816129 0.20712611 1.07875800
v -0.87713182 0.15442739 -0.33447906
v -0.88964552 0.13879216 0.32558686
v -0.00954418 0.20595291 -1.08510590
v -0.57082313 0.00000000 -0.94466001
v 0.80451590 0.59191459 -0.30744991
v 0.50386828 0.43990707 -0.82069832
v 0.90261084 0.13411142 0.36711329
v 0.58092862 0.00252149 0.95613390
v 0.33387691 0.30026576 0.48540583
v -0.29600212 0.34629849 0.47648743
v 0.00403071 0.10227756 0.03758119
v -0.30468455 0.10258953 -0.49666068
v 0.30471915 0.18547082 -0.50445724
v 0.56667912 0.00929974 -0.92057997
v 0.85772061 0.18241441 -0.33250695
v 1.08681965 0.21302827 -0.01831366
v -0.68386751 0.76414937 0.15650904
v -0.58055419 0.74985904 0.41722775
v -0.42765787 0.90962356 0.25661230
v -0.71433616 0.32652363 0.73791414
v -0.68092996 0.52650261 0.59244365
v -0.87086868 0.40176401 0.45390481
v -0.15816036 0.75849295 0.69029605
v -0.41763479 0.66067886 0.67940682
v -0.25572678 0.53196657 0.85618043
v -0.15957911 0.98875904 0.25718871
v -0.26974306 0.99848771 -0.00114973
v 0.15869927 0.76300275 0.68872750
v 0.00199333 0.90120327 0.51579016
v 0.26701736 0.99797213 -0.00030787
v 0.15964182 0.98984772 0.25722870
v 0.42656747 0.90881705 0.25517750
v -0.15985692 0.98821473 -0.25788355
v -0.42583042 0.90827119 -0.25558156
v 0.42555493 0.91342425 -0.25337222
v 0.15831588 0.99070299 -0.25696662
v -0.15971294 0.75202334 -0.68737078
v -0.00011948 0.89961970 -0.51697874
v 0.16168067 0.75798607 -0.68982053
v -0.57649523 0.74838591 -0.41394818
v -0.68337846 0.76540804 -0.15430485
v -0.26270422 0.53766757 -0.85505360
v -0.42576233 0.65940523 -0.67101270
v -0.89029199 0.40055484 -0.43305266
v -0.69221580 0.53129137 -0.57481235
v -0.73302150 0.34226739 -0.71658790
v -0.83837342 0.61463940 0.00640980
v -1.04391527 0.20351420 -0.29119518
v -0.97425961 0.39972186 -0.15572181
v -0.96334755 0.40204966 0.17956926
v -1.03153014 0.20185067 0.30396894
v 0.58314550 0.74909973 0.41770816
v 0.68600905 0.76511431 0.15956314
v 0.25714427 0.54696804 0.85982692
v 0.42408207 0.67216027 0.67872638
v 0.87196380 0.40200356 0.43973681
v 0.69060624 0.52803475 0.58538961
v 0.72619510 0.32346857 0.71019274
v -0.25924230 0.31901076 0.98865467
v 0.00234195 0.41116956 0.98154336
v -0.79328889 0.09087940 0.79020572
v -0.55348396 0.19741608 0.92785496
v -0.02352159 0.01356102 1.09732056
v -0.28772634 0.09249815 1.08058918
v -0.31592262 0.11369056 0.93431902
v -1.11500919 0.00583322 0.19255967
v -1.01288152 0.06853651 0.50514054
v -0.99170816 0.01369537 -0.50274217
v -1.09060276 0.04807517 -0.20516910
v -0.73187703 0.30144581 0.17691183
v -0.93265337 0.18311563 -0.00200067
v -0.72477293 0.29926011 -0.16530901
v -0.58169168 0.21614866 -0.91830617
v -0.79194123 0.09416530 -0.78634506
v -0.00785046 0.41247800 -0.97822785
v -0.28148440 0.33018747 -0.99455887
v -0.27071005 0.04989222 -0.95805961
v -0.30511472 0.09436068 -1.09576583
v 0.00730392 0.00000000 -1.12446129
v 0.42598441 0.66019619 -0.67228192
v 0.26246354 0.54158175 -0.86088598
v 0.68575680 0.76753598 -0.15336084
v 0.57922864 0.75232279 -0.41164672
v 0.72924322 0.33515903 -0.73503822
v 0.69099879 0.52374536 -0.58613789
v 0.88962883 0.39783514 -0.45165604
v 0.70445025 0.22594215 0.17254679
v 0.60116225 0.19056976 0.46674877
v 0.45565835 0.29284412 0.27347019
v 0.79775167 0.09110907 0.78158486
v 0.77097422 0.06028036 0.67611581
v 1.00771749 0.03783714 0.51749480
v 0.17879850 0.27321628 0.70949793
v 0.44344044 0.20398267 0.73766559
v 0.28160426 0.07581002 0.95164138
v 0.17052011 0.36789742 0.23516171
v 0.30297679 0.10864842 -0.00003253
v -0.18319464 0.23201171 0.68588358
v -0.00547956 0.37268949 0.51106632
v -0.28110898 0.19954337 0.07548855
v -0.13039866 0.19460149 0.27932152
v -0.37974960 0.37200385 0.24482647
v 0.15293281 0.15795134 -0.24057266
v 0.45056888 0.21495704 -0.23155677
v -0.41377124 0.23930314 -0.25926751
v -0.16936707 0.08044193 -0.20367520
v 0.16212805 0.21969837 -0.73334438
v 0.02489994 0.12385090 -0.50183219
v -0.15574807 0.18292260 -0.75099438
v 0.58623672 0.26468554 -0.42725572
v 0.68851978 0.25862822 -0.15377665
v 0.29144305 0.11291167 -0.94455588
v 0.46275574 0.22809979 -0.71737045
v 1.00784802 0.00052629 -0.48730329
v 0.76453954 0.08698058 -0.62697363
v 0.80083400 0.10925587 -0.79226679
v 0.91615421 0.16639602 0.00124296
v 1.04546344 0.19438797 -0.31165507
v 1.09332991 0.00000000 -0.18957409
v 1.12061298 0.08576249 0.18305160
v 1.04264283 0.21019763 0.28640452
v 0.30403739 0.09661797 1.07767606
v 0.57596588 0.21764190 0.90840107
v 0.27483439 0.34115392 0.98513365
v -0.61437690 0.30297974 0.43337560
v -0.47030157 0.16167839 0.72275805
v -0.79321903 0.04393201 0.63767081
v -0.46831429 0.14281149 -0.72983474
v -0.60671818 0.26820582 -0.45277572
v -0.76507407 0.11320646 -0.65765524
v 0.56237167 0.22071466 -0.93849981
v 0.29581174 0.08793707 -1.09923434
v 0.26929134 0.33325005 -0.99970293
v 0.96837538 0.39805532 0.15955670
v 0.96860397 0.39922222 -0.17521128
v 0.84731871 0.61270899 -0.00312703
v -0.60753936 0.83795244 0.08153831
v -0.56399661 0.84464037 0.21212818
v -0.47874430 0.91170359 0.13110600
v -0.69749343 0.67004240 0.36510098
v -0.63871735 0.76212794 0.29044047
v -0.74730963 0.68000585 0.23289865
v -0.37000424 0.89291757 0.37750545
v -0.50859070 0.83609784 0.34207249
v -0.44765228 0.81401557 0.46023610
v -0.82053578 0.27102903 0.67312044
v -0.81015420 0.36644545 0.59981173
v -0.89723015 0.30555996 0.52592343
v -0.59648538 0.48408270 0.71139747
v -0.70688480 0.42703512 0.66244179
v -0.60878831 0.37742683 0.78375250
v -0.83817899 0.49803385 0.38028932
v -0.78563499 0.46831626 0.52607775
v -0.75092649 0.55768245 0.45240942
v -0.08288342 0.69272006 0.77234012
v -0.21212587 0.64632779 0.77858806
v -0.13275456 0.57813847 0.85409242
v -0.36731982 0.76911545 0.59302026
v -0.29079697 0.71935916 0.69024897
v -0.23324917 0.81758988 0.59669214
v -0.37851566 0.48646724 0.84509677
v -0.34032100 0.60046071 0.77182662
v -0.46325833 0.54828733 0.75435537
v -0.63948339 0.63948238 0.50836319
v -0.55722702 0.59874481 0.64045089
v -0.50718004 0.71364748 0.55447710
v -0.35326654 0.96576655 0.12857369
v -0.39757651 0.95796353 -0.00089445
v -0.23514418 0.93503344 0.37851858
v -0.29623386 0.95769525 0.25849611
v -0.13698426 1.02217638 -0.00186958
v -0.21688086 1.00163376 0.12871543
v -0.08168366 1.02013373 0.12893684
v 0.07774436 0.69650251 0.77332956
v 0.00069981 0.77045906 0.69898206
v 0.15766108 0.89218497 0.50909358
v 0.08296381 0.84013206 0.60883349
v 0.23730986 0.81918323 0.59485483
v -0.07887001 0.83822185 0.60976493
v -0.15333575 0.89077115 0.50973350
v 0.39662975 0.95999384 0.00193982
v 0.35276055 0.96739686 0.13064937
v 0.47743347 0.91266757 0.13029256
v 0.07998113 1.02066922 0.12911712
v 0.21497160 1.00250435 0.12854317
v 0.13366826 1.02453303 -0.00055116
v 0.37138125 0.89240813 0.37577224
v 0.29540598 0.95951426 0.25878987
v 0.23603088 0.93516958 0.37891981
v -0.08124635 0.95538294 0.39125922
v 0.08082967 0.95572358 0.39196169
v -0.00088289 1.00046933 0.25989443
v -0.35115871 0.96330827 -0.13006739
v -0.47538915 0.91025150 -0.12835687
v -0.08151639 1.02122176 -0.13120766
v -0.21630937 1.00116825 -0.13174678
v -0.36743003 0.89300668 -0.37759075
v -0.29593247 0.95685405 -0.25992998
v -0.23214690 0.93425381 -0.37893555
v 0.47608343 0.91611576 -0.12639789
v 0.35053587 0.96805745 -0.12816699
v 0.23451811 0.93778723 -0.37848878
v 0.29441527 0.95880502 -0.25796935
v 0.36825597 0.89367306 -0.37633422
v 0.21421888 1.00322211 -0.12901343
v 0.07953141 1.02278113 -0.13034581
v -0.08025081 0.68717897 -0.77092040
v -0.00131487 0.76496714 -0.69904578
v 0.08122967 0.69018000 -0.76979280
v -0.15241185 0.88622892 -0.50952309
v -0.08100463 0.83293611 -0.60905445
v -0.23246786 0.81213450 -0.59612888
v 0.23570107 0.81563008 -0.59551328
v 0.08068137 0.83437127 -0.61022830
v 0.15388058 0.89157587 -0.51041412
v -0.00073831 1.00186479 -0.26090512
v 0.08047251 0.95722491 -0.39218074
v -0.08049218 0.95582807 -0.39182830
v -0.56137264 0.84502560 -0.20811634
v -0.60677129 0.83870518 -0.07811631
v -0.44499740 0.81483513 -0.46001682
v -0.50788599 0.83657354 -0.33983755
v -0.74669313 0.67753536 -0.22478850
v -0.63657427 0.76232582 -0.28690737
v -0.69470972 0.67456079 -0.35695037
v -0.13055860 0.57733327 -0.85527617
v -0.21340896 0.64635175 -0.77583981
v -0.47007722 0.55343074 -0.74337167
v -0.34806097 0.59760016 -0.76640767
v -0.38653642 0.48773843 -0.84038866
v -0.29607081 0.71092659 -0.68723154
v -0.36722237 0.76557475 -0.58934486
v -0.91420931 0.31210235 -0.50379610
v -0.82242596 0.37982699 -0.58259159
v -0.83787334 0.28052634 -0.64779347
v -0.75309479 0.56424475 -0.43681145
v -0.79638445 0.47073203 -0.50438899
v -0.84860468 0.49169543 -0.36204615
v -0.62539256 0.39127547 -0.77536893
v -0.71863353 0.43773371 -0.64974821
v -0.61004156 0.49179676 -0.70324707
v -0.50788474 0.71851033 -0.55015534
v -0.56296223 0.60049278 -0.62570930
v -0.64096135 0.64420712 -0.49812430
v -0.69254577 0.77206367 0.00053623
v -0.82883948 0.60562986 -0.14722587
v -0.76761293 0.68966448 -0.07676662
v -0.76655489 0.68807060 0.08051528
v -0.82733202 0.60877812 0.16194941
v -0.99355781 0.21544233 -0.43649846
v -0.97698665 0.30692640 -0.36958975
v -1.03207493 0.29759377 -0.08006750
v -1.01317561 0.30271360 -0.22802576
v -1.07058311 0.19741920 -0.14242645
v -0.94028491 0.40663773 -0.29614845
v -0.89537525 0.49635807 -0.22684851
v -0.96087128 0.30231348 0.39027444
v -0.98400044 0.20161679 0.45063290
v -0.88593078 0.49932238 0.24571133
v -0.92405140 0.40907845 0.32113865
v -1.07012951 0.21697423 0.15541193
v -1.00525069 0.30951163 0.24651410
v -1.03341281 0.31686705 0.09313329
v -0.91445714 0.51380914 -0.07199510
v -0.97979772 0.41047084 0.00782403
v -0.91444159 0.51445961 0.09216110
v 0.56313145 0.84763539 0.21092741
v 0.60914260 0.84019375 0.08325876
v 0.45192534 0.81385881 0.45908764
v 0.51227391 0.83652645 0.34053266
v 0.75200897 0.67823207 0.23295407
v 0.64124942 0.76474226 0.29078206
v 0.70172787 0.67200881 0.36514241
v 0.12832278 0.58711535 0.85904431
v 0.20839952 0.66138577 0.78422695
v 0.46631229 0.56169605 0.75893080
v 0.34250453 0.61501360 0.77600068
v 0.38212997 0.49525461 0.84910721
v 0.29430720 0.72388452 0.69437087
v 0.37044260 0.77340776 0.59172827
v 0.90283108 0.29550716 0.50193095
v 0.80941415 0.35545528 0.57399154
v 0.82485098 0.26789039 0.63473731
v 0.75451988 0.56206810 0.44999838
v 0.78992850 0.46268031 0.51382798
v 0.84251148 0.49003208 0.36827311
v 0.62681729 0.39241406 0.77325255
v 0.70539552 0.42356119 0.64559782
v 0.60486019 0.49099466 0.71277070
v 0.51030308 0.71636587 0.55507970
v 0.56247032 0.60653514 0.64038754
v 0.64272410 0.64507228 0.50849348
v -0.13073012 0.47542554 0.92650914
v -0.00207320 0.51291621 0.91455472
v -0.38374421 0.37943175 0.91235292
v -0.25855476 0.42598271 0.92444032
v 0.00778776 0.30727506 1.03749168
v -0.12795022 0.36375794 0.99373972
v -0.13517630 0.25732473 1.05047619
v -0.86169666 0.15157360 0.69129574
v -0.76065677 0.20540987 0.77387840
v -0.59307075 0.08186813 0.94788593
v -0.68022734 0.14218901 0.86671215
v -0.71361554 0.00979203 0.87709361
v -0.64090085 0.25450376 0.84150201
v -0.52590781 0.31401253 0.88277102
v -0.02451685 0.10572719 1.02651381
v -0.18366590 0.07874964 1.04032874
v -0.16246335 0.12796919 0.93550938
v -0.13590676 0.15155134 1.10627484
v -0.16051207 0.02377572 1.10562599
v -0.00075569 0.11574929 1.12848878
v -0.46133122 0.12532781 0.91694754
v -0.33615762 0.00322344 1.03925371
v -0.45553112 0.04617564 1.02017736
v -0.40632007 0.25214040 0.96804380
v -0.43400759 0.13453284 1.02066457
v -0.28136179 0.20305960 1.04331398
v -1.04663599 0.11350077 0.40885225
v -0.97167474 0.11652765 0.54804742
v -1.11165714 0.10355239 0.09841254
v -1.08664596 0.11932953 0.24451095
v -0.95688009 0.03697155 0.39899477
v -1.06286407 0.02674384 0.33835089
v -1.00629413 0.06878490 0.23095934
v -0.96645755 0.11010551 -0.55829436
v -1.03697503 0.11431081 -0.40826112
v -0.98272514 0.10423040 -0.30054727
v -1.04866934 0.00076041 -0.36556730
v -0.95266682 0.08290505 -0.43668163
v -1.07437122 0.10466652 -0.25687489
v -1.11954486 0.10709223 -0.09272248
v -0.63167322 0.37106827 0.09150212
v -0.72405505 0.34080973 0.01074253
v -0.62149477 0.35429728 -0.09168790
v -0.91184181 0.15409385 0.14100318
v -0.83945954 0.25671679 0.07211957
v -0.81536293 0.21541056 0.24860357
v -0.78497088 0.21705294 -0.26221907
v -0.83185840 0.27685300 -0.08964676
v -0.91986644 0.19406441 -0.18610655
v -1.13130391 0.01490289 -0.00830409
v -0.98842567 0.04968205 -0.13791858
v -1.00981879 0.03231978 0.06851101
v -0.77454346 0.21961153 -0.75761807
v -0.86215675 0.13253489 -0.68046862
v -0.54537958 0.33274299 -0.87148267
v -0.66419160 0.27490619 -0.81962287
v -0.69159532 0.02030962 -0.86261016
v -0.69618022 0.15792543 -0.86908394
v -0.59796751 0.11012793 -0.95628989
v -0.00157401 0.51476038 -0.91505945
v -0.13658395 0.47509196 -0.92555714
v -0.15076043 0.26772082 -1.04640281
v -0.14182672 0.37020507 -0.99062777
v -0.00842301 0.31015733 -1.03427887
v -0.27146396 0.43289024 -0.92898142
v -0.39658752 0.38954589 -0.91071492
v -0.10779347 0.06313749 -0.94961160
v -0.13603730 0.00000000 -1.05132556
v 0.02135734 0.06185698 -1.02281463
v -0.45817402 0.06430255 -1.04259109
v -0.30797929 0.00011398 -1.07044756
v -0.43118313 0.00000942 -0.96834785
v -0.01889499 0.09873501 -1.12505174
v -0.16045061 0.03286129 -1.13210583
v -0.15879588 0.14295177 -1.10583246
v -0.43375778 0.27665973 -0.96610302
v -0.29959562 0.21127431 -1.04954708
v -0.44766581 0.15591946 -1.01444674
v 0.21448904 0.65356880 -0.78104353
v 0.13138217 0.58309114 -0.85852927
v 0.36943826 0.76855654 -0.58821946
v 0.29691833 0.71569240 -0.68788421
v 0.38816369 0.49114913 -0.84663856
v 0.34895444 0.60417795 -0.77090144
v 0.47134194 0.55387264 -0.74715221
v 0.60895550 0.84392470 -0.07538211
v 0.56207579 0.84898072 -0.20472018
v 0.69639260 0.67678541 -0.35889438
v 0.63896614 0.76524556 -0.28525779
v 0.74778521 0.68140566 -0.22911382
v 0.50761545 0.84082371 -0.33744302
v 0.44616708 0.81392318 -0.45946613
v 0.83643079 0.28699198 -0.66201055
v 0.82529926 0.36962125 -0.60012090
v 0.91918558 0.30783990 -0.51644319
v 0.60512590 0.48634586 -0.71121955
v 0.71235031 0.42185333 -0.66645503
v 0.61842251 0.38667560 -0.78912371
v 0.85036349 0.49681342 -0.38240415
v 0.79414874 0.46891949 -0.52672344
v 0.75860089 0.56714612 -0.44971070
v 0.51071143 0.71163493 -0.55009967
v 0.64326376 0.64003086 -0.50112557
v 0.56579798 0.59612811 -0.63301510
v 0.60122007 0.28547180 0.08370537
v 0.58665663 0.28336775 0.24665044
v 0.48882830 0.32348779 0.16412652
v 0.73318785 0.10919304 0.40052989
v 0.67289275 0.24587670 0.33724687
v 0.78307539 0.17334747 0.25717577
v 0.39583009 0.31144342 0.38369185
v 0.55341464 0.23505948 0.39078081
v 0.46586165 0.24522592 0.49594051
v 0.86494446 0.15786839 0.66961414
v 0.91937488 0.05426283 0.65849853
v 0.97949934 0.13338433 0.55141485
v 0.66924727 0.00218793 0.82521081
v 0.80917943 0.00000000 0.77086657
v 0.69204485 0.02368146 0.87593561
v 0.94698477 0.00000000 0.42538354
v 0.89097792 0.00000000 0.60306895
v 0.82700157 0.05439671 0.51203352
v 0.06712607 0.21180514 0.80060297
v 0.19424343 0.16904126 0.81220174
v 0.13190912 0.09747650 0.93187982
v 0.38081583 0.27903515 0.64188808
v 0.28310406 0.23588924 0.76951927
v 0.27058578 0.29715768 0.62322450
v 0.42955792 0.02937928 0.96873569
v 0.36080670 0.10433528 0.83599067
v 0.51040983 0.08373179 0.82505661
v 0.64475596 0.10416404 0.54169953
v 0.59600538 0.08987422 0.69516981
v 0.53595018 0.18826628 0.61444235
v 0.40664414 0.18743849 0.16456293
v 0.40952772 0.18621339 0.04318383
v 0.24476717 0.35061324 0.36067688
v 0.31350997 0.33973417 0.22795427
v 0.15188825 0.12703191 0.02543611
v 0.27067056 0.24221204 0.11978573
v 0.13577016 0.21156693 0.16204610
v -0.12077781 0.19788645 0.80619019
v -0.02703294 0.25592029 0.70768708
v -0.13211539 0.34139541 0.47978899
v -0.07830780 0.33932334 0.60364574
v -0.22937423 0.29901597 0.59292406
v 0.08360471 0.34147888 0.63531256
v 0.16917871 0.34726247 0.51146132
v -0.39839739 0.27670294 0.02782463
v -0.30544817 0.36180887 0.15196157
v -0.45024374 0.37445667 0.13840465
v -0.02456588 0.19888285 0.13789193
v -0.14398408 0.33574745 0.13667333
v -0.15539251 0.17273359 0.05739189
v -0.34260628 0.37818027 0.35220250
v -0.21156719 0.37120417 0.23406601
v -0.19802868 0.37567186 0.35803378
v 0.10684642 0.39878353 0.38527256
v -0.06703048 0.37662277 0.37855124
v 0.04245573 0.24069560 0.31272149
v 0.36503077 0.18930548 -0.08365630
v 0.45367187 0.29820466 -0.12111406
v 0.09680949 0.13342640 -0.11419708
v 0.23733376 0.11926918 -0.10915890
v 0.39808974 0.20476373 -0.36969414
v 0.32488543 0.12574449 -0.22418450
v 0.23413695 0.14412257 -0.34010780
v -0.48148459 0.31899786 -0.14044909
v -0.37920541 0.21317492 -0.10268343
v -0.21876109 0.08362842 -0.35970807
v -0.28824267 0.15035851 -0.23713447
v -0.36732051 0.15063661 -0.35291028
v -0.25790933 0.12693581 -0.08569213
v -0.10702044 0.12909025 -0.08527096
v 0.08434147 0.18101037 -0.82808381
v 0.00281222 0.21053083 -0.73632866
v -0.08346952 0.19840102 -0.83608264
v 0.19083826 0.14922550 -0.46720916
v 0.10997929 0.17204934 -0.60403270
v 0.24736007 0.23712009 -0.61502504
v -0.20897125 0.10532747 -0.62507683
v -0.07433362 0.13748096 -0.64603382
v -0.11727786 0.07622751 -0.50864476
v 0.00034682 0.14160231 -0.23334652
v -0.08398167 0.06735121 -0.36070722
v 0.08630126 0.14108180 -0.36761922
v 0.56524354 0.34879300 -0.20741244
v 0.56203735 0.29137138 -0.07640496
v 0.45593801 0.26717794 -0.48590252
v 0.50500780 0.29414952 -0.35404912
v 0.77619922 0.23727922 -0.23673858
v 0.65057844 0.30171847 -0.28533751
v 0.72049600 0.26220700 -0.37223381
v 0.16092275 0.14423110 -0.92839324
v 0.22012755 0.16873370 -0.81717539
v 0.50023156 0.13170294 -0.79977429
v 0.36899364 0.14544143 -0.83585435
v 0.42413354 0.03038453 -0.90725988
v 0.32484981 0.24082829 -0.72280568
v 0.38521820 0.29663894 -0.60887879
v 0.98426414 0.10656770 -0.55183667
v 0.92016423 0.05447005 -0.65541363
v 0.88200086 0.15750363 -0.68846560
v 0.82989860 0.17827928 -0.49096620
v 0.88537955 0.01413578 -0.55683869
v 0.92175329 0.10127670 -0.41569737
v 0.71323371 0.04901836 -0.87302256
v 0.81596738 0.00000000 -0.72228599
v 0.63673079 0.00465604 -0.78408414
v 0.55295742 0.21928053 -0.57721031
v 0.61063057 0.14357281 -0.69300562
v 0.69910687 0.17405517 -0.54306757
v 0.68586582 0.22717778 0.00171792
v 0.85408801 0.15470530 -0.15770765
v 0.80279940 0.19436361 -0.06898078
v 0.79971558 0.18393812 0.08595015
v 0.91592425 0.15662071 0.17327489
v 1.00059474 0.21708179 -0.44839594
v 1.05022848 0.10917392 -0.41781792
v 1.12897480 0.10485837 -0.10695034
v 1.10023475 0.11249100 -0.25889879
v 1.07766831 0.20373559 -0.16485737
v 1.06475687 0.00228007 -0.34815037
v 0.97695327 0.09943060 -0.26382953
v 1.04456329 0.12598214 0.40428337
v 0.99092942 0.21140251 0.42588294
v 0.98563743 0.01751171 0.25484154
v 1.07177067 0.06550187 0.34976652
v 1.06850576 0.22047785 0.13230838
v 1.09304726 0.14623252 0.23688670
v 1.12005186 0.14130473 0.07060284
v 1.00161541 0.10792732 -0.09182918
v 1.14204502 0.02184868 0.00250356
v 0.99887711 0.02910677 0.08253068
v 0.11997969 0.01551562 1.03901613
v 0.45696440 0.07805019 1.03670228
v 0.31336120 0.00283873 1.07390130
v 0.15047079 0.07805634 1.12268984
v 0.15327691 0.16308346 1.09539366
v 0.76752168 0.20402277 0.74224824
v 0.54958647 0.32915732 0.86368281
v 0.66460752 0.26485607 0.81448823
v 0.69128811 0.15732668 0.84709942
v 0.60460216 0.11868560 0.93876082
v 0.13147804 0.48057523 0.92801625
v 0.15067050 0.26861086 1.04832911
v 0.13640645 0.37071252 0.99359280
v 0.26589787 0.43359271 0.92919314
v 0.39782974 0.38693118 0.90793163
v 0.45179582 0.15229198 1.00061440
v 0.42762110 0.27647102 0.95604962
v 0.29888946 0.22661181 1.04081392
v -0.57567793 0.34732074 0.22567613
v -0.44348979 0.28478679 0.44726074
v -0.50475150 0.36810806 0.34154847
v -0.67354971 0.29887792 0.30540910
v -0.73865914 0.22072354 0.38996026
v -0.24154824 0.15320837 0.82820195
v -0.55044162 0.08554202 0.82174236
v -0.38378426 0.16565089 0.80777138
v -0.28845844 0.19408552 0.71768361
v -0.37550390 0.22751266 0.59585541
v -0.91583484 0.05972815 0.65757340
v -0.85467780 0.11234924 0.49180540
v -0.91283172 0.00000000 0.56180966
v -0.82372898 0.00084752 0.74138582
v -0.72835171 0.09585242 0.79793441
v -0.53812450 0.20599160 0.54944593
v -0.63394922 0.10135861 0.67105025
v -0.69584149 0.15879539 0.53708154
v -0.20197341 0.10193807 -0.85377449
v -0.35400096 0.16900674 -0.61681545
v -0.32499391 0.13248105 -0.74440831
v -0.37206307 0.09000450 -0.85088825
v -0.51535803 0.09917944 -0.85858250
v -0.59169471 0.22104497 -0.17821878
v -0.72647446 0.21043275 -0.39758843
v -0.65785915 0.31156850 -0.30196121
v -0.52909327 0.23847640 -0.33764476
v -0.40608579 0.25221315 -0.48892772
v -0.91745025 0.02636716 -0.66390640
v -0.68872750 0.06206057 -0.81114167
v -0.82250202 0.01013664 -0.73237258
v -0.87059426 0.09498026 -0.57771873
v -0.81645161 0.14362891 -0.48457912
v -0.52323633 0.21818326 -0.57867634
v -0.68835062 0.21307355 -0.56074959
v -0.61945510 0.17140421 -0.71908820
v 0.77543491 0.21472165 -0.77143377
v 0.58558869 0.09808239 -0.95865411
v 0.68372726 0.15635313 -0.86973423
v 0.65308350 0.27568460 -0.83949172
v 0.53434217 0.32587621 -0.88384140
v 0.16315582 0.07047461 -1.03462887
v 0.13567260 0.14240207 -1.09976125
v 0.14923626 0.05816297 -1.09953511
v 0.31306493 0.00994353 -1.04777789
v 0.44868937 0.03497807 -1.03115618
v 0.13290578 0.47997865 -0.93096763
v 0.39177209 0.38810951 -0.91722500
v 0.26807314 0.43468064 -0.93044490
v 0.13219926 0.37314391 -0.99893051
v 0.13355662 0.26648393 -1.05537724
v 0.43343115 0.14295581 -1.02050149
v 0.28243256 0.20058258 -1.05167842
v 0.41847289 0.26815283 -0.98235172
v 0.96247470 0.30800182 0.37494320
v 1.02959430 0.30793875 0.07625423
v 1.01703835 0.31000757 0.22837277
v 0.93022442 0.40366250 0.30474821
v 0.89802426 0.49469373 0.23263928
v 0.97754937 0.30398461 -0.38226500
v 0.89511269 0.49543864 -0.24793632
v 0.93730253 0.39900562 -0.31614119
v 1.01899660 0.29976681 -0.23951383
v 1.03644943 0.31187433 -0.09730124
v 0.69653457 0.77648568 0.00164734
v 0.83613282 0.60358191 0.15249249
v 0.77328610 0.69235450 0.08039450
v 0.77213830 0.69105971 -0.07776659
v 0.83320260 0.60707504 -0.15821847
v 0.97833806 0.40213025 -0.00906908
v 0.90785521 0.50508386 -0.09077176
v 0.91602403 0.50290388 0.07344173
f 330 87 329
f 336 325 26
f 207 208 56
f 464 36 580
f 502 129 504
f 157 624 622
f 308 311 82
f 247 223 248
f 507 483 508
f 331 88 329
f 494 500 497
f 156 601 602
f 591 589 592
f 365 98 596
f 75 281 282
f 152 587 577
f 149 559 560
f 555 121 553
f 530 141 529
f 515 517 139
f 361 594 98
f 250 67 249
f 157 608 609
f 294 293 209
f 317 81 316
f 557 338 26
f 303 305 81
f 530 529 528
f 101 381 382
f 415 418 111
f 192 184 50
f 412 110 411
f 20 384 256
f 131 594 486
f 281 264 282
f 347 287 348
f 28 349 582
f 165 163 1
f 248 250 66
f 617 107 398
f 273 271 274
f 456 115 453
f 558 561 560
f 335 576 91
f 331 177 332
f 116 433 436
f 351 370 92
f 136 511 530
f 239 240 65
f 247 258 19
f 304 23 567
f 148 557 570
f 214 208 58
f 440 426 450
f 268 270 269
f 258 247 268
f 204 202 16
f 466 125 465
f 517 513 133
f 168 275 274
f 275 73 274
f 198 193 53
f 309 308 307
f 510 511 136
f 415 416 110
f 131 490 597
f 473 475 474
f 414 415 111
f 493 495 494
f 496 504 485
f 433 116 432
f 600 375 601
f 240 234 65
f 418 415 412
f 486 361 3
f 567 566 304
f 380 393 29
f 17 199 197
f 491 492 132
f 451 449 435
f 218 217 216
f 623 621 613
f 396 104 395
f 433 439 436
f 628 160 627
f 215 202 217
f 209 207 2
f 427 113 424
f 434 10 544
f 434 433 432
f 199 17 210
f 150 564 565
f 489 491 132
f 275 13 285
f 497 500 134
f 125 466 476
f 578 152 577
f 208 214 211
f 328 88 343
f 356 27 603
f 150 566 567
f 372 100 371
f 190 191 47
f 235 8 398
f 260 261 72
f 422 403 414
f 422 414 111
f 453 454 123
f 349 583 582
f 521 520 519
f 425 453 115
f 616 622 158
f 483 130 508
f 151 586 572
f 212 17 232
f 400 397 402
f 377 396 99
f 41 522 511
f 510 508 505
f 549 547 42
f 475 473 36
f 510 137 509
f 222 221 197
f 430 115 429
f 220 194 1
f 305 54 204
f 621 29 613
f 192 171 184
f 460 335 5
f 88 331 332
f 74 277 279
f 300 301 80
f 390 389 388
f 165 45 164
f 146 549 551
f 291 278 75
f 448 120 445
f 147 543 544
f 607 610 609
f 603 602 356
f 139 529 514
f 333 553 443
f 92 368 347
f 261 260 259
f 300 6 200
f 46 177 331
f 284 283 174
f 301 300 200
f 471 468 474
f 54 305 301
f 302 304 303
f 569 150 567
f 150 569 570
f 294 209 2
f 628 629 160
f 548 543 147
f 147 625 627
f 63 233 234
f 426 427 114
f 41 509 532
f 198 52 196
f 614 105 612
f 147 627 547
f 81 305 306
f 549 548 547
f 54 301 200
f 342 88 332
f 264 281 70
f 193 194 53
f 455 429 456
f 187 321 14
f 479 130 484
f 147 544 625
f 458 456 453
f 304 80 303
f 314 84 313
f 488 503 501
f 321 332 14
f 423 425 424
f 305 204 306
f 341 339 25
f 514 40 516
f 625 628 627
f 340 339 341
f 105 614 391
f 243 228 62
f 318 316 78
f 75 278 279
f 357 355 353
f 238 257 63
f 466 455 476
f 425 423 4
f 448 449 120
f 408 638 108
f 292 275 285
f 22 278 289
f 515 513 517
f 501 503 134
f 622 623 158
f 134 503 504
f 195 216 206
f 163 271 246
f 619 617 620
f 62 228 229
f 163 165 164
f 453 425 454
f 489 132 488
f 82 628 625
f 58 208 209
f 525 608 40
f 626 547 627
f 518 517 498
f 489 487 491
f 557 26 564
f 325 336 344
f 541 145 539
f 40 616 516
f 338 556 89
f 250 248 245
f 139 514 515
f 98 594 596
f 246 220 1
f 112 413 630
f 9 536 413
f 156 600 601
f 332 177 14
f 321 342 332
f 156 606 600
f 584 330 585
f 302 303 81
f 584 87 330
f 330 25 585
f 400 239 65
f 439 440 117
f 95 358 368
f 597 594 131
f 594 361 486
f 246 67 245
f 561 562 149
f 28 364 362
f 55 216 217
f 427 430 114
f 267 20 254
f 556 555 553
f 84 309 558
f 311 310 312
f 609 525 142
f 256 68 255
f 124 460 461
f 82 311 312
f 307 308 82
f 589 135 495
f 527 40 514
f 112 418 412
f 20 256 254
f 258 238 19
f 267 254 269
f 273 272 249
f 392 391 393
f 137 533 509
f 122 455 456
f 9 413 411
f 130 480 505
f 333 443 5
f 527 525 40
f 589 495 385
f 39 496 485
f 223 225 224
f 414 416 415
f 219 222 53
f 145 538 539
f 413 412 411
f 469 468 467
f 183 181 6
f 191 192 50
f 429 35 431
f 292 285 76
f 413 112 412
f 415 110 412
f 43 164 167
f 467 468 126
f 617 101 620
f 450 451 117
f 438 546 545
f 619 620 159
f 17 212 210
f 124 579 576
f 584 153 583
f 460 124 576
f 3 469 467
f 311 308 314
f 6 320 183
f 389 104 388
f 251 250 249
f 194 165 1
f 291 289 278
f 287 77 348
f 238 258 257
f 139 517 518
f 238 236 19
f 223 247 19
f 382 380 29
f 39 518 498
f 361 359 3
f 69 255 257
f 139 518 528
f 33 545 535
f 387 385 7
f 69 268 269
f 477 462 125
f 454 479 123
f 121 555 447
f 451 435 117
f 454 425 4
f 233 252 8
f 124 463 464
f 69 258 268
f 168 167 166
f 583 153 582
f 384 394 102
f 138 512 513
f 57 210 211
f 254 256 255
f 607 609 142
f 324 319 86
f 289 291 76
f 291 292 76
f 384 102 383
f 422 421 420
f 221 17 197
f 383 102 381
f 376 377 99
f 99 373 374
f 386 105 392
f 438 33 440
f 90 341 343
f 281 75 279
f 574 571 96
f 628 82 312
f 221 222 59
f 127 471 474
f 595 605 603
f 551 538 145
f 334 91 340
f 322 324 85
f 305 303 301
f 18 239 399
f 306 204 16
f 199 198 197
f 166 190 180
f 303 80 301
f 267 266 265
f 626 42 547
f 16 215 213
f 349 351 350
f 295 16 213
f 68 379 252
f 250 251 66
f 627 160 626
f 383 68 256
f 343 88 342
f 507 508 136
f 202 215 16
f 197 198 53
f 254 69 269
f 603 605 156
f 418 419 111
f 384 383 256
f 455 122 476
f 203 204 54
f 556 557 148
f 255 68 253
f 313 84 560
f 25 328 341
f 254 255 69
f 603 156 602
f 581 584 583
f 630 632 112
f 163 246 1
f 246 245 220
f 432 116 558
f 499 591 590
f 320 563 86
f 345 93 350
f 306 16 295
f 346 93 345
f 562 568 149
f 604 605 155
f 154 592 593
f 545 552 535
f 511 522 530
f 574 573 571
f 566 150 565
f 361 98 360
f 67 271 273
f 234 235 65
f 208 211 56
f 574 151 573
f 251 270 66
f 398 8 378
f 213 215 214
f 438 440 439
f 315 314 313
f 263 71 262
f 20 373 384
f 496 134 504
f 329 88 328
f 81 306 316
f 555 556 148
f 592 589 103
f 617 619 107
f 227 207 56
f 571 359 96
f 446 466 465
f 206 216 55
f 359 571 469
f 568 148 570
f 34 437 435
f 28 351 349
f 21 272 282
f 113 423 424
f 490 489 488
f 379 68 383
f 210 212 211
f 80 563 300
f 351 92 350
f 326 346 12
f 83 317 318
f 555 148 554
f 212 231 56
f 218 57 217
f 271 67 246
f 195 196 52
f 270 268 66
f 390 592 103
f 148 568 554
f 495 493 7
f 592 390 593
f 357 95 355
f 574 575 151
f 452 120 451
f 154 591 592
f 587 585 577
f 395 394 396
f 93 349 350
f 610 416 611
f 166 44 190
f 315 23 302
f 315 302 317
f 268 247 66
f 606 154 593
f 396 394 99
f 211 212 56
f 370 369 368
f 235 397 65
f 280 278 22
f 83 315 317
f 575 588 151
f 74 279 280
f 385 495 7
f 63 257 253
f 397 235 398
f 214 58 213
f 220 219 194
f 546 146 545
f 236 225 19
f 599 94 602
f 235 233 8
f 102 394 395
f 611 416 32
f 225 223 19
f 139 528 529
f 231 62 229
f 419 406 421
f 451 450 452
f 49 182 185
f 402 397 107
f 52 199 218
f 416 610 110
f 225 236 244
f 107 397 398
f 68 252 253
f 322 85 321
f 182 181 183
f 118 438 439
f 546 438 118
f 348 77 345
f 543 546 118
f 231 212 232
f 610 611 157
f 33 438 545
f 385 386 103
f 479 480 130
f 169 195 15
f 93 583 349
f 15 195 206
f 190 44 192
f 247 248 66
f 146 552 545
f 248 60 245
f 570 557 564
f 274 271 43
f 63 253 233
f 272 21 249
f 507 528 518
f 67 273 249
f 487 467 126
f 196 195 169
f 624 159 623
f 134 496 497
f 132 503 488
f 104 393 395
f 556 553 89
f 355 356 94
f 258 69 257
f 229 61 227
f 56 231 227
f 460 576 335
f 463 124 461
f 394 373 99
f 29 393 391
f 67 250 245
f 193 198 196
f 462 36 464
f 144 633 630
f 141 526 527
f 517 133 498
f 536 144 630
f 100 372 599
f 144 536 537
f 22 289 287
f 578 579 152
f 579 578 576
f 189 188 187
f 60 223 224
f 92 348 350
f 555 554 447
f 396 377 388
f 194 193 165
f 413 536 630
f 372 352 599
f 377 376 375
f 348 345 350
f 105 386 387
f 240 237 234
f 463 462 464
f 135 500 494
f 45 196 169
f 512 612 387
f 245 60 220
f 429 115 456
f 223 60 248
f 288 289 76
f 525 526 142
f 100 599 601
f 613 29 391
f 526 523 520
f 341 328 343
f 631 641 639
f 264 21 282
f 266 72 265
f 106 402 403
f 73 273 274
f 186 206 205
f 381 379 383
f 52 216 195
f 410 18 399
f 290 272 73
f 72 371 374
f 526 525 527
f 115 430 424
f 498 497 496
f 621 382 29
f 543 118 434
f 214 215 57
f 522 141 530
f 511 510 509
f 352 94 599
f 493 512 7
f 90 340 341
f 169 171 170
f 605 604 606
f 219 60 224
f 104 389 392
f 359 469 3
f 186 49 185
f 222 219 224
f 166 167 44
f 428 427 426
f 523 522 524
f 129 502 481
f 50 185 188
f 164 45 170
f 425 115 424
f 33 428 426
f 427 428 113
f 94 356 602
f 515 138 513
f 114 431 452
f 237 236 238
f 215 217 57
f 95 354 355
f 220 60 219
f 515 514 516
f 183 320 319
f 222 197 53
f 559 569 567
f 300 320 6
f 435 436 117
f 96 360 363
f 640 642 641
f 242 243 62
f 140 537 519
f 508 130 505
f 420 410 399
f 537 539 144
f 317 316 318
f 426 114 450
f 186 15 206
f 311 83 310
f 625 544 307
f 544 10 307
f 168 43 167
f 185 182 188
f 369 354 95
f 44 171 192
f 605 606 156
f 548 549 146
f 100 601 375
f 149 568 569
f 381 380 382
f 455 466 35
f 480 479 454
f 543 548 546
f 493 133 513
f 492 472 37
f 477 125 476
f 491 487 126
f 337 336 338
f 588 153 587
f 576 578 91
f 633 161 632
f 96 359 360
f 39 485 483
f 101 617 378
f 193 45 165
f 163 164 43
f 618 624 611
f 507 136 528
f 561 149 560
f 641 162 639
f 116 561 558
f 494 133 493
f 253 252 233
f 63 237 238
f 392 393 104
f 440 450 117
f 93 581 583
f 386 385 387
f 120 449 451
f 421 422 111
f 486 3 467
f 302 81 317
f 633 632 630
f 462 475 36
f 376 99 374
f 489 490 131
f 447 449 448
f 387 612 105
f 106 420 399
f 173 46 172
f 492 491 472
f 316 306 295
f 22 287 347
f 109 410 420
f 507 39 483
f 559 23 313
f 214 57 211
f 196 45 193
f 10 434 432
f 422 106 403
f 626 160 640
f 487 486 467
f 542 41 532
f 400 106 399
f 444 120 452
f 198 199 52
f 475 127 474
f 621 620 382
f 621 623 159
f 450 114 452
f 92 347 348
f 376 100 375
f 434 118 433
f 503 132 502
f 337 90 336
f 537 536 519
f 395 393 380
f 201 54 200
f 171 44 170
f 355 94 353
f 58 296 213
f 422 420 106
f 595 365 596
f 569 568 570
f 523 140 520
f 114 430 431
f 218 210 57
f 304 566 80
f 639 162 638
f 261 371 72
f 548 147 547
f 498 133 497
f 150 570 564
f 222 224 59
f 142 526 520
f 437 436 435
f 141 522 523
f 137 510 505
f 173 179 176
f 559 149 569
f 121 447 448
f 563 320 300
f 102 395 380
f 257 255 253
f 642 162 641
f 83 311 314
f 216 52 218
f 512 493 513
f 23 304 302
f 91 339 340
f 512 138 612
f 159 620 621
f 218 199 210
f 364 28 575
f 83 318 310
f 168 274 43
f 136 530 528
f 140 523 524
f 495 135 494
f 233 235 234
f 566 563 80
f 25 339 577
f 277 74 276
f 475 462 477
f 133 494 497
f 436 437 116
f 389 386 392
f 548 146 546
f 441 460 5
f 10 309 307
f 65 397 400
f 543 434 544
f 640 641 161
f 272 273 73
f 581 93 346
f 419 421 111
f 319 320 86
f 180 179 178
f 127 475 477
f 231 229 227
f 337 334 340
f 136 508 510
f 308 309 84
f 237 63 234
f 447 554 34
f 252 379 378
f 315 83 314
f 608 622 616
f 338 336 26
f 337 338 89
f 13 275 168
f 209 208 207
f 436 439 117
f 628 312 629
f 360 366 363
f 364 574 96
f 359 361 360
f 466 446 35
f 500 501 134
f 406 109 421
f 135 589 591
f 601 599 602
f 340 90 337
f 481 492 37
f 522 41 524
f 78 316 295
f 131 486 487
f 403 32 414
f 634 626 640
f 151 572 573
f 515 516 138
f 8 252 378
f 265 72 374
f 9 521 519
f 538 549 42
f 368 358 347
f 588 587 586
f 458 453 123
f 589 385 103
f 502 492 481
f 32 416 414
f 430 427 424
f 153 585 587
f 540 144 539
f 370 368 92
f 209 293 58
f 428 33 535
f 326 581 346
f 625 307 82
f 575 28 582
f 6 181 200
f 421 109 420
f 553 121 443
f 160 642 640
f 153 584 585
f 309 432 558
f 334 337 89
f 23 315 313
f 271 163 43
f 296 295 213
f 39 498 496
f 118 439 433
f 531 113 534
f 293 296 58
f 28 362 351
f 489 131 487
f 431 444 452
f 84 558 560
f 98 366 360
f 45 169 170
f 379 101 378
f 462 463 125
f 308 84 314
f 10 432 309
f 299 24 310
f 132 492 502
f 512 387 7
f 639 638 408
f 565 323 86
f 59 244 242
f 106 400 402
f 440 33 426
f 566 565 563
f 617 398 378
f 224 225 59
f 410 109 409
f 239 400 399
f 194 219 53
f 358 22 347
f 610 157 609
f 27 595 603
f 479 484 482
f 142 520 521
f 585 25 577
f 339 578 577
f 408 407 406
f 407 109 406
f 31 408 406
f 407 408 108
f 31 639 408
f 419 31 406
f 608 616 40
f 430 429 431
f 455 35 429
f 35 444 431
f 188 51 187
f 188 182 51
f 51 322 187
f 322 51 319
f 51 182 183
f 319 51 183
f 187 322 321
f 322 319 324
f 381 101 379
f 405 407 108
f 404 405 108
f 286 285 178
f 407 405 409
f 109 407 409
f 191 175 47
f 167 164 170
f 50 184 185
f 44 167 170
f 64 244 236
f 243 244 64
f 50 188 189
f 541 542 145
f 442 445 119
f 339 91 578
f 445 446 119
f 624 623 622
f 611 624 157
f 523 526 141
f 141 527 529
f 527 514 529
f 445 120 444
f 446 445 444
f 35 446 444
f 613 614 158
f 158 614 615
f 623 613 158
f 614 613 391
f 614 612 615
f 371 376 374
f 100 376 371
f 479 482 123
f 373 394 384
f 540 42 634
f 633 540 634
f 538 42 540
f 633 634 161
f 161 634 640
f 42 626 634
f 540 633 144
f 557 556 338
f 553 333 89
f 262 21 264
f 251 21 262
f 5 335 333
f 270 251 262
f 21 251 249
f 600 593 30
f 606 593 600
f 600 30 375
f 593 390 30
f 30 377 375
f 390 388 30
f 30 388 377
f 228 243 241
f 470 478 459
f 470 127 478
f 127 477 478
f 184 186 185
f 478 477 476
f 122 478 476
f 357 74 280
f 518 39 507
f 344 342 85
f 325 344 85
f 342 344 343
f 85 342 321
f 344 90 343
f 90 344 336
f 482 129 481
f 482 481 457
f 482 457 123
f 481 37 457
f 449 447 34
f 435 449 34
f 470 472 471
f 472 470 37
f 470 471 127
f 472 126 471
f 126 468 471
f 470 459 37
f 491 126 472
f 504 129 485
f 221 59 242
f 125 463 465
f 437 34 562
f 561 437 562
f 554 568 562
f 34 554 562
f 437 561 116
f 390 103 389
f 103 386 389
f 392 105 391
f 572 586 580
f 572 580 36
f 586 152 580
f 473 572 36
f 244 243 242
f 225 244 59
f 64 240 241
f 240 239 241
f 237 240 64
f 243 64 241
f 236 237 64
f 411 607 521
f 9 411 521
f 110 607 411
f 607 142 521
f 610 607 110
f 171 15 184
f 171 169 15
f 15 186 184
f 87 584 581
f 153 588 582
f 588 575 582
f 381 102 380
f 573 572 473
f 468 469 128
f 474 468 128
f 469 571 128
f 571 573 128
f 573 473 128
f 473 474 128
f 564 323 565
f 26 323 564
f 323 324 86
f 325 323 26
f 325 324 323
f 563 565 86
f 324 325 85
f 410 230 18
f 230 228 18
f 18 228 241
f 18 241 239
f 401 619 618
f 401 402 107
f 403 402 401
f 619 159 618
f 401 618 32
f 619 401 107
f 403 401 32
f 618 611 32
f 159 624 618
f 478 122 459
f 122 458 459
f 37 459 457
f 459 458 457
f 122 456 458
f 457 458 123
f 191 190 192
f 485 129 484
f 129 482 484
f 483 485 484
f 130 483 484
f 189 187 14
f 191 50 189
f 191 189 175
f 189 14 175
f 14 177 175
f 499 501 500
f 501 499 38
f 38 499 590
f 135 499 500
f 488 501 38
f 499 135 591
f 480 454 4
f 284 12 346
f 4 423 506
f 480 4 506
f 423 531 506
f 480 506 505
f 531 137 506
f 506 137 505
f 365 366 98
f 71 270 262
f 270 71 269
f 71 267 269
f 335 334 333
f 333 334 89
f 334 335 91
f 536 9 519
f 465 463 461
f 537 140 541
f 520 140 519
f 119 446 465
f 465 461 119
f 461 441 119
f 460 441 461
f 176 46 173
f 299 297 24
f 71 263 266
f 263 260 266
f 260 72 266
f 263 70 260
f 205 201 49
f 201 181 49
f 186 205 49
f 181 201 200
f 181 182 49
f 284 77 283
f 586 587 152
f 588 586 151
f 20 267 265
f 266 267 71
f 31 417 631
f 631 417 632
f 31 631 639
f 417 31 419
f 641 631 161
f 417 112 632
f 161 631 632
f 418 417 419
f 417 418 112
f 284 345 77
f 542 550 145
f 542 541 524
f 284 174 12
f 48 174 283
f 373 20 265
f 373 265 374
f 609 608 525
f 608 157 622
f 560 559 313
f 636 637 162
f 541 140 524
f 41 542 524
f 358 357 280
f 70 263 264
f 263 262 264
f 176 177 46
f 174 48 173
f 174 173 172
f 538 551 549
f 538 540 539
f 537 541 539
f 232 221 242
f 17 221 232
f 232 242 62
f 231 232 62
f 203 205 55
f 203 55 202
f 201 205 203
f 202 55 217
f 205 206 55
f 204 203 202
f 73 275 292
f 292 290 73
f 272 290 282
f 290 292 291
f 75 290 291
f 290 75 282
f 70 277 259
f 277 70 281
f 277 281 279
f 260 70 259
f 12 174 172
f 104 396 388
f 367 27 354
f 365 27 367
f 354 27 356
f 365 367 366
f 595 27 365
f 318 299 310
f 155 596 597
f 155 597 598
f 596 594 597
f 595 596 155
f 605 595 155
f 180 47 179
f 180 190 47
f 352 372 11
f 11 372 261
f 312 310 24
f 642 636 162
f 636 297 637
f 367 369 97
f 366 367 97
f 369 367 354
f 369 370 97
f 580 579 464
f 580 152 579
f 579 124 464
f 61 230 409
f 230 410 409
f 230 61 229
f 230 229 228
f 76 285 286
f 353 352 276
f 74 353 276
f 288 76 286
f 288 286 283
f 289 288 287
f 203 54 201
f 287 288 77
f 77 288 283
f 286 48 283
f 531 423 113
f 276 11 259
f 11 261 259
f 277 276 259
f 616 158 615
f 516 616 615
f 138 516 615
f 138 615 612
f 509 533 532
f 503 502 504
f 635 79 294
f 635 294 404
f 635 637 79
f 637 635 638
f 638 635 108
f 635 404 108
f 226 61 405
f 61 226 227
f 405 61 409
f 227 226 207
f 48 178 179
f 48 286 178
f 173 48 179
f 534 143 533
f 534 535 143
f 531 534 533
f 533 143 532
f 137 531 533
f 261 372 371
f 13 180 178
f 285 13 178
f 180 13 166
f 13 168 166
f 346 345 284
f 331 327 46
f 46 327 172
f 172 327 326
f 382 620 101
f 442 121 448
f 443 121 442
f 2 226 404
f 294 2 404
f 404 226 405
f 207 226 2
f 550 551 145
f 552 146 551
f 143 550 532
f 552 550 143
f 330 329 328
f 24 636 629
f 94 352 353
f 352 11 276
f 113 428 534
f 428 535 534
f 509 41 511
f 535 552 143
f 550 552 551
f 550 542 532
f 369 95 368
f 326 327 87
f 87 327 329
f 327 331 329
f 581 326 87
f 293 79 298
f 79 297 298
f 296 298 78
f 79 293 294
f 296 293 298
f 598 490 38
f 358 280 22
f 280 279 278
f 357 358 95
f 74 357 353
f 330 328 25
f 567 23 559
f 590 598 38
f 590 604 598
f 598 604 155
f 604 590 154
f 590 591 154
f 604 154 606
f 297 299 298
f 299 318 78
f 298 299 78
f 355 354 356
f 629 636 642
f 312 24 629
f 629 642 160
f 370 362 97
f 362 363 97
f 363 366 97
f 364 363 362
f 362 370 351
f 96 363 364
f 297 636 24
f 162 637 638
f 637 297 79
f 490 488 38
f 598 597 490
f 441 442 119
f 443 442 441
f 443 441 5
f 442 448 445
f 296 78 295
f 326 12 172
f 575 574 364
f 47 175 176
f 175 177 176
f 47 176 179
