# FEM surface export ¡ª frame 432
# Vertices: 642  Faces: 1280
v -0.51807082 1.09150887 -0.00312934
v 0.51873702 1.09092855 -0.00039253
v -0.51073188 0.04365682 -0.04479568
v 0.55597156 0.17320184 0.00721708
v 0.00723242 0.00000000 0.98994231
v 0.00109667 0.82637811 0.86621970
v 0.00139211 0.00000000 -1.00638080
v -0.00049938 0.82472861 -0.86584294
v 0.90763360 0.36453682 -0.55874056
v 0.90789795 0.35817018 0.55761331
v -0.90274841 0.35153267 -0.55707932
v -0.90230900 0.35860726 0.55911106
v -0.82558244 0.80340600 0.31409153
v -0.51814842 0.63755649 0.84023905
v -0.30606207 1.05852127 0.49302980
v 0.30674234 1.05884290 0.49542770
v 0.00008885 1.20183229 -0.00122443
v 0.30509594 1.05959666 -0.49463707
v -0.30682436 1.05850339 -0.49592111
v -0.51894885 0.63226253 -0.83952492
v -0.82639158 0.80028659 -0.31626970
v -1.06478739 0.35951585 0.00542258
v 0.52120048 0.63366377 0.84132564
v 0.82677221 0.80359763 0.31610158
v -0.54751813 0.09173786 0.88849449
v 0.00313336 0.36098015 1.06523895
v -0.93868011 0.00000000 -0.36553302
v -0.95898044 0.00000000 0.36137488
v -0.00048075 0.36276782 -1.06235027
v -0.55173373 0.09789509 -0.89051431
v 0.82707387 0.80185562 -0.31510964
v 0.51800913 0.63714117 -0.84190458
v 0.94395530 0.00000000 0.34756893
v 0.55219960 0.09543769 0.87936306
v 0.32336229 0.01281149 0.56279147
v -0.36290517 0.04148461 0.54324800
v -0.00388909 0.02216243 0.02625638
v -0.33522773 0.01877381 -0.49811232
v 0.31613538 0.00442139 -0.51501137
v 0.54920185 0.11427563 -0.89633465
v 0.94159031 0.00002437 -0.34624073
v 1.06852746 0.36255938 -0.00237443
v -0.69390994 0.97290003 0.15803982
v -0.58848625 0.96220887 0.42375979
v -0.42703506 1.10069597 0.25305998
v -0.73732466 0.50585556 0.72982436
v -0.70792985 0.74139601 0.60231501
v -0.89931077 0.59392756 0.45174474
v -0.15992063 0.96430451 0.70201361
v -0.43111172 0.87899923 0.69383669
v -0.26578677 0.74770647 0.88598484
v -0.15721206 1.16647875 0.25476602
v -0.26471993 1.17541575 -0.00127160
v 0.16029918 0.96391332 0.70282233
v -0.00015796 1.09048057 0.51772738
v 0.26500234 1.17422271 -0.00081442
v 0.15937202 1.16872776 0.25553992
v 0.42808232 1.10030520 0.25547978
v -0.15812331 1.16692185 -0.25770023
v -0.42634958 1.10035920 -0.25795838
v 0.42742831 1.10129046 -0.25611144
v 0.15791348 1.16812158 -0.25715411
v -0.16148034 0.96459883 -0.70245087
v 0.00098080 1.09065998 -0.51822633
v 0.15995136 0.96541399 -0.70311409
v -0.59006041 0.95836598 -0.42694849
v -0.69392735 0.97066116 -0.16263060
v -0.26684251 0.74334407 -0.88459295
v -0.43046060 0.87654853 -0.69633490
v -0.89884382 0.59069365 -0.45339993
v -0.70627344 0.73450863 -0.60254037
v -0.73583871 0.49966988 -0.72917140
v -0.86571348 0.82405472 -0.00183107
v -1.02100563 0.35433528 -0.28515613
v -0.99291730 0.59327555 -0.17104907
v -0.98941392 0.59531981 0.16797958
v -1.02163053 0.35510552 0.29304561
v 0.59013110 0.95889783 0.42646533
v 0.69423729 0.97240609 0.16081144
v 0.26867980 0.74501163 0.88714242
v 0.43206716 0.87556136 0.69657099
v 0.90322739 0.59238589 0.45322916
v 0.71048790 0.73885071 0.60612893
v 0.74192053 0.50574863 0.72831702
v -0.27556267 0.50786436 1.00162673
v 0.00139683 0.60714281 1.00473762
v -0.75269747 0.21920277 0.74459261
v -0.55622339 0.36361298 0.90269899
v -0.00391837 0.13570774 1.04533195
v -0.28053886 0.21875517 1.02019751
v -0.28884640 0.00127171 0.98405844
v -1.02650774 0.12031320 0.17675057
v -0.93281960 0.12600279 0.47449768
v -0.93889284 0.12860794 -0.46541277
v -1.03768921 0.12738316 -0.17320716
v -0.77793461 0.02648815 0.13908607
v -0.99807751 0.00000000 -0.02222621
v -0.76040882 0.08101530 -0.18880469
v -0.56005448 0.36259133 -0.90078455
v -0.75516683 0.21720438 -0.74031305
v 0.00048256 0.60398859 -1.00064754
v -0.27506831 0.50392944 -0.99844676
v -0.29927897 0.00000000 -0.98134279
v -0.28666148 0.21994975 -1.02637851
v -0.00160472 0.13364579 -1.05785918
v 0.43148205 0.87791175 -0.69711506
v 0.26691583 0.74518669 -0.88619471
v 0.69474393 0.97214139 -0.16133688
v 0.58948696 0.95969641 -0.42460787
v 0.73786348 0.50618643 -0.73079294
v 0.70883930 0.73756188 -0.60561579
v 0.90158725 0.59520853 -0.45413974
v 0.78137010 0.08306108 0.16497487
v 0.66508925 0.00070274 0.47980231
v 0.45730802 0.08275402 0.27000421
v 0.76418042 0.21449444 0.74809921
v 0.78047884 0.00127901 0.64460683
v 0.94524783 0.13516249 0.46879780
v 0.17063501 0.00000000 0.82337022
v 0.51158994 0.00000000 0.81285191
v 0.29764745 0.00113666 0.98404586
v 0.16454959 0.08589809 0.30008242
v 0.26614282 0.02953768 0.00774302
v -0.21581535 0.00151687 0.79290372
v -0.03204137 0.03546339 0.57501268
v -0.27735251 0.05870942 0.04759717
v -0.18389121 0.04728134 0.26834935
v -0.45185149 0.00697487 0.23448913
v 0.13987033 0.04716410 -0.26001501
v 0.46470723 0.04314364 -0.24644847
v -0.42295766 0.03165931 -0.25617221
v -0.14815217 0.02409847 -0.18913016
v 0.22042879 0.00045973 -0.76711118
v -0.01005560 0.00010049 -0.51563555
v -0.16642341 0.00126710 -0.78753108
v 0.65302807 0.04083963 -0.46215743
v 0.76535189 0.12143838 -0.16750787
v 0.29166073 0.01913988 -0.99109113
v 0.51370215 0.00000000 -0.81343710
v 0.93962890 0.13411829 -0.47090244
v 0.78925985 0.01819712 -0.67522603
v 0.76377285 0.22391894 -0.75136429
v 0.98806822 0.00000000 -0.00625739
v 1.02546453 0.36333013 -0.29235744
v 1.02451944 0.13078365 -0.17767110
v 1.03292572 0.12923549 0.17183930
v 1.02779126 0.36071426 0.28787664
v 0.28227958 0.21552490 1.01920879
v 0.56344610 0.35785824 0.90240538
v 0.28025582 0.50555736 1.00042617
v -0.68895727 0.00000000 0.47042909
v -0.50669205 0.00043567 0.79562289
v -0.78235251 0.01646220 0.67835736
v -0.48595744 0.00004332 -0.79471987
v -0.66491681 0.07047889 -0.47645873
v -0.79501373 0.04237152 -0.66568953
v 0.55772340 0.36086175 -0.90186167
v 0.28530791 0.22918290 -1.02480972
v 0.27483296 0.50624478 -0.99896204
v 0.99377024 0.59560966 0.16811137
v 0.99234533 0.59699994 -0.16904584
v 0.86671036 0.82563233 0.00066555
v -0.61009389 1.03917575 0.07852110
v -0.56538469 1.04602206 0.20863907
v -0.47584897 1.10197449 0.12672012
v -0.71482360 0.89014304 0.37263009
v -0.64675063 0.97297931 0.29302558
v -0.76622981 0.89417690 0.23621811
v -0.36946681 1.08550620 0.37582189
v -0.51175016 1.03792489 0.34131235
v -0.45118335 1.01829672 0.46323290
v -0.82778352 0.43292993 0.65141237
v -0.82992661 0.55270505 0.59889954
v -0.91019756 0.47872734 0.51105416
v -0.62142497 0.69385183 0.73024839
v -0.73085880 0.62735456 0.67299491
v -0.63447136 0.57445067 0.79285461
v -0.86939126 0.70345080 0.38543558
v -0.81110072 0.67071426 0.53321302
v -0.77604187 0.77952582 0.46357173
v -0.08138382 0.90019494 0.79068851
v -0.21485847 0.86290729 0.80292702
v -0.13296415 0.78977257 0.88527828
v -0.37115252 0.97631401 0.59986597
v -0.29712147 0.92674816 0.70530635
v -0.23539037 1.01684511 0.60196400
v -0.39522466 0.69858336 0.87176222
v -0.35322809 0.81839925 0.79699868
v -0.48030090 0.76621372 0.77535039
v -0.65526825 0.86026061 0.51837724
v -0.57633293 0.81692642 0.65678149
v -0.51565802 0.92867047 0.56517088
v -0.34999901 1.14667356 0.12677585
v -0.39378801 1.13911104 -0.00155267
v -0.23319580 1.12275934 0.37741920
v -0.29491937 1.14011264 0.25647864
v -0.13348070 1.19881952 -0.00182775
v -0.21291173 1.17784500 0.12787747
v -0.07924572 1.19468904 0.12851629
v 0.08210050 0.89933723 0.78969908
v -0.00008176 0.97153097 0.71044439
v 0.15349106 1.08196986 0.51173371
v 0.08031260 1.03407109 0.61431646
v 0.23648423 1.01670563 0.60346991
v -0.07882889 1.03343606 0.61439192
v -0.15385753 1.08305156 0.51143122
v 0.39559555 1.13969207 -0.00041646
v 0.35035527 1.14633703 0.12866679
v 0.47697243 1.10225630 0.12775758
v 0.08036942 1.19286227 0.12821954
v 0.21457238 1.17912614 0.12940794
v 0.13373795 1.19795871 -0.00113102
v 0.37185210 1.08610725 0.37802422
v 0.29434526 1.14158583 0.25820291
v 0.23434871 1.12155712 0.37850752
v -0.08112498 1.14010584 0.39118856
v 0.07943641 1.13941896 0.38966179
v -0.00054069 1.17716789 0.25762692
v -0.34932870 1.14663756 -0.13085188
v -0.47551376 1.10154390 -0.13108784
v -0.07937872 1.19482589 -0.13038686
v -0.21349940 1.17999709 -0.13075289
v -0.37066168 1.08444345 -0.37978330
v -0.29413575 1.14056039 -0.25985229
v -0.23395289 1.12205994 -0.37962481
v 0.47692719 1.10374594 -0.12902984
v 0.35043260 1.14900136 -0.12969315
v 0.23363023 1.12349856 -0.37913591
v 0.29464641 1.14216161 -0.25868654
v 0.36944541 1.08634162 -0.37856323
v 0.21358874 1.17959940 -0.12982926
v 0.07940442 1.19529021 -0.13037318
v -0.08222713 0.90002108 -0.79070002
v 0.00028361 0.97290432 -0.71199858
v 0.08191343 0.89913714 -0.79137015
v -0.15458785 1.08226144 -0.51256514
v -0.08083384 1.03565192 -0.61618429
v -0.23692323 1.01755059 -0.60367632
v 0.23531677 1.01834834 -0.60378981
v 0.08015591 1.03627479 -0.61592948
v 0.15341243 1.08357894 -0.51249534
v 0.00002359 1.17679000 -0.25940603
v 0.08098514 1.13964319 -0.39000899
v -0.07985798 1.13888943 -0.39162049
v -0.56529701 1.04514349 -0.21396270
v -0.61098623 1.03841102 -0.08292355
v -0.45242828 1.01562798 -0.46784911
v -0.51186252 1.03684473 -0.34568423
v -0.76656908 0.89170164 -0.24133447
v -0.64818466 0.97186834 -0.29745740
v -0.71566331 0.88711900 -0.37646499
v -0.13459086 0.78774124 -0.88328761
v -0.21544372 0.86207384 -0.80318385
v -0.47891533 0.76018178 -0.77633524
v -0.35253784 0.81499040 -0.79842824
v -0.39602032 0.69219863 -0.87011939
v -0.29806149 0.92574078 -0.70771223
v -0.37242290 0.97567964 -0.60282373
v -0.90928280 0.47249687 -0.51166755
v -0.82726324 0.54563624 -0.59781879
v -0.82542408 0.42513686 -0.65040427
v -0.77523994 0.77278954 -0.46436423
v -0.80915087 0.66646546 -0.53252041
v -0.86991179 0.69836903 -0.38684583
v -0.63346982 0.57066309 -0.79087210
v -0.72946668 0.62176996 -0.67163914
v -0.62074542 0.68962139 -0.72900963
v -0.51714730 0.92309958 -0.56818300
v -0.57548785 0.81106079 -0.65952265
v -0.65608770 0.85409564 -0.52051139
v -0.70272118 0.97961950 -0.00210165
v -0.85606456 0.81751418 -0.16147250
v -0.78715724 0.90346885 -0.08414479
v -0.78687662 0.90471959 0.07926604
v -0.85417157 0.81836551 0.15762636
v -0.97028917 0.35381413 -0.42573258
v -0.97374642 0.47406986 -0.37764853
v -1.03780484 0.47735110 -0.08582450
v -1.02022111 0.47719264 -0.23125643
v -1.05206263 0.35877916 -0.14256792
v -0.95518619 0.59271896 -0.31492722
v -0.91875643 0.70077062 -0.24730070
v -0.97293544 0.47647950 0.37871525
v -0.97130632 0.35746902 0.43146017
v -0.91866058 0.70403939 0.24481770
v -0.95417273 0.59835148 0.31336653
v -1.05134976 0.35962337 0.14997667
v -1.01652825 0.48050818 0.23452094
v -1.04111934 0.47951841 0.08826653
v -0.94078207 0.71439981 -0.08670441
v -1.00629306 0.59737116 -0.00011126
v -0.94113141 0.71591902 0.08210480
v 0.56611031 1.04624581 0.21065810
v 0.61069614 1.03769720 0.07993995
v 0.45278436 1.01674139 0.46686524
v 0.51411206 1.03762257 0.34375605
v 0.76760179 0.89433187 0.23977059
v 0.64872825 0.97348917 0.29603812
v 0.71622264 0.88925827 0.37573099
v 0.13537091 0.78963828 0.88559872
v 0.21744403 0.86222589 0.80364066
v 0.48285806 0.76352221 0.77941954
v 0.35413608 0.81478161 0.79818887
v 0.39845586 0.69370228 0.87374359
v 0.29750055 0.92528826 0.70709735
v 0.37290776 0.97477007 0.60231698
v 0.91278183 0.47523761 0.51059592
v 0.83284956 0.55139428 0.59774870
v 0.82962555 0.43035585 0.64892000
v 0.77744722 0.77575535 0.46467215
v 0.81281054 0.66946346 0.53502005
v 0.87409544 0.70346159 0.38766059
v 0.63656086 0.57084781 0.79498917
v 0.73294920 0.62461114 0.67626852
v 0.62396330 0.69089919 0.73290634
v 0.51833540 0.92517191 0.56865335
v 0.57660359 0.81278515 0.65855259
v 0.65701789 0.85738462 0.52111429
v -0.13523158 0.67911988 0.95635545
v 0.00125246 0.72056276 0.94288516
v -0.40284374 0.57671827 0.93239272
v -0.27417552 0.63026088 0.95252198
v 0.00310091 0.48448643 1.04536295
v -0.13787854 0.55823815 1.01295841
v -0.14026508 0.43631154 1.04854155
v -0.83587646 0.28510022 0.65666765
v -0.75381905 0.36114761 0.74500626
v -0.55693108 0.22481656 0.90350729
v -0.66163892 0.29257488 0.83142179
v -0.65662456 0.15419748 0.82396817
v -0.65308744 0.43589935 0.82503432
v -0.54372936 0.50405073 0.88424951
v 0.00130451 0.04224142 1.02834523
v -0.14830261 0.06411217 1.01831806
v -0.13751638 0.00000000 0.99936867
v -0.13980940 0.29189736 1.05690205
v -0.14724052 0.17496812 1.04688740
v 0.00097213 0.24104631 1.06381094
v -0.41887668 0.05091225 0.94798285
v -0.28940624 0.10112499 1.00207448
v -0.41855079 0.15417689 0.96727389
v -0.42059353 0.43554860 0.96616948
v -0.42538238 0.28755850 0.97584438
v -0.28221789 0.36135596 1.02479100
v -0.99523944 0.24038909 0.38968661
v -0.92445385 0.23809229 0.52041781
v -1.05936074 0.23749508 0.09290417
v -1.03537452 0.23661268 0.23737864
v -0.94930601 0.03799727 0.42682663
v -0.99290442 0.12321002 0.33117381
v -0.99483591 0.02912700 0.26402766
v -0.92926490 0.23714523 -0.51611102
v -0.98891658 0.23937868 -0.37949142
v -1.01194477 0.04435365 -0.25651759
v -0.99622911 0.12986705 -0.32385883
v -0.95128947 0.02834885 -0.41410398
v -1.03424287 0.23822005 -0.23052780
v -1.06136894 0.24394469 -0.08159213
v -0.65392333 0.00000000 0.04722716
v -0.75552183 0.00000000 -0.05712661
v -0.61003733 0.01631698 -0.14721835
v -0.98768675 0.00000000 0.17588244
v -0.88917899 0.00000000 0.06242882
v -0.87552553 0.00000000 0.24848700
v -0.85227180 0.00037609 -0.26665530
v -0.89372987 0.00193723 -0.12385416
v -0.98626089 0.00000000 -0.19682942
v -1.04869330 0.12246344 0.00075920
v -1.05315721 0.02895237 -0.08776660
v -1.04400694 0.02298165 0.09080140
v -0.75309217 0.35552028 -0.74317521
v -0.83618629 0.28064334 -0.65296435
v -0.54502386 0.49771711 -0.87996191
v -0.65374428 0.42846641 -0.82208294
v -0.66610026 0.15845156 -0.82491851
v -0.66334939 0.28543007 -0.83115530
v -0.56448478 0.22582893 -0.90432012
v 0.00033371 0.71854389 -0.94073772
v -0.13522857 0.67849821 -0.95493770
v -0.14041145 0.43399143 -1.04482186
v -0.13846932 0.55675954 -1.00882316
v -0.00012493 0.48445722 -1.04187894
v -0.27307847 0.62787831 -0.94995463
v -0.40117553 0.57114184 -0.92868561
v -0.15604441 0.00000000 -1.01344836
v -0.14879364 0.06537648 -1.03567100
v -0.00232432 0.03041629 -1.04662693
v -0.42315990 0.15667006 -0.97363800
v -0.29060140 0.10485150 -1.00621665
v -0.42997611 0.05064990 -0.94141209
v -0.00088298 0.24307165 -1.06596303
v -0.14558488 0.17385849 -1.04774630
v -0.14446023 0.29184461 -1.05753398
v -0.42170617 0.43212849 -0.96145189
v -0.28608236 0.36159056 -1.02411020
v -0.43053910 0.28635985 -0.97456557
v 0.21642826 0.86174572 -0.80196959
v 0.13420075 0.78850704 -0.88439143
v 0.37116686 0.97684735 -0.60162985
v 0.29758886 0.92769021 -0.70631242
v 0.39648432 0.69645554 -0.87109661
v 0.35362592 0.81713551 -0.79765046
v 0.48157859 0.76264125 -0.77589947
v 0.61150485 1.03840864 -0.08121365
v 0.56593877 1.04681778 -0.21079816
v 0.71619523 0.88871485 -0.37464935
v 0.64807427 0.97365093 -0.29537520
v 0.76811683 0.89290869 -0.23956333
v 0.51276672 1.03810930 -0.34350619
v 0.45196909 1.01794219 -0.46724266
v 0.83103049 0.43552503 -0.65202659
v 0.83155972 0.55396885 -0.60079998
v 0.91391402 0.48111713 -0.51012719
v 0.62129933 0.69134772 -0.73078978
v 0.72978449 0.62456280 -0.67351103
v 0.63246548 0.57186145 -0.79291505
v 0.87059820 0.70202398 -0.38596183
v 0.81274956 0.67039126 -0.53515714
v 0.77596790 0.77560419 -0.46494144
v 0.51728183 0.92623502 -0.56764436
v 0.65714580 0.85599738 -0.52017325
v 0.57598239 0.81359357 -0.65842378
v 0.65463412 0.12939809 0.08866580
v 0.62750530 0.06541471 0.22288677
v 0.50416839 0.12737495 0.14831866
v 0.81441224 0.00152959 0.42605007
v 0.72343349 0.07865747 0.32833645
v 0.87018067 0.07340854 0.26605213
v 0.39803541 0.00000000 0.41269854
v 0.56995660 0.02203547 0.38054162
v 0.49350610 0.01766242 0.52967703
v 0.84366375 0.28353527 0.65902930
v 0.86630601 0.17163062 0.62113833
v 0.92984140 0.24312595 0.52120441
v 0.67710906 0.03420770 0.77898240
v 0.77260578 0.09660865 0.70461428
v 0.66598260 0.14723535 0.81905591
v 0.94867450 0.04709712 0.41776037
v 0.87725556 0.06799535 0.57198530
v 0.87246305 0.00000000 0.50899655
v 0.08930432 0.01454991 0.92598969
v 0.25916484 0.00000000 0.93918705
v 0.15483421 0.00000000 1.01144409
v 0.41478303 0.01397587 0.69302440
v 0.33567148 0.00086967 0.81401950
v 0.24581157 0.00238412 0.69401574
v 0.42724228 0.04217838 0.94340843
v 0.41538349 0.00000000 0.91226202
v 0.54316348 0.00000000 0.87589055
v 0.75653911 0.00000000 0.60664111
v 0.66670388 0.00000000 0.75650597
v 0.58993942 0.00000409 0.65276277
v 0.36749947 0.01045363 0.12401056
v 0.42559496 0.05583086 -0.00846972
v 0.23726891 0.00402738 0.42413890
v 0.31562462 0.03372323 0.27771065
v 0.13718295 0.02204692 0.01770167
v 0.20623989 0.03934254 0.14777935
v 0.08039196 0.06719895 0.15130989
v -0.10815708 0.00000710 0.92605090
v -0.02666742 0.00224635 0.82121485
v -0.19511129 0.08231498 0.57711822
v -0.10991138 0.06013786 0.70738596
v -0.28648043 0.06998238 0.67478180
v 0.07060786 0.02482240 0.70257497
v 0.14056277 0.00563492 0.55961621
v -0.38620466 0.07278620 0.02996148
v -0.38009092 0.15623432 0.13097769
v -0.52167428 0.09761348 0.09291486
v -0.09455498 0.06455486 0.13394637
v -0.22376256 0.17991579 0.15817493
v -0.15110545 0.07576429 0.04469667
v -0.43584105 0.05457791 0.40964043
v -0.30922312 0.06029854 0.25900739
v -0.28364670 0.13438106 0.41854727
v 0.07260402 0.12572788 0.45297101
v -0.10774323 0.14499210 0.43610036
v -0.01373321 0.03882149 0.30066127
v 0.36420316 0.03887171 -0.11148924
v 0.50076306 0.13116869 -0.13292657
v 0.08083172 0.04767296 -0.11206689
v 0.19914638 0.02182204 -0.12618701
v 0.40324160 0.05622520 -0.37556824
v 0.30092853 0.01283990 -0.24397939
v 0.23874342 0.00597275 -0.36395359
v -0.44074672 0.03459725 -0.14209896
v -0.33865613 0.02033686 -0.09546658
v -0.24711281 0.00986876 -0.32735538
v -0.29175177 0.03132617 -0.20346440
v -0.37882930 0.01974948 -0.37091836
v -0.25242785 0.07296192 -0.09189123
v -0.10934662 0.05269633 -0.10174345
v 0.10696654 0.00325171 -0.89106840
v 0.02801263 0.00015386 -0.78210580
v -0.08087515 0.02206401 -0.89793694
v 0.17802244 0.01664611 -0.51120704
v 0.12308078 0.00000000 -0.63779318
v 0.28158611 0.01094536 -0.61300468
v -0.24511291 0.00000000 -0.64115459
v -0.07123101 0.01793811 -0.66010481
v -0.15062767 0.02647149 -0.50454462
v 0.01041259 0.06754913 -0.22941911
v -0.07545891 0.00125709 -0.34584025
v 0.08041256 0.03285147 -0.35956693
v 0.62391239 0.14872630 -0.23331843
v 0.65414739 0.16747974 -0.08571670
v 0.50791287 0.00811657 -0.48954087
v 0.55992877 0.08792843 -0.36476305
v 0.86158055 0.04801697 -0.26312909
v 0.72403789 0.10679642 -0.32166430
v 0.79938763 0.03844166 -0.41872060
v 0.14807682 0.00000000 -1.00860202
v 0.26060963 0.00092180 -0.91419721
v 0.53938919 0.00643465 -0.87599289
v 0.40974182 0.00000000 -0.92126811
v 0.42781448 0.05896604 -0.95732868
v 0.36564681 0.03427231 -0.79624826
v 0.42400545 0.01460517 -0.66542101
v 0.93350273 0.24961291 -0.51752967
v 0.86659753 0.18371901 -0.61891592
v 0.84459448 0.29578447 -0.65831560
v 0.87449890 0.00000000 -0.51545000
v 0.87758380 0.07398176 -0.57883954
v 0.96103972 0.04916244 -0.42595923
v 0.66056848 0.16426322 -0.82773399
v 0.77280408 0.11233845 -0.71551633
v 0.68005198 0.06223468 -0.79843748
v 0.58470446 0.00000000 -0.64151138
v 0.66564471 0.00000000 -0.76477355
v 0.73313332 0.00029723 -0.59851050
v 0.78805876 0.10205018 0.00329503
v 0.97392571 0.00002341 -0.18626991
v 0.88430458 0.07904758 -0.09094690
v 0.91569120 0.04915076 0.08938204
v 0.97573864 0.00000000 0.17814410
v 0.97433162 0.36351043 -0.42910895
v 0.99319565 0.24846652 -0.38427389
v 1.06093991 0.24001908 -0.08898828
v 1.03444064 0.24328512 -0.23501766
v 1.05628407 0.35961410 -0.14792353
v 0.99395043 0.13507895 -0.33055079
v 1.00532734 0.06845210 -0.27049449
v 0.99830633 0.24186444 0.38521931
v 0.97719568 0.35539696 0.42670116
v 1.00673914 0.05500907 0.25921288
v 0.99849635 0.13376319 0.32311136
v 1.05510831 0.35934117 0.14275037
v 1.04245126 0.24237038 0.23420009
v 1.06037605 0.24134304 0.08570991
v 1.03132963 0.03305770 -0.10127840
v 1.04690075 0.12159260 -0.00147062
v 1.03094292 0.02653202 0.08341013
v 0.14894018 0.05475669 1.01618433
v 0.41896889 0.15091223 0.96284717
v 0.29458022 0.09413710 0.99462855
v 0.14337443 0.16397594 1.03579342
v 0.14462236 0.28553912 1.05575860
v 0.75806046 0.36052388 0.74534506
v 0.55142039 0.49804035 0.88875997
v 0.66000879 0.43451694 0.82411665
v 0.66591239 0.28430206 0.83085024
v 0.56128496 0.21670991 0.89900893
v 0.13802904 0.67915833 0.95729041
v 0.14609760 0.43275645 1.04886496
v 0.14190170 0.55646527 1.01191974
v 0.27640069 0.62969857 0.95399082
v 0.40584186 0.57216787 0.93171799
v 0.43173906 0.28515369 0.97477812
v 0.42710239 0.43098122 0.96883512
v 0.28801441 0.35873246 1.02854109
v -0.61276513 0.01640948 0.19764310
v -0.53203982 0.00514657 0.52043432
v -0.58834982 0.01614291 0.36252454
v -0.73609239 0.03047495 0.30069718
v -0.81872100 0.01596001 0.41528302
v -0.24996243 0.00000000 0.93637431
v -0.52805620 0.00024429 0.88674080
v -0.39983124 0.00000000 0.92321360
v -0.36151764 0.00056867 0.82420391
v -0.43980810 0.02148620 0.67871964
v -0.85206354 0.16983823 0.61680788
v -0.87133217 0.00000000 0.52797925
v -0.86219561 0.06161621 0.57370830
v -0.76291662 0.10565936 0.70976180
v -0.66537875 0.04035662 0.79195076
v -0.61032641 0.00000000 0.64379972
v -0.66134119 0.00000000 0.76891655
v -0.75921130 0.00000000 0.60970116
v -0.25186527 0.00000853 -0.93595034
v -0.38235667 0.05964939 -0.65804678
v -0.32889956 0.00044402 -0.80555201
v -0.41050288 0.00000000 -0.92994970
v -0.55226469 0.00002760 -0.88589978
v -0.58788276 0.10348036 -0.23388648
v -0.80045462 0.00000000 -0.41982523
v -0.70660198 0.06111258 -0.33426824
v -0.52211267 0.02719513 -0.37502027
v -0.48386306 0.08304399 -0.50183034
v -0.86068022 0.17256603 -0.61579901
v -0.67897457 0.05355106 -0.79614294
v -0.77776432 0.10554802 -0.70937049
v -0.88344556 0.07648529 -0.57165045
v -0.88084275 0.00000000 -0.52642286
v -0.57570875 0.01885525 -0.63370335
v -0.75506485 0.00000000 -0.60059398
v -0.66763639 0.00000000 -0.76381087
v 0.75735319 0.36285669 -0.74594802
v 0.56121773 0.23041521 -0.90581244
v 0.66665500 0.29351974 -0.83168256
v 0.65567833 0.43277791 -0.82566381
v 0.54514390 0.50081134 -0.88354039
v 0.14548598 0.07302558 -1.04450047
v 0.14289771 0.29113734 -1.05776083
v 0.14441261 0.18201096 -1.05368018
v 0.29081410 0.11316076 -1.02303243
v 0.42385274 0.16133894 -0.97425294
v 0.13638006 0.67841780 -0.95414901
v 0.40224808 0.57462204 -0.93161654
v 0.27455378 0.62972075 -0.95109469
v 0.13797450 0.55604869 -1.00835502
v 0.14044300 0.43285185 -1.04207170
v 0.42995286 0.28752688 -0.97383547
v 0.28448617 0.36380810 -1.02375352
v 0.42115077 0.43634287 -0.96436501
v 0.97924775 0.47632295 0.37966731
v 1.04495656 0.47734901 0.08634479
v 1.02573180 0.48226485 0.23292318
v 0.95802379 0.59682357 0.31495345
v 0.92164987 0.70452857 0.24554162
v 0.97192824 0.48180354 -0.37648433
v 0.91942722 0.70509219 -0.24617359
v 0.95606887 0.59777260 -0.31403029
v 1.01835394 0.48263836 -0.23207743
v 1.04428864 0.48223415 -0.08779086
v 0.70296484 0.97984731 -0.00021748
v 0.85701072 0.82031959 0.15989627
v 0.78790879 0.90592444 0.08266864
v 0.78827435 0.90486962 -0.08171128
v 0.85753393 0.81868863 -0.15826093
v 1.00569308 0.59744763 0.00063982
v 0.94391942 0.71696657 -0.08439524
v 0.94352627 0.71746224 0.08508745
f 330 87 329
f 336 325 26
f 207 208 56
f 464 36 580
f 502 129 504
f 157 624 622
f 308 311 82
f 247 223 248
f 507 483 508
f 331 88 329
f 494 500 497
f 156 601 602
f 591 589 592
f 365 98 596
f 75 281 282
f 152 587 577
f 149 559 560
f 555 121 553
f 530 141 529
f 515 517 139
f 361 594 98
f 250 67 249
f 157 608 609
f 294 293 209
f 317 81 316
f 557 338 26
f 303 305 81
f 530 529 528
f 101 381 382
f 415 418 111
f 192 184 50
f 412 110 411
f 20 384 256
f 131 594 486
f 281 264 282
f 347 287 348
f 28 349 582
f 165 163 1
f 248 250 66
f 617 107 398
f 273 271 274
f 456 115 453
f 558 561 560
f 335 576 91
f 331 177 332
f 116 433 436
f 351 370 92
f 136 511 530
f 239 240 65
f 247 258 19
f 304 23 567
f 148 557 570
f 214 208 58
f 440 426 450
f 268 270 269
f 258 247 268
f 204 202 16
f 466 125 465
f 517 513 133
f 168 275 274
f 275 73 274
f 198 193 53
f 309 308 307
f 510 511 136
f 415 416 110
f 131 490 597
f 473 475 474
f 414 415 111
f 493 495 494
f 496 504 485
f 433 116 432
f 600 375 601
f 240 234 65
f 418 415 412
f 486 361 3
f 567 566 304
f 380 393 29
f 17 199 197
f 491 492 132
f 451 449 435
f 218 217 216
f 623 621 613
f 396 104 395
f 433 439 436
f 628 160 627
f 215 202 217
f 209 207 2
f 427 113 424
f 434 10 544
f 434 433 432
f 199 17 210
f 150 564 565
f 489 491 132
f 275 13 285
f 497 500 134
f 125 466 476
f 578 152 577
f 208 214 211
f 328 88 343
f 356 27 603
f 150 566 567
f 372 100 371
f 190 191 47
f 235 8 398
f 260 261 72
f 422 403 414
f 422 414 111
f 453 454 123
f 349 583 582
f 521 520 519
f 425 453 115
f 616 622 158
f 483 130 508
f 151 586 572
f 212 17 232
f 400 397 402
f 377 396 99
f 41 522 511
f 510 508 505
f 549 547 42
f 475 473 36
f 510 137 509
f 222 221 197
f 430 115 429
f 220 194 1
f 305 54 204
f 621 29 613
f 192 171 184
f 460 335 5
f 88 331 332
f 74 277 279
f 300 301 80
f 390 389 388
f 165 45 164
f 146 549 551
f 291 278 75
f 448 120 445
f 147 543 544
f 607 610 609
f 603 602 356
f 139 529 514
f 333 553 443
f 92 368 347
f 261 260 259
f 300 6 200
f 46 177 331
f 284 283 174
f 301 300 200
f 471 468 474
f 54 305 301
f 302 304 303
f 569 150 567
f 150 569 570
f 294 209 2
f 628 629 160
f 548 543 147
f 147 625 627
f 63 233 234
f 426 427 114
f 41 509 532
f 198 52 196
f 614 105 612
f 147 627 547
f 81 305 306
f 549 548 547
f 54 301 200
f 342 88 332
f 264 281 70
f 193 194 53
f 455 429 456
f 187 321 14
f 479 130 484
f 147 544 625
f 458 456 453
f 304 80 303
f 314 84 313
f 488 503 501
f 321 332 14
f 423 425 424
f 305 204 306
f 341 339 25
f 514 40 516
f 625 628 627
f 340 339 341
f 105 614 391
f 243 228 62
f 318 316 78
f 75 278 279
f 357 355 353
f 238 257 63
f 466 455 476
f 425 423 4
f 448 449 120
f 408 638 108
f 292 275 285
f 22 278 289
f 515 513 517
f 501 503 134
f 622 623 158
f 134 503 504
f 195 216 206
f 163 271 246
f 619 617 620
f 62 228 229
f 163 165 164
f 453 425 454
f 489 132 488
f 82 628 625
f 58 208 209
f 525 608 40
f 626 547 627
f 518 517 498
f 489 487 491
f 557 26 564
f 325 336 344
f 541 145 539
f 40 616 516
f 338 556 89
f 250 248 245
f 139 514 515
f 98 594 596
f 246 220 1
f 112 413 630
f 9 536 413
f 156 600 601
f 332 177 14
f 321 342 332
f 156 606 600
f 584 330 585
f 302 303 81
f 584 87 330
f 330 25 585
f 400 239 65
f 439 440 117
f 95 358 368
f 597 594 131
f 594 361 486
f 246 67 245
f 561 562 149
f 28 364 362
f 55 216 217
f 427 430 114
f 267 20 254
f 556 555 553
f 84 309 558
f 311 310 312
f 609 525 142
f 256 68 255
f 124 460 461
f 82 311 312
f 307 308 82
f 589 135 495
f 527 40 514
f 112 418 412
f 20 256 254
f 258 238 19
f 267 254 269
f 273 272 249
f 392 391 393
f 137 533 509
f 122 455 456
f 9 413 411
f 130 480 505
f 333 443 5
f 527 525 40
f 589 495 385
f 39 496 485
f 223 225 224
f 414 416 415
f 219 222 53
f 145 538 539
f 413 412 411
f 469 468 467
f 183 181 6
f 191 192 50
f 429 35 431
f 292 285 76
f 413 112 412
f 415 110 412
f 43 164 167
f 467 468 126
f 617 101 620
f 450 451 117
f 438 546 545
f 619 620 159
f 17 212 210
f 124 579 576
f 584 153 583
f 460 124 576
f 3 469 467
f 311 308 314
f 6 320 183
f 389 104 388
f 251 250 249
f 194 165 1
f 291 289 278
f 287 77 348
f 238 258 257
f 139 517 518
f 238 236 19
f 223 247 19
f 382 380 29
f 39 518 498
f 361 359 3
f 69 255 257
f 139 518 528
f 33 545 535
f 387 385 7
f 69 268 269
f 477 462 125
f 454 479 123
f 121 555 447
f 451 435 117
f 454 425 4
f 233 252 8
f 124 463 464
f 69 258 268
f 168 167 166
f 583 153 582
f 384 394 102
f 138 512 513
f 57 210 211
f 254 256 255
f 607 609 142
f 324 319 86
f 289 291 76
f 291 292 76
f 384 102 383
f 422 421 420
f 221 17 197
f 383 102 381
f 376 377 99
f 99 373 374
f 386 105 392
f 438 33 440
f 90 341 343
f 281 75 279
f 574 571 96
f 628 82 312
f 221 222 59
f 127 471 474
f 595 605 603
f 551 538 145
f 334 91 340
f 322 324 85
f 305 303 301
f 18 239 399
f 306 204 16
f 199 198 197
f 166 190 180
f 303 80 301
f 267 266 265
f 626 42 547
f 16 215 213
f 349 351 350
f 295 16 213
f 68 379 252
f 250 251 66
f 627 160 626
f 383 68 256
f 343 88 342
f 507 508 136
f 202 215 16
f 197 198 53
f 254 69 269
f 603 605 156
f 418 419 111
f 384 383 256
f 455 122 476
f 203 204 54
f 556 557 148
f 255 68 253
f 313 84 560
f 25 328 341
f 254 255 69
f 603 156 602
f 581 584 583
f 630 632 112
f 163 246 1
f 246 245 220
f 432 116 558
f 499 591 590
f 320 563 86
f 345 93 350
f 306 16 295
f 346 93 345
f 562 568 149
f 604 605 155
f 154 592 593
f 545 552 535
f 511 522 530
f 574 573 571
f 566 150 565
f 361 98 360
f 67 271 273
f 234 235 65
f 208 211 56
f 574 151 573
f 251 270 66
f 398 8 378
f 213 215 214
f 438 440 439
f 315 314 313
f 263 71 262
f 20 373 384
f 496 134 504
f 329 88 328
f 81 306 316
f 555 556 148
f 592 589 103
f 617 619 107
f 227 207 56
f 571 359 96
f 446 466 465
f 206 216 55
f 359 571 469
f 568 148 570
f 34 437 435
f 28 351 349
f 21 272 282
f 113 423 424
f 490 489 488
f 379 68 383
f 210 212 211
f 80 563 300
f 351 92 350
f 326 346 12
f 83 317 318
f 555 148 554
f 212 231 56
f 218 57 217
f 271 67 246
f 195 196 52
f 270 268 66
f 390 592 103
f 148 568 554
f 495 493 7
f 592 390 593
f 357 95 355
f 574 575 151
f 452 120 451
f 154 591 592
f 587 585 577
f 395 394 396
f 93 349 350
f 610 416 611
f 166 44 190
f 315 23 302
f 315 302 317
f 268 247 66
f 606 154 593
f 396 394 99
f 211 212 56
f 370 369 368
f 235 397 65
f 280 278 22
f 83 315 317
f 575 588 151
f 74 279 280
f 385 495 7
f 63 257 253
f 397 235 398
f 214 58 213
f 220 219 194
f 546 146 545
f 236 225 19
f 599 94 602
f 235 233 8
f 102 394 395
f 611 416 32
f 225 223 19
f 139 528 529
f 231 62 229
f 419 406 421
f 451 450 452
f 49 182 185
f 402 397 107
f 52 199 218
f 416 610 110
f 225 236 244
f 107 397 398
f 68 252 253
f 322 85 321
f 182 181 183
f 118 438 439
f 546 438 118
f 348 77 345
f 543 546 118
f 231 212 232
f 610 611 157
f 33 438 545
f 385 386 103
f 479 480 130
f 169 195 15
f 93 583 349
f 15 195 206
f 190 44 192
f 247 248 66
f 146 552 545
f 248 60 245
f 570 557 564
f 274 271 43
f 63 253 233
f 272 21 249
f 507 528 518
f 67 273 249
f 487 467 126
f 196 195 169
f 624 159 623
f 134 496 497
f 132 503 488
f 104 393 395
f 556 553 89
f 355 356 94
f 258 69 257
f 229 61 227
f 56 231 227
f 460 576 335
f 463 124 461
f 394 373 99
f 29 393 391
f 67 250 245
f 193 198 196
f 462 36 464
f 144 633 630
f 141 526 527
f 517 133 498
f 536 144 630
f 100 372 599
f 144 536 537
f 22 289 287
f 578 579 152
f 579 578 576
f 189 188 187
f 60 223 224
f 92 348 350
f 555 554 447
f 396 377 388
f 194 193 165
f 413 536 630
f 372 352 599
f 377 376 375
f 348 345 350
f 105 386 387
f 240 237 234
f 463 462 464
f 135 500 494
f 45 196 169
f 512 612 387
f 245 60 220
f 429 115 456
f 223 60 248
f 288 289 76
f 525 526 142
f 100 599 601
f 613 29 391
f 526 523 520
f 341 328 343
f 631 641 639
f 264 21 282
f 266 72 265
f 106 402 403
f 73 273 274
f 186 206 205
f 381 379 383
f 52 216 195
f 410 18 399
f 290 272 73
f 72 371 374
f 526 525 527
f 115 430 424
f 498 497 496
f 621 382 29
f 543 118 434
f 214 215 57
f 522 141 530
f 511 510 509
f 352 94 599
f 493 512 7
f 90 340 341
f 169 171 170
f 605 604 606
f 219 60 224
f 104 389 392
f 359 469 3
f 186 49 185
f 222 219 224
f 166 167 44
f 428 427 426
f 523 522 524
f 129 502 481
f 50 185 188
f 164 45 170
f 425 115 424
f 33 428 426
f 427 428 113
f 94 356 602
f 515 138 513
f 114 431 452
f 237 236 238
f 215 217 57
f 95 354 355
f 220 60 219
f 515 514 516
f 183 320 319
f 222 197 53
f 559 569 567
f 300 320 6
f 435 436 117
f 96 360 363
f 640 642 641
f 242 243 62
f 140 537 519
f 508 130 505
f 420 410 399
f 537 539 144
f 317 316 318
f 426 114 450
f 186 15 206
f 311 83 310
f 625 544 307
f 544 10 307
f 168 43 167
f 185 182 188
f 369 354 95
f 44 171 192
f 605 606 156
f 548 549 146
f 100 601 375
f 149 568 569
f 381 380 382
f 455 466 35
f 480 479 454
f 543 548 546
f 493 133 513
f 492 472 37
f 477 125 476
f 491 487 126
f 337 336 338
f 588 153 587
f 576 578 91
f 633 161 632
f 96 359 360
f 39 485 483
f 101 617 378
f 193 45 165
f 163 164 43
f 618 624 611
f 507 136 528
f 561 149 560
f 641 162 639
f 116 561 558
f 494 133 493
f 253 252 233
f 63 237 238
f 392 393 104
f 440 450 117
f 93 581 583
f 386 385 387
f 120 449 451
f 421 422 111
f 486 3 467
f 302 81 317
f 633 632 630
f 462 475 36
f 376 99 374
f 489 490 131
f 447 449 448
f 387 612 105
f 106 420 399
f 173 46 172
f 492 491 472
f 316 306 295
f 22 287 347
f 109 410 420
f 507 39 483
f 559 23 313
f 214 57 211
f 196 45 193
f 10 434 432
f 422 106 403
f 626 160 640
f 487 486 467
f 542 41 532
f 400 106 399
f 444 120 452
f 198 199 52
f 475 127 474
f 621 620 382
f 621 623 159
f 450 114 452
f 92 347 348
f 376 100 375
f 434 118 433
f 503 132 502
f 337 90 336
f 537 536 519
f 395 393 380
f 201 54 200
f 171 44 170
f 355 94 353
f 58 296 213
f 422 420 106
f 595 365 596
f 569 568 570
f 523 140 520
f 114 430 431
f 218 210 57
f 304 566 80
f 639 162 638
f 261 371 72
f 548 147 547
f 498 133 497
f 150 570 564
f 222 224 59
f 142 526 520
f 437 436 435
f 141 522 523
f 137 510 505
f 173 179 176
f 559 149 569
f 121 447 448
f 563 320 300
f 102 395 380
f 257 255 253
f 642 162 641
f 83 311 314
f 216 52 218
f 512 493 513
f 23 304 302
f 91 339 340
f 512 138 612
f 159 620 621
f 218 199 210
f 364 28 575
f 83 318 310
f 168 274 43
f 136 530 528
f 140 523 524
f 495 135 494
f 233 235 234
f 566 563 80
f 25 339 577
f 277 74 276
f 475 462 477
f 133 494 497
f 436 437 116
f 389 386 392
f 548 146 546
f 441 460 5
f 10 309 307
f 65 397 400
f 543 434 544
f 640 641 161
f 272 273 73
f 581 93 346
f 419 421 111
f 319 320 86
f 180 179 178
f 127 475 477
f 231 229 227
f 337 334 340
f 136 508 510
f 308 309 84
f 237 63 234
f 447 554 34
f 252 379 378
f 315 83 314
f 608 622 616
f 338 336 26
f 337 338 89
f 13 275 168
f 209 208 207
f 436 439 117
f 628 312 629
f 360 366 363
f 364 574 96
f 359 361 360
f 466 446 35
f 500 501 134
f 406 109 421
f 135 589 591
f 601 599 602
f 340 90 337
f 481 492 37
f 522 41 524
f 78 316 295
f 131 486 487
f 403 32 414
f 634 626 640
f 151 572 573
f 515 516 138
f 8 252 378
f 265 72 374
f 9 521 519
f 538 549 42
f 368 358 347
f 588 587 586
f 458 453 123
f 589 385 103
f 502 492 481
f 32 416 414
f 430 427 424
f 153 585 587
f 540 144 539
f 370 368 92
f 209 293 58
f 428 33 535
f 326 581 346
f 625 307 82
f 575 28 582
f 6 181 200
f 421 109 420
f 553 121 443
f 160 642 640
f 153 584 585
f 309 432 558
f 334 337 89
f 23 315 313
f 271 163 43
f 296 295 213
f 39 498 496
f 118 439 433
f 531 113 534
f 293 296 58
f 28 362 351
f 489 131 487
f 431 444 452
f 84 558 560
f 98 366 360
f 45 169 170
f 379 101 378
f 462 463 125
f 308 84 314
f 10 432 309
f 299 24 310
f 132 492 502
f 512 387 7
f 639 638 408
f 565 323 86
f 59 244 242
f 106 400 402
f 440 33 426
f 566 565 563
f 617 398 378
f 224 225 59
f 410 109 409
f 239 400 399
f 194 219 53
f 358 22 347
f 610 157 609
f 27 595 603
f 479 484 482
f 142 520 521
f 585 25 577
f 339 578 577
f 408 407 406
f 407 109 406
f 31 408 406
f 407 408 108
f 31 639 408
f 419 31 406
f 608 616 40
f 430 429 431
f 455 35 429
f 35 444 431
f 188 51 187
f 188 182 51
f 51 322 187
f 322 51 319
f 51 182 183
f 319 51 183
f 187 322 321
f 322 319 324
f 381 101 379
f 405 407 108
f 404 405 108
f 286 285 178
f 407 405 409
f 109 407 409
f 191 175 47
f 167 164 170
f 50 184 185
f 44 167 170
f 64 244 236
f 243 244 64
f 50 188 189
f 541 542 145
f 442 445 119
f 339 91 578
f 445 446 119
f 624 623 622
f 611 624 157
f 523 526 141
f 141 527 529
f 527 514 529
f 445 120 444
f 446 445 444
f 35 446 444
f 613 614 158
f 158 614 615
f 623 613 158
f 614 613 391
f 614 612 615
f 371 376 374
f 100 376 371
f 479 482 123
f 373 394 384
f 540 42 634
f 633 540 634
f 538 42 540
f 633 634 161
f 161 634 640
f 42 626 634
f 540 633 144
f 557 556 338
f 553 333 89
f 262 21 264
f 251 21 262
f 5 335 333
f 270 251 262
f 21 251 249
f 600 593 30
f 606 593 600
f 600 30 375
f 593 390 30
f 30 377 375
f 390 388 30
f 30 388 377
f 228 243 241
f 470 478 459
f 470 127 478
f 127 477 478
f 184 186 185
f 478 477 476
f 122 478 476
f 357 74 280
f 518 39 507
f 344 342 85
f 325 344 85
f 342 344 343
f 85 342 321
f 344 90 343
f 90 344 336
f 482 129 481
f 482 481 457
f 482 457 123
f 481 37 457
f 449 447 34
f 435 449 34
f 470 472 471
f 472 470 37
f 470 471 127
f 472 126 471
f 126 468 471
f 470 459 37
f 491 126 472
f 504 129 485
f 221 59 242
f 125 463 465
f 437 34 562
f 561 437 562
f 554 568 562
f 34 554 562
f 437 561 116
f 390 103 389
f 103 386 389
f 392 105 391
f 572 586 580
f 572 580 36
f 586 152 580
f 473 572 36
f 244 243 242
f 225 244 59
f 64 240 241
f 240 239 241
f 237 240 64
f 243 64 241
f 236 237 64
f 411 607 521
f 9 411 521
f 110 607 411
f 607 142 521
f 610 607 110
f 171 15 184
f 171 169 15
f 15 186 184
f 87 584 581
f 153 588 582
f 588 575 582
f 381 102 380
f 573 572 473
f 468 469 128
f 474 468 128
f 469 571 128
f 571 573 128
f 573 473 128
f 473 474 128
f 564 323 565
f 26 323 564
f 323 324 86
f 325 323 26
f 325 324 323
f 563 565 86
f 324 325 85
f 410 230 18
f 230 228 18
f 18 228 241
f 18 241 239
f 401 619 618
f 401 402 107
f 403 402 401
f 619 159 618
f 401 618 32
f 619 401 107
f 403 401 32
f 618 611 32
f 159 624 618
f 478 122 459
f 122 458 459
f 37 459 457
f 459 458 457
f 122 456 458
f 457 458 123
f 191 190 192
f 485 129 484
f 129 482 484
f 483 485 484
f 130 483 484
f 189 187 14
f 191 50 189
f 191 189 175
f 189 14 175
f 14 177 175
f 499 501 500
f 501 499 38
f 38 499 590
f 135 499 500
f 488 501 38
f 499 135 591
f 480 454 4
f 284 12 346
f 4 423 506
f 480 4 506
f 423 531 506
f 480 506 505
f 531 137 506
f 506 137 505
f 365 366 98
f 71 270 262
f 270 71 269
f 71 267 269
f 335 334 333
f 333 334 89
f 334 335 91
f 536 9 519
f 465 463 461
f 537 140 541
f 520 140 519
f 119 446 465
f 465 461 119
f 461 441 119
f 460 441 461
f 176 46 173
f 299 297 24
f 71 263 266
f 263 260 266
f 260 72 266
f 263 70 260
f 205 201 49
f 201 181 49
f 186 205 49
f 181 201 200
f 181 182 49
f 284 77 283
f 586 587 152
f 588 586 151
f 20 267 265
f 266 267 71
f 31 417 631
f 631 417 632
f 31 631 639
f 417 31 419
f 641 631 161
f 417 112 632
f 161 631 632
f 418 417 419
f 417 418 112
f 284 345 77
f 542 550 145
f 542 541 524
f 284 174 12
f 48 174 283
f 373 20 265
f 373 265 374
f 609 608 525
f 608 157 622
f 560 559 313
f 636 637 162
f 541 140 524
f 41 542 524
f 358 357 280
f 70 263 264
f 263 262 264
f 176 177 46
f 174 48 173
f 174 173 172
f 538 551 549
f 538 540 539
f 537 541 539
f 232 221 242
f 17 221 232
f 232 242 62
f 231 232 62
f 203 205 55
f 203 55 202
f 201 205 203
f 202 55 217
f 205 206 55
f 204 203 202
f 73 275 292
f 292 290 73
f 272 290 282
f 290 292 291
f 75 290 291
f 290 75 282
f 70 277 259
f 277 70 281
f 277 281 279
f 260 70 259
f 12 174 172
f 104 396 388
f 367 27 354
f 365 27 367
f 354 27 356
f 365 367 366
f 595 27 365
f 318 299 310
f 155 596 597
f 155 597 598
f 596 594 597
f 595 596 155
f 605 595 155
f 180 47 179
f 180 190 47
f 352 372 11
f 11 372 261
f 312 310 24
f 642 636 162
f 636 297 637
f 367 369 97
f 366 367 97
f 369 367 354
f 369 370 97
f 580 579 464
f 580 152 579
f 579 124 464
f 61 230 409
f 230 410 409
f 230 61 229
f 230 229 228
f 76 285 286
f 353 352 276
f 74 353 276
f 288 76 286
f 288 286 283
f 289 288 287
f 203 54 201
f 287 288 77
f 77 288 283
f 286 48 283
f 531 423 113
f 276 11 259
f 11 261 259
f 277 276 259
f 616 158 615
f 516 616 615
f 138 516 615
f 138 615 612
f 509 533 532
f 503 502 504
f 635 79 294
f 635 294 404
f 635 637 79
f 637 635 638
f 638 635 108
f 635 404 108
f 226 61 405
f 61 226 227
f 405 61 409
f 227 226 207
f 48 178 179
f 48 286 178
f 173 48 179
f 534 143 533
f 534 535 143
f 531 534 533
f 533 143 532
f 137 531 533
f 261 372 371
f 13 180 178
f 285 13 178
f 180 13 166
f 13 168 166
f 346 345 284
f 331 327 46
f 46 327 172
f 172 327 326
f 382 620 101
f 442 121 448
f 443 121 442
f 2 226 404
f 294 2 404
f 404 226 405
f 207 226 2
f 550 551 145
f 552 146 551
f 143 550 532
f 552 550 143
f 330 329 328
f 24 636 629
f 94 352 353
f 352 11 276
f 113 428 534
f 428 535 534
f 509 41 511
f 535 552 143
f 550 552 551
f 550 542 532
f 369 95 368
f 326 327 87
f 87 327 329
f 327 331 329
f 581 326 87
f 293 79 298
f 79 297 298
f 296 298 78
f 79 293 294
f 296 293 298
f 598 490 38
f 358 280 22
f 280 279 278
f 357 358 95
f 74 357 353
f 330 328 25
f 567 23 559
f 590 598 38
f 590 604 598
f 598 604 155
f 604 590 154
f 590 591 154
f 604 154 606
f 297 299 298
f 299 318 78
f 298 299 78
f 355 354 356
f 629 636 642
f 312 24 629
f 629 642 160
f 370 362 97
f 362 363 97
f 363 366 97
f 364 363 362
f 362 370 351
f 96 363 364
f 297 636 24
f 162 637 638
f 637 297 79
f 490 488 38
f 598 597 490
f 441 442 119
f 443 442 441
f 443 441 5
f 442 448 445
f 296 78 295
f 326 12 172
f 575 574 364
f 47 175 176
f 175 177 176
f 47 176 179
