# FEM surface export ¡ª frame 84
# Vertices: 642  Faces: 1280
v -0.52573103 1.82483160 -0.00000023
v 0.52573097 1.82483160 -0.00000005
v -0.52608407 0.12354102 -0.00001536
v 0.52598959 0.12333473 -0.00002369
v -0.00000065 0.44844943 0.85065222
v -0.00000014 1.49991190 0.85065091
v 0.00000120 0.44844827 -0.85065579
v 0.00000009 1.49991226 -0.85065079
v 0.85065091 0.97418100 -0.52573115
v 0.85065097 0.97418112 0.52573133
v -0.85065073 0.97418112 -0.52573109
v -0.85065073 0.97418112 0.52573109
v -0.80901676 1.47418082 0.30901703
v -0.50000012 1.28319824 0.80901724
v -0.30901703 1.78319824 0.50000000
v 0.30901700 1.78319812 0.50000012
v -0.00000005 1.97418094 0.00000006
v 0.30901718 1.78319800 -0.49999988
v -0.30901709 1.78319752 -0.49999979
v -0.50000018 1.28319800 -0.80901706
v -0.80901700 1.47418118 -0.30901712
v -1.00000000 0.97418100 0.00000009
v 0.50000000 1.28319788 0.80901712
v 0.80901676 1.47418082 0.30901691
v -0.50000024 0.66516417 0.80901742
v 0.00000001 0.97418112 1.00000000
v -0.80902040 0.47418064 -0.30901840
v -0.80902028 0.47418100 0.30901694
v 0.00000007 0.97418100 -0.99999982
v -0.50000060 0.66516393 -0.80901784
v 0.80901700 1.47418106 -0.30901706
v 0.50000000 1.28319812 -0.80901700
v 0.80902177 0.47418064 0.30901814
v 0.50000018 0.66516387 0.80901748
v 0.30925250 0.16517131 0.50011843
v -0.30913466 0.16511232 0.50013244
v 0.00056010 0.00000000 -0.00142711
v -0.30913541 0.16513138 -0.50017405
v 0.30917218 0.16517092 -0.50018650
v 0.50000042 0.66516393 -0.80901748
v 0.80902511 0.47418201 -0.30902076
v 1.00000024 0.97418094 0.00000008
v -0.69378030 1.67622769 0.16062216
v -0.58778524 1.66237187 0.42532545
v -0.43388858 1.83684957 0.25989193
v -0.70204645 1.13480294 0.69378060
v -0.68819094 1.39950621 0.58778501
v -0.86266834 1.23407292 0.43388852
v -0.16062206 1.66796124 0.70204622
v -0.42532554 1.56196618 0.68819094
v -0.25989193 1.40806949 0.86266875
v -0.16245964 1.92523754 0.26286554
v -0.27326667 1.93611956 -0.00000014
v 0.16062234 1.66796136 0.70204657
v 0.00000010 1.82483196 0.52573103
v 0.27326646 1.93611932 0.00000002
v 0.16245994 1.92523730 0.26286530
v 0.43388855 1.83684945 0.25989178
v -0.16245984 1.92523730 -0.26286557
v -0.43388829 1.83684969 -0.25989199
v 0.43388858 1.83684945 -0.25989199
v 0.16245988 1.92523742 -0.26286557
v -0.16062199 1.66796160 -0.70204645
v -0.00000000 1.82483208 -0.52573109
v 0.16062212 1.66796148 -0.70204622
v -0.58778524 1.66237199 -0.42532542
v -0.69378042 1.67622757 -0.16062212
v -0.25989193 1.40806961 -0.86266845
v -0.42532539 1.56196630 -0.68819094
v -0.86266845 1.23407280 -0.43388855
v -0.68819106 1.39950645 -0.58778512
v -0.70204651 1.13480306 -0.69378054
v -0.85065079 1.49991190 -0.00000009
v -0.96193838 0.97418106 -0.27326646
v -0.95105666 1.23704660 -0.16245988
v -0.95105654 1.23704648 0.16245995
v -0.96193838 0.97418106 0.27326667
v 0.58778524 1.66237199 0.42532539
v 0.69378048 1.67622781 0.16062197
v 0.25989205 1.40806961 0.86266845
v 0.42532539 1.56196618 0.68819088
v 0.86266834 1.23407269 0.43388847
v 0.68819076 1.39950621 0.58778518
v 0.70204645 1.13480294 0.69378048
v -0.26286554 1.13664091 0.95105654
v -0.00000010 1.24744773 0.96193844
v -0.70204669 0.81355911 0.69378078
v -0.52573103 0.97418118 0.85065061
v -0.00000008 0.70091438 0.96193850
v -0.26286554 0.81172121 0.95105696
v -0.25989193 0.54029220 0.86267221
v -0.95105678 0.71131539 0.16246007
v -0.86266851 0.71428925 0.43388852
v -0.86266881 0.71428919 -0.43388882
v -0.95105678 0.71131557 -0.16245997
v -0.69381166 0.27213812 0.16063270
v -0.85065526 0.44845006 0.00000136
v -0.69382548 0.27212930 -0.16062529
v -0.52573109 0.97418100 -0.85065085
v -0.70204645 0.81355906 -0.69378048
v 0.00000003 1.24744773 -0.96193838
v -0.26286557 1.13664091 -0.95105654
v -0.25989282 0.54029179 -0.86267036
v -0.26286542 0.81172115 -0.95105672
v 0.00000011 0.70091486 -0.96193886
v 0.42532530 1.56196642 -0.68819106
v 0.25989202 1.40806949 -0.86266845
v 0.69378042 1.67622757 -0.16062209
v 0.58778524 1.66237187 -0.42532539
v 0.70204651 1.13480294 -0.69378066
v 0.68819100 1.39950645 -0.58778518
v 0.86266845 1.23407292 -0.43388841
v 0.69386280 0.27211887 0.16062148
v 0.58784395 0.28597248 0.42527649
v 0.43443942 0.11106048 0.25984955
v 0.70204669 0.81355911 0.69378084
v 0.68819451 0.54885441 0.58778971
v 0.86266869 0.71428901 0.43388864
v 0.16062988 0.28036916 0.70211583
v 0.42533553 0.38638893 0.68818516
v 0.25989264 0.54029185 0.86266905
v 0.16404654 0.02363120 0.26592290
v 0.27545568 0.01423286 0.00025923
v -0.16062553 0.28038979 0.70208520
v -0.00002888 0.12339658 0.52583492
v -0.27740991 0.01365443 0.00176665
v -0.16544369 0.02342499 0.26505375
v -0.43452409 0.11136008 0.26028201
v 0.16479570 0.02383733 -0.26529878
v 0.43431774 0.11135320 -0.26006728
v -0.43422660 0.11125766 -0.26020354
v -0.16386378 0.02345526 -0.26489267
v 0.16063121 0.28039283 -0.70206785
v -0.00003389 0.12340213 -0.52587181
v -0.16062154 0.28038600 -0.70209622
v 0.58783478 0.28595734 -0.42535886
v 0.69387305 0.27212143 -0.16062498
v 0.25989309 0.54028976 -0.86266851
v 0.42533112 0.38639346 -0.68820053
v 0.86266917 0.71428907 -0.43388864
v 0.68819618 0.54885602 -0.58778930
v 0.70204669 0.81355906 -0.69378060
v 0.85065401 0.44845057 -0.00000064
v 0.96193838 0.97418100 -0.27326658
v 0.95105672 0.71131545 -0.16245997
v 0.95105690 0.71131557 0.16245987
v 0.96193832 0.97418106 0.27326661
v 0.26286560 0.81172109 0.95105648
v 0.52573109 0.97418100 0.85065067
v 0.26286557 1.13664067 0.95105648
v -0.58782977 0.28597426 0.42535469
v -0.42531994 0.38639131 0.68820006
v -0.68819106 0.54885501 0.58778644
v -0.42533681 0.38639295 -0.68820202
v -0.58779895 0.28598741 -0.42532668
v -0.68819237 0.54885572 -0.58778858
v 0.52573115 0.97418088 -0.85065091
v 0.26286575 0.81172138 -0.95105690
v 0.26286569 1.13664091 -0.95105654
v 0.95105654 1.23704648 0.16245994
v 0.95105654 1.23704648 -0.16245976
v 0.85065085 1.49991190 0.00000005
v -0.61564201 1.75802410 0.08108637
v -0.57125139 1.76683021 0.21302302
v -0.48444182 1.83911049 0.13120060
v -0.70710677 1.57568192 0.37174818
v -0.64741170 1.67649078 0.29600453
v -0.75865245 1.58100593 0.23708627
v -0.37503839 1.81809258 0.38361368
v -0.51612139 1.75763285 0.34615299
v -0.45399052 1.73211646 0.46842980
v -0.78384304 1.05526721 0.61564201
v -0.79264933 1.18720388 0.57125163
v -0.86492932 1.10538137 0.48444164
v -0.60150105 1.34592903 0.70710677
v -0.70230973 1.27018547 0.64741182
v -0.60682517 1.21126699 0.75865227
v -0.84391129 1.35779452 0.37503862
v -0.78345174 1.32033384 0.51612169
v -0.75793540 1.44261074 0.45399055
v -0.08108646 1.58982313 0.78384304
v -0.21302289 1.54543257 0.79264933
v -0.13120025 1.45862257 0.86492938
v -0.37174830 1.68128788 0.60150081
v -0.29600483 1.62159264 0.70230985
v -0.23708643 1.73283327 0.60682517
v -0.38361382 1.34921980 0.84391147
v -0.34615287 1.49030280 0.78345168
v -0.46842995 1.42817152 0.75793552
v -0.64657778 1.53843522 0.51337546
v -0.56425428 1.48755646 0.64657766
v -0.51337546 1.62075865 0.56425422
v -0.35822877 1.89848530 0.13165541
v -0.40335524 1.88922441 -0.00000015
v -0.23867710 1.86518753 0.38618731
v -0.30125877 1.89042509 0.26408270
v -0.13795230 1.96462023 -0.00000021
v -0.22011703 1.94057369 0.13279246
v -0.08224239 1.96186948 0.13307115
v 0.08108643 1.58982301 0.78384304
v -0.00000016 1.67708790 0.71128184
v 0.15643446 1.81435883 0.51925856
v 0.08114186 1.75438559 0.62023962
v 0.23708652 1.73283350 0.60682541
v -0.08114199 1.75438559 0.62023979
v -0.15643446 1.81435895 0.51925850
v 0.40335527 1.88922429 -0.00000004
v 0.35822874 1.89848542 0.13165542
v 0.48444176 1.83910966 0.13120037
v 0.08224244 1.96186900 0.13307112
v 0.22011711 1.94057345 0.13279241
v 0.13795224 1.96461987 0.00000015
v 0.37503842 1.81809247 0.38361371
v 0.30125880 1.89042497 0.26408267
v 0.23867704 1.86518764 0.38618743
v -0.08232364 1.88716340 0.39960715
v 0.08232348 1.88716340 0.39960688
v -0.00000015 1.93804193 0.26640469
v -0.35822880 1.89848566 -0.13165544
v -0.48444155 1.83911026 -0.13120031
v -0.08224241 1.96186924 -0.13307112
v -0.22011708 1.94057369 -0.13279244
v -0.37503853 1.81809258 -0.38361382
v -0.30125892 1.89042532 -0.26408273
v -0.23867700 1.86518753 -0.38618740
v 0.48444155 1.83911026 -0.13120036
v 0.35822886 1.89848566 -0.13165547
v 0.23867719 1.86518729 -0.38618740
v 0.30125895 1.89042497 -0.26408291
v 0.37503836 1.81809258 -0.38361397
v 0.22011691 1.94057357 -0.13279253
v 0.08224255 1.96186924 -0.13307111
v -0.08108641 1.58982301 -0.78384322
v 0.00000015 1.67708790 -0.71128154
v 0.08108647 1.58982301 -0.78384304
v -0.15643452 1.81435883 -0.51925850
v -0.08114171 1.75438583 -0.62023956
v -0.23708646 1.73283339 -0.60682517
v 0.23708643 1.73283327 -0.60682511
v 0.08114201 1.75438488 -0.62023968
v 0.15643448 1.81435895 -0.51925850
v 0.00000002 1.93804240 -0.26640493
v 0.08232362 1.88716340 -0.39960718
v -0.08232350 1.88716328 -0.39960742
v -0.57125163 1.76683009 -0.21302292
v -0.61564213 1.75802410 -0.08108632
v -0.45399037 1.73211634 -0.46842980
v -0.51612163 1.75763249 -0.34615305
v -0.75865233 1.58100605 -0.23708634
v -0.64741170 1.67649066 -0.29600430
v -0.70710677 1.57568181 -0.37174806
v -0.13120067 1.45862293 -0.86492950
v -0.21302299 1.54543269 -0.79264915
v -0.46842983 1.42817152 -0.75793546
v -0.34615308 1.49030256 -0.78345168
v -0.38361385 1.34921944 -0.84391147
v -0.29600435 1.62159276 -0.70230991
v -0.37174794 1.68128788 -0.60150087
v -0.86492944 1.10538149 -0.48444155
v -0.79264921 1.18720388 -0.57125175
v -0.78384304 1.05526733 -0.61564201
v -0.75793535 1.44261074 -0.45399049
v -0.78345156 1.32033432 -0.51612139
v -0.84391129 1.35779476 -0.37503853
v -0.60682523 1.21126723 -0.75865227
v -0.70230985 1.27018571 -0.64741176
v -0.60150105 1.34592915 -0.70710677
v -0.51337546 1.62075889 -0.56425422
v -0.56425422 1.48755658 -0.64657778
v -0.64657778 1.53843510 -0.51337552
v -0.70290715 1.68546259 0.00000006
v -0.84017789 1.49343944 -0.15643452
v -0.78020430 1.59442055 -0.08114188
v -0.78020436 1.59442055 0.08114178
v -0.84017813 1.49343932 0.15643443
v -0.91504341 0.97418100 -0.40335545
v -0.92430460 1.10583639 -0.35822877
v -0.98768836 1.10725212 -0.08224253
v -0.96639258 1.10697353 -0.22011699
v -0.99043888 0.97418100 -0.13795225
v -0.91624415 1.23826385 -0.30125883
v -0.89100653 1.36036825 -0.23867692
v -0.92430460 1.10583615 0.35822868
v -0.91504341 0.97418094 0.40335530
v -0.89100659 1.36036849 0.23867704
v -0.91624415 1.23826396 0.30125877
v -0.99043894 0.97418106 0.13795215
v -0.96639252 1.10697365 0.22011709
v -0.98768836 1.10725224 0.08224247
v -0.91298252 1.37378800 -0.08232380
v -0.96386129 1.24058580 -0.00000005
v -0.91298246 1.37378812 0.08232360
v 0.57125157 1.76683033 0.21302287
v 0.61564189 1.75802410 0.08108628
v 0.45399055 1.73211622 0.46843001
v 0.51612157 1.75763273 0.34615299
v 0.75865251 1.58100629 0.23708628
v 0.64741200 1.67649102 0.29600471
v 0.70710701 1.57568228 0.37174812
v 0.13120037 1.45862269 0.86492938
v 0.21302271 1.54543257 0.79264921
v 0.46842983 1.42817140 0.75793540
v 0.34615272 1.49030256 0.78345162
v 0.38361368 1.34921956 0.84391147
v 0.29600468 1.62159288 0.70230985
v 0.37174803 1.68128777 0.60150111
v 0.86492926 1.10538137 0.48444155
v 0.79264915 1.18720376 0.57125163
v 0.78384304 1.05526721 0.61564195
v 0.75793540 1.44261074 0.45399058
v 0.78345168 1.32033396 0.51612175
v 0.84391153 1.35779452 0.37503865
v 0.60682523 1.21126735 0.75865239
v 0.70230985 1.27018559 0.64741188
v 0.60150093 1.34592915 0.70710677
v 0.51337564 1.62075889 0.56425452
v 0.56425434 1.48755646 0.64657766
v 0.64657778 1.53843510 0.51337552
v -0.13165537 1.33240986 0.92430431
v -0.00000026 1.37753642 0.91504335
v -0.38618734 1.21285796 0.89100635
v -0.26408279 1.27543986 0.91624415
v 0.00000004 1.11213338 0.99043900
v -0.13279238 1.19429815 0.96639258
v -0.13307118 1.05642354 0.98768836
v -0.78384310 0.89309460 0.61564201
v -0.71128166 0.97418106 0.70290703
v -0.51925868 0.81774652 0.84017795
v -0.62023956 0.89303911 0.78020430
v -0.60682547 0.73709470 0.75865275
v -0.62023956 1.05532277 0.78020436
v -0.51925844 1.13061559 0.84017789
v -0.00000061 0.57082522 0.91504365
v -0.13165534 0.61595207 0.92430449
v -0.13119841 0.48973632 0.86493063
v -0.13307112 0.89193869 0.98768836
v -0.13279225 0.75406384 0.96639258
v 0.00000001 0.83622891 0.99043900
v -0.38361478 0.59914237 0.84391278
v -0.26408297 0.67292219 0.91624480
v -0.38618752 0.73550415 0.89100695
v -0.39960694 1.05650473 0.91298258
v -0.39960718 0.89185750 0.91298270
v -0.26640469 0.97418112 0.96386111
v -0.92430460 0.84252566 0.35822892
v -0.86492938 0.84298044 0.48444185
v -0.98768836 0.84111023 0.08224254
v -0.96639264 0.84138870 0.22011718
v -0.84391308 0.59056747 0.37503922
v -0.91624427 0.71009821 0.30125892
v -0.89100695 0.58799356 0.23867702
v -0.86492950 0.84298074 -0.48444176
v -0.92430460 0.84252584 -0.35822880
v -0.89100868 0.58799350 -0.23867714
v -0.91624433 0.71009839 -0.30125889
v -0.84391278 0.59056735 -0.37503922
v -0.96639276 0.84138840 -0.22011699
v -0.98768872 0.84111005 -0.08224242
v -0.61576241 0.19030930 0.08110490
v -0.70294738 0.26289636 -0.00000557
v -0.61576122 0.19029969 -0.08114382
v -0.84017980 0.45492306 0.15643443
v -0.78021467 0.35393828 0.08114289
v -0.75866491 0.36735502 0.23709072
v -0.75866479 0.36735159 -0.23709047
v -0.78021920 0.35394084 -0.08113958
v -0.84018195 0.45492122 -0.15643562
v -0.96386170 0.70777631 -0.00000004
v -0.91298354 0.57457393 -0.08232379
v -0.91298348 0.57457411 0.08232373
v -0.71128166 0.97418106 -0.70290709
v -0.78384304 0.89309490 -0.61564213
v -0.51925850 1.13061535 -0.84017789
v -0.62023962 1.05532289 -0.78020436
v -0.60682541 0.73709488 -0.75865257
v -0.62023956 0.89303923 -0.78020436
v -0.51925874 0.81774664 -0.84017807
v 0.00000027 1.37753665 -0.91504341
v -0.13165537 1.33240974 -0.92430449
v -0.13307111 1.05642354 -0.98768836
v -0.13279249 1.19429815 -0.96639246
v -0.00000015 1.11213326 -0.99043900
v -0.26408279 1.27543986 -0.91624403
v -0.38618731 1.21285808 -0.89100641
v -0.13119994 0.48973912 -0.86493480
v -0.13165580 0.61595225 -0.92430538
v -0.00000026 0.57082582 -0.91504502
v -0.38618746 0.73550415 -0.89100695
v -0.26408261 0.67292213 -0.91624492
v -0.38361502 0.59914410 -0.84391510
v -0.00000004 0.83622891 -0.99043918
v -0.13279258 0.75406402 -0.96639258
v -0.13307112 0.89193869 -0.98768836
v -0.39960700 1.05650461 -0.91298252
v -0.26640469 0.97418100 -0.96386141
v -0.39960706 0.89185756 -0.91298294
v 0.21302284 1.54543257 -0.79264921
v 0.13120043 1.45862257 -0.86492932
v 0.37174824 1.68128765 -0.60150063
v 0.29600465 1.62159300 -0.70230991
v 0.38361380 1.34921944 -0.84391147
v 0.34615296 1.49030280 -0.78345168
v 0.46842983 1.42817140 -0.75793552
v 0.61564213 1.75802398 -0.08108640
v 0.57125163 1.76683044 -0.21302281
v 0.70710653 1.57568204 -0.37174821
v 0.64741188 1.67649055 -0.29600441
v 0.75865233 1.58100593 -0.23708656
v 0.51612163 1.75763285 -0.34615302
v 0.45399040 1.73211646 -0.46843007
v 0.78384280 1.05526733 -0.61564195
v 0.79264921 1.18720400 -0.57125163
v 0.86492926 1.10538149 -0.48444176
v 0.60150093 1.34592915 -0.70710677
v 0.70230985 1.27018559 -0.64741188
v 0.60682517 1.21126723 -0.75865233
v 0.84391141 1.35779476 -0.37503850
v 0.78345174 1.32033408 -0.51612163
v 0.75793540 1.44261050 -0.45399031
v 0.51337546 1.62075889 -0.56425422
v 0.64657778 1.53843510 -0.51337546
v 0.56425434 1.48755634 -0.64657766
v 0.61575568 0.19025454 0.08107228
v 0.57140195 0.18148951 0.21307935
v 0.48487189 0.10892148 0.13105446
v 0.70712054 0.37268296 0.37174696
v 0.64747012 0.27185431 0.29600942
v 0.75866002 0.36735362 0.23709148
v 0.37532535 0.12972808 0.38321292
v 0.51619232 0.19070636 0.34618595
v 0.45417193 0.21606916 0.46858341
v 0.78384316 0.89309478 0.61564213
v 0.79264975 0.76115793 0.57125175
v 0.86492974 0.84298080 0.48444176
v 0.60150152 0.60243267 0.70710742
v 0.70231014 0.67817640 0.64741236
v 0.60682523 0.73709446 0.75865269
v 0.84391254 0.59056753 0.37503904
v 0.78345186 0.62802804 0.51612192
v 0.75793928 0.50575089 0.45399240
v 0.08109108 0.35853541 0.78387219
v 0.21302368 0.40292877 0.79267401
v 0.13120094 0.48973897 0.86493349
v 0.37172163 0.26700577 0.60164535
v 0.29601312 0.32675412 0.70237178
v 0.23709364 0.21545249 0.60686350
v 0.38361374 0.59914190 0.84391260
v 0.34615707 0.45805657 0.78344941
v 0.46843162 0.52018929 0.75793588
v 0.64656937 0.40992263 0.51337510
v 0.56425697 0.46080062 0.64657867
v 0.51336569 0.32760081 0.56426573
v 0.35896778 0.04935492 0.13204598
v 0.40426949 0.05898428 -0.00005292
v 0.23953472 0.08291122 0.38720861
v 0.30203667 0.05657139 0.26510274
v 0.13890979 0.00000000 -0.00061164
v 0.22230794 0.00929133 0.13591631
v 0.08534595 0.00000000 0.13503769
v -0.08109500 0.35852993 0.78385746
v -0.00000328 0.27127546 0.71131569
v -0.15647054 0.13387521 0.51950103
v -0.08110660 0.19396056 0.62034702
v -0.23712252 0.21549711 0.60686231
v 0.08109102 0.19394679 0.62030602
v 0.15645845 0.13391556 0.51928413
v -0.40576196 0.05904822 0.00009371
v -0.36038348 0.04875661 0.13272896
v -0.48473549 0.10912499 0.13132752
v -0.08301213 0.00000000 0.13379799
v -0.22285913 0.00917934 0.13376121
v -0.13940129 0.00000000 -0.00152238
v -0.37521407 0.13019851 0.38377434
v -0.30260706 0.05715203 0.26528975
v -0.23908572 0.08280855 0.38724786
v 0.08252372 0.06042086 0.40072164
v -0.08234476 0.06054831 0.40064952
v -0.00113745 0.01185569 0.26730534
v 0.35918996 0.04948381 -0.13207464
v 0.48486573 0.10900924 -0.13128117
v 0.08383734 0.00000000 -0.13772805
v 0.22218214 0.00718471 -0.13392647
v 0.37528720 0.13015291 -0.38390815
v 0.30236119 0.05748498 -0.26469615
v 0.23921034 0.08296278 -0.38702542
v -0.48464507 0.10917639 -0.13135891
v -0.36033148 0.04931885 -0.13171414
v -0.23899424 0.08289170 -0.38681385
v -0.30194777 0.05740922 -0.26462689
v -0.37521178 0.13007928 -0.38384053
v -0.22451101 0.01257036 -0.13378949
v -0.08276739 0.00000000 -0.13637972
v 0.08108689 0.35853821 -0.78384995
v -0.00000185 0.27126399 -0.71131039
v -0.08108364 0.35853755 -0.78385371
v 0.15645972 0.13395482 -0.51954710
v 0.08113188 0.19398504 -0.62028462
v 0.23709035 0.21553877 -0.60683370
v -0.23710629 0.21548639 -0.60688990
v -0.08114719 0.19395477 -0.62031424
v -0.15638922 0.13385962 -0.51939392
v 0.00021846 0.01126418 -0.26927593
v -0.08250965 0.06046893 -0.40010744
v 0.08258498 0.06029692 -0.40158692
v 0.57149661 0.18151194 -0.21302921
v 0.61575300 0.19031505 -0.08104002
v 0.45404336 0.21625836 -0.46849677
v 0.51631159 0.19065274 -0.34627569
v 0.75868034 0.36735067 -0.23709106
v 0.64745963 0.27184802 -0.29603952
v 0.70712131 0.37267932 -0.37175533
v 0.13120122 0.48973972 -0.86493343
v 0.21302187 0.40292677 -0.79265171
v 0.46843103 0.52018958 -0.75793809
v 0.34615314 0.45805788 -0.78345716
v 0.38361430 0.59914225 -0.84391236
v 0.29601336 0.32676616 -0.70231742
v 0.37177020 0.26705816 -0.60152709
v 0.86492944 0.84298050 -0.48444182
v 0.79264933 0.76115817 -0.57125205
v 0.78384322 0.89309460 -0.61564213
v 0.75794172 0.50574982 -0.45399633
v 0.78345281 0.62802815 -0.51612216
v 0.84391314 0.59056747 -0.37503907
v 0.60682571 0.73709512 -0.75865310
v 0.70231086 0.67817664 -0.64741248
v 0.60150194 0.60243338 -0.70710838
v 0.51339090 0.32758820 -0.56429666
v 0.56425965 0.46080542 -0.64658421
v 0.64657885 0.40992472 -0.51337773
v 0.70297301 0.26289770 0.00000459
v 0.84018356 0.45492271 -0.15643382
v 0.78022671 0.35394123 -0.08114087
v 0.78022897 0.35394356 0.08114291
v 0.84018373 0.45492339 0.15643689
v 0.91504353 0.97418094 -0.40335530
v 0.92430466 0.84252566 -0.35822904
v 0.98768836 0.84110993 -0.08224238
v 0.96639252 0.84138876 -0.22011696
v 0.99043900 0.97418106 -0.13795201
v 0.91624427 0.71009821 -0.30125889
v 0.89100796 0.58799338 -0.23867701
v 0.92430466 0.84252566 0.35822883
v 0.91504353 0.97418100 0.40335536
v 0.89100808 0.58799404 0.23867750
v 0.91624451 0.71009815 0.30125886
v 0.99043894 0.97418100 0.13795242
v 0.96639258 0.84138846 0.22011708
v 0.98768842 0.84110999 0.08224253
v 0.91298449 0.57457441 -0.08232374
v 0.96386164 0.70777649 -0.00000010
v 0.91298395 0.57457447 0.08232366
v 0.13165516 0.61595213 0.92430466
v 0.38618740 0.73550427 0.89100677
v 0.26408276 0.67292225 0.91624457
v 0.13279255 0.75406408 0.96639264
v 0.13307108 0.89193863 0.98768842
v 0.71128166 0.97418118 0.70290703
v 0.51925850 1.13061547 0.84017789
v 0.62023956 1.05532289 0.78020447
v 0.62023968 0.89303911 0.78020436
v 0.51925856 0.81774646 0.84017783
v 0.13165540 1.33240998 0.92430460
v 0.13307104 1.05642354 0.98768836
v 0.13279258 1.19429815 0.96639240
v 0.26408249 1.27543962 0.91624427
v 0.38618740 1.21285796 0.89100665
v 0.39960709 0.89185762 0.91298246
v 0.39960715 1.05650461 0.91298258
v 0.26640469 0.97418106 0.96386129
v -0.57130069 0.18150772 0.21305963
v -0.45407718 0.21622381 0.46850976
v -0.51616061 0.19072865 0.34615129
v -0.64743692 0.27186647 0.29602173
v -0.70711774 0.37267864 0.37175247
v -0.21302222 0.40293068 0.79265338
v -0.46843213 0.52019000 0.75793797
v -0.34615424 0.45805922 0.78345585
v -0.29600102 0.32676619 0.70232368
v -0.37176698 0.26706156 0.60153425
v -0.79264927 0.76115835 0.57125169
v -0.75793940 0.50575072 0.45399189
v -0.78345215 0.62802786 0.51612204
v -0.70231068 0.67817658 0.64741242
v -0.60150158 0.60243297 0.70710802
v -0.51340276 0.32760170 0.56427479
v -0.56425709 0.46080470 0.64658338
v -0.64658338 0.40992582 0.51337898
v -0.21302313 0.40292954 -0.79265070
v -0.37176871 0.26708162 -0.60154319
v -0.29601976 0.32676554 -0.70232743
v -0.34615839 0.45805386 -0.78346676
v -0.46843609 0.52019006 -0.75794321
v -0.57137531 0.18149380 -0.21307543
v -0.70711410 0.37267971 -0.37175146
v -0.64745098 0.27186415 -0.29602721
v -0.51627821 0.19062582 -0.34621081
v -0.45406613 0.21622832 -0.46847346
v -0.79264927 0.76115823 -0.57125193
v -0.60150146 0.60243303 -0.70710754
v -0.70231038 0.67817652 -0.64741260
v -0.78345203 0.62802750 -0.51612228
v -0.75793672 0.50575072 -0.45399231
v -0.51337951 0.32759777 -0.56425732
v -0.64658505 0.40992334 -0.51338285
v -0.56425929 0.46080446 -0.64658219
v 0.71128184 0.97418106 -0.70290703
v 0.51925838 0.81774670 -0.84017819
v 0.62023968 0.89303929 -0.78020447
v 0.62023956 1.05532277 -0.78020436
v 0.51925844 1.13061535 -0.84017789
v 0.13165569 0.61595225 -0.92430556
v 0.13307109 0.89193863 -0.98768836
v 0.13279240 0.75406390 -0.96639287
v 0.26408291 0.67292190 -0.91624445
v 0.38618758 0.73550403 -0.89100671
v 0.13165532 1.33240974 -0.92430454
v 0.38618758 1.21285784 -0.89100653
v 0.26408273 1.27543998 -0.91624415
v 0.13279253 1.19429815 -0.96639264
v 0.13307112 1.05642343 -0.98768836
v 0.39960703 0.89185745 -0.91298264
v 0.26640463 0.97418112 -0.96386129
v 0.39960697 1.05650473 -0.91298229
v 0.92430472 1.10583615 0.35822874
v 0.98768836 1.10725212 0.08224259
v 0.96639258 1.10697341 0.22011694
v 0.91624415 1.23826373 0.30125895
v 0.89100683 1.36036825 0.23867683
v 0.92430443 1.10583627 -0.35822874
v 0.89100659 1.36036849 -0.23867708
v 0.91624415 1.23826361 -0.30125898
v 0.96639258 1.10697353 -0.22011708
v 0.98768842 1.10725212 -0.08224253
v 0.70290715 1.68546295 -0.00000002
v 0.84017771 1.49343979 0.15643451
v 0.78020418 1.59442067 0.08114205
v 0.78020424 1.59442067 -0.08114183
v 0.84017771 1.49343956 -0.15643443
v 0.96386117 1.24058580 0.00000010
v 0.91298246 1.37378800 -0.08232351
v 0.91298246 1.37378800 0.08232367
f 330 87 329
f 336 325 26
f 207 208 56
f 464 36 580
f 502 129 504
f 157 624 622
f 308 311 82
f 247 223 248
f 507 483 508
f 331 88 329
f 494 500 497
f 156 601 602
f 591 589 592
f 365 98 596
f 75 281 282
f 152 587 577
f 149 559 560
f 555 121 553
f 530 141 529
f 515 517 139
f 361 594 98
f 250 67 249
f 157 608 609
f 294 293 209
f 317 81 316
f 557 338 26
f 303 305 81
f 530 529 528
f 101 381 382
f 415 418 111
f 192 184 50
f 412 110 411
f 20 384 256
f 131 594 486
f 281 264 282
f 347 287 348
f 28 349 582
f 165 163 1
f 248 250 66
f 617 107 398
f 273 271 274
f 456 115 453
f 558 561 560
f 335 576 91
f 331 177 332
f 116 433 436
f 351 370 92
f 136 511 530
f 239 240 65
f 247 258 19
f 304 23 567
f 148 557 570
f 214 208 58
f 440 426 450
f 268 270 269
f 258 247 268
f 204 202 16
f 466 125 465
f 517 513 133
f 168 275 274
f 275 73 274
f 198 193 53
f 309 308 307
f 510 511 136
f 415 416 110
f 131 490 597
f 473 475 474
f 414 415 111
f 493 495 494
f 496 504 485
f 433 116 432
f 600 375 601
f 240 234 65
f 418 415 412
f 486 361 3
f 567 566 304
f 380 393 29
f 17 199 197
f 491 492 132
f 451 449 435
f 218 217 216
f 623 621 613
f 396 104 395
f 433 439 436
f 628 160 627
f 215 202 217
f 209 207 2
f 427 113 424
f 434 10 544
f 434 433 432
f 199 17 210
f 150 564 565
f 489 491 132
f 275 13 285
f 497 500 134
f 125 466 476
f 578 152 577
f 208 214 211
f 328 88 343
f 356 27 603
f 150 566 567
f 372 100 371
f 190 191 47
f 235 8 398
f 260 261 72
f 422 403 414
f 422 414 111
f 453 454 123
f 349 583 582
f 521 520 519
f 425 453 115
f 616 622 158
f 483 130 508
f 151 586 572
f 212 17 232
f 400 397 402
f 377 396 99
f 41 522 511
f 510 508 505
f 549 547 42
f 475 473 36
f 510 137 509
f 222 221 197
f 430 115 429
f 220 194 1
f 305 54 204
f 621 29 613
f 192 171 184
f 460 335 5
f 88 331 332
f 74 277 279
f 300 301 80
f 390 389 388
f 165 45 164
f 146 549 551
f 291 278 75
f 448 120 445
f 147 543 544
f 607 610 609
f 603 602 356
f 139 529 514
f 333 553 443
f 92 368 347
f 261 260 259
f 300 6 200
f 46 177 331
f 284 283 174
f 301 300 200
f 471 468 474
f 54 305 301
f 302 304 303
f 569 150 567
f 150 569 570
f 294 209 2
f 628 629 160
f 548 543 147
f 147 625 627
f 63 233 234
f 426 427 114
f 41 509 532
f 198 52 196
f 614 105 612
f 147 627 547
f 81 305 306
f 549 548 547
f 54 301 200
f 342 88 332
f 264 281 70
f 193 194 53
f 455 429 456
f 187 321 14
f 479 130 484
f 147 544 625
f 458 456 453
f 304 80 303
f 314 84 313
f 488 503 501
f 321 332 14
f 423 425 424
f 305 204 306
f 341 339 25
f 514 40 516
f 625 628 627
f 340 339 341
f 105 614 391
f 243 228 62
f 318 316 78
f 75 278 279
f 357 355 353
f 238 257 63
f 466 455 476
f 425 423 4
f 448 449 120
f 408 638 108
f 292 275 285
f 22 278 289
f 515 513 517
f 501 503 134
f 622 623 158
f 134 503 504
f 195 216 206
f 163 271 246
f 619 617 620
f 62 228 229
f 163 165 164
f 453 425 454
f 489 132 488
f 82 628 625
f 58 208 209
f 525 608 40
f 626 547 627
f 518 517 498
f 489 487 491
f 557 26 564
f 325 336 344
f 541 145 539
f 40 616 516
f 338 556 89
f 250 248 245
f 139 514 515
f 98 594 596
f 246 220 1
f 112 413 630
f 9 536 413
f 156 600 601
f 332 177 14
f 321 342 332
f 156 606 600
f 584 330 585
f 302 303 81
f 584 87 330
f 330 25 585
f 400 239 65
f 439 440 117
f 95 358 368
f 597 594 131
f 594 361 486
f 246 67 245
f 561 562 149
f 28 364 362
f 55 216 217
f 427 430 114
f 267 20 254
f 556 555 553
f 84 309 558
f 311 310 312
f 609 525 142
f 256 68 255
f 124 460 461
f 82 311 312
f 307 308 82
f 589 135 495
f 527 40 514
f 112 418 412
f 20 256 254
f 258 238 19
f 267 254 269
f 273 272 249
f 392 391 393
f 137 533 509
f 122 455 456
f 9 413 411
f 130 480 505
f 333 443 5
f 527 525 40
f 589 495 385
f 39 496 485
f 223 225 224
f 414 416 415
f 219 222 53
f 145 538 539
f 413 412 411
f 469 468 467
f 183 181 6
f 191 192 50
f 429 35 431
f 292 285 76
f 413 112 412
f 415 110 412
f 43 164 167
f 467 468 126
f 617 101 620
f 450 451 117
f 438 546 545
f 619 620 159
f 17 212 210
f 124 579 576
f 584 153 583
f 460 124 576
f 3 469 467
f 311 308 314
f 6 320 183
f 389 104 388
f 251 250 249
f 194 165 1
f 291 289 278
f 287 77 348
f 238 258 257
f 139 517 518
f 238 236 19
f 223 247 19
f 382 380 29
f 39 518 498
f 361 359 3
f 69 255 257
f 139 518 528
f 33 545 535
f 387 385 7
f 69 268 269
f 477 462 125
f 454 479 123
f 121 555 447
f 451 435 117
f 454 425 4
f 233 252 8
f 124 463 464
f 69 258 268
f 168 167 166
f 583 153 582
f 384 394 102
f 138 512 513
f 57 210 211
f 254 256 255
f 607 609 142
f 324 319 86
f 289 291 76
f 291 292 76
f 384 102 383
f 422 421 420
f 221 17 197
f 383 102 381
f 376 377 99
f 99 373 374
f 386 105 392
f 438 33 440
f 90 341 343
f 281 75 279
f 574 571 96
f 628 82 312
f 221 222 59
f 127 471 474
f 595 605 603
f 551 538 145
f 334 91 340
f 322 324 85
f 305 303 301
f 18 239 399
f 306 204 16
f 199 198 197
f 166 190 180
f 303 80 301
f 267 266 265
f 626 42 547
f 16 215 213
f 349 351 350
f 295 16 213
f 68 379 252
f 250 251 66
f 627 160 626
f 383 68 256
f 343 88 342
f 507 508 136
f 202 215 16
f 197 198 53
f 254 69 269
f 603 605 156
f 418 419 111
f 384 383 256
f 455 122 476
f 203 204 54
f 556 557 148
f 255 68 253
f 313 84 560
f 25 328 341
f 254 255 69
f 603 156 602
f 581 584 583
f 630 632 112
f 163 246 1
f 246 245 220
f 432 116 558
f 499 591 590
f 320 563 86
f 345 93 350
f 306 16 295
f 346 93 345
f 562 568 149
f 604 605 155
f 154 592 593
f 545 552 535
f 511 522 530
f 574 573 571
f 566 150 565
f 361 98 360
f 67 271 273
f 234 235 65
f 208 211 56
f 574 151 573
f 251 270 66
f 398 8 378
f 213 215 214
f 438 440 439
f 315 314 313
f 263 71 262
f 20 373 384
f 496 134 504
f 329 88 328
f 81 306 316
f 555 556 148
f 592 589 103
f 617 619 107
f 227 207 56
f 571 359 96
f 446 466 465
f 206 216 55
f 359 571 469
f 568 148 570
f 34 437 435
f 28 351 349
f 21 272 282
f 113 423 424
f 490 489 488
f 379 68 383
f 210 212 211
f 80 563 300
f 351 92 350
f 326 346 12
f 83 317 318
f 555 148 554
f 212 231 56
f 218 57 217
f 271 67 246
f 195 196 52
f 270 268 66
f 390 592 103
f 148 568 554
f 495 493 7
f 592 390 593
f 357 95 355
f 574 575 151
f 452 120 451
f 154 591 592
f 587 585 577
f 395 394 396
f 93 349 350
f 610 416 611
f 166 44 190
f 315 23 302
f 315 302 317
f 268 247 66
f 606 154 593
f 396 394 99
f 211 212 56
f 370 369 368
f 235 397 65
f 280 278 22
f 83 315 317
f 575 588 151
f 74 279 280
f 385 495 7
f 63 257 253
f 397 235 398
f 214 58 213
f 220 219 194
f 546 146 545
f 236 225 19
f 599 94 602
f 235 233 8
f 102 394 395
f 611 416 32
f 225 223 19
f 139 528 529
f 231 62 229
f 419 406 421
f 451 450 452
f 49 182 185
f 402 397 107
f 52 199 218
f 416 610 110
f 225 236 244
f 107 397 398
f 68 252 253
f 322 85 321
f 182 181 183
f 118 438 439
f 546 438 118
f 348 77 345
f 543 546 118
f 231 212 232
f 610 611 157
f 33 438 545
f 385 386 103
f 479 480 130
f 169 195 15
f 93 583 349
f 15 195 206
f 190 44 192
f 247 248 66
f 146 552 545
f 248 60 245
f 570 557 564
f 274 271 43
f 63 253 233
f 272 21 249
f 507 528 518
f 67 273 249
f 487 467 126
f 196 195 169
f 624 159 623
f 134 496 497
f 132 503 488
f 104 393 395
f 556 553 89
f 355 356 94
f 258 69 257
f 229 61 227
f 56 231 227
f 460 576 335
f 463 124 461
f 394 373 99
f 29 393 391
f 67 250 245
f 193 198 196
f 462 36 464
f 144 633 630
f 141 526 527
f 517 133 498
f 536 144 630
f 100 372 599
f 144 536 537
f 22 289 287
f 578 579 152
f 579 578 576
f 189 188 187
f 60 223 224
f 92 348 350
f 555 554 447
f 396 377 388
f 194 193 165
f 413 536 630
f 372 352 599
f 377 376 375
f 348 345 350
f 105 386 387
f 240 237 234
f 463 462 464
f 135 500 494
f 45 196 169
f 512 612 387
f 245 60 220
f 429 115 456
f 223 60 248
f 288 289 76
f 525 526 142
f 100 599 601
f 613 29 391
f 526 523 520
f 341 328 343
f 631 641 639
f 264 21 282
f 266 72 265
f 106 402 403
f 73 273 274
f 186 206 205
f 381 379 383
f 52 216 195
f 410 18 399
f 290 272 73
f 72 371 374
f 526 525 527
f 115 430 424
f 498 497 496
f 621 382 29
f 543 118 434
f 214 215 57
f 522 141 530
f 511 510 509
f 352 94 599
f 493 512 7
f 90 340 341
f 169 171 170
f 605 604 606
f 219 60 224
f 104 389 392
f 359 469 3
f 186 49 185
f 222 219 224
f 166 167 44
f 428 427 426
f 523 522 524
f 129 502 481
f 50 185 188
f 164 45 170
f 425 115 424
f 33 428 426
f 427 428 113
f 94 356 602
f 515 138 513
f 114 431 452
f 237 236 238
f 215 217 57
f 95 354 355
f 220 60 219
f 515 514 516
f 183 320 319
f 222 197 53
f 559 569 567
f 300 320 6
f 435 436 117
f 96 360 363
f 640 642 641
f 242 243 62
f 140 537 519
f 508 130 505
f 420 410 399
f 537 539 144
f 317 316 318
f 426 114 450
f 186 15 206
f 311 83 310
f 625 544 307
f 544 10 307
f 168 43 167
f 185 182 188
f 369 354 95
f 44 171 192
f 605 606 156
f 548 549 146
f 100 601 375
f 149 568 569
f 381 380 382
f 455 466 35
f 480 479 454
f 543 548 546
f 493 133 513
f 492 472 37
f 477 125 476
f 491 487 126
f 337 336 338
f 588 153 587
f 576 578 91
f 633 161 632
f 96 359 360
f 39 485 483
f 101 617 378
f 193 45 165
f 163 164 43
f 618 624 611
f 507 136 528
f 561 149 560
f 641 162 639
f 116 561 558
f 494 133 493
f 253 252 233
f 63 237 238
f 392 393 104
f 440 450 117
f 93 581 583
f 386 385 387
f 120 449 451
f 421 422 111
f 486 3 467
f 302 81 317
f 633 632 630
f 462 475 36
f 376 99 374
f 489 490 131
f 447 449 448
f 387 612 105
f 106 420 399
f 173 46 172
f 492 491 472
f 316 306 295
f 22 287 347
f 109 410 420
f 507 39 483
f 559 23 313
f 214 57 211
f 196 45 193
f 10 434 432
f 422 106 403
f 626 160 640
f 487 486 467
f 542 41 532
f 400 106 399
f 444 120 452
f 198 199 52
f 475 127 474
f 621 620 382
f 621 623 159
f 450 114 452
f 92 347 348
f 376 100 375
f 434 118 433
f 503 132 502
f 337 90 336
f 537 536 519
f 395 393 380
f 201 54 200
f 171 44 170
f 355 94 353
f 58 296 213
f 422 420 106
f 595 365 596
f 569 568 570
f 523 140 520
f 114 430 431
f 218 210 57
f 304 566 80
f 639 162 638
f 261 371 72
f 548 147 547
f 498 133 497
f 150 570 564
f 222 224 59
f 142 526 520
f 437 436 435
f 141 522 523
f 137 510 505
f 173 179 176
f 559 149 569
f 121 447 448
f 563 320 300
f 102 395 380
f 257 255 253
f 642 162 641
f 83 311 314
f 216 52 218
f 512 493 513
f 23 304 302
f 91 339 340
f 512 138 612
f 159 620 621
f 218 199 210
f 364 28 575
f 83 318 310
f 168 274 43
f 136 530 528
f 140 523 524
f 495 135 494
f 233 235 234
f 566 563 80
f 25 339 577
f 277 74 276
f 475 462 477
f 133 494 497
f 436 437 116
f 389 386 392
f 548 146 546
f 441 460 5
f 10 309 307
f 65 397 400
f 543 434 544
f 640 641 161
f 272 273 73
f 581 93 346
f 419 421 111
f 319 320 86
f 180 179 178
f 127 475 477
f 231 229 227
f 337 334 340
f 136 508 510
f 308 309 84
f 237 63 234
f 447 554 34
f 252 379 378
f 315 83 314
f 608 622 616
f 338 336 26
f 337 338 89
f 13 275 168
f 209 208 207
f 436 439 117
f 628 312 629
f 360 366 363
f 364 574 96
f 359 361 360
f 466 446 35
f 500 501 134
f 406 109 421
f 135 589 591
f 601 599 602
f 340 90 337
f 481 492 37
f 522 41 524
f 78 316 295
f 131 486 487
f 403 32 414
f 634 626 640
f 151 572 573
f 515 516 138
f 8 252 378
f 265 72 374
f 9 521 519
f 538 549 42
f 368 358 347
f 588 587 586
f 458 453 123
f 589 385 103
f 502 492 481
f 32 416 414
f 430 427 424
f 153 585 587
f 540 144 539
f 370 368 92
f 209 293 58
f 428 33 535
f 326 581 346
f 625 307 82
f 575 28 582
f 6 181 200
f 421 109 420
f 553 121 443
f 160 642 640
f 153 584 585
f 309 432 558
f 334 337 89
f 23 315 313
f 271 163 43
f 296 295 213
f 39 498 496
f 118 439 433
f 531 113 534
f 293 296 58
f 28 362 351
f 489 131 487
f 431 444 452
f 84 558 560
f 98 366 360
f 45 169 170
f 379 101 378
f 462 463 125
f 308 84 314
f 10 432 309
f 299 24 310
f 132 492 502
f 512 387 7
f 639 638 408
f 565 323 86
f 59 244 242
f 106 400 402
f 440 33 426
f 566 565 563
f 617 398 378
f 224 225 59
f 410 109 409
f 239 400 399
f 194 219 53
f 358 22 347
f 610 157 609
f 27 595 603
f 479 484 482
f 142 520 521
f 585 25 577
f 339 578 577
f 408 407 406
f 407 109 406
f 31 408 406
f 407 408 108
f 31 639 408
f 419 31 406
f 608 616 40
f 430 429 431
f 455 35 429
f 35 444 431
f 188 51 187
f 188 182 51
f 51 322 187
f 322 51 319
f 51 182 183
f 319 51 183
f 187 322 321
f 322 319 324
f 381 101 379
f 405 407 108
f 404 405 108
f 286 285 178
f 407 405 409
f 109 407 409
f 191 175 47
f 167 164 170
f 50 184 185
f 44 167 170
f 64 244 236
f 243 244 64
f 50 188 189
f 541 542 145
f 442 445 119
f 339 91 578
f 445 446 119
f 624 623 622
f 611 624 157
f 523 526 141
f 141 527 529
f 527 514 529
f 445 120 444
f 446 445 444
f 35 446 444
f 613 614 158
f 158 614 615
f 623 613 158
f 614 613 391
f 614 612 615
f 371 376 374
f 100 376 371
f 479 482 123
f 373 394 384
f 540 42 634
f 633 540 634
f 538 42 540
f 633 634 161
f 161 634 640
f 42 626 634
f 540 633 144
f 557 556 338
f 553 333 89
f 262 21 264
f 251 21 262
f 5 335 333
f 270 251 262
f 21 251 249
f 600 593 30
f 606 593 600
f 600 30 375
f 593 390 30
f 30 377 375
f 390 388 30
f 30 388 377
f 228 243 241
f 470 478 459
f 470 127 478
f 127 477 478
f 184 186 185
f 478 477 476
f 122 478 476
f 357 74 280
f 518 39 507
f 344 342 85
f 325 344 85
f 342 344 343
f 85 342 321
f 344 90 343
f 90 344 336
f 482 129 481
f 482 481 457
f 482 457 123
f 481 37 457
f 449 447 34
f 435 449 34
f 470 472 471
f 472 470 37
f 470 471 127
f 472 126 471
f 126 468 471
f 470 459 37
f 491 126 472
f 504 129 485
f 221 59 242
f 125 463 465
f 437 34 562
f 561 437 562
f 554 568 562
f 34 554 562
f 437 561 116
f 390 103 389
f 103 386 389
f 392 105 391
f 572 586 580
f 572 580 36
f 586 152 580
f 473 572 36
f 244 243 242
f 225 244 59
f 64 240 241
f 240 239 241
f 237 240 64
f 243 64 241
f 236 237 64
f 411 607 521
f 9 411 521
f 110 607 411
f 607 142 521
f 610 607 110
f 171 15 184
f 171 169 15
f 15 186 184
f 87 584 581
f 153 588 582
f 588 575 582
f 381 102 380
f 573 572 473
f 468 469 128
f 474 468 128
f 469 571 128
f 571 573 128
f 573 473 128
f 473 474 128
f 564 323 565
f 26 323 564
f 323 324 86
f 325 323 26
f 325 324 323
f 563 565 86
f 324 325 85
f 410 230 18
f 230 228 18
f 18 228 241
f 18 241 239
f 401 619 618
f 401 402 107
f 403 402 401
f 619 159 618
f 401 618 32
f 619 401 107
f 403 401 32
f 618 611 32
f 159 624 618
f 478 122 459
f 122 458 459
f 37 459 457
f 459 458 457
f 122 456 458
f 457 458 123
f 191 190 192
f 485 129 484
f 129 482 484
f 483 485 484
f 130 483 484
f 189 187 14
f 191 50 189
f 191 189 175
f 189 14 175
f 14 177 175
f 499 501 500
f 501 499 38
f 38 499 590
f 135 499 500
f 488 501 38
f 499 135 591
f 480 454 4
f 284 12 346
f 4 423 506
f 480 4 506
f 423 531 506
f 480 506 505
f 531 137 506
f 506 137 505
f 365 366 98
f 71 270 262
f 270 71 269
f 71 267 269
f 335 334 333
f 333 334 89
f 334 335 91
f 536 9 519
f 465 463 461
f 537 140 541
f 520 140 519
f 119 446 465
f 465 461 119
f 461 441 119
f 460 441 461
f 176 46 173
f 299 297 24
f 71 263 266
f 263 260 266
f 260 72 266
f 263 70 260
f 205 201 49
f 201 181 49
f 186 205 49
f 181 201 200
f 181 182 49
f 284 77 283
f 586 587 152
f 588 586 151
f 20 267 265
f 266 267 71
f 31 417 631
f 631 417 632
f 31 631 639
f 417 31 419
f 641 631 161
f 417 112 632
f 161 631 632
f 418 417 419
f 417 418 112
f 284 345 77
f 542 550 145
f 542 541 524
f 284 174 12
f 48 174 283
f 373 20 265
f 373 265 374
f 609 608 525
f 608 157 622
f 560 559 313
f 636 637 162
f 541 140 524
f 41 542 524
f 358 357 280
f 70 263 264
f 263 262 264
f 176 177 46
f 174 48 173
f 174 173 172
f 538 551 549
f 538 540 539
f 537 541 539
f 232 221 242
f 17 221 232
f 232 242 62
f 231 232 62
f 203 205 55
f 203 55 202
f 201 205 203
f 202 55 217
f 205 206 55
f 204 203 202
f 73 275 292
f 292 290 73
f 272 290 282
f 290 292 291
f 75 290 291
f 290 75 282
f 70 277 259
f 277 70 281
f 277 281 279
f 260 70 259
f 12 174 172
f 104 396 388
f 367 27 354
f 365 27 367
f 354 27 356
f 365 367 366
f 595 27 365
f 318 299 310
f 155 596 597
f 155 597 598
f 596 594 597
f 595 596 155
f 605 595 155
f 180 47 179
f 180 190 47
f 352 372 11
f 11 372 261
f 312 310 24
f 642 636 162
f 636 297 637
f 367 369 97
f 366 367 97
f 369 367 354
f 369 370 97
f 580 579 464
f 580 152 579
f 579 124 464
f 61 230 409
f 230 410 409
f 230 61 229
f 230 229 228
f 76 285 286
f 353 352 276
f 74 353 276
f 288 76 286
f 288 286 283
f 289 288 287
f 203 54 201
f 287 288 77
f 77 288 283
f 286 48 283
f 531 423 113
f 276 11 259
f 11 261 259
f 277 276 259
f 616 158 615
f 516 616 615
f 138 516 615
f 138 615 612
f 509 533 532
f 503 502 504
f 635 79 294
f 635 294 404
f 635 637 79
f 637 635 638
f 638 635 108
f 635 404 108
f 226 61 405
f 61 226 227
f 405 61 409
f 227 226 207
f 48 178 179
f 48 286 178
f 173 48 179
f 534 143 533
f 534 535 143
f 531 534 533
f 533 143 532
f 137 531 533
f 261 372 371
f 13 180 178
f 285 13 178
f 180 13 166
f 13 168 166
f 346 345 284
f 331 327 46
f 46 327 172
f 172 327 326
f 382 620 101
f 442 121 448
f 443 121 442
f 2 226 404
f 294 2 404
f 404 226 405
f 207 226 2
f 550 551 145
f 552 146 551
f 143 550 532
f 552 550 143
f 330 329 328
f 24 636 629
f 94 352 353
f 352 11 276
f 113 428 534
f 428 535 534
f 509 41 511
f 535 552 143
f 550 552 551
f 550 542 532
f 369 95 368
f 326 327 87
f 87 327 329
f 327 331 329
f 581 326 87
f 293 79 298
f 79 297 298
f 296 298 78
f 79 293 294
f 296 293 298
f 598 490 38
f 358 280 22
f 280 279 278
f 357 358 95
f 74 357 353
f 330 328 25
f 567 23 559
f 590 598 38
f 590 604 598
f 598 604 155
f 604 590 154
f 590 591 154
f 604 154 606
f 297 299 298
f 299 318 78
f 298 299 78
f 355 354 356
f 629 636 642
f 312 24 629
f 629 642 160
f 370 362 97
f 362 363 97
f 363 366 97
f 364 363 362
f 362 370 351
f 96 363 364
f 297 636 24
f 162 637 638
f 637 297 79
f 490 488 38
f 598 597 490
f 441 442 119
f 443 442 441
f 443 441 5
f 442 448 445
f 296 78 295
f 326 12 172
f 575 574 364
f 47 175 176
f 175 177 176
f 47 176 179
