# FEM surface export ¡ª frame 508
# Vertices: 642  Faces: 1280
v -0.51763451 0.95422876 -0.00159944
v 0.51798987 0.95874339 -0.00186864
v -0.52092248 0.29478204 0.00949818
v 0.57157558 0.24431509 0.03066500
v -0.03527270 0.05590685 0.95537835
v 0.00189512 0.68406314 0.85916060
v 0.00198827 0.08046937 -0.95074499
v -0.00071917 0.68169171 -0.85547477
v 0.91376859 0.25507289 -0.57269990
v 0.90661848 0.25549832 0.55510056
v -0.91730076 0.26204830 -0.55413467
v -0.90651953 0.24119507 0.56854808
v -0.81936103 0.65473837 0.31409112
v -0.51283634 0.49025613 0.82303482
v -0.30278990 0.92582560 0.49121734
v 0.30688843 0.92404395 0.49297333
v -0.00047514 1.07756090 -0.00190609
v 0.30518243 0.92524081 -0.49379584
v -0.30503204 0.92014939 -0.49644405
v -0.51424605 0.49572277 -0.82295096
v -0.81884462 0.65925473 -0.31170589
v -1.07421505 0.24257720 0.00502021
v 0.51621991 0.49831641 0.83095258
v 0.82059371 0.66214037 0.31134444
v -0.59656698 0.00433973 0.94889408
v 0.00525622 0.24227360 1.06058419
v -0.92396432 0.11370656 -0.38072443
v -0.93712658 0.07772064 0.29371095
v -0.00778674 0.25606510 -1.07355261
v -0.59299910 0.05423203 -0.94133997
v 0.82035148 0.66017342 -0.31044611
v 0.51173282 0.49607879 -0.82126129
v 0.91542804 0.01321877 0.37582004
v 0.59313095 0.01255227 0.94709587
v 0.29575893 0.20616759 0.53625286
v -0.33342776 0.26831248 0.53947520
v 0.00991243 0.05157641 0.06948435
v -0.30572408 0.05461506 -0.45600137
v 0.29340556 0.13533756 -0.50635988
v 0.58751690 0.01887649 -0.94492197
v 0.90412545 0.08535646 -0.33638194
v 1.07684982 0.24254842 -0.01119529
v -0.69363582 0.83290577 0.16218421
v -0.58729255 0.82251686 0.42558840
v -0.42533979 0.96641576 0.25257376
v -0.72225362 0.36015028 0.71748066
v -0.69688618 0.59065682 0.59492403
v -0.88072413 0.44528028 0.44757238
v -0.15781327 0.83291048 0.70022488
v -0.42957193 0.74223155 0.69126099
v -0.26564941 0.60621929 0.87474507
v -0.15679713 1.03741026 0.25492865
v -0.26600420 1.04655612 -0.00124669
v 0.16320080 0.82993031 0.69999504
v 0.00225705 0.95907360 0.51498371
v 0.26531020 1.04929733 -0.00206782
v 0.15998556 1.03932726 0.25437307
v 0.42836672 0.97009349 0.25370428
v -0.15914078 1.03757429 -0.25900108
v -0.42675492 0.96571028 -0.25686944
v 0.42743966 0.96946484 -0.25528914
v 0.15714715 1.03839660 -0.25906739
v -0.15939669 0.82602090 -0.70160562
v 0.00199765 0.95456517 -0.51844287
v 0.15980951 0.82540351 -0.70014066
v -0.58666855 0.81638634 -0.42711025
v -0.69349915 0.83266044 -0.16086625
v -0.26612842 0.59983087 -0.87291902
v -0.42488191 0.73054433 -0.69262248
v -0.88757086 0.45430630 -0.43823472
v -0.69507480 0.59006006 -0.58962315
v -0.73753905 0.38013443 -0.71517587
v -0.86203563 0.67973083 0.00209093
v -1.03099799 0.24670152 -0.28183302
v -0.97373259 0.45698586 -0.15823072
v -0.97428846 0.44231308 0.17079468
v -1.02186418 0.24520181 0.30068174
v 0.59023482 0.82624787 0.42548603
v 0.69352740 0.83665675 0.15894808
v 0.26496309 0.60384816 0.87600935
v 0.43397307 0.73591071 0.68876767
v 0.89251250 0.45384377 0.44318381
v 0.70583516 0.59385628 0.59153056
v 0.73255283 0.37417442 0.72275281
v -0.26911688 0.36560193 0.98175055
v -0.00122605 0.46452722 0.98322409
v -0.77325290 0.12256111 0.77814060
v -0.55098814 0.23369341 0.90810847
v 0.00578263 0.06532722 1.11843789
v -0.28041103 0.10207532 1.05867088
v -0.31004229 0.00923711 0.96497369
v -1.08466923 0.07446803 0.19192111
v -0.98957568 0.05763219 0.49882805
v -0.99870372 0.07481472 -0.50133270
v -1.09242678 0.06022724 -0.18153402
v -0.74205238 0.19282389 0.14219691
v -0.93699247 0.09383422 -0.02593752
v -0.74776667 0.22161061 -0.16014908
v -0.56686807 0.25386322 -0.91363758
v -0.78655702 0.14910401 -0.76939917
v -0.00150464 0.47467887 -0.98552155
v -0.27514130 0.37989998 -0.98885924
v -0.32014540 0.00000000 -1.00687027
v -0.30256084 0.12870398 -1.05908120
v -0.01001676 0.06143547 -1.11749458
v 0.42705569 0.73605782 -0.68883824
v 0.26539013 0.60257983 -0.87336290
v 0.69191444 0.83420181 -0.16068508
v 0.58725315 0.82325768 -0.42297274
v 0.72892445 0.37608165 -0.71917319
v 0.69669634 0.60050291 -0.58945316
v 0.88701785 0.45683718 -0.44576705
v 0.73522723 0.17161055 0.20706232
v 0.63920873 0.14548527 0.47287583
v 0.44518247 0.26868892 0.28041816
v 0.78050774 0.14315327 0.77373672
v 0.79690361 0.00057651 0.70401603
v 0.98509681 0.06999721 0.49209636
v 0.15847622 0.15392303 0.73935729
v 0.44241214 0.11366309 0.75254488
v 0.28730443 0.00016664 1.00207925
v 0.16693303 0.27677959 0.30631143
v 0.30572817 0.07628339 0.06043383
v -0.20557737 0.18405677 0.73669022
v 0.01166017 0.19627219 0.54656363
v -0.27363491 0.12355378 0.05798135
v -0.20196857 0.17377342 0.28847128
v -0.46186334 0.24924497 0.29108828
v 0.17802033 0.07063176 -0.20569307
v 0.47017783 0.14525184 -0.23320957
v -0.45361209 0.18718608 -0.23193213
v -0.17184502 0.04049769 -0.19456591
v 0.17297553 0.20527369 -0.73574269
v 0.02478038 0.06986352 -0.44989723
v -0.16695812 0.00608095 -0.70487040
v 0.61346853 0.16887006 -0.43824157
v 0.74279863 0.22234847 -0.14934959
v 0.31407300 0.01011513 -0.97991168
v 0.45022961 0.07055160 -0.74132186
v 0.99103254 0.08464927 -0.50829703
v 0.76567054 0.00810816 -0.67837209
v 0.78837770 0.13392964 -0.78590822
v 0.96303147 0.08880627 0.01267689
v 1.03230739 0.25884429 -0.30034128
v 1.08877683 0.06251974 -0.19795635
v 1.09578705 0.08397334 0.18506412
v 1.02253401 0.24489313 0.27991316
v 0.30429754 0.12129477 1.05244887
v 0.56097162 0.24682072 0.91690475
v 0.27093416 0.37995160 0.98944139
v -0.63292283 0.15805112 0.41634777
v -0.48344618 0.10973855 0.73560774
v -0.81079835 0.00163475 0.63475609
v -0.47667500 0.08684643 -0.76823461
v -0.64141470 0.18660051 -0.45357841
v -0.77843767 0.07774041 -0.68052846
v 0.56205487 0.25247720 -0.91602623
v 0.28712958 0.13114250 -1.06573033
v 0.27276453 0.37988478 -0.98978448
v 0.97559726 0.45912233 0.16456613
v 0.97536713 0.45054844 -0.16625787
v 0.86170417 0.68443936 -0.00062610
v -0.61028200 0.90200305 0.07962715
v -0.56532890 0.90979862 0.20973307
v -0.47525379 0.96639937 0.12727915
v -0.71261781 0.74667001 0.37481925
v -0.64659286 0.83465981 0.29732144
v -0.76452571 0.74994069 0.23994219
v -0.36689359 0.95298290 0.37440062
v -0.51047921 0.90283829 0.34196499
v -0.44880629 0.88286281 0.46318832
v -0.81606895 0.29946974 0.64924097
v -0.81261021 0.41000742 0.59345174
v -0.89482164 0.34509668 0.50919300
v -0.61362636 0.54561192 0.71964890
v -0.71486998 0.47664973 0.66050816
v -0.62175387 0.42408842 0.77755600
v -0.85715371 0.54866540 0.38084704
v -0.79718959 0.52268404 0.52445674
v -0.76800412 0.62907422 0.45921126
v -0.07826135 0.76493233 0.78801113
v -0.21296667 0.72918642 0.80020535
v -0.13221535 0.65006852 0.87583363
v -0.36951169 0.84301186 0.59840578
v -0.29556751 0.79273963 0.70280528
v -0.23259202 0.88568825 0.60003656
v -0.39322537 0.55184120 0.85801286
v -0.35101068 0.68021166 0.79225177
v -0.47680554 0.62253374 0.76694781
v -0.65164405 0.71534449 0.51687205
v -0.57118410 0.67237395 0.65137023
v -0.51410598 0.78964210 0.56534129
v -0.34941581 1.01513445 0.12710877
v -0.39434323 1.00662458 -0.00062802
v -0.23148289 0.99133390 0.37689129
v -0.29352278 1.00937331 0.25653493
v -0.13446622 1.07155716 -0.00208243
v -0.21345375 1.04976368 0.12769343
v -0.07982482 1.06752932 0.12828252
v 0.08469061 0.76305306 0.78687030
v 0.00237878 0.83893394 0.70888883
v 0.15535668 0.94931233 0.50958508
v 0.08224882 0.90162450 0.61249864
v 0.23896019 0.88241261 0.60085970
v -0.07694471 0.90316546 0.61205620
v -0.15201230 0.95132464 0.50930250
v 0.39448753 1.00971651 -0.00126271
v 0.35013711 1.01721716 0.12715137
v 0.47748747 0.97152847 0.12635997
v 0.07993929 1.06741261 0.12794539
v 0.21430475 1.05146194 0.12828818
v 0.13317834 1.07180977 -0.00226833
v 0.37212408 0.95356739 0.37703168
v 0.29463169 1.01120222 0.25682309
v 0.23559156 0.98985058 0.37684628
v -0.07944383 1.00820208 0.39010358
v 0.08191802 1.00806093 0.38847193
v 0.00030867 1.04884291 0.25750387
v -0.35041815 1.01511693 -0.13062081
v -0.47611809 0.96564353 -0.12964799
v -0.08081624 1.06850660 -0.13115896
v -0.21508615 1.05125272 -0.13111763
v -0.37034681 0.94894743 -0.38017380
v -0.29474044 1.00901568 -0.26031858
v -0.23390810 0.98842824 -0.38090160
v 0.47665802 0.97088283 -0.12939325
v 0.35058299 1.01958287 -0.13030946
v 0.23420717 0.99214000 -0.37988466
v 0.29430020 1.01264131 -0.25879604
v 0.36976478 0.95407045 -0.37670383
v 0.21296351 1.05230165 -0.13151328
v 0.07825305 1.06885457 -0.13228694
v -0.08182737 0.75642723 -0.78494143
v 0.00139174 0.83249122 -0.70844102
v 0.08053003 0.75851107 -0.78448230
v -0.15260674 0.94753695 -0.51401371
v -0.07902113 0.89678603 -0.61558354
v -0.23362507 0.87873453 -0.60353875
v 0.23492464 0.88202488 -0.60279351
v 0.08050448 0.89671850 -0.61465943
v 0.15396541 0.94822121 -0.51273417
v -0.00115670 1.04810047 -0.26187196
v 0.08026409 1.00632298 -0.39282671
v -0.07992835 1.00680816 -0.39244965
v -0.56544727 0.90703481 -0.21298571
v -0.61062467 0.89971423 -0.08236578
v -0.44999138 0.87627959 -0.46768761
v -0.51130676 0.89837104 -0.34548247
v -0.76268828 0.75264180 -0.23889090
v -0.64515156 0.83286083 -0.29681784
v -0.71097594 0.74674535 -0.37539315
v -0.13431288 0.64640254 -0.87095374
v -0.21491143 0.71669400 -0.79591185
v -0.47248849 0.61686718 -0.76635545
v -0.34992066 0.66861224 -0.78988928
v -0.39183658 0.54548138 -0.85570210
v -0.29426783 0.78288746 -0.70344198
v -0.36873856 0.83231640 -0.60157287
v -0.90631306 0.35434079 -0.49574551
v -0.82036531 0.41824409 -0.58079320
v -0.83173090 0.31887361 -0.64065659
v -0.76514280 0.62698811 -0.45863020
v -0.79633498 0.52123052 -0.51741213
v -0.85542238 0.55402988 -0.37687501
v -0.62888765 0.43757439 -0.77764797
v -0.72071546 0.48517913 -0.65269446
v -0.61432570 0.54835105 -0.71877325
v -0.51001364 0.78221947 -0.56706005
v -0.56667703 0.66704637 -0.65323073
v -0.64818215 0.70952940 -0.51866239
v -0.70208007 0.84080189 0.00138710
v -0.85016513 0.67716920 -0.15639147
v -0.78459865 0.76411778 -0.07966823
v -0.78535593 0.76230925 0.08438522
v -0.85109204 0.67203182 0.15978435
v -0.98472613 0.25670683 -0.41870895
v -0.96553069 0.35442692 -0.36262518
v -1.03432131 0.35290602 -0.07744489
v -0.99774277 0.35007569 -0.21926998
v -1.06258714 0.25274321 -0.13924317
v -0.93817204 0.46304819 -0.29908493
v -0.90265983 0.56013536 -0.23871806
v -0.95952195 0.34563661 0.37982154
v -0.97935015 0.24623227 0.44406012
v -0.90666711 0.55162054 0.24439287
v -0.93946397 0.44306111 0.31143007
v -1.06335461 0.23927608 0.15604487
v -1.00952339 0.33701408 0.23337327
v -1.03620994 0.34255773 0.09013057
v -0.92857414 0.57206595 -0.07876248
v -0.98524284 0.45050064 0.00586877
v -0.92756236 0.56256813 0.08767049
v 0.56682914 0.91253096 0.20949902
v 0.61045629 0.90373212 0.07897531
v 0.45294875 0.88205600 0.46458071
v 0.51380843 0.90578330 0.34203425
v 0.76475227 0.75559604 0.23675755
v 0.64869982 0.83726597 0.29437920
v 0.71327585 0.74950206 0.37161145
v 0.13409357 0.64905220 0.87512577
v 0.21910977 0.72445554 0.79859459
v 0.48341477 0.62227774 0.76911765
v 0.35485482 0.67702466 0.78999704
v 0.39401063 0.55717695 0.86089015
v 0.30095017 0.78905416 0.70327568
v 0.37467930 0.83761871 0.59744102
v 0.90233403 0.34354129 0.49822086
v 0.82108772 0.41006622 0.58557993
v 0.82332116 0.31382573 0.64578670
v 0.77213502 0.63186568 0.45733476
v 0.80631012 0.52493483 0.52363366
v 0.86495793 0.55877835 0.37960568
v 0.62839013 0.43665522 0.78638083
v 0.72582436 0.48302147 0.66049075
v 0.62188709 0.54879779 0.71954483
v 0.51834786 0.78580350 0.56357855
v 0.57739723 0.67091340 0.64958537
v 0.65531433 0.71602678 0.51444644
v -0.13665959 0.53854239 0.94115514
v -0.00155030 0.57815498 0.93044698
v -0.39600149 0.43071610 0.91261733
v -0.27206370 0.48634544 0.93279356
v -0.00088695 0.35797879 1.02625704
v -0.13685767 0.41775686 0.98749995
v -0.13404161 0.30070886 1.02943063
v -0.84954923 0.17257287 0.67452031
v -0.75381404 0.23311928 0.75156599
v -0.56586784 0.11303008 0.93570662
v -0.66587257 0.17597975 0.85036564
v -0.68844265 0.07623222 0.87179381
v -0.64284754 0.29297954 0.81609225
v -0.53647274 0.35702586 0.87266964
v -0.03472545 0.00937260 1.06439257
v -0.16280079 0.00000000 1.07174098
v -0.18441334 0.09720227 0.95973819
v -0.13685380 0.17293347 1.07716107
v -0.14164905 0.07587115 1.10240197
v 0.00559174 0.13856028 1.10061622
v -0.46649531 0.00388009 0.97604048
v -0.30761322 0.00676016 1.07329142
v -0.43880135 0.05802087 1.01721179
v -0.41447952 0.29635599 0.95612454
v -0.42498356 0.16878316 0.99994934
v -0.27639100 0.23232740 1.02626395
v -1.01607299 0.15168260 0.40541837
v -0.95323491 0.13748781 0.54566348
v -1.09393585 0.16524364 0.10340925
v -1.06816113 0.15349390 0.25671044
v -0.99231058 0.00138373 0.40193033
v -1.05117571 0.06655567 0.35460401
v -1.03864610 0.00010536 0.24818107
v -0.96237028 0.16178147 -0.53454953
v -1.03384650 0.15405576 -0.39108723
v -1.03400815 0.00014608 -0.30313924
v -1.05325258 0.07245416 -0.34005806
v -0.99310702 0.00000000 -0.43543136
v -1.07487559 0.14788002 -0.23488644
v -1.09956753 0.15277696 -0.08399095
v -0.63182795 0.22813664 0.08253714
v -0.75568479 0.23446241 -0.03478347
v -0.65410841 0.27378777 -0.05911107
v -0.93664819 0.07297376 0.10736997
v -0.84295195 0.15997136 0.05755790
v -0.83721429 0.11056011 0.21201727
v -0.82318723 0.17995505 -0.28026262
v -0.84601802 0.16214484 -0.09116820
v -0.93177408 0.10006827 -0.20554794
v -1.10728240 0.08600865 0.00726543
v -1.03950071 0.00000000 -0.12984145
v -1.07300258 0.00000000 0.06253710
v -0.76672292 0.26194185 -0.74997377
v -0.86486989 0.20116940 -0.66843635
v -0.54021013 0.37282190 -0.87609482
v -0.65619206 0.32134375 -0.81989783
v -0.69632232 0.09627855 -0.86090291
v -0.68246222 0.20583318 -0.85472780
v -0.58442593 0.13448195 -0.93007988
v -0.00172150 0.58089262 -0.92521876
v -0.13584495 0.54101896 -0.94020009
v -0.14224400 0.31926116 -1.03716087
v -0.13611311 0.42803794 -0.99706382
v -0.00070251 0.36772808 -1.03373349
v -0.27194685 0.48990330 -0.93643135
v -0.39772221 0.43892157 -0.91429812
v -0.15442486 0.01730749 -1.00069129
v -0.16797009 0.01489955 -1.08237207
v -0.00718847 0.00631680 -1.05974615
v -0.45170236 0.07768574 -1.02018893
v -0.32135007 0.02226551 -1.06945956
v -0.47109592 0.00000000 -0.99375457
v -0.00584529 0.14330874 -1.10366023
v -0.16631222 0.09167518 -1.10579121
v -0.14713293 0.18386614 -1.07634771
v -0.42157781 0.31244755 -0.96215343
v -0.28667185 0.24481265 -1.02519345
v -0.44177979 0.18324038 -0.99279332
v 0.21460396 0.72118312 -0.79628378
v 0.13273831 0.64635497 -0.87219727
v 0.36903071 0.84011364 -0.59899145
v 0.29632810 0.78801715 -0.70288384
v 0.39239785 0.55206209 -0.85492659
v 0.35048422 0.67423677 -0.78789085
v 0.47510594 0.62045509 -0.76198113
v 0.60988104 0.90274900 -0.08097767
v 0.56550139 0.91019309 -0.21033940
v 0.71193504 0.75012207 -0.37132457
v 0.64642167 0.83555043 -0.29475310
v 0.76404822 0.75271380 -0.23645222
v 0.51210201 0.90283394 -0.34168783
v 0.45109087 0.88342845 -0.46444464
v 0.82765663 0.31748360 -0.65237355
v 0.81914735 0.41516691 -0.58752787
v 0.90662229 0.35071310 -0.50884271
v 0.61188579 0.55345470 -0.71269518
v 0.71668345 0.48634467 -0.65580004
v 0.62643862 0.43599555 -0.77545255
v 0.86019909 0.56235164 -0.38062781
v 0.79573190 0.52778989 -0.52093720
v 0.76669145 0.63566047 -0.45608398
v 0.51224607 0.78827757 -0.56308365
v 0.64983284 0.72214806 -0.51312172
v 0.56825668 0.67407876 -0.64750952
v 0.64912343 0.20579746 0.12390018
v 0.58609343 0.21318732 0.25828376
v 0.52533817 0.23919086 0.15627816
v 0.77253729 0.06654289 0.40553993
v 0.67769980 0.15710540 0.32677513
v 0.80895710 0.07971108 0.25812253
v 0.37558046 0.26592475 0.42909080
v 0.53416747 0.21681547 0.38518670
v 0.47744915 0.20052913 0.52039510
v 0.85068494 0.19555981 0.66722506
v 0.89797705 0.10718729 0.64110941
v 0.95899558 0.16336094 0.52830493
v 0.70813441 0.00000000 0.83097780
v 0.81854844 0.05133534 0.74741906
v 0.69031429 0.08174961 0.86127555
v 0.98981923 0.00000000 0.44618642
v 0.91599733 0.00381443 0.59962589
v 0.87233794 0.00757331 0.55331528
v 0.07348340 0.09990446 0.86376178
v 0.21444608 0.08435164 0.85957479
v 0.12952614 0.03364128 0.98323160
v 0.38225698 0.14809857 0.66909659
v 0.29372260 0.15837739 0.75675297
v 0.23853636 0.20595823 0.62941235
v 0.43816632 0.00000000 0.98979950
v 0.37284744 0.08538197 0.86084688
v 0.52920198 0.00996116 0.86397702
v 0.71755052 0.07696419 0.56814736
v 0.62569594 0.09972686 0.72221297
v 0.53993082 0.16092964 0.62475908
v 0.38978052 0.15188476 0.20792730
v 0.43394259 0.11145473 0.04523829
v 0.24004865 0.27539286 0.43029317
v 0.32746622 0.26648548 0.32970726
v 0.15990701 0.08697003 0.06096936
v 0.22944181 0.17313622 0.20807803
v 0.09774437 0.15925889 0.18424253
v -0.11481339 0.09989706 0.84666097
v -0.03076389 0.12327258 0.76699954
v -0.16734676 0.23292781 0.51626682
v -0.09781864 0.19641529 0.64847332
v -0.24779730 0.23201175 0.63069570
v 0.06908847 0.15393560 0.65916860
v 0.14505067 0.22661082 0.53083718
v -0.42259157 0.16640002 0.04576975
v -0.37708041 0.26526582 0.13833676
v -0.50891745 0.31073686 0.16598542
v -0.07741325 0.14926192 0.16962016
v -0.20505956 0.25336587 0.12902696
v -0.13311663 0.09168493 0.05525853
v -0.39512423 0.22856781 0.42388710
v -0.31701821 0.23092070 0.26171321
v -0.25073290 0.28690878 0.40654689
v 0.11241645 0.23437564 0.41268906
v -0.08687083 0.26623157 0.41115782
v 0.00488876 0.14360246 0.31471843
v 0.39809456 0.09528220 -0.09238034
v 0.49742705 0.19719292 -0.08956802
v 0.09169027 0.06009461 -0.07492899
v 0.24365005 0.06177621 -0.07431261
v 0.41674185 0.19002742 -0.36388761
v 0.32999444 0.07998405 -0.23996575
v 0.25924563 0.11414187 -0.36802703
v -0.46840122 0.25446948 -0.10824914
v -0.38468364 0.12476909 -0.10153363
v -0.23850743 0.07019958 -0.31633922
v -0.30655187 0.08384183 -0.20852378
v -0.38308096 0.11582662 -0.34913990
v -0.23406826 0.05278290 -0.07997782
v -0.10181917 0.05164619 -0.08509693
v 0.08988429 0.10116192 -0.82417864
v 0.00399858 0.14617953 -0.71613055
v -0.10067963 0.08041982 -0.83070129
v 0.14813305 0.19124940 -0.50190282
v 0.11955437 0.10406207 -0.60675400
v 0.24514207 0.23434941 -0.62996870
v -0.23479861 0.02951121 -0.57734960
v -0.06423464 0.05208119 -0.58530521
v -0.12237282 0.06146435 -0.44594252
v 0.01593590 0.06519039 -0.20813359
v -0.05930932 0.08423959 -0.32566378
v 0.10530410 0.10017844 -0.32963461
v 0.61318690 0.16595238 -0.19444963
v 0.64523822 0.21375985 -0.05109575
v 0.46325064 0.25031894 -0.47211623
v 0.56139755 0.23322310 -0.32345864
v 0.81807852 0.16156057 -0.24583498
v 0.70208091 0.18434726 -0.30284572
v 0.76181090 0.09629171 -0.39161697
v 0.15602323 0.00902579 -0.97922349
v 0.21973273 0.10340887 -0.86595309
v 0.52972460 0.02094585 -0.87215698
v 0.36755964 0.03624708 -0.85230345
v 0.46144095 0.00000000 -0.99219954
v 0.30972642 0.14575671 -0.73968154
v 0.38396448 0.17024629 -0.63345695
v 0.95226020 0.17157897 -0.54731792
v 0.90446848 0.09690213 -0.66570824
v 0.86252356 0.19240843 -0.68341321
v 0.84113926 0.00121692 -0.50934786
v 0.91834509 0.00208907 -0.61791605
v 0.96897489 0.01365554 -0.43698707
v 0.70479804 0.07862496 -0.87603813
v 0.83537722 0.03993740 -0.76388246
v 0.69779360 0.00000000 -0.83362937
v 0.51643640 0.14598292 -0.60766006
v 0.59359592 0.07037322 -0.72891927
v 0.67666757 0.03876393 -0.54067665
v 0.76736099 0.18701568 0.04243906
v 0.93207353 0.13707006 -0.16448255
v 0.85922825 0.17996602 -0.06512809
v 0.86125451 0.12826432 0.11340438
v 0.93930858 0.03676096 0.18642843
v 0.98092586 0.25631392 -0.43961602
v 1.02634025 0.15968716 -0.40308890
v 1.09993434 0.15177567 -0.10875495
v 1.07367194 0.15375094 -0.25627416
v 1.06722546 0.25365308 -0.15833881
v 1.05975056 0.05572278 -0.35947323
v 1.01423156 0.06680267 -0.27340651
v 1.02165258 0.15763363 0.39003223
v 0.97012401 0.24951248 0.41702327
v 1.02045429 0.00000000 0.27422574
v 1.04991400 0.08415045 0.33824432
v 1.05671084 0.24404772 0.13534954
v 1.06898808 0.16467598 0.23356396
v 1.09990191 0.15572146 0.07749970
v 1.04792404 0.00148337 -0.10756351
v 1.11297321 0.07557958 -0.00127241
v 1.05606794 0.00000000 0.08758932
v 0.13539502 0.00050516 1.08449447
v 0.45150304 0.06470026 1.01502740
v 0.29822490 0.02573852 1.05662680
v 0.15991920 0.09883463 1.09655237
v 0.15407704 0.18229204 1.07753432
v 0.75523591 0.25261489 0.75057209
v 0.54200983 0.37435797 0.88945252
v 0.64907897 0.31001261 0.82477731
v 0.67144650 0.19053699 0.85209787
v 0.57621205 0.12232730 0.93205792
v 0.13329718 0.53847480 0.94266915
v 0.13959450 0.30814719 1.03790700
v 0.13514127 0.41966775 0.99418259
v 0.27015463 0.49137872 0.93862653
v 0.39710933 0.44136751 0.92012775
v 0.43702418 0.17757030 0.99457264
v 0.41555479 0.31336918 0.96887857
v 0.28329214 0.24438253 1.02846825
v -0.61057717 0.24417920 0.23588708
v -0.50148666 0.21634692 0.48256177
v -0.52760148 0.19749832 0.34106714
v -0.69248539 0.18481092 0.29204586
v -0.79731089 0.13671577 0.36034960
v -0.27445990 0.12211532 0.85653675
v -0.53714538 0.02089190 0.84205920
v -0.40509322 0.10084999 0.86237597
v -0.34702620 0.16467120 0.73951757
v -0.41311663 0.18349242 0.64271498
v -0.89695829 0.07746307 0.65528715
v -0.87059945 0.07541268 0.46603960
v -0.92473239 0.00003795 0.59596598
v -0.82494980 0.04377357 0.76227450
v -0.71861368 0.00000000 0.81520861
v -0.57229722 0.18089217 0.58285910
v -0.62494487 0.08408238 0.69695729
v -0.72326159 0.11803333 0.53506243
v -0.24114910 0.04933850 -0.87699056
v -0.35777777 0.11117812 -0.63543022
v -0.33284220 0.00070414 -0.73359090
v -0.39140210 0.00976687 -0.86734188
v -0.54178226 0.00000000 -0.84985483
v -0.59975737 0.16941893 -0.18378140
v -0.77834266 0.17041013 -0.42033720
v -0.68798208 0.21691997 -0.30925384
v -0.55045027 0.09922459 -0.34825638
v -0.47553864 0.12848455 -0.48773658
v -0.90278566 0.11922447 -0.65539455
v -0.71648467 0.00000000 -0.83389765
v -0.82434380 0.04758773 -0.75827771
v -0.89591557 0.00266026 -0.58770603
v -0.86528593 0.05861682 -0.51314372
v -0.56593877 0.11815958 -0.62111461
v -0.70594776 0.13020283 -0.55965990
v -0.65272468 0.03238672 -0.71247256
v 0.76506555 0.25219026 -0.75788116
v 0.58134061 0.13413908 -0.94632238
v 0.67862171 0.19387482 -0.86349934
v 0.65327799 0.31745946 -0.82246017
v 0.54204875 0.37277275 -0.87017524
v 0.14683369 0.00000000 -1.06504714
v 0.13777219 0.19833653 -1.08236253
v 0.13975790 0.08950945 -1.09793329
v 0.30279422 0.02417706 -1.05627692
v 0.43655232 0.08185026 -1.02698398
v 0.13328135 0.54050791 -0.93859643
v 0.39869317 0.44360912 -0.91425025
v 0.27022079 0.49111974 -0.93428063
v 0.13812415 0.43211374 -0.99792159
v 0.13594443 0.32090184 -1.04424798
v 0.43189725 0.19270474 -1.00144386
v 0.28122801 0.25638524 -1.03499007
v 0.42206061 0.31572336 -0.96271086
v 0.96332043 0.34877515 0.36399713
v 1.03624809 0.35244864 0.07967279
v 1.01380134 0.35190663 0.21872973
v 0.94644785 0.46025878 0.30714110
v 0.91192114 0.56495988 0.24159181
v 0.96603012 0.34905726 -0.37933004
v 0.90999526 0.55926788 -0.24218574
v 0.94280177 0.45611337 -0.30899066
v 1.01329565 0.34632254 -0.23348936
v 1.03679526 0.34864095 -0.09065740
v 0.70091778 0.84269726 -0.00114321
v 0.85184669 0.67918235 0.15690821
v 0.78485566 0.76697987 0.08028829
v 0.78391987 0.76442581 -0.08208858
v 0.85187536 0.67566013 -0.15646206
v 0.98973471 0.45531702 -0.00077173
v 0.93114334 0.57059652 -0.08232904
v 0.92991179 0.57268250 0.08216975
f 330 87 329
f 336 325 26
f 207 208 56
f 464 36 580
f 502 129 504
f 157 624 622
f 308 311 82
f 247 223 248
f 507 483 508
f 331 88 329
f 494 500 497
f 156 601 602
f 591 589 592
f 365 98 596
f 75 281 282
f 152 587 577
f 149 559 560
f 555 121 553
f 530 141 529
f 515 517 139
f 361 594 98
f 250 67 249
f 157 608 609
f 294 293 209
f 317 81 316
f 557 338 26
f 303 305 81
f 530 529 528
f 101 381 382
f 415 418 111
f 192 184 50
f 412 110 411
f 20 384 256
f 131 594 486
f 281 264 282
f 347 287 348
f 28 349 582
f 165 163 1
f 248 250 66
f 617 107 398
f 273 271 274
f 456 115 453
f 558 561 560
f 335 576 91
f 331 177 332
f 116 433 436
f 351 370 92
f 136 511 530
f 239 240 65
f 247 258 19
f 304 23 567
f 148 557 570
f 214 208 58
f 440 426 450
f 268 270 269
f 258 247 268
f 204 202 16
f 466 125 465
f 517 513 133
f 168 275 274
f 275 73 274
f 198 193 53
f 309 308 307
f 510 511 136
f 415 416 110
f 131 490 597
f 473 475 474
f 414 415 111
f 493 495 494
f 496 504 485
f 433 116 432
f 600 375 601
f 240 234 65
f 418 415 412
f 486 361 3
f 567 566 304
f 380 393 29
f 17 199 197
f 491 492 132
f 451 449 435
f 218 217 216
f 623 621 613
f 396 104 395
f 433 439 436
f 628 160 627
f 215 202 217
f 209 207 2
f 427 113 424
f 434 10 544
f 434 433 432
f 199 17 210
f 150 564 565
f 489 491 132
f 275 13 285
f 497 500 134
f 125 466 476
f 578 152 577
f 208 214 211
f 328 88 343
f 356 27 603
f 150 566 567
f 372 100 371
f 190 191 47
f 235 8 398
f 260 261 72
f 422 403 414
f 422 414 111
f 453 454 123
f 349 583 582
f 521 520 519
f 425 453 115
f 616 622 158
f 483 130 508
f 151 586 572
f 212 17 232
f 400 397 402
f 377 396 99
f 41 522 511
f 510 508 505
f 549 547 42
f 475 473 36
f 510 137 509
f 222 221 197
f 430 115 429
f 220 194 1
f 305 54 204
f 621 29 613
f 192 171 184
f 460 335 5
f 88 331 332
f 74 277 279
f 300 301 80
f 390 389 388
f 165 45 164
f 146 549 551
f 291 278 75
f 448 120 445
f 147 543 544
f 607 610 609
f 603 602 356
f 139 529 514
f 333 553 443
f 92 368 347
f 261 260 259
f 300 6 200
f 46 177 331
f 284 283 174
f 301 300 200
f 471 468 474
f 54 305 301
f 302 304 303
f 569 150 567
f 150 569 570
f 294 209 2
f 628 629 160
f 548 543 147
f 147 625 627
f 63 233 234
f 426 427 114
f 41 509 532
f 198 52 196
f 614 105 612
f 147 627 547
f 81 305 306
f 549 548 547
f 54 301 200
f 342 88 332
f 264 281 70
f 193 194 53
f 455 429 456
f 187 321 14
f 479 130 484
f 147 544 625
f 458 456 453
f 304 80 303
f 314 84 313
f 488 503 501
f 321 332 14
f 423 425 424
f 305 204 306
f 341 339 25
f 514 40 516
f 625 628 627
f 340 339 341
f 105 614 391
f 243 228 62
f 318 316 78
f 75 278 279
f 357 355 353
f 238 257 63
f 466 455 476
f 425 423 4
f 448 449 120
f 408 638 108
f 292 275 285
f 22 278 289
f 515 513 517
f 501 503 134
f 622 623 158
f 134 503 504
f 195 216 206
f 163 271 246
f 619 617 620
f 62 228 229
f 163 165 164
f 453 425 454
f 489 132 488
f 82 628 625
f 58 208 209
f 525 608 40
f 626 547 627
f 518 517 498
f 489 487 491
f 557 26 564
f 325 336 344
f 541 145 539
f 40 616 516
f 338 556 89
f 250 248 245
f 139 514 515
f 98 594 596
f 246 220 1
f 112 413 630
f 9 536 413
f 156 600 601
f 332 177 14
f 321 342 332
f 156 606 600
f 584 330 585
f 302 303 81
f 584 87 330
f 330 25 585
f 400 239 65
f 439 440 117
f 95 358 368
f 597 594 131
f 594 361 486
f 246 67 245
f 561 562 149
f 28 364 362
f 55 216 217
f 427 430 114
f 267 20 254
f 556 555 553
f 84 309 558
f 311 310 312
f 609 525 142
f 256 68 255
f 124 460 461
f 82 311 312
f 307 308 82
f 589 135 495
f 527 40 514
f 112 418 412
f 20 256 254
f 258 238 19
f 267 254 269
f 273 272 249
f 392 391 393
f 137 533 509
f 122 455 456
f 9 413 411
f 130 480 505
f 333 443 5
f 527 525 40
f 589 495 385
f 39 496 485
f 223 225 224
f 414 416 415
f 219 222 53
f 145 538 539
f 413 412 411
f 469 468 467
f 183 181 6
f 191 192 50
f 429 35 431
f 292 285 76
f 413 112 412
f 415 110 412
f 43 164 167
f 467 468 126
f 617 101 620
f 450 451 117
f 438 546 545
f 619 620 159
f 17 212 210
f 124 579 576
f 584 153 583
f 460 124 576
f 3 469 467
f 311 308 314
f 6 320 183
f 389 104 388
f 251 250 249
f 194 165 1
f 291 289 278
f 287 77 348
f 238 258 257
f 139 517 518
f 238 236 19
f 223 247 19
f 382 380 29
f 39 518 498
f 361 359 3
f 69 255 257
f 139 518 528
f 33 545 535
f 387 385 7
f 69 268 269
f 477 462 125
f 454 479 123
f 121 555 447
f 451 435 117
f 454 425 4
f 233 252 8
f 124 463 464
f 69 258 268
f 168 167 166
f 583 153 582
f 384 394 102
f 138 512 513
f 57 210 211
f 254 256 255
f 607 609 142
f 324 319 86
f 289 291 76
f 291 292 76
f 384 102 383
f 422 421 420
f 221 17 197
f 383 102 381
f 376 377 99
f 99 373 374
f 386 105 392
f 438 33 440
f 90 341 343
f 281 75 279
f 574 571 96
f 628 82 312
f 221 222 59
f 127 471 474
f 595 605 603
f 551 538 145
f 334 91 340
f 322 324 85
f 305 303 301
f 18 239 399
f 306 204 16
f 199 198 197
f 166 190 180
f 303 80 301
f 267 266 265
f 626 42 547
f 16 215 213
f 349 351 350
f 295 16 213
f 68 379 252
f 250 251 66
f 627 160 626
f 383 68 256
f 343 88 342
f 507 508 136
f 202 215 16
f 197 198 53
f 254 69 269
f 603 605 156
f 418 419 111
f 384 383 256
f 455 122 476
f 203 204 54
f 556 557 148
f 255 68 253
f 313 84 560
f 25 328 341
f 254 255 69
f 603 156 602
f 581 584 583
f 630 632 112
f 163 246 1
f 246 245 220
f 432 116 558
f 499 591 590
f 320 563 86
f 345 93 350
f 306 16 295
f 346 93 345
f 562 568 149
f 604 605 155
f 154 592 593
f 545 552 535
f 511 522 530
f 574 573 571
f 566 150 565
f 361 98 360
f 67 271 273
f 234 235 65
f 208 211 56
f 574 151 573
f 251 270 66
f 398 8 378
f 213 215 214
f 438 440 439
f 315 314 313
f 263 71 262
f 20 373 384
f 496 134 504
f 329 88 328
f 81 306 316
f 555 556 148
f 592 589 103
f 617 619 107
f 227 207 56
f 571 359 96
f 446 466 465
f 206 216 55
f 359 571 469
f 568 148 570
f 34 437 435
f 28 351 349
f 21 272 282
f 113 423 424
f 490 489 488
f 379 68 383
f 210 212 211
f 80 563 300
f 351 92 350
f 326 346 12
f 83 317 318
f 555 148 554
f 212 231 56
f 218 57 217
f 271 67 246
f 195 196 52
f 270 268 66
f 390 592 103
f 148 568 554
f 495 493 7
f 592 390 593
f 357 95 355
f 574 575 151
f 452 120 451
f 154 591 592
f 587 585 577
f 395 394 396
f 93 349 350
f 610 416 611
f 166 44 190
f 315 23 302
f 315 302 317
f 268 247 66
f 606 154 593
f 396 394 99
f 211 212 56
f 370 369 368
f 235 397 65
f 280 278 22
f 83 315 317
f 575 588 151
f 74 279 280
f 385 495 7
f 63 257 253
f 397 235 398
f 214 58 213
f 220 219 194
f 546 146 545
f 236 225 19
f 599 94 602
f 235 233 8
f 102 394 395
f 611 416 32
f 225 223 19
f 139 528 529
f 231 62 229
f 419 406 421
f 451 450 452
f 49 182 185
f 402 397 107
f 52 199 218
f 416 610 110
f 225 236 244
f 107 397 398
f 68 252 253
f 322 85 321
f 182 181 183
f 118 438 439
f 546 438 118
f 348 77 345
f 543 546 118
f 231 212 232
f 610 611 157
f 33 438 545
f 385 386 103
f 479 480 130
f 169 195 15
f 93 583 349
f 15 195 206
f 190 44 192
f 247 248 66
f 146 552 545
f 248 60 245
f 570 557 564
f 274 271 43
f 63 253 233
f 272 21 249
f 507 528 518
f 67 273 249
f 487 467 126
f 196 195 169
f 624 159 623
f 134 496 497
f 132 503 488
f 104 393 395
f 556 553 89
f 355 356 94
f 258 69 257
f 229 61 227
f 56 231 227
f 460 576 335
f 463 124 461
f 394 373 99
f 29 393 391
f 67 250 245
f 193 198 196
f 462 36 464
f 144 633 630
f 141 526 527
f 517 133 498
f 536 144 630
f 100 372 599
f 144 536 537
f 22 289 287
f 578 579 152
f 579 578 576
f 189 188 187
f 60 223 224
f 92 348 350
f 555 554 447
f 396 377 388
f 194 193 165
f 413 536 630
f 372 352 599
f 377 376 375
f 348 345 350
f 105 386 387
f 240 237 234
f 463 462 464
f 135 500 494
f 45 196 169
f 512 612 387
f 245 60 220
f 429 115 456
f 223 60 248
f 288 289 76
f 525 526 142
f 100 599 601
f 613 29 391
f 526 523 520
f 341 328 343
f 631 641 639
f 264 21 282
f 266 72 265
f 106 402 403
f 73 273 274
f 186 206 205
f 381 379 383
f 52 216 195
f 410 18 399
f 290 272 73
f 72 371 374
f 526 525 527
f 115 430 424
f 498 497 496
f 621 382 29
f 543 118 434
f 214 215 57
f 522 141 530
f 511 510 509
f 352 94 599
f 493 512 7
f 90 340 341
f 169 171 170
f 605 604 606
f 219 60 224
f 104 389 392
f 359 469 3
f 186 49 185
f 222 219 224
f 166 167 44
f 428 427 426
f 523 522 524
f 129 502 481
f 50 185 188
f 164 45 170
f 425 115 424
f 33 428 426
f 427 428 113
f 94 356 602
f 515 138 513
f 114 431 452
f 237 236 238
f 215 217 57
f 95 354 355
f 220 60 219
f 515 514 516
f 183 320 319
f 222 197 53
f 559 569 567
f 300 320 6
f 435 436 117
f 96 360 363
f 640 642 641
f 242 243 62
f 140 537 519
f 508 130 505
f 420 410 399
f 537 539 144
f 317 316 318
f 426 114 450
f 186 15 206
f 311 83 310
f 625 544 307
f 544 10 307
f 168 43 167
f 185 182 188
f 369 354 95
f 44 171 192
f 605 606 156
f 548 549 146
f 100 601 375
f 149 568 569
f 381 380 382
f 455 466 35
f 480 479 454
f 543 548 546
f 493 133 513
f 492 472 37
f 477 125 476
f 491 487 126
f 337 336 338
f 588 153 587
f 576 578 91
f 633 161 632
f 96 359 360
f 39 485 483
f 101 617 378
f 193 45 165
f 163 164 43
f 618 624 611
f 507 136 528
f 561 149 560
f 641 162 639
f 116 561 558
f 494 133 493
f 253 252 233
f 63 237 238
f 392 393 104
f 440 450 117
f 93 581 583
f 386 385 387
f 120 449 451
f 421 422 111
f 486 3 467
f 302 81 317
f 633 632 630
f 462 475 36
f 376 99 374
f 489 490 131
f 447 449 448
f 387 612 105
f 106 420 399
f 173 46 172
f 492 491 472
f 316 306 295
f 22 287 347
f 109 410 420
f 507 39 483
f 559 23 313
f 214 57 211
f 196 45 193
f 10 434 432
f 422 106 403
f 626 160 640
f 487 486 467
f 542 41 532
f 400 106 399
f 444 120 452
f 198 199 52
f 475 127 474
f 621 620 382
f 621 623 159
f 450 114 452
f 92 347 348
f 376 100 375
f 434 118 433
f 503 132 502
f 337 90 336
f 537 536 519
f 395 393 380
f 201 54 200
f 171 44 170
f 355 94 353
f 58 296 213
f 422 420 106
f 595 365 596
f 569 568 570
f 523 140 520
f 114 430 431
f 218 210 57
f 304 566 80
f 639 162 638
f 261 371 72
f 548 147 547
f 498 133 497
f 150 570 564
f 222 224 59
f 142 526 520
f 437 436 435
f 141 522 523
f 137 510 505
f 173 179 176
f 559 149 569
f 121 447 448
f 563 320 300
f 102 395 380
f 257 255 253
f 642 162 641
f 83 311 314
f 216 52 218
f 512 493 513
f 23 304 302
f 91 339 340
f 512 138 612
f 159 620 621
f 218 199 210
f 364 28 575
f 83 318 310
f 168 274 43
f 136 530 528
f 140 523 524
f 495 135 494
f 233 235 234
f 566 563 80
f 25 339 577
f 277 74 276
f 475 462 477
f 133 494 497
f 436 437 116
f 389 386 392
f 548 146 546
f 441 460 5
f 10 309 307
f 65 397 400
f 543 434 544
f 640 641 161
f 272 273 73
f 581 93 346
f 419 421 111
f 319 320 86
f 180 179 178
f 127 475 477
f 231 229 227
f 337 334 340
f 136 508 510
f 308 309 84
f 237 63 234
f 447 554 34
f 252 379 378
f 315 83 314
f 608 622 616
f 338 336 26
f 337 338 89
f 13 275 168
f 209 208 207
f 436 439 117
f 628 312 629
f 360 366 363
f 364 574 96
f 359 361 360
f 466 446 35
f 500 501 134
f 406 109 421
f 135 589 591
f 601 599 602
f 340 90 337
f 481 492 37
f 522 41 524
f 78 316 295
f 131 486 487
f 403 32 414
f 634 626 640
f 151 572 573
f 515 516 138
f 8 252 378
f 265 72 374
f 9 521 519
f 538 549 42
f 368 358 347
f 588 587 586
f 458 453 123
f 589 385 103
f 502 492 481
f 32 416 414
f 430 427 424
f 153 585 587
f 540 144 539
f 370 368 92
f 209 293 58
f 428 33 535
f 326 581 346
f 625 307 82
f 575 28 582
f 6 181 200
f 421 109 420
f 553 121 443
f 160 642 640
f 153 584 585
f 309 432 558
f 334 337 89
f 23 315 313
f 271 163 43
f 296 295 213
f 39 498 496
f 118 439 433
f 531 113 534
f 293 296 58
f 28 362 351
f 489 131 487
f 431 444 452
f 84 558 560
f 98 366 360
f 45 169 170
f 379 101 378
f 462 463 125
f 308 84 314
f 10 432 309
f 299 24 310
f 132 492 502
f 512 387 7
f 639 638 408
f 565 323 86
f 59 244 242
f 106 400 402
f 440 33 426
f 566 565 563
f 617 398 378
f 224 225 59
f 410 109 409
f 239 400 399
f 194 219 53
f 358 22 347
f 610 157 609
f 27 595 603
f 479 484 482
f 142 520 521
f 585 25 577
f 339 578 577
f 408 407 406
f 407 109 406
f 31 408 406
f 407 408 108
f 31 639 408
f 419 31 406
f 608 616 40
f 430 429 431
f 455 35 429
f 35 444 431
f 188 51 187
f 188 182 51
f 51 322 187
f 322 51 319
f 51 182 183
f 319 51 183
f 187 322 321
f 322 319 324
f 381 101 379
f 405 407 108
f 404 405 108
f 286 285 178
f 407 405 409
f 109 407 409
f 191 175 47
f 167 164 170
f 50 184 185
f 44 167 170
f 64 244 236
f 243 244 64
f 50 188 189
f 541 542 145
f 442 445 119
f 339 91 578
f 445 446 119
f 624 623 622
f 611 624 157
f 523 526 141
f 141 527 529
f 527 514 529
f 445 120 444
f 446 445 444
f 35 446 444
f 613 614 158
f 158 614 615
f 623 613 158
f 614 613 391
f 614 612 615
f 371 376 374
f 100 376 371
f 479 482 123
f 373 394 384
f 540 42 634
f 633 540 634
f 538 42 540
f 633 634 161
f 161 634 640
f 42 626 634
f 540 633 144
f 557 556 338
f 553 333 89
f 262 21 264
f 251 21 262
f 5 335 333
f 270 251 262
f 21 251 249
f 600 593 30
f 606 593 600
f 600 30 375
f 593 390 30
f 30 377 375
f 390 388 30
f 30 388 377
f 228 243 241
f 470 478 459
f 470 127 478
f 127 477 478
f 184 186 185
f 478 477 476
f 122 478 476
f 357 74 280
f 518 39 507
f 344 342 85
f 325 344 85
f 342 344 343
f 85 342 321
f 344 90 343
f 90 344 336
f 482 129 481
f 482 481 457
f 482 457 123
f 481 37 457
f 449 447 34
f 435 449 34
f 470 472 471
f 472 470 37
f 470 471 127
f 472 126 471
f 126 468 471
f 470 459 37
f 491 126 472
f 504 129 485
f 221 59 242
f 125 463 465
f 437 34 562
f 561 437 562
f 554 568 562
f 34 554 562
f 437 561 116
f 390 103 389
f 103 386 389
f 392 105 391
f 572 586 580
f 572 580 36
f 586 152 580
f 473 572 36
f 244 243 242
f 225 244 59
f 64 240 241
f 240 239 241
f 237 240 64
f 243 64 241
f 236 237 64
f 411 607 521
f 9 411 521
f 110 607 411
f 607 142 521
f 610 607 110
f 171 15 184
f 171 169 15
f 15 186 184
f 87 584 581
f 153 588 582
f 588 575 582
f 381 102 380
f 573 572 473
f 468 469 128
f 474 468 128
f 469 571 128
f 571 573 128
f 573 473 128
f 473 474 128
f 564 323 565
f 26 323 564
f 323 324 86
f 325 323 26
f 325 324 323
f 563 565 86
f 324 325 85
f 410 230 18
f 230 228 18
f 18 228 241
f 18 241 239
f 401 619 618
f 401 402 107
f 403 402 401
f 619 159 618
f 401 618 32
f 619 401 107
f 403 401 32
f 618 611 32
f 159 624 618
f 478 122 459
f 122 458 459
f 37 459 457
f 459 458 457
f 122 456 458
f 457 458 123
f 191 190 192
f 485 129 484
f 129 482 484
f 483 485 484
f 130 483 484
f 189 187 14
f 191 50 189
f 191 189 175
f 189 14 175
f 14 177 175
f 499 501 500
f 501 499 38
f 38 499 590
f 135 499 500
f 488 501 38
f 499 135 591
f 480 454 4
f 284 12 346
f 4 423 506
f 480 4 506
f 423 531 506
f 480 506 505
f 531 137 506
f 506 137 505
f 365 366 98
f 71 270 262
f 270 71 269
f 71 267 269
f 335 334 333
f 333 334 89
f 334 335 91
f 536 9 519
f 465 463 461
f 537 140 541
f 520 140 519
f 119 446 465
f 465 461 119
f 461 441 119
f 460 441 461
f 176 46 173
f 299 297 24
f 71 263 266
f 263 260 266
f 260 72 266
f 263 70 260
f 205 201 49
f 201 181 49
f 186 205 49
f 181 201 200
f 181 182 49
f 284 77 283
f 586 587 152
f 588 586 151
f 20 267 265
f 266 267 71
f 31 417 631
f 631 417 632
f 31 631 639
f 417 31 419
f 641 631 161
f 417 112 632
f 161 631 632
f 418 417 419
f 417 418 112
f 284 345 77
f 542 550 145
f 542 541 524
f 284 174 12
f 48 174 283
f 373 20 265
f 373 265 374
f 609 608 525
f 608 157 622
f 560 559 313
f 636 637 162
f 541 140 524
f 41 542 524
f 358 357 280
f 70 263 264
f 263 262 264
f 176 177 46
f 174 48 173
f 174 173 172
f 538 551 549
f 538 540 539
f 537 541 539
f 232 221 242
f 17 221 232
f 232 242 62
f 231 232 62
f 203 205 55
f 203 55 202
f 201 205 203
f 202 55 217
f 205 206 55
f 204 203 202
f 73 275 292
f 292 290 73
f 272 290 282
f 290 292 291
f 75 290 291
f 290 75 282
f 70 277 259
f 277 70 281
f 277 281 279
f 260 70 259
f 12 174 172
f 104 396 388
f 367 27 354
f 365 27 367
f 354 27 356
f 365 367 366
f 595 27 365
f 318 299 310
f 155 596 597
f 155 597 598
f 596 594 597
f 595 596 155
f 605 595 155
f 180 47 179
f 180 190 47
f 352 372 11
f 11 372 261
f 312 310 24
f 642 636 162
f 636 297 637
f 367 369 97
f 366 367 97
f 369 367 354
f 369 370 97
f 580 579 464
f 580 152 579
f 579 124 464
f 61 230 409
f 230 410 409
f 230 61 229
f 230 229 228
f 76 285 286
f 353 352 276
f 74 353 276
f 288 76 286
f 288 286 283
f 289 288 287
f 203 54 201
f 287 288 77
f 77 288 283
f 286 48 283
f 531 423 113
f 276 11 259
f 11 261 259
f 277 276 259
f 616 158 615
f 516 616 615
f 138 516 615
f 138 615 612
f 509 533 532
f 503 502 504
f 635 79 294
f 635 294 404
f 635 637 79
f 637 635 638
f 638 635 108
f 635 404 108
f 226 61 405
f 61 226 227
f 405 61 409
f 227 226 207
f 48 178 179
f 48 286 178
f 173 48 179
f 534 143 533
f 534 535 143
f 531 534 533
f 533 143 532
f 137 531 533
f 261 372 371
f 13 180 178
f 285 13 178
f 180 13 166
f 13 168 166
f 346 345 284
f 331 327 46
f 46 327 172
f 172 327 326
f 382 620 101
f 442 121 448
f 443 121 442
f 2 226 404
f 294 2 404
f 404 226 405
f 207 226 2
f 550 551 145
f 552 146 551
f 143 550 532
f 552 550 143
f 330 329 328
f 24 636 629
f 94 352 353
f 352 11 276
f 113 428 534
f 428 535 534
f 509 41 511
f 535 552 143
f 550 552 551
f 550 542 532
f 369 95 368
f 326 327 87
f 87 327 329
f 327 331 329
f 581 326 87
f 293 79 298
f 79 297 298
f 296 298 78
f 79 293 294
f 296 293 298
f 598 490 38
f 358 280 22
f 280 279 278
f 357 358 95
f 74 357 353
f 330 328 25
f 567 23 559
f 590 598 38
f 590 604 598
f 598 604 155
f 604 590 154
f 590 591 154
f 604 154 606
f 297 299 298
f 299 318 78
f 298 299 78
f 355 354 356
f 629 636 642
f 312 24 629
f 629 642 160
f 370 362 97
f 362 363 97
f 363 366 97
f 364 363 362
f 362 370 351
f 96 363 364
f 297 636 24
f 162 637 638
f 637 297 79
f 490 488 38
f 598 597 490
f 441 442 119
f 443 442 441
f 443 441 5
f 442 448 445
f 296 78 295
f 326 12 172
f 575 574 364
f 47 175 176
f 175 177 176
f 47 176 179
