# FEM surface export ¡ª frame 715
# Vertices: 642  Faces: 1280
v -0.49170423 0.74809802 0.00419477
v 0.47848374 0.76212734 -0.02119521
v -0.53917533 0.69280332 0.00149927
v 0.60136849 0.58143830 0.02288289
v 0.00170683 0.38550490 0.84063226
v -0.01229248 0.56630766 0.86884141
v 0.00430785 0.28494939 -0.82371050
v -0.01329273 0.54016435 -0.88564217
v 0.92705971 0.15262689 -0.55489343
v 0.91422194 0.11717151 0.56903750
v -0.93683428 0.08738834 -0.57563436
v -0.94283229 0.12785003 0.55124521
v -0.81978309 0.53937429 0.30572733
v -0.52398604 0.37518474 0.84854883
v -0.29815656 0.71937293 0.48775983
v 0.30028200 0.73522192 0.48067695
v -0.01563707 0.78007817 -0.00289952
v 0.27590033 0.74245858 -0.50469404
v -0.30978072 0.73070705 -0.48603117
v -0.54084057 0.36761907 -0.86401284
v -0.81915510 0.52882844 -0.34168619
v -1.09973311 0.12988319 -0.01921139
v 0.53049254 0.40343374 0.85853887
v 0.82482886 0.57852918 0.31291685
v -0.49904960 0.17115803 0.84470707
v 0.00478842 0.13092995 1.12178874
v -0.78519875 0.34230691 -0.27718771
v -0.77979654 0.29868016 0.28654680
v -0.00446206 0.13273039 -1.10580575
v -0.50862670 0.16605870 -0.81808996
v 0.81832927 0.56712276 -0.35032156
v 0.51277739 0.35449389 -0.85374272
v 0.82021141 0.19120938 0.30794039
v 0.47374052 0.12409714 0.87004626
v 0.37396345 0.55615538 0.50404394
v -0.32908002 0.58394498 0.50775689
v -0.01203983 0.54308635 0.03972001
v -0.31624502 0.47274140 -0.43383119
v 0.31186166 0.58051974 -0.48675436
v 0.51759505 0.14857908 -0.82715654
v 0.78692967 0.20168786 -0.28163210
v 1.09339857 0.20424935 0.01072905
v -0.68060946 0.67177755 0.15130052
v -0.58180881 0.65916735 0.42475736
v -0.41287327 0.74928337 0.25856563
v -0.76382470 0.28460336 0.74119288
v -0.70814711 0.46190825 0.59986448
v -0.90888548 0.36091572 0.44509485
v -0.16024227 0.65027237 0.69023353
v -0.43622825 0.56902093 0.69595778
v -0.26928920 0.48562151 0.89615583
v -0.15217194 0.77009624 0.24896285
v -0.25567672 0.78880823 0.01221577
v 0.15127733 0.66856200 0.69173276
v 0.00462179 0.73205829 0.49441662
v 0.22259331 0.77766758 -0.01631806
v 0.15168567 0.77651775 0.23622872
v 0.40637606 0.75712782 0.23005147
v -0.16401665 0.79007101 -0.24407566
v -0.41351947 0.75355136 -0.24262680
v 0.38652512 0.77308452 -0.26771840
v 0.12579550 0.79141939 -0.25866839
v -0.17267638 0.67012751 -0.70893407
v -0.01745815 0.75564039 -0.51290959
v 0.14532936 0.66321349 -0.71679395
v -0.57516438 0.66744024 -0.42867273
v -0.67245096 0.66921502 -0.17328154
v -0.28676331 0.46341088 -0.90761518
v -0.43771878 0.59551096 -0.70631647
v -0.92630368 0.32686973 -0.48103121
v -0.71730781 0.47423735 -0.61502564
v -0.77099454 0.24708425 -0.74872911
v -0.85394335 0.54994863 -0.02018190
v -1.02351403 0.12821384 -0.31050399
v -1.00287139 0.34846598 -0.19956124
v -1.01144278 0.34771192 0.14461358
v -1.07422101 0.13823234 0.29474291
v 0.58044863 0.68380421 0.41347960
v 0.67212862 0.70605874 0.13482025
v 0.26522839 0.49933469 0.91356707
v 0.43666023 0.61258578 0.70122999
v 0.92161709 0.36299533 0.47997728
v 0.72722912 0.50833511 0.61778283
v 0.76819968 0.27709615 0.75732094
v -0.28481483 0.27678651 1.02820957
v 0.00139914 0.35468438 1.03578341
v -0.77086979 0.02708262 0.78066659
v -0.57190120 0.11442566 0.93378901
v 0.03153309 0.11459617 0.94599330
v -0.27148971 0.01534524 0.99817389
v -0.24271652 0.25073048 0.88354731
v -0.92799491 0.00701453 0.15704739
v -0.88027543 0.11968788 0.45163199
v -0.88064867 0.16384338 -0.43021682
v -0.92875743 0.01843178 -0.17915218
v -0.65981990 0.50548577 0.14768872
v -0.83683336 0.30290544 0.01716543
v -0.71472162 0.54290766 -0.14614764
v -0.59998846 0.10768310 -0.92468560
v -0.74459523 0.09926023 -0.72290856
v -0.00905508 0.34485072 -1.03404593
v -0.29717407 0.23728994 -1.04377782
v -0.24376886 0.20883927 -0.82990044
v -0.29967013 0.00000000 -0.98233551
v -0.03490322 0.08675545 -0.99098116
v 0.41941991 0.58442372 -0.72362638
v 0.26218593 0.46817234 -0.91047060
v 0.65483850 0.70957011 -0.19903800
v 0.56500095 0.67887151 -0.45236683
v 0.74992478 0.25237402 -0.75919908
v 0.70679110 0.47547793 -0.64132941
v 0.90998149 0.37260112 -0.47368881
v 0.68432927 0.35748023 0.16360316
v 0.60633475 0.39997962 0.41439655
v 0.46448728 0.61811185 0.27458560
v 0.72212774 0.00045361 0.73201770
v 0.67475277 0.17718697 0.58563817
v 0.89517945 0.11949414 0.46473494
v 0.16476038 0.51216763 0.67256463
v 0.42224517 0.35739028 0.69599503
v 0.26029825 0.26804376 0.83848310
v 0.16593270 0.70306557 0.29420242
v 0.29235879 0.51716292 0.01921214
v -0.18825969 0.51967412 0.67553037
v -0.00298971 0.66443443 0.51866549
v -0.28302327 0.67849427 -0.05821481
v -0.17213032 0.57161784 0.23673341
v -0.42773250 0.62632108 0.24996398
v 0.15913746 0.51449442 -0.23486938
v 0.50023586 0.52608430 -0.27638718
v -0.43788430 0.64070010 -0.27864116
v -0.18476535 0.50495154 -0.18763098
v 0.16053881 0.48661515 -0.71455574
v -0.00812380 0.52137250 -0.49442089
v -0.15026791 0.43697986 -0.69428974
v 0.60097724 0.40851831 -0.41782802
v 0.71700519 0.35894197 -0.14138444
v 0.24359815 0.23031124 -0.85905296
v 0.43285108 0.37968031 -0.66814691
v 0.89263088 0.04302246 -0.46372354
v 0.70115715 0.17617267 -0.59158969
v 0.76376474 0.00258739 -0.74417442
v 0.85690790 0.21390590 -0.00342315
v 1.03880119 0.17229225 -0.29531834
v 0.98884749 0.00000000 -0.17142828
v 0.98767787 0.00000000 0.20375760
v 1.04532516 0.18911940 0.31165805
v 0.25396508 0.00002065 0.99765116
v 0.56912649 0.13992561 0.92548418
v 0.28276837 0.23900817 1.02285600
v -0.57179058 0.48775554 0.43339163
v -0.42408329 0.34347954 0.72030902
v -0.69667858 0.24990030 0.61978251
v -0.41827923 0.38994005 -0.66515559
v -0.57526177 0.53049964 -0.41663182
v -0.70880157 0.28732416 -0.58733141
v 0.59073788 0.10403479 -0.93688112
v 0.26297086 0.04233036 -1.00453115
v 0.28417584 0.26630968 -1.03110480
v 1.01917350 0.42314786 0.17879248
v 1.00883973 0.42994630 -0.17409948
v 0.84464449 0.61218429 -0.01761699
v -0.58768755 0.71801722 0.07718705
v -0.54664856 0.71979415 0.20707542
v -0.45459861 0.75267369 0.13358656
v -0.70445663 0.61123252 0.37131149
v -0.63481784 0.66775846 0.28650323
v -0.75601470 0.61130357 0.22801098
v -0.35650066 0.73830372 0.37363723
v -0.50574040 0.70829695 0.34082913
v -0.43891048 0.69328159 0.46306050
v -0.85523641 0.20348997 0.65022534
v -0.83374894 0.31872711 0.59123379
v -0.93272561 0.26472822 0.52048361
v -0.61835146 0.42118534 0.73166156
v -0.73082829 0.38024452 0.66504723
v -0.65380746 0.32335156 0.80591798
v -0.87207109 0.44606680 0.37098947
v -0.81372952 0.41988471 0.51614875
v -0.76768219 0.51026124 0.45901966
v -0.08627500 0.61040926 0.77940053
v -0.22122902 0.57913357 0.79671735
v -0.14316761 0.52658349 0.89120531
v -0.37252644 0.65856099 0.59701222
v -0.30397898 0.62298560 0.69986939
v -0.23388612 0.68722379 0.58829486
v -0.39314550 0.42832291 0.88013852
v -0.35584328 0.53329229 0.79900140
v -0.47687125 0.48365593 0.78712612
v -0.64947397 0.56914127 0.52460164
v -0.57700247 0.52069753 0.66199887
v -0.51275349 0.62420845 0.56515294
v -0.33414194 0.77141976 0.13742954
v -0.37372485 0.76827329 0.01482668
v -0.22014032 0.75351828 0.37121332
v -0.28523922 0.76529628 0.25600067
v -0.13287124 0.79856658 0.00461589
v -0.20038721 0.77897382 0.13035943
v -0.07802801 0.78332907 0.12865071
v 0.07751942 0.61549014 0.78264153
v -0.00467573 0.66111678 0.69096333
v 0.14976126 0.73391092 0.49383900
v 0.07267061 0.71246254 0.58827329
v 0.22851105 0.71152627 0.58894116
v -0.07198003 0.69268751 0.59923142
v -0.14365986 0.72806746 0.49877268
v 0.35720831 0.77937186 -0.01439873
v 0.32118252 0.77279371 0.10939424
v 0.44817618 0.76395929 0.10437080
v 0.06195657 0.76917565 0.12175170
v 0.18630786 0.77591598 0.11190688
v 0.10142589 0.79261291 -0.00207781
v 0.35801950 0.75465703 0.35446718
v 0.26875901 0.77122724 0.23425466
v 0.23142812 0.75441825 0.36073926
v -0.07379071 0.76171327 0.37476960
v 0.08571884 0.76174486 0.36525354
v -0.00598701 0.77242607 0.24528542
v -0.33013242 0.77608323 -0.11673557
v -0.44749796 0.75106913 -0.11421929
v -0.08662681 0.79193997 -0.12252840
v -0.20595407 0.79497939 -0.11448239
v -0.37342608 0.74451107 -0.36804876
v -0.29037145 0.77516443 -0.24585789
v -0.24143727 0.77034372 -0.36674282
v 0.43059465 0.77881169 -0.14445077
v 0.30537876 0.78856325 -0.13841538
v 0.20053594 0.77884114 -0.38308346
v 0.25688452 0.78292459 -0.26303744
v 0.33697769 0.75372338 -0.39209345
v 0.16965613 0.78869575 -0.13296421
v 0.05248291 0.79392153 -0.12936930
v -0.09781976 0.60629874 -0.80567300
v -0.01482948 0.66886199 -0.72324097
v 0.06421951 0.60329193 -0.80809200
v -0.16354896 0.74979836 -0.50600392
v -0.09422687 0.71769065 -0.61971360
v -0.24286051 0.70621192 -0.59992033
v 0.21359091 0.70694405 -0.61378390
v 0.06317951 0.72106194 -0.62028635
v 0.12471717 0.75908065 -0.51645422
v -0.01833696 0.79247540 -0.24935186
v 0.05468124 0.78446102 -0.38342991
v -0.09644654 0.78267276 -0.38124833
v -0.54117358 0.72204572 -0.20343783
v -0.58612424 0.71997333 -0.07881588
v -0.44775802 0.70019937 -0.46441191
v -0.49785662 0.71965486 -0.33707753
v -0.75171816 0.60114837 -0.25917438
v -0.63444555 0.67356956 -0.30210167
v -0.69709802 0.60051352 -0.39710677
v -0.15115681 0.50451553 -0.90297931
v -0.23079866 0.57494479 -0.81464607
v -0.49198270 0.48731968 -0.80229580
v -0.36754209 0.53533572 -0.81615949
v -0.41387314 0.42400235 -0.90124655
v -0.30728006 0.63542092 -0.71298289
v -0.37137219 0.67375290 -0.60225391
v -0.93640745 0.20223728 -0.52495569
v -0.86104566 0.29376870 -0.61631691
v -0.86703986 0.17717145 -0.65300924
v -0.77457482 0.50464845 -0.48082539
v -0.83749163 0.42432496 -0.55449921
v -0.88243431 0.43292767 -0.40935570
v -0.65781510 0.32063830 -0.80697817
v -0.75427461 0.37536907 -0.69663244
v -0.63414490 0.43773317 -0.74915898
v -0.51258290 0.63136262 -0.57591683
v -0.58165807 0.53775942 -0.67781061
v -0.64771324 0.57920396 -0.53607351
v -0.68624806 0.67682105 -0.01389550
v -0.84421819 0.54016423 -0.18207890
v -0.76653141 0.61751246 -0.10602876
v -0.77521783 0.62297070 0.06821748
v -0.85317111 0.53912175 0.14201227
v -1.00002420 0.07470982 -0.44345436
v -1.00239575 0.22250809 -0.40940467
v -1.05649710 0.23081031 -0.11255791
v -1.03201985 0.22657883 -0.24680832
v -1.08496833 0.09833661 -0.17051911
v -0.97478139 0.32701752 -0.34277010
v -0.92259371 0.44492477 -0.27081808
v -1.00140023 0.26283240 0.37996769
v -1.02277720 0.15455228 0.42514843
v -0.93101341 0.45481044 0.23091444
v -0.97652829 0.36311090 0.29536492
v -1.09131563 0.12468222 0.14416182
v -1.05126595 0.24897227 0.21955934
v -1.07616818 0.24344191 0.06534635
v -0.94052762 0.46354920 -0.10936114
v -1.02363539 0.35589847 -0.02925722
v -0.95118564 0.45624751 0.06225980
v 0.54357100 0.73786581 0.18854265
v 0.57818466 0.74175841 0.05536098
v 0.43983647 0.71614927 0.44642743
v 0.49667820 0.73611391 0.32500407
v 0.75458509 0.65502083 0.22190717
v 0.63593084 0.69454682 0.27636418
v 0.71337134 0.63325316 0.36504394
v 0.12675686 0.53347224 0.90797406
v 0.21498261 0.59452933 0.80733484
v 0.49877930 0.52232796 0.79528826
v 0.35512605 0.56104088 0.80516255
v 0.39922664 0.45933914 0.89053255
v 0.28752804 0.65081984 0.69796813
v 0.36546832 0.68483847 0.59449661
v 0.92512542 0.24156563 0.53567284
v 0.84764308 0.31360111 0.61559105
v 0.83597207 0.17447522 0.67567128
v 0.78613949 0.54461998 0.46901274
v 0.83730650 0.44152686 0.54485559
v 0.88345575 0.48625374 0.39652929
v 0.64967847 0.34093192 0.82024914
v 0.75657928 0.38649383 0.69342816
v 0.65485811 0.45388815 0.75784475
v 0.51324588 0.66545355 0.56222606
v 0.59050971 0.56353664 0.66761231
v 0.66103333 0.61571574 0.52023005
v -0.13771461 0.43019503 0.97915190
v -0.00765554 0.46595454 0.95518124
v -0.41794786 0.32564116 0.94627732
v -0.28270149 0.39025050 0.96891415
v 0.01070866 0.23838989 1.07820010
v -0.14573570 0.33265242 1.04996884
v -0.14004798 0.22024579 1.08547258
v -0.88163888 0.05026125 0.68105131
v -0.78593409 0.11708970 0.76937109
v -0.54231066 0.07081847 0.89197057
v -0.66539532 0.07041234 0.85888010
v -0.62545484 0.07228965 0.77203840
v -0.67413825 0.21050070 0.85168940
v -0.56965989 0.25422996 0.89324784
v 0.00424522 0.24877413 0.90572172
v -0.09384669 0.21732192 0.96207565
v -0.12213535 0.32331112 0.86378175
v -0.14394291 0.06527156 1.08006835
v -0.10319100 0.05577040 0.98373204
v 0.01887189 0.00563718 1.04834342
v -0.37334627 0.17202726 0.87365925
v -0.22372207 0.11459324 0.96046466
v -0.38230449 0.10072253 0.94983178
v -0.44421372 0.20882203 0.98204380
v -0.43221062 0.06344734 1.00722182
v -0.27983207 0.13465193 1.06359339
v -1.00700140 0.00920651 0.39070427
v -0.94948626 0.02128315 0.51945055
v -1.07646191 0.00560669 0.07119925
v -1.04120064 0.00605679 0.24142332
v -0.81654418 0.20543876 0.37399852
v -0.91400737 0.08889221 0.32135102
v -0.87347943 0.16190574 0.24379385
v -0.93320417 0.08522520 -0.50028467
v -0.98518944 0.02657357 -0.40482312
v -0.89252132 0.20329747 -0.22199039
v -0.92724246 0.12461337 -0.30158603
v -0.83607966 0.24257921 -0.36074871
v -1.01708794 0.00000000 -0.24910499
v -1.07539701 0.00010218 -0.10331620
v -0.61465961 0.57580972 0.07140271
v -0.69846952 0.52222675 0.00147798
v -0.62010098 0.60329401 -0.05598496
v -0.81289095 0.29657936 0.13479029
v -0.76420552 0.41567478 0.09372574
v -0.73655480 0.40981495 0.21753851
v -0.74849045 0.46516958 -0.22237076
v -0.78682351 0.44752899 -0.05958196
v -0.83056873 0.34701288 -0.14975899
v -0.93948656 0.00969299 -0.01596993
v -0.90488338 0.17009407 -0.08730473
v -0.88436466 0.15314806 0.08277582
v -0.79137576 0.11922439 -0.76401001
v -0.87208992 0.04414734 -0.66476017
v -0.57494694 0.24152091 -0.91069990
v -0.68683207 0.17204376 -0.84155214
v -0.63791043 0.09851451 -0.78312463
v -0.70050073 0.01436797 -0.84983921
v -0.57536668 0.00863426 -0.86508924
v -0.01178763 0.44244352 -0.96635145
v -0.15335652 0.41022763 -0.97680604
v -0.16480333 0.18406190 -1.10665703
v -0.15720335 0.29290619 -1.04076922
v -0.00719998 0.25013199 -1.08373797
v -0.29608369 0.35146189 -0.97952920
v -0.42996034 0.30047768 -0.95867294
v -0.13026720 0.24591926 -0.83789539
v -0.16676527 0.12715182 -0.93132615
v -0.01968577 0.18460916 -0.90388322
v -0.41603491 0.00963965 -0.87454528
v -0.27005890 0.07640917 -0.87742829
v -0.37164763 0.16195479 -0.82603621
v -0.02083939 0.01298141 -1.06620216
v -0.17126291 0.00226297 -0.99200684
v -0.17098165 0.06049627 -1.09013963
v -0.46083915 0.18474481 -1.01528311
v -0.31413648 0.11254971 -1.08048606
v -0.45957449 0.02139984 -1.00317907
v 0.20209150 0.57720107 -0.82244056
v 0.12558883 0.50516838 -0.90767419
v 0.34990010 0.67180556 -0.62072843
v 0.28630143 0.63386071 -0.72620958
v 0.39618742 0.41811982 -0.89212334
v 0.34253734 0.53449368 -0.82514495
v 0.47881484 0.48882967 -0.80467588
v 0.56389940 0.74563950 -0.11258397
v 0.51949584 0.75500089 -0.23560712
v 0.69092107 0.63065797 -0.40866092
v 0.61394387 0.70283228 -0.32605061
v 0.74191612 0.64054960 -0.27612808
v 0.48024631 0.73762345 -0.36347175
v 0.42600006 0.71063656 -0.49016362
v 0.85324353 0.19061336 -0.66682601
v 0.84699738 0.31381169 -0.62812793
v 0.93297964 0.26613146 -0.52487952
v 0.61798579 0.41135395 -0.75568414
v 0.73233217 0.36068633 -0.70074666
v 0.62619901 0.28429869 -0.81360811
v 0.87585896 0.46959209 -0.41311938
v 0.82127744 0.44408637 -0.56820941
v 0.76802826 0.53455472 -0.49413309
v 0.50274503 0.63345331 -0.59682935
v 0.64549547 0.57868576 -0.55461127
v 0.57077050 0.53863281 -0.68885756
v 0.64087516 0.48837000 0.08233094
v 0.58334380 0.51154286 0.20219058
v 0.52241009 0.61587375 0.14942853
v 0.70605594 0.31473583 0.36176077
v 0.66649753 0.40383109 0.29258865
v 0.75359154 0.29498830 0.23657554
v 0.41584516 0.60698664 0.41710454
v 0.56939608 0.52518272 0.35662606
v 0.49001074 0.48664731 0.45634022
v 0.85029078 0.03637588 0.67070872
v 0.82807398 0.07987180 0.61896545
v 0.93896335 0.01175165 0.51252902
v 0.55346364 0.14989193 0.71757883
v 0.69007277 0.09732980 0.68280298
v 0.60054737 0.05739653 0.78958076
v 0.86228228 0.10430054 0.37812567
v 0.77193946 0.14716321 0.53685737
v 0.76422304 0.18925607 0.44461223
v 0.04986042 0.45170036 0.72373235
v 0.17918940 0.40950373 0.77628857
v 0.12598139 0.33273578 0.85859525
v 0.39593092 0.44862521 0.60835510
v 0.29200286 0.44037783 0.71110612
v 0.26747292 0.52409863 0.61793840
v 0.36332294 0.23304772 0.86823177
v 0.31093478 0.34886450 0.76734388
v 0.43675923 0.25004089 0.78650582
v 0.63572520 0.28504819 0.50306249
v 0.56593567 0.26235780 0.67728686
v 0.51421070 0.36296302 0.56210726
v 0.37562248 0.51763397 0.15462814
v 0.41932961 0.51892465 0.01125437
v 0.26663190 0.67102200 0.40810978
v 0.32963064 0.65017575 0.29666278
v 0.15109721 0.52342129 0.05451922
v 0.24061832 0.64003593 0.15337594
v 0.09852208 0.60174155 0.16003647
v -0.08165623 0.45648807 0.74906516
v -0.01127892 0.53849405 0.66739929
v -0.16360414 0.63935035 0.51593506
v -0.09530572 0.58173877 0.60569698
v -0.26596811 0.54502159 0.60431057
v 0.11726572 0.61371517 0.58470899
v 0.20739239 0.62248737 0.51455104
v -0.41765767 0.59758651 -0.01292227
v -0.35296717 0.70131755 0.11825352
v -0.51019382 0.67905408 0.13483374
v -0.07929506 0.57554930 0.10260668
v -0.22079302 0.69873357 0.10154901
v -0.17905582 0.55997157 0.02844198
v -0.39059106 0.62775314 0.39798826
v -0.31799668 0.65658450 0.23964152
v -0.24785806 0.66130936 0.39242497
v 0.08811362 0.68937677 0.41057935
v -0.09639628 0.70909649 0.37453985
v 0.00431335 0.61503029 0.27614591
v 0.38840157 0.54367179 -0.13834918
v 0.53607303 0.59313822 -0.11619458
v 0.09637029 0.54117125 -0.08728254
v 0.23596807 0.50943017 -0.11163355
v 0.38447139 0.62764573 -0.36700159
v 0.34460348 0.61179775 -0.26652297
v 0.24552502 0.51192826 -0.33764827
v -0.49228978 0.69276643 -0.15559007
v -0.43342838 0.54914653 -0.13612604
v -0.24002039 0.42464226 -0.28124648
v -0.33040768 0.51910645 -0.18446334
v -0.39564198 0.51767707 -0.31150272
v -0.28370669 0.52308351 -0.07406919
v -0.12404775 0.55191213 -0.09698737
v 0.09124865 0.38562974 -0.79864013
v -0.00362202 0.44791284 -0.72833836
v -0.06605250 0.36584586 -0.76726282
v 0.18018593 0.53832299 -0.48907086
v 0.08739329 0.54250562 -0.61319661
v 0.27296463 0.54494482 -0.62153852
v -0.24858576 0.41617024 -0.56770700
v -0.07302248 0.50907087 -0.62421423
v -0.15648514 0.46327636 -0.47586185
v 0.00267667 0.52329969 -0.17150068
v -0.07017394 0.47148257 -0.32531855
v 0.07106469 0.51298296 -0.32197735
v 0.59358644 0.49522898 -0.14795122
v 0.65666389 0.46601778 -0.06467821
v 0.49298170 0.54615045 -0.43041709
v 0.52538812 0.50845307 -0.31864136
v 0.75477129 0.30112693 -0.21596214
v 0.66491717 0.42651698 -0.26439992
v 0.71826416 0.32300150 -0.35291448
v 0.11503898 0.27692345 -0.84110379
v 0.21025914 0.36339873 -0.76684844
v 0.46815389 0.25679424 -0.74928075
v 0.34074804 0.32668358 -0.79902047
v 0.38987869 0.21385314 -0.87804902
v 0.29810545 0.44652972 -0.68534410
v 0.40017140 0.50534499 -0.56457585
v 0.96198380 0.01961586 -0.52182055
v 0.86018854 0.03463829 -0.61820090
v 0.85894412 0.09039599 -0.66036475
v 0.74935973 0.20872195 -0.44152695
v 0.79220271 0.10526901 -0.52097416
v 0.82132065 0.09113319 -0.36154795
v 0.65188140 0.06794143 -0.77941471
v 0.73459554 0.09012454 -0.67282766
v 0.60615963 0.17907876 -0.71869224
v 0.53766936 0.43675384 -0.55144250
v 0.58087754 0.28730237 -0.61469960
v 0.65113652 0.30886725 -0.49299598
v 0.70309037 0.40868095 -0.00643254
v 0.85379708 0.19656383 -0.16178931
v 0.78225791 0.25573683 -0.03890322
v 0.77415037 0.30023712 0.07050303
v 0.85299909 0.21660966 0.16586977
v 0.99749815 0.15268922 -0.43642133
v 1.00735950 0.05551258 -0.38286442
v 1.07586050 0.09319150 -0.07612015
v 1.05739307 0.08655222 -0.22574694
v 1.07345033 0.19422837 -0.14441545
v 0.97472388 0.00000000 -0.32637143
v 0.90258878 0.08080264 -0.26271516
v 1.00065875 0.01890316 0.38898572
v 0.99934500 0.13398775 0.43904442
v 0.90873379 0.07987729 0.24352449
v 0.94407946 0.00000000 0.34634194
v 1.06990170 0.18741447 0.15481725
v 1.03957248 0.07334436 0.26640776
v 1.07102919 0.07289252 0.10322196
v 0.93357241 0.09033334 -0.07787554
v 0.99133021 0.00079508 0.01746941
v 0.92962736 0.09399178 0.10829341
v 0.10441467 0.20493621 0.85229069
v 0.33534095 0.09327985 0.92216432
v 0.23119806 0.13379923 0.90320742
v 0.12449770 0.07712643 0.97231746
v 0.15319785 0.03922636 1.08732700
v 0.76883107 0.12452032 0.77389902
v 0.55361241 0.27779916 0.92074972
v 0.66833919 0.20527783 0.85639280
v 0.67039394 0.04900343 0.85223621
v 0.53589302 0.00040245 0.91335338
v 0.13365582 0.42165273 0.98560309
v 0.16614491 0.17849697 1.08274865
v 0.14936544 0.30718526 1.04269171
v 0.28696981 0.38749284 0.98014992
v 0.41315478 0.34319264 0.95116663
v 0.42897195 0.03795373 0.98422891
v 0.42820224 0.20058753 1.00434911
v 0.30348048 0.07770944 1.03609014
v -0.56594044 0.58128911 0.19830710
v -0.45608661 0.52728760 0.47806886
v -0.50942349 0.54542905 0.34553501
v -0.63106680 0.47571617 0.30171022
v -0.68200052 0.40000808 0.37056673
v -0.20737599 0.39613658 0.79037380
v -0.46420842 0.23255725 0.76702720
v -0.33012447 0.31021094 0.80464834
v -0.31797945 0.44852674 0.72106802
v -0.39439508 0.46627033 0.62032282
v -0.85025513 0.04998031 0.61979848
v -0.76902997 0.30283159 0.46575841
v -0.79696935 0.18423319 0.54311436
v -0.72587603 0.11205368 0.66951895
v -0.60320127 0.17849521 0.71314108
v -0.52137017 0.42913508 0.58525443
v -0.56502545 0.29856744 0.65183580
v -0.63570952 0.37084174 0.50972742
v -0.17828216 0.35352561 -0.74637973
v -0.34686381 0.52199191 -0.58756953
v -0.28515315 0.41536498 -0.66581357
v -0.31690064 0.32029244 -0.75080049
v -0.44366133 0.30018878 -0.76427817
v -0.59366930 0.63430208 -0.22076136
v -0.69691062 0.45021251 -0.36300704
v -0.65126127 0.55391127 -0.28637621
v -0.51604879 0.60422254 -0.36098292
v -0.43564177 0.58266050 -0.47007191
v -0.83955449 0.10415557 -0.58544070
v -0.63445759 0.25372776 -0.72432661
v -0.72797424 0.19176643 -0.64739031
v -0.80057162 0.22422904 -0.49548221
v -0.73355758 0.32018200 -0.45734614
v -0.48450178 0.46707743 -0.52437484
v -0.60552001 0.39795753 -0.50079507
v -0.54711884 0.36113957 -0.65137810
v 0.77160239 0.12329612 -0.77414620
v 0.58544314 0.08863924 -0.91119975
v 0.69214147 0.02126852 -0.86751467
v 0.67739886 0.14536716 -0.85272527
v 0.55497038 0.23647872 -0.91556364
v 0.11344806 0.17770585 -0.94204164
v 0.12573923 0.03366718 -1.07717347
v 0.12687200 0.09616806 -1.00530028
v 0.27184144 0.15423518 -0.95580518
v 0.41660780 0.09399357 -0.92086905
v 0.12727877 0.40836939 -0.98835421
v 0.40446883 0.32896701 -0.95399314
v 0.27136838 0.36673281 -0.97854131
v 0.13665274 0.30205676 -1.03746474
v 0.14901647 0.19230790 -1.08687735
v 0.43583119 0.05433629 -1.00480330
v 0.27900919 0.12504768 -1.05712330
v 0.44213557 0.20297274 -1.00262737
v 0.98853534 0.26647460 0.40771341
v 1.07073951 0.32010269 0.09641065
v 1.05653739 0.30842713 0.25512585
v 0.97634810 0.38456157 0.33303970
v 0.93329364 0.50969756 0.25357345
v 0.98837942 0.26980922 -0.38664624
v 0.91247356 0.50350791 -0.26683262
v 0.97374368 0.39502481 -0.32855478
v 1.03125250 0.30093569 -0.23083088
v 1.06094205 0.31447962 -0.08565246
v 0.66506773 0.71578389 -0.03554048
v 0.84960151 0.61001509 0.14733581
v 0.76601344 0.67394412 0.05311109
v 0.75549984 0.66734982 -0.11717847
v 0.84117383 0.59728968 -0.18640581
v 1.02274728 0.44493076 -0.00166027
v 0.94062001 0.53431416 -0.09842604
v 0.95808196 0.53814012 0.08262666
f 330 87 329
f 336 325 26
f 207 208 56
f 464 36 580
f 502 129 504
f 157 624 622
f 308 311 82
f 247 223 248
f 507 483 508
f 331 88 329
f 494 500 497
f 156 601 602
f 591 589 592
f 365 98 596
f 75 281 282
f 152 587 577
f 149 559 560
f 555 121 553
f 530 141 529
f 515 517 139
f 361 594 98
f 250 67 249
f 157 608 609
f 294 293 209
f 317 81 316
f 557 338 26
f 303 305 81
f 530 529 528
f 101 381 382
f 415 418 111
f 192 184 50
f 412 110 411
f 20 384 256
f 131 594 486
f 281 264 282
f 347 287 348
f 28 349 582
f 165 163 1
f 248 250 66
f 617 107 398
f 273 271 274
f 456 115 453
f 558 561 560
f 335 576 91
f 331 177 332
f 116 433 436
f 351 370 92
f 136 511 530
f 239 240 65
f 247 258 19
f 304 23 567
f 148 557 570
f 214 208 58
f 440 426 450
f 268 270 269
f 258 247 268
f 204 202 16
f 466 125 465
f 517 513 133
f 168 275 274
f 275 73 274
f 198 193 53
f 309 308 307
f 510 511 136
f 415 416 110
f 131 490 597
f 473 475 474
f 414 415 111
f 493 495 494
f 496 504 485
f 433 116 432
f 600 375 601
f 240 234 65
f 418 415 412
f 486 361 3
f 567 566 304
f 380 393 29
f 17 199 197
f 491 492 132
f 451 449 435
f 218 217 216
f 623 621 613
f 396 104 395
f 433 439 436
f 628 160 627
f 215 202 217
f 209 207 2
f 427 113 424
f 434 10 544
f 434 433 432
f 199 17 210
f 150 564 565
f 489 491 132
f 275 13 285
f 497 500 134
f 125 466 476
f 578 152 577
f 208 214 211
f 328 88 343
f 356 27 603
f 150 566 567
f 372 100 371
f 190 191 47
f 235 8 398
f 260 261 72
f 422 403 414
f 422 414 111
f 453 454 123
f 349 583 582
f 521 520 519
f 425 453 115
f 616 622 158
f 483 130 508
f 151 586 572
f 212 17 232
f 400 397 402
f 377 396 99
f 41 522 511
f 510 508 505
f 549 547 42
f 475 473 36
f 510 137 509
f 222 221 197
f 430 115 429
f 220 194 1
f 305 54 204
f 621 29 613
f 192 171 184
f 460 335 5
f 88 331 332
f 74 277 279
f 300 301 80
f 390 389 388
f 165 45 164
f 146 549 551
f 291 278 75
f 448 120 445
f 147 543 544
f 607 610 609
f 603 602 356
f 139 529 514
f 333 553 443
f 92 368 347
f 261 260 259
f 300 6 200
f 46 177 331
f 284 283 174
f 301 300 200
f 471 468 474
f 54 305 301
f 302 304 303
f 569 150 567
f 150 569 570
f 294 209 2
f 628 629 160
f 548 543 147
f 147 625 627
f 63 233 234
f 426 427 114
f 41 509 532
f 198 52 196
f 614 105 612
f 147 627 547
f 81 305 306
f 549 548 547
f 54 301 200
f 342 88 332
f 264 281 70
f 193 194 53
f 455 429 456
f 187 321 14
f 479 130 484
f 147 544 625
f 458 456 453
f 304 80 303
f 314 84 313
f 488 503 501
f 321 332 14
f 423 425 424
f 305 204 306
f 341 339 25
f 514 40 516
f 625 628 627
f 340 339 341
f 105 614 391
f 243 228 62
f 318 316 78
f 75 278 279
f 357 355 353
f 238 257 63
f 466 455 476
f 425 423 4
f 448 449 120
f 408 638 108
f 292 275 285
f 22 278 289
f 515 513 517
f 501 503 134
f 622 623 158
f 134 503 504
f 195 216 206
f 163 271 246
f 619 617 620
f 62 228 229
f 163 165 164
f 453 425 454
f 489 132 488
f 82 628 625
f 58 208 209
f 525 608 40
f 626 547 627
f 518 517 498
f 489 487 491
f 557 26 564
f 325 336 344
f 541 145 539
f 40 616 516
f 338 556 89
f 250 248 245
f 139 514 515
f 98 594 596
f 246 220 1
f 112 413 630
f 9 536 413
f 156 600 601
f 332 177 14
f 321 342 332
f 156 606 600
f 584 330 585
f 302 303 81
f 584 87 330
f 330 25 585
f 400 239 65
f 439 440 117
f 95 358 368
f 597 594 131
f 594 361 486
f 246 67 245
f 561 562 149
f 28 364 362
f 55 216 217
f 427 430 114
f 267 20 254
f 556 555 553
f 84 309 558
f 311 310 312
f 609 525 142
f 256 68 255
f 124 460 461
f 82 311 312
f 307 308 82
f 589 135 495
f 527 40 514
f 112 418 412
f 20 256 254
f 258 238 19
f 267 254 269
f 273 272 249
f 392 391 393
f 137 533 509
f 122 455 456
f 9 413 411
f 130 480 505
f 333 443 5
f 527 525 40
f 589 495 385
f 39 496 485
f 223 225 224
f 414 416 415
f 219 222 53
f 145 538 539
f 413 412 411
f 469 468 467
f 183 181 6
f 191 192 50
f 429 35 431
f 292 285 76
f 413 112 412
f 415 110 412
f 43 164 167
f 467 468 126
f 617 101 620
f 450 451 117
f 438 546 545
f 619 620 159
f 17 212 210
f 124 579 576
f 584 153 583
f 460 124 576
f 3 469 467
f 311 308 314
f 6 320 183
f 389 104 388
f 251 250 249
f 194 165 1
f 291 289 278
f 287 77 348
f 238 258 257
f 139 517 518
f 238 236 19
f 223 247 19
f 382 380 29
f 39 518 498
f 361 359 3
f 69 255 257
f 139 518 528
f 33 545 535
f 387 385 7
f 69 268 269
f 477 462 125
f 454 479 123
f 121 555 447
f 451 435 117
f 454 425 4
f 233 252 8
f 124 463 464
f 69 258 268
f 168 167 166
f 583 153 582
f 384 394 102
f 138 512 513
f 57 210 211
f 254 256 255
f 607 609 142
f 324 319 86
f 289 291 76
f 291 292 76
f 384 102 383
f 422 421 420
f 221 17 197
f 383 102 381
f 376 377 99
f 99 373 374
f 386 105 392
f 438 33 440
f 90 341 343
f 281 75 279
f 574 571 96
f 628 82 312
f 221 222 59
f 127 471 474
f 595 605 603
f 551 538 145
f 334 91 340
f 322 324 85
f 305 303 301
f 18 239 399
f 306 204 16
f 199 198 197
f 166 190 180
f 303 80 301
f 267 266 265
f 626 42 547
f 16 215 213
f 349 351 350
f 295 16 213
f 68 379 252
f 250 251 66
f 627 160 626
f 383 68 256
f 343 88 342
f 507 508 136
f 202 215 16
f 197 198 53
f 254 69 269
f 603 605 156
f 418 419 111
f 384 383 256
f 455 122 476
f 203 204 54
f 556 557 148
f 255 68 253
f 313 84 560
f 25 328 341
f 254 255 69
f 603 156 602
f 581 584 583
f 630 632 112
f 163 246 1
f 246 245 220
f 432 116 558
f 499 591 590
f 320 563 86
f 345 93 350
f 306 16 295
f 346 93 345
f 562 568 149
f 604 605 155
f 154 592 593
f 545 552 535
f 511 522 530
f 574 573 571
f 566 150 565
f 361 98 360
f 67 271 273
f 234 235 65
f 208 211 56
f 574 151 573
f 251 270 66
f 398 8 378
f 213 215 214
f 438 440 439
f 315 314 313
f 263 71 262
f 20 373 384
f 496 134 504
f 329 88 328
f 81 306 316
f 555 556 148
f 592 589 103
f 617 619 107
f 227 207 56
f 571 359 96
f 446 466 465
f 206 216 55
f 359 571 469
f 568 148 570
f 34 437 435
f 28 351 349
f 21 272 282
f 113 423 424
f 490 489 488
f 379 68 383
f 210 212 211
f 80 563 300
f 351 92 350
f 326 346 12
f 83 317 318
f 555 148 554
f 212 231 56
f 218 57 217
f 271 67 246
f 195 196 52
f 270 268 66
f 390 592 103
f 148 568 554
f 495 493 7
f 592 390 593
f 357 95 355
f 574 575 151
f 452 120 451
f 154 591 592
f 587 585 577
f 395 394 396
f 93 349 350
f 610 416 611
f 166 44 190
f 315 23 302
f 315 302 317
f 268 247 66
f 606 154 593
f 396 394 99
f 211 212 56
f 370 369 368
f 235 397 65
f 280 278 22
f 83 315 317
f 575 588 151
f 74 279 280
f 385 495 7
f 63 257 253
f 397 235 398
f 214 58 213
f 220 219 194
f 546 146 545
f 236 225 19
f 599 94 602
f 235 233 8
f 102 394 395
f 611 416 32
f 225 223 19
f 139 528 529
f 231 62 229
f 419 406 421
f 451 450 452
f 49 182 185
f 402 397 107
f 52 199 218
f 416 610 110
f 225 236 244
f 107 397 398
f 68 252 253
f 322 85 321
f 182 181 183
f 118 438 439
f 546 438 118
f 348 77 345
f 543 546 118
f 231 212 232
f 610 611 157
f 33 438 545
f 385 386 103
f 479 480 130
f 169 195 15
f 93 583 349
f 15 195 206
f 190 44 192
f 247 248 66
f 146 552 545
f 248 60 245
f 570 557 564
f 274 271 43
f 63 253 233
f 272 21 249
f 507 528 518
f 67 273 249
f 487 467 126
f 196 195 169
f 624 159 623
f 134 496 497
f 132 503 488
f 104 393 395
f 556 553 89
f 355 356 94
f 258 69 257
f 229 61 227
f 56 231 227
f 460 576 335
f 463 124 461
f 394 373 99
f 29 393 391
f 67 250 245
f 193 198 196
f 462 36 464
f 144 633 630
f 141 526 527
f 517 133 498
f 536 144 630
f 100 372 599
f 144 536 537
f 22 289 287
f 578 579 152
f 579 578 576
f 189 188 187
f 60 223 224
f 92 348 350
f 555 554 447
f 396 377 388
f 194 193 165
f 413 536 630
f 372 352 599
f 377 376 375
f 348 345 350
f 105 386 387
f 240 237 234
f 463 462 464
f 135 500 494
f 45 196 169
f 512 612 387
f 245 60 220
f 429 115 456
f 223 60 248
f 288 289 76
f 525 526 142
f 100 599 601
f 613 29 391
f 526 523 520
f 341 328 343
f 631 641 639
f 264 21 282
f 266 72 265
f 106 402 403
f 73 273 274
f 186 206 205
f 381 379 383
f 52 216 195
f 410 18 399
f 290 272 73
f 72 371 374
f 526 525 527
f 115 430 424
f 498 497 496
f 621 382 29
f 543 118 434
f 214 215 57
f 522 141 530
f 511 510 509
f 352 94 599
f 493 512 7
f 90 340 341
f 169 171 170
f 605 604 606
f 219 60 224
f 104 389 392
f 359 469 3
f 186 49 185
f 222 219 224
f 166 167 44
f 428 427 426
f 523 522 524
f 129 502 481
f 50 185 188
f 164 45 170
f 425 115 424
f 33 428 426
f 427 428 113
f 94 356 602
f 515 138 513
f 114 431 452
f 237 236 238
f 215 217 57
f 95 354 355
f 220 60 219
f 515 514 516
f 183 320 319
f 222 197 53
f 559 569 567
f 300 320 6
f 435 436 117
f 96 360 363
f 640 642 641
f 242 243 62
f 140 537 519
f 508 130 505
f 420 410 399
f 537 539 144
f 317 316 318
f 426 114 450
f 186 15 206
f 311 83 310
f 625 544 307
f 544 10 307
f 168 43 167
f 185 182 188
f 369 354 95
f 44 171 192
f 605 606 156
f 548 549 146
f 100 601 375
f 149 568 569
f 381 380 382
f 455 466 35
f 480 479 454
f 543 548 546
f 493 133 513
f 492 472 37
f 477 125 476
f 491 487 126
f 337 336 338
f 588 153 587
f 576 578 91
f 633 161 632
f 96 359 360
f 39 485 483
f 101 617 378
f 193 45 165
f 163 164 43
f 618 624 611
f 507 136 528
f 561 149 560
f 641 162 639
f 116 561 558
f 494 133 493
f 253 252 233
f 63 237 238
f 392 393 104
f 440 450 117
f 93 581 583
f 386 385 387
f 120 449 451
f 421 422 111
f 486 3 467
f 302 81 317
f 633 632 630
f 462 475 36
f 376 99 374
f 489 490 131
f 447 449 448
f 387 612 105
f 106 420 399
f 173 46 172
f 492 491 472
f 316 306 295
f 22 287 347
f 109 410 420
f 507 39 483
f 559 23 313
f 214 57 211
f 196 45 193
f 10 434 432
f 422 106 403
f 626 160 640
f 487 486 467
f 542 41 532
f 400 106 399
f 444 120 452
f 198 199 52
f 475 127 474
f 621 620 382
f 621 623 159
f 450 114 452
f 92 347 348
f 376 100 375
f 434 118 433
f 503 132 502
f 337 90 336
f 537 536 519
f 395 393 380
f 201 54 200
f 171 44 170
f 355 94 353
f 58 296 213
f 422 420 106
f 595 365 596
f 569 568 570
f 523 140 520
f 114 430 431
f 218 210 57
f 304 566 80
f 639 162 638
f 261 371 72
f 548 147 547
f 498 133 497
f 150 570 564
f 222 224 59
f 142 526 520
f 437 436 435
f 141 522 523
f 137 510 505
f 173 179 176
f 559 149 569
f 121 447 448
f 563 320 300
f 102 395 380
f 257 255 253
f 642 162 641
f 83 311 314
f 216 52 218
f 512 493 513
f 23 304 302
f 91 339 340
f 512 138 612
f 159 620 621
f 218 199 210
f 364 28 575
f 83 318 310
f 168 274 43
f 136 530 528
f 140 523 524
f 495 135 494
f 233 235 234
f 566 563 80
f 25 339 577
f 277 74 276
f 475 462 477
f 133 494 497
f 436 437 116
f 389 386 392
f 548 146 546
f 441 460 5
f 10 309 307
f 65 397 400
f 543 434 544
f 640 641 161
f 272 273 73
f 581 93 346
f 419 421 111
f 319 320 86
f 180 179 178
f 127 475 477
f 231 229 227
f 337 334 340
f 136 508 510
f 308 309 84
f 237 63 234
f 447 554 34
f 252 379 378
f 315 83 314
f 608 622 616
f 338 336 26
f 337 338 89
f 13 275 168
f 209 208 207
f 436 439 117
f 628 312 629
f 360 366 363
f 364 574 96
f 359 361 360
f 466 446 35
f 500 501 134
f 406 109 421
f 135 589 591
f 601 599 602
f 340 90 337
f 481 492 37
f 522 41 524
f 78 316 295
f 131 486 487
f 403 32 414
f 634 626 640
f 151 572 573
f 515 516 138
f 8 252 378
f 265 72 374
f 9 521 519
f 538 549 42
f 368 358 347
f 588 587 586
f 458 453 123
f 589 385 103
f 502 492 481
f 32 416 414
f 430 427 424
f 153 585 587
f 540 144 539
f 370 368 92
f 209 293 58
f 428 33 535
f 326 581 346
f 625 307 82
f 575 28 582
f 6 181 200
f 421 109 420
f 553 121 443
f 160 642 640
f 153 584 585
f 309 432 558
f 334 337 89
f 23 315 313
f 271 163 43
f 296 295 213
f 39 498 496
f 118 439 433
f 531 113 534
f 293 296 58
f 28 362 351
f 489 131 487
f 431 444 452
f 84 558 560
f 98 366 360
f 45 169 170
f 379 101 378
f 462 463 125
f 308 84 314
f 10 432 309
f 299 24 310
f 132 492 502
f 512 387 7
f 639 638 408
f 565 323 86
f 59 244 242
f 106 400 402
f 440 33 426
f 566 565 563
f 617 398 378
f 224 225 59
f 410 109 409
f 239 400 399
f 194 219 53
f 358 22 347
f 610 157 609
f 27 595 603
f 479 484 482
f 142 520 521
f 585 25 577
f 339 578 577
f 408 407 406
f 407 109 406
f 31 408 406
f 407 408 108
f 31 639 408
f 419 31 406
f 608 616 40
f 430 429 431
f 455 35 429
f 35 444 431
f 188 51 187
f 188 182 51
f 51 322 187
f 322 51 319
f 51 182 183
f 319 51 183
f 187 322 321
f 322 319 324
f 381 101 379
f 405 407 108
f 404 405 108
f 286 285 178
f 407 405 409
f 109 407 409
f 191 175 47
f 167 164 170
f 50 184 185
f 44 167 170
f 64 244 236
f 243 244 64
f 50 188 189
f 541 542 145
f 442 445 119
f 339 91 578
f 445 446 119
f 624 623 622
f 611 624 157
f 523 526 141
f 141 527 529
f 527 514 529
f 445 120 444
f 446 445 444
f 35 446 444
f 613 614 158
f 158 614 615
f 623 613 158
f 614 613 391
f 614 612 615
f 371 376 374
f 100 376 371
f 479 482 123
f 373 394 384
f 540 42 634
f 633 540 634
f 538 42 540
f 633 634 161
f 161 634 640
f 42 626 634
f 540 633 144
f 557 556 338
f 553 333 89
f 262 21 264
f 251 21 262
f 5 335 333
f 270 251 262
f 21 251 249
f 600 593 30
f 606 593 600
f 600 30 375
f 593 390 30
f 30 377 375
f 390 388 30
f 30 388 377
f 228 243 241
f 470 478 459
f 470 127 478
f 127 477 478
f 184 186 185
f 478 477 476
f 122 478 476
f 357 74 280
f 518 39 507
f 344 342 85
f 325 344 85
f 342 344 343
f 85 342 321
f 344 90 343
f 90 344 336
f 482 129 481
f 482 481 457
f 482 457 123
f 481 37 457
f 449 447 34
f 435 449 34
f 470 472 471
f 472 470 37
f 470 471 127
f 472 126 471
f 126 468 471
f 470 459 37
f 491 126 472
f 504 129 485
f 221 59 242
f 125 463 465
f 437 34 562
f 561 437 562
f 554 568 562
f 34 554 562
f 437 561 116
f 390 103 389
f 103 386 389
f 392 105 391
f 572 586 580
f 572 580 36
f 586 152 580
f 473 572 36
f 244 243 242
f 225 244 59
f 64 240 241
f 240 239 241
f 237 240 64
f 243 64 241
f 236 237 64
f 411 607 521
f 9 411 521
f 110 607 411
f 607 142 521
f 610 607 110
f 171 15 184
f 171 169 15
f 15 186 184
f 87 584 581
f 153 588 582
f 588 575 582
f 381 102 380
f 573 572 473
f 468 469 128
f 474 468 128
f 469 571 128
f 571 573 128
f 573 473 128
f 473 474 128
f 564 323 565
f 26 323 564
f 323 324 86
f 325 323 26
f 325 324 323
f 563 565 86
f 324 325 85
f 410 230 18
f 230 228 18
f 18 228 241
f 18 241 239
f 401 619 618
f 401 402 107
f 403 402 401
f 619 159 618
f 401 618 32
f 619 401 107
f 403 401 32
f 618 611 32
f 159 624 618
f 478 122 459
f 122 458 459
f 37 459 457
f 459 458 457
f 122 456 458
f 457 458 123
f 191 190 192
f 485 129 484
f 129 482 484
f 483 485 484
f 130 483 484
f 189 187 14
f 191 50 189
f 191 189 175
f 189 14 175
f 14 177 175
f 499 501 500
f 501 499 38
f 38 499 590
f 135 499 500
f 488 501 38
f 499 135 591
f 480 454 4
f 284 12 346
f 4 423 506
f 480 4 506
f 423 531 506
f 480 506 505
f 531 137 506
f 506 137 505
f 365 366 98
f 71 270 262
f 270 71 269
f 71 267 269
f 335 334 333
f 333 334 89
f 334 335 91
f 536 9 519
f 465 463 461
f 537 140 541
f 520 140 519
f 119 446 465
f 465 461 119
f 461 441 119
f 460 441 461
f 176 46 173
f 299 297 24
f 71 263 266
f 263 260 266
f 260 72 266
f 263 70 260
f 205 201 49
f 201 181 49
f 186 205 49
f 181 201 200
f 181 182 49
f 284 77 283
f 586 587 152
f 588 586 151
f 20 267 265
f 266 267 71
f 31 417 631
f 631 417 632
f 31 631 639
f 417 31 419
f 641 631 161
f 417 112 632
f 161 631 632
f 418 417 419
f 417 418 112
f 284 345 77
f 542 550 145
f 542 541 524
f 284 174 12
f 48 174 283
f 373 20 265
f 373 265 374
f 609 608 525
f 608 157 622
f 560 559 313
f 636 637 162
f 541 140 524
f 41 542 524
f 358 357 280
f 70 263 264
f 263 262 264
f 176 177 46
f 174 48 173
f 174 173 172
f 538 551 549
f 538 540 539
f 537 541 539
f 232 221 242
f 17 221 232
f 232 242 62
f 231 232 62
f 203 205 55
f 203 55 202
f 201 205 203
f 202 55 217
f 205 206 55
f 204 203 202
f 73 275 292
f 292 290 73
f 272 290 282
f 290 292 291
f 75 290 291
f 290 75 282
f 70 277 259
f 277 70 281
f 277 281 279
f 260 70 259
f 12 174 172
f 104 396 388
f 367 27 354
f 365 27 367
f 354 27 356
f 365 367 366
f 595 27 365
f 318 299 310
f 155 596 597
f 155 597 598
f 596 594 597
f 595 596 155
f 605 595 155
f 180 47 179
f 180 190 47
f 352 372 11
f 11 372 261
f 312 310 24
f 642 636 162
f 636 297 637
f 367 369 97
f 366 367 97
f 369 367 354
f 369 370 97
f 580 579 464
f 580 152 579
f 579 124 464
f 61 230 409
f 230 410 409
f 230 61 229
f 230 229 228
f 76 285 286
f 353 352 276
f 74 353 276
f 288 76 286
f 288 286 283
f 289 288 287
f 203 54 201
f 287 288 77
f 77 288 283
f 286 48 283
f 531 423 113
f 276 11 259
f 11 261 259
f 277 276 259
f 616 158 615
f 516 616 615
f 138 516 615
f 138 615 612
f 509 533 532
f 503 502 504
f 635 79 294
f 635 294 404
f 635 637 79
f 637 635 638
f 638 635 108
f 635 404 108
f 226 61 405
f 61 226 227
f 405 61 409
f 227 226 207
f 48 178 179
f 48 286 178
f 173 48 179
f 534 143 533
f 534 535 143
f 531 534 533
f 533 143 532
f 137 531 533
f 261 372 371
f 13 180 178
f 285 13 178
f 180 13 166
f 13 168 166
f 346 345 284
f 331 327 46
f 46 327 172
f 172 327 326
f 382 620 101
f 442 121 448
f 443 121 442
f 2 226 404
f 294 2 404
f 404 226 405
f 207 226 2
f 550 551 145
f 552 146 551
f 143 550 532
f 552 550 143
f 330 329 328
f 24 636 629
f 94 352 353
f 352 11 276
f 113 428 534
f 428 535 534
f 509 41 511
f 535 552 143
f 550 552 551
f 550 542 532
f 369 95 368
f 326 327 87
f 87 327 329
f 327 331 329
f 581 326 87
f 293 79 298
f 79 297 298
f 296 298 78
f 79 293 294
f 296 293 298
f 598 490 38
f 358 280 22
f 280 279 278
f 357 358 95
f 74 357 353
f 330 328 25
f 567 23 559
f 590 598 38
f 590 604 598
f 598 604 155
f 604 590 154
f 590 591 154
f 604 154 606
f 297 299 298
f 299 318 78
f 298 299 78
f 355 354 356
f 629 636 642
f 312 24 629
f 629 642 160
f 370 362 97
f 362 363 97
f 363 366 97
f 364 363 362
f 362 370 351
f 96 363 364
f 297 636 24
f 162 637 638
f 637 297 79
f 490 488 38
f 598 597 490
f 441 442 119
f 443 442 441
f 443 441 5
f 442 448 445
f 296 78 295
f 326 12 172
f 575 574 364
f 47 175 176
f 175 177 176
f 47 176 179
