# FEM surface export ¡ª frame 253
# Vertices: 642  Faces: 1280
v -0.52668703 1.54754257 0.00000510
v 0.52650416 1.54692805 0.00001021
v -0.58944327 0.00000000 -0.00069739
v 0.57689446 0.00000000 -0.00416587
v 0.00104816 0.20000677 0.89339715
v -0.00065150 1.22705388 0.85380656
v -0.00048906 0.20187010 -0.89592713
v 0.00006822 1.22610962 -0.85326844
v 0.86472690 0.71171421 -0.53443742
v 0.86350381 0.71005857 0.53346729
v -0.86375475 0.71301061 -0.53472197
v -0.86392218 0.71271181 0.53412068
v -0.81207144 1.20039904 0.31029186
v -0.50336939 1.01367974 0.81363642
v -0.30963388 1.50587082 0.50065470
v 0.30967009 1.50585127 0.50085896
v 0.00019797 1.69548357 -0.00004767
v 0.30963054 1.50581515 -0.50083911
v -0.30936223 1.50626862 -0.50103027
v -0.50282985 1.01311588 -0.81445795
v -0.81205857 1.20149612 -0.31023487
v -1.01416183 0.71030617 -0.00083171
v 0.50396067 1.01417303 0.81485689
v 0.81183988 1.20001352 0.30991161
v -0.51625806 0.41314209 0.83933896
v -0.00039590 0.71104163 1.01623857
v -0.85036510 0.22688395 -0.32403186
v -0.84995824 0.22959532 0.32599205
v -0.00096219 0.71247840 -1.01595867
v -0.51619959 0.40901226 -0.83503407
v 0.81197488 1.20015526 -0.30992219
v 0.50249767 1.01225972 -0.81303167
v 0.85331345 0.22577216 0.32489580
v 0.51780349 0.41186786 0.83809680
v 0.33697256 0.00000000 0.54779428
v -0.34221447 0.00000000 0.54438812
v -0.00466495 0.00000000 0.00097943
v -0.33639726 0.00000000 -0.54626977
v 0.33660161 0.00000000 -0.54858369
v 0.51672620 0.40995279 -0.83770919
v 0.85331166 0.22763212 -0.32596192
v 1.01703298 0.71086645 -0.00007566
v -0.69552350 1.40010297 0.16109249
v -0.58929569 1.38651848 0.42640623
v -0.43472952 1.55928218 0.26028854
v -0.70831680 0.86868221 0.69988269
v -0.69098490 1.12709415 0.59023124
v -0.86863089 0.96512645 0.43674886
v -0.16102764 1.39211226 0.70325780
v -0.42667830 1.28732574 0.68987191
v -0.26142040 1.13651049 0.86641115
v -0.16252679 1.64696467 0.26322463
v -0.27346000 1.65785146 0.00005626
v 0.16092141 1.39169955 0.70348358
v 0.00011372 1.54703116 0.52640700
v 0.27370262 1.65751910 -0.00003796
v 0.16292822 1.64705384 0.26328191
v 0.43471813 1.55898261 0.26034829
v -0.16243508 1.64692283 -0.26328850
v -0.43456075 1.55962610 -0.26035458
v 0.43468443 1.55893838 -0.26026154
v 0.16274847 1.64678252 -0.26326874
v -0.16068806 1.39159834 -0.70347607
v 0.00033118 1.54702914 -0.52656466
v 0.16120867 1.39155543 -0.70358509
v -0.58900023 1.38666523 -0.42632756
v -0.69542837 1.40025055 -0.16101183
v -0.26094517 1.13526332 -0.86604369
v -0.42610803 1.28720689 -0.69014925
v -0.86892080 0.96596187 -0.43728790
v -0.69066560 1.12778187 -0.59062076
v -0.70869410 0.86880815 -0.70103389
v -0.85401762 1.22652805 0.00022143
v -0.97666287 0.71190214 -0.27845460
v -0.95835447 0.96876621 -0.16358456
v -0.95781529 0.96756715 0.16380861
v -0.97604519 0.71078461 0.27713475
v 0.58927447 1.38586795 0.42622909
v 0.69503391 1.39968753 0.16088261
v 0.26115841 1.13529861 0.86673766
v 0.42662418 1.28712165 0.68986553
v 0.86853951 0.96381229 0.43670890
v 0.69183582 1.12678683 0.58971965
v 0.70900917 0.86719757 0.69911951
v -0.26571602 0.87033427 0.96073401
v -0.00054822 0.97841591 0.96908700
v -0.71953195 0.55701023 0.71114951
v -0.53362525 0.71301818 0.86388433
v 0.00093381 0.44318786 0.99203616
v -0.26815245 0.55338174 0.97525859
v -0.27064171 0.28907391 0.90212446
v -0.97896814 0.45535690 0.16773042
v -0.88840264 0.45954061 0.44726840
v -0.88720673 0.45856410 -0.44792518
v -0.97983074 0.45574334 -0.16940491
v -0.75129336 0.04955321 0.17672856
v -0.89563286 0.20359638 0.00076628
v -0.74507958 0.04552064 -0.16966288
v -0.53397560 0.71085316 -0.86474591
v -0.71782935 0.55440390 -0.71025926
v -0.00033432 0.97884488 -0.96857220
v -0.26548621 0.87002128 -0.96103930
v -0.27371573 0.28675836 -0.90153927
v -0.26929972 0.55181438 -0.97277325
v -0.00083601 0.44593975 -0.99157912
v 0.42636961 1.28611302 -0.68958527
v 0.26128712 1.13501561 -0.86585611
v 0.69483370 1.39925790 -0.16094700
v 0.58898413 1.38531852 -0.42573568
v 0.70872635 0.86785799 -0.70025176
v 0.69096351 1.12700403 -0.59007150
v 0.86950940 0.96482974 -0.43692449
v 0.74885929 0.04216107 0.17173529
v 0.63638031 0.05624713 0.45860305
v 0.47613770 0.00000000 0.28237060
v 0.71962070 0.55525923 0.71183461
v 0.71914625 0.29778555 0.61602402
v 0.88788390 0.45678520 0.44677344
v 0.17424423 0.05227492 0.74929821
v 0.45251843 0.14408208 0.73226845
v 0.27097070 0.29128072 0.90178168
v 0.17600872 0.00000000 0.28639171
v 0.29342216 0.00000000 -0.00486046
v -0.16962135 0.05225328 0.75074828
v -0.00104252 0.00000000 0.57830018
v -0.30550396 0.00000000 -0.00201714
v -0.17692284 0.00000000 0.28085726
v -0.48193946 0.00000000 0.28478804
v 0.17338645 0.00000000 -0.28758892
v 0.47174254 0.00000000 -0.28413367
v -0.47656634 0.00000000 -0.29009566
v -0.18313503 0.00000000 -0.28799567
v 0.17390780 0.05198479 -0.75539458
v 0.00292752 0.00000000 -0.57619464
v -0.17082700 0.05131740 -0.75589252
v 0.63374519 0.05747377 -0.45742044
v 0.74639463 0.04522066 -0.17437232
v 0.27118081 0.28775698 -0.90019333
v 0.45154583 0.14747889 -0.73080766
v 0.88964999 0.45766893 -0.44703269
v 0.71923989 0.29882097 -0.61570448
v 0.71964633 0.55515873 -0.71184230
v 0.89689285 0.20057553 -0.00133719
v 0.97837621 0.71147794 -0.27821591
v 0.98006296 0.45487383 -0.16774523
v 0.97930890 0.45341018 0.16681784
v 0.97548610 0.70966911 0.27701265
v 0.26857606 0.55409527 0.97469777
v 0.53440470 0.71285665 0.86410087
v 0.26516765 0.87028652 0.96110994
v -0.63104975 0.06245958 0.45851701
v -0.45196500 0.14303112 0.73319578
v -0.71742404 0.30125538 0.61608708
v -0.45317671 0.14073674 -0.73452330
v -0.63437510 0.05943738 -0.45840731
v -0.71717972 0.29448682 -0.61219907
v 0.53381616 0.71091676 -0.86353159
v 0.26802805 0.55523080 -0.97543210
v 0.26574817 0.86978912 -0.96037775
v 0.95774209 0.96726251 0.16385435
v 0.95767540 0.96737516 -0.16287608
v 0.85334045 1.22577035 0.00004384
v -0.61683780 1.48108661 0.08136086
v -0.57242107 1.48978269 0.21347286
v -0.48524469 1.56148100 0.13147008
v -0.70937747 1.30058968 0.37274772
v -0.64907569 1.40052509 0.29684687
v -0.76094395 1.30575323 0.23782685
v -0.37580693 1.54064393 0.38426343
v -0.51714897 1.48075294 0.34688169
v -0.45492926 1.45549095 0.46939451
v -0.79315013 0.79142863 0.62316895
v -0.79883158 0.92005140 0.57578504
v -0.87376374 0.84005713 0.48946044
v -0.60449052 1.07479393 0.71025634
v -0.70643932 1.00064337 0.65111107
v -0.61106938 0.94295937 0.76326185
v -0.84813309 1.08579826 0.37679416
v -0.78763229 1.04981720 0.51864773
v -0.76090890 1.16916704 0.45548701
v -0.08153099 1.31528854 0.78566843
v -0.21391179 1.27138674 0.79485273
v -0.13220735 1.18591273 0.86836141
v -0.37265924 1.40516102 0.60256100
v -0.29688120 1.34658480 0.70377195
v -0.23760468 1.45604312 0.60774010
v -0.38590568 1.07855511 0.84817773
v -0.34754676 1.21722698 0.78604424
v -0.47055778 1.15576136 0.76082975
v -0.64863133 1.26383090 0.51500171
v -0.56627345 1.21388626 0.64857775
v -0.51475698 1.34528041 0.56553990
v -0.35875145 1.62037408 0.13190916
v -0.40385440 1.61123204 0.00009152
v -0.23891360 1.58737397 0.38674739
v -0.30173051 1.61234272 0.26445737
v -0.13797513 1.68641210 -0.00005129
v -0.22024035 1.66212404 0.13294317
v -0.08215886 1.68352115 0.13316184
v 0.08113576 1.31494045 0.78578168
v -0.00007648 1.40100586 0.71244395
v 0.15677056 1.53639531 0.51985735
v 0.08132944 1.47727489 0.62103003
v 0.23755959 1.45569789 0.60790598
v -0.08122929 1.47731245 0.62107879
v -0.15663469 1.53686905 0.51996017
v 0.40407419 1.61083555 0.00004526
v 0.35893857 1.62000525 0.13187090
v 0.48522073 1.56118095 0.13138334
v 0.08261210 1.68312705 0.13323724
v 0.22068383 1.66215348 0.13302210
v 0.13832879 1.68622887 0.00000175
v 0.37585127 1.54015744 0.38417408
v 0.30197570 1.61234522 0.26450285
v 0.23922789 1.58693862 0.38665268
v -0.08226032 1.60910618 0.40024239
v 0.08254839 1.60881507 0.39990151
v 0.00014852 1.65975261 0.26672047
v -0.35856855 1.62049675 -0.13182302
v -0.48516837 1.56167960 -0.13141687
v -0.08211656 1.68333924 -0.13329436
v -0.22024418 1.66236961 -0.13305694
v -0.37542519 1.54078591 -0.38432303
v -0.30150613 1.61250579 -0.26449510
v -0.23877926 1.58741808 -0.38681287
v 0.48527044 1.56117725 -0.13134769
v 0.35889798 1.62021112 -0.13182077
v 0.23917134 1.58721495 -0.38676319
v 0.30179220 1.61225986 -0.26447177
v 0.37572366 1.54042113 -0.38416991
v 0.22050591 1.66215968 -0.13302325
v 0.08246269 1.68331099 -0.13332580
v -0.08117356 1.31451976 -0.78574169
v 0.00018303 1.40056109 -0.71273792
v 0.08139662 1.31424654 -0.78564656
v -0.15635218 1.53680527 -0.52014017
v -0.08092992 1.47726989 -0.62132466
v -0.23719384 1.45593882 -0.60795885
v 0.23769984 1.45580995 -0.60797250
v 0.08157440 1.47725916 -0.62138903
v 0.15685658 1.53656340 -0.52000052
v 0.00013688 1.65956342 -0.26676252
v 0.08266383 1.60895789 -0.40008765
v -0.08214378 1.60908580 -0.40018985
v -0.57231110 1.48999715 -0.21344818
v -0.61690086 1.48122454 -0.08115363
v -0.45455581 1.45551693 -0.46944404
v -0.51706904 1.48116100 -0.34689996
v -0.76090121 1.30660403 -0.23778541
v -0.64893311 1.40065837 -0.29679677
v -0.70918417 1.30127335 -0.37295350
v -0.13164899 1.18579018 -0.86794114
v -0.21345370 1.27066422 -0.79495072
v -0.47001719 1.15545976 -0.76084965
v -0.34704089 1.21631157 -0.78595042
v -0.38539797 1.07788658 -0.84802824
v -0.29637325 1.34604347 -0.70420760
v -0.37218216 1.40519953 -0.60296994
v -0.87443882 0.84075946 -0.49008614
v -0.79937214 0.92082131 -0.57657421
v -0.79338312 0.79150367 -0.62375098
v -0.76063699 1.17030931 -0.45608228
v -0.78758478 1.05053830 -0.51926762
v -0.84819973 1.08720243 -0.37712508
v -0.61120772 0.94277734 -0.76511276
v -0.70678329 1.00110579 -0.65207791
v -0.60438299 1.07438266 -0.71120417
v -0.51428986 1.34554338 -0.56584191
v -0.56593573 1.21391821 -0.64918929
v -0.64827031 1.26423311 -0.51511627
v -0.70467955 1.40954435 0.00017796
v -0.84351426 1.22053099 -0.15710640
v -0.78255814 1.31952190 -0.08129813
v -0.78243053 1.31919587 0.08148037
v -0.84335458 1.21987402 0.15722835
v -0.92921007 0.71305752 -0.41027945
v -0.93404186 0.84069222 -0.36207706
v -0.99826103 0.84139138 -0.08307260
v -0.97547770 0.84116066 -0.22248386
v -1.00564229 0.71142775 -0.14063227
v -0.92260158 0.97016120 -0.30340761
v -0.89564174 1.08964396 -0.23987910
v -0.93403113 0.83995795 0.36180192
v -0.92943406 0.71209735 0.41011760
v -0.89551443 1.08861983 0.23992488
v -0.92274767 0.96887130 0.30331856
v -1.00563610 0.71068299 0.13959903
v -0.97642213 0.84001517 0.22219177
v -0.99819714 0.84085441 0.08283878
v -0.91809970 1.10296011 -0.08254415
v -0.97109818 0.97182375 0.00044072
v -0.91781712 1.10221064 0.08307060
v 0.57227951 1.48968995 0.21342093
v 0.61652857 1.48056531 0.08112027
v 0.45498624 1.45496619 0.46934441
v 0.51720816 1.48052371 0.34680983
v 0.76052374 1.30537391 0.23760781
v 0.64886963 1.40011680 0.29672739
v 0.70925564 1.30042183 0.37271419
v 0.13150647 1.18573773 0.86888576
v 0.21360573 1.27061486 0.79497218
v 0.47090644 1.15623009 0.76140058
v 0.34733805 1.21660876 0.78622055
v 0.38577050 1.07790160 0.84837323
v 0.29662144 1.34551442 0.70395476
v 0.37259007 1.40452433 0.60249168
v 0.87309736 0.83708572 0.48840469
v 0.79871023 0.91711849 0.57431376
v 0.79289615 0.78899825 0.62192178
v 0.76102990 1.16893876 0.45544368
v 0.78793585 1.04836440 0.51815730
v 0.84789693 1.08518851 0.37660399
v 0.61266404 0.94324273 0.76439464
v 0.70694661 0.99941283 0.64990985
v 0.60571158 1.07487714 0.71055263
v 0.51490390 1.34453690 0.56554180
v 0.56675792 1.21393824 0.64850086
v 0.64880431 1.26346064 0.51464075
v -0.13301992 1.06197989 0.92977118
v -0.00034314 1.10599458 0.91971159
v -0.38951471 0.94493574 0.89786005
v -0.26630658 1.00627744 0.92206901
v -0.00073693 0.84614813 1.00144017
v -0.13435288 0.92628956 0.97446889
v -0.13540526 0.79112351 1.00041556
v -0.79952461 0.63384885 0.62830132
v -0.72257501 0.71299988 0.71398944
v -0.53094482 0.56067139 0.86196142
v -0.63214171 0.63424784 0.79548395
v -0.62405562 0.48299757 0.78238249
v -0.62725109 0.79111522 0.78909105
v -0.52436262 0.86461914 0.84822303
v 0.00124093 0.31564558 0.95176965
v -0.13532567 0.36104053 0.95906335
v -0.13636112 0.23852943 0.90769935
v -0.13540553 0.63086617 1.00767469
v -0.13514407 0.49564606 0.99275607
v -0.00061110 0.57635731 1.01368988
v -0.39851251 0.34666851 0.87771404
v -0.27164733 0.41757369 0.94797122
v -0.39580414 0.47936058 0.91874814
v -0.40474635 0.79169548 0.92445815
v -0.40743390 0.63162881 0.93266982
v -0.27067536 0.71177077 0.97994184
v -0.94500989 0.58471894 0.36714998
v -0.88381767 0.58439553 0.49581552
v -1.00877857 0.58162057 0.08360671
v -0.98722428 0.58230710 0.22457935
v -0.87813514 0.34093094 0.39064363
v -0.94386804 0.45647815 0.31092718
v -0.92606223 0.33741403 0.24921754
v -0.88391995 0.58491856 -0.49635169
v -0.94457990 0.58380604 -0.36796305
v -0.92616081 0.33507425 -0.24851517
v -0.94255745 0.45396447 -0.31196290
v -0.87651479 0.33709130 -0.39091089
v -0.98784310 0.58188868 -0.22696921
v -1.01042724 0.58137649 -0.08589642
v -0.67316324 0.00034227 0.08828018
v -0.75800169 0.03719919 0.00261408
v -0.66705453 0.00050725 -0.08567113
v -0.88504916 0.21292046 0.16570853
v -0.83116692 0.11640034 0.08883793
v -0.80873096 0.13035199 0.25426376
v -0.80392611 0.12708229 -0.25006220
v -0.82971823 0.11514132 -0.08465789
v -0.88373685 0.20666827 -0.16435680
v -0.99405581 0.45273080 -0.00068301
v -0.95118070 0.32414347 -0.08660708
v -0.95292985 0.32523701 0.08500820
v -0.72181851 0.71171278 -0.71419573
v -0.79845053 0.63316214 -0.62820095
v -0.52435362 0.86333317 -0.84897095
v -0.62777019 0.79025424 -0.79007125
v -0.62343425 0.47919038 -0.77938801
v -0.63190287 0.63165295 -0.79616934
v -0.53119606 0.55756170 -0.86061811
v 0.00019121 1.10613286 -0.91896874
v -0.13231270 1.06200266 -0.92916566
v -0.13507676 0.79223889 -1.00031340
v -0.13407481 0.92693132 -0.97441810
v -0.00038725 0.84716266 -1.00127220
v -0.26595429 1.00570834 -0.92241949
v -0.38908505 0.94438905 -0.89806360
v -0.13901936 0.23982233 -0.91076040
v -0.13771451 0.36176452 -0.95819539
v -0.00070835 0.31889591 -0.95319366
v -0.39648280 0.47681189 -0.91568077
v -0.27316061 0.41651085 -0.94542432
v -0.39916155 0.34373850 -0.87696481
v -0.00135182 0.57754272 -1.01412749
v -0.13727547 0.49590072 -0.99128181
v -0.13657402 0.63140023 -1.00695992
v -0.40463597 0.79155099 -0.92538083
v -0.27102405 0.71124119 -0.97929835
v -0.40734735 0.63013291 -0.93121111
v 0.21381289 1.27071810 -0.79488778
v 0.13187821 1.18519807 -0.86809182
v 0.37272897 1.40463674 -0.60270196
v 0.29694912 1.34556556 -0.70399028
v 0.38545102 1.07695019 -0.84751093
v 0.34734625 1.21550310 -0.78546274
v 0.47002840 1.15451527 -0.76030177
v 0.61664706 1.48066425 -0.08120240
v 0.57225811 1.48939407 -0.21332155
v 0.70886117 1.30002868 -0.37231073
v 0.64870703 1.39933813 -0.29644260
v 0.76030910 1.30518925 -0.23744676
v 0.51710981 1.48011374 -0.34649771
v 0.45478109 1.45503128 -0.46927455
v 0.79389489 0.79102379 -0.62313884
v 0.79975367 0.91995060 -0.57616347
v 0.87498969 0.83987981 -0.49037290
v 0.60418546 1.07403946 -0.71008962
v 0.70621532 0.99954957 -0.65113020
v 0.61128896 0.94223303 -0.76432008
v 0.84817946 1.08610106 -0.37711465
v 0.78730297 1.04936278 -0.51863712
v 0.76051909 1.16953075 -0.45539838
v 0.51443261 1.34413612 -0.56522280
v 0.64815623 1.26350069 -0.51457739
v 0.56586230 1.21308136 -0.64835906
v 0.67139995 0.00000000 0.09244373
v 0.62744582 0.00000000 0.23348671
v 0.52829266 0.00000000 0.13721821
v 0.75315934 0.13520479 0.39441743
v 0.69921273 0.04430769 0.31796461
v 0.80527174 0.12725328 0.25084487
v 0.40933305 0.00000000 0.42025760
v 0.56790239 0.00386136 0.38197285
v 0.49630487 0.01180381 0.50987554
v 0.79884243 0.63127881 0.62797129
v 0.81486142 0.50205034 0.58660096
v 0.88425690 0.58225513 0.49544683
v 0.62668061 0.35065371 0.73641020
v 0.72498262 0.42431641 0.66902936
v 0.62399298 0.48146054 0.78186667
v 0.87643462 0.33833975 0.38917375
v 0.81096321 0.37280962 0.53473306
v 0.79585117 0.25474519 0.47746930
v 0.08856299 0.11886847 0.83146513
v 0.22653651 0.15876904 0.83755779
v 0.13862038 0.24019271 0.90554494
v 0.39940926 0.04373978 0.64828801
v 0.31752792 0.09198990 0.74943799
v 0.25677311 0.00814751 0.65617734
v 0.39909956 0.34861547 0.87874913
v 0.36524719 0.21260399 0.82597458
v 0.49064904 0.27108133 0.79325765
v 0.68428648 0.16674176 0.54424715
v 0.59476209 0.21413945 0.68212777
v 0.54937375 0.09376143 0.60614717
v 0.39143229 0.00000000 0.14131853
v 0.43881747 0.00000000 -0.00293173
v 0.25832677 0.00000000 0.42599899
v 0.32765293 0.00000000 0.28739738
v 0.14627475 0.00000000 0.00118437
v 0.23429315 0.00000000 0.14498006
v 0.08730421 0.00000000 0.14356807
v -0.08684762 0.11844590 0.83439779
v 0.00249673 0.04914921 0.76598674
v -0.17813231 0.00000000 0.57061893
v -0.08664041 0.00141446 0.66964155
v -0.25241160 0.00944927 0.65886426
v 0.08638304 0.00062212 0.67806083
v 0.17034526 0.00000000 0.57497650
v -0.44924304 0.00000000 -0.00675863
v -0.39974242 0.00000000 0.14007112
v -0.53924161 0.00000000 0.14181779
v -0.09500491 0.00000000 0.14119965
v -0.24702562 0.00000000 0.14239593
v -0.15630293 0.00000000 0.00380703
v -0.41970441 0.00000000 0.42419904
v -0.33500043 0.00000000 0.28902814
v -0.26925096 0.00000000 0.42276701
v 0.08812424 0.00000000 0.43938610
v -0.09391643 0.00000000 0.43818587
v 0.00073684 0.00000000 0.28865260
v 0.38773060 0.00000000 -0.14196645
v 0.52483600 0.00000000 -0.14800224
v 0.08549967 0.00000000 -0.14385290
v 0.23310407 0.00000000 -0.14614750
v 0.41133702 0.00000000 -0.41938880
v 0.32560989 0.00000000 -0.28318259
v 0.26425567 0.00000000 -0.41889673
v -0.53475791 0.00000000 -0.14706802
v -0.39646679 0.00000000 -0.15025534
v -0.26361409 0.00000000 -0.42184904
v -0.33605161 0.00000000 -0.29077566
v -0.40799966 0.00000000 -0.42385983
v -0.24519092 0.00000000 -0.14544372
v -0.09558302 0.00000000 -0.14512107
v 0.08692143 0.12062585 -0.83521396
v 0.00343153 0.04449078 -0.76846790
v -0.08633989 0.12006924 -0.83487636
v 0.17668641 0.00000000 -0.56429714
v 0.08815942 0.00000000 -0.67433757
v 0.25826785 0.00798210 -0.66204798
v -0.25448269 0.01281369 -0.66307563
v -0.08596173 0.00048998 -0.68241471
v -0.17019667 0.00000000 -0.56808633
v -0.00594678 0.00000000 -0.28940666
v -0.08958264 0.00000000 -0.43576396
v 0.08876648 0.00000000 -0.43373328
v 0.62752134 0.00001740 -0.23401527
v 0.67681491 0.00000000 -0.08862786
v 0.49555239 0.00589726 -0.50413489
v 0.56045038 0.00019291 -0.37445804
v 0.80722922 0.13147606 -0.25252610
v 0.70101434 0.04670018 -0.32111517
v 0.75212044 0.13559330 -0.39516166
v 0.13822921 0.24142398 -0.91014206
v 0.22461419 0.15990624 -0.83812785
v 0.48937896 0.26766086 -0.79399425
v 0.36274514 0.21049611 -0.82466686
v 0.39789879 0.34509668 -0.87674868
v 0.31792730 0.09386111 -0.74939865
v 0.40043062 0.04583193 -0.64522821
v 0.88499582 0.58353537 -0.49585190
v 0.81532484 0.50361633 -0.58824593
v 0.80034840 0.63267452 -0.62832689
v 0.79588783 0.25730765 -0.47837421
v 0.81294316 0.37498063 -0.53611928
v 0.87885374 0.33777335 -0.39102340
v 0.62499750 0.48028091 -0.78237724
v 0.72599298 0.42305556 -0.66995656
v 0.62378281 0.34947950 -0.73561555
v 0.54826343 0.09434955 -0.60124570
v 0.59419751 0.21387663 -0.68099451
v 0.68389970 0.16824216 -0.54396516
v 0.75781977 0.03669719 -0.00010821
v 0.88714051 0.20738463 -0.16525908
v 0.83015901 0.11378586 -0.08804195
v 0.83219975 0.11476286 0.08479334
v 0.88328850 0.20446451 0.16354285
v 0.93031931 0.71200866 -0.41044113
v 0.94594210 0.58306479 -0.36682433
v 1.01116848 0.58120483 -0.08453583
v 0.98939890 0.58234233 -0.22553086
v 1.00761795 0.71198034 -0.14001653
v 0.94537592 0.45388049 -0.31105915
v 0.92767066 0.33495069 -0.24852481
v 0.94454610 0.58160621 0.36619657
v 0.92829818 0.70956302 0.40858275
v 0.92462838 0.33477944 0.24619974
v 0.94360381 0.45309302 0.30979270
v 1.00529850 0.71053851 0.14061919
v 0.98644215 0.58025813 0.22423090
v 1.00947106 0.58124113 0.08402705
v 0.95070529 0.32276899 -0.08605944
v 0.99400884 0.45140019 0.00009976
v 0.94841617 0.32137933 0.08472578
v 0.13640296 0.36208332 0.95893180
v 0.39703095 0.48105010 0.91823733
v 0.27244902 0.41971147 0.94879198
v 0.13578953 0.49740714 0.99366236
v 0.13503128 0.63127488 1.00747657
v 0.72207206 0.71150422 0.71303058
v 0.52598864 0.86517799 0.84958309
v 0.62850970 0.79042596 0.78939003
v 0.63253319 0.63360679 0.79535985
v 0.53145081 0.56034625 0.86092728
v 0.13203901 1.06077814 0.92938691
v 0.13428597 0.79142100 1.00101495
v 0.13335860 0.92601180 0.97503638
v 0.26567450 1.00542772 0.92296624
v 0.38937044 0.94454521 0.89807904
v 0.40689617 0.63224286 0.93055964
v 0.40511486 0.79267514 0.92578644
v 0.27019998 0.71187013 0.97974223
v -0.62853718 0.00020905 0.23517530
v -0.49648947 0.00860120 0.50931555
v -0.56657428 0.00046960 0.37794703
v -0.70085180 0.04667132 0.32301086
v -0.74973512 0.13323358 0.39692333
v -0.22803156 0.16118576 0.84253281
v -0.49068949 0.27188563 0.79514229
v -0.36485842 0.21205972 0.82606411
v -0.31850260 0.09060745 0.75292182
v -0.40302059 0.04394674 0.65040666
v -0.81398481 0.50571638 0.58771920
v -0.79394794 0.25873953 0.47670123
v -0.81174499 0.37689176 0.53626984
v -0.72605556 0.42610806 0.67123842
v -0.62461370 0.35278922 0.73897976
v -0.55079365 0.09682643 0.60519630
v -0.59353310 0.21586309 0.68309742
v -0.68213689 0.16954470 0.54456282
v -0.22648959 0.15993427 -0.83848310
v -0.40229085 0.04183855 -0.64876842
v -0.31796148 0.08468254 -0.75280404
v -0.36464092 0.20839997 -0.82369143
v -0.49000752 0.26796004 -0.79204333
v -0.62186885 0.00000000 -0.23022215
v -0.75239730 0.13234042 -0.39453393
v -0.69772261 0.04608257 -0.31800288
v -0.55991161 0.00114116 -0.37653679
v -0.49335811 0.00501119 -0.50904614
v -0.81309384 0.50440013 -0.58766037
v -0.62376845 0.34795752 -0.73303574
v -0.72488409 0.42149761 -0.66926557
v -0.81019598 0.37324807 -0.53520858
v -0.79080969 0.25542328 -0.47483441
v -0.54819077 0.08832469 -0.60357499
v -0.68195719 0.16245840 -0.54465514
v -0.59220350 0.21225247 -0.67993879
v 0.72320539 0.71163851 -0.71389085
v 0.53188181 0.55905449 -0.86115724
v 0.63249248 0.63246763 -0.79552925
v 0.62801707 0.79022956 -0.78923684
v 0.52430612 0.86319280 -0.84756112
v 0.13556308 0.36253783 -0.95955867
v 0.13440171 0.63236588 -1.00809300
v 0.13488340 0.49708045 -0.99311215
v 0.27221251 0.41894671 -0.94813925
v 0.39667296 0.47905153 -0.91811985
v 0.13253590 1.06115913 -0.92900306
v 0.38914526 0.94380391 -0.89694047
v 0.26581326 1.00471997 -0.92101198
v 0.13398725 0.92674994 -0.97446698
v 0.13415375 0.79244637 -1.00022781
v 0.40749425 0.63127059 -0.93054861
v 0.27021596 0.71205705 -0.97887224
v 0.40479815 0.79079014 -0.92339420
v 0.93347657 0.83836931 0.36185011
v 0.99836040 0.84025425 0.08412770
v 0.97694129 0.84010553 0.22288258
v 0.92287654 0.96862912 0.30351642
v 0.89570683 1.08837461 0.23981923
v 0.93535841 0.83982563 -0.36224186
v 0.89541018 1.08831537 -0.23969142
v 0.92364991 0.96919101 -0.30313092
v 0.97751337 0.84063780 -0.22257222
v 0.99920255 0.84142298 -0.08219250
v 0.70426685 1.40895057 -0.00010845
v 0.84305668 1.21931994 0.15692848
v 0.78212523 1.31891847 0.08130079
v 0.78172415 1.31858182 -0.08122101
v 0.84272432 1.21914804 -0.15666035
v 0.97047168 0.97098148 0.00068050
v 0.91648543 1.10127354 -0.08246329
v 0.91712523 1.10141158 0.08276131
f 330 87 329
f 336 325 26
f 207 208 56
f 464 36 580
f 502 129 504
f 157 624 622
f 308 311 82
f 247 223 248
f 507 483 508
f 331 88 329
f 494 500 497
f 156 601 602
f 591 589 592
f 365 98 596
f 75 281 282
f 152 587 577
f 149 559 560
f 555 121 553
f 530 141 529
f 515 517 139
f 361 594 98
f 250 67 249
f 157 608 609
f 294 293 209
f 317 81 316
f 557 338 26
f 303 305 81
f 530 529 528
f 101 381 382
f 415 418 111
f 192 184 50
f 412 110 411
f 20 384 256
f 131 594 486
f 281 264 282
f 347 287 348
f 28 349 582
f 165 163 1
f 248 250 66
f 617 107 398
f 273 271 274
f 456 115 453
f 558 561 560
f 335 576 91
f 331 177 332
f 116 433 436
f 351 370 92
f 136 511 530
f 239 240 65
f 247 258 19
f 304 23 567
f 148 557 570
f 214 208 58
f 440 426 450
f 268 270 269
f 258 247 268
f 204 202 16
f 466 125 465
f 517 513 133
f 168 275 274
f 275 73 274
f 198 193 53
f 309 308 307
f 510 511 136
f 415 416 110
f 131 490 597
f 473 475 474
f 414 415 111
f 493 495 494
f 496 504 485
f 433 116 432
f 600 375 601
f 240 234 65
f 418 415 412
f 486 361 3
f 567 566 304
f 380 393 29
f 17 199 197
f 491 492 132
f 451 449 435
f 218 217 216
f 623 621 613
f 396 104 395
f 433 439 436
f 628 160 627
f 215 202 217
f 209 207 2
f 427 113 424
f 434 10 544
f 434 433 432
f 199 17 210
f 150 564 565
f 489 491 132
f 275 13 285
f 497 500 134
f 125 466 476
f 578 152 577
f 208 214 211
f 328 88 343
f 356 27 603
f 150 566 567
f 372 100 371
f 190 191 47
f 235 8 398
f 260 261 72
f 422 403 414
f 422 414 111
f 453 454 123
f 349 583 582
f 521 520 519
f 425 453 115
f 616 622 158
f 483 130 508
f 151 586 572
f 212 17 232
f 400 397 402
f 377 396 99
f 41 522 511
f 510 508 505
f 549 547 42
f 475 473 36
f 510 137 509
f 222 221 197
f 430 115 429
f 220 194 1
f 305 54 204
f 621 29 613
f 192 171 184
f 460 335 5
f 88 331 332
f 74 277 279
f 300 301 80
f 390 389 388
f 165 45 164
f 146 549 551
f 291 278 75
f 448 120 445
f 147 543 544
f 607 610 609
f 603 602 356
f 139 529 514
f 333 553 443
f 92 368 347
f 261 260 259
f 300 6 200
f 46 177 331
f 284 283 174
f 301 300 200
f 471 468 474
f 54 305 301
f 302 304 303
f 569 150 567
f 150 569 570
f 294 209 2
f 628 629 160
f 548 543 147
f 147 625 627
f 63 233 234
f 426 427 114
f 41 509 532
f 198 52 196
f 614 105 612
f 147 627 547
f 81 305 306
f 549 548 547
f 54 301 200
f 342 88 332
f 264 281 70
f 193 194 53
f 455 429 456
f 187 321 14
f 479 130 484
f 147 544 625
f 458 456 453
f 304 80 303
f 314 84 313
f 488 503 501
f 321 332 14
f 423 425 424
f 305 204 306
f 341 339 25
f 514 40 516
f 625 628 627
f 340 339 341
f 105 614 391
f 243 228 62
f 318 316 78
f 75 278 279
f 357 355 353
f 238 257 63
f 466 455 476
f 425 423 4
f 448 449 120
f 408 638 108
f 292 275 285
f 22 278 289
f 515 513 517
f 501 503 134
f 622 623 158
f 134 503 504
f 195 216 206
f 163 271 246
f 619 617 620
f 62 228 229
f 163 165 164
f 453 425 454
f 489 132 488
f 82 628 625
f 58 208 209
f 525 608 40
f 626 547 627
f 518 517 498
f 489 487 491
f 557 26 564
f 325 336 344
f 541 145 539
f 40 616 516
f 338 556 89
f 250 248 245
f 139 514 515
f 98 594 596
f 246 220 1
f 112 413 630
f 9 536 413
f 156 600 601
f 332 177 14
f 321 342 332
f 156 606 600
f 584 330 585
f 302 303 81
f 584 87 330
f 330 25 585
f 400 239 65
f 439 440 117
f 95 358 368
f 597 594 131
f 594 361 486
f 246 67 245
f 561 562 149
f 28 364 362
f 55 216 217
f 427 430 114
f 267 20 254
f 556 555 553
f 84 309 558
f 311 310 312
f 609 525 142
f 256 68 255
f 124 460 461
f 82 311 312
f 307 308 82
f 589 135 495
f 527 40 514
f 112 418 412
f 20 256 254
f 258 238 19
f 267 254 269
f 273 272 249
f 392 391 393
f 137 533 509
f 122 455 456
f 9 413 411
f 130 480 505
f 333 443 5
f 527 525 40
f 589 495 385
f 39 496 485
f 223 225 224
f 414 416 415
f 219 222 53
f 145 538 539
f 413 412 411
f 469 468 467
f 183 181 6
f 191 192 50
f 429 35 431
f 292 285 76
f 413 112 412
f 415 110 412
f 43 164 167
f 467 468 126
f 617 101 620
f 450 451 117
f 438 546 545
f 619 620 159
f 17 212 210
f 124 579 576
f 584 153 583
f 460 124 576
f 3 469 467
f 311 308 314
f 6 320 183
f 389 104 388
f 251 250 249
f 194 165 1
f 291 289 278
f 287 77 348
f 238 258 257
f 139 517 518
f 238 236 19
f 223 247 19
f 382 380 29
f 39 518 498
f 361 359 3
f 69 255 257
f 139 518 528
f 33 545 535
f 387 385 7
f 69 268 269
f 477 462 125
f 454 479 123
f 121 555 447
f 451 435 117
f 454 425 4
f 233 252 8
f 124 463 464
f 69 258 268
f 168 167 166
f 583 153 582
f 384 394 102
f 138 512 513
f 57 210 211
f 254 256 255
f 607 609 142
f 324 319 86
f 289 291 76
f 291 292 76
f 384 102 383
f 422 421 420
f 221 17 197
f 383 102 381
f 376 377 99
f 99 373 374
f 386 105 392
f 438 33 440
f 90 341 343
f 281 75 279
f 574 571 96
f 628 82 312
f 221 222 59
f 127 471 474
f 595 605 603
f 551 538 145
f 334 91 340
f 322 324 85
f 305 303 301
f 18 239 399
f 306 204 16
f 199 198 197
f 166 190 180
f 303 80 301
f 267 266 265
f 626 42 547
f 16 215 213
f 349 351 350
f 295 16 213
f 68 379 252
f 250 251 66
f 627 160 626
f 383 68 256
f 343 88 342
f 507 508 136
f 202 215 16
f 197 198 53
f 254 69 269
f 603 605 156
f 418 419 111
f 384 383 256
f 455 122 476
f 203 204 54
f 556 557 148
f 255 68 253
f 313 84 560
f 25 328 341
f 254 255 69
f 603 156 602
f 581 584 583
f 630 632 112
f 163 246 1
f 246 245 220
f 432 116 558
f 499 591 590
f 320 563 86
f 345 93 350
f 306 16 295
f 346 93 345
f 562 568 149
f 604 605 155
f 154 592 593
f 545 552 535
f 511 522 530
f 574 573 571
f 566 150 565
f 361 98 360
f 67 271 273
f 234 235 65
f 208 211 56
f 574 151 573
f 251 270 66
f 398 8 378
f 213 215 214
f 438 440 439
f 315 314 313
f 263 71 262
f 20 373 384
f 496 134 504
f 329 88 328
f 81 306 316
f 555 556 148
f 592 589 103
f 617 619 107
f 227 207 56
f 571 359 96
f 446 466 465
f 206 216 55
f 359 571 469
f 568 148 570
f 34 437 435
f 28 351 349
f 21 272 282
f 113 423 424
f 490 489 488
f 379 68 383
f 210 212 211
f 80 563 300
f 351 92 350
f 326 346 12
f 83 317 318
f 555 148 554
f 212 231 56
f 218 57 217
f 271 67 246
f 195 196 52
f 270 268 66
f 390 592 103
f 148 568 554
f 495 493 7
f 592 390 593
f 357 95 355
f 574 575 151
f 452 120 451
f 154 591 592
f 587 585 577
f 395 394 396
f 93 349 350
f 610 416 611
f 166 44 190
f 315 23 302
f 315 302 317
f 268 247 66
f 606 154 593
f 396 394 99
f 211 212 56
f 370 369 368
f 235 397 65
f 280 278 22
f 83 315 317
f 575 588 151
f 74 279 280
f 385 495 7
f 63 257 253
f 397 235 398
f 214 58 213
f 220 219 194
f 546 146 545
f 236 225 19
f 599 94 602
f 235 233 8
f 102 394 395
f 611 416 32
f 225 223 19
f 139 528 529
f 231 62 229
f 419 406 421
f 451 450 452
f 49 182 185
f 402 397 107
f 52 199 218
f 416 610 110
f 225 236 244
f 107 397 398
f 68 252 253
f 322 85 321
f 182 181 183
f 118 438 439
f 546 438 118
f 348 77 345
f 543 546 118
f 231 212 232
f 610 611 157
f 33 438 545
f 385 386 103
f 479 480 130
f 169 195 15
f 93 583 349
f 15 195 206
f 190 44 192
f 247 248 66
f 146 552 545
f 248 60 245
f 570 557 564
f 274 271 43
f 63 253 233
f 272 21 249
f 507 528 518
f 67 273 249
f 487 467 126
f 196 195 169
f 624 159 623
f 134 496 497
f 132 503 488
f 104 393 395
f 556 553 89
f 355 356 94
f 258 69 257
f 229 61 227
f 56 231 227
f 460 576 335
f 463 124 461
f 394 373 99
f 29 393 391
f 67 250 245
f 193 198 196
f 462 36 464
f 144 633 630
f 141 526 527
f 517 133 498
f 536 144 630
f 100 372 599
f 144 536 537
f 22 289 287
f 578 579 152
f 579 578 576
f 189 188 187
f 60 223 224
f 92 348 350
f 555 554 447
f 396 377 388
f 194 193 165
f 413 536 630
f 372 352 599
f 377 376 375
f 348 345 350
f 105 386 387
f 240 237 234
f 463 462 464
f 135 500 494
f 45 196 169
f 512 612 387
f 245 60 220
f 429 115 456
f 223 60 248
f 288 289 76
f 525 526 142
f 100 599 601
f 613 29 391
f 526 523 520
f 341 328 343
f 631 641 639
f 264 21 282
f 266 72 265
f 106 402 403
f 73 273 274
f 186 206 205
f 381 379 383
f 52 216 195
f 410 18 399
f 290 272 73
f 72 371 374
f 526 525 527
f 115 430 424
f 498 497 496
f 621 382 29
f 543 118 434
f 214 215 57
f 522 141 530
f 511 510 509
f 352 94 599
f 493 512 7
f 90 340 341
f 169 171 170
f 605 604 606
f 219 60 224
f 104 389 392
f 359 469 3
f 186 49 185
f 222 219 224
f 166 167 44
f 428 427 426
f 523 522 524
f 129 502 481
f 50 185 188
f 164 45 170
f 425 115 424
f 33 428 426
f 427 428 113
f 94 356 602
f 515 138 513
f 114 431 452
f 237 236 238
f 215 217 57
f 95 354 355
f 220 60 219
f 515 514 516
f 183 320 319
f 222 197 53
f 559 569 567
f 300 320 6
f 435 436 117
f 96 360 363
f 640 642 641
f 242 243 62
f 140 537 519
f 508 130 505
f 420 410 399
f 537 539 144
f 317 316 318
f 426 114 450
f 186 15 206
f 311 83 310
f 625 544 307
f 544 10 307
f 168 43 167
f 185 182 188
f 369 354 95
f 44 171 192
f 605 606 156
f 548 549 146
f 100 601 375
f 149 568 569
f 381 380 382
f 455 466 35
f 480 479 454
f 543 548 546
f 493 133 513
f 492 472 37
f 477 125 476
f 491 487 126
f 337 336 338
f 588 153 587
f 576 578 91
f 633 161 632
f 96 359 360
f 39 485 483
f 101 617 378
f 193 45 165
f 163 164 43
f 618 624 611
f 507 136 528
f 561 149 560
f 641 162 639
f 116 561 558
f 494 133 493
f 253 252 233
f 63 237 238
f 392 393 104
f 440 450 117
f 93 581 583
f 386 385 387
f 120 449 451
f 421 422 111
f 486 3 467
f 302 81 317
f 633 632 630
f 462 475 36
f 376 99 374
f 489 490 131
f 447 449 448
f 387 612 105
f 106 420 399
f 173 46 172
f 492 491 472
f 316 306 295
f 22 287 347
f 109 410 420
f 507 39 483
f 559 23 313
f 214 57 211
f 196 45 193
f 10 434 432
f 422 106 403
f 626 160 640
f 487 486 467
f 542 41 532
f 400 106 399
f 444 120 452
f 198 199 52
f 475 127 474
f 621 620 382
f 621 623 159
f 450 114 452
f 92 347 348
f 376 100 375
f 434 118 433
f 503 132 502
f 337 90 336
f 537 536 519
f 395 393 380
f 201 54 200
f 171 44 170
f 355 94 353
f 58 296 213
f 422 420 106
f 595 365 596
f 569 568 570
f 523 140 520
f 114 430 431
f 218 210 57
f 304 566 80
f 639 162 638
f 261 371 72
f 548 147 547
f 498 133 497
f 150 570 564
f 222 224 59
f 142 526 520
f 437 436 435
f 141 522 523
f 137 510 505
f 173 179 176
f 559 149 569
f 121 447 448
f 563 320 300
f 102 395 380
f 257 255 253
f 642 162 641
f 83 311 314
f 216 52 218
f 512 493 513
f 23 304 302
f 91 339 340
f 512 138 612
f 159 620 621
f 218 199 210
f 364 28 575
f 83 318 310
f 168 274 43
f 136 530 528
f 140 523 524
f 495 135 494
f 233 235 234
f 566 563 80
f 25 339 577
f 277 74 276
f 475 462 477
f 133 494 497
f 436 437 116
f 389 386 392
f 548 146 546
f 441 460 5
f 10 309 307
f 65 397 400
f 543 434 544
f 640 641 161
f 272 273 73
f 581 93 346
f 419 421 111
f 319 320 86
f 180 179 178
f 127 475 477
f 231 229 227
f 337 334 340
f 136 508 510
f 308 309 84
f 237 63 234
f 447 554 34
f 252 379 378
f 315 83 314
f 608 622 616
f 338 336 26
f 337 338 89
f 13 275 168
f 209 208 207
f 436 439 117
f 628 312 629
f 360 366 363
f 364 574 96
f 359 361 360
f 466 446 35
f 500 501 134
f 406 109 421
f 135 589 591
f 601 599 602
f 340 90 337
f 481 492 37
f 522 41 524
f 78 316 295
f 131 486 487
f 403 32 414
f 634 626 640
f 151 572 573
f 515 516 138
f 8 252 378
f 265 72 374
f 9 521 519
f 538 549 42
f 368 358 347
f 588 587 586
f 458 453 123
f 589 385 103
f 502 492 481
f 32 416 414
f 430 427 424
f 153 585 587
f 540 144 539
f 370 368 92
f 209 293 58
f 428 33 535
f 326 581 346
f 625 307 82
f 575 28 582
f 6 181 200
f 421 109 420
f 553 121 443
f 160 642 640
f 153 584 585
f 309 432 558
f 334 337 89
f 23 315 313
f 271 163 43
f 296 295 213
f 39 498 496
f 118 439 433
f 531 113 534
f 293 296 58
f 28 362 351
f 489 131 487
f 431 444 452
f 84 558 560
f 98 366 360
f 45 169 170
f 379 101 378
f 462 463 125
f 308 84 314
f 10 432 309
f 299 24 310
f 132 492 502
f 512 387 7
f 639 638 408
f 565 323 86
f 59 244 242
f 106 400 402
f 440 33 426
f 566 565 563
f 617 398 378
f 224 225 59
f 410 109 409
f 239 400 399
f 194 219 53
f 358 22 347
f 610 157 609
f 27 595 603
f 479 484 482
f 142 520 521
f 585 25 577
f 339 578 577
f 408 407 406
f 407 109 406
f 31 408 406
f 407 408 108
f 31 639 408
f 419 31 406
f 608 616 40
f 430 429 431
f 455 35 429
f 35 444 431
f 188 51 187
f 188 182 51
f 51 322 187
f 322 51 319
f 51 182 183
f 319 51 183
f 187 322 321
f 322 319 324
f 381 101 379
f 405 407 108
f 404 405 108
f 286 285 178
f 407 405 409
f 109 407 409
f 191 175 47
f 167 164 170
f 50 184 185
f 44 167 170
f 64 244 236
f 243 244 64
f 50 188 189
f 541 542 145
f 442 445 119
f 339 91 578
f 445 446 119
f 624 623 622
f 611 624 157
f 523 526 141
f 141 527 529
f 527 514 529
f 445 120 444
f 446 445 444
f 35 446 444
f 613 614 158
f 158 614 615
f 623 613 158
f 614 613 391
f 614 612 615
f 371 376 374
f 100 376 371
f 479 482 123
f 373 394 384
f 540 42 634
f 633 540 634
f 538 42 540
f 633 634 161
f 161 634 640
f 42 626 634
f 540 633 144
f 557 556 338
f 553 333 89
f 262 21 264
f 251 21 262
f 5 335 333
f 270 251 262
f 21 251 249
f 600 593 30
f 606 593 600
f 600 30 375
f 593 390 30
f 30 377 375
f 390 388 30
f 30 388 377
f 228 243 241
f 470 478 459
f 470 127 478
f 127 477 478
f 184 186 185
f 478 477 476
f 122 478 476
f 357 74 280
f 518 39 507
f 344 342 85
f 325 344 85
f 342 344 343
f 85 342 321
f 344 90 343
f 90 344 336
f 482 129 481
f 482 481 457
f 482 457 123
f 481 37 457
f 449 447 34
f 435 449 34
f 470 472 471
f 472 470 37
f 470 471 127
f 472 126 471
f 126 468 471
f 470 459 37
f 491 126 472
f 504 129 485
f 221 59 242
f 125 463 465
f 437 34 562
f 561 437 562
f 554 568 562
f 34 554 562
f 437 561 116
f 390 103 389
f 103 386 389
f 392 105 391
f 572 586 580
f 572 580 36
f 586 152 580
f 473 572 36
f 244 243 242
f 225 244 59
f 64 240 241
f 240 239 241
f 237 240 64
f 243 64 241
f 236 237 64
f 411 607 521
f 9 411 521
f 110 607 411
f 607 142 521
f 610 607 110
f 171 15 184
f 171 169 15
f 15 186 184
f 87 584 581
f 153 588 582
f 588 575 582
f 381 102 380
f 573 572 473
f 468 469 128
f 474 468 128
f 469 571 128
f 571 573 128
f 573 473 128
f 473 474 128
f 564 323 565
f 26 323 564
f 323 324 86
f 325 323 26
f 325 324 323
f 563 565 86
f 324 325 85
f 410 230 18
f 230 228 18
f 18 228 241
f 18 241 239
f 401 619 618
f 401 402 107
f 403 402 401
f 619 159 618
f 401 618 32
f 619 401 107
f 403 401 32
f 618 611 32
f 159 624 618
f 478 122 459
f 122 458 459
f 37 459 457
f 459 458 457
f 122 456 458
f 457 458 123
f 191 190 192
f 485 129 484
f 129 482 484
f 483 485 484
f 130 483 484
f 189 187 14
f 191 50 189
f 191 189 175
f 189 14 175
f 14 177 175
f 499 501 500
f 501 499 38
f 38 499 590
f 135 499 500
f 488 501 38
f 499 135 591
f 480 454 4
f 284 12 346
f 4 423 506
f 480 4 506
f 423 531 506
f 480 506 505
f 531 137 506
f 506 137 505
f 365 366 98
f 71 270 262
f 270 71 269
f 71 267 269
f 335 334 333
f 333 334 89
f 334 335 91
f 536 9 519
f 465 463 461
f 537 140 541
f 520 140 519
f 119 446 465
f 465 461 119
f 461 441 119
f 460 441 461
f 176 46 173
f 299 297 24
f 71 263 266
f 263 260 266
f 260 72 266
f 263 70 260
f 205 201 49
f 201 181 49
f 186 205 49
f 181 201 200
f 181 182 49
f 284 77 283
f 586 587 152
f 588 586 151
f 20 267 265
f 266 267 71
f 31 417 631
f 631 417 632
f 31 631 639
f 417 31 419
f 641 631 161
f 417 112 632
f 161 631 632
f 418 417 419
f 417 418 112
f 284 345 77
f 542 550 145
f 542 541 524
f 284 174 12
f 48 174 283
f 373 20 265
f 373 265 374
f 609 608 525
f 608 157 622
f 560 559 313
f 636 637 162
f 541 140 524
f 41 542 524
f 358 357 280
f 70 263 264
f 263 262 264
f 176 177 46
f 174 48 173
f 174 173 172
f 538 551 549
f 538 540 539
f 537 541 539
f 232 221 242
f 17 221 232
f 232 242 62
f 231 232 62
f 203 205 55
f 203 55 202
f 201 205 203
f 202 55 217
f 205 206 55
f 204 203 202
f 73 275 292
f 292 290 73
f 272 290 282
f 290 292 291
f 75 290 291
f 290 75 282
f 70 277 259
f 277 70 281
f 277 281 279
f 260 70 259
f 12 174 172
f 104 396 388
f 367 27 354
f 365 27 367
f 354 27 356
f 365 367 366
f 595 27 365
f 318 299 310
f 155 596 597
f 155 597 598
f 596 594 597
f 595 596 155
f 605 595 155
f 180 47 179
f 180 190 47
f 352 372 11
f 11 372 261
f 312 310 24
f 642 636 162
f 636 297 637
f 367 369 97
f 366 367 97
f 369 367 354
f 369 370 97
f 580 579 464
f 580 152 579
f 579 124 464
f 61 230 409
f 230 410 409
f 230 61 229
f 230 229 228
f 76 285 286
f 353 352 276
f 74 353 276
f 288 76 286
f 288 286 283
f 289 288 287
f 203 54 201
f 287 288 77
f 77 288 283
f 286 48 283
f 531 423 113
f 276 11 259
f 11 261 259
f 277 276 259
f 616 158 615
f 516 616 615
f 138 516 615
f 138 615 612
f 509 533 532
f 503 502 504
f 635 79 294
f 635 294 404
f 635 637 79
f 637 635 638
f 638 635 108
f 635 404 108
f 226 61 405
f 61 226 227
f 405 61 409
f 227 226 207
f 48 178 179
f 48 286 178
f 173 48 179
f 534 143 533
f 534 535 143
f 531 534 533
f 533 143 532
f 137 531 533
f 261 372 371
f 13 180 178
f 285 13 178
f 180 13 166
f 13 168 166
f 346 345 284
f 331 327 46
f 46 327 172
f 172 327 326
f 382 620 101
f 442 121 448
f 443 121 442
f 2 226 404
f 294 2 404
f 404 226 405
f 207 226 2
f 550 551 145
f 552 146 551
f 143 550 532
f 552 550 143
f 330 329 328
f 24 636 629
f 94 352 353
f 352 11 276
f 113 428 534
f 428 535 534
f 509 41 511
f 535 552 143
f 550 552 551
f 550 542 532
f 369 95 368
f 326 327 87
f 87 327 329
f 327 331 329
f 581 326 87
f 293 79 298
f 79 297 298
f 296 298 78
f 79 293 294
f 296 293 298
f 598 490 38
f 358 280 22
f 280 279 278
f 357 358 95
f 74 357 353
f 330 328 25
f 567 23 559
f 590 598 38
f 590 604 598
f 598 604 155
f 604 590 154
f 590 591 154
f 604 154 606
f 297 299 298
f 299 318 78
f 298 299 78
f 355 354 356
f 629 636 642
f 312 24 629
f 629 642 160
f 370 362 97
f 362 363 97
f 363 366 97
f 364 363 362
f 362 370 351
f 96 363 364
f 297 636 24
f 162 637 638
f 637 297 79
f 490 488 38
f 598 597 490
f 441 442 119
f 443 442 441
f 443 441 5
f 442 448 445
f 296 78 295
f 326 12 172
f 575 574 364
f 47 175 176
f 175 177 176
f 47 176 179
