# FEM surface export ¡ª frame 639
# Vertices: 642  Faces: 1280
v -0.50647968 0.77124196 0.00805436
v 0.50094855 0.78935802 -0.00930336
v -0.52716249 0.50950831 0.01238845
v 0.52252996 0.45965269 -0.03122038
v -0.01050481 0.30971354 0.84514731
v 0.00949973 0.53403825 0.85835546
v -0.00297251 0.28662229 -0.83604699
v -0.00989948 0.54574597 -0.85773832
v 0.94522226 0.17265369 -0.60800141
v 0.95860046 0.18805332 0.59850144
v -0.94011664 0.15141065 -0.58529830
v -0.92577690 0.15915973 0.59421378
v -0.80593938 0.51700693 0.33003992
v -0.52055693 0.38529834 0.85866547
v -0.29569805 0.74872738 0.48583981
v 0.28804737 0.75323802 0.47885931
v 0.00118530 0.91975296 -0.00247636
v 0.28446567 0.76676375 -0.49209273
v -0.29866678 0.75937319 -0.47889814
v -0.52902889 0.39285088 -0.84666866
v -0.80890888 0.52447766 -0.30314240
v -1.11085212 0.18866904 -0.00379026
v 0.52939790 0.38691494 0.84849048
v 0.81259257 0.53880084 0.29689091
v -0.52255464 0.12687099 0.79834092
v 0.00309991 0.13184665 1.12097311
v -0.84694260 0.24859267 -0.29091683
v -0.80770516 0.25019097 0.31622264
v -0.00658211 0.13790019 -1.12644410
v -0.50142229 0.07704483 -0.83384866
v 0.80837083 0.54080898 -0.33540541
v 0.49614048 0.38717371 -0.86252016
v 0.83344221 0.23244873 0.33950293
v 0.51496953 0.13432075 0.84590358
v 0.27780735 0.45796871 0.47337189
v -0.28048021 0.55889428 0.48180413
v -0.02194732 0.35416210 0.02225990
v -0.33427802 0.34395650 -0.50485384
v 0.29903230 0.46803561 -0.45701584
v 0.53411293 0.10083181 -0.84023970
v 0.84746313 0.19045228 -0.28954828
v 1.11704636 0.19304381 -0.01507374
v -0.67776752 0.66162562 0.17335281
v -0.56423998 0.65072036 0.42759758
v -0.41209948 0.77973199 0.25020185
v -0.74224836 0.25665197 0.76589578
v -0.69125664 0.46702933 0.60875952
v -0.89113331 0.35563490 0.47006750
v -0.14593115 0.66261828 0.69429433
v -0.41447186 0.58794940 0.69740081
v -0.25537211 0.46880147 0.89017111
v -0.15465103 0.86728978 0.24649847
v -0.26243058 0.87552869 0.00035455
v 0.15683721 0.66297442 0.68317556
v -0.00282896 0.78047514 0.49922869
v 0.26296648 0.88382250 -0.00326925
v 0.15629414 0.86919671 0.24616377
v 0.41325107 0.79404259 0.24069814
v -0.15858169 0.86856616 -0.24813718
v -0.42178503 0.79178852 -0.24222630
v 0.41098452 0.80717772 -0.25763363
v 0.15656675 0.87657636 -0.25326848
v -0.17102300 0.67059773 -0.68548286
v -0.00450491 0.79268372 -0.50223428
v 0.13683447 0.67653948 -0.69861490
v -0.57511783 0.66625488 -0.41150746
v -0.68333650 0.66266328 -0.14581527
v -0.27373269 0.48654485 -0.87204003
v -0.43651238 0.59242916 -0.67894173
v -0.89747417 0.36177310 -0.46250889
v -0.70043236 0.46787220 -0.59507143
v -0.74963129 0.28683269 -0.74825191
v -0.85655630 0.54067796 0.01389764
v -1.07693172 0.17006403 -0.30059671
v -0.99301505 0.35759804 -0.17815749
v -0.98778272 0.36620536 0.17742822
v -1.05777228 0.20646468 0.31658617
v 0.56250256 0.65945679 0.40596923
v 0.66697973 0.68123060 0.13807766
v 0.26829931 0.46816900 0.87603331
v 0.42238012 0.57847589 0.67390507
v 0.91526544 0.37788370 0.45745918
v 0.70204401 0.48980075 0.59719777
v 0.76229364 0.30343828 0.75359702
v -0.27785009 0.27049118 1.03236234
v 0.00341986 0.34657869 1.01986992
v -0.79206455 0.00408519 0.75521839
v -0.57563275 0.14457390 0.95875227
v 0.00787664 0.12452346 1.07243288
v -0.29376537 0.01396975 1.05067635
v -0.27720734 0.25829795 0.88522524
v -0.98347902 0.00000000 0.18430151
v -0.93398005 0.07501604 0.50557286
v -0.92974448 0.05747874 -0.44016886
v -1.03068399 0.02930648 -0.17404136
v -0.67958009 0.36495477 0.14228334
v -0.86381030 0.26706880 0.02677994
v -0.68704021 0.41243342 -0.16213009
v -0.58922422 0.13544405 -0.94230944
v -0.79962498 0.00262453 -0.78633523
v -0.00444175 0.36753747 -1.01448917
v -0.28438774 0.29250023 -1.02876139
v -0.24386969 0.18770643 -0.88756591
v -0.27424991 0.02617031 -1.04397166
v 0.01118169 0.08464320 -1.03448975
v 0.40670815 0.59877610 -0.70433462
v 0.25176358 0.47848630 -0.89757580
v 0.67498183 0.67570806 -0.17436044
v 0.56183434 0.67711174 -0.43095741
v 0.72928530 0.27860436 -0.77441061
v 0.68498588 0.49173617 -0.62262434
v 0.89851487 0.36685219 -0.48891467
v 0.71631306 0.37398881 0.14794396
v 0.57179749 0.39655653 0.39919776
v 0.39122635 0.49547753 0.20232624
v 0.76990467 0.03194767 0.79350233
v 0.69181883 0.20072876 0.59206825
v 0.92917782 0.00474286 0.50067765
v 0.17833030 0.39385241 0.70238566
v 0.39439920 0.34341887 0.69986761
v 0.23056982 0.20976281 0.91842163
v 0.15788636 0.56983417 0.24697028
v 0.21591976 0.28856412 0.03962705
v -0.14181316 0.40472469 0.66989803
v 0.04712663 0.56767261 0.49675488
v -0.26762289 0.37355387 0.08198767
v -0.16070361 0.45539591 0.26419699
v -0.44552726 0.56918246 0.24550131
v 0.15193352 0.31082156 -0.24400185
v 0.41749978 0.36394572 -0.26085207
v -0.41452280 0.46892309 -0.25050479
v -0.21415444 0.30037609 -0.23709838
v 0.17740138 0.43408844 -0.66309875
v -0.02855860 0.40443036 -0.52596664
v -0.17438127 0.45347723 -0.69557077
v 0.59967518 0.37202457 -0.36324242
v 0.72691649 0.35901731 -0.12474345
v 0.27372956 0.26704550 -0.89866060
v 0.43002850 0.32240957 -0.64545143
v 0.93547529 0.00165399 -0.45747164
v 0.72819126 0.17303696 -0.59735203
v 0.79999959 0.00273611 -0.78042316
v 0.91821438 0.23144090 0.01661024
v 1.05598104 0.18230024 -0.33063513
v 1.03089821 0.00000000 -0.12766577
v 1.02462649 0.00000000 0.19507267
v 1.07607770 0.16214800 0.30378431
v 0.28982088 0.00774926 1.06537986
v 0.58749634 0.15619113 0.96451437
v 0.28819156 0.27057418 1.03446531
v -0.57352245 0.43837458 0.40917909
v -0.40392858 0.36456257 0.67801607
v -0.71862328 0.24841245 0.60535848
v -0.45386308 0.30249420 -0.70662618
v -0.60132486 0.39897162 -0.42330769
v -0.72400916 0.20230815 -0.62619901
v 0.57501328 0.16111156 -0.95719451
v 0.28282869 0.00107980 -1.05638492
v 0.27080593 0.28350490 -1.03939188
v 1.01212871 0.35791436 0.16593662
v 0.99782395 0.37780812 -0.19281912
v 0.85458744 0.54920030 -0.00993187
v -0.59644055 0.72187877 0.08993509
v -0.54758799 0.72622436 0.21066508
v -0.46081695 0.78177291 0.13044864
v -0.68773049 0.58684939 0.38062158
v -0.62553406 0.66060883 0.30142096
v -0.74997211 0.59144109 0.25107270
v -0.35427552 0.77129459 0.36783275
v -0.49218374 0.71787310 0.33879906
v -0.43520167 0.70555013 0.45706478
v -0.84368026 0.20402221 0.68407273
v -0.83055902 0.31070358 0.61689734
v -0.91687822 0.25630391 0.53239840
v -0.61642098 0.43035567 0.73989552
v -0.73029208 0.37049672 0.68591040
v -0.64174986 0.33020601 0.81280017
v -0.85156202 0.42872781 0.39474866
v -0.79020029 0.40096849 0.54188067
v -0.75440407 0.49349064 0.46997547
v -0.06754456 0.60102189 0.78323740
v -0.19910991 0.57037193 0.80228972
v -0.12121834 0.50596964 0.88286990
v -0.35755727 0.67444569 0.59455079
v -0.28176883 0.62811285 0.70515716
v -0.22624558 0.71291548 0.59470522
v -0.39289647 0.43139392 0.88598162
v -0.33902240 0.52872133 0.80324465
v -0.47098464 0.48774526 0.77980638
v -0.63261414 0.56054127 0.52424401
v -0.56439596 0.53000385 0.66346949
v -0.49839386 0.62563580 0.57081681
v -0.34189311 0.83664674 0.12562816
v -0.38652095 0.82703757 0.00262646
v -0.22560264 0.81200308 0.36666048
v -0.28679779 0.83114010 0.25021914
v -0.13233897 0.90523392 -0.00125790
v -0.20940137 0.88342589 0.12558882
v -0.07696143 0.90309459 0.12469224
v 0.08689474 0.60093808 0.77150548
v 0.00035600 0.66803068 0.69385868
v 0.14176323 0.77216417 0.49268800
v 0.06972790 0.72581506 0.59413391
v 0.22084393 0.71123827 0.58213884
v -0.07792065 0.72412664 0.59683257
v -0.14908442 0.77364695 0.49689651
v 0.38410321 0.84000349 -0.00278312
v 0.34209955 0.84959859 0.12344769
v 0.46226084 0.79887301 0.11700606
v 0.08064755 0.90637749 0.12354272
v 0.21193981 0.88632476 0.12218019
v 0.13314837 0.91088265 -0.00662614
v 0.35449737 0.78381908 0.36453730
v 0.28752017 0.84157342 0.24812916
v 0.22288734 0.81882465 0.36575827
v -0.08100670 0.83070183 0.37805754
v 0.07501493 0.83298004 0.37623543
v -0.00122948 0.88084698 0.24973990
v -0.34532925 0.83837730 -0.12401920
v -0.46760049 0.78896898 -0.11648411
v -0.08096797 0.90521938 -0.12701504
v -0.21333422 0.88085663 -0.12705743
v -0.36437392 0.78310466 -0.36358646
v -0.29206139 0.83614701 -0.24713044
v -0.23183405 0.82219899 -0.36416936
v 0.46278879 0.80387497 -0.13327064
v 0.34338552 0.85149425 -0.13076083
v 0.22215313 0.83021563 -0.37442636
v 0.28590059 0.85012716 -0.25770286
v 0.35012156 0.79522210 -0.37905717
v 0.21411051 0.88755071 -0.13221939
v 0.07955810 0.90734464 -0.13228162
v -0.09255964 0.61362171 -0.77827364
v -0.01508277 0.68103880 -0.69970024
v 0.06346985 0.61572284 -0.78551388
v -0.15214452 0.78314459 -0.49443078
v -0.08855625 0.73726356 -0.60090852
v -0.23198994 0.72018039 -0.58675402
v 0.21282807 0.72666109 -0.59945244
v 0.06400211 0.74000168 -0.60550272
v 0.14006601 0.78776222 -0.50293380
v -0.00252799 0.88590455 -0.25403064
v 0.07572574 0.84397602 -0.37678334
v -0.08215454 0.84433037 -0.37869549
v -0.55800903 0.73720837 -0.19402845
v -0.59986949 0.72496921 -0.06634597
v -0.44081110 0.72294813 -0.45297819
v -0.50252831 0.73512805 -0.32716835
v -0.75611979 0.59491873 -0.22155870
v -0.63555658 0.66809297 -0.28034696
v -0.70275158 0.60245699 -0.35497600
v -0.14328361 0.52132726 -0.86565858
v -0.22431293 0.58136809 -0.78195816
v -0.48740733 0.49655706 -0.76278222
v -0.35880515 0.53993595 -0.77863133
v -0.40442368 0.44778806 -0.86038113
v -0.30305091 0.63363594 -0.68773282
v -0.36648977 0.67964113 -0.58657157
v -0.93536079 0.27386388 -0.53556645
v -0.84170318 0.32887179 -0.61262828
v -0.85403585 0.22895284 -0.68300241
v -0.76441401 0.49541208 -0.45326513
v -0.80413198 0.41442603 -0.53335178
v -0.85960633 0.43893504 -0.37897664
v -0.64242554 0.33401340 -0.81438684
v -0.73520142 0.38219929 -0.67899406
v -0.62523365 0.43664950 -0.72812212
v -0.50813091 0.63741142 -0.55497068
v -0.57428056 0.53269881 -0.64007765
v -0.64987415 0.57170624 -0.49941668
v -0.69122094 0.67117906 0.01465022
v -0.84293419 0.53771377 -0.14556329
v -0.77410936 0.60444397 -0.06548251
v -0.77262425 0.60251498 0.09939477
v -0.84031898 0.52955860 0.17190488
v -1.01828516 0.16520604 -0.44257009
v -0.99391228 0.25844660 -0.40119845
v -1.05694962 0.28000471 -0.09043927
v -1.03912723 0.26434708 -0.24748996
v -1.09268117 0.17749992 -0.15490685
v -0.95354635 0.36151814 -0.31800866
v -0.90370339 0.44656646 -0.23666233
v -0.98641336 0.27942848 0.39984807
v -1.00675702 0.17279091 0.45520064
v -0.90342611 0.43749195 0.25515687
v -0.95486361 0.36830956 0.32905307
v -1.09899473 0.22190629 0.15622437
v -1.03632593 0.30252659 0.24393405
v -1.06574059 0.30480227 0.08677059
v -0.93538648 0.45101416 -0.07523300
v -1.01067400 0.35611242 -0.00270639
v -0.93659776 0.44520810 0.09468893
v 0.54454589 0.74791449 0.19519675
v 0.58918452 0.73392963 0.06170122
v 0.42872864 0.71492517 0.45044047
v 0.48631299 0.73305905 0.32520333
v 0.74540508 0.61892843 0.21844812
v 0.61876118 0.68186176 0.27637610
v 0.69486612 0.61239213 0.35269794
v 0.13774334 0.50723428 0.87076664
v 0.21997134 0.56376284 0.77942288
v 0.48067096 0.49301735 0.76740295
v 0.34966585 0.53242958 0.77617478
v 0.40148947 0.44317815 0.87100565
v 0.29132053 0.62302691 0.68017942
v 0.35722366 0.66837054 0.57675093
v 0.95145166 0.27733412 0.52531278
v 0.85518008 0.34413961 0.61254346
v 0.86469293 0.24321549 0.67744547
v 0.76270479 0.52869725 0.45101008
v 0.81465042 0.44135740 0.53252941
v 0.87055933 0.46398717 0.38147002
v 0.64270741 0.34485278 0.80757719
v 0.74288321 0.40044734 0.67717159
v 0.62355256 0.44348633 0.72863477
v 0.50369704 0.62564784 0.54925513
v 0.56380206 0.54151231 0.63978261
v 0.63806188 0.58020723 0.50060165
v -0.13589790 0.40612510 0.96105868
v 0.00513868 0.44307387 0.94648594
v -0.41099420 0.32287779 0.95419306
v -0.27725047 0.36158401 0.96328533
v 0.00905338 0.24374029 1.07282138
v -0.14047141 0.30407327 1.02715623
v -0.13720970 0.20524740 1.09312201
v -0.86767119 0.07898855 0.69841969
v -0.77468956 0.13449059 0.79818672
v -0.57115620 0.00021319 0.88636416
v -0.69514632 0.06409010 0.86880827
v -0.64050007 0.03033769 0.70979422
v -0.65878063 0.19363183 0.87566811
v -0.55150747 0.25800222 0.90787894
v -0.03549554 0.20134813 0.94703096
v -0.13902019 0.18909079 0.95916712
v -0.14203614 0.28724632 0.85648710
v -0.13834925 0.05844707 1.12519169
v -0.15010872 0.08869893 1.00371110
v 0.01155646 0.01476580 1.11668193
v -0.42003515 0.21317267 0.86564147
v -0.31385437 0.13999803 0.95475948
v -0.37276074 0.06629911 0.87428522
v -0.43039230 0.19764300 1.01267076
v -0.46029031 0.05563549 1.02483845
v -0.29137394 0.12707001 1.06804538
v -1.04379833 0.08414243 0.40850309
v -0.97883213 0.07233242 0.55588919
v -1.10408080 0.08572580 0.10060196
v -1.07291532 0.09413310 0.23340127
v -0.89104241 0.15225747 0.39497605
v -0.97213280 0.01771400 0.35246602
v -0.91579938 0.12922962 0.26009494
v -0.97811067 0.05834433 -0.52640790
v -1.03790092 0.03548140 -0.38060784
v -0.93216866 0.17632361 -0.22392224
v -0.98184425 0.14321607 -0.30663973
v -0.87161690 0.15663686 -0.36800626
v -1.09272289 0.01839400 -0.25117326
v -1.11987793 0.05347396 -0.07993692
v -0.62434614 0.46898890 0.08871057
v -0.72030568 0.41712555 -0.03655088
v -0.61925793 0.46015826 -0.04597309
v -0.84488034 0.23714346 0.13744400
v -0.76987249 0.31265724 0.09307527
v -0.76242727 0.31852666 0.23278303
v -0.76644409 0.30675429 -0.21569206
v -0.79451048 0.33146453 -0.06029508
v -0.88480395 0.27833420 -0.14203273
v -1.03379786 0.00000000 0.00942633
v -0.97438568 0.12765016 -0.06384873
v -0.95739406 0.12310964 0.09975608
v -0.79240859 0.13856852 -0.78720260
v -0.88277006 0.08882827 -0.68819827
v -0.55359250 0.27912208 -0.91553807
v -0.67601067 0.21991488 -0.85828131
v -0.64383096 0.01203858 -0.81790280
v -0.70040625 0.05602549 -0.88167924
v -0.57170141 0.00212144 -0.94613004
v -0.01087325 0.46121070 -0.93835878
v -0.13905026 0.43006334 -0.94592977
v -0.14080217 0.23146226 -1.09859061
v -0.13903853 0.32668647 -1.01941657
v 0.00131013 0.26261044 -1.08221495
v -0.27642608 0.39289862 -0.95420277
v -0.40608251 0.35080880 -0.94047362
v -0.11642493 0.24310590 -0.88808340
v -0.12043489 0.10096312 -0.96067417
v 0.01351904 0.18318830 -0.94260728
v -0.40371084 0.00008310 -0.93852872
v -0.27341980 0.06015439 -0.94971114
v -0.35817108 0.09993291 -0.87948459
v 0.00179152 0.01073720 -1.11813867
v -0.12888838 0.00325346 -1.03975308
v -0.15502873 0.08964549 -1.11399233
v -0.44436702 0.23452164 -1.01859856
v -0.29323587 0.17948869 -1.09068751
v -0.44059294 0.08515245 -1.04049921
v 0.19592269 0.58838356 -0.80329418
v 0.12288523 0.51738489 -0.88665849
v 0.34610632 0.69085544 -0.60258269
v 0.27236938 0.64437288 -0.70357901
v 0.37462756 0.43966603 -0.88958216
v 0.32992214 0.54419041 -0.80636770
v 0.45632303 0.49910086 -0.79433912
v 0.59049654 0.73834777 -0.09096101
v 0.54642022 0.74776912 -0.21653254
v 0.69212836 0.61387801 -0.38619834
v 0.62518251 0.68327451 -0.30517739
v 0.74812281 0.61036509 -0.25316927
v 0.48656783 0.74647284 -0.34535182
v 0.42791176 0.73146611 -0.47279391
v 0.84761280 0.22646950 -0.69996381
v 0.82606936 0.32122996 -0.64447755
v 0.92824692 0.27049530 -0.54977131
v 0.59719807 0.44545668 -0.75382584
v 0.71168804 0.38783798 -0.70118576
v 0.62049794 0.33020920 -0.81928647
v 0.85926002 0.45571575 -0.41249490
v 0.79995966 0.43901950 -0.56565851
v 0.75340939 0.52844101 -0.48677608
v 0.49078766 0.64648074 -0.57905895
v 0.62827623 0.59397799 -0.53241730
v 0.55213273 0.54931545 -0.67533600
v 0.61730576 0.43242252 0.07377394
v 0.56196558 0.46771500 0.15933861
v 0.44416398 0.49434265 0.08893605
v 0.70424336 0.34030032 0.41741353
v 0.66121793 0.41987476 0.27842629
v 0.77467400 0.33691505 0.26524076
v 0.35672161 0.50220495 0.36236489
v 0.49648681 0.48002800 0.29652810
v 0.43809140 0.42589512 0.42563346
v 0.89055192 0.11450050 0.71405071
v 0.85054743 0.04087266 0.65650427
v 0.99203396 0.06914035 0.56002617
v 0.60654509 0.16776359 0.71488321
v 0.72041893 0.12362581 0.67403537
v 0.63322008 0.05268700 0.80774266
v 0.86851358 0.11320386 0.41721469
v 0.80851507 0.09427913 0.55288631
v 0.77220833 0.21617824 0.46547094
v 0.08937325 0.36669114 0.75990409
v 0.19332720 0.30465961 0.80718291
v 0.11492359 0.24502714 0.89773858
v 0.34585720 0.38687617 0.58303136
v 0.28710294 0.35725778 0.72437632
v 0.21886937 0.45501870 0.60306233
v 0.38216004 0.15895662 0.90862143
v 0.31686950 0.26791635 0.83042914
v 0.44226351 0.27090424 0.79345030
v 0.64411658 0.29884452 0.53124744
v 0.54975647 0.30229622 0.66549212
v 0.49443913 0.38181260 0.56100518
v 0.34681275 0.36032778 0.16277851
v 0.38358843 0.36137268 0.00978621
v 0.19768159 0.53455764 0.35976952
v 0.26168510 0.45387855 0.25941560
v 0.10130130 0.36100385 0.02347622
v 0.16746080 0.39552698 0.16130687
v 0.10933346 0.41909137 0.12515235
v -0.08694927 0.38316458 0.75849974
v -0.00579399 0.41099271 0.65697342
v -0.11649075 0.55745316 0.48361599
v -0.04808817 0.51585960 0.59838796
v -0.22037260 0.47434476 0.59071243
v 0.10012324 0.47668025 0.59731108
v 0.16048113 0.49197814 0.49195772
v -0.38268229 0.43746087 0.03232377
v -0.34222648 0.53500104 0.14551298
v -0.49946883 0.55607784 0.12317173
v -0.07936470 0.41313085 0.10137007
v -0.19683914 0.56239253 0.13371964
v -0.17418882 0.37998670 0.06183036
v -0.33494627 0.56574750 0.34570971
v -0.29932478 0.59355956 0.23251161
v -0.19632348 0.60533530 0.37107223
v 0.08842329 0.56011581 0.37827381
v -0.04757875 0.60668331 0.35786709
v 0.00004090 0.45690393 0.24209195
v 0.35284340 0.32159245 -0.12557776
v 0.44037184 0.47336394 -0.11999720
v 0.06659332 0.31714740 -0.12304689
v 0.19753209 0.29528689 -0.09983387
v 0.37135091 0.51419175 -0.32952675
v 0.28930888 0.37490094 -0.28660762
v 0.25610638 0.37463042 -0.38487449
v -0.46324790 0.47739807 -0.10313362
v -0.36807302 0.35879031 -0.10818758
v -0.25735584 0.27632874 -0.36608770
v -0.33736750 0.33870870 -0.24415979
v -0.38185632 0.36448818 -0.36897883
v -0.27000025 0.29419434 -0.07291391
v -0.14331609 0.33745417 -0.09277573
v 0.08199766 0.38704947 -0.76249659
v -0.00854814 0.46247315 -0.68874943
v -0.09754951 0.37446126 -0.78121215
v 0.14447938 0.46933815 -0.51273787
v 0.08784565 0.37979463 -0.61280113
v 0.24830069 0.46278888 -0.58138078
v -0.20709264 0.34080949 -0.61287898
v -0.08170491 0.50317121 -0.58329213
v -0.16750424 0.44187298 -0.45335689
v -0.02288157 0.31081516 -0.24984829
v -0.09120291 0.32618615 -0.37663883
v 0.06898674 0.35542208 -0.39217675
v 0.57827622 0.42744717 -0.15114124
v 0.60727865 0.37629378 -0.03467063
v 0.46276712 0.44290915 -0.39551836
v 0.54205763 0.45045584 -0.28712314
v 0.79712105 0.29016864 -0.21963431
v 0.67555636 0.37517709 -0.26019382
v 0.74849713 0.28541863 -0.36626804
v 0.14222766 0.28616950 -0.87614781
v 0.21784979 0.37232694 -0.78334123
v 0.47372058 0.25218430 -0.77565801
v 0.36719269 0.31271973 -0.77902275
v 0.38499430 0.15432560 -0.85851508
v 0.32387340 0.38410404 -0.67206860
v 0.38723528 0.40941694 -0.55256718
v 0.97589928 0.07547811 -0.55417699
v 0.89347124 0.04192113 -0.65945512
v 0.88475043 0.09960208 -0.71474266
v 0.81683338 0.18762189 -0.44850233
v 0.84926367 0.09657055 -0.53679264
v 0.90533847 0.10096820 -0.38150951
v 0.70061994 0.04815819 -0.82664663
v 0.78484434 0.11841077 -0.68486309
v 0.63349575 0.12811418 -0.72133613
v 0.51549369 0.36085716 -0.51486522
v 0.57521236 0.26649040 -0.63404590
v 0.66720629 0.26950100 -0.49498439
v 0.73362207 0.32580113 0.01738387
v 0.89398366 0.21389914 -0.15115370
v 0.82471365 0.28383654 -0.06620105
v 0.81433988 0.26093450 0.10004894
v 0.88907278 0.21847570 0.19445351
v 1.01168454 0.16479930 -0.47648126
v 1.04699469 0.07503895 -0.40393704
v 1.12736714 0.07692341 -0.07657498
v 1.09047139 0.07956610 -0.23874970
v 1.08716083 0.18556982 -0.16335689
v 1.00190759 0.00060200 -0.29735810
v 0.95052505 0.07900289 -0.23655327
v 1.02934396 0.07953483 0.42071325
v 1.02222490 0.18599451 0.45543629
v 0.92838311 0.08725543 0.29193881
v 0.98161334 0.00000000 0.35489529
v 1.09874094 0.16806611 0.14801826
v 1.06536400 0.05889647 0.26089349
v 1.09489715 0.08273270 0.09782806
v 0.95651430 0.12048531 -0.05178649
v 1.04968643 0.00000000 0.02628171
v 0.95434010 0.12613422 0.12533595
v 0.10037915 0.16903579 0.93830568
v 0.41335025 0.03013288 0.96468002
v 0.26395342 0.13080144 0.98750877
v 0.14237069 0.04226056 1.02997148
v 0.14963819 0.12020838 1.11706412
v 0.80261815 0.16562404 0.79489875
v 0.56278968 0.27658051 0.92220837
v 0.68593407 0.23006269 0.86410713
v 0.69742221 0.10614149 0.89734703
v 0.58153284 0.00109590 0.93384522
v 0.14192599 0.41404083 0.96301609
v 0.15754673 0.19973092 1.08845031
v 0.15005253 0.30375314 1.03056943
v 0.28409627 0.38050738 0.96421248
v 0.41378811 0.34039539 0.94865763
v 0.46545050 0.08285314 1.04456365
v 0.43577915 0.21604995 1.01721764
v 0.31070092 0.13237603 1.08927023
v -0.60106814 0.48045349 0.23155944
v -0.42957890 0.51549780 0.41535068
v -0.49746042 0.53471994 0.31582013
v -0.63166600 0.40410489 0.26814559
v -0.69533539 0.37080547 0.34829345
v -0.23047851 0.35487264 0.77571249
v -0.50565106 0.29870340 0.75932491
v -0.38351703 0.26916552 0.79246360
v -0.29723164 0.38837317 0.67759913
v -0.34962526 0.47360122 0.57090110
v -0.84090739 0.00437929 0.63269049
v -0.77656043 0.25752342 0.44681749
v -0.80189860 0.14545280 0.56267393
v -0.75610507 0.13555679 0.71003872
v -0.64374965 0.20798230 0.72130543
v -0.51160151 0.44451857 0.56249708
v -0.57767946 0.33276275 0.63768321
v -0.66970152 0.35700667 0.50732511
v -0.23289889 0.30734384 -0.77910012
v -0.38293031 0.38467824 -0.60498428
v -0.32559204 0.40288758 -0.70082837
v -0.32261318 0.25537798 -0.80541015
v -0.45269582 0.15725179 -0.75874138
v -0.54889756 0.46297723 -0.19453341
v -0.72445756 0.35047093 -0.36910212
v -0.64730054 0.42669424 -0.30375686
v -0.51672596 0.48189902 -0.33346272
v -0.45039949 0.45053834 -0.44332081
v -0.88259596 0.00000000 -0.62159032
v -0.63088703 0.11307641 -0.73244625
v -0.77613962 0.07343750 -0.70461637
v -0.82950330 0.09654546 -0.53377855
v -0.79950273 0.23149160 -0.46889740
v -0.51962149 0.38569769 -0.56843758
v -0.67072117 0.30156565 -0.51692820
v -0.57704175 0.23387428 -0.63813287
v 0.77918512 0.13614997 -0.79128796
v 0.58791763 0.09845837 -0.93757844
v 0.70275378 0.10133754 -0.87925261
v 0.66586518 0.21762104 -0.87382555
v 0.56052226 0.29391345 -0.91914582
v 0.15089622 0.16915306 -0.96077245
v 0.13910663 0.06182990 -1.09967709
v 0.15610115 0.04672935 -1.04904592
v 0.29051614 0.12335796 -0.95993501
v 0.40950373 0.01434539 -0.93204427
v 0.12730768 0.42128655 -0.96858299
v 0.39496902 0.32896155 -0.95583647
v 0.26430547 0.37858048 -0.97330493
v 0.12686855 0.30706945 -1.04004622
v 0.14441454 0.20421796 -1.09299862
v 0.43981770 0.08067346 -1.04680419
v 0.29553783 0.13527298 -1.07117367
v 0.43870261 0.22448470 -1.01745963
v 1.01437485 0.27709046 0.39020100
v 1.07500184 0.26433021 0.08084655
v 1.06064773 0.26977789 0.24006951
v 0.96889377 0.37468588 0.31351843
v 0.91928214 0.45571494 0.23440890
v 0.99115026 0.27388027 -0.42182669
v 0.90905821 0.45827928 -0.27232260
v 0.96264064 0.36520955 -0.34581763
v 1.03653634 0.28465757 -0.26616701
v 1.06385827 0.29928765 -0.10104565
v 0.68285203 0.68186176 -0.02182301
v 0.84032285 0.55868810 0.14658920
v 0.76671416 0.62533247 0.06209209
v 0.77116066 0.61065441 -0.09809948
v 0.84574533 0.54129022 -0.17371464
v 1.01271570 0.37027919 -0.00883413
v 0.93526483 0.45975202 -0.09870528
v 0.94585186 0.46623400 0.08386508
f 330 87 329
f 336 325 26
f 207 208 56
f 464 36 580
f 502 129 504
f 157 624 622
f 308 311 82
f 247 223 248
f 507 483 508
f 331 88 329
f 494 500 497
f 156 601 602
f 591 589 592
f 365 98 596
f 75 281 282
f 152 587 577
f 149 559 560
f 555 121 553
f 530 141 529
f 515 517 139
f 361 594 98
f 250 67 249
f 157 608 609
f 294 293 209
f 317 81 316
f 557 338 26
f 303 305 81
f 530 529 528
f 101 381 382
f 415 418 111
f 192 184 50
f 412 110 411
f 20 384 256
f 131 594 486
f 281 264 282
f 347 287 348
f 28 349 582
f 165 163 1
f 248 250 66
f 617 107 398
f 273 271 274
f 456 115 453
f 558 561 560
f 335 576 91
f 331 177 332
f 116 433 436
f 351 370 92
f 136 511 530
f 239 240 65
f 247 258 19
f 304 23 567
f 148 557 570
f 214 208 58
f 440 426 450
f 268 270 269
f 258 247 268
f 204 202 16
f 466 125 465
f 517 513 133
f 168 275 274
f 275 73 274
f 198 193 53
f 309 308 307
f 510 511 136
f 415 416 110
f 131 490 597
f 473 475 474
f 414 415 111
f 493 495 494
f 496 504 485
f 433 116 432
f 600 375 601
f 240 234 65
f 418 415 412
f 486 361 3
f 567 566 304
f 380 393 29
f 17 199 197
f 491 492 132
f 451 449 435
f 218 217 216
f 623 621 613
f 396 104 395
f 433 439 436
f 628 160 627
f 215 202 217
f 209 207 2
f 427 113 424
f 434 10 544
f 434 433 432
f 199 17 210
f 150 564 565
f 489 491 132
f 275 13 285
f 497 500 134
f 125 466 476
f 578 152 577
f 208 214 211
f 328 88 343
f 356 27 603
f 150 566 567
f 372 100 371
f 190 191 47
f 235 8 398
f 260 261 72
f 422 403 414
f 422 414 111
f 453 454 123
f 349 583 582
f 521 520 519
f 425 453 115
f 616 622 158
f 483 130 508
f 151 586 572
f 212 17 232
f 400 397 402
f 377 396 99
f 41 522 511
f 510 508 505
f 549 547 42
f 475 473 36
f 510 137 509
f 222 221 197
f 430 115 429
f 220 194 1
f 305 54 204
f 621 29 613
f 192 171 184
f 460 335 5
f 88 331 332
f 74 277 279
f 300 301 80
f 390 389 388
f 165 45 164
f 146 549 551
f 291 278 75
f 448 120 445
f 147 543 544
f 607 610 609
f 603 602 356
f 139 529 514
f 333 553 443
f 92 368 347
f 261 260 259
f 300 6 200
f 46 177 331
f 284 283 174
f 301 300 200
f 471 468 474
f 54 305 301
f 302 304 303
f 569 150 567
f 150 569 570
f 294 209 2
f 628 629 160
f 548 543 147
f 147 625 627
f 63 233 234
f 426 427 114
f 41 509 532
f 198 52 196
f 614 105 612
f 147 627 547
f 81 305 306
f 549 548 547
f 54 301 200
f 342 88 332
f 264 281 70
f 193 194 53
f 455 429 456
f 187 321 14
f 479 130 484
f 147 544 625
f 458 456 453
f 304 80 303
f 314 84 313
f 488 503 501
f 321 332 14
f 423 425 424
f 305 204 306
f 341 339 25
f 514 40 516
f 625 628 627
f 340 339 341
f 105 614 391
f 243 228 62
f 318 316 78
f 75 278 279
f 357 355 353
f 238 257 63
f 466 455 476
f 425 423 4
f 448 449 120
f 408 638 108
f 292 275 285
f 22 278 289
f 515 513 517
f 501 503 134
f 622 623 158
f 134 503 504
f 195 216 206
f 163 271 246
f 619 617 620
f 62 228 229
f 163 165 164
f 453 425 454
f 489 132 488
f 82 628 625
f 58 208 209
f 525 608 40
f 626 547 627
f 518 517 498
f 489 487 491
f 557 26 564
f 325 336 344
f 541 145 539
f 40 616 516
f 338 556 89
f 250 248 245
f 139 514 515
f 98 594 596
f 246 220 1
f 112 413 630
f 9 536 413
f 156 600 601
f 332 177 14
f 321 342 332
f 156 606 600
f 584 330 585
f 302 303 81
f 584 87 330
f 330 25 585
f 400 239 65
f 439 440 117
f 95 358 368
f 597 594 131
f 594 361 486
f 246 67 245
f 561 562 149
f 28 364 362
f 55 216 217
f 427 430 114
f 267 20 254
f 556 555 553
f 84 309 558
f 311 310 312
f 609 525 142
f 256 68 255
f 124 460 461
f 82 311 312
f 307 308 82
f 589 135 495
f 527 40 514
f 112 418 412
f 20 256 254
f 258 238 19
f 267 254 269
f 273 272 249
f 392 391 393
f 137 533 509
f 122 455 456
f 9 413 411
f 130 480 505
f 333 443 5
f 527 525 40
f 589 495 385
f 39 496 485
f 223 225 224
f 414 416 415
f 219 222 53
f 145 538 539
f 413 412 411
f 469 468 467
f 183 181 6
f 191 192 50
f 429 35 431
f 292 285 76
f 413 112 412
f 415 110 412
f 43 164 167
f 467 468 126
f 617 101 620
f 450 451 117
f 438 546 545
f 619 620 159
f 17 212 210
f 124 579 576
f 584 153 583
f 460 124 576
f 3 469 467
f 311 308 314
f 6 320 183
f 389 104 388
f 251 250 249
f 194 165 1
f 291 289 278
f 287 77 348
f 238 258 257
f 139 517 518
f 238 236 19
f 223 247 19
f 382 380 29
f 39 518 498
f 361 359 3
f 69 255 257
f 139 518 528
f 33 545 535
f 387 385 7
f 69 268 269
f 477 462 125
f 454 479 123
f 121 555 447
f 451 435 117
f 454 425 4
f 233 252 8
f 124 463 464
f 69 258 268
f 168 167 166
f 583 153 582
f 384 394 102
f 138 512 513
f 57 210 211
f 254 256 255
f 607 609 142
f 324 319 86
f 289 291 76
f 291 292 76
f 384 102 383
f 422 421 420
f 221 17 197
f 383 102 381
f 376 377 99
f 99 373 374
f 386 105 392
f 438 33 440
f 90 341 343
f 281 75 279
f 574 571 96
f 628 82 312
f 221 222 59
f 127 471 474
f 595 605 603
f 551 538 145
f 334 91 340
f 322 324 85
f 305 303 301
f 18 239 399
f 306 204 16
f 199 198 197
f 166 190 180
f 303 80 301
f 267 266 265
f 626 42 547
f 16 215 213
f 349 351 350
f 295 16 213
f 68 379 252
f 250 251 66
f 627 160 626
f 383 68 256
f 343 88 342
f 507 508 136
f 202 215 16
f 197 198 53
f 254 69 269
f 603 605 156
f 418 419 111
f 384 383 256
f 455 122 476
f 203 204 54
f 556 557 148
f 255 68 253
f 313 84 560
f 25 328 341
f 254 255 69
f 603 156 602
f 581 584 583
f 630 632 112
f 163 246 1
f 246 245 220
f 432 116 558
f 499 591 590
f 320 563 86
f 345 93 350
f 306 16 295
f 346 93 345
f 562 568 149
f 604 605 155
f 154 592 593
f 545 552 535
f 511 522 530
f 574 573 571
f 566 150 565
f 361 98 360
f 67 271 273
f 234 235 65
f 208 211 56
f 574 151 573
f 251 270 66
f 398 8 378
f 213 215 214
f 438 440 439
f 315 314 313
f 263 71 262
f 20 373 384
f 496 134 504
f 329 88 328
f 81 306 316
f 555 556 148
f 592 589 103
f 617 619 107
f 227 207 56
f 571 359 96
f 446 466 465
f 206 216 55
f 359 571 469
f 568 148 570
f 34 437 435
f 28 351 349
f 21 272 282
f 113 423 424
f 490 489 488
f 379 68 383
f 210 212 211
f 80 563 300
f 351 92 350
f 326 346 12
f 83 317 318
f 555 148 554
f 212 231 56
f 218 57 217
f 271 67 246
f 195 196 52
f 270 268 66
f 390 592 103
f 148 568 554
f 495 493 7
f 592 390 593
f 357 95 355
f 574 575 151
f 452 120 451
f 154 591 592
f 587 585 577
f 395 394 396
f 93 349 350
f 610 416 611
f 166 44 190
f 315 23 302
f 315 302 317
f 268 247 66
f 606 154 593
f 396 394 99
f 211 212 56
f 370 369 368
f 235 397 65
f 280 278 22
f 83 315 317
f 575 588 151
f 74 279 280
f 385 495 7
f 63 257 253
f 397 235 398
f 214 58 213
f 220 219 194
f 546 146 545
f 236 225 19
f 599 94 602
f 235 233 8
f 102 394 395
f 611 416 32
f 225 223 19
f 139 528 529
f 231 62 229
f 419 406 421
f 451 450 452
f 49 182 185
f 402 397 107
f 52 199 218
f 416 610 110
f 225 236 244
f 107 397 398
f 68 252 253
f 322 85 321
f 182 181 183
f 118 438 439
f 546 438 118
f 348 77 345
f 543 546 118
f 231 212 232
f 610 611 157
f 33 438 545
f 385 386 103
f 479 480 130
f 169 195 15
f 93 583 349
f 15 195 206
f 190 44 192
f 247 248 66
f 146 552 545
f 248 60 245
f 570 557 564
f 274 271 43
f 63 253 233
f 272 21 249
f 507 528 518
f 67 273 249
f 487 467 126
f 196 195 169
f 624 159 623
f 134 496 497
f 132 503 488
f 104 393 395
f 556 553 89
f 355 356 94
f 258 69 257
f 229 61 227
f 56 231 227
f 460 576 335
f 463 124 461
f 394 373 99
f 29 393 391
f 67 250 245
f 193 198 196
f 462 36 464
f 144 633 630
f 141 526 527
f 517 133 498
f 536 144 630
f 100 372 599
f 144 536 537
f 22 289 287
f 578 579 152
f 579 578 576
f 189 188 187
f 60 223 224
f 92 348 350
f 555 554 447
f 396 377 388
f 194 193 165
f 413 536 630
f 372 352 599
f 377 376 375
f 348 345 350
f 105 386 387
f 240 237 234
f 463 462 464
f 135 500 494
f 45 196 169
f 512 612 387
f 245 60 220
f 429 115 456
f 223 60 248
f 288 289 76
f 525 526 142
f 100 599 601
f 613 29 391
f 526 523 520
f 341 328 343
f 631 641 639
f 264 21 282
f 266 72 265
f 106 402 403
f 73 273 274
f 186 206 205
f 381 379 383
f 52 216 195
f 410 18 399
f 290 272 73
f 72 371 374
f 526 525 527
f 115 430 424
f 498 497 496
f 621 382 29
f 543 118 434
f 214 215 57
f 522 141 530
f 511 510 509
f 352 94 599
f 493 512 7
f 90 340 341
f 169 171 170
f 605 604 606
f 219 60 224
f 104 389 392
f 359 469 3
f 186 49 185
f 222 219 224
f 166 167 44
f 428 427 426
f 523 522 524
f 129 502 481
f 50 185 188
f 164 45 170
f 425 115 424
f 33 428 426
f 427 428 113
f 94 356 602
f 515 138 513
f 114 431 452
f 237 236 238
f 215 217 57
f 95 354 355
f 220 60 219
f 515 514 516
f 183 320 319
f 222 197 53
f 559 569 567
f 300 320 6
f 435 436 117
f 96 360 363
f 640 642 641
f 242 243 62
f 140 537 519
f 508 130 505
f 420 410 399
f 537 539 144
f 317 316 318
f 426 114 450
f 186 15 206
f 311 83 310
f 625 544 307
f 544 10 307
f 168 43 167
f 185 182 188
f 369 354 95
f 44 171 192
f 605 606 156
f 548 549 146
f 100 601 375
f 149 568 569
f 381 380 382
f 455 466 35
f 480 479 454
f 543 548 546
f 493 133 513
f 492 472 37
f 477 125 476
f 491 487 126
f 337 336 338
f 588 153 587
f 576 578 91
f 633 161 632
f 96 359 360
f 39 485 483
f 101 617 378
f 193 45 165
f 163 164 43
f 618 624 611
f 507 136 528
f 561 149 560
f 641 162 639
f 116 561 558
f 494 133 493
f 253 252 233
f 63 237 238
f 392 393 104
f 440 450 117
f 93 581 583
f 386 385 387
f 120 449 451
f 421 422 111
f 486 3 467
f 302 81 317
f 633 632 630
f 462 475 36
f 376 99 374
f 489 490 131
f 447 449 448
f 387 612 105
f 106 420 399
f 173 46 172
f 492 491 472
f 316 306 295
f 22 287 347
f 109 410 420
f 507 39 483
f 559 23 313
f 214 57 211
f 196 45 193
f 10 434 432
f 422 106 403
f 626 160 640
f 487 486 467
f 542 41 532
f 400 106 399
f 444 120 452
f 198 199 52
f 475 127 474
f 621 620 382
f 621 623 159
f 450 114 452
f 92 347 348
f 376 100 375
f 434 118 433
f 503 132 502
f 337 90 336
f 537 536 519
f 395 393 380
f 201 54 200
f 171 44 170
f 355 94 353
f 58 296 213
f 422 420 106
f 595 365 596
f 569 568 570
f 523 140 520
f 114 430 431
f 218 210 57
f 304 566 80
f 639 162 638
f 261 371 72
f 548 147 547
f 498 133 497
f 150 570 564
f 222 224 59
f 142 526 520
f 437 436 435
f 141 522 523
f 137 510 505
f 173 179 176
f 559 149 569
f 121 447 448
f 563 320 300
f 102 395 380
f 257 255 253
f 642 162 641
f 83 311 314
f 216 52 218
f 512 493 513
f 23 304 302
f 91 339 340
f 512 138 612
f 159 620 621
f 218 199 210
f 364 28 575
f 83 318 310
f 168 274 43
f 136 530 528
f 140 523 524
f 495 135 494
f 233 235 234
f 566 563 80
f 25 339 577
f 277 74 276
f 475 462 477
f 133 494 497
f 436 437 116
f 389 386 392
f 548 146 546
f 441 460 5
f 10 309 307
f 65 397 400
f 543 434 544
f 640 641 161
f 272 273 73
f 581 93 346
f 419 421 111
f 319 320 86
f 180 179 178
f 127 475 477
f 231 229 227
f 337 334 340
f 136 508 510
f 308 309 84
f 237 63 234
f 447 554 34
f 252 379 378
f 315 83 314
f 608 622 616
f 338 336 26
f 337 338 89
f 13 275 168
f 209 208 207
f 436 439 117
f 628 312 629
f 360 366 363
f 364 574 96
f 359 361 360
f 466 446 35
f 500 501 134
f 406 109 421
f 135 589 591
f 601 599 602
f 340 90 337
f 481 492 37
f 522 41 524
f 78 316 295
f 131 486 487
f 403 32 414
f 634 626 640
f 151 572 573
f 515 516 138
f 8 252 378
f 265 72 374
f 9 521 519
f 538 549 42
f 368 358 347
f 588 587 586
f 458 453 123
f 589 385 103
f 502 492 481
f 32 416 414
f 430 427 424
f 153 585 587
f 540 144 539
f 370 368 92
f 209 293 58
f 428 33 535
f 326 581 346
f 625 307 82
f 575 28 582
f 6 181 200
f 421 109 420
f 553 121 443
f 160 642 640
f 153 584 585
f 309 432 558
f 334 337 89
f 23 315 313
f 271 163 43
f 296 295 213
f 39 498 496
f 118 439 433
f 531 113 534
f 293 296 58
f 28 362 351
f 489 131 487
f 431 444 452
f 84 558 560
f 98 366 360
f 45 169 170
f 379 101 378
f 462 463 125
f 308 84 314
f 10 432 309
f 299 24 310
f 132 492 502
f 512 387 7
f 639 638 408
f 565 323 86
f 59 244 242
f 106 400 402
f 440 33 426
f 566 565 563
f 617 398 378
f 224 225 59
f 410 109 409
f 239 400 399
f 194 219 53
f 358 22 347
f 610 157 609
f 27 595 603
f 479 484 482
f 142 520 521
f 585 25 577
f 339 578 577
f 408 407 406
f 407 109 406
f 31 408 406
f 407 408 108
f 31 639 408
f 419 31 406
f 608 616 40
f 430 429 431
f 455 35 429
f 35 444 431
f 188 51 187
f 188 182 51
f 51 322 187
f 322 51 319
f 51 182 183
f 319 51 183
f 187 322 321
f 322 319 324
f 381 101 379
f 405 407 108
f 404 405 108
f 286 285 178
f 407 405 409
f 109 407 409
f 191 175 47
f 167 164 170
f 50 184 185
f 44 167 170
f 64 244 236
f 243 244 64
f 50 188 189
f 541 542 145
f 442 445 119
f 339 91 578
f 445 446 119
f 624 623 622
f 611 624 157
f 523 526 141
f 141 527 529
f 527 514 529
f 445 120 444
f 446 445 444
f 35 446 444
f 613 614 158
f 158 614 615
f 623 613 158
f 614 613 391
f 614 612 615
f 371 376 374
f 100 376 371
f 479 482 123
f 373 394 384
f 540 42 634
f 633 540 634
f 538 42 540
f 633 634 161
f 161 634 640
f 42 626 634
f 540 633 144
f 557 556 338
f 553 333 89
f 262 21 264
f 251 21 262
f 5 335 333
f 270 251 262
f 21 251 249
f 600 593 30
f 606 593 600
f 600 30 375
f 593 390 30
f 30 377 375
f 390 388 30
f 30 388 377
f 228 243 241
f 470 478 459
f 470 127 478
f 127 477 478
f 184 186 185
f 478 477 476
f 122 478 476
f 357 74 280
f 518 39 507
f 344 342 85
f 325 344 85
f 342 344 343
f 85 342 321
f 344 90 343
f 90 344 336
f 482 129 481
f 482 481 457
f 482 457 123
f 481 37 457
f 449 447 34
f 435 449 34
f 470 472 471
f 472 470 37
f 470 471 127
f 472 126 471
f 126 468 471
f 470 459 37
f 491 126 472
f 504 129 485
f 221 59 242
f 125 463 465
f 437 34 562
f 561 437 562
f 554 568 562
f 34 554 562
f 437 561 116
f 390 103 389
f 103 386 389
f 392 105 391
f 572 586 580
f 572 580 36
f 586 152 580
f 473 572 36
f 244 243 242
f 225 244 59
f 64 240 241
f 240 239 241
f 237 240 64
f 243 64 241
f 236 237 64
f 411 607 521
f 9 411 521
f 110 607 411
f 607 142 521
f 610 607 110
f 171 15 184
f 171 169 15
f 15 186 184
f 87 584 581
f 153 588 582
f 588 575 582
f 381 102 380
f 573 572 473
f 468 469 128
f 474 468 128
f 469 571 128
f 571 573 128
f 573 473 128
f 473 474 128
f 564 323 565
f 26 323 564
f 323 324 86
f 325 323 26
f 325 324 323
f 563 565 86
f 324 325 85
f 410 230 18
f 230 228 18
f 18 228 241
f 18 241 239
f 401 619 618
f 401 402 107
f 403 402 401
f 619 159 618
f 401 618 32
f 619 401 107
f 403 401 32
f 618 611 32
f 159 624 618
f 478 122 459
f 122 458 459
f 37 459 457
f 459 458 457
f 122 456 458
f 457 458 123
f 191 190 192
f 485 129 484
f 129 482 484
f 483 485 484
f 130 483 484
f 189 187 14
f 191 50 189
f 191 189 175
f 189 14 175
f 14 177 175
f 499 501 500
f 501 499 38
f 38 499 590
f 135 499 500
f 488 501 38
f 499 135 591
f 480 454 4
f 284 12 346
f 4 423 506
f 480 4 506
f 423 531 506
f 480 506 505
f 531 137 506
f 506 137 505
f 365 366 98
f 71 270 262
f 270 71 269
f 71 267 269
f 335 334 333
f 333 334 89
f 334 335 91
f 536 9 519
f 465 463 461
f 537 140 541
f 520 140 519
f 119 446 465
f 465 461 119
f 461 441 119
f 460 441 461
f 176 46 173
f 299 297 24
f 71 263 266
f 263 260 266
f 260 72 266
f 263 70 260
f 205 201 49
f 201 181 49
f 186 205 49
f 181 201 200
f 181 182 49
f 284 77 283
f 586 587 152
f 588 586 151
f 20 267 265
f 266 267 71
f 31 417 631
f 631 417 632
f 31 631 639
f 417 31 419
f 641 631 161
f 417 112 632
f 161 631 632
f 418 417 419
f 417 418 112
f 284 345 77
f 542 550 145
f 542 541 524
f 284 174 12
f 48 174 283
f 373 20 265
f 373 265 374
f 609 608 525
f 608 157 622
f 560 559 313
f 636 637 162
f 541 140 524
f 41 542 524
f 358 357 280
f 70 263 264
f 263 262 264
f 176 177 46
f 174 48 173
f 174 173 172
f 538 551 549
f 538 540 539
f 537 541 539
f 232 221 242
f 17 221 232
f 232 242 62
f 231 232 62
f 203 205 55
f 203 55 202
f 201 205 203
f 202 55 217
f 205 206 55
f 204 203 202
f 73 275 292
f 292 290 73
f 272 290 282
f 290 292 291
f 75 290 291
f 290 75 282
f 70 277 259
f 277 70 281
f 277 281 279
f 260 70 259
f 12 174 172
f 104 396 388
f 367 27 354
f 365 27 367
f 354 27 356
f 365 367 366
f 595 27 365
f 318 299 310
f 155 596 597
f 155 597 598
f 596 594 597
f 595 596 155
f 605 595 155
f 180 47 179
f 180 190 47
f 352 372 11
f 11 372 261
f 312 310 24
f 642 636 162
f 636 297 637
f 367 369 97
f 366 367 97
f 369 367 354
f 369 370 97
f 580 579 464
f 580 152 579
f 579 124 464
f 61 230 409
f 230 410 409
f 230 61 229
f 230 229 228
f 76 285 286
f 353 352 276
f 74 353 276
f 288 76 286
f 288 286 283
f 289 288 287
f 203 54 201
f 287 288 77
f 77 288 283
f 286 48 283
f 531 423 113
f 276 11 259
f 11 261 259
f 277 276 259
f 616 158 615
f 516 616 615
f 138 516 615
f 138 615 612
f 509 533 532
f 503 502 504
f 635 79 294
f 635 294 404
f 635 637 79
f 637 635 638
f 638 635 108
f 635 404 108
f 226 61 405
f 61 226 227
f 405 61 409
f 227 226 207
f 48 178 179
f 48 286 178
f 173 48 179
f 534 143 533
f 534 535 143
f 531 534 533
f 533 143 532
f 137 531 533
f 261 372 371
f 13 180 178
f 285 13 178
f 180 13 166
f 13 168 166
f 346 345 284
f 331 327 46
f 46 327 172
f 172 327 326
f 382 620 101
f 442 121 448
f 443 121 442
f 2 226 404
f 294 2 404
f 404 226 405
f 207 226 2
f 550 551 145
f 552 146 551
f 143 550 532
f 552 550 143
f 330 329 328
f 24 636 629
f 94 352 353
f 352 11 276
f 113 428 534
f 428 535 534
f 509 41 511
f 535 552 143
f 550 552 551
f 550 542 532
f 369 95 368
f 326 327 87
f 87 327 329
f 327 331 329
f 581 326 87
f 293 79 298
f 79 297 298
f 296 298 78
f 79 293 294
f 296 293 298
f 598 490 38
f 358 280 22
f 280 279 278
f 357 358 95
f 74 357 353
f 330 328 25
f 567 23 559
f 590 598 38
f 590 604 598
f 598 604 155
f 604 590 154
f 590 591 154
f 604 154 606
f 297 299 298
f 299 318 78
f 298 299 78
f 355 354 356
f 629 636 642
f 312 24 629
f 629 642 160
f 370 362 97
f 362 363 97
f 363 366 97
f 364 363 362
f 362 370 351
f 96 363 364
f 297 636 24
f 162 637 638
f 637 297 79
f 490 488 38
f 598 597 490
f 441 442 119
f 443 442 441
f 443 441 5
f 442 448 445
f 296 78 295
f 326 12 172
f 575 574 364
f 47 175 176
f 175 177 176
f 47 176 179
