# FEM surface export ¡ª frame 323
# Vertices: 642  Faces: 1280
v -0.52500319 1.36824977 -0.00016369
v 0.52510762 1.36634278 0.00071641
v -0.61561102 0.00000000 -0.01158935
v 0.59861499 0.00008048 -0.00603350
v 0.00307401 0.09101442 0.93498981
v -0.00109733 1.06385601 0.85976470
v 0.00012020 0.09297575 -0.93859136
v -0.00016669 1.06182647 -0.85855317
v 0.88852894 0.57022429 -0.55022001
v 0.88801628 0.57116407 0.54917186
v -0.88794017 0.56955779 -0.54985064
v -0.88584828 0.57181132 0.54825354
v -0.81786889 1.03769803 0.31242931
v -0.50984734 0.86034608 0.82663357
v -0.30907777 1.32768750 0.49937466
v 0.30917308 1.32735276 0.50055552
v 0.00028131 1.50911999 0.00022579
v 0.30913451 1.32763040 -0.49951279
v -0.30892202 1.32870150 -0.49976873
v -0.51184160 0.85793960 -0.82618785
v -0.81812942 1.03849232 -0.31269109
v -1.04237676 0.56684369 -0.00114704
v 0.51126236 0.86070532 0.82841933
v 0.81824344 1.03603327 0.31232959
v -0.53512466 0.28647575 0.86974561
v 0.00015143 0.56899655 1.04399240
v -0.89139998 0.11324034 -0.33749753
v -0.88826191 0.11733583 0.34404898
v -0.00224946 0.57097316 -1.04374492
v -0.53451228 0.28282684 -0.86628461
v 0.81887108 1.03618968 -0.31230375
v 0.50971508 0.85801077 -0.82659382
v 0.88679636 0.11404097 0.33873639
v 0.53850830 0.28376940 0.86830324
v 0.35204726 0.00000000 0.57624793
v -0.36948296 0.00000000 0.57986647
v -0.00598381 0.00000000 0.00481787
v -0.35687417 0.00000000 -0.56883717
v 0.35682067 0.00000000 -0.57034183
v 0.53931653 0.28395474 -0.87027848
v 0.89407963 0.11316872 -0.33789670
v 1.04615152 0.57011431 -0.00128235
v -0.69507831 1.22760344 0.16079576
v -0.58947724 1.21490002 0.42637226
v -0.43324032 1.37876070 0.25909096
v -0.72139877 0.72193837 0.71500689
v -0.69831944 0.96829748 0.59635377
v -0.88289291 0.81334239 0.44379675
v -0.16148257 1.21936560 0.70375878
v -0.42867023 1.12084293 0.69247639
v -0.26384014 0.97781909 0.87606031
v -0.16159913 1.46229720 0.26213431
v -0.27192223 1.47305143 0.00016526
v 0.16040708 1.21839893 0.70416725
v 0.00004514 1.36625087 0.52516603
v 0.27238050 1.47245347 0.00048469
v 0.16262770 1.46252477 0.26272276
v 0.43365368 1.37754834 0.26007116
v -0.16170724 1.46263468 -0.26190236
v -0.43317902 1.37968075 -0.25937289
v 0.43347701 1.37850308 -0.25923970
v 0.16203350 1.46267629 -0.26199454
v -0.16068263 1.21819234 -0.70319492
v 0.00079782 1.36684597 -0.52487749
v 0.16147047 1.21808958 -0.70396113
v -0.58989400 1.21441329 -0.42628801
v -0.69539225 1.22735262 -0.16129351
v -0.26431087 0.97496206 -0.87412292
v -0.42816129 1.11993885 -0.69266564
v -0.88414490 0.81369376 -0.44530866
v -0.69808209 0.96818119 -0.59638590
v -0.72477323 0.71987295 -0.71574527
v -0.85889369 1.06257570 -0.00016828
v -1.00428295 0.56822455 -0.28629789
v -0.97648031 0.81624007 -0.16797349
v -0.97378689 0.81548989 0.16500820
v -1.00237429 0.56735229 0.28346321
v 0.58985275 1.21143293 0.42708716
v 0.69507629 1.22535563 0.16113794
v 0.26315632 0.97558045 0.87658221
v 0.42755273 1.11878574 0.69305670
v 0.88429111 0.81281900 0.44459540
v 0.69908756 0.96782279 0.59705865
v 0.72491848 0.72220516 0.71495610
v -0.27036828 0.72254455 0.98154473
v -0.00089323 0.82692236 0.98668820
v -0.74057007 0.42296946 0.73336405
v -0.54579097 0.57203805 0.88683707
v 0.00258053 0.31226945 1.02798629
v -0.27601188 0.41749001 1.00720048
v -0.28133875 0.16754103 0.93861192
v -1.01326120 0.32111269 0.17365509
v -0.91999853 0.32972825 0.46335578
v -0.91808897 0.32634762 -0.46331784
v -1.01439452 0.32298291 -0.17503960
v -0.79400754 0.00000000 0.18758629
v -0.93963963 0.09416670 0.00283334
v -0.79281980 0.00000000 -0.18054388
v -0.54920608 0.56880915 -0.88728929
v -0.73973131 0.41617528 -0.73132110
v -0.00141110 0.82616669 -0.98500383
v -0.27263343 0.72230905 -0.98208201
v -0.28271833 0.16929279 -0.94058484
v -0.27772757 0.41664776 -1.00479650
v 0.00003869 0.31768551 -1.02796710
v 0.42878926 1.11766243 -0.69208455
v 0.26402909 0.97413766 -0.87481421
v 0.69534689 1.22505510 -0.16053300
v 0.59016752 1.21165156 -0.42496991
v 0.72357303 0.72009480 -0.71724784
v 0.69909239 0.96694350 -0.59698242
v 0.88543761 0.81282383 -0.44617182
v 0.78883421 0.00000000 0.18508577
v 0.66445947 0.00000000 0.48525754
v 0.50054353 0.00000000 0.29777381
v 0.74411154 0.42254683 0.73612958
v 0.74625117 0.17631979 0.63953525
v 0.91992962 0.32753149 0.46386746
v 0.18388122 0.00000000 0.79630095
v 0.47395658 0.04365917 0.76872259
v 0.28236139 0.17232437 0.94024205
v 0.17314035 0.00000000 0.29879287
v 0.30862156 0.00000000 -0.00442255
v -0.17760316 0.00000000 0.80080682
v -0.00756553 0.00000000 0.61314398
v -0.31443107 0.00000000 0.00129657
v -0.19304419 0.00000000 0.29662555
v -0.51746875 0.00000000 0.29642019
v 0.18417354 0.00000000 -0.29675502
v 0.47392175 0.00000000 -0.28615907
v -0.48693487 0.00000000 -0.30723077
v -0.18167689 0.00000000 -0.29684520
v 0.18095075 0.00000000 -0.79594725
v -0.00565281 0.00000000 -0.60663003
v -0.17941847 0.00000000 -0.79904139
v 0.66922009 0.00000000 -0.47987002
v 0.78522962 0.00000000 -0.18354131
v 0.28389534 0.17178246 -0.94021863
v 0.47264391 0.05319943 -0.77072024
v 0.92141867 0.32508552 -0.46215338
v 0.75018364 0.17729217 -0.64005679
v 0.74415386 0.42018285 -0.73506129
v 0.94095707 0.09662919 0.00046330
v 1.00564849 0.56963998 -0.28789580
v 1.01492047 0.32613754 -0.17420459
v 1.01574028 0.32713699 0.17460866
v 1.00350070 0.56925005 0.28485623
v 0.27921370 0.41927376 1.00385880
v 0.54902697 0.57380271 0.88788158
v 0.27007428 0.72305793 0.98213780
v -0.66882783 0.00095075 0.49076134
v -0.47540513 0.04509871 0.77051038
v -0.74983782 0.18470353 0.64258629
v -0.47405738 0.04205671 -0.76958472
v -0.67228156 0.00000000 -0.48899907
v -0.74627090 0.17212690 -0.63753855
v 0.54717863 0.56917471 -0.88750952
v 0.27755642 0.42223400 -1.00741243
v 0.26992589 0.72175694 -0.98175174
v 0.97547328 0.81419253 0.16567948
v 0.97519064 0.81440187 -0.16633210
v 0.85920078 1.06034672 0.00027812
v -0.61533755 1.30468750 0.08115202
v -0.57053012 1.31291568 0.21263549
v -0.48311850 1.38129795 0.13082278
v -0.71217656 1.13317966 0.37346873
v -0.64854717 1.22807634 0.29638147
v -0.76306015 1.13767433 0.23781469
v -0.37464747 1.36091518 0.38279849
v -0.51575816 1.30364180 0.34590909
v -0.45430464 1.27998519 0.46817476
v -0.81047386 0.64788014 0.63775057
v -0.81288773 0.77093452 0.58673155
v -0.89211184 0.69397944 0.49952692
v -0.61163491 0.91888148 0.71977580
v -0.71692073 0.84804732 0.66151786
v -0.62086654 0.79275626 0.77737480
v -0.85778189 0.92852283 0.38083315
v -0.79819864 0.89449394 0.52518123
v -0.76769722 1.00878835 0.45935750
v -0.08220898 1.14707887 0.78820658
v -0.21513358 1.10512412 0.79880166
v -0.13334666 1.02478385 0.87629414
v -0.37264931 1.23210728 0.60225308
v -0.29771790 1.17666578 0.70507747
v -0.23737229 1.27997005 0.60681450
v -0.39017364 0.92306072 0.85932803
v -0.35013789 1.05441523 0.79153204
v -0.47495341 0.99651480 0.76821959
v -0.65191823 1.09876668 0.51764882
v -0.57065153 1.05149198 0.65309089
v -0.51551831 1.17574596 0.56618899
v -0.35692972 1.43708885 0.13130848
v -0.40187144 1.42835927 0.00021500
v -0.23801368 1.40556180 0.38522732
v -0.30053157 1.42897630 0.26334444
v -0.13717523 1.50108111 0.00017676
v -0.21903560 1.47695005 0.13247265
v -0.08165868 1.49770284 0.13279031
v 0.08090085 1.14615393 0.78798586
v -0.00031308 1.22763681 0.71218169
v 0.15594897 1.35587358 0.51868898
v 0.08095755 1.29983437 0.61965930
v 0.23675674 1.27867544 0.60764551
v -0.08097571 1.29976940 0.61981463
v -0.15613176 1.35739541 0.51849961
v 0.40281087 1.42726672 0.00065153
v 0.35764551 1.43602383 0.13207549
v 0.48362973 1.37981987 0.13137476
v 0.08233711 1.49708128 0.13292871
v 0.21977371 1.47691727 0.13306302
v 0.13769914 1.50048482 0.00035233
v 0.37529683 1.35986364 0.38374949
v 0.30103821 1.42905366 0.26403075
v 0.23826931 1.40440214 0.38598126
v -0.08197337 1.42628658 0.39897174
v 0.08187663 1.42558324 0.39853689
v 0.00020292 1.47479320 0.26551297
v -0.35695350 1.43724811 -0.13118312
v -0.48335946 1.38139474 -0.13078845
v -0.08173709 1.49782956 -0.13238572
v -0.21918117 1.47794473 -0.13226318
v -0.37449491 1.36144531 -0.38297728
v -0.30029872 1.43008029 -0.26307389
v -0.23792620 1.40604973 -0.38515171
v 0.48394692 1.38078749 -0.13038141
v 0.35777020 1.43730748 -0.13083625
v 0.23843481 1.40580809 -0.38524193
v 0.30063689 1.42959118 -0.26314074
v 0.37485451 1.36080313 -0.38283321
v 0.21945590 1.47744119 -0.13194515
v 0.08201171 1.49771965 -0.13244297
v -0.08124874 1.14557338 -0.78788352
v 0.00051972 1.22703052 -0.71291578
v 0.08202197 1.14448309 -0.78792089
v -0.15579456 1.35717058 -0.51821172
v -0.08067662 1.30018270 -0.61992651
v -0.23702160 1.27984071 -0.60683316
v 0.23767184 1.27961314 -0.60728675
v 0.08158208 1.30003941 -0.62041318
v 0.15644519 1.35691333 -0.51835728
v 0.00008097 1.47487330 -0.26529220
v 0.08237052 1.42643142 -0.39813757
v -0.08169509 1.42665255 -0.39849702
v -0.57104504 1.31310165 -0.21326883
v -0.61579108 1.30495381 -0.08115491
v -0.45451492 1.27992880 -0.46875718
v -0.51628238 1.30509591 -0.34643948
v -0.76362574 1.13840842 -0.23877038
v -0.64932138 1.22794890 -0.29685569
v -0.71202093 1.13332963 -0.37406421
v -0.13317874 1.02367806 -0.87445825
v -0.21452466 1.10386634 -0.79834509
v -0.47469333 0.99414593 -0.76727384
v -0.34964505 1.05210006 -0.79095179
v -0.39132372 0.92025715 -0.85771376
v -0.29741004 1.17558944 -0.70566797
v -0.37269840 1.23232591 -0.60285556
v -0.89426720 0.69283861 -0.50175315
v -0.81534284 0.77040136 -0.58784938
v -0.81326389 0.64488494 -0.63894582
v -0.76729923 1.00872278 -0.46009961
v -0.79876041 0.89483458 -0.52613807
v -0.85901034 0.92964870 -0.38208845
v -0.62383044 0.79054356 -0.77806908
v -0.71893507 0.84731525 -0.66181695
v -0.61281210 0.91671777 -0.71966410
v -0.51573277 1.17513144 -0.56708926
v -0.57037061 1.04965937 -0.65347862
v -0.65158594 1.09795833 -0.51723456
v -0.70449507 1.23661113 -0.00006494
v -0.84917128 1.05673921 -0.15868083
v -0.78453779 1.15058124 -0.08197855
v -0.78396386 1.15042162 0.08105891
v -0.84788871 1.05612457 0.15788066
v -0.95496547 0.56970650 -0.42156798
v -0.95509732 0.69242853 -0.37088728
v -1.02012312 0.69345921 -0.08605433
v -0.99840409 0.69336188 -0.22872470
v -1.03300238 0.56860501 -0.14509833
v -0.93933958 0.81748074 -0.30958897
v -0.90694433 0.93173432 -0.24332552
v -0.95443362 0.69273371 0.36852267
v -0.95416594 0.56983715 0.42041495
v -0.90593445 0.93123561 0.24212581
v -0.93808675 0.81755275 0.30764678
v -1.03300345 0.56870580 0.14266291
v -0.99803162 0.69374788 0.22615559
v -1.02124929 0.69354701 0.08329509
v -0.92904907 0.94478416 -0.08424114
v -0.98853892 0.81945193 -0.00045382
v -0.92852175 0.94456309 0.08306610
v 0.57104421 1.31150317 0.21352962
v 0.61514139 1.30214477 0.08137629
v 0.45461953 1.27764344 0.46956113
v 0.51640028 1.30211139 0.34675369
v 0.76323462 1.13574851 0.23888235
v 0.64903575 1.22620022 0.29719883
v 0.71228361 1.13141000 0.37439197
v 0.13191244 1.02410018 0.87678409
v 0.21380574 1.10337412 0.79884839
v 0.47475618 0.99610370 0.76961535
v 0.34866276 1.05200505 0.79193383
v 0.39026061 0.92090583 0.85993886
v 0.29615408 1.17351127 0.70596826
v 0.37226945 1.22992516 0.60305506
v 0.89314896 0.69219309 0.50012249
v 0.81475139 0.76920491 0.58616465
v 0.81228477 0.64641362 0.63741922
v 0.76784462 1.00748527 0.45981753
v 0.79867738 0.89362687 0.52570158
v 0.85912561 0.92789292 0.38125059
v 0.62373292 0.79391408 0.77991098
v 0.71840638 0.84728009 0.66190064
v 0.61326569 0.91884971 0.72099572
v 0.51645505 1.17247450 0.56783140
v 0.57039624 1.05030060 0.65364182
v 0.65218836 1.09674418 0.51791316
v -0.13457178 0.90616721 0.94289446
v -0.00081843 0.94858921 0.93095160
v -0.39536992 0.79431802 0.91448486
v -0.26992953 0.85315382 0.93734235
v -0.00070747 0.69930440 1.02459490
v -0.13655682 0.77593642 0.99360842
v -0.13853896 0.64572257 1.02570498
v -0.82138896 0.49622348 0.64698106
v -0.73986590 0.57288879 0.73328984
v -0.54572231 0.42584473 0.88896334
v -0.64857006 0.49709889 0.81835186
v -0.64430422 0.35285595 0.80895573
v -0.63959742 0.64724213 0.80826068
v -0.53343308 0.71782565 0.86663705
v 0.00262077 0.19183537 0.99077678
v -0.14006613 0.23412617 0.99727362
v -0.14121211 0.12203427 0.94941878
v -0.13848980 0.49235240 1.03752923
v -0.13911423 0.36139867 1.02518451
v -0.00062797 0.43954855 1.04520833
v -0.41321227 0.22116375 0.91097546
v -0.28078747 0.28841862 0.98312449
v -0.40853563 0.34649485 0.95029104
v -0.41247958 0.64646882 0.94592172
v -0.41802970 0.49250221 0.96036416
v -0.27692232 0.56957471 1.00588155
v -0.97636735 0.44799292 0.37851503
v -0.91125762 0.44842407 0.51121569
v -1.04021108 0.44252276 0.08614866
v -1.01883554 0.44420108 0.23034734
v -0.91369265 0.21933576 0.40811348
v -0.97813559 0.32596147 0.32214370
v -0.96374142 0.21328939 0.26111409
v -0.91223270 0.44667137 -0.51226264
v -0.97462857 0.44504213 -0.37977085
v -0.96332526 0.20962293 -0.25785252
v -0.97589785 0.32166287 -0.32300887
v -0.91186363 0.21161352 -0.40595719
v -1.01925528 0.44272026 -0.23481864
v -1.04345453 0.44341218 -0.08868615
v -0.71693778 0.00000000 0.08472237
v -0.80630511 0.00000000 0.00436562
v -0.71324682 0.00000000 -0.09764507
v -0.92775762 0.10697207 0.17842737
v -0.87843204 0.03148399 0.09900881
v -0.85011870 0.03620102 0.26867878
v -0.85282689 0.03133559 -0.26586899
v -0.87418395 0.02725339 -0.08871392
v -0.92962033 0.09617905 -0.17026089
v -1.02887201 0.31962284 -0.00113223
v -0.99434423 0.20020792 -0.09026797
v -0.99408746 0.20059001 0.08842885
v -0.74163777 0.56755286 -0.73216635
v -0.82207251 0.49152449 -0.64575005
v -0.53687990 0.71505696 -0.86628914
v -0.64404529 0.64334702 -0.80840749
v -0.64487606 0.34644049 -0.80589139
v -0.65081996 0.49080133 -0.81920367
v -0.54844373 0.42140067 -0.88874882
v -0.00023957 0.94765121 -0.92945796
v -0.13473025 0.90604341 -0.94143897
v -0.13964567 0.64783239 -1.02559268
v -0.13775164 0.77695215 -0.99259651
v -0.00205830 0.70069140 -1.02435291
v -0.27091974 0.85207039 -0.93637186
v -0.39687297 0.79297292 -0.91365492
v -0.14302373 0.12637943 -0.95178342
v -0.14166412 0.23891477 -0.99637926
v -0.00019381 0.19926338 -0.99335390
v -0.40932277 0.34537861 -0.94838512
v -0.28142709 0.28952178 -0.98045301
v -0.41341677 0.22228439 -0.91335243
v -0.00138038 0.44175461 -1.04708779
v -0.14099444 0.36370146 -1.02535534
v -0.14149630 0.49355882 -1.03705132
v -0.41591096 0.64670438 -0.94782186
v -0.27974212 0.56984890 -1.00604224
v -0.41967142 0.49073711 -0.95878726
v 0.21535990 1.10288763 -0.79828238
v 0.13277985 1.02235913 -0.87532204
v 0.37340271 1.23096013 -0.60246837
v 0.29791021 1.17440546 -0.70506841
v 0.39044166 0.91959131 -0.85844487
v 0.35029984 1.05081224 -0.79026711
v 0.47522056 0.99302870 -0.76685989
v 0.61570489 1.30308616 -0.08066329
v 0.57147282 1.31223929 -0.21235880
v 0.71231055 1.13130200 -0.37245768
v 0.64938778 1.22555220 -0.29567865
v 0.76357442 1.13550615 -0.23746213
v 0.51675141 1.30301142 -0.34540689
v 0.45512030 1.27907336 -0.46881586
v 0.81354403 0.64635080 -0.64029408
v 0.81576425 0.77000529 -0.58925694
v 0.89508975 0.69324589 -0.50291944
v 0.61211538 0.91682601 -0.71948153
v 0.71793139 0.84526849 -0.66251665
v 0.62214881 0.79147720 -0.77936405
v 0.85905349 0.92807496 -0.38247296
v 0.79931146 0.89378422 -0.52703685
v 0.76761168 1.00808144 -0.45970148
v 0.51643378 1.17238629 -0.56589019
v 0.65245700 1.09644365 -0.51674736
v 0.57082719 1.04875088 -0.65258855
v 0.70950443 0.00000000 0.10313775
v 0.65752524 0.00000000 0.25664687
v 0.55673546 0.00000000 0.14112581
v 0.79363418 0.04507012 0.41207457
v 0.73588169 0.00000000 0.33825088
v 0.85549653 0.04368649 0.26320055
v 0.42740503 0.00000000 0.44572476
v 0.59303987 0.00000000 0.40879688
v 0.51857597 0.00000000 0.54226184
v 0.82366490 0.49541131 0.64839470
v 0.84313262 0.37051505 0.60802209
v 0.91180623 0.44811785 0.51296240
v 0.65130919 0.22541730 0.76394957
v 0.75079310 0.29649058 0.69286406
v 0.64594752 0.34979191 0.80761534
v 0.91134506 0.21726505 0.40584978
v 0.84217095 0.24845925 0.55661619
v 0.82968497 0.13969657 0.49755275
v 0.09411772 0.02107411 0.87815517
v 0.24048588 0.05179110 0.87954140
v 0.14706914 0.12363495 0.94609177
v 0.42068914 0.00000000 0.68305922
v 0.33351207 0.00109743 0.78217161
v 0.26483181 0.00000000 0.69348532
v 0.41529679 0.22409727 0.91263592
v 0.38088930 0.09724226 0.86400509
v 0.51289761 0.15271312 0.82773596
v 0.72054338 0.06454670 0.57178259
v 0.61974353 0.09905343 0.70947927
v 0.57655001 0.00139047 0.63553196
v 0.41051742 0.00000000 0.14795688
v 0.45426977 0.00000000 0.00048175
v 0.26687962 0.00000000 0.44605464
v 0.33726549 0.00000000 0.30150187
v 0.15344889 0.00000000 0.00384273
v 0.23692411 0.00000000 0.15115057
v 0.08213186 0.00000000 0.15078934
v -0.09019475 0.02918978 0.87973642
v 0.00451728 0.00000000 0.80821437
v -0.18839075 0.00000000 0.60735214
v -0.09513435 0.00000000 0.71624756
v -0.27368203 0.00000000 0.69981968
v 0.08774528 0.00000000 0.71415877
v 0.17706566 0.00000000 0.60424596
v -0.46740592 0.00000000 -0.00714327
v -0.41884542 0.00000000 0.14635089
v -0.56699455 0.00000000 0.14125395
v -0.10538581 0.00000000 0.15079838
v -0.25870469 0.00000000 0.14421046
v -0.16197950 0.00000000 0.00752080
v -0.44597629 0.00000000 0.44619831
v -0.36053866 0.00000000 0.30249640
v -0.28623003 0.00000000 0.44594550
v 0.08871873 0.00000000 0.46138653
v -0.10101332 0.00000000 0.46294314
v -0.01151556 0.00000000 0.30547494
v 0.39669022 0.00000000 -0.13852338
v 0.53735727 0.00000000 -0.15812688
v 0.09426589 0.00000000 -0.14566396
v 0.24449414 0.00000000 -0.15148094
v 0.42175815 0.00000000 -0.42596629
v 0.33086985 0.00000000 -0.28853229
v 0.27372006 0.00000000 -0.43303868
v -0.55592614 0.00000000 -0.16174224
v -0.40838718 0.00000000 -0.15539151
v -0.27213883 0.00000000 -0.43527475
v -0.33996233 0.00000000 -0.30105698
v -0.42200965 0.00000000 -0.43833840
v -0.25075600 0.00000000 -0.14852187
v -0.09582143 0.00000000 -0.14715038
v 0.09361190 0.02610648 -0.88649666
v -0.00033021 0.00000000 -0.80978125
v -0.08785804 0.02493638 -0.88436747
v 0.17934039 0.00000000 -0.59924996
v 0.09653045 0.00000000 -0.71595579
v 0.28016460 0.00000000 -0.69473147
v -0.28172100 0.00000000 -0.69694859
v -0.09818248 0.00000000 -0.71610403
v -0.18280153 0.00000000 -0.59514594
v -0.00000290 0.00000000 -0.29634553
v -0.09158325 0.00000000 -0.45380265
v 0.09149621 0.00000000 -0.45309734
v 0.65400845 0.00000000 -0.24528618
v 0.70902932 0.00000000 -0.09182841
v 0.51765150 0.00000000 -0.52928406
v 0.57802200 0.00000000 -0.38611042
v 0.85232240 0.04200778 -0.26313722
v 0.73744112 0.00000000 -0.33587050
v 0.79511911 0.04602097 -0.41468501
v 0.14443654 0.13116159 -0.95167917
v 0.23498408 0.05662638 -0.88541907
v 0.51248258 0.15215003 -0.83196783
v 0.37886760 0.10203018 -0.86360526
v 0.41634059 0.22459321 -0.91481322
v 0.33507401 0.00644678 -0.79400003
v 0.42661092 0.00000000 -0.68377644
v 0.91192478 0.44555408 -0.51180381
v 0.84326988 0.36843732 -0.60917670
v 0.82531023 0.49425492 -0.64731336
v 0.82956290 0.13811854 -0.49648651
v 0.84459728 0.24733980 -0.55549926
v 0.91506958 0.21218042 -0.40483123
v 0.64819288 0.34998846 -0.81023264
v 0.75382900 0.29256779 -0.69530630
v 0.65091002 0.22618636 -0.76557124
v 0.58129948 0.01142858 -0.63248342
v 0.62165362 0.10234694 -0.71175337
v 0.71999627 0.06296808 -0.56793427
v 0.80022651 0.00000000 0.00226156
v 0.92895538 0.09388443 -0.17038704
v 0.87832481 0.02586279 -0.09046776
v 0.87554598 0.02907260 0.09197222
v 0.92619222 0.09944773 0.17239088
v 0.95595115 0.57050443 -0.42345223
v 0.97602469 0.44727176 -0.37914366
v 1.04401958 0.44607478 -0.08766257
v 1.02068400 0.44719055 -0.23303851
v 1.03594685 0.57045656 -0.14512683
v 0.97876483 0.32482734 -0.32193702
v 0.96355236 0.21006925 -0.25610477
v 0.97577721 0.44780487 0.38029554
v 0.95524389 0.57050174 0.42055753
v 0.96226543 0.21567337 0.26004037
v 0.97783852 0.32766762 0.32264262
v 1.03368497 0.56932098 0.14381915
v 1.01952302 0.44632787 0.23254026
v 1.04191148 0.44717491 0.08646573
v 0.98908156 0.20326181 -0.08882586
v 1.03170431 0.32412165 0.00098044
v 0.98912001 0.20511097 0.09107183
v 0.14354800 0.23643467 0.99639040
v 0.41330704 0.35016161 0.94889796
v 0.28491110 0.29246634 0.98372835
v 0.14189860 0.36561704 1.02720535
v 0.13981597 0.49227518 1.03646123
v 0.74127555 0.57305253 0.73312867
v 0.53714055 0.71880782 0.86998415
v 0.64391929 0.64919251 0.80966318
v 0.65136838 0.49767011 0.81942564
v 0.54970598 0.42631292 0.88743025
v 0.13319254 0.90478784 0.94272631
v 0.13774516 0.64649087 1.02675176
v 0.13553810 0.77605170 0.99424839
v 0.26941457 0.85291111 0.93873245
v 0.39572215 0.79429573 0.91556597
v 0.42081022 0.49489054 0.95787615
v 0.41422135 0.64823079 0.94930100
v 0.27776459 0.57041973 1.00696301
v -0.66417480 0.00000000 0.23884496
v -0.52848941 0.00000000 0.54420644
v -0.59975755 0.00000000 0.39997670
v -0.73874587 0.00000000 0.34360456
v -0.79085886 0.04035928 0.42033109
v -0.23806114 0.05886871 0.88158655
v -0.51123857 0.15523298 0.82763690
v -0.38150716 0.10054007 0.86122656
v -0.33147892 0.00399889 0.78693497
v -0.42662361 0.00000000 0.69013655
v -0.84132600 0.37405816 0.60704815
v -0.83179384 0.14622059 0.50047070
v -0.84317744 0.25355452 0.55804431
v -0.75230575 0.29956129 0.69590378
v -0.64986831 0.23031624 0.76727331
v -0.58029783 0.00709672 0.64102197
v -0.61859077 0.10461345 0.71124613
v -0.71747702 0.06874497 0.57388490
v -0.23496701 0.06222797 -0.88563472
v -0.43259150 0.00000000 -0.69812900
v -0.33149749 0.00379346 -0.79228961
v -0.37962097 0.10043163 -0.86454749
v -0.50867349 0.15265375 -0.82749254
v -0.65113813 0.00000000 -0.24758267
v -0.79344159 0.03986967 -0.41759312
v -0.74271464 0.00000000 -0.33776084
v -0.58644807 0.00000000 -0.40228048
v -0.51473415 0.00000000 -0.53990060
v -0.83997649 0.36923006 -0.60745120
v -0.64724261 0.22454453 -0.76055735
v -0.75050390 0.28946039 -0.69232094
v -0.84057200 0.24479330 -0.55634171
v -0.82728440 0.13811040 -0.49609894
v -0.57972008 0.00000000 -0.64032972
v -0.71608847 0.05799266 -0.57551479
v -0.61681080 0.10281013 -0.71087396
v 0.74252206 0.56979513 -0.73388916
v 0.54978889 0.42453367 -0.88922846
v 0.65115666 0.49464059 -0.81889832
v 0.64271468 0.64526618 -0.81037784
v 0.53552872 0.71563065 -0.86705148
v 0.14164528 0.23997878 -0.99865901
v 0.13799255 0.49481693 -1.03903759
v 0.13973463 0.36581370 -1.02789271
v 0.28365317 0.29307199 -0.98575473
v 0.41268367 0.34928629 -0.95185620
v 0.13400005 0.90439945 -0.94137758
v 0.39550164 0.79194939 -0.91414678
v 0.26954308 0.85014391 -0.93558848
v 0.13499016 0.77616125 -0.99282432
v 0.13581648 0.64754742 -1.02536893
v 0.41961887 0.49305752 -0.95862466
v 0.27665412 0.57107264 -1.00580585
v 0.41382441 0.64616716 -0.94667965
v 0.95610309 0.69271588 0.37062731
v 1.02255619 0.69199502 0.08558049
v 1.00120294 0.69408178 0.22788635
v 0.93965274 0.81691563 0.30855218
v 0.90791398 0.93027204 0.24188864
v 0.95630234 0.69337553 -0.37145805
v 0.90663201 0.92979950 -0.24344358
v 0.94073403 0.81643224 -0.30935109
v 1.00002813 0.69320923 -0.22838745
v 1.02266133 0.69482046 -0.08485948
v 0.70451641 1.23472810 -0.00008346
v 0.84917921 1.05475235 0.15796943
v 0.78477287 1.14916813 0.08200582
v 0.78419250 1.14798880 -0.08062760
v 0.84861034 1.05345666 -0.15723902
v 0.98771739 0.81731951 0.00044581
v 0.92747611 0.94119287 -0.08387554
v 0.92891866 0.94217414 0.08330358
f 330 87 329
f 336 325 26
f 207 208 56
f 464 36 580
f 502 129 504
f 157 624 622
f 308 311 82
f 247 223 248
f 507 483 508
f 331 88 329
f 494 500 497
f 156 601 602
f 591 589 592
f 365 98 596
f 75 281 282
f 152 587 577
f 149 559 560
f 555 121 553
f 530 141 529
f 515 517 139
f 361 594 98
f 250 67 249
f 157 608 609
f 294 293 209
f 317 81 316
f 557 338 26
f 303 305 81
f 530 529 528
f 101 381 382
f 415 418 111
f 192 184 50
f 412 110 411
f 20 384 256
f 131 594 486
f 281 264 282
f 347 287 348
f 28 349 582
f 165 163 1
f 248 250 66
f 617 107 398
f 273 271 274
f 456 115 453
f 558 561 560
f 335 576 91
f 331 177 332
f 116 433 436
f 351 370 92
f 136 511 530
f 239 240 65
f 247 258 19
f 304 23 567
f 148 557 570
f 214 208 58
f 440 426 450
f 268 270 269
f 258 247 268
f 204 202 16
f 466 125 465
f 517 513 133
f 168 275 274
f 275 73 274
f 198 193 53
f 309 308 307
f 510 511 136
f 415 416 110
f 131 490 597
f 473 475 474
f 414 415 111
f 493 495 494
f 496 504 485
f 433 116 432
f 600 375 601
f 240 234 65
f 418 415 412
f 486 361 3
f 567 566 304
f 380 393 29
f 17 199 197
f 491 492 132
f 451 449 435
f 218 217 216
f 623 621 613
f 396 104 395
f 433 439 436
f 628 160 627
f 215 202 217
f 209 207 2
f 427 113 424
f 434 10 544
f 434 433 432
f 199 17 210
f 150 564 565
f 489 491 132
f 275 13 285
f 497 500 134
f 125 466 476
f 578 152 577
f 208 214 211
f 328 88 343
f 356 27 603
f 150 566 567
f 372 100 371
f 190 191 47
f 235 8 398
f 260 261 72
f 422 403 414
f 422 414 111
f 453 454 123
f 349 583 582
f 521 520 519
f 425 453 115
f 616 622 158
f 483 130 508
f 151 586 572
f 212 17 232
f 400 397 402
f 377 396 99
f 41 522 511
f 510 508 505
f 549 547 42
f 475 473 36
f 510 137 509
f 222 221 197
f 430 115 429
f 220 194 1
f 305 54 204
f 621 29 613
f 192 171 184
f 460 335 5
f 88 331 332
f 74 277 279
f 300 301 80
f 390 389 388
f 165 45 164
f 146 549 551
f 291 278 75
f 448 120 445
f 147 543 544
f 607 610 609
f 603 602 356
f 139 529 514
f 333 553 443
f 92 368 347
f 261 260 259
f 300 6 200
f 46 177 331
f 284 283 174
f 301 300 200
f 471 468 474
f 54 305 301
f 302 304 303
f 569 150 567
f 150 569 570
f 294 209 2
f 628 629 160
f 548 543 147
f 147 625 627
f 63 233 234
f 426 427 114
f 41 509 532
f 198 52 196
f 614 105 612
f 147 627 547
f 81 305 306
f 549 548 547
f 54 301 200
f 342 88 332
f 264 281 70
f 193 194 53
f 455 429 456
f 187 321 14
f 479 130 484
f 147 544 625
f 458 456 453
f 304 80 303
f 314 84 313
f 488 503 501
f 321 332 14
f 423 425 424
f 305 204 306
f 341 339 25
f 514 40 516
f 625 628 627
f 340 339 341
f 105 614 391
f 243 228 62
f 318 316 78
f 75 278 279
f 357 355 353
f 238 257 63
f 466 455 476
f 425 423 4
f 448 449 120
f 408 638 108
f 292 275 285
f 22 278 289
f 515 513 517
f 501 503 134
f 622 623 158
f 134 503 504
f 195 216 206
f 163 271 246
f 619 617 620
f 62 228 229
f 163 165 164
f 453 425 454
f 489 132 488
f 82 628 625
f 58 208 209
f 525 608 40
f 626 547 627
f 518 517 498
f 489 487 491
f 557 26 564
f 325 336 344
f 541 145 539
f 40 616 516
f 338 556 89
f 250 248 245
f 139 514 515
f 98 594 596
f 246 220 1
f 112 413 630
f 9 536 413
f 156 600 601
f 332 177 14
f 321 342 332
f 156 606 600
f 584 330 585
f 302 303 81
f 584 87 330
f 330 25 585
f 400 239 65
f 439 440 117
f 95 358 368
f 597 594 131
f 594 361 486
f 246 67 245
f 561 562 149
f 28 364 362
f 55 216 217
f 427 430 114
f 267 20 254
f 556 555 553
f 84 309 558
f 311 310 312
f 609 525 142
f 256 68 255
f 124 460 461
f 82 311 312
f 307 308 82
f 589 135 495
f 527 40 514
f 112 418 412
f 20 256 254
f 258 238 19
f 267 254 269
f 273 272 249
f 392 391 393
f 137 533 509
f 122 455 456
f 9 413 411
f 130 480 505
f 333 443 5
f 527 525 40
f 589 495 385
f 39 496 485
f 223 225 224
f 414 416 415
f 219 222 53
f 145 538 539
f 413 412 411
f 469 468 467
f 183 181 6
f 191 192 50
f 429 35 431
f 292 285 76
f 413 112 412
f 415 110 412
f 43 164 167
f 467 468 126
f 617 101 620
f 450 451 117
f 438 546 545
f 619 620 159
f 17 212 210
f 124 579 576
f 584 153 583
f 460 124 576
f 3 469 467
f 311 308 314
f 6 320 183
f 389 104 388
f 251 250 249
f 194 165 1
f 291 289 278
f 287 77 348
f 238 258 257
f 139 517 518
f 238 236 19
f 223 247 19
f 382 380 29
f 39 518 498
f 361 359 3
f 69 255 257
f 139 518 528
f 33 545 535
f 387 385 7
f 69 268 269
f 477 462 125
f 454 479 123
f 121 555 447
f 451 435 117
f 454 425 4
f 233 252 8
f 124 463 464
f 69 258 268
f 168 167 166
f 583 153 582
f 384 394 102
f 138 512 513
f 57 210 211
f 254 256 255
f 607 609 142
f 324 319 86
f 289 291 76
f 291 292 76
f 384 102 383
f 422 421 420
f 221 17 197
f 383 102 381
f 376 377 99
f 99 373 374
f 386 105 392
f 438 33 440
f 90 341 343
f 281 75 279
f 574 571 96
f 628 82 312
f 221 222 59
f 127 471 474
f 595 605 603
f 551 538 145
f 334 91 340
f 322 324 85
f 305 303 301
f 18 239 399
f 306 204 16
f 199 198 197
f 166 190 180
f 303 80 301
f 267 266 265
f 626 42 547
f 16 215 213
f 349 351 350
f 295 16 213
f 68 379 252
f 250 251 66
f 627 160 626
f 383 68 256
f 343 88 342
f 507 508 136
f 202 215 16
f 197 198 53
f 254 69 269
f 603 605 156
f 418 419 111
f 384 383 256
f 455 122 476
f 203 204 54
f 556 557 148
f 255 68 253
f 313 84 560
f 25 328 341
f 254 255 69
f 603 156 602
f 581 584 583
f 630 632 112
f 163 246 1
f 246 245 220
f 432 116 558
f 499 591 590
f 320 563 86
f 345 93 350
f 306 16 295
f 346 93 345
f 562 568 149
f 604 605 155
f 154 592 593
f 545 552 535
f 511 522 530
f 574 573 571
f 566 150 565
f 361 98 360
f 67 271 273
f 234 235 65
f 208 211 56
f 574 151 573
f 251 270 66
f 398 8 378
f 213 215 214
f 438 440 439
f 315 314 313
f 263 71 262
f 20 373 384
f 496 134 504
f 329 88 328
f 81 306 316
f 555 556 148
f 592 589 103
f 617 619 107
f 227 207 56
f 571 359 96
f 446 466 465
f 206 216 55
f 359 571 469
f 568 148 570
f 34 437 435
f 28 351 349
f 21 272 282
f 113 423 424
f 490 489 488
f 379 68 383
f 210 212 211
f 80 563 300
f 351 92 350
f 326 346 12
f 83 317 318
f 555 148 554
f 212 231 56
f 218 57 217
f 271 67 246
f 195 196 52
f 270 268 66
f 390 592 103
f 148 568 554
f 495 493 7
f 592 390 593
f 357 95 355
f 574 575 151
f 452 120 451
f 154 591 592
f 587 585 577
f 395 394 396
f 93 349 350
f 610 416 611
f 166 44 190
f 315 23 302
f 315 302 317
f 268 247 66
f 606 154 593
f 396 394 99
f 211 212 56
f 370 369 368
f 235 397 65
f 280 278 22
f 83 315 317
f 575 588 151
f 74 279 280
f 385 495 7
f 63 257 253
f 397 235 398
f 214 58 213
f 220 219 194
f 546 146 545
f 236 225 19
f 599 94 602
f 235 233 8
f 102 394 395
f 611 416 32
f 225 223 19
f 139 528 529
f 231 62 229
f 419 406 421
f 451 450 452
f 49 182 185
f 402 397 107
f 52 199 218
f 416 610 110
f 225 236 244
f 107 397 398
f 68 252 253
f 322 85 321
f 182 181 183
f 118 438 439
f 546 438 118
f 348 77 345
f 543 546 118
f 231 212 232
f 610 611 157
f 33 438 545
f 385 386 103
f 479 480 130
f 169 195 15
f 93 583 349
f 15 195 206
f 190 44 192
f 247 248 66
f 146 552 545
f 248 60 245
f 570 557 564
f 274 271 43
f 63 253 233
f 272 21 249
f 507 528 518
f 67 273 249
f 487 467 126
f 196 195 169
f 624 159 623
f 134 496 497
f 132 503 488
f 104 393 395
f 556 553 89
f 355 356 94
f 258 69 257
f 229 61 227
f 56 231 227
f 460 576 335
f 463 124 461
f 394 373 99
f 29 393 391
f 67 250 245
f 193 198 196
f 462 36 464
f 144 633 630
f 141 526 527
f 517 133 498
f 536 144 630
f 100 372 599
f 144 536 537
f 22 289 287
f 578 579 152
f 579 578 576
f 189 188 187
f 60 223 224
f 92 348 350
f 555 554 447
f 396 377 388
f 194 193 165
f 413 536 630
f 372 352 599
f 377 376 375
f 348 345 350
f 105 386 387
f 240 237 234
f 463 462 464
f 135 500 494
f 45 196 169
f 512 612 387
f 245 60 220
f 429 115 456
f 223 60 248
f 288 289 76
f 525 526 142
f 100 599 601
f 613 29 391
f 526 523 520
f 341 328 343
f 631 641 639
f 264 21 282
f 266 72 265
f 106 402 403
f 73 273 274
f 186 206 205
f 381 379 383
f 52 216 195
f 410 18 399
f 290 272 73
f 72 371 374
f 526 525 527
f 115 430 424
f 498 497 496
f 621 382 29
f 543 118 434
f 214 215 57
f 522 141 530
f 511 510 509
f 352 94 599
f 493 512 7
f 90 340 341
f 169 171 170
f 605 604 606
f 219 60 224
f 104 389 392
f 359 469 3
f 186 49 185
f 222 219 224
f 166 167 44
f 428 427 426
f 523 522 524
f 129 502 481
f 50 185 188
f 164 45 170
f 425 115 424
f 33 428 426
f 427 428 113
f 94 356 602
f 515 138 513
f 114 431 452
f 237 236 238
f 215 217 57
f 95 354 355
f 220 60 219
f 515 514 516
f 183 320 319
f 222 197 53
f 559 569 567
f 300 320 6
f 435 436 117
f 96 360 363
f 640 642 641
f 242 243 62
f 140 537 519
f 508 130 505
f 420 410 399
f 537 539 144
f 317 316 318
f 426 114 450
f 186 15 206
f 311 83 310
f 625 544 307
f 544 10 307
f 168 43 167
f 185 182 188
f 369 354 95
f 44 171 192
f 605 606 156
f 548 549 146
f 100 601 375
f 149 568 569
f 381 380 382
f 455 466 35
f 480 479 454
f 543 548 546
f 493 133 513
f 492 472 37
f 477 125 476
f 491 487 126
f 337 336 338
f 588 153 587
f 576 578 91
f 633 161 632
f 96 359 360
f 39 485 483
f 101 617 378
f 193 45 165
f 163 164 43
f 618 624 611
f 507 136 528
f 561 149 560
f 641 162 639
f 116 561 558
f 494 133 493
f 253 252 233
f 63 237 238
f 392 393 104
f 440 450 117
f 93 581 583
f 386 385 387
f 120 449 451
f 421 422 111
f 486 3 467
f 302 81 317
f 633 632 630
f 462 475 36
f 376 99 374
f 489 490 131
f 447 449 448
f 387 612 105
f 106 420 399
f 173 46 172
f 492 491 472
f 316 306 295
f 22 287 347
f 109 410 420
f 507 39 483
f 559 23 313
f 214 57 211
f 196 45 193
f 10 434 432
f 422 106 403
f 626 160 640
f 487 486 467
f 542 41 532
f 400 106 399
f 444 120 452
f 198 199 52
f 475 127 474
f 621 620 382
f 621 623 159
f 450 114 452
f 92 347 348
f 376 100 375
f 434 118 433
f 503 132 502
f 337 90 336
f 537 536 519
f 395 393 380
f 201 54 200
f 171 44 170
f 355 94 353
f 58 296 213
f 422 420 106
f 595 365 596
f 569 568 570
f 523 140 520
f 114 430 431
f 218 210 57
f 304 566 80
f 639 162 638
f 261 371 72
f 548 147 547
f 498 133 497
f 150 570 564
f 222 224 59
f 142 526 520
f 437 436 435
f 141 522 523
f 137 510 505
f 173 179 176
f 559 149 569
f 121 447 448
f 563 320 300
f 102 395 380
f 257 255 253
f 642 162 641
f 83 311 314
f 216 52 218
f 512 493 513
f 23 304 302
f 91 339 340
f 512 138 612
f 159 620 621
f 218 199 210
f 364 28 575
f 83 318 310
f 168 274 43
f 136 530 528
f 140 523 524
f 495 135 494
f 233 235 234
f 566 563 80
f 25 339 577
f 277 74 276
f 475 462 477
f 133 494 497
f 436 437 116
f 389 386 392
f 548 146 546
f 441 460 5
f 10 309 307
f 65 397 400
f 543 434 544
f 640 641 161
f 272 273 73
f 581 93 346
f 419 421 111
f 319 320 86
f 180 179 178
f 127 475 477
f 231 229 227
f 337 334 340
f 136 508 510
f 308 309 84
f 237 63 234
f 447 554 34
f 252 379 378
f 315 83 314
f 608 622 616
f 338 336 26
f 337 338 89
f 13 275 168
f 209 208 207
f 436 439 117
f 628 312 629
f 360 366 363
f 364 574 96
f 359 361 360
f 466 446 35
f 500 501 134
f 406 109 421
f 135 589 591
f 601 599 602
f 340 90 337
f 481 492 37
f 522 41 524
f 78 316 295
f 131 486 487
f 403 32 414
f 634 626 640
f 151 572 573
f 515 516 138
f 8 252 378
f 265 72 374
f 9 521 519
f 538 549 42
f 368 358 347
f 588 587 586
f 458 453 123
f 589 385 103
f 502 492 481
f 32 416 414
f 430 427 424
f 153 585 587
f 540 144 539
f 370 368 92
f 209 293 58
f 428 33 535
f 326 581 346
f 625 307 82
f 575 28 582
f 6 181 200
f 421 109 420
f 553 121 443
f 160 642 640
f 153 584 585
f 309 432 558
f 334 337 89
f 23 315 313
f 271 163 43
f 296 295 213
f 39 498 496
f 118 439 433
f 531 113 534
f 293 296 58
f 28 362 351
f 489 131 487
f 431 444 452
f 84 558 560
f 98 366 360
f 45 169 170
f 379 101 378
f 462 463 125
f 308 84 314
f 10 432 309
f 299 24 310
f 132 492 502
f 512 387 7
f 639 638 408
f 565 323 86
f 59 244 242
f 106 400 402
f 440 33 426
f 566 565 563
f 617 398 378
f 224 225 59
f 410 109 409
f 239 400 399
f 194 219 53
f 358 22 347
f 610 157 609
f 27 595 603
f 479 484 482
f 142 520 521
f 585 25 577
f 339 578 577
f 408 407 406
f 407 109 406
f 31 408 406
f 407 408 108
f 31 639 408
f 419 31 406
f 608 616 40
f 430 429 431
f 455 35 429
f 35 444 431
f 188 51 187
f 188 182 51
f 51 322 187
f 322 51 319
f 51 182 183
f 319 51 183
f 187 322 321
f 322 319 324
f 381 101 379
f 405 407 108
f 404 405 108
f 286 285 178
f 407 405 409
f 109 407 409
f 191 175 47
f 167 164 170
f 50 184 185
f 44 167 170
f 64 244 236
f 243 244 64
f 50 188 189
f 541 542 145
f 442 445 119
f 339 91 578
f 445 446 119
f 624 623 622
f 611 624 157
f 523 526 141
f 141 527 529
f 527 514 529
f 445 120 444
f 446 445 444
f 35 446 444
f 613 614 158
f 158 614 615
f 623 613 158
f 614 613 391
f 614 612 615
f 371 376 374
f 100 376 371
f 479 482 123
f 373 394 384
f 540 42 634
f 633 540 634
f 538 42 540
f 633 634 161
f 161 634 640
f 42 626 634
f 540 633 144
f 557 556 338
f 553 333 89
f 262 21 264
f 251 21 262
f 5 335 333
f 270 251 262
f 21 251 249
f 600 593 30
f 606 593 600
f 600 30 375
f 593 390 30
f 30 377 375
f 390 388 30
f 30 388 377
f 228 243 241
f 470 478 459
f 470 127 478
f 127 477 478
f 184 186 185
f 478 477 476
f 122 478 476
f 357 74 280
f 518 39 507
f 344 342 85
f 325 344 85
f 342 344 343
f 85 342 321
f 344 90 343
f 90 344 336
f 482 129 481
f 482 481 457
f 482 457 123
f 481 37 457
f 449 447 34
f 435 449 34
f 470 472 471
f 472 470 37
f 470 471 127
f 472 126 471
f 126 468 471
f 470 459 37
f 491 126 472
f 504 129 485
f 221 59 242
f 125 463 465
f 437 34 562
f 561 437 562
f 554 568 562
f 34 554 562
f 437 561 116
f 390 103 389
f 103 386 389
f 392 105 391
f 572 586 580
f 572 580 36
f 586 152 580
f 473 572 36
f 244 243 242
f 225 244 59
f 64 240 241
f 240 239 241
f 237 240 64
f 243 64 241
f 236 237 64
f 411 607 521
f 9 411 521
f 110 607 411
f 607 142 521
f 610 607 110
f 171 15 184
f 171 169 15
f 15 186 184
f 87 584 581
f 153 588 582
f 588 575 582
f 381 102 380
f 573 572 473
f 468 469 128
f 474 468 128
f 469 571 128
f 571 573 128
f 573 473 128
f 473 474 128
f 564 323 565
f 26 323 564
f 323 324 86
f 325 323 26
f 325 324 323
f 563 565 86
f 324 325 85
f 410 230 18
f 230 228 18
f 18 228 241
f 18 241 239
f 401 619 618
f 401 402 107
f 403 402 401
f 619 159 618
f 401 618 32
f 619 401 107
f 403 401 32
f 618 611 32
f 159 624 618
f 478 122 459
f 122 458 459
f 37 459 457
f 459 458 457
f 122 456 458
f 457 458 123
f 191 190 192
f 485 129 484
f 129 482 484
f 483 485 484
f 130 483 484
f 189 187 14
f 191 50 189
f 191 189 175
f 189 14 175
f 14 177 175
f 499 501 500
f 501 499 38
f 38 499 590
f 135 499 500
f 488 501 38
f 499 135 591
f 480 454 4
f 284 12 346
f 4 423 506
f 480 4 506
f 423 531 506
f 480 506 505
f 531 137 506
f 506 137 505
f 365 366 98
f 71 270 262
f 270 71 269
f 71 267 269
f 335 334 333
f 333 334 89
f 334 335 91
f 536 9 519
f 465 463 461
f 537 140 541
f 520 140 519
f 119 446 465
f 465 461 119
f 461 441 119
f 460 441 461
f 176 46 173
f 299 297 24
f 71 263 266
f 263 260 266
f 260 72 266
f 263 70 260
f 205 201 49
f 201 181 49
f 186 205 49
f 181 201 200
f 181 182 49
f 284 77 283
f 586 587 152
f 588 586 151
f 20 267 265
f 266 267 71
f 31 417 631
f 631 417 632
f 31 631 639
f 417 31 419
f 641 631 161
f 417 112 632
f 161 631 632
f 418 417 419
f 417 418 112
f 284 345 77
f 542 550 145
f 542 541 524
f 284 174 12
f 48 174 283
f 373 20 265
f 373 265 374
f 609 608 525
f 608 157 622
f 560 559 313
f 636 637 162
f 541 140 524
f 41 542 524
f 358 357 280
f 70 263 264
f 263 262 264
f 176 177 46
f 174 48 173
f 174 173 172
f 538 551 549
f 538 540 539
f 537 541 539
f 232 221 242
f 17 221 232
f 232 242 62
f 231 232 62
f 203 205 55
f 203 55 202
f 201 205 203
f 202 55 217
f 205 206 55
f 204 203 202
f 73 275 292
f 292 290 73
f 272 290 282
f 290 292 291
f 75 290 291
f 290 75 282
f 70 277 259
f 277 70 281
f 277 281 279
f 260 70 259
f 12 174 172
f 104 396 388
f 367 27 354
f 365 27 367
f 354 27 356
f 365 367 366
f 595 27 365
f 318 299 310
f 155 596 597
f 155 597 598
f 596 594 597
f 595 596 155
f 605 595 155
f 180 47 179
f 180 190 47
f 352 372 11
f 11 372 261
f 312 310 24
f 642 636 162
f 636 297 637
f 367 369 97
f 366 367 97
f 369 367 354
f 369 370 97
f 580 579 464
f 580 152 579
f 579 124 464
f 61 230 409
f 230 410 409
f 230 61 229
f 230 229 228
f 76 285 286
f 353 352 276
f 74 353 276
f 288 76 286
f 288 286 283
f 289 288 287
f 203 54 201
f 287 288 77
f 77 288 283
f 286 48 283
f 531 423 113
f 276 11 259
f 11 261 259
f 277 276 259
f 616 158 615
f 516 616 615
f 138 516 615
f 138 615 612
f 509 533 532
f 503 502 504
f 635 79 294
f 635 294 404
f 635 637 79
f 637 635 638
f 638 635 108
f 635 404 108
f 226 61 405
f 61 226 227
f 405 61 409
f 227 226 207
f 48 178 179
f 48 286 178
f 173 48 179
f 534 143 533
f 534 535 143
f 531 534 533
f 533 143 532
f 137 531 533
f 261 372 371
f 13 180 178
f 285 13 178
f 180 13 166
f 13 168 166
f 346 345 284
f 331 327 46
f 46 327 172
f 172 327 326
f 382 620 101
f 442 121 448
f 443 121 442
f 2 226 404
f 294 2 404
f 404 226 405
f 207 226 2
f 550 551 145
f 552 146 551
f 143 550 532
f 552 550 143
f 330 329 328
f 24 636 629
f 94 352 353
f 352 11 276
f 113 428 534
f 428 535 534
f 509 41 511
f 535 552 143
f 550 552 551
f 550 542 532
f 369 95 368
f 326 327 87
f 87 327 329
f 327 331 329
f 581 326 87
f 293 79 298
f 79 297 298
f 296 298 78
f 79 293 294
f 296 293 298
f 598 490 38
f 358 280 22
f 280 279 278
f 357 358 95
f 74 357 353
f 330 328 25
f 567 23 559
f 590 598 38
f 590 604 598
f 598 604 155
f 604 590 154
f 590 591 154
f 604 154 606
f 297 299 298
f 299 318 78
f 298 299 78
f 355 354 356
f 629 636 642
f 312 24 629
f 629 642 160
f 370 362 97
f 362 363 97
f 363 366 97
f 364 363 362
f 362 370 351
f 96 363 364
f 297 636 24
f 162 637 638
f 637 297 79
f 490 488 38
f 598 597 490
f 441 442 119
f 443 442 441
f 443 441 5
f 442 448 445
f 296 78 295
f 326 12 172
f 575 574 364
f 47 175 176
f 175 177 176
f 47 176 179
