# FEM surface export ¡ª frame 710
# Vertices: 642  Faces: 1280
v -0.49440682 0.74858725 0.00681565
v 0.48353794 0.75857449 -0.02032613
v -0.52561086 0.68644309 -0.00564553
v 0.59180200 0.57060754 -0.00921876
v -0.00212380 0.38758749 0.83742672
v -0.01090428 0.56250632 0.87180692
v -0.00005400 0.28765765 -0.82451856
v -0.01475834 0.53865623 -0.88464820
v 0.92730564 0.15827973 -0.55471975
v 0.91539687 0.11926987 0.57525462
v -0.92901254 0.07249012 -0.56512314
v -0.94665968 0.12690234 0.55602098
v -0.82267493 0.53363341 0.30772063
v -0.52337861 0.37348044 0.85679370
v -0.29382005 0.71800226 0.48987985
v 0.30089855 0.73180723 0.47926018
v -0.01517439 0.78061557 -0.00393915
v 0.27714884 0.74386525 -0.50529015
v -0.31319290 0.72959459 -0.48577574
v -0.53620774 0.36861742 -0.86407566
v -0.81805718 0.53375751 -0.33969218
v -1.09730399 0.12652124 -0.02117485
v 0.52817184 0.40388104 0.85931385
v 0.82630908 0.57591432 0.30970511
v -0.51071215 0.16201583 0.84043157
v -0.00177713 0.12861161 1.11804152
v -0.78030884 0.32742852 -0.28749645
v -0.77483708 0.27083516 0.27514124
v -0.01852913 0.12460978 -1.10104787
v -0.50410712 0.14954489 -0.82134980
v 0.81578684 0.56621879 -0.35047871
v 0.51368225 0.35688776 -0.85359234
v 0.81636721 0.19191013 0.31532833
v 0.48022315 0.12415614 0.84902084
v 0.35853282 0.55395746 0.50072575
v -0.32211593 0.57769018 0.52565581
v -0.01385182 0.51139015 0.03307894
v -0.30793959 0.48501390 -0.43086913
v 0.32173595 0.58501405 -0.48382252
v 0.53888184 0.16422018 -0.82640910
v 0.80382460 0.19891196 -0.27686095
v 1.08956659 0.20841335 0.01113442
v -0.68479991 0.66960323 0.15211476
v -0.58320922 0.65856642 0.42790106
v -0.41269842 0.75074065 0.25942981
v -0.75538397 0.28280473 0.73914188
v -0.70441550 0.46388900 0.60517299
v -0.91323221 0.35979274 0.44628820
v -0.16139357 0.64693475 0.69211441
v -0.43835884 0.57018769 0.69598138
v -0.26900634 0.48609853 0.89833975
v -0.15329567 0.77026057 0.24784134
v -0.25763044 0.78681439 0.01105567
v 0.15225461 0.66833395 0.69344831
v 0.00632372 0.73303884 0.49866742
v 0.22446619 0.77602720 -0.01788628
v 0.14865093 0.77629226 0.23713318
v 0.40678132 0.75479829 0.22915167
v -0.16379438 0.79063630 -0.24564631
v -0.41522732 0.75248647 -0.24113327
v 0.38903543 0.77197212 -0.26683357
v 0.12671781 0.79221493 -0.25808939
v -0.16902350 0.66962570 -0.70810556
v -0.01680502 0.75656646 -0.51432192
v 0.14636564 0.66565037 -0.71719277
v -0.57764518 0.66470689 -0.42411765
v -0.67317295 0.67207807 -0.16960619
v -0.28333530 0.46892151 -0.90948021
v -0.43453044 0.59598255 -0.70571417
v -0.92265189 0.32342803 -0.48503727
v -0.71523535 0.47505730 -0.61725235
v -0.76872486 0.24849327 -0.75049967
v -0.84954888 0.54954255 -0.01763683
v -1.03457713 0.12306543 -0.31771785
v -1.00359881 0.34993237 -0.19868571
v -1.01167607 0.35421571 0.14880174
v -1.08190906 0.14735031 0.29196298
v 0.58310407 0.67899692 0.41310224
v 0.67648578 0.70015508 0.13520218
v 0.26524872 0.49833941 0.91253436
v 0.43387750 0.60994780 0.70354909
v 0.91781384 0.36687404 0.47328675
v 0.73076558 0.50694454 0.61884445
v 0.76985818 0.27273029 0.75452870
v -0.28501356 0.27454683 1.03387105
v -0.00342022 0.35633627 1.03647232
v -0.78296268 0.04308740 0.77006608
v -0.57990098 0.12974040 0.95282489
v 0.03418081 0.10784769 0.93451852
v -0.28050002 0.01122722 1.00696766
v -0.25122276 0.24345200 0.88533789
v -0.93903738 0.00785436 0.17335944
v -0.89071286 0.12088995 0.45249078
v -0.88812733 0.16663936 -0.43396464
v -0.92280352 0.02552670 -0.17513685
v -0.67389375 0.49932593 0.14796385
v -0.82885784 0.29859757 0.01995525
v -0.71076852 0.53847349 -0.14493570
v -0.59890145 0.10757256 -0.92191797
v -0.74435484 0.10326993 -0.73089743
v -0.01231502 0.34325016 -1.03509355
v -0.29748979 0.23500384 -1.04382479
v -0.23236834 0.21486020 -0.83715117
v -0.29689342 0.00020723 -0.99028927
v -0.04588556 0.08999546 -0.99682891
v 0.41879377 0.58617926 -0.72413868
v 0.26326329 0.47013882 -0.91435862
v 0.65810829 0.70698714 -0.20089188
v 0.56443852 0.67981082 -0.45290250
v 0.74837786 0.24475257 -0.76131159
v 0.70640928 0.47623238 -0.64145142
v 0.91185117 0.37805584 -0.47313321
v 0.67407978 0.34698483 0.15824872
v 0.60578048 0.40037444 0.42045704
v 0.46157277 0.63237309 0.30001822
v 0.72371954 0.00046231 0.73925233
v 0.67708653 0.17058478 0.59660971
v 0.89816445 0.09944554 0.48008230
v 0.15580904 0.51309049 0.67671716
v 0.42159665 0.35886633 0.68551165
v 0.23792683 0.28451267 0.82869107
v 0.15971774 0.70401281 0.29173696
v 0.29189530 0.50205898 0.01544727
v -0.20128740 0.49615550 0.69484234
v -0.00226576 0.66318101 0.51673275
v -0.28155652 0.67452931 -0.06199561
v -0.18830787 0.56132036 0.23318149
v -0.41307080 0.63835835 0.25474554
v 0.17423782 0.51249611 -0.23414336
v 0.48380309 0.51439750 -0.27837843
v -0.45869911 0.63678604 -0.27373400
v -0.18484613 0.51763958 -0.17981613
v 0.15535007 0.48957583 -0.71076906
v -0.00409631 0.51284564 -0.48795259
v -0.16529402 0.44538414 -0.68889266
v 0.60209107 0.40113965 -0.41983336
v 0.70090294 0.36707249 -0.13222519
v 0.24572603 0.23312807 -0.85976952
v 0.42764786 0.38224331 -0.66258371
v 0.89181197 0.02557346 -0.45848951
v 0.70289844 0.17727131 -0.58395374
v 0.75772786 0.00203606 -0.75204837
v 0.84979248 0.20552304 0.00168224
v 1.04463351 0.17982684 -0.29532385
v 0.98500329 0.00000000 -0.17024536
v 0.99392891 0.00000000 0.20767319
v 1.05065000 0.19506694 0.31427783
v 0.24419142 0.00000000 0.98792285
v 0.57183266 0.13452153 0.93139058
v 0.27943638 0.23709516 1.02358258
v -0.57883686 0.46976200 0.43602753
v -0.43842277 0.33725530 0.72325027
v -0.68907267 0.24598077 0.62311786
v -0.42370641 0.40032548 -0.67410940
v -0.56953931 0.52767807 -0.40834293
v -0.69813520 0.30290133 -0.61367440
v 0.57645631 0.09693800 -0.95037502
v 0.26949629 0.04756509 -1.01824772
v 0.28635326 0.26525244 -1.03273058
v 1.01584136 0.41611984 0.17576170
v 1.01237273 0.42913911 -0.17923552
v 0.84599620 0.61178935 -0.02114899
v -0.58774555 0.72020721 0.08247373
v -0.54788536 0.71823239 0.21170974
v -0.45690063 0.75216269 0.13578340
v -0.70566458 0.61064321 0.37368175
v -0.63689291 0.66479576 0.28764603
v -0.75477093 0.60922724 0.22980747
v -0.35599384 0.73938054 0.37690416
v -0.50384074 0.70811039 0.34529141
v -0.43876699 0.69356054 0.46562925
v -0.84498292 0.21292907 0.65055996
v -0.83590233 0.32370323 0.59225470
v -0.93348753 0.26305431 0.52697909
v -0.62144303 0.41205147 0.73936957
v -0.73227847 0.37481481 0.67003328
v -0.65148276 0.32046747 0.81106704
v -0.87620157 0.44721615 0.37697467
v -0.80799580 0.42128736 0.52437449
v -0.76844019 0.51311749 0.46216905
v -0.08450058 0.60836512 0.78039706
v -0.22290744 0.57856643 0.79872972
v -0.13952997 0.52622050 0.89105517
v -0.37196219 0.65714490 0.59876645
v -0.30664799 0.62273926 0.69872516
v -0.23079006 0.68518996 0.59111947
v -0.39457667 0.41998062 0.88433397
v -0.35620967 0.52899534 0.80244410
v -0.47670516 0.47475475 0.78745335
v -0.65203243 0.57071054 0.52778614
v -0.57926089 0.51828325 0.66690999
v -0.51302910 0.62500489 0.56843871
v -0.33609474 0.77218133 0.13631083
v -0.37694046 0.76844698 0.01378966
v -0.21983200 0.75348818 0.37196231
v -0.28666207 0.76551384 0.25638533
v -0.13309799 0.79879081 0.00296158
v -0.20228690 0.77880579 0.12950581
v -0.08024174 0.78280419 0.12592769
v 0.07794304 0.61714995 0.78419864
v -0.00451038 0.66079599 0.69397974
v 0.15254742 0.73044086 0.49610859
v 0.07582667 0.71039003 0.59270751
v 0.23108040 0.70652360 0.59215343
v -0.07132057 0.69320834 0.60136074
v -0.14162995 0.72901046 0.50024050
v 0.35951653 0.77746415 -0.01652122
v 0.32198483 0.77100748 0.11037189
v 0.44977450 0.76068735 0.10355001
v 0.06150170 0.76993167 0.12175508
v 0.18647517 0.77499920 0.11156671
v 0.10214368 0.79218978 -0.00328415
v 0.35859716 0.75375080 0.35257795
v 0.26717758 0.77166188 0.23454393
v 0.23087278 0.75292408 0.36039662
v -0.07472462 0.76207066 0.37598217
v 0.08285759 0.76169825 0.36801296
v -0.00913701 0.77185893 0.24584667
v -0.33227164 0.77562755 -0.11716894
v -0.45084783 0.75210446 -0.11323384
v -0.08541673 0.79264009 -0.12415534
v -0.20602529 0.79417217 -0.11503831
v -0.37591144 0.74264055 -0.36639449
v -0.29072425 0.77640420 -0.24646826
v -0.24365050 0.76956052 -0.36672679
v 0.43659151 0.77583796 -0.14440322
v 0.30713820 0.78947979 -0.13983959
v 0.20304380 0.77896100 -0.38347867
v 0.25855875 0.78292167 -0.26373315
v 0.33903661 0.75400829 -0.39180917
v 0.17365132 0.79023463 -0.13251027
v 0.05441568 0.79432184 -0.13039562
v -0.09800809 0.60913581 -0.80369413
v -0.01025150 0.67302948 -0.72360110
v 0.06536106 0.60418862 -0.80763626
v -0.16492617 0.74992394 -0.50617677
v -0.09327915 0.71619910 -0.61801308
v -0.24426968 0.70638001 -0.59959179
v 0.21608636 0.70734125 -0.61421824
v 0.06279692 0.72113162 -0.61939424
v 0.12697993 0.75885040 -0.51747447
v -0.01705343 0.79358166 -0.25046554
v 0.05588455 0.78551400 -0.38655469
v -0.09676773 0.78322017 -0.38196716
v -0.54414272 0.72353947 -0.20009218
v -0.58879352 0.71916652 -0.07476472
v -0.45171627 0.69894737 -0.46055982
v -0.50112677 0.71876758 -0.33396673
v -0.75174868 0.60403335 -0.25350618
v -0.63361454 0.67392176 -0.29865614
v -0.69921225 0.60181355 -0.39374316
v -0.14913581 0.50712800 -0.90378165
v -0.22914766 0.57666034 -0.81683373
v -0.49117714 0.49135068 -0.80026644
v -0.36475173 0.54076886 -0.81698489
v -0.41237119 0.42826885 -0.89831448
v -0.30203852 0.63748920 -0.71452004
v -0.37377715 0.67247188 -0.60025805
v -0.93395215 0.19478667 -0.51427948
v -0.86068213 0.29235324 -0.62236774
v -0.87037790 0.16982584 -0.65766686
v -0.77351624 0.50520551 -0.48135665
v -0.83570337 0.41962263 -0.55197144
v -0.87960285 0.43758300 -0.41316411
v -0.66184777 0.32632267 -0.80398804
v -0.75177294 0.37904391 -0.69060695
v -0.63609970 0.43870488 -0.74832720
v -0.51668113 0.63071275 -0.57264930
v -0.58088493 0.53828961 -0.67584336
v -0.64866984 0.57892692 -0.53440517
v -0.68397349 0.67812037 -0.00779825
v -0.84062487 0.53909695 -0.18029201
v -0.76499271 0.61943418 -0.10211302
v -0.77448845 0.62045151 0.06888135
v -0.84794909 0.54060328 0.14670230
v -0.99508470 0.07072481 -0.44386384
v -1.00851369 0.21261334 -0.40795735
v -1.06924367 0.23846884 -0.11090342
v -1.03247106 0.23045386 -0.25455245
v -1.08627212 0.11197174 -0.17009494
v -0.97325414 0.33394060 -0.34515586
v -0.92701709 0.44971350 -0.27199093
v -1.00119185 0.26148781 0.37680823
v -1.02213717 0.14097798 0.42565843
v -0.92879379 0.44921997 0.23207900
v -0.97571504 0.35976443 0.30030349
v -1.09425104 0.13398609 0.14103368
v -1.05720365 0.25113943 0.21983406
v -1.08070195 0.24701342 0.06913619
v -0.94565511 0.46108860 -0.10546121
v -1.02055359 0.35301688 -0.02843691
v -0.94822282 0.45755556 0.06366047
v 0.54555321 0.73411435 0.18776040
v 0.58352292 0.73672992 0.05639943
v 0.44099632 0.71381414 0.44513056
v 0.49959832 0.73091859 0.32402185
v 0.75668627 0.65049338 0.22124574
v 0.63905609 0.69056708 0.27624431
v 0.71298081 0.62880272 0.36803046
v 0.12684256 0.53354764 0.90543485
v 0.21444972 0.59339410 0.80531430
v 0.49993214 0.51909417 0.79674125
v 0.35929376 0.55769652 0.80717725
v 0.39723805 0.45577636 0.89122993
v 0.28991213 0.64886218 0.69854414
v 0.36793795 0.68320578 0.59332108
v 0.93204081 0.23663256 0.53603244
v 0.85258412 0.31872752 0.61561596
v 0.83959043 0.18129724 0.66951853
v 0.78875792 0.53989726 0.46929851
v 0.83940977 0.44306836 0.54799950
v 0.88058621 0.48577043 0.39231446
v 0.65129298 0.33846077 0.81571841
v 0.76442224 0.38960660 0.69295716
v 0.65544450 0.45296407 0.75812876
v 0.51328427 0.66183937 0.56144911
v 0.59009635 0.56086159 0.66699833
v 0.65873122 0.61169690 0.52292550
v -0.13846773 0.42315507 0.97605687
v -0.00261294 0.46479315 0.96415782
v -0.42060032 0.32176527 0.94859767
v -0.28753173 0.38592470 0.97323900
v 0.01638908 0.24174717 1.07916594
v -0.14318833 0.32270485 1.04870176
v -0.13939348 0.23098716 1.09067690
v -0.88698363 0.05137115 0.67963159
v -0.78463304 0.13414514 0.77484494
v -0.55402672 0.07414554 0.89824295
v -0.68006212 0.07304748 0.86700839
v -0.63150543 0.07538624 0.77781683
v -0.68716109 0.21954527 0.85921407
v -0.56856775 0.24273831 0.89466250
v 0.00342149 0.23974589 0.90500563
v -0.09227007 0.20527080 0.95422679
v -0.11738151 0.31289318 0.85667515
v -0.13649201 0.06276678 1.08706117
v -0.09580021 0.05315883 0.99397641
v 0.01162118 0.00015804 1.06596231
v -0.36467198 0.17783913 0.87012172
v -0.23858865 0.09896658 0.96307731
v -0.38572422 0.11046243 0.94929773
v -0.43749037 0.20823944 0.99092501
v -0.43263534 0.06367438 1.00558949
v -0.28413022 0.12302725 1.05185401
v -1.01532137 0.00348058 0.38804516
v -0.95291007 0.01002266 0.51839900
v -1.06211352 0.01001022 0.08083761
v -1.02987242 0.01381370 0.23916955
v -0.82075262 0.18920839 0.36895484
v -0.91286755 0.07762620 0.32421541
v -0.87844700 0.14058168 0.24790522
v -0.93686956 0.06139500 -0.50514793
v -0.97667366 0.02062387 -0.39802629
v -0.88744682 0.19285807 -0.22707452
v -0.93918782 0.13174514 -0.31528080
v -0.83937216 0.24872917 -0.35928026
v -1.02684498 0.00000000 -0.24945737
v -1.07358563 0.00175020 -0.10636225
v -0.60970610 0.56832099 0.06426068
v -0.72076410 0.51473904 -0.01138671
v -0.63073933 0.58475113 -0.06836406
v -0.81152719 0.28953561 0.13743201
v -0.75560129 0.40834194 0.09878108
v -0.72977954 0.39247555 0.20595196
v -0.73671579 0.44863808 -0.21130951
v -0.78620887 0.43780226 -0.05763199
v -0.81668794 0.32808933 -0.14296003
v -0.93546295 0.00784228 -0.00855039
v -0.90651786 0.16587356 -0.07588236
v -0.88485569 0.15520783 0.08423443
v -0.79771072 0.10568961 -0.76572406
v -0.86751825 0.03522247 -0.68122441
v -0.57804048 0.24545088 -0.91083843
v -0.68831986 0.17769989 -0.83666152
v -0.62829703 0.11187406 -0.77519166
v -0.69425243 0.01673198 -0.84559137
v -0.57134247 0.00881616 -0.86822248
v -0.00910793 0.44485372 -0.96812862
v -0.15248258 0.41230959 -0.97649735
v -0.15522169 0.18300268 -1.10475838
v -0.15969373 0.29345658 -1.03683102
v -0.00042204 0.25119701 -1.08794212
v -0.29183966 0.35392579 -0.98001987
v -0.42599499 0.29999360 -0.96129668
v -0.12699647 0.25946343 -0.84607702
v -0.14735033 0.11843973 -0.91080904
v -0.03287947 0.18849291 -0.90485328
v -0.41049761 0.00134238 -0.87960869
v -0.27176636 0.09410134 -0.88153011
v -0.37733549 0.16752478 -0.82566422
v -0.02320113 0.00989521 -1.07862806
v -0.15801780 0.00173281 -1.00309110
v -0.17354885 0.06066027 -1.08879244
v -0.45802376 0.17505494 -1.01993561
v -0.31239036 0.11488034 -1.08980262
v -0.46281049 0.02617681 -1.00747883
v 0.20420399 0.57565403 -0.82068902
v 0.12630729 0.50590682 -0.91132200
v 0.35202286 0.67291439 -0.61912090
v 0.28755412 0.63251847 -0.72633737
v 0.39300779 0.42175499 -0.90037352
v 0.34292042 0.53626674 -0.82813227
v 0.47642860 0.48889309 -0.80974621
v 0.57186115 0.74353564 -0.11118190
v 0.52670294 0.75298470 -0.23523425
v 0.69116986 0.63036263 -0.40826666
v 0.61491776 0.70275062 -0.32733753
v 0.74403268 0.64045382 -0.27693811
v 0.48197445 0.73753858 -0.36238241
v 0.42552683 0.71045607 -0.48759916
v 0.84973758 0.19886720 -0.66025436
v 0.83873749 0.32203543 -0.63599616
v 0.92709553 0.27859280 -0.52368969
v 0.61913753 0.41413432 -0.75934100
v 0.73068792 0.35884127 -0.70102811
v 0.62328809 0.27752665 -0.81716263
v 0.87555599 0.47039074 -0.41795570
v 0.82511425 0.44403195 -0.57334727
v 0.76696628 0.53247952 -0.49450308
v 0.50185579 0.63491535 -0.59449726
v 0.64470422 0.57874715 -0.55668628
v 0.56882316 0.53608954 -0.69232458
v 0.63463432 0.49413013 0.09583878
v 0.60288107 0.51292497 0.21111366
v 0.52629524 0.61770701 0.13012053
v 0.70501357 0.31163052 0.36480373
v 0.65090716 0.39835325 0.29002520
v 0.76594311 0.28221008 0.23400368
v 0.42190707 0.60829008 0.41933000
v 0.56718814 0.52809858 0.36009514
v 0.48679441 0.49648941 0.45958775
v 0.84748065 0.02651835 0.67860359
v 0.80945402 0.07960569 0.62405503
v 0.94725066 0.01254656 0.54118866
v 0.57048833 0.14687178 0.71415216
v 0.69629580 0.11889011 0.68934947
v 0.61317992 0.05960865 0.80082774
v 0.85781014 0.10788035 0.38809526
v 0.77146292 0.14404860 0.53940350
v 0.76453847 0.18816112 0.44207972
v 0.07154597 0.45229611 0.74614692
v 0.19033986 0.41829842 0.77386999
v 0.12835893 0.33222872 0.86686003
v 0.37954578 0.44084105 0.60544229
v 0.29321566 0.43837830 0.69926035
v 0.26526970 0.52122051 0.61103314
v 0.36852279 0.23088863 0.85734189
v 0.31522658 0.35538605 0.75909162
v 0.45030475 0.26854038 0.79161489
v 0.64644760 0.28011808 0.51158321
v 0.56574166 0.25318313 0.66901702
v 0.52346015 0.35707530 0.56321836
v 0.38475844 0.51769429 0.15984565
v 0.44276792 0.50807410 -0.00936077
v 0.25936866 0.66331583 0.40087730
v 0.32359150 0.65750420 0.27416107
v 0.15162478 0.50581187 0.04204562
v 0.22814922 0.61650431 0.15215743
v 0.07774427 0.57599366 0.15205494
v -0.08921339 0.46311924 0.74864990
v -0.00871366 0.54786348 0.66553402
v -0.16409765 0.62681645 0.49972501
v -0.10606927 0.57505363 0.61440492
v -0.28184488 0.52847368 0.61232805
v 0.10486361 0.61198080 0.58718503
v 0.19577713 0.62068170 0.51285172
v -0.39765808 0.58934265 -0.00383721
v -0.35512269 0.69682568 0.10939266
v -0.50818801 0.67545313 0.13217357
v -0.08007613 0.56629670 0.10828090
v -0.20900235 0.69771457 0.09474161
v -0.18758556 0.55264527 0.03931141
v -0.38605672 0.62959057 0.39108917
v -0.31601247 0.66330975 0.24018180
v -0.25207630 0.65546769 0.39989966
v 0.09117510 0.68038273 0.41361862
v -0.09527463 0.69799572 0.36849546
v 0.00607226 0.58540428 0.25138885
v 0.40300497 0.52715260 -0.14041525
v 0.55364889 0.58596212 -0.11866877
v 0.07576736 0.53923291 -0.09465735
v 0.21618120 0.50422126 -0.10707100
v 0.38030326 0.62799770 -0.36735097
v 0.31859294 0.60669899 -0.27105811
v 0.25707778 0.49944460 -0.32815528
v -0.50126517 0.68827814 -0.15025137
v -0.43394849 0.54196644 -0.15071388
v -0.25352836 0.41062430 -0.28415346
v -0.34551388 0.51587695 -0.20229906
v -0.38587084 0.50319189 -0.31932330
v -0.28673339 0.50920469 -0.06839912
v -0.14313394 0.52801305 -0.08927681
v 0.09772092 0.39658624 -0.78975457
v 0.00618924 0.46079904 -0.72264349
v -0.06979732 0.37341481 -0.75649559
v 0.17739193 0.52017927 -0.48343474
v 0.07592163 0.54768616 -0.61605817
v 0.26481915 0.54689282 -0.62330192
v -0.24346541 0.41596749 -0.56938237
v -0.08176281 0.49433485 -0.62169713
v -0.16226441 0.46677276 -0.46764529
v 0.00865431 0.50841206 -0.16577619
v -0.08466548 0.47850630 -0.32986322
v 0.07758351 0.50532240 -0.31185165
v 0.59448159 0.48501697 -0.15379168
v 0.64638436 0.47713602 -0.04097547
v 0.49454817 0.54273653 -0.44454879
v 0.53128636 0.50864190 -0.32092920
v 0.76422870 0.30413434 -0.21204984
v 0.65954030 0.40606385 -0.26200616
v 0.73007482 0.31175417 -0.34925497
v 0.12002158 0.26988181 -0.83805603
v 0.20623878 0.37868112 -0.76802397
v 0.46153688 0.26350188 -0.74554491
v 0.34048939 0.32279074 -0.79172540
v 0.38522992 0.20659675 -0.88486171
v 0.29881015 0.44722229 -0.67016864
v 0.40470865 0.49894273 -0.57523847
v 0.95167112 0.02344981 -0.52923429
v 0.84034437 0.03859699 -0.62838310
v 0.86364192 0.08713474 -0.66703838
v 0.76453221 0.18280643 -0.44006506
v 0.79783821 0.10059568 -0.51273751
v 0.83894551 0.09570368 -0.36322919
v 0.65885758 0.08164717 -0.79025459
v 0.73452032 0.10171103 -0.65391827
v 0.62215108 0.18731798 -0.71144414
v 0.53339803 0.43301636 -0.54731292
v 0.57887077 0.28684214 -0.63058686
v 0.66502786 0.29979891 -0.49473605
v 0.70150483 0.40408245 0.00523808
v 0.84715724 0.19643129 -0.15501347
v 0.79298502 0.27537823 -0.03489775
v 0.75295287 0.30165333 0.07216808
v 0.85475814 0.21168667 0.17658898
v 0.99400532 0.14564459 -0.43342841
v 1.00038052 0.05663890 -0.38109604
v 1.08545089 0.09396382 -0.07676359
v 1.05665386 0.09322091 -0.22968610
v 1.07641995 0.20445254 -0.13939022
v 0.96805209 0.00000000 -0.32061893
v 0.91296875 0.05858164 -0.24867576
v 1.00594425 0.01740232 0.40055180
v 0.99546301 0.14011486 0.44280612
v 0.90708250 0.08541675 0.25196180
v 0.96055096 0.00000000 0.35384271
v 1.07696784 0.19076815 0.16298108
v 1.04595947 0.07246307 0.27308625
v 1.06033587 0.07557818 0.10747576
v 0.94343197 0.09398397 -0.08889094
v 0.99777901 0.00520897 0.00804021
v 0.92972749 0.09632890 0.10009459
v 0.11773678 0.17988063 0.86935151
v 0.34256253 0.08248649 0.92971194
v 0.22447564 0.13376643 0.90000278
v 0.13469498 0.07171292 0.96994299
v 0.14782618 0.05199609 1.10198128
v 0.77235401 0.12416086 0.77756870
v 0.55154490 0.27316687 0.92024833
v 0.67343652 0.20408128 0.86059093
v 0.67442125 0.05394450 0.85672194
v 0.54104286 0.00156337 0.90732580
v 0.13540617 0.42402026 0.98640466
v 0.15763111 0.17748062 1.08271337
v 0.14901014 0.30617461 1.04356897
v 0.27842045 0.38814464 0.98324347
v 0.40644011 0.34310153 0.95846540
v 0.43427762 0.04009427 0.99662089
v 0.42831022 0.20001701 1.00812805
v 0.29635563 0.07632276 1.04336345
v -0.57639140 0.58114839 0.21344557
v -0.45443165 0.51902461 0.48346633
v -0.50324124 0.53873861 0.33263332
v -0.62865961 0.48009655 0.31257644
v -0.69433123 0.39246219 0.37218776
v -0.21929187 0.37202054 0.79365259
v -0.46644902 0.22719003 0.77816099
v -0.33289546 0.31947324 0.81567532
v -0.32223499 0.43378031 0.72713238
v -0.39571860 0.46049550 0.61708200
v -0.85127783 0.04915154 0.62930262
v -0.77364516 0.27877688 0.46839646
v -0.79999971 0.16669402 0.52357006
v -0.71487755 0.10574330 0.68791509
v -0.61044139 0.16869432 0.71550357
v -0.52687877 0.42652559 0.60765022
v -0.56644469 0.30464536 0.64543301
v -0.64500427 0.34911618 0.52615470
v -0.17379254 0.35006526 -0.76321787
v -0.32730651 0.52255249 -0.58427757
v -0.28960535 0.41637734 -0.66527450
v -0.31106853 0.32140538 -0.74320972
v -0.44471920 0.29945832 -0.76430959
v -0.59629422 0.62944710 -0.20932932
v -0.69845945 0.45128912 -0.36290482
v -0.66154331 0.55693448 -0.29501298
v -0.52716589 0.58518547 -0.36512017
v -0.42050597 0.57065731 -0.46908060
v -0.84344757 0.10081325 -0.59410709
v -0.62541533 0.24638385 -0.72358412
v -0.72729504 0.20222892 -0.65358883
v -0.79321933 0.21477221 -0.51476377
v -0.73616391 0.32029811 -0.44663170
v -0.47506469 0.46758664 -0.52597016
v -0.60648817 0.40078500 -0.50468165
v -0.54946572 0.35866144 -0.65366274
v 0.77538401 0.12096103 -0.76536524
v 0.57593727 0.08728355 -0.91186303
v 0.69278717 0.00923659 -0.88125163
v 0.66908854 0.15370445 -0.84805173
v 0.54966038 0.22291708 -0.91224790
v 0.10834184 0.18693456 -0.93104756
v 0.13350523 0.02967191 -1.07999754
v 0.11157264 0.09610581 -0.99659419
v 0.27401635 0.17149195 -0.94103312
v 0.42109102 0.07706855 -0.93131471
v 0.13038304 0.40745258 -0.98644912
v 0.40213168 0.32370415 -0.96213835
v 0.26768342 0.36477801 -0.97705269
v 0.13971062 0.30219278 -1.03934717
v 0.14987884 0.19412281 -1.09223020
v 0.44437760 0.06077388 -1.00572670
v 0.28354686 0.13548835 -1.06995022
v 0.43761310 0.20281959 -1.00956714
v 0.99112833 0.26757699 0.40604103
v 1.07615173 0.31233081 0.09855613
v 1.05850875 0.30807498 0.25323650
v 0.98093379 0.39067706 0.32892677
v 0.93152684 0.50636166 0.24664330
v 0.99346626 0.27733171 -0.38214588
v 0.91233802 0.50117588 -0.27279881
v 0.97673982 0.40067318 -0.32771003
v 1.03846741 0.29662573 -0.22913831
v 1.06116199 0.32011411 -0.08118551
v 0.66826040 0.71294188 -0.03269261
v 0.85020590 0.60736626 0.14187171
v 0.76904988 0.67115331 0.05335087
v 0.75519109 0.66653240 -0.11634687
v 0.84184808 0.59481573 -0.19020286
v 1.02687037 0.43561703 -0.00083470
v 0.94273859 0.53455961 -0.10342687
v 0.96242344 0.53488898 0.07609442
f 330 87 329
f 336 325 26
f 207 208 56
f 464 36 580
f 502 129 504
f 157 624 622
f 308 311 82
f 247 223 248
f 507 483 508
f 331 88 329
f 494 500 497
f 156 601 602
f 591 589 592
f 365 98 596
f 75 281 282
f 152 587 577
f 149 559 560
f 555 121 553
f 530 141 529
f 515 517 139
f 361 594 98
f 250 67 249
f 157 608 609
f 294 293 209
f 317 81 316
f 557 338 26
f 303 305 81
f 530 529 528
f 101 381 382
f 415 418 111
f 192 184 50
f 412 110 411
f 20 384 256
f 131 594 486
f 281 264 282
f 347 287 348
f 28 349 582
f 165 163 1
f 248 250 66
f 617 107 398
f 273 271 274
f 456 115 453
f 558 561 560
f 335 576 91
f 331 177 332
f 116 433 436
f 351 370 92
f 136 511 530
f 239 240 65
f 247 258 19
f 304 23 567
f 148 557 570
f 214 208 58
f 440 426 450
f 268 270 269
f 258 247 268
f 204 202 16
f 466 125 465
f 517 513 133
f 168 275 274
f 275 73 274
f 198 193 53
f 309 308 307
f 510 511 136
f 415 416 110
f 131 490 597
f 473 475 474
f 414 415 111
f 493 495 494
f 496 504 485
f 433 116 432
f 600 375 601
f 240 234 65
f 418 415 412
f 486 361 3
f 567 566 304
f 380 393 29
f 17 199 197
f 491 492 132
f 451 449 435
f 218 217 216
f 623 621 613
f 396 104 395
f 433 439 436
f 628 160 627
f 215 202 217
f 209 207 2
f 427 113 424
f 434 10 544
f 434 433 432
f 199 17 210
f 150 564 565
f 489 491 132
f 275 13 285
f 497 500 134
f 125 466 476
f 578 152 577
f 208 214 211
f 328 88 343
f 356 27 603
f 150 566 567
f 372 100 371
f 190 191 47
f 235 8 398
f 260 261 72
f 422 403 414
f 422 414 111
f 453 454 123
f 349 583 582
f 521 520 519
f 425 453 115
f 616 622 158
f 483 130 508
f 151 586 572
f 212 17 232
f 400 397 402
f 377 396 99
f 41 522 511
f 510 508 505
f 549 547 42
f 475 473 36
f 510 137 509
f 222 221 197
f 430 115 429
f 220 194 1
f 305 54 204
f 621 29 613
f 192 171 184
f 460 335 5
f 88 331 332
f 74 277 279
f 300 301 80
f 390 389 388
f 165 45 164
f 146 549 551
f 291 278 75
f 448 120 445
f 147 543 544
f 607 610 609
f 603 602 356
f 139 529 514
f 333 553 443
f 92 368 347
f 261 260 259
f 300 6 200
f 46 177 331
f 284 283 174
f 301 300 200
f 471 468 474
f 54 305 301
f 302 304 303
f 569 150 567
f 150 569 570
f 294 209 2
f 628 629 160
f 548 543 147
f 147 625 627
f 63 233 234
f 426 427 114
f 41 509 532
f 198 52 196
f 614 105 612
f 147 627 547
f 81 305 306
f 549 548 547
f 54 301 200
f 342 88 332
f 264 281 70
f 193 194 53
f 455 429 456
f 187 321 14
f 479 130 484
f 147 544 625
f 458 456 453
f 304 80 303
f 314 84 313
f 488 503 501
f 321 332 14
f 423 425 424
f 305 204 306
f 341 339 25
f 514 40 516
f 625 628 627
f 340 339 341
f 105 614 391
f 243 228 62
f 318 316 78
f 75 278 279
f 357 355 353
f 238 257 63
f 466 455 476
f 425 423 4
f 448 449 120
f 408 638 108
f 292 275 285
f 22 278 289
f 515 513 517
f 501 503 134
f 622 623 158
f 134 503 504
f 195 216 206
f 163 271 246
f 619 617 620
f 62 228 229
f 163 165 164
f 453 425 454
f 489 132 488
f 82 628 625
f 58 208 209
f 525 608 40
f 626 547 627
f 518 517 498
f 489 487 491
f 557 26 564
f 325 336 344
f 541 145 539
f 40 616 516
f 338 556 89
f 250 248 245
f 139 514 515
f 98 594 596
f 246 220 1
f 112 413 630
f 9 536 413
f 156 600 601
f 332 177 14
f 321 342 332
f 156 606 600
f 584 330 585
f 302 303 81
f 584 87 330
f 330 25 585
f 400 239 65
f 439 440 117
f 95 358 368
f 597 594 131
f 594 361 486
f 246 67 245
f 561 562 149
f 28 364 362
f 55 216 217
f 427 430 114
f 267 20 254
f 556 555 553
f 84 309 558
f 311 310 312
f 609 525 142
f 256 68 255
f 124 460 461
f 82 311 312
f 307 308 82
f 589 135 495
f 527 40 514
f 112 418 412
f 20 256 254
f 258 238 19
f 267 254 269
f 273 272 249
f 392 391 393
f 137 533 509
f 122 455 456
f 9 413 411
f 130 480 505
f 333 443 5
f 527 525 40
f 589 495 385
f 39 496 485
f 223 225 224
f 414 416 415
f 219 222 53
f 145 538 539
f 413 412 411
f 469 468 467
f 183 181 6
f 191 192 50
f 429 35 431
f 292 285 76
f 413 112 412
f 415 110 412
f 43 164 167
f 467 468 126
f 617 101 620
f 450 451 117
f 438 546 545
f 619 620 159
f 17 212 210
f 124 579 576
f 584 153 583
f 460 124 576
f 3 469 467
f 311 308 314
f 6 320 183
f 389 104 388
f 251 250 249
f 194 165 1
f 291 289 278
f 287 77 348
f 238 258 257
f 139 517 518
f 238 236 19
f 223 247 19
f 382 380 29
f 39 518 498
f 361 359 3
f 69 255 257
f 139 518 528
f 33 545 535
f 387 385 7
f 69 268 269
f 477 462 125
f 454 479 123
f 121 555 447
f 451 435 117
f 454 425 4
f 233 252 8
f 124 463 464
f 69 258 268
f 168 167 166
f 583 153 582
f 384 394 102
f 138 512 513
f 57 210 211
f 254 256 255
f 607 609 142
f 324 319 86
f 289 291 76
f 291 292 76
f 384 102 383
f 422 421 420
f 221 17 197
f 383 102 381
f 376 377 99
f 99 373 374
f 386 105 392
f 438 33 440
f 90 341 343
f 281 75 279
f 574 571 96
f 628 82 312
f 221 222 59
f 127 471 474
f 595 605 603
f 551 538 145
f 334 91 340
f 322 324 85
f 305 303 301
f 18 239 399
f 306 204 16
f 199 198 197
f 166 190 180
f 303 80 301
f 267 266 265
f 626 42 547
f 16 215 213
f 349 351 350
f 295 16 213
f 68 379 252
f 250 251 66
f 627 160 626
f 383 68 256
f 343 88 342
f 507 508 136
f 202 215 16
f 197 198 53
f 254 69 269
f 603 605 156
f 418 419 111
f 384 383 256
f 455 122 476
f 203 204 54
f 556 557 148
f 255 68 253
f 313 84 560
f 25 328 341
f 254 255 69
f 603 156 602
f 581 584 583
f 630 632 112
f 163 246 1
f 246 245 220
f 432 116 558
f 499 591 590
f 320 563 86
f 345 93 350
f 306 16 295
f 346 93 345
f 562 568 149
f 604 605 155
f 154 592 593
f 545 552 535
f 511 522 530
f 574 573 571
f 566 150 565
f 361 98 360
f 67 271 273
f 234 235 65
f 208 211 56
f 574 151 573
f 251 270 66
f 398 8 378
f 213 215 214
f 438 440 439
f 315 314 313
f 263 71 262
f 20 373 384
f 496 134 504
f 329 88 328
f 81 306 316
f 555 556 148
f 592 589 103
f 617 619 107
f 227 207 56
f 571 359 96
f 446 466 465
f 206 216 55
f 359 571 469
f 568 148 570
f 34 437 435
f 28 351 349
f 21 272 282
f 113 423 424
f 490 489 488
f 379 68 383
f 210 212 211
f 80 563 300
f 351 92 350
f 326 346 12
f 83 317 318
f 555 148 554
f 212 231 56
f 218 57 217
f 271 67 246
f 195 196 52
f 270 268 66
f 390 592 103
f 148 568 554
f 495 493 7
f 592 390 593
f 357 95 355
f 574 575 151
f 452 120 451
f 154 591 592
f 587 585 577
f 395 394 396
f 93 349 350
f 610 416 611
f 166 44 190
f 315 23 302
f 315 302 317
f 268 247 66
f 606 154 593
f 396 394 99
f 211 212 56
f 370 369 368
f 235 397 65
f 280 278 22
f 83 315 317
f 575 588 151
f 74 279 280
f 385 495 7
f 63 257 253
f 397 235 398
f 214 58 213
f 220 219 194
f 546 146 545
f 236 225 19
f 599 94 602
f 235 233 8
f 102 394 395
f 611 416 32
f 225 223 19
f 139 528 529
f 231 62 229
f 419 406 421
f 451 450 452
f 49 182 185
f 402 397 107
f 52 199 218
f 416 610 110
f 225 236 244
f 107 397 398
f 68 252 253
f 322 85 321
f 182 181 183
f 118 438 439
f 546 438 118
f 348 77 345
f 543 546 118
f 231 212 232
f 610 611 157
f 33 438 545
f 385 386 103
f 479 480 130
f 169 195 15
f 93 583 349
f 15 195 206
f 190 44 192
f 247 248 66
f 146 552 545
f 248 60 245
f 570 557 564
f 274 271 43
f 63 253 233
f 272 21 249
f 507 528 518
f 67 273 249
f 487 467 126
f 196 195 169
f 624 159 623
f 134 496 497
f 132 503 488
f 104 393 395
f 556 553 89
f 355 356 94
f 258 69 257
f 229 61 227
f 56 231 227
f 460 576 335
f 463 124 461
f 394 373 99
f 29 393 391
f 67 250 245
f 193 198 196
f 462 36 464
f 144 633 630
f 141 526 527
f 517 133 498
f 536 144 630
f 100 372 599
f 144 536 537
f 22 289 287
f 578 579 152
f 579 578 576
f 189 188 187
f 60 223 224
f 92 348 350
f 555 554 447
f 396 377 388
f 194 193 165
f 413 536 630
f 372 352 599
f 377 376 375
f 348 345 350
f 105 386 387
f 240 237 234
f 463 462 464
f 135 500 494
f 45 196 169
f 512 612 387
f 245 60 220
f 429 115 456
f 223 60 248
f 288 289 76
f 525 526 142
f 100 599 601
f 613 29 391
f 526 523 520
f 341 328 343
f 631 641 639
f 264 21 282
f 266 72 265
f 106 402 403
f 73 273 274
f 186 206 205
f 381 379 383
f 52 216 195
f 410 18 399
f 290 272 73
f 72 371 374
f 526 525 527
f 115 430 424
f 498 497 496
f 621 382 29
f 543 118 434
f 214 215 57
f 522 141 530
f 511 510 509
f 352 94 599
f 493 512 7
f 90 340 341
f 169 171 170
f 605 604 606
f 219 60 224
f 104 389 392
f 359 469 3
f 186 49 185
f 222 219 224
f 166 167 44
f 428 427 426
f 523 522 524
f 129 502 481
f 50 185 188
f 164 45 170
f 425 115 424
f 33 428 426
f 427 428 113
f 94 356 602
f 515 138 513
f 114 431 452
f 237 236 238
f 215 217 57
f 95 354 355
f 220 60 219
f 515 514 516
f 183 320 319
f 222 197 53
f 559 569 567
f 300 320 6
f 435 436 117
f 96 360 363
f 640 642 641
f 242 243 62
f 140 537 519
f 508 130 505
f 420 410 399
f 537 539 144
f 317 316 318
f 426 114 450
f 186 15 206
f 311 83 310
f 625 544 307
f 544 10 307
f 168 43 167
f 185 182 188
f 369 354 95
f 44 171 192
f 605 606 156
f 548 549 146
f 100 601 375
f 149 568 569
f 381 380 382
f 455 466 35
f 480 479 454
f 543 548 546
f 493 133 513
f 492 472 37
f 477 125 476
f 491 487 126
f 337 336 338
f 588 153 587
f 576 578 91
f 633 161 632
f 96 359 360
f 39 485 483
f 101 617 378
f 193 45 165
f 163 164 43
f 618 624 611
f 507 136 528
f 561 149 560
f 641 162 639
f 116 561 558
f 494 133 493
f 253 252 233
f 63 237 238
f 392 393 104
f 440 450 117
f 93 581 583
f 386 385 387
f 120 449 451
f 421 422 111
f 486 3 467
f 302 81 317
f 633 632 630
f 462 475 36
f 376 99 374
f 489 490 131
f 447 449 448
f 387 612 105
f 106 420 399
f 173 46 172
f 492 491 472
f 316 306 295
f 22 287 347
f 109 410 420
f 507 39 483
f 559 23 313
f 214 57 211
f 196 45 193
f 10 434 432
f 422 106 403
f 626 160 640
f 487 486 467
f 542 41 532
f 400 106 399
f 444 120 452
f 198 199 52
f 475 127 474
f 621 620 382
f 621 623 159
f 450 114 452
f 92 347 348
f 376 100 375
f 434 118 433
f 503 132 502
f 337 90 336
f 537 536 519
f 395 393 380
f 201 54 200
f 171 44 170
f 355 94 353
f 58 296 213
f 422 420 106
f 595 365 596
f 569 568 570
f 523 140 520
f 114 430 431
f 218 210 57
f 304 566 80
f 639 162 638
f 261 371 72
f 548 147 547
f 498 133 497
f 150 570 564
f 222 224 59
f 142 526 520
f 437 436 435
f 141 522 523
f 137 510 505
f 173 179 176
f 559 149 569
f 121 447 448
f 563 320 300
f 102 395 380
f 257 255 253
f 642 162 641
f 83 311 314
f 216 52 218
f 512 493 513
f 23 304 302
f 91 339 340
f 512 138 612
f 159 620 621
f 218 199 210
f 364 28 575
f 83 318 310
f 168 274 43
f 136 530 528
f 140 523 524
f 495 135 494
f 233 235 234
f 566 563 80
f 25 339 577
f 277 74 276
f 475 462 477
f 133 494 497
f 436 437 116
f 389 386 392
f 548 146 546
f 441 460 5
f 10 309 307
f 65 397 400
f 543 434 544
f 640 641 161
f 272 273 73
f 581 93 346
f 419 421 111
f 319 320 86
f 180 179 178
f 127 475 477
f 231 229 227
f 337 334 340
f 136 508 510
f 308 309 84
f 237 63 234
f 447 554 34
f 252 379 378
f 315 83 314
f 608 622 616
f 338 336 26
f 337 338 89
f 13 275 168
f 209 208 207
f 436 439 117
f 628 312 629
f 360 366 363
f 364 574 96
f 359 361 360
f 466 446 35
f 500 501 134
f 406 109 421
f 135 589 591
f 601 599 602
f 340 90 337
f 481 492 37
f 522 41 524
f 78 316 295
f 131 486 487
f 403 32 414
f 634 626 640
f 151 572 573
f 515 516 138
f 8 252 378
f 265 72 374
f 9 521 519
f 538 549 42
f 368 358 347
f 588 587 586
f 458 453 123
f 589 385 103
f 502 492 481
f 32 416 414
f 430 427 424
f 153 585 587
f 540 144 539
f 370 368 92
f 209 293 58
f 428 33 535
f 326 581 346
f 625 307 82
f 575 28 582
f 6 181 200
f 421 109 420
f 553 121 443
f 160 642 640
f 153 584 585
f 309 432 558
f 334 337 89
f 23 315 313
f 271 163 43
f 296 295 213
f 39 498 496
f 118 439 433
f 531 113 534
f 293 296 58
f 28 362 351
f 489 131 487
f 431 444 452
f 84 558 560
f 98 366 360
f 45 169 170
f 379 101 378
f 462 463 125
f 308 84 314
f 10 432 309
f 299 24 310
f 132 492 502
f 512 387 7
f 639 638 408
f 565 323 86
f 59 244 242
f 106 400 402
f 440 33 426
f 566 565 563
f 617 398 378
f 224 225 59
f 410 109 409
f 239 400 399
f 194 219 53
f 358 22 347
f 610 157 609
f 27 595 603
f 479 484 482
f 142 520 521
f 585 25 577
f 339 578 577
f 408 407 406
f 407 109 406
f 31 408 406
f 407 408 108
f 31 639 408
f 419 31 406
f 608 616 40
f 430 429 431
f 455 35 429
f 35 444 431
f 188 51 187
f 188 182 51
f 51 322 187
f 322 51 319
f 51 182 183
f 319 51 183
f 187 322 321
f 322 319 324
f 381 101 379
f 405 407 108
f 404 405 108
f 286 285 178
f 407 405 409
f 109 407 409
f 191 175 47
f 167 164 170
f 50 184 185
f 44 167 170
f 64 244 236
f 243 244 64
f 50 188 189
f 541 542 145
f 442 445 119
f 339 91 578
f 445 446 119
f 624 623 622
f 611 624 157
f 523 526 141
f 141 527 529
f 527 514 529
f 445 120 444
f 446 445 444
f 35 446 444
f 613 614 158
f 158 614 615
f 623 613 158
f 614 613 391
f 614 612 615
f 371 376 374
f 100 376 371
f 479 482 123
f 373 394 384
f 540 42 634
f 633 540 634
f 538 42 540
f 633 634 161
f 161 634 640
f 42 626 634
f 540 633 144
f 557 556 338
f 553 333 89
f 262 21 264
f 251 21 262
f 5 335 333
f 270 251 262
f 21 251 249
f 600 593 30
f 606 593 600
f 600 30 375
f 593 390 30
f 30 377 375
f 390 388 30
f 30 388 377
f 228 243 241
f 470 478 459
f 470 127 478
f 127 477 478
f 184 186 185
f 478 477 476
f 122 478 476
f 357 74 280
f 518 39 507
f 344 342 85
f 325 344 85
f 342 344 343
f 85 342 321
f 344 90 343
f 90 344 336
f 482 129 481
f 482 481 457
f 482 457 123
f 481 37 457
f 449 447 34
f 435 449 34
f 470 472 471
f 472 470 37
f 470 471 127
f 472 126 471
f 126 468 471
f 470 459 37
f 491 126 472
f 504 129 485
f 221 59 242
f 125 463 465
f 437 34 562
f 561 437 562
f 554 568 562
f 34 554 562
f 437 561 116
f 390 103 389
f 103 386 389
f 392 105 391
f 572 586 580
f 572 580 36
f 586 152 580
f 473 572 36
f 244 243 242
f 225 244 59
f 64 240 241
f 240 239 241
f 237 240 64
f 243 64 241
f 236 237 64
f 411 607 521
f 9 411 521
f 110 607 411
f 607 142 521
f 610 607 110
f 171 15 184
f 171 169 15
f 15 186 184
f 87 584 581
f 153 588 582
f 588 575 582
f 381 102 380
f 573 572 473
f 468 469 128
f 474 468 128
f 469 571 128
f 571 573 128
f 573 473 128
f 473 474 128
f 564 323 565
f 26 323 564
f 323 324 86
f 325 323 26
f 325 324 323
f 563 565 86
f 324 325 85
f 410 230 18
f 230 228 18
f 18 228 241
f 18 241 239
f 401 619 618
f 401 402 107
f 403 402 401
f 619 159 618
f 401 618 32
f 619 401 107
f 403 401 32
f 618 611 32
f 159 624 618
f 478 122 459
f 122 458 459
f 37 459 457
f 459 458 457
f 122 456 458
f 457 458 123
f 191 190 192
f 485 129 484
f 129 482 484
f 483 485 484
f 130 483 484
f 189 187 14
f 191 50 189
f 191 189 175
f 189 14 175
f 14 177 175
f 499 501 500
f 501 499 38
f 38 499 590
f 135 499 500
f 488 501 38
f 499 135 591
f 480 454 4
f 284 12 346
f 4 423 506
f 480 4 506
f 423 531 506
f 480 506 505
f 531 137 506
f 506 137 505
f 365 366 98
f 71 270 262
f 270 71 269
f 71 267 269
f 335 334 333
f 333 334 89
f 334 335 91
f 536 9 519
f 465 463 461
f 537 140 541
f 520 140 519
f 119 446 465
f 465 461 119
f 461 441 119
f 460 441 461
f 176 46 173
f 299 297 24
f 71 263 266
f 263 260 266
f 260 72 266
f 263 70 260
f 205 201 49
f 201 181 49
f 186 205 49
f 181 201 200
f 181 182 49
f 284 77 283
f 586 587 152
f 588 586 151
f 20 267 265
f 266 267 71
f 31 417 631
f 631 417 632
f 31 631 639
f 417 31 419
f 641 631 161
f 417 112 632
f 161 631 632
f 418 417 419
f 417 418 112
f 284 345 77
f 542 550 145
f 542 541 524
f 284 174 12
f 48 174 283
f 373 20 265
f 373 265 374
f 609 608 525
f 608 157 622
f 560 559 313
f 636 637 162
f 541 140 524
f 41 542 524
f 358 357 280
f 70 263 264
f 263 262 264
f 176 177 46
f 174 48 173
f 174 173 172
f 538 551 549
f 538 540 539
f 537 541 539
f 232 221 242
f 17 221 232
f 232 242 62
f 231 232 62
f 203 205 55
f 203 55 202
f 201 205 203
f 202 55 217
f 205 206 55
f 204 203 202
f 73 275 292
f 292 290 73
f 272 290 282
f 290 292 291
f 75 290 291
f 290 75 282
f 70 277 259
f 277 70 281
f 277 281 279
f 260 70 259
f 12 174 172
f 104 396 388
f 367 27 354
f 365 27 367
f 354 27 356
f 365 367 366
f 595 27 365
f 318 299 310
f 155 596 597
f 155 597 598
f 596 594 597
f 595 596 155
f 605 595 155
f 180 47 179
f 180 190 47
f 352 372 11
f 11 372 261
f 312 310 24
f 642 636 162
f 636 297 637
f 367 369 97
f 366 367 97
f 369 367 354
f 369 370 97
f 580 579 464
f 580 152 579
f 579 124 464
f 61 230 409
f 230 410 409
f 230 61 229
f 230 229 228
f 76 285 286
f 353 352 276
f 74 353 276
f 288 76 286
f 288 286 283
f 289 288 287
f 203 54 201
f 287 288 77
f 77 288 283
f 286 48 283
f 531 423 113
f 276 11 259
f 11 261 259
f 277 276 259
f 616 158 615
f 516 616 615
f 138 516 615
f 138 615 612
f 509 533 532
f 503 502 504
f 635 79 294
f 635 294 404
f 635 637 79
f 637 635 638
f 638 635 108
f 635 404 108
f 226 61 405
f 61 226 227
f 405 61 409
f 227 226 207
f 48 178 179
f 48 286 178
f 173 48 179
f 534 143 533
f 534 535 143
f 531 534 533
f 533 143 532
f 137 531 533
f 261 372 371
f 13 180 178
f 285 13 178
f 180 13 166
f 13 168 166
f 346 345 284
f 331 327 46
f 46 327 172
f 172 327 326
f 382 620 101
f 442 121 448
f 443 121 442
f 2 226 404
f 294 2 404
f 404 226 405
f 207 226 2
f 550 551 145
f 552 146 551
f 143 550 532
f 552 550 143
f 330 329 328
f 24 636 629
f 94 352 353
f 352 11 276
f 113 428 534
f 428 535 534
f 509 41 511
f 535 552 143
f 550 552 551
f 550 542 532
f 369 95 368
f 326 327 87
f 87 327 329
f 327 331 329
f 581 326 87
f 293 79 298
f 79 297 298
f 296 298 78
f 79 293 294
f 296 293 298
f 598 490 38
f 358 280 22
f 280 279 278
f 357 358 95
f 74 357 353
f 330 328 25
f 567 23 559
f 590 598 38
f 590 604 598
f 598 604 155
f 604 590 154
f 590 591 154
f 604 154 606
f 297 299 298
f 299 318 78
f 298 299 78
f 355 354 356
f 629 636 642
f 312 24 629
f 629 642 160
f 370 362 97
f 362 363 97
f 363 366 97
f 364 363 362
f 362 370 351
f 96 363 364
f 297 636 24
f 162 637 638
f 637 297 79
f 490 488 38
f 598 597 490
f 441 442 119
f 443 442 441
f 443 441 5
f 442 448 445
f 296 78 295
f 326 12 172
f 575 574 364
f 47 175 176
f 175 177 176
f 47 176 179
