# FEM surface export ¡ª frame 552
# Vertices: 642  Faces: 1280
v -0.51815319 0.89564538 0.00207634
v 0.51870376 0.89972091 0.00476236
v -0.50970834 0.40598649 0.00601273
v 0.48914343 0.33120185 0.01880796
v -0.01312820 0.17758065 0.91922748
v -0.00306802 0.61062032 0.83949453
v 0.01212644 0.13411272 -0.90191853
v 0.00066968 0.61030525 -0.84147388
v 0.93222857 0.21670589 -0.57893032
v 0.92559415 0.21452047 0.55999070
v -0.91850650 0.20785373 -0.57460392
v -0.91525304 0.20962055 0.58657777
v -0.79590303 0.58714384 0.30952975
v -0.49465516 0.42947665 0.82089889
v -0.30412164 0.85742038 0.49216783
v 0.30862615 0.85695100 0.48913640
v -0.00139964 1.02821243 -0.00142844
v 0.30296096 0.85708082 -0.49069816
v -0.30187443 0.85698026 -0.49101877
v -0.51023018 0.44399017 -0.81514597
v -0.79736364 0.58288181 -0.29462925
v -1.09502482 0.20563962 0.01125227
v 0.50683349 0.44412532 0.82234442
v 0.80504006 0.58065820 0.30146518
v -0.60064685 0.00212569 0.92325735
v 0.00825684 0.20641334 1.08148062
v -0.88024968 0.16692097 -0.33729500
v -0.89075500 0.14069268 0.32830647
v -0.01075466 0.20138118 -1.08977008
v -0.57445604 0.00000000 -0.93555593
v 0.80309194 0.58833051 -0.30765104
v 0.50278157 0.43724039 -0.82185614
v 0.89262778 0.14317539 0.36700800
v 0.57377636 0.00285280 0.94956797
v 0.32545358 0.29771397 0.48631349
v -0.29661509 0.35769886 0.47719201
v 0.00645347 0.11090312 0.03869776
v -0.30198821 0.11601780 -0.50451887
v 0.31026229 0.19109648 -0.50635940
v 0.56450933 0.01490514 -0.91418231
v 0.86353308 0.17895420 -0.33747599
v 1.09170425 0.21259248 -0.01771801
v -0.68170047 0.76011026 0.15657893
v -0.57950431 0.74520260 0.41715294
v -0.42769012 0.90626925 0.25642973
v -0.71374524 0.32505265 0.73923284
v -0.68003911 0.52344203 0.59276742
v -0.87032318 0.39880708 0.45516118
v -0.15824662 0.75357550 0.68948823
v -0.41656438 0.65617025 0.67828417
v -0.25496051 0.52769405 0.85576731
v -0.16017741 0.98614377 0.25769901
v -0.26988018 0.99602306 -0.00111313
v 0.15803410 0.75856572 0.68799114
v 0.00178671 0.89767152 0.51575702
v 0.26755288 0.99615878 0.00021741
v 0.15965107 0.98766220 0.25782698
v 0.42703214 0.90579659 0.25564331
v -0.16024269 0.98507905 -0.25746179
v -0.42565805 0.90466321 -0.25541681
v 0.42556304 0.91020459 -0.25329727
v 0.15809862 0.98731679 -0.25685519
v -0.16013525 0.74779236 -0.68648088
v -0.00040240 0.89568442 -0.51635087
v 0.16151075 0.75333339 -0.68875170
v -0.57686007 0.74383360 -0.41238254
v -0.68228722 0.75988746 -0.15387513
v -0.26305816 0.53338748 -0.85398930
v -0.42676693 0.65494847 -0.66990364
v -0.89140588 0.39930129 -0.43340176
v -0.69242400 0.52841204 -0.57489651
v -0.73396790 0.33823824 -0.71559393
v -0.83707607 0.61129230 0.00718636
v -1.04345298 0.20075791 -0.29065838
v -0.97682816 0.39695415 -0.15544046
v -0.96367729 0.39938051 0.17910041
v -1.03276908 0.19958015 0.30463511
v 0.58341342 0.74523216 0.41791856
v 0.68603069 0.76052266 0.15921254
v 0.25623465 0.54374409 0.85967505
v 0.42337456 0.66795629 0.67773438
v 0.87230390 0.39941081 0.43922356
v 0.69046122 0.52536845 0.58527088
v 0.72956109 0.32201019 0.70909518
v -0.25963649 0.31627136 0.99001098
v 0.00256102 0.41099313 0.98304218
v -0.79373127 0.08901274 0.79165745
v -0.55444896 0.19420652 0.92789441
v -0.02489176 0.01518441 1.09287488
v -0.29065588 0.09258836 1.08021450
v -0.31463504 0.11460454 0.94126451
v -1.11897397 0.00000000 0.18932290
v -1.01399267 0.06468299 0.49715254
v -0.99168551 0.00395824 -0.49792138
v -1.09218955 0.04119756 -0.20442151
v -0.73042446 0.31239361 0.17120966
v -0.92644566 0.18775281 -0.01032590
v -0.72205955 0.30719104 -0.16346268
v -0.58298111 0.21457912 -0.92150539
v -0.79311001 0.09060276 -0.79013962
v -0.00855748 0.40975600 -0.97819722
v -0.28250700 0.32800713 -0.99566919
v -0.27178466 0.06110254 -0.95611006
v -0.30613878 0.09062314 -1.09729850
v 0.00857835 0.00077767 -1.12442005
v 0.42604959 0.65593863 -0.67177826
v 0.26250181 0.53759885 -0.86064982
v 0.68522954 0.76353878 -0.15318069
v 0.57950479 0.74735981 -0.41097188
v 0.72988409 0.33317313 -0.73577225
v 0.69087845 0.51984656 -0.58674711
v 0.89082968 0.39725935 -0.45213073
v 0.69740784 0.23412400 0.16924238
v 0.60010487 0.19243217 0.46593773
v 0.46151474 0.28940555 0.28139651
v 0.79673231 0.08873917 0.78334147
v 0.75899619 0.06483623 0.67277813
v 1.00508034 0.03581888 0.51379520
v 0.16957575 0.28443131 0.70481253
v 0.44005904 0.20850773 0.74295092
v 0.28295442 0.06534798 0.95173126
v 0.17137767 0.38180387 0.23283648
v 0.30846816 0.11049614 0.00108804
v -0.18050277 0.24243355 0.68842053
v -0.00013620 0.38222629 0.50577319
v -0.28209138 0.20799798 0.08212854
v -0.13119510 0.20068976 0.28891972
v -0.38989371 0.39523116 0.24214862
v 0.14834186 0.15716678 -0.24424773
v 0.45975143 0.20743082 -0.22996457
v -0.41126275 0.24604926 -0.25310150
v -0.17754894 0.08633897 -0.19972299
v 0.16061866 0.22270028 -0.73575991
v 0.01774763 0.12712887 -0.50543779
v -0.16132611 0.19104183 -0.74845552
v 0.58888447 0.26897937 -0.42282623
v 0.68832093 0.25979978 -0.15589304
v 0.29332337 0.11592226 -0.94281024
v 0.46040574 0.23354144 -0.70788336
v 1.00995052 0.00020567 -0.49137056
v 0.75928408 0.09405782 -0.61901325
v 0.80379224 0.10674580 -0.79400748
v 0.90619731 0.17599942 -0.00210998
v 1.04876649 0.19320710 -0.31419215
v 1.09709907 0.00000000 -0.19130793
v 1.12097311 0.08045118 0.18408374
v 1.04414546 0.20809592 0.28464931
v 0.30523235 0.09208836 1.07747054
v 0.57700622 0.21500005 0.90952069
v 0.27639452 0.33964309 0.98512357
v -0.61608565 0.30892158 0.43018007
v -0.47356692 0.16479307 0.72551548
v -0.79454076 0.03290616 0.62921798
v -0.46367329 0.14905521 -0.72625560
v -0.59977704 0.27339154 -0.45803291
v -0.76420844 0.12061277 -0.65592802
v 0.56133658 0.21859764 -0.94241929
v 0.29741982 0.09173948 -1.10121095
v 0.26801461 0.33125502 -1.00151002
v 0.96900886 0.39612937 0.16065162
v 0.96725309 0.39602694 -0.17578034
v 0.84692603 0.60857433 -0.00338797
v -0.60706645 0.83373022 0.08115719
v -0.56375468 0.84022915 0.21190275
v -0.47894108 0.90818954 0.13104549
v -0.69662476 0.66626012 0.36586881
v -0.63744253 0.75806868 0.29109931
v -0.74511528 0.67621785 0.23329291
v -0.37010691 0.88878244 0.37755036
v -0.50797790 0.83184445 0.34160247
v -0.44754392 0.80922395 0.45950410
v -0.81979162 0.27031210 0.67438728
v -0.80958861 0.36493078 0.60251331
v -0.89734805 0.30421749 0.52761889
v -0.59548390 0.48027998 0.71135116
v -0.70656717 0.42598879 0.66338795
v -0.60735655 0.37499398 0.78437066
v -0.83771664 0.49507958 0.38095069
v -0.78544378 0.46619168 0.52637881
v -0.74959958 0.55384690 0.45266733
v -0.08318228 0.68801838 0.77124178
v -0.21150902 0.64131635 0.77674276
v -0.13194501 0.57317549 0.85350180
v -0.36711019 0.76441234 0.59190333
v -0.29059106 0.71469289 0.68904191
v -0.23325154 0.81253588 0.59647059
v -0.37737009 0.48284319 0.84479135
v -0.33902404 0.59596616 0.77082294
v -0.46205458 0.54465544 0.75393605
v -0.63857889 0.63472176 0.50872278
v -0.55609012 0.59472871 0.64052635
v -0.50627577 0.70835048 0.55353898
v -0.35336778 0.96294540 0.12889318
v -0.39736891 0.95565963 -0.00055366
v -0.23598434 0.93178618 0.37876517
v -0.29644778 0.95457137 0.25867671
v -0.13708937 1.01939940 -0.00156553
v -0.21733215 0.99949127 0.12877078
v -0.08197764 1.01784718 0.12923640
v 0.07731179 0.69219899 0.77233428
v 0.00003546 0.76565456 0.69785941
v 0.15758595 0.88896614 0.50925475
v 0.08222605 0.83601815 0.60833341
v 0.23651120 0.81514198 0.59488070
v -0.07933802 0.83379680 0.60947019
v -0.15348326 0.88709414 0.51006860
v 0.39685827 0.95772946 0.00291008
v 0.35300896 0.96472442 0.13148612
v 0.47790441 0.90921366 0.13078007
v 0.07978886 1.01830804 0.12964483
v 0.21501403 1.00030518 0.12915125
v 0.13370830 1.02197099 -0.00012156
v 0.37172812 0.88903886 0.37605229
v 0.29570654 0.95708174 0.25965890
v 0.23648717 0.93259823 0.37943679
v -0.08155122 0.95285422 0.39174917
v 0.08100556 0.95316893 0.39239696
v -0.00107966 0.99821812 0.26050422
v -0.35094693 0.96013576 -0.13002764
v -0.47502559 0.90697443 -0.12816501
v -0.08188583 1.01847899 -0.13076718
v -0.21653190 0.99821377 -0.13156475
v -0.36770090 0.88943905 -0.37722561
v -0.29609728 0.95365810 -0.25993335
v -0.23196062 0.93034482 -0.37862772
v 0.47605601 0.91322720 -0.12597927
v 0.35100934 0.96570873 -0.12777115
v 0.23458448 0.93427157 -0.37855390
v 0.29448101 0.95558959 -0.25784877
v 0.36823171 0.88956124 -0.37610304
v 0.21437646 1.00045860 -0.12868537
v 0.07938544 1.02011371 -0.13020368
v -0.08094544 0.68248683 -0.77074695
v -0.00188771 0.76019597 -0.69755965
v 0.08066197 0.68611687 -0.76892155
v -0.15254624 0.88226384 -0.50908124
v -0.08133557 0.82832146 -0.60810655
v -0.23263313 0.80778986 -0.59528804
v 0.23524652 0.81125134 -0.59479600
v 0.08029032 0.82994884 -0.60924202
v 0.15366508 0.88786083 -0.51007628
v -0.00107988 0.99901485 -0.26075503
v 0.08022571 0.95394897 -0.39230335
v -0.08061312 0.95238507 -0.39151266
v -0.56070924 0.84085107 -0.20811568
v -0.60615331 0.83506042 -0.07844231
v -0.44517285 0.81039816 -0.45824519
v -0.50803828 0.83263558 -0.33927864
v -0.74592042 0.67250949 -0.22418472
v -0.63607746 0.75793767 -0.28584850
v -0.69480175 0.66988772 -0.35629714
v -0.13093211 0.57320225 -0.85479242
v -0.21399260 0.64235312 -0.77476537
v -0.46978626 0.55033571 -0.74292487
v -0.34864768 0.59360689 -0.76567566
v -0.38677800 0.48355022 -0.83999211
v -0.29677442 0.70628047 -0.68607897
v -0.36724150 0.76052988 -0.58807790
v -0.91535741 0.30962282 -0.50473803
v -0.82317156 0.37758529 -0.58329636
v -0.83647597 0.27483419 -0.64811009
v -0.75345880 0.56080639 -0.43738005
v -0.79763508 0.46836904 -0.50415003
v -0.84991759 0.48928213 -0.36240432
v -0.62586629 0.38635474 -0.77545208
v -0.71827132 0.43468910 -0.64889413
v -0.60959965 0.48872709 -0.70313728
v -0.50730002 0.71413267 -0.54861605
v -0.56337512 0.59656924 -0.62471843
v -0.64025587 0.64047581 -0.49676847
v -0.69108021 0.76767457 0.00072849
v -0.82771027 0.60099018 -0.14654312
v -0.76631153 0.68458885 -0.07630175
v -0.76461899 0.68386215 0.08082761
v -0.82574558 0.60514206 0.16253415
v -0.99351567 0.21087536 -0.43732730
v -0.97777534 0.30493122 -0.37067917
v -1.03221881 0.29377955 -0.08059314
v -1.01380026 0.29959977 -0.22830778
v -1.07344496 0.19356656 -0.14284007
v -0.94196367 0.40410537 -0.29643744
v -0.89610422 0.49273983 -0.22589551
v -0.96084875 0.29963395 0.39076355
v -0.98487407 0.19977678 0.45154896
v -0.88532984 0.49647188 0.24588723
v -0.92303312 0.40681359 0.32102254
v -1.06963503 0.21578176 0.15544413
v -1.00535321 0.30675131 0.24608740
v -1.03419340 0.31406412 0.09226872
v -0.91410160 0.51093125 -0.07142200
v -0.97977322 0.40761322 0.00791573
v -0.91320616 0.51175690 0.09200808
v 0.56373274 0.84335285 0.21146291
v 0.60929304 0.83643115 0.08381982
v 0.45205137 0.80974221 0.45892116
v 0.51258254 0.83280855 0.34078133
v 0.75165212 0.67412925 0.23297450
v 0.64133888 0.76036191 0.29126576
v 0.70214981 0.66728842 0.36531228
v 0.12804006 0.58343333 0.85794330
v 0.20754635 0.65722954 0.78336269
v 0.46567446 0.55830443 0.75859976
v 0.34140182 0.61106020 0.77478141
v 0.38187820 0.49289036 0.84897316
v 0.29391155 0.71952039 0.69427252
v 0.36982194 0.77011240 0.59159178
v 0.90427560 0.29177678 0.50124586
v 0.80957830 0.35298619 0.57322150
v 0.82759631 0.26286539 0.63470244
v 0.75430787 0.55842227 0.44970357
v 0.78978175 0.45953047 0.51399839
v 0.84302372 0.48637602 0.36863613
v 0.62838870 0.39022240 0.77215666
v 0.70487642 0.42142940 0.64446884
v 0.60448617 0.48858085 0.71266252
v 0.50989729 0.71269357 0.55494523
v 0.56177807 0.60335171 0.64033848
v 0.64184558 0.64144272 0.50830609
v -0.12955943 0.47286904 0.92684394
v -0.00089166 0.51033843 0.91433960
v -0.38296643 0.37628189 0.91323245
v -0.25746047 0.42320204 0.92555857
v 0.00749227 0.30508509 1.03947937
v -0.12707147 0.36205885 0.99530321
v -0.13587944 0.25556332 1.05129838
v -0.86236209 0.14918824 0.69149113
v -0.76182789 0.20249566 0.77398175
v -0.59331828 0.08377002 0.95161402
v -0.68062282 0.13973787 0.86579055
v -0.71067345 0.00580463 0.87704968
v -0.64177781 0.25273675 0.84155875
v -0.52548957 0.31241465 0.88399392
v -0.02348871 0.10706976 1.01827371
v -0.17902097 0.09140959 1.04084527
v -0.16007772 0.13832060 0.92801237
v -0.13276544 0.15045899 1.10762107
v -0.16290222 0.01944492 1.10265136
v -0.00016263 0.11177424 1.13116860
v -0.45530882 0.11911897 0.91386068
v -0.33615890 0.00741479 1.03841424
v -0.45748413 0.04092426 1.01654267
v -0.40670332 0.24984530 0.96917486
v -0.43415275 0.13237549 1.01942706
v -0.27879301 0.20020379 1.04585612
v -1.04784095 0.11022440 0.40716848
v -0.97280490 0.11516401 0.54941201
v -1.11011767 0.09858977 0.09479489
v -1.08635533 0.11511928 0.24410540
v -0.95728487 0.04814894 0.39711973
v -1.06429279 0.01983394 0.33689561
v -1.00388992 0.07428715 0.23827432
v -0.97100627 0.10372329 -0.55941546
v -1.03702950 0.11056489 -0.40997797
v -0.98122054 0.10750809 -0.29356670
v -1.04553962 0.00413781 -0.36209676
v -0.95132494 0.09543219 -0.43185180
v -1.07590604 0.09908678 -0.25536555
v -1.12168157 0.10476999 -0.09493688
v -0.62867606 0.37880456 0.08900951
v -0.71796262 0.34644479 0.00943743
v -0.61758572 0.35452408 -0.09396995
v -0.91422975 0.16320762 0.13910061
v -0.84262574 0.27475509 0.06993244
v -0.80910575 0.22154978 0.25516641
v -0.78150362 0.22712968 -0.26415592
v -0.82249033 0.28905854 -0.09730764
v -0.89503223 0.20949836 -0.18127203
v -1.12694347 0.00663701 -0.00964728
v -0.98662442 0.06040319 -0.12438898
v -1.00198317 0.04981580 0.07090401
v -0.77732086 0.21532992 -0.75605446
v -0.86672431 0.12461250 -0.67946392
v -0.54689151 0.32925043 -0.87171435
v -0.66510189 0.26908231 -0.81982690
v -0.68736005 0.01638562 -0.85739529
v -0.69843596 0.15430483 -0.87126619
v -0.59845078 0.10675943 -0.95770180
v -0.00200479 0.51132154 -0.91433835
v -0.13702202 0.47143060 -0.92549753
v -0.14987975 0.26472920 -1.05042839
v -0.14229463 0.36569509 -0.99272072
v -0.00794122 0.30823576 -1.03618550
v -0.27060592 0.43006766 -0.92887676
v -0.39649394 0.38728279 -0.91001588
v -0.11075928 0.06772749 -0.94776320
v -0.12925068 0.00000000 -1.04667962
v 0.02068860 0.06971555 -1.02139258
v -0.45404774 0.06144686 -1.04559720
v -0.30194470 0.00000000 -1.06598246
v -0.43525836 0.00044410 -0.95838320
v -0.01856300 0.09289683 -1.12809992
v -0.16238275 0.03219999 -1.13488460
v -0.16012765 0.14063513 -1.10863757
v -0.43507442 0.27657467 -0.96721292
v -0.29936323 0.21043400 -1.05205297
v -0.44748878 0.15265335 -1.01532519
v 0.21361621 0.64944535 -0.78065050
v 0.13141659 0.57853287 -0.85812020
v 0.36900660 0.76397729 -0.58756250
v 0.29670727 0.71119517 -0.68741602
v 0.38790783 0.48742837 -0.84713727
v 0.34819892 0.60035342 -0.77057081
v 0.47028819 0.55019164 -0.74735630
v 0.60855442 0.84048229 -0.07540799
v 0.56169045 0.84516162 -0.20462154
v 0.69583017 0.67289233 -0.35879487
v 0.63887364 0.76055086 -0.28460139
v 0.74708724 0.67732090 -0.22922675
v 0.50751632 0.83639693 -0.33707187
v 0.44626763 0.80895346 -0.45864865
v 0.83802807 0.28451979 -0.66395283
v 0.82706171 0.36690772 -0.60143358
v 0.92121911 0.30286878 -0.51646131
v 0.60406971 0.48449352 -0.71238571
v 0.71263033 0.41980186 -0.66808051
v 0.61824226 0.38389674 -0.79004288
v 0.84876847 0.49432853 -0.38294026
v 0.79435223 0.46532914 -0.52805746
v 0.75738490 0.56380993 -0.45023465
v 0.51103765 0.70732754 -0.54970586
v 0.64348060 0.63656884 -0.50142848
v 0.56594706 0.59201533 -0.63343489
v 0.61117995 0.29433116 0.08053205
v 0.58747011 0.29371005 0.24130408
v 0.48428825 0.33106980 0.15404259
v 0.73424333 0.11818969 0.39861178
v 0.66912597 0.24612606 0.33947307
v 0.77826744 0.18670607 0.25444442
v 0.38745612 0.31115803 0.38070509
v 0.55379951 0.24285235 0.38519502
v 0.46028998 0.24436559 0.50123173
v 0.86832917 0.15341265 0.67442697
v 0.92114675 0.04258798 0.65810674
v 0.98096305 0.13166890 0.55051064
v 0.66975522 0.00163682 0.81635082
v 0.81255811 0.00098393 0.76367295
v 0.69503397 0.02117391 0.87927902
v 0.94270957 0.00000000 0.42185882
v 0.89240241 0.00000000 0.60231501
v 0.82627523 0.06297399 0.51118118
v 0.07275473 0.21757069 0.80493522
v 0.19632195 0.17569317 0.81375396
v 0.13335890 0.10233791 0.93237400
v 0.38422942 0.28424042 0.64261019
v 0.28128105 0.25239298 0.76341540
v 0.26380149 0.30981544 0.60753042
v 0.42989844 0.02879608 0.97407413
v 0.35462022 0.11941872 0.83208805
v 0.50670731 0.07577120 0.82809103
v 0.64704019 0.09923369 0.53665912
v 0.59335691 0.08927274 0.69374621
v 0.52883983 0.20063229 0.61655974
v 0.40053299 0.19786917 0.15443096
v 0.41444126 0.19831629 0.03373470
v 0.23500879 0.35441831 0.36072978
v 0.31491840 0.34418750 0.23814219
v 0.14862075 0.13346264 0.02011593
v 0.26509306 0.25144699 0.11519545
v 0.13686565 0.22488666 0.15772255
v -0.11809960 0.20026086 0.80458337
v -0.02713664 0.25804138 0.70629263
v -0.14304060 0.34864488 0.48752201
v -0.08164595 0.34140044 0.59984797
v -0.23616001 0.30160284 0.58702248
v 0.08616354 0.34548181 0.63337809
v 0.15228881 0.35132143 0.49466926
v -0.39959261 0.28734168 0.02744505
v -0.30009952 0.37292638 0.15231641
v -0.45457852 0.38539428 0.14138444
v -0.02299692 0.20614000 0.13865174
v -0.15193351 0.33142680 0.13294984
v -0.15507898 0.16829789 0.05778664
v -0.34038705 0.37684149 0.35580987
v -0.20315853 0.38209400 0.24296619
v -0.19336294 0.37491316 0.35777718
v 0.10534663 0.40620273 0.37883577
v -0.06721068 0.38137507 0.37957764
v 0.05376456 0.24699673 0.31293491
v 0.37407041 0.19682103 -0.08886508
v 0.44714484 0.31608942 -0.11878239
v 0.09563190 0.13912995 -0.11497540
v 0.23432498 0.12109673 -0.11584909
v 0.39784169 0.21023500 -0.36492920
v 0.32023960 0.13374726 -0.22576401
v 0.23310325 0.14661862 -0.34135062
v -0.47557074 0.32234865 -0.13916920
v -0.37674433 0.21132939 -0.09518942
v -0.21952160 0.08745050 -0.35496512
v -0.28644642 0.14943816 -0.24369752
v -0.37306747 0.15749229 -0.36671042
v -0.25917545 0.13124302 -0.08689720
v -0.10852408 0.12983319 -0.08574031
v 0.07964095 0.18463001 -0.83088243
v 0.00773315 0.20907813 -0.73265576
v -0.07902637 0.19637045 -0.82881540
v 0.19169758 0.15578784 -0.47281462
v 0.10872892 0.17083173 -0.60569483
v 0.25245765 0.24489348 -0.61758733
v -0.20837487 0.11516428 -0.63883805
v -0.07899314 0.14979993 -0.64316213
v -0.11543459 0.08298420 -0.51489228
v -0.00645556 0.14275597 -0.23248550
v -0.08181375 0.06943165 -0.35142335
v 0.08059575 0.14259923 -0.36711061
v 0.56081617 0.35320717 -0.20289673
v 0.57126135 0.29879239 -0.07764402
v 0.45258486 0.26803648 -0.48076314
v 0.50576144 0.30581310 -0.35057414
v 0.77001637 0.24070847 -0.24101897
v 0.64334995 0.30587807 -0.27700713
v 0.73436338 0.26106739 -0.37069708
v 0.15969272 0.15279867 -0.92175055
v 0.22147611 0.17725192 -0.81066555
v 0.50273234 0.13520963 -0.79599893
v 0.37145978 0.14939180 -0.82511389
v 0.42497581 0.04380870 -0.90043902
v 0.32697520 0.24706836 -0.72881770
v 0.37617984 0.30404153 -0.61161685
v 0.98255301 0.10321702 -0.55520725
v 0.92114198 0.05150615 -0.65334457
v 0.88070714 0.15619899 -0.69030637
v 0.83241212 0.17612635 -0.48755285
v 0.88016278 0.02733256 -0.55389345
v 0.92142683 0.09991092 -0.41071892
v 0.71642256 0.04401475 -0.87309414
v 0.81087869 0.00000000 -0.72315913
v 0.63845944 0.00589445 -0.77678233
v 0.55014026 0.22481248 -0.56903154
v 0.61556125 0.15977950 -0.68720680
v 0.69504249 0.18772636 -0.54386204
v 0.69091916 0.22571570 0.00165092
v 0.85313737 0.16420792 -0.15933067
v 0.79565698 0.19568871 -0.06845759
v 0.79345936 0.18670927 0.08454657
v 0.91130447 0.16003481 0.17732592
v 0.99962783 0.21815230 -0.45020574
v 1.05006528 0.10854936 -0.41826034
v 1.12995481 0.10511664 -0.10532586
v 1.10072565 0.11099848 -0.26223701
v 1.08155560 0.19936992 -0.16569315
v 1.06122577 0.00719734 -0.34643048
v 0.97831428 0.10055958 -0.26990992
v 1.04618990 0.12230995 0.40381765
v 0.99422246 0.20852424 0.42604619
v 0.98178279 0.01948735 0.26301992
v 1.07404757 0.06291052 0.34934101
v 1.07020366 0.21380398 0.13118526
v 1.09726524 0.14321765 0.23873428
v 1.12212861 0.13765699 0.07124723
v 1.00497293 0.10652789 -0.09484532
v 1.13925433 0.01641591 0.00659627
v 0.99094766 0.03752952 0.08104149
v 0.12239394 0.01810686 1.04020894
v 0.45515350 0.07867944 1.03839827
v 0.31569502 0.00531184 1.07273710
v 0.15180849 0.07658825 1.12207246
v 0.15170041 0.16102910 1.09690869
v 0.76891536 0.19971076 0.74347538
v 0.55034304 0.32598794 0.86340839
v 0.66518676 0.26388708 0.81362426
v 0.69147152 0.15507646 0.84827888
v 0.60392267 0.12287743 0.94178349
v 0.13169903 0.47820544 0.92898881
v 0.15179963 0.26602578 1.05120206
v 0.13741998 0.36806586 0.99418485
v 0.26627365 0.43121549 0.92959076
v 0.39787403 0.38352621 0.90796196
v 0.45395666 0.15086055 1.00248611
v 0.42742309 0.27332753 0.95561016
v 0.29913256 0.22400156 1.04020429
v -0.58000642 0.36141017 0.23118694
v -0.43968096 0.29509038 0.43878654
v -0.50587720 0.37139153 0.33964714
v -0.67309910 0.30975261 0.30628854
v -0.74120003 0.23082194 0.39079830
v -0.23693395 0.15686865 0.81663167
v -0.54199803 0.07876095 0.82234621
v -0.37785473 0.16821183 0.80654305
v -0.29071808 0.19669516 0.70550221
v -0.37320870 0.23198834 0.60932994
v -0.91484845 0.05625459 0.65920359
v -0.85246712 0.12359161 0.49512443
v -0.91713357 0.00000165 0.55655193
v -0.82334924 0.00069730 0.74547970
v -0.72786528 0.09794690 0.78943157
v -0.53746688 0.21226367 0.55016440
v -0.62356675 0.10129565 0.67120087
v -0.69254541 0.16342005 0.54537290
v -0.20361371 0.09998577 -0.84491414
v -0.34890306 0.18794230 -0.61406922
v -0.32610846 0.14915794 -0.73876750
v -0.36791676 0.08631424 -0.85395819
v -0.50623930 0.11578745 -0.85708255
v -0.59065175 0.22089945 -0.18928798
v -0.72219455 0.20471585 -0.39869750
v -0.65643090 0.31153765 -0.29685241
v -0.52828425 0.24933691 -0.34580246
v -0.39938983 0.25393844 -0.48842287
v -0.92321569 0.01730958 -0.66313416
v -0.68832582 0.07327895 -0.81218851
v -0.81699753 0.01419577 -0.72795886
v -0.87098145 0.08971306 -0.58233649
v -0.80973506 0.14060906 -0.48498869
v -0.51021940 0.22422668 -0.57945490
v -0.69180655 0.22081907 -0.55586976
v -0.61582881 0.17145665 -0.71731144
v 0.77670163 0.21444260 -0.77310455
v 0.58918619 0.09564834 -0.96060741
v 0.67929494 0.15408255 -0.87379342
v 0.65382457 0.27178141 -0.83943051
v 0.53371984 0.32401344 -0.88540363
v 0.15983723 0.08569266 -1.03682077
v 0.13369814 0.13904898 -1.10189772
v 0.14769264 0.06147237 -1.10107744
v 0.32153457 0.01711383 -1.04467678
v 0.45871779 0.02644167 -1.03628278
v 0.13244526 0.47601867 -0.93143290
v 0.39118901 0.38574541 -0.91872889
v 0.26746771 0.43202189 -0.93076140
v 0.13236763 0.37099978 -1.00079179
v 0.13468015 0.26484883 -1.05863154
v 0.43361861 0.13825019 -1.02183175
v 0.28187037 0.19621944 -1.05375552
v 0.41834244 0.26639995 -0.98451459
v 0.96339709 0.30697340 0.37390396
v 1.03059971 0.30582586 0.07508285
v 1.01946270 0.30772194 0.22820538
v 0.93187994 0.40181851 0.30475497
v 0.89869827 0.49119747 0.23331952
v 0.97736192 0.29947597 -0.38240951
v 0.89466184 0.49141482 -0.24936062
v 0.93851471 0.39555043 -0.31611624
v 1.01896966 0.29464027 -0.24047695
v 1.03817284 0.30851620 -0.09786698
v 0.69591069 0.77275777 0.00113247
v 0.83618885 0.59926224 0.15192957
v 0.77306318 0.68806440 0.08015980
v 0.77135074 0.68669820 -0.07745966
v 0.83251876 0.60340929 -0.15861341
v 0.97812575 0.39906698 -0.00980962
v 0.90770036 0.50143778 -0.09180848
v 0.91626847 0.49885157 0.07278181
f 330 87 329
f 336 325 26
f 207 208 56
f 464 36 580
f 502 129 504
f 157 624 622
f 308 311 82
f 247 223 248
f 507 483 508
f 331 88 329
f 494 500 497
f 156 601 602
f 591 589 592
f 365 98 596
f 75 281 282
f 152 587 577
f 149 559 560
f 555 121 553
f 530 141 529
f 515 517 139
f 361 594 98
f 250 67 249
f 157 608 609
f 294 293 209
f 317 81 316
f 557 338 26
f 303 305 81
f 530 529 528
f 101 381 382
f 415 418 111
f 192 184 50
f 412 110 411
f 20 384 256
f 131 594 486
f 281 264 282
f 347 287 348
f 28 349 582
f 165 163 1
f 248 250 66
f 617 107 398
f 273 271 274
f 456 115 453
f 558 561 560
f 335 576 91
f 331 177 332
f 116 433 436
f 351 370 92
f 136 511 530
f 239 240 65
f 247 258 19
f 304 23 567
f 148 557 570
f 214 208 58
f 440 426 450
f 268 270 269
f 258 247 268
f 204 202 16
f 466 125 465
f 517 513 133
f 168 275 274
f 275 73 274
f 198 193 53
f 309 308 307
f 510 511 136
f 415 416 110
f 131 490 597
f 473 475 474
f 414 415 111
f 493 495 494
f 496 504 485
f 433 116 432
f 600 375 601
f 240 234 65
f 418 415 412
f 486 361 3
f 567 566 304
f 380 393 29
f 17 199 197
f 491 492 132
f 451 449 435
f 218 217 216
f 623 621 613
f 396 104 395
f 433 439 436
f 628 160 627
f 215 202 217
f 209 207 2
f 427 113 424
f 434 10 544
f 434 433 432
f 199 17 210
f 150 564 565
f 489 491 132
f 275 13 285
f 497 500 134
f 125 466 476
f 578 152 577
f 208 214 211
f 328 88 343
f 356 27 603
f 150 566 567
f 372 100 371
f 190 191 47
f 235 8 398
f 260 261 72
f 422 403 414
f 422 414 111
f 453 454 123
f 349 583 582
f 521 520 519
f 425 453 115
f 616 622 158
f 483 130 508
f 151 586 572
f 212 17 232
f 400 397 402
f 377 396 99
f 41 522 511
f 510 508 505
f 549 547 42
f 475 473 36
f 510 137 509
f 222 221 197
f 430 115 429
f 220 194 1
f 305 54 204
f 621 29 613
f 192 171 184
f 460 335 5
f 88 331 332
f 74 277 279
f 300 301 80
f 390 389 388
f 165 45 164
f 146 549 551
f 291 278 75
f 448 120 445
f 147 543 544
f 607 610 609
f 603 602 356
f 139 529 514
f 333 553 443
f 92 368 347
f 261 260 259
f 300 6 200
f 46 177 331
f 284 283 174
f 301 300 200
f 471 468 474
f 54 305 301
f 302 304 303
f 569 150 567
f 150 569 570
f 294 209 2
f 628 629 160
f 548 543 147
f 147 625 627
f 63 233 234
f 426 427 114
f 41 509 532
f 198 52 196
f 614 105 612
f 147 627 547
f 81 305 306
f 549 548 547
f 54 301 200
f 342 88 332
f 264 281 70
f 193 194 53
f 455 429 456
f 187 321 14
f 479 130 484
f 147 544 625
f 458 456 453
f 304 80 303
f 314 84 313
f 488 503 501
f 321 332 14
f 423 425 424
f 305 204 306
f 341 339 25
f 514 40 516
f 625 628 627
f 340 339 341
f 105 614 391
f 243 228 62
f 318 316 78
f 75 278 279
f 357 355 353
f 238 257 63
f 466 455 476
f 425 423 4
f 448 449 120
f 408 638 108
f 292 275 285
f 22 278 289
f 515 513 517
f 501 503 134
f 622 623 158
f 134 503 504
f 195 216 206
f 163 271 246
f 619 617 620
f 62 228 229
f 163 165 164
f 453 425 454
f 489 132 488
f 82 628 625
f 58 208 209
f 525 608 40
f 626 547 627
f 518 517 498
f 489 487 491
f 557 26 564
f 325 336 344
f 541 145 539
f 40 616 516
f 338 556 89
f 250 248 245
f 139 514 515
f 98 594 596
f 246 220 1
f 112 413 630
f 9 536 413
f 156 600 601
f 332 177 14
f 321 342 332
f 156 606 600
f 584 330 585
f 302 303 81
f 584 87 330
f 330 25 585
f 400 239 65
f 439 440 117
f 95 358 368
f 597 594 131
f 594 361 486
f 246 67 245
f 561 562 149
f 28 364 362
f 55 216 217
f 427 430 114
f 267 20 254
f 556 555 553
f 84 309 558
f 311 310 312
f 609 525 142
f 256 68 255
f 124 460 461
f 82 311 312
f 307 308 82
f 589 135 495
f 527 40 514
f 112 418 412
f 20 256 254
f 258 238 19
f 267 254 269
f 273 272 249
f 392 391 393
f 137 533 509
f 122 455 456
f 9 413 411
f 130 480 505
f 333 443 5
f 527 525 40
f 589 495 385
f 39 496 485
f 223 225 224
f 414 416 415
f 219 222 53
f 145 538 539
f 413 412 411
f 469 468 467
f 183 181 6
f 191 192 50
f 429 35 431
f 292 285 76
f 413 112 412
f 415 110 412
f 43 164 167
f 467 468 126
f 617 101 620
f 450 451 117
f 438 546 545
f 619 620 159
f 17 212 210
f 124 579 576
f 584 153 583
f 460 124 576
f 3 469 467
f 311 308 314
f 6 320 183
f 389 104 388
f 251 250 249
f 194 165 1
f 291 289 278
f 287 77 348
f 238 258 257
f 139 517 518
f 238 236 19
f 223 247 19
f 382 380 29
f 39 518 498
f 361 359 3
f 69 255 257
f 139 518 528
f 33 545 535
f 387 385 7
f 69 268 269
f 477 462 125
f 454 479 123
f 121 555 447
f 451 435 117
f 454 425 4
f 233 252 8
f 124 463 464
f 69 258 268
f 168 167 166
f 583 153 582
f 384 394 102
f 138 512 513
f 57 210 211
f 254 256 255
f 607 609 142
f 324 319 86
f 289 291 76
f 291 292 76
f 384 102 383
f 422 421 420
f 221 17 197
f 383 102 381
f 376 377 99
f 99 373 374
f 386 105 392
f 438 33 440
f 90 341 343
f 281 75 279
f 574 571 96
f 628 82 312
f 221 222 59
f 127 471 474
f 595 605 603
f 551 538 145
f 334 91 340
f 322 324 85
f 305 303 301
f 18 239 399
f 306 204 16
f 199 198 197
f 166 190 180
f 303 80 301
f 267 266 265
f 626 42 547
f 16 215 213
f 349 351 350
f 295 16 213
f 68 379 252
f 250 251 66
f 627 160 626
f 383 68 256
f 343 88 342
f 507 508 136
f 202 215 16
f 197 198 53
f 254 69 269
f 603 605 156
f 418 419 111
f 384 383 256
f 455 122 476
f 203 204 54
f 556 557 148
f 255 68 253
f 313 84 560
f 25 328 341
f 254 255 69
f 603 156 602
f 581 584 583
f 630 632 112
f 163 246 1
f 246 245 220
f 432 116 558
f 499 591 590
f 320 563 86
f 345 93 350
f 306 16 295
f 346 93 345
f 562 568 149
f 604 605 155
f 154 592 593
f 545 552 535
f 511 522 530
f 574 573 571
f 566 150 565
f 361 98 360
f 67 271 273
f 234 235 65
f 208 211 56
f 574 151 573
f 251 270 66
f 398 8 378
f 213 215 214
f 438 440 439
f 315 314 313
f 263 71 262
f 20 373 384
f 496 134 504
f 329 88 328
f 81 306 316
f 555 556 148
f 592 589 103
f 617 619 107
f 227 207 56
f 571 359 96
f 446 466 465
f 206 216 55
f 359 571 469
f 568 148 570
f 34 437 435
f 28 351 349
f 21 272 282
f 113 423 424
f 490 489 488
f 379 68 383
f 210 212 211
f 80 563 300
f 351 92 350
f 326 346 12
f 83 317 318
f 555 148 554
f 212 231 56
f 218 57 217
f 271 67 246
f 195 196 52
f 270 268 66
f 390 592 103
f 148 568 554
f 495 493 7
f 592 390 593
f 357 95 355
f 574 575 151
f 452 120 451
f 154 591 592
f 587 585 577
f 395 394 396
f 93 349 350
f 610 416 611
f 166 44 190
f 315 23 302
f 315 302 317
f 268 247 66
f 606 154 593
f 396 394 99
f 211 212 56
f 370 369 368
f 235 397 65
f 280 278 22
f 83 315 317
f 575 588 151
f 74 279 280
f 385 495 7
f 63 257 253
f 397 235 398
f 214 58 213
f 220 219 194
f 546 146 545
f 236 225 19
f 599 94 602
f 235 233 8
f 102 394 395
f 611 416 32
f 225 223 19
f 139 528 529
f 231 62 229
f 419 406 421
f 451 450 452
f 49 182 185
f 402 397 107
f 52 199 218
f 416 610 110
f 225 236 244
f 107 397 398
f 68 252 253
f 322 85 321
f 182 181 183
f 118 438 439
f 546 438 118
f 348 77 345
f 543 546 118
f 231 212 232
f 610 611 157
f 33 438 545
f 385 386 103
f 479 480 130
f 169 195 15
f 93 583 349
f 15 195 206
f 190 44 192
f 247 248 66
f 146 552 545
f 248 60 245
f 570 557 564
f 274 271 43
f 63 253 233
f 272 21 249
f 507 528 518
f 67 273 249
f 487 467 126
f 196 195 169
f 624 159 623
f 134 496 497
f 132 503 488
f 104 393 395
f 556 553 89
f 355 356 94
f 258 69 257
f 229 61 227
f 56 231 227
f 460 576 335
f 463 124 461
f 394 373 99
f 29 393 391
f 67 250 245
f 193 198 196
f 462 36 464
f 144 633 630
f 141 526 527
f 517 133 498
f 536 144 630
f 100 372 599
f 144 536 537
f 22 289 287
f 578 579 152
f 579 578 576
f 189 188 187
f 60 223 224
f 92 348 350
f 555 554 447
f 396 377 388
f 194 193 165
f 413 536 630
f 372 352 599
f 377 376 375
f 348 345 350
f 105 386 387
f 240 237 234
f 463 462 464
f 135 500 494
f 45 196 169
f 512 612 387
f 245 60 220
f 429 115 456
f 223 60 248
f 288 289 76
f 525 526 142
f 100 599 601
f 613 29 391
f 526 523 520
f 341 328 343
f 631 641 639
f 264 21 282
f 266 72 265
f 106 402 403
f 73 273 274
f 186 206 205
f 381 379 383
f 52 216 195
f 410 18 399
f 290 272 73
f 72 371 374
f 526 525 527
f 115 430 424
f 498 497 496
f 621 382 29
f 543 118 434
f 214 215 57
f 522 141 530
f 511 510 509
f 352 94 599
f 493 512 7
f 90 340 341
f 169 171 170
f 605 604 606
f 219 60 224
f 104 389 392
f 359 469 3
f 186 49 185
f 222 219 224
f 166 167 44
f 428 427 426
f 523 522 524
f 129 502 481
f 50 185 188
f 164 45 170
f 425 115 424
f 33 428 426
f 427 428 113
f 94 356 602
f 515 138 513
f 114 431 452
f 237 236 238
f 215 217 57
f 95 354 355
f 220 60 219
f 515 514 516
f 183 320 319
f 222 197 53
f 559 569 567
f 300 320 6
f 435 436 117
f 96 360 363
f 640 642 641
f 242 243 62
f 140 537 519
f 508 130 505
f 420 410 399
f 537 539 144
f 317 316 318
f 426 114 450
f 186 15 206
f 311 83 310
f 625 544 307
f 544 10 307
f 168 43 167
f 185 182 188
f 369 354 95
f 44 171 192
f 605 606 156
f 548 549 146
f 100 601 375
f 149 568 569
f 381 380 382
f 455 466 35
f 480 479 454
f 543 548 546
f 493 133 513
f 492 472 37
f 477 125 476
f 491 487 126
f 337 336 338
f 588 153 587
f 576 578 91
f 633 161 632
f 96 359 360
f 39 485 483
f 101 617 378
f 193 45 165
f 163 164 43
f 618 624 611
f 507 136 528
f 561 149 560
f 641 162 639
f 116 561 558
f 494 133 493
f 253 252 233
f 63 237 238
f 392 393 104
f 440 450 117
f 93 581 583
f 386 385 387
f 120 449 451
f 421 422 111
f 486 3 467
f 302 81 317
f 633 632 630
f 462 475 36
f 376 99 374
f 489 490 131
f 447 449 448
f 387 612 105
f 106 420 399
f 173 46 172
f 492 491 472
f 316 306 295
f 22 287 347
f 109 410 420
f 507 39 483
f 559 23 313
f 214 57 211
f 196 45 193
f 10 434 432
f 422 106 403
f 626 160 640
f 487 486 467
f 542 41 532
f 400 106 399
f 444 120 452
f 198 199 52
f 475 127 474
f 621 620 382
f 621 623 159
f 450 114 452
f 92 347 348
f 376 100 375
f 434 118 433
f 503 132 502
f 337 90 336
f 537 536 519
f 395 393 380
f 201 54 200
f 171 44 170
f 355 94 353
f 58 296 213
f 422 420 106
f 595 365 596
f 569 568 570
f 523 140 520
f 114 430 431
f 218 210 57
f 304 566 80
f 639 162 638
f 261 371 72
f 548 147 547
f 498 133 497
f 150 570 564
f 222 224 59
f 142 526 520
f 437 436 435
f 141 522 523
f 137 510 505
f 173 179 176
f 559 149 569
f 121 447 448
f 563 320 300
f 102 395 380
f 257 255 253
f 642 162 641
f 83 311 314
f 216 52 218
f 512 493 513
f 23 304 302
f 91 339 340
f 512 138 612
f 159 620 621
f 218 199 210
f 364 28 575
f 83 318 310
f 168 274 43
f 136 530 528
f 140 523 524
f 495 135 494
f 233 235 234
f 566 563 80
f 25 339 577
f 277 74 276
f 475 462 477
f 133 494 497
f 436 437 116
f 389 386 392
f 548 146 546
f 441 460 5
f 10 309 307
f 65 397 400
f 543 434 544
f 640 641 161
f 272 273 73
f 581 93 346
f 419 421 111
f 319 320 86
f 180 179 178
f 127 475 477
f 231 229 227
f 337 334 340
f 136 508 510
f 308 309 84
f 237 63 234
f 447 554 34
f 252 379 378
f 315 83 314
f 608 622 616
f 338 336 26
f 337 338 89
f 13 275 168
f 209 208 207
f 436 439 117
f 628 312 629
f 360 366 363
f 364 574 96
f 359 361 360
f 466 446 35
f 500 501 134
f 406 109 421
f 135 589 591
f 601 599 602
f 340 90 337
f 481 492 37
f 522 41 524
f 78 316 295
f 131 486 487
f 403 32 414
f 634 626 640
f 151 572 573
f 515 516 138
f 8 252 378
f 265 72 374
f 9 521 519
f 538 549 42
f 368 358 347
f 588 587 586
f 458 453 123
f 589 385 103
f 502 492 481
f 32 416 414
f 430 427 424
f 153 585 587
f 540 144 539
f 370 368 92
f 209 293 58
f 428 33 535
f 326 581 346
f 625 307 82
f 575 28 582
f 6 181 200
f 421 109 420
f 553 121 443
f 160 642 640
f 153 584 585
f 309 432 558
f 334 337 89
f 23 315 313
f 271 163 43
f 296 295 213
f 39 498 496
f 118 439 433
f 531 113 534
f 293 296 58
f 28 362 351
f 489 131 487
f 431 444 452
f 84 558 560
f 98 366 360
f 45 169 170
f 379 101 378
f 462 463 125
f 308 84 314
f 10 432 309
f 299 24 310
f 132 492 502
f 512 387 7
f 639 638 408
f 565 323 86
f 59 244 242
f 106 400 402
f 440 33 426
f 566 565 563
f 617 398 378
f 224 225 59
f 410 109 409
f 239 400 399
f 194 219 53
f 358 22 347
f 610 157 609
f 27 595 603
f 479 484 482
f 142 520 521
f 585 25 577
f 339 578 577
f 408 407 406
f 407 109 406
f 31 408 406
f 407 408 108
f 31 639 408
f 419 31 406
f 608 616 40
f 430 429 431
f 455 35 429
f 35 444 431
f 188 51 187
f 188 182 51
f 51 322 187
f 322 51 319
f 51 182 183
f 319 51 183
f 187 322 321
f 322 319 324
f 381 101 379
f 405 407 108
f 404 405 108
f 286 285 178
f 407 405 409
f 109 407 409
f 191 175 47
f 167 164 170
f 50 184 185
f 44 167 170
f 64 244 236
f 243 244 64
f 50 188 189
f 541 542 145
f 442 445 119
f 339 91 578
f 445 446 119
f 624 623 622
f 611 624 157
f 523 526 141
f 141 527 529
f 527 514 529
f 445 120 444
f 446 445 444
f 35 446 444
f 613 614 158
f 158 614 615
f 623 613 158
f 614 613 391
f 614 612 615
f 371 376 374
f 100 376 371
f 479 482 123
f 373 394 384
f 540 42 634
f 633 540 634
f 538 42 540
f 633 634 161
f 161 634 640
f 42 626 634
f 540 633 144
f 557 556 338
f 553 333 89
f 262 21 264
f 251 21 262
f 5 335 333
f 270 251 262
f 21 251 249
f 600 593 30
f 606 593 600
f 600 30 375
f 593 390 30
f 30 377 375
f 390 388 30
f 30 388 377
f 228 243 241
f 470 478 459
f 470 127 478
f 127 477 478
f 184 186 185
f 478 477 476
f 122 478 476
f 357 74 280
f 518 39 507
f 344 342 85
f 325 344 85
f 342 344 343
f 85 342 321
f 344 90 343
f 90 344 336
f 482 129 481
f 482 481 457
f 482 457 123
f 481 37 457
f 449 447 34
f 435 449 34
f 470 472 471
f 472 470 37
f 470 471 127
f 472 126 471
f 126 468 471
f 470 459 37
f 491 126 472
f 504 129 485
f 221 59 242
f 125 463 465
f 437 34 562
f 561 437 562
f 554 568 562
f 34 554 562
f 437 561 116
f 390 103 389
f 103 386 389
f 392 105 391
f 572 586 580
f 572 580 36
f 586 152 580
f 473 572 36
f 244 243 242
f 225 244 59
f 64 240 241
f 240 239 241
f 237 240 64
f 243 64 241
f 236 237 64
f 411 607 521
f 9 411 521
f 110 607 411
f 607 142 521
f 610 607 110
f 171 15 184
f 171 169 15
f 15 186 184
f 87 584 581
f 153 588 582
f 588 575 582
f 381 102 380
f 573 572 473
f 468 469 128
f 474 468 128
f 469 571 128
f 571 573 128
f 573 473 128
f 473 474 128
f 564 323 565
f 26 323 564
f 323 324 86
f 325 323 26
f 325 324 323
f 563 565 86
f 324 325 85
f 410 230 18
f 230 228 18
f 18 228 241
f 18 241 239
f 401 619 618
f 401 402 107
f 403 402 401
f 619 159 618
f 401 618 32
f 619 401 107
f 403 401 32
f 618 611 32
f 159 624 618
f 478 122 459
f 122 458 459
f 37 459 457
f 459 458 457
f 122 456 458
f 457 458 123
f 191 190 192
f 485 129 484
f 129 482 484
f 483 485 484
f 130 483 484
f 189 187 14
f 191 50 189
f 191 189 175
f 189 14 175
f 14 177 175
f 499 501 500
f 501 499 38
f 38 499 590
f 135 499 500
f 488 501 38
f 499 135 591
f 480 454 4
f 284 12 346
f 4 423 506
f 480 4 506
f 423 531 506
f 480 506 505
f 531 137 506
f 506 137 505
f 365 366 98
f 71 270 262
f 270 71 269
f 71 267 269
f 335 334 333
f 333 334 89
f 334 335 91
f 536 9 519
f 465 463 461
f 537 140 541
f 520 140 519
f 119 446 465
f 465 461 119
f 461 441 119
f 460 441 461
f 176 46 173
f 299 297 24
f 71 263 266
f 263 260 266
f 260 72 266
f 263 70 260
f 205 201 49
f 201 181 49
f 186 205 49
f 181 201 200
f 181 182 49
f 284 77 283
f 586 587 152
f 588 586 151
f 20 267 265
f 266 267 71
f 31 417 631
f 631 417 632
f 31 631 639
f 417 31 419
f 641 631 161
f 417 112 632
f 161 631 632
f 418 417 419
f 417 418 112
f 284 345 77
f 542 550 145
f 542 541 524
f 284 174 12
f 48 174 283
f 373 20 265
f 373 265 374
f 609 608 525
f 608 157 622
f 560 559 313
f 636 637 162
f 541 140 524
f 41 542 524
f 358 357 280
f 70 263 264
f 263 262 264
f 176 177 46
f 174 48 173
f 174 173 172
f 538 551 549
f 538 540 539
f 537 541 539
f 232 221 242
f 17 221 232
f 232 242 62
f 231 232 62
f 203 205 55
f 203 55 202
f 201 205 203
f 202 55 217
f 205 206 55
f 204 203 202
f 73 275 292
f 292 290 73
f 272 290 282
f 290 292 291
f 75 290 291
f 290 75 282
f 70 277 259
f 277 70 281
f 277 281 279
f 260 70 259
f 12 174 172
f 104 396 388
f 367 27 354
f 365 27 367
f 354 27 356
f 365 367 366
f 595 27 365
f 318 299 310
f 155 596 597
f 155 597 598
f 596 594 597
f 595 596 155
f 605 595 155
f 180 47 179
f 180 190 47
f 352 372 11
f 11 372 261
f 312 310 24
f 642 636 162
f 636 297 637
f 367 369 97
f 366 367 97
f 369 367 354
f 369 370 97
f 580 579 464
f 580 152 579
f 579 124 464
f 61 230 409
f 230 410 409
f 230 61 229
f 230 229 228
f 76 285 286
f 353 352 276
f 74 353 276
f 288 76 286
f 288 286 283
f 289 288 287
f 203 54 201
f 287 288 77
f 77 288 283
f 286 48 283
f 531 423 113
f 276 11 259
f 11 261 259
f 277 276 259
f 616 158 615
f 516 616 615
f 138 516 615
f 138 615 612
f 509 533 532
f 503 502 504
f 635 79 294
f 635 294 404
f 635 637 79
f 637 635 638
f 638 635 108
f 635 404 108
f 226 61 405
f 61 226 227
f 405 61 409
f 227 226 207
f 48 178 179
f 48 286 178
f 173 48 179
f 534 143 533
f 534 535 143
f 531 534 533
f 533 143 532
f 137 531 533
f 261 372 371
f 13 180 178
f 285 13 178
f 180 13 166
f 13 168 166
f 346 345 284
f 331 327 46
f 46 327 172
f 172 327 326
f 382 620 101
f 442 121 448
f 443 121 442
f 2 226 404
f 294 2 404
f 404 226 405
f 207 226 2
f 550 551 145
f 552 146 551
f 143 550 532
f 552 550 143
f 330 329 328
f 24 636 629
f 94 352 353
f 352 11 276
f 113 428 534
f 428 535 534
f 509 41 511
f 535 552 143
f 550 552 551
f 550 542 532
f 369 95 368
f 326 327 87
f 87 327 329
f 327 331 329
f 581 326 87
f 293 79 298
f 79 297 298
f 296 298 78
f 79 293 294
f 296 293 298
f 598 490 38
f 358 280 22
f 280 279 278
f 357 358 95
f 74 357 353
f 330 328 25
f 567 23 559
f 590 598 38
f 590 604 598
f 598 604 155
f 604 590 154
f 590 591 154
f 604 154 606
f 297 299 298
f 299 318 78
f 298 299 78
f 355 354 356
f 629 636 642
f 312 24 629
f 629 642 160
f 370 362 97
f 362 363 97
f 363 366 97
f 364 363 362
f 362 370 351
f 96 363 364
f 297 636 24
f 162 637 638
f 637 297 79
f 490 488 38
f 598 597 490
f 441 442 119
f 443 442 441
f 443 441 5
f 442 448 445
f 296 78 295
f 326 12 172
f 575 574 364
f 47 175 176
f 175 177 176
f 47 176 179
