# FEM surface export ¡ª frame 367
# Vertices: 642  Faces: 1280
v -0.52236480 1.24833488 -0.00098288
v 0.52269512 1.24657941 0.00064205
v -0.62179923 0.00002479 -0.01768876
v 0.58978248 0.04662842 0.01545620
v -0.00027175 0.04076847 0.95235527
v -0.00114358 0.96247315 0.86490679
v -0.00062671 0.04690119 -0.96397376
v -0.00127323 0.96178377 -0.86334175
v 0.90150279 0.48510823 -0.55748302
v 0.90152580 0.48542422 0.55741298
v -0.90095198 0.48362461 -0.55677259
v -0.90038574 0.48912254 0.55667317
v -0.82384908 0.93695265 0.31461653
v -0.51581192 0.76649332 0.83526039
v -0.30832711 1.21204317 0.49753830
v 0.30816904 1.21162486 0.49877948
v 0.00055385 1.38046646 0.00030774
v 0.30818516 1.21246970 -0.49717784
v -0.30794600 1.21235621 -0.49886835
v -0.51757580 0.76437885 -0.83490574
v -0.82399917 0.93754643 -0.31558579
v -1.05764163 0.48113230 -0.00051832
v 0.51743764 0.76720476 0.83657944
v 0.82409137 0.93823689 0.31425452
v -0.54287106 0.21103992 0.88362569
v 0.00180741 0.48373568 1.05931032
v -0.90842056 0.05395781 -0.34224722
v -0.90161854 0.05377393 0.34870628
v -0.00159828 0.48750153 -1.05747151
v -0.54158515 0.20866102 -0.88000959
v 0.82412130 0.93671668 -0.31565061
v 0.51426089 0.76563364 -0.83577931
v 0.89659631 0.04554753 0.34032911
v 0.54727572 0.20812443 0.88062245
v 0.35107937 0.00000000 0.58708274
v -0.36482066 0.00000000 0.57906336
v 0.01223999 0.00000000 0.00760945
v -0.35983047 0.00000000 -0.56954169
v 0.36437765 0.00000000 -0.54265386
v 0.54664260 0.20511523 -0.88401353
v 0.90098256 0.05020137 -0.34296700
v 1.06237066 0.48667303 -0.00087643
v -0.69623256 1.11748207 0.16030335
v -0.59007579 1.10615921 0.42639339
v -0.43133438 1.25876832 0.25696138
v -0.73160541 0.63271773 0.72333610
v -0.70370895 0.87128907 0.60080218
v -0.89316624 0.72217363 0.44830289
v -0.16120370 1.11016512 0.70432091
v -0.43072173 1.01713181 0.69525534
v -0.26607424 0.88004905 0.88322276
v -0.15987472 1.33636963 0.25988588
v -0.26929235 1.34660530 -0.00001187
v 0.15989298 1.10979879 0.70455885
v 0.00010202 1.24777102 0.52240616
v 0.27002329 1.34580719 0.00083562
v 0.16171218 1.33720469 0.26066974
v 0.43177995 1.25774598 0.25830364
v -0.16012131 1.33679688 -0.26064408
v -0.43075401 1.25942826 -0.25853214
v 0.43159640 1.25909436 -0.25716582
v 0.16085960 1.33703578 -0.25991815
v -0.16085012 1.10912049 -0.70395118
v 0.00161023 1.24779022 -0.52253550
v 0.16152357 1.10966146 -0.70450568
v -0.59085256 1.10505438 -0.42746609
v -0.69597310 1.11683357 -0.16235903
v -0.26717111 0.87769794 -0.88055867
v -0.43018556 1.01646960 -0.69573599
v -0.89503187 0.72113198 -0.45014092
v -0.70403367 0.87011921 -0.60116762
v -0.73475850 0.63063985 -0.72447920
v -0.86494660 0.96055001 -0.00079804
v -1.01925087 0.48293880 -0.28950518
v -0.98826808 0.72351927 -0.16938677
v -0.98502648 0.72225910 0.16659062
v -1.01843154 0.48338389 0.28843540
v 0.59051615 1.10328496 0.42764577
v 0.69513345 1.11623597 0.16065867
v 0.26539680 0.87792796 0.88335305
v 0.42930987 1.01572442 0.69574738
v 0.89461553 0.72239769 0.45053411
v 0.70566338 0.87256157 0.60230869
v 0.73463863 0.63345462 0.72327769
v -0.27359480 0.63253778 0.99347925
v -0.00026113 0.73359722 0.99752963
v -0.75284135 0.34310374 0.74617004
v -0.55374813 0.48768052 0.89945954
v 0.00332608 0.23415515 1.04511201
v -0.27917168 0.33760771 1.02398729
v -0.28398538 0.09997559 0.95229888
v -1.03087199 0.24811041 0.17777355
v -0.93486273 0.25337699 0.47185487
v -0.93292558 0.25080177 -0.46961102
v -1.03125310 0.24769120 -0.17691521
v -0.81000948 0.00000000 0.18970741
v -0.95638835 0.03468352 0.00497141
v -0.80443716 0.00000000 -0.18902640
v -0.55687261 0.48610482 -0.89971113
v -0.75109994 0.33954549 -0.74292791
v -0.00118179 0.73521924 -0.99547571
v -0.27546352 0.63340867 -0.99421000
v -0.28835636 0.10019320 -0.95594406
v -0.28146830 0.33651853 -1.01858711
v 0.00108757 0.24149776 -1.04502904
v 0.43018341 1.01545656 -0.69586724
v 0.26527637 0.87832993 -0.88217199
v 0.69580072 1.11518002 -0.16158336
v 0.59079885 1.10367393 -0.42560408
v 0.73286855 0.63209039 -0.72482276
v 0.70407450 0.87110966 -0.60329360
v 0.89525652 0.72162539 -0.45220378
v 0.79739451 0.00000000 0.18841772
v 0.67327327 0.00000000 0.49527591
v 0.49416351 0.00007478 0.30519301
v 0.75562948 0.34097829 0.74721944
v 0.75825685 0.10637125 0.64464641
v 0.93478429 0.24910088 0.46908095
v 0.18477286 0.00000000 0.81688935
v 0.48508242 0.00000000 0.77823520
v 0.28995395 0.09932870 0.95246530
v 0.16385497 0.00041023 0.29080537
v 0.28341162 0.00746126 0.00332253
v -0.19358790 0.00000000 0.82665825
v -0.00693905 0.00000000 0.60307306
v -0.29502720 0.00000000 -0.00289932
v -0.16380115 0.00000000 0.27753389
v -0.50208515 0.00000000 0.28232476
v 0.18961324 0.00354064 -0.27763426
v 0.48164722 0.00326706 -0.25968787
v -0.48894271 0.00000000 -0.30999282
v -0.17453302 0.00000000 -0.28740451
v 0.18234004 0.00000000 -0.79753822
v 0.00192037 0.00000000 -0.58438307
v -0.18184625 0.00000000 -0.80606359
v 0.68267959 0.00000000 -0.48372963
v 0.80130935 0.00000000 -0.17405985
v 0.28973797 0.10848704 -0.95842582
v 0.48176113 0.00070523 -0.77515644
v 0.93730235 0.24864815 -0.47032046
v 0.75728005 0.10628854 -0.64680761
v 0.75510544 0.33951491 -0.74596822
v 0.95207429 0.03743623 -0.00340022
v 1.02004170 0.48624343 -0.29086035
v 1.03062558 0.24731004 -0.17714609
v 1.03294206 0.25042608 0.17667398
v 1.01763189 0.48597702 0.28913090
v 0.28311822 0.33634865 1.01937234
v 0.55782419 0.48848391 0.90151167
v 0.27533776 0.63349146 0.99359369
v -0.68162465 0.00000000 0.50084174
v -0.48551482 0.01771140 0.78747576
v -0.76116693 0.11694550 0.64706933
v -0.47360358 0.00000000 -0.77501196
v -0.67910999 0.00000000 -0.49152336
v -0.75757265 0.10930564 -0.64865416
v 0.55652601 0.48604137 -0.89977759
v 0.28177446 0.34420982 -1.02292883
v 0.27450478 0.63424468 -0.99343836
v 0.98660511 0.72440600 0.16801786
v 0.98573285 0.72401386 -0.16851859
v 0.86453694 0.96054840 -0.00053405
v -0.61401850 1.18957794 0.08032467
v -0.56917071 1.19729209 0.21133077
v -0.48032904 1.26053119 0.12946978
v -0.71505606 1.02873731 0.37427044
v -0.64917314 1.11830151 0.29603884
v -0.76674646 1.03254318 0.23818471
v -0.37319091 1.24282026 0.38059694
v -0.51472759 1.18917358 0.34466630
v -0.45369977 1.16724074 0.46722677
v -0.82298160 0.56175452 0.64603937
v -0.82353783 0.68141860 0.59370989
v -0.90480602 0.60772830 0.50612032
v -0.61792624 0.82302237 0.72645587
v -0.72533649 0.75477868 0.66796803
v -0.62923253 0.70109940 0.78589082
v -0.86558938 0.83241034 0.38419223
v -0.80574626 0.80047566 0.52957404
v -0.77286273 0.91050786 0.46239260
v -0.08215768 1.04159129 0.79076147
v -0.21561137 1.00178397 0.80265540
v -0.13423549 0.92461550 0.88249111
v -0.37250391 1.12235475 0.60248679
v -0.29819128 1.06979883 0.70690703
v -0.23694515 1.16710746 0.60581106
v -0.39437011 0.82800466 0.86810583
v -0.35248920 0.95389640 0.79666442
v -0.47890916 0.89840019 0.77402318
v -0.65447634 0.99629313 0.51960331
v -0.57437551 0.95081705 0.65684372
v -0.51643258 1.06949997 0.56756252
v -0.35426730 1.31264544 0.12996098
v -0.39885050 1.30416954 -0.00010169
v -0.23625581 1.28430545 0.38278660
v -0.29872414 1.30557740 0.26129165
v -0.13574298 1.37381887 -0.00017718
v -0.21665139 1.35007358 0.13131084
v -0.08063423 1.36992168 0.13165608
v 0.08094487 1.04084492 0.79013276
v -0.00062377 1.11807883 0.71218991
v 0.15503451 1.23779321 0.51594651
v 0.08024382 1.18582344 0.61766315
v 0.23610297 1.16597724 0.60642016
v -0.08049270 1.18543792 0.61798638
v -0.15544371 1.23964572 0.51607448
v 0.40040949 1.30315447 0.00120212
v 0.35507801 1.31146300 0.13150153
v 0.48125330 1.25974882 0.13030858
v 0.08174401 1.36909533 0.13207391
v 0.21807612 1.35018396 0.13257906
v 0.13675812 1.37304747 0.00065804
v 0.37396231 1.24165118 0.38157183
v 0.29892009 1.30578685 0.26215985
v 0.23676167 1.28280067 0.38329458
v -0.08161647 1.30347705 0.39644518
v 0.08101180 1.30289316 0.39526632
v 0.00016990 1.34873343 0.26304153
v -0.35410661 1.31276047 -0.13082767
v -0.48054987 1.26066482 -0.13046308
v -0.08063079 1.37018788 -0.13150534
v -0.21706118 1.35166883 -0.13164496
v -0.37269893 1.24226260 -0.38185045
v -0.29789615 1.30646431 -0.26175186
v -0.23633592 1.28437924 -0.38363707
v 0.48185405 1.26071405 -0.12912565
v 0.35555074 1.31342947 -0.12938005
v 0.23721246 1.28465188 -0.38251284
v 0.29873961 1.30649567 -0.26082438
v 0.37336782 1.24292171 -0.38027889
v 0.21775036 1.35099280 -0.13071330
v 0.08146960 1.37012982 -0.13118254
v -0.08209226 1.04079628 -0.79038256
v 0.00075436 1.11772358 -0.71348029
v 0.08171027 1.04003465 -0.79073250
v -0.15466997 1.23889422 -0.51639581
v -0.08000736 1.18597305 -0.61888999
v -0.23636495 1.16655123 -0.60621721
v 0.23773740 1.16716075 -0.60615540
v 0.08183981 1.18619883 -0.61898112
v 0.15595911 1.23881304 -0.51575565
v 0.00036596 1.34823465 -0.26316595
v 0.08219352 1.30328822 -0.39498511
v -0.08059691 1.30344784 -0.39595544
v -0.56936955 1.19723475 -0.21348740
v -0.61430573 1.18927133 -0.08176238
v -0.45373318 1.16628528 -0.46878767
v -0.51468617 1.19009697 -0.34638554
v -0.76668584 1.03315866 -0.24075568
v -0.64967322 1.11819053 -0.29782882
v -0.71514469 1.02838218 -0.37630051
v -0.13515781 0.92460769 -0.87985563
v -0.21584873 1.00092292 -0.80175561
v -0.47856075 0.89592248 -0.77333957
v -0.35247988 0.95197421 -0.79581827
v -0.39549357 0.82499278 -0.86543351
v -0.29796681 1.06859660 -0.70756882
v -0.37258819 1.12226975 -0.60368860
v -0.90626431 0.60335594 -0.50765055
v -0.82554394 0.67828488 -0.59435254
v -0.82490975 0.55687714 -0.64710313
v -0.77320111 0.90850443 -0.46369120
v -0.80665010 0.79884273 -0.53091806
v -0.86743355 0.83266002 -0.38566050
v -0.63149619 0.69939476 -0.78682488
v -0.72691357 0.75377977 -0.66828239
v -0.61894929 0.82177180 -0.72653008
v -0.51700902 1.06771946 -0.56882679
v -0.57416844 0.94857174 -0.65800124
v -0.65506762 0.99430120 -0.52018899
v -0.70514119 1.12564182 -0.00071772
v -0.85483319 0.95518243 -0.16080305
v -0.78765488 1.04461920 -0.08323455
v -0.78743941 1.04464281 0.08061101
v -0.85350227 0.95449799 0.15843089
v -0.96906465 0.48417646 -0.42679766
v -0.96793455 0.60321820 -0.37502596
v -1.03401566 0.60415828 -0.08666967
v -1.01191962 0.60444778 -0.23082949
v -1.04825974 0.48342848 -0.14671506
v -0.95060390 0.72421193 -0.31259897
v -0.91575056 0.83473200 -0.24602477
v -0.96742874 0.60528016 0.37355682
v -0.96989930 0.48672172 0.42718351
v -0.91488576 0.83465081 0.24421245
v -0.94854581 0.72541296 0.31062019
v -1.04847908 0.48338002 0.14536615
v -1.01127172 0.60475665 0.22934701
v -1.03525949 0.60394633 0.08458946
v -0.93810058 0.84775871 -0.08541355
v -1.00039876 0.72604996 -0.00008523
v -0.93807054 0.84736013 0.08361451
v 0.56944901 1.19693780 0.21263565
v 0.61344677 1.18712187 0.08077096
v 0.45380142 1.16496527 0.46865180
v 0.51523644 1.18794537 0.34560078
v 0.76628643 1.03267717 0.23912783
v 0.64927715 1.11762547 0.29690626
v 0.71542388 1.02878821 0.37574950
v 0.13270760 0.92454815 0.88301885
v 0.21478808 1.00085962 0.80238432
v 0.47862715 0.89903373 0.77578127
v 0.35065165 0.95189053 0.79665244
v 0.39435562 0.82559073 0.86771345
v 0.29646167 1.06787229 0.70755982
v 0.37228081 1.12055159 0.60310227
v 0.90465599 0.60397625 0.50774479
v 0.82482636 0.67956358 0.59334242
v 0.82318091 0.55871451 0.64594752
v 0.77415562 0.91084045 0.46357378
v 0.80720168 0.80080026 0.53139126
v 0.86730081 0.83462697 0.38514918
v 0.63190734 0.70294654 0.78862607
v 0.72650713 0.75540721 0.66899371
v 0.61951309 0.82475954 0.72786790
v 0.51764011 1.06664443 0.56915849
v 0.57368267 0.95047200 0.65736336
v 0.65542746 0.99553806 0.52076644
v -0.13564028 0.81006426 0.95168108
v -0.00062385 0.85122240 0.93901724
v -0.40001816 0.70262927 0.92477781
v -0.27292114 0.75907397 0.94700968
v 0.00056155 0.61010003 1.03721988
v -0.13796879 0.68434471 1.00474823
v -0.13972929 0.55828714 1.03929734
v -0.83611792 0.41400027 0.65814620
v -0.75220627 0.48900187 0.74380165
v -0.55494660 0.34618336 0.90328443
v -0.65923584 0.41568768 0.83113533
v -0.65449435 0.27532205 0.82379693
v -0.64940292 0.56062484 0.81888211
v -0.54097360 0.62910450 0.87723821
v 0.00281916 0.12197848 1.00882602
v -0.14105271 0.16061865 1.01475215
v -0.14713374 0.05939791 0.96015733
v -0.13912416 0.41020340 1.05451441
v -0.14076228 0.28289992 1.04206336
v 0.00142470 0.35747322 1.06173360
v -0.41951257 0.15718707 0.93272066
v -0.28392339 0.21275833 1.00012147
v -0.41444099 0.27092564 0.96560210
v -0.41802651 0.55937225 0.95824939
v -0.42387936 0.41028503 0.97467470
v -0.28028849 0.48438707 1.01995993
v -0.99390727 0.36937353 0.38639465
v -0.92690778 0.36979625 0.52065498
v -1.05774057 0.36258185 0.08801749
v -1.03594244 0.36444244 0.23565337
v -0.92529798 0.14649151 0.41631353
v -0.99393606 0.25203529 0.32932779
v -0.97864091 0.14372692 0.26651785
v -0.92696035 0.36544865 -0.51999307
v -0.99004632 0.36288053 -0.38494250
v -0.97713310 0.13641843 -0.25838491
v -0.99351460 0.24456938 -0.32667029
v -0.92895633 0.14307861 -0.40952954
v -1.03502524 0.36043674 -0.23866773
v -1.06061172 0.36346313 -0.09031541
v -0.73037243 0.00000000 0.08235373
v -0.82303697 0.00000000 -0.00409043
v -0.71855342 0.00000000 -0.10554757
v -0.94916755 0.05301575 0.18137705
v -0.89806795 0.00000000 0.09980153
v -0.86603105 0.00000000 0.26898021
v -0.86926877 0.00000000 -0.27184951
v -0.89264190 0.00000000 -0.09223740
v -0.94704455 0.03799049 -0.17122927
v -1.04563904 0.24610561 -0.00091487
v -1.00717640 0.13043243 -0.08736635
v -1.00926006 0.13334803 0.09393504
v -0.75254726 0.48400453 -0.74324340
v -0.83427835 0.40944046 -0.65525252
v -0.54341465 0.62671751 -0.87699121
v -0.65276873 0.55700457 -0.81892234
v -0.65593231 0.27236199 -0.82043058
v -0.66011149 0.41000107 -0.83142310
v -0.55728352 0.34334534 -0.90210152
v -0.00101557 0.85221034 -0.93697476
v -0.13653614 0.81213665 -0.95017707
v -0.14041759 0.56151283 -1.03845823
v -0.13877374 0.68717301 -1.00370729
v -0.00097995 0.61357898 -1.03700435
v -0.27353823 0.75913453 -0.94530082
v -0.40071237 0.70159107 -0.92383659
v -0.14914283 0.06289215 -0.96745777
v -0.14226370 0.16552420 -1.01285481
v -0.00073210 0.12826079 -1.01247430
v -0.41549143 0.26880845 -0.96284479
v -0.28386995 0.21442062 -0.99474186
v -0.41837052 0.15111753 -0.92533809
v -0.00046497 0.36181507 -1.06276226
v -0.14184691 0.28472123 -1.04150248
v -0.14311668 0.41187158 -1.05218935
v -0.42107961 0.55984575 -0.95969570
v -0.28357169 0.48608989 -1.02013278
v -0.42582905 0.40853882 -0.97190762
v 0.21582170 1.00099027 -0.80206120
v 0.13279116 0.92460805 -0.88168609
v 0.37347773 1.12220871 -0.60261732
v 0.29845020 1.06914389 -0.70702279
v 0.39321467 0.82578963 -0.86679876
v 0.35182789 0.95187396 -0.79580224
v 0.47832292 0.89582127 -0.77363455
v 0.61420679 1.18795419 -0.08076418
v 0.57019818 1.19732666 -0.21152678
v 0.71501940 1.02738595 -0.37483943
v 0.64979613 1.11671209 -0.29634097
v 0.76670766 1.03099704 -0.23950519
v 0.51580930 1.18914509 -0.34421206
v 0.45440549 1.16703343 -0.46793380
v 0.82476407 0.55961055 -0.64801204
v 0.82505059 0.68024796 -0.59583837
v 0.90660793 0.60498416 -0.50934875
v 0.61720556 0.82249421 -0.72742116
v 0.72507691 0.75397652 -0.66989398
v 0.62924302 0.70120341 -0.78814018
v 0.86604708 0.83280164 -0.38704321
v 0.80642080 0.80042833 -0.53317970
v 0.77222997 0.91026503 -0.46465039
v 0.51739782 1.06695318 -0.56775385
v 0.65488386 0.99454093 -0.52012360
v 0.57354021 0.94939864 -0.65780699
v 0.70791084 0.00081049 0.10889038
v 0.65769100 0.00000000 0.25544992
v 0.54957920 0.06368687 0.17085472
v 0.80994093 0.00000000 0.41241211
v 0.74628037 0.00000000 0.34713131
v 0.87117237 0.00000000 0.25435713
v 0.42261660 0.00000000 0.44907919
v 0.59719175 0.00000000 0.41100135
v 0.52150077 0.00000000 0.55033940
v 0.83659583 0.41153634 0.65804768
v 0.85595697 0.28911346 0.61660868
v 0.92569804 0.36532772 0.52026063
v 0.66214472 0.15453856 0.77441114
v 0.76279187 0.21982186 0.70249563
v 0.65678090 0.27265838 0.82107818
v 0.92564398 0.14315143 0.41004029
v 0.85485804 0.17242661 0.56155777
v 0.83954316 0.06919298 0.49821296
v 0.09434585 0.00000000 0.89510089
v 0.24213812 0.00004360 0.88976115
v 0.15105173 0.05640397 0.96035451
v 0.43233827 0.00000000 0.69563651
v 0.33997920 0.00000000 0.80105913
v 0.27047357 0.00000000 0.71157247
v 0.42501277 0.15311153 0.92653698
v 0.38977334 0.03793298 0.87840760
v 0.52086902 0.08338404 0.84024602
v 0.74182123 0.01100979 0.57526004
v 0.63460916 0.04316934 0.72025871
v 0.59738779 0.00000000 0.64954937
v 0.39734381 0.00000000 0.15339324
v 0.43407691 0.00000000 0.01506789
v 0.26154166 0.00000000 0.45097992
v 0.32922968 0.00026246 0.30976829
v 0.14718413 0.00000000 0.01086149
v 0.22902676 0.02797444 0.16408999
v 0.09874209 0.00083497 0.14881305
v -0.09032223 0.00000000 0.89564478
v -0.00799902 0.00000000 0.83182186
v -0.18911454 0.00062545 0.59724820
v -0.10163750 0.00000000 0.71481389
v -0.28616491 0.00087626 0.70748264
v 0.08600149 0.00000000 0.73106742
v 0.17136765 0.00001311 0.60786849
v -0.46188539 0.00000000 -0.01110448
v -0.40291977 0.00474511 0.12876123
v -0.56912988 0.00003336 0.13503219
v -0.07350481 0.00187362 0.14098006
v -0.23375224 0.06476686 0.14567193
v -0.14604893 0.00366596 0.01631419
v -0.45306647 0.00000000 0.43825898
v -0.34260008 0.00000000 0.28948736
v -0.29258430 0.00000000 0.43381384
v 0.08278098 0.01781615 0.44860321
v -0.10760251 0.01705735 0.44139636
v -0.00362757 0.00338547 0.29476398
v 0.37426516 0.00168983 -0.10798854
v 0.50760520 0.00000000 -0.12436195
v 0.10571536 0.00653680 -0.14070031
v 0.23184896 0.00000000 -0.12970197
v 0.44888437 0.00128009 -0.39982781
v 0.34086576 0.00000000 -0.25640431
v 0.29013783 0.00026010 -0.39564791
v -0.55956966 0.00000000 -0.16301586
v -0.40965933 0.00000000 -0.15992558
v -0.26287416 0.00000000 -0.43165353
v -0.33444300 0.00000000 -0.29593140
v -0.41962850 0.00023049 -0.43558708
v -0.24430035 0.00000000 -0.14428674
v -0.08821478 0.00000000 -0.14287069
v 0.10105249 0.00000000 -0.89586788
v 0.00278936 0.00000000 -0.81149012
v -0.08341896 0.00000000 -0.89333087
v 0.19071503 0.00000000 -0.57395399
v 0.09608811 0.00000000 -0.69864190
v 0.27894953 0.00000000 -0.68004477
v -0.28055924 0.00000000 -0.69667077
v -0.09808180 0.00000000 -0.70566112
v -0.17849396 0.00000000 -0.58566064
v 0.01495834 0.00000000 -0.28075710
v -0.07647018 0.00000000 -0.44003823
v 0.10601566 0.00000000 -0.42200705
v 0.64323020 0.00100538 -0.21495111
v 0.69112402 0.00999998 -0.07315110
v 0.53282505 0.00000000 -0.53223032
v 0.59339875 0.00093269 -0.37246704
v 0.85827720 0.00000000 -0.27033201
v 0.73946816 0.00000000 -0.32699507
v 0.80360562 0.00000000 -0.41975999
v 0.14768337 0.07215716 -0.96800983
v 0.24998395 0.01490280 -0.90422380
v 0.52341008 0.07788409 -0.83869976
v 0.39746550 0.04674929 -0.88433409
v 0.42375347 0.15090232 -0.92704624
v 0.33617139 0.00000000 -0.80294865
v 0.42965987 0.00000000 -0.68344414
v 0.92675364 0.36422247 -0.52042603
v 0.85612911 0.28761667 -0.61967832
v 0.83780509 0.40993050 -0.65600777
v 0.84017408 0.07101311 -0.50397885
v 0.85551059 0.17411934 -0.56408066
v 0.92519134 0.14232808 -0.41066608
v 0.65697491 0.27216804 -0.82280892
v 0.76337981 0.21535380 -0.70696884
v 0.66081005 0.15193930 -0.77732098
v 0.60289723 0.00000000 -0.64194012
v 0.63159901 0.03453228 -0.72017652
v 0.72991532 0.00176153 -0.57401401
v 0.79771590 0.00000000 0.00739800
v 0.93063015 0.02989307 -0.17436667
v 0.89681202 0.00000000 -0.08278652
v 0.87271369 0.00000000 0.08907579
v 0.93300766 0.03952523 0.17143121
v 0.96991104 0.48654178 -0.42896995
v 0.99248701 0.36772993 -0.38400245
v 1.06209338 0.36419451 -0.08842235
v 1.03797722 0.36755493 -0.23540451
v 1.05164206 0.48643911 -0.14630276
v 0.99446195 0.24896258 -0.32624277
v 0.97475815 0.13920222 -0.26116589
v 0.98983407 0.36607042 0.38500574
v 0.96956813 0.48611322 0.42713034
v 0.97659683 0.13954544 0.26342937
v 0.99295151 0.25002441 0.32530922
v 1.04869139 0.48551601 0.14624557
v 1.03567684 0.36606947 0.23613252
v 1.05826581 0.36727142 0.08761713
v 1.00105929 0.13101368 -0.09232028
v 1.04687786 0.24620919 0.00040875
v 1.00151122 0.13347213 0.09209654
v 0.14825223 0.15793420 1.01016736
v 0.41988477 0.27071795 0.96501547
v 0.29117399 0.21067627 0.99740624
v 0.14498496 0.28288579 1.04227138
v 0.14329040 0.40808818 1.05230200
v 0.75228965 0.48731321 0.74366277
v 0.54555541 0.62867266 0.88084751
v 0.65371192 0.56194234 0.82017690
v 0.66173941 0.41408211 0.83211619
v 0.55789256 0.34595817 0.90162128
v 0.13517660 0.80906034 0.95159602
v 0.14173727 0.55911529 1.04083014
v 0.13847387 0.68463004 1.00505447
v 0.27337465 0.75923336 0.94778186
v 0.40153241 0.70216614 0.92488849
v 0.42786211 0.41150206 0.97422677
v 0.42167962 0.56002969 0.96182513
v 0.28361595 0.48508230 1.02205265
v -0.67366111 0.00000000 0.23674856
v -0.53849143 0.00000000 0.54203641
v -0.61515158 0.00000000 0.39345059
v -0.75707591 0.00000000 0.34912172
v -0.80275488 0.00000000 0.42945614
v -0.24402270 0.00136247 0.89347303
v -0.51617211 0.08984308 0.84134382
v -0.38720733 0.05533902 0.88466847
v -0.34641564 0.00000000 0.81376237
v -0.44295043 0.00000000 0.70030308
v -0.85553235 0.29594815 0.61851287
v -0.84445357 0.07871170 0.50515896
v -0.85476828 0.18233036 0.56731915
v -0.76203531 0.22426939 0.70801330
v -0.65746367 0.15960270 0.77763540
v -0.59270251 0.00000000 0.65811718
v -0.63665885 0.05535301 0.72942489
v -0.73435932 0.01024474 0.58777004
v -0.23693337 0.00745009 -0.90943724
v -0.43269774 0.00000000 -0.69841790
v -0.33463749 0.00000000 -0.80638665
v -0.38619271 0.04303881 -0.88394749
v -0.51654065 0.08618204 -0.84030122
v -0.65660059 0.00000000 -0.25617310
v -0.80422592 0.00090993 -0.42632803
v -0.75024372 0.00000000 -0.34764490
v -0.59646481 0.00088062 -0.41223779
v -0.52461797 0.00065808 -0.54918098
v -0.85324377 0.29227090 -0.61726809
v -0.65902185 0.15636078 -0.77570444
v -0.76138496 0.21899259 -0.70412177
v -0.85490990 0.17545393 -0.56642026
v -0.84443706 0.08021200 -0.50398827
v -0.59382778 0.00000000 -0.65187907
v -0.72611535 0.01231756 -0.58145440
v -0.62428814 0.04808526 -0.71939564
v 0.75363988 0.48470706 -0.74293280
v 0.55807388 0.34359026 -0.90330535
v 0.66045415 0.41255265 -0.83080792
v 0.65272552 0.55921936 -0.81998366
v 0.54302692 0.62773496 -0.87694174
v 0.14389956 0.16649318 -1.01857138
v 0.14071462 0.41486850 -1.05456269
v 0.14278066 0.28830084 -1.04482186
v 0.28815430 0.21814606 -1.00376964
v 0.41851747 0.27117980 -0.96725148
v 0.13482423 0.81121182 -0.94980109
v 0.40047988 0.70207804 -0.92466801
v 0.27226436 0.75893033 -0.94537181
v 0.13713847 0.68680263 -1.00364041
v 0.13930617 0.56192255 -1.03780329
v 0.42684028 0.41153613 -0.97220051
v 0.28250992 0.48902804 -1.02006948
v 0.42103842 0.56102067 -0.95904696
v 0.96897596 0.60561311 0.37700602
v 1.03703582 0.60441834 0.08790998
v 1.01513636 0.60806602 0.23191109
v 0.95020163 0.72686857 0.31298971
v 0.91632038 0.83663678 0.24412237
v 0.96845502 0.60670525 -0.37630478
v 0.91439945 0.83537692 -0.24687827
v 0.95083833 0.72559601 -0.31336051
v 1.01325428 0.60697484 -0.23108074
v 1.03577733 0.60827345 -0.08559704
v 0.70431119 1.12453461 -0.00097678
v 0.85440338 0.95599449 0.15807146
v 0.78702873 1.04532528 0.08131857
v 0.78712636 1.04317200 -0.08207738
v 0.85423887 0.95294923 -0.15885238
v 0.99885172 0.72602838 0.00120728
v 0.93669391 0.84593838 -0.08528950
v 0.93773001 0.84817362 0.08368126
f 330 87 329
f 336 325 26
f 207 208 56
f 464 36 580
f 502 129 504
f 157 624 622
f 308 311 82
f 247 223 248
f 507 483 508
f 331 88 329
f 494 500 497
f 156 601 602
f 591 589 592
f 365 98 596
f 75 281 282
f 152 587 577
f 149 559 560
f 555 121 553
f 530 141 529
f 515 517 139
f 361 594 98
f 250 67 249
f 157 608 609
f 294 293 209
f 317 81 316
f 557 338 26
f 303 305 81
f 530 529 528
f 101 381 382
f 415 418 111
f 192 184 50
f 412 110 411
f 20 384 256
f 131 594 486
f 281 264 282
f 347 287 348
f 28 349 582
f 165 163 1
f 248 250 66
f 617 107 398
f 273 271 274
f 456 115 453
f 558 561 560
f 335 576 91
f 331 177 332
f 116 433 436
f 351 370 92
f 136 511 530
f 239 240 65
f 247 258 19
f 304 23 567
f 148 557 570
f 214 208 58
f 440 426 450
f 268 270 269
f 258 247 268
f 204 202 16
f 466 125 465
f 517 513 133
f 168 275 274
f 275 73 274
f 198 193 53
f 309 308 307
f 510 511 136
f 415 416 110
f 131 490 597
f 473 475 474
f 414 415 111
f 493 495 494
f 496 504 485
f 433 116 432
f 600 375 601
f 240 234 65
f 418 415 412
f 486 361 3
f 567 566 304
f 380 393 29
f 17 199 197
f 491 492 132
f 451 449 435
f 218 217 216
f 623 621 613
f 396 104 395
f 433 439 436
f 628 160 627
f 215 202 217
f 209 207 2
f 427 113 424
f 434 10 544
f 434 433 432
f 199 17 210
f 150 564 565
f 489 491 132
f 275 13 285
f 497 500 134
f 125 466 476
f 578 152 577
f 208 214 211
f 328 88 343
f 356 27 603
f 150 566 567
f 372 100 371
f 190 191 47
f 235 8 398
f 260 261 72
f 422 403 414
f 422 414 111
f 453 454 123
f 349 583 582
f 521 520 519
f 425 453 115
f 616 622 158
f 483 130 508
f 151 586 572
f 212 17 232
f 400 397 402
f 377 396 99
f 41 522 511
f 510 508 505
f 549 547 42
f 475 473 36
f 510 137 509
f 222 221 197
f 430 115 429
f 220 194 1
f 305 54 204
f 621 29 613
f 192 171 184
f 460 335 5
f 88 331 332
f 74 277 279
f 300 301 80
f 390 389 388
f 165 45 164
f 146 549 551
f 291 278 75
f 448 120 445
f 147 543 544
f 607 610 609
f 603 602 356
f 139 529 514
f 333 553 443
f 92 368 347
f 261 260 259
f 300 6 200
f 46 177 331
f 284 283 174
f 301 300 200
f 471 468 474
f 54 305 301
f 302 304 303
f 569 150 567
f 150 569 570
f 294 209 2
f 628 629 160
f 548 543 147
f 147 625 627
f 63 233 234
f 426 427 114
f 41 509 532
f 198 52 196
f 614 105 612
f 147 627 547
f 81 305 306
f 549 548 547
f 54 301 200
f 342 88 332
f 264 281 70
f 193 194 53
f 455 429 456
f 187 321 14
f 479 130 484
f 147 544 625
f 458 456 453
f 304 80 303
f 314 84 313
f 488 503 501
f 321 332 14
f 423 425 424
f 305 204 306
f 341 339 25
f 514 40 516
f 625 628 627
f 340 339 341
f 105 614 391
f 243 228 62
f 318 316 78
f 75 278 279
f 357 355 353
f 238 257 63
f 466 455 476
f 425 423 4
f 448 449 120
f 408 638 108
f 292 275 285
f 22 278 289
f 515 513 517
f 501 503 134
f 622 623 158
f 134 503 504
f 195 216 206
f 163 271 246
f 619 617 620
f 62 228 229
f 163 165 164
f 453 425 454
f 489 132 488
f 82 628 625
f 58 208 209
f 525 608 40
f 626 547 627
f 518 517 498
f 489 487 491
f 557 26 564
f 325 336 344
f 541 145 539
f 40 616 516
f 338 556 89
f 250 248 245
f 139 514 515
f 98 594 596
f 246 220 1
f 112 413 630
f 9 536 413
f 156 600 601
f 332 177 14
f 321 342 332
f 156 606 600
f 584 330 585
f 302 303 81
f 584 87 330
f 330 25 585
f 400 239 65
f 439 440 117
f 95 358 368
f 597 594 131
f 594 361 486
f 246 67 245
f 561 562 149
f 28 364 362
f 55 216 217
f 427 430 114
f 267 20 254
f 556 555 553
f 84 309 558
f 311 310 312
f 609 525 142
f 256 68 255
f 124 460 461
f 82 311 312
f 307 308 82
f 589 135 495
f 527 40 514
f 112 418 412
f 20 256 254
f 258 238 19
f 267 254 269
f 273 272 249
f 392 391 393
f 137 533 509
f 122 455 456
f 9 413 411
f 130 480 505
f 333 443 5
f 527 525 40
f 589 495 385
f 39 496 485
f 223 225 224
f 414 416 415
f 219 222 53
f 145 538 539
f 413 412 411
f 469 468 467
f 183 181 6
f 191 192 50
f 429 35 431
f 292 285 76
f 413 112 412
f 415 110 412
f 43 164 167
f 467 468 126
f 617 101 620
f 450 451 117
f 438 546 545
f 619 620 159
f 17 212 210
f 124 579 576
f 584 153 583
f 460 124 576
f 3 469 467
f 311 308 314
f 6 320 183
f 389 104 388
f 251 250 249
f 194 165 1
f 291 289 278
f 287 77 348
f 238 258 257
f 139 517 518
f 238 236 19
f 223 247 19
f 382 380 29
f 39 518 498
f 361 359 3
f 69 255 257
f 139 518 528
f 33 545 535
f 387 385 7
f 69 268 269
f 477 462 125
f 454 479 123
f 121 555 447
f 451 435 117
f 454 425 4
f 233 252 8
f 124 463 464
f 69 258 268
f 168 167 166
f 583 153 582
f 384 394 102
f 138 512 513
f 57 210 211
f 254 256 255
f 607 609 142
f 324 319 86
f 289 291 76
f 291 292 76
f 384 102 383
f 422 421 420
f 221 17 197
f 383 102 381
f 376 377 99
f 99 373 374
f 386 105 392
f 438 33 440
f 90 341 343
f 281 75 279
f 574 571 96
f 628 82 312
f 221 222 59
f 127 471 474
f 595 605 603
f 551 538 145
f 334 91 340
f 322 324 85
f 305 303 301
f 18 239 399
f 306 204 16
f 199 198 197
f 166 190 180
f 303 80 301
f 267 266 265
f 626 42 547
f 16 215 213
f 349 351 350
f 295 16 213
f 68 379 252
f 250 251 66
f 627 160 626
f 383 68 256
f 343 88 342
f 507 508 136
f 202 215 16
f 197 198 53
f 254 69 269
f 603 605 156
f 418 419 111
f 384 383 256
f 455 122 476
f 203 204 54
f 556 557 148
f 255 68 253
f 313 84 560
f 25 328 341
f 254 255 69
f 603 156 602
f 581 584 583
f 630 632 112
f 163 246 1
f 246 245 220
f 432 116 558
f 499 591 590
f 320 563 86
f 345 93 350
f 306 16 295
f 346 93 345
f 562 568 149
f 604 605 155
f 154 592 593
f 545 552 535
f 511 522 530
f 574 573 571
f 566 150 565
f 361 98 360
f 67 271 273
f 234 235 65
f 208 211 56
f 574 151 573
f 251 270 66
f 398 8 378
f 213 215 214
f 438 440 439
f 315 314 313
f 263 71 262
f 20 373 384
f 496 134 504
f 329 88 328
f 81 306 316
f 555 556 148
f 592 589 103
f 617 619 107
f 227 207 56
f 571 359 96
f 446 466 465
f 206 216 55
f 359 571 469
f 568 148 570
f 34 437 435
f 28 351 349
f 21 272 282
f 113 423 424
f 490 489 488
f 379 68 383
f 210 212 211
f 80 563 300
f 351 92 350
f 326 346 12
f 83 317 318
f 555 148 554
f 212 231 56
f 218 57 217
f 271 67 246
f 195 196 52
f 270 268 66
f 390 592 103
f 148 568 554
f 495 493 7
f 592 390 593
f 357 95 355
f 574 575 151
f 452 120 451
f 154 591 592
f 587 585 577
f 395 394 396
f 93 349 350
f 610 416 611
f 166 44 190
f 315 23 302
f 315 302 317
f 268 247 66
f 606 154 593
f 396 394 99
f 211 212 56
f 370 369 368
f 235 397 65
f 280 278 22
f 83 315 317
f 575 588 151
f 74 279 280
f 385 495 7
f 63 257 253
f 397 235 398
f 214 58 213
f 220 219 194
f 546 146 545
f 236 225 19
f 599 94 602
f 235 233 8
f 102 394 395
f 611 416 32
f 225 223 19
f 139 528 529
f 231 62 229
f 419 406 421
f 451 450 452
f 49 182 185
f 402 397 107
f 52 199 218
f 416 610 110
f 225 236 244
f 107 397 398
f 68 252 253
f 322 85 321
f 182 181 183
f 118 438 439
f 546 438 118
f 348 77 345
f 543 546 118
f 231 212 232
f 610 611 157
f 33 438 545
f 385 386 103
f 479 480 130
f 169 195 15
f 93 583 349
f 15 195 206
f 190 44 192
f 247 248 66
f 146 552 545
f 248 60 245
f 570 557 564
f 274 271 43
f 63 253 233
f 272 21 249
f 507 528 518
f 67 273 249
f 487 467 126
f 196 195 169
f 624 159 623
f 134 496 497
f 132 503 488
f 104 393 395
f 556 553 89
f 355 356 94
f 258 69 257
f 229 61 227
f 56 231 227
f 460 576 335
f 463 124 461
f 394 373 99
f 29 393 391
f 67 250 245
f 193 198 196
f 462 36 464
f 144 633 630
f 141 526 527
f 517 133 498
f 536 144 630
f 100 372 599
f 144 536 537
f 22 289 287
f 578 579 152
f 579 578 576
f 189 188 187
f 60 223 224
f 92 348 350
f 555 554 447
f 396 377 388
f 194 193 165
f 413 536 630
f 372 352 599
f 377 376 375
f 348 345 350
f 105 386 387
f 240 237 234
f 463 462 464
f 135 500 494
f 45 196 169
f 512 612 387
f 245 60 220
f 429 115 456
f 223 60 248
f 288 289 76
f 525 526 142
f 100 599 601
f 613 29 391
f 526 523 520
f 341 328 343
f 631 641 639
f 264 21 282
f 266 72 265
f 106 402 403
f 73 273 274
f 186 206 205
f 381 379 383
f 52 216 195
f 410 18 399
f 290 272 73
f 72 371 374
f 526 525 527
f 115 430 424
f 498 497 496
f 621 382 29
f 543 118 434
f 214 215 57
f 522 141 530
f 511 510 509
f 352 94 599
f 493 512 7
f 90 340 341
f 169 171 170
f 605 604 606
f 219 60 224
f 104 389 392
f 359 469 3
f 186 49 185
f 222 219 224
f 166 167 44
f 428 427 426
f 523 522 524
f 129 502 481
f 50 185 188
f 164 45 170
f 425 115 424
f 33 428 426
f 427 428 113
f 94 356 602
f 515 138 513
f 114 431 452
f 237 236 238
f 215 217 57
f 95 354 355
f 220 60 219
f 515 514 516
f 183 320 319
f 222 197 53
f 559 569 567
f 300 320 6
f 435 436 117
f 96 360 363
f 640 642 641
f 242 243 62
f 140 537 519
f 508 130 505
f 420 410 399
f 537 539 144
f 317 316 318
f 426 114 450
f 186 15 206
f 311 83 310
f 625 544 307
f 544 10 307
f 168 43 167
f 185 182 188
f 369 354 95
f 44 171 192
f 605 606 156
f 548 549 146
f 100 601 375
f 149 568 569
f 381 380 382
f 455 466 35
f 480 479 454
f 543 548 546
f 493 133 513
f 492 472 37
f 477 125 476
f 491 487 126
f 337 336 338
f 588 153 587
f 576 578 91
f 633 161 632
f 96 359 360
f 39 485 483
f 101 617 378
f 193 45 165
f 163 164 43
f 618 624 611
f 507 136 528
f 561 149 560
f 641 162 639
f 116 561 558
f 494 133 493
f 253 252 233
f 63 237 238
f 392 393 104
f 440 450 117
f 93 581 583
f 386 385 387
f 120 449 451
f 421 422 111
f 486 3 467
f 302 81 317
f 633 632 630
f 462 475 36
f 376 99 374
f 489 490 131
f 447 449 448
f 387 612 105
f 106 420 399
f 173 46 172
f 492 491 472
f 316 306 295
f 22 287 347
f 109 410 420
f 507 39 483
f 559 23 313
f 214 57 211
f 196 45 193
f 10 434 432
f 422 106 403
f 626 160 640
f 487 486 467
f 542 41 532
f 400 106 399
f 444 120 452
f 198 199 52
f 475 127 474
f 621 620 382
f 621 623 159
f 450 114 452
f 92 347 348
f 376 100 375
f 434 118 433
f 503 132 502
f 337 90 336
f 537 536 519
f 395 393 380
f 201 54 200
f 171 44 170
f 355 94 353
f 58 296 213
f 422 420 106
f 595 365 596
f 569 568 570
f 523 140 520
f 114 430 431
f 218 210 57
f 304 566 80
f 639 162 638
f 261 371 72
f 548 147 547
f 498 133 497
f 150 570 564
f 222 224 59
f 142 526 520
f 437 436 435
f 141 522 523
f 137 510 505
f 173 179 176
f 559 149 569
f 121 447 448
f 563 320 300
f 102 395 380
f 257 255 253
f 642 162 641
f 83 311 314
f 216 52 218
f 512 493 513
f 23 304 302
f 91 339 340
f 512 138 612
f 159 620 621
f 218 199 210
f 364 28 575
f 83 318 310
f 168 274 43
f 136 530 528
f 140 523 524
f 495 135 494
f 233 235 234
f 566 563 80
f 25 339 577
f 277 74 276
f 475 462 477
f 133 494 497
f 436 437 116
f 389 386 392
f 548 146 546
f 441 460 5
f 10 309 307
f 65 397 400
f 543 434 544
f 640 641 161
f 272 273 73
f 581 93 346
f 419 421 111
f 319 320 86
f 180 179 178
f 127 475 477
f 231 229 227
f 337 334 340
f 136 508 510
f 308 309 84
f 237 63 234
f 447 554 34
f 252 379 378
f 315 83 314
f 608 622 616
f 338 336 26
f 337 338 89
f 13 275 168
f 209 208 207
f 436 439 117
f 628 312 629
f 360 366 363
f 364 574 96
f 359 361 360
f 466 446 35
f 500 501 134
f 406 109 421
f 135 589 591
f 601 599 602
f 340 90 337
f 481 492 37
f 522 41 524
f 78 316 295
f 131 486 487
f 403 32 414
f 634 626 640
f 151 572 573
f 515 516 138
f 8 252 378
f 265 72 374
f 9 521 519
f 538 549 42
f 368 358 347
f 588 587 586
f 458 453 123
f 589 385 103
f 502 492 481
f 32 416 414
f 430 427 424
f 153 585 587
f 540 144 539
f 370 368 92
f 209 293 58
f 428 33 535
f 326 581 346
f 625 307 82
f 575 28 582
f 6 181 200
f 421 109 420
f 553 121 443
f 160 642 640
f 153 584 585
f 309 432 558
f 334 337 89
f 23 315 313
f 271 163 43
f 296 295 213
f 39 498 496
f 118 439 433
f 531 113 534
f 293 296 58
f 28 362 351
f 489 131 487
f 431 444 452
f 84 558 560
f 98 366 360
f 45 169 170
f 379 101 378
f 462 463 125
f 308 84 314
f 10 432 309
f 299 24 310
f 132 492 502
f 512 387 7
f 639 638 408
f 565 323 86
f 59 244 242
f 106 400 402
f 440 33 426
f 566 565 563
f 617 398 378
f 224 225 59
f 410 109 409
f 239 400 399
f 194 219 53
f 358 22 347
f 610 157 609
f 27 595 603
f 479 484 482
f 142 520 521
f 585 25 577
f 339 578 577
f 408 407 406
f 407 109 406
f 31 408 406
f 407 408 108
f 31 639 408
f 419 31 406
f 608 616 40
f 430 429 431
f 455 35 429
f 35 444 431
f 188 51 187
f 188 182 51
f 51 322 187
f 322 51 319
f 51 182 183
f 319 51 183
f 187 322 321
f 322 319 324
f 381 101 379
f 405 407 108
f 404 405 108
f 286 285 178
f 407 405 409
f 109 407 409
f 191 175 47
f 167 164 170
f 50 184 185
f 44 167 170
f 64 244 236
f 243 244 64
f 50 188 189
f 541 542 145
f 442 445 119
f 339 91 578
f 445 446 119
f 624 623 622
f 611 624 157
f 523 526 141
f 141 527 529
f 527 514 529
f 445 120 444
f 446 445 444
f 35 446 444
f 613 614 158
f 158 614 615
f 623 613 158
f 614 613 391
f 614 612 615
f 371 376 374
f 100 376 371
f 479 482 123
f 373 394 384
f 540 42 634
f 633 540 634
f 538 42 540
f 633 634 161
f 161 634 640
f 42 626 634
f 540 633 144
f 557 556 338
f 553 333 89
f 262 21 264
f 251 21 262
f 5 335 333
f 270 251 262
f 21 251 249
f 600 593 30
f 606 593 600
f 600 30 375
f 593 390 30
f 30 377 375
f 390 388 30
f 30 388 377
f 228 243 241
f 470 478 459
f 470 127 478
f 127 477 478
f 184 186 185
f 478 477 476
f 122 478 476
f 357 74 280
f 518 39 507
f 344 342 85
f 325 344 85
f 342 344 343
f 85 342 321
f 344 90 343
f 90 344 336
f 482 129 481
f 482 481 457
f 482 457 123
f 481 37 457
f 449 447 34
f 435 449 34
f 470 472 471
f 472 470 37
f 470 471 127
f 472 126 471
f 126 468 471
f 470 459 37
f 491 126 472
f 504 129 485
f 221 59 242
f 125 463 465
f 437 34 562
f 561 437 562
f 554 568 562
f 34 554 562
f 437 561 116
f 390 103 389
f 103 386 389
f 392 105 391
f 572 586 580
f 572 580 36
f 586 152 580
f 473 572 36
f 244 243 242
f 225 244 59
f 64 240 241
f 240 239 241
f 237 240 64
f 243 64 241
f 236 237 64
f 411 607 521
f 9 411 521
f 110 607 411
f 607 142 521
f 610 607 110
f 171 15 184
f 171 169 15
f 15 186 184
f 87 584 581
f 153 588 582
f 588 575 582
f 381 102 380
f 573 572 473
f 468 469 128
f 474 468 128
f 469 571 128
f 571 573 128
f 573 473 128
f 473 474 128
f 564 323 565
f 26 323 564
f 323 324 86
f 325 323 26
f 325 324 323
f 563 565 86
f 324 325 85
f 410 230 18
f 230 228 18
f 18 228 241
f 18 241 239
f 401 619 618
f 401 402 107
f 403 402 401
f 619 159 618
f 401 618 32
f 619 401 107
f 403 401 32
f 618 611 32
f 159 624 618
f 478 122 459
f 122 458 459
f 37 459 457
f 459 458 457
f 122 456 458
f 457 458 123
f 191 190 192
f 485 129 484
f 129 482 484
f 483 485 484
f 130 483 484
f 189 187 14
f 191 50 189
f 191 189 175
f 189 14 175
f 14 177 175
f 499 501 500
f 501 499 38
f 38 499 590
f 135 499 500
f 488 501 38
f 499 135 591
f 480 454 4
f 284 12 346
f 4 423 506
f 480 4 506
f 423 531 506
f 480 506 505
f 531 137 506
f 506 137 505
f 365 366 98
f 71 270 262
f 270 71 269
f 71 267 269
f 335 334 333
f 333 334 89
f 334 335 91
f 536 9 519
f 465 463 461
f 537 140 541
f 520 140 519
f 119 446 465
f 465 461 119
f 461 441 119
f 460 441 461
f 176 46 173
f 299 297 24
f 71 263 266
f 263 260 266
f 260 72 266
f 263 70 260
f 205 201 49
f 201 181 49
f 186 205 49
f 181 201 200
f 181 182 49
f 284 77 283
f 586 587 152
f 588 586 151
f 20 267 265
f 266 267 71
f 31 417 631
f 631 417 632
f 31 631 639
f 417 31 419
f 641 631 161
f 417 112 632
f 161 631 632
f 418 417 419
f 417 418 112
f 284 345 77
f 542 550 145
f 542 541 524
f 284 174 12
f 48 174 283
f 373 20 265
f 373 265 374
f 609 608 525
f 608 157 622
f 560 559 313
f 636 637 162
f 541 140 524
f 41 542 524
f 358 357 280
f 70 263 264
f 263 262 264
f 176 177 46
f 174 48 173
f 174 173 172
f 538 551 549
f 538 540 539
f 537 541 539
f 232 221 242
f 17 221 232
f 232 242 62
f 231 232 62
f 203 205 55
f 203 55 202
f 201 205 203
f 202 55 217
f 205 206 55
f 204 203 202
f 73 275 292
f 292 290 73
f 272 290 282
f 290 292 291
f 75 290 291
f 290 75 282
f 70 277 259
f 277 70 281
f 277 281 279
f 260 70 259
f 12 174 172
f 104 396 388
f 367 27 354
f 365 27 367
f 354 27 356
f 365 367 366
f 595 27 365
f 318 299 310
f 155 596 597
f 155 597 598
f 596 594 597
f 595 596 155
f 605 595 155
f 180 47 179
f 180 190 47
f 352 372 11
f 11 372 261
f 312 310 24
f 642 636 162
f 636 297 637
f 367 369 97
f 366 367 97
f 369 367 354
f 369 370 97
f 580 579 464
f 580 152 579
f 579 124 464
f 61 230 409
f 230 410 409
f 230 61 229
f 230 229 228
f 76 285 286
f 353 352 276
f 74 353 276
f 288 76 286
f 288 286 283
f 289 288 287
f 203 54 201
f 287 288 77
f 77 288 283
f 286 48 283
f 531 423 113
f 276 11 259
f 11 261 259
f 277 276 259
f 616 158 615
f 516 616 615
f 138 516 615
f 138 615 612
f 509 533 532
f 503 502 504
f 635 79 294
f 635 294 404
f 635 637 79
f 637 635 638
f 638 635 108
f 635 404 108
f 226 61 405
f 61 226 227
f 405 61 409
f 227 226 207
f 48 178 179
f 48 286 178
f 173 48 179
f 534 143 533
f 534 535 143
f 531 534 533
f 533 143 532
f 137 531 533
f 261 372 371
f 13 180 178
f 285 13 178
f 180 13 166
f 13 168 166
f 346 345 284
f 331 327 46
f 46 327 172
f 172 327 326
f 382 620 101
f 442 121 448
f 443 121 442
f 2 226 404
f 294 2 404
f 404 226 405
f 207 226 2
f 550 551 145
f 552 146 551
f 143 550 532
f 552 550 143
f 330 329 328
f 24 636 629
f 94 352 353
f 352 11 276
f 113 428 534
f 428 535 534
f 509 41 511
f 535 552 143
f 550 552 551
f 550 542 532
f 369 95 368
f 326 327 87
f 87 327 329
f 327 331 329
f 581 326 87
f 293 79 298
f 79 297 298
f 296 298 78
f 79 293 294
f 296 293 298
f 598 490 38
f 358 280 22
f 280 279 278
f 357 358 95
f 74 357 353
f 330 328 25
f 567 23 559
f 590 598 38
f 590 604 598
f 598 604 155
f 604 590 154
f 590 591 154
f 604 154 606
f 297 299 298
f 299 318 78
f 298 299 78
f 355 354 356
f 629 636 642
f 312 24 629
f 629 642 160
f 370 362 97
f 362 363 97
f 363 366 97
f 364 363 362
f 362 370 351
f 96 363 364
f 297 636 24
f 162 637 638
f 637 297 79
f 490 488 38
f 598 597 490
f 441 442 119
f 443 442 441
f 443 441 5
f 442 448 445
f 296 78 295
f 326 12 172
f 575 574 364
f 47 175 176
f 175 177 176
f 47 176 179
