# FEM surface export ¡ª frame 775
# Vertices: 642  Faces: 1280
v -0.49932104 0.78434730 -0.02021348
v 0.46042791 0.83339763 -0.02054074
v -0.50705034 0.62999618 0.06520882
v 0.57933939 0.60428983 0.03427921
v 0.03192565 0.35537815 0.88331807
v -0.02855140 0.58683759 0.87062019
v -0.02606403 0.32736692 -0.84442449
v -0.00238134 0.53075677 -0.87708157
v 0.93136495 0.09506500 -0.55816442
v 0.90374261 0.13232470 0.56930244
v -0.90103537 0.04646592 -0.55578792
v -0.92068428 0.09295781 0.56656659
v -0.82161856 0.53049570 0.32029015
v -0.53596705 0.34325123 0.84349447
v -0.29003802 0.74639553 0.46113670
v 0.27927664 0.80662578 0.47368726
v -0.01425053 0.87933946 0.00262919
v 0.27281159 0.76059121 -0.49473062
v -0.30573985 0.74678540 -0.50617588
v -0.52656192 0.34951293 -0.85641497
v -0.83665961 0.52846760 -0.31747228
v -1.03651524 0.13990845 0.00626588
v 0.51536232 0.41383848 0.85805607
v 0.80054015 0.61374563 0.32260206
v -0.47928700 0.17783207 0.82829690
v 0.00566740 0.10623145 1.05979967
v -0.81489867 0.34886283 -0.30517468
v -0.82356763 0.33586407 0.32451287
v 0.00643189 0.10049474 -1.08182395
v -0.52787226 0.15845491 -0.79941279
v 0.80884445 0.57652706 -0.32936704
v 0.52352762 0.36231077 -0.87453544
v 0.80649632 0.18103467 0.29706794
v 0.54328543 0.11575377 0.80294740
v 0.35840103 0.60783142 0.52837491
v -0.27809197 0.62669975 0.52310061
v 0.01551864 0.58839637 0.06603745
v -0.27405128 0.50384444 -0.45755428
v 0.31956744 0.62739402 -0.47361478
v 0.49771363 0.13459693 -0.83962697
v 0.79474074 0.27227661 -0.27500385
v 1.07268965 0.19168602 -0.00510232
v -0.67903954 0.69052970 0.14276543
v -0.56970686 0.67051041 0.39994580
v -0.40529680 0.78125823 0.23567821
v -0.74730605 0.22129418 0.73901814
v -0.71853739 0.46027410 0.59877962
v -0.91346246 0.31436491 0.45933226
v -0.17388310 0.68095708 0.68906122
v -0.44257444 0.59230947 0.67542928
v -0.28694284 0.47343644 0.89353734
v -0.14813083 0.83761215 0.24132647
v -0.25603056 0.84660774 0.00255267
v 0.14474986 0.72019625 0.68476456
v -0.00602466 0.79716557 0.49329072
v 0.21372478 0.87703872 -0.01605221
v 0.13737836 0.86703855 0.24208777
v 0.38491279 0.83812499 0.23193246
v -0.16123073 0.85006601 -0.25105152
v -0.41368678 0.79615635 -0.26190028
v 0.37238038 0.82029575 -0.26269862
v 0.11693474 0.85798067 -0.25923288
v -0.16314039 0.66234338 -0.71254152
v -0.01377755 0.77334756 -0.51655233
v 0.15050697 0.67357010 -0.70909053
v -0.58751756 0.66872895 -0.43662065
v -0.68530452 0.70345014 -0.17336223
v -0.25819838 0.46369231 -0.90534562
v -0.42790002 0.58094496 -0.70954746
v -0.90150601 0.31439370 -0.45885161
v -0.70179492 0.43742260 -0.61565351
v -0.76428252 0.21200091 -0.72706175
v -0.86716634 0.55480492 0.00293120
v -1.01322651 0.09442004 -0.27853709
v -1.00343931 0.32788700 -0.16892515
v -0.97881901 0.33251256 0.19406722
v -1.03493035 0.13635646 0.27926064
v 0.55863786 0.74399072 0.41811129
v 0.65116924 0.76115912 0.14842375
v 0.26115865 0.52413625 0.89516973
v 0.42187995 0.64208156 0.68625700
v 0.89542788 0.39385137 0.46041039
v 0.70265639 0.54198802 0.62374341
v 0.75948656 0.31048569 0.74458396
v -0.29530674 0.23159271 1.02856302
v -0.00800871 0.35176429 1.00998831
v -0.72552049 0.00879458 0.74271870
v -0.55414742 0.07094084 0.93577123
v 0.00906691 0.13493055 1.01341116
v -0.24085389 0.02154370 1.00631094
v -0.22542384 0.24262771 0.87204546
v -0.99886131 0.18725339 0.18573514
v -0.83243394 0.11144171 0.44227663
v -0.89482039 0.11266927 -0.43571150
v -0.98569918 0.12120884 -0.17482123
v -0.67705441 0.55846381 0.20720400
v -0.84930515 0.38863462 -0.00058841
v -0.67312902 0.54505432 -0.14318465
v -0.56475246 0.08413860 -0.91531247
v -0.71372604 0.00746964 -0.68478906
v 0.01384675 0.34324148 -1.01072359
v -0.26514044 0.23346823 -1.02986991
v -0.26780415 0.25215450 -0.83168095
v -0.28278494 0.00052303 -0.97008777
v -0.02634794 0.05600742 -0.95289910
v 0.42034864 0.59918815 -0.70273429
v 0.27041700 0.47250628 -0.91041988
v 0.65843362 0.73325020 -0.17027400
v 0.55359352 0.70394713 -0.42484409
v 0.73425686 0.23165961 -0.73858851
v 0.70137882 0.47808847 -0.60579461
v 0.90976208 0.35400650 -0.45870361
v 0.69117486 0.41360638 0.15838927
v 0.59855515 0.39447221 0.41835070
v 0.48697397 0.64404231 0.27900863
v 0.74540281 0.00000000 0.72925395
v 0.70595860 0.17266071 0.55788803
v 0.85784495 0.08174583 0.42960176
v 0.22871235 0.48969254 0.71912056
v 0.46581456 0.38851413 0.66255224
v 0.33962223 0.24737900 0.84509617
v 0.19313107 0.76922566 0.30975202
v 0.22664154 0.56527293 0.02387949
v -0.13316400 0.50049478 0.71370751
v 0.05045931 0.67322272 0.55204034
v -0.17840396 0.62489855 0.11524939
v -0.13598037 0.81906849 0.28049237
v -0.39769870 0.68986452 0.30842802
v 0.16937143 0.64898920 -0.25842240
v 0.46524552 0.66256768 -0.21584801
v -0.40944511 0.64302361 -0.21507442
v -0.12305848 0.63784951 -0.21992037
v 0.14770940 0.51938748 -0.72174430
v 0.00226272 0.69826776 -0.55258346
v -0.17740512 0.50121599 -0.72718459
v 0.59439099 0.46040705 -0.44324929
v 0.68911374 0.48421282 -0.18771039
v 0.24406672 0.22363082 -0.82803822
v 0.41618773 0.41911843 -0.71430796
v 0.87176490 0.10669693 -0.46655643
v 0.66998112 0.26648614 -0.59249532
v 0.69512606 0.00000000 -0.70666885
v 0.82591099 0.24071458 -0.01937728
v 1.02023232 0.13929728 -0.29874799
v 0.94067222 0.00709735 -0.21732524
v 0.95506746 0.00000000 0.11954948
v 1.02460134 0.15880659 0.29691309
v 0.28189847 0.03106590 1.02263200
v 0.55222762 0.13615113 0.91083145
v 0.27513903 0.30021775 1.01033938
v -0.59808010 0.47529998 0.46228838
v -0.38413712 0.44187990 0.69903636
v -0.66044390 0.22951996 0.60254890
v -0.46493515 0.44973803 -0.69117248
v -0.55017185 0.53364187 -0.40145087
v -0.71762705 0.29799628 -0.56285143
v 0.57457799 0.08087248 -0.91503924
v 0.25036302 0.00211501 -0.96624857
v 0.29690444 0.24833536 -1.02820039
v 0.99768931 0.40103129 0.17009006
v 0.99518961 0.39869341 -0.17319058
v 0.84484732 0.61432785 -0.00241852
v -0.58687145 0.74594313 0.06604198
v -0.53483701 0.74354279 0.19201684
v -0.44874695 0.79178190 0.10875643
v -0.69997799 0.61016077 0.35644963
v -0.62407273 0.68244380 0.27024209
v -0.75277203 0.62312418 0.23168878
v -0.34942380 0.76023710 0.35512024
v -0.48616451 0.72718239 0.31948066
v -0.43526337 0.71026087 0.44014081
v -0.83053404 0.17523785 0.66358763
v -0.82253045 0.28235617 0.59017193
v -0.90952522 0.20671809 0.52350044
v -0.63036990 0.40117234 0.73602068
v -0.72783017 0.33802864 0.67611450
v -0.64166170 0.27246398 0.80440420
v -0.87756920 0.42910042 0.39907441
v -0.81845832 0.38889536 0.53493327
v -0.78424889 0.50958121 0.45993096
v -0.09653766 0.62960869 0.78322423
v -0.23286739 0.58675689 0.80309588
v -0.15395808 0.53264803 0.90115219
v -0.36038628 0.67714250 0.57647955
v -0.30622891 0.64960498 0.68807620
v -0.22331981 0.72738987 0.57434410
v -0.41008496 0.41998154 0.87132055
v -0.37012240 0.54396194 0.78317863
v -0.49715507 0.47336397 0.76261568
v -0.65339196 0.57934916 0.50505662
v -0.59100235 0.53259945 0.64018011
v -0.50983626 0.64307308 0.54603237
v -0.33046135 0.81930703 0.11164823
v -0.38161775 0.80882078 -0.01089489
v -0.22208555 0.80511433 0.35385180
v -0.27944535 0.80819309 0.23657703
v -0.13954012 0.87236208 0.00446257
v -0.19524142 0.84613800 0.12827919
v -0.07452216 0.86574703 0.12598372
v 0.06346513 0.65040308 0.77238697
v -0.01674334 0.71102971 0.69447005
v 0.12720859 0.80436367 0.48368162
v 0.06963488 0.76314998 0.58863503
v 0.22114909 0.76784885 0.57719588
v -0.07614550 0.74068755 0.59310168
v -0.14684626 0.77443361 0.48541895
v 0.33914948 0.86204803 -0.02556481
v 0.29872662 0.86729968 0.10496001
v 0.41866547 0.84678793 0.10409486
v 0.07204034 0.87652463 0.11899826
v 0.18515594 0.87698209 0.11928865
v 0.10129340 0.88496578 -0.00682379
v 0.33608067 0.83353347 0.36086747
v 0.25761890 0.85533196 0.23878670
v 0.19967981 0.84527582 0.35605532
v -0.08740553 0.83044255 0.36636281
v 0.05646770 0.84111756 0.36568949
v -0.00676846 0.86217904 0.23742408
v -0.33868977 0.82388514 -0.13120517
v -0.46214235 0.79106092 -0.14426723
v -0.08876788 0.87367523 -0.11786809
v -0.21174747 0.85693043 -0.12303966
v -0.36497951 0.77776563 -0.38913083
v -0.28573492 0.82460928 -0.25539637
v -0.23229298 0.80262887 -0.37793654
v 0.42598370 0.83247143 -0.14584117
v 0.29473010 0.85851049 -0.14726473
v 0.18805528 0.81830239 -0.38439035
v 0.24116421 0.84405577 -0.26664603
v 0.31918919 0.79506648 -0.38287318
v 0.16189805 0.86994648 -0.13824083
v 0.04590755 0.87647027 -0.12802054
v -0.07998233 0.60357285 -0.79832828
v -0.00434468 0.67159361 -0.71612525
v 0.07694727 0.60683602 -0.79187441
v -0.16039686 0.76605648 -0.51490641
v -0.08880736 0.72786909 -0.61955827
v -0.24193728 0.71296477 -0.61667806
v 0.21760230 0.72101063 -0.60796565
v 0.06714367 0.73093134 -0.61390710
v 0.12645325 0.77278739 -0.51123995
v -0.01927735 0.85350198 -0.24964301
v 0.05485527 0.82370245 -0.38650858
v -0.08915603 0.81588203 -0.38536128
v -0.55617601 0.75887889 -0.22615258
v -0.59565628 0.75262278 -0.09105209
v -0.45000133 0.71894234 -0.48113170
v -0.50000721 0.74261314 -0.35716447
v -0.76411194 0.61814857 -0.25252965
v -0.64119136 0.69511038 -0.30783296
v -0.71738994 0.60510135 -0.38721731
v -0.12845826 0.49822336 -0.89972246
v -0.21282351 0.56574702 -0.81135160
v -0.47799835 0.46440858 -0.79102957
v -0.34665701 0.52413499 -0.81848711
v -0.39855507 0.41625345 -0.88411337
v -0.30220473 0.62954271 -0.72262323
v -0.37987429 0.66768134 -0.61288846
v -0.92891365 0.19962238 -0.50375491
v -0.84074670 0.26914400 -0.60329223
v -0.85638160 0.14328061 -0.63494188
v -0.77764183 0.48440257 -0.46618110
v -0.81198484 0.38189110 -0.54467869
v -0.88163531 0.42863080 -0.38504860
v -0.64928561 0.25730208 -0.80452549
v -0.73146111 0.32457200 -0.68956047
v -0.62126571 0.38303757 -0.73871082
v -0.51837850 0.62751245 -0.58191633
v -0.56926256 0.51351607 -0.67500430
v -0.65549928 0.56248420 -0.53285891
v -0.69545937 0.69605100 -0.01284831
v -0.87200856 0.55471003 -0.16339064
v -0.79262292 0.63065958 -0.09554394
v -0.77826333 0.62896186 0.06994002
v -0.84433830 0.54750979 0.16552837
v -0.96835589 0.08802821 -0.42651081
v -0.98565984 0.20502281 -0.37654427
v -1.03894246 0.23779123 -0.07331602
v -1.02990150 0.21707667 -0.23069291
v -1.06081831 0.11438997 -0.13541512
v -0.95997488 0.31800237 -0.31627318
v -0.93069410 0.43140987 -0.24648099
v -0.97172248 0.21364389 0.39361480
v -0.98612595 0.09735700 0.42648518
v -0.91364741 0.42828748 0.25852987
v -0.95902610 0.31754947 0.32887876
v -1.06992722 0.11622521 0.13375218
v -1.01817942 0.21541336 0.25318587
v -1.02713680 0.22672166 0.11883270
v -0.94419020 0.44661367 -0.07663416
v -1.01624250 0.33792028 0.01745747
v -0.93525249 0.44371146 0.09300762
v 0.51095057 0.82036662 0.19618125
v 0.55101800 0.80233771 0.06704414
v 0.41960695 0.78159678 0.44768494
v 0.47131214 0.80873698 0.32874963
v 0.73203564 0.69231379 0.23633260
v 0.61164618 0.75996798 0.28606489
v 0.68305510 0.69001442 0.37351102
v 0.11576683 0.56583899 0.89236975
v 0.20358130 0.62624580 0.78601539
v 0.48491082 0.53395677 0.78002161
v 0.34838963 0.59019321 0.79223877
v 0.39718077 0.48778924 0.87966722
v 0.28064522 0.69196522 0.68347299
v 0.35536978 0.73115259 0.58017087
v 0.90696025 0.26778188 0.52001673
v 0.83744812 0.35003924 0.59823149
v 0.85505044 0.22067241 0.66080493
v 0.76196188 0.58644724 0.47432256
v 0.79945707 0.47004917 0.54955918
v 0.85439640 0.51811463 0.39056030
v 0.62831694 0.35896248 0.80367059
v 0.74663872 0.42643905 0.68955892
v 0.62673992 0.48317811 0.75010508
v 0.50496960 0.70246994 0.55972368
v 0.56657606 0.59870219 0.67093533
v 0.64006037 0.65008587 0.52662176
v -0.15258391 0.41515714 0.97231424
v -0.00754506 0.47540453 0.95283526
v -0.42359582 0.29993075 0.94294918
v -0.29950866 0.35350037 0.96991980
v 0.00050491 0.23294522 1.04450512
v -0.15450470 0.29479843 1.02606094
v -0.13480593 0.17713195 1.05154669
v -0.84004974 0.07337222 0.66750842
v -0.75997299 0.10199508 0.76957744
v -0.52885222 0.05316656 0.90619838
v -0.65389502 0.00588492 0.84963077
v -0.60019737 0.07969180 0.78992409
v -0.65877229 0.14122240 0.85368383
v -0.55142051 0.21581306 0.90502524
v 0.02453903 0.23040830 0.96242958
v -0.12594512 0.20490119 0.95667011
v -0.09502898 0.28711608 0.88857645
v -0.11763417 0.03278686 1.07132256
v -0.09069959 0.07269309 0.97821403
v 0.02671856 0.03344747 1.07405031
v -0.34753275 0.24333146 0.86123389
v -0.25643557 0.14141382 0.93251193
v -0.37492734 0.11067173 0.94407308
v -0.41748464 0.17001636 0.97895819
v -0.38944602 0.01998507 0.99535739
v -0.25673547 0.13242616 1.04390240
v -0.96750766 0.01005198 0.37724662
v -0.89522702 0.00063818 0.49800599
v -1.02293634 0.02167956 0.09214081
v -0.98736668 0.02594688 0.21036054
v -0.85322762 0.22861709 0.38661799
v -0.92689687 0.14130108 0.29850495
v -0.90733427 0.27568316 0.25266922
v -0.91062599 0.06658996 -0.51824284
v -0.96866554 0.00000000 -0.38635221
v -0.91314632 0.24988028 -0.24317288
v -0.95058012 0.12309895 -0.31642643
v -0.85432142 0.24080883 -0.38543642
v -1.03144991 0.00166799 -0.22840722
v -1.06151783 0.02117599 -0.07711591
v -0.61109614 0.61987185 0.11461918
v -0.68561679 0.56537801 0.02612794
v -0.58783138 0.60533059 -0.04911799
v -0.82923609 0.40211135 0.19315836
v -0.74030924 0.49193478 0.09582260
v -0.76221222 0.47344556 0.27195436
v -0.74275315 0.44301987 -0.22471635
v -0.76054358 0.48141140 -0.08728635
v -0.84179354 0.37758172 -0.16198865
v -0.98523211 0.14905030 0.02491798
v -0.92037332 0.25629872 -0.07879900
v -0.94408005 0.31242472 0.08895995
v -0.76818550 0.07793607 -0.74654621
v -0.83824819 0.00646492 -0.64773470
v -0.54994076 0.22515926 -0.91370934
v -0.67629701 0.14135888 -0.83261544
v -0.60778326 0.08751897 -0.73594201
v -0.65773022 0.00743583 -0.83149695
v -0.54024756 0.00462647 -0.86470717
v 0.00953937 0.43605137 -0.95549911
v -0.12514597 0.40250736 -0.97725683
v -0.11816435 0.16048850 -1.06960464
v -0.12392776 0.27724794 -1.03787422
v 0.01152198 0.23399298 -1.06544662
v -0.25850829 0.34645060 -0.97135210
v -0.39744440 0.30903012 -0.95121968
v -0.14910416 0.28096086 -0.84794635
v -0.14710835 0.14772806 -0.90530849
v -0.01827410 0.18364380 -0.88766283
v -0.41056141 0.10607177 -0.89469922
v -0.26041684 0.09581742 -0.86483759
v -0.39686623 0.20118886 -0.82392174
v 0.01432069 0.00000000 -1.01285803
v -0.13963482 0.01642574 -0.93713945
v -0.12698318 0.01778986 -1.05846930
v -0.42514595 0.17283465 -0.99411339
v -0.28086418 0.11438674 -1.04247808
v -0.43684515 0.00526257 -0.98522532
v 0.21323696 0.58017761 -0.81913167
v 0.13696948 0.51274568 -0.89839727
v 0.34745896 0.69085592 -0.60754067
v 0.28546253 0.64095062 -0.71509504
v 0.40479031 0.42047936 -0.88176131
v 0.34304687 0.53784299 -0.80651480
v 0.48077077 0.48772383 -0.78018159
v 0.56752294 0.78776169 -0.09262980
v 0.52147126 0.79056078 -0.21995462
v 0.68759376 0.65152943 -0.37876496
v 0.61017352 0.72938597 -0.30085790
v 0.74109530 0.66045445 -0.25037855
v 0.46591711 0.77337945 -0.34316447
v 0.41657078 0.74086410 -0.46445960
v 0.83368599 0.17120396 -0.64496779
v 0.83379859 0.29264879 -0.59172809
v 0.91473222 0.21065952 -0.49271965
v 0.61117810 0.42204493 -0.73674119
v 0.74084198 0.36200351 -0.67750251
v 0.64168036 0.31563246 -0.78972179
v 0.86701071 0.47082686 -0.40244883
v 0.81357872 0.42788363 -0.53684956
v 0.76318622 0.54248077 -0.47369480
v 0.48947084 0.65707523 -0.57126880
v 0.63763005 0.60222226 -0.52684128
v 0.57016408 0.55133605 -0.65786880
v 0.64675164 0.55443430 0.08344106
v 0.60184240 0.55299735 0.22256556
v 0.54575413 0.66206032 0.14283270
v 0.69482642 0.32707238 0.36833286
v 0.64643204 0.42016849 0.29967922
v 0.75059038 0.27797303 0.23615327
v 0.40979639 0.62462342 0.38723448
v 0.54948175 0.52480662 0.35745522
v 0.48168230 0.52203405 0.46063912
v 0.86149442 0.04721032 0.67014509
v 0.80356932 0.09156334 0.59125155
v 0.91472805 0.00250559 0.50234455
v 0.59683436 0.15368128 0.67597783
v 0.71265316 0.08159364 0.64955163
v 0.62405205 0.05984392 0.72339183
v 0.83153182 0.08124326 0.33984965
v 0.74592745 0.15985210 0.48941693
v 0.73222327 0.20998776 0.39725986
v 0.15234534 0.40411428 0.79934472
v 0.25618017 0.35387361 0.80535352
v 0.16387627 0.27521688 0.88955128
v 0.39180285 0.48645806 0.60219574
v 0.32867205 0.43965641 0.70378935
v 0.29635289 0.55657846 0.61193281
v 0.39231032 0.18243715 0.79777873
v 0.40160835 0.32391751 0.77363592
v 0.48304901 0.24815574 0.74259162
v 0.63786280 0.28855222 0.51694846
v 0.58152765 0.28384075 0.62453800
v 0.52259082 0.40622488 0.53708333
v 0.38593683 0.57022619 0.16194256
v 0.40162143 0.56943417 0.05498531
v 0.28181127 0.70825207 0.42152134
v 0.35681093 0.71203458 0.28390762
v 0.13777739 0.58585399 0.03159942
v 0.24622001 0.68654722 0.14907533
v 0.10429234 0.65379328 0.20176743
v -0.02761479 0.41633970 0.79241127
v 0.07380611 0.49412158 0.73324025
v -0.11091049 0.67093372 0.57591671
v -0.04246694 0.58448064 0.65574914
v -0.21924053 0.58258855 0.62362289
v 0.13702612 0.58444154 0.65493065
v 0.20935139 0.66788119 0.54895991
v -0.34803674 0.60124236 0.08903436
v -0.33291852 0.72600567 0.17816354
v -0.47531739 0.66370755 0.19442557
v -0.07884007 0.66977572 0.18914470
v -0.18500073 0.79681456 0.18631464
v -0.09790815 0.66243988 0.05773215
v -0.36366495 0.66613704 0.40687057
v -0.27802846 0.74558812 0.30083361
v -0.21070173 0.73484731 0.45150697
v 0.12923029 0.73780745 0.43979281
v -0.05068943 0.76356018 0.44180530
v 0.00786708 0.69203681 0.33512065
v 0.37366208 0.68448043 -0.09642994
v 0.50928813 0.59467036 -0.09035160
v 0.11028036 0.64647716 -0.10403088
v 0.22991838 0.58977664 -0.12439208
v 0.37463561 0.65818858 -0.34407279
v 0.33056170 0.76100016 -0.24690655
v 0.26185483 0.73868352 -0.36083314
v -0.42675704 0.65144843 -0.06825092
v -0.29083431 0.59234440 -0.03538490
v -0.16529743 0.48693374 -0.30730307
v -0.24263769 0.59265214 -0.18377265
v -0.33034196 0.51229304 -0.31187299
v -0.17165406 0.63026392 -0.05382892
v -0.07305698 0.65043741 -0.10370988
v 0.05965507 0.42180863 -0.80434227
v -0.00946777 0.52039695 -0.74020422
v -0.11082873 0.43563116 -0.80059373
v 0.19136421 0.64430475 -0.53390408
v 0.06680918 0.60982752 -0.63304490
v 0.24530786 0.56861043 -0.58897632
v -0.21728034 0.47242483 -0.58066201
v -0.06958683 0.59685344 -0.63470036
v -0.09890240 0.52209479 -0.49182448
v 0.06628063 0.64782625 -0.22405916
v -0.00999864 0.57888883 -0.35171747
v 0.11518946 0.69871312 -0.41339338
v 0.60906649 0.56262726 -0.21985297
v 0.63672894 0.57328981 -0.07951626
v 0.46126765 0.56277251 -0.44040182
v 0.52124447 0.57155842 -0.33162248
v 0.73931831 0.36560458 -0.20119920
v 0.64022952 0.47649962 -0.30593619
v 0.71843672 0.39426515 -0.34972540
v 0.10037368 0.27950019 -0.84279960
v 0.20171677 0.37253949 -0.76702565
v 0.45687902 0.26576355 -0.76715016
v 0.33175248 0.33482864 -0.78671926
v 0.38029227 0.21986037 -0.85166383
v 0.30465102 0.46902809 -0.69916975
v 0.38591030 0.55299437 -0.59350187
v 0.90599746 0.00345198 -0.51276582
v 0.77815664 0.06433272 -0.58188409
v 0.81551105 0.01296174 -0.63658136
v 0.75131071 0.30437616 -0.45868570
v 0.76589972 0.19869249 -0.54614544
v 0.82047796 0.19274886 -0.38130397
v 0.58681208 0.06838987 -0.78020006
v 0.66810971 0.13243933 -0.66910940
v 0.59162086 0.18949346 -0.70014548
v 0.51250124 0.45765340 -0.56882828
v 0.53831583 0.31856257 -0.65710157
v 0.65074247 0.37900779 -0.52165729
v 0.71587998 0.45805272 -0.00057993
v 0.82696742 0.25123224 -0.16000797
v 0.79004586 0.37439725 -0.08145878
v 0.78442007 0.33176139 0.08186893
v 0.83219773 0.22175792 0.13554087
v 0.98707390 0.11349282 -0.40849185
v 0.95776069 0.00023786 -0.37540317
v 1.06324148 0.07647754 -0.09931089
v 1.01968515 0.03272601 -0.23443688
v 1.05664372 0.17601864 -0.16683586
v 0.92078799 0.09886631 -0.34878081
v 0.87779957 0.15362521 -0.25639832
v 0.98463011 0.02146691 0.36689603
v 0.97613901 0.14554918 0.43463224
v 0.88047832 0.09554614 0.18511018
v 0.91952598 0.00042707 0.27805108
v 1.04297471 0.16044626 0.13811171
v 1.00839591 0.04589796 0.21313272
v 1.03331828 0.06412516 0.05893362
v 0.89656842 0.12033210 -0.12142296
v 0.95892549 0.00000000 -0.04745044
v 0.89098281 0.12327836 0.03456324
v 0.17047785 0.20443700 0.95771164
v 0.39774096 0.10503738 0.90843922
v 0.31309110 0.15715119 0.91956592
v 0.17677537 0.14320892 1.00292742
v 0.15611060 0.07204009 1.06242037
v 0.76451921 0.14657991 0.75718629
v 0.54143226 0.25896168 0.89281750
v 0.67119211 0.21765171 0.83539242
v 0.64460027 0.05498416 0.83270913
v 0.52578390 0.00070370 0.87063932
v 0.12291068 0.44451940 0.95378041
v 0.13410994 0.20873019 1.04362392
v 0.12603769 0.32949620 1.01158762
v 0.27478009 0.40771180 0.96113580
v 0.40580064 0.34837672 0.93009281
v 0.40330938 0.07064275 0.98470384
v 0.42105064 0.20925093 0.99154216
v 0.26901361 0.15558909 1.03191209
v -0.55469835 0.61310959 0.27979344
v -0.42762634 0.56192005 0.49390739
v -0.51259965 0.57103324 0.38575295
v -0.65599203 0.49848145 0.32832241
v -0.70124495 0.38257426 0.36561263
v -0.18083858 0.39532694 0.80881482
v -0.43791026 0.30911905 0.75945258
v -0.31212139 0.32865658 0.78722274
v -0.27943417 0.48120043 0.72248602
v -0.35899478 0.54584932 0.59422886
v -0.78482914 0.03388994 0.58091629
v -0.76279634 0.28944239 0.48129582
v -0.75148213 0.16789769 0.53886390
v -0.66956812 0.10957836 0.69593024
v -0.56955856 0.19512545 0.71275109
v -0.50193983 0.45285016 0.57602090
v -0.56029266 0.33413482 0.65523273
v -0.67613870 0.35027733 0.55085051
v -0.23014194 0.38663420 -0.80945665
v -0.35761636 0.53583020 -0.61615354
v -0.33377793 0.45883372 -0.72391164
v -0.35646582 0.36714929 -0.76935142
v -0.48222312 0.28684190 -0.74653083
v -0.53597105 0.63370520 -0.18946259
v -0.69226927 0.45337707 -0.35589665
v -0.60567850 0.55434155 -0.27657458
v -0.47380748 0.63738680 -0.33845034
v -0.41268301 0.60254246 -0.45230678
v -0.82295763 0.10670066 -0.57515037
v -0.62629938 0.23052771 -0.67913556
v -0.70894933 0.14956138 -0.64069194
v -0.80056745 0.19604971 -0.48836774
v -0.76590931 0.34051895 -0.44815916
v -0.52939701 0.53352803 -0.55787605
v -0.63665617 0.43795386 -0.52021742
v -0.58070940 0.39527476 -0.65999573
v 0.75383681 0.09430850 -0.73364913
v 0.53743213 0.04797238 -0.90056062
v 0.64379728 0.00915393 -0.81439525
v 0.65313464 0.16367856 -0.82751352
v 0.57159185 0.22304474 -0.88625193
v 0.10583413 0.14434101 -0.89498520
v 0.13454424 0.00742308 -1.03117883
v 0.10531708 0.06270933 -0.95036542
v 0.24592526 0.16960490 -0.92303288
v 0.37106740 0.12223116 -0.91560864
v 0.15283208 0.41128352 -0.97497720
v 0.42349365 0.29611236 -0.94066310
v 0.29193497 0.36840513 -0.98172575
v 0.15614972 0.28437650 -1.01961005
v 0.14681223 0.16601042 -1.05225158
v 0.42882401 0.00317355 -0.96913415
v 0.29219162 0.10545112 -1.03467405
v 0.44343022 0.17122155 -0.98441267
v 0.96652454 0.27757698 0.38585764
v 1.05671406 0.29278353 0.09453908
v 1.01960397 0.28325668 0.23460966
v 0.95451009 0.40261438 0.31980383
v 0.91133535 0.50742495 0.25007921
v 0.98806727 0.26264551 -0.37254846
v 0.90838945 0.49226272 -0.26245168
v 0.95821953 0.38050506 -0.31628823
v 1.02883768 0.28370345 -0.23680319
v 1.04566514 0.29894590 -0.08673295
v 0.66201717 0.74852794 -0.00943939
v 0.83904684 0.62575072 0.16245370
v 0.76027131 0.70451766 0.07482815
v 0.76408529 0.68230540 -0.09335717
v 0.83845717 0.59861004 -0.16720618
v 1.00835335 0.41404584 -0.00558223
v 0.93462986 0.51156986 -0.09630239
v 0.93679452 0.52391058 0.08366766
f 330 87 329
f 336 325 26
f 207 208 56
f 464 36 580
f 502 129 504
f 157 624 622
f 308 311 82
f 247 223 248
f 507 483 508
f 331 88 329
f 494 500 497
f 156 601 602
f 591 589 592
f 365 98 596
f 75 281 282
f 152 587 577
f 149 559 560
f 555 121 553
f 530 141 529
f 515 517 139
f 361 594 98
f 250 67 249
f 157 608 609
f 294 293 209
f 317 81 316
f 557 338 26
f 303 305 81
f 530 529 528
f 101 381 382
f 415 418 111
f 192 184 50
f 412 110 411
f 20 384 256
f 131 594 486
f 281 264 282
f 347 287 348
f 28 349 582
f 165 163 1
f 248 250 66
f 617 107 398
f 273 271 274
f 456 115 453
f 558 561 560
f 335 576 91
f 331 177 332
f 116 433 436
f 351 370 92
f 136 511 530
f 239 240 65
f 247 258 19
f 304 23 567
f 148 557 570
f 214 208 58
f 440 426 450
f 268 270 269
f 258 247 268
f 204 202 16
f 466 125 465
f 517 513 133
f 168 275 274
f 275 73 274
f 198 193 53
f 309 308 307
f 510 511 136
f 415 416 110
f 131 490 597
f 473 475 474
f 414 415 111
f 493 495 494
f 496 504 485
f 433 116 432
f 600 375 601
f 240 234 65
f 418 415 412
f 486 361 3
f 567 566 304
f 380 393 29
f 17 199 197
f 491 492 132
f 451 449 435
f 218 217 216
f 623 621 613
f 396 104 395
f 433 439 436
f 628 160 627
f 215 202 217
f 209 207 2
f 427 113 424
f 434 10 544
f 434 433 432
f 199 17 210
f 150 564 565
f 489 491 132
f 275 13 285
f 497 500 134
f 125 466 476
f 578 152 577
f 208 214 211
f 328 88 343
f 356 27 603
f 150 566 567
f 372 100 371
f 190 191 47
f 235 8 398
f 260 261 72
f 422 403 414
f 422 414 111
f 453 454 123
f 349 583 582
f 521 520 519
f 425 453 115
f 616 622 158
f 483 130 508
f 151 586 572
f 212 17 232
f 400 397 402
f 377 396 99
f 41 522 511
f 510 508 505
f 549 547 42
f 475 473 36
f 510 137 509
f 222 221 197
f 430 115 429
f 220 194 1
f 305 54 204
f 621 29 613
f 192 171 184
f 460 335 5
f 88 331 332
f 74 277 279
f 300 301 80
f 390 389 388
f 165 45 164
f 146 549 551
f 291 278 75
f 448 120 445
f 147 543 544
f 607 610 609
f 603 602 356
f 139 529 514
f 333 553 443
f 92 368 347
f 261 260 259
f 300 6 200
f 46 177 331
f 284 283 174
f 301 300 200
f 471 468 474
f 54 305 301
f 302 304 303
f 569 150 567
f 150 569 570
f 294 209 2
f 628 629 160
f 548 543 147
f 147 625 627
f 63 233 234
f 426 427 114
f 41 509 532
f 198 52 196
f 614 105 612
f 147 627 547
f 81 305 306
f 549 548 547
f 54 301 200
f 342 88 332
f 264 281 70
f 193 194 53
f 455 429 456
f 187 321 14
f 479 130 484
f 147 544 625
f 458 456 453
f 304 80 303
f 314 84 313
f 488 503 501
f 321 332 14
f 423 425 424
f 305 204 306
f 341 339 25
f 514 40 516
f 625 628 627
f 340 339 341
f 105 614 391
f 243 228 62
f 318 316 78
f 75 278 279
f 357 355 353
f 238 257 63
f 466 455 476
f 425 423 4
f 448 449 120
f 408 638 108
f 292 275 285
f 22 278 289
f 515 513 517
f 501 503 134
f 622 623 158
f 134 503 504
f 195 216 206
f 163 271 246
f 619 617 620
f 62 228 229
f 163 165 164
f 453 425 454
f 489 132 488
f 82 628 625
f 58 208 209
f 525 608 40
f 626 547 627
f 518 517 498
f 489 487 491
f 557 26 564
f 325 336 344
f 541 145 539
f 40 616 516
f 338 556 89
f 250 248 245
f 139 514 515
f 98 594 596
f 246 220 1
f 112 413 630
f 9 536 413
f 156 600 601
f 332 177 14
f 321 342 332
f 156 606 600
f 584 330 585
f 302 303 81
f 584 87 330
f 330 25 585
f 400 239 65
f 439 440 117
f 95 358 368
f 597 594 131
f 594 361 486
f 246 67 245
f 561 562 149
f 28 364 362
f 55 216 217
f 427 430 114
f 267 20 254
f 556 555 553
f 84 309 558
f 311 310 312
f 609 525 142
f 256 68 255
f 124 460 461
f 82 311 312
f 307 308 82
f 589 135 495
f 527 40 514
f 112 418 412
f 20 256 254
f 258 238 19
f 267 254 269
f 273 272 249
f 392 391 393
f 137 533 509
f 122 455 456
f 9 413 411
f 130 480 505
f 333 443 5
f 527 525 40
f 589 495 385
f 39 496 485
f 223 225 224
f 414 416 415
f 219 222 53
f 145 538 539
f 413 412 411
f 469 468 467
f 183 181 6
f 191 192 50
f 429 35 431
f 292 285 76
f 413 112 412
f 415 110 412
f 43 164 167
f 467 468 126
f 617 101 620
f 450 451 117
f 438 546 545
f 619 620 159
f 17 212 210
f 124 579 576
f 584 153 583
f 460 124 576
f 3 469 467
f 311 308 314
f 6 320 183
f 389 104 388
f 251 250 249
f 194 165 1
f 291 289 278
f 287 77 348
f 238 258 257
f 139 517 518
f 238 236 19
f 223 247 19
f 382 380 29
f 39 518 498
f 361 359 3
f 69 255 257
f 139 518 528
f 33 545 535
f 387 385 7
f 69 268 269
f 477 462 125
f 454 479 123
f 121 555 447
f 451 435 117
f 454 425 4
f 233 252 8
f 124 463 464
f 69 258 268
f 168 167 166
f 583 153 582
f 384 394 102
f 138 512 513
f 57 210 211
f 254 256 255
f 607 609 142
f 324 319 86
f 289 291 76
f 291 292 76
f 384 102 383
f 422 421 420
f 221 17 197
f 383 102 381
f 376 377 99
f 99 373 374
f 386 105 392
f 438 33 440
f 90 341 343
f 281 75 279
f 574 571 96
f 628 82 312
f 221 222 59
f 127 471 474
f 595 605 603
f 551 538 145
f 334 91 340
f 322 324 85
f 305 303 301
f 18 239 399
f 306 204 16
f 199 198 197
f 166 190 180
f 303 80 301
f 267 266 265
f 626 42 547
f 16 215 213
f 349 351 350
f 295 16 213
f 68 379 252
f 250 251 66
f 627 160 626
f 383 68 256
f 343 88 342
f 507 508 136
f 202 215 16
f 197 198 53
f 254 69 269
f 603 605 156
f 418 419 111
f 384 383 256
f 455 122 476
f 203 204 54
f 556 557 148
f 255 68 253
f 313 84 560
f 25 328 341
f 254 255 69
f 603 156 602
f 581 584 583
f 630 632 112
f 163 246 1
f 246 245 220
f 432 116 558
f 499 591 590
f 320 563 86
f 345 93 350
f 306 16 295
f 346 93 345
f 562 568 149
f 604 605 155
f 154 592 593
f 545 552 535
f 511 522 530
f 574 573 571
f 566 150 565
f 361 98 360
f 67 271 273
f 234 235 65
f 208 211 56
f 574 151 573
f 251 270 66
f 398 8 378
f 213 215 214
f 438 440 439
f 315 314 313
f 263 71 262
f 20 373 384
f 496 134 504
f 329 88 328
f 81 306 316
f 555 556 148
f 592 589 103
f 617 619 107
f 227 207 56
f 571 359 96
f 446 466 465
f 206 216 55
f 359 571 469
f 568 148 570
f 34 437 435
f 28 351 349
f 21 272 282
f 113 423 424
f 490 489 488
f 379 68 383
f 210 212 211
f 80 563 300
f 351 92 350
f 326 346 12
f 83 317 318
f 555 148 554
f 212 231 56
f 218 57 217
f 271 67 246
f 195 196 52
f 270 268 66
f 390 592 103
f 148 568 554
f 495 493 7
f 592 390 593
f 357 95 355
f 574 575 151
f 452 120 451
f 154 591 592
f 587 585 577
f 395 394 396
f 93 349 350
f 610 416 611
f 166 44 190
f 315 23 302
f 315 302 317
f 268 247 66
f 606 154 593
f 396 394 99
f 211 212 56
f 370 369 368
f 235 397 65
f 280 278 22
f 83 315 317
f 575 588 151
f 74 279 280
f 385 495 7
f 63 257 253
f 397 235 398
f 214 58 213
f 220 219 194
f 546 146 545
f 236 225 19
f 599 94 602
f 235 233 8
f 102 394 395
f 611 416 32
f 225 223 19
f 139 528 529
f 231 62 229
f 419 406 421
f 451 450 452
f 49 182 185
f 402 397 107
f 52 199 218
f 416 610 110
f 225 236 244
f 107 397 398
f 68 252 253
f 322 85 321
f 182 181 183
f 118 438 439
f 546 438 118
f 348 77 345
f 543 546 118
f 231 212 232
f 610 611 157
f 33 438 545
f 385 386 103
f 479 480 130
f 169 195 15
f 93 583 349
f 15 195 206
f 190 44 192
f 247 248 66
f 146 552 545
f 248 60 245
f 570 557 564
f 274 271 43
f 63 253 233
f 272 21 249
f 507 528 518
f 67 273 249
f 487 467 126
f 196 195 169
f 624 159 623
f 134 496 497
f 132 503 488
f 104 393 395
f 556 553 89
f 355 356 94
f 258 69 257
f 229 61 227
f 56 231 227
f 460 576 335
f 463 124 461
f 394 373 99
f 29 393 391
f 67 250 245
f 193 198 196
f 462 36 464
f 144 633 630
f 141 526 527
f 517 133 498
f 536 144 630
f 100 372 599
f 144 536 537
f 22 289 287
f 578 579 152
f 579 578 576
f 189 188 187
f 60 223 224
f 92 348 350
f 555 554 447
f 396 377 388
f 194 193 165
f 413 536 630
f 372 352 599
f 377 376 375
f 348 345 350
f 105 386 387
f 240 237 234
f 463 462 464
f 135 500 494
f 45 196 169
f 512 612 387
f 245 60 220
f 429 115 456
f 223 60 248
f 288 289 76
f 525 526 142
f 100 599 601
f 613 29 391
f 526 523 520
f 341 328 343
f 631 641 639
f 264 21 282
f 266 72 265
f 106 402 403
f 73 273 274
f 186 206 205
f 381 379 383
f 52 216 195
f 410 18 399
f 290 272 73
f 72 371 374
f 526 525 527
f 115 430 424
f 498 497 496
f 621 382 29
f 543 118 434
f 214 215 57
f 522 141 530
f 511 510 509
f 352 94 599
f 493 512 7
f 90 340 341
f 169 171 170
f 605 604 606
f 219 60 224
f 104 389 392
f 359 469 3
f 186 49 185
f 222 219 224
f 166 167 44
f 428 427 426
f 523 522 524
f 129 502 481
f 50 185 188
f 164 45 170
f 425 115 424
f 33 428 426
f 427 428 113
f 94 356 602
f 515 138 513
f 114 431 452
f 237 236 238
f 215 217 57
f 95 354 355
f 220 60 219
f 515 514 516
f 183 320 319
f 222 197 53
f 559 569 567
f 300 320 6
f 435 436 117
f 96 360 363
f 640 642 641
f 242 243 62
f 140 537 519
f 508 130 505
f 420 410 399
f 537 539 144
f 317 316 318
f 426 114 450
f 186 15 206
f 311 83 310
f 625 544 307
f 544 10 307
f 168 43 167
f 185 182 188
f 369 354 95
f 44 171 192
f 605 606 156
f 548 549 146
f 100 601 375
f 149 568 569
f 381 380 382
f 455 466 35
f 480 479 454
f 543 548 546
f 493 133 513
f 492 472 37
f 477 125 476
f 491 487 126
f 337 336 338
f 588 153 587
f 576 578 91
f 633 161 632
f 96 359 360
f 39 485 483
f 101 617 378
f 193 45 165
f 163 164 43
f 618 624 611
f 507 136 528
f 561 149 560
f 641 162 639
f 116 561 558
f 494 133 493
f 253 252 233
f 63 237 238
f 392 393 104
f 440 450 117
f 93 581 583
f 386 385 387
f 120 449 451
f 421 422 111
f 486 3 467
f 302 81 317
f 633 632 630
f 462 475 36
f 376 99 374
f 489 490 131
f 447 449 448
f 387 612 105
f 106 420 399
f 173 46 172
f 492 491 472
f 316 306 295
f 22 287 347
f 109 410 420
f 507 39 483
f 559 23 313
f 214 57 211
f 196 45 193
f 10 434 432
f 422 106 403
f 626 160 640
f 487 486 467
f 542 41 532
f 400 106 399
f 444 120 452
f 198 199 52
f 475 127 474
f 621 620 382
f 621 623 159
f 450 114 452
f 92 347 348
f 376 100 375
f 434 118 433
f 503 132 502
f 337 90 336
f 537 536 519
f 395 393 380
f 201 54 200
f 171 44 170
f 355 94 353
f 58 296 213
f 422 420 106
f 595 365 596
f 569 568 570
f 523 140 520
f 114 430 431
f 218 210 57
f 304 566 80
f 639 162 638
f 261 371 72
f 548 147 547
f 498 133 497
f 150 570 564
f 222 224 59
f 142 526 520
f 437 436 435
f 141 522 523
f 137 510 505
f 173 179 176
f 559 149 569
f 121 447 448
f 563 320 300
f 102 395 380
f 257 255 253
f 642 162 641
f 83 311 314
f 216 52 218
f 512 493 513
f 23 304 302
f 91 339 340
f 512 138 612
f 159 620 621
f 218 199 210
f 364 28 575
f 83 318 310
f 168 274 43
f 136 530 528
f 140 523 524
f 495 135 494
f 233 235 234
f 566 563 80
f 25 339 577
f 277 74 276
f 475 462 477
f 133 494 497
f 436 437 116
f 389 386 392
f 548 146 546
f 441 460 5
f 10 309 307
f 65 397 400
f 543 434 544
f 640 641 161
f 272 273 73
f 581 93 346
f 419 421 111
f 319 320 86
f 180 179 178
f 127 475 477
f 231 229 227
f 337 334 340
f 136 508 510
f 308 309 84
f 237 63 234
f 447 554 34
f 252 379 378
f 315 83 314
f 608 622 616
f 338 336 26
f 337 338 89
f 13 275 168
f 209 208 207
f 436 439 117
f 628 312 629
f 360 366 363
f 364 574 96
f 359 361 360
f 466 446 35
f 500 501 134
f 406 109 421
f 135 589 591
f 601 599 602
f 340 90 337
f 481 492 37
f 522 41 524
f 78 316 295
f 131 486 487
f 403 32 414
f 634 626 640
f 151 572 573
f 515 516 138
f 8 252 378
f 265 72 374
f 9 521 519
f 538 549 42
f 368 358 347
f 588 587 586
f 458 453 123
f 589 385 103
f 502 492 481
f 32 416 414
f 430 427 424
f 153 585 587
f 540 144 539
f 370 368 92
f 209 293 58
f 428 33 535
f 326 581 346
f 625 307 82
f 575 28 582
f 6 181 200
f 421 109 420
f 553 121 443
f 160 642 640
f 153 584 585
f 309 432 558
f 334 337 89
f 23 315 313
f 271 163 43
f 296 295 213
f 39 498 496
f 118 439 433
f 531 113 534
f 293 296 58
f 28 362 351
f 489 131 487
f 431 444 452
f 84 558 560
f 98 366 360
f 45 169 170
f 379 101 378
f 462 463 125
f 308 84 314
f 10 432 309
f 299 24 310
f 132 492 502
f 512 387 7
f 639 638 408
f 565 323 86
f 59 244 242
f 106 400 402
f 440 33 426
f 566 565 563
f 617 398 378
f 224 225 59
f 410 109 409
f 239 400 399
f 194 219 53
f 358 22 347
f 610 157 609
f 27 595 603
f 479 484 482
f 142 520 521
f 585 25 577
f 339 578 577
f 408 407 406
f 407 109 406
f 31 408 406
f 407 408 108
f 31 639 408
f 419 31 406
f 608 616 40
f 430 429 431
f 455 35 429
f 35 444 431
f 188 51 187
f 188 182 51
f 51 322 187
f 322 51 319
f 51 182 183
f 319 51 183
f 187 322 321
f 322 319 324
f 381 101 379
f 405 407 108
f 404 405 108
f 286 285 178
f 407 405 409
f 109 407 409
f 191 175 47
f 167 164 170
f 50 184 185
f 44 167 170
f 64 244 236
f 243 244 64
f 50 188 189
f 541 542 145
f 442 445 119
f 339 91 578
f 445 446 119
f 624 623 622
f 611 624 157
f 523 526 141
f 141 527 529
f 527 514 529
f 445 120 444
f 446 445 444
f 35 446 444
f 613 614 158
f 158 614 615
f 623 613 158
f 614 613 391
f 614 612 615
f 371 376 374
f 100 376 371
f 479 482 123
f 373 394 384
f 540 42 634
f 633 540 634
f 538 42 540
f 633 634 161
f 161 634 640
f 42 626 634
f 540 633 144
f 557 556 338
f 553 333 89
f 262 21 264
f 251 21 262
f 5 335 333
f 270 251 262
f 21 251 249
f 600 593 30
f 606 593 600
f 600 30 375
f 593 390 30
f 30 377 375
f 390 388 30
f 30 388 377
f 228 243 241
f 470 478 459
f 470 127 478
f 127 477 478
f 184 186 185
f 478 477 476
f 122 478 476
f 357 74 280
f 518 39 507
f 344 342 85
f 325 344 85
f 342 344 343
f 85 342 321
f 344 90 343
f 90 344 336
f 482 129 481
f 482 481 457
f 482 457 123
f 481 37 457
f 449 447 34
f 435 449 34
f 470 472 471
f 472 470 37
f 470 471 127
f 472 126 471
f 126 468 471
f 470 459 37
f 491 126 472
f 504 129 485
f 221 59 242
f 125 463 465
f 437 34 562
f 561 437 562
f 554 568 562
f 34 554 562
f 437 561 116
f 390 103 389
f 103 386 389
f 392 105 391
f 572 586 580
f 572 580 36
f 586 152 580
f 473 572 36
f 244 243 242
f 225 244 59
f 64 240 241
f 240 239 241
f 237 240 64
f 243 64 241
f 236 237 64
f 411 607 521
f 9 411 521
f 110 607 411
f 607 142 521
f 610 607 110
f 171 15 184
f 171 169 15
f 15 186 184
f 87 584 581
f 153 588 582
f 588 575 582
f 381 102 380
f 573 572 473
f 468 469 128
f 474 468 128
f 469 571 128
f 571 573 128
f 573 473 128
f 473 474 128
f 564 323 565
f 26 323 564
f 323 324 86
f 325 323 26
f 325 324 323
f 563 565 86
f 324 325 85
f 410 230 18
f 230 228 18
f 18 228 241
f 18 241 239
f 401 619 618
f 401 402 107
f 403 402 401
f 619 159 618
f 401 618 32
f 619 401 107
f 403 401 32
f 618 611 32
f 159 624 618
f 478 122 459
f 122 458 459
f 37 459 457
f 459 458 457
f 122 456 458
f 457 458 123
f 191 190 192
f 485 129 484
f 129 482 484
f 483 485 484
f 130 483 484
f 189 187 14
f 191 50 189
f 191 189 175
f 189 14 175
f 14 177 175
f 499 501 500
f 501 499 38
f 38 499 590
f 135 499 500
f 488 501 38
f 499 135 591
f 480 454 4
f 284 12 346
f 4 423 506
f 480 4 506
f 423 531 506
f 480 506 505
f 531 137 506
f 506 137 505
f 365 366 98
f 71 270 262
f 270 71 269
f 71 267 269
f 335 334 333
f 333 334 89
f 334 335 91
f 536 9 519
f 465 463 461
f 537 140 541
f 520 140 519
f 119 446 465
f 465 461 119
f 461 441 119
f 460 441 461
f 176 46 173
f 299 297 24
f 71 263 266
f 263 260 266
f 260 72 266
f 263 70 260
f 205 201 49
f 201 181 49
f 186 205 49
f 181 201 200
f 181 182 49
f 284 77 283
f 586 587 152
f 588 586 151
f 20 267 265
f 266 267 71
f 31 417 631
f 631 417 632
f 31 631 639
f 417 31 419
f 641 631 161
f 417 112 632
f 161 631 632
f 418 417 419
f 417 418 112
f 284 345 77
f 542 550 145
f 542 541 524
f 284 174 12
f 48 174 283
f 373 20 265
f 373 265 374
f 609 608 525
f 608 157 622
f 560 559 313
f 636 637 162
f 541 140 524
f 41 542 524
f 358 357 280
f 70 263 264
f 263 262 264
f 176 177 46
f 174 48 173
f 174 173 172
f 538 551 549
f 538 540 539
f 537 541 539
f 232 221 242
f 17 221 232
f 232 242 62
f 231 232 62
f 203 205 55
f 203 55 202
f 201 205 203
f 202 55 217
f 205 206 55
f 204 203 202
f 73 275 292
f 292 290 73
f 272 290 282
f 290 292 291
f 75 290 291
f 290 75 282
f 70 277 259
f 277 70 281
f 277 281 279
f 260 70 259
f 12 174 172
f 104 396 388
f 367 27 354
f 365 27 367
f 354 27 356
f 365 367 366
f 595 27 365
f 318 299 310
f 155 596 597
f 155 597 598
f 596 594 597
f 595 596 155
f 605 595 155
f 180 47 179
f 180 190 47
f 352 372 11
f 11 372 261
f 312 310 24
f 642 636 162
f 636 297 637
f 367 369 97
f 366 367 97
f 369 367 354
f 369 370 97
f 580 579 464
f 580 152 579
f 579 124 464
f 61 230 409
f 230 410 409
f 230 61 229
f 230 229 228
f 76 285 286
f 353 352 276
f 74 353 276
f 288 76 286
f 288 286 283
f 289 288 287
f 203 54 201
f 287 288 77
f 77 288 283
f 286 48 283
f 531 423 113
f 276 11 259
f 11 261 259
f 277 276 259
f 616 158 615
f 516 616 615
f 138 516 615
f 138 615 612
f 509 533 532
f 503 502 504
f 635 79 294
f 635 294 404
f 635 637 79
f 637 635 638
f 638 635 108
f 635 404 108
f 226 61 405
f 61 226 227
f 405 61 409
f 227 226 207
f 48 178 179
f 48 286 178
f 173 48 179
f 534 143 533
f 534 535 143
f 531 534 533
f 533 143 532
f 137 531 533
f 261 372 371
f 13 180 178
f 285 13 178
f 180 13 166
f 13 168 166
f 346 345 284
f 331 327 46
f 46 327 172
f 172 327 326
f 382 620 101
f 442 121 448
f 443 121 442
f 2 226 404
f 294 2 404
f 404 226 405
f 207 226 2
f 550 551 145
f 552 146 551
f 143 550 532
f 552 550 143
f 330 329 328
f 24 636 629
f 94 352 353
f 352 11 276
f 113 428 534
f 428 535 534
f 509 41 511
f 535 552 143
f 550 552 551
f 550 542 532
f 369 95 368
f 326 327 87
f 87 327 329
f 327 331 329
f 581 326 87
f 293 79 298
f 79 297 298
f 296 298 78
f 79 293 294
f 296 293 298
f 598 490 38
f 358 280 22
f 280 279 278
f 357 358 95
f 74 357 353
f 330 328 25
f 567 23 559
f 590 598 38
f 590 604 598
f 598 604 155
f 604 590 154
f 590 591 154
f 604 154 606
f 297 299 298
f 299 318 78
f 298 299 78
f 355 354 356
f 629 636 642
f 312 24 629
f 629 642 160
f 370 362 97
f 362 363 97
f 363 366 97
f 364 363 362
f 362 370 351
f 96 363 364
f 297 636 24
f 162 637 638
f 637 297 79
f 490 488 38
f 598 597 490
f 441 442 119
f 443 442 441
f 443 441 5
f 442 448 445
f 296 78 295
f 326 12 172
f 575 574 364
f 47 175 176
f 175 177 176
f 47 176 179
