# FEM surface export ¡ª frame 753
# Vertices: 642  Faces: 1280
v -0.49362683 0.76303959 -0.01305454
v 0.45519456 0.80655801 -0.02087086
v -0.51846671 0.66191518 0.06291471
v 0.57580769 0.60457683 0.02868185
v 0.01447705 0.37109080 0.83435577
v -0.00497749 0.57257646 0.86715120
v -0.02467734 0.27850124 -0.81818891
v -0.01007877 0.54267806 -0.87745816
v 0.92531449 0.12351622 -0.55613351
v 0.90004063 0.13567573 0.55751467
v -0.92954510 0.11663866 -0.55377227
v -0.92160541 0.11736967 0.58557427
v -0.82090598 0.54240763 0.30557731
v -0.53935212 0.36659268 0.82858759
v -0.30002546 0.72922802 0.46703500
v 0.28219858 0.77453244 0.46796602
v -0.01288476 0.83139879 0.00717851
v 0.26802662 0.75803345 -0.49656439
v -0.30612466 0.74976742 -0.49320915
v -0.52800739 0.35084006 -0.87144232
v -0.82556504 0.53819329 -0.32499298
v -1.07070410 0.13306002 0.00623146
v 0.53277999 0.41639835 0.85019183
v 0.81174195 0.60548449 0.31883734
v -0.47163177 0.17142448 0.83882535
v 0.01333846 0.11218594 1.06004488
v -0.81935549 0.34618473 -0.31428465
v -0.81283772 0.31992817 0.31031373
v 0.00580880 0.11557680 -1.08258712
v -0.51555938 0.15462235 -0.80039495
v 0.81945360 0.57474023 -0.32961470
v 0.52905327 0.37594742 -0.84800178
v 0.79788852 0.23379573 0.29500440
v 0.49710670 0.14337792 0.78839040
v 0.31791386 0.58825564 0.47470388
v -0.27447006 0.62404609 0.50527781
v 0.02006978 0.61927837 0.05182678
v -0.28794330 0.47598848 -0.45655823
v 0.34446594 0.59308505 -0.50232059
v 0.47384721 0.14249302 -0.83195066
v 0.77166170 0.22768576 -0.31288844
v 1.08088827 0.18691172 -0.00208613
v -0.67200536 0.68047166 0.14345035
v -0.56628001 0.65758950 0.40879241
v -0.39745688 0.75692230 0.22900079
v -0.73829949 0.23211600 0.74185193
v -0.70813453 0.46311811 0.59797841
v -0.91048414 0.33779791 0.46127829
v -0.15201682 0.67556047 0.67629677
v -0.42638692 0.59505337 0.66827482
v -0.28232843 0.48443681 0.88376474
v -0.13446005 0.79859811 0.25432453
v -0.24515788 0.80969995 0.01600733
v 0.14923908 0.69353217 0.68954802
v -0.00702286 0.77002060 0.48529959
v 0.21131049 0.82925135 -0.00758004
v 0.14862441 0.81990832 0.23337404
v 0.38670143 0.80581439 0.23505944
v -0.16092829 0.80981117 -0.24159828
v -0.40552619 0.77572125 -0.25286484
v 0.37399897 0.79060203 -0.26937091
v 0.11114592 0.81641084 -0.25148413
v -0.17438634 0.65904343 -0.70881885
v -0.01535245 0.75588214 -0.51284081
v 0.13425334 0.67119020 -0.70892411
v -0.58118212 0.65847796 -0.44012997
v -0.68027222 0.67435664 -0.17870815
v -0.28179878 0.46105030 -0.90644842
v -0.43475947 0.58142740 -0.71974975
v -0.89801824 0.33238775 -0.46466297
v -0.70869154 0.45506272 -0.62238759
v -0.74423063 0.23885714 -0.77280629
v -0.86739868 0.56180048 -0.01364671
v -1.03925204 0.10941450 -0.27819607
v -1.01336956 0.32879627 -0.16241269
v -1.00115013 0.35900643 0.16660754
v -1.04023051 0.11757360 0.29867613
v 0.57385987 0.72508878 0.41459164
v 0.64432704 0.74575478 0.14523230
v 0.27185145 0.51904196 0.90078425
v 0.42974073 0.64616007 0.68779099
v 0.91916484 0.38914254 0.47985211
v 0.71966004 0.52819872 0.61194575
v 0.75647855 0.28227741 0.73499668
v -0.29478481 0.26910987 1.02659643
v -0.00368377 0.35203740 1.03131628
v -0.70037222 0.00290015 0.75052947
v -0.54278302 0.08126543 0.93764883
v 0.02244935 0.14373966 0.99131215
v -0.24574958 0.00677622 1.00778437
v -0.26090840 0.26946718 0.87042159
v -0.93986273 0.08115309 0.17408608
v -0.88041705 0.09080862 0.45687684
v -0.87858814 0.12683506 -0.43997997
v -0.97668022 0.11942463 -0.18954764
v -0.72075796 0.48531812 0.16433714
v -0.84552634 0.35160434 -0.01802363
v -0.66494018 0.52286154 -0.15808907
v -0.59332573 0.10426661 -0.91347480
v -0.74299991 0.03793509 -0.70084870
v 0.00447157 0.34295958 -1.03642809
v -0.28584233 0.24453199 -1.03427434
v -0.27858207 0.18506470 -0.84445506
v -0.27270275 0.00040703 -0.99141371
v 0.00034716 0.06538755 -0.94711351
v 0.41055724 0.59971249 -0.71562463
v 0.26506838 0.47112849 -0.89261127
v 0.64786267 0.72109336 -0.17699812
v 0.55532151 0.68572587 -0.43928573
v 0.76427597 0.25261986 -0.73657739
v 0.70595914 0.46990043 -0.61286408
v 0.90847766 0.35694864 -0.46159026
v 0.71739656 0.43048412 0.16031523
v 0.60198450 0.41304862 0.41140369
v 0.47752413 0.60924226 0.26167464
v 0.73000878 0.00288492 0.75557607
v 0.68204701 0.18686134 0.58301091
v 0.87236762 0.11976451 0.40372351
v 0.18175605 0.50038707 0.71330261
v 0.41870213 0.37005755 0.66413295
v 0.21823040 0.23571645 0.84578264
v 0.23287481 0.76203424 0.28296921
v 0.27109963 0.56283593 0.04467973
v -0.13350523 0.52711201 0.70462978
v 0.03206720 0.66932750 0.55097020
v -0.25764048 0.63638151 0.05834593
v -0.13013729 0.73448706 0.33017355
v -0.45780453 0.66359681 0.29618853
v 0.20278440 0.65532553 -0.26491424
v 0.42692003 0.62035304 -0.18582042
v -0.40898463 0.67549700 -0.22676608
v -0.12569740 0.55752319 -0.21563497
v 0.17148641 0.45393419 -0.67433184
v 0.02045283 0.58232725 -0.53810322
v -0.16571872 0.49096805 -0.71274924
v 0.58674335 0.47578543 -0.38469669
v 0.69836646 0.44517952 -0.16363712
v 0.24089471 0.22101943 -0.87728179
v 0.43718776 0.38285995 -0.69810122
v 0.87195408 0.09953716 -0.45530027
v 0.68795782 0.21325466 -0.59068590
v 0.71379220 0.00000000 -0.74794799
v 0.84029442 0.22600286 0.00289560
v 1.03452802 0.15406241 -0.28789482
v 0.96614981 0.00000000 -0.20152132
v 0.97204709 0.00000000 0.13737676
v 1.03758192 0.17420141 0.29903153
v 0.30901247 0.03378074 1.00959635
v 0.57276398 0.12737009 0.92041177
v 0.27691850 0.28514925 1.02600336
v -0.56119072 0.49691433 0.42256832
v -0.38185942 0.43656191 0.69657511
v -0.65770984 0.25436124 0.62347400
v -0.42568773 0.42811814 -0.69979423
v -0.56406885 0.54929495 -0.41086859
v -0.70146376 0.27769539 -0.56743222
v 0.55544424 0.08706658 -0.92763418
v 0.26516494 0.00000000 -1.01941347
v 0.28929392 0.23277237 -1.02887094
v 0.99205917 0.42446491 0.17830363
v 0.99486214 0.40471181 -0.17718552
v 0.83982617 0.62810045 -0.00828066
v -0.57951391 0.73009562 0.06396835
v -0.53082013 0.72726673 0.19386950
v -0.44376734 0.75983769 0.11263668
v -0.70703107 0.60894388 0.35685369
v -0.61679435 0.67665970 0.28302780
v -0.75586164 0.61282003 0.21912335
v -0.35424307 0.74673516 0.34955761
v -0.48300382 0.71486527 0.32721716
v -0.42813927 0.69597781 0.44410589
v -0.82719624 0.17765833 0.66164333
v -0.84268987 0.28822759 0.61604422
v -0.94045550 0.23880194 0.52787006
v -0.63502163 0.40471604 0.72017944
v -0.74653250 0.35434797 0.67007113
v -0.63793308 0.29100028 0.79008657
v -0.87524706 0.44547164 0.38058195
v -0.81020039 0.41130349 0.53241193
v -0.77548271 0.51094967 0.45309728
v -0.08174723 0.63082314 0.78047347
v -0.21592817 0.59613234 0.79297662
v -0.14474872 0.52824497 0.88893217
v -0.35762134 0.67168301 0.57687467
v -0.29107857 0.62848848 0.68766558
v -0.23010102 0.69974560 0.57070529
v -0.41696355 0.42971179 0.85822856
v -0.36247107 0.54044282 0.78732020
v -0.49828044 0.49951658 0.75652337
v -0.65257859 0.59004998 0.49742338
v -0.58676577 0.54139566 0.63889492
v -0.50175011 0.62688392 0.55114937
v -0.32451081 0.78401017 0.12460370
v -0.36960745 0.78507257 0.00005398
v -0.22037661 0.77568197 0.36433062
v -0.26997793 0.78076720 0.25329843
v -0.13326836 0.83132613 0.00839735
v -0.19189499 0.80498600 0.13971254
v -0.07432872 0.82427603 0.13063350
v 0.07802349 0.64029455 0.78124499
v -0.00623429 0.69179308 0.68425268
v 0.13580069 0.76792312 0.47548136
v 0.06928188 0.73496890 0.57986754
v 0.22353831 0.73570365 0.58128577
v -0.07933371 0.72994196 0.57655644
v -0.15404980 0.76237154 0.47958520
v 0.33516008 0.81411469 -0.02454469
v 0.30335540 0.82159662 0.10925036
v 0.41734517 0.81495202 0.10320204
v 0.07451537 0.82792914 0.11549572
v 0.18669453 0.82894486 0.11587218
v 0.10014278 0.83904988 -0.01104421
v 0.35481289 0.79246110 0.35920903
v 0.26340729 0.81016892 0.23698342
v 0.21186496 0.79498357 0.34125483
v -0.07686893 0.79632849 0.37295386
v 0.06304903 0.79839927 0.35744566
v 0.00429971 0.81781250 0.23510964
v -0.33446512 0.80258137 -0.11600697
v -0.45695043 0.76997519 -0.13380006
v -0.09087097 0.82891268 -0.11461345
v -0.20938376 0.82059985 -0.11025061
v -0.35207134 0.77274829 -0.36838749
v -0.28053051 0.80128074 -0.24062599
v -0.22559996 0.79045045 -0.36352003
v 0.41736501 0.80475450 -0.14859323
v 0.28653756 0.82206857 -0.14241189
v 0.19336908 0.79375279 -0.37734702
v 0.23963323 0.80702400 -0.26125744
v 0.32550040 0.77450037 -0.38461801
v 0.16194509 0.83198011 -0.12897183
v 0.04019099 0.83317465 -0.12507699
v -0.09790629 0.60436124 -0.80136836
v -0.02016147 0.67142457 -0.71874118
v 0.06231415 0.61063749 -0.80080038
v -0.16624215 0.75429082 -0.50602263
v -0.10202966 0.71868861 -0.61449945
v -0.24514318 0.70914638 -0.60782260
v 0.20698516 0.72013146 -0.60703862
v 0.05205119 0.72441590 -0.61308217
v 0.12332693 0.76040685 -0.50872988
v -0.02915027 0.81388938 -0.24927393
v 0.05570433 0.79356885 -0.38025525
v -0.08690817 0.79165477 -0.37887648
v -0.54154223 0.73547989 -0.22926818
v -0.59036112 0.73038137 -0.10011307
v -0.43545422 0.71132648 -0.47102293
v -0.48964536 0.72333831 -0.35830986
v -0.76732886 0.61781245 -0.24322917
v -0.63278168 0.68023998 -0.30856740
v -0.71301818 0.60524768 -0.38766661
v -0.14030655 0.50348729 -0.90023285
v -0.22322126 0.56117827 -0.82262921
v -0.48811233 0.46842995 -0.80183733
v -0.36218244 0.52139121 -0.82054645
v -0.41482881 0.41286430 -0.89804423
v -0.29718471 0.61570525 -0.72602665
v -0.36993763 0.67465359 -0.61824125
v -0.91581219 0.21569662 -0.51667780
v -0.82418495 0.28314653 -0.62081802
v -0.83451921 0.16536191 -0.67268288
v -0.77582258 0.49808443 -0.47630674
v -0.81001449 0.39029393 -0.54699945
v -0.85644633 0.42329407 -0.39731354
v -0.64552230 0.29953369 -0.80551881
v -0.73217589 0.35110545 -0.68324625
v -0.62508249 0.41084316 -0.74848878
v -0.51256484 0.62644529 -0.58083844
v -0.58185047 0.52574766 -0.68571913
v -0.65491575 0.56235027 -0.53226978
v -0.68266231 0.69383627 -0.01273337
v -0.86145294 0.54574066 -0.16624768
v -0.77599090 0.63079917 -0.09320245
v -0.77756643 0.63487351 0.06501331
v -0.85935742 0.56003845 0.14328890
v -0.98624784 0.10785011 -0.41440022
v -0.98276216 0.22682752 -0.38403636
v -1.05869758 0.23924595 -0.08424314
v -1.02761638 0.23196796 -0.22680265
v -1.04314089 0.12862366 -0.14505726
v -0.96301633 0.34363961 -0.31249470
v -0.92526972 0.43405545 -0.25002131
v -0.99266297 0.23895629 0.38354951
v -0.99280769 0.11777912 0.45376819
v -0.92382079 0.45627156 0.24055514
v -0.95320463 0.34426278 0.31447044
v -1.06485534 0.11500399 0.15671292
v -1.03213942 0.24054545 0.23219110
v -1.06745434 0.24000089 0.09197926
v -0.96530682 0.44697270 -0.08658823
v -1.01414859 0.34688133 0.00829308
v -0.94675750 0.46608061 0.08025417
v 0.50393671 0.79499102 0.19142914
v 0.55263555 0.78025824 0.05745844
v 0.43347180 0.75184268 0.45389324
v 0.48333442 0.78055906 0.32948455
v 0.73371077 0.68852878 0.23234877
v 0.61376643 0.75055146 0.28538841
v 0.70110667 0.67641294 0.36647707
v 0.12895459 0.54881638 0.89786208
v 0.21408054 0.61682534 0.80418688
v 0.48432931 0.55325478 0.79262114
v 0.35606045 0.58110625 0.80272514
v 0.41043544 0.47047102 0.89418972
v 0.29015121 0.67458671 0.69840556
v 0.35969722 0.72041792 0.58473992
v 0.91623718 0.26046345 0.52396828
v 0.84157366 0.33817348 0.60969496
v 0.83575946 0.19771218 0.66261411
v 0.77345693 0.56161928 0.47252950
v 0.82277066 0.46059528 0.56132603
v 0.87445092 0.50906873 0.40467146
v 0.65369606 0.35142815 0.80110347
v 0.74192762 0.41278166 0.68083376
v 0.63078725 0.48737535 0.75015497
v 0.50496602 0.68768412 0.55752885
v 0.57471108 0.58819252 0.65560490
v 0.64855605 0.63371849 0.51717347
v -0.15678783 0.41428313 0.96595967
v -0.01717082 0.46198335 0.95701069
v -0.42800462 0.32486266 0.93457955
v -0.30073991 0.37284389 0.95984709
v -0.00288778 0.23986283 1.06614220
v -0.14926665 0.29918212 1.03140616
v -0.14581226 0.17469825 1.06839252
v -0.82938796 0.07811429 0.68494642
v -0.74757648 0.12250594 0.78553194
v -0.52328151 0.03237770 0.90293181
v -0.64346611 0.02727080 0.85007894
v -0.59845614 0.07687285 0.77252436
v -0.65210593 0.15319617 0.86189818
v -0.54226351 0.23848294 0.89729828
v 0.00888490 0.25547913 0.91370070
v -0.10301608 0.21732995 0.94243222
v -0.12947719 0.31351003 0.85498750
v -0.11158489 0.05058103 1.07279468
v -0.07398800 0.06596270 1.00428438
v 0.04147258 0.00797000 1.04485059
v -0.36904719 0.22981450 0.83995008
v -0.22834794 0.16270640 0.92330009
v -0.34996733 0.11195616 0.92490518
v -0.41852599 0.18045048 0.98120862
v -0.39296979 0.02966673 1.00787878
v -0.27761495 0.11335715 1.04478133
v -0.97411150 0.01107467 0.38962832
v -0.91384351 0.00000000 0.53350961
v -1.01949012 0.00173903 0.10126682
v -1.02197111 0.00971312 0.25661945
v -0.84233803 0.22058478 0.38334876
v -0.93518233 0.13243137 0.33539537
v -0.91094071 0.22434507 0.23691766
v -0.89450032 0.12444054 -0.50009036
v -0.97050530 0.01710069 -0.40798002
v -0.91418183 0.23981531 -0.27712849
v -0.94858724 0.10390687 -0.32230571
v -0.87389851 0.23592220 -0.38943094
v -1.01446688 0.00000000 -0.24782737
v -1.05807674 0.04057107 -0.09360086
v -0.64114344 0.58272302 0.11894539
v -0.71232718 0.52360964 0.00296210
v -0.59554929 0.59389573 -0.04655434
v -0.84478748 0.33085975 0.13762683
v -0.81081688 0.45903379 0.08905657
v -0.76748157 0.37263665 0.24137996
v -0.75420111 0.46152729 -0.23633032
v -0.77237540 0.46875697 -0.09470217
v -0.84697419 0.37717035 -0.17540321
v -0.92862827 0.06839099 -0.02116919
v -0.91483343 0.20728895 -0.09452723
v -0.92944866 0.22646230 0.08367635
v -0.79312330 0.09487627 -0.75991976
v -0.86153311 0.01552968 -0.63629371
v -0.56884259 0.24533252 -0.93680227
v -0.68785244 0.16722895 -0.86648524
v -0.65095776 0.12713607 -0.75346082
v -0.67981380 0.01236221 -0.81611866
v -0.58049530 0.00807614 -0.84892851
v -0.00729533 0.44061011 -0.96095186
v -0.14643084 0.40982485 -0.97778326
v -0.13765605 0.19450516 -1.08944941
v -0.14527573 0.30491006 -1.03226948
v 0.01826508 0.22501740 -1.07398999
v -0.29092258 0.34817150 -0.97615027
v -0.41853333 0.29996839 -0.96748215
v -0.14692236 0.22882529 -0.84645110
v -0.14481154 0.10709921 -0.90098757
v -0.02493455 0.17701657 -0.89132327
v -0.41506493 0.04670855 -0.87760520
v -0.29251784 0.07863465 -0.86466318
v -0.40521288 0.17239867 -0.80707008
v 0.00718484 0.00000000 -1.03137982
v -0.12471295 0.00048831 -0.93719345
v -0.13808528 0.05361173 -1.05326903
v -0.43835989 0.16426548 -1.01095271
v -0.28722587 0.10719504 -1.07572985
v -0.45124930 0.02722021 -0.98748893
v 0.20583251 0.57891613 -0.80793756
v 0.12541008 0.51141268 -0.89291126
v 0.34214374 0.68872815 -0.61688775
v 0.27351469 0.64233845 -0.71675813
v 0.40176719 0.41508901 -0.89164561
v 0.34887278 0.54274666 -0.81272995
v 0.48139489 0.49351531 -0.79943627
v 0.55759168 0.77124459 -0.10044868
v 0.51539814 0.76583564 -0.23082830
v 0.69975013 0.63795257 -0.38997376
v 0.60879225 0.71335727 -0.31392649
v 0.74473566 0.65696323 -0.24862936
v 0.47004786 0.74361300 -0.35911107
v 0.41332269 0.73178732 -0.48483136
v 0.84332037 0.17131059 -0.65760136
v 0.84992790 0.28945374 -0.60153228
v 0.92507976 0.25029677 -0.52019268
v 0.64066136 0.43171015 -0.74622804
v 0.75066698 0.36832991 -0.68653232
v 0.65181875 0.29564303 -0.81617630
v 0.86608249 0.47276098 -0.40104324
v 0.81599945 0.40832350 -0.54778534
v 0.76689547 0.52676600 -0.48573172
v 0.49164057 0.64736313 -0.58741850
v 0.64062160 0.59369171 -0.54064411
v 0.56207484 0.53724581 -0.67731273
v 0.61475152 0.50400168 0.09393363
v 0.60825092 0.50291413 0.23920795
v 0.51678717 0.57815552 0.15636565
v 0.71949536 0.34042102 0.38664168
v 0.66987634 0.42649710 0.32531357
v 0.78337657 0.32123035 0.23453860
v 0.43023530 0.61129701 0.36457154
v 0.52940106 0.50352311 0.34904486
v 0.46270198 0.52454597 0.45532593
v 0.83012766 0.04627862 0.65215081
v 0.79414028 0.07901455 0.58210778
v 0.92562258 0.04390065 0.49581757
v 0.62950540 0.16624881 0.69731665
v 0.72264326 0.08998431 0.64668560
v 0.63945055 0.07387988 0.78071719
v 0.79057282 0.15547623 0.34081638
v 0.75352675 0.11728857 0.48733729
v 0.70732212 0.21257854 0.42209002
v 0.11787590 0.43325907 0.80355334
v 0.25375247 0.39905524 0.78266799
v 0.11837960 0.34653398 0.87606704
v 0.36872065 0.48026836 0.58577323
v 0.31013721 0.45542935 0.68538314
v 0.24047863 0.55441213 0.59662908
v 0.38788411 0.22747217 0.83454269
v 0.33225048 0.31041360 0.75761026
v 0.47860664 0.24246384 0.71969986
v 0.64666808 0.30650213 0.50668174
v 0.54686457 0.27932629 0.60464156
v 0.53205568 0.41301218 0.53382522
v 0.37348768 0.52394211 0.17023215
v 0.41857660 0.52372104 0.02140382
v 0.29400155 0.69346970 0.35830823
v 0.36553621 0.68515229 0.24930701
v 0.15645204 0.61335069 0.06756007
v 0.28079411 0.67606920 0.15924311
v 0.13963358 0.68506628 0.17916383
v -0.07381932 0.43637395 0.78995728
v 0.01808853 0.52271110 0.72903037
v -0.11900384 0.65630168 0.51265359
v -0.05498012 0.59433824 0.63452083
v -0.21159592 0.58660179 0.60295719
v 0.09320732 0.58692926 0.63658905
v 0.17241727 0.64723605 0.50228554
v -0.37295160 0.57591635 0.07390086
v -0.37253973 0.72750497 0.18980134
v -0.49653256 0.65622354 0.18558212
v -0.05200293 0.69983745 0.18225671
v -0.21233495 0.76995653 0.17387973
v -0.12866122 0.64801961 0.07421479
v -0.36237839 0.65323067 0.40284666
v -0.30077794 0.71985650 0.30946463
v -0.21591234 0.71375424 0.41898015
v 0.13323542 0.74898148 0.41823176
v -0.03931254 0.73947179 0.42882365
v 0.07089795 0.63862669 0.31002757
v 0.36509719 0.58295107 -0.07085887
v 0.54553002 0.55611557 -0.10713065
v 0.10936707 0.63828003 -0.10965613
v 0.21204624 0.62415528 -0.07556466
v 0.41794482 0.60681611 -0.36149785
v 0.30215427 0.68396825 -0.25169909
v 0.29931274 0.69216555 -0.40401846
v -0.46318090 0.68146718 -0.07478321
v -0.36288160 0.58641267 -0.10410386
v -0.20064856 0.47173843 -0.30968347
v -0.24437784 0.58395576 -0.20361002
v -0.36380288 0.57546902 -0.34247172
v -0.19661933 0.62007487 -0.08109170
v -0.06095880 0.60203284 -0.10603126
v 0.09615000 0.37570289 -0.75828505
v 0.01630939 0.47442791 -0.68961149
v -0.08352619 0.39183557 -0.76061606
v 0.19955371 0.62711328 -0.53640866
v 0.11125641 0.56303978 -0.62954044
v 0.25387126 0.54559761 -0.61305082
v -0.18268935 0.41431153 -0.57018292
v -0.08237750 0.56163323 -0.62253571
v -0.13424490 0.49566340 -0.49094987
v 0.07167459 0.60237402 -0.26659170
v -0.03089720 0.53574520 -0.38018087
v 0.14928262 0.59482133 -0.38106120
v 0.59777337 0.56801194 -0.22890650
v 0.63781869 0.54694235 -0.10264462
v 0.46127978 0.54273665 -0.45683730
v 0.53008384 0.58887434 -0.33859938
v 0.75941175 0.33795348 -0.24525097
v 0.66433698 0.44908741 -0.26246467
v 0.69246405 0.35368323 -0.38159421
v 0.11250600 0.24589486 -0.86758095
v 0.21726485 0.34315348 -0.80606282
v 0.47403067 0.25006169 -0.76157081
v 0.35513967 0.29342276 -0.77986294
v 0.38011709 0.17173751 -0.85110009
v 0.29553753 0.42767569 -0.70245159
v 0.37664732 0.47932106 -0.59231365
v 0.92949814 0.00759495 -0.50726795
v 0.80929285 0.05501733 -0.58865893
v 0.82817578 0.01325472 -0.64369339
v 0.75853509 0.23163457 -0.46453732
v 0.76562524 0.15221092 -0.54234868
v 0.82049346 0.14371164 -0.39368850
v 0.58547229 0.04821722 -0.77720666
v 0.69322985 0.07786634 -0.67828244
v 0.57651722 0.15791845 -0.72504187
v 0.53260648 0.44943520 -0.56687999
v 0.57756156 0.32374763 -0.66703814
v 0.64560795 0.35892710 -0.50543523
v 0.71636522 0.44894248 0.01138330
v 0.80467284 0.22956605 -0.17840788
v 0.78651768 0.34257922 -0.08209683
v 0.78373373 0.32947606 0.08727064
v 0.81700313 0.21793658 0.14265911
v 0.98872703 0.12051852 -0.42934099
v 0.99176508 0.02049481 -0.38032946
v 1.08043301 0.07741980 -0.09178309
v 1.04287136 0.08270913 -0.23958172
v 1.06505990 0.19426441 -0.14996082
v 0.91845071 0.06986430 -0.32289270
v 0.85734856 0.10129385 -0.25517198
v 0.98340368 0.01462872 0.36121696
v 0.97023284 0.13562182 0.41353565
v 0.84445900 0.08371309 0.22021186
v 0.91056371 0.01014557 0.29238948
v 1.05838680 0.19107817 0.15048912
v 1.01936853 0.07622004 0.22614789
v 1.04527020 0.09277471 0.07580774
v 0.88717115 0.11211227 -0.11401722
v 0.98341817 0.00000000 -0.03925805
v 0.88668644 0.11221513 0.05275138
v 0.16326584 0.24400106 0.92632538
v 0.42013463 0.10297633 0.90055341
v 0.27946034 0.13431959 0.92241257
v 0.18218081 0.12311859 1.02815509
v 0.17690860 0.04313523 1.05458236
v 0.77716136 0.13040926 0.76104295
v 0.55677468 0.27584869 0.89347005
v 0.67855501 0.20074719 0.84537488
v 0.67718929 0.04621140 0.85318482
v 0.55886179 0.03801538 0.88248456
v 0.13415222 0.44888228 0.98529786
v 0.14306600 0.18061621 1.05562663
v 0.14065965 0.31299248 1.03494453
v 0.28179172 0.42210364 0.98143381
v 0.40935338 0.34975231 0.96357232
v 0.43863165 0.04454407 0.98538142
v 0.43668270 0.20275040 0.95980918
v 0.29913399 0.14207305 1.02581966
v -0.60991955 0.57023144 0.25774458
v -0.42772028 0.57734197 0.46151841
v -0.51506281 0.58685923 0.36166307
v -0.64761549 0.47754985 0.31127027
v -0.69501531 0.41486666 0.40321428
v -0.18684594 0.39981538 0.79266721
v -0.42990288 0.30452684 0.77525663
v -0.31715819 0.37674415 0.78996229
v -0.25193503 0.48984000 0.68907434
v -0.33368260 0.52072006 0.58765215
v -0.78786814 0.04402536 0.58842111
v -0.74185705 0.27170801 0.49722698
v -0.74896753 0.15256040 0.51042765
v -0.66216445 0.11143253 0.68107796
v -0.58278304 0.19828449 0.74700552
v -0.48801792 0.49330810 0.56152219
v -0.51280361 0.35893860 0.65871602
v -0.62242866 0.38433731 0.54604793
v -0.21089783 0.31634599 -0.78235829
v -0.30752397 0.50647312 -0.57842845
v -0.28302652 0.42579234 -0.71289384
v -0.37451354 0.27657247 -0.76330370
v -0.49896094 0.31676549 -0.72452009
v -0.56368345 0.61263824 -0.16843264
v -0.72011095 0.46057913 -0.36709574
v -0.65104336 0.55314279 -0.28904900
v -0.52916807 0.61386174 -0.31316200
v -0.42925721 0.58440262 -0.45193624
v -0.81084239 0.09404667 -0.57839561
v -0.62061334 0.24779518 -0.70633364
v -0.70309335 0.16774482 -0.65043658
v -0.78306586 0.16736069 -0.50524068
v -0.77051526 0.29999566 -0.46099094
v -0.50433242 0.47373036 -0.55785799
v -0.65936297 0.42808884 -0.49699149
v -0.58852649 0.36821002 -0.61970788
v 0.78206825 0.11422539 -0.75871700
v 0.51660573 0.07309594 -0.88264591
v 0.67365509 0.04225089 -0.85724491
v 0.66337842 0.16955510 -0.82541031
v 0.54756898 0.23092623 -0.89568287
v 0.09842859 0.15553784 -0.92790467
v 0.16301626 0.03689724 -1.05278051
v 0.14372884 0.05277302 -0.99877882
v 0.24517381 0.13440086 -0.94098550
v 0.35997662 0.08141557 -0.92817920
v 0.13826181 0.41547090 -0.96525800
v 0.41125071 0.29896966 -0.94948351
v 0.28309163 0.36475304 -0.96355200
v 0.15509583 0.29795301 -1.02233350
v 0.17010961 0.18302728 -1.08760393
v 0.41216895 0.00186214 -1.00093019
v 0.30597061 0.11004005 -1.07072186
v 0.43599784 0.16008888 -0.99565339
v 0.98963642 0.27858037 0.39104939
v 1.05394459 0.29622230 0.09239616
v 1.03036630 0.29746613 0.23382424
v 0.96576756 0.41245192 0.33271477
v 0.91899842 0.52509445 0.25477761
v 0.98432142 0.25613347 -0.38233611
v 0.91885483 0.49911848 -0.25708979
v 0.96557003 0.38938528 -0.32685918
v 1.02638757 0.29365477 -0.23721448
v 1.04351151 0.29993826 -0.08996557
v 0.65345550 0.74179679 -0.01752370
v 0.83258635 0.62943113 0.15794507
v 0.74417901 0.69777066 0.07636873
v 0.74897718 0.68462682 -0.08686663
v 0.84730202 0.60302180 -0.16394475
v 1.00917649 0.41130975 0.00530519
v 0.94951814 0.52352864 -0.08953346
v 0.93324202 0.54870796 0.08651910
f 330 87 329
f 336 325 26
f 207 208 56
f 464 36 580
f 502 129 504
f 157 624 622
f 308 311 82
f 247 223 248
f 507 483 508
f 331 88 329
f 494 500 497
f 156 601 602
f 591 589 592
f 365 98 596
f 75 281 282
f 152 587 577
f 149 559 560
f 555 121 553
f 530 141 529
f 515 517 139
f 361 594 98
f 250 67 249
f 157 608 609
f 294 293 209
f 317 81 316
f 557 338 26
f 303 305 81
f 530 529 528
f 101 381 382
f 415 418 111
f 192 184 50
f 412 110 411
f 20 384 256
f 131 594 486
f 281 264 282
f 347 287 348
f 28 349 582
f 165 163 1
f 248 250 66
f 617 107 398
f 273 271 274
f 456 115 453
f 558 561 560
f 335 576 91
f 331 177 332
f 116 433 436
f 351 370 92
f 136 511 530
f 239 240 65
f 247 258 19
f 304 23 567
f 148 557 570
f 214 208 58
f 440 426 450
f 268 270 269
f 258 247 268
f 204 202 16
f 466 125 465
f 517 513 133
f 168 275 274
f 275 73 274
f 198 193 53
f 309 308 307
f 510 511 136
f 415 416 110
f 131 490 597
f 473 475 474
f 414 415 111
f 493 495 494
f 496 504 485
f 433 116 432
f 600 375 601
f 240 234 65
f 418 415 412
f 486 361 3
f 567 566 304
f 380 393 29
f 17 199 197
f 491 492 132
f 451 449 435
f 218 217 216
f 623 621 613
f 396 104 395
f 433 439 436
f 628 160 627
f 215 202 217
f 209 207 2
f 427 113 424
f 434 10 544
f 434 433 432
f 199 17 210
f 150 564 565
f 489 491 132
f 275 13 285
f 497 500 134
f 125 466 476
f 578 152 577
f 208 214 211
f 328 88 343
f 356 27 603
f 150 566 567
f 372 100 371
f 190 191 47
f 235 8 398
f 260 261 72
f 422 403 414
f 422 414 111
f 453 454 123
f 349 583 582
f 521 520 519
f 425 453 115
f 616 622 158
f 483 130 508
f 151 586 572
f 212 17 232
f 400 397 402
f 377 396 99
f 41 522 511
f 510 508 505
f 549 547 42
f 475 473 36
f 510 137 509
f 222 221 197
f 430 115 429
f 220 194 1
f 305 54 204
f 621 29 613
f 192 171 184
f 460 335 5
f 88 331 332
f 74 277 279
f 300 301 80
f 390 389 388
f 165 45 164
f 146 549 551
f 291 278 75
f 448 120 445
f 147 543 544
f 607 610 609
f 603 602 356
f 139 529 514
f 333 553 443
f 92 368 347
f 261 260 259
f 300 6 200
f 46 177 331
f 284 283 174
f 301 300 200
f 471 468 474
f 54 305 301
f 302 304 303
f 569 150 567
f 150 569 570
f 294 209 2
f 628 629 160
f 548 543 147
f 147 625 627
f 63 233 234
f 426 427 114
f 41 509 532
f 198 52 196
f 614 105 612
f 147 627 547
f 81 305 306
f 549 548 547
f 54 301 200
f 342 88 332
f 264 281 70
f 193 194 53
f 455 429 456
f 187 321 14
f 479 130 484
f 147 544 625
f 458 456 453
f 304 80 303
f 314 84 313
f 488 503 501
f 321 332 14
f 423 425 424
f 305 204 306
f 341 339 25
f 514 40 516
f 625 628 627
f 340 339 341
f 105 614 391
f 243 228 62
f 318 316 78
f 75 278 279
f 357 355 353
f 238 257 63
f 466 455 476
f 425 423 4
f 448 449 120
f 408 638 108
f 292 275 285
f 22 278 289
f 515 513 517
f 501 503 134
f 622 623 158
f 134 503 504
f 195 216 206
f 163 271 246
f 619 617 620
f 62 228 229
f 163 165 164
f 453 425 454
f 489 132 488
f 82 628 625
f 58 208 209
f 525 608 40
f 626 547 627
f 518 517 498
f 489 487 491
f 557 26 564
f 325 336 344
f 541 145 539
f 40 616 516
f 338 556 89
f 250 248 245
f 139 514 515
f 98 594 596
f 246 220 1
f 112 413 630
f 9 536 413
f 156 600 601
f 332 177 14
f 321 342 332
f 156 606 600
f 584 330 585
f 302 303 81
f 584 87 330
f 330 25 585
f 400 239 65
f 439 440 117
f 95 358 368
f 597 594 131
f 594 361 486
f 246 67 245
f 561 562 149
f 28 364 362
f 55 216 217
f 427 430 114
f 267 20 254
f 556 555 553
f 84 309 558
f 311 310 312
f 609 525 142
f 256 68 255
f 124 460 461
f 82 311 312
f 307 308 82
f 589 135 495
f 527 40 514
f 112 418 412
f 20 256 254
f 258 238 19
f 267 254 269
f 273 272 249
f 392 391 393
f 137 533 509
f 122 455 456
f 9 413 411
f 130 480 505
f 333 443 5
f 527 525 40
f 589 495 385
f 39 496 485
f 223 225 224
f 414 416 415
f 219 222 53
f 145 538 539
f 413 412 411
f 469 468 467
f 183 181 6
f 191 192 50
f 429 35 431
f 292 285 76
f 413 112 412
f 415 110 412
f 43 164 167
f 467 468 126
f 617 101 620
f 450 451 117
f 438 546 545
f 619 620 159
f 17 212 210
f 124 579 576
f 584 153 583
f 460 124 576
f 3 469 467
f 311 308 314
f 6 320 183
f 389 104 388
f 251 250 249
f 194 165 1
f 291 289 278
f 287 77 348
f 238 258 257
f 139 517 518
f 238 236 19
f 223 247 19
f 382 380 29
f 39 518 498
f 361 359 3
f 69 255 257
f 139 518 528
f 33 545 535
f 387 385 7
f 69 268 269
f 477 462 125
f 454 479 123
f 121 555 447
f 451 435 117
f 454 425 4
f 233 252 8
f 124 463 464
f 69 258 268
f 168 167 166
f 583 153 582
f 384 394 102
f 138 512 513
f 57 210 211
f 254 256 255
f 607 609 142
f 324 319 86
f 289 291 76
f 291 292 76
f 384 102 383
f 422 421 420
f 221 17 197
f 383 102 381
f 376 377 99
f 99 373 374
f 386 105 392
f 438 33 440
f 90 341 343
f 281 75 279
f 574 571 96
f 628 82 312
f 221 222 59
f 127 471 474
f 595 605 603
f 551 538 145
f 334 91 340
f 322 324 85
f 305 303 301
f 18 239 399
f 306 204 16
f 199 198 197
f 166 190 180
f 303 80 301
f 267 266 265
f 626 42 547
f 16 215 213
f 349 351 350
f 295 16 213
f 68 379 252
f 250 251 66
f 627 160 626
f 383 68 256
f 343 88 342
f 507 508 136
f 202 215 16
f 197 198 53
f 254 69 269
f 603 605 156
f 418 419 111
f 384 383 256
f 455 122 476
f 203 204 54
f 556 557 148
f 255 68 253
f 313 84 560
f 25 328 341
f 254 255 69
f 603 156 602
f 581 584 583
f 630 632 112
f 163 246 1
f 246 245 220
f 432 116 558
f 499 591 590
f 320 563 86
f 345 93 350
f 306 16 295
f 346 93 345
f 562 568 149
f 604 605 155
f 154 592 593
f 545 552 535
f 511 522 530
f 574 573 571
f 566 150 565
f 361 98 360
f 67 271 273
f 234 235 65
f 208 211 56
f 574 151 573
f 251 270 66
f 398 8 378
f 213 215 214
f 438 440 439
f 315 314 313
f 263 71 262
f 20 373 384
f 496 134 504
f 329 88 328
f 81 306 316
f 555 556 148
f 592 589 103
f 617 619 107
f 227 207 56
f 571 359 96
f 446 466 465
f 206 216 55
f 359 571 469
f 568 148 570
f 34 437 435
f 28 351 349
f 21 272 282
f 113 423 424
f 490 489 488
f 379 68 383
f 210 212 211
f 80 563 300
f 351 92 350
f 326 346 12
f 83 317 318
f 555 148 554
f 212 231 56
f 218 57 217
f 271 67 246
f 195 196 52
f 270 268 66
f 390 592 103
f 148 568 554
f 495 493 7
f 592 390 593
f 357 95 355
f 574 575 151
f 452 120 451
f 154 591 592
f 587 585 577
f 395 394 396
f 93 349 350
f 610 416 611
f 166 44 190
f 315 23 302
f 315 302 317
f 268 247 66
f 606 154 593
f 396 394 99
f 211 212 56
f 370 369 368
f 235 397 65
f 280 278 22
f 83 315 317
f 575 588 151
f 74 279 280
f 385 495 7
f 63 257 253
f 397 235 398
f 214 58 213
f 220 219 194
f 546 146 545
f 236 225 19
f 599 94 602
f 235 233 8
f 102 394 395
f 611 416 32
f 225 223 19
f 139 528 529
f 231 62 229
f 419 406 421
f 451 450 452
f 49 182 185
f 402 397 107
f 52 199 218
f 416 610 110
f 225 236 244
f 107 397 398
f 68 252 253
f 322 85 321
f 182 181 183
f 118 438 439
f 546 438 118
f 348 77 345
f 543 546 118
f 231 212 232
f 610 611 157
f 33 438 545
f 385 386 103
f 479 480 130
f 169 195 15
f 93 583 349
f 15 195 206
f 190 44 192
f 247 248 66
f 146 552 545
f 248 60 245
f 570 557 564
f 274 271 43
f 63 253 233
f 272 21 249
f 507 528 518
f 67 273 249
f 487 467 126
f 196 195 169
f 624 159 623
f 134 496 497
f 132 503 488
f 104 393 395
f 556 553 89
f 355 356 94
f 258 69 257
f 229 61 227
f 56 231 227
f 460 576 335
f 463 124 461
f 394 373 99
f 29 393 391
f 67 250 245
f 193 198 196
f 462 36 464
f 144 633 630
f 141 526 527
f 517 133 498
f 536 144 630
f 100 372 599
f 144 536 537
f 22 289 287
f 578 579 152
f 579 578 576
f 189 188 187
f 60 223 224
f 92 348 350
f 555 554 447
f 396 377 388
f 194 193 165
f 413 536 630
f 372 352 599
f 377 376 375
f 348 345 350
f 105 386 387
f 240 237 234
f 463 462 464
f 135 500 494
f 45 196 169
f 512 612 387
f 245 60 220
f 429 115 456
f 223 60 248
f 288 289 76
f 525 526 142
f 100 599 601
f 613 29 391
f 526 523 520
f 341 328 343
f 631 641 639
f 264 21 282
f 266 72 265
f 106 402 403
f 73 273 274
f 186 206 205
f 381 379 383
f 52 216 195
f 410 18 399
f 290 272 73
f 72 371 374
f 526 525 527
f 115 430 424
f 498 497 496
f 621 382 29
f 543 118 434
f 214 215 57
f 522 141 530
f 511 510 509
f 352 94 599
f 493 512 7
f 90 340 341
f 169 171 170
f 605 604 606
f 219 60 224
f 104 389 392
f 359 469 3
f 186 49 185
f 222 219 224
f 166 167 44
f 428 427 426
f 523 522 524
f 129 502 481
f 50 185 188
f 164 45 170
f 425 115 424
f 33 428 426
f 427 428 113
f 94 356 602
f 515 138 513
f 114 431 452
f 237 236 238
f 215 217 57
f 95 354 355
f 220 60 219
f 515 514 516
f 183 320 319
f 222 197 53
f 559 569 567
f 300 320 6
f 435 436 117
f 96 360 363
f 640 642 641
f 242 243 62
f 140 537 519
f 508 130 505
f 420 410 399
f 537 539 144
f 317 316 318
f 426 114 450
f 186 15 206
f 311 83 310
f 625 544 307
f 544 10 307
f 168 43 167
f 185 182 188
f 369 354 95
f 44 171 192
f 605 606 156
f 548 549 146
f 100 601 375
f 149 568 569
f 381 380 382
f 455 466 35
f 480 479 454
f 543 548 546
f 493 133 513
f 492 472 37
f 477 125 476
f 491 487 126
f 337 336 338
f 588 153 587
f 576 578 91
f 633 161 632
f 96 359 360
f 39 485 483
f 101 617 378
f 193 45 165
f 163 164 43
f 618 624 611
f 507 136 528
f 561 149 560
f 641 162 639
f 116 561 558
f 494 133 493
f 253 252 233
f 63 237 238
f 392 393 104
f 440 450 117
f 93 581 583
f 386 385 387
f 120 449 451
f 421 422 111
f 486 3 467
f 302 81 317
f 633 632 630
f 462 475 36
f 376 99 374
f 489 490 131
f 447 449 448
f 387 612 105
f 106 420 399
f 173 46 172
f 492 491 472
f 316 306 295
f 22 287 347
f 109 410 420
f 507 39 483
f 559 23 313
f 214 57 211
f 196 45 193
f 10 434 432
f 422 106 403
f 626 160 640
f 487 486 467
f 542 41 532
f 400 106 399
f 444 120 452
f 198 199 52
f 475 127 474
f 621 620 382
f 621 623 159
f 450 114 452
f 92 347 348
f 376 100 375
f 434 118 433
f 503 132 502
f 337 90 336
f 537 536 519
f 395 393 380
f 201 54 200
f 171 44 170
f 355 94 353
f 58 296 213
f 422 420 106
f 595 365 596
f 569 568 570
f 523 140 520
f 114 430 431
f 218 210 57
f 304 566 80
f 639 162 638
f 261 371 72
f 548 147 547
f 498 133 497
f 150 570 564
f 222 224 59
f 142 526 520
f 437 436 435
f 141 522 523
f 137 510 505
f 173 179 176
f 559 149 569
f 121 447 448
f 563 320 300
f 102 395 380
f 257 255 253
f 642 162 641
f 83 311 314
f 216 52 218
f 512 493 513
f 23 304 302
f 91 339 340
f 512 138 612
f 159 620 621
f 218 199 210
f 364 28 575
f 83 318 310
f 168 274 43
f 136 530 528
f 140 523 524
f 495 135 494
f 233 235 234
f 566 563 80
f 25 339 577
f 277 74 276
f 475 462 477
f 133 494 497
f 436 437 116
f 389 386 392
f 548 146 546
f 441 460 5
f 10 309 307
f 65 397 400
f 543 434 544
f 640 641 161
f 272 273 73
f 581 93 346
f 419 421 111
f 319 320 86
f 180 179 178
f 127 475 477
f 231 229 227
f 337 334 340
f 136 508 510
f 308 309 84
f 237 63 234
f 447 554 34
f 252 379 378
f 315 83 314
f 608 622 616
f 338 336 26
f 337 338 89
f 13 275 168
f 209 208 207
f 436 439 117
f 628 312 629
f 360 366 363
f 364 574 96
f 359 361 360
f 466 446 35
f 500 501 134
f 406 109 421
f 135 589 591
f 601 599 602
f 340 90 337
f 481 492 37
f 522 41 524
f 78 316 295
f 131 486 487
f 403 32 414
f 634 626 640
f 151 572 573
f 515 516 138
f 8 252 378
f 265 72 374
f 9 521 519
f 538 549 42
f 368 358 347
f 588 587 586
f 458 453 123
f 589 385 103
f 502 492 481
f 32 416 414
f 430 427 424
f 153 585 587
f 540 144 539
f 370 368 92
f 209 293 58
f 428 33 535
f 326 581 346
f 625 307 82
f 575 28 582
f 6 181 200
f 421 109 420
f 553 121 443
f 160 642 640
f 153 584 585
f 309 432 558
f 334 337 89
f 23 315 313
f 271 163 43
f 296 295 213
f 39 498 496
f 118 439 433
f 531 113 534
f 293 296 58
f 28 362 351
f 489 131 487
f 431 444 452
f 84 558 560
f 98 366 360
f 45 169 170
f 379 101 378
f 462 463 125
f 308 84 314
f 10 432 309
f 299 24 310
f 132 492 502
f 512 387 7
f 639 638 408
f 565 323 86
f 59 244 242
f 106 400 402
f 440 33 426
f 566 565 563
f 617 398 378
f 224 225 59
f 410 109 409
f 239 400 399
f 194 219 53
f 358 22 347
f 610 157 609
f 27 595 603
f 479 484 482
f 142 520 521
f 585 25 577
f 339 578 577
f 408 407 406
f 407 109 406
f 31 408 406
f 407 408 108
f 31 639 408
f 419 31 406
f 608 616 40
f 430 429 431
f 455 35 429
f 35 444 431
f 188 51 187
f 188 182 51
f 51 322 187
f 322 51 319
f 51 182 183
f 319 51 183
f 187 322 321
f 322 319 324
f 381 101 379
f 405 407 108
f 404 405 108
f 286 285 178
f 407 405 409
f 109 407 409
f 191 175 47
f 167 164 170
f 50 184 185
f 44 167 170
f 64 244 236
f 243 244 64
f 50 188 189
f 541 542 145
f 442 445 119
f 339 91 578
f 445 446 119
f 624 623 622
f 611 624 157
f 523 526 141
f 141 527 529
f 527 514 529
f 445 120 444
f 446 445 444
f 35 446 444
f 613 614 158
f 158 614 615
f 623 613 158
f 614 613 391
f 614 612 615
f 371 376 374
f 100 376 371
f 479 482 123
f 373 394 384
f 540 42 634
f 633 540 634
f 538 42 540
f 633 634 161
f 161 634 640
f 42 626 634
f 540 633 144
f 557 556 338
f 553 333 89
f 262 21 264
f 251 21 262
f 5 335 333
f 270 251 262
f 21 251 249
f 600 593 30
f 606 593 600
f 600 30 375
f 593 390 30
f 30 377 375
f 390 388 30
f 30 388 377
f 228 243 241
f 470 478 459
f 470 127 478
f 127 477 478
f 184 186 185
f 478 477 476
f 122 478 476
f 357 74 280
f 518 39 507
f 344 342 85
f 325 344 85
f 342 344 343
f 85 342 321
f 344 90 343
f 90 344 336
f 482 129 481
f 482 481 457
f 482 457 123
f 481 37 457
f 449 447 34
f 435 449 34
f 470 472 471
f 472 470 37
f 470 471 127
f 472 126 471
f 126 468 471
f 470 459 37
f 491 126 472
f 504 129 485
f 221 59 242
f 125 463 465
f 437 34 562
f 561 437 562
f 554 568 562
f 34 554 562
f 437 561 116
f 390 103 389
f 103 386 389
f 392 105 391
f 572 586 580
f 572 580 36
f 586 152 580
f 473 572 36
f 244 243 242
f 225 244 59
f 64 240 241
f 240 239 241
f 237 240 64
f 243 64 241
f 236 237 64
f 411 607 521
f 9 411 521
f 110 607 411
f 607 142 521
f 610 607 110
f 171 15 184
f 171 169 15
f 15 186 184
f 87 584 581
f 153 588 582
f 588 575 582
f 381 102 380
f 573 572 473
f 468 469 128
f 474 468 128
f 469 571 128
f 571 573 128
f 573 473 128
f 473 474 128
f 564 323 565
f 26 323 564
f 323 324 86
f 325 323 26
f 325 324 323
f 563 565 86
f 324 325 85
f 410 230 18
f 230 228 18
f 18 228 241
f 18 241 239
f 401 619 618
f 401 402 107
f 403 402 401
f 619 159 618
f 401 618 32
f 619 401 107
f 403 401 32
f 618 611 32
f 159 624 618
f 478 122 459
f 122 458 459
f 37 459 457
f 459 458 457
f 122 456 458
f 457 458 123
f 191 190 192
f 485 129 484
f 129 482 484
f 483 485 484
f 130 483 484
f 189 187 14
f 191 50 189
f 191 189 175
f 189 14 175
f 14 177 175
f 499 501 500
f 501 499 38
f 38 499 590
f 135 499 500
f 488 501 38
f 499 135 591
f 480 454 4
f 284 12 346
f 4 423 506
f 480 4 506
f 423 531 506
f 480 506 505
f 531 137 506
f 506 137 505
f 365 366 98
f 71 270 262
f 270 71 269
f 71 267 269
f 335 334 333
f 333 334 89
f 334 335 91
f 536 9 519
f 465 463 461
f 537 140 541
f 520 140 519
f 119 446 465
f 465 461 119
f 461 441 119
f 460 441 461
f 176 46 173
f 299 297 24
f 71 263 266
f 263 260 266
f 260 72 266
f 263 70 260
f 205 201 49
f 201 181 49
f 186 205 49
f 181 201 200
f 181 182 49
f 284 77 283
f 586 587 152
f 588 586 151
f 20 267 265
f 266 267 71
f 31 417 631
f 631 417 632
f 31 631 639
f 417 31 419
f 641 631 161
f 417 112 632
f 161 631 632
f 418 417 419
f 417 418 112
f 284 345 77
f 542 550 145
f 542 541 524
f 284 174 12
f 48 174 283
f 373 20 265
f 373 265 374
f 609 608 525
f 608 157 622
f 560 559 313
f 636 637 162
f 541 140 524
f 41 542 524
f 358 357 280
f 70 263 264
f 263 262 264
f 176 177 46
f 174 48 173
f 174 173 172
f 538 551 549
f 538 540 539
f 537 541 539
f 232 221 242
f 17 221 232
f 232 242 62
f 231 232 62
f 203 205 55
f 203 55 202
f 201 205 203
f 202 55 217
f 205 206 55
f 204 203 202
f 73 275 292
f 292 290 73
f 272 290 282
f 290 292 291
f 75 290 291
f 290 75 282
f 70 277 259
f 277 70 281
f 277 281 279
f 260 70 259
f 12 174 172
f 104 396 388
f 367 27 354
f 365 27 367
f 354 27 356
f 365 367 366
f 595 27 365
f 318 299 310
f 155 596 597
f 155 597 598
f 596 594 597
f 595 596 155
f 605 595 155
f 180 47 179
f 180 190 47
f 352 372 11
f 11 372 261
f 312 310 24
f 642 636 162
f 636 297 637
f 367 369 97
f 366 367 97
f 369 367 354
f 369 370 97
f 580 579 464
f 580 152 579
f 579 124 464
f 61 230 409
f 230 410 409
f 230 61 229
f 230 229 228
f 76 285 286
f 353 352 276
f 74 353 276
f 288 76 286
f 288 286 283
f 289 288 287
f 203 54 201
f 287 288 77
f 77 288 283
f 286 48 283
f 531 423 113
f 276 11 259
f 11 261 259
f 277 276 259
f 616 158 615
f 516 616 615
f 138 516 615
f 138 615 612
f 509 533 532
f 503 502 504
f 635 79 294
f 635 294 404
f 635 637 79
f 637 635 638
f 638 635 108
f 635 404 108
f 226 61 405
f 61 226 227
f 405 61 409
f 227 226 207
f 48 178 179
f 48 286 178
f 173 48 179
f 534 143 533
f 534 535 143
f 531 534 533
f 533 143 532
f 137 531 533
f 261 372 371
f 13 180 178
f 285 13 178
f 180 13 166
f 13 168 166
f 346 345 284
f 331 327 46
f 46 327 172
f 172 327 326
f 382 620 101
f 442 121 448
f 443 121 442
f 2 226 404
f 294 2 404
f 404 226 405
f 207 226 2
f 550 551 145
f 552 146 551
f 143 550 532
f 552 550 143
f 330 329 328
f 24 636 629
f 94 352 353
f 352 11 276
f 113 428 534
f 428 535 534
f 509 41 511
f 535 552 143
f 550 552 551
f 550 542 532
f 369 95 368
f 326 327 87
f 87 327 329
f 327 331 329
f 581 326 87
f 293 79 298
f 79 297 298
f 296 298 78
f 79 293 294
f 296 293 298
f 598 490 38
f 358 280 22
f 280 279 278
f 357 358 95
f 74 357 353
f 330 328 25
f 567 23 559
f 590 598 38
f 590 604 598
f 598 604 155
f 604 590 154
f 590 591 154
f 604 154 606
f 297 299 298
f 299 318 78
f 298 299 78
f 355 354 356
f 629 636 642
f 312 24 629
f 629 642 160
f 370 362 97
f 362 363 97
f 363 366 97
f 364 363 362
f 362 370 351
f 96 363 364
f 297 636 24
f 162 637 638
f 637 297 79
f 490 488 38
f 598 597 490
f 441 442 119
f 443 442 441
f 443 441 5
f 442 448 445
f 296 78 295
f 326 12 172
f 575 574 364
f 47 175 176
f 175 177 176
f 47 176 179
