# FEM surface export ¡ª frame 164
# Vertices: 642  Faces: 1280
v -0.52585584 1.72671926 -0.00000105
v 0.52582532 1.72664535 0.00000346
v -0.54644722 0.03523553 -0.00020249
v 0.54407823 0.03350093 -0.00101284
v -0.00016826 0.35147744 0.85721940
v -0.00002673 1.40194094 0.85101151
v 0.00000348 0.35195711 -0.85773349
v 0.00000929 1.40181208 -0.85089451
v 0.85149926 0.87648469 -0.52627099
v 0.85146540 0.87627673 0.52619714
v -0.85150838 0.87637347 -0.52631050
v -0.85155308 0.87633032 0.52615261
v -0.80934268 1.37611175 0.30913806
v -0.50027001 1.18521261 0.80940902
v -0.30908975 1.68505597 0.50012118
v 0.30909383 1.68506908 0.50011390
v 0.00000384 1.87598670 -0.00000689
v 0.30908304 1.68501723 -0.50009364
v -0.30908221 1.68509352 -0.50012219
v -0.50023794 1.18513823 -0.80942798
v -0.80934656 1.37614226 -0.30913395
v -1.00075364 0.87614930 -0.00000287
v 0.50035119 1.18527126 0.80957097
v 0.80927598 1.37606156 0.30909625
v -0.50160104 0.56798291 0.81158829
v 0.00005758 0.87631565 1.00103498
v -0.81496465 0.37796485 -0.31106389
v -0.81425411 0.37749708 0.31089637
v -0.00002342 0.87647182 -1.00104892
v -0.50141180 0.56806457 -0.81147236
v 0.80926543 1.37603426 -0.30910769
v 0.50019437 1.18512702 -0.80934542
v 0.81596297 0.37742567 0.31127417
v 0.50158238 0.56809294 0.81152612
v 0.32057622 0.07225436 0.51373881
v -0.31710783 0.07216003 0.51153404
v -0.00185436 0.00000000 -0.00347406
v -0.31824952 0.07530683 -0.51469058
v 0.31737351 0.07454045 -0.51529253
v 0.50162470 0.56825697 -0.81153029
v 0.81557095 0.37840486 -0.31138173
v 1.00108790 0.87642014 0.00005658
v -0.69396907 1.57810712 0.16067252
v -0.58795553 1.56429279 0.42547497
v -0.43398604 1.73871291 0.25994495
v -0.70247376 1.03684199 0.69413579
v -0.68848509 1.30141962 0.58802634
v -0.86315417 1.13603187 0.43412149
v -0.16066025 1.56984115 0.70223236
v -0.42548898 1.46387959 0.68840462
v -0.25999200 1.31008458 0.86306655
v -0.16247647 1.82706106 0.26291957
v -0.27330023 1.83793259 0.00000018
v 0.16066936 1.56981099 0.70221573
v 0.00000885 1.72665441 0.52584392
v 0.27331376 1.83791697 -0.00000090
v 0.16250032 1.82710004 0.26293349
v 0.43398333 1.73867893 0.25994805
v -0.16247806 1.82705450 -0.26291490
v -0.43398085 1.73873496 -0.25994784
v 0.43397763 1.73866248 -0.25994849
v 0.16248977 1.82705081 -0.26291910
v -0.16063984 1.56979859 -0.70221102
v 0.00001570 1.72666800 -0.52585334
v 0.16068074 1.56979585 -0.70222908
v -0.58795029 1.56428468 -0.42543334
v -0.69395500 1.57810926 -0.16067673
v -0.25997469 1.30996358 -0.86299312
v -0.42543101 1.46387243 -0.68838996
v -0.86317587 1.13608694 -0.43413877
v -0.68844628 1.30146098 -0.58805966
v -0.70246249 1.03683400 -0.69424301
v -0.85098034 1.40184426 -0.00000122
v -0.96282959 0.87622410 -0.27356505
v -0.95164907 1.13903332 -0.16257022
v -0.95164770 1.13900268 0.16256626
v -0.96281838 0.87620592 0.27345973
v 0.58794665 1.56420898 0.42543477
v 0.69393438 1.57805967 0.16064276
v 0.26003730 1.30987835 0.86305565
v 0.42544967 1.46385956 0.68839031
v 0.86314148 1.13598764 0.43413275
v 0.68854356 1.30146241 0.58801007
v 0.70248652 1.03674150 0.69413930
v -0.26301676 1.03872299 0.95177138
v -0.00000330 1.14940548 0.96246982
v -0.70360541 0.71613270 0.69496882
v -0.52629632 0.87645191 0.85148954
v 0.00011569 0.60361552 0.96439600
v -0.26317507 0.71420544 0.95285374
v -0.26150200 0.44368699 0.86845201
v -0.95286947 0.61395252 0.16284141
v -0.86443770 0.61683047 0.43478960
v -0.86465758 0.61698318 -0.43490937
v -0.95319688 0.61392629 -0.16287233
v -0.70722646 0.17579982 0.16400293
v -0.85732341 0.35276917 -0.00001533
v -0.70873851 0.17656234 -0.16350329
v -0.52629691 0.87628531 -0.85154980
v -0.70322198 0.71605384 -0.69503260
v 0.00000375 1.14947701 -0.96243399
v -0.26302719 1.03870678 -0.95171130
v -0.26142147 0.44336972 -0.86721098
v -0.26321521 0.71406043 -0.95249653
v 0.00004304 0.60391480 -0.96443129
v 0.42543650 1.46379161 -0.68836910
v 0.26002604 1.30993891 -0.86294615
v 0.69392860 1.57803738 -0.16066100
v 0.58793253 1.56420302 -0.42540750
v 0.70247465 1.03683591 -0.69423002
v 0.68847185 1.30141616 -0.58803111
v 0.86311424 1.13602138 -0.43409246
v 0.70820290 0.17535087 0.16356838
v 0.59944081 0.18960109 0.43315876
v 0.45180631 0.02862619 0.27205151
v 0.70326078 0.71602172 0.69493014
v 0.69203681 0.45221895 0.59116411
v 0.86455035 0.61693835 0.43465734
v 0.16340727 0.18461746 0.71403545
v 0.42985979 0.29011521 0.69567209
v 0.26099801 0.44390345 0.86742759
v 0.17024884 0.00000000 0.27752605
v 0.28771681 0.00000000 -0.00144350
v -0.16458879 0.18446334 0.71379870
v -0.00016535 0.04177491 0.54551369
v -0.28863853 0.00000000 0.00078899
v -0.17036699 0.00000000 0.27560270
v -0.44810250 0.02680783 0.26827332
v 0.16923098 0.00000000 -0.27402541
v 0.44996554 0.02670609 -0.27047679
v -0.45162678 0.02855850 -0.27147666
v -0.17120853 0.00000000 -0.27615693
v 0.16333486 0.18442985 -0.71577567
v -0.00000838 0.03598327 -0.54094762
v -0.16247232 0.18287295 -0.71537119
v 0.59874249 0.18925789 -0.43288925
v 0.70796627 0.17495814 -0.16415727
v 0.26169366 0.44338188 -0.86706334
v 0.42971516 0.28978565 -0.69529402
v 0.86475646 0.61734414 -0.43494400
v 0.69168037 0.45254380 -0.59089345
v 0.70318085 0.71613252 -0.69499904
v 0.85750514 0.35158518 -0.00030341
v 0.96298569 0.87642521 -0.27358386
v 0.95317566 0.61406189 -0.16263109
v 0.95272738 0.61382502 0.16261356
v 0.96263021 0.87618673 0.27351025
v 0.26334825 0.71414328 0.95256114
v 0.52630454 0.87633306 0.85134244
v 0.26306933 1.03860056 0.95181823
v -0.59782547 0.18918459 0.43287912
v -0.43063954 0.28970286 0.69644684
v -0.69187808 0.45175898 0.59093064
v -0.43079966 0.28984255 -0.69794255
v -0.59944904 0.19071360 -0.43264753
v -0.69200671 0.45202363 -0.59098357
v 0.52619958 0.87633532 -0.85144353
v 0.26332846 0.71435624 -0.95271754
v 0.26308379 1.03872287 -0.95172352
v 0.95156217 1.13895833 0.16255651
v 0.95153624 1.13900304 -0.16254032
v 0.85091430 1.40176368 -0.00000813
v -0.61578619 1.65991211 0.08111864
v -0.57137817 1.66871965 0.21307920
v -0.48453492 1.74097228 0.13123131
v -0.70738775 1.47762358 0.37187976
v -0.64758611 1.57841349 0.29611200
v -0.75887758 1.48287916 0.23715049
v -0.37512293 1.71995234 0.38370693
v -0.51623172 1.65951228 0.34625024
v -0.45409533 1.63399661 0.46855986
v -0.78447896 0.95734882 0.61604440
v -0.79311496 1.08922315 0.57155859
v -0.86551070 1.00737894 0.48472953
v -0.60178238 1.24787009 0.70739031
v -0.70264983 1.17214310 0.64768726
v -0.60712028 1.11325383 0.75892174
v -0.84431702 1.25971782 0.37522182
v -0.78382349 1.22229600 0.51635408
v -0.75823843 1.34450388 0.45414326
v -0.08110654 1.49176407 0.78408009
v -0.21309069 1.44736516 0.79293692
v -0.13124239 1.36059070 0.86531717
v -0.37184045 1.58316541 0.60166097
v -0.29609323 1.52349377 0.70250988
v -0.23713452 1.63468385 0.60696965
v -0.38378236 1.25125813 0.84431434
v -0.34629568 1.39229715 0.78377146
v -0.46864256 1.33015156 0.75827330
v -0.64683515 1.44036424 0.51358896
v -0.56448233 1.38950062 0.64681178
v -0.51351845 1.52266371 0.56441265
v -0.35829574 1.80031657 0.13168901
v -0.40342060 1.79104578 0.00000769
v -0.23870781 1.76703274 0.38628116
v -0.30131727 1.79225683 0.26413810
v -0.13797046 1.86647296 -0.00000282
v -0.22014439 1.84238493 0.13281325
v -0.08224932 1.86371303 0.13308582
v 0.08111427 1.49172783 0.78403342
v 0.00001417 1.57896852 0.71144152
v 0.15646335 1.71617162 0.51936281
v 0.08116890 1.65622187 0.62035656
v 0.23714186 1.63466787 0.60696399
v -0.08113328 1.65622318 0.62036633
v -0.15644927 1.71621740 0.51937956
v 0.40343702 1.79101110 0.00000282
v 0.35830358 1.80028629 0.13168420
v 0.48452374 1.74092138 0.13122138
v 0.08226667 1.86368334 0.13309285
v 0.22016798 1.84241664 0.13282140
v 0.13798457 1.86646390 -0.00000007
v 0.37512913 1.71991539 0.38368660
v 0.30133787 1.79227257 0.26414490
v 0.23872216 1.76700950 0.38626844
v -0.08232301 1.78901017 0.39970821
v 0.08233114 1.78897727 0.39967009
v 0.00000791 1.83988321 0.26645523
v -0.35828218 1.80031168 -0.13167916
v -0.48453259 1.74096811 -0.13122647
v -0.08225139 1.86368597 -0.13309973
v -0.22015131 1.84240818 -0.13282323
v -0.37511292 1.71996284 -0.38369930
v -0.30130601 1.79225898 -0.26412982
v -0.23871818 1.76703334 -0.38626075
v 0.48453894 1.74094117 -0.13122545
v 0.35830763 1.80029953 -0.13167392
v 0.23872766 1.76700044 -0.38625887
v 0.30131829 1.79223394 -0.26413617
v 0.37511295 1.71990609 -0.38369268
v 0.22015528 1.84239650 -0.13281715
v 0.08225740 1.86369181 -0.13310203
v -0.08109777 1.49169230 -0.78404778
v 0.00001126 1.57892191 -0.71147621
v 0.08112763 1.49163663 -0.78403258
v -0.15645094 1.71619475 -0.51937193
v -0.08113259 1.65623176 -0.62039018
v -0.23712431 1.63469422 -0.60696328
v 0.23715413 1.63464355 -0.60695219
v 0.08118673 1.65624559 -0.62039286
v 0.15648207 1.71616805 -0.51935172
v 0.00000296 1.83986008 -0.26645401
v 0.08234971 1.78898537 -0.39967260
v -0.08233329 1.78899992 -0.39969069
v -0.57136744 1.66871202 -0.21307737
v -0.61579359 1.65991282 -0.08109866
v -0.45409003 1.63399041 -0.46854272
v -0.51624054 1.65953648 -0.34624383
v -0.75891483 1.48295879 -0.23717839
v -0.64759034 1.57840133 -0.29609197
v -0.70736051 1.47761643 -0.37186563
v -0.13123749 1.36056423 -0.86523366
v -0.21307577 1.44731832 -0.79290599
v -0.46859479 1.33009446 -0.75820839
v -0.34623957 1.39221585 -0.78371215
v -0.38378239 1.25119376 -0.84425706
v -0.29606846 1.52348948 -0.70252204
v -0.37182313 1.58319116 -0.60165942
v -0.86561662 1.00745094 -0.48483592
v -0.79318935 1.08929491 -0.57166839
v -0.78443247 0.95735854 -0.61619037
v -0.75822055 1.34456670 -0.45419416
v -0.78385282 1.22236025 -0.51639974
v -0.84432161 1.25978172 -0.37520450
v -0.60716486 1.11326480 -0.75914854
v -0.70269805 1.17217994 -0.64779466
v -0.60176724 1.24782884 -0.70744872
v -0.51350439 1.52265561 -0.56443739
v -0.56447697 1.38947690 -0.64685053
v -0.64677727 1.44034851 -0.51353484
v -0.70310968 1.58738267 0.00001032
v -0.84053481 1.39540732 -0.15650566
v -0.78045875 1.49634016 -0.08115952
v -0.78042608 1.49630392 0.08115888
v -0.84047353 1.39535367 0.15648057
v -0.91592008 0.87630701 -0.40375617
v -0.92503119 1.00788665 -0.35847130
v -0.98844087 1.00924027 -0.08225758
v -0.96703827 1.00893068 -0.22024924
v -0.99138367 0.87620980 -0.13806221
v -0.91672426 1.14024460 -0.30140281
v -0.89141858 1.26233935 -0.23877501
v -0.92503238 1.00786090 0.35850134
v -0.91601485 0.87628871 0.40375000
v -0.89146686 1.26233959 0.23879810
v -0.91678613 1.14024460 0.30142924
v -0.99129516 0.87617081 0.13805588
v -0.96711963 1.00889850 0.22028781
v -0.98830652 1.00917923 0.08233567
v -0.91347015 1.27575421 -0.08235848
v -0.96445447 1.14254725 0.00003401
v -0.91344172 1.27575064 0.08236221
v 0.57136047 1.66867721 0.21306384
v 0.61574167 1.65983915 0.08108895
v 0.45409486 1.63395500 0.46854743
v 0.51623160 1.65948057 0.34623015
v 0.75884473 1.48284507 0.23713516
v 0.64756978 1.57834530 0.29608011
v 0.70731127 1.47754312 0.37183684
v 0.13125832 1.36053276 0.86534792
v 0.21309473 1.44727254 0.79288733
v 0.46865663 1.33019578 0.75831467
v 0.34626096 1.39218056 0.78375363
v 0.38380644 1.25110996 0.84431052
v 0.29606020 1.52342165 0.70249516
v 0.37182349 1.58311737 0.60162860
v 0.86551505 1.00730884 0.48469251
v 0.79309762 1.08910453 0.57148707
v 0.78448057 0.95731860 0.61608523
v 0.75822711 1.34451830 0.45411295
v 0.78384650 1.22225511 0.51633424
v 0.84427476 1.25972044 0.37518004
v 0.60726881 1.11330509 0.75912923
v 0.70268589 1.17211473 0.64764464
v 0.60190552 1.24797428 0.70748675
v 0.51352918 1.52261329 0.56441706
v 0.56448227 1.38950360 0.64678723
v 0.64678383 1.44031930 0.51350617
v -0.13169998 1.23439872 0.92480844
v 0.00002762 1.27947640 0.91548264
v -0.38640597 1.11491537 0.89152020
v -0.26422837 1.17750204 0.91676289
v 0.00000296 1.01416254 0.99118066
v -0.13284776 1.09628642 0.96700239
v -0.13315907 0.95844215 0.98853922
v -0.78499323 0.79536438 0.61630476
v -0.71211898 0.87643808 0.70354939
v -0.52030027 0.72019917 0.84181255
v -0.62114549 0.79545301 0.78112990
v -0.60851091 0.63980258 0.76058704
v -0.62068343 0.95742720 0.78069395
v -0.51960480 1.03268325 0.84066987
v 0.00015762 0.47391692 0.91896749
v -0.13200395 0.51905936 0.92756140
v -0.13200592 0.39278194 0.87089038
v -0.13312770 0.79417914 0.98902202
v -0.13288820 0.65662998 0.96866614
v 0.00005815 0.73859769 0.99208969
v -0.38561720 0.50238281 0.84773695
v -0.26487809 0.57591480 0.91934681
v -0.38707665 0.63823766 0.89327371
v -0.39997867 0.95862311 0.91379040
v -0.40024793 0.79422849 0.91447943
v -0.26666784 0.87640363 0.96509516
v -0.92552280 0.74483913 0.35863298
v -0.86616981 0.74519271 0.48500475
v -0.98909104 0.74341089 0.08240733
v -0.96769607 0.74362844 0.22044836
v -0.84731942 0.49356192 0.37646788
v -0.91803771 0.61260986 0.30195627
v -0.89411050 0.49111161 0.23946424
v -0.86616713 0.74537754 -0.48520312
v -0.92572176 0.74486047 -0.35883379
v -0.89468777 0.49120891 -0.23966180
v -0.91837752 0.61280984 -0.30187681
v -0.84728158 0.49365920 -0.37640953
v -0.96792418 0.74367344 -0.22046557
v -0.98916399 0.74334508 -0.08237627
v -0.63259095 0.09538567 0.08234072
v -0.71677077 0.16778195 0.00035768
v -0.63324827 0.09749565 -0.08325713
v -0.84630537 0.35898083 0.15722476
v -0.79013324 0.25803250 0.08238818
v -0.76845801 0.27111825 0.23936561
v -0.76825708 0.27098858 -0.23999827
v -0.79127544 0.25777665 -0.08216482
v -0.84662414 0.35866269 -0.15776969
v -0.96603900 0.61043853 -0.00000526
v -0.91667289 0.47793549 -0.08288089
v -0.91679370 0.47800156 0.08241889
v -0.71194142 0.87640804 -0.70359313
v -0.78483707 0.79538286 -0.61648560
v -0.51964903 1.03251064 -0.84067470
v -0.62070537 0.95733273 -0.78072596
v -0.60822910 0.63974750 -0.76048422
v -0.62098819 0.79526979 -0.78122640
v -0.52005810 0.72003692 -0.84154874
v 0.00004121 1.27950537 -0.91539282
v -0.13167432 1.23441672 -0.92472833
v -0.13320789 0.95853835 -0.98845923
v -0.13287680 1.09635699 -0.96699888
v -0.00001942 1.01428020 -0.99119323
v -0.26421362 1.17744279 -0.91677302
v -0.38646537 1.11488771 -0.89153099
v -0.13222070 0.39287609 -0.87124068
v -0.13235322 0.51888818 -0.92780328
v 0.00006293 0.47425008 -0.91943860
v -0.38686386 0.63802147 -0.89292634
v -0.26479447 0.57580072 -0.91891652
v -0.38523218 0.50213885 -0.84760427
v 0.00001069 0.73869920 -0.99204648
v -0.13298263 0.65663868 -0.96794754
v -0.13324910 0.79422522 -0.98890907
v -0.39994881 0.95863312 -0.91381061
v -0.26665244 0.87633651 -0.96474475
v -0.40014490 0.79415226 -0.91427135
v 0.21310502 1.44727540 -0.79285699
v 0.13127007 1.36050534 -0.86519802
v 0.37185323 1.58310902 -0.60164440
v 0.29609141 1.52342081 -0.70248741
v 0.38376409 1.25109076 -0.84419405
v 0.34626693 1.39212000 -0.78365511
v 0.46858472 1.33003473 -0.75816035
v 0.61576271 1.65985394 -0.08110863
v 0.57137239 1.66867185 -0.21306306
v 0.70731598 1.47753644 -0.37183177
v 0.64757115 1.57832623 -0.29606980
v 0.75886130 1.48284316 -0.23713666
v 0.51623601 1.65945256 -0.34621051
v 0.45409137 1.63395107 -0.46854901
v 0.78446102 0.95746869 -0.61614245
v 0.79317755 1.08931386 -0.57165241
v 0.86558640 1.00753069 -0.48481768
v 0.60173172 1.24783528 -0.70735782
v 0.70263201 1.17209208 -0.64772803
v 0.60713881 1.11328459 -0.75907820
v 0.84420693 1.25970280 -0.37517953
v 0.78382719 1.22228932 -0.51635891
v 0.75815952 1.34451449 -0.45413563
v 0.51350302 1.52256656 -0.56439751
v 0.64674711 1.44028914 -0.51351798
v 0.56443179 1.38941741 -0.64676690
v 0.63204962 0.09693053 0.08359388
v 0.58903307 0.08800059 0.22051825
v 0.50598782 0.02672463 0.13680062
v 0.71581572 0.27679220 0.37626031
v 0.66077143 0.17649221 0.30165753
v 0.76841152 0.27085134 0.23956844
v 0.38986531 0.04219605 0.39533150
v 0.53177524 0.09743915 0.35671234
v 0.46727586 0.12182778 0.48131776
v 0.78479034 0.79534173 0.61637914
v 0.79438204 0.66373706 0.57242000
v 0.86621964 0.74529696 0.48510739
v 0.60399061 0.50570589 0.70994228
v 0.70445377 0.58114374 0.64920819
v 0.60836935 0.63987619 0.76041895
v 0.84688675 0.49375153 0.37649906
v 0.78592098 0.53115505 0.51751500
v 0.76242250 0.40879849 0.45693365
v 0.08174355 0.26224220 0.79263008
v 0.21516071 0.30714321 0.80119777
v 0.13193114 0.39323890 0.87045187
v 0.37841797 0.17033824 0.61353779
v 0.30018643 0.23140211 0.71343553
v 0.24390498 0.12093176 0.62095529
v 0.38482705 0.50234026 0.84746963
v 0.34903392 0.36191514 0.78942841
v 0.47118044 0.42382830 0.76242626
v 0.65300894 0.31319529 0.51890987
v 0.56872720 0.36459213 0.65190071
v 0.52057338 0.23208873 0.57381153
v 0.37384155 0.00000000 0.13661838
v 0.41604289 0.00000000 0.00216285
v 0.24819626 0.00898555 0.40067264
v 0.31409636 0.00000000 0.27289355
v 0.14408967 0.00000000 -0.00161307
v 0.22928724 0.00000000 0.13936701
v 0.08790353 0.00000000 0.13634749
v -0.08283702 0.26191100 0.79270452
v 0.00060398 0.17557479 0.72470570
v -0.16158627 0.04524768 0.53656238
v -0.08384121 0.10143426 0.63710099
v -0.24237984 0.12074586 0.61873138
v 0.08387049 0.09885523 0.63892913
v 0.16296470 0.04483068 0.53723317
v -0.42179051 0.00000000 0.00097046
v -0.37709987 0.00001401 0.14063348
v -0.50468266 0.02586575 0.13559784
v -0.08773331 0.00000000 0.13585262
v -0.23351383 0.00000000 0.14418484
v -0.14663687 0.00000000 -0.00068291
v -0.38583317 0.04037558 0.39486372
v -0.31532842 0.00000000 0.27882451
v -0.24829191 0.00481806 0.40141192
v 0.08298662 0.00020432 0.41779035
v -0.08679448 0.00014760 0.41764513
v 0.00143868 0.00000000 0.27468073
v 0.37343264 0.00000000 -0.13698134
v 0.50061208 0.02689066 -0.13533983
v 0.08629984 0.00000000 -0.14208061
v 0.23256056 0.00000000 -0.13816972
v 0.38860276 0.04183564 -0.39877260
v 0.31377539 0.00000000 -0.27644613
v 0.24844618 0.00492672 -0.40134576
v -0.50350749 0.02761033 -0.13677204
v -0.37332404 0.00000000 -0.13721612
v -0.24769427 0.01165138 -0.39913437
v -0.31773558 0.00000000 -0.27258089
v -0.38770279 0.04240909 -0.39776534
v -0.23359725 0.00000000 -0.14119594
v -0.08765288 0.00000000 -0.14567605
v 0.08208140 0.26275924 -0.79385006
v -0.00007829 0.17411520 -0.72486544
v -0.08177883 0.26198778 -0.79307091
v 0.16228805 0.04339226 -0.53719950
v 0.08265092 0.10076327 -0.63399136
v 0.24179716 0.12092426 -0.62352222
v -0.24260101 0.12287515 -0.62313449
v -0.08269653 0.09692195 -0.63750750
v -0.16243528 0.04759713 -0.53636974
v 0.00395219 0.00000000 -0.28258812
v -0.08307060 0.00000000 -0.41458300
v 0.08979727 0.00000000 -0.41033664
v 0.58817440 0.08692218 -0.21821778
v 0.63390273 0.09483487 -0.08264461
v 0.46622226 0.12036613 -0.47983059
v 0.52913326 0.09488535 -0.35419026
v 0.76892149 0.27102062 -0.24031003
v 0.65960830 0.17534798 -0.30152360
v 0.71569127 0.27692005 -0.37593213
v 0.13258977 0.39313957 -0.87191665
v 0.21555781 0.30687451 -0.80054051
v 0.47121140 0.42360294 -0.76198047
v 0.34906802 0.36152020 -0.78922111
v 0.38531145 0.50215906 -0.84721702
v 0.30013064 0.23062067 -0.71231031
v 0.37832466 0.17051452 -0.61300862
v 0.86628729 0.74561059 -0.48525381
v 0.79419464 0.66409642 -0.57250386
v 0.78488034 0.79562950 -0.61656213
v 0.76303983 0.40956196 -0.45720655
v 0.78609055 0.53140289 -0.51804459
v 0.84788626 0.49428338 -0.37672448
v 0.60819179 0.63982016 -0.76037061
v 0.70420378 0.58115751 -0.64923477
v 0.60367000 0.50574446 -0.70968163
v 0.51987219 0.23039414 -0.57254165
v 0.56831932 0.36425701 -0.65127718
v 0.65233588 0.31404683 -0.51836759
v 0.71707201 0.16626279 -0.00045119
v 0.84696275 0.35843274 -0.15769713
v 0.79026508 0.25705069 -0.08254079
v 0.79098773 0.25697818 0.08144958
v 0.84682584 0.35778469 0.15718399
v 0.91597724 0.87648529 -0.40378362
v 0.92569232 0.74495941 -0.35874942
v 0.98914832 0.74356771 -0.08229940
v 0.96791816 0.74388802 -0.22041050
v 0.99153495 0.87652135 -0.13808461
v 0.91848403 0.61282057 -0.30188307
v 0.89508146 0.49135289 -0.23954223
v 0.92544848 0.74473470 0.35863134
v 0.91578525 0.87619805 0.40365335
v 0.89438540 0.49111462 0.23933187
v 0.91798353 0.61252403 0.30167514
v 0.99131602 0.87631226 0.13823088
v 0.96749359 0.74358004 0.22034110
v 0.98917896 0.74353504 0.08238000
v 0.91677314 0.47776565 -0.08252041
v 0.96563941 0.61047739 0.00006594
v 0.91655535 0.47749934 0.08257006
v 0.13203667 0.51908529 0.92786777
v 0.38707313 0.63821363 0.89281356
v 0.26473662 0.57592982 0.91899264
v 0.13306159 0.65669799 0.96839058
v 0.13329528 0.79414469 0.98895812
v 0.71201658 0.87636548 0.70348686
v 0.51974517 1.03266943 0.84074420
v 0.62076885 0.95729697 0.78068882
v 0.62113160 0.79537326 0.78111094
v 0.52024829 0.72023803 0.84156829
v 0.13170390 1.23420417 0.92471576
v 0.13321592 0.95838821 0.98853981
v 0.13285016 1.09618819 0.96704501
v 0.26423767 1.17734444 0.91685283
v 0.38645059 1.11478782 0.89155084
v 0.40002635 0.79401088 0.91379803
v 0.40001768 0.95857239 0.91380560
v 0.26668334 0.87621504 0.96476567
v -0.58566636 0.08867872 0.21860519
v -0.46374843 0.11964698 0.47874406
v -0.52895099 0.09636721 0.35541055
v -0.66012883 0.17584987 0.30190390
v -0.71493244 0.27605364 0.37621430
v -0.21615863 0.30692172 0.80134308
v -0.47211152 0.42353210 0.76318645
v -0.34960702 0.36186284 0.79035282
v -0.30080706 0.23075441 0.71246779
v -0.37905431 0.17066276 0.61317384
v -0.79428583 0.66364211 0.57226163
v -0.76264328 0.40858987 0.45686483
v -0.78615701 0.53058171 0.51776677
v -0.70469111 0.58095026 0.64911103
v -0.60433507 0.50539452 0.71056575
v -0.52143520 0.23061875 0.57224643
v -0.56940478 0.36370221 0.65189606
v -0.65233636 0.31295279 0.51819599
v -0.21502058 0.30621818 -0.80063874
v -0.37962088 0.17202154 -0.61301649
v -0.30101967 0.22943707 -0.71459484
v -0.34871405 0.36146009 -0.79021323
v -0.47132024 0.42361957 -0.76278406
v -0.58894753 0.08951248 -0.21913636
v -0.71638745 0.27655077 -0.37613484
v -0.66088408 0.17624454 -0.30190051
v -0.53000045 0.09687723 -0.35553437
v -0.46725109 0.12170976 -0.48079699
v -0.79428917 0.66370672 -0.57245088
v -0.60380358 0.50569999 -0.70991880
v -0.70453823 0.58089375 -0.64948380
v -0.78645533 0.53109384 -0.51807129
v -0.76253450 0.40936014 -0.45664030
v -0.52158254 0.23184228 -0.57273126
v -0.65345830 0.31332374 -0.51893425
v -0.56878263 0.36426511 -0.65228474
v 0.71199226 0.87645811 -0.70368868
v 0.52013761 0.72024709 -0.84161854
v 0.62100375 0.79548383 -0.78125983
v 0.62070251 0.95746511 -0.78080475
v 0.51955634 1.03261292 -0.84066910
v 0.13237853 0.51938146 -0.92822903
v 0.13322683 0.79427654 -0.98886555
v 0.13315561 0.65691924 -0.96872962
v 0.26498550 0.57591176 -0.91918331
v 0.38709980 0.63818908 -0.89302868
v 0.13174181 1.23433924 -0.92467761
v 0.38640097 1.11478269 -0.89139068
v 0.26423252 1.17735755 -0.91660643
v 0.13288514 1.09633923 -0.96696573
v 0.13313210 0.95858413 -0.98857546
v 0.40012816 0.79418695 -0.91413057
v 0.26664662 0.87643641 -0.96478343
v 0.39992625 0.95849299 -0.91360742
v 0.92486113 1.00776756 0.35843500
v 0.98836881 1.00928771 0.08242616
v 0.96691060 1.00889504 0.22028013
v 0.91678905 1.14021790 0.30143538
v 0.89142376 1.26230454 0.23874187
v 0.92498916 1.00791836 -0.35848749
v 0.89132911 1.26226270 -0.23876594
v 0.91671592 1.14025784 -0.30141285
v 0.96711135 1.00907266 -0.22032854
v 0.98844737 1.00938535 -0.08222676
v 0.70308638 1.58731508 -0.00001966
v 0.84044737 1.39532924 0.15645763
v 0.78041363 1.49627316 0.08114827
v 0.78040278 1.49624884 -0.08115726
v 0.84043908 1.39527965 -0.15647434
v 0.96439159 1.14256096 0.00002566
v 0.91332722 1.27565622 -0.08236261
v 0.91336358 1.27567971 0.08234662
f 330 87 329
f 336 325 26
f 207 208 56
f 464 36 580
f 502 129 504
f 157 624 622
f 308 311 82
f 247 223 248
f 507 483 508
f 331 88 329
f 494 500 497
f 156 601 602
f 591 589 592
f 365 98 596
f 75 281 282
f 152 587 577
f 149 559 560
f 555 121 553
f 530 141 529
f 515 517 139
f 361 594 98
f 250 67 249
f 157 608 609
f 294 293 209
f 317 81 316
f 557 338 26
f 303 305 81
f 530 529 528
f 101 381 382
f 415 418 111
f 192 184 50
f 412 110 411
f 20 384 256
f 131 594 486
f 281 264 282
f 347 287 348
f 28 349 582
f 165 163 1
f 248 250 66
f 617 107 398
f 273 271 274
f 456 115 453
f 558 561 560
f 335 576 91
f 331 177 332
f 116 433 436
f 351 370 92
f 136 511 530
f 239 240 65
f 247 258 19
f 304 23 567
f 148 557 570
f 214 208 58
f 440 426 450
f 268 270 269
f 258 247 268
f 204 202 16
f 466 125 465
f 517 513 133
f 168 275 274
f 275 73 274
f 198 193 53
f 309 308 307
f 510 511 136
f 415 416 110
f 131 490 597
f 473 475 474
f 414 415 111
f 493 495 494
f 496 504 485
f 433 116 432
f 600 375 601
f 240 234 65
f 418 415 412
f 486 361 3
f 567 566 304
f 380 393 29
f 17 199 197
f 491 492 132
f 451 449 435
f 218 217 216
f 623 621 613
f 396 104 395
f 433 439 436
f 628 160 627
f 215 202 217
f 209 207 2
f 427 113 424
f 434 10 544
f 434 433 432
f 199 17 210
f 150 564 565
f 489 491 132
f 275 13 285
f 497 500 134
f 125 466 476
f 578 152 577
f 208 214 211
f 328 88 343
f 356 27 603
f 150 566 567
f 372 100 371
f 190 191 47
f 235 8 398
f 260 261 72
f 422 403 414
f 422 414 111
f 453 454 123
f 349 583 582
f 521 520 519
f 425 453 115
f 616 622 158
f 483 130 508
f 151 586 572
f 212 17 232
f 400 397 402
f 377 396 99
f 41 522 511
f 510 508 505
f 549 547 42
f 475 473 36
f 510 137 509
f 222 221 197
f 430 115 429
f 220 194 1
f 305 54 204
f 621 29 613
f 192 171 184
f 460 335 5
f 88 331 332
f 74 277 279
f 300 301 80
f 390 389 388
f 165 45 164
f 146 549 551
f 291 278 75
f 448 120 445
f 147 543 544
f 607 610 609
f 603 602 356
f 139 529 514
f 333 553 443
f 92 368 347
f 261 260 259
f 300 6 200
f 46 177 331
f 284 283 174
f 301 300 200
f 471 468 474
f 54 305 301
f 302 304 303
f 569 150 567
f 150 569 570
f 294 209 2
f 628 629 160
f 548 543 147
f 147 625 627
f 63 233 234
f 426 427 114
f 41 509 532
f 198 52 196
f 614 105 612
f 147 627 547
f 81 305 306
f 549 548 547
f 54 301 200
f 342 88 332
f 264 281 70
f 193 194 53
f 455 429 456
f 187 321 14
f 479 130 484
f 147 544 625
f 458 456 453
f 304 80 303
f 314 84 313
f 488 503 501
f 321 332 14
f 423 425 424
f 305 204 306
f 341 339 25
f 514 40 516
f 625 628 627
f 340 339 341
f 105 614 391
f 243 228 62
f 318 316 78
f 75 278 279
f 357 355 353
f 238 257 63
f 466 455 476
f 425 423 4
f 448 449 120
f 408 638 108
f 292 275 285
f 22 278 289
f 515 513 517
f 501 503 134
f 622 623 158
f 134 503 504
f 195 216 206
f 163 271 246
f 619 617 620
f 62 228 229
f 163 165 164
f 453 425 454
f 489 132 488
f 82 628 625
f 58 208 209
f 525 608 40
f 626 547 627
f 518 517 498
f 489 487 491
f 557 26 564
f 325 336 344
f 541 145 539
f 40 616 516
f 338 556 89
f 250 248 245
f 139 514 515
f 98 594 596
f 246 220 1
f 112 413 630
f 9 536 413
f 156 600 601
f 332 177 14
f 321 342 332
f 156 606 600
f 584 330 585
f 302 303 81
f 584 87 330
f 330 25 585
f 400 239 65
f 439 440 117
f 95 358 368
f 597 594 131
f 594 361 486
f 246 67 245
f 561 562 149
f 28 364 362
f 55 216 217
f 427 430 114
f 267 20 254
f 556 555 553
f 84 309 558
f 311 310 312
f 609 525 142
f 256 68 255
f 124 460 461
f 82 311 312
f 307 308 82
f 589 135 495
f 527 40 514
f 112 418 412
f 20 256 254
f 258 238 19
f 267 254 269
f 273 272 249
f 392 391 393
f 137 533 509
f 122 455 456
f 9 413 411
f 130 480 505
f 333 443 5
f 527 525 40
f 589 495 385
f 39 496 485
f 223 225 224
f 414 416 415
f 219 222 53
f 145 538 539
f 413 412 411
f 469 468 467
f 183 181 6
f 191 192 50
f 429 35 431
f 292 285 76
f 413 112 412
f 415 110 412
f 43 164 167
f 467 468 126
f 617 101 620
f 450 451 117
f 438 546 545
f 619 620 159
f 17 212 210
f 124 579 576
f 584 153 583
f 460 124 576
f 3 469 467
f 311 308 314
f 6 320 183
f 389 104 388
f 251 250 249
f 194 165 1
f 291 289 278
f 287 77 348
f 238 258 257
f 139 517 518
f 238 236 19
f 223 247 19
f 382 380 29
f 39 518 498
f 361 359 3
f 69 255 257
f 139 518 528
f 33 545 535
f 387 385 7
f 69 268 269
f 477 462 125
f 454 479 123
f 121 555 447
f 451 435 117
f 454 425 4
f 233 252 8
f 124 463 464
f 69 258 268
f 168 167 166
f 583 153 582
f 384 394 102
f 138 512 513
f 57 210 211
f 254 256 255
f 607 609 142
f 324 319 86
f 289 291 76
f 291 292 76
f 384 102 383
f 422 421 420
f 221 17 197
f 383 102 381
f 376 377 99
f 99 373 374
f 386 105 392
f 438 33 440
f 90 341 343
f 281 75 279
f 574 571 96
f 628 82 312
f 221 222 59
f 127 471 474
f 595 605 603
f 551 538 145
f 334 91 340
f 322 324 85
f 305 303 301
f 18 239 399
f 306 204 16
f 199 198 197
f 166 190 180
f 303 80 301
f 267 266 265
f 626 42 547
f 16 215 213
f 349 351 350
f 295 16 213
f 68 379 252
f 250 251 66
f 627 160 626
f 383 68 256
f 343 88 342
f 507 508 136
f 202 215 16
f 197 198 53
f 254 69 269
f 603 605 156
f 418 419 111
f 384 383 256
f 455 122 476
f 203 204 54
f 556 557 148
f 255 68 253
f 313 84 560
f 25 328 341
f 254 255 69
f 603 156 602
f 581 584 583
f 630 632 112
f 163 246 1
f 246 245 220
f 432 116 558
f 499 591 590
f 320 563 86
f 345 93 350
f 306 16 295
f 346 93 345
f 562 568 149
f 604 605 155
f 154 592 593
f 545 552 535
f 511 522 530
f 574 573 571
f 566 150 565
f 361 98 360
f 67 271 273
f 234 235 65
f 208 211 56
f 574 151 573
f 251 270 66
f 398 8 378
f 213 215 214
f 438 440 439
f 315 314 313
f 263 71 262
f 20 373 384
f 496 134 504
f 329 88 328
f 81 306 316
f 555 556 148
f 592 589 103
f 617 619 107
f 227 207 56
f 571 359 96
f 446 466 465
f 206 216 55
f 359 571 469
f 568 148 570
f 34 437 435
f 28 351 349
f 21 272 282
f 113 423 424
f 490 489 488
f 379 68 383
f 210 212 211
f 80 563 300
f 351 92 350
f 326 346 12
f 83 317 318
f 555 148 554
f 212 231 56
f 218 57 217
f 271 67 246
f 195 196 52
f 270 268 66
f 390 592 103
f 148 568 554
f 495 493 7
f 592 390 593
f 357 95 355
f 574 575 151
f 452 120 451
f 154 591 592
f 587 585 577
f 395 394 396
f 93 349 350
f 610 416 611
f 166 44 190
f 315 23 302
f 315 302 317
f 268 247 66
f 606 154 593
f 396 394 99
f 211 212 56
f 370 369 368
f 235 397 65
f 280 278 22
f 83 315 317
f 575 588 151
f 74 279 280
f 385 495 7
f 63 257 253
f 397 235 398
f 214 58 213
f 220 219 194
f 546 146 545
f 236 225 19
f 599 94 602
f 235 233 8
f 102 394 395
f 611 416 32
f 225 223 19
f 139 528 529
f 231 62 229
f 419 406 421
f 451 450 452
f 49 182 185
f 402 397 107
f 52 199 218
f 416 610 110
f 225 236 244
f 107 397 398
f 68 252 253
f 322 85 321
f 182 181 183
f 118 438 439
f 546 438 118
f 348 77 345
f 543 546 118
f 231 212 232
f 610 611 157
f 33 438 545
f 385 386 103
f 479 480 130
f 169 195 15
f 93 583 349
f 15 195 206
f 190 44 192
f 247 248 66
f 146 552 545
f 248 60 245
f 570 557 564
f 274 271 43
f 63 253 233
f 272 21 249
f 507 528 518
f 67 273 249
f 487 467 126
f 196 195 169
f 624 159 623
f 134 496 497
f 132 503 488
f 104 393 395
f 556 553 89
f 355 356 94
f 258 69 257
f 229 61 227
f 56 231 227
f 460 576 335
f 463 124 461
f 394 373 99
f 29 393 391
f 67 250 245
f 193 198 196
f 462 36 464
f 144 633 630
f 141 526 527
f 517 133 498
f 536 144 630
f 100 372 599
f 144 536 537
f 22 289 287
f 578 579 152
f 579 578 576
f 189 188 187
f 60 223 224
f 92 348 350
f 555 554 447
f 396 377 388
f 194 193 165
f 413 536 630
f 372 352 599
f 377 376 375
f 348 345 350
f 105 386 387
f 240 237 234
f 463 462 464
f 135 500 494
f 45 196 169
f 512 612 387
f 245 60 220
f 429 115 456
f 223 60 248
f 288 289 76
f 525 526 142
f 100 599 601
f 613 29 391
f 526 523 520
f 341 328 343
f 631 641 639
f 264 21 282
f 266 72 265
f 106 402 403
f 73 273 274
f 186 206 205
f 381 379 383
f 52 216 195
f 410 18 399
f 290 272 73
f 72 371 374
f 526 525 527
f 115 430 424
f 498 497 496
f 621 382 29
f 543 118 434
f 214 215 57
f 522 141 530
f 511 510 509
f 352 94 599
f 493 512 7
f 90 340 341
f 169 171 170
f 605 604 606
f 219 60 224
f 104 389 392
f 359 469 3
f 186 49 185
f 222 219 224
f 166 167 44
f 428 427 426
f 523 522 524
f 129 502 481
f 50 185 188
f 164 45 170
f 425 115 424
f 33 428 426
f 427 428 113
f 94 356 602
f 515 138 513
f 114 431 452
f 237 236 238
f 215 217 57
f 95 354 355
f 220 60 219
f 515 514 516
f 183 320 319
f 222 197 53
f 559 569 567
f 300 320 6
f 435 436 117
f 96 360 363
f 640 642 641
f 242 243 62
f 140 537 519
f 508 130 505
f 420 410 399
f 537 539 144
f 317 316 318
f 426 114 450
f 186 15 206
f 311 83 310
f 625 544 307
f 544 10 307
f 168 43 167
f 185 182 188
f 369 354 95
f 44 171 192
f 605 606 156
f 548 549 146
f 100 601 375
f 149 568 569
f 381 380 382
f 455 466 35
f 480 479 454
f 543 548 546
f 493 133 513
f 492 472 37
f 477 125 476
f 491 487 126
f 337 336 338
f 588 153 587
f 576 578 91
f 633 161 632
f 96 359 360
f 39 485 483
f 101 617 378
f 193 45 165
f 163 164 43
f 618 624 611
f 507 136 528
f 561 149 560
f 641 162 639
f 116 561 558
f 494 133 493
f 253 252 233
f 63 237 238
f 392 393 104
f 440 450 117
f 93 581 583
f 386 385 387
f 120 449 451
f 421 422 111
f 486 3 467
f 302 81 317
f 633 632 630
f 462 475 36
f 376 99 374
f 489 490 131
f 447 449 448
f 387 612 105
f 106 420 399
f 173 46 172
f 492 491 472
f 316 306 295
f 22 287 347
f 109 410 420
f 507 39 483
f 559 23 313
f 214 57 211
f 196 45 193
f 10 434 432
f 422 106 403
f 626 160 640
f 487 486 467
f 542 41 532
f 400 106 399
f 444 120 452
f 198 199 52
f 475 127 474
f 621 620 382
f 621 623 159
f 450 114 452
f 92 347 348
f 376 100 375
f 434 118 433
f 503 132 502
f 337 90 336
f 537 536 519
f 395 393 380
f 201 54 200
f 171 44 170
f 355 94 353
f 58 296 213
f 422 420 106
f 595 365 596
f 569 568 570
f 523 140 520
f 114 430 431
f 218 210 57
f 304 566 80
f 639 162 638
f 261 371 72
f 548 147 547
f 498 133 497
f 150 570 564
f 222 224 59
f 142 526 520
f 437 436 435
f 141 522 523
f 137 510 505
f 173 179 176
f 559 149 569
f 121 447 448
f 563 320 300
f 102 395 380
f 257 255 253
f 642 162 641
f 83 311 314
f 216 52 218
f 512 493 513
f 23 304 302
f 91 339 340
f 512 138 612
f 159 620 621
f 218 199 210
f 364 28 575
f 83 318 310
f 168 274 43
f 136 530 528
f 140 523 524
f 495 135 494
f 233 235 234
f 566 563 80
f 25 339 577
f 277 74 276
f 475 462 477
f 133 494 497
f 436 437 116
f 389 386 392
f 548 146 546
f 441 460 5
f 10 309 307
f 65 397 400
f 543 434 544
f 640 641 161
f 272 273 73
f 581 93 346
f 419 421 111
f 319 320 86
f 180 179 178
f 127 475 477
f 231 229 227
f 337 334 340
f 136 508 510
f 308 309 84
f 237 63 234
f 447 554 34
f 252 379 378
f 315 83 314
f 608 622 616
f 338 336 26
f 337 338 89
f 13 275 168
f 209 208 207
f 436 439 117
f 628 312 629
f 360 366 363
f 364 574 96
f 359 361 360
f 466 446 35
f 500 501 134
f 406 109 421
f 135 589 591
f 601 599 602
f 340 90 337
f 481 492 37
f 522 41 524
f 78 316 295
f 131 486 487
f 403 32 414
f 634 626 640
f 151 572 573
f 515 516 138
f 8 252 378
f 265 72 374
f 9 521 519
f 538 549 42
f 368 358 347
f 588 587 586
f 458 453 123
f 589 385 103
f 502 492 481
f 32 416 414
f 430 427 424
f 153 585 587
f 540 144 539
f 370 368 92
f 209 293 58
f 428 33 535
f 326 581 346
f 625 307 82
f 575 28 582
f 6 181 200
f 421 109 420
f 553 121 443
f 160 642 640
f 153 584 585
f 309 432 558
f 334 337 89
f 23 315 313
f 271 163 43
f 296 295 213
f 39 498 496
f 118 439 433
f 531 113 534
f 293 296 58
f 28 362 351
f 489 131 487
f 431 444 452
f 84 558 560
f 98 366 360
f 45 169 170
f 379 101 378
f 462 463 125
f 308 84 314
f 10 432 309
f 299 24 310
f 132 492 502
f 512 387 7
f 639 638 408
f 565 323 86
f 59 244 242
f 106 400 402
f 440 33 426
f 566 565 563
f 617 398 378
f 224 225 59
f 410 109 409
f 239 400 399
f 194 219 53
f 358 22 347
f 610 157 609
f 27 595 603
f 479 484 482
f 142 520 521
f 585 25 577
f 339 578 577
f 408 407 406
f 407 109 406
f 31 408 406
f 407 408 108
f 31 639 408
f 419 31 406
f 608 616 40
f 430 429 431
f 455 35 429
f 35 444 431
f 188 51 187
f 188 182 51
f 51 322 187
f 322 51 319
f 51 182 183
f 319 51 183
f 187 322 321
f 322 319 324
f 381 101 379
f 405 407 108
f 404 405 108
f 286 285 178
f 407 405 409
f 109 407 409
f 191 175 47
f 167 164 170
f 50 184 185
f 44 167 170
f 64 244 236
f 243 244 64
f 50 188 189
f 541 542 145
f 442 445 119
f 339 91 578
f 445 446 119
f 624 623 622
f 611 624 157
f 523 526 141
f 141 527 529
f 527 514 529
f 445 120 444
f 446 445 444
f 35 446 444
f 613 614 158
f 158 614 615
f 623 613 158
f 614 613 391
f 614 612 615
f 371 376 374
f 100 376 371
f 479 482 123
f 373 394 384
f 540 42 634
f 633 540 634
f 538 42 540
f 633 634 161
f 161 634 640
f 42 626 634
f 540 633 144
f 557 556 338
f 553 333 89
f 262 21 264
f 251 21 262
f 5 335 333
f 270 251 262
f 21 251 249
f 600 593 30
f 606 593 600
f 600 30 375
f 593 390 30
f 30 377 375
f 390 388 30
f 30 388 377
f 228 243 241
f 470 478 459
f 470 127 478
f 127 477 478
f 184 186 185
f 478 477 476
f 122 478 476
f 357 74 280
f 518 39 507
f 344 342 85
f 325 344 85
f 342 344 343
f 85 342 321
f 344 90 343
f 90 344 336
f 482 129 481
f 482 481 457
f 482 457 123
f 481 37 457
f 449 447 34
f 435 449 34
f 470 472 471
f 472 470 37
f 470 471 127
f 472 126 471
f 126 468 471
f 470 459 37
f 491 126 472
f 504 129 485
f 221 59 242
f 125 463 465
f 437 34 562
f 561 437 562
f 554 568 562
f 34 554 562
f 437 561 116
f 390 103 389
f 103 386 389
f 392 105 391
f 572 586 580
f 572 580 36
f 586 152 580
f 473 572 36
f 244 243 242
f 225 244 59
f 64 240 241
f 240 239 241
f 237 240 64
f 243 64 241
f 236 237 64
f 411 607 521
f 9 411 521
f 110 607 411
f 607 142 521
f 610 607 110
f 171 15 184
f 171 169 15
f 15 186 184
f 87 584 581
f 153 588 582
f 588 575 582
f 381 102 380
f 573 572 473
f 468 469 128
f 474 468 128
f 469 571 128
f 571 573 128
f 573 473 128
f 473 474 128
f 564 323 565
f 26 323 564
f 323 324 86
f 325 323 26
f 325 324 323
f 563 565 86
f 324 325 85
f 410 230 18
f 230 228 18
f 18 228 241
f 18 241 239
f 401 619 618
f 401 402 107
f 403 402 401
f 619 159 618
f 401 618 32
f 619 401 107
f 403 401 32
f 618 611 32
f 159 624 618
f 478 122 459
f 122 458 459
f 37 459 457
f 459 458 457
f 122 456 458
f 457 458 123
f 191 190 192
f 485 129 484
f 129 482 484
f 483 485 484
f 130 483 484
f 189 187 14
f 191 50 189
f 191 189 175
f 189 14 175
f 14 177 175
f 499 501 500
f 501 499 38
f 38 499 590
f 135 499 500
f 488 501 38
f 499 135 591
f 480 454 4
f 284 12 346
f 4 423 506
f 480 4 506
f 423 531 506
f 480 506 505
f 531 137 506
f 506 137 505
f 365 366 98
f 71 270 262
f 270 71 269
f 71 267 269
f 335 334 333
f 333 334 89
f 334 335 91
f 536 9 519
f 465 463 461
f 537 140 541
f 520 140 519
f 119 446 465
f 465 461 119
f 461 441 119
f 460 441 461
f 176 46 173
f 299 297 24
f 71 263 266
f 263 260 266
f 260 72 266
f 263 70 260
f 205 201 49
f 201 181 49
f 186 205 49
f 181 201 200
f 181 182 49
f 284 77 283
f 586 587 152
f 588 586 151
f 20 267 265
f 266 267 71
f 31 417 631
f 631 417 632
f 31 631 639
f 417 31 419
f 641 631 161
f 417 112 632
f 161 631 632
f 418 417 419
f 417 418 112
f 284 345 77
f 542 550 145
f 542 541 524
f 284 174 12
f 48 174 283
f 373 20 265
f 373 265 374
f 609 608 525
f 608 157 622
f 560 559 313
f 636 637 162
f 541 140 524
f 41 542 524
f 358 357 280
f 70 263 264
f 263 262 264
f 176 177 46
f 174 48 173
f 174 173 172
f 538 551 549
f 538 540 539
f 537 541 539
f 232 221 242
f 17 221 232
f 232 242 62
f 231 232 62
f 203 205 55
f 203 55 202
f 201 205 203
f 202 55 217
f 205 206 55
f 204 203 202
f 73 275 292
f 292 290 73
f 272 290 282
f 290 292 291
f 75 290 291
f 290 75 282
f 70 277 259
f 277 70 281
f 277 281 279
f 260 70 259
f 12 174 172
f 104 396 388
f 367 27 354
f 365 27 367
f 354 27 356
f 365 367 366
f 595 27 365
f 318 299 310
f 155 596 597
f 155 597 598
f 596 594 597
f 595 596 155
f 605 595 155
f 180 47 179
f 180 190 47
f 352 372 11
f 11 372 261
f 312 310 24
f 642 636 162
f 636 297 637
f 367 369 97
f 366 367 97
f 369 367 354
f 369 370 97
f 580 579 464
f 580 152 579
f 579 124 464
f 61 230 409
f 230 410 409
f 230 61 229
f 230 229 228
f 76 285 286
f 353 352 276
f 74 353 276
f 288 76 286
f 288 286 283
f 289 288 287
f 203 54 201
f 287 288 77
f 77 288 283
f 286 48 283
f 531 423 113
f 276 11 259
f 11 261 259
f 277 276 259
f 616 158 615
f 516 616 615
f 138 516 615
f 138 615 612
f 509 533 532
f 503 502 504
f 635 79 294
f 635 294 404
f 635 637 79
f 637 635 638
f 638 635 108
f 635 404 108
f 226 61 405
f 61 226 227
f 405 61 409
f 227 226 207
f 48 178 179
f 48 286 178
f 173 48 179
f 534 143 533
f 534 535 143
f 531 534 533
f 533 143 532
f 137 531 533
f 261 372 371
f 13 180 178
f 285 13 178
f 180 13 166
f 13 168 166
f 346 345 284
f 331 327 46
f 46 327 172
f 172 327 326
f 382 620 101
f 442 121 448
f 443 121 442
f 2 226 404
f 294 2 404
f 404 226 405
f 207 226 2
f 550 551 145
f 552 146 551
f 143 550 532
f 552 550 143
f 330 329 328
f 24 636 629
f 94 352 353
f 352 11 276
f 113 428 534
f 428 535 534
f 509 41 511
f 535 552 143
f 550 552 551
f 550 542 532
f 369 95 368
f 326 327 87
f 87 327 329
f 327 331 329
f 581 326 87
f 293 79 298
f 79 297 298
f 296 298 78
f 79 293 294
f 296 293 298
f 598 490 38
f 358 280 22
f 280 279 278
f 357 358 95
f 74 357 353
f 330 328 25
f 567 23 559
f 590 598 38
f 590 604 598
f 598 604 155
f 604 590 154
f 590 591 154
f 604 154 606
f 297 299 298
f 299 318 78
f 298 299 78
f 355 354 356
f 629 636 642
f 312 24 629
f 629 642 160
f 370 362 97
f 362 363 97
f 363 366 97
f 364 363 362
f 362 370 351
f 96 363 364
f 297 636 24
f 162 637 638
f 637 297 79
f 490 488 38
f 598 597 490
f 441 442 119
f 443 442 441
f 443 441 5
f 442 448 445
f 296 78 295
f 326 12 172
f 575 574 364
f 47 175 176
f 175 177 176
f 47 176 179
