# FEM surface export ¡ª frame 760
# Vertices: 642  Faces: 1280
v -0.49503386 0.76984113 -0.01550592
v 0.46070287 0.81284541 -0.02097821
v -0.51542664 0.63919657 0.06968168
v 0.54512107 0.60102129 0.01780281
v 0.02516329 0.35521516 0.85489011
v -0.01280512 0.57510394 0.86710453
v -0.02576377 0.29805097 -0.80482805
v 0.00289959 0.54502517 -0.88087052
v 0.91651517 0.12219283 -0.55846184
v 0.90936613 0.13632654 0.55399752
v -0.92952555 0.09795020 -0.54586750
v -0.93054098 0.12654945 0.57476157
v -0.82991570 0.53657460 0.31097597
v -0.52825707 0.35808006 0.83661360
v -0.29464823 0.73370034 0.46375844
v 0.27806914 0.78299123 0.47207871
v -0.01254218 0.84646761 0.00704991
v 0.26860261 0.75876230 -0.49494964
v -0.30579743 0.75030971 -0.49268398
v -0.52734822 0.34910154 -0.86513060
v -0.82987380 0.53619868 -0.31782073
v -1.06078935 0.14580293 0.01232156
v 0.53336030 0.40813619 0.85293806
v 0.80697066 0.60926926 0.32094917
v -0.47278908 0.17070112 0.83773482
v 0.01397235 0.10581884 1.05100250
v -0.81170326 0.35219699 -0.31883791
v -0.81656790 0.31595743 0.31092617
v 0.01877852 0.11398707 -1.08308005
v -0.51141423 0.15011808 -0.78427553
v 0.81233442 0.57350433 -0.32554922
v 0.52509511 0.36728778 -0.85261238
v 0.80578285 0.21484715 0.28629243
v 0.50379837 0.12315305 0.79929149
v 0.33125785 0.59347308 0.48175365
v -0.29519835 0.62953210 0.50997823
v 0.01253405 0.60290325 0.05915829
v -0.28713956 0.47574207 -0.46242300
v 0.31910592 0.59014517 -0.47305155
v 0.48672593 0.11710873 -0.81970698
v 0.77346635 0.24228501 -0.29637483
v 1.08047044 0.18437365 -0.00737408
v -0.67240787 0.68249094 0.14443476
v -0.56652719 0.66046780 0.40622514
v -0.40088278 0.76257521 0.22976775
v -0.73145711 0.22813591 0.74995565
v -0.71074158 0.46297219 0.60140020
v -0.90396482 0.33703086 0.47525001
v -0.15617961 0.68318552 0.68071443
v -0.43418059 0.59459883 0.66615272
v -0.28803673 0.47825146 0.88710111
v -0.13641897 0.80849367 0.25256222
v -0.24766952 0.81928760 0.01435510
v 0.15033080 0.70285743 0.68469638
v -0.00632004 0.77988350 0.48711327
v 0.21037494 0.84489036 -0.00947792
v 0.14303212 0.83316720 0.23784532
v 0.38419008 0.81441486 0.23560691
v -0.16059209 0.82040942 -0.24332893
v -0.40792364 0.78094739 -0.25388938
v 0.37326705 0.79957318 -0.26970455
v 0.11275749 0.82846475 -0.25417760
v -0.17065242 0.66096550 -0.70931697
v -0.01496248 0.75959140 -0.51241469
v 0.13820684 0.67339504 -0.70570982
v -0.58262914 0.66311282 -0.43688148
v -0.67864031 0.68253851 -0.17643394
v -0.27638179 0.46054834 -0.90498149
v -0.43373603 0.58000648 -0.71924490
v -0.89798099 0.32847676 -0.45705447
v -0.70930916 0.44760418 -0.60741055
v -0.75221533 0.23494495 -0.75673354
v -0.87257922 0.55661839 -0.00779362
v -1.03546953 0.10656758 -0.28165588
v -1.01881623 0.32974175 -0.16123535
v -0.99302024 0.34763056 0.17604521
v -1.03346801 0.11110784 0.29348311
v 0.56973356 0.73265159 0.41687825
v 0.64322144 0.75537980 0.14458869
v 0.26955169 0.52225381 0.89673281
v 0.42901871 0.64322191 0.68345159
v 0.90855926 0.39094239 0.47213084
v 0.71343482 0.53404015 0.62112588
v 0.76091623 0.29691496 0.73382401
v -0.29494527 0.26022959 1.03667712
v -0.00922398 0.35090739 1.01591456
v -0.71616578 0.00241957 0.75811982
v -0.54729265 0.08007547 0.95087796
v 0.04704866 0.14982656 1.00879741
v -0.24417950 0.01178888 1.00563848
v -0.26227269 0.28578082 0.86703694
v -0.96661955 0.12081009 0.18292657
v -0.87331057 0.09403549 0.44711602
v -0.90611768 0.12265497 -0.44170448
v -0.97829324 0.12151579 -0.19073924
v -0.71295398 0.50517756 0.18296304
v -0.82588750 0.36289996 -0.02511107
v -0.66250396 0.51484770 -0.15115434
v -0.57707942 0.09922041 -0.92286277
v -0.73541850 0.01848207 -0.70484203
v 0.01259371 0.33993235 -1.02085614
v -0.28289479 0.23358469 -1.03441203
v -0.28232211 0.20346691 -0.84643877
v -0.27569830 0.00483864 -0.97564518
v -0.01011441 0.04716751 -0.94363284
v 0.41044256 0.59920454 -0.71207637
v 0.26586154 0.46910456 -0.89670771
v 0.65037316 0.72150803 -0.17544319
v 0.55454749 0.69124901 -0.43434522
v 0.75095063 0.24355322 -0.73177040
v 0.70322090 0.46711615 -0.60804874
v 0.90902281 0.35890067 -0.45669600
v 0.72287327 0.42266241 0.19004704
v 0.59231758 0.42077011 0.41329497
v 0.49709782 0.59820306 0.26670274
v 0.72652459 0.00000000 0.75271326
v 0.69230604 0.17584056 0.57522923
v 0.86642367 0.10021974 0.41852605
v 0.19992529 0.49559662 0.71577615
v 0.44269612 0.37779626 0.65323853
v 0.24569927 0.24809454 0.84781051
v 0.22210085 0.75553781 0.28728330
v 0.26098290 0.56815016 0.04688577
v -0.12391222 0.51927519 0.71896636
v 0.03474260 0.66512263 0.54171467
v -0.23478045 0.63102573 0.09111444
v -0.14057784 0.78458506 0.32552642
v -0.43335465 0.65567857 0.29936209
v 0.20551339 0.65805936 -0.26787633
v 0.42636073 0.63790381 -0.18856584
v -0.40285745 0.67377871 -0.23195232
v -0.10811678 0.59348577 -0.22099680
v 0.15889741 0.46883580 -0.68672711
v 0.03329796 0.62041122 -0.55310684
v -0.17083006 0.48348641 -0.69838202
v 0.58030879 0.46755028 -0.41136000
v 0.70994586 0.45448387 -0.15313935
v 0.25007680 0.20985512 -0.85936910
v 0.43426123 0.39766613 -0.70561266
v 0.87121850 0.09622068 -0.48759565
v 0.68121451 0.21514545 -0.59780937
v 0.71569330 0.00000000 -0.72081637
v 0.82360756 0.22847435 -0.00564806
v 1.02831531 0.14612854 -0.28218207
v 0.96276623 0.00000000 -0.20723088
v 0.96896148 0.00000000 0.12888575
v 1.02009284 0.18099649 0.29066315
v 0.29412639 0.04061586 1.01998258
v 0.56941456 0.12261114 0.91539353
v 0.27727422 0.28515241 1.03001726
v -0.58395875 0.48357219 0.43882436
v -0.40141082 0.43961900 0.69554734
v -0.65365231 0.23154895 0.62738049
v -0.43718964 0.42993504 -0.71831870
v -0.57293272 0.54759216 -0.41283217
v -0.70696229 0.26976857 -0.57024837
v 0.55405247 0.06948777 -0.90088910
v 0.27471218 0.00000000 -0.99927562
v 0.29527026 0.24356219 -1.02792215
v 0.99288064 0.41399226 0.16902913
v 0.99192500 0.40702444 -0.17222987
v 0.84329981 0.62838006 -0.00957835
v -0.58073014 0.73804379 0.06439427
v -0.52902764 0.72761780 0.19257672
v -0.44307569 0.77063537 0.10954473
v -0.70600611 0.61343414 0.35612053
v -0.61576325 0.67727286 0.28021681
v -0.75566286 0.61403173 0.22178189
v -0.35159314 0.75094932 0.34949428
v -0.48044294 0.71808529 0.32692066
v -0.42782715 0.69524556 0.44730452
v -0.82473880 0.17673159 0.65741909
v -0.83268493 0.28328383 0.60768986
v -0.93467414 0.22848247 0.53028035
v -0.63405955 0.40397376 0.72590882
v -0.73339152 0.34412548 0.67507499
v -0.63809383 0.28234357 0.80012053
v -0.87834716 0.43774787 0.38360241
v -0.82366556 0.41268530 0.53354245
v -0.77333027 0.50912350 0.45593432
v -0.08727053 0.63519621 0.77708942
v -0.21854220 0.59469515 0.79522622
v -0.14775527 0.52291429 0.89040297
v -0.35400397 0.67733437 0.57288754
v -0.29589501 0.63177550 0.68694967
v -0.22560312 0.71091896 0.57126212
v -0.41411915 0.42357430 0.85783273
v -0.36550736 0.54053873 0.78616649
v -0.49743959 0.49279121 0.76041555
v -0.65208423 0.59308940 0.50035292
v -0.58739662 0.53970903 0.63925207
v -0.50434351 0.63230544 0.54832691
v -0.32419264 0.79333818 0.12018835
v -0.37320521 0.79019529 -0.00507765
v -0.22173271 0.78501827 0.36215970
v -0.27043322 0.78766567 0.24907291
v -0.13675031 0.84271759 0.00742191
v -0.19200930 0.81486225 0.13761598
v -0.07463417 0.83651668 0.12722029
v 0.07948226 0.64947546 0.77999312
v -0.00618391 0.69925392 0.68481612
v 0.13266188 0.77736384 0.47606209
v 0.06741805 0.74565190 0.57932550
v 0.22185899 0.74667388 0.58202046
v -0.07952470 0.73195821 0.57734376
v -0.15141527 0.76804388 0.47813573
v 0.33696461 0.82777721 -0.02802029
v 0.30085272 0.83530366 0.10742114
v 0.41387856 0.82262403 0.10357248
v 0.07535917 0.84145820 0.11558855
v 0.18416563 0.84212559 0.11644386
v 0.09966013 0.85401899 -0.01072978
v 0.34808207 0.80510038 0.35860297
v 0.25919452 0.82407159 0.23621467
v 0.20808780 0.81193316 0.34320414
v -0.08043499 0.80724263 0.36966512
v 0.05872578 0.81061834 0.35893580
v 0.00176475 0.83103746 0.23432025
v -0.33590272 0.80941814 -0.11817503
v -0.45921138 0.77514875 -0.13643846
v -0.08970062 0.84180075 -0.11272020
v -0.21019211 0.83018148 -0.11413148
v -0.35428378 0.77305526 -0.37056869
v -0.28302616 0.80820853 -0.24320664
v -0.22499408 0.79541981 -0.36799064
v 0.42051500 0.81423759 -0.14967938
v 0.28718221 0.82932234 -0.14555031
v 0.19036259 0.80152535 -0.37891167
v 0.23781802 0.81545800 -0.26376271
v 0.32290572 0.78243464 -0.38176638
v 0.15846825 0.84268141 -0.13150914
v 0.04116460 0.84748262 -0.12568808
v -0.08810063 0.59705162 -0.79800242
v -0.01667063 0.67037630 -0.71650720
v 0.06726440 0.60654557 -0.80026489
v -0.16619989 0.75431830 -0.50843841
v -0.10031661 0.72103840 -0.61412948
v -0.24599437 0.70629686 -0.61021000
v 0.21037494 0.72094554 -0.60585332
v 0.05300381 0.72669697 -0.61168736
v 0.12449098 0.76223367 -0.51006395
v -0.02689841 0.82465500 -0.24876864
v 0.05749613 0.80095178 -0.38059407
v -0.08479089 0.79737902 -0.37975535
v -0.54720640 0.74233228 -0.22948226
v -0.59271920 0.73786843 -0.09601203
v -0.44262543 0.71049333 -0.47166365
v -0.49383047 0.73071504 -0.35623661
v -0.76143348 0.62525660 -0.24575363
v -0.64018410 0.68381160 -0.31269774
v -0.71213937 0.60919362 -0.38603589
v -0.14014658 0.49953681 -0.89609480
v -0.21498385 0.56294733 -0.82118958
v -0.48773158 0.46867386 -0.79991907
v -0.35775474 0.52410007 -0.81831223
v -0.40585923 0.41389465 -0.89784175
v -0.29857481 0.61383498 -0.72702104
v -0.36935493 0.67302698 -0.61991715
v -0.92098391 0.19925196 -0.51940536
v -0.83933628 0.27266806 -0.61132854
v -0.84945124 0.16182476 -0.64886355
v -0.77807361 0.49074623 -0.47062624
v -0.80906832 0.38654479 -0.54149151
v -0.86303574 0.42389172 -0.38984862
v -0.64478785 0.28716108 -0.81487370
v -0.73322481 0.34371325 -0.69194043
v -0.62030977 0.39997697 -0.74591017
v -0.51317859 0.62529516 -0.58045012
v -0.57890749 0.52505279 -0.68694657
v -0.65659535 0.55907565 -0.53473502
v -0.68722355 0.69983023 -0.01870185
v -0.86667466 0.54444242 -0.16273808
v -0.78325427 0.63182884 -0.09249347
v -0.77831507 0.63834119 0.06643946
v -0.85798764 0.56113023 0.15087850
v -0.99326175 0.08985502 -0.40872639
v -0.97728765 0.22345588 -0.37662560
v -1.06152475 0.24416010 -0.07951695
v -1.02501428 0.22896697 -0.23341489
v -1.04907393 0.12727015 -0.13763481
v -0.95744830 0.34048536 -0.31236854
v -0.92766637 0.42890546 -0.24435556
v -0.98532194 0.22041501 0.38573173
v -0.98463881 0.11208670 0.44086826
v -0.92249465 0.45350564 0.24830510
v -0.96602285 0.34120497 0.32330933
v -1.05822372 0.11001737 0.14989428
v -1.03195477 0.23837915 0.24218728
v -1.06221533 0.23696938 0.10532831
v -0.96541935 0.44414219 -0.08731643
v -1.01739347 0.34738478 0.01515662
v -0.93926889 0.46486932 0.08725766
v 0.50491935 0.80416113 0.19420846
v 0.55210614 0.78725690 0.06109110
v 0.43159434 0.75804669 0.44883129
v 0.47812855 0.79221922 0.33440107
v 0.72962534 0.68906045 0.23395137
v 0.61226654 0.75595617 0.28173468
v 0.69468307 0.67617488 0.37328452
v 0.12878519 0.55764115 0.89447397
v 0.21410301 0.62464619 0.80337840
v 0.48493561 0.54862428 0.78663284
v 0.35189486 0.58684689 0.79378223
v 0.40878236 0.47564265 0.89259833
v 0.29028136 0.68081212 0.69483304
v 0.36039895 0.72484571 0.58116692
v 0.91442078 0.26007971 0.51945573
v 0.84669334 0.34815803 0.61467153
v 0.83911222 0.20135178 0.65441430
v 0.77013725 0.56769681 0.47564873
v 0.82537037 0.47727776 0.55176413
v 0.87628257 0.51827854 0.40776184
v 0.64795381 0.35174504 0.79884791
v 0.74292648 0.42199337 0.68513870
v 0.63229460 0.48548916 0.75279564
v 0.50848639 0.69573557 0.55615288
v 0.57640636 0.59448957 0.65668869
v 0.64620882 0.64017200 0.51937550
v -0.15422630 0.41662842 0.97390866
v -0.01946144 0.45921332 0.95003557
v -0.43298981 0.31517059 0.94095033
v -0.29925746 0.36190820 0.95681351
v 0.00076627 0.22781153 1.05335808
v -0.15509813 0.29362887 1.02824843
v -0.14271884 0.17567590 1.07102311
v -0.82819366 0.08115838 0.66295660
v -0.76485652 0.10127599 0.76422513
v -0.50416434 0.04249514 0.90781099
v -0.64646310 0.02236165 0.86349201
v -0.57176626 0.07800596 0.79297137
v -0.64755422 0.15455693 0.85875434
v -0.54911011 0.21623440 0.90349519
v 0.00622114 0.26776898 0.91823810
v -0.10031360 0.20899451 0.94191736
v -0.11361310 0.28665081 0.85777181
v -0.11294277 0.04602747 1.07599211
v -0.10839861 0.10407919 0.99499863
v 0.05866338 0.01292879 1.04844058
v -0.38001195 0.23058079 0.85637999
v -0.24370828 0.14351626 0.94222605
v -0.36840957 0.11529047 0.90844709
v -0.42355999 0.17836995 0.98019344
v -0.38496667 0.02589877 1.01594126
v -0.28085053 0.11201597 1.03928673
v -0.97387755 0.00067282 0.38259804
v -0.89823598 0.00588033 0.52116984
v -1.01452529 0.00000000 0.08171804
v -1.01080143 0.01713247 0.25249043
v -0.83771342 0.22806340 0.38912657
v -0.93419683 0.14886746 0.32897261
v -0.91072285 0.22923101 0.23235987
v -0.90992630 0.11561136 -0.50714880
v -0.96880871 0.01012853 -0.40452904
v -0.91143900 0.24752592 -0.26060006
v -0.93359458 0.09433010 -0.33028248
v -0.87196529 0.22711775 -0.40355399
v -1.01569140 0.00000398 -0.24756405
v -1.06382251 0.03919414 -0.09654100
v -0.62325209 0.60377765 0.12250178
v -0.69408953 0.53598857 0.00488783
v -0.58351856 0.59621131 -0.04923597
v -0.86844999 0.35287336 0.12944412
v -0.80685234 0.45045236 0.08663512
v -0.77415484 0.39569086 0.25180349
v -0.75366288 0.46203372 -0.24279730
v -0.76380718 0.48437622 -0.09956983
v -0.83375233 0.37183455 -0.14844798
v -0.93135011 0.08457550 -0.00107510
v -0.90580738 0.23291259 -0.09050535
v -0.94307715 0.25560221 0.09296710
v -0.78035909 0.10197322 -0.75076634
v -0.85170549 0.00088043 -0.62957668
v -0.56612581 0.23895966 -0.92836642
v -0.67856973 0.16016811 -0.86206102
v -0.63479847 0.11247754 -0.75638640
v -0.66978359 0.00989959 -0.80822974
v -0.56873065 0.00000000 -0.84867328
v -0.00160496 0.44604072 -0.95591688
v -0.13774219 0.39971855 -0.97330648
v -0.12805621 0.18195915 -1.08529007
v -0.13935219 0.29743591 -1.02779126
v 0.02510095 0.23025855 -1.06632984
v -0.28709477 0.35295120 -0.97678500
v -0.41511813 0.30269468 -0.96248919
v -0.14553216 0.24213561 -0.86108458
v -0.14730370 0.11773662 -0.90380895
v -0.03441090 0.18816814 -0.88930762
v -0.39962822 0.06486340 -0.87368846
v -0.27768865 0.06692771 -0.87578249
v -0.40866733 0.18100061 -0.79622686
v 0.02073575 0.00000000 -1.03247046
v -0.13813852 0.00452703 -0.93529165
v -0.12451597 0.04353313 -1.06560624
v -0.43501446 0.17077684 -1.00554538
v -0.28071120 0.11560325 -1.06332850
v -0.44442666 0.02807809 -0.98443496
v 0.20468387 0.57787067 -0.81143272
v 0.12796994 0.50812227 -0.89413166
v 0.34545743 0.68821716 -0.61118555
v 0.27764484 0.64473099 -0.71722734
v 0.40387672 0.42856649 -0.88853836
v 0.34802070 0.54109854 -0.81414217
v 0.48252767 0.49445298 -0.79048049
v 0.55846304 0.77477765 -0.09790114
v 0.51768506 0.77349979 -0.22800727
v 0.69623154 0.64083016 -0.38896918
v 0.61164445 0.71726990 -0.31248334
v 0.74747300 0.66147071 -0.24285357
v 0.46573508 0.75246650 -0.35276622
v 0.41289851 0.73558080 -0.47730538
v 0.86083734 0.16214564 -0.65653431
v 0.84771091 0.28282881 -0.59714091
v 0.92337954 0.24013707 -0.51165318
v 0.63138986 0.43080276 -0.74547803
v 0.75211483 0.37182447 -0.68414229
v 0.63623005 0.30566683 -0.80161846
v 0.86582869 0.47574833 -0.39991543
v 0.81620276 0.41427371 -0.54190820
v 0.76913989 0.53438419 -0.48385060
v 0.49169281 0.65239197 -0.58278537
v 0.63462812 0.59215826 -0.53681731
v 0.56419313 0.54129374 -0.67233860
v 0.61614430 0.50676829 0.09070790
v 0.60418367 0.50196588 0.23847163
v 0.52631897 0.61607301 0.14790592
v 0.71343607 0.31250936 0.38312551
v 0.67708355 0.43510857 0.30451179
v 0.75435084 0.31466395 0.25991827
v 0.41364333 0.61471093 0.37700343
v 0.53525281 0.51291209 0.35111815
v 0.46966219 0.51865381 0.45384121
v 0.83680391 0.04949440 0.65912253
v 0.78490627 0.08355936 0.59484833
v 0.92821014 0.02921892 0.51715541
v 0.62400675 0.16336600 0.67838299
v 0.74031109 0.07850862 0.64257628
v 0.63485980 0.06767843 0.75933826
v 0.79231584 0.13963339 0.32476813
v 0.74590039 0.13641892 0.48737451
v 0.71292531 0.21682321 0.41765669
v 0.12085316 0.41581073 0.77933526
v 0.25625956 0.37258926 0.81296122
v 0.14490522 0.34277007 0.87801898
v 0.36180609 0.49042723 0.58700752
v 0.31726712 0.44618353 0.70532697
v 0.24328360 0.55709183 0.60086137
v 0.38874915 0.23136979 0.81088078
v 0.33134285 0.32960093 0.75451475
v 0.48944581 0.24184549 0.71377200
v 0.63234693 0.30473208 0.50463670
v 0.55304509 0.27617973 0.60868663
v 0.52043104 0.41491309 0.52877051
v 0.36733723 0.51610845 0.17097288
v 0.40866905 0.51737553 0.02100782
v 0.29957062 0.71061647 0.37526593
v 0.39270219 0.70477074 0.24253409
v 0.13927053 0.60186362 0.05605897
v 0.28234091 0.67407811 0.15887193
v 0.12429509 0.67409688 0.18728089
v -0.04960985 0.40190139 0.77047962
v 0.02446393 0.50628561 0.74739265
v -0.12234351 0.63596195 0.52194464
v -0.04635828 0.60335118 0.64904857
v -0.19283433 0.57124186 0.60683405
v 0.10253262 0.59260178 0.63753462
v 0.19326407 0.63134557 0.51374722
v -0.36657867 0.58879626 0.08916520
v -0.36125165 0.72817057 0.18777062
v -0.49162483 0.65283191 0.20817165
v -0.04063759 0.68979818 0.18652371
v -0.19833848 0.77174771 0.18514238
v -0.11104926 0.64331657 0.04625565
v -0.35302633 0.66581368 0.41450343
v -0.30094996 0.73838788 0.31142271
v -0.19407831 0.71430987 0.41281143
v 0.13311987 0.74720210 0.42806652
v -0.05377054 0.75068194 0.45711482
v 0.04691723 0.65887427 0.33419439
v 0.36812076 0.61057663 -0.06164970
v 0.53368616 0.55861568 -0.10929351
v 0.11463939 0.65221006 -0.11363180
v 0.20373467 0.62667114 -0.10688011
v 0.39795348 0.60987252 -0.35797641
v 0.32641715 0.68868673 -0.23345467
v 0.29027256 0.71890891 -0.40377781
v -0.46275482 0.66906303 -0.07738776
v -0.32720786 0.56741351 -0.08208494
v -0.19185440 0.46603769 -0.30588159
v -0.26901215 0.58973992 -0.21115643
v -0.33152109 0.55231708 -0.32958078
v -0.18103343 0.63665015 -0.05917646
v -0.06788402 0.61004436 -0.11971475
v 0.08726647 0.37537214 -0.78566527
v 0.01717014 0.48902634 -0.69895792
v -0.07205495 0.40430984 -0.77652234
v 0.19250618 0.62712157 -0.51783484
v 0.11157472 0.56743842 -0.62470561
v 0.25564918 0.56688106 -0.60176528
v -0.18600729 0.41695836 -0.59139335
v -0.08805276 0.56925088 -0.62759799
v -0.12761311 0.50978309 -0.47899058
v 0.05296584 0.62257069 -0.25260407
v -0.01955222 0.54094493 -0.38730350
v 0.15248998 0.63077801 -0.39270699
v 0.59035403 0.57479131 -0.23724203
v 0.65286463 0.52940857 -0.04830388
v 0.47422025 0.54803288 -0.44526842
v 0.51983768 0.57230669 -0.34262827
v 0.75014144 0.35548389 -0.23687463
v 0.65965647 0.47204581 -0.28557596
v 0.71643609 0.36780342 -0.37330508
v 0.11211138 0.25817645 -0.85157335
v 0.19836281 0.33901581 -0.78632826
v 0.47756273 0.25921777 -0.76856291
v 0.33373451 0.30559060 -0.78215843
v 0.38285762 0.18790412 -0.86832446
v 0.28697973 0.43692610 -0.70203876
v 0.38205275 0.49703822 -0.58812368
v 0.90656072 0.00000000 -0.50065798
v 0.79366654 0.07319382 -0.59125298
v 0.80080450 0.01241955 -0.64283639
v 0.75274140 0.26099750 -0.47153813
v 0.76636380 0.16366041 -0.55189437
v 0.81737179 0.15514447 -0.37797236
v 0.57587075 0.05360526 -0.78287423
v 0.68011791 0.09076879 -0.67365640
v 0.59169632 0.17729308 -0.72256511
v 0.51753813 0.44855216 -0.56593901
v 0.57536709 0.30755916 -0.66007435
v 0.64410472 0.36153585 -0.51929015
v 0.71556944 0.46239218 0.00289794
v 0.81655288 0.24203862 -0.16062385
v 0.76538241 0.34271920 -0.08486057
v 0.78022134 0.33360696 0.07751896
v 0.81040823 0.21852402 0.15003504
v 0.99723077 0.12989417 -0.42934555
v 0.98952597 0.01348058 -0.37753889
v 1.06965435 0.08547737 -0.09680733
v 1.03508568 0.07123917 -0.24453841
v 1.06364334 0.19063175 -0.15721807
v 0.90999913 0.08764168 -0.32812539
v 0.87681776 0.11583347 -0.27027991
v 0.97252250 0.02037572 0.36323228
v 0.98401380 0.14201640 0.41776195
v 0.85580093 0.07647152 0.20284764
v 0.91430593 0.01668326 0.28324533
v 1.06304491 0.18016456 0.13590738
v 1.01764393 0.07018860 0.21837823
v 1.05468631 0.08555292 0.06692888
v 0.88461870 0.10945763 -0.12318108
v 0.98449665 0.00000000 -0.03452235
v 0.88241684 0.11166659 0.03639585
v 0.17158328 0.24122451 0.93601727
v 0.40776971 0.09636578 0.90080625
v 0.30828553 0.12232833 0.92324829
v 0.19625510 0.13724706 1.02625883
v 0.17738755 0.05237966 1.06851852
v 0.78132308 0.13422358 0.76376474
v 0.54574651 0.26530805 0.88894469
v 0.67316616 0.21090071 0.83403778
v 0.67344528 0.04693499 0.85201144
v 0.56662995 0.03416168 0.86835778
v 0.13128234 0.44809237 0.97981751
v 0.13913687 0.18855265 1.04155457
v 0.13940027 0.31781343 1.02702558
v 0.27765152 0.42728516 0.97285515
v 0.40697530 0.35916030 0.96069759
v 0.43480876 0.05446840 0.98257583
v 0.42414674 0.20864782 0.96747839
v 0.28105861 0.15152265 1.02043819
v -0.61560792 0.58160520 0.23597986
v -0.42819896 0.57493168 0.45289782
v -0.48816407 0.58229387 0.37670180
v -0.62751681 0.48616147 0.32358715
v -0.70342469 0.39118716 0.40851814
v -0.19121321 0.41053197 0.79958260
v -0.43987808 0.30462536 0.76287103
v -0.30594549 0.37320116 0.78727210
v -0.25269079 0.47706008 0.69596606
v -0.35116652 0.53851724 0.58859152
v -0.75828803 0.04289564 0.59256899
v -0.73489869 0.26757357 0.48389548
v -0.74252385 0.15932861 0.53438628
v -0.66389436 0.11415143 0.67263395
v -0.56082416 0.19705360 0.74088341
v -0.49661854 0.49324724 0.57009345
v -0.52316636 0.34569955 0.65250778
v -0.63813156 0.37633154 0.55543083
v -0.21316059 0.33968168 -0.79745770
v -0.34830332 0.51780319 -0.59240079
v -0.29302156 0.43436304 -0.71802503
v -0.38627467 0.29590249 -0.77081591
v -0.48887229 0.32674643 -0.75219047
v -0.55349046 0.63059491 -0.18097842
v -0.69608939 0.45356199 -0.36177576
v -0.64016670 0.55330265 -0.26779032
v -0.52241015 0.62037724 -0.32413173
v -0.42364097 0.61978912 -0.44909978
v -0.80414140 0.07906253 -0.58084387
v -0.60970026 0.25787669 -0.70149547
v -0.71517855 0.16603062 -0.63819343
v -0.78301895 0.17042036 -0.50526637
v -0.77941161 0.30829909 -0.45631197
v -0.49142528 0.49551335 -0.55987793
v -0.66294706 0.43177271 -0.50513309
v -0.59916544 0.37565181 -0.62589329
v 0.77184707 0.11464155 -0.75373179
v 0.52683383 0.08105139 -0.88874429
v 0.65677184 0.03860490 -0.84250623
v 0.66361338 0.16630544 -0.84106302
v 0.54341656 0.23406678 -0.89825070
v 0.09755535 0.15605278 -0.91978067
v 0.15463407 0.03399839 -1.05996394
v 0.14167275 0.06748798 -0.97362840
v 0.23469284 0.13568336 -0.93366641
v 0.36726791 0.07816228 -0.93979454
v 0.14262959 0.41765583 -0.96342772
v 0.41492879 0.29166785 -0.95567870
v 0.28694299 0.36325020 -0.96506453
v 0.15341887 0.29488158 -1.02740777
v 0.16597448 0.17371902 -1.07984388
v 0.41534603 0.00673998 -0.99461871
v 0.30118990 0.09869204 -1.07067466
v 0.43968028 0.16085327 -0.98878843
v 0.97999549 0.27464694 0.38997442
v 1.05415821 0.29474765 0.08582097
v 1.02742350 0.29723564 0.23738883
v 0.96054393 0.40594509 0.33237523
v 0.91347259 0.52283829 0.24995545
v 0.99255633 0.25477999 -0.38569033
v 0.91692436 0.49097115 -0.26467615
v 0.97239286 0.38374290 -0.32145011
v 1.01804471 0.28299427 -0.24105038
v 1.03949559 0.29714397 -0.09475527
v 0.65473223 0.74658018 -0.01297102
v 0.83478838 0.62861001 0.15835258
v 0.75217521 0.70167637 0.07701758
v 0.75152880 0.68950754 -0.08702069
v 0.84580046 0.59991789 -0.16127153
v 1.01880181 0.41236711 0.01101836
v 0.94429392 0.51422036 -0.09218116
v 0.93477535 0.53988856 0.08193550
f 330 87 329
f 336 325 26
f 207 208 56
f 464 36 580
f 502 129 504
f 157 624 622
f 308 311 82
f 247 223 248
f 507 483 508
f 331 88 329
f 494 500 497
f 156 601 602
f 591 589 592
f 365 98 596
f 75 281 282
f 152 587 577
f 149 559 560
f 555 121 553
f 530 141 529
f 515 517 139
f 361 594 98
f 250 67 249
f 157 608 609
f 294 293 209
f 317 81 316
f 557 338 26
f 303 305 81
f 530 529 528
f 101 381 382
f 415 418 111
f 192 184 50
f 412 110 411
f 20 384 256
f 131 594 486
f 281 264 282
f 347 287 348
f 28 349 582
f 165 163 1
f 248 250 66
f 617 107 398
f 273 271 274
f 456 115 453
f 558 561 560
f 335 576 91
f 331 177 332
f 116 433 436
f 351 370 92
f 136 511 530
f 239 240 65
f 247 258 19
f 304 23 567
f 148 557 570
f 214 208 58
f 440 426 450
f 268 270 269
f 258 247 268
f 204 202 16
f 466 125 465
f 517 513 133
f 168 275 274
f 275 73 274
f 198 193 53
f 309 308 307
f 510 511 136
f 415 416 110
f 131 490 597
f 473 475 474
f 414 415 111
f 493 495 494
f 496 504 485
f 433 116 432
f 600 375 601
f 240 234 65
f 418 415 412
f 486 361 3
f 567 566 304
f 380 393 29
f 17 199 197
f 491 492 132
f 451 449 435
f 218 217 216
f 623 621 613
f 396 104 395
f 433 439 436
f 628 160 627
f 215 202 217
f 209 207 2
f 427 113 424
f 434 10 544
f 434 433 432
f 199 17 210
f 150 564 565
f 489 491 132
f 275 13 285
f 497 500 134
f 125 466 476
f 578 152 577
f 208 214 211
f 328 88 343
f 356 27 603
f 150 566 567
f 372 100 371
f 190 191 47
f 235 8 398
f 260 261 72
f 422 403 414
f 422 414 111
f 453 454 123
f 349 583 582
f 521 520 519
f 425 453 115
f 616 622 158
f 483 130 508
f 151 586 572
f 212 17 232
f 400 397 402
f 377 396 99
f 41 522 511
f 510 508 505
f 549 547 42
f 475 473 36
f 510 137 509
f 222 221 197
f 430 115 429
f 220 194 1
f 305 54 204
f 621 29 613
f 192 171 184
f 460 335 5
f 88 331 332
f 74 277 279
f 300 301 80
f 390 389 388
f 165 45 164
f 146 549 551
f 291 278 75
f 448 120 445
f 147 543 544
f 607 610 609
f 603 602 356
f 139 529 514
f 333 553 443
f 92 368 347
f 261 260 259
f 300 6 200
f 46 177 331
f 284 283 174
f 301 300 200
f 471 468 474
f 54 305 301
f 302 304 303
f 569 150 567
f 150 569 570
f 294 209 2
f 628 629 160
f 548 543 147
f 147 625 627
f 63 233 234
f 426 427 114
f 41 509 532
f 198 52 196
f 614 105 612
f 147 627 547
f 81 305 306
f 549 548 547
f 54 301 200
f 342 88 332
f 264 281 70
f 193 194 53
f 455 429 456
f 187 321 14
f 479 130 484
f 147 544 625
f 458 456 453
f 304 80 303
f 314 84 313
f 488 503 501
f 321 332 14
f 423 425 424
f 305 204 306
f 341 339 25
f 514 40 516
f 625 628 627
f 340 339 341
f 105 614 391
f 243 228 62
f 318 316 78
f 75 278 279
f 357 355 353
f 238 257 63
f 466 455 476
f 425 423 4
f 448 449 120
f 408 638 108
f 292 275 285
f 22 278 289
f 515 513 517
f 501 503 134
f 622 623 158
f 134 503 504
f 195 216 206
f 163 271 246
f 619 617 620
f 62 228 229
f 163 165 164
f 453 425 454
f 489 132 488
f 82 628 625
f 58 208 209
f 525 608 40
f 626 547 627
f 518 517 498
f 489 487 491
f 557 26 564
f 325 336 344
f 541 145 539
f 40 616 516
f 338 556 89
f 250 248 245
f 139 514 515
f 98 594 596
f 246 220 1
f 112 413 630
f 9 536 413
f 156 600 601
f 332 177 14
f 321 342 332
f 156 606 600
f 584 330 585
f 302 303 81
f 584 87 330
f 330 25 585
f 400 239 65
f 439 440 117
f 95 358 368
f 597 594 131
f 594 361 486
f 246 67 245
f 561 562 149
f 28 364 362
f 55 216 217
f 427 430 114
f 267 20 254
f 556 555 553
f 84 309 558
f 311 310 312
f 609 525 142
f 256 68 255
f 124 460 461
f 82 311 312
f 307 308 82
f 589 135 495
f 527 40 514
f 112 418 412
f 20 256 254
f 258 238 19
f 267 254 269
f 273 272 249
f 392 391 393
f 137 533 509
f 122 455 456
f 9 413 411
f 130 480 505
f 333 443 5
f 527 525 40
f 589 495 385
f 39 496 485
f 223 225 224
f 414 416 415
f 219 222 53
f 145 538 539
f 413 412 411
f 469 468 467
f 183 181 6
f 191 192 50
f 429 35 431
f 292 285 76
f 413 112 412
f 415 110 412
f 43 164 167
f 467 468 126
f 617 101 620
f 450 451 117
f 438 546 545
f 619 620 159
f 17 212 210
f 124 579 576
f 584 153 583
f 460 124 576
f 3 469 467
f 311 308 314
f 6 320 183
f 389 104 388
f 251 250 249
f 194 165 1
f 291 289 278
f 287 77 348
f 238 258 257
f 139 517 518
f 238 236 19
f 223 247 19
f 382 380 29
f 39 518 498
f 361 359 3
f 69 255 257
f 139 518 528
f 33 545 535
f 387 385 7
f 69 268 269
f 477 462 125
f 454 479 123
f 121 555 447
f 451 435 117
f 454 425 4
f 233 252 8
f 124 463 464
f 69 258 268
f 168 167 166
f 583 153 582
f 384 394 102
f 138 512 513
f 57 210 211
f 254 256 255
f 607 609 142
f 324 319 86
f 289 291 76
f 291 292 76
f 384 102 383
f 422 421 420
f 221 17 197
f 383 102 381
f 376 377 99
f 99 373 374
f 386 105 392
f 438 33 440
f 90 341 343
f 281 75 279
f 574 571 96
f 628 82 312
f 221 222 59
f 127 471 474
f 595 605 603
f 551 538 145
f 334 91 340
f 322 324 85
f 305 303 301
f 18 239 399
f 306 204 16
f 199 198 197
f 166 190 180
f 303 80 301
f 267 266 265
f 626 42 547
f 16 215 213
f 349 351 350
f 295 16 213
f 68 379 252
f 250 251 66
f 627 160 626
f 383 68 256
f 343 88 342
f 507 508 136
f 202 215 16
f 197 198 53
f 254 69 269
f 603 605 156
f 418 419 111
f 384 383 256
f 455 122 476
f 203 204 54
f 556 557 148
f 255 68 253
f 313 84 560
f 25 328 341
f 254 255 69
f 603 156 602
f 581 584 583
f 630 632 112
f 163 246 1
f 246 245 220
f 432 116 558
f 499 591 590
f 320 563 86
f 345 93 350
f 306 16 295
f 346 93 345
f 562 568 149
f 604 605 155
f 154 592 593
f 545 552 535
f 511 522 530
f 574 573 571
f 566 150 565
f 361 98 360
f 67 271 273
f 234 235 65
f 208 211 56
f 574 151 573
f 251 270 66
f 398 8 378
f 213 215 214
f 438 440 439
f 315 314 313
f 263 71 262
f 20 373 384
f 496 134 504
f 329 88 328
f 81 306 316
f 555 556 148
f 592 589 103
f 617 619 107
f 227 207 56
f 571 359 96
f 446 466 465
f 206 216 55
f 359 571 469
f 568 148 570
f 34 437 435
f 28 351 349
f 21 272 282
f 113 423 424
f 490 489 488
f 379 68 383
f 210 212 211
f 80 563 300
f 351 92 350
f 326 346 12
f 83 317 318
f 555 148 554
f 212 231 56
f 218 57 217
f 271 67 246
f 195 196 52
f 270 268 66
f 390 592 103
f 148 568 554
f 495 493 7
f 592 390 593
f 357 95 355
f 574 575 151
f 452 120 451
f 154 591 592
f 587 585 577
f 395 394 396
f 93 349 350
f 610 416 611
f 166 44 190
f 315 23 302
f 315 302 317
f 268 247 66
f 606 154 593
f 396 394 99
f 211 212 56
f 370 369 368
f 235 397 65
f 280 278 22
f 83 315 317
f 575 588 151
f 74 279 280
f 385 495 7
f 63 257 253
f 397 235 398
f 214 58 213
f 220 219 194
f 546 146 545
f 236 225 19
f 599 94 602
f 235 233 8
f 102 394 395
f 611 416 32
f 225 223 19
f 139 528 529
f 231 62 229
f 419 406 421
f 451 450 452
f 49 182 185
f 402 397 107
f 52 199 218
f 416 610 110
f 225 236 244
f 107 397 398
f 68 252 253
f 322 85 321
f 182 181 183
f 118 438 439
f 546 438 118
f 348 77 345
f 543 546 118
f 231 212 232
f 610 611 157
f 33 438 545
f 385 386 103
f 479 480 130
f 169 195 15
f 93 583 349
f 15 195 206
f 190 44 192
f 247 248 66
f 146 552 545
f 248 60 245
f 570 557 564
f 274 271 43
f 63 253 233
f 272 21 249
f 507 528 518
f 67 273 249
f 487 467 126
f 196 195 169
f 624 159 623
f 134 496 497
f 132 503 488
f 104 393 395
f 556 553 89
f 355 356 94
f 258 69 257
f 229 61 227
f 56 231 227
f 460 576 335
f 463 124 461
f 394 373 99
f 29 393 391
f 67 250 245
f 193 198 196
f 462 36 464
f 144 633 630
f 141 526 527
f 517 133 498
f 536 144 630
f 100 372 599
f 144 536 537
f 22 289 287
f 578 579 152
f 579 578 576
f 189 188 187
f 60 223 224
f 92 348 350
f 555 554 447
f 396 377 388
f 194 193 165
f 413 536 630
f 372 352 599
f 377 376 375
f 348 345 350
f 105 386 387
f 240 237 234
f 463 462 464
f 135 500 494
f 45 196 169
f 512 612 387
f 245 60 220
f 429 115 456
f 223 60 248
f 288 289 76
f 525 526 142
f 100 599 601
f 613 29 391
f 526 523 520
f 341 328 343
f 631 641 639
f 264 21 282
f 266 72 265
f 106 402 403
f 73 273 274
f 186 206 205
f 381 379 383
f 52 216 195
f 410 18 399
f 290 272 73
f 72 371 374
f 526 525 527
f 115 430 424
f 498 497 496
f 621 382 29
f 543 118 434
f 214 215 57
f 522 141 530
f 511 510 509
f 352 94 599
f 493 512 7
f 90 340 341
f 169 171 170
f 605 604 606
f 219 60 224
f 104 389 392
f 359 469 3
f 186 49 185
f 222 219 224
f 166 167 44
f 428 427 426
f 523 522 524
f 129 502 481
f 50 185 188
f 164 45 170
f 425 115 424
f 33 428 426
f 427 428 113
f 94 356 602
f 515 138 513
f 114 431 452
f 237 236 238
f 215 217 57
f 95 354 355
f 220 60 219
f 515 514 516
f 183 320 319
f 222 197 53
f 559 569 567
f 300 320 6
f 435 436 117
f 96 360 363
f 640 642 641
f 242 243 62
f 140 537 519
f 508 130 505
f 420 410 399
f 537 539 144
f 317 316 318
f 426 114 450
f 186 15 206
f 311 83 310
f 625 544 307
f 544 10 307
f 168 43 167
f 185 182 188
f 369 354 95
f 44 171 192
f 605 606 156
f 548 549 146
f 100 601 375
f 149 568 569
f 381 380 382
f 455 466 35
f 480 479 454
f 543 548 546
f 493 133 513
f 492 472 37
f 477 125 476
f 491 487 126
f 337 336 338
f 588 153 587
f 576 578 91
f 633 161 632
f 96 359 360
f 39 485 483
f 101 617 378
f 193 45 165
f 163 164 43
f 618 624 611
f 507 136 528
f 561 149 560
f 641 162 639
f 116 561 558
f 494 133 493
f 253 252 233
f 63 237 238
f 392 393 104
f 440 450 117
f 93 581 583
f 386 385 387
f 120 449 451
f 421 422 111
f 486 3 467
f 302 81 317
f 633 632 630
f 462 475 36
f 376 99 374
f 489 490 131
f 447 449 448
f 387 612 105
f 106 420 399
f 173 46 172
f 492 491 472
f 316 306 295
f 22 287 347
f 109 410 420
f 507 39 483
f 559 23 313
f 214 57 211
f 196 45 193
f 10 434 432
f 422 106 403
f 626 160 640
f 487 486 467
f 542 41 532
f 400 106 399
f 444 120 452
f 198 199 52
f 475 127 474
f 621 620 382
f 621 623 159
f 450 114 452
f 92 347 348
f 376 100 375
f 434 118 433
f 503 132 502
f 337 90 336
f 537 536 519
f 395 393 380
f 201 54 200
f 171 44 170
f 355 94 353
f 58 296 213
f 422 420 106
f 595 365 596
f 569 568 570
f 523 140 520
f 114 430 431
f 218 210 57
f 304 566 80
f 639 162 638
f 261 371 72
f 548 147 547
f 498 133 497
f 150 570 564
f 222 224 59
f 142 526 520
f 437 436 435
f 141 522 523
f 137 510 505
f 173 179 176
f 559 149 569
f 121 447 448
f 563 320 300
f 102 395 380
f 257 255 253
f 642 162 641
f 83 311 314
f 216 52 218
f 512 493 513
f 23 304 302
f 91 339 340
f 512 138 612
f 159 620 621
f 218 199 210
f 364 28 575
f 83 318 310
f 168 274 43
f 136 530 528
f 140 523 524
f 495 135 494
f 233 235 234
f 566 563 80
f 25 339 577
f 277 74 276
f 475 462 477
f 133 494 497
f 436 437 116
f 389 386 392
f 548 146 546
f 441 460 5
f 10 309 307
f 65 397 400
f 543 434 544
f 640 641 161
f 272 273 73
f 581 93 346
f 419 421 111
f 319 320 86
f 180 179 178
f 127 475 477
f 231 229 227
f 337 334 340
f 136 508 510
f 308 309 84
f 237 63 234
f 447 554 34
f 252 379 378
f 315 83 314
f 608 622 616
f 338 336 26
f 337 338 89
f 13 275 168
f 209 208 207
f 436 439 117
f 628 312 629
f 360 366 363
f 364 574 96
f 359 361 360
f 466 446 35
f 500 501 134
f 406 109 421
f 135 589 591
f 601 599 602
f 340 90 337
f 481 492 37
f 522 41 524
f 78 316 295
f 131 486 487
f 403 32 414
f 634 626 640
f 151 572 573
f 515 516 138
f 8 252 378
f 265 72 374
f 9 521 519
f 538 549 42
f 368 358 347
f 588 587 586
f 458 453 123
f 589 385 103
f 502 492 481
f 32 416 414
f 430 427 424
f 153 585 587
f 540 144 539
f 370 368 92
f 209 293 58
f 428 33 535
f 326 581 346
f 625 307 82
f 575 28 582
f 6 181 200
f 421 109 420
f 553 121 443
f 160 642 640
f 153 584 585
f 309 432 558
f 334 337 89
f 23 315 313
f 271 163 43
f 296 295 213
f 39 498 496
f 118 439 433
f 531 113 534
f 293 296 58
f 28 362 351
f 489 131 487
f 431 444 452
f 84 558 560
f 98 366 360
f 45 169 170
f 379 101 378
f 462 463 125
f 308 84 314
f 10 432 309
f 299 24 310
f 132 492 502
f 512 387 7
f 639 638 408
f 565 323 86
f 59 244 242
f 106 400 402
f 440 33 426
f 566 565 563
f 617 398 378
f 224 225 59
f 410 109 409
f 239 400 399
f 194 219 53
f 358 22 347
f 610 157 609
f 27 595 603
f 479 484 482
f 142 520 521
f 585 25 577
f 339 578 577
f 408 407 406
f 407 109 406
f 31 408 406
f 407 408 108
f 31 639 408
f 419 31 406
f 608 616 40
f 430 429 431
f 455 35 429
f 35 444 431
f 188 51 187
f 188 182 51
f 51 322 187
f 322 51 319
f 51 182 183
f 319 51 183
f 187 322 321
f 322 319 324
f 381 101 379
f 405 407 108
f 404 405 108
f 286 285 178
f 407 405 409
f 109 407 409
f 191 175 47
f 167 164 170
f 50 184 185
f 44 167 170
f 64 244 236
f 243 244 64
f 50 188 189
f 541 542 145
f 442 445 119
f 339 91 578
f 445 446 119
f 624 623 622
f 611 624 157
f 523 526 141
f 141 527 529
f 527 514 529
f 445 120 444
f 446 445 444
f 35 446 444
f 613 614 158
f 158 614 615
f 623 613 158
f 614 613 391
f 614 612 615
f 371 376 374
f 100 376 371
f 479 482 123
f 373 394 384
f 540 42 634
f 633 540 634
f 538 42 540
f 633 634 161
f 161 634 640
f 42 626 634
f 540 633 144
f 557 556 338
f 553 333 89
f 262 21 264
f 251 21 262
f 5 335 333
f 270 251 262
f 21 251 249
f 600 593 30
f 606 593 600
f 600 30 375
f 593 390 30
f 30 377 375
f 390 388 30
f 30 388 377
f 228 243 241
f 470 478 459
f 470 127 478
f 127 477 478
f 184 186 185
f 478 477 476
f 122 478 476
f 357 74 280
f 518 39 507
f 344 342 85
f 325 344 85
f 342 344 343
f 85 342 321
f 344 90 343
f 90 344 336
f 482 129 481
f 482 481 457
f 482 457 123
f 481 37 457
f 449 447 34
f 435 449 34
f 470 472 471
f 472 470 37
f 470 471 127
f 472 126 471
f 126 468 471
f 470 459 37
f 491 126 472
f 504 129 485
f 221 59 242
f 125 463 465
f 437 34 562
f 561 437 562
f 554 568 562
f 34 554 562
f 437 561 116
f 390 103 389
f 103 386 389
f 392 105 391
f 572 586 580
f 572 580 36
f 586 152 580
f 473 572 36
f 244 243 242
f 225 244 59
f 64 240 241
f 240 239 241
f 237 240 64
f 243 64 241
f 236 237 64
f 411 607 521
f 9 411 521
f 110 607 411
f 607 142 521
f 610 607 110
f 171 15 184
f 171 169 15
f 15 186 184
f 87 584 581
f 153 588 582
f 588 575 582
f 381 102 380
f 573 572 473
f 468 469 128
f 474 468 128
f 469 571 128
f 571 573 128
f 573 473 128
f 473 474 128
f 564 323 565
f 26 323 564
f 323 324 86
f 325 323 26
f 325 324 323
f 563 565 86
f 324 325 85
f 410 230 18
f 230 228 18
f 18 228 241
f 18 241 239
f 401 619 618
f 401 402 107
f 403 402 401
f 619 159 618
f 401 618 32
f 619 401 107
f 403 401 32
f 618 611 32
f 159 624 618
f 478 122 459
f 122 458 459
f 37 459 457
f 459 458 457
f 122 456 458
f 457 458 123
f 191 190 192
f 485 129 484
f 129 482 484
f 483 485 484
f 130 483 484
f 189 187 14
f 191 50 189
f 191 189 175
f 189 14 175
f 14 177 175
f 499 501 500
f 501 499 38
f 38 499 590
f 135 499 500
f 488 501 38
f 499 135 591
f 480 454 4
f 284 12 346
f 4 423 506
f 480 4 506
f 423 531 506
f 480 506 505
f 531 137 506
f 506 137 505
f 365 366 98
f 71 270 262
f 270 71 269
f 71 267 269
f 335 334 333
f 333 334 89
f 334 335 91
f 536 9 519
f 465 463 461
f 537 140 541
f 520 140 519
f 119 446 465
f 465 461 119
f 461 441 119
f 460 441 461
f 176 46 173
f 299 297 24
f 71 263 266
f 263 260 266
f 260 72 266
f 263 70 260
f 205 201 49
f 201 181 49
f 186 205 49
f 181 201 200
f 181 182 49
f 284 77 283
f 586 587 152
f 588 586 151
f 20 267 265
f 266 267 71
f 31 417 631
f 631 417 632
f 31 631 639
f 417 31 419
f 641 631 161
f 417 112 632
f 161 631 632
f 418 417 419
f 417 418 112
f 284 345 77
f 542 550 145
f 542 541 524
f 284 174 12
f 48 174 283
f 373 20 265
f 373 265 374
f 609 608 525
f 608 157 622
f 560 559 313
f 636 637 162
f 541 140 524
f 41 542 524
f 358 357 280
f 70 263 264
f 263 262 264
f 176 177 46
f 174 48 173
f 174 173 172
f 538 551 549
f 538 540 539
f 537 541 539
f 232 221 242
f 17 221 232
f 232 242 62
f 231 232 62
f 203 205 55
f 203 55 202
f 201 205 203
f 202 55 217
f 205 206 55
f 204 203 202
f 73 275 292
f 292 290 73
f 272 290 282
f 290 292 291
f 75 290 291
f 290 75 282
f 70 277 259
f 277 70 281
f 277 281 279
f 260 70 259
f 12 174 172
f 104 396 388
f 367 27 354
f 365 27 367
f 354 27 356
f 365 367 366
f 595 27 365
f 318 299 310
f 155 596 597
f 155 597 598
f 596 594 597
f 595 596 155
f 605 595 155
f 180 47 179
f 180 190 47
f 352 372 11
f 11 372 261
f 312 310 24
f 642 636 162
f 636 297 637
f 367 369 97
f 366 367 97
f 369 367 354
f 369 370 97
f 580 579 464
f 580 152 579
f 579 124 464
f 61 230 409
f 230 410 409
f 230 61 229
f 230 229 228
f 76 285 286
f 353 352 276
f 74 353 276
f 288 76 286
f 288 286 283
f 289 288 287
f 203 54 201
f 287 288 77
f 77 288 283
f 286 48 283
f 531 423 113
f 276 11 259
f 11 261 259
f 277 276 259
f 616 158 615
f 516 616 615
f 138 516 615
f 138 615 612
f 509 533 532
f 503 502 504
f 635 79 294
f 635 294 404
f 635 637 79
f 637 635 638
f 638 635 108
f 635 404 108
f 226 61 405
f 61 226 227
f 405 61 409
f 227 226 207
f 48 178 179
f 48 286 178
f 173 48 179
f 534 143 533
f 534 535 143
f 531 534 533
f 533 143 532
f 137 531 533
f 261 372 371
f 13 180 178
f 285 13 178
f 180 13 166
f 13 168 166
f 346 345 284
f 331 327 46
f 46 327 172
f 172 327 326
f 382 620 101
f 442 121 448
f 443 121 442
f 2 226 404
f 294 2 404
f 404 226 405
f 207 226 2
f 550 551 145
f 552 146 551
f 143 550 532
f 552 550 143
f 330 329 328
f 24 636 629
f 94 352 353
f 352 11 276
f 113 428 534
f 428 535 534
f 509 41 511
f 535 552 143
f 550 552 551
f 550 542 532
f 369 95 368
f 326 327 87
f 87 327 329
f 327 331 329
f 581 326 87
f 293 79 298
f 79 297 298
f 296 298 78
f 79 293 294
f 296 293 298
f 598 490 38
f 358 280 22
f 280 279 278
f 357 358 95
f 74 357 353
f 330 328 25
f 567 23 559
f 590 598 38
f 590 604 598
f 598 604 155
f 604 590 154
f 590 591 154
f 604 154 606
f 297 299 298
f 299 318 78
f 298 299 78
f 355 354 356
f 629 636 642
f 312 24 629
f 629 642 160
f 370 362 97
f 362 363 97
f 363 366 97
f 364 363 362
f 362 370 351
f 96 363 364
f 297 636 24
f 162 637 638
f 637 297 79
f 490 488 38
f 598 597 490
f 441 442 119
f 443 442 441
f 443 441 5
f 442 448 445
f 296 78 295
f 326 12 172
f 575 574 364
f 47 175 176
f 175 177 176
f 47 176 179
