# FEM surface export ¡ª frame 58
# Vertices: 642  Faces: 1280
v -0.52573103 1.84330451 -0.00000006
v 0.52573097 1.84330475 -0.00000002
v -0.52573174 0.14200318 0.00000004
v 0.52573109 0.14200304 -0.00000004
v 0.00000004 0.46692291 0.85065079
v -0.00000006 1.51838517 0.85065067
v -0.00000004 0.46692294 -0.85065079
v 0.00000000 1.51838505 -0.85065079
v 0.85065085 0.99265397 -0.52573121
v 0.85065079 0.99265397 0.52573109
v -0.85065091 0.99265391 -0.52573109
v -0.85065085 0.99265414 0.52573097
v -0.80901712 1.49265397 0.30901709
v -0.50000006 1.30167115 0.80901718
v -0.30901700 1.80167103 0.50000000
v 0.30901691 1.80167091 0.49999994
v 0.00000005 1.99265397 0.00000004
v 0.30901709 1.80167091 -0.50000000
v -0.30901700 1.80167115 -0.49999997
v -0.50000000 1.30167103 -0.80901700
v -0.80901700 1.49265397 -0.30901706
v -1.00000000 0.99265397 0.00000003
v 0.49999982 1.30167091 0.80901700
v 0.80901706 1.49265385 0.30901697
v -0.50000000 0.68363696 0.80901700
v 0.00000012 0.99265397 1.00000000
v -0.80901700 0.49265406 -0.30901703
v -0.80901700 0.49265394 0.30901703
v -0.00000010 0.99265414 -1.00000000
v -0.50000018 0.68363702 -0.80901706
v 0.80901700 1.49265397 -0.30901694
v 0.50000000 1.30167103 -0.80901700
v 0.80901700 0.49265403 0.30901700
v 0.50000006 0.68363702 0.80901694
v 0.30901694 0.18363704 0.50000000
v -0.30901706 0.18363695 0.49999988
v 0.00030239 0.00000000 -0.00023592
v -0.30901721 0.18363708 -0.50000012
v 0.30901709 0.18363702 -0.50000012
v 0.50000006 0.68363696 -0.80901700
v 0.80901700 0.49265403 -0.30901700
v 1.00000000 0.99265397 -0.00000003
v -0.69378042 1.69470036 0.16062200
v -0.58778524 1.68084490 0.42532533
v -0.43388870 1.85532260 0.25989199
v -0.70204645 1.15327609 0.69378042
v -0.68819106 1.41797936 0.58778530
v -0.86266845 1.25254583 0.43388864
v -0.16062203 1.68643451 0.70204657
v -0.42532536 1.58043933 0.68819094
v -0.25989187 1.42654252 0.86266857
v -0.16245998 1.94371057 0.26286566
v -0.27326652 1.95459247 -0.00000001
v 0.16062205 1.68643439 0.70204633
v 0.00000001 1.84330475 0.52573109
v 0.27326649 1.95459247 0.00000009
v 0.16245979 1.94371045 0.26286536
v 0.43388861 1.85532260 0.25989199
v -0.16245988 1.94371045 -0.26286563
v -0.43388867 1.85532236 -0.25989181
v 0.43388858 1.85532224 -0.25989217
v 0.16245979 1.94371045 -0.26286554
v -0.16062191 1.68643451 -0.70204645
v -0.00000010 1.84330463 -0.52573109
v 0.16062206 1.68643463 -0.70204645
v -0.58778524 1.68084490 -0.42532539
v -0.69378048 1.69470036 -0.16062202
v -0.25989193 1.42654252 -0.86266845
v -0.42532536 1.58043909 -0.68819094
v -0.86266845 1.25254595 -0.43388855
v -0.68819094 1.41797948 -0.58778536
v -0.70204645 1.15327597 -0.69378048
v -0.85065073 1.51838529 0.00000007
v -0.96193838 0.99265391 -0.27326655
v -0.95105666 1.25551951 -0.16245990
v -0.95105654 1.25551963 0.16245987
v -0.96193838 0.99265397 0.27326652
v 0.58778524 1.68084490 0.42532539
v 0.69378036 1.69470036 0.16062194
v 0.25989193 1.42654264 0.86266845
v 0.42532539 1.58043897 0.68819088
v 0.86266840 1.25254583 0.43388841
v 0.68819094 1.41797936 0.58778530
v 0.70204645 1.15327597 0.69378048
v -0.26286554 1.15511382 0.95105654
v -0.00000000 1.26592064 0.96193838
v -0.70204645 0.83203202 0.69378048
v -0.52573121 0.99265403 0.85065079
v 0.00000008 0.71938753 0.96193838
v -0.26286554 0.83019418 0.95105654
v -0.25989193 0.55876553 0.86266845
v -0.95105654 0.72978842 0.16245984
v -0.86266845 0.73276210 0.43388855
v -0.86266845 0.73276192 -0.43388855
v -0.95105654 0.72978842 -0.16245991
v -0.69378048 0.29060757 0.16062203
v -0.85065079 0.46692285 -0.00000005
v -0.69378054 0.29060757 -0.16062203
v -0.52573103 0.99265403 -0.85065079
v -0.70204645 0.83203202 -0.69378048
v -0.00000002 1.26592064 -0.96193838
v -0.26286554 1.15511394 -0.95105654
v -0.25989193 0.55876547 -0.86266845
v -0.26286554 0.83019435 -0.95105654
v 0.00000001 0.71938765 -0.96193838
v 0.42532536 1.58043909 -0.68819094
v 0.25989190 1.42654252 -0.86266845
v 0.69378048 1.69470036 -0.16062208
v 0.58778524 1.68084490 -0.42532539
v 0.70204645 1.15327609 -0.69378036
v 0.68819088 1.41797948 -0.58778530
v 0.86266845 1.25254583 -0.43388855
v 0.69378054 0.29060757 0.16062211
v 0.58778530 0.30446315 0.42532524
v 0.43388999 0.12998264 0.25989199
v 0.70204645 0.83203202 0.69378048
v 0.68819094 0.56732863 0.58778524
v 0.86266845 0.73276210 0.43388855
v 0.16062205 0.29887354 0.70204645
v 0.42532539 0.40486875 0.68819094
v 0.25989193 0.55876547 0.86266845
v 0.16250552 0.04154981 0.26301369
v 0.27320078 0.03067831 -0.00000999
v -0.16062205 0.29887354 0.70204645
v 0.00000003 0.14200307 0.52573115
v -0.27334362 0.03071278 0.00002452
v -0.16242029 0.04153390 0.26287597
v -0.43388808 0.12998497 0.25989282
v 0.16250210 0.04155742 -0.26296136
v 0.43388814 0.12998678 -0.25988677
v -0.43388879 0.12998521 -0.25989228
v -0.16250664 0.04158770 -0.26293284
v 0.16062202 0.29887354 -0.70204645
v -0.00000016 0.14200316 -0.52573109
v -0.16062200 0.29887357 -0.70204645
v 0.58778524 0.30446306 -0.42532533
v 0.69378048 0.29060751 -0.16062203
v 0.25989190 0.55876547 -0.86266845
v 0.42532539 0.40486875 -0.68819100
v 0.86266851 0.73276222 -0.43388844
v 0.68819094 0.56732857 -0.58778524
v 0.70204645 0.83203202 -0.69378048
v 0.85065079 0.46692279 0.00000008
v 0.96193838 0.99265397 -0.27326658
v 0.95105654 0.72978830 -0.16245982
v 0.95105654 0.72978848 0.16245978
v 0.96193838 0.99265409 0.27326640
v 0.26286557 0.83019418 0.95105654
v 0.52573109 0.99265397 0.85065079
v 0.26286554 1.15511405 0.95105648
v -0.58778524 0.30446312 0.42532539
v -0.42532539 0.40486866 0.68819094
v -0.68819094 0.56732863 0.58778524
v -0.42532539 0.40486884 -0.68819094
v -0.58778524 0.30446306 -0.42532536
v -0.68819094 0.56732863 -0.58778524
v 0.52573103 0.99265397 -0.85065079
v 0.26286545 0.83019418 -0.95105654
v 0.26286551 1.15511382 -0.95105654
v 0.95105654 1.25551963 0.16245982
v 0.95105654 1.25551951 -0.16245981
v 0.85065109 1.51838505 0.00000003
v -0.61564201 1.77649689 0.08108628
v -0.57125163 1.78530312 0.21302281
v -0.48444182 1.85758340 0.13120034
v -0.70710677 1.59415483 0.37174806
v -0.64741188 1.69496381 0.29600465
v -0.75865233 1.59947908 0.23708634
v -0.37503844 1.83656561 0.38361374
v -0.51612175 1.77610552 0.34615308
v -0.45399052 1.75058937 0.46842980
v -0.78384304 1.07374024 0.61564201
v -0.79264921 1.20567667 0.57125163
v -0.86492932 1.12385440 0.48444179
v -0.60150093 1.36440206 0.70710677
v -0.70230985 1.28865862 0.64741188
v -0.60682517 1.22974038 0.75865233
v -0.84391153 1.37626755 0.37503865
v -0.78345168 1.33880699 0.51612163
v -0.75793552 1.46108377 0.45399052
v -0.08108630 1.60829592 0.78384292
v -0.21302275 1.56390560 0.79264921
v -0.13120033 1.47709560 0.86492938
v -0.37174806 1.69976091 0.60150099
v -0.29600441 1.64006579 0.70230985
v -0.23708615 1.75130641 0.60682517
v -0.38361388 1.36769259 0.84391147
v -0.34615305 1.50877559 0.78345168
v -0.46842986 1.44664443 0.75793540
v -0.64657778 1.55690801 0.51337546
v -0.56425411 1.50602949 0.64657778
v -0.51337546 1.63923180 0.56425422
v -0.35822892 1.91695881 0.13165528
v -0.40335551 1.90769768 -0.00000001
v -0.23867702 1.88366044 0.38618743
v -0.30125889 1.90889812 0.26408288
v -0.13795216 1.98309290 -0.00000005
v -0.22011714 1.95904672 0.13279246
v -0.08224254 1.98034263 0.13307112
v 0.08108632 1.60829616 0.78384304
v 0.00000002 1.69556105 0.71128160
v 0.15643446 1.83283186 0.51925850
v 0.08114190 1.77285838 0.62023950
v 0.23708630 1.75130618 0.60682517
v -0.08114178 1.77285838 0.62023956
v -0.15643455 1.83283174 0.51925850
v 0.40335536 1.90769756 0.00000009
v 0.35822874 1.91695869 0.13165531
v 0.48444152 1.85758328 0.13120025
v 0.08224242 1.98034239 0.13307118
v 0.22011703 1.95904672 0.13279249
v 0.13795227 1.98309278 -0.00000001
v 0.37503856 1.83656549 0.38361382
v 0.30125895 1.90889812 0.26408267
v 0.23867688 1.88366055 0.38618737
v -0.08232356 1.90563643 0.39960721
v 0.08232370 1.90563655 0.39960706
v 0.00000018 1.95651531 0.26640469
v -0.35822880 1.91695869 -0.13165529
v -0.48444167 1.85758317 -0.13120034
v -0.08224257 1.98034227 -0.13307102
v -0.22011705 1.95904660 -0.13279246
v -0.37503868 1.83656538 -0.38361380
v -0.30125883 1.90889812 -0.26408273
v -0.23867686 1.88366079 -0.38618740
v 0.48444179 1.85758317 -0.13120033
v 0.35822871 1.91695845 -0.13165522
v 0.23867694 1.88366067 -0.38618737
v 0.30125889 1.90889823 -0.26408264
v 0.37503844 1.83656549 -0.38361374
v 0.22011699 1.95904672 -0.13279249
v 0.08224257 1.98034263 -0.13307115
v -0.08108640 1.60829592 -0.78384310
v 0.00000003 1.69556093 -0.71128172
v 0.08108627 1.60829604 -0.78384304
v -0.15643452 1.83283186 -0.51925850
v -0.08114182 1.77285838 -0.62023956
v -0.23708640 1.75130630 -0.60682517
v 0.23708628 1.75130618 -0.60682523
v 0.08114189 1.77285850 -0.62023973
v 0.15643439 1.83283186 -0.51925850
v -0.00000003 1.95651519 -0.26640463
v 0.08232359 1.90563643 -0.39960685
v -0.08232364 1.90563655 -0.39960685
v -0.57125163 1.78530312 -0.21302290
v -0.61564207 1.77649701 -0.08108626
v -0.45399046 1.75058937 -0.46842986
v -0.51612163 1.77610564 -0.34615299
v -0.75865233 1.59947908 -0.23708636
v -0.64741188 1.69496393 -0.29600441
v -0.70710677 1.59415495 -0.37174809
v -0.13120042 1.47709560 -0.86492920
v -0.21302272 1.56390560 -0.79264951
v -0.46842989 1.44664443 -0.75793546
v -0.34615296 1.50877559 -0.78345156
v -0.38361368 1.36769271 -0.84391165
v -0.29600462 1.64006615 -0.70230985
v -0.37174818 1.69976079 -0.60150093
v -0.86492932 1.12385440 -0.48444155
v -0.79264921 1.20567667 -0.57125163
v -0.78384304 1.07374024 -0.61564201
v -0.75793540 1.46108377 -0.45399061
v -0.78345180 1.33880711 -0.51612145
v -0.84391159 1.37626767 -0.37503856
v -0.60682517 1.22974038 -0.75865239
v -0.70230985 1.28865874 -0.64741200
v -0.60150093 1.36440217 -0.70710677
v -0.51337546 1.63923180 -0.56425422
v -0.56425422 1.50602949 -0.64657778
v -0.64657778 1.55690813 -0.51337546
v -0.70290685 1.70393574 0.00000008
v -0.84017789 1.51191247 -0.15643448
v -0.78020436 1.61289382 -0.08114187
v -0.78020436 1.61289358 0.08114193
v -0.84017777 1.51191258 0.15643436
v -0.91504341 0.99265391 -0.40335533
v -0.92430460 1.12430930 -0.35822874
v -0.98768836 1.12572515 -0.08224249
v -0.96639258 1.12544644 -0.22011705
v -0.99043888 0.99265391 -0.13795224
v -0.91624415 1.25673676 -0.30125886
v -0.89100653 1.37884140 -0.23867683
v -0.92430460 1.12430930 0.35822883
v -0.91504341 0.99265391 0.40335533
v -0.89100659 1.37884140 0.23867711
v -0.91624415 1.25673687 0.30125883
v -0.99043894 0.99265385 0.13795225
v -0.96639252 1.12544656 0.22011703
v -0.98768836 1.12572503 0.08224249
v -0.91298246 1.39226115 -0.08232352
v -0.96386129 1.25905883 -0.00000001
v -0.91298246 1.39226115 0.08232360
v 0.57125145 1.78530324 0.21302271
v 0.61564195 1.77649689 0.08108632
v 0.45399052 1.75058925 0.46842986
v 0.51612175 1.77610564 0.34615287
v 0.75865227 1.59947908 0.23708643
v 0.64741188 1.69496369 0.29600462
v 0.70710659 1.59415495 0.37174809
v 0.13120043 1.47709596 0.86492920
v 0.21302302 1.56390572 0.79264921
v 0.46842986 1.44664454 0.75793540
v 0.34615293 1.50877595 0.78345168
v 0.38361371 1.36769259 0.84391147
v 0.29600462 1.64006591 0.70230985
v 0.37174797 1.69976079 0.60150093
v 0.86492938 1.12385428 0.48444179
v 0.79264909 1.20567679 0.57125163
v 0.78384304 1.07374024 0.61564195
v 0.75793540 1.46108389 0.45399049
v 0.78345168 1.33880699 0.51612163
v 0.84391147 1.37626779 0.37503859
v 0.60682529 1.22974038 0.75865233
v 0.70230985 1.28865862 0.64741188
v 0.60150093 1.36440206 0.70710677
v 0.51337546 1.63923168 0.56425416
v 0.56425411 1.50602949 0.64657778
v 0.64657772 1.55690801 0.51337534
v -0.13165547 1.35088289 0.92430460
v 0.00000004 1.39600921 0.91504341
v -0.38618752 1.23133087 0.89100653
v -0.26408273 1.29391277 0.91624415
v -0.00000005 1.13060617 0.99043888
v -0.13279246 1.21277106 0.96639258
v -0.13307104 1.07489657 0.98768836
v -0.78384304 0.91156769 0.61564201
v -0.71128166 0.99265391 0.70290703
v -0.51925850 0.83621967 0.84017783
v -0.62023956 0.91151226 0.78020436
v -0.60682517 0.75556779 0.75865233
v -0.62023956 1.07379591 0.78020436
v -0.51925844 1.14908826 0.84017789
v -0.00000001 0.58929873 0.91504341
v -0.13165529 0.63442522 0.92430460
v -0.13120039 0.50821245 0.86492932
v -0.13307108 0.91041148 0.98768836
v -0.13279253 0.77253705 0.96639264
v 0.00000000 0.85470176 0.99043888
v -0.38361377 0.61761558 0.84391147
v -0.26408294 0.69139522 0.91624409
v -0.38618740 0.75397706 0.89100653
v -0.39960706 1.07497752 0.91298258
v -0.39960706 0.91033047 0.91298246
v -0.26640481 0.99265391 0.96386123
v -0.92430460 0.86099863 0.35822880
v -0.86492932 0.86145365 0.48444158
v -0.98768836 0.85958314 0.08224238
v -0.96639264 0.85986173 0.22011703
v -0.84391147 0.60904020 0.37503856
v -0.91624415 0.72857124 0.30125889
v -0.89100653 0.60646665 0.23867695
v -0.86492932 0.86145359 -0.48444164
v -0.92430460 0.86099857 -0.35822889
v -0.89100653 0.60646653 -0.23867701
v -0.91624415 0.72857130 -0.30125889
v -0.84391147 0.60904026 -0.37503856
v -0.96639258 0.85986155 -0.22011702
v -0.98768824 0.85958302 -0.08224248
v -0.61564213 0.20881101 0.08108627
v -0.70290703 0.28137234 0.00000000
v -0.61564201 0.20881096 -0.08108629
v -0.84017789 0.47339553 0.15643449
v -0.78020436 0.37241444 0.08114181
v -0.75865233 0.38582891 0.23708639
v -0.75865233 0.38582879 -0.23708625
v -0.78020436 0.37241441 -0.08114190
v -0.84017789 0.47339550 -0.15643446
v -0.96386129 0.72624934 -0.00000004
v -0.91298246 0.59304696 -0.08232360
v -0.91298246 0.59304696 0.08232354
v -0.71128166 0.99265409 -0.70290715
v -0.78384304 0.91156769 -0.61564201
v -0.51925850 1.14908850 -0.84017789
v -0.62023956 1.07379580 -0.78020436
v -0.60682517 0.75556761 -0.75865233
v -0.62023956 0.91151220 -0.78020436
v -0.51925850 0.83621955 -0.84017789
v 0.00000036 1.39600933 -0.91504323
v -0.13165538 1.35088265 -0.92430466
v -0.13307106 1.07489657 -0.98768836
v -0.13279253 1.21277130 -0.96639258
v -0.00000005 1.13060617 -0.99043888
v -0.26408276 1.29391289 -0.91624409
v -0.38618726 1.23133087 -0.89100665
v -0.13120033 0.50821257 -0.86492932
v -0.13165541 0.63442516 -0.92430460
v 0.00000001 0.58929867 -0.91504335
v -0.38618737 0.75397718 -0.89100653
v -0.26408279 0.69139522 -0.91624403
v -0.38361380 0.61761552 -0.84391147
v 0.00000001 0.85470182 -0.99043882
v -0.13279247 0.77253699 -0.96639258
v -0.13307117 0.91041166 -0.98768836
v -0.39960706 1.07497764 -0.91298246
v -0.26640469 0.99265403 -0.96386141
v -0.39960706 0.91033059 -0.91298246
v 0.21302284 1.56390560 -0.79264921
v 0.13120042 1.47709572 -0.86492932
v 0.37174782 1.69976103 -0.60150093
v 0.29600459 1.64006567 -0.70230985
v 0.38361368 1.36769247 -0.84391153
v 0.34615302 1.50877547 -0.78345168
v 0.46842992 1.44664443 -0.75793540
v 0.61564201 1.77649701 -0.08108621
v 0.57125163 1.78530324 -0.21302298
v 0.70710689 1.59415507 -0.37174797
v 0.64741188 1.69496369 -0.29600447
v 0.75865233 1.59947884 -0.23708621
v 0.51612163 1.77610564 -0.34615302
v 0.45399037 1.75058937 -0.46842980
v 0.78384292 1.07374048 -0.61564183
v 0.79264921 1.20567703 -0.57125163
v 0.86492938 1.12385440 -0.48444161
v 0.60150093 1.36440217 -0.70710677
v 0.70230985 1.28865874 -0.64741188
v 0.60682517 1.22974038 -0.75865233
v 0.84391165 1.37626791 -0.37503847
v 0.78345174 1.33880711 -0.51612163
v 0.75793540 1.46108389 -0.45399046
v 0.51337546 1.63923168 -0.56425422
v 0.64657778 1.55690813 -0.51337546
v 0.56425434 1.50602961 -0.64657766
v 0.61564207 0.20881088 0.08108632
v 0.57125163 0.20000485 0.21302290
v 0.48444408 0.12772304 0.13119994
v 0.70710677 0.39115307 0.37174803
v 0.64741194 0.29034430 0.29600456
v 0.75865233 0.38582897 0.23708628
v 0.37503654 0.14874066 0.38360688
v 0.51612180 0.20920274 0.34615341
v 0.45399052 0.23471852 0.46842986
v 0.78384304 0.91156787 0.61564201
v 0.79264921 0.77963114 0.57125157
v 0.86492926 0.86145365 0.48444158
v 0.60150093 0.62090594 0.70710677
v 0.70230985 0.69664937 0.64741188
v 0.60682529 0.75556767 0.75865233
v 0.84391147 0.60904032 0.37503850
v 0.78345168 0.64650089 0.51612163
v 0.75793540 0.52422416 0.45399049
v 0.08108625 0.37701195 0.78384304
v 0.21302287 0.42140228 0.79264921
v 0.13120031 0.50821245 0.86492932
v 0.37174791 0.28554726 0.60150099
v 0.29600459 0.34524217 0.70230985
v 0.23708634 0.23400173 0.60682517
v 0.38361365 0.61761552 0.84391147
v 0.34615302 0.47653234 0.78345168
v 0.46842977 0.53866351 0.75793540
v 0.64657778 0.42839983 0.51337546
v 0.56425422 0.47927859 0.64657778
v 0.51337546 0.34607616 0.56425422
v 0.35824084 0.06834466 0.13164724
v 0.40334368 0.07760965 0.00000271
v 0.23868918 0.10164328 0.38619578
v 0.30130783 0.07634064 0.26410148
v 0.13734592 0.00293339 -0.00004477
v 0.22024500 0.02625737 0.13288622
v 0.08252702 0.00559037 0.13308272
v -0.08108630 0.37701192 0.78384304
v -0.00000007 0.28974703 0.71128172
v -0.15643457 0.15247628 0.51925856
v -0.08114186 0.21244964 0.62023962
v -0.23708636 0.23400177 0.60682517
v 0.08114196 0.21244958 0.62023956
v 0.15643360 0.15247747 0.51925701
v -0.40336931 0.07760698 -0.00000453
v -0.35827354 0.06833381 0.13164145
v -0.48444438 0.12772547 0.13120022
v -0.08258045 0.00482289 0.13286968
v -0.22023603 0.02620155 0.13295802
v -0.13823943 0.00251283 0.00000234
v -0.37503996 0.14874232 0.38361391
v -0.30126476 0.07640743 0.26409027
v -0.23867659 0.10164497 0.38618860
v 0.08233047 0.07966024 0.39962074
v -0.08232416 0.07966702 0.39961299
v -0.00012094 0.02881140 0.26626462
v 0.35823894 0.06834527 -0.13165452
v 0.48444468 0.12772298 -0.13120219
v 0.08234861 0.00521745 -0.13352041
v 0.22020532 0.02616630 -0.13280112
v 0.37504089 0.14874233 -0.38361529
v 0.30127043 0.07640180 -0.26409653
v 0.23867731 0.10164306 -0.38619265
v -0.48444226 0.12772399 -0.13120078
v -0.35823324 0.06834719 -0.13165788
v -0.23867922 0.10164604 -0.38619173
v -0.30125895 0.07640702 -0.26408118
v -0.37503877 0.14874253 -0.38361377
v -0.22012991 0.02629997 -0.13276520
v -0.08271038 0.00482845 -0.13373683
v 0.08108635 0.37701190 -0.78384304
v -0.00000000 0.28974700 -0.71128172
v -0.08108635 0.37701187 -0.78384304
v 0.15643448 0.15247595 -0.51925880
v 0.08114182 0.21244968 -0.62023956
v 0.23708628 0.23400176 -0.60682517
v -0.23708630 0.23400179 -0.60682517
v -0.08114183 0.21244964 -0.62023956
v -0.15643434 0.15247595 -0.51925850
v 0.00000112 0.02877701 -0.26644292
v -0.08232123 0.07966585 -0.39960897
v 0.08232328 0.07967180 -0.39960939
v 0.57125223 0.20000485 -0.21302302
v 0.61564207 0.20881084 -0.08108620
v 0.45399061 0.23471859 -0.46842989
v 0.51612186 0.20920131 -0.34615305
v 0.75865233 0.38582879 -0.23708642
v 0.64741188 0.29034415 -0.29600459
v 0.70710677 0.39115310 -0.37174809
v 0.13120040 0.50821245 -0.86492932
v 0.21302286 0.42140234 -0.79264921
v 0.46842986 0.53866351 -0.75793540
v 0.34615302 0.47653237 -0.78345168
v 0.38361374 0.61761552 -0.84391135
v 0.29600456 0.34524220 -0.70230985
v 0.37174803 0.28554714 -0.60150093
v 0.86492932 0.86145359 -0.48444164
v 0.79264921 0.77963120 -0.57125163
v 0.78384286 0.91156775 -0.61564207
v 0.75793540 0.52422410 -0.45399049
v 0.78345168 0.64650089 -0.51612163
v 0.84391147 0.60904032 -0.37503856
v 0.60682517 0.75556767 -0.75865233
v 0.70230985 0.69664931 -0.64741188
v 0.60150093 0.62090594 -0.70710677
v 0.51337546 0.34607616 -0.56425422
v 0.56425416 0.47927850 -0.64657778
v 0.64657784 0.42839980 -0.51337546
v 0.70290720 0.28137222 -0.00000003
v 0.84017789 0.47339553 -0.15643442
v 0.78020436 0.37241447 -0.08114182
v 0.78020436 0.37241444 0.08114185
v 0.84017789 0.47339559 0.15643449
v 0.91504341 0.99265385 -0.40335536
v 0.92430460 0.86099869 -0.35822874
v 0.98768836 0.85958290 -0.08224245
v 0.96639252 0.85986179 -0.22011711
v 0.99043882 0.99265391 -0.13795224
v 0.91624421 0.72857112 -0.30125895
v 0.89100653 0.60646665 -0.23867694
v 0.92430460 0.86099869 0.35822889
v 0.91504341 0.99265403 0.40335539
v 0.89100653 0.60646659 0.23867698
v 0.91624415 0.72857141 0.30125892
v 0.99043894 0.99265403 0.13795215
v 0.96639258 0.85986155 0.22011702
v 0.98768836 0.85958284 0.08224241
v 0.91298246 0.59304696 -0.08232360
v 0.96386129 0.72624940 0.00000010
v 0.91298246 0.59304696 0.08232360
v 0.13165548 0.63442528 0.92430460
v 0.38618737 0.75397706 0.89100653
v 0.26408276 0.69139516 0.91624415
v 0.13279240 0.77253705 0.96639258
v 0.13307108 0.91041166 0.98768824
v 0.71128172 0.99265409 0.70290709
v 0.51925850 1.14908850 0.84017789
v 0.62023962 1.07379580 0.78020447
v 0.62023956 0.91151208 0.78020436
v 0.51925850 0.83621955 0.84017795
v 0.13165534 1.35088277 0.92430460
v 0.13307106 1.07489657 0.98768836
v 0.13279244 1.21277118 0.96639258
v 0.26408288 1.29391313 0.91624409
v 0.38618743 1.23133111 0.89100653
v 0.39960706 0.91033047 0.91298246
v 0.39960697 1.07497752 0.91298240
v 0.26640469 0.99265403 0.96386129
v -0.57125175 0.20000482 0.21302295
v -0.45399052 0.23471867 0.46842995
v -0.51612163 0.20920238 0.34615302
v -0.64741188 0.29034427 0.29600456
v -0.70710677 0.39115301 0.37174806
v -0.21302287 0.42140231 0.79264921
v -0.46842986 0.53866351 0.75793540
v -0.34615302 0.47653234 0.78345168
v -0.29600459 0.34524211 0.70230985
v -0.37174803 0.28554717 0.60150093
v -0.79264915 0.77963120 0.57125151
v -0.75793540 0.52422398 0.45399046
v -0.78345168 0.64650089 0.51612163
v -0.70230985 0.69664937 0.64741188
v -0.60150093 0.62090594 0.70710677
v -0.51337546 0.34607622 0.56425422
v -0.56425422 0.47927868 0.64657778
v -0.64657778 0.42839980 0.51337546
v -0.21302292 0.42140236 -0.79264921
v -0.37174803 0.28554732 -0.60150093
v -0.29600456 0.34524220 -0.70230985
v -0.34615308 0.47653252 -0.78345168
v -0.46842983 0.53866363 -0.75793540
v -0.57125163 0.20000471 -0.21302287
v -0.70710683 0.39115310 -0.37174800
v -0.64741188 0.29034403 -0.29600465
v -0.51612169 0.20920238 -0.34615302
v -0.45399049 0.23471865 -0.46842986
v -0.79264921 0.77963114 -0.57125163
v -0.60150093 0.62090594 -0.70710677
v -0.70230985 0.69664943 -0.64741188
v -0.78345180 0.64650095 -0.51612163
v -0.75793540 0.52422416 -0.45399049
v -0.51337546 0.34607625 -0.56425422
v -0.64657778 0.42839983 -0.51337546
v -0.56425422 0.47927856 -0.64657778
v 0.71128178 0.99265397 -0.70290703
v 0.51925850 0.83621937 -0.84017789
v 0.62023956 0.91151226 -0.78020430
v 0.62023956 1.07379580 -0.78020436
v 0.51925856 1.14908850 -0.84017789
v 0.13165532 0.63442522 -0.92430460
v 0.13307099 0.91041172 -0.98768836
v 0.13279243 0.77253705 -0.96639258
v 0.26408270 0.69139510 -0.91624415
v 0.38618737 0.75397706 -0.89100653
v 0.13165544 1.35088277 -0.92430454
v 0.38618726 1.23133111 -0.89100653
v 0.26408276 1.29391301 -0.91624415
v 0.13279243 1.21277118 -0.96639258
v 0.13307118 1.07489657 -0.98768836
v 0.39960718 0.91033053 -0.91298240
v 0.26640475 0.99265403 -0.96386129
v 0.39960709 1.07497728 -0.91298264
v 0.92430460 1.12430942 0.35822883
v 0.98768842 1.12572515 0.08224250
v 0.96639258 1.12544644 0.22011703
v 0.91624421 1.25673676 0.30125886
v 0.89100653 1.37884128 0.23867695
v 0.92430460 1.12430954 -0.35822880
v 0.89100641 1.37884140 -0.23867694
v 0.91624415 1.25673676 -0.30125883
v 0.96639258 1.12544656 -0.22011706
v 0.98768836 1.12572503 -0.08224252
v 0.70290715 1.70393562 -0.00000017
v 0.84017789 1.51191247 0.15643454
v 0.78020436 1.61289358 0.08114193
v 0.78020436 1.61289358 -0.08114189
v 0.84017801 1.51191235 -0.15643455
v 0.96386129 1.25905883 0.00000002
v 0.91298246 1.39226103 -0.08232354
v 0.91298246 1.39226103 0.08232354
f 330 87 329
f 336 325 26
f 207 208 56
f 464 36 580
f 502 129 504
f 157 624 622
f 308 311 82
f 247 223 248
f 507 483 508
f 331 88 329
f 494 500 497
f 156 601 602
f 591 589 592
f 365 98 596
f 75 281 282
f 152 587 577
f 149 559 560
f 555 121 553
f 530 141 529
f 515 517 139
f 361 594 98
f 250 67 249
f 157 608 609
f 294 293 209
f 317 81 316
f 557 338 26
f 303 305 81
f 530 529 528
f 101 381 382
f 415 418 111
f 192 184 50
f 412 110 411
f 20 384 256
f 131 594 486
f 281 264 282
f 347 287 348
f 28 349 582
f 165 163 1
f 248 250 66
f 617 107 398
f 273 271 274
f 456 115 453
f 558 561 560
f 335 576 91
f 331 177 332
f 116 433 436
f 351 370 92
f 136 511 530
f 239 240 65
f 247 258 19
f 304 23 567
f 148 557 570
f 214 208 58
f 440 426 450
f 268 270 269
f 258 247 268
f 204 202 16
f 466 125 465
f 517 513 133
f 168 275 274
f 275 73 274
f 198 193 53
f 309 308 307
f 510 511 136
f 415 416 110
f 131 490 597
f 473 475 474
f 414 415 111
f 493 495 494
f 496 504 485
f 433 116 432
f 600 375 601
f 240 234 65
f 418 415 412
f 486 361 3
f 567 566 304
f 380 393 29
f 17 199 197
f 491 492 132
f 451 449 435
f 218 217 216
f 623 621 613
f 396 104 395
f 433 439 436
f 628 160 627
f 215 202 217
f 209 207 2
f 427 113 424
f 434 10 544
f 434 433 432
f 199 17 210
f 150 564 565
f 489 491 132
f 275 13 285
f 497 500 134
f 125 466 476
f 578 152 577
f 208 214 211
f 328 88 343
f 356 27 603
f 150 566 567
f 372 100 371
f 190 191 47
f 235 8 398
f 260 261 72
f 422 403 414
f 422 414 111
f 453 454 123
f 349 583 582
f 521 520 519
f 425 453 115
f 616 622 158
f 483 130 508
f 151 586 572
f 212 17 232
f 400 397 402
f 377 396 99
f 41 522 511
f 510 508 505
f 549 547 42
f 475 473 36
f 510 137 509
f 222 221 197
f 430 115 429
f 220 194 1
f 305 54 204
f 621 29 613
f 192 171 184
f 460 335 5
f 88 331 332
f 74 277 279
f 300 301 80
f 390 389 388
f 165 45 164
f 146 549 551
f 291 278 75
f 448 120 445
f 147 543 544
f 607 610 609
f 603 602 356
f 139 529 514
f 333 553 443
f 92 368 347
f 261 260 259
f 300 6 200
f 46 177 331
f 284 283 174
f 301 300 200
f 471 468 474
f 54 305 301
f 302 304 303
f 569 150 567
f 150 569 570
f 294 209 2
f 628 629 160
f 548 543 147
f 147 625 627
f 63 233 234
f 426 427 114
f 41 509 532
f 198 52 196
f 614 105 612
f 147 627 547
f 81 305 306
f 549 548 547
f 54 301 200
f 342 88 332
f 264 281 70
f 193 194 53
f 455 429 456
f 187 321 14
f 479 130 484
f 147 544 625
f 458 456 453
f 304 80 303
f 314 84 313
f 488 503 501
f 321 332 14
f 423 425 424
f 305 204 306
f 341 339 25
f 514 40 516
f 625 628 627
f 340 339 341
f 105 614 391
f 243 228 62
f 318 316 78
f 75 278 279
f 357 355 353
f 238 257 63
f 466 455 476
f 425 423 4
f 448 449 120
f 408 638 108
f 292 275 285
f 22 278 289
f 515 513 517
f 501 503 134
f 622 623 158
f 134 503 504
f 195 216 206
f 163 271 246
f 619 617 620
f 62 228 229
f 163 165 164
f 453 425 454
f 489 132 488
f 82 628 625
f 58 208 209
f 525 608 40
f 626 547 627
f 518 517 498
f 489 487 491
f 557 26 564
f 325 336 344
f 541 145 539
f 40 616 516
f 338 556 89
f 250 248 245
f 139 514 515
f 98 594 596
f 246 220 1
f 112 413 630
f 9 536 413
f 156 600 601
f 332 177 14
f 321 342 332
f 156 606 600
f 584 330 585
f 302 303 81
f 584 87 330
f 330 25 585
f 400 239 65
f 439 440 117
f 95 358 368
f 597 594 131
f 594 361 486
f 246 67 245
f 561 562 149
f 28 364 362
f 55 216 217
f 427 430 114
f 267 20 254
f 556 555 553
f 84 309 558
f 311 310 312
f 609 525 142
f 256 68 255
f 124 460 461
f 82 311 312
f 307 308 82
f 589 135 495
f 527 40 514
f 112 418 412
f 20 256 254
f 258 238 19
f 267 254 269
f 273 272 249
f 392 391 393
f 137 533 509
f 122 455 456
f 9 413 411
f 130 480 505
f 333 443 5
f 527 525 40
f 589 495 385
f 39 496 485
f 223 225 224
f 414 416 415
f 219 222 53
f 145 538 539
f 413 412 411
f 469 468 467
f 183 181 6
f 191 192 50
f 429 35 431
f 292 285 76
f 413 112 412
f 415 110 412
f 43 164 167
f 467 468 126
f 617 101 620
f 450 451 117
f 438 546 545
f 619 620 159
f 17 212 210
f 124 579 576
f 584 153 583
f 460 124 576
f 3 469 467
f 311 308 314
f 6 320 183
f 389 104 388
f 251 250 249
f 194 165 1
f 291 289 278
f 287 77 348
f 238 258 257
f 139 517 518
f 238 236 19
f 223 247 19
f 382 380 29
f 39 518 498
f 361 359 3
f 69 255 257
f 139 518 528
f 33 545 535
f 387 385 7
f 69 268 269
f 477 462 125
f 454 479 123
f 121 555 447
f 451 435 117
f 454 425 4
f 233 252 8
f 124 463 464
f 69 258 268
f 168 167 166
f 583 153 582
f 384 394 102
f 138 512 513
f 57 210 211
f 254 256 255
f 607 609 142
f 324 319 86
f 289 291 76
f 291 292 76
f 384 102 383
f 422 421 420
f 221 17 197
f 383 102 381
f 376 377 99
f 99 373 374
f 386 105 392
f 438 33 440
f 90 341 343
f 281 75 279
f 574 571 96
f 628 82 312
f 221 222 59
f 127 471 474
f 595 605 603
f 551 538 145
f 334 91 340
f 322 324 85
f 305 303 301
f 18 239 399
f 306 204 16
f 199 198 197
f 166 190 180
f 303 80 301
f 267 266 265
f 626 42 547
f 16 215 213
f 349 351 350
f 295 16 213
f 68 379 252
f 250 251 66
f 627 160 626
f 383 68 256
f 343 88 342
f 507 508 136
f 202 215 16
f 197 198 53
f 254 69 269
f 603 605 156
f 418 419 111
f 384 383 256
f 455 122 476
f 203 204 54
f 556 557 148
f 255 68 253
f 313 84 560
f 25 328 341
f 254 255 69
f 603 156 602
f 581 584 583
f 630 632 112
f 163 246 1
f 246 245 220
f 432 116 558
f 499 591 590
f 320 563 86
f 345 93 350
f 306 16 295
f 346 93 345
f 562 568 149
f 604 605 155
f 154 592 593
f 545 552 535
f 511 522 530
f 574 573 571
f 566 150 565
f 361 98 360
f 67 271 273
f 234 235 65
f 208 211 56
f 574 151 573
f 251 270 66
f 398 8 378
f 213 215 214
f 438 440 439
f 315 314 313
f 263 71 262
f 20 373 384
f 496 134 504
f 329 88 328
f 81 306 316
f 555 556 148
f 592 589 103
f 617 619 107
f 227 207 56
f 571 359 96
f 446 466 465
f 206 216 55
f 359 571 469
f 568 148 570
f 34 437 435
f 28 351 349
f 21 272 282
f 113 423 424
f 490 489 488
f 379 68 383
f 210 212 211
f 80 563 300
f 351 92 350
f 326 346 12
f 83 317 318
f 555 148 554
f 212 231 56
f 218 57 217
f 271 67 246
f 195 196 52
f 270 268 66
f 390 592 103
f 148 568 554
f 495 493 7
f 592 390 593
f 357 95 355
f 574 575 151
f 452 120 451
f 154 591 592
f 587 585 577
f 395 394 396
f 93 349 350
f 610 416 611
f 166 44 190
f 315 23 302
f 315 302 317
f 268 247 66
f 606 154 593
f 396 394 99
f 211 212 56
f 370 369 368
f 235 397 65
f 280 278 22
f 83 315 317
f 575 588 151
f 74 279 280
f 385 495 7
f 63 257 253
f 397 235 398
f 214 58 213
f 220 219 194
f 546 146 545
f 236 225 19
f 599 94 602
f 235 233 8
f 102 394 395
f 611 416 32
f 225 223 19
f 139 528 529
f 231 62 229
f 419 406 421
f 451 450 452
f 49 182 185
f 402 397 107
f 52 199 218
f 416 610 110
f 225 236 244
f 107 397 398
f 68 252 253
f 322 85 321
f 182 181 183
f 118 438 439
f 546 438 118
f 348 77 345
f 543 546 118
f 231 212 232
f 610 611 157
f 33 438 545
f 385 386 103
f 479 480 130
f 169 195 15
f 93 583 349
f 15 195 206
f 190 44 192
f 247 248 66
f 146 552 545
f 248 60 245
f 570 557 564
f 274 271 43
f 63 253 233
f 272 21 249
f 507 528 518
f 67 273 249
f 487 467 126
f 196 195 169
f 624 159 623
f 134 496 497
f 132 503 488
f 104 393 395
f 556 553 89
f 355 356 94
f 258 69 257
f 229 61 227
f 56 231 227
f 460 576 335
f 463 124 461
f 394 373 99
f 29 393 391
f 67 250 245
f 193 198 196
f 462 36 464
f 144 633 630
f 141 526 527
f 517 133 498
f 536 144 630
f 100 372 599
f 144 536 537
f 22 289 287
f 578 579 152
f 579 578 576
f 189 188 187
f 60 223 224
f 92 348 350
f 555 554 447
f 396 377 388
f 194 193 165
f 413 536 630
f 372 352 599
f 377 376 375
f 348 345 350
f 105 386 387
f 240 237 234
f 463 462 464
f 135 500 494
f 45 196 169
f 512 612 387
f 245 60 220
f 429 115 456
f 223 60 248
f 288 289 76
f 525 526 142
f 100 599 601
f 613 29 391
f 526 523 520
f 341 328 343
f 631 641 639
f 264 21 282
f 266 72 265
f 106 402 403
f 73 273 274
f 186 206 205
f 381 379 383
f 52 216 195
f 410 18 399
f 290 272 73
f 72 371 374
f 526 525 527
f 115 430 424
f 498 497 496
f 621 382 29
f 543 118 434
f 214 215 57
f 522 141 530
f 511 510 509
f 352 94 599
f 493 512 7
f 90 340 341
f 169 171 170
f 605 604 606
f 219 60 224
f 104 389 392
f 359 469 3
f 186 49 185
f 222 219 224
f 166 167 44
f 428 427 426
f 523 522 524
f 129 502 481
f 50 185 188
f 164 45 170
f 425 115 424
f 33 428 426
f 427 428 113
f 94 356 602
f 515 138 513
f 114 431 452
f 237 236 238
f 215 217 57
f 95 354 355
f 220 60 219
f 515 514 516
f 183 320 319
f 222 197 53
f 559 569 567
f 300 320 6
f 435 436 117
f 96 360 363
f 640 642 641
f 242 243 62
f 140 537 519
f 508 130 505
f 420 410 399
f 537 539 144
f 317 316 318
f 426 114 450
f 186 15 206
f 311 83 310
f 625 544 307
f 544 10 307
f 168 43 167
f 185 182 188
f 369 354 95
f 44 171 192
f 605 606 156
f 548 549 146
f 100 601 375
f 149 568 569
f 381 380 382
f 455 466 35
f 480 479 454
f 543 548 546
f 493 133 513
f 492 472 37
f 477 125 476
f 491 487 126
f 337 336 338
f 588 153 587
f 576 578 91
f 633 161 632
f 96 359 360
f 39 485 483
f 101 617 378
f 193 45 165
f 163 164 43
f 618 624 611
f 507 136 528
f 561 149 560
f 641 162 639
f 116 561 558
f 494 133 493
f 253 252 233
f 63 237 238
f 392 393 104
f 440 450 117
f 93 581 583
f 386 385 387
f 120 449 451
f 421 422 111
f 486 3 467
f 302 81 317
f 633 632 630
f 462 475 36
f 376 99 374
f 489 490 131
f 447 449 448
f 387 612 105
f 106 420 399
f 173 46 172
f 492 491 472
f 316 306 295
f 22 287 347
f 109 410 420
f 507 39 483
f 559 23 313
f 214 57 211
f 196 45 193
f 10 434 432
f 422 106 403
f 626 160 640
f 487 486 467
f 542 41 532
f 400 106 399
f 444 120 452
f 198 199 52
f 475 127 474
f 621 620 382
f 621 623 159
f 450 114 452
f 92 347 348
f 376 100 375
f 434 118 433
f 503 132 502
f 337 90 336
f 537 536 519
f 395 393 380
f 201 54 200
f 171 44 170
f 355 94 353
f 58 296 213
f 422 420 106
f 595 365 596
f 569 568 570
f 523 140 520
f 114 430 431
f 218 210 57
f 304 566 80
f 639 162 638
f 261 371 72
f 548 147 547
f 498 133 497
f 150 570 564
f 222 224 59
f 142 526 520
f 437 436 435
f 141 522 523
f 137 510 505
f 173 179 176
f 559 149 569
f 121 447 448
f 563 320 300
f 102 395 380
f 257 255 253
f 642 162 641
f 83 311 314
f 216 52 218
f 512 493 513
f 23 304 302
f 91 339 340
f 512 138 612
f 159 620 621
f 218 199 210
f 364 28 575
f 83 318 310
f 168 274 43
f 136 530 528
f 140 523 524
f 495 135 494
f 233 235 234
f 566 563 80
f 25 339 577
f 277 74 276
f 475 462 477
f 133 494 497
f 436 437 116
f 389 386 392
f 548 146 546
f 441 460 5
f 10 309 307
f 65 397 400
f 543 434 544
f 640 641 161
f 272 273 73
f 581 93 346
f 419 421 111
f 319 320 86
f 180 179 178
f 127 475 477
f 231 229 227
f 337 334 340
f 136 508 510
f 308 309 84
f 237 63 234
f 447 554 34
f 252 379 378
f 315 83 314
f 608 622 616
f 338 336 26
f 337 338 89
f 13 275 168
f 209 208 207
f 436 439 117
f 628 312 629
f 360 366 363
f 364 574 96
f 359 361 360
f 466 446 35
f 500 501 134
f 406 109 421
f 135 589 591
f 601 599 602
f 340 90 337
f 481 492 37
f 522 41 524
f 78 316 295
f 131 486 487
f 403 32 414
f 634 626 640
f 151 572 573
f 515 516 138
f 8 252 378
f 265 72 374
f 9 521 519
f 538 549 42
f 368 358 347
f 588 587 586
f 458 453 123
f 589 385 103
f 502 492 481
f 32 416 414
f 430 427 424
f 153 585 587
f 540 144 539
f 370 368 92
f 209 293 58
f 428 33 535
f 326 581 346
f 625 307 82
f 575 28 582
f 6 181 200
f 421 109 420
f 553 121 443
f 160 642 640
f 153 584 585
f 309 432 558
f 334 337 89
f 23 315 313
f 271 163 43
f 296 295 213
f 39 498 496
f 118 439 433
f 531 113 534
f 293 296 58
f 28 362 351
f 489 131 487
f 431 444 452
f 84 558 560
f 98 366 360
f 45 169 170
f 379 101 378
f 462 463 125
f 308 84 314
f 10 432 309
f 299 24 310
f 132 492 502
f 512 387 7
f 639 638 408
f 565 323 86
f 59 244 242
f 106 400 402
f 440 33 426
f 566 565 563
f 617 398 378
f 224 225 59
f 410 109 409
f 239 400 399
f 194 219 53
f 358 22 347
f 610 157 609
f 27 595 603
f 479 484 482
f 142 520 521
f 585 25 577
f 339 578 577
f 408 407 406
f 407 109 406
f 31 408 406
f 407 408 108
f 31 639 408
f 419 31 406
f 608 616 40
f 430 429 431
f 455 35 429
f 35 444 431
f 188 51 187
f 188 182 51
f 51 322 187
f 322 51 319
f 51 182 183
f 319 51 183
f 187 322 321
f 322 319 324
f 381 101 379
f 405 407 108
f 404 405 108
f 286 285 178
f 407 405 409
f 109 407 409
f 191 175 47
f 167 164 170
f 50 184 185
f 44 167 170
f 64 244 236
f 243 244 64
f 50 188 189
f 541 542 145
f 442 445 119
f 339 91 578
f 445 446 119
f 624 623 622
f 611 624 157
f 523 526 141
f 141 527 529
f 527 514 529
f 445 120 444
f 446 445 444
f 35 446 444
f 613 614 158
f 158 614 615
f 623 613 158
f 614 613 391
f 614 612 615
f 371 376 374
f 100 376 371
f 479 482 123
f 373 394 384
f 540 42 634
f 633 540 634
f 538 42 540
f 633 634 161
f 161 634 640
f 42 626 634
f 540 633 144
f 557 556 338
f 553 333 89
f 262 21 264
f 251 21 262
f 5 335 333
f 270 251 262
f 21 251 249
f 600 593 30
f 606 593 600
f 600 30 375
f 593 390 30
f 30 377 375
f 390 388 30
f 30 388 377
f 228 243 241
f 470 478 459
f 470 127 478
f 127 477 478
f 184 186 185
f 478 477 476
f 122 478 476
f 357 74 280
f 518 39 507
f 344 342 85
f 325 344 85
f 342 344 343
f 85 342 321
f 344 90 343
f 90 344 336
f 482 129 481
f 482 481 457
f 482 457 123
f 481 37 457
f 449 447 34
f 435 449 34
f 470 472 471
f 472 470 37
f 470 471 127
f 472 126 471
f 126 468 471
f 470 459 37
f 491 126 472
f 504 129 485
f 221 59 242
f 125 463 465
f 437 34 562
f 561 437 562
f 554 568 562
f 34 554 562
f 437 561 116
f 390 103 389
f 103 386 389
f 392 105 391
f 572 586 580
f 572 580 36
f 586 152 580
f 473 572 36
f 244 243 242
f 225 244 59
f 64 240 241
f 240 239 241
f 237 240 64
f 243 64 241
f 236 237 64
f 411 607 521
f 9 411 521
f 110 607 411
f 607 142 521
f 610 607 110
f 171 15 184
f 171 169 15
f 15 186 184
f 87 584 581
f 153 588 582
f 588 575 582
f 381 102 380
f 573 572 473
f 468 469 128
f 474 468 128
f 469 571 128
f 571 573 128
f 573 473 128
f 473 474 128
f 564 323 565
f 26 323 564
f 323 324 86
f 325 323 26
f 325 324 323
f 563 565 86
f 324 325 85
f 410 230 18
f 230 228 18
f 18 228 241
f 18 241 239
f 401 619 618
f 401 402 107
f 403 402 401
f 619 159 618
f 401 618 32
f 619 401 107
f 403 401 32
f 618 611 32
f 159 624 618
f 478 122 459
f 122 458 459
f 37 459 457
f 459 458 457
f 122 456 458
f 457 458 123
f 191 190 192
f 485 129 484
f 129 482 484
f 483 485 484
f 130 483 484
f 189 187 14
f 191 50 189
f 191 189 175
f 189 14 175
f 14 177 175
f 499 501 500
f 501 499 38
f 38 499 590
f 135 499 500
f 488 501 38
f 499 135 591
f 480 454 4
f 284 12 346
f 4 423 506
f 480 4 506
f 423 531 506
f 480 506 505
f 531 137 506
f 506 137 505
f 365 366 98
f 71 270 262
f 270 71 269
f 71 267 269
f 335 334 333
f 333 334 89
f 334 335 91
f 536 9 519
f 465 463 461
f 537 140 541
f 520 140 519
f 119 446 465
f 465 461 119
f 461 441 119
f 460 441 461
f 176 46 173
f 299 297 24
f 71 263 266
f 263 260 266
f 260 72 266
f 263 70 260
f 205 201 49
f 201 181 49
f 186 205 49
f 181 201 200
f 181 182 49
f 284 77 283
f 586 587 152
f 588 586 151
f 20 267 265
f 266 267 71
f 31 417 631
f 631 417 632
f 31 631 639
f 417 31 419
f 641 631 161
f 417 112 632
f 161 631 632
f 418 417 419
f 417 418 112
f 284 345 77
f 542 550 145
f 542 541 524
f 284 174 12
f 48 174 283
f 373 20 265
f 373 265 374
f 609 608 525
f 608 157 622
f 560 559 313
f 636 637 162
f 541 140 524
f 41 542 524
f 358 357 280
f 70 263 264
f 263 262 264
f 176 177 46
f 174 48 173
f 174 173 172
f 538 551 549
f 538 540 539
f 537 541 539
f 232 221 242
f 17 221 232
f 232 242 62
f 231 232 62
f 203 205 55
f 203 55 202
f 201 205 203
f 202 55 217
f 205 206 55
f 204 203 202
f 73 275 292
f 292 290 73
f 272 290 282
f 290 292 291
f 75 290 291
f 290 75 282
f 70 277 259
f 277 70 281
f 277 281 279
f 260 70 259
f 12 174 172
f 104 396 388
f 367 27 354
f 365 27 367
f 354 27 356
f 365 367 366
f 595 27 365
f 318 299 310
f 155 596 597
f 155 597 598
f 596 594 597
f 595 596 155
f 605 595 155
f 180 47 179
f 180 190 47
f 352 372 11
f 11 372 261
f 312 310 24
f 642 636 162
f 636 297 637
f 367 369 97
f 366 367 97
f 369 367 354
f 369 370 97
f 580 579 464
f 580 152 579
f 579 124 464
f 61 230 409
f 230 410 409
f 230 61 229
f 230 229 228
f 76 285 286
f 353 352 276
f 74 353 276
f 288 76 286
f 288 286 283
f 289 288 287
f 203 54 201
f 287 288 77
f 77 288 283
f 286 48 283
f 531 423 113
f 276 11 259
f 11 261 259
f 277 276 259
f 616 158 615
f 516 616 615
f 138 516 615
f 138 615 612
f 509 533 532
f 503 502 504
f 635 79 294
f 635 294 404
f 635 637 79
f 637 635 638
f 638 635 108
f 635 404 108
f 226 61 405
f 61 226 227
f 405 61 409
f 227 226 207
f 48 178 179
f 48 286 178
f 173 48 179
f 534 143 533
f 534 535 143
f 531 534 533
f 533 143 532
f 137 531 533
f 261 372 371
f 13 180 178
f 285 13 178
f 180 13 166
f 13 168 166
f 346 345 284
f 331 327 46
f 46 327 172
f 172 327 326
f 382 620 101
f 442 121 448
f 443 121 442
f 2 226 404
f 294 2 404
f 404 226 405
f 207 226 2
f 550 551 145
f 552 146 551
f 143 550 532
f 552 550 143
f 330 329 328
f 24 636 629
f 94 352 353
f 352 11 276
f 113 428 534
f 428 535 534
f 509 41 511
f 535 552 143
f 550 552 551
f 550 542 532
f 369 95 368
f 326 327 87
f 87 327 329
f 327 331 329
f 581 326 87
f 293 79 298
f 79 297 298
f 296 298 78
f 79 293 294
f 296 293 298
f 598 490 38
f 358 280 22
f 280 279 278
f 357 358 95
f 74 357 353
f 330 328 25
f 567 23 559
f 590 598 38
f 590 604 598
f 598 604 155
f 604 590 154
f 590 591 154
f 604 154 606
f 297 299 298
f 299 318 78
f 298 299 78
f 355 354 356
f 629 636 642
f 312 24 629
f 629 642 160
f 370 362 97
f 362 363 97
f 363 366 97
f 364 363 362
f 362 370 351
f 96 363 364
f 297 636 24
f 162 637 638
f 637 297 79
f 490 488 38
f 598 597 490
f 441 442 119
f 443 442 441
f 443 441 5
f 442 448 445
f 296 78 295
f 326 12 172
f 575 574 364
f 47 175 176
f 175 177 176
f 47 176 179
