# FEM surface export ¡ª frame 849
# Vertices: 642  Faces: 1280
v -0.55789483 0.84409273 -0.02187582
v 0.50320649 0.91058004 -0.01244053
v -0.51926666 0.73211300 0.00595414
v 0.56798971 0.57799906 0.01667982
v 0.00053897 0.33122617 0.89364171
v -0.04906804 0.56411254 0.83860952
v -0.01221709 0.44926336 -0.85022146
v -0.00081114 0.52954012 -0.85832793
v 0.89403713 0.13055985 -0.54728371
v 0.88505197 0.15461181 0.55891496
v -0.90958649 0.07683427 -0.56216222
v -0.89311701 0.10112718 0.52496332
v -0.79261959 0.49328053 0.31583583
v -0.52310616 0.32380712 0.78390539
v -0.38222575 0.82897282 0.47746843
v 0.25586540 0.87730098 0.48912305
v -0.04071920 1.05687499 -0.05260664
v 0.30668142 0.83210373 -0.52907056
v -0.31501296 0.78492802 -0.53112113
v -0.50304848 0.32988784 -0.82514381
v -0.78650820 0.52107251 -0.31893873
v -1.04853296 0.12098242 -0.01564721
v 0.45458919 0.44020358 0.83693457
v 0.79866958 0.61494195 0.30104694
v -0.51791120 0.17640866 0.78206027
v 0.01073947 0.11055860 1.07205665
v -0.78094035 0.36546308 -0.28452146
v -0.75512451 0.41822118 0.32001027
v -0.02236933 0.12441362 -1.05293477
v -0.52991271 0.16793108 -0.80759603
v 0.80157703 0.55822003 -0.32644808
v 0.50805598 0.35535297 -0.80771667
v 0.85183328 0.19605471 0.25597465
v 0.56889856 0.14078392 0.80206341
v 0.34266567 0.57385230 0.48156691
v -0.21571916 0.67885554 0.50280571
v 0.04101397 0.55478972 0.02511674
v -0.28559941 0.53486454 -0.49084246
v 0.36172774 0.66873312 -0.47173074
v 0.44963410 0.22082333 -0.83642668
v 0.83355337 0.34181678 -0.32397631
v 1.05054975 0.14687076 -0.00537647
v -0.69945192 0.68782407 0.14759158
v -0.61597633 0.67733639 0.41695148
v -0.49481907 0.87938422 0.24464975
v -0.69039899 0.17073445 0.70014429
v -0.70322639 0.41781223 0.58794826
v -0.84046078 0.27770507 0.42527762
v -0.21914715 0.73078126 0.68026036
v -0.45617676 0.58385062 0.68339908
v -0.29536203 0.47596776 0.83633769
v -0.23869477 0.99980885 0.22686632
v -0.32238802 0.98040581 -0.04028989
v 0.09976015 0.75855958 0.67949373
v -0.07608704 0.92346466 0.50609553
v 0.23612815 1.01782405 -0.03781350
v 0.11026528 1.01814699 0.23355846
v 0.38831359 0.93267322 0.25624487
v -0.18156195 0.95958811 -0.31491470
v -0.44126755 0.84501702 -0.29305851
v 0.43263042 0.89639992 -0.28194642
v 0.15258907 0.98259926 -0.30974802
v -0.15849423 0.66546452 -0.72721648
v -0.00455089 0.84797406 -0.56979197
v 0.16366799 0.69520581 -0.71638978
v -0.58599746 0.68059754 -0.44365606
v -0.68583238 0.69615799 -0.16921881
v -0.25127223 0.43455052 -0.87737703
v -0.41117352 0.59019506 -0.71072537
v -0.87514424 0.31841207 -0.46388152
v -0.67962229 0.43559775 -0.59249920
v -0.72167724 0.22308522 -0.70245945
v -0.82512474 0.53610480 -0.00023825
v -1.02800763 0.09767720 -0.28366342
v -0.97355932 0.32735202 -0.18696091
v -0.95201832 0.31542808 0.15874474
v -1.01458383 0.15427354 0.25683367
v 0.55433708 0.77604800 0.41909924
v 0.65414643 0.78744292 0.15241671
v 0.20197253 0.51223111 0.87084019
v 0.37756565 0.66823238 0.68715328
v 0.86487812 0.39760125 0.46267268
v 0.66803169 0.55134839 0.58690423
v 0.69672012 0.31780803 0.72634768
v -0.29677099 0.25892949 0.97975147
v -0.02602870 0.34430006 0.98654252
v -0.75331128 0.08638554 0.68132555
v -0.54333848 0.04077661 0.88915807
v 0.02381877 0.07802989 0.97123849
v -0.27238896 0.00000000 0.96856862
v -0.25855455 0.23459868 0.84453893
v -0.96381521 0.17023697 0.17418954
v -0.89402711 0.17799574 0.43905336
v -0.85946023 0.17115715 -0.44545311
v -0.94302428 0.17216539 -0.13476908
v -0.67939425 0.64205909 0.17956424
v -0.82078636 0.40031815 0.03988265
v -0.68307370 0.57179224 -0.13913846
v -0.55729407 0.12365682 -0.88351554
v -0.71576828 0.05331168 -0.68246627
v 0.01295125 0.31718373 -0.99165672
v -0.26371932 0.20526795 -0.98073715
v -0.27896488 0.32827070 -0.87482530
v -0.29703733 0.05662333 -0.94475621
v -0.05180133 0.17857748 -0.99627978
v 0.42141885 0.59416133 -0.70118165
v 0.25800046 0.45117646 -0.87330008
v 0.66627580 0.75981069 -0.18018210
v 0.57821673 0.71307427 -0.44864404
v 0.72469622 0.19446798 -0.69682795
v 0.68879884 0.47721031 -0.58530861
v 0.86854601 0.34958461 -0.44477734
v 0.74085134 0.44592524 0.15174508
v 0.62375331 0.40026793 0.42421371
v 0.49829072 0.61514735 0.29610667
v 0.74249870 0.00413579 0.70397735
v 0.69240898 0.16034859 0.54677689
v 0.89471543 0.10357127 0.37737739
v 0.21284319 0.47944358 0.73844177
v 0.49242818 0.34133592 0.65073013
v 0.30417880 0.23517191 0.85853159
v 0.22181678 0.74147785 0.29508677
v 0.28983858 0.52327734 0.06695229
v -0.14288251 0.52511334 0.75547844
v 0.08448811 0.66219729 0.56393552
v -0.23364308 0.63432431 0.04337098
v -0.07894147 0.76131678 0.27292573
v -0.39256009 0.70714295 0.29665545
v 0.23299579 0.60992599 -0.24815843
v 0.45740151 0.67790335 -0.23778835
v -0.41560650 0.70352107 -0.26135710
v -0.11742301 0.56420732 -0.22724365
v 0.17045231 0.61097556 -0.69273478
v 0.01848767 0.74038160 -0.46562353
v -0.17527139 0.58959806 -0.68700236
v 0.61029607 0.49416766 -0.45886195
v 0.73038530 0.53247786 -0.17142835
v 0.21450271 0.32145464 -0.87087077
v 0.42615113 0.46948901 -0.72162420
v 0.89361316 0.12788063 -0.47487199
v 0.72538328 0.28622469 -0.60957795
v 0.70012695 0.16461700 -0.75588936
v 0.86225545 0.28288043 -0.02020896
v 1.00027347 0.13707450 -0.28346798
v 0.97975063 0.14266002 -0.16416024
v 0.98570806 0.00007026 0.10334387
v 0.99898320 0.18707165 0.28847158
v 0.29920629 0.02089791 0.99772453
v 0.54312402 0.15425564 0.90071619
v 0.22758290 0.25718638 0.97784370
v -0.54621458 0.59019887 0.45117772
v -0.38085771 0.45982718 0.71349365
v -0.67894924 0.33580142 0.57535070
v -0.45742756 0.45293102 -0.64364028
v -0.59428966 0.55244839 -0.41442668
v -0.68402386 0.25271496 -0.56833649
v 0.54512322 0.06162655 -0.89463800
v 0.20606512 0.02098811 -0.95902985
v 0.28385615 0.21030457 -0.97851664
v 0.96788234 0.40601462 0.16985101
v 0.96511561 0.35710579 -0.15343750
v 0.83288658 0.61400974 -0.01363602
v -0.63376772 0.77071142 0.07133181
v -0.59762943 0.79435122 0.20192467
v -0.52851081 0.87484139 0.11272222
v -0.70956367 0.59160352 0.35521200
v -0.65874833 0.69890761 0.28137562
v -0.75432420 0.60413986 0.23396754
v -0.44641560 0.86250371 0.36932600
v -0.55413187 0.78186435 0.33816755
v -0.50598520 0.75675750 0.46354645
v -0.80287373 0.11755466 0.63734668
v -0.76253140 0.23837754 0.57776695
v -0.86410928 0.19093905 0.50013554
v -0.61174577 0.37499338 0.69808507
v -0.69579458 0.29291362 0.63874543
v -0.61963129 0.25435841 0.76380843
v -0.83472043 0.38504097 0.38055792
v -0.79422718 0.36809319 0.50523108
v -0.77393568 0.47308415 0.44592360
v -0.12934610 0.65313655 0.77560079
v -0.24963015 0.60110795 0.76765823
v -0.16905607 0.52281094 0.85032076
v -0.42424271 0.71142119 0.59003145
v -0.34570086 0.67131168 0.69250262
v -0.30244833 0.79484123 0.58678961
v -0.41198418 0.40700209 0.81297773
v -0.36881560 0.52968973 0.75039703
v -0.49506047 0.45677459 0.72920644
v -0.67860878 0.55334145 0.50451386
v -0.59478521 0.50587851 0.64274329
v -0.56160921 0.64163488 0.56710303
v -0.41154677 0.94790554 0.10417559
v -0.44712764 0.91947967 -0.02531273
v -0.32373774 0.92786103 0.35781065
v -0.37254247 0.94460368 0.23159428
v -0.18344559 1.02029181 -0.05035461
v -0.27454975 1.00871706 0.09151816
v -0.13574928 1.04477692 0.08935317
v 0.01463388 0.66816312 0.77043146
v -0.06146618 0.75402528 0.68995339
v 0.08598851 0.91536224 0.50050569
v 0.01787373 0.85316646 0.60299301
v 0.17856519 0.83012855 0.58846539
v -0.15134364 0.83433843 0.59781390
v -0.23354988 0.88835692 0.48990262
v 0.37490001 0.97156256 -0.02134961
v 0.32093892 0.99483770 0.10952696
v 0.44781137 0.93550450 0.12203750
v 0.03709949 1.04515088 0.09119833
v 0.17743237 1.02782738 0.09706760
v 0.09858514 1.04879916 -0.04143532
v 0.32114497 0.90962529 0.37595469
v 0.25248396 0.98678231 0.24537377
v 0.17459020 0.95348400 0.36674887
v -0.16159876 0.97723210 0.36711589
v 0.00831896 0.98772508 0.36811787
v -0.06636909 1.03233147 0.22432087
v -0.38735175 0.91883773 -0.16761322
v -0.50187671 0.85713726 -0.15775076
v -0.11435220 1.01099145 -0.18646000
v -0.25691783 0.97747022 -0.18155375
v -0.37724710 0.83037561 -0.41665974
v -0.31743982 0.91702735 -0.30821651
v -0.24515076 0.88396490 -0.43390256
v 0.46539128 0.91176426 -0.14368454
v 0.33819115 0.96506166 -0.16033517
v 0.23746040 0.91617280 -0.41868609
v 0.29600036 0.95589459 -0.29196537
v 0.36871344 0.87315130 -0.40733933
v 0.19190747 1.01336253 -0.17487450
v 0.05592985 1.02736497 -0.18559554
v -0.07962552 0.59953421 -0.80011320
v -0.00925058 0.68363565 -0.72100699
v 0.07915781 0.61151552 -0.78393930
v -0.16857752 0.82162917 -0.55565977
v -0.08337997 0.76012504 -0.64558458
v -0.24023385 0.72987056 -0.63245916
v 0.23792571 0.76924074 -0.62864286
v 0.08637273 0.77717340 -0.65127653
v 0.15323119 0.85419130 -0.55285621
v -0.01716603 0.97923970 -0.32483473
v 0.07472995 0.92891419 -0.44704449
v -0.09189761 0.90685439 -0.45337093
v -0.57794327 0.77567565 -0.22883232
v -0.62796277 0.77487284 -0.09379712
v -0.45757210 0.74462122 -0.48924404
v -0.51516008 0.76908743 -0.36057806
v -0.74162167 0.60718530 -0.23881967
v -0.64183336 0.68733972 -0.30750459
v -0.69094801 0.60182714 -0.37844411
v -0.11967835 0.47999859 -0.86844492
v -0.20062280 0.54566455 -0.80117607
v -0.45535982 0.46743256 -0.77266866
v -0.32276005 0.51340294 -0.79609168
v -0.38381270 0.39214817 -0.85290807
v -0.29166147 0.63839775 -0.71654952
v -0.38031331 0.68586755 -0.61787158
v -0.91496378 0.22008660 -0.52088362
v -0.80084312 0.27599493 -0.58303046
v -0.83137542 0.16376904 -0.63683248
v -0.74887043 0.48440814 -0.45229816
v -0.78335255 0.37694150 -0.52463138
v -0.84317744 0.41689709 -0.39535636
v -0.61515749 0.28594664 -0.77016312
v -0.69515848 0.33964550 -0.64851207
v -0.58600122 0.40447697 -0.72613710
v -0.51503301 0.64066309 -0.57660156
v -0.55712301 0.53397316 -0.65732294
v -0.64212179 0.56936705 -0.51474780
v -0.69831949 0.70090127 -0.00157349
v -0.81705374 0.52953756 -0.15981273
v -0.76166385 0.62355232 -0.08505022
v -0.76524568 0.60564405 0.07153785
v -0.81625980 0.52339631 0.16272970
v -0.97636366 0.09325785 -0.43105569
v -0.97340554 0.21529567 -0.38669688
v -1.03494191 0.23142181 -0.09225460
v -1.02548814 0.21886912 -0.23765269
v -1.04685175 0.12212840 -0.15541087
v -0.94086689 0.33085826 -0.32108530
v -0.87592864 0.42638642 -0.26118550
v -0.93187958 0.23601946 0.36241695
v -0.95881885 0.14187671 0.39306191
v -0.85852772 0.39568669 0.23964196
v -0.92547446 0.29694292 0.29601207
v -1.04891646 0.10891237 0.13879979
v -1.00065112 0.20942618 0.22177123
v -1.02350271 0.21339996 0.07730596
v -0.90405333 0.43531069 -0.09170377
v -0.96763748 0.32179704 -0.00960049
v -0.89113486 0.43160731 0.08201863
v 0.53406721 0.87132192 0.20767045
v 0.58602726 0.85507846 0.06976736
v 0.41250601 0.83389628 0.46858659
v 0.48115146 0.86319524 0.34486428
v 0.73398203 0.70760471 0.22881904
v 0.61615777 0.79160941 0.29667929
v 0.68498492 0.69547486 0.36543080
v 0.07869255 0.54207385 0.85819250
v 0.14850120 0.64310849 0.78174406
v 0.42976502 0.55522907 0.76201093
v 0.28560433 0.60384232 0.78313321
v 0.32968912 0.49150503 0.86099875
v 0.24418581 0.72477579 0.70007658
v 0.32235327 0.77816671 0.60316747
v 0.87701237 0.28122568 0.51857382
v 0.79125381 0.35113212 0.59436041
v 0.79823357 0.22921143 0.65067822
v 0.74251914 0.58678371 0.45259336
v 0.76416856 0.46678877 0.52960265
v 0.83734602 0.51516038 0.37801501
v 0.58110780 0.39186439 0.79011190
v 0.68717980 0.43324524 0.66643590
v 0.57696217 0.50718832 0.71381408
v 0.47555465 0.73317266 0.56299382
v 0.53303576 0.62208980 0.65067315
v 0.61721045 0.67307884 0.51066029
v -0.16997637 0.41637579 0.91873598
v -0.02366760 0.46477398 0.91906494
v -0.42707014 0.30925316 0.89233768
v -0.30356520 0.35974184 0.90975493
v -0.01275018 0.22775149 1.03085196
v -0.16050197 0.29700613 0.99158567
v -0.14283894 0.19129021 1.04188836
v -0.81787789 0.02186094 0.61782700
v -0.73482841 0.04791116 0.73398489
v -0.56762600 0.01577776 0.82659835
v -0.66760004 0.00099131 0.80288875
v -0.63381684 0.12017930 0.71417600
v -0.62315565 0.11863865 0.82033300
v -0.53254652 0.19727360 0.86477947
v -0.00396772 0.20657371 0.94843853
v -0.10626624 0.14546977 0.90460259
v -0.12202806 0.30298111 0.88223618
v -0.13402115 0.04633402 1.05223584
v -0.11989332 0.05052766 0.97352898
v 0.02003724 0.00000000 1.06093669
v -0.38113037 0.17345585 0.78386348
v -0.25595534 0.13631332 0.89943081
v -0.40254897 0.04088031 0.87107408
v -0.42983684 0.18044525 0.94531316
v -0.42268571 0.02414934 0.96383762
v -0.28358948 0.11459867 1.01039290
v -0.97941542 0.01896943 0.35857233
v -0.88566667 0.03653242 0.48778364
v -1.02513969 0.07125052 0.09407914
v -0.98652148 0.01526823 0.24789071
v -0.85522187 0.30483174 0.37420586
v -0.90607774 0.15484533 0.27982947
v -0.85694218 0.30160427 0.25760138
v -0.85564435 0.10652445 -0.50808287
v -0.91184330 0.12550040 -0.33379349
v -0.88549966 0.27139497 -0.21754576
v -0.90082294 0.18509151 -0.30458659
v -0.84338284 0.26274574 -0.36424303
v -0.98080933 0.10367656 -0.18655616
v -1.03653753 0.03335702 -0.06886934
v -0.59572071 0.70432848 0.08824568
v -0.69205976 0.62284493 0.03139696
v -0.62108272 0.68142045 -0.08111477
v -0.82104599 0.44367507 0.15827027
v -0.75991118 0.55503869 0.09399062
v -0.73063660 0.54549026 0.26365247
v -0.74318987 0.47894564 -0.23925012
v -0.76588452 0.50025159 -0.07096443
v -0.82728851 0.39841002 -0.13116382
v -0.96198416 0.14801261 0.02189638
v -0.90543377 0.28460294 -0.05741277
v -0.89509368 0.28679284 0.11434755
v -0.75955486 0.07069718 -0.73386669
v -0.84011286 0.01306763 -0.64667660
v -0.53709120 0.23144901 -0.88550609
v -0.66061270 0.15620728 -0.82372797
v -0.61750269 0.09682963 -0.75537717
v -0.64000332 0.01087614 -0.79964101
v -0.54281312 0.02391907 -0.85873806
v 0.00367157 0.42050269 -0.92482740
v -0.12793626 0.36258984 -0.93450367
v -0.13485958 0.13824023 -1.02597213
v -0.13213561 0.26289406 -0.97861338
v 0.00296035 0.22677261 -1.03503764
v -0.27032834 0.31891301 -0.93539435
v -0.38520604 0.27364188 -0.90607142
v -0.14466494 0.38009161 -0.87831390
v -0.17304026 0.25544307 -0.94912714
v -0.03135002 0.31017831 -0.91853201
v -0.41442397 0.15054630 -0.91431952
v -0.30883849 0.21035992 -0.92945755
v -0.39239877 0.24065720 -0.83127874
v -0.04349757 0.03366635 -1.04445553
v -0.18335649 0.12007942 -0.99743015
v -0.16123444 0.00000000 -1.05176985
v -0.39616859 0.14558403 -0.94471413
v -0.27312499 0.06126774 -1.01158273
v -0.43638167 0.01692417 -0.94005668
v 0.20893532 0.57862091 -0.79832023
v 0.12236751 0.48884204 -0.86773366
v 0.37370908 0.72359765 -0.61991632
v 0.30077714 0.65152532 -0.71802467
v 0.38746762 0.40484181 -0.85441101
v 0.34395579 0.52793652 -0.79636520
v 0.46935445 0.49082527 -0.76284558
v 0.59764063 0.83998513 -0.09184463
v 0.55302751 0.83736926 -0.22674410
v 0.70142674 0.64919549 -0.38959920
v 0.62220794 0.74694377 -0.31979594
v 0.73936123 0.66786176 -0.25413138
v 0.51045609 0.82070804 -0.37223169
v 0.45217317 0.78482562 -0.49090481
v 0.80457181 0.15950367 -0.61598861
v 0.80129707 0.29144377 -0.58854204
v 0.89202881 0.24298474 -0.48964864
v 0.60502517 0.41132393 -0.71023864
v 0.70531446 0.35085556 -0.65250492
v 0.61482716 0.27024767 -0.75613588
v 0.83884776 0.45059943 -0.38192293
v 0.78479809 0.40254626 -0.52440041
v 0.75125897 0.51925236 -0.46241707
v 0.50964737 0.66279805 -0.58600783
v 0.64626437 0.61646348 -0.52438509
v 0.57333332 0.53647083 -0.65382785
v 0.66723657 0.52177936 0.06408570
v 0.63077372 0.51389354 0.22161937
v 0.53913015 0.59988797 0.16477844
v 0.74233264 0.31312522 0.33920315
v 0.67250937 0.42166156 0.29431078
v 0.78672397 0.32083333 0.22162066
v 0.43182960 0.58319950 0.37736535
v 0.55296576 0.51019657 0.35184014
v 0.49894074 0.47684914 0.45779121
v 0.83263195 0.06628396 0.64208931
v 0.83930928 0.10648398 0.56315339
v 0.91275525 0.03000708 0.47597766
v 0.63249671 0.13578674 0.65973139
v 0.74325198 0.07261974 0.60577536
v 0.66127086 0.05805118 0.74086338
v 0.85661870 0.07405209 0.30718622
v 0.80356926 0.10931771 0.46759227
v 0.77749467 0.16986348 0.38731948
v 0.11085451 0.40547824 0.81540358
v 0.25819448 0.38133597 0.76805907
v 0.14217611 0.31524739 0.86132282
v 0.42137924 0.46934199 0.57110995
v 0.35852236 0.43615535 0.67810309
v 0.26828301 0.52817357 0.59270114
v 0.43764743 0.19135597 0.83616108
v 0.39116752 0.26365665 0.74590820
v 0.52140981 0.23469898 0.72433084
v 0.69438553 0.25851718 0.47753844
v 0.61508495 0.28001150 0.61726224
v 0.55650097 0.37221089 0.53203565
v 0.42295110 0.64193380 0.10700410
v 0.44125605 0.52732736 -0.01767903
v 0.31978416 0.68138307 0.37866712
v 0.38378224 0.69211763 0.25992167
v 0.17948309 0.59448564 0.04178686
v 0.28895605 0.68675625 0.17314336
v 0.14527614 0.61296648 0.17277350
v -0.05304214 0.42689797 0.78961557
v 0.04054318 0.53070390 0.72009528
v -0.09528130 0.65684170 0.57101166
v -0.03087669 0.58869219 0.66177344
v -0.17518249 0.61837441 0.62403566
v 0.16682692 0.58833504 0.64251471
v 0.22060163 0.65454656 0.51973784
v -0.38585758 0.66566086 0.01150707
v -0.30477488 0.77375531 0.14842117
v -0.46746594 0.76599330 0.15620585
v -0.03276262 0.62512034 0.16043319
v -0.15055136 0.76602322 0.15279582
v -0.09906343 0.60746551 0.05315192
v -0.30010805 0.71660656 0.37178493
v -0.24094607 0.80496073 0.25420153
v -0.17961103 0.74449271 0.40240586
v 0.16938350 0.72345597 0.44662800
v 0.00610538 0.74427021 0.44293195
v 0.05074339 0.61253750 0.33485347
v 0.38677076 0.62692654 -0.09657165
v 0.54574782 0.63205391 -0.10200904
v 0.16282776 0.58217043 -0.12188093
v 0.26830694 0.53570652 -0.08345164
v 0.41703537 0.67802298 -0.34864008
v 0.32496789 0.74271154 -0.22399271
v 0.27378631 0.74296153 -0.33881080
v -0.48328888 0.74490559 -0.13943602
v -0.35579666 0.61563659 -0.12284077
v -0.22016776 0.51257706 -0.30382285
v -0.25264773 0.60541266 -0.19659097
v -0.37331593 0.57487124 -0.34104303
v -0.18861006 0.57595295 -0.08621482
v -0.04627906 0.58346063 -0.09731872
v 0.04851581 0.51687169 -0.74768174
v -0.00404999 0.61648124 -0.68427742
v -0.10600132 0.51956463 -0.75058228
v 0.18248193 0.73059797 -0.48436412
v 0.07967173 0.68966115 -0.59978217
v 0.26404694 0.66033161 -0.58899671
v -0.17059395 0.51019925 -0.60823697
v -0.09299257 0.68607759 -0.58968812
v -0.13497932 0.58988303 -0.45872781
v 0.07599895 0.59366232 -0.22446857
v -0.02621264 0.58566386 -0.36081305
v 0.10031261 0.70356500 -0.32089525
v 0.61653441 0.61760378 -0.21430025
v 0.66847396 0.55001980 -0.09230392
v 0.49531987 0.62566054 -0.45169780
v 0.58048791 0.64337635 -0.36669332
v 0.76713902 0.45066091 -0.24770889
v 0.65879184 0.56046587 -0.30672225
v 0.72030079 0.44653803 -0.36726519
v 0.09503030 0.39404038 -0.85132110
v 0.19884048 0.47929394 -0.80153459
v 0.45688856 0.34842622 -0.78760558
v 0.33476964 0.40936917 -0.80278593
v 0.33846778 0.23675211 -0.85509145
v 0.30376595 0.54826260 -0.71023291
v 0.40049702 0.60043675 -0.61180085
v 0.88731277 0.05431427 -0.55149710
v 0.80854869 0.16869608 -0.61236173
v 0.79986089 0.07270318 -0.66463757
v 0.78564310 0.33111957 -0.48634389
v 0.83233976 0.22104323 -0.55255270
v 0.87848014 0.24352828 -0.39338192
v 0.56859589 0.17506863 -0.81518131
v 0.69656777 0.23001717 -0.71352279
v 0.58433497 0.30350143 -0.74734354
v 0.51182508 0.52655071 -0.59555805
v 0.58593613 0.41292715 -0.66623658
v 0.66182703 0.43189946 -0.55970997
v 0.74998736 0.49347672 -0.00094835
v 0.85040212 0.34160429 -0.16802540
v 0.80311245 0.43376374 -0.09285987
v 0.79772401 0.36402458 0.07821003
v 0.83137679 0.24603078 0.11931513
v 0.95634156 0.14281489 -0.41111848
v 0.97823042 0.02794825 -0.40690696
v 1.06712902 0.01742839 -0.09791753
v 1.03374207 0.06265536 -0.25295109
v 1.03970456 0.13548931 -0.12542364
v 0.95916361 0.11310151 -0.33768502
v 0.92065156 0.22637364 -0.27767166
v 0.96857840 0.03738905 0.33177614
v 0.95395440 0.15295616 0.42499727
v 0.87996113 0.11638664 0.16230625
v 0.92388850 0.00000000 0.23248731
v 1.04105031 0.17522459 0.13209359
v 1.01257801 0.10123517 0.19913198
v 1.06429732 0.04061148 0.07013006
v 0.93150640 0.23389481 -0.08290212
v 1.00291717 0.09008892 -0.04848946
v 0.92067993 0.13225725 0.04064877
v 0.14775760 0.19236580 0.92628777
v 0.43591160 0.10364554 0.89731801
v 0.30292106 0.14623833 0.91632158
v 0.15138961 0.07790750 0.99281216
v 0.16236296 0.01462818 1.06026483
v 0.75743800 0.16364303 0.74116063
v 0.50865775 0.29513803 0.86797214
v 0.62991571 0.23508185 0.81919825
v 0.66840392 0.08164629 0.82093006
v 0.57783842 0.02158273 0.87713122
v 0.09090802 0.41687408 0.94389880
v 0.14661431 0.15283239 1.04309893
v 0.09170160 0.27957287 0.99144775
v 0.22173399 0.39255399 0.93797535
v 0.35041294 0.34621045 0.91617876
v 0.44262588 0.05132808 0.96655571
v 0.40205094 0.21214557 0.94759142
v 0.29052031 0.10651390 1.01532280
v -0.54092580 0.70368689 0.23985475
v -0.38084686 0.62270284 0.47451609
v -0.47557765 0.69574761 0.37526697
v -0.64487785 0.62667882 0.32953236
v -0.66672891 0.54086488 0.41521966
v -0.21017486 0.39033145 0.83068329
v -0.46862730 0.30769023 0.74524993
v -0.32987615 0.34454745 0.76158047
v -0.25787997 0.49047893 0.73294091
v -0.30068606 0.58543772 0.62056601
v -0.81313533 0.12613761 0.56417584
v -0.76850981 0.36689711 0.48270380
v -0.79076785 0.25555289 0.52555221
v -0.70786470 0.21340013 0.63736117
v -0.60073298 0.28260088 0.70351088
v -0.46513420 0.54735953 0.61368793
v -0.54103744 0.40001708 0.67149633
v -0.60925281 0.44157413 0.54735082
v -0.24955381 0.44671264 -0.79557753
v -0.33740515 0.52402878 -0.59509569
v -0.30076626 0.49055573 -0.69000512
v -0.38362712 0.39343390 -0.76490194
v -0.48065260 0.31369081 -0.74616176
v -0.55718219 0.69204062 -0.23951869
v -0.68325067 0.45825678 -0.36140153
v -0.63217586 0.58235109 -0.27045828
v -0.49897370 0.63273001 -0.37546280
v -0.45359513 0.61153585 -0.49037984
v -0.81365377 0.12319828 -0.57549644
v -0.63059670 0.24446411 -0.69042629
v -0.69497418 0.15509009 -0.61509675
v -0.77449143 0.20264015 -0.48280630
v -0.73903203 0.30379394 -0.45454416
v -0.53742945 0.51636034 -0.53361237
v -0.64051771 0.40031299 -0.50163740
v -0.57531577 0.35393366 -0.61970395
v 0.74774480 0.04693594 -0.72387910
v 0.49386764 0.07282778 -0.87509620
v 0.63792199 0.05928205 -0.82533753
v 0.64448887 0.13755053 -0.79912311
v 0.53820807 0.20926541 -0.83971375
v 0.09604369 0.24432202 -0.93236333
v 0.11635238 0.03765316 -1.03724706
v 0.07306249 0.10387146 -0.98522514
v 0.21489643 0.15708290 -0.90684074
v 0.34698862 0.10814048 -0.91719055
v 0.14201783 0.39018270 -0.93935496
v 0.40606520 0.27044168 -0.90797150
v 0.27104551 0.33105814 -0.92462188
v 0.14035095 0.25238940 -0.99732655
v 0.12834209 0.15476681 -1.02539921
v 0.39774087 0.00000000 -0.95989746
v 0.27608961 0.10089111 -1.02562106
v 0.42759815 0.13050175 -0.94431251
v 0.93775731 0.28077281 0.39193827
v 1.02189851 0.27528489 0.08015585
v 0.99403107 0.29974845 0.22545902
v 0.92089140 0.39913160 0.32171047
v 0.89292395 0.51127654 0.24343686
v 0.94557434 0.24730119 -0.37299541
v 0.87210286 0.45872408 -0.25084883
v 0.91871971 0.34486496 -0.30249828
v 0.98631179 0.24623552 -0.22268200
v 1.02319348 0.26219010 -0.07654954
v 0.67881513 0.77975172 -0.01362669
v 0.83072358 0.62613893 0.14070809
v 0.75348794 0.71129948 0.06599047
v 0.75367737 0.68850398 -0.09767289
v 0.82155174 0.59146172 -0.16846819
v 0.97668731 0.40081692 0.00586952
v 0.90787184 0.48137870 -0.09958909
v 0.90850586 0.51060545 0.06674665
f 330 87 329
f 336 325 26
f 207 208 56
f 464 36 580
f 502 129 504
f 157 624 622
f 308 311 82
f 247 223 248
f 507 483 508
f 331 88 329
f 494 500 497
f 156 601 602
f 591 589 592
f 365 98 596
f 75 281 282
f 152 587 577
f 149 559 560
f 555 121 553
f 530 141 529
f 515 517 139
f 361 594 98
f 250 67 249
f 157 608 609
f 294 293 209
f 317 81 316
f 557 338 26
f 303 305 81
f 530 529 528
f 101 381 382
f 415 418 111
f 192 184 50
f 412 110 411
f 20 384 256
f 131 594 486
f 281 264 282
f 347 287 348
f 28 349 582
f 165 163 1
f 248 250 66
f 617 107 398
f 273 271 274
f 456 115 453
f 558 561 560
f 335 576 91
f 331 177 332
f 116 433 436
f 351 370 92
f 136 511 530
f 239 240 65
f 247 258 19
f 304 23 567
f 148 557 570
f 214 208 58
f 440 426 450
f 268 270 269
f 258 247 268
f 204 202 16
f 466 125 465
f 517 513 133
f 168 275 274
f 275 73 274
f 198 193 53
f 309 308 307
f 510 511 136
f 415 416 110
f 131 490 597
f 473 475 474
f 414 415 111
f 493 495 494
f 496 504 485
f 433 116 432
f 600 375 601
f 240 234 65
f 418 415 412
f 486 361 3
f 567 566 304
f 380 393 29
f 17 199 197
f 491 492 132
f 451 449 435
f 218 217 216
f 623 621 613
f 396 104 395
f 433 439 436
f 628 160 627
f 215 202 217
f 209 207 2
f 427 113 424
f 434 10 544
f 434 433 432
f 199 17 210
f 150 564 565
f 489 491 132
f 275 13 285
f 497 500 134
f 125 466 476
f 578 152 577
f 208 214 211
f 328 88 343
f 356 27 603
f 150 566 567
f 372 100 371
f 190 191 47
f 235 8 398
f 260 261 72
f 422 403 414
f 422 414 111
f 453 454 123
f 349 583 582
f 521 520 519
f 425 453 115
f 616 622 158
f 483 130 508
f 151 586 572
f 212 17 232
f 400 397 402
f 377 396 99
f 41 522 511
f 510 508 505
f 549 547 42
f 475 473 36
f 510 137 509
f 222 221 197
f 430 115 429
f 220 194 1
f 305 54 204
f 621 29 613
f 192 171 184
f 460 335 5
f 88 331 332
f 74 277 279
f 300 301 80
f 390 389 388
f 165 45 164
f 146 549 551
f 291 278 75
f 448 120 445
f 147 543 544
f 607 610 609
f 603 602 356
f 139 529 514
f 333 553 443
f 92 368 347
f 261 260 259
f 300 6 200
f 46 177 331
f 284 283 174
f 301 300 200
f 471 468 474
f 54 305 301
f 302 304 303
f 569 150 567
f 150 569 570
f 294 209 2
f 628 629 160
f 548 543 147
f 147 625 627
f 63 233 234
f 426 427 114
f 41 509 532
f 198 52 196
f 614 105 612
f 147 627 547
f 81 305 306
f 549 548 547
f 54 301 200
f 342 88 332
f 264 281 70
f 193 194 53
f 455 429 456
f 187 321 14
f 479 130 484
f 147 544 625
f 458 456 453
f 304 80 303
f 314 84 313
f 488 503 501
f 321 332 14
f 423 425 424
f 305 204 306
f 341 339 25
f 514 40 516
f 625 628 627
f 340 339 341
f 105 614 391
f 243 228 62
f 318 316 78
f 75 278 279
f 357 355 353
f 238 257 63
f 466 455 476
f 425 423 4
f 448 449 120
f 408 638 108
f 292 275 285
f 22 278 289
f 515 513 517
f 501 503 134
f 622 623 158
f 134 503 504
f 195 216 206
f 163 271 246
f 619 617 620
f 62 228 229
f 163 165 164
f 453 425 454
f 489 132 488
f 82 628 625
f 58 208 209
f 525 608 40
f 626 547 627
f 518 517 498
f 489 487 491
f 557 26 564
f 325 336 344
f 541 145 539
f 40 616 516
f 338 556 89
f 250 248 245
f 139 514 515
f 98 594 596
f 246 220 1
f 112 413 630
f 9 536 413
f 156 600 601
f 332 177 14
f 321 342 332
f 156 606 600
f 584 330 585
f 302 303 81
f 584 87 330
f 330 25 585
f 400 239 65
f 439 440 117
f 95 358 368
f 597 594 131
f 594 361 486
f 246 67 245
f 561 562 149
f 28 364 362
f 55 216 217
f 427 430 114
f 267 20 254
f 556 555 553
f 84 309 558
f 311 310 312
f 609 525 142
f 256 68 255
f 124 460 461
f 82 311 312
f 307 308 82
f 589 135 495
f 527 40 514
f 112 418 412
f 20 256 254
f 258 238 19
f 267 254 269
f 273 272 249
f 392 391 393
f 137 533 509
f 122 455 456
f 9 413 411
f 130 480 505
f 333 443 5
f 527 525 40
f 589 495 385
f 39 496 485
f 223 225 224
f 414 416 415
f 219 222 53
f 145 538 539
f 413 412 411
f 469 468 467
f 183 181 6
f 191 192 50
f 429 35 431
f 292 285 76
f 413 112 412
f 415 110 412
f 43 164 167
f 467 468 126
f 617 101 620
f 450 451 117
f 438 546 545
f 619 620 159
f 17 212 210
f 124 579 576
f 584 153 583
f 460 124 576
f 3 469 467
f 311 308 314
f 6 320 183
f 389 104 388
f 251 250 249
f 194 165 1
f 291 289 278
f 287 77 348
f 238 258 257
f 139 517 518
f 238 236 19
f 223 247 19
f 382 380 29
f 39 518 498
f 361 359 3
f 69 255 257
f 139 518 528
f 33 545 535
f 387 385 7
f 69 268 269
f 477 462 125
f 454 479 123
f 121 555 447
f 451 435 117
f 454 425 4
f 233 252 8
f 124 463 464
f 69 258 268
f 168 167 166
f 583 153 582
f 384 394 102
f 138 512 513
f 57 210 211
f 254 256 255
f 607 609 142
f 324 319 86
f 289 291 76
f 291 292 76
f 384 102 383
f 422 421 420
f 221 17 197
f 383 102 381
f 376 377 99
f 99 373 374
f 386 105 392
f 438 33 440
f 90 341 343
f 281 75 279
f 574 571 96
f 628 82 312
f 221 222 59
f 127 471 474
f 595 605 603
f 551 538 145
f 334 91 340
f 322 324 85
f 305 303 301
f 18 239 399
f 306 204 16
f 199 198 197
f 166 190 180
f 303 80 301
f 267 266 265
f 626 42 547
f 16 215 213
f 349 351 350
f 295 16 213
f 68 379 252
f 250 251 66
f 627 160 626
f 383 68 256
f 343 88 342
f 507 508 136
f 202 215 16
f 197 198 53
f 254 69 269
f 603 605 156
f 418 419 111
f 384 383 256
f 455 122 476
f 203 204 54
f 556 557 148
f 255 68 253
f 313 84 560
f 25 328 341
f 254 255 69
f 603 156 602
f 581 584 583
f 630 632 112
f 163 246 1
f 246 245 220
f 432 116 558
f 499 591 590
f 320 563 86
f 345 93 350
f 306 16 295
f 346 93 345
f 562 568 149
f 604 605 155
f 154 592 593
f 545 552 535
f 511 522 530
f 574 573 571
f 566 150 565
f 361 98 360
f 67 271 273
f 234 235 65
f 208 211 56
f 574 151 573
f 251 270 66
f 398 8 378
f 213 215 214
f 438 440 439
f 315 314 313
f 263 71 262
f 20 373 384
f 496 134 504
f 329 88 328
f 81 306 316
f 555 556 148
f 592 589 103
f 617 619 107
f 227 207 56
f 571 359 96
f 446 466 465
f 206 216 55
f 359 571 469
f 568 148 570
f 34 437 435
f 28 351 349
f 21 272 282
f 113 423 424
f 490 489 488
f 379 68 383
f 210 212 211
f 80 563 300
f 351 92 350
f 326 346 12
f 83 317 318
f 555 148 554
f 212 231 56
f 218 57 217
f 271 67 246
f 195 196 52
f 270 268 66
f 390 592 103
f 148 568 554
f 495 493 7
f 592 390 593
f 357 95 355
f 574 575 151
f 452 120 451
f 154 591 592
f 587 585 577
f 395 394 396
f 93 349 350
f 610 416 611
f 166 44 190
f 315 23 302
f 315 302 317
f 268 247 66
f 606 154 593
f 396 394 99
f 211 212 56
f 370 369 368
f 235 397 65
f 280 278 22
f 83 315 317
f 575 588 151
f 74 279 280
f 385 495 7
f 63 257 253
f 397 235 398
f 214 58 213
f 220 219 194
f 546 146 545
f 236 225 19
f 599 94 602
f 235 233 8
f 102 394 395
f 611 416 32
f 225 223 19
f 139 528 529
f 231 62 229
f 419 406 421
f 451 450 452
f 49 182 185
f 402 397 107
f 52 199 218
f 416 610 110
f 225 236 244
f 107 397 398
f 68 252 253
f 322 85 321
f 182 181 183
f 118 438 439
f 546 438 118
f 348 77 345
f 543 546 118
f 231 212 232
f 610 611 157
f 33 438 545
f 385 386 103
f 479 480 130
f 169 195 15
f 93 583 349
f 15 195 206
f 190 44 192
f 247 248 66
f 146 552 545
f 248 60 245
f 570 557 564
f 274 271 43
f 63 253 233
f 272 21 249
f 507 528 518
f 67 273 249
f 487 467 126
f 196 195 169
f 624 159 623
f 134 496 497
f 132 503 488
f 104 393 395
f 556 553 89
f 355 356 94
f 258 69 257
f 229 61 227
f 56 231 227
f 460 576 335
f 463 124 461
f 394 373 99
f 29 393 391
f 67 250 245
f 193 198 196
f 462 36 464
f 144 633 630
f 141 526 527
f 517 133 498
f 536 144 630
f 100 372 599
f 144 536 537
f 22 289 287
f 578 579 152
f 579 578 576
f 189 188 187
f 60 223 224
f 92 348 350
f 555 554 447
f 396 377 388
f 194 193 165
f 413 536 630
f 372 352 599
f 377 376 375
f 348 345 350
f 105 386 387
f 240 237 234
f 463 462 464
f 135 500 494
f 45 196 169
f 512 612 387
f 245 60 220
f 429 115 456
f 223 60 248
f 288 289 76
f 525 526 142
f 100 599 601
f 613 29 391
f 526 523 520
f 341 328 343
f 631 641 639
f 264 21 282
f 266 72 265
f 106 402 403
f 73 273 274
f 186 206 205
f 381 379 383
f 52 216 195
f 410 18 399
f 290 272 73
f 72 371 374
f 526 525 527
f 115 430 424
f 498 497 496
f 621 382 29
f 543 118 434
f 214 215 57
f 522 141 530
f 511 510 509
f 352 94 599
f 493 512 7
f 90 340 341
f 169 171 170
f 605 604 606
f 219 60 224
f 104 389 392
f 359 469 3
f 186 49 185
f 222 219 224
f 166 167 44
f 428 427 426
f 523 522 524
f 129 502 481
f 50 185 188
f 164 45 170
f 425 115 424
f 33 428 426
f 427 428 113
f 94 356 602
f 515 138 513
f 114 431 452
f 237 236 238
f 215 217 57
f 95 354 355
f 220 60 219
f 515 514 516
f 183 320 319
f 222 197 53
f 559 569 567
f 300 320 6
f 435 436 117
f 96 360 363
f 640 642 641
f 242 243 62
f 140 537 519
f 508 130 505
f 420 410 399
f 537 539 144
f 317 316 318
f 426 114 450
f 186 15 206
f 311 83 310
f 625 544 307
f 544 10 307
f 168 43 167
f 185 182 188
f 369 354 95
f 44 171 192
f 605 606 156
f 548 549 146
f 100 601 375
f 149 568 569
f 381 380 382
f 455 466 35
f 480 479 454
f 543 548 546
f 493 133 513
f 492 472 37
f 477 125 476
f 491 487 126
f 337 336 338
f 588 153 587
f 576 578 91
f 633 161 632
f 96 359 360
f 39 485 483
f 101 617 378
f 193 45 165
f 163 164 43
f 618 624 611
f 507 136 528
f 561 149 560
f 641 162 639
f 116 561 558
f 494 133 493
f 253 252 233
f 63 237 238
f 392 393 104
f 440 450 117
f 93 581 583
f 386 385 387
f 120 449 451
f 421 422 111
f 486 3 467
f 302 81 317
f 633 632 630
f 462 475 36
f 376 99 374
f 489 490 131
f 447 449 448
f 387 612 105
f 106 420 399
f 173 46 172
f 492 491 472
f 316 306 295
f 22 287 347
f 109 410 420
f 507 39 483
f 559 23 313
f 214 57 211
f 196 45 193
f 10 434 432
f 422 106 403
f 626 160 640
f 487 486 467
f 542 41 532
f 400 106 399
f 444 120 452
f 198 199 52
f 475 127 474
f 621 620 382
f 621 623 159
f 450 114 452
f 92 347 348
f 376 100 375
f 434 118 433
f 503 132 502
f 337 90 336
f 537 536 519
f 395 393 380
f 201 54 200
f 171 44 170
f 355 94 353
f 58 296 213
f 422 420 106
f 595 365 596
f 569 568 570
f 523 140 520
f 114 430 431
f 218 210 57
f 304 566 80
f 639 162 638
f 261 371 72
f 548 147 547
f 498 133 497
f 150 570 564
f 222 224 59
f 142 526 520
f 437 436 435
f 141 522 523
f 137 510 505
f 173 179 176
f 559 149 569
f 121 447 448
f 563 320 300
f 102 395 380
f 257 255 253
f 642 162 641
f 83 311 314
f 216 52 218
f 512 493 513
f 23 304 302
f 91 339 340
f 512 138 612
f 159 620 621
f 218 199 210
f 364 28 575
f 83 318 310
f 168 274 43
f 136 530 528
f 140 523 524
f 495 135 494
f 233 235 234
f 566 563 80
f 25 339 577
f 277 74 276
f 475 462 477
f 133 494 497
f 436 437 116
f 389 386 392
f 548 146 546
f 441 460 5
f 10 309 307
f 65 397 400
f 543 434 544
f 640 641 161
f 272 273 73
f 581 93 346
f 419 421 111
f 319 320 86
f 180 179 178
f 127 475 477
f 231 229 227
f 337 334 340
f 136 508 510
f 308 309 84
f 237 63 234
f 447 554 34
f 252 379 378
f 315 83 314
f 608 622 616
f 338 336 26
f 337 338 89
f 13 275 168
f 209 208 207
f 436 439 117
f 628 312 629
f 360 366 363
f 364 574 96
f 359 361 360
f 466 446 35
f 500 501 134
f 406 109 421
f 135 589 591
f 601 599 602
f 340 90 337
f 481 492 37
f 522 41 524
f 78 316 295
f 131 486 487
f 403 32 414
f 634 626 640
f 151 572 573
f 515 516 138
f 8 252 378
f 265 72 374
f 9 521 519
f 538 549 42
f 368 358 347
f 588 587 586
f 458 453 123
f 589 385 103
f 502 492 481
f 32 416 414
f 430 427 424
f 153 585 587
f 540 144 539
f 370 368 92
f 209 293 58
f 428 33 535
f 326 581 346
f 625 307 82
f 575 28 582
f 6 181 200
f 421 109 420
f 553 121 443
f 160 642 640
f 153 584 585
f 309 432 558
f 334 337 89
f 23 315 313
f 271 163 43
f 296 295 213
f 39 498 496
f 118 439 433
f 531 113 534
f 293 296 58
f 28 362 351
f 489 131 487
f 431 444 452
f 84 558 560
f 98 366 360
f 45 169 170
f 379 101 378
f 462 463 125
f 308 84 314
f 10 432 309
f 299 24 310
f 132 492 502
f 512 387 7
f 639 638 408
f 565 323 86
f 59 244 242
f 106 400 402
f 440 33 426
f 566 565 563
f 617 398 378
f 224 225 59
f 410 109 409
f 239 400 399
f 194 219 53
f 358 22 347
f 610 157 609
f 27 595 603
f 479 484 482
f 142 520 521
f 585 25 577
f 339 578 577
f 408 407 406
f 407 109 406
f 31 408 406
f 407 408 108
f 31 639 408
f 419 31 406
f 608 616 40
f 430 429 431
f 455 35 429
f 35 444 431
f 188 51 187
f 188 182 51
f 51 322 187
f 322 51 319
f 51 182 183
f 319 51 183
f 187 322 321
f 322 319 324
f 381 101 379
f 405 407 108
f 404 405 108
f 286 285 178
f 407 405 409
f 109 407 409
f 191 175 47
f 167 164 170
f 50 184 185
f 44 167 170
f 64 244 236
f 243 244 64
f 50 188 189
f 541 542 145
f 442 445 119
f 339 91 578
f 445 446 119
f 624 623 622
f 611 624 157
f 523 526 141
f 141 527 529
f 527 514 529
f 445 120 444
f 446 445 444
f 35 446 444
f 613 614 158
f 158 614 615
f 623 613 158
f 614 613 391
f 614 612 615
f 371 376 374
f 100 376 371
f 479 482 123
f 373 394 384
f 540 42 634
f 633 540 634
f 538 42 540
f 633 634 161
f 161 634 640
f 42 626 634
f 540 633 144
f 557 556 338
f 553 333 89
f 262 21 264
f 251 21 262
f 5 335 333
f 270 251 262
f 21 251 249
f 600 593 30
f 606 593 600
f 600 30 375
f 593 390 30
f 30 377 375
f 390 388 30
f 30 388 377
f 228 243 241
f 470 478 459
f 470 127 478
f 127 477 478
f 184 186 185
f 478 477 476
f 122 478 476
f 357 74 280
f 518 39 507
f 344 342 85
f 325 344 85
f 342 344 343
f 85 342 321
f 344 90 343
f 90 344 336
f 482 129 481
f 482 481 457
f 482 457 123
f 481 37 457
f 449 447 34
f 435 449 34
f 470 472 471
f 472 470 37
f 470 471 127
f 472 126 471
f 126 468 471
f 470 459 37
f 491 126 472
f 504 129 485
f 221 59 242
f 125 463 465
f 437 34 562
f 561 437 562
f 554 568 562
f 34 554 562
f 437 561 116
f 390 103 389
f 103 386 389
f 392 105 391
f 572 586 580
f 572 580 36
f 586 152 580
f 473 572 36
f 244 243 242
f 225 244 59
f 64 240 241
f 240 239 241
f 237 240 64
f 243 64 241
f 236 237 64
f 411 607 521
f 9 411 521
f 110 607 411
f 607 142 521
f 610 607 110
f 171 15 184
f 171 169 15
f 15 186 184
f 87 584 581
f 153 588 582
f 588 575 582
f 381 102 380
f 573 572 473
f 468 469 128
f 474 468 128
f 469 571 128
f 571 573 128
f 573 473 128
f 473 474 128
f 564 323 565
f 26 323 564
f 323 324 86
f 325 323 26
f 325 324 323
f 563 565 86
f 324 325 85
f 410 230 18
f 230 228 18
f 18 228 241
f 18 241 239
f 401 619 618
f 401 402 107
f 403 402 401
f 619 159 618
f 401 618 32
f 619 401 107
f 403 401 32
f 618 611 32
f 159 624 618
f 478 122 459
f 122 458 459
f 37 459 457
f 459 458 457
f 122 456 458
f 457 458 123
f 191 190 192
f 485 129 484
f 129 482 484
f 483 485 484
f 130 483 484
f 189 187 14
f 191 50 189
f 191 189 175
f 189 14 175
f 14 177 175
f 499 501 500
f 501 499 38
f 38 499 590
f 135 499 500
f 488 501 38
f 499 135 591
f 480 454 4
f 284 12 346
f 4 423 506
f 480 4 506
f 423 531 506
f 480 506 505
f 531 137 506
f 506 137 505
f 365 366 98
f 71 270 262
f 270 71 269
f 71 267 269
f 335 334 333
f 333 334 89
f 334 335 91
f 536 9 519
f 465 463 461
f 537 140 541
f 520 140 519
f 119 446 465
f 465 461 119
f 461 441 119
f 460 441 461
f 176 46 173
f 299 297 24
f 71 263 266
f 263 260 266
f 260 72 266
f 263 70 260
f 205 201 49
f 201 181 49
f 186 205 49
f 181 201 200
f 181 182 49
f 284 77 283
f 586 587 152
f 588 586 151
f 20 267 265
f 266 267 71
f 31 417 631
f 631 417 632
f 31 631 639
f 417 31 419
f 641 631 161
f 417 112 632
f 161 631 632
f 418 417 419
f 417 418 112
f 284 345 77
f 542 550 145
f 542 541 524
f 284 174 12
f 48 174 283
f 373 20 265
f 373 265 374
f 609 608 525
f 608 157 622
f 560 559 313
f 636 637 162
f 541 140 524
f 41 542 524
f 358 357 280
f 70 263 264
f 263 262 264
f 176 177 46
f 174 48 173
f 174 173 172
f 538 551 549
f 538 540 539
f 537 541 539
f 232 221 242
f 17 221 232
f 232 242 62
f 231 232 62
f 203 205 55
f 203 55 202
f 201 205 203
f 202 55 217
f 205 206 55
f 204 203 202
f 73 275 292
f 292 290 73
f 272 290 282
f 290 292 291
f 75 290 291
f 290 75 282
f 70 277 259
f 277 70 281
f 277 281 279
f 260 70 259
f 12 174 172
f 104 396 388
f 367 27 354
f 365 27 367
f 354 27 356
f 365 367 366
f 595 27 365
f 318 299 310
f 155 596 597
f 155 597 598
f 596 594 597
f 595 596 155
f 605 595 155
f 180 47 179
f 180 190 47
f 352 372 11
f 11 372 261
f 312 310 24
f 642 636 162
f 636 297 637
f 367 369 97
f 366 367 97
f 369 367 354
f 369 370 97
f 580 579 464
f 580 152 579
f 579 124 464
f 61 230 409
f 230 410 409
f 230 61 229
f 230 229 228
f 76 285 286
f 353 352 276
f 74 353 276
f 288 76 286
f 288 286 283
f 289 288 287
f 203 54 201
f 287 288 77
f 77 288 283
f 286 48 283
f 531 423 113
f 276 11 259
f 11 261 259
f 277 276 259
f 616 158 615
f 516 616 615
f 138 516 615
f 138 615 612
f 509 533 532
f 503 502 504
f 635 79 294
f 635 294 404
f 635 637 79
f 637 635 638
f 638 635 108
f 635 404 108
f 226 61 405
f 61 226 227
f 405 61 409
f 227 226 207
f 48 178 179
f 48 286 178
f 173 48 179
f 534 143 533
f 534 535 143
f 531 534 533
f 533 143 532
f 137 531 533
f 261 372 371
f 13 180 178
f 285 13 178
f 180 13 166
f 13 168 166
f 346 345 284
f 331 327 46
f 46 327 172
f 172 327 326
f 382 620 101
f 442 121 448
f 443 121 442
f 2 226 404
f 294 2 404
f 404 226 405
f 207 226 2
f 550 551 145
f 552 146 551
f 143 550 532
f 552 550 143
f 330 329 328
f 24 636 629
f 94 352 353
f 352 11 276
f 113 428 534
f 428 535 534
f 509 41 511
f 535 552 143
f 550 552 551
f 550 542 532
f 369 95 368
f 326 327 87
f 87 327 329
f 327 331 329
f 581 326 87
f 293 79 298
f 79 297 298
f 296 298 78
f 79 293 294
f 296 293 298
f 598 490 38
f 358 280 22
f 280 279 278
f 357 358 95
f 74 357 353
f 330 328 25
f 567 23 559
f 590 598 38
f 590 604 598
f 598 604 155
f 604 590 154
f 590 591 154
f 604 154 606
f 297 299 298
f 299 318 78
f 298 299 78
f 355 354 356
f 629 636 642
f 312 24 629
f 629 642 160
f 370 362 97
f 362 363 97
f 363 366 97
f 364 363 362
f 362 370 351
f 96 363 364
f 297 636 24
f 162 637 638
f 637 297 79
f 490 488 38
f 598 597 490
f 441 442 119
f 443 442 441
f 443 441 5
f 442 448 445
f 296 78 295
f 326 12 172
f 575 574 364
f 47 175 176
f 175 177 176
f 47 176 179
