# FEM surface export ¡ª frame 841
# Vertices: 642  Faces: 1280
v -0.54690945 0.84324139 -0.02120737
v 0.49750820 0.90840334 -0.01223223
v -0.51931220 0.74661618 0.00496275
v 0.58843648 0.60918522 0.02256913
v 0.00808966 0.34159732 0.89048076
v -0.03780397 0.56896770 0.84088153
v -0.01734846 0.45205748 -0.85659075
v 0.00488095 0.52663374 -0.85409147
v 0.88485277 0.12400453 -0.55030245
v 0.89205343 0.14047752 0.55701733
v -0.92043680 0.08344663 -0.55262607
v -0.89331079 0.08211429 0.53806269
v -0.80105525 0.49265835 0.31100681
v -0.52552962 0.33246398 0.80305541
v -0.38387203 0.82493854 0.47894511
v 0.25641581 0.87402385 0.49267563
v -0.03547006 1.03932822 -0.05015919
v 0.30290547 0.82370931 -0.53112262
v -0.31330714 0.78258890 -0.53174621
v -0.50690114 0.32141438 -0.82689446
v -0.79121327 0.52745652 -0.31279743
v -1.05676496 0.12090013 -0.02567082
v 0.46712729 0.43129414 0.83384889
v 0.79982436 0.60695702 0.29886481
v -0.50644422 0.16979910 0.78519952
v 0.01497751 0.11039850 1.07153952
v -0.78482211 0.35451341 -0.28610432
v -0.78396910 0.41265509 0.34106281
v -0.02347176 0.11234125 -1.06741250
v -0.52577829 0.17557716 -0.80248755
v 0.80374789 0.56709981 -0.32905918
v 0.50301909 0.35673684 -0.80235207
v 0.82481211 0.20460904 0.26086068
v 0.55832595 0.14625941 0.80001664
v 0.33185539 0.56168586 0.48605108
v -0.21574238 0.66830593 0.51572937
v 0.03342184 0.56216079 0.04371221
v -0.25098190 0.52314991 -0.48156241
v 0.35018969 0.66694129 -0.48696932
v 0.45555523 0.23251741 -0.83039081
v 0.81052381 0.35068423 -0.32021308
v 1.05614650 0.15634722 -0.00755592
v -0.69830626 0.69049335 0.14600249
v -0.61294907 0.68366188 0.41081351
v -0.48121366 0.87393939 0.24332824
v -0.70193094 0.18230017 0.71459949
v -0.71199280 0.43011591 0.59652716
v -0.85089147 0.27436894 0.43917367
v -0.23046863 0.73160237 0.67954940
v -0.47021019 0.58554620 0.68615860
v -0.28640196 0.47206846 0.84664744
v -0.22296377 0.99073011 0.23142521
v -0.30583489 0.97135478 -0.04136396
v 0.10647637 0.75896567 0.69581670
v -0.07106173 0.90274429 0.51549304
v 0.24042571 1.01232314 -0.02940745
v 0.10894749 1.00408363 0.23503864
v 0.39050213 0.92391747 0.25676501
v -0.18020970 0.95310682 -0.31867820
v -0.44381112 0.83890730 -0.29526371
v 0.42722839 0.89080799 -0.27975282
v 0.14810127 0.97364450 -0.30694383
v -0.16565077 0.66249573 -0.71957695
v -0.00840995 0.83884430 -0.56717199
v 0.16589260 0.68328828 -0.71508098
v -0.58951432 0.67865902 -0.43926007
v -0.68262398 0.69971710 -0.16410248
v -0.25691000 0.43035308 -0.87978655
v -0.42838836 0.58178985 -0.71100599
v -0.88127327 0.31722468 -0.46671581
v -0.69174790 0.44083250 -0.59609628
v -0.71538323 0.22091694 -0.70876235
v -0.82343483 0.52486497 -0.00087271
v -1.04573715 0.09591393 -0.28215280
v -0.97466689 0.33580250 -0.18584719
v -0.94739318 0.30460227 0.15228033
v -1.01350713 0.15440342 0.27400783
v 0.56072724 0.77230459 0.42289385
v 0.66067743 0.78722656 0.15006502
v 0.20941056 0.51325035 0.87868547
v 0.38530889 0.66231054 0.68892699
v 0.86912787 0.39898261 0.45160520
v 0.66666156 0.55128860 0.60042036
v 0.70256931 0.30908531 0.72787714
v -0.30137739 0.25074276 0.98428607
v -0.03585158 0.34782925 0.98877436
v -0.73190480 0.08547933 0.67605126
v -0.54272205 0.03659983 0.90745163
v 0.01957216 0.06490555 0.98630303
v -0.27606031 0.00172352 0.97216135
v -0.25873736 0.25219348 0.84103900
v -0.96568346 0.14414628 0.18642490
v -0.87013328 0.14459662 0.41619620
v -0.86376989 0.16594315 -0.45002231
v -0.92552030 0.19672558 -0.11469212
v -0.66549641 0.63511902 0.17378490
v -0.81767482 0.39325032 0.03936513
v -0.68440413 0.56731123 -0.13306230
v -0.55994916 0.11664339 -0.89603716
v -0.73926789 0.05723841 -0.67980260
v 0.00821152 0.32185537 -0.99922949
v -0.26639387 0.18506840 -0.98244756
v -0.28527719 0.33462664 -0.85417753
v -0.28698379 0.08644718 -0.93082386
v -0.06446294 0.15957750 -0.98998922
v 0.42376450 0.59170282 -0.70571220
v 0.26393387 0.45101935 -0.87233073
v 0.66489458 0.76626253 -0.18611018
v 0.57545686 0.70790964 -0.45142075
v 0.72551930 0.22320198 -0.70165515
v 0.69613171 0.47424504 -0.60036325
v 0.87336791 0.34774747 -0.44952062
v 0.75287634 0.43986687 0.17226395
v 0.61722183 0.41424808 0.42547634
v 0.50292909 0.62391460 0.29040658
v 0.74378330 0.00145442 0.71426386
v 0.69611871 0.16755819 0.53103685
v 0.89409459 0.10485634 0.37260270
v 0.21114595 0.50527352 0.74427199
v 0.49575460 0.36636150 0.64979219
v 0.27854922 0.26392975 0.84695238
v 0.22490542 0.74723971 0.27548996
v 0.31062835 0.51980662 0.06748908
v -0.13397670 0.51447231 0.75201464
v 0.06551418 0.67097521 0.55981404
v -0.25647831 0.65376312 0.04678008
v -0.09023070 0.77511275 0.28270423
v -0.39344069 0.73384374 0.29646158
v 0.24511348 0.59396058 -0.25436953
v 0.47338203 0.66225535 -0.23403855
v -0.38483769 0.66882777 -0.25241873
v -0.08084467 0.57252979 -0.20406340
v 0.16561927 0.60181636 -0.67281884
v 0.01923107 0.74964482 -0.46087259
v -0.18747620 0.58549029 -0.66741419
v 0.60165459 0.52326673 -0.45736346
v 0.72121680 0.51431590 -0.15347730
v 0.22964223 0.30709186 -0.84833086
v 0.41555545 0.47366866 -0.70908618
v 0.90221697 0.11062086 -0.47681311
v 0.69464439 0.28237525 -0.62017876
v 0.69978714 0.14720312 -0.75837374
v 0.83664525 0.29202020 -0.01511040
v 1.00898981 0.13052206 -0.29038215
v 0.98955506 0.13641483 -0.16494928
v 0.97849768 0.00000000 0.10018913
v 1.00510657 0.16816254 0.30020431
v 0.32846153 0.01643717 0.99885565
v 0.55122912 0.15643199 0.91551220
v 0.22771202 0.25300348 0.98418951
v -0.54086161 0.58770353 0.45589334
v -0.38131234 0.47003219 0.71620357
v -0.66317135 0.33719897 0.56885761
v -0.44423738 0.45667282 -0.66716254
v -0.59850609 0.53737146 -0.40155104
v -0.67683208 0.24203359 -0.58213681
v 0.55250126 0.06600570 -0.89710301
v 0.22633788 0.01677866 -0.95387948
v 0.28166458 0.20437033 -0.98130876
v 0.97451800 0.40165740 0.16463622
v 0.96358538 0.35001299 -0.15412465
v 0.83988309 0.61965084 -0.01436593
v -0.62533844 0.77989656 0.07158644
v -0.59059590 0.79063016 0.20115222
v -0.51486963 0.87172443 0.11003514
v -0.70805502 0.58767295 0.35581914
v -0.65758699 0.70025039 0.28158391
v -0.74753106 0.59713328 0.22836883
v -0.44131103 0.85382468 0.36753717
v -0.54811680 0.78606212 0.33707437
v -0.50721568 0.75937396 0.45957366
v -0.80252361 0.12737189 0.63826466
v -0.78473359 0.23697270 0.57533854
v -0.87256598 0.17827690 0.50977260
v -0.61966312 0.38049263 0.70174885
v -0.70559925 0.29379958 0.64473975
v -0.62710297 0.25108412 0.76693791
v -0.84781939 0.38687027 0.38095415
v -0.79257470 0.35978052 0.51751208
v -0.77468604 0.46531793 0.45156726
v -0.13746628 0.66280782 0.76185286
v -0.25644904 0.60192156 0.77300268
v -0.16168867 0.53115284 0.84817743
v -0.42442608 0.70775867 0.59088832
v -0.35500041 0.66279781 0.69443011
v -0.30655533 0.79713869 0.58669478
v -0.42069641 0.40520546 0.81919992
v -0.37219200 0.52684706 0.75547922
v -0.49318564 0.46872309 0.74271500
v -0.67535734 0.55865580 0.50147712
v -0.60284436 0.51316988 0.64344776
v -0.55184072 0.64404726 0.55853665
v -0.39695984 0.93924457 0.10065796
v -0.43594304 0.91333437 -0.03264939
v -0.31206828 0.92098612 0.35876039
v -0.35727391 0.94370711 0.23869362
v -0.17114465 1.00750327 -0.04850402
v -0.26133078 0.99022889 0.09430644
v -0.12570477 1.02722716 0.09368955
v 0.02720293 0.66792274 0.78048432
v -0.06225942 0.75017142 0.70314264
v 0.08913260 0.90592521 0.50905001
v 0.02007514 0.83391058 0.61079836
v 0.18356754 0.83073437 0.59640682
v -0.15373079 0.82669824 0.60877252
v -0.23264751 0.87705994 0.49723053
v 0.37651843 0.96401626 -0.02712673
v 0.32127023 0.98359489 0.10620620
v 0.44560471 0.92901647 0.12301350
v 0.03408485 1.02764499 0.09381256
v 0.17694232 1.01980245 0.10096623
v 0.10217862 1.04028010 -0.03523789
v 0.32323661 0.90782213 0.37890500
v 0.25424433 0.96930611 0.24172843
v 0.17630078 0.94839084 0.37322140
v -0.14981572 0.96057713 0.37327832
v 0.01399290 0.96938658 0.37648934
v -0.06024697 1.01175487 0.23228505
v -0.38224384 0.91501015 -0.16772215
v -0.50391924 0.85420036 -0.16081102
v -0.10969001 0.99819672 -0.19195676
v -0.24759193 0.96776026 -0.18333970
v -0.37684405 0.82033789 -0.41773680
v -0.31796467 0.90827304 -0.30728424
v -0.24286360 0.87498879 -0.42868930
v 0.46863183 0.90536743 -0.14585231
v 0.33823091 0.96261394 -0.15841030
v 0.23824427 0.90794724 -0.41771162
v 0.29181290 0.94879675 -0.28833222
v 0.36781099 0.86313879 -0.40477502
v 0.19581109 1.00165451 -0.16787113
v 0.06023179 1.01502049 -0.17784418
v -0.07950391 0.60007918 -0.79428023
v -0.00222449 0.68541533 -0.72055709
v 0.08020300 0.61072582 -0.79078263
v -0.16903718 0.81161356 -0.55634028
v -0.08951965 0.75413895 -0.64373869
v -0.24282625 0.72693765 -0.63588756
v 0.23076823 0.76288617 -0.63242805
v 0.07301828 0.76936299 -0.64591336
v 0.15008612 0.84816492 -0.55332512
v -0.01364231 0.97450227 -0.32192934
v 0.07243183 0.91942596 -0.44505528
v -0.09002234 0.89628088 -0.44866654
v -0.57751888 0.77347249 -0.22799811
v -0.62544054 0.77268708 -0.09052981
v -0.45631504 0.73599428 -0.48728177
v -0.52027160 0.76406819 -0.36300644
v -0.73950499 0.61125499 -0.24206461
v -0.64314389 0.68913466 -0.30235493
v -0.69552851 0.60801476 -0.37911752
v -0.12593889 0.46925256 -0.87217855
v -0.20634273 0.55284786 -0.80356073
v -0.46440870 0.46481934 -0.77575499
v -0.33389652 0.51432335 -0.79500782
v -0.38781390 0.39414796 -0.85420686
v -0.30282220 0.63207555 -0.71097606
v -0.37765256 0.69077110 -0.62102157
v -0.91503334 0.21785904 -0.52525997
v -0.80273354 0.27556098 -0.60344225
v -0.81561291 0.16030300 -0.64129901
v -0.76036465 0.48981744 -0.45177528
v -0.79454440 0.38215363 -0.52742594
v -0.85542452 0.42102715 -0.38798502
v -0.62212533 0.28754529 -0.77849329
v -0.70191693 0.34280992 -0.66811997
v -0.58980769 0.40874064 -0.73341334
v -0.51442307 0.64063907 -0.57618070
v -0.56525928 0.53246742 -0.66568166
v -0.64675605 0.56758893 -0.51909584
v -0.70364839 0.70096409 -0.00370003
v -0.81789768 0.53983504 -0.16215494
v -0.75593752 0.62493640 -0.08017354
v -0.77074856 0.59716415 0.06925830
v -0.82023722 0.51968509 0.16331144
v -0.98160899 0.09011103 -0.42620435
v -0.97556621 0.20471089 -0.38447151
v -1.04106081 0.24937008 -0.09581102
v -1.02165520 0.21975133 -0.24694066
v -1.02411139 0.11646443 -0.16023883
v -0.92922461 0.32863307 -0.32802221
v -0.88561064 0.43050674 -0.25992548
v -0.93204606 0.20213957 0.37097636
v -0.97033590 0.11647366 0.40517366
v -0.87097168 0.39259994 0.24394454
v -0.92609203 0.30138549 0.29470307
v -1.03645813 0.10191882 0.12825094
v -0.99573565 0.19473881 0.20306115
v -1.02517951 0.21586837 0.07377405
v -0.90537637 0.43243295 -0.09153837
v -0.96939224 0.32478228 -0.01290581
v -0.90046781 0.42414945 0.08361060
v 0.53246713 0.86679757 0.20428678
v 0.58154553 0.84816396 0.06536686
v 0.41433153 0.83532053 0.46566224
v 0.48400024 0.85453784 0.34694645
v 0.73774230 0.70529956 0.22746079
v 0.61988866 0.78878945 0.28896478
v 0.68944579 0.69811898 0.36541361
v 0.08271801 0.54463810 0.86183894
v 0.15895830 0.64234900 0.79088598
v 0.43727535 0.55031896 0.77222651
v 0.29890546 0.59903628 0.77843231
v 0.33998027 0.48486525 0.87143433
v 0.24671708 0.72315413 0.69964039
v 0.32502159 0.77791584 0.60379398
v 0.88525093 0.26339331 0.51002729
v 0.79412043 0.34412578 0.58764583
v 0.79845148 0.21953638 0.63959938
v 0.74134088 0.58055431 0.45606953
v 0.77291423 0.47893915 0.53129828
v 0.84675956 0.50939691 0.38416293
v 0.59124494 0.37905988 0.78396523
v 0.69316864 0.42798394 0.65786439
v 0.58382827 0.49488163 0.72330773
v 0.47939947 0.73606724 0.56597203
v 0.53041244 0.62197047 0.65680969
v 0.61852217 0.66435111 0.51440871
v -0.17069963 0.41627070 0.92443812
v -0.04203248 0.44988912 0.92194980
v -0.42650017 0.30246073 0.89003974
v -0.30440468 0.35991386 0.90568125
v -0.01146618 0.21291347 1.02972114
v -0.16827576 0.30541882 0.98203748
v -0.15632790 0.19066024 1.04438365
v -0.82673931 0.01538165 0.66079938
v -0.73712915 0.03743733 0.72702706
v -0.56689394 0.05651611 0.83698046
v -0.66823936 0.00501341 0.80455750
v -0.62443966 0.11844083 0.73625118
v -0.63750571 0.11548907 0.82800329
v -0.55327034 0.20434159 0.86555332
v -0.00058003 0.20769307 0.93885553
v -0.12270370 0.14180411 0.89899504
v -0.12954709 0.29370666 0.87715811
v -0.13998345 0.04446476 1.05539393
v -0.13881007 0.04125239 0.99322653
v 0.00734779 0.00124992 1.05788493
v -0.40262538 0.16278109 0.79509872
v -0.24753672 0.12195707 0.88662255
v -0.39902905 0.07699376 0.88473988
v -0.43780440 0.17277721 0.96020854
v -0.42970753 0.02566794 0.96769983
v -0.29575285 0.10371907 1.01378727
v -0.97671264 0.02475260 0.36640963
v -0.91727746 0.00376271 0.48811704
v -1.03902245 0.10834304 0.08288945
v -1.02608633 0.02442161 0.20459642
v -0.85189718 0.27394682 0.37716395
v -0.93804383 0.12980747 0.31820571
v -0.87931055 0.29267636 0.24251100
v -0.86667854 0.11407027 -0.50865185
v -0.93576449 0.13147877 -0.34253642
v -0.89572096 0.25764659 -0.22904474
v -0.90952504 0.19451186 -0.29553285
v -0.84863496 0.26241562 -0.38847837
v -0.97551191 0.10284810 -0.19308668
v -1.03120422 0.03569495 -0.07735855
v -0.58813864 0.70935005 0.08936777
v -0.68549132 0.61774939 0.00685433
v -0.60846788 0.67950642 -0.09172022
v -0.82541293 0.43092507 0.17137749
v -0.75731838 0.52072424 0.08525898
v -0.72704959 0.50880373 0.23976591
v -0.74513733 0.47296566 -0.22130354
v -0.76209652 0.49467117 -0.06529430
v -0.82629937 0.39262965 -0.13201803
v -0.97605038 0.14506295 0.01640361
v -0.90329158 0.25854370 -0.05540388
v -0.91058153 0.28298435 0.10194979
v -0.75744611 0.07156114 -0.74690491
v -0.84908152 0.00542470 -0.65442139
v -0.54203647 0.21468124 -0.87666887
v -0.65725231 0.14209494 -0.80510318
v -0.64164817 0.11761954 -0.75059235
v -0.65439743 0.00184735 -0.79552889
v -0.55819786 0.02575503 -0.85406959
v -0.00302998 0.42284203 -0.93167168
v -0.13498038 0.37245345 -0.94811827
v -0.13972977 0.13062958 -1.03038716
v -0.13012417 0.25880215 -1.00070286
v -0.02037540 0.21861616 -1.04816473
v -0.26514879 0.29824308 -0.93200606
v -0.39103097 0.28382045 -0.91419101
v -0.15128627 0.39396000 -0.86728704
v -0.17689976 0.25906679 -0.94775355
v -0.05288684 0.29579082 -0.91385561
v -0.41588801 0.13243340 -0.89507490
v -0.28617570 0.24130426 -0.91806573
v -0.40541142 0.24270503 -0.82965356
v -0.04746237 0.01730942 -1.05448115
v -0.18084703 0.11637039 -0.99575496
v -0.16775936 0.01081034 -1.05747104
v -0.40074188 0.14840481 -0.95074862
v -0.27358991 0.05756759 -1.01526499
v -0.44466785 0.02422582 -0.95085710
v 0.21075638 0.57530338 -0.79800731
v 0.13269092 0.48794636 -0.87221229
v 0.36711541 0.71895558 -0.62341380
v 0.29841721 0.64795935 -0.71582997
v 0.39155954 0.39595130 -0.86256921
v 0.35228744 0.52675271 -0.79426199
v 0.47908488 0.48764774 -0.75982839
v 0.59856504 0.83723128 -0.09536212
v 0.55612999 0.83423644 -0.23351867
v 0.70701408 0.65388304 -0.38371870
v 0.62296861 0.73928189 -0.32167313
v 0.74516791 0.67146534 -0.25808099
v 0.50881368 0.81276137 -0.37662032
v 0.44847211 0.77896625 -0.49547750
v 0.81421316 0.17008781 -0.64390045
v 0.81630838 0.27714983 -0.56511265
v 0.89329344 0.22179666 -0.49852183
v 0.60330135 0.41016111 -0.71604717
v 0.71494019 0.34935346 -0.66141361
v 0.62235969 0.27518237 -0.76805574
v 0.84688824 0.44414571 -0.38502327
v 0.78253049 0.40897942 -0.52961391
v 0.75576705 0.52905965 -0.46522599
v 0.50379568 0.66289634 -0.58981937
v 0.64338046 0.60598969 -0.52291012
v 0.56459486 0.54412496 -0.64742774
v 0.68226832 0.52079469 0.08108795
v 0.62188870 0.52056330 0.20647630
v 0.49149650 0.57227600 0.14369208
v 0.70771134 0.31068403 0.35730481
v 0.67212319 0.45021725 0.29310220
v 0.75744754 0.33955374 0.20711088
v 0.43465659 0.61334455 0.41517562
v 0.55116445 0.52807045 0.35734910
v 0.49453178 0.50960815 0.47003227
v 0.83405292 0.06418800 0.65267718
v 0.82146794 0.10257833 0.57994902
v 0.91294867 0.02498036 0.49080348
v 0.63099235 0.13981068 0.67571563
v 0.72381181 0.08198874 0.59301215
v 0.66638243 0.05669120 0.74142128
v 0.84626853 0.07849623 0.30650464
v 0.79020649 0.09921969 0.45952019
v 0.77212369 0.17723197 0.38748106
v 0.11956784 0.41237354 0.81353819
v 0.27201155 0.34215552 0.76427054
v 0.16206767 0.30468592 0.87274456
v 0.42209089 0.47467148 0.59546697
v 0.35727462 0.43548194 0.67588210
v 0.26220140 0.53935522 0.61188012
v 0.42498380 0.18295434 0.84592324
v 0.39187321 0.25231731 0.73366123
v 0.53273576 0.24207820 0.73635483
v 0.69546157 0.27100551 0.48571214
v 0.60287821 0.26667410 0.61024213
v 0.56576478 0.39471823 0.53164774
v 0.41798756 0.65667140 0.12488464
v 0.41668648 0.53457409 -0.00657437
v 0.29854473 0.66702104 0.40268111
v 0.38277489 0.68920332 0.28742069
v 0.19280322 0.57531828 0.03204574
v 0.29377377 0.67270392 0.15210567
v 0.12083009 0.62438709 0.17996049
v -0.04717009 0.44673857 0.81784040
v 0.04878329 0.50634533 0.71684837
v -0.06691024 0.68125945 0.55282325
v -0.01877555 0.58668566 0.66098934
v -0.17756769 0.59004235 0.64567715
v 0.15447818 0.59070736 0.63225222
v 0.21615474 0.65725130 0.53564000
v -0.39587563 0.69078428 0.01645154
v -0.32720596 0.77359068 0.14426592
v -0.45825246 0.76673138 0.14850016
v -0.02798169 0.65499938 0.17592363
v -0.16839598 0.78068352 0.15292083
v -0.12558746 0.60787952 0.09159430
v -0.29503259 0.71940142 0.39351287
v -0.24956807 0.78908449 0.27284122
v -0.16466919 0.77399218 0.39986885
v 0.17002232 0.71989298 0.43935311
v -0.01944789 0.73114818 0.44566935
v 0.06607737 0.63227993 0.32454300
v 0.37337974 0.63168049 -0.12282136
v 0.53307408 0.64623302 -0.12269898
v 0.16710730 0.57940686 -0.11996572
v 0.26628327 0.54511422 -0.09482241
v 0.40572470 0.69481295 -0.36323550
v 0.33075938 0.73656738 -0.22845465
v 0.27185342 0.74784356 -0.35344625
v -0.47009620 0.73019898 -0.12279164
v -0.35853529 0.61371499 -0.11482848
v -0.20486173 0.49557602 -0.31109723
v -0.23747134 0.61406922 -0.24084792
v -0.32853171 0.56384480 -0.35157526
v -0.18975693 0.57313061 -0.07933978
v -0.04959448 0.61384660 -0.08582962
v 0.07529115 0.53251791 -0.76040971
v -0.00315381 0.62642485 -0.67855102
v -0.10846706 0.52161908 -0.74980664
v 0.19145131 0.71012908 -0.50306731
v 0.08512481 0.70698696 -0.57960892
v 0.24850522 0.66869020 -0.59884733
v -0.13699821 0.52341360 -0.59353769
v -0.08883247 0.70391506 -0.58224189
v -0.10309604 0.61051005 -0.45732194
v 0.08118227 0.58834833 -0.24245988
v -0.04523236 0.56600344 -0.37065324
v 0.12550494 0.72388911 -0.33433306
v 0.60589027 0.62376046 -0.21064812
v 0.62931687 0.57618034 -0.08124948
v 0.48043463 0.62164307 -0.45913744
v 0.56805670 0.62241542 -0.35055658
v 0.76466501 0.45162663 -0.23975611
v 0.65523231 0.54273695 -0.33393127
v 0.72260952 0.46013260 -0.39592099
v 0.09186619 0.38410288 -0.85279751
v 0.20976494 0.47043222 -0.79356581
v 0.45754138 0.34656990 -0.78714478
v 0.32846695 0.40173933 -0.79555959
v 0.34815845 0.24133091 -0.86908150
v 0.29748204 0.54248941 -0.69085455
v 0.39082545 0.58683050 -0.60362715
v 0.91058153 0.01814526 -0.52569562
v 0.81220973 0.12312174 -0.62576330
v 0.81557196 0.04513229 -0.66725361
v 0.76330101 0.30833599 -0.49147871
v 0.82474577 0.21363086 -0.55353129
v 0.85955954 0.23668136 -0.40463835
v 0.58211339 0.19308679 -0.81652546
v 0.70952725 0.22028537 -0.69842678
v 0.60445821 0.29235688 -0.73063570
v 0.51659566 0.53711110 -0.58976966
v 0.56593251 0.41170701 -0.66618443
v 0.66763824 0.40487090 -0.54713428
v 0.72477895 0.47068256 0.00752528
v 0.84939498 0.32646397 -0.16767322
v 0.79498702 0.39985386 -0.07572772
v 0.81077349 0.37164560 0.06884564
v 0.82890862 0.22800276 0.11721089
v 0.95606124 0.14130689 -0.41751707
v 0.98445928 0.02275534 -0.39161885
v 1.06869209 0.01395930 -0.09681451
v 1.03317428 0.04102732 -0.22877872
v 1.04209292 0.14185084 -0.14197448
v 0.94271702 0.10600441 -0.31879890
v 0.91765660 0.22093798 -0.26211047
v 0.96437263 0.02942513 0.33963606
v 0.95703351 0.15398364 0.43229425
v 0.86961877 0.08670321 0.19066799
v 0.93133307 0.00000000 0.23851621
v 1.04796588 0.16651990 0.14467654
v 1.01810467 0.08288419 0.19620399
v 1.07013118 0.03136105 0.07886289
v 0.91787905 0.20431517 -0.11093676
v 0.99743378 0.04949591 -0.06614243
v 0.91632468 0.14257713 0.04849509
v 0.14133728 0.18912403 0.94344801
v 0.44081661 0.10425854 0.90551835
v 0.29570529 0.12835038 0.91898638
v 0.19519608 0.09491819 0.97499228
v 0.16991210 0.00269444 1.06835783
v 0.75614905 0.15268473 0.74490517
v 0.51316065 0.28673410 0.86637682
v 0.64725900 0.22930665 0.82920671
v 0.66559523 0.07470649 0.83637774
v 0.57590032 0.01825409 0.88358164
v 0.09403646 0.42198956 0.94367945
v 0.13293627 0.14030547 1.04065990
v 0.10089651 0.27107534 0.98699760
v 0.22915535 0.39258423 0.94772589
v 0.35147700 0.35021159 0.90993863
v 0.46322292 0.05025126 0.97699791
v 0.38866460 0.22312915 0.96472752
v 0.29916093 0.09228713 1.02256882
v -0.54067606 0.70215392 0.22605787
v -0.39160612 0.62564719 0.45354998
v -0.47188056 0.70324343 0.37648529
v -0.58683151 0.61443889 0.32070243
v -0.68570960 0.51358390 0.40312701
v -0.21144630 0.38969308 0.82965583
v -0.45224217 0.30978096 0.74924648
v -0.33152899 0.32413268 0.78006184
v -0.25905439 0.48350596 0.73413122
v -0.32061037 0.57251561 0.63105881
v -0.80468613 0.10133804 0.54139411
v -0.74934834 0.38274404 0.46104112
v -0.79130065 0.24072193 0.52239972
v -0.70493907 0.22697178 0.62210816
v -0.61125004 0.26811436 0.68855071
v -0.45891687 0.53859407 0.60030216
v -0.54183400 0.40644640 0.65562391
v -0.61360854 0.47520515 0.53603345
v -0.23841356 0.45002472 -0.78260785
v -0.33144376 0.52164531 -0.56407481
v -0.30814195 0.48124766 -0.68534845
v -0.38028720 0.38471884 -0.79657584
v -0.48684713 0.31948328 -0.75448996
v -0.55205697 0.66792315 -0.22472037
v -0.69028866 0.45022538 -0.36100966
v -0.62383252 0.56383038 -0.28351882
v -0.51549232 0.63051128 -0.37538314
v -0.44193283 0.60667413 -0.48086917
v -0.81480581 0.12348986 -0.54528862
v -0.62014079 0.23285304 -0.69518459
v -0.72050679 0.15528867 -0.60631055
v -0.80220723 0.18983704 -0.48735943
v -0.74759614 0.30343020 -0.45144859
v -0.53128350 0.49458832 -0.52521199
v -0.64441997 0.39063928 -0.49404591
v -0.55477303 0.35864583 -0.62419790
v 0.73469740 0.09143106 -0.73449939
v 0.50727803 0.08350953 -0.87450331
v 0.63007319 0.03348861 -0.84156656
v 0.64333767 0.14906341 -0.79924744
v 0.54556620 0.21665379 -0.86606222
v 0.08247910 0.24650104 -0.92500013
v 0.10424333 0.02043298 -1.03467083
v 0.06950446 0.07804988 -0.96641481
v 0.20328686 0.15882148 -0.92534006
v 0.34806743 0.10262375 -0.89734262
v 0.13051099 0.38632166 -0.94140857
v 0.40335324 0.27788851 -0.90867180
v 0.27509719 0.32762977 -0.93288535
v 0.14972582 0.26930344 -0.98697573
v 0.13188906 0.15255463 -1.04270673
v 0.39507744 0.00260483 -0.96045882
v 0.27605200 0.08940063 -1.03037643
v 0.43105835 0.14329681 -0.94318265
v 0.95363647 0.28672117 0.38199437
v 1.02658916 0.28210714 0.07879873
v 1.00023055 0.29139912 0.22708711
v 0.93683988 0.40227282 0.31584799
v 0.90197676 0.51750535 0.23510951
v 0.95381337 0.25847083 -0.36661667
v 0.87919843 0.46713963 -0.25276151
v 0.92354023 0.34290653 -0.29645681
v 1.00305676 0.25185120 -0.22829957
v 1.02344179 0.26385233 -0.09197371
v 0.67731678 0.78098297 -0.01529610
v 0.82665950 0.62778091 0.14839064
v 0.74703509 0.70755988 0.06480127
v 0.75135690 0.69247222 -0.10384961
v 0.82894599 0.60068399 -0.17412339
v 0.97042364 0.38981089 0.00410436
v 0.90644419 0.49503157 -0.09916542
v 0.90846056 0.51719195 0.07897297
f 330 87 329
f 336 325 26
f 207 208 56
f 464 36 580
f 502 129 504
f 157 624 622
f 308 311 82
f 247 223 248
f 507 483 508
f 331 88 329
f 494 500 497
f 156 601 602
f 591 589 592
f 365 98 596
f 75 281 282
f 152 587 577
f 149 559 560
f 555 121 553
f 530 141 529
f 515 517 139
f 361 594 98
f 250 67 249
f 157 608 609
f 294 293 209
f 317 81 316
f 557 338 26
f 303 305 81
f 530 529 528
f 101 381 382
f 415 418 111
f 192 184 50
f 412 110 411
f 20 384 256
f 131 594 486
f 281 264 282
f 347 287 348
f 28 349 582
f 165 163 1
f 248 250 66
f 617 107 398
f 273 271 274
f 456 115 453
f 558 561 560
f 335 576 91
f 331 177 332
f 116 433 436
f 351 370 92
f 136 511 530
f 239 240 65
f 247 258 19
f 304 23 567
f 148 557 570
f 214 208 58
f 440 426 450
f 268 270 269
f 258 247 268
f 204 202 16
f 466 125 465
f 517 513 133
f 168 275 274
f 275 73 274
f 198 193 53
f 309 308 307
f 510 511 136
f 415 416 110
f 131 490 597
f 473 475 474
f 414 415 111
f 493 495 494
f 496 504 485
f 433 116 432
f 600 375 601
f 240 234 65
f 418 415 412
f 486 361 3
f 567 566 304
f 380 393 29
f 17 199 197
f 491 492 132
f 451 449 435
f 218 217 216
f 623 621 613
f 396 104 395
f 433 439 436
f 628 160 627
f 215 202 217
f 209 207 2
f 427 113 424
f 434 10 544
f 434 433 432
f 199 17 210
f 150 564 565
f 489 491 132
f 275 13 285
f 497 500 134
f 125 466 476
f 578 152 577
f 208 214 211
f 328 88 343
f 356 27 603
f 150 566 567
f 372 100 371
f 190 191 47
f 235 8 398
f 260 261 72
f 422 403 414
f 422 414 111
f 453 454 123
f 349 583 582
f 521 520 519
f 425 453 115
f 616 622 158
f 483 130 508
f 151 586 572
f 212 17 232
f 400 397 402
f 377 396 99
f 41 522 511
f 510 508 505
f 549 547 42
f 475 473 36
f 510 137 509
f 222 221 197
f 430 115 429
f 220 194 1
f 305 54 204
f 621 29 613
f 192 171 184
f 460 335 5
f 88 331 332
f 74 277 279
f 300 301 80
f 390 389 388
f 165 45 164
f 146 549 551
f 291 278 75
f 448 120 445
f 147 543 544
f 607 610 609
f 603 602 356
f 139 529 514
f 333 553 443
f 92 368 347
f 261 260 259
f 300 6 200
f 46 177 331
f 284 283 174
f 301 300 200
f 471 468 474
f 54 305 301
f 302 304 303
f 569 150 567
f 150 569 570
f 294 209 2
f 628 629 160
f 548 543 147
f 147 625 627
f 63 233 234
f 426 427 114
f 41 509 532
f 198 52 196
f 614 105 612
f 147 627 547
f 81 305 306
f 549 548 547
f 54 301 200
f 342 88 332
f 264 281 70
f 193 194 53
f 455 429 456
f 187 321 14
f 479 130 484
f 147 544 625
f 458 456 453
f 304 80 303
f 314 84 313
f 488 503 501
f 321 332 14
f 423 425 424
f 305 204 306
f 341 339 25
f 514 40 516
f 625 628 627
f 340 339 341
f 105 614 391
f 243 228 62
f 318 316 78
f 75 278 279
f 357 355 353
f 238 257 63
f 466 455 476
f 425 423 4
f 448 449 120
f 408 638 108
f 292 275 285
f 22 278 289
f 515 513 517
f 501 503 134
f 622 623 158
f 134 503 504
f 195 216 206
f 163 271 246
f 619 617 620
f 62 228 229
f 163 165 164
f 453 425 454
f 489 132 488
f 82 628 625
f 58 208 209
f 525 608 40
f 626 547 627
f 518 517 498
f 489 487 491
f 557 26 564
f 325 336 344
f 541 145 539
f 40 616 516
f 338 556 89
f 250 248 245
f 139 514 515
f 98 594 596
f 246 220 1
f 112 413 630
f 9 536 413
f 156 600 601
f 332 177 14
f 321 342 332
f 156 606 600
f 584 330 585
f 302 303 81
f 584 87 330
f 330 25 585
f 400 239 65
f 439 440 117
f 95 358 368
f 597 594 131
f 594 361 486
f 246 67 245
f 561 562 149
f 28 364 362
f 55 216 217
f 427 430 114
f 267 20 254
f 556 555 553
f 84 309 558
f 311 310 312
f 609 525 142
f 256 68 255
f 124 460 461
f 82 311 312
f 307 308 82
f 589 135 495
f 527 40 514
f 112 418 412
f 20 256 254
f 258 238 19
f 267 254 269
f 273 272 249
f 392 391 393
f 137 533 509
f 122 455 456
f 9 413 411
f 130 480 505
f 333 443 5
f 527 525 40
f 589 495 385
f 39 496 485
f 223 225 224
f 414 416 415
f 219 222 53
f 145 538 539
f 413 412 411
f 469 468 467
f 183 181 6
f 191 192 50
f 429 35 431
f 292 285 76
f 413 112 412
f 415 110 412
f 43 164 167
f 467 468 126
f 617 101 620
f 450 451 117
f 438 546 545
f 619 620 159
f 17 212 210
f 124 579 576
f 584 153 583
f 460 124 576
f 3 469 467
f 311 308 314
f 6 320 183
f 389 104 388
f 251 250 249
f 194 165 1
f 291 289 278
f 287 77 348
f 238 258 257
f 139 517 518
f 238 236 19
f 223 247 19
f 382 380 29
f 39 518 498
f 361 359 3
f 69 255 257
f 139 518 528
f 33 545 535
f 387 385 7
f 69 268 269
f 477 462 125
f 454 479 123
f 121 555 447
f 451 435 117
f 454 425 4
f 233 252 8
f 124 463 464
f 69 258 268
f 168 167 166
f 583 153 582
f 384 394 102
f 138 512 513
f 57 210 211
f 254 256 255
f 607 609 142
f 324 319 86
f 289 291 76
f 291 292 76
f 384 102 383
f 422 421 420
f 221 17 197
f 383 102 381
f 376 377 99
f 99 373 374
f 386 105 392
f 438 33 440
f 90 341 343
f 281 75 279
f 574 571 96
f 628 82 312
f 221 222 59
f 127 471 474
f 595 605 603
f 551 538 145
f 334 91 340
f 322 324 85
f 305 303 301
f 18 239 399
f 306 204 16
f 199 198 197
f 166 190 180
f 303 80 301
f 267 266 265
f 626 42 547
f 16 215 213
f 349 351 350
f 295 16 213
f 68 379 252
f 250 251 66
f 627 160 626
f 383 68 256
f 343 88 342
f 507 508 136
f 202 215 16
f 197 198 53
f 254 69 269
f 603 605 156
f 418 419 111
f 384 383 256
f 455 122 476
f 203 204 54
f 556 557 148
f 255 68 253
f 313 84 560
f 25 328 341
f 254 255 69
f 603 156 602
f 581 584 583
f 630 632 112
f 163 246 1
f 246 245 220
f 432 116 558
f 499 591 590
f 320 563 86
f 345 93 350
f 306 16 295
f 346 93 345
f 562 568 149
f 604 605 155
f 154 592 593
f 545 552 535
f 511 522 530
f 574 573 571
f 566 150 565
f 361 98 360
f 67 271 273
f 234 235 65
f 208 211 56
f 574 151 573
f 251 270 66
f 398 8 378
f 213 215 214
f 438 440 439
f 315 314 313
f 263 71 262
f 20 373 384
f 496 134 504
f 329 88 328
f 81 306 316
f 555 556 148
f 592 589 103
f 617 619 107
f 227 207 56
f 571 359 96
f 446 466 465
f 206 216 55
f 359 571 469
f 568 148 570
f 34 437 435
f 28 351 349
f 21 272 282
f 113 423 424
f 490 489 488
f 379 68 383
f 210 212 211
f 80 563 300
f 351 92 350
f 326 346 12
f 83 317 318
f 555 148 554
f 212 231 56
f 218 57 217
f 271 67 246
f 195 196 52
f 270 268 66
f 390 592 103
f 148 568 554
f 495 493 7
f 592 390 593
f 357 95 355
f 574 575 151
f 452 120 451
f 154 591 592
f 587 585 577
f 395 394 396
f 93 349 350
f 610 416 611
f 166 44 190
f 315 23 302
f 315 302 317
f 268 247 66
f 606 154 593
f 396 394 99
f 211 212 56
f 370 369 368
f 235 397 65
f 280 278 22
f 83 315 317
f 575 588 151
f 74 279 280
f 385 495 7
f 63 257 253
f 397 235 398
f 214 58 213
f 220 219 194
f 546 146 545
f 236 225 19
f 599 94 602
f 235 233 8
f 102 394 395
f 611 416 32
f 225 223 19
f 139 528 529
f 231 62 229
f 419 406 421
f 451 450 452
f 49 182 185
f 402 397 107
f 52 199 218
f 416 610 110
f 225 236 244
f 107 397 398
f 68 252 253
f 322 85 321
f 182 181 183
f 118 438 439
f 546 438 118
f 348 77 345
f 543 546 118
f 231 212 232
f 610 611 157
f 33 438 545
f 385 386 103
f 479 480 130
f 169 195 15
f 93 583 349
f 15 195 206
f 190 44 192
f 247 248 66
f 146 552 545
f 248 60 245
f 570 557 564
f 274 271 43
f 63 253 233
f 272 21 249
f 507 528 518
f 67 273 249
f 487 467 126
f 196 195 169
f 624 159 623
f 134 496 497
f 132 503 488
f 104 393 395
f 556 553 89
f 355 356 94
f 258 69 257
f 229 61 227
f 56 231 227
f 460 576 335
f 463 124 461
f 394 373 99
f 29 393 391
f 67 250 245
f 193 198 196
f 462 36 464
f 144 633 630
f 141 526 527
f 517 133 498
f 536 144 630
f 100 372 599
f 144 536 537
f 22 289 287
f 578 579 152
f 579 578 576
f 189 188 187
f 60 223 224
f 92 348 350
f 555 554 447
f 396 377 388
f 194 193 165
f 413 536 630
f 372 352 599
f 377 376 375
f 348 345 350
f 105 386 387
f 240 237 234
f 463 462 464
f 135 500 494
f 45 196 169
f 512 612 387
f 245 60 220
f 429 115 456
f 223 60 248
f 288 289 76
f 525 526 142
f 100 599 601
f 613 29 391
f 526 523 520
f 341 328 343
f 631 641 639
f 264 21 282
f 266 72 265
f 106 402 403
f 73 273 274
f 186 206 205
f 381 379 383
f 52 216 195
f 410 18 399
f 290 272 73
f 72 371 374
f 526 525 527
f 115 430 424
f 498 497 496
f 621 382 29
f 543 118 434
f 214 215 57
f 522 141 530
f 511 510 509
f 352 94 599
f 493 512 7
f 90 340 341
f 169 171 170
f 605 604 606
f 219 60 224
f 104 389 392
f 359 469 3
f 186 49 185
f 222 219 224
f 166 167 44
f 428 427 426
f 523 522 524
f 129 502 481
f 50 185 188
f 164 45 170
f 425 115 424
f 33 428 426
f 427 428 113
f 94 356 602
f 515 138 513
f 114 431 452
f 237 236 238
f 215 217 57
f 95 354 355
f 220 60 219
f 515 514 516
f 183 320 319
f 222 197 53
f 559 569 567
f 300 320 6
f 435 436 117
f 96 360 363
f 640 642 641
f 242 243 62
f 140 537 519
f 508 130 505
f 420 410 399
f 537 539 144
f 317 316 318
f 426 114 450
f 186 15 206
f 311 83 310
f 625 544 307
f 544 10 307
f 168 43 167
f 185 182 188
f 369 354 95
f 44 171 192
f 605 606 156
f 548 549 146
f 100 601 375
f 149 568 569
f 381 380 382
f 455 466 35
f 480 479 454
f 543 548 546
f 493 133 513
f 492 472 37
f 477 125 476
f 491 487 126
f 337 336 338
f 588 153 587
f 576 578 91
f 633 161 632
f 96 359 360
f 39 485 483
f 101 617 378
f 193 45 165
f 163 164 43
f 618 624 611
f 507 136 528
f 561 149 560
f 641 162 639
f 116 561 558
f 494 133 493
f 253 252 233
f 63 237 238
f 392 393 104
f 440 450 117
f 93 581 583
f 386 385 387
f 120 449 451
f 421 422 111
f 486 3 467
f 302 81 317
f 633 632 630
f 462 475 36
f 376 99 374
f 489 490 131
f 447 449 448
f 387 612 105
f 106 420 399
f 173 46 172
f 492 491 472
f 316 306 295
f 22 287 347
f 109 410 420
f 507 39 483
f 559 23 313
f 214 57 211
f 196 45 193
f 10 434 432
f 422 106 403
f 626 160 640
f 487 486 467
f 542 41 532
f 400 106 399
f 444 120 452
f 198 199 52
f 475 127 474
f 621 620 382
f 621 623 159
f 450 114 452
f 92 347 348
f 376 100 375
f 434 118 433
f 503 132 502
f 337 90 336
f 537 536 519
f 395 393 380
f 201 54 200
f 171 44 170
f 355 94 353
f 58 296 213
f 422 420 106
f 595 365 596
f 569 568 570
f 523 140 520
f 114 430 431
f 218 210 57
f 304 566 80
f 639 162 638
f 261 371 72
f 548 147 547
f 498 133 497
f 150 570 564
f 222 224 59
f 142 526 520
f 437 436 435
f 141 522 523
f 137 510 505
f 173 179 176
f 559 149 569
f 121 447 448
f 563 320 300
f 102 395 380
f 257 255 253
f 642 162 641
f 83 311 314
f 216 52 218
f 512 493 513
f 23 304 302
f 91 339 340
f 512 138 612
f 159 620 621
f 218 199 210
f 364 28 575
f 83 318 310
f 168 274 43
f 136 530 528
f 140 523 524
f 495 135 494
f 233 235 234
f 566 563 80
f 25 339 577
f 277 74 276
f 475 462 477
f 133 494 497
f 436 437 116
f 389 386 392
f 548 146 546
f 441 460 5
f 10 309 307
f 65 397 400
f 543 434 544
f 640 641 161
f 272 273 73
f 581 93 346
f 419 421 111
f 319 320 86
f 180 179 178
f 127 475 477
f 231 229 227
f 337 334 340
f 136 508 510
f 308 309 84
f 237 63 234
f 447 554 34
f 252 379 378
f 315 83 314
f 608 622 616
f 338 336 26
f 337 338 89
f 13 275 168
f 209 208 207
f 436 439 117
f 628 312 629
f 360 366 363
f 364 574 96
f 359 361 360
f 466 446 35
f 500 501 134
f 406 109 421
f 135 589 591
f 601 599 602
f 340 90 337
f 481 492 37
f 522 41 524
f 78 316 295
f 131 486 487
f 403 32 414
f 634 626 640
f 151 572 573
f 515 516 138
f 8 252 378
f 265 72 374
f 9 521 519
f 538 549 42
f 368 358 347
f 588 587 586
f 458 453 123
f 589 385 103
f 502 492 481
f 32 416 414
f 430 427 424
f 153 585 587
f 540 144 539
f 370 368 92
f 209 293 58
f 428 33 535
f 326 581 346
f 625 307 82
f 575 28 582
f 6 181 200
f 421 109 420
f 553 121 443
f 160 642 640
f 153 584 585
f 309 432 558
f 334 337 89
f 23 315 313
f 271 163 43
f 296 295 213
f 39 498 496
f 118 439 433
f 531 113 534
f 293 296 58
f 28 362 351
f 489 131 487
f 431 444 452
f 84 558 560
f 98 366 360
f 45 169 170
f 379 101 378
f 462 463 125
f 308 84 314
f 10 432 309
f 299 24 310
f 132 492 502
f 512 387 7
f 639 638 408
f 565 323 86
f 59 244 242
f 106 400 402
f 440 33 426
f 566 565 563
f 617 398 378
f 224 225 59
f 410 109 409
f 239 400 399
f 194 219 53
f 358 22 347
f 610 157 609
f 27 595 603
f 479 484 482
f 142 520 521
f 585 25 577
f 339 578 577
f 408 407 406
f 407 109 406
f 31 408 406
f 407 408 108
f 31 639 408
f 419 31 406
f 608 616 40
f 430 429 431
f 455 35 429
f 35 444 431
f 188 51 187
f 188 182 51
f 51 322 187
f 322 51 319
f 51 182 183
f 319 51 183
f 187 322 321
f 322 319 324
f 381 101 379
f 405 407 108
f 404 405 108
f 286 285 178
f 407 405 409
f 109 407 409
f 191 175 47
f 167 164 170
f 50 184 185
f 44 167 170
f 64 244 236
f 243 244 64
f 50 188 189
f 541 542 145
f 442 445 119
f 339 91 578
f 445 446 119
f 624 623 622
f 611 624 157
f 523 526 141
f 141 527 529
f 527 514 529
f 445 120 444
f 446 445 444
f 35 446 444
f 613 614 158
f 158 614 615
f 623 613 158
f 614 613 391
f 614 612 615
f 371 376 374
f 100 376 371
f 479 482 123
f 373 394 384
f 540 42 634
f 633 540 634
f 538 42 540
f 633 634 161
f 161 634 640
f 42 626 634
f 540 633 144
f 557 556 338
f 553 333 89
f 262 21 264
f 251 21 262
f 5 335 333
f 270 251 262
f 21 251 249
f 600 593 30
f 606 593 600
f 600 30 375
f 593 390 30
f 30 377 375
f 390 388 30
f 30 388 377
f 228 243 241
f 470 478 459
f 470 127 478
f 127 477 478
f 184 186 185
f 478 477 476
f 122 478 476
f 357 74 280
f 518 39 507
f 344 342 85
f 325 344 85
f 342 344 343
f 85 342 321
f 344 90 343
f 90 344 336
f 482 129 481
f 482 481 457
f 482 457 123
f 481 37 457
f 449 447 34
f 435 449 34
f 470 472 471
f 472 470 37
f 470 471 127
f 472 126 471
f 126 468 471
f 470 459 37
f 491 126 472
f 504 129 485
f 221 59 242
f 125 463 465
f 437 34 562
f 561 437 562
f 554 568 562
f 34 554 562
f 437 561 116
f 390 103 389
f 103 386 389
f 392 105 391
f 572 586 580
f 572 580 36
f 586 152 580
f 473 572 36
f 244 243 242
f 225 244 59
f 64 240 241
f 240 239 241
f 237 240 64
f 243 64 241
f 236 237 64
f 411 607 521
f 9 411 521
f 110 607 411
f 607 142 521
f 610 607 110
f 171 15 184
f 171 169 15
f 15 186 184
f 87 584 581
f 153 588 582
f 588 575 582
f 381 102 380
f 573 572 473
f 468 469 128
f 474 468 128
f 469 571 128
f 571 573 128
f 573 473 128
f 473 474 128
f 564 323 565
f 26 323 564
f 323 324 86
f 325 323 26
f 325 324 323
f 563 565 86
f 324 325 85
f 410 230 18
f 230 228 18
f 18 228 241
f 18 241 239
f 401 619 618
f 401 402 107
f 403 402 401
f 619 159 618
f 401 618 32
f 619 401 107
f 403 401 32
f 618 611 32
f 159 624 618
f 478 122 459
f 122 458 459
f 37 459 457
f 459 458 457
f 122 456 458
f 457 458 123
f 191 190 192
f 485 129 484
f 129 482 484
f 483 485 484
f 130 483 484
f 189 187 14
f 191 50 189
f 191 189 175
f 189 14 175
f 14 177 175
f 499 501 500
f 501 499 38
f 38 499 590
f 135 499 500
f 488 501 38
f 499 135 591
f 480 454 4
f 284 12 346
f 4 423 506
f 480 4 506
f 423 531 506
f 480 506 505
f 531 137 506
f 506 137 505
f 365 366 98
f 71 270 262
f 270 71 269
f 71 267 269
f 335 334 333
f 333 334 89
f 334 335 91
f 536 9 519
f 465 463 461
f 537 140 541
f 520 140 519
f 119 446 465
f 465 461 119
f 461 441 119
f 460 441 461
f 176 46 173
f 299 297 24
f 71 263 266
f 263 260 266
f 260 72 266
f 263 70 260
f 205 201 49
f 201 181 49
f 186 205 49
f 181 201 200
f 181 182 49
f 284 77 283
f 586 587 152
f 588 586 151
f 20 267 265
f 266 267 71
f 31 417 631
f 631 417 632
f 31 631 639
f 417 31 419
f 641 631 161
f 417 112 632
f 161 631 632
f 418 417 419
f 417 418 112
f 284 345 77
f 542 550 145
f 542 541 524
f 284 174 12
f 48 174 283
f 373 20 265
f 373 265 374
f 609 608 525
f 608 157 622
f 560 559 313
f 636 637 162
f 541 140 524
f 41 542 524
f 358 357 280
f 70 263 264
f 263 262 264
f 176 177 46
f 174 48 173
f 174 173 172
f 538 551 549
f 538 540 539
f 537 541 539
f 232 221 242
f 17 221 232
f 232 242 62
f 231 232 62
f 203 205 55
f 203 55 202
f 201 205 203
f 202 55 217
f 205 206 55
f 204 203 202
f 73 275 292
f 292 290 73
f 272 290 282
f 290 292 291
f 75 290 291
f 290 75 282
f 70 277 259
f 277 70 281
f 277 281 279
f 260 70 259
f 12 174 172
f 104 396 388
f 367 27 354
f 365 27 367
f 354 27 356
f 365 367 366
f 595 27 365
f 318 299 310
f 155 596 597
f 155 597 598
f 596 594 597
f 595 596 155
f 605 595 155
f 180 47 179
f 180 190 47
f 352 372 11
f 11 372 261
f 312 310 24
f 642 636 162
f 636 297 637
f 367 369 97
f 366 367 97
f 369 367 354
f 369 370 97
f 580 579 464
f 580 152 579
f 579 124 464
f 61 230 409
f 230 410 409
f 230 61 229
f 230 229 228
f 76 285 286
f 353 352 276
f 74 353 276
f 288 76 286
f 288 286 283
f 289 288 287
f 203 54 201
f 287 288 77
f 77 288 283
f 286 48 283
f 531 423 113
f 276 11 259
f 11 261 259
f 277 276 259
f 616 158 615
f 516 616 615
f 138 516 615
f 138 615 612
f 509 533 532
f 503 502 504
f 635 79 294
f 635 294 404
f 635 637 79
f 637 635 638
f 638 635 108
f 635 404 108
f 226 61 405
f 61 226 227
f 405 61 409
f 227 226 207
f 48 178 179
f 48 286 178
f 173 48 179
f 534 143 533
f 534 535 143
f 531 534 533
f 533 143 532
f 137 531 533
f 261 372 371
f 13 180 178
f 285 13 178
f 180 13 166
f 13 168 166
f 346 345 284
f 331 327 46
f 46 327 172
f 172 327 326
f 382 620 101
f 442 121 448
f 443 121 442
f 2 226 404
f 294 2 404
f 404 226 405
f 207 226 2
f 550 551 145
f 552 146 551
f 143 550 532
f 552 550 143
f 330 329 328
f 24 636 629
f 94 352 353
f 352 11 276
f 113 428 534
f 428 535 534
f 509 41 511
f 535 552 143
f 550 552 551
f 550 542 532
f 369 95 368
f 326 327 87
f 87 327 329
f 327 331 329
f 581 326 87
f 293 79 298
f 79 297 298
f 296 298 78
f 79 293 294
f 296 293 298
f 598 490 38
f 358 280 22
f 280 279 278
f 357 358 95
f 74 357 353
f 330 328 25
f 567 23 559
f 590 598 38
f 590 604 598
f 598 604 155
f 604 590 154
f 590 591 154
f 604 154 606
f 297 299 298
f 299 318 78
f 298 299 78
f 355 354 356
f 629 636 642
f 312 24 629
f 629 642 160
f 370 362 97
f 362 363 97
f 363 366 97
f 364 363 362
f 362 370 351
f 96 363 364
f 297 636 24
f 162 637 638
f 637 297 79
f 490 488 38
f 598 597 490
f 441 442 119
f 443 442 441
f 443 441 5
f 442 448 445
f 296 78 295
f 326 12 172
f 575 574 364
f 47 175 176
f 175 177 176
f 47 176 179
