# FEM surface export ¡ª frame 566
# Vertices: 642  Faces: 1280
v -0.51616317 0.88040274 0.00128980
v 0.51821125 0.88271123 0.00455320
v -0.51357955 0.44542113 0.00195227
v 0.51618844 0.39013794 -0.00399436
v -0.00062177 0.19420609 0.90366691
v -0.00250714 0.59484011 0.83476293
v 0.01627629 0.12486830 -0.89802730
v -0.00220642 0.59137470 -0.83905554
v 0.93592858 0.20685124 -0.59483075
v 0.92438596 0.19813591 0.56270742
v -0.93198818 0.18752235 -0.57367510
v -0.91863781 0.20531675 0.58962053
v -0.79254669 0.57104963 0.30801299
v -0.49047583 0.42040420 0.82712698
v -0.30294919 0.83577704 0.48977724
v 0.30668664 0.84096926 0.49067995
v -0.00156846 1.01814258 0.00044439
v 0.30410954 0.83618420 -0.48969766
v -0.30563328 0.83710384 -0.48906347
v -0.51144314 0.42879394 -0.81772000
v -0.80278069 0.56596941 -0.29293016
v -1.09354401 0.18637098 0.00412786
v 0.50927508 0.42705497 0.82316828
v 0.80799824 0.56498826 0.29931688
v -0.60119438 0.00469304 0.91524935
v 0.00812848 0.19789198 1.09458399
v -0.84388536 0.18726026 -0.32503530
v -0.85161668 0.19269292 0.32377896
v -0.00883543 0.19038576 -1.10693336
v -0.58301091 0.00283328 -0.90467250
v 0.79932445 0.57184899 -0.30997476
v 0.50012666 0.42705113 -0.82738709
v 0.84610713 0.16496982 0.34949908
v 0.57888210 0.00000000 0.92363238
v 0.28019544 0.32282647 0.49069622
v -0.30668738 0.35941467 0.48577523
v 0.02376373 0.15031044 0.04853750
v -0.25751179 0.17295709 -0.53918922
v 0.31080684 0.20159031 -0.50189865
v 0.57955962 0.06220961 -0.88009852
v 0.87690783 0.16633053 -0.31697720
v 1.10883498 0.21099557 -0.01553396
v -0.67102492 0.74105036 0.15937410
v -0.57330549 0.72620255 0.41877395
v -0.42738935 0.88874561 0.25543928
v -0.71552604 0.31857297 0.74079370
v -0.67784631 0.51023078 0.59201467
v -0.87149358 0.38738492 0.45979011
v -0.15903510 0.73154718 0.68413860
v -0.41164559 0.63817406 0.67239732
v -0.25249520 0.51218885 0.85812992
v -0.16359219 0.97516501 0.25913972
v -0.26974326 0.98430777 -0.00050623
v 0.15533848 0.73741764 0.68577242
v 0.00045599 0.88107169 0.51555741
v 0.26960579 0.98737949 0.00345595
v 0.15920809 0.97754657 0.26009640
v 0.42989028 0.89097679 0.25769621
v -0.16284825 0.97200257 -0.25598079
v -0.42564270 0.88924301 -0.25438815
v 0.42589638 0.89213741 -0.25336239
v 0.15764742 0.97330016 -0.25657773
v -0.16287538 0.73041308 -0.68458772
v -0.00137529 0.87789005 -0.51481515
v 0.15933421 0.73498762 -0.68513024
v -0.57912725 0.72563243 -0.40674850
v -0.67580807 0.73376489 -0.15250641
v -0.26499495 0.51337171 -0.85150754
v -0.42706198 0.63765663 -0.66734767
v -0.89452147 0.39441451 -0.43462908
v -0.69232720 0.51449490 -0.57769138
v -0.73890376 0.32083568 -0.71604687
v -0.83203876 0.59338492 0.01000767
v -1.04267514 0.18085432 -0.29713497
v -0.98491418 0.38491502 -0.15586828
v -0.96744901 0.38944289 0.17700028
v -1.04197121 0.19215849 0.30428377
v 0.58307707 0.72779322 0.41701418
v 0.68436933 0.73958164 0.15750460
v 0.25450948 0.52638483 0.85749394
v 0.41689208 0.64836639 0.67497838
v 0.88003415 0.38641509 0.43471238
v 0.68736750 0.51564270 0.58372939
v 0.74218011 0.30922881 0.70198452
v -0.26464361 0.31124073 1.00167155
v 0.00643900 0.40449291 0.98634392
v -0.79743236 0.07686138 0.79725093
v -0.56022125 0.18545462 0.93140632
v -0.00610335 0.03102196 1.10648465
v -0.30350134 0.09550644 1.08274806
v -0.29814535 0.12761678 0.94585741
v -1.10136998 0.00347018 0.16920257
v -1.01358116 0.02272062 0.46866307
v -0.99308980 0.01498020 -0.47769400
v -1.07574689 0.00294009 -0.18494087
v -0.68677527 0.33558467 0.14937533
v -0.88114595 0.24214305 -0.01709854
v -0.70712823 0.35030013 -0.17243984
v -0.57905698 0.20967157 -0.92819983
v -0.81699741 0.07358049 -0.79746866
v -0.01049838 0.39654133 -0.98462355
v -0.28117222 0.31377786 -1.00033498
v -0.29267117 0.10054994 -0.96499622
v -0.29969680 0.08092798 -1.10209429
v 0.01788359 0.02005522 -1.12153840
v 0.42595789 0.64049143 -0.67143053
v 0.26009423 0.52231938 -0.86183780
v 0.68049723 0.74287939 -0.15341613
v 0.58009481 0.72313738 -0.40939462
v 0.73479718 0.32339859 -0.74525142
v 0.69034117 0.51083761 -0.59289664
v 0.89344341 0.39427909 -0.45271879
v 0.68461895 0.24272497 0.15255173
v 0.60333782 0.20203584 0.46277636
v 0.43794554 0.34316757 0.27051073
v 0.79877263 0.07579362 0.78706592
v 0.73744625 0.07861765 0.66510022
v 1.00518143 0.01845913 0.49934107
v 0.13332625 0.31386006 0.71445274
v 0.41893873 0.19973341 0.75017530
v 0.25856906 0.07350882 0.94240797
v 0.18199225 0.41979748 0.21852328
v 0.28769931 0.15867476 0.00327795
v -0.16858461 0.27486241 0.69530660
v -0.00226593 0.40967998 0.49949819
v -0.28288180 0.23307508 0.05431607
v -0.13038775 0.25536475 0.28406495
v -0.38707358 0.40619144 0.26197016
v 0.14527473 0.15330443 -0.24734084
v 0.46950158 0.25691921 -0.20238550
v -0.41913956 0.28320822 -0.27378625
v -0.19607304 0.12049109 -0.19472554
v 0.16985486 0.26698908 -0.71946371
v -0.01485874 0.13890569 -0.51906687
v -0.16224563 0.25267807 -0.72049499
v 0.61378700 0.29546821 -0.38657251
v 0.68510908 0.27853447 -0.13831678
v 0.29070932 0.13466354 -0.91092813
v 0.46158093 0.24398252 -0.69151700
v 0.98427719 0.00076099 -0.49162158
v 0.76061970 0.11787906 -0.63687879
v 0.80242342 0.09876005 -0.80229765
v 0.85064518 0.19349787 0.00051830
v 1.06485558 0.19345169 -0.31475866
v 1.10175908 0.00000000 -0.19223250
v 1.11506701 0.03922658 0.19487645
v 1.05186248 0.20430103 0.28508595
v 0.29820314 0.10315754 1.09450853
v 0.58366847 0.21040478 0.91669500
v 0.27944824 0.32381201 0.98698229
v -0.60933799 0.30749372 0.41994959
v -0.46814147 0.21875833 0.72932810
v -0.75787818 0.04881306 0.59742856
v -0.43500748 0.18172529 -0.73011786
v -0.58342594 0.30557784 -0.44889453
v -0.74158150 0.10347819 -0.65121239
v 0.56358451 0.20628870 -0.94620854
v 0.30690640 0.08431905 -1.09229600
v 0.26448667 0.31849650 -1.01101124
v 0.97192979 0.38424054 0.15836814
v 0.96308893 0.37686446 -0.17701530
v 0.84463716 0.58990097 -0.00487752
v -0.60154980 0.81314403 0.08003554
v -0.55938351 0.82169330 0.20902434
v -0.47719207 0.89257252 0.12965649
v -0.69215333 0.65155274 0.36986169
v -0.62961113 0.73990071 0.29196545
v -0.73563606 0.65816158 0.23583435
v -0.36980599 0.86980963 0.37666446
v -0.50485057 0.81088144 0.33801362
v -0.44576627 0.78775996 0.45555273
v -0.82019132 0.26464942 0.67556894
v -0.80577981 0.35974902 0.61092401
v -0.90142781 0.30196062 0.52927053
v -0.59291720 0.46735218 0.71500582
v -0.70198029 0.41789991 0.67199361
v -0.60519397 0.36729324 0.78797764
v -0.83901256 0.47996840 0.38395095
v -0.78276676 0.45393562 0.53120816
v -0.74692404 0.53995425 0.45645672
v -0.08342943 0.66652638 0.76503575
v -0.20775115 0.62196529 0.77122158
v -0.12793674 0.55457836 0.85265619
v -0.36501816 0.74335575 0.58498561
v -0.28997812 0.69201982 0.68458259
v -0.23382969 0.78905404 0.59414637
v -0.37284577 0.46777585 0.84566993
v -0.33508286 0.57690424 0.76880074
v -0.45822150 0.52961737 0.75278664
v -0.63393199 0.61748832 0.51133221
v -0.55067307 0.57714081 0.64217556
v -0.50084114 0.68538684 0.55123156
v -0.35364237 0.94980484 0.13025643
v -0.39635855 0.94334704 0.00102901
v -0.23854594 0.91637474 0.37878412
v -0.29864118 0.94002140 0.25958166
v -0.13711181 1.00723171 0.00020454
v -0.21977036 0.99095666 0.13007109
v -0.08356396 1.00943589 0.13132368
v 0.07520232 0.67127508 0.76693428
v -0.00254297 0.74376965 0.69193786
v 0.15630202 0.87185472 0.50902992
v 0.07882436 0.81643265 0.60597301
v 0.23156084 0.79536474 0.59480876
v -0.08194838 0.81340396 0.60714954
v -0.15471566 0.86925668 0.51028103
v 0.39688587 0.94427156 0.00549577
v 0.35345992 0.95107812 0.13408814
v 0.47897482 0.89239126 0.13230720
v 0.07874044 1.00920236 0.13180928
v 0.21562383 0.99150026 0.13351530
v 0.13464330 1.00987005 0.00089862
v 0.37185022 0.87297553 0.37765080
v 0.29801109 0.94440323 0.26301184
v 0.23798501 0.92034167 0.38100922
v -0.08262400 0.94041264 0.39314303
v 0.08193301 0.94046861 0.39399269
v -0.00221862 0.98830050 0.26310015
v -0.35186508 0.94761980 -0.12943634
v -0.47416982 0.89264393 -0.12770283
v -0.08391494 1.00594461 -0.12880477
v -0.21769598 0.98535675 -0.12942797
v -0.36933336 0.87201929 -0.37482780
v -0.29706481 0.93978161 -0.25955835
v -0.23389173 0.91450810 -0.37759498
v 0.47630274 0.89639109 -0.12482800
v 0.35292545 0.95227021 -0.12578261
v 0.23433095 0.91693604 -0.37854749
v 0.29560053 0.94114321 -0.25741863
v 0.36796972 0.87301606 -0.37434518
v 0.21591437 0.98861945 -0.12840822
v 0.07847454 1.00772965 -0.12997019
v -0.08495016 0.66432887 -0.76961821
v -0.00386762 0.74186575 -0.69338560
v 0.07813730 0.66999471 -0.76758158
v -0.15536512 0.86627346 -0.50758636
v -0.08214587 0.80866426 -0.60395706
v -0.23404469 0.78918219 -0.59155226
v 0.23224024 0.79174715 -0.59216869
v 0.07810161 0.81155670 -0.60611075
v 0.15266491 0.86877155 -0.50827062
v -0.00284019 0.98593742 -0.26080593
v 0.07998341 0.93872821 -0.39234167
v -0.08155270 0.93672591 -0.39206779
v -0.55811858 0.82131708 -0.20712619
v -0.60145611 0.81625628 -0.07902993
v -0.44785556 0.79113489 -0.45081124
v -0.50814676 0.81626922 -0.33495849
v -0.74321616 0.65039569 -0.22369628
v -0.63461387 0.73579311 -0.28271219
v -0.69771230 0.65009445 -0.35293004
v -0.13491584 0.56069213 -0.85360312
v -0.21661517 0.62684184 -0.77791798
v -0.47217500 0.53665984 -0.74391013
v -0.35004532 0.57978874 -0.76700294
v -0.38856676 0.47282434 -0.84239489
v -0.29791099 0.68942648 -0.68436986
v -0.36826324 0.74105722 -0.58329803
v -0.91525114 0.29929468 -0.50803721
v -0.82742149 0.35796350 -0.58151466
v -0.84174877 0.24422441 -0.64847845
v -0.75661653 0.54372692 -0.44235063
v -0.79999179 0.45760125 -0.51104122
v -0.85453939 0.48088714 -0.36388063
v -0.63147569 0.36950803 -0.77068305
v -0.72299916 0.42248145 -0.64939356
v -0.61084777 0.47454739 -0.70456642
v -0.50630850 0.69453800 -0.54318005
v -0.56475282 0.58059603 -0.62446380
v -0.64039123 0.62334996 -0.49143600
v -0.68290079 0.74683094 0.00111206
v -0.82495046 0.58355564 -0.14317967
v -0.75990677 0.66159558 -0.07323431
v -0.75585133 0.66736799 0.08458251
v -0.81985492 0.58959156 0.16138411
v -0.99126774 0.20170267 -0.44226715
v -0.97666425 0.28339186 -0.37232935
v -1.03697181 0.27956089 -0.08044270
v -1.01537716 0.28388375 -0.22359444
v -1.07849669 0.18622050 -0.14780851
v -0.94802332 0.38895646 -0.29495302
v -0.89900088 0.47875708 -0.22481279
v -0.96413893 0.29076606 0.38713413
v -0.99379987 0.19762424 0.45107013
v -0.88374972 0.48227417 0.24598549
v -0.92724013 0.39006883 0.32127205
v -1.07632291 0.20335637 0.15583870
v -1.01164317 0.29446816 0.23943600
v -1.04089856 0.29917186 0.08970389
v -0.91272408 0.49405056 -0.07080861
v -0.98057240 0.39237732 0.00918589
v -0.90640521 0.49592295 0.09154119
v 0.56664193 0.82278699 0.21195672
v 0.60854697 0.81741494 0.08280737
v 0.45096177 0.79098600 0.45839077
v 0.51197380 0.81513792 0.34082371
v 0.75146335 0.65581989 0.23100147
v 0.64050549 0.74004245 0.29114679
v 0.70394111 0.65021032 0.36405095
v 0.12832233 0.56606436 0.85446465
v 0.20569457 0.63658291 0.77817875
v 0.46421900 0.54611552 0.75710464
v 0.33635238 0.59285247 0.77056468
v 0.38178861 0.48301396 0.84973109
v 0.29105890 0.69900656 0.69040912
v 0.36701816 0.75356346 0.58976465
v 0.90790838 0.28521028 0.49590269
v 0.81771117 0.34277552 0.57377839
v 0.83422989 0.24034537 0.64135325
v 0.75397807 0.54362547 0.44764006
v 0.79038727 0.44871792 0.51224834
v 0.84778315 0.47236907 0.37166792
v 0.63159472 0.37863791 0.76375455
v 0.70897901 0.41315255 0.64244694
v 0.60395616 0.47913337 0.70836091
v 0.50822020 0.69421381 0.55459225
v 0.55914980 0.59104282 0.63995516
v 0.63926393 0.62378758 0.50447923
v -0.12503079 0.46206442 0.93008310
v 0.00507126 0.50176114 0.91434544
v -0.38257498 0.36266756 0.92028344
v -0.25432324 0.41086903 0.93398905
v 0.00849810 0.30344209 1.04742074
v -0.12554091 0.35733342 1.00226808
v -0.13214041 0.25667003 1.05587769
v -0.87264347 0.13295989 0.69538689
v -0.76753169 0.19108894 0.77840239
v -0.59211916 0.08226287 0.95123392
v -0.68650079 0.13557814 0.87912047
v -0.71814859 0.00210296 0.86600715
v -0.64443183 0.24949871 0.84189981
v -0.52634066 0.30162582 0.88756496
v -0.01675112 0.09623405 0.99812698
v -0.17290120 0.10542075 1.02452028
v -0.16181542 0.17745531 0.91940963
v -0.13744679 0.13205530 1.10895014
v -0.15625636 0.00885189 1.09735096
v 0.01260660 0.09584291 1.12811458
v -0.43060687 0.06429482 0.92904037
v -0.31010371 0.03955751 1.06447351
v -0.46440843 0.00875789 1.02659416
v -0.40692097 0.24062070 0.97593671
v -0.43839020 0.12258225 1.00957918
v -0.27433100 0.18537654 1.05414498
v -1.04598629 0.09158935 0.40070772
v -0.98108816 0.09742346 0.54990357
v -1.11980009 0.09038516 0.08681682
v -1.09092724 0.09202017 0.23832624
v -0.92999125 0.11074107 0.40022030
v -1.05329597 0.00270459 0.32719302
v -0.97810835 0.09442197 0.25493541
v -0.98544335 0.07816396 -0.55254066
v -1.04443550 0.11243892 -0.41220406
v -0.97334081 0.10472178 -0.22851013
v -1.02788138 0.01566884 -0.34549582
v -0.93170565 0.13541210 -0.41040000
v -1.09369600 0.08647727 -0.25068781
v -1.13214958 0.10556324 -0.10847982
v -0.60731459 0.41526234 0.08984189
v -0.70028299 0.36955768 -0.01766093
v -0.60380328 0.38027570 -0.10197171
v -0.89651632 0.23919418 0.17335153
v -0.80312735 0.31703216 0.07807843
v -0.78892714 0.28900248 0.23764843
v -0.78043997 0.28324988 -0.25497472
v -0.79735458 0.32156214 -0.09422819
v -0.86048263 0.20715708 -0.18018347
v -1.10999632 0.00033050 -0.01645679
v -1.00592661 0.12914278 -0.07791643
v -1.00355303 0.14467065 0.09704421
v -0.78545982 0.18772376 -0.75626212
v -0.88529831 0.10536943 -0.67891181
v -0.55308455 0.31603408 -0.87806487
v -0.67479843 0.24602933 -0.82695091
v -0.69014788 0.00234271 -0.82807595
v -0.69905245 0.13759173 -0.87376267
v -0.59952569 0.08979911 -0.97063982
v -0.00271120 0.49692807 -0.91385323
v -0.13715066 0.45820329 -0.92705494
v -0.14643416 0.25903890 -1.07008994
v -0.14210989 0.35043398 -0.99906671
v -0.00472848 0.30253556 -1.05256128
v -0.27051428 0.41486844 -0.92794627
v -0.39758554 0.37152851 -0.90966529
v -0.13369043 0.11041589 -0.93109691
v -0.12582555 0.00441945 -1.02007282
v 0.01800069 0.08252936 -0.99753714
v -0.45080787 0.03522081 -1.03735340
v -0.29180855 0.00000000 -1.04689825
v -0.42841855 0.01837809 -0.92492259
v -0.02183435 0.08421335 -1.13915813
v -0.16357167 0.00270988 -1.14325213
v -0.16197978 0.12285529 -1.10972440
v -0.43368226 0.27037042 -0.98068279
v -0.30102327 0.20561086 -1.05797935
v -0.45313460 0.14667360 -1.02892423
v 0.20975271 0.63359231 -0.77856183
v 0.13038027 0.55834383 -0.85637492
v 0.36720026 0.74533761 -0.58574051
v 0.29492953 0.69230396 -0.68700224
v 0.38461486 0.47741088 -0.85350204
v 0.34537601 0.58566624 -0.77102929
v 0.46480992 0.53740317 -0.75239295
v 0.60505086 0.82141471 -0.07701904
v 0.56082606 0.82675034 -0.20589545
v 0.69490087 0.65616000 -0.36203235
v 0.63695556 0.73928863 -0.28361210
v 0.74421942 0.66007537 -0.23253870
v 0.50701225 0.81378758 -0.33455455
v 0.44719708 0.78941143 -0.45380014
v 0.84115028 0.26830986 -0.67758948
v 0.83101517 0.36130011 -0.60413527
v 0.92147881 0.29712656 -0.52357250
v 0.60094279 0.47632530 -0.71589077
v 0.71582806 0.41314557 -0.67423600
v 0.61979502 0.37272835 -0.79504871
v 0.84438187 0.48225847 -0.38603574
v 0.79256296 0.45045564 -0.53313142
v 0.74941742 0.54728806 -0.45297560
v 0.51218003 0.69013864 -0.54913968
v 0.64311248 0.62290907 -0.50420964
v 0.56364465 0.57881033 -0.63704813
v 0.60668939 0.32922792 0.08367776
v 0.57670569 0.31815791 0.22313483
v 0.49409381 0.36832684 0.15160769
v 0.74152476 0.19201533 0.39032647
v 0.66245633 0.25343829 0.31915963
v 0.76427263 0.24883886 0.24610867
v 0.36210033 0.31901741 0.39533806
v 0.52471501 0.28252953 0.36492944
v 0.44968182 0.25458342 0.49820578
v 0.88775200 0.12617277 0.69688982
v 0.92271978 0.01667860 0.65777135
v 0.98471802 0.10011740 0.55416381
v 0.66193670 0.00001189 0.78037518
v 0.81162328 0.00000000 0.75388014
v 0.70407307 0.01521282 0.88273144
v 0.91890031 0.02244943 0.40322328
v 0.87749910 0.00332019 0.59649926
v 0.82755268 0.09266341 0.50962758
v 0.09665372 0.24185982 0.81631309
v 0.21589130 0.20018624 0.84592396
v 0.13569289 0.12903382 0.94969392
v 0.36661398 0.30569607 0.63157910
v 0.28735352 0.28012010 0.69644129
v 0.20066854 0.36485338 0.57515079
v 0.41690239 0.03437731 0.94858706
v 0.34096697 0.17583001 0.84543496
v 0.47455144 0.07146998 0.82751518
v 0.66590738 0.12088358 0.55213767
v 0.55377126 0.12976603 0.71188593
v 0.52331710 0.21008159 0.59422064
v 0.37476307 0.23783706 0.13858859
v 0.42681131 0.25865853 0.02007701
v 0.22129062 0.37759170 0.36896193
v 0.31035659 0.37325704 0.24688062
v 0.16526414 0.17632616 0.01744631
v 0.24736431 0.31790933 0.09555303
v 0.13076636 0.23666419 0.15793784
v -0.07661477 0.25764892 0.80650413
v -0.00053643 0.30487826 0.72806174
v -0.14903490 0.38958693 0.50878531
v -0.08888238 0.35709533 0.60235763
v -0.25769469 0.30493197 0.60230064
v 0.07046927 0.36082602 0.60343206
v 0.13519455 0.39996985 0.47814560
v -0.38888898 0.33538714 0.04802022
v -0.31687894 0.41517100 0.14134739
v -0.47382179 0.45418614 0.15015525
v -0.04771053 0.23529218 0.15139982
v -0.16983050 0.36085394 0.13347985
v -0.13087355 0.16779754 0.04829664
v -0.34118831 0.37884417 0.36724153
v -0.24563956 0.40653196 0.28921881
v -0.20420340 0.39202058 0.38992009
v 0.07835859 0.44690278 0.34496939
v -0.05240190 0.42074281 0.37140784
v 0.07060912 0.27250153 0.28905192
v 0.37936798 0.24558829 -0.11009282
v 0.42389083 0.41146639 -0.11073906
v 0.09103147 0.17075068 -0.10460231
v 0.22217193 0.16664281 -0.12022871
v 0.38627017 0.24679324 -0.35278204
v 0.31737134 0.16647708 -0.23780072
v 0.24718152 0.15985924 -0.37052214
v -0.44944105 0.35570028 -0.12161367
v -0.39533997 0.23105192 -0.10237238
v -0.23997499 0.09794955 -0.34877831
v -0.31632766 0.16932522 -0.23194909
v -0.36230937 0.19094561 -0.37696725
v -0.25442374 0.12975605 -0.07171077
v -0.09884040 0.11473309 -0.08411612
v 0.09605101 0.18953000 -0.81376797
v 0.00730109 0.22840942 -0.73766500
v -0.09336731 0.19196117 -0.83143669
v 0.15484609 0.20944548 -0.50324541
v 0.08776736 0.17809466 -0.62300164
v 0.24458268 0.27848196 -0.61638367
v -0.23781319 0.14708443 -0.66612512
v -0.09325585 0.20614432 -0.63957721
v -0.14996348 0.11994305 -0.50671989
v -0.00203793 0.14785397 -0.21930069
v -0.08452123 0.08433672 -0.34590188
v 0.07905317 0.16605008 -0.37639481
v 0.53527933 0.35959440 -0.17405277
v 0.59232694 0.32745740 -0.03740299
v 0.43661821 0.30952278 -0.44127876
v 0.48123172 0.34550381 -0.33269963
v 0.76095164 0.23009507 -0.24777253
v 0.64025903 0.29727039 -0.28633666
v 0.73935080 0.24118909 -0.39130720
v 0.15399018 0.17231162 -0.89391673
v 0.23740602 0.20569116 -0.81442386
v 0.51387900 0.11903546 -0.76646113
v 0.38205779 0.18634315 -0.79369444
v 0.43329981 0.11395682 -0.91104448
v 0.31631729 0.28987610 -0.74031395
v 0.37708181 0.32736290 -0.60010064
v 0.97932875 0.10645788 -0.55386883
v 0.89957768 0.03996951 -0.66653746
v 0.88373458 0.15028343 -0.69788474
v 0.82828224 0.17249164 -0.48771968
v 0.89845759 0.09447507 -0.56292886
v 0.93731642 0.08676592 -0.41745329
v 0.71882576 0.01311511 -0.88661891
v 0.80885422 0.00000000 -0.70865929
v 0.68098521 0.04245181 -0.74566388
v 0.53199416 0.27612454 -0.52961570
v 0.62531316 0.20454635 -0.66868383
v 0.69120401 0.26770273 -0.52464545
v 0.70132840 0.25780106 0.01367833
v 0.88434958 0.21713561 -0.18225676
v 0.77286690 0.18610795 -0.09951348
v 0.77552629 0.19412985 0.08847155
v 0.87165713 0.19679625 0.18671247
v 1.00505006 0.19684771 -0.46042708
v 1.05980563 0.11731099 -0.41759521
v 1.13958991 0.09507497 -0.09899943
v 1.11317766 0.09780587 -0.25443244
v 1.10277975 0.19207126 -0.16159382
v 1.05901790 0.02100170 -0.34483153
v 0.98212725 0.08239619 -0.25020212
v 1.06620157 0.10823319 0.39966646
v 1.00118995 0.19917881 0.42331639
v 0.96482563 0.05045452 0.25761342
v 1.08509040 0.04520415 0.35158587
v 1.07995403 0.19024689 0.13000271
v 1.10017824 0.11722362 0.24744518
v 1.12752736 0.10599378 0.07960057
v 0.99558568 0.10544834 -0.09397703
v 1.11231637 0.00125442 -0.00441692
v 0.98366964 0.09821064 0.08355318
v 0.13522992 0.05846155 1.04405057
v 0.44810852 0.07190896 1.04846811
v 0.30989417 0.00095653 1.05783832
v 0.15743507 0.04629371 1.12313902
v 0.15488017 0.15061034 1.10342884
v 0.77199709 0.19754206 0.75534105
v 0.55378950 0.31503031 0.87027258
v 0.66757691 0.25953299 0.81195748
v 0.69844401 0.14963444 0.86399418
v 0.60436183 0.11217980 0.96186644
v 0.13517025 0.46688998 0.93338162
v 0.15218377 0.26055282 1.05985630
v 0.14257433 0.36089253 1.00248265
v 0.26828572 0.42528942 0.93073708
v 0.39886191 0.37309408 0.91162425
v 0.45375437 0.15206881 1.01746583
v 0.43389705 0.26342636 0.96387845
v 0.29835388 0.20557863 1.04464161
v -0.57209367 0.42014703 0.22949819
v -0.46182108 0.35614344 0.46389341
v -0.50905067 0.36763519 0.34312668
v -0.65973675 0.32791543 0.28196597
v -0.75206715 0.26791653 0.39132074
v -0.22914892 0.21003532 0.79387963
v -0.51864433 0.08328708 0.84120303
v -0.36796597 0.15778530 0.82102513
v -0.32137498 0.22828659 0.66540760
v -0.40156621 0.30624464 0.59201646
v -0.92498356 0.03284608 0.65194780
v -0.83128399 0.15524550 0.49640515
v -0.89628583 0.02869765 0.54371065
v -0.82313943 0.00000000 0.72661310
v -0.68770510 0.08037378 0.76131105
v -0.53507322 0.26285839 0.58495867
v -0.59258193 0.12062064 0.67877144
v -0.68809527 0.22101463 0.54770374
v -0.23370008 0.11954321 -0.80227739
v -0.34256637 0.23022290 -0.59346861
v -0.32399005 0.19787176 -0.70198148
v -0.36855713 0.09971067 -0.84236854
v -0.48756453 0.11901105 -0.81001049
v -0.55416846 0.25240231 -0.21890400
v -0.71970844 0.23805033 -0.39573294
v -0.65581948 0.30752850 -0.30988762
v -0.53466487 0.30211791 -0.37614995
v -0.41140941 0.29057801 -0.49680570
v -0.89742935 0.00000000 -0.65324068
v -0.66677320 0.10436807 -0.78301162
v -0.78892207 0.02957457 -0.74980527
v -0.86969477 0.08838012 -0.57307488
v -0.81571138 0.14738864 -0.50141037
v -0.49140167 0.26744938 -0.58783931
v -0.65497017 0.21933539 -0.55799091
v -0.59533852 0.16741960 -0.68891871
v 0.77648616 0.21225230 -0.77488208
v 0.58587414 0.08516154 -0.95991206
v 0.69856101 0.14806512 -0.88245523
v 0.65272510 0.26363370 -0.85201329
v 0.53585398 0.31544957 -0.89200640
v 0.15257369 0.13538820 -1.02013874
v 0.13478847 0.12656137 -1.11484623
v 0.14877978 0.12284283 -1.10547686
v 0.30288669 0.07975765 -1.02203429
v 0.43595093 0.00367957 -1.02034295
v 0.12837194 0.45980084 -0.93711698
v 0.38625297 0.37495703 -0.92417121
v 0.26329732 0.41709957 -0.93347621
v 0.12760901 0.36241370 -1.00402033
v 0.13300589 0.25844735 -1.06794202
v 0.44379705 0.12649205 -1.03814852
v 0.27609134 0.18865210 -1.06646860
v 0.41367659 0.25677621 -0.99101037
v 0.97325057 0.29803878 0.36662886
v 1.04665983 0.29998928 0.07709850
v 1.02781367 0.29909047 0.22148484
v 0.94020081 0.39073142 0.29874068
v 0.89979613 0.47948101 0.23388870
v 0.97898227 0.28515545 -0.38890776
v 0.89284784 0.47582233 -0.25255993
v 0.94515824 0.38527066 -0.31594929
v 1.02516878 0.28072420 -0.24481806
v 1.04676962 0.29784626 -0.09913888
v 0.69189602 0.75266480 0.00084403
v 0.83776313 0.57943875 0.14878444
v 0.77244931 0.66758811 0.07956620
v 0.76665187 0.66742182 -0.07790547
v 0.82965153 0.58722389 -0.16060534
v 0.97949028 0.38297021 -0.01131594
v 0.90760785 0.48684430 -0.09423344
v 0.91734612 0.48037446 0.07113802
f 330 87 329
f 336 325 26
f 207 208 56
f 464 36 580
f 502 129 504
f 157 624 622
f 308 311 82
f 247 223 248
f 507 483 508
f 331 88 329
f 494 500 497
f 156 601 602
f 591 589 592
f 365 98 596
f 75 281 282
f 152 587 577
f 149 559 560
f 555 121 553
f 530 141 529
f 515 517 139
f 361 594 98
f 250 67 249
f 157 608 609
f 294 293 209
f 317 81 316
f 557 338 26
f 303 305 81
f 530 529 528
f 101 381 382
f 415 418 111
f 192 184 50
f 412 110 411
f 20 384 256
f 131 594 486
f 281 264 282
f 347 287 348
f 28 349 582
f 165 163 1
f 248 250 66
f 617 107 398
f 273 271 274
f 456 115 453
f 558 561 560
f 335 576 91
f 331 177 332
f 116 433 436
f 351 370 92
f 136 511 530
f 239 240 65
f 247 258 19
f 304 23 567
f 148 557 570
f 214 208 58
f 440 426 450
f 268 270 269
f 258 247 268
f 204 202 16
f 466 125 465
f 517 513 133
f 168 275 274
f 275 73 274
f 198 193 53
f 309 308 307
f 510 511 136
f 415 416 110
f 131 490 597
f 473 475 474
f 414 415 111
f 493 495 494
f 496 504 485
f 433 116 432
f 600 375 601
f 240 234 65
f 418 415 412
f 486 361 3
f 567 566 304
f 380 393 29
f 17 199 197
f 491 492 132
f 451 449 435
f 218 217 216
f 623 621 613
f 396 104 395
f 433 439 436
f 628 160 627
f 215 202 217
f 209 207 2
f 427 113 424
f 434 10 544
f 434 433 432
f 199 17 210
f 150 564 565
f 489 491 132
f 275 13 285
f 497 500 134
f 125 466 476
f 578 152 577
f 208 214 211
f 328 88 343
f 356 27 603
f 150 566 567
f 372 100 371
f 190 191 47
f 235 8 398
f 260 261 72
f 422 403 414
f 422 414 111
f 453 454 123
f 349 583 582
f 521 520 519
f 425 453 115
f 616 622 158
f 483 130 508
f 151 586 572
f 212 17 232
f 400 397 402
f 377 396 99
f 41 522 511
f 510 508 505
f 549 547 42
f 475 473 36
f 510 137 509
f 222 221 197
f 430 115 429
f 220 194 1
f 305 54 204
f 621 29 613
f 192 171 184
f 460 335 5
f 88 331 332
f 74 277 279
f 300 301 80
f 390 389 388
f 165 45 164
f 146 549 551
f 291 278 75
f 448 120 445
f 147 543 544
f 607 610 609
f 603 602 356
f 139 529 514
f 333 553 443
f 92 368 347
f 261 260 259
f 300 6 200
f 46 177 331
f 284 283 174
f 301 300 200
f 471 468 474
f 54 305 301
f 302 304 303
f 569 150 567
f 150 569 570
f 294 209 2
f 628 629 160
f 548 543 147
f 147 625 627
f 63 233 234
f 426 427 114
f 41 509 532
f 198 52 196
f 614 105 612
f 147 627 547
f 81 305 306
f 549 548 547
f 54 301 200
f 342 88 332
f 264 281 70
f 193 194 53
f 455 429 456
f 187 321 14
f 479 130 484
f 147 544 625
f 458 456 453
f 304 80 303
f 314 84 313
f 488 503 501
f 321 332 14
f 423 425 424
f 305 204 306
f 341 339 25
f 514 40 516
f 625 628 627
f 340 339 341
f 105 614 391
f 243 228 62
f 318 316 78
f 75 278 279
f 357 355 353
f 238 257 63
f 466 455 476
f 425 423 4
f 448 449 120
f 408 638 108
f 292 275 285
f 22 278 289
f 515 513 517
f 501 503 134
f 622 623 158
f 134 503 504
f 195 216 206
f 163 271 246
f 619 617 620
f 62 228 229
f 163 165 164
f 453 425 454
f 489 132 488
f 82 628 625
f 58 208 209
f 525 608 40
f 626 547 627
f 518 517 498
f 489 487 491
f 557 26 564
f 325 336 344
f 541 145 539
f 40 616 516
f 338 556 89
f 250 248 245
f 139 514 515
f 98 594 596
f 246 220 1
f 112 413 630
f 9 536 413
f 156 600 601
f 332 177 14
f 321 342 332
f 156 606 600
f 584 330 585
f 302 303 81
f 584 87 330
f 330 25 585
f 400 239 65
f 439 440 117
f 95 358 368
f 597 594 131
f 594 361 486
f 246 67 245
f 561 562 149
f 28 364 362
f 55 216 217
f 427 430 114
f 267 20 254
f 556 555 553
f 84 309 558
f 311 310 312
f 609 525 142
f 256 68 255
f 124 460 461
f 82 311 312
f 307 308 82
f 589 135 495
f 527 40 514
f 112 418 412
f 20 256 254
f 258 238 19
f 267 254 269
f 273 272 249
f 392 391 393
f 137 533 509
f 122 455 456
f 9 413 411
f 130 480 505
f 333 443 5
f 527 525 40
f 589 495 385
f 39 496 485
f 223 225 224
f 414 416 415
f 219 222 53
f 145 538 539
f 413 412 411
f 469 468 467
f 183 181 6
f 191 192 50
f 429 35 431
f 292 285 76
f 413 112 412
f 415 110 412
f 43 164 167
f 467 468 126
f 617 101 620
f 450 451 117
f 438 546 545
f 619 620 159
f 17 212 210
f 124 579 576
f 584 153 583
f 460 124 576
f 3 469 467
f 311 308 314
f 6 320 183
f 389 104 388
f 251 250 249
f 194 165 1
f 291 289 278
f 287 77 348
f 238 258 257
f 139 517 518
f 238 236 19
f 223 247 19
f 382 380 29
f 39 518 498
f 361 359 3
f 69 255 257
f 139 518 528
f 33 545 535
f 387 385 7
f 69 268 269
f 477 462 125
f 454 479 123
f 121 555 447
f 451 435 117
f 454 425 4
f 233 252 8
f 124 463 464
f 69 258 268
f 168 167 166
f 583 153 582
f 384 394 102
f 138 512 513
f 57 210 211
f 254 256 255
f 607 609 142
f 324 319 86
f 289 291 76
f 291 292 76
f 384 102 383
f 422 421 420
f 221 17 197
f 383 102 381
f 376 377 99
f 99 373 374
f 386 105 392
f 438 33 440
f 90 341 343
f 281 75 279
f 574 571 96
f 628 82 312
f 221 222 59
f 127 471 474
f 595 605 603
f 551 538 145
f 334 91 340
f 322 324 85
f 305 303 301
f 18 239 399
f 306 204 16
f 199 198 197
f 166 190 180
f 303 80 301
f 267 266 265
f 626 42 547
f 16 215 213
f 349 351 350
f 295 16 213
f 68 379 252
f 250 251 66
f 627 160 626
f 383 68 256
f 343 88 342
f 507 508 136
f 202 215 16
f 197 198 53
f 254 69 269
f 603 605 156
f 418 419 111
f 384 383 256
f 455 122 476
f 203 204 54
f 556 557 148
f 255 68 253
f 313 84 560
f 25 328 341
f 254 255 69
f 603 156 602
f 581 584 583
f 630 632 112
f 163 246 1
f 246 245 220
f 432 116 558
f 499 591 590
f 320 563 86
f 345 93 350
f 306 16 295
f 346 93 345
f 562 568 149
f 604 605 155
f 154 592 593
f 545 552 535
f 511 522 530
f 574 573 571
f 566 150 565
f 361 98 360
f 67 271 273
f 234 235 65
f 208 211 56
f 574 151 573
f 251 270 66
f 398 8 378
f 213 215 214
f 438 440 439
f 315 314 313
f 263 71 262
f 20 373 384
f 496 134 504
f 329 88 328
f 81 306 316
f 555 556 148
f 592 589 103
f 617 619 107
f 227 207 56
f 571 359 96
f 446 466 465
f 206 216 55
f 359 571 469
f 568 148 570
f 34 437 435
f 28 351 349
f 21 272 282
f 113 423 424
f 490 489 488
f 379 68 383
f 210 212 211
f 80 563 300
f 351 92 350
f 326 346 12
f 83 317 318
f 555 148 554
f 212 231 56
f 218 57 217
f 271 67 246
f 195 196 52
f 270 268 66
f 390 592 103
f 148 568 554
f 495 493 7
f 592 390 593
f 357 95 355
f 574 575 151
f 452 120 451
f 154 591 592
f 587 585 577
f 395 394 396
f 93 349 350
f 610 416 611
f 166 44 190
f 315 23 302
f 315 302 317
f 268 247 66
f 606 154 593
f 396 394 99
f 211 212 56
f 370 369 368
f 235 397 65
f 280 278 22
f 83 315 317
f 575 588 151
f 74 279 280
f 385 495 7
f 63 257 253
f 397 235 398
f 214 58 213
f 220 219 194
f 546 146 545
f 236 225 19
f 599 94 602
f 235 233 8
f 102 394 395
f 611 416 32
f 225 223 19
f 139 528 529
f 231 62 229
f 419 406 421
f 451 450 452
f 49 182 185
f 402 397 107
f 52 199 218
f 416 610 110
f 225 236 244
f 107 397 398
f 68 252 253
f 322 85 321
f 182 181 183
f 118 438 439
f 546 438 118
f 348 77 345
f 543 546 118
f 231 212 232
f 610 611 157
f 33 438 545
f 385 386 103
f 479 480 130
f 169 195 15
f 93 583 349
f 15 195 206
f 190 44 192
f 247 248 66
f 146 552 545
f 248 60 245
f 570 557 564
f 274 271 43
f 63 253 233
f 272 21 249
f 507 528 518
f 67 273 249
f 487 467 126
f 196 195 169
f 624 159 623
f 134 496 497
f 132 503 488
f 104 393 395
f 556 553 89
f 355 356 94
f 258 69 257
f 229 61 227
f 56 231 227
f 460 576 335
f 463 124 461
f 394 373 99
f 29 393 391
f 67 250 245
f 193 198 196
f 462 36 464
f 144 633 630
f 141 526 527
f 517 133 498
f 536 144 630
f 100 372 599
f 144 536 537
f 22 289 287
f 578 579 152
f 579 578 576
f 189 188 187
f 60 223 224
f 92 348 350
f 555 554 447
f 396 377 388
f 194 193 165
f 413 536 630
f 372 352 599
f 377 376 375
f 348 345 350
f 105 386 387
f 240 237 234
f 463 462 464
f 135 500 494
f 45 196 169
f 512 612 387
f 245 60 220
f 429 115 456
f 223 60 248
f 288 289 76
f 525 526 142
f 100 599 601
f 613 29 391
f 526 523 520
f 341 328 343
f 631 641 639
f 264 21 282
f 266 72 265
f 106 402 403
f 73 273 274
f 186 206 205
f 381 379 383
f 52 216 195
f 410 18 399
f 290 272 73
f 72 371 374
f 526 525 527
f 115 430 424
f 498 497 496
f 621 382 29
f 543 118 434
f 214 215 57
f 522 141 530
f 511 510 509
f 352 94 599
f 493 512 7
f 90 340 341
f 169 171 170
f 605 604 606
f 219 60 224
f 104 389 392
f 359 469 3
f 186 49 185
f 222 219 224
f 166 167 44
f 428 427 426
f 523 522 524
f 129 502 481
f 50 185 188
f 164 45 170
f 425 115 424
f 33 428 426
f 427 428 113
f 94 356 602
f 515 138 513
f 114 431 452
f 237 236 238
f 215 217 57
f 95 354 355
f 220 60 219
f 515 514 516
f 183 320 319
f 222 197 53
f 559 569 567
f 300 320 6
f 435 436 117
f 96 360 363
f 640 642 641
f 242 243 62
f 140 537 519
f 508 130 505
f 420 410 399
f 537 539 144
f 317 316 318
f 426 114 450
f 186 15 206
f 311 83 310
f 625 544 307
f 544 10 307
f 168 43 167
f 185 182 188
f 369 354 95
f 44 171 192
f 605 606 156
f 548 549 146
f 100 601 375
f 149 568 569
f 381 380 382
f 455 466 35
f 480 479 454
f 543 548 546
f 493 133 513
f 492 472 37
f 477 125 476
f 491 487 126
f 337 336 338
f 588 153 587
f 576 578 91
f 633 161 632
f 96 359 360
f 39 485 483
f 101 617 378
f 193 45 165
f 163 164 43
f 618 624 611
f 507 136 528
f 561 149 560
f 641 162 639
f 116 561 558
f 494 133 493
f 253 252 233
f 63 237 238
f 392 393 104
f 440 450 117
f 93 581 583
f 386 385 387
f 120 449 451
f 421 422 111
f 486 3 467
f 302 81 317
f 633 632 630
f 462 475 36
f 376 99 374
f 489 490 131
f 447 449 448
f 387 612 105
f 106 420 399
f 173 46 172
f 492 491 472
f 316 306 295
f 22 287 347
f 109 410 420
f 507 39 483
f 559 23 313
f 214 57 211
f 196 45 193
f 10 434 432
f 422 106 403
f 626 160 640
f 487 486 467
f 542 41 532
f 400 106 399
f 444 120 452
f 198 199 52
f 475 127 474
f 621 620 382
f 621 623 159
f 450 114 452
f 92 347 348
f 376 100 375
f 434 118 433
f 503 132 502
f 337 90 336
f 537 536 519
f 395 393 380
f 201 54 200
f 171 44 170
f 355 94 353
f 58 296 213
f 422 420 106
f 595 365 596
f 569 568 570
f 523 140 520
f 114 430 431
f 218 210 57
f 304 566 80
f 639 162 638
f 261 371 72
f 548 147 547
f 498 133 497
f 150 570 564
f 222 224 59
f 142 526 520
f 437 436 435
f 141 522 523
f 137 510 505
f 173 179 176
f 559 149 569
f 121 447 448
f 563 320 300
f 102 395 380
f 257 255 253
f 642 162 641
f 83 311 314
f 216 52 218
f 512 493 513
f 23 304 302
f 91 339 340
f 512 138 612
f 159 620 621
f 218 199 210
f 364 28 575
f 83 318 310
f 168 274 43
f 136 530 528
f 140 523 524
f 495 135 494
f 233 235 234
f 566 563 80
f 25 339 577
f 277 74 276
f 475 462 477
f 133 494 497
f 436 437 116
f 389 386 392
f 548 146 546
f 441 460 5
f 10 309 307
f 65 397 400
f 543 434 544
f 640 641 161
f 272 273 73
f 581 93 346
f 419 421 111
f 319 320 86
f 180 179 178
f 127 475 477
f 231 229 227
f 337 334 340
f 136 508 510
f 308 309 84
f 237 63 234
f 447 554 34
f 252 379 378
f 315 83 314
f 608 622 616
f 338 336 26
f 337 338 89
f 13 275 168
f 209 208 207
f 436 439 117
f 628 312 629
f 360 366 363
f 364 574 96
f 359 361 360
f 466 446 35
f 500 501 134
f 406 109 421
f 135 589 591
f 601 599 602
f 340 90 337
f 481 492 37
f 522 41 524
f 78 316 295
f 131 486 487
f 403 32 414
f 634 626 640
f 151 572 573
f 515 516 138
f 8 252 378
f 265 72 374
f 9 521 519
f 538 549 42
f 368 358 347
f 588 587 586
f 458 453 123
f 589 385 103
f 502 492 481
f 32 416 414
f 430 427 424
f 153 585 587
f 540 144 539
f 370 368 92
f 209 293 58
f 428 33 535
f 326 581 346
f 625 307 82
f 575 28 582
f 6 181 200
f 421 109 420
f 553 121 443
f 160 642 640
f 153 584 585
f 309 432 558
f 334 337 89
f 23 315 313
f 271 163 43
f 296 295 213
f 39 498 496
f 118 439 433
f 531 113 534
f 293 296 58
f 28 362 351
f 489 131 487
f 431 444 452
f 84 558 560
f 98 366 360
f 45 169 170
f 379 101 378
f 462 463 125
f 308 84 314
f 10 432 309
f 299 24 310
f 132 492 502
f 512 387 7
f 639 638 408
f 565 323 86
f 59 244 242
f 106 400 402
f 440 33 426
f 566 565 563
f 617 398 378
f 224 225 59
f 410 109 409
f 239 400 399
f 194 219 53
f 358 22 347
f 610 157 609
f 27 595 603
f 479 484 482
f 142 520 521
f 585 25 577
f 339 578 577
f 408 407 406
f 407 109 406
f 31 408 406
f 407 408 108
f 31 639 408
f 419 31 406
f 608 616 40
f 430 429 431
f 455 35 429
f 35 444 431
f 188 51 187
f 188 182 51
f 51 322 187
f 322 51 319
f 51 182 183
f 319 51 183
f 187 322 321
f 322 319 324
f 381 101 379
f 405 407 108
f 404 405 108
f 286 285 178
f 407 405 409
f 109 407 409
f 191 175 47
f 167 164 170
f 50 184 185
f 44 167 170
f 64 244 236
f 243 244 64
f 50 188 189
f 541 542 145
f 442 445 119
f 339 91 578
f 445 446 119
f 624 623 622
f 611 624 157
f 523 526 141
f 141 527 529
f 527 514 529
f 445 120 444
f 446 445 444
f 35 446 444
f 613 614 158
f 158 614 615
f 623 613 158
f 614 613 391
f 614 612 615
f 371 376 374
f 100 376 371
f 479 482 123
f 373 394 384
f 540 42 634
f 633 540 634
f 538 42 540
f 633 634 161
f 161 634 640
f 42 626 634
f 540 633 144
f 557 556 338
f 553 333 89
f 262 21 264
f 251 21 262
f 5 335 333
f 270 251 262
f 21 251 249
f 600 593 30
f 606 593 600
f 600 30 375
f 593 390 30
f 30 377 375
f 390 388 30
f 30 388 377
f 228 243 241
f 470 478 459
f 470 127 478
f 127 477 478
f 184 186 185
f 478 477 476
f 122 478 476
f 357 74 280
f 518 39 507
f 344 342 85
f 325 344 85
f 342 344 343
f 85 342 321
f 344 90 343
f 90 344 336
f 482 129 481
f 482 481 457
f 482 457 123
f 481 37 457
f 449 447 34
f 435 449 34
f 470 472 471
f 472 470 37
f 470 471 127
f 472 126 471
f 126 468 471
f 470 459 37
f 491 126 472
f 504 129 485
f 221 59 242
f 125 463 465
f 437 34 562
f 561 437 562
f 554 568 562
f 34 554 562
f 437 561 116
f 390 103 389
f 103 386 389
f 392 105 391
f 572 586 580
f 572 580 36
f 586 152 580
f 473 572 36
f 244 243 242
f 225 244 59
f 64 240 241
f 240 239 241
f 237 240 64
f 243 64 241
f 236 237 64
f 411 607 521
f 9 411 521
f 110 607 411
f 607 142 521
f 610 607 110
f 171 15 184
f 171 169 15
f 15 186 184
f 87 584 581
f 153 588 582
f 588 575 582
f 381 102 380
f 573 572 473
f 468 469 128
f 474 468 128
f 469 571 128
f 571 573 128
f 573 473 128
f 473 474 128
f 564 323 565
f 26 323 564
f 323 324 86
f 325 323 26
f 325 324 323
f 563 565 86
f 324 325 85
f 410 230 18
f 230 228 18
f 18 228 241
f 18 241 239
f 401 619 618
f 401 402 107
f 403 402 401
f 619 159 618
f 401 618 32
f 619 401 107
f 403 401 32
f 618 611 32
f 159 624 618
f 478 122 459
f 122 458 459
f 37 459 457
f 459 458 457
f 122 456 458
f 457 458 123
f 191 190 192
f 485 129 484
f 129 482 484
f 483 485 484
f 130 483 484
f 189 187 14
f 191 50 189
f 191 189 175
f 189 14 175
f 14 177 175
f 499 501 500
f 501 499 38
f 38 499 590
f 135 499 500
f 488 501 38
f 499 135 591
f 480 454 4
f 284 12 346
f 4 423 506
f 480 4 506
f 423 531 506
f 480 506 505
f 531 137 506
f 506 137 505
f 365 366 98
f 71 270 262
f 270 71 269
f 71 267 269
f 335 334 333
f 333 334 89
f 334 335 91
f 536 9 519
f 465 463 461
f 537 140 541
f 520 140 519
f 119 446 465
f 465 461 119
f 461 441 119
f 460 441 461
f 176 46 173
f 299 297 24
f 71 263 266
f 263 260 266
f 260 72 266
f 263 70 260
f 205 201 49
f 201 181 49
f 186 205 49
f 181 201 200
f 181 182 49
f 284 77 283
f 586 587 152
f 588 586 151
f 20 267 265
f 266 267 71
f 31 417 631
f 631 417 632
f 31 631 639
f 417 31 419
f 641 631 161
f 417 112 632
f 161 631 632
f 418 417 419
f 417 418 112
f 284 345 77
f 542 550 145
f 542 541 524
f 284 174 12
f 48 174 283
f 373 20 265
f 373 265 374
f 609 608 525
f 608 157 622
f 560 559 313
f 636 637 162
f 541 140 524
f 41 542 524
f 358 357 280
f 70 263 264
f 263 262 264
f 176 177 46
f 174 48 173
f 174 173 172
f 538 551 549
f 538 540 539
f 537 541 539
f 232 221 242
f 17 221 232
f 232 242 62
f 231 232 62
f 203 205 55
f 203 55 202
f 201 205 203
f 202 55 217
f 205 206 55
f 204 203 202
f 73 275 292
f 292 290 73
f 272 290 282
f 290 292 291
f 75 290 291
f 290 75 282
f 70 277 259
f 277 70 281
f 277 281 279
f 260 70 259
f 12 174 172
f 104 396 388
f 367 27 354
f 365 27 367
f 354 27 356
f 365 367 366
f 595 27 365
f 318 299 310
f 155 596 597
f 155 597 598
f 596 594 597
f 595 596 155
f 605 595 155
f 180 47 179
f 180 190 47
f 352 372 11
f 11 372 261
f 312 310 24
f 642 636 162
f 636 297 637
f 367 369 97
f 366 367 97
f 369 367 354
f 369 370 97
f 580 579 464
f 580 152 579
f 579 124 464
f 61 230 409
f 230 410 409
f 230 61 229
f 230 229 228
f 76 285 286
f 353 352 276
f 74 353 276
f 288 76 286
f 288 286 283
f 289 288 287
f 203 54 201
f 287 288 77
f 77 288 283
f 286 48 283
f 531 423 113
f 276 11 259
f 11 261 259
f 277 276 259
f 616 158 615
f 516 616 615
f 138 516 615
f 138 615 612
f 509 533 532
f 503 502 504
f 635 79 294
f 635 294 404
f 635 637 79
f 637 635 638
f 638 635 108
f 635 404 108
f 226 61 405
f 61 226 227
f 405 61 409
f 227 226 207
f 48 178 179
f 48 286 178
f 173 48 179
f 534 143 533
f 534 535 143
f 531 534 533
f 533 143 532
f 137 531 533
f 261 372 371
f 13 180 178
f 285 13 178
f 180 13 166
f 13 168 166
f 346 345 284
f 331 327 46
f 46 327 172
f 172 327 326
f 382 620 101
f 442 121 448
f 443 121 442
f 2 226 404
f 294 2 404
f 404 226 405
f 207 226 2
f 550 551 145
f 552 146 551
f 143 550 532
f 552 550 143
f 330 329 328
f 24 636 629
f 94 352 353
f 352 11 276
f 113 428 534
f 428 535 534
f 509 41 511
f 535 552 143
f 550 552 551
f 550 542 532
f 369 95 368
f 326 327 87
f 87 327 329
f 327 331 329
f 581 326 87
f 293 79 298
f 79 297 298
f 296 298 78
f 79 293 294
f 296 293 298
f 598 490 38
f 358 280 22
f 280 279 278
f 357 358 95
f 74 357 353
f 330 328 25
f 567 23 559
f 590 598 38
f 590 604 598
f 598 604 155
f 604 590 154
f 590 591 154
f 604 154 606
f 297 299 298
f 299 318 78
f 298 299 78
f 355 354 356
f 629 636 642
f 312 24 629
f 629 642 160
f 370 362 97
f 362 363 97
f 363 366 97
f 364 363 362
f 362 370 351
f 96 363 364
f 297 636 24
f 162 637 638
f 637 297 79
f 490 488 38
f 598 597 490
f 441 442 119
f 443 442 441
f 443 441 5
f 442 448 445
f 296 78 295
f 326 12 172
f 575 574 364
f 47 175 176
f 175 177 176
f 47 176 179
