# FEM surface export ¡ª frame 481
# Vertices: 642  Faces: 1280
v -0.51636815 1.00034583 -0.00320000
v 0.51639634 1.00128770 -0.00034807
v -0.56907159 0.23840514 0.03020098
v 0.52840239 0.26462984 0.03264459
v -0.02034880 0.04114546 0.98731965
v 0.00309708 0.73802757 0.86761779
v -0.00401881 0.01064822 -0.96022260
v 0.00063635 0.73210162 -0.86592025
v 0.90442878 0.28109419 -0.56718767
v 0.90998584 0.28034049 0.55584562
v -0.90807629 0.28305152 -0.54816842
v -0.90193957 0.27584648 0.56398082
v -0.82657903 0.70835900 0.31953761
v -0.51832157 0.54557192 0.83848548
v -0.30434626 0.96990091 0.49238738
v 0.30757082 0.96943998 0.49383530
v -0.00045302 1.11322296 -0.00149721
v 0.30581415 0.96974462 -0.49341819
v -0.30658334 0.96840614 -0.49599829
v -0.51600617 0.53700960 -0.83312607
v -0.82470262 0.70575845 -0.31760073
v -1.05548871 0.26156688 0.00251288
v 0.52534270 0.54386795 0.83736295
v 0.82838732 0.71234339 0.31643146
v -0.57368976 0.04159760 0.94518900
v -0.00009570 0.26733774 1.05624092
v -0.91315514 0.02442366 -0.36948183
v -0.93942797 0.00253284 0.32313904
v -0.00047072 0.28817311 -1.07135212
v -0.58443612 0.05385749 -0.94109505
v 0.82584572 0.71191263 -0.31579801
v 0.51603931 0.54676074 -0.83549583
v 0.94791156 0.00543025 0.36173907
v 0.58202559 0.01935104 0.91759866
v 0.32946867 0.12692210 0.50950867
v -0.34628341 0.14953023 0.52039343
v 0.00778901 0.07013244 0.08048999
v -0.31443971 0.04593251 -0.47375193
v 0.33453417 0.08568223 -0.50670421
v 0.57382023 0.03963097 -0.94305426
v 0.94969827 0.02464959 -0.36807650
v 1.06920147 0.27031994 -0.00582089
v -0.69419461 0.88173085 0.15926842
v -0.58750367 0.87180668 0.42486444
v -0.42527950 1.01051700 0.25263372
v -0.72990775 0.40932536 0.72528404
v -0.70752835 0.64522791 0.60352659
v -0.89698297 0.49540901 0.44904524
v -0.15866594 0.87689465 0.70238918
v -0.43161264 0.79022986 0.69656056
v -0.26605681 0.65922982 0.88706803
v -0.15524164 1.07665145 0.25374547
v -0.26363519 1.08603477 -0.00093597
v 0.16128087 0.87469715 0.70203763
v 0.00162746 1.00116384 0.51590765
v 0.26284939 1.08591938 -0.00077893
v 0.15880558 1.07933366 0.25465071
v 0.42668685 1.01051712 0.25453952
v -0.15880571 1.07720053 -0.25821844
v -0.42557451 1.01002431 -0.25736362
v 0.42556614 1.01204264 -0.25496170
v 0.15574805 1.07829702 -0.25787109
v -0.16002408 0.87299424 -0.70287442
v 0.00125623 0.99954647 -0.51880646
v 0.16100895 0.87370306 -0.70243859
v -0.58938646 0.86648649 -0.42700174
v -0.69298798 0.87904060 -0.16324528
v -0.26627377 0.65023500 -0.88330126
v -0.42934901 0.78533369 -0.69690180
v -0.89095581 0.49703714 -0.44318375
v -0.70387286 0.64164966 -0.60494769
v -0.73524290 0.41105950 -0.71828526
v -0.86545807 0.72992253 0.00129971
v -1.02608824 0.28658333 -0.28931755
v -0.98698354 0.50086617 -0.16236320
v -0.98266876 0.49283838 0.17059599
v -1.01921391 0.26322663 0.29368648
v 0.59090012 0.86898267 0.42579275
v 0.69333500 0.88278031 0.16043028
v 0.27116808 0.65405566 0.88763958
v 0.43201140 0.78437769 0.69535440
v 0.90007734 0.50250190 0.45025212
v 0.71122342 0.64703417 0.60207170
v 0.74217004 0.41512322 0.72297984
v -0.27616537 0.41567215 0.99381983
v -0.00041768 0.51316720 1.00093091
v -0.76498812 0.14202198 0.76127970
v -0.55473268 0.27464494 0.89559060
v -0.00215609 0.06729214 1.08757770
v -0.27925134 0.14702627 1.03526270
v -0.32435983 0.00000000 1.02205038
v -1.08336461 0.09328806 0.19269772
v -0.98446125 0.07694153 0.49447498
v -0.99105346 0.09191209 -0.48592728
v -1.08857739 0.10000724 -0.17826752
v -0.77154052 0.07645818 0.12356584
v -0.96365702 0.07659947 -0.03201050
v -0.73290467 0.20532703 -0.19760315
v -0.55902249 0.28677544 -0.90588599
v -0.77836013 0.16793638 -0.76507235
v 0.00029506 0.51480782 -0.99741572
v -0.27506831 0.41606510 -0.99536520
v -0.31109285 0.00000000 -0.99431950
v -0.29325560 0.14907928 -1.04724443
v -0.00731283 0.06780511 -1.09174681
v 0.43104583 0.78865439 -0.69717836
v 0.26734516 0.65195858 -0.88122660
v 0.69392884 0.88214695 -0.16092642
v 0.59013504 0.87106377 -0.42410842
v 0.73398376 0.42387375 -0.72275084
v 0.70711881 0.65009618 -0.60370833
v 0.89787519 0.50515151 -0.44979271
v 0.75397700 0.14441408 0.20156789
v 0.64136505 0.14572342 0.47087473
v 0.41464749 0.23311785 0.28173640
v 0.77749985 0.16009957 0.76986021
v 0.82791203 0.00000000 0.68678051
v 0.97660273 0.10172577 0.47771171
v 0.15765353 0.07578062 0.77316529
v 0.47971305 0.02950013 0.79210162
v 0.30182970 0.00000000 1.02632535
v 0.13986059 0.25086787 0.30599877
v 0.28363308 0.08233041 0.06261607
v -0.19629030 0.09428374 0.75286072
v -0.02814900 0.17244160 0.56304330
v -0.30070928 0.11434028 0.06616985
v -0.18230112 0.11799262 0.30503771
v -0.46692184 0.20342302 0.30479008
v 0.16281015 0.04498381 -0.22332129
v 0.47456130 0.09212193 -0.25295290
v -0.43720558 0.11138836 -0.23224051
v -0.15935972 0.03313426 -0.20817707
v 0.15755597 0.07108926 -0.74515986
v 0.03149198 0.04689061 -0.47724545
v -0.16497819 0.04671315 -0.70371854
v 0.65054500 0.09531008 -0.44677383
v 0.77321452 0.14637405 -0.14371839
v 0.30965379 0.00000000 -1.00552332
v 0.47494197 0.03840683 -0.74975514
v 0.98641288 0.08407725 -0.49697167
v 0.81513220 0.00000000 -0.69209647
v 0.77487957 0.16029918 -0.77708733
v 0.98227096 0.00625679 0.00857216
v 1.02936053 0.28208578 -0.30055940
v 1.08156502 0.09083344 -0.19285290
v 1.07066250 0.07260749 0.17988360
v 1.02809370 0.28891432 0.28324246
v 0.29469493 0.14483598 1.04040003
v 0.55960244 0.27760077 0.90677261
v 0.27407217 0.41464922 0.99687707
v -0.67200536 0.10083216 0.41696244
v -0.50576919 0.07162676 0.75608355
v -0.82112193 0.00000000 0.68597609
v -0.49064291 0.01843728 -0.71281475
v -0.62088114 0.14294063 -0.48224568
v -0.81472778 0.00008844 -0.67305833
v 0.55602211 0.28361130 -0.90220636
v 0.28678474 0.16605376 -1.05515254
v 0.27631602 0.42214084 -0.99371618
v 0.99183351 0.50792778 0.16667806
v 0.98642904 0.50300688 -0.16775917
v 0.86552316 0.73465222 0.00041842
v -0.60904431 0.94917709 0.07865867
v -0.56375337 0.95613337 0.20867760
v -0.47412333 1.01144779 0.12620205
v -0.71552604 0.79930133 0.37615213
v -0.64586675 0.88288438 0.29447770
v -0.76798105 0.80219454 0.24005859
v -0.36757478 0.99640691 0.37509310
v -0.50991237 0.94869834 0.34175250
v -0.44990912 0.92857593 0.46339682
v -0.82193315 0.34235853 0.64736032
v -0.82448936 0.45561293 0.59113407
v -0.90559590 0.38501292 0.50828820
v -0.62138855 0.59911191 0.72942644
v -0.72754496 0.52952617 0.66922909
v -0.62961853 0.47824714 0.78545690
v -0.86995834 0.60505217 0.38857880
v -0.80918628 0.57333022 0.53208226
v -0.77544850 0.68383682 0.46663004
v -0.08005676 0.81251884 0.79119980
v -0.21461575 0.77546573 0.80459076
v -0.13249095 0.70235372 0.88697803
v -0.37028629 0.88736624 0.60043603
v -0.29620317 0.83944404 0.70589381
v -0.23392361 0.92923230 0.60138321
v -0.39598951 0.60813147 0.87136167
v -0.35363466 0.73078060 0.79912364
v -0.48132688 0.67592120 0.77676505
v -0.65554690 0.76825827 0.52079874
v -0.57671124 0.72571468 0.65877855
v -0.51558512 0.83923805 0.56709492
v -0.34829676 1.05673540 0.12634045
v -0.39243689 1.04879868 -0.00172612
v -0.23086533 1.03282595 0.37620494
v -0.29308435 1.05107403 0.25579652
v -0.13309254 1.10931480 -0.00165382
v -0.21094140 1.08801091 0.12794663
v -0.07818301 1.10471809 0.12840649
v 0.08398994 0.81031764 0.78977656
v 0.00153430 0.88359326 0.71002179
v 0.15501979 0.99257857 0.50952715
v 0.08190648 0.94500864 0.61264420
v 0.23744950 0.92697650 0.60167259
v -0.07719421 0.94501811 0.61301458
v -0.15174241 0.99360138 0.50962859
v 0.39338657 1.05093861 -0.00046951
v 0.34844440 1.05779445 0.12843743
v 0.47499621 1.01301861 0.12759174
v 0.07979914 1.10420012 0.12788719
v 0.21330127 1.09023285 0.12926148
v 0.13247518 1.10960448 -0.00139554
v 0.37147152 0.99696392 0.37672880
v 0.29335663 1.05236995 0.25715315
v 0.23450992 1.03286088 0.37670538
v -0.07959532 1.05004895 0.38945645
v 0.08027044 1.04995584 0.38861880
v 0.00030279 1.08715856 0.25677732
v -0.34838131 1.05668652 -0.13040376
v -0.47415221 1.01086831 -0.13066824
v -0.07993031 1.10596979 -0.13063756
v -0.21316537 1.09047568 -0.13035642
v -0.37080342 0.99465007 -0.37956235
v -0.29396051 1.05079269 -0.25936669
v -0.23455799 1.03176200 -0.38002259
v 0.47514594 1.01402819 -0.12856245
v 0.34796143 1.05916476 -0.12953477
v 0.23234876 1.03304553 -0.37887836
v 0.29214013 1.05225790 -0.25859359
v 0.36857966 0.99642295 -0.37751386
v 0.21156351 1.09039414 -0.13031495
v 0.07814933 1.10687804 -0.13072664
v -0.08058544 0.80780983 -0.79077691
v 0.00160597 0.88057357 -0.71186620
v 0.08265551 0.80776662 -0.79127401
v -0.15438651 0.99095625 -0.51263428
v -0.07952347 0.94479138 -0.61668611
v -0.23564056 0.92678076 -0.60401744
v 0.23675977 0.92760861 -0.60297054
v 0.08166656 0.94430333 -0.61605912
v 0.15380557 0.99272484 -0.51210433
v -0.00130189 1.08738339 -0.26039237
v 0.07982052 1.04896700 -0.39062771
v -0.08063819 1.04831135 -0.39250964
v -0.56432629 0.95498335 -0.21379910
v -0.60958445 0.94790757 -0.08281778
v -0.45221546 0.92536485 -0.46782914
v -0.51133627 0.94605476 -0.34563813
v -0.76584709 0.79803735 -0.24218279
v -0.64795572 0.87966973 -0.29779679
v -0.71426803 0.79325593 -0.37783015
v -0.13324934 0.69443011 -0.88271928
v -0.21362245 0.76996499 -0.80303514
v -0.47784328 0.66698319 -0.77588695
v -0.35125178 0.72326869 -0.79807228
v -0.39490011 0.59728563 -0.86738563
v -0.29673636 0.83482909 -0.70791948
v -0.37127683 0.88596982 -0.60303414
v -0.90524089 0.38643280 -0.49615425
v -0.82535899 0.46000192 -0.58652782
v -0.82779062 0.34778816 -0.63751978
v -0.77303970 0.68119258 -0.46682346
v -0.80607897 0.57498968 -0.53049821
v -0.86723197 0.60733926 -0.38622311
v -0.63018322 0.47254843 -0.78252816
v -0.72588700 0.52813369 -0.66811031
v -0.61703706 0.59046918 -0.72516555
v -0.51653600 0.83077860 -0.56864125
v -0.57395470 0.71673024 -0.66157186
v -0.65464610 0.76235062 -0.52297336
v -0.70270807 0.88822901 -0.00172547
v -0.85568023 0.72461385 -0.16006838
v -0.78669626 0.81087345 -0.08395527
v -0.78743136 0.81190223 0.08128975
v -0.85590446 0.72440773 0.16273111
v -0.97207320 0.27865949 -0.42327374
v -0.96616238 0.38714322 -0.36725771
v -1.03096473 0.38058385 -0.08103492
v -1.01103210 0.39183345 -0.22376576
v -1.05538607 0.27237505 -0.14331688
v -0.95048189 0.50527823 -0.30919802
v -0.91695803 0.60842651 -0.24426581
v -0.96579015 0.37954199 0.37651876
v -0.96816331 0.27099973 0.43207020
v -0.91830045 0.60590672 0.24941696
v -0.95025247 0.49405935 0.31329465
v -1.05090964 0.26003602 0.14814697
v -1.00675964 0.37691253 0.23259650
v -1.03319490 0.37993455 0.08753151
v -0.93912619 0.62189949 -0.08221909
v -1.00285816 0.50208384 0.00481975
v -0.93904710 0.61877471 0.08753922
v 0.56445754 0.95675951 0.20992574
v 0.60849142 0.94764870 0.07918471
v 0.45279354 0.92724842 0.46568641
v 0.51314932 0.94713873 0.34222177
v 0.76820612 0.80428368 0.23978350
v 0.64866924 0.88403559 0.29531583
v 0.71756434 0.80045485 0.37622240
v 0.13727061 0.69977975 0.88611436
v 0.21861553 0.77060670 0.80283064
v 0.48434293 0.67208427 0.77687681
v 0.35528824 0.72235703 0.79719365
v 0.40074039 0.60040992 0.87042725
v 0.29704255 0.83334249 0.70519966
v 0.37266389 0.88368911 0.60075653
v 0.90847069 0.38693091 0.50700140
v 0.83020043 0.45734376 0.59211278
v 0.82961625 0.34559831 0.64540273
v 0.77870166 0.68486381 0.46541062
v 0.81199813 0.57619351 0.53153348
v 0.87230223 0.61033124 0.38685894
v 0.64095664 0.48297986 0.78969526
v 0.73469412 0.53253376 0.66949868
v 0.62718588 0.60088778 0.72763741
v 0.51851529 0.83440191 0.56722039
v 0.57729024 0.72271383 0.65725869
v 0.65865415 0.76637155 0.52191651
v -0.13490875 0.58984536 0.95627224
v 0.00112623 0.63038981 0.94251907
v -0.40321854 0.48494357 0.92684114
v -0.27446461 0.54113108 0.95033765
v -0.00161863 0.39186627 1.03844059
v -0.13985154 0.46643639 1.00794649
v -0.14131415 0.34346008 1.03699934
v -0.84411448 0.20221719 0.66688889
v -0.75240415 0.27212337 0.74598205
v -0.56103915 0.14672604 0.92340702
v -0.66254133 0.20348305 0.83592027
v -0.67523789 0.08731252 0.85607773
v -0.64493191 0.33639812 0.81477660
v -0.54012132 0.40580487 0.87165475
v -0.00105405 0.00012128 1.06843460
v -0.15074983 0.00103491 1.08043468
v -0.17223513 0.00761554 0.99669486
v -0.14062378 0.20641519 1.05736160
v -0.14783400 0.09606223 1.07292926
v -0.00240216 0.15974106 1.07764208
v -0.45834929 0.00238241 0.99253714
v -0.29233736 0.03844765 1.05366516
v -0.41677538 0.08145600 1.00230598
v -0.41905972 0.34112647 0.95429838
v -0.43031764 0.20523429 0.98266482
v -0.28316674 0.27808902 1.02229178
v -1.01485324 0.16932043 0.40069017
v -0.94287533 0.16554515 0.53493965
v -1.08040321 0.16939877 0.09228513
v -1.05650401 0.18002217 0.24554524
v -1.00445485 0.00000000 0.42925781
v -1.05125833 0.08289842 0.35057604
v -1.05095363 0.00000000 0.26941824
v -0.95523614 0.18354975 -0.52055562
v -1.01622021 0.18123171 -0.38709119
v -1.04915977 0.00000000 -0.27951691
v -1.03769040 0.07664775 -0.33574206
v -0.98583549 0.00000000 -0.44126832
v -1.06302762 0.18523858 -0.24672939
v -1.08805442 0.17709589 -0.09248454
v -0.67336738 0.16514172 0.09399009
v -0.74792111 0.11606243 -0.04432218
v -0.65128565 0.22959432 -0.08354257
v -0.94641334 0.01526888 0.14651580
v -0.87925160 0.03503593 0.03235200
v -0.85065842 0.09642069 0.23093486
v -0.82835287 0.13213183 -0.28547105
v -0.83639032 0.15159772 -0.10927831
v -0.91978973 0.06307243 -0.18710634
v -1.10568905 0.08444889 0.00431605
v -1.07748938 0.00000000 -0.10162954
v -1.07769442 0.00000000 0.08481999
v -0.75895000 0.28174064 -0.74000466
v -0.85348964 0.22165029 -0.65584576
v -0.54537416 0.41063726 -0.87913769
v -0.65840936 0.34210315 -0.81937176
v -0.68423438 0.09715386 -0.85520709
v -0.67062545 0.21775860 -0.84586143
v -0.56900179 0.16221106 -0.93210781
v 0.00098052 0.62605274 -0.93880785
v -0.13545994 0.58525467 -0.95154238
v -0.13907672 0.35423970 -1.04547048
v -0.13971205 0.46920440 -1.00490439
v -0.00029086 0.40442020 -1.04231095
v -0.27555445 0.53562081 -0.94605440
v -0.40186787 0.48130208 -0.92472214
v -0.15603895 0.00000000 -0.99574912
v -0.16033255 0.00759879 -1.06649792
v -0.00584419 0.00000000 -1.05886698
v -0.43742472 0.08991566 -1.00777245
v -0.30347288 0.04029510 -1.04517663
v -0.46285009 0.00154282 -0.99219072
v -0.00873934 0.17831731 -1.08520627
v -0.15528134 0.10593879 -1.08869338
v -0.14981216 0.21953735 -1.07127869
v -0.42057428 0.34902978 -0.96177131
v -0.28489941 0.28499088 -1.03246188
v -0.42641363 0.21718037 -0.98708326
v 0.21669045 0.77121246 -0.80210918
v 0.13479888 0.69727552 -0.88328439
v 0.37223077 0.88736641 -0.60095644
v 0.29795179 0.83719665 -0.70650268
v 0.39393380 0.60128480 -0.86587167
v 0.35292310 0.72484750 -0.79752088
v 0.47878236 0.67254138 -0.77643514
v 0.60968310 0.94900525 -0.08088963
v 0.56498700 0.95766914 -0.21012174
v 0.71524423 0.79852337 -0.37442315
v 0.64788008 0.88340259 -0.29453841
v 0.76652116 0.80184460 -0.23951584
v 0.51249707 0.94991887 -0.34252179
v 0.45261258 0.92830336 -0.46585372
v 0.82153541 0.35075501 -0.64809597
v 0.82720995 0.46737206 -0.59377569
v 0.90815437 0.39440355 -0.51246661
v 0.62014979 0.60435289 -0.72969180
v 0.72805703 0.54058224 -0.66931558
v 0.63160646 0.48612115 -0.78737855
v 0.86960644 0.61200452 -0.38606519
v 0.81102771 0.58289862 -0.53411716
v 0.77512932 0.68711114 -0.46457928
v 0.51861036 0.83802760 -0.56773615
v 0.65642780 0.76631945 -0.51945335
v 0.57455951 0.72486651 -0.65891755
v 0.64907968 0.20427258 0.11693662
v 0.59381145 0.21536846 0.24715595
v 0.45238721 0.26829898 0.16345021
v 0.79139149 0.05614026 0.41258672
v 0.71684492 0.12181373 0.33381647
v 0.85396308 0.04902045 0.27214655
v 0.37179714 0.11955646 0.39826742
v 0.53463292 0.18257134 0.36689276
v 0.47385517 0.13810071 0.49185294
v 0.85006052 0.21471873 0.66691154
v 0.89259499 0.12275579 0.63921797
v 0.94827712 0.18044326 0.52610129
v 0.72186285 0.00000000 0.82427073
v 0.80837977 0.07074317 0.74236667
v 0.68767279 0.09405729 0.85230780
v 0.98709625 0.00000000 0.44049484
v 0.91165668 0.05726320 0.58768696
v 0.90730453 0.00009245 0.54563552
v 0.05885133 0.04552392 0.87662971
v 0.22245400 0.05798023 0.89404005
v 0.14051266 0.00088117 1.00512087
v 0.39446530 0.10867760 0.65600854
v 0.32353887 0.04508143 0.77945352
v 0.25554425 0.06961752 0.64145571
v 0.44875294 0.00000000 0.98313230
v 0.39296374 0.00223936 0.91602683
v 0.54934955 0.00000000 0.88716000
v 0.73097444 0.09183194 0.56983072
v 0.67262477 0.00252558 0.75060099
v 0.56149691 0.06077579 0.62580180
v 0.39428812 0.09981066 0.20760688
v 0.41589016 0.14636216 0.04342822
v 0.20390181 0.11638283 0.40508988
v 0.28398183 0.13221100 0.32405791
v 0.16108407 0.07622070 0.06170545
v 0.22172204 0.11526944 0.21842755
v 0.09884415 0.13301067 0.19347817
v -0.12467264 0.08941259 0.85451186
v -0.00730115 0.11195128 0.75648963
v -0.18335386 0.19220497 0.56054550
v -0.10488208 0.14631374 0.67610151
v -0.28419462 0.13275637 0.65209556
v 0.08607876 0.12347387 0.65403116
v 0.13894273 0.06047403 0.52898669
v -0.45045659 0.15039639 0.03715494
v -0.38359725 0.24488699 0.16047658
v -0.53094363 0.23999229 0.16971724
v -0.07717383 0.13377069 0.18912633
v -0.22292456 0.23622134 0.17634284
v -0.15420231 0.11737638 0.08407333
v -0.42234594 0.20212421 0.39459473
v -0.30490276 0.16305768 0.27393222
v -0.27712268 0.23155433 0.44042829
v 0.07653322 0.22878365 0.46211177
v -0.10174847 0.23855969 0.43617922
v 0.00753061 0.10658738 0.34175485
v 0.39767873 0.08876051 -0.08620260
v 0.50957632 0.20486936 -0.12283535
v 0.09647321 0.04993661 -0.07519692
v 0.23494527 0.04425552 -0.07877491
v 0.39938772 0.18209261 -0.37989059
v 0.32552096 0.05346797 -0.23838167
v 0.24450932 0.08844417 -0.35617012
v -0.54227269 0.13917163 -0.09343775
v -0.39917323 0.09595644 -0.10699156
v -0.23275669 0.05646859 -0.35052007
v -0.30919605 0.06354926 -0.22610103
v -0.38560942 0.09362016 -0.36807108
v -0.24383564 0.03346642 -0.06266186
v -0.10221530 0.06287685 -0.05498673
v 0.07307773 0.05832846 -0.86860991
v -0.02859339 0.04932050 -0.74447018
v -0.10110831 0.06815060 -0.86337399
v 0.17647883 0.08967946 -0.50710499
v 0.05045771 0.09981062 -0.62267232
v 0.23786998 0.13368204 -0.64838207
v -0.22586979 0.01631459 -0.59603125
v -0.09333939 0.03097017 -0.57019901
v -0.14716452 0.03359533 -0.46734679
v 0.01416846 0.04122284 -0.21401894
v -0.05891290 0.06284139 -0.36550301
v 0.10579654 0.08448514 -0.36139446
v 0.63578814 0.19051920 -0.19664364
v 0.64225054 0.19561441 -0.04687593
v 0.49390417 0.16626863 -0.47794077
v 0.55562484 0.17794043 -0.33993331
v 0.86763102 0.08551627 -0.25842130
v 0.71069032 0.12050296 -0.31063741
v 0.80442566 0.06611680 -0.40550545
v 0.15307128 0.00000000 -1.00489712
v 0.22682053 0.02386380 -0.88871431
v 0.55099738 0.00147530 -0.87602639
v 0.39869577 0.00179642 -0.87877131
v 0.45757043 0.00065857 -0.98944288
v 0.31947166 0.06387676 -0.76692384
v 0.39836758 0.11514497 -0.64903247
v 0.95064777 0.18073905 -0.53799695
v 0.89583606 0.12252846 -0.64602536
v 0.84635186 0.21629323 -0.67140919
v 0.86354274 0.00000000 -0.53406405
v 0.92791110 0.03501702 -0.60576940
v 0.98813075 0.00000000 -0.45341393
v 0.68648672 0.09478804 -0.86680454
v 0.81997532 0.06957318 -0.75268382
v 0.71278661 0.00320093 -0.83270782
v 0.55391949 0.08825012 -0.59012586
v 0.64773709 0.01991095 -0.72272563
v 0.73231238 0.07956795 -0.56563169
v 0.77009457 0.14438827 0.04460247
v 0.97305918 0.04101294 -0.16888624
v 0.87283033 0.08981077 -0.06657961
v 0.88673949 0.07417694 0.12243314
v 0.96659923 0.01162379 0.17879362
v 0.97770786 0.28820720 -0.44068858
v 1.01528490 0.18382013 -0.40450203
v 1.08800519 0.16133536 -0.09670388
v 1.06286108 0.17872107 -0.25043452
v 1.06115460 0.27437934 -0.15035453
v 1.05295157 0.08771064 -0.36067009
v 1.03882051 0.04429096 -0.28686374
v 1.01093519 0.18444510 0.37855822
v 0.97877419 0.27984279 0.42115071
v 1.03895307 0.00000000 0.27535537
v 1.02943611 0.07186248 0.33318445
v 1.05429995 0.27739719 0.13996968
v 1.05806220 0.17871808 0.23244937
v 1.07678401 0.16996428 0.08058722
v 1.08214509 0.00000000 -0.10535681
v 1.10600209 0.06564938 -0.00100431
v 1.07735574 0.00000000 0.09212191
v 0.15459707 0.00081386 1.07106757
v 0.44163659 0.07016417 0.99571967
v 0.31392875 0.05893147 1.05408299
v 0.15246719 0.10506701 1.07779980
v 0.14403050 0.20004991 1.05682492
v 0.76027948 0.28586900 0.74933141
v 0.54939789 0.41065234 0.88461876
v 0.65794849 0.34808898 0.82536465
v 0.67305768 0.21759380 0.84940350
v 0.57076389 0.14758411 0.92508197
v 0.13819674 0.58842373 0.95673722
v 0.13660936 0.34141290 1.03672338
v 0.13785939 0.46564516 1.00691473
v 0.27753001 0.53807765 0.95155519
v 0.40558773 0.48236963 0.92919832
v 0.43249100 0.19906253 0.98604888
v 0.42156163 0.34180585 0.96445072
v 0.28244129 0.27075779 1.02316391
v -0.63133907 0.15019524 0.23248187
v -0.51394838 0.12845507 0.47506526
v -0.59710437 0.16835342 0.35885149
v -0.72897017 0.09151538 0.26642281
v -0.81915075 0.08648890 0.38240200
v -0.26365858 0.03170876 0.88021791
v -0.57235223 0.00000000 0.88381344
v -0.42774343 0.01385167 0.89110965
v -0.35509387 0.10375926 0.74652469
v -0.44157261 0.11700053 0.61543822
v -0.88434798 0.09739177 0.63956034
v -0.89482230 0.00865761 0.51329881
v -0.91491479 0.02367035 0.59737927
v -0.80606240 0.05236314 0.74647015
v -0.71299499 0.00000000 0.83661991
v -0.59460658 0.04783429 0.59402180
v -0.68223411 0.00803122 0.72784197
v -0.76541716 0.01450261 0.54776090
v -0.22930776 0.01628820 -0.84575778
v -0.36313310 0.13116388 -0.61971527
v -0.32549870 0.00519112 -0.69764405
v -0.40142453 0.00068672 -0.84566474
v -0.56255776 0.00000000 -0.88049483
v -0.61363238 0.12285140 -0.21546417
v -0.77375638 0.10448515 -0.42371827
v -0.68979961 0.18560439 -0.35091153
v -0.54202396 0.06466083 -0.35602844
v -0.47462791 0.01929920 -0.47750497
v -0.89488012 0.13294701 -0.64219648
v -0.71568376 0.00009237 -0.82482976
v -0.81145924 0.06902869 -0.75083697
v -0.91260904 0.02482546 -0.59346056
v -0.86421102 0.00000000 -0.54102242
v -0.53177685 0.12768900 -0.62019831
v -0.71272415 0.05989952 -0.59648788
v -0.65151137 0.00018188 -0.73921067
v 0.75613540 0.28890786 -0.74745053
v 0.57322836 0.16432436 -0.93064559
v 0.66984570 0.22001942 -0.84632343
v 0.65484428 0.35557160 -0.82079691
v 0.54396015 0.41600549 -0.87483126
v 0.14719240 0.01141957 -1.06332743
v 0.14354536 0.22439790 -1.07542849
v 0.14022326 0.11522563 -1.07454777
v 0.30315617 0.05478203 -1.05702507
v 0.43725014 0.11625313 -1.01540136
v 0.13818464 0.58866954 -0.95069981
v 0.40259349 0.48610872 -0.92340922
v 0.27547854 0.53779233 -0.94402617
v 0.13918577 0.47216648 -1.00495219
v 0.13988209 0.35650003 -1.04092336
v 0.42962393 0.22553310 -0.98962522
v 0.28268734 0.29296473 -1.03295755
v 0.42112610 0.35472211 -0.96089298
v 0.97427744 0.39248639 0.37700197
v 1.04174614 0.38793617 0.08744592
v 1.02531159 0.39799371 0.23349255
v 0.95465422 0.50928158 0.31262183
v 0.91924238 0.61346096 0.24571456
v 0.97127748 0.39151117 -0.37717983
v 0.91660172 0.61440367 -0.24688596
v 0.95362180 0.50579482 -0.31154865
v 1.01376402 0.38806462 -0.23249617
v 1.04002023 0.38861445 -0.08707330
v 0.70128810 0.88926941 -0.00020102
v 0.85676521 0.72868752 0.15973832
v 0.78679430 0.81559747 0.08284202
v 0.78700984 0.81390196 -0.08164261
v 0.85621083 0.72772866 -0.15831493
v 1.00337660 0.50459933 -0.00050423
v 0.94220322 0.62556547 -0.08448142
v 0.94119996 0.62542367 0.08391501
f 330 87 329
f 336 325 26
f 207 208 56
f 464 36 580
f 502 129 504
f 157 624 622
f 308 311 82
f 247 223 248
f 507 483 508
f 331 88 329
f 494 500 497
f 156 601 602
f 591 589 592
f 365 98 596
f 75 281 282
f 152 587 577
f 149 559 560
f 555 121 553
f 530 141 529
f 515 517 139
f 361 594 98
f 250 67 249
f 157 608 609
f 294 293 209
f 317 81 316
f 557 338 26
f 303 305 81
f 530 529 528
f 101 381 382
f 415 418 111
f 192 184 50
f 412 110 411
f 20 384 256
f 131 594 486
f 281 264 282
f 347 287 348
f 28 349 582
f 165 163 1
f 248 250 66
f 617 107 398
f 273 271 274
f 456 115 453
f 558 561 560
f 335 576 91
f 331 177 332
f 116 433 436
f 351 370 92
f 136 511 530
f 239 240 65
f 247 258 19
f 304 23 567
f 148 557 570
f 214 208 58
f 440 426 450
f 268 270 269
f 258 247 268
f 204 202 16
f 466 125 465
f 517 513 133
f 168 275 274
f 275 73 274
f 198 193 53
f 309 308 307
f 510 511 136
f 415 416 110
f 131 490 597
f 473 475 474
f 414 415 111
f 493 495 494
f 496 504 485
f 433 116 432
f 600 375 601
f 240 234 65
f 418 415 412
f 486 361 3
f 567 566 304
f 380 393 29
f 17 199 197
f 491 492 132
f 451 449 435
f 218 217 216
f 623 621 613
f 396 104 395
f 433 439 436
f 628 160 627
f 215 202 217
f 209 207 2
f 427 113 424
f 434 10 544
f 434 433 432
f 199 17 210
f 150 564 565
f 489 491 132
f 275 13 285
f 497 500 134
f 125 466 476
f 578 152 577
f 208 214 211
f 328 88 343
f 356 27 603
f 150 566 567
f 372 100 371
f 190 191 47
f 235 8 398
f 260 261 72
f 422 403 414
f 422 414 111
f 453 454 123
f 349 583 582
f 521 520 519
f 425 453 115
f 616 622 158
f 483 130 508
f 151 586 572
f 212 17 232
f 400 397 402
f 377 396 99
f 41 522 511
f 510 508 505
f 549 547 42
f 475 473 36
f 510 137 509
f 222 221 197
f 430 115 429
f 220 194 1
f 305 54 204
f 621 29 613
f 192 171 184
f 460 335 5
f 88 331 332
f 74 277 279
f 300 301 80
f 390 389 388
f 165 45 164
f 146 549 551
f 291 278 75
f 448 120 445
f 147 543 544
f 607 610 609
f 603 602 356
f 139 529 514
f 333 553 443
f 92 368 347
f 261 260 259
f 300 6 200
f 46 177 331
f 284 283 174
f 301 300 200
f 471 468 474
f 54 305 301
f 302 304 303
f 569 150 567
f 150 569 570
f 294 209 2
f 628 629 160
f 548 543 147
f 147 625 627
f 63 233 234
f 426 427 114
f 41 509 532
f 198 52 196
f 614 105 612
f 147 627 547
f 81 305 306
f 549 548 547
f 54 301 200
f 342 88 332
f 264 281 70
f 193 194 53
f 455 429 456
f 187 321 14
f 479 130 484
f 147 544 625
f 458 456 453
f 304 80 303
f 314 84 313
f 488 503 501
f 321 332 14
f 423 425 424
f 305 204 306
f 341 339 25
f 514 40 516
f 625 628 627
f 340 339 341
f 105 614 391
f 243 228 62
f 318 316 78
f 75 278 279
f 357 355 353
f 238 257 63
f 466 455 476
f 425 423 4
f 448 449 120
f 408 638 108
f 292 275 285
f 22 278 289
f 515 513 517
f 501 503 134
f 622 623 158
f 134 503 504
f 195 216 206
f 163 271 246
f 619 617 620
f 62 228 229
f 163 165 164
f 453 425 454
f 489 132 488
f 82 628 625
f 58 208 209
f 525 608 40
f 626 547 627
f 518 517 498
f 489 487 491
f 557 26 564
f 325 336 344
f 541 145 539
f 40 616 516
f 338 556 89
f 250 248 245
f 139 514 515
f 98 594 596
f 246 220 1
f 112 413 630
f 9 536 413
f 156 600 601
f 332 177 14
f 321 342 332
f 156 606 600
f 584 330 585
f 302 303 81
f 584 87 330
f 330 25 585
f 400 239 65
f 439 440 117
f 95 358 368
f 597 594 131
f 594 361 486
f 246 67 245
f 561 562 149
f 28 364 362
f 55 216 217
f 427 430 114
f 267 20 254
f 556 555 553
f 84 309 558
f 311 310 312
f 609 525 142
f 256 68 255
f 124 460 461
f 82 311 312
f 307 308 82
f 589 135 495
f 527 40 514
f 112 418 412
f 20 256 254
f 258 238 19
f 267 254 269
f 273 272 249
f 392 391 393
f 137 533 509
f 122 455 456
f 9 413 411
f 130 480 505
f 333 443 5
f 527 525 40
f 589 495 385
f 39 496 485
f 223 225 224
f 414 416 415
f 219 222 53
f 145 538 539
f 413 412 411
f 469 468 467
f 183 181 6
f 191 192 50
f 429 35 431
f 292 285 76
f 413 112 412
f 415 110 412
f 43 164 167
f 467 468 126
f 617 101 620
f 450 451 117
f 438 546 545
f 619 620 159
f 17 212 210
f 124 579 576
f 584 153 583
f 460 124 576
f 3 469 467
f 311 308 314
f 6 320 183
f 389 104 388
f 251 250 249
f 194 165 1
f 291 289 278
f 287 77 348
f 238 258 257
f 139 517 518
f 238 236 19
f 223 247 19
f 382 380 29
f 39 518 498
f 361 359 3
f 69 255 257
f 139 518 528
f 33 545 535
f 387 385 7
f 69 268 269
f 477 462 125
f 454 479 123
f 121 555 447
f 451 435 117
f 454 425 4
f 233 252 8
f 124 463 464
f 69 258 268
f 168 167 166
f 583 153 582
f 384 394 102
f 138 512 513
f 57 210 211
f 254 256 255
f 607 609 142
f 324 319 86
f 289 291 76
f 291 292 76
f 384 102 383
f 422 421 420
f 221 17 197
f 383 102 381
f 376 377 99
f 99 373 374
f 386 105 392
f 438 33 440
f 90 341 343
f 281 75 279
f 574 571 96
f 628 82 312
f 221 222 59
f 127 471 474
f 595 605 603
f 551 538 145
f 334 91 340
f 322 324 85
f 305 303 301
f 18 239 399
f 306 204 16
f 199 198 197
f 166 190 180
f 303 80 301
f 267 266 265
f 626 42 547
f 16 215 213
f 349 351 350
f 295 16 213
f 68 379 252
f 250 251 66
f 627 160 626
f 383 68 256
f 343 88 342
f 507 508 136
f 202 215 16
f 197 198 53
f 254 69 269
f 603 605 156
f 418 419 111
f 384 383 256
f 455 122 476
f 203 204 54
f 556 557 148
f 255 68 253
f 313 84 560
f 25 328 341
f 254 255 69
f 603 156 602
f 581 584 583
f 630 632 112
f 163 246 1
f 246 245 220
f 432 116 558
f 499 591 590
f 320 563 86
f 345 93 350
f 306 16 295
f 346 93 345
f 562 568 149
f 604 605 155
f 154 592 593
f 545 552 535
f 511 522 530
f 574 573 571
f 566 150 565
f 361 98 360
f 67 271 273
f 234 235 65
f 208 211 56
f 574 151 573
f 251 270 66
f 398 8 378
f 213 215 214
f 438 440 439
f 315 314 313
f 263 71 262
f 20 373 384
f 496 134 504
f 329 88 328
f 81 306 316
f 555 556 148
f 592 589 103
f 617 619 107
f 227 207 56
f 571 359 96
f 446 466 465
f 206 216 55
f 359 571 469
f 568 148 570
f 34 437 435
f 28 351 349
f 21 272 282
f 113 423 424
f 490 489 488
f 379 68 383
f 210 212 211
f 80 563 300
f 351 92 350
f 326 346 12
f 83 317 318
f 555 148 554
f 212 231 56
f 218 57 217
f 271 67 246
f 195 196 52
f 270 268 66
f 390 592 103
f 148 568 554
f 495 493 7
f 592 390 593
f 357 95 355
f 574 575 151
f 452 120 451
f 154 591 592
f 587 585 577
f 395 394 396
f 93 349 350
f 610 416 611
f 166 44 190
f 315 23 302
f 315 302 317
f 268 247 66
f 606 154 593
f 396 394 99
f 211 212 56
f 370 369 368
f 235 397 65
f 280 278 22
f 83 315 317
f 575 588 151
f 74 279 280
f 385 495 7
f 63 257 253
f 397 235 398
f 214 58 213
f 220 219 194
f 546 146 545
f 236 225 19
f 599 94 602
f 235 233 8
f 102 394 395
f 611 416 32
f 225 223 19
f 139 528 529
f 231 62 229
f 419 406 421
f 451 450 452
f 49 182 185
f 402 397 107
f 52 199 218
f 416 610 110
f 225 236 244
f 107 397 398
f 68 252 253
f 322 85 321
f 182 181 183
f 118 438 439
f 546 438 118
f 348 77 345
f 543 546 118
f 231 212 232
f 610 611 157
f 33 438 545
f 385 386 103
f 479 480 130
f 169 195 15
f 93 583 349
f 15 195 206
f 190 44 192
f 247 248 66
f 146 552 545
f 248 60 245
f 570 557 564
f 274 271 43
f 63 253 233
f 272 21 249
f 507 528 518
f 67 273 249
f 487 467 126
f 196 195 169
f 624 159 623
f 134 496 497
f 132 503 488
f 104 393 395
f 556 553 89
f 355 356 94
f 258 69 257
f 229 61 227
f 56 231 227
f 460 576 335
f 463 124 461
f 394 373 99
f 29 393 391
f 67 250 245
f 193 198 196
f 462 36 464
f 144 633 630
f 141 526 527
f 517 133 498
f 536 144 630
f 100 372 599
f 144 536 537
f 22 289 287
f 578 579 152
f 579 578 576
f 189 188 187
f 60 223 224
f 92 348 350
f 555 554 447
f 396 377 388
f 194 193 165
f 413 536 630
f 372 352 599
f 377 376 375
f 348 345 350
f 105 386 387
f 240 237 234
f 463 462 464
f 135 500 494
f 45 196 169
f 512 612 387
f 245 60 220
f 429 115 456
f 223 60 248
f 288 289 76
f 525 526 142
f 100 599 601
f 613 29 391
f 526 523 520
f 341 328 343
f 631 641 639
f 264 21 282
f 266 72 265
f 106 402 403
f 73 273 274
f 186 206 205
f 381 379 383
f 52 216 195
f 410 18 399
f 290 272 73
f 72 371 374
f 526 525 527
f 115 430 424
f 498 497 496
f 621 382 29
f 543 118 434
f 214 215 57
f 522 141 530
f 511 510 509
f 352 94 599
f 493 512 7
f 90 340 341
f 169 171 170
f 605 604 606
f 219 60 224
f 104 389 392
f 359 469 3
f 186 49 185
f 222 219 224
f 166 167 44
f 428 427 426
f 523 522 524
f 129 502 481
f 50 185 188
f 164 45 170
f 425 115 424
f 33 428 426
f 427 428 113
f 94 356 602
f 515 138 513
f 114 431 452
f 237 236 238
f 215 217 57
f 95 354 355
f 220 60 219
f 515 514 516
f 183 320 319
f 222 197 53
f 559 569 567
f 300 320 6
f 435 436 117
f 96 360 363
f 640 642 641
f 242 243 62
f 140 537 519
f 508 130 505
f 420 410 399
f 537 539 144
f 317 316 318
f 426 114 450
f 186 15 206
f 311 83 310
f 625 544 307
f 544 10 307
f 168 43 167
f 185 182 188
f 369 354 95
f 44 171 192
f 605 606 156
f 548 549 146
f 100 601 375
f 149 568 569
f 381 380 382
f 455 466 35
f 480 479 454
f 543 548 546
f 493 133 513
f 492 472 37
f 477 125 476
f 491 487 126
f 337 336 338
f 588 153 587
f 576 578 91
f 633 161 632
f 96 359 360
f 39 485 483
f 101 617 378
f 193 45 165
f 163 164 43
f 618 624 611
f 507 136 528
f 561 149 560
f 641 162 639
f 116 561 558
f 494 133 493
f 253 252 233
f 63 237 238
f 392 393 104
f 440 450 117
f 93 581 583
f 386 385 387
f 120 449 451
f 421 422 111
f 486 3 467
f 302 81 317
f 633 632 630
f 462 475 36
f 376 99 374
f 489 490 131
f 447 449 448
f 387 612 105
f 106 420 399
f 173 46 172
f 492 491 472
f 316 306 295
f 22 287 347
f 109 410 420
f 507 39 483
f 559 23 313
f 214 57 211
f 196 45 193
f 10 434 432
f 422 106 403
f 626 160 640
f 487 486 467
f 542 41 532
f 400 106 399
f 444 120 452
f 198 199 52
f 475 127 474
f 621 620 382
f 621 623 159
f 450 114 452
f 92 347 348
f 376 100 375
f 434 118 433
f 503 132 502
f 337 90 336
f 537 536 519
f 395 393 380
f 201 54 200
f 171 44 170
f 355 94 353
f 58 296 213
f 422 420 106
f 595 365 596
f 569 568 570
f 523 140 520
f 114 430 431
f 218 210 57
f 304 566 80
f 639 162 638
f 261 371 72
f 548 147 547
f 498 133 497
f 150 570 564
f 222 224 59
f 142 526 520
f 437 436 435
f 141 522 523
f 137 510 505
f 173 179 176
f 559 149 569
f 121 447 448
f 563 320 300
f 102 395 380
f 257 255 253
f 642 162 641
f 83 311 314
f 216 52 218
f 512 493 513
f 23 304 302
f 91 339 340
f 512 138 612
f 159 620 621
f 218 199 210
f 364 28 575
f 83 318 310
f 168 274 43
f 136 530 528
f 140 523 524
f 495 135 494
f 233 235 234
f 566 563 80
f 25 339 577
f 277 74 276
f 475 462 477
f 133 494 497
f 436 437 116
f 389 386 392
f 548 146 546
f 441 460 5
f 10 309 307
f 65 397 400
f 543 434 544
f 640 641 161
f 272 273 73
f 581 93 346
f 419 421 111
f 319 320 86
f 180 179 178
f 127 475 477
f 231 229 227
f 337 334 340
f 136 508 510
f 308 309 84
f 237 63 234
f 447 554 34
f 252 379 378
f 315 83 314
f 608 622 616
f 338 336 26
f 337 338 89
f 13 275 168
f 209 208 207
f 436 439 117
f 628 312 629
f 360 366 363
f 364 574 96
f 359 361 360
f 466 446 35
f 500 501 134
f 406 109 421
f 135 589 591
f 601 599 602
f 340 90 337
f 481 492 37
f 522 41 524
f 78 316 295
f 131 486 487
f 403 32 414
f 634 626 640
f 151 572 573
f 515 516 138
f 8 252 378
f 265 72 374
f 9 521 519
f 538 549 42
f 368 358 347
f 588 587 586
f 458 453 123
f 589 385 103
f 502 492 481
f 32 416 414
f 430 427 424
f 153 585 587
f 540 144 539
f 370 368 92
f 209 293 58
f 428 33 535
f 326 581 346
f 625 307 82
f 575 28 582
f 6 181 200
f 421 109 420
f 553 121 443
f 160 642 640
f 153 584 585
f 309 432 558
f 334 337 89
f 23 315 313
f 271 163 43
f 296 295 213
f 39 498 496
f 118 439 433
f 531 113 534
f 293 296 58
f 28 362 351
f 489 131 487
f 431 444 452
f 84 558 560
f 98 366 360
f 45 169 170
f 379 101 378
f 462 463 125
f 308 84 314
f 10 432 309
f 299 24 310
f 132 492 502
f 512 387 7
f 639 638 408
f 565 323 86
f 59 244 242
f 106 400 402
f 440 33 426
f 566 565 563
f 617 398 378
f 224 225 59
f 410 109 409
f 239 400 399
f 194 219 53
f 358 22 347
f 610 157 609
f 27 595 603
f 479 484 482
f 142 520 521
f 585 25 577
f 339 578 577
f 408 407 406
f 407 109 406
f 31 408 406
f 407 408 108
f 31 639 408
f 419 31 406
f 608 616 40
f 430 429 431
f 455 35 429
f 35 444 431
f 188 51 187
f 188 182 51
f 51 322 187
f 322 51 319
f 51 182 183
f 319 51 183
f 187 322 321
f 322 319 324
f 381 101 379
f 405 407 108
f 404 405 108
f 286 285 178
f 407 405 409
f 109 407 409
f 191 175 47
f 167 164 170
f 50 184 185
f 44 167 170
f 64 244 236
f 243 244 64
f 50 188 189
f 541 542 145
f 442 445 119
f 339 91 578
f 445 446 119
f 624 623 622
f 611 624 157
f 523 526 141
f 141 527 529
f 527 514 529
f 445 120 444
f 446 445 444
f 35 446 444
f 613 614 158
f 158 614 615
f 623 613 158
f 614 613 391
f 614 612 615
f 371 376 374
f 100 376 371
f 479 482 123
f 373 394 384
f 540 42 634
f 633 540 634
f 538 42 540
f 633 634 161
f 161 634 640
f 42 626 634
f 540 633 144
f 557 556 338
f 553 333 89
f 262 21 264
f 251 21 262
f 5 335 333
f 270 251 262
f 21 251 249
f 600 593 30
f 606 593 600
f 600 30 375
f 593 390 30
f 30 377 375
f 390 388 30
f 30 388 377
f 228 243 241
f 470 478 459
f 470 127 478
f 127 477 478
f 184 186 185
f 478 477 476
f 122 478 476
f 357 74 280
f 518 39 507
f 344 342 85
f 325 344 85
f 342 344 343
f 85 342 321
f 344 90 343
f 90 344 336
f 482 129 481
f 482 481 457
f 482 457 123
f 481 37 457
f 449 447 34
f 435 449 34
f 470 472 471
f 472 470 37
f 470 471 127
f 472 126 471
f 126 468 471
f 470 459 37
f 491 126 472
f 504 129 485
f 221 59 242
f 125 463 465
f 437 34 562
f 561 437 562
f 554 568 562
f 34 554 562
f 437 561 116
f 390 103 389
f 103 386 389
f 392 105 391
f 572 586 580
f 572 580 36
f 586 152 580
f 473 572 36
f 244 243 242
f 225 244 59
f 64 240 241
f 240 239 241
f 237 240 64
f 243 64 241
f 236 237 64
f 411 607 521
f 9 411 521
f 110 607 411
f 607 142 521
f 610 607 110
f 171 15 184
f 171 169 15
f 15 186 184
f 87 584 581
f 153 588 582
f 588 575 582
f 381 102 380
f 573 572 473
f 468 469 128
f 474 468 128
f 469 571 128
f 571 573 128
f 573 473 128
f 473 474 128
f 564 323 565
f 26 323 564
f 323 324 86
f 325 323 26
f 325 324 323
f 563 565 86
f 324 325 85
f 410 230 18
f 230 228 18
f 18 228 241
f 18 241 239
f 401 619 618
f 401 402 107
f 403 402 401
f 619 159 618
f 401 618 32
f 619 401 107
f 403 401 32
f 618 611 32
f 159 624 618
f 478 122 459
f 122 458 459
f 37 459 457
f 459 458 457
f 122 456 458
f 457 458 123
f 191 190 192
f 485 129 484
f 129 482 484
f 483 485 484
f 130 483 484
f 189 187 14
f 191 50 189
f 191 189 175
f 189 14 175
f 14 177 175
f 499 501 500
f 501 499 38
f 38 499 590
f 135 499 500
f 488 501 38
f 499 135 591
f 480 454 4
f 284 12 346
f 4 423 506
f 480 4 506
f 423 531 506
f 480 506 505
f 531 137 506
f 506 137 505
f 365 366 98
f 71 270 262
f 270 71 269
f 71 267 269
f 335 334 333
f 333 334 89
f 334 335 91
f 536 9 519
f 465 463 461
f 537 140 541
f 520 140 519
f 119 446 465
f 465 461 119
f 461 441 119
f 460 441 461
f 176 46 173
f 299 297 24
f 71 263 266
f 263 260 266
f 260 72 266
f 263 70 260
f 205 201 49
f 201 181 49
f 186 205 49
f 181 201 200
f 181 182 49
f 284 77 283
f 586 587 152
f 588 586 151
f 20 267 265
f 266 267 71
f 31 417 631
f 631 417 632
f 31 631 639
f 417 31 419
f 641 631 161
f 417 112 632
f 161 631 632
f 418 417 419
f 417 418 112
f 284 345 77
f 542 550 145
f 542 541 524
f 284 174 12
f 48 174 283
f 373 20 265
f 373 265 374
f 609 608 525
f 608 157 622
f 560 559 313
f 636 637 162
f 541 140 524
f 41 542 524
f 358 357 280
f 70 263 264
f 263 262 264
f 176 177 46
f 174 48 173
f 174 173 172
f 538 551 549
f 538 540 539
f 537 541 539
f 232 221 242
f 17 221 232
f 232 242 62
f 231 232 62
f 203 205 55
f 203 55 202
f 201 205 203
f 202 55 217
f 205 206 55
f 204 203 202
f 73 275 292
f 292 290 73
f 272 290 282
f 290 292 291
f 75 290 291
f 290 75 282
f 70 277 259
f 277 70 281
f 277 281 279
f 260 70 259
f 12 174 172
f 104 396 388
f 367 27 354
f 365 27 367
f 354 27 356
f 365 367 366
f 595 27 365
f 318 299 310
f 155 596 597
f 155 597 598
f 596 594 597
f 595 596 155
f 605 595 155
f 180 47 179
f 180 190 47
f 352 372 11
f 11 372 261
f 312 310 24
f 642 636 162
f 636 297 637
f 367 369 97
f 366 367 97
f 369 367 354
f 369 370 97
f 580 579 464
f 580 152 579
f 579 124 464
f 61 230 409
f 230 410 409
f 230 61 229
f 230 229 228
f 76 285 286
f 353 352 276
f 74 353 276
f 288 76 286
f 288 286 283
f 289 288 287
f 203 54 201
f 287 288 77
f 77 288 283
f 286 48 283
f 531 423 113
f 276 11 259
f 11 261 259
f 277 276 259
f 616 158 615
f 516 616 615
f 138 516 615
f 138 615 612
f 509 533 532
f 503 502 504
f 635 79 294
f 635 294 404
f 635 637 79
f 637 635 638
f 638 635 108
f 635 404 108
f 226 61 405
f 61 226 227
f 405 61 409
f 227 226 207
f 48 178 179
f 48 286 178
f 173 48 179
f 534 143 533
f 534 535 143
f 531 534 533
f 533 143 532
f 137 531 533
f 261 372 371
f 13 180 178
f 285 13 178
f 180 13 166
f 13 168 166
f 346 345 284
f 331 327 46
f 46 327 172
f 172 327 326
f 382 620 101
f 442 121 448
f 443 121 442
f 2 226 404
f 294 2 404
f 404 226 405
f 207 226 2
f 550 551 145
f 552 146 551
f 143 550 532
f 552 550 143
f 330 329 328
f 24 636 629
f 94 352 353
f 352 11 276
f 113 428 534
f 428 535 534
f 509 41 511
f 535 552 143
f 550 552 551
f 550 542 532
f 369 95 368
f 326 327 87
f 87 327 329
f 327 331 329
f 581 326 87
f 293 79 298
f 79 297 298
f 296 298 78
f 79 293 294
f 296 293 298
f 598 490 38
f 358 280 22
f 280 279 278
f 357 358 95
f 74 357 353
f 330 328 25
f 567 23 559
f 590 598 38
f 590 604 598
f 598 604 155
f 604 590 154
f 590 591 154
f 604 154 606
f 297 299 298
f 299 318 78
f 298 299 78
f 355 354 356
f 629 636 642
f 312 24 629
f 629 642 160
f 370 362 97
f 362 363 97
f 363 366 97
f 364 363 362
f 362 370 351
f 96 363 364
f 297 636 24
f 162 637 638
f 637 297 79
f 490 488 38
f 598 597 490
f 441 442 119
f 443 442 441
f 443 441 5
f 442 448 445
f 296 78 295
f 326 12 172
f 575 574 364
f 47 175 176
f 175 177 176
f 47 176 179
