# FEM surface export ¡ª frame 125
# Vertices: 642  Faces: 1280
v -0.52573448 1.78224826 -0.00000003
v 0.52573270 1.78224421 -0.00000012
v -0.53257608 0.08131310 0.00046646
v 0.53499192 0.08113704 -0.00000953
v -0.00004902 0.40591201 0.85140538
v -0.00000096 1.45733500 0.85066229
v 0.00001135 0.40594321 -0.85157317
v -0.00000089 1.45733237 -0.85066068
v 0.85070688 0.93161505 -0.52576619
v 0.85073030 0.93162590 0.52578229
v -0.85072660 0.93162298 -0.52578169
v -0.85071713 0.93160909 0.52576888
v -0.80902910 1.43160069 0.30902314
v -0.50001615 1.24062657 0.80904663
v -0.30901849 1.74061120 0.50000232
v 0.30901867 1.74061322 0.50000298
v -0.00000002 1.93159246 -0.00000020
v 0.30901808 1.74061167 -0.50000167
v -0.30901900 1.74061561 -0.50000328
v -0.50001734 1.24062765 -0.80904472
v -0.80903304 1.43160570 -0.30902267
v -1.00005519 0.93160224 -0.00000620
v 0.50001895 1.24063396 0.80905694
v 0.80902475 1.43159962 0.30902091
v -0.50014347 0.62263978 0.80925721
v 0.00000532 0.93161535 1.00007510
v -0.80974722 0.43169081 -0.30927268
v -0.80952531 0.43172225 0.30916244
v -0.00000001 0.93162370 -1.00007606
v -0.50013936 0.62261474 -0.80927122
v 0.80902499 1.43159568 -0.30902022
v 0.50000811 1.24062109 -0.80903310
v 0.80965799 0.43164307 0.30924749
v 0.50014192 0.62262774 0.80918676
v 0.31377357 0.12223347 0.50552332
v -0.31312755 0.12176161 0.50440353
v -0.00085670 0.00000000 -0.00138195
v -0.31177589 0.12298753 -0.50426096
v 0.31204638 0.12283119 -0.50426835
v 0.50017029 0.62265605 -0.80929691
v 0.80983573 0.43186364 -0.30930033
v 1.00010324 0.93162912 0.00000387
v -0.69378716 1.63364410 0.16062342
v -0.58779031 1.61979270 0.42533171
v -0.43389076 1.79426432 0.25989288
v -0.70207494 1.09223366 0.69381881
v -0.68820304 1.35692608 0.58779675
v -0.86270225 1.19150162 0.43390870
v -0.16062337 1.62537682 0.70205122
v -0.42533019 1.51938498 0.68819678
v -0.25989398 1.36549413 0.86268675
v -0.16246015 1.88265038 0.26286647
v -0.27326682 1.89353192 -0.00000012
v 0.16062272 1.62537563 0.70205027
v 0.00000008 1.78224432 0.52573335
v 0.27326742 1.89353108 -0.00000012
v 0.16246030 1.88265264 0.26286709
v 0.43389016 1.79426336 0.25989267
v -0.16246028 1.88264990 -0.26286647
v -0.43389085 1.79426646 -0.25989312
v 0.43388990 1.79426205 -0.25989282
v 0.16246043 1.88264990 -0.26286632
v -0.16062281 1.62537622 -0.70205152
v 0.00000019 1.78224504 -0.52573317
v 0.16062316 1.62537587 -0.70205075
v -0.58779246 1.61979234 -0.42532876
v -0.69378585 1.63364422 -0.16062416
v -0.25989494 1.36548722 -0.86268026
v -0.42533058 1.51938832 -0.68819928
v -0.86269939 1.19149911 -0.43390304
v -0.68820286 1.35693049 -0.58779931
v -0.70207423 1.09223247 -0.69380826
v -0.85066557 1.45733678 0.00000260
v -0.96201247 0.93160605 -0.27329481
v -0.95109797 1.19447696 -0.16247047
v -0.95109892 1.19447649 0.16246727
v -0.96201825 0.93160594 0.27328917
v 0.58779049 1.61978757 0.42532921
v 0.69378394 1.63364220 0.16062255
v 0.25989759 1.36547637 0.86267418
v 0.42532766 1.51938307 0.68819481
v 0.86269158 1.19149327 0.43390587
v 0.68820459 1.35692871 0.58779126
v 0.70207357 1.09222984 0.69380152
v -0.26287323 1.09407198 0.95110321
v 0.00000283 1.20487332 0.96196568
v -0.70220399 0.77102375 0.69390446
v -0.52577591 0.93163425 0.85070223
v 0.00002024 0.65836656 0.96219552
v -0.26287341 0.76915878 0.95122308
v -0.26002437 0.49767384 0.86325794
v -0.95124495 0.66874141 0.16250834
v -0.86282051 0.67172635 0.43395182
v -0.86284262 0.67174435 -0.43398196
v -0.95130265 0.66876143 -0.16250202
v -0.69636279 0.22949025 0.16160743
v -0.85139549 0.40602157 0.00009578
v -0.69688541 0.22916114 -0.16132589
v -0.52578950 0.93160951 -0.85073924
v -0.70214462 0.77101409 -0.69388658
v -0.00000189 1.20487130 -0.96196127
v -0.26287675 1.09408057 -0.95111763
v -0.26012126 0.49771467 -0.86317891
v -0.26289830 0.76916039 -0.95120794
v 0.00002596 0.65839171 -0.96218157
v 0.42532781 1.51938069 -0.68819529
v 0.25989741 1.36548805 -0.86267954
v 0.69378406 1.63364267 -0.16062337
v 0.58778870 1.61978638 -0.42532650
v 0.70207042 1.09223008 -0.69380385
v 0.68820113 1.35692775 -0.58779621
v 0.86268765 1.19149303 -0.43389702
v 0.69737929 0.22930573 0.16149440
v 0.59039897 0.24294327 0.42634314
v 0.44045103 0.06851226 0.26432589
v 0.70216846 0.77101171 0.69391662
v 0.68856382 0.50624949 0.58811641
v 0.86279255 0.67170489 0.43393537
v 0.16128045 0.23792870 0.70513707
v 0.42583546 0.34392419 0.68915862
v 0.26011649 0.49785981 0.86320895
v 0.16716871 0.00058609 0.27036574
v 0.28323016 0.00000000 -0.00013088
v -0.16138351 0.23755103 0.70427167
v -0.00032500 0.08366015 0.53250331
v -0.28438166 0.00000000 -0.00125544
v -0.17033762 0.00000000 0.27035376
v -0.43834892 0.06997447 0.26366037
v 0.16564603 0.00008636 -0.26872137
v 0.43868327 0.06793503 -0.26326326
v -0.44163245 0.07021923 -0.26437882
v -0.16711439 0.00000000 -0.26933846
v 0.16119067 0.23782450 -0.70490712
v 0.00023785 0.08029634 -0.53178465
v -0.16089471 0.23723626 -0.70536143
v 0.59018123 0.24313003 -0.42690042
v 0.69783556 0.22929855 -0.16187043
v 0.26012141 0.49768677 -0.86314833
v 0.42592561 0.34386632 -0.68924463
v 0.86288851 0.67176932 -0.43397611
v 0.68860215 0.50640106 -0.58816004
v 0.70215619 0.77102548 -0.69390142
v 0.85118401 0.40583718 0.00003081
v 0.96202093 0.93161446 -0.27329323
v 0.95122457 0.66875404 -0.16249745
v 0.95118654 0.66874659 0.16246960
v 0.96198231 0.93160337 0.27328250
v 0.26290369 0.76916343 0.95116848
v 0.52575862 0.93161029 0.85069889
v 0.26287496 1.09406006 0.95109564
v -0.58998007 0.24293996 0.42698038
v -0.42621896 0.34413335 0.68975872
v -0.68857491 0.50628996 0.58803588
v -0.42620960 0.34371650 -0.68955839
v -0.59013844 0.24334021 -0.42712134
v -0.68876630 0.50633407 -0.58817494
v 0.52576542 0.93161833 -0.85071552
v 0.26291049 0.76916975 -0.95121068
v 0.26288256 1.09407687 -0.95110399
v 0.95108283 1.19446945 0.16246435
v 0.95107627 1.19446814 -0.16246483
v 0.85066056 1.45733070 0.00000022
v -0.61564595 1.71544075 0.08108728
v -0.57125509 1.72424626 0.21302439
v -0.48444366 1.79652464 0.13120118
v -0.70711958 1.53310370 0.37175331
v -0.64741689 1.63391054 0.29600862
v -0.75865960 1.53842282 0.23708853
v -0.37504050 1.77550638 0.38361597
v -0.51612401 1.71504843 0.34615591
v -0.45399278 1.68953121 0.46843308
v -0.78389001 1.01270354 0.61567187
v -0.79267991 1.14463341 0.57127100
v -0.86496657 1.06280351 0.48446524
v -0.60151368 1.30334842 0.70712125
v -0.70233434 1.22761095 0.64743114
v -0.60684323 1.16869009 0.75867063
v -0.84393352 1.31521916 0.37505037
v -0.78346938 1.27775669 0.51613390
v -0.75794792 1.40002728 0.45399609
v -0.08108676 1.54724133 0.78385031
v -0.21302383 1.50285053 0.79265696
v -0.13120192 1.41604257 0.86494303
v -0.37174970 1.63870251 0.60150474
v -0.29600626 1.57901037 0.70231527
v -0.23708732 1.69024682 0.60682833
v -0.38362357 1.30665731 0.84393895
v -0.34615821 1.44772708 0.78346449
v -0.46844000 1.38559687 0.75794977
v -0.64658707 1.49585485 0.51338524
v -0.56426388 1.44497681 0.64658529
v -0.51337886 1.57817590 0.56425899
v -0.35823023 1.85589886 0.13165642
v -0.40335652 1.84663749 0.00000049
v -0.23867738 1.82260132 0.38618979
v -0.30126023 1.84783840 0.26408398
v -0.13795245 1.92203355 -0.00000016
v -0.22011760 1.89798594 0.13279277
v -0.08224285 1.91928303 0.13307127
v 0.08108731 1.54724085 0.78384817
v 0.00000058 1.63450325 0.71128494
v 0.15643476 1.77177119 0.51926064
v 0.08114257 1.71179867 0.62024140
v 0.23708695 1.69024658 0.60682839
v -0.08114138 1.71179855 0.62024182
v -0.15643466 1.77177310 0.51926094
v 0.40335646 1.84663594 0.00000007
v 0.35823005 1.85589755 0.13165562
v 0.48444340 1.79652286 0.13120027
v 0.08224288 1.91928136 0.13307127
v 0.22011779 1.89798737 0.13279301
v 0.13795306 1.92203391 -0.00000001
v 0.37504029 1.77550590 0.38361442
v 0.30126035 1.84783912 0.26408401
v 0.23867747 1.82260036 0.38618875
v -0.08232357 1.84457636 0.39960912
v 0.08232327 1.84457529 0.39960769
v -0.00000024 1.89545536 0.26640600
v -0.35823005 1.85589910 -0.13165563
v -0.48444396 1.79652524 -0.13120078
v -0.08224250 1.91928184 -0.13307156
v -0.22011800 1.89798677 -0.13279316
v -0.37504068 1.77550864 -0.38361600
v -0.30125958 1.84783900 -0.26408336
v -0.23867784 1.82260168 -0.38618833
v 0.48444366 1.79652357 -0.13120075
v 0.35823017 1.85589802 -0.13165545
v 0.23867813 1.82260001 -0.38618845
v 0.30125976 1.84783709 -0.26408350
v 0.37503976 1.77550459 -0.38361496
v 0.22011769 1.89798582 -0.13279299
v 0.08224264 1.91928148 -0.13307181
v -0.08108713 1.54723930 -0.78384978
v 0.00000007 1.63450253 -0.71128696
v 0.08108719 1.54723704 -0.78384793
v -0.15643525 1.77177298 -0.51926035
v -0.08114105 1.71180129 -0.62024391
v -0.23708728 1.69024885 -0.60682857
v 0.23708735 1.69024694 -0.60682786
v 0.08114286 1.71180010 -0.62024266
v 0.15643518 1.77177155 -0.51925969
v -0.00000009 1.89545465 -0.26640552
v 0.08232401 1.84457612 -0.39960790
v -0.08232357 1.84457660 -0.39960840
v -0.57125455 1.72424769 -0.21302462
v -0.61564672 1.71544135 -0.08108649
v -0.45399335 1.68953347 -0.46843341
v -0.51612496 1.71505094 -0.34615585
v -0.75866306 1.53842854 -0.23709086
v -0.64741850 1.63391006 -0.29600719
v -0.70711827 1.53310370 -0.37175313
v -0.13120292 1.41604316 -0.86494112
v -0.21302398 1.50285053 -0.79265851
v -0.46844000 1.38559568 -0.75794947
v -0.34615752 1.44772553 -0.78346503
v -0.38362113 1.30664456 -0.84392792
v -0.29600799 1.57901061 -0.70231903
v -0.37174940 1.63870859 -0.60150772
v -0.86498725 1.06281424 -0.48446918
v -0.79269528 1.14464462 -0.57128388
v -0.78389698 1.01269555 -0.61568725
v -0.75794846 1.40003455 -0.45400003
v -0.78347808 1.27776480 -0.51614147
v -0.84393889 1.31522262 -0.37504879
v -0.60684919 1.16869867 -0.75868577
v -0.70233548 1.22761285 -0.64743555
v -0.60151607 1.30334938 -0.70712525
v -0.51337892 1.57817781 -0.56426048
v -0.56426919 1.44498289 -0.64659476
v -0.64658731 1.49585652 -0.51338077
v -0.70291495 1.64288259 0.00000109
v -0.84019500 1.45086598 -0.15643859
v -0.78021431 1.55184102 -0.08114287
v -0.78021157 1.55183816 0.08114365
v -0.84018725 1.45085943 0.15643965
v -0.91512620 0.93162549 -0.40338874
v -0.92435455 1.06326342 -0.35824317
v -0.98774177 1.06467938 -0.08224396
v -0.96641910 1.06439543 -0.22012702
v -0.99052113 0.93160796 -0.13796505
v -0.91627288 1.19569087 -0.30126756
v -0.89103264 1.31779647 -0.23868433
v -0.92436224 1.06326807 0.35825825
v -0.91512710 0.93161291 0.40339753
v -0.89103043 1.31779218 0.23868500
v -0.91628689 1.19570029 0.30127639
v -0.99052387 0.93161196 0.13796459
v -0.96644974 1.06440377 0.22013499
v -0.98772883 1.06467748 0.08224770
v -0.91301489 1.33121753 -0.08232787
v -0.96390033 1.19801652 0.00000196
v -0.91301107 1.33122075 0.08232494
v 0.57125407 1.72424650 0.21302414
v 0.61564445 1.71543777 0.08108587
v 0.45399231 1.68953168 0.46843275
v 0.51612353 1.71504855 0.34615445
v 0.75865746 1.53842092 0.23708846
v 0.64741647 1.63390696 0.29600734
v 0.70711243 1.53309810 0.37175187
v 0.13120314 1.41603887 0.86494154
v 0.21302499 1.50284755 0.79265553
v 0.46843901 1.38560498 0.75795585
v 0.34615442 1.44772017 0.78346145
v 0.38361579 1.30663633 0.84392881
v 0.29600477 1.57900703 0.70231384
v 0.37174970 1.63870037 0.60150301
v 0.86495996 1.06280625 0.48445523
v 0.79266959 1.14462411 0.57126242
v 0.78387862 1.01269472 0.61566800
v 0.75794488 1.40003085 0.45399630
v 0.78346753 1.27775490 0.51613230
v 0.84392488 1.31521809 0.37504646
v 0.60685295 1.16870165 0.75868583
v 0.70232701 1.22760642 0.64741653
v 0.60152584 1.30336189 0.70712501
v 0.51337910 1.57817507 0.56425756
v 0.56426197 1.44497859 0.64658368
v 0.64658326 1.49585295 0.51338106
v -0.13165458 1.28983295 0.92433017
v 0.00000616 1.33495712 0.91506183
v -0.38620016 1.17028701 0.89103711
v -0.26408973 1.23286724 0.91627282
v -0.00000208 1.06956327 0.99048471
v -0.13279361 1.15172207 0.96642655
v -0.13307756 1.01384974 0.98773736
v -0.78393638 0.85053575 0.61570728
v -0.71135497 0.93162799 0.70297432
v -0.51936907 0.77518708 0.84034234
v -0.62031543 0.85049462 0.78027225
v -0.60700327 0.69453841 0.75887924
v -0.62025642 1.01274598 0.78023183
v -0.51927525 1.08803797 0.84019756
v 0.00005553 0.52827609 0.91552114
v -0.13169587 0.57336527 0.92466891
v -0.13123833 0.44706604 0.86556298
v -0.13307631 0.84937811 0.98777252
v -0.13278238 0.71149701 0.96656072
v -0.00000443 0.79368228 0.99057370
v -0.38376448 0.55655819 0.84431618
v -0.26415220 0.63035291 0.91661364
v -0.38625371 0.69292587 0.89124042
v -0.39963174 1.01393008 0.91302109
v -0.39968276 0.84931588 0.91315264
v -0.26642391 0.93161333 0.96395111
v -0.92439002 0.79995281 0.35825431
v -0.86504507 0.80040646 0.48448911
v -0.98781580 0.79854947 0.08225840
v -0.96650898 0.79881841 0.22014785
v -0.84431762 0.54804742 0.37518451
v -0.91639853 0.66752589 0.30130276
v -0.89125025 0.54543984 0.23875998
v -0.86504257 0.80042696 -0.48451036
v -0.92444968 0.79996890 -0.35829830
v -0.89144403 0.54546028 -0.23875985
v -0.91645026 0.66752762 -0.30132142
v -0.84422392 0.54803985 -0.37514260
v -0.96654320 0.79880887 -0.22016394
v -0.98782492 0.79852909 -0.08226448
v -0.62047487 0.14704628 0.08198386
v -0.70600885 0.22040115 0.00022853
v -0.62028134 0.14782795 -0.08136178
v -0.84084469 0.41256368 0.15652621
v -0.78182614 0.31145096 0.08160646
v -0.76024878 0.32485288 0.23754002
v -0.76022035 0.32472390 -0.23756547
v -0.78221959 0.31110528 -0.08134498
v -0.84108466 0.41243112 -0.15655981
v -0.96408659 0.66521925 0.00001604
v -0.91341770 0.53209925 -0.08236170
v -0.91332453 0.53204131 0.08235714
v -0.71134561 0.93161809 -0.70296913
v -0.78393930 0.85053760 -0.61572140
v -0.51929402 1.08804607 -0.84021658
v -0.62029856 1.01275647 -0.78026009
v -0.60694778 0.69454539 -0.75880748
v -0.62031317 0.85046840 -0.78029037
v -0.51934093 0.77516675 -0.84029174
v 0.00000195 1.33495915 -0.91506177
v -0.13165502 1.28983533 -0.92432481
v -0.13307697 1.01385951 -0.98775053
v -0.13279393 1.15172827 -0.96642685
v -0.00000118 1.06957066 -0.99048537
v -0.26408783 1.23286819 -0.91627395
v -0.38620171 1.17029369 -0.89103568
v -0.13133223 0.44715270 -0.86570650
v -0.13174206 0.57339656 -0.92465276
v 0.00001478 0.52831858 -0.91552883
v -0.38625267 0.69292486 -0.89115775
v -0.26417294 0.63039440 -0.91653150
v -0.38379633 0.55654949 -0.84429777
v 0.00000234 0.79367304 -0.99059635
v -0.13280487 0.71151292 -0.96654046
v -0.13308217 0.84938216 -0.98780978
v -0.39964360 1.01396346 -0.91308725
v -0.26642755 0.93162316 -0.96395272
v -0.39966568 0.84930563 -0.91313034
v 0.21302538 1.50284827 -0.79265589
v 0.13120177 1.41604257 -0.86494094
v 0.37175027 1.63870215 -0.60150421
v 0.29600653 1.57900786 -0.70231462
v 0.38362035 1.30663800 -0.84392488
v 0.34615609 1.44771779 -0.78345734
v 0.46843475 1.38558865 -0.75794291
v 0.61564463 1.71543837 -0.08108696
v 0.57125401 1.72424483 -0.21302356
v 0.70711380 1.53309751 -0.37175038
v 0.64741534 1.63390517 -0.29600587
v 0.75865924 1.53842199 -0.23708935
v 0.51612401 1.71504593 -0.34615350
v 0.45399231 1.68953037 -0.46843278
v 0.78387576 1.01269829 -0.61566627
v 0.79267484 1.14463222 -0.57127142
v 0.86496580 1.06281281 -0.48447028
v 0.60151029 1.30334985 -0.70711678
v 0.70232385 1.22760534 -0.64742565
v 0.60684514 1.16869688 -0.75867975
v 0.84392291 1.31521225 -0.37504357
v 0.78346902 1.27775574 -0.51613081
v 0.75794274 1.40002882 -0.45399594
v 0.51337790 1.57817209 -0.56425732
v 0.64658254 1.49585176 -0.51337999
v 0.56425935 1.44497383 -0.64658427
v 0.62175310 0.14817180 0.08186819
v 0.57694179 0.13791101 0.21572907
v 0.49292818 0.06706192 0.13336290
v 0.70816982 0.33008841 0.37211254
v 0.65038174 0.22915325 0.29720217
v 0.75999671 0.32487759 0.23747842
v 0.38022432 0.08696955 0.38826689
v 0.52018964 0.14716382 0.34870577
v 0.45862454 0.17307682 0.47211406
v 0.78393883 0.85053736 0.61573315
v 0.79282206 0.71856964 0.57135069
v 0.86508101 0.80040503 0.48451918
v 0.60166317 0.55986434 0.70728147
v 0.70248741 0.63562316 0.64757901
v 0.60691017 0.69450951 0.75878346
v 0.84417266 0.54805398 0.37515292
v 0.78360856 0.58546799 0.51622695
v 0.75837976 0.46316200 0.45422933
v 0.08091556 0.31616351 0.78482544
v 0.21315728 0.36075535 0.79399896
v 0.13127960 0.44724980 0.86542463
v 0.37365803 0.22433107 0.60472202
v 0.29674968 0.28460494 0.70507103
v 0.23958047 0.17308283 0.61152893
v 0.38381046 0.55667150 0.84423506
v 0.34650990 0.41571403 0.78415376
v 0.46865678 0.47768164 0.75829285
v 0.64724004 0.36725497 0.51367635
v 0.56465799 0.41832706 0.64707160
v 0.51495397 0.28541148 0.56605607
v 0.36711124 0.01341958 0.13525611
v 0.41094482 0.02458464 0.00067883
v 0.24306485 0.04437843 0.39382219
v 0.30636072 0.02025138 0.26885262
v 0.14245044 0.00000000 -0.00072127
v 0.22855036 0.00000000 0.13818328
v 0.08798369 0.00000000 0.13863286
v -0.08130033 0.31594229 0.78476804
v 0.00024682 0.22836979 0.71462327
v -0.15933721 0.09132552 0.52652806
v -0.08178118 0.15101495 0.62557405
v -0.23904797 0.17249364 0.61054236
v 0.08209950 0.15050676 0.62654132
v 0.15965769 0.09196229 0.52720428
v -0.41482568 0.02178848 -0.00147500
v -0.36928126 0.01625787 0.13584337
v -0.49159482 0.06776915 0.13260692
v -0.08391105 0.00000000 0.13794516
v -0.22779402 0.00000000 0.13899374
v -0.14272091 0.00000000 0.00045391
v -0.37940884 0.08644920 0.38722929
v -0.30617648 0.01870199 0.27038252
v -0.24423981 0.04264104 0.39387643
v 0.08362738 0.02691478 0.40849701
v -0.08536444 0.02529285 0.40907338
v -0.00260992 0.00000000 0.27365834
v 0.36628973 0.01603000 -0.13382711
v 0.49192709 0.06803816 -0.13208632
v 0.08509376 0.00000000 -0.13897285
v 0.22834915 0.00000000 -0.13658012
v 0.38008505 0.08698615 -0.38956690
v 0.30479750 0.02117394 -0.27121398
v 0.24195375 0.04118308 -0.39395908
v -0.49057919 0.06845861 -0.13290292
v -0.36812499 0.01341733 -0.13681108
v -0.24280049 0.04631902 -0.39066577
v -0.30722466 0.02182967 -0.26746038
v -0.37993929 0.08826009 -0.38806537
v -0.23145407 0.00000000 -0.13937433
v -0.08608641 0.00000000 -0.13953745
v 0.08119403 0.31606755 -0.78552729
v -0.00008441 0.22840519 -0.71411592
v -0.08119363 0.31608737 -0.78535587
v 0.15858497 0.09147333 -0.52696913
v 0.08192575 0.15154229 -0.62457192
v 0.23900642 0.17302915 -0.61121666
v -0.23852317 0.17291552 -0.61137223
v -0.08131070 0.14992911 -0.62543720
v -0.15905949 0.09201259 -0.52546996
v 0.00032324 0.00000000 -0.27661830
v -0.08557229 0.02394129 -0.40681356
v 0.08553533 0.02239929 -0.40652436
v 0.57670194 0.13822076 -0.21447220
v 0.62196219 0.14768690 -0.08187301
v 0.45765057 0.17324778 -0.47145283
v 0.52022719 0.14694336 -0.34842700
v 0.76061052 0.32488719 -0.23753290
v 0.65000159 0.22916320 -0.29726267
v 0.70856470 0.33033243 -0.37235284
v 0.13139135 0.44717035 -0.86575955
v 0.21345893 0.36048663 -0.79377073
v 0.46874371 0.47770953 -0.75841898
v 0.34655732 0.41550446 -0.78419763
v 0.38377631 0.55658162 -0.84426409
v 0.29670885 0.28422278 -0.70408231
v 0.37381530 0.22435892 -0.60427189
v 0.86504334 0.80043930 -0.48451412
v 0.79280704 0.71862102 -0.57138366
v 0.78393126 0.85054713 -0.61570442
v 0.75851083 0.46330476 -0.45442805
v 0.78374708 0.58554673 -0.51632017
v 0.84432983 0.54811800 -0.37523586
v 0.60697889 0.69455504 -0.75884533
v 0.70251542 0.63565701 -0.64759904
v 0.60174567 0.55996168 -0.70741034
v 0.51469129 0.28495777 -0.56593239
v 0.56475711 0.41836244 -0.64723760
v 0.64752197 0.36758673 -0.51413995
v 0.70674801 0.22059268 -0.00033544
v 0.84084409 0.41251233 -0.15641721
v 0.78195554 0.31159830 -0.08127274
v 0.78134042 0.31132919 0.08145066
v 0.84084809 0.41236371 0.15659340
v 0.91511106 0.93162012 -0.40338761
v 0.92442828 0.79994857 -0.35826692
v 0.98779637 0.79855537 -0.08224140
v 0.96651763 0.79882437 -0.22014377
v 0.99051452 0.93161982 -0.13795929
v 0.91638619 0.66751629 -0.30129769
v 0.89136583 0.54548150 -0.23874487
v 0.92439497 0.79994583 0.35826653
v 0.91511607 0.93162364 0.40337718
v 0.89130926 0.54547369 0.23872566
v 0.91639066 0.66752619 0.30128586
v 0.99050719 0.93161100 0.13798347
v 0.96646130 0.79880422 0.22014631
v 0.98781115 0.79856253 0.08226991
v 0.91350400 0.53206170 -0.08236728
v 0.96400803 0.66524851 0.00000226
v 0.91339082 0.53203642 0.08231345
v 0.13174506 0.57341999 0.92471009
v 0.38626939 0.69296068 0.89115560
v 0.26418418 0.63038957 0.91648561
v 0.13283810 0.71151602 0.96656543
v 0.13308856 0.84937227 0.98775637
v 0.71132863 0.93162966 0.70296609
v 0.51927584 1.08804774 0.84021348
v 0.62027186 1.01275361 0.78025109
v 0.62027967 0.85046971 0.78027803
v 0.51931924 0.77519107 0.84028697
v 0.13166299 1.28982091 0.92431372
v 0.13307856 1.01385474 0.98774755
v 0.13279743 1.15171993 0.96642357
v 0.26408917 1.23285627 0.91627121
v 0.38619149 1.17026925 0.89103448
v 0.39963913 0.84928769 0.91305357
v 0.39962840 1.01392448 0.91302860
v 0.26642272 0.93160737 0.96390975
v -0.57505238 0.13855076 0.21513413
v -0.45685881 0.17273957 0.47131294
v -0.51978630 0.14725892 0.34908772
v -0.64992219 0.22915959 0.29742759
v -0.70823580 0.33020550 0.37243044
v -0.21323857 0.36033723 0.79357433
v -0.46886793 0.47778276 0.75868452
v -0.34651020 0.41549695 0.78423929
v -0.29660788 0.28409663 0.70416129
v -0.37337747 0.22431493 0.60461390
v -0.79279494 0.71861207 0.57134539
v -0.75859135 0.46319121 0.45426065
v -0.78373140 0.58546239 0.51628923
v -0.70252144 0.63562012 0.64755738
v -0.60170335 0.55988514 0.70732147
v -0.51481330 0.28479728 0.56581503
v -0.56496578 0.41826648 0.64719349
v -0.64742196 0.36736420 0.51394093
v -0.21336313 0.36045766 -0.79357624
v -0.37323627 0.22438912 -0.60416186
v -0.29689133 0.28394073 -0.70447510
v -0.34661198 0.41545746 -0.78438300
v -0.46885133 0.47764575 -0.75856084
v -0.57666588 0.13899614 -0.21473627
v -0.70845228 0.33007672 -0.37250006
v -0.65006161 0.22929169 -0.29727420
v -0.52145112 0.14775953 -0.34961569
v -0.45770052 0.17314692 -0.47244242
v -0.79279834 0.71861213 -0.57135051
v -0.60178250 0.55993342 -0.70741755
v -0.70255369 0.63563281 -0.64763111
v -0.78379124 0.58552450 -0.51628220
v -0.75847137 0.46328831 -0.45421162
v -0.51466137 0.28500110 -0.56576741
v -0.64764416 0.36734593 -0.51425588
v -0.56500995 0.41821685 -0.64743727
v 0.71133292 0.93162364 -0.70295221
v 0.51933515 0.77519685 -0.84031814
v 0.62030387 0.85049444 -0.78028876
v 0.62027198 1.01275849 -0.78024149
v 0.51927650 1.08804119 -0.84020412
v 0.13174523 0.57341617 -0.92469329
v 0.13308094 0.84937739 -0.98778737
v 0.13284236 0.71150798 -0.96661049
v 0.26416847 0.63037324 -0.91652310
v 0.38626277 0.69293761 -0.89119154
v 0.13165791 1.28983152 -0.92432064
v 0.38619897 1.17027497 -0.89102328
v 0.26408991 1.23286152 -0.91625953
v 0.13279797 1.15172529 -0.96642345
v 0.13307042 1.01385653 -0.98775464
v 0.39964977 0.84929955 -0.91307378
v 0.26642317 0.93162358 -0.96391875
v 0.39963263 1.01391983 -0.91301244
v 0.92433578 1.06326294 0.35824072
v 0.98773861 1.06468427 0.08226085
v 0.96642065 1.06439769 0.22012474
v 0.91628051 1.19569254 0.30127138
v 0.89102709 1.31779408 0.23867837
v 0.92434436 1.06326926 -0.35824552
v 0.89101821 1.31778669 -0.23868124
v 0.91626638 1.19568586 -0.30126569
v 0.96643454 1.06440258 -0.22013259
v 0.98773861 1.06469047 -0.08223873
v 0.70291144 1.64287853 -0.00000072
v 0.84018815 1.45085967 0.15643550
v 0.78021079 1.55183816 0.08114230
v 0.78021044 1.55183744 -0.08114163
v 0.84018880 1.45085764 -0.15643673
v 0.96389139 1.19801140 0.00000053
v 0.91299754 1.33120847 -0.08232696
v 0.91299951 1.33121049 0.08232443
f 330 87 329
f 336 325 26
f 207 208 56
f 464 36 580
f 502 129 504
f 157 624 622
f 308 311 82
f 247 223 248
f 507 483 508
f 331 88 329
f 494 500 497
f 156 601 602
f 591 589 592
f 365 98 596
f 75 281 282
f 152 587 577
f 149 559 560
f 555 121 553
f 530 141 529
f 515 517 139
f 361 594 98
f 250 67 249
f 157 608 609
f 294 293 209
f 317 81 316
f 557 338 26
f 303 305 81
f 530 529 528
f 101 381 382
f 415 418 111
f 192 184 50
f 412 110 411
f 20 384 256
f 131 594 486
f 281 264 282
f 347 287 348
f 28 349 582
f 165 163 1
f 248 250 66
f 617 107 398
f 273 271 274
f 456 115 453
f 558 561 560
f 335 576 91
f 331 177 332
f 116 433 436
f 351 370 92
f 136 511 530
f 239 240 65
f 247 258 19
f 304 23 567
f 148 557 570
f 214 208 58
f 440 426 450
f 268 270 269
f 258 247 268
f 204 202 16
f 466 125 465
f 517 513 133
f 168 275 274
f 275 73 274
f 198 193 53
f 309 308 307
f 510 511 136
f 415 416 110
f 131 490 597
f 473 475 474
f 414 415 111
f 493 495 494
f 496 504 485
f 433 116 432
f 600 375 601
f 240 234 65
f 418 415 412
f 486 361 3
f 567 566 304
f 380 393 29
f 17 199 197
f 491 492 132
f 451 449 435
f 218 217 216
f 623 621 613
f 396 104 395
f 433 439 436
f 628 160 627
f 215 202 217
f 209 207 2
f 427 113 424
f 434 10 544
f 434 433 432
f 199 17 210
f 150 564 565
f 489 491 132
f 275 13 285
f 497 500 134
f 125 466 476
f 578 152 577
f 208 214 211
f 328 88 343
f 356 27 603
f 150 566 567
f 372 100 371
f 190 191 47
f 235 8 398
f 260 261 72
f 422 403 414
f 422 414 111
f 453 454 123
f 349 583 582
f 521 520 519
f 425 453 115
f 616 622 158
f 483 130 508
f 151 586 572
f 212 17 232
f 400 397 402
f 377 396 99
f 41 522 511
f 510 508 505
f 549 547 42
f 475 473 36
f 510 137 509
f 222 221 197
f 430 115 429
f 220 194 1
f 305 54 204
f 621 29 613
f 192 171 184
f 460 335 5
f 88 331 332
f 74 277 279
f 300 301 80
f 390 389 388
f 165 45 164
f 146 549 551
f 291 278 75
f 448 120 445
f 147 543 544
f 607 610 609
f 603 602 356
f 139 529 514
f 333 553 443
f 92 368 347
f 261 260 259
f 300 6 200
f 46 177 331
f 284 283 174
f 301 300 200
f 471 468 474
f 54 305 301
f 302 304 303
f 569 150 567
f 150 569 570
f 294 209 2
f 628 629 160
f 548 543 147
f 147 625 627
f 63 233 234
f 426 427 114
f 41 509 532
f 198 52 196
f 614 105 612
f 147 627 547
f 81 305 306
f 549 548 547
f 54 301 200
f 342 88 332
f 264 281 70
f 193 194 53
f 455 429 456
f 187 321 14
f 479 130 484
f 147 544 625
f 458 456 453
f 304 80 303
f 314 84 313
f 488 503 501
f 321 332 14
f 423 425 424
f 305 204 306
f 341 339 25
f 514 40 516
f 625 628 627
f 340 339 341
f 105 614 391
f 243 228 62
f 318 316 78
f 75 278 279
f 357 355 353
f 238 257 63
f 466 455 476
f 425 423 4
f 448 449 120
f 408 638 108
f 292 275 285
f 22 278 289
f 515 513 517
f 501 503 134
f 622 623 158
f 134 503 504
f 195 216 206
f 163 271 246
f 619 617 620
f 62 228 229
f 163 165 164
f 453 425 454
f 489 132 488
f 82 628 625
f 58 208 209
f 525 608 40
f 626 547 627
f 518 517 498
f 489 487 491
f 557 26 564
f 325 336 344
f 541 145 539
f 40 616 516
f 338 556 89
f 250 248 245
f 139 514 515
f 98 594 596
f 246 220 1
f 112 413 630
f 9 536 413
f 156 600 601
f 332 177 14
f 321 342 332
f 156 606 600
f 584 330 585
f 302 303 81
f 584 87 330
f 330 25 585
f 400 239 65
f 439 440 117
f 95 358 368
f 597 594 131
f 594 361 486
f 246 67 245
f 561 562 149
f 28 364 362
f 55 216 217
f 427 430 114
f 267 20 254
f 556 555 553
f 84 309 558
f 311 310 312
f 609 525 142
f 256 68 255
f 124 460 461
f 82 311 312
f 307 308 82
f 589 135 495
f 527 40 514
f 112 418 412
f 20 256 254
f 258 238 19
f 267 254 269
f 273 272 249
f 392 391 393
f 137 533 509
f 122 455 456
f 9 413 411
f 130 480 505
f 333 443 5
f 527 525 40
f 589 495 385
f 39 496 485
f 223 225 224
f 414 416 415
f 219 222 53
f 145 538 539
f 413 412 411
f 469 468 467
f 183 181 6
f 191 192 50
f 429 35 431
f 292 285 76
f 413 112 412
f 415 110 412
f 43 164 167
f 467 468 126
f 617 101 620
f 450 451 117
f 438 546 545
f 619 620 159
f 17 212 210
f 124 579 576
f 584 153 583
f 460 124 576
f 3 469 467
f 311 308 314
f 6 320 183
f 389 104 388
f 251 250 249
f 194 165 1
f 291 289 278
f 287 77 348
f 238 258 257
f 139 517 518
f 238 236 19
f 223 247 19
f 382 380 29
f 39 518 498
f 361 359 3
f 69 255 257
f 139 518 528
f 33 545 535
f 387 385 7
f 69 268 269
f 477 462 125
f 454 479 123
f 121 555 447
f 451 435 117
f 454 425 4
f 233 252 8
f 124 463 464
f 69 258 268
f 168 167 166
f 583 153 582
f 384 394 102
f 138 512 513
f 57 210 211
f 254 256 255
f 607 609 142
f 324 319 86
f 289 291 76
f 291 292 76
f 384 102 383
f 422 421 420
f 221 17 197
f 383 102 381
f 376 377 99
f 99 373 374
f 386 105 392
f 438 33 440
f 90 341 343
f 281 75 279
f 574 571 96
f 628 82 312
f 221 222 59
f 127 471 474
f 595 605 603
f 551 538 145
f 334 91 340
f 322 324 85
f 305 303 301
f 18 239 399
f 306 204 16
f 199 198 197
f 166 190 180
f 303 80 301
f 267 266 265
f 626 42 547
f 16 215 213
f 349 351 350
f 295 16 213
f 68 379 252
f 250 251 66
f 627 160 626
f 383 68 256
f 343 88 342
f 507 508 136
f 202 215 16
f 197 198 53
f 254 69 269
f 603 605 156
f 418 419 111
f 384 383 256
f 455 122 476
f 203 204 54
f 556 557 148
f 255 68 253
f 313 84 560
f 25 328 341
f 254 255 69
f 603 156 602
f 581 584 583
f 630 632 112
f 163 246 1
f 246 245 220
f 432 116 558
f 499 591 590
f 320 563 86
f 345 93 350
f 306 16 295
f 346 93 345
f 562 568 149
f 604 605 155
f 154 592 593
f 545 552 535
f 511 522 530
f 574 573 571
f 566 150 565
f 361 98 360
f 67 271 273
f 234 235 65
f 208 211 56
f 574 151 573
f 251 270 66
f 398 8 378
f 213 215 214
f 438 440 439
f 315 314 313
f 263 71 262
f 20 373 384
f 496 134 504
f 329 88 328
f 81 306 316
f 555 556 148
f 592 589 103
f 617 619 107
f 227 207 56
f 571 359 96
f 446 466 465
f 206 216 55
f 359 571 469
f 568 148 570
f 34 437 435
f 28 351 349
f 21 272 282
f 113 423 424
f 490 489 488
f 379 68 383
f 210 212 211
f 80 563 300
f 351 92 350
f 326 346 12
f 83 317 318
f 555 148 554
f 212 231 56
f 218 57 217
f 271 67 246
f 195 196 52
f 270 268 66
f 390 592 103
f 148 568 554
f 495 493 7
f 592 390 593
f 357 95 355
f 574 575 151
f 452 120 451
f 154 591 592
f 587 585 577
f 395 394 396
f 93 349 350
f 610 416 611
f 166 44 190
f 315 23 302
f 315 302 317
f 268 247 66
f 606 154 593
f 396 394 99
f 211 212 56
f 370 369 368
f 235 397 65
f 280 278 22
f 83 315 317
f 575 588 151
f 74 279 280
f 385 495 7
f 63 257 253
f 397 235 398
f 214 58 213
f 220 219 194
f 546 146 545
f 236 225 19
f 599 94 602
f 235 233 8
f 102 394 395
f 611 416 32
f 225 223 19
f 139 528 529
f 231 62 229
f 419 406 421
f 451 450 452
f 49 182 185
f 402 397 107
f 52 199 218
f 416 610 110
f 225 236 244
f 107 397 398
f 68 252 253
f 322 85 321
f 182 181 183
f 118 438 439
f 546 438 118
f 348 77 345
f 543 546 118
f 231 212 232
f 610 611 157
f 33 438 545
f 385 386 103
f 479 480 130
f 169 195 15
f 93 583 349
f 15 195 206
f 190 44 192
f 247 248 66
f 146 552 545
f 248 60 245
f 570 557 564
f 274 271 43
f 63 253 233
f 272 21 249
f 507 528 518
f 67 273 249
f 487 467 126
f 196 195 169
f 624 159 623
f 134 496 497
f 132 503 488
f 104 393 395
f 556 553 89
f 355 356 94
f 258 69 257
f 229 61 227
f 56 231 227
f 460 576 335
f 463 124 461
f 394 373 99
f 29 393 391
f 67 250 245
f 193 198 196
f 462 36 464
f 144 633 630
f 141 526 527
f 517 133 498
f 536 144 630
f 100 372 599
f 144 536 537
f 22 289 287
f 578 579 152
f 579 578 576
f 189 188 187
f 60 223 224
f 92 348 350
f 555 554 447
f 396 377 388
f 194 193 165
f 413 536 630
f 372 352 599
f 377 376 375
f 348 345 350
f 105 386 387
f 240 237 234
f 463 462 464
f 135 500 494
f 45 196 169
f 512 612 387
f 245 60 220
f 429 115 456
f 223 60 248
f 288 289 76
f 525 526 142
f 100 599 601
f 613 29 391
f 526 523 520
f 341 328 343
f 631 641 639
f 264 21 282
f 266 72 265
f 106 402 403
f 73 273 274
f 186 206 205
f 381 379 383
f 52 216 195
f 410 18 399
f 290 272 73
f 72 371 374
f 526 525 527
f 115 430 424
f 498 497 496
f 621 382 29
f 543 118 434
f 214 215 57
f 522 141 530
f 511 510 509
f 352 94 599
f 493 512 7
f 90 340 341
f 169 171 170
f 605 604 606
f 219 60 224
f 104 389 392
f 359 469 3
f 186 49 185
f 222 219 224
f 166 167 44
f 428 427 426
f 523 522 524
f 129 502 481
f 50 185 188
f 164 45 170
f 425 115 424
f 33 428 426
f 427 428 113
f 94 356 602
f 515 138 513
f 114 431 452
f 237 236 238
f 215 217 57
f 95 354 355
f 220 60 219
f 515 514 516
f 183 320 319
f 222 197 53
f 559 569 567
f 300 320 6
f 435 436 117
f 96 360 363
f 640 642 641
f 242 243 62
f 140 537 519
f 508 130 505
f 420 410 399
f 537 539 144
f 317 316 318
f 426 114 450
f 186 15 206
f 311 83 310
f 625 544 307
f 544 10 307
f 168 43 167
f 185 182 188
f 369 354 95
f 44 171 192
f 605 606 156
f 548 549 146
f 100 601 375
f 149 568 569
f 381 380 382
f 455 466 35
f 480 479 454
f 543 548 546
f 493 133 513
f 492 472 37
f 477 125 476
f 491 487 126
f 337 336 338
f 588 153 587
f 576 578 91
f 633 161 632
f 96 359 360
f 39 485 483
f 101 617 378
f 193 45 165
f 163 164 43
f 618 624 611
f 507 136 528
f 561 149 560
f 641 162 639
f 116 561 558
f 494 133 493
f 253 252 233
f 63 237 238
f 392 393 104
f 440 450 117
f 93 581 583
f 386 385 387
f 120 449 451
f 421 422 111
f 486 3 467
f 302 81 317
f 633 632 630
f 462 475 36
f 376 99 374
f 489 490 131
f 447 449 448
f 387 612 105
f 106 420 399
f 173 46 172
f 492 491 472
f 316 306 295
f 22 287 347
f 109 410 420
f 507 39 483
f 559 23 313
f 214 57 211
f 196 45 193
f 10 434 432
f 422 106 403
f 626 160 640
f 487 486 467
f 542 41 532
f 400 106 399
f 444 120 452
f 198 199 52
f 475 127 474
f 621 620 382
f 621 623 159
f 450 114 452
f 92 347 348
f 376 100 375
f 434 118 433
f 503 132 502
f 337 90 336
f 537 536 519
f 395 393 380
f 201 54 200
f 171 44 170
f 355 94 353
f 58 296 213
f 422 420 106
f 595 365 596
f 569 568 570
f 523 140 520
f 114 430 431
f 218 210 57
f 304 566 80
f 639 162 638
f 261 371 72
f 548 147 547
f 498 133 497
f 150 570 564
f 222 224 59
f 142 526 520
f 437 436 435
f 141 522 523
f 137 510 505
f 173 179 176
f 559 149 569
f 121 447 448
f 563 320 300
f 102 395 380
f 257 255 253
f 642 162 641
f 83 311 314
f 216 52 218
f 512 493 513
f 23 304 302
f 91 339 340
f 512 138 612
f 159 620 621
f 218 199 210
f 364 28 575
f 83 318 310
f 168 274 43
f 136 530 528
f 140 523 524
f 495 135 494
f 233 235 234
f 566 563 80
f 25 339 577
f 277 74 276
f 475 462 477
f 133 494 497
f 436 437 116
f 389 386 392
f 548 146 546
f 441 460 5
f 10 309 307
f 65 397 400
f 543 434 544
f 640 641 161
f 272 273 73
f 581 93 346
f 419 421 111
f 319 320 86
f 180 179 178
f 127 475 477
f 231 229 227
f 337 334 340
f 136 508 510
f 308 309 84
f 237 63 234
f 447 554 34
f 252 379 378
f 315 83 314
f 608 622 616
f 338 336 26
f 337 338 89
f 13 275 168
f 209 208 207
f 436 439 117
f 628 312 629
f 360 366 363
f 364 574 96
f 359 361 360
f 466 446 35
f 500 501 134
f 406 109 421
f 135 589 591
f 601 599 602
f 340 90 337
f 481 492 37
f 522 41 524
f 78 316 295
f 131 486 487
f 403 32 414
f 634 626 640
f 151 572 573
f 515 516 138
f 8 252 378
f 265 72 374
f 9 521 519
f 538 549 42
f 368 358 347
f 588 587 586
f 458 453 123
f 589 385 103
f 502 492 481
f 32 416 414
f 430 427 424
f 153 585 587
f 540 144 539
f 370 368 92
f 209 293 58
f 428 33 535
f 326 581 346
f 625 307 82
f 575 28 582
f 6 181 200
f 421 109 420
f 553 121 443
f 160 642 640
f 153 584 585
f 309 432 558
f 334 337 89
f 23 315 313
f 271 163 43
f 296 295 213
f 39 498 496
f 118 439 433
f 531 113 534
f 293 296 58
f 28 362 351
f 489 131 487
f 431 444 452
f 84 558 560
f 98 366 360
f 45 169 170
f 379 101 378
f 462 463 125
f 308 84 314
f 10 432 309
f 299 24 310
f 132 492 502
f 512 387 7
f 639 638 408
f 565 323 86
f 59 244 242
f 106 400 402
f 440 33 426
f 566 565 563
f 617 398 378
f 224 225 59
f 410 109 409
f 239 400 399
f 194 219 53
f 358 22 347
f 610 157 609
f 27 595 603
f 479 484 482
f 142 520 521
f 585 25 577
f 339 578 577
f 408 407 406
f 407 109 406
f 31 408 406
f 407 408 108
f 31 639 408
f 419 31 406
f 608 616 40
f 430 429 431
f 455 35 429
f 35 444 431
f 188 51 187
f 188 182 51
f 51 322 187
f 322 51 319
f 51 182 183
f 319 51 183
f 187 322 321
f 322 319 324
f 381 101 379
f 405 407 108
f 404 405 108
f 286 285 178
f 407 405 409
f 109 407 409
f 191 175 47
f 167 164 170
f 50 184 185
f 44 167 170
f 64 244 236
f 243 244 64
f 50 188 189
f 541 542 145
f 442 445 119
f 339 91 578
f 445 446 119
f 624 623 622
f 611 624 157
f 523 526 141
f 141 527 529
f 527 514 529
f 445 120 444
f 446 445 444
f 35 446 444
f 613 614 158
f 158 614 615
f 623 613 158
f 614 613 391
f 614 612 615
f 371 376 374
f 100 376 371
f 479 482 123
f 373 394 384
f 540 42 634
f 633 540 634
f 538 42 540
f 633 634 161
f 161 634 640
f 42 626 634
f 540 633 144
f 557 556 338
f 553 333 89
f 262 21 264
f 251 21 262
f 5 335 333
f 270 251 262
f 21 251 249
f 600 593 30
f 606 593 600
f 600 30 375
f 593 390 30
f 30 377 375
f 390 388 30
f 30 388 377
f 228 243 241
f 470 478 459
f 470 127 478
f 127 477 478
f 184 186 185
f 478 477 476
f 122 478 476
f 357 74 280
f 518 39 507
f 344 342 85
f 325 344 85
f 342 344 343
f 85 342 321
f 344 90 343
f 90 344 336
f 482 129 481
f 482 481 457
f 482 457 123
f 481 37 457
f 449 447 34
f 435 449 34
f 470 472 471
f 472 470 37
f 470 471 127
f 472 126 471
f 126 468 471
f 470 459 37
f 491 126 472
f 504 129 485
f 221 59 242
f 125 463 465
f 437 34 562
f 561 437 562
f 554 568 562
f 34 554 562
f 437 561 116
f 390 103 389
f 103 386 389
f 392 105 391
f 572 586 580
f 572 580 36
f 586 152 580
f 473 572 36
f 244 243 242
f 225 244 59
f 64 240 241
f 240 239 241
f 237 240 64
f 243 64 241
f 236 237 64
f 411 607 521
f 9 411 521
f 110 607 411
f 607 142 521
f 610 607 110
f 171 15 184
f 171 169 15
f 15 186 184
f 87 584 581
f 153 588 582
f 588 575 582
f 381 102 380
f 573 572 473
f 468 469 128
f 474 468 128
f 469 571 128
f 571 573 128
f 573 473 128
f 473 474 128
f 564 323 565
f 26 323 564
f 323 324 86
f 325 323 26
f 325 324 323
f 563 565 86
f 324 325 85
f 410 230 18
f 230 228 18
f 18 228 241
f 18 241 239
f 401 619 618
f 401 402 107
f 403 402 401
f 619 159 618
f 401 618 32
f 619 401 107
f 403 401 32
f 618 611 32
f 159 624 618
f 478 122 459
f 122 458 459
f 37 459 457
f 459 458 457
f 122 456 458
f 457 458 123
f 191 190 192
f 485 129 484
f 129 482 484
f 483 485 484
f 130 483 484
f 189 187 14
f 191 50 189
f 191 189 175
f 189 14 175
f 14 177 175
f 499 501 500
f 501 499 38
f 38 499 590
f 135 499 500
f 488 501 38
f 499 135 591
f 480 454 4
f 284 12 346
f 4 423 506
f 480 4 506
f 423 531 506
f 480 506 505
f 531 137 506
f 506 137 505
f 365 366 98
f 71 270 262
f 270 71 269
f 71 267 269
f 335 334 333
f 333 334 89
f 334 335 91
f 536 9 519
f 465 463 461
f 537 140 541
f 520 140 519
f 119 446 465
f 465 461 119
f 461 441 119
f 460 441 461
f 176 46 173
f 299 297 24
f 71 263 266
f 263 260 266
f 260 72 266
f 263 70 260
f 205 201 49
f 201 181 49
f 186 205 49
f 181 201 200
f 181 182 49
f 284 77 283
f 586 587 152
f 588 586 151
f 20 267 265
f 266 267 71
f 31 417 631
f 631 417 632
f 31 631 639
f 417 31 419
f 641 631 161
f 417 112 632
f 161 631 632
f 418 417 419
f 417 418 112
f 284 345 77
f 542 550 145
f 542 541 524
f 284 174 12
f 48 174 283
f 373 20 265
f 373 265 374
f 609 608 525
f 608 157 622
f 560 559 313
f 636 637 162
f 541 140 524
f 41 542 524
f 358 357 280
f 70 263 264
f 263 262 264
f 176 177 46
f 174 48 173
f 174 173 172
f 538 551 549
f 538 540 539
f 537 541 539
f 232 221 242
f 17 221 232
f 232 242 62
f 231 232 62
f 203 205 55
f 203 55 202
f 201 205 203
f 202 55 217
f 205 206 55
f 204 203 202
f 73 275 292
f 292 290 73
f 272 290 282
f 290 292 291
f 75 290 291
f 290 75 282
f 70 277 259
f 277 70 281
f 277 281 279
f 260 70 259
f 12 174 172
f 104 396 388
f 367 27 354
f 365 27 367
f 354 27 356
f 365 367 366
f 595 27 365
f 318 299 310
f 155 596 597
f 155 597 598
f 596 594 597
f 595 596 155
f 605 595 155
f 180 47 179
f 180 190 47
f 352 372 11
f 11 372 261
f 312 310 24
f 642 636 162
f 636 297 637
f 367 369 97
f 366 367 97
f 369 367 354
f 369 370 97
f 580 579 464
f 580 152 579
f 579 124 464
f 61 230 409
f 230 410 409
f 230 61 229
f 230 229 228
f 76 285 286
f 353 352 276
f 74 353 276
f 288 76 286
f 288 286 283
f 289 288 287
f 203 54 201
f 287 288 77
f 77 288 283
f 286 48 283
f 531 423 113
f 276 11 259
f 11 261 259
f 277 276 259
f 616 158 615
f 516 616 615
f 138 516 615
f 138 615 612
f 509 533 532
f 503 502 504
f 635 79 294
f 635 294 404
f 635 637 79
f 637 635 638
f 638 635 108
f 635 404 108
f 226 61 405
f 61 226 227
f 405 61 409
f 227 226 207
f 48 178 179
f 48 286 178
f 173 48 179
f 534 143 533
f 534 535 143
f 531 534 533
f 533 143 532
f 137 531 533
f 261 372 371
f 13 180 178
f 285 13 178
f 180 13 166
f 13 168 166
f 346 345 284
f 331 327 46
f 46 327 172
f 172 327 326
f 382 620 101
f 442 121 448
f 443 121 442
f 2 226 404
f 294 2 404
f 404 226 405
f 207 226 2
f 550 551 145
f 552 146 551
f 143 550 532
f 552 550 143
f 330 329 328
f 24 636 629
f 94 352 353
f 352 11 276
f 113 428 534
f 428 535 534
f 509 41 511
f 535 552 143
f 550 552 551
f 550 542 532
f 369 95 368
f 326 327 87
f 87 327 329
f 327 331 329
f 581 326 87
f 293 79 298
f 79 297 298
f 296 298 78
f 79 293 294
f 296 293 298
f 598 490 38
f 358 280 22
f 280 279 278
f 357 358 95
f 74 357 353
f 330 328 25
f 567 23 559
f 590 598 38
f 590 604 598
f 598 604 155
f 604 590 154
f 590 591 154
f 604 154 606
f 297 299 298
f 299 318 78
f 298 299 78
f 355 354 356
f 629 636 642
f 312 24 629
f 629 642 160
f 370 362 97
f 362 363 97
f 363 366 97
f 364 363 362
f 362 370 351
f 96 363 364
f 297 636 24
f 162 637 638
f 637 297 79
f 490 488 38
f 598 597 490
f 441 442 119
f 443 442 441
f 443 441 5
f 442 448 445
f 296 78 295
f 326 12 172
f 575 574 364
f 47 175 176
f 175 177 176
f 47 176 179
