# FEM surface export ¡ª frame 324
# Vertices: 642  Faces: 1280
v -0.52496684 1.36554587 -0.00018089
v 0.52506196 1.36365485 0.00073159
v -0.61606824 0.00000000 -0.01172155
v 0.59774506 0.00021292 -0.00533655
v 0.00317371 0.08970133 0.93563044
v -0.00107549 1.06150115 0.85986876
v 0.00032091 0.09162369 -0.93921262
v -0.00018423 1.05948019 -0.85866898
v 0.88884556 0.56827790 -0.55038422
v 0.88835233 0.56919706 0.54938591
v -0.88830060 0.56754589 -0.55003846
v -0.88617969 0.56984895 0.54850996
v -0.81798202 1.03535879 0.31248295
v -0.50996083 0.85815716 0.82686371
v -0.30905396 1.32504070 0.49933794
v 0.30916098 1.32472563 0.50053334
v 0.00028784 1.50631666 0.00023550
v 0.30912885 1.32499456 -0.49946457
v -0.30890068 1.32604885 -0.49973747
v -0.51200306 0.85574639 -0.82639378
v -0.81827563 1.03613806 -0.31276280
v -1.04274535 0.56480324 -0.00112118
v 0.51138991 0.85851568 0.82861781
v 0.81837088 1.03374362 0.31238210
v -0.53544569 0.28487483 0.87029600
v 0.00018526 0.56698108 1.04436493
v -0.89218307 0.11167624 -0.33781162
v -0.88885319 0.11596443 0.34431985
v -0.00225120 0.56904513 -1.04414821
v -0.53479946 0.28110942 -0.86661929
v 0.81900787 1.03385746 -0.31237239
v 0.50981939 0.85585672 -0.82684690
v 0.88706136 0.11256205 0.33866853
v 0.53875500 0.28200525 0.86868536
v 0.35263950 0.00000000 0.57648993
v -0.36985600 0.00000000 0.58005607
v -0.00571212 0.00000000 0.00474528
v -0.35686344 0.00000000 -0.56941849
v 0.35726193 0.00000000 -0.57051581
v 0.53960061 0.28220120 -0.87067300
v 0.89474916 0.11163756 -0.33800679
v 1.04650402 0.56817192 -0.00128790
v -0.69506794 1.22506773 0.16078676
v -0.58948499 1.21238315 0.42637673
v -0.43318534 1.37605834 0.25906551
v -0.72165734 0.71985197 0.71523780
v -0.69844484 0.96600401 0.59647995
v -0.88314325 0.81117791 0.44389749
v -0.16148204 1.21685135 0.70376390
v -0.42870811 1.11845982 0.69253200
v -0.26386410 0.97555178 0.87624192
v -0.16157024 1.45953107 0.26210660
v -0.27187720 1.47026730 0.00017024
v 0.16040498 1.21587002 0.70418161
v 0.00003205 1.36354995 0.52513629
v 0.27234572 1.46966612 0.00049124
v 0.16260938 1.45974481 0.26270387
v 0.43361425 1.37484145 0.26007494
v -0.16168340 1.45985520 -0.26185164
v -0.43313825 1.37698197 -0.25935879
v 0.43345132 1.37582088 -0.25919241
v 0.16200843 1.45990109 -0.26194295
v -0.16068222 1.21567690 -0.70320529
v 0.00080571 1.36413884 -0.52483565
v 0.16146995 1.21556544 -0.70395881
v -0.58991337 1.21186364 -0.42627954
v -0.69539303 1.22480822 -0.16129671
v -0.26437646 0.97270918 -0.87429523
v -0.42821386 1.11750174 -0.69272226
v -0.88439476 0.81152076 -0.44542512
v -0.69823182 0.96588570 -0.59650320
v -0.72502488 0.71777743 -0.71598297
v -0.85899568 1.06019890 -0.00018058
v -1.00468695 0.56621987 -0.28639671
v -0.97678453 0.81407958 -0.16802113
v -0.97403371 0.81331486 0.16501935
v -1.00276768 0.56534654 0.28355873
v 0.58986813 1.20890248 0.42709786
v 0.69507796 1.22284293 0.16115043
v 0.26320606 0.97330743 0.87676901
v 0.42758507 1.11638820 0.69312042
v 0.88457930 0.81071770 0.44471064
v 0.69923729 0.96560723 0.59719414
v 0.72516632 0.72019815 0.71519029
v -0.27046585 0.72043717 0.98184466
v -0.00090426 0.82480234 0.98697215
v -0.74093145 0.42107245 0.73362488
v -0.54593199 0.57003224 0.88715863
v 0.00263331 0.31036782 1.02844930
v -0.27614060 0.41560736 1.00765026
v -0.28155437 0.16599515 0.93912560
v -1.01378667 0.31938994 0.17374796
v -0.92046595 0.32805109 0.46362492
v -0.91852373 0.32448122 -0.46349448
v -1.01488650 0.32130226 -0.17515709
v -0.79469371 0.00000000 0.18760355
v -0.94013053 0.09277128 0.00301905
v -0.79366028 0.00000000 -0.18076766
v -0.54941940 0.56686676 -0.88765639
v -0.74009532 0.41432562 -0.73166806
v -0.00142643 0.82403791 -0.98527122
v -0.27273250 0.72025001 -0.98240560
v -0.28289407 0.16776599 -0.94106799
v -0.27779484 0.41473162 -1.00519419
v -0.00007342 0.31595892 -1.02840924
v 0.42884064 1.11527443 -0.69217050
v 0.26406869 0.97186017 -0.87500268
v 0.69535410 1.22253358 -0.16052805
v 0.59019619 1.20913959 -0.42495459
v 0.72376621 0.71803617 -0.71751344
v 0.69922394 0.96469384 -0.59713584
v 0.88565123 0.81071758 -0.44633678
v 0.78910613 0.00000000 0.18554665
v 0.66508472 0.00000000 0.48574215
v 0.50098324 0.00000000 0.29770279
v 0.74439871 0.42066064 0.73642057
v 0.74662030 0.17475505 0.63979393
v 0.92044604 0.32572141 0.46403629
v 0.18391734 0.00000000 0.79687786
v 0.47437280 0.04227122 0.76937270
v 0.28252903 0.17069827 0.94066334
v 0.17293015 0.00000000 0.29847065
v 0.30869034 0.00000000 -0.00394997
v -0.17763272 0.00000000 0.80178690
v -0.00766760 0.00000000 0.61339086
v -0.31462786 0.00000000 0.00159312
v -0.19297171 0.00000000 0.29694808
v -0.51762128 0.00000000 0.29699355
v 0.18445963 0.00000000 -0.29677197
v 0.47393286 0.00000000 -0.28586200
v -0.48737723 0.00000000 -0.30732349
v -0.18206777 0.00000000 -0.29677999
v 0.18093321 0.00000000 -0.79675603
v -0.00564322 0.00000000 -0.60676306
v -0.17935586 0.00000000 -0.79943180
v 0.66975987 0.00000000 -0.48003331
v 0.78570586 0.00000000 -0.18367395
v 0.28393281 0.17010088 -0.94071621
v 0.47303212 0.05211195 -0.77116495
v 0.92195040 0.32328248 -0.46234322
v 0.75046086 0.17567731 -0.64035159
v 0.74449527 0.41831431 -0.73539406
v 0.94157857 0.09535560 0.00040339
v 1.00604236 0.56774563 -0.28800908
v 1.01528227 0.32435477 -0.17430705
v 1.01625216 0.32540032 0.17478217
v 1.00388038 0.56734419 0.28500462
v 0.27927366 0.41750094 1.00439405
v 0.54927969 0.57183051 0.88816684
v 0.27018023 0.72098601 0.98242640
v -0.66904706 0.00075515 0.49105790
v -0.47567585 0.04414720 0.77107269
v -0.75026679 0.18316630 0.64291376
v -0.47452292 0.04093615 -0.77011889
v -0.67267102 0.00000000 -0.48923877
v -0.74672240 0.17060357 -0.63807231
v 0.54741073 0.56719851 -0.88779181
v 0.27764782 0.42043546 -1.00786936
v 0.26999432 0.71971148 -0.98211974
v 0.97577357 0.81208777 0.16572057
v 0.97547930 0.81228882 -0.16641128
v 0.85931367 1.05799186 0.00027501
v -0.61530083 1.30205119 0.08113939
v -0.57049644 1.31026614 0.21260239
v -0.48307684 1.37858117 0.13080180
v -0.71223056 1.13075173 0.37349704
v -0.64854503 1.22553623 0.29637972
v -0.76312733 1.13524032 0.23782030
v -0.37459543 1.35822475 0.38276100
v -0.51572895 1.30101538 0.34587705
v -0.45428956 1.27740669 0.46815103
v -0.81073368 0.64585042 0.63793981
v -0.81309229 0.76881647 0.58685577
v -0.89242840 0.69190758 0.49965352
v -0.61174053 0.91665810 0.71995407
v -0.71705037 0.84586132 0.66169721
v -0.62102729 0.79060721 0.77761036
v -0.85797870 0.92627931 0.38090175
v -0.79836035 0.89228123 0.52530617
v -0.76782727 1.00649834 0.45943728
v -0.08222502 1.14464903 0.78825480
v -0.21515612 1.10274506 0.79890084
v -0.13333401 1.02246344 0.87645358
v -0.37265027 1.22958338 0.60226142
v -0.29771778 1.17419684 0.70509976
v -0.23737200 1.27738976 0.60679132
v -0.39024782 0.92084378 0.85953450
v -0.35019317 1.05208266 0.79164714
v -0.47502604 0.99423981 0.76834708
v -0.65199560 1.09638476 0.51770830
v -0.57073778 1.04917765 0.65318531
v -0.51554030 1.17329288 0.56621182
v -0.35689321 1.43430614 0.13129385
v -0.40181527 1.42557240 0.00021261
v -0.23796666 1.40284228 0.38519570
v -0.30047709 1.42621255 0.26331523
v -0.13715377 1.49827969 0.00018372
v -0.21900696 1.47414649 0.13245870
v -0.08164912 1.49488783 0.13279083
v 0.08088576 1.14371657 0.78802675
v -0.00031226 1.22511148 0.71217132
v 0.15592089 1.35318136 0.51864886
v 0.08096459 1.29719961 0.61962056
v 0.23675673 1.27608466 0.60761195
v -0.08096690 1.29715037 0.61978865
v -0.15611443 1.35470998 0.51846331
v 0.40277311 1.42452002 0.00065818
v 0.35760629 1.43325150 0.13206533
v 0.48357159 1.37710130 0.13137192
v 0.08233322 1.49424970 0.13290825
v 0.21975380 1.47412765 0.13306023
v 0.13768369 1.49768126 0.00035249
v 0.37526536 1.35718906 0.38373497
v 0.30100629 1.42630851 0.26401278
v 0.23824123 1.40168309 0.38596684
v -0.08196473 1.42353928 0.39893577
v 0.08185943 1.42283487 0.39851665
v 0.00019835 1.47199571 0.26548579
v -0.35690174 1.43448246 -0.13116685
v -0.48329940 1.37867498 -0.13078733
v -0.08172011 1.49502468 -0.13235639
v -0.21915430 1.47515845 -0.13225718
v -0.37447861 1.35874915 -0.38295314
v -0.30027106 1.42732584 -0.26304671
v -0.23788895 1.40330839 -0.38509274
v 0.48390529 1.37809384 -0.13034853
v 0.35773012 1.43457079 -0.13080876
v 0.23840982 1.40309250 -0.38517791
v 0.30060175 1.42685938 -0.26307958
v 0.37483183 1.35814273 -0.38278544
v 0.21943526 1.47467601 -0.13191111
v 0.08200125 1.49493301 -0.13242391
v -0.08124833 1.14313602 -0.78793299
v 0.00053446 1.22448969 -0.71290612
v 0.08202722 1.14203048 -0.78797394
v -0.15577163 1.35448587 -0.51816833
v -0.08066683 1.29756939 -0.61990714
v -0.23700438 1.27723610 -0.60680431
v 0.23766591 1.27702653 -0.60724127
v 0.08158872 1.29741168 -0.62038374
v 0.15643066 1.35422933 -0.51830059
v 0.00008335 1.47209620 -0.26525062
v 0.08235951 1.42367411 -0.39808312
v -0.08167962 1.42389774 -0.39844570
v -0.57099807 1.31045139 -0.21326128
v -0.61576182 1.30232096 -0.08115320
v -0.45450968 1.27732182 -0.46875501
v -0.51626062 1.30245697 -0.34641948
v -0.76369685 1.13594878 -0.23880680
v -0.64934045 1.22539186 -0.29685301
v -0.71210182 1.13088989 -0.37410584
v -0.13322100 1.02135670 -0.87459540
v -0.21454729 1.10147810 -0.79842031
v -0.47478285 0.99182665 -0.76741695
v -0.34970641 1.04975891 -0.79106861
v -0.39142460 0.91802013 -0.85790277
v -0.29744178 1.17311871 -0.70571089
v -0.37270021 1.22978783 -0.60286272
v -0.89457852 0.69072312 -0.50190490
v -0.81559193 0.76826161 -0.58801115
v -0.81354243 0.64280170 -0.63912028
v -0.76743877 1.00642741 -0.46021128
v -0.79893607 0.89261174 -0.52624488
v -0.85920078 0.92739803 -0.38219801
v -0.62403089 0.78840506 -0.77828807
v -0.71915770 0.84512049 -0.66199398
v -0.61297584 0.91448057 -0.71980423
v -0.51574844 1.17263222 -0.56712383
v -0.57048589 1.04730213 -0.65358615
v -0.65165788 1.09555256 -0.51729149
v -0.70448935 1.23405516 -0.00006668
v -0.84930074 1.05437911 -0.15871277
v -0.78458101 1.14811301 -0.08200774
v -0.78399342 1.14796770 0.08104579
v -0.84800100 1.05376303 0.15789300
v -0.95536023 0.56768930 -0.42170292
v -0.95542061 0.69031698 -0.37098333
v -1.02046347 0.69135243 -0.08607712
v -0.99875832 0.69128692 -0.22878784
v -1.03338289 0.56658900 -0.14513160
v -0.93962634 0.81532621 -0.30967429
v -0.90716314 0.92949086 -0.24338947
v -0.95477247 0.69063473 0.36861408
v -0.95454842 0.56783098 0.42057425
v -0.90613729 0.92898577 0.24217133
v -0.93836147 0.81538337 0.30770555
v -1.03339124 0.56668508 0.14269732
v -0.99835932 0.69166696 0.22621793
v -1.02159631 0.69145358 0.08330886
v -0.92925960 0.94251609 -0.08428527
v -0.98884624 0.81728882 -0.00046137
v -0.92871487 0.94230157 0.08305363
v 0.57099646 1.30886710 0.21353117
v 0.61508590 1.29951108 0.08138166
v 0.45460743 1.27505815 0.46956164
v 0.51638556 1.29947138 0.34674776
v 0.76330537 1.13333941 0.23890305
v 0.64905906 1.22367942 0.29721043
v 0.71235132 1.12898731 0.37442735
v 0.13193494 1.02177882 0.87692171
v 0.21381336 1.10098195 0.79895616
v 0.47482648 0.99383420 0.76976162
v 0.34869921 1.04967880 0.79205024
v 0.39035177 0.91869652 0.86014909
v 0.29612866 1.17103517 0.70600593
v 0.37225890 1.22739410 0.60306185
v 0.89344084 0.69016087 0.50033432
v 0.81502181 0.76715899 0.58636290
v 0.81255883 0.64443439 0.63766980
v 0.76800299 1.00521195 0.45989454
v 0.79889512 0.89147013 0.52583045
v 0.85937041 0.92571598 0.38133830
v 0.62392843 0.79180503 0.78014016
v 0.71862340 0.84518796 0.66212356
v 0.61339372 0.91666442 0.72117966
v 0.51647747 1.17001081 0.56787270
v 0.57046527 1.04798007 0.65373534
v 0.65226328 1.09437490 0.51796603
v -0.13458921 0.90393907 0.94311440
v -0.00079105 0.94635230 0.93113720
v -0.39549428 0.79216099 0.91475898
v -0.27000555 0.85095954 0.93758827
v -0.00067874 0.69723076 1.02492344
v -0.13660139 0.77381599 0.99391007
v -0.13858339 0.64368397 1.02604485
v -0.82174677 0.49424168 0.64723974
v -0.74011838 0.57088602 0.73354268
v -0.54599172 0.42401254 0.88931125
v -0.64883548 0.49517131 0.81864566
v -0.64468509 0.35100523 0.80927193
v -0.63979894 0.64521539 0.80850744
v -0.53359067 0.71574032 0.86692715
v 0.00264234 0.19001287 0.99135107
v -0.14007762 0.23248108 0.99775630
v -0.14122406 0.12060867 0.94993019
v -0.13853471 0.49041861 1.03795218
v -0.13914958 0.35961422 1.02562881
v -0.00061885 0.43764254 1.04568446
v -0.41338554 0.21937367 0.91140485
v -0.28098983 0.28665507 0.98364335
v -0.40866297 0.34463546 0.95073360
v -0.41261798 0.64438868 0.94625413
v -0.41813934 0.49055013 0.96076387
v -0.27698049 0.56761748 1.00626338
v -0.97682476 0.44609177 0.37870118
v -0.91171044 0.44659376 0.51143783
v -1.04066634 0.44057581 0.08618075
v -1.01930630 0.44234416 0.23049855
v -0.91409707 0.21779644 0.40844160
v -0.97859681 0.32423696 0.32229438
v -0.96427834 0.21180509 0.26122266
v -0.91257185 0.44477043 -0.51243204
v -0.97502893 0.44315100 -0.37996113
v -0.96374255 0.20788153 -0.25787413
v -0.97643554 0.31987995 -0.32313254
v -0.91225964 0.20998807 -0.40608391
v -1.01974154 0.44089139 -0.23493738
v -1.04388332 0.44146541 -0.08870310
v -0.71738946 0.00000000 0.08464506
v -0.80660617 0.00000000 0.00414883
v -0.71397042 0.00000000 -0.09798974
v -0.92867094 0.10581176 0.17858079
v -0.87924242 0.03063947 0.09917733
v -0.85069823 0.03546502 0.26874748
v -0.85364407 0.03032781 -0.26610550
v -0.87494493 0.02616988 -0.08864798
v -0.93023938 0.09488928 -0.17025991
v -1.02939916 0.31778634 -0.00114413
v -0.99501246 0.19868897 -0.09038509
v -0.99465674 0.19899015 0.08843277
v -0.74192035 0.56556904 -0.73242170
v -0.82241428 0.48960891 -0.64597493
v -0.53705543 0.71297598 -0.86656272
v -0.64429021 0.64132679 -0.80869359
v -0.64517874 0.34474364 -0.80625612
v -0.65106565 0.48891604 -0.81949639
v -0.54863524 0.41960749 -0.88913912
v -0.00025839 0.94541740 -0.92965692
v -0.13477927 0.90382642 -0.94165981
v -0.13968952 0.64584541 -1.02595866
v -0.13780707 0.77485675 -0.99289548
v -0.00205265 0.69867176 -1.02469945
v -0.27100635 0.84990847 -0.93661129
v -0.39700210 0.79085827 -0.91391230
v -0.14313050 0.12477650 -0.95236915
v -0.14165200 0.23722886 -0.99684268
v -0.00025593 0.19760150 -0.99386573
v -0.40948904 0.34362578 -0.94882762
v -0.28143540 0.28782016 -0.98087978
v -0.41365787 0.22071801 -0.91395050
v -0.00135949 0.43995345 -1.04753244
v -0.14106360 0.36191386 -1.02575040
v -0.14154962 0.49166599 -1.03745162
v -0.41604269 0.64470083 -0.94814664
v -0.27982977 0.56787169 -1.00640368
v -0.41977769 0.48880380 -0.95916808
v 0.21538018 1.10047758 -0.79835880
v 0.13278848 1.02004802 -0.87547410
v 0.37340450 1.22843313 -0.60246122
v 0.29791522 1.17194462 -0.70509124
v 0.39050478 0.91740024 -0.85865074
v 0.35034609 1.04849434 -0.79039425
v 0.47530445 0.99075198 -0.76703072
v 0.61567384 1.30045784 -0.08064760
v 0.57143158 1.30961978 -0.21233323
v 0.71237904 1.12886703 -0.37247962
v 0.64940625 1.22302926 -0.29566243
v 0.76363522 1.13305628 -0.23747888
v 0.51673543 1.30040002 -0.34537691
v 0.45512140 1.27648294 -0.46879604
v 0.81383264 0.64437288 -0.64048213
v 0.81595641 0.76791894 -0.58946925
v 0.89536142 0.69122022 -0.50309116
v 0.61224931 0.91462958 -0.71969157
v 0.71811163 0.84312975 -0.66271877
v 0.62231237 0.78938711 -0.77960390
v 0.85925120 0.92586404 -0.38258120
v 0.79949015 0.89160943 -0.52718824
v 0.76774210 1.00578952 -0.45981660
v 0.51647162 1.16992271 -0.56592143
v 0.65253323 1.09406340 -0.51679724
v 0.57091564 1.04642713 -0.65270054
v 0.70916271 0.00000000 0.10293579
v 0.65762907 0.00000000 0.25633165
v 0.55639780 0.00000000 0.14137538
v 0.79428929 0.04415735 0.41220671
v 0.73616356 0.00000000 0.33815962
v 0.85625201 0.04231822 0.26318410
v 0.42780870 0.00000000 0.44558430
v 0.59314340 0.00000000 0.40870142
v 0.51895320 0.00000000 0.54289752
v 0.82395929 0.49352807 0.64864314
v 0.84358877 0.36868396 0.60831857
v 0.91212523 0.44613373 0.51319116
v 0.65157115 0.22366756 0.76425648
v 0.75114822 0.29476818 0.69319892
v 0.64624542 0.34795234 0.80798191
v 0.91174150 0.21555482 0.40604648
v 0.84265351 0.24684043 0.55687916
v 0.83009064 0.13813736 0.49784854
v 0.09461165 0.02001049 0.87883210
v 0.24072030 0.05022633 0.88013923
v 0.14709198 0.12207792 0.94675046
v 0.42048582 0.00000000 0.68406540
v 0.33383393 0.00089243 0.78254628
v 0.26465490 0.00000000 0.69353652
v 0.41551411 0.22222002 0.91304845
v 0.38113314 0.09567714 0.86450237
v 0.51320642 0.15115641 0.82823271
v 0.72111762 0.06338890 0.57214350
v 0.61998099 0.09753718 0.70976299
v 0.57687467 0.00000000 0.63620180
v 0.41101101 0.00000000 0.14792293
v 0.45403054 0.00000000 0.00119527
v 0.26715872 0.00000000 0.44610867
v 0.33713907 0.00000000 0.30084899
v 0.15373372 0.00000000 0.00385418
v 0.23685698 0.00000000 0.15134142
v 0.08227947 0.00000000 0.15064338
v -0.09036747 0.02841444 0.88000375
v 0.00435743 0.00000000 0.80885434
v -0.18880562 0.00000000 0.60727584
v -0.09504084 0.00000000 0.71692246
v -0.27412570 0.00000000 0.70089126
v 0.08761228 0.00000000 0.71514165
v 0.17698762 0.00000000 0.60472739
v -0.46736431 0.00000000 -0.00714116
v -0.41922900 0.00000000 0.14659403
v -0.56721216 0.00000000 0.14150350
v -0.10557242 0.00000000 0.15087217
v -0.25885886 0.00000000 0.14383271
v -0.16188362 0.00000000 0.00768021
v -0.44609654 0.00000000 0.44617745
v -0.36014494 0.00000000 0.30251181
v -0.28603640 0.00000000 0.44550759
v 0.08874016 0.00000000 0.46182674
v -0.10082503 0.00000000 0.46275502
v -0.01138799 0.00000000 0.30526063
v 0.39666420 0.00000000 -0.13807981
v 0.53705156 0.00000000 -0.15796044
v 0.09451798 0.00000000 -0.14574108
v 0.24511786 0.00000000 -0.15163879
v 0.42213285 0.00000000 -0.42571661
v 0.33102393 0.00000000 -0.28827682
v 0.27407327 0.00000000 -0.43274960
v -0.55588114 0.00000000 -0.16184378
v -0.40828034 0.00000000 -0.15564950
v -0.27212894 0.00000000 -0.43573898
v -0.34025335 0.00000000 -0.30098113
v -0.42253864 0.00000000 -0.43863112
v -0.25066882 0.00000000 -0.14864498
v -0.09593479 0.00000000 -0.14724649
v 0.09365663 0.02481086 -0.88682652
v -0.00048999 0.00000000 -0.81021690
v -0.08765697 0.02373772 -0.88476723
v 0.17928387 0.00000000 -0.59954011
v 0.09626167 0.00000000 -0.71607924
v 0.28027889 0.00000000 -0.69487470
v -0.28202462 0.00000000 -0.69813961
v -0.09818898 0.00000000 -0.71697205
v -0.18240967 0.00000000 -0.59535146
v -0.00011197 0.00000000 -0.29637095
v -0.09156188 0.00000000 -0.45340401
v 0.09181823 0.00000000 -0.45319214
v 0.65452427 0.00000000 -0.24501015
v 0.70835555 0.00000000 -0.09197422
v 0.51794958 0.00000000 -0.52967668
v 0.57836229 0.00000000 -0.38616064
v 0.85297012 0.04049788 -0.26319170
v 0.73748976 0.00000000 -0.33635962
v 0.79548347 0.04492542 -0.41481918
v 0.14445584 0.12965214 -0.95214927
v 0.23519404 0.05506648 -0.88638777
v 0.51271260 0.15041344 -0.83242190
v 0.37904957 0.10041133 -0.86399823
v 0.41649190 0.22296542 -0.91514605
v 0.33539411 0.00524229 -0.79420584
v 0.42731306 0.00000000 -0.68442094
v 0.91229415 0.44366080 -0.51207823
v 0.84369338 0.36654806 -0.60945493
v 0.82562762 0.49230263 -0.64752144
v 0.82989174 0.13653859 -0.49666935
v 0.84501022 0.24561164 -0.55571544
v 0.91553748 0.21036696 -0.40481114
v 0.64853096 0.34819368 -0.81070626
v 0.75430512 0.29090366 -0.69569540
v 0.65124142 0.22443178 -0.76588899
v 0.58169484 0.01034269 -0.63252282
v 0.62177604 0.10070816 -0.71225274
v 0.72047293 0.06175794 -0.56859392
v 0.79968190 0.00000000 0.00226301
v 0.92962539 0.09265522 -0.17042896
v 0.87835854 0.02499959 -0.09017137
v 0.87588799 0.02791438 0.09239449
v 0.92678660 0.09795230 0.17226033
v 0.95631474 0.56852436 -0.42364007
v 0.97649038 0.44547799 -0.37927791
v 1.04448509 0.44427857 -0.08769959
v 1.02115059 0.44540814 -0.23310699
v 1.03632963 0.56854880 -0.14518571
v 0.97909135 0.32312208 -0.32202113
v 0.96415520 0.20836769 -0.25621340
v 0.97619641 0.44595799 0.38046095
v 0.95559591 0.56857485 0.42074102
v 0.96260440 0.21402419 0.26013899
v 0.97830248 0.32589012 0.32282013
v 1.03403807 0.56738633 0.14389825
v 1.01997197 0.44450462 0.23269695
v 1.04229558 0.44535223 0.08648918
v 0.98961687 0.20155978 -0.08900782
v 1.03229225 0.32241806 0.00104999
v 0.98960155 0.20347990 0.09099977
v 0.14356036 0.23456784 0.99677932
v 0.41347247 0.34830528 0.94939071
v 0.28501353 0.29076567 0.98419106
v 0.14196251 0.36379209 1.02771473
v 0.13991572 0.49034482 1.03688753
v 0.74159586 0.57109141 0.73340815
v 0.53733814 0.71675104 0.87028342
v 0.64417946 0.64721197 0.80994248
v 0.65166122 0.49577913 0.81975609
v 0.54989481 0.42439982 0.88782072
v 0.13321497 0.90255022 0.94293672
v 0.13783811 0.64443934 1.02709472
v 0.13556799 0.77391708 0.99453014
v 0.26947552 0.85075653 0.93898124
v 0.39582574 0.79216856 0.91582280
v 0.42099807 0.49293926 0.95820618
v 0.41440913 0.64617056 0.94963139
v 0.27793881 0.56842774 1.00733137
v -0.66435701 0.00000000 0.23905356
v -0.52871287 0.00000000 0.54424340
v -0.59999847 0.00000000 0.40014285
v -0.73921913 0.00000000 0.34411576
v -0.79152691 0.03933514 0.42036450
v -0.23833054 0.05755991 0.88186157
v -0.51143783 0.15376498 0.82793695
v -0.38181439 0.09893415 0.86173177
v -0.33172485 0.00268505 0.78707981
v -0.42695710 0.00000000 0.69078600
v -0.84176320 0.37227029 0.60734314
v -0.83221936 0.14504677 0.50089741
v -0.84373432 0.25201145 0.55847752
v -0.75274408 0.29783031 0.69629753
v -0.65030843 0.22870253 0.76767093
v -0.58042777 0.00574597 0.64154482
v -0.61874950 0.10305567 0.71138245
v -0.71786183 0.06740078 0.57440627
v -0.23522957 0.06087168 -0.88573813
v -0.43271083 0.00000000 -0.69874001
v -0.33163396 0.00254183 -0.79290712
v -0.38020927 0.09912882 -0.86483580
v -0.50876302 0.15113482 -0.82795358
v -0.65136129 0.00000000 -0.24787535
v -0.79401553 0.03900773 -0.41784859
v -0.74332625 0.00000000 -0.33794981
v -0.58677655 0.00000000 -0.40227097
v -0.51516473 0.00000000 -0.54017365
v -0.84037828 0.36739874 -0.60767889
v -0.64757425 0.22301905 -0.76084852
v -0.75090718 0.28777403 -0.69258565
v -0.84105653 0.24303474 -0.55673182
v -0.82795459 0.13665681 -0.49649075
v -0.58011425 0.00045137 -0.64081049
v -0.71658516 0.05713483 -0.57609129
v -0.61713880 0.10144836 -0.71134585
v 0.74282265 0.56787163 -0.73409641
v 0.55014414 0.42279676 -0.88968986
v 0.65148252 0.49271321 -0.81915164
v 0.64294028 0.64324546 -0.81066513
v 0.53571934 0.71358204 -0.86733490
v 0.14164276 0.23833801 -0.99918288
v 0.13809288 0.49296516 -1.03946531
v 0.13974935 0.36399627 -1.02830350
v 0.28381804 0.29126304 -0.98629910
v 0.41291067 0.34761637 -0.95237470
v 0.13402209 0.90221375 -0.94160676
v 0.39558974 0.78982770 -0.91441435
v 0.26958880 0.84798086 -0.93584585
v 0.13500519 0.77406597 -0.99313653
v 0.13587561 0.64553577 -1.02576125
v 0.41986373 0.49117768 -0.95897692
v 0.27681586 0.56909788 -1.00614846
v 0.41397741 0.64417124 -0.94701439
v 0.95643014 0.69070339 0.37077326
v 1.02291572 0.68995357 0.08561222
v 1.00155723 0.69208306 0.22798058
v 0.93993676 0.81480199 0.30863181
v 0.90813428 0.92806435 0.24194515
v 0.95656949 0.69132793 -0.37161210
v 0.90684700 0.92758107 -0.24352345
v 0.94100392 0.81430739 -0.30948007
v 1.00030792 0.69116515 -0.22847681
v 1.02299392 0.69274920 -0.08492175
v 0.70451331 1.23216748 -0.00006343
v 0.84931856 1.05240762 0.15800025
v 0.78484327 1.14672661 0.08203273
v 0.78424317 1.14553058 -0.08062864
v 0.84873986 1.05109847 -0.15726329
v 0.98801374 0.81515437 0.00041928
v 0.92769903 0.93894631 -0.08390774
v 0.92912960 0.93994081 0.08331139
f 330 87 329
f 336 325 26
f 207 208 56
f 464 36 580
f 502 129 504
f 157 624 622
f 308 311 82
f 247 223 248
f 507 483 508
f 331 88 329
f 494 500 497
f 156 601 602
f 591 589 592
f 365 98 596
f 75 281 282
f 152 587 577
f 149 559 560
f 555 121 553
f 530 141 529
f 515 517 139
f 361 594 98
f 250 67 249
f 157 608 609
f 294 293 209
f 317 81 316
f 557 338 26
f 303 305 81
f 530 529 528
f 101 381 382
f 415 418 111
f 192 184 50
f 412 110 411
f 20 384 256
f 131 594 486
f 281 264 282
f 347 287 348
f 28 349 582
f 165 163 1
f 248 250 66
f 617 107 398
f 273 271 274
f 456 115 453
f 558 561 560
f 335 576 91
f 331 177 332
f 116 433 436
f 351 370 92
f 136 511 530
f 239 240 65
f 247 258 19
f 304 23 567
f 148 557 570
f 214 208 58
f 440 426 450
f 268 270 269
f 258 247 268
f 204 202 16
f 466 125 465
f 517 513 133
f 168 275 274
f 275 73 274
f 198 193 53
f 309 308 307
f 510 511 136
f 415 416 110
f 131 490 597
f 473 475 474
f 414 415 111
f 493 495 494
f 496 504 485
f 433 116 432
f 600 375 601
f 240 234 65
f 418 415 412
f 486 361 3
f 567 566 304
f 380 393 29
f 17 199 197
f 491 492 132
f 451 449 435
f 218 217 216
f 623 621 613
f 396 104 395
f 433 439 436
f 628 160 627
f 215 202 217
f 209 207 2
f 427 113 424
f 434 10 544
f 434 433 432
f 199 17 210
f 150 564 565
f 489 491 132
f 275 13 285
f 497 500 134
f 125 466 476
f 578 152 577
f 208 214 211
f 328 88 343
f 356 27 603
f 150 566 567
f 372 100 371
f 190 191 47
f 235 8 398
f 260 261 72
f 422 403 414
f 422 414 111
f 453 454 123
f 349 583 582
f 521 520 519
f 425 453 115
f 616 622 158
f 483 130 508
f 151 586 572
f 212 17 232
f 400 397 402
f 377 396 99
f 41 522 511
f 510 508 505
f 549 547 42
f 475 473 36
f 510 137 509
f 222 221 197
f 430 115 429
f 220 194 1
f 305 54 204
f 621 29 613
f 192 171 184
f 460 335 5
f 88 331 332
f 74 277 279
f 300 301 80
f 390 389 388
f 165 45 164
f 146 549 551
f 291 278 75
f 448 120 445
f 147 543 544
f 607 610 609
f 603 602 356
f 139 529 514
f 333 553 443
f 92 368 347
f 261 260 259
f 300 6 200
f 46 177 331
f 284 283 174
f 301 300 200
f 471 468 474
f 54 305 301
f 302 304 303
f 569 150 567
f 150 569 570
f 294 209 2
f 628 629 160
f 548 543 147
f 147 625 627
f 63 233 234
f 426 427 114
f 41 509 532
f 198 52 196
f 614 105 612
f 147 627 547
f 81 305 306
f 549 548 547
f 54 301 200
f 342 88 332
f 264 281 70
f 193 194 53
f 455 429 456
f 187 321 14
f 479 130 484
f 147 544 625
f 458 456 453
f 304 80 303
f 314 84 313
f 488 503 501
f 321 332 14
f 423 425 424
f 305 204 306
f 341 339 25
f 514 40 516
f 625 628 627
f 340 339 341
f 105 614 391
f 243 228 62
f 318 316 78
f 75 278 279
f 357 355 353
f 238 257 63
f 466 455 476
f 425 423 4
f 448 449 120
f 408 638 108
f 292 275 285
f 22 278 289
f 515 513 517
f 501 503 134
f 622 623 158
f 134 503 504
f 195 216 206
f 163 271 246
f 619 617 620
f 62 228 229
f 163 165 164
f 453 425 454
f 489 132 488
f 82 628 625
f 58 208 209
f 525 608 40
f 626 547 627
f 518 517 498
f 489 487 491
f 557 26 564
f 325 336 344
f 541 145 539
f 40 616 516
f 338 556 89
f 250 248 245
f 139 514 515
f 98 594 596
f 246 220 1
f 112 413 630
f 9 536 413
f 156 600 601
f 332 177 14
f 321 342 332
f 156 606 600
f 584 330 585
f 302 303 81
f 584 87 330
f 330 25 585
f 400 239 65
f 439 440 117
f 95 358 368
f 597 594 131
f 594 361 486
f 246 67 245
f 561 562 149
f 28 364 362
f 55 216 217
f 427 430 114
f 267 20 254
f 556 555 553
f 84 309 558
f 311 310 312
f 609 525 142
f 256 68 255
f 124 460 461
f 82 311 312
f 307 308 82
f 589 135 495
f 527 40 514
f 112 418 412
f 20 256 254
f 258 238 19
f 267 254 269
f 273 272 249
f 392 391 393
f 137 533 509
f 122 455 456
f 9 413 411
f 130 480 505
f 333 443 5
f 527 525 40
f 589 495 385
f 39 496 485
f 223 225 224
f 414 416 415
f 219 222 53
f 145 538 539
f 413 412 411
f 469 468 467
f 183 181 6
f 191 192 50
f 429 35 431
f 292 285 76
f 413 112 412
f 415 110 412
f 43 164 167
f 467 468 126
f 617 101 620
f 450 451 117
f 438 546 545
f 619 620 159
f 17 212 210
f 124 579 576
f 584 153 583
f 460 124 576
f 3 469 467
f 311 308 314
f 6 320 183
f 389 104 388
f 251 250 249
f 194 165 1
f 291 289 278
f 287 77 348
f 238 258 257
f 139 517 518
f 238 236 19
f 223 247 19
f 382 380 29
f 39 518 498
f 361 359 3
f 69 255 257
f 139 518 528
f 33 545 535
f 387 385 7
f 69 268 269
f 477 462 125
f 454 479 123
f 121 555 447
f 451 435 117
f 454 425 4
f 233 252 8
f 124 463 464
f 69 258 268
f 168 167 166
f 583 153 582
f 384 394 102
f 138 512 513
f 57 210 211
f 254 256 255
f 607 609 142
f 324 319 86
f 289 291 76
f 291 292 76
f 384 102 383
f 422 421 420
f 221 17 197
f 383 102 381
f 376 377 99
f 99 373 374
f 386 105 392
f 438 33 440
f 90 341 343
f 281 75 279
f 574 571 96
f 628 82 312
f 221 222 59
f 127 471 474
f 595 605 603
f 551 538 145
f 334 91 340
f 322 324 85
f 305 303 301
f 18 239 399
f 306 204 16
f 199 198 197
f 166 190 180
f 303 80 301
f 267 266 265
f 626 42 547
f 16 215 213
f 349 351 350
f 295 16 213
f 68 379 252
f 250 251 66
f 627 160 626
f 383 68 256
f 343 88 342
f 507 508 136
f 202 215 16
f 197 198 53
f 254 69 269
f 603 605 156
f 418 419 111
f 384 383 256
f 455 122 476
f 203 204 54
f 556 557 148
f 255 68 253
f 313 84 560
f 25 328 341
f 254 255 69
f 603 156 602
f 581 584 583
f 630 632 112
f 163 246 1
f 246 245 220
f 432 116 558
f 499 591 590
f 320 563 86
f 345 93 350
f 306 16 295
f 346 93 345
f 562 568 149
f 604 605 155
f 154 592 593
f 545 552 535
f 511 522 530
f 574 573 571
f 566 150 565
f 361 98 360
f 67 271 273
f 234 235 65
f 208 211 56
f 574 151 573
f 251 270 66
f 398 8 378
f 213 215 214
f 438 440 439
f 315 314 313
f 263 71 262
f 20 373 384
f 496 134 504
f 329 88 328
f 81 306 316
f 555 556 148
f 592 589 103
f 617 619 107
f 227 207 56
f 571 359 96
f 446 466 465
f 206 216 55
f 359 571 469
f 568 148 570
f 34 437 435
f 28 351 349
f 21 272 282
f 113 423 424
f 490 489 488
f 379 68 383
f 210 212 211
f 80 563 300
f 351 92 350
f 326 346 12
f 83 317 318
f 555 148 554
f 212 231 56
f 218 57 217
f 271 67 246
f 195 196 52
f 270 268 66
f 390 592 103
f 148 568 554
f 495 493 7
f 592 390 593
f 357 95 355
f 574 575 151
f 452 120 451
f 154 591 592
f 587 585 577
f 395 394 396
f 93 349 350
f 610 416 611
f 166 44 190
f 315 23 302
f 315 302 317
f 268 247 66
f 606 154 593
f 396 394 99
f 211 212 56
f 370 369 368
f 235 397 65
f 280 278 22
f 83 315 317
f 575 588 151
f 74 279 280
f 385 495 7
f 63 257 253
f 397 235 398
f 214 58 213
f 220 219 194
f 546 146 545
f 236 225 19
f 599 94 602
f 235 233 8
f 102 394 395
f 611 416 32
f 225 223 19
f 139 528 529
f 231 62 229
f 419 406 421
f 451 450 452
f 49 182 185
f 402 397 107
f 52 199 218
f 416 610 110
f 225 236 244
f 107 397 398
f 68 252 253
f 322 85 321
f 182 181 183
f 118 438 439
f 546 438 118
f 348 77 345
f 543 546 118
f 231 212 232
f 610 611 157
f 33 438 545
f 385 386 103
f 479 480 130
f 169 195 15
f 93 583 349
f 15 195 206
f 190 44 192
f 247 248 66
f 146 552 545
f 248 60 245
f 570 557 564
f 274 271 43
f 63 253 233
f 272 21 249
f 507 528 518
f 67 273 249
f 487 467 126
f 196 195 169
f 624 159 623
f 134 496 497
f 132 503 488
f 104 393 395
f 556 553 89
f 355 356 94
f 258 69 257
f 229 61 227
f 56 231 227
f 460 576 335
f 463 124 461
f 394 373 99
f 29 393 391
f 67 250 245
f 193 198 196
f 462 36 464
f 144 633 630
f 141 526 527
f 517 133 498
f 536 144 630
f 100 372 599
f 144 536 537
f 22 289 287
f 578 579 152
f 579 578 576
f 189 188 187
f 60 223 224
f 92 348 350
f 555 554 447
f 396 377 388
f 194 193 165
f 413 536 630
f 372 352 599
f 377 376 375
f 348 345 350
f 105 386 387
f 240 237 234
f 463 462 464
f 135 500 494
f 45 196 169
f 512 612 387
f 245 60 220
f 429 115 456
f 223 60 248
f 288 289 76
f 525 526 142
f 100 599 601
f 613 29 391
f 526 523 520
f 341 328 343
f 631 641 639
f 264 21 282
f 266 72 265
f 106 402 403
f 73 273 274
f 186 206 205
f 381 379 383
f 52 216 195
f 410 18 399
f 290 272 73
f 72 371 374
f 526 525 527
f 115 430 424
f 498 497 496
f 621 382 29
f 543 118 434
f 214 215 57
f 522 141 530
f 511 510 509
f 352 94 599
f 493 512 7
f 90 340 341
f 169 171 170
f 605 604 606
f 219 60 224
f 104 389 392
f 359 469 3
f 186 49 185
f 222 219 224
f 166 167 44
f 428 427 426
f 523 522 524
f 129 502 481
f 50 185 188
f 164 45 170
f 425 115 424
f 33 428 426
f 427 428 113
f 94 356 602
f 515 138 513
f 114 431 452
f 237 236 238
f 215 217 57
f 95 354 355
f 220 60 219
f 515 514 516
f 183 320 319
f 222 197 53
f 559 569 567
f 300 320 6
f 435 436 117
f 96 360 363
f 640 642 641
f 242 243 62
f 140 537 519
f 508 130 505
f 420 410 399
f 537 539 144
f 317 316 318
f 426 114 450
f 186 15 206
f 311 83 310
f 625 544 307
f 544 10 307
f 168 43 167
f 185 182 188
f 369 354 95
f 44 171 192
f 605 606 156
f 548 549 146
f 100 601 375
f 149 568 569
f 381 380 382
f 455 466 35
f 480 479 454
f 543 548 546
f 493 133 513
f 492 472 37
f 477 125 476
f 491 487 126
f 337 336 338
f 588 153 587
f 576 578 91
f 633 161 632
f 96 359 360
f 39 485 483
f 101 617 378
f 193 45 165
f 163 164 43
f 618 624 611
f 507 136 528
f 561 149 560
f 641 162 639
f 116 561 558
f 494 133 493
f 253 252 233
f 63 237 238
f 392 393 104
f 440 450 117
f 93 581 583
f 386 385 387
f 120 449 451
f 421 422 111
f 486 3 467
f 302 81 317
f 633 632 630
f 462 475 36
f 376 99 374
f 489 490 131
f 447 449 448
f 387 612 105
f 106 420 399
f 173 46 172
f 492 491 472
f 316 306 295
f 22 287 347
f 109 410 420
f 507 39 483
f 559 23 313
f 214 57 211
f 196 45 193
f 10 434 432
f 422 106 403
f 626 160 640
f 487 486 467
f 542 41 532
f 400 106 399
f 444 120 452
f 198 199 52
f 475 127 474
f 621 620 382
f 621 623 159
f 450 114 452
f 92 347 348
f 376 100 375
f 434 118 433
f 503 132 502
f 337 90 336
f 537 536 519
f 395 393 380
f 201 54 200
f 171 44 170
f 355 94 353
f 58 296 213
f 422 420 106
f 595 365 596
f 569 568 570
f 523 140 520
f 114 430 431
f 218 210 57
f 304 566 80
f 639 162 638
f 261 371 72
f 548 147 547
f 498 133 497
f 150 570 564
f 222 224 59
f 142 526 520
f 437 436 435
f 141 522 523
f 137 510 505
f 173 179 176
f 559 149 569
f 121 447 448
f 563 320 300
f 102 395 380
f 257 255 253
f 642 162 641
f 83 311 314
f 216 52 218
f 512 493 513
f 23 304 302
f 91 339 340
f 512 138 612
f 159 620 621
f 218 199 210
f 364 28 575
f 83 318 310
f 168 274 43
f 136 530 528
f 140 523 524
f 495 135 494
f 233 235 234
f 566 563 80
f 25 339 577
f 277 74 276
f 475 462 477
f 133 494 497
f 436 437 116
f 389 386 392
f 548 146 546
f 441 460 5
f 10 309 307
f 65 397 400
f 543 434 544
f 640 641 161
f 272 273 73
f 581 93 346
f 419 421 111
f 319 320 86
f 180 179 178
f 127 475 477
f 231 229 227
f 337 334 340
f 136 508 510
f 308 309 84
f 237 63 234
f 447 554 34
f 252 379 378
f 315 83 314
f 608 622 616
f 338 336 26
f 337 338 89
f 13 275 168
f 209 208 207
f 436 439 117
f 628 312 629
f 360 366 363
f 364 574 96
f 359 361 360
f 466 446 35
f 500 501 134
f 406 109 421
f 135 589 591
f 601 599 602
f 340 90 337
f 481 492 37
f 522 41 524
f 78 316 295
f 131 486 487
f 403 32 414
f 634 626 640
f 151 572 573
f 515 516 138
f 8 252 378
f 265 72 374
f 9 521 519
f 538 549 42
f 368 358 347
f 588 587 586
f 458 453 123
f 589 385 103
f 502 492 481
f 32 416 414
f 430 427 424
f 153 585 587
f 540 144 539
f 370 368 92
f 209 293 58
f 428 33 535
f 326 581 346
f 625 307 82
f 575 28 582
f 6 181 200
f 421 109 420
f 553 121 443
f 160 642 640
f 153 584 585
f 309 432 558
f 334 337 89
f 23 315 313
f 271 163 43
f 296 295 213
f 39 498 496
f 118 439 433
f 531 113 534
f 293 296 58
f 28 362 351
f 489 131 487
f 431 444 452
f 84 558 560
f 98 366 360
f 45 169 170
f 379 101 378
f 462 463 125
f 308 84 314
f 10 432 309
f 299 24 310
f 132 492 502
f 512 387 7
f 639 638 408
f 565 323 86
f 59 244 242
f 106 400 402
f 440 33 426
f 566 565 563
f 617 398 378
f 224 225 59
f 410 109 409
f 239 400 399
f 194 219 53
f 358 22 347
f 610 157 609
f 27 595 603
f 479 484 482
f 142 520 521
f 585 25 577
f 339 578 577
f 408 407 406
f 407 109 406
f 31 408 406
f 407 408 108
f 31 639 408
f 419 31 406
f 608 616 40
f 430 429 431
f 455 35 429
f 35 444 431
f 188 51 187
f 188 182 51
f 51 322 187
f 322 51 319
f 51 182 183
f 319 51 183
f 187 322 321
f 322 319 324
f 381 101 379
f 405 407 108
f 404 405 108
f 286 285 178
f 407 405 409
f 109 407 409
f 191 175 47
f 167 164 170
f 50 184 185
f 44 167 170
f 64 244 236
f 243 244 64
f 50 188 189
f 541 542 145
f 442 445 119
f 339 91 578
f 445 446 119
f 624 623 622
f 611 624 157
f 523 526 141
f 141 527 529
f 527 514 529
f 445 120 444
f 446 445 444
f 35 446 444
f 613 614 158
f 158 614 615
f 623 613 158
f 614 613 391
f 614 612 615
f 371 376 374
f 100 376 371
f 479 482 123
f 373 394 384
f 540 42 634
f 633 540 634
f 538 42 540
f 633 634 161
f 161 634 640
f 42 626 634
f 540 633 144
f 557 556 338
f 553 333 89
f 262 21 264
f 251 21 262
f 5 335 333
f 270 251 262
f 21 251 249
f 600 593 30
f 606 593 600
f 600 30 375
f 593 390 30
f 30 377 375
f 390 388 30
f 30 388 377
f 228 243 241
f 470 478 459
f 470 127 478
f 127 477 478
f 184 186 185
f 478 477 476
f 122 478 476
f 357 74 280
f 518 39 507
f 344 342 85
f 325 344 85
f 342 344 343
f 85 342 321
f 344 90 343
f 90 344 336
f 482 129 481
f 482 481 457
f 482 457 123
f 481 37 457
f 449 447 34
f 435 449 34
f 470 472 471
f 472 470 37
f 470 471 127
f 472 126 471
f 126 468 471
f 470 459 37
f 491 126 472
f 504 129 485
f 221 59 242
f 125 463 465
f 437 34 562
f 561 437 562
f 554 568 562
f 34 554 562
f 437 561 116
f 390 103 389
f 103 386 389
f 392 105 391
f 572 586 580
f 572 580 36
f 586 152 580
f 473 572 36
f 244 243 242
f 225 244 59
f 64 240 241
f 240 239 241
f 237 240 64
f 243 64 241
f 236 237 64
f 411 607 521
f 9 411 521
f 110 607 411
f 607 142 521
f 610 607 110
f 171 15 184
f 171 169 15
f 15 186 184
f 87 584 581
f 153 588 582
f 588 575 582
f 381 102 380
f 573 572 473
f 468 469 128
f 474 468 128
f 469 571 128
f 571 573 128
f 573 473 128
f 473 474 128
f 564 323 565
f 26 323 564
f 323 324 86
f 325 323 26
f 325 324 323
f 563 565 86
f 324 325 85
f 410 230 18
f 230 228 18
f 18 228 241
f 18 241 239
f 401 619 618
f 401 402 107
f 403 402 401
f 619 159 618
f 401 618 32
f 619 401 107
f 403 401 32
f 618 611 32
f 159 624 618
f 478 122 459
f 122 458 459
f 37 459 457
f 459 458 457
f 122 456 458
f 457 458 123
f 191 190 192
f 485 129 484
f 129 482 484
f 483 485 484
f 130 483 484
f 189 187 14
f 191 50 189
f 191 189 175
f 189 14 175
f 14 177 175
f 499 501 500
f 501 499 38
f 38 499 590
f 135 499 500
f 488 501 38
f 499 135 591
f 480 454 4
f 284 12 346
f 4 423 506
f 480 4 506
f 423 531 506
f 480 506 505
f 531 137 506
f 506 137 505
f 365 366 98
f 71 270 262
f 270 71 269
f 71 267 269
f 335 334 333
f 333 334 89
f 334 335 91
f 536 9 519
f 465 463 461
f 537 140 541
f 520 140 519
f 119 446 465
f 465 461 119
f 461 441 119
f 460 441 461
f 176 46 173
f 299 297 24
f 71 263 266
f 263 260 266
f 260 72 266
f 263 70 260
f 205 201 49
f 201 181 49
f 186 205 49
f 181 201 200
f 181 182 49
f 284 77 283
f 586 587 152
f 588 586 151
f 20 267 265
f 266 267 71
f 31 417 631
f 631 417 632
f 31 631 639
f 417 31 419
f 641 631 161
f 417 112 632
f 161 631 632
f 418 417 419
f 417 418 112
f 284 345 77
f 542 550 145
f 542 541 524
f 284 174 12
f 48 174 283
f 373 20 265
f 373 265 374
f 609 608 525
f 608 157 622
f 560 559 313
f 636 637 162
f 541 140 524
f 41 542 524
f 358 357 280
f 70 263 264
f 263 262 264
f 176 177 46
f 174 48 173
f 174 173 172
f 538 551 549
f 538 540 539
f 537 541 539
f 232 221 242
f 17 221 232
f 232 242 62
f 231 232 62
f 203 205 55
f 203 55 202
f 201 205 203
f 202 55 217
f 205 206 55
f 204 203 202
f 73 275 292
f 292 290 73
f 272 290 282
f 290 292 291
f 75 290 291
f 290 75 282
f 70 277 259
f 277 70 281
f 277 281 279
f 260 70 259
f 12 174 172
f 104 396 388
f 367 27 354
f 365 27 367
f 354 27 356
f 365 367 366
f 595 27 365
f 318 299 310
f 155 596 597
f 155 597 598
f 596 594 597
f 595 596 155
f 605 595 155
f 180 47 179
f 180 190 47
f 352 372 11
f 11 372 261
f 312 310 24
f 642 636 162
f 636 297 637
f 367 369 97
f 366 367 97
f 369 367 354
f 369 370 97
f 580 579 464
f 580 152 579
f 579 124 464
f 61 230 409
f 230 410 409
f 230 61 229
f 230 229 228
f 76 285 286
f 353 352 276
f 74 353 276
f 288 76 286
f 288 286 283
f 289 288 287
f 203 54 201
f 287 288 77
f 77 288 283
f 286 48 283
f 531 423 113
f 276 11 259
f 11 261 259
f 277 276 259
f 616 158 615
f 516 616 615
f 138 516 615
f 138 615 612
f 509 533 532
f 503 502 504
f 635 79 294
f 635 294 404
f 635 637 79
f 637 635 638
f 638 635 108
f 635 404 108
f 226 61 405
f 61 226 227
f 405 61 409
f 227 226 207
f 48 178 179
f 48 286 178
f 173 48 179
f 534 143 533
f 534 535 143
f 531 534 533
f 533 143 532
f 137 531 533
f 261 372 371
f 13 180 178
f 285 13 178
f 180 13 166
f 13 168 166
f 346 345 284
f 331 327 46
f 46 327 172
f 172 327 326
f 382 620 101
f 442 121 448
f 443 121 442
f 2 226 404
f 294 2 404
f 404 226 405
f 207 226 2
f 550 551 145
f 552 146 551
f 143 550 532
f 552 550 143
f 330 329 328
f 24 636 629
f 94 352 353
f 352 11 276
f 113 428 534
f 428 535 534
f 509 41 511
f 535 552 143
f 550 552 551
f 550 542 532
f 369 95 368
f 326 327 87
f 87 327 329
f 327 331 329
f 581 326 87
f 293 79 298
f 79 297 298
f 296 298 78
f 79 293 294
f 296 293 298
f 598 490 38
f 358 280 22
f 280 279 278
f 357 358 95
f 74 357 353
f 330 328 25
f 567 23 559
f 590 598 38
f 590 604 598
f 598 604 155
f 604 590 154
f 590 591 154
f 604 154 606
f 297 299 298
f 299 318 78
f 298 299 78
f 355 354 356
f 629 636 642
f 312 24 629
f 629 642 160
f 370 362 97
f 362 363 97
f 363 366 97
f 364 363 362
f 362 370 351
f 96 363 364
f 297 636 24
f 162 637 638
f 637 297 79
f 490 488 38
f 598 597 490
f 441 442 119
f 443 442 441
f 443 441 5
f 442 448 445
f 296 78 295
f 326 12 172
f 575 574 364
f 47 175 176
f 175 177 176
f 47 176 179
