# FEM surface export ¡ª frame 478
# Vertices: 642  Faces: 1280
v -0.51633459 1.00561678 -0.00327925
v 0.51624984 1.00624299 -0.00039255
v -0.57347679 0.22833082 0.02937760
v 0.52702612 0.26683819 0.02841095
v -0.01654188 0.03835567 0.99324626
v 0.00301913 0.74342549 0.86774367
v -0.00527058 0.00733266 -0.96468407
v 0.00063372 0.73785001 -0.86644161
v 0.90400380 0.28549242 -0.56563020
v 0.90972888 0.28390259 0.55644065
v -0.90725470 0.28797448 -0.54825336
v -0.90136373 0.27898529 0.56322175
v -0.82700425 0.71435207 0.31940460
v -0.51877403 0.55136371 0.83914375
v -0.30448517 0.97481310 0.49232438
v 0.30751953 0.97442156 0.49392527
v -0.00041433 1.11763132 -0.00146684
v 0.30565709 0.97460210 -0.49325031
v -0.30674621 0.97352630 -0.49581233
v -0.51667249 0.54282057 -0.83435309
v -0.82498467 0.71156353 -0.31761196
v -1.05278516 0.26516995 0.00250522
v 0.52547419 0.54866850 0.83755380
v 0.82857388 0.71748877 0.31639823
v -0.57170838 0.04535073 0.94191748
v -0.00057019 0.27154261 1.05618346
v -0.90620476 0.01729277 -0.36582786
v -0.93735445 0.00090967 0.32777885
v -0.00023518 0.29205933 -1.07144260
v -0.58024484 0.05662685 -0.93512380
v 0.82579601 0.71737570 -0.31583926
v 0.51643014 0.55235118 -0.83683693
v 0.95957345 0.00370054 0.35962537
v 0.58338481 0.02100570 0.91311109
v 0.32290000 0.11984626 0.51260549
v -0.34556094 0.14371870 0.51463944
v 0.00280845 0.06942065 0.08069318
v -0.31677815 0.04319721 -0.47738391
v 0.32819411 0.07801263 -0.50222206
v 0.57472211 0.04372615 -0.94331282
v 0.95469999 0.01975982 -0.37018737
v 1.06837797 0.27529863 -0.00601675
v -0.69408989 0.88698292 0.15907201
v -0.58758712 0.87733132 0.42470065
v -0.42532903 1.01567006 0.25256482
v -0.73061961 0.41540185 0.72564846
v -0.70808792 0.65151674 0.60381365
v -0.89796889 0.50079566 0.44962800
v -0.15871625 0.88157761 0.70238364
v -0.43166247 0.79531795 0.69658077
v -0.26620385 0.66469443 0.88771170
v -0.15527627 1.08102834 0.25371298
v -0.26345670 1.09048676 -0.00094498
v 0.16119379 0.87990987 0.70190561
v 0.00151686 1.00582993 0.51585579
v 0.26274186 1.09042513 -0.00078045
v 0.15870361 1.08397341 0.25469583
v 0.42662373 1.01540565 0.25458905
v -0.15868871 1.08178198 -0.25797161
v -0.42547333 1.01494825 -0.25722948
v 0.42552644 1.01684713 -0.25500351
v 0.15565255 1.08287239 -0.25761488
v -0.16018747 0.87813640 -0.70274776
v 0.00113656 1.00457549 -0.51855439
v 0.16103710 0.87895221 -0.70242643
v -0.58961749 0.87242442 -0.42702189
v -0.69286495 0.88456202 -0.16324826
v -0.26620960 0.65611732 -0.88387555
v -0.42953014 0.79105014 -0.69719809
v -0.89195228 0.50202221 -0.44465423
v -0.70450711 0.64731503 -0.60558516
v -0.73550349 0.41555586 -0.71931362
v -0.86578262 0.73573983 0.00092911
v -1.02673054 0.29061842 -0.29008168
v -0.98897076 0.50642502 -0.16290325
v -0.98455036 0.49964082 0.17060083
v -1.01807439 0.26691884 0.29215837
v 0.59054190 0.87371457 0.42576772
v 0.69309151 0.88796067 0.16049452
v 0.27124807 0.65944815 0.88785923
v 0.43177363 0.78982741 0.69553858
v 0.90078062 0.50817513 0.45084667
v 0.71109068 0.65267473 0.60291898
v 0.74318302 0.42040861 0.72341710
v -0.27636024 0.42166117 0.99478227
v 0.00009349 0.51937240 1.00193334
v -0.76352280 0.14461075 0.76006991
v -0.55452192 0.27989471 0.89585859
v -0.00266738 0.06957086 1.08492267
v -0.28065059 0.15137379 1.03355241
v -0.32639042 0.00000000 1.02185118
v -1.08128762 0.09179139 0.19086757
v -0.98257476 0.07781672 0.49397919
v -0.98665023 0.09488819 -0.48248696
v -1.08620548 0.10411014 -0.17924592
v -0.76827610 0.07876737 0.12214277
v -0.96368003 0.05851927 -0.03853740
v -0.73461592 0.20122321 -0.19806153
v -0.55983955 0.29035467 -0.90514600
v -0.77752268 0.16923329 -0.76326692
v 0.00069080 0.51965570 -0.99860853
v -0.27624539 0.42142621 -0.99649131
v -0.30595040 0.00000000 -0.99608040
v -0.29222986 0.15212534 -1.04544568
v -0.00718839 0.07089695 -1.08859289
v 0.43112460 0.79391086 -0.69740427
v 0.26737481 0.65760869 -0.88180846
v 0.69391710 0.88743752 -0.16084982
v 0.59010857 0.87628853 -0.42404088
v 0.73491627 0.42951670 -0.72379923
v 0.70756751 0.65531874 -0.60466486
v 0.89834487 0.51060855 -0.45039415
v 0.75704485 0.14482328 0.19884649
v 0.64838153 0.13044012 0.46354422
v 0.41065830 0.23056892 0.28728774
v 0.77644223 0.16204795 0.76912296
v 0.83118415 0.00000000 0.68601811
v 0.97644788 0.10327397 0.47491333
v 0.15762328 0.06231448 0.76886314
v 0.48309866 0.02271859 0.79509676
v 0.30326203 0.00000000 1.02518284
v 0.14299141 0.24557121 0.31064907
v 0.28272924 0.07553473 0.06425145
v -0.20231330 0.08963810 0.75769180
v -0.02154232 0.17390400 0.56361282
v -0.30064899 0.11824576 0.06790030
v -0.18057758 0.11433332 0.31650409
v -0.46918893 0.17648162 0.30737451
v 0.16686064 0.04714890 -0.22068104
v 0.47538885 0.09692229 -0.25168261
v -0.43964055 0.10439152 -0.22952816
v -0.16471347 0.03264339 -0.21012270
v 0.15835890 0.05971625 -0.74589765
v 0.02603594 0.04811613 -0.47974169
v -0.16396493 0.04904770 -0.70682585
v 0.65210724 0.09993901 -0.44075862
v 0.76515085 0.13548480 -0.14528669
v 0.31274974 0.00000000 -1.00652480
v 0.47879863 0.04178710 -0.75269133
v 0.98431885 0.08152948 -0.49558121
v 0.81351548 0.00000000 -0.68966937
v 0.77388221 0.16469632 -0.77614766
v 0.99064350 0.00391503 0.00975017
v 1.02895784 0.28506973 -0.29889780
v 1.07883251 0.08863109 -0.18908487
v 1.06629765 0.07349449 0.17825969
v 1.02813125 0.29259863 0.28549534
v 0.29539233 0.14771308 1.03802776
v 0.56012875 0.28141454 0.90537667
v 0.27508387 0.41953003 0.99765038
v -0.67118078 0.08113711 0.41674867
v -0.50374687 0.07230813 0.75912338
v -0.82269144 0.00000000 0.69096285
v -0.49135685 0.01714880 -0.70856196
v -0.61304259 0.14624625 -0.48768750
v -0.81530648 0.00000000 -0.67382485
v 0.55647582 0.28766075 -0.90232486
v 0.28782541 0.16845633 -1.05327439
v 0.27699187 0.42708522 -0.99502152
v 0.99255687 0.51255679 0.16651815
v 0.98725927 0.50926203 -0.16810727
v 0.86564857 0.73993117 0.00010215
v -0.60887372 0.95437390 0.07859495
v -0.56368148 0.96131212 0.20849545
v -0.47406584 1.01656926 0.12614931
v -0.71547621 0.80502254 0.37577048
v -0.64583850 0.88823354 0.29417244
v -0.76801562 0.80747706 0.23972869
v -0.36773220 1.00141418 0.37506360
v -0.50998265 0.95379668 0.34157616
v -0.44999644 0.93358618 0.46338874
v -0.82214105 0.34751213 0.64682043
v -0.82533985 0.46092322 0.59197265
v -0.90693313 0.38999525 0.50813574
v -0.62180513 0.60547304 0.73055339
v -0.72826552 0.53547567 0.66986597
v -0.63075495 0.48470128 0.78707349
v -0.87064481 0.61130220 0.38898301
v -0.80956054 0.57896757 0.53220457
v -0.77595395 0.69025648 0.46677583
v -0.08012334 0.81728202 0.79123127
v -0.21474886 0.78021359 0.80450064
v -0.13262571 0.70766276 0.88731670
v -0.37036788 0.89224160 0.60028958
v -0.29633316 0.84428614 0.70587796
v -0.23398107 0.93398589 0.60136640
v -0.39622283 0.61366874 0.87224042
v -0.35373598 0.73569971 0.79936767
v -0.48139757 0.68142968 0.77723652
v -0.65559578 0.77406961 0.52073592
v -0.57692027 0.73123729 0.65907979
v -0.51563233 0.84433448 0.56698936
v -0.34823143 1.06141853 0.12625916
v -0.39226979 1.05351686 -0.00177975
v -0.23100963 1.03768301 0.37624359
v -0.29308799 1.05579841 0.25567707
v -0.13300371 1.11387539 -0.00164123
v -0.21085219 1.09246504 0.12782061
v -0.07820772 1.10916376 0.12829931
v 0.08393714 0.81540549 0.78951871
v 0.00150503 0.88854295 0.70981961
v 0.15491459 0.99750394 0.50958854
v 0.08184385 0.94998169 0.61253250
v 0.23731406 0.93200958 0.60171568
v -0.07719070 0.94973940 0.61292017
v -0.15186901 0.99851513 0.50961351
v 0.39329335 1.05553985 -0.00048868
v 0.34830853 1.06231582 0.12843525
v 0.47484118 1.01784301 0.12757234
v 0.07970718 1.10852194 0.12783933
v 0.21319743 1.09476697 0.12935890
v 0.13244034 1.11388254 -0.00127847
v 0.37144968 1.00178552 0.37681797
v 0.29334405 1.05702055 0.25723082
v 0.23444451 1.03769970 0.37678283
v -0.07976280 1.05478191 0.38950387
v 0.08008227 1.05464888 0.38852984
v 0.00019335 1.09163487 0.25666091
v -0.34823322 1.06136608 -0.13039260
v -0.47420201 1.01603472 -0.13068470
v -0.07983090 1.11034513 -0.13042904
v -0.21304122 1.09502101 -0.13024889
v -0.37084529 0.99957544 -0.37929967
v -0.29378861 1.05554724 -0.25924143
v -0.23457874 1.03657746 -0.37983534
v 0.47512445 1.01887059 -0.12870954
v 0.34789744 1.06379724 -0.12952639
v 0.23231027 1.03777444 -0.37876973
v 0.29200366 1.05684268 -0.25844151
v 0.36847419 1.00119936 -0.37741762
v 0.21153173 1.09502017 -0.13013920
v 0.07816533 1.11121786 -0.13055488
v -0.08063839 0.81331503 -0.79089200
v 0.00152161 0.88584149 -0.71184480
v 0.08268439 0.81303924 -0.79149812
v -0.15438503 0.99601752 -0.51253527
v -0.07964813 0.94977951 -0.61656302
v -0.23572008 0.93200284 -0.60381866
v 0.23683819 0.93248260 -0.60282326
v 0.08162721 0.94950062 -0.61583912
v 0.15368754 0.99754524 -0.51196104
v -0.00129608 1.09179628 -0.26006317
v 0.07975812 1.05375445 -0.39047888
v -0.08074856 1.05313313 -0.39217791
v -0.56441271 0.96030760 -0.21373363
v -0.60958153 0.95331663 -0.08280671
v -0.45238176 0.93072748 -0.46773750
v -0.51121527 0.95144224 -0.34543696
v -0.76567888 0.80360228 -0.24205621
v -0.64788765 0.88527858 -0.29771465
v -0.71448529 0.79882497 -0.37764987
v -0.13337900 0.70013326 -0.88318026
v -0.21358396 0.77574575 -0.80334705
v -0.47819543 0.67296720 -0.77641821
v -0.35120651 0.72924024 -0.79853296
v -0.39512402 0.60347915 -0.86821413
v -0.29670519 0.83991325 -0.70806432
v -0.37125102 0.89124745 -0.60324049
v -0.90515882 0.39157042 -0.49694756
v -0.82599574 0.46379888 -0.58790028
v -0.82741207 0.35182676 -0.63822109
v -0.77363110 0.68651754 -0.46693888
v -0.80723763 0.58022529 -0.53215277
v -0.86878502 0.61337459 -0.38701251
v -0.63069910 0.47747615 -0.78343672
v -0.72624815 0.53329778 -0.66925627
v -0.61767429 0.59632975 -0.72636276
v -0.51687795 0.83645529 -0.56863415
v -0.57433867 0.72264773 -0.66186869
v -0.65514535 0.76803392 -0.52268755
v -0.70272374 0.89381891 -0.00184858
v -0.85574126 0.73001742 -0.16063575
v -0.78672451 0.81639510 -0.08434319
v -0.78741592 0.81758052 0.08097118
v -0.85608149 0.73044527 0.16233550
v -0.97164392 0.28208444 -0.42370504
v -0.96607530 0.39139315 -0.36764678
v -1.03148758 0.38520417 -0.08102779
v -1.01111257 0.39535505 -0.22420940
v -1.05342281 0.27547598 -0.14342465
v -0.95139748 0.50981021 -0.31002909
v -0.91832268 0.61416775 -0.24510701
v -0.96692944 0.38498238 0.37582263
v -0.96760821 0.27543017 0.43089536
v -0.91896623 0.61248463 0.24952070
v -0.95097291 0.50058526 0.31350073
v -1.04995573 0.26448324 0.14745718
v -1.00762153 0.38286078 0.23249726
v -1.03369188 0.38538274 0.08763261
v -0.94003564 0.62736285 -0.08277373
v -1.00403440 0.50797743 0.00492123
v -0.93987197 0.62522161 0.08739755
v 0.56423664 0.96178842 0.21010886
v 0.60822660 0.95283580 0.07931408
v 0.45268536 0.93188196 0.46564198
v 0.51301324 0.95206082 0.34242478
v 0.76802129 0.80944782 0.23991433
v 0.64841920 0.88905984 0.29546580
v 0.71750891 0.80547601 0.37639177
v 0.13733014 0.70517629 0.88629431
v 0.21855044 0.77589124 0.80260313
v 0.48390067 0.67739111 0.77709031
v 0.35498697 0.72729492 0.79731107
v 0.40083045 0.60518628 0.87044764
v 0.29703772 0.83871180 0.70522153
v 0.37259427 0.88912302 0.60096973
v 0.90885198 0.39224252 0.50686282
v 0.83054560 0.46308973 0.59258211
v 0.83014596 0.35059893 0.64577103
v 0.77906454 0.69057810 0.46562749
v 0.81253475 0.58219349 0.53242683
v 0.87297279 0.61563152 0.38716429
v 0.64149863 0.48782402 0.79030108
v 0.73485148 0.53791428 0.67054254
v 0.62702578 0.60626328 0.72877836
v 0.51862592 0.83981746 0.56761444
v 0.57715541 0.72811556 0.65800470
v 0.65844345 0.77174920 0.52213055
v -0.13494773 0.59565347 0.95721859
v 0.00168176 0.63633573 0.94327426
v -0.40328974 0.49061266 0.92773128
v -0.27454740 0.54687029 0.95161259
v -0.00148177 0.39687353 1.03904200
v -0.13985859 0.47231096 1.00949478
v -0.14204237 0.34860742 1.03871500
v -0.84344828 0.20539697 0.66659623
v -0.75233495 0.27692753 0.74566156
v -0.56031984 0.15145512 0.92035210
v -0.66108817 0.20731100 0.83510250
v -0.67458183 0.09137287 0.85441703
v -0.64560586 0.34243625 0.81596196
v -0.54103792 0.41233078 0.87305307
v 0.00174150 0.00000000 1.06910372
v -0.14769913 0.00184263 1.07834947
v -0.16979259 0.00313865 1.00504625
v -0.14177059 0.21119797 1.05673552
v -0.14638859 0.10138959 1.06985378
v -0.00330643 0.16122806 1.07272243
v -0.45875704 0.00392144 0.99135697
v -0.29074296 0.04314553 1.04987085
v -0.41681677 0.08328719 1.00049281
v -0.41988853 0.34732863 0.95489317
v -0.43039829 0.20997907 0.98257208
v -0.28351358 0.28381684 1.02292168
v -1.01364601 0.17222133 0.40010121
v -0.94140017 0.16751859 0.53347087
v -1.07765019 0.17144029 0.09196903
v -1.05513406 0.18065603 0.24517934
v -1.00383496 0.00000000 0.42954442
v -1.05240750 0.08410083 0.35070512
v -1.05291021 0.00000000 0.27338696
v -0.95210344 0.18647324 -0.51939398
v -1.01429248 0.18382706 -0.38607717
v -1.05059123 0.00743934 -0.27651757
v -1.03934276 0.07715653 -0.33576345
v -0.98485035 0.00000000 -0.43850780
v -1.06196690 0.18862650 -0.24692410
v -1.08535016 0.17934568 -0.09261108
v -0.66951174 0.13981695 0.08435438
v -0.75475782 0.09360711 -0.05192033
v -0.66160119 0.22311144 -0.07908024
v -0.95076555 0.00956256 0.14659297
v -0.87869835 0.02799475 0.03358337
v -0.85200477 0.09151422 0.23249340
v -0.82887822 0.13449311 -0.28752711
v -0.84440458 0.14935787 -0.11502822
v -0.91370755 0.04655746 -0.18740973
v -1.10189557 0.08353667 0.00283460
v -1.07757127 0.00000000 -0.09968216
v -1.08023632 0.00000000 0.08718880
v -0.75843173 0.28362727 -0.73784316
v -0.85270953 0.22248061 -0.65378422
v -0.54491997 0.41471311 -0.87868237
v -0.65846062 0.34588507 -0.81846690
v -0.68184668 0.09856088 -0.85299629
v -0.67010897 0.22027804 -0.84456360
v -0.56734258 0.16468510 -0.92998350
v 0.00111783 0.63164067 -0.93980235
v -0.13527840 0.59067649 -0.95237249
v -0.13942021 0.35780609 -1.04616106
v -0.13972038 0.47375184 -1.00555336
v -0.00070312 0.40791538 -1.04274178
v -0.27516830 0.54141998 -0.94701815
v -0.40264377 0.48680767 -0.92555767
v -0.15430424 0.00000000 -0.99787116
v -0.15866742 0.01553440 -1.06828058
v -0.00700164 0.00000000 -1.05864525
v -0.43560359 0.09287390 -1.00528157
v -0.30346549 0.04548747 -1.04406250
v -0.45992655 0.00060053 -0.99245441
v -0.00867227 0.18005346 -1.08422649
v -0.15482694 0.10887823 -1.08484733
v -0.14875765 0.22296248 -1.07102954
v -0.42188725 0.35367468 -0.96286291
v -0.28508300 0.28884625 -1.03203201
v -0.42657775 0.22069028 -0.98619080
v 0.21666867 0.77666748 -0.80214763
v 0.13491462 0.70290935 -0.88399529
v 0.37234131 0.89226002 -0.60083878
v 0.29803681 0.84244102 -0.70660108
v 0.39414075 0.60676241 -0.86662239
v 0.35301816 0.73025858 -0.79785973
v 0.47916028 0.67805070 -0.77703631
v 0.60960966 0.95421517 -0.08090495
v 0.56511086 0.96287519 -0.21036345
v 0.71523213 0.80420136 -0.37429535
v 0.64805019 0.88869882 -0.29455215
v 0.76667631 0.80707300 -0.23928617
v 0.51244372 0.95500439 -0.34255403
v 0.45251992 0.93326575 -0.46588796
v 0.82242000 0.35651034 -0.64683843
v 0.82814050 0.47259820 -0.59378630
v 0.90934765 0.39939648 -0.51191080
v 0.62061399 0.60931718 -0.73079336
v 0.72875136 0.54561490 -0.67052764
v 0.63222694 0.49130499 -0.78840727
v 0.86971688 0.61760253 -0.38613513
v 0.81199598 0.58866149 -0.53507406
v 0.77503884 0.69264168 -0.46478233
v 0.51866442 0.84280765 -0.56763691
v 0.65661693 0.77154803 -0.51957792
v 0.57497734 0.72995555 -0.65937287
v 0.64798820 0.20680505 0.11492791
v 0.59201747 0.21364500 0.24787059
v 0.45483401 0.27081054 0.16578865
v 0.80199981 0.05377730 0.40495709
v 0.71827710 0.12697175 0.33091325
v 0.86049008 0.06152389 0.26747027
v 0.36720255 0.09843174 0.39553240
v 0.53711182 0.17169175 0.36417440
v 0.47139454 0.12637477 0.49193764
v 0.84984398 0.21766730 0.66631871
v 0.89012975 0.12566787 0.63743335
v 0.94543481 0.18269044 0.52506083
v 0.72107488 0.00000000 0.82046312
v 0.80843478 0.06801865 0.73904711
v 0.68711084 0.09821604 0.85164332
v 0.98629266 0.00662176 0.44789273
v 0.90946937 0.05923707 0.58585799
v 0.90962338 0.00000000 0.54330558
v 0.06481015 0.04228037 0.87875324
v 0.22653753 0.05018308 0.89871705
v 0.14040098 0.00029932 1.01553869
v 0.39427355 0.10416487 0.65750360
v 0.32178071 0.03591042 0.77926725
v 0.25003251 0.05842498 0.63831234
v 0.45038402 0.00000000 0.98335588
v 0.39630699 0.00100995 0.91785455
v 0.54911590 0.00000000 0.89131397
v 0.73098534 0.09164139 0.57737052
v 0.67322344 0.00073430 0.75690293
v 0.56481957 0.04565328 0.62847322
v 0.39126807 0.10366140 0.20284916
v 0.41736916 0.14393263 0.04819004
v 0.19457002 0.10094535 0.40695024
v 0.28578469 0.12384661 0.32229429
v 0.15644044 0.07137907 0.05360369
v 0.21670820 0.11168361 0.21769834
v 0.09726843 0.12316017 0.18874811
v -0.11682091 0.07834305 0.85719287
v -0.01356585 0.11166091 0.75653952
v -0.18427992 0.16814390 0.56110060
v -0.10625415 0.14321887 0.67197680
v -0.28371006 0.13140278 0.65079153
v 0.08312014 0.12657256 0.65227997
v 0.13483380 0.05417018 0.53076589
v -0.44374493 0.14423820 0.03816555
v -0.38453490 0.24386241 0.16673581
v -0.53505617 0.23155238 0.16730002
v -0.07640435 0.12703378 0.19207491
v -0.22301307 0.23537713 0.18631887
v -0.15274358 0.11412282 0.08930566
v -0.42408237 0.20292918 0.39112398
v -0.31137836 0.15046506 0.27533129
v -0.27850977 0.21844633 0.43759444
v 0.07244796 0.21943754 0.46455306
v -0.09954461 0.23492722 0.43845189
v 0.00921550 0.10268203 0.34248251
v 0.39416641 0.08959370 -0.09389673
v 0.50466490 0.20876053 -0.12642547
v 0.09206474 0.05321199 -0.07557249
v 0.23508660 0.04341879 -0.08877172
v 0.39398041 0.17688504 -0.37723112
v 0.32825840 0.05519157 -0.24603425
v 0.24080589 0.08381505 -0.35645676
v -0.54650873 0.12240241 -0.09180553
v -0.40424585 0.09196118 -0.10835944
v -0.23285352 0.04426525 -0.35247657
v -0.30806530 0.06389175 -0.23039521
v -0.38757282 0.09413544 -0.37358075
v -0.24398069 0.03336756 -0.06367023
v -0.10441618 0.06476004 -0.05683230
v 0.07419930 0.05195137 -0.86999828
v -0.02692705 0.04246741 -0.74548978
v -0.09888069 0.06508703 -0.86475980
v 0.18398535 0.08018164 -0.50643408
v 0.05239346 0.09448474 -0.62238204
v 0.23982179 0.12198010 -0.64929599
v -0.22813129 0.01826682 -0.59839839
v -0.09488847 0.03004053 -0.57297015
v -0.13874422 0.03190095 -0.46895760
v 0.00909017 0.04354934 -0.21586132
v -0.05801860 0.06366151 -0.36434624
v 0.10929704 0.08352496 -0.36449355
v 0.63057154 0.19624813 -0.20177253
v 0.63860774 0.19439608 -0.04496105
v 0.49181589 0.15574314 -0.48134434
v 0.55485249 0.17668113 -0.35116896
v 0.86944699 0.08029088 -0.25744274
v 0.70704198 0.11701208 -0.30952787
v 0.79644519 0.06585605 -0.40650663
v 0.15250956 0.00000000 -1.00578058
v 0.22533107 0.01757550 -0.88665694
v 0.55380058 0.00152996 -0.87638378
v 0.39839911 0.00082677 -0.88130808
v 0.46104008 0.00486812 -0.99092019
v 0.31974486 0.06155478 -0.77147126
v 0.39946318 0.10688385 -0.65057766
v 0.94845951 0.18482763 -0.53586960
v 0.89284509 0.12374748 -0.64657658
v 0.84430456 0.22001591 -0.66920042
v 0.86253774 0.00000000 -0.53527838
v 0.92599356 0.03908994 -0.60400403
v 0.99174327 0.00000000 -0.45354840
v 0.68462139 0.09801800 -0.86563694
v 0.81671119 0.07222639 -0.75467956
v 0.71215302 0.00399982 -0.83312523
v 0.56050861 0.06742360 -0.59438384
v 0.65494579 0.01421204 -0.71843541
v 0.72454131 0.08623321 -0.56476861
v 0.76957977 0.14114466 0.03836582
v 0.97837377 0.03435965 -0.16585881
v 0.86874872 0.08132152 -0.06409714
v 0.88295370 0.07233066 0.12018237
v 0.96627223 0.00846128 0.17796087
v 0.97794372 0.29203734 -0.43880042
v 1.01385176 0.18601669 -0.40231681
v 1.08568811 0.16323321 -0.09507331
v 1.05974340 0.18039270 -0.24911641
v 1.05938983 0.27959830 -0.14941375
v 1.05057931 0.09067634 -0.36003137
v 1.04332173 0.04746493 -0.28524813
v 1.01183486 0.18680993 0.37782517
v 0.97839266 0.28345805 0.42222837
v 1.03226161 0.00000000 0.27821437
v 1.02954078 0.07417278 0.33149192
v 1.05451703 0.28165650 0.14112362
v 1.05612648 0.18142141 0.23224239
v 1.07396305 0.17299823 0.08029900
v 1.08775365 0.00000000 -0.10786615
v 1.10235345 0.06662031 -0.00070816
v 1.07944918 0.00000000 0.09343419
v 0.15983750 0.00387663 1.06977940
v 0.44045410 0.07201127 0.99407703
v 0.31180444 0.05889797 1.05137539
v 0.15162900 0.10652630 1.07490993
v 0.14367810 0.20438667 1.05446565
v 0.75943279 0.28966773 0.74864137
v 0.55000210 0.41482371 0.88421905
v 0.65833819 0.35289064 0.82492363
v 0.67284214 0.21996827 0.84748507
v 0.56937093 0.15336154 0.92366850
v 0.13878070 0.59387428 0.95724541
v 0.13729404 0.34633264 1.03769314
v 0.13901518 0.47084427 1.00761425
v 0.27832279 0.54337776 0.95201659
v 0.40628237 0.48701000 0.92952985
v 0.43299255 0.20364478 0.98447073
v 0.42182872 0.34624317 0.96432829
v 0.28224739 0.27501747 1.02233696
v -0.63252920 0.14071214 0.22724921
v -0.51456124 0.11941019 0.47168463
v -0.59682488 0.17052583 0.35910970
v -0.72549951 0.08270856 0.26686963
v -0.81680429 0.08989443 0.38311264
v -0.26598230 0.02444986 0.88275355
v -0.57469201 0.00000000 0.88730347
v -0.43194783 0.00757911 0.89426786
v -0.35236418 0.09657063 0.74676323
v -0.43685797 0.11375882 0.60924220
v -0.87973249 0.10169389 0.63897842
v -0.89183676 0.00577557 0.51433045
v -0.91438812 0.02571930 0.59952027
v -0.80493820 0.05177391 0.74815547
v -0.71061510 0.00000000 0.83284229
v -0.59815794 0.03584104 0.59812564
v -0.68274516 0.00576705 0.72605646
v -0.76789039 0.01056741 0.55160522
v -0.22696874 0.01462524 -0.84456801
v -0.36418164 0.12436330 -0.61918008
v -0.32876453 0.00500351 -0.69989526
v -0.40138188 0.00026770 -0.84817815
v -0.56234789 0.00000000 -0.88058132
v -0.60705602 0.11854200 -0.21538851
v -0.76606476 0.08865159 -0.42089060
v -0.68978244 0.17933699 -0.34887055
v -0.54219198 0.06000739 -0.36127764
v -0.47345665 0.01772360 -0.47402224
v -0.89198506 0.13578525 -0.64040130
v -0.71247613 0.00076155 -0.82410502
v -0.81012315 0.06988788 -0.75104809
v -0.91095436 0.03007452 -0.59209627
v -0.86051321 0.00000000 -0.54088056
v -0.53292787 0.12450745 -0.61956578
v -0.70963758 0.04812631 -0.59571511
v -0.65345442 0.00000337 -0.73902178
v 0.75521529 0.29392689 -0.74588358
v 0.57199746 0.16785446 -0.92810804
v 0.66907442 0.22365117 -0.84463233
v 0.65480322 0.35971832 -0.82105803
v 0.54471278 0.42174402 -0.87615556
v 0.14850503 0.01812996 -1.06445062
v 0.14221033 0.22636802 -1.07328665
v 0.14031292 0.12085713 -1.07599187
v 0.30301529 0.06160183 -1.05613911
v 0.43596533 0.11805841 -1.01177859
v 0.13839012 0.59418947 -0.95182496
v 0.40305403 0.49089271 -0.92436236
v 0.27570641 0.54315877 -0.94482934
v 0.13924149 0.47680908 -1.00583041
v 0.14015308 0.36055753 -1.04198170
v 0.42962667 0.22917169 -0.98850155
v 0.28240258 0.29631582 -1.03111744
v 0.42203671 0.35910532 -0.96071935
v 0.97472143 0.39842576 0.37710840
v 1.04307926 0.39289623 0.08716610
v 1.02614617 0.40235466 0.23304641
v 0.95522714 0.51422179 0.31225759
v 0.91974336 0.61873925 0.24551252
v 0.97151572 0.39674917 -0.37669247
v 0.91723716 0.62002194 -0.24710011
v 0.95415664 0.51124644 -0.31192145
v 1.01397264 0.39312759 -0.23180206
v 1.03950822 0.39387864 -0.08722561
v 0.70132583 0.89466113 -0.00019081
v 0.85681915 0.73434961 0.15944879
v 0.78685862 0.82102782 0.08295541
v 0.78694171 0.81904143 -0.08135802
v 0.85630983 0.73299116 -0.15844332
v 1.00403368 0.50995207 -0.00056127
v 0.94275033 0.63116395 -0.08467927
v 0.94170696 0.63108796 0.08383854
f 330 87 329
f 336 325 26
f 207 208 56
f 464 36 580
f 502 129 504
f 157 624 622
f 308 311 82
f 247 223 248
f 507 483 508
f 331 88 329
f 494 500 497
f 156 601 602
f 591 589 592
f 365 98 596
f 75 281 282
f 152 587 577
f 149 559 560
f 555 121 553
f 530 141 529
f 515 517 139
f 361 594 98
f 250 67 249
f 157 608 609
f 294 293 209
f 317 81 316
f 557 338 26
f 303 305 81
f 530 529 528
f 101 381 382
f 415 418 111
f 192 184 50
f 412 110 411
f 20 384 256
f 131 594 486
f 281 264 282
f 347 287 348
f 28 349 582
f 165 163 1
f 248 250 66
f 617 107 398
f 273 271 274
f 456 115 453
f 558 561 560
f 335 576 91
f 331 177 332
f 116 433 436
f 351 370 92
f 136 511 530
f 239 240 65
f 247 258 19
f 304 23 567
f 148 557 570
f 214 208 58
f 440 426 450
f 268 270 269
f 258 247 268
f 204 202 16
f 466 125 465
f 517 513 133
f 168 275 274
f 275 73 274
f 198 193 53
f 309 308 307
f 510 511 136
f 415 416 110
f 131 490 597
f 473 475 474
f 414 415 111
f 493 495 494
f 496 504 485
f 433 116 432
f 600 375 601
f 240 234 65
f 418 415 412
f 486 361 3
f 567 566 304
f 380 393 29
f 17 199 197
f 491 492 132
f 451 449 435
f 218 217 216
f 623 621 613
f 396 104 395
f 433 439 436
f 628 160 627
f 215 202 217
f 209 207 2
f 427 113 424
f 434 10 544
f 434 433 432
f 199 17 210
f 150 564 565
f 489 491 132
f 275 13 285
f 497 500 134
f 125 466 476
f 578 152 577
f 208 214 211
f 328 88 343
f 356 27 603
f 150 566 567
f 372 100 371
f 190 191 47
f 235 8 398
f 260 261 72
f 422 403 414
f 422 414 111
f 453 454 123
f 349 583 582
f 521 520 519
f 425 453 115
f 616 622 158
f 483 130 508
f 151 586 572
f 212 17 232
f 400 397 402
f 377 396 99
f 41 522 511
f 510 508 505
f 549 547 42
f 475 473 36
f 510 137 509
f 222 221 197
f 430 115 429
f 220 194 1
f 305 54 204
f 621 29 613
f 192 171 184
f 460 335 5
f 88 331 332
f 74 277 279
f 300 301 80
f 390 389 388
f 165 45 164
f 146 549 551
f 291 278 75
f 448 120 445
f 147 543 544
f 607 610 609
f 603 602 356
f 139 529 514
f 333 553 443
f 92 368 347
f 261 260 259
f 300 6 200
f 46 177 331
f 284 283 174
f 301 300 200
f 471 468 474
f 54 305 301
f 302 304 303
f 569 150 567
f 150 569 570
f 294 209 2
f 628 629 160
f 548 543 147
f 147 625 627
f 63 233 234
f 426 427 114
f 41 509 532
f 198 52 196
f 614 105 612
f 147 627 547
f 81 305 306
f 549 548 547
f 54 301 200
f 342 88 332
f 264 281 70
f 193 194 53
f 455 429 456
f 187 321 14
f 479 130 484
f 147 544 625
f 458 456 453
f 304 80 303
f 314 84 313
f 488 503 501
f 321 332 14
f 423 425 424
f 305 204 306
f 341 339 25
f 514 40 516
f 625 628 627
f 340 339 341
f 105 614 391
f 243 228 62
f 318 316 78
f 75 278 279
f 357 355 353
f 238 257 63
f 466 455 476
f 425 423 4
f 448 449 120
f 408 638 108
f 292 275 285
f 22 278 289
f 515 513 517
f 501 503 134
f 622 623 158
f 134 503 504
f 195 216 206
f 163 271 246
f 619 617 620
f 62 228 229
f 163 165 164
f 453 425 454
f 489 132 488
f 82 628 625
f 58 208 209
f 525 608 40
f 626 547 627
f 518 517 498
f 489 487 491
f 557 26 564
f 325 336 344
f 541 145 539
f 40 616 516
f 338 556 89
f 250 248 245
f 139 514 515
f 98 594 596
f 246 220 1
f 112 413 630
f 9 536 413
f 156 600 601
f 332 177 14
f 321 342 332
f 156 606 600
f 584 330 585
f 302 303 81
f 584 87 330
f 330 25 585
f 400 239 65
f 439 440 117
f 95 358 368
f 597 594 131
f 594 361 486
f 246 67 245
f 561 562 149
f 28 364 362
f 55 216 217
f 427 430 114
f 267 20 254
f 556 555 553
f 84 309 558
f 311 310 312
f 609 525 142
f 256 68 255
f 124 460 461
f 82 311 312
f 307 308 82
f 589 135 495
f 527 40 514
f 112 418 412
f 20 256 254
f 258 238 19
f 267 254 269
f 273 272 249
f 392 391 393
f 137 533 509
f 122 455 456
f 9 413 411
f 130 480 505
f 333 443 5
f 527 525 40
f 589 495 385
f 39 496 485
f 223 225 224
f 414 416 415
f 219 222 53
f 145 538 539
f 413 412 411
f 469 468 467
f 183 181 6
f 191 192 50
f 429 35 431
f 292 285 76
f 413 112 412
f 415 110 412
f 43 164 167
f 467 468 126
f 617 101 620
f 450 451 117
f 438 546 545
f 619 620 159
f 17 212 210
f 124 579 576
f 584 153 583
f 460 124 576
f 3 469 467
f 311 308 314
f 6 320 183
f 389 104 388
f 251 250 249
f 194 165 1
f 291 289 278
f 287 77 348
f 238 258 257
f 139 517 518
f 238 236 19
f 223 247 19
f 382 380 29
f 39 518 498
f 361 359 3
f 69 255 257
f 139 518 528
f 33 545 535
f 387 385 7
f 69 268 269
f 477 462 125
f 454 479 123
f 121 555 447
f 451 435 117
f 454 425 4
f 233 252 8
f 124 463 464
f 69 258 268
f 168 167 166
f 583 153 582
f 384 394 102
f 138 512 513
f 57 210 211
f 254 256 255
f 607 609 142
f 324 319 86
f 289 291 76
f 291 292 76
f 384 102 383
f 422 421 420
f 221 17 197
f 383 102 381
f 376 377 99
f 99 373 374
f 386 105 392
f 438 33 440
f 90 341 343
f 281 75 279
f 574 571 96
f 628 82 312
f 221 222 59
f 127 471 474
f 595 605 603
f 551 538 145
f 334 91 340
f 322 324 85
f 305 303 301
f 18 239 399
f 306 204 16
f 199 198 197
f 166 190 180
f 303 80 301
f 267 266 265
f 626 42 547
f 16 215 213
f 349 351 350
f 295 16 213
f 68 379 252
f 250 251 66
f 627 160 626
f 383 68 256
f 343 88 342
f 507 508 136
f 202 215 16
f 197 198 53
f 254 69 269
f 603 605 156
f 418 419 111
f 384 383 256
f 455 122 476
f 203 204 54
f 556 557 148
f 255 68 253
f 313 84 560
f 25 328 341
f 254 255 69
f 603 156 602
f 581 584 583
f 630 632 112
f 163 246 1
f 246 245 220
f 432 116 558
f 499 591 590
f 320 563 86
f 345 93 350
f 306 16 295
f 346 93 345
f 562 568 149
f 604 605 155
f 154 592 593
f 545 552 535
f 511 522 530
f 574 573 571
f 566 150 565
f 361 98 360
f 67 271 273
f 234 235 65
f 208 211 56
f 574 151 573
f 251 270 66
f 398 8 378
f 213 215 214
f 438 440 439
f 315 314 313
f 263 71 262
f 20 373 384
f 496 134 504
f 329 88 328
f 81 306 316
f 555 556 148
f 592 589 103
f 617 619 107
f 227 207 56
f 571 359 96
f 446 466 465
f 206 216 55
f 359 571 469
f 568 148 570
f 34 437 435
f 28 351 349
f 21 272 282
f 113 423 424
f 490 489 488
f 379 68 383
f 210 212 211
f 80 563 300
f 351 92 350
f 326 346 12
f 83 317 318
f 555 148 554
f 212 231 56
f 218 57 217
f 271 67 246
f 195 196 52
f 270 268 66
f 390 592 103
f 148 568 554
f 495 493 7
f 592 390 593
f 357 95 355
f 574 575 151
f 452 120 451
f 154 591 592
f 587 585 577
f 395 394 396
f 93 349 350
f 610 416 611
f 166 44 190
f 315 23 302
f 315 302 317
f 268 247 66
f 606 154 593
f 396 394 99
f 211 212 56
f 370 369 368
f 235 397 65
f 280 278 22
f 83 315 317
f 575 588 151
f 74 279 280
f 385 495 7
f 63 257 253
f 397 235 398
f 214 58 213
f 220 219 194
f 546 146 545
f 236 225 19
f 599 94 602
f 235 233 8
f 102 394 395
f 611 416 32
f 225 223 19
f 139 528 529
f 231 62 229
f 419 406 421
f 451 450 452
f 49 182 185
f 402 397 107
f 52 199 218
f 416 610 110
f 225 236 244
f 107 397 398
f 68 252 253
f 322 85 321
f 182 181 183
f 118 438 439
f 546 438 118
f 348 77 345
f 543 546 118
f 231 212 232
f 610 611 157
f 33 438 545
f 385 386 103
f 479 480 130
f 169 195 15
f 93 583 349
f 15 195 206
f 190 44 192
f 247 248 66
f 146 552 545
f 248 60 245
f 570 557 564
f 274 271 43
f 63 253 233
f 272 21 249
f 507 528 518
f 67 273 249
f 487 467 126
f 196 195 169
f 624 159 623
f 134 496 497
f 132 503 488
f 104 393 395
f 556 553 89
f 355 356 94
f 258 69 257
f 229 61 227
f 56 231 227
f 460 576 335
f 463 124 461
f 394 373 99
f 29 393 391
f 67 250 245
f 193 198 196
f 462 36 464
f 144 633 630
f 141 526 527
f 517 133 498
f 536 144 630
f 100 372 599
f 144 536 537
f 22 289 287
f 578 579 152
f 579 578 576
f 189 188 187
f 60 223 224
f 92 348 350
f 555 554 447
f 396 377 388
f 194 193 165
f 413 536 630
f 372 352 599
f 377 376 375
f 348 345 350
f 105 386 387
f 240 237 234
f 463 462 464
f 135 500 494
f 45 196 169
f 512 612 387
f 245 60 220
f 429 115 456
f 223 60 248
f 288 289 76
f 525 526 142
f 100 599 601
f 613 29 391
f 526 523 520
f 341 328 343
f 631 641 639
f 264 21 282
f 266 72 265
f 106 402 403
f 73 273 274
f 186 206 205
f 381 379 383
f 52 216 195
f 410 18 399
f 290 272 73
f 72 371 374
f 526 525 527
f 115 430 424
f 498 497 496
f 621 382 29
f 543 118 434
f 214 215 57
f 522 141 530
f 511 510 509
f 352 94 599
f 493 512 7
f 90 340 341
f 169 171 170
f 605 604 606
f 219 60 224
f 104 389 392
f 359 469 3
f 186 49 185
f 222 219 224
f 166 167 44
f 428 427 426
f 523 522 524
f 129 502 481
f 50 185 188
f 164 45 170
f 425 115 424
f 33 428 426
f 427 428 113
f 94 356 602
f 515 138 513
f 114 431 452
f 237 236 238
f 215 217 57
f 95 354 355
f 220 60 219
f 515 514 516
f 183 320 319
f 222 197 53
f 559 569 567
f 300 320 6
f 435 436 117
f 96 360 363
f 640 642 641
f 242 243 62
f 140 537 519
f 508 130 505
f 420 410 399
f 537 539 144
f 317 316 318
f 426 114 450
f 186 15 206
f 311 83 310
f 625 544 307
f 544 10 307
f 168 43 167
f 185 182 188
f 369 354 95
f 44 171 192
f 605 606 156
f 548 549 146
f 100 601 375
f 149 568 569
f 381 380 382
f 455 466 35
f 480 479 454
f 543 548 546
f 493 133 513
f 492 472 37
f 477 125 476
f 491 487 126
f 337 336 338
f 588 153 587
f 576 578 91
f 633 161 632
f 96 359 360
f 39 485 483
f 101 617 378
f 193 45 165
f 163 164 43
f 618 624 611
f 507 136 528
f 561 149 560
f 641 162 639
f 116 561 558
f 494 133 493
f 253 252 233
f 63 237 238
f 392 393 104
f 440 450 117
f 93 581 583
f 386 385 387
f 120 449 451
f 421 422 111
f 486 3 467
f 302 81 317
f 633 632 630
f 462 475 36
f 376 99 374
f 489 490 131
f 447 449 448
f 387 612 105
f 106 420 399
f 173 46 172
f 492 491 472
f 316 306 295
f 22 287 347
f 109 410 420
f 507 39 483
f 559 23 313
f 214 57 211
f 196 45 193
f 10 434 432
f 422 106 403
f 626 160 640
f 487 486 467
f 542 41 532
f 400 106 399
f 444 120 452
f 198 199 52
f 475 127 474
f 621 620 382
f 621 623 159
f 450 114 452
f 92 347 348
f 376 100 375
f 434 118 433
f 503 132 502
f 337 90 336
f 537 536 519
f 395 393 380
f 201 54 200
f 171 44 170
f 355 94 353
f 58 296 213
f 422 420 106
f 595 365 596
f 569 568 570
f 523 140 520
f 114 430 431
f 218 210 57
f 304 566 80
f 639 162 638
f 261 371 72
f 548 147 547
f 498 133 497
f 150 570 564
f 222 224 59
f 142 526 520
f 437 436 435
f 141 522 523
f 137 510 505
f 173 179 176
f 559 149 569
f 121 447 448
f 563 320 300
f 102 395 380
f 257 255 253
f 642 162 641
f 83 311 314
f 216 52 218
f 512 493 513
f 23 304 302
f 91 339 340
f 512 138 612
f 159 620 621
f 218 199 210
f 364 28 575
f 83 318 310
f 168 274 43
f 136 530 528
f 140 523 524
f 495 135 494
f 233 235 234
f 566 563 80
f 25 339 577
f 277 74 276
f 475 462 477
f 133 494 497
f 436 437 116
f 389 386 392
f 548 146 546
f 441 460 5
f 10 309 307
f 65 397 400
f 543 434 544
f 640 641 161
f 272 273 73
f 581 93 346
f 419 421 111
f 319 320 86
f 180 179 178
f 127 475 477
f 231 229 227
f 337 334 340
f 136 508 510
f 308 309 84
f 237 63 234
f 447 554 34
f 252 379 378
f 315 83 314
f 608 622 616
f 338 336 26
f 337 338 89
f 13 275 168
f 209 208 207
f 436 439 117
f 628 312 629
f 360 366 363
f 364 574 96
f 359 361 360
f 466 446 35
f 500 501 134
f 406 109 421
f 135 589 591
f 601 599 602
f 340 90 337
f 481 492 37
f 522 41 524
f 78 316 295
f 131 486 487
f 403 32 414
f 634 626 640
f 151 572 573
f 515 516 138
f 8 252 378
f 265 72 374
f 9 521 519
f 538 549 42
f 368 358 347
f 588 587 586
f 458 453 123
f 589 385 103
f 502 492 481
f 32 416 414
f 430 427 424
f 153 585 587
f 540 144 539
f 370 368 92
f 209 293 58
f 428 33 535
f 326 581 346
f 625 307 82
f 575 28 582
f 6 181 200
f 421 109 420
f 553 121 443
f 160 642 640
f 153 584 585
f 309 432 558
f 334 337 89
f 23 315 313
f 271 163 43
f 296 295 213
f 39 498 496
f 118 439 433
f 531 113 534
f 293 296 58
f 28 362 351
f 489 131 487
f 431 444 452
f 84 558 560
f 98 366 360
f 45 169 170
f 379 101 378
f 462 463 125
f 308 84 314
f 10 432 309
f 299 24 310
f 132 492 502
f 512 387 7
f 639 638 408
f 565 323 86
f 59 244 242
f 106 400 402
f 440 33 426
f 566 565 563
f 617 398 378
f 224 225 59
f 410 109 409
f 239 400 399
f 194 219 53
f 358 22 347
f 610 157 609
f 27 595 603
f 479 484 482
f 142 520 521
f 585 25 577
f 339 578 577
f 408 407 406
f 407 109 406
f 31 408 406
f 407 408 108
f 31 639 408
f 419 31 406
f 608 616 40
f 430 429 431
f 455 35 429
f 35 444 431
f 188 51 187
f 188 182 51
f 51 322 187
f 322 51 319
f 51 182 183
f 319 51 183
f 187 322 321
f 322 319 324
f 381 101 379
f 405 407 108
f 404 405 108
f 286 285 178
f 407 405 409
f 109 407 409
f 191 175 47
f 167 164 170
f 50 184 185
f 44 167 170
f 64 244 236
f 243 244 64
f 50 188 189
f 541 542 145
f 442 445 119
f 339 91 578
f 445 446 119
f 624 623 622
f 611 624 157
f 523 526 141
f 141 527 529
f 527 514 529
f 445 120 444
f 446 445 444
f 35 446 444
f 613 614 158
f 158 614 615
f 623 613 158
f 614 613 391
f 614 612 615
f 371 376 374
f 100 376 371
f 479 482 123
f 373 394 384
f 540 42 634
f 633 540 634
f 538 42 540
f 633 634 161
f 161 634 640
f 42 626 634
f 540 633 144
f 557 556 338
f 553 333 89
f 262 21 264
f 251 21 262
f 5 335 333
f 270 251 262
f 21 251 249
f 600 593 30
f 606 593 600
f 600 30 375
f 593 390 30
f 30 377 375
f 390 388 30
f 30 388 377
f 228 243 241
f 470 478 459
f 470 127 478
f 127 477 478
f 184 186 185
f 478 477 476
f 122 478 476
f 357 74 280
f 518 39 507
f 344 342 85
f 325 344 85
f 342 344 343
f 85 342 321
f 344 90 343
f 90 344 336
f 482 129 481
f 482 481 457
f 482 457 123
f 481 37 457
f 449 447 34
f 435 449 34
f 470 472 471
f 472 470 37
f 470 471 127
f 472 126 471
f 126 468 471
f 470 459 37
f 491 126 472
f 504 129 485
f 221 59 242
f 125 463 465
f 437 34 562
f 561 437 562
f 554 568 562
f 34 554 562
f 437 561 116
f 390 103 389
f 103 386 389
f 392 105 391
f 572 586 580
f 572 580 36
f 586 152 580
f 473 572 36
f 244 243 242
f 225 244 59
f 64 240 241
f 240 239 241
f 237 240 64
f 243 64 241
f 236 237 64
f 411 607 521
f 9 411 521
f 110 607 411
f 607 142 521
f 610 607 110
f 171 15 184
f 171 169 15
f 15 186 184
f 87 584 581
f 153 588 582
f 588 575 582
f 381 102 380
f 573 572 473
f 468 469 128
f 474 468 128
f 469 571 128
f 571 573 128
f 573 473 128
f 473 474 128
f 564 323 565
f 26 323 564
f 323 324 86
f 325 323 26
f 325 324 323
f 563 565 86
f 324 325 85
f 410 230 18
f 230 228 18
f 18 228 241
f 18 241 239
f 401 619 618
f 401 402 107
f 403 402 401
f 619 159 618
f 401 618 32
f 619 401 107
f 403 401 32
f 618 611 32
f 159 624 618
f 478 122 459
f 122 458 459
f 37 459 457
f 459 458 457
f 122 456 458
f 457 458 123
f 191 190 192
f 485 129 484
f 129 482 484
f 483 485 484
f 130 483 484
f 189 187 14
f 191 50 189
f 191 189 175
f 189 14 175
f 14 177 175
f 499 501 500
f 501 499 38
f 38 499 590
f 135 499 500
f 488 501 38
f 499 135 591
f 480 454 4
f 284 12 346
f 4 423 506
f 480 4 506
f 423 531 506
f 480 506 505
f 531 137 506
f 506 137 505
f 365 366 98
f 71 270 262
f 270 71 269
f 71 267 269
f 335 334 333
f 333 334 89
f 334 335 91
f 536 9 519
f 465 463 461
f 537 140 541
f 520 140 519
f 119 446 465
f 465 461 119
f 461 441 119
f 460 441 461
f 176 46 173
f 299 297 24
f 71 263 266
f 263 260 266
f 260 72 266
f 263 70 260
f 205 201 49
f 201 181 49
f 186 205 49
f 181 201 200
f 181 182 49
f 284 77 283
f 586 587 152
f 588 586 151
f 20 267 265
f 266 267 71
f 31 417 631
f 631 417 632
f 31 631 639
f 417 31 419
f 641 631 161
f 417 112 632
f 161 631 632
f 418 417 419
f 417 418 112
f 284 345 77
f 542 550 145
f 542 541 524
f 284 174 12
f 48 174 283
f 373 20 265
f 373 265 374
f 609 608 525
f 608 157 622
f 560 559 313
f 636 637 162
f 541 140 524
f 41 542 524
f 358 357 280
f 70 263 264
f 263 262 264
f 176 177 46
f 174 48 173
f 174 173 172
f 538 551 549
f 538 540 539
f 537 541 539
f 232 221 242
f 17 221 232
f 232 242 62
f 231 232 62
f 203 205 55
f 203 55 202
f 201 205 203
f 202 55 217
f 205 206 55
f 204 203 202
f 73 275 292
f 292 290 73
f 272 290 282
f 290 292 291
f 75 290 291
f 290 75 282
f 70 277 259
f 277 70 281
f 277 281 279
f 260 70 259
f 12 174 172
f 104 396 388
f 367 27 354
f 365 27 367
f 354 27 356
f 365 367 366
f 595 27 365
f 318 299 310
f 155 596 597
f 155 597 598
f 596 594 597
f 595 596 155
f 605 595 155
f 180 47 179
f 180 190 47
f 352 372 11
f 11 372 261
f 312 310 24
f 642 636 162
f 636 297 637
f 367 369 97
f 366 367 97
f 369 367 354
f 369 370 97
f 580 579 464
f 580 152 579
f 579 124 464
f 61 230 409
f 230 410 409
f 230 61 229
f 230 229 228
f 76 285 286
f 353 352 276
f 74 353 276
f 288 76 286
f 288 286 283
f 289 288 287
f 203 54 201
f 287 288 77
f 77 288 283
f 286 48 283
f 531 423 113
f 276 11 259
f 11 261 259
f 277 276 259
f 616 158 615
f 516 616 615
f 138 516 615
f 138 615 612
f 509 533 532
f 503 502 504
f 635 79 294
f 635 294 404
f 635 637 79
f 637 635 638
f 638 635 108
f 635 404 108
f 226 61 405
f 61 226 227
f 405 61 409
f 227 226 207
f 48 178 179
f 48 286 178
f 173 48 179
f 534 143 533
f 534 535 143
f 531 534 533
f 533 143 532
f 137 531 533
f 261 372 371
f 13 180 178
f 285 13 178
f 180 13 166
f 13 168 166
f 346 345 284
f 331 327 46
f 46 327 172
f 172 327 326
f 382 620 101
f 442 121 448
f 443 121 442
f 2 226 404
f 294 2 404
f 404 226 405
f 207 226 2
f 550 551 145
f 552 146 551
f 143 550 532
f 552 550 143
f 330 329 328
f 24 636 629
f 94 352 353
f 352 11 276
f 113 428 534
f 428 535 534
f 509 41 511
f 535 552 143
f 550 552 551
f 550 542 532
f 369 95 368
f 326 327 87
f 87 327 329
f 327 331 329
f 581 326 87
f 293 79 298
f 79 297 298
f 296 298 78
f 79 293 294
f 296 293 298
f 598 490 38
f 358 280 22
f 280 279 278
f 357 358 95
f 74 357 353
f 330 328 25
f 567 23 559
f 590 598 38
f 590 604 598
f 598 604 155
f 604 590 154
f 590 591 154
f 604 154 606
f 297 299 298
f 299 318 78
f 298 299 78
f 355 354 356
f 629 636 642
f 312 24 629
f 629 642 160
f 370 362 97
f 362 363 97
f 363 366 97
f 364 363 362
f 362 370 351
f 96 363 364
f 297 636 24
f 162 637 638
f 637 297 79
f 490 488 38
f 598 597 490
f 441 442 119
f 443 442 441
f 443 441 5
f 442 448 445
f 296 78 295
f 326 12 172
f 575 574 364
f 47 175 176
f 175 177 176
f 47 176 179
