# FEM surface export ¡ª frame 536
# Vertices: 642  Faces: 1280
v -0.51749152 0.91323191 0.00106934
v 0.51745129 0.91670907 0.00098781
v -0.51687777 0.34088856 -0.00262812
v 0.48993000 0.25456780 0.02738543
v -0.02288593 0.10732921 0.90891176
v -0.00424996 0.63735574 0.84516156
v 0.02097017 0.11810194 -0.92570043
v -0.00031573 0.63708133 -0.84448963
v 0.92934418 0.23294444 -0.57493144
v 0.90660614 0.23397663 0.55364090
v -0.92176855 0.23666321 -0.56692576
v -0.91175967 0.22030187 0.57880729
v -0.80445307 0.60496199 0.30856839
v -0.50244099 0.44886026 0.81988263
v -0.30506197 0.88196361 0.49214885
v 0.30749843 0.87782139 0.48967120
v -0.00112586 1.04342866 -0.00209923
v 0.30320540 0.88057721 -0.49203238
v -0.30219880 0.87910849 -0.49344528
v -0.50680202 0.45959160 -0.81707692
v -0.80126774 0.60818332 -0.29863846
v -1.07673395 0.21683188 0.00832352
v 0.50494516 0.46290895 0.82473880
v 0.80797738 0.60525864 0.30446345
v -0.59869903 0.00000000 0.94168335
v 0.00995098 0.21068366 1.07507288
v -0.88020337 0.12979957 -0.36327294
v -0.88874453 0.11202702 0.30955437
v -0.00854410 0.22390971 -1.07473826
v -0.58407205 0.00325247 -0.93971205
v 0.80994868 0.60969996 -0.30660072
v 0.50875181 0.45501259 -0.81640017
v 0.89867896 0.07397372 0.35049319
v 0.58149981 0.00004247 0.94451791
v 0.32329813 0.31187937 0.50837684
v -0.29219598 0.30248445 0.48516977
v 0.00804542 0.08694500 0.05424741
v -0.32947135 0.06187147 -0.46431720
v 0.32790655 0.13817994 -0.49458188
v 0.57059562 0.00017745 -0.93377435
v 0.83833039 0.17110293 -0.32321990
v 1.07474339 0.21882051 -0.01802767
v -0.69038737 0.78369880 0.15837321
v -0.58378726 0.77220440 0.41970569
v -0.42727500 0.92554724 0.25616610
v -0.71982986 0.33198494 0.73010695
v -0.68661940 0.54199290 0.58979011
v -0.87328160 0.41413382 0.44901752
v -0.15789936 0.78167796 0.69306052
v -0.42212623 0.68423128 0.68368345
v -0.26138124 0.55215335 0.85983044
v -0.15786949 1.00164986 0.25510994
v -0.26871818 1.01037085 -0.00123872
v 0.16164736 0.78271419 0.69292217
v 0.00264349 0.91785580 0.51582980
v 0.26555279 1.00958359 -0.00188742
v 0.15943211 1.00188482 0.25529221
v 0.42641035 0.92501432 0.25455481
v -0.15911318 1.00220156 -0.25906986
v -0.42677936 0.92411458 -0.25622517
v 0.42614964 0.92741024 -0.25395820
v 0.15891133 1.00490093 -0.25782570
v -0.15844035 0.77390879 -0.69227415
v 0.00114614 0.91573590 -0.51921266
v 0.16142465 0.77939379 -0.69444704
v -0.57771611 0.77096605 -0.42112151
v -0.68731862 0.78719205 -0.15686890
v -0.26230207 0.55410248 -0.85818994
v -0.42077184 0.68064201 -0.67828739
v -0.88389969 0.41098136 -0.43154392
v -0.69090360 0.54553962 -0.57569444
v -0.73550802 0.35791808 -0.71940112
v -0.84543842 0.63037300 0.00322743
v -1.04255784 0.21783093 -0.29146785
v -0.96612054 0.41358775 -0.15659334
v -0.96492618 0.41509530 0.17866293
v -1.03227305 0.21413645 0.30265158
v 0.58269250 0.76926088 0.41767785
v 0.68660152 0.78582340 0.16026635
v 0.26024723 0.56083965 0.86162251
v 0.42653656 0.68999338 0.68304229
v 0.87573755 0.41519836 0.43751329
v 0.69149262 0.54314768 0.58600050
v 0.71838439 0.33368072 0.71290553
v -0.26328760 0.33409607 0.98523581
v 0.00112372 0.41966045 0.97590643
v -0.78838456 0.09838866 0.78690952
v -0.54985350 0.20958014 0.92722082
v -0.00029535 0.02710497 1.11995780
v -0.28960615 0.09245639 1.08566546
v -0.33535677 0.09841613 0.92598814
v -1.11203206 0.02817662 0.19031781
v -1.00437963 0.06872390 0.50695783
v -1.00334632 0.04075192 -0.52134699
v -1.10480809 0.04339495 -0.19626743
v -0.73230356 0.27674606 0.17475440
v -0.94468468 0.11468448 -0.00481438
v -0.73236507 0.28567922 -0.16215196
v -0.56753087 0.23580723 -0.91282302
v -0.79107410 0.10702517 -0.77706808
v -0.00408764 0.42713842 -0.98035097
v -0.27858940 0.34100789 -0.98848468
v -0.27293831 0.01215906 -0.96688092
v -0.30671465 0.10830044 -1.08416128
v -0.00365175 0.00081874 -1.12866557
v 0.42578560 0.68171108 -0.67631829
v 0.26219025 0.56066203 -0.86336458
v 0.68711603 0.78488362 -0.15483478
v 0.57895470 0.77283961 -0.41522628
v 0.72552401 0.34376577 -0.73176748
v 0.69154269 0.54658550 -0.58547270
v 0.88542283 0.40674919 -0.44834924
v 0.72279739 0.20892510 0.18393134
v 0.62209827 0.17115793 0.46458003
v 0.46425954 0.29723457 0.30428556
v 0.79050076 0.10604222 0.77002084
v 0.76974511 0.03828392 0.67840517
v 0.99621481 0.04390246 0.51537335
v 0.15964337 0.21384892 0.74093556
v 0.44835135 0.17348301 0.73549914
v 0.27217302 0.09042124 0.96298075
v 0.16376545 0.31511262 0.24343014
v 0.29643267 0.09753978 0.03225812
v -0.15668523 0.19957124 0.70231968
v 0.00602253 0.32666674 0.52623427
v -0.27799481 0.16904582 0.04846910
v -0.15058587 0.19334574 0.23794578
v -0.41129050 0.33392939 0.26280418
v 0.16440594 0.13176890 -0.22533239
v 0.43707934 0.19816706 -0.24647878
v -0.41597405 0.23797899 -0.23027572
v -0.16027322 0.08747528 -0.21806319
v 0.15961742 0.22510350 -0.71578962
v 0.01275174 0.10268839 -0.49876842
v -0.14812687 0.11486991 -0.71871173
v 0.60918278 0.26283324 -0.46485412
v 0.69552273 0.27023703 -0.14198446
v 0.30344746 0.09524590 -0.97296274
v 0.44370598 0.17064951 -0.72880071
v 1.01261127 0.01973807 -0.50015497
v 0.77718353 0.05916508 -0.65438062
v 0.80320311 0.11624522 -0.78538400
v 0.92683899 0.12647343 0.00747686
v 1.04219973 0.20777532 -0.30037603
v 1.10457790 0.01013598 -0.19414102
v 1.11112177 0.09361117 0.18251862
v 1.03182352 0.22024472 0.28774530
v 0.30018479 0.11410528 1.07757425
v 0.57072824 0.23112158 0.90657973
v 0.27378076 0.34656385 0.98106891
v -0.60467899 0.25052747 0.43715915
v -0.44920591 0.16228461 0.68410826
v -0.78273666 0.10641583 0.64543593
v -0.47007269 0.12276521 -0.74817502
v -0.61034143 0.27352905 -0.43733746
v -0.77421147 0.09717055 -0.66854244
v 0.56490380 0.22887984 -0.92815292
v 0.28420740 0.08975018 -1.07179642
v 0.27187902 0.34190145 -0.99481678
v 0.96662933 0.41163942 0.15534441
v 0.97043729 0.41266775 -0.17076190
v 0.84898865 0.63263166 -0.00186310
v -0.60841495 0.85733825 0.08276564
v -0.56407565 0.86519116 0.21192832
v -0.47713605 0.92765951 0.12987110
v -0.70197600 0.69096339 0.36510795
v -0.64230889 0.78245312 0.28976053
v -0.75515079 0.69657356 0.23346290
v -0.36904120 0.91125464 0.37696558
v -0.51070917 0.85583979 0.34232697
v -0.44853559 0.83550996 0.46202636
v -0.82183176 0.27537522 0.66369003
v -0.80812341 0.37582159 0.59274393
v -0.89809787 0.31340921 0.51643300
v -0.60084164 0.50082237 0.71251142
v -0.70665467 0.43672344 0.66371530
v -0.61411780 0.38832235 0.78044403
v -0.84259909 0.50783932 0.37900046
v -0.78685170 0.47821775 0.52508259
v -0.75738919 0.57794386 0.45228395
v -0.08170089 0.71400130 0.77576125
v -0.21369404 0.67101765 0.78611094
v -0.13393658 0.59800911 0.85972548
v -0.36780345 0.79080111 0.59524190
v -0.29237244 0.74025267 0.69465446
v -0.23350899 0.83925855 0.59751523
v -0.38511181 0.50306821 0.84696358
v -0.34560868 0.62183011 0.77816772
v -0.46881780 0.56753790 0.75647515
v -0.64311832 0.66185540 0.50836694
v -0.56162065 0.61876756 0.64276683
v -0.50996536 0.73698217 0.55889064
v -0.35257098 0.97849810 0.12767603
v -0.39769739 0.96895367 -0.00138336
v -0.23220353 0.95061707 0.37712035
v -0.29597217 0.97224927 0.25792816
v -0.13611892 1.03537107 -0.00227141
v -0.21540418 1.01387584 0.12864040
v -0.08077724 1.03255308 0.12838596
v 0.08042789 0.71551782 0.77705550
v 0.00263730 0.79219562 0.70322847
v 0.15715878 0.90678394 0.50850719
v 0.08468686 0.85858792 0.61118388
v 0.23949546 0.83775973 0.59601653
v -0.07783442 0.85842764 0.61119330
v -0.15282893 0.90778929 0.50888002
v 0.39567009 0.97097659 -0.00182780
v 0.35123265 0.97971296 0.12723769
v 0.47562596 0.92883557 0.12844065
v 0.08018912 1.03313386 0.12740821
v 0.21495956 1.01487172 0.12780227
v 0.13369825 1.03634715 -0.00212914
v 0.37017649 0.90874755 0.37568468
v 0.29505116 0.97180223 0.25633559
v 0.23499310 0.94890279 0.37721133
v -0.07997669 0.96844405 0.38956454
v 0.08074027 0.96843010 0.39006650
v -0.00013985 1.01232898 0.25776237
v -0.35247353 0.97852427 -0.13045938
v -0.47702816 0.92587054 -0.12887710
v -0.08065193 1.03366566 -0.13220704
v -0.21561609 1.01474631 -0.13137120
v -0.36781368 0.90862870 -0.37878361
v -0.29547355 0.97142774 -0.26029795
v -0.23340683 0.95081973 -0.38034061
v 0.47687989 0.92870629 -0.12817824
v 0.34979412 0.97954392 -0.12966475
v 0.23379898 0.95238167 -0.37855080
v 0.29467478 0.97362810 -0.25818545
v 0.36773992 0.91222870 -0.37623778
v 0.21414900 1.01660645 -0.13077679
v 0.07970597 1.03460157 -0.13126799
v -0.08030943 0.70837057 -0.77449208
v 0.00024795 0.78651249 -0.70492148
v 0.08241171 0.71087039 -0.77498728
v -0.15280178 0.90454936 -0.51147634
v -0.07960106 0.85274678 -0.61221153
v -0.23214549 0.83216798 -0.59929085
v 0.23587738 0.83525705 -0.59820330
v 0.08121661 0.85443503 -0.61328095
v 0.15417416 0.90712792 -0.51148522
v 0.00025477 1.01410532 -0.26156807
v 0.08126051 0.97127461 -0.39225486
v -0.08001243 0.96989954 -0.39363137
v -0.56428081 0.86355555 -0.20837529
v -0.60832530 0.85648382 -0.07722988
v -0.44534501 0.83380133 -0.46524236
v -0.50729090 0.85550433 -0.34182331
v -0.75036341 0.69953030 -0.22844364
v -0.63936353 0.78303599 -0.29178372
v -0.69721466 0.69500047 -0.36177206
v -0.13144839 0.59965456 -0.85954458
v -0.21166576 0.66592622 -0.78503215
v -0.47104549 0.56960005 -0.74784613
v -0.34569687 0.61710584 -0.77359527
v -0.38796633 0.50991780 -0.84419632
v -0.29152760 0.73213547 -0.69448704
v -0.36593464 0.78758496 -0.59503460
v -0.91193557 0.32267687 -0.49930972
v -0.82124448 0.38919881 -0.58038014
v -0.83647829 0.29279515 -0.64851487
v -0.75474036 0.57824707 -0.43901640
v -0.79285485 0.48266712 -0.50913793
v -0.84525335 0.50823444 -0.36484221
v -0.62197632 0.41068199 -0.77259594
v -0.71987057 0.45006427 -0.65242177
v -0.61219096 0.50686443 -0.70522463
v -0.50903434 0.73670739 -0.55737805
v -0.56225288 0.61920613 -0.63409734
v -0.64437044 0.66125649 -0.50320631
v -0.69677615 0.79230082 0.00074617
v -0.83433503 0.62736994 -0.15068291
v -0.77316535 0.71111405 -0.07853663
v -0.77487379 0.70939869 0.08054608
v -0.83595157 0.62457436 0.15728176
v -0.99440455 0.23947828 -0.43245742
v -0.97283095 0.31156269 -0.36499849
v -1.03043783 0.31638387 -0.07764126
v -1.01000679 0.31537032 -0.22369610
v -1.06680822 0.22149268 -0.14324856
v -0.93278736 0.41910499 -0.29594588
v -0.89233011 0.51472712 -0.23047285
v -0.96139997 0.31381214 0.38551927
v -0.98362750 0.22029686 0.44581610
v -0.88966781 0.51088923 0.24459845
v -0.93165678 0.41736183 0.31881109
v -1.07145000 0.22591107 0.15695883
v -1.00527573 0.31997991 0.24286003
v -1.03286994 0.32524356 0.09513572
v -0.91559780 0.52756697 -0.07481927
v -0.97817093 0.42022043 0.00876742
v -0.91771388 0.52455199 0.09120611
v 0.56281930 0.86619341 0.20892593
v 0.60845375 0.85833162 0.08044250
v 0.45068368 0.83194268 0.46027261
v 0.51114237 0.85499299 0.34041622
v 0.75502485 0.69952577 0.23302479
v 0.64142656 0.78540701 0.29058605
v 0.70271379 0.69546425 0.36467719
v 0.12959643 0.60383832 0.86426938
v 0.21316101 0.67866933 0.78709662
v 0.47126174 0.57854956 0.76059604
v 0.34666896 0.63210672 0.78043509
v 0.38550779 0.50994760 0.85064036
v 0.29694676 0.74379975 0.69444704
v 0.37347716 0.79071230 0.59310365
v 0.89715296 0.31641522 0.49741265
v 0.81039125 0.36985269 0.58059865
v 0.81719261 0.28725079 0.63797009
v 0.75794578 0.58078420 0.44998729
v 0.79057217 0.47781762 0.51434219
v 0.84530008 0.50747502 0.37037787
v 0.61884725 0.40251228 0.77742195
v 0.71136427 0.43706328 0.65200526
v 0.60713047 0.50186771 0.71127981
v 0.51322788 0.73493642 0.55709898
v 0.56554455 0.62286377 0.64220405
v 0.64589167 0.66180658 0.50761288
v -0.13447942 0.49100748 0.92596954
v -0.00271022 0.52832186 0.91543341
v -0.38834193 0.39114138 0.90959448
v -0.26411545 0.44058961 0.92360353
v 0.00067724 0.31655005 1.03099012
v -0.13025045 0.37543869 0.98705572
v -0.13257770 0.26710355 1.04235518
v -0.85905677 0.15610243 0.68971258
v -0.75563687 0.21598426 0.77135718
v -0.57567191 0.08819019 0.94952518
v -0.67275208 0.15336291 0.87003416
v -0.70752299 0.03192713 0.86616957
v -0.63875663 0.26427504 0.83477783
v -0.52903491 0.32390144 0.87715030
v -0.02334286 0.05764621 1.03311300
v -0.19018385 0.02500909 1.04560208
v -0.17208199 0.10338251 0.93993497
v -0.14684270 0.15526365 1.09771740
v -0.14455843 0.04077956 1.11214292
v 0.00010283 0.13173911 1.11232615
v -0.47211483 0.05777869 0.91917533
v -0.34067696 0.00000000 1.04220879
v -0.45222768 0.06253727 1.04029727
v -0.40727279 0.26540062 0.96432531
v -0.42921448 0.13954797 1.01332390
v -0.27999943 0.21367732 1.03761017
v -1.03702319 0.12545878 0.41376561
v -0.96836454 0.12494971 0.55607671
v -1.10618949 0.12550275 0.09771003
v -1.08271170 0.13068707 0.25155881
v -0.97140205 0.01491589 0.40004385
v -1.07316959 0.05142409 0.35545647
v -1.00454271 0.03355607 0.24008442
v -0.96672922 0.13416611 -0.55157256
v -1.04157555 0.13810496 -0.41082501
v -1.01709759 0.07417428 -0.31486595
v -1.04651940 0.02716743 -0.36238533
v -0.95223230 0.03026335 -0.45144397
v -1.08278704 0.11797804 -0.24633683
v -1.10958886 0.12373894 -0.09148135
v -0.61784422 0.32039514 0.08489938
v -0.74189091 0.28973517 -0.01763298
v -0.62688094 0.34027925 -0.07173338
v -0.93849468 0.13367736 0.15259558
v -0.83716506 0.22555394 0.08570532
v -0.83250004 0.21144275 0.25180197
v -0.83440125 0.20162910 -0.24468467
v -0.86496031 0.21731989 -0.08829775
v -0.94495302 0.14902090 -0.18609928
v -1.12336385 0.04131379 -0.00173435
v -1.02952385 0.01248394 -0.13490979
v -1.02642024 0.00000000 0.04787107
v -0.77236331 0.23914880 -0.75168842
v -0.86209542 0.17832154 -0.67549461
v -0.54094583 0.34356993 -0.87287426
v -0.65696847 0.29471225 -0.81849343
v -0.69679272 0.04860841 -0.86999762
v -0.69315505 0.17806573 -0.85721529
v -0.59791595 0.11719745 -0.95150620
v 0.00157935 0.53371471 -0.91699129
v -0.13385549 0.49565127 -0.92803079
v -0.14936647 0.28255221 -1.03704858
v -0.14073053 0.38897979 -0.98706603
v -0.01123753 0.32500345 -1.03280747
v -0.27282390 0.44881749 -0.92718351
v -0.39734557 0.39816159 -0.91297096
v -0.12171326 0.05712985 -0.97779781
v -0.14142841 0.00000000 -1.06038249
v 0.02392531 0.02958956 -1.03878140
v -0.45945010 0.07308795 -1.02673459
v -0.31588796 0.00018600 -1.07290554
v -0.42836031 0.00000000 -0.99053329
v -0.01194755 0.12572783 -1.10415351
v -0.15889995 0.04434608 -1.12219787
v -0.15684330 0.15944314 -1.09173262
v -0.42607999 0.27541858 -0.96417803
v -0.30064601 0.22025688 -1.04213309
v -0.45094335 0.16818874 -1.00557363
v 0.21648185 0.67428309 -0.78342855
v 0.13184063 0.60378337 -0.86161184
v 0.36979583 0.78910267 -0.59188640
v 0.29686174 0.73686743 -0.69242066
v 0.38943443 0.51049221 -0.84776258
v 0.35119414 0.62311190 -0.77421671
v 0.47407067 0.57168472 -0.74868155
v 0.60911429 0.85887796 -0.07747216
v 0.56380695 0.86587477 -0.20703013
v 0.69982952 0.69756764 -0.36180258
v 0.63918793 0.78489089 -0.28767410
v 0.75181007 0.70134246 -0.23116794
v 0.50836092 0.85871589 -0.33880746
v 0.44657296 0.83660650 -0.46120897
v 0.83185983 0.29063299 -0.65814960
v 0.81490624 0.38630846 -0.59571600
v 0.90796107 0.32610917 -0.51627827
v 0.60803229 0.49957976 -0.70623362
v 0.71280879 0.43350425 -0.65893310
v 0.62197590 0.39658731 -0.78375024
v 0.85390699 0.50914156 -0.38054255
v 0.79138148 0.48436064 -0.52145630
v 0.76138419 0.58461779 -0.44696537
v 0.50922430 0.73274404 -0.55253887
v 0.64312172 0.66145700 -0.50156444
v 0.56374282 0.61695611 -0.63485974
v 0.59525281 0.24811025 0.10587934
v 0.59447628 0.23892066 0.25861949
v 0.48590389 0.30976939 0.17060332
v 0.73356557 0.10299993 0.41492900
v 0.70243716 0.20502345 0.33290258
v 0.81670028 0.13472624 0.27603722
v 0.41332653 0.30767074 0.40082544
v 0.53974330 0.21317391 0.39690319
v 0.48514798 0.25962442 0.50224102
v 0.85685927 0.17426306 0.66632396
v 0.90583318 0.08674423 0.66022778
v 0.96814317 0.13105208 0.53553569
v 0.66864586 0.00435307 0.82947153
v 0.81209683 0.00980058 0.75616962
v 0.69811517 0.04043644 0.85908157
v 0.96842235 0.00000000 0.42744857
v 0.90804321 0.00000000 0.62090492
v 0.83678871 0.03069431 0.52738363
v 0.05676272 0.17817539 0.81566387
v 0.20733555 0.14628570 0.85004967
v 0.12148078 0.10554421 0.93350744
v 0.37775689 0.23908664 0.62779731
v 0.31293669 0.16759321 0.76752210
v 0.24262249 0.26084453 0.64065415
v 0.43441027 0.01967410 0.93685967
v 0.37065488 0.08171665 0.86262804
v 0.53208965 0.12256072 0.85015833
v 0.70834231 0.09323224 0.56597930
v 0.61680174 0.09821610 0.71089655
v 0.53815049 0.15917471 0.59377724
v 0.40684798 0.15511028 0.18467139
v 0.41221151 0.17408636 0.03630658
v 0.26197928 0.32065254 0.36506835
v 0.34192115 0.31646526 0.25163472
v 0.14940082 0.08345357 0.04819503
v 0.26854223 0.20976098 0.13257299
v 0.11347320 0.16595727 0.15416226
v -0.11408586 0.17596717 0.80497396
v -0.00412954 0.25358737 0.72677875
v -0.14691703 0.33389890 0.49398407
v -0.09040322 0.29508874 0.63507277
v -0.23226792 0.27329680 0.61575651
v 0.08794096 0.30103225 0.63390088
v 0.18448532 0.30633396 0.54460019
v -0.40527394 0.22331631 0.03165570
v -0.31065145 0.31806058 0.13935389
v -0.46156719 0.35601905 0.13441533
v -0.05984617 0.16440535 0.14264888
v -0.16372563 0.31756955 0.13687404
v -0.14050202 0.15396336 0.05782806
v -0.36165643 0.35701928 0.36325401
v -0.23596534 0.34926781 0.24324299
v -0.21619499 0.35343441 0.35757211
v 0.09833343 0.33501017 0.40659264
v -0.05823752 0.35397884 0.35589260
v 0.02836109 0.17310746 0.30324993
v 0.36950061 0.15700835 -0.06980297
v 0.47177875 0.24046208 -0.11766571
v 0.10370508 0.11126929 -0.09174524
v 0.22641565 0.08322418 -0.09416080
v 0.39117229 0.18650326 -0.38645676
v 0.33368519 0.12483520 -0.22296265
v 0.24840601 0.11724196 -0.35323897
v -0.49084112 0.31807411 -0.14306119
v -0.38649014 0.19486140 -0.12983431
v -0.22646782 0.07244232 -0.33729616
v -0.29791844 0.12688158 -0.23796040
v -0.36481199 0.16177715 -0.36638311
v -0.25113374 0.09907807 -0.09149819
v -0.10420325 0.11515446 -0.08083355
v 0.09025470 0.16991034 -0.83023572
v -0.00963111 0.21699739 -0.74150652
v -0.08302300 0.16155392 -0.84464973
v 0.19491394 0.14892124 -0.47218347
v 0.10500886 0.13510394 -0.62765229
v 0.26493841 0.25545588 -0.57903349
v -0.22658317 0.04608801 -0.60978580
v -0.05485002 0.10132311 -0.63585192
v -0.13059457 0.05396220 -0.50157690
v 0.01376151 0.11855582 -0.23115541
v -0.05630956 0.06596230 -0.37460676
v 0.09553091 0.14379428 -0.34915316
v 0.57473248 0.29687938 -0.21999972
v 0.59911537 0.23461714 -0.06830870
v 0.46364361 0.27132440 -0.48722240
v 0.49682277 0.26879510 -0.36424115
v 0.77756518 0.21760894 -0.23090295
v 0.67099911 0.28376541 -0.31071576
v 0.72841096 0.22756714 -0.40927267
v 0.16130702 0.10501600 -0.95919746
v 0.23556176 0.15275612 -0.84605914
v 0.49692053 0.09294464 -0.83435631
v 0.37754554 0.15699336 -0.86652011
v 0.42734969 0.00042419 -0.95295948
v 0.30657718 0.20727488 -0.74020797
v 0.39530787 0.24847107 -0.61472011
v 0.97427440 0.12569347 -0.55267590
v 0.91843921 0.06107427 -0.66795260
v 0.87704927 0.17114337 -0.68590921
v 0.80738860 0.10122784 -0.49437028
v 0.90601158 0.00067936 -0.57900125
v 0.92749846 0.11578421 -0.41118297
v 0.71226573 0.06306429 -0.88331234
v 0.81467807 0.00575040 -0.74518430
v 0.67854452 0.00003628 -0.80590445
v 0.55279976 0.19169864 -0.60728425
v 0.61679322 0.07821488 -0.68922007
v 0.68265969 0.13044013 -0.54347301
v 0.68821502 0.24755292 0.01556917
v 0.89220786 0.14675596 -0.15211543
v 0.79907793 0.21393473 -0.04819857
v 0.81556547 0.19714133 0.10021092
v 0.92875385 0.13762073 0.16846669
v 0.99176365 0.21403481 -0.44212720
v 1.04871929 0.12032761 -0.41044465
v 1.11753356 0.11439931 -0.11222152
v 1.09258235 0.10873640 -0.25642747
v 1.07008481 0.22769658 -0.16202375
v 1.07645488 0.02583210 -0.36355856
v 0.99212056 0.08574931 -0.26882231
v 1.04373205 0.13877402 0.40164751
v 0.97950667 0.22250032 0.42259192
v 1.02003407 0.00153908 0.25788680
v 1.06962895 0.07775585 0.35153049
v 1.06346905 0.23510422 0.13928047
v 1.07837248 0.15862666 0.23463112
v 1.10134721 0.15067758 0.07053688
v 1.00217390 0.10206778 -0.08455668
v 1.14152503 0.04836679 -0.00640789
v 1.03870881 0.00084182 0.08095937
v 0.13316704 0.00020069 1.06245887
v 0.44624349 0.06368961 1.03687716
v 0.30602789 0.00000000 1.06352329
v 0.14978410 0.07480696 1.11578512
v 0.16026723 0.16905773 1.09324729
v 0.76502007 0.22616024 0.74438131
v 0.54518473 0.34301150 0.87262017
v 0.65967894 0.27548179 0.82073939
v 0.68799347 0.17016554 0.84544098
v 0.58511603 0.09825792 0.93325227
v 0.13142514 0.49189210 0.92605650
v 0.14295626 0.28541237 1.04050982
v 0.13569106 0.38788113 0.99058992
v 0.26531416 0.44775572 0.92794317
v 0.39622056 0.40027571 0.91070986
v 0.44501323 0.16540490 0.99675351
v 0.42976221 0.29146174 0.96329129
v 0.29749215 0.23347309 1.04214156
v -0.55206215 0.29850069 0.21767491
v -0.42432049 0.28145432 0.47602651
v -0.51773375 0.31646171 0.35009184
v -0.67865425 0.27138245 0.31178349
v -0.76708990 0.19401036 0.37536263
v -0.24743283 0.12236958 0.83704162
v -0.56042314 0.12339664 0.81599885
v -0.41338512 0.11316287 0.82052922
v -0.32399011 0.18877132 0.72141290
v -0.36606199 0.23348144 0.58759069
v -0.90713412 0.06388034 0.66113794
v -0.85166979 0.07785591 0.47507006
v -0.90246040 0.00000000 0.57897669
v -0.82481450 0.00417895 0.73852676
v -0.69748473 0.03464605 0.78386730
v -0.53840548 0.18259090 0.58001012
v -0.64386880 0.12182108 0.67621243
v -0.70705837 0.16635789 0.50824010
v -0.21851966 0.10891451 -0.88149065
v -0.38677657 0.12086898 -0.61341828
v -0.30371919 0.06812637 -0.75448203
v -0.38335997 0.07772814 -0.86547840
v -0.52757233 0.02279181 -0.85925919
v -0.60300684 0.21673955 -0.18356109
v -0.74477732 0.22511235 -0.39486226
v -0.67041755 0.28992003 -0.29704955
v -0.53022134 0.18784609 -0.32966140
v -0.45627242 0.21699518 -0.46522582
v -0.90618658 0.05939192 -0.65866572
v -0.69536722 0.01658326 -0.80204594
v -0.81915629 0.00268987 -0.77021390
v -0.87004393 0.07151316 -0.59000218
v -0.82684958 0.14371723 -0.48684400
v -0.55299515 0.20012206 -0.59925103
v -0.70566648 0.17466722 -0.54926360
v -0.63480467 0.14591385 -0.73336852
v 0.77331436 0.23523287 -0.76730895
v 0.58780873 0.12127563 -0.95088726
v 0.68752319 0.17716873 -0.86699682
v 0.65516287 0.28786162 -0.83603793
v 0.53988266 0.33808678 -0.87918979
v 0.15865307 0.01471915 -1.04368532
v 0.13950561 0.15744199 -1.09550440
v 0.13238962 0.05251633 -1.09829879
v 0.29735270 0.00135226 -1.05611253
v 0.43415585 0.06173052 -1.03064382
v 0.13405366 0.49768996 -0.93341070
v 0.39656642 0.40611082 -0.91505706
v 0.26854786 0.44935390 -0.93043482
v 0.13199678 0.38796690 -0.99386293
v 0.13132447 0.28147382 -1.04273546
v 0.43834189 0.15943648 -1.01292849
v 0.28292212 0.21536583 -1.04895115
v 0.42161280 0.28117463 -0.97434932
v 0.96156442 0.31561989 0.37245333
v 1.02766609 0.31818914 0.07914813
v 1.00951791 0.31827953 0.22760953
v 0.93062353 0.41774371 0.29997861
v 0.89549541 0.51177067 0.23253940
v 0.97475189 0.31888998 -0.38370451
v 0.89939207 0.51247549 -0.24241860
v 0.93709546 0.41593450 -0.31230545
v 1.01707232 0.32242888 -0.24247529
v 1.03085399 0.32282522 -0.09209769
v 0.69804806 0.79343796 0.00276106
v 0.83894330 0.62278181 0.15423395
v 0.77587342 0.71191782 0.08122995
v 0.77463591 0.71102744 -0.07989708
v 0.83634806 0.62441927 -0.15709180
v 0.98000991 0.41899413 -0.00725053
v 0.91281193 0.52276546 -0.08559193
v 0.91675544 0.52152103 0.07637487
f 330 87 329
f 336 325 26
f 207 208 56
f 464 36 580
f 502 129 504
f 157 624 622
f 308 311 82
f 247 223 248
f 507 483 508
f 331 88 329
f 494 500 497
f 156 601 602
f 591 589 592
f 365 98 596
f 75 281 282
f 152 587 577
f 149 559 560
f 555 121 553
f 530 141 529
f 515 517 139
f 361 594 98
f 250 67 249
f 157 608 609
f 294 293 209
f 317 81 316
f 557 338 26
f 303 305 81
f 530 529 528
f 101 381 382
f 415 418 111
f 192 184 50
f 412 110 411
f 20 384 256
f 131 594 486
f 281 264 282
f 347 287 348
f 28 349 582
f 165 163 1
f 248 250 66
f 617 107 398
f 273 271 274
f 456 115 453
f 558 561 560
f 335 576 91
f 331 177 332
f 116 433 436
f 351 370 92
f 136 511 530
f 239 240 65
f 247 258 19
f 304 23 567
f 148 557 570
f 214 208 58
f 440 426 450
f 268 270 269
f 258 247 268
f 204 202 16
f 466 125 465
f 517 513 133
f 168 275 274
f 275 73 274
f 198 193 53
f 309 308 307
f 510 511 136
f 415 416 110
f 131 490 597
f 473 475 474
f 414 415 111
f 493 495 494
f 496 504 485
f 433 116 432
f 600 375 601
f 240 234 65
f 418 415 412
f 486 361 3
f 567 566 304
f 380 393 29
f 17 199 197
f 491 492 132
f 451 449 435
f 218 217 216
f 623 621 613
f 396 104 395
f 433 439 436
f 628 160 627
f 215 202 217
f 209 207 2
f 427 113 424
f 434 10 544
f 434 433 432
f 199 17 210
f 150 564 565
f 489 491 132
f 275 13 285
f 497 500 134
f 125 466 476
f 578 152 577
f 208 214 211
f 328 88 343
f 356 27 603
f 150 566 567
f 372 100 371
f 190 191 47
f 235 8 398
f 260 261 72
f 422 403 414
f 422 414 111
f 453 454 123
f 349 583 582
f 521 520 519
f 425 453 115
f 616 622 158
f 483 130 508
f 151 586 572
f 212 17 232
f 400 397 402
f 377 396 99
f 41 522 511
f 510 508 505
f 549 547 42
f 475 473 36
f 510 137 509
f 222 221 197
f 430 115 429
f 220 194 1
f 305 54 204
f 621 29 613
f 192 171 184
f 460 335 5
f 88 331 332
f 74 277 279
f 300 301 80
f 390 389 388
f 165 45 164
f 146 549 551
f 291 278 75
f 448 120 445
f 147 543 544
f 607 610 609
f 603 602 356
f 139 529 514
f 333 553 443
f 92 368 347
f 261 260 259
f 300 6 200
f 46 177 331
f 284 283 174
f 301 300 200
f 471 468 474
f 54 305 301
f 302 304 303
f 569 150 567
f 150 569 570
f 294 209 2
f 628 629 160
f 548 543 147
f 147 625 627
f 63 233 234
f 426 427 114
f 41 509 532
f 198 52 196
f 614 105 612
f 147 627 547
f 81 305 306
f 549 548 547
f 54 301 200
f 342 88 332
f 264 281 70
f 193 194 53
f 455 429 456
f 187 321 14
f 479 130 484
f 147 544 625
f 458 456 453
f 304 80 303
f 314 84 313
f 488 503 501
f 321 332 14
f 423 425 424
f 305 204 306
f 341 339 25
f 514 40 516
f 625 628 627
f 340 339 341
f 105 614 391
f 243 228 62
f 318 316 78
f 75 278 279
f 357 355 353
f 238 257 63
f 466 455 476
f 425 423 4
f 448 449 120
f 408 638 108
f 292 275 285
f 22 278 289
f 515 513 517
f 501 503 134
f 622 623 158
f 134 503 504
f 195 216 206
f 163 271 246
f 619 617 620
f 62 228 229
f 163 165 164
f 453 425 454
f 489 132 488
f 82 628 625
f 58 208 209
f 525 608 40
f 626 547 627
f 518 517 498
f 489 487 491
f 557 26 564
f 325 336 344
f 541 145 539
f 40 616 516
f 338 556 89
f 250 248 245
f 139 514 515
f 98 594 596
f 246 220 1
f 112 413 630
f 9 536 413
f 156 600 601
f 332 177 14
f 321 342 332
f 156 606 600
f 584 330 585
f 302 303 81
f 584 87 330
f 330 25 585
f 400 239 65
f 439 440 117
f 95 358 368
f 597 594 131
f 594 361 486
f 246 67 245
f 561 562 149
f 28 364 362
f 55 216 217
f 427 430 114
f 267 20 254
f 556 555 553
f 84 309 558
f 311 310 312
f 609 525 142
f 256 68 255
f 124 460 461
f 82 311 312
f 307 308 82
f 589 135 495
f 527 40 514
f 112 418 412
f 20 256 254
f 258 238 19
f 267 254 269
f 273 272 249
f 392 391 393
f 137 533 509
f 122 455 456
f 9 413 411
f 130 480 505
f 333 443 5
f 527 525 40
f 589 495 385
f 39 496 485
f 223 225 224
f 414 416 415
f 219 222 53
f 145 538 539
f 413 412 411
f 469 468 467
f 183 181 6
f 191 192 50
f 429 35 431
f 292 285 76
f 413 112 412
f 415 110 412
f 43 164 167
f 467 468 126
f 617 101 620
f 450 451 117
f 438 546 545
f 619 620 159
f 17 212 210
f 124 579 576
f 584 153 583
f 460 124 576
f 3 469 467
f 311 308 314
f 6 320 183
f 389 104 388
f 251 250 249
f 194 165 1
f 291 289 278
f 287 77 348
f 238 258 257
f 139 517 518
f 238 236 19
f 223 247 19
f 382 380 29
f 39 518 498
f 361 359 3
f 69 255 257
f 139 518 528
f 33 545 535
f 387 385 7
f 69 268 269
f 477 462 125
f 454 479 123
f 121 555 447
f 451 435 117
f 454 425 4
f 233 252 8
f 124 463 464
f 69 258 268
f 168 167 166
f 583 153 582
f 384 394 102
f 138 512 513
f 57 210 211
f 254 256 255
f 607 609 142
f 324 319 86
f 289 291 76
f 291 292 76
f 384 102 383
f 422 421 420
f 221 17 197
f 383 102 381
f 376 377 99
f 99 373 374
f 386 105 392
f 438 33 440
f 90 341 343
f 281 75 279
f 574 571 96
f 628 82 312
f 221 222 59
f 127 471 474
f 595 605 603
f 551 538 145
f 334 91 340
f 322 324 85
f 305 303 301
f 18 239 399
f 306 204 16
f 199 198 197
f 166 190 180
f 303 80 301
f 267 266 265
f 626 42 547
f 16 215 213
f 349 351 350
f 295 16 213
f 68 379 252
f 250 251 66
f 627 160 626
f 383 68 256
f 343 88 342
f 507 508 136
f 202 215 16
f 197 198 53
f 254 69 269
f 603 605 156
f 418 419 111
f 384 383 256
f 455 122 476
f 203 204 54
f 556 557 148
f 255 68 253
f 313 84 560
f 25 328 341
f 254 255 69
f 603 156 602
f 581 584 583
f 630 632 112
f 163 246 1
f 246 245 220
f 432 116 558
f 499 591 590
f 320 563 86
f 345 93 350
f 306 16 295
f 346 93 345
f 562 568 149
f 604 605 155
f 154 592 593
f 545 552 535
f 511 522 530
f 574 573 571
f 566 150 565
f 361 98 360
f 67 271 273
f 234 235 65
f 208 211 56
f 574 151 573
f 251 270 66
f 398 8 378
f 213 215 214
f 438 440 439
f 315 314 313
f 263 71 262
f 20 373 384
f 496 134 504
f 329 88 328
f 81 306 316
f 555 556 148
f 592 589 103
f 617 619 107
f 227 207 56
f 571 359 96
f 446 466 465
f 206 216 55
f 359 571 469
f 568 148 570
f 34 437 435
f 28 351 349
f 21 272 282
f 113 423 424
f 490 489 488
f 379 68 383
f 210 212 211
f 80 563 300
f 351 92 350
f 326 346 12
f 83 317 318
f 555 148 554
f 212 231 56
f 218 57 217
f 271 67 246
f 195 196 52
f 270 268 66
f 390 592 103
f 148 568 554
f 495 493 7
f 592 390 593
f 357 95 355
f 574 575 151
f 452 120 451
f 154 591 592
f 587 585 577
f 395 394 396
f 93 349 350
f 610 416 611
f 166 44 190
f 315 23 302
f 315 302 317
f 268 247 66
f 606 154 593
f 396 394 99
f 211 212 56
f 370 369 368
f 235 397 65
f 280 278 22
f 83 315 317
f 575 588 151
f 74 279 280
f 385 495 7
f 63 257 253
f 397 235 398
f 214 58 213
f 220 219 194
f 546 146 545
f 236 225 19
f 599 94 602
f 235 233 8
f 102 394 395
f 611 416 32
f 225 223 19
f 139 528 529
f 231 62 229
f 419 406 421
f 451 450 452
f 49 182 185
f 402 397 107
f 52 199 218
f 416 610 110
f 225 236 244
f 107 397 398
f 68 252 253
f 322 85 321
f 182 181 183
f 118 438 439
f 546 438 118
f 348 77 345
f 543 546 118
f 231 212 232
f 610 611 157
f 33 438 545
f 385 386 103
f 479 480 130
f 169 195 15
f 93 583 349
f 15 195 206
f 190 44 192
f 247 248 66
f 146 552 545
f 248 60 245
f 570 557 564
f 274 271 43
f 63 253 233
f 272 21 249
f 507 528 518
f 67 273 249
f 487 467 126
f 196 195 169
f 624 159 623
f 134 496 497
f 132 503 488
f 104 393 395
f 556 553 89
f 355 356 94
f 258 69 257
f 229 61 227
f 56 231 227
f 460 576 335
f 463 124 461
f 394 373 99
f 29 393 391
f 67 250 245
f 193 198 196
f 462 36 464
f 144 633 630
f 141 526 527
f 517 133 498
f 536 144 630
f 100 372 599
f 144 536 537
f 22 289 287
f 578 579 152
f 579 578 576
f 189 188 187
f 60 223 224
f 92 348 350
f 555 554 447
f 396 377 388
f 194 193 165
f 413 536 630
f 372 352 599
f 377 376 375
f 348 345 350
f 105 386 387
f 240 237 234
f 463 462 464
f 135 500 494
f 45 196 169
f 512 612 387
f 245 60 220
f 429 115 456
f 223 60 248
f 288 289 76
f 525 526 142
f 100 599 601
f 613 29 391
f 526 523 520
f 341 328 343
f 631 641 639
f 264 21 282
f 266 72 265
f 106 402 403
f 73 273 274
f 186 206 205
f 381 379 383
f 52 216 195
f 410 18 399
f 290 272 73
f 72 371 374
f 526 525 527
f 115 430 424
f 498 497 496
f 621 382 29
f 543 118 434
f 214 215 57
f 522 141 530
f 511 510 509
f 352 94 599
f 493 512 7
f 90 340 341
f 169 171 170
f 605 604 606
f 219 60 224
f 104 389 392
f 359 469 3
f 186 49 185
f 222 219 224
f 166 167 44
f 428 427 426
f 523 522 524
f 129 502 481
f 50 185 188
f 164 45 170
f 425 115 424
f 33 428 426
f 427 428 113
f 94 356 602
f 515 138 513
f 114 431 452
f 237 236 238
f 215 217 57
f 95 354 355
f 220 60 219
f 515 514 516
f 183 320 319
f 222 197 53
f 559 569 567
f 300 320 6
f 435 436 117
f 96 360 363
f 640 642 641
f 242 243 62
f 140 537 519
f 508 130 505
f 420 410 399
f 537 539 144
f 317 316 318
f 426 114 450
f 186 15 206
f 311 83 310
f 625 544 307
f 544 10 307
f 168 43 167
f 185 182 188
f 369 354 95
f 44 171 192
f 605 606 156
f 548 549 146
f 100 601 375
f 149 568 569
f 381 380 382
f 455 466 35
f 480 479 454
f 543 548 546
f 493 133 513
f 492 472 37
f 477 125 476
f 491 487 126
f 337 336 338
f 588 153 587
f 576 578 91
f 633 161 632
f 96 359 360
f 39 485 483
f 101 617 378
f 193 45 165
f 163 164 43
f 618 624 611
f 507 136 528
f 561 149 560
f 641 162 639
f 116 561 558
f 494 133 493
f 253 252 233
f 63 237 238
f 392 393 104
f 440 450 117
f 93 581 583
f 386 385 387
f 120 449 451
f 421 422 111
f 486 3 467
f 302 81 317
f 633 632 630
f 462 475 36
f 376 99 374
f 489 490 131
f 447 449 448
f 387 612 105
f 106 420 399
f 173 46 172
f 492 491 472
f 316 306 295
f 22 287 347
f 109 410 420
f 507 39 483
f 559 23 313
f 214 57 211
f 196 45 193
f 10 434 432
f 422 106 403
f 626 160 640
f 487 486 467
f 542 41 532
f 400 106 399
f 444 120 452
f 198 199 52
f 475 127 474
f 621 620 382
f 621 623 159
f 450 114 452
f 92 347 348
f 376 100 375
f 434 118 433
f 503 132 502
f 337 90 336
f 537 536 519
f 395 393 380
f 201 54 200
f 171 44 170
f 355 94 353
f 58 296 213
f 422 420 106
f 595 365 596
f 569 568 570
f 523 140 520
f 114 430 431
f 218 210 57
f 304 566 80
f 639 162 638
f 261 371 72
f 548 147 547
f 498 133 497
f 150 570 564
f 222 224 59
f 142 526 520
f 437 436 435
f 141 522 523
f 137 510 505
f 173 179 176
f 559 149 569
f 121 447 448
f 563 320 300
f 102 395 380
f 257 255 253
f 642 162 641
f 83 311 314
f 216 52 218
f 512 493 513
f 23 304 302
f 91 339 340
f 512 138 612
f 159 620 621
f 218 199 210
f 364 28 575
f 83 318 310
f 168 274 43
f 136 530 528
f 140 523 524
f 495 135 494
f 233 235 234
f 566 563 80
f 25 339 577
f 277 74 276
f 475 462 477
f 133 494 497
f 436 437 116
f 389 386 392
f 548 146 546
f 441 460 5
f 10 309 307
f 65 397 400
f 543 434 544
f 640 641 161
f 272 273 73
f 581 93 346
f 419 421 111
f 319 320 86
f 180 179 178
f 127 475 477
f 231 229 227
f 337 334 340
f 136 508 510
f 308 309 84
f 237 63 234
f 447 554 34
f 252 379 378
f 315 83 314
f 608 622 616
f 338 336 26
f 337 338 89
f 13 275 168
f 209 208 207
f 436 439 117
f 628 312 629
f 360 366 363
f 364 574 96
f 359 361 360
f 466 446 35
f 500 501 134
f 406 109 421
f 135 589 591
f 601 599 602
f 340 90 337
f 481 492 37
f 522 41 524
f 78 316 295
f 131 486 487
f 403 32 414
f 634 626 640
f 151 572 573
f 515 516 138
f 8 252 378
f 265 72 374
f 9 521 519
f 538 549 42
f 368 358 347
f 588 587 586
f 458 453 123
f 589 385 103
f 502 492 481
f 32 416 414
f 430 427 424
f 153 585 587
f 540 144 539
f 370 368 92
f 209 293 58
f 428 33 535
f 326 581 346
f 625 307 82
f 575 28 582
f 6 181 200
f 421 109 420
f 553 121 443
f 160 642 640
f 153 584 585
f 309 432 558
f 334 337 89
f 23 315 313
f 271 163 43
f 296 295 213
f 39 498 496
f 118 439 433
f 531 113 534
f 293 296 58
f 28 362 351
f 489 131 487
f 431 444 452
f 84 558 560
f 98 366 360
f 45 169 170
f 379 101 378
f 462 463 125
f 308 84 314
f 10 432 309
f 299 24 310
f 132 492 502
f 512 387 7
f 639 638 408
f 565 323 86
f 59 244 242
f 106 400 402
f 440 33 426
f 566 565 563
f 617 398 378
f 224 225 59
f 410 109 409
f 239 400 399
f 194 219 53
f 358 22 347
f 610 157 609
f 27 595 603
f 479 484 482
f 142 520 521
f 585 25 577
f 339 578 577
f 408 407 406
f 407 109 406
f 31 408 406
f 407 408 108
f 31 639 408
f 419 31 406
f 608 616 40
f 430 429 431
f 455 35 429
f 35 444 431
f 188 51 187
f 188 182 51
f 51 322 187
f 322 51 319
f 51 182 183
f 319 51 183
f 187 322 321
f 322 319 324
f 381 101 379
f 405 407 108
f 404 405 108
f 286 285 178
f 407 405 409
f 109 407 409
f 191 175 47
f 167 164 170
f 50 184 185
f 44 167 170
f 64 244 236
f 243 244 64
f 50 188 189
f 541 542 145
f 442 445 119
f 339 91 578
f 445 446 119
f 624 623 622
f 611 624 157
f 523 526 141
f 141 527 529
f 527 514 529
f 445 120 444
f 446 445 444
f 35 446 444
f 613 614 158
f 158 614 615
f 623 613 158
f 614 613 391
f 614 612 615
f 371 376 374
f 100 376 371
f 479 482 123
f 373 394 384
f 540 42 634
f 633 540 634
f 538 42 540
f 633 634 161
f 161 634 640
f 42 626 634
f 540 633 144
f 557 556 338
f 553 333 89
f 262 21 264
f 251 21 262
f 5 335 333
f 270 251 262
f 21 251 249
f 600 593 30
f 606 593 600
f 600 30 375
f 593 390 30
f 30 377 375
f 390 388 30
f 30 388 377
f 228 243 241
f 470 478 459
f 470 127 478
f 127 477 478
f 184 186 185
f 478 477 476
f 122 478 476
f 357 74 280
f 518 39 507
f 344 342 85
f 325 344 85
f 342 344 343
f 85 342 321
f 344 90 343
f 90 344 336
f 482 129 481
f 482 481 457
f 482 457 123
f 481 37 457
f 449 447 34
f 435 449 34
f 470 472 471
f 472 470 37
f 470 471 127
f 472 126 471
f 126 468 471
f 470 459 37
f 491 126 472
f 504 129 485
f 221 59 242
f 125 463 465
f 437 34 562
f 561 437 562
f 554 568 562
f 34 554 562
f 437 561 116
f 390 103 389
f 103 386 389
f 392 105 391
f 572 586 580
f 572 580 36
f 586 152 580
f 473 572 36
f 244 243 242
f 225 244 59
f 64 240 241
f 240 239 241
f 237 240 64
f 243 64 241
f 236 237 64
f 411 607 521
f 9 411 521
f 110 607 411
f 607 142 521
f 610 607 110
f 171 15 184
f 171 169 15
f 15 186 184
f 87 584 581
f 153 588 582
f 588 575 582
f 381 102 380
f 573 572 473
f 468 469 128
f 474 468 128
f 469 571 128
f 571 573 128
f 573 473 128
f 473 474 128
f 564 323 565
f 26 323 564
f 323 324 86
f 325 323 26
f 325 324 323
f 563 565 86
f 324 325 85
f 410 230 18
f 230 228 18
f 18 228 241
f 18 241 239
f 401 619 618
f 401 402 107
f 403 402 401
f 619 159 618
f 401 618 32
f 619 401 107
f 403 401 32
f 618 611 32
f 159 624 618
f 478 122 459
f 122 458 459
f 37 459 457
f 459 458 457
f 122 456 458
f 457 458 123
f 191 190 192
f 485 129 484
f 129 482 484
f 483 485 484
f 130 483 484
f 189 187 14
f 191 50 189
f 191 189 175
f 189 14 175
f 14 177 175
f 499 501 500
f 501 499 38
f 38 499 590
f 135 499 500
f 488 501 38
f 499 135 591
f 480 454 4
f 284 12 346
f 4 423 506
f 480 4 506
f 423 531 506
f 480 506 505
f 531 137 506
f 506 137 505
f 365 366 98
f 71 270 262
f 270 71 269
f 71 267 269
f 335 334 333
f 333 334 89
f 334 335 91
f 536 9 519
f 465 463 461
f 537 140 541
f 520 140 519
f 119 446 465
f 465 461 119
f 461 441 119
f 460 441 461
f 176 46 173
f 299 297 24
f 71 263 266
f 263 260 266
f 260 72 266
f 263 70 260
f 205 201 49
f 201 181 49
f 186 205 49
f 181 201 200
f 181 182 49
f 284 77 283
f 586 587 152
f 588 586 151
f 20 267 265
f 266 267 71
f 31 417 631
f 631 417 632
f 31 631 639
f 417 31 419
f 641 631 161
f 417 112 632
f 161 631 632
f 418 417 419
f 417 418 112
f 284 345 77
f 542 550 145
f 542 541 524
f 284 174 12
f 48 174 283
f 373 20 265
f 373 265 374
f 609 608 525
f 608 157 622
f 560 559 313
f 636 637 162
f 541 140 524
f 41 542 524
f 358 357 280
f 70 263 264
f 263 262 264
f 176 177 46
f 174 48 173
f 174 173 172
f 538 551 549
f 538 540 539
f 537 541 539
f 232 221 242
f 17 221 232
f 232 242 62
f 231 232 62
f 203 205 55
f 203 55 202
f 201 205 203
f 202 55 217
f 205 206 55
f 204 203 202
f 73 275 292
f 292 290 73
f 272 290 282
f 290 292 291
f 75 290 291
f 290 75 282
f 70 277 259
f 277 70 281
f 277 281 279
f 260 70 259
f 12 174 172
f 104 396 388
f 367 27 354
f 365 27 367
f 354 27 356
f 365 367 366
f 595 27 365
f 318 299 310
f 155 596 597
f 155 597 598
f 596 594 597
f 595 596 155
f 605 595 155
f 180 47 179
f 180 190 47
f 352 372 11
f 11 372 261
f 312 310 24
f 642 636 162
f 636 297 637
f 367 369 97
f 366 367 97
f 369 367 354
f 369 370 97
f 580 579 464
f 580 152 579
f 579 124 464
f 61 230 409
f 230 410 409
f 230 61 229
f 230 229 228
f 76 285 286
f 353 352 276
f 74 353 276
f 288 76 286
f 288 286 283
f 289 288 287
f 203 54 201
f 287 288 77
f 77 288 283
f 286 48 283
f 531 423 113
f 276 11 259
f 11 261 259
f 277 276 259
f 616 158 615
f 516 616 615
f 138 516 615
f 138 615 612
f 509 533 532
f 503 502 504
f 635 79 294
f 635 294 404
f 635 637 79
f 637 635 638
f 638 635 108
f 635 404 108
f 226 61 405
f 61 226 227
f 405 61 409
f 227 226 207
f 48 178 179
f 48 286 178
f 173 48 179
f 534 143 533
f 534 535 143
f 531 534 533
f 533 143 532
f 137 531 533
f 261 372 371
f 13 180 178
f 285 13 178
f 180 13 166
f 13 168 166
f 346 345 284
f 331 327 46
f 46 327 172
f 172 327 326
f 382 620 101
f 442 121 448
f 443 121 442
f 2 226 404
f 294 2 404
f 404 226 405
f 207 226 2
f 550 551 145
f 552 146 551
f 143 550 532
f 552 550 143
f 330 329 328
f 24 636 629
f 94 352 353
f 352 11 276
f 113 428 534
f 428 535 534
f 509 41 511
f 535 552 143
f 550 552 551
f 550 542 532
f 369 95 368
f 326 327 87
f 87 327 329
f 327 331 329
f 581 326 87
f 293 79 298
f 79 297 298
f 296 298 78
f 79 293 294
f 296 293 298
f 598 490 38
f 358 280 22
f 280 279 278
f 357 358 95
f 74 357 353
f 330 328 25
f 567 23 559
f 590 598 38
f 590 604 598
f 598 604 155
f 604 590 154
f 590 591 154
f 604 154 606
f 297 299 298
f 299 318 78
f 298 299 78
f 355 354 356
f 629 636 642
f 312 24 629
f 629 642 160
f 370 362 97
f 362 363 97
f 363 366 97
f 364 363 362
f 362 370 351
f 96 363 364
f 297 636 24
f 162 637 638
f 637 297 79
f 490 488 38
f 598 597 490
f 441 442 119
f 443 442 441
f 443 441 5
f 442 448 445
f 296 78 295
f 326 12 172
f 575 574 364
f 47 175 176
f 175 177 176
f 47 176 179
