# FEM surface export ¡ª frame 480
# Vertices: 642  Faces: 1280
v -0.51635474 1.00210512 -0.00323168
v 0.51634359 1.00293493 -0.00035806
v -0.57065070 0.23510639 0.03003155
v 0.52721137 0.26636475 0.03164258
v -0.01919993 0.04029506 0.98935157
v 0.00308071 0.73985434 0.86767370
v -0.00450859 0.00954177 -0.96145660
v 0.00063753 0.73402292 -0.86611539
v 0.90425074 0.28253275 -0.56666350
v 0.90988594 0.28151929 0.55603176
v -0.90779370 0.28464633 -0.54818368
v -0.90176052 0.27684835 0.56375754
v -0.82673186 0.71034807 0.31950730
v -0.51848465 0.54751140 0.83871627
v -0.30439252 0.97153902 0.49236897
v 0.30755740 0.97109640 0.49386615
v -0.00044066 1.11468446 -0.00148683
v 0.30576429 0.97135937 -0.49335995
v -0.30664179 0.97011960 -0.49593502
v -0.51622474 0.53892565 -0.83352685
v -0.82479751 0.70768166 -0.31761473
v -1.05451286 0.26270631 0.00249691
v 0.52540493 0.54546779 0.83741915
v 0.82845849 0.71405482 0.31643328
v -0.57314241 0.04288341 0.94439411
v -0.00027539 0.26867586 1.05618727
v -0.91071653 0.02174425 -0.36810994
v -0.93873650 0.00186686 0.32440227
v -0.00035794 0.28946081 -1.07138276
v -0.58295697 0.05468413 -0.93935961
v 0.82582498 0.71372437 -0.31581530
v 0.51617759 0.54862803 -0.83595490
v 0.95200908 0.00495530 0.36086261
v 0.58270335 0.01980004 0.91600913
v 0.32737947 0.12457667 0.51038319
v -0.34589392 0.14735083 0.51837277
v 0.00599521 0.07007799 0.08070435
v -0.31579128 0.04506386 -0.47484073
v 0.33352295 0.08269262 -0.50492632
v 0.57409388 0.04087931 -0.94355249
v 0.95162088 0.02278490 -0.36938897
v 1.06890786 0.27193341 -0.00591100
v -0.69416296 0.88348603 0.15920278
v -0.58753002 0.87365282 0.42480850
v -0.42529976 1.01223207 0.25261655
v -0.73014337 0.41134933 0.72544175
v -0.70773244 0.64731914 0.60363752
v -0.89734107 0.49721512 0.44922870
v -0.15868118 0.87844986 0.70239449
v -0.43163562 0.79192573 0.69658560
v -0.26610687 0.66104966 0.88730675
v -0.15524641 1.07810235 0.25373125
v -0.26357144 1.08751261 -0.00093807
v 0.16124500 0.87643367 0.70199364
v 0.00158979 1.00271463 0.51589340
v 0.26280835 1.08741152 -0.00077715
v 0.15876789 1.08087516 0.25466785
v 0.42666337 1.01213849 0.25456196
v -0.15876523 1.07872212 -0.25813869
v -0.42553890 1.01166177 -0.25731823
v 0.42555004 1.01363707 -0.25497195
v 0.15571317 1.07981503 -0.25778374
v -0.16007768 0.87470049 -0.70283252
v 0.00121745 1.00122201 -0.51872659
v 0.16102467 0.87545943 -0.70243871
v -0.58946443 0.86847407 -0.42700815
v -0.69293940 0.88087249 -0.16325112
v -0.26624703 0.65219474 -0.88351130
v -0.42940789 0.78724849 -0.69700426
v -0.89125526 0.49867368 -0.44363663
v -0.70410275 0.64353925 -0.60518587
v -0.73531801 0.41253722 -0.71861488
v -0.86557597 0.73186493 0.00117913
v -1.02630353 0.28797019 -0.28959051
v -0.98765057 0.50271428 -0.16252413
v -0.98329252 0.49507913 0.17059435
v -1.01885557 0.26439276 0.29316777
v 0.59078121 0.87054914 0.42578158
v 0.69325560 0.88450181 0.16045497
v 0.27120799 0.65585899 0.88773870
v 0.43192941 0.78619415 0.69542819
v 0.90031749 0.50440025 0.45045432
v 0.71118450 0.64891714 0.60236156
v 0.74253798 0.41688773 0.72311783
v -0.27624476 0.41768178 0.99416226
v -0.00025583 0.51522654 1.00128520
v -0.76442140 0.14282446 0.76088101
v -0.55467725 0.27639541 0.89566851
v -0.00247361 0.06801764 1.08651149
v -0.27968994 0.14851615 1.03465199
v -0.32510096 0.00000000 1.02197385
v -1.08273065 0.09281240 0.19210975
v -0.98387069 0.07721379 0.49437419
v -0.98970133 0.09294245 -0.48473513
v -1.08780479 0.10153247 -0.17846480
v -0.77071714 0.07729670 0.12298279
v -0.96391016 0.07036460 -0.03428375
v -0.73350340 0.20387390 -0.19782127
v -0.55927110 0.28791827 -0.90556073
v -0.77808917 0.16837196 -0.76449031
v 0.00043501 0.51641184 -0.99782926
v -0.27546471 0.41783810 -0.99572390
v -0.30936033 0.00000000 -0.99470162
v -0.29289424 0.15004288 -1.04658473
v -0.00721629 0.06877907 -1.09046900
v 0.43107501 0.79041159 -0.69726723
v 0.26735511 0.65384495 -0.88142604
v 0.69392771 0.88390702 -0.16089696
v 0.59012765 0.87280476 -0.42408487
v 0.73431963 0.42578006 -0.72311223
v 0.70728225 0.65183198 -0.60404325
v 0.89803237 0.50698388 -0.44999790
v 0.75506932 0.14486122 0.20071448
v 0.64410025 0.14066158 0.46889055
v 0.41303301 0.23261660 0.28331426
v 0.77713221 0.16073541 0.76960236
v 0.82911325 0.00000000 0.68660200
v 0.97646952 0.10236970 0.47679964
v 0.15777871 0.07118443 0.77179676
v 0.48038158 0.02721639 0.79305053
v 0.30207109 0.00000000 1.02642560
v 0.14074989 0.24922059 0.30776131
v 0.28325832 0.08014317 0.06315927
v -0.19828621 0.09271884 0.75455987
v -0.02601246 0.17306593 0.56325138
v -0.30075058 0.11557213 0.06685994
v -0.18157713 0.11668332 0.30892006
v -0.46756569 0.19377059 0.30614069
v 0.16416244 0.04582419 -0.22272548
v 0.47479102 0.09366121 -0.25275701
v -0.43770790 0.10940992 -0.23065089
v -0.16085421 0.03299343 -0.20914491
v 0.15788895 0.06717768 -0.74522454
v 0.03007843 0.04725122 -0.47817037
v -0.16466871 0.04757748 -0.70486867
v 0.65168309 0.09673609 -0.44518235
v 0.77053499 0.14261538 -0.14401290
v 0.31055564 0.00000000 -1.00573218
v 0.47627607 0.03950022 -0.75041366
v 0.98580468 0.08309071 -0.49635455
v 0.81487179 0.00000000 -0.69157630
v 0.77456266 0.16176744 -0.77675974
v 0.98540783 0.00532053 0.00878180
v 1.02923977 0.28303707 -0.30008838
v 1.08063006 0.09017989 -0.19136113
v 1.06930840 0.07282217 0.17933457
v 1.02810574 0.29021057 0.28404477
v 0.29495418 0.14583726 1.03958011
v 0.55975527 0.27885917 0.90625131
v 0.27438819 0.41625983 0.99715763
v -0.67158061 0.09424983 0.41664237
v -0.50513351 0.07165428 0.75737238
v -0.82149649 0.00000000 0.68759656
v -0.49078506 0.01809724 -0.71087581
v -0.61864364 0.14395899 -0.48488176
v -0.81518847 0.00001362 -0.67302775
v 0.55612481 0.28495777 -0.90221208
v 0.28720233 0.16683680 -1.05461049
v 0.27655298 0.42378983 -0.99414527
v 0.99209076 0.50948471 0.16661432
v 0.98669702 0.50508517 -0.16787392
v 0.86555976 0.73640531 0.00030653
v -0.60898489 0.95091301 0.07863636
v -0.56372660 0.95786148 0.20861633
v -0.47410443 1.01315701 0.12618074
v -0.71551329 0.80121684 0.37603030
v -0.64585590 0.88466823 0.29437414
v -0.76800990 0.80395871 0.23995242
v -0.36763063 0.99807352 0.37509024
v -0.50993723 0.95040351 0.34169859
v -0.44994336 0.93024969 0.46340069
v -0.82201755 0.34407407 0.64715219
v -0.82478911 0.45735946 0.59137613
v -0.90606338 0.38667417 0.50823545
v -0.62153643 0.60124815 0.72982752
v -0.72779161 0.53150177 0.66943914
v -0.63000685 0.48041013 0.78600359
v -0.87021297 0.60713845 0.38872975
v -0.80932003 0.57518810 0.53212422
v -0.77562696 0.68597585 0.46669471
v -0.08008208 0.81410277 0.79121763
v -0.21466582 0.77704579 0.80456722
v -0.13253544 0.70413440 0.88711524
v -0.37031779 0.88898718 0.60039699
v -0.29624316 0.84107077 0.70589268
v -0.23394902 0.93081176 0.60138321
v -0.39607641 0.60999489 0.87167311
v -0.35366964 0.73243374 0.79921776
v -0.48135456 0.67775929 0.77693176
v -0.65556794 0.77019835 0.52078474
v -0.57678878 0.72755504 0.65889174
v -0.51560289 0.84094667 0.56706643
v -0.34827602 1.05829072 0.12631294
v -0.39237854 1.05036509 -0.00174780
v -0.23090896 1.03444159 0.37621507
v -0.29308629 1.05264604 0.25575659
v -0.13305901 1.11082578 -0.00164863
v -0.21090648 1.08948767 0.12790608
v -0.07818694 1.10619056 0.12837306
v 0.08397260 0.81200850 0.78969127
v 0.00152243 0.88524318 0.70996100
v 0.15498577 0.99421704 0.50954616
v 0.08188680 0.94666380 0.61260808
v 0.23740210 0.92864972 0.60168570
v -0.07719375 0.94658738 0.61298680
v -0.15178210 0.99523568 0.50962448
v 0.39335361 1.05246913 -0.00047550
v 0.34839293 1.05929601 0.12843680
v 0.47493500 1.01461995 0.12759097
v 0.07976877 1.10563195 0.12787066
v 0.21326610 1.09173822 0.12929907
v 0.13246235 1.11102080 -0.00135448
v 0.37146023 0.99856806 0.37675604
v 0.29335031 1.05391550 0.25717777
v 0.23448730 1.03447604 0.37672943
v -0.07964814 1.05162263 0.38947067
v 0.08020503 1.05151546 0.38858956
v 0.00027060 1.08864176 0.25673696
v -0.34833139 1.05824256 -0.13039882
v -0.47416764 1.01259220 -0.13067570
v -0.07989655 1.10742009 -0.13056965
v -0.21312174 1.09198332 -0.13031851
v -0.37081927 0.99629140 -0.37947357
v -0.29390305 1.05237341 -0.25932345
v -0.23456492 1.03336287 -0.37996098
v 0.47513556 1.01563811 -0.12860557
v 0.34793600 1.06069922 -0.12953025
v 0.23233086 1.03461158 -0.37884253
v 0.29208964 1.05377495 -0.25854319
v 0.36853868 0.99800771 -0.37748253
v 0.21155322 1.09192896 -0.13025464
v 0.07815582 1.10831511 -0.13066636
v -0.08060355 0.80965507 -0.79082620
v 0.00157855 0.88233048 -0.71186453
v 0.08266977 0.80952501 -0.79135978
v -0.15438946 0.99263722 -0.51260108
v -0.07956447 0.94645619 -0.61664522
v -0.23566978 0.92852557 -0.60395712
v 0.23679066 0.92922962 -0.60292041
v 0.08165974 0.94604194 -0.61598867
v 0.15376762 0.99432743 -0.51205599
v -0.00130044 1.08884621 -0.26028079
v 0.07979961 1.05056226 -0.39057472
v -0.08067434 1.04991090 -0.39240366
v -0.56435561 0.95676607 -0.21377705
v -0.60958087 0.94972122 -0.08281217
v -0.45227444 0.92716360 -0.46780258
v -0.51129419 0.94785559 -0.34557024
v -0.76578760 0.79988426 -0.24214981
v -0.64793569 0.88153583 -0.29776964
v -0.71434253 0.79509962 -0.37777850
v -0.13328603 0.69632316 -0.88289309
v -0.21360278 0.77190983 -0.80314797
v -0.47797215 0.66898733 -0.77607316
v -0.35123265 0.72528070 -0.79823643
v -0.39497375 0.59934229 -0.86767340
v -0.29672423 0.83653349 -0.70797902
v -0.37126425 0.88774449 -0.60310858
v -0.90519232 0.38811666 -0.49637961
v -0.82555813 0.46124604 -0.58695853
v -0.82764214 0.34914312 -0.63769323
v -0.77324629 0.68298888 -0.46687099
v -0.80647117 0.57673550 -0.53106809
v -0.86777198 0.60936713 -0.38649976
v -0.63032705 0.47411534 -0.78283548
v -0.72601783 0.52987003 -0.66850960
v -0.61723936 0.59237874 -0.72556198
v -0.51666605 0.83268034 -0.56864029
v -0.57409692 0.71870273 -0.66168666
v -0.65482205 0.76424640 -0.52288336
v -0.70272249 0.89009410 -0.00177523
v -0.85571307 0.72640389 -0.16026257
v -0.78671086 0.81270850 -0.08409698
v -0.78743058 0.81379032 0.08118070
v -0.85597700 0.72642344 0.16262180
v -0.97187507 0.27977452 -0.42343339
v -0.96610421 0.38852131 -0.36739600
v -1.03110158 0.38203958 -0.08103886
v -1.01105177 0.39298606 -0.22391956
v -1.05472171 0.27336222 -0.14335312
v -0.95076990 0.50680619 -0.30948231
v -0.91742319 0.61033529 -0.24455225
v -0.96616638 0.38132575 0.37628487
v -0.96793705 0.27247173 0.43164620
v -0.91853720 0.60809010 0.24946326
v -0.95049572 0.49621105 0.31335694
v -1.05057049 0.26143512 0.14788587
v -1.00701904 0.37886897 0.23255965
v -1.03334868 0.38174415 0.08755631
v -0.93944401 0.62373006 -0.08240354
v -1.00327837 0.50406128 0.00486160
v -0.93933159 0.62093139 0.08749697
v 0.56437916 0.95842987 0.20998560
v 0.60839528 0.94937229 0.07922649
v 0.45275506 0.92878574 0.46567035
v 0.51310295 0.94876629 0.34228951
v 0.76814950 0.80601043 0.23983501
v 0.64858210 0.88571221 0.29536626
v 0.71755224 0.80214089 0.37628508
v 0.13729480 0.70158637 0.88619590
v 0.21859305 0.77235681 0.80275309
v 0.48419192 0.67385399 0.77695334
v 0.35518631 0.72399300 0.79724044
v 0.40077963 0.60198915 0.87044024
v 0.29703066 0.83512020 0.70520341
v 0.37263715 0.88549781 0.60083836
v 0.90856808 0.38869947 0.50697702
v 0.83033329 0.45925292 0.59227473
v 0.82979393 0.34723946 0.64551556
v 0.77883041 0.68677694 0.46549457
v 0.81217301 0.57819432 0.53184205
v 0.87254447 0.61208844 0.38697779
v 0.64117098 0.48460376 0.78990197
v 0.73476171 0.53431797 0.66986734
v 0.62714142 0.60268605 0.72801828
v 0.51855004 0.83621013 0.56735712
v 0.57723677 0.72452408 0.65752208
v 0.65858513 0.76816040 0.52199906
v -0.13491368 0.59178728 0.95660996
v 0.00131774 0.63237667 0.94278020
v -0.40326196 0.48685154 0.92716622
v -0.27449617 0.54305845 0.95077616
v -0.00157611 0.39352036 1.03867173
v -0.13985518 0.46837643 1.00848901
v -0.14156285 0.34517404 1.03757918
v -0.84395492 0.20323834 0.66683537
v -0.75236666 0.27369237 0.74587524
v -0.56080288 0.14822952 0.92236799
v -0.66207898 0.20473240 0.83561552
v -0.67504174 0.08865489 0.85566217
v -0.64512372 0.33838567 0.81519216
v -0.54041690 0.40796500 0.87208474
v 0.00011616 0.00010713 1.06867158
v -0.14969032 0.00150735 1.07956088
v -0.17137761 0.00587042 0.99938858
v -0.14104344 0.20801140 1.05712330
v -0.14732322 0.09770022 1.07190287
v -0.00278772 0.16016589 1.07606363
v -0.45864066 0.00301013 0.99228245
v -0.29168844 0.03999260 1.05224156
v -0.41672838 0.08205768 1.00175834
v -0.41933382 0.34317827 0.95447105
v -0.43037313 0.20681989 0.98266780
v -0.28329787 0.27999669 1.02250242
v -1.01450038 0.17027359 0.40051207
v -0.94239944 0.16619958 0.53446800
v -1.07945359 0.17002521 0.09217659
v -1.05604887 0.18026349 0.24538565
v -1.00436044 0.00000000 0.42950273
v -1.05188119 0.08337173 0.35078287
v -1.05175102 0.00000000 0.27084538
v -0.95420903 0.18450055 -0.52014470
v -1.01556337 0.18204923 -0.38671699
v -1.04981089 0.00121898 -0.27867329
v -1.03824520 0.07685182 -0.33582619
v -0.98553252 0.00000000 -0.44039434
v -1.06267452 0.18640251 -0.24692036
v -1.08713794 0.17782058 -0.09259949
v -0.67217249 0.15666948 0.09107502
v -0.75008816 0.10824038 -0.04732470
v -0.65454012 0.22755954 -0.08217208
v -0.94773698 0.01310604 0.14658004
v -0.87932855 0.03253997 0.03264160
v -0.85106081 0.09511467 0.23167805
v -0.82827938 0.13297737 -0.28607562
v -0.83871895 0.15115917 -0.11150230
v -0.91683966 0.05754367 -0.18692365
v -1.10448205 0.08408216 0.00370241
v -1.07757962 0.00000000 -0.10072812
v -1.07863033 0.00000000 0.08565062
v -0.75871819 0.28228953 -0.73926228
v -0.85327441 0.22184479 -0.65510130
v -0.54520744 0.41198891 -0.87899107
v -0.65848047 0.34332106 -0.81909823
v -0.68343866 0.09759872 -0.85439312
v -0.67045277 0.21857531 -0.84539485
v -0.56839979 0.16303498 -0.93145472
v 0.00103202 0.62791944 -0.93916786
v -0.13538300 0.58704072 -0.95182228
v -0.13915794 0.35541514 -1.04572499
v -0.13973331 0.47070482 -1.00511718
v -0.00041653 0.40558311 -1.04246950
v -0.27545244 0.53757179 -0.94639581
v -0.40215313 0.48315307 -0.92501503
v -0.15536492 0.00000000 -0.99625897
v -0.15983100 0.01019887 -1.06720245
v -0.00665103 0.00000000 -1.05857944
v -0.43683872 0.09089028 -1.00693488
v -0.30359378 0.04193186 -1.04489505
v -0.46183258 0.00123287 -0.99229819
v -0.00873408 0.17893150 -1.08484876
v -0.15516384 0.10688418 -1.08762848
v -0.14948060 0.22069785 -1.07119799
v -0.42099640 0.35056558 -0.96210676
v -0.28497577 0.28626141 -1.03233218
v -0.42641667 0.21836703 -0.98677963
v 0.21668559 0.77304196 -0.80212891
v 0.13484147 0.69916123 -0.88354200
v 0.37227479 0.88899708 -0.60091668
v 0.29798687 0.83894932 -0.70654374
v 0.39400524 0.60312581 -0.86614364
v 0.35296315 0.72665524 -0.79765022
v 0.47891036 0.67439061 -0.77667058
v 0.60965544 0.95074177 -0.08089796
v 0.56502426 0.95940959 -0.21020280
v 0.71523863 0.80041629 -0.37438741
v 0.64793426 0.88516062 -0.29453456
v 0.76656741 0.80358338 -0.23945385
v 0.51248085 0.95161968 -0.34253454
v 0.45258632 0.92995453 -0.46586561
v 0.82178259 0.35265335 -0.64763004
v 0.82753372 0.46915960 -0.59380579
v 0.90854996 0.39608744 -0.51230669
v 0.62031364 0.60601425 -0.73008382
v 0.72830474 0.54228210 -0.66973269
v 0.63183445 0.48781997 -0.78773403
v 0.86965346 0.61388087 -0.38608885
v 0.81138128 0.58483672 -0.53446245
v 0.77510065 0.68895495 -0.46464947
v 0.51864004 0.83962590 -0.56770909
v 0.65650231 0.76804966 -0.51950377
v 0.57470393 0.72655785 -0.65908825
v 0.64944297 0.20499094 0.11636496
v 0.59315139 0.21503973 0.24746230
v 0.45245531 0.26946193 0.16384068
v 0.79496461 0.05524328 0.40941659
v 0.71878034 0.12322725 0.33332002
v 0.85623115 0.05251971 0.27059254
v 0.37012523 0.11245234 0.39719963
v 0.53525674 0.17912684 0.36585936
v 0.47284019 0.13429888 0.49161109
v 0.85002702 0.21566322 0.66674656
v 0.89177096 0.12372814 0.63852704
v 0.94727486 0.18112262 0.52581173
v 0.72175401 0.00000000 0.82312667
v 0.80847347 0.06984579 0.74133867
v 0.68761772 0.09544274 0.85204315
v 0.98699719 0.00042882 0.44340834
v 0.91078806 0.05791134 0.58703810
v 0.90847319 0.00004642 0.54514259
v 0.06086127 0.04413871 0.87743026
v 0.22400993 0.05553026 0.89558679
v 0.14034006 0.00064000 1.00861490
v 0.39408967 0.10706725 0.65648288
v 0.32308927 0.04182252 0.77933210
v 0.25374520 0.06564504 0.64022887
v 0.44918981 0.00000000 0.98326129
v 0.39442629 0.00174744 0.91639459
v 0.54932624 0.00000000 0.88856709
v 0.73058599 0.09308866 0.57239807
v 0.67311090 0.00174209 0.75294781
v 0.56268370 0.05549806 0.62666857
v 0.39324930 0.10115112 0.20633504
v 0.41606095 0.14582948 0.04521261
v 0.20056379 0.11098506 0.40589878
v 0.28484115 0.12925169 0.32325932
v 0.16006471 0.07460488 0.05913683
v 0.21987422 0.11429994 0.21861812
v 0.09839735 0.12986101 0.19181412
v -0.12202938 0.08619625 0.85517544
v -0.00904173 0.11197153 0.75626606
v -0.18351698 0.18417206 0.56137031
v -0.10556989 0.14534576 0.67487305
v -0.28405139 0.13221589 0.65198171
v 0.08517133 0.12451292 0.65347993
v 0.13779747 0.05801738 0.52934009
v -0.44855762 0.14846647 0.03700553
v -0.38375422 0.24463227 0.16244599
v -0.53249460 0.23737270 0.16881156
v -0.07670647 0.13146019 0.19017313
v -0.22300853 0.23610239 0.17975539
v -0.15389109 0.11665414 0.08590846
v -0.42305145 0.20246606 0.39314193
v -0.30703026 0.15932494 0.27438834
v -0.27795753 0.22728066 0.43974119
v 0.07527652 0.22573638 0.46296406
v -0.10106271 0.23746903 0.43676791
v 0.00808484 0.10508382 0.34163454
v 0.39653382 0.08898449 -0.08871285
v 0.50824499 0.20607847 -0.12431093
v 0.09508239 0.05109869 -0.07517027
v 0.23511720 0.04371992 -0.08216643
v 0.39764071 0.18041350 -0.37917671
v 0.32650796 0.05336024 -0.24078263
v 0.24291229 0.08688141 -0.35595289
v -0.54376495 0.13369720 -0.09298000
v -0.40148434 0.09494700 -0.10773049
v -0.23267035 0.05234040 -0.35114971
v -0.30900449 0.06341179 -0.22789524
v -0.38672966 0.09389871 -0.37020311
v -0.24362789 0.03336694 -0.06297375
v -0.10292748 0.06364011 -0.05567661
v 0.07322675 0.05589833 -0.86934090
v -0.02813516 0.04693276 -0.74484873
v -0.10006160 0.06714207 -0.86413258
v 0.17908354 0.08596586 -0.50693834
v 0.05066352 0.09835093 -0.62244725
v 0.23826119 0.12943825 -0.64898705
v -0.22670980 0.01624663 -0.59691346
v -0.09398853 0.03082366 -0.57091790
v -0.14409725 0.03299022 -0.46779394
v 0.01261331 0.04177643 -0.21482240
v -0.05862367 0.06313390 -0.36516324
v 0.10701475 0.08453026 -0.36245692
v 0.63430035 0.19261515 -0.19815287
v 0.64033329 0.19540277 -0.04637463
v 0.49302641 0.16288133 -0.47914168
v 0.55525351 0.17768888 -0.34356189
v 0.86815518 0.08403644 -0.25796577
v 0.70946312 0.11916043 -0.31053197
v 0.80224240 0.06639055 -0.40597415
v 0.15294266 0.00000000 -1.00509763
v 0.22619531 0.02168416 -0.88774884
v 0.55178124 0.00164036 -0.87613153
v 0.39860564 0.00148463 -0.87960720
v 0.45885137 0.00000000 -0.98967427
v 0.31964672 0.06302721 -0.76861948
v 0.39889058 0.11215805 -0.64957643
v 0.94988680 0.18198177 -0.53721452
v 0.89486736 0.12299330 -0.64617717
v 0.84563559 0.21739785 -0.67066169
v 0.86305290 0.00000000 -0.53434581
v 0.92738634 0.03641853 -0.60525644
v 0.98907989 0.00000000 -0.45337057
v 0.68588775 0.09589138 -0.86644596
v 0.81895107 0.07048258 -0.75334096
v 0.71261472 0.00361213 -0.83284235
v 0.55606449 0.08104543 -0.59147912
v 0.65027368 0.01782855 -0.72137409
v 0.72972322 0.08205075 -0.56535888
v 0.76994056 0.14318943 0.04265141
v 0.97497368 0.03864056 -0.16717662
v 0.87126398 0.08672742 -0.06578755
v 0.88570523 0.07327445 0.12199154
v 0.96622860 0.01071592 0.17845599
v 0.97783923 0.28949317 -0.44005305
v 1.01476133 0.18450452 -0.40378270
v 1.08732641 0.16189848 -0.09612007
v 1.06176639 0.17926577 -0.24993715
v 1.06053615 0.27603832 -0.14998564
v 1.05229080 0.08883169 -0.36061049
v 1.04033482 0.04539254 -0.28682056
v 1.01124954 0.18521826 0.37822014
v 0.97868514 0.28101218 0.42149964
v 1.03726196 0.00000000 0.27647486
v 1.02950692 0.07261533 0.33272028
v 1.05434585 0.27878451 0.14034829
v 1.05750024 0.17965290 0.23240420
v 1.07580197 0.17099708 0.08039262
v 1.08409750 0.00000000 -0.10603847
v 1.10484195 0.06593588 -0.00099053
v 1.07822978 0.00000000 0.09247585
v 0.15603335 0.00000000 1.07068574
v 0.44124302 0.07073700 0.99525487
v 0.31340426 0.05901557 1.05336678
v 0.15224555 0.10562571 1.07705808
v 0.14395943 0.20145670 1.05600345
v 0.75999725 0.28715402 0.74906844
v 0.54961783 0.41202602 0.88448095
v 0.65806949 0.34972411 0.82521105
v 0.67307007 0.21837568 0.84884906
v 0.57014871 0.14958498 0.92456746
v 0.13839562 0.59023559 0.95692396
v 0.13679790 0.34304518 1.03703284
v 0.13825409 0.46738595 1.00715065
v 0.27781439 0.53983766 0.95172340
v 0.40583995 0.48388925 0.92931277
v 0.43266368 0.20052865 0.98552477
v 0.42161849 0.34326032 0.96441853
v 0.28238899 0.27214366 1.02287483
v -0.63192099 0.14679046 0.23098589
v -0.51408190 0.12529463 0.47394657
v -0.59747857 0.16931069 0.35902396
v -0.72780216 0.08832347 0.26630530
v -0.81843728 0.08768380 0.38276565
v -0.26454836 0.02916738 0.88096249
v -0.57333189 0.00000000 0.88503337
v -0.42916006 0.01151993 0.89218390
v -0.35406420 0.10168150 0.74646932
v -0.44016027 0.11635418 0.61314559
v -0.88289583 0.09886029 0.63934851
v -0.89359438 0.00764735 0.51374173
v -0.91461897 0.02446428 0.59806544
v -0.80586129 0.05216122 0.74694967
v -0.71218592 0.00000000 0.83539099
v -0.59584266 0.04360760 0.59555781
v -0.68272382 0.00721027 0.72698867
v -0.76616174 0.01305426 0.54920429
v -0.22818673 0.01570063 -0.84531122
v -0.36357224 0.12922671 -0.61941016
v -0.32642296 0.00521664 -0.69833326
v -0.40141869 0.00053213 -0.84623754
v -0.56265152 0.00000000 -0.88052267
v -0.61093050 0.12175243 -0.21498844
v -0.77110410 0.09915967 -0.42237824
v -0.69014102 0.18321034 -0.35019001
v -0.54222614 0.06310115 -0.35803744
v -0.47409269 0.01866817 -0.47619119
v -0.89396799 0.13402089 -0.64165789
v -0.71481812 0.00000000 -0.82456231
v -0.81095904 0.06928822 -0.75108349
v -0.91178793 0.02643744 -0.59296727
v -0.86273128 0.00000000 -0.54122108
v -0.53163922 0.12663470 -0.61983073
v -0.71178585 0.05588252 -0.59626591
v -0.65217948 0.00007973 -0.73942608
v 0.75581962 0.29060155 -0.74687052
v 0.57285148 0.16540684 -0.92979139
v 0.66956431 0.22116762 -0.84567446
v 0.65485740 0.35694584 -0.82089889
v 0.54422981 0.41792476 -0.87526548
v 0.14756842 0.01365197 -1.06364846
v 0.14316563 0.22501718 -1.07468569
v 0.14030537 0.11714088 -1.07497871
v 0.30316570 0.05713395 -1.05680490
v 0.43689114 0.11694471 -1.01426327
v 0.13827343 0.59051692 -0.95109135
v 0.40275541 0.48771703 -0.92374146
v 0.27556935 0.53956586 -0.94430071
v 0.13919337 0.47369838 -1.00525045
v 0.13996425 0.35784960 -1.04125392
v 0.42955080 0.22677089 -0.98929685
v 0.28256443 0.29407722 -1.03239703
v 0.42140654 0.35619903 -0.96084493
v 0.97444832 0.39447540 0.37705061
v 1.04218531 0.38955122 0.08737300
v 1.02565336 0.39947379 0.23340978
v 0.95484436 0.51093733 0.31251171
v 0.91939819 0.61520803 0.24565680
v 0.97135371 0.39324781 -0.37698266
v 0.91682172 0.61627668 -0.24696565
v 0.95381254 0.50760597 -0.31168002
v 1.01379657 0.38971579 -0.23226191
v 1.03987503 0.39037552 -0.08710552
v 0.70129645 0.89106464 -0.00019109
v 0.85678363 0.73056853 0.15964144
v 0.78682005 0.81740695 0.08288565
v 0.78698671 0.81561190 -0.08154579
v 0.85624135 0.72948217 -0.15836753
v 1.00361109 0.50636703 -0.00053702
v 0.94240803 0.62746423 -0.08454361
v 0.94137788 0.62731010 0.08389174
f 330 87 329
f 336 325 26
f 207 208 56
f 464 36 580
f 502 129 504
f 157 624 622
f 308 311 82
f 247 223 248
f 507 483 508
f 331 88 329
f 494 500 497
f 156 601 602
f 591 589 592
f 365 98 596
f 75 281 282
f 152 587 577
f 149 559 560
f 555 121 553
f 530 141 529
f 515 517 139
f 361 594 98
f 250 67 249
f 157 608 609
f 294 293 209
f 317 81 316
f 557 338 26
f 303 305 81
f 530 529 528
f 101 381 382
f 415 418 111
f 192 184 50
f 412 110 411
f 20 384 256
f 131 594 486
f 281 264 282
f 347 287 348
f 28 349 582
f 165 163 1
f 248 250 66
f 617 107 398
f 273 271 274
f 456 115 453
f 558 561 560
f 335 576 91
f 331 177 332
f 116 433 436
f 351 370 92
f 136 511 530
f 239 240 65
f 247 258 19
f 304 23 567
f 148 557 570
f 214 208 58
f 440 426 450
f 268 270 269
f 258 247 268
f 204 202 16
f 466 125 465
f 517 513 133
f 168 275 274
f 275 73 274
f 198 193 53
f 309 308 307
f 510 511 136
f 415 416 110
f 131 490 597
f 473 475 474
f 414 415 111
f 493 495 494
f 496 504 485
f 433 116 432
f 600 375 601
f 240 234 65
f 418 415 412
f 486 361 3
f 567 566 304
f 380 393 29
f 17 199 197
f 491 492 132
f 451 449 435
f 218 217 216
f 623 621 613
f 396 104 395
f 433 439 436
f 628 160 627
f 215 202 217
f 209 207 2
f 427 113 424
f 434 10 544
f 434 433 432
f 199 17 210
f 150 564 565
f 489 491 132
f 275 13 285
f 497 500 134
f 125 466 476
f 578 152 577
f 208 214 211
f 328 88 343
f 356 27 603
f 150 566 567
f 372 100 371
f 190 191 47
f 235 8 398
f 260 261 72
f 422 403 414
f 422 414 111
f 453 454 123
f 349 583 582
f 521 520 519
f 425 453 115
f 616 622 158
f 483 130 508
f 151 586 572
f 212 17 232
f 400 397 402
f 377 396 99
f 41 522 511
f 510 508 505
f 549 547 42
f 475 473 36
f 510 137 509
f 222 221 197
f 430 115 429
f 220 194 1
f 305 54 204
f 621 29 613
f 192 171 184
f 460 335 5
f 88 331 332
f 74 277 279
f 300 301 80
f 390 389 388
f 165 45 164
f 146 549 551
f 291 278 75
f 448 120 445
f 147 543 544
f 607 610 609
f 603 602 356
f 139 529 514
f 333 553 443
f 92 368 347
f 261 260 259
f 300 6 200
f 46 177 331
f 284 283 174
f 301 300 200
f 471 468 474
f 54 305 301
f 302 304 303
f 569 150 567
f 150 569 570
f 294 209 2
f 628 629 160
f 548 543 147
f 147 625 627
f 63 233 234
f 426 427 114
f 41 509 532
f 198 52 196
f 614 105 612
f 147 627 547
f 81 305 306
f 549 548 547
f 54 301 200
f 342 88 332
f 264 281 70
f 193 194 53
f 455 429 456
f 187 321 14
f 479 130 484
f 147 544 625
f 458 456 453
f 304 80 303
f 314 84 313
f 488 503 501
f 321 332 14
f 423 425 424
f 305 204 306
f 341 339 25
f 514 40 516
f 625 628 627
f 340 339 341
f 105 614 391
f 243 228 62
f 318 316 78
f 75 278 279
f 357 355 353
f 238 257 63
f 466 455 476
f 425 423 4
f 448 449 120
f 408 638 108
f 292 275 285
f 22 278 289
f 515 513 517
f 501 503 134
f 622 623 158
f 134 503 504
f 195 216 206
f 163 271 246
f 619 617 620
f 62 228 229
f 163 165 164
f 453 425 454
f 489 132 488
f 82 628 625
f 58 208 209
f 525 608 40
f 626 547 627
f 518 517 498
f 489 487 491
f 557 26 564
f 325 336 344
f 541 145 539
f 40 616 516
f 338 556 89
f 250 248 245
f 139 514 515
f 98 594 596
f 246 220 1
f 112 413 630
f 9 536 413
f 156 600 601
f 332 177 14
f 321 342 332
f 156 606 600
f 584 330 585
f 302 303 81
f 584 87 330
f 330 25 585
f 400 239 65
f 439 440 117
f 95 358 368
f 597 594 131
f 594 361 486
f 246 67 245
f 561 562 149
f 28 364 362
f 55 216 217
f 427 430 114
f 267 20 254
f 556 555 553
f 84 309 558
f 311 310 312
f 609 525 142
f 256 68 255
f 124 460 461
f 82 311 312
f 307 308 82
f 589 135 495
f 527 40 514
f 112 418 412
f 20 256 254
f 258 238 19
f 267 254 269
f 273 272 249
f 392 391 393
f 137 533 509
f 122 455 456
f 9 413 411
f 130 480 505
f 333 443 5
f 527 525 40
f 589 495 385
f 39 496 485
f 223 225 224
f 414 416 415
f 219 222 53
f 145 538 539
f 413 412 411
f 469 468 467
f 183 181 6
f 191 192 50
f 429 35 431
f 292 285 76
f 413 112 412
f 415 110 412
f 43 164 167
f 467 468 126
f 617 101 620
f 450 451 117
f 438 546 545
f 619 620 159
f 17 212 210
f 124 579 576
f 584 153 583
f 460 124 576
f 3 469 467
f 311 308 314
f 6 320 183
f 389 104 388
f 251 250 249
f 194 165 1
f 291 289 278
f 287 77 348
f 238 258 257
f 139 517 518
f 238 236 19
f 223 247 19
f 382 380 29
f 39 518 498
f 361 359 3
f 69 255 257
f 139 518 528
f 33 545 535
f 387 385 7
f 69 268 269
f 477 462 125
f 454 479 123
f 121 555 447
f 451 435 117
f 454 425 4
f 233 252 8
f 124 463 464
f 69 258 268
f 168 167 166
f 583 153 582
f 384 394 102
f 138 512 513
f 57 210 211
f 254 256 255
f 607 609 142
f 324 319 86
f 289 291 76
f 291 292 76
f 384 102 383
f 422 421 420
f 221 17 197
f 383 102 381
f 376 377 99
f 99 373 374
f 386 105 392
f 438 33 440
f 90 341 343
f 281 75 279
f 574 571 96
f 628 82 312
f 221 222 59
f 127 471 474
f 595 605 603
f 551 538 145
f 334 91 340
f 322 324 85
f 305 303 301
f 18 239 399
f 306 204 16
f 199 198 197
f 166 190 180
f 303 80 301
f 267 266 265
f 626 42 547
f 16 215 213
f 349 351 350
f 295 16 213
f 68 379 252
f 250 251 66
f 627 160 626
f 383 68 256
f 343 88 342
f 507 508 136
f 202 215 16
f 197 198 53
f 254 69 269
f 603 605 156
f 418 419 111
f 384 383 256
f 455 122 476
f 203 204 54
f 556 557 148
f 255 68 253
f 313 84 560
f 25 328 341
f 254 255 69
f 603 156 602
f 581 584 583
f 630 632 112
f 163 246 1
f 246 245 220
f 432 116 558
f 499 591 590
f 320 563 86
f 345 93 350
f 306 16 295
f 346 93 345
f 562 568 149
f 604 605 155
f 154 592 593
f 545 552 535
f 511 522 530
f 574 573 571
f 566 150 565
f 361 98 360
f 67 271 273
f 234 235 65
f 208 211 56
f 574 151 573
f 251 270 66
f 398 8 378
f 213 215 214
f 438 440 439
f 315 314 313
f 263 71 262
f 20 373 384
f 496 134 504
f 329 88 328
f 81 306 316
f 555 556 148
f 592 589 103
f 617 619 107
f 227 207 56
f 571 359 96
f 446 466 465
f 206 216 55
f 359 571 469
f 568 148 570
f 34 437 435
f 28 351 349
f 21 272 282
f 113 423 424
f 490 489 488
f 379 68 383
f 210 212 211
f 80 563 300
f 351 92 350
f 326 346 12
f 83 317 318
f 555 148 554
f 212 231 56
f 218 57 217
f 271 67 246
f 195 196 52
f 270 268 66
f 390 592 103
f 148 568 554
f 495 493 7
f 592 390 593
f 357 95 355
f 574 575 151
f 452 120 451
f 154 591 592
f 587 585 577
f 395 394 396
f 93 349 350
f 610 416 611
f 166 44 190
f 315 23 302
f 315 302 317
f 268 247 66
f 606 154 593
f 396 394 99
f 211 212 56
f 370 369 368
f 235 397 65
f 280 278 22
f 83 315 317
f 575 588 151
f 74 279 280
f 385 495 7
f 63 257 253
f 397 235 398
f 214 58 213
f 220 219 194
f 546 146 545
f 236 225 19
f 599 94 602
f 235 233 8
f 102 394 395
f 611 416 32
f 225 223 19
f 139 528 529
f 231 62 229
f 419 406 421
f 451 450 452
f 49 182 185
f 402 397 107
f 52 199 218
f 416 610 110
f 225 236 244
f 107 397 398
f 68 252 253
f 322 85 321
f 182 181 183
f 118 438 439
f 546 438 118
f 348 77 345
f 543 546 118
f 231 212 232
f 610 611 157
f 33 438 545
f 385 386 103
f 479 480 130
f 169 195 15
f 93 583 349
f 15 195 206
f 190 44 192
f 247 248 66
f 146 552 545
f 248 60 245
f 570 557 564
f 274 271 43
f 63 253 233
f 272 21 249
f 507 528 518
f 67 273 249
f 487 467 126
f 196 195 169
f 624 159 623
f 134 496 497
f 132 503 488
f 104 393 395
f 556 553 89
f 355 356 94
f 258 69 257
f 229 61 227
f 56 231 227
f 460 576 335
f 463 124 461
f 394 373 99
f 29 393 391
f 67 250 245
f 193 198 196
f 462 36 464
f 144 633 630
f 141 526 527
f 517 133 498
f 536 144 630
f 100 372 599
f 144 536 537
f 22 289 287
f 578 579 152
f 579 578 576
f 189 188 187
f 60 223 224
f 92 348 350
f 555 554 447
f 396 377 388
f 194 193 165
f 413 536 630
f 372 352 599
f 377 376 375
f 348 345 350
f 105 386 387
f 240 237 234
f 463 462 464
f 135 500 494
f 45 196 169
f 512 612 387
f 245 60 220
f 429 115 456
f 223 60 248
f 288 289 76
f 525 526 142
f 100 599 601
f 613 29 391
f 526 523 520
f 341 328 343
f 631 641 639
f 264 21 282
f 266 72 265
f 106 402 403
f 73 273 274
f 186 206 205
f 381 379 383
f 52 216 195
f 410 18 399
f 290 272 73
f 72 371 374
f 526 525 527
f 115 430 424
f 498 497 496
f 621 382 29
f 543 118 434
f 214 215 57
f 522 141 530
f 511 510 509
f 352 94 599
f 493 512 7
f 90 340 341
f 169 171 170
f 605 604 606
f 219 60 224
f 104 389 392
f 359 469 3
f 186 49 185
f 222 219 224
f 166 167 44
f 428 427 426
f 523 522 524
f 129 502 481
f 50 185 188
f 164 45 170
f 425 115 424
f 33 428 426
f 427 428 113
f 94 356 602
f 515 138 513
f 114 431 452
f 237 236 238
f 215 217 57
f 95 354 355
f 220 60 219
f 515 514 516
f 183 320 319
f 222 197 53
f 559 569 567
f 300 320 6
f 435 436 117
f 96 360 363
f 640 642 641
f 242 243 62
f 140 537 519
f 508 130 505
f 420 410 399
f 537 539 144
f 317 316 318
f 426 114 450
f 186 15 206
f 311 83 310
f 625 544 307
f 544 10 307
f 168 43 167
f 185 182 188
f 369 354 95
f 44 171 192
f 605 606 156
f 548 549 146
f 100 601 375
f 149 568 569
f 381 380 382
f 455 466 35
f 480 479 454
f 543 548 546
f 493 133 513
f 492 472 37
f 477 125 476
f 491 487 126
f 337 336 338
f 588 153 587
f 576 578 91
f 633 161 632
f 96 359 360
f 39 485 483
f 101 617 378
f 193 45 165
f 163 164 43
f 618 624 611
f 507 136 528
f 561 149 560
f 641 162 639
f 116 561 558
f 494 133 493
f 253 252 233
f 63 237 238
f 392 393 104
f 440 450 117
f 93 581 583
f 386 385 387
f 120 449 451
f 421 422 111
f 486 3 467
f 302 81 317
f 633 632 630
f 462 475 36
f 376 99 374
f 489 490 131
f 447 449 448
f 387 612 105
f 106 420 399
f 173 46 172
f 492 491 472
f 316 306 295
f 22 287 347
f 109 410 420
f 507 39 483
f 559 23 313
f 214 57 211
f 196 45 193
f 10 434 432
f 422 106 403
f 626 160 640
f 487 486 467
f 542 41 532
f 400 106 399
f 444 120 452
f 198 199 52
f 475 127 474
f 621 620 382
f 621 623 159
f 450 114 452
f 92 347 348
f 376 100 375
f 434 118 433
f 503 132 502
f 337 90 336
f 537 536 519
f 395 393 380
f 201 54 200
f 171 44 170
f 355 94 353
f 58 296 213
f 422 420 106
f 595 365 596
f 569 568 570
f 523 140 520
f 114 430 431
f 218 210 57
f 304 566 80
f 639 162 638
f 261 371 72
f 548 147 547
f 498 133 497
f 150 570 564
f 222 224 59
f 142 526 520
f 437 436 435
f 141 522 523
f 137 510 505
f 173 179 176
f 559 149 569
f 121 447 448
f 563 320 300
f 102 395 380
f 257 255 253
f 642 162 641
f 83 311 314
f 216 52 218
f 512 493 513
f 23 304 302
f 91 339 340
f 512 138 612
f 159 620 621
f 218 199 210
f 364 28 575
f 83 318 310
f 168 274 43
f 136 530 528
f 140 523 524
f 495 135 494
f 233 235 234
f 566 563 80
f 25 339 577
f 277 74 276
f 475 462 477
f 133 494 497
f 436 437 116
f 389 386 392
f 548 146 546
f 441 460 5
f 10 309 307
f 65 397 400
f 543 434 544
f 640 641 161
f 272 273 73
f 581 93 346
f 419 421 111
f 319 320 86
f 180 179 178
f 127 475 477
f 231 229 227
f 337 334 340
f 136 508 510
f 308 309 84
f 237 63 234
f 447 554 34
f 252 379 378
f 315 83 314
f 608 622 616
f 338 336 26
f 337 338 89
f 13 275 168
f 209 208 207
f 436 439 117
f 628 312 629
f 360 366 363
f 364 574 96
f 359 361 360
f 466 446 35
f 500 501 134
f 406 109 421
f 135 589 591
f 601 599 602
f 340 90 337
f 481 492 37
f 522 41 524
f 78 316 295
f 131 486 487
f 403 32 414
f 634 626 640
f 151 572 573
f 515 516 138
f 8 252 378
f 265 72 374
f 9 521 519
f 538 549 42
f 368 358 347
f 588 587 586
f 458 453 123
f 589 385 103
f 502 492 481
f 32 416 414
f 430 427 424
f 153 585 587
f 540 144 539
f 370 368 92
f 209 293 58
f 428 33 535
f 326 581 346
f 625 307 82
f 575 28 582
f 6 181 200
f 421 109 420
f 553 121 443
f 160 642 640
f 153 584 585
f 309 432 558
f 334 337 89
f 23 315 313
f 271 163 43
f 296 295 213
f 39 498 496
f 118 439 433
f 531 113 534
f 293 296 58
f 28 362 351
f 489 131 487
f 431 444 452
f 84 558 560
f 98 366 360
f 45 169 170
f 379 101 378
f 462 463 125
f 308 84 314
f 10 432 309
f 299 24 310
f 132 492 502
f 512 387 7
f 639 638 408
f 565 323 86
f 59 244 242
f 106 400 402
f 440 33 426
f 566 565 563
f 617 398 378
f 224 225 59
f 410 109 409
f 239 400 399
f 194 219 53
f 358 22 347
f 610 157 609
f 27 595 603
f 479 484 482
f 142 520 521
f 585 25 577
f 339 578 577
f 408 407 406
f 407 109 406
f 31 408 406
f 407 408 108
f 31 639 408
f 419 31 406
f 608 616 40
f 430 429 431
f 455 35 429
f 35 444 431
f 188 51 187
f 188 182 51
f 51 322 187
f 322 51 319
f 51 182 183
f 319 51 183
f 187 322 321
f 322 319 324
f 381 101 379
f 405 407 108
f 404 405 108
f 286 285 178
f 407 405 409
f 109 407 409
f 191 175 47
f 167 164 170
f 50 184 185
f 44 167 170
f 64 244 236
f 243 244 64
f 50 188 189
f 541 542 145
f 442 445 119
f 339 91 578
f 445 446 119
f 624 623 622
f 611 624 157
f 523 526 141
f 141 527 529
f 527 514 529
f 445 120 444
f 446 445 444
f 35 446 444
f 613 614 158
f 158 614 615
f 623 613 158
f 614 613 391
f 614 612 615
f 371 376 374
f 100 376 371
f 479 482 123
f 373 394 384
f 540 42 634
f 633 540 634
f 538 42 540
f 633 634 161
f 161 634 640
f 42 626 634
f 540 633 144
f 557 556 338
f 553 333 89
f 262 21 264
f 251 21 262
f 5 335 333
f 270 251 262
f 21 251 249
f 600 593 30
f 606 593 600
f 600 30 375
f 593 390 30
f 30 377 375
f 390 388 30
f 30 388 377
f 228 243 241
f 470 478 459
f 470 127 478
f 127 477 478
f 184 186 185
f 478 477 476
f 122 478 476
f 357 74 280
f 518 39 507
f 344 342 85
f 325 344 85
f 342 344 343
f 85 342 321
f 344 90 343
f 90 344 336
f 482 129 481
f 482 481 457
f 482 457 123
f 481 37 457
f 449 447 34
f 435 449 34
f 470 472 471
f 472 470 37
f 470 471 127
f 472 126 471
f 126 468 471
f 470 459 37
f 491 126 472
f 504 129 485
f 221 59 242
f 125 463 465
f 437 34 562
f 561 437 562
f 554 568 562
f 34 554 562
f 437 561 116
f 390 103 389
f 103 386 389
f 392 105 391
f 572 586 580
f 572 580 36
f 586 152 580
f 473 572 36
f 244 243 242
f 225 244 59
f 64 240 241
f 240 239 241
f 237 240 64
f 243 64 241
f 236 237 64
f 411 607 521
f 9 411 521
f 110 607 411
f 607 142 521
f 610 607 110
f 171 15 184
f 171 169 15
f 15 186 184
f 87 584 581
f 153 588 582
f 588 575 582
f 381 102 380
f 573 572 473
f 468 469 128
f 474 468 128
f 469 571 128
f 571 573 128
f 573 473 128
f 473 474 128
f 564 323 565
f 26 323 564
f 323 324 86
f 325 323 26
f 325 324 323
f 563 565 86
f 324 325 85
f 410 230 18
f 230 228 18
f 18 228 241
f 18 241 239
f 401 619 618
f 401 402 107
f 403 402 401
f 619 159 618
f 401 618 32
f 619 401 107
f 403 401 32
f 618 611 32
f 159 624 618
f 478 122 459
f 122 458 459
f 37 459 457
f 459 458 457
f 122 456 458
f 457 458 123
f 191 190 192
f 485 129 484
f 129 482 484
f 483 485 484
f 130 483 484
f 189 187 14
f 191 50 189
f 191 189 175
f 189 14 175
f 14 177 175
f 499 501 500
f 501 499 38
f 38 499 590
f 135 499 500
f 488 501 38
f 499 135 591
f 480 454 4
f 284 12 346
f 4 423 506
f 480 4 506
f 423 531 506
f 480 506 505
f 531 137 506
f 506 137 505
f 365 366 98
f 71 270 262
f 270 71 269
f 71 267 269
f 335 334 333
f 333 334 89
f 334 335 91
f 536 9 519
f 465 463 461
f 537 140 541
f 520 140 519
f 119 446 465
f 465 461 119
f 461 441 119
f 460 441 461
f 176 46 173
f 299 297 24
f 71 263 266
f 263 260 266
f 260 72 266
f 263 70 260
f 205 201 49
f 201 181 49
f 186 205 49
f 181 201 200
f 181 182 49
f 284 77 283
f 586 587 152
f 588 586 151
f 20 267 265
f 266 267 71
f 31 417 631
f 631 417 632
f 31 631 639
f 417 31 419
f 641 631 161
f 417 112 632
f 161 631 632
f 418 417 419
f 417 418 112
f 284 345 77
f 542 550 145
f 542 541 524
f 284 174 12
f 48 174 283
f 373 20 265
f 373 265 374
f 609 608 525
f 608 157 622
f 560 559 313
f 636 637 162
f 541 140 524
f 41 542 524
f 358 357 280
f 70 263 264
f 263 262 264
f 176 177 46
f 174 48 173
f 174 173 172
f 538 551 549
f 538 540 539
f 537 541 539
f 232 221 242
f 17 221 232
f 232 242 62
f 231 232 62
f 203 205 55
f 203 55 202
f 201 205 203
f 202 55 217
f 205 206 55
f 204 203 202
f 73 275 292
f 292 290 73
f 272 290 282
f 290 292 291
f 75 290 291
f 290 75 282
f 70 277 259
f 277 70 281
f 277 281 279
f 260 70 259
f 12 174 172
f 104 396 388
f 367 27 354
f 365 27 367
f 354 27 356
f 365 367 366
f 595 27 365
f 318 299 310
f 155 596 597
f 155 597 598
f 596 594 597
f 595 596 155
f 605 595 155
f 180 47 179
f 180 190 47
f 352 372 11
f 11 372 261
f 312 310 24
f 642 636 162
f 636 297 637
f 367 369 97
f 366 367 97
f 369 367 354
f 369 370 97
f 580 579 464
f 580 152 579
f 579 124 464
f 61 230 409
f 230 410 409
f 230 61 229
f 230 229 228
f 76 285 286
f 353 352 276
f 74 353 276
f 288 76 286
f 288 286 283
f 289 288 287
f 203 54 201
f 287 288 77
f 77 288 283
f 286 48 283
f 531 423 113
f 276 11 259
f 11 261 259
f 277 276 259
f 616 158 615
f 516 616 615
f 138 516 615
f 138 615 612
f 509 533 532
f 503 502 504
f 635 79 294
f 635 294 404
f 635 637 79
f 637 635 638
f 638 635 108
f 635 404 108
f 226 61 405
f 61 226 227
f 405 61 409
f 227 226 207
f 48 178 179
f 48 286 178
f 173 48 179
f 534 143 533
f 534 535 143
f 531 534 533
f 533 143 532
f 137 531 533
f 261 372 371
f 13 180 178
f 285 13 178
f 180 13 166
f 13 168 166
f 346 345 284
f 331 327 46
f 46 327 172
f 172 327 326
f 382 620 101
f 442 121 448
f 443 121 442
f 2 226 404
f 294 2 404
f 404 226 405
f 207 226 2
f 550 551 145
f 552 146 551
f 143 550 532
f 552 550 143
f 330 329 328
f 24 636 629
f 94 352 353
f 352 11 276
f 113 428 534
f 428 535 534
f 509 41 511
f 535 552 143
f 550 552 551
f 550 542 532
f 369 95 368
f 326 327 87
f 87 327 329
f 327 331 329
f 581 326 87
f 293 79 298
f 79 297 298
f 296 298 78
f 79 293 294
f 296 293 298
f 598 490 38
f 358 280 22
f 280 279 278
f 357 358 95
f 74 357 353
f 330 328 25
f 567 23 559
f 590 598 38
f 590 604 598
f 598 604 155
f 604 590 154
f 590 591 154
f 604 154 606
f 297 299 298
f 299 318 78
f 298 299 78
f 355 354 356
f 629 636 642
f 312 24 629
f 629 642 160
f 370 362 97
f 362 363 97
f 363 366 97
f 364 363 362
f 362 370 351
f 96 363 364
f 297 636 24
f 162 637 638
f 637 297 79
f 490 488 38
f 598 597 490
f 441 442 119
f 443 442 441
f 443 441 5
f 442 448 445
f 296 78 295
f 326 12 172
f 575 574 364
f 47 175 176
f 175 177 176
f 47 176 179
