# FEM surface export ¡ª frame 257
# Vertices: 642  Faces: 1280
v -0.52670372 1.53801966 0.00001215
v 0.52651632 1.53729379 0.00003809
v -0.59048671 0.00000000 -0.00136060
v 0.57750773 0.00000000 -0.00526499
v 0.00126863 0.19361664 0.89562058
v -0.00069611 1.21808183 0.85402536
v -0.00004780 0.19500302 -0.89838642
v 0.00007579 1.21704936 -0.85345167
v 0.86597580 0.70359755 -0.53518784
v 0.86464310 0.70203000 0.53422046
v -0.86486304 0.70485604 -0.53548211
v -0.86503214 0.70476931 0.53486973
v -0.81230992 1.19137144 0.31035775
v -0.50366992 1.00505483 0.81406289
v -0.30965722 1.49636292 0.50067121
v 0.30969703 1.49629641 0.50087494
v 0.00020076 1.68565226 -0.00005403
v 0.30963650 1.49627781 -0.50085676
v -0.30936798 1.49678278 -0.50108266
v -0.50307089 1.00437152 -0.81491703
v -0.81227559 1.19254076 -0.31032708
v -1.01554716 0.70210713 -0.00088186
v 0.50427979 1.00554466 0.81540900
v 0.81209743 1.19086432 0.30996600
v -0.51705456 0.40572315 0.84101796
v -0.00032625 0.70292300 1.01766241
v -0.85293466 0.21999002 -0.32491252
v -0.85192770 0.22285639 0.32687980
v -0.00113695 0.70439279 -1.01724398
v -0.51722157 0.40142161 -0.83672673
v 0.81224132 1.19109082 -0.31002074
v 0.50276339 1.00349057 -0.81340563
v 0.85528421 0.21907540 0.32584235
v 0.51883572 0.40456370 0.83982968
v 0.33857435 0.00000000 0.54935253
v -0.34304014 0.00000000 0.54689842
v -0.00526118 0.00000000 0.00076398
v -0.33817554 0.00000000 -0.54834044
v 0.33890873 0.00000000 -0.55058318
v 0.51780033 0.40253347 -0.83965784
v 0.85511929 0.22067158 -0.32687101
v 1.01843667 0.70268756 -0.00015027
v -0.69560319 1.39079523 0.16111583
v -0.58937776 1.37722039 0.42645755
v -0.43476659 1.54969668 0.26027396
v -0.70886922 0.86037374 0.70039070
v -0.69125605 1.11820579 0.59040427
v -0.86918610 0.95661652 0.43697223
v -0.16106656 1.38279057 0.70333153
v -0.42677927 1.27817082 0.68998152
v -0.26153320 1.12760830 0.86675924
v -0.16251479 1.63719797 0.26322421
v -0.27344298 1.64810944 0.00004371
v 0.16092546 1.38235295 0.70352906
v 0.00014009 1.53743243 0.52641553
v 0.27368206 1.64771628 -0.00002927
v 0.16295068 1.63732028 0.26328611
v 0.43473071 1.54933763 0.26035002
v -0.16241476 1.63718855 -0.26330248
v -0.43458432 1.55007708 -0.26035044
v 0.43468419 1.54930460 -0.26026848
v 0.16275512 1.63703692 -0.26328474
v -0.16071008 1.38223445 -0.70355690
v 0.00036427 1.53744471 -0.52658641
v 0.16124974 1.38218975 -0.70367700
v -0.58907849 1.37737691 -0.42640296
v -0.69552940 1.39091802 -0.16104680
v -0.26104033 1.12625742 -0.86633044
v -0.42615262 1.27803802 -0.69026470
v -0.86948436 0.95738769 -0.43758526
v -0.69088316 1.11893928 -0.59082669
v -0.70937216 0.86042786 -0.70164555
v -0.85427296 1.21752644 0.00022279
v -0.97796869 0.70373797 -0.27891010
v -0.95897597 0.96022171 -0.16370827
v -0.95842552 0.95895755 0.16385110
v -0.97730356 0.70265043 0.27746829
v 0.58933491 1.37642097 0.42629376
v 0.69509828 1.39027929 0.16089737
v 0.26120612 1.12639642 0.86710477
v 0.42668685 1.27790105 0.69000387
v 0.86915439 0.95512825 0.43701640
v 0.69210118 1.11777878 0.58990836
v 0.70963031 0.85876685 0.69975334
v -0.26592225 0.86196083 0.96165001
v -0.00060759 0.96980417 0.96978045
v -0.72060913 0.54929149 0.71230650
v -0.53417248 0.70495927 0.86503977
v 0.00103284 0.43556267 0.99396181
v -0.26838559 0.54558706 0.97685385
v -0.27140597 0.28204527 0.90431088
v -0.98077923 0.44765797 0.16800193
v -0.89014107 0.45214048 0.44794479
v -0.88891369 0.45081389 -0.44888374
v -0.98164427 0.44793811 -0.16976056
v -0.75358540 0.04415246 0.17746028
v -0.89796650 0.19656672 0.00144380
v -0.74707419 0.04054562 -0.16983579
v -0.53467083 0.70263916 -0.86584204
v -0.71901459 0.54653245 -0.71133947
v -0.00035789 0.97022390 -0.96922213
v -0.26573411 0.86161512 -0.96190095
v -0.27448809 0.27952528 -0.90396285
v -0.26990288 0.54385316 -0.97439492
v -0.00079514 0.43840632 -0.99371046
v 0.42646873 1.27683735 -0.68968678
v 0.26140630 1.12605596 -0.86615592
v 0.69490552 1.38980365 -0.16095002
v 0.58907509 1.37591875 -0.42577341
v 0.70949161 0.85941052 -0.70089585
v 0.69124365 1.11803150 -0.59025961
v 0.87016660 0.95616287 -0.43722048
v 0.75297385 0.03726749 0.17222112
v 0.63823134 0.05023979 0.45922065
v 0.47710767 0.00000000 0.28148514
v 0.72088379 0.54756343 0.71322614
v 0.72077191 0.29054824 0.61750007
v 0.88957399 0.44917190 0.44770816
v 0.17395346 0.04741376 0.75132799
v 0.45405862 0.13788162 0.73435146
v 0.27214155 0.28423402 0.90366101
v 0.17644893 0.00000000 0.28718564
v 0.29398608 0.00000000 -0.00472136
v -0.16992651 0.04680858 0.75218743
v -0.00238602 0.00000000 0.58056569
v -0.30637327 0.00000000 -0.00208207
v -0.17731339 0.00000000 0.28162301
v -0.48390776 0.00000000 0.28546369
v 0.17333576 0.00000000 -0.28793547
v 0.47098354 0.00000000 -0.28399161
v -0.47734788 0.00000000 -0.29037327
v -0.18316391 0.00000000 -0.28888163
v 0.17454913 0.04690311 -0.75780082
v 0.00189920 0.00000000 -0.57668650
v -0.17135879 0.04697861 -0.75899827
v 0.63618720 0.05194835 -0.45880467
v 0.74844879 0.04150720 -0.17587973
v 0.27196684 0.28057918 -0.90218735
v 0.45267045 0.14138629 -0.73236543
v 0.89139163 0.44993490 -0.44788843
v 0.72097218 0.29161635 -0.61716437
v 0.72077274 0.54728693 -0.71306962
v 0.89909685 0.19391270 -0.00114245
v 0.97975266 0.70327687 -0.27865103
v 0.98196387 0.44727316 -0.16813369
v 0.98134804 0.44571909 0.16707459
v 0.97683495 0.70138776 0.27736351
v 0.26894799 0.54647243 0.97644264
v 0.53511459 0.70496231 0.86553538
v 0.26536492 0.86194670 0.96208417
v -0.63342911 0.05730285 0.46015370
v -0.45280403 0.13608015 0.73492765
v -0.71846920 0.29399770 0.61756730
v -0.45478913 0.13401966 -0.73695773
v -0.63721442 0.05352289 -0.46050733
v -0.71864754 0.28676480 -0.61351269
v 0.53445446 0.70274365 -0.86476004
v 0.26843843 0.54739249 -0.97705680
v 0.26598570 0.86134529 -0.96124697
v 0.95836610 0.95855778 0.16395755
v 0.95837802 0.95865703 -0.16294901
v 0.85357827 1.21664226 0.00002932
v -0.61688709 1.47166240 0.08136819
v -0.57245123 1.48034298 0.21349694
v -0.48523563 1.55190742 0.13147105
v -0.70953774 1.29142880 0.37280419
v -0.64913982 1.39122152 0.29688406
v -0.76107281 1.29654837 0.23785949
v -0.37584743 1.53108072 0.38427067
v -0.51717544 1.47130477 0.34690142
v -0.45497951 1.44608676 0.46939832
v -0.79397053 0.78327721 0.62383258
v -0.79947490 0.91165996 0.57621455
v -0.87461245 0.83187622 0.48994699
v -0.60477960 1.06603146 0.71054757
v -0.70686340 0.99208170 0.65144998
v -0.61148912 0.93443978 0.76376116
v -0.84848559 1.07697189 0.37691596
v -0.78804058 1.04112566 0.51884383
v -0.76117063 1.16022480 0.45559287
v -0.08155423 1.30612040 0.78578705
v -0.21396978 1.26225734 0.79501295
v -0.13228106 1.17697906 0.86863011
v -0.37269861 1.39582932 0.60258436
v -0.29695201 1.33736253 0.70385283
v -0.23761128 1.44657969 0.60774297
v -0.38608667 1.06980157 0.84856778
v -0.34764075 1.20824015 0.78625774
v -0.47072312 1.14688551 0.76111335
v -0.64878923 1.25471640 0.51510406
v -0.56645465 1.20488060 0.64872873
v -0.51481038 1.33606219 0.56558084
v -0.35873541 1.61069667 0.13191256
v -0.40384930 1.60158575 0.00010288
v -0.23891722 1.57774043 0.38674748
v -0.30176246 1.60266900 0.26447275
v -0.13796324 1.67664886 -0.00007153
v -0.22021900 1.65237010 0.13293239
v -0.08214327 1.67375290 0.13313971
v 0.08114727 1.30573380 0.78586668
v -0.00007152 1.39166558 0.71247172
v 0.15678674 1.52679408 0.51986921
v 0.08133556 1.46781003 0.62102258
v 0.23757054 1.44620633 0.60795838
v -0.08122442 1.46780884 0.62108362
v -0.15662424 1.52732396 0.51996493
v 0.40408412 1.60107911 0.00007090
v 0.35894376 1.61027563 0.13189767
v 0.48522100 1.55155241 0.13139454
v 0.08262910 1.67332947 0.13323934
v 0.22068949 1.65238416 0.13302073
v 0.13832407 1.67644620 0.00000622
v 0.37587920 1.53053308 0.38416806
v 0.30198407 1.60265267 0.26450357
v 0.23922813 1.57723653 0.38665000
v -0.08224608 1.59943140 0.40025121
v 0.08253679 1.59908402 0.39986140
v 0.00016644 1.65000904 0.26670229
v -0.35856658 1.61082637 -0.13182689
v -0.48518234 1.55211556 -0.13139683
v -0.08211327 1.67357016 -0.13329901
v -0.22023422 1.65264916 -0.13305457
v -0.37543193 1.53126347 -0.38435841
v -0.30149814 1.60283434 -0.26448295
v -0.23877591 1.57781684 -0.38683039
v 0.48528540 1.55156624 -0.13133049
v 0.35891896 1.61049497 -0.13179736
v 0.23918119 1.57757974 -0.38677701
v 0.30180338 1.60255671 -0.26448661
v 0.37573841 1.53082752 -0.38418970
v 0.22048874 1.65237892 -0.13301778
v 0.08245897 1.67351413 -0.13332333
v -0.08121069 1.30527294 -0.78586292
v 0.00018213 1.39119589 -0.71285599
v 0.08141840 1.30500388 -0.78580624
v -0.15635023 1.52723563 -0.52017170
v -0.08092514 1.46780419 -0.62138027
v -0.23721568 1.44648898 -0.60804158
v 0.23772708 1.44635153 -0.60804582
v 0.08158373 1.46780860 -0.62144536
v 0.15688232 1.52699935 -0.52003413
v 0.00013406 1.64979947 -0.26676422
v 0.08268466 1.59929311 -0.40006858
v -0.08213031 1.59943092 -0.40020883
v -0.57237244 1.48055923 -0.21346501
v -0.61696124 1.47179687 -0.08117037
v -0.45459625 1.44610548 -0.46949637
v -0.51710498 1.47176647 -0.34695119
v -0.76104730 1.29746079 -0.23782916
v -0.64898920 1.39137399 -0.29684541
v -0.70931149 1.29214060 -0.37301347
v -0.13171023 1.17682683 -0.86816210
v -0.21354467 1.26148391 -0.79510272
v -0.47016487 1.14650762 -0.76108640
v -0.34712431 1.20719576 -0.78612667
v -0.38558537 1.06908977 -0.84839469
v -0.29641336 1.33678246 -0.70431769
v -0.37222651 1.39586473 -0.60303211
v -0.87526459 0.83243346 -0.49060619
v -0.80002844 0.91236275 -0.57702154
v -0.79425889 0.78318584 -0.62448984
v -0.76084846 1.16137409 -0.45623553
v -0.78795427 1.04181170 -0.51951617
v -0.84853536 1.07841754 -0.37730289
v -0.61165917 0.93422365 -0.76567113
v -0.70719421 0.99248821 -0.65247345
v -0.60466361 1.06559837 -0.71159911
v -0.51436299 1.33632648 -0.56595808
v -0.56607515 1.20488381 -0.64938796
v -0.64837909 1.25515866 -0.51524121
v -0.70477206 1.40025318 0.00016417
v -0.84374696 1.21154547 -0.15715368
v -0.78271735 1.31034791 -0.08129107
v -0.78256899 1.31001222 0.08148520
v -0.84357464 1.21087801 0.15726486
v -0.93043995 0.70498407 -0.41089410
v -0.93489116 0.83238208 -0.36246964
v -0.99916786 0.83299118 -0.08321593
v -0.97640121 0.83281857 -0.22274393
v -1.00695753 0.70328349 -0.14091069
v -0.92315745 0.96163100 -0.30361763
v -0.89601743 1.08088493 -0.23998924
v -0.93490940 0.83161741 0.36214373
v -0.93063885 0.70401180 0.41070414
v -0.89589947 1.07980919 0.24000798
v -0.92333388 0.96030962 0.30345720
v -1.00700784 0.70258510 0.13970144
v -0.97732526 0.83166385 0.22235857
v -0.99917823 0.83251518 0.08281586
v -0.91849667 1.09417009 -0.08257190
v -0.97170138 0.96327466 0.00043819
v -0.91823578 1.09344852 0.08313753
v 0.57228607 1.48018122 0.21345121
v 0.61653453 1.47101116 0.08114926
v 0.45502219 1.44543207 0.46937793
v 0.51723272 1.47098005 0.34684485
v 0.76066959 1.29610062 0.23765153
v 0.64891213 1.39073193 0.29676127
v 0.70940632 1.29118955 0.37276331
v 0.13148800 1.17676568 0.86921173
v 0.21362044 1.26145816 0.79512167
v 0.47108155 1.14729011 0.76168710
v 0.34740758 1.20748937 0.78645694
v 0.38593706 1.06904697 0.84878474
v 0.29665312 1.33618462 0.70406550
v 0.37262148 1.39509118 0.60253900
v 0.87399822 0.82866299 0.48884773
v 0.79933852 0.90851861 0.57473874
v 0.79374886 0.78072828 0.62256497
v 0.76127136 1.15986478 0.45555675
v 0.78833628 1.03951478 0.51840454
v 0.84827375 1.07621229 0.37674206
v 0.61313522 0.93473673 0.76500463
v 0.70734805 0.99065703 0.65025866
v 0.60604048 1.06604886 0.71093023
v 0.51499516 1.33516073 0.56563830
v 0.56693023 1.20485115 0.64865798
v 0.64896619 1.25422132 0.51474011
v -0.13313419 1.05327463 0.93026668
v -0.00043017 1.09714806 0.92009974
v -0.38980308 0.93640739 0.89853054
v -0.26650804 0.99759322 0.92259091
v -0.00076738 0.83781397 1.00248945
v -0.13448142 0.91782218 0.97524971
v -0.13552579 0.78287488 1.00161088
v -0.80066115 0.62599778 0.62926966
v -0.72345328 0.70499021 0.71496379
v -0.53158617 0.55289459 0.86334765
v -0.63300425 0.62632954 0.79668647
v -0.62494165 0.47542810 0.78374267
v -0.62786728 0.78291428 0.79000252
v -0.52481771 0.85635000 0.84911674
v 0.00151333 0.30864686 0.95381123
v -0.13566667 0.35344982 0.96124732
v -0.13682622 0.23159929 0.90974522
v -0.13547809 0.62295461 1.00924504
v -0.13513902 0.48794535 0.99460179
v -0.00054753 0.56846100 1.01548779
v -0.39937529 0.33914098 0.87952578
v -0.27218872 0.41006896 0.95004404
v -0.39636454 0.47159302 0.92054677
v -0.40508607 0.78346491 0.92552668
v -0.40785110 0.62358212 0.93406159
v -0.27093253 0.70373523 0.98119813
v -0.94654942 0.57695210 0.36775333
v -0.88521701 0.57663602 0.49669257
v -1.01047039 0.57365757 0.08373164
v -0.98888928 0.57444191 0.22492658
v -0.88000947 0.33381480 0.39155009
v -0.94573164 0.44897935 0.31148347
v -0.92798877 0.33009437 0.24970025
v -0.88529062 0.57691854 -0.49727765
v -0.94615567 0.57586205 -0.36875010
v -0.92820746 0.32755059 -0.24916935
v -0.94417512 0.44631815 -0.31256056
v -0.87824523 0.32985789 -0.39178357
v -0.98940110 0.57389486 -0.22745782
v -1.01210058 0.57346708 -0.08611764
v -0.67556733 0.00083632 0.08707508
v -0.75996387 0.03089316 0.00232299
v -0.66921276 0.00000000 -0.08635578
v -0.88708752 0.20616694 0.16622227
v -0.83292395 0.10974253 0.08908541
v -0.81015503 0.12400524 0.25539517
v -0.80560827 0.12082775 -0.25070903
v -0.83166271 0.10915392 -0.08431149
v -0.88575011 0.19970520 -0.16446145
v -0.99590367 0.44513032 -0.00076766
v -0.95373148 0.31680569 -0.08681537
v -0.95526445 0.31798956 0.08507157
v -0.72276354 0.70361292 -0.71512449
v -0.79974335 0.62506843 -0.62916964
v -0.52487457 0.85488111 -0.84977299
v -0.62846911 0.78191859 -0.79088449
v -0.62454641 0.47134051 -0.78066957
v -0.63291818 0.62352216 -0.79735577
v -0.53218746 0.54957467 -0.86204314
v 0.00017554 1.09728813 -0.91930890
v -0.13235810 1.05324352 -0.92961204
v -0.13529515 0.78396481 -1.00141776
v -0.13419646 0.91843265 -0.97512764
v -0.00042992 0.83881247 -1.00223422
v -0.26612347 0.99702418 -0.92298150
v -0.38937417 0.93580765 -0.89870936
v -0.13916220 0.23283994 -0.91296953
v -0.13793857 0.35434589 -0.96023560
v -0.00058622 0.31184006 -0.95524436
v -0.39736348 0.46895036 -0.91731006
v -0.27373186 0.40905207 -0.94738263
v -0.40011570 0.33619234 -0.87896901
v -0.00155207 0.56963456 -1.01583803
v -0.13759658 0.48806748 -0.99324977
v -0.13694315 0.62341088 -1.00842142
v -0.40512949 0.78321701 -0.92641813
v -0.27151513 0.70306593 -0.98057669
v -0.40802994 0.62196207 -0.93254858
v 0.21388607 1.26154494 -0.79504967
v 0.13191181 1.17614400 -0.86831516
v 0.37279332 1.39524579 -0.60275227
v 0.29703325 1.33625889 -0.70408183
v 0.38566890 1.06807196 -0.84789604
v 0.34748355 1.20638049 -0.78564245
v 0.47023326 1.14551020 -0.76049834
v 0.61669171 1.47115624 -0.08118066
v 0.57231641 1.47990346 -0.21329853
v 0.70899129 1.29080248 -0.37233463
v 0.64878786 1.38992798 -0.29645154
v 0.76044106 1.29588830 -0.23744264
v 0.51716316 1.47061110 -0.34649205
v 0.45484921 1.44558382 -0.46932971
v 0.79490536 0.78274918 -0.62387425
v 0.80044204 0.91137928 -0.57661003
v 0.87592643 0.83149189 -0.49088937
v 0.60446781 1.06516981 -0.71034634
v 0.70663589 0.99074829 -0.65147710
v 0.61177498 0.93360674 -0.76486462
v 0.84860820 1.07725787 -0.37733194
v 0.78776813 1.04056990 -0.51891994
v 0.76077050 1.16056216 -0.45554334
v 0.51452160 1.33476186 -0.56530035
v 0.64829063 1.25429165 -0.51467657
v 0.56604677 1.20394576 -0.64849889
v 0.67416161 0.00000000 0.09209849
v 0.63215750 0.00000000 0.23509833
v 0.52981555 0.00000000 0.13795227
v 0.75505924 0.12924248 0.39533731
v 0.70225465 0.03929554 0.31915826
v 0.80625379 0.12098581 0.25061336
v 0.40915418 0.00000000 0.42141926
v 0.56996948 0.00034117 0.38337162
v 0.49730268 0.00788351 0.51105052
v 0.80000234 0.62334979 0.62895107
v 0.81631303 0.49432170 0.58765507
v 0.88566464 0.57445049 0.49627715
v 0.62804228 0.34354746 0.73799771
v 0.72633332 0.41682369 0.67028445
v 0.62514836 0.47399786 0.78342468
v 0.87830722 0.33112764 0.39012352
v 0.81264853 0.36534867 0.53597867
v 0.79775709 0.24778223 0.47890115
v 0.08906878 0.11284118 0.83403856
v 0.22764730 0.15217349 0.83937985
v 0.13929121 0.23349054 0.90821272
v 0.39937803 0.03893463 0.64960444
v 0.31880412 0.08546346 0.75150263
v 0.25654230 0.00492354 0.65702486
v 0.39992625 0.34131870 0.88079965
v 0.36603418 0.20506403 0.82797027
v 0.49198321 0.26413259 0.79533988
v 0.68650746 0.16009176 0.54547650
v 0.59611458 0.20724939 0.68361270
v 0.55111402 0.08789646 0.60703224
v 0.39173362 0.00000000 0.14145058
v 0.43860471 0.00000000 -0.00269005
v 0.25846887 0.00000000 0.42743030
v 0.32968214 0.00000000 0.28872868
v 0.14683270 0.00000000 0.00058043
v 0.23550525 0.00000000 0.14665924
v 0.08624577 0.00000000 0.14385410
v -0.08688586 0.11220330 0.83755213
v 0.00256583 0.04434545 0.76861054
v -0.18045269 0.00000000 0.57336605
v -0.08724153 0.00026862 0.67036659
v -0.25366959 0.00512523 0.66019279
v 0.08650420 0.00059542 0.67963743
v 0.17194492 0.00000000 0.57678753
v -0.44973108 0.00000000 -0.00612893
v -0.40121573 0.00000000 0.14095651
v -0.54090363 0.00000000 0.14179808
v -0.09545976 0.00000000 0.14158173
v -0.24646100 0.00000000 0.14266424
v -0.15637811 0.00000000 0.00365013
v -0.42109022 0.00000000 0.42494869
v -0.33784777 0.00000000 0.28920341
v -0.27076656 0.00000000 0.42278737
v 0.08744985 0.00000000 0.44008631
v -0.09449136 0.00000000 0.43975237
v -0.00016617 0.00000000 0.28890601
v 0.38789982 0.00000000 -0.14182447
v 0.52639872 0.00000000 -0.14834702
v 0.08521606 0.00000000 -0.14453948
v 0.23279840 0.00000000 -0.14553931
v 0.41176054 0.00000000 -0.41974095
v 0.32584900 0.00000000 -0.28378654
v 0.26525751 0.00000000 -0.42021209
v -0.53659993 0.00000000 -0.14803796
v -0.39728859 0.00000000 -0.15034264
v -0.26414913 0.00000000 -0.42220742
v -0.33785036 0.00000000 -0.29131800
v -0.40958360 0.00000000 -0.42528272
v -0.24592306 0.00000000 -0.14517079
v -0.09611329 0.00000000 -0.14609458
v 0.08735301 0.11465681 -0.83771038
v 0.00333178 0.03996739 -0.77140641
v -0.08610808 0.11406952 -0.83758080
v 0.17791484 0.00000000 -0.56513298
v 0.08839164 0.00000000 -0.67596370
v 0.25975484 0.00443051 -0.66308844
v -0.25393245 0.00795319 -0.66486573
v -0.08721446 0.00092835 -0.68427885
v -0.17112765 0.00000000 -0.56963170
v -0.00517907 0.00000000 -0.29032668
v -0.08988714 0.00000000 -0.43716270
v 0.08901341 0.00000000 -0.43428200
v 0.62972832 0.00000000 -0.23521408
v 0.68138564 0.00000000 -0.09045856
v 0.49612930 0.00136794 -0.50530976
v 0.56064779 0.00000000 -0.37560365
v 0.80942231 0.12570414 -0.25347883
v 0.70454377 0.04098664 -0.32208049
v 0.75429159 0.12945493 -0.39631093
v 0.13875721 0.23445846 -0.91238475
v 0.22560725 0.15349083 -0.84057188
v 0.49078742 0.26092455 -0.79624498
v 0.36385125 0.20376824 -0.82673436
v 0.39870241 0.33764622 -0.87876898
v 0.31922090 0.08816339 -0.75144112
v 0.40236533 0.04074201 -0.64692223
v 0.88651961 0.57563603 -0.49669898
v 0.81682891 0.49589998 -0.58939946
v 0.80166036 0.62467951 -0.62931406
v 0.79786366 0.25023642 -0.47942492
v 0.81446475 0.36761752 -0.53724068
v 0.88066357 0.33035070 -0.39190823
v 0.62610906 0.47255155 -0.78396398
v 0.72747606 0.41551244 -0.67134166
v 0.62524354 0.34228146 -0.73747796
v 0.54974174 0.08879881 -0.60221469
v 0.59603143 0.20742401 -0.68237430
v 0.68625557 0.16162871 -0.54452473
v 0.76043648 0.03306665 -0.00015661
v 0.88916057 0.20054761 -0.16558036
v 0.83265674 0.10772982 -0.08866491
v 0.83510214 0.10895333 0.08514304
v 0.88552898 0.19789079 0.16413923
v 0.93164450 0.70384270 -0.41105396
v 0.94757694 0.57512951 -0.36748347
v 1.01298392 0.57329345 -0.08475251
v 0.99114436 0.57453370 -0.22599396
v 1.00907683 0.70384151 -0.14023446
v 0.94724530 0.44626564 -0.31165147
v 0.92946845 0.32749230 -0.24899967
v 0.94621563 0.57366008 0.36683604
v 0.92953455 0.70138013 0.40910685
v 0.92685294 0.32774922 0.24693358
v 0.94558382 0.44566038 0.31041181
v 1.00660396 0.70232785 0.14077733
v 0.98818529 0.57225877 0.22453961
v 1.01115239 0.57331169 0.08417226
v 0.95228535 0.31549805 -0.08616628
v 0.99606347 0.44379896 0.00005099
v 0.95034367 0.31414601 0.08515318
v 0.13725950 0.35452804 0.96081346
v 0.39761305 0.47346050 0.91994560
v 0.27309814 0.41228107 0.95059514
v 0.13608505 0.48964223 0.99531651
v 0.13523164 0.62334603 1.00909066
v 0.72301978 0.70347416 0.71396548
v 0.52643144 0.85683918 0.85041165
v 0.62918198 0.78223842 0.79033005
v 0.63341749 0.62583810 0.79667389
v 0.53221297 0.55259830 0.86242449
v 0.13205472 1.05198216 0.92989737
v 0.13443539 0.78321236 1.00227225
v 0.13343792 0.91749829 0.97585720
v 0.26580158 0.99674559 0.92355913
v 0.38961974 0.93600523 0.89879239
v 0.40753549 0.62440574 0.93215239
v 0.40542060 0.78449631 0.92682606
v 0.27054650 0.70386040 0.98119164
v -0.63079190 0.00000000 0.23559298
v -0.49706095 0.00384347 0.51163334
v -0.56934762 0.00000000 0.38005719
v -0.70366836 0.04014399 0.32379189
v -0.75176704 0.12602656 0.39803809
v -0.22915563 0.15497436 0.84546584
v -0.49193764 0.26475650 0.79708534
v -0.36596632 0.20502585 0.82822311
v -0.31871325 0.08467413 0.75492203
v -0.40438870 0.03900402 0.65183330
v -0.81531245 0.49806949 0.58862841
v -0.79551494 0.25161508 0.47792852
v -0.81319797 0.36940178 0.53727311
v -0.72744381 0.41884208 0.67286724
v -0.62613112 0.34548745 0.74112827
v -0.55241227 0.09071845 0.60703683
v -0.59455979 0.20875080 0.68425781
v -0.68344367 0.16311818 0.54559880
v -0.22682610 0.15376282 -0.84118271
v -0.40217769 0.03618093 -0.64966863
v -0.31858516 0.07913301 -0.75451100
v -0.36560425 0.20144151 -0.82555747
v -0.49118930 0.26084954 -0.79385054
v -0.62373549 0.00000000 -0.23196144
v -0.75439554 0.12609668 -0.39539236
v -0.70043570 0.04111877 -0.31919050
v -0.56147110 0.00123599 -0.37823388
v -0.49407223 0.00004429 -0.50879163
v -0.81445819 0.49643657 -0.58861303
v -0.62498778 0.34047306 -0.73438650
v -0.72629786 0.41369346 -0.67047405
v -0.81188148 0.36551267 -0.53644693
v -0.79252744 0.24832299 -0.47604439
v -0.54932821 0.08234075 -0.60482156
v -0.68382448 0.15573153 -0.54608196
v -0.59337634 0.20527400 -0.68152124
v 0.72413152 0.70338988 -0.71487874
v 0.53268617 0.55108821 -0.86270726
v 0.63330734 0.62443465 -0.79682112
v 0.62875682 0.78193641 -0.79018110
v 0.52483922 0.85469222 -0.84831923
v 0.13592952 0.35509500 -0.96143872
v 0.13439254 0.62442660 -1.00971103
v 0.13506290 0.48927951 -0.99488240
v 0.27271578 0.41135159 -0.95011175
v 0.39739344 0.47114211 -0.91977209
v 0.13259411 1.05235088 -0.92947167
v 0.38944414 0.93517447 -0.89757085
v 0.26599461 0.99600643 -0.92152166
v 0.13407086 0.91822028 -0.97516394
v 0.13424030 0.78418535 -1.00126743
v 0.40805605 0.62312907 -0.93194240
v 0.27050000 0.70393473 -0.98025334
v 0.40523013 0.78245574 -0.92441446
v 0.93451232 0.82996088 0.36222783
v 0.99933881 0.83177018 0.08419919
v 0.97803456 0.83169603 0.22314127
v 0.92354190 0.95998406 0.30369869
v 0.89612067 1.07948196 0.23986447
v 0.93636912 0.83141875 -0.36261815
v 0.89585030 1.07939708 -0.23980848
v 0.92434919 0.96051645 -0.30333266
v 0.97854155 0.83217478 -0.22279763
v 1.00023997 0.83303386 -0.08226264
v 0.70434433 1.39957988 -0.00014390
v 0.84327841 1.21025085 0.15693513
v 0.78223914 1.30968702 0.08128504
v 0.78185993 1.30928016 -0.08121850
v 0.84291357 1.20996177 -0.15667316
v 0.97115004 0.96230686 0.00073706
v 0.91685474 1.09225368 -0.08246586
v 0.91756779 1.09249604 0.08279978
f 330 87 329
f 336 325 26
f 207 208 56
f 464 36 580
f 502 129 504
f 157 624 622
f 308 311 82
f 247 223 248
f 507 483 508
f 331 88 329
f 494 500 497
f 156 601 602
f 591 589 592
f 365 98 596
f 75 281 282
f 152 587 577
f 149 559 560
f 555 121 553
f 530 141 529
f 515 517 139
f 361 594 98
f 250 67 249
f 157 608 609
f 294 293 209
f 317 81 316
f 557 338 26
f 303 305 81
f 530 529 528
f 101 381 382
f 415 418 111
f 192 184 50
f 412 110 411
f 20 384 256
f 131 594 486
f 281 264 282
f 347 287 348
f 28 349 582
f 165 163 1
f 248 250 66
f 617 107 398
f 273 271 274
f 456 115 453
f 558 561 560
f 335 576 91
f 331 177 332
f 116 433 436
f 351 370 92
f 136 511 530
f 239 240 65
f 247 258 19
f 304 23 567
f 148 557 570
f 214 208 58
f 440 426 450
f 268 270 269
f 258 247 268
f 204 202 16
f 466 125 465
f 517 513 133
f 168 275 274
f 275 73 274
f 198 193 53
f 309 308 307
f 510 511 136
f 415 416 110
f 131 490 597
f 473 475 474
f 414 415 111
f 493 495 494
f 496 504 485
f 433 116 432
f 600 375 601
f 240 234 65
f 418 415 412
f 486 361 3
f 567 566 304
f 380 393 29
f 17 199 197
f 491 492 132
f 451 449 435
f 218 217 216
f 623 621 613
f 396 104 395
f 433 439 436
f 628 160 627
f 215 202 217
f 209 207 2
f 427 113 424
f 434 10 544
f 434 433 432
f 199 17 210
f 150 564 565
f 489 491 132
f 275 13 285
f 497 500 134
f 125 466 476
f 578 152 577
f 208 214 211
f 328 88 343
f 356 27 603
f 150 566 567
f 372 100 371
f 190 191 47
f 235 8 398
f 260 261 72
f 422 403 414
f 422 414 111
f 453 454 123
f 349 583 582
f 521 520 519
f 425 453 115
f 616 622 158
f 483 130 508
f 151 586 572
f 212 17 232
f 400 397 402
f 377 396 99
f 41 522 511
f 510 508 505
f 549 547 42
f 475 473 36
f 510 137 509
f 222 221 197
f 430 115 429
f 220 194 1
f 305 54 204
f 621 29 613
f 192 171 184
f 460 335 5
f 88 331 332
f 74 277 279
f 300 301 80
f 390 389 388
f 165 45 164
f 146 549 551
f 291 278 75
f 448 120 445
f 147 543 544
f 607 610 609
f 603 602 356
f 139 529 514
f 333 553 443
f 92 368 347
f 261 260 259
f 300 6 200
f 46 177 331
f 284 283 174
f 301 300 200
f 471 468 474
f 54 305 301
f 302 304 303
f 569 150 567
f 150 569 570
f 294 209 2
f 628 629 160
f 548 543 147
f 147 625 627
f 63 233 234
f 426 427 114
f 41 509 532
f 198 52 196
f 614 105 612
f 147 627 547
f 81 305 306
f 549 548 547
f 54 301 200
f 342 88 332
f 264 281 70
f 193 194 53
f 455 429 456
f 187 321 14
f 479 130 484
f 147 544 625
f 458 456 453
f 304 80 303
f 314 84 313
f 488 503 501
f 321 332 14
f 423 425 424
f 305 204 306
f 341 339 25
f 514 40 516
f 625 628 627
f 340 339 341
f 105 614 391
f 243 228 62
f 318 316 78
f 75 278 279
f 357 355 353
f 238 257 63
f 466 455 476
f 425 423 4
f 448 449 120
f 408 638 108
f 292 275 285
f 22 278 289
f 515 513 517
f 501 503 134
f 622 623 158
f 134 503 504
f 195 216 206
f 163 271 246
f 619 617 620
f 62 228 229
f 163 165 164
f 453 425 454
f 489 132 488
f 82 628 625
f 58 208 209
f 525 608 40
f 626 547 627
f 518 517 498
f 489 487 491
f 557 26 564
f 325 336 344
f 541 145 539
f 40 616 516
f 338 556 89
f 250 248 245
f 139 514 515
f 98 594 596
f 246 220 1
f 112 413 630
f 9 536 413
f 156 600 601
f 332 177 14
f 321 342 332
f 156 606 600
f 584 330 585
f 302 303 81
f 584 87 330
f 330 25 585
f 400 239 65
f 439 440 117
f 95 358 368
f 597 594 131
f 594 361 486
f 246 67 245
f 561 562 149
f 28 364 362
f 55 216 217
f 427 430 114
f 267 20 254
f 556 555 553
f 84 309 558
f 311 310 312
f 609 525 142
f 256 68 255
f 124 460 461
f 82 311 312
f 307 308 82
f 589 135 495
f 527 40 514
f 112 418 412
f 20 256 254
f 258 238 19
f 267 254 269
f 273 272 249
f 392 391 393
f 137 533 509
f 122 455 456
f 9 413 411
f 130 480 505
f 333 443 5
f 527 525 40
f 589 495 385
f 39 496 485
f 223 225 224
f 414 416 415
f 219 222 53
f 145 538 539
f 413 412 411
f 469 468 467
f 183 181 6
f 191 192 50
f 429 35 431
f 292 285 76
f 413 112 412
f 415 110 412
f 43 164 167
f 467 468 126
f 617 101 620
f 450 451 117
f 438 546 545
f 619 620 159
f 17 212 210
f 124 579 576
f 584 153 583
f 460 124 576
f 3 469 467
f 311 308 314
f 6 320 183
f 389 104 388
f 251 250 249
f 194 165 1
f 291 289 278
f 287 77 348
f 238 258 257
f 139 517 518
f 238 236 19
f 223 247 19
f 382 380 29
f 39 518 498
f 361 359 3
f 69 255 257
f 139 518 528
f 33 545 535
f 387 385 7
f 69 268 269
f 477 462 125
f 454 479 123
f 121 555 447
f 451 435 117
f 454 425 4
f 233 252 8
f 124 463 464
f 69 258 268
f 168 167 166
f 583 153 582
f 384 394 102
f 138 512 513
f 57 210 211
f 254 256 255
f 607 609 142
f 324 319 86
f 289 291 76
f 291 292 76
f 384 102 383
f 422 421 420
f 221 17 197
f 383 102 381
f 376 377 99
f 99 373 374
f 386 105 392
f 438 33 440
f 90 341 343
f 281 75 279
f 574 571 96
f 628 82 312
f 221 222 59
f 127 471 474
f 595 605 603
f 551 538 145
f 334 91 340
f 322 324 85
f 305 303 301
f 18 239 399
f 306 204 16
f 199 198 197
f 166 190 180
f 303 80 301
f 267 266 265
f 626 42 547
f 16 215 213
f 349 351 350
f 295 16 213
f 68 379 252
f 250 251 66
f 627 160 626
f 383 68 256
f 343 88 342
f 507 508 136
f 202 215 16
f 197 198 53
f 254 69 269
f 603 605 156
f 418 419 111
f 384 383 256
f 455 122 476
f 203 204 54
f 556 557 148
f 255 68 253
f 313 84 560
f 25 328 341
f 254 255 69
f 603 156 602
f 581 584 583
f 630 632 112
f 163 246 1
f 246 245 220
f 432 116 558
f 499 591 590
f 320 563 86
f 345 93 350
f 306 16 295
f 346 93 345
f 562 568 149
f 604 605 155
f 154 592 593
f 545 552 535
f 511 522 530
f 574 573 571
f 566 150 565
f 361 98 360
f 67 271 273
f 234 235 65
f 208 211 56
f 574 151 573
f 251 270 66
f 398 8 378
f 213 215 214
f 438 440 439
f 315 314 313
f 263 71 262
f 20 373 384
f 496 134 504
f 329 88 328
f 81 306 316
f 555 556 148
f 592 589 103
f 617 619 107
f 227 207 56
f 571 359 96
f 446 466 465
f 206 216 55
f 359 571 469
f 568 148 570
f 34 437 435
f 28 351 349
f 21 272 282
f 113 423 424
f 490 489 488
f 379 68 383
f 210 212 211
f 80 563 300
f 351 92 350
f 326 346 12
f 83 317 318
f 555 148 554
f 212 231 56
f 218 57 217
f 271 67 246
f 195 196 52
f 270 268 66
f 390 592 103
f 148 568 554
f 495 493 7
f 592 390 593
f 357 95 355
f 574 575 151
f 452 120 451
f 154 591 592
f 587 585 577
f 395 394 396
f 93 349 350
f 610 416 611
f 166 44 190
f 315 23 302
f 315 302 317
f 268 247 66
f 606 154 593
f 396 394 99
f 211 212 56
f 370 369 368
f 235 397 65
f 280 278 22
f 83 315 317
f 575 588 151
f 74 279 280
f 385 495 7
f 63 257 253
f 397 235 398
f 214 58 213
f 220 219 194
f 546 146 545
f 236 225 19
f 599 94 602
f 235 233 8
f 102 394 395
f 611 416 32
f 225 223 19
f 139 528 529
f 231 62 229
f 419 406 421
f 451 450 452
f 49 182 185
f 402 397 107
f 52 199 218
f 416 610 110
f 225 236 244
f 107 397 398
f 68 252 253
f 322 85 321
f 182 181 183
f 118 438 439
f 546 438 118
f 348 77 345
f 543 546 118
f 231 212 232
f 610 611 157
f 33 438 545
f 385 386 103
f 479 480 130
f 169 195 15
f 93 583 349
f 15 195 206
f 190 44 192
f 247 248 66
f 146 552 545
f 248 60 245
f 570 557 564
f 274 271 43
f 63 253 233
f 272 21 249
f 507 528 518
f 67 273 249
f 487 467 126
f 196 195 169
f 624 159 623
f 134 496 497
f 132 503 488
f 104 393 395
f 556 553 89
f 355 356 94
f 258 69 257
f 229 61 227
f 56 231 227
f 460 576 335
f 463 124 461
f 394 373 99
f 29 393 391
f 67 250 245
f 193 198 196
f 462 36 464
f 144 633 630
f 141 526 527
f 517 133 498
f 536 144 630
f 100 372 599
f 144 536 537
f 22 289 287
f 578 579 152
f 579 578 576
f 189 188 187
f 60 223 224
f 92 348 350
f 555 554 447
f 396 377 388
f 194 193 165
f 413 536 630
f 372 352 599
f 377 376 375
f 348 345 350
f 105 386 387
f 240 237 234
f 463 462 464
f 135 500 494
f 45 196 169
f 512 612 387
f 245 60 220
f 429 115 456
f 223 60 248
f 288 289 76
f 525 526 142
f 100 599 601
f 613 29 391
f 526 523 520
f 341 328 343
f 631 641 639
f 264 21 282
f 266 72 265
f 106 402 403
f 73 273 274
f 186 206 205
f 381 379 383
f 52 216 195
f 410 18 399
f 290 272 73
f 72 371 374
f 526 525 527
f 115 430 424
f 498 497 496
f 621 382 29
f 543 118 434
f 214 215 57
f 522 141 530
f 511 510 509
f 352 94 599
f 493 512 7
f 90 340 341
f 169 171 170
f 605 604 606
f 219 60 224
f 104 389 392
f 359 469 3
f 186 49 185
f 222 219 224
f 166 167 44
f 428 427 426
f 523 522 524
f 129 502 481
f 50 185 188
f 164 45 170
f 425 115 424
f 33 428 426
f 427 428 113
f 94 356 602
f 515 138 513
f 114 431 452
f 237 236 238
f 215 217 57
f 95 354 355
f 220 60 219
f 515 514 516
f 183 320 319
f 222 197 53
f 559 569 567
f 300 320 6
f 435 436 117
f 96 360 363
f 640 642 641
f 242 243 62
f 140 537 519
f 508 130 505
f 420 410 399
f 537 539 144
f 317 316 318
f 426 114 450
f 186 15 206
f 311 83 310
f 625 544 307
f 544 10 307
f 168 43 167
f 185 182 188
f 369 354 95
f 44 171 192
f 605 606 156
f 548 549 146
f 100 601 375
f 149 568 569
f 381 380 382
f 455 466 35
f 480 479 454
f 543 548 546
f 493 133 513
f 492 472 37
f 477 125 476
f 491 487 126
f 337 336 338
f 588 153 587
f 576 578 91
f 633 161 632
f 96 359 360
f 39 485 483
f 101 617 378
f 193 45 165
f 163 164 43
f 618 624 611
f 507 136 528
f 561 149 560
f 641 162 639
f 116 561 558
f 494 133 493
f 253 252 233
f 63 237 238
f 392 393 104
f 440 450 117
f 93 581 583
f 386 385 387
f 120 449 451
f 421 422 111
f 486 3 467
f 302 81 317
f 633 632 630
f 462 475 36
f 376 99 374
f 489 490 131
f 447 449 448
f 387 612 105
f 106 420 399
f 173 46 172
f 492 491 472
f 316 306 295
f 22 287 347
f 109 410 420
f 507 39 483
f 559 23 313
f 214 57 211
f 196 45 193
f 10 434 432
f 422 106 403
f 626 160 640
f 487 486 467
f 542 41 532
f 400 106 399
f 444 120 452
f 198 199 52
f 475 127 474
f 621 620 382
f 621 623 159
f 450 114 452
f 92 347 348
f 376 100 375
f 434 118 433
f 503 132 502
f 337 90 336
f 537 536 519
f 395 393 380
f 201 54 200
f 171 44 170
f 355 94 353
f 58 296 213
f 422 420 106
f 595 365 596
f 569 568 570
f 523 140 520
f 114 430 431
f 218 210 57
f 304 566 80
f 639 162 638
f 261 371 72
f 548 147 547
f 498 133 497
f 150 570 564
f 222 224 59
f 142 526 520
f 437 436 435
f 141 522 523
f 137 510 505
f 173 179 176
f 559 149 569
f 121 447 448
f 563 320 300
f 102 395 380
f 257 255 253
f 642 162 641
f 83 311 314
f 216 52 218
f 512 493 513
f 23 304 302
f 91 339 340
f 512 138 612
f 159 620 621
f 218 199 210
f 364 28 575
f 83 318 310
f 168 274 43
f 136 530 528
f 140 523 524
f 495 135 494
f 233 235 234
f 566 563 80
f 25 339 577
f 277 74 276
f 475 462 477
f 133 494 497
f 436 437 116
f 389 386 392
f 548 146 546
f 441 460 5
f 10 309 307
f 65 397 400
f 543 434 544
f 640 641 161
f 272 273 73
f 581 93 346
f 419 421 111
f 319 320 86
f 180 179 178
f 127 475 477
f 231 229 227
f 337 334 340
f 136 508 510
f 308 309 84
f 237 63 234
f 447 554 34
f 252 379 378
f 315 83 314
f 608 622 616
f 338 336 26
f 337 338 89
f 13 275 168
f 209 208 207
f 436 439 117
f 628 312 629
f 360 366 363
f 364 574 96
f 359 361 360
f 466 446 35
f 500 501 134
f 406 109 421
f 135 589 591
f 601 599 602
f 340 90 337
f 481 492 37
f 522 41 524
f 78 316 295
f 131 486 487
f 403 32 414
f 634 626 640
f 151 572 573
f 515 516 138
f 8 252 378
f 265 72 374
f 9 521 519
f 538 549 42
f 368 358 347
f 588 587 586
f 458 453 123
f 589 385 103
f 502 492 481
f 32 416 414
f 430 427 424
f 153 585 587
f 540 144 539
f 370 368 92
f 209 293 58
f 428 33 535
f 326 581 346
f 625 307 82
f 575 28 582
f 6 181 200
f 421 109 420
f 553 121 443
f 160 642 640
f 153 584 585
f 309 432 558
f 334 337 89
f 23 315 313
f 271 163 43
f 296 295 213
f 39 498 496
f 118 439 433
f 531 113 534
f 293 296 58
f 28 362 351
f 489 131 487
f 431 444 452
f 84 558 560
f 98 366 360
f 45 169 170
f 379 101 378
f 462 463 125
f 308 84 314
f 10 432 309
f 299 24 310
f 132 492 502
f 512 387 7
f 639 638 408
f 565 323 86
f 59 244 242
f 106 400 402
f 440 33 426
f 566 565 563
f 617 398 378
f 224 225 59
f 410 109 409
f 239 400 399
f 194 219 53
f 358 22 347
f 610 157 609
f 27 595 603
f 479 484 482
f 142 520 521
f 585 25 577
f 339 578 577
f 408 407 406
f 407 109 406
f 31 408 406
f 407 408 108
f 31 639 408
f 419 31 406
f 608 616 40
f 430 429 431
f 455 35 429
f 35 444 431
f 188 51 187
f 188 182 51
f 51 322 187
f 322 51 319
f 51 182 183
f 319 51 183
f 187 322 321
f 322 319 324
f 381 101 379
f 405 407 108
f 404 405 108
f 286 285 178
f 407 405 409
f 109 407 409
f 191 175 47
f 167 164 170
f 50 184 185
f 44 167 170
f 64 244 236
f 243 244 64
f 50 188 189
f 541 542 145
f 442 445 119
f 339 91 578
f 445 446 119
f 624 623 622
f 611 624 157
f 523 526 141
f 141 527 529
f 527 514 529
f 445 120 444
f 446 445 444
f 35 446 444
f 613 614 158
f 158 614 615
f 623 613 158
f 614 613 391
f 614 612 615
f 371 376 374
f 100 376 371
f 479 482 123
f 373 394 384
f 540 42 634
f 633 540 634
f 538 42 540
f 633 634 161
f 161 634 640
f 42 626 634
f 540 633 144
f 557 556 338
f 553 333 89
f 262 21 264
f 251 21 262
f 5 335 333
f 270 251 262
f 21 251 249
f 600 593 30
f 606 593 600
f 600 30 375
f 593 390 30
f 30 377 375
f 390 388 30
f 30 388 377
f 228 243 241
f 470 478 459
f 470 127 478
f 127 477 478
f 184 186 185
f 478 477 476
f 122 478 476
f 357 74 280
f 518 39 507
f 344 342 85
f 325 344 85
f 342 344 343
f 85 342 321
f 344 90 343
f 90 344 336
f 482 129 481
f 482 481 457
f 482 457 123
f 481 37 457
f 449 447 34
f 435 449 34
f 470 472 471
f 472 470 37
f 470 471 127
f 472 126 471
f 126 468 471
f 470 459 37
f 491 126 472
f 504 129 485
f 221 59 242
f 125 463 465
f 437 34 562
f 561 437 562
f 554 568 562
f 34 554 562
f 437 561 116
f 390 103 389
f 103 386 389
f 392 105 391
f 572 586 580
f 572 580 36
f 586 152 580
f 473 572 36
f 244 243 242
f 225 244 59
f 64 240 241
f 240 239 241
f 237 240 64
f 243 64 241
f 236 237 64
f 411 607 521
f 9 411 521
f 110 607 411
f 607 142 521
f 610 607 110
f 171 15 184
f 171 169 15
f 15 186 184
f 87 584 581
f 153 588 582
f 588 575 582
f 381 102 380
f 573 572 473
f 468 469 128
f 474 468 128
f 469 571 128
f 571 573 128
f 573 473 128
f 473 474 128
f 564 323 565
f 26 323 564
f 323 324 86
f 325 323 26
f 325 324 323
f 563 565 86
f 324 325 85
f 410 230 18
f 230 228 18
f 18 228 241
f 18 241 239
f 401 619 618
f 401 402 107
f 403 402 401
f 619 159 618
f 401 618 32
f 619 401 107
f 403 401 32
f 618 611 32
f 159 624 618
f 478 122 459
f 122 458 459
f 37 459 457
f 459 458 457
f 122 456 458
f 457 458 123
f 191 190 192
f 485 129 484
f 129 482 484
f 483 485 484
f 130 483 484
f 189 187 14
f 191 50 189
f 191 189 175
f 189 14 175
f 14 177 175
f 499 501 500
f 501 499 38
f 38 499 590
f 135 499 500
f 488 501 38
f 499 135 591
f 480 454 4
f 284 12 346
f 4 423 506
f 480 4 506
f 423 531 506
f 480 506 505
f 531 137 506
f 506 137 505
f 365 366 98
f 71 270 262
f 270 71 269
f 71 267 269
f 335 334 333
f 333 334 89
f 334 335 91
f 536 9 519
f 465 463 461
f 537 140 541
f 520 140 519
f 119 446 465
f 465 461 119
f 461 441 119
f 460 441 461
f 176 46 173
f 299 297 24
f 71 263 266
f 263 260 266
f 260 72 266
f 263 70 260
f 205 201 49
f 201 181 49
f 186 205 49
f 181 201 200
f 181 182 49
f 284 77 283
f 586 587 152
f 588 586 151
f 20 267 265
f 266 267 71
f 31 417 631
f 631 417 632
f 31 631 639
f 417 31 419
f 641 631 161
f 417 112 632
f 161 631 632
f 418 417 419
f 417 418 112
f 284 345 77
f 542 550 145
f 542 541 524
f 284 174 12
f 48 174 283
f 373 20 265
f 373 265 374
f 609 608 525
f 608 157 622
f 560 559 313
f 636 637 162
f 541 140 524
f 41 542 524
f 358 357 280
f 70 263 264
f 263 262 264
f 176 177 46
f 174 48 173
f 174 173 172
f 538 551 549
f 538 540 539
f 537 541 539
f 232 221 242
f 17 221 232
f 232 242 62
f 231 232 62
f 203 205 55
f 203 55 202
f 201 205 203
f 202 55 217
f 205 206 55
f 204 203 202
f 73 275 292
f 292 290 73
f 272 290 282
f 290 292 291
f 75 290 291
f 290 75 282
f 70 277 259
f 277 70 281
f 277 281 279
f 260 70 259
f 12 174 172
f 104 396 388
f 367 27 354
f 365 27 367
f 354 27 356
f 365 367 366
f 595 27 365
f 318 299 310
f 155 596 597
f 155 597 598
f 596 594 597
f 595 596 155
f 605 595 155
f 180 47 179
f 180 190 47
f 352 372 11
f 11 372 261
f 312 310 24
f 642 636 162
f 636 297 637
f 367 369 97
f 366 367 97
f 369 367 354
f 369 370 97
f 580 579 464
f 580 152 579
f 579 124 464
f 61 230 409
f 230 410 409
f 230 61 229
f 230 229 228
f 76 285 286
f 353 352 276
f 74 353 276
f 288 76 286
f 288 286 283
f 289 288 287
f 203 54 201
f 287 288 77
f 77 288 283
f 286 48 283
f 531 423 113
f 276 11 259
f 11 261 259
f 277 276 259
f 616 158 615
f 516 616 615
f 138 516 615
f 138 615 612
f 509 533 532
f 503 502 504
f 635 79 294
f 635 294 404
f 635 637 79
f 637 635 638
f 638 635 108
f 635 404 108
f 226 61 405
f 61 226 227
f 405 61 409
f 227 226 207
f 48 178 179
f 48 286 178
f 173 48 179
f 534 143 533
f 534 535 143
f 531 534 533
f 533 143 532
f 137 531 533
f 261 372 371
f 13 180 178
f 285 13 178
f 180 13 166
f 13 168 166
f 346 345 284
f 331 327 46
f 46 327 172
f 172 327 326
f 382 620 101
f 442 121 448
f 443 121 442
f 2 226 404
f 294 2 404
f 404 226 405
f 207 226 2
f 550 551 145
f 552 146 551
f 143 550 532
f 552 550 143
f 330 329 328
f 24 636 629
f 94 352 353
f 352 11 276
f 113 428 534
f 428 535 534
f 509 41 511
f 535 552 143
f 550 552 551
f 550 542 532
f 369 95 368
f 326 327 87
f 87 327 329
f 327 331 329
f 581 326 87
f 293 79 298
f 79 297 298
f 296 298 78
f 79 293 294
f 296 293 298
f 598 490 38
f 358 280 22
f 280 279 278
f 357 358 95
f 74 357 353
f 330 328 25
f 567 23 559
f 590 598 38
f 590 604 598
f 598 604 155
f 604 590 154
f 590 591 154
f 604 154 606
f 297 299 298
f 299 318 78
f 298 299 78
f 355 354 356
f 629 636 642
f 312 24 629
f 629 642 160
f 370 362 97
f 362 363 97
f 363 366 97
f 364 363 362
f 362 370 351
f 96 363 364
f 297 636 24
f 162 637 638
f 637 297 79
f 490 488 38
f 598 597 490
f 441 442 119
f 443 442 441
f 443 441 5
f 442 448 445
f 296 78 295
f 326 12 172
f 575 574 364
f 47 175 176
f 175 177 176
f 47 176 179
