# FEM surface export ¡ª frame 421
# Vertices: 642  Faces: 1280
v -0.51894641 1.11556208 -0.00288194
v 0.51976806 1.11466789 -0.00035426
v -0.52105004 0.02850509 -0.04201476
v 0.55763978 0.14381857 0.00124024
v 0.00597270 0.00000000 0.97556353
v 0.00045270 0.84758216 0.86667246
v -0.00631578 0.00000000 -0.99302560
v -0.00082729 0.84699017 -0.86600912
v 0.90643793 0.38397056 -0.55957776
v 0.90826446 0.37856844 0.55920410
v -0.90206105 0.37425610 -0.55776054
v -0.90336728 0.38192222 0.56049609
v -0.82630754 0.82484806 0.31449884
v -0.51787406 0.66005856 0.84011948
v -0.30668053 1.08226264 0.49419296
v 0.30704865 1.08252501 0.49622819
v 0.00042323 1.22902691 -0.00117422
v 0.30588752 1.08369505 -0.49527901
v -0.30710593 1.08249688 -0.49667755
v -0.51945192 0.65431023 -0.83889395
v -0.82660747 0.82242632 -0.31632221
v -1.06537509 0.38033015 0.00479051
v 0.52116013 0.65634966 0.84151524
v 0.82662255 0.82531077 0.31609562
v -0.54481769 0.11018724 0.88269120
v 0.00328251 0.38165987 1.06639755
v -0.94363165 0.00000000 -0.35309342
v -0.94465512 0.00000000 0.35804752
v -0.00032275 0.38284978 -1.06241333
v -0.54903358 0.11621593 -0.87815446
v 0.82724637 0.82404119 -0.31576583
v 0.51837540 0.65845925 -0.84155399
v 0.93097335 0.00000000 0.34690219
v 0.55109978 0.10976022 0.87871480
v 0.32906923 0.00501382 0.57445526
v -0.35795730 0.01387223 0.55349070
v 0.01359439 0.03663789 0.02501605
v -0.33465797 0.01320908 -0.49489105
v 0.33657530 0.00000000 -0.49588466
v 0.55352807 0.12497633 -0.89131761
v 0.93851489 0.00000000 -0.35559362
v 1.06747770 0.38398942 -0.00232435
v -0.69499582 0.99564660 0.15866373
v -0.58927411 0.98484361 0.42451817
v -0.42813745 1.12484860 0.25407809
v -0.73685187 0.52850032 0.73004633
v -0.70775622 0.76283312 0.60227048
v -0.89950240 0.61597610 0.45143884
v -0.16050045 0.98728925 0.70308053
v -0.43125010 0.90083921 0.69464874
v -0.26611814 0.76913530 0.88592148
v -0.15782794 1.19205236 0.25566438
v -0.26565054 1.20141256 -0.00108324
v 0.16017552 0.98688680 0.70363533
v -0.00006020 1.11466527 0.51856744
v 0.26620641 1.20021927 -0.00066706
v 0.15994355 1.19413960 0.25629047
v 0.42905703 1.12472272 0.25563747
v -0.15824199 1.19249880 -0.25835666
v -0.42703706 1.12471592 -0.25814241
v 0.42851689 1.12544250 -0.25635347
v 0.15850508 1.19360864 -0.25775039
v -0.16177130 0.98729795 -0.70307463
v 0.00119699 1.11524880 -0.51909500
v 0.16004325 0.98837924 -0.70371234
v -0.59042734 0.98167735 -0.42749643
v -0.69475210 0.99390906 -0.16282181
v -0.26744893 0.76533526 -0.88423830
v -0.43086869 0.89892673 -0.69706577
v -0.89881098 0.61259454 -0.45252416
v -0.70671576 0.75721639 -0.60237461
v -0.73717427 0.52259541 -0.72840708
v -0.86629212 0.84573096 -0.00167005
v -1.02249777 0.37883955 -0.28802076
v -0.99305624 0.61523956 -0.17049533
v -0.98929858 0.61707878 0.16719197
v -1.02320039 0.37893400 0.29330266
v 0.59039563 0.98229468 0.42685089
v 0.69492072 0.99528182 0.16048786
v 0.26846001 0.76679587 0.88692391
v 0.43185037 0.89812714 0.69662857
v 0.90133125 0.61372858 0.45319462
v 0.71025878 0.76039559 0.60556597
v 0.74166614 0.52764076 0.72877347
v -0.27496698 0.52952498 1.00112510
v 0.00096439 0.62750113 1.00426519
v -0.75143099 0.23995011 0.74667925
v -0.55727053 0.38356423 0.90511721
v 0.00091952 0.14870110 1.04583061
v -0.28093544 0.24089806 1.02137172
v -0.28281370 0.01840232 0.96562546
v -1.02125430 0.14117429 0.17761824
v -0.92893314 0.14819460 0.47076046
v -0.93113333 0.14612514 -0.46388057
v -1.02821040 0.15255761 -0.17252216
v -0.78583497 0.01067000 0.15675329
v -0.99576920 0.00000000 -0.01137715
v -0.76725888 0.03923839 -0.19283749
v -0.55821866 0.38314718 -0.90225190
v -0.75059164 0.23801556 -0.74046779
v 0.00026085 0.62577683 -1.00058603
v -0.27496934 0.52502924 -0.99893069
v -0.29251495 0.02384299 -0.96605605
v -0.28700763 0.24010229 -1.02315915
v -0.00094043 0.15203136 -1.05019271
v 0.43095833 0.90023160 -0.69731820
v 0.26692474 0.76732969 -0.88621455
v 0.69520205 0.99501491 -0.16174768
v 0.58974856 0.98264927 -0.42543408
v 0.73653209 0.52652293 -0.73025161
v 0.70847511 0.75905281 -0.60559702
v 0.90195370 0.61487007 -0.45386624
v 0.78515524 0.07689045 0.17558789
v 0.67756492 0.00000000 0.47795609
v 0.47270188 0.04729244 0.26842764
v 0.76102757 0.23446690 0.74546444
v 0.77057016 0.00311490 0.64612353
v 0.93901420 0.15095423 0.46635959
v 0.17073274 0.00000000 0.82626992
v 0.50848711 0.00000000 0.81241995
v 0.29403365 0.01121489 0.96358973
v 0.15897416 0.06640685 0.29255453
v 0.27084944 0.02540160 0.01270413
v -0.20631121 0.00000992 0.81402516
v -0.02611804 0.01480480 0.57710892
v -0.26126873 0.03490833 0.02618430
v -0.17743976 0.06683868 0.26765725
v -0.46476355 0.00000000 0.24342804
v 0.14967102 0.02823804 -0.24950509
v 0.48398241 0.02650116 -0.24046892
v -0.42810169 0.03078231 -0.25762671
v -0.13857411 0.02469083 -0.19147751
v 0.21376024 0.00000000 -0.77964205
v -0.00248733 0.00000000 -0.52264893
v -0.16185746 0.00002451 -0.78408289
v 0.66858065 0.01620780 -0.46911871
v 0.77817661 0.07793199 -0.16701703
v 0.28716084 0.03248647 -0.97792137
v 0.50685734 0.00000000 -0.81402993
v 0.93849158 0.15625966 -0.47028193
v 0.78447306 0.03295971 -0.66641635
v 0.76005560 0.24048972 -0.74682152
v 0.99985433 0.00000000 -0.01009509
v 1.02462637 0.38346955 -0.29072991
v 1.02503121 0.15106040 -0.17646439
v 1.02927387 0.14920899 0.17137773
v 1.02677500 0.38187787 0.28997147
v 0.28394201 0.23574048 1.01964748
v 0.56232709 0.38144591 0.90504009
v 0.27917230 0.52687222 0.99955297
v -0.68787849 0.00000000 0.48414338
v -0.50048113 0.00000000 0.79995304
v -0.77312171 0.04495932 0.65994364
v -0.48105085 0.00000000 -0.81623209
v -0.66728985 0.04421687 -0.47686321
v -0.77817494 0.04781476 -0.65892607
v 0.55778056 0.38191354 -0.90302968
v 0.28582549 0.24598652 -1.02512383
v 0.27472931 0.52675056 -0.99815685
v 0.99293441 0.61696911 0.16893034
v 0.99284518 0.61895776 -0.16867261
v 0.86720204 0.84750050 0.00022530
v -0.61113334 1.06274283 0.07874002
v -0.56626940 1.06958044 0.20942548
v -0.47696823 1.12630856 0.12734127
v -0.71563894 0.91249102 0.37304172
v -0.64747977 0.99600476 0.29372892
v -0.76735556 0.91610265 0.23693390
v -0.37051624 1.10983384 0.37708652
v -0.51245785 1.06126499 0.34239623
v -0.45190173 1.04102767 0.46441603
v -0.82802999 0.45602432 0.65180618
v -0.82977867 0.57490128 0.59806889
v -0.91109729 0.50168043 0.51114261
v -0.62143028 0.71564853 0.72958255
v -0.73107243 0.64936590 0.67227936
v -0.63417697 0.59704924 0.79292649
v -0.86978906 0.72459489 0.38520426
v -0.81055194 0.69224137 0.53208077
v -0.77602357 0.80087698 0.46343639
v -0.08139985 0.92250252 0.79117173
v -0.21531962 0.88509113 0.80324399
v -0.13361575 0.81151491 0.88485336
v -0.37157264 0.99925858 0.60057622
v -0.29778233 0.94956613 0.70608371
v -0.23592450 1.04039514 0.60322201
v -0.39563015 0.72004259 0.87154388
v -0.35340908 0.84004545 0.79755074
v -0.48072174 0.78791261 0.77525079
v -0.65577871 0.88223386 0.51875484
v -0.57657528 0.83866572 0.65707159
v -0.51620096 0.95068705 0.56621301
v -0.35108656 1.17194033 0.12728193
v -0.39489940 1.16429400 -0.00154813
v -0.23423199 1.14748681 0.37852627
v -0.29585409 1.16529167 0.25725314
v -0.13396882 1.22538972 -0.00161134
v -0.21355070 1.20382082 0.12833199
v -0.07943047 1.22110820 0.12869620
v 0.08211767 0.92198318 0.79041946
v -0.00025976 0.99473470 0.71101028
v 0.15390810 1.10589886 0.51247698
v 0.08008566 1.05789447 0.61511874
v 0.23615657 1.03984714 0.60442370
v -0.07956479 1.05713737 0.61534250
v -0.15450239 1.10741162 0.51262468
v 0.39676720 1.16442490 -0.00011046
v 0.35141331 1.17136788 0.12921831
v 0.47820312 1.12660289 0.12798457
v 0.08071153 1.21976662 0.12881316
v 0.21543863 1.20481467 0.13001393
v 0.13468911 1.22455525 -0.00064168
v 0.37252799 1.11013782 0.37858793
v 0.29544252 1.16650236 0.25889924
v 0.23501888 1.14628053 0.37924081
v -0.08149108 1.16504443 0.39222994
v 0.07976062 1.16447484 0.39046100
v -0.00046094 1.20319164 0.25830880
v -0.34993267 1.17179382 -0.13105156
v -0.47670546 1.12613904 -0.13115993
v -0.07947996 1.22119141 -0.13052660
v -0.21400233 1.20596743 -0.13108432
v -0.37088647 1.10885620 -0.38023475
v -0.29452932 1.16586399 -0.26041901
v -0.23408265 1.14681447 -0.38067156
v 0.47835490 1.12749338 -0.12909731
v 0.35167104 1.17375243 -0.12979205
v 0.23479365 1.14832342 -0.37991288
v 0.29545477 1.16689420 -0.25911811
v 0.37067562 1.11033905 -0.37890503
v 0.21454860 1.20556676 -0.13008136
v 0.08010495 1.22167373 -0.13051160
v -0.08225387 0.92270273 -0.79104894
v 0.00004436 0.99588799 -0.71254188
v 0.08167306 0.92227894 -0.79186040
v -0.15427166 1.10654819 -0.51339483
v -0.08097623 1.05901790 -0.61707419
v -0.23672231 1.04094386 -0.60409874
v 0.23591073 1.04188192 -0.60452491
v 0.08035509 1.05959225 -0.61682624
v 0.15412997 1.10788476 -0.51322484
v 0.00023174 1.20261049 -0.25997916
v 0.08151824 1.16480923 -0.39112476
v -0.07973766 1.16421986 -0.39232945
v -0.56633073 1.06895232 -0.21427403
v -0.61186159 1.06180632 -0.08301406
v -0.45269424 1.03918266 -0.46805814
v -0.51221311 1.06082869 -0.34619799
v -0.76708174 0.91413748 -0.24130148
v -0.64860404 0.99519920 -0.29784414
v -0.71580279 0.90974528 -0.37657544
v -0.13497140 0.81004900 -0.88314635
v -0.21577826 0.88431031 -0.80352300
v -0.47955659 0.78230923 -0.77646542
v -0.35314789 0.83708924 -0.79855847
v -0.39656156 0.71347851 -0.86965764
v -0.29812804 0.94806409 -0.70810133
v -0.37247652 0.99852598 -0.60346037
v -0.90867043 0.49513987 -0.51107180
v -0.82821733 0.56894141 -0.59690267
v -0.82576287 0.44880438 -0.65068960
v -0.77564460 0.79482192 -0.46431571
v -0.80990076 0.68850845 -0.53231537
v -0.87086415 0.72102344 -0.38701996
v -0.63394904 0.59087825 -0.79069519
v -0.72979414 0.64419383 -0.67061090
v -0.62118328 0.71165174 -0.72869438
v -0.51736665 0.94622183 -0.56852281
v -0.57553542 0.83339131 -0.65969950
v -0.65635246 0.87694967 -0.52075148
v -0.70377362 1.00251865 -0.00202035
v -0.85660738 0.83943361 -0.16148213
v -0.78783846 0.92545742 -0.08414624
v -0.78764391 0.92677516 0.07965083
v -0.85499656 0.84058887 0.15789744
v -0.97145140 0.37703243 -0.42767248
v -0.97250903 0.49676198 -0.37801033
v -1.03755379 0.49798489 -0.08617567
v -1.01839674 0.49940884 -0.23150751
v -1.05251253 0.38044178 -0.14396243
v -0.95532471 0.61516613 -0.31463069
v -0.91934878 0.72282654 -0.24728881
v -0.97338271 0.49961010 0.37709087
v -0.97090340 0.38009748 0.42992997
v -0.91860902 0.72579062 0.24441813
v -0.95411628 0.62046814 0.31276143
v -1.05386591 0.38271445 0.14944023
v -1.01712430 0.50327909 0.23276943
v -1.04197562 0.50191933 0.08648656
v -0.94112289 0.73642570 -0.08670037
v -1.00559628 0.61930227 -0.00075061
v -0.94116074 0.73751503 0.08240841
v 0.56707728 1.07008147 0.21085328
v 0.61175609 1.06098938 0.07984459
v 0.45298573 1.03977346 0.46735334
v 0.51434106 1.06114316 0.34390301
v 0.76771092 0.91640812 0.23996483
v 0.64906979 0.99659741 0.29592368
v 0.71614319 0.91155744 0.37599224
v 0.13511685 0.81164491 0.88566738
v 0.21730106 0.88444090 0.80397964
v 0.48276368 0.78568828 0.77893066
v 0.35400298 0.83658284 0.79838198
v 0.39840546 0.71521163 0.87307662
v 0.29738235 0.94762123 0.70757955
v 0.37272868 0.99756867 0.60269815
v 0.91114175 0.49618641 0.51119334
v 0.83135194 0.57266355 0.59760350
v 0.82928932 0.45182818 0.64869130
v 0.77753145 0.79787678 0.46510544
v 0.81242979 0.69102478 0.53459567
v 0.87272459 0.72485685 0.38759658
v 0.63632816 0.59317482 0.79507458
v 0.73193341 0.64577764 0.67475998
v 0.62401724 0.71268272 0.73229718
v 0.51885372 0.94763589 0.56921661
v 0.57707405 0.83501577 0.65896231
v 0.65750682 0.87979567 0.52165753
v -0.13529265 0.70112348 0.95596629
v 0.00096912 0.74125528 0.94302756
v -0.40227827 0.59728163 0.93092775
v -0.27413809 0.65193576 0.95169151
v 0.00213917 0.50525588 1.04476762
v -0.13832949 0.57918048 1.01163590
v -0.14066312 0.45584404 1.04914975
v -0.83654898 0.30764005 0.65836877
v -0.75525099 0.38283879 0.74743801
v -0.55452013 0.24354130 0.90277976
v -0.66086423 0.31223145 0.83405024
v -0.65344948 0.17578124 0.82179970
v -0.65395528 0.45760295 0.82684571
v -0.54381597 0.52581733 0.88412964
v -0.00526100 0.05453354 1.01359439
v -0.14426845 0.08354484 1.01206648
v -0.13976996 0.00131701 0.98374736
v -0.13938059 0.31235707 1.06000280
v -0.14280561 0.19551462 1.04540730
v 0.00240009 0.25882620 1.06575346
v -0.42088649 0.06593023 0.93425101
v -0.28585389 0.12557517 1.00068629
v -0.41611919 0.17127137 0.96500051
v -0.42022878 0.45589647 0.96546268
v -0.42626965 0.30748990 0.97687846
v -0.28285122 0.38305199 1.02593160
v -0.99537116 0.26126549 0.38971290
v -0.92418247 0.26255864 0.52038836
v -1.05735588 0.25684556 0.09403774
v -1.03517973 0.25829944 0.23929742
v -0.93204010 0.05160100 0.42376399
v -0.98688149 0.14200877 0.32938665
v -0.97943813 0.04537849 0.26821297
v -0.92479342 0.25812307 -0.51622272
v -0.98695475 0.25963646 -0.38018936
v -0.98784876 0.05328859 -0.25706753
v -0.99364865 0.14669122 -0.32311872
v -0.93099087 0.04593289 -0.40467525
v -1.03461552 0.25924087 -0.23444064
v -1.05946434 0.26297316 -0.08269373
v -0.66796190 0.00000000 0.05016943
v -0.76664245 0.00000000 -0.04461807
v -0.62484545 0.00219392 -0.14048088
v -0.98431492 0.00000000 0.17219839
v -0.89116341 0.00000000 0.06651183
v -0.87974495 0.00000000 0.25579062
v -0.86416322 0.00000000 -0.27042967
v -0.90345776 0.00000000 -0.12099680
v -0.98518306 0.00000000 -0.18837219
v -1.03998029 0.14098448 0.00068544
v -1.03053904 0.04542401 -0.08988731
v -1.01917362 0.03606229 0.09229167
v -0.75395173 0.37786707 -0.74511105
v -0.83489758 0.30203620 -0.65390974
v -0.54424441 0.52025014 -0.88137960
v -0.65419447 0.45072353 -0.82379586
v -0.66065896 0.17521603 -0.81877351
v -0.66091096 0.30451098 -0.82943469
v -0.56045657 0.24480021 -0.90218496
v -0.00012744 0.74022549 -0.94096184
v -0.13585593 0.70046896 -0.95432478
v -0.13928889 0.45567334 -1.04471338
v -0.13802935 0.57829911 -1.00843775
v 0.00014317 0.50651228 -1.04263532
v -0.27293092 0.64882636 -0.94972926
v -0.40101773 0.59303242 -0.92903793
v -0.15539080 0.00000000 -0.99568647
v -0.14576982 0.08050437 -1.02409410
v -0.00170171 0.04626263 -1.03175211
v -0.42116526 0.17347345 -0.96986848
v -0.29035872 0.12411249 -1.00380552
v -0.42640162 0.06724361 -0.93286645
v -0.00030003 0.26371658 -1.06622720
v -0.14513567 0.19441622 -1.04624677
v -0.14533713 0.31187913 -1.05678999
v -0.42091888 0.45316404 -0.96196413
v -0.28444904 0.38298354 -1.02554727
v -0.42744443 0.30594617 -0.97170150
v 0.21628575 0.88433677 -0.80272275
v 0.13380547 0.81126612 -0.88460016
v 0.37170443 1.00010586 -0.60224873
v 0.29757985 0.95066518 -0.70706618
v 0.39656129 0.71792066 -0.87085140
v 0.35350940 0.83933026 -0.79775226
v 0.48157218 0.78441525 -0.77560204
v 0.61232847 1.06183767 -0.08130454
v 0.56731761 1.07021689 -0.21132252
v 0.71581101 0.91077071 -0.37494379
v 0.64855957 0.99618739 -0.29612154
v 0.76791620 0.91460240 -0.23961966
v 0.51372457 1.06185830 -0.34405038
v 0.45252946 1.04126179 -0.46791083
v 0.83014876 0.45529991 -0.65285021
v 0.83112967 0.57367551 -0.59998393
v 0.91356987 0.50029188 -0.51094466
v 0.62127912 0.71202660 -0.73052192
v 0.72941756 0.64548790 -0.67293876
v 0.63281912 0.59374255 -0.79295290
v 0.87069947 0.72345030 -0.38687512
v 0.81300658 0.69178742 -0.53531778
v 0.77551198 0.79782718 -0.46556324
v 0.51730418 0.94845587 -0.56823117
v 0.65687311 0.87809044 -0.52066988
v 0.57578969 0.83532482 -0.65869004
v 0.65826321 0.10674560 0.10098482
v 0.61987042 0.07180015 0.23918624
v 0.50770444 0.11115234 0.15187301
v 0.83085024 0.00000000 0.44228041
v 0.74128062 0.02952451 0.33343410
v 0.87683308 0.01377720 0.27154657
v 0.41540536 0.00000000 0.42953163
v 0.57788646 0.01198509 0.38591948
v 0.51581669 0.00848760 0.53559858
v 0.84281051 0.30478129 0.65924060
v 0.86111325 0.18723722 0.61643350
v 0.93103439 0.26275969 0.51841211
v 0.66826749 0.05478134 0.77559251
v 0.76729774 0.11426968 0.70051479
v 0.66186911 0.17025782 0.81819201
v 0.94361907 0.05567904 0.41904444
v 0.86751390 0.07698531 0.56411517
v 0.85726869 0.00000000 0.50015897
v 0.09652731 0.00529185 0.93066072
v 0.25615379 0.00000000 0.93746483
v 0.14985009 0.00000000 0.98914021
v 0.42797786 0.01737362 0.70633048
v 0.34343338 0.00016043 0.82740706
v 0.25135589 0.00172483 0.69836140
v 0.43056825 0.06213124 0.93404901
v 0.40872532 0.00000000 0.90670341
v 0.52969009 0.00163132 0.86381948
v 0.75795203 0.00000000 0.60355997
v 0.66050702 0.00000000 0.75814539
v 0.59893525 0.00000000 0.64989644
v 0.37026879 0.00007670 0.12611726
v 0.42967609 0.03876842 0.01588222
v 0.24747699 0.00138377 0.42961451
v 0.32027465 0.03292786 0.28417352
v 0.14857048 0.03648563 0.02805654
v 0.21112351 0.03012492 0.15598333
v 0.07268459 0.05205441 0.15228839
v -0.09724253 0.00000000 0.93292129
v -0.01975323 0.00054321 0.82882178
v -0.19555251 0.06745899 0.55739135
v -0.12895046 0.02985783 0.69603342
v -0.29105240 0.05875656 0.69415247
v 0.06629910 0.00976782 0.70823419
v 0.14318863 0.00026333 0.57291782
v -0.38098729 0.03811169 0.01467929
v -0.36786953 0.12773828 0.11498397
v -0.51264125 0.06080928 0.10054037
v -0.09135046 0.05922235 0.13346082
v -0.21929784 0.17082295 0.14630029
v -0.14744477 0.05580535 0.04419298
v -0.43088919 0.03004632 0.39601809
v -0.31137827 0.04461643 0.24093655
v -0.28777146 0.08397090 0.41692743
v 0.06883173 0.09008089 0.43821809
v -0.11360121 0.12161603 0.43577105
v -0.02901344 0.00339114 0.28618068
v 0.36151844 0.02576358 -0.11339346
v 0.50002068 0.08353877 -0.13848233
v 0.08270381 0.04159220 -0.12025217
v 0.20522749 0.01969602 -0.11214221
v 0.40629080 0.03823659 -0.36298224
v 0.31321728 0.01169636 -0.24442850
v 0.22961074 0.00483366 -0.33384797
v -0.46107382 0.02723292 -0.14761789
v -0.34468499 0.00246604 -0.10365154
v -0.23168601 0.02302388 -0.34508088
v -0.28846636 0.01529933 -0.22067079
v -0.37505424 0.02200284 -0.37717089
v -0.23420475 0.04953832 -0.10615426
v -0.09615163 0.05131976 -0.10012046
v 0.10831150 0.00000000 -0.89285046
v 0.03246734 0.00000000 -0.79510105
v -0.08598121 0.00801226 -0.89604461
v 0.18349217 0.00000000 -0.50681764
v 0.11010654 0.00000000 -0.64882416
v 0.27674359 0.00069494 -0.63862962
v -0.25619122 0.00000000 -0.65156293
v -0.06481360 0.00626913 -0.66785467
v -0.15680501 0.02918219 -0.52945662
v 0.00060669 0.07101075 -0.24475548
v -0.07754354 0.00000000 -0.35971785
v 0.08978446 0.03289603 -0.37172362
v 0.62904841 0.13210811 -0.22274014
v 0.67067355 0.08438378 -0.07155617
v 0.51204348 0.00397075 -0.48335844
v 0.56695151 0.07858051 -0.35929963
v 0.87028545 0.00779278 -0.27198035
v 0.73283863 0.06157474 -0.32414445
v 0.81832469 0.00457808 -0.43984273
v 0.14455210 0.00126701 -0.99577421
v 0.25789234 0.00000000 -0.90476304
v 0.53733432 0.02670788 -0.87288356
v 0.40665746 0.00000000 -0.90827185
v 0.42637545 0.07200390 -0.94486022
v 0.36838573 0.03944111 -0.79567510
v 0.42845121 0.00444326 -0.65441680
v 0.93167114 0.26825044 -0.51963764
v 0.86312950 0.19651347 -0.61845261
v 0.84363025 0.31136131 -0.65877748
v 0.87519658 0.00410116 -0.51611793
v 0.86400837 0.08833268 -0.57233125
v 0.94412869 0.06568687 -0.41167417
v 0.66032660 0.17986037 -0.82280934
v 0.77139729 0.12400270 -0.71021014
v 0.67496783 0.07952487 -0.78778887
v 0.59056145 0.00000000 -0.64333600
v 0.65464395 0.00000000 -0.76523983
v 0.73437899 0.00000000 -0.60694861
v 0.78150797 0.09592344 0.02500169
v 0.97998482 0.00000000 -0.19690360
v 0.88840574 0.03030058 -0.09202879
v 0.91334510 0.02560586 0.08627250
v 0.96978688 0.00000000 0.17247179
v 0.97500277 0.38557544 -0.42883563
v 0.99286366 0.27040398 -0.38349873
v 1.06374609 0.26126987 -0.08732358
v 1.03803337 0.26729798 -0.23380314
v 1.05662239 0.38127145 -0.14752236
v 0.99184614 0.15616052 -0.32707483
v 0.99662971 0.07380702 -0.26903829
v 0.99811321 0.26051149 0.38264716
v 0.97693533 0.37763444 0.42752025
v 0.99924445 0.06600570 0.26692230
v 0.99509549 0.14391404 0.32403225
v 1.05630505 0.38154137 0.14578143
v 1.03995979 0.26107734 0.23368473
v 1.06038415 0.26306525 0.08528765
v 1.02126265 0.04602875 -0.09612913
v 1.04216480 0.14280760 -0.00182448
v 1.02175903 0.04518446 0.08578866
v 0.14452907 0.07343310 1.00917447
v 0.41890278 0.17166026 0.95875478
v 0.28891215 0.11596530 0.99443817
v 0.14427036 0.18682684 1.03828323
v 0.14565775 0.30831066 1.05982184
v 0.75729978 0.38125023 0.74585909
v 0.54975176 0.52082968 0.88843942
v 0.65890616 0.45669818 0.82467651
v 0.66520768 0.30702311 0.83136427
v 0.56100690 0.23934719 0.89698017
v 0.13764928 0.70047551 0.95657188
v 0.14569332 0.45366019 1.04855716
v 0.14088114 0.57722998 1.01095140
v 0.27579734 0.65142798 0.95309144
v 0.40449411 0.59398824 0.93155509
v 0.43100554 0.30499536 0.97532564
v 0.42620161 0.45235351 0.96884835
v 0.28745174 0.37958196 1.02960348
v -0.62257147 0.00716486 0.20846678
v -0.51877326 0.00172990 0.52145559
v -0.59180307 0.00680510 0.37124059
v -0.74064398 0.03252622 0.31427220
v -0.81715870 0.00453008 0.42178261
v -0.25063020 0.00000000 0.93862551
v -0.52443337 0.00257300 0.85643601
v -0.39292222 0.00000000 0.90926361
v -0.35966346 0.00000000 0.83371669
v -0.44300377 0.00240019 0.70012981
v -0.84901488 0.19249070 0.61403942
v -0.86368740 0.00000000 0.51895702
v -0.85614210 0.08020261 0.56933796
v -0.75779563 0.12563561 0.70422661
v -0.65977287 0.05934285 0.78401077
v -0.60517609 0.00000000 0.65378809
v -0.65984756 0.00000000 0.75874883
v -0.76722717 0.00000000 0.60939181
v -0.25351551 0.00000000 -0.93272847
v -0.40855646 0.02700377 -0.65802509
v -0.32924426 0.00000000 -0.81434333
v -0.40325552 0.00000000 -0.92029983
v -0.53279185 0.00071477 -0.85524762
v -0.59853774 0.11817499 -0.23735009
v -0.82218570 0.00000000 -0.42439523
v -0.70353246 0.02640193 -0.33605668
v -0.53334367 0.03680613 -0.36882243
v -0.49149078 0.09936587 -0.50054806
v -0.85523933 0.18762811 -0.61176896
v -0.67136151 0.06843872 -0.78279042
v -0.76946884 0.12358412 -0.70191997
v -0.86791670 0.08415898 -0.56443596
v -0.86812556 0.00293945 -0.51439083
v -0.56682658 0.00409999 -0.63309550
v -0.74788809 0.00000000 -0.60149658
v -0.65601867 0.00000000 -0.74823022
v 0.75715095 0.38110590 -0.74711174
v 0.56292999 0.24635674 -0.90463847
v 0.66483414 0.31253922 -0.83232784
v 0.65551341 0.45308018 -0.82575607
v 0.54541868 0.52211016 -0.88312972
v 0.14191619 0.08774044 -1.03314924
v 0.14313884 0.31120560 -1.05704200
v 0.14344701 0.19839448 -1.05141783
v 0.28899646 0.13018848 -1.01443946
v 0.42275134 0.17856430 -0.96876311
v 0.13628960 0.70091969 -0.95370597
v 0.40268707 0.59544462 -0.93126535
v 0.27446696 0.65121269 -0.95089096
v 0.13833287 0.57749593 -1.00772262
v 0.13987274 0.45379966 -1.04291654
v 0.42854181 0.30951345 -0.97412378
v 0.28330547 0.38444149 -1.02460730
v 0.42161912 0.45678002 -0.96519309
v 0.97736531 0.49842909 0.38001105
v 1.04488635 0.49851298 0.08764994
v 1.02480745 0.50288516 0.23340949
v 0.95725894 0.61844414 0.31496325
v 0.92148328 0.72655976 0.24577494
v 0.97373939 0.50334841 -0.37707135
v 0.91994196 0.72683614 -0.24658023
v 0.95594800 0.61841398 -0.31337127
v 1.01963151 0.50373387 -0.23193994
v 1.04264259 0.50311041 -0.08720269
v 0.70374066 1.00270140 -0.00101436
v 0.85711759 0.84303916 0.15956105
v 0.78823477 0.92862314 0.08206861
v 0.78867853 0.92673105 -0.08208980
v 0.85761994 0.84015059 -0.15861273
v 1.00537312 0.61795205 0.00203227
v 0.94369799 0.73766589 -0.08432488
v 0.94334167 0.73932040 0.08503585
f 330 87 329
f 336 325 26
f 207 208 56
f 464 36 580
f 502 129 504
f 157 624 622
f 308 311 82
f 247 223 248
f 507 483 508
f 331 88 329
f 494 500 497
f 156 601 602
f 591 589 592
f 365 98 596
f 75 281 282
f 152 587 577
f 149 559 560
f 555 121 553
f 530 141 529
f 515 517 139
f 361 594 98
f 250 67 249
f 157 608 609
f 294 293 209
f 317 81 316
f 557 338 26
f 303 305 81
f 530 529 528
f 101 381 382
f 415 418 111
f 192 184 50
f 412 110 411
f 20 384 256
f 131 594 486
f 281 264 282
f 347 287 348
f 28 349 582
f 165 163 1
f 248 250 66
f 617 107 398
f 273 271 274
f 456 115 453
f 558 561 560
f 335 576 91
f 331 177 332
f 116 433 436
f 351 370 92
f 136 511 530
f 239 240 65
f 247 258 19
f 304 23 567
f 148 557 570
f 214 208 58
f 440 426 450
f 268 270 269
f 258 247 268
f 204 202 16
f 466 125 465
f 517 513 133
f 168 275 274
f 275 73 274
f 198 193 53
f 309 308 307
f 510 511 136
f 415 416 110
f 131 490 597
f 473 475 474
f 414 415 111
f 493 495 494
f 496 504 485
f 433 116 432
f 600 375 601
f 240 234 65
f 418 415 412
f 486 361 3
f 567 566 304
f 380 393 29
f 17 199 197
f 491 492 132
f 451 449 435
f 218 217 216
f 623 621 613
f 396 104 395
f 433 439 436
f 628 160 627
f 215 202 217
f 209 207 2
f 427 113 424
f 434 10 544
f 434 433 432
f 199 17 210
f 150 564 565
f 489 491 132
f 275 13 285
f 497 500 134
f 125 466 476
f 578 152 577
f 208 214 211
f 328 88 343
f 356 27 603
f 150 566 567
f 372 100 371
f 190 191 47
f 235 8 398
f 260 261 72
f 422 403 414
f 422 414 111
f 453 454 123
f 349 583 582
f 521 520 519
f 425 453 115
f 616 622 158
f 483 130 508
f 151 586 572
f 212 17 232
f 400 397 402
f 377 396 99
f 41 522 511
f 510 508 505
f 549 547 42
f 475 473 36
f 510 137 509
f 222 221 197
f 430 115 429
f 220 194 1
f 305 54 204
f 621 29 613
f 192 171 184
f 460 335 5
f 88 331 332
f 74 277 279
f 300 301 80
f 390 389 388
f 165 45 164
f 146 549 551
f 291 278 75
f 448 120 445
f 147 543 544
f 607 610 609
f 603 602 356
f 139 529 514
f 333 553 443
f 92 368 347
f 261 260 259
f 300 6 200
f 46 177 331
f 284 283 174
f 301 300 200
f 471 468 474
f 54 305 301
f 302 304 303
f 569 150 567
f 150 569 570
f 294 209 2
f 628 629 160
f 548 543 147
f 147 625 627
f 63 233 234
f 426 427 114
f 41 509 532
f 198 52 196
f 614 105 612
f 147 627 547
f 81 305 306
f 549 548 547
f 54 301 200
f 342 88 332
f 264 281 70
f 193 194 53
f 455 429 456
f 187 321 14
f 479 130 484
f 147 544 625
f 458 456 453
f 304 80 303
f 314 84 313
f 488 503 501
f 321 332 14
f 423 425 424
f 305 204 306
f 341 339 25
f 514 40 516
f 625 628 627
f 340 339 341
f 105 614 391
f 243 228 62
f 318 316 78
f 75 278 279
f 357 355 353
f 238 257 63
f 466 455 476
f 425 423 4
f 448 449 120
f 408 638 108
f 292 275 285
f 22 278 289
f 515 513 517
f 501 503 134
f 622 623 158
f 134 503 504
f 195 216 206
f 163 271 246
f 619 617 620
f 62 228 229
f 163 165 164
f 453 425 454
f 489 132 488
f 82 628 625
f 58 208 209
f 525 608 40
f 626 547 627
f 518 517 498
f 489 487 491
f 557 26 564
f 325 336 344
f 541 145 539
f 40 616 516
f 338 556 89
f 250 248 245
f 139 514 515
f 98 594 596
f 246 220 1
f 112 413 630
f 9 536 413
f 156 600 601
f 332 177 14
f 321 342 332
f 156 606 600
f 584 330 585
f 302 303 81
f 584 87 330
f 330 25 585
f 400 239 65
f 439 440 117
f 95 358 368
f 597 594 131
f 594 361 486
f 246 67 245
f 561 562 149
f 28 364 362
f 55 216 217
f 427 430 114
f 267 20 254
f 556 555 553
f 84 309 558
f 311 310 312
f 609 525 142
f 256 68 255
f 124 460 461
f 82 311 312
f 307 308 82
f 589 135 495
f 527 40 514
f 112 418 412
f 20 256 254
f 258 238 19
f 267 254 269
f 273 272 249
f 392 391 393
f 137 533 509
f 122 455 456
f 9 413 411
f 130 480 505
f 333 443 5
f 527 525 40
f 589 495 385
f 39 496 485
f 223 225 224
f 414 416 415
f 219 222 53
f 145 538 539
f 413 412 411
f 469 468 467
f 183 181 6
f 191 192 50
f 429 35 431
f 292 285 76
f 413 112 412
f 415 110 412
f 43 164 167
f 467 468 126
f 617 101 620
f 450 451 117
f 438 546 545
f 619 620 159
f 17 212 210
f 124 579 576
f 584 153 583
f 460 124 576
f 3 469 467
f 311 308 314
f 6 320 183
f 389 104 388
f 251 250 249
f 194 165 1
f 291 289 278
f 287 77 348
f 238 258 257
f 139 517 518
f 238 236 19
f 223 247 19
f 382 380 29
f 39 518 498
f 361 359 3
f 69 255 257
f 139 518 528
f 33 545 535
f 387 385 7
f 69 268 269
f 477 462 125
f 454 479 123
f 121 555 447
f 451 435 117
f 454 425 4
f 233 252 8
f 124 463 464
f 69 258 268
f 168 167 166
f 583 153 582
f 384 394 102
f 138 512 513
f 57 210 211
f 254 256 255
f 607 609 142
f 324 319 86
f 289 291 76
f 291 292 76
f 384 102 383
f 422 421 420
f 221 17 197
f 383 102 381
f 376 377 99
f 99 373 374
f 386 105 392
f 438 33 440
f 90 341 343
f 281 75 279
f 574 571 96
f 628 82 312
f 221 222 59
f 127 471 474
f 595 605 603
f 551 538 145
f 334 91 340
f 322 324 85
f 305 303 301
f 18 239 399
f 306 204 16
f 199 198 197
f 166 190 180
f 303 80 301
f 267 266 265
f 626 42 547
f 16 215 213
f 349 351 350
f 295 16 213
f 68 379 252
f 250 251 66
f 627 160 626
f 383 68 256
f 343 88 342
f 507 508 136
f 202 215 16
f 197 198 53
f 254 69 269
f 603 605 156
f 418 419 111
f 384 383 256
f 455 122 476
f 203 204 54
f 556 557 148
f 255 68 253
f 313 84 560
f 25 328 341
f 254 255 69
f 603 156 602
f 581 584 583
f 630 632 112
f 163 246 1
f 246 245 220
f 432 116 558
f 499 591 590
f 320 563 86
f 345 93 350
f 306 16 295
f 346 93 345
f 562 568 149
f 604 605 155
f 154 592 593
f 545 552 535
f 511 522 530
f 574 573 571
f 566 150 565
f 361 98 360
f 67 271 273
f 234 235 65
f 208 211 56
f 574 151 573
f 251 270 66
f 398 8 378
f 213 215 214
f 438 440 439
f 315 314 313
f 263 71 262
f 20 373 384
f 496 134 504
f 329 88 328
f 81 306 316
f 555 556 148
f 592 589 103
f 617 619 107
f 227 207 56
f 571 359 96
f 446 466 465
f 206 216 55
f 359 571 469
f 568 148 570
f 34 437 435
f 28 351 349
f 21 272 282
f 113 423 424
f 490 489 488
f 379 68 383
f 210 212 211
f 80 563 300
f 351 92 350
f 326 346 12
f 83 317 318
f 555 148 554
f 212 231 56
f 218 57 217
f 271 67 246
f 195 196 52
f 270 268 66
f 390 592 103
f 148 568 554
f 495 493 7
f 592 390 593
f 357 95 355
f 574 575 151
f 452 120 451
f 154 591 592
f 587 585 577
f 395 394 396
f 93 349 350
f 610 416 611
f 166 44 190
f 315 23 302
f 315 302 317
f 268 247 66
f 606 154 593
f 396 394 99
f 211 212 56
f 370 369 368
f 235 397 65
f 280 278 22
f 83 315 317
f 575 588 151
f 74 279 280
f 385 495 7
f 63 257 253
f 397 235 398
f 214 58 213
f 220 219 194
f 546 146 545
f 236 225 19
f 599 94 602
f 235 233 8
f 102 394 395
f 611 416 32
f 225 223 19
f 139 528 529
f 231 62 229
f 419 406 421
f 451 450 452
f 49 182 185
f 402 397 107
f 52 199 218
f 416 610 110
f 225 236 244
f 107 397 398
f 68 252 253
f 322 85 321
f 182 181 183
f 118 438 439
f 546 438 118
f 348 77 345
f 543 546 118
f 231 212 232
f 610 611 157
f 33 438 545
f 385 386 103
f 479 480 130
f 169 195 15
f 93 583 349
f 15 195 206
f 190 44 192
f 247 248 66
f 146 552 545
f 248 60 245
f 570 557 564
f 274 271 43
f 63 253 233
f 272 21 249
f 507 528 518
f 67 273 249
f 487 467 126
f 196 195 169
f 624 159 623
f 134 496 497
f 132 503 488
f 104 393 395
f 556 553 89
f 355 356 94
f 258 69 257
f 229 61 227
f 56 231 227
f 460 576 335
f 463 124 461
f 394 373 99
f 29 393 391
f 67 250 245
f 193 198 196
f 462 36 464
f 144 633 630
f 141 526 527
f 517 133 498
f 536 144 630
f 100 372 599
f 144 536 537
f 22 289 287
f 578 579 152
f 579 578 576
f 189 188 187
f 60 223 224
f 92 348 350
f 555 554 447
f 396 377 388
f 194 193 165
f 413 536 630
f 372 352 599
f 377 376 375
f 348 345 350
f 105 386 387
f 240 237 234
f 463 462 464
f 135 500 494
f 45 196 169
f 512 612 387
f 245 60 220
f 429 115 456
f 223 60 248
f 288 289 76
f 525 526 142
f 100 599 601
f 613 29 391
f 526 523 520
f 341 328 343
f 631 641 639
f 264 21 282
f 266 72 265
f 106 402 403
f 73 273 274
f 186 206 205
f 381 379 383
f 52 216 195
f 410 18 399
f 290 272 73
f 72 371 374
f 526 525 527
f 115 430 424
f 498 497 496
f 621 382 29
f 543 118 434
f 214 215 57
f 522 141 530
f 511 510 509
f 352 94 599
f 493 512 7
f 90 340 341
f 169 171 170
f 605 604 606
f 219 60 224
f 104 389 392
f 359 469 3
f 186 49 185
f 222 219 224
f 166 167 44
f 428 427 426
f 523 522 524
f 129 502 481
f 50 185 188
f 164 45 170
f 425 115 424
f 33 428 426
f 427 428 113
f 94 356 602
f 515 138 513
f 114 431 452
f 237 236 238
f 215 217 57
f 95 354 355
f 220 60 219
f 515 514 516
f 183 320 319
f 222 197 53
f 559 569 567
f 300 320 6
f 435 436 117
f 96 360 363
f 640 642 641
f 242 243 62
f 140 537 519
f 508 130 505
f 420 410 399
f 537 539 144
f 317 316 318
f 426 114 450
f 186 15 206
f 311 83 310
f 625 544 307
f 544 10 307
f 168 43 167
f 185 182 188
f 369 354 95
f 44 171 192
f 605 606 156
f 548 549 146
f 100 601 375
f 149 568 569
f 381 380 382
f 455 466 35
f 480 479 454
f 543 548 546
f 493 133 513
f 492 472 37
f 477 125 476
f 491 487 126
f 337 336 338
f 588 153 587
f 576 578 91
f 633 161 632
f 96 359 360
f 39 485 483
f 101 617 378
f 193 45 165
f 163 164 43
f 618 624 611
f 507 136 528
f 561 149 560
f 641 162 639
f 116 561 558
f 494 133 493
f 253 252 233
f 63 237 238
f 392 393 104
f 440 450 117
f 93 581 583
f 386 385 387
f 120 449 451
f 421 422 111
f 486 3 467
f 302 81 317
f 633 632 630
f 462 475 36
f 376 99 374
f 489 490 131
f 447 449 448
f 387 612 105
f 106 420 399
f 173 46 172
f 492 491 472
f 316 306 295
f 22 287 347
f 109 410 420
f 507 39 483
f 559 23 313
f 214 57 211
f 196 45 193
f 10 434 432
f 422 106 403
f 626 160 640
f 487 486 467
f 542 41 532
f 400 106 399
f 444 120 452
f 198 199 52
f 475 127 474
f 621 620 382
f 621 623 159
f 450 114 452
f 92 347 348
f 376 100 375
f 434 118 433
f 503 132 502
f 337 90 336
f 537 536 519
f 395 393 380
f 201 54 200
f 171 44 170
f 355 94 353
f 58 296 213
f 422 420 106
f 595 365 596
f 569 568 570
f 523 140 520
f 114 430 431
f 218 210 57
f 304 566 80
f 639 162 638
f 261 371 72
f 548 147 547
f 498 133 497
f 150 570 564
f 222 224 59
f 142 526 520
f 437 436 435
f 141 522 523
f 137 510 505
f 173 179 176
f 559 149 569
f 121 447 448
f 563 320 300
f 102 395 380
f 257 255 253
f 642 162 641
f 83 311 314
f 216 52 218
f 512 493 513
f 23 304 302
f 91 339 340
f 512 138 612
f 159 620 621
f 218 199 210
f 364 28 575
f 83 318 310
f 168 274 43
f 136 530 528
f 140 523 524
f 495 135 494
f 233 235 234
f 566 563 80
f 25 339 577
f 277 74 276
f 475 462 477
f 133 494 497
f 436 437 116
f 389 386 392
f 548 146 546
f 441 460 5
f 10 309 307
f 65 397 400
f 543 434 544
f 640 641 161
f 272 273 73
f 581 93 346
f 419 421 111
f 319 320 86
f 180 179 178
f 127 475 477
f 231 229 227
f 337 334 340
f 136 508 510
f 308 309 84
f 237 63 234
f 447 554 34
f 252 379 378
f 315 83 314
f 608 622 616
f 338 336 26
f 337 338 89
f 13 275 168
f 209 208 207
f 436 439 117
f 628 312 629
f 360 366 363
f 364 574 96
f 359 361 360
f 466 446 35
f 500 501 134
f 406 109 421
f 135 589 591
f 601 599 602
f 340 90 337
f 481 492 37
f 522 41 524
f 78 316 295
f 131 486 487
f 403 32 414
f 634 626 640
f 151 572 573
f 515 516 138
f 8 252 378
f 265 72 374
f 9 521 519
f 538 549 42
f 368 358 347
f 588 587 586
f 458 453 123
f 589 385 103
f 502 492 481
f 32 416 414
f 430 427 424
f 153 585 587
f 540 144 539
f 370 368 92
f 209 293 58
f 428 33 535
f 326 581 346
f 625 307 82
f 575 28 582
f 6 181 200
f 421 109 420
f 553 121 443
f 160 642 640
f 153 584 585
f 309 432 558
f 334 337 89
f 23 315 313
f 271 163 43
f 296 295 213
f 39 498 496
f 118 439 433
f 531 113 534
f 293 296 58
f 28 362 351
f 489 131 487
f 431 444 452
f 84 558 560
f 98 366 360
f 45 169 170
f 379 101 378
f 462 463 125
f 308 84 314
f 10 432 309
f 299 24 310
f 132 492 502
f 512 387 7
f 639 638 408
f 565 323 86
f 59 244 242
f 106 400 402
f 440 33 426
f 566 565 563
f 617 398 378
f 224 225 59
f 410 109 409
f 239 400 399
f 194 219 53
f 358 22 347
f 610 157 609
f 27 595 603
f 479 484 482
f 142 520 521
f 585 25 577
f 339 578 577
f 408 407 406
f 407 109 406
f 31 408 406
f 407 408 108
f 31 639 408
f 419 31 406
f 608 616 40
f 430 429 431
f 455 35 429
f 35 444 431
f 188 51 187
f 188 182 51
f 51 322 187
f 322 51 319
f 51 182 183
f 319 51 183
f 187 322 321
f 322 319 324
f 381 101 379
f 405 407 108
f 404 405 108
f 286 285 178
f 407 405 409
f 109 407 409
f 191 175 47
f 167 164 170
f 50 184 185
f 44 167 170
f 64 244 236
f 243 244 64
f 50 188 189
f 541 542 145
f 442 445 119
f 339 91 578
f 445 446 119
f 624 623 622
f 611 624 157
f 523 526 141
f 141 527 529
f 527 514 529
f 445 120 444
f 446 445 444
f 35 446 444
f 613 614 158
f 158 614 615
f 623 613 158
f 614 613 391
f 614 612 615
f 371 376 374
f 100 376 371
f 479 482 123
f 373 394 384
f 540 42 634
f 633 540 634
f 538 42 540
f 633 634 161
f 161 634 640
f 42 626 634
f 540 633 144
f 557 556 338
f 553 333 89
f 262 21 264
f 251 21 262
f 5 335 333
f 270 251 262
f 21 251 249
f 600 593 30
f 606 593 600
f 600 30 375
f 593 390 30
f 30 377 375
f 390 388 30
f 30 388 377
f 228 243 241
f 470 478 459
f 470 127 478
f 127 477 478
f 184 186 185
f 478 477 476
f 122 478 476
f 357 74 280
f 518 39 507
f 344 342 85
f 325 344 85
f 342 344 343
f 85 342 321
f 344 90 343
f 90 344 336
f 482 129 481
f 482 481 457
f 482 457 123
f 481 37 457
f 449 447 34
f 435 449 34
f 470 472 471
f 472 470 37
f 470 471 127
f 472 126 471
f 126 468 471
f 470 459 37
f 491 126 472
f 504 129 485
f 221 59 242
f 125 463 465
f 437 34 562
f 561 437 562
f 554 568 562
f 34 554 562
f 437 561 116
f 390 103 389
f 103 386 389
f 392 105 391
f 572 586 580
f 572 580 36
f 586 152 580
f 473 572 36
f 244 243 242
f 225 244 59
f 64 240 241
f 240 239 241
f 237 240 64
f 243 64 241
f 236 237 64
f 411 607 521
f 9 411 521
f 110 607 411
f 607 142 521
f 610 607 110
f 171 15 184
f 171 169 15
f 15 186 184
f 87 584 581
f 153 588 582
f 588 575 582
f 381 102 380
f 573 572 473
f 468 469 128
f 474 468 128
f 469 571 128
f 571 573 128
f 573 473 128
f 473 474 128
f 564 323 565
f 26 323 564
f 323 324 86
f 325 323 26
f 325 324 323
f 563 565 86
f 324 325 85
f 410 230 18
f 230 228 18
f 18 228 241
f 18 241 239
f 401 619 618
f 401 402 107
f 403 402 401
f 619 159 618
f 401 618 32
f 619 401 107
f 403 401 32
f 618 611 32
f 159 624 618
f 478 122 459
f 122 458 459
f 37 459 457
f 459 458 457
f 122 456 458
f 457 458 123
f 191 190 192
f 485 129 484
f 129 482 484
f 483 485 484
f 130 483 484
f 189 187 14
f 191 50 189
f 191 189 175
f 189 14 175
f 14 177 175
f 499 501 500
f 501 499 38
f 38 499 590
f 135 499 500
f 488 501 38
f 499 135 591
f 480 454 4
f 284 12 346
f 4 423 506
f 480 4 506
f 423 531 506
f 480 506 505
f 531 137 506
f 506 137 505
f 365 366 98
f 71 270 262
f 270 71 269
f 71 267 269
f 335 334 333
f 333 334 89
f 334 335 91
f 536 9 519
f 465 463 461
f 537 140 541
f 520 140 519
f 119 446 465
f 465 461 119
f 461 441 119
f 460 441 461
f 176 46 173
f 299 297 24
f 71 263 266
f 263 260 266
f 260 72 266
f 263 70 260
f 205 201 49
f 201 181 49
f 186 205 49
f 181 201 200
f 181 182 49
f 284 77 283
f 586 587 152
f 588 586 151
f 20 267 265
f 266 267 71
f 31 417 631
f 631 417 632
f 31 631 639
f 417 31 419
f 641 631 161
f 417 112 632
f 161 631 632
f 418 417 419
f 417 418 112
f 284 345 77
f 542 550 145
f 542 541 524
f 284 174 12
f 48 174 283
f 373 20 265
f 373 265 374
f 609 608 525
f 608 157 622
f 560 559 313
f 636 637 162
f 541 140 524
f 41 542 524
f 358 357 280
f 70 263 264
f 263 262 264
f 176 177 46
f 174 48 173
f 174 173 172
f 538 551 549
f 538 540 539
f 537 541 539
f 232 221 242
f 17 221 232
f 232 242 62
f 231 232 62
f 203 205 55
f 203 55 202
f 201 205 203
f 202 55 217
f 205 206 55
f 204 203 202
f 73 275 292
f 292 290 73
f 272 290 282
f 290 292 291
f 75 290 291
f 290 75 282
f 70 277 259
f 277 70 281
f 277 281 279
f 260 70 259
f 12 174 172
f 104 396 388
f 367 27 354
f 365 27 367
f 354 27 356
f 365 367 366
f 595 27 365
f 318 299 310
f 155 596 597
f 155 597 598
f 596 594 597
f 595 596 155
f 605 595 155
f 180 47 179
f 180 190 47
f 352 372 11
f 11 372 261
f 312 310 24
f 642 636 162
f 636 297 637
f 367 369 97
f 366 367 97
f 369 367 354
f 369 370 97
f 580 579 464
f 580 152 579
f 579 124 464
f 61 230 409
f 230 410 409
f 230 61 229
f 230 229 228
f 76 285 286
f 353 352 276
f 74 353 276
f 288 76 286
f 288 286 283
f 289 288 287
f 203 54 201
f 287 288 77
f 77 288 283
f 286 48 283
f 531 423 113
f 276 11 259
f 11 261 259
f 277 276 259
f 616 158 615
f 516 616 615
f 138 516 615
f 138 615 612
f 509 533 532
f 503 502 504
f 635 79 294
f 635 294 404
f 635 637 79
f 637 635 638
f 638 635 108
f 635 404 108
f 226 61 405
f 61 226 227
f 405 61 409
f 227 226 207
f 48 178 179
f 48 286 178
f 173 48 179
f 534 143 533
f 534 535 143
f 531 534 533
f 533 143 532
f 137 531 533
f 261 372 371
f 13 180 178
f 285 13 178
f 180 13 166
f 13 168 166
f 346 345 284
f 331 327 46
f 46 327 172
f 172 327 326
f 382 620 101
f 442 121 448
f 443 121 442
f 2 226 404
f 294 2 404
f 404 226 405
f 207 226 2
f 550 551 145
f 552 146 551
f 143 550 532
f 552 550 143
f 330 329 328
f 24 636 629
f 94 352 353
f 352 11 276
f 113 428 534
f 428 535 534
f 509 41 511
f 535 552 143
f 550 552 551
f 550 542 532
f 369 95 368
f 326 327 87
f 87 327 329
f 327 331 329
f 581 326 87
f 293 79 298
f 79 297 298
f 296 298 78
f 79 293 294
f 296 293 298
f 598 490 38
f 358 280 22
f 280 279 278
f 357 358 95
f 74 357 353
f 330 328 25
f 567 23 559
f 590 598 38
f 590 604 598
f 598 604 155
f 604 590 154
f 590 591 154
f 604 154 606
f 297 299 298
f 299 318 78
f 298 299 78
f 355 354 356
f 629 636 642
f 312 24 629
f 629 642 160
f 370 362 97
f 362 363 97
f 363 366 97
f 364 363 362
f 362 370 351
f 96 363 364
f 297 636 24
f 162 637 638
f 637 297 79
f 490 488 38
f 598 597 490
f 441 442 119
f 443 442 441
f 443 441 5
f 442 448 445
f 296 78 295
f 326 12 172
f 575 574 364
f 47 175 176
f 175 177 176
f 47 176 179
