# FEM surface export ¡ª frame 479
# Vertices: 642  Faces: 1280
v -0.51634359 1.00386226 -0.00325804
v 0.51629472 1.00458670 -0.00037303
v -0.57214093 0.23175779 0.02979079
v 0.52677816 0.26715383 0.03022515
v -0.01792489 0.03936008 0.99132526
v 0.00305466 0.74165308 0.86771536
v -0.00493317 0.00843638 -0.96294820
v 0.00063652 0.73593938 -0.86628926
v 0.90410644 0.28399751 -0.56614387
v 0.90980023 0.28270411 0.55623126
v -0.90751714 0.28629088 -0.54821080
v -0.90156561 0.27789149 0.56350476
v -0.82687384 0.71234602 0.31946248
v -0.51863581 0.54944134 0.83893460
v -0.30443877 0.97317624 0.49234781
v 0.30754021 0.97275674 0.49389622
v -0.00042772 1.11615407 -0.00147671
v 0.30571184 0.97297823 -0.49330378
v -0.30669612 0.97182602 -0.49587283
v -0.51644772 0.54086280 -0.83393645
v -0.82489181 0.70961726 -0.31761798
v -1.05360913 0.26390678 0.00249436
v 0.52544838 0.54706776 0.83748257
v 0.82852054 0.71576983 0.31642205
v -0.57246727 0.04413135 0.94329464
v -0.00043440 0.27007765 1.05616868
v -0.90838253 0.01938435 -0.36686510
v -0.93804091 0.00133074 0.32596597
v -0.00028016 0.29075769 -1.07141340
v -0.58153313 0.05561468 -0.93729872
v 0.82580775 0.71554506 -0.31582889
v 0.51630795 0.55049109 -0.83640194
v 0.95595646 0.00437328 0.36015210
v 0.58317655 0.02034520 0.91451401
v 0.32517669 0.12221763 0.51143962
v -0.34563309 0.14542137 0.51646096
v 0.00432060 0.06984624 0.08077548
v -0.31659424 0.04415469 -0.47605661
v 0.33127853 0.08022748 -0.50343150
v 0.57441294 0.04223527 -0.94367528
v 0.95330602 0.02114875 -0.37012595
v 1.06863356 0.27359417 -0.00597907
v -0.69412804 0.88523650 0.15913740
v -0.58755803 0.87549448 0.42475405
v -0.42531633 1.01394987 0.25259364
v -0.73038101 0.41337615 0.72556204
v -0.70791900 0.64941609 0.60373271
v -0.89766949 0.49900967 0.44942340
v -0.15869796 0.88001049 0.70239258
v -0.43165219 0.79362172 0.69659215
v -0.26615578 0.66287142 0.88752127
v -0.15525806 1.07956088 0.25372049
v -0.26351187 1.08899641 -0.00094108
v 0.16121596 0.87817144 0.70194930
v 0.00155290 1.00426972 0.51587588
v 0.26277256 1.08891356 -0.00077776
v 0.15873393 1.08242166 0.25468293
v 0.42664245 1.01376820 0.25457841
v -0.15872616 1.08024907 -0.25805625
v -0.42550510 1.01330304 -0.25727326
v 0.42553693 1.01523840 -0.25498596
v 0.15568121 1.08133984 -0.25769809
v -0.16013236 0.87641424 -0.70279026
v 0.00117753 1.00289822 -0.51864225
v 0.16103406 0.87720895 -0.70243442
v -0.58954155 0.87045389 -0.42701492
v -0.69289845 0.88271332 -0.16325195
v -0.26622581 0.65415603 -0.88370287
v -0.42946827 0.78915399 -0.69710326
v -0.89158773 0.50033456 -0.44412780
v -0.70431399 0.64542770 -0.60539824
v -0.73540437 0.41403621 -0.71895844
v -0.86568445 0.73380393 0.00105560
v -1.02652037 0.28931656 -0.28984642
v -0.98831427 0.50456822 -0.16270365
v -0.98392105 0.49734738 0.17059588
v -1.01847470 0.26562381 0.29265592
v 0.59066147 0.87212628 0.42577323
v 0.69317424 0.88622862 0.16047624
v 0.27123433 0.65765631 0.88781142
v 0.43185028 0.78801095 0.69548917
v 0.90055287 0.50629127 0.45065373
v 0.71113980 0.65079725 0.60264397
v 0.74287742 0.41864961 0.72326338
v -0.27630970 0.41967896 0.99448258
v -0.00008492 0.51729608 1.00161922
v -0.76393765 0.14368771 0.76047361
v -0.55460447 0.27814484 0.89575815
v -0.00264710 0.06878017 1.08562732
v -0.28016055 0.14996409 1.03408349
v -0.32579193 0.00000000 1.02189350
v -1.08203590 0.09231059 0.19149172
v -0.98324424 0.07750560 0.49420843
v -0.98821968 0.09393537 -0.48358941
v -1.08701634 0.10290351 -0.17881900
v -0.76958823 0.07808327 0.12251405
v -0.96387440 0.06429112 -0.03647685
v -0.73407573 0.20250146 -0.19798677
v -0.55954605 0.28911248 -0.90531784
v -0.77781212 0.16880317 -0.76388824
v 0.00056817 0.51802802 -0.99822748
v -0.27585885 0.41962636 -0.99609965
v -0.30763280 0.00000000 -0.99528939
v -0.29255116 0.15105903 -1.04598629
v -0.00717588 0.06981272 -1.08942521
v 0.43110099 0.79216355 -0.69734228
v 0.26736504 0.65572840 -0.88161969
v 0.69392365 0.88567066 -0.16087145
v 0.59011871 0.87454641 -0.42406225
v 0.73463142 0.42766315 -0.72346300
v 0.70743138 0.65357250 -0.60436207
v 0.89818871 0.50880325 -0.45019904
v 0.75612348 0.14498389 0.19980465
v 0.64647150 0.13555671 0.46639195
v 0.41167462 0.23185685 0.28516033
v 0.77677876 0.16138439 0.76935863
v 0.83021963 0.00000000 0.68635702
v 0.97642404 0.10288317 0.47586137
v 0.15777798 0.06669161 0.77034527
v 0.48152509 0.02494906 0.79404932
v 0.30254683 0.00000000 1.02600944
v 0.14178297 0.24748847 0.30933541
v 0.28297293 0.07787436 0.06374527
v -0.20030950 0.09114773 0.75618595
v -0.02378782 0.17355758 0.56343114
v -0.30076095 0.11688474 0.06745452
v -0.18099891 0.11546469 0.31277838
v -0.46826464 0.18475498 0.30697355
v 0.16555953 0.04656652 -0.22182779
v 0.47503242 0.09528228 -0.25228840
v -0.43853480 0.10709055 -0.22968727
v -0.16266499 0.03285017 -0.20977801
v 0.15815237 0.06338596 -0.74546993
v 0.02819614 0.04769384 -0.47899976
v -0.16431704 0.04835415 -0.70590788
v 0.65223080 0.09828955 -0.44314525
v 0.76784229 0.13895448 -0.14455178
v 0.31162217 0.00000000 -1.00605011
v 0.47757673 0.04065620 -0.75137097
v 0.98511273 0.08223338 -0.49588817
v 0.81429082 0.00000000 -0.69074160
v 0.77423489 0.16323540 -0.77644873
v 0.98819935 0.00454744 0.00917501
v 1.02910709 0.28402868 -0.29953212
v 1.07971954 0.08943956 -0.19009374
v 1.06784916 0.07311652 0.17879197
v 1.02812135 0.29143548 0.28480020
v 0.29519352 0.14679568 1.03878939
v 0.55993003 0.28012782 0.90578741
v 0.27472651 0.41788781 0.99741620
v -0.67130589 0.08766948 0.41656569
v -0.50446177 0.07188188 0.75843573
v -0.82203048 0.00000000 0.68927830
v -0.49100810 0.01767820 -0.70943493
v -0.61589271 0.14510617 -0.48677430
v -0.81537575 0.00000000 -0.67327905
v 0.55627739 0.28630817 -0.90225422
v 0.28755444 0.16763128 -1.05398536
v 0.27677888 0.42543754 -0.99458212
v 0.99233150 0.51102650 0.16656083
v 0.98697352 0.50717080 -0.16798991
v 0.86560166 0.73816472 0.00020041
v -0.60892797 0.95264512 0.07861521
v -0.56370264 0.95958781 0.20855542
v -0.47408530 1.01486421 0.12616320
v -0.71549642 0.80312389 0.37590277
v -0.64584661 0.88645130 0.29427236
v -0.76802140 0.80571908 0.23984243
v -0.36768311 0.99974263 0.37508032
v -0.50996077 0.95210278 0.34163970
v -0.44997245 0.93191952 0.46339813
v -0.82208556 0.34579200 0.64697134
v -0.82507223 0.45912948 0.59165674
v -0.90651011 0.38833532 0.50818396
v -0.62167525 0.60336906 0.73020411
v -0.72803146 0.53348386 0.66965085
v -0.63038647 0.48256239 0.78654373
v -0.87044138 0.60922194 0.38886452
v -0.80944413 0.57706678 0.53216428
v -0.77579582 0.68811655 0.46674314
v -0.08010411 0.81568968 0.79122823
v -0.21471021 0.77862805 0.80453688
v -0.13258047 0.70590383 0.88722807
v -0.37034509 0.89061201 0.60034800
v -0.29628667 0.84268457 0.70588732
v -0.23396811 0.93239605 0.60137755
v -0.39615422 0.61184043 0.87196618
v -0.35370341 0.73407286 0.79929918
v -0.48137799 0.67959553 0.77708918
v -0.65558398 0.77213567 0.52076358
v -0.57685846 0.72939593 0.65899205
v -0.51561874 0.84264511 0.56703109
v -0.34825423 1.05985153 0.12628582
v -0.39232278 1.05193758 -0.00176565
v -0.23095720 1.03606069 0.37622806
v -0.29308748 1.05422068 0.25571668
v -0.13302939 1.11234605 -0.00164448
v -0.21087678 1.09097219 0.12786390
v -0.07819533 1.10767233 0.12833717
v 0.08395501 0.81370407 0.78960478
v 0.00151274 0.88689309 0.70989335
v 0.15495066 0.99585891 0.50956666
v 0.08186597 0.94832152 0.61257058
v 0.23735693 0.93032730 0.60170007
v -0.07719247 0.94816089 0.61295503
v -0.15182437 0.99687368 0.50961936
v 0.39332247 1.05400276 -0.00048192
v 0.34834754 1.06080282 0.12843600
v 0.47488326 1.01622808 0.12758434
v 0.07973803 1.10707235 0.12785470
v 0.21323146 1.09324956 0.12933165
v 0.13245073 1.11244655 -0.00131535
v 0.37145302 1.00017512 0.37678584
v 0.29334623 1.05546558 0.25720373
v 0.23446558 1.03608894 0.37675530
v -0.07970414 1.05320013 0.38948664
v 0.08014228 1.05307961 0.38855979
v 0.00023407 1.09013367 0.25669810
v -0.34828198 1.05980217 -0.13039507
v -0.47418445 1.01431441 -0.13068122
v -0.07986339 1.10887837 -0.13049996
v -0.21308041 1.09349835 -0.13028264
v -0.37083322 0.99793291 -0.37938574
v -0.29384559 1.05395818 -0.25928164
v -0.23457181 1.03496790 -0.37989849
v 0.47512847 1.01725209 -0.12865484
v 0.34791476 1.06224334 -0.12952751
v 0.23231815 1.03618777 -0.37880632
v 0.29204407 1.05530298 -0.25849238
v 0.36850366 0.99959975 -0.37745026
v 0.21154273 1.09347105 -0.13019596
v 0.07816118 1.10976148 -0.13060902
v -0.08062126 0.81148970 -0.79086423
v 0.00155052 0.88408643 -0.71185708
v 0.08267929 0.81128240 -0.79143447
v -0.15438879 0.99432439 -0.51256812
v -0.07960612 0.94811857 -0.61660403
v -0.23569615 0.93026608 -0.60389066
v 0.23681685 0.93085396 -0.60287118
v 0.08164661 0.94777411 -0.61591506
v 0.15372816 0.99593395 -0.51200819
v -0.00129858 1.09031689 -0.26017076
v 0.07977873 1.05215788 -0.39052525
v -0.08071119 1.05151808 -0.39229277
v -0.56438476 0.95854086 -0.21375510
v -0.60957992 0.95152420 -0.08280847
v -0.45233008 0.92895114 -0.46777207
v -0.51125371 0.94965154 -0.34550291
v -0.76573128 0.80173981 -0.24210727
v -0.64791274 0.88340580 -0.29774201
v -0.71441507 0.79695624 -0.37771812
v -0.13332969 0.69822454 -0.88304669
v -0.21359009 0.77383697 -0.80325198
v -0.47808984 0.67098230 -0.77624971
v -0.35121721 0.72727126 -0.79838991
v -0.39504832 0.60140800 -0.86795020
v -0.29671386 0.83822739 -0.70802712
v -0.37125546 0.88950318 -0.60317779
v -0.90516239 0.38983166 -0.49664482
v -0.82577038 0.46250910 -0.58741474
v -0.82751548 0.35048896 -0.63792670
v -0.77344370 0.68476337 -0.46690968
v -0.80685842 0.57848090 -0.53162044
v -0.86829066 0.61137921 -0.38676307
v -0.63050163 0.47575843 -0.78313684
v -0.72613794 0.53159076 -0.66889215
v -0.61745274 0.59433341 -0.72596252
v -0.51677990 0.83457273 -0.56863785
v -0.57422465 0.72067595 -0.66178560
v -0.65498877 0.76614100 -0.52278775
v -0.70272774 0.89195764 -0.00181641
v -0.85573339 0.72820526 -0.16045222
v -0.78672022 0.81454927 -0.08422659
v -0.78742540 0.81568348 0.08107466
v -0.85603607 0.72843671 0.16248991
v -0.97173399 0.28091735 -0.42357841
v -0.96607423 0.38993815 -0.36752293
v -1.03127646 0.38357890 -0.08103594
v -1.01107693 0.39415848 -0.22406764
v -1.05406451 0.27439472 -0.14338841
v -0.95107526 0.50831658 -0.30975893
v -0.91787887 0.61224937 -0.24483347
v -0.96654683 0.38314039 0.37605223
v -0.96775275 0.27395043 0.43125546
v -0.91875911 0.61028337 0.24949768
v -0.95073563 0.49838650 0.31342530
v -1.05025220 0.26291811 0.14765503
v -1.00730765 0.38085175 0.23252669
v -1.03351521 0.38356033 0.08758969
v -0.93974787 0.62555081 -0.08258893
v -1.00367057 0.50602603 0.00489576
v -0.93960655 0.62308079 0.08745001
v 0.56430542 0.96010619 0.21004690
v 0.60830683 0.95110148 0.07926973
v 0.45271897 0.93032980 0.46565539
v 0.51305759 0.95040703 0.34235734
v 0.76808745 0.80773151 0.23987867
v 0.64849859 0.88738686 0.29541627
v 0.71753365 0.80381405 0.37634143
v 0.13731459 0.70338500 0.88625526
v 0.21857145 0.77411836 0.80267668
v 0.48404399 0.67562246 0.77702403
v 0.35508549 0.72563821 0.79727942
v 0.40080929 0.60358095 0.87044603
v 0.29702932 0.83691013 0.70521063
v 0.37261385 0.88730925 0.60090947
v 0.90869528 0.39047036 0.50692827
v 0.83044809 0.46116865 0.59243047
v 0.82997042 0.34890869 0.64564139
v 0.77895129 0.68868184 0.46556669
v 0.81235248 0.58019453 0.53214008
v 0.87276798 0.61385471 0.38707936
v 0.64135164 0.48621830 0.79010522
v 0.73481363 0.53611124 0.67021531
v 0.62708783 0.60447794 0.72839922
v 0.51858711 0.83801532 0.56748867
v 0.57719207 0.72632450 0.65777117
v 0.65851468 0.76995283 0.52207029
v -0.13492753 0.59372389 0.95692533
v 0.00150378 0.63435960 0.94303221
v -0.40328485 0.48874086 0.92746204
v -0.27452412 0.54497075 0.95120132
v -0.00153039 0.39518866 1.03887129
v -0.13985778 0.47033572 1.00900614
v -0.14180663 0.34688896 1.03815258
v -0.84373295 0.20429464 0.66673911
v -0.75234294 0.27529308 0.74576676
v -0.56056583 0.14980696 0.92134482
v -0.66159165 0.20600803 0.83534461
v -0.67483234 0.09001050 0.85511196
v -0.64534944 0.34039879 0.81558907
v -0.54072356 0.41014209 0.87255299
v 0.00103080 0.00007353 1.06889832
v -0.14865907 0.00177476 1.07886314
v -0.17055792 0.00437630 1.00219524
v -0.14142449 0.20960630 1.05691648
v -0.14683764 0.09947785 1.07087636
v -0.00309001 0.16065574 1.07441461
v -0.45877701 0.00352348 0.99188137
v -0.29115897 0.04156444 1.05094349
v -0.41674578 0.08266488 1.00115407
v -0.41961110 0.34524703 0.95466983
v -0.43039992 0.20840095 0.98263806
v -0.28341162 0.28190756 1.02271605
v -1.01409471 0.17124154 0.40031740
v -0.94190711 0.16685350 0.53397661
v -1.07853627 0.17070624 0.09207064
v -1.05559313 0.18047239 0.24526688
v -1.00415659 0.00000000 0.42958376
v -1.05228364 0.08377329 0.35083070
v -1.05241632 0.00000000 0.27218410
v -0.95316356 0.18547361 -0.51976085
v -1.01491988 0.18291549 -0.38638252
v -1.05029118 0.00438938 -0.27765507
v -1.03881311 0.07701701 -0.33583379
v -0.98520982 0.00000000 -0.43946883
v -1.06232250 0.18753389 -0.24697430
v -1.08623374 0.17856798 -0.09263667
v -0.67087525 0.14819828 0.08781990
v -0.75237250 0.10074896 -0.04982356
v -0.65799272 0.22541641 -0.08065024
v -0.94920230 0.01120691 0.14659442
v -0.87913710 0.03019578 0.03304193
v -0.85151315 0.09348313 0.23219791
v -0.82845855 0.13376735 -0.28675613
v -0.84140974 0.15041080 -0.11342651
v -0.91482723 0.05201720 -0.18702488
v -1.10320532 0.08377595 0.00320944
v -1.07759213 0.00000000 -0.10007966
v -1.07948339 0.00000000 0.08643302
v -0.75854295 0.28291613 -0.73853415
v -0.85301590 0.22211890 -0.65441102
v -0.54505444 0.41334736 -0.87883854
v -0.65849841 0.34458157 -0.81879324
v -0.68263000 0.09806362 -0.85365468
v -0.67028105 0.21941516 -0.84496284
v -0.56784570 0.16385381 -0.93074530
v 0.00107815 0.62978262 -0.93949938
v -0.13532256 0.58884841 -0.95209932
v -0.13927215 0.35660270 -1.04595554
v -0.13973589 0.47221985 -1.00533354
v -0.00055520 0.40674621 -1.04261184
v -0.27532223 0.53950518 -0.94671732
v -0.40241337 0.48498821 -0.92529404
v -0.15478612 0.00000000 -0.99697292
v -0.15928198 0.01284558 -1.06784403
v -0.00706517 0.00000000 -1.05856049
v -0.43624058 0.09187819 -1.00610340
v -0.30359539 0.04366512 -1.04453170
v -0.46086410 0.00091619 -0.99239427
v -0.00871238 0.17950660 -1.08452177
v -0.15501086 0.10786719 -1.08633018
v -0.14912759 0.22183867 -1.07111430
v -0.42143556 0.35211423 -0.96247149
v -0.28503633 0.28754586 -1.03218651
v -0.42647347 0.21953686 -0.98647976
v 0.21667801 0.77486050 -0.80214149
v 0.13488017 0.70103931 -0.88377917
v 0.37231159 0.89062804 -0.60087723
v 0.29801518 0.84069729 -0.70657653
v 0.39407459 0.60495144 -0.86639398
v 0.35299465 0.72845840 -0.79776293
v 0.47903609 0.67622721 -0.77687079
v 0.60963088 0.95247853 -0.08090312
v 0.56506574 0.96114504 -0.21028376
v 0.71523428 0.80230951 -0.37434450
v 0.64799124 0.88692611 -0.29453912
v 0.76661932 0.80532587 -0.23937677
v 0.51246309 0.95331484 -0.34254527
v 0.45255533 0.93160844 -0.46587700
v 0.82208270 0.35457459 -0.64720803
v 0.82784408 0.47089946 -0.59380633
v 0.90894938 0.39775243 -0.51212013
v 0.62046766 0.60766846 -0.73045105
v 0.72853577 0.54395908 -0.67013693
v 0.63204229 0.48954743 -0.78807652
v 0.86968946 0.61574715 -0.38611177
v 0.81170440 0.58675772 -0.53478152
v 0.77506953 0.69079834 -0.46471676
v 0.51865774 0.84121859 -0.56767571
v 0.65656495 0.76979303 -0.51954520
v 0.57484341 0.72825366 -0.65923989
v 0.64906555 0.20585394 0.11570748
v 0.59253031 0.21446556 0.24771520
v 0.45326409 0.27031758 0.16463828
v 0.79850811 0.05445545 0.40684459
v 0.71924525 0.12497718 0.33235133
v 0.85841757 0.05673988 0.26902425
v 0.36859754 0.10539810 0.39630201
v 0.53609705 0.17549002 0.36495680
v 0.47197726 0.13039733 0.49165875
v 0.84995931 0.21664599 0.66654676
v 0.89094591 0.12470084 0.63793129
v 0.94631928 0.18187295 0.52546674
v 0.72149611 0.00000000 0.82185811
v 0.80849981 0.06892999 0.74022263
v 0.68743145 0.09683664 0.85182428
v 0.98672581 0.00353885 0.44589791
v 0.91005385 0.05856504 0.58642739
v 0.90924919 0.00001323 0.54437417
v 0.06285834 0.04305583 0.87813163
v 0.22537552 0.05291491 0.89713800
v 0.14030439 0.00044793 1.01211107
v 0.39402223 0.10558261 0.65697598
v 0.32246929 0.03877411 0.77925122
v 0.25189590 0.06192224 0.63916093
v 0.44974536 0.00000000 0.98333937
v 0.39553303 0.00134098 0.91700095
v 0.54923373 0.00000000 0.88995296
v 0.73057479 0.09305748 0.57497054
v 0.67329675 0.00115304 0.75505364
v 0.56381375 0.05043896 0.62759405
v 0.39222899 0.10246921 0.20470411
v 0.41655269 0.14502460 0.04685436
v 0.19743860 0.10585468 0.40652192
v 0.28546292 0.12645064 0.32265317
v 0.15850170 0.07297190 0.05642107
v 0.21820432 0.11310986 0.21837552
v 0.09785234 0.12657541 0.19017346
v -0.11937482 0.08250494 0.85608369
v -0.01116061 0.11189211 0.75628066
v -0.18381783 0.17600867 0.56149548
v -0.10604007 0.14434703 0.67347473
v -0.28386229 0.13177879 0.65151829
v 0.08418160 0.12556306 0.65289229
v 0.13644993 0.05589850 0.52994508
v -0.44629344 0.14638591 0.03733845
v -0.38407117 0.24429856 0.16452919
v -0.53388149 0.23455791 0.16800287
v -0.07643222 0.12918192 0.19119097
v -0.22303401 0.23583391 0.18312672
v -0.15335254 0.11554679 0.08766354
v -0.42363814 0.20273764 0.39198184
v -0.30923781 0.15512365 0.27487177
v -0.27840781 0.22286826 0.43877557
v 0.07389117 0.22256507 0.46378008
v -0.10031231 0.23623616 0.43751779
v 0.00865116 0.10378262 0.34189585
v 0.39534834 0.08925053 -0.09131298
v 0.50659895 0.20736139 -0.12552749
v 0.09360192 0.05219430 -0.07529001
v 0.23515628 0.04343770 -0.08556823
v 0.39582151 0.17865309 -0.37826386
v 0.32743248 0.05407006 -0.24340947
v 0.24169555 0.08534352 -0.35606658
v -0.54517859 0.12808946 -0.09246479
v -0.40323046 0.09361540 -0.10818438
v -0.23270653 0.04825490 -0.35179690
v -0.30858517 0.06351475 -0.22934654
v -0.38739043 0.09409773 -0.37207788
v -0.24365735 0.03332505 -0.06332376
v -0.10366870 0.06429029 -0.05630550
v 0.07360119 0.05374670 -0.86976337
v -0.02757658 0.04465037 -0.74518675
v -0.09930081 0.06615335 -0.86462402
v 0.18163235 0.08283395 -0.50670558
v 0.05129251 0.09657747 -0.62235391
v 0.23892334 0.12554695 -0.64927840
v -0.22748065 0.01690521 -0.59769773
v -0.09449327 0.03051212 -0.57183444
v -0.14124136 0.03243576 -0.46832740
v 0.01088424 0.04256483 -0.21543583
v -0.05831409 0.06342947 -0.36477870
v 0.10819248 0.08421075 -0.36350283
v 0.63256049 0.19453087 -0.19985625
v 0.63911122 0.19505231 -0.04568953
v 0.49231133 0.15939254 -0.48028776
v 0.55500907 0.17728350 -0.34734541
v 0.86877596 0.08230738 -0.25763893
v 0.70825839 0.11799086 -0.31017217
v 0.79941434 0.06630723 -0.40630919
v 0.15273847 0.00000000 -1.00539327
v 0.22568811 0.01959594 -0.88704729
v 0.55272871 0.00164975 -0.87625450
v 0.39848489 0.00115116 -0.88047320
v 0.46001387 0.00246754 -0.99017644
v 0.31973341 0.06225666 -0.77016854
v 0.39923766 0.10939029 -0.65008014
v 0.94915885 0.18335350 -0.53650051
v 0.89386410 0.12339453 -0.64637285
v 0.84495050 0.21863794 -0.66992056
v 0.86270744 0.00000000 -0.53475624
v 0.92674136 0.03777764 -0.60464656
v 0.99029040 0.00000000 -0.45342013
v 0.68527138 0.09696794 -0.86605692
v 0.81785554 0.07136899 -0.75402129
v 0.71240580 0.00387443 -0.83298182
v 0.55828553 0.07408583 -0.59292400
v 0.65267563 0.01593800 -0.71987820
v 0.72705382 0.08424611 -0.56505173
v 0.76980561 0.14209129 0.04054514
v 0.97675675 0.03642141 -0.16613761
v 0.86980575 0.08391365 -0.06489890
v 0.88435006 0.07267497 0.12126306
v 0.96612746 0.00965577 0.17816585
v 0.97791588 0.29076701 -0.43942100
v 1.01428413 0.18523626 -0.40304855
v 1.08655715 0.16252550 -0.09556912
v 1.06071866 0.17982689 -0.24951109
v 1.05994177 0.27778545 -0.14967774
v 1.05148447 0.08981743 -0.36040282
v 1.04185617 0.04646523 -0.28624704
v 1.01155114 0.18600485 0.37797329
v 0.97855699 0.28221694 0.42186016
v 1.03499222 0.00000000 0.27742332
v 1.02955079 0.07338807 0.33215606
v 1.05442131 0.28020391 0.14073490
v 1.05684996 0.18055633 0.23233752
v 1.07486022 0.17200640 0.08029313
v 1.08602500 0.00000000 -0.10691006
v 1.10362065 0.06626543 -0.00088926
v 1.07895160 0.00000000 0.09292664
v 0.15782499 0.00162376 1.07024038
v 0.44084325 0.07135268 0.99470955
v 0.31267893 0.05899561 1.05246472
v 0.15196751 0.10610571 1.07608795
v 0.14384152 0.20290533 1.05521429
v 0.75971049 0.28842020 0.74883902
v 0.54981947 0.41341624 0.88434708
v 0.65819937 0.35132527 0.82506579
v 0.67299813 0.21916364 0.84820533
v 0.56968093 0.15152217 0.92408776
v 0.13859063 0.59205264 0.95709294
v 0.13702750 0.34468478 1.03735650
v 0.13864058 0.46911833 1.00738358
v 0.27807900 0.54160422 0.95187664
v 0.40607157 0.48543623 0.92942351
v 0.43283454 0.20205706 0.98499703
v 0.42170671 0.34473971 0.96437794
v 0.28232267 0.27356365 1.02259934
v -0.63231957 0.14363421 0.22923321
v -0.51427728 0.12228610 0.47281605
v -0.59737176 0.17005339 0.35911095
v -0.72661448 0.08538438 0.26645195
v -0.81765187 0.08883007 0.38299605
v -0.26534778 0.02675956 0.88181227
v -0.57410723 0.00000000 0.88620681
v -0.43058124 0.00942863 0.89325446
v -0.35313267 0.09930204 0.74654669
v -0.43857446 0.11531752 0.61102426
v -0.88133723 0.10029998 0.63916159
v -0.89260381 0.00668689 0.51408052
v -0.91449302 0.02514160 0.59881043
v -0.80548626 0.05196190 0.74752504
v -0.71139330 0.00000000 0.83411539
v -0.59706348 0.03960101 0.59693885
v -0.68289125 0.00645844 0.72637206
v -0.76697576 0.01174657 0.55049127
v -0.22739606 0.01514913 -0.84490305
v -0.36390477 0.12691568 -0.61921716
v -0.32752445 0.00515620 -0.69908589
v -0.40141830 0.00039074 -0.84708261
v -0.56259406 0.00000000 -0.88055921
v -0.60871071 0.12029930 -0.21496527
v -0.76854384 0.09386927 -0.42143634
v -0.69013977 0.18112794 -0.34949175
v -0.54228300 0.06155070 -0.35982096
v -0.47368437 0.01818248 -0.47500777
v -0.89300472 0.13496998 -0.64105552
v -0.71372616 0.00026404 -0.82432127
v -0.81051338 0.06957274 -0.75115550
v -0.91124177 0.02819062 -0.59251416
v -0.86147249 0.00000000 -0.54117531
v -0.53204936 0.12555128 -0.61960626
v -0.71076995 0.05194305 -0.59599328
v -0.65283614 0.00002464 -0.73936164
v 0.75550961 0.29227486 -0.74634486
v 0.57244474 0.16658427 -0.92894179
v 0.66931015 0.22237752 -0.84511244
v 0.65484363 0.35832778 -0.82098627
v 0.54448098 0.41983894 -0.87570786
v 0.14801942 0.01588465 -1.06402314
v 0.14271535 0.22567098 -1.07396960
v 0.14032401 0.11901982 -1.07546592
v 0.30313560 0.05941947 -1.05651593
v 0.43645146 0.11753889 -1.01303983
v 0.13834167 0.59235692 -0.95146698
v 0.40290955 0.48931107 -0.92405945
v 0.27564546 0.54135424 -0.94456804
v 0.13921167 0.47524664 -1.00554359
v 0.14005452 0.35920218 -1.04160786
v 0.42955440 0.22798313 -0.98892397
v 0.28246787 0.29519537 -1.03178048
v 0.42171159 0.35766056 -0.96078640
v 0.97459489 0.39645699 0.37708560
v 1.04263222 0.39120668 0.08727971
v 1.02593172 0.40092707 0.23325852
v 0.95503533 0.51258248 0.31238919
v 0.91956526 0.61696815 0.24558894
v 0.97143233 0.39499342 -0.37681997
v 0.91703391 0.61814928 -0.24703661
v 0.95399016 0.50942320 -0.31180412
v 1.01386631 0.39140305 -0.23202872
v 1.03970134 0.39212862 -0.08715701
v 0.70130914 0.89286202 -0.00018787
v 0.85680127 0.73245633 0.15954413
v 0.78684163 0.81921738 0.08292341
v 0.78696376 0.81732470 -0.08145048
v 0.85627443 0.73123574 -0.15841042
v 1.00382900 0.50815034 -0.00055637
v 0.94259030 0.62932986 -0.08460961
v 0.94154656 0.62919807 0.08386592
f 330 87 329
f 336 325 26
f 207 208 56
f 464 36 580
f 502 129 504
f 157 624 622
f 308 311 82
f 247 223 248
f 507 483 508
f 331 88 329
f 494 500 497
f 156 601 602
f 591 589 592
f 365 98 596
f 75 281 282
f 152 587 577
f 149 559 560
f 555 121 553
f 530 141 529
f 515 517 139
f 361 594 98
f 250 67 249
f 157 608 609
f 294 293 209
f 317 81 316
f 557 338 26
f 303 305 81
f 530 529 528
f 101 381 382
f 415 418 111
f 192 184 50
f 412 110 411
f 20 384 256
f 131 594 486
f 281 264 282
f 347 287 348
f 28 349 582
f 165 163 1
f 248 250 66
f 617 107 398
f 273 271 274
f 456 115 453
f 558 561 560
f 335 576 91
f 331 177 332
f 116 433 436
f 351 370 92
f 136 511 530
f 239 240 65
f 247 258 19
f 304 23 567
f 148 557 570
f 214 208 58
f 440 426 450
f 268 270 269
f 258 247 268
f 204 202 16
f 466 125 465
f 517 513 133
f 168 275 274
f 275 73 274
f 198 193 53
f 309 308 307
f 510 511 136
f 415 416 110
f 131 490 597
f 473 475 474
f 414 415 111
f 493 495 494
f 496 504 485
f 433 116 432
f 600 375 601
f 240 234 65
f 418 415 412
f 486 361 3
f 567 566 304
f 380 393 29
f 17 199 197
f 491 492 132
f 451 449 435
f 218 217 216
f 623 621 613
f 396 104 395
f 433 439 436
f 628 160 627
f 215 202 217
f 209 207 2
f 427 113 424
f 434 10 544
f 434 433 432
f 199 17 210
f 150 564 565
f 489 491 132
f 275 13 285
f 497 500 134
f 125 466 476
f 578 152 577
f 208 214 211
f 328 88 343
f 356 27 603
f 150 566 567
f 372 100 371
f 190 191 47
f 235 8 398
f 260 261 72
f 422 403 414
f 422 414 111
f 453 454 123
f 349 583 582
f 521 520 519
f 425 453 115
f 616 622 158
f 483 130 508
f 151 586 572
f 212 17 232
f 400 397 402
f 377 396 99
f 41 522 511
f 510 508 505
f 549 547 42
f 475 473 36
f 510 137 509
f 222 221 197
f 430 115 429
f 220 194 1
f 305 54 204
f 621 29 613
f 192 171 184
f 460 335 5
f 88 331 332
f 74 277 279
f 300 301 80
f 390 389 388
f 165 45 164
f 146 549 551
f 291 278 75
f 448 120 445
f 147 543 544
f 607 610 609
f 603 602 356
f 139 529 514
f 333 553 443
f 92 368 347
f 261 260 259
f 300 6 200
f 46 177 331
f 284 283 174
f 301 300 200
f 471 468 474
f 54 305 301
f 302 304 303
f 569 150 567
f 150 569 570
f 294 209 2
f 628 629 160
f 548 543 147
f 147 625 627
f 63 233 234
f 426 427 114
f 41 509 532
f 198 52 196
f 614 105 612
f 147 627 547
f 81 305 306
f 549 548 547
f 54 301 200
f 342 88 332
f 264 281 70
f 193 194 53
f 455 429 456
f 187 321 14
f 479 130 484
f 147 544 625
f 458 456 453
f 304 80 303
f 314 84 313
f 488 503 501
f 321 332 14
f 423 425 424
f 305 204 306
f 341 339 25
f 514 40 516
f 625 628 627
f 340 339 341
f 105 614 391
f 243 228 62
f 318 316 78
f 75 278 279
f 357 355 353
f 238 257 63
f 466 455 476
f 425 423 4
f 448 449 120
f 408 638 108
f 292 275 285
f 22 278 289
f 515 513 517
f 501 503 134
f 622 623 158
f 134 503 504
f 195 216 206
f 163 271 246
f 619 617 620
f 62 228 229
f 163 165 164
f 453 425 454
f 489 132 488
f 82 628 625
f 58 208 209
f 525 608 40
f 626 547 627
f 518 517 498
f 489 487 491
f 557 26 564
f 325 336 344
f 541 145 539
f 40 616 516
f 338 556 89
f 250 248 245
f 139 514 515
f 98 594 596
f 246 220 1
f 112 413 630
f 9 536 413
f 156 600 601
f 332 177 14
f 321 342 332
f 156 606 600
f 584 330 585
f 302 303 81
f 584 87 330
f 330 25 585
f 400 239 65
f 439 440 117
f 95 358 368
f 597 594 131
f 594 361 486
f 246 67 245
f 561 562 149
f 28 364 362
f 55 216 217
f 427 430 114
f 267 20 254
f 556 555 553
f 84 309 558
f 311 310 312
f 609 525 142
f 256 68 255
f 124 460 461
f 82 311 312
f 307 308 82
f 589 135 495
f 527 40 514
f 112 418 412
f 20 256 254
f 258 238 19
f 267 254 269
f 273 272 249
f 392 391 393
f 137 533 509
f 122 455 456
f 9 413 411
f 130 480 505
f 333 443 5
f 527 525 40
f 589 495 385
f 39 496 485
f 223 225 224
f 414 416 415
f 219 222 53
f 145 538 539
f 413 412 411
f 469 468 467
f 183 181 6
f 191 192 50
f 429 35 431
f 292 285 76
f 413 112 412
f 415 110 412
f 43 164 167
f 467 468 126
f 617 101 620
f 450 451 117
f 438 546 545
f 619 620 159
f 17 212 210
f 124 579 576
f 584 153 583
f 460 124 576
f 3 469 467
f 311 308 314
f 6 320 183
f 389 104 388
f 251 250 249
f 194 165 1
f 291 289 278
f 287 77 348
f 238 258 257
f 139 517 518
f 238 236 19
f 223 247 19
f 382 380 29
f 39 518 498
f 361 359 3
f 69 255 257
f 139 518 528
f 33 545 535
f 387 385 7
f 69 268 269
f 477 462 125
f 454 479 123
f 121 555 447
f 451 435 117
f 454 425 4
f 233 252 8
f 124 463 464
f 69 258 268
f 168 167 166
f 583 153 582
f 384 394 102
f 138 512 513
f 57 210 211
f 254 256 255
f 607 609 142
f 324 319 86
f 289 291 76
f 291 292 76
f 384 102 383
f 422 421 420
f 221 17 197
f 383 102 381
f 376 377 99
f 99 373 374
f 386 105 392
f 438 33 440
f 90 341 343
f 281 75 279
f 574 571 96
f 628 82 312
f 221 222 59
f 127 471 474
f 595 605 603
f 551 538 145
f 334 91 340
f 322 324 85
f 305 303 301
f 18 239 399
f 306 204 16
f 199 198 197
f 166 190 180
f 303 80 301
f 267 266 265
f 626 42 547
f 16 215 213
f 349 351 350
f 295 16 213
f 68 379 252
f 250 251 66
f 627 160 626
f 383 68 256
f 343 88 342
f 507 508 136
f 202 215 16
f 197 198 53
f 254 69 269
f 603 605 156
f 418 419 111
f 384 383 256
f 455 122 476
f 203 204 54
f 556 557 148
f 255 68 253
f 313 84 560
f 25 328 341
f 254 255 69
f 603 156 602
f 581 584 583
f 630 632 112
f 163 246 1
f 246 245 220
f 432 116 558
f 499 591 590
f 320 563 86
f 345 93 350
f 306 16 295
f 346 93 345
f 562 568 149
f 604 605 155
f 154 592 593
f 545 552 535
f 511 522 530
f 574 573 571
f 566 150 565
f 361 98 360
f 67 271 273
f 234 235 65
f 208 211 56
f 574 151 573
f 251 270 66
f 398 8 378
f 213 215 214
f 438 440 439
f 315 314 313
f 263 71 262
f 20 373 384
f 496 134 504
f 329 88 328
f 81 306 316
f 555 556 148
f 592 589 103
f 617 619 107
f 227 207 56
f 571 359 96
f 446 466 465
f 206 216 55
f 359 571 469
f 568 148 570
f 34 437 435
f 28 351 349
f 21 272 282
f 113 423 424
f 490 489 488
f 379 68 383
f 210 212 211
f 80 563 300
f 351 92 350
f 326 346 12
f 83 317 318
f 555 148 554
f 212 231 56
f 218 57 217
f 271 67 246
f 195 196 52
f 270 268 66
f 390 592 103
f 148 568 554
f 495 493 7
f 592 390 593
f 357 95 355
f 574 575 151
f 452 120 451
f 154 591 592
f 587 585 577
f 395 394 396
f 93 349 350
f 610 416 611
f 166 44 190
f 315 23 302
f 315 302 317
f 268 247 66
f 606 154 593
f 396 394 99
f 211 212 56
f 370 369 368
f 235 397 65
f 280 278 22
f 83 315 317
f 575 588 151
f 74 279 280
f 385 495 7
f 63 257 253
f 397 235 398
f 214 58 213
f 220 219 194
f 546 146 545
f 236 225 19
f 599 94 602
f 235 233 8
f 102 394 395
f 611 416 32
f 225 223 19
f 139 528 529
f 231 62 229
f 419 406 421
f 451 450 452
f 49 182 185
f 402 397 107
f 52 199 218
f 416 610 110
f 225 236 244
f 107 397 398
f 68 252 253
f 322 85 321
f 182 181 183
f 118 438 439
f 546 438 118
f 348 77 345
f 543 546 118
f 231 212 232
f 610 611 157
f 33 438 545
f 385 386 103
f 479 480 130
f 169 195 15
f 93 583 349
f 15 195 206
f 190 44 192
f 247 248 66
f 146 552 545
f 248 60 245
f 570 557 564
f 274 271 43
f 63 253 233
f 272 21 249
f 507 528 518
f 67 273 249
f 487 467 126
f 196 195 169
f 624 159 623
f 134 496 497
f 132 503 488
f 104 393 395
f 556 553 89
f 355 356 94
f 258 69 257
f 229 61 227
f 56 231 227
f 460 576 335
f 463 124 461
f 394 373 99
f 29 393 391
f 67 250 245
f 193 198 196
f 462 36 464
f 144 633 630
f 141 526 527
f 517 133 498
f 536 144 630
f 100 372 599
f 144 536 537
f 22 289 287
f 578 579 152
f 579 578 576
f 189 188 187
f 60 223 224
f 92 348 350
f 555 554 447
f 396 377 388
f 194 193 165
f 413 536 630
f 372 352 599
f 377 376 375
f 348 345 350
f 105 386 387
f 240 237 234
f 463 462 464
f 135 500 494
f 45 196 169
f 512 612 387
f 245 60 220
f 429 115 456
f 223 60 248
f 288 289 76
f 525 526 142
f 100 599 601
f 613 29 391
f 526 523 520
f 341 328 343
f 631 641 639
f 264 21 282
f 266 72 265
f 106 402 403
f 73 273 274
f 186 206 205
f 381 379 383
f 52 216 195
f 410 18 399
f 290 272 73
f 72 371 374
f 526 525 527
f 115 430 424
f 498 497 496
f 621 382 29
f 543 118 434
f 214 215 57
f 522 141 530
f 511 510 509
f 352 94 599
f 493 512 7
f 90 340 341
f 169 171 170
f 605 604 606
f 219 60 224
f 104 389 392
f 359 469 3
f 186 49 185
f 222 219 224
f 166 167 44
f 428 427 426
f 523 522 524
f 129 502 481
f 50 185 188
f 164 45 170
f 425 115 424
f 33 428 426
f 427 428 113
f 94 356 602
f 515 138 513
f 114 431 452
f 237 236 238
f 215 217 57
f 95 354 355
f 220 60 219
f 515 514 516
f 183 320 319
f 222 197 53
f 559 569 567
f 300 320 6
f 435 436 117
f 96 360 363
f 640 642 641
f 242 243 62
f 140 537 519
f 508 130 505
f 420 410 399
f 537 539 144
f 317 316 318
f 426 114 450
f 186 15 206
f 311 83 310
f 625 544 307
f 544 10 307
f 168 43 167
f 185 182 188
f 369 354 95
f 44 171 192
f 605 606 156
f 548 549 146
f 100 601 375
f 149 568 569
f 381 380 382
f 455 466 35
f 480 479 454
f 543 548 546
f 493 133 513
f 492 472 37
f 477 125 476
f 491 487 126
f 337 336 338
f 588 153 587
f 576 578 91
f 633 161 632
f 96 359 360
f 39 485 483
f 101 617 378
f 193 45 165
f 163 164 43
f 618 624 611
f 507 136 528
f 561 149 560
f 641 162 639
f 116 561 558
f 494 133 493
f 253 252 233
f 63 237 238
f 392 393 104
f 440 450 117
f 93 581 583
f 386 385 387
f 120 449 451
f 421 422 111
f 486 3 467
f 302 81 317
f 633 632 630
f 462 475 36
f 376 99 374
f 489 490 131
f 447 449 448
f 387 612 105
f 106 420 399
f 173 46 172
f 492 491 472
f 316 306 295
f 22 287 347
f 109 410 420
f 507 39 483
f 559 23 313
f 214 57 211
f 196 45 193
f 10 434 432
f 422 106 403
f 626 160 640
f 487 486 467
f 542 41 532
f 400 106 399
f 444 120 452
f 198 199 52
f 475 127 474
f 621 620 382
f 621 623 159
f 450 114 452
f 92 347 348
f 376 100 375
f 434 118 433
f 503 132 502
f 337 90 336
f 537 536 519
f 395 393 380
f 201 54 200
f 171 44 170
f 355 94 353
f 58 296 213
f 422 420 106
f 595 365 596
f 569 568 570
f 523 140 520
f 114 430 431
f 218 210 57
f 304 566 80
f 639 162 638
f 261 371 72
f 548 147 547
f 498 133 497
f 150 570 564
f 222 224 59
f 142 526 520
f 437 436 435
f 141 522 523
f 137 510 505
f 173 179 176
f 559 149 569
f 121 447 448
f 563 320 300
f 102 395 380
f 257 255 253
f 642 162 641
f 83 311 314
f 216 52 218
f 512 493 513
f 23 304 302
f 91 339 340
f 512 138 612
f 159 620 621
f 218 199 210
f 364 28 575
f 83 318 310
f 168 274 43
f 136 530 528
f 140 523 524
f 495 135 494
f 233 235 234
f 566 563 80
f 25 339 577
f 277 74 276
f 475 462 477
f 133 494 497
f 436 437 116
f 389 386 392
f 548 146 546
f 441 460 5
f 10 309 307
f 65 397 400
f 543 434 544
f 640 641 161
f 272 273 73
f 581 93 346
f 419 421 111
f 319 320 86
f 180 179 178
f 127 475 477
f 231 229 227
f 337 334 340
f 136 508 510
f 308 309 84
f 237 63 234
f 447 554 34
f 252 379 378
f 315 83 314
f 608 622 616
f 338 336 26
f 337 338 89
f 13 275 168
f 209 208 207
f 436 439 117
f 628 312 629
f 360 366 363
f 364 574 96
f 359 361 360
f 466 446 35
f 500 501 134
f 406 109 421
f 135 589 591
f 601 599 602
f 340 90 337
f 481 492 37
f 522 41 524
f 78 316 295
f 131 486 487
f 403 32 414
f 634 626 640
f 151 572 573
f 515 516 138
f 8 252 378
f 265 72 374
f 9 521 519
f 538 549 42
f 368 358 347
f 588 587 586
f 458 453 123
f 589 385 103
f 502 492 481
f 32 416 414
f 430 427 424
f 153 585 587
f 540 144 539
f 370 368 92
f 209 293 58
f 428 33 535
f 326 581 346
f 625 307 82
f 575 28 582
f 6 181 200
f 421 109 420
f 553 121 443
f 160 642 640
f 153 584 585
f 309 432 558
f 334 337 89
f 23 315 313
f 271 163 43
f 296 295 213
f 39 498 496
f 118 439 433
f 531 113 534
f 293 296 58
f 28 362 351
f 489 131 487
f 431 444 452
f 84 558 560
f 98 366 360
f 45 169 170
f 379 101 378
f 462 463 125
f 308 84 314
f 10 432 309
f 299 24 310
f 132 492 502
f 512 387 7
f 639 638 408
f 565 323 86
f 59 244 242
f 106 400 402
f 440 33 426
f 566 565 563
f 617 398 378
f 224 225 59
f 410 109 409
f 239 400 399
f 194 219 53
f 358 22 347
f 610 157 609
f 27 595 603
f 479 484 482
f 142 520 521
f 585 25 577
f 339 578 577
f 408 407 406
f 407 109 406
f 31 408 406
f 407 408 108
f 31 639 408
f 419 31 406
f 608 616 40
f 430 429 431
f 455 35 429
f 35 444 431
f 188 51 187
f 188 182 51
f 51 322 187
f 322 51 319
f 51 182 183
f 319 51 183
f 187 322 321
f 322 319 324
f 381 101 379
f 405 407 108
f 404 405 108
f 286 285 178
f 407 405 409
f 109 407 409
f 191 175 47
f 167 164 170
f 50 184 185
f 44 167 170
f 64 244 236
f 243 244 64
f 50 188 189
f 541 542 145
f 442 445 119
f 339 91 578
f 445 446 119
f 624 623 622
f 611 624 157
f 523 526 141
f 141 527 529
f 527 514 529
f 445 120 444
f 446 445 444
f 35 446 444
f 613 614 158
f 158 614 615
f 623 613 158
f 614 613 391
f 614 612 615
f 371 376 374
f 100 376 371
f 479 482 123
f 373 394 384
f 540 42 634
f 633 540 634
f 538 42 540
f 633 634 161
f 161 634 640
f 42 626 634
f 540 633 144
f 557 556 338
f 553 333 89
f 262 21 264
f 251 21 262
f 5 335 333
f 270 251 262
f 21 251 249
f 600 593 30
f 606 593 600
f 600 30 375
f 593 390 30
f 30 377 375
f 390 388 30
f 30 388 377
f 228 243 241
f 470 478 459
f 470 127 478
f 127 477 478
f 184 186 185
f 478 477 476
f 122 478 476
f 357 74 280
f 518 39 507
f 344 342 85
f 325 344 85
f 342 344 343
f 85 342 321
f 344 90 343
f 90 344 336
f 482 129 481
f 482 481 457
f 482 457 123
f 481 37 457
f 449 447 34
f 435 449 34
f 470 472 471
f 472 470 37
f 470 471 127
f 472 126 471
f 126 468 471
f 470 459 37
f 491 126 472
f 504 129 485
f 221 59 242
f 125 463 465
f 437 34 562
f 561 437 562
f 554 568 562
f 34 554 562
f 437 561 116
f 390 103 389
f 103 386 389
f 392 105 391
f 572 586 580
f 572 580 36
f 586 152 580
f 473 572 36
f 244 243 242
f 225 244 59
f 64 240 241
f 240 239 241
f 237 240 64
f 243 64 241
f 236 237 64
f 411 607 521
f 9 411 521
f 110 607 411
f 607 142 521
f 610 607 110
f 171 15 184
f 171 169 15
f 15 186 184
f 87 584 581
f 153 588 582
f 588 575 582
f 381 102 380
f 573 572 473
f 468 469 128
f 474 468 128
f 469 571 128
f 571 573 128
f 573 473 128
f 473 474 128
f 564 323 565
f 26 323 564
f 323 324 86
f 325 323 26
f 325 324 323
f 563 565 86
f 324 325 85
f 410 230 18
f 230 228 18
f 18 228 241
f 18 241 239
f 401 619 618
f 401 402 107
f 403 402 401
f 619 159 618
f 401 618 32
f 619 401 107
f 403 401 32
f 618 611 32
f 159 624 618
f 478 122 459
f 122 458 459
f 37 459 457
f 459 458 457
f 122 456 458
f 457 458 123
f 191 190 192
f 485 129 484
f 129 482 484
f 483 485 484
f 130 483 484
f 189 187 14
f 191 50 189
f 191 189 175
f 189 14 175
f 14 177 175
f 499 501 500
f 501 499 38
f 38 499 590
f 135 499 500
f 488 501 38
f 499 135 591
f 480 454 4
f 284 12 346
f 4 423 506
f 480 4 506
f 423 531 506
f 480 506 505
f 531 137 506
f 506 137 505
f 365 366 98
f 71 270 262
f 270 71 269
f 71 267 269
f 335 334 333
f 333 334 89
f 334 335 91
f 536 9 519
f 465 463 461
f 537 140 541
f 520 140 519
f 119 446 465
f 465 461 119
f 461 441 119
f 460 441 461
f 176 46 173
f 299 297 24
f 71 263 266
f 263 260 266
f 260 72 266
f 263 70 260
f 205 201 49
f 201 181 49
f 186 205 49
f 181 201 200
f 181 182 49
f 284 77 283
f 586 587 152
f 588 586 151
f 20 267 265
f 266 267 71
f 31 417 631
f 631 417 632
f 31 631 639
f 417 31 419
f 641 631 161
f 417 112 632
f 161 631 632
f 418 417 419
f 417 418 112
f 284 345 77
f 542 550 145
f 542 541 524
f 284 174 12
f 48 174 283
f 373 20 265
f 373 265 374
f 609 608 525
f 608 157 622
f 560 559 313
f 636 637 162
f 541 140 524
f 41 542 524
f 358 357 280
f 70 263 264
f 263 262 264
f 176 177 46
f 174 48 173
f 174 173 172
f 538 551 549
f 538 540 539
f 537 541 539
f 232 221 242
f 17 221 232
f 232 242 62
f 231 232 62
f 203 205 55
f 203 55 202
f 201 205 203
f 202 55 217
f 205 206 55
f 204 203 202
f 73 275 292
f 292 290 73
f 272 290 282
f 290 292 291
f 75 290 291
f 290 75 282
f 70 277 259
f 277 70 281
f 277 281 279
f 260 70 259
f 12 174 172
f 104 396 388
f 367 27 354
f 365 27 367
f 354 27 356
f 365 367 366
f 595 27 365
f 318 299 310
f 155 596 597
f 155 597 598
f 596 594 597
f 595 596 155
f 605 595 155
f 180 47 179
f 180 190 47
f 352 372 11
f 11 372 261
f 312 310 24
f 642 636 162
f 636 297 637
f 367 369 97
f 366 367 97
f 369 367 354
f 369 370 97
f 580 579 464
f 580 152 579
f 579 124 464
f 61 230 409
f 230 410 409
f 230 61 229
f 230 229 228
f 76 285 286
f 353 352 276
f 74 353 276
f 288 76 286
f 288 286 283
f 289 288 287
f 203 54 201
f 287 288 77
f 77 288 283
f 286 48 283
f 531 423 113
f 276 11 259
f 11 261 259
f 277 276 259
f 616 158 615
f 516 616 615
f 138 516 615
f 138 615 612
f 509 533 532
f 503 502 504
f 635 79 294
f 635 294 404
f 635 637 79
f 637 635 638
f 638 635 108
f 635 404 108
f 226 61 405
f 61 226 227
f 405 61 409
f 227 226 207
f 48 178 179
f 48 286 178
f 173 48 179
f 534 143 533
f 534 535 143
f 531 534 533
f 533 143 532
f 137 531 533
f 261 372 371
f 13 180 178
f 285 13 178
f 180 13 166
f 13 168 166
f 346 345 284
f 331 327 46
f 46 327 172
f 172 327 326
f 382 620 101
f 442 121 448
f 443 121 442
f 2 226 404
f 294 2 404
f 404 226 405
f 207 226 2
f 550 551 145
f 552 146 551
f 143 550 532
f 552 550 143
f 330 329 328
f 24 636 629
f 94 352 353
f 352 11 276
f 113 428 534
f 428 535 534
f 509 41 511
f 535 552 143
f 550 552 551
f 550 542 532
f 369 95 368
f 326 327 87
f 87 327 329
f 327 331 329
f 581 326 87
f 293 79 298
f 79 297 298
f 296 298 78
f 79 293 294
f 296 293 298
f 598 490 38
f 358 280 22
f 280 279 278
f 357 358 95
f 74 357 353
f 330 328 25
f 567 23 559
f 590 598 38
f 590 604 598
f 598 604 155
f 604 590 154
f 590 591 154
f 604 154 606
f 297 299 298
f 299 318 78
f 298 299 78
f 355 354 356
f 629 636 642
f 312 24 629
f 629 642 160
f 370 362 97
f 362 363 97
f 363 366 97
f 364 363 362
f 362 370 351
f 96 363 364
f 297 636 24
f 162 637 638
f 637 297 79
f 490 488 38
f 598 597 490
f 441 442 119
f 443 442 441
f 443 441 5
f 442 448 445
f 296 78 295
f 326 12 172
f 575 574 364
f 47 175 176
f 175 177 176
f 47 176 179
