# FEM surface export ¡ª frame 693
# Vertices: 642  Faces: 1280
v -0.50497824 0.75179189 0.00967821
v 0.49509400 0.75973529 -0.02020581
v -0.52313715 0.62419355 -0.00339040
v 0.55351180 0.57058173 0.00647210
v 0.00864748 0.32897040 0.82376587
v 0.00187075 0.54905695 0.87687737
v -0.01667078 0.31695917 -0.81630456
v -0.01159333 0.54885560 -0.88539737
v 0.92102748 0.16295141 -0.57757169
v 0.91594881 0.11296199 0.58832568
v -0.91813928 0.05446057 -0.58199310
v -0.95626873 0.14405489 0.58336252
v -0.82542002 0.52347463 0.31838745
v -0.52471757 0.34962234 0.86466593
v -0.28670186 0.71942228 0.49351993
v 0.30448940 0.72404230 0.47293201
v -0.01251983 0.79545444 -0.00574295
v 0.28150496 0.74919724 -0.50250608
v -0.31611773 0.73366237 -0.48277172
v -0.54048848 0.37862864 -0.85669327
v -0.82340968 0.53632218 -0.32783386
v -1.10542095 0.15290609 -0.01395620
v 0.53699565 0.38424101 0.86597806
v 0.82995111 0.57031560 0.30780920
v -0.51658422 0.14557624 0.83597201
v -0.00972434 0.13039406 1.13497162
v -0.79355955 0.32919747 -0.26778436
v -0.79190731 0.23361096 0.29284483
v 0.00685279 0.10404436 -1.11489415
v -0.48103192 0.14299405 -0.82979405
v 0.80882943 0.56811160 -0.35299692
v 0.51815903 0.34980562 -0.87877935
v 0.80993211 0.21615006 0.33305904
v 0.49798682 0.12791160 0.83197105
v 0.32122046 0.58974987 0.49313542
v -0.33306047 0.57589507 0.50027001
v -0.03524591 0.42372864 0.04042527
v -0.30449903 0.48667872 -0.47486576
v 0.34282494 0.57152390 -0.47797474
v 0.55004954 0.19695860 -0.84691411
v 0.84791654 0.18157165 -0.28572688
v 1.10136211 0.19841161 0.01884432
v -0.67885226 0.66425258 0.16148384
v -0.58358788 0.65381044 0.43233603
v -0.41470659 0.75328630 0.25897583
v -0.74488974 0.26394570 0.74746686
v -0.70216709 0.47100666 0.62661123
v -0.91549230 0.34762549 0.45947048
v -0.15538658 0.64783406 0.70139658
v -0.43658823 0.57972562 0.69819081
v -0.27208954 0.47111049 0.89761800
v -0.15296222 0.77785921 0.24733654
v -0.26091850 0.79056180 0.00579637
v 0.15980732 0.66049027 0.69672960
v 0.00726767 0.73977482 0.51074779
v 0.23456433 0.78702259 -0.01515351
v 0.13947009 0.78490031 0.23931031
v 0.40518913 0.75529140 0.22898014
v -0.16462366 0.79968375 -0.25112465
v -0.41673362 0.75919664 -0.24021120
v 0.39820579 0.77337790 -0.26838958
v 0.13069093 0.80631042 -0.25827068
v -0.16740264 0.66938978 -0.70144016
v -0.01542602 0.75979435 -0.51774222
v 0.14460522 0.66676795 -0.71545422
v -0.59066200 0.65551847 -0.41595528
v -0.67663628 0.67507058 -0.15237850
v -0.27752531 0.47985786 -0.90606850
v -0.42908829 0.59614772 -0.70074362
v -0.91944724 0.33865187 -0.47935236
v -0.70942485 0.47948563 -0.61736095
v -0.77441365 0.26148942 -0.75331980
v -0.85045171 0.54509389 -0.01386200
v -1.05348778 0.09853008 -0.30928224
v -1.01337647 0.35238233 -0.19364390
v -0.99903715 0.36047420 0.15964036
v -1.05920851 0.12122016 0.28528598
v 0.58434308 0.66517508 0.41073713
v 0.67980558 0.68513256 0.14527859
v 0.26944280 0.49049252 0.90220338
v 0.43277621 0.60213542 0.69647753
v 0.92981941 0.38071847 0.47331029
v 0.72887087 0.50081944 0.62067604
v 0.77973664 0.28008017 0.74555552
v -0.29533821 0.27011499 1.04756033
v 0.00551477 0.36497828 1.04121709
v -0.79343957 0.05516225 0.77140355
v -0.58994317 0.13277714 0.94170338
v 0.01221498 0.04509224 0.96755677
v -0.28812820 0.03594181 1.03418124
v -0.25232854 0.24073876 0.89770782
v -0.95079774 0.00000000 0.21301669
v -0.91135484 0.06825598 0.47465456
v -0.92378515 0.12956469 -0.46756935
v -0.93888223 0.01132421 -0.17283377
v -0.67239749 0.48042995 0.14720933
v -0.83482552 0.25526896 0.02339589
v -0.70013452 0.48849970 -0.13772282
v -0.59741467 0.11791015 -0.93282336
v -0.74324435 0.08869007 -0.74156904
v -0.00851944 0.34039572 -1.02683866
v -0.29445952 0.24241303 -1.04835260
v -0.24725206 0.19992988 -0.87017012
v -0.27724519 0.00521595 -1.01953459
v -0.00689219 0.08327062 -0.97904283
v 0.41675612 0.59709954 -0.72159606
v 0.25768927 0.47346020 -0.91174001
v 0.67005241 0.70070952 -0.19446716
v 0.56357676 0.67919689 -0.45525971
v 0.74738705 0.24160337 -0.75690681
v 0.69941294 0.47258887 -0.64529026
v 0.91682851 0.39213043 -0.47997832
v 0.69159210 0.39647898 0.16836257
v 0.59698737 0.39368457 0.42265555
v 0.47070417 0.58884299 0.24889147
v 0.71892238 0.00000000 0.76190048
v 0.70264274 0.16184591 0.59325761
v 0.91242915 0.04083472 0.52218008
v 0.15425770 0.51228803 0.67913806
v 0.43772537 0.38667190 0.65388197
v 0.23916866 0.27801454 0.86071092
v 0.16904694 0.65430492 0.22449267
v 0.28266695 0.42911029 0.01870124
v -0.15792741 0.49175131 0.71268600
v -0.01766543 0.63615966 0.51352406
v -0.25109091 0.62858397 -0.04407219
v -0.20340762 0.57130295 0.22576469
v -0.41617876 0.61891240 0.26444942
v 0.13053204 0.50856376 -0.21408568
v 0.44491875 0.46516040 -0.26710010
v -0.47724512 0.62816060 -0.26750147
v -0.22860914 0.46975681 -0.19897681
v 0.16778152 0.49684876 -0.67493421
v -0.02409327 0.47770780 -0.48432022
v -0.16099285 0.45387006 -0.68316263
v 0.62568313 0.40707645 -0.39312348
v 0.70889169 0.40593046 -0.13335092
v 0.26004261 0.26862097 -0.85683817
v 0.42565206 0.40029979 -0.67278451
v 0.89737940 0.00000000 -0.48776329
v 0.71466726 0.19503787 -0.57409167
v 0.75824809 0.04067226 -0.76181608
v 0.86773169 0.22940138 0.02760096
v 1.05236959 0.19153151 -0.29011551
v 1.02236998 0.00000000 -0.15868343
v 1.01023459 0.00000000 0.19407712
v 1.05794835 0.17545831 0.33290231
v 0.26659364 0.01466964 0.99894214
v 0.56662428 0.13704319 0.94566727
v 0.28228307 0.25169194 1.03465986
v -0.60284287 0.43318114 0.43777356
v -0.41771150 0.36457235 0.72907090
v -0.69865602 0.19698921 0.61795825
v -0.39443037 0.40245578 -0.69413739
v -0.57244831 0.49217296 -0.42673090
v -0.68152934 0.28968549 -0.58736986
v 0.55471635 0.06588842 -0.93438649
v 0.26683259 0.05518240 -1.05042279
v 0.27504134 0.25876561 -1.04465199
v 1.01490605 0.40736452 0.16215214
v 1.01147318 0.41591439 -0.19327062
v 0.85808557 0.59663045 -0.03373852
v -0.59498382 0.71707308 0.09396881
v -0.55713212 0.71477091 0.22496536
v -0.46496555 0.75314134 0.13981314
v -0.70967740 0.59852874 0.37573668
v -0.63679671 0.66152000 0.30049062
v -0.75781488 0.60115767 0.23653026
v -0.35333213 0.74306715 0.38172188
v -0.49743795 0.70937026 0.35235688
v -0.43989596 0.68744808 0.46995145
v -0.85526150 0.22702187 0.67118937
v -0.84193569 0.31833029 0.60367388
v -0.94637042 0.24686852 0.51116812
v -0.62434644 0.40717649 0.75177890
v -0.73657548 0.36290306 0.69016033
v -0.63782245 0.29752392 0.81816685
v -0.87561244 0.43806422 0.39694762
v -0.80789828 0.42053553 0.54833102
v -0.77331680 0.51323795 0.47357666
v -0.08385803 0.60455686 0.79183382
v -0.21782830 0.57100093 0.80779958
v -0.13013692 0.51832885 0.89902145
v -0.36247134 0.65967339 0.59953946
v -0.29839483 0.61182696 0.70602387
v -0.21996574 0.68723375 0.59957933
v -0.40220010 0.40867028 0.89351296
v -0.36392319 0.52250147 0.80393261
v -0.48744321 0.46885937 0.78929996
v -0.65153861 0.57273006 0.53361773
v -0.57672465 0.52444679 0.67429441
v -0.51634514 0.62295359 0.57443964
v -0.34182259 0.77636421 0.13178822
v -0.38428238 0.77482152 0.00915113
v -0.21974318 0.76084477 0.37271401
v -0.28651273 0.77108455 0.25695178
v -0.13733734 0.80603182 -0.00213687
v -0.20989621 0.78549027 0.12771297
v -0.08520392 0.79339683 0.12267990
v 0.07822402 0.61291832 0.79016060
v -0.00240990 0.66084611 0.70492458
v 0.15752044 0.73180544 0.49473080
v 0.08582111 0.69866401 0.60528314
v 0.24049684 0.68764699 0.59223032
v -0.06968202 0.70182168 0.60789150
v -0.13982114 0.73640954 0.50474584
v 0.36661136 0.78147471 -0.01731743
v 0.32278246 0.77654326 0.11115853
v 0.45158717 0.76200640 0.10185895
v 0.06286079 0.78780431 0.11859269
v 0.18913592 0.78928131 0.11448572
v 0.11062752 0.80339038 -0.00897252
v 0.35860503 0.73994690 0.34812370
v 0.26732057 0.77319741 0.23682055
v 0.22294998 0.75847578 0.35612410
v -0.08004853 0.76980674 0.38348362
v 0.06825954 0.76752061 0.37582839
v -0.01416550 0.78240770 0.24598856
v -0.34140480 0.78228790 -0.11726882
v -0.46331120 0.76141274 -0.11554275
v -0.08453743 0.80625904 -0.12737840
v -0.21019174 0.80129015 -0.12170142
v -0.37854075 0.74691999 -0.36428732
v -0.29363993 0.78303695 -0.24710585
v -0.24432516 0.77430362 -0.36949062
v 0.44952345 0.77198637 -0.14169618
v 0.31894714 0.79609466 -0.14473951
v 0.20492302 0.78757757 -0.38346788
v 0.26383495 0.79442352 -0.26469386
v 0.33845058 0.76395518 -0.38639361
v 0.18492281 0.80180871 -0.13497554
v 0.06018229 0.80811989 -0.13154815
v -0.08848497 0.61284214 -0.79858011
v -0.00614088 0.67327946 -0.71686888
v 0.07130398 0.61320382 -0.81088579
v -0.16647123 0.75083226 -0.50568235
v -0.09390973 0.72125918 -0.61455762
v -0.24893992 0.70645154 -0.59703743
v 0.21800372 0.71551186 -0.61448956
v 0.06435789 0.72257471 -0.62004632
v 0.13333081 0.75868589 -0.51931924
v -0.01342173 0.80460310 -0.25596467
v 0.06232072 0.79014945 -0.39574826
v -0.09505503 0.79043734 -0.38694471
v -0.55246097 0.72736543 -0.19575742
v -0.59730053 0.72044611 -0.06585959
v -0.45926151 0.69716012 -0.45162490
v -0.50551802 0.71354616 -0.32604444
v -0.74675846 0.61112493 -0.24687801
v -0.63821357 0.67274314 -0.28598067
v -0.71085215 0.60512429 -0.37393978
v -0.14450490 0.51217908 -0.90285528
v -0.21705192 0.58267754 -0.81082356
v -0.48213148 0.49700961 -0.78883761
v -0.35224763 0.54489499 -0.81249267
v -0.41082528 0.43579164 -0.88915086
v -0.30289698 0.63308507 -0.70741999
v -0.37916756 0.67263365 -0.59413558
v -0.93641186 0.19217144 -0.54013997
v -0.86536002 0.28945187 -0.62216657
v -0.86468863 0.16075261 -0.68575764
v -0.77700847 0.50446659 -0.47932225
v -0.81779087 0.40157428 -0.55384088
v -0.88205546 0.45203272 -0.40986848
v -0.66055197 0.31286252 -0.81437582
v -0.75018817 0.36583853 -0.68912143
v -0.63386214 0.43588066 -0.74648553
v -0.51844811 0.62581885 -0.56263006
v -0.57610452 0.54012823 -0.66800886
v -0.65285647 0.58143342 -0.52080977
v -0.68558347 0.67629600 0.00845094
v -0.83814859 0.54762185 -0.17098659
v -0.76632768 0.62180257 -0.08667402
v -0.76972526 0.61275458 0.07374879
v -0.83602148 0.54272330 0.15074575
v -0.98466051 0.07268311 -0.43740776
v -1.00418997 0.20809413 -0.39474040
v -1.07288408 0.26618701 -0.10751457
v -1.05151880 0.24804011 -0.25919971
v -1.06930840 0.14563479 -0.16137674
v -0.97648710 0.35337135 -0.34487575
v -0.92435825 0.44959474 -0.26736698
v -1.00365555 0.22731405 0.36866960
v -1.01748168 0.10941542 0.44763547
v -0.91656518 0.44368613 0.24490279
v -0.97055101 0.36421728 0.31431234
v -1.10757422 0.14938924 0.13621123
v -1.04782522 0.26172596 0.22488558
v -1.07707644 0.26339346 0.07271362
v -0.93541926 0.44962683 -0.10444072
v -1.01265216 0.34638399 -0.01003057
v -0.93109637 0.46202746 0.06957453
v 0.54240954 0.73163688 0.18781787
v 0.59043115 0.72663760 0.06136842
v 0.44576925 0.70385772 0.44533607
v 0.50491828 0.71408474 0.31716949
v 0.76530743 0.63196784 0.22598200
v 0.63887805 0.68602878 0.27741167
v 0.71503150 0.62574583 0.36719719
v 0.13370010 0.52776760 0.89354575
v 0.21704513 0.59293336 0.80522227
v 0.49225190 0.51579583 0.79975516
v 0.35568964 0.54716349 0.80897367
v 0.40801221 0.44428417 0.90371227
v 0.29892871 0.63555241 0.70580018
v 0.37106994 0.67828190 0.58909416
v 0.93855488 0.25451010 0.52214468
v 0.86711705 0.31316945 0.61334270
v 0.86166632 0.18172996 0.65999252
v 0.78598917 0.53597832 0.46941826
v 0.83572811 0.43544653 0.54769683
v 0.88272625 0.49144000 0.38988584
v 0.66037685 0.34393468 0.81437606
v 0.76901817 0.39022681 0.69492322
v 0.65041590 0.45896137 0.75068343
v 0.51321781 0.65099251 0.55562896
v 0.57396072 0.55932802 0.65943974
v 0.65913779 0.59169966 0.51920778
v -0.14142317 0.42177072 0.98011482
v -0.00352272 0.46122295 0.96696174
v -0.41945142 0.31146806 0.96571583
v -0.28526670 0.36249977 0.97828197
v -0.00610560 0.24339309 1.09132051
v -0.14244103 0.31128904 1.03812850
v -0.15786473 0.19025803 1.08827877
v -0.89461875 0.08686119 0.69132459
v -0.79499704 0.15389022 0.77136117
v -0.59157622 0.05909624 0.91755217
v -0.73924696 0.07102256 0.87118894
v -0.64917964 0.08991116 0.82738256
v -0.68220842 0.17946839 0.85340863
v -0.55423945 0.25390697 0.92994416
v 0.01627191 0.18397617 0.90687555
v -0.10064489 0.14359076 0.92015779
v -0.11878622 0.29273358 0.87147754
v -0.14222595 0.06468970 1.10368407
v -0.12964790 0.04554016 1.04151964
v 0.02076045 0.00129649 1.08522069
v -0.38223547 0.21505316 0.86331141
v -0.28682086 0.13083279 0.94356418
v -0.39689469 0.11275319 0.92708671
v -0.43569398 0.18722069 1.01654601
v -0.44006756 0.04593028 1.00470018
v -0.29290265 0.12845190 1.07669604
v -1.01796627 0.00000000 0.37671208
v -0.97537184 0.00331169 0.54716712
v -1.05512440 0.02515334 0.08893560
v -1.07318091 0.03487878 0.23207894
v -0.85029030 0.13803701 0.38642055
v -0.94750464 0.05701987 0.34120789
v -0.89419013 0.11369733 0.25062260
v -0.90155160 0.02119245 -0.53746969
v -1.00063646 0.00254965 -0.41381657
v -0.87623686 0.18838526 -0.23269561
v -0.93006825 0.10974746 -0.31185517
v -0.84689528 0.22308475 -0.38522807
v -1.05382109 0.00061342 -0.24511354
v -1.07575941 0.00835527 -0.09183941
v -0.61151683 0.59064072 0.07823753
v -0.70313686 0.48900133 0.02945714
v -0.62799633 0.58997303 -0.06325027
v -0.83834493 0.26672980 0.16539083
v -0.77795863 0.36316001 0.10563475
v -0.73342264 0.35798386 0.22791645
v -0.74897796 0.37591329 -0.21189909
v -0.77110332 0.37443480 -0.07020137
v -0.84174973 0.26636687 -0.12686203
v -0.93502349 0.00000000 0.00962752
v -0.90005809 0.13448615 -0.07910620
v -0.90502191 0.12226422 0.10058921
v -0.78900498 0.12000448 -0.77604711
v -0.83344078 0.00222203 -0.67966491
v -0.57251579 0.25438249 -0.91762388
v -0.69293028 0.18438180 -0.85701013
v -0.60476530 0.10364817 -0.80576515
v -0.68221736 0.02334638 -0.82577544
v -0.56021684 0.00000000 -0.88838595
v -0.01308291 0.44643280 -0.96443957
v -0.14876135 0.41581380 -0.98572832
v -0.14242294 0.19471250 -1.10906184
v -0.15438284 0.29165366 -1.04906988
v -0.00695566 0.23425908 -1.08782530
v -0.28539196 0.36692363 -0.98357242
v -0.42139667 0.31737587 -0.96143526
v -0.13093655 0.26925680 -0.85858071
v -0.14953873 0.13504927 -0.91803432
v -0.01673920 0.20221448 -0.89111263
v -0.39933419 0.00809791 -0.89861906
v -0.24108563 0.02484245 -0.90046757
v -0.36461851 0.15136865 -0.85803592
v 0.00549277 0.00000000 -1.08540690
v -0.13534401 0.00076570 -0.98391867
v -0.14362220 0.06544824 -1.09101403
v -0.45228684 0.17893516 -1.01644599
v -0.29222673 0.12131783 -1.08584273
v -0.43920952 0.03580926 -1.00722718
v 0.20450540 0.57553470 -0.82434398
v 0.12110287 0.51362401 -0.90869975
v 0.34931260 0.68272698 -0.61957854
v 0.27802679 0.63545251 -0.72094524
v 0.39495385 0.42285034 -0.90006810
v 0.33920780 0.53870296 -0.82202947
v 0.47024938 0.47638315 -0.81357533
v 0.59596759 0.73320377 -0.10099613
v 0.53921968 0.74223006 -0.22831543
v 0.69522762 0.62262022 -0.41198394
v 0.62008822 0.69518405 -0.32832372
v 0.74384916 0.64196110 -0.27469593
v 0.48445880 0.73625106 -0.36280328
v 0.42536512 0.71868306 -0.48257518
v 0.85396111 0.19527598 -0.68189698
v 0.84444958 0.32755336 -0.62957430
v 0.92848593 0.26930207 -0.52873540
v 0.60932815 0.41177258 -0.76712644
v 0.72248179 0.36364320 -0.70923662
v 0.64001936 0.30828458 -0.81622392
v 0.86161697 0.48447552 -0.42382854
v 0.81623530 0.42666996 -0.57723469
v 0.76725221 0.52468425 -0.51243693
v 0.49407294 0.64308882 -0.58903199
v 0.64118421 0.58178967 -0.55338299
v 0.55644983 0.53593385 -0.69039100
v 0.62630039 0.47519529 0.08565639
v 0.61245316 0.52599633 0.24148761
v 0.55156761 0.59889656 0.12494449
v 0.69970959 0.31829128 0.38060391
v 0.65790641 0.37159878 0.30317658
v 0.74359155 0.29705670 0.24888448
v 0.41393146 0.60726541 0.37595913
v 0.56043696 0.50618047 0.36036536
v 0.49006662 0.51230878 0.47214323
v 0.84355581 0.02141192 0.69111568
v 0.77827555 0.09495787 0.64597863
v 0.92592293 0.01893384 0.57119006
v 0.61238432 0.15940447 0.73027885
v 0.70888001 0.11896201 0.71590465
v 0.64029574 0.05999681 0.81267732
v 0.84848595 0.11100131 0.41159058
v 0.79145372 0.13441540 0.55805886
v 0.74789065 0.20742045 0.45468852
v 0.08497494 0.44699863 0.76805472
v 0.22668453 0.38773072 0.77197105
v 0.12046501 0.30348155 0.82259965
v 0.36626226 0.46171162 0.57862794
v 0.31776363 0.46166879 0.66181922
v 0.22658843 0.56286508 0.59090400
v 0.38453099 0.21073820 0.82720405
v 0.36068037 0.33017272 0.78070945
v 0.47556546 0.24721724 0.73660219
v 0.64328462 0.26678479 0.51017690
v 0.57524621 0.27143389 0.63414258
v 0.54117322 0.38064989 0.55164284
v 0.38167864 0.53934681 0.15108542
v 0.44854379 0.50697786 0.01768900
v 0.25233465 0.63461858 0.36584961
v 0.34813124 0.64837343 0.23306583
v 0.13103765 0.44818375 -0.00439828
v 0.22373922 0.51821405 0.16066037
v 0.06754091 0.49996281 0.14770941
v -0.08888364 0.42329863 0.79336804
v -0.04331898 0.50825274 0.70413208
v -0.17465788 0.60586560 0.51251793
v -0.11833041 0.57158566 0.60744333
v -0.26399720 0.52495271 0.62435681
v 0.04728320 0.58899409 0.61323988
v 0.13594927 0.64321053 0.50441217
v -0.39021778 0.54575396 0.02123065
v -0.35253343 0.70329124 0.10116487
v -0.48297173 0.62017095 0.13107929
v -0.09140799 0.53363901 0.13850960
v -0.21669526 0.68952215 0.10618218
v -0.17448784 0.52006269 0.05353855
v -0.34850994 0.59028006 0.38222295
v -0.29226154 0.70523018 0.23529094
v -0.23981845 0.65588379 0.38173679
v 0.08724500 0.67801082 0.37960133
v -0.10544712 0.66249549 0.38210508
v -0.01573084 0.54058772 0.28266427
v 0.40341115 0.54059792 -0.09704594
v 0.52120101 0.58792907 -0.16725832
v 0.03566783 0.47504893 -0.10209771
v 0.21561283 0.45441478 -0.12671760
v 0.42159781 0.59425825 -0.38677418
v 0.29240766 0.54786319 -0.24320675
v 0.27888775 0.51352376 -0.33632013
v -0.51472169 0.65450710 -0.13303325
v -0.43791315 0.52916670 -0.10672179
v -0.26931277 0.39974102 -0.30036399
v -0.35636830 0.51234472 -0.22010037
v -0.38530099 0.50365084 -0.35038403
v -0.28075102 0.46475524 -0.06270653
v -0.15409242 0.48674640 -0.05793954
v 0.07534816 0.40612349 -0.75228894
v 0.00065309 0.48353514 -0.67071414
v -0.08324276 0.40002251 -0.73627156
v 0.17444099 0.49477896 -0.50051099
v 0.06853048 0.56462854 -0.56754267
v 0.24554288 0.55177331 -0.56929559
v -0.22813915 0.36179689 -0.56116349
v -0.10279287 0.48808482 -0.60979933
v -0.16088437 0.46458277 -0.46035990
v -0.02407894 0.49487102 -0.20831503
v -0.07895541 0.44875079 -0.30973354
v 0.09806640 0.49172086 -0.33140257
v 0.61521566 0.49152482 -0.21398491
v 0.62906259 0.51038039 -0.06076176
v 0.47103813 0.49355727 -0.47155666
v 0.55520499 0.49804592 -0.36980370
v 0.76998389 0.28459182 -0.20006339
v 0.66206944 0.37481135 -0.26536086
v 0.74572605 0.29118416 -0.34577650
v 0.12014115 0.30153415 -0.84887683
v 0.20982027 0.37975121 -0.78288400
v 0.47478831 0.28136653 -0.75723457
v 0.33977357 0.33870730 -0.77579641
v 0.39283684 0.19602163 -0.85162199
v 0.29203510 0.45286039 -0.68920767
v 0.39191982 0.47625855 -0.59233868
v 0.92728686 0.03836503 -0.53146571
v 0.80522799 0.00300936 -0.62412477
v 0.87079281 0.06873882 -0.67582285
v 0.79626250 0.15909979 -0.42384174
v 0.80824506 0.10900501 -0.51258147
v 0.88354868 0.05903942 -0.37566635
v 0.67052096 0.15321562 -0.80960089
v 0.72522461 0.13470526 -0.66418183
v 0.62014377 0.21830085 -0.70049208
v 0.54138201 0.40024081 -0.53995031
v 0.58336836 0.30484739 -0.63572502
v 0.67842203 0.27471510 -0.48048228
v 0.72049570 0.39851218 0.03991892
v 0.85572171 0.21827370 -0.12525570
v 0.76072538 0.31199372 -0.06469829
v 0.77359325 0.30576241 0.11287685
v 0.84398603 0.18812230 0.18105769
v 0.99732822 0.16952750 -0.43748832
v 1.00714576 0.07070112 -0.37609681
v 1.09992087 0.09191374 -0.06244332
v 1.07549834 0.08932978 -0.21856129
v 1.08413684 0.20545968 -0.13156666
v 0.96454942 0.00000000 -0.31725398
v 0.92226815 0.08328095 -0.22316414
v 1.02095294 0.05244657 0.42039526
v 0.98574913 0.14521772 0.46236697
v 0.89711750 0.08892378 0.26503521
v 0.96370852 0.00002921 0.34678221
v 1.09655404 0.19433269 0.17481592
v 1.06175292 0.08188263 0.26051629
v 1.09000528 0.09545413 0.10834939
v 0.94428450 0.12511952 -0.07716908
v 1.03315246 0.00000000 0.02427755
v 0.94916147 0.11395061 0.10152820
v 0.10916708 0.18581378 0.92359877
v 0.39244771 0.08798281 0.91154349
v 0.24160060 0.16507445 0.92777902
v 0.13800575 0.05673598 0.98209792
v 0.13851756 0.05242623 1.11532140
v 0.78391671 0.14036131 0.77575064
v 0.56246912 0.26306757 0.92115492
v 0.68713397 0.21406879 0.86017126
v 0.66730422 0.05660076 0.87180871
v 0.55533427 0.04673846 0.92360675
v 0.13888514 0.43653792 0.98348778
v 0.14450204 0.17943838 1.08864367
v 0.13943216 0.30274031 1.04550803
v 0.27844712 0.38373414 0.97935158
v 0.40950903 0.31720054 0.95717204
v 0.42984471 0.04358121 1.02160478
v 0.43213710 0.16699614 0.99160558
v 0.29074219 0.10564859 1.07521844
v -0.57173038 0.59625196 0.22001417
v -0.47446194 0.49243107 0.47014186
v -0.51816809 0.54688257 0.36646974
v -0.63738930 0.46184558 0.29208252
v -0.70087481 0.36458251 0.36382952
v -0.21307737 0.36700854 0.78960425
v -0.45828134 0.27558172 0.78674817
v -0.33696279 0.29168466 0.82770240
v -0.30834541 0.39814198 0.70498902
v -0.38934571 0.47508514 0.61909306
v -0.85727274 0.06225793 0.63119113
v -0.76386136 0.24139406 0.45260277
v -0.81896186 0.17544903 0.54596174
v -0.72237188 0.12064179 0.69678825
v -0.59414643 0.17893450 0.75985754
v -0.52818805 0.42406276 0.59167904
v -0.54454392 0.26717681 0.67066646
v -0.66318244 0.32817465 0.54621494
v -0.20800085 0.32389867 -0.75857741
v -0.31395176 0.49779162 -0.57946092
v -0.28668377 0.41009206 -0.69758111
v -0.33888343 0.29697746 -0.80469483
v -0.45180446 0.27409273 -0.76441133
v -0.61041123 0.58752424 -0.20470780
v -0.67277354 0.43004414 -0.36172786
v -0.64487070 0.50438720 -0.27027163
v -0.52592552 0.55099696 -0.33746776
v -0.43300116 0.56277859 -0.44704497
v -0.83140421 0.12369601 -0.60039055
v -0.60844326 0.24229437 -0.72946757
v -0.71400678 0.18396519 -0.68750322
v -0.80290300 0.23127775 -0.50672966
v -0.74717152 0.32231984 -0.43448910
v -0.48177135 0.47215942 -0.56423265
v -0.61915058 0.40714544 -0.50949728
v -0.54576164 0.37894928 -0.64709407
v 0.77233303 0.12688702 -0.77947778
v 0.56303227 0.08196943 -0.92149460
v 0.66436040 0.01123563 -0.86411923
v 0.66081446 0.15147635 -0.85848689
v 0.55206597 0.22044817 -0.90685380
v 0.11560631 0.18497807 -0.94311351
v 0.16065224 0.05564198 -1.10060239
v 0.13678314 0.05933606 -1.02859330
v 0.26784268 0.14558005 -0.95092726
v 0.41239843 0.13838659 -0.94556284
v 0.12860034 0.41605458 -0.97971576
v 0.40512750 0.30315533 -0.95804435
v 0.27396411 0.37260926 -0.97832048
v 0.12972669 0.29751325 -1.04241288
v 0.14385276 0.17739846 -1.08925915
v 0.43981582 0.04833403 -1.03737497
v 0.30150124 0.14541481 -1.07848346
v 0.43207636 0.17756090 -1.00792897
v 1.01188338 0.28300637 0.40171906
v 1.07931125 0.29632416 0.09887775
v 1.04863513 0.29625231 0.24792236
v 0.96766955 0.40488753 0.32377750
v 0.92760658 0.49483109 0.23386882
v 0.99597418 0.28783035 -0.38751808
v 0.91307479 0.49855006 -0.28363684
v 0.97663659 0.40513346 -0.33997315
v 1.05100715 0.31773573 -0.24133019
v 1.07350290 0.31372672 -0.08910276
v 0.68315130 0.69954920 -0.02281439
v 0.85606176 0.59130716 0.13471156
v 0.77127892 0.65214503 0.06027986
v 0.76585996 0.66116416 -0.11118710
v 0.83382922 0.59177411 -0.18892857
v 1.03218043 0.41661912 -0.01308455
v 0.94775236 0.51122499 -0.12273081
v 0.95555490 0.52402234 0.05684325
f 330 87 329
f 336 325 26
f 207 208 56
f 464 36 580
f 502 129 504
f 157 624 622
f 308 311 82
f 247 223 248
f 507 483 508
f 331 88 329
f 494 500 497
f 156 601 602
f 591 589 592
f 365 98 596
f 75 281 282
f 152 587 577
f 149 559 560
f 555 121 553
f 530 141 529
f 515 517 139
f 361 594 98
f 250 67 249
f 157 608 609
f 294 293 209
f 317 81 316
f 557 338 26
f 303 305 81
f 530 529 528
f 101 381 382
f 415 418 111
f 192 184 50
f 412 110 411
f 20 384 256
f 131 594 486
f 281 264 282
f 347 287 348
f 28 349 582
f 165 163 1
f 248 250 66
f 617 107 398
f 273 271 274
f 456 115 453
f 558 561 560
f 335 576 91
f 331 177 332
f 116 433 436
f 351 370 92
f 136 511 530
f 239 240 65
f 247 258 19
f 304 23 567
f 148 557 570
f 214 208 58
f 440 426 450
f 268 270 269
f 258 247 268
f 204 202 16
f 466 125 465
f 517 513 133
f 168 275 274
f 275 73 274
f 198 193 53
f 309 308 307
f 510 511 136
f 415 416 110
f 131 490 597
f 473 475 474
f 414 415 111
f 493 495 494
f 496 504 485
f 433 116 432
f 600 375 601
f 240 234 65
f 418 415 412
f 486 361 3
f 567 566 304
f 380 393 29
f 17 199 197
f 491 492 132
f 451 449 435
f 218 217 216
f 623 621 613
f 396 104 395
f 433 439 436
f 628 160 627
f 215 202 217
f 209 207 2
f 427 113 424
f 434 10 544
f 434 433 432
f 199 17 210
f 150 564 565
f 489 491 132
f 275 13 285
f 497 500 134
f 125 466 476
f 578 152 577
f 208 214 211
f 328 88 343
f 356 27 603
f 150 566 567
f 372 100 371
f 190 191 47
f 235 8 398
f 260 261 72
f 422 403 414
f 422 414 111
f 453 454 123
f 349 583 582
f 521 520 519
f 425 453 115
f 616 622 158
f 483 130 508
f 151 586 572
f 212 17 232
f 400 397 402
f 377 396 99
f 41 522 511
f 510 508 505
f 549 547 42
f 475 473 36
f 510 137 509
f 222 221 197
f 430 115 429
f 220 194 1
f 305 54 204
f 621 29 613
f 192 171 184
f 460 335 5
f 88 331 332
f 74 277 279
f 300 301 80
f 390 389 388
f 165 45 164
f 146 549 551
f 291 278 75
f 448 120 445
f 147 543 544
f 607 610 609
f 603 602 356
f 139 529 514
f 333 553 443
f 92 368 347
f 261 260 259
f 300 6 200
f 46 177 331
f 284 283 174
f 301 300 200
f 471 468 474
f 54 305 301
f 302 304 303
f 569 150 567
f 150 569 570
f 294 209 2
f 628 629 160
f 548 543 147
f 147 625 627
f 63 233 234
f 426 427 114
f 41 509 532
f 198 52 196
f 614 105 612
f 147 627 547
f 81 305 306
f 549 548 547
f 54 301 200
f 342 88 332
f 264 281 70
f 193 194 53
f 455 429 456
f 187 321 14
f 479 130 484
f 147 544 625
f 458 456 453
f 304 80 303
f 314 84 313
f 488 503 501
f 321 332 14
f 423 425 424
f 305 204 306
f 341 339 25
f 514 40 516
f 625 628 627
f 340 339 341
f 105 614 391
f 243 228 62
f 318 316 78
f 75 278 279
f 357 355 353
f 238 257 63
f 466 455 476
f 425 423 4
f 448 449 120
f 408 638 108
f 292 275 285
f 22 278 289
f 515 513 517
f 501 503 134
f 622 623 158
f 134 503 504
f 195 216 206
f 163 271 246
f 619 617 620
f 62 228 229
f 163 165 164
f 453 425 454
f 489 132 488
f 82 628 625
f 58 208 209
f 525 608 40
f 626 547 627
f 518 517 498
f 489 487 491
f 557 26 564
f 325 336 344
f 541 145 539
f 40 616 516
f 338 556 89
f 250 248 245
f 139 514 515
f 98 594 596
f 246 220 1
f 112 413 630
f 9 536 413
f 156 600 601
f 332 177 14
f 321 342 332
f 156 606 600
f 584 330 585
f 302 303 81
f 584 87 330
f 330 25 585
f 400 239 65
f 439 440 117
f 95 358 368
f 597 594 131
f 594 361 486
f 246 67 245
f 561 562 149
f 28 364 362
f 55 216 217
f 427 430 114
f 267 20 254
f 556 555 553
f 84 309 558
f 311 310 312
f 609 525 142
f 256 68 255
f 124 460 461
f 82 311 312
f 307 308 82
f 589 135 495
f 527 40 514
f 112 418 412
f 20 256 254
f 258 238 19
f 267 254 269
f 273 272 249
f 392 391 393
f 137 533 509
f 122 455 456
f 9 413 411
f 130 480 505
f 333 443 5
f 527 525 40
f 589 495 385
f 39 496 485
f 223 225 224
f 414 416 415
f 219 222 53
f 145 538 539
f 413 412 411
f 469 468 467
f 183 181 6
f 191 192 50
f 429 35 431
f 292 285 76
f 413 112 412
f 415 110 412
f 43 164 167
f 467 468 126
f 617 101 620
f 450 451 117
f 438 546 545
f 619 620 159
f 17 212 210
f 124 579 576
f 584 153 583
f 460 124 576
f 3 469 467
f 311 308 314
f 6 320 183
f 389 104 388
f 251 250 249
f 194 165 1
f 291 289 278
f 287 77 348
f 238 258 257
f 139 517 518
f 238 236 19
f 223 247 19
f 382 380 29
f 39 518 498
f 361 359 3
f 69 255 257
f 139 518 528
f 33 545 535
f 387 385 7
f 69 268 269
f 477 462 125
f 454 479 123
f 121 555 447
f 451 435 117
f 454 425 4
f 233 252 8
f 124 463 464
f 69 258 268
f 168 167 166
f 583 153 582
f 384 394 102
f 138 512 513
f 57 210 211
f 254 256 255
f 607 609 142
f 324 319 86
f 289 291 76
f 291 292 76
f 384 102 383
f 422 421 420
f 221 17 197
f 383 102 381
f 376 377 99
f 99 373 374
f 386 105 392
f 438 33 440
f 90 341 343
f 281 75 279
f 574 571 96
f 628 82 312
f 221 222 59
f 127 471 474
f 595 605 603
f 551 538 145
f 334 91 340
f 322 324 85
f 305 303 301
f 18 239 399
f 306 204 16
f 199 198 197
f 166 190 180
f 303 80 301
f 267 266 265
f 626 42 547
f 16 215 213
f 349 351 350
f 295 16 213
f 68 379 252
f 250 251 66
f 627 160 626
f 383 68 256
f 343 88 342
f 507 508 136
f 202 215 16
f 197 198 53
f 254 69 269
f 603 605 156
f 418 419 111
f 384 383 256
f 455 122 476
f 203 204 54
f 556 557 148
f 255 68 253
f 313 84 560
f 25 328 341
f 254 255 69
f 603 156 602
f 581 584 583
f 630 632 112
f 163 246 1
f 246 245 220
f 432 116 558
f 499 591 590
f 320 563 86
f 345 93 350
f 306 16 295
f 346 93 345
f 562 568 149
f 604 605 155
f 154 592 593
f 545 552 535
f 511 522 530
f 574 573 571
f 566 150 565
f 361 98 360
f 67 271 273
f 234 235 65
f 208 211 56
f 574 151 573
f 251 270 66
f 398 8 378
f 213 215 214
f 438 440 439
f 315 314 313
f 263 71 262
f 20 373 384
f 496 134 504
f 329 88 328
f 81 306 316
f 555 556 148
f 592 589 103
f 617 619 107
f 227 207 56
f 571 359 96
f 446 466 465
f 206 216 55
f 359 571 469
f 568 148 570
f 34 437 435
f 28 351 349
f 21 272 282
f 113 423 424
f 490 489 488
f 379 68 383
f 210 212 211
f 80 563 300
f 351 92 350
f 326 346 12
f 83 317 318
f 555 148 554
f 212 231 56
f 218 57 217
f 271 67 246
f 195 196 52
f 270 268 66
f 390 592 103
f 148 568 554
f 495 493 7
f 592 390 593
f 357 95 355
f 574 575 151
f 452 120 451
f 154 591 592
f 587 585 577
f 395 394 396
f 93 349 350
f 610 416 611
f 166 44 190
f 315 23 302
f 315 302 317
f 268 247 66
f 606 154 593
f 396 394 99
f 211 212 56
f 370 369 368
f 235 397 65
f 280 278 22
f 83 315 317
f 575 588 151
f 74 279 280
f 385 495 7
f 63 257 253
f 397 235 398
f 214 58 213
f 220 219 194
f 546 146 545
f 236 225 19
f 599 94 602
f 235 233 8
f 102 394 395
f 611 416 32
f 225 223 19
f 139 528 529
f 231 62 229
f 419 406 421
f 451 450 452
f 49 182 185
f 402 397 107
f 52 199 218
f 416 610 110
f 225 236 244
f 107 397 398
f 68 252 253
f 322 85 321
f 182 181 183
f 118 438 439
f 546 438 118
f 348 77 345
f 543 546 118
f 231 212 232
f 610 611 157
f 33 438 545
f 385 386 103
f 479 480 130
f 169 195 15
f 93 583 349
f 15 195 206
f 190 44 192
f 247 248 66
f 146 552 545
f 248 60 245
f 570 557 564
f 274 271 43
f 63 253 233
f 272 21 249
f 507 528 518
f 67 273 249
f 487 467 126
f 196 195 169
f 624 159 623
f 134 496 497
f 132 503 488
f 104 393 395
f 556 553 89
f 355 356 94
f 258 69 257
f 229 61 227
f 56 231 227
f 460 576 335
f 463 124 461
f 394 373 99
f 29 393 391
f 67 250 245
f 193 198 196
f 462 36 464
f 144 633 630
f 141 526 527
f 517 133 498
f 536 144 630
f 100 372 599
f 144 536 537
f 22 289 287
f 578 579 152
f 579 578 576
f 189 188 187
f 60 223 224
f 92 348 350
f 555 554 447
f 396 377 388
f 194 193 165
f 413 536 630
f 372 352 599
f 377 376 375
f 348 345 350
f 105 386 387
f 240 237 234
f 463 462 464
f 135 500 494
f 45 196 169
f 512 612 387
f 245 60 220
f 429 115 456
f 223 60 248
f 288 289 76
f 525 526 142
f 100 599 601
f 613 29 391
f 526 523 520
f 341 328 343
f 631 641 639
f 264 21 282
f 266 72 265
f 106 402 403
f 73 273 274
f 186 206 205
f 381 379 383
f 52 216 195
f 410 18 399
f 290 272 73
f 72 371 374
f 526 525 527
f 115 430 424
f 498 497 496
f 621 382 29
f 543 118 434
f 214 215 57
f 522 141 530
f 511 510 509
f 352 94 599
f 493 512 7
f 90 340 341
f 169 171 170
f 605 604 606
f 219 60 224
f 104 389 392
f 359 469 3
f 186 49 185
f 222 219 224
f 166 167 44
f 428 427 426
f 523 522 524
f 129 502 481
f 50 185 188
f 164 45 170
f 425 115 424
f 33 428 426
f 427 428 113
f 94 356 602
f 515 138 513
f 114 431 452
f 237 236 238
f 215 217 57
f 95 354 355
f 220 60 219
f 515 514 516
f 183 320 319
f 222 197 53
f 559 569 567
f 300 320 6
f 435 436 117
f 96 360 363
f 640 642 641
f 242 243 62
f 140 537 519
f 508 130 505
f 420 410 399
f 537 539 144
f 317 316 318
f 426 114 450
f 186 15 206
f 311 83 310
f 625 544 307
f 544 10 307
f 168 43 167
f 185 182 188
f 369 354 95
f 44 171 192
f 605 606 156
f 548 549 146
f 100 601 375
f 149 568 569
f 381 380 382
f 455 466 35
f 480 479 454
f 543 548 546
f 493 133 513
f 492 472 37
f 477 125 476
f 491 487 126
f 337 336 338
f 588 153 587
f 576 578 91
f 633 161 632
f 96 359 360
f 39 485 483
f 101 617 378
f 193 45 165
f 163 164 43
f 618 624 611
f 507 136 528
f 561 149 560
f 641 162 639
f 116 561 558
f 494 133 493
f 253 252 233
f 63 237 238
f 392 393 104
f 440 450 117
f 93 581 583
f 386 385 387
f 120 449 451
f 421 422 111
f 486 3 467
f 302 81 317
f 633 632 630
f 462 475 36
f 376 99 374
f 489 490 131
f 447 449 448
f 387 612 105
f 106 420 399
f 173 46 172
f 492 491 472
f 316 306 295
f 22 287 347
f 109 410 420
f 507 39 483
f 559 23 313
f 214 57 211
f 196 45 193
f 10 434 432
f 422 106 403
f 626 160 640
f 487 486 467
f 542 41 532
f 400 106 399
f 444 120 452
f 198 199 52
f 475 127 474
f 621 620 382
f 621 623 159
f 450 114 452
f 92 347 348
f 376 100 375
f 434 118 433
f 503 132 502
f 337 90 336
f 537 536 519
f 395 393 380
f 201 54 200
f 171 44 170
f 355 94 353
f 58 296 213
f 422 420 106
f 595 365 596
f 569 568 570
f 523 140 520
f 114 430 431
f 218 210 57
f 304 566 80
f 639 162 638
f 261 371 72
f 548 147 547
f 498 133 497
f 150 570 564
f 222 224 59
f 142 526 520
f 437 436 435
f 141 522 523
f 137 510 505
f 173 179 176
f 559 149 569
f 121 447 448
f 563 320 300
f 102 395 380
f 257 255 253
f 642 162 641
f 83 311 314
f 216 52 218
f 512 493 513
f 23 304 302
f 91 339 340
f 512 138 612
f 159 620 621
f 218 199 210
f 364 28 575
f 83 318 310
f 168 274 43
f 136 530 528
f 140 523 524
f 495 135 494
f 233 235 234
f 566 563 80
f 25 339 577
f 277 74 276
f 475 462 477
f 133 494 497
f 436 437 116
f 389 386 392
f 548 146 546
f 441 460 5
f 10 309 307
f 65 397 400
f 543 434 544
f 640 641 161
f 272 273 73
f 581 93 346
f 419 421 111
f 319 320 86
f 180 179 178
f 127 475 477
f 231 229 227
f 337 334 340
f 136 508 510
f 308 309 84
f 237 63 234
f 447 554 34
f 252 379 378
f 315 83 314
f 608 622 616
f 338 336 26
f 337 338 89
f 13 275 168
f 209 208 207
f 436 439 117
f 628 312 629
f 360 366 363
f 364 574 96
f 359 361 360
f 466 446 35
f 500 501 134
f 406 109 421
f 135 589 591
f 601 599 602
f 340 90 337
f 481 492 37
f 522 41 524
f 78 316 295
f 131 486 487
f 403 32 414
f 634 626 640
f 151 572 573
f 515 516 138
f 8 252 378
f 265 72 374
f 9 521 519
f 538 549 42
f 368 358 347
f 588 587 586
f 458 453 123
f 589 385 103
f 502 492 481
f 32 416 414
f 430 427 424
f 153 585 587
f 540 144 539
f 370 368 92
f 209 293 58
f 428 33 535
f 326 581 346
f 625 307 82
f 575 28 582
f 6 181 200
f 421 109 420
f 553 121 443
f 160 642 640
f 153 584 585
f 309 432 558
f 334 337 89
f 23 315 313
f 271 163 43
f 296 295 213
f 39 498 496
f 118 439 433
f 531 113 534
f 293 296 58
f 28 362 351
f 489 131 487
f 431 444 452
f 84 558 560
f 98 366 360
f 45 169 170
f 379 101 378
f 462 463 125
f 308 84 314
f 10 432 309
f 299 24 310
f 132 492 502
f 512 387 7
f 639 638 408
f 565 323 86
f 59 244 242
f 106 400 402
f 440 33 426
f 566 565 563
f 617 398 378
f 224 225 59
f 410 109 409
f 239 400 399
f 194 219 53
f 358 22 347
f 610 157 609
f 27 595 603
f 479 484 482
f 142 520 521
f 585 25 577
f 339 578 577
f 408 407 406
f 407 109 406
f 31 408 406
f 407 408 108
f 31 639 408
f 419 31 406
f 608 616 40
f 430 429 431
f 455 35 429
f 35 444 431
f 188 51 187
f 188 182 51
f 51 322 187
f 322 51 319
f 51 182 183
f 319 51 183
f 187 322 321
f 322 319 324
f 381 101 379
f 405 407 108
f 404 405 108
f 286 285 178
f 407 405 409
f 109 407 409
f 191 175 47
f 167 164 170
f 50 184 185
f 44 167 170
f 64 244 236
f 243 244 64
f 50 188 189
f 541 542 145
f 442 445 119
f 339 91 578
f 445 446 119
f 624 623 622
f 611 624 157
f 523 526 141
f 141 527 529
f 527 514 529
f 445 120 444
f 446 445 444
f 35 446 444
f 613 614 158
f 158 614 615
f 623 613 158
f 614 613 391
f 614 612 615
f 371 376 374
f 100 376 371
f 479 482 123
f 373 394 384
f 540 42 634
f 633 540 634
f 538 42 540
f 633 634 161
f 161 634 640
f 42 626 634
f 540 633 144
f 557 556 338
f 553 333 89
f 262 21 264
f 251 21 262
f 5 335 333
f 270 251 262
f 21 251 249
f 600 593 30
f 606 593 600
f 600 30 375
f 593 390 30
f 30 377 375
f 390 388 30
f 30 388 377
f 228 243 241
f 470 478 459
f 470 127 478
f 127 477 478
f 184 186 185
f 478 477 476
f 122 478 476
f 357 74 280
f 518 39 507
f 344 342 85
f 325 344 85
f 342 344 343
f 85 342 321
f 344 90 343
f 90 344 336
f 482 129 481
f 482 481 457
f 482 457 123
f 481 37 457
f 449 447 34
f 435 449 34
f 470 472 471
f 472 470 37
f 470 471 127
f 472 126 471
f 126 468 471
f 470 459 37
f 491 126 472
f 504 129 485
f 221 59 242
f 125 463 465
f 437 34 562
f 561 437 562
f 554 568 562
f 34 554 562
f 437 561 116
f 390 103 389
f 103 386 389
f 392 105 391
f 572 586 580
f 572 580 36
f 586 152 580
f 473 572 36
f 244 243 242
f 225 244 59
f 64 240 241
f 240 239 241
f 237 240 64
f 243 64 241
f 236 237 64
f 411 607 521
f 9 411 521
f 110 607 411
f 607 142 521
f 610 607 110
f 171 15 184
f 171 169 15
f 15 186 184
f 87 584 581
f 153 588 582
f 588 575 582
f 381 102 380
f 573 572 473
f 468 469 128
f 474 468 128
f 469 571 128
f 571 573 128
f 573 473 128
f 473 474 128
f 564 323 565
f 26 323 564
f 323 324 86
f 325 323 26
f 325 324 323
f 563 565 86
f 324 325 85
f 410 230 18
f 230 228 18
f 18 228 241
f 18 241 239
f 401 619 618
f 401 402 107
f 403 402 401
f 619 159 618
f 401 618 32
f 619 401 107
f 403 401 32
f 618 611 32
f 159 624 618
f 478 122 459
f 122 458 459
f 37 459 457
f 459 458 457
f 122 456 458
f 457 458 123
f 191 190 192
f 485 129 484
f 129 482 484
f 483 485 484
f 130 483 484
f 189 187 14
f 191 50 189
f 191 189 175
f 189 14 175
f 14 177 175
f 499 501 500
f 501 499 38
f 38 499 590
f 135 499 500
f 488 501 38
f 499 135 591
f 480 454 4
f 284 12 346
f 4 423 506
f 480 4 506
f 423 531 506
f 480 506 505
f 531 137 506
f 506 137 505
f 365 366 98
f 71 270 262
f 270 71 269
f 71 267 269
f 335 334 333
f 333 334 89
f 334 335 91
f 536 9 519
f 465 463 461
f 537 140 541
f 520 140 519
f 119 446 465
f 465 461 119
f 461 441 119
f 460 441 461
f 176 46 173
f 299 297 24
f 71 263 266
f 263 260 266
f 260 72 266
f 263 70 260
f 205 201 49
f 201 181 49
f 186 205 49
f 181 201 200
f 181 182 49
f 284 77 283
f 586 587 152
f 588 586 151
f 20 267 265
f 266 267 71
f 31 417 631
f 631 417 632
f 31 631 639
f 417 31 419
f 641 631 161
f 417 112 632
f 161 631 632
f 418 417 419
f 417 418 112
f 284 345 77
f 542 550 145
f 542 541 524
f 284 174 12
f 48 174 283
f 373 20 265
f 373 265 374
f 609 608 525
f 608 157 622
f 560 559 313
f 636 637 162
f 541 140 524
f 41 542 524
f 358 357 280
f 70 263 264
f 263 262 264
f 176 177 46
f 174 48 173
f 174 173 172
f 538 551 549
f 538 540 539
f 537 541 539
f 232 221 242
f 17 221 232
f 232 242 62
f 231 232 62
f 203 205 55
f 203 55 202
f 201 205 203
f 202 55 217
f 205 206 55
f 204 203 202
f 73 275 292
f 292 290 73
f 272 290 282
f 290 292 291
f 75 290 291
f 290 75 282
f 70 277 259
f 277 70 281
f 277 281 279
f 260 70 259
f 12 174 172
f 104 396 388
f 367 27 354
f 365 27 367
f 354 27 356
f 365 367 366
f 595 27 365
f 318 299 310
f 155 596 597
f 155 597 598
f 596 594 597
f 595 596 155
f 605 595 155
f 180 47 179
f 180 190 47
f 352 372 11
f 11 372 261
f 312 310 24
f 642 636 162
f 636 297 637
f 367 369 97
f 366 367 97
f 369 367 354
f 369 370 97
f 580 579 464
f 580 152 579
f 579 124 464
f 61 230 409
f 230 410 409
f 230 61 229
f 230 229 228
f 76 285 286
f 353 352 276
f 74 353 276
f 288 76 286
f 288 286 283
f 289 288 287
f 203 54 201
f 287 288 77
f 77 288 283
f 286 48 283
f 531 423 113
f 276 11 259
f 11 261 259
f 277 276 259
f 616 158 615
f 516 616 615
f 138 516 615
f 138 615 612
f 509 533 532
f 503 502 504
f 635 79 294
f 635 294 404
f 635 637 79
f 637 635 638
f 638 635 108
f 635 404 108
f 226 61 405
f 61 226 227
f 405 61 409
f 227 226 207
f 48 178 179
f 48 286 178
f 173 48 179
f 534 143 533
f 534 535 143
f 531 534 533
f 533 143 532
f 137 531 533
f 261 372 371
f 13 180 178
f 285 13 178
f 180 13 166
f 13 168 166
f 346 345 284
f 331 327 46
f 46 327 172
f 172 327 326
f 382 620 101
f 442 121 448
f 443 121 442
f 2 226 404
f 294 2 404
f 404 226 405
f 207 226 2
f 550 551 145
f 552 146 551
f 143 550 532
f 552 550 143
f 330 329 328
f 24 636 629
f 94 352 353
f 352 11 276
f 113 428 534
f 428 535 534
f 509 41 511
f 535 552 143
f 550 552 551
f 550 542 532
f 369 95 368
f 326 327 87
f 87 327 329
f 327 331 329
f 581 326 87
f 293 79 298
f 79 297 298
f 296 298 78
f 79 293 294
f 296 293 298
f 598 490 38
f 358 280 22
f 280 279 278
f 357 358 95
f 74 357 353
f 330 328 25
f 567 23 559
f 590 598 38
f 590 604 598
f 598 604 155
f 604 590 154
f 590 591 154
f 604 154 606
f 297 299 298
f 299 318 78
f 298 299 78
f 355 354 356
f 629 636 642
f 312 24 629
f 629 642 160
f 370 362 97
f 362 363 97
f 363 366 97
f 364 363 362
f 362 370 351
f 96 363 364
f 297 636 24
f 162 637 638
f 637 297 79
f 490 488 38
f 598 597 490
f 441 442 119
f 443 442 441
f 443 441 5
f 442 448 445
f 296 78 295
f 326 12 172
f 575 574 364
f 47 175 176
f 175 177 176
f 47 176 179
