# FEM surface export ¡ª frame 413
# Vertices: 642  Faces: 1280
v -0.51963085 1.13374639 -0.00266770
v 0.52035958 1.13284206 -0.00039294
v -0.53550720 0.01627321 -0.03950753
v 0.55005842 0.12401676 0.00455284
v 0.00507189 0.00000000 0.96706438
v 0.00003030 0.86379993 0.86683166
v -0.00489729 0.00111559 -0.98160470
v -0.00091871 0.86369175 -0.86606878
v 0.90630752 0.39877117 -0.56143367
v 0.90762794 0.39335796 0.55922306
v -0.90227175 0.39243481 -0.55863965
v -0.90408611 0.39840209 0.56112683
v -0.82657528 0.84076762 0.31482515
v -0.51812130 0.67593443 0.83978575
v -0.30720574 1.10011852 0.49496245
v 0.30727631 1.10076237 0.49670184
v 0.00057977 1.24974155 -0.00108012
v 0.30645981 1.10185421 -0.49579152
v -0.30733430 1.10059750 -0.49731094
v -0.51970768 0.67058468 -0.83844322
v -0.82669336 0.83900625 -0.31640750
v -1.06571758 0.39572126 0.00413377
v 0.52128565 0.67280626 0.84113503
v 0.82656831 0.84165782 0.31589869
v -0.54342377 0.12732559 0.88203251
v 0.00292775 0.39669520 1.06649804
v -0.93649107 0.00000000 -0.34751943
v -0.92614424 0.00017040 0.35614821
v -0.00115241 0.39789841 -1.06263542
v -0.54785156 0.13239522 -0.87882394
v 0.82730800 0.84048861 -0.31623080
v 0.51827067 0.67409360 -0.84084922
v 0.92254931 0.00000000 0.34143984
v 0.54987425 0.12239856 0.87730908
v 0.33702379 0.00168732 0.57977504
v -0.35326898 0.00488199 0.55602914
v 0.01255830 0.04687816 0.03083317
v -0.33686936 0.00816835 -0.50550610
v 0.33768824 0.00000000 -0.48250875
v 0.55320573 0.13369189 -0.89049739
v 0.92786878 0.00133553 -0.35344645
v 1.06769288 0.39919794 -0.00164066
v -0.69563317 1.01261759 0.15897150
v -0.58968192 1.00156236 0.42501518
v -0.42885116 1.14313054 0.25448850
v -0.73683816 0.54500288 0.72982460
v -0.70748395 0.77831757 0.60232872
v -0.89920735 0.63164777 0.45120898
v -0.16071996 1.00449789 0.70368069
v -0.43133578 0.91713554 0.69513768
v -0.26663741 0.78485584 0.88591939
v -0.15826769 1.21194065 0.25635818
v -0.26635262 1.22121549 -0.00097417
v 0.16027834 1.00437593 0.70414412
v 0.00003179 1.13306928 0.51930058
v 0.26703396 1.22022021 -0.00043711
v 0.16020752 1.21379387 0.25695527
v 0.42951930 1.14307177 0.25592220
v -0.15846051 1.21225035 -0.25879094
v -0.42760935 1.14331460 -0.25837371
v 0.42922327 1.14393401 -0.25648016
v 0.15895684 1.21330774 -0.25829154
v -0.16189940 1.00456071 -0.70365012
v 0.00136728 1.13386118 -0.51977593
v 0.16012566 1.00569391 -0.70421344
v -0.59067243 0.99907291 -0.42768261
v -0.69531453 1.01128221 -0.16302809
v -0.26772857 0.78162467 -0.88400316
v -0.43113264 0.91540009 -0.69738358
v -0.89916414 0.62865657 -0.45233315
v -0.70682746 0.77379054 -0.60262728
v -0.73773158 0.53929728 -0.72817612
v -0.86646652 0.86196136 -0.00159464
v -1.02294314 0.39600199 -0.28917560
v -0.99352151 0.63103676 -0.17059685
v -0.98950052 0.63291949 0.16708580
v -1.02381480 0.39541557 0.29252425
v 0.59047681 0.99953789 0.42700046
v 0.69503129 1.01254153 0.16043819
v 0.26844901 0.78279608 0.88682061
v 0.43142605 0.91487557 0.69670677
v 0.90028870 0.62947196 0.45317158
v 0.70968223 0.77654755 0.60499799
v 0.74099612 0.54296845 0.72850561
v -0.27482650 0.54469013 1.00000536
v 0.00070533 0.64237082 1.00362575
v -0.75266337 0.25541160 0.74691081
v -0.55773133 0.39929706 0.90613323
v 0.00177422 0.15913519 1.04453599
v -0.28140813 0.25659007 1.02417314
v -0.28757629 0.03471258 0.96227908
v -1.02080894 0.15691951 0.17825934
v -0.93029755 0.16591372 0.47236952
v -0.92953920 0.16244307 -0.46431303
v -1.02520883 0.16737925 -0.17363667
v -0.79333401 0.00294184 0.16583869
v -0.98579347 0.00000000 -0.00843760
v -0.78335851 0.01841033 -0.19582905
v -0.55758995 0.39814910 -0.90286595
v -0.75108206 0.25260764 -0.74172622
v -0.00030171 0.64161986 -1.00022113
v -0.27506748 0.54067874 -0.99906266
v -0.28954172 0.03834913 -0.96126306
v -0.28658003 0.25509623 -1.02286446
v 0.00061125 0.16789195 -1.05038202
v 0.43056837 0.91672438 -0.69735003
v 0.26675150 0.78368467 -0.88614023
v 0.69547552 1.01212502 -0.16196920
v 0.59001327 0.99983674 -0.42602396
v 0.73606873 0.54189157 -0.72977585
v 0.70810461 0.77534020 -0.60570174
v 0.90154612 0.62930638 -0.45313391
v 0.78205764 0.05308990 0.18230659
v 0.68135482 0.00000000 0.48192936
v 0.47681436 0.03969397 0.28808615
v 0.75968760 0.24975111 0.74486470
v 0.76205027 0.02023281 0.64445066
v 0.93739134 0.16254704 0.46539065
v 0.17703442 0.00000000 0.82416344
v 0.50254869 0.00000000 0.80777681
v 0.28628519 0.02954899 0.95413011
v 0.15656342 0.04883411 0.27980113
v 0.27627757 0.02119613 0.01490021
v -0.19758914 0.00000000 0.83103520
v -0.02626207 0.00894503 0.58021176
v -0.25891551 0.03625130 0.01845036
v -0.17974004 0.07585583 0.27719188
v -0.47492972 0.00000000 0.25056782
v 0.15445241 0.02885682 -0.23874086
v 0.48562393 0.01282018 -0.24195895
v -0.42747265 0.02313571 -0.26368073
v -0.13887385 0.01728141 -0.20732544
v 0.21099350 0.00000000 -0.79101920
v 0.00521790 0.00000000 -0.51308256
v -0.16789860 0.00000000 -0.78630096
v 0.68023872 0.00618610 -0.47027701
v 0.78190446 0.04968373 -0.17519048
v 0.28864288 0.04473514 -0.97295088
v 0.49816793 0.00000000 -0.80965585
v 0.93760115 0.17315982 -0.47026840
v 0.77557939 0.04032268 -0.66439223
v 0.75800687 0.25464362 -0.74606216
v 0.99495161 0.00000000 -0.00790084
v 1.02462471 0.39830694 -0.29048681
v 1.02859461 0.16544512 -0.17555563
v 1.02897084 0.16485129 0.17210577
v 1.02580869 0.39757219 0.29041573
v 0.28571811 0.24979992 1.01995361
v 0.56169659 0.39905721 0.90643013
v 0.27791640 0.54230690 0.99908298
v -0.69175243 0.00000000 0.49335301
v -0.49700528 0.00000000 0.80485225
v -0.77409035 0.05707177 0.65305948
v -0.47906467 0.00000000 -0.81534821
v -0.66730988 0.01901081 -0.48293871
v -0.77367735 0.05205821 -0.65197760
v 0.55861616 0.39781383 -0.90426445
v 0.28453404 0.25847545 -1.02424371
v 0.27455598 0.54239595 -0.99781978
v 0.99254328 0.63278198 0.16916786
v 0.99279112 0.63434041 -0.16842695
v 0.86709917 0.86364251 0.00007095
v -0.61187470 1.08039165 0.07893497
v -0.56704795 1.08720291 0.20991503
v -0.47759247 1.14471543 0.12767911
v -0.71608287 0.92885524 0.37326753
v -0.64810336 1.01323044 0.29443610
v -0.76781785 0.93238157 0.23718183
v -0.37123412 1.12839174 0.37779605
v -0.51293594 1.07911193 0.34301654
v -0.45243156 1.05826592 0.46521932
v -0.82802981 0.47277260 0.65195435
v -0.82912129 0.59109652 0.59742308
v -0.91098791 0.51763648 0.51084882
v -0.62140101 0.73143303 0.72935307
v -0.73069501 0.66497594 0.67139828
v -0.63396931 0.61308295 0.79252583
v -0.86982971 0.74011207 0.38558373
v -0.81028742 0.70822948 0.53149521
v -0.77582699 0.81636399 0.46330994
v -0.08155552 0.93944389 0.79124874
v -0.21567945 0.90147895 0.80367362
v -0.13395141 0.82768750 0.88468426
v -0.37171653 1.01635897 0.60124767
v -0.29794568 0.96641994 0.70677692
v -0.23612307 1.05822062 0.60409927
v -0.39606276 0.73539668 0.87142086
v -0.35365039 0.85601664 0.79782230
v -0.48093444 0.80351061 0.77528197
v -0.65622562 0.89842683 0.51920748
v -0.57661259 0.85445672 0.65724272
v -0.51664948 0.96704632 0.56691313
v -0.35157794 1.19135833 0.12762840
v -0.39567494 1.18352342 -0.00140199
v -0.23485248 1.16621244 0.37937257
v -0.29646352 1.18468726 0.25792700
v -0.13425064 1.24579716 -0.00135064
v -0.21399353 1.22390532 0.12885430
v -0.07949691 1.24152172 0.12904918
v 0.08211828 0.93900031 0.79096454
v -0.00031614 1.01211715 0.71147454
v 0.15429865 1.12406778 0.51298648
v 0.08007657 1.07574511 0.61573231
v 0.23613949 1.05741704 0.60488158
v -0.07983342 1.07528150 0.61611563
v -0.15480071 1.12574530 0.51335353
v 0.39763612 1.18321049 0.00008305
v 0.35237235 1.19058132 0.12963817
v 0.47907251 1.14497674 0.12828410
v 0.08097227 1.24041855 0.12929752
v 0.21601018 1.22466898 0.13037927
v 0.13522942 1.24508786 -0.00046865
v 0.37302247 1.12823904 0.37925079
v 0.29612970 1.18560743 0.25945669
v 0.23549040 1.16512609 0.37979931
v -0.08164471 1.18403065 0.39288777
v 0.07999270 1.18356001 0.39117908
v -0.00043612 1.22319591 0.25893381
v -0.35055190 1.19106197 -0.13121587
v -0.47732586 1.14465678 -0.13112861
v -0.07956398 1.24166727 -0.13069561
v -0.21437155 1.22592497 -0.13119231
v -0.37107539 1.12737513 -0.38060743
v -0.29486808 1.18518531 -0.26076910
v -0.23435123 1.16579628 -0.38140339
v 0.47932991 1.14561927 -0.12926933
v 0.35246763 1.19270051 -0.12971559
v 0.23556483 1.16720569 -0.38038096
v 0.29603732 1.18610632 -0.25926098
v 0.37124106 1.12871778 -0.37904689
v 0.21499532 1.22538614 -0.13027740
v 0.08041038 1.24223113 -0.13074924
v -0.08241827 0.93954498 -0.79143625
v -0.00009076 1.01303589 -0.71299541
v 0.08150806 0.93930012 -0.79201722
v -0.15418604 1.12500131 -0.51407248
v -0.08076370 1.07652104 -0.61754757
v -0.23656626 1.05858207 -0.60461283
v 0.23642945 1.05963385 -0.60508233
v 0.08064498 1.07727611 -0.61737448
v 0.15470885 1.12614357 -0.51368821
v 0.00039830 1.22263050 -0.26066241
v 0.08182915 1.18383265 -0.39192012
v -0.07979620 1.18357551 -0.39286771
v -0.56691307 1.08679700 -0.21433246
v -0.61249393 1.07950318 -0.08308697
v -0.45285380 1.05698395 -0.46827900
v -0.51272219 1.07895577 -0.34647164
v -0.76746458 0.93096644 -0.24129064
v -0.64901710 1.01255524 -0.29810280
v -0.71598625 0.92672968 -0.37670994
v -0.13512547 0.82664949 -0.88297254
v -0.21602127 0.90071267 -0.80366951
v -0.48013186 0.79874498 -0.77649605
v -0.35352451 0.85335016 -0.79845464
v -0.39690679 0.72970688 -0.86930776
v -0.29818177 0.96487594 -0.70830607
v -0.37246087 1.01582265 -0.60386986
v -0.90882206 0.51199138 -0.51063472
v -0.82856762 0.58578175 -0.59659529
v -0.82702243 0.46616700 -0.65009457
v -0.77572387 0.81104290 -0.46438596
v -0.80987239 0.70447785 -0.53242189
v -0.87124836 0.73727626 -0.38690260
v -0.63403475 0.60668266 -0.79005855
v -0.72995591 0.66048247 -0.67051101
v -0.62133211 0.72774917 -0.72889066
v -0.51727891 0.96361494 -0.56895089
v -0.57576692 0.84997118 -0.65985829
v -0.65640026 0.89403719 -0.52103919
v -0.70429331 1.01991975 -0.00168781
v -0.85660344 0.85598600 -0.16139349
v -0.78816491 0.94245946 -0.08380412
v -0.78826171 0.94328856 0.07987718
v -0.85549903 0.85686922 0.15803497
v -0.97199929 0.39484787 -0.42861208
v -0.97194576 0.51249164 -0.37813482
v -1.03788567 0.51404059 -0.08683281
v -1.01696002 0.51529425 -0.23188944
v -1.05309451 0.39644402 -0.14437480
v -0.95563358 0.63119596 -0.31473419
v -0.91978359 0.73905998 -0.24718009
v -0.97330260 0.51518524 0.37667170
v -0.97212470 0.39608511 0.43000987
v -0.91854566 0.74176133 0.24463028
v -0.95408773 0.63661587 0.31269529
v -1.05458379 0.39840198 0.14897557
v -1.01716673 0.51941383 0.23191327
v -1.04228902 0.51761431 0.08569416
v -0.94117397 0.75238973 -0.08652622
v -1.00514877 0.63494921 -0.00084075
v -0.94142514 0.75344795 0.08281410
v 0.56760120 1.08787799 0.21104430
v 0.61232620 1.07867515 0.07967571
v 0.45318270 1.05711186 0.46767557
v 0.51446301 1.07902467 0.34408978
v 0.76786411 0.93287349 0.23978747
v 0.64940858 1.01345325 0.29600662
v 0.71627742 0.92817986 0.37607315
v 0.13487202 0.82783675 0.88574249
v 0.21697547 0.90087986 0.80412984
v 0.48247528 0.80212975 0.77881497
v 0.35366756 0.85321373 0.79839778
v 0.39826310 0.73105347 0.87242258
v 0.29724154 0.96448630 0.70777375
v 0.37263337 1.01506710 0.60277390
v 0.91003621 0.51194268 0.51153284
v 0.83055085 0.58827609 0.59733623
v 0.82883132 0.46759191 0.64873171
v 0.77743125 0.81416070 0.46525106
v 0.81194729 0.70693630 0.53432411
v 0.87193078 0.74097341 0.38739568
v 0.63615495 0.60918391 0.79458010
v 0.73156172 0.66171068 0.67387891
v 0.62385058 0.72881728 0.73189700
v 0.51906413 0.96452588 0.56949747
v 0.57696509 0.85163850 0.65923619
v 0.65767503 0.89645559 0.52180803
v -0.13523245 0.71707016 0.95567924
v 0.00076584 0.75677639 0.94300687
v -0.40225965 0.61281013 0.92994094
v -0.27395198 0.66763502 0.95125133
v 0.00137608 0.52053767 1.04461503
v -0.13844824 0.59451038 1.01084125
v -0.14052700 0.47079173 1.04820669
v -0.83750653 0.32410517 0.66070604
v -0.75497305 0.39974639 0.74877411
v -0.55496091 0.25969270 0.90326518
v -0.66128850 0.32703424 0.83494985
v -0.65269393 0.18975864 0.82005972
v -0.65390831 0.47366372 0.82702845
v -0.54398763 0.54170728 0.88385284
v 0.00029328 0.05819375 1.01063406
v -0.14434707 0.09882340 1.01168442
v -0.14114769 0.00879926 0.98077303
v -0.13968796 0.32624036 1.05967617
v -0.14185642 0.20953058 1.04714739
v 0.00215249 0.27387393 1.06711531
v -0.42091116 0.07538871 0.92726660
v -0.28736755 0.13912040 0.99882352
v -0.41466993 0.18484025 0.96450579
v -0.41987720 0.47168806 0.96456981
v -0.42677727 0.32303625 0.97744161
v -0.28240910 0.39858994 1.02607810
v -0.99527019 0.27713972 0.38922387
v -0.92488360 0.28034651 0.52132159
v -1.05813253 0.27407882 0.09380055
v -1.03633618 0.27354327 0.23919980
v -0.92692703 0.06442666 0.42137092
v -0.98669153 0.15836884 0.32979736
v -0.97733551 0.05773026 0.26529619
v -0.92446679 0.27478692 -0.51783097
v -0.98898542 0.27578074 -0.38230556
v -0.97637802 0.06385364 -0.25809461
v -0.98930687 0.15947762 -0.32353774
v -0.92115498 0.06077899 -0.40409049
v -1.03568792 0.27591440 -0.23509756
v -1.06086040 0.27672511 -0.08326150
v -0.67805070 0.00000000 0.05542921
v -0.78326184 0.00000000 -0.03369420
v -0.64483756 0.00278911 -0.13492252
v -0.97776997 0.00000000 0.17732643
v -0.89904094 0.00000000 0.07873525
v -0.87940180 0.00000000 0.26023853
v -0.87446249 0.00000000 -0.27568606
v -0.91228116 0.00000000 -0.11440607
v -0.98023504 0.00000000 -0.18629386
v -1.03767979 0.15657376 0.00190334
v -1.01335394 0.05702687 -0.09114686
v -1.00618613 0.04888416 0.09253995
v -0.75431049 0.39426669 -0.74646044
v -0.83514440 0.31860277 -0.65550196
v -0.54407841 0.53667212 -0.88149625
v -0.65472132 0.46669003 -0.82376081
v -0.65735978 0.18938720 -0.81749791
v -0.66002911 0.32027689 -0.83078438
v -0.55816609 0.25851798 -0.90238655
v -0.00036898 0.75639790 -0.94081235
v -0.13631833 0.71689892 -0.95406824
v -0.13934173 0.47206274 -1.04460311
v -0.13801046 0.59440696 -1.00814247
v 0.00036539 0.52206022 -1.04237854
v -0.27303138 0.66432148 -0.94914675
v -0.40125850 0.60884219 -0.92869377
v -0.15009691 0.00093310 -0.98421001
v -0.14346914 0.09319767 -1.02037954
v -0.00194905 0.06290077 -1.02450252
v -0.42103851 0.18631341 -0.96845084
v -0.28900144 0.13818209 -1.00283539
v -0.42683020 0.07968184 -0.93244880
v -0.00015913 0.27803543 -1.06678808
v -0.14429797 0.20730899 -1.04643738
v -0.14464863 0.32617578 -1.05656922
v -0.42079824 0.46862942 -0.96301991
v -0.28364882 0.39777169 -1.02579081
v -0.42672700 0.32132205 -0.97330189
v 0.21612369 0.90125138 -0.80321962
v 0.13362843 0.82796508 -0.88463515
v 0.37218541 1.01741362 -0.60277361
v 0.29752693 0.96761513 -0.70756602
v 0.39638278 0.73330748 -0.87052298
v 0.35327840 0.85587633 -0.79794663
v 0.48139116 0.80067492 -0.77534926
v 0.61281717 1.07943094 -0.08117241
v 0.56824601 1.08774960 -0.21163112
v 0.71588898 0.92721868 -0.37526199
v 0.64909214 1.01298213 -0.29672608
v 0.76773953 0.93101579 -0.23981008
v 0.51429701 1.07966149 -0.34427521
v 0.45291793 1.05900216 -0.46827662
v 0.82873636 0.47007269 -0.65375507
v 0.83070964 0.58874905 -0.59880614
v 0.91288143 0.51542729 -0.51179808
v 0.62115604 0.72781676 -0.73020148
v 0.72951657 0.66098213 -0.67276591
v 0.63280278 0.60953319 -0.79254502
v 0.87087214 0.73856264 -0.38753793
v 0.81231648 0.70783526 -0.53531182
v 0.77554679 0.81426632 -0.46584621
v 0.51746154 0.96506178 -0.56860042
v 0.65671879 0.89449751 -0.52079815
v 0.57559252 0.85166371 -0.65886253
v 0.65761584 0.09801077 0.11060891
v 0.61943763 0.07496370 0.24189553
v 0.52007139 0.09006602 0.15548021
v 0.82975072 0.00000000 0.43989810
v 0.74365944 0.01032365 0.32784715
v 0.87485135 0.00186565 0.27504233
v 0.41813871 0.00000000 0.43765402
v 0.58507472 0.00707533 0.39129850
v 0.52026337 0.00364850 0.54480416
v 0.84146678 0.32141724 0.65856862
v 0.85931468 0.20139386 0.61360633
v 0.92992932 0.27550343 0.51795709
v 0.66481125 0.06891817 0.77566332
v 0.76406783 0.13107449 0.69817603
v 0.65876031 0.18500005 0.81713724
v 0.93310654 0.06630409 0.41496161
v 0.85835034 0.08915246 0.55791008
v 0.84937066 0.00183270 0.49962875
v 0.10143087 0.00203217 0.93275797
v 0.25244501 0.00000000 0.93269962
v 0.14942582 0.00000000 0.97912705
v 0.43399209 0.02038585 0.70166349
v 0.34838608 0.00000017 0.82819694
v 0.25497767 0.00063251 0.70793688
v 0.42269409 0.07839958 0.92766285
v 0.40297288 0.00000000 0.90037519
v 0.52813941 0.01078500 0.85806167
v 0.75812507 0.00000000 0.59849781
v 0.65125126 0.00000000 0.74703431
v 0.60463005 0.00000000 0.64988983
v 0.37905568 0.00000000 0.14511007
v 0.42285985 0.03892683 0.01886317
v 0.25469598 0.00003230 0.43384713
v 0.32213253 0.02876705 0.28884742
v 0.14731085 0.03926320 0.02549571
v 0.20882398 0.02388125 0.16052081
v 0.08254231 0.04736182 0.15755764
v -0.09337584 0.00000000 0.93037760
v -0.01951037 0.00004050 0.83205509
v -0.19393526 0.07120625 0.55151558
v -0.13385883 0.01403952 0.68631136
v -0.29277161 0.03230199 0.69312608
v 0.06842459 0.00395730 0.71503627
v 0.14878915 0.00113354 0.57792145
v -0.40060622 0.02175838 0.00450081
v -0.36791912 0.09783714 0.11580797
v -0.51485586 0.03914012 0.10678269
v -0.09367011 0.05984473 0.14077811
v -0.21768038 0.16410300 0.14165862
v -0.13590360 0.04048306 0.03605105
v -0.42539486 0.01989151 0.39967221
v -0.30565736 0.03459309 0.23835617
v -0.28870028 0.05616097 0.40012714
v 0.06832210 0.07352746 0.43084082
v -0.12074643 0.08982609 0.43487215
v -0.02798231 0.00392999 0.29086673
v 0.36480513 0.02286802 -0.09826294
v 0.50387990 0.05375434 -0.13709065
v 0.08851685 0.03841478 -0.11464372
v 0.20819125 0.02422511 -0.10384066
v 0.41105929 0.02898168 -0.35104382
v 0.32014114 0.01500318 -0.23861395
v 0.22699863 0.00660231 -0.32958099
v -0.48267281 0.01870937 -0.14987779
v -0.35212076 0.00002636 -0.11731439
v -0.22698615 0.02000485 -0.36278212
v -0.28424239 0.00321028 -0.23720090
v -0.37667239 0.02921515 -0.39644465
v -0.22134908 0.02997088 -0.11695047
v -0.08881967 0.03780404 -0.10917047
v 0.10249118 0.00409683 -0.89953136
v 0.02174239 0.00000000 -0.80125284
v -0.09494559 0.00213410 -0.89920670
v 0.18133381 0.00000000 -0.50721234
v 0.10722174 0.00000000 -0.65349489
v 0.27895251 0.00046605 -0.64875269
v -0.26143438 0.00000000 -0.65384609
v -0.06644976 0.00270320 -0.67188841
v -0.15195774 0.02358625 -0.54443568
v -0.00436325 0.06484517 -0.24336891
v -0.08536212 0.00252099 -0.37186074
v 0.10147265 0.03232857 -0.37957999
v 0.63157624 0.11108185 -0.21821342
v 0.67027473 0.04867758 -0.07250723
v 0.52107209 0.00146356 -0.47794625
v 0.56701130 0.08649813 -0.36144206
v 0.87685990 0.00025992 -0.28191876
v 0.73196936 0.03010020 -0.32671994
v 0.82707179 0.00051631 -0.44605726
v 0.14580674 0.01050505 -0.98808819
v 0.25486517 0.00046706 -0.90668386
v 0.53423417 0.03833225 -0.86375189
v 0.40146440 0.00219084 -0.90612441
v 0.42524546 0.08323891 -0.93823779
v 0.36557394 0.04002414 -0.80150634
v 0.43472335 0.00138425 -0.65106648
v 0.93088609 0.28274092 -0.52051705
v 0.86073345 0.20769003 -0.61863548
v 0.84201241 0.32397670 -0.65960288
v 0.87196738 0.01455699 -0.51533997
v 0.85857409 0.09864267 -0.56781983
v 0.93827271 0.08104940 -0.40896392
v 0.66049635 0.19132529 -0.82204622
v 0.77009851 0.13545275 -0.70681477
v 0.67337924 0.08908442 -0.78575814
v 0.59582448 0.00000000 -0.64098501
v 0.65314078 0.00000000 -0.75853956
v 0.74210036 0.00000000 -0.60824043
v 0.79139042 0.07679457 0.01964707
v 0.97352165 0.00000000 -0.19500862
v 0.90028071 0.00413020 -0.09892303
v 0.91693854 0.01174680 0.08280606
v 0.95978463 0.00000000 0.16697559
v 0.97491521 0.39999458 -0.42955482
v 0.99264300 0.28461373 -0.38301119
v 1.06378472 0.27653247 -0.08806106
v 1.03925180 0.28186128 -0.23474473
v 1.05650401 0.39757118 -0.14725807
v 0.99215764 0.17086276 -0.32412747
v 0.98977059 0.08012418 -0.26189685
v 0.99579704 0.27583417 0.38228390
v 0.97704500 0.39550272 0.42860657
v 0.99239492 0.07025026 0.26295263
v 0.99260086 0.15961038 0.32214358
v 1.05638254 0.39652789 0.14640167
v 1.03967512 0.27680299 0.23348601
v 1.06133246 0.27851146 0.08500484
v 1.01038265 0.05534030 -0.09488621
v 1.04140663 0.15907720 -0.00136122
v 1.01493382 0.05720461 0.08967140
v 0.14438732 0.08578181 1.00981760
v 0.42099482 0.18475632 0.95905894
v 0.28902444 0.13018261 0.99432945
v 0.14488512 0.20289119 1.04096997
v 0.14573018 0.32321769 1.06131494
v 0.75719398 0.39734876 0.74632955
v 0.54884708 0.53722966 0.88815355
v 0.65824503 0.47256571 0.82533848
v 0.66556883 0.32381848 0.83218086
v 0.56009948 0.25713024 0.89815331
v 0.13742143 0.71609962 0.95602995
v 0.14423315 0.46939477 1.04798138
v 0.14031512 0.59318787 1.01050723
v 0.27579108 0.66678387 0.95247316
v 0.40429115 0.60991949 0.93090957
v 0.43079999 0.32007420 0.97608471
v 0.42509988 0.46802360 0.96855921
v 0.28711545 0.39529961 1.02959728
v -0.63892800 0.00250260 0.21084176
v -0.51933801 0.00052314 0.52700663
v -0.59351659 0.00250403 0.37281820
v -0.75002754 0.03310457 0.32870477
v -0.82142872 0.00030418 0.42935586
v -0.25160944 0.00000000 0.93443817
v -0.52089190 0.00210236 0.84502679
v -0.39429456 0.00000000 0.90190816
v -0.35234091 0.00000000 0.83200717
v -0.44698274 0.00002621 0.70447558
v -0.85165203 0.20808038 0.61588097
v -0.85486466 0.00143789 0.50937730
v -0.85323834 0.09490719 0.56417984
v -0.75940579 0.14206585 0.70466208
v -0.65984231 0.07414309 0.78333020
v -0.60684794 0.00000000 0.66523182
v -0.65555334 0.00000000 0.73824179
v -0.76147938 0.00000000 0.60228205
v -0.25431734 0.00000000 -0.92741042
v -0.41652694 0.00952764 -0.65761650
v -0.33372146 0.00000000 -0.81550974
v -0.39365506 0.00000000 -0.90375125
v -0.52638698 0.01602432 -0.84829819
v -0.61071944 0.10939332 -0.23687033
v -0.82672787 0.00000000 -0.43461472
v -0.72043335 0.00959409 -0.33442062
v -0.53822941 0.03478657 -0.36874890
v -0.49938551 0.10080227 -0.51119512
v -0.85275006 0.20257349 -0.61057556
v -0.66969347 0.07999749 -0.77687025
v -0.76439351 0.13644145 -0.69958848
v -0.86093032 0.09623163 -0.56305325
v -0.85499120 0.00659850 -0.50672007
v -0.57320309 0.00043013 -0.64147979
v -0.74504066 0.00000000 -0.60389185
v -0.64432067 0.00000000 -0.73461533
v 0.75652969 0.39586321 -0.74798423
v 0.56105316 0.25863281 -0.90348107
v 0.66351211 0.32638529 -0.83367950
v 0.65566003 0.46858355 -0.82593662
v 0.54657221 0.53784478 -0.88284600
v 0.14508170 0.10124969 -1.03048921
v 0.14270942 0.32648411 -1.05582964
v 0.14452004 0.21152732 -1.05277479
v 0.29048905 0.14342405 -1.01060617
v 0.42246243 0.19192106 -0.96762431
v 0.13615689 0.71735072 -0.95345944
v 0.40277466 0.61049455 -0.93036050
v 0.27431306 0.66701579 -0.95036513
v 0.13807094 0.59409595 -1.00731146
v 0.13973965 0.46975103 -1.04316401
v 0.42835701 0.32537645 -0.97543311
v 0.28311780 0.39929461 -1.02471769
v 0.42182511 0.47167122 -0.96452767
v 0.97604764 0.51405221 0.37994000
v 1.04451454 0.51394200 0.08837630
v 1.02305460 0.51823610 0.23326263
v 0.95624322 0.63418734 0.31529239
v 0.92112988 0.74252260 0.24583325
v 0.97495395 0.51859123 -0.37747195
v 0.91941375 0.74286270 -0.24707296
v 0.95631248 0.63374561 -0.31321183
v 1.02019954 0.51936376 -0.23185223
v 1.04131019 0.51872373 -0.08637270
v 0.70439738 1.01962149 -0.00119992
v 0.85731965 0.85950476 0.15940347
v 0.78833729 0.94516498 0.08188401
v 0.78875822 0.94306111 -0.08260205
v 0.85743451 0.85613286 -0.15871879
v 1.00492322 0.63404465 0.00250568
v 0.94312429 0.75313729 -0.08460651
v 0.94317001 0.75541359 0.08510188
f 330 87 329
f 336 325 26
f 207 208 56
f 464 36 580
f 502 129 504
f 157 624 622
f 308 311 82
f 247 223 248
f 507 483 508
f 331 88 329
f 494 500 497
f 156 601 602
f 591 589 592
f 365 98 596
f 75 281 282
f 152 587 577
f 149 559 560
f 555 121 553
f 530 141 529
f 515 517 139
f 361 594 98
f 250 67 249
f 157 608 609
f 294 293 209
f 317 81 316
f 557 338 26
f 303 305 81
f 530 529 528
f 101 381 382
f 415 418 111
f 192 184 50
f 412 110 411
f 20 384 256
f 131 594 486
f 281 264 282
f 347 287 348
f 28 349 582
f 165 163 1
f 248 250 66
f 617 107 398
f 273 271 274
f 456 115 453
f 558 561 560
f 335 576 91
f 331 177 332
f 116 433 436
f 351 370 92
f 136 511 530
f 239 240 65
f 247 258 19
f 304 23 567
f 148 557 570
f 214 208 58
f 440 426 450
f 268 270 269
f 258 247 268
f 204 202 16
f 466 125 465
f 517 513 133
f 168 275 274
f 275 73 274
f 198 193 53
f 309 308 307
f 510 511 136
f 415 416 110
f 131 490 597
f 473 475 474
f 414 415 111
f 493 495 494
f 496 504 485
f 433 116 432
f 600 375 601
f 240 234 65
f 418 415 412
f 486 361 3
f 567 566 304
f 380 393 29
f 17 199 197
f 491 492 132
f 451 449 435
f 218 217 216
f 623 621 613
f 396 104 395
f 433 439 436
f 628 160 627
f 215 202 217
f 209 207 2
f 427 113 424
f 434 10 544
f 434 433 432
f 199 17 210
f 150 564 565
f 489 491 132
f 275 13 285
f 497 500 134
f 125 466 476
f 578 152 577
f 208 214 211
f 328 88 343
f 356 27 603
f 150 566 567
f 372 100 371
f 190 191 47
f 235 8 398
f 260 261 72
f 422 403 414
f 422 414 111
f 453 454 123
f 349 583 582
f 521 520 519
f 425 453 115
f 616 622 158
f 483 130 508
f 151 586 572
f 212 17 232
f 400 397 402
f 377 396 99
f 41 522 511
f 510 508 505
f 549 547 42
f 475 473 36
f 510 137 509
f 222 221 197
f 430 115 429
f 220 194 1
f 305 54 204
f 621 29 613
f 192 171 184
f 460 335 5
f 88 331 332
f 74 277 279
f 300 301 80
f 390 389 388
f 165 45 164
f 146 549 551
f 291 278 75
f 448 120 445
f 147 543 544
f 607 610 609
f 603 602 356
f 139 529 514
f 333 553 443
f 92 368 347
f 261 260 259
f 300 6 200
f 46 177 331
f 284 283 174
f 301 300 200
f 471 468 474
f 54 305 301
f 302 304 303
f 569 150 567
f 150 569 570
f 294 209 2
f 628 629 160
f 548 543 147
f 147 625 627
f 63 233 234
f 426 427 114
f 41 509 532
f 198 52 196
f 614 105 612
f 147 627 547
f 81 305 306
f 549 548 547
f 54 301 200
f 342 88 332
f 264 281 70
f 193 194 53
f 455 429 456
f 187 321 14
f 479 130 484
f 147 544 625
f 458 456 453
f 304 80 303
f 314 84 313
f 488 503 501
f 321 332 14
f 423 425 424
f 305 204 306
f 341 339 25
f 514 40 516
f 625 628 627
f 340 339 341
f 105 614 391
f 243 228 62
f 318 316 78
f 75 278 279
f 357 355 353
f 238 257 63
f 466 455 476
f 425 423 4
f 448 449 120
f 408 638 108
f 292 275 285
f 22 278 289
f 515 513 517
f 501 503 134
f 622 623 158
f 134 503 504
f 195 216 206
f 163 271 246
f 619 617 620
f 62 228 229
f 163 165 164
f 453 425 454
f 489 132 488
f 82 628 625
f 58 208 209
f 525 608 40
f 626 547 627
f 518 517 498
f 489 487 491
f 557 26 564
f 325 336 344
f 541 145 539
f 40 616 516
f 338 556 89
f 250 248 245
f 139 514 515
f 98 594 596
f 246 220 1
f 112 413 630
f 9 536 413
f 156 600 601
f 332 177 14
f 321 342 332
f 156 606 600
f 584 330 585
f 302 303 81
f 584 87 330
f 330 25 585
f 400 239 65
f 439 440 117
f 95 358 368
f 597 594 131
f 594 361 486
f 246 67 245
f 561 562 149
f 28 364 362
f 55 216 217
f 427 430 114
f 267 20 254
f 556 555 553
f 84 309 558
f 311 310 312
f 609 525 142
f 256 68 255
f 124 460 461
f 82 311 312
f 307 308 82
f 589 135 495
f 527 40 514
f 112 418 412
f 20 256 254
f 258 238 19
f 267 254 269
f 273 272 249
f 392 391 393
f 137 533 509
f 122 455 456
f 9 413 411
f 130 480 505
f 333 443 5
f 527 525 40
f 589 495 385
f 39 496 485
f 223 225 224
f 414 416 415
f 219 222 53
f 145 538 539
f 413 412 411
f 469 468 467
f 183 181 6
f 191 192 50
f 429 35 431
f 292 285 76
f 413 112 412
f 415 110 412
f 43 164 167
f 467 468 126
f 617 101 620
f 450 451 117
f 438 546 545
f 619 620 159
f 17 212 210
f 124 579 576
f 584 153 583
f 460 124 576
f 3 469 467
f 311 308 314
f 6 320 183
f 389 104 388
f 251 250 249
f 194 165 1
f 291 289 278
f 287 77 348
f 238 258 257
f 139 517 518
f 238 236 19
f 223 247 19
f 382 380 29
f 39 518 498
f 361 359 3
f 69 255 257
f 139 518 528
f 33 545 535
f 387 385 7
f 69 268 269
f 477 462 125
f 454 479 123
f 121 555 447
f 451 435 117
f 454 425 4
f 233 252 8
f 124 463 464
f 69 258 268
f 168 167 166
f 583 153 582
f 384 394 102
f 138 512 513
f 57 210 211
f 254 256 255
f 607 609 142
f 324 319 86
f 289 291 76
f 291 292 76
f 384 102 383
f 422 421 420
f 221 17 197
f 383 102 381
f 376 377 99
f 99 373 374
f 386 105 392
f 438 33 440
f 90 341 343
f 281 75 279
f 574 571 96
f 628 82 312
f 221 222 59
f 127 471 474
f 595 605 603
f 551 538 145
f 334 91 340
f 322 324 85
f 305 303 301
f 18 239 399
f 306 204 16
f 199 198 197
f 166 190 180
f 303 80 301
f 267 266 265
f 626 42 547
f 16 215 213
f 349 351 350
f 295 16 213
f 68 379 252
f 250 251 66
f 627 160 626
f 383 68 256
f 343 88 342
f 507 508 136
f 202 215 16
f 197 198 53
f 254 69 269
f 603 605 156
f 418 419 111
f 384 383 256
f 455 122 476
f 203 204 54
f 556 557 148
f 255 68 253
f 313 84 560
f 25 328 341
f 254 255 69
f 603 156 602
f 581 584 583
f 630 632 112
f 163 246 1
f 246 245 220
f 432 116 558
f 499 591 590
f 320 563 86
f 345 93 350
f 306 16 295
f 346 93 345
f 562 568 149
f 604 605 155
f 154 592 593
f 545 552 535
f 511 522 530
f 574 573 571
f 566 150 565
f 361 98 360
f 67 271 273
f 234 235 65
f 208 211 56
f 574 151 573
f 251 270 66
f 398 8 378
f 213 215 214
f 438 440 439
f 315 314 313
f 263 71 262
f 20 373 384
f 496 134 504
f 329 88 328
f 81 306 316
f 555 556 148
f 592 589 103
f 617 619 107
f 227 207 56
f 571 359 96
f 446 466 465
f 206 216 55
f 359 571 469
f 568 148 570
f 34 437 435
f 28 351 349
f 21 272 282
f 113 423 424
f 490 489 488
f 379 68 383
f 210 212 211
f 80 563 300
f 351 92 350
f 326 346 12
f 83 317 318
f 555 148 554
f 212 231 56
f 218 57 217
f 271 67 246
f 195 196 52
f 270 268 66
f 390 592 103
f 148 568 554
f 495 493 7
f 592 390 593
f 357 95 355
f 574 575 151
f 452 120 451
f 154 591 592
f 587 585 577
f 395 394 396
f 93 349 350
f 610 416 611
f 166 44 190
f 315 23 302
f 315 302 317
f 268 247 66
f 606 154 593
f 396 394 99
f 211 212 56
f 370 369 368
f 235 397 65
f 280 278 22
f 83 315 317
f 575 588 151
f 74 279 280
f 385 495 7
f 63 257 253
f 397 235 398
f 214 58 213
f 220 219 194
f 546 146 545
f 236 225 19
f 599 94 602
f 235 233 8
f 102 394 395
f 611 416 32
f 225 223 19
f 139 528 529
f 231 62 229
f 419 406 421
f 451 450 452
f 49 182 185
f 402 397 107
f 52 199 218
f 416 610 110
f 225 236 244
f 107 397 398
f 68 252 253
f 322 85 321
f 182 181 183
f 118 438 439
f 546 438 118
f 348 77 345
f 543 546 118
f 231 212 232
f 610 611 157
f 33 438 545
f 385 386 103
f 479 480 130
f 169 195 15
f 93 583 349
f 15 195 206
f 190 44 192
f 247 248 66
f 146 552 545
f 248 60 245
f 570 557 564
f 274 271 43
f 63 253 233
f 272 21 249
f 507 528 518
f 67 273 249
f 487 467 126
f 196 195 169
f 624 159 623
f 134 496 497
f 132 503 488
f 104 393 395
f 556 553 89
f 355 356 94
f 258 69 257
f 229 61 227
f 56 231 227
f 460 576 335
f 463 124 461
f 394 373 99
f 29 393 391
f 67 250 245
f 193 198 196
f 462 36 464
f 144 633 630
f 141 526 527
f 517 133 498
f 536 144 630
f 100 372 599
f 144 536 537
f 22 289 287
f 578 579 152
f 579 578 576
f 189 188 187
f 60 223 224
f 92 348 350
f 555 554 447
f 396 377 388
f 194 193 165
f 413 536 630
f 372 352 599
f 377 376 375
f 348 345 350
f 105 386 387
f 240 237 234
f 463 462 464
f 135 500 494
f 45 196 169
f 512 612 387
f 245 60 220
f 429 115 456
f 223 60 248
f 288 289 76
f 525 526 142
f 100 599 601
f 613 29 391
f 526 523 520
f 341 328 343
f 631 641 639
f 264 21 282
f 266 72 265
f 106 402 403
f 73 273 274
f 186 206 205
f 381 379 383
f 52 216 195
f 410 18 399
f 290 272 73
f 72 371 374
f 526 525 527
f 115 430 424
f 498 497 496
f 621 382 29
f 543 118 434
f 214 215 57
f 522 141 530
f 511 510 509
f 352 94 599
f 493 512 7
f 90 340 341
f 169 171 170
f 605 604 606
f 219 60 224
f 104 389 392
f 359 469 3
f 186 49 185
f 222 219 224
f 166 167 44
f 428 427 426
f 523 522 524
f 129 502 481
f 50 185 188
f 164 45 170
f 425 115 424
f 33 428 426
f 427 428 113
f 94 356 602
f 515 138 513
f 114 431 452
f 237 236 238
f 215 217 57
f 95 354 355
f 220 60 219
f 515 514 516
f 183 320 319
f 222 197 53
f 559 569 567
f 300 320 6
f 435 436 117
f 96 360 363
f 640 642 641
f 242 243 62
f 140 537 519
f 508 130 505
f 420 410 399
f 537 539 144
f 317 316 318
f 426 114 450
f 186 15 206
f 311 83 310
f 625 544 307
f 544 10 307
f 168 43 167
f 185 182 188
f 369 354 95
f 44 171 192
f 605 606 156
f 548 549 146
f 100 601 375
f 149 568 569
f 381 380 382
f 455 466 35
f 480 479 454
f 543 548 546
f 493 133 513
f 492 472 37
f 477 125 476
f 491 487 126
f 337 336 338
f 588 153 587
f 576 578 91
f 633 161 632
f 96 359 360
f 39 485 483
f 101 617 378
f 193 45 165
f 163 164 43
f 618 624 611
f 507 136 528
f 561 149 560
f 641 162 639
f 116 561 558
f 494 133 493
f 253 252 233
f 63 237 238
f 392 393 104
f 440 450 117
f 93 581 583
f 386 385 387
f 120 449 451
f 421 422 111
f 486 3 467
f 302 81 317
f 633 632 630
f 462 475 36
f 376 99 374
f 489 490 131
f 447 449 448
f 387 612 105
f 106 420 399
f 173 46 172
f 492 491 472
f 316 306 295
f 22 287 347
f 109 410 420
f 507 39 483
f 559 23 313
f 214 57 211
f 196 45 193
f 10 434 432
f 422 106 403
f 626 160 640
f 487 486 467
f 542 41 532
f 400 106 399
f 444 120 452
f 198 199 52
f 475 127 474
f 621 620 382
f 621 623 159
f 450 114 452
f 92 347 348
f 376 100 375
f 434 118 433
f 503 132 502
f 337 90 336
f 537 536 519
f 395 393 380
f 201 54 200
f 171 44 170
f 355 94 353
f 58 296 213
f 422 420 106
f 595 365 596
f 569 568 570
f 523 140 520
f 114 430 431
f 218 210 57
f 304 566 80
f 639 162 638
f 261 371 72
f 548 147 547
f 498 133 497
f 150 570 564
f 222 224 59
f 142 526 520
f 437 436 435
f 141 522 523
f 137 510 505
f 173 179 176
f 559 149 569
f 121 447 448
f 563 320 300
f 102 395 380
f 257 255 253
f 642 162 641
f 83 311 314
f 216 52 218
f 512 493 513
f 23 304 302
f 91 339 340
f 512 138 612
f 159 620 621
f 218 199 210
f 364 28 575
f 83 318 310
f 168 274 43
f 136 530 528
f 140 523 524
f 495 135 494
f 233 235 234
f 566 563 80
f 25 339 577
f 277 74 276
f 475 462 477
f 133 494 497
f 436 437 116
f 389 386 392
f 548 146 546
f 441 460 5
f 10 309 307
f 65 397 400
f 543 434 544
f 640 641 161
f 272 273 73
f 581 93 346
f 419 421 111
f 319 320 86
f 180 179 178
f 127 475 477
f 231 229 227
f 337 334 340
f 136 508 510
f 308 309 84
f 237 63 234
f 447 554 34
f 252 379 378
f 315 83 314
f 608 622 616
f 338 336 26
f 337 338 89
f 13 275 168
f 209 208 207
f 436 439 117
f 628 312 629
f 360 366 363
f 364 574 96
f 359 361 360
f 466 446 35
f 500 501 134
f 406 109 421
f 135 589 591
f 601 599 602
f 340 90 337
f 481 492 37
f 522 41 524
f 78 316 295
f 131 486 487
f 403 32 414
f 634 626 640
f 151 572 573
f 515 516 138
f 8 252 378
f 265 72 374
f 9 521 519
f 538 549 42
f 368 358 347
f 588 587 586
f 458 453 123
f 589 385 103
f 502 492 481
f 32 416 414
f 430 427 424
f 153 585 587
f 540 144 539
f 370 368 92
f 209 293 58
f 428 33 535
f 326 581 346
f 625 307 82
f 575 28 582
f 6 181 200
f 421 109 420
f 553 121 443
f 160 642 640
f 153 584 585
f 309 432 558
f 334 337 89
f 23 315 313
f 271 163 43
f 296 295 213
f 39 498 496
f 118 439 433
f 531 113 534
f 293 296 58
f 28 362 351
f 489 131 487
f 431 444 452
f 84 558 560
f 98 366 360
f 45 169 170
f 379 101 378
f 462 463 125
f 308 84 314
f 10 432 309
f 299 24 310
f 132 492 502
f 512 387 7
f 639 638 408
f 565 323 86
f 59 244 242
f 106 400 402
f 440 33 426
f 566 565 563
f 617 398 378
f 224 225 59
f 410 109 409
f 239 400 399
f 194 219 53
f 358 22 347
f 610 157 609
f 27 595 603
f 479 484 482
f 142 520 521
f 585 25 577
f 339 578 577
f 408 407 406
f 407 109 406
f 31 408 406
f 407 408 108
f 31 639 408
f 419 31 406
f 608 616 40
f 430 429 431
f 455 35 429
f 35 444 431
f 188 51 187
f 188 182 51
f 51 322 187
f 322 51 319
f 51 182 183
f 319 51 183
f 187 322 321
f 322 319 324
f 381 101 379
f 405 407 108
f 404 405 108
f 286 285 178
f 407 405 409
f 109 407 409
f 191 175 47
f 167 164 170
f 50 184 185
f 44 167 170
f 64 244 236
f 243 244 64
f 50 188 189
f 541 542 145
f 442 445 119
f 339 91 578
f 445 446 119
f 624 623 622
f 611 624 157
f 523 526 141
f 141 527 529
f 527 514 529
f 445 120 444
f 446 445 444
f 35 446 444
f 613 614 158
f 158 614 615
f 623 613 158
f 614 613 391
f 614 612 615
f 371 376 374
f 100 376 371
f 479 482 123
f 373 394 384
f 540 42 634
f 633 540 634
f 538 42 540
f 633 634 161
f 161 634 640
f 42 626 634
f 540 633 144
f 557 556 338
f 553 333 89
f 262 21 264
f 251 21 262
f 5 335 333
f 270 251 262
f 21 251 249
f 600 593 30
f 606 593 600
f 600 30 375
f 593 390 30
f 30 377 375
f 390 388 30
f 30 388 377
f 228 243 241
f 470 478 459
f 470 127 478
f 127 477 478
f 184 186 185
f 478 477 476
f 122 478 476
f 357 74 280
f 518 39 507
f 344 342 85
f 325 344 85
f 342 344 343
f 85 342 321
f 344 90 343
f 90 344 336
f 482 129 481
f 482 481 457
f 482 457 123
f 481 37 457
f 449 447 34
f 435 449 34
f 470 472 471
f 472 470 37
f 470 471 127
f 472 126 471
f 126 468 471
f 470 459 37
f 491 126 472
f 504 129 485
f 221 59 242
f 125 463 465
f 437 34 562
f 561 437 562
f 554 568 562
f 34 554 562
f 437 561 116
f 390 103 389
f 103 386 389
f 392 105 391
f 572 586 580
f 572 580 36
f 586 152 580
f 473 572 36
f 244 243 242
f 225 244 59
f 64 240 241
f 240 239 241
f 237 240 64
f 243 64 241
f 236 237 64
f 411 607 521
f 9 411 521
f 110 607 411
f 607 142 521
f 610 607 110
f 171 15 184
f 171 169 15
f 15 186 184
f 87 584 581
f 153 588 582
f 588 575 582
f 381 102 380
f 573 572 473
f 468 469 128
f 474 468 128
f 469 571 128
f 571 573 128
f 573 473 128
f 473 474 128
f 564 323 565
f 26 323 564
f 323 324 86
f 325 323 26
f 325 324 323
f 563 565 86
f 324 325 85
f 410 230 18
f 230 228 18
f 18 228 241
f 18 241 239
f 401 619 618
f 401 402 107
f 403 402 401
f 619 159 618
f 401 618 32
f 619 401 107
f 403 401 32
f 618 611 32
f 159 624 618
f 478 122 459
f 122 458 459
f 37 459 457
f 459 458 457
f 122 456 458
f 457 458 123
f 191 190 192
f 485 129 484
f 129 482 484
f 483 485 484
f 130 483 484
f 189 187 14
f 191 50 189
f 191 189 175
f 189 14 175
f 14 177 175
f 499 501 500
f 501 499 38
f 38 499 590
f 135 499 500
f 488 501 38
f 499 135 591
f 480 454 4
f 284 12 346
f 4 423 506
f 480 4 506
f 423 531 506
f 480 506 505
f 531 137 506
f 506 137 505
f 365 366 98
f 71 270 262
f 270 71 269
f 71 267 269
f 335 334 333
f 333 334 89
f 334 335 91
f 536 9 519
f 465 463 461
f 537 140 541
f 520 140 519
f 119 446 465
f 465 461 119
f 461 441 119
f 460 441 461
f 176 46 173
f 299 297 24
f 71 263 266
f 263 260 266
f 260 72 266
f 263 70 260
f 205 201 49
f 201 181 49
f 186 205 49
f 181 201 200
f 181 182 49
f 284 77 283
f 586 587 152
f 588 586 151
f 20 267 265
f 266 267 71
f 31 417 631
f 631 417 632
f 31 631 639
f 417 31 419
f 641 631 161
f 417 112 632
f 161 631 632
f 418 417 419
f 417 418 112
f 284 345 77
f 542 550 145
f 542 541 524
f 284 174 12
f 48 174 283
f 373 20 265
f 373 265 374
f 609 608 525
f 608 157 622
f 560 559 313
f 636 637 162
f 541 140 524
f 41 542 524
f 358 357 280
f 70 263 264
f 263 262 264
f 176 177 46
f 174 48 173
f 174 173 172
f 538 551 549
f 538 540 539
f 537 541 539
f 232 221 242
f 17 221 232
f 232 242 62
f 231 232 62
f 203 205 55
f 203 55 202
f 201 205 203
f 202 55 217
f 205 206 55
f 204 203 202
f 73 275 292
f 292 290 73
f 272 290 282
f 290 292 291
f 75 290 291
f 290 75 282
f 70 277 259
f 277 70 281
f 277 281 279
f 260 70 259
f 12 174 172
f 104 396 388
f 367 27 354
f 365 27 367
f 354 27 356
f 365 367 366
f 595 27 365
f 318 299 310
f 155 596 597
f 155 597 598
f 596 594 597
f 595 596 155
f 605 595 155
f 180 47 179
f 180 190 47
f 352 372 11
f 11 372 261
f 312 310 24
f 642 636 162
f 636 297 637
f 367 369 97
f 366 367 97
f 369 367 354
f 369 370 97
f 580 579 464
f 580 152 579
f 579 124 464
f 61 230 409
f 230 410 409
f 230 61 229
f 230 229 228
f 76 285 286
f 353 352 276
f 74 353 276
f 288 76 286
f 288 286 283
f 289 288 287
f 203 54 201
f 287 288 77
f 77 288 283
f 286 48 283
f 531 423 113
f 276 11 259
f 11 261 259
f 277 276 259
f 616 158 615
f 516 616 615
f 138 516 615
f 138 615 612
f 509 533 532
f 503 502 504
f 635 79 294
f 635 294 404
f 635 637 79
f 637 635 638
f 638 635 108
f 635 404 108
f 226 61 405
f 61 226 227
f 405 61 409
f 227 226 207
f 48 178 179
f 48 286 178
f 173 48 179
f 534 143 533
f 534 535 143
f 531 534 533
f 533 143 532
f 137 531 533
f 261 372 371
f 13 180 178
f 285 13 178
f 180 13 166
f 13 168 166
f 346 345 284
f 331 327 46
f 46 327 172
f 172 327 326
f 382 620 101
f 442 121 448
f 443 121 442
f 2 226 404
f 294 2 404
f 404 226 405
f 207 226 2
f 550 551 145
f 552 146 551
f 143 550 532
f 552 550 143
f 330 329 328
f 24 636 629
f 94 352 353
f 352 11 276
f 113 428 534
f 428 535 534
f 509 41 511
f 535 552 143
f 550 552 551
f 550 542 532
f 369 95 368
f 326 327 87
f 87 327 329
f 327 331 329
f 581 326 87
f 293 79 298
f 79 297 298
f 296 298 78
f 79 293 294
f 296 293 298
f 598 490 38
f 358 280 22
f 280 279 278
f 357 358 95
f 74 357 353
f 330 328 25
f 567 23 559
f 590 598 38
f 590 604 598
f 598 604 155
f 604 590 154
f 590 591 154
f 604 154 606
f 297 299 298
f 299 318 78
f 298 299 78
f 355 354 356
f 629 636 642
f 312 24 629
f 629 642 160
f 370 362 97
f 362 363 97
f 363 366 97
f 364 363 362
f 362 370 351
f 96 363 364
f 297 636 24
f 162 637 638
f 637 297 79
f 490 488 38
f 598 597 490
f 441 442 119
f 443 442 441
f 443 441 5
f 442 448 445
f 296 78 295
f 326 12 172
f 575 574 364
f 47 175 176
f 175 177 176
f 47 176 179
