# FEM surface export ¡ª frame 696
# Vertices: 642  Faces: 1280
v -0.50341111 0.75098938 0.00961948
v 0.49328580 0.75903445 -0.02027828
v -0.52165854 0.63361222 -0.00716282
v 0.56593132 0.57280982 0.00001721
v 0.00496131 0.35079339 0.82668787
v 0.00065439 0.55012488 0.87694335
v -0.01553489 0.31095162 -0.81465477
v -0.01365860 0.54710066 -0.88572615
v 0.92821085 0.16271172 -0.57361758
v 0.91363323 0.10886473 0.58892953
v -0.91212410 0.05271414 -0.57572359
v -0.94824529 0.14904779 0.58641851
v -0.82707375 0.52400750 0.31560457
v -0.52514565 0.35228062 0.86716008
v -0.28667328 0.71781093 0.49271983
v 0.30408129 0.72472012 0.47433418
v -0.01307392 0.79179621 -0.00567280
v 0.28109470 0.74805254 -0.50347513
v -0.31606549 0.73209518 -0.48358810
v -0.53950483 0.37671515 -0.85808915
v -0.82201439 0.53592712 -0.32994604
v -1.10141110 0.14495125 -0.01721004
v 0.53440666 0.38859835 0.86581486
v 0.82837921 0.57148170 0.30680677
v -0.51684034 0.14690855 0.83582413
v -0.00826711 0.13101269 1.13513625
v -0.79501688 0.33162609 -0.26840323
v -0.78227025 0.23588802 0.28938735
v 0.00972555 0.10554280 -1.11146808
v -0.48363394 0.13952270 -0.83096129
v 0.80919790 0.56756741 -0.35153675
v 0.51526666 0.35246748 -0.87327814
v 0.80762869 0.21389933 0.33123797
v 0.49972564 0.12753458 0.82913578
v 0.32056367 0.57940656 0.49706215
v -0.33324015 0.57538116 0.51127011
v -0.03513378 0.43382567 0.03418184
v -0.30156234 0.48772657 -0.46739903
v 0.34018019 0.57098758 -0.47062117
v 0.53689444 0.19897224 -0.84466904
v 0.85208219 0.18665121 -0.28765222
v 1.09650791 0.20049933 0.01730348
v -0.68104953 0.66539222 0.15927668
v -0.58463961 0.65473187 0.43250027
v -0.41423157 0.75284922 0.25905836
v -0.74845928 0.26837227 0.74242103
v -0.70011765 0.47066769 0.62536800
v -0.91533089 0.34806183 0.45782417
v -0.15844075 0.64666545 0.69951004
v -0.43815252 0.57819849 0.69847989
v -0.27168474 0.47439435 0.89798009
v -0.15322642 0.77563918 0.24707830
v -0.26056835 0.78855246 0.00670077
v 0.15786754 0.66316766 0.69641203
v 0.00754025 0.73882926 0.50920206
v 0.23249513 0.78319639 -0.01635774
v 0.14063738 0.78251958 0.23888046
v 0.40598971 0.75480223 0.22900943
v -0.16465645 0.79739881 -0.25042301
v -0.41594246 0.75761038 -0.23927203
v 0.39646074 0.77296299 -0.26793385
v 0.12999347 0.80308372 -0.25764340
v -0.16668880 0.66818857 -0.70234454
v -0.01552668 0.75943291 -0.51745224
v 0.14542034 0.66711062 -0.71617973
v -0.58835888 0.65681255 -0.41654965
v -0.67579025 0.67543042 -0.15538438
v -0.27837563 0.47943118 -0.90773147
v -0.42889482 0.59559041 -0.70246404
v -0.92081684 0.33843976 -0.48103413
v -0.71194708 0.47898409 -0.61549735
v -0.77571851 0.26134321 -0.75142819
v -0.85014743 0.54676944 -0.01468338
v -1.05448079 0.10016675 -0.31064323
v -1.01109028 0.35230073 -0.19629724
v -1.00232136 0.35982069 0.15726592
v -1.06383753 0.12613079 0.28516290
v 0.58500129 0.66694194 0.41096294
v 0.68022156 0.68625134 0.14373876
v 0.26857185 0.49212196 0.90307540
v 0.43235216 0.60383797 0.69839042
v 0.92501920 0.37967414 0.47124422
v 0.73009890 0.49884740 0.61963630
v 0.77438444 0.27884546 0.74574071
v -0.29684004 0.27251357 1.04483628
v 0.00566576 0.36461696 1.04157877
v -0.79136002 0.04838458 0.76930219
v -0.58581364 0.13588390 0.93625689
v 0.01768771 0.04331142 0.96202326
v -0.27838275 0.02779271 1.02797079
v -0.25170967 0.24146245 0.90295255
v -0.94735098 0.00000000 0.20831452
v -0.91007423 0.07216132 0.47707143
v -0.91782016 0.13730714 -0.46496844
v -0.93717569 0.01193381 -0.17933118
v -0.66228831 0.48413578 0.14401174
v -0.82729191 0.27408075 0.02197883
v -0.70043588 0.50038588 -0.14313833
v -0.59657139 0.11581509 -0.93004763
v -0.74422258 0.09316137 -0.74476850
v -0.01061328 0.33878383 -1.02631342
v -0.29653475 0.23944093 -1.04725850
v -0.24387890 0.20273127 -0.86330128
v -0.28309983 0.00000000 -1.02074051
v -0.01041092 0.07911534 -0.99047548
v 0.41821030 0.59515876 -0.72167450
v 0.25974593 0.47343865 -0.91388416
v 0.66800368 0.70210069 -0.19666755
v 0.56394100 0.68031090 -0.45581928
v 0.74901521 0.24040340 -0.75938052
v 0.70183206 0.47338957 -0.64427745
v 0.91706246 0.39004639 -0.47717607
v 0.68451244 0.38548729 0.17024823
v 0.59912020 0.39656809 0.43006846
v 0.49729782 0.59851658 0.24234933
v 0.71771741 0.00000000 0.75846326
v 0.69993466 0.15866232 0.58940148
v 0.91169816 0.04791558 0.51565427
v 0.15081221 0.50563639 0.68162733
v 0.44370073 0.37866029 0.66734582
v 0.23187011 0.28204846 0.85498405
v 0.17077488 0.66375244 0.22667250
v 0.28919631 0.44604981 0.01506920
v -0.16529588 0.49133325 0.71802950
v -0.01659427 0.64243048 0.51552856
v -0.25529021 0.63623136 -0.05230461
v -0.20363018 0.57360351 0.22611558
v -0.42453501 0.62583363 0.25390825
v 0.12655868 0.51227385 -0.21444720
v 0.45237625 0.48336366 -0.26828817
v -0.47979599 0.62512308 -0.26160783
v -0.21915701 0.48403621 -0.19692656
v 0.16228291 0.49580276 -0.67847717
v -0.01263249 0.48362121 -0.48401600
v -0.15713903 0.45005694 -0.68035090
v 0.62593460 0.40639505 -0.39850533
v 0.70727903 0.40389270 -0.11462357
v 0.25137472 0.26140153 -0.85691267
v 0.42930368 0.40345913 -0.67542458
v 0.89455956 0.00004662 -0.48736945
v 0.71142435 0.20128024 -0.56912214
v 0.76396275 0.03497833 -0.76236987
v 0.86706889 0.21804151 0.02519493
v 1.05456090 0.19286142 -0.29056963
v 1.02581048 0.00000476 -0.16042531
v 1.00768709 0.00000000 0.19806302
v 1.05400062 0.17351870 0.33423322
v 0.25725970 0.01213328 0.99114418
v 0.56769085 0.13477311 0.94471323
v 0.28331399 0.25143436 1.03699768
v -0.59899592 0.43166235 0.44411808
v -0.42608964 0.36439142 0.73484927
v -0.69812119 0.19579649 0.62032032
v -0.40132096 0.40833178 -0.69102973
v -0.56079316 0.49335337 -0.41850317
v -0.67893142 0.30035084 -0.57234377
v 0.55656946 0.06975569 -0.93537062
v 0.26603082 0.05747010 -1.03775752
v 0.27513021 0.25848711 -1.04304433
v 1.01496875 0.40838382 0.16488703
v 1.01259685 0.41836262 -0.19059715
v 0.85669625 0.59986585 -0.03336625
v -0.59364289 0.71850097 0.09302676
v -0.55602032 0.71491379 0.22361243
v -0.46390104 0.75224918 0.13958119
v -0.70873201 0.60088688 0.37521228
v -0.63680106 0.66219610 0.29797974
v -0.75791425 0.60214782 0.23579195
v -0.35351881 0.74223119 0.38169354
v -0.49760404 0.70894802 0.35207081
v -0.44035476 0.68829501 0.46872863
v -0.84870732 0.22760049 0.67049587
v -0.84131384 0.32172480 0.60082489
v -0.94469416 0.25087994 0.51085550
v -0.62298632 0.40535638 0.75183827
v -0.73564035 0.36476859 0.68956882
v -0.63864690 0.30004391 0.81627381
v -0.87671101 0.43937951 0.39663070
v -0.80620909 0.42147931 0.54460609
v -0.77291030 0.51501811 0.47154456
v -0.08460611 0.60485446 0.78851253
v -0.21901552 0.57291061 0.80611753
v -0.12963033 0.52014172 0.89666945
v -0.36497676 0.65849292 0.59831917
v -0.30122769 0.61431617 0.70354539
v -0.22085458 0.68593252 0.59856403
v -0.40072963 0.40835980 0.89274222
v -0.36328489 0.52207673 0.80342174
v -0.48487991 0.46781361 0.78821427
v -0.65181851 0.57314658 0.53311259
v -0.57693696 0.52237564 0.67500174
v -0.51602620 0.62310326 0.57399565
v -0.34091887 0.77520043 0.13217747
v -0.38337749 0.77289057 0.00988470
v -0.21978253 0.75896394 0.37246308
v -0.28654438 0.76989204 0.25683334
v -0.13669859 0.80403560 -0.00130997
v -0.20871285 0.78360081 0.12814365
v -0.08481376 0.79018694 0.12277243
v 0.07880393 0.61458188 0.78935891
v -0.00339355 0.66102397 0.70332301
v 0.15751772 0.73055840 0.49539632
v 0.08443921 0.69955254 0.60437614
v 0.23947799 0.68995684 0.59359288
v -0.07033946 0.70003957 0.60685968
v -0.13936749 0.73460144 0.50365269
v 0.36494055 0.77966195 -0.01781210
v 0.32227832 0.77427590 0.11106786
v 0.45153162 0.76044399 0.10162266
v 0.06241481 0.78327322 0.11950594
v 0.18843462 0.78551483 0.11337488
v 0.10843937 0.79996729 -0.00825570
v 0.35890847 0.74238479 0.34833068
v 0.26667812 0.77309537 0.23640795
v 0.22442389 0.75636154 0.35659486
v -0.07929136 0.76747590 0.38231727
v 0.07084464 0.76551968 0.37484330
v -0.01397878 0.77913284 0.24619576
v -0.34009087 0.78021622 -0.11714134
v -0.46152133 0.75969523 -0.11474349
v -0.08423024 0.80292869 -0.12703441
v -0.20899263 0.79901809 -0.12030043
v -0.37884605 0.74506801 -0.36433119
v -0.29292119 0.78119457 -0.24705857
v -0.24513113 0.77270985 -0.36869970
v 0.44810706 0.77136719 -0.14221534
v 0.31651005 0.79521066 -0.14446858
v 0.20501645 0.78569454 -0.38338593
v 0.26285303 0.79138136 -0.26470256
v 0.33891222 0.76194531 -0.38712615
v 0.18358512 0.79880536 -0.13430965
v 0.05937624 0.80426413 -0.13185647
v -0.09157004 0.61265826 -0.80033410
v -0.00522338 0.67494410 -0.71881354
v 0.07122442 0.61124706 -0.81039882
v -0.16634093 0.75026852 -0.50538611
v -0.09334376 0.71975994 -0.61417538
v -0.24854332 0.70672405 -0.59804618
v 0.21850769 0.71448165 -0.61432672
v 0.06403872 0.72209698 -0.61884409
v 0.13249315 0.75865674 -0.51954794
v -0.01391949 0.80201679 -0.25479347
v 0.06144211 0.78892404 -0.39537030
v -0.09589732 0.78870475 -0.38620552
v -0.55132121 0.72632253 -0.19589768
v -0.59622896 0.71981937 -0.06681454
v -0.45822695 0.69695067 -0.45227730
v -0.50493169 0.71397775 -0.32623965
v -0.74693507 0.61063582 -0.24890414
v -0.63719159 0.67321771 -0.28827253
v -0.70925367 0.60465443 -0.37635538
v -0.14685139 0.51222950 -0.90361226
v -0.21835805 0.58114964 -0.81419575
v -0.48410630 0.49706447 -0.79010797
v -0.35465342 0.54612297 -0.81390154
v -0.41224512 0.43430310 -0.89065212
v -0.30189165 0.63461596 -0.70939475
v -0.37860337 0.67211550 -0.59529966
v -0.93444473 0.19046162 -0.53564072
v -0.86225921 0.28930536 -0.62543064
v -0.86838335 0.15834109 -0.68332255
v -0.77616525 0.50441033 -0.48026192
v -0.82015014 0.40540454 -0.55637479
v -0.88045865 0.45023537 -0.41012457
v -0.65744901 0.31466854 -0.81351686
v -0.75261247 0.37205592 -0.68895531
v -0.63499689 0.43656960 -0.74712169
v -0.51965976 0.62644750 -0.56430668
v -0.57659739 0.53975499 -0.66887492
v -0.65248519 0.58132589 -0.52357680
v -0.68453979 0.67719448 0.00745056
v -0.83779699 0.54534841 -0.17112957
v -0.76543778 0.62154603 -0.08748808
v -0.77180415 0.61411524 0.07094652
v -0.83314592 0.54491007 0.15019150
v -0.99166423 0.07396786 -0.44613597
v -1.00467861 0.20585608 -0.39025521
v -1.07278657 0.25974479 -0.10691508
v -1.04701519 0.24558026 -0.25847554
v -1.06976128 0.14788920 -0.16509394
v -0.97538716 0.35053521 -0.34877029
v -0.92522448 0.44948977 -0.26934096
v -1.00442076 0.22790857 0.37240896
v -1.01703203 0.11368337 0.44691917
v -0.91759288 0.44299686 0.24141955
v -0.97343326 0.36458489 0.31158903
v -1.11244607 0.15210415 0.13489050
v -1.04968047 0.26196194 0.22364232
v -1.07778740 0.26082566 0.07129034
v -0.93536198 0.44829112 -0.10344359
v -1.01420748 0.34422359 -0.01149814
v -0.93433511 0.46122396 0.06804495
v 0.54350829 0.73172843 0.18791103
v 0.59027129 0.72696155 0.06029284
v 0.44501370 0.70652211 0.44524986
v 0.50460356 0.71557391 0.31818786
v 0.76465219 0.63453811 0.22447555
v 0.63981640 0.68671364 0.27777272
v 0.71573436 0.62613201 0.36731556
v 0.13190265 0.52873230 0.89554894
v 0.21613352 0.59384894 0.80467284
v 0.49426848 0.51552004 0.79964739
v 0.35464305 0.54786772 0.81092566
v 0.40569729 0.44681817 0.90169030
v 0.29767337 0.63953185 0.70477200
v 0.37056544 0.67912793 0.58988035
v 0.93282247 0.24969728 0.52383006
v 0.86571264 0.31342965 0.61075282
v 0.86110085 0.18213369 0.66107076
v 0.78628916 0.53532428 0.46887782
v 0.83505255 0.43878782 0.55322021
v 0.88165808 0.49013427 0.38967028
v 0.65727204 0.33651552 0.81341654
v 0.77156514 0.38998663 0.69487160
v 0.65179110 0.45865297 0.75093460
v 0.51353729 0.65334809 0.55692667
v 0.57565862 0.55988884 0.66129792
v 0.65836751 0.59454197 0.52102900
v -0.14267546 0.42025095 0.97859603
v -0.00231689 0.46035391 0.97006035
v -0.42061085 0.31357059 0.96518093
v -0.28574088 0.36520818 0.97740149
v 0.00279599 0.24550094 1.08938479
v -0.14231630 0.31146163 1.03710675
v -0.15416192 0.19800885 1.08594429
v -0.89067847 0.07965080 0.68505311
v -0.79651934 0.15573400 0.76846373
v -0.58408135 0.06587497 0.92453748
v -0.72644305 0.07281376 0.87192762
v -0.65551955 0.08386280 0.83126199
v -0.68690842 0.18724908 0.85614729
v -0.55724180 0.25338426 0.92487562
v 0.02425077 0.19463730 0.90419018
v -0.09951136 0.15062486 0.92344612
v -0.12798834 0.29943055 0.86578870
v -0.14226411 0.06548334 1.09510195
v -0.12546198 0.04280212 1.03120804
v 0.02184914 0.00171299 1.07805169
v -0.37579530 0.21763301 0.86178333
v -0.26612672 0.12573494 0.96294755
v -0.39627716 0.11101212 0.92703044
v -0.43417206 0.19122972 1.01446426
v -0.44317931 0.05191985 1.00510681
v -0.28781492 0.12477268 1.07248259
v -1.01833081 0.00000000 0.37597284
v -0.97347385 0.00153393 0.54679728
v -1.05503345 0.01688327 0.08916487
v -1.06949782 0.02115498 0.23668034
v -0.84140795 0.15116107 0.37195027
v -0.95124298 0.07278410 0.34293830
v -0.89177155 0.11439890 0.24161287
v -0.90791512 0.02381671 -0.53307337
v -0.99168241 0.00498117 -0.40594798
v -0.88028550 0.18893690 -0.23309501
v -0.93279362 0.11785983 -0.31251276
v -0.84005475 0.22818533 -0.38194492
v -1.04936910 0.00139746 -0.24857385
v -1.07739258 0.00441997 -0.09611290
v -0.60868514 0.58125019 0.06941343
v -0.70599681 0.48897249 0.02229153
v -0.62973648 0.58886909 -0.06398834
v -0.83072907 0.25914374 0.15978363
v -0.78013521 0.37503389 0.09866356
v -0.72853547 0.35976562 0.22792788
v -0.74073923 0.38666719 -0.21207574
v -0.77480531 0.38472658 -0.06647749
v -0.83327579 0.27735457 -0.12563278
v -0.93453604 0.00000000 0.00504911
v -0.90299982 0.14737374 -0.07182833
v -0.89934146 0.13078953 0.09844062
v -0.78658533 0.10836828 -0.77843755
v -0.83796054 0.00942144 -0.67963988
v -0.57368767 0.25276014 -0.91683978
v -0.69431084 0.18486817 -0.85481000
v -0.60820496 0.11262222 -0.80088019
v -0.68307012 0.02561769 -0.82341129
v -0.56405425 0.00000000 -0.88686746
v -0.01081913 0.44805861 -0.96702391
v -0.14721408 0.41438034 -0.98343229
v -0.14210144 0.19395298 -1.10907078
v -0.15351741 0.29055226 -1.04544306
v -0.00551444 0.23917054 -1.08791387
v -0.28567445 0.36470437 -0.98342544
v -0.41968298 0.31427252 -0.96234882
v -0.12137401 0.27259603 -0.86104274
v -0.14520459 0.12925030 -0.92319846
v -0.02624429 0.19934654 -0.89880854
v -0.39796376 0.00707163 -0.89325142
v -0.25344113 0.01888705 -0.89539105
v -0.36368015 0.15730876 -0.85281760
v 0.00048396 0.00000000 -1.09193993
v -0.14378212 0.00000000 -0.98884922
v -0.16004390 0.06290831 -1.09169090
v -0.45334789 0.17217460 -1.01415956
v -0.29500499 0.11985824 -1.08888960
v -0.44572020 0.03417553 -1.00859499
v 0.20349647 0.57544601 -0.82450449
v 0.12247900 0.51218998 -0.90995121
v 0.35081279 0.68111253 -0.61899543
v 0.27992728 0.63461119 -0.72130847
v 0.39437118 0.42214581 -0.90066236
v 0.34101048 0.53736377 -0.82427943
v 0.47018805 0.47664136 -0.81241101
v 0.59339470 0.73478132 -0.10300249
v 0.53812981 0.74388129 -0.22946174
v 0.69500124 0.62402904 -0.41132772
v 0.61868984 0.69715291 -0.32958350
v 0.74456954 0.64303267 -0.27495545
v 0.48395148 0.73699111 -0.36249796
v 0.42538956 0.71695244 -0.48319167
v 0.85390913 0.20081544 -0.67591828
v 0.84077144 0.33392373 -0.63226229
v 0.92798489 0.27786979 -0.52533233
v 0.61180371 0.41216379 -0.76419526
v 0.72295356 0.36216816 -0.70701462
v 0.63872671 0.30232948 -0.81657386
v 0.86311013 0.48263621 -0.42186555
v 0.81980735 0.42946160 -0.57766896
v 0.76757234 0.52570546 -0.50987482
v 0.49590266 0.64137864 -0.59003186
v 0.64106357 0.58141547 -0.55341727
v 0.55656242 0.53363025 -0.69238144
v 0.63017762 0.48563793 0.09348100
v 0.61290705 0.52857584 0.23851790
v 0.53931642 0.59744167 0.12367488
v 0.70248240 0.31176904 0.37567392
v 0.65161389 0.36885172 0.29517934
v 0.74509680 0.28984058 0.25295693
v 0.41908848 0.61453390 0.37802961
v 0.56323475 0.51273578 0.35855493
v 0.49844068 0.50877607 0.48481721
v 0.84575081 0.02048975 0.68812245
v 0.77740121 0.09147198 0.64249021
v 0.91801310 0.02385907 0.56452817
v 0.60880923 0.15537483 0.73027718
v 0.70367318 0.12051195 0.70766300
v 0.64395416 0.06082212 0.80751473
v 0.85441399 0.10983311 0.41172352
v 0.78952849 0.13560468 0.55708516
v 0.74806535 0.20457491 0.45172614
v 0.08082192 0.45506051 0.76235765
v 0.21964531 0.40165412 0.77646703
v 0.11235668 0.31338063 0.82463789
v 0.36760190 0.45533860 0.58714348
v 0.30825219 0.46066383 0.67403483
v 0.23296028 0.55884361 0.59158111
v 0.37115499 0.20453279 0.82916844
v 0.35997576 0.33951685 0.77100086
v 0.47528479 0.25777915 0.73666209
v 0.64692938 0.26316282 0.50826496
v 0.56996554 0.26654553 0.64440680
v 0.54120284 0.37463659 0.54906964
v 0.38494694 0.54512548 0.15581428
v 0.44325536 0.50997758 0.01748700
v 0.25506586 0.63928306 0.36868003
v 0.34913981 0.65585071 0.24532759
v 0.13065509 0.45400164 -0.00225951
v 0.22691911 0.53017104 0.15796950
v 0.07359555 0.50627244 0.15066257
v -0.08680439 0.43634185 0.78445059
v -0.03675996 0.52021950 0.69388545
v -0.17381077 0.60671812 0.51487595
v -0.11406111 0.57399845 0.60671830
v -0.27113447 0.51481915 0.62438411
v 0.05691766 0.60223675 0.61277139
v 0.14455263 0.64738125 0.51701653
v -0.38789806 0.53629166 0.00761560
v -0.35412318 0.70180583 0.09924746
v -0.48654729 0.62790418 0.13826254
v -0.09995601 0.52814740 0.12752442
v -0.21748324 0.69258022 0.10654064
v -0.17111839 0.52374256 0.05638655
v -0.35146314 0.59214258 0.38883859
v -0.29239815 0.70805871 0.23632127
v -0.24828783 0.65673119 0.37802428
v 0.08009165 0.67911953 0.39083302
v -0.10062377 0.66434026 0.37486461
v -0.01530274 0.55405748 0.29126748
v 0.40226132 0.53985262 -0.10325623
v 0.53842831 0.58834320 -0.16761123
v 0.03448754 0.49281850 -0.10673938
v 0.22757813 0.46379551 -0.12233380
v 0.41227561 0.60340244 -0.38710701
v 0.29723579 0.55576813 -0.24589108
v 0.27385587 0.51282656 -0.33680928
v -0.51500100 0.66140592 -0.13124372
v -0.43386310 0.53288060 -0.11741151
v -0.27066880 0.39946789 -0.29267973
v -0.35454828 0.51477021 -0.22135510
v -0.39120710 0.51488680 -0.35902217
v -0.28509644 0.47376603 -0.06322660
v -0.15479709 0.48673493 -0.05599754
v 0.07475100 0.39725944 -0.76113802
v 0.00110605 0.47811782 -0.67284006
v -0.07639312 0.39006397 -0.74096173
v 0.17124458 0.50208336 -0.49431098
v 0.07080519 0.56950945 -0.57437927
v 0.24895485 0.55141729 -0.56716275
v -0.24163280 0.37109792 -0.55640018
v -0.10114180 0.48475575 -0.61696196
v -0.16098054 0.46777335 -0.46610597
v -0.02259813 0.49546561 -0.19849080
v -0.07954685 0.46313044 -0.30730268
v 0.10375009 0.49347082 -0.33034769
v 0.60884112 0.48720017 -0.20256421
v 0.62324011 0.49994305 -0.04946298
v 0.47303078 0.50768131 -0.46420339
v 0.54971957 0.50403094 -0.36018902
v 0.76805407 0.29117921 -0.19622810
v 0.65794963 0.37362614 -0.27043232
v 0.74042416 0.28946000 -0.34051824
v 0.12267809 0.29682437 -0.84036916
v 0.21313992 0.38245583 -0.78091955
v 0.47034493 0.27680042 -0.75758255
v 0.33768708 0.33026153 -0.77095211
v 0.40626565 0.18992127 -0.85323876
v 0.28746128 0.45695361 -0.69609624
v 0.39592281 0.49006990 -0.60174578
v 0.92066711 0.03443576 -0.53423256
v 0.80577475 0.00905578 -0.62942100
v 0.86549014 0.06888370 -0.67851013
v 0.79549861 0.15376377 -0.42720991
v 0.82003987 0.10915489 -0.50412971
v 0.88200164 0.07128838 -0.37691465
v 0.67109400 0.14210710 -0.80997884
v 0.73291570 0.13635953 -0.66341996
v 0.61983651 0.20992108 -0.69483536
v 0.53889269 0.39976346 -0.53978115
v 0.56672138 0.30030769 -0.63673013
v 0.67931509 0.27777764 -0.48583433
v 0.71625513 0.40325862 0.03156419
v 0.85338563 0.21248154 -0.12424646
v 0.76019990 0.30860868 -0.07281562
v 0.77818060 0.30008096 0.10484473
v 0.84385514 0.19390687 0.18285696
v 0.99506766 0.16390507 -0.43396282
v 1.00514114 0.06791526 -0.38056514
v 1.10399663 0.09476424 -0.06167696
v 1.07473171 0.09312174 -0.21588972
v 1.08294046 0.20834421 -0.13209897
v 0.96657926 0.00000000 -0.31635085
v 0.91697252 0.09521639 -0.22472857
v 1.01677954 0.04825252 0.41748425
v 0.98627406 0.14000036 0.46090457
v 0.90050656 0.08960620 0.26778945
v 0.96130925 0.00000000 0.35113132
v 1.09469867 0.19271187 0.17565289
v 1.05855429 0.08322322 0.26469165
v 1.08373773 0.09405712 0.10974544
v 0.95261532 0.13319872 -0.08707785
v 1.02288437 0.00045183 0.01993898
v 0.94838244 0.11129111 0.09613564
v 0.11167049 0.18184136 0.92978764
v 0.38565019 0.08208410 0.91784167
v 0.23617850 0.16229993 0.91187781
v 0.13939461 0.05602331 0.98481995
v 0.13829039 0.05618788 1.11661196
v 0.78805369 0.13698347 0.76832241
v 0.56063539 0.26521626 0.91872889
v 0.68027961 0.21756658 0.86039174
v 0.66516238 0.05695684 0.86629373
v 0.55229294 0.03718118 0.93041664
v 0.13903084 0.43493196 0.98539585
v 0.14528491 0.17682712 1.08303142
v 0.13896541 0.30197024 1.04406393
v 0.27472386 0.38369396 0.98240799
v 0.40408456 0.32117805 0.95935965
v 0.43199962 0.04542391 1.02003837
v 0.43319592 0.17116830 0.99559671
v 0.28906357 0.09739421 1.07068527
v -0.57572645 0.60212612 0.21226636
v -0.46424046 0.49397588 0.46960559
v -0.50897098 0.54407889 0.36220586
v -0.63480866 0.47060788 0.28719234
v -0.70193887 0.36806017 0.35900986
v -0.20507640 0.35439232 0.78589785
v -0.45693231 0.26991320 0.78059679
v -0.34040308 0.29620367 0.82857394
v -0.31498641 0.39149427 0.70892882
v -0.39404911 0.45884189 0.61654401
v -0.84472555 0.07262182 0.62067270
v -0.76752061 0.24167199 0.45480147
v -0.81710273 0.16632949 0.55369079
v -0.72193849 0.11856662 0.69299507
v -0.59678656 0.17418341 0.74698377
v -0.52408522 0.42630041 0.59498650
v -0.53607994 0.27161288 0.67265767
v -0.66769207 0.33114418 0.54514337
v -0.19586723 0.33342525 -0.75865155
v -0.30986187 0.49468985 -0.58040857
v -0.28983244 0.41547456 -0.69129139
v -0.33628878 0.30266643 -0.79869574
v -0.45174488 0.27924380 -0.77055562
v -0.61525518 0.60236764 -0.21815450
v -0.67393994 0.43897739 -0.36080614
v -0.64962471 0.51527548 -0.27294907
v -0.52939254 0.55121738 -0.34078071
v -0.42575800 0.57475448 -0.45533147
v -0.83250433 0.11915261 -0.60045385
v -0.60611737 0.24218427 -0.72619927
v -0.72236812 0.19177116 -0.68457240
v -0.79034370 0.23188090 -0.51099420
v -0.74368382 0.31971505 -0.43904078
v -0.48145697 0.46988308 -0.55950171
v -0.62386340 0.40427583 -0.51230872
v -0.54865539 0.37307769 -0.64717841
v 0.77154481 0.11935424 -0.78067642
v 0.57853770 0.08580597 -0.92705846
v 0.66865003 0.01311487 -0.86304510
v 0.66259611 0.15286973 -0.86305857
v 0.54790181 0.21787305 -0.90631098
v 0.10541602 0.18726750 -0.94381791
v 0.15917310 0.05490529 -1.10079765
v 0.13027041 0.06045339 -1.01840699
v 0.27146286 0.14202222 -0.95140839
v 0.40371013 0.11914724 -0.94754887
v 0.12797706 0.41506183 -0.98143345
v 0.40438429 0.30466574 -0.95846730
v 0.27374545 0.36951217 -0.97634941
v 0.12975971 0.29748583 -1.04435217
v 0.14495409 0.17844279 -1.08703136
v 0.44083416 0.05517053 -1.03582931
v 0.29870784 0.14526051 -1.07787347
v 0.43635282 0.18268885 -1.00963640
v 1.01060092 0.28345934 0.40089124
v 1.08042812 0.29872477 0.09921049
v 1.04993153 0.29768342 0.24942470
v 0.96961308 0.40737435 0.32362828
v 0.92952561 0.49401420 0.23387681
v 0.99430746 0.28943369 -0.38440064
v 0.91599774 0.49797845 -0.28493589
v 0.97761208 0.40465274 -0.33580315
v 1.05266511 0.31358743 -0.23940594
v 1.06851876 0.31897929 -0.08638985
v 0.68090594 0.70241481 -0.02460992
v 0.85449827 0.59501386 0.13517033
v 0.77066052 0.65590543 0.05826755
v 0.76379597 0.66341722 -0.11203936
v 0.83407938 0.59253973 -0.18898132
v 1.03260505 0.41523325 -0.00943985
v 0.94739014 0.51694697 -0.12059981
v 0.95794725 0.52687669 0.05999579
f 330 87 329
f 336 325 26
f 207 208 56
f 464 36 580
f 502 129 504
f 157 624 622
f 308 311 82
f 247 223 248
f 507 483 508
f 331 88 329
f 494 500 497
f 156 601 602
f 591 589 592
f 365 98 596
f 75 281 282
f 152 587 577
f 149 559 560
f 555 121 553
f 530 141 529
f 515 517 139
f 361 594 98
f 250 67 249
f 157 608 609
f 294 293 209
f 317 81 316
f 557 338 26
f 303 305 81
f 530 529 528
f 101 381 382
f 415 418 111
f 192 184 50
f 412 110 411
f 20 384 256
f 131 594 486
f 281 264 282
f 347 287 348
f 28 349 582
f 165 163 1
f 248 250 66
f 617 107 398
f 273 271 274
f 456 115 453
f 558 561 560
f 335 576 91
f 331 177 332
f 116 433 436
f 351 370 92
f 136 511 530
f 239 240 65
f 247 258 19
f 304 23 567
f 148 557 570
f 214 208 58
f 440 426 450
f 268 270 269
f 258 247 268
f 204 202 16
f 466 125 465
f 517 513 133
f 168 275 274
f 275 73 274
f 198 193 53
f 309 308 307
f 510 511 136
f 415 416 110
f 131 490 597
f 473 475 474
f 414 415 111
f 493 495 494
f 496 504 485
f 433 116 432
f 600 375 601
f 240 234 65
f 418 415 412
f 486 361 3
f 567 566 304
f 380 393 29
f 17 199 197
f 491 492 132
f 451 449 435
f 218 217 216
f 623 621 613
f 396 104 395
f 433 439 436
f 628 160 627
f 215 202 217
f 209 207 2
f 427 113 424
f 434 10 544
f 434 433 432
f 199 17 210
f 150 564 565
f 489 491 132
f 275 13 285
f 497 500 134
f 125 466 476
f 578 152 577
f 208 214 211
f 328 88 343
f 356 27 603
f 150 566 567
f 372 100 371
f 190 191 47
f 235 8 398
f 260 261 72
f 422 403 414
f 422 414 111
f 453 454 123
f 349 583 582
f 521 520 519
f 425 453 115
f 616 622 158
f 483 130 508
f 151 586 572
f 212 17 232
f 400 397 402
f 377 396 99
f 41 522 511
f 510 508 505
f 549 547 42
f 475 473 36
f 510 137 509
f 222 221 197
f 430 115 429
f 220 194 1
f 305 54 204
f 621 29 613
f 192 171 184
f 460 335 5
f 88 331 332
f 74 277 279
f 300 301 80
f 390 389 388
f 165 45 164
f 146 549 551
f 291 278 75
f 448 120 445
f 147 543 544
f 607 610 609
f 603 602 356
f 139 529 514
f 333 553 443
f 92 368 347
f 261 260 259
f 300 6 200
f 46 177 331
f 284 283 174
f 301 300 200
f 471 468 474
f 54 305 301
f 302 304 303
f 569 150 567
f 150 569 570
f 294 209 2
f 628 629 160
f 548 543 147
f 147 625 627
f 63 233 234
f 426 427 114
f 41 509 532
f 198 52 196
f 614 105 612
f 147 627 547
f 81 305 306
f 549 548 547
f 54 301 200
f 342 88 332
f 264 281 70
f 193 194 53
f 455 429 456
f 187 321 14
f 479 130 484
f 147 544 625
f 458 456 453
f 304 80 303
f 314 84 313
f 488 503 501
f 321 332 14
f 423 425 424
f 305 204 306
f 341 339 25
f 514 40 516
f 625 628 627
f 340 339 341
f 105 614 391
f 243 228 62
f 318 316 78
f 75 278 279
f 357 355 353
f 238 257 63
f 466 455 476
f 425 423 4
f 448 449 120
f 408 638 108
f 292 275 285
f 22 278 289
f 515 513 517
f 501 503 134
f 622 623 158
f 134 503 504
f 195 216 206
f 163 271 246
f 619 617 620
f 62 228 229
f 163 165 164
f 453 425 454
f 489 132 488
f 82 628 625
f 58 208 209
f 525 608 40
f 626 547 627
f 518 517 498
f 489 487 491
f 557 26 564
f 325 336 344
f 541 145 539
f 40 616 516
f 338 556 89
f 250 248 245
f 139 514 515
f 98 594 596
f 246 220 1
f 112 413 630
f 9 536 413
f 156 600 601
f 332 177 14
f 321 342 332
f 156 606 600
f 584 330 585
f 302 303 81
f 584 87 330
f 330 25 585
f 400 239 65
f 439 440 117
f 95 358 368
f 597 594 131
f 594 361 486
f 246 67 245
f 561 562 149
f 28 364 362
f 55 216 217
f 427 430 114
f 267 20 254
f 556 555 553
f 84 309 558
f 311 310 312
f 609 525 142
f 256 68 255
f 124 460 461
f 82 311 312
f 307 308 82
f 589 135 495
f 527 40 514
f 112 418 412
f 20 256 254
f 258 238 19
f 267 254 269
f 273 272 249
f 392 391 393
f 137 533 509
f 122 455 456
f 9 413 411
f 130 480 505
f 333 443 5
f 527 525 40
f 589 495 385
f 39 496 485
f 223 225 224
f 414 416 415
f 219 222 53
f 145 538 539
f 413 412 411
f 469 468 467
f 183 181 6
f 191 192 50
f 429 35 431
f 292 285 76
f 413 112 412
f 415 110 412
f 43 164 167
f 467 468 126
f 617 101 620
f 450 451 117
f 438 546 545
f 619 620 159
f 17 212 210
f 124 579 576
f 584 153 583
f 460 124 576
f 3 469 467
f 311 308 314
f 6 320 183
f 389 104 388
f 251 250 249
f 194 165 1
f 291 289 278
f 287 77 348
f 238 258 257
f 139 517 518
f 238 236 19
f 223 247 19
f 382 380 29
f 39 518 498
f 361 359 3
f 69 255 257
f 139 518 528
f 33 545 535
f 387 385 7
f 69 268 269
f 477 462 125
f 454 479 123
f 121 555 447
f 451 435 117
f 454 425 4
f 233 252 8
f 124 463 464
f 69 258 268
f 168 167 166
f 583 153 582
f 384 394 102
f 138 512 513
f 57 210 211
f 254 256 255
f 607 609 142
f 324 319 86
f 289 291 76
f 291 292 76
f 384 102 383
f 422 421 420
f 221 17 197
f 383 102 381
f 376 377 99
f 99 373 374
f 386 105 392
f 438 33 440
f 90 341 343
f 281 75 279
f 574 571 96
f 628 82 312
f 221 222 59
f 127 471 474
f 595 605 603
f 551 538 145
f 334 91 340
f 322 324 85
f 305 303 301
f 18 239 399
f 306 204 16
f 199 198 197
f 166 190 180
f 303 80 301
f 267 266 265
f 626 42 547
f 16 215 213
f 349 351 350
f 295 16 213
f 68 379 252
f 250 251 66
f 627 160 626
f 383 68 256
f 343 88 342
f 507 508 136
f 202 215 16
f 197 198 53
f 254 69 269
f 603 605 156
f 418 419 111
f 384 383 256
f 455 122 476
f 203 204 54
f 556 557 148
f 255 68 253
f 313 84 560
f 25 328 341
f 254 255 69
f 603 156 602
f 581 584 583
f 630 632 112
f 163 246 1
f 246 245 220
f 432 116 558
f 499 591 590
f 320 563 86
f 345 93 350
f 306 16 295
f 346 93 345
f 562 568 149
f 604 605 155
f 154 592 593
f 545 552 535
f 511 522 530
f 574 573 571
f 566 150 565
f 361 98 360
f 67 271 273
f 234 235 65
f 208 211 56
f 574 151 573
f 251 270 66
f 398 8 378
f 213 215 214
f 438 440 439
f 315 314 313
f 263 71 262
f 20 373 384
f 496 134 504
f 329 88 328
f 81 306 316
f 555 556 148
f 592 589 103
f 617 619 107
f 227 207 56
f 571 359 96
f 446 466 465
f 206 216 55
f 359 571 469
f 568 148 570
f 34 437 435
f 28 351 349
f 21 272 282
f 113 423 424
f 490 489 488
f 379 68 383
f 210 212 211
f 80 563 300
f 351 92 350
f 326 346 12
f 83 317 318
f 555 148 554
f 212 231 56
f 218 57 217
f 271 67 246
f 195 196 52
f 270 268 66
f 390 592 103
f 148 568 554
f 495 493 7
f 592 390 593
f 357 95 355
f 574 575 151
f 452 120 451
f 154 591 592
f 587 585 577
f 395 394 396
f 93 349 350
f 610 416 611
f 166 44 190
f 315 23 302
f 315 302 317
f 268 247 66
f 606 154 593
f 396 394 99
f 211 212 56
f 370 369 368
f 235 397 65
f 280 278 22
f 83 315 317
f 575 588 151
f 74 279 280
f 385 495 7
f 63 257 253
f 397 235 398
f 214 58 213
f 220 219 194
f 546 146 545
f 236 225 19
f 599 94 602
f 235 233 8
f 102 394 395
f 611 416 32
f 225 223 19
f 139 528 529
f 231 62 229
f 419 406 421
f 451 450 452
f 49 182 185
f 402 397 107
f 52 199 218
f 416 610 110
f 225 236 244
f 107 397 398
f 68 252 253
f 322 85 321
f 182 181 183
f 118 438 439
f 546 438 118
f 348 77 345
f 543 546 118
f 231 212 232
f 610 611 157
f 33 438 545
f 385 386 103
f 479 480 130
f 169 195 15
f 93 583 349
f 15 195 206
f 190 44 192
f 247 248 66
f 146 552 545
f 248 60 245
f 570 557 564
f 274 271 43
f 63 253 233
f 272 21 249
f 507 528 518
f 67 273 249
f 487 467 126
f 196 195 169
f 624 159 623
f 134 496 497
f 132 503 488
f 104 393 395
f 556 553 89
f 355 356 94
f 258 69 257
f 229 61 227
f 56 231 227
f 460 576 335
f 463 124 461
f 394 373 99
f 29 393 391
f 67 250 245
f 193 198 196
f 462 36 464
f 144 633 630
f 141 526 527
f 517 133 498
f 536 144 630
f 100 372 599
f 144 536 537
f 22 289 287
f 578 579 152
f 579 578 576
f 189 188 187
f 60 223 224
f 92 348 350
f 555 554 447
f 396 377 388
f 194 193 165
f 413 536 630
f 372 352 599
f 377 376 375
f 348 345 350
f 105 386 387
f 240 237 234
f 463 462 464
f 135 500 494
f 45 196 169
f 512 612 387
f 245 60 220
f 429 115 456
f 223 60 248
f 288 289 76
f 525 526 142
f 100 599 601
f 613 29 391
f 526 523 520
f 341 328 343
f 631 641 639
f 264 21 282
f 266 72 265
f 106 402 403
f 73 273 274
f 186 206 205
f 381 379 383
f 52 216 195
f 410 18 399
f 290 272 73
f 72 371 374
f 526 525 527
f 115 430 424
f 498 497 496
f 621 382 29
f 543 118 434
f 214 215 57
f 522 141 530
f 511 510 509
f 352 94 599
f 493 512 7
f 90 340 341
f 169 171 170
f 605 604 606
f 219 60 224
f 104 389 392
f 359 469 3
f 186 49 185
f 222 219 224
f 166 167 44
f 428 427 426
f 523 522 524
f 129 502 481
f 50 185 188
f 164 45 170
f 425 115 424
f 33 428 426
f 427 428 113
f 94 356 602
f 515 138 513
f 114 431 452
f 237 236 238
f 215 217 57
f 95 354 355
f 220 60 219
f 515 514 516
f 183 320 319
f 222 197 53
f 559 569 567
f 300 320 6
f 435 436 117
f 96 360 363
f 640 642 641
f 242 243 62
f 140 537 519
f 508 130 505
f 420 410 399
f 537 539 144
f 317 316 318
f 426 114 450
f 186 15 206
f 311 83 310
f 625 544 307
f 544 10 307
f 168 43 167
f 185 182 188
f 369 354 95
f 44 171 192
f 605 606 156
f 548 549 146
f 100 601 375
f 149 568 569
f 381 380 382
f 455 466 35
f 480 479 454
f 543 548 546
f 493 133 513
f 492 472 37
f 477 125 476
f 491 487 126
f 337 336 338
f 588 153 587
f 576 578 91
f 633 161 632
f 96 359 360
f 39 485 483
f 101 617 378
f 193 45 165
f 163 164 43
f 618 624 611
f 507 136 528
f 561 149 560
f 641 162 639
f 116 561 558
f 494 133 493
f 253 252 233
f 63 237 238
f 392 393 104
f 440 450 117
f 93 581 583
f 386 385 387
f 120 449 451
f 421 422 111
f 486 3 467
f 302 81 317
f 633 632 630
f 462 475 36
f 376 99 374
f 489 490 131
f 447 449 448
f 387 612 105
f 106 420 399
f 173 46 172
f 492 491 472
f 316 306 295
f 22 287 347
f 109 410 420
f 507 39 483
f 559 23 313
f 214 57 211
f 196 45 193
f 10 434 432
f 422 106 403
f 626 160 640
f 487 486 467
f 542 41 532
f 400 106 399
f 444 120 452
f 198 199 52
f 475 127 474
f 621 620 382
f 621 623 159
f 450 114 452
f 92 347 348
f 376 100 375
f 434 118 433
f 503 132 502
f 337 90 336
f 537 536 519
f 395 393 380
f 201 54 200
f 171 44 170
f 355 94 353
f 58 296 213
f 422 420 106
f 595 365 596
f 569 568 570
f 523 140 520
f 114 430 431
f 218 210 57
f 304 566 80
f 639 162 638
f 261 371 72
f 548 147 547
f 498 133 497
f 150 570 564
f 222 224 59
f 142 526 520
f 437 436 435
f 141 522 523
f 137 510 505
f 173 179 176
f 559 149 569
f 121 447 448
f 563 320 300
f 102 395 380
f 257 255 253
f 642 162 641
f 83 311 314
f 216 52 218
f 512 493 513
f 23 304 302
f 91 339 340
f 512 138 612
f 159 620 621
f 218 199 210
f 364 28 575
f 83 318 310
f 168 274 43
f 136 530 528
f 140 523 524
f 495 135 494
f 233 235 234
f 566 563 80
f 25 339 577
f 277 74 276
f 475 462 477
f 133 494 497
f 436 437 116
f 389 386 392
f 548 146 546
f 441 460 5
f 10 309 307
f 65 397 400
f 543 434 544
f 640 641 161
f 272 273 73
f 581 93 346
f 419 421 111
f 319 320 86
f 180 179 178
f 127 475 477
f 231 229 227
f 337 334 340
f 136 508 510
f 308 309 84
f 237 63 234
f 447 554 34
f 252 379 378
f 315 83 314
f 608 622 616
f 338 336 26
f 337 338 89
f 13 275 168
f 209 208 207
f 436 439 117
f 628 312 629
f 360 366 363
f 364 574 96
f 359 361 360
f 466 446 35
f 500 501 134
f 406 109 421
f 135 589 591
f 601 599 602
f 340 90 337
f 481 492 37
f 522 41 524
f 78 316 295
f 131 486 487
f 403 32 414
f 634 626 640
f 151 572 573
f 515 516 138
f 8 252 378
f 265 72 374
f 9 521 519
f 538 549 42
f 368 358 347
f 588 587 586
f 458 453 123
f 589 385 103
f 502 492 481
f 32 416 414
f 430 427 424
f 153 585 587
f 540 144 539
f 370 368 92
f 209 293 58
f 428 33 535
f 326 581 346
f 625 307 82
f 575 28 582
f 6 181 200
f 421 109 420
f 553 121 443
f 160 642 640
f 153 584 585
f 309 432 558
f 334 337 89
f 23 315 313
f 271 163 43
f 296 295 213
f 39 498 496
f 118 439 433
f 531 113 534
f 293 296 58
f 28 362 351
f 489 131 487
f 431 444 452
f 84 558 560
f 98 366 360
f 45 169 170
f 379 101 378
f 462 463 125
f 308 84 314
f 10 432 309
f 299 24 310
f 132 492 502
f 512 387 7
f 639 638 408
f 565 323 86
f 59 244 242
f 106 400 402
f 440 33 426
f 566 565 563
f 617 398 378
f 224 225 59
f 410 109 409
f 239 400 399
f 194 219 53
f 358 22 347
f 610 157 609
f 27 595 603
f 479 484 482
f 142 520 521
f 585 25 577
f 339 578 577
f 408 407 406
f 407 109 406
f 31 408 406
f 407 408 108
f 31 639 408
f 419 31 406
f 608 616 40
f 430 429 431
f 455 35 429
f 35 444 431
f 188 51 187
f 188 182 51
f 51 322 187
f 322 51 319
f 51 182 183
f 319 51 183
f 187 322 321
f 322 319 324
f 381 101 379
f 405 407 108
f 404 405 108
f 286 285 178
f 407 405 409
f 109 407 409
f 191 175 47
f 167 164 170
f 50 184 185
f 44 167 170
f 64 244 236
f 243 244 64
f 50 188 189
f 541 542 145
f 442 445 119
f 339 91 578
f 445 446 119
f 624 623 622
f 611 624 157
f 523 526 141
f 141 527 529
f 527 514 529
f 445 120 444
f 446 445 444
f 35 446 444
f 613 614 158
f 158 614 615
f 623 613 158
f 614 613 391
f 614 612 615
f 371 376 374
f 100 376 371
f 479 482 123
f 373 394 384
f 540 42 634
f 633 540 634
f 538 42 540
f 633 634 161
f 161 634 640
f 42 626 634
f 540 633 144
f 557 556 338
f 553 333 89
f 262 21 264
f 251 21 262
f 5 335 333
f 270 251 262
f 21 251 249
f 600 593 30
f 606 593 600
f 600 30 375
f 593 390 30
f 30 377 375
f 390 388 30
f 30 388 377
f 228 243 241
f 470 478 459
f 470 127 478
f 127 477 478
f 184 186 185
f 478 477 476
f 122 478 476
f 357 74 280
f 518 39 507
f 344 342 85
f 325 344 85
f 342 344 343
f 85 342 321
f 344 90 343
f 90 344 336
f 482 129 481
f 482 481 457
f 482 457 123
f 481 37 457
f 449 447 34
f 435 449 34
f 470 472 471
f 472 470 37
f 470 471 127
f 472 126 471
f 126 468 471
f 470 459 37
f 491 126 472
f 504 129 485
f 221 59 242
f 125 463 465
f 437 34 562
f 561 437 562
f 554 568 562
f 34 554 562
f 437 561 116
f 390 103 389
f 103 386 389
f 392 105 391
f 572 586 580
f 572 580 36
f 586 152 580
f 473 572 36
f 244 243 242
f 225 244 59
f 64 240 241
f 240 239 241
f 237 240 64
f 243 64 241
f 236 237 64
f 411 607 521
f 9 411 521
f 110 607 411
f 607 142 521
f 610 607 110
f 171 15 184
f 171 169 15
f 15 186 184
f 87 584 581
f 153 588 582
f 588 575 582
f 381 102 380
f 573 572 473
f 468 469 128
f 474 468 128
f 469 571 128
f 571 573 128
f 573 473 128
f 473 474 128
f 564 323 565
f 26 323 564
f 323 324 86
f 325 323 26
f 325 324 323
f 563 565 86
f 324 325 85
f 410 230 18
f 230 228 18
f 18 228 241
f 18 241 239
f 401 619 618
f 401 402 107
f 403 402 401
f 619 159 618
f 401 618 32
f 619 401 107
f 403 401 32
f 618 611 32
f 159 624 618
f 478 122 459
f 122 458 459
f 37 459 457
f 459 458 457
f 122 456 458
f 457 458 123
f 191 190 192
f 485 129 484
f 129 482 484
f 483 485 484
f 130 483 484
f 189 187 14
f 191 50 189
f 191 189 175
f 189 14 175
f 14 177 175
f 499 501 500
f 501 499 38
f 38 499 590
f 135 499 500
f 488 501 38
f 499 135 591
f 480 454 4
f 284 12 346
f 4 423 506
f 480 4 506
f 423 531 506
f 480 506 505
f 531 137 506
f 506 137 505
f 365 366 98
f 71 270 262
f 270 71 269
f 71 267 269
f 335 334 333
f 333 334 89
f 334 335 91
f 536 9 519
f 465 463 461
f 537 140 541
f 520 140 519
f 119 446 465
f 465 461 119
f 461 441 119
f 460 441 461
f 176 46 173
f 299 297 24
f 71 263 266
f 263 260 266
f 260 72 266
f 263 70 260
f 205 201 49
f 201 181 49
f 186 205 49
f 181 201 200
f 181 182 49
f 284 77 283
f 586 587 152
f 588 586 151
f 20 267 265
f 266 267 71
f 31 417 631
f 631 417 632
f 31 631 639
f 417 31 419
f 641 631 161
f 417 112 632
f 161 631 632
f 418 417 419
f 417 418 112
f 284 345 77
f 542 550 145
f 542 541 524
f 284 174 12
f 48 174 283
f 373 20 265
f 373 265 374
f 609 608 525
f 608 157 622
f 560 559 313
f 636 637 162
f 541 140 524
f 41 542 524
f 358 357 280
f 70 263 264
f 263 262 264
f 176 177 46
f 174 48 173
f 174 173 172
f 538 551 549
f 538 540 539
f 537 541 539
f 232 221 242
f 17 221 232
f 232 242 62
f 231 232 62
f 203 205 55
f 203 55 202
f 201 205 203
f 202 55 217
f 205 206 55
f 204 203 202
f 73 275 292
f 292 290 73
f 272 290 282
f 290 292 291
f 75 290 291
f 290 75 282
f 70 277 259
f 277 70 281
f 277 281 279
f 260 70 259
f 12 174 172
f 104 396 388
f 367 27 354
f 365 27 367
f 354 27 356
f 365 367 366
f 595 27 365
f 318 299 310
f 155 596 597
f 155 597 598
f 596 594 597
f 595 596 155
f 605 595 155
f 180 47 179
f 180 190 47
f 352 372 11
f 11 372 261
f 312 310 24
f 642 636 162
f 636 297 637
f 367 369 97
f 366 367 97
f 369 367 354
f 369 370 97
f 580 579 464
f 580 152 579
f 579 124 464
f 61 230 409
f 230 410 409
f 230 61 229
f 230 229 228
f 76 285 286
f 353 352 276
f 74 353 276
f 288 76 286
f 288 286 283
f 289 288 287
f 203 54 201
f 287 288 77
f 77 288 283
f 286 48 283
f 531 423 113
f 276 11 259
f 11 261 259
f 277 276 259
f 616 158 615
f 516 616 615
f 138 516 615
f 138 615 612
f 509 533 532
f 503 502 504
f 635 79 294
f 635 294 404
f 635 637 79
f 637 635 638
f 638 635 108
f 635 404 108
f 226 61 405
f 61 226 227
f 405 61 409
f 227 226 207
f 48 178 179
f 48 286 178
f 173 48 179
f 534 143 533
f 534 535 143
f 531 534 533
f 533 143 532
f 137 531 533
f 261 372 371
f 13 180 178
f 285 13 178
f 180 13 166
f 13 168 166
f 346 345 284
f 331 327 46
f 46 327 172
f 172 327 326
f 382 620 101
f 442 121 448
f 443 121 442
f 2 226 404
f 294 2 404
f 404 226 405
f 207 226 2
f 550 551 145
f 552 146 551
f 143 550 532
f 552 550 143
f 330 329 328
f 24 636 629
f 94 352 353
f 352 11 276
f 113 428 534
f 428 535 534
f 509 41 511
f 535 552 143
f 550 552 551
f 550 542 532
f 369 95 368
f 326 327 87
f 87 327 329
f 327 331 329
f 581 326 87
f 293 79 298
f 79 297 298
f 296 298 78
f 79 293 294
f 296 293 298
f 598 490 38
f 358 280 22
f 280 279 278
f 357 358 95
f 74 357 353
f 330 328 25
f 567 23 559
f 590 598 38
f 590 604 598
f 598 604 155
f 604 590 154
f 590 591 154
f 604 154 606
f 297 299 298
f 299 318 78
f 298 299 78
f 355 354 356
f 629 636 642
f 312 24 629
f 629 642 160
f 370 362 97
f 362 363 97
f 363 366 97
f 364 363 362
f 362 370 351
f 96 363 364
f 297 636 24
f 162 637 638
f 637 297 79
f 490 488 38
f 598 597 490
f 441 442 119
f 443 442 441
f 443 441 5
f 442 448 445
f 296 78 295
f 326 12 172
f 575 574 364
f 47 175 176
f 175 177 176
f 47 176 179
