# FEM surface export ¡ª frame 556
# Vertices: 642  Faces: 1280
v -0.51798260 0.89163667 0.00196945
v 0.51889884 0.89537889 0.00516454
v -0.51782805 0.42104802 0.00477905
v 0.48336181 0.36164656 0.02090678
v -0.00754676 0.19099875 0.91480696
v -0.00258155 0.60516155 0.83812797
v 0.01390912 0.13145791 -0.89906585
v 0.00011200 0.60430652 -0.84072578
v 0.93389827 0.21483961 -0.58361024
v 0.92664129 0.21017066 0.56324190
v -0.91939682 0.20463984 -0.57402664
v -0.91633749 0.20799780 0.58858830
v -0.79474372 0.58250707 0.30911115
v -0.49276975 0.42611361 0.82252556
v -0.30373731 0.85128790 0.49176043
v 0.30847177 0.85234928 0.48953682
v -0.00145832 1.02514446 -0.00102705
v 0.30317217 0.85095900 -0.49043208
v -0.30251208 0.85131693 -0.49036795
v -0.51065284 0.44055969 -0.81590420
v -0.79832500 0.57761157 -0.29408848
v -1.09579945 0.20066753 0.01142437
v 0.50738543 0.43874079 0.82192117
v 0.80563700 0.57566386 0.30053717
v -0.60223001 0.00443963 0.91595048
v 0.00896625 0.20491511 1.08538938
v -0.87452519 0.18190402 -0.34138885
v -0.88653719 0.14858271 0.33167875
v -0.01178104 0.19580920 -1.09603775
v -0.58171701 0.00000000 -0.92472649
v 0.80139911 0.58364457 -0.30799049
v 0.50159472 0.43394387 -0.82336873
v 0.87543756 0.15229036 0.35999560
v 0.56772918 0.00099221 0.94164354
v 0.31187719 0.29785824 0.48548982
v -0.29980281 0.36255762 0.48026589
v 0.01109705 0.12510046 0.04311775
v -0.29361540 0.13260463 -0.51839685
v 0.32006043 0.18756272 -0.50645518
v 0.56615406 0.02402815 -0.90545624
v 0.86782140 0.17576720 -0.33644316
v 1.09797227 0.21215829 -0.01690202
v -0.67861086 0.75482315 0.15701392
v -0.57789838 0.73935330 0.41738167
v -0.42768580 0.90171945 0.25611058
v -0.71363163 0.32308406 0.74022162
v -0.67912132 0.51950997 0.59266806
v -0.86986947 0.39515880 0.45673081
v -0.15843977 0.74720258 0.68819183
v -0.41515222 0.65064508 0.67671174
v -0.25425974 0.52240479 0.85564643
v -0.16108225 0.98284209 0.25827339
v -0.26998159 0.99276888 -0.00103228
v 0.15722695 0.75261343 0.68719041
v 0.00148765 0.89305228 0.51572448
v 0.26826462 0.99390918 0.00102439
v 0.15959504 0.98490477 0.25861454
v 0.42783096 0.90189666 0.25637266
v -0.16090491 0.98104125 -0.25690135
v -0.42552093 0.90003020 -0.25519350
v 0.42562672 0.90557802 -0.25325632
v 0.15783423 0.98290867 -0.25674954
v -0.16078828 0.74253416 -0.68553537
v -0.00072868 0.89042878 -0.51563716
v 0.16109526 0.74751407 -0.68744105
v -0.57754070 0.73822123 -0.41046751
v -0.68065625 0.75234461 -0.15338965
v -0.26355129 0.52746177 -0.85255390
v -0.42767417 0.64940560 -0.66875798
v -0.89242214 0.39802444 -0.43419322
v -0.69251037 0.52450347 -0.57526481
v -0.73551369 0.33339667 -0.71468300
v -0.83548695 0.60655010 0.00820768
v -1.04223788 0.19651636 -0.29108453
v -0.97999245 0.39326459 -0.15546566
v -0.96446025 0.39628237 0.17834039
v -1.03491354 0.19706926 0.30492565
v 0.58366263 0.74025613 0.41805312
v 0.68591410 0.75444126 0.15871257
v 0.25521424 0.53923959 0.85931933
v 0.42203513 0.66224760 0.67659199
v 0.87359226 0.39576063 0.43793401
v 0.68991411 0.52221984 0.58512372
v 0.73433876 0.31946689 0.70709199
v -0.26113138 0.31410673 0.99261510
v 0.00321822 0.41040811 0.98452407
v -0.79373419 0.08481214 0.79360634
v -0.55582666 0.19000188 0.92819774
v -0.02342567 0.01772832 1.09316695
v -0.29434898 0.09345870 1.08045149
v -0.31172180 0.11564543 0.95100737
v -1.12218475 0.00218002 0.18241790
v -1.01649988 0.05754953 0.48501474
v -0.99345684 0.00236996 -0.49227008
v -1.09684718 0.02687700 -0.20267396
v -0.72473127 0.32214192 0.15561439
v -0.91501081 0.20027341 -0.02299619
v -0.71871847 0.32022509 -0.16210496
v -0.58233142 0.21360423 -0.92492259
v -0.79693848 0.08422915 -0.79178894
v -0.00922927 0.40603369 -0.97890115
v -0.28353912 0.32450458 -0.99683744
v -0.27796710 0.07448199 -0.95614362
v -0.30732477 0.08629530 -1.09903407
v 0.00813234 0.00694497 -1.12379026
v 0.42614001 0.65083957 -0.67133665
v 0.26233307 0.53270441 -0.86056793
v 0.68423331 0.75799602 -0.15305930
v 0.57981706 0.74051893 -0.41021642
v 0.73062491 0.33037537 -0.73751491
v 0.69070911 0.51571864 -0.58806062
v 0.89206296 0.39684263 -0.45255029
v 0.68858522 0.24877967 0.17001344
v 0.60224342 0.19308442 0.46575209
v 0.45927918 0.29267225 0.28632364
v 0.79525822 0.08540441 0.78486168
v 0.74515229 0.06945718 0.66879994
v 1.00426793 0.03275917 0.50806057
v 0.14992948 0.29902017 0.70357764
v 0.43891656 0.20835727 0.74737108
v 0.28297928 0.05637846 0.95149958
v 0.17316282 0.40182987 0.22390907
v 0.30959857 0.11786364 0.00469956
v -0.17206797 0.25623736 0.69205630
v 0.00598237 0.39367279 0.49947777
v -0.28084418 0.21445882 0.08142016
v -0.12875420 0.21516789 0.29385480
v -0.39758238 0.41386020 0.24266520
v 0.14100687 0.15591887 -0.24844602
v 0.46638966 0.21249624 -0.23002918
v -0.41020131 0.25861838 -0.24229737
v -0.18653782 0.08967197 -0.19530666
v 0.15954185 0.23016614 -0.73686022
v 0.00537660 0.13019235 -0.50999635
v -0.16954078 0.20143124 -0.73968691
v 0.59987205 0.27700850 -0.41638002
v 0.69006425 0.26243436 -0.15402918
v 0.29479167 0.11925480 -0.93705225
v 0.46065184 0.23847392 -0.69599426
v 1.00858247 0.00080662 -0.49512208
v 0.75476933 0.10009818 -0.61831671
v 0.80935746 0.10432225 -0.79672289
v 0.88645095 0.18547657 -0.00757061
v 1.05374396 0.19254465 -0.31667617
v 1.10360634 0.00000000 -0.19046888
v 1.12012267 0.07141045 0.18698969
v 1.04520917 0.20570467 0.28311551
v 0.30404466 0.08951943 1.07842231
v 0.57878280 0.21269150 0.91098964
v 0.27804509 0.33623666 0.98449856
v -0.61632848 0.31382293 0.42520690
v -0.47040629 0.17254624 0.72779739
v -0.79536963 0.02341566 0.61848468
v -0.45563906 0.15767376 -0.72394818
v -0.59599870 0.29297075 -0.44128525
v -0.75708187 0.12726128 -0.65550303
v 0.56021553 0.21557751 -0.94679672
v 0.30213732 0.09469772 -1.09901524
v 0.26665699 0.32812962 -1.00453210
v 0.96979153 0.39351180 0.16143000
v 0.96531743 0.39136097 -0.17644002
v 0.84634316 0.60323405 -0.00374306
v -0.60604733 0.82807201 0.08072887
v -0.56308681 0.83462775 0.21138594
v -0.47892427 0.90363061 0.13077757
v -0.69547403 0.66164833 0.36707306
v -0.63544869 0.75287813 0.29183152
v -0.74215633 0.67112797 0.23403896
v -0.37012953 0.88332230 0.37751448
v -0.50714618 0.82607943 0.34070542
v -0.44731373 0.80295289 0.45838106
v -0.81900173 0.26918548 0.67538834
v -0.80833781 0.36322558 0.60603464
v -0.89789641 0.30280536 0.52932042
v -0.59443331 0.47556317 0.71164513
v -0.70571727 0.42445999 0.66553599
v -0.60580862 0.37213674 0.78507328
v -0.83749348 0.49078384 0.38201380
v -0.78498226 0.46317962 0.52720326
v -0.74819273 0.54928184 0.45333365
v -0.08356644 0.68176126 0.76951748
v -0.21055059 0.63512766 0.77449709
v -0.13072957 0.56680143 0.85308671
v -0.36671075 0.75825804 0.59009284
v -0.29041189 0.70831966 0.68745279
v -0.23332730 0.80574161 0.59604359
v -0.37594932 0.47825837 0.84454483
v -0.33747172 0.59009027 0.76979643
v -0.46069112 0.54016721 0.75334620
v -0.63735521 0.62887597 0.50932765
v -0.55445331 0.58959961 0.64092863
v -0.50490528 0.70140690 0.55251318
v -0.35347548 0.95920777 0.12935916
v -0.39705199 0.95248181 -0.00003573
v -0.23699571 0.92749524 0.37897983
v -0.29690108 0.95047545 0.25894400
v -0.13716732 1.01578283 -0.00108359
v -0.21798666 0.99694335 0.12895872
v -0.08240623 1.01512837 0.12974606
v 0.07674456 0.68635893 0.77085996
v -0.00083028 0.75935709 0.69626951
v 0.15737478 0.88448924 0.50938487
v 0.08114661 0.83052176 0.60767859
v 0.23527920 0.80972010 0.59497702
v -0.08005704 0.82798415 0.60901403
v -0.15374216 0.88215733 0.51044643
v 0.39707625 0.95450723 0.00404720
v 0.35325381 0.96107835 0.13249949
v 0.47842678 0.90459061 0.13138258
v 0.07947387 1.01543474 0.13034751
v 0.21512248 0.99766374 0.13022025
v 0.13384156 1.01853669 0.00037108
v 0.37206835 0.88460559 0.37652573
v 0.29624629 0.95381564 0.26084706
v 0.23711012 0.92929381 0.38009506
v -0.08192505 0.94955456 0.39233452
v 0.08129872 0.94977874 0.39294577
v -0.00136711 0.99536747 0.26131877
v -0.35087985 0.95620871 -0.12997018
v -0.47460568 0.90278333 -0.12793699
v -0.08244962 1.01483798 -0.13014112
v -0.21685219 0.99436617 -0.13112240
v -0.36815950 0.88462305 -0.37666669
v -0.29634720 0.94954133 -0.25994736
v -0.23198864 0.92533523 -0.37823987
v 0.47612676 0.90901959 -0.12546115
v 0.35169387 0.96239281 -0.12721613
v 0.23456924 0.92941970 -0.37863296
v 0.29467031 0.95136136 -0.25767049
v 0.36810297 0.88435918 -0.37565815
v 0.21469341 0.99691564 -0.12839599
v 0.07914732 1.01655018 -0.13006707
v -0.08209310 0.67644203 -0.77056009
v -0.00264656 0.75424969 -0.69582450
v 0.07985700 0.68117964 -0.76810980
v -0.15299742 0.87726551 -0.50853801
v -0.08169989 0.82231200 -0.60682130
v -0.23290345 0.80218822 -0.59415555
v 0.23445153 0.80551064 -0.59388077
v 0.07967237 0.82429415 -0.60801673
v 0.15331878 0.88271004 -0.50958425
v -0.00156463 0.99521083 -0.26062077
v 0.07995856 0.94957131 -0.39248011
v -0.08078372 0.94774485 -0.39133674
v -0.55987787 0.83527905 -0.20802616
v -0.60509425 0.83018529 -0.07880840
v -0.44566545 0.80462718 -0.45581979
v -0.50810856 0.82773662 -0.33835712
v -0.74496388 0.66583782 -0.22366987
v -0.63558036 0.75194854 -0.28467992
v -0.69524151 0.66382569 -0.35542473
v -0.13193478 0.56871736 -0.85435522
v -0.21482018 0.63740152 -0.77455038
v -0.46981928 0.54633927 -0.74259841
v -0.34925535 0.58873612 -0.76534069
v -0.38740021 0.47916150 -0.84004289
v -0.29739633 0.70049161 -0.68504167
v -0.36725116 0.75422615 -0.58654559
v -0.91681260 0.30717260 -0.50617051
v -0.82457322 0.37390289 -0.58340752
v -0.83542567 0.26532507 -0.64886981
v -0.75428015 0.55598503 -0.43858200
v -0.79908371 0.46527496 -0.50483531
v -0.85148990 0.48676288 -0.36309287
v -0.62736839 0.38065228 -0.77470154
v -0.71853948 0.43074149 -0.64828843
v -0.60933930 0.48483497 -0.70324117
v -0.50657630 0.70831829 -0.54678005
v -0.56394827 0.59160542 -0.62400210
v -0.63972026 0.63558859 -0.49497023
v -0.68882543 0.76182222 0.00094948
v -0.82642454 0.59534526 -0.14546680
v -0.76450586 0.67766541 -0.07560960
v -0.76203901 0.67869818 0.08152299
v -0.82390362 0.60043234 0.16274953
v -0.99279636 0.20666398 -0.43835855
v -0.97815830 0.30004475 -0.37173426
v -1.03261542 0.28868085 -0.08169822
v -1.01441360 0.29530984 -0.22754577
v -1.07733500 0.19055739 -0.14336449
v -0.94420773 0.40046719 -0.29647535
v -0.89688748 0.48822349 -0.22491406
v -0.96127564 0.29601279 0.39080739
v -0.98691654 0.19903909 0.45237082
v -0.88460737 0.49253944 0.24598959
v -0.92261338 0.40314791 0.32095370
v -1.06987059 0.21358103 0.15638658
v -1.00625777 0.30323824 0.24469519
v -1.03557241 0.30986285 0.09109309
v -0.91334915 0.50662923 -0.07092154
v -0.97966844 0.40356249 0.00819150
v -0.91131127 0.50775379 0.09174538
v 0.56468987 0.83754963 0.21204808
v 0.60937440 0.83138293 0.08422528
v 0.45200983 0.80423796 0.45875442
v 0.51281917 0.82788748 0.34108475
v 0.75138044 0.66895068 0.23283085
v 0.64138395 0.75456333 0.29183283
v 0.70283777 0.66166621 0.36538848
v 0.12783664 0.57852292 0.85665870
v 0.20666260 0.65149689 0.78204566
v 0.46514603 0.55431676 0.75815439
v 0.33987230 0.60580242 0.77319986
v 0.38169414 0.49010688 0.84905493
v 0.29336253 0.71377850 0.69378704
v 0.36906904 0.76578265 0.59135634
v 0.90564013 0.28801307 0.49880627
v 0.81049955 0.34989136 0.57278121
v 0.83048588 0.25638399 0.63579482
v 0.75418895 0.55383080 0.44916078
v 0.78980064 0.45582771 0.51389724
v 0.84420329 0.48193145 0.36956221
v 0.62977731 0.38729459 0.77025098
v 0.70477831 0.41902146 0.64345396
v 0.60414553 0.48530748 0.71192491
v 0.50946492 0.70784712 0.55486512
v 0.56093466 0.59942961 0.64041471
v 0.64073491 0.63651228 0.50764817
v -0.12798023 0.46960256 0.92742759
v 0.00112139 0.50751287 0.91405112
v -0.38238472 0.37191248 0.91472155
v -0.25609842 0.41956425 0.92764944
v 0.00622880 0.30321538 1.04223502
v -0.12605417 0.36015934 0.99726897
v -0.13570774 0.25443864 1.05219090
v -0.86357832 0.14511719 0.69218612
v -0.76315975 0.19865564 0.77451462
v -0.59190935 0.08647936 0.95515615
v -0.68159586 0.13756265 0.86771423
v -0.70704687 0.00217322 0.87275463
v -0.64287418 0.25120249 0.84127402
v -0.52523077 0.30973411 0.88530868
v -0.02403585 0.10532822 1.00672698
v -0.17544809 0.10201639 1.03603625
v -0.16156892 0.15118866 0.92019099
v -0.13082597 0.14723252 1.10880327
v -0.16136436 0.01626233 1.09652293
v 0.00205991 0.10651638 1.13247919
v -0.44833151 0.10071839 0.90863132
v -0.33671638 0.01405322 1.04419279
v -0.46180373 0.03346199 1.01612282
v -0.40715399 0.24724333 0.97079355
v -0.43462804 0.12910196 1.01600623
v -0.27533624 0.19595443 1.05004179
v -1.04803801 0.10525547 0.40448394
v -0.97538382 0.11297863 0.55263597
v -1.10674000 0.09238760 0.08977452
v -1.08617437 0.10798489 0.24183828
v -0.95555454 0.06629123 0.39705202
v -1.06862259 0.01032513 0.33634913
v -0.99943048 0.07910019 0.24606681
v -0.97730154 0.09384276 -0.55858761
v -1.03634191 0.10827772 -0.41410613
v -0.98029602 0.10701002 -0.27759889
v -1.03931093 0.00944097 -0.35645604
v -0.94666904 0.10988937 -0.42519021
v -1.08118975 0.09154708 -0.25323084
v -1.12481117 0.10306764 -0.09749151
v -0.61868632 0.38748810 0.08767962
v -0.71554703 0.35210615 0.00375848
v -0.60695010 0.35916370 -0.09098928
v -0.91465729 0.18427265 0.14428689
v -0.83096725 0.28917816 0.07842672
v -0.80472797 0.23534065 0.25626308
v -0.78210402 0.24116080 -0.26795822
v -0.81442887 0.30611441 -0.10296421
v -0.86555725 0.22147992 -0.17926927
v -1.12081981 0.00083279 -0.01071513
v -0.98866063 0.07752998 -0.10503509
v -0.99629134 0.07592880 0.07553598
v -0.78453982 0.20888840 -0.75223434
v -0.87228060 0.11525479 -0.67908496
v -0.54893655 0.32435983 -0.87272054
v -0.66599452 0.26113045 -0.82077914
v -0.68618369 0.01055107 -0.84693587
v -0.70095921 0.15015303 -0.87328541
v -0.59785324 0.10217704 -0.96100545
v -0.00203118 0.50697798 -0.91356361
v -0.13722496 0.46706334 -0.92556995
v -0.14859626 0.26171049 -1.05644357
v -0.14287601 0.35985723 -0.99518877
v -0.00701864 0.30653238 -1.03988707
v -0.26952818 0.42633975 -0.92852163
v -0.39657474 0.38348684 -0.90924424
v -0.11467987 0.07708941 -0.94612563
v -0.12150886 0.00000000 -1.04251468
v 0.01934635 0.07401933 -1.01567066
v -0.44866651 0.05640145 -1.04642820
v -0.29484800 0.00000000 -1.05651522
v -0.43659431 0.00330727 -0.94517863
v -0.01853720 0.08736605 -1.13108492
v -0.16225266 0.02449458 -1.14017701
v -0.16117017 0.13736287 -1.11146247
v -0.43559310 0.27562943 -0.97007704
v -0.29961327 0.20993252 -1.05485702
v -0.44880328 0.14903946 -1.01679170
v 0.21241225 0.64442092 -0.77999228
v 0.13149275 0.57254177 -0.85763633
v 0.36832860 0.75811267 -0.58689648
v 0.29632446 0.70539474 -0.68711203
v 0.38718218 0.48339069 -0.84825224
v 0.34722313 0.59556490 -0.77041149
v 0.46864647 0.54584080 -0.74817973
v 0.60778278 0.83559811 -0.07571375
v 0.56124383 0.84002954 -0.20477195
v 0.69525671 0.66806740 -0.35915664
v 0.63853949 0.75424379 -0.28381145
v 0.74619579 0.67214811 -0.22980426
v 0.50738454 0.83018416 -0.33647966
v 0.44646874 0.80269128 -0.45731509
v 0.84034866 0.27999973 -0.66701174
v 0.82824594 0.36477831 -0.60229963
v 0.92364514 0.29789156 -0.51734173
v 0.60253352 0.48235959 -0.71360093
v 0.71338284 0.41739300 -0.66991848
v 0.61853337 0.37990811 -0.79179931
v 0.84668857 0.49079520 -0.38376996
v 0.79435420 0.46056038 -0.52977365
v 0.75523746 0.55931300 -0.45090884
v 0.51144361 0.70191336 -0.54929966
v 0.64368755 0.63245744 -0.50196695
v 0.56584185 0.58716053 -0.63426739
v 0.62476707 0.30756634 0.08039506
v 0.58686274 0.30386430 0.22960515
v 0.48263323 0.33912313 0.14632781
v 0.73361939 0.13773420 0.39291152
v 0.66760498 0.23970762 0.33990422
v 0.77431136 0.20149736 0.25500914
v 0.37755424 0.30739522 0.38108644
v 0.54913330 0.25445235 0.37724790
v 0.45546567 0.24411806 0.50766969
v 0.87419385 0.14675719 0.68196118
v 0.92355371 0.02870077 0.65985227
v 0.98353511 0.12618159 0.54916704
v 0.66830093 0.00032904 0.80225343
v 0.81792325 0.00000000 0.75283688
v 0.70218194 0.01866156 0.88369977
v 0.93869936 0.00064470 0.41619182
v 0.89245331 0.00001065 0.60261500
v 0.82603317 0.07389595 0.51094425
v 0.07763880 0.22134024 0.81217593
v 0.20185882 0.18480618 0.82145655
v 0.13439098 0.11335510 0.93523133
v 0.38553187 0.29411379 0.64336455
v 0.28262815 0.27309358 0.74843347
v 0.24857968 0.33163851 0.58597839
v 0.42498478 0.02861995 0.96715569
v 0.34710982 0.14076133 0.83381432
v 0.49715668 0.06795871 0.83234006
v 0.65430689 0.09694864 0.53343636
v 0.58438683 0.09499261 0.69607192
v 0.51982969 0.21147481 0.61399716
v 0.39277518 0.20986521 0.14345419
v 0.42485309 0.21922383 0.01694709
v 0.22686058 0.36174646 0.36336997
v 0.32119146 0.34770387 0.24842757
v 0.15232894 0.14252377 0.01458527
v 0.25185707 0.26600063 0.10903506
v 0.13870040 0.23555520 0.15085363
v -0.10546745 0.20912486 0.80556983
v -0.02513207 0.26661065 0.70769227
v -0.15865162 0.36258230 0.49607393
v -0.08697733 0.33916637 0.59932560
v -0.25019541 0.30300951 0.58386874
v 0.08816461 0.35011864 0.62709522
v 0.13587269 0.36022100 0.48306212
v -0.40125167 0.30147591 0.03525163
v -0.29175869 0.38879061 0.15236506
v -0.46824431 0.40365762 0.14675856
v -0.03220588 0.21851292 0.14225869
v -0.16752930 0.32538092 0.13106292
v -0.15913664 0.16631928 0.05634734
v -0.33545721 0.37463164 0.35923591
v -0.21110547 0.37869763 0.26278412
v -0.19429101 0.37254816 0.35805318
v 0.09728856 0.41796309 0.37335756
v -0.06406201 0.38828886 0.37729713
v 0.06340574 0.24890043 0.31031808
v 0.38300505 0.21056570 -0.09494987
v 0.43587899 0.34198400 -0.11676770
v 0.09564682 0.14739412 -0.11339789
v 0.22946127 0.12727261 -0.12179865
v 0.39739832 0.22148871 -0.35866076
v 0.31938994 0.14297114 -0.22417635
v 0.23334695 0.14927360 -0.34717324
v -0.46814525 0.33084381 -0.13689524
v -0.37419736 0.20572603 -0.09476845
v -0.22262590 0.09033862 -0.34901777
v -0.29354557 0.16100323 -0.24299045
v -0.37638584 0.16116318 -0.38174754
v -0.25915092 0.13508177 -0.08541649
v -0.10438176 0.12241917 -0.08625969
v 0.08097710 0.18718353 -0.82703233
v 0.01144047 0.21057719 -0.73121899
v -0.07920204 0.19614640 -0.82639891
v 0.18915661 0.16876292 -0.48282233
v 0.10825428 0.15996157 -0.60740155
v 0.25944102 0.25933063 -0.61959368
v -0.21555811 0.12461510 -0.65657568
v -0.08424344 0.16776590 -0.64103824
v -0.11773651 0.08937755 -0.51800370
v -0.01133775 0.14352773 -0.23238659
v -0.07807243 0.07153642 -0.34155676
v 0.07483856 0.15099187 -0.36431715
v 0.55195904 0.35664913 -0.19710982
v 0.59537154 0.31612906 -0.07368239
v 0.44750491 0.27145034 -0.46869269
v 0.50147051 0.31432769 -0.34328040
v 0.76095915 0.23921414 -0.25253695
v 0.63722551 0.31062856 -0.27334577
v 0.74685133 0.25328147 -0.37613696
v 0.15752298 0.16297367 -0.91561806
v 0.22693606 0.18796396 -0.80665791
v 0.50737154 0.13536946 -0.78879660
v 0.37117240 0.15955336 -0.81292295
v 0.42836484 0.06361320 -0.89988071
v 0.32403585 0.26017508 -0.74170804
v 0.36847243 0.31381828 -0.61398119
v 0.97879499 0.10241856 -0.55542594
v 0.91969538 0.04626250 -0.65344411
v 0.88024431 0.15496174 -0.69287908
v 0.83392191 0.17093353 -0.48349974
v 0.87739116 0.04969548 -0.55120856
v 0.93101430 0.09565024 -0.40504465
v 0.71890062 0.03599651 -0.87635428
v 0.80583555 0.00000000 -0.72444338
v 0.64952272 0.00927478 -0.76511657
v 0.54483443 0.23390311 -0.55887312
v 0.62076360 0.17798084 -0.67564803
v 0.68455881 0.21119565 -0.54084134
v 0.69404584 0.23176154 0.00634749
v 0.85973644 0.18008944 -0.16623150
v 0.78623360 0.19829030 -0.07064199
v 0.78786689 0.18912755 0.08676480
v 0.90203708 0.16786031 0.18439932
v 0.99810106 0.21370712 -0.45125753
v 1.05052114 0.11028819 -0.41976032
v 1.13117361 0.10324412 -0.10341414
v 1.10293245 0.10778008 -0.26432717
v 1.08765614 0.19507019 -0.16527531
v 1.05862164 0.01385900 -0.34863761
v 0.97790223 0.09677860 -0.26530641
v 1.05082214 0.11747272 0.40290901
v 0.99758863 0.20548809 0.42520890
v 0.97850424 0.02261527 0.27321494
v 1.07910609 0.05958350 0.34906843
v 1.07251501 0.20474130 0.13019559
v 1.09972143 0.13781016 0.24001613
v 1.12355995 0.13095164 0.07323568
v 1.00140393 0.10209694 -0.09472019
v 1.13172126 0.01092785 0.00596781
v 0.98481762 0.04943292 0.07798828
v 0.13399535 0.02068226 1.04637039
v 0.45140094 0.07760606 1.04087925
v 0.31610602 0.00762049 1.06903446
v 0.15309787 0.07084331 1.11729455
v 0.15078020 0.15780954 1.09946883
v 0.77039289 0.19624870 0.74593514
v 0.55140138 0.32189623 0.86434877
v 0.66510898 0.26253656 0.81236541
v 0.69240022 0.15319221 0.85145140
v 0.60062075 0.12553103 0.94705880
v 0.13220270 0.47516429 0.93042874
v 0.15258723 0.26357707 1.05479753
v 0.13909262 0.36520711 0.99561667
v 0.26665449 0.42889330 0.93009132
v 0.39810425 0.37957114 0.90858883
v 0.45615527 0.15013877 1.00639033
v 0.42812496 0.26985025 0.95600402
v 0.29924986 0.21963049 1.04018176
v -0.58100319 0.38191289 0.23026316
v -0.43367735 0.30910897 0.43720439
v -0.50961953 0.37163541 0.33937365
v -0.67531645 0.32009369 0.30163229
v -0.74516308 0.24445006 0.39752975
v -0.22935458 0.16679700 0.80378205
v -0.53003043 0.07468613 0.82546157
v -0.37402466 0.16456176 0.80738634
v -0.30024078 0.20137832 0.68740213
v -0.37584412 0.24407303 0.60942173
v -0.91249061 0.04954456 0.66081184
v -0.84302908 0.13659015 0.49523464
v -0.91664112 0.00136214 0.55517638
v -0.82250035 0.00056919 0.74515224
v -0.71778649 0.09265593 0.77480769
v -0.53475428 0.22342589 0.55750972
v -0.60962397 0.10268742 0.67444891
v -0.69019693 0.17567328 0.55077428
v -0.21147813 0.10080439 -0.83076334
v -0.34501481 0.20661114 -0.60782981
v -0.32402894 0.16918351 -0.72945994
v -0.36553866 0.08300363 -0.85510373
v -0.49338090 0.12877548 -0.84734458
v -0.58578324 0.21966201 -0.20617235
v -0.71808934 0.20451494 -0.39692780
v -0.65400577 0.30896482 -0.29780012
v -0.52990806 0.26358685 -0.36032560
v -0.39839557 0.25898498 -0.48661324
v -0.92128587 0.00883464 -0.65966904
v -0.68584454 0.08626979 -0.80545694
v -0.80757189 0.01967893 -0.73190117
v -0.87293702 0.08821534 -0.58473927
v -0.80760258 0.13862772 -0.48607630
v -0.49384013 0.23389757 -0.58389473
v -0.68935364 0.22165817 -0.55738097
v -0.61215538 0.16867821 -0.71252877
v 0.77611125 0.21513663 -0.77547038
v 0.59057117 0.09325453 -0.95936811
v 0.67703420 0.15251209 -0.87864900
v 0.65461808 0.26708564 -0.84020120
v 0.53373367 0.32163334 -0.88733834
v 0.15517116 0.10556130 -1.03637028
v 0.13253698 0.13660413 -1.10646665
v 0.14851558 0.07134123 -1.10554898
v 0.31936112 0.02842415 -1.03533554
v 0.46239474 0.01290712 -1.03680742
v 0.13150483 0.47090405 -0.93276125
v 0.39056420 0.38306928 -0.92123204
v 0.26650363 0.42840454 -0.93125284
v 0.13131066 0.36882102 -1.00269496
v 0.13577664 0.26299611 -1.06246972
v 0.43591180 0.13220404 -1.02484584
v 0.28006867 0.19138235 -1.05725050
v 0.41750112 0.26459730 -0.98658586
v 0.96536052 0.30507559 0.37235945
v 1.03373837 0.30390057 0.07438374
v 1.02236807 0.30467746 0.22720326
v 0.93450212 0.39934009 0.30367380
v 0.89932942 0.48702875 0.23403414
v 0.97718167 0.29348135 -0.38331848
v 0.89428496 0.48634514 -0.25095415
v 0.94049549 0.39167294 -0.31552744
v 1.01959300 0.28900322 -0.24240442
v 1.04052055 0.30404568 -0.09808459
v 0.69492483 0.76750886 0.00064097
v 0.83652079 0.59339535 0.15112215
v 0.77289897 0.68227518 0.07993288
v 0.77014536 0.68102235 -0.07722852
v 0.83163130 0.59864545 -0.15918815
v 0.97807807 0.39511898 -0.01044488
v 0.90774173 0.49695775 -0.09291375
v 0.91667330 0.49343476 0.07205281
f 330 87 329
f 336 325 26
f 207 208 56
f 464 36 580
f 502 129 504
f 157 624 622
f 308 311 82
f 247 223 248
f 507 483 508
f 331 88 329
f 494 500 497
f 156 601 602
f 591 589 592
f 365 98 596
f 75 281 282
f 152 587 577
f 149 559 560
f 555 121 553
f 530 141 529
f 515 517 139
f 361 594 98
f 250 67 249
f 157 608 609
f 294 293 209
f 317 81 316
f 557 338 26
f 303 305 81
f 530 529 528
f 101 381 382
f 415 418 111
f 192 184 50
f 412 110 411
f 20 384 256
f 131 594 486
f 281 264 282
f 347 287 348
f 28 349 582
f 165 163 1
f 248 250 66
f 617 107 398
f 273 271 274
f 456 115 453
f 558 561 560
f 335 576 91
f 331 177 332
f 116 433 436
f 351 370 92
f 136 511 530
f 239 240 65
f 247 258 19
f 304 23 567
f 148 557 570
f 214 208 58
f 440 426 450
f 268 270 269
f 258 247 268
f 204 202 16
f 466 125 465
f 517 513 133
f 168 275 274
f 275 73 274
f 198 193 53
f 309 308 307
f 510 511 136
f 415 416 110
f 131 490 597
f 473 475 474
f 414 415 111
f 493 495 494
f 496 504 485
f 433 116 432
f 600 375 601
f 240 234 65
f 418 415 412
f 486 361 3
f 567 566 304
f 380 393 29
f 17 199 197
f 491 492 132
f 451 449 435
f 218 217 216
f 623 621 613
f 396 104 395
f 433 439 436
f 628 160 627
f 215 202 217
f 209 207 2
f 427 113 424
f 434 10 544
f 434 433 432
f 199 17 210
f 150 564 565
f 489 491 132
f 275 13 285
f 497 500 134
f 125 466 476
f 578 152 577
f 208 214 211
f 328 88 343
f 356 27 603
f 150 566 567
f 372 100 371
f 190 191 47
f 235 8 398
f 260 261 72
f 422 403 414
f 422 414 111
f 453 454 123
f 349 583 582
f 521 520 519
f 425 453 115
f 616 622 158
f 483 130 508
f 151 586 572
f 212 17 232
f 400 397 402
f 377 396 99
f 41 522 511
f 510 508 505
f 549 547 42
f 475 473 36
f 510 137 509
f 222 221 197
f 430 115 429
f 220 194 1
f 305 54 204
f 621 29 613
f 192 171 184
f 460 335 5
f 88 331 332
f 74 277 279
f 300 301 80
f 390 389 388
f 165 45 164
f 146 549 551
f 291 278 75
f 448 120 445
f 147 543 544
f 607 610 609
f 603 602 356
f 139 529 514
f 333 553 443
f 92 368 347
f 261 260 259
f 300 6 200
f 46 177 331
f 284 283 174
f 301 300 200
f 471 468 474
f 54 305 301
f 302 304 303
f 569 150 567
f 150 569 570
f 294 209 2
f 628 629 160
f 548 543 147
f 147 625 627
f 63 233 234
f 426 427 114
f 41 509 532
f 198 52 196
f 614 105 612
f 147 627 547
f 81 305 306
f 549 548 547
f 54 301 200
f 342 88 332
f 264 281 70
f 193 194 53
f 455 429 456
f 187 321 14
f 479 130 484
f 147 544 625
f 458 456 453
f 304 80 303
f 314 84 313
f 488 503 501
f 321 332 14
f 423 425 424
f 305 204 306
f 341 339 25
f 514 40 516
f 625 628 627
f 340 339 341
f 105 614 391
f 243 228 62
f 318 316 78
f 75 278 279
f 357 355 353
f 238 257 63
f 466 455 476
f 425 423 4
f 448 449 120
f 408 638 108
f 292 275 285
f 22 278 289
f 515 513 517
f 501 503 134
f 622 623 158
f 134 503 504
f 195 216 206
f 163 271 246
f 619 617 620
f 62 228 229
f 163 165 164
f 453 425 454
f 489 132 488
f 82 628 625
f 58 208 209
f 525 608 40
f 626 547 627
f 518 517 498
f 489 487 491
f 557 26 564
f 325 336 344
f 541 145 539
f 40 616 516
f 338 556 89
f 250 248 245
f 139 514 515
f 98 594 596
f 246 220 1
f 112 413 630
f 9 536 413
f 156 600 601
f 332 177 14
f 321 342 332
f 156 606 600
f 584 330 585
f 302 303 81
f 584 87 330
f 330 25 585
f 400 239 65
f 439 440 117
f 95 358 368
f 597 594 131
f 594 361 486
f 246 67 245
f 561 562 149
f 28 364 362
f 55 216 217
f 427 430 114
f 267 20 254
f 556 555 553
f 84 309 558
f 311 310 312
f 609 525 142
f 256 68 255
f 124 460 461
f 82 311 312
f 307 308 82
f 589 135 495
f 527 40 514
f 112 418 412
f 20 256 254
f 258 238 19
f 267 254 269
f 273 272 249
f 392 391 393
f 137 533 509
f 122 455 456
f 9 413 411
f 130 480 505
f 333 443 5
f 527 525 40
f 589 495 385
f 39 496 485
f 223 225 224
f 414 416 415
f 219 222 53
f 145 538 539
f 413 412 411
f 469 468 467
f 183 181 6
f 191 192 50
f 429 35 431
f 292 285 76
f 413 112 412
f 415 110 412
f 43 164 167
f 467 468 126
f 617 101 620
f 450 451 117
f 438 546 545
f 619 620 159
f 17 212 210
f 124 579 576
f 584 153 583
f 460 124 576
f 3 469 467
f 311 308 314
f 6 320 183
f 389 104 388
f 251 250 249
f 194 165 1
f 291 289 278
f 287 77 348
f 238 258 257
f 139 517 518
f 238 236 19
f 223 247 19
f 382 380 29
f 39 518 498
f 361 359 3
f 69 255 257
f 139 518 528
f 33 545 535
f 387 385 7
f 69 268 269
f 477 462 125
f 454 479 123
f 121 555 447
f 451 435 117
f 454 425 4
f 233 252 8
f 124 463 464
f 69 258 268
f 168 167 166
f 583 153 582
f 384 394 102
f 138 512 513
f 57 210 211
f 254 256 255
f 607 609 142
f 324 319 86
f 289 291 76
f 291 292 76
f 384 102 383
f 422 421 420
f 221 17 197
f 383 102 381
f 376 377 99
f 99 373 374
f 386 105 392
f 438 33 440
f 90 341 343
f 281 75 279
f 574 571 96
f 628 82 312
f 221 222 59
f 127 471 474
f 595 605 603
f 551 538 145
f 334 91 340
f 322 324 85
f 305 303 301
f 18 239 399
f 306 204 16
f 199 198 197
f 166 190 180
f 303 80 301
f 267 266 265
f 626 42 547
f 16 215 213
f 349 351 350
f 295 16 213
f 68 379 252
f 250 251 66
f 627 160 626
f 383 68 256
f 343 88 342
f 507 508 136
f 202 215 16
f 197 198 53
f 254 69 269
f 603 605 156
f 418 419 111
f 384 383 256
f 455 122 476
f 203 204 54
f 556 557 148
f 255 68 253
f 313 84 560
f 25 328 341
f 254 255 69
f 603 156 602
f 581 584 583
f 630 632 112
f 163 246 1
f 246 245 220
f 432 116 558
f 499 591 590
f 320 563 86
f 345 93 350
f 306 16 295
f 346 93 345
f 562 568 149
f 604 605 155
f 154 592 593
f 545 552 535
f 511 522 530
f 574 573 571
f 566 150 565
f 361 98 360
f 67 271 273
f 234 235 65
f 208 211 56
f 574 151 573
f 251 270 66
f 398 8 378
f 213 215 214
f 438 440 439
f 315 314 313
f 263 71 262
f 20 373 384
f 496 134 504
f 329 88 328
f 81 306 316
f 555 556 148
f 592 589 103
f 617 619 107
f 227 207 56
f 571 359 96
f 446 466 465
f 206 216 55
f 359 571 469
f 568 148 570
f 34 437 435
f 28 351 349
f 21 272 282
f 113 423 424
f 490 489 488
f 379 68 383
f 210 212 211
f 80 563 300
f 351 92 350
f 326 346 12
f 83 317 318
f 555 148 554
f 212 231 56
f 218 57 217
f 271 67 246
f 195 196 52
f 270 268 66
f 390 592 103
f 148 568 554
f 495 493 7
f 592 390 593
f 357 95 355
f 574 575 151
f 452 120 451
f 154 591 592
f 587 585 577
f 395 394 396
f 93 349 350
f 610 416 611
f 166 44 190
f 315 23 302
f 315 302 317
f 268 247 66
f 606 154 593
f 396 394 99
f 211 212 56
f 370 369 368
f 235 397 65
f 280 278 22
f 83 315 317
f 575 588 151
f 74 279 280
f 385 495 7
f 63 257 253
f 397 235 398
f 214 58 213
f 220 219 194
f 546 146 545
f 236 225 19
f 599 94 602
f 235 233 8
f 102 394 395
f 611 416 32
f 225 223 19
f 139 528 529
f 231 62 229
f 419 406 421
f 451 450 452
f 49 182 185
f 402 397 107
f 52 199 218
f 416 610 110
f 225 236 244
f 107 397 398
f 68 252 253
f 322 85 321
f 182 181 183
f 118 438 439
f 546 438 118
f 348 77 345
f 543 546 118
f 231 212 232
f 610 611 157
f 33 438 545
f 385 386 103
f 479 480 130
f 169 195 15
f 93 583 349
f 15 195 206
f 190 44 192
f 247 248 66
f 146 552 545
f 248 60 245
f 570 557 564
f 274 271 43
f 63 253 233
f 272 21 249
f 507 528 518
f 67 273 249
f 487 467 126
f 196 195 169
f 624 159 623
f 134 496 497
f 132 503 488
f 104 393 395
f 556 553 89
f 355 356 94
f 258 69 257
f 229 61 227
f 56 231 227
f 460 576 335
f 463 124 461
f 394 373 99
f 29 393 391
f 67 250 245
f 193 198 196
f 462 36 464
f 144 633 630
f 141 526 527
f 517 133 498
f 536 144 630
f 100 372 599
f 144 536 537
f 22 289 287
f 578 579 152
f 579 578 576
f 189 188 187
f 60 223 224
f 92 348 350
f 555 554 447
f 396 377 388
f 194 193 165
f 413 536 630
f 372 352 599
f 377 376 375
f 348 345 350
f 105 386 387
f 240 237 234
f 463 462 464
f 135 500 494
f 45 196 169
f 512 612 387
f 245 60 220
f 429 115 456
f 223 60 248
f 288 289 76
f 525 526 142
f 100 599 601
f 613 29 391
f 526 523 520
f 341 328 343
f 631 641 639
f 264 21 282
f 266 72 265
f 106 402 403
f 73 273 274
f 186 206 205
f 381 379 383
f 52 216 195
f 410 18 399
f 290 272 73
f 72 371 374
f 526 525 527
f 115 430 424
f 498 497 496
f 621 382 29
f 543 118 434
f 214 215 57
f 522 141 530
f 511 510 509
f 352 94 599
f 493 512 7
f 90 340 341
f 169 171 170
f 605 604 606
f 219 60 224
f 104 389 392
f 359 469 3
f 186 49 185
f 222 219 224
f 166 167 44
f 428 427 426
f 523 522 524
f 129 502 481
f 50 185 188
f 164 45 170
f 425 115 424
f 33 428 426
f 427 428 113
f 94 356 602
f 515 138 513
f 114 431 452
f 237 236 238
f 215 217 57
f 95 354 355
f 220 60 219
f 515 514 516
f 183 320 319
f 222 197 53
f 559 569 567
f 300 320 6
f 435 436 117
f 96 360 363
f 640 642 641
f 242 243 62
f 140 537 519
f 508 130 505
f 420 410 399
f 537 539 144
f 317 316 318
f 426 114 450
f 186 15 206
f 311 83 310
f 625 544 307
f 544 10 307
f 168 43 167
f 185 182 188
f 369 354 95
f 44 171 192
f 605 606 156
f 548 549 146
f 100 601 375
f 149 568 569
f 381 380 382
f 455 466 35
f 480 479 454
f 543 548 546
f 493 133 513
f 492 472 37
f 477 125 476
f 491 487 126
f 337 336 338
f 588 153 587
f 576 578 91
f 633 161 632
f 96 359 360
f 39 485 483
f 101 617 378
f 193 45 165
f 163 164 43
f 618 624 611
f 507 136 528
f 561 149 560
f 641 162 639
f 116 561 558
f 494 133 493
f 253 252 233
f 63 237 238
f 392 393 104
f 440 450 117
f 93 581 583
f 386 385 387
f 120 449 451
f 421 422 111
f 486 3 467
f 302 81 317
f 633 632 630
f 462 475 36
f 376 99 374
f 489 490 131
f 447 449 448
f 387 612 105
f 106 420 399
f 173 46 172
f 492 491 472
f 316 306 295
f 22 287 347
f 109 410 420
f 507 39 483
f 559 23 313
f 214 57 211
f 196 45 193
f 10 434 432
f 422 106 403
f 626 160 640
f 487 486 467
f 542 41 532
f 400 106 399
f 444 120 452
f 198 199 52
f 475 127 474
f 621 620 382
f 621 623 159
f 450 114 452
f 92 347 348
f 376 100 375
f 434 118 433
f 503 132 502
f 337 90 336
f 537 536 519
f 395 393 380
f 201 54 200
f 171 44 170
f 355 94 353
f 58 296 213
f 422 420 106
f 595 365 596
f 569 568 570
f 523 140 520
f 114 430 431
f 218 210 57
f 304 566 80
f 639 162 638
f 261 371 72
f 548 147 547
f 498 133 497
f 150 570 564
f 222 224 59
f 142 526 520
f 437 436 435
f 141 522 523
f 137 510 505
f 173 179 176
f 559 149 569
f 121 447 448
f 563 320 300
f 102 395 380
f 257 255 253
f 642 162 641
f 83 311 314
f 216 52 218
f 512 493 513
f 23 304 302
f 91 339 340
f 512 138 612
f 159 620 621
f 218 199 210
f 364 28 575
f 83 318 310
f 168 274 43
f 136 530 528
f 140 523 524
f 495 135 494
f 233 235 234
f 566 563 80
f 25 339 577
f 277 74 276
f 475 462 477
f 133 494 497
f 436 437 116
f 389 386 392
f 548 146 546
f 441 460 5
f 10 309 307
f 65 397 400
f 543 434 544
f 640 641 161
f 272 273 73
f 581 93 346
f 419 421 111
f 319 320 86
f 180 179 178
f 127 475 477
f 231 229 227
f 337 334 340
f 136 508 510
f 308 309 84
f 237 63 234
f 447 554 34
f 252 379 378
f 315 83 314
f 608 622 616
f 338 336 26
f 337 338 89
f 13 275 168
f 209 208 207
f 436 439 117
f 628 312 629
f 360 366 363
f 364 574 96
f 359 361 360
f 466 446 35
f 500 501 134
f 406 109 421
f 135 589 591
f 601 599 602
f 340 90 337
f 481 492 37
f 522 41 524
f 78 316 295
f 131 486 487
f 403 32 414
f 634 626 640
f 151 572 573
f 515 516 138
f 8 252 378
f 265 72 374
f 9 521 519
f 538 549 42
f 368 358 347
f 588 587 586
f 458 453 123
f 589 385 103
f 502 492 481
f 32 416 414
f 430 427 424
f 153 585 587
f 540 144 539
f 370 368 92
f 209 293 58
f 428 33 535
f 326 581 346
f 625 307 82
f 575 28 582
f 6 181 200
f 421 109 420
f 553 121 443
f 160 642 640
f 153 584 585
f 309 432 558
f 334 337 89
f 23 315 313
f 271 163 43
f 296 295 213
f 39 498 496
f 118 439 433
f 531 113 534
f 293 296 58
f 28 362 351
f 489 131 487
f 431 444 452
f 84 558 560
f 98 366 360
f 45 169 170
f 379 101 378
f 462 463 125
f 308 84 314
f 10 432 309
f 299 24 310
f 132 492 502
f 512 387 7
f 639 638 408
f 565 323 86
f 59 244 242
f 106 400 402
f 440 33 426
f 566 565 563
f 617 398 378
f 224 225 59
f 410 109 409
f 239 400 399
f 194 219 53
f 358 22 347
f 610 157 609
f 27 595 603
f 479 484 482
f 142 520 521
f 585 25 577
f 339 578 577
f 408 407 406
f 407 109 406
f 31 408 406
f 407 408 108
f 31 639 408
f 419 31 406
f 608 616 40
f 430 429 431
f 455 35 429
f 35 444 431
f 188 51 187
f 188 182 51
f 51 322 187
f 322 51 319
f 51 182 183
f 319 51 183
f 187 322 321
f 322 319 324
f 381 101 379
f 405 407 108
f 404 405 108
f 286 285 178
f 407 405 409
f 109 407 409
f 191 175 47
f 167 164 170
f 50 184 185
f 44 167 170
f 64 244 236
f 243 244 64
f 50 188 189
f 541 542 145
f 442 445 119
f 339 91 578
f 445 446 119
f 624 623 622
f 611 624 157
f 523 526 141
f 141 527 529
f 527 514 529
f 445 120 444
f 446 445 444
f 35 446 444
f 613 614 158
f 158 614 615
f 623 613 158
f 614 613 391
f 614 612 615
f 371 376 374
f 100 376 371
f 479 482 123
f 373 394 384
f 540 42 634
f 633 540 634
f 538 42 540
f 633 634 161
f 161 634 640
f 42 626 634
f 540 633 144
f 557 556 338
f 553 333 89
f 262 21 264
f 251 21 262
f 5 335 333
f 270 251 262
f 21 251 249
f 600 593 30
f 606 593 600
f 600 30 375
f 593 390 30
f 30 377 375
f 390 388 30
f 30 388 377
f 228 243 241
f 470 478 459
f 470 127 478
f 127 477 478
f 184 186 185
f 478 477 476
f 122 478 476
f 357 74 280
f 518 39 507
f 344 342 85
f 325 344 85
f 342 344 343
f 85 342 321
f 344 90 343
f 90 344 336
f 482 129 481
f 482 481 457
f 482 457 123
f 481 37 457
f 449 447 34
f 435 449 34
f 470 472 471
f 472 470 37
f 470 471 127
f 472 126 471
f 126 468 471
f 470 459 37
f 491 126 472
f 504 129 485
f 221 59 242
f 125 463 465
f 437 34 562
f 561 437 562
f 554 568 562
f 34 554 562
f 437 561 116
f 390 103 389
f 103 386 389
f 392 105 391
f 572 586 580
f 572 580 36
f 586 152 580
f 473 572 36
f 244 243 242
f 225 244 59
f 64 240 241
f 240 239 241
f 237 240 64
f 243 64 241
f 236 237 64
f 411 607 521
f 9 411 521
f 110 607 411
f 607 142 521
f 610 607 110
f 171 15 184
f 171 169 15
f 15 186 184
f 87 584 581
f 153 588 582
f 588 575 582
f 381 102 380
f 573 572 473
f 468 469 128
f 474 468 128
f 469 571 128
f 571 573 128
f 573 473 128
f 473 474 128
f 564 323 565
f 26 323 564
f 323 324 86
f 325 323 26
f 325 324 323
f 563 565 86
f 324 325 85
f 410 230 18
f 230 228 18
f 18 228 241
f 18 241 239
f 401 619 618
f 401 402 107
f 403 402 401
f 619 159 618
f 401 618 32
f 619 401 107
f 403 401 32
f 618 611 32
f 159 624 618
f 478 122 459
f 122 458 459
f 37 459 457
f 459 458 457
f 122 456 458
f 457 458 123
f 191 190 192
f 485 129 484
f 129 482 484
f 483 485 484
f 130 483 484
f 189 187 14
f 191 50 189
f 191 189 175
f 189 14 175
f 14 177 175
f 499 501 500
f 501 499 38
f 38 499 590
f 135 499 500
f 488 501 38
f 499 135 591
f 480 454 4
f 284 12 346
f 4 423 506
f 480 4 506
f 423 531 506
f 480 506 505
f 531 137 506
f 506 137 505
f 365 366 98
f 71 270 262
f 270 71 269
f 71 267 269
f 335 334 333
f 333 334 89
f 334 335 91
f 536 9 519
f 465 463 461
f 537 140 541
f 520 140 519
f 119 446 465
f 465 461 119
f 461 441 119
f 460 441 461
f 176 46 173
f 299 297 24
f 71 263 266
f 263 260 266
f 260 72 266
f 263 70 260
f 205 201 49
f 201 181 49
f 186 205 49
f 181 201 200
f 181 182 49
f 284 77 283
f 586 587 152
f 588 586 151
f 20 267 265
f 266 267 71
f 31 417 631
f 631 417 632
f 31 631 639
f 417 31 419
f 641 631 161
f 417 112 632
f 161 631 632
f 418 417 419
f 417 418 112
f 284 345 77
f 542 550 145
f 542 541 524
f 284 174 12
f 48 174 283
f 373 20 265
f 373 265 374
f 609 608 525
f 608 157 622
f 560 559 313
f 636 637 162
f 541 140 524
f 41 542 524
f 358 357 280
f 70 263 264
f 263 262 264
f 176 177 46
f 174 48 173
f 174 173 172
f 538 551 549
f 538 540 539
f 537 541 539
f 232 221 242
f 17 221 232
f 232 242 62
f 231 232 62
f 203 205 55
f 203 55 202
f 201 205 203
f 202 55 217
f 205 206 55
f 204 203 202
f 73 275 292
f 292 290 73
f 272 290 282
f 290 292 291
f 75 290 291
f 290 75 282
f 70 277 259
f 277 70 281
f 277 281 279
f 260 70 259
f 12 174 172
f 104 396 388
f 367 27 354
f 365 27 367
f 354 27 356
f 365 367 366
f 595 27 365
f 318 299 310
f 155 596 597
f 155 597 598
f 596 594 597
f 595 596 155
f 605 595 155
f 180 47 179
f 180 190 47
f 352 372 11
f 11 372 261
f 312 310 24
f 642 636 162
f 636 297 637
f 367 369 97
f 366 367 97
f 369 367 354
f 369 370 97
f 580 579 464
f 580 152 579
f 579 124 464
f 61 230 409
f 230 410 409
f 230 61 229
f 230 229 228
f 76 285 286
f 353 352 276
f 74 353 276
f 288 76 286
f 288 286 283
f 289 288 287
f 203 54 201
f 287 288 77
f 77 288 283
f 286 48 283
f 531 423 113
f 276 11 259
f 11 261 259
f 277 276 259
f 616 158 615
f 516 616 615
f 138 516 615
f 138 615 612
f 509 533 532
f 503 502 504
f 635 79 294
f 635 294 404
f 635 637 79
f 637 635 638
f 638 635 108
f 635 404 108
f 226 61 405
f 61 226 227
f 405 61 409
f 227 226 207
f 48 178 179
f 48 286 178
f 173 48 179
f 534 143 533
f 534 535 143
f 531 534 533
f 533 143 532
f 137 531 533
f 261 372 371
f 13 180 178
f 285 13 178
f 180 13 166
f 13 168 166
f 346 345 284
f 331 327 46
f 46 327 172
f 172 327 326
f 382 620 101
f 442 121 448
f 443 121 442
f 2 226 404
f 294 2 404
f 404 226 405
f 207 226 2
f 550 551 145
f 552 146 551
f 143 550 532
f 552 550 143
f 330 329 328
f 24 636 629
f 94 352 353
f 352 11 276
f 113 428 534
f 428 535 534
f 509 41 511
f 535 552 143
f 550 552 551
f 550 542 532
f 369 95 368
f 326 327 87
f 87 327 329
f 327 331 329
f 581 326 87
f 293 79 298
f 79 297 298
f 296 298 78
f 79 293 294
f 296 293 298
f 598 490 38
f 358 280 22
f 280 279 278
f 357 358 95
f 74 357 353
f 330 328 25
f 567 23 559
f 590 598 38
f 590 604 598
f 598 604 155
f 604 590 154
f 590 591 154
f 604 154 606
f 297 299 298
f 299 318 78
f 298 299 78
f 355 354 356
f 629 636 642
f 312 24 629
f 629 642 160
f 370 362 97
f 362 363 97
f 363 366 97
f 364 363 362
f 362 370 351
f 96 363 364
f 297 636 24
f 162 637 638
f 637 297 79
f 490 488 38
f 598 597 490
f 441 442 119
f 443 442 441
f 443 441 5
f 442 448 445
f 296 78 295
f 326 12 172
f 575 574 364
f 47 175 176
f 175 177 176
f 47 176 179
