# FEM surface export ¡ª frame 768
# Vertices: 642  Faces: 1280
v -0.49729234 0.77836138 -0.01896703
v 0.46056813 0.82321101 -0.02043747
v -0.51009732 0.62210572 0.06741855
v 0.55100644 0.62744206 0.01655113
v 0.03115351 0.35631824 0.87205184
v -0.02212540 0.57991475 0.86778653
v -0.02519996 0.29925227 -0.82050490
v 0.00339863 0.53646410 -0.88006395
v 0.91786826 0.10000997 -0.55122370
v 0.90687400 0.13138427 0.55947125
v -0.92965704 0.06148908 -0.55284667
v -0.92421114 0.10219648 0.56591696
v -0.82815665 0.53203535 0.31660125
v -0.52593547 0.34334457 0.84817773
v -0.29156792 0.74043351 0.46133542
v 0.27779940 0.79308450 0.47318015
v -0.01297644 0.86393487 0.00529546
v 0.27037466 0.76035213 -0.49405238
v -0.30582285 0.74814385 -0.49766085
v -0.52854663 0.34921107 -0.85613400
v -0.83678412 0.53082597 -0.31264138
v -1.04518771 0.14752276 0.01008239
v 0.52536559 0.40543738 0.85817057
v 0.80066866 0.61531395 0.32570577
v -0.48767602 0.17382242 0.84085780
v 0.00473403 0.10032204 1.05595422
v -0.81211364 0.34504786 -0.31175515
v -0.81642276 0.31693062 0.31023723
v 0.02427587 0.10404586 -1.09178483
v -0.52670395 0.16290583 -0.78576106
v 0.80787081 0.57645679 -0.32419616
v 0.52029526 0.36614594 -0.86829311
v 0.81115371 0.19743019 0.29627764
v 0.52426076 0.11732101 0.81266069
v 0.34734380 0.59882146 0.50107694
v -0.28587219 0.62970006 0.52338201
v 0.01260391 0.58817732 0.05307974
v -0.29348841 0.49361709 -0.46498397
v 0.30972674 0.60686034 -0.46911478
v 0.48241767 0.10177896 -0.82315522
v 0.78519112 0.26159072 -0.28762692
v 1.07612240 0.18595137 -0.01371350
v -0.67458713 0.68786228 0.14231682
v -0.56774658 0.66617662 0.40146589
v -0.40462366 0.77235031 0.23192330
v -0.73835564 0.22854730 0.74581355
v -0.71738559 0.46149865 0.59745914
v -0.90848392 0.33016807 0.46974859
v -0.16760103 0.68561423 0.68536162
v -0.44012713 0.59285235 0.67156857
v -0.28426513 0.47597107 0.89259738
v -0.14173627 0.82323331 0.24731466
v -0.25215456 0.83294302 0.00948443
v 0.15012884 0.71548933 0.68228668
v -0.00488011 0.79051709 0.49027535
v 0.21135031 0.86248034 -0.01275760
v 0.13832082 0.85007954 0.24124739
v 0.38468376 0.82521874 0.23463605
v -0.16130833 0.83590466 -0.24709080
v -0.41112751 0.78801662 -0.25698346
v 0.37119308 0.81120545 -0.26713690
v 0.11501390 0.84409660 -0.25754336
v -0.16784634 0.66054112 -0.70978510
v -0.01453818 0.76670969 -0.51380116
v 0.14567471 0.67362279 -0.70685828
v -0.58406258 0.66760176 -0.43498212
v -0.67915606 0.69537854 -0.17345825
v -0.26545924 0.46155295 -0.90555543
v -0.43051571 0.58035141 -0.71479279
v -0.89934677 0.32045662 -0.45970008
v -0.70126128 0.43848771 -0.60764021
v -0.76348966 0.22388840 -0.73192608
v -0.87172347 0.55792207 -0.00085786
v -1.02326548 0.09636445 -0.27714357
v -1.01280558 0.32908088 -0.16968547
v -0.98438293 0.33707267 0.19016922
v -1.03342903 0.12523206 0.28641990
v 0.56347203 0.74013573 0.41814911
v 0.64766991 0.76136422 0.14558615
v 0.26425549 0.52351284 0.89483482
v 0.42606944 0.64086723 0.68186384
v 0.89977115 0.39734519 0.46217778
v 0.70680040 0.54050982 0.62755948
v 0.76273000 0.30648020 0.73631579
v -0.29764554 0.24318443 1.03410053
v -0.01792469 0.34892285 1.01055253
v -0.71448737 0.00693602 0.74949580
v -0.53953910 0.07700515 0.94025230
v 0.04206296 0.15328930 1.01401782
v -0.23971151 0.01508252 1.00843692
v -0.23856077 0.25931695 0.88362885
v -1.00215471 0.16529602 0.18795668
v -0.85047084 0.11479947 0.44061017
v -0.89636254 0.11572368 -0.43991780
v -0.98694718 0.12349041 -0.18523134
v -0.68709695 0.52905232 0.20164840
v -0.83575511 0.38316810 -0.01907394
v -0.66695839 0.52147532 -0.14729846
v -0.57129681 0.08934313 -0.93356907
v -0.72918469 0.00605048 -0.69427556
v 0.01558733 0.34142774 -1.01071012
v -0.27391896 0.22897205 -1.03628063
v -0.27568966 0.22813807 -0.84162170
v -0.27837506 0.00009468 -0.96608967
v -0.02680479 0.05094263 -0.95271111
v 0.41364467 0.59872168 -0.70755279
v 0.27147028 0.46989861 -0.90551156
v 0.65468574 0.72663414 -0.17326175
v 0.55357558 0.69715494 -0.42929247
v 0.74070930 0.22571188 -0.73110503
v 0.70167935 0.46889606 -0.60543442
v 0.91214168 0.35923970 -0.45388946
v 0.70049447 0.40718949 0.17566052
v 0.59481800 0.40169978 0.41014925
v 0.47512534 0.62220192 0.25812495
v 0.73233134 0.00000000 0.74311143
v 0.70255965 0.16890869 0.56615371
v 0.86063880 0.08631297 0.43711641
v 0.22199687 0.50370973 0.71008831
v 0.45857194 0.38680616 0.66269606
v 0.29253435 0.25432351 0.86260653
v 0.22212298 0.75991845 0.29043478
v 0.24427260 0.56833285 0.04154534
v -0.11936777 0.51717442 0.72136509
v 0.04252816 0.66635519 0.54620445
v -0.20588396 0.62368631 0.13052326
v -0.14106125 0.80778885 0.28623542
v -0.43374652 0.67536551 0.31913504
v 0.19278769 0.65627158 -0.27801681
v 0.44845811 0.65792114 -0.20687790
v -0.40810740 0.66043168 -0.22137998
v -0.12164056 0.62191325 -0.21775436
v 0.15866698 0.49744368 -0.70616382
v 0.01955561 0.66540009 -0.54935235
v -0.16103178 0.48543602 -0.70879495
v 0.58992004 0.46169594 -0.44012594
v 0.70076120 0.47547668 -0.16163163
v 0.24869102 0.21322644 -0.83918577
v 0.42274013 0.41927898 -0.70731515
v 0.86550742 0.09203105 -0.47355080
v 0.67763293 0.23184316 -0.61529291
v 0.69632530 0.00000000 -0.70905787
v 0.82168317 0.23472109 -0.02202759
v 1.02251422 0.13655350 -0.29379889
v 0.96027404 0.00050566 -0.20600778
v 0.95909822 0.00000000 0.12143994
v 1.02381194 0.17467706 0.27891034
v 0.28207338 0.03629690 1.02725828
v 0.55618012 0.12949276 0.91093844
v 0.28009355 0.29570255 1.02112019
v -0.59495974 0.47158501 0.45750186
v -0.40240160 0.44620568 0.68809283
v -0.66648358 0.22536193 0.63676137
v -0.46107835 0.44313371 -0.71528310
v -0.56203920 0.52493989 -0.40780997
v -0.70948350 0.27569786 -0.57506257
v 0.56314749 0.07251084 -0.89961946
v 0.25721884 0.00000000 -0.96996057
v 0.29829475 0.25377885 -1.02656841
v 0.99703288 0.40753463 0.16815700
v 0.99300128 0.40576458 -0.17180750
v 0.84402680 0.62213039 -0.00593741
v -0.58462018 0.74382353 0.06644633
v -0.53046393 0.73357207 0.19196524
v -0.44395155 0.78262192 0.10766745
v -0.70137930 0.61321598 0.35545269
v -0.61979365 0.68089193 0.27383155
v -0.75596380 0.61898196 0.23074219
v -0.34971771 0.75590849 0.35351762
v -0.48070693 0.72254455 0.32308847
v -0.43221202 0.69948274 0.44557279
v -0.82492244 0.18235271 0.66791910
v -0.81805569 0.28288358 0.60036784
v -0.92974877 0.22406271 0.53124195
v -0.63166773 0.40590855 0.73219013
v -0.72772968 0.33715245 0.67436671
v -0.63993454 0.27178505 0.81004184
v -0.88101333 0.43001592 0.39028293
v -0.82768643 0.40213725 0.53892320
v -0.77414173 0.50897121 0.45892310
v -0.08832762 0.63500142 0.77453250
v -0.22550441 0.58977360 0.79947162
v -0.15449266 0.52513814 0.89754736
v -0.35568771 0.67767191 0.57211399
v -0.30054703 0.64002293 0.68884379
v -0.22121306 0.72270608 0.57231176
v -0.41124651 0.42119882 0.86548233
v -0.36788508 0.54635513 0.78169888
v -0.49882409 0.48302844 0.75583220
v -0.65465784 0.58746660 0.50463307
v -0.58877909 0.53708309 0.64017808
v -0.50609308 0.63910753 0.54681981
v -0.32592222 0.80622947 0.11451667
v -0.37750021 0.79848003 -0.00891250
v -0.22210097 0.79581952 0.35884896
v -0.27388373 0.79723489 0.24232416
v -0.13901025 0.85800147 0.00661609
v -0.19288495 0.83003682 0.13365601
v -0.07493155 0.85082150 0.12563570
v 0.07172571 0.65184259 0.77588391
v -0.00946285 0.70726442 0.68907410
v 0.12932724 0.79175478 0.47904068
v 0.06678893 0.75620931 0.58307981
v 0.22145206 0.75848579 0.57949519
v -0.07877207 0.73488152 0.58548284
v -0.14910883 0.77221292 0.48003328
v 0.33881783 0.84610039 -0.02829991
v 0.29848313 0.85178769 0.10548916
v 0.41498229 0.83459538 0.10549461
v 0.07461844 0.85838991 0.11687390
v 0.18316540 0.85970640 0.11814909
v 0.09956148 0.87049544 -0.00823664
v 0.34037495 0.82072955 0.35985088
v 0.25706735 0.84042698 0.23582354
v 0.20352522 0.83200413 0.34959146
v -0.08440180 0.82032233 0.36644894
v 0.05671267 0.82628024 0.36165571
v -0.00255604 0.84753251 0.23515876
v -0.33712110 0.81687963 -0.12360465
v -0.46112216 0.78218794 -0.14036016
v -0.08862371 0.85850352 -0.11276827
v -0.21137069 0.84337157 -0.11968255
v -0.35920763 0.77380514 -0.37899497
v -0.28555393 0.81609678 -0.24781460
v -0.22784457 0.79906303 -0.37271318
v 0.42415866 0.82403082 -0.14937940
v 0.29080543 0.84186476 -0.14812152
v 0.18750574 0.80989701 -0.38161263
v 0.23870085 0.82910955 -0.26559511
v 0.31988323 0.78854418 -0.38048878
v 0.15802144 0.85584831 -0.13538150
v 0.04287294 0.86308742 -0.12701707
v -0.07844059 0.59659934 -0.79870468
v -0.00971459 0.67109805 -0.71527350
v 0.07465500 0.60525203 -0.79586619
v -0.16364262 0.75871897 -0.51180297
v -0.09562662 0.72434169 -0.61613488
v -0.24490087 0.70775753 -0.61410248
v 0.21366046 0.72171074 -0.60645163
v 0.06024222 0.73077005 -0.61113518
v 0.12570667 0.76579887 -0.51098830
v -0.02215517 0.83863848 -0.24857070
v 0.05731266 0.81289589 -0.38237226
v -0.08538400 0.80622399 -0.38167876
v -0.55349243 0.75151503 -0.22799787
v -0.59374779 0.74571306 -0.09269288
v -0.44937298 0.71434534 -0.47648469
v -0.49802777 0.73776889 -0.35426337
v -0.75984263 0.62215346 -0.25483117
v -0.64132243 0.68837458 -0.31307831
v -0.71466470 0.60878170 -0.38864276
v -0.12965220 0.49683657 -0.89561224
v -0.21274805 0.56771195 -0.81745344
v -0.48085552 0.46567494 -0.79702395
v -0.35310540 0.52543157 -0.81852514
v -0.40255204 0.41720507 -0.89239031
v -0.29961556 0.62072814 -0.72538441
v -0.37466034 0.66884559 -0.61785024
v -0.92237198 0.20043242 -0.50833374
v -0.84774888 0.26198173 -0.60348678
v -0.85361028 0.15806547 -0.63567591
v -0.78158903 0.48389179 -0.46257010
v -0.81164193 0.38311833 -0.53747630
v -0.87305558 0.43337974 -0.38587758
v -0.64501321 0.27346498 -0.81903875
v -0.72788340 0.33194730 -0.69234687
v -0.62029588 0.38572407 -0.74242407
v -0.51522422 0.62726796 -0.57955033
v -0.57354474 0.52120262 -0.68173766
v -0.65633887 0.56040782 -0.53495520
v -0.69341850 0.69969094 -0.01986941
v -0.87100917 0.54878706 -0.16282257
v -0.79117912 0.62871099 -0.09165726
v -0.77920580 0.63264942 0.06703158
v -0.84983981 0.55986083 0.15935269
v -0.98243731 0.08811930 -0.42266244
v -0.98345470 0.21245551 -0.38044277
v -1.05116391 0.24158277 -0.07254728
v -1.02914143 0.22358853 -0.22997940
v -1.05760527 0.12170045 -0.13186157
v -0.96157026 0.33563754 -0.32247806
v -0.92891866 0.42709681 -0.24278690
v -0.98007071 0.21768178 0.39050311
v -0.98623097 0.09997414 0.42257401
v -0.91687089 0.43898138 0.25581232
v -0.96720761 0.33235645 0.32905135
v -1.06868267 0.10653691 0.14714096
v -1.02389157 0.22158326 0.25427943
v -1.04049289 0.23166233 0.11436016
v -0.95621711 0.44720533 -0.08385140
v -1.02126408 0.34287325 0.02125263
v -0.93607587 0.45701984 0.09152211
v 0.50765193 0.81478930 0.19691919
v 0.54963040 0.79537249 0.06514405
v 0.42700458 0.76977408 0.44602752
v 0.47247738 0.80252194 0.33415028
v 0.72920483 0.68767613 0.23603308
v 0.61141264 0.75832522 0.28062302
v 0.68892467 0.67991835 0.37580922
v 0.12867762 0.56024992 0.89124173
v 0.21124400 0.62502539 0.79347944
v 0.48612675 0.54052448 0.78148991
v 0.34769824 0.58661646 0.78852564
v 0.40323746 0.48463270 0.88499010
v 0.28695145 0.68675339 0.68949199
v 0.35829186 0.72855341 0.57900625
v 0.91018182 0.26879779 0.52182055
v 0.83786905 0.34628952 0.60717243
v 0.84844595 0.22050375 0.65795583
v 0.76787949 0.57966357 0.47549391
v 0.81456959 0.47511992 0.54496473
v 0.86296201 0.51938599 0.39822814
v 0.63611621 0.35517654 0.79847842
v 0.74846590 0.42802739 0.68810445
v 0.63049638 0.48309007 0.75282687
v 0.50904971 0.69757748 0.55849826
v 0.57307887 0.59806430 0.66379076
v 0.64567333 0.64739358 0.52527273
v -0.14879017 0.41767457 0.97532362
v -0.01280596 0.47809449 0.95654690
v -0.43005359 0.30329466 0.94613934
v -0.30340135 0.35295001 0.96204662
v 0.00095450 0.22069174 1.05015230
v -0.15635735 0.29372633 1.02869010
v -0.13949510 0.17760175 1.07053614
v -0.82645863 0.07549471 0.65334702
v -0.74610698 0.09152373 0.75709957
v -0.50774187 0.04934373 0.90573657
v -0.64841950 0.01452344 0.85763806
v -0.59007132 0.05995154 0.81404281
v -0.65976834 0.15142241 0.85740173
v -0.55328292 0.21156567 0.90673709
v 0.01155722 0.24949095 0.94484478
v -0.11740456 0.20574306 0.92986435
v -0.10896833 0.29047430 0.87166560
v -0.11298402 0.03768263 1.07549822
v -0.11151860 0.10384324 0.98308563
v 0.04588590 0.02156513 1.05852997
v -0.36322045 0.23578511 0.86831689
v -0.25459990 0.13450438 0.94541591
v -0.37392250 0.11676824 0.92232519
v -0.42151031 0.17653927 0.97955823
v -0.38752386 0.02395389 1.00479555
v -0.26425251 0.12641872 1.04320312
v -0.97329366 0.00444706 0.37139454
v -0.89567965 0.00611733 0.52645189
v -1.02397966 0.00584764 0.08332751
v -1.00637174 0.01738271 0.22631729
v -0.85583085 0.22958317 0.39809138
v -0.91523457 0.14525418 0.32184207
v -0.91693753 0.25288928 0.25199160
v -0.90787143 0.09349456 -0.51572490
v -0.96818602 0.00142793 -0.39263716
v -0.90840781 0.24031086 -0.24230541
v -0.93110871 0.10681598 -0.32473645
v -0.86049634 0.22797707 -0.39935380
v -1.01917148 0.00000000 -0.24224618
v -1.06622148 0.03111785 -0.09456518
v -0.62383455 0.62029952 0.11827590
v -0.68893486 0.56368607 0.03459682
v -0.58334607 0.60427934 -0.05737530
v -0.86078280 0.38179335 0.16393223
v -0.76345062 0.45759818 0.08502296
v -0.77216309 0.44436476 0.26029119
v -0.75093734 0.45263568 -0.23285276
v -0.75849402 0.48816612 -0.09700443
v -0.83871084 0.38465759 -0.14298351
v -0.94478369 0.11301523 0.02014974
v -0.91327250 0.25196308 -0.08536331
v -0.95256346 0.28689981 0.09039219
v -0.77852356 0.09462239 -0.74588740
v -0.84535372 0.00508642 -0.63536102
v -0.55777121 0.23137759 -0.91793400
v -0.66963351 0.14693485 -0.84190732
v -0.61752462 0.10317215 -0.74860823
v -0.66667944 0.00062588 -0.82778674
v -0.55191958 0.00063542 -0.85823953
v 0.00125705 0.44204026 -0.95078224
v -0.12869412 0.39911345 -0.97487128
v -0.11933225 0.16888633 -1.07728517
v -0.12974265 0.27928740 -1.03206241
v 0.01737334 0.23872772 -1.06474209
v -0.27400625 0.35501468 -0.97896546
v -0.40546480 0.30592424 -0.95890981
v -0.13705981 0.25928819 -0.85697031
v -0.15066482 0.13843958 -0.89334267
v -0.02581472 0.18309991 -0.90099013
v -0.39901075 0.08351782 -0.88819689
v -0.25980058 0.06978221 -0.85979474
v -0.40682116 0.18596506 -0.80585080
v 0.02634270 0.00000000 -1.02406025
v -0.14081143 0.00004943 -0.94818807
v -0.12290901 0.03056620 -1.05909371
v -0.43177798 0.17514898 -0.99948686
v -0.27891526 0.11998724 -1.04861224
v -0.44080639 0.01768749 -0.98301691
v 0.20614538 0.57852232 -0.81651443
v 0.13019592 0.51240563 -0.89810824
v 0.34876883 0.68995619 -0.60820919
v 0.28074282 0.64237672 -0.71630645
v 0.40150553 0.42111182 -0.87479013
v 0.34583959 0.53810585 -0.81159937
v 0.48244846 0.48795420 -0.78111166
v 0.56169194 0.78053868 -0.09588321
v 0.51959950 0.78149164 -0.22297511
v 0.68949527 0.64626098 -0.38384971
v 0.61376846 0.72321463 -0.30567124
v 0.74672776 0.65958637 -0.24455950
v 0.46398279 0.76421392 -0.34669837
v 0.41543469 0.73815149 -0.46942592
v 0.83522552 0.16924579 -0.65833133
v 0.83078134 0.28455418 -0.59903139
v 0.92419279 0.22221068 -0.49821690
v 0.61643517 0.42561013 -0.73755169
v 0.74664706 0.36968896 -0.68111300
v 0.64237422 0.31508330 -0.78861141
v 0.86873043 0.47168839 -0.40500227
v 0.81382471 0.42438713 -0.53773785
v 0.76743585 0.53829426 -0.47894949
v 0.48984984 0.65622151 -0.57582742
v 0.63476813 0.59568322 -0.53116226
v 0.57036179 0.54657459 -0.66770953
v 0.65216297 0.52535176 0.10818551
v 0.59704822 0.52374029 0.22086941
v 0.53310949 0.64291978 0.16039486
v 0.69896758 0.32026652 0.38139477
v 0.66194326 0.42294961 0.30124247
v 0.73989105 0.29867131 0.25615773
v 0.39724287 0.61557072 0.38657215
v 0.54486400 0.52220821 0.35585049
v 0.46796176 0.52653146 0.45881701
v 0.85904253 0.04904728 0.66714245
v 0.79219162 0.08712066 0.59505552
v 0.91235113 0.00666342 0.51001525
v 0.60966402 0.15445583 0.66850740
v 0.73166639 0.07109644 0.65023232
v 0.63048899 0.06500460 0.72519851
v 0.82778996 0.10960179 0.32467917
v 0.74077636 0.15361641 0.48996091
v 0.72058910 0.21521889 0.40678990
v 0.14336333 0.40299949 0.78688204
v 0.24950610 0.35142624 0.82626528
v 0.17083853 0.30665407 0.88126153
v 0.38965613 0.47592002 0.59099317
v 0.31182352 0.43423674 0.70218664
v 0.26967207 0.55385745 0.60744661
v 0.39485845 0.19750507 0.79466790
v 0.37310788 0.33564550 0.74702477
v 0.47815791 0.24376141 0.73852634
v 0.62571716 0.30289391 0.50951827
v 0.57170445 0.28172860 0.61476606
v 0.51798046 0.41822761 0.53027195
v 0.38706452 0.54742420 0.16531239
v 0.40146124 0.53873533 0.04759639
v 0.30907342 0.71906757 0.40403852
v 0.37365392 0.69634324 0.25706556
v 0.12732811 0.59215313 0.03175831
v 0.26366895 0.68519616 0.15681154
v 0.10436796 0.64539993 0.19489717
v -0.03104349 0.39352691 0.77652460
v 0.05244016 0.50398576 0.75133073
v -0.12326895 0.64368278 0.55066031
v -0.04240870 0.58866966 0.64701551
v -0.21114516 0.57755607 0.61042869
v 0.11862700 0.58489168 0.64508009
v 0.21522702 0.64813221 0.53844374
v -0.36245644 0.59469104 0.08627068
v -0.34363025 0.72334439 0.18089105
v -0.49255151 0.65493870 0.22060467
v -0.05627777 0.68869144 0.19952850
v -0.19067140 0.78916359 0.18647920
v -0.10691909 0.66235578 0.04202086
v -0.34936196 0.67302096 0.41036114
v -0.27811190 0.74818909 0.29952958
v -0.19946277 0.72178996 0.43251684
v 0.13338470 0.75379634 0.43580586
v -0.05986182 0.76441932 0.45321259
v -0.00084611 0.68080240 0.35176209
v 0.37249988 0.64464498 -0.07205600
v 0.51628911 0.57097805 -0.10722905
v 0.11016119 0.65136439 -0.09458362
v 0.21077284 0.60611194 -0.12180573
v 0.37200722 0.63468987 -0.34903821
v 0.34598601 0.73060322 -0.22880940
v 0.28189141 0.73406821 -0.37032232
v -0.44417506 0.65674937 -0.08394758
v -0.30202353 0.57194513 -0.05043425
v -0.17139198 0.47431397 -0.30177751
v -0.26148024 0.58695143 -0.20328055
v -0.34322244 0.54486978 -0.31955570
v -0.17066316 0.63717991 -0.05503546
v -0.06285910 0.61845738 -0.11507992
v 0.07387006 0.41433576 -0.80610961
v 0.00104785 0.50308329 -0.73004496
v -0.09280186 0.43130404 -0.78891861
v 0.19052941 0.63654399 -0.52898890
v 0.08927429 0.58387017 -0.62582296
v 0.23348658 0.57039982 -0.59503883
v -0.21633211 0.45007962 -0.60007346
v -0.08339758 0.58305162 -0.63017970
v -0.09890213 0.52505118 -0.48370057
v 0.06767286 0.63774258 -0.23878202
v -0.02722564 0.54913771 -0.37939259
v 0.13375849 0.66886199 -0.40398201
v 0.59874672 0.56835252 -0.22334020
v 0.63902569 0.54141748 -0.08871872
v 0.48245704 0.56044620 -0.43819794
v 0.52246588 0.56461549 -0.33493188
v 0.73764944 0.35335723 -0.21138845
v 0.65050215 0.48057017 -0.30908886
v 0.71057445 0.40182066 -0.35691050
v 0.10343050 0.26891145 -0.84296328
v 0.19055356 0.34599838 -0.76984662
v 0.46704414 0.26301265 -0.77758217
v 0.34382355 0.32072008 -0.78809226
v 0.39025089 0.21105763 -0.87149268
v 0.29508969 0.45834312 -0.69835848
v 0.39989272 0.53962314 -0.59926933
v 0.90411443 0.00000000 -0.51160061
v 0.78073418 0.07667290 -0.58988070
v 0.82089031 0.00229155 -0.62561727
v 0.75122690 0.28983641 -0.45539793
v 0.76871866 0.18031774 -0.54704952
v 0.81060255 0.16763291 -0.37239650
v 0.57321543 0.06167079 -0.78442711
v 0.66801423 0.11355782 -0.68303889
v 0.60791165 0.18835707 -0.70800406
v 0.51430678 0.44500613 -0.57071513
v 0.55764353 0.30729392 -0.65354019
v 0.65072209 0.38146216 -0.53410852
v 0.71826738 0.44869515 -0.00321731
v 0.82556623 0.24656957 -0.15629394
v 0.75937408 0.37002903 -0.07285372
v 0.77576256 0.35269544 0.08779054
v 0.81705040 0.22136615 0.14693598
v 0.99274194 0.13278253 -0.40942004
v 0.96718144 0.00628136 -0.37049338
v 1.06199598 0.08891771 -0.09683469
v 1.03221726 0.05636687 -0.22756454
v 1.06078565 0.18202563 -0.15814331
v 0.92177564 0.10508435 -0.35643959
v 0.87348872 0.12053102 -0.25611761
v 0.97231984 0.02391691 0.36006749
v 0.99155551 0.14677164 0.43213436
v 0.89298671 0.07244992 0.17562661
v 0.92561978 0.00842049 0.28102043
v 1.05404592 0.17403159 0.13396992
v 1.01241565 0.05952479 0.21574868
v 1.04128921 0.06876031 0.05856580
v 0.90249795 0.11735711 -0.12695514
v 0.97846180 0.00000000 -0.03894530
v 0.89200288 0.10989172 0.03307288
v 0.17154180 0.20298907 0.92832702
v 0.40003490 0.10056295 0.90305150
v 0.31502315 0.14323832 0.92579365
v 0.20149612 0.15323579 1.00947189
v 0.16840149 0.06607185 1.06281424
v 0.77671748 0.14219119 0.75946146
v 0.53957939 0.25803301 0.88908088
v 0.66501975 0.21945219 0.83092487
v 0.65871489 0.04416928 0.84678543
v 0.55039734 0.01569413 0.87464535
v 0.12805320 0.44638851 0.96419334
v 0.14035386 0.19761959 1.03878140
v 0.13779519 0.32812014 1.02266276
v 0.27197284 0.41534609 0.97137600
v 0.40717435 0.35262010 0.94636530
v 0.41450387 0.07016633 0.97634912
v 0.41648075 0.20692675 0.97752708
v 0.27316535 0.15244481 1.02175534
v -0.57386053 0.59790504 0.25564888
v -0.44748878 0.54937804 0.47409186
v -0.49140877 0.57498693 0.37419179
v -0.63863975 0.49243620 0.32034233
v -0.69154638 0.37348115 0.38544437
v -0.17997646 0.37717235 0.81175512
v -0.43709281 0.30345491 0.75643897
v -0.31703022 0.35622898 0.78840280
v -0.26825687 0.47649643 0.71834368
v -0.33696285 0.54231781 0.59639198
v -0.78170526 0.03955195 0.59973341
v -0.75446224 0.28560352 0.47343412
v -0.76619077 0.17329486 0.54412812
v -0.66645813 0.10407019 0.68122196
v -0.55353713 0.20937009 0.73752743
v -0.49952644 0.46877941 0.56255460
v -0.54315364 0.34704641 0.65613955
v -0.65881181 0.36872432 0.54800570
v -0.21786217 0.36672738 -0.81507665
v -0.34999433 0.50438350 -0.59744567
v -0.31483188 0.44699368 -0.71390486
v -0.35776669 0.33338416 -0.81067705
v -0.50172180 0.31172362 -0.76133353
v -0.53937221 0.65155673 -0.18886253
v -0.68444324 0.45071542 -0.36050314
v -0.62146831 0.55127084 -0.26165354
v -0.49442849 0.63671964 -0.33790791
v -0.41396916 0.61107874 -0.44987342
v -0.81387162 0.08509484 -0.56625551
v -0.60937887 0.25140285 -0.69115651
v -0.71769714 0.15699536 -0.63956511
v -0.79846847 0.17931238 -0.48861334
v -0.76785785 0.32939869 -0.44838068
v -0.50229508 0.52559704 -0.55424261
v -0.65918487 0.43518525 -0.51295465
v -0.59418488 0.38823193 -0.64316237
v 0.75285733 0.11117867 -0.74724203
v 0.53235191 0.07599508 -0.89926279
v 0.66033089 0.02114318 -0.83124691
v 0.65791792 0.16875888 -0.84094316
v 0.55909723 0.22832407 -0.89219844
v 0.10317742 0.15449153 -0.89979911
v 0.13244325 0.01971272 -1.04255426
v 0.12054379 0.06579677 -0.96250367
v 0.24747193 0.15386438 -0.94393593
v 0.37519163 0.09912860 -0.93626958
v 0.14888631 0.41633341 -0.97012103
v 0.41190156 0.29940486 -0.95172495
v 0.29237849 0.36286259 -0.97289550
v 0.15588804 0.29494378 -1.02823186
v 0.15713742 0.16528004 -1.06622481
v 0.43841988 0.00123594 -0.98446918
v 0.29188579 0.10187861 -1.05048800
v 0.44756290 0.15323658 -0.99139470
v 0.96982175 0.27333650 0.39027175
v 1.06174171 0.29288757 0.08810842
v 1.02434325 0.29181498 0.23558107
v 0.95877892 0.40755191 0.32072312
v 0.91215122 0.50851953 0.25330651
v 0.99698532 0.25771365 -0.38199124
v 0.90963328 0.48862350 -0.26619145
v 0.96760422 0.37869602 -0.31565213
v 1.01526487 0.27782977 -0.23950744
v 1.04195058 0.29670790 -0.09043319
v 0.65715951 0.74734294 -0.01010128
v 0.83859986 0.62856472 0.15621085
v 0.75891685 0.70315689 0.07698224
v 0.75831234 0.68719596 -0.09120774
v 0.84086305 0.59634686 -0.16297843
v 1.01674867 0.41745225 0.00251789
v 0.93821740 0.50899196 -0.09339021
v 0.93605500 0.52937549 0.07940896
f 330 87 329
f 336 325 26
f 207 208 56
f 464 36 580
f 502 129 504
f 157 624 622
f 308 311 82
f 247 223 248
f 507 483 508
f 331 88 329
f 494 500 497
f 156 601 602
f 591 589 592
f 365 98 596
f 75 281 282
f 152 587 577
f 149 559 560
f 555 121 553
f 530 141 529
f 515 517 139
f 361 594 98
f 250 67 249
f 157 608 609
f 294 293 209
f 317 81 316
f 557 338 26
f 303 305 81
f 530 529 528
f 101 381 382
f 415 418 111
f 192 184 50
f 412 110 411
f 20 384 256
f 131 594 486
f 281 264 282
f 347 287 348
f 28 349 582
f 165 163 1
f 248 250 66
f 617 107 398
f 273 271 274
f 456 115 453
f 558 561 560
f 335 576 91
f 331 177 332
f 116 433 436
f 351 370 92
f 136 511 530
f 239 240 65
f 247 258 19
f 304 23 567
f 148 557 570
f 214 208 58
f 440 426 450
f 268 270 269
f 258 247 268
f 204 202 16
f 466 125 465
f 517 513 133
f 168 275 274
f 275 73 274
f 198 193 53
f 309 308 307
f 510 511 136
f 415 416 110
f 131 490 597
f 473 475 474
f 414 415 111
f 493 495 494
f 496 504 485
f 433 116 432
f 600 375 601
f 240 234 65
f 418 415 412
f 486 361 3
f 567 566 304
f 380 393 29
f 17 199 197
f 491 492 132
f 451 449 435
f 218 217 216
f 623 621 613
f 396 104 395
f 433 439 436
f 628 160 627
f 215 202 217
f 209 207 2
f 427 113 424
f 434 10 544
f 434 433 432
f 199 17 210
f 150 564 565
f 489 491 132
f 275 13 285
f 497 500 134
f 125 466 476
f 578 152 577
f 208 214 211
f 328 88 343
f 356 27 603
f 150 566 567
f 372 100 371
f 190 191 47
f 235 8 398
f 260 261 72
f 422 403 414
f 422 414 111
f 453 454 123
f 349 583 582
f 521 520 519
f 425 453 115
f 616 622 158
f 483 130 508
f 151 586 572
f 212 17 232
f 400 397 402
f 377 396 99
f 41 522 511
f 510 508 505
f 549 547 42
f 475 473 36
f 510 137 509
f 222 221 197
f 430 115 429
f 220 194 1
f 305 54 204
f 621 29 613
f 192 171 184
f 460 335 5
f 88 331 332
f 74 277 279
f 300 301 80
f 390 389 388
f 165 45 164
f 146 549 551
f 291 278 75
f 448 120 445
f 147 543 544
f 607 610 609
f 603 602 356
f 139 529 514
f 333 553 443
f 92 368 347
f 261 260 259
f 300 6 200
f 46 177 331
f 284 283 174
f 301 300 200
f 471 468 474
f 54 305 301
f 302 304 303
f 569 150 567
f 150 569 570
f 294 209 2
f 628 629 160
f 548 543 147
f 147 625 627
f 63 233 234
f 426 427 114
f 41 509 532
f 198 52 196
f 614 105 612
f 147 627 547
f 81 305 306
f 549 548 547
f 54 301 200
f 342 88 332
f 264 281 70
f 193 194 53
f 455 429 456
f 187 321 14
f 479 130 484
f 147 544 625
f 458 456 453
f 304 80 303
f 314 84 313
f 488 503 501
f 321 332 14
f 423 425 424
f 305 204 306
f 341 339 25
f 514 40 516
f 625 628 627
f 340 339 341
f 105 614 391
f 243 228 62
f 318 316 78
f 75 278 279
f 357 355 353
f 238 257 63
f 466 455 476
f 425 423 4
f 448 449 120
f 408 638 108
f 292 275 285
f 22 278 289
f 515 513 517
f 501 503 134
f 622 623 158
f 134 503 504
f 195 216 206
f 163 271 246
f 619 617 620
f 62 228 229
f 163 165 164
f 453 425 454
f 489 132 488
f 82 628 625
f 58 208 209
f 525 608 40
f 626 547 627
f 518 517 498
f 489 487 491
f 557 26 564
f 325 336 344
f 541 145 539
f 40 616 516
f 338 556 89
f 250 248 245
f 139 514 515
f 98 594 596
f 246 220 1
f 112 413 630
f 9 536 413
f 156 600 601
f 332 177 14
f 321 342 332
f 156 606 600
f 584 330 585
f 302 303 81
f 584 87 330
f 330 25 585
f 400 239 65
f 439 440 117
f 95 358 368
f 597 594 131
f 594 361 486
f 246 67 245
f 561 562 149
f 28 364 362
f 55 216 217
f 427 430 114
f 267 20 254
f 556 555 553
f 84 309 558
f 311 310 312
f 609 525 142
f 256 68 255
f 124 460 461
f 82 311 312
f 307 308 82
f 589 135 495
f 527 40 514
f 112 418 412
f 20 256 254
f 258 238 19
f 267 254 269
f 273 272 249
f 392 391 393
f 137 533 509
f 122 455 456
f 9 413 411
f 130 480 505
f 333 443 5
f 527 525 40
f 589 495 385
f 39 496 485
f 223 225 224
f 414 416 415
f 219 222 53
f 145 538 539
f 413 412 411
f 469 468 467
f 183 181 6
f 191 192 50
f 429 35 431
f 292 285 76
f 413 112 412
f 415 110 412
f 43 164 167
f 467 468 126
f 617 101 620
f 450 451 117
f 438 546 545
f 619 620 159
f 17 212 210
f 124 579 576
f 584 153 583
f 460 124 576
f 3 469 467
f 311 308 314
f 6 320 183
f 389 104 388
f 251 250 249
f 194 165 1
f 291 289 278
f 287 77 348
f 238 258 257
f 139 517 518
f 238 236 19
f 223 247 19
f 382 380 29
f 39 518 498
f 361 359 3
f 69 255 257
f 139 518 528
f 33 545 535
f 387 385 7
f 69 268 269
f 477 462 125
f 454 479 123
f 121 555 447
f 451 435 117
f 454 425 4
f 233 252 8
f 124 463 464
f 69 258 268
f 168 167 166
f 583 153 582
f 384 394 102
f 138 512 513
f 57 210 211
f 254 256 255
f 607 609 142
f 324 319 86
f 289 291 76
f 291 292 76
f 384 102 383
f 422 421 420
f 221 17 197
f 383 102 381
f 376 377 99
f 99 373 374
f 386 105 392
f 438 33 440
f 90 341 343
f 281 75 279
f 574 571 96
f 628 82 312
f 221 222 59
f 127 471 474
f 595 605 603
f 551 538 145
f 334 91 340
f 322 324 85
f 305 303 301
f 18 239 399
f 306 204 16
f 199 198 197
f 166 190 180
f 303 80 301
f 267 266 265
f 626 42 547
f 16 215 213
f 349 351 350
f 295 16 213
f 68 379 252
f 250 251 66
f 627 160 626
f 383 68 256
f 343 88 342
f 507 508 136
f 202 215 16
f 197 198 53
f 254 69 269
f 603 605 156
f 418 419 111
f 384 383 256
f 455 122 476
f 203 204 54
f 556 557 148
f 255 68 253
f 313 84 560
f 25 328 341
f 254 255 69
f 603 156 602
f 581 584 583
f 630 632 112
f 163 246 1
f 246 245 220
f 432 116 558
f 499 591 590
f 320 563 86
f 345 93 350
f 306 16 295
f 346 93 345
f 562 568 149
f 604 605 155
f 154 592 593
f 545 552 535
f 511 522 530
f 574 573 571
f 566 150 565
f 361 98 360
f 67 271 273
f 234 235 65
f 208 211 56
f 574 151 573
f 251 270 66
f 398 8 378
f 213 215 214
f 438 440 439
f 315 314 313
f 263 71 262
f 20 373 384
f 496 134 504
f 329 88 328
f 81 306 316
f 555 556 148
f 592 589 103
f 617 619 107
f 227 207 56
f 571 359 96
f 446 466 465
f 206 216 55
f 359 571 469
f 568 148 570
f 34 437 435
f 28 351 349
f 21 272 282
f 113 423 424
f 490 489 488
f 379 68 383
f 210 212 211
f 80 563 300
f 351 92 350
f 326 346 12
f 83 317 318
f 555 148 554
f 212 231 56
f 218 57 217
f 271 67 246
f 195 196 52
f 270 268 66
f 390 592 103
f 148 568 554
f 495 493 7
f 592 390 593
f 357 95 355
f 574 575 151
f 452 120 451
f 154 591 592
f 587 585 577
f 395 394 396
f 93 349 350
f 610 416 611
f 166 44 190
f 315 23 302
f 315 302 317
f 268 247 66
f 606 154 593
f 396 394 99
f 211 212 56
f 370 369 368
f 235 397 65
f 280 278 22
f 83 315 317
f 575 588 151
f 74 279 280
f 385 495 7
f 63 257 253
f 397 235 398
f 214 58 213
f 220 219 194
f 546 146 545
f 236 225 19
f 599 94 602
f 235 233 8
f 102 394 395
f 611 416 32
f 225 223 19
f 139 528 529
f 231 62 229
f 419 406 421
f 451 450 452
f 49 182 185
f 402 397 107
f 52 199 218
f 416 610 110
f 225 236 244
f 107 397 398
f 68 252 253
f 322 85 321
f 182 181 183
f 118 438 439
f 546 438 118
f 348 77 345
f 543 546 118
f 231 212 232
f 610 611 157
f 33 438 545
f 385 386 103
f 479 480 130
f 169 195 15
f 93 583 349
f 15 195 206
f 190 44 192
f 247 248 66
f 146 552 545
f 248 60 245
f 570 557 564
f 274 271 43
f 63 253 233
f 272 21 249
f 507 528 518
f 67 273 249
f 487 467 126
f 196 195 169
f 624 159 623
f 134 496 497
f 132 503 488
f 104 393 395
f 556 553 89
f 355 356 94
f 258 69 257
f 229 61 227
f 56 231 227
f 460 576 335
f 463 124 461
f 394 373 99
f 29 393 391
f 67 250 245
f 193 198 196
f 462 36 464
f 144 633 630
f 141 526 527
f 517 133 498
f 536 144 630
f 100 372 599
f 144 536 537
f 22 289 287
f 578 579 152
f 579 578 576
f 189 188 187
f 60 223 224
f 92 348 350
f 555 554 447
f 396 377 388
f 194 193 165
f 413 536 630
f 372 352 599
f 377 376 375
f 348 345 350
f 105 386 387
f 240 237 234
f 463 462 464
f 135 500 494
f 45 196 169
f 512 612 387
f 245 60 220
f 429 115 456
f 223 60 248
f 288 289 76
f 525 526 142
f 100 599 601
f 613 29 391
f 526 523 520
f 341 328 343
f 631 641 639
f 264 21 282
f 266 72 265
f 106 402 403
f 73 273 274
f 186 206 205
f 381 379 383
f 52 216 195
f 410 18 399
f 290 272 73
f 72 371 374
f 526 525 527
f 115 430 424
f 498 497 496
f 621 382 29
f 543 118 434
f 214 215 57
f 522 141 530
f 511 510 509
f 352 94 599
f 493 512 7
f 90 340 341
f 169 171 170
f 605 604 606
f 219 60 224
f 104 389 392
f 359 469 3
f 186 49 185
f 222 219 224
f 166 167 44
f 428 427 426
f 523 522 524
f 129 502 481
f 50 185 188
f 164 45 170
f 425 115 424
f 33 428 426
f 427 428 113
f 94 356 602
f 515 138 513
f 114 431 452
f 237 236 238
f 215 217 57
f 95 354 355
f 220 60 219
f 515 514 516
f 183 320 319
f 222 197 53
f 559 569 567
f 300 320 6
f 435 436 117
f 96 360 363
f 640 642 641
f 242 243 62
f 140 537 519
f 508 130 505
f 420 410 399
f 537 539 144
f 317 316 318
f 426 114 450
f 186 15 206
f 311 83 310
f 625 544 307
f 544 10 307
f 168 43 167
f 185 182 188
f 369 354 95
f 44 171 192
f 605 606 156
f 548 549 146
f 100 601 375
f 149 568 569
f 381 380 382
f 455 466 35
f 480 479 454
f 543 548 546
f 493 133 513
f 492 472 37
f 477 125 476
f 491 487 126
f 337 336 338
f 588 153 587
f 576 578 91
f 633 161 632
f 96 359 360
f 39 485 483
f 101 617 378
f 193 45 165
f 163 164 43
f 618 624 611
f 507 136 528
f 561 149 560
f 641 162 639
f 116 561 558
f 494 133 493
f 253 252 233
f 63 237 238
f 392 393 104
f 440 450 117
f 93 581 583
f 386 385 387
f 120 449 451
f 421 422 111
f 486 3 467
f 302 81 317
f 633 632 630
f 462 475 36
f 376 99 374
f 489 490 131
f 447 449 448
f 387 612 105
f 106 420 399
f 173 46 172
f 492 491 472
f 316 306 295
f 22 287 347
f 109 410 420
f 507 39 483
f 559 23 313
f 214 57 211
f 196 45 193
f 10 434 432
f 422 106 403
f 626 160 640
f 487 486 467
f 542 41 532
f 400 106 399
f 444 120 452
f 198 199 52
f 475 127 474
f 621 620 382
f 621 623 159
f 450 114 452
f 92 347 348
f 376 100 375
f 434 118 433
f 503 132 502
f 337 90 336
f 537 536 519
f 395 393 380
f 201 54 200
f 171 44 170
f 355 94 353
f 58 296 213
f 422 420 106
f 595 365 596
f 569 568 570
f 523 140 520
f 114 430 431
f 218 210 57
f 304 566 80
f 639 162 638
f 261 371 72
f 548 147 547
f 498 133 497
f 150 570 564
f 222 224 59
f 142 526 520
f 437 436 435
f 141 522 523
f 137 510 505
f 173 179 176
f 559 149 569
f 121 447 448
f 563 320 300
f 102 395 380
f 257 255 253
f 642 162 641
f 83 311 314
f 216 52 218
f 512 493 513
f 23 304 302
f 91 339 340
f 512 138 612
f 159 620 621
f 218 199 210
f 364 28 575
f 83 318 310
f 168 274 43
f 136 530 528
f 140 523 524
f 495 135 494
f 233 235 234
f 566 563 80
f 25 339 577
f 277 74 276
f 475 462 477
f 133 494 497
f 436 437 116
f 389 386 392
f 548 146 546
f 441 460 5
f 10 309 307
f 65 397 400
f 543 434 544
f 640 641 161
f 272 273 73
f 581 93 346
f 419 421 111
f 319 320 86
f 180 179 178
f 127 475 477
f 231 229 227
f 337 334 340
f 136 508 510
f 308 309 84
f 237 63 234
f 447 554 34
f 252 379 378
f 315 83 314
f 608 622 616
f 338 336 26
f 337 338 89
f 13 275 168
f 209 208 207
f 436 439 117
f 628 312 629
f 360 366 363
f 364 574 96
f 359 361 360
f 466 446 35
f 500 501 134
f 406 109 421
f 135 589 591
f 601 599 602
f 340 90 337
f 481 492 37
f 522 41 524
f 78 316 295
f 131 486 487
f 403 32 414
f 634 626 640
f 151 572 573
f 515 516 138
f 8 252 378
f 265 72 374
f 9 521 519
f 538 549 42
f 368 358 347
f 588 587 586
f 458 453 123
f 589 385 103
f 502 492 481
f 32 416 414
f 430 427 424
f 153 585 587
f 540 144 539
f 370 368 92
f 209 293 58
f 428 33 535
f 326 581 346
f 625 307 82
f 575 28 582
f 6 181 200
f 421 109 420
f 553 121 443
f 160 642 640
f 153 584 585
f 309 432 558
f 334 337 89
f 23 315 313
f 271 163 43
f 296 295 213
f 39 498 496
f 118 439 433
f 531 113 534
f 293 296 58
f 28 362 351
f 489 131 487
f 431 444 452
f 84 558 560
f 98 366 360
f 45 169 170
f 379 101 378
f 462 463 125
f 308 84 314
f 10 432 309
f 299 24 310
f 132 492 502
f 512 387 7
f 639 638 408
f 565 323 86
f 59 244 242
f 106 400 402
f 440 33 426
f 566 565 563
f 617 398 378
f 224 225 59
f 410 109 409
f 239 400 399
f 194 219 53
f 358 22 347
f 610 157 609
f 27 595 603
f 479 484 482
f 142 520 521
f 585 25 577
f 339 578 577
f 408 407 406
f 407 109 406
f 31 408 406
f 407 408 108
f 31 639 408
f 419 31 406
f 608 616 40
f 430 429 431
f 455 35 429
f 35 444 431
f 188 51 187
f 188 182 51
f 51 322 187
f 322 51 319
f 51 182 183
f 319 51 183
f 187 322 321
f 322 319 324
f 381 101 379
f 405 407 108
f 404 405 108
f 286 285 178
f 407 405 409
f 109 407 409
f 191 175 47
f 167 164 170
f 50 184 185
f 44 167 170
f 64 244 236
f 243 244 64
f 50 188 189
f 541 542 145
f 442 445 119
f 339 91 578
f 445 446 119
f 624 623 622
f 611 624 157
f 523 526 141
f 141 527 529
f 527 514 529
f 445 120 444
f 446 445 444
f 35 446 444
f 613 614 158
f 158 614 615
f 623 613 158
f 614 613 391
f 614 612 615
f 371 376 374
f 100 376 371
f 479 482 123
f 373 394 384
f 540 42 634
f 633 540 634
f 538 42 540
f 633 634 161
f 161 634 640
f 42 626 634
f 540 633 144
f 557 556 338
f 553 333 89
f 262 21 264
f 251 21 262
f 5 335 333
f 270 251 262
f 21 251 249
f 600 593 30
f 606 593 600
f 600 30 375
f 593 390 30
f 30 377 375
f 390 388 30
f 30 388 377
f 228 243 241
f 470 478 459
f 470 127 478
f 127 477 478
f 184 186 185
f 478 477 476
f 122 478 476
f 357 74 280
f 518 39 507
f 344 342 85
f 325 344 85
f 342 344 343
f 85 342 321
f 344 90 343
f 90 344 336
f 482 129 481
f 482 481 457
f 482 457 123
f 481 37 457
f 449 447 34
f 435 449 34
f 470 472 471
f 472 470 37
f 470 471 127
f 472 126 471
f 126 468 471
f 470 459 37
f 491 126 472
f 504 129 485
f 221 59 242
f 125 463 465
f 437 34 562
f 561 437 562
f 554 568 562
f 34 554 562
f 437 561 116
f 390 103 389
f 103 386 389
f 392 105 391
f 572 586 580
f 572 580 36
f 586 152 580
f 473 572 36
f 244 243 242
f 225 244 59
f 64 240 241
f 240 239 241
f 237 240 64
f 243 64 241
f 236 237 64
f 411 607 521
f 9 411 521
f 110 607 411
f 607 142 521
f 610 607 110
f 171 15 184
f 171 169 15
f 15 186 184
f 87 584 581
f 153 588 582
f 588 575 582
f 381 102 380
f 573 572 473
f 468 469 128
f 474 468 128
f 469 571 128
f 571 573 128
f 573 473 128
f 473 474 128
f 564 323 565
f 26 323 564
f 323 324 86
f 325 323 26
f 325 324 323
f 563 565 86
f 324 325 85
f 410 230 18
f 230 228 18
f 18 228 241
f 18 241 239
f 401 619 618
f 401 402 107
f 403 402 401
f 619 159 618
f 401 618 32
f 619 401 107
f 403 401 32
f 618 611 32
f 159 624 618
f 478 122 459
f 122 458 459
f 37 459 457
f 459 458 457
f 122 456 458
f 457 458 123
f 191 190 192
f 485 129 484
f 129 482 484
f 483 485 484
f 130 483 484
f 189 187 14
f 191 50 189
f 191 189 175
f 189 14 175
f 14 177 175
f 499 501 500
f 501 499 38
f 38 499 590
f 135 499 500
f 488 501 38
f 499 135 591
f 480 454 4
f 284 12 346
f 4 423 506
f 480 4 506
f 423 531 506
f 480 506 505
f 531 137 506
f 506 137 505
f 365 366 98
f 71 270 262
f 270 71 269
f 71 267 269
f 335 334 333
f 333 334 89
f 334 335 91
f 536 9 519
f 465 463 461
f 537 140 541
f 520 140 519
f 119 446 465
f 465 461 119
f 461 441 119
f 460 441 461
f 176 46 173
f 299 297 24
f 71 263 266
f 263 260 266
f 260 72 266
f 263 70 260
f 205 201 49
f 201 181 49
f 186 205 49
f 181 201 200
f 181 182 49
f 284 77 283
f 586 587 152
f 588 586 151
f 20 267 265
f 266 267 71
f 31 417 631
f 631 417 632
f 31 631 639
f 417 31 419
f 641 631 161
f 417 112 632
f 161 631 632
f 418 417 419
f 417 418 112
f 284 345 77
f 542 550 145
f 542 541 524
f 284 174 12
f 48 174 283
f 373 20 265
f 373 265 374
f 609 608 525
f 608 157 622
f 560 559 313
f 636 637 162
f 541 140 524
f 41 542 524
f 358 357 280
f 70 263 264
f 263 262 264
f 176 177 46
f 174 48 173
f 174 173 172
f 538 551 549
f 538 540 539
f 537 541 539
f 232 221 242
f 17 221 232
f 232 242 62
f 231 232 62
f 203 205 55
f 203 55 202
f 201 205 203
f 202 55 217
f 205 206 55
f 204 203 202
f 73 275 292
f 292 290 73
f 272 290 282
f 290 292 291
f 75 290 291
f 290 75 282
f 70 277 259
f 277 70 281
f 277 281 279
f 260 70 259
f 12 174 172
f 104 396 388
f 367 27 354
f 365 27 367
f 354 27 356
f 365 367 366
f 595 27 365
f 318 299 310
f 155 596 597
f 155 597 598
f 596 594 597
f 595 596 155
f 605 595 155
f 180 47 179
f 180 190 47
f 352 372 11
f 11 372 261
f 312 310 24
f 642 636 162
f 636 297 637
f 367 369 97
f 366 367 97
f 369 367 354
f 369 370 97
f 580 579 464
f 580 152 579
f 579 124 464
f 61 230 409
f 230 410 409
f 230 61 229
f 230 229 228
f 76 285 286
f 353 352 276
f 74 353 276
f 288 76 286
f 288 286 283
f 289 288 287
f 203 54 201
f 287 288 77
f 77 288 283
f 286 48 283
f 531 423 113
f 276 11 259
f 11 261 259
f 277 276 259
f 616 158 615
f 516 616 615
f 138 516 615
f 138 615 612
f 509 533 532
f 503 502 504
f 635 79 294
f 635 294 404
f 635 637 79
f 637 635 638
f 638 635 108
f 635 404 108
f 226 61 405
f 61 226 227
f 405 61 409
f 227 226 207
f 48 178 179
f 48 286 178
f 173 48 179
f 534 143 533
f 534 535 143
f 531 534 533
f 533 143 532
f 137 531 533
f 261 372 371
f 13 180 178
f 285 13 178
f 180 13 166
f 13 168 166
f 346 345 284
f 331 327 46
f 46 327 172
f 172 327 326
f 382 620 101
f 442 121 448
f 443 121 442
f 2 226 404
f 294 2 404
f 404 226 405
f 207 226 2
f 550 551 145
f 552 146 551
f 143 550 532
f 552 550 143
f 330 329 328
f 24 636 629
f 94 352 353
f 352 11 276
f 113 428 534
f 428 535 534
f 509 41 511
f 535 552 143
f 550 552 551
f 550 542 532
f 369 95 368
f 326 327 87
f 87 327 329
f 327 331 329
f 581 326 87
f 293 79 298
f 79 297 298
f 296 298 78
f 79 293 294
f 296 293 298
f 598 490 38
f 358 280 22
f 280 279 278
f 357 358 95
f 74 357 353
f 330 328 25
f 567 23 559
f 590 598 38
f 590 604 598
f 598 604 155
f 604 590 154
f 590 591 154
f 604 154 606
f 297 299 298
f 299 318 78
f 298 299 78
f 355 354 356
f 629 636 642
f 312 24 629
f 629 642 160
f 370 362 97
f 362 363 97
f 363 366 97
f 364 363 362
f 362 370 351
f 96 363 364
f 297 636 24
f 162 637 638
f 637 297 79
f 490 488 38
f 598 597 490
f 441 442 119
f 443 442 441
f 443 441 5
f 442 448 445
f 296 78 295
f 326 12 172
f 575 574 364
f 47 175 176
f 175 177 176
f 47 176 179
