# FEM surface export ¡ª frame 204
# Vertices: 642  Faces: 1280
v -0.52617043 1.65484357 -0.00002707
v 0.52610350 1.65457356 -0.00001647
v -0.56359905 0.00029737 0.00091326
v 0.55371177 0.00030559 0.00016366
v -0.00062856 0.28561842 0.86990249
v -0.00020082 1.33066726 0.85192192
v -0.00046541 0.28641453 -0.87181050
v 0.00002860 1.33025432 -0.85157686
v 0.85446632 0.80752146 -0.52809852
v 0.85421109 0.80706757 0.52762145
v -0.85455143 0.80788523 -0.52838403
v -0.85440707 0.80728424 0.52790767
v -0.81014669 1.30449533 0.30952296
v -0.50100565 1.11433756 0.81045401
v -0.30926976 1.61309016 0.50037193
v 0.30929780 1.61312973 0.50042737
v 0.00004542 1.80390501 -0.00001485
v 0.30930266 1.61299968 -0.50038993
v -0.30921784 1.61321294 -0.50042683
v -0.50089532 1.11411929 -0.81062007
v -0.81016850 1.30480015 -0.30945957
v -1.00359857 0.80639875 -0.00012784
v 0.50140691 1.11457169 0.81081903
v 0.81004351 1.30439222 0.30930066
v -0.50683409 0.50202590 0.82056069
v -0.00010808 0.80701309 1.00444865
v -0.82729179 0.31336814 -0.31587189
v -0.82666385 0.31232911 0.31691295
v -0.00012225 0.80775696 -1.00467896
v -0.50544709 0.50103199 -0.81889838
v 0.81002086 1.30454826 -0.30941567
v 0.50075722 1.11404526 -0.81031179
v 0.82982379 0.31154919 0.31588879
v 0.50661719 0.50124359 0.81950724
v 0.32752097 0.02609511 0.52634466
v -0.32672533 0.02581393 0.52662754
v -0.00364117 0.00000000 0.00157954
v -0.32491344 0.02555194 -0.52668560
v 0.32687733 0.02814413 -0.52772599
v 0.50644553 0.50144148 -0.81917429
v 0.82915092 0.31250855 -0.31648600
v 1.00470674 0.80729407 0.00044311
v -0.69448203 1.50628912 0.16082162
v -0.58839715 1.49251199 0.42579195
v -0.43427214 1.66678619 0.26007733
v -0.70386094 0.96665114 0.69540602
v -0.68915761 1.23000872 0.58863389
v -0.86444765 1.06517279 0.43479276
v -0.16077298 1.49804354 0.70262879
v -0.42588067 1.39218342 0.68890244
v -0.26038688 1.23893189 0.86394668
v -0.16249043 1.75499392 0.26304609
v -0.27337864 1.76589119 0.00000959
v 0.16077903 1.49794471 0.70266604
v 0.00003642 1.65461278 0.52608091
v 0.27345276 1.76581192 0.00001466
v 0.16263241 1.75507236 0.26308969
v 0.43425280 1.66663814 0.26008525
v -0.16250853 1.75499642 -0.26306513
v -0.43420264 1.66685009 -0.26011154
v 0.43421489 1.66659498 -0.26009262
v 0.16258711 1.75498152 -0.26305833
v -0.16065522 1.49788535 -0.70260292
v 0.00010315 1.65464616 -0.52612150
v 0.16087160 1.49780130 -0.70265776
v -0.58833265 1.49255824 -0.42573571
v -0.69440156 1.50627828 -0.16080771
v -0.26027268 1.23859429 -0.86387074
v -0.42569986 1.39224720 -0.68890858
v -0.86462086 1.06553221 -0.43494335
v -0.68908751 1.23026204 -0.58882219
v -0.70391536 0.96668583 -0.69577146
v -0.85186613 1.33040833 0.00010615
v -0.96592826 0.80710208 -0.27473137
v -0.95348197 1.06840360 -0.16281904
v -0.95322955 1.06800115 0.16294049
v -0.96571440 0.80659682 0.27436548
v 0.58837646 1.49225891 0.42565948
v 0.69435900 1.50610375 0.16063508
v 0.26040742 1.23843694 0.86410803
v 0.42576465 1.39208961 0.68890226
v 0.86452365 1.06511176 0.43485150
v 0.68945551 1.23011482 0.58854049
v 0.70407677 0.96635920 0.69517732
v -0.26359266 0.96862829 0.95383984
v -0.00011690 1.07877350 0.96415621
v -0.70801204 0.64862818 0.69920599
v -0.52825618 0.80799210 0.85434908
v -0.00035254 0.53587908 0.97245044
v -0.26510581 0.64647597 0.95892632
v -0.26508260 0.37720677 0.87988198
v -0.96017975 0.54649478 0.16424571
v -0.87133366 0.54948509 0.43841010
v -0.87127858 0.55062515 -0.43877897
v -0.96118146 0.54719782 -0.16451751
v -0.72541356 0.11784768 0.16958031
v -0.87070101 0.28819233 -0.00031020
v -0.72366256 0.11612584 -0.16710210
v -0.52817595 0.80716199 -0.85477954
v -0.70736706 0.64849567 -0.69947416
v -0.00004910 1.07893407 -0.96399200
v -0.26357812 0.96854287 -0.95396829
v -0.26513591 0.37649980 -0.87873191
v -0.26429200 0.64581919 -0.95769644
v 0.00038160 0.53732032 -0.97250974
v 0.42573386 1.39185548 -0.68876290
v 0.26040348 1.23844004 -0.86365157
v 0.69427109 1.50598264 -0.16078280
v 0.58827901 1.49217153 -0.42557102
v 0.70378083 0.96677190 -0.69572628
v 0.68905360 1.23012912 -0.58857882
v 0.86466700 1.06543446 -0.43494716
v 0.72519600 0.11333139 0.16667330
v 0.61475778 0.12849805 0.44323897
v 0.46051955 0.00000000 0.27977616
v 0.70777661 0.64832222 0.69905800
v 0.70077747 0.38529220 0.59960651
v 0.87063116 0.54929364 0.43794629
v 0.16506734 0.12146223 0.72737199
v 0.43732345 0.22469191 0.70933533
v 0.26413393 0.37762678 0.87933201
v 0.17316081 0.00000000 0.28310174
v 0.28898388 0.00000000 -0.00385841
v -0.16675496 0.12257842 0.72674501
v 0.00183682 0.00264093 0.56093025
v -0.29565391 0.00000000 -0.00034911
v -0.17416735 0.00000000 0.28102967
v -0.45796213 0.00000000 0.27696770
v 0.17165244 0.00000000 -0.28346205
v 0.45986411 0.00000000 -0.27416477
v -0.46264100 0.00039448 -0.27757779
v -0.17395072 0.00000000 -0.28262073
v 0.16705357 0.12266453 -0.73293126
v -0.00188187 0.00183260 -0.55673856
v -0.16671580 0.12035938 -0.73004782
v 0.61239105 0.12898020 -0.44289437
v 0.72378308 0.11325112 -0.16849303
v 0.26519898 0.37698704 -0.87898630
v 0.43692404 0.22665900 -0.70955944
v 0.87181365 0.55000120 -0.43833354
v 0.70123297 0.38659036 -0.59927833
v 0.70748383 0.64851815 -0.69938320
v 0.87263227 0.28545627 -0.00129176
v 0.96651089 0.80745173 -0.27449015
v 0.96095145 0.54684597 -0.16414000
v 0.95918894 0.54590356 0.16353998
v 0.96533704 0.80656022 0.27445257
v 0.26471013 0.64618176 0.95799136
v 0.52846396 0.80743194 0.85399437
v 0.26362038 0.96850538 0.95406812
v -0.61019242 0.12949185 0.44355094
v -0.43834493 0.22562252 0.71023333
v -0.70041674 0.38579375 0.59940940
v -0.44065389 0.22439477 -0.71167409
v -0.61286658 0.12991890 -0.44317353
v -0.70103592 0.38556954 -0.59868747
v 0.52784967 0.80709165 -0.85413128
v 0.26494920 0.64722574 -0.95886934
v 0.26370627 0.96864533 -0.95365781
v 0.95300651 1.06818032 0.16303465
v 0.95313489 1.06832170 -0.16262668
v 0.85154253 1.33008623 -0.00001833
v -0.61615354 1.58799601 0.08118542
v -0.57175058 1.59680080 0.21321034
v -0.48478773 1.66899800 0.13130128
v -0.70800781 1.40589845 0.37216860
v -0.64808762 1.50664282 0.29636446
v -0.75952178 1.41115201 0.23740149
v -0.37538505 1.64802420 0.38395882
v -0.51657289 1.58764958 0.34649003
v -0.45438284 1.56214547 0.46892011
v -0.78648657 0.88769668 0.61764574
v -0.79446864 1.01885641 0.57259119
v -0.86733896 0.93729812 0.48582873
v -0.60248196 1.17669761 0.70818162
v -0.70352888 1.10121298 0.64858264
v -0.60802323 1.04267168 0.75993824
v -0.84527749 1.18828809 0.37570724
v -0.78480744 1.15125287 0.51697755
v -0.75897360 1.27293587 0.45454860
v -0.08120462 1.42020416 0.78462732
v -0.21332547 1.37580645 0.79357237
v -0.13151315 1.28924322 0.86622691
v -0.37208590 1.51132214 0.60203695
v -0.29634210 1.45179343 0.70297706
v -0.23727076 1.56274486 0.60727531
v -0.38428432 1.18010640 0.84522706
v -0.34666222 1.32086408 0.78446275
v -0.46914947 1.25870800 0.75898510
v -0.64735174 1.36866570 0.51402444
v -0.56498963 1.31790888 0.64737773
v -0.51392025 1.45092762 0.56483114
v -0.35845518 1.72825003 0.13176094
v -0.40357253 1.71901178 0.00001528
v -0.23877926 1.69504678 0.38650486
v -0.30147693 1.72022760 0.26427382
v -0.13800150 1.79452503 -0.00000826
v -0.22019404 1.77026796 0.13287912
v -0.08223201 1.79168224 0.13313222
v 0.08115792 1.42007685 0.78457958
v 0.00001530 1.50715923 0.71180880
v 0.15655079 1.64410889 0.51959181
v 0.08122268 1.58424497 0.62060833
v 0.23727979 1.56268382 0.60731965
v -0.08113158 1.58425915 0.62063396
v -0.15650037 1.64424753 0.51964098
v 0.40367034 1.71894109 0.00002662
v 0.35851297 1.72817528 0.13177998
v 0.48479256 1.66887033 0.13127215
v 0.08236494 1.79157400 0.13316453
v 0.22033359 1.77035332 0.13291994
v 0.13809495 1.79443896 0.00001377
v 0.37536013 1.64785159 0.38387462
v 0.30154973 1.72023523 0.26431814
v 0.23886874 1.69494045 0.38645601
v -0.08231018 1.71699512 0.39994034
v 0.08238287 1.71687710 0.39980653
v 0.00006105 1.76784217 0.26657945
v -0.35842323 1.72827041 -0.13174707
v -0.48478273 1.66903663 -0.13132793
v -0.08224495 1.79163241 -0.13319437
v -0.22023834 1.77040529 -0.13293420
v -0.37526187 1.64803088 -0.38391912
v -0.30142096 1.72025681 -0.26427177
v -0.23879391 1.69504380 -0.38646644
v 0.48478994 1.66887474 -0.13130185
v 0.35850784 1.72823203 -0.13173433
v 0.23889633 1.69494617 -0.38647750
v 0.30149624 1.72016680 -0.26429248
v 0.37533677 1.64785504 -0.38390702
v 0.22027788 1.77032661 -0.13289030
v 0.08232030 1.79161358 -0.13317680
v -0.08109344 1.41995549 -0.78457320
v 0.00008510 1.50698757 -0.71187443
v 0.08124259 1.41979253 -0.78452307
v -0.15646242 1.64419568 -0.51962847
v -0.08106691 1.58427906 -0.62071013
v -0.23718077 1.56275582 -0.60728145
v 0.23736620 1.56261992 -0.60731643
v 0.08133645 1.58424747 -0.62074804
v 0.15663095 1.64411283 -0.51961786
v 0.00003091 1.76778424 -0.26658320
v 0.08245610 1.71693647 -0.39986196
v -0.08230554 1.71696353 -0.39988965
v -0.57167864 1.59684432 -0.21325208
v -0.61617386 1.58802485 -0.08114505
v -0.45428082 1.56211925 -0.46882698
v -0.51653153 1.58773196 -0.34649053
v -0.75952947 1.41137445 -0.23739046
v -0.64804697 1.50663459 -0.29633662
v -0.70794952 1.40602767 -0.37220439
v -0.13135198 1.28922129 -0.86604279
v -0.21319491 1.37567091 -0.79354525
v -0.46904883 1.25871384 -0.75895274
v -0.34651971 1.32070470 -0.78439999
v -0.38425800 1.18005335 -0.84526139
v -0.29620588 1.45174241 -0.70305806
v -0.37196937 1.51140833 -0.60207397
v -0.86773276 0.93774390 -0.48608834
v -0.79471612 1.01909339 -0.57287496
v -0.78650409 0.88789421 -0.61800587
v -0.75895965 1.27327812 -0.45476133
v -0.78485721 1.15149176 -0.51722425
v -0.84547424 1.18881929 -0.37575486
v -0.60813993 1.04265559 -0.76055962
v -0.70371264 1.10136056 -0.64887124
v -0.60242724 1.17649317 -0.70832980
v -0.51378071 1.45093131 -0.56485462
v -0.56494087 1.31794560 -0.64750445
v -0.64726603 1.36877465 -0.51397943
v -0.70362633 1.51560092 0.00005374
v -0.84141868 1.32404315 -0.15667252
v -0.78111643 1.42468274 -0.08121836
v -0.78105867 1.42460632 0.08127986
v -0.84129500 1.32385457 0.15675716
v -0.91907179 0.80749959 -0.40526727
v -0.92723054 0.93805909 -0.35931909
v -0.99083990 0.93909144 -0.08238764
v -0.96911526 0.93876350 -0.22074325
v -0.99456614 0.80673802 -0.13854922
v -0.91830373 1.06964040 -0.30193964
v -0.89266384 1.19129479 -0.23908632
v -0.92706621 0.93766701 0.35939011
v -0.91900486 0.80699730 0.40525472
v -0.89258957 1.19099963 0.23916310
v -0.91819173 1.06922042 0.30192876
v -0.99436158 0.80648631 0.13848720
v -0.96919841 0.93827689 0.22083297
v -0.99053657 0.93877393 0.08253179
v -0.91480565 1.20473802 -0.08239259
v -0.96625751 1.07179284 0.00016318
v -0.91472536 1.20455396 0.08258555
v 0.57170188 1.59671831 0.21315424
v 0.61606169 1.58775806 0.08105384
v 0.45435318 1.56197870 0.46883360
v 0.51653481 1.58750308 0.34639663
v 0.75939178 1.41097379 0.23723271
v 0.64800763 1.50642455 0.29621702
v 0.70792699 1.40580404 0.37209544
v 0.13139062 1.28918695 0.86640126
v 0.21326646 1.37546921 0.79346013
v 0.46928930 1.25887764 0.75911444
v 0.34656629 1.32052457 0.78442073
v 0.38438812 1.17985761 0.84524614
v 0.29620755 1.45143497 0.70293427
v 0.37203240 1.51112044 0.60199416
v 0.86728561 0.93699276 0.48544887
v 0.79446048 1.01828134 0.57213748
v 0.78662384 0.88762224 0.61731911
v 0.75908744 1.27302265 0.45451817
v 0.78498763 1.15108287 0.51686263
v 0.84523720 1.18830061 0.37557909
v 0.60877949 1.04278445 0.76035267
v 0.70398295 1.10112262 0.64831442
v 0.60302448 1.17689538 0.70833635
v 0.51396453 1.45075035 0.56482005
v 0.56513554 1.31805933 0.64736575
v 0.64742762 1.36861634 0.51389974
v -0.13202317 1.16346848 0.92611450
v -0.00009096 1.20833957 0.91665661
v -0.38706166 1.04446399 0.89305890
v -0.26469597 1.10683405 0.91812080
v -0.00007842 0.94420183 0.99361962
v -0.13316920 1.02590561 0.96880907
v -0.13362192 0.88871670 0.99129200
v -0.78867680 0.72700882 0.61908799
v -0.71468210 0.80757356 0.70588368
v -0.52368987 0.65306318 0.84746331
v -0.62409824 0.72758955 0.78460932
v -0.61340463 0.57328308 0.76705962
v -0.62214535 0.88789904 0.78235459
v -0.52068764 0.96263731 0.84233195
v -0.00033300 0.40658066 0.92992342
v -0.13393952 0.45171416 0.93728393
v -0.13366911 0.32556275 0.88370216
v -0.13395369 0.72559422 0.99327832
v -0.13424212 0.58863771 0.97528112
v -0.00061303 0.67016417 0.99710143
v -0.39063317 0.43609500 0.85785586
v -0.26775181 0.50879192 0.92811155
v -0.39029881 0.57134187 0.90097511
v -0.40125591 0.88906538 0.91637677
v -0.40259704 0.72621107 0.91945499
v -0.26769158 0.80753273 0.96877199
v -0.93037051 0.67673570 0.36065251
v -0.87061942 0.67679352 0.48750314
v -0.99399728 0.67512226 0.08291519
v -0.97247791 0.67530340 0.22152130
v -0.85724390 0.42741552 0.38128835
v -0.92555231 0.54553354 0.30452672
v -0.90405023 0.42481744 0.24275590
v -0.87070698 0.67807978 -0.48815942
v -0.93063968 0.67718947 -0.36119875
v -0.90528893 0.42564303 -0.24250074
v -0.92564070 0.54630160 -0.30468449
v -0.85720503 0.42798036 -0.38119084
v -0.97299916 0.67590833 -0.22200571
v -0.99450976 0.67508638 -0.08305486
v -0.65055215 0.04594925 0.08625755
v -0.73350674 0.10938544 0.00118319
v -0.64910299 0.04631339 -0.08514693
v -0.86000729 0.29546595 0.16042508
v -0.80598462 0.19615287 0.08495907
v -0.78404170 0.20836948 0.24592541
v -0.78081113 0.20739305 -0.24481882
v -0.80582017 0.19466963 -0.08395032
v -0.85927391 0.29337692 -0.16068369
v -0.97418398 0.54345572 0.00004562
v -0.92798376 0.41233075 -0.08408117
v -0.92872423 0.41244063 0.08297142
v -0.71425813 0.80758321 -0.70612776
v -0.78833801 0.72731727 -0.61948788
v -0.52074915 0.96207970 -0.84257483
v -0.62231922 0.88760632 -0.78281337
v -0.61251581 0.57238579 -0.76612759
v -0.62363374 0.72683811 -0.78506523
v -0.52272600 0.65200198 -0.84650719
v 0.00007021 1.20840323 -0.91638994
v -0.13185686 1.16349220 -0.92594784
v -0.13362554 0.88890541 -0.99111575
v -0.13315862 1.02605641 -0.96889442
v -0.00012728 0.94452435 -0.99356318
v -0.26465991 1.10665774 -0.91823471
v -0.38713986 1.04437196 -0.89312702
v -0.13430497 0.32706058 -0.88538051
v -0.13388978 0.45227626 -0.93793571
v 0.00019103 0.40823030 -0.93104923
v -0.38898054 0.57025009 -0.89934635
v -0.26690656 0.50841063 -0.92701530
v -0.38942006 0.43497837 -0.85742408
v 0.00006533 0.67102903 -0.99771833
v -0.13353257 0.58911526 -0.97417182
v -0.13382095 0.72576112 -0.99335641
v -0.40095848 0.88892794 -0.91668308
v -0.26747999 0.80705512 -0.96804476
v -0.40182522 0.72548473 -0.91868389
v 0.21331863 1.37551832 -0.79345167
v 0.13143969 1.28897989 -0.86596298
v 0.37215623 1.51112366 -0.60203451
v 0.29635227 1.45144677 -0.70296216
v 0.38418564 1.17972672 -0.84496427
v 0.34657264 1.32026196 -0.78415698
v 0.46896425 1.25846064 -0.75878578
v 0.61610258 1.58781648 -0.08118343
v 0.57168734 1.59663093 -0.21318603
v 0.70770818 1.40567720 -0.37197423
v 0.64793986 1.50623369 -0.29621375
v 0.75925165 1.41089714 -0.23723112
v 0.51652509 1.58741510 -0.34636670
v 0.45433691 1.56193292 -0.46881363
v 0.78650689 0.88808596 -0.61777222
v 0.79466468 1.01923418 -0.57284451
v 0.86772633 0.93779963 -0.48617864
v 0.60234749 1.17665267 -0.70814151
v 0.70343840 1.10118437 -0.64863217
v 0.60804003 1.04273665 -0.76037115
v 0.84527040 1.18865335 -0.37581328
v 0.78466845 1.15136552 -0.51703739
v 0.75877726 1.27319145 -0.45455882
v 0.51383579 1.45057392 -0.56469333
v 0.64711863 1.36854577 -0.51379639
v 0.56486779 1.31778002 -0.64725924
v 0.64731103 0.04510406 0.08623878
v 0.60390329 0.03723605 0.22505851
v 0.51386350 0.00000000 0.14092030
v 0.73093224 0.21345675 0.38252935
v 0.67717057 0.11593767 0.30726194
v 0.78404379 0.20692803 0.24330029
v 0.40388620 0.00790196 0.40865189
v 0.54747289 0.04789724 0.36581764
v 0.47977024 0.06894168 0.49379981
v 0.78819454 0.72682780 0.61874187
v 0.80015415 0.59605914 0.57627171
v 0.87067115 0.67686367 0.48745126
v 0.61142474 0.43906164 0.71850771
v 0.71056581 0.51418197 0.65489370
v 0.61297709 0.57285362 0.76630396
v 0.85570908 0.42733517 0.38043690
v 0.79344171 0.46409294 0.52298158
v 0.77414584 0.34200409 0.46434748
v 0.08200547 0.19731602 0.80567974
v 0.21735267 0.24047609 0.81450564
v 0.13367130 0.32679686 0.88241750
v 0.38633180 0.11053151 0.62728244
v 0.30525491 0.16821238 0.72722119
v 0.24812052 0.06588095 0.63329905
v 0.38924292 0.43540695 0.85737425
v 0.35376233 0.29575419 0.80263358
v 0.47741652 0.35721123 0.77288193
v 0.66548520 0.24799931 0.52840048
v 0.57781011 0.29839960 0.66283840
v 0.53186721 0.16964041 0.58728904
v 0.38115481 0.00000000 0.13679045
v 0.42922232 0.00000000 -0.00054195
v 0.25609574 0.00000000 0.41264963
v 0.32124537 0.00000000 0.28229526
v 0.14433509 0.00000000 -0.00054485
v 0.23019198 0.00000000 0.14042521
v 0.08536863 0.00000000 0.14309195
v -0.08376567 0.19623731 0.80558461
v 0.00190858 0.11266749 0.73862112
v -0.16525304 0.00425253 0.54809618
v -0.08574942 0.04502843 0.64998692
v -0.24828145 0.06804634 0.63482177
v 0.08772375 0.04248993 0.65126806
v 0.16595064 0.00258962 0.54820216
v -0.43206334 0.00000000 -0.00323034
v -0.38686308 0.00000000 0.14073083
v -0.52088326 0.00000000 0.14095978
v -0.09404736 0.00000000 0.14189509
v -0.23952377 0.00000000 0.14351009
v -0.15093996 0.00000000 0.00217830
v -0.39823034 0.00397881 0.40697631
v -0.32355022 0.00000000 0.28415495
v -0.25436929 0.00000000 0.41239834
v 0.08588938 0.00000000 0.42737767
v -0.08798560 0.00000000 0.42836455
v -0.00058436 0.00000000 0.28298447
v 0.37872663 0.00000000 -0.14445604
v 0.51468778 0.00000000 -0.13964523
v 0.08887120 0.00000000 -0.14125283
v 0.23265553 0.00000000 -0.14624506
v 0.39865649 0.00397389 -0.40496898
v 0.31830651 0.00000000 -0.28580093
v 0.25294983 0.00000000 -0.41504228
v -0.51832640 0.00000000 -0.14078949
v -0.38151151 0.00000000 -0.14464338
v -0.25011557 0.00000000 -0.41303748
v -0.32606247 0.00000000 -0.28601637
v -0.39367971 0.00386072 -0.40731490
v -0.23732866 0.00000000 -0.14328374
v -0.08881550 0.00000000 -0.14276539
v 0.08227786 0.19948018 -0.80829257
v -0.00090888 0.11189843 -0.74061143
v -0.08462305 0.19804247 -0.80746496
v 0.16584280 0.00148166 -0.54841858
v 0.08616325 0.04871470 -0.64988840
v 0.24682468 0.06476879 -0.63849986
v -0.24913888 0.06913826 -0.63710219
v -0.08510881 0.04319944 -0.65244895
v -0.16477360 0.00567204 -0.55148709
v 0.00440637 0.00000000 -0.28480953
v -0.08231096 0.00000000 -0.42567927
v 0.09024385 0.00000000 -0.42476016
v 0.60571766 0.03621414 -0.22512625
v 0.64881808 0.03956884 -0.08420181
v 0.47917020 0.06545867 -0.49009839
v 0.54116851 0.04302808 -0.36204302
v 0.78457683 0.20761402 -0.24539067
v 0.67645729 0.11542308 -0.30984691
v 0.73005199 0.21409555 -0.38394159
v 0.13456625 0.32781637 -0.88650602
v 0.21815705 0.24223174 -0.81559360
v 0.47719920 0.35703963 -0.77347690
v 0.35333428 0.29634973 -0.80241650
v 0.38967603 0.43573877 -0.85722530
v 0.30602488 0.16867006 -0.72754157
v 0.38525587 0.11065976 -0.62545234
v 0.87096584 0.67761320 -0.48771995
v 0.79980463 0.59689081 -0.57655334
v 0.78860384 0.72756529 -0.61945564
v 0.77402884 0.34382200 -0.46431145
v 0.79439974 0.46498674 -0.52351171
v 0.85797673 0.42734429 -0.38146934
v 0.61298740 0.57262689 -0.76625091
v 0.71074402 0.51437825 -0.65517014
v 0.61007166 0.43906415 -0.71790475
v 0.52879882 0.16820504 -0.58481950
v 0.57728708 0.29862359 -0.66224986
v 0.66302878 0.24980520 -0.52820998
v 0.73368961 0.10480965 -0.00122892
v 0.86183864 0.29194647 -0.16068724
v 0.80637586 0.19211580 -0.08523449
v 0.80812734 0.19286034 0.08179644
v 0.86094272 0.29113075 0.15860443
v 0.91930228 0.80762923 -0.40526828
v 0.93073344 0.67676967 -0.36059111
v 0.99417228 0.67568380 -0.08267830
v 0.97319478 0.67582756 -0.22160164
v 0.99522960 0.80780494 -0.13830668
v 0.92630804 0.54539734 -0.30451426
v 0.90577942 0.42427665 -0.24261867
v 0.92980134 0.67613900 0.36038661
v 0.91839820 0.80668056 0.40468851
v 0.90347803 0.42405954 0.24121328
v 0.92446339 0.54462379 0.30366820
v 0.99447435 0.80712229 0.13917859
v 0.97171491 0.67498803 0.22121330
v 0.99413729 0.67519963 0.08307896
v 0.92820311 0.41118661 -0.08421578
v 0.97336990 0.54307139 -0.00003407
v 0.92734331 0.41052341 0.08277204
v 0.13318345 0.45220724 0.93794590
v 0.39016435 0.57108861 0.89936805
v 0.26714647 0.50937366 0.92765474
v 0.13364308 0.58892471 0.97533149
v 0.13342796 0.72520244 0.99274594
v 0.71448201 0.80731511 0.70528263
v 0.52154613 0.96274972 0.84263760
v 0.62265891 0.88738292 0.78228694
v 0.62428755 0.72726351 0.78433734
v 0.52350909 0.65260118 0.84667122
v 0.13176796 1.16298640 0.92603821
v 0.13344756 0.88848591 0.99126750
v 0.13297541 1.02562678 0.96900791
v 0.26469508 1.10653079 0.91847652
v 0.38733983 1.04428887 0.89306366
v 0.40170741 0.72565293 0.91759521
v 0.40145245 0.88919997 0.91670376
v 0.26738387 0.80702269 0.96782237
v -0.60373610 0.03919949 0.22788958
v -0.47558370 0.06529794 0.49040130
v -0.54459095 0.04348717 0.36647248
v -0.67617446 0.11639771 0.31060264
v -0.72791123 0.21196805 0.38503328
v -0.21905828 0.24274617 0.81546986
v -0.47872707 0.35800651 0.77460063
v -0.35498279 0.29721627 0.80315864
v -0.30668852 0.16900147 0.72902972
v -0.38774756 0.11283144 0.62832117
v -0.79967999 0.59634328 0.57655007
v -0.77328891 0.34338748 0.46437886
v -0.79444790 0.46438825 0.52399004
v -0.71141756 0.51433891 0.65602231
v -0.61134577 0.43968323 0.72021276
v -0.53126699 0.16886932 0.58521169
v -0.57787949 0.29856050 0.66316450
v -0.66224498 0.24862911 0.52789640
v -0.21957923 0.24175215 -0.81378448
v -0.38923985 0.11228833 -0.62635857
v -0.30934626 0.16438226 -0.72994643
v -0.35467687 0.29523614 -0.80204737
v -0.47806108 0.35739291 -0.77306443
v -0.60324508 0.03884858 -0.22428189
v -0.72957283 0.21296157 -0.38371715
v -0.67459989 0.11531288 -0.30957842
v -0.54047012 0.04269186 -0.36464676
v -0.47705477 0.06351412 -0.49367359
v -0.79962802 0.59687287 -0.57687205
v -0.61020517 0.43947533 -0.71744531
v -0.71111310 0.51405728 -0.65597910
v -0.79399025 0.46484455 -0.52366114
v -0.77300519 0.34385920 -0.46310091
v -0.53258133 0.16721883 -0.58469594
v -0.66488719 0.24829328 -0.52897453
v -0.57802325 0.29876551 -0.66260415
v 0.71450168 0.80764598 -0.70621282
v 0.52319264 0.65258157 -0.84647089
v 0.62378460 0.72724521 -0.78483748
v 0.62222153 0.88789290 -0.78280330
v 0.52049863 0.96231979 -0.84227985
v 0.13401401 0.45307705 -0.93835568
v 0.13382553 0.72616607 -0.99374789
v 0.13410689 0.58973080 -0.97568798
v 0.26757532 0.50964242 -0.92810273
v 0.39021516 0.57126021 -0.89993268
v 0.13197437 1.16327369 -0.92578679
v 0.38704789 1.04415393 -0.89265823
v 0.26465562 1.10635042 -0.91763699
v 0.13317247 1.02614653 -0.96880037
v 0.13331905 0.88925201 -0.99133116
v 0.40195483 0.72599679 -0.91821831
v 0.26748970 0.80767363 -0.96804571
v 0.40092796 0.88862777 -0.91561908
v 0.92677915 0.93750405 0.35921842
v 0.99066472 0.93933433 0.08309464
v 0.96895212 0.93863910 0.22101554
v 0.91823286 1.06945729 0.30200893
v 0.89244157 1.19106531 0.23906401
v 0.92742670 0.93798006 -0.35939476
v 0.89240474 1.19114506 -0.23908170
v 0.91850805 1.06975937 -0.30195329
v 0.96949774 0.93908674 -0.22078320
v 0.99089247 0.93954951 -0.08202554
v 0.70351815 1.51533735 -0.00011857
v 0.84116977 1.32370174 0.15656915
v 0.78094679 1.42442584 0.08115210
v 0.78080243 1.42427397 -0.08120628
v 0.84101236 1.32361388 -0.15654567
v 0.96592689 1.07195807 0.00023904
v 0.91410273 1.20430803 -0.08241137
v 0.91436523 1.20436788 0.08250190
f 330 87 329
f 336 325 26
f 207 208 56
f 464 36 580
f 502 129 504
f 157 624 622
f 308 311 82
f 247 223 248
f 507 483 508
f 331 88 329
f 494 500 497
f 156 601 602
f 591 589 592
f 365 98 596
f 75 281 282
f 152 587 577
f 149 559 560
f 555 121 553
f 530 141 529
f 515 517 139
f 361 594 98
f 250 67 249
f 157 608 609
f 294 293 209
f 317 81 316
f 557 338 26
f 303 305 81
f 530 529 528
f 101 381 382
f 415 418 111
f 192 184 50
f 412 110 411
f 20 384 256
f 131 594 486
f 281 264 282
f 347 287 348
f 28 349 582
f 165 163 1
f 248 250 66
f 617 107 398
f 273 271 274
f 456 115 453
f 558 561 560
f 335 576 91
f 331 177 332
f 116 433 436
f 351 370 92
f 136 511 530
f 239 240 65
f 247 258 19
f 304 23 567
f 148 557 570
f 214 208 58
f 440 426 450
f 268 270 269
f 258 247 268
f 204 202 16
f 466 125 465
f 517 513 133
f 168 275 274
f 275 73 274
f 198 193 53
f 309 308 307
f 510 511 136
f 415 416 110
f 131 490 597
f 473 475 474
f 414 415 111
f 493 495 494
f 496 504 485
f 433 116 432
f 600 375 601
f 240 234 65
f 418 415 412
f 486 361 3
f 567 566 304
f 380 393 29
f 17 199 197
f 491 492 132
f 451 449 435
f 218 217 216
f 623 621 613
f 396 104 395
f 433 439 436
f 628 160 627
f 215 202 217
f 209 207 2
f 427 113 424
f 434 10 544
f 434 433 432
f 199 17 210
f 150 564 565
f 489 491 132
f 275 13 285
f 497 500 134
f 125 466 476
f 578 152 577
f 208 214 211
f 328 88 343
f 356 27 603
f 150 566 567
f 372 100 371
f 190 191 47
f 235 8 398
f 260 261 72
f 422 403 414
f 422 414 111
f 453 454 123
f 349 583 582
f 521 520 519
f 425 453 115
f 616 622 158
f 483 130 508
f 151 586 572
f 212 17 232
f 400 397 402
f 377 396 99
f 41 522 511
f 510 508 505
f 549 547 42
f 475 473 36
f 510 137 509
f 222 221 197
f 430 115 429
f 220 194 1
f 305 54 204
f 621 29 613
f 192 171 184
f 460 335 5
f 88 331 332
f 74 277 279
f 300 301 80
f 390 389 388
f 165 45 164
f 146 549 551
f 291 278 75
f 448 120 445
f 147 543 544
f 607 610 609
f 603 602 356
f 139 529 514
f 333 553 443
f 92 368 347
f 261 260 259
f 300 6 200
f 46 177 331
f 284 283 174
f 301 300 200
f 471 468 474
f 54 305 301
f 302 304 303
f 569 150 567
f 150 569 570
f 294 209 2
f 628 629 160
f 548 543 147
f 147 625 627
f 63 233 234
f 426 427 114
f 41 509 532
f 198 52 196
f 614 105 612
f 147 627 547
f 81 305 306
f 549 548 547
f 54 301 200
f 342 88 332
f 264 281 70
f 193 194 53
f 455 429 456
f 187 321 14
f 479 130 484
f 147 544 625
f 458 456 453
f 304 80 303
f 314 84 313
f 488 503 501
f 321 332 14
f 423 425 424
f 305 204 306
f 341 339 25
f 514 40 516
f 625 628 627
f 340 339 341
f 105 614 391
f 243 228 62
f 318 316 78
f 75 278 279
f 357 355 353
f 238 257 63
f 466 455 476
f 425 423 4
f 448 449 120
f 408 638 108
f 292 275 285
f 22 278 289
f 515 513 517
f 501 503 134
f 622 623 158
f 134 503 504
f 195 216 206
f 163 271 246
f 619 617 620
f 62 228 229
f 163 165 164
f 453 425 454
f 489 132 488
f 82 628 625
f 58 208 209
f 525 608 40
f 626 547 627
f 518 517 498
f 489 487 491
f 557 26 564
f 325 336 344
f 541 145 539
f 40 616 516
f 338 556 89
f 250 248 245
f 139 514 515
f 98 594 596
f 246 220 1
f 112 413 630
f 9 536 413
f 156 600 601
f 332 177 14
f 321 342 332
f 156 606 600
f 584 330 585
f 302 303 81
f 584 87 330
f 330 25 585
f 400 239 65
f 439 440 117
f 95 358 368
f 597 594 131
f 594 361 486
f 246 67 245
f 561 562 149
f 28 364 362
f 55 216 217
f 427 430 114
f 267 20 254
f 556 555 553
f 84 309 558
f 311 310 312
f 609 525 142
f 256 68 255
f 124 460 461
f 82 311 312
f 307 308 82
f 589 135 495
f 527 40 514
f 112 418 412
f 20 256 254
f 258 238 19
f 267 254 269
f 273 272 249
f 392 391 393
f 137 533 509
f 122 455 456
f 9 413 411
f 130 480 505
f 333 443 5
f 527 525 40
f 589 495 385
f 39 496 485
f 223 225 224
f 414 416 415
f 219 222 53
f 145 538 539
f 413 412 411
f 469 468 467
f 183 181 6
f 191 192 50
f 429 35 431
f 292 285 76
f 413 112 412
f 415 110 412
f 43 164 167
f 467 468 126
f 617 101 620
f 450 451 117
f 438 546 545
f 619 620 159
f 17 212 210
f 124 579 576
f 584 153 583
f 460 124 576
f 3 469 467
f 311 308 314
f 6 320 183
f 389 104 388
f 251 250 249
f 194 165 1
f 291 289 278
f 287 77 348
f 238 258 257
f 139 517 518
f 238 236 19
f 223 247 19
f 382 380 29
f 39 518 498
f 361 359 3
f 69 255 257
f 139 518 528
f 33 545 535
f 387 385 7
f 69 268 269
f 477 462 125
f 454 479 123
f 121 555 447
f 451 435 117
f 454 425 4
f 233 252 8
f 124 463 464
f 69 258 268
f 168 167 166
f 583 153 582
f 384 394 102
f 138 512 513
f 57 210 211
f 254 256 255
f 607 609 142
f 324 319 86
f 289 291 76
f 291 292 76
f 384 102 383
f 422 421 420
f 221 17 197
f 383 102 381
f 376 377 99
f 99 373 374
f 386 105 392
f 438 33 440
f 90 341 343
f 281 75 279
f 574 571 96
f 628 82 312
f 221 222 59
f 127 471 474
f 595 605 603
f 551 538 145
f 334 91 340
f 322 324 85
f 305 303 301
f 18 239 399
f 306 204 16
f 199 198 197
f 166 190 180
f 303 80 301
f 267 266 265
f 626 42 547
f 16 215 213
f 349 351 350
f 295 16 213
f 68 379 252
f 250 251 66
f 627 160 626
f 383 68 256
f 343 88 342
f 507 508 136
f 202 215 16
f 197 198 53
f 254 69 269
f 603 605 156
f 418 419 111
f 384 383 256
f 455 122 476
f 203 204 54
f 556 557 148
f 255 68 253
f 313 84 560
f 25 328 341
f 254 255 69
f 603 156 602
f 581 584 583
f 630 632 112
f 163 246 1
f 246 245 220
f 432 116 558
f 499 591 590
f 320 563 86
f 345 93 350
f 306 16 295
f 346 93 345
f 562 568 149
f 604 605 155
f 154 592 593
f 545 552 535
f 511 522 530
f 574 573 571
f 566 150 565
f 361 98 360
f 67 271 273
f 234 235 65
f 208 211 56
f 574 151 573
f 251 270 66
f 398 8 378
f 213 215 214
f 438 440 439
f 315 314 313
f 263 71 262
f 20 373 384
f 496 134 504
f 329 88 328
f 81 306 316
f 555 556 148
f 592 589 103
f 617 619 107
f 227 207 56
f 571 359 96
f 446 466 465
f 206 216 55
f 359 571 469
f 568 148 570
f 34 437 435
f 28 351 349
f 21 272 282
f 113 423 424
f 490 489 488
f 379 68 383
f 210 212 211
f 80 563 300
f 351 92 350
f 326 346 12
f 83 317 318
f 555 148 554
f 212 231 56
f 218 57 217
f 271 67 246
f 195 196 52
f 270 268 66
f 390 592 103
f 148 568 554
f 495 493 7
f 592 390 593
f 357 95 355
f 574 575 151
f 452 120 451
f 154 591 592
f 587 585 577
f 395 394 396
f 93 349 350
f 610 416 611
f 166 44 190
f 315 23 302
f 315 302 317
f 268 247 66
f 606 154 593
f 396 394 99
f 211 212 56
f 370 369 368
f 235 397 65
f 280 278 22
f 83 315 317
f 575 588 151
f 74 279 280
f 385 495 7
f 63 257 253
f 397 235 398
f 214 58 213
f 220 219 194
f 546 146 545
f 236 225 19
f 599 94 602
f 235 233 8
f 102 394 395
f 611 416 32
f 225 223 19
f 139 528 529
f 231 62 229
f 419 406 421
f 451 450 452
f 49 182 185
f 402 397 107
f 52 199 218
f 416 610 110
f 225 236 244
f 107 397 398
f 68 252 253
f 322 85 321
f 182 181 183
f 118 438 439
f 546 438 118
f 348 77 345
f 543 546 118
f 231 212 232
f 610 611 157
f 33 438 545
f 385 386 103
f 479 480 130
f 169 195 15
f 93 583 349
f 15 195 206
f 190 44 192
f 247 248 66
f 146 552 545
f 248 60 245
f 570 557 564
f 274 271 43
f 63 253 233
f 272 21 249
f 507 528 518
f 67 273 249
f 487 467 126
f 196 195 169
f 624 159 623
f 134 496 497
f 132 503 488
f 104 393 395
f 556 553 89
f 355 356 94
f 258 69 257
f 229 61 227
f 56 231 227
f 460 576 335
f 463 124 461
f 394 373 99
f 29 393 391
f 67 250 245
f 193 198 196
f 462 36 464
f 144 633 630
f 141 526 527
f 517 133 498
f 536 144 630
f 100 372 599
f 144 536 537
f 22 289 287
f 578 579 152
f 579 578 576
f 189 188 187
f 60 223 224
f 92 348 350
f 555 554 447
f 396 377 388
f 194 193 165
f 413 536 630
f 372 352 599
f 377 376 375
f 348 345 350
f 105 386 387
f 240 237 234
f 463 462 464
f 135 500 494
f 45 196 169
f 512 612 387
f 245 60 220
f 429 115 456
f 223 60 248
f 288 289 76
f 525 526 142
f 100 599 601
f 613 29 391
f 526 523 520
f 341 328 343
f 631 641 639
f 264 21 282
f 266 72 265
f 106 402 403
f 73 273 274
f 186 206 205
f 381 379 383
f 52 216 195
f 410 18 399
f 290 272 73
f 72 371 374
f 526 525 527
f 115 430 424
f 498 497 496
f 621 382 29
f 543 118 434
f 214 215 57
f 522 141 530
f 511 510 509
f 352 94 599
f 493 512 7
f 90 340 341
f 169 171 170
f 605 604 606
f 219 60 224
f 104 389 392
f 359 469 3
f 186 49 185
f 222 219 224
f 166 167 44
f 428 427 426
f 523 522 524
f 129 502 481
f 50 185 188
f 164 45 170
f 425 115 424
f 33 428 426
f 427 428 113
f 94 356 602
f 515 138 513
f 114 431 452
f 237 236 238
f 215 217 57
f 95 354 355
f 220 60 219
f 515 514 516
f 183 320 319
f 222 197 53
f 559 569 567
f 300 320 6
f 435 436 117
f 96 360 363
f 640 642 641
f 242 243 62
f 140 537 519
f 508 130 505
f 420 410 399
f 537 539 144
f 317 316 318
f 426 114 450
f 186 15 206
f 311 83 310
f 625 544 307
f 544 10 307
f 168 43 167
f 185 182 188
f 369 354 95
f 44 171 192
f 605 606 156
f 548 549 146
f 100 601 375
f 149 568 569
f 381 380 382
f 455 466 35
f 480 479 454
f 543 548 546
f 493 133 513
f 492 472 37
f 477 125 476
f 491 487 126
f 337 336 338
f 588 153 587
f 576 578 91
f 633 161 632
f 96 359 360
f 39 485 483
f 101 617 378
f 193 45 165
f 163 164 43
f 618 624 611
f 507 136 528
f 561 149 560
f 641 162 639
f 116 561 558
f 494 133 493
f 253 252 233
f 63 237 238
f 392 393 104
f 440 450 117
f 93 581 583
f 386 385 387
f 120 449 451
f 421 422 111
f 486 3 467
f 302 81 317
f 633 632 630
f 462 475 36
f 376 99 374
f 489 490 131
f 447 449 448
f 387 612 105
f 106 420 399
f 173 46 172
f 492 491 472
f 316 306 295
f 22 287 347
f 109 410 420
f 507 39 483
f 559 23 313
f 214 57 211
f 196 45 193
f 10 434 432
f 422 106 403
f 626 160 640
f 487 486 467
f 542 41 532
f 400 106 399
f 444 120 452
f 198 199 52
f 475 127 474
f 621 620 382
f 621 623 159
f 450 114 452
f 92 347 348
f 376 100 375
f 434 118 433
f 503 132 502
f 337 90 336
f 537 536 519
f 395 393 380
f 201 54 200
f 171 44 170
f 355 94 353
f 58 296 213
f 422 420 106
f 595 365 596
f 569 568 570
f 523 140 520
f 114 430 431
f 218 210 57
f 304 566 80
f 639 162 638
f 261 371 72
f 548 147 547
f 498 133 497
f 150 570 564
f 222 224 59
f 142 526 520
f 437 436 435
f 141 522 523
f 137 510 505
f 173 179 176
f 559 149 569
f 121 447 448
f 563 320 300
f 102 395 380
f 257 255 253
f 642 162 641
f 83 311 314
f 216 52 218
f 512 493 513
f 23 304 302
f 91 339 340
f 512 138 612
f 159 620 621
f 218 199 210
f 364 28 575
f 83 318 310
f 168 274 43
f 136 530 528
f 140 523 524
f 495 135 494
f 233 235 234
f 566 563 80
f 25 339 577
f 277 74 276
f 475 462 477
f 133 494 497
f 436 437 116
f 389 386 392
f 548 146 546
f 441 460 5
f 10 309 307
f 65 397 400
f 543 434 544
f 640 641 161
f 272 273 73
f 581 93 346
f 419 421 111
f 319 320 86
f 180 179 178
f 127 475 477
f 231 229 227
f 337 334 340
f 136 508 510
f 308 309 84
f 237 63 234
f 447 554 34
f 252 379 378
f 315 83 314
f 608 622 616
f 338 336 26
f 337 338 89
f 13 275 168
f 209 208 207
f 436 439 117
f 628 312 629
f 360 366 363
f 364 574 96
f 359 361 360
f 466 446 35
f 500 501 134
f 406 109 421
f 135 589 591
f 601 599 602
f 340 90 337
f 481 492 37
f 522 41 524
f 78 316 295
f 131 486 487
f 403 32 414
f 634 626 640
f 151 572 573
f 515 516 138
f 8 252 378
f 265 72 374
f 9 521 519
f 538 549 42
f 368 358 347
f 588 587 586
f 458 453 123
f 589 385 103
f 502 492 481
f 32 416 414
f 430 427 424
f 153 585 587
f 540 144 539
f 370 368 92
f 209 293 58
f 428 33 535
f 326 581 346
f 625 307 82
f 575 28 582
f 6 181 200
f 421 109 420
f 553 121 443
f 160 642 640
f 153 584 585
f 309 432 558
f 334 337 89
f 23 315 313
f 271 163 43
f 296 295 213
f 39 498 496
f 118 439 433
f 531 113 534
f 293 296 58
f 28 362 351
f 489 131 487
f 431 444 452
f 84 558 560
f 98 366 360
f 45 169 170
f 379 101 378
f 462 463 125
f 308 84 314
f 10 432 309
f 299 24 310
f 132 492 502
f 512 387 7
f 639 638 408
f 565 323 86
f 59 244 242
f 106 400 402
f 440 33 426
f 566 565 563
f 617 398 378
f 224 225 59
f 410 109 409
f 239 400 399
f 194 219 53
f 358 22 347
f 610 157 609
f 27 595 603
f 479 484 482
f 142 520 521
f 585 25 577
f 339 578 577
f 408 407 406
f 407 109 406
f 31 408 406
f 407 408 108
f 31 639 408
f 419 31 406
f 608 616 40
f 430 429 431
f 455 35 429
f 35 444 431
f 188 51 187
f 188 182 51
f 51 322 187
f 322 51 319
f 51 182 183
f 319 51 183
f 187 322 321
f 322 319 324
f 381 101 379
f 405 407 108
f 404 405 108
f 286 285 178
f 407 405 409
f 109 407 409
f 191 175 47
f 167 164 170
f 50 184 185
f 44 167 170
f 64 244 236
f 243 244 64
f 50 188 189
f 541 542 145
f 442 445 119
f 339 91 578
f 445 446 119
f 624 623 622
f 611 624 157
f 523 526 141
f 141 527 529
f 527 514 529
f 445 120 444
f 446 445 444
f 35 446 444
f 613 614 158
f 158 614 615
f 623 613 158
f 614 613 391
f 614 612 615
f 371 376 374
f 100 376 371
f 479 482 123
f 373 394 384
f 540 42 634
f 633 540 634
f 538 42 540
f 633 634 161
f 161 634 640
f 42 626 634
f 540 633 144
f 557 556 338
f 553 333 89
f 262 21 264
f 251 21 262
f 5 335 333
f 270 251 262
f 21 251 249
f 600 593 30
f 606 593 600
f 600 30 375
f 593 390 30
f 30 377 375
f 390 388 30
f 30 388 377
f 228 243 241
f 470 478 459
f 470 127 478
f 127 477 478
f 184 186 185
f 478 477 476
f 122 478 476
f 357 74 280
f 518 39 507
f 344 342 85
f 325 344 85
f 342 344 343
f 85 342 321
f 344 90 343
f 90 344 336
f 482 129 481
f 482 481 457
f 482 457 123
f 481 37 457
f 449 447 34
f 435 449 34
f 470 472 471
f 472 470 37
f 470 471 127
f 472 126 471
f 126 468 471
f 470 459 37
f 491 126 472
f 504 129 485
f 221 59 242
f 125 463 465
f 437 34 562
f 561 437 562
f 554 568 562
f 34 554 562
f 437 561 116
f 390 103 389
f 103 386 389
f 392 105 391
f 572 586 580
f 572 580 36
f 586 152 580
f 473 572 36
f 244 243 242
f 225 244 59
f 64 240 241
f 240 239 241
f 237 240 64
f 243 64 241
f 236 237 64
f 411 607 521
f 9 411 521
f 110 607 411
f 607 142 521
f 610 607 110
f 171 15 184
f 171 169 15
f 15 186 184
f 87 584 581
f 153 588 582
f 588 575 582
f 381 102 380
f 573 572 473
f 468 469 128
f 474 468 128
f 469 571 128
f 571 573 128
f 573 473 128
f 473 474 128
f 564 323 565
f 26 323 564
f 323 324 86
f 325 323 26
f 325 324 323
f 563 565 86
f 324 325 85
f 410 230 18
f 230 228 18
f 18 228 241
f 18 241 239
f 401 619 618
f 401 402 107
f 403 402 401
f 619 159 618
f 401 618 32
f 619 401 107
f 403 401 32
f 618 611 32
f 159 624 618
f 478 122 459
f 122 458 459
f 37 459 457
f 459 458 457
f 122 456 458
f 457 458 123
f 191 190 192
f 485 129 484
f 129 482 484
f 483 485 484
f 130 483 484
f 189 187 14
f 191 50 189
f 191 189 175
f 189 14 175
f 14 177 175
f 499 501 500
f 501 499 38
f 38 499 590
f 135 499 500
f 488 501 38
f 499 135 591
f 480 454 4
f 284 12 346
f 4 423 506
f 480 4 506
f 423 531 506
f 480 506 505
f 531 137 506
f 506 137 505
f 365 366 98
f 71 270 262
f 270 71 269
f 71 267 269
f 335 334 333
f 333 334 89
f 334 335 91
f 536 9 519
f 465 463 461
f 537 140 541
f 520 140 519
f 119 446 465
f 465 461 119
f 461 441 119
f 460 441 461
f 176 46 173
f 299 297 24
f 71 263 266
f 263 260 266
f 260 72 266
f 263 70 260
f 205 201 49
f 201 181 49
f 186 205 49
f 181 201 200
f 181 182 49
f 284 77 283
f 586 587 152
f 588 586 151
f 20 267 265
f 266 267 71
f 31 417 631
f 631 417 632
f 31 631 639
f 417 31 419
f 641 631 161
f 417 112 632
f 161 631 632
f 418 417 419
f 417 418 112
f 284 345 77
f 542 550 145
f 542 541 524
f 284 174 12
f 48 174 283
f 373 20 265
f 373 265 374
f 609 608 525
f 608 157 622
f 560 559 313
f 636 637 162
f 541 140 524
f 41 542 524
f 358 357 280
f 70 263 264
f 263 262 264
f 176 177 46
f 174 48 173
f 174 173 172
f 538 551 549
f 538 540 539
f 537 541 539
f 232 221 242
f 17 221 232
f 232 242 62
f 231 232 62
f 203 205 55
f 203 55 202
f 201 205 203
f 202 55 217
f 205 206 55
f 204 203 202
f 73 275 292
f 292 290 73
f 272 290 282
f 290 292 291
f 75 290 291
f 290 75 282
f 70 277 259
f 277 70 281
f 277 281 279
f 260 70 259
f 12 174 172
f 104 396 388
f 367 27 354
f 365 27 367
f 354 27 356
f 365 367 366
f 595 27 365
f 318 299 310
f 155 596 597
f 155 597 598
f 596 594 597
f 595 596 155
f 605 595 155
f 180 47 179
f 180 190 47
f 352 372 11
f 11 372 261
f 312 310 24
f 642 636 162
f 636 297 637
f 367 369 97
f 366 367 97
f 369 367 354
f 369 370 97
f 580 579 464
f 580 152 579
f 579 124 464
f 61 230 409
f 230 410 409
f 230 61 229
f 230 229 228
f 76 285 286
f 353 352 276
f 74 353 276
f 288 76 286
f 288 286 283
f 289 288 287
f 203 54 201
f 287 288 77
f 77 288 283
f 286 48 283
f 531 423 113
f 276 11 259
f 11 261 259
f 277 276 259
f 616 158 615
f 516 616 615
f 138 516 615
f 138 615 612
f 509 533 532
f 503 502 504
f 635 79 294
f 635 294 404
f 635 637 79
f 637 635 638
f 638 635 108
f 635 404 108
f 226 61 405
f 61 226 227
f 405 61 409
f 227 226 207
f 48 178 179
f 48 286 178
f 173 48 179
f 534 143 533
f 534 535 143
f 531 534 533
f 533 143 532
f 137 531 533
f 261 372 371
f 13 180 178
f 285 13 178
f 180 13 166
f 13 168 166
f 346 345 284
f 331 327 46
f 46 327 172
f 172 327 326
f 382 620 101
f 442 121 448
f 443 121 442
f 2 226 404
f 294 2 404
f 404 226 405
f 207 226 2
f 550 551 145
f 552 146 551
f 143 550 532
f 552 550 143
f 330 329 328
f 24 636 629
f 94 352 353
f 352 11 276
f 113 428 534
f 428 535 534
f 509 41 511
f 535 552 143
f 550 552 551
f 550 542 532
f 369 95 368
f 326 327 87
f 87 327 329
f 327 331 329
f 581 326 87
f 293 79 298
f 79 297 298
f 296 298 78
f 79 293 294
f 296 293 298
f 598 490 38
f 358 280 22
f 280 279 278
f 357 358 95
f 74 357 353
f 330 328 25
f 567 23 559
f 590 598 38
f 590 604 598
f 598 604 155
f 604 590 154
f 590 591 154
f 604 154 606
f 297 299 298
f 299 318 78
f 298 299 78
f 355 354 356
f 629 636 642
f 312 24 629
f 629 642 160
f 370 362 97
f 362 363 97
f 363 366 97
f 364 363 362
f 362 370 351
f 96 363 364
f 297 636 24
f 162 637 638
f 637 297 79
f 490 488 38
f 598 597 490
f 441 442 119
f 443 442 441
f 443 441 5
f 442 448 445
f 296 78 295
f 326 12 172
f 575 574 364
f 47 175 176
f 175 177 176
f 47 176 179
