# FEM surface export ¡ª frame 758
# Vertices: 642  Faces: 1280
v -0.49461859 0.76767272 -0.01466278
v 0.45950899 0.81093657 -0.02104715
v -0.51567811 0.64550287 0.06921853
v 0.55329072 0.59733015 0.02170419
v 0.02375180 0.35871431 0.84842438
v -0.01042464 0.57485032 0.86705792
v -0.02677744 0.29375330 -0.80608469
v 0.00004757 0.54552144 -0.88038397
v 0.91982734 0.12552220 -0.55699253
v 0.90725470 0.13646561 0.55508649
v -0.93260610 0.10495967 -0.54517329
v -0.92904234 0.12783182 0.57879382
v -0.82784843 0.53821027 0.30999231
v -0.53204644 0.36171681 0.83294374
v -0.29594338 0.73217350 0.46463880
v 0.27901477 0.78066069 0.47111502
v -0.01258359 0.84210253 0.00721510
v 0.26834840 0.75847250 -0.49537167
v -0.30596891 0.75042951 -0.49247873
v -0.52667588 0.34963584 -0.86776924
v -0.82802188 0.53765249 -0.32023221
v -1.06413317 0.14287055 0.01162343
v 0.53358430 0.41055804 0.85134172
v 0.80863416 0.60748470 0.31985572
v -0.47026792 0.17150678 0.83689845
v 0.01488555 0.10757460 1.05184221
v -0.81280762 0.35107008 -0.31747630
v -0.81552130 0.31724960 0.31101429
v 0.01372011 0.11592709 -1.08095944
v -0.50972486 0.14905268 -0.78733212
v 0.81425893 0.57367384 -0.32668576
v 0.52577102 0.36900067 -0.85030603
v 0.80415231 0.21971205 0.28649622
v 0.50018322 0.12783936 0.79472804
v 0.32651377 0.59291500 0.48020720
v -0.29062149 0.62787426 0.50870860
v 0.01365301 0.60784471 0.05894824
v -0.28466475 0.47375235 -0.46223995
v 0.32844847 0.59073019 -0.47948304
v 0.48600936 0.12649848 -0.82532054
v 0.77159333 0.23698181 -0.30025175
v 1.08198488 0.18479782 -0.00640016
v -0.67226702 0.68150097 0.14433272
v -0.56632364 0.65940183 0.40725780
v -0.39966193 0.76056910 0.22940896
v -0.73260212 0.22753093 0.74884033
v -0.70961207 0.46287489 0.60154593
v -0.90547508 0.33702004 0.47297293
v -0.15399630 0.68119711 0.67932546
v -0.43187454 0.59500110 0.66594261
v -0.28767878 0.47976193 0.88620567
v -0.13559817 0.80542600 0.25336096
v -0.24676155 0.81629473 0.01501821
v 0.14990304 0.69977808 0.68636078
v -0.00671029 0.77702123 0.48648974
v 0.21049318 0.84037381 -0.00883805
v 0.14463386 0.82925671 0.23662312
v 0.38472202 0.81187111 0.23558268
v -0.16052261 0.81709325 -0.24266045
v -0.40721059 0.77937508 -0.25344470
v 0.37373978 0.79672384 -0.26971915
v 0.11221617 0.82470566 -0.25328901
v -0.17156418 0.66076505 -0.70916444
v -0.01505507 0.75810212 -0.51248962
v 0.13692108 0.67292732 -0.70633161
v -0.58241969 0.66171759 -0.43773344
v -0.67931223 0.67978859 -0.17739283
v -0.27848575 0.46080542 -0.90501702
v -0.43434134 0.58017033 -0.71964532
v -0.89807546 0.33016390 -0.45855609
v -0.70878631 0.44916958 -0.61130780
v -0.74922049 0.23662573 -0.76277429
v -0.87166643 0.55764222 -0.00987689
v -1.03760624 0.10827015 -0.28163022
v -1.01832414 0.32922047 -0.16011253
v -0.99527997 0.35127574 0.17314601
v -1.03545678 0.11054164 0.29460627
v 0.57124972 0.73055196 0.41626641
v 0.64308524 0.75265658 0.14478095
v 0.27047649 0.52175015 0.89760089
v 0.42944255 0.64424235 0.68450648
v 0.91228390 0.38963014 0.47550228
v 0.71544540 0.53216475 0.61805725
v 0.75975978 0.29278448 0.73412430
v -0.29517114 0.26377529 1.03474653
v -0.00642695 0.35061109 1.01962340
v -0.71109730 0.00228885 0.75968844
v -0.54716986 0.08002257 0.94925767
v 0.03884705 0.14645912 1.00447822
v -0.24546736 0.01076228 1.00518119
v -0.26560828 0.28476864 0.86418492
v -0.95771068 0.10880885 0.18008175
v -0.87545252 0.09012410 0.45122945
v -0.89887708 0.12384761 -0.44142997
v -0.97638232 0.12088844 -0.18792371
v -0.71841919 0.50025505 0.17603937
v -0.83012408 0.35661599 -0.02291319
v -0.66285807 0.51599997 -0.15291439
v -0.58086234 0.10051537 -0.91788954
v -0.73626685 0.02410419 -0.70482606
v 0.01120580 0.34061202 -1.02528358
v -0.28384891 0.23655966 -1.03388727
v -0.28179863 0.19818816 -0.84595287
v -0.27519357 0.00386037 -0.98301125
v -0.00668563 0.05289301 -0.94462729
v 0.41024327 0.59939170 -0.71316916
v 0.26469153 0.46956566 -0.89500469
v 0.64948523 0.72103995 -0.17583278
v 0.55465734 0.68986470 -0.43554914
v 0.75532073 0.24792606 -0.73280495
v 0.70380604 0.46781698 -0.60917920
v 0.90844613 0.35810375 -0.45814964
v 0.72382373 0.42509201 0.18120505
v 0.59575725 0.42041758 0.41243282
v 0.50057757 0.60311455 0.26361722
v 0.72682250 0.00020655 0.75397897
v 0.68961006 0.17901042 0.57798076
v 0.86892432 0.10510206 0.41365764
v 0.19436632 0.49678329 0.71790379
v 0.43606159 0.37494940 0.65514255
v 0.23935792 0.24216051 0.84482986
v 0.22515473 0.75558650 0.28629735
v 0.26481178 0.56729037 0.04553225
v -0.12617856 0.51978660 0.71531993
v 0.03393726 0.66635650 0.54312885
v -0.24029839 0.63193905 0.07862907
v -0.13639776 0.77118546 0.33160603
v -0.43667170 0.65657324 0.29743946
v 0.20655686 0.65707320 -0.26562491
v 0.42634407 0.63530892 -0.18740723
v -0.40409255 0.67693329 -0.23146710
v -0.11283383 0.58443606 -0.21959746
v 0.16076647 0.46395463 -0.68179697
v 0.03071950 0.60890168 -0.55200291
v -0.17242369 0.48554793 -0.70164096
v 0.58078462 0.46970713 -0.40384501
v 0.70633757 0.45084399 -0.15746760
v 0.24449524 0.21081097 -0.86344403
v 0.43370289 0.39152133 -0.70615643
v 0.87201458 0.09835157 -0.48195714
v 0.68300623 0.21480991 -0.59257782
v 0.71625471 0.00000000 -0.72913927
v 0.82705194 0.22509344 0.00000336
v 1.02989674 0.14901511 -0.28135368
v 0.96335083 0.00000000 -0.20581742
v 0.97064960 0.00000000 0.13036191
v 1.02616239 0.18039276 0.29415989
v 0.30021873 0.03855132 1.02088189
v 0.57176417 0.12276503 0.91705924
v 0.27628839 0.28399315 1.02944338
v -0.57746625 0.48893377 0.43337807
v -0.40220246 0.43807063 0.69443190
v -0.65266353 0.23720630 0.62469888
v -0.43259171 0.42766678 -0.71390635
v -0.56872362 0.55175465 -0.41145256
v -0.70795757 0.27284372 -0.56634402
v 0.55381769 0.07400607 -0.90809548
v 0.27472842 0.00000000 -1.00805736
v 0.29360402 0.23948936 -1.02852964
v 0.99214488 0.41621304 0.17114262
v 0.99258924 0.40618595 -0.17343393
v 0.84255236 0.62861443 -0.00965136
v -0.58002907 0.73596847 0.06393652
v -0.52923506 0.72727704 0.19290800
v -0.44322926 0.76743770 0.11033680
v -0.70697457 0.61223608 0.35613060
v -0.61559218 0.67695326 0.28143620
v -0.75555414 0.61317694 0.22029160
v -0.35234806 0.74966347 0.34910205
v -0.48099905 0.71701235 0.32747987
v -0.42725065 0.69526720 0.44644240
v -0.82465577 0.17572606 0.65677130
v -0.83629441 0.28434381 0.61008018
v -0.93541795 0.23026119 0.52917767
v -0.63395667 0.40305626 0.72396296
v -0.73691583 0.34713629 0.67378742
v -0.63721639 0.28536582 0.79704291
v -0.87747246 0.44025072 0.38263196
v -0.82005924 0.41336930 0.53293788
v -0.77408481 0.50993603 0.45518225
v -0.08641528 0.63407850 0.77842796
v -0.21737900 0.59560817 0.79437798
v -0.14650564 0.52428454 0.88985300
v -0.35458192 0.67621124 0.57392645
v -0.29484677 0.63062400 0.68670893
v -0.22704200 0.70745707 0.57100815
v -0.41489950 0.42506689 0.85720927
v -0.36484069 0.53966749 0.78700954
v -0.49769700 0.49468660 0.76031327
v -0.65185332 0.59325999 0.49913096
v -0.58767253 0.54039800 0.63887960
v -0.50363404 0.63057572 0.54928243
v -0.32427421 0.79048538 0.12157584
v -0.37214196 0.78855962 -0.00372711
v -0.22143698 0.78239083 0.36276159
v -0.27012998 0.78554529 0.25053272
v -0.13589084 0.83921558 0.00759547
v -0.19190778 0.81174630 0.13833413
v -0.07450958 0.83305466 0.12804928
v 0.07997831 0.64729410 0.78043795
v -0.00613905 0.69696105 0.68441439
v 0.13355091 0.77428091 0.47574604
v 0.06798706 0.74289578 0.57903618
v 0.22227591 0.74346292 0.58205962
v -0.07950699 0.73155093 0.57635558
v -0.15205476 0.76658469 0.47833857
v 0.33633345 0.82352227 -0.02727589
v 0.30158877 0.83135462 0.10789516
v 0.41427842 0.82041180 0.10314166
v 0.07523521 0.83759791 0.11548429
v 0.18482594 0.83818769 0.11614892
v 0.09983197 0.84974253 -0.01105812
v 0.35016388 0.80126870 0.35864303
v 0.26016498 0.82004416 0.23651901
v 0.20919971 0.80680484 0.34218922
v -0.07940061 0.80401856 0.37069267
v 0.05969243 0.80701947 0.35845760
v 0.00264862 0.82711041 0.23437166
v -0.33556083 0.80749619 -0.11737383
v -0.45873180 0.77365512 -0.13569041
v -0.09004640 0.83792841 -0.11323363
v -0.20990859 0.82730293 -0.11276078
v -0.35342720 0.77319199 -0.36949110
v -0.28218469 0.80625892 -0.24235639
v -0.22489788 0.79412138 -0.36672011
v 0.41950008 0.81162626 -0.14936151
v 0.28673133 0.82704699 -0.14459093
v 0.19126916 0.79940909 -0.37843454
v 0.23805176 0.81279373 -0.26309469
v 0.32374778 0.78046787 -0.38261703
v 0.15928634 0.83963108 -0.13064495
v 0.04083570 0.84344584 -0.12541246
v -0.09115849 0.59910631 -0.79890454
v -0.01794479 0.67050612 -0.71710575
v 0.06550148 0.60762995 -0.80070311
v -0.16636847 0.75399292 -0.50772113
v -0.10103391 0.72025579 -0.61400241
v -0.24587116 0.70695007 -0.60942578
v 0.20954959 0.72061360 -0.60600740
v 0.05208554 0.72594798 -0.61205989
v 0.12416070 0.76173395 -0.50968486
v -0.02783889 0.82144523 -0.24890877
v 0.05710852 0.79849982 -0.38045776
v -0.08522215 0.79556376 -0.37939090
v -0.54545617 0.74022645 -0.22961745
v -0.59216237 0.73592901 -0.09705206
v -0.44036803 0.71034259 -0.47111902
v -0.49248734 0.72844791 -0.35707158
v -0.76284462 0.62377524 -0.24361441
v -0.63866639 0.68283987 -0.31141520
v -0.71208709 0.60792071 -0.38605130
v -0.14104924 0.50110847 -0.89736277
v -0.21711648 0.56182361 -0.82146817
v -0.48811966 0.46835318 -0.80012429
v -0.35877684 0.52335858 -0.81881607
v -0.40858856 0.41312686 -0.89782941
v -0.29780310 0.61348110 -0.72707713
v -0.36920911 0.67379618 -0.61957896
v -0.92099661 0.20144440 -0.51864558
v -0.83313423 0.27701479 -0.61414069
v -0.84576070 0.16286780 -0.65582669
v -0.77696353 0.49330205 -0.47217458
v -0.80934644 0.38724101 -0.54369229
v -0.86059034 0.42208582 -0.39187548
v -0.64700651 0.29062307 -0.81183088
v -0.73383671 0.34611854 -0.68934846
v -0.62135351 0.40400505 -0.74640763
v -0.51297814 0.62524617 -0.58077431
v -0.57998389 0.52523088 -0.68723249
v -0.65623969 0.55958563 -0.53396213
v -0.68581927 0.69857174 -0.01698948
v -0.86529857 0.54484713 -0.16341592
v -0.78083295 0.63201177 -0.09292319
v -0.77790064 0.63828254 0.06615058
v -0.85958028 0.56133467 0.14864385
v -0.99112976 0.09374960 -0.40823025
v -0.97839522 0.22432889 -0.37854668
v -1.06143832 0.24349439 -0.08177166
v -1.02509809 0.23011184 -0.23181120
v -1.04661047 0.12823893 -0.14128603
v -0.95779794 0.34135109 -0.31028533
v -0.92749959 0.43033287 -0.24573410
v -0.98747480 0.22559026 0.38599876
v -0.98505509 0.11394067 0.44658893
v -0.92311817 0.45515406 0.24560027
v -0.96244252 0.34170327 0.32053572
v -1.05871487 0.11124614 0.15132153
v -1.03307199 0.24080431 0.23840280
v -1.06557512 0.23813941 0.10178556
v -0.96640724 0.44399506 -0.08659577
v -1.01598728 0.34778401 0.01288283
v -0.94099867 0.46531120 0.08557572
v 0.50433028 0.80134684 0.19342996
v 0.55252576 0.78527462 0.06004735
v 0.43208995 0.75582999 0.45016247
v 0.47975758 0.78920805 0.33322605
v 0.73035157 0.68955469 0.23321211
v 0.61263388 0.75462580 0.28328615
v 0.69617671 0.67650253 0.37111175
v 0.12754868 0.55536950 0.89540780
v 0.21412157 0.62328517 0.80447674
v 0.48468623 0.55012310 0.78847671
v 0.35336828 0.58579320 0.79627180
v 0.40982899 0.47382107 0.89352113
v 0.29048267 0.67911792 0.69587296
v 0.36048764 0.72372377 0.58203077
v 0.91505253 0.25956801 0.52046049
v 0.84701675 0.34773338 0.61390603
v 0.83761209 0.19842957 0.65629363
v 0.77087939 0.56539792 0.47523966
v 0.82474667 0.47298780 0.55505145
v 0.87692791 0.51627481 0.40766156
v 0.65053314 0.35181129 0.79912657
v 0.74232924 0.41954780 0.68362963
v 0.63183331 0.48637196 0.75240719
v 0.50745946 0.69414163 0.55630612
v 0.57609791 0.59278303 0.65590018
v 0.64638567 0.63800412 0.51845849
v -0.15644889 0.41599852 0.97246289
v -0.01926478 0.45801875 0.95119816
v -0.43170509 0.31852782 0.93870246
v -0.29907221 0.36460254 0.95732486
v 0.00013188 0.23179288 1.05454838
v -0.15345080 0.29462296 1.02881074
v -0.14303508 0.17508580 1.06932330
v -0.83030164 0.08218663 0.66981840
v -0.76428652 0.10688374 0.77107096
v -0.50899279 0.03856888 0.90739280
v -0.64478773 0.02431997 0.85708803
v -0.57797188 0.07788438 0.78333545
v -0.64647222 0.15335932 0.85953242
v -0.54675448 0.22137666 0.90190351
v 0.00666149 0.26603821 0.91520166
v -0.09819487 0.20974208 0.94689429
v -0.11715320 0.29261875 0.85580581
v -0.11130518 0.04782274 1.07431650
v -0.09563469 0.09443958 0.99504364
v 0.05397496 0.01282045 1.04655421
v -0.37847808 0.23065819 0.85084468
v -0.24037066 0.15099126 0.93356764
v -0.36342821 0.11431609 0.91095901
v -0.42286110 0.17852534 0.98031986
v -0.38628849 0.02684477 1.01523447
v -0.28315264 0.11049371 1.04141212
v -0.97343707 0.00459358 0.38573477
v -0.90167296 0.00461836 0.52012610
v -1.01248181 0.00000000 0.08570240
v -1.01199615 0.01666058 0.25507852
v -0.83640134 0.22649376 0.38581043
v -0.93782741 0.14485985 0.33174786
v -0.91041154 0.22715293 0.23045318
v -0.90584707 0.11827090 -0.50322419
v -0.96871597 0.01323957 -0.40696001
v -0.91309571 0.24833132 -0.26838216
v -0.93782902 0.09441677 -0.32964250
v -0.87317222 0.22939953 -0.40102336
v -1.01568735 0.00004981 -0.24853542
v -1.06154406 0.04028830 -0.09537580
v -0.62632912 0.59845251 0.12168647
v -0.69892466 0.53101367 0.00128520
v -0.58576345 0.59507567 -0.04842911
v -0.86080241 0.34545451 0.12882838
v -0.81397665 0.45323884 0.09078714
v -0.77441299 0.38500699 0.24980795
v -0.75330442 0.46315882 -0.24149491
v -0.76495343 0.48111990 -0.10043428
v -0.83620542 0.37259373 -0.15492404
v -0.93093294 0.08016032 -0.00771017
v -0.90746552 0.22451571 -0.09005795
v -0.93830830 0.24792960 0.09100772
v -0.78400785 0.10165612 -0.75341201
v -0.85520434 0.00014400 -0.63114488
v -0.56708807 0.24100335 -0.93161350
v -0.68229419 0.16264021 -0.86480516
v -0.64004558 0.11749419 -0.75376582
v -0.67086565 0.01219317 -0.80781478
v -0.57240582 0.00254582 -0.84796911
v -0.00323088 0.44588041 -0.95857841
v -0.14051092 0.40229395 -0.97473752
v -0.13043444 0.18544671 -1.08672798
v -0.14226349 0.30050230 -1.02814913
v 0.02494537 0.22755075 -1.06805980
v -0.28886116 0.35092723 -0.97673059
v -0.41717353 0.30245054 -0.96432781
v -0.14793301 0.23800358 -0.85773474
v -0.14571568 0.11435751 -0.90798056
v -0.03123482 0.18379839 -0.88681108
v -0.40408137 0.06043312 -0.87237144
v -0.28584349 0.07112237 -0.88080621
v -0.40781766 0.17910747 -0.79745901
v 0.01617541 0.00000000 -1.03249025
v -0.13331169 0.00389983 -0.93385589
v -0.12693983 0.04660111 -1.06274343
v -0.43596655 0.16862956 -1.00655770
v -0.28187919 0.11346439 -1.06746697
v -0.44648638 0.02852119 -0.98556703
v 0.20530470 0.57759160 -0.80968356
v 0.12774684 0.50815350 -0.89323843
v 0.34419829 0.68839777 -0.61276668
v 0.27651405 0.64424193 -0.71715480
v 0.40487865 0.42650950 -0.89202446
v 0.34791744 0.54190165 -0.81365514
v 0.48260692 0.49539194 -0.79368114
v 0.55827951 0.77365696 -0.09855200
v 0.51714790 0.77138013 -0.22913875
v 0.69804662 0.63983166 -0.38914552
v 0.61060888 0.71595985 -0.31348506
v 0.74673045 0.66053003 -0.24425288
v 0.46693599 0.74956584 -0.35453865
v 0.41264001 0.73475325 -0.47939697
v 0.85787243 0.16346449 -0.65657806
v 0.84849697 0.28354198 -0.59611803
v 0.92220426 0.24349521 -0.51441932
v 0.63517237 0.43230897 -0.74600077
v 0.75263757 0.37112471 -0.68470675
v 0.64003158 0.30131644 -0.80769998
v 0.86627787 0.47626278 -0.39964122
v 0.81657624 0.41181949 -0.54360449
v 0.76860064 0.53277826 -0.48461789
v 0.49185801 0.65097362 -0.58438134
v 0.63603777 0.59212559 -0.53854322
v 0.56293982 0.53993767 -0.67300409
v 0.61017251 0.50517523 0.08924065
v 0.60729700 0.50139058 0.24211945
v 0.52279735 0.60398227 0.14818723
v 0.71554685 0.31883001 0.38437644
v 0.67479765 0.43384120 0.31105086
v 0.76181889 0.31572434 0.25309151
v 0.42043504 0.61699057 0.37279150
v 0.53277427 0.50958371 0.35077152
v 0.46972135 0.51932234 0.45413792
v 0.83290952 0.04885160 0.65651143
v 0.78574318 0.08242685 0.59110111
v 0.92792624 0.03442588 0.51157922
v 0.62688500 0.16488288 0.68346035
v 0.73573840 0.08177259 0.64116341
v 0.63868129 0.07035469 0.76700300
v 0.78940797 0.14515123 0.32739145
v 0.74774343 0.13077849 0.48794040
v 0.71097904 0.21595819 0.41911051
v 0.11979280 0.41966018 0.78563476
v 0.25928321 0.38100606 0.80511391
v 0.13452162 0.34866279 0.87914205
v 0.35641214 0.49143404 0.58745629
v 0.31719074 0.44923246 0.70083076
v 0.24203442 0.55659163 0.59935188
v 0.38491493 0.23438661 0.81744820
v 0.32788876 0.32319060 0.75574243
v 0.48903775 0.24110992 0.71175689
v 0.63604850 0.30521911 0.50487584
v 0.55011189 0.27616790 0.60709411
v 0.52386457 0.41356364 0.52977854
v 0.36717466 0.51798046 0.17026091
v 0.41020131 0.52137613 0.02025235
v 0.29487523 0.70584881 0.36803535
v 0.38743708 0.70417523 0.24545865
v 0.14567748 0.60495132 0.06242310
v 0.28423610 0.67080277 0.15812790
v 0.13415372 0.67841840 0.17866129
v -0.05848948 0.40961999 0.77207053
v 0.02117438 0.50941610 0.74227768
v -0.12052470 0.63837695 0.51561499
v -0.04918305 0.60185003 0.64641088
v -0.19808131 0.57466042 0.60645336
v 0.09872532 0.59215230 0.63758653
v 0.18651062 0.63353485 0.50689417
v -0.36833918 0.58613300 0.08487057
v -0.36537388 0.72968823 0.18993776
v -0.49100485 0.65359533 0.20092902
v -0.04601221 0.69315821 0.18943027
v -0.20353772 0.76807618 0.18182559
v -0.11387406 0.64154375 0.05199930
v -0.35665575 0.66218841 0.41179845
v -0.30231920 0.73082006 0.31097570
v -0.19657530 0.71452701 0.41330019
v 0.13127506 0.74606562 0.42544338
v -0.04905964 0.74749464 0.45107874
v 0.05678049 0.65376115 0.32738322
v 0.36460784 0.60434306 -0.06431271
v 0.53815651 0.55668157 -0.10877681
v 0.11377490 0.64958143 -0.11580511
v 0.20711438 0.62775934 -0.09812638
v 0.40504339 0.60672748 -0.35949922
v 0.31179449 0.67635715 -0.23014967
v 0.29304832 0.71468639 -0.40848297
v -0.46367264 0.67169881 -0.07450341
v -0.33611113 0.57326627 -0.08900778
v -0.19621214 0.46573567 -0.30751649
v -0.26211211 0.59042841 -0.20837592
v -0.33484131 0.55399448 -0.33460912
v -0.18587983 0.63295209 -0.06358665
v -0.06808711 0.60906655 -0.11633297
v 0.08974975 0.37091839 -0.78019017
v 0.01844207 0.48501310 -0.69376546
v -0.07171201 0.40158331 -0.77025110
v 0.19610514 0.62687117 -0.52228236
v 0.11303048 0.56575519 -0.62543225
v 0.25860918 0.56283146 -0.60771179
v -0.18305956 0.41466814 -0.58221090
v -0.08611257 0.56666172 -0.62587810
v -0.13360164 0.50504839 -0.48157081
v 0.05502673 0.61588681 -0.25824055
v -0.01828151 0.54098743 -0.38558638
v 0.15453206 0.61886930 -0.39033428
v 0.59205174 0.57360798 -0.23712343
v 0.64916253 0.53484941 -0.05615712
v 0.46977198 0.54570538 -0.44845647
v 0.52105731 0.57840580 -0.34356290
v 0.75404203 0.35591573 -0.23885134
v 0.66087276 0.46546710 -0.27538598
v 0.71299350 0.36006942 -0.37836492
v 0.11445023 0.25452685 -0.85684621
v 0.20383240 0.33996922 -0.79159313
v 0.47772118 0.25699383 -0.76528651
v 0.33762673 0.30235383 -0.77949136
v 0.38236034 0.18154645 -0.86322552
v 0.28850231 0.43148297 -0.70350051
v 0.37982857 0.48948666 -0.58692151
v 0.91280639 0.00181796 -0.50035268
v 0.79822463 0.06980360 -0.59080917
v 0.80520624 0.01211908 -0.64432132
v 0.75434840 0.25178209 -0.47345242
v 0.76586550 0.16036509 -0.55000573
v 0.81853479 0.15183857 -0.38312197
v 0.57886231 0.05163499 -0.78083241
v 0.68342143 0.08583176 -0.67443937
v 0.58495986 0.17185511 -0.72233087
v 0.52068621 0.45001057 -0.56555164
v 0.57770509 0.31087226 -0.66326183
v 0.64411384 0.35869861 -0.51502293
v 0.71545476 0.46320695 0.00601535
v 0.81288016 0.23674197 -0.16719948
v 0.77688432 0.34183323 -0.08927577
v 0.78019714 0.32780245 0.08078788
v 0.81130487 0.21862915 0.14824489
v 0.99411339 0.12638561 -0.43079787
v 0.99111754 0.01599144 -0.37967870
v 1.07370782 0.08368081 -0.09605388
v 1.03492844 0.07413647 -0.24527137
v 1.06029630 0.19179900 -0.15477455
v 0.90933496 0.08106978 -0.32312652
v 0.87617826 0.11880694 -0.26340020
v 0.97567105 0.01838703 0.36466491
v 0.97983688 0.13972460 0.41533700
v 0.84826106 0.07953595 0.20933913
v 0.91073662 0.01669995 0.28476930
v 1.06187713 0.18250550 0.13958068
v 1.02090931 0.07217660 0.22213390
v 1.05412102 0.08896130 0.06991935
v 0.88271177 0.10786611 -0.12063124
v 0.98367298 0.00000000 -0.03606167
v 0.88098377 0.11280086 0.03988257
v 0.16893965 0.24770527 0.93581790
v 0.41107988 0.09755372 0.90053105
v 0.30205908 0.12310579 0.92077333
v 0.19140491 0.13251641 1.02936876
v 0.17787564 0.04931520 1.06658459
v 0.77881861 0.13295493 0.76259786
v 0.54819059 0.26853853 0.88993436
v 0.67637682 0.20699738 0.83666104
v 0.67674279 0.04807036 0.85269636
v 0.56851429 0.03637661 0.87274438
v 0.13196954 0.44852597 0.98243624
v 0.13928612 0.18665910 1.04473841
v 0.13907877 0.31512433 1.02869546
v 0.28006878 0.42777205 0.97532094
v 0.40726376 0.35712853 0.96223074
v 0.43800867 0.05033501 0.98474807
v 0.42764351 0.20827793 0.96517164
v 0.28497946 0.15001567 1.02161419
v -0.62013870 0.57750547 0.23992731
v -0.42409211 0.57923853 0.45298034
v -0.49337697 0.58367985 0.37442482
v -0.63553476 0.48133320 0.32347718
v -0.70287341 0.39937377 0.40980378
v -0.19062984 0.41068700 0.79674131
v -0.43685210 0.30628419 0.76695633
v -0.30717739 0.37393770 0.78760123
v -0.25159121 0.48012960 0.69169056
v -0.33888292 0.53285229 0.59012610
v -0.76419187 0.04469711 0.58733892
v -0.73517185 0.26579300 0.49034512
v -0.73972857 0.15716858 0.52367282
v -0.66142088 0.11495345 0.67521560
v -0.56768411 0.19344716 0.74135810
v -0.49446586 0.49611408 0.57036638
v -0.51909840 0.35017535 0.65345371
v -0.63414294 0.37716278 0.55552739
v -0.21278797 0.33233070 -0.79200661
v -0.33911684 0.51743758 -0.58872426
v -0.28975597 0.43142498 -0.71833944
v -0.38556799 0.29002225 -0.76380485
v -0.48921981 0.32537514 -0.74224317
v -0.55802351 0.62252241 -0.17698212
v -0.70254415 0.45519602 -0.36282128
v -0.64361262 0.55409372 -0.27332678
v -0.52622038 0.61651450 -0.32171664
v -0.42566225 0.61262709 -0.44822225
v -0.80423194 0.08176070 -0.58040154
v -0.61269563 0.25454822 -0.70360941
v -0.71109861 0.16695689 -0.64098078
v -0.78074050 0.16909531 -0.50399882
v -0.78021109 0.30317509 -0.45913941
v -0.49421477 0.48754832 -0.55998957
v -0.66120768 0.43092513 -0.50357074
v -0.59618139 0.37328017 -0.62450212
v 0.78058583 0.11515865 -0.75811172
v 0.52503330 0.07989189 -0.88529891
v 0.66112089 0.03981214 -0.84803879
v 0.66204488 0.16719152 -0.83646059
v 0.54286122 0.23316553 -0.89798826
v 0.09658617 0.15656169 -0.92225182
v 0.15994520 0.03590317 -1.06034493
v 0.14302467 0.06586070 -0.97914481
v 0.23966680 0.13336651 -0.94227797
v 0.36491758 0.07735087 -0.93533283
v 0.14177373 0.41691944 -0.96308929
v 0.41424450 0.29165635 -0.95419759
v 0.28509223 0.36426249 -0.96444517
v 0.15393364 0.29456022 -1.02491951
v 0.16789450 0.17682999 -1.08212137
v 0.41178221 0.00568613 -0.99809235
v 0.30282471 0.10089332 -1.07240915
v 0.43810368 0.16297160 -0.98935550
v 0.98265898 0.27579397 0.39012775
v 1.05248356 0.29527843 0.08801346
v 1.02807879 0.29748890 0.23583177
v 0.96114767 0.40727946 0.33305517
v 0.91493702 0.52490991 0.25078875
v 0.98971140 0.25478780 -0.38517556
v 0.91879350 0.49329096 -0.26271203
v 0.97131348 0.38532007 -0.32292148
v 1.01993811 0.28602934 -0.23958090
v 1.03989494 0.29797700 -0.09460367
v 0.65444648 0.74558032 -0.01419568
v 0.83393908 0.62864608 0.15877567
v 0.74970073 0.70114434 0.07693976
v 0.75038952 0.68879342 -0.08643533
v 0.84656334 0.60106802 -0.16158471
v 1.01649654 0.41103643 0.01010376
v 0.94600886 0.51661950 -0.09161022
v 0.93433034 0.54281753 0.08311829
f 330 87 329
f 336 325 26
f 207 208 56
f 464 36 580
f 502 129 504
f 157 624 622
f 308 311 82
f 247 223 248
f 507 483 508
f 331 88 329
f 494 500 497
f 156 601 602
f 591 589 592
f 365 98 596
f 75 281 282
f 152 587 577
f 149 559 560
f 555 121 553
f 530 141 529
f 515 517 139
f 361 594 98
f 250 67 249
f 157 608 609
f 294 293 209
f 317 81 316
f 557 338 26
f 303 305 81
f 530 529 528
f 101 381 382
f 415 418 111
f 192 184 50
f 412 110 411
f 20 384 256
f 131 594 486
f 281 264 282
f 347 287 348
f 28 349 582
f 165 163 1
f 248 250 66
f 617 107 398
f 273 271 274
f 456 115 453
f 558 561 560
f 335 576 91
f 331 177 332
f 116 433 436
f 351 370 92
f 136 511 530
f 239 240 65
f 247 258 19
f 304 23 567
f 148 557 570
f 214 208 58
f 440 426 450
f 268 270 269
f 258 247 268
f 204 202 16
f 466 125 465
f 517 513 133
f 168 275 274
f 275 73 274
f 198 193 53
f 309 308 307
f 510 511 136
f 415 416 110
f 131 490 597
f 473 475 474
f 414 415 111
f 493 495 494
f 496 504 485
f 433 116 432
f 600 375 601
f 240 234 65
f 418 415 412
f 486 361 3
f 567 566 304
f 380 393 29
f 17 199 197
f 491 492 132
f 451 449 435
f 218 217 216
f 623 621 613
f 396 104 395
f 433 439 436
f 628 160 627
f 215 202 217
f 209 207 2
f 427 113 424
f 434 10 544
f 434 433 432
f 199 17 210
f 150 564 565
f 489 491 132
f 275 13 285
f 497 500 134
f 125 466 476
f 578 152 577
f 208 214 211
f 328 88 343
f 356 27 603
f 150 566 567
f 372 100 371
f 190 191 47
f 235 8 398
f 260 261 72
f 422 403 414
f 422 414 111
f 453 454 123
f 349 583 582
f 521 520 519
f 425 453 115
f 616 622 158
f 483 130 508
f 151 586 572
f 212 17 232
f 400 397 402
f 377 396 99
f 41 522 511
f 510 508 505
f 549 547 42
f 475 473 36
f 510 137 509
f 222 221 197
f 430 115 429
f 220 194 1
f 305 54 204
f 621 29 613
f 192 171 184
f 460 335 5
f 88 331 332
f 74 277 279
f 300 301 80
f 390 389 388
f 165 45 164
f 146 549 551
f 291 278 75
f 448 120 445
f 147 543 544
f 607 610 609
f 603 602 356
f 139 529 514
f 333 553 443
f 92 368 347
f 261 260 259
f 300 6 200
f 46 177 331
f 284 283 174
f 301 300 200
f 471 468 474
f 54 305 301
f 302 304 303
f 569 150 567
f 150 569 570
f 294 209 2
f 628 629 160
f 548 543 147
f 147 625 627
f 63 233 234
f 426 427 114
f 41 509 532
f 198 52 196
f 614 105 612
f 147 627 547
f 81 305 306
f 549 548 547
f 54 301 200
f 342 88 332
f 264 281 70
f 193 194 53
f 455 429 456
f 187 321 14
f 479 130 484
f 147 544 625
f 458 456 453
f 304 80 303
f 314 84 313
f 488 503 501
f 321 332 14
f 423 425 424
f 305 204 306
f 341 339 25
f 514 40 516
f 625 628 627
f 340 339 341
f 105 614 391
f 243 228 62
f 318 316 78
f 75 278 279
f 357 355 353
f 238 257 63
f 466 455 476
f 425 423 4
f 448 449 120
f 408 638 108
f 292 275 285
f 22 278 289
f 515 513 517
f 501 503 134
f 622 623 158
f 134 503 504
f 195 216 206
f 163 271 246
f 619 617 620
f 62 228 229
f 163 165 164
f 453 425 454
f 489 132 488
f 82 628 625
f 58 208 209
f 525 608 40
f 626 547 627
f 518 517 498
f 489 487 491
f 557 26 564
f 325 336 344
f 541 145 539
f 40 616 516
f 338 556 89
f 250 248 245
f 139 514 515
f 98 594 596
f 246 220 1
f 112 413 630
f 9 536 413
f 156 600 601
f 332 177 14
f 321 342 332
f 156 606 600
f 584 330 585
f 302 303 81
f 584 87 330
f 330 25 585
f 400 239 65
f 439 440 117
f 95 358 368
f 597 594 131
f 594 361 486
f 246 67 245
f 561 562 149
f 28 364 362
f 55 216 217
f 427 430 114
f 267 20 254
f 556 555 553
f 84 309 558
f 311 310 312
f 609 525 142
f 256 68 255
f 124 460 461
f 82 311 312
f 307 308 82
f 589 135 495
f 527 40 514
f 112 418 412
f 20 256 254
f 258 238 19
f 267 254 269
f 273 272 249
f 392 391 393
f 137 533 509
f 122 455 456
f 9 413 411
f 130 480 505
f 333 443 5
f 527 525 40
f 589 495 385
f 39 496 485
f 223 225 224
f 414 416 415
f 219 222 53
f 145 538 539
f 413 412 411
f 469 468 467
f 183 181 6
f 191 192 50
f 429 35 431
f 292 285 76
f 413 112 412
f 415 110 412
f 43 164 167
f 467 468 126
f 617 101 620
f 450 451 117
f 438 546 545
f 619 620 159
f 17 212 210
f 124 579 576
f 584 153 583
f 460 124 576
f 3 469 467
f 311 308 314
f 6 320 183
f 389 104 388
f 251 250 249
f 194 165 1
f 291 289 278
f 287 77 348
f 238 258 257
f 139 517 518
f 238 236 19
f 223 247 19
f 382 380 29
f 39 518 498
f 361 359 3
f 69 255 257
f 139 518 528
f 33 545 535
f 387 385 7
f 69 268 269
f 477 462 125
f 454 479 123
f 121 555 447
f 451 435 117
f 454 425 4
f 233 252 8
f 124 463 464
f 69 258 268
f 168 167 166
f 583 153 582
f 384 394 102
f 138 512 513
f 57 210 211
f 254 256 255
f 607 609 142
f 324 319 86
f 289 291 76
f 291 292 76
f 384 102 383
f 422 421 420
f 221 17 197
f 383 102 381
f 376 377 99
f 99 373 374
f 386 105 392
f 438 33 440
f 90 341 343
f 281 75 279
f 574 571 96
f 628 82 312
f 221 222 59
f 127 471 474
f 595 605 603
f 551 538 145
f 334 91 340
f 322 324 85
f 305 303 301
f 18 239 399
f 306 204 16
f 199 198 197
f 166 190 180
f 303 80 301
f 267 266 265
f 626 42 547
f 16 215 213
f 349 351 350
f 295 16 213
f 68 379 252
f 250 251 66
f 627 160 626
f 383 68 256
f 343 88 342
f 507 508 136
f 202 215 16
f 197 198 53
f 254 69 269
f 603 605 156
f 418 419 111
f 384 383 256
f 455 122 476
f 203 204 54
f 556 557 148
f 255 68 253
f 313 84 560
f 25 328 341
f 254 255 69
f 603 156 602
f 581 584 583
f 630 632 112
f 163 246 1
f 246 245 220
f 432 116 558
f 499 591 590
f 320 563 86
f 345 93 350
f 306 16 295
f 346 93 345
f 562 568 149
f 604 605 155
f 154 592 593
f 545 552 535
f 511 522 530
f 574 573 571
f 566 150 565
f 361 98 360
f 67 271 273
f 234 235 65
f 208 211 56
f 574 151 573
f 251 270 66
f 398 8 378
f 213 215 214
f 438 440 439
f 315 314 313
f 263 71 262
f 20 373 384
f 496 134 504
f 329 88 328
f 81 306 316
f 555 556 148
f 592 589 103
f 617 619 107
f 227 207 56
f 571 359 96
f 446 466 465
f 206 216 55
f 359 571 469
f 568 148 570
f 34 437 435
f 28 351 349
f 21 272 282
f 113 423 424
f 490 489 488
f 379 68 383
f 210 212 211
f 80 563 300
f 351 92 350
f 326 346 12
f 83 317 318
f 555 148 554
f 212 231 56
f 218 57 217
f 271 67 246
f 195 196 52
f 270 268 66
f 390 592 103
f 148 568 554
f 495 493 7
f 592 390 593
f 357 95 355
f 574 575 151
f 452 120 451
f 154 591 592
f 587 585 577
f 395 394 396
f 93 349 350
f 610 416 611
f 166 44 190
f 315 23 302
f 315 302 317
f 268 247 66
f 606 154 593
f 396 394 99
f 211 212 56
f 370 369 368
f 235 397 65
f 280 278 22
f 83 315 317
f 575 588 151
f 74 279 280
f 385 495 7
f 63 257 253
f 397 235 398
f 214 58 213
f 220 219 194
f 546 146 545
f 236 225 19
f 599 94 602
f 235 233 8
f 102 394 395
f 611 416 32
f 225 223 19
f 139 528 529
f 231 62 229
f 419 406 421
f 451 450 452
f 49 182 185
f 402 397 107
f 52 199 218
f 416 610 110
f 225 236 244
f 107 397 398
f 68 252 253
f 322 85 321
f 182 181 183
f 118 438 439
f 546 438 118
f 348 77 345
f 543 546 118
f 231 212 232
f 610 611 157
f 33 438 545
f 385 386 103
f 479 480 130
f 169 195 15
f 93 583 349
f 15 195 206
f 190 44 192
f 247 248 66
f 146 552 545
f 248 60 245
f 570 557 564
f 274 271 43
f 63 253 233
f 272 21 249
f 507 528 518
f 67 273 249
f 487 467 126
f 196 195 169
f 624 159 623
f 134 496 497
f 132 503 488
f 104 393 395
f 556 553 89
f 355 356 94
f 258 69 257
f 229 61 227
f 56 231 227
f 460 576 335
f 463 124 461
f 394 373 99
f 29 393 391
f 67 250 245
f 193 198 196
f 462 36 464
f 144 633 630
f 141 526 527
f 517 133 498
f 536 144 630
f 100 372 599
f 144 536 537
f 22 289 287
f 578 579 152
f 579 578 576
f 189 188 187
f 60 223 224
f 92 348 350
f 555 554 447
f 396 377 388
f 194 193 165
f 413 536 630
f 372 352 599
f 377 376 375
f 348 345 350
f 105 386 387
f 240 237 234
f 463 462 464
f 135 500 494
f 45 196 169
f 512 612 387
f 245 60 220
f 429 115 456
f 223 60 248
f 288 289 76
f 525 526 142
f 100 599 601
f 613 29 391
f 526 523 520
f 341 328 343
f 631 641 639
f 264 21 282
f 266 72 265
f 106 402 403
f 73 273 274
f 186 206 205
f 381 379 383
f 52 216 195
f 410 18 399
f 290 272 73
f 72 371 374
f 526 525 527
f 115 430 424
f 498 497 496
f 621 382 29
f 543 118 434
f 214 215 57
f 522 141 530
f 511 510 509
f 352 94 599
f 493 512 7
f 90 340 341
f 169 171 170
f 605 604 606
f 219 60 224
f 104 389 392
f 359 469 3
f 186 49 185
f 222 219 224
f 166 167 44
f 428 427 426
f 523 522 524
f 129 502 481
f 50 185 188
f 164 45 170
f 425 115 424
f 33 428 426
f 427 428 113
f 94 356 602
f 515 138 513
f 114 431 452
f 237 236 238
f 215 217 57
f 95 354 355
f 220 60 219
f 515 514 516
f 183 320 319
f 222 197 53
f 559 569 567
f 300 320 6
f 435 436 117
f 96 360 363
f 640 642 641
f 242 243 62
f 140 537 519
f 508 130 505
f 420 410 399
f 537 539 144
f 317 316 318
f 426 114 450
f 186 15 206
f 311 83 310
f 625 544 307
f 544 10 307
f 168 43 167
f 185 182 188
f 369 354 95
f 44 171 192
f 605 606 156
f 548 549 146
f 100 601 375
f 149 568 569
f 381 380 382
f 455 466 35
f 480 479 454
f 543 548 546
f 493 133 513
f 492 472 37
f 477 125 476
f 491 487 126
f 337 336 338
f 588 153 587
f 576 578 91
f 633 161 632
f 96 359 360
f 39 485 483
f 101 617 378
f 193 45 165
f 163 164 43
f 618 624 611
f 507 136 528
f 561 149 560
f 641 162 639
f 116 561 558
f 494 133 493
f 253 252 233
f 63 237 238
f 392 393 104
f 440 450 117
f 93 581 583
f 386 385 387
f 120 449 451
f 421 422 111
f 486 3 467
f 302 81 317
f 633 632 630
f 462 475 36
f 376 99 374
f 489 490 131
f 447 449 448
f 387 612 105
f 106 420 399
f 173 46 172
f 492 491 472
f 316 306 295
f 22 287 347
f 109 410 420
f 507 39 483
f 559 23 313
f 214 57 211
f 196 45 193
f 10 434 432
f 422 106 403
f 626 160 640
f 487 486 467
f 542 41 532
f 400 106 399
f 444 120 452
f 198 199 52
f 475 127 474
f 621 620 382
f 621 623 159
f 450 114 452
f 92 347 348
f 376 100 375
f 434 118 433
f 503 132 502
f 337 90 336
f 537 536 519
f 395 393 380
f 201 54 200
f 171 44 170
f 355 94 353
f 58 296 213
f 422 420 106
f 595 365 596
f 569 568 570
f 523 140 520
f 114 430 431
f 218 210 57
f 304 566 80
f 639 162 638
f 261 371 72
f 548 147 547
f 498 133 497
f 150 570 564
f 222 224 59
f 142 526 520
f 437 436 435
f 141 522 523
f 137 510 505
f 173 179 176
f 559 149 569
f 121 447 448
f 563 320 300
f 102 395 380
f 257 255 253
f 642 162 641
f 83 311 314
f 216 52 218
f 512 493 513
f 23 304 302
f 91 339 340
f 512 138 612
f 159 620 621
f 218 199 210
f 364 28 575
f 83 318 310
f 168 274 43
f 136 530 528
f 140 523 524
f 495 135 494
f 233 235 234
f 566 563 80
f 25 339 577
f 277 74 276
f 475 462 477
f 133 494 497
f 436 437 116
f 389 386 392
f 548 146 546
f 441 460 5
f 10 309 307
f 65 397 400
f 543 434 544
f 640 641 161
f 272 273 73
f 581 93 346
f 419 421 111
f 319 320 86
f 180 179 178
f 127 475 477
f 231 229 227
f 337 334 340
f 136 508 510
f 308 309 84
f 237 63 234
f 447 554 34
f 252 379 378
f 315 83 314
f 608 622 616
f 338 336 26
f 337 338 89
f 13 275 168
f 209 208 207
f 436 439 117
f 628 312 629
f 360 366 363
f 364 574 96
f 359 361 360
f 466 446 35
f 500 501 134
f 406 109 421
f 135 589 591
f 601 599 602
f 340 90 337
f 481 492 37
f 522 41 524
f 78 316 295
f 131 486 487
f 403 32 414
f 634 626 640
f 151 572 573
f 515 516 138
f 8 252 378
f 265 72 374
f 9 521 519
f 538 549 42
f 368 358 347
f 588 587 586
f 458 453 123
f 589 385 103
f 502 492 481
f 32 416 414
f 430 427 424
f 153 585 587
f 540 144 539
f 370 368 92
f 209 293 58
f 428 33 535
f 326 581 346
f 625 307 82
f 575 28 582
f 6 181 200
f 421 109 420
f 553 121 443
f 160 642 640
f 153 584 585
f 309 432 558
f 334 337 89
f 23 315 313
f 271 163 43
f 296 295 213
f 39 498 496
f 118 439 433
f 531 113 534
f 293 296 58
f 28 362 351
f 489 131 487
f 431 444 452
f 84 558 560
f 98 366 360
f 45 169 170
f 379 101 378
f 462 463 125
f 308 84 314
f 10 432 309
f 299 24 310
f 132 492 502
f 512 387 7
f 639 638 408
f 565 323 86
f 59 244 242
f 106 400 402
f 440 33 426
f 566 565 563
f 617 398 378
f 224 225 59
f 410 109 409
f 239 400 399
f 194 219 53
f 358 22 347
f 610 157 609
f 27 595 603
f 479 484 482
f 142 520 521
f 585 25 577
f 339 578 577
f 408 407 406
f 407 109 406
f 31 408 406
f 407 408 108
f 31 639 408
f 419 31 406
f 608 616 40
f 430 429 431
f 455 35 429
f 35 444 431
f 188 51 187
f 188 182 51
f 51 322 187
f 322 51 319
f 51 182 183
f 319 51 183
f 187 322 321
f 322 319 324
f 381 101 379
f 405 407 108
f 404 405 108
f 286 285 178
f 407 405 409
f 109 407 409
f 191 175 47
f 167 164 170
f 50 184 185
f 44 167 170
f 64 244 236
f 243 244 64
f 50 188 189
f 541 542 145
f 442 445 119
f 339 91 578
f 445 446 119
f 624 623 622
f 611 624 157
f 523 526 141
f 141 527 529
f 527 514 529
f 445 120 444
f 446 445 444
f 35 446 444
f 613 614 158
f 158 614 615
f 623 613 158
f 614 613 391
f 614 612 615
f 371 376 374
f 100 376 371
f 479 482 123
f 373 394 384
f 540 42 634
f 633 540 634
f 538 42 540
f 633 634 161
f 161 634 640
f 42 626 634
f 540 633 144
f 557 556 338
f 553 333 89
f 262 21 264
f 251 21 262
f 5 335 333
f 270 251 262
f 21 251 249
f 600 593 30
f 606 593 600
f 600 30 375
f 593 390 30
f 30 377 375
f 390 388 30
f 30 388 377
f 228 243 241
f 470 478 459
f 470 127 478
f 127 477 478
f 184 186 185
f 478 477 476
f 122 478 476
f 357 74 280
f 518 39 507
f 344 342 85
f 325 344 85
f 342 344 343
f 85 342 321
f 344 90 343
f 90 344 336
f 482 129 481
f 482 481 457
f 482 457 123
f 481 37 457
f 449 447 34
f 435 449 34
f 470 472 471
f 472 470 37
f 470 471 127
f 472 126 471
f 126 468 471
f 470 459 37
f 491 126 472
f 504 129 485
f 221 59 242
f 125 463 465
f 437 34 562
f 561 437 562
f 554 568 562
f 34 554 562
f 437 561 116
f 390 103 389
f 103 386 389
f 392 105 391
f 572 586 580
f 572 580 36
f 586 152 580
f 473 572 36
f 244 243 242
f 225 244 59
f 64 240 241
f 240 239 241
f 237 240 64
f 243 64 241
f 236 237 64
f 411 607 521
f 9 411 521
f 110 607 411
f 607 142 521
f 610 607 110
f 171 15 184
f 171 169 15
f 15 186 184
f 87 584 581
f 153 588 582
f 588 575 582
f 381 102 380
f 573 572 473
f 468 469 128
f 474 468 128
f 469 571 128
f 571 573 128
f 573 473 128
f 473 474 128
f 564 323 565
f 26 323 564
f 323 324 86
f 325 323 26
f 325 324 323
f 563 565 86
f 324 325 85
f 410 230 18
f 230 228 18
f 18 228 241
f 18 241 239
f 401 619 618
f 401 402 107
f 403 402 401
f 619 159 618
f 401 618 32
f 619 401 107
f 403 401 32
f 618 611 32
f 159 624 618
f 478 122 459
f 122 458 459
f 37 459 457
f 459 458 457
f 122 456 458
f 457 458 123
f 191 190 192
f 485 129 484
f 129 482 484
f 483 485 484
f 130 483 484
f 189 187 14
f 191 50 189
f 191 189 175
f 189 14 175
f 14 177 175
f 499 501 500
f 501 499 38
f 38 499 590
f 135 499 500
f 488 501 38
f 499 135 591
f 480 454 4
f 284 12 346
f 4 423 506
f 480 4 506
f 423 531 506
f 480 506 505
f 531 137 506
f 506 137 505
f 365 366 98
f 71 270 262
f 270 71 269
f 71 267 269
f 335 334 333
f 333 334 89
f 334 335 91
f 536 9 519
f 465 463 461
f 537 140 541
f 520 140 519
f 119 446 465
f 465 461 119
f 461 441 119
f 460 441 461
f 176 46 173
f 299 297 24
f 71 263 266
f 263 260 266
f 260 72 266
f 263 70 260
f 205 201 49
f 201 181 49
f 186 205 49
f 181 201 200
f 181 182 49
f 284 77 283
f 586 587 152
f 588 586 151
f 20 267 265
f 266 267 71
f 31 417 631
f 631 417 632
f 31 631 639
f 417 31 419
f 641 631 161
f 417 112 632
f 161 631 632
f 418 417 419
f 417 418 112
f 284 345 77
f 542 550 145
f 542 541 524
f 284 174 12
f 48 174 283
f 373 20 265
f 373 265 374
f 609 608 525
f 608 157 622
f 560 559 313
f 636 637 162
f 541 140 524
f 41 542 524
f 358 357 280
f 70 263 264
f 263 262 264
f 176 177 46
f 174 48 173
f 174 173 172
f 538 551 549
f 538 540 539
f 537 541 539
f 232 221 242
f 17 221 232
f 232 242 62
f 231 232 62
f 203 205 55
f 203 55 202
f 201 205 203
f 202 55 217
f 205 206 55
f 204 203 202
f 73 275 292
f 292 290 73
f 272 290 282
f 290 292 291
f 75 290 291
f 290 75 282
f 70 277 259
f 277 70 281
f 277 281 279
f 260 70 259
f 12 174 172
f 104 396 388
f 367 27 354
f 365 27 367
f 354 27 356
f 365 367 366
f 595 27 365
f 318 299 310
f 155 596 597
f 155 597 598
f 596 594 597
f 595 596 155
f 605 595 155
f 180 47 179
f 180 190 47
f 352 372 11
f 11 372 261
f 312 310 24
f 642 636 162
f 636 297 637
f 367 369 97
f 366 367 97
f 369 367 354
f 369 370 97
f 580 579 464
f 580 152 579
f 579 124 464
f 61 230 409
f 230 410 409
f 230 61 229
f 230 229 228
f 76 285 286
f 353 352 276
f 74 353 276
f 288 76 286
f 288 286 283
f 289 288 287
f 203 54 201
f 287 288 77
f 77 288 283
f 286 48 283
f 531 423 113
f 276 11 259
f 11 261 259
f 277 276 259
f 616 158 615
f 516 616 615
f 138 516 615
f 138 615 612
f 509 533 532
f 503 502 504
f 635 79 294
f 635 294 404
f 635 637 79
f 637 635 638
f 638 635 108
f 635 404 108
f 226 61 405
f 61 226 227
f 405 61 409
f 227 226 207
f 48 178 179
f 48 286 178
f 173 48 179
f 534 143 533
f 534 535 143
f 531 534 533
f 533 143 532
f 137 531 533
f 261 372 371
f 13 180 178
f 285 13 178
f 180 13 166
f 13 168 166
f 346 345 284
f 331 327 46
f 46 327 172
f 172 327 326
f 382 620 101
f 442 121 448
f 443 121 442
f 2 226 404
f 294 2 404
f 404 226 405
f 207 226 2
f 550 551 145
f 552 146 551
f 143 550 532
f 552 550 143
f 330 329 328
f 24 636 629
f 94 352 353
f 352 11 276
f 113 428 534
f 428 535 534
f 509 41 511
f 535 552 143
f 550 552 551
f 550 542 532
f 369 95 368
f 326 327 87
f 87 327 329
f 327 331 329
f 581 326 87
f 293 79 298
f 79 297 298
f 296 298 78
f 79 293 294
f 296 293 298
f 598 490 38
f 358 280 22
f 280 279 278
f 357 358 95
f 74 357 353
f 330 328 25
f 567 23 559
f 590 598 38
f 590 604 598
f 598 604 155
f 604 590 154
f 590 591 154
f 604 154 606
f 297 299 298
f 299 318 78
f 298 299 78
f 355 354 356
f 629 636 642
f 312 24 629
f 629 642 160
f 370 362 97
f 362 363 97
f 363 366 97
f 364 363 362
f 362 370 351
f 96 363 364
f 297 636 24
f 162 637 638
f 637 297 79
f 490 488 38
f 598 597 490
f 441 442 119
f 443 442 441
f 443 441 5
f 442 448 445
f 296 78 295
f 326 12 172
f 575 574 364
f 47 175 176
f 175 177 176
f 47 176 179
