# FEM surface export ¡ª frame 378
# Vertices: 642  Faces: 1280
v -0.52199948 1.21945667 -0.00147752
v 0.52221662 1.21807730 0.00048744
v -0.61147958 0.00033922 -0.02135150
v 0.57384157 0.07231835 0.02899863
v 0.00096316 0.02670682 0.95471966
v -0.00071551 0.93819672 0.86568838
v -0.00161902 0.04497378 -0.96861154
v -0.00151266 0.93785661 -0.86433828
v 0.90398020 0.46497256 -0.55794555
v 0.90334255 0.46413043 0.55832499
v -0.90315884 0.46358013 -0.55801499
v -0.90257275 0.46786213 0.55819702
v -0.82485527 0.91310585 0.31478655
v -0.51704878 0.74422789 0.83665621
v -0.30816138 1.18426478 0.49711522
v 0.30802017 1.18397379 0.49816743
v 0.00052276 1.34831131 0.00009965
v 0.30802387 1.18488884 -0.49674606
v -0.30745959 1.18446767 -0.49864382
v -0.51852208 0.74197572 -0.83648276
v -0.82496673 0.91332531 -0.31601539
v -1.06088138 0.46136999 -0.00022969
v 0.51875198 0.74424636 0.83797640
v 0.82498723 0.91495043 0.31483921
v -0.54259419 0.19159339 0.88111991
v 0.00235608 0.46228167 1.06178105
v -0.90726256 0.03603682 -0.34328359
v -0.90262401 0.04066378 0.34899428
v -0.00091377 0.46655592 -1.05932403
v -0.54421872 0.19034304 -0.88044661
v 0.82522267 0.91292888 -0.31647322
v 0.51569247 0.74377936 -0.83732861
v 0.89628470 0.02856032 0.33544630
v 0.54853404 0.18735188 0.87969488
v 0.34700108 0.00000000 0.59021997
v -0.37387189 0.00000000 0.57102668
v 0.00738868 0.00003824 0.01020447
v -0.35272354 0.00000000 -0.56106073
v 0.37326238 0.00000000 -0.52453679
v 0.54790002 0.18682761 -0.88566983
v 0.90539324 0.04112066 -0.34433833
v 1.06471217 0.46571553 -0.00115515
v -0.69646055 1.09118998 0.16004840
v -0.59025687 1.07994092 0.42640525
v -0.43084371 1.23014784 0.25639245
v -0.73404878 0.61232382 0.72560585
v -0.70521361 0.84819531 0.60141051
v -0.89536530 0.70026654 0.44921887
v -0.16112556 1.08386207 0.70444989
v -0.43132317 0.99210572 0.69569135
v -0.26627558 0.85644573 0.88446391
v -0.15943909 1.30572641 0.25915575
v -0.26853034 1.31547344 -0.00021073
v 0.15997775 1.08361578 0.70456678
v -0.00003613 1.21914423 0.52167141
v 0.26950598 1.31455576 0.00070941
v 0.16153945 1.30648851 0.25990200
v 0.43134642 1.22890174 0.25822788
v -0.15972394 1.30582976 -0.26019329
v -0.43006516 1.23051941 -0.25857085
v 0.43121776 1.23025239 -0.25680479
v 0.16059904 1.30604708 -0.25928614
v -0.16107221 1.08312273 -0.70400780
v 0.00181257 1.21895325 -0.52209818
v 0.16113076 1.08419979 -0.70473820
v -0.59085655 1.07871580 -0.42772266
v -0.69602311 1.09057951 -0.16260575
v -0.26759470 0.85414380 -0.88193643
v -0.43056449 0.99153316 -0.69608951
v -0.89627665 0.69854856 -0.45086598
v -0.70525146 0.84651625 -0.60203415
v -0.73608750 0.60930407 -0.72615707
v -0.86605442 0.93631816 -0.00085626
v -1.02180421 0.46179143 -0.28986135
v -0.99006993 0.70102739 -0.16972613
v -0.98722094 0.70053476 0.16711874
v -1.02052164 0.46307755 0.28936648
v 0.59080708 1.07752311 0.42749196
v 0.69524020 1.09064710 0.16043536
v 0.26629877 0.85428506 0.88444740
v 0.42988873 0.99122721 0.69616747
v 0.89699233 0.70023048 0.45127711
v 0.70698130 0.84961164 0.60322583
v 0.73669374 0.61138672 0.72502249
v -0.27392709 0.61107552 0.99527019
v -0.00017430 0.71215868 0.99922562
v -0.75357449 0.32200620 0.74716735
v -0.55547392 0.46747696 0.90203714
v 0.00379597 0.21642651 1.04757500
v -0.27960575 0.31880176 1.02555072
v -0.28892002 0.08715455 0.95673984
v -1.03207934 0.22703390 0.17926663
v -0.93616110 0.23269859 0.47229823
v -0.93590379 0.23083089 -0.47055820
v -1.03195930 0.22891569 -0.17601231
v -0.80840969 0.00000000 0.18743250
v -0.95779777 0.02663602 0.00246888
v -0.80453032 0.00000000 -0.18797357
v -0.55753183 0.46515816 -0.90142858
v -0.75165170 0.31855217 -0.74400038
v -0.00069640 0.71297532 -0.99720812
v -0.27600592 0.61197585 -0.99604660
v -0.29056972 0.08506604 -0.95705479
v -0.28145248 0.31702504 -1.02231228
v 0.00093205 0.22296573 -1.04812860
v 0.43030959 0.99110544 -0.69685882
v 0.26572117 0.85542607 -0.88358170
v 0.69600385 1.08928156 -0.16218348
v 0.59094650 1.07795930 -0.42588311
v 0.73513734 0.61079413 -0.72686952
v 0.70500457 0.84785432 -0.60405236
v 0.89717132 0.70034522 -0.45266119
v 0.80159909 0.00000000 0.18902329
v 0.68351251 0.00000000 0.49874192
v 0.48992327 0.01200575 0.28294930
v 0.75749582 0.32033452 0.74842781
v 0.76005632 0.08814374 0.64382386
v 0.93604243 0.22885317 0.46808577
v 0.18265884 0.00000000 0.82191926
v 0.48960811 0.00000000 0.78049397
v 0.29108506 0.08128311 0.95063692
v 0.15368159 0.00255526 0.29306298
v 0.27365467 0.01659709 0.00948083
v -0.19227025 0.00000000 0.81589502
v -0.01194420 0.00000000 0.60655034
v -0.27403182 0.00000000 0.00168167
v -0.17148644 0.00000000 0.26646477
v -0.49949616 0.00000081 0.27685094
v 0.17740390 0.01602704 -0.26998857
v 0.47826010 0.00000000 -0.24781495
v -0.48328209 0.00000000 -0.30667102
v -0.16366771 0.00000000 -0.28318733
v 0.18866962 0.00000000 -0.80054051
v 0.00066234 0.00000000 -0.56130540
v -0.18209918 0.00000000 -0.79508805
v 0.68058610 0.00000000 -0.48018479
v 0.80230457 0.00000000 -0.17790551
v 0.29251227 0.09387633 -0.95984435
v 0.48716465 0.00000000 -0.78367436
v 0.93874311 0.23057359 -0.47085124
v 0.75656062 0.08883566 -0.64903450
v 0.75568300 0.31899440 -0.74743259
v 0.95283473 0.01978638 -0.00414228
v 1.02343965 0.46525320 -0.29130346
v 1.03048027 0.22804131 -0.17648937
v 1.03418183 0.23041365 0.17699555
v 1.02039170 0.46524486 0.29021478
v 0.28499231 0.31579188 1.02145731
v 0.55920339 0.46743378 0.90404105
v 0.27604303 0.61182046 0.99591339
v -0.68553466 0.00000000 0.49932954
v -0.48937404 0.00640234 0.79235613
v -0.76241773 0.09800052 0.64715034
v -0.47496611 0.00000000 -0.77915215
v -0.67944098 0.00000000 -0.48991022
v -0.75472248 0.09340484 -0.65034896
v 0.55639023 0.46401143 -0.90186960
v 0.28199640 0.32336774 -1.02395308
v 0.27514184 0.61308020 -0.99544626
v 0.98861885 0.70216173 0.16835281
v 0.98761821 0.70223498 -0.16836709
v 0.86546326 0.93691885 -0.00065350
v -0.61378813 1.16220307 0.07999736
v -0.56902099 1.16974676 0.21081278
v -0.48002601 1.23153496 0.12893222
v -0.71559507 1.00381351 0.37446734
v -0.64920181 1.09189928 0.29574072
v -0.76755089 1.00770187 0.23811020
v -0.37264156 1.21413136 0.37986499
v -0.51464701 1.16156781 0.34419185
v -0.45354414 1.14022720 0.46669134
v -0.82530767 0.54094273 0.64779139
v -0.82552505 0.65938002 0.59448886
v -0.90707290 0.58640552 0.50729275
v -0.61940765 0.80049980 0.72750169
v -0.72708285 0.73335773 0.66924572
v -0.63109857 0.67951047 0.78771710
v -0.86716533 0.80973130 0.38485280
v -0.80753511 0.77781749 0.53066957
v -0.77419496 0.88703173 0.46279252
v -0.08238807 1.01631773 0.79144061
v -0.21590573 0.97669572 0.80373234
v -0.13411933 0.90041971 0.88390476
v -0.37262920 1.09579194 0.60274458
v -0.29812172 1.04396319 0.70714784
v -0.23690994 1.14008939 0.60549283
v -0.39490721 0.80498809 0.86918306
v -0.35309669 0.92964870 0.79740357
v -0.47974619 0.87471008 0.77487075
v -0.65522510 0.97147346 0.51992029
v -0.57542014 0.92710906 0.65731895
v -0.51666540 1.04399753 0.56750113
v -0.35388115 1.28217435 0.12952545
v -0.39807501 1.27349937 -0.00037122
v -0.23565993 1.25501883 0.38212764
v -0.29809856 1.27546203 0.26062855
v -0.13538285 1.34208822 -0.00049743
v -0.21612048 1.31860805 0.13074715
v -0.08042305 1.33810008 0.13133179
v 0.08089970 1.01558244 0.79066575
v -0.00032722 1.09192359 0.71225280
v 0.15470563 1.20943725 0.51520050
v 0.08053281 1.15845060 0.61706209
v 0.23630989 1.13910592 0.60576051
v -0.08006805 1.15793240 0.61757970
v -0.15519539 1.21120238 0.51543826
v 0.39999703 1.27310801 0.00095186
v 0.35463691 1.28101861 0.13099352
v 0.48058787 1.23069561 0.13000429
v 0.08181208 1.33682990 0.13143547
v 0.21790253 1.31908667 0.13219476
v 0.13636206 1.34131086 0.00029341
v 0.37361467 1.21325195 0.38109586
v 0.29843888 1.27583432 0.26150540
v 0.23644514 1.25342476 0.38265386
v -0.08158021 1.27375352 0.39565960
v 0.08078117 1.27306008 0.39449206
v 0.00012797 1.31758475 0.26230851
v -0.35322079 1.28219163 -0.13084786
v -0.47966430 1.23135674 -0.13063249
v -0.08040489 1.33835995 -0.13143672
v -0.21657251 1.32038558 -0.13182454
v -0.37245178 1.21361232 -0.38187340
v -0.29738179 1.27606094 -0.26155654
v -0.23569480 1.25470173 -0.38292497
v 0.48123780 1.23201430 -0.12904756
v 0.35505438 1.28327918 -0.12924992
v 0.23680620 1.25530267 -0.38162020
v 0.29831213 1.27643442 -0.26010111
v 0.37298083 1.21445966 -0.37997499
v 0.21744657 1.31978035 -0.13037461
v 0.08124249 1.33845603 -0.13123350
v -0.08241340 1.01581120 -0.79083169
v 0.00058542 1.09180295 -0.71354741
v 0.08134216 1.01522863 -0.79140013
v -0.15440078 1.21021414 -0.51602066
v -0.08000360 1.15888083 -0.61886090
v -0.23627728 1.13942313 -0.60609430
v 0.23745564 1.14060950 -0.60595989
v 0.08178632 1.15921545 -0.61887664
v 0.15589671 1.21049368 -0.51526642
v 0.00038285 1.31708848 -0.26280946
v 0.08225605 1.27321029 -0.39418322
v -0.08030603 1.27335405 -0.39555892
v -0.56862295 1.16944790 -0.21358563
v -0.61411452 1.16189241 -0.08195525
v -0.45347333 1.13926208 -0.46909428
v -0.51420212 1.16227722 -0.34641215
v -0.76724887 1.00784957 -0.24107380
v -0.64974064 1.09173429 -0.29805279
v -0.71573097 1.00314343 -0.37668213
v -0.13556913 0.90070826 -0.88105154
v -0.21613793 0.97636557 -0.80242640
v -0.47907189 0.87218285 -0.77440631
v -0.35283640 0.92767864 -0.79669321
v -0.39610389 0.80192834 -0.86701304
v -0.29831538 1.04313898 -0.70793360
v -0.37265885 1.09598231 -0.60379231
v -0.90809184 0.58168280 -0.50871134
v -0.82710534 0.65628839 -0.59554404
v -0.82629645 0.53604788 -0.64886373
v -0.77417660 0.88486505 -0.46435529
v -0.80808169 0.77610922 -0.53161180
v -0.86838233 0.80950058 -0.38618454
v -0.63275886 0.67774415 -0.78841567
v -0.72828865 0.73135179 -0.66983473
v -0.61994702 0.79878390 -0.72762263
v -0.51723313 1.04199338 -0.56913018
v -0.57510167 0.92446774 -0.65891099
v -0.65571767 0.96955246 -0.52063036
v -0.70538133 1.09942567 -0.00107920
v -0.85592455 0.93095154 -0.16089518
v -0.78821254 1.01939726 -0.08366921
v -0.78798360 1.01952600 0.08027390
v -0.85453695 0.93040150 0.15847830
v -0.97165889 0.46315557 -0.42765957
v -0.96976966 0.58085406 -0.37571236
v -1.03619981 0.58291328 -0.08694595
v -1.01429820 0.58301568 -0.23176099
v -1.05052924 0.46307278 -0.14709875
v -0.95236272 0.70206112 -0.31332344
v -0.91723895 0.81172580 -0.24605796
v -0.96989274 0.58413029 0.37478283
v -0.97211266 0.46611226 0.42864460
v -0.91664726 0.81176943 0.24468480
v -0.95093191 0.70373553 0.31151193
v -1.05151129 0.46283960 0.14553289
v -1.01356697 0.58418411 0.23033579
v -1.03789210 0.58302832 0.08514747
v -0.93952316 0.82440364 -0.08538678
v -1.00258863 0.70379752 0.00004237
v -0.93968594 0.82410812 0.08367973
v 0.56891263 1.16947246 0.21228561
v 0.61287498 1.15992439 0.08042452
v 0.45384023 1.13827610 0.46847582
v 0.51537073 1.16048563 0.34539708
v 0.76706630 1.00863433 0.23908253
v 0.64963609 1.09211826 0.29671752
v 0.71599066 1.00447941 0.37578061
v 0.13332111 0.90045023 0.88386738
v 0.21526405 0.97630584 0.80335408
v 0.47979274 0.87557119 0.77682126
v 0.35139188 0.92786080 0.79738015
v 0.39564428 0.80244350 0.86924028
v 0.29643023 1.04246521 0.70763654
v 0.37228900 1.09447122 0.60295820
v 0.90655601 0.58224005 0.50858194
v 0.82674545 0.65725124 0.59488595
v 0.82513791 0.53680766 0.64727068
v 0.77506971 0.88754189 0.46398097
v 0.80851680 0.77800786 0.53251028
v 0.86936247 0.81189394 0.38625291
v 0.63379139 0.68019170 0.79040462
v 0.72825277 0.73279744 0.67085278
v 0.62113214 0.80170077 0.72938079
v 0.51792312 1.04171729 0.56937867
v 0.57454520 0.92656481 0.65803796
v 0.65593672 0.97157836 0.52113718
v -0.13567217 0.78708160 0.95348948
v 0.00003111 0.82843965 0.94014579
v -0.40099624 0.68078321 0.92651349
v -0.27355015 0.73661393 0.94852102
v 0.00066466 0.58851689 1.03934300
v -0.13802840 0.66234982 1.00705552
v -0.13990873 0.53693199 1.04149735
v -0.83776265 0.39360392 0.65967977
v -0.75405586 0.46802676 0.74562174
v -0.55589008 0.32672563 0.90519404
v -0.66096294 0.39515883 0.83337837
v -0.65546936 0.25552353 0.82442582
v -0.65160996 0.54026002 0.82174784
v -0.54249257 0.60811019 0.87931472
v 0.00225988 0.10825346 1.01050735
v -0.14143151 0.14371243 1.01557577
v -0.14552271 0.04825460 0.96395719
v -0.13956238 0.39036426 1.05768454
v -0.14036241 0.26449141 1.04612935
v 0.00078481 0.33688581 1.06555021
v -0.42156956 0.14100344 0.93212688
v -0.28425270 0.19682433 1.00249302
v -0.41631001 0.25176677 0.96662474
v -0.41899651 0.53897846 0.96084666
v -0.42471299 0.39110541 0.97747242
v -0.28103036 0.46448183 1.02232289
v -0.99580640 0.34865862 0.38835680
v -0.92872506 0.34912860 0.52253234
v -1.05946398 0.34175092 0.08912075
v -1.03735316 0.34465402 0.23697139
v -0.92548651 0.12786447 0.41505405
v -0.99407327 0.23174940 0.33010799
v -0.97809321 0.12382115 0.26822367
v -0.92830098 0.34552652 -0.52084869
v -0.99138075 0.34280124 -0.38563865
v -0.97591943 0.11784840 -0.25706974
v -0.99477571 0.22617707 -0.32561171
v -0.92926717 0.12574421 -0.41113317
v -1.03701496 0.34143391 -0.23872393
v -1.06253660 0.34408832 -0.08960328
v -0.72242635 0.00000000 0.08112609
v -0.81807011 0.00000000 -0.00240026
v -0.71416497 0.00000000 -0.10750983
v -0.95229977 0.04379275 0.17996091
v -0.89662462 0.00000000 0.09749579
v -0.87055218 0.00000000 0.26773459
v -0.86722463 0.00000000 -0.27360860
v -0.89248604 0.00000000 -0.09342241
v -0.94953454 0.03150938 -0.17381524
v -1.04621828 0.22592226 0.00113645
v -1.00550938 0.11249752 -0.08666115
v -1.00816476 0.11241491 0.09526976
v -0.75425518 0.46339524 -0.74441236
v -0.83593857 0.38914102 -0.65635306
v -0.54446805 0.60553360 -0.87853211
v -0.65384161 0.53629404 -0.82088232
v -0.65570241 0.25313079 -0.82087457
v -0.66169286 0.39011472 -0.83248007
v -0.55784220 0.32320005 -0.90413922
v -0.00087053 0.82933414 -0.93852562
v -0.13643402 0.78911483 -0.95183575
v -0.14053783 0.54019707 -1.04074669
v -0.13878921 0.66504174 -1.00561166
v -0.00076238 0.59194458 -1.03858089
v -0.27400196 0.73674929 -0.94701713
v -0.40164438 0.67966175 -0.92559946
v -0.14990368 0.05079839 -0.97068101
v -0.14383234 0.14874773 -1.01384079
v 0.00050019 0.11656369 -1.01458871
v -0.41645980 0.24895880 -0.96497554
v -0.28634599 0.19708548 -0.99595380
v -0.41974181 0.13239093 -0.92590284
v 0.00037473 0.34110105 -1.06435418
v -0.14206445 0.26540622 -1.04448366
v -0.14248972 0.39107400 -1.05416238
v -0.42178464 0.53888321 -0.96138006
v -0.28390971 0.46492097 -1.02229702
v -0.42581701 0.38749436 -0.97327560
v 0.21564730 0.97682476 -0.80262750
v 0.13295363 0.90122664 -0.88304162
v 0.37319648 1.09625351 -0.60291636
v 0.29820117 1.04427409 -0.70740712
v 0.39416638 0.80349654 -0.86838681
v 0.35207012 0.92849302 -0.79693478
v 0.47893497 0.87256646 -0.77471870
v 0.61399621 1.16067839 -0.08124246
v 0.56950229 1.16993523 -0.21158926
v 0.71571064 1.00283754 -0.37537000
v 0.64991307 1.09109652 -0.29675013
v 0.76739538 1.00618064 -0.24009433
v 0.51553231 1.16170549 -0.34428036
v 0.45434508 1.14010859 -0.46820784
v 0.82716697 0.53839469 -0.64892173
v 0.82706320 0.65839738 -0.59682488
v 0.90913838 0.58427620 -0.50967675
v 0.61843902 0.80000174 -0.72828341
v 0.72677761 0.73150009 -0.67085338
v 0.63109839 0.67951143 -0.78945994
v 0.86751747 0.81044567 -0.38778928
v 0.80813354 0.77786493 -0.53404510
v 0.77310461 0.88679379 -0.46541104
v 0.51740450 1.04170716 -0.56828558
v 0.65535492 0.97020888 -0.52052629
v 0.57392156 0.92559129 -0.65845799
v 0.69119310 0.01068801 0.10272001
v 0.65067202 0.00113182 0.25142494
v 0.53145492 0.09478571 0.17368425
v 0.82052356 0.00000000 0.41748539
v 0.74663734 0.00000000 0.33892280
v 0.88002884 0.00000000 0.26937687
v 0.42339683 0.00000000 0.44988245
v 0.59536427 0.00000000 0.41517353
v 0.52479935 0.00000000 0.55283499
v 0.83830529 0.39038330 0.65887189
v 0.85699785 0.26793450 0.61612171
v 0.92772585 0.34436452 0.52045292
v 0.66103458 0.13421068 0.77072561
v 0.76478022 0.20118132 0.70279789
v 0.65798974 0.25153258 0.82072228
v 0.92422700 0.12203222 0.40961912
v 0.85544926 0.15262178 0.56016380
v 0.83628643 0.05399694 0.49686491
v 0.09521884 0.00000000 0.90234500
v 0.24250931 0.00000000 0.89759231
v 0.14708418 0.04113483 0.96125424
v 0.43458191 0.00007099 0.70044702
v 0.34124386 0.00000000 0.81700534
v 0.27035859 0.00000000 0.71633631
v 0.42382020 0.13175780 0.92464626
v 0.38902479 0.01941638 0.87590259
v 0.52360708 0.06907557 0.84173328
v 0.74582916 0.00208692 0.57813221
v 0.63923681 0.02846048 0.72213745
v 0.59879768 0.00000000 0.65475708
v 0.39168900 0.00000000 0.15713365
v 0.42912167 0.00000000 0.02443524
v 0.25693357 0.00000000 0.45042971
v 0.32249883 0.00237275 0.31106672
v 0.14357191 0.00123282 0.01103889
v 0.22537115 0.04473650 0.16832554
v 0.09092249 0.01431700 0.14287686
v -0.09226239 0.00000000 0.90141493
v -0.00367484 0.00000000 0.83473259
v -0.19638087 0.00451354 0.58108330
v -0.10752150 0.00000000 0.71545380
v -0.28709358 0.00142168 0.70513493
v 0.08532812 0.00000000 0.73145795
v 0.16752592 0.00000000 0.60987675
v -0.44391730 0.00000000 -0.01874398
v -0.38876382 0.01444388 0.11977506
v -0.55544287 0.00167282 0.12532780
v -0.08330794 0.02481813 0.13429907
v -0.22895931 0.09374618 0.14033066
v -0.14072384 0.02096257 0.02238418
v -0.44693413 0.00074082 0.43155360
v -0.33702379 0.00000000 0.27416083
v -0.28479561 0.00000000 0.41702449
v 0.07727988 0.01997473 0.45267305
v -0.10379818 0.03329829 0.43858245
v -0.00753552 0.00033807 0.28151956
v 0.37324357 0.00000000 -0.10169857
v 0.51924711 0.00000000 -0.11275670
v 0.09748531 0.03231842 -0.13529764
v 0.21176200 0.00143296 -0.12518921
v 0.44764131 0.00500422 -0.38508368
v 0.32881328 0.00000000 -0.24434593
v 0.28433213 0.00002576 -0.38280687
v -0.54714203 0.00000000 -0.16446064
v -0.39157096 0.00000000 -0.15805957
v -0.25656286 0.00065286 -0.42177543
v -0.32331824 0.00000000 -0.29215935
v -0.42038083 0.00907647 -0.43433359
v -0.22773568 0.00000000 -0.13756415
v -0.08625269 0.00000000 -0.13521627
v 0.09730320 0.00000000 -0.90075356
v -0.00052000 0.00000000 -0.81188750
v -0.08782529 0.00000000 -0.89897156
v 0.19047771 0.00000000 -0.55769593
v 0.09607632 0.00000000 -0.68979758
v 0.28122663 0.00000000 -0.66863418
v -0.27965432 0.00000000 -0.68768930
v -0.09723219 0.00000000 -0.69171041
v -0.16598746 0.00101204 -0.57238394
v 0.01564813 0.00073165 -0.27332237
v -0.07125382 0.00000000 -0.42906299
v 0.10267199 0.00095662 -0.40419927
v 0.64144194 0.01255149 -0.21453913
v 0.68006808 0.04642598 -0.07035970
v 0.53788489 0.00000000 -0.52055472
v 0.59275001 0.01180848 -0.36198652
v 0.86528903 0.00000000 -0.27911690
v 0.74281359 0.00000000 -0.32638100
v 0.80853528 0.00000000 -0.42971149
v 0.15136461 0.06178049 -0.97071058
v 0.24992511 0.00050382 -0.90192068
v 0.52460915 0.06541025 -0.83998722
v 0.39700386 0.03530788 -0.88575548
v 0.42654315 0.13453269 -0.92931038
v 0.34474039 0.00000000 -0.80215055
v 0.43555433 0.00000000 -0.67582399
v 0.92842907 0.34502718 -0.52176368
v 0.85710990 0.26727352 -0.62076604
v 0.83870965 0.38840619 -0.65702033
v 0.83755100 0.05388748 -0.50135499
v 0.85564518 0.15573964 -0.56320751
v 0.93172300 0.12725987 -0.41270745
v 0.65769297 0.25193918 -0.82560277
v 0.76455283 0.19661504 -0.70771396
v 0.66258967 0.13452892 -0.77757978
v 0.60686123 0.00000000 -0.64706677
v 0.63172275 0.01368073 -0.72533524
v 0.73372239 0.00000000 -0.57959592
v 0.80522758 0.00000000 0.00362725
v 0.93858194 0.02024744 -0.17907949
v 0.89512450 0.00000000 -0.09523693
v 0.88608128 0.00000000 0.09004784
v 0.93526453 0.02550530 0.16980006
v 0.97298676 0.46511585 -0.42960092
v 0.99540174 0.34778628 -0.38467926
v 1.06356728 0.34328049 -0.08943078
v 1.03943086 0.34668139 -0.23570032
v 1.05444312 0.46562016 -0.14636993
v 0.99457037 0.23008095 -0.32613310
v 0.97951496 0.12201327 -0.26203781
v 0.99304318 0.34528235 0.38536409
v 0.97139066 0.46435249 0.42769784
v 0.97887284 0.12511452 0.26137963
v 0.99461764 0.22882798 0.32623947
v 1.05052722 0.46473351 0.14641242
v 1.03760695 0.34531704 0.23711522
v 1.05840206 0.34675753 0.08702727
v 1.00188267 0.11112824 -0.09151997
v 1.04991388 0.22549027 0.00043707
v 1.00410390 0.11492393 0.08783840
v 0.14833710 0.13994394 1.01201177
v 0.42267412 0.25097558 0.96661687
v 0.29194799 0.19153841 0.99847907
v 0.14646314 0.26340157 1.04345357
v 0.14394404 0.38708210 1.05576956
v 0.75426692 0.46576244 0.74535215
v 0.54701823 0.60691053 0.88315105
v 0.65560591 0.54016852 0.82246155
v 0.66324717 0.39299777 0.83450866
v 0.55936205 0.32552400 0.90328312
v 0.13591295 0.78602183 0.95295584
v 0.14237812 0.53766102 1.04390419
v 0.13883950 0.66233867 1.00702763
v 0.27402139 0.73680347 0.94953752
v 0.40234998 0.67990017 0.92724043
v 0.42895198 0.39101833 0.97678739
v 0.42261356 0.53897303 0.96448058
v 0.28409806 0.46393406 1.02521026
v -0.66581810 0.00000000 0.23056924
v -0.53821325 0.00000000 0.53912210
v -0.60858375 0.00000000 0.39259526
v -0.75340360 0.00000584 0.34451911
v -0.80726147 0.00000000 0.43011713
v -0.24005076 0.00000000 0.90347677
v -0.51804107 0.07489736 0.84430206
v -0.38744348 0.04013576 0.88731688
v -0.35097405 0.00000000 0.81772470
v -0.44640982 0.00000000 0.70691288
v -0.85686094 0.27669755 0.61969888
v -0.84266776 0.06475715 0.50747037
v -0.85573429 0.16410819 0.56662703
v -0.76417094 0.20395719 0.70778513
v -0.65846163 0.14079742 0.77624029
v -0.60023409 0.00000000 0.66006774
v -0.64150000 0.04082793 0.73042208
v -0.73243225 0.00093440 0.58591145
v -0.23827559 0.00056002 -0.91084063
v -0.42962626 0.00000000 -0.69423318
v -0.33285248 0.00000000 -0.80331182
v -0.38701871 0.02656561 -0.88332748
v -0.51651627 0.06956878 -0.84116113
v -0.65111595 0.00000000 -0.25343904
v -0.79928917 0.00000000 -0.42980546
v -0.74187589 0.00000000 -0.34433782
v -0.59391987 0.01022084 -0.40771127
v -0.52370298 0.00570599 -0.55251253
v -0.85455054 0.27241728 -0.61743331
v -0.65751827 0.13823847 -0.77443188
v -0.76093519 0.19936490 -0.70347416
v -0.85562783 0.15714572 -0.56751031
v -0.84443456 0.06194216 -0.50537616
v -0.59830809 0.00000000 -0.64985317
v -0.72306222 0.00010125 -0.58324933
v -0.62667847 0.03298921 -0.72126150
v 0.75526738 0.46416408 -0.74447751
v 0.55954677 0.32389984 -0.90579945
v 0.66188192 0.39184812 -0.83233184
v 0.65373230 0.53705800 -0.82199216
v 0.54407066 0.60626602 -0.87854087
v 0.14660326 0.15493380 -1.02199137
v 0.14143007 0.39364570 -1.05497289
v 0.14341797 0.27166581 -1.04867136
v 0.28995407 0.19995716 -1.00689566
v 0.41885775 0.25289503 -0.96958870
v 0.13539109 0.78880793 -0.95154059
v 0.40161836 0.68069744 -0.92665076
v 0.27304655 0.73703772 -0.94720346
v 0.13772231 0.66506064 -1.00542200
v 0.13982031 0.54070210 -1.03960216
v 0.42689586 0.39001065 -0.97423166
v 0.28316376 0.46719879 -1.02157390
v 0.42171708 0.54019254 -0.96131980
v 0.97151756 0.58420599 0.37764418
v 1.03971815 0.58306855 0.08785503
v 1.01797068 0.58669156 0.23252653
v 0.95267379 0.70482129 0.31340179
v 0.91791302 0.81362569 0.24484305
v 0.97021276 0.58486497 -0.37638217
v 0.91591936 0.81260854 -0.24742194
v 0.95275968 0.70342213 -0.31342646
v 1.01497674 0.58499002 -0.23079632
v 1.03890407 0.58698750 -0.08562921
v 0.70439482 1.09843934 -0.00119768
v 0.85552216 0.93225247 0.15857729
v 0.78782380 1.02063167 0.08139568
v 0.78770083 1.01839828 -0.08243559
v 0.85531491 0.92898351 -0.15940933
v 1.00097620 0.70411730 0.00132395
v 0.93825984 0.82331491 -0.08528695
v 0.93920338 0.82566321 0.08405416
f 330 87 329
f 336 325 26
f 207 208 56
f 464 36 580
f 502 129 504
f 157 624 622
f 308 311 82
f 247 223 248
f 507 483 508
f 331 88 329
f 494 500 497
f 156 601 602
f 591 589 592
f 365 98 596
f 75 281 282
f 152 587 577
f 149 559 560
f 555 121 553
f 530 141 529
f 515 517 139
f 361 594 98
f 250 67 249
f 157 608 609
f 294 293 209
f 317 81 316
f 557 338 26
f 303 305 81
f 530 529 528
f 101 381 382
f 415 418 111
f 192 184 50
f 412 110 411
f 20 384 256
f 131 594 486
f 281 264 282
f 347 287 348
f 28 349 582
f 165 163 1
f 248 250 66
f 617 107 398
f 273 271 274
f 456 115 453
f 558 561 560
f 335 576 91
f 331 177 332
f 116 433 436
f 351 370 92
f 136 511 530
f 239 240 65
f 247 258 19
f 304 23 567
f 148 557 570
f 214 208 58
f 440 426 450
f 268 270 269
f 258 247 268
f 204 202 16
f 466 125 465
f 517 513 133
f 168 275 274
f 275 73 274
f 198 193 53
f 309 308 307
f 510 511 136
f 415 416 110
f 131 490 597
f 473 475 474
f 414 415 111
f 493 495 494
f 496 504 485
f 433 116 432
f 600 375 601
f 240 234 65
f 418 415 412
f 486 361 3
f 567 566 304
f 380 393 29
f 17 199 197
f 491 492 132
f 451 449 435
f 218 217 216
f 623 621 613
f 396 104 395
f 433 439 436
f 628 160 627
f 215 202 217
f 209 207 2
f 427 113 424
f 434 10 544
f 434 433 432
f 199 17 210
f 150 564 565
f 489 491 132
f 275 13 285
f 497 500 134
f 125 466 476
f 578 152 577
f 208 214 211
f 328 88 343
f 356 27 603
f 150 566 567
f 372 100 371
f 190 191 47
f 235 8 398
f 260 261 72
f 422 403 414
f 422 414 111
f 453 454 123
f 349 583 582
f 521 520 519
f 425 453 115
f 616 622 158
f 483 130 508
f 151 586 572
f 212 17 232
f 400 397 402
f 377 396 99
f 41 522 511
f 510 508 505
f 549 547 42
f 475 473 36
f 510 137 509
f 222 221 197
f 430 115 429
f 220 194 1
f 305 54 204
f 621 29 613
f 192 171 184
f 460 335 5
f 88 331 332
f 74 277 279
f 300 301 80
f 390 389 388
f 165 45 164
f 146 549 551
f 291 278 75
f 448 120 445
f 147 543 544
f 607 610 609
f 603 602 356
f 139 529 514
f 333 553 443
f 92 368 347
f 261 260 259
f 300 6 200
f 46 177 331
f 284 283 174
f 301 300 200
f 471 468 474
f 54 305 301
f 302 304 303
f 569 150 567
f 150 569 570
f 294 209 2
f 628 629 160
f 548 543 147
f 147 625 627
f 63 233 234
f 426 427 114
f 41 509 532
f 198 52 196
f 614 105 612
f 147 627 547
f 81 305 306
f 549 548 547
f 54 301 200
f 342 88 332
f 264 281 70
f 193 194 53
f 455 429 456
f 187 321 14
f 479 130 484
f 147 544 625
f 458 456 453
f 304 80 303
f 314 84 313
f 488 503 501
f 321 332 14
f 423 425 424
f 305 204 306
f 341 339 25
f 514 40 516
f 625 628 627
f 340 339 341
f 105 614 391
f 243 228 62
f 318 316 78
f 75 278 279
f 357 355 353
f 238 257 63
f 466 455 476
f 425 423 4
f 448 449 120
f 408 638 108
f 292 275 285
f 22 278 289
f 515 513 517
f 501 503 134
f 622 623 158
f 134 503 504
f 195 216 206
f 163 271 246
f 619 617 620
f 62 228 229
f 163 165 164
f 453 425 454
f 489 132 488
f 82 628 625
f 58 208 209
f 525 608 40
f 626 547 627
f 518 517 498
f 489 487 491
f 557 26 564
f 325 336 344
f 541 145 539
f 40 616 516
f 338 556 89
f 250 248 245
f 139 514 515
f 98 594 596
f 246 220 1
f 112 413 630
f 9 536 413
f 156 600 601
f 332 177 14
f 321 342 332
f 156 606 600
f 584 330 585
f 302 303 81
f 584 87 330
f 330 25 585
f 400 239 65
f 439 440 117
f 95 358 368
f 597 594 131
f 594 361 486
f 246 67 245
f 561 562 149
f 28 364 362
f 55 216 217
f 427 430 114
f 267 20 254
f 556 555 553
f 84 309 558
f 311 310 312
f 609 525 142
f 256 68 255
f 124 460 461
f 82 311 312
f 307 308 82
f 589 135 495
f 527 40 514
f 112 418 412
f 20 256 254
f 258 238 19
f 267 254 269
f 273 272 249
f 392 391 393
f 137 533 509
f 122 455 456
f 9 413 411
f 130 480 505
f 333 443 5
f 527 525 40
f 589 495 385
f 39 496 485
f 223 225 224
f 414 416 415
f 219 222 53
f 145 538 539
f 413 412 411
f 469 468 467
f 183 181 6
f 191 192 50
f 429 35 431
f 292 285 76
f 413 112 412
f 415 110 412
f 43 164 167
f 467 468 126
f 617 101 620
f 450 451 117
f 438 546 545
f 619 620 159
f 17 212 210
f 124 579 576
f 584 153 583
f 460 124 576
f 3 469 467
f 311 308 314
f 6 320 183
f 389 104 388
f 251 250 249
f 194 165 1
f 291 289 278
f 287 77 348
f 238 258 257
f 139 517 518
f 238 236 19
f 223 247 19
f 382 380 29
f 39 518 498
f 361 359 3
f 69 255 257
f 139 518 528
f 33 545 535
f 387 385 7
f 69 268 269
f 477 462 125
f 454 479 123
f 121 555 447
f 451 435 117
f 454 425 4
f 233 252 8
f 124 463 464
f 69 258 268
f 168 167 166
f 583 153 582
f 384 394 102
f 138 512 513
f 57 210 211
f 254 256 255
f 607 609 142
f 324 319 86
f 289 291 76
f 291 292 76
f 384 102 383
f 422 421 420
f 221 17 197
f 383 102 381
f 376 377 99
f 99 373 374
f 386 105 392
f 438 33 440
f 90 341 343
f 281 75 279
f 574 571 96
f 628 82 312
f 221 222 59
f 127 471 474
f 595 605 603
f 551 538 145
f 334 91 340
f 322 324 85
f 305 303 301
f 18 239 399
f 306 204 16
f 199 198 197
f 166 190 180
f 303 80 301
f 267 266 265
f 626 42 547
f 16 215 213
f 349 351 350
f 295 16 213
f 68 379 252
f 250 251 66
f 627 160 626
f 383 68 256
f 343 88 342
f 507 508 136
f 202 215 16
f 197 198 53
f 254 69 269
f 603 605 156
f 418 419 111
f 384 383 256
f 455 122 476
f 203 204 54
f 556 557 148
f 255 68 253
f 313 84 560
f 25 328 341
f 254 255 69
f 603 156 602
f 581 584 583
f 630 632 112
f 163 246 1
f 246 245 220
f 432 116 558
f 499 591 590
f 320 563 86
f 345 93 350
f 306 16 295
f 346 93 345
f 562 568 149
f 604 605 155
f 154 592 593
f 545 552 535
f 511 522 530
f 574 573 571
f 566 150 565
f 361 98 360
f 67 271 273
f 234 235 65
f 208 211 56
f 574 151 573
f 251 270 66
f 398 8 378
f 213 215 214
f 438 440 439
f 315 314 313
f 263 71 262
f 20 373 384
f 496 134 504
f 329 88 328
f 81 306 316
f 555 556 148
f 592 589 103
f 617 619 107
f 227 207 56
f 571 359 96
f 446 466 465
f 206 216 55
f 359 571 469
f 568 148 570
f 34 437 435
f 28 351 349
f 21 272 282
f 113 423 424
f 490 489 488
f 379 68 383
f 210 212 211
f 80 563 300
f 351 92 350
f 326 346 12
f 83 317 318
f 555 148 554
f 212 231 56
f 218 57 217
f 271 67 246
f 195 196 52
f 270 268 66
f 390 592 103
f 148 568 554
f 495 493 7
f 592 390 593
f 357 95 355
f 574 575 151
f 452 120 451
f 154 591 592
f 587 585 577
f 395 394 396
f 93 349 350
f 610 416 611
f 166 44 190
f 315 23 302
f 315 302 317
f 268 247 66
f 606 154 593
f 396 394 99
f 211 212 56
f 370 369 368
f 235 397 65
f 280 278 22
f 83 315 317
f 575 588 151
f 74 279 280
f 385 495 7
f 63 257 253
f 397 235 398
f 214 58 213
f 220 219 194
f 546 146 545
f 236 225 19
f 599 94 602
f 235 233 8
f 102 394 395
f 611 416 32
f 225 223 19
f 139 528 529
f 231 62 229
f 419 406 421
f 451 450 452
f 49 182 185
f 402 397 107
f 52 199 218
f 416 610 110
f 225 236 244
f 107 397 398
f 68 252 253
f 322 85 321
f 182 181 183
f 118 438 439
f 546 438 118
f 348 77 345
f 543 546 118
f 231 212 232
f 610 611 157
f 33 438 545
f 385 386 103
f 479 480 130
f 169 195 15
f 93 583 349
f 15 195 206
f 190 44 192
f 247 248 66
f 146 552 545
f 248 60 245
f 570 557 564
f 274 271 43
f 63 253 233
f 272 21 249
f 507 528 518
f 67 273 249
f 487 467 126
f 196 195 169
f 624 159 623
f 134 496 497
f 132 503 488
f 104 393 395
f 556 553 89
f 355 356 94
f 258 69 257
f 229 61 227
f 56 231 227
f 460 576 335
f 463 124 461
f 394 373 99
f 29 393 391
f 67 250 245
f 193 198 196
f 462 36 464
f 144 633 630
f 141 526 527
f 517 133 498
f 536 144 630
f 100 372 599
f 144 536 537
f 22 289 287
f 578 579 152
f 579 578 576
f 189 188 187
f 60 223 224
f 92 348 350
f 555 554 447
f 396 377 388
f 194 193 165
f 413 536 630
f 372 352 599
f 377 376 375
f 348 345 350
f 105 386 387
f 240 237 234
f 463 462 464
f 135 500 494
f 45 196 169
f 512 612 387
f 245 60 220
f 429 115 456
f 223 60 248
f 288 289 76
f 525 526 142
f 100 599 601
f 613 29 391
f 526 523 520
f 341 328 343
f 631 641 639
f 264 21 282
f 266 72 265
f 106 402 403
f 73 273 274
f 186 206 205
f 381 379 383
f 52 216 195
f 410 18 399
f 290 272 73
f 72 371 374
f 526 525 527
f 115 430 424
f 498 497 496
f 621 382 29
f 543 118 434
f 214 215 57
f 522 141 530
f 511 510 509
f 352 94 599
f 493 512 7
f 90 340 341
f 169 171 170
f 605 604 606
f 219 60 224
f 104 389 392
f 359 469 3
f 186 49 185
f 222 219 224
f 166 167 44
f 428 427 426
f 523 522 524
f 129 502 481
f 50 185 188
f 164 45 170
f 425 115 424
f 33 428 426
f 427 428 113
f 94 356 602
f 515 138 513
f 114 431 452
f 237 236 238
f 215 217 57
f 95 354 355
f 220 60 219
f 515 514 516
f 183 320 319
f 222 197 53
f 559 569 567
f 300 320 6
f 435 436 117
f 96 360 363
f 640 642 641
f 242 243 62
f 140 537 519
f 508 130 505
f 420 410 399
f 537 539 144
f 317 316 318
f 426 114 450
f 186 15 206
f 311 83 310
f 625 544 307
f 544 10 307
f 168 43 167
f 185 182 188
f 369 354 95
f 44 171 192
f 605 606 156
f 548 549 146
f 100 601 375
f 149 568 569
f 381 380 382
f 455 466 35
f 480 479 454
f 543 548 546
f 493 133 513
f 492 472 37
f 477 125 476
f 491 487 126
f 337 336 338
f 588 153 587
f 576 578 91
f 633 161 632
f 96 359 360
f 39 485 483
f 101 617 378
f 193 45 165
f 163 164 43
f 618 624 611
f 507 136 528
f 561 149 560
f 641 162 639
f 116 561 558
f 494 133 493
f 253 252 233
f 63 237 238
f 392 393 104
f 440 450 117
f 93 581 583
f 386 385 387
f 120 449 451
f 421 422 111
f 486 3 467
f 302 81 317
f 633 632 630
f 462 475 36
f 376 99 374
f 489 490 131
f 447 449 448
f 387 612 105
f 106 420 399
f 173 46 172
f 492 491 472
f 316 306 295
f 22 287 347
f 109 410 420
f 507 39 483
f 559 23 313
f 214 57 211
f 196 45 193
f 10 434 432
f 422 106 403
f 626 160 640
f 487 486 467
f 542 41 532
f 400 106 399
f 444 120 452
f 198 199 52
f 475 127 474
f 621 620 382
f 621 623 159
f 450 114 452
f 92 347 348
f 376 100 375
f 434 118 433
f 503 132 502
f 337 90 336
f 537 536 519
f 395 393 380
f 201 54 200
f 171 44 170
f 355 94 353
f 58 296 213
f 422 420 106
f 595 365 596
f 569 568 570
f 523 140 520
f 114 430 431
f 218 210 57
f 304 566 80
f 639 162 638
f 261 371 72
f 548 147 547
f 498 133 497
f 150 570 564
f 222 224 59
f 142 526 520
f 437 436 435
f 141 522 523
f 137 510 505
f 173 179 176
f 559 149 569
f 121 447 448
f 563 320 300
f 102 395 380
f 257 255 253
f 642 162 641
f 83 311 314
f 216 52 218
f 512 493 513
f 23 304 302
f 91 339 340
f 512 138 612
f 159 620 621
f 218 199 210
f 364 28 575
f 83 318 310
f 168 274 43
f 136 530 528
f 140 523 524
f 495 135 494
f 233 235 234
f 566 563 80
f 25 339 577
f 277 74 276
f 475 462 477
f 133 494 497
f 436 437 116
f 389 386 392
f 548 146 546
f 441 460 5
f 10 309 307
f 65 397 400
f 543 434 544
f 640 641 161
f 272 273 73
f 581 93 346
f 419 421 111
f 319 320 86
f 180 179 178
f 127 475 477
f 231 229 227
f 337 334 340
f 136 508 510
f 308 309 84
f 237 63 234
f 447 554 34
f 252 379 378
f 315 83 314
f 608 622 616
f 338 336 26
f 337 338 89
f 13 275 168
f 209 208 207
f 436 439 117
f 628 312 629
f 360 366 363
f 364 574 96
f 359 361 360
f 466 446 35
f 500 501 134
f 406 109 421
f 135 589 591
f 601 599 602
f 340 90 337
f 481 492 37
f 522 41 524
f 78 316 295
f 131 486 487
f 403 32 414
f 634 626 640
f 151 572 573
f 515 516 138
f 8 252 378
f 265 72 374
f 9 521 519
f 538 549 42
f 368 358 347
f 588 587 586
f 458 453 123
f 589 385 103
f 502 492 481
f 32 416 414
f 430 427 424
f 153 585 587
f 540 144 539
f 370 368 92
f 209 293 58
f 428 33 535
f 326 581 346
f 625 307 82
f 575 28 582
f 6 181 200
f 421 109 420
f 553 121 443
f 160 642 640
f 153 584 585
f 309 432 558
f 334 337 89
f 23 315 313
f 271 163 43
f 296 295 213
f 39 498 496
f 118 439 433
f 531 113 534
f 293 296 58
f 28 362 351
f 489 131 487
f 431 444 452
f 84 558 560
f 98 366 360
f 45 169 170
f 379 101 378
f 462 463 125
f 308 84 314
f 10 432 309
f 299 24 310
f 132 492 502
f 512 387 7
f 639 638 408
f 565 323 86
f 59 244 242
f 106 400 402
f 440 33 426
f 566 565 563
f 617 398 378
f 224 225 59
f 410 109 409
f 239 400 399
f 194 219 53
f 358 22 347
f 610 157 609
f 27 595 603
f 479 484 482
f 142 520 521
f 585 25 577
f 339 578 577
f 408 407 406
f 407 109 406
f 31 408 406
f 407 408 108
f 31 639 408
f 419 31 406
f 608 616 40
f 430 429 431
f 455 35 429
f 35 444 431
f 188 51 187
f 188 182 51
f 51 322 187
f 322 51 319
f 51 182 183
f 319 51 183
f 187 322 321
f 322 319 324
f 381 101 379
f 405 407 108
f 404 405 108
f 286 285 178
f 407 405 409
f 109 407 409
f 191 175 47
f 167 164 170
f 50 184 185
f 44 167 170
f 64 244 236
f 243 244 64
f 50 188 189
f 541 542 145
f 442 445 119
f 339 91 578
f 445 446 119
f 624 623 622
f 611 624 157
f 523 526 141
f 141 527 529
f 527 514 529
f 445 120 444
f 446 445 444
f 35 446 444
f 613 614 158
f 158 614 615
f 623 613 158
f 614 613 391
f 614 612 615
f 371 376 374
f 100 376 371
f 479 482 123
f 373 394 384
f 540 42 634
f 633 540 634
f 538 42 540
f 633 634 161
f 161 634 640
f 42 626 634
f 540 633 144
f 557 556 338
f 553 333 89
f 262 21 264
f 251 21 262
f 5 335 333
f 270 251 262
f 21 251 249
f 600 593 30
f 606 593 600
f 600 30 375
f 593 390 30
f 30 377 375
f 390 388 30
f 30 388 377
f 228 243 241
f 470 478 459
f 470 127 478
f 127 477 478
f 184 186 185
f 478 477 476
f 122 478 476
f 357 74 280
f 518 39 507
f 344 342 85
f 325 344 85
f 342 344 343
f 85 342 321
f 344 90 343
f 90 344 336
f 482 129 481
f 482 481 457
f 482 457 123
f 481 37 457
f 449 447 34
f 435 449 34
f 470 472 471
f 472 470 37
f 470 471 127
f 472 126 471
f 126 468 471
f 470 459 37
f 491 126 472
f 504 129 485
f 221 59 242
f 125 463 465
f 437 34 562
f 561 437 562
f 554 568 562
f 34 554 562
f 437 561 116
f 390 103 389
f 103 386 389
f 392 105 391
f 572 586 580
f 572 580 36
f 586 152 580
f 473 572 36
f 244 243 242
f 225 244 59
f 64 240 241
f 240 239 241
f 237 240 64
f 243 64 241
f 236 237 64
f 411 607 521
f 9 411 521
f 110 607 411
f 607 142 521
f 610 607 110
f 171 15 184
f 171 169 15
f 15 186 184
f 87 584 581
f 153 588 582
f 588 575 582
f 381 102 380
f 573 572 473
f 468 469 128
f 474 468 128
f 469 571 128
f 571 573 128
f 573 473 128
f 473 474 128
f 564 323 565
f 26 323 564
f 323 324 86
f 325 323 26
f 325 324 323
f 563 565 86
f 324 325 85
f 410 230 18
f 230 228 18
f 18 228 241
f 18 241 239
f 401 619 618
f 401 402 107
f 403 402 401
f 619 159 618
f 401 618 32
f 619 401 107
f 403 401 32
f 618 611 32
f 159 624 618
f 478 122 459
f 122 458 459
f 37 459 457
f 459 458 457
f 122 456 458
f 457 458 123
f 191 190 192
f 485 129 484
f 129 482 484
f 483 485 484
f 130 483 484
f 189 187 14
f 191 50 189
f 191 189 175
f 189 14 175
f 14 177 175
f 499 501 500
f 501 499 38
f 38 499 590
f 135 499 500
f 488 501 38
f 499 135 591
f 480 454 4
f 284 12 346
f 4 423 506
f 480 4 506
f 423 531 506
f 480 506 505
f 531 137 506
f 506 137 505
f 365 366 98
f 71 270 262
f 270 71 269
f 71 267 269
f 335 334 333
f 333 334 89
f 334 335 91
f 536 9 519
f 465 463 461
f 537 140 541
f 520 140 519
f 119 446 465
f 465 461 119
f 461 441 119
f 460 441 461
f 176 46 173
f 299 297 24
f 71 263 266
f 263 260 266
f 260 72 266
f 263 70 260
f 205 201 49
f 201 181 49
f 186 205 49
f 181 201 200
f 181 182 49
f 284 77 283
f 586 587 152
f 588 586 151
f 20 267 265
f 266 267 71
f 31 417 631
f 631 417 632
f 31 631 639
f 417 31 419
f 641 631 161
f 417 112 632
f 161 631 632
f 418 417 419
f 417 418 112
f 284 345 77
f 542 550 145
f 542 541 524
f 284 174 12
f 48 174 283
f 373 20 265
f 373 265 374
f 609 608 525
f 608 157 622
f 560 559 313
f 636 637 162
f 541 140 524
f 41 542 524
f 358 357 280
f 70 263 264
f 263 262 264
f 176 177 46
f 174 48 173
f 174 173 172
f 538 551 549
f 538 540 539
f 537 541 539
f 232 221 242
f 17 221 232
f 232 242 62
f 231 232 62
f 203 205 55
f 203 55 202
f 201 205 203
f 202 55 217
f 205 206 55
f 204 203 202
f 73 275 292
f 292 290 73
f 272 290 282
f 290 292 291
f 75 290 291
f 290 75 282
f 70 277 259
f 277 70 281
f 277 281 279
f 260 70 259
f 12 174 172
f 104 396 388
f 367 27 354
f 365 27 367
f 354 27 356
f 365 367 366
f 595 27 365
f 318 299 310
f 155 596 597
f 155 597 598
f 596 594 597
f 595 596 155
f 605 595 155
f 180 47 179
f 180 190 47
f 352 372 11
f 11 372 261
f 312 310 24
f 642 636 162
f 636 297 637
f 367 369 97
f 366 367 97
f 369 367 354
f 369 370 97
f 580 579 464
f 580 152 579
f 579 124 464
f 61 230 409
f 230 410 409
f 230 61 229
f 230 229 228
f 76 285 286
f 353 352 276
f 74 353 276
f 288 76 286
f 288 286 283
f 289 288 287
f 203 54 201
f 287 288 77
f 77 288 283
f 286 48 283
f 531 423 113
f 276 11 259
f 11 261 259
f 277 276 259
f 616 158 615
f 516 616 615
f 138 516 615
f 138 615 612
f 509 533 532
f 503 502 504
f 635 79 294
f 635 294 404
f 635 637 79
f 637 635 638
f 638 635 108
f 635 404 108
f 226 61 405
f 61 226 227
f 405 61 409
f 227 226 207
f 48 178 179
f 48 286 178
f 173 48 179
f 534 143 533
f 534 535 143
f 531 534 533
f 533 143 532
f 137 531 533
f 261 372 371
f 13 180 178
f 285 13 178
f 180 13 166
f 13 168 166
f 346 345 284
f 331 327 46
f 46 327 172
f 172 327 326
f 382 620 101
f 442 121 448
f 443 121 442
f 2 226 404
f 294 2 404
f 404 226 405
f 207 226 2
f 550 551 145
f 552 146 551
f 143 550 532
f 552 550 143
f 330 329 328
f 24 636 629
f 94 352 353
f 352 11 276
f 113 428 534
f 428 535 534
f 509 41 511
f 535 552 143
f 550 552 551
f 550 542 532
f 369 95 368
f 326 327 87
f 87 327 329
f 327 331 329
f 581 326 87
f 293 79 298
f 79 297 298
f 296 298 78
f 79 293 294
f 296 293 298
f 598 490 38
f 358 280 22
f 280 279 278
f 357 358 95
f 74 357 353
f 330 328 25
f 567 23 559
f 590 598 38
f 590 604 598
f 598 604 155
f 604 590 154
f 590 591 154
f 604 154 606
f 297 299 298
f 299 318 78
f 298 299 78
f 355 354 356
f 629 636 642
f 312 24 629
f 629 642 160
f 370 362 97
f 362 363 97
f 363 366 97
f 364 363 362
f 362 370 351
f 96 363 364
f 297 636 24
f 162 637 638
f 637 297 79
f 490 488 38
f 598 597 490
f 441 442 119
f 443 442 441
f 443 441 5
f 442 448 445
f 296 78 295
f 326 12 172
f 575 574 364
f 47 175 176
f 175 177 176
f 47 176 179
