# FEM surface export ¡ª frame 635
# Vertices: 642  Faces: 1280
v -0.50650108 0.77487522 0.00818357
v 0.50132829 0.79303193 -0.00837748
v -0.52238172 0.50636667 0.00322834
v 0.52477705 0.46031469 -0.03555950
v -0.01867776 0.30776471 0.84514016
v 0.00748927 0.53515947 0.85524887
v -0.00039703 0.29483020 -0.83659297
v -0.01003857 0.54752129 -0.85598272
v 0.94067317 0.17347716 -0.61003542
v 0.95466083 0.18889420 0.59556639
v -0.93877047 0.15567110 -0.58910936
v -0.93342108 0.15868232 0.59259397
v -0.80411988 0.51802242 0.32675710
v -0.52153748 0.38352048 0.85658455
v -0.29540038 0.75226617 0.48513135
v 0.28733122 0.75800472 0.47937244
v 0.00170003 0.92955232 -0.00173963
v 0.28518912 0.76948571 -0.49105322
v -0.29905984 0.76186973 -0.47782233
v -0.52760756 0.39485085 -0.84562457
v -0.80826086 0.52312016 -0.30192405
v -1.10968912 0.19184305 -0.00025095
v 0.52647400 0.38920107 0.84586048
v 0.81081271 0.53847134 0.29632244
v -0.51725429 0.10936102 0.78448910
v 0.00460769 0.13242401 1.12217557
v -0.85391378 0.25108758 -0.28991818
v -0.83130395 0.24271098 0.30610815
v -0.00013574 0.14279944 -1.12366092
v -0.50605881 0.08164681 -0.82920700
v 0.80929840 0.53802729 -0.33276284
v 0.49501431 0.38536122 -0.85942495
v 0.84011418 0.23589817 0.34138268
v 0.50734216 0.13544148 0.84745544
v 0.28495961 0.43527934 0.48062366
v -0.28178462 0.55024505 0.48937404
v -0.02163299 0.34111294 0.02513411
v -0.33267051 0.34622273 -0.49784112
v 0.29972756 0.46873391 -0.45280328
v 0.53512549 0.08805362 -0.84207696
v 0.84999228 0.18998002 -0.28343964
v 1.12028670 0.19123499 -0.01636034
v -0.67711776 0.66420251 0.17169935
v -0.56408697 0.65214419 0.42569226
v -0.41225803 0.78439760 0.25010523
v -0.74122357 0.26331967 0.76295638
v -0.68908489 0.46961868 0.60825616
v -0.88938177 0.35610285 0.47024620
v -0.14665826 0.66667163 0.69254458
v -0.41397926 0.58831573 0.69573629
v -0.25526580 0.47077593 0.89041728
v -0.15436827 0.87540793 0.24764147
v -0.26324362 0.88368237 0.00037979
v 0.15464826 0.66243225 0.68345189
v -0.00297835 0.78526694 0.49980259
v 0.26324782 0.89000416 -0.00410284
v 0.15719992 0.87711316 0.24767891
v 0.41396019 0.79888684 0.24195249
v -0.15715544 0.87604368 -0.24893430
v -0.42220619 0.79507786 -0.24162191
v 0.41179156 0.81033266 -0.25674364
v 0.15698935 0.88256741 -0.25403485
v -0.16908507 0.67167932 -0.68391222
v -0.00368539 0.79619020 -0.50174814
v 0.13836606 0.67855734 -0.69618630
v -0.57544804 0.66800082 -0.41131032
v -0.68327832 0.66469401 -0.14488928
v -0.27398828 0.48577476 -0.87029415
v -0.43457431 0.59281242 -0.67890000
v -0.89855695 0.36041352 -0.46018085
v -0.70113271 0.46886396 -0.59204429
v -0.75346160 0.28849956 -0.74694550
v -0.85574782 0.54124010 0.01503452
v -1.07397413 0.16464837 -0.30283749
v -0.99073958 0.35512212 -0.17741156
v -0.98829508 0.36179292 0.17817350
v -1.05945742 0.21608688 0.31220850
v 0.56195778 0.66200662 0.40664035
v 0.66682702 0.68282253 0.14023858
v 0.26690707 0.46805206 0.87392420
v 0.42086565 0.58107781 0.67228049
v 0.91410697 0.37597960 0.45600107
v 0.70260078 0.48878658 0.59564728
v 0.76188242 0.30249211 0.75319326
v -0.27969697 0.26885933 1.03382421
v 0.00301680 0.34791282 1.01883268
v -0.79316956 0.00577675 0.75208426
v -0.57581317 0.14574035 0.96027899
v 0.00863552 0.13853729 1.06381226
v -0.29613972 0.00768321 1.05405033
v -0.27502662 0.25820524 0.88550460
v -0.99803674 0.00000000 0.19021301
v -0.93560433 0.06172046 0.50854731
v -0.93480259 0.03779934 -0.44481882
v -1.03585422 0.02214726 -0.17179732
v -0.67483628 0.36976588 0.13846824
v -0.86334944 0.25649393 0.01376509
v -0.69154072 0.42540407 -0.16256411
v -0.59095728 0.13774167 -0.94210666
v -0.80179429 0.00282489 -0.78759950
v -0.00393429 0.36508653 -1.01223803
v -0.28446686 0.29167590 -1.03038502
v -0.23726314 0.18328980 -0.88856268
v -0.28242853 0.02756494 -1.05673218
v 0.01020510 0.09012584 -1.02402294
v 0.40637365 0.59888434 -0.70210016
v 0.25113648 0.47753978 -0.89458162
v 0.67412484 0.67452961 -0.17322651
v 0.56332278 0.67664784 -0.42901042
v 0.72376525 0.27788770 -0.77173901
v 0.68437070 0.49126697 -0.61867583
v 0.89906526 0.36825550 -0.48450440
v 0.70793146 0.37145734 0.14676149
v 0.56807721 0.39341059 0.41168231
v 0.39797583 0.49572316 0.19754905
v 0.77069575 0.03885325 0.79781979
v 0.70039088 0.20330760 0.59291512
v 0.93468875 0.00857882 0.50477964
v 0.17124040 0.39083278 0.70154655
v 0.39316869 0.32143009 0.70839018
v 0.22946240 0.22234146 0.91409642
v 0.15680060 0.56247228 0.25897858
v 0.21905452 0.29651171 0.04755427
v -0.14986984 0.41518259 0.67835641
v 0.04543851 0.55278730 0.50082344
v -0.26268736 0.34129053 0.08481744
v -0.16153853 0.45392925 0.26328662
v -0.45727426 0.55452859 0.24299414
v 0.15159738 0.29411843 -0.24342452
v 0.42321205 0.37224841 -0.27147108
v -0.42136079 0.45522800 -0.25450563
v -0.21572585 0.28481260 -0.23179269
v 0.18060236 0.43362266 -0.66626984
v -0.02686723 0.39149091 -0.53825903
v -0.17978258 0.43232751 -0.70470828
v 0.60276586 0.36997166 -0.35732973
v 0.73130256 0.35629621 -0.11839413
v 0.27528247 0.25892511 -0.90228111
v 0.42902094 0.31844243 -0.65460646
v 0.94676477 0.00056228 -0.45595729
v 0.72965467 0.16803136 -0.59170270
v 0.80760211 0.01132066 -0.78997219
v 0.92508388 0.22029224 0.00514791
v 1.05441606 0.17663398 -0.33225802
v 1.03057790 0.00000000 -0.12865917
v 1.02668822 0.00000000 0.19595933
v 1.07235694 0.15858305 0.30473432
v 0.27767226 0.00277527 1.07446122
v 0.58657837 0.16179250 0.96453726
v 0.28751105 0.27353257 1.02936602
v -0.57694864 0.44283387 0.40317500
v -0.41088700 0.35646564 0.68082279
v -0.71298438 0.25615746 0.60631061
v -0.45709658 0.29305699 -0.70653939
v -0.60211849 0.40324572 -0.42621183
v -0.74081457 0.18257993 -0.61123854
v 0.57959205 0.17092185 -0.95032793
v 0.27427578 0.00023383 -1.05777681
v 0.27073604 0.28512967 -1.04112983
v 1.00640082 0.35541892 0.16645710
v 0.99914318 0.37370354 -0.18891284
v 0.85239750 0.54712594 -0.01166510
v -0.59689885 0.72404510 0.08962541
v -0.54740942 0.72830808 0.20980835
v -0.46086481 0.78627902 0.13006397
v -0.68665892 0.58775359 0.38024470
v -0.62584430 0.66335511 0.30016485
v -0.74807054 0.59331816 0.25039279
v -0.35418808 0.77672726 0.36820450
v -0.49178377 0.72099775 0.33792940
v -0.43396902 0.70809096 0.45734748
v -0.84725744 0.20952715 0.67996961
v -0.83017170 0.31621790 0.61629629
v -0.91808182 0.25899935 0.53264356
v -0.61488539 0.43018150 0.73960054
v -0.72723776 0.37217847 0.68376946
v -0.64209062 0.33199018 0.81244123
v -0.84890425 0.43004948 0.39439979
v -0.78952909 0.40568757 0.53895366
v -0.75027549 0.49542806 0.46876353
v -0.07019697 0.60359693 0.78013539
v -0.19940506 0.57297230 0.80088246
v -0.12130297 0.50788838 0.88087046
v -0.35725343 0.67502731 0.59321880
v -0.28094387 0.63075960 0.70263606
v -0.22609490 0.71676546 0.59294093
v -0.39055943 0.43105802 0.88327658
v -0.33824143 0.53172505 0.80192286
v -0.46878758 0.48664680 0.77930993
v -0.63006443 0.56082422 0.52429539
v -0.56291825 0.53052503 0.66416949
v -0.49902201 0.62663835 0.56954300
v -0.34161112 0.84286320 0.12572615
v -0.38671106 0.83221883 0.00282498
v -0.22514775 0.81823647 0.36695135
v -0.28706139 0.83803910 0.25089473
v -0.13220704 0.91490412 -0.00134046
v -0.20957370 0.89152241 0.12639865
v -0.07660972 0.91212291 0.12560278
v 0.08430693 0.60120928 0.76961929
v -0.00009558 0.67028964 0.69174320
v 0.14263198 0.77658945 0.49295920
v 0.06905264 0.72850871 0.59317845
v 0.21981983 0.71366465 0.58328998
v -0.07919949 0.72762531 0.59547961
v -0.14991508 0.77798003 0.49646571
v 0.38486937 0.84497833 -0.00309650
v 0.34340763 0.85631293 0.12338082
v 0.46265158 0.80302298 0.11830871
v 0.08190884 0.91594052 0.12473025
v 0.21346435 0.89392364 0.12271266
v 0.13379049 0.91840965 -0.00587636
v 0.35436633 0.78853571 0.36494270
v 0.28918543 0.84833151 0.24870874
v 0.22343729 0.82572806 0.36644405
v -0.08003750 0.83732170 0.37873152
v 0.07566094 0.83913761 0.37816891
v 0.00018998 0.88916147 0.25131628
v -0.34556523 0.84313494 -0.12398994
v -0.46731913 0.79269063 -0.11628909
v -0.07959347 0.91464484 -0.12834398
v -0.21340796 0.88910592 -0.12758756
v -0.36401510 0.78540713 -0.36218309
v -0.29227233 0.84250176 -0.24663922
v -0.23180783 0.82660747 -0.36381379
v 0.46469089 0.80740446 -0.13292217
v 0.34410825 0.85468167 -0.13070960
v 0.22318803 0.83482903 -0.37299591
v 0.28635246 0.85517156 -0.25657019
v 0.35111508 0.79951006 -0.37860864
v 0.21463788 0.89414734 -0.13291538
v 0.08074626 0.91538286 -0.13169648
v -0.09174986 0.61334550 -0.77673912
v -0.01327378 0.68305641 -0.69826949
v 0.06397199 0.61575401 -0.78190523
v -0.15180869 0.78660810 -0.49358213
v -0.08640749 0.73979872 -0.59941208
v -0.23143342 0.72160500 -0.58529633
v 0.21308897 0.72916067 -0.59703469
v 0.06497245 0.74330604 -0.60360223
v 0.14119588 0.79106188 -0.50202823
v -0.00087280 0.89322674 -0.25506186
v 0.07641532 0.84809846 -0.37763056
v -0.08146437 0.84923077 -0.37875918
v -0.55810177 0.73964268 -0.19400989
v -0.59970260 0.72739387 -0.06547460
v -0.44138098 0.72415841 -0.45206085
v -0.50302446 0.73771119 -0.32667190
v -0.75626403 0.59545761 -0.21940196
v -0.63662899 0.67093551 -0.28010681
v -0.70323235 0.60221374 -0.35371354
v -0.14325123 0.52386642 -0.86406267
v -0.22233613 0.58047032 -0.78217185
v -0.48670274 0.49656144 -0.76092201
v -0.35688293 0.53999716 -0.77842456
v -0.40439597 0.45123136 -0.86001903
v -0.30117109 0.63307244 -0.68693006
v -0.36617696 0.68056256 -0.58590996
v -0.93532467 0.27631199 -0.53216332
v -0.84303457 0.32290366 -0.60900903
v -0.85368156 0.23046228 -0.68559933
v -0.76249707 0.49539676 -0.45367122
v -0.80664325 0.41434237 -0.53280377
v -0.85764199 0.43642268 -0.37746516
v -0.64021164 0.33646050 -0.80737317
v -0.73648643 0.38459995 -0.67486036
v -0.62393683 0.43514651 -0.72642457
v -0.50800717 0.63849729 -0.55533820
v -0.57435435 0.53315550 -0.63923800
v -0.64888215 0.57368678 -0.49948058
v -0.69112206 0.67160332 0.01476017
v -0.84453380 0.53668600 -0.14551853
v -0.77533168 0.60496122 -0.06611502
v -0.77245677 0.60419393 0.09831062
v -0.83986270 0.53114635 0.17043827
v -1.01330674 0.16755964 -0.44802558
v -0.99181187 0.26267621 -0.39888385
v -1.05880129 0.28163868 -0.09517176
v -1.03810561 0.26526734 -0.24913955
v -1.09692323 0.18396203 -0.15065546
v -0.94866902 0.36447355 -0.31736028
v -0.90160155 0.44371152 -0.23556466
v -0.98769003 0.28043100 0.39997897
v -1.00798750 0.17886592 0.45488361
v -0.90363026 0.43720382 0.25547013
v -0.95262086 0.36646155 0.32946479
v -1.10242915 0.21383987 0.15832269
v -1.03935838 0.30006450 0.24283451
v -1.06610465 0.30147368 0.08869355
v -0.93290508 0.45094064 -0.07325366
v -1.01014984 0.35379013 -0.00234404
v -0.93558019 0.44397607 0.09599780
v 0.54501051 0.74969530 0.19628224
v 0.58934540 0.73681349 0.06358115
v 0.42775255 0.71830887 0.45068917
v 0.48601735 0.73604608 0.32610893
v 0.74478549 0.61795318 0.21960315
v 0.61827409 0.68292427 0.27661306
v 0.69268590 0.61207259 0.35376492
v 0.13634470 0.50782734 0.87081701
v 0.21787019 0.56474817 0.77867121
v 0.48032176 0.49293604 0.76532298
v 0.34783423 0.53198022 0.77508992
v 0.39936087 0.44206136 0.86609191
v 0.29022545 0.62521631 0.68013668
v 0.35590544 0.67328089 0.57677507
v 0.94741178 0.27796990 0.53030050
v 0.85547805 0.34431377 0.61289251
v 0.86084807 0.24097501 0.68062645
v 0.76088327 0.52672082 0.44937265
v 0.81339550 0.44184828 0.52970648
v 0.86752290 0.46286890 0.37806702
v 0.64206654 0.34684694 0.80546755
v 0.74391007 0.40174955 0.67454350
v 0.62275988 0.44334537 0.72478104
v 0.50175691 0.62830049 0.54871655
v 0.56309360 0.54187435 0.63889724
v 0.63625908 0.57908022 0.50056499
v -0.13204521 0.40859145 0.95934999
v 0.00424302 0.44287923 0.94377530
v -0.40698710 0.32358491 0.95360577
v -0.27354291 0.36285475 0.96196282
v 0.00686772 0.24131142 1.06879544
v -0.14082491 0.30441254 1.02631295
v -0.14000005 0.20536202 1.08731437
v -0.86983103 0.08392617 0.69755733
v -0.77466112 0.14193185 0.79670846
v -0.57537615 0.00432349 0.89696372
v -0.69533437 0.07228839 0.87295115
v -0.64364499 0.02605510 0.71005046
v -0.66145855 0.20001023 0.87265754
v -0.55217457 0.26438984 0.90817904
v -0.04131776 0.19672550 0.94126964
v -0.14108405 0.18802314 0.96579981
v -0.14992793 0.28717783 0.87235165
v -0.13038349 0.06861839 1.12620175
v -0.15467939 0.08406530 1.01757252
v 0.01174813 0.01837879 1.12238383
v -0.41140100 0.19719981 0.87137765
v -0.32496855 0.13506971 0.95090091
v -0.37705147 0.04641943 0.87967885
v -0.43075803 0.20276389 1.01037049
v -0.45799237 0.06226846 1.02838778
v -0.28473967 0.13003705 1.06816185
v -1.04631662 0.08719613 0.40714726
v -0.97941059 0.07654414 0.56034374
v -1.10809791 0.08798826 0.09508338
v -1.08021522 0.09538893 0.23490264
v -0.89598179 0.15269552 0.40398175
v -0.97740173 0.01672453 0.34400278
v -0.91602004 0.13285542 0.26696205
v -0.97949195 0.06235238 -0.53270102
v -1.03681290 0.04732265 -0.37687016
v -0.92385811 0.17401272 -0.22746167
v -0.98995191 0.14628266 -0.31730980
v -0.88111889 0.15790235 -0.37257141
v -1.09629190 0.02908715 -0.23991029
v -1.12699211 0.06164105 -0.08326718
v -0.62332541 0.47393423 0.08038506
v -0.71217191 0.39487082 -0.03511749
v -0.62715304 0.44814286 -0.05590065
v -0.86183286 0.21722566 0.13441470
v -0.77243769 0.32318094 0.06444322
v -0.75865394 0.30711433 0.21125486
v -0.76155400 0.32301575 -0.21038148
v -0.80053520 0.32739037 -0.06551165
v -0.88355035 0.27734700 -0.13585635
v -1.03872824 0.00000000 0.00972367
v -0.97018337 0.12779531 -0.06613531
v -0.96356976 0.12467790 0.09626982
v -0.78781313 0.14503239 -0.79286069
v -0.87991410 0.08317111 -0.69317091
v -0.55381298 0.27823213 -0.91300547
v -0.67553121 0.22409467 -0.85608178
v -0.65023392 0.00407908 -0.82009476
v -0.69932508 0.06565013 -0.87805218
v -0.57865644 0.00037279 -0.95238018
v -0.00892405 0.46055791 -0.93774635
v -0.14027207 0.43386766 -0.94308865
v -0.14483494 0.23283859 -1.09803915
v -0.13631000 0.32959098 -1.01415908
v -0.00043740 0.26373002 -1.08063567
v -0.27934626 0.38835645 -0.95119011
v -0.40705982 0.34732848 -0.94009525
v -0.11914246 0.24297178 -0.89623618
v -0.10404170 0.12983665 -0.94864422
v 0.01136925 0.18875451 -0.94296610
v -0.40064234 0.00178938 -0.95025510
v -0.26558453 0.06467799 -0.95113254
v -0.36504644 0.09357694 -0.87975585
v 0.00223747 0.01256452 -1.12387276
v -0.13306676 0.01610331 -1.04178095
v -0.15301704 0.09566672 -1.11173546
v -0.44223928 0.23276956 -1.01751900
v -0.29343873 0.18071286 -1.09242070
v -0.44632065 0.08947916 -1.04469299
v 0.19586691 0.58789748 -0.80214006
v 0.12248696 0.51746136 -0.88425708
v 0.34637997 0.69167173 -0.59861624
v 0.27284002 0.64533633 -0.70036811
v 0.37552103 0.43353802 -0.88841718
v 0.32747355 0.54450309 -0.80476290
v 0.45318192 0.50189239 -0.79210258
v 0.59083092 0.73985714 -0.08908240
v 0.54774362 0.74950981 -0.21493106
v 0.69362438 0.61477393 -0.38403854
v 0.62499136 0.68474889 -0.30393636
v 0.74786419 0.60905170 -0.25172937
v 0.48731205 0.74776202 -0.34384689
v 0.42859551 0.73291272 -0.47036108
v 0.83917487 0.22250693 -0.70582956
v 0.82383466 0.32513070 -0.64560783
v 0.92522246 0.27632776 -0.55002266
v 0.59625912 0.44667587 -0.74852645
v 0.71289200 0.39258432 -0.69742209
v 0.61678964 0.33060873 -0.82008636
v 0.85826474 0.45652395 -0.40927857
v 0.80037314 0.43888932 -0.56146932
v 0.75455219 0.52522588 -0.48205239
v 0.49150056 0.64512753 -0.57651788
v 0.62973207 0.59303457 -0.52890784
v 0.55279249 0.54629856 -0.67387509
v 0.59660488 0.43489316 0.06580269
v 0.54693550 0.46375471 0.17420413
v 0.45317835 0.48796582 0.08617307
v 0.71513140 0.33308709 0.42305636
v 0.66086906 0.41515738 0.27468830
v 0.77261364 0.32451668 0.26428357
v 0.35111922 0.47812021 0.35925382
v 0.49154568 0.47893685 0.29781592
v 0.43956000 0.40937027 0.43120494
v 0.88975680 0.11836517 0.71470118
v 0.86195952 0.03865150 0.65535444
v 0.98546606 0.08262738 0.56503695
v 0.61431324 0.15838465 0.73218888
v 0.72421032 0.11773191 0.68292212
v 0.62790817 0.03488562 0.81967616
v 0.86724675 0.11690784 0.41530025
v 0.80984777 0.09604617 0.55419928
v 0.77110916 0.21094610 0.46102583
v 0.08130255 0.35418707 0.74599314
v 0.20382197 0.30311131 0.80299985
v 0.10058676 0.26578802 0.88911217
v 0.34803978 0.38677850 0.58438230
v 0.28432542 0.35125178 0.71006620
v 0.22019842 0.43790466 0.59173971
v 0.38260242 0.14017759 0.91898382
v 0.31835678 0.25742164 0.83187401
v 0.45481843 0.24944963 0.80410403
v 0.64863896 0.29907542 0.53213483
v 0.55144215 0.28602403 0.67292494
v 0.49664029 0.37589601 0.55929208
v 0.35150120 0.35872814 0.16318484
v 0.38343242 0.34757313 -0.00470493
v 0.20343004 0.52422160 0.35477966
v 0.26172993 0.45595369 0.25051504
v 0.10180008 0.34024191 0.02367771
v 0.16686442 0.39245743 0.16686766
v 0.10537508 0.40763545 0.12500529
v -0.08824335 0.38547093 0.76033211
v -0.00085723 0.41627684 0.65035784
v -0.12129132 0.54186225 0.48580447
v -0.04393821 0.50901949 0.59832799
v -0.21458405 0.45779589 0.58763945
v 0.09705256 0.45999348 0.60310405
v 0.16790286 0.47241756 0.51033360
v -0.37043110 0.42804778 0.03012077
v -0.33500430 0.51868528 0.14195174
v -0.50723761 0.54465824 0.12424304
v -0.07690625 0.40369239 0.10581021
v -0.18388811 0.54881006 0.11923994
v -0.19009006 0.37685499 0.05944597
v -0.33191323 0.56063128 0.35675582
v -0.29167202 0.59524292 0.23182420
v -0.20751365 0.59745747 0.36579558
v 0.08730415 0.54184258 0.38645625
v -0.04719537 0.59666932 0.36225688
v 0.00643734 0.45412835 0.24906981
v 0.36183673 0.30894086 -0.12857635
v 0.43213990 0.47655639 -0.12660451
v 0.06465716 0.30922768 -0.11885105
v 0.19001250 0.29323092 -0.09980146
v 0.36667889 0.51898718 -0.33036241
v 0.27371714 0.35803047 -0.28305289
v 0.25670183 0.36597881 -0.37828529
v -0.45634416 0.46892077 -0.11444748
v -0.35809115 0.34477109 -0.09850487
v -0.25582051 0.25566220 -0.35937977
v -0.33200580 0.33474940 -0.24710393
v -0.37415627 0.35600811 -0.36233202
v -0.26831079 0.27663469 -0.07187183
v -0.13858044 0.32844353 -0.09876382
v 0.08038614 0.38385338 -0.75460172
v -0.00578453 0.46304190 -0.68411845
v -0.09842532 0.37928748 -0.77320230
v 0.14244702 0.45025849 -0.51198316
v 0.09504276 0.35469434 -0.63490957
v 0.24989988 0.47057271 -0.56921524
v -0.21450186 0.33096871 -0.62337226
v -0.08221399 0.49208927 -0.59151846
v -0.16079980 0.41533265 -0.46874472
v -0.02361954 0.29505390 -0.25200045
v -0.08700369 0.30543774 -0.37724674
v 0.07143001 0.33042455 -0.40107492
v 0.58693427 0.42451453 -0.15229315
v 0.61095256 0.37506726 -0.03306587
v 0.45650098 0.43442845 -0.39995429
v 0.54237336 0.44117984 -0.29469934
v 0.78381908 0.27137387 -0.21027090
v 0.67910981 0.36823928 -0.24608743
v 0.76113135 0.28293863 -0.35960385
v 0.13865636 0.27773800 -0.87860477
v 0.22110268 0.37325367 -0.79239047
v 0.47355634 0.24167390 -0.78097975
v 0.35163826 0.31102383 -0.78359938
v 0.39263701 0.14726704 -0.84573781
v 0.30703929 0.38120174 -0.67523366
v 0.37042755 0.41422558 -0.55056751
v 0.97716594 0.07876987 -0.56198663
v 0.88911515 0.03666412 -0.65764832
v 0.88319683 0.09789430 -0.71203476
v 0.82232946 0.19116017 -0.44882017
v 0.84990251 0.10355677 -0.54839987
v 0.90218222 0.09870116 -0.38177747
v 0.70661616 0.03877317 -0.82981122
v 0.78603083 0.12623619 -0.68306488
v 0.64102292 0.12422213 -0.73453915
v 0.51275408 0.34934080 -0.51483876
v 0.57896280 0.26501238 -0.63601851
v 0.66807663 0.28096572 -0.48112255
v 0.71844828 0.31900814 0.02835458
v 0.89783591 0.21951433 -0.15311144
v 0.83947343 0.29159230 -0.05324597
v 0.81234664 0.25986126 0.11777317
v 0.89527953 0.21090244 0.20448034
v 1.01281774 0.16230249 -0.47645420
v 1.04895163 0.08008569 -0.40674299
v 1.12644267 0.06820508 -0.07948872
v 1.08382034 0.08715595 -0.23136079
v 1.08261156 0.18376121 -0.16443191
v 1.01375401 0.00000000 -0.30142683
v 0.95793366 0.09083448 -0.24567120
v 1.03661788 0.07967242 0.42161831
v 1.01685286 0.18223843 0.45498958
v 0.93430370 0.09796726 0.27171972
v 0.98390287 0.00146815 0.35388947
v 1.10125172 0.17368487 0.14718582
v 1.06844997 0.05940764 0.25912240
v 1.10300374 0.08251053 0.09517815
v 0.97086149 0.12512355 -0.06087409
v 1.05066252 0.00055139 0.02525458
v 0.96482474 0.12438312 0.11530726
v 0.09707589 0.17123094 0.93923110
v 0.40053383 0.02245145 0.96232754
v 0.27155241 0.12892027 0.98996156
v 0.13972348 0.04367737 1.01935947
v 0.15199852 0.12263291 1.11967480
v 0.80314672 0.16495441 0.79705405
v 0.56436872 0.28134432 0.92077011
v 0.68248397 0.23906769 0.86418885
v 0.70441413 0.10798291 0.90346229
v 0.58051199 0.01015523 0.94463724
v 0.14131568 0.41483152 0.96179551
v 0.15769434 0.19634296 1.08730400
v 0.14921793 0.30137640 1.02678847
v 0.28175712 0.38156417 0.96455395
v 0.41374540 0.34279469 0.94537193
v 0.46060100 0.08366487 1.04146099
v 0.43405342 0.21846527 1.01623428
v 0.31037357 0.12983072 1.09112906
v -0.58785307 0.48425516 0.21351831
v -0.43042526 0.50205630 0.42927662
v -0.49804997 0.51925474 0.31113055
v -0.62298959 0.40158963 0.24954869
v -0.70001650 0.35930279 0.33730775
v -0.22691309 0.35854870 0.77139467
v -0.49607044 0.28764245 0.76770306
v -0.37798339 0.25547400 0.80462998
v -0.30091724 0.37244502 0.68409044
v -0.35040906 0.46731186 0.57836384
v -0.83673584 0.01051536 0.63757533
v -0.77704722 0.26048300 0.45170432
v -0.79540044 0.14427032 0.56488776
v -0.75512666 0.14526841 0.71668661
v -0.65452218 0.19726919 0.72943437
v -0.51625854 0.43540287 0.56887776
v -0.58497095 0.32865590 0.64464384
v -0.67451090 0.36007875 0.51463336
v -0.22274718 0.30902565 -0.78528863
v -0.36907342 0.38546407 -0.60776514
v -0.33455300 0.39600828 -0.69648916
v -0.33993930 0.24848802 -0.81633574
v -0.45312524 0.15424919 -0.75702631
v -0.56294566 0.47484291 -0.20117216
v -0.72697026 0.33776295 -0.36739162
v -0.64469624 0.42098427 -0.29523006
v -0.51653343 0.48408630 -0.33224139
v -0.45555654 0.44736734 -0.44380355
v -0.89397854 0.00000000 -0.61963093
v -0.63879311 0.11148956 -0.73567808
v -0.77675194 0.06007469 -0.69738966
v -0.84240872 0.09078112 -0.53319973
v -0.79949123 0.23217420 -0.46639529
v -0.52552903 0.37790698 -0.57599866
v -0.66366571 0.30413619 -0.52388293
v -0.58203799 0.21245562 -0.63865399
v 0.77904797 0.13738039 -0.79616392
v 0.59262317 0.08521818 -0.94237679
v 0.71010929 0.10257069 -0.88596469
v 0.66453630 0.22311911 -0.87502271
v 0.55626166 0.29186162 -0.91672730
v 0.14689952 0.16118941 -0.97457403
v 0.14098053 0.06798018 -1.10965478
v 0.15425980 0.05025040 -1.05328882
v 0.29391667 0.09486268 -0.95531780
v 0.41542125 0.00373521 -0.94103289
v 0.12578262 0.41899902 -0.96439588
v 0.39331263 0.32997125 -0.95282829
v 0.26534325 0.37916139 -0.97281224
v 0.12640683 0.31057912 -1.03914881
v 0.14559431 0.20633623 -1.08953416
v 0.44271225 0.08273669 -1.04440737
v 0.29577011 0.13825776 -1.07506394
v 0.43670097 0.22572955 -1.01210809
v 1.01181281 0.27823728 0.39194527
v 1.07732832 0.26269534 0.08152498
v 1.05980766 0.26706845 0.23722422
v 0.96994406 0.37075099 0.31304604
v 0.91666830 0.45504296 0.23464338
v 0.99032897 0.27207640 -0.42252856
v 0.90933198 0.45497403 -0.26950449
v 0.96025354 0.36536890 -0.34143707
v 1.03347933 0.27972722 -0.26421809
v 1.06671464 0.29330111 -0.10069659
v 0.68203515 0.68243003 -0.02068916
v 0.83945733 0.55669129 0.14680997
v 0.76594055 0.62496775 0.06297232
v 0.76967496 0.60955715 -0.09742049
v 0.84416848 0.53841919 -0.17411478
v 1.01130283 0.36661944 -0.00583232
v 0.93532711 0.45597059 -0.09768357
v 0.94349456 0.46405339 0.08390276
f 330 87 329
f 336 325 26
f 207 208 56
f 464 36 580
f 502 129 504
f 157 624 622
f 308 311 82
f 247 223 248
f 507 483 508
f 331 88 329
f 494 500 497
f 156 601 602
f 591 589 592
f 365 98 596
f 75 281 282
f 152 587 577
f 149 559 560
f 555 121 553
f 530 141 529
f 515 517 139
f 361 594 98
f 250 67 249
f 157 608 609
f 294 293 209
f 317 81 316
f 557 338 26
f 303 305 81
f 530 529 528
f 101 381 382
f 415 418 111
f 192 184 50
f 412 110 411
f 20 384 256
f 131 594 486
f 281 264 282
f 347 287 348
f 28 349 582
f 165 163 1
f 248 250 66
f 617 107 398
f 273 271 274
f 456 115 453
f 558 561 560
f 335 576 91
f 331 177 332
f 116 433 436
f 351 370 92
f 136 511 530
f 239 240 65
f 247 258 19
f 304 23 567
f 148 557 570
f 214 208 58
f 440 426 450
f 268 270 269
f 258 247 268
f 204 202 16
f 466 125 465
f 517 513 133
f 168 275 274
f 275 73 274
f 198 193 53
f 309 308 307
f 510 511 136
f 415 416 110
f 131 490 597
f 473 475 474
f 414 415 111
f 493 495 494
f 496 504 485
f 433 116 432
f 600 375 601
f 240 234 65
f 418 415 412
f 486 361 3
f 567 566 304
f 380 393 29
f 17 199 197
f 491 492 132
f 451 449 435
f 218 217 216
f 623 621 613
f 396 104 395
f 433 439 436
f 628 160 627
f 215 202 217
f 209 207 2
f 427 113 424
f 434 10 544
f 434 433 432
f 199 17 210
f 150 564 565
f 489 491 132
f 275 13 285
f 497 500 134
f 125 466 476
f 578 152 577
f 208 214 211
f 328 88 343
f 356 27 603
f 150 566 567
f 372 100 371
f 190 191 47
f 235 8 398
f 260 261 72
f 422 403 414
f 422 414 111
f 453 454 123
f 349 583 582
f 521 520 519
f 425 453 115
f 616 622 158
f 483 130 508
f 151 586 572
f 212 17 232
f 400 397 402
f 377 396 99
f 41 522 511
f 510 508 505
f 549 547 42
f 475 473 36
f 510 137 509
f 222 221 197
f 430 115 429
f 220 194 1
f 305 54 204
f 621 29 613
f 192 171 184
f 460 335 5
f 88 331 332
f 74 277 279
f 300 301 80
f 390 389 388
f 165 45 164
f 146 549 551
f 291 278 75
f 448 120 445
f 147 543 544
f 607 610 609
f 603 602 356
f 139 529 514
f 333 553 443
f 92 368 347
f 261 260 259
f 300 6 200
f 46 177 331
f 284 283 174
f 301 300 200
f 471 468 474
f 54 305 301
f 302 304 303
f 569 150 567
f 150 569 570
f 294 209 2
f 628 629 160
f 548 543 147
f 147 625 627
f 63 233 234
f 426 427 114
f 41 509 532
f 198 52 196
f 614 105 612
f 147 627 547
f 81 305 306
f 549 548 547
f 54 301 200
f 342 88 332
f 264 281 70
f 193 194 53
f 455 429 456
f 187 321 14
f 479 130 484
f 147 544 625
f 458 456 453
f 304 80 303
f 314 84 313
f 488 503 501
f 321 332 14
f 423 425 424
f 305 204 306
f 341 339 25
f 514 40 516
f 625 628 627
f 340 339 341
f 105 614 391
f 243 228 62
f 318 316 78
f 75 278 279
f 357 355 353
f 238 257 63
f 466 455 476
f 425 423 4
f 448 449 120
f 408 638 108
f 292 275 285
f 22 278 289
f 515 513 517
f 501 503 134
f 622 623 158
f 134 503 504
f 195 216 206
f 163 271 246
f 619 617 620
f 62 228 229
f 163 165 164
f 453 425 454
f 489 132 488
f 82 628 625
f 58 208 209
f 525 608 40
f 626 547 627
f 518 517 498
f 489 487 491
f 557 26 564
f 325 336 344
f 541 145 539
f 40 616 516
f 338 556 89
f 250 248 245
f 139 514 515
f 98 594 596
f 246 220 1
f 112 413 630
f 9 536 413
f 156 600 601
f 332 177 14
f 321 342 332
f 156 606 600
f 584 330 585
f 302 303 81
f 584 87 330
f 330 25 585
f 400 239 65
f 439 440 117
f 95 358 368
f 597 594 131
f 594 361 486
f 246 67 245
f 561 562 149
f 28 364 362
f 55 216 217
f 427 430 114
f 267 20 254
f 556 555 553
f 84 309 558
f 311 310 312
f 609 525 142
f 256 68 255
f 124 460 461
f 82 311 312
f 307 308 82
f 589 135 495
f 527 40 514
f 112 418 412
f 20 256 254
f 258 238 19
f 267 254 269
f 273 272 249
f 392 391 393
f 137 533 509
f 122 455 456
f 9 413 411
f 130 480 505
f 333 443 5
f 527 525 40
f 589 495 385
f 39 496 485
f 223 225 224
f 414 416 415
f 219 222 53
f 145 538 539
f 413 412 411
f 469 468 467
f 183 181 6
f 191 192 50
f 429 35 431
f 292 285 76
f 413 112 412
f 415 110 412
f 43 164 167
f 467 468 126
f 617 101 620
f 450 451 117
f 438 546 545
f 619 620 159
f 17 212 210
f 124 579 576
f 584 153 583
f 460 124 576
f 3 469 467
f 311 308 314
f 6 320 183
f 389 104 388
f 251 250 249
f 194 165 1
f 291 289 278
f 287 77 348
f 238 258 257
f 139 517 518
f 238 236 19
f 223 247 19
f 382 380 29
f 39 518 498
f 361 359 3
f 69 255 257
f 139 518 528
f 33 545 535
f 387 385 7
f 69 268 269
f 477 462 125
f 454 479 123
f 121 555 447
f 451 435 117
f 454 425 4
f 233 252 8
f 124 463 464
f 69 258 268
f 168 167 166
f 583 153 582
f 384 394 102
f 138 512 513
f 57 210 211
f 254 256 255
f 607 609 142
f 324 319 86
f 289 291 76
f 291 292 76
f 384 102 383
f 422 421 420
f 221 17 197
f 383 102 381
f 376 377 99
f 99 373 374
f 386 105 392
f 438 33 440
f 90 341 343
f 281 75 279
f 574 571 96
f 628 82 312
f 221 222 59
f 127 471 474
f 595 605 603
f 551 538 145
f 334 91 340
f 322 324 85
f 305 303 301
f 18 239 399
f 306 204 16
f 199 198 197
f 166 190 180
f 303 80 301
f 267 266 265
f 626 42 547
f 16 215 213
f 349 351 350
f 295 16 213
f 68 379 252
f 250 251 66
f 627 160 626
f 383 68 256
f 343 88 342
f 507 508 136
f 202 215 16
f 197 198 53
f 254 69 269
f 603 605 156
f 418 419 111
f 384 383 256
f 455 122 476
f 203 204 54
f 556 557 148
f 255 68 253
f 313 84 560
f 25 328 341
f 254 255 69
f 603 156 602
f 581 584 583
f 630 632 112
f 163 246 1
f 246 245 220
f 432 116 558
f 499 591 590
f 320 563 86
f 345 93 350
f 306 16 295
f 346 93 345
f 562 568 149
f 604 605 155
f 154 592 593
f 545 552 535
f 511 522 530
f 574 573 571
f 566 150 565
f 361 98 360
f 67 271 273
f 234 235 65
f 208 211 56
f 574 151 573
f 251 270 66
f 398 8 378
f 213 215 214
f 438 440 439
f 315 314 313
f 263 71 262
f 20 373 384
f 496 134 504
f 329 88 328
f 81 306 316
f 555 556 148
f 592 589 103
f 617 619 107
f 227 207 56
f 571 359 96
f 446 466 465
f 206 216 55
f 359 571 469
f 568 148 570
f 34 437 435
f 28 351 349
f 21 272 282
f 113 423 424
f 490 489 488
f 379 68 383
f 210 212 211
f 80 563 300
f 351 92 350
f 326 346 12
f 83 317 318
f 555 148 554
f 212 231 56
f 218 57 217
f 271 67 246
f 195 196 52
f 270 268 66
f 390 592 103
f 148 568 554
f 495 493 7
f 592 390 593
f 357 95 355
f 574 575 151
f 452 120 451
f 154 591 592
f 587 585 577
f 395 394 396
f 93 349 350
f 610 416 611
f 166 44 190
f 315 23 302
f 315 302 317
f 268 247 66
f 606 154 593
f 396 394 99
f 211 212 56
f 370 369 368
f 235 397 65
f 280 278 22
f 83 315 317
f 575 588 151
f 74 279 280
f 385 495 7
f 63 257 253
f 397 235 398
f 214 58 213
f 220 219 194
f 546 146 545
f 236 225 19
f 599 94 602
f 235 233 8
f 102 394 395
f 611 416 32
f 225 223 19
f 139 528 529
f 231 62 229
f 419 406 421
f 451 450 452
f 49 182 185
f 402 397 107
f 52 199 218
f 416 610 110
f 225 236 244
f 107 397 398
f 68 252 253
f 322 85 321
f 182 181 183
f 118 438 439
f 546 438 118
f 348 77 345
f 543 546 118
f 231 212 232
f 610 611 157
f 33 438 545
f 385 386 103
f 479 480 130
f 169 195 15
f 93 583 349
f 15 195 206
f 190 44 192
f 247 248 66
f 146 552 545
f 248 60 245
f 570 557 564
f 274 271 43
f 63 253 233
f 272 21 249
f 507 528 518
f 67 273 249
f 487 467 126
f 196 195 169
f 624 159 623
f 134 496 497
f 132 503 488
f 104 393 395
f 556 553 89
f 355 356 94
f 258 69 257
f 229 61 227
f 56 231 227
f 460 576 335
f 463 124 461
f 394 373 99
f 29 393 391
f 67 250 245
f 193 198 196
f 462 36 464
f 144 633 630
f 141 526 527
f 517 133 498
f 536 144 630
f 100 372 599
f 144 536 537
f 22 289 287
f 578 579 152
f 579 578 576
f 189 188 187
f 60 223 224
f 92 348 350
f 555 554 447
f 396 377 388
f 194 193 165
f 413 536 630
f 372 352 599
f 377 376 375
f 348 345 350
f 105 386 387
f 240 237 234
f 463 462 464
f 135 500 494
f 45 196 169
f 512 612 387
f 245 60 220
f 429 115 456
f 223 60 248
f 288 289 76
f 525 526 142
f 100 599 601
f 613 29 391
f 526 523 520
f 341 328 343
f 631 641 639
f 264 21 282
f 266 72 265
f 106 402 403
f 73 273 274
f 186 206 205
f 381 379 383
f 52 216 195
f 410 18 399
f 290 272 73
f 72 371 374
f 526 525 527
f 115 430 424
f 498 497 496
f 621 382 29
f 543 118 434
f 214 215 57
f 522 141 530
f 511 510 509
f 352 94 599
f 493 512 7
f 90 340 341
f 169 171 170
f 605 604 606
f 219 60 224
f 104 389 392
f 359 469 3
f 186 49 185
f 222 219 224
f 166 167 44
f 428 427 426
f 523 522 524
f 129 502 481
f 50 185 188
f 164 45 170
f 425 115 424
f 33 428 426
f 427 428 113
f 94 356 602
f 515 138 513
f 114 431 452
f 237 236 238
f 215 217 57
f 95 354 355
f 220 60 219
f 515 514 516
f 183 320 319
f 222 197 53
f 559 569 567
f 300 320 6
f 435 436 117
f 96 360 363
f 640 642 641
f 242 243 62
f 140 537 519
f 508 130 505
f 420 410 399
f 537 539 144
f 317 316 318
f 426 114 450
f 186 15 206
f 311 83 310
f 625 544 307
f 544 10 307
f 168 43 167
f 185 182 188
f 369 354 95
f 44 171 192
f 605 606 156
f 548 549 146
f 100 601 375
f 149 568 569
f 381 380 382
f 455 466 35
f 480 479 454
f 543 548 546
f 493 133 513
f 492 472 37
f 477 125 476
f 491 487 126
f 337 336 338
f 588 153 587
f 576 578 91
f 633 161 632
f 96 359 360
f 39 485 483
f 101 617 378
f 193 45 165
f 163 164 43
f 618 624 611
f 507 136 528
f 561 149 560
f 641 162 639
f 116 561 558
f 494 133 493
f 253 252 233
f 63 237 238
f 392 393 104
f 440 450 117
f 93 581 583
f 386 385 387
f 120 449 451
f 421 422 111
f 486 3 467
f 302 81 317
f 633 632 630
f 462 475 36
f 376 99 374
f 489 490 131
f 447 449 448
f 387 612 105
f 106 420 399
f 173 46 172
f 492 491 472
f 316 306 295
f 22 287 347
f 109 410 420
f 507 39 483
f 559 23 313
f 214 57 211
f 196 45 193
f 10 434 432
f 422 106 403
f 626 160 640
f 487 486 467
f 542 41 532
f 400 106 399
f 444 120 452
f 198 199 52
f 475 127 474
f 621 620 382
f 621 623 159
f 450 114 452
f 92 347 348
f 376 100 375
f 434 118 433
f 503 132 502
f 337 90 336
f 537 536 519
f 395 393 380
f 201 54 200
f 171 44 170
f 355 94 353
f 58 296 213
f 422 420 106
f 595 365 596
f 569 568 570
f 523 140 520
f 114 430 431
f 218 210 57
f 304 566 80
f 639 162 638
f 261 371 72
f 548 147 547
f 498 133 497
f 150 570 564
f 222 224 59
f 142 526 520
f 437 436 435
f 141 522 523
f 137 510 505
f 173 179 176
f 559 149 569
f 121 447 448
f 563 320 300
f 102 395 380
f 257 255 253
f 642 162 641
f 83 311 314
f 216 52 218
f 512 493 513
f 23 304 302
f 91 339 340
f 512 138 612
f 159 620 621
f 218 199 210
f 364 28 575
f 83 318 310
f 168 274 43
f 136 530 528
f 140 523 524
f 495 135 494
f 233 235 234
f 566 563 80
f 25 339 577
f 277 74 276
f 475 462 477
f 133 494 497
f 436 437 116
f 389 386 392
f 548 146 546
f 441 460 5
f 10 309 307
f 65 397 400
f 543 434 544
f 640 641 161
f 272 273 73
f 581 93 346
f 419 421 111
f 319 320 86
f 180 179 178
f 127 475 477
f 231 229 227
f 337 334 340
f 136 508 510
f 308 309 84
f 237 63 234
f 447 554 34
f 252 379 378
f 315 83 314
f 608 622 616
f 338 336 26
f 337 338 89
f 13 275 168
f 209 208 207
f 436 439 117
f 628 312 629
f 360 366 363
f 364 574 96
f 359 361 360
f 466 446 35
f 500 501 134
f 406 109 421
f 135 589 591
f 601 599 602
f 340 90 337
f 481 492 37
f 522 41 524
f 78 316 295
f 131 486 487
f 403 32 414
f 634 626 640
f 151 572 573
f 515 516 138
f 8 252 378
f 265 72 374
f 9 521 519
f 538 549 42
f 368 358 347
f 588 587 586
f 458 453 123
f 589 385 103
f 502 492 481
f 32 416 414
f 430 427 424
f 153 585 587
f 540 144 539
f 370 368 92
f 209 293 58
f 428 33 535
f 326 581 346
f 625 307 82
f 575 28 582
f 6 181 200
f 421 109 420
f 553 121 443
f 160 642 640
f 153 584 585
f 309 432 558
f 334 337 89
f 23 315 313
f 271 163 43
f 296 295 213
f 39 498 496
f 118 439 433
f 531 113 534
f 293 296 58
f 28 362 351
f 489 131 487
f 431 444 452
f 84 558 560
f 98 366 360
f 45 169 170
f 379 101 378
f 462 463 125
f 308 84 314
f 10 432 309
f 299 24 310
f 132 492 502
f 512 387 7
f 639 638 408
f 565 323 86
f 59 244 242
f 106 400 402
f 440 33 426
f 566 565 563
f 617 398 378
f 224 225 59
f 410 109 409
f 239 400 399
f 194 219 53
f 358 22 347
f 610 157 609
f 27 595 603
f 479 484 482
f 142 520 521
f 585 25 577
f 339 578 577
f 408 407 406
f 407 109 406
f 31 408 406
f 407 408 108
f 31 639 408
f 419 31 406
f 608 616 40
f 430 429 431
f 455 35 429
f 35 444 431
f 188 51 187
f 188 182 51
f 51 322 187
f 322 51 319
f 51 182 183
f 319 51 183
f 187 322 321
f 322 319 324
f 381 101 379
f 405 407 108
f 404 405 108
f 286 285 178
f 407 405 409
f 109 407 409
f 191 175 47
f 167 164 170
f 50 184 185
f 44 167 170
f 64 244 236
f 243 244 64
f 50 188 189
f 541 542 145
f 442 445 119
f 339 91 578
f 445 446 119
f 624 623 622
f 611 624 157
f 523 526 141
f 141 527 529
f 527 514 529
f 445 120 444
f 446 445 444
f 35 446 444
f 613 614 158
f 158 614 615
f 623 613 158
f 614 613 391
f 614 612 615
f 371 376 374
f 100 376 371
f 479 482 123
f 373 394 384
f 540 42 634
f 633 540 634
f 538 42 540
f 633 634 161
f 161 634 640
f 42 626 634
f 540 633 144
f 557 556 338
f 553 333 89
f 262 21 264
f 251 21 262
f 5 335 333
f 270 251 262
f 21 251 249
f 600 593 30
f 606 593 600
f 600 30 375
f 593 390 30
f 30 377 375
f 390 388 30
f 30 388 377
f 228 243 241
f 470 478 459
f 470 127 478
f 127 477 478
f 184 186 185
f 478 477 476
f 122 478 476
f 357 74 280
f 518 39 507
f 344 342 85
f 325 344 85
f 342 344 343
f 85 342 321
f 344 90 343
f 90 344 336
f 482 129 481
f 482 481 457
f 482 457 123
f 481 37 457
f 449 447 34
f 435 449 34
f 470 472 471
f 472 470 37
f 470 471 127
f 472 126 471
f 126 468 471
f 470 459 37
f 491 126 472
f 504 129 485
f 221 59 242
f 125 463 465
f 437 34 562
f 561 437 562
f 554 568 562
f 34 554 562
f 437 561 116
f 390 103 389
f 103 386 389
f 392 105 391
f 572 586 580
f 572 580 36
f 586 152 580
f 473 572 36
f 244 243 242
f 225 244 59
f 64 240 241
f 240 239 241
f 237 240 64
f 243 64 241
f 236 237 64
f 411 607 521
f 9 411 521
f 110 607 411
f 607 142 521
f 610 607 110
f 171 15 184
f 171 169 15
f 15 186 184
f 87 584 581
f 153 588 582
f 588 575 582
f 381 102 380
f 573 572 473
f 468 469 128
f 474 468 128
f 469 571 128
f 571 573 128
f 573 473 128
f 473 474 128
f 564 323 565
f 26 323 564
f 323 324 86
f 325 323 26
f 325 324 323
f 563 565 86
f 324 325 85
f 410 230 18
f 230 228 18
f 18 228 241
f 18 241 239
f 401 619 618
f 401 402 107
f 403 402 401
f 619 159 618
f 401 618 32
f 619 401 107
f 403 401 32
f 618 611 32
f 159 624 618
f 478 122 459
f 122 458 459
f 37 459 457
f 459 458 457
f 122 456 458
f 457 458 123
f 191 190 192
f 485 129 484
f 129 482 484
f 483 485 484
f 130 483 484
f 189 187 14
f 191 50 189
f 191 189 175
f 189 14 175
f 14 177 175
f 499 501 500
f 501 499 38
f 38 499 590
f 135 499 500
f 488 501 38
f 499 135 591
f 480 454 4
f 284 12 346
f 4 423 506
f 480 4 506
f 423 531 506
f 480 506 505
f 531 137 506
f 506 137 505
f 365 366 98
f 71 270 262
f 270 71 269
f 71 267 269
f 335 334 333
f 333 334 89
f 334 335 91
f 536 9 519
f 465 463 461
f 537 140 541
f 520 140 519
f 119 446 465
f 465 461 119
f 461 441 119
f 460 441 461
f 176 46 173
f 299 297 24
f 71 263 266
f 263 260 266
f 260 72 266
f 263 70 260
f 205 201 49
f 201 181 49
f 186 205 49
f 181 201 200
f 181 182 49
f 284 77 283
f 586 587 152
f 588 586 151
f 20 267 265
f 266 267 71
f 31 417 631
f 631 417 632
f 31 631 639
f 417 31 419
f 641 631 161
f 417 112 632
f 161 631 632
f 418 417 419
f 417 418 112
f 284 345 77
f 542 550 145
f 542 541 524
f 284 174 12
f 48 174 283
f 373 20 265
f 373 265 374
f 609 608 525
f 608 157 622
f 560 559 313
f 636 637 162
f 541 140 524
f 41 542 524
f 358 357 280
f 70 263 264
f 263 262 264
f 176 177 46
f 174 48 173
f 174 173 172
f 538 551 549
f 538 540 539
f 537 541 539
f 232 221 242
f 17 221 232
f 232 242 62
f 231 232 62
f 203 205 55
f 203 55 202
f 201 205 203
f 202 55 217
f 205 206 55
f 204 203 202
f 73 275 292
f 292 290 73
f 272 290 282
f 290 292 291
f 75 290 291
f 290 75 282
f 70 277 259
f 277 70 281
f 277 281 279
f 260 70 259
f 12 174 172
f 104 396 388
f 367 27 354
f 365 27 367
f 354 27 356
f 365 367 366
f 595 27 365
f 318 299 310
f 155 596 597
f 155 597 598
f 596 594 597
f 595 596 155
f 605 595 155
f 180 47 179
f 180 190 47
f 352 372 11
f 11 372 261
f 312 310 24
f 642 636 162
f 636 297 637
f 367 369 97
f 366 367 97
f 369 367 354
f 369 370 97
f 580 579 464
f 580 152 579
f 579 124 464
f 61 230 409
f 230 410 409
f 230 61 229
f 230 229 228
f 76 285 286
f 353 352 276
f 74 353 276
f 288 76 286
f 288 286 283
f 289 288 287
f 203 54 201
f 287 288 77
f 77 288 283
f 286 48 283
f 531 423 113
f 276 11 259
f 11 261 259
f 277 276 259
f 616 158 615
f 516 616 615
f 138 516 615
f 138 615 612
f 509 533 532
f 503 502 504
f 635 79 294
f 635 294 404
f 635 637 79
f 637 635 638
f 638 635 108
f 635 404 108
f 226 61 405
f 61 226 227
f 405 61 409
f 227 226 207
f 48 178 179
f 48 286 178
f 173 48 179
f 534 143 533
f 534 535 143
f 531 534 533
f 533 143 532
f 137 531 533
f 261 372 371
f 13 180 178
f 285 13 178
f 180 13 166
f 13 168 166
f 346 345 284
f 331 327 46
f 46 327 172
f 172 327 326
f 382 620 101
f 442 121 448
f 443 121 442
f 2 226 404
f 294 2 404
f 404 226 405
f 207 226 2
f 550 551 145
f 552 146 551
f 143 550 532
f 552 550 143
f 330 329 328
f 24 636 629
f 94 352 353
f 352 11 276
f 113 428 534
f 428 535 534
f 509 41 511
f 535 552 143
f 550 552 551
f 550 542 532
f 369 95 368
f 326 327 87
f 87 327 329
f 327 331 329
f 581 326 87
f 293 79 298
f 79 297 298
f 296 298 78
f 79 293 294
f 296 293 298
f 598 490 38
f 358 280 22
f 280 279 278
f 357 358 95
f 74 357 353
f 330 328 25
f 567 23 559
f 590 598 38
f 590 604 598
f 598 604 155
f 604 590 154
f 590 591 154
f 604 154 606
f 297 299 298
f 299 318 78
f 298 299 78
f 355 354 356
f 629 636 642
f 312 24 629
f 629 642 160
f 370 362 97
f 362 363 97
f 363 366 97
f 364 363 362
f 362 370 351
f 96 363 364
f 297 636 24
f 162 637 638
f 637 297 79
f 490 488 38
f 598 597 490
f 441 442 119
f 443 442 441
f 443 441 5
f 442 448 445
f 296 78 295
f 326 12 172
f 575 574 364
f 47 175 176
f 175 177 176
f 47 176 179
