# FEM surface export ¡ª frame 818
# Vertices: 642  Faces: 1280
v -0.51843882 0.83414018 -0.02675768
v 0.49391487 0.88484854 -0.02003132
v -0.48271558 0.75264555 -0.00071318
v 0.57007724 0.63578582 0.01009221
v 0.04369290 0.34525898 0.83960074
v -0.04521673 0.58645332 0.85082066
v -0.01034964 0.41383541 -0.80206031
v 0.00395376 0.53173137 -0.86933601
v 0.91559505 0.10161009 -0.55971354
v 0.88262784 0.14531752 0.54501587
v -0.90445215 0.10349080 -0.55253845
v -0.89564210 0.07050613 0.55155730
v -0.81497967 0.49462456 0.30650166
v -0.53908414 0.33444738 0.82143593
v -0.34584641 0.81277955 0.48087212
v 0.25445715 0.86214465 0.49473751
v -0.02515773 0.97771329 -0.03244611
v 0.28929585 0.80008358 -0.51195174
v -0.31679276 0.76930946 -0.51997757
v -0.50827861 0.33012056 -0.82869798
v -0.81254387 0.52870321 -0.31236780
v -1.07687914 0.12648295 -0.02510863
v 0.49101007 0.41512808 0.83998775
v 0.80257964 0.61332482 0.32316166
v -0.50013977 0.18983740 0.81386840
v -0.00077800 0.08018079 1.04793787
v -0.82040739 0.36821803 -0.29737785
v -0.81630200 0.35855570 0.31551436
v -0.00502278 0.06874636 -1.08317327
v -0.54091221 0.16957754 -0.79352427
v 0.81288165 0.57201445 -0.32640922
v 0.52861363 0.34138095 -0.83991271
v 0.81397784 0.21506399 0.27512255
v 0.55158222 0.12760894 0.80049384
v 0.37530708 0.58581233 0.53846198
v -0.28567618 0.67629468 0.57661945
v 0.02847502 0.56753689 0.08356913
v -0.24792755 0.51907963 -0.43858647
v 0.32607073 0.67179209 -0.51704621
v 0.48321122 0.20973505 -0.82108116
v 0.80345309 0.34043255 -0.33191052
v 1.06496453 0.15091567 -0.00647993
v -0.69580311 0.68647718 0.15957308
v -0.60174191 0.68754977 0.40867803
v -0.43340167 0.84753078 0.22565979
v -0.75140679 0.21751349 0.72751939
v -0.70827067 0.43028560 0.57801688
v -0.89432281 0.27625912 0.44884205
v -0.20629546 0.71347725 0.69252276
v -0.46505597 0.60782760 0.68087924
v -0.30724850 0.48494062 0.86815614
v -0.18154894 0.93361551 0.23789512
v -0.26927692 0.93615949 -0.04554697
v 0.11489124 0.74009377 0.71304750
v -0.04635170 0.84971219 0.52136427
v 0.24365237 0.97542715 -0.01455464
v 0.11131044 0.95600176 0.24989137
v 0.38985425 0.90201533 0.24281240
v -0.17789567 0.91224581 -0.29740259
v -0.44095650 0.82699484 -0.28742924
v 0.40034786 0.87642515 -0.28514200
v 0.14336228 0.93410391 -0.28568849
v -0.15884849 0.65884686 -0.70123959
v -0.00982626 0.81525588 -0.54140735
v 0.15717238 0.67444789 -0.71319538
v -0.58841944 0.67358625 -0.44064349
v -0.68101239 0.68344676 -0.16718829
v -0.26847911 0.44409448 -0.86867672
v -0.42691317 0.57784665 -0.69896370
v -0.88584989 0.31251344 -0.46638215
v -0.71206331 0.45446101 -0.60912132
v -0.71757984 0.22285844 -0.73336053
v -0.84600592 0.54380065 -0.00102122
v -1.03335798 0.06983670 -0.27351063
v -0.97236818 0.33817294 -0.19353786
v -0.97234625 0.29905966 0.16488886
v -1.00181699 0.09896056 0.29196504
v 0.54813969 0.76674134 0.41993245
v 0.66560751 0.76461875 0.14286715
v 0.23796313 0.51110077 0.87663919
v 0.38244858 0.67240232 0.69175446
v 0.88655335 0.38767138 0.47127235
v 0.68173093 0.53439009 0.60856956
v 0.73976731 0.29164052 0.72478235
v -0.29948643 0.24969667 0.99758935
v -0.02627440 0.35581854 0.98511821
v -0.73806119 0.09093177 0.71627474
v -0.56334949 0.09750209 0.90190828
v 0.02333578 0.11012661 0.95989251
v -0.29334885 0.01326086 0.97850627
v -0.23736347 0.24843213 0.89565229
v -0.99560761 0.17209277 0.18762068
v -0.87817675 0.13732809 0.44525990
v -0.89098406 0.15337579 -0.39228427
v -0.97983974 0.14971425 -0.14398971
v -0.66213971 0.55308574 0.18669042
v -0.84590101 0.39844918 0.02159354
v -0.66617489 0.55803585 -0.14795314
v -0.56304175 0.06308578 -0.88214183
v -0.77190709 0.03845955 -0.70754766
v -0.00426112 0.30071357 -1.00291264
v -0.27470595 0.19347309 -1.00122154
v -0.29312429 0.34997687 -0.84281075
v -0.28589430 0.11956014 -0.97537696
v 0.00557223 0.16425815 -0.94195551
v 0.42284861 0.60190433 -0.69715703
v 0.27942771 0.44904450 -0.88588148
v 0.66731846 0.75492853 -0.18049765
v 0.56509531 0.70926595 -0.43685666
v 0.73886377 0.23980393 -0.74653769
v 0.70130563 0.47155759 -0.60616374
v 0.87730372 0.34885255 -0.45237976
v 0.69383717 0.44691622 0.15716898
v 0.61444163 0.44568619 0.40111560
v 0.46983105 0.60670733 0.26594123
v 0.71519119 0.00473594 0.71367061
v 0.71312672 0.16589773 0.53006297
v 0.86816913 0.11609727 0.39074436
v 0.22800954 0.48784021 0.69559282
v 0.46102574 0.36237079 0.68349445
v 0.27969873 0.22752303 0.87132716
v 0.21486379 0.72266406 0.32226324
v 0.28356665 0.55002230 0.02064399
v -0.11923968 0.50677472 0.71634716
v 0.03240470 0.67483914 0.56232363
v -0.24089494 0.66921645 0.07485352
v -0.11803711 0.78564805 0.29506722
v -0.38617289 0.77328646 0.30255094
v 0.18245345 0.63347906 -0.25324714
v 0.45398888 0.68409342 -0.25541490
v -0.38739216 0.61252159 -0.24279374
v -0.06440376 0.59604305 -0.18262257
v 0.13738322 0.58528668 -0.71440041
v 0.01190541 0.75805300 -0.51533031
v -0.17355295 0.61196506 -0.68299955
v 0.59101290 0.56489640 -0.37902313
v 0.70074582 0.50028741 -0.13267896
v 0.22068968 0.28539973 -0.86963928
v 0.39786655 0.46927100 -0.67154771
v 0.89478195 0.10633048 -0.45321760
v 0.69918215 0.28826681 -0.60522783
v 0.73532295 0.03028279 -0.73324174
v 0.84894478 0.26628041 -0.01750986
v 1.00841761 0.13104855 -0.29786637
v 0.94814140 0.03487316 -0.23661579
v 0.96944058 0.00000000 0.12866007
v 1.03125632 0.16077986 0.29409274
v 0.31204742 0.00086707 0.99728739
v 0.57305789 0.15397209 0.92302233
v 0.25955722 0.25216302 0.98658234
v -0.55127281 0.60228306 0.43676677
v -0.38403249 0.38830101 0.69168240
v -0.68318951 0.26742837 0.57315654
v -0.42863065 0.44484323 -0.69756252
v -0.56226271 0.51110625 -0.39246321
v -0.71013856 0.26632512 -0.57417172
v 0.56388342 0.09509377 -0.89422405
v 0.24310806 0.00411851 -0.95101708
v 0.28365859 0.23321660 -1.01722300
v 0.97547072 0.39515674 0.16802497
v 0.96058083 0.39001834 -0.17512748
v 0.83657628 0.62707877 -0.00842511
v -0.61306536 0.76816183 0.06809002
v -0.57257611 0.78260565 0.18914481
v -0.48213160 0.84546131 0.09668792
v -0.72310358 0.58783472 0.36515608
v -0.65812409 0.68613774 0.27931643
v -0.77123421 0.59110510 0.23157513
v -0.38828814 0.84201115 0.35194954
v -0.52701664 0.77008367 0.31529501
v -0.47320333 0.76069492 0.43756542
v -0.83017582 0.13759539 0.63872129
v -0.84773850 0.23607996 0.58792925
v -0.91403747 0.15998778 0.48546636
v -0.64192319 0.40121275 0.72615784
v -0.73508745 0.31371635 0.66591865
v -0.64445198 0.27763259 0.77583683
v -0.84900665 0.38141257 0.38092628
v -0.80481595 0.34918892 0.53114718
v -0.77172798 0.46271724 0.45650664
v -0.12317573 0.65078712 0.78443503
v -0.26516753 0.60912299 0.79589027
v -0.18051997 0.54471952 0.86412948
v -0.41574588 0.71521974 0.58554620
v -0.34400859 0.65067810 0.69903690
v -0.28870383 0.75418735 0.59148896
v -0.42109981 0.39739308 0.85729015
v -0.40314406 0.53878319 0.79173005
v -0.50800723 0.46827367 0.76761413
v -0.66008705 0.56482571 0.50491399
v -0.58350158 0.52079827 0.64633787
v -0.53896922 0.65266907 0.55231059
v -0.35855550 0.90325582 0.09345292
v -0.39385584 0.89886242 -0.04153889
v -0.25632852 0.88303620 0.36651865
v -0.30602148 0.90284544 0.23734792
v -0.15237889 0.96546942 -0.04271905
v -0.23470005 0.94278592 0.09459751
v -0.11156870 0.96332455 0.09487501
v 0.04221623 0.66548699 0.78651202
v -0.05464175 0.73745912 0.70707566
v 0.10787337 0.85627538 0.51547116
v 0.02465276 0.80684942 0.61640871
v 0.18087471 0.79809755 0.61192745
v -0.13222525 0.79503250 0.61199504
v -0.20065698 0.83520198 0.50570357
v 0.37327617 0.93632424 -0.01418735
v 0.32073560 0.94355148 0.11356974
v 0.45109707 0.89841843 0.11470813
v 0.03813837 0.98379457 0.11182162
v 0.17671478 0.97748220 0.11696886
v 0.10447785 0.98054147 -0.02379632
v 0.32736012 0.89435661 0.36745963
v 0.25028342 0.94634318 0.24325737
v 0.19446054 0.92374426 0.37533838
v -0.11535312 0.89710742 0.38561672
v 0.04197000 0.91036290 0.39310321
v -0.04070437 0.94432330 0.24837680
v -0.35873568 0.89889342 -0.17295343
v -0.48354030 0.84578472 -0.15997776
v -0.09377168 0.96334773 -0.17048268
v -0.22465004 0.93663770 -0.18077919
v -0.38596234 0.80202854 -0.40817723
v -0.31270623 0.87335551 -0.29857528
v -0.24882294 0.84412253 -0.41731462
v 0.44969776 0.88879055 -0.15531120
v 0.32604620 0.93269384 -0.14893301
v 0.21529983 0.87435865 -0.41001934
v 0.27126020 0.91024303 -0.28711653
v 0.34398162 0.84518260 -0.40391672
v 0.19630951 0.96181828 -0.15275177
v 0.05781612 0.97018313 -0.16551338
v -0.07336961 0.60073417 -0.79295993
v 0.00597449 0.67842758 -0.72261524
v 0.09956789 0.60529673 -0.79850763
v -0.15990449 0.80292368 -0.53808469
v -0.08392505 0.74338096 -0.63263041
v -0.23849635 0.72126549 -0.61349499
v 0.22247316 0.74108702 -0.61829627
v 0.07249311 0.74713379 -0.64007908
v 0.14057900 0.81003928 -0.53720933
v -0.01599111 0.93526489 -0.30140719
v 0.07025922 0.88487887 -0.42127571
v -0.09573507 0.88015437 -0.42444098
v -0.57455957 0.77274311 -0.23289806
v -0.60702485 0.76752567 -0.09505895
v -0.45583218 0.73126185 -0.48966599
v -0.51519185 0.75671846 -0.36636797
v -0.74901050 0.61811894 -0.24242523
v -0.64198369 0.69011354 -0.31008288
v -0.71172833 0.60555351 -0.38802183
v -0.14013581 0.49756610 -0.88025278
v -0.21392296 0.56789798 -0.79656857
v -0.47581059 0.45606363 -0.77576029
v -0.36131892 0.51538944 -0.79944843
v -0.38202220 0.38395032 -0.86424804
v -0.29447478 0.61321449 -0.71522558
v -0.37227890 0.66960800 -0.61466986
v -0.91087908 0.17593749 -0.51024145
v -0.82609320 0.26337686 -0.60978800
v -0.81683183 0.14734243 -0.65530974
v -0.77011096 0.49680868 -0.47711501
v -0.81155658 0.37866682 -0.55315888
v -0.86159074 0.42545041 -0.38670081
v -0.61896276 0.26974696 -0.78238875
v -0.72630453 0.34126109 -0.68503916
v -0.62529820 0.39225662 -0.73134923
v -0.52004600 0.62817371 -0.58051318
v -0.57580024 0.51370698 -0.67002219
v -0.64465481 0.57234901 -0.53620213
v -0.69495487 0.69637150 -0.00350182
v -0.83311510 0.54184908 -0.16450112
v -0.77051115 0.61553031 -0.09075961
v -0.77606249 0.61236310 0.08352881
v -0.84647799 0.51320601 0.14887945
v -0.98361152 0.08105683 -0.42134285
v -0.98305517 0.20140673 -0.39062023
v -1.03303468 0.24580264 -0.10232107
v -1.03637040 0.22438507 -0.25479957
v -1.05101132 0.11158869 -0.16003992
v -0.94345319 0.32889801 -0.33334664
v -0.89769232 0.42823100 -0.23680344
v -0.95608193 0.15426151 0.36994275
v -0.97340977 0.04382185 0.42745450
v -0.89834249 0.39043713 0.24318267
v -0.92774552 0.27447546 0.30951169
v -1.03330886 0.11298042 0.13531183
v -0.99620908 0.18797021 0.21745342
v -1.02112293 0.21785146 0.06764343
v -0.90913320 0.45011514 -0.08469260
v -0.98037201 0.34663117 -0.01650062
v -0.92814940 0.42237192 0.07543080
v 0.53465343 0.85249704 0.20052576
v 0.58488655 0.83597302 0.06395334
v 0.40801996 0.82397115 0.45630983
v 0.47220039 0.84481734 0.33165008
v 0.73694241 0.69435042 0.23066707
v 0.61342472 0.77702236 0.28585729
v 0.68239599 0.69685811 0.37340432
v 0.09987294 0.54884702 0.87986237
v 0.18668689 0.63537401 0.80767226
v 0.44668722 0.55436945 0.77959222
v 0.32787040 0.59022325 0.79656428
v 0.36994523 0.45175514 0.86095440
v 0.25606757 0.70828724 0.70953947
v 0.32029957 0.78145927 0.59252638
v 0.89590770 0.26754656 0.51435876
v 0.80989057 0.33317313 0.60187465
v 0.82441002 0.20349720 0.64197254
v 0.74936169 0.57967180 0.46839085
v 0.79586083 0.46525481 0.54353952
v 0.85023755 0.50444162 0.39979038
v 0.61710805 0.35318688 0.78405094
v 0.70744354 0.41679376 0.66716176
v 0.58840245 0.47533014 0.73506200
v 0.47549739 0.72682720 0.56602854
v 0.53612345 0.60455227 0.65973306
v 0.61789256 0.66085017 0.52256876
v -0.16888702 0.41643506 0.92912978
v -0.04121148 0.47564065 0.92413485
v -0.43241537 0.28845820 0.91281831
v -0.30495378 0.35835823 0.92863256
v -0.00429678 0.20698828 1.02361774
v -0.16061880 0.30343035 0.99069208
v -0.15173961 0.18195854 1.02263296
v -0.82486808 0.00000000 0.66046166
v -0.77042568 0.03772528 0.73621297
v -0.55332917 0.05232870 0.83999771
v -0.67653722 0.01856879 0.82302982
v -0.62076682 0.14135264 0.73581964
v -0.66852570 0.15152183 0.80314451
v -0.56617618 0.19612715 0.86660880
v 0.03137687 0.21726765 0.91032362
v -0.11692149 0.21242945 0.94272465
v -0.10339674 0.27587879 0.86372834
v -0.16212280 0.04141916 1.06413198
v -0.12365285 0.04987445 0.96081269
v -0.00466379 0.00038580 1.07756257
v -0.34823018 0.22295608 0.84475803
v -0.24143684 0.12212504 0.94058830
v -0.38847151 0.12543014 0.91494793
v -0.43814123 0.15120758 0.94926441
v -0.44396454 0.00566244 0.96526164
v -0.30431885 0.11848272 1.00483465
v -0.98623645 0.03488195 0.35028568
v -0.91537356 0.00003896 0.48092762
v -1.04677570 0.12150887 0.08706036
v -1.03080416 0.07785221 0.20766376
v -0.86038023 0.25576907 0.38729370
v -0.94806266 0.15544809 0.33873618
v -0.93009007 0.23881786 0.24580927
v -0.94636512 0.08145204 -0.46989185
v -0.98898476 0.10687491 -0.33845192
v -0.88807857 0.27191079 -0.21696997
v -0.95366788 0.20646904 -0.27611926
v -0.84218138 0.25982705 -0.33472332
v -1.03306830 0.09229944 -0.19926387
v -1.06267357 0.07112814 -0.08825628
v -0.56384456 0.66260701 0.08653948
v -0.66861552 0.57421941 0.02898206
v -0.58532995 0.65716678 -0.06332152
v -0.83116132 0.36801368 0.14044483
v -0.75809938 0.48303792 0.09949200
v -0.76125979 0.48603156 0.24706215
v -0.74868464 0.44501907 -0.21365474
v -0.75263578 0.48974496 -0.06845254
v -0.83811510 0.40139297 -0.14689599
v -0.97715682 0.16737913 0.01419659
v -0.90972483 0.28421760 -0.08194329
v -0.92651200 0.25499839 0.08737011
v -0.75951970 0.07921769 -0.72439831
v -0.85577136 0.01065805 -0.60646701
v -0.53234643 0.19229630 -0.86356425
v -0.63465178 0.12953502 -0.80650091
v -0.64576924 0.10433802 -0.73782843
v -0.66904378 0.00000000 -0.81677079
v -0.57604277 0.01187822 -0.83848053
v 0.00358947 0.42320526 -0.94006050
v -0.13579191 0.38812920 -0.95016176
v -0.14336395 0.14305006 -1.05823696
v -0.13755530 0.25660509 -1.01611805
v 0.00266146 0.19270970 -1.06259370
v -0.26380375 0.32178929 -0.94138557
v -0.38984591 0.26675418 -0.91609877
v -0.13887970 0.36979672 -0.80479765
v -0.14125562 0.26942730 -0.90361702
v -0.01158596 0.28474423 -0.87628454
v -0.42585513 0.15339802 -0.85869414
v -0.30159634 0.22877105 -0.89604336
v -0.43180242 0.27903664 -0.83452511
v -0.03520135 0.00093920 -0.99791086
v -0.13602614 0.14477448 -0.97121853
v -0.15604629 0.02174112 -1.02539575
v -0.43854514 0.15866739 -0.97025526
v -0.29985815 0.05430117 -1.01359105
v -0.43319902 0.01349373 -0.93294275
v 0.23365316 0.56856132 -0.80624491
v 0.14763983 0.49804083 -0.88324553
v 0.35339868 0.70755893 -0.61079466
v 0.28789583 0.64169151 -0.71258754
v 0.40905592 0.40640819 -0.85666007
v 0.36767954 0.52639693 -0.79448962
v 0.49524739 0.47037008 -0.76844734
v 0.57916564 0.82913482 -0.10943784
v 0.54039305 0.82306886 -0.24155688
v 0.69398069 0.64517617 -0.39189541
v 0.62287277 0.73806179 -0.31571093
v 0.74281144 0.66308451 -0.25032994
v 0.48654035 0.79727334 -0.36805487
v 0.43356588 0.76721698 -0.48723522
v 0.82686126 0.17289259 -0.64836669
v 0.81247211 0.28816018 -0.59558642
v 0.88109392 0.23359512 -0.51186937
v 0.61910164 0.42313039 -0.73577690
v 0.72952592 0.35789743 -0.67362255
v 0.64896321 0.30787617 -0.77522349
v 0.85269403 0.46459383 -0.39338699
v 0.79145598 0.41657344 -0.53424674
v 0.75529718 0.53235203 -0.46678877
v 0.49758157 0.66243392 -0.57459289
v 0.63322854 0.60033470 -0.53371686
v 0.57145345 0.54709727 -0.65922499
v 0.61242265 0.54448503 0.11056464
v 0.62308216 0.54992819 0.24232139
v 0.47538790 0.54759413 0.13182478
v 0.72877580 0.34255284 0.33959794
v 0.69255227 0.44201553 0.28526440
v 0.78360343 0.32084864 0.22191130
v 0.41928598 0.63310409 0.41889438
v 0.56615484 0.55396897 0.35826260
v 0.50641972 0.53936940 0.48532617
v 0.82561415 0.05527683 0.65187836
v 0.79292703 0.11183006 0.56829959
v 0.90844774 0.02162432 0.50808942
v 0.62240583 0.16238827 0.66480577
v 0.71163589 0.10190614 0.60829860
v 0.63821656 0.07321336 0.75474739
v 0.81293917 0.13821055 0.32557496
v 0.77968162 0.07181171 0.45860973
v 0.74594140 0.19510676 0.40737569
v 0.14855960 0.44210953 0.78298295
v 0.23113568 0.38411662 0.82303292
v 0.16129300 0.28658542 0.87028152
v 0.41078109 0.46886379 0.62511969
v 0.34234568 0.43338528 0.72621578
v 0.28802034 0.54884672 0.64115423
v 0.39876169 0.21159481 0.84502327
v 0.37064597 0.32644886 0.79783505
v 0.48902497 0.24288084 0.72458971
v 0.63537264 0.31435102 0.45772544
v 0.59199363 0.27007672 0.59836358
v 0.55720389 0.41453299 0.53099114
v 0.40739524 0.70147938 0.13201202
v 0.43725565 0.58432996 0.00619600
v 0.28518134 0.67140204 0.45755768
v 0.33895352 0.69718033 0.30619749
v 0.17421892 0.54960650 0.05529080
v 0.27622417 0.70988208 0.13433386
v 0.12126771 0.63465947 0.19953729
v -0.03408551 0.43578008 0.80244529
v 0.04156610 0.53635484 0.76234066
v -0.10518632 0.66150320 0.58884048
v -0.06436116 0.61217225 0.66040725
v -0.21692026 0.59788185 0.67373049
v 0.12430253 0.57448119 0.67286682
v 0.18559292 0.60708910 0.56620854
v -0.36700293 0.66898930 0.07194866
v -0.34193173 0.80856204 0.16734190
v -0.46796873 0.77396649 0.15525798
v -0.07529010 0.67919236 0.19080664
v -0.18827397 0.79511541 0.16218418
v -0.11214513 0.64241999 0.06130555
v -0.33596671 0.73689365 0.45067838
v -0.23940007 0.77008152 0.30902770
v -0.20084594 0.70732701 0.44068438
v 0.13190208 0.73004752 0.44653004
v -0.05313793 0.75867099 0.43979499
v 0.00898237 0.66373879 0.33349591
v 0.37969732 0.67714399 -0.13050856
v 0.52529132 0.67223096 -0.11430833
v 0.13279952 0.59878510 -0.07303180
v 0.25361714 0.57866997 -0.13934359
v 0.40741459 0.70089185 -0.40502423
v 0.31795773 0.72303355 -0.29348478
v 0.27095413 0.75956666 -0.39398542
v -0.43680224 0.68564045 -0.12756817
v -0.33292997 0.59745890 -0.09566929
v -0.14241490 0.51607764 -0.32152197
v -0.24438350 0.54681832 -0.21002416
v -0.30382887 0.55648923 -0.31815821
v -0.18776873 0.61456162 -0.09365296
v -0.04115795 0.71003491 -0.06633792
v 0.05635063 0.51561385 -0.79138333
v -0.02109688 0.60729009 -0.69883770
v -0.11912013 0.50557590 -0.75130957
v 0.15762578 0.71625012 -0.52335221
v 0.08618645 0.67445576 -0.64188397
v 0.24042177 0.63936019 -0.59901345
v -0.17525008 0.50905699 -0.55172437
v -0.08050568 0.68979925 -0.59682024
v -0.06461462 0.58276856 -0.48861495
v 0.09016775 0.60087520 -0.18578245
v 0.02331648 0.59081727 -0.32862169
v 0.10795169 0.76336080 -0.38337755
v 0.58525473 0.60685420 -0.18896447
v 0.63417584 0.56629753 -0.07538155
v 0.47423881 0.61808550 -0.48340973
v 0.51733184 0.61813581 -0.31841362
v 0.76395172 0.42569950 -0.23772681
v 0.65531301 0.52334607 -0.27145320
v 0.71328813 0.42947802 -0.39426279
v 0.08575577 0.35862747 -0.86344141
v 0.18339086 0.44707483 -0.78818333
v 0.44060937 0.33357090 -0.75851214
v 0.31774485 0.40096700 -0.77619338
v 0.35462418 0.26048633 -0.85073477
v 0.27837613 0.52296782 -0.69571733
v 0.36237594 0.57911736 -0.60420161
v 0.90960103 0.00000000 -0.51103097
v 0.80710483 0.04898210 -0.58382791
v 0.82528585 0.00000000 -0.64434773
v 0.74135959 0.29802009 -0.48258352
v 0.78415203 0.18297231 -0.52738875
v 0.86731178 0.23212376 -0.41050386
v 0.62930256 0.15596430 -0.75466400
v 0.71534187 0.15739433 -0.66489452
v 0.60210592 0.25806740 -0.71980983
v 0.50704038 0.52436215 -0.53929383
v 0.54403228 0.39940885 -0.65199924
v 0.62959743 0.41933867 -0.52279747
v 0.70590323 0.47014922 0.02591863
v 0.84486538 0.31263155 -0.16937551
v 0.75614202 0.38038346 -0.09796088
v 0.76640224 0.32859665 0.06605726
v 0.84649420 0.22540952 0.12998652
v 0.97082061 0.11722891 -0.43550721
v 0.97959805 0.00117149 -0.37850669
v 1.05825961 0.02094375 -0.10920125
v 1.01720035 0.01619953 -0.25087076
v 1.03922379 0.11924461 -0.15934743
v 0.95448345 0.11972580 -0.34022588
v 0.92221260 0.23201685 -0.26083663
v 0.97849017 0.01326459 0.37204322
v 0.97703016 0.14332081 0.42141709
v 0.88073748 0.11791017 0.17922062
v 0.92186439 0.00488889 0.26978406
v 1.05182183 0.16672568 0.14808509
v 1.02093673 0.05913466 0.22701754
v 1.04488611 0.05200059 0.07156964
v 0.90749025 0.15057719 -0.12086463
v 0.96546978 0.00000000 -0.06264101
v 0.89946687 0.10163093 0.01527467
v 0.16090520 0.17116751 0.93655169
v 0.41494367 0.12822819 0.90687472
v 0.30375049 0.11356654 0.95538914
v 0.15306629 0.06680626 0.99804157
v 0.16177283 0.01652280 1.07728601
v 0.75043601 0.13832571 0.75728089
v 0.53684932 0.29534671 0.90026808
v 0.65050250 0.22788318 0.83321798
v 0.65635443 0.05538296 0.83887035
v 0.56666803 0.02963611 0.91171294
v 0.10445160 0.43910593 0.94221985
v 0.13442782 0.16857763 1.03979659
v 0.11958684 0.30854642 0.99705356
v 0.25052181 0.38285649 0.93609351
v 0.37533301 0.33389115 0.92854756
v 0.45464334 0.05656893 0.98992831
v 0.42692596 0.19226064 0.97907984
v 0.28915527 0.11369843 1.04145324
v -0.53830326 0.68666828 0.23680443
v -0.42431802 0.63725734 0.51275879
v -0.45491159 0.68010968 0.38847339
v -0.61981070 0.60735291 0.29016092
v -0.67083162 0.49007416 0.36217216
v -0.18601714 0.36901373 0.82393807
v -0.44728380 0.27436966 0.76866424
v -0.31907418 0.34969345 0.82493323
v -0.26507324 0.47456935 0.74511969
v -0.35723278 0.53734928 0.64236218
v -0.80498952 0.08560441 0.56210291
v -0.74605793 0.34593332 0.44799885
v -0.77150965 0.21509057 0.49312356
v -0.69766849 0.15398997 0.62639993
v -0.58911169 0.20703293 0.68918866
v -0.47688067 0.51220793 0.58407539
v -0.53651524 0.35631940 0.63337523
v -0.61195594 0.44065768 0.50622767
v -0.22907947 0.48232502 -0.77013129
v -0.34061763 0.56670356 -0.57205242
v -0.29597422 0.53333664 -0.67432225
v -0.36629725 0.40946314 -0.75391394
v -0.48576489 0.30175939 -0.73793048
v -0.55918854 0.63720471 -0.16989113
v -0.71088368 0.43329462 -0.35536179
v -0.64054763 0.53429997 -0.26991722
v -0.51397544 0.60935229 -0.31250045
v -0.42996588 0.59617639 -0.44009960
v -0.84258926 0.09945182 -0.56016469
v -0.62835693 0.22446111 -0.68481129
v -0.72792232 0.15777744 -0.66169578
v -0.79638433 0.19337295 -0.51254267
v -0.75103474 0.32809344 -0.43159938
v -0.47637969 0.46843815 -0.56291765
v -0.62376118 0.38672653 -0.49115351
v -0.56930685 0.34480068 -0.62429494
v 0.76524812 0.11019634 -0.74551934
v 0.54141706 0.09497079 -0.86307758
v 0.63717455 0.00798075 -0.83023882
v 0.65852004 0.16855127 -0.82757246
v 0.54838657 0.22565222 -0.87042642
v 0.10520799 0.20910043 -0.89785355
v 0.11733142 0.00114885 -1.02699459
v 0.09476762 0.06316679 -0.95567000
v 0.22692008 0.15462622 -0.92341226
v 0.34666592 0.12570047 -0.90395451
v 0.14350857 0.38564363 -0.95227683
v 0.40633768 0.28403884 -0.92619717
v 0.28314769 0.33799627 -0.94650590
v 0.14136097 0.26888454 -1.01145363
v 0.15900993 0.14106257 -1.06795156
v 0.42319050 0.01575235 -0.94467276
v 0.28049833 0.07254395 -1.03511941
v 0.42363060 0.16096938 -0.96010667
v 0.97377735 0.27279419 0.39166912
v 1.02716696 0.26748997 0.09102922
v 1.01920068 0.28046840 0.23839803
v 0.95068890 0.39203900 0.33036250
v 0.89927971 0.50105709 0.25351858
v 0.96033263 0.24983633 -0.38085461
v 0.89874476 0.48284534 -0.24724810
v 0.93940657 0.37542906 -0.32392848
v 0.99654174 0.26733699 -0.23014787
v 1.01021361 0.27078518 -0.08628932
v 0.66750836 0.77830005 -0.01675490
v 0.83300912 0.62108922 0.15990838
v 0.76451457 0.70549840 0.07147898
v 0.75525802 0.69947183 -0.09519432
v 0.83606720 0.60122794 -0.16514112
v 0.97726774 0.39566928 -0.00144798
v 0.91967285 0.51100570 -0.08215581
v 0.92192990 0.52477771 0.08619691
f 330 87 329
f 336 325 26
f 207 208 56
f 464 36 580
f 502 129 504
f 157 624 622
f 308 311 82
f 247 223 248
f 507 483 508
f 331 88 329
f 494 500 497
f 156 601 602
f 591 589 592
f 365 98 596
f 75 281 282
f 152 587 577
f 149 559 560
f 555 121 553
f 530 141 529
f 515 517 139
f 361 594 98
f 250 67 249
f 157 608 609
f 294 293 209
f 317 81 316
f 557 338 26
f 303 305 81
f 530 529 528
f 101 381 382
f 415 418 111
f 192 184 50
f 412 110 411
f 20 384 256
f 131 594 486
f 281 264 282
f 347 287 348
f 28 349 582
f 165 163 1
f 248 250 66
f 617 107 398
f 273 271 274
f 456 115 453
f 558 561 560
f 335 576 91
f 331 177 332
f 116 433 436
f 351 370 92
f 136 511 530
f 239 240 65
f 247 258 19
f 304 23 567
f 148 557 570
f 214 208 58
f 440 426 450
f 268 270 269
f 258 247 268
f 204 202 16
f 466 125 465
f 517 513 133
f 168 275 274
f 275 73 274
f 198 193 53
f 309 308 307
f 510 511 136
f 415 416 110
f 131 490 597
f 473 475 474
f 414 415 111
f 493 495 494
f 496 504 485
f 433 116 432
f 600 375 601
f 240 234 65
f 418 415 412
f 486 361 3
f 567 566 304
f 380 393 29
f 17 199 197
f 491 492 132
f 451 449 435
f 218 217 216
f 623 621 613
f 396 104 395
f 433 439 436
f 628 160 627
f 215 202 217
f 209 207 2
f 427 113 424
f 434 10 544
f 434 433 432
f 199 17 210
f 150 564 565
f 489 491 132
f 275 13 285
f 497 500 134
f 125 466 476
f 578 152 577
f 208 214 211
f 328 88 343
f 356 27 603
f 150 566 567
f 372 100 371
f 190 191 47
f 235 8 398
f 260 261 72
f 422 403 414
f 422 414 111
f 453 454 123
f 349 583 582
f 521 520 519
f 425 453 115
f 616 622 158
f 483 130 508
f 151 586 572
f 212 17 232
f 400 397 402
f 377 396 99
f 41 522 511
f 510 508 505
f 549 547 42
f 475 473 36
f 510 137 509
f 222 221 197
f 430 115 429
f 220 194 1
f 305 54 204
f 621 29 613
f 192 171 184
f 460 335 5
f 88 331 332
f 74 277 279
f 300 301 80
f 390 389 388
f 165 45 164
f 146 549 551
f 291 278 75
f 448 120 445
f 147 543 544
f 607 610 609
f 603 602 356
f 139 529 514
f 333 553 443
f 92 368 347
f 261 260 259
f 300 6 200
f 46 177 331
f 284 283 174
f 301 300 200
f 471 468 474
f 54 305 301
f 302 304 303
f 569 150 567
f 150 569 570
f 294 209 2
f 628 629 160
f 548 543 147
f 147 625 627
f 63 233 234
f 426 427 114
f 41 509 532
f 198 52 196
f 614 105 612
f 147 627 547
f 81 305 306
f 549 548 547
f 54 301 200
f 342 88 332
f 264 281 70
f 193 194 53
f 455 429 456
f 187 321 14
f 479 130 484
f 147 544 625
f 458 456 453
f 304 80 303
f 314 84 313
f 488 503 501
f 321 332 14
f 423 425 424
f 305 204 306
f 341 339 25
f 514 40 516
f 625 628 627
f 340 339 341
f 105 614 391
f 243 228 62
f 318 316 78
f 75 278 279
f 357 355 353
f 238 257 63
f 466 455 476
f 425 423 4
f 448 449 120
f 408 638 108
f 292 275 285
f 22 278 289
f 515 513 517
f 501 503 134
f 622 623 158
f 134 503 504
f 195 216 206
f 163 271 246
f 619 617 620
f 62 228 229
f 163 165 164
f 453 425 454
f 489 132 488
f 82 628 625
f 58 208 209
f 525 608 40
f 626 547 627
f 518 517 498
f 489 487 491
f 557 26 564
f 325 336 344
f 541 145 539
f 40 616 516
f 338 556 89
f 250 248 245
f 139 514 515
f 98 594 596
f 246 220 1
f 112 413 630
f 9 536 413
f 156 600 601
f 332 177 14
f 321 342 332
f 156 606 600
f 584 330 585
f 302 303 81
f 584 87 330
f 330 25 585
f 400 239 65
f 439 440 117
f 95 358 368
f 597 594 131
f 594 361 486
f 246 67 245
f 561 562 149
f 28 364 362
f 55 216 217
f 427 430 114
f 267 20 254
f 556 555 553
f 84 309 558
f 311 310 312
f 609 525 142
f 256 68 255
f 124 460 461
f 82 311 312
f 307 308 82
f 589 135 495
f 527 40 514
f 112 418 412
f 20 256 254
f 258 238 19
f 267 254 269
f 273 272 249
f 392 391 393
f 137 533 509
f 122 455 456
f 9 413 411
f 130 480 505
f 333 443 5
f 527 525 40
f 589 495 385
f 39 496 485
f 223 225 224
f 414 416 415
f 219 222 53
f 145 538 539
f 413 412 411
f 469 468 467
f 183 181 6
f 191 192 50
f 429 35 431
f 292 285 76
f 413 112 412
f 415 110 412
f 43 164 167
f 467 468 126
f 617 101 620
f 450 451 117
f 438 546 545
f 619 620 159
f 17 212 210
f 124 579 576
f 584 153 583
f 460 124 576
f 3 469 467
f 311 308 314
f 6 320 183
f 389 104 388
f 251 250 249
f 194 165 1
f 291 289 278
f 287 77 348
f 238 258 257
f 139 517 518
f 238 236 19
f 223 247 19
f 382 380 29
f 39 518 498
f 361 359 3
f 69 255 257
f 139 518 528
f 33 545 535
f 387 385 7
f 69 268 269
f 477 462 125
f 454 479 123
f 121 555 447
f 451 435 117
f 454 425 4
f 233 252 8
f 124 463 464
f 69 258 268
f 168 167 166
f 583 153 582
f 384 394 102
f 138 512 513
f 57 210 211
f 254 256 255
f 607 609 142
f 324 319 86
f 289 291 76
f 291 292 76
f 384 102 383
f 422 421 420
f 221 17 197
f 383 102 381
f 376 377 99
f 99 373 374
f 386 105 392
f 438 33 440
f 90 341 343
f 281 75 279
f 574 571 96
f 628 82 312
f 221 222 59
f 127 471 474
f 595 605 603
f 551 538 145
f 334 91 340
f 322 324 85
f 305 303 301
f 18 239 399
f 306 204 16
f 199 198 197
f 166 190 180
f 303 80 301
f 267 266 265
f 626 42 547
f 16 215 213
f 349 351 350
f 295 16 213
f 68 379 252
f 250 251 66
f 627 160 626
f 383 68 256
f 343 88 342
f 507 508 136
f 202 215 16
f 197 198 53
f 254 69 269
f 603 605 156
f 418 419 111
f 384 383 256
f 455 122 476
f 203 204 54
f 556 557 148
f 255 68 253
f 313 84 560
f 25 328 341
f 254 255 69
f 603 156 602
f 581 584 583
f 630 632 112
f 163 246 1
f 246 245 220
f 432 116 558
f 499 591 590
f 320 563 86
f 345 93 350
f 306 16 295
f 346 93 345
f 562 568 149
f 604 605 155
f 154 592 593
f 545 552 535
f 511 522 530
f 574 573 571
f 566 150 565
f 361 98 360
f 67 271 273
f 234 235 65
f 208 211 56
f 574 151 573
f 251 270 66
f 398 8 378
f 213 215 214
f 438 440 439
f 315 314 313
f 263 71 262
f 20 373 384
f 496 134 504
f 329 88 328
f 81 306 316
f 555 556 148
f 592 589 103
f 617 619 107
f 227 207 56
f 571 359 96
f 446 466 465
f 206 216 55
f 359 571 469
f 568 148 570
f 34 437 435
f 28 351 349
f 21 272 282
f 113 423 424
f 490 489 488
f 379 68 383
f 210 212 211
f 80 563 300
f 351 92 350
f 326 346 12
f 83 317 318
f 555 148 554
f 212 231 56
f 218 57 217
f 271 67 246
f 195 196 52
f 270 268 66
f 390 592 103
f 148 568 554
f 495 493 7
f 592 390 593
f 357 95 355
f 574 575 151
f 452 120 451
f 154 591 592
f 587 585 577
f 395 394 396
f 93 349 350
f 610 416 611
f 166 44 190
f 315 23 302
f 315 302 317
f 268 247 66
f 606 154 593
f 396 394 99
f 211 212 56
f 370 369 368
f 235 397 65
f 280 278 22
f 83 315 317
f 575 588 151
f 74 279 280
f 385 495 7
f 63 257 253
f 397 235 398
f 214 58 213
f 220 219 194
f 546 146 545
f 236 225 19
f 599 94 602
f 235 233 8
f 102 394 395
f 611 416 32
f 225 223 19
f 139 528 529
f 231 62 229
f 419 406 421
f 451 450 452
f 49 182 185
f 402 397 107
f 52 199 218
f 416 610 110
f 225 236 244
f 107 397 398
f 68 252 253
f 322 85 321
f 182 181 183
f 118 438 439
f 546 438 118
f 348 77 345
f 543 546 118
f 231 212 232
f 610 611 157
f 33 438 545
f 385 386 103
f 479 480 130
f 169 195 15
f 93 583 349
f 15 195 206
f 190 44 192
f 247 248 66
f 146 552 545
f 248 60 245
f 570 557 564
f 274 271 43
f 63 253 233
f 272 21 249
f 507 528 518
f 67 273 249
f 487 467 126
f 196 195 169
f 624 159 623
f 134 496 497
f 132 503 488
f 104 393 395
f 556 553 89
f 355 356 94
f 258 69 257
f 229 61 227
f 56 231 227
f 460 576 335
f 463 124 461
f 394 373 99
f 29 393 391
f 67 250 245
f 193 198 196
f 462 36 464
f 144 633 630
f 141 526 527
f 517 133 498
f 536 144 630
f 100 372 599
f 144 536 537
f 22 289 287
f 578 579 152
f 579 578 576
f 189 188 187
f 60 223 224
f 92 348 350
f 555 554 447
f 396 377 388
f 194 193 165
f 413 536 630
f 372 352 599
f 377 376 375
f 348 345 350
f 105 386 387
f 240 237 234
f 463 462 464
f 135 500 494
f 45 196 169
f 512 612 387
f 245 60 220
f 429 115 456
f 223 60 248
f 288 289 76
f 525 526 142
f 100 599 601
f 613 29 391
f 526 523 520
f 341 328 343
f 631 641 639
f 264 21 282
f 266 72 265
f 106 402 403
f 73 273 274
f 186 206 205
f 381 379 383
f 52 216 195
f 410 18 399
f 290 272 73
f 72 371 374
f 526 525 527
f 115 430 424
f 498 497 496
f 621 382 29
f 543 118 434
f 214 215 57
f 522 141 530
f 511 510 509
f 352 94 599
f 493 512 7
f 90 340 341
f 169 171 170
f 605 604 606
f 219 60 224
f 104 389 392
f 359 469 3
f 186 49 185
f 222 219 224
f 166 167 44
f 428 427 426
f 523 522 524
f 129 502 481
f 50 185 188
f 164 45 170
f 425 115 424
f 33 428 426
f 427 428 113
f 94 356 602
f 515 138 513
f 114 431 452
f 237 236 238
f 215 217 57
f 95 354 355
f 220 60 219
f 515 514 516
f 183 320 319
f 222 197 53
f 559 569 567
f 300 320 6
f 435 436 117
f 96 360 363
f 640 642 641
f 242 243 62
f 140 537 519
f 508 130 505
f 420 410 399
f 537 539 144
f 317 316 318
f 426 114 450
f 186 15 206
f 311 83 310
f 625 544 307
f 544 10 307
f 168 43 167
f 185 182 188
f 369 354 95
f 44 171 192
f 605 606 156
f 548 549 146
f 100 601 375
f 149 568 569
f 381 380 382
f 455 466 35
f 480 479 454
f 543 548 546
f 493 133 513
f 492 472 37
f 477 125 476
f 491 487 126
f 337 336 338
f 588 153 587
f 576 578 91
f 633 161 632
f 96 359 360
f 39 485 483
f 101 617 378
f 193 45 165
f 163 164 43
f 618 624 611
f 507 136 528
f 561 149 560
f 641 162 639
f 116 561 558
f 494 133 493
f 253 252 233
f 63 237 238
f 392 393 104
f 440 450 117
f 93 581 583
f 386 385 387
f 120 449 451
f 421 422 111
f 486 3 467
f 302 81 317
f 633 632 630
f 462 475 36
f 376 99 374
f 489 490 131
f 447 449 448
f 387 612 105
f 106 420 399
f 173 46 172
f 492 491 472
f 316 306 295
f 22 287 347
f 109 410 420
f 507 39 483
f 559 23 313
f 214 57 211
f 196 45 193
f 10 434 432
f 422 106 403
f 626 160 640
f 487 486 467
f 542 41 532
f 400 106 399
f 444 120 452
f 198 199 52
f 475 127 474
f 621 620 382
f 621 623 159
f 450 114 452
f 92 347 348
f 376 100 375
f 434 118 433
f 503 132 502
f 337 90 336
f 537 536 519
f 395 393 380
f 201 54 200
f 171 44 170
f 355 94 353
f 58 296 213
f 422 420 106
f 595 365 596
f 569 568 570
f 523 140 520
f 114 430 431
f 218 210 57
f 304 566 80
f 639 162 638
f 261 371 72
f 548 147 547
f 498 133 497
f 150 570 564
f 222 224 59
f 142 526 520
f 437 436 435
f 141 522 523
f 137 510 505
f 173 179 176
f 559 149 569
f 121 447 448
f 563 320 300
f 102 395 380
f 257 255 253
f 642 162 641
f 83 311 314
f 216 52 218
f 512 493 513
f 23 304 302
f 91 339 340
f 512 138 612
f 159 620 621
f 218 199 210
f 364 28 575
f 83 318 310
f 168 274 43
f 136 530 528
f 140 523 524
f 495 135 494
f 233 235 234
f 566 563 80
f 25 339 577
f 277 74 276
f 475 462 477
f 133 494 497
f 436 437 116
f 389 386 392
f 548 146 546
f 441 460 5
f 10 309 307
f 65 397 400
f 543 434 544
f 640 641 161
f 272 273 73
f 581 93 346
f 419 421 111
f 319 320 86
f 180 179 178
f 127 475 477
f 231 229 227
f 337 334 340
f 136 508 510
f 308 309 84
f 237 63 234
f 447 554 34
f 252 379 378
f 315 83 314
f 608 622 616
f 338 336 26
f 337 338 89
f 13 275 168
f 209 208 207
f 436 439 117
f 628 312 629
f 360 366 363
f 364 574 96
f 359 361 360
f 466 446 35
f 500 501 134
f 406 109 421
f 135 589 591
f 601 599 602
f 340 90 337
f 481 492 37
f 522 41 524
f 78 316 295
f 131 486 487
f 403 32 414
f 634 626 640
f 151 572 573
f 515 516 138
f 8 252 378
f 265 72 374
f 9 521 519
f 538 549 42
f 368 358 347
f 588 587 586
f 458 453 123
f 589 385 103
f 502 492 481
f 32 416 414
f 430 427 424
f 153 585 587
f 540 144 539
f 370 368 92
f 209 293 58
f 428 33 535
f 326 581 346
f 625 307 82
f 575 28 582
f 6 181 200
f 421 109 420
f 553 121 443
f 160 642 640
f 153 584 585
f 309 432 558
f 334 337 89
f 23 315 313
f 271 163 43
f 296 295 213
f 39 498 496
f 118 439 433
f 531 113 534
f 293 296 58
f 28 362 351
f 489 131 487
f 431 444 452
f 84 558 560
f 98 366 360
f 45 169 170
f 379 101 378
f 462 463 125
f 308 84 314
f 10 432 309
f 299 24 310
f 132 492 502
f 512 387 7
f 639 638 408
f 565 323 86
f 59 244 242
f 106 400 402
f 440 33 426
f 566 565 563
f 617 398 378
f 224 225 59
f 410 109 409
f 239 400 399
f 194 219 53
f 358 22 347
f 610 157 609
f 27 595 603
f 479 484 482
f 142 520 521
f 585 25 577
f 339 578 577
f 408 407 406
f 407 109 406
f 31 408 406
f 407 408 108
f 31 639 408
f 419 31 406
f 608 616 40
f 430 429 431
f 455 35 429
f 35 444 431
f 188 51 187
f 188 182 51
f 51 322 187
f 322 51 319
f 51 182 183
f 319 51 183
f 187 322 321
f 322 319 324
f 381 101 379
f 405 407 108
f 404 405 108
f 286 285 178
f 407 405 409
f 109 407 409
f 191 175 47
f 167 164 170
f 50 184 185
f 44 167 170
f 64 244 236
f 243 244 64
f 50 188 189
f 541 542 145
f 442 445 119
f 339 91 578
f 445 446 119
f 624 623 622
f 611 624 157
f 523 526 141
f 141 527 529
f 527 514 529
f 445 120 444
f 446 445 444
f 35 446 444
f 613 614 158
f 158 614 615
f 623 613 158
f 614 613 391
f 614 612 615
f 371 376 374
f 100 376 371
f 479 482 123
f 373 394 384
f 540 42 634
f 633 540 634
f 538 42 540
f 633 634 161
f 161 634 640
f 42 626 634
f 540 633 144
f 557 556 338
f 553 333 89
f 262 21 264
f 251 21 262
f 5 335 333
f 270 251 262
f 21 251 249
f 600 593 30
f 606 593 600
f 600 30 375
f 593 390 30
f 30 377 375
f 390 388 30
f 30 388 377
f 228 243 241
f 470 478 459
f 470 127 478
f 127 477 478
f 184 186 185
f 478 477 476
f 122 478 476
f 357 74 280
f 518 39 507
f 344 342 85
f 325 344 85
f 342 344 343
f 85 342 321
f 344 90 343
f 90 344 336
f 482 129 481
f 482 481 457
f 482 457 123
f 481 37 457
f 449 447 34
f 435 449 34
f 470 472 471
f 472 470 37
f 470 471 127
f 472 126 471
f 126 468 471
f 470 459 37
f 491 126 472
f 504 129 485
f 221 59 242
f 125 463 465
f 437 34 562
f 561 437 562
f 554 568 562
f 34 554 562
f 437 561 116
f 390 103 389
f 103 386 389
f 392 105 391
f 572 586 580
f 572 580 36
f 586 152 580
f 473 572 36
f 244 243 242
f 225 244 59
f 64 240 241
f 240 239 241
f 237 240 64
f 243 64 241
f 236 237 64
f 411 607 521
f 9 411 521
f 110 607 411
f 607 142 521
f 610 607 110
f 171 15 184
f 171 169 15
f 15 186 184
f 87 584 581
f 153 588 582
f 588 575 582
f 381 102 380
f 573 572 473
f 468 469 128
f 474 468 128
f 469 571 128
f 571 573 128
f 573 473 128
f 473 474 128
f 564 323 565
f 26 323 564
f 323 324 86
f 325 323 26
f 325 324 323
f 563 565 86
f 324 325 85
f 410 230 18
f 230 228 18
f 18 228 241
f 18 241 239
f 401 619 618
f 401 402 107
f 403 402 401
f 619 159 618
f 401 618 32
f 619 401 107
f 403 401 32
f 618 611 32
f 159 624 618
f 478 122 459
f 122 458 459
f 37 459 457
f 459 458 457
f 122 456 458
f 457 458 123
f 191 190 192
f 485 129 484
f 129 482 484
f 483 485 484
f 130 483 484
f 189 187 14
f 191 50 189
f 191 189 175
f 189 14 175
f 14 177 175
f 499 501 500
f 501 499 38
f 38 499 590
f 135 499 500
f 488 501 38
f 499 135 591
f 480 454 4
f 284 12 346
f 4 423 506
f 480 4 506
f 423 531 506
f 480 506 505
f 531 137 506
f 506 137 505
f 365 366 98
f 71 270 262
f 270 71 269
f 71 267 269
f 335 334 333
f 333 334 89
f 334 335 91
f 536 9 519
f 465 463 461
f 537 140 541
f 520 140 519
f 119 446 465
f 465 461 119
f 461 441 119
f 460 441 461
f 176 46 173
f 299 297 24
f 71 263 266
f 263 260 266
f 260 72 266
f 263 70 260
f 205 201 49
f 201 181 49
f 186 205 49
f 181 201 200
f 181 182 49
f 284 77 283
f 586 587 152
f 588 586 151
f 20 267 265
f 266 267 71
f 31 417 631
f 631 417 632
f 31 631 639
f 417 31 419
f 641 631 161
f 417 112 632
f 161 631 632
f 418 417 419
f 417 418 112
f 284 345 77
f 542 550 145
f 542 541 524
f 284 174 12
f 48 174 283
f 373 20 265
f 373 265 374
f 609 608 525
f 608 157 622
f 560 559 313
f 636 637 162
f 541 140 524
f 41 542 524
f 358 357 280
f 70 263 264
f 263 262 264
f 176 177 46
f 174 48 173
f 174 173 172
f 538 551 549
f 538 540 539
f 537 541 539
f 232 221 242
f 17 221 232
f 232 242 62
f 231 232 62
f 203 205 55
f 203 55 202
f 201 205 203
f 202 55 217
f 205 206 55
f 204 203 202
f 73 275 292
f 292 290 73
f 272 290 282
f 290 292 291
f 75 290 291
f 290 75 282
f 70 277 259
f 277 70 281
f 277 281 279
f 260 70 259
f 12 174 172
f 104 396 388
f 367 27 354
f 365 27 367
f 354 27 356
f 365 367 366
f 595 27 365
f 318 299 310
f 155 596 597
f 155 597 598
f 596 594 597
f 595 596 155
f 605 595 155
f 180 47 179
f 180 190 47
f 352 372 11
f 11 372 261
f 312 310 24
f 642 636 162
f 636 297 637
f 367 369 97
f 366 367 97
f 369 367 354
f 369 370 97
f 580 579 464
f 580 152 579
f 579 124 464
f 61 230 409
f 230 410 409
f 230 61 229
f 230 229 228
f 76 285 286
f 353 352 276
f 74 353 276
f 288 76 286
f 288 286 283
f 289 288 287
f 203 54 201
f 287 288 77
f 77 288 283
f 286 48 283
f 531 423 113
f 276 11 259
f 11 261 259
f 277 276 259
f 616 158 615
f 516 616 615
f 138 516 615
f 138 615 612
f 509 533 532
f 503 502 504
f 635 79 294
f 635 294 404
f 635 637 79
f 637 635 638
f 638 635 108
f 635 404 108
f 226 61 405
f 61 226 227
f 405 61 409
f 227 226 207
f 48 178 179
f 48 286 178
f 173 48 179
f 534 143 533
f 534 535 143
f 531 534 533
f 533 143 532
f 137 531 533
f 261 372 371
f 13 180 178
f 285 13 178
f 180 13 166
f 13 168 166
f 346 345 284
f 331 327 46
f 46 327 172
f 172 327 326
f 382 620 101
f 442 121 448
f 443 121 442
f 2 226 404
f 294 2 404
f 404 226 405
f 207 226 2
f 550 551 145
f 552 146 551
f 143 550 532
f 552 550 143
f 330 329 328
f 24 636 629
f 94 352 353
f 352 11 276
f 113 428 534
f 428 535 534
f 509 41 511
f 535 552 143
f 550 552 551
f 550 542 532
f 369 95 368
f 326 327 87
f 87 327 329
f 327 331 329
f 581 326 87
f 293 79 298
f 79 297 298
f 296 298 78
f 79 293 294
f 296 293 298
f 598 490 38
f 358 280 22
f 280 279 278
f 357 358 95
f 74 357 353
f 330 328 25
f 567 23 559
f 590 598 38
f 590 604 598
f 598 604 155
f 604 590 154
f 590 591 154
f 604 154 606
f 297 299 298
f 299 318 78
f 298 299 78
f 355 354 356
f 629 636 642
f 312 24 629
f 629 642 160
f 370 362 97
f 362 363 97
f 363 366 97
f 364 363 362
f 362 370 351
f 96 363 364
f 297 636 24
f 162 637 638
f 637 297 79
f 490 488 38
f 598 597 490
f 441 442 119
f 443 442 441
f 443 441 5
f 442 448 445
f 296 78 295
f 326 12 172
f 575 574 364
f 47 175 176
f 175 177 176
f 47 176 179
