# FEM surface export ¡ª frame 844
# Vertices: 642  Faces: 1280
v -0.55198199 0.84346789 -0.02123089
v 0.49950513 0.90871418 -0.01174608
v -0.51937342 0.73957443 0.00439101
v 0.58792919 0.59650594 0.02372465
v 0.00253392 0.33750522 0.89276218
v -0.04148903 0.56552047 0.84181386
v -0.00888240 0.45589545 -0.85522485
v 0.00266458 0.52932346 -0.85613716
v 0.88650852 0.12878217 -0.54849112
v 0.89034069 0.14551051 0.55830425
v -0.91147637 0.08171015 -0.55482978
v -0.88911170 0.08909119 0.53272045
v -0.79801172 0.49423513 0.31283113
v -0.52428114 0.32916337 0.79533452
v -0.38457751 0.82616997 0.47832716
v 0.25733727 0.87486225 0.49109620
v -0.03696410 1.04690814 -0.05133506
v 0.30428046 0.82720405 -0.53121281
v -0.31359142 0.78366387 -0.53222734
v -0.50720954 0.32337335 -0.82579142
v -0.78837115 0.52558059 -0.31507340
v -1.05335104 0.12058592 -0.02133428
v 0.46062049 0.43575993 0.83446991
v 0.80067563 0.60953039 0.29880086
v -0.50842440 0.17357257 0.78394908
v 0.01909448 0.10926588 1.07152963
v -0.77876997 0.35893136 -0.27930439
v -0.77193999 0.41583970 0.33144620
v -0.02817074 0.11878767 -1.06476688
v -0.52546996 0.17032795 -0.80380744
v 0.80314410 0.56487179 -0.32966930
v 0.50375396 0.35747388 -0.80278254
v 0.83762354 0.19997586 0.25713888
v 0.56056970 0.15202495 0.80357355
v 0.33460498 0.56510580 0.48095670
v -0.21189825 0.67585367 0.50828040
v 0.03496918 0.55883831 0.03597151
v -0.26265407 0.52605760 -0.48854408
v 0.37055975 0.66518736 -0.48273113
v 0.44973618 0.22260642 -0.81993484
v 0.81708717 0.34525028 -0.31890371
v 1.05440164 0.15406948 -0.00647644
v -0.69943208 0.68861985 0.14617005
v -0.61388642 0.68197781 0.41264987
v -0.48674560 0.87637931 0.24436611
v -0.69318730 0.17755634 0.70916164
v -0.70987713 0.42645115 0.59286547
v -0.84460098 0.27535984 0.43249646
v -0.22707893 0.73134285 0.68004137
v -0.46482113 0.58496189 0.68632531
v -0.28859189 0.47492078 0.84241563
v -0.22936405 0.99462479 0.22988069
v -0.31204212 0.97489452 -0.04083877
v 0.10463300 0.75907302 0.68946135
v -0.07305989 0.91107816 0.51280236
v 0.23896788 1.01487911 -0.03268493
v 0.10929110 1.00913191 0.23454186
v 0.39060584 0.92587286 0.25748345
v -0.18083993 0.95625919 -0.31803998
v -0.44211817 0.84080386 -0.29530445
v 0.43080130 0.89227968 -0.28099021
v 0.14956553 0.97719204 -0.30920902
v -0.16359532 0.66286135 -0.72304642
v -0.00690028 0.84218752 -0.56846535
v 0.16571832 0.68727750 -0.71559155
v -0.58951193 0.67948139 -0.44123927
v -0.68389404 0.69863099 -0.16560335
v -0.25450635 0.43157640 -0.87891161
v -0.42139477 0.58523965 -0.71194112
v -0.87677801 0.31659761 -0.46729875
v -0.68816912 0.43732587 -0.59484822
v -0.71714455 0.22071956 -0.70425540
v -0.82291508 0.52921730 -0.00038022
v -1.04121900 0.09960368 -0.28639129
v -0.97429788 0.33306336 -0.18649673
v -0.94770008 0.30848360 0.15359269
v -1.01555216 0.15798585 0.26629335
v 0.55905378 0.77405000 0.42152843
v 0.65757155 0.78707123 0.15161794
v 0.20673437 0.51206309 0.87605697
v 0.38209051 0.66330498 0.68769532
v 0.86972493 0.39851484 0.45642069
v 0.66784281 0.55215645 0.59446883
v 0.69940561 0.31243181 0.72752440
v -0.30207998 0.25388998 0.98306006
v -0.03075304 0.34954497 0.99031466
v -0.74068153 0.08221653 0.67735696
v -0.54474121 0.03438867 0.90112793
v 0.02055723 0.06958072 0.97898805
v -0.27373782 0.00000000 0.97085953
v -0.25443375 0.24682114 0.84446782
v -0.96238607 0.15476924 0.18105161
v -0.87771654 0.16122989 0.42637828
v -0.86291957 0.16833310 -0.45167372
v -0.92658818 0.18414228 -0.11690965
v -0.66775072 0.63870460 0.17840938
v -0.81831104 0.39065373 0.04472627
v -0.68425506 0.56800008 -0.13310722
v -0.55817056 0.12115244 -0.89333284
v -0.72842938 0.05648590 -0.67940164
v 0.01097883 0.31972992 -0.99659055
v -0.26553673 0.19243087 -0.98150247
v -0.28021747 0.33247513 -0.86332530
v -0.29100025 0.07199366 -0.93537575
v -0.06119240 0.17739238 -0.99288291
v 0.42267895 0.59218824 -0.70490718
v 0.26164398 0.45153350 -0.87358558
v 0.66556752 0.76456946 -0.18421988
v 0.57626027 0.70906866 -0.45076388
v 0.72619718 0.20938341 -0.70084900
v 0.69385207 0.47545487 -0.59513974
v 0.87012964 0.34979656 -0.44799885
v 0.74932897 0.44427627 0.16745217
v 0.61820310 0.40933186 0.42754579
v 0.50122803 0.62094939 0.29473752
v 0.74369705 0.00244258 0.71047723
v 0.69356841 0.16549036 0.53754008
v 0.89876872 0.10300546 0.36943352
v 0.21166597 0.49663746 0.74280471
v 0.49742383 0.35490054 0.64898664
v 0.28774875 0.25583830 0.85435182
v 0.22323081 0.74490541 0.27986476
v 0.30027923 0.52253401 0.07365951
v -0.13839805 0.51741034 0.75320739
v 0.07339550 0.66824841 0.55838823
v -0.24801946 0.64587277 0.04238660
v -0.08930840 0.77243912 0.27695382
v -0.39259481 0.71551073 0.29910836
v 0.24676022 0.59576440 -0.25428122
v 0.46732083 0.66969424 -0.24129681
v -0.39560631 0.68144196 -0.25716960
v -0.09640179 0.56807637 -0.21865265
v 0.16662823 0.60509098 -0.67919976
v 0.02167420 0.74508303 -0.45751786
v -0.18333960 0.58640051 -0.67484760
v 0.60787946 0.50844002 -0.45769238
v 0.72646487 0.52059644 -0.15907562
v 0.22064981 0.32464769 -0.85963088
v 0.41733509 0.47157639 -0.71470028
v 0.89792216 0.11336666 -0.47863215
v 0.70630950 0.28266543 -0.61458993
v 0.70257556 0.15566681 -0.75653356
v 0.84406722 0.28540805 -0.01756656
v 1.00569689 0.13151562 -0.28721032
v 0.98187584 0.13693672 -0.16384681
v 0.98242676 0.00000000 0.10097282
v 1.00109518 0.17202248 0.29710376
v 0.32087520 0.01804180 0.99827266
v 0.54857475 0.15571104 0.91049755
v 0.22429940 0.25442544 0.98245788
v -0.54186106 0.58864814 0.45284659
v -0.38198900 0.46580774 0.72094518
v -0.66860485 0.33596802 0.56864965
v -0.44953334 0.45758539 -0.65765470
v -0.59605116 0.53932077 -0.40337828
v -0.67924869 0.24356624 -0.57501948
v 0.54628921 0.06162089 -0.89707279
v 0.22157325 0.01978277 -0.95490795
v 0.28194067 0.20638530 -0.97948802
v 0.97271419 0.40394828 0.16594709
v 0.96455371 0.35230312 -0.15215488
v 0.83798075 0.61782676 -0.01372724
v -0.62881023 0.77694094 0.07218193
v -0.59337038 0.79329824 0.20180553
v -0.52056849 0.87326241 0.11133750
v -0.70804274 0.58900839 0.35474968
v -0.65709502 0.70058757 0.28136131
v -0.74955648 0.60030746 0.23031473
v -0.44434965 0.85745668 0.36927649
v -0.54995424 0.78474516 0.33754754
v -0.50714165 0.75849897 0.46162620
v -0.80428052 0.12441210 0.63701952
v -0.77469879 0.23574325 0.57562244
v -0.86703455 0.18340275 0.50927943
v -0.61692202 0.37815571 0.70144272
v -0.70023274 0.29056400 0.64224327
v -0.62509149 0.25158018 0.76710135
v -0.84312344 0.38668194 0.38338393
v -0.79291123 0.36527592 0.51109546
v -0.77575719 0.46746293 0.45025897
v -0.13450429 0.66049623 0.76920438
v -0.25426018 0.60168487 0.77046275
v -0.16382985 0.52834439 0.84919441
v -0.42490068 0.70725483 0.59019101
v -0.35357192 0.66238624 0.69494218
v -0.30561978 0.79778922 0.58634335
v -0.41838551 0.40683311 0.81659234
v -0.37178552 0.52699435 0.75182033
v -0.49183711 0.46464300 0.73834258
v -0.67764080 0.55596590 0.50259894
v -0.60078794 0.51092499 0.64501071
v -0.55554539 0.64398223 0.56297535
v -0.40314466 0.94287282 0.10269000
v -0.44065562 0.91527927 -0.02955325
v -0.31718242 0.92350471 0.35875675
v -0.36370876 0.94474477 0.23619319
v -0.17610237 1.01187515 -0.04881846
v -0.26577377 0.99749762 0.09308148
v -0.12882935 1.03412545 0.09257779
v 0.02271979 0.66750205 0.77624577
v -0.06200682 0.75130558 0.69860965
v 0.08735345 0.91048408 0.50571018
v 0.01886293 0.84148604 0.60827500
v 0.18243881 0.83114493 0.59260345
v -0.15246101 0.83019704 0.60437739
v -0.23371907 0.88114488 0.49399757
v 0.37629730 0.96667790 -0.02511948
v 0.32142192 0.98847598 0.10692571
v 0.44695807 0.93141049 0.12323872
v 0.03494211 1.03400600 0.09276521
v 0.17717339 1.02324510 0.09879666
v 0.10073461 1.04453826 -0.03709620
v 0.32179216 0.90848511 0.37832215
v 0.25391442 0.97622591 0.24189530
v 0.17512870 0.95003146 0.37145582
v -0.15473785 0.96699315 0.37074429
v 0.01159578 0.97643459 0.37312561
v -0.06282011 1.02037203 0.22852077
v -0.38416100 0.91600525 -0.16773491
v -0.50330669 0.85570735 -0.15965749
v -0.11163859 1.00250685 -0.19023760
v -0.25158933 0.97114861 -0.18301597
v -0.37672499 0.82486838 -0.41745824
v -0.31774747 0.91218305 -0.30773619
v -0.24286222 0.87894952 -0.43125203
v 0.46763819 0.90772659 -0.14362185
v 0.33799416 0.96377212 -0.15918557
v 0.23920281 0.91068208 -0.41833872
v 0.29386652 0.95211089 -0.28956708
v 0.36782867 0.86592001 -0.40547732
v 0.19402203 1.00619388 -0.17056176
v 0.05910623 1.01956844 -0.18031013
v -0.07917508 0.60045558 -0.79765987
v -0.00525107 0.68504947 -0.72051829
v 0.07953536 0.61106944 -0.78772509
v -0.16924839 0.81470752 -0.55642366
v -0.08726741 0.75627476 -0.64412498
v -0.24214751 0.72799253 -0.63488668
v 0.23327409 0.76444989 -0.63135195
v 0.07834940 0.77364135 -0.64859658
v 0.15097107 0.85109580 -0.55320168
v -0.01436503 0.97610176 -0.32415500
v 0.07348693 0.92306811 -0.44608656
v -0.09055696 0.89909375 -0.45099020
v -0.57819682 0.77447844 -0.22806339
v -0.62673885 0.77377993 -0.09169874
v -0.45661902 0.73878211 -0.48865902
v -0.51823884 0.76600295 -0.36147028
v -0.74056810 0.60973960 -0.24099164
v -0.64310724 0.68770951 -0.30387521
v -0.69356143 0.60601342 -0.37947798
v -0.12458695 0.47103360 -0.87049705
v -0.20385265 0.54978055 -0.80361450
v -0.46098027 0.46508774 -0.77482444
v -0.32966387 0.51376122 -0.79524624
v -0.38673824 0.39420342 -0.85345966
v -0.30040109 0.63447326 -0.71134901
v -0.37898478 0.68862158 -0.61981189
v -0.92193085 0.21668662 -0.52463359
v -0.79700828 0.27878809 -0.59581053
v -0.82098430 0.16189502 -0.63763094
v -0.75611204 0.48837116 -0.45020539
v -0.79219311 0.37884203 -0.52523220
v -0.85238117 0.42006919 -0.39229023
v -0.61832601 0.28791133 -0.77455151
v -0.69965464 0.34244457 -0.66114390
v -0.58715600 0.40679064 -0.73217118
v -0.51574707 0.64065778 -0.57569802
v -0.56213301 0.53367436 -0.66239434
v -0.64548111 0.56893176 -0.51664770
v -0.70224160 0.70121753 -0.00185404
v -0.81649530 0.53509486 -0.16217715
v -0.75664204 0.62504852 -0.08151101
v -0.76916128 0.59937382 0.06954790
v -0.81939089 0.52233523 0.16239220
v -0.97599280 0.09021516 -0.42434797
v -0.97378379 0.20655620 -0.38440475
v -1.04094553 0.24421747 -0.09289127
v -1.02348125 0.21898630 -0.24315545
v -1.03134990 0.11878045 -0.16192470
v -0.93406481 0.33116314 -0.32641348
v -0.88147420 0.42930490 -0.26156124
v -0.93450058 0.21617213 0.36759943
v -0.97031552 0.12887962 0.39911845
v -0.86573243 0.39293888 0.24285792
v -0.92828953 0.30035952 0.29591781
v -1.03963125 0.10465700 0.13393222
v -0.99970359 0.19871531 0.20893337
v -1.02520967 0.21485113 0.07504923
v -0.90565503 0.43339211 -0.09077441
v -0.96809083 0.32312062 -0.01163465
v -0.89746016 0.42662627 0.08339128
v 0.53221279 0.86831945 0.20483638
v 0.58305222 0.85028386 0.06665011
v 0.41415751 0.83478427 0.46694905
v 0.48388764 0.85753673 0.34602192
v 0.73591083 0.70695668 0.22728190
v 0.61913902 0.78948438 0.29252377
v 0.68752521 0.69704801 0.36422941
v 0.07901339 0.54388791 0.85994798
v 0.15460102 0.64470661 0.78728563
v 0.43532920 0.55128741 0.76759940
v 0.29408586 0.60006088 0.77852261
v 0.33522698 0.48811004 0.86754823
v 0.24606545 0.72444677 0.70021957
v 0.32438716 0.77731222 0.60470092
v 0.88283616 0.27028459 0.51478571
v 0.79418147 0.34733623 0.58898365
v 0.79806578 0.22149894 0.64288372
v 0.74234742 0.58245671 0.45427126
v 0.76858228 0.47363850 0.53114182
v 0.84324169 0.51243705 0.38133869
v 0.58859199 0.38532946 0.78630084
v 0.69111997 0.43039894 0.66148776
v 0.58023006 0.49900022 0.71963638
v 0.47890073 0.73515040 0.56503421
v 0.53162712 0.62158638 0.65539479
v 0.61741579 0.66736114 0.51340503
v -0.17088743 0.41605294 0.92290670
v -0.03393935 0.45451045 0.91977417
v -0.42635116 0.30570301 0.89030379
v -0.30445707 0.35955748 0.90691662
v -0.01307544 0.21869177 1.03339112
v -0.16667040 0.30215791 0.98580265
v -0.15103783 0.19081281 1.04169536
v -0.82569993 0.01880756 0.64650017
v -0.73796207 0.03955857 0.72681165
v -0.57087171 0.03858259 0.83037072
v -0.66522372 0.00562444 0.80252129
v -0.63231725 0.11471130 0.72827750
v -0.63146591 0.11665603 0.82570654
v -0.54634112 0.20167294 0.86456281
v -0.00452412 0.20691933 0.94514960
v -0.11639621 0.14199880 0.89677745
v -0.12554507 0.29857159 0.87826723
v -0.13727206 0.04477998 1.05324411
v -0.13129091 0.04489335 0.98389852
v 0.01207560 0.00110977 1.05933738
v -0.39977312 0.16150059 0.78506911
v -0.23659763 0.13187683 0.89168912
v -0.39991263 0.06163969 0.88064814
v -0.43534926 0.17563085 0.95540076
v -0.42725345 0.02595189 0.96771002
v -0.29273716 0.10646563 1.00994980
v -0.97838664 0.02009305 0.36338639
v -0.90601182 0.01406931 0.48913187
v -1.03483832 0.09769309 0.08818232
v -1.01064098 0.02082225 0.22013049
v -0.85595864 0.28298074 0.37942091
v -0.92830521 0.13101682 0.30662543
v -0.86781108 0.29513168 0.24894220
v -0.86132222 0.11180460 -0.51062489
v -0.92516261 0.12772501 -0.33667859
v -0.89277995 0.26007929 -0.22603424
v -0.90254521 0.19016151 -0.30259177
v -0.84680873 0.26180553 -0.37963563
v -0.97545987 0.10081285 -0.18880197
v -1.03193772 0.03599349 -0.07408071
v -0.58955657 0.70814687 0.08859904
v -0.69248390 0.62188756 0.01775048
v -0.61471891 0.68192577 -0.09275792
v -0.82882333 0.44209060 0.16199572
v -0.76334399 0.54080212 0.08485189
v -0.72667652 0.52219534 0.24751292
v -0.74450105 0.47593620 -0.23105223
v -0.76418895 0.49645787 -0.07086870
v -0.82855141 0.40543854 -0.13292922
v -0.97099650 0.14423944 0.01607754
v -0.90555298 0.26502174 -0.05607339
v -0.90609884 0.28397807 0.10673942
v -0.75485319 0.06869650 -0.74478871
v -0.85089058 0.00567775 -0.65587354
v -0.54092056 0.22163866 -0.88051516
v -0.66219658 0.14647156 -0.81373245
v -0.63294721 0.11043838 -0.75544935
v -0.65010566 0.00461046 -0.79654860
v -0.55256349 0.02495527 -0.85668242
v 0.00040524 0.42212048 -0.92957234
v -0.13213022 0.36890358 -0.94249696
v -0.13732883 0.13229416 -1.02745652
v -0.13139533 0.26086250 -0.99253017
v -0.01360915 0.22319582 -1.04422224
v -0.26771271 0.30327243 -0.93388069
v -0.39196533 0.28058380 -0.91241574
v -0.15092556 0.38507605 -0.87313890
v -0.17651491 0.25578842 -0.94543219
v -0.04925223 0.29798135 -0.91185063
v -0.41523081 0.13915040 -0.90468723
v -0.28875414 0.23016216 -0.91401953
v -0.40128428 0.24034262 -0.82930553
v -0.04587628 0.02126511 -1.05084395
v -0.18660350 0.11269400 -0.99478525
v -0.16628574 0.00737339 -1.05477929
v -0.39806655 0.14535007 -0.94470048
v -0.27345654 0.05889354 -1.01086032
v -0.43998337 0.02675102 -0.94386011
v 0.20959429 0.57833165 -0.79771554
v 0.12823001 0.48697045 -0.87036026
v 0.36968860 0.72094810 -0.62225652
v 0.29914874 0.64842564 -0.71630931
v 0.38748133 0.39866775 -0.86054403
v 0.34966794 0.52741873 -0.79556358
v 0.47577342 0.48917544 -0.76021057
v 0.59901148 0.83772451 -0.09384395
v 0.55528891 0.83509898 -0.23048937
v 0.70611417 0.65249515 -0.38601771
v 0.62231988 0.74261290 -0.32170144
v 0.74236393 0.67057937 -0.25703886
v 0.50979722 0.81597710 -0.37563485
v 0.44982001 0.78102708 -0.49361274
v 0.81521082 0.17013390 -0.63632488
v 0.80916679 0.28291366 -0.57060629
v 0.89576977 0.22842073 -0.49822646
v 0.60151905 0.41183546 -0.71713787
v 0.71209764 0.35114384 -0.65633398
v 0.62265599 0.27062288 -0.76786590
v 0.84435529 0.44451484 -0.38314453
v 0.78396863 0.40574065 -0.52780771
v 0.75399315 0.52494645 -0.46333554
v 0.50589824 0.66258115 -0.58861649
v 0.64482564 0.61099863 -0.52413189
v 0.56737733 0.54137516 -0.64942312
v 0.67281759 0.51784778 0.07405430
v 0.62597924 0.51524872 0.21314283
v 0.50728416 0.58335674 0.15694833
v 0.71829450 0.30735457 0.34782952
v 0.66765171 0.43637052 0.28865385
v 0.76497769 0.33600363 0.21360378
v 0.43355271 0.60737276 0.40006527
v 0.55223972 0.52192891 0.35454929
v 0.49941453 0.49823335 0.46896201
v 0.83279866 0.06587406 0.64905083
v 0.83043259 0.10574140 0.57722032
v 0.91239041 0.02705909 0.48896056
v 0.63115400 0.13799340 0.66833854
v 0.72870237 0.07828703 0.59450924
v 0.66874903 0.05576274 0.73889536
v 0.85096538 0.07676959 0.30314040
v 0.79275900 0.10397431 0.46384975
v 0.77317697 0.17488888 0.38776818
v 0.11366997 0.40787771 0.81548011
v 0.27106175 0.35498080 0.75969529
v 0.15270938 0.31230503 0.86801738
v 0.42353594 0.46777815 0.58521485
v 0.35580906 0.43670857 0.67457056
v 0.25946784 0.53350204 0.60557425
v 0.43875900 0.18272544 0.84329635
v 0.38898891 0.25333601 0.73564345
v 0.52801609 0.23645906 0.73186105
v 0.69400442 0.26202959 0.48214677
v 0.60699594 0.27160391 0.61223477
v 0.56100547 0.38648435 0.53086454
v 0.41810840 0.64704597 0.11472557
v 0.43496761 0.53323269 -0.03222270
v 0.30929187 0.67233419 0.39684978
v 0.38082305 0.69221222 0.27461946
v 0.19078158 0.58447963 0.03647011
v 0.29326007 0.67641962 0.16197051
v 0.12166884 0.62046200 0.17829165
v -0.04444913 0.43738452 0.80816686
v 0.04334624 0.52012676 0.71269417
v -0.07270330 0.67245835 0.56450903
v -0.02282575 0.58249605 0.66122049
v -0.17665642 0.60052270 0.64114702
v 0.16073371 0.58860165 0.63524956
v 0.21272659 0.65943694 0.52998149
v -0.39567530 0.68251669 0.00939482
v -0.32012901 0.77369690 0.14602868
v -0.46208611 0.76624370 0.15402135
v -0.02535222 0.64192748 0.16655214
v -0.15828128 0.77463233 0.15724620
v -0.11801483 0.60889578 0.08382098
v -0.29518414 0.71679443 0.38339916
v -0.24664095 0.79692769 0.26127875
v -0.17306940 0.76111734 0.39588407
v 0.16911764 0.71993983 0.44385901
v -0.00808135 0.73306525 0.44622409
v 0.06568294 0.62348169 0.33359861
v 0.37971568 0.63002622 -0.11636263
v 0.53670561 0.63989800 -0.11714759
v 0.16929905 0.58088666 -0.12282839
v 0.27017164 0.53578860 -0.08929276
v 0.41096905 0.68737561 -0.35499686
v 0.31935376 0.72113818 -0.21773335
v 0.26833746 0.74461168 -0.34321460
v -0.47683290 0.73472238 -0.12444669
v -0.35425529 0.61443621 -0.11757668
v -0.21091220 0.50220180 -0.30601847
v -0.23397972 0.60826361 -0.22595839
v -0.34417000 0.56993586 -0.34624827
v -0.19244877 0.57373399 -0.07977343
v -0.04662311 0.60003114 -0.09364705
v 0.06079638 0.53054261 -0.75013578
v -0.00143275 0.62103128 -0.68200302
v -0.10872287 0.51772618 -0.75024509
v 0.18554650 0.71515244 -0.49664846
v 0.08583801 0.70590520 -0.58654869
v 0.25389215 0.66868496 -0.59497344
v -0.14755024 0.51846099 -0.60132599
v -0.09207061 0.69740009 -0.58341593
v -0.11354133 0.60570836 -0.45770267
v 0.08055098 0.58982199 -0.23808526
v -0.04095135 0.57518327 -0.36779943
v 0.11625221 0.71152991 -0.33011076
v 0.60963368 0.62371898 -0.21062894
v 0.64348322 0.57525653 -0.09354549
v 0.48607340 0.62195075 -0.45478767
v 0.57409680 0.63097543 -0.35932940
v 0.76067764 0.45651087 -0.24568072
v 0.65652353 0.55118704 -0.33053419
v 0.71877509 0.46606278 -0.38245255
v 0.08824992 0.38481933 -0.84896356
v 0.21210641 0.47311208 -0.79924172
v 0.45795739 0.34711570 -0.78833705
v 0.32785964 0.40931109 -0.79560077
v 0.35050896 0.23208246 -0.86630821
v 0.29978779 0.54506731 -0.69636184
v 0.39330867 0.59024143 -0.60833770
v 0.89931536 0.03210002 -0.53512120
v 0.80743688 0.14185640 -0.62015569
v 0.80899209 0.05535215 -0.66966069
v 0.77046168 0.31801245 -0.49557018
v 0.83215171 0.21463746 -0.55708075
v 0.86796677 0.24230099 -0.39826661
v 0.57399797 0.18727674 -0.81722975
v 0.70441657 0.22225855 -0.70414340
v 0.59794277 0.29852229 -0.74242467
v 0.51234037 0.53542131 -0.59416789
v 0.57896733 0.41639426 -0.66443002
v 0.66315168 0.41144177 -0.55271858
v 0.73457444 0.47568846 0.00668032
v 0.85048038 0.33048716 -0.16654338
v 0.79522675 0.41097426 -0.08295456
v 0.80494159 0.37268236 0.06988119
v 0.82870680 0.23365422 0.11741556
v 0.95773143 0.13891447 -0.41178083
v 0.98098195 0.02693456 -0.39810833
v 1.06761992 0.01481663 -0.09593161
v 1.04439664 0.04927898 -0.23718245
v 1.03734815 0.13926330 -0.13102856
v 0.95088607 0.10712384 -0.31934679
v 0.92055178 0.21771519 -0.26638073
v 0.96572208 0.03385205 0.33429515
v 0.95618439 0.15391153 0.43038553
v 0.86686349 0.09873464 0.18030451
v 0.92349827 0.00000000 0.23840433
v 1.04794705 0.16848437 0.13798575
v 1.01671755 0.09012847 0.19564867
v 1.06879258 0.03407646 0.07510132
v 0.92143780 0.21433739 -0.10073598
v 1.00102913 0.06512248 -0.06188880
v 0.91677076 0.13962324 0.04746626
v 0.13922596 0.19244429 0.93955326
v 0.43910727 0.10212926 0.90135282
v 0.29920900 0.13374752 0.91731673
v 0.17758134 0.09078723 0.97869158
v 0.16508089 0.00707251 1.06712246
v 0.75859916 0.15570463 0.74018478
v 0.51004350 0.28925270 0.86604655
v 0.64161557 0.22969548 0.82700425
v 0.66743726 0.07809164 0.83269161
v 0.57354975 0.01869183 0.88737488
v 0.09300515 0.41949674 0.94364017
v 0.13742192 0.14288104 1.04329884
v 0.09644548 0.27417728 0.98746526
v 0.22719672 0.39310220 0.94508439
v 0.35068128 0.34747544 0.91208684
v 0.45570940 0.04991225 0.97336626
v 0.39311892 0.22182155 0.95678359
v 0.29706344 0.09632518 1.01907003
v -0.53768730 0.70229924 0.23091042
v -0.38858432 0.62106055 0.46002048
v -0.47369415 0.70567513 0.37408650
v -0.61355680 0.61697114 0.32386518
v -0.67915058 0.52637637 0.40647390
v -0.21618244 0.38626832 0.83299243
v -0.45988339 0.30818394 0.74854058
v -0.32777479 0.33302730 0.77193260
v -0.25901663 0.48582566 0.73401296
v -0.31040838 0.58344859 0.62455720
v -0.80066955 0.11417239 0.54881144
v -0.75681621 0.37499362 0.47106829
v -0.78442556 0.24328862 0.51674956
v -0.70524615 0.22453494 0.62611556
v -0.60949546 0.27717036 0.69124973
v -0.45836225 0.54561043 0.61155868
v -0.54594678 0.40437475 0.66057193
v -0.61246943 0.45875925 0.54065591
v -0.24499987 0.44719830 -0.78677547
v -0.33166462 0.51856035 -0.57253921
v -0.30510879 0.48328927 -0.68806142
v -0.38029483 0.38770491 -0.78704190
v -0.48197010 0.31751972 -0.75327599
v -0.55338687 0.67875910 -0.23167495
v -0.68641144 0.45305690 -0.36165258
v -0.62420523 0.57131374 -0.27929866
v -0.50911498 0.62966633 -0.37889275
v -0.44794700 0.60855818 -0.48373449
v -0.81710458 0.12551959 -0.55364835
v -0.62485325 0.23782639 -0.69289732
v -0.71073043 0.15552470 -0.60782158
v -0.79203504 0.19348820 -0.48370460
v -0.74372828 0.30180141 -0.45457017
v -0.53574502 0.50486779 -0.52700013
v -0.64219081 0.39384493 -0.49660534
v -0.56159300 0.35512772 -0.62185311
v 0.73429257 0.07718893 -0.72863972
v 0.50183070 0.08159080 -0.87479430
v 0.63109046 0.04397247 -0.83482802
v 0.64707208 0.14446187 -0.79752094
v 0.54281676 0.21481854 -0.85713571
v 0.08841231 0.24394560 -0.92713213
v 0.11342590 0.02875783 -1.03581977
v 0.07416639 0.08806734 -0.97764528
v 0.20375577 0.15348750 -0.91993725
v 0.34852162 0.10384525 -0.90331388
v 0.13253601 0.38954708 -0.94118226
v 0.40553373 0.27172458 -0.90897083
v 0.27502197 0.32605955 -0.92896718
v 0.14613962 0.26179275 -0.98880297
v 0.13084212 0.15212429 -1.03492880
v 0.39551505 0.00413761 -0.95714337
v 0.27497622 0.09315057 -1.02920592
v 0.42881677 0.13973811 -0.94308221
v 0.94708109 0.28455913 0.38594261
v 1.02632320 0.27967703 0.07803379
v 0.99616659 0.29460993 0.22585623
v 0.93202621 0.39894107 0.31964189
v 0.89844376 0.51763350 0.23771162
v 0.95542175 0.25801405 -0.37065539
v 0.87545246 0.46436709 -0.25169510
v 0.92179352 0.34180340 -0.29920834
v 0.99671024 0.24998331 -0.22627456
v 1.02375257 0.26366702 -0.08686307
v 0.67774177 0.78124434 -0.01440097
v 0.82822233 0.62774199 0.14500122
v 0.74839258 0.70828182 0.06397378
v 0.75175422 0.69069237 -0.10175801
v 0.82613039 0.59808040 -0.17218073
v 0.96998274 0.39388198 0.00456456
v 0.90739542 0.48872706 -0.09996230
v 0.90850574 0.51445162 0.07410535
f 330 87 329
f 336 325 26
f 207 208 56
f 464 36 580
f 502 129 504
f 157 624 622
f 308 311 82
f 247 223 248
f 507 483 508
f 331 88 329
f 494 500 497
f 156 601 602
f 591 589 592
f 365 98 596
f 75 281 282
f 152 587 577
f 149 559 560
f 555 121 553
f 530 141 529
f 515 517 139
f 361 594 98
f 250 67 249
f 157 608 609
f 294 293 209
f 317 81 316
f 557 338 26
f 303 305 81
f 530 529 528
f 101 381 382
f 415 418 111
f 192 184 50
f 412 110 411
f 20 384 256
f 131 594 486
f 281 264 282
f 347 287 348
f 28 349 582
f 165 163 1
f 248 250 66
f 617 107 398
f 273 271 274
f 456 115 453
f 558 561 560
f 335 576 91
f 331 177 332
f 116 433 436
f 351 370 92
f 136 511 530
f 239 240 65
f 247 258 19
f 304 23 567
f 148 557 570
f 214 208 58
f 440 426 450
f 268 270 269
f 258 247 268
f 204 202 16
f 466 125 465
f 517 513 133
f 168 275 274
f 275 73 274
f 198 193 53
f 309 308 307
f 510 511 136
f 415 416 110
f 131 490 597
f 473 475 474
f 414 415 111
f 493 495 494
f 496 504 485
f 433 116 432
f 600 375 601
f 240 234 65
f 418 415 412
f 486 361 3
f 567 566 304
f 380 393 29
f 17 199 197
f 491 492 132
f 451 449 435
f 218 217 216
f 623 621 613
f 396 104 395
f 433 439 436
f 628 160 627
f 215 202 217
f 209 207 2
f 427 113 424
f 434 10 544
f 434 433 432
f 199 17 210
f 150 564 565
f 489 491 132
f 275 13 285
f 497 500 134
f 125 466 476
f 578 152 577
f 208 214 211
f 328 88 343
f 356 27 603
f 150 566 567
f 372 100 371
f 190 191 47
f 235 8 398
f 260 261 72
f 422 403 414
f 422 414 111
f 453 454 123
f 349 583 582
f 521 520 519
f 425 453 115
f 616 622 158
f 483 130 508
f 151 586 572
f 212 17 232
f 400 397 402
f 377 396 99
f 41 522 511
f 510 508 505
f 549 547 42
f 475 473 36
f 510 137 509
f 222 221 197
f 430 115 429
f 220 194 1
f 305 54 204
f 621 29 613
f 192 171 184
f 460 335 5
f 88 331 332
f 74 277 279
f 300 301 80
f 390 389 388
f 165 45 164
f 146 549 551
f 291 278 75
f 448 120 445
f 147 543 544
f 607 610 609
f 603 602 356
f 139 529 514
f 333 553 443
f 92 368 347
f 261 260 259
f 300 6 200
f 46 177 331
f 284 283 174
f 301 300 200
f 471 468 474
f 54 305 301
f 302 304 303
f 569 150 567
f 150 569 570
f 294 209 2
f 628 629 160
f 548 543 147
f 147 625 627
f 63 233 234
f 426 427 114
f 41 509 532
f 198 52 196
f 614 105 612
f 147 627 547
f 81 305 306
f 549 548 547
f 54 301 200
f 342 88 332
f 264 281 70
f 193 194 53
f 455 429 456
f 187 321 14
f 479 130 484
f 147 544 625
f 458 456 453
f 304 80 303
f 314 84 313
f 488 503 501
f 321 332 14
f 423 425 424
f 305 204 306
f 341 339 25
f 514 40 516
f 625 628 627
f 340 339 341
f 105 614 391
f 243 228 62
f 318 316 78
f 75 278 279
f 357 355 353
f 238 257 63
f 466 455 476
f 425 423 4
f 448 449 120
f 408 638 108
f 292 275 285
f 22 278 289
f 515 513 517
f 501 503 134
f 622 623 158
f 134 503 504
f 195 216 206
f 163 271 246
f 619 617 620
f 62 228 229
f 163 165 164
f 453 425 454
f 489 132 488
f 82 628 625
f 58 208 209
f 525 608 40
f 626 547 627
f 518 517 498
f 489 487 491
f 557 26 564
f 325 336 344
f 541 145 539
f 40 616 516
f 338 556 89
f 250 248 245
f 139 514 515
f 98 594 596
f 246 220 1
f 112 413 630
f 9 536 413
f 156 600 601
f 332 177 14
f 321 342 332
f 156 606 600
f 584 330 585
f 302 303 81
f 584 87 330
f 330 25 585
f 400 239 65
f 439 440 117
f 95 358 368
f 597 594 131
f 594 361 486
f 246 67 245
f 561 562 149
f 28 364 362
f 55 216 217
f 427 430 114
f 267 20 254
f 556 555 553
f 84 309 558
f 311 310 312
f 609 525 142
f 256 68 255
f 124 460 461
f 82 311 312
f 307 308 82
f 589 135 495
f 527 40 514
f 112 418 412
f 20 256 254
f 258 238 19
f 267 254 269
f 273 272 249
f 392 391 393
f 137 533 509
f 122 455 456
f 9 413 411
f 130 480 505
f 333 443 5
f 527 525 40
f 589 495 385
f 39 496 485
f 223 225 224
f 414 416 415
f 219 222 53
f 145 538 539
f 413 412 411
f 469 468 467
f 183 181 6
f 191 192 50
f 429 35 431
f 292 285 76
f 413 112 412
f 415 110 412
f 43 164 167
f 467 468 126
f 617 101 620
f 450 451 117
f 438 546 545
f 619 620 159
f 17 212 210
f 124 579 576
f 584 153 583
f 460 124 576
f 3 469 467
f 311 308 314
f 6 320 183
f 389 104 388
f 251 250 249
f 194 165 1
f 291 289 278
f 287 77 348
f 238 258 257
f 139 517 518
f 238 236 19
f 223 247 19
f 382 380 29
f 39 518 498
f 361 359 3
f 69 255 257
f 139 518 528
f 33 545 535
f 387 385 7
f 69 268 269
f 477 462 125
f 454 479 123
f 121 555 447
f 451 435 117
f 454 425 4
f 233 252 8
f 124 463 464
f 69 258 268
f 168 167 166
f 583 153 582
f 384 394 102
f 138 512 513
f 57 210 211
f 254 256 255
f 607 609 142
f 324 319 86
f 289 291 76
f 291 292 76
f 384 102 383
f 422 421 420
f 221 17 197
f 383 102 381
f 376 377 99
f 99 373 374
f 386 105 392
f 438 33 440
f 90 341 343
f 281 75 279
f 574 571 96
f 628 82 312
f 221 222 59
f 127 471 474
f 595 605 603
f 551 538 145
f 334 91 340
f 322 324 85
f 305 303 301
f 18 239 399
f 306 204 16
f 199 198 197
f 166 190 180
f 303 80 301
f 267 266 265
f 626 42 547
f 16 215 213
f 349 351 350
f 295 16 213
f 68 379 252
f 250 251 66
f 627 160 626
f 383 68 256
f 343 88 342
f 507 508 136
f 202 215 16
f 197 198 53
f 254 69 269
f 603 605 156
f 418 419 111
f 384 383 256
f 455 122 476
f 203 204 54
f 556 557 148
f 255 68 253
f 313 84 560
f 25 328 341
f 254 255 69
f 603 156 602
f 581 584 583
f 630 632 112
f 163 246 1
f 246 245 220
f 432 116 558
f 499 591 590
f 320 563 86
f 345 93 350
f 306 16 295
f 346 93 345
f 562 568 149
f 604 605 155
f 154 592 593
f 545 552 535
f 511 522 530
f 574 573 571
f 566 150 565
f 361 98 360
f 67 271 273
f 234 235 65
f 208 211 56
f 574 151 573
f 251 270 66
f 398 8 378
f 213 215 214
f 438 440 439
f 315 314 313
f 263 71 262
f 20 373 384
f 496 134 504
f 329 88 328
f 81 306 316
f 555 556 148
f 592 589 103
f 617 619 107
f 227 207 56
f 571 359 96
f 446 466 465
f 206 216 55
f 359 571 469
f 568 148 570
f 34 437 435
f 28 351 349
f 21 272 282
f 113 423 424
f 490 489 488
f 379 68 383
f 210 212 211
f 80 563 300
f 351 92 350
f 326 346 12
f 83 317 318
f 555 148 554
f 212 231 56
f 218 57 217
f 271 67 246
f 195 196 52
f 270 268 66
f 390 592 103
f 148 568 554
f 495 493 7
f 592 390 593
f 357 95 355
f 574 575 151
f 452 120 451
f 154 591 592
f 587 585 577
f 395 394 396
f 93 349 350
f 610 416 611
f 166 44 190
f 315 23 302
f 315 302 317
f 268 247 66
f 606 154 593
f 396 394 99
f 211 212 56
f 370 369 368
f 235 397 65
f 280 278 22
f 83 315 317
f 575 588 151
f 74 279 280
f 385 495 7
f 63 257 253
f 397 235 398
f 214 58 213
f 220 219 194
f 546 146 545
f 236 225 19
f 599 94 602
f 235 233 8
f 102 394 395
f 611 416 32
f 225 223 19
f 139 528 529
f 231 62 229
f 419 406 421
f 451 450 452
f 49 182 185
f 402 397 107
f 52 199 218
f 416 610 110
f 225 236 244
f 107 397 398
f 68 252 253
f 322 85 321
f 182 181 183
f 118 438 439
f 546 438 118
f 348 77 345
f 543 546 118
f 231 212 232
f 610 611 157
f 33 438 545
f 385 386 103
f 479 480 130
f 169 195 15
f 93 583 349
f 15 195 206
f 190 44 192
f 247 248 66
f 146 552 545
f 248 60 245
f 570 557 564
f 274 271 43
f 63 253 233
f 272 21 249
f 507 528 518
f 67 273 249
f 487 467 126
f 196 195 169
f 624 159 623
f 134 496 497
f 132 503 488
f 104 393 395
f 556 553 89
f 355 356 94
f 258 69 257
f 229 61 227
f 56 231 227
f 460 576 335
f 463 124 461
f 394 373 99
f 29 393 391
f 67 250 245
f 193 198 196
f 462 36 464
f 144 633 630
f 141 526 527
f 517 133 498
f 536 144 630
f 100 372 599
f 144 536 537
f 22 289 287
f 578 579 152
f 579 578 576
f 189 188 187
f 60 223 224
f 92 348 350
f 555 554 447
f 396 377 388
f 194 193 165
f 413 536 630
f 372 352 599
f 377 376 375
f 348 345 350
f 105 386 387
f 240 237 234
f 463 462 464
f 135 500 494
f 45 196 169
f 512 612 387
f 245 60 220
f 429 115 456
f 223 60 248
f 288 289 76
f 525 526 142
f 100 599 601
f 613 29 391
f 526 523 520
f 341 328 343
f 631 641 639
f 264 21 282
f 266 72 265
f 106 402 403
f 73 273 274
f 186 206 205
f 381 379 383
f 52 216 195
f 410 18 399
f 290 272 73
f 72 371 374
f 526 525 527
f 115 430 424
f 498 497 496
f 621 382 29
f 543 118 434
f 214 215 57
f 522 141 530
f 511 510 509
f 352 94 599
f 493 512 7
f 90 340 341
f 169 171 170
f 605 604 606
f 219 60 224
f 104 389 392
f 359 469 3
f 186 49 185
f 222 219 224
f 166 167 44
f 428 427 426
f 523 522 524
f 129 502 481
f 50 185 188
f 164 45 170
f 425 115 424
f 33 428 426
f 427 428 113
f 94 356 602
f 515 138 513
f 114 431 452
f 237 236 238
f 215 217 57
f 95 354 355
f 220 60 219
f 515 514 516
f 183 320 319
f 222 197 53
f 559 569 567
f 300 320 6
f 435 436 117
f 96 360 363
f 640 642 641
f 242 243 62
f 140 537 519
f 508 130 505
f 420 410 399
f 537 539 144
f 317 316 318
f 426 114 450
f 186 15 206
f 311 83 310
f 625 544 307
f 544 10 307
f 168 43 167
f 185 182 188
f 369 354 95
f 44 171 192
f 605 606 156
f 548 549 146
f 100 601 375
f 149 568 569
f 381 380 382
f 455 466 35
f 480 479 454
f 543 548 546
f 493 133 513
f 492 472 37
f 477 125 476
f 491 487 126
f 337 336 338
f 588 153 587
f 576 578 91
f 633 161 632
f 96 359 360
f 39 485 483
f 101 617 378
f 193 45 165
f 163 164 43
f 618 624 611
f 507 136 528
f 561 149 560
f 641 162 639
f 116 561 558
f 494 133 493
f 253 252 233
f 63 237 238
f 392 393 104
f 440 450 117
f 93 581 583
f 386 385 387
f 120 449 451
f 421 422 111
f 486 3 467
f 302 81 317
f 633 632 630
f 462 475 36
f 376 99 374
f 489 490 131
f 447 449 448
f 387 612 105
f 106 420 399
f 173 46 172
f 492 491 472
f 316 306 295
f 22 287 347
f 109 410 420
f 507 39 483
f 559 23 313
f 214 57 211
f 196 45 193
f 10 434 432
f 422 106 403
f 626 160 640
f 487 486 467
f 542 41 532
f 400 106 399
f 444 120 452
f 198 199 52
f 475 127 474
f 621 620 382
f 621 623 159
f 450 114 452
f 92 347 348
f 376 100 375
f 434 118 433
f 503 132 502
f 337 90 336
f 537 536 519
f 395 393 380
f 201 54 200
f 171 44 170
f 355 94 353
f 58 296 213
f 422 420 106
f 595 365 596
f 569 568 570
f 523 140 520
f 114 430 431
f 218 210 57
f 304 566 80
f 639 162 638
f 261 371 72
f 548 147 547
f 498 133 497
f 150 570 564
f 222 224 59
f 142 526 520
f 437 436 435
f 141 522 523
f 137 510 505
f 173 179 176
f 559 149 569
f 121 447 448
f 563 320 300
f 102 395 380
f 257 255 253
f 642 162 641
f 83 311 314
f 216 52 218
f 512 493 513
f 23 304 302
f 91 339 340
f 512 138 612
f 159 620 621
f 218 199 210
f 364 28 575
f 83 318 310
f 168 274 43
f 136 530 528
f 140 523 524
f 495 135 494
f 233 235 234
f 566 563 80
f 25 339 577
f 277 74 276
f 475 462 477
f 133 494 497
f 436 437 116
f 389 386 392
f 548 146 546
f 441 460 5
f 10 309 307
f 65 397 400
f 543 434 544
f 640 641 161
f 272 273 73
f 581 93 346
f 419 421 111
f 319 320 86
f 180 179 178
f 127 475 477
f 231 229 227
f 337 334 340
f 136 508 510
f 308 309 84
f 237 63 234
f 447 554 34
f 252 379 378
f 315 83 314
f 608 622 616
f 338 336 26
f 337 338 89
f 13 275 168
f 209 208 207
f 436 439 117
f 628 312 629
f 360 366 363
f 364 574 96
f 359 361 360
f 466 446 35
f 500 501 134
f 406 109 421
f 135 589 591
f 601 599 602
f 340 90 337
f 481 492 37
f 522 41 524
f 78 316 295
f 131 486 487
f 403 32 414
f 634 626 640
f 151 572 573
f 515 516 138
f 8 252 378
f 265 72 374
f 9 521 519
f 538 549 42
f 368 358 347
f 588 587 586
f 458 453 123
f 589 385 103
f 502 492 481
f 32 416 414
f 430 427 424
f 153 585 587
f 540 144 539
f 370 368 92
f 209 293 58
f 428 33 535
f 326 581 346
f 625 307 82
f 575 28 582
f 6 181 200
f 421 109 420
f 553 121 443
f 160 642 640
f 153 584 585
f 309 432 558
f 334 337 89
f 23 315 313
f 271 163 43
f 296 295 213
f 39 498 496
f 118 439 433
f 531 113 534
f 293 296 58
f 28 362 351
f 489 131 487
f 431 444 452
f 84 558 560
f 98 366 360
f 45 169 170
f 379 101 378
f 462 463 125
f 308 84 314
f 10 432 309
f 299 24 310
f 132 492 502
f 512 387 7
f 639 638 408
f 565 323 86
f 59 244 242
f 106 400 402
f 440 33 426
f 566 565 563
f 617 398 378
f 224 225 59
f 410 109 409
f 239 400 399
f 194 219 53
f 358 22 347
f 610 157 609
f 27 595 603
f 479 484 482
f 142 520 521
f 585 25 577
f 339 578 577
f 408 407 406
f 407 109 406
f 31 408 406
f 407 408 108
f 31 639 408
f 419 31 406
f 608 616 40
f 430 429 431
f 455 35 429
f 35 444 431
f 188 51 187
f 188 182 51
f 51 322 187
f 322 51 319
f 51 182 183
f 319 51 183
f 187 322 321
f 322 319 324
f 381 101 379
f 405 407 108
f 404 405 108
f 286 285 178
f 407 405 409
f 109 407 409
f 191 175 47
f 167 164 170
f 50 184 185
f 44 167 170
f 64 244 236
f 243 244 64
f 50 188 189
f 541 542 145
f 442 445 119
f 339 91 578
f 445 446 119
f 624 623 622
f 611 624 157
f 523 526 141
f 141 527 529
f 527 514 529
f 445 120 444
f 446 445 444
f 35 446 444
f 613 614 158
f 158 614 615
f 623 613 158
f 614 613 391
f 614 612 615
f 371 376 374
f 100 376 371
f 479 482 123
f 373 394 384
f 540 42 634
f 633 540 634
f 538 42 540
f 633 634 161
f 161 634 640
f 42 626 634
f 540 633 144
f 557 556 338
f 553 333 89
f 262 21 264
f 251 21 262
f 5 335 333
f 270 251 262
f 21 251 249
f 600 593 30
f 606 593 600
f 600 30 375
f 593 390 30
f 30 377 375
f 390 388 30
f 30 388 377
f 228 243 241
f 470 478 459
f 470 127 478
f 127 477 478
f 184 186 185
f 478 477 476
f 122 478 476
f 357 74 280
f 518 39 507
f 344 342 85
f 325 344 85
f 342 344 343
f 85 342 321
f 344 90 343
f 90 344 336
f 482 129 481
f 482 481 457
f 482 457 123
f 481 37 457
f 449 447 34
f 435 449 34
f 470 472 471
f 472 470 37
f 470 471 127
f 472 126 471
f 126 468 471
f 470 459 37
f 491 126 472
f 504 129 485
f 221 59 242
f 125 463 465
f 437 34 562
f 561 437 562
f 554 568 562
f 34 554 562
f 437 561 116
f 390 103 389
f 103 386 389
f 392 105 391
f 572 586 580
f 572 580 36
f 586 152 580
f 473 572 36
f 244 243 242
f 225 244 59
f 64 240 241
f 240 239 241
f 237 240 64
f 243 64 241
f 236 237 64
f 411 607 521
f 9 411 521
f 110 607 411
f 607 142 521
f 610 607 110
f 171 15 184
f 171 169 15
f 15 186 184
f 87 584 581
f 153 588 582
f 588 575 582
f 381 102 380
f 573 572 473
f 468 469 128
f 474 468 128
f 469 571 128
f 571 573 128
f 573 473 128
f 473 474 128
f 564 323 565
f 26 323 564
f 323 324 86
f 325 323 26
f 325 324 323
f 563 565 86
f 324 325 85
f 410 230 18
f 230 228 18
f 18 228 241
f 18 241 239
f 401 619 618
f 401 402 107
f 403 402 401
f 619 159 618
f 401 618 32
f 619 401 107
f 403 401 32
f 618 611 32
f 159 624 618
f 478 122 459
f 122 458 459
f 37 459 457
f 459 458 457
f 122 456 458
f 457 458 123
f 191 190 192
f 485 129 484
f 129 482 484
f 483 485 484
f 130 483 484
f 189 187 14
f 191 50 189
f 191 189 175
f 189 14 175
f 14 177 175
f 499 501 500
f 501 499 38
f 38 499 590
f 135 499 500
f 488 501 38
f 499 135 591
f 480 454 4
f 284 12 346
f 4 423 506
f 480 4 506
f 423 531 506
f 480 506 505
f 531 137 506
f 506 137 505
f 365 366 98
f 71 270 262
f 270 71 269
f 71 267 269
f 335 334 333
f 333 334 89
f 334 335 91
f 536 9 519
f 465 463 461
f 537 140 541
f 520 140 519
f 119 446 465
f 465 461 119
f 461 441 119
f 460 441 461
f 176 46 173
f 299 297 24
f 71 263 266
f 263 260 266
f 260 72 266
f 263 70 260
f 205 201 49
f 201 181 49
f 186 205 49
f 181 201 200
f 181 182 49
f 284 77 283
f 586 587 152
f 588 586 151
f 20 267 265
f 266 267 71
f 31 417 631
f 631 417 632
f 31 631 639
f 417 31 419
f 641 631 161
f 417 112 632
f 161 631 632
f 418 417 419
f 417 418 112
f 284 345 77
f 542 550 145
f 542 541 524
f 284 174 12
f 48 174 283
f 373 20 265
f 373 265 374
f 609 608 525
f 608 157 622
f 560 559 313
f 636 637 162
f 541 140 524
f 41 542 524
f 358 357 280
f 70 263 264
f 263 262 264
f 176 177 46
f 174 48 173
f 174 173 172
f 538 551 549
f 538 540 539
f 537 541 539
f 232 221 242
f 17 221 232
f 232 242 62
f 231 232 62
f 203 205 55
f 203 55 202
f 201 205 203
f 202 55 217
f 205 206 55
f 204 203 202
f 73 275 292
f 292 290 73
f 272 290 282
f 290 292 291
f 75 290 291
f 290 75 282
f 70 277 259
f 277 70 281
f 277 281 279
f 260 70 259
f 12 174 172
f 104 396 388
f 367 27 354
f 365 27 367
f 354 27 356
f 365 367 366
f 595 27 365
f 318 299 310
f 155 596 597
f 155 597 598
f 596 594 597
f 595 596 155
f 605 595 155
f 180 47 179
f 180 190 47
f 352 372 11
f 11 372 261
f 312 310 24
f 642 636 162
f 636 297 637
f 367 369 97
f 366 367 97
f 369 367 354
f 369 370 97
f 580 579 464
f 580 152 579
f 579 124 464
f 61 230 409
f 230 410 409
f 230 61 229
f 230 229 228
f 76 285 286
f 353 352 276
f 74 353 276
f 288 76 286
f 288 286 283
f 289 288 287
f 203 54 201
f 287 288 77
f 77 288 283
f 286 48 283
f 531 423 113
f 276 11 259
f 11 261 259
f 277 276 259
f 616 158 615
f 516 616 615
f 138 516 615
f 138 615 612
f 509 533 532
f 503 502 504
f 635 79 294
f 635 294 404
f 635 637 79
f 637 635 638
f 638 635 108
f 635 404 108
f 226 61 405
f 61 226 227
f 405 61 409
f 227 226 207
f 48 178 179
f 48 286 178
f 173 48 179
f 534 143 533
f 534 535 143
f 531 534 533
f 533 143 532
f 137 531 533
f 261 372 371
f 13 180 178
f 285 13 178
f 180 13 166
f 13 168 166
f 346 345 284
f 331 327 46
f 46 327 172
f 172 327 326
f 382 620 101
f 442 121 448
f 443 121 442
f 2 226 404
f 294 2 404
f 404 226 405
f 207 226 2
f 550 551 145
f 552 146 551
f 143 550 532
f 552 550 143
f 330 329 328
f 24 636 629
f 94 352 353
f 352 11 276
f 113 428 534
f 428 535 534
f 509 41 511
f 535 552 143
f 550 552 551
f 550 542 532
f 369 95 368
f 326 327 87
f 87 327 329
f 327 331 329
f 581 326 87
f 293 79 298
f 79 297 298
f 296 298 78
f 79 293 294
f 296 293 298
f 598 490 38
f 358 280 22
f 280 279 278
f 357 358 95
f 74 357 353
f 330 328 25
f 567 23 559
f 590 598 38
f 590 604 598
f 598 604 155
f 604 590 154
f 590 591 154
f 604 154 606
f 297 299 298
f 299 318 78
f 298 299 78
f 355 354 356
f 629 636 642
f 312 24 629
f 629 642 160
f 370 362 97
f 362 363 97
f 363 366 97
f 364 363 362
f 362 370 351
f 96 363 364
f 297 636 24
f 162 637 638
f 637 297 79
f 490 488 38
f 598 597 490
f 441 442 119
f 443 442 441
f 443 441 5
f 442 448 445
f 296 78 295
f 326 12 172
f 575 574 364
f 47 175 176
f 175 177 176
f 47 176 179
