# FEM surface export ¡ª frame 646
# Vertices: 642  Faces: 1280
v -0.50638634 0.76650906 0.00760700
v 0.50060737 0.78306490 -0.01008419
v -0.52951461 0.52153951 0.03076536
v 0.51705420 0.46510696 -0.00980431
v 0.00821240 0.30084518 0.85572594
v 0.01144718 0.53398389 0.86236095
v 0.00535995 0.27352324 -0.84425634
v -0.01195593 0.54618883 -0.86085087
v 0.94599962 0.17123199 -0.60109478
v 0.94904709 0.17003922 0.59390289
v -0.94347543 0.15132779 -0.57889026
v -0.92565656 0.15733716 0.59106195
v -0.80851740 0.51455057 0.33307341
v -0.51644641 0.38171116 0.85930830
v -0.29604313 0.74291658 0.48692602
v 0.29032251 0.74624962 0.47804525
v -0.00027662 0.90158820 -0.00381432
v 0.28304219 0.76137829 -0.49420378
v -0.29973313 0.75570238 -0.48110166
v -0.52971822 0.38933083 -0.84999657
v -0.81081718 0.52724981 -0.30408624
v -1.10941613 0.18996707 -0.00121492
v 0.53211796 0.38574070 0.85478348
v 0.81670702 0.54147273 0.29912525
v -0.54339695 0.16682798 0.82688957
v 0.00187724 0.13114208 1.11625516
v -0.82771689 0.26294181 -0.31123108
v -0.78510582 0.24654509 0.31709200
v -0.00856580 0.12656467 -1.11988831
v -0.49938419 0.07272177 -0.83784288
v 0.80811846 0.54564601 -0.33996761
v 0.49948993 0.39229068 -0.86864781
v 0.82892960 0.22326054 0.32812068
v 0.52307397 0.13471447 0.85430568
v 0.27036262 0.49659359 0.45886773
v -0.27992219 0.56071335 0.46671900
v -0.02644391 0.37324518 0.01830339
v -0.32109493 0.34549418 -0.50920826
v 0.32450950 0.48298281 -0.45019805
v 0.53389418 0.13526434 -0.83472043
v 0.85247982 0.19214258 -0.29848087
v 1.11016297 0.19855359 -0.01349434
v -0.67785895 0.65884924 0.17504381
v -0.56469905 0.65000743 0.43012002
v -0.41287300 0.77341348 0.25083837
v -0.74633831 0.25573263 0.77008539
v -0.69613433 0.46309558 0.61109257
v -0.89546072 0.35511488 0.47073480
v -0.14735760 0.65621114 0.69668269
v -0.41599351 0.58688915 0.69955319
v -0.25708872 0.46365958 0.89156657
v -0.15550198 0.85234958 0.24547252
v -0.26132137 0.86118114 0.00012078
v 0.16012262 0.66361690 0.68277234
v -0.00243769 0.77235907 0.49948263
v 0.26185164 0.87250626 -0.00238185
v 0.15418378 0.85557222 0.24376966
v 0.41191408 0.78728771 0.23985323
v -0.16137236 0.85616273 -0.24707790
v -0.42119065 0.78698802 -0.24379967
v 0.40999085 0.80124432 -0.25808829
v 0.15437061 0.86483264 -0.25192526
v -0.17227195 0.66861182 -0.68864650
v -0.00666913 0.78707534 -0.50441134
v 0.13610162 0.67388409 -0.70140696
v -0.57653493 0.66300315 -0.41084278
v -0.68326509 0.66055453 -0.14768557
v -0.27116254 0.48747647 -0.87578458
v -0.43726030 0.59169614 -0.67882681
v -0.90217453 0.36245474 -0.45985714
v -0.69793427 0.46757334 -0.59937996
v -0.74676073 0.28179961 -0.75516266
v -0.85720164 0.53892457 0.01333404
v -1.08386540 0.16480359 -0.29678839
v -0.99783027 0.36410809 -0.17779595
v -0.98552489 0.37009913 0.17471841
v -1.05932820 0.19135356 0.31632853
v 0.56495506 0.65724969 0.40444535
v 0.66818982 0.67930663 0.13495292
v 0.27218670 0.46892425 0.87997365
v 0.42489091 0.57785088 0.67622358
v 0.91963059 0.37656206 0.45852545
v 0.70236039 0.49111879 0.59812647
v 0.76450616 0.30376482 0.75302058
v -0.27414420 0.27019882 1.02900839
v 0.00495531 0.34643143 1.02120340
v -0.78927290 0.00304337 0.76978624
v -0.57466257 0.13705637 0.94775951
v -0.00438451 0.10364278 1.06467807
v -0.29895613 0.02335780 1.05044627
v -0.27940115 0.25811553 0.88290304
v -0.97211057 0.00000000 0.17853889
v -0.92773366 0.10761786 0.49155715
v -0.93140948 0.09380266 -0.44071671
v -1.02172589 0.04073936 -0.16785996
v -0.70305467 0.36583784 0.15287174
v -0.87446690 0.23842973 0.03090232
v -0.67777467 0.39012882 -0.15523048
v -0.58392733 0.13486056 -0.94783008
v -0.78779840 0.00035938 -0.78044271
v -0.00648218 0.36438110 -1.01697683
v -0.28368133 0.29459736 -1.03000498
v -0.25167146 0.18645960 -0.88933039
v -0.26077780 0.02347449 -1.02685237
v 0.02051816 0.06236869 -1.03730643
v 0.40669814 0.60044307 -0.70885706
v 0.25374335 0.48134786 -0.90151411
v 0.67579824 0.67810160 -0.17596209
v 0.56017488 0.67783588 -0.43449065
v 0.74406463 0.28075713 -0.77567190
v 0.68553114 0.49103886 -0.63256460
v 0.89882171 0.36506191 -0.49862090
v 0.71777982 0.37156674 0.15164503
v 0.57817382 0.40447420 0.39683959
v 0.40297300 0.52101886 0.20677632
v 0.77174532 0.02306799 0.79107493
v 0.67844582 0.19885691 0.59130549
v 0.91556102 0.00025575 0.49613613
v 0.17619890 0.41661611 0.69623065
v 0.39317796 0.37968272 0.69235051
v 0.24148841 0.20027487 0.92787033
v 0.16115573 0.58040482 0.21416278
v 0.21998905 0.28423432 0.02850710
v -0.14627612 0.41618782 0.65367848
v 0.02941839 0.58119184 0.49765012
v -0.27644151 0.43879133 0.06236855
v -0.17622963 0.46322277 0.26480564
v -0.43925491 0.60026729 0.23403974
v 0.15446471 0.34220240 -0.24583928
v 0.43145406 0.35670573 -0.23335655
v -0.41156554 0.48443240 -0.25701278
v -0.21011657 0.33028424 -0.22352897
v 0.16878390 0.43550056 -0.66726011
v -0.03691673 0.42450479 -0.51053810
v -0.16223049 0.48380744 -0.68418992
v 0.60798597 0.37240139 -0.39187208
v 0.71282250 0.36348024 -0.15007295
v 0.27137077 0.28148383 -0.87802106
v 0.44853887 0.33121958 -0.63409477
v 0.93446076 0.00000000 -0.46866989
v 0.72888154 0.17399207 -0.59727299
v 0.78537863 0.00254278 -0.77259344
v 0.90067434 0.24327154 0.02319060
v 1.06340384 0.18634063 -0.31815416
v 1.02813041 0.00000000 -0.14870276
v 1.02178442 0.00000000 0.19964166
v 1.07399595 0.17374937 0.30509368
v 0.30049336 0.01583450 1.05183196
v 0.58855855 0.14774421 0.95821184
v 0.29045296 0.26547390 1.03571188
v -0.56727725 0.44380516 0.41340172
v -0.41142455 0.38879153 0.66864717
v -0.73549348 0.24238691 0.60818529
v -0.43586659 0.31836259 -0.71180940
v -0.58812678 0.40329212 -0.41784018
v -0.73269439 0.21946315 -0.62777603
v 0.57107061 0.13482234 -0.96418643
v 0.30565354 0.00475270 -1.04490101
v 0.27451202 0.27851087 -1.04141855
v 1.01979399 0.36325452 0.16416737
v 0.99210811 0.38399002 -0.19956152
v 0.85891008 0.55553889 -0.00909110
v -0.59484124 0.71929651 0.09052005
v -0.54719692 0.72389466 0.21378651
v -0.46101952 0.77580267 0.13113798
v -0.69133866 0.58627170 0.38118652
v -0.62464738 0.65748066 0.30266193
v -0.75242370 0.58896160 0.25241905
v -0.35590708 0.76259333 0.36759302
v -0.49337286 0.71425146 0.34042859
v -0.43763950 0.70180887 0.45727089
v -0.83961451 0.19818574 0.68802178
v -0.83145773 0.29768944 0.62007672
v -0.91694790 0.25073731 0.53483212
v -0.61810660 0.42845434 0.73851621
v -0.73755795 0.36658955 0.69024688
v -0.64100969 0.32493687 0.81626511
v -0.85663050 0.42819464 0.39504033
v -0.79608071 0.39447603 0.54577404
v -0.76248217 0.48929128 0.47219378
v -0.06615821 0.59779274 0.78579909
v -0.19996729 0.56560212 0.80400765
v -0.12264237 0.50063854 0.88668054
v -0.35737705 0.67364109 0.59751016
v -0.28379273 0.62595171 0.70757788
v -0.22639740 0.70561945 0.59746826
v -0.39545602 0.42947680 0.88841766
v -0.34038568 0.52598655 0.80444103
v -0.47427514 0.49109083 0.78315151
v -0.63840449 0.56221151 0.52499920
v -0.56519258 0.53066862 0.66085535
v -0.49649483 0.62529391 0.57207704
v -0.34213307 0.82622975 0.12598957
v -0.38664791 0.81874043 0.00273034
v -0.22761543 0.80190617 0.36696750
v -0.28700116 0.81913245 0.25013271
v -0.13322715 0.88807106 -0.00152042
v -0.20952307 0.86825448 0.12448889
v -0.07829991 0.88675547 0.12295547
v 0.09166247 0.60119921 0.77504027
v 0.00218156 0.66451603 0.69702351
v 0.14032231 0.76510364 0.49247661
v 0.07369583 0.72183901 0.59575236
v 0.22491746 0.70685768 0.58066547
v -0.07545082 0.71902668 0.60007584
v -0.14854725 0.76631719 0.49827477
v 0.38340583 0.83069789 -0.00338414
v 0.33964172 0.83710790 0.12262639
v 0.46088481 0.79185373 0.11546936
v 0.07807974 0.88926077 0.12168608
v 0.20932582 0.87261844 0.12214991
v 0.13179326 0.89653182 -0.00652017
v 0.35508436 0.77596778 0.36356017
v 0.28379250 0.83017749 0.24704309
v 0.22161433 0.80671597 0.36439213
v -0.08311494 0.81933326 0.37801102
v 0.07369328 0.82230830 0.37294665
v -0.00368979 0.86614680 0.24718888
v -0.34598288 0.83067501 -0.12373088
v -0.46820679 0.78302759 -0.11715575
v -0.08340661 0.88851273 -0.12489867
v -0.21373789 0.86677027 -0.12596379
v -0.36543256 0.77900791 -0.36658394
v -0.29181802 0.82592851 -0.24798587
v -0.23190030 0.81420815 -0.36559632
v 0.46049860 0.79752320 -0.13361099
v 0.34223545 0.84598255 -0.13056581
v 0.22074862 0.82136565 -0.37697911
v 0.28506136 0.83979011 -0.25930643
v 0.34918076 0.78712088 -0.37947953
v 0.21245326 0.87644637 -0.13045305
v 0.07702440 0.89309120 -0.13244353
v -0.09419979 0.61416721 -0.78103524
v -0.01794969 0.67770010 -0.70226765
v 0.06208776 0.61658901 -0.79094368
v -0.15425637 0.77807772 -0.49643236
v -0.09114339 0.73304635 -0.60255253
v -0.23432806 0.71788508 -0.58852977
v 0.21303630 0.72302443 -0.60334378
v 0.06316818 0.73544538 -0.60856664
v 0.13759826 0.78250533 -0.50487638
v -0.00592920 0.87285554 -0.25255507
v 0.07347240 0.83672988 -0.37737653
v -0.08302301 0.83447444 -0.37909260
v -0.55749905 0.73356372 -0.19581330
v -0.60039246 0.72173822 -0.06852780
v -0.43995318 0.71957684 -0.45467702
v -0.50222367 0.73177814 -0.32945102
v -0.75489002 0.59592360 -0.22529006
v -0.63491511 0.66548109 -0.28001496
v -0.70242006 0.60185695 -0.35830060
v -0.14180303 0.51835823 -0.87182397
v -0.22727887 0.58203363 -0.78459358
v -0.48657864 0.49511993 -0.76552403
v -0.36161903 0.54191923 -0.78039891
v -0.40392354 0.44280407 -0.86349356
v -0.30519572 0.63552320 -0.68917358
v -0.36799383 0.67951411 -0.58776724
v -0.93186516 0.26838973 -0.53819823
v -0.83583623 0.33314207 -0.61765438
v -0.85161281 0.21431617 -0.67397130
v -0.76755363 0.49727139 -0.45388347
v -0.80282277 0.41899809 -0.53292876
v -0.86403149 0.44209832 -0.38266003
v -0.64351630 0.33181706 -0.81883925
v -0.73438072 0.37780601 -0.68463594
v -0.62705678 0.43934268 -0.73205113
v -0.50923777 0.63557112 -0.55262923
v -0.57375377 0.53333414 -0.64286840
v -0.65168059 0.56889427 -0.50187856
v -0.69046658 0.67179799 0.01539685
v -0.84105772 0.53964138 -0.14583452
v -0.77124000 0.60408264 -0.06441733
v -0.77289718 0.60089326 0.09966934
v -0.84218180 0.52831250 0.17474660
v -1.01869798 0.15754198 -0.44693151
v -0.99580652 0.25445032 -0.39969954
v -1.05717516 0.26845464 -0.09649595
v -1.03738177 0.26256287 -0.24436958
v -1.09529328 0.16453417 -0.15601315
v -0.96145076 0.35577756 -0.32088804
v -0.90823060 0.44782999 -0.24046619
v -0.98283130 0.27568197 0.39985013
v -1.00836587 0.16543841 0.45968169
v -0.90388536 0.43952844 0.25374323
v -0.95678276 0.37274563 0.32625175
v -1.09587693 0.23319867 0.15479110
v -1.02790463 0.30114421 0.24463069
v -1.06446481 0.30476162 0.08170460
v -0.93936110 0.45385993 -0.07888193
v -1.00860012 0.36310461 -0.00148682
v -0.93870115 0.44904056 0.09210197
v 0.54436296 0.74448138 0.19359490
v 0.58851743 0.73014838 0.05935023
v 0.43123502 0.70857829 0.44906697
v 0.48764411 0.72987533 0.32396525
v 0.74631941 0.62003547 0.21760751
v 0.62125987 0.68106920 0.27654499
v 0.69921404 0.61407948 0.35296604
v 0.14058515 0.50582117 0.87234557
v 0.22253054 0.56362534 0.78157222
v 0.48135152 0.49458447 0.77124953
v 0.35199004 0.53235245 0.78012890
v 0.40602514 0.44207227 0.87692225
v 0.29219890 0.61916202 0.68124634
v 0.35981146 0.66094828 0.57726628
v 0.94695151 0.27997836 0.52514648
v 0.85178459 0.34141588 0.61038053
v 0.86860573 0.24671103 0.67503160
v 0.76787055 0.52883488 0.45383635
v 0.81383646 0.44085494 0.53543633
v 0.87487429 0.46746698 0.38543415
v 0.64766651 0.33979112 0.81345546
v 0.74090308 0.39831164 0.68134928
v 0.62639272 0.44424808 0.73394215
v 0.50695187 0.62139606 0.55000025
v 0.56742001 0.53985238 0.64247036
v 0.64225441 0.58386701 0.50106961
v -0.13764143 0.40243530 0.96504796
v 0.00546960 0.44236818 0.94825244
v -0.41797379 0.32191887 0.95518816
v -0.28464404 0.36207730 0.96465600
v 0.01123014 0.24370468 1.07430518
v -0.13705443 0.30205297 1.02842045
v -0.13932176 0.19929601 1.10169041
v -0.87368250 0.07464139 0.69939226
v -0.77295876 0.12566052 0.79118913
v -0.56084549 0.00000000 0.88479972
v -0.69825846 0.05083636 0.86564499
v -0.63206995 0.04445440 0.73378426
v -0.66176665 0.18138056 0.87554264
v -0.54876417 0.25178441 0.91001344
v -0.01426452 0.21645765 0.95703465
v -0.13716155 0.20007153 0.96149564
v -0.13863514 0.28464833 0.84554213
v -0.14625643 0.04952355 1.12009275
v -0.15242448 0.08377557 1.00120962
v 0.00633106 0.00769099 1.11208844
v -0.43499357 0.23013707 0.86102319
v -0.27656853 0.14749610 0.97241437
v -0.37807676 0.10535620 0.87634617
v -0.42733675 0.18755844 1.01039505
v -0.45368180 0.04473110 1.01816320
v -0.29667991 0.12362049 1.07260144
v -1.04216886 0.07706659 0.40977475
v -0.97870648 0.06147898 0.55692500
v -1.10050571 0.07746433 0.11364929
v -1.06393218 0.08369034 0.24064116
v -0.86661440 0.14744431 0.38288873
v -0.96325767 0.00683487 0.34429580
v -0.90891182 0.13675730 0.26048335
v -0.97353572 0.04585783 -0.51894701
v -1.03892875 0.02533321 -0.39451861
v -0.93435246 0.14644241 -0.22261924
v -0.97798818 0.13239422 -0.28511950
v -0.86326355 0.16200644 -0.36680952
v -1.07699406 0.01174328 -0.25295979
v -1.11502445 0.04192948 -0.08202189
v -0.63069421 0.45890793 0.10909671
v -0.70865911 0.42448875 0.00996387
v -0.61502218 0.47793809 -0.06349460
v -0.83336002 0.23776770 0.16757324
v -0.76746207 0.31184247 0.11955602
v -0.76114076 0.32902282 0.25667414
v -0.76884758 0.29875809 -0.22904491
v -0.78062332 0.34446919 -0.05227813
v -0.88307375 0.24934965 -0.12833957
v -1.01958597 0.00000000 0.01932135
v -0.95889890 0.13506204 -0.06494288
v -0.93727618 0.12012140 0.09917852
v -0.79274195 0.13058399 -0.78334290
v -0.88337696 0.09256223 -0.67950749
v -0.55721325 0.28003907 -0.91642135
v -0.68108630 0.20425305 -0.85951465
v -0.64405704 0.02989856 -0.81485403
v -0.69555533 0.04796970 -0.88372499
v -0.56359863 0.00075001 -0.94012290
v -0.00720096 0.45981717 -0.94137216
v -0.13765916 0.42652994 -0.95482969
v -0.13796112 0.22760671 -1.10120714
v -0.14608215 0.32243800 -1.03208935
v 0.00129287 0.26385188 -1.08552933
v -0.27118704 0.39862180 -0.95788711
v -0.40279424 0.35363653 -0.94243288
v -0.11912757 0.23270388 -0.87708861
v -0.14175180 0.09174932 -0.96478325
v 0.01932848 0.17258191 -0.94429284
v -0.39767364 0.00000000 -0.91871816
v -0.26876751 0.05894297 -0.94995636
v -0.36241826 0.10395454 -0.86419541
v -0.00614338 0.00574763 -1.10032105
v -0.11430275 0.00168516 -1.04451501
v -0.15488051 0.08543003 -1.11155176
v -0.44590181 0.23605506 -1.02103245
v -0.29337141 0.17570677 -1.08419347
v -0.43331543 0.07406993 -1.03568029
v 0.19733864 0.58572310 -0.80522853
v 0.12194044 0.51828319 -0.89025277
v 0.34491885 0.68964821 -0.60986733
v 0.27257746 0.64256734 -0.71022147
v 0.37423083 0.43925530 -0.88775659
v 0.33382466 0.54342979 -0.80953771
v 0.46104744 0.49667841 -0.79806167
v 0.58961278 0.73597038 -0.09496360
v 0.54470748 0.74530488 -0.21971872
v 0.68859529 0.61341858 -0.38946253
v 0.62502623 0.68064767 -0.30747223
v 0.74832398 0.61178404 -0.25430423
v 0.48638585 0.74507815 -0.34818545
v 0.42632669 0.72863162 -0.47587439
v 0.86114949 0.22876231 -0.69948632
v 0.83047885 0.32228687 -0.63942647
v 0.93202531 0.26408198 -0.55283672
v 0.60161209 0.44165823 -0.75973940
v 0.71288675 0.38225797 -0.70663112
v 0.62782180 0.33788702 -0.82101685
v 0.86007077 0.45685732 -0.42143297
v 0.79766631 0.43678030 -0.57228374
v 0.75014621 0.53181595 -0.49350238
v 0.48942170 0.64896709 -0.58197314
v 0.62649775 0.59462124 -0.53846359
v 0.55107337 0.55347729 -0.67807138
v 0.65395314 0.41158834 0.07621543
v 0.57430673 0.46417832 0.15791757
v 0.44176635 0.50034022 0.09524383
v 0.70181388 0.34975812 0.39016074
v 0.64780420 0.43435296 0.29095736
v 0.78949708 0.33040306 0.26154885
v 0.35443509 0.53245538 0.34896040
v 0.50172359 0.47685531 0.29354382
v 0.43678668 0.46260822 0.42336193
v 0.89163446 0.10086164 0.70399523
v 0.84345275 0.04496631 0.65087479
v 0.98258114 0.05123506 0.56799817
v 0.58771867 0.19154516 0.69893849
v 0.72330266 0.11742317 0.67889875
v 0.64686054 0.09487581 0.78420210
v 0.86631912 0.09916309 0.42220572
v 0.80064994 0.10272590 0.54831529
v 0.76888907 0.20855248 0.47203827
v 0.08778795 0.37267625 0.78949219
v 0.18553349 0.31403464 0.82286990
v 0.11540436 0.22075744 0.88805461
v 0.33243719 0.41416553 0.57813543
v 0.27255407 0.37497637 0.72611809
v 0.22525002 0.47326794 0.61295658
v 0.37750280 0.18472908 0.87674534
v 0.31918591 0.28896046 0.82996416
v 0.44738963 0.27894568 0.77213055
v 0.63546288 0.31272796 0.53334266
v 0.55426991 0.32516384 0.65133226
v 0.49462226 0.39541811 0.54917681
v 0.32678756 0.35052988 0.14766409
v 0.36595124 0.35651740 0.03639016
v 0.20489980 0.54330117 0.36589327
v 0.27668408 0.46999064 0.28008428
v 0.11228699 0.37822467 0.01428722
v 0.17928874 0.41786218 0.16372363
v 0.10069123 0.44924477 0.11711611
v -0.08255658 0.36330345 0.76151931
v 0.00392007 0.40276787 0.67932642
v -0.11597710 0.56095248 0.48367152
v -0.06538892 0.51500857 0.58893514
v -0.21733136 0.50317329 0.57808077
v 0.10634586 0.49835357 0.58838892
v 0.14688800 0.53584790 0.47280261
v -0.40316010 0.43169141 0.04747719
v -0.35330254 0.56361926 0.15684739
v -0.49542075 0.56836015 0.13860467
v -0.07895950 0.43695539 0.11021126
v -0.20632474 0.56991392 0.13424638
v -0.16281559 0.41150346 0.05243765
v -0.33592409 0.59392768 0.33570233
v -0.29378891 0.61423218 0.24943992
v -0.19369449 0.61613196 0.37403491
v 0.08709187 0.61038285 0.36253139
v -0.05157595 0.62396234 0.35433072
v 0.00169221 0.45013511 0.25453052
v 0.34044155 0.33018830 -0.11280138
v 0.45522070 0.47272578 -0.11778746
v 0.07266809 0.33694753 -0.12144478
v 0.20158300 0.31490529 -0.11539470
v 0.38331804 0.49377543 -0.32476851
v 0.29671046 0.38852224 -0.27991918
v 0.25227317 0.39092270 -0.40133533
v -0.46626201 0.50110859 -0.09993403
v -0.39000884 0.39687729 -0.11038028
v -0.26536465 0.31585428 -0.38150781
v -0.33140558 0.35651824 -0.23650323
v -0.38723928 0.39162746 -0.36950111
v -0.26306364 0.32471076 -0.07211608
v -0.13660040 0.33966678 -0.09044632
v 0.07191777 0.38745785 -0.78416967
v -0.01095025 0.45013908 -0.68396252
v -0.09323002 0.37086934 -0.77757597
v 0.14655240 0.49012783 -0.50899422
v 0.06469596 0.42219827 -0.59242630
v 0.26290020 0.45516223 -0.58896220
v -0.19908762 0.35601413 -0.58818871
v -0.07815551 0.51820683 -0.57038176
v -0.19098657 0.46561611 -0.44986880
v -0.03328462 0.31833422 -0.23670468
v -0.09703006 0.34282750 -0.38109785
v 0.08371213 0.38631576 -0.38779131
v 0.57083333 0.43796951 -0.16314380
v 0.62117583 0.41068354 -0.03016623
v 0.47246611 0.46057463 -0.39818865
v 0.52034062 0.46280950 -0.27975461
v 0.79695463 0.30319202 -0.24182951
v 0.66125375 0.37744829 -0.27165061
v 0.74194288 0.28639594 -0.35975263
v 0.13948147 0.29548344 -0.86622512
v 0.22329347 0.36925212 -0.77082926
v 0.48893252 0.26624870 -0.76177609
v 0.36666819 0.33118638 -0.78872377
v 0.38287145 0.17583181 -0.88771987
v 0.32224151 0.39716995 -0.65923965
v 0.40092412 0.40774691 -0.55910915
v 0.99065232 0.06424797 -0.53883410
v 0.89285409 0.04153681 -0.64250797
v 0.88270998 0.10609686 -0.70536590
v 0.80412024 0.17960347 -0.45834002
v 0.84730446 0.09499068 -0.52422959
v 0.89515507 0.09109157 -0.37505168
v 0.67381650 0.06824464 -0.81876785
v 0.76520026 0.09300864 -0.68073940
v 0.62848473 0.14521065 -0.71545041
v 0.52809328 0.37458536 -0.51238430
v 0.57694280 0.26563784 -0.62991261
v 0.66033536 0.25798291 -0.51066440
v 0.73590630 0.35029274 0.01033047
v 0.88215792 0.20168561 -0.14708352
v 0.81345934 0.28811252 -0.08932427
v 0.80119461 0.27554873 0.09348196
v 0.87392378 0.23703600 0.18431820
v 1.01233304 0.16995527 -0.46346459
v 1.04652464 0.06762095 -0.39789420
v 1.12549603 0.09879968 -0.07720204
v 1.09074986 0.08154221 -0.23993340
v 1.10205877 0.18779042 -0.17330502
v 0.99343830 0.00863468 -0.30974466
v 0.92649162 0.07399223 -0.21600021
v 1.02850389 0.08398610 0.41753694
v 1.02361345 0.18856993 0.45786089
v 0.91687846 0.08210167 0.31262153
v 0.99005669 0.00000000 0.36191607
v 1.09658551 0.16226049 0.15117487
v 1.06564081 0.05490124 0.26518276
v 1.09620249 0.08504531 0.10063768
v 0.95837241 0.11251718 -0.04680660
v 1.05312538 0.00000000 0.03290950
v 0.95591682 0.11664896 0.13830754
v 0.11530392 0.17860770 0.96322703
v 0.41955957 0.06138870 0.97013146
v 0.27098304 0.11624869 0.97935921
v 0.13762343 0.04251750 1.06183815
v 0.14952597 0.10685744 1.11855090
v 0.79787284 0.16967887 0.78860140
v 0.56541032 0.26762259 0.92450678
v 0.69092190 0.22363311 0.86941689
v 0.68545294 0.09274556 0.87721545
v 0.58878011 0.00681215 0.93093932
v 0.14298998 0.41168815 0.96323335
v 0.15709922 0.20683342 1.08977902
v 0.14873870 0.31181657 1.03496349
v 0.28736892 0.38034666 0.96690112
v 0.41385353 0.33554175 0.95329565
v 0.46988264 0.08474932 1.05392647
v 0.44566873 0.21340214 1.01949990
v 0.30962035 0.13824970 1.08309066
v -0.60307920 0.48932859 0.22989587
v -0.44631249 0.51545280 0.42347646
v -0.51090431 0.54195714 0.32960275
v -0.64368051 0.42745900 0.30412060
v -0.69706422 0.36803818 0.37341928
v -0.22411515 0.35336673 0.78054082
v -0.51640558 0.30943090 0.74965316
v -0.38074958 0.31380874 0.76798075
v -0.28494605 0.40786642 0.65588546
v -0.34819013 0.47013164 0.56516695
v -0.86525184 0.00000000 0.63531691
v -0.78262091 0.24341132 0.44559821
v -0.82067114 0.14111388 0.57428861
v -0.75752091 0.12226774 0.69940978
v -0.62724131 0.22369793 0.70932937
v -0.49744794 0.45602471 0.54540509
v -0.57599962 0.33668846 0.62351614
v -0.65327078 0.35700923 0.49810866
v -0.22735998 0.31750321 -0.77147043
v -0.38386753 0.39815998 -0.60322469
v -0.31185880 0.40567696 -0.70978463
v -0.34218135 0.26811466 -0.77928698
v -0.45422181 0.17555639 -0.76858008
v -0.54405612 0.45723560 -0.18216009
v -0.73313224 0.36303219 -0.37341139
v -0.65207380 0.43373114 -0.29150563
v -0.51033211 0.47478390 -0.32944646
v -0.44118595 0.46035793 -0.45103872
v -0.86991227 0.00152681 -0.61846787
v -0.61731780 0.12393811 -0.72929364
v -0.76857036 0.10643862 -0.71325529
v -0.80795014 0.11866149 -0.54946178
v -0.79366463 0.22885337 -0.46202013
v -0.51962739 0.39002064 -0.55154473
v -0.67047304 0.30922389 -0.51413953
v -0.56594545 0.27076215 -0.64849794
v 0.78587228 0.13768391 -0.78249425
v 0.58007354 0.11795495 -0.92966902
v 0.69104087 0.09469121 -0.87254554
v 0.65785211 0.20224360 -0.86785614
v 0.55875397 0.28733832 -0.92055768
v 0.15485740 0.17428835 -0.94907862
v 0.14069621 0.05712486 -1.09228289
v 0.15990829 0.07099824 -1.03402054
v 0.29618752 0.16638181 -0.98407716
v 0.39674598 0.03575671 -0.92525619
v 0.12873782 0.42500806 -0.97613847
v 0.39823452 0.33059725 -0.96260697
v 0.26241988 0.37738118 -0.97319859
v 0.12881806 0.30871478 -1.03885269
v 0.14176702 0.19844866 -1.10074687
v 0.44218299 0.06989627 -1.03114259
v 0.29391858 0.13340665 -1.06428361
v 0.43892267 0.21885331 -1.01749790
v 1.01518905 0.27396461 0.38674831
v 1.07487059 0.26878864 0.08471573
v 1.05854082 0.27243516 0.24007687
v 0.97253430 0.38220733 0.31659931
v 0.92496228 0.45998791 0.23507899
v 0.99487489 0.27571636 -0.41779184
v 0.90970677 0.46567696 -0.27806669
v 0.96476656 0.37081087 -0.35288322
v 1.04466009 0.29632905 -0.26475623
v 1.05893815 0.30499423 -0.10615185
v 0.68385643 0.68220240 -0.02381796
v 0.84384602 0.56073368 0.14507505
v 0.76914340 0.62643510 0.06092562
v 0.77373415 0.61382204 -0.09899975
v 0.84711128 0.54779708 -0.17542806
v 1.01711237 0.37942874 -0.01110788
v 0.93675351 0.46801320 -0.10064503
v 0.94896406 0.47080079 0.08035342
f 330 87 329
f 336 325 26
f 207 208 56
f 464 36 580
f 502 129 504
f 157 624 622
f 308 311 82
f 247 223 248
f 507 483 508
f 331 88 329
f 494 500 497
f 156 601 602
f 591 589 592
f 365 98 596
f 75 281 282
f 152 587 577
f 149 559 560
f 555 121 553
f 530 141 529
f 515 517 139
f 361 594 98
f 250 67 249
f 157 608 609
f 294 293 209
f 317 81 316
f 557 338 26
f 303 305 81
f 530 529 528
f 101 381 382
f 415 418 111
f 192 184 50
f 412 110 411
f 20 384 256
f 131 594 486
f 281 264 282
f 347 287 348
f 28 349 582
f 165 163 1
f 248 250 66
f 617 107 398
f 273 271 274
f 456 115 453
f 558 561 560
f 335 576 91
f 331 177 332
f 116 433 436
f 351 370 92
f 136 511 530
f 239 240 65
f 247 258 19
f 304 23 567
f 148 557 570
f 214 208 58
f 440 426 450
f 268 270 269
f 258 247 268
f 204 202 16
f 466 125 465
f 517 513 133
f 168 275 274
f 275 73 274
f 198 193 53
f 309 308 307
f 510 511 136
f 415 416 110
f 131 490 597
f 473 475 474
f 414 415 111
f 493 495 494
f 496 504 485
f 433 116 432
f 600 375 601
f 240 234 65
f 418 415 412
f 486 361 3
f 567 566 304
f 380 393 29
f 17 199 197
f 491 492 132
f 451 449 435
f 218 217 216
f 623 621 613
f 396 104 395
f 433 439 436
f 628 160 627
f 215 202 217
f 209 207 2
f 427 113 424
f 434 10 544
f 434 433 432
f 199 17 210
f 150 564 565
f 489 491 132
f 275 13 285
f 497 500 134
f 125 466 476
f 578 152 577
f 208 214 211
f 328 88 343
f 356 27 603
f 150 566 567
f 372 100 371
f 190 191 47
f 235 8 398
f 260 261 72
f 422 403 414
f 422 414 111
f 453 454 123
f 349 583 582
f 521 520 519
f 425 453 115
f 616 622 158
f 483 130 508
f 151 586 572
f 212 17 232
f 400 397 402
f 377 396 99
f 41 522 511
f 510 508 505
f 549 547 42
f 475 473 36
f 510 137 509
f 222 221 197
f 430 115 429
f 220 194 1
f 305 54 204
f 621 29 613
f 192 171 184
f 460 335 5
f 88 331 332
f 74 277 279
f 300 301 80
f 390 389 388
f 165 45 164
f 146 549 551
f 291 278 75
f 448 120 445
f 147 543 544
f 607 610 609
f 603 602 356
f 139 529 514
f 333 553 443
f 92 368 347
f 261 260 259
f 300 6 200
f 46 177 331
f 284 283 174
f 301 300 200
f 471 468 474
f 54 305 301
f 302 304 303
f 569 150 567
f 150 569 570
f 294 209 2
f 628 629 160
f 548 543 147
f 147 625 627
f 63 233 234
f 426 427 114
f 41 509 532
f 198 52 196
f 614 105 612
f 147 627 547
f 81 305 306
f 549 548 547
f 54 301 200
f 342 88 332
f 264 281 70
f 193 194 53
f 455 429 456
f 187 321 14
f 479 130 484
f 147 544 625
f 458 456 453
f 304 80 303
f 314 84 313
f 488 503 501
f 321 332 14
f 423 425 424
f 305 204 306
f 341 339 25
f 514 40 516
f 625 628 627
f 340 339 341
f 105 614 391
f 243 228 62
f 318 316 78
f 75 278 279
f 357 355 353
f 238 257 63
f 466 455 476
f 425 423 4
f 448 449 120
f 408 638 108
f 292 275 285
f 22 278 289
f 515 513 517
f 501 503 134
f 622 623 158
f 134 503 504
f 195 216 206
f 163 271 246
f 619 617 620
f 62 228 229
f 163 165 164
f 453 425 454
f 489 132 488
f 82 628 625
f 58 208 209
f 525 608 40
f 626 547 627
f 518 517 498
f 489 487 491
f 557 26 564
f 325 336 344
f 541 145 539
f 40 616 516
f 338 556 89
f 250 248 245
f 139 514 515
f 98 594 596
f 246 220 1
f 112 413 630
f 9 536 413
f 156 600 601
f 332 177 14
f 321 342 332
f 156 606 600
f 584 330 585
f 302 303 81
f 584 87 330
f 330 25 585
f 400 239 65
f 439 440 117
f 95 358 368
f 597 594 131
f 594 361 486
f 246 67 245
f 561 562 149
f 28 364 362
f 55 216 217
f 427 430 114
f 267 20 254
f 556 555 553
f 84 309 558
f 311 310 312
f 609 525 142
f 256 68 255
f 124 460 461
f 82 311 312
f 307 308 82
f 589 135 495
f 527 40 514
f 112 418 412
f 20 256 254
f 258 238 19
f 267 254 269
f 273 272 249
f 392 391 393
f 137 533 509
f 122 455 456
f 9 413 411
f 130 480 505
f 333 443 5
f 527 525 40
f 589 495 385
f 39 496 485
f 223 225 224
f 414 416 415
f 219 222 53
f 145 538 539
f 413 412 411
f 469 468 467
f 183 181 6
f 191 192 50
f 429 35 431
f 292 285 76
f 413 112 412
f 415 110 412
f 43 164 167
f 467 468 126
f 617 101 620
f 450 451 117
f 438 546 545
f 619 620 159
f 17 212 210
f 124 579 576
f 584 153 583
f 460 124 576
f 3 469 467
f 311 308 314
f 6 320 183
f 389 104 388
f 251 250 249
f 194 165 1
f 291 289 278
f 287 77 348
f 238 258 257
f 139 517 518
f 238 236 19
f 223 247 19
f 382 380 29
f 39 518 498
f 361 359 3
f 69 255 257
f 139 518 528
f 33 545 535
f 387 385 7
f 69 268 269
f 477 462 125
f 454 479 123
f 121 555 447
f 451 435 117
f 454 425 4
f 233 252 8
f 124 463 464
f 69 258 268
f 168 167 166
f 583 153 582
f 384 394 102
f 138 512 513
f 57 210 211
f 254 256 255
f 607 609 142
f 324 319 86
f 289 291 76
f 291 292 76
f 384 102 383
f 422 421 420
f 221 17 197
f 383 102 381
f 376 377 99
f 99 373 374
f 386 105 392
f 438 33 440
f 90 341 343
f 281 75 279
f 574 571 96
f 628 82 312
f 221 222 59
f 127 471 474
f 595 605 603
f 551 538 145
f 334 91 340
f 322 324 85
f 305 303 301
f 18 239 399
f 306 204 16
f 199 198 197
f 166 190 180
f 303 80 301
f 267 266 265
f 626 42 547
f 16 215 213
f 349 351 350
f 295 16 213
f 68 379 252
f 250 251 66
f 627 160 626
f 383 68 256
f 343 88 342
f 507 508 136
f 202 215 16
f 197 198 53
f 254 69 269
f 603 605 156
f 418 419 111
f 384 383 256
f 455 122 476
f 203 204 54
f 556 557 148
f 255 68 253
f 313 84 560
f 25 328 341
f 254 255 69
f 603 156 602
f 581 584 583
f 630 632 112
f 163 246 1
f 246 245 220
f 432 116 558
f 499 591 590
f 320 563 86
f 345 93 350
f 306 16 295
f 346 93 345
f 562 568 149
f 604 605 155
f 154 592 593
f 545 552 535
f 511 522 530
f 574 573 571
f 566 150 565
f 361 98 360
f 67 271 273
f 234 235 65
f 208 211 56
f 574 151 573
f 251 270 66
f 398 8 378
f 213 215 214
f 438 440 439
f 315 314 313
f 263 71 262
f 20 373 384
f 496 134 504
f 329 88 328
f 81 306 316
f 555 556 148
f 592 589 103
f 617 619 107
f 227 207 56
f 571 359 96
f 446 466 465
f 206 216 55
f 359 571 469
f 568 148 570
f 34 437 435
f 28 351 349
f 21 272 282
f 113 423 424
f 490 489 488
f 379 68 383
f 210 212 211
f 80 563 300
f 351 92 350
f 326 346 12
f 83 317 318
f 555 148 554
f 212 231 56
f 218 57 217
f 271 67 246
f 195 196 52
f 270 268 66
f 390 592 103
f 148 568 554
f 495 493 7
f 592 390 593
f 357 95 355
f 574 575 151
f 452 120 451
f 154 591 592
f 587 585 577
f 395 394 396
f 93 349 350
f 610 416 611
f 166 44 190
f 315 23 302
f 315 302 317
f 268 247 66
f 606 154 593
f 396 394 99
f 211 212 56
f 370 369 368
f 235 397 65
f 280 278 22
f 83 315 317
f 575 588 151
f 74 279 280
f 385 495 7
f 63 257 253
f 397 235 398
f 214 58 213
f 220 219 194
f 546 146 545
f 236 225 19
f 599 94 602
f 235 233 8
f 102 394 395
f 611 416 32
f 225 223 19
f 139 528 529
f 231 62 229
f 419 406 421
f 451 450 452
f 49 182 185
f 402 397 107
f 52 199 218
f 416 610 110
f 225 236 244
f 107 397 398
f 68 252 253
f 322 85 321
f 182 181 183
f 118 438 439
f 546 438 118
f 348 77 345
f 543 546 118
f 231 212 232
f 610 611 157
f 33 438 545
f 385 386 103
f 479 480 130
f 169 195 15
f 93 583 349
f 15 195 206
f 190 44 192
f 247 248 66
f 146 552 545
f 248 60 245
f 570 557 564
f 274 271 43
f 63 253 233
f 272 21 249
f 507 528 518
f 67 273 249
f 487 467 126
f 196 195 169
f 624 159 623
f 134 496 497
f 132 503 488
f 104 393 395
f 556 553 89
f 355 356 94
f 258 69 257
f 229 61 227
f 56 231 227
f 460 576 335
f 463 124 461
f 394 373 99
f 29 393 391
f 67 250 245
f 193 198 196
f 462 36 464
f 144 633 630
f 141 526 527
f 517 133 498
f 536 144 630
f 100 372 599
f 144 536 537
f 22 289 287
f 578 579 152
f 579 578 576
f 189 188 187
f 60 223 224
f 92 348 350
f 555 554 447
f 396 377 388
f 194 193 165
f 413 536 630
f 372 352 599
f 377 376 375
f 348 345 350
f 105 386 387
f 240 237 234
f 463 462 464
f 135 500 494
f 45 196 169
f 512 612 387
f 245 60 220
f 429 115 456
f 223 60 248
f 288 289 76
f 525 526 142
f 100 599 601
f 613 29 391
f 526 523 520
f 341 328 343
f 631 641 639
f 264 21 282
f 266 72 265
f 106 402 403
f 73 273 274
f 186 206 205
f 381 379 383
f 52 216 195
f 410 18 399
f 290 272 73
f 72 371 374
f 526 525 527
f 115 430 424
f 498 497 496
f 621 382 29
f 543 118 434
f 214 215 57
f 522 141 530
f 511 510 509
f 352 94 599
f 493 512 7
f 90 340 341
f 169 171 170
f 605 604 606
f 219 60 224
f 104 389 392
f 359 469 3
f 186 49 185
f 222 219 224
f 166 167 44
f 428 427 426
f 523 522 524
f 129 502 481
f 50 185 188
f 164 45 170
f 425 115 424
f 33 428 426
f 427 428 113
f 94 356 602
f 515 138 513
f 114 431 452
f 237 236 238
f 215 217 57
f 95 354 355
f 220 60 219
f 515 514 516
f 183 320 319
f 222 197 53
f 559 569 567
f 300 320 6
f 435 436 117
f 96 360 363
f 640 642 641
f 242 243 62
f 140 537 519
f 508 130 505
f 420 410 399
f 537 539 144
f 317 316 318
f 426 114 450
f 186 15 206
f 311 83 310
f 625 544 307
f 544 10 307
f 168 43 167
f 185 182 188
f 369 354 95
f 44 171 192
f 605 606 156
f 548 549 146
f 100 601 375
f 149 568 569
f 381 380 382
f 455 466 35
f 480 479 454
f 543 548 546
f 493 133 513
f 492 472 37
f 477 125 476
f 491 487 126
f 337 336 338
f 588 153 587
f 576 578 91
f 633 161 632
f 96 359 360
f 39 485 483
f 101 617 378
f 193 45 165
f 163 164 43
f 618 624 611
f 507 136 528
f 561 149 560
f 641 162 639
f 116 561 558
f 494 133 493
f 253 252 233
f 63 237 238
f 392 393 104
f 440 450 117
f 93 581 583
f 386 385 387
f 120 449 451
f 421 422 111
f 486 3 467
f 302 81 317
f 633 632 630
f 462 475 36
f 376 99 374
f 489 490 131
f 447 449 448
f 387 612 105
f 106 420 399
f 173 46 172
f 492 491 472
f 316 306 295
f 22 287 347
f 109 410 420
f 507 39 483
f 559 23 313
f 214 57 211
f 196 45 193
f 10 434 432
f 422 106 403
f 626 160 640
f 487 486 467
f 542 41 532
f 400 106 399
f 444 120 452
f 198 199 52
f 475 127 474
f 621 620 382
f 621 623 159
f 450 114 452
f 92 347 348
f 376 100 375
f 434 118 433
f 503 132 502
f 337 90 336
f 537 536 519
f 395 393 380
f 201 54 200
f 171 44 170
f 355 94 353
f 58 296 213
f 422 420 106
f 595 365 596
f 569 568 570
f 523 140 520
f 114 430 431
f 218 210 57
f 304 566 80
f 639 162 638
f 261 371 72
f 548 147 547
f 498 133 497
f 150 570 564
f 222 224 59
f 142 526 520
f 437 436 435
f 141 522 523
f 137 510 505
f 173 179 176
f 559 149 569
f 121 447 448
f 563 320 300
f 102 395 380
f 257 255 253
f 642 162 641
f 83 311 314
f 216 52 218
f 512 493 513
f 23 304 302
f 91 339 340
f 512 138 612
f 159 620 621
f 218 199 210
f 364 28 575
f 83 318 310
f 168 274 43
f 136 530 528
f 140 523 524
f 495 135 494
f 233 235 234
f 566 563 80
f 25 339 577
f 277 74 276
f 475 462 477
f 133 494 497
f 436 437 116
f 389 386 392
f 548 146 546
f 441 460 5
f 10 309 307
f 65 397 400
f 543 434 544
f 640 641 161
f 272 273 73
f 581 93 346
f 419 421 111
f 319 320 86
f 180 179 178
f 127 475 477
f 231 229 227
f 337 334 340
f 136 508 510
f 308 309 84
f 237 63 234
f 447 554 34
f 252 379 378
f 315 83 314
f 608 622 616
f 338 336 26
f 337 338 89
f 13 275 168
f 209 208 207
f 436 439 117
f 628 312 629
f 360 366 363
f 364 574 96
f 359 361 360
f 466 446 35
f 500 501 134
f 406 109 421
f 135 589 591
f 601 599 602
f 340 90 337
f 481 492 37
f 522 41 524
f 78 316 295
f 131 486 487
f 403 32 414
f 634 626 640
f 151 572 573
f 515 516 138
f 8 252 378
f 265 72 374
f 9 521 519
f 538 549 42
f 368 358 347
f 588 587 586
f 458 453 123
f 589 385 103
f 502 492 481
f 32 416 414
f 430 427 424
f 153 585 587
f 540 144 539
f 370 368 92
f 209 293 58
f 428 33 535
f 326 581 346
f 625 307 82
f 575 28 582
f 6 181 200
f 421 109 420
f 553 121 443
f 160 642 640
f 153 584 585
f 309 432 558
f 334 337 89
f 23 315 313
f 271 163 43
f 296 295 213
f 39 498 496
f 118 439 433
f 531 113 534
f 293 296 58
f 28 362 351
f 489 131 487
f 431 444 452
f 84 558 560
f 98 366 360
f 45 169 170
f 379 101 378
f 462 463 125
f 308 84 314
f 10 432 309
f 299 24 310
f 132 492 502
f 512 387 7
f 639 638 408
f 565 323 86
f 59 244 242
f 106 400 402
f 440 33 426
f 566 565 563
f 617 398 378
f 224 225 59
f 410 109 409
f 239 400 399
f 194 219 53
f 358 22 347
f 610 157 609
f 27 595 603
f 479 484 482
f 142 520 521
f 585 25 577
f 339 578 577
f 408 407 406
f 407 109 406
f 31 408 406
f 407 408 108
f 31 639 408
f 419 31 406
f 608 616 40
f 430 429 431
f 455 35 429
f 35 444 431
f 188 51 187
f 188 182 51
f 51 322 187
f 322 51 319
f 51 182 183
f 319 51 183
f 187 322 321
f 322 319 324
f 381 101 379
f 405 407 108
f 404 405 108
f 286 285 178
f 407 405 409
f 109 407 409
f 191 175 47
f 167 164 170
f 50 184 185
f 44 167 170
f 64 244 236
f 243 244 64
f 50 188 189
f 541 542 145
f 442 445 119
f 339 91 578
f 445 446 119
f 624 623 622
f 611 624 157
f 523 526 141
f 141 527 529
f 527 514 529
f 445 120 444
f 446 445 444
f 35 446 444
f 613 614 158
f 158 614 615
f 623 613 158
f 614 613 391
f 614 612 615
f 371 376 374
f 100 376 371
f 479 482 123
f 373 394 384
f 540 42 634
f 633 540 634
f 538 42 540
f 633 634 161
f 161 634 640
f 42 626 634
f 540 633 144
f 557 556 338
f 553 333 89
f 262 21 264
f 251 21 262
f 5 335 333
f 270 251 262
f 21 251 249
f 600 593 30
f 606 593 600
f 600 30 375
f 593 390 30
f 30 377 375
f 390 388 30
f 30 388 377
f 228 243 241
f 470 478 459
f 470 127 478
f 127 477 478
f 184 186 185
f 478 477 476
f 122 478 476
f 357 74 280
f 518 39 507
f 344 342 85
f 325 344 85
f 342 344 343
f 85 342 321
f 344 90 343
f 90 344 336
f 482 129 481
f 482 481 457
f 482 457 123
f 481 37 457
f 449 447 34
f 435 449 34
f 470 472 471
f 472 470 37
f 470 471 127
f 472 126 471
f 126 468 471
f 470 459 37
f 491 126 472
f 504 129 485
f 221 59 242
f 125 463 465
f 437 34 562
f 561 437 562
f 554 568 562
f 34 554 562
f 437 561 116
f 390 103 389
f 103 386 389
f 392 105 391
f 572 586 580
f 572 580 36
f 586 152 580
f 473 572 36
f 244 243 242
f 225 244 59
f 64 240 241
f 240 239 241
f 237 240 64
f 243 64 241
f 236 237 64
f 411 607 521
f 9 411 521
f 110 607 411
f 607 142 521
f 610 607 110
f 171 15 184
f 171 169 15
f 15 186 184
f 87 584 581
f 153 588 582
f 588 575 582
f 381 102 380
f 573 572 473
f 468 469 128
f 474 468 128
f 469 571 128
f 571 573 128
f 573 473 128
f 473 474 128
f 564 323 565
f 26 323 564
f 323 324 86
f 325 323 26
f 325 324 323
f 563 565 86
f 324 325 85
f 410 230 18
f 230 228 18
f 18 228 241
f 18 241 239
f 401 619 618
f 401 402 107
f 403 402 401
f 619 159 618
f 401 618 32
f 619 401 107
f 403 401 32
f 618 611 32
f 159 624 618
f 478 122 459
f 122 458 459
f 37 459 457
f 459 458 457
f 122 456 458
f 457 458 123
f 191 190 192
f 485 129 484
f 129 482 484
f 483 485 484
f 130 483 484
f 189 187 14
f 191 50 189
f 191 189 175
f 189 14 175
f 14 177 175
f 499 501 500
f 501 499 38
f 38 499 590
f 135 499 500
f 488 501 38
f 499 135 591
f 480 454 4
f 284 12 346
f 4 423 506
f 480 4 506
f 423 531 506
f 480 506 505
f 531 137 506
f 506 137 505
f 365 366 98
f 71 270 262
f 270 71 269
f 71 267 269
f 335 334 333
f 333 334 89
f 334 335 91
f 536 9 519
f 465 463 461
f 537 140 541
f 520 140 519
f 119 446 465
f 465 461 119
f 461 441 119
f 460 441 461
f 176 46 173
f 299 297 24
f 71 263 266
f 263 260 266
f 260 72 266
f 263 70 260
f 205 201 49
f 201 181 49
f 186 205 49
f 181 201 200
f 181 182 49
f 284 77 283
f 586 587 152
f 588 586 151
f 20 267 265
f 266 267 71
f 31 417 631
f 631 417 632
f 31 631 639
f 417 31 419
f 641 631 161
f 417 112 632
f 161 631 632
f 418 417 419
f 417 418 112
f 284 345 77
f 542 550 145
f 542 541 524
f 284 174 12
f 48 174 283
f 373 20 265
f 373 265 374
f 609 608 525
f 608 157 622
f 560 559 313
f 636 637 162
f 541 140 524
f 41 542 524
f 358 357 280
f 70 263 264
f 263 262 264
f 176 177 46
f 174 48 173
f 174 173 172
f 538 551 549
f 538 540 539
f 537 541 539
f 232 221 242
f 17 221 232
f 232 242 62
f 231 232 62
f 203 205 55
f 203 55 202
f 201 205 203
f 202 55 217
f 205 206 55
f 204 203 202
f 73 275 292
f 292 290 73
f 272 290 282
f 290 292 291
f 75 290 291
f 290 75 282
f 70 277 259
f 277 70 281
f 277 281 279
f 260 70 259
f 12 174 172
f 104 396 388
f 367 27 354
f 365 27 367
f 354 27 356
f 365 367 366
f 595 27 365
f 318 299 310
f 155 596 597
f 155 597 598
f 596 594 597
f 595 596 155
f 605 595 155
f 180 47 179
f 180 190 47
f 352 372 11
f 11 372 261
f 312 310 24
f 642 636 162
f 636 297 637
f 367 369 97
f 366 367 97
f 369 367 354
f 369 370 97
f 580 579 464
f 580 152 579
f 579 124 464
f 61 230 409
f 230 410 409
f 230 61 229
f 230 229 228
f 76 285 286
f 353 352 276
f 74 353 276
f 288 76 286
f 288 286 283
f 289 288 287
f 203 54 201
f 287 288 77
f 77 288 283
f 286 48 283
f 531 423 113
f 276 11 259
f 11 261 259
f 277 276 259
f 616 158 615
f 516 616 615
f 138 516 615
f 138 615 612
f 509 533 532
f 503 502 504
f 635 79 294
f 635 294 404
f 635 637 79
f 637 635 638
f 638 635 108
f 635 404 108
f 226 61 405
f 61 226 227
f 405 61 409
f 227 226 207
f 48 178 179
f 48 286 178
f 173 48 179
f 534 143 533
f 534 535 143
f 531 534 533
f 533 143 532
f 137 531 533
f 261 372 371
f 13 180 178
f 285 13 178
f 180 13 166
f 13 168 166
f 346 345 284
f 331 327 46
f 46 327 172
f 172 327 326
f 382 620 101
f 442 121 448
f 443 121 442
f 2 226 404
f 294 2 404
f 404 226 405
f 207 226 2
f 550 551 145
f 552 146 551
f 143 550 532
f 552 550 143
f 330 329 328
f 24 636 629
f 94 352 353
f 352 11 276
f 113 428 534
f 428 535 534
f 509 41 511
f 535 552 143
f 550 552 551
f 550 542 532
f 369 95 368
f 326 327 87
f 87 327 329
f 327 331 329
f 581 326 87
f 293 79 298
f 79 297 298
f 296 298 78
f 79 293 294
f 296 293 298
f 598 490 38
f 358 280 22
f 280 279 278
f 357 358 95
f 74 357 353
f 330 328 25
f 567 23 559
f 590 598 38
f 590 604 598
f 598 604 155
f 604 590 154
f 590 591 154
f 604 154 606
f 297 299 298
f 299 318 78
f 298 299 78
f 355 354 356
f 629 636 642
f 312 24 629
f 629 642 160
f 370 362 97
f 362 363 97
f 363 366 97
f 364 363 362
f 362 370 351
f 96 363 364
f 297 636 24
f 162 637 638
f 637 297 79
f 490 488 38
f 598 597 490
f 441 442 119
f 443 442 441
f 443 441 5
f 442 448 445
f 296 78 295
f 326 12 172
f 575 574 364
f 47 175 176
f 175 177 176
f 47 176 179
