# FEM surface export ¡ª frame 544
# Vertices: 642  Faces: 1280
v -0.51784205 0.90386349 0.00184721
v 0.51800972 0.90781075 0.00306514
v -0.50959450 0.37419984 0.00388172
v 0.48595053 0.28508776 0.02122563
v -0.01569396 0.13861884 0.90606046
v -0.00398141 0.62340271 0.84224027
v 0.01726144 0.13086134 -0.91373843
v 0.00072638 0.62359500 -0.84277982
v 0.92966712 0.22440548 -0.57629800
v 0.91499418 0.22391605 0.55445957
v -0.92147315 0.22084951 -0.57148653
v -0.91236681 0.21558230 0.58397859
v -0.79937971 0.59598732 0.30931354
v -0.49895322 0.43895769 0.81943423
v -0.30483738 0.86960924 0.49242839
v 0.30817977 0.86689347 0.48895514
v -0.00127289 1.03517318 -0.00190558
v 0.30293643 0.86902684 -0.49132133
v -0.30157566 0.86810750 -0.49238849
v -0.50834435 0.45086977 -0.81535304
v -0.79806203 0.59460276 -0.29588762
v -1.08769751 0.21235023 0.00937460
v 0.50579095 0.45389566 0.82375628
v 0.80557609 0.59197754 0.30323762
v -0.60221827 0.00000000 0.93783009
v 0.00903097 0.20809130 1.07554066
v -0.87324411 0.14078850 -0.34168354
v -0.88812351 0.13690662 0.31940880
v -0.00820652 0.21327975 -1.07889140
v -0.57236624 0.00037882 -0.95114499
v 0.80687374 0.59825867 -0.30713040
v 0.50589174 0.44495201 -0.81875390
v 0.90727133 0.11395131 0.35800281
v 0.58717704 0.00154883 0.95926481
v 0.33886135 0.30714074 0.48652092
v -0.29594013 0.32206798 0.47876936
v 0.00358851 0.09436062 0.04205006
v -0.31166062 0.08177269 -0.48385453
v 0.30531761 0.16266471 -0.50097167
v 0.56955475 0.00378378 -0.92199963
v 0.84672147 0.18550724 -0.32078707
v 1.07953691 0.21410748 -0.01898880
v -0.68698865 0.77123767 0.15685032
v -0.58199668 0.75811678 0.41784516
v -0.42754626 0.91538614 0.25670096
v -0.71625334 0.32884982 0.73489511
v -0.68282014 0.53194070 0.59132826
v -0.87190992 0.40684819 0.45176309
v -0.15807769 0.76705265 0.69141150
v -0.41940817 0.66900605 0.68116450
v -0.25764042 0.53948140 0.85733521
v -0.15875418 0.99341488 0.25628543
v -0.26942071 1.00275922 -0.00118972
v 0.15987588 0.77041644 0.69020659
v 0.00230985 0.90732855 0.51584959
v 0.26623592 1.00157952 -0.00103856
v 0.15956092 0.99391609 0.25631258
v 0.42614111 0.91434491 0.25466943
v -0.15942755 0.99353963 -0.25849476
v -0.42620060 0.91439110 -0.25586030
v 0.42565244 0.91859132 -0.25355783
v 0.15864423 0.99631226 -0.25723338
v -0.15910801 0.75978792 -0.68910694
v 0.00040402 0.90601426 -0.51803923
v 0.16171893 0.76608777 -0.69166708
v -0.57637721 0.75664419 -0.41671830
v -0.68502074 0.77420187 -0.15517984
v -0.26223999 0.54430211 -0.85646993
v -0.42376330 0.66731298 -0.67336357
v -0.88784105 0.40352723 -0.43269953
v -0.69163549 0.53621411 -0.57492155
v -0.73290187 0.34911108 -0.71813661
v -0.84078449 0.62018460 0.00512687
v -1.04374719 0.20844990 -0.29247257
v -0.97023946 0.40450796 -0.15642974
v -0.96336603 0.40702447 0.17987280
v -1.03061497 0.20611626 0.30268034
v 0.58274156 0.75605845 0.41737950
v 0.68597394 0.77286339 0.16003409
v 0.25862575 0.55219877 0.86013579
v 0.42494407 0.67896307 0.68048227
v 0.87254232 0.40649676 0.43959296
v 0.69063330 0.53311139 0.58565199
v 0.72180641 0.32614449 0.71124721
v -0.26014760 0.32509676 0.98723954
v 0.00202020 0.41247606 0.97897416
v -0.79182589 0.09190882 0.78789955
v -0.55205393 0.20239812 0.92762631
v -0.01534030 0.01290950 1.11070240
v -0.28541654 0.09291421 1.08211803
v -0.32168743 0.10936996 0.92662126
v -1.11209893 0.01581207 0.19274223
v -1.01068211 0.07166421 0.51213402
v -1.00159407 0.02596249 -0.51267308
v -1.09654188 0.05277287 -0.20596270
v -0.73492146 0.28588068 0.17375876
v -0.94033229 0.16794814 0.00111717
v -0.72857648 0.29126278 -0.16812994
v -0.57609785 0.22166647 -0.91373724
v -0.79045957 0.09849172 -0.78012878
v -0.00638109 0.41726080 -0.97897279
v -0.27996209 0.33362845 -0.99227172
v -0.27296484 0.03160030 -0.96215618
v -0.30516896 0.10057621 -1.09252203
v 0.00497253 0.00000000 -1.12466204
v 0.42591155 0.66802323 -0.67346978
v 0.26231432 0.54866695 -0.86157072
v 0.68634182 0.77406424 -0.15380462
v 0.57883745 0.76030231 -0.41291791
v 0.72726136 0.33838853 -0.73425001
v 0.69118869 0.53158200 -0.58572477
v 0.88759160 0.39985654 -0.45057797
v 0.71415925 0.22122847 0.18331854
v 0.61050761 0.18447310 0.46359268
v 0.44834852 0.29134902 0.27930963
v 0.79752731 0.09519462 0.77739769
v 0.78395313 0.05132053 0.68050182
v 1.00824344 0.04065669 0.52038854
v 0.17757168 0.25465479 0.72068775
v 0.44861436 0.19259612 0.73219419
v 0.27907977 0.09210399 0.95309085
v 0.17113824 0.34843692 0.23407035
v 0.29638189 0.10779868 0.00772082
v -0.17623810 0.21676047 0.68502951
v -0.00773077 0.35688466 0.51800209
v -0.27637640 0.18365660 0.06244174
v -0.13063690 0.19409913 0.25863582
v -0.37381524 0.35277197 0.25386596
v 0.15923765 0.15501875 -0.23407419
v 0.43787292 0.22148174 -0.23862116
v -0.41698632 0.23899569 -0.25323808
v -0.16080663 0.07864718 -0.20891680
v 0.16208701 0.21893121 -0.72884434
v 0.02393571 0.11748131 -0.49919546
v -0.15270402 0.16032968 -0.74261242
v 0.59473228 0.26188725 -0.44133139
v 0.69302642 0.26004186 -0.14702143
v 0.29109904 0.10917778 -0.95356303
v 0.46285805 0.21105802 -0.72739691
v 1.00576901 0.00075613 -0.48489773
v 0.77335435 0.07237468 -0.64583641
v 0.80219102 0.11342486 -0.78925180
v 0.92412245 0.14926176 0.00178104
v 1.04202199 0.19764686 -0.30719966
v 1.09369624 0.00107182 -0.18585356
v 1.11824477 0.09161600 0.18261355
v 1.03726494 0.21381351 0.28813693
v 0.29998645 0.10576028 1.07738876
v 0.57435280 0.22311151 0.90689600
v 0.27290606 0.34245583 0.98362243
v -0.60993433 0.28906935 0.43674183
v -0.46758375 0.16053499 0.70517093
v -0.79421741 0.06794655 0.65103072
v -0.47446439 0.13450861 -0.73675936
v -0.60814142 0.27369082 -0.43512398
v -0.76180619 0.10309833 -0.66662419
v 0.56377554 0.22419664 -0.93291241
v 0.29220554 0.08341978 -1.08775032
v 0.27100116 0.33623597 -0.99756044
v 0.96742749 0.40209833 0.15741862
v 0.97012937 0.40435633 -0.17394593
v 0.84791672 0.62002033 -0.00266134
v -0.60796303 0.84512776 0.08218685
v -0.56407899 0.85233885 0.21225417
v -0.47816947 0.91772670 0.13088647
v -0.69905764 0.67714608 0.36434373
v -0.64041597 0.76937658 0.28953749
v -0.75070006 0.68626225 0.23270558
v -0.36968014 0.89988768 0.37735650
v -0.50955731 0.84328347 0.34242910
v -0.44786605 0.82216334 0.46118081
v -0.82167119 0.27246594 0.67019480
v -0.81015861 0.36950576 0.59599692
v -0.89749521 0.30819052 0.52248669
v -0.59830469 0.49053925 0.71169686
v -0.70697260 0.42941445 0.66221225
v -0.61132222 0.38168052 0.78251410
v -0.83941382 0.50219226 0.37953174
v -0.78589976 0.47187683 0.52589649
v -0.75342542 0.56485814 0.45224699
v -0.08245964 0.70068204 0.77379507
v -0.21294965 0.65531933 0.78166968
v -0.13369754 0.58621019 0.85571247
v -0.36753145 0.77715737 0.59432799
v -0.29130882 0.72709888 0.69211966
v -0.23332530 0.82594031 0.59696853
v -0.38072199 0.49274987 0.84574467
v -0.34250784 0.60817462 0.77392465
v -0.46548840 0.55505836 0.75508142
v -0.64096564 0.64789140 0.50801355
v -0.55896336 0.60593492 0.64090121
v -0.50845164 0.72255027 0.55620080
v -0.35304844 0.97053039 0.12813319
v -0.39780501 0.96185970 -0.00128445
v -0.23377259 0.94065690 0.37799296
v -0.29606998 0.96307468 0.25824779
v -0.13671738 1.02697802 -0.00220757
v -0.21621756 1.00576806 0.12871058
v -0.08125668 1.02444410 0.12859836
v 0.07858821 0.70365959 0.77480757
v 0.00169876 0.77866024 0.70072782
v 0.15761808 0.89751601 0.50879180
v 0.08394102 0.84706384 0.60971808
v 0.23839071 0.82605487 0.59502667
v -0.07828677 0.84577966 0.61026913
v -0.15313584 0.89701617 0.50923890
v 0.39621550 0.96380639 0.00028908
v 0.35223702 0.97189075 0.12922275
v 0.47659808 0.91856903 0.12949267
v 0.08018050 1.02503896 0.12830964
v 0.21495484 1.00669801 0.12792909
v 0.13366838 1.02886605 -0.00127405
v 0.37077296 0.89828235 0.37551656
v 0.29511085 0.96378165 0.25754356
v 0.23541452 0.93986696 0.37811857
v -0.08072406 0.95991641 0.39045042
v 0.08066119 0.96019846 0.39121750
v -0.00058023 1.00456882 0.25894123
v -0.35168955 0.96895653 -0.13017313
v -0.47603658 0.91600519 -0.12864895
v -0.08103628 1.02584863 -0.13180371
v -0.21598256 1.00621557 -0.13177319
v -0.36724064 0.89893478 -0.37811694
v -0.29571164 0.96234787 -0.25999913
v -0.23265916 0.94081002 -0.37947330
v 0.47629827 0.92070729 -0.12710686
v 0.34995571 0.97202379 -0.12879111
v 0.23427287 0.94343442 -0.37842327
v 0.29443458 0.96429253 -0.25811008
v 0.36813030 0.90076160 -0.37649268
v 0.21409848 1.00807345 -0.12969555
v 0.07969213 1.02723551 -0.13065332
v -0.07961343 0.69514388 -0.77164680
v -0.00050467 0.77325946 -0.70160574
v 0.08200121 0.69766623 -0.77164346
v -0.15247518 0.89312899 -0.51027215
v -0.08040979 0.84066695 -0.61050916
v -0.23226717 0.81962240 -0.59744781
v 0.23611626 0.82305962 -0.59666216
v 0.08111513 0.84199810 -0.61175996
v 0.15410708 0.89758253 -0.51090002
v -0.00023495 1.00657392 -0.26118439
v 0.08087263 0.96264231 -0.39208716
v -0.08028853 0.96138614 -0.39257127
v -0.56252617 0.85203689 -0.20809251
v -0.60752058 0.84507900 -0.07758210
v -0.44497865 0.82227373 -0.46259645
v -0.50752366 0.84361541 -0.34063742
v -0.74803656 0.68589813 -0.22606289
v -0.63761491 0.76976794 -0.28885725
v -0.69509101 0.68241143 -0.35831961
v -0.13061233 0.58544886 -0.85648751
v -0.21257326 0.65345263 -0.77899116
v -0.47072443 0.55890054 -0.74451888
v -0.34694567 0.60468745 -0.76853228
v -0.38674957 0.49595630 -0.84157383
v -0.29445547 0.71896219 -0.68975574
v -0.36697546 0.77425230 -0.59158838
v -0.91299510 0.31655970 -0.50228482
v -0.82183266 0.38349640 -0.58131486
v -0.83899856 0.28644988 -0.64824903
v -0.75315219 0.56961614 -0.43672073
v -0.79440022 0.47490108 -0.50576198
v -0.84654981 0.49696440 -0.36225531
v -0.62439138 0.39963979 -0.77396339
v -0.71949929 0.44262254 -0.65136278
v -0.61102670 0.49726817 -0.70375657
v -0.50867862 0.72565591 -0.55294460
v -0.56243181 0.60739523 -0.62824941
v -0.64244741 0.65060604 -0.50024158
v -0.69450289 0.77951878 0.00034356
v -0.83084732 0.61387503 -0.14829911
v -0.76969337 0.69783419 -0.07748858
v -0.76978642 0.69573718 0.08029289
v -0.83036959 0.61485070 0.16030055
v -0.99338067 0.22518976 -0.43534067
v -0.97537678 0.30822456 -0.36766616
v -1.03174949 0.30424049 -0.07970992
v -1.01198649 0.30772701 -0.22636175
v -1.06790960 0.20660229 -0.14239784
v -0.93751991 0.41099435 -0.29579133
v -0.89400834 0.50292498 -0.22847934
v -0.96122116 0.30635521 0.38888714
v -0.98367542 0.20753102 0.44881898
v -0.88707530 0.50383604 0.24532782
v -0.92664361 0.41235948 0.32101637
v -1.07106209 0.21928950 0.15597889
v -1.00534248 0.31385347 0.24581024
v -1.03269744 0.32063669 0.09432787
v -0.91474813 0.51849788 -0.07312334
v -0.97951478 0.41475683 0.00799202
v -0.91607267 0.51849616 0.09215987
v 0.56252909 0.85470533 0.21001332
v 0.60882109 0.84671432 0.08210487
v 0.45147768 0.82068974 0.45945299
v 0.51169163 0.84302735 0.34024245
v 0.75290322 0.68570197 0.23284678
v 0.64112860 0.77226061 0.29024985
v 0.70147210 0.68069112 0.36477879
v 0.12887116 0.59333909 0.86106515
v 0.21010694 0.66807729 0.78543127
v 0.46788567 0.56793588 0.75949675
v 0.34422737 0.62157732 0.77789629
v 0.38297957 0.49999458 0.84960371
v 0.29509160 0.73134696 0.69428825
v 0.37159184 0.77934152 0.59204912
v 0.90042281 0.30313331 0.50090736
v 0.80953032 0.36027980 0.57624263
v 0.82043099 0.27609327 0.63597852
v 0.75532216 0.56860989 0.45017129
v 0.79016823 0.46822357 0.51342618
v 0.84259260 0.49659121 0.36849383
v 0.62330079 0.39625087 0.77482969
v 0.70703572 0.42796919 0.64791965
v 0.60559958 0.49483907 0.71229070
v 0.51124048 0.72292787 0.55556339
v 0.56359375 0.61229807 0.64077652
v 0.64404714 0.65115118 0.50830483
v -0.13248478 0.48038244 0.92607439
v -0.00307778 0.51810348 0.91482610
v -0.38550454 0.38412985 0.91115803
v -0.26054832 0.43099758 0.92351300
v 0.00602999 0.31140831 1.03498983
v -0.12919626 0.36727837 0.99108821
v -0.13332126 0.26120594 1.04833424
v -0.86068827 0.15411578 0.69086558
v -0.75820297 0.21002670 0.77371991
v -0.58789003 0.08153417 0.94498289
v -0.67883712 0.14695194 0.86988741
v -0.71383291 0.01905067 0.86905473
v -0.63941258 0.25811878 0.84013349
v -0.52675748 0.31656945 0.88041097
v -0.02624905 0.09441049 1.03373635
v -0.19171904 0.05582181 1.03687668
v -0.16821246 0.11435778 0.94472414
v -0.14200144 0.15243149 1.10353160
v -0.15306781 0.03110319 1.10989988
v -0.00001556 0.12232710 1.12164485
v -0.46845338 0.10750123 0.91615802
v -0.33883163 0.00003848 1.03873086
v -0.45372224 0.05505337 1.02810776
v -0.40613335 0.25684103 0.96632707
v -0.43331891 0.13690251 1.01940620
v -0.28360939 0.20728904 1.04077148
v -1.04316890 0.11818117 0.41068995
v -0.97065121 0.11963660 0.54962271
v -1.10972977 0.11150606 0.10037573
v -1.08599079 0.12476270 0.24569525
v -0.95765209 0.02298011 0.40232146
v -1.06648815 0.03822505 0.34606290
v -1.00798798 0.05781395 0.22668180
v -0.96294916 0.12031325 -0.55570483
v -1.03763545 0.12307927 -0.40831485
v -0.99279225 0.09365609 -0.30848765
v -1.04890704 0.00714615 -0.36676729
v -0.95247161 0.06076251 -0.44217220
v -1.07622445 0.11148712 -0.25718212
v -1.11608815 0.11264293 -0.08947677
v -0.62306118 0.35323650 0.09140117
v -0.73814249 0.32568088 0.00520418
v -0.61768508 0.35515282 -0.07738474
v -0.91746289 0.14664008 0.15183952
v -0.82483560 0.23337124 0.08722940
v -0.82906020 0.21196555 0.24205373
v -0.80399215 0.20420268 -0.25618467
v -0.85255009 0.25428686 -0.08140538
v -0.94405216 0.17230426 -0.18912335
v -1.13357759 0.02667474 -0.00470528
v -0.99732733 0.03494864 -0.14527543
v -1.02298391 0.01010971 0.05947026
v -0.77436709 0.22634871 -0.75466257
v -0.85748786 0.14925998 -0.68167430
v -0.54332870 0.33758366 -0.87181270
v -0.66122305 0.28367332 -0.81955248
v -0.69828135 0.02931828 -0.86603975
v -0.69387579 0.16475354 -0.86417109
v -0.59662861 0.11427172 -0.95487541
v -0.00017058 0.52110958 -0.91611248
v -0.13547425 0.48213419 -0.92596364
v -0.15129617 0.27346349 -1.04107857
v -0.14119992 0.37758318 -0.98780501
v -0.00942577 0.31492314 -1.03276169
v -0.27251074 0.43811348 -0.92854917
v -0.39687437 0.39256197 -0.91179806
v -0.10574669 0.05855088 -0.95827127
v -0.14540657 0.00000000 -1.06105745
v 0.02557282 0.04688024 -1.02846849
v -0.46189499 0.06803187 -1.03514349
v -0.31514066 0.00135142 -1.06952226
v -0.42340291 0.00000000 -0.98248148
v -0.01760048 0.11019790 -1.11789858
v -0.15747918 0.03165548 -1.12965703
v -0.15675305 0.14848469 -1.10126173
v -0.43048191 0.27577186 -0.96529382
v -0.30068403 0.21407643 -1.04569888
v -0.44935271 0.16143017 -1.01203167
v 0.21569073 0.66109198 -0.78162789
v 0.13145593 0.59087908 -0.85943747
v 0.36987495 0.77637249 -0.58956808
v 0.29707858 0.72349793 -0.68920034
v 0.38826329 0.49834299 -0.84634417
v 0.35010418 0.61095601 -0.77188176
v 0.47269633 0.56051517 -0.74740732
v 0.60927874 0.84948635 -0.07580794
v 0.56275344 0.85535300 -0.20530230
v 0.69751537 0.68401432 -0.35966480
v 0.63894415 0.77289689 -0.28628233
v 0.74908906 0.68865615 -0.22950061
v 0.50781500 0.84782302 -0.33797988
v 0.44614053 0.82254863 -0.46042326
v 0.83533812 0.28887573 -0.66035879
v 0.82096314 0.37633881 -0.59754425
v 0.91562235 0.31608912 -0.51656491
v 0.60637844 0.49034292 -0.70909578
v 0.71242625 0.42567810 -0.66342759
v 0.61968082 0.39053226 -0.78767073
v 0.85246503 0.50083989 -0.38170683
v 0.79343146 0.47478563 -0.52456433
v 0.76004922 0.57312155 -0.44868490
v 0.51012647 0.71928579 -0.55089247
v 0.64298075 0.64695114 -0.50087595
v 0.56519711 0.60365266 -0.63300872
v 0.59315425 0.27366787 0.09584320
v 0.58780706 0.26274657 0.25227675
v 0.49182084 0.31739852 0.17162015
v 0.72816247 0.10574731 0.40063965
v 0.68008840 0.22530793 0.33427989
v 0.79437405 0.14897433 0.26918373
v 0.40885079 0.30751324 0.39041814
v 0.54793948 0.22543177 0.39635903
v 0.47635806 0.25070563 0.49664009
v 0.86104882 0.16480342 0.66491687
v 0.91403735 0.07108535 0.66203457
v 0.97689807 0.13269754 0.54683244
v 0.66522115 0.00355287 0.83239311
v 0.80704695 0.00809938 0.77022803
v 0.69419783 0.02906399 0.86983997
v 0.95921791 0.00000000 0.42745659
v 0.89359295 0.00000000 0.60916972
v 0.82805592 0.04244493 0.51502287
v 0.05726140 0.19966546 0.79963142
v 0.19608106 0.15987699 0.81899399
v 0.12645967 0.09656040 0.93118465
v 0.37860578 0.26322243 0.63545555
v 0.29200530 0.20769523 0.77244467
v 0.26888070 0.28070575 0.63973075
v 0.42785862 0.02836003 0.95026803
v 0.36903617 0.08565355 0.84774780
v 0.51501197 0.09764009 0.82816517
v 0.65764362 0.10931389 0.55178803
v 0.59924304 0.09400236 0.70074254
v 0.54027373 0.17041019 0.60595393
v 0.41245636 0.16795598 0.17583470
v 0.40336430 0.18674214 0.04710605
v 0.25739273 0.34307790 0.35915023
v 0.32385647 0.32650724 0.22563432
v 0.15644091 0.11352807 0.03624945
v 0.26762268 0.22864653 0.12436989
v 0.12727557 0.18654267 0.15293497
v -0.11754578 0.19274125 0.80653346
v -0.02401483 0.25680023 0.71389329
v -0.12644614 0.33878031 0.47022709
v -0.08060950 0.32189852 0.61786228
v -0.22826101 0.28891942 0.60364991
v 0.08658695 0.33075947 0.63427013
v 0.17945859 0.33158934 0.53891855
v -0.40146378 0.25338882 0.03603926
v -0.30416897 0.34475371 0.15091418
v -0.45764074 0.36280435 0.13397703
v -0.03762744 0.18631123 0.14116591
v -0.15252326 0.33541292 0.14118519
v -0.15595406 0.17583007 0.05627054
v -0.34655133 0.37507698 0.35109496
v -0.22837657 0.33992881 0.23428114
v -0.21099062 0.36934763 0.35551503
v 0.09885029 0.38182321 0.39992881
v -0.06380142 0.36771441 0.37112564
v 0.02561969 0.21852128 0.31540647
v 0.35739860 0.17816924 -0.07656644
v 0.45962244 0.27067631 -0.12062195
v 0.10164706 0.12459590 -0.10792156
v 0.23702088 0.11267599 -0.10131739
v 0.39654803 0.19896829 -0.37702209
v 0.32552168 0.12818173 -0.21802606
v 0.23869459 0.13754117 -0.34150210
v -0.49025774 0.31663990 -0.14472593
v -0.38460201 0.20981644 -0.12283444
v -0.22175206 0.07835963 -0.35791615
v -0.29207915 0.14689934 -0.23052943
v -0.35786563 0.14144056 -0.34415641
v -0.25394940 0.11780435 -0.08437394
v -0.10356320 0.12178297 -0.08362018
v 0.09114593 0.17688784 -0.82656986
v -0.00647660 0.21565023 -0.74254358
v -0.09027786 0.19605783 -0.84762144
v 0.19429021 0.14233230 -0.46811581
v 0.11049119 0.15775827 -0.60029745
v 0.25172022 0.23923850 -0.60128272
v -0.21511118 0.08466858 -0.61247271
v -0.06529392 0.12014112 -0.64852232
v -0.11864018 0.06147987 -0.50179696
v 0.00976018 0.13446780 -0.23694034
v -0.07911813 0.06403531 -0.37464678
v 0.09219679 0.14498441 -0.36090142
v 0.56984365 0.33677003 -0.21556446
v 0.56943297 0.28834221 -0.07347204
v 0.45974165 0.26701322 -0.48717156
v 0.49923360 0.27516800 -0.35805783
v 0.77770644 0.22868145 -0.24164303
v 0.66321826 0.29816109 -0.30132490
v 0.71319348 0.25661176 -0.38542026
v 0.16134314 0.12965356 -0.94055802
v 0.22469854 0.15754813 -0.83030814
v 0.49689439 0.12017292 -0.80816048
v 0.36740318 0.14816712 -0.85218608
v 0.42679441 0.01174403 -0.92459869
v 0.31865373 0.23364258 -0.72246027
v 0.39577407 0.27894628 -0.60856259
v 0.98272842 0.11520988 -0.54657024
v 0.91960484 0.05775435 -0.66156459
v 0.88248819 0.16128355 -0.68695951
v 0.82113802 0.16398863 -0.49415150
v 0.89302325 0.00283961 -0.56173742
v 0.93223256 0.10594601 -0.41817015
v 0.70741010 0.05500408 -0.87638021
v 0.81920230 0.00029873 -0.72712600
v 0.64957720 0.00310582 -0.79358226
v 0.55604309 0.20946227 -0.59123546
v 0.60756773 0.11506154 -0.69231391
v 0.68987137 0.15373719 -0.53778392
v 0.68080848 0.23658919 0.00449972
v 0.86611646 0.14462614 -0.15370096
v 0.80446172 0.19792196 -0.06287041
v 0.81139874 0.18394119 0.09118840
v 0.92047846 0.15301670 0.17139596
v 0.99811727 0.21104279 -0.44311124
v 1.05117607 0.11285686 -0.41624674
v 1.12640905 0.10444435 -0.11041977
v 1.09556580 0.11188591 -0.25557652
v 1.07298625 0.21254991 -0.16256009
v 1.07113898 0.00537057 -0.35714263
v 0.97301394 0.09603368 -0.26490587
v 1.04433715 0.13178745 0.40596882
v 0.98548442 0.21642187 0.42444465
v 0.99720198 0.01223800 0.24987493
v 1.07020855 0.06990848 0.34922329
v 1.06637478 0.22948311 0.13543987
v 1.08553958 0.15092121 0.23414801
v 1.11314857 0.14493893 0.07050740
v 0.99399358 0.10570950 -0.08377691
v 1.14211071 0.03270949 -0.00558370
v 1.01686096 0.01485520 0.08139133
v 0.12931427 0.00767333 1.04510307
v 0.45615980 0.07380649 1.03420901
v 0.30709252 0.00044461 1.07145154
v 0.14804561 0.07619796 1.11605299
v 0.15652324 0.16547406 1.09448755
v 0.76595926 0.21292248 0.74163222
v 0.54819506 0.33443603 0.86598182
v 0.66269326 0.26736450 0.81654572
v 0.69133812 0.16235468 0.84634650
v 0.59734386 0.10936816 0.93487149
v 0.13135433 0.48470572 0.92674392
v 0.14783336 0.27433208 1.04417205
v 0.13559732 0.37633783 0.99285340
v 0.26516467 0.43846616 0.92853487
v 0.39766395 0.39258420 0.90861249
v 0.44854635 0.15622370 0.99914873
v 0.42871785 0.28245497 0.95788634
v 0.29851672 0.22988367 1.04218602
v -0.56400543 0.32813004 0.21067365
v -0.43649879 0.27739525 0.46023259
v -0.50726449 0.35370514 0.34824678
v -0.67896444 0.28465989 0.30613351
v -0.74282187 0.20741031 0.39202479
v -0.24458025 0.14456734 0.84228724
v -0.55864096 0.10111196 0.82169420
v -0.39792877 0.14883222 0.81289375
v -0.29637200 0.18915549 0.72479361
v -0.36143935 0.22315903 0.58229989
v -0.91176027 0.06239676 0.65865034
v -0.84986311 0.09519919 0.48381510
v -0.90539116 0.00000000 0.57043350
v -0.82204092 0.00602470 0.73421329
v -0.71625465 0.07574490 0.79752201
v -0.53787589 0.19606002 0.55933833
v -0.64467984 0.10531037 0.67485434
v -0.70216048 0.15863128 0.52050227
v -0.20798260 0.10769118 -0.86493927
v -0.36706308 0.14255045 -0.61775845
v -0.31451905 0.10514687 -0.75172609
v -0.37784055 0.09299512 -0.84985608
v -0.52560377 0.06703443 -0.85804206
v -0.59616858 0.21863811 -0.16863002
v -0.73294902 0.22335060 -0.39478844
v -0.65916544 0.30795670 -0.31094748
v -0.52979863 0.21975183 -0.33467513
v -0.42710990 0.24545638 -0.48159662
v -0.91255432 0.04200597 -0.66801542
v -0.69012374 0.04270733 -0.80360800
v -0.82386732 0.00400585 -0.75068212
v -0.87532467 0.11069944 -0.57985097
v -0.82673168 0.14870019 -0.48078981
v -0.53987604 0.21003959 -0.58317715
v -0.68856901 0.19263999 -0.56772155
v -0.62703973 0.16571386 -0.72159207
v 0.77363169 0.21953285 -0.77056724
v 0.58410555 0.10485745 -0.95200258
v 0.68870807 0.16300851 -0.86690116
v 0.65272534 0.28163233 -0.83920008
v 0.53630328 0.32960233 -0.88141125
v 0.16454004 0.04617121 -1.03206515
v 0.13919370 0.14917026 -1.09785628
v 0.14398833 0.05484366 -1.10003507
v 0.30367771 0.00200956 -1.05794799
v 0.43281356 0.04604182 -1.02565849
v 0.13338712 0.48668620 -0.93124789
v 0.39358801 0.39365509 -0.91597170
v 0.26866671 0.43963999 -0.93009317
v 0.13107738 0.37809697 -0.99605393
v 0.13217399 0.27044258 -1.04985702
v 0.43516156 0.15068218 -1.01951098
v 0.28227332 0.20715210 -1.04987001
v 0.41913766 0.27251738 -0.97875261
v 0.96183783 0.30970922 0.37569889
v 1.02947640 0.31237486 0.07821774
v 1.01315498 0.31335664 0.22835909
v 0.92889369 0.40775853 0.30342939
v 0.89681029 0.50098574 0.23171932
v 0.97700268 0.31019735 -0.38265905
v 0.89641303 0.50221133 -0.24544436
v 0.93621361 0.40542164 -0.31504700
v 1.01936841 0.30941144 -0.23994137
v 1.03364277 0.31657436 -0.09522418
v 0.69734037 0.78258377 0.00245228
v 0.83656698 0.61071593 0.15328604
v 0.77395380 0.69953018 0.08081045
v 0.77323264 0.69851983 -0.07847185
v 0.83432859 0.61342329 -0.15766348
v 0.97890502 0.40788981 -0.00780073
v 0.90883219 0.51159394 -0.08879458
v 0.91590339 0.50974238 0.07462462
f 330 87 329
f 336 325 26
f 207 208 56
f 464 36 580
f 502 129 504
f 157 624 622
f 308 311 82
f 247 223 248
f 507 483 508
f 331 88 329
f 494 500 497
f 156 601 602
f 591 589 592
f 365 98 596
f 75 281 282
f 152 587 577
f 149 559 560
f 555 121 553
f 530 141 529
f 515 517 139
f 361 594 98
f 250 67 249
f 157 608 609
f 294 293 209
f 317 81 316
f 557 338 26
f 303 305 81
f 530 529 528
f 101 381 382
f 415 418 111
f 192 184 50
f 412 110 411
f 20 384 256
f 131 594 486
f 281 264 282
f 347 287 348
f 28 349 582
f 165 163 1
f 248 250 66
f 617 107 398
f 273 271 274
f 456 115 453
f 558 561 560
f 335 576 91
f 331 177 332
f 116 433 436
f 351 370 92
f 136 511 530
f 239 240 65
f 247 258 19
f 304 23 567
f 148 557 570
f 214 208 58
f 440 426 450
f 268 270 269
f 258 247 268
f 204 202 16
f 466 125 465
f 517 513 133
f 168 275 274
f 275 73 274
f 198 193 53
f 309 308 307
f 510 511 136
f 415 416 110
f 131 490 597
f 473 475 474
f 414 415 111
f 493 495 494
f 496 504 485
f 433 116 432
f 600 375 601
f 240 234 65
f 418 415 412
f 486 361 3
f 567 566 304
f 380 393 29
f 17 199 197
f 491 492 132
f 451 449 435
f 218 217 216
f 623 621 613
f 396 104 395
f 433 439 436
f 628 160 627
f 215 202 217
f 209 207 2
f 427 113 424
f 434 10 544
f 434 433 432
f 199 17 210
f 150 564 565
f 489 491 132
f 275 13 285
f 497 500 134
f 125 466 476
f 578 152 577
f 208 214 211
f 328 88 343
f 356 27 603
f 150 566 567
f 372 100 371
f 190 191 47
f 235 8 398
f 260 261 72
f 422 403 414
f 422 414 111
f 453 454 123
f 349 583 582
f 521 520 519
f 425 453 115
f 616 622 158
f 483 130 508
f 151 586 572
f 212 17 232
f 400 397 402
f 377 396 99
f 41 522 511
f 510 508 505
f 549 547 42
f 475 473 36
f 510 137 509
f 222 221 197
f 430 115 429
f 220 194 1
f 305 54 204
f 621 29 613
f 192 171 184
f 460 335 5
f 88 331 332
f 74 277 279
f 300 301 80
f 390 389 388
f 165 45 164
f 146 549 551
f 291 278 75
f 448 120 445
f 147 543 544
f 607 610 609
f 603 602 356
f 139 529 514
f 333 553 443
f 92 368 347
f 261 260 259
f 300 6 200
f 46 177 331
f 284 283 174
f 301 300 200
f 471 468 474
f 54 305 301
f 302 304 303
f 569 150 567
f 150 569 570
f 294 209 2
f 628 629 160
f 548 543 147
f 147 625 627
f 63 233 234
f 426 427 114
f 41 509 532
f 198 52 196
f 614 105 612
f 147 627 547
f 81 305 306
f 549 548 547
f 54 301 200
f 342 88 332
f 264 281 70
f 193 194 53
f 455 429 456
f 187 321 14
f 479 130 484
f 147 544 625
f 458 456 453
f 304 80 303
f 314 84 313
f 488 503 501
f 321 332 14
f 423 425 424
f 305 204 306
f 341 339 25
f 514 40 516
f 625 628 627
f 340 339 341
f 105 614 391
f 243 228 62
f 318 316 78
f 75 278 279
f 357 355 353
f 238 257 63
f 466 455 476
f 425 423 4
f 448 449 120
f 408 638 108
f 292 275 285
f 22 278 289
f 515 513 517
f 501 503 134
f 622 623 158
f 134 503 504
f 195 216 206
f 163 271 246
f 619 617 620
f 62 228 229
f 163 165 164
f 453 425 454
f 489 132 488
f 82 628 625
f 58 208 209
f 525 608 40
f 626 547 627
f 518 517 498
f 489 487 491
f 557 26 564
f 325 336 344
f 541 145 539
f 40 616 516
f 338 556 89
f 250 248 245
f 139 514 515
f 98 594 596
f 246 220 1
f 112 413 630
f 9 536 413
f 156 600 601
f 332 177 14
f 321 342 332
f 156 606 600
f 584 330 585
f 302 303 81
f 584 87 330
f 330 25 585
f 400 239 65
f 439 440 117
f 95 358 368
f 597 594 131
f 594 361 486
f 246 67 245
f 561 562 149
f 28 364 362
f 55 216 217
f 427 430 114
f 267 20 254
f 556 555 553
f 84 309 558
f 311 310 312
f 609 525 142
f 256 68 255
f 124 460 461
f 82 311 312
f 307 308 82
f 589 135 495
f 527 40 514
f 112 418 412
f 20 256 254
f 258 238 19
f 267 254 269
f 273 272 249
f 392 391 393
f 137 533 509
f 122 455 456
f 9 413 411
f 130 480 505
f 333 443 5
f 527 525 40
f 589 495 385
f 39 496 485
f 223 225 224
f 414 416 415
f 219 222 53
f 145 538 539
f 413 412 411
f 469 468 467
f 183 181 6
f 191 192 50
f 429 35 431
f 292 285 76
f 413 112 412
f 415 110 412
f 43 164 167
f 467 468 126
f 617 101 620
f 450 451 117
f 438 546 545
f 619 620 159
f 17 212 210
f 124 579 576
f 584 153 583
f 460 124 576
f 3 469 467
f 311 308 314
f 6 320 183
f 389 104 388
f 251 250 249
f 194 165 1
f 291 289 278
f 287 77 348
f 238 258 257
f 139 517 518
f 238 236 19
f 223 247 19
f 382 380 29
f 39 518 498
f 361 359 3
f 69 255 257
f 139 518 528
f 33 545 535
f 387 385 7
f 69 268 269
f 477 462 125
f 454 479 123
f 121 555 447
f 451 435 117
f 454 425 4
f 233 252 8
f 124 463 464
f 69 258 268
f 168 167 166
f 583 153 582
f 384 394 102
f 138 512 513
f 57 210 211
f 254 256 255
f 607 609 142
f 324 319 86
f 289 291 76
f 291 292 76
f 384 102 383
f 422 421 420
f 221 17 197
f 383 102 381
f 376 377 99
f 99 373 374
f 386 105 392
f 438 33 440
f 90 341 343
f 281 75 279
f 574 571 96
f 628 82 312
f 221 222 59
f 127 471 474
f 595 605 603
f 551 538 145
f 334 91 340
f 322 324 85
f 305 303 301
f 18 239 399
f 306 204 16
f 199 198 197
f 166 190 180
f 303 80 301
f 267 266 265
f 626 42 547
f 16 215 213
f 349 351 350
f 295 16 213
f 68 379 252
f 250 251 66
f 627 160 626
f 383 68 256
f 343 88 342
f 507 508 136
f 202 215 16
f 197 198 53
f 254 69 269
f 603 605 156
f 418 419 111
f 384 383 256
f 455 122 476
f 203 204 54
f 556 557 148
f 255 68 253
f 313 84 560
f 25 328 341
f 254 255 69
f 603 156 602
f 581 584 583
f 630 632 112
f 163 246 1
f 246 245 220
f 432 116 558
f 499 591 590
f 320 563 86
f 345 93 350
f 306 16 295
f 346 93 345
f 562 568 149
f 604 605 155
f 154 592 593
f 545 552 535
f 511 522 530
f 574 573 571
f 566 150 565
f 361 98 360
f 67 271 273
f 234 235 65
f 208 211 56
f 574 151 573
f 251 270 66
f 398 8 378
f 213 215 214
f 438 440 439
f 315 314 313
f 263 71 262
f 20 373 384
f 496 134 504
f 329 88 328
f 81 306 316
f 555 556 148
f 592 589 103
f 617 619 107
f 227 207 56
f 571 359 96
f 446 466 465
f 206 216 55
f 359 571 469
f 568 148 570
f 34 437 435
f 28 351 349
f 21 272 282
f 113 423 424
f 490 489 488
f 379 68 383
f 210 212 211
f 80 563 300
f 351 92 350
f 326 346 12
f 83 317 318
f 555 148 554
f 212 231 56
f 218 57 217
f 271 67 246
f 195 196 52
f 270 268 66
f 390 592 103
f 148 568 554
f 495 493 7
f 592 390 593
f 357 95 355
f 574 575 151
f 452 120 451
f 154 591 592
f 587 585 577
f 395 394 396
f 93 349 350
f 610 416 611
f 166 44 190
f 315 23 302
f 315 302 317
f 268 247 66
f 606 154 593
f 396 394 99
f 211 212 56
f 370 369 368
f 235 397 65
f 280 278 22
f 83 315 317
f 575 588 151
f 74 279 280
f 385 495 7
f 63 257 253
f 397 235 398
f 214 58 213
f 220 219 194
f 546 146 545
f 236 225 19
f 599 94 602
f 235 233 8
f 102 394 395
f 611 416 32
f 225 223 19
f 139 528 529
f 231 62 229
f 419 406 421
f 451 450 452
f 49 182 185
f 402 397 107
f 52 199 218
f 416 610 110
f 225 236 244
f 107 397 398
f 68 252 253
f 322 85 321
f 182 181 183
f 118 438 439
f 546 438 118
f 348 77 345
f 543 546 118
f 231 212 232
f 610 611 157
f 33 438 545
f 385 386 103
f 479 480 130
f 169 195 15
f 93 583 349
f 15 195 206
f 190 44 192
f 247 248 66
f 146 552 545
f 248 60 245
f 570 557 564
f 274 271 43
f 63 253 233
f 272 21 249
f 507 528 518
f 67 273 249
f 487 467 126
f 196 195 169
f 624 159 623
f 134 496 497
f 132 503 488
f 104 393 395
f 556 553 89
f 355 356 94
f 258 69 257
f 229 61 227
f 56 231 227
f 460 576 335
f 463 124 461
f 394 373 99
f 29 393 391
f 67 250 245
f 193 198 196
f 462 36 464
f 144 633 630
f 141 526 527
f 517 133 498
f 536 144 630
f 100 372 599
f 144 536 537
f 22 289 287
f 578 579 152
f 579 578 576
f 189 188 187
f 60 223 224
f 92 348 350
f 555 554 447
f 396 377 388
f 194 193 165
f 413 536 630
f 372 352 599
f 377 376 375
f 348 345 350
f 105 386 387
f 240 237 234
f 463 462 464
f 135 500 494
f 45 196 169
f 512 612 387
f 245 60 220
f 429 115 456
f 223 60 248
f 288 289 76
f 525 526 142
f 100 599 601
f 613 29 391
f 526 523 520
f 341 328 343
f 631 641 639
f 264 21 282
f 266 72 265
f 106 402 403
f 73 273 274
f 186 206 205
f 381 379 383
f 52 216 195
f 410 18 399
f 290 272 73
f 72 371 374
f 526 525 527
f 115 430 424
f 498 497 496
f 621 382 29
f 543 118 434
f 214 215 57
f 522 141 530
f 511 510 509
f 352 94 599
f 493 512 7
f 90 340 341
f 169 171 170
f 605 604 606
f 219 60 224
f 104 389 392
f 359 469 3
f 186 49 185
f 222 219 224
f 166 167 44
f 428 427 426
f 523 522 524
f 129 502 481
f 50 185 188
f 164 45 170
f 425 115 424
f 33 428 426
f 427 428 113
f 94 356 602
f 515 138 513
f 114 431 452
f 237 236 238
f 215 217 57
f 95 354 355
f 220 60 219
f 515 514 516
f 183 320 319
f 222 197 53
f 559 569 567
f 300 320 6
f 435 436 117
f 96 360 363
f 640 642 641
f 242 243 62
f 140 537 519
f 508 130 505
f 420 410 399
f 537 539 144
f 317 316 318
f 426 114 450
f 186 15 206
f 311 83 310
f 625 544 307
f 544 10 307
f 168 43 167
f 185 182 188
f 369 354 95
f 44 171 192
f 605 606 156
f 548 549 146
f 100 601 375
f 149 568 569
f 381 380 382
f 455 466 35
f 480 479 454
f 543 548 546
f 493 133 513
f 492 472 37
f 477 125 476
f 491 487 126
f 337 336 338
f 588 153 587
f 576 578 91
f 633 161 632
f 96 359 360
f 39 485 483
f 101 617 378
f 193 45 165
f 163 164 43
f 618 624 611
f 507 136 528
f 561 149 560
f 641 162 639
f 116 561 558
f 494 133 493
f 253 252 233
f 63 237 238
f 392 393 104
f 440 450 117
f 93 581 583
f 386 385 387
f 120 449 451
f 421 422 111
f 486 3 467
f 302 81 317
f 633 632 630
f 462 475 36
f 376 99 374
f 489 490 131
f 447 449 448
f 387 612 105
f 106 420 399
f 173 46 172
f 492 491 472
f 316 306 295
f 22 287 347
f 109 410 420
f 507 39 483
f 559 23 313
f 214 57 211
f 196 45 193
f 10 434 432
f 422 106 403
f 626 160 640
f 487 486 467
f 542 41 532
f 400 106 399
f 444 120 452
f 198 199 52
f 475 127 474
f 621 620 382
f 621 623 159
f 450 114 452
f 92 347 348
f 376 100 375
f 434 118 433
f 503 132 502
f 337 90 336
f 537 536 519
f 395 393 380
f 201 54 200
f 171 44 170
f 355 94 353
f 58 296 213
f 422 420 106
f 595 365 596
f 569 568 570
f 523 140 520
f 114 430 431
f 218 210 57
f 304 566 80
f 639 162 638
f 261 371 72
f 548 147 547
f 498 133 497
f 150 570 564
f 222 224 59
f 142 526 520
f 437 436 435
f 141 522 523
f 137 510 505
f 173 179 176
f 559 149 569
f 121 447 448
f 563 320 300
f 102 395 380
f 257 255 253
f 642 162 641
f 83 311 314
f 216 52 218
f 512 493 513
f 23 304 302
f 91 339 340
f 512 138 612
f 159 620 621
f 218 199 210
f 364 28 575
f 83 318 310
f 168 274 43
f 136 530 528
f 140 523 524
f 495 135 494
f 233 235 234
f 566 563 80
f 25 339 577
f 277 74 276
f 475 462 477
f 133 494 497
f 436 437 116
f 389 386 392
f 548 146 546
f 441 460 5
f 10 309 307
f 65 397 400
f 543 434 544
f 640 641 161
f 272 273 73
f 581 93 346
f 419 421 111
f 319 320 86
f 180 179 178
f 127 475 477
f 231 229 227
f 337 334 340
f 136 508 510
f 308 309 84
f 237 63 234
f 447 554 34
f 252 379 378
f 315 83 314
f 608 622 616
f 338 336 26
f 337 338 89
f 13 275 168
f 209 208 207
f 436 439 117
f 628 312 629
f 360 366 363
f 364 574 96
f 359 361 360
f 466 446 35
f 500 501 134
f 406 109 421
f 135 589 591
f 601 599 602
f 340 90 337
f 481 492 37
f 522 41 524
f 78 316 295
f 131 486 487
f 403 32 414
f 634 626 640
f 151 572 573
f 515 516 138
f 8 252 378
f 265 72 374
f 9 521 519
f 538 549 42
f 368 358 347
f 588 587 586
f 458 453 123
f 589 385 103
f 502 492 481
f 32 416 414
f 430 427 424
f 153 585 587
f 540 144 539
f 370 368 92
f 209 293 58
f 428 33 535
f 326 581 346
f 625 307 82
f 575 28 582
f 6 181 200
f 421 109 420
f 553 121 443
f 160 642 640
f 153 584 585
f 309 432 558
f 334 337 89
f 23 315 313
f 271 163 43
f 296 295 213
f 39 498 496
f 118 439 433
f 531 113 534
f 293 296 58
f 28 362 351
f 489 131 487
f 431 444 452
f 84 558 560
f 98 366 360
f 45 169 170
f 379 101 378
f 462 463 125
f 308 84 314
f 10 432 309
f 299 24 310
f 132 492 502
f 512 387 7
f 639 638 408
f 565 323 86
f 59 244 242
f 106 400 402
f 440 33 426
f 566 565 563
f 617 398 378
f 224 225 59
f 410 109 409
f 239 400 399
f 194 219 53
f 358 22 347
f 610 157 609
f 27 595 603
f 479 484 482
f 142 520 521
f 585 25 577
f 339 578 577
f 408 407 406
f 407 109 406
f 31 408 406
f 407 408 108
f 31 639 408
f 419 31 406
f 608 616 40
f 430 429 431
f 455 35 429
f 35 444 431
f 188 51 187
f 188 182 51
f 51 322 187
f 322 51 319
f 51 182 183
f 319 51 183
f 187 322 321
f 322 319 324
f 381 101 379
f 405 407 108
f 404 405 108
f 286 285 178
f 407 405 409
f 109 407 409
f 191 175 47
f 167 164 170
f 50 184 185
f 44 167 170
f 64 244 236
f 243 244 64
f 50 188 189
f 541 542 145
f 442 445 119
f 339 91 578
f 445 446 119
f 624 623 622
f 611 624 157
f 523 526 141
f 141 527 529
f 527 514 529
f 445 120 444
f 446 445 444
f 35 446 444
f 613 614 158
f 158 614 615
f 623 613 158
f 614 613 391
f 614 612 615
f 371 376 374
f 100 376 371
f 479 482 123
f 373 394 384
f 540 42 634
f 633 540 634
f 538 42 540
f 633 634 161
f 161 634 640
f 42 626 634
f 540 633 144
f 557 556 338
f 553 333 89
f 262 21 264
f 251 21 262
f 5 335 333
f 270 251 262
f 21 251 249
f 600 593 30
f 606 593 600
f 600 30 375
f 593 390 30
f 30 377 375
f 390 388 30
f 30 388 377
f 228 243 241
f 470 478 459
f 470 127 478
f 127 477 478
f 184 186 185
f 478 477 476
f 122 478 476
f 357 74 280
f 518 39 507
f 344 342 85
f 325 344 85
f 342 344 343
f 85 342 321
f 344 90 343
f 90 344 336
f 482 129 481
f 482 481 457
f 482 457 123
f 481 37 457
f 449 447 34
f 435 449 34
f 470 472 471
f 472 470 37
f 470 471 127
f 472 126 471
f 126 468 471
f 470 459 37
f 491 126 472
f 504 129 485
f 221 59 242
f 125 463 465
f 437 34 562
f 561 437 562
f 554 568 562
f 34 554 562
f 437 561 116
f 390 103 389
f 103 386 389
f 392 105 391
f 572 586 580
f 572 580 36
f 586 152 580
f 473 572 36
f 244 243 242
f 225 244 59
f 64 240 241
f 240 239 241
f 237 240 64
f 243 64 241
f 236 237 64
f 411 607 521
f 9 411 521
f 110 607 411
f 607 142 521
f 610 607 110
f 171 15 184
f 171 169 15
f 15 186 184
f 87 584 581
f 153 588 582
f 588 575 582
f 381 102 380
f 573 572 473
f 468 469 128
f 474 468 128
f 469 571 128
f 571 573 128
f 573 473 128
f 473 474 128
f 564 323 565
f 26 323 564
f 323 324 86
f 325 323 26
f 325 324 323
f 563 565 86
f 324 325 85
f 410 230 18
f 230 228 18
f 18 228 241
f 18 241 239
f 401 619 618
f 401 402 107
f 403 402 401
f 619 159 618
f 401 618 32
f 619 401 107
f 403 401 32
f 618 611 32
f 159 624 618
f 478 122 459
f 122 458 459
f 37 459 457
f 459 458 457
f 122 456 458
f 457 458 123
f 191 190 192
f 485 129 484
f 129 482 484
f 483 485 484
f 130 483 484
f 189 187 14
f 191 50 189
f 191 189 175
f 189 14 175
f 14 177 175
f 499 501 500
f 501 499 38
f 38 499 590
f 135 499 500
f 488 501 38
f 499 135 591
f 480 454 4
f 284 12 346
f 4 423 506
f 480 4 506
f 423 531 506
f 480 506 505
f 531 137 506
f 506 137 505
f 365 366 98
f 71 270 262
f 270 71 269
f 71 267 269
f 335 334 333
f 333 334 89
f 334 335 91
f 536 9 519
f 465 463 461
f 537 140 541
f 520 140 519
f 119 446 465
f 465 461 119
f 461 441 119
f 460 441 461
f 176 46 173
f 299 297 24
f 71 263 266
f 263 260 266
f 260 72 266
f 263 70 260
f 205 201 49
f 201 181 49
f 186 205 49
f 181 201 200
f 181 182 49
f 284 77 283
f 586 587 152
f 588 586 151
f 20 267 265
f 266 267 71
f 31 417 631
f 631 417 632
f 31 631 639
f 417 31 419
f 641 631 161
f 417 112 632
f 161 631 632
f 418 417 419
f 417 418 112
f 284 345 77
f 542 550 145
f 542 541 524
f 284 174 12
f 48 174 283
f 373 20 265
f 373 265 374
f 609 608 525
f 608 157 622
f 560 559 313
f 636 637 162
f 541 140 524
f 41 542 524
f 358 357 280
f 70 263 264
f 263 262 264
f 176 177 46
f 174 48 173
f 174 173 172
f 538 551 549
f 538 540 539
f 537 541 539
f 232 221 242
f 17 221 232
f 232 242 62
f 231 232 62
f 203 205 55
f 203 55 202
f 201 205 203
f 202 55 217
f 205 206 55
f 204 203 202
f 73 275 292
f 292 290 73
f 272 290 282
f 290 292 291
f 75 290 291
f 290 75 282
f 70 277 259
f 277 70 281
f 277 281 279
f 260 70 259
f 12 174 172
f 104 396 388
f 367 27 354
f 365 27 367
f 354 27 356
f 365 367 366
f 595 27 365
f 318 299 310
f 155 596 597
f 155 597 598
f 596 594 597
f 595 596 155
f 605 595 155
f 180 47 179
f 180 190 47
f 352 372 11
f 11 372 261
f 312 310 24
f 642 636 162
f 636 297 637
f 367 369 97
f 366 367 97
f 369 367 354
f 369 370 97
f 580 579 464
f 580 152 579
f 579 124 464
f 61 230 409
f 230 410 409
f 230 61 229
f 230 229 228
f 76 285 286
f 353 352 276
f 74 353 276
f 288 76 286
f 288 286 283
f 289 288 287
f 203 54 201
f 287 288 77
f 77 288 283
f 286 48 283
f 531 423 113
f 276 11 259
f 11 261 259
f 277 276 259
f 616 158 615
f 516 616 615
f 138 516 615
f 138 615 612
f 509 533 532
f 503 502 504
f 635 79 294
f 635 294 404
f 635 637 79
f 637 635 638
f 638 635 108
f 635 404 108
f 226 61 405
f 61 226 227
f 405 61 409
f 227 226 207
f 48 178 179
f 48 286 178
f 173 48 179
f 534 143 533
f 534 535 143
f 531 534 533
f 533 143 532
f 137 531 533
f 261 372 371
f 13 180 178
f 285 13 178
f 180 13 166
f 13 168 166
f 346 345 284
f 331 327 46
f 46 327 172
f 172 327 326
f 382 620 101
f 442 121 448
f 443 121 442
f 2 226 404
f 294 2 404
f 404 226 405
f 207 226 2
f 550 551 145
f 552 146 551
f 143 550 532
f 552 550 143
f 330 329 328
f 24 636 629
f 94 352 353
f 352 11 276
f 113 428 534
f 428 535 534
f 509 41 511
f 535 552 143
f 550 552 551
f 550 542 532
f 369 95 368
f 326 327 87
f 87 327 329
f 327 331 329
f 581 326 87
f 293 79 298
f 79 297 298
f 296 298 78
f 79 293 294
f 296 293 298
f 598 490 38
f 358 280 22
f 280 279 278
f 357 358 95
f 74 357 353
f 330 328 25
f 567 23 559
f 590 598 38
f 590 604 598
f 598 604 155
f 604 590 154
f 590 591 154
f 604 154 606
f 297 299 298
f 299 318 78
f 298 299 78
f 355 354 356
f 629 636 642
f 312 24 629
f 629 642 160
f 370 362 97
f 362 363 97
f 363 366 97
f 364 363 362
f 362 370 351
f 96 363 364
f 297 636 24
f 162 637 638
f 637 297 79
f 490 488 38
f 598 597 490
f 441 442 119
f 443 442 441
f 443 441 5
f 442 448 445
f 296 78 295
f 326 12 172
f 575 574 364
f 47 175 176
f 175 177 176
f 47 176 179
