# FEM surface export ¡ª frame 346
# Vertices: 642  Faces: 1280
v -0.52367109 1.30513573 -0.00047731
v 0.52369684 1.30370390 0.00082496
v -0.62232429 0.00000000 -0.01518315
v 0.57503539 0.01444715 0.00609794
v 0.00319702 0.06081198 0.94511133
v -0.00107358 1.01054788 0.86216873
v -0.00091347 0.05848162 -0.94909281
v -0.00047638 1.00883234 -0.86135906
v 0.89574349 0.52526605 -0.55488306
v 0.89534664 0.52583104 0.55403674
v -0.89499700 0.52340758 -0.55317825
v -0.89443207 0.52827585 0.55280221
v -0.82075828 0.98421299 0.31358799
v -0.51288909 0.81028056 0.83150393
v -0.30864140 1.26677382 0.49844939
v 0.30870131 1.26670527 0.49993950
v 0.00039330 1.44276702 0.00031495
v 0.30876017 1.26692700 -0.49842414
v -0.30862036 1.26748013 -0.49942750
v -0.51493239 0.80805117 -0.83098781
v -0.82162005 0.98500830 -0.31427643
v -1.05097747 0.52069736 -0.00090571
v 0.51429772 0.81118566 0.83267039
v 0.82132947 0.98407555 0.31336764
v -0.54037261 0.24739945 0.87886256
v 0.00121792 0.52243620 1.05226302
v -0.90425205 0.08383552 -0.34040469
v -0.89887452 0.08873314 0.34767035
v -0.00205799 0.52744067 -1.05199933
v -0.53945220 0.24375832 -0.87375647
v 0.82174832 0.98312509 -0.31381145
v 0.51200873 0.80909812 -0.83184123
v 0.89246172 0.07923584 0.33791521
v 0.54263753 0.24382354 0.87695855
v 0.35720009 0.00000000 0.57711405
v -0.37568378 0.00000000 0.58841264
v -0.00212221 0.00000000 0.00598374
v -0.35701326 0.00000000 -0.57655036
v 0.36339399 0.00000000 -0.56434625
v 0.54199016 0.24399115 -0.87988597
v 0.90066999 0.07913652 -0.33942249
v 1.05493844 0.52569395 -0.00114366
v -0.69539279 1.16910112 0.16039851
v -0.58967173 1.15729058 0.42653301
v -0.43203369 1.31592417 0.25820649
v -0.72639030 0.67455631 0.71931648
v -0.70077598 0.91715664 0.59887081
v -0.88865083 0.76454014 0.44567093
v -0.16116029 1.16196728 0.70404273
v -0.42958915 1.06634104 0.69376230
v -0.26489931 0.92614460 0.87979126
v -0.16083390 1.39723241 0.26122418
v -0.27064741 1.40768242 0.00025158
v 0.16007513 1.16070580 0.70445263
v -0.00008586 1.30409455 0.52396804
v 0.27117661 1.40677869 0.00069508
v 0.16189237 1.39756370 0.26185510
v 0.43246081 1.31470644 0.25963336
v -0.16108479 1.39755321 -0.26106432
v -0.43203521 1.31682014 -0.25913090
v 0.43261263 1.31620550 -0.25792930
v 0.16130872 1.39756727 -0.26082149
v -0.16082035 1.16076565 -0.70364535
v 0.00101404 1.30446303 -0.52363724
v 0.16170980 1.16053343 -0.70414746
v -0.59045058 1.15629482 -0.42666462
v -0.69554710 1.16862094 -0.16167513
v -0.26589036 0.92344606 -0.87767321
v -0.42928204 1.06481361 -0.69430304
v -0.89042968 0.76441252 -0.44845420
v -0.70120555 0.91577840 -0.59897554
v -0.73016542 0.67209041 -0.72048140
v -0.86180592 1.00842583 -0.00054268
v -1.01205397 0.52314442 -0.28820837
v -0.98340166 0.76723212 -0.16895416
v -0.97971565 0.76617014 0.16591744
v -1.01099551 0.52247667 0.28576499
v 0.59010524 1.15388012 0.42728442
v 0.69507712 1.16783190 0.16134377
v 0.26421228 0.92389977 0.88038528
v 0.42830771 1.06406891 0.69459915
v 0.88997924 0.76518524 0.44757900
v 0.70257854 0.91726506 0.59978807
v 0.72998017 0.67587370 0.71952003
v -0.27205908 0.67476904 0.98809427
v -0.00094618 0.77772063 0.99274343
v -0.74868041 0.38063765 0.74049240
v -0.55014753 0.52709579 0.89282924
v 0.00359514 0.27154645 1.03910840
v -0.27737826 0.37493065 1.01597309
v -0.28417632 0.13283892 0.94587892
v -1.02372766 0.28215036 0.17530635
v -0.93107677 0.29093045 0.46864754
v -0.92826480 0.28518948 -0.46751419
v -1.02484310 0.28203350 -0.17771107
v -0.80559635 0.00000000 0.19081651
v -0.95159328 0.06102195 0.00519572
v -0.80529231 0.00000000 -0.18687320
v -0.55346292 0.52483875 -0.89425868
v -0.74736363 0.37543786 -0.73833644
v -0.00175752 0.77801180 -0.99085188
v -0.27428827 0.67505991 -0.98867655
v -0.28666285 0.13173117 -0.94960201
v -0.28049228 0.37503183 -1.01295483
v 0.00036886 0.27772453 -1.03736794
v 0.42958555 1.06329429 -0.69402695
v 0.26471072 0.92304635 -0.87884587
v 0.69526953 1.16713178 -0.16053490
v 0.59054977 1.15427840 -0.42485952
v 0.72841853 0.67385417 -0.72190660
v 0.70212156 0.91618025 -0.60077065
v 0.89031339 0.76411688 -0.44953072
v 0.78920513 0.00000000 0.19132046
v 0.67242873 0.00000000 0.49248978
v 0.50663811 0.00000000 0.29739287
v 0.75155663 0.37952736 0.74318528
v 0.75259250 0.13949308 0.64466327
v 0.92871124 0.28665435 0.46770665
v 0.18233575 0.00000000 0.80486840
v 0.47972718 0.01202050 0.77506030
v 0.28736359 0.13316442 0.95060533
v 0.16879264 0.00000000 0.29123768
v 0.30749634 0.00000000 0.00317575
v -0.18556584 0.00000000 0.81842870
v -0.00807097 0.00000000 0.61540729
v -0.31473115 0.00000000 0.00245467
v -0.18225546 0.00000000 0.28929475
v -0.51467699 0.00000000 0.29332885
v 0.19019109 0.00000000 -0.29371846
v 0.48260432 0.00000000 -0.27534997
v -0.49174517 0.00000000 -0.31028935
v -0.18270722 0.00000000 -0.29390016
v 0.18226320 0.00000000 -0.80194795
v -0.00154096 0.00000000 -0.60332537
v -0.18130463 0.00000000 -0.81313211
v 0.67800224 0.00000000 -0.48318753
v 0.78737938 0.00000000 -0.18114859
v 0.28647730 0.13377638 -0.95139366
v 0.47974271 0.02018921 -0.77476758
v 0.93014133 0.28317395 -0.46545008
v 0.75548983 0.13823335 -0.64729625
v 0.75142604 0.37908173 -0.74291539
v 0.94667923 0.06251550 0.00029428
v 1.01427913 0.52648687 -0.29046297
v 1.02474570 0.28563967 -0.17472784
v 1.02576685 0.28674370 0.17703645
v 1.01134419 0.52616274 0.28737506
v 0.28120443 0.37628785 1.01358390
v 0.55405790 0.52858788 0.89512765
v 0.27344510 0.67545152 0.98801249
v -0.67787957 0.00000000 0.49758688
v -0.47402245 0.02039153 0.77690536
v -0.75593352 0.15156670 0.65249908
v -0.47795388 0.01550762 -0.78285605
v -0.68272185 0.00000000 -0.49485615
v -0.75545937 0.14119457 -0.64591765
v 0.55320954 0.52545321 -0.89436245
v 0.28001049 0.38148290 -1.01668000
v 0.27176151 0.67510802 -0.98886698
v 0.98160142 0.76687837 0.16703913
v 0.98086554 0.76640022 -0.16801961
v 0.86174595 1.00693917 -0.00001705
v -0.61445904 1.24366891 0.08086317
v -0.56984055 1.25174224 0.21209215
v -0.48174956 1.31767988 0.13032065
v -0.71341372 1.07783556 0.37388450
v -0.64886254 1.16993082 0.29613402
v -0.76485002 1.08199573 0.23804826
v -0.37371770 1.29877675 0.38181645
v -0.51516509 1.24327433 0.34534284
v -0.45403484 1.22046542 0.46772364
v -0.81718433 0.60189563 0.64251941
v -0.81819332 0.72299570 0.58968586
v -0.89939296 0.64808708 0.50334400
v -0.61451083 0.86809564 0.72350198
v -0.72076815 0.79861319 0.66474348
v -0.62504500 0.74384665 0.78234202
v -0.86200607 0.87760097 0.38272256
v -0.80179632 0.84434712 0.52758068
v -0.77013105 0.95645952 0.46097603
v -0.08247479 1.09136331 0.78952086
v -0.21530218 1.05059695 0.80084604
v -0.13363604 0.97167569 0.87944877
v -0.37252548 1.17420816 0.60236531
v -0.29771078 1.12023747 0.70609415
v -0.23709367 1.22064912 0.60642678
v -0.39225543 0.87246794 0.86440909
v -0.35145962 1.00131130 0.79433537
v -0.47670269 0.94429982 0.77116710
v -0.65343416 1.04448092 0.51888752
v -0.57228535 0.99822241 0.65504014
v -0.51627719 1.11951697 0.56702477
v -0.35565624 1.37210107 0.13079603
v -0.40040895 1.36365652 0.00018414
v -0.23698533 1.34230912 0.38414928
v -0.29948154 1.36475110 0.26254293
v -0.13651407 1.43519759 0.00006208
v -0.21792910 1.41124225 0.13207009
v -0.08113380 1.43162084 0.13243000
v 0.08054325 1.09039581 0.78916901
v -0.00057498 1.16978562 0.71234256
v 0.15550017 1.29389691 0.51739430
v 0.08055744 1.23968530 0.61878270
v 0.23649684 1.21929026 0.60701323
v -0.08076849 1.23980021 0.61905926
v -0.15585142 1.29551458 0.51731539
v 0.40152547 1.36290514 0.00107366
v 0.35645381 1.37125266 0.13191156
v 0.48239878 1.31666636 0.13114116
v 0.08217500 1.43055403 0.13269095
v 0.21914946 1.41141367 0.13298187
v 0.13711737 1.43457925 0.00054373
v 0.37447008 1.29775000 0.38304096
v 0.29983640 1.36503422 0.26338279
v 0.23767523 1.34114039 0.38481891
v -0.08182442 1.36225033 0.39799577
v 0.08155430 1.36156130 0.39725807
v -0.00007563 1.40931988 0.26471293
v -0.35558176 1.37247992 -0.13091452
v -0.48192158 1.31830347 -0.13073558
v -0.08109591 1.43193316 -0.13189077
v -0.21815287 1.41247046 -0.13197532
v -0.37386295 1.29888320 -0.38244882
v -0.29919440 1.36554217 -0.26235440
v -0.23720366 1.34241271 -0.38414437
v 0.48293024 1.31771088 -0.12964039
v 0.35651442 1.37277687 -0.13001467
v 0.23780689 1.34255707 -0.38367376
v 0.29967093 1.36576188 -0.26179469
v 0.37412131 1.29928672 -0.38168588
v 0.21859972 1.41201353 -0.13133594
v 0.08171571 1.43191326 -0.13188793
v -0.08178287 1.09006953 -0.78936750
v 0.00067180 1.16886973 -0.71294433
v 0.08193066 1.08891916 -0.78927040
v -0.15531656 1.29523659 -0.51738489
v -0.08010563 1.23986006 -0.61945170
v -0.23662505 1.22009194 -0.60636896
v 0.23770951 1.22010314 -0.60654813
v 0.08191548 1.23997545 -0.61973506
v 0.15623206 1.29481041 -0.51700145
v 0.00013769 1.40935373 -0.26412305
v 0.08232637 1.36213887 -0.39649940
v -0.08122851 1.36239254 -0.39686856
v -0.57012933 1.25204158 -0.21315067
v -0.61493719 1.24399507 -0.08136502
v -0.45400643 1.21998680 -0.46861932
v -0.51580197 1.24419987 -0.34600598
v -0.76521271 1.08249652 -0.23970465
v -0.64967465 1.16966712 -0.29724547
v -0.71401590 1.07785761 -0.37520081
v -0.13413033 0.97117722 -0.87757438
v -0.21525916 1.04936361 -0.80047607
v -0.47706047 0.94178075 -0.77051628
v -0.35118759 0.99894279 -0.79349041
v -0.39375472 0.87007093 -0.86185127
v -0.29755908 1.11903250 -0.70695347
v -0.37253609 1.17388535 -0.60345840
v -0.90148377 0.64528489 -0.50501537
v -0.82089102 0.72098869 -0.59133798
v -0.81976795 0.59842306 -0.64338225
v -0.77021050 0.95584196 -0.46218538
v -0.80288154 0.84391195 -0.52881461
v -0.86347395 0.87814498 -0.38425332
v -0.62800145 0.74252778 -0.78321761
v -0.72344434 0.79716188 -0.66549271
v -0.61635947 0.86612779 -0.72343802
v -0.51640934 1.11827183 -0.56773806
v -0.57259303 0.99598259 -0.65594894
v -0.65329117 1.04326963 -0.51881772
v -0.70459265 1.17793417 -0.00022670
v -0.85179818 1.00293672 -0.15973687
v -0.78589487 1.09449315 -0.08226466
v -0.78547668 1.09417164 0.08103655
v -0.85062402 1.00194192 0.15821405
v -0.96290159 0.52430916 -0.42463103
v -0.96314609 0.64531064 -0.37327737
v -1.02796340 0.64598644 -0.08617968
v -1.00596571 0.64620328 -0.22979830
v -1.04178643 0.52331394 -0.14560804
v -0.94554430 0.76758742 -0.31155851
v -0.91187990 0.88025498 -0.24491720
v -0.96177620 0.64590991 0.37137082
v -0.96323293 0.52591509 0.42424169
v -0.91053951 0.87984884 0.24321383
v -0.94388103 0.76836795 0.30919528
v -1.04194391 0.52341783 0.14367393
v -1.00514293 0.64617842 0.22792947
v -1.02860630 0.64583737 0.08401889
v -0.93373948 0.89340353 -0.08508174
v -0.99521780 0.76974201 -0.00047448
v -0.93346667 0.89291382 0.08292737
v 0.57020956 1.25071895 0.21328060
v 0.61420214 1.24151790 0.08113524
v 0.45422065 1.21825111 0.46919152
v 0.51584220 1.24212599 0.34638438
v 0.76482058 1.08091044 0.23903821
v 0.64946753 1.16813982 0.29751858
v 0.71422601 1.07656050 0.37548271
v 0.13237643 0.97138381 0.88018197
v 0.21417326 1.04897535 0.80110812
v 0.47654176 0.94452935 0.77312601
v 0.34954321 0.99907565 0.79449534
v 0.39204946 0.87066466 0.86436731
v 0.29610032 1.11730826 0.70698512
v 0.37221596 1.17214930 0.60321081
v 0.89931697 0.64568847 0.50459141
v 0.82034558 0.72261667 0.59010041
v 0.81827033 0.60091537 0.64207327
v 0.77146715 0.95585984 0.46190217
v 0.80371296 0.84462535 0.52875769
v 0.86376613 0.87838757 0.38325378
v 0.62799627 0.74559420 0.78468311
v 0.72305995 0.79925871 0.66617429
v 0.61642981 0.86910856 0.72469068
v 0.51704818 1.11633003 0.56865102
v 0.57202518 0.99740559 0.65576851
v 0.65389109 1.04275012 0.51920825
v -0.13530147 0.85537452 0.94776064
v -0.00050314 0.89747494 0.93508881
v -0.39815211 0.74558228 0.92052668
v -0.27176085 0.80313098 0.94232821
v -0.00015489 0.65108931 1.03138423
v -0.13768007 0.72752941 1.00000811
v -0.13941337 0.59920329 1.03340983
v -0.83032131 0.45295510 0.65269572
v -0.74652106 0.52782112 0.73837191
v -0.55037981 0.38387820 0.89723867
v -0.65496659 0.45355722 0.82505453
v -0.65016687 0.31226298 0.81707692
v -0.64445740 0.60097915 0.81353819
v -0.53697783 0.67022872 0.87274927
v 0.00381032 0.15466335 1.00350451
v -0.14025050 0.19602427 1.00835574
v -0.14281829 0.08723515 0.95720536
v -0.13906878 0.44910109 1.04637051
v -0.13883664 0.32096162 1.03676367
v 0.00007875 0.39565498 1.05492866
v -0.41943827 0.18468355 0.92231178
v -0.28252295 0.24876897 0.99366695
v -0.41167083 0.30500031 0.96015239
v -0.41524801 0.59961617 0.95326126
v -0.42118958 0.44858190 0.96857625
v -0.27902192 0.52422410 1.01370525
v -0.98620528 0.40641013 0.38277656
v -0.92034149 0.40682057 0.51633966
v -1.05094337 0.40075925 0.08665768
v -1.02816939 0.40167564 0.23257647
v -0.92373419 0.18342716 0.41365278
v -0.98794335 0.28643394 0.32619607
v -0.97586727 0.17791080 0.26366132
v -0.92044818 0.40225503 -0.51619995
v -0.98361826 0.40231201 -0.38310218
v -0.97305214 0.17014182 -0.26003063
v -0.98555994 0.28113532 -0.32529327
v -0.92269099 0.17417790 -0.41117522
v -1.02926421 0.40044099 -0.23715019
v -1.05329800 0.39934897 -0.09048499
v -0.72728527 0.00000000 0.08318458
v -0.81797552 0.00000000 -0.00053921
v -0.71998715 0.00000000 -0.10298526
v -0.94024283 0.07847550 0.17806149
v -0.88591552 0.00533823 0.10173170
v -0.86120087 0.01339742 0.27020580
v -0.86482251 0.00887977 -0.26918274
v -0.88357687 0.00168535 -0.08705825
v -0.93961471 0.06014143 -0.16946921
v -1.04030693 0.28165841 -0.00104746
v -1.00385666 0.16467150 -0.08982882
v -1.00722647 0.16725549 0.09057744
v -0.74813211 0.52331984 -0.73846149
v -0.82963997 0.44821566 -0.65137398
v -0.54071373 0.66785455 -0.87226087
v -0.64898187 0.59788483 -0.81435043
v -0.65088379 0.30751944 -0.81348896
v -0.65682781 0.44844091 -0.82631391
v -0.55339372 0.38063303 -0.89691800
v -0.00076029 0.89711004 -0.93355745
v -0.13592005 0.85620111 -0.94628870
v -0.14028049 0.60232729 -1.03341794
v -0.13887082 0.72943503 -0.99899602
v -0.00150091 0.65472561 -1.03145385
v -0.27294731 0.80269033 -0.94120079
v -0.39951137 0.74456763 -0.91918844
v -0.14459786 0.09204591 -0.96069998
v -0.14266668 0.19976401 -1.00496948
v 0.00148530 0.16121623 -1.00267291
v -0.41300923 0.30503568 -0.95711142
v -0.28319266 0.25037277 -0.98996311
v -0.41733348 0.18515767 -0.92346722
v -0.00132824 0.40046704 -1.05681825
v -0.14243159 0.32290778 -1.03488982
v -0.14250423 0.45111564 -1.04553473
v -0.41838926 0.60073644 -0.95452362
v -0.28169507 0.52534151 -1.01461995
v -0.42317379 0.44763508 -0.96671677
v 0.21562429 1.04881549 -0.80030853
v 0.13301864 0.97018093 -0.87876993
v 0.37353244 1.17322755 -0.60253042
v 0.29837307 1.11843717 -0.70610261
v 0.39188346 0.86945665 -0.86326766
v 0.35120767 0.99839467 -0.79354131
v 0.47692236 0.94137919 -0.77075064
v 0.61494178 1.24252570 -0.08004496
v 0.57075906 1.25138199 -0.21172866
v 0.71380222 1.07580650 -0.37356591
v 0.64989287 1.16758251 -0.29587027
v 0.76474768 1.07974339 -0.23824188
v 0.51619029 1.24290621 -0.34454474
v 0.45456651 1.21972573 -0.46816954
v 0.81879950 0.60017014 -0.64465874
v 0.82058477 0.72266763 -0.59295613
v 0.90103191 0.64677572 -0.50717163
v 0.61511672 0.86671662 -0.72410905
v 0.72180200 0.79679954 -0.66683024
v 0.62569040 0.74362832 -0.78480268
v 0.86296147 0.87722439 -0.38493195
v 0.80275685 0.84431034 -0.53029871
v 0.77025992 0.95586294 -0.46204424
v 0.51724017 1.11652958 -0.56672078
v 0.65400720 1.04217649 -0.51824290
v 0.57243496 0.99597311 -0.65536225
v 0.70199829 0.00000000 0.09734575
v 0.65672135 0.00000000 0.25680292
v 0.56019235 0.00671356 0.14485496
v 0.80877429 0.02123486 0.41249362
v 0.74172002 0.00000000 0.34769690
v 0.86232686 0.01337864 0.25966716
v 0.43310449 0.00000000 0.44312611
v 0.59414655 0.00000000 0.41014799
v 0.52410138 0.00000000 0.54795563
v 0.83116144 0.45151067 0.65462387
v 0.85139304 0.32890046 0.61344087
v 0.92079735 0.40537396 0.51755852
v 0.65653247 0.18757361 0.77193713
v 0.75780803 0.25619534 0.69938576
v 0.65189815 0.30860636 0.81543791
v 0.91962278 0.17732455 0.40662155
v 0.85005063 0.20977679 0.56114483
v 0.83671904 0.10468316 0.50027913
v 0.09294819 0.00003479 0.88317734
v 0.24118197 0.02180670 0.88955963
v 0.14999700 0.08724819 0.95419699
v 0.42476988 0.00000000 0.69255608
v 0.33381662 0.00000000 0.80126482
v 0.27048668 0.00000000 0.70281887
v 0.42052069 0.18679559 0.92350817
v 0.38971433 0.06816218 0.87562728
v 0.52071846 0.11573004 0.83844119
v 0.73507643 0.03797381 0.57357305
v 0.62900996 0.07016031 0.71828389
v 0.58944374 0.00000000 0.64539003
v 0.41420090 0.00000000 0.15710978
v 0.43791318 0.00200635 0.01963120
v 0.27153301 0.00000000 0.44642514
v 0.33453134 0.00000000 0.29918870
v 0.15550224 0.00000000 0.00842611
v 0.23692615 0.00002440 0.15524857
v 0.08801803 0.00000000 0.14740334
v -0.09351990 0.00617694 0.89118534
v -0.00339538 0.00000000 0.82210553
v -0.19314823 0.00000000 0.60961586
v -0.10206899 0.00000000 0.72696847
v -0.28261486 0.00000000 0.71113789
v 0.08562110 0.00000000 0.72372568
v 0.18023720 0.00000000 0.61150163
v -0.47004098 0.00000000 -0.00685595
v -0.42126483 0.00000000 0.14488947
v -0.57767773 0.00000000 0.14148037
v -0.09798598 0.00000000 0.14729586
v -0.25356990 0.00372157 0.13686468
v -0.15762876 0.00000000 0.00376805
v -0.45111623 0.00000000 0.44480929
v -0.35049191 0.00000000 0.30311817
v -0.28691673 0.00000000 0.44768277
v 0.08758426 0.00222528 0.45735890
v -0.10153854 0.00093363 0.45445696
v -0.00829819 0.00000000 0.29868507
v 0.39075315 0.00000000 -0.13120238
v 0.52626473 0.00000000 -0.13715622
v 0.09937857 0.00000000 -0.14260106
v 0.24576621 0.00000000 -0.14544655
v 0.43459699 0.00000000 -0.41433004
v 0.33731464 0.00000000 -0.28224760
v 0.28040314 0.00000000 -0.42227808
v -0.55988044 0.00000000 -0.16542920
v -0.41003886 0.00000000 -0.15695520
v -0.27146703 0.00000000 -0.43898895
v -0.34123796 0.00000000 -0.29950410
v -0.42280892 0.00000000 -0.43930706
v -0.24953067 0.00000000 -0.14677191
v -0.09184015 0.00000000 -0.14903583
v 0.09297948 0.00052584 -0.89368123
v 0.00222385 0.00000000 -0.81787562
v -0.08907367 0.00000000 -0.89182353
v 0.18316950 0.00000000 -0.58569103
v 0.09510945 0.00000000 -0.71213508
v 0.28010586 0.00000000 -0.69533658
v -0.28475252 0.00000000 -0.70586574
v -0.09791680 0.00000000 -0.72302783
v -0.17815520 0.00000000 -0.59876788
v 0.00338188 0.00000000 -0.29293069
v -0.09238475 0.00000000 -0.44942030
v 0.09076166 0.00000000 -0.44910368
v 0.64505792 0.00000967 -0.23523366
v 0.69706154 0.00015376 -0.08299778
v 0.52283651 0.00000000 -0.53091890
v 0.59111834 0.00000000 -0.38905650
v 0.85308069 0.01151747 -0.26487991
v 0.73884851 0.00000000 -0.33593693
v 0.80169213 0.02185505 -0.41748700
v 0.14581305 0.09444744 -0.96159059
v 0.24083422 0.03257291 -0.89835852
v 0.51963413 0.11418024 -0.83843374
v 0.38826048 0.06978958 -0.87448049
v 0.41884792 0.18365498 -0.92293686
v 0.33621225 0.00000000 -0.80481744
v 0.42797270 0.00000000 -0.69014966
v 0.92172170 0.40323457 -0.51536852
v 0.85324407 0.32678974 -0.61462325
v 0.83224159 0.44939408 -0.65224665
v 0.83733970 0.10399485 -0.50132239
v 0.85347658 0.20767350 -0.56035465
v 0.92413503 0.17365900 -0.40872595
v 0.65541649 0.30877656 -0.81980932
v 0.76105618 0.25382087 -0.70016885
v 0.65733409 0.18935323 -0.77337182
v 0.58969140 0.00000000 -0.63415730
v 0.62805265 0.06489272 -0.72040606
v 0.72995621 0.03366554 -0.57435983
v 0.80608994 0.00000000 0.00224963
v 0.93299884 0.06286304 -0.16987911
v 0.88008410 0.00000215 -0.09018764
v 0.88434124 0.00109553 0.09239557
v 0.93570876 0.06727624 0.17203312
v 0.96385270 0.52624273 -0.42709994
v 0.98511899 0.40544739 -0.38202557
v 1.05424106 0.40356597 -0.08857428
v 1.02954316 0.40504748 -0.23478051
v 1.04474068 0.52669424 -0.14613338
v 0.99049133 0.28478327 -0.32534125
v 0.97478801 0.17328785 -0.25868964
v 0.98511654 0.40508297 0.38375488
v 0.96287996 0.52540123 0.42418215
v 0.97394943 0.17977984 0.26003984
v 0.98775190 0.28677702 0.32635871
v 1.04130852 0.52468693 0.14505041
v 1.02859020 0.40389529 0.23555827
v 1.05036390 0.40446031 0.08777088
v 0.99888134 0.16576886 -0.08891743
v 1.04378498 0.28410587 0.00161920
v 0.99915248 0.16840336 0.08922338
v 0.14601438 0.19679442 1.00674391
v 0.41608289 0.30839500 0.95853955
v 0.28786641 0.25019196 0.99364579
v 0.14356580 0.32343358 1.03552127
v 0.14131299 0.44889358 1.04572594
v 0.74737847 0.52857208 0.73897034
v 0.54191792 0.67169577 0.87622750
v 0.64949191 0.60312337 0.81564808
v 0.65784365 0.45362538 0.82667047
v 0.55448186 0.38411784 0.89540714
v 0.13408084 0.85393763 0.94756645
v 0.14038792 0.60012126 1.03420305
v 0.13683999 0.72738820 1.00023258
v 0.27094656 0.80325526 0.94393390
v 0.39854482 0.74594694 0.92070556
v 0.42414016 0.44978693 0.96594685
v 0.41934884 0.60156465 0.95628250
v 0.28138417 0.52528763 1.01483178
v -0.67966872 0.00000000 0.24196084
v -0.53289843 0.00000000 0.54594862
v -0.61434466 0.00000000 0.40170929
v -0.75384396 0.00000000 0.35024706
v -0.79862130 0.00822408 0.42301747
v -0.24092464 0.02864696 0.88889998
v -0.51775032 0.11925519 0.83430451
v -0.38773787 0.07063251 0.87646693
v -0.33666825 0.00000000 0.79761463
v -0.43366691 0.00000000 0.70217913
v -0.85017568 0.33364785 0.61399329
v -0.83592737 0.11152612 0.50633067
v -0.85149175 0.21687923 0.56366187
v -0.75997126 0.26057136 0.70480168
v -0.65583462 0.19230904 0.77521855
v -0.58427399 0.00000000 0.65086520
v -0.63114512 0.07572355 0.72193837
v -0.73087913 0.03703632 0.58286965
v -0.23519166 0.03443724 -0.90487373
v -0.43934941 0.00000000 -0.70167220
v -0.33402780 0.00000000 -0.80471528
v -0.38328016 0.06997987 -0.87830943
v -0.51307672 0.11878054 -0.83902174
v -0.65896100 0.00000000 -0.25390822
v -0.80491221 0.02071965 -0.42113692
v -0.75373596 0.00000000 -0.34392124
v -0.59531164 0.00000000 -0.40828758
v -0.52082509 0.00000000 -0.54475600
v -0.84896755 0.32838795 -0.61274552
v -0.65586060 0.18866433 -0.76990294
v -0.75958240 0.25274456 -0.69958836
v -0.85370213 0.20994295 -0.56315601
v -0.84177458 0.10827733 -0.50328058
v -0.59600681 0.00000000 -0.64977527
v -0.72842360 0.03770033 -0.58019269
v -0.62337166 0.07433723 -0.72215402
v 0.74905044 0.52558345 -0.73859787
v 0.55577129 0.38349721 -0.89750123
v 0.65779483 0.45174891 -0.82561767
v 0.64876920 0.59924132 -0.81541109
v 0.53987128 0.66906703 -0.87300551
v 0.14423738 0.20098229 -1.00928771
v 0.13957298 0.45337224 -1.04782498
v 0.14176120 0.32568571 -1.03738177
v 0.28680035 0.25364950 -0.99651641
v 0.41604507 0.30884778 -0.96075046
v 0.13416597 0.85471034 -0.94619095
v 0.39778894 0.74369299 -0.92011780
v 0.27076864 0.80165851 -0.94104254
v 0.13592719 0.72880346 -0.99919158
v 0.13759212 0.60186720 -1.03310776
v 0.42464495 0.45063788 -0.96663553
v 0.28059942 0.52770656 -1.01424861
v 0.41764247 0.60086733 -0.95356357
v 0.96277970 0.64716810 0.37452725
v 1.03027046 0.64571750 0.08680723
v 1.00897431 0.64929664 0.23051403
v 0.94548935 0.76941043 0.31083044
v 0.91241843 0.88054872 0.24323389
v 0.96274650 0.64730674 -0.37478581
v 0.91097963 0.87956423 -0.24526128
v 0.94631857 0.76824206 -0.31201744
v 1.00622022 0.64717835 -0.23054504
v 1.03007352 0.64886039 -0.08558110
v 0.70458102 1.17578280 0.00024975
v 0.85213494 1.00153804 0.15827683
v 0.78624523 1.09344697 0.08227981
v 0.78557271 1.09211218 -0.08124861
v 0.85163999 0.99998528 -0.15788484
v 0.99397230 0.76862609 0.00041663
v 0.93251926 0.89049715 -0.08470031
v 0.93369508 0.89172614 0.08347607
f 330 87 329
f 336 325 26
f 207 208 56
f 464 36 580
f 502 129 504
f 157 624 622
f 308 311 82
f 247 223 248
f 507 483 508
f 331 88 329
f 494 500 497
f 156 601 602
f 591 589 592
f 365 98 596
f 75 281 282
f 152 587 577
f 149 559 560
f 555 121 553
f 530 141 529
f 515 517 139
f 361 594 98
f 250 67 249
f 157 608 609
f 294 293 209
f 317 81 316
f 557 338 26
f 303 305 81
f 530 529 528
f 101 381 382
f 415 418 111
f 192 184 50
f 412 110 411
f 20 384 256
f 131 594 486
f 281 264 282
f 347 287 348
f 28 349 582
f 165 163 1
f 248 250 66
f 617 107 398
f 273 271 274
f 456 115 453
f 558 561 560
f 335 576 91
f 331 177 332
f 116 433 436
f 351 370 92
f 136 511 530
f 239 240 65
f 247 258 19
f 304 23 567
f 148 557 570
f 214 208 58
f 440 426 450
f 268 270 269
f 258 247 268
f 204 202 16
f 466 125 465
f 517 513 133
f 168 275 274
f 275 73 274
f 198 193 53
f 309 308 307
f 510 511 136
f 415 416 110
f 131 490 597
f 473 475 474
f 414 415 111
f 493 495 494
f 496 504 485
f 433 116 432
f 600 375 601
f 240 234 65
f 418 415 412
f 486 361 3
f 567 566 304
f 380 393 29
f 17 199 197
f 491 492 132
f 451 449 435
f 218 217 216
f 623 621 613
f 396 104 395
f 433 439 436
f 628 160 627
f 215 202 217
f 209 207 2
f 427 113 424
f 434 10 544
f 434 433 432
f 199 17 210
f 150 564 565
f 489 491 132
f 275 13 285
f 497 500 134
f 125 466 476
f 578 152 577
f 208 214 211
f 328 88 343
f 356 27 603
f 150 566 567
f 372 100 371
f 190 191 47
f 235 8 398
f 260 261 72
f 422 403 414
f 422 414 111
f 453 454 123
f 349 583 582
f 521 520 519
f 425 453 115
f 616 622 158
f 483 130 508
f 151 586 572
f 212 17 232
f 400 397 402
f 377 396 99
f 41 522 511
f 510 508 505
f 549 547 42
f 475 473 36
f 510 137 509
f 222 221 197
f 430 115 429
f 220 194 1
f 305 54 204
f 621 29 613
f 192 171 184
f 460 335 5
f 88 331 332
f 74 277 279
f 300 301 80
f 390 389 388
f 165 45 164
f 146 549 551
f 291 278 75
f 448 120 445
f 147 543 544
f 607 610 609
f 603 602 356
f 139 529 514
f 333 553 443
f 92 368 347
f 261 260 259
f 300 6 200
f 46 177 331
f 284 283 174
f 301 300 200
f 471 468 474
f 54 305 301
f 302 304 303
f 569 150 567
f 150 569 570
f 294 209 2
f 628 629 160
f 548 543 147
f 147 625 627
f 63 233 234
f 426 427 114
f 41 509 532
f 198 52 196
f 614 105 612
f 147 627 547
f 81 305 306
f 549 548 547
f 54 301 200
f 342 88 332
f 264 281 70
f 193 194 53
f 455 429 456
f 187 321 14
f 479 130 484
f 147 544 625
f 458 456 453
f 304 80 303
f 314 84 313
f 488 503 501
f 321 332 14
f 423 425 424
f 305 204 306
f 341 339 25
f 514 40 516
f 625 628 627
f 340 339 341
f 105 614 391
f 243 228 62
f 318 316 78
f 75 278 279
f 357 355 353
f 238 257 63
f 466 455 476
f 425 423 4
f 448 449 120
f 408 638 108
f 292 275 285
f 22 278 289
f 515 513 517
f 501 503 134
f 622 623 158
f 134 503 504
f 195 216 206
f 163 271 246
f 619 617 620
f 62 228 229
f 163 165 164
f 453 425 454
f 489 132 488
f 82 628 625
f 58 208 209
f 525 608 40
f 626 547 627
f 518 517 498
f 489 487 491
f 557 26 564
f 325 336 344
f 541 145 539
f 40 616 516
f 338 556 89
f 250 248 245
f 139 514 515
f 98 594 596
f 246 220 1
f 112 413 630
f 9 536 413
f 156 600 601
f 332 177 14
f 321 342 332
f 156 606 600
f 584 330 585
f 302 303 81
f 584 87 330
f 330 25 585
f 400 239 65
f 439 440 117
f 95 358 368
f 597 594 131
f 594 361 486
f 246 67 245
f 561 562 149
f 28 364 362
f 55 216 217
f 427 430 114
f 267 20 254
f 556 555 553
f 84 309 558
f 311 310 312
f 609 525 142
f 256 68 255
f 124 460 461
f 82 311 312
f 307 308 82
f 589 135 495
f 527 40 514
f 112 418 412
f 20 256 254
f 258 238 19
f 267 254 269
f 273 272 249
f 392 391 393
f 137 533 509
f 122 455 456
f 9 413 411
f 130 480 505
f 333 443 5
f 527 525 40
f 589 495 385
f 39 496 485
f 223 225 224
f 414 416 415
f 219 222 53
f 145 538 539
f 413 412 411
f 469 468 467
f 183 181 6
f 191 192 50
f 429 35 431
f 292 285 76
f 413 112 412
f 415 110 412
f 43 164 167
f 467 468 126
f 617 101 620
f 450 451 117
f 438 546 545
f 619 620 159
f 17 212 210
f 124 579 576
f 584 153 583
f 460 124 576
f 3 469 467
f 311 308 314
f 6 320 183
f 389 104 388
f 251 250 249
f 194 165 1
f 291 289 278
f 287 77 348
f 238 258 257
f 139 517 518
f 238 236 19
f 223 247 19
f 382 380 29
f 39 518 498
f 361 359 3
f 69 255 257
f 139 518 528
f 33 545 535
f 387 385 7
f 69 268 269
f 477 462 125
f 454 479 123
f 121 555 447
f 451 435 117
f 454 425 4
f 233 252 8
f 124 463 464
f 69 258 268
f 168 167 166
f 583 153 582
f 384 394 102
f 138 512 513
f 57 210 211
f 254 256 255
f 607 609 142
f 324 319 86
f 289 291 76
f 291 292 76
f 384 102 383
f 422 421 420
f 221 17 197
f 383 102 381
f 376 377 99
f 99 373 374
f 386 105 392
f 438 33 440
f 90 341 343
f 281 75 279
f 574 571 96
f 628 82 312
f 221 222 59
f 127 471 474
f 595 605 603
f 551 538 145
f 334 91 340
f 322 324 85
f 305 303 301
f 18 239 399
f 306 204 16
f 199 198 197
f 166 190 180
f 303 80 301
f 267 266 265
f 626 42 547
f 16 215 213
f 349 351 350
f 295 16 213
f 68 379 252
f 250 251 66
f 627 160 626
f 383 68 256
f 343 88 342
f 507 508 136
f 202 215 16
f 197 198 53
f 254 69 269
f 603 605 156
f 418 419 111
f 384 383 256
f 455 122 476
f 203 204 54
f 556 557 148
f 255 68 253
f 313 84 560
f 25 328 341
f 254 255 69
f 603 156 602
f 581 584 583
f 630 632 112
f 163 246 1
f 246 245 220
f 432 116 558
f 499 591 590
f 320 563 86
f 345 93 350
f 306 16 295
f 346 93 345
f 562 568 149
f 604 605 155
f 154 592 593
f 545 552 535
f 511 522 530
f 574 573 571
f 566 150 565
f 361 98 360
f 67 271 273
f 234 235 65
f 208 211 56
f 574 151 573
f 251 270 66
f 398 8 378
f 213 215 214
f 438 440 439
f 315 314 313
f 263 71 262
f 20 373 384
f 496 134 504
f 329 88 328
f 81 306 316
f 555 556 148
f 592 589 103
f 617 619 107
f 227 207 56
f 571 359 96
f 446 466 465
f 206 216 55
f 359 571 469
f 568 148 570
f 34 437 435
f 28 351 349
f 21 272 282
f 113 423 424
f 490 489 488
f 379 68 383
f 210 212 211
f 80 563 300
f 351 92 350
f 326 346 12
f 83 317 318
f 555 148 554
f 212 231 56
f 218 57 217
f 271 67 246
f 195 196 52
f 270 268 66
f 390 592 103
f 148 568 554
f 495 493 7
f 592 390 593
f 357 95 355
f 574 575 151
f 452 120 451
f 154 591 592
f 587 585 577
f 395 394 396
f 93 349 350
f 610 416 611
f 166 44 190
f 315 23 302
f 315 302 317
f 268 247 66
f 606 154 593
f 396 394 99
f 211 212 56
f 370 369 368
f 235 397 65
f 280 278 22
f 83 315 317
f 575 588 151
f 74 279 280
f 385 495 7
f 63 257 253
f 397 235 398
f 214 58 213
f 220 219 194
f 546 146 545
f 236 225 19
f 599 94 602
f 235 233 8
f 102 394 395
f 611 416 32
f 225 223 19
f 139 528 529
f 231 62 229
f 419 406 421
f 451 450 452
f 49 182 185
f 402 397 107
f 52 199 218
f 416 610 110
f 225 236 244
f 107 397 398
f 68 252 253
f 322 85 321
f 182 181 183
f 118 438 439
f 546 438 118
f 348 77 345
f 543 546 118
f 231 212 232
f 610 611 157
f 33 438 545
f 385 386 103
f 479 480 130
f 169 195 15
f 93 583 349
f 15 195 206
f 190 44 192
f 247 248 66
f 146 552 545
f 248 60 245
f 570 557 564
f 274 271 43
f 63 253 233
f 272 21 249
f 507 528 518
f 67 273 249
f 487 467 126
f 196 195 169
f 624 159 623
f 134 496 497
f 132 503 488
f 104 393 395
f 556 553 89
f 355 356 94
f 258 69 257
f 229 61 227
f 56 231 227
f 460 576 335
f 463 124 461
f 394 373 99
f 29 393 391
f 67 250 245
f 193 198 196
f 462 36 464
f 144 633 630
f 141 526 527
f 517 133 498
f 536 144 630
f 100 372 599
f 144 536 537
f 22 289 287
f 578 579 152
f 579 578 576
f 189 188 187
f 60 223 224
f 92 348 350
f 555 554 447
f 396 377 388
f 194 193 165
f 413 536 630
f 372 352 599
f 377 376 375
f 348 345 350
f 105 386 387
f 240 237 234
f 463 462 464
f 135 500 494
f 45 196 169
f 512 612 387
f 245 60 220
f 429 115 456
f 223 60 248
f 288 289 76
f 525 526 142
f 100 599 601
f 613 29 391
f 526 523 520
f 341 328 343
f 631 641 639
f 264 21 282
f 266 72 265
f 106 402 403
f 73 273 274
f 186 206 205
f 381 379 383
f 52 216 195
f 410 18 399
f 290 272 73
f 72 371 374
f 526 525 527
f 115 430 424
f 498 497 496
f 621 382 29
f 543 118 434
f 214 215 57
f 522 141 530
f 511 510 509
f 352 94 599
f 493 512 7
f 90 340 341
f 169 171 170
f 605 604 606
f 219 60 224
f 104 389 392
f 359 469 3
f 186 49 185
f 222 219 224
f 166 167 44
f 428 427 426
f 523 522 524
f 129 502 481
f 50 185 188
f 164 45 170
f 425 115 424
f 33 428 426
f 427 428 113
f 94 356 602
f 515 138 513
f 114 431 452
f 237 236 238
f 215 217 57
f 95 354 355
f 220 60 219
f 515 514 516
f 183 320 319
f 222 197 53
f 559 569 567
f 300 320 6
f 435 436 117
f 96 360 363
f 640 642 641
f 242 243 62
f 140 537 519
f 508 130 505
f 420 410 399
f 537 539 144
f 317 316 318
f 426 114 450
f 186 15 206
f 311 83 310
f 625 544 307
f 544 10 307
f 168 43 167
f 185 182 188
f 369 354 95
f 44 171 192
f 605 606 156
f 548 549 146
f 100 601 375
f 149 568 569
f 381 380 382
f 455 466 35
f 480 479 454
f 543 548 546
f 493 133 513
f 492 472 37
f 477 125 476
f 491 487 126
f 337 336 338
f 588 153 587
f 576 578 91
f 633 161 632
f 96 359 360
f 39 485 483
f 101 617 378
f 193 45 165
f 163 164 43
f 618 624 611
f 507 136 528
f 561 149 560
f 641 162 639
f 116 561 558
f 494 133 493
f 253 252 233
f 63 237 238
f 392 393 104
f 440 450 117
f 93 581 583
f 386 385 387
f 120 449 451
f 421 422 111
f 486 3 467
f 302 81 317
f 633 632 630
f 462 475 36
f 376 99 374
f 489 490 131
f 447 449 448
f 387 612 105
f 106 420 399
f 173 46 172
f 492 491 472
f 316 306 295
f 22 287 347
f 109 410 420
f 507 39 483
f 559 23 313
f 214 57 211
f 196 45 193
f 10 434 432
f 422 106 403
f 626 160 640
f 487 486 467
f 542 41 532
f 400 106 399
f 444 120 452
f 198 199 52
f 475 127 474
f 621 620 382
f 621 623 159
f 450 114 452
f 92 347 348
f 376 100 375
f 434 118 433
f 503 132 502
f 337 90 336
f 537 536 519
f 395 393 380
f 201 54 200
f 171 44 170
f 355 94 353
f 58 296 213
f 422 420 106
f 595 365 596
f 569 568 570
f 523 140 520
f 114 430 431
f 218 210 57
f 304 566 80
f 639 162 638
f 261 371 72
f 548 147 547
f 498 133 497
f 150 570 564
f 222 224 59
f 142 526 520
f 437 436 435
f 141 522 523
f 137 510 505
f 173 179 176
f 559 149 569
f 121 447 448
f 563 320 300
f 102 395 380
f 257 255 253
f 642 162 641
f 83 311 314
f 216 52 218
f 512 493 513
f 23 304 302
f 91 339 340
f 512 138 612
f 159 620 621
f 218 199 210
f 364 28 575
f 83 318 310
f 168 274 43
f 136 530 528
f 140 523 524
f 495 135 494
f 233 235 234
f 566 563 80
f 25 339 577
f 277 74 276
f 475 462 477
f 133 494 497
f 436 437 116
f 389 386 392
f 548 146 546
f 441 460 5
f 10 309 307
f 65 397 400
f 543 434 544
f 640 641 161
f 272 273 73
f 581 93 346
f 419 421 111
f 319 320 86
f 180 179 178
f 127 475 477
f 231 229 227
f 337 334 340
f 136 508 510
f 308 309 84
f 237 63 234
f 447 554 34
f 252 379 378
f 315 83 314
f 608 622 616
f 338 336 26
f 337 338 89
f 13 275 168
f 209 208 207
f 436 439 117
f 628 312 629
f 360 366 363
f 364 574 96
f 359 361 360
f 466 446 35
f 500 501 134
f 406 109 421
f 135 589 591
f 601 599 602
f 340 90 337
f 481 492 37
f 522 41 524
f 78 316 295
f 131 486 487
f 403 32 414
f 634 626 640
f 151 572 573
f 515 516 138
f 8 252 378
f 265 72 374
f 9 521 519
f 538 549 42
f 368 358 347
f 588 587 586
f 458 453 123
f 589 385 103
f 502 492 481
f 32 416 414
f 430 427 424
f 153 585 587
f 540 144 539
f 370 368 92
f 209 293 58
f 428 33 535
f 326 581 346
f 625 307 82
f 575 28 582
f 6 181 200
f 421 109 420
f 553 121 443
f 160 642 640
f 153 584 585
f 309 432 558
f 334 337 89
f 23 315 313
f 271 163 43
f 296 295 213
f 39 498 496
f 118 439 433
f 531 113 534
f 293 296 58
f 28 362 351
f 489 131 487
f 431 444 452
f 84 558 560
f 98 366 360
f 45 169 170
f 379 101 378
f 462 463 125
f 308 84 314
f 10 432 309
f 299 24 310
f 132 492 502
f 512 387 7
f 639 638 408
f 565 323 86
f 59 244 242
f 106 400 402
f 440 33 426
f 566 565 563
f 617 398 378
f 224 225 59
f 410 109 409
f 239 400 399
f 194 219 53
f 358 22 347
f 610 157 609
f 27 595 603
f 479 484 482
f 142 520 521
f 585 25 577
f 339 578 577
f 408 407 406
f 407 109 406
f 31 408 406
f 407 408 108
f 31 639 408
f 419 31 406
f 608 616 40
f 430 429 431
f 455 35 429
f 35 444 431
f 188 51 187
f 188 182 51
f 51 322 187
f 322 51 319
f 51 182 183
f 319 51 183
f 187 322 321
f 322 319 324
f 381 101 379
f 405 407 108
f 404 405 108
f 286 285 178
f 407 405 409
f 109 407 409
f 191 175 47
f 167 164 170
f 50 184 185
f 44 167 170
f 64 244 236
f 243 244 64
f 50 188 189
f 541 542 145
f 442 445 119
f 339 91 578
f 445 446 119
f 624 623 622
f 611 624 157
f 523 526 141
f 141 527 529
f 527 514 529
f 445 120 444
f 446 445 444
f 35 446 444
f 613 614 158
f 158 614 615
f 623 613 158
f 614 613 391
f 614 612 615
f 371 376 374
f 100 376 371
f 479 482 123
f 373 394 384
f 540 42 634
f 633 540 634
f 538 42 540
f 633 634 161
f 161 634 640
f 42 626 634
f 540 633 144
f 557 556 338
f 553 333 89
f 262 21 264
f 251 21 262
f 5 335 333
f 270 251 262
f 21 251 249
f 600 593 30
f 606 593 600
f 600 30 375
f 593 390 30
f 30 377 375
f 390 388 30
f 30 388 377
f 228 243 241
f 470 478 459
f 470 127 478
f 127 477 478
f 184 186 185
f 478 477 476
f 122 478 476
f 357 74 280
f 518 39 507
f 344 342 85
f 325 344 85
f 342 344 343
f 85 342 321
f 344 90 343
f 90 344 336
f 482 129 481
f 482 481 457
f 482 457 123
f 481 37 457
f 449 447 34
f 435 449 34
f 470 472 471
f 472 470 37
f 470 471 127
f 472 126 471
f 126 468 471
f 470 459 37
f 491 126 472
f 504 129 485
f 221 59 242
f 125 463 465
f 437 34 562
f 561 437 562
f 554 568 562
f 34 554 562
f 437 561 116
f 390 103 389
f 103 386 389
f 392 105 391
f 572 586 580
f 572 580 36
f 586 152 580
f 473 572 36
f 244 243 242
f 225 244 59
f 64 240 241
f 240 239 241
f 237 240 64
f 243 64 241
f 236 237 64
f 411 607 521
f 9 411 521
f 110 607 411
f 607 142 521
f 610 607 110
f 171 15 184
f 171 169 15
f 15 186 184
f 87 584 581
f 153 588 582
f 588 575 582
f 381 102 380
f 573 572 473
f 468 469 128
f 474 468 128
f 469 571 128
f 571 573 128
f 573 473 128
f 473 474 128
f 564 323 565
f 26 323 564
f 323 324 86
f 325 323 26
f 325 324 323
f 563 565 86
f 324 325 85
f 410 230 18
f 230 228 18
f 18 228 241
f 18 241 239
f 401 619 618
f 401 402 107
f 403 402 401
f 619 159 618
f 401 618 32
f 619 401 107
f 403 401 32
f 618 611 32
f 159 624 618
f 478 122 459
f 122 458 459
f 37 459 457
f 459 458 457
f 122 456 458
f 457 458 123
f 191 190 192
f 485 129 484
f 129 482 484
f 483 485 484
f 130 483 484
f 189 187 14
f 191 50 189
f 191 189 175
f 189 14 175
f 14 177 175
f 499 501 500
f 501 499 38
f 38 499 590
f 135 499 500
f 488 501 38
f 499 135 591
f 480 454 4
f 284 12 346
f 4 423 506
f 480 4 506
f 423 531 506
f 480 506 505
f 531 137 506
f 506 137 505
f 365 366 98
f 71 270 262
f 270 71 269
f 71 267 269
f 335 334 333
f 333 334 89
f 334 335 91
f 536 9 519
f 465 463 461
f 537 140 541
f 520 140 519
f 119 446 465
f 465 461 119
f 461 441 119
f 460 441 461
f 176 46 173
f 299 297 24
f 71 263 266
f 263 260 266
f 260 72 266
f 263 70 260
f 205 201 49
f 201 181 49
f 186 205 49
f 181 201 200
f 181 182 49
f 284 77 283
f 586 587 152
f 588 586 151
f 20 267 265
f 266 267 71
f 31 417 631
f 631 417 632
f 31 631 639
f 417 31 419
f 641 631 161
f 417 112 632
f 161 631 632
f 418 417 419
f 417 418 112
f 284 345 77
f 542 550 145
f 542 541 524
f 284 174 12
f 48 174 283
f 373 20 265
f 373 265 374
f 609 608 525
f 608 157 622
f 560 559 313
f 636 637 162
f 541 140 524
f 41 542 524
f 358 357 280
f 70 263 264
f 263 262 264
f 176 177 46
f 174 48 173
f 174 173 172
f 538 551 549
f 538 540 539
f 537 541 539
f 232 221 242
f 17 221 232
f 232 242 62
f 231 232 62
f 203 205 55
f 203 55 202
f 201 205 203
f 202 55 217
f 205 206 55
f 204 203 202
f 73 275 292
f 292 290 73
f 272 290 282
f 290 292 291
f 75 290 291
f 290 75 282
f 70 277 259
f 277 70 281
f 277 281 279
f 260 70 259
f 12 174 172
f 104 396 388
f 367 27 354
f 365 27 367
f 354 27 356
f 365 367 366
f 595 27 365
f 318 299 310
f 155 596 597
f 155 597 598
f 596 594 597
f 595 596 155
f 605 595 155
f 180 47 179
f 180 190 47
f 352 372 11
f 11 372 261
f 312 310 24
f 642 636 162
f 636 297 637
f 367 369 97
f 366 367 97
f 369 367 354
f 369 370 97
f 580 579 464
f 580 152 579
f 579 124 464
f 61 230 409
f 230 410 409
f 230 61 229
f 230 229 228
f 76 285 286
f 353 352 276
f 74 353 276
f 288 76 286
f 288 286 283
f 289 288 287
f 203 54 201
f 287 288 77
f 77 288 283
f 286 48 283
f 531 423 113
f 276 11 259
f 11 261 259
f 277 276 259
f 616 158 615
f 516 616 615
f 138 516 615
f 138 615 612
f 509 533 532
f 503 502 504
f 635 79 294
f 635 294 404
f 635 637 79
f 637 635 638
f 638 635 108
f 635 404 108
f 226 61 405
f 61 226 227
f 405 61 409
f 227 226 207
f 48 178 179
f 48 286 178
f 173 48 179
f 534 143 533
f 534 535 143
f 531 534 533
f 533 143 532
f 137 531 533
f 261 372 371
f 13 180 178
f 285 13 178
f 180 13 166
f 13 168 166
f 346 345 284
f 331 327 46
f 46 327 172
f 172 327 326
f 382 620 101
f 442 121 448
f 443 121 442
f 2 226 404
f 294 2 404
f 404 226 405
f 207 226 2
f 550 551 145
f 552 146 551
f 143 550 532
f 552 550 143
f 330 329 328
f 24 636 629
f 94 352 353
f 352 11 276
f 113 428 534
f 428 535 534
f 509 41 511
f 535 552 143
f 550 552 551
f 550 542 532
f 369 95 368
f 326 327 87
f 87 327 329
f 327 331 329
f 581 326 87
f 293 79 298
f 79 297 298
f 296 298 78
f 79 293 294
f 296 293 298
f 598 490 38
f 358 280 22
f 280 279 278
f 357 358 95
f 74 357 353
f 330 328 25
f 567 23 559
f 590 598 38
f 590 604 598
f 598 604 155
f 604 590 154
f 590 591 154
f 604 154 606
f 297 299 298
f 299 318 78
f 298 299 78
f 355 354 356
f 629 636 642
f 312 24 629
f 629 642 160
f 370 362 97
f 362 363 97
f 363 366 97
f 364 363 362
f 362 370 351
f 96 363 364
f 297 636 24
f 162 637 638
f 637 297 79
f 490 488 38
f 598 597 490
f 441 442 119
f 443 442 441
f 443 441 5
f 442 448 445
f 296 78 295
f 326 12 172
f 575 574 364
f 47 175 176
f 175 177 176
f 47 176 179
