# FEM surface export ¡ª frame 730
# Vertices: 642  Faces: 1280
v -0.49256086 0.75019979 -0.00472704
v 0.46211272 0.77975881 -0.02353427
v -0.55650634 0.67539847 0.01783962
v 0.57787710 0.56311077 0.02453471
v -0.02080414 0.38296261 0.84794652
v -0.00772334 0.56431711 0.86469829
v -0.01641667 0.27487761 -0.84294075
v -0.01714007 0.53982306 -0.88480550
v 0.93627453 0.12138975 -0.56767803
v 0.92409116 0.12511416 0.57025164
v -0.92153376 0.11629135 -0.57675636
v -0.92861122 0.14369364 0.59399098
v -0.82025218 0.54370785 0.29829609
v -0.53000808 0.38232005 0.83029884
v -0.30919260 0.72176909 0.47714713
v 0.29689837 0.74836940 0.47674632
v -0.01571831 0.79179788 0.00186201
v 0.27241001 0.74305934 -0.50142270
v -0.29941902 0.73757982 -0.48823747
v -0.54559648 0.36115959 -0.86635864
v -0.82557511 0.51538998 -0.34308213
v -1.09556389 0.11605100 -0.01016337
v 0.53618526 0.41756245 0.86047643
v 0.82492417 0.58773661 0.32139936
v -0.48857164 0.16290464 0.82500285
v 0.02552750 0.10931146 1.07902610
v -0.81911081 0.36329854 -0.32535362
v -0.80205023 0.30447119 0.30961177
v -0.01676111 0.12808955 -1.10817981
v -0.53279352 0.14501384 -0.82550460
v 0.81951296 0.57585329 -0.34230465
v 0.52413213 0.35408884 -0.86472064
v 0.79704028 0.20085946 0.27926481
v 0.49022141 0.12331495 0.85872096
v 0.34480098 0.58537889 0.49164805
v -0.31329289 0.60782433 0.49213392
v 0.00526134 0.61777341 0.05446652
v -0.33220547 0.45359299 -0.43797043
v 0.32105190 0.60544986 -0.48181066
v 0.49850228 0.08848416 -0.82520789
v 0.78234655 0.19893998 -0.31360427
v 1.08570266 0.20419283 0.00515277
v -0.67558640 0.67384440 0.14768989
v -0.57665718 0.65835291 0.41542915
v -0.40949595 0.74730575 0.24728158
v -0.76083839 0.26147237 0.73579383
v -0.71278971 0.46223742 0.58856595
v -0.90549898 0.35753882 0.43225420
v -0.16212879 0.66086191 0.68085492
v -0.42871028 0.58217174 0.68968076
v -0.27390605 0.48819321 0.88474429
v -0.14423761 0.77645165 0.25245944
v -0.24713904 0.79536545 0.01520839
v 0.14917189 0.67582452 0.68655372
v -0.00184375 0.73931760 0.48585573
v 0.21827891 0.79165667 -0.01011639
v 0.15629429 0.78635144 0.23054202
v 0.40117005 0.77585948 0.23323186
v -0.16629417 0.79224992 -0.24182333
v -0.40430138 0.76328886 -0.24545464
v 0.37945458 0.77778918 -0.27148712
v 0.12115890 0.79690510 -0.25682610
v -0.18400650 0.65852177 -0.70957959
v -0.01739234 0.75662160 -0.51106840
v 0.13325353 0.66612297 -0.71498483
v -0.57041389 0.66367024 -0.44130883
v -0.67447442 0.66633296 -0.18032129
v -0.28955916 0.45034444 -0.90462697
v -0.44259092 0.58793926 -0.70982486
v -0.91230410 0.34423396 -0.46188408
v -0.71471167 0.46687976 -0.62921828
v -0.74884516 0.25034592 -0.74252969
v -0.86654890 0.55851507 -0.02109286
v -1.02101779 0.12652305 -0.30020276
v -1.00147533 0.34972677 -0.18849127
v -1.01293683 0.35431671 0.15015328
v -1.03846812 0.12218525 0.28982565
v 0.57644647 0.69879818 0.41139689
v 0.65490389 0.72118545 0.14068262
v 0.27334654 0.49887004 0.90880167
v 0.42856160 0.62694705 0.69543839
v 0.92167771 0.37323368 0.47598672
v 0.72451240 0.51022542 0.60767776
v 0.75185955 0.27165899 0.75133890
v -0.28118384 0.29113296 1.02401030
v -0.00894022 0.36401978 1.03221869
v -0.71944129 0.00356061 0.74553597
v -0.56061995 0.10682727 0.92416173
v 0.02039635 0.13383903 0.97406888
v -0.24371050 0.00855379 1.01554954
v -0.22891840 0.27952448 0.88098347
v -0.91653115 0.01577263 0.14743291
v -0.86389136 0.11721085 0.47131985
v -0.89764774 0.15500776 -0.41318387
v -0.95281142 0.05858840 -0.18433176
v -0.68357980 0.48347503 0.16155668
v -0.84237289 0.32062110 0.00301301
v -0.70981163 0.54865068 -0.13965984
v -0.59801990 0.10000510 -0.94694608
v -0.77131748 0.07437624 -0.72234952
v -0.01368837 0.34453171 -1.02331388
v -0.29833069 0.24859063 -1.04231453
v -0.27872777 0.18505244 -0.83141613
v -0.28413117 0.00000000 -0.98713344
v -0.03202790 0.06879782 -0.97441125
v 0.41963512 0.59403616 -0.71982563
v 0.25719994 0.46397713 -0.90358740
v 0.64683598 0.71932292 -0.18952350
v 0.56256396 0.67811775 -0.45381933
v 0.75257361 0.24490324 -0.75308013
v 0.70998752 0.48061940 -0.63450819
v 0.91064018 0.35760260 -0.48060995
v 0.72236949 0.41990340 0.13285995
v 0.62017167 0.41054881 0.42595017
v 0.47378618 0.57729995 0.24759306
v 0.73646492 0.00000000 0.72416198
v 0.65682155 0.18671034 0.59176314
v 0.87242204 0.13540129 0.39453167
v 0.16879326 0.51409584 0.67302597
v 0.41182065 0.36473230 0.69635606
v 0.27165264 0.27852121 0.86093384
v 0.20298600 0.72891068 0.28996724
v 0.27358699 0.54454964 0.04122346
v -0.14779706 0.54377353 0.67559236
v 0.02635841 0.67084444 0.51416862
v -0.30416158 0.70491922 -0.02752537
v -0.16879576 0.63019419 0.23972902
v -0.45154509 0.64364809 0.27459714
v 0.19404256 0.57250226 -0.23832422
v 0.48806441 0.60005039 -0.23834397
v -0.40606058 0.67299694 -0.25204748
v -0.14820714 0.50489247 -0.14738145
v 0.16543558 0.44025743 -0.69751167
v -0.01380511 0.53220457 -0.50051421
v -0.14100897 0.43890041 -0.70769447
v 0.62512928 0.46991321 -0.40713352
v 0.71124911 0.40083990 -0.14374565
v 0.24425003 0.24588801 -0.89165914
v 0.45294282 0.38398254 -0.67576224
v 0.88982362 0.10051316 -0.45643875
v 0.68297625 0.20444323 -0.57313216
v 0.75190318 0.00208396 -0.72867662
v 0.86607820 0.22004879 -0.00555337
v 1.03549945 0.16997582 -0.30112839
v 0.97106665 0.00000000 -0.17195818
v 0.98121256 0.00000000 0.17869054
v 1.04167593 0.18608418 0.30187342
v 0.25828576 0.00744198 0.97321558
v 0.56026268 0.14506423 0.92757994
v 0.30016375 0.26269329 1.02033281
v -0.56338698 0.52150673 0.40973154
v -0.39591530 0.40160388 0.71664959
v -0.68937355 0.27038959 0.55669284
v -0.40956259 0.38844639 -0.65505594
v -0.60047179 0.54214936 -0.42165425
v -0.67846674 0.28079450 -0.58681017
v 0.58242959 0.12787113 -0.92680860
v 0.28017679 0.00798693 -1.01594114
v 0.27939317 0.26359093 -1.02634668
v 1.01897490 0.42686960 0.18731739
v 1.00239933 0.41832471 -0.17274190
v 0.84881812 0.62206447 -0.01116959
v -0.58689308 0.72027487 0.06758218
v -0.54439986 0.72565073 0.19584574
v -0.45289344 0.74870044 0.12546912
v -0.69999611 0.61048633 0.36376795
v -0.62933242 0.67408246 0.28462070
v -0.75397032 0.61898422 0.22284019
v -0.35781878 0.73814029 0.36274093
v -0.49736911 0.71376467 0.33010799
v -0.44737491 0.68995643 0.44686940
v -0.86904573 0.19063699 0.67557204
v -0.84442967 0.30034325 0.59826392
v -0.93027967 0.24927218 0.50524038
v -0.61984175 0.43953836 0.71915472
v -0.73900652 0.37610078 0.66744709
v -0.65201998 0.32475734 0.78690505
v -0.86308348 0.45481935 0.37336716
v -0.81867713 0.40835038 0.52233034
v -0.76682943 0.50733978 0.44906595
v -0.08574456 0.61958879 0.77314532
v -0.21464840 0.58011937 0.79333669
v -0.14308903 0.52952737 0.88749093
v -0.36978242 0.65566212 0.59194398
v -0.29469767 0.62807339 0.69047749
v -0.23792462 0.69320887 0.58275872
v -0.39884603 0.43656397 0.86261469
v -0.35111588 0.54279494 0.78851044
v -0.48393714 0.48938403 0.77652580
v -0.64606029 0.56505084 0.51144493
v -0.56759423 0.53118944 0.64599484
v -0.50826597 0.62259066 0.55741549
v -0.32768962 0.77317095 0.13494962
v -0.36627632 0.77323759 0.01518492
v -0.21971613 0.75705510 0.36881474
v -0.27676502 0.76791692 0.25473315
v -0.13057159 0.80565542 0.01141539
v -0.19628341 0.78547311 0.13540444
v -0.07424736 0.79187453 0.13605095
v 0.07558288 0.61739326 0.78043437
v -0.00530537 0.66876066 0.69165087
v 0.14342216 0.75015485 0.48284394
v 0.07001632 0.71059340 0.58538061
v 0.22518227 0.71935070 0.57963079
v -0.07492992 0.70252270 0.59047538
v -0.15171751 0.73389649 0.49120036
v 0.34562474 0.79031116 -0.01202788
v 0.31435102 0.78434205 0.10971445
v 0.43672067 0.78123772 0.10534509
v 0.06684918 0.78168768 0.11954346
v 0.18733422 0.79123193 0.11584547
v 0.10012502 0.80152869 -0.00473309
v 0.35674471 0.76204652 0.35794982
v 0.27489424 0.77608669 0.23584978
v 0.22587103 0.76394165 0.35447106
v -0.07100324 0.76762968 0.37428805
v 0.08441457 0.76712841 0.35795018
v 0.00251996 0.78236789 0.24329156
v -0.32864892 0.78454375 -0.11457693
v -0.44514424 0.75614250 -0.12331586
v -0.09076839 0.80010176 -0.11797699
v -0.20727395 0.80133951 -0.11405031
v -0.36181471 0.75190443 -0.37132803
v -0.28723469 0.77848411 -0.24513285
v -0.23452531 0.77427059 -0.36406127
v 0.41589245 0.78563386 -0.14448652
v 0.29884869 0.79587519 -0.13669139
v 0.19441816 0.78073025 -0.37758675
v 0.24935789 0.79003334 -0.25925004
v 0.33091816 0.75510997 -0.38944861
v 0.16492458 0.79433143 -0.13147768
v 0.04804306 0.79912984 -0.12763888
v -0.10146456 0.60181725 -0.80288851
v -0.02304113 0.66777331 -0.72004479
v 0.06288814 0.60728365 -0.80712879
v -0.16211505 0.75115770 -0.50432569
v -0.09436174 0.72291321 -0.61895096
v -0.24105240 0.70859557 -0.60117650
v 0.20694126 0.71340013 -0.61255759
v 0.05662447 0.71806103 -0.62076443
v 0.12044691 0.75865054 -0.51181090
v -0.02239323 0.79402971 -0.24761225
v 0.05362438 0.78326452 -0.38043746
v -0.09491739 0.78285742 -0.38019931
v -0.53484744 0.72272241 -0.21771492
v -0.58382601 0.71757299 -0.09332493
v -0.43636689 0.70897764 -0.47111598
v -0.49075764 0.71914452 -0.34631658
v -0.75013179 0.60179979 -0.26732036
v -0.62698066 0.66855633 -0.31060791
v -0.70222187 0.60129666 -0.39251012
v -0.15628639 0.50257051 -0.89948571
v -0.23697519 0.56905901 -0.81957722
v -0.49418238 0.48394170 -0.79947746
v -0.37125042 0.52674007 -0.81752986
v -0.42079523 0.39714891 -0.89205718
v -0.31191355 0.62836981 -0.71650422
v -0.37023771 0.67547303 -0.60831237
v -0.92808503 0.23517679 -0.54019731
v -0.84635049 0.29884890 -0.61528224
v -0.83762205 0.18784027 -0.67697239
v -0.77835226 0.50082564 -0.47998273
v -0.81486779 0.40136346 -0.54940146
v -0.88934666 0.43380430 -0.40341455
v -0.65570009 0.29460481 -0.81550050
v -0.74635339 0.36351117 -0.69861007
v -0.64224243 0.43183008 -0.75377178
v -0.50530559 0.63236624 -0.58228683
v -0.58120346 0.53764093 -0.67688942
v -0.65089697 0.57942826 -0.53582197
v -0.68228078 0.67680424 -0.01389359
v -0.84853262 0.55307972 -0.19183750
v -0.77881384 0.61466557 -0.10304670
v -0.77827132 0.62708080 0.06546576
v -0.85087538 0.55689943 0.13980596
v -0.96989816 0.11176203 -0.44716677
v -0.98665655 0.23715752 -0.40080151
v -1.04480505 0.22419581 -0.10639554
v -1.03916526 0.22168058 -0.23403434
v -1.07949710 0.10062975 -0.15745689
v -0.96341580 0.32564849 -0.32730207
v -0.92421162 0.44058034 -0.26936379
v -1.00177741 0.26482004 0.36305976
v -1.00351357 0.14531150 0.44458395
v -0.92955899 0.45686704 0.22738814
v -0.97328115 0.37220624 0.29902390
v -1.08269989 0.12757500 0.14025931
v -1.04719543 0.24318860 0.22640494
v -1.05531347 0.23060977 0.07061148
v -0.94202673 0.46465641 -0.10683072
v -1.02977848 0.35298133 -0.02558318
v -0.96001995 0.46625260 0.06276064
v 0.52976173 0.75994706 0.18781379
v 0.55981910 0.75849593 0.05337811
v 0.43921953 0.73189604 0.45683721
v 0.49182948 0.74622375 0.32310978
v 0.75295055 0.67050076 0.22576097
v 0.62554288 0.71732956 0.27683923
v 0.70294583 0.65723056 0.35986915
v 0.12986468 0.53227222 0.90418869
v 0.21204711 0.60232753 0.81179327
v 0.49293804 0.53495437 0.79094005
v 0.35434464 0.57152909 0.80436295
v 0.41134945 0.46576455 0.89309740
v 0.28406006 0.66340196 0.70378202
v 0.36149096 0.69331610 0.59350985
v 0.92145962 0.24287756 0.53370899
v 0.83934194 0.30604297 0.62025547
v 0.83801186 0.19092830 0.67003995
v 0.78486305 0.54763275 0.46257088
v 0.81105375 0.43098703 0.54887044
v 0.89068925 0.49422380 0.40794423
v 0.65353000 0.35190842 0.81924987
v 0.73590231 0.38495046 0.69060439
v 0.63614440 0.46449542 0.74684489
v 0.51388371 0.67402065 0.56546450
v 0.58633763 0.57472986 0.65639818
v 0.65770477 0.62244970 0.51557851
v -0.14027341 0.44089273 0.96705091
v -0.00750622 0.46399629 0.95456624
v -0.41729251 0.33584806 0.93515074
v -0.28256407 0.38974720 0.95265353
v 0.00767186 0.23440127 1.06934547
v -0.14138320 0.31543237 1.03027749
v -0.14320973 0.20002887 1.09533989
v -0.85953635 0.05573175 0.67909938
v -0.77219629 0.14269973 0.76044810
v -0.53055096 0.07782502 0.88501453
v -0.67820638 0.04168892 0.85539466
v -0.61744183 0.09261020 0.76253021
v -0.66465402 0.18555361 0.82954818
v -0.55718321 0.25874579 0.89055121
v 0.00308937 0.27461246 0.93273973
v -0.10097314 0.19999878 0.93919075
v -0.12693255 0.33940777 0.89942789
v -0.13296984 0.05537001 1.07307601
v -0.12911773 0.08539192 0.98509192
v 0.00977110 0.00250926 1.05214250
v -0.34637764 0.18263997 0.87562710
v -0.25840950 0.15424474 0.92764401
v -0.35717586 0.09213357 0.93959385
v -0.43782812 0.20942943 0.98782188
v -0.41186282 0.04474269 1.01446223
v -0.30281761 0.14309566 1.03113627
v -0.98759913 0.02287986 0.39514557
v -0.94078147 0.05454709 0.52794129
v -1.06829369 0.00000000 0.08643283
v -1.03709304 0.00174356 0.22654897
v -0.83298695 0.22026315 0.39483187
v -0.91319007 0.09914993 0.31634161
v -0.84297222 0.17321506 0.24142686
v -0.89074707 0.12161091 -0.49504498
v -0.99728507 0.02446110 -0.38297698
v -0.86566836 0.23755373 -0.24016760
v -0.92240512 0.11460495 -0.30794787
v -0.82535106 0.23730829 -0.36901781
v -1.01605642 0.00000000 -0.23682325
v -1.07881093 0.01023958 -0.10402119
v -0.60218841 0.59150487 0.08699954
v -0.68270838 0.52075672 0.00731300
v -0.64222628 0.63555008 -0.08519649
v -0.81043804 0.31743762 0.16207118
v -0.75713760 0.42386904 0.07344152
v -0.75375021 0.42604148 0.24598972
v -0.77659422 0.45712489 -0.23440817
v -0.76970017 0.43316221 -0.08382403
v -0.85599536 0.36259130 -0.14461307
v -0.93968594 0.02511288 -0.02992990
v -0.89102358 0.18395641 -0.08670589
v -0.88692093 0.16946685 0.06850626
v -0.78816015 0.10877881 -0.77927363
v -0.86103773 0.05912468 -0.65598035
v -0.56580150 0.23919009 -0.91147953
v -0.68987375 0.17281537 -0.86599737
v -0.64425707 0.12990558 -0.76386440
v -0.68964338 0.01762724 -0.82966912
v -0.60204172 0.00652460 -0.87747359
v -0.01509179 0.45076597 -0.95650917
v -0.14921828 0.40342844 -0.98501104
v -0.16289261 0.19374540 -1.09706950
v -0.15851958 0.29619038 -1.04960001
v -0.01784351 0.24076305 -1.09443808
v -0.28973988 0.35321411 -0.98044962
v -0.41890678 0.30579242 -0.95800865
v -0.13841125 0.22421098 -0.83319288
v -0.15324289 0.11006478 -0.88302946
v -0.00600796 0.17694955 -0.91534561
v -0.44003165 0.02964849 -0.87038368
v -0.27444810 0.03696501 -0.87356293
v -0.38825512 0.14808093 -0.83506513
v -0.01232036 0.00000000 -1.06252074
v -0.14601065 0.00045172 -0.96020740
v -0.14372230 0.07417358 -1.07331204
v -0.44932824 0.18296742 -1.01172554
v -0.31356317 0.11083549 -1.06480455
v -0.46434012 0.00867816 -0.98556048
v 0.20516334 0.57407570 -0.82089740
v 0.11822969 0.51015919 -0.90195590
v 0.34603783 0.67940021 -0.62462789
v 0.27672338 0.63592082 -0.72458309
v 0.39120454 0.42515719 -0.87833107
v 0.34236020 0.53077626 -0.81707120
v 0.48168775 0.48220012 -0.79291791
v 0.55024964 0.75715792 -0.10823958
v 0.50299466 0.75453657 -0.23412350
v 0.70246458 0.62744260 -0.40173718
v 0.60701859 0.69920343 -0.32079726
v 0.73881334 0.65309966 -0.26807386
v 0.47426286 0.73785943 -0.36896381
v 0.42622155 0.71613854 -0.49693307
v 0.85005450 0.19543372 -0.67254382
v 0.84216279 0.29425168 -0.60958028
v 0.92399043 0.22251338 -0.52273583
v 0.62414598 0.41270962 -0.75680733
v 0.73468417 0.35899639 -0.69601542
v 0.64804655 0.29970273 -0.80766886
v 0.87221760 0.47042131 -0.40850440
v 0.80916220 0.42511606 -0.55203974
v 0.76882559 0.52786034 -0.49922183
v 0.49947387 0.63448501 -0.59706676
v 0.64471722 0.58653885 -0.54598647
v 0.57652783 0.54190177 -0.68303597
v 0.62753028 0.49631745 0.09460771
v 0.61418247 0.51569933 0.20055099
v 0.52750456 0.58864498 0.16196564
v 0.73040432 0.33053488 0.36864772
v 0.66108418 0.44458055 0.29580063
v 0.77290910 0.33182743 0.23151234
v 0.41044211 0.58310932 0.39903530
v 0.54977489 0.51057142 0.34611791
v 0.48046535 0.49803832 0.45737264
v 0.84973419 0.04510578 0.66482198
v 0.83767122 0.07402875 0.58748204
v 0.92369825 0.01862113 0.49075401
v 0.55489635 0.16238835 0.70922887
v 0.67266548 0.07064351 0.64714003
v 0.59256369 0.05859056 0.77915782
v 0.83453059 0.10122256 0.36758348
v 0.78101820 0.12930548 0.52383679
v 0.74359953 0.19688272 0.43818647
v 0.06355318 0.45992208 0.75793958
v 0.17914604 0.37671819 0.77887279
v 0.13420999 0.34413823 0.82220471
v 0.40999845 0.47576424 0.60071069
v 0.29576939 0.43275988 0.69687200
v 0.28303024 0.57575834 0.59638971
v 0.33198825 0.19725023 0.87550408
v 0.33279303 0.33211124 0.79482239
v 0.41841546 0.25581688 0.77565247
v 0.63902134 0.29980013 0.50843126
v 0.56361884 0.28859165 0.65812331
v 0.52514333 0.39516163 0.57033110
v 0.36208412 0.52738017 0.18123475
v 0.42572105 0.52543843 0.03254618
v 0.27758417 0.65332866 0.39835766
v 0.36005643 0.64010704 0.30827659
v 0.14112252 0.58005625 0.04625810
v 0.28309759 0.68692255 0.15335152
v 0.12160269 0.65936887 0.18358454
v -0.10413256 0.46360421 0.75641185
v 0.00081247 0.55407912 0.67282915
v -0.17480424 0.64564729 0.50939852
v -0.06258471 0.62933588 0.59798813
v -0.21880507 0.57990289 0.59421223
v 0.10762123 0.60334492 0.60334784
v 0.18183257 0.64901012 0.50578916
v -0.44845492 0.61106670 0.01425567
v -0.37843838 0.69541037 0.14108537
v -0.48953542 0.67444319 0.15417613
v -0.05327507 0.61693150 0.16061117
v -0.22387893 0.73962730 0.13367873
v -0.15807921 0.61857498 0.04829398
v -0.38982075 0.60241795 0.38727140
v -0.32168749 0.68770474 0.26365870
v -0.25794950 0.69320369 0.36830357
v 0.12386639 0.72199941 0.40886351
v -0.07768614 0.71783978 0.41309717
v 0.01563592 0.61794096 0.30272779
v 0.41193822 0.55183667 -0.12786999
v 0.51264709 0.61554652 -0.09570299
v 0.12422838 0.57950252 -0.09598158
v 0.24548483 0.53278047 -0.10269659
v 0.41457126 0.63818723 -0.36518145
v 0.34106773 0.65169752 -0.27087468
v 0.25212842 0.56600887 -0.35541460
v -0.49085104 0.70249981 -0.10749567
v -0.40243435 0.55353558 -0.10945498
v -0.22160177 0.47718000 -0.31695214
v -0.28858671 0.55405754 -0.20299594
v -0.37287137 0.54232848 -0.34570798
v -0.25088787 0.55232430 -0.11326155
v -0.07772549 0.60416782 -0.09314876
v 0.09468522 0.36507478 -0.78472990
v 0.01984302 0.44043332 -0.69656980
v -0.07415685 0.36858425 -0.76916921
v 0.15904339 0.60681963 -0.52411729
v 0.09163044 0.55031925 -0.63469654
v 0.25467557 0.52328449 -0.62108594
v -0.21926630 0.41888088 -0.56437618
v -0.08069003 0.54841799 -0.62369275
v -0.11218964 0.48202306 -0.47023085
v 0.04143248 0.53716862 -0.22820377
v -0.06486061 0.49271455 -0.31920835
v 0.09729780 0.52892882 -0.35668740
v 0.61217904 0.51196158 -0.16887562
v 0.61293679 0.49200094 -0.06224265
v 0.48494929 0.54797864 -0.45523891
v 0.53649610 0.54450297 -0.30992264
v 0.75167251 0.31917235 -0.24429330
v 0.66991645 0.44750091 -0.26959780
v 0.69358087 0.33306995 -0.35147822
v 0.12836377 0.27542603 -0.87512165
v 0.22876260 0.34140745 -0.78614575
v 0.47372141 0.24975394 -0.77387774
v 0.34913817 0.32742918 -0.77665734
v 0.36890972 0.18031164 -0.83764291
v 0.31174269 0.42418718 -0.69890523
v 0.38470066 0.49425241 -0.58719862
v 0.95420057 0.01250131 -0.49141091
v 0.83654797 0.01099662 -0.57525837
v 0.87635922 0.07636567 -0.66289353
v 0.73866045 0.21157607 -0.46250087
v 0.77135646 0.10858548 -0.52042478
v 0.81439275 0.09893446 -0.38952276
v 0.62438530 0.05253931 -0.79990166
v 0.70634317 0.10112283 -0.66607219
v 0.60804766 0.16803929 -0.71394438
v 0.53345245 0.43930119 -0.54456133
v 0.56909710 0.30251253 -0.63934445
v 0.66685241 0.34538805 -0.49316338
v 0.73562348 0.40161487 0.01348489
v 0.81774908 0.19930153 -0.16463692
v 0.78175944 0.27474311 -0.08607270
v 0.79479277 0.31308156 0.06540769
v 0.85924304 0.23159000 0.14662763
v 0.99646306 0.15440889 -0.43219995
v 1.00878274 0.03861635 -0.39048097
v 1.06704354 0.06887191 -0.07861364
v 1.04813230 0.06859203 -0.24210466
v 1.06909180 0.16838123 -0.13868864
v 0.95431024 0.00927150 -0.34272647
v 0.87881505 0.07689308 -0.26006761
v 0.97034228 0.00689506 0.35724965
v 0.99402422 0.13845639 0.43139371
v 0.88561195 0.11199185 0.24991480
v 0.93328685 0.00000000 0.31979227
v 1.05787969 0.19457540 0.15241338
v 1.03347147 0.08359200 0.25347242
v 1.06333506 0.08016331 0.10067645
v 0.91634649 0.10897978 -0.07988623
v 0.99002671 0.00000000 0.00409268
v 0.91440475 0.12337191 0.10506407
v 0.10244565 0.20662647 0.87763155
v 0.35799444 0.13714242 0.89870036
v 0.25884467 0.13900985 0.92341495
v 0.14660011 0.10731210 0.97114390
v 0.17024419 0.00613958 1.04539776
v 0.75810194 0.11976384 0.77325821
v 0.57358634 0.28893980 0.91431284
v 0.68116605 0.21644181 0.85852993
v 0.64037675 0.04262180 0.84129673
v 0.51167870 0.02194551 0.92684054
v 0.13325347 0.42692912 0.98267186
v 0.16955954 0.17506619 1.06624198
v 0.14336516 0.29420036 1.03660393
v 0.27404720 0.38274512 0.97966546
v 0.41608784 0.34571868 0.94553310
v 0.43885109 0.02103318 0.97148299
v 0.45133388 0.18916273 0.98643517
v 0.30887097 0.10598570 1.03666592
v -0.55962956 0.55023813 0.21810661
v -0.42771468 0.56109786 0.48844856
v -0.52102500 0.58854532 0.34593993
v -0.63232273 0.49114740 0.26780197
v -0.68381965 0.43848577 0.34848940
v -0.20633733 0.41932535 0.80546117
v -0.43730107 0.26001364 0.77785528
v -0.30811191 0.31167400 0.78881264
v -0.27187699 0.46119452 0.69890219
v -0.35755038 0.52257639 0.58295208
v -0.81650645 0.03685239 0.61163682
v -0.75269681 0.32545206 0.45185220
v -0.79514599 0.18837759 0.55260366
v -0.70466042 0.11433148 0.65723670
v -0.61409962 0.18664370 0.71719551
v -0.48189130 0.43771538 0.56506884
v -0.56726789 0.33167803 0.65263826
v -0.62333667 0.39379093 0.50612968
v -0.20421776 0.31047443 -0.77499270
v -0.35904577 0.50967687 -0.56908345
v -0.26811230 0.43832234 -0.68686074
v -0.32694817 0.30137253 -0.76743275
v -0.44944763 0.27679718 -0.74849296
v -0.55217969 0.64056051 -0.20250310
v -0.70102286 0.44722947 -0.36725479
v -0.63857555 0.54345298 -0.26060531
v -0.51759475 0.62768716 -0.34889475
v -0.45645317 0.58365780 -0.44742689
v -0.81494915 0.16269661 -0.57329369
v -0.62162131 0.24306348 -0.71546912
v -0.72411239 0.17086485 -0.63987654
v -0.78734601 0.19355345 -0.50826043
v -0.76973414 0.32612485 -0.43266800
v -0.51387876 0.47616619 -0.55647779
v -0.64166403 0.40852198 -0.49107981
v -0.56147450 0.35372260 -0.62427801
v 0.79808229 0.11900472 -0.76716846
v 0.53266114 0.06135643 -0.89541924
v 0.69235384 0.03069443 -0.84430951
v 0.68430197 0.16630830 -0.84248221
v 0.58869934 0.25722799 -0.89288795
v 0.10792627 0.14762530 -0.93259960
v 0.13077961 0.04510405 -1.07782745
v 0.10813922 0.04192281 -1.01209950
v 0.25293869 0.12064249 -0.95655310
v 0.36253202 0.12922159 -0.92501229
v 0.13020058 0.41341004 -0.97214007
v 0.41206205 0.30122840 -0.93804747
v 0.27343303 0.36666968 -0.96987832
v 0.12618415 0.29053491 -1.03846180
v 0.13950020 0.18796770 -1.07490540
v 0.43519405 0.02301461 -0.98894221
v 0.29262963 0.10963427 -1.04861188
v 0.44106677 0.19038701 -0.98759013
v 1.00393903 0.27180031 0.40276891
v 1.06087637 0.31861278 0.09636030
v 1.04942071 0.31327882 0.25409985
v 0.97937191 0.41213420 0.34195784
v 0.93490273 0.51279408 0.26048166
v 0.98209971 0.27302134 -0.39237493
v 0.92182434 0.50628322 -0.26346561
v 0.96195418 0.38990408 -0.32732809
v 1.02654886 0.29971826 -0.24087907
v 1.05461133 0.31444186 -0.08593915
v 0.65784264 0.72325563 -0.02665042
v 0.83549792 0.62087750 0.16096547
v 0.75273257 0.67951667 0.06199969
v 0.75806332 0.67234212 -0.11077823
v 0.84083182 0.60584790 -0.17828415
v 1.01520419 0.42964792 0.01120872
v 0.93871647 0.53574610 -0.08897068
v 0.94069862 0.55005753 0.09741347
f 330 87 329
f 336 325 26
f 207 208 56
f 464 36 580
f 502 129 504
f 157 624 622
f 308 311 82
f 247 223 248
f 507 483 508
f 331 88 329
f 494 500 497
f 156 601 602
f 591 589 592
f 365 98 596
f 75 281 282
f 152 587 577
f 149 559 560
f 555 121 553
f 530 141 529
f 515 517 139
f 361 594 98
f 250 67 249
f 157 608 609
f 294 293 209
f 317 81 316
f 557 338 26
f 303 305 81
f 530 529 528
f 101 381 382
f 415 418 111
f 192 184 50
f 412 110 411
f 20 384 256
f 131 594 486
f 281 264 282
f 347 287 348
f 28 349 582
f 165 163 1
f 248 250 66
f 617 107 398
f 273 271 274
f 456 115 453
f 558 561 560
f 335 576 91
f 331 177 332
f 116 433 436
f 351 370 92
f 136 511 530
f 239 240 65
f 247 258 19
f 304 23 567
f 148 557 570
f 214 208 58
f 440 426 450
f 268 270 269
f 258 247 268
f 204 202 16
f 466 125 465
f 517 513 133
f 168 275 274
f 275 73 274
f 198 193 53
f 309 308 307
f 510 511 136
f 415 416 110
f 131 490 597
f 473 475 474
f 414 415 111
f 493 495 494
f 496 504 485
f 433 116 432
f 600 375 601
f 240 234 65
f 418 415 412
f 486 361 3
f 567 566 304
f 380 393 29
f 17 199 197
f 491 492 132
f 451 449 435
f 218 217 216
f 623 621 613
f 396 104 395
f 433 439 436
f 628 160 627
f 215 202 217
f 209 207 2
f 427 113 424
f 434 10 544
f 434 433 432
f 199 17 210
f 150 564 565
f 489 491 132
f 275 13 285
f 497 500 134
f 125 466 476
f 578 152 577
f 208 214 211
f 328 88 343
f 356 27 603
f 150 566 567
f 372 100 371
f 190 191 47
f 235 8 398
f 260 261 72
f 422 403 414
f 422 414 111
f 453 454 123
f 349 583 582
f 521 520 519
f 425 453 115
f 616 622 158
f 483 130 508
f 151 586 572
f 212 17 232
f 400 397 402
f 377 396 99
f 41 522 511
f 510 508 505
f 549 547 42
f 475 473 36
f 510 137 509
f 222 221 197
f 430 115 429
f 220 194 1
f 305 54 204
f 621 29 613
f 192 171 184
f 460 335 5
f 88 331 332
f 74 277 279
f 300 301 80
f 390 389 388
f 165 45 164
f 146 549 551
f 291 278 75
f 448 120 445
f 147 543 544
f 607 610 609
f 603 602 356
f 139 529 514
f 333 553 443
f 92 368 347
f 261 260 259
f 300 6 200
f 46 177 331
f 284 283 174
f 301 300 200
f 471 468 474
f 54 305 301
f 302 304 303
f 569 150 567
f 150 569 570
f 294 209 2
f 628 629 160
f 548 543 147
f 147 625 627
f 63 233 234
f 426 427 114
f 41 509 532
f 198 52 196
f 614 105 612
f 147 627 547
f 81 305 306
f 549 548 547
f 54 301 200
f 342 88 332
f 264 281 70
f 193 194 53
f 455 429 456
f 187 321 14
f 479 130 484
f 147 544 625
f 458 456 453
f 304 80 303
f 314 84 313
f 488 503 501
f 321 332 14
f 423 425 424
f 305 204 306
f 341 339 25
f 514 40 516
f 625 628 627
f 340 339 341
f 105 614 391
f 243 228 62
f 318 316 78
f 75 278 279
f 357 355 353
f 238 257 63
f 466 455 476
f 425 423 4
f 448 449 120
f 408 638 108
f 292 275 285
f 22 278 289
f 515 513 517
f 501 503 134
f 622 623 158
f 134 503 504
f 195 216 206
f 163 271 246
f 619 617 620
f 62 228 229
f 163 165 164
f 453 425 454
f 489 132 488
f 82 628 625
f 58 208 209
f 525 608 40
f 626 547 627
f 518 517 498
f 489 487 491
f 557 26 564
f 325 336 344
f 541 145 539
f 40 616 516
f 338 556 89
f 250 248 245
f 139 514 515
f 98 594 596
f 246 220 1
f 112 413 630
f 9 536 413
f 156 600 601
f 332 177 14
f 321 342 332
f 156 606 600
f 584 330 585
f 302 303 81
f 584 87 330
f 330 25 585
f 400 239 65
f 439 440 117
f 95 358 368
f 597 594 131
f 594 361 486
f 246 67 245
f 561 562 149
f 28 364 362
f 55 216 217
f 427 430 114
f 267 20 254
f 556 555 553
f 84 309 558
f 311 310 312
f 609 525 142
f 256 68 255
f 124 460 461
f 82 311 312
f 307 308 82
f 589 135 495
f 527 40 514
f 112 418 412
f 20 256 254
f 258 238 19
f 267 254 269
f 273 272 249
f 392 391 393
f 137 533 509
f 122 455 456
f 9 413 411
f 130 480 505
f 333 443 5
f 527 525 40
f 589 495 385
f 39 496 485
f 223 225 224
f 414 416 415
f 219 222 53
f 145 538 539
f 413 412 411
f 469 468 467
f 183 181 6
f 191 192 50
f 429 35 431
f 292 285 76
f 413 112 412
f 415 110 412
f 43 164 167
f 467 468 126
f 617 101 620
f 450 451 117
f 438 546 545
f 619 620 159
f 17 212 210
f 124 579 576
f 584 153 583
f 460 124 576
f 3 469 467
f 311 308 314
f 6 320 183
f 389 104 388
f 251 250 249
f 194 165 1
f 291 289 278
f 287 77 348
f 238 258 257
f 139 517 518
f 238 236 19
f 223 247 19
f 382 380 29
f 39 518 498
f 361 359 3
f 69 255 257
f 139 518 528
f 33 545 535
f 387 385 7
f 69 268 269
f 477 462 125
f 454 479 123
f 121 555 447
f 451 435 117
f 454 425 4
f 233 252 8
f 124 463 464
f 69 258 268
f 168 167 166
f 583 153 582
f 384 394 102
f 138 512 513
f 57 210 211
f 254 256 255
f 607 609 142
f 324 319 86
f 289 291 76
f 291 292 76
f 384 102 383
f 422 421 420
f 221 17 197
f 383 102 381
f 376 377 99
f 99 373 374
f 386 105 392
f 438 33 440
f 90 341 343
f 281 75 279
f 574 571 96
f 628 82 312
f 221 222 59
f 127 471 474
f 595 605 603
f 551 538 145
f 334 91 340
f 322 324 85
f 305 303 301
f 18 239 399
f 306 204 16
f 199 198 197
f 166 190 180
f 303 80 301
f 267 266 265
f 626 42 547
f 16 215 213
f 349 351 350
f 295 16 213
f 68 379 252
f 250 251 66
f 627 160 626
f 383 68 256
f 343 88 342
f 507 508 136
f 202 215 16
f 197 198 53
f 254 69 269
f 603 605 156
f 418 419 111
f 384 383 256
f 455 122 476
f 203 204 54
f 556 557 148
f 255 68 253
f 313 84 560
f 25 328 341
f 254 255 69
f 603 156 602
f 581 584 583
f 630 632 112
f 163 246 1
f 246 245 220
f 432 116 558
f 499 591 590
f 320 563 86
f 345 93 350
f 306 16 295
f 346 93 345
f 562 568 149
f 604 605 155
f 154 592 593
f 545 552 535
f 511 522 530
f 574 573 571
f 566 150 565
f 361 98 360
f 67 271 273
f 234 235 65
f 208 211 56
f 574 151 573
f 251 270 66
f 398 8 378
f 213 215 214
f 438 440 439
f 315 314 313
f 263 71 262
f 20 373 384
f 496 134 504
f 329 88 328
f 81 306 316
f 555 556 148
f 592 589 103
f 617 619 107
f 227 207 56
f 571 359 96
f 446 466 465
f 206 216 55
f 359 571 469
f 568 148 570
f 34 437 435
f 28 351 349
f 21 272 282
f 113 423 424
f 490 489 488
f 379 68 383
f 210 212 211
f 80 563 300
f 351 92 350
f 326 346 12
f 83 317 318
f 555 148 554
f 212 231 56
f 218 57 217
f 271 67 246
f 195 196 52
f 270 268 66
f 390 592 103
f 148 568 554
f 495 493 7
f 592 390 593
f 357 95 355
f 574 575 151
f 452 120 451
f 154 591 592
f 587 585 577
f 395 394 396
f 93 349 350
f 610 416 611
f 166 44 190
f 315 23 302
f 315 302 317
f 268 247 66
f 606 154 593
f 396 394 99
f 211 212 56
f 370 369 368
f 235 397 65
f 280 278 22
f 83 315 317
f 575 588 151
f 74 279 280
f 385 495 7
f 63 257 253
f 397 235 398
f 214 58 213
f 220 219 194
f 546 146 545
f 236 225 19
f 599 94 602
f 235 233 8
f 102 394 395
f 611 416 32
f 225 223 19
f 139 528 529
f 231 62 229
f 419 406 421
f 451 450 452
f 49 182 185
f 402 397 107
f 52 199 218
f 416 610 110
f 225 236 244
f 107 397 398
f 68 252 253
f 322 85 321
f 182 181 183
f 118 438 439
f 546 438 118
f 348 77 345
f 543 546 118
f 231 212 232
f 610 611 157
f 33 438 545
f 385 386 103
f 479 480 130
f 169 195 15
f 93 583 349
f 15 195 206
f 190 44 192
f 247 248 66
f 146 552 545
f 248 60 245
f 570 557 564
f 274 271 43
f 63 253 233
f 272 21 249
f 507 528 518
f 67 273 249
f 487 467 126
f 196 195 169
f 624 159 623
f 134 496 497
f 132 503 488
f 104 393 395
f 556 553 89
f 355 356 94
f 258 69 257
f 229 61 227
f 56 231 227
f 460 576 335
f 463 124 461
f 394 373 99
f 29 393 391
f 67 250 245
f 193 198 196
f 462 36 464
f 144 633 630
f 141 526 527
f 517 133 498
f 536 144 630
f 100 372 599
f 144 536 537
f 22 289 287
f 578 579 152
f 579 578 576
f 189 188 187
f 60 223 224
f 92 348 350
f 555 554 447
f 396 377 388
f 194 193 165
f 413 536 630
f 372 352 599
f 377 376 375
f 348 345 350
f 105 386 387
f 240 237 234
f 463 462 464
f 135 500 494
f 45 196 169
f 512 612 387
f 245 60 220
f 429 115 456
f 223 60 248
f 288 289 76
f 525 526 142
f 100 599 601
f 613 29 391
f 526 523 520
f 341 328 343
f 631 641 639
f 264 21 282
f 266 72 265
f 106 402 403
f 73 273 274
f 186 206 205
f 381 379 383
f 52 216 195
f 410 18 399
f 290 272 73
f 72 371 374
f 526 525 527
f 115 430 424
f 498 497 496
f 621 382 29
f 543 118 434
f 214 215 57
f 522 141 530
f 511 510 509
f 352 94 599
f 493 512 7
f 90 340 341
f 169 171 170
f 605 604 606
f 219 60 224
f 104 389 392
f 359 469 3
f 186 49 185
f 222 219 224
f 166 167 44
f 428 427 426
f 523 522 524
f 129 502 481
f 50 185 188
f 164 45 170
f 425 115 424
f 33 428 426
f 427 428 113
f 94 356 602
f 515 138 513
f 114 431 452
f 237 236 238
f 215 217 57
f 95 354 355
f 220 60 219
f 515 514 516
f 183 320 319
f 222 197 53
f 559 569 567
f 300 320 6
f 435 436 117
f 96 360 363
f 640 642 641
f 242 243 62
f 140 537 519
f 508 130 505
f 420 410 399
f 537 539 144
f 317 316 318
f 426 114 450
f 186 15 206
f 311 83 310
f 625 544 307
f 544 10 307
f 168 43 167
f 185 182 188
f 369 354 95
f 44 171 192
f 605 606 156
f 548 549 146
f 100 601 375
f 149 568 569
f 381 380 382
f 455 466 35
f 480 479 454
f 543 548 546
f 493 133 513
f 492 472 37
f 477 125 476
f 491 487 126
f 337 336 338
f 588 153 587
f 576 578 91
f 633 161 632
f 96 359 360
f 39 485 483
f 101 617 378
f 193 45 165
f 163 164 43
f 618 624 611
f 507 136 528
f 561 149 560
f 641 162 639
f 116 561 558
f 494 133 493
f 253 252 233
f 63 237 238
f 392 393 104
f 440 450 117
f 93 581 583
f 386 385 387
f 120 449 451
f 421 422 111
f 486 3 467
f 302 81 317
f 633 632 630
f 462 475 36
f 376 99 374
f 489 490 131
f 447 449 448
f 387 612 105
f 106 420 399
f 173 46 172
f 492 491 472
f 316 306 295
f 22 287 347
f 109 410 420
f 507 39 483
f 559 23 313
f 214 57 211
f 196 45 193
f 10 434 432
f 422 106 403
f 626 160 640
f 487 486 467
f 542 41 532
f 400 106 399
f 444 120 452
f 198 199 52
f 475 127 474
f 621 620 382
f 621 623 159
f 450 114 452
f 92 347 348
f 376 100 375
f 434 118 433
f 503 132 502
f 337 90 336
f 537 536 519
f 395 393 380
f 201 54 200
f 171 44 170
f 355 94 353
f 58 296 213
f 422 420 106
f 595 365 596
f 569 568 570
f 523 140 520
f 114 430 431
f 218 210 57
f 304 566 80
f 639 162 638
f 261 371 72
f 548 147 547
f 498 133 497
f 150 570 564
f 222 224 59
f 142 526 520
f 437 436 435
f 141 522 523
f 137 510 505
f 173 179 176
f 559 149 569
f 121 447 448
f 563 320 300
f 102 395 380
f 257 255 253
f 642 162 641
f 83 311 314
f 216 52 218
f 512 493 513
f 23 304 302
f 91 339 340
f 512 138 612
f 159 620 621
f 218 199 210
f 364 28 575
f 83 318 310
f 168 274 43
f 136 530 528
f 140 523 524
f 495 135 494
f 233 235 234
f 566 563 80
f 25 339 577
f 277 74 276
f 475 462 477
f 133 494 497
f 436 437 116
f 389 386 392
f 548 146 546
f 441 460 5
f 10 309 307
f 65 397 400
f 543 434 544
f 640 641 161
f 272 273 73
f 581 93 346
f 419 421 111
f 319 320 86
f 180 179 178
f 127 475 477
f 231 229 227
f 337 334 340
f 136 508 510
f 308 309 84
f 237 63 234
f 447 554 34
f 252 379 378
f 315 83 314
f 608 622 616
f 338 336 26
f 337 338 89
f 13 275 168
f 209 208 207
f 436 439 117
f 628 312 629
f 360 366 363
f 364 574 96
f 359 361 360
f 466 446 35
f 500 501 134
f 406 109 421
f 135 589 591
f 601 599 602
f 340 90 337
f 481 492 37
f 522 41 524
f 78 316 295
f 131 486 487
f 403 32 414
f 634 626 640
f 151 572 573
f 515 516 138
f 8 252 378
f 265 72 374
f 9 521 519
f 538 549 42
f 368 358 347
f 588 587 586
f 458 453 123
f 589 385 103
f 502 492 481
f 32 416 414
f 430 427 424
f 153 585 587
f 540 144 539
f 370 368 92
f 209 293 58
f 428 33 535
f 326 581 346
f 625 307 82
f 575 28 582
f 6 181 200
f 421 109 420
f 553 121 443
f 160 642 640
f 153 584 585
f 309 432 558
f 334 337 89
f 23 315 313
f 271 163 43
f 296 295 213
f 39 498 496
f 118 439 433
f 531 113 534
f 293 296 58
f 28 362 351
f 489 131 487
f 431 444 452
f 84 558 560
f 98 366 360
f 45 169 170
f 379 101 378
f 462 463 125
f 308 84 314
f 10 432 309
f 299 24 310
f 132 492 502
f 512 387 7
f 639 638 408
f 565 323 86
f 59 244 242
f 106 400 402
f 440 33 426
f 566 565 563
f 617 398 378
f 224 225 59
f 410 109 409
f 239 400 399
f 194 219 53
f 358 22 347
f 610 157 609
f 27 595 603
f 479 484 482
f 142 520 521
f 585 25 577
f 339 578 577
f 408 407 406
f 407 109 406
f 31 408 406
f 407 408 108
f 31 639 408
f 419 31 406
f 608 616 40
f 430 429 431
f 455 35 429
f 35 444 431
f 188 51 187
f 188 182 51
f 51 322 187
f 322 51 319
f 51 182 183
f 319 51 183
f 187 322 321
f 322 319 324
f 381 101 379
f 405 407 108
f 404 405 108
f 286 285 178
f 407 405 409
f 109 407 409
f 191 175 47
f 167 164 170
f 50 184 185
f 44 167 170
f 64 244 236
f 243 244 64
f 50 188 189
f 541 542 145
f 442 445 119
f 339 91 578
f 445 446 119
f 624 623 622
f 611 624 157
f 523 526 141
f 141 527 529
f 527 514 529
f 445 120 444
f 446 445 444
f 35 446 444
f 613 614 158
f 158 614 615
f 623 613 158
f 614 613 391
f 614 612 615
f 371 376 374
f 100 376 371
f 479 482 123
f 373 394 384
f 540 42 634
f 633 540 634
f 538 42 540
f 633 634 161
f 161 634 640
f 42 626 634
f 540 633 144
f 557 556 338
f 553 333 89
f 262 21 264
f 251 21 262
f 5 335 333
f 270 251 262
f 21 251 249
f 600 593 30
f 606 593 600
f 600 30 375
f 593 390 30
f 30 377 375
f 390 388 30
f 30 388 377
f 228 243 241
f 470 478 459
f 470 127 478
f 127 477 478
f 184 186 185
f 478 477 476
f 122 478 476
f 357 74 280
f 518 39 507
f 344 342 85
f 325 344 85
f 342 344 343
f 85 342 321
f 344 90 343
f 90 344 336
f 482 129 481
f 482 481 457
f 482 457 123
f 481 37 457
f 449 447 34
f 435 449 34
f 470 472 471
f 472 470 37
f 470 471 127
f 472 126 471
f 126 468 471
f 470 459 37
f 491 126 472
f 504 129 485
f 221 59 242
f 125 463 465
f 437 34 562
f 561 437 562
f 554 568 562
f 34 554 562
f 437 561 116
f 390 103 389
f 103 386 389
f 392 105 391
f 572 586 580
f 572 580 36
f 586 152 580
f 473 572 36
f 244 243 242
f 225 244 59
f 64 240 241
f 240 239 241
f 237 240 64
f 243 64 241
f 236 237 64
f 411 607 521
f 9 411 521
f 110 607 411
f 607 142 521
f 610 607 110
f 171 15 184
f 171 169 15
f 15 186 184
f 87 584 581
f 153 588 582
f 588 575 582
f 381 102 380
f 573 572 473
f 468 469 128
f 474 468 128
f 469 571 128
f 571 573 128
f 573 473 128
f 473 474 128
f 564 323 565
f 26 323 564
f 323 324 86
f 325 323 26
f 325 324 323
f 563 565 86
f 324 325 85
f 410 230 18
f 230 228 18
f 18 228 241
f 18 241 239
f 401 619 618
f 401 402 107
f 403 402 401
f 619 159 618
f 401 618 32
f 619 401 107
f 403 401 32
f 618 611 32
f 159 624 618
f 478 122 459
f 122 458 459
f 37 459 457
f 459 458 457
f 122 456 458
f 457 458 123
f 191 190 192
f 485 129 484
f 129 482 484
f 483 485 484
f 130 483 484
f 189 187 14
f 191 50 189
f 191 189 175
f 189 14 175
f 14 177 175
f 499 501 500
f 501 499 38
f 38 499 590
f 135 499 500
f 488 501 38
f 499 135 591
f 480 454 4
f 284 12 346
f 4 423 506
f 480 4 506
f 423 531 506
f 480 506 505
f 531 137 506
f 506 137 505
f 365 366 98
f 71 270 262
f 270 71 269
f 71 267 269
f 335 334 333
f 333 334 89
f 334 335 91
f 536 9 519
f 465 463 461
f 537 140 541
f 520 140 519
f 119 446 465
f 465 461 119
f 461 441 119
f 460 441 461
f 176 46 173
f 299 297 24
f 71 263 266
f 263 260 266
f 260 72 266
f 263 70 260
f 205 201 49
f 201 181 49
f 186 205 49
f 181 201 200
f 181 182 49
f 284 77 283
f 586 587 152
f 588 586 151
f 20 267 265
f 266 267 71
f 31 417 631
f 631 417 632
f 31 631 639
f 417 31 419
f 641 631 161
f 417 112 632
f 161 631 632
f 418 417 419
f 417 418 112
f 284 345 77
f 542 550 145
f 542 541 524
f 284 174 12
f 48 174 283
f 373 20 265
f 373 265 374
f 609 608 525
f 608 157 622
f 560 559 313
f 636 637 162
f 541 140 524
f 41 542 524
f 358 357 280
f 70 263 264
f 263 262 264
f 176 177 46
f 174 48 173
f 174 173 172
f 538 551 549
f 538 540 539
f 537 541 539
f 232 221 242
f 17 221 232
f 232 242 62
f 231 232 62
f 203 205 55
f 203 55 202
f 201 205 203
f 202 55 217
f 205 206 55
f 204 203 202
f 73 275 292
f 292 290 73
f 272 290 282
f 290 292 291
f 75 290 291
f 290 75 282
f 70 277 259
f 277 70 281
f 277 281 279
f 260 70 259
f 12 174 172
f 104 396 388
f 367 27 354
f 365 27 367
f 354 27 356
f 365 367 366
f 595 27 365
f 318 299 310
f 155 596 597
f 155 597 598
f 596 594 597
f 595 596 155
f 605 595 155
f 180 47 179
f 180 190 47
f 352 372 11
f 11 372 261
f 312 310 24
f 642 636 162
f 636 297 637
f 367 369 97
f 366 367 97
f 369 367 354
f 369 370 97
f 580 579 464
f 580 152 579
f 579 124 464
f 61 230 409
f 230 410 409
f 230 61 229
f 230 229 228
f 76 285 286
f 353 352 276
f 74 353 276
f 288 76 286
f 288 286 283
f 289 288 287
f 203 54 201
f 287 288 77
f 77 288 283
f 286 48 283
f 531 423 113
f 276 11 259
f 11 261 259
f 277 276 259
f 616 158 615
f 516 616 615
f 138 516 615
f 138 615 612
f 509 533 532
f 503 502 504
f 635 79 294
f 635 294 404
f 635 637 79
f 637 635 638
f 638 635 108
f 635 404 108
f 226 61 405
f 61 226 227
f 405 61 409
f 227 226 207
f 48 178 179
f 48 286 178
f 173 48 179
f 534 143 533
f 534 535 143
f 531 534 533
f 533 143 532
f 137 531 533
f 261 372 371
f 13 180 178
f 285 13 178
f 180 13 166
f 13 168 166
f 346 345 284
f 331 327 46
f 46 327 172
f 172 327 326
f 382 620 101
f 442 121 448
f 443 121 442
f 2 226 404
f 294 2 404
f 404 226 405
f 207 226 2
f 550 551 145
f 552 146 551
f 143 550 532
f 552 550 143
f 330 329 328
f 24 636 629
f 94 352 353
f 352 11 276
f 113 428 534
f 428 535 534
f 509 41 511
f 535 552 143
f 550 552 551
f 550 542 532
f 369 95 368
f 326 327 87
f 87 327 329
f 327 331 329
f 581 326 87
f 293 79 298
f 79 297 298
f 296 298 78
f 79 293 294
f 296 293 298
f 598 490 38
f 358 280 22
f 280 279 278
f 357 358 95
f 74 357 353
f 330 328 25
f 567 23 559
f 590 598 38
f 590 604 598
f 598 604 155
f 604 590 154
f 590 591 154
f 604 154 606
f 297 299 298
f 299 318 78
f 298 299 78
f 355 354 356
f 629 636 642
f 312 24 629
f 629 642 160
f 370 362 97
f 362 363 97
f 363 366 97
f 364 363 362
f 362 370 351
f 96 363 364
f 297 636 24
f 162 637 638
f 637 297 79
f 490 488 38
f 598 597 490
f 441 442 119
f 443 442 441
f 443 441 5
f 442 448 445
f 296 78 295
f 326 12 172
f 575 574 364
f 47 175 176
f 175 177 176
f 47 176 179
