# FEM surface export ¡ª frame 236
# Vertices: 642  Faces: 1280
v -0.52660596 1.58704305 -0.00003188
v 0.52648842 1.58668220 -0.00005988
v -0.58026356 0.00000000 -0.00028459
v 0.57036650 0.00000000 -0.00057048
v 0.00025766 0.22851518 0.88403821
v -0.00036341 1.26437151 0.85299557
v -0.00106673 0.23013839 -0.88693899
v 0.00008005 1.26383936 -0.85248744
v 0.86009401 0.74589658 -0.53149593
v 0.85931158 0.74451256 0.53064471
v -0.85963285 0.74707389 -0.53196996
v -0.85965145 0.74635237 0.53136390
v -0.81117249 1.23799932 0.30999735
v -0.50225341 1.04973769 0.81209689
v -0.30955666 1.54529750 0.50068212
v 0.30957460 1.54533613 0.50076109
v 0.00014530 1.73573136 -0.00003773
v 0.30958763 1.54528582 -0.50069457
v -0.30930364 1.54556262 -0.50080889
v -0.50191259 1.04950178 -0.81261665
v -0.81125391 1.23882639 -0.30992028
v -1.00927281 0.74467164 -0.00044524
v 0.50283378 1.05020607 0.81294829
v 0.81101620 1.23802972 0.30975750
v -0.51285821 0.44445574 0.83216023
v -0.00058421 0.74511504 1.01094055
v -0.84051108 0.25653911 -0.32079062
v -0.84107673 0.25829855 0.32217064
v -0.00055108 0.74660903 -1.01117051
v -0.51176685 0.44141147 -0.82899302
v 0.81105852 1.23794174 -0.30970445
v 0.50154144 1.04883099 -0.81162602
v 0.84471565 0.25468376 0.32132459
v 0.51354676 0.44406804 0.83111477
v 0.33566657 0.00000000 0.53745633
v -0.33718863 0.00000000 0.53710943
v -0.00418529 0.00000000 0.00300733
v -0.33261019 0.00000000 -0.53884482
v 0.32899731 0.00000000 -0.53468508
v 0.51272720 0.44231552 -0.83051318
v 0.84421539 0.25682613 -0.32229728
v 1.01154983 0.74533379 0.00032912
v -0.69512683 1.43883622 0.16105367
v -0.58898711 1.42513549 0.42621842
v -0.43460515 1.59888399 0.26026353
v -0.70612764 0.90364951 0.69782251
v -0.69011807 1.16406548 0.58940685
v -0.86659354 1.00082910 0.43596345
v -0.16096614 1.43077362 0.70307738
v -0.42634946 1.32541513 0.68955547
v -0.26097646 1.17348850 0.86533749
v -0.16254550 1.68697774 0.26320398
v -0.27349621 1.69781387 0.00003114
v 0.16091616 1.43054092 0.70322299
v 0.00005727 1.58660519 0.52638721
v 0.27370143 1.69768548 -0.00002387
v 0.16287939 1.68699169 0.26326603
v 0.43464369 1.59872854 0.26032093
v -0.16250572 1.68694913 -0.26324436
v -0.43449572 1.59907854 -0.26031798
v 0.43461967 1.59871423 -0.26029545
v 0.16275565 1.68685186 -0.26324615
v -0.16064206 1.43046534 -0.70316797
v 0.00026908 1.58664691 -0.52651232
v 0.16106920 1.43040180 -0.70324385
v -0.58870900 1.42523873 -0.42606807
v -0.69503403 1.43905020 -0.16092870
v -0.26059872 1.17277038 -0.86513394
v -0.42592463 1.32526517 -0.68967158
v -0.86686087 1.00170708 -0.43611664
v -0.68996567 1.16471899 -0.58980817
v -0.70636773 0.90377998 -0.69867575
v -0.85299778 1.26408827 0.00013298
v -0.97177237 0.74587768 -0.27672929
v -0.95616096 1.00443161 -0.16322082
v -0.95549971 1.00348580 0.16346727
v -0.97125614 0.74497950 0.27574623
v 0.58907747 1.42492354 0.42607448
v 0.69488341 1.43869233 0.16077209
v 0.26086366 1.17259943 0.86554927
v 0.42630169 1.32529223 0.68941379
v 0.86647826 1.00032640 0.43590704
v 0.69080019 1.16420364 0.58913350
v 0.70688182 0.90274024 0.69702840
v -0.26482257 0.90567231 0.95750666
v -0.00039455 1.01438642 0.96671712
v -0.71479172 0.58952999 0.70650208
v -0.53141242 0.74691546 0.85945714
v 0.00034099 0.47572884 0.98442322
v -0.26731116 0.58632672 0.96860617
v -0.26735014 0.32006070 0.89350164
v -0.97136247 0.48795092 0.16641407
v -0.88157946 0.49127445 0.44428185
v -0.88101721 0.49136764 -0.44408956
v -0.97270149 0.48791781 -0.16758431
v -0.74458873 0.07131931 0.17307822
v -0.88517141 0.23350926 -0.00032700
v -0.73820555 0.06704627 -0.16928555
v -0.53122807 0.74532306 -0.86042225
v -0.71336794 0.58804023 -0.70600188
v -0.00017148 1.01474988 -0.96625495
v -0.26463470 0.90535736 -0.95780033
v -0.27052474 0.31775919 -0.89261967
v -0.26702568 0.58532560 -0.96672708
v -0.00054578 0.47815400 -0.98400313
v 0.42605853 1.32460880 -0.68921721
v 0.26084614 1.17226028 -0.86473376
v 0.69469219 1.43839097 -0.16092555
v 0.58870304 1.42434800 -0.42574850
v 0.70608020 0.90325761 -0.69800192
v 0.68999010 1.16426706 -0.58940274
v 0.86713916 1.00123513 -0.43603799
v 0.73989540 0.06578257 0.17392504
v 0.62669486 0.08136099 0.45416132
v 0.47299898 0.00000000 0.27989301
v 0.71466762 0.58814526 0.70643222
v 0.71230459 0.32805175 0.60959774
v 0.88086730 0.48904067 0.44303823
v 0.17192903 0.07414700 0.73983520
v 0.44666967 0.17254363 0.72382450
v 0.26780701 0.32131335 0.89351028
v 0.17553373 0.00000000 0.28360695
v 0.29266176 0.00000000 -0.00694918
v -0.17138642 0.07432754 0.73997939
v -0.00105333 0.00000000 0.56932247
v -0.30305636 0.00000000 -0.00196805
v -0.17584895 0.00000000 0.28176641
v -0.47096479 0.00000000 0.28245845
v 0.17120470 0.00000000 -0.28556800
v 0.46579143 0.00000000 -0.28187281
v -0.47356102 0.00000000 -0.28433400
v -0.17716946 0.00000000 -0.28595099
v 0.17198405 0.07587308 -0.74549150
v 0.00600449 0.00000000 -0.56790954
v -0.17035402 0.07174096 -0.74515754
v 0.62654412 0.08368147 -0.45400879
v 0.73926073 0.06778103 -0.17181195
v 0.26896763 0.31911159 -0.89262414
v 0.44490635 0.17350814 -0.72060412
v 0.88241935 0.49011502 -0.44358519
v 0.71238017 0.32940170 -0.60931814
v 0.71485418 0.58842498 -0.70675129
v 0.88831025 0.22919899 -0.00133558
v 0.97319108 0.74597520 -0.27657741
v 0.97249353 0.48712498 -0.16635510
v 0.97096813 0.48622200 0.16551107
v 0.97047800 0.74422610 0.27564391
v 0.26704407 0.58655435 0.96795809
v 0.53192979 0.74637461 0.85938835
v 0.26435953 0.90555722 0.95766193
v -0.62375122 0.08608626 0.45376864
v -0.44711271 0.17227176 0.72340292
v -0.71136278 0.33046433 0.60971922
v -0.44845411 0.16872732 -0.72508246
v -0.62703347 0.08281216 -0.45357594
v -0.71068329 0.32641983 -0.60706413
v 0.53118181 0.74524415 -0.85913664
v 0.26680341 0.58771157 -0.96852958
v 0.26477435 0.90522474 -0.95725465
v 0.95552760 1.00377226 0.16356820
v 0.95552135 1.00391328 -0.16275214
v 0.85256726 1.26367366 0.00010312
v -0.61665475 1.52028883 0.08131045
v -0.57220513 1.52910101 0.21339299
v -0.48516241 1.60115862 0.13140650
v -0.70881397 1.33880723 0.37257445
v -0.64866734 1.43923867 0.29666945
v -0.76037073 1.34402704 0.23773101
v -0.37563172 1.58019948 0.38418838
v -0.51700628 1.51992106 0.34675422
v -0.45478603 1.49458778 0.46923262
v -0.78996509 0.82567877 0.62049538
v -0.79655790 0.95524591 0.57422203
v -0.87070543 0.87458974 0.48772752
v -0.60344362 1.11149395 0.70931834
v -0.70485222 1.03668165 0.64995283
v -0.60956800 0.97867310 0.76167256
v -0.84679395 1.12261474 0.37636960
v -0.78628188 1.08610892 0.51793492
v -0.75999838 1.20653749 0.45506328
v -0.08141676 1.35342968 0.78531730
v -0.21371368 1.30924940 0.79435152
v -0.13184232 1.22339475 0.86747324
v -0.37251166 1.44386518 0.60243022
v -0.29667714 1.38484955 0.70349115
v -0.23751387 1.49516320 0.60765767
v -0.38517049 1.11497462 0.84659886
v -0.34716043 1.25461972 0.78532010
v -0.46989501 1.19284749 0.75990564
v -0.64811820 1.30176497 0.51459765
v -0.56568021 1.25154293 0.64810967
v -0.51448625 1.38366938 0.56527722
v -0.35872644 1.66025579 0.13187583
v -0.40383938 1.65096915 0.00004276
v -0.23889232 1.62709701 0.38672981
v -0.30166575 1.65221286 0.26443884
v -0.13801073 1.72647095 0.00001298
v -0.22028358 1.70218670 0.13296475
v -0.08220025 1.72359979 0.13320872
v 0.08115350 1.35318673 0.78538001
v 0.00002914 1.43979597 0.71224225
v 0.15668480 1.57607484 0.51986325
v 0.08135850 1.51652896 0.62092775
v 0.23747428 1.49491048 0.60768986
v -0.08115586 1.51657176 0.62099200
v -0.15658596 1.57639492 0.51990634
v 0.40404439 1.65083730 -0.00002085
v 0.35888508 1.66003931 0.13181616
v 0.48517781 1.60091794 0.13134569
v 0.08253755 1.72336042 0.13321820
v 0.22060080 1.70222259 0.13298312
v 0.13826078 1.72631049 -0.00000020
v 0.37575236 1.57990539 0.38418174
v 0.30188850 1.65220273 0.26447013
v 0.23913372 1.62682712 0.38669699
v -0.08229139 1.64896560 0.40017164
v 0.08250716 1.64879251 0.40001777
v 0.00014442 1.69976509 0.26672369
v -0.35858905 1.66033363 -0.13183221
v -0.48508808 1.60119045 -0.13140765
v -0.08219339 1.72349107 -0.13326909
v -0.22028577 1.70238066 -0.13300765
v -0.37542871 1.58023906 -0.38420084
v -0.30155113 1.65234959 -0.26447517
v -0.23881927 1.62712812 -0.38674253
v 0.48519686 1.60097945 -0.13141660
v 0.35887480 1.66022468 -0.13184603
v 0.23910819 1.62705195 -0.38669324
v 0.30176374 1.65222180 -0.26442635
v 0.37566620 1.58003616 -0.38412300
v 0.22049795 1.70225263 -0.13296379
v 0.08246166 1.72350478 -0.13329121
v -0.08108503 1.35287809 -0.78522414
v 0.00021609 1.43945527 -0.71245241
v 0.08133254 1.35273290 -0.78517890
v -0.15637802 1.57635510 -0.52002603
v -0.08096533 1.51652205 -0.62117326
v -0.23719531 1.49512029 -0.60773969
v 0.23760696 1.49508429 -0.60777676
v 0.08148080 1.51644111 -0.62123084
v 0.15679519 1.57617915 -0.51991975
v 0.00013780 1.69968784 -0.26674998
v 0.08257085 1.64882040 -0.40013024
v -0.08221775 1.64896750 -0.40017596
v -0.57205099 1.52911901 -0.21339121
v -0.61668473 1.52041495 -0.08116134
v -0.45453426 1.49454939 -0.46924028
v -0.51689959 1.52017701 -0.34677777
v -0.76035815 1.34465337 -0.23760013
v -0.64862144 1.43931341 -0.29663837
v -0.70866567 1.33931410 -0.37264168
v -0.13139731 1.22312808 -0.86709052
v -0.21327727 1.30880058 -0.79432416
v -0.46948239 1.19274390 -0.76000160
v -0.34677488 1.25414038 -0.78531754
v -0.38473156 1.11457145 -0.84671694
v -0.29632449 1.38451266 -0.70367050
v -0.37215665 1.44394946 -0.60255641
v -0.87123424 0.87542349 -0.48820484
v -0.79724836 0.95609838 -0.57488209
v -0.79019219 0.82612187 -0.62126827
v -0.75989491 1.20746446 -0.45551440
v -0.78642386 1.08684957 -0.51829505
v -0.84692770 1.12372315 -0.37649938
v -0.60974693 0.97864205 -0.76287866
v -0.70531732 1.03703630 -0.65050650
v -0.60338551 1.11109698 -0.70977938
v -0.51410347 1.38382733 -0.56550246
v -0.56547701 1.25150537 -0.64842582
v -0.64786518 1.30219507 -0.51465893
v -0.70426726 1.44823706 0.00010882
v -0.84267157 1.25795126 -0.15689538
v -0.78193963 1.35777998 -0.08127140
v -0.78184330 1.35751629 0.08141659
v -0.84247947 1.25745773 0.15703152
v -0.92473453 0.74679589 -0.40798202
v -0.93087882 0.87555027 -0.36073357
v -0.99480188 0.87633294 -0.08264644
v -0.97250217 0.87620109 -0.22164519
v -1.00061572 0.74557889 -0.13959578
v -0.92076242 1.00597405 -0.30271891
v -0.89416075 1.12616694 -0.23946406
v -0.93072379 0.87478989 0.36070833
v -0.92482561 0.74589813 0.40792885
v -0.89411294 1.12536371 0.23965856
v -0.92056483 1.00463605 0.30279186
v -1.00057673 0.74486035 0.13911243
v -0.97304952 0.87507886 0.22163823
v -0.99469072 0.87578982 0.08283545
v -0.91660106 1.13953447 -0.08245686
v -0.96887028 1.00760186 0.00031415
v -0.91629153 1.13898480 0.08286537
v 0.57216823 1.52899528 0.21330482
v 0.61645347 1.52000248 0.08104035
v 0.45485321 1.49433064 0.46925241
v 0.51707160 1.51980960 0.34667185
v 0.76007217 1.34392416 0.23749162
v 0.64867365 1.43909001 0.29654846
v 0.70871556 1.33879745 0.37246656
v 0.13146347 1.22310805 0.86769378
v 0.21345404 1.30872250 0.79442567
v 0.47027320 1.19329989 0.76033109
v 0.34707278 1.25436735 0.78545201
v 0.38525304 1.11481357 0.84700924
v 0.29644221 1.38413572 0.70358407
v 0.37239879 1.44354892 0.60230565
v 0.87009287 0.87276113 0.48690853
v 0.79650992 0.95333862 0.57295424
v 0.78993303 0.82411951 0.61945730
v 0.76015562 1.20671129 0.45509341
v 0.78653359 1.08542705 0.51750314
v 0.84660393 1.12261510 0.37616548
v 0.61098349 0.97911555 0.76234382
v 0.70553356 1.03596735 0.64893097
v 0.60450768 1.11170816 0.70933926
v 0.51460713 1.38336170 0.56526744
v 0.56614554 1.25176036 0.64801556
v 0.64827710 1.30179977 0.51435244
v -0.13254264 1.09854066 0.92806780
v -0.00024570 1.14283526 0.91833222
v -0.38834119 0.98052537 0.89544833
v -0.26557508 1.04252946 0.92034876
v -0.00064635 0.88111848 0.99769419
v -0.13377491 0.96193802 0.97158915
v -0.13483222 0.82587034 0.99606270
v -0.79502004 0.66676813 0.62439615
v -0.71921444 0.74679244 0.71039873
v -0.52818799 0.59350806 0.85611403
v -0.62889481 0.66755003 0.79094106
v -0.62006205 0.51501137 0.77667779
v -0.62480259 0.82558638 0.78583592
v -0.52272886 0.89955497 0.84532624
v 0.00032782 0.34713450 0.94305861
v -0.13464063 0.39262691 0.95090032
v -0.13515639 0.26802337 0.89823014
v -0.13522623 0.66443169 1.00144446
v -0.13471615 0.52861649 0.98575538
v -0.00086610 0.60952336 1.00639880
v -0.39481395 0.37868080 0.87071282
v -0.26975033 0.45008314 0.94042850
v -0.39373118 0.51210296 0.91177595
v -0.40341634 0.82654768 0.92050695
v -0.40578392 0.66554427 0.92724109
v -0.26966122 0.74610478 0.97501266
v -0.93888128 0.61733788 0.36446285
v -0.87850100 0.61721921 0.49232343
v -1.00236106 0.61517709 0.08328755
v -0.98071998 0.61545253 0.22323795
v -0.86995769 0.37098411 0.38748062
v -0.93674415 0.48769581 0.30883011
v -0.91796458 0.36828429 0.24693890
v -0.87826830 0.61828804 -0.49298847
v -0.93885660 0.61727887 -0.36523876
v -0.91816252 0.36657333 -0.24652249
v -0.93559957 0.48672837 -0.30898875
v -0.86906636 0.36878571 -0.38741165
v -0.98145354 0.61558747 -0.22482100
v -1.00371194 0.61490434 -0.08471979
v -0.66747177 0.01463938 0.08807828
v -0.75312829 0.06192980 0.00190939
v -0.66359335 0.01440112 -0.08548653
v -0.87534988 0.24184105 0.16386193
v -0.82472074 0.14418373 0.08695503
v -0.80047470 0.15689969 0.25033465
v -0.79508197 0.15366435 -0.24784751
v -0.82144266 0.14124566 -0.08552597
v -0.87375724 0.23705691 -0.16332120
v -0.98652583 0.48495376 -0.00040732
v -0.94188756 0.35489661 -0.08570630
v -0.94373745 0.35582468 0.08436640
v -0.71825558 0.74615943 -0.71056795
v -0.79400218 0.66692060 -0.62457937
v -0.52261031 0.89882284 -0.84599870
v -0.62518269 0.82508123 -0.78698504
v -0.61905575 0.51232713 -0.77460533
v -0.62824726 0.66574413 -0.79164350
v -0.52741790 0.59122062 -0.85485005
v 0.00014913 1.14297760 -0.91772932
v -0.13205630 1.09846437 -0.92759818
v -0.13432975 0.82680357 -0.99600154
v -0.13361543 0.96241826 -0.97169715
v -0.00026449 0.88217598 -0.99775916
v -0.26531893 1.04203820 -0.92035139
v -0.38805979 0.98022979 -0.89560193
v -0.13743068 0.26983106 -0.90088528
v -0.13674904 0.39364558 -0.95029002
v -0.00090556 0.35005647 -0.94451576
v -0.39325267 0.51001054 -0.90910751
v -0.27070370 0.44907492 -0.93820107
v -0.39521152 0.37585911 -0.86968797
v -0.00054480 0.61092997 -1.00732708
v -0.13574356 0.52901334 -0.98439544
v -0.13517606 0.66493666 -1.00123429
v -0.40284508 0.82641584 -0.92156529
v -0.26916555 0.74549919 -0.97438127
v -0.40470549 0.66429514 -0.92597419
v 0.21359864 1.30874479 -0.79434043
v 0.13163888 1.22282410 -0.86709476
v 0.37251994 1.44364965 -0.60248882
v 0.29664302 1.38416314 -0.70354384
v 0.38473338 1.11378825 -0.84614390
v 0.34696680 1.25357258 -0.78495032
v 0.46948588 1.19217169 -0.75961661
v 0.61650407 1.52005422 -0.08131521
v 0.57208556 1.52884710 -0.21338402
v 0.70840716 1.33847904 -0.37221214
v 0.64834487 1.43841136 -0.29636508
v 0.75991380 1.34375966 -0.23745652
v 0.51696539 1.51958430 -0.34659135
v 0.45474803 1.49427366 -0.46918637
v 0.79041672 0.82573283 -0.62058568
v 0.79720217 0.95542896 -0.57462752
v 0.87150794 0.87490022 -0.48825601
v 0.60324228 1.11117923 -0.70924646
v 0.70473671 1.03624129 -0.64990425
v 0.60957766 0.97832060 -0.76226240
v 0.84680307 1.12320149 -0.37647158
v 0.78598821 1.08615470 -0.51787138
v 0.75975567 1.20699036 -0.45504355
v 0.51423174 1.38301253 -0.56502235
v 0.64779103 1.30169237 -0.51425201
v 0.56541836 1.25116479 -0.64786130
v 0.66826355 0.01364216 0.09236453
v 0.61538309 0.00335049 0.23094639
v 0.52766639 0.00000000 0.13858742
v 0.74476194 0.16119593 0.38995248
v 0.68849605 0.06612770 0.31670374
v 0.79667163 0.15397194 0.24800766
v 0.40666714 0.00000000 0.41644290
v 0.55948699 0.01730944 0.37628022
v 0.48914769 0.02920978 0.50568104
v 0.79449159 0.66502798 0.62407213
v 0.80867147 0.53503358 0.58254975
v 0.87825108 0.61540955 0.49212331
v 0.62026048 0.38156694 0.72930783
v 0.71951121 0.45524645 0.66341168
v 0.61978698 0.51347363 0.77532768
v 0.86832434 0.36924648 0.38555941
v 0.80435127 0.40459934 0.53022689
v 0.78833461 0.28460094 0.47249758
v 0.08635543 0.14456755 0.82053632
v 0.22292307 0.18697201 0.82817221
v 0.13615629 0.27074704 0.89760643
v 0.39403468 0.06354885 0.63893223
v 0.31337747 0.11949776 0.73998785
v 0.25744265 0.02654734 0.64780551
v 0.39462981 0.37887034 0.87129527
v 0.36039966 0.24157381 0.81788719
v 0.48552191 0.30143067 0.78681093
v 0.67841232 0.19506489 0.53865057
v 0.58844835 0.24326469 0.67519563
v 0.54209542 0.12024536 0.60061574
v 0.38734341 0.00000000 0.13817416
v 0.43531817 0.00000000 -0.00357934
v 0.25802875 0.00000000 0.42276424
v 0.32624051 0.00000000 0.28609473
v 0.14609046 0.00000000 0.00030046
v 0.23258260 0.00000000 0.14153993
v 0.08529374 0.00000000 0.14559129
v -0.08548848 0.14344902 0.82245266
v 0.00152969 0.06911613 0.75528300
v -0.17246801 0.00000000 0.56767935
v -0.08516687 0.01579084 0.66611439
v -0.25483537 0.02517006 0.64792567
v 0.08816870 0.01455537 0.66626573
v 0.17151739 0.00000000 0.56659198
v -0.44355643 0.00000000 -0.00378025
v -0.39484498 0.00000000 0.13993591
v -0.53246784 0.00000000 0.14227991
v -0.09409883 0.00000000 0.14291397
v -0.24225642 0.00000000 0.14109653
v -0.15431330 0.00000000 0.00243145
v -0.40991965 0.00000000 0.41922438
v -0.32921690 0.00000000 0.28672072
v -0.26125196 0.00000000 0.41982055
v 0.08895143 0.00000000 0.43344593
v -0.09048340 0.00000000 0.43369660
v -0.00239871 0.00000000 0.28851146
v 0.38454944 0.00000000 -0.14531410
v 0.52094525 0.00000000 -0.14487852
v 0.08819387 0.00000000 -0.14137834
v 0.23212112 0.00000000 -0.14645338
v 0.41035616 0.00000000 -0.41478246
v 0.32257342 0.00000000 -0.28680667
v 0.25785422 0.00000000 -0.41671002
v -0.52748716 0.00000000 -0.14356016
v -0.39168781 0.00000000 -0.14675410
v -0.26079312 0.00000000 -0.42058358
v -0.33161944 0.00000000 -0.29167297
v -0.40781996 0.00000000 -0.41676301
v -0.24350981 0.00000000 -0.14439757
v -0.09211481 0.00000000 -0.14335993
v 0.08453213 0.14762422 -0.82408869
v 0.00051016 0.06586371 -0.75807923
v -0.08661063 0.14591125 -0.82342052
v 0.17428215 0.00000000 -0.56249732
v 0.08736143 0.01309211 -0.67007142
v 0.25771758 0.02663197 -0.65420479
v -0.25570989 0.02994183 -0.65391773
v -0.08619722 0.01212487 -0.66955429
v -0.16643320 0.00000000 -0.56070548
v -0.00138975 0.00000000 -0.28544024
v -0.08843327 0.00000000 -0.43302229
v 0.08801486 0.00000000 -0.42916086
v 0.62037438 0.00565281 -0.22883800
v 0.66177678 0.00554807 -0.08583605
v 0.48606819 0.02840939 -0.50264174
v 0.55777305 0.01211156 -0.37136453
v 0.80058610 0.15751988 -0.25067943
v 0.69418371 0.07161667 -0.31647137
v 0.74585414 0.16289937 -0.39299789
v 0.13622482 0.27149445 -0.90165460
v 0.22183257 0.18823671 -0.82937753
v 0.48409328 0.29901069 -0.78655016
v 0.35827377 0.24022962 -0.81527412
v 0.39470401 0.37772119 -0.87050945
v 0.31494722 0.11852624 -0.74034005
v 0.39477304 0.06073572 -0.63909346
v 0.87884992 0.61696291 -0.49247161
v 0.80904913 0.53632021 -0.58376604
v 0.79526848 0.66648984 -0.62433565
v 0.78717077 0.28707358 -0.47283682
v 0.80591661 0.40616611 -0.53128976
v 0.87100583 0.36886221 -0.38734725
v 0.62060863 0.51303208 -0.77616829
v 0.72006661 0.45508263 -0.66419983
v 0.61793798 0.38096312 -0.72862190
v 0.53903562 0.11754386 -0.59566367
v 0.58680582 0.24257466 -0.67351216
v 0.67622137 0.19692031 -0.53976256
v 0.75022930 0.05863988 -0.00140143
v 0.87789673 0.23609211 -0.16338438
v 0.82310325 0.13981783 -0.08756179
v 0.82289332 0.14050461 0.08349005
v 0.87454230 0.23441122 0.16100955
v 0.92533904 0.74628454 -0.40802994
v 0.93953669 0.61659771 -0.36424753
v 1.00360930 0.61480170 -0.08366064
v 0.98249358 0.61551040 -0.22385137
v 1.00204659 0.74618411 -0.13918431
v 0.93788463 0.48635831 -0.30857161
v 0.91940612 0.36577058 -0.24617875
v 0.93798769 0.61504781 0.36374253
v 0.92366427 0.74417830 0.40661997
v 0.91567862 0.36583140 0.24421848
v 0.93582457 0.48555464 0.30722761
v 1.00011790 0.74475193 0.13992602
v 0.97998422 0.61391824 0.22291952
v 1.00312269 0.61439663 0.08359871
v 0.94254744 0.35312805 -0.08562318
v 0.98558640 0.48359051 0.00005431
v 0.94082206 0.35241476 0.08372279
v 0.13485229 0.39406729 0.95149177
v 0.39441267 0.51267004 0.91095769
v 0.27028599 0.45066544 0.93985093
v 0.13520163 0.52965719 0.98638916
v 0.13413349 0.66468644 1.00094628
v 0.71859634 0.74570686 0.70946699
v 0.52408415 0.90003836 0.84630811
v 0.62591517 0.82519007 0.78600442
v 0.62898678 0.66670102 0.79053366
v 0.52838957 0.59336895 0.85519952
v 0.13192664 1.09764421 0.92785990
v 0.13369565 0.82617575 0.99649775
v 0.13304953 0.96183491 0.97217429
v 0.26528990 1.04200125 0.92085153
v 0.38846979 0.98036927 0.89569777
v 0.40482557 0.66530597 0.92474937
v 0.40352368 0.82704324 0.92155266
v 0.26892591 0.74570101 0.97429943
v -0.61983460 0.00993340 0.23385690
v -0.48887724 0.02547060 0.50513691
v -0.55740154 0.01251133 0.37528640
v -0.69324833 0.07247387 0.31775811
v -0.74365568 0.16187166 0.39320689
v -0.22375764 0.18845856 0.83124906
v -0.48577777 0.30254757 0.78786272
v -0.36056513 0.24265127 0.81726968
v -0.31456700 0.11841236 0.74392259
v -0.39796013 0.06616725 0.64245164
v -0.80824578 0.53768158 0.58347797
v -0.78649867 0.28884456 0.47329646
v -0.80524850 0.40759894 0.53190660
v -0.72052705 0.45685807 0.66520101
v -0.61994213 0.38343012 0.73169053
v -0.54419792 0.12138711 0.59877849
v -0.58849996 0.24545468 0.67642087
v -0.67512989 0.19723696 0.53921670
v -0.22348754 0.18744332 -0.82804221
v -0.39749086 0.06477237 -0.64361084
v -0.31507266 0.11107293 -0.74444062
v -0.36090532 0.23789088 -0.81472397
v -0.48538768 0.29920852 -0.78501362
v -0.61587590 0.00887413 -0.22730853
v -0.74334288 0.15865655 -0.39025769
v -0.69138515 0.06742840 -0.31524828
v -0.55403942 0.01680833 -0.37337255
v -0.48537371 0.02473732 -0.50779003
v -0.80761671 0.53748572 -0.58350557
v -0.61854368 0.38034639 -0.72714287
v -0.71972156 0.45414972 -0.66449499
v -0.80376101 0.40573221 -0.53089988
v -0.78445071 0.28606394 -0.47058585
v -0.54221863 0.11611507 -0.59645438
v -0.67568898 0.19252251 -0.53858918
v -0.58653641 0.24188472 -0.67359322
v 0.71924174 0.74602109 -0.71037430
v 0.52838773 0.59258521 -0.85480392
v 0.62889379 0.66636467 -0.79076111
v 0.62503016 0.82506120 -0.78601635
v 0.52246469 0.89875805 -0.84493768
v 0.13471206 0.39416295 -0.95150369
v 0.13443065 0.66583735 -1.00199389
v 0.13454849 0.52991277 -0.98596823
v 0.26998267 0.45096740 -0.94044548
v 0.39413017 0.51232165 -0.91091079
v 0.13228452 1.09806168 -0.92738163
v 0.38810906 0.97968000 -0.89477527
v 0.26523721 1.04120767 -0.91928506
v 0.13366137 0.96247268 -0.97173786
v 0.13372332 0.82703882 -0.99626923
v 0.40527737 0.66547322 -0.92529213
v 0.26912525 0.74622983 -0.97381532
v 0.40309611 0.82575136 -0.91973412
v 0.92991567 0.87393963 0.36071056
v 0.99475390 0.87593144 0.08385792
v 0.97295433 0.87550437 0.22204030
v 0.92058504 1.00499249 0.30293962
v 0.89429873 1.12570071 0.23959608
v 0.93149114 0.87509841 -0.36078492
v 0.89398932 1.12544096 -0.23938674
v 0.92117560 1.00544739 -0.30258197
v 0.97386199 0.87607044 -0.22167708
v 0.99531221 0.87657017 -0.08206093
v 0.70401776 1.44792461 -0.00011378
v 0.84227127 1.25718212 0.15686165
v 0.78169632 1.35737097 0.08129913
v 0.78138202 1.35719013 -0.08118517
v 0.84202731 1.25720918 -0.15665913
v 0.96826452 1.00728357 0.00047529
v 0.91536534 1.13865733 -0.08244823
v 0.91577226 1.13855851 0.08263483
f 330 87 329
f 336 325 26
f 207 208 56
f 464 36 580
f 502 129 504
f 157 624 622
f 308 311 82
f 247 223 248
f 507 483 508
f 331 88 329
f 494 500 497
f 156 601 602
f 591 589 592
f 365 98 596
f 75 281 282
f 152 587 577
f 149 559 560
f 555 121 553
f 530 141 529
f 515 517 139
f 361 594 98
f 250 67 249
f 157 608 609
f 294 293 209
f 317 81 316
f 557 338 26
f 303 305 81
f 530 529 528
f 101 381 382
f 415 418 111
f 192 184 50
f 412 110 411
f 20 384 256
f 131 594 486
f 281 264 282
f 347 287 348
f 28 349 582
f 165 163 1
f 248 250 66
f 617 107 398
f 273 271 274
f 456 115 453
f 558 561 560
f 335 576 91
f 331 177 332
f 116 433 436
f 351 370 92
f 136 511 530
f 239 240 65
f 247 258 19
f 304 23 567
f 148 557 570
f 214 208 58
f 440 426 450
f 268 270 269
f 258 247 268
f 204 202 16
f 466 125 465
f 517 513 133
f 168 275 274
f 275 73 274
f 198 193 53
f 309 308 307
f 510 511 136
f 415 416 110
f 131 490 597
f 473 475 474
f 414 415 111
f 493 495 494
f 496 504 485
f 433 116 432
f 600 375 601
f 240 234 65
f 418 415 412
f 486 361 3
f 567 566 304
f 380 393 29
f 17 199 197
f 491 492 132
f 451 449 435
f 218 217 216
f 623 621 613
f 396 104 395
f 433 439 436
f 628 160 627
f 215 202 217
f 209 207 2
f 427 113 424
f 434 10 544
f 434 433 432
f 199 17 210
f 150 564 565
f 489 491 132
f 275 13 285
f 497 500 134
f 125 466 476
f 578 152 577
f 208 214 211
f 328 88 343
f 356 27 603
f 150 566 567
f 372 100 371
f 190 191 47
f 235 8 398
f 260 261 72
f 422 403 414
f 422 414 111
f 453 454 123
f 349 583 582
f 521 520 519
f 425 453 115
f 616 622 158
f 483 130 508
f 151 586 572
f 212 17 232
f 400 397 402
f 377 396 99
f 41 522 511
f 510 508 505
f 549 547 42
f 475 473 36
f 510 137 509
f 222 221 197
f 430 115 429
f 220 194 1
f 305 54 204
f 621 29 613
f 192 171 184
f 460 335 5
f 88 331 332
f 74 277 279
f 300 301 80
f 390 389 388
f 165 45 164
f 146 549 551
f 291 278 75
f 448 120 445
f 147 543 544
f 607 610 609
f 603 602 356
f 139 529 514
f 333 553 443
f 92 368 347
f 261 260 259
f 300 6 200
f 46 177 331
f 284 283 174
f 301 300 200
f 471 468 474
f 54 305 301
f 302 304 303
f 569 150 567
f 150 569 570
f 294 209 2
f 628 629 160
f 548 543 147
f 147 625 627
f 63 233 234
f 426 427 114
f 41 509 532
f 198 52 196
f 614 105 612
f 147 627 547
f 81 305 306
f 549 548 547
f 54 301 200
f 342 88 332
f 264 281 70
f 193 194 53
f 455 429 456
f 187 321 14
f 479 130 484
f 147 544 625
f 458 456 453
f 304 80 303
f 314 84 313
f 488 503 501
f 321 332 14
f 423 425 424
f 305 204 306
f 341 339 25
f 514 40 516
f 625 628 627
f 340 339 341
f 105 614 391
f 243 228 62
f 318 316 78
f 75 278 279
f 357 355 353
f 238 257 63
f 466 455 476
f 425 423 4
f 448 449 120
f 408 638 108
f 292 275 285
f 22 278 289
f 515 513 517
f 501 503 134
f 622 623 158
f 134 503 504
f 195 216 206
f 163 271 246
f 619 617 620
f 62 228 229
f 163 165 164
f 453 425 454
f 489 132 488
f 82 628 625
f 58 208 209
f 525 608 40
f 626 547 627
f 518 517 498
f 489 487 491
f 557 26 564
f 325 336 344
f 541 145 539
f 40 616 516
f 338 556 89
f 250 248 245
f 139 514 515
f 98 594 596
f 246 220 1
f 112 413 630
f 9 536 413
f 156 600 601
f 332 177 14
f 321 342 332
f 156 606 600
f 584 330 585
f 302 303 81
f 584 87 330
f 330 25 585
f 400 239 65
f 439 440 117
f 95 358 368
f 597 594 131
f 594 361 486
f 246 67 245
f 561 562 149
f 28 364 362
f 55 216 217
f 427 430 114
f 267 20 254
f 556 555 553
f 84 309 558
f 311 310 312
f 609 525 142
f 256 68 255
f 124 460 461
f 82 311 312
f 307 308 82
f 589 135 495
f 527 40 514
f 112 418 412
f 20 256 254
f 258 238 19
f 267 254 269
f 273 272 249
f 392 391 393
f 137 533 509
f 122 455 456
f 9 413 411
f 130 480 505
f 333 443 5
f 527 525 40
f 589 495 385
f 39 496 485
f 223 225 224
f 414 416 415
f 219 222 53
f 145 538 539
f 413 412 411
f 469 468 467
f 183 181 6
f 191 192 50
f 429 35 431
f 292 285 76
f 413 112 412
f 415 110 412
f 43 164 167
f 467 468 126
f 617 101 620
f 450 451 117
f 438 546 545
f 619 620 159
f 17 212 210
f 124 579 576
f 584 153 583
f 460 124 576
f 3 469 467
f 311 308 314
f 6 320 183
f 389 104 388
f 251 250 249
f 194 165 1
f 291 289 278
f 287 77 348
f 238 258 257
f 139 517 518
f 238 236 19
f 223 247 19
f 382 380 29
f 39 518 498
f 361 359 3
f 69 255 257
f 139 518 528
f 33 545 535
f 387 385 7
f 69 268 269
f 477 462 125
f 454 479 123
f 121 555 447
f 451 435 117
f 454 425 4
f 233 252 8
f 124 463 464
f 69 258 268
f 168 167 166
f 583 153 582
f 384 394 102
f 138 512 513
f 57 210 211
f 254 256 255
f 607 609 142
f 324 319 86
f 289 291 76
f 291 292 76
f 384 102 383
f 422 421 420
f 221 17 197
f 383 102 381
f 376 377 99
f 99 373 374
f 386 105 392
f 438 33 440
f 90 341 343
f 281 75 279
f 574 571 96
f 628 82 312
f 221 222 59
f 127 471 474
f 595 605 603
f 551 538 145
f 334 91 340
f 322 324 85
f 305 303 301
f 18 239 399
f 306 204 16
f 199 198 197
f 166 190 180
f 303 80 301
f 267 266 265
f 626 42 547
f 16 215 213
f 349 351 350
f 295 16 213
f 68 379 252
f 250 251 66
f 627 160 626
f 383 68 256
f 343 88 342
f 507 508 136
f 202 215 16
f 197 198 53
f 254 69 269
f 603 605 156
f 418 419 111
f 384 383 256
f 455 122 476
f 203 204 54
f 556 557 148
f 255 68 253
f 313 84 560
f 25 328 341
f 254 255 69
f 603 156 602
f 581 584 583
f 630 632 112
f 163 246 1
f 246 245 220
f 432 116 558
f 499 591 590
f 320 563 86
f 345 93 350
f 306 16 295
f 346 93 345
f 562 568 149
f 604 605 155
f 154 592 593
f 545 552 535
f 511 522 530
f 574 573 571
f 566 150 565
f 361 98 360
f 67 271 273
f 234 235 65
f 208 211 56
f 574 151 573
f 251 270 66
f 398 8 378
f 213 215 214
f 438 440 439
f 315 314 313
f 263 71 262
f 20 373 384
f 496 134 504
f 329 88 328
f 81 306 316
f 555 556 148
f 592 589 103
f 617 619 107
f 227 207 56
f 571 359 96
f 446 466 465
f 206 216 55
f 359 571 469
f 568 148 570
f 34 437 435
f 28 351 349
f 21 272 282
f 113 423 424
f 490 489 488
f 379 68 383
f 210 212 211
f 80 563 300
f 351 92 350
f 326 346 12
f 83 317 318
f 555 148 554
f 212 231 56
f 218 57 217
f 271 67 246
f 195 196 52
f 270 268 66
f 390 592 103
f 148 568 554
f 495 493 7
f 592 390 593
f 357 95 355
f 574 575 151
f 452 120 451
f 154 591 592
f 587 585 577
f 395 394 396
f 93 349 350
f 610 416 611
f 166 44 190
f 315 23 302
f 315 302 317
f 268 247 66
f 606 154 593
f 396 394 99
f 211 212 56
f 370 369 368
f 235 397 65
f 280 278 22
f 83 315 317
f 575 588 151
f 74 279 280
f 385 495 7
f 63 257 253
f 397 235 398
f 214 58 213
f 220 219 194
f 546 146 545
f 236 225 19
f 599 94 602
f 235 233 8
f 102 394 395
f 611 416 32
f 225 223 19
f 139 528 529
f 231 62 229
f 419 406 421
f 451 450 452
f 49 182 185
f 402 397 107
f 52 199 218
f 416 610 110
f 225 236 244
f 107 397 398
f 68 252 253
f 322 85 321
f 182 181 183
f 118 438 439
f 546 438 118
f 348 77 345
f 543 546 118
f 231 212 232
f 610 611 157
f 33 438 545
f 385 386 103
f 479 480 130
f 169 195 15
f 93 583 349
f 15 195 206
f 190 44 192
f 247 248 66
f 146 552 545
f 248 60 245
f 570 557 564
f 274 271 43
f 63 253 233
f 272 21 249
f 507 528 518
f 67 273 249
f 487 467 126
f 196 195 169
f 624 159 623
f 134 496 497
f 132 503 488
f 104 393 395
f 556 553 89
f 355 356 94
f 258 69 257
f 229 61 227
f 56 231 227
f 460 576 335
f 463 124 461
f 394 373 99
f 29 393 391
f 67 250 245
f 193 198 196
f 462 36 464
f 144 633 630
f 141 526 527
f 517 133 498
f 536 144 630
f 100 372 599
f 144 536 537
f 22 289 287
f 578 579 152
f 579 578 576
f 189 188 187
f 60 223 224
f 92 348 350
f 555 554 447
f 396 377 388
f 194 193 165
f 413 536 630
f 372 352 599
f 377 376 375
f 348 345 350
f 105 386 387
f 240 237 234
f 463 462 464
f 135 500 494
f 45 196 169
f 512 612 387
f 245 60 220
f 429 115 456
f 223 60 248
f 288 289 76
f 525 526 142
f 100 599 601
f 613 29 391
f 526 523 520
f 341 328 343
f 631 641 639
f 264 21 282
f 266 72 265
f 106 402 403
f 73 273 274
f 186 206 205
f 381 379 383
f 52 216 195
f 410 18 399
f 290 272 73
f 72 371 374
f 526 525 527
f 115 430 424
f 498 497 496
f 621 382 29
f 543 118 434
f 214 215 57
f 522 141 530
f 511 510 509
f 352 94 599
f 493 512 7
f 90 340 341
f 169 171 170
f 605 604 606
f 219 60 224
f 104 389 392
f 359 469 3
f 186 49 185
f 222 219 224
f 166 167 44
f 428 427 426
f 523 522 524
f 129 502 481
f 50 185 188
f 164 45 170
f 425 115 424
f 33 428 426
f 427 428 113
f 94 356 602
f 515 138 513
f 114 431 452
f 237 236 238
f 215 217 57
f 95 354 355
f 220 60 219
f 515 514 516
f 183 320 319
f 222 197 53
f 559 569 567
f 300 320 6
f 435 436 117
f 96 360 363
f 640 642 641
f 242 243 62
f 140 537 519
f 508 130 505
f 420 410 399
f 537 539 144
f 317 316 318
f 426 114 450
f 186 15 206
f 311 83 310
f 625 544 307
f 544 10 307
f 168 43 167
f 185 182 188
f 369 354 95
f 44 171 192
f 605 606 156
f 548 549 146
f 100 601 375
f 149 568 569
f 381 380 382
f 455 466 35
f 480 479 454
f 543 548 546
f 493 133 513
f 492 472 37
f 477 125 476
f 491 487 126
f 337 336 338
f 588 153 587
f 576 578 91
f 633 161 632
f 96 359 360
f 39 485 483
f 101 617 378
f 193 45 165
f 163 164 43
f 618 624 611
f 507 136 528
f 561 149 560
f 641 162 639
f 116 561 558
f 494 133 493
f 253 252 233
f 63 237 238
f 392 393 104
f 440 450 117
f 93 581 583
f 386 385 387
f 120 449 451
f 421 422 111
f 486 3 467
f 302 81 317
f 633 632 630
f 462 475 36
f 376 99 374
f 489 490 131
f 447 449 448
f 387 612 105
f 106 420 399
f 173 46 172
f 492 491 472
f 316 306 295
f 22 287 347
f 109 410 420
f 507 39 483
f 559 23 313
f 214 57 211
f 196 45 193
f 10 434 432
f 422 106 403
f 626 160 640
f 487 486 467
f 542 41 532
f 400 106 399
f 444 120 452
f 198 199 52
f 475 127 474
f 621 620 382
f 621 623 159
f 450 114 452
f 92 347 348
f 376 100 375
f 434 118 433
f 503 132 502
f 337 90 336
f 537 536 519
f 395 393 380
f 201 54 200
f 171 44 170
f 355 94 353
f 58 296 213
f 422 420 106
f 595 365 596
f 569 568 570
f 523 140 520
f 114 430 431
f 218 210 57
f 304 566 80
f 639 162 638
f 261 371 72
f 548 147 547
f 498 133 497
f 150 570 564
f 222 224 59
f 142 526 520
f 437 436 435
f 141 522 523
f 137 510 505
f 173 179 176
f 559 149 569
f 121 447 448
f 563 320 300
f 102 395 380
f 257 255 253
f 642 162 641
f 83 311 314
f 216 52 218
f 512 493 513
f 23 304 302
f 91 339 340
f 512 138 612
f 159 620 621
f 218 199 210
f 364 28 575
f 83 318 310
f 168 274 43
f 136 530 528
f 140 523 524
f 495 135 494
f 233 235 234
f 566 563 80
f 25 339 577
f 277 74 276
f 475 462 477
f 133 494 497
f 436 437 116
f 389 386 392
f 548 146 546
f 441 460 5
f 10 309 307
f 65 397 400
f 543 434 544
f 640 641 161
f 272 273 73
f 581 93 346
f 419 421 111
f 319 320 86
f 180 179 178
f 127 475 477
f 231 229 227
f 337 334 340
f 136 508 510
f 308 309 84
f 237 63 234
f 447 554 34
f 252 379 378
f 315 83 314
f 608 622 616
f 338 336 26
f 337 338 89
f 13 275 168
f 209 208 207
f 436 439 117
f 628 312 629
f 360 366 363
f 364 574 96
f 359 361 360
f 466 446 35
f 500 501 134
f 406 109 421
f 135 589 591
f 601 599 602
f 340 90 337
f 481 492 37
f 522 41 524
f 78 316 295
f 131 486 487
f 403 32 414
f 634 626 640
f 151 572 573
f 515 516 138
f 8 252 378
f 265 72 374
f 9 521 519
f 538 549 42
f 368 358 347
f 588 587 586
f 458 453 123
f 589 385 103
f 502 492 481
f 32 416 414
f 430 427 424
f 153 585 587
f 540 144 539
f 370 368 92
f 209 293 58
f 428 33 535
f 326 581 346
f 625 307 82
f 575 28 582
f 6 181 200
f 421 109 420
f 553 121 443
f 160 642 640
f 153 584 585
f 309 432 558
f 334 337 89
f 23 315 313
f 271 163 43
f 296 295 213
f 39 498 496
f 118 439 433
f 531 113 534
f 293 296 58
f 28 362 351
f 489 131 487
f 431 444 452
f 84 558 560
f 98 366 360
f 45 169 170
f 379 101 378
f 462 463 125
f 308 84 314
f 10 432 309
f 299 24 310
f 132 492 502
f 512 387 7
f 639 638 408
f 565 323 86
f 59 244 242
f 106 400 402
f 440 33 426
f 566 565 563
f 617 398 378
f 224 225 59
f 410 109 409
f 239 400 399
f 194 219 53
f 358 22 347
f 610 157 609
f 27 595 603
f 479 484 482
f 142 520 521
f 585 25 577
f 339 578 577
f 408 407 406
f 407 109 406
f 31 408 406
f 407 408 108
f 31 639 408
f 419 31 406
f 608 616 40
f 430 429 431
f 455 35 429
f 35 444 431
f 188 51 187
f 188 182 51
f 51 322 187
f 322 51 319
f 51 182 183
f 319 51 183
f 187 322 321
f 322 319 324
f 381 101 379
f 405 407 108
f 404 405 108
f 286 285 178
f 407 405 409
f 109 407 409
f 191 175 47
f 167 164 170
f 50 184 185
f 44 167 170
f 64 244 236
f 243 244 64
f 50 188 189
f 541 542 145
f 442 445 119
f 339 91 578
f 445 446 119
f 624 623 622
f 611 624 157
f 523 526 141
f 141 527 529
f 527 514 529
f 445 120 444
f 446 445 444
f 35 446 444
f 613 614 158
f 158 614 615
f 623 613 158
f 614 613 391
f 614 612 615
f 371 376 374
f 100 376 371
f 479 482 123
f 373 394 384
f 540 42 634
f 633 540 634
f 538 42 540
f 633 634 161
f 161 634 640
f 42 626 634
f 540 633 144
f 557 556 338
f 553 333 89
f 262 21 264
f 251 21 262
f 5 335 333
f 270 251 262
f 21 251 249
f 600 593 30
f 606 593 600
f 600 30 375
f 593 390 30
f 30 377 375
f 390 388 30
f 30 388 377
f 228 243 241
f 470 478 459
f 470 127 478
f 127 477 478
f 184 186 185
f 478 477 476
f 122 478 476
f 357 74 280
f 518 39 507
f 344 342 85
f 325 344 85
f 342 344 343
f 85 342 321
f 344 90 343
f 90 344 336
f 482 129 481
f 482 481 457
f 482 457 123
f 481 37 457
f 449 447 34
f 435 449 34
f 470 472 471
f 472 470 37
f 470 471 127
f 472 126 471
f 126 468 471
f 470 459 37
f 491 126 472
f 504 129 485
f 221 59 242
f 125 463 465
f 437 34 562
f 561 437 562
f 554 568 562
f 34 554 562
f 437 561 116
f 390 103 389
f 103 386 389
f 392 105 391
f 572 586 580
f 572 580 36
f 586 152 580
f 473 572 36
f 244 243 242
f 225 244 59
f 64 240 241
f 240 239 241
f 237 240 64
f 243 64 241
f 236 237 64
f 411 607 521
f 9 411 521
f 110 607 411
f 607 142 521
f 610 607 110
f 171 15 184
f 171 169 15
f 15 186 184
f 87 584 581
f 153 588 582
f 588 575 582
f 381 102 380
f 573 572 473
f 468 469 128
f 474 468 128
f 469 571 128
f 571 573 128
f 573 473 128
f 473 474 128
f 564 323 565
f 26 323 564
f 323 324 86
f 325 323 26
f 325 324 323
f 563 565 86
f 324 325 85
f 410 230 18
f 230 228 18
f 18 228 241
f 18 241 239
f 401 619 618
f 401 402 107
f 403 402 401
f 619 159 618
f 401 618 32
f 619 401 107
f 403 401 32
f 618 611 32
f 159 624 618
f 478 122 459
f 122 458 459
f 37 459 457
f 459 458 457
f 122 456 458
f 457 458 123
f 191 190 192
f 485 129 484
f 129 482 484
f 483 485 484
f 130 483 484
f 189 187 14
f 191 50 189
f 191 189 175
f 189 14 175
f 14 177 175
f 499 501 500
f 501 499 38
f 38 499 590
f 135 499 500
f 488 501 38
f 499 135 591
f 480 454 4
f 284 12 346
f 4 423 506
f 480 4 506
f 423 531 506
f 480 506 505
f 531 137 506
f 506 137 505
f 365 366 98
f 71 270 262
f 270 71 269
f 71 267 269
f 335 334 333
f 333 334 89
f 334 335 91
f 536 9 519
f 465 463 461
f 537 140 541
f 520 140 519
f 119 446 465
f 465 461 119
f 461 441 119
f 460 441 461
f 176 46 173
f 299 297 24
f 71 263 266
f 263 260 266
f 260 72 266
f 263 70 260
f 205 201 49
f 201 181 49
f 186 205 49
f 181 201 200
f 181 182 49
f 284 77 283
f 586 587 152
f 588 586 151
f 20 267 265
f 266 267 71
f 31 417 631
f 631 417 632
f 31 631 639
f 417 31 419
f 641 631 161
f 417 112 632
f 161 631 632
f 418 417 419
f 417 418 112
f 284 345 77
f 542 550 145
f 542 541 524
f 284 174 12
f 48 174 283
f 373 20 265
f 373 265 374
f 609 608 525
f 608 157 622
f 560 559 313
f 636 637 162
f 541 140 524
f 41 542 524
f 358 357 280
f 70 263 264
f 263 262 264
f 176 177 46
f 174 48 173
f 174 173 172
f 538 551 549
f 538 540 539
f 537 541 539
f 232 221 242
f 17 221 232
f 232 242 62
f 231 232 62
f 203 205 55
f 203 55 202
f 201 205 203
f 202 55 217
f 205 206 55
f 204 203 202
f 73 275 292
f 292 290 73
f 272 290 282
f 290 292 291
f 75 290 291
f 290 75 282
f 70 277 259
f 277 70 281
f 277 281 279
f 260 70 259
f 12 174 172
f 104 396 388
f 367 27 354
f 365 27 367
f 354 27 356
f 365 367 366
f 595 27 365
f 318 299 310
f 155 596 597
f 155 597 598
f 596 594 597
f 595 596 155
f 605 595 155
f 180 47 179
f 180 190 47
f 352 372 11
f 11 372 261
f 312 310 24
f 642 636 162
f 636 297 637
f 367 369 97
f 366 367 97
f 369 367 354
f 369 370 97
f 580 579 464
f 580 152 579
f 579 124 464
f 61 230 409
f 230 410 409
f 230 61 229
f 230 229 228
f 76 285 286
f 353 352 276
f 74 353 276
f 288 76 286
f 288 286 283
f 289 288 287
f 203 54 201
f 287 288 77
f 77 288 283
f 286 48 283
f 531 423 113
f 276 11 259
f 11 261 259
f 277 276 259
f 616 158 615
f 516 616 615
f 138 516 615
f 138 615 612
f 509 533 532
f 503 502 504
f 635 79 294
f 635 294 404
f 635 637 79
f 637 635 638
f 638 635 108
f 635 404 108
f 226 61 405
f 61 226 227
f 405 61 409
f 227 226 207
f 48 178 179
f 48 286 178
f 173 48 179
f 534 143 533
f 534 535 143
f 531 534 533
f 533 143 532
f 137 531 533
f 261 372 371
f 13 180 178
f 285 13 178
f 180 13 166
f 13 168 166
f 346 345 284
f 331 327 46
f 46 327 172
f 172 327 326
f 382 620 101
f 442 121 448
f 443 121 442
f 2 226 404
f 294 2 404
f 404 226 405
f 207 226 2
f 550 551 145
f 552 146 551
f 143 550 532
f 552 550 143
f 330 329 328
f 24 636 629
f 94 352 353
f 352 11 276
f 113 428 534
f 428 535 534
f 509 41 511
f 535 552 143
f 550 552 551
f 550 542 532
f 369 95 368
f 326 327 87
f 87 327 329
f 327 331 329
f 581 326 87
f 293 79 298
f 79 297 298
f 296 298 78
f 79 293 294
f 296 293 298
f 598 490 38
f 358 280 22
f 280 279 278
f 357 358 95
f 74 357 353
f 330 328 25
f 567 23 559
f 590 598 38
f 590 604 598
f 598 604 155
f 604 590 154
f 590 591 154
f 604 154 606
f 297 299 298
f 299 318 78
f 298 299 78
f 355 354 356
f 629 636 642
f 312 24 629
f 629 642 160
f 370 362 97
f 362 363 97
f 363 366 97
f 364 363 362
f 362 370 351
f 96 363 364
f 297 636 24
f 162 637 638
f 637 297 79
f 490 488 38
f 598 597 490
f 441 442 119
f 443 442 441
f 443 441 5
f 442 448 445
f 296 78 295
f 326 12 172
f 575 574 364
f 47 175 176
f 175 177 176
f 47 176 179
