# FEM surface export ¡ª frame 281
# Vertices: 642  Faces: 1280
v -0.52665883 1.47883368 -0.00000705
v 0.52661240 1.47791612 0.00024456
v -0.59672797 0.00000000 -0.00485303
v 0.58449596 0.00000000 -0.00552375
v 0.00128028 0.15544263 0.91109431
v -0.00084628 1.16234398 0.85550970
v 0.00023439 0.15694648 -0.91440368
v -0.00017220 1.16123033 -0.85455048
v 0.87396723 0.65450156 -0.54008287
v 0.87254399 0.65360373 0.53891492
v -0.87259060 0.65504599 -0.54078001
v -0.87210715 0.65631407 0.53952438
v -0.81353366 1.13614380 0.31075403
v -0.50571722 0.95247746 0.81756389
v -0.30960193 1.43728709 0.50050819
v 0.30979753 1.43716717 0.50105053
v 0.00022551 1.62505960 -0.00006693
v 0.30976412 1.43717527 -0.50080603
v -0.30931714 1.43793344 -0.50098264
v -0.50543505 0.95113599 -0.81824446
v -0.81354886 1.13733852 -0.31088021
v -1.02482688 0.65280682 -0.00130858
v 0.50609523 0.95257831 0.81921512
v 0.81348699 1.13482225 0.31054038
v -0.52344137 0.36091682 0.85176265
v -0.00009438 0.65400755 1.02716160
v -0.86518377 0.17940055 -0.32867798
v -0.86338180 0.18012835 0.33302417
v -0.00174975 0.65516579 -1.02610564
v -0.52331722 0.35583016 -0.84617305
v 0.81395298 1.13502669 -0.31059590
v 0.50501740 0.95023936 -0.81673181
v 0.86782825 0.17859381 0.33203149
v 0.52579784 0.36126450 0.85111541
v 0.34355164 0.00000000 0.55906314
v -0.35361600 0.00000000 0.55971932
v -0.00734092 0.00000000 0.00243809
v -0.34394380 0.00000000 -0.55619687
v 0.34643871 0.00000000 -0.55709964
v 0.52508372 0.35834831 -0.85073662
v 0.86931580 0.18093497 -0.33203596
v 1.02824688 0.65378088 -0.00057414
v -0.69568491 1.33322752 0.16120736
v -0.58950335 1.31957185 0.42642149
v -0.43470219 1.49015975 0.26019764
v -0.71311182 0.81001282 0.70536041
v -0.69314647 1.06399214 0.59163785
v -0.87320220 0.90480131 0.43888378
v -0.16117969 1.32489502 0.70344448
v -0.42714936 1.22183883 0.69052571
v -0.26225334 1.07327473 0.86914533
v -0.16243519 1.57701564 0.26321122
v -0.27325460 1.58767319 0.00004675
v 0.16093141 1.32437527 0.70384139
v 0.00013815 1.47775054 0.52635890
v 0.27365872 1.58737183 0.00009096
v 0.16304246 1.57704699 0.26341307
v 0.43472794 1.48961210 0.26065055
v -0.16240554 1.57690036 -0.26321161
v -0.43452224 1.49075949 -0.26032463
v 0.43481058 1.48982513 -0.26022688
v 0.16275410 1.57676542 -0.26322410
v -0.16079715 1.32418132 -0.70363855
v 0.00046875 1.47799814 -0.52676392
v 0.16138361 1.32419944 -0.70399445
v -0.58922648 1.31986892 -0.42649308
v -0.69563526 1.33339536 -0.16106507
v -0.26190570 1.07167685 -0.86834663
v -0.42660046 1.22132134 -0.69085258
v -0.87347901 0.90530604 -0.43974900
v -0.69262803 1.06441987 -0.59223455
v -0.71408927 0.80925310 -0.70635152
v -0.85532182 1.16222239 0.00025157
v -0.98639089 0.65408832 -0.28172877
v -0.96376473 0.90799522 -0.16498354
v -0.96254730 0.90659487 0.16423374
v -0.98586315 0.65361673 0.27948514
v 0.58974302 1.31793153 0.42649853
v 0.69539833 1.33214509 0.16098379
v 0.26152813 1.07195830 0.86987346
v 0.42699698 1.22082639 0.69080639
v 0.87339246 0.90282840 0.43947864
v 0.69406652 1.06300354 0.59173000
v 0.71436292 0.80837619 0.70451307
v -0.26726130 0.81135929 0.96783847
v -0.00090982 0.91798013 0.97510344
v -0.72653651 0.50219393 0.71977240
v -0.53792125 0.65674031 0.87255329
v 0.00182613 0.38962272 1.00612819
v -0.27073225 0.49851412 0.98785925
v -0.27439356 0.23898719 0.91684091
v -0.99297541 0.40143442 0.16963461
v -0.89978707 0.40716636 0.45316321
v -0.89900047 0.40492493 -0.45438889
v -0.99440241 0.40210676 -0.17187464
v -0.76738054 0.01354580 0.17952763
v -0.91085613 0.15573493 0.00218691
v -0.76339144 0.01461851 -0.17455527
v -0.53993791 0.65323430 -0.87280935
v -0.72657079 0.49790365 -0.71842843
v -0.00044136 0.91778809 -0.97363883
v -0.26806262 0.81070846 -0.96861356
v -0.27752978 0.23783863 -0.91753054
v -0.27358291 0.49621898 -0.98542899
v -0.00033356 0.39320585 -1.00556660
v 0.42705041 1.21954060 -0.69013065
v 0.26218793 1.07108378 -0.86828810
v 0.69535631 1.33168638 -0.16088806
v 0.58941489 1.31771767 -0.42582890
v 0.71411753 0.80802119 -0.70588291
v 0.69334662 1.06309271 -0.59172642
v 0.87491548 0.90387523 -0.43959162
v 0.76665425 0.01700398 0.17690137
v 0.64714944 0.02361948 0.46773520
v 0.48501766 0.00000000 0.28807145
v 0.72881800 0.50188839 0.72154361
v 0.73043168 0.24780415 0.62626588
v 0.90064603 0.40365902 0.45368996
v 0.17739117 0.02074463 0.76872957
v 0.46230966 0.09832756 0.74654853
v 0.27738452 0.24161518 0.91625673
v 0.17542668 0.00000000 0.29157725
v 0.29739997 0.00000000 -0.00265080
v -0.17518967 0.02415131 0.77322894
v -0.00650453 0.00000000 0.59052598
v -0.30690959 0.00000000 -0.00108195
v -0.18679786 0.00000000 0.28821689
v -0.49757889 0.00000000 0.28873244
v 0.17713390 0.00000000 -0.29215515
v 0.47107014 0.00000000 -0.28489986
v -0.48361364 0.00000000 -0.29522771
v -0.18505292 0.00000000 -0.29151815
v 0.17702179 0.02478532 -0.77308983
v -0.00244878 0.00000000 -0.58617878
v -0.17500216 0.02164049 -0.77282172
v 0.64880711 0.02462771 -0.46880636
v 0.76407230 0.02293966 -0.17747536
v 0.27750292 0.23934528 -0.91563666
v 0.46173087 0.10687640 -0.74452919
v 0.90181655 0.40326375 -0.45334008
v 0.73212087 0.24930325 -0.62502295
v 0.72860271 0.50062996 -0.72149879
v 0.91559350 0.15680191 -0.00041201
v 0.98931354 0.65413100 -0.28180188
v 0.99285752 0.40075573 -0.17011428
v 0.99373388 0.40075043 0.16922225
v 0.98604441 0.65255445 0.27918226
v 0.27181786 0.49940661 0.98620480
v 0.53941703 0.65722007 0.87404746
v 0.26661092 0.81192738 0.96841401
v -0.64879459 0.03171081 0.47204804
v -0.46013182 0.09477905 0.74556851
v -0.72869289 0.25257266 0.62737930
v -0.46119615 0.09432513 -0.74556243
v -0.64994079 0.02526552 -0.46756482
v -0.72772020 0.24259466 -0.62177819
v 0.53851646 0.65337038 -0.87276685
v 0.27097416 0.50022650 -0.98778021
v 0.26730737 0.81022316 -0.96776003
v 0.96290565 0.90589696 0.16480400
v 0.96312463 0.90577263 -0.16370824
v 0.85509473 1.16036582 0.00015040
v -0.61685479 1.41303897 0.08139655
v -0.57228607 1.42164099 0.21336460
v -0.48512018 1.49263763 0.13142489
v -0.71006548 1.23483896 0.37286025
v -0.64916438 1.33348453 0.29676157
v -0.76167959 1.24015093 0.23793447
v -0.37567398 1.47176182 0.38406527
v -0.51712352 1.41236663 0.34671664
v -0.45492059 1.38766527 0.46912584
v -0.79950064 0.73397434 0.62848771
v -0.80353779 0.86065757 0.57935977
v -0.88049340 0.78200048 0.49318102
v -0.60672063 1.01289916 0.71302718
v -0.70972693 0.93985814 0.65440214
v -0.61467296 0.88297784 0.76811653
v -0.85080248 1.02322590 0.37779465
v -0.79088205 0.98801833 0.52045071
v -0.76277918 1.10556173 0.45631081
v -0.08177092 1.24933946 0.78639495
v -0.21426986 1.20578611 0.79590845
v -0.13251123 1.12200511 0.87061131
v -0.37272960 1.33782935 0.60253280
v -0.29706994 1.28001022 0.70413899
v -0.23759404 1.38797653 0.60761374
v -0.38745743 1.01636481 0.85129982
v -0.34827229 1.15257227 0.78750324
v -0.47193897 1.09238648 0.76271915
v -0.64956355 1.19868326 0.51553440
v -0.56751919 1.14973879 0.64969862
v -0.51501000 1.27888846 0.56563628
v -0.35862097 1.55066597 0.13189121
v -0.40364882 1.54149520 0.00013699
v -0.23881240 1.51795864 0.38657996
v -0.30166101 1.54253972 0.26439649
v -0.13787302 1.61616719 0.00000389
v -0.22014044 1.59190154 0.13294344
v -0.08210496 1.61320019 0.13318999
v 0.08097306 1.24889016 0.78653908
v 0.00002168 1.33382833 0.71244866
v 0.15672494 1.46727324 0.51983464
v 0.08149804 1.40894938 0.62082195
v 0.23753652 1.38735664 0.60800111
v -0.08108808 1.40900183 0.62091088
v -0.15652518 1.46798837 0.51973760
v 0.40420583 1.54103267 0.00022801
v 0.35899940 1.55014169 0.13210014
v 0.48517793 1.49186468 0.13159528
v 0.08265599 1.61277556 0.13321552
v 0.22069986 1.59196877 0.13310862
v 0.13828182 1.61592162 0.00001709
v 0.37596062 1.47094858 0.38442445
v 0.30202740 1.54264247 0.26468706
v 0.23918509 1.51728427 0.38684052
v -0.08221345 1.53938580 0.40013215
v 0.08245277 1.53894782 0.39988574
v 0.00021218 1.58967400 0.26665613
v -0.35840416 1.55077362 -0.13179940
v -0.48501521 1.49274492 -0.13129224
v -0.08209798 1.61299658 -0.13326593
v -0.22014289 1.59232354 -0.13304631
v -0.37548426 1.47209728 -0.38430971
v -0.30148986 1.54304242 -0.26447296
v -0.23866630 1.51812661 -0.38676009
v 0.48535499 1.49215245 -0.13121259
v 0.35904840 1.55052602 -0.13167188
v 0.23922399 1.51786256 -0.38662276
v 0.30182558 1.54259145 -0.26427901
v 0.37581632 1.47143781 -0.38408989
v 0.22050081 1.59200847 -0.13284951
v 0.08248793 1.61305892 -0.13333373
v -0.08139779 1.24823809 -0.78637451
v 0.00021193 1.33320427 -0.71314502
v 0.08144923 1.24794066 -0.78626895
v -0.15626331 1.46790993 -0.52011287
v -0.08093378 1.40890169 -0.62139827
v -0.23717897 1.38785470 -0.60794467
v 0.23793362 1.38773084 -0.60810399
v 0.08166796 1.40888691 -0.62163585
v 0.15692747 1.46754229 -0.51994485
v 0.00018139 1.58951581 -0.26674455
v 0.08265238 1.53931808 -0.40011325
v -0.08207285 1.53956199 -0.40026921
v -0.57219857 1.42185974 -0.21345523
v -0.61695015 1.41332006 -0.08112833
v -0.45471111 1.38783836 -0.46956381
v -0.51713604 1.41336584 -0.34699243
v -0.76167685 1.24084687 -0.23794585
v -0.64921755 1.33369386 -0.29693538
v -0.70990664 1.23578334 -0.37329882
v -0.13207473 1.12143540 -0.86965823
v -0.21388982 1.20486915 -0.79580605
v -0.47121206 1.09139001 -0.76265943
v -0.34779239 1.15128255 -0.78729516
v -0.38699290 1.01496911 -0.85088784
v -0.29678383 1.27933061 -0.70457441
v -0.37239310 1.33791792 -0.60297763
v -0.88134277 0.78148830 -0.49440545
v -0.80452955 0.86070263 -0.58048546
v -0.80033422 0.73275191 -0.62944341
v -0.76218987 1.10642040 -0.45725426
v -0.79080784 0.98844969 -0.52127349
v -0.85091084 1.02453601 -0.37846681
v -0.61520928 0.88211554 -0.76968449
v -0.71052480 0.93978977 -0.65520489
v -0.60677844 1.01185274 -0.71391433
v -0.51458317 1.27917945 -0.56642634
v -0.56709218 1.14933920 -0.65041041
v -0.64903569 1.19910407 -0.51575071
v -0.70484757 1.34248984 0.00011963
v -0.84498864 1.15613341 -0.15736058
v -0.78311539 1.25364375 -0.08140629
v -0.78294802 1.25346446 0.08151082
v -0.84460276 1.15551758 0.15750338
v -0.93848425 0.65518254 -0.41491866
v -0.94157720 0.78178102 -0.36543363
v -1.00570047 0.78224963 -0.08424525
v -0.98338991 0.78218716 -0.22481287
v -1.01546240 0.65409118 -0.14260863
v -0.92764753 0.90973651 -0.30519331
v -0.89841396 1.02707016 -0.24062109
v -0.94115782 0.78117907 0.36436462
v -0.93894434 0.65532333 0.41405830
v -0.89840108 1.02594173 0.24056697
v -0.92761379 0.90827245 0.30467564
v -1.01612556 0.65409994 0.14057371
v -0.98387378 0.78128707 0.22371319
v -1.00614154 0.78196687 0.08294033
v -0.92109424 1.04035568 -0.08279126
v -0.97624183 0.91103441 0.00014510
v -0.92092091 1.03971338 0.08323169
v 0.57229024 1.42108428 0.21362415
v 0.61655885 1.41203976 0.08124447
v 0.45517179 1.38640070 0.46970433
v 0.51739103 1.41162503 0.34700909
v 0.76141715 1.23883975 0.23799692
v 0.64933699 1.33246970 0.29695591
v 0.71018451 1.23369348 0.37311545
v 0.13148828 1.12171459 0.87121630
v 0.21355009 1.20491898 0.79624861
v 0.47216183 1.09229779 0.76383120
v 0.34771639 1.15161991 0.78790462
v 0.38695464 1.01536763 0.85196614
v 0.29653394 1.27836609 0.70470232
v 0.37266523 1.33670449 0.60286117
v 0.87985009 0.77815175 0.49244392
v 0.80387068 0.85701096 0.57813197
v 0.79968274 0.73119366 0.62720495
v 0.76296729 1.10436559 0.45661309
v 0.79126585 0.98595917 0.52045715
v 0.85098189 1.02198982 0.37795469
v 0.61623025 0.88324130 0.76947993
v 0.71057069 0.93785298 0.65356082
v 0.60812086 1.01218092 0.71353751
v 0.51554644 1.27720356 0.56625551
v 0.56797171 1.14902115 0.64993984
v 0.64989519 1.19743192 0.51540810
v -0.13367462 1.00005579 0.93370086
v -0.00066601 1.04322207 0.92315048
v -0.39149329 0.88471144 0.90323764
v -0.26757565 0.94511664 0.92684591
v -0.00076673 0.78741127 1.00986576
v -0.13512164 0.86651987 0.98083991
v -0.13647960 0.73320955 1.00984657
v -0.80772239 0.57807440 0.63562924
v -0.72899771 0.65666389 0.72114354
v -0.53581876 0.50669742 0.87257862
v -0.63793892 0.57929039 0.80411065
v -0.63097781 0.43020576 0.79338396
v -0.63174653 0.73381197 0.79630828
v -0.52770251 0.80619287 0.85502988
v 0.00200610 0.26538569 0.96751440
v -0.13724238 0.30921116 0.97397971
v -0.13819399 0.18997122 0.92514068
v -0.13629651 0.57525057 1.01916385
v -0.13630101 0.44128764 1.00592053
v -0.00055715 0.52062333 1.02528906
v -0.40467393 0.29517606 0.89136046
v -0.27537826 0.36460137 0.96155781
v -0.40043831 0.42559850 0.93144143
v -0.40760270 0.73373640 0.93242401
v -0.41091165 0.57594621 0.94367307
v -0.27272996 0.65479511 0.98974508
v -0.95669132 0.52984667 0.37123173
v -0.89424235 0.52994388 0.50157225
v -1.02142930 0.52623421 0.08421579
v -0.99929786 0.52687359 0.22662309
v -0.89058268 0.29056051 0.39761537
v -0.95714021 0.40332687 0.31502843
v -0.93963093 0.28580275 0.25378275
v -0.89440584 0.52874726 -0.50306565
v -0.95592594 0.52792412 -0.37321770
v -0.94126016 0.28340286 -0.25222829
v -0.95544845 0.40066186 -0.31649083
v -0.89089602 0.28573203 -0.39713863
v -0.99956179 0.52589357 -0.23025437
v -1.02322400 0.52573079 -0.08742093
v -0.69015872 0.00000000 0.08705006
v -0.77323675 0.00259327 0.00165145
v -0.68612874 0.00000000 -0.08949194
v -0.89784920 0.16498329 0.16991703
v -0.84859723 0.07128008 0.09120706
v -0.82394135 0.08370479 0.25816411
v -0.82495165 0.08593552 -0.25569540
v -0.84487045 0.07098072 -0.08492143
v -0.90026331 0.15901990 -0.16469836
v -1.00855827 0.39919102 -0.00110011
v -0.96800750 0.27299243 -0.08791505
v -0.96922535 0.27424529 0.08637968
v -0.72909892 0.65371758 -0.72081482
v -0.80723852 0.57582074 -0.63526422
v -0.52864629 0.80360848 -0.85501534
v -0.63364780 0.73134923 -0.79671288
v -0.63207954 0.42415023 -0.78928721
v -0.63966209 0.57478493 -0.80486369
v -0.53854978 0.50172740 -0.87102598
v 0.00014848 1.04310679 -0.92190003
v -0.13282952 0.99963355 -0.93283910
v -0.13693985 0.73390967 -1.00918961
v -0.13504097 0.86659694 -0.98046368
v -0.00095372 0.78830916 -1.00921738
v -0.26730710 0.94428313 -0.92690361
v -0.39136058 0.88360697 -0.90314442
v -0.14056589 0.19270065 -0.92795318
v -0.13917290 0.31112483 -0.97363740
v 0.00037595 0.26906556 -0.96940142
v -0.40223870 0.42245060 -0.92804635
v -0.27704832 0.36414349 -0.96008855
v -0.40489829 0.29301089 -0.89219797
v -0.00178039 0.52216744 -1.02668071
v -0.13924025 0.44190821 -1.00492096
v -0.13902245 0.57524234 -1.01864970
v -0.40876693 0.73311758 -0.93358439
v -0.27473632 0.65370888 -0.98923224
v -0.41279769 0.57326770 -0.94155115
v 0.21422154 1.20471275 -0.79588139
v 0.13203157 1.12090003 -0.86997288
v 0.37311029 1.33697939 -0.60294807
v 0.29725856 1.27849019 -0.70437944
v 0.38717541 1.01381552 -0.85044354
v 0.34827495 1.15032911 -0.78667241
v 0.47159731 1.09010518 -0.76167512
v 0.61687064 1.41235721 -0.08118410
v 0.57242215 1.42108226 -0.21325694
v 0.70979428 1.23367763 -0.37227294
v 0.64902174 1.33161247 -0.29632753
v 0.76120657 1.23848224 -0.23747157
v 0.51741594 1.41182661 -0.34657815
v 0.45522949 1.38691485 -0.46958214
v 0.80127388 0.73251915 -0.62899917
v 0.80542833 0.85962921 -0.58038372
v 0.88237983 0.78087646 -0.49451768
v 0.60662007 1.01107287 -0.71230853
v 0.71002644 0.93739265 -0.65428722
v 0.61524999 0.88141209 -0.76890439
v 0.85169399 1.02303112 -0.37857151
v 0.79125285 0.98707098 -0.52094501
v 0.76275104 1.10532415 -0.45644373
v 0.51511121 1.27678621 -0.56555176
v 0.64945030 1.19750583 -0.51508754
v 0.56723559 1.14771414 -0.64918321
v 0.69192421 0.00000000 0.09386344
v 0.64363426 0.00000000 0.24364583
v 0.53913420 0.00000000 0.14310949
v 0.76795822 0.09317309 0.39998993
v 0.70825368 0.00633442 0.32343185
v 0.82392114 0.08812972 0.25780740
v 0.41716394 0.00000000 0.42861247
v 0.57859105 0.00000000 0.39158714
v 0.50406480 0.00000000 0.52125162
v 0.80839610 0.57637334 0.63562620
v 0.82558191 0.44884968 0.59520233
v 0.89490318 0.52736372 0.50188464
v 0.63557088 0.30019245 0.74733549
v 0.73490024 0.37242132 0.67886353
v 0.63212639 0.42858371 0.79207098
v 0.89027864 0.28831047 0.39642826
v 0.82356757 0.32176104 0.54451364
v 0.81004155 0.20679377 0.48692822
v 0.09011722 0.07867943 0.85248202
v 0.23154540 0.11406177 0.85453206
v 0.14256486 0.19302554 0.92227328
v 0.40886796 0.01174061 0.66086221
v 0.32232794 0.05347627 0.76339895
v 0.26305327 0.00000000 0.67066979
v 0.40594396 0.29747447 0.89236599
v 0.37352845 0.16408907 0.84030473
v 0.50039387 0.22250153 0.80600941
v 0.69808137 0.12238628 0.55399156
v 0.60535711 0.16493914 0.69259948
v 0.56090146 0.05206606 0.61794007
v 0.39773825 0.00000000 0.14790434
v 0.44451219 0.00000000 0.00028299
v 0.26252732 0.00000000 0.43338689
v 0.33238012 0.00000000 0.29330927
v 0.14675897 0.00000000 0.00478229
v 0.23847933 0.00000000 0.14893319
v 0.08116196 0.00000000 0.14899236
v -0.08845683 0.07685968 0.85369551
v 0.00229572 0.01548499 0.78230578
v -0.18533513 0.00000000 0.58519936
v -0.08996364 0.00000000 0.68824959
v -0.26159751 0.00000000 0.67317700
v 0.08794383 0.00000000 0.69043678
v 0.17356628 0.00000000 0.58611774
v -0.45489052 0.00000000 -0.00643783
v -0.40785420 0.00000000 0.14239478
v -0.55048019 0.00000000 0.14234787
v -0.10218104 0.00000000 0.14640734
v -0.25028062 0.00000000 0.14209367
v -0.15906091 0.00000000 0.00103359
v -0.42978930 0.00000000 0.43044248
v -0.35058722 0.00000000 0.29131025
v -0.27890673 0.00000000 0.43130520
v 0.08764112 0.00000000 0.44520879
v -0.09943982 0.00000000 0.44647759
v -0.00707558 0.00000000 0.29586983
v 0.38842076 0.00000000 -0.13835879
v 0.52847683 0.00000000 -0.15157695
v 0.08679070 0.00000000 -0.14659680
v 0.23359782 0.00000000 -0.14483492
v 0.41821566 0.00000000 -0.42285541
v 0.32601926 0.00000000 -0.28513679
v 0.26755500 0.00000000 -0.42573211
v -0.54195422 0.00000000 -0.15342684
v -0.40218112 0.00000000 -0.15278023
v -0.26651627 0.00000000 -0.42345017
v -0.34050769 0.00000000 -0.29461196
v -0.41372520 0.00000000 -0.42465082
v -0.25080740 0.00000000 -0.14965063
v -0.09738765 0.00000000 -0.14874910
v 0.08887417 0.08122580 -0.85549814
v 0.00094129 0.01814720 -0.78645545
v -0.08748636 0.08066326 -0.85552901
v 0.17438260 0.00000000 -0.57902056
v 0.09172454 0.00000000 -0.69309145
v 0.27015981 0.00000000 -0.67553777
v -0.26877704 0.00000000 -0.67793465
v -0.09228249 0.00000000 -0.69731379
v -0.17308743 0.00000000 -0.57720244
v -0.00536007 0.00000000 -0.29267260
v -0.09157271 0.00000000 -0.44213673
v 0.08840021 0.00000000 -0.43854243
v 0.63818914 0.00000000 -0.23835176
v 0.68800509 0.00000000 -0.09007510
v 0.50014681 0.00000000 -0.51910299
v 0.57175380 0.00000000 -0.38281611
v 0.82859421 0.09391340 -0.25935644
v 0.71964073 0.01916927 -0.32662714
v 0.76945269 0.09342866 -0.40548897
v 0.14229403 0.19464259 -0.92648828
v 0.23125979 0.11631667 -0.85701066
v 0.50025243 0.22073168 -0.80745918
v 0.37147394 0.16538490 -0.83875847
v 0.40561029 0.29529986 -0.89164633
v 0.32709941 0.05568711 -0.76882702
v 0.41233572 0.01563449 -0.66346371
v 0.89554119 0.52742189 -0.50227994
v 0.82572854 0.44864577 -0.59684104
v 0.80976969 0.57635826 -0.63595307
v 0.80845642 0.20720275 -0.48557872
v 0.82554507 0.32276136 -0.54383409
v 0.89348137 0.28617278 -0.39775100
v 0.63360429 0.42713043 -0.79424107
v 0.73663896 0.37028623 -0.68026876
v 0.63484025 0.29904372 -0.74689090
v 0.56289458 0.05517723 -0.61431754
v 0.60637563 0.16601680 -0.69276136
v 0.69973356 0.12358077 -0.55598229
v 0.77819359 0.01193307 -0.00077830
v 0.90422350 0.16019103 -0.16770718
v 0.85329753 0.07412405 -0.08892442
v 0.85363078 0.07907744 0.08728696
v 0.90190440 0.16064583 0.16859640
v 0.94033039 0.65462691 -0.41502878
v 0.95790327 0.52754229 -0.37170929
v 1.02411222 0.52548337 -0.08629929
v 1.00151360 0.52691245 -0.22838469
v 1.01840258 0.65460289 -0.14183469
v 0.95865762 0.40064368 -0.31560275
v 0.94238114 0.28311652 -0.25229344
v 0.95715600 0.52686799 0.37134409
v 0.93858141 0.65286779 0.41258749
v 0.93974948 0.28581721 0.25238717
v 0.95759690 0.40176716 0.31469712
v 1.01594841 0.65273470 0.14123373
v 0.99929035 0.52489483 0.22657907
v 1.02225542 0.52569777 0.08390434
v 0.96432590 0.27188027 -0.08698268
v 1.00817680 0.39812583 -0.00026417
v 0.96367335 0.27266085 0.08706474
v 0.13970295 0.31067893 0.97362679
v 0.40304077 0.42839238 0.93114525
v 0.27780843 0.36690369 0.96183860
v 0.13841712 0.44288948 1.00619209
v 0.13645229 0.57501853 1.01865315
v 0.72894925 0.65541774 0.72063088
v 0.52988082 0.80639535 0.85693598
v 0.63389271 0.73341739 0.79691947
v 0.63941228 0.57907647 0.80540735
v 0.53833348 0.50741422 0.87224603
v 0.13210233 0.99861860 0.93375713
v 0.13551892 0.73375934 1.01082730
v 0.13382421 0.86635762 0.98184043
v 0.26665664 0.94476467 0.92816585
v 0.39123976 0.88437039 0.90377855
v 0.41139808 0.57676345 0.94172531
v 0.40813902 0.73500377 0.93486851
v 0.27274555 0.65549994 0.99063939
v -0.64496338 0.00000000 0.23592359
v -0.50943589 0.00000000 0.52206761
v -0.58024168 0.00000000 0.38514844
v -0.71708804 0.01461930 0.32791373
v -0.76515627 0.08720333 0.40390036
v -0.23163530 0.11760288 0.85926396
v -0.49797282 0.22086582 0.80698097
v -0.37150726 0.16516145 0.83995992
v -0.32573017 0.05340485 0.76888782
v -0.41156307 0.01032964 0.66287750
v -0.82360983 0.45244637 0.59554350
v -0.80674875 0.21024515 0.48605117
v -0.82317799 0.32621914 0.54460859
v -0.73554921 0.37376073 0.68120122
v -0.63433671 0.30179602 0.75127918
v -0.56107557 0.05614675 0.62121803
v -0.60188365 0.16770616 0.69389367
v -0.69512522 0.12619615 0.55618709
v -0.22935154 0.11731993 -0.85504997
v -0.41252452 0.00686304 -0.66679126
v -0.32503229 0.04704093 -0.76905227
v -0.37054294 0.16169278 -0.83862096
v -0.49659416 0.21827865 -0.80566692
v -0.63649660 0.00000000 -0.23762442
v -0.76641303 0.09028221 -0.40326762
v -0.71871471 0.01712468 -0.32493621
v -0.57298052 0.00000000 -0.38892767
v -0.49920803 0.00000000 -0.52396291
v -0.82351482 0.44909528 -0.59577906
v -0.63233739 0.29593801 -0.74261242
v -0.73534328 0.36672050 -0.67856252
v -0.82227212 0.32025650 -0.54349142
v -0.80518800 0.20585628 -0.48284757
v -0.56110036 0.05039179 -0.61770469
v -0.69430560 0.11674199 -0.55661184
v -0.60072273 0.16404064 -0.69194186
v 0.73056084 0.65439099 -0.72174060
v 0.53796482 0.50444168 -0.87258255
v 0.63928461 0.57664758 -0.80506259
v 0.63321787 0.73127443 -0.79665333
v 0.52816308 0.80349445 -0.85380673
v 0.13857438 0.31112945 -0.97490370
v 0.13532574 0.57620168 -1.01980567
v 0.13667613 0.44289842 -1.00678575
v 0.27647820 0.36648840 -0.96282399
v 0.40209016 0.42598897 -0.93160152
v 0.13311407 0.99880558 -0.93247730
v 0.39139467 0.88272858 -0.90211558
v 0.26711887 0.94278526 -0.92522597
v 0.13458224 0.86647046 -0.98045677
v 0.13451460 0.73400474 -1.00933349
v 0.41134870 0.57513046 -0.94183141
v 0.27234352 0.65473545 -0.98908907
v 0.40805888 0.73217553 -0.93176854
v 0.94104606 0.77931446 0.36513537
v 1.00678825 0.78051257 0.08490615
v 0.98541063 0.78127789 0.22480151
v 0.92791253 0.90755159 0.30549902
v 0.89907348 1.02522111 0.24053420
v 0.94297951 0.78078705 -0.36513007
v 0.89884901 1.02473426 -0.24066131
v 0.92927104 0.90777105 -0.30483583
v 0.98555994 0.78116995 -0.22442029
v 1.00749588 0.78228390 -0.08283839
v 0.70474684 1.34138203 -0.00011504
v 0.84486532 1.15402293 0.15736231
v 0.78313082 1.25234950 0.08154830
v 0.78265142 1.25175893 -0.08108360
v 0.84440780 1.15355515 -0.15688416
v 0.97571558 0.90898007 0.00092058
v 0.91959161 1.03733051 -0.08267099
v 0.92046732 1.03765428 0.08299320
f 330 87 329
f 336 325 26
f 207 208 56
f 464 36 580
f 502 129 504
f 157 624 622
f 308 311 82
f 247 223 248
f 507 483 508
f 331 88 329
f 494 500 497
f 156 601 602
f 591 589 592
f 365 98 596
f 75 281 282
f 152 587 577
f 149 559 560
f 555 121 553
f 530 141 529
f 515 517 139
f 361 594 98
f 250 67 249
f 157 608 609
f 294 293 209
f 317 81 316
f 557 338 26
f 303 305 81
f 530 529 528
f 101 381 382
f 415 418 111
f 192 184 50
f 412 110 411
f 20 384 256
f 131 594 486
f 281 264 282
f 347 287 348
f 28 349 582
f 165 163 1
f 248 250 66
f 617 107 398
f 273 271 274
f 456 115 453
f 558 561 560
f 335 576 91
f 331 177 332
f 116 433 436
f 351 370 92
f 136 511 530
f 239 240 65
f 247 258 19
f 304 23 567
f 148 557 570
f 214 208 58
f 440 426 450
f 268 270 269
f 258 247 268
f 204 202 16
f 466 125 465
f 517 513 133
f 168 275 274
f 275 73 274
f 198 193 53
f 309 308 307
f 510 511 136
f 415 416 110
f 131 490 597
f 473 475 474
f 414 415 111
f 493 495 494
f 496 504 485
f 433 116 432
f 600 375 601
f 240 234 65
f 418 415 412
f 486 361 3
f 567 566 304
f 380 393 29
f 17 199 197
f 491 492 132
f 451 449 435
f 218 217 216
f 623 621 613
f 396 104 395
f 433 439 436
f 628 160 627
f 215 202 217
f 209 207 2
f 427 113 424
f 434 10 544
f 434 433 432
f 199 17 210
f 150 564 565
f 489 491 132
f 275 13 285
f 497 500 134
f 125 466 476
f 578 152 577
f 208 214 211
f 328 88 343
f 356 27 603
f 150 566 567
f 372 100 371
f 190 191 47
f 235 8 398
f 260 261 72
f 422 403 414
f 422 414 111
f 453 454 123
f 349 583 582
f 521 520 519
f 425 453 115
f 616 622 158
f 483 130 508
f 151 586 572
f 212 17 232
f 400 397 402
f 377 396 99
f 41 522 511
f 510 508 505
f 549 547 42
f 475 473 36
f 510 137 509
f 222 221 197
f 430 115 429
f 220 194 1
f 305 54 204
f 621 29 613
f 192 171 184
f 460 335 5
f 88 331 332
f 74 277 279
f 300 301 80
f 390 389 388
f 165 45 164
f 146 549 551
f 291 278 75
f 448 120 445
f 147 543 544
f 607 610 609
f 603 602 356
f 139 529 514
f 333 553 443
f 92 368 347
f 261 260 259
f 300 6 200
f 46 177 331
f 284 283 174
f 301 300 200
f 471 468 474
f 54 305 301
f 302 304 303
f 569 150 567
f 150 569 570
f 294 209 2
f 628 629 160
f 548 543 147
f 147 625 627
f 63 233 234
f 426 427 114
f 41 509 532
f 198 52 196
f 614 105 612
f 147 627 547
f 81 305 306
f 549 548 547
f 54 301 200
f 342 88 332
f 264 281 70
f 193 194 53
f 455 429 456
f 187 321 14
f 479 130 484
f 147 544 625
f 458 456 453
f 304 80 303
f 314 84 313
f 488 503 501
f 321 332 14
f 423 425 424
f 305 204 306
f 341 339 25
f 514 40 516
f 625 628 627
f 340 339 341
f 105 614 391
f 243 228 62
f 318 316 78
f 75 278 279
f 357 355 353
f 238 257 63
f 466 455 476
f 425 423 4
f 448 449 120
f 408 638 108
f 292 275 285
f 22 278 289
f 515 513 517
f 501 503 134
f 622 623 158
f 134 503 504
f 195 216 206
f 163 271 246
f 619 617 620
f 62 228 229
f 163 165 164
f 453 425 454
f 489 132 488
f 82 628 625
f 58 208 209
f 525 608 40
f 626 547 627
f 518 517 498
f 489 487 491
f 557 26 564
f 325 336 344
f 541 145 539
f 40 616 516
f 338 556 89
f 250 248 245
f 139 514 515
f 98 594 596
f 246 220 1
f 112 413 630
f 9 536 413
f 156 600 601
f 332 177 14
f 321 342 332
f 156 606 600
f 584 330 585
f 302 303 81
f 584 87 330
f 330 25 585
f 400 239 65
f 439 440 117
f 95 358 368
f 597 594 131
f 594 361 486
f 246 67 245
f 561 562 149
f 28 364 362
f 55 216 217
f 427 430 114
f 267 20 254
f 556 555 553
f 84 309 558
f 311 310 312
f 609 525 142
f 256 68 255
f 124 460 461
f 82 311 312
f 307 308 82
f 589 135 495
f 527 40 514
f 112 418 412
f 20 256 254
f 258 238 19
f 267 254 269
f 273 272 249
f 392 391 393
f 137 533 509
f 122 455 456
f 9 413 411
f 130 480 505
f 333 443 5
f 527 525 40
f 589 495 385
f 39 496 485
f 223 225 224
f 414 416 415
f 219 222 53
f 145 538 539
f 413 412 411
f 469 468 467
f 183 181 6
f 191 192 50
f 429 35 431
f 292 285 76
f 413 112 412
f 415 110 412
f 43 164 167
f 467 468 126
f 617 101 620
f 450 451 117
f 438 546 545
f 619 620 159
f 17 212 210
f 124 579 576
f 584 153 583
f 460 124 576
f 3 469 467
f 311 308 314
f 6 320 183
f 389 104 388
f 251 250 249
f 194 165 1
f 291 289 278
f 287 77 348
f 238 258 257
f 139 517 518
f 238 236 19
f 223 247 19
f 382 380 29
f 39 518 498
f 361 359 3
f 69 255 257
f 139 518 528
f 33 545 535
f 387 385 7
f 69 268 269
f 477 462 125
f 454 479 123
f 121 555 447
f 451 435 117
f 454 425 4
f 233 252 8
f 124 463 464
f 69 258 268
f 168 167 166
f 583 153 582
f 384 394 102
f 138 512 513
f 57 210 211
f 254 256 255
f 607 609 142
f 324 319 86
f 289 291 76
f 291 292 76
f 384 102 383
f 422 421 420
f 221 17 197
f 383 102 381
f 376 377 99
f 99 373 374
f 386 105 392
f 438 33 440
f 90 341 343
f 281 75 279
f 574 571 96
f 628 82 312
f 221 222 59
f 127 471 474
f 595 605 603
f 551 538 145
f 334 91 340
f 322 324 85
f 305 303 301
f 18 239 399
f 306 204 16
f 199 198 197
f 166 190 180
f 303 80 301
f 267 266 265
f 626 42 547
f 16 215 213
f 349 351 350
f 295 16 213
f 68 379 252
f 250 251 66
f 627 160 626
f 383 68 256
f 343 88 342
f 507 508 136
f 202 215 16
f 197 198 53
f 254 69 269
f 603 605 156
f 418 419 111
f 384 383 256
f 455 122 476
f 203 204 54
f 556 557 148
f 255 68 253
f 313 84 560
f 25 328 341
f 254 255 69
f 603 156 602
f 581 584 583
f 630 632 112
f 163 246 1
f 246 245 220
f 432 116 558
f 499 591 590
f 320 563 86
f 345 93 350
f 306 16 295
f 346 93 345
f 562 568 149
f 604 605 155
f 154 592 593
f 545 552 535
f 511 522 530
f 574 573 571
f 566 150 565
f 361 98 360
f 67 271 273
f 234 235 65
f 208 211 56
f 574 151 573
f 251 270 66
f 398 8 378
f 213 215 214
f 438 440 439
f 315 314 313
f 263 71 262
f 20 373 384
f 496 134 504
f 329 88 328
f 81 306 316
f 555 556 148
f 592 589 103
f 617 619 107
f 227 207 56
f 571 359 96
f 446 466 465
f 206 216 55
f 359 571 469
f 568 148 570
f 34 437 435
f 28 351 349
f 21 272 282
f 113 423 424
f 490 489 488
f 379 68 383
f 210 212 211
f 80 563 300
f 351 92 350
f 326 346 12
f 83 317 318
f 555 148 554
f 212 231 56
f 218 57 217
f 271 67 246
f 195 196 52
f 270 268 66
f 390 592 103
f 148 568 554
f 495 493 7
f 592 390 593
f 357 95 355
f 574 575 151
f 452 120 451
f 154 591 592
f 587 585 577
f 395 394 396
f 93 349 350
f 610 416 611
f 166 44 190
f 315 23 302
f 315 302 317
f 268 247 66
f 606 154 593
f 396 394 99
f 211 212 56
f 370 369 368
f 235 397 65
f 280 278 22
f 83 315 317
f 575 588 151
f 74 279 280
f 385 495 7
f 63 257 253
f 397 235 398
f 214 58 213
f 220 219 194
f 546 146 545
f 236 225 19
f 599 94 602
f 235 233 8
f 102 394 395
f 611 416 32
f 225 223 19
f 139 528 529
f 231 62 229
f 419 406 421
f 451 450 452
f 49 182 185
f 402 397 107
f 52 199 218
f 416 610 110
f 225 236 244
f 107 397 398
f 68 252 253
f 322 85 321
f 182 181 183
f 118 438 439
f 546 438 118
f 348 77 345
f 543 546 118
f 231 212 232
f 610 611 157
f 33 438 545
f 385 386 103
f 479 480 130
f 169 195 15
f 93 583 349
f 15 195 206
f 190 44 192
f 247 248 66
f 146 552 545
f 248 60 245
f 570 557 564
f 274 271 43
f 63 253 233
f 272 21 249
f 507 528 518
f 67 273 249
f 487 467 126
f 196 195 169
f 624 159 623
f 134 496 497
f 132 503 488
f 104 393 395
f 556 553 89
f 355 356 94
f 258 69 257
f 229 61 227
f 56 231 227
f 460 576 335
f 463 124 461
f 394 373 99
f 29 393 391
f 67 250 245
f 193 198 196
f 462 36 464
f 144 633 630
f 141 526 527
f 517 133 498
f 536 144 630
f 100 372 599
f 144 536 537
f 22 289 287
f 578 579 152
f 579 578 576
f 189 188 187
f 60 223 224
f 92 348 350
f 555 554 447
f 396 377 388
f 194 193 165
f 413 536 630
f 372 352 599
f 377 376 375
f 348 345 350
f 105 386 387
f 240 237 234
f 463 462 464
f 135 500 494
f 45 196 169
f 512 612 387
f 245 60 220
f 429 115 456
f 223 60 248
f 288 289 76
f 525 526 142
f 100 599 601
f 613 29 391
f 526 523 520
f 341 328 343
f 631 641 639
f 264 21 282
f 266 72 265
f 106 402 403
f 73 273 274
f 186 206 205
f 381 379 383
f 52 216 195
f 410 18 399
f 290 272 73
f 72 371 374
f 526 525 527
f 115 430 424
f 498 497 496
f 621 382 29
f 543 118 434
f 214 215 57
f 522 141 530
f 511 510 509
f 352 94 599
f 493 512 7
f 90 340 341
f 169 171 170
f 605 604 606
f 219 60 224
f 104 389 392
f 359 469 3
f 186 49 185
f 222 219 224
f 166 167 44
f 428 427 426
f 523 522 524
f 129 502 481
f 50 185 188
f 164 45 170
f 425 115 424
f 33 428 426
f 427 428 113
f 94 356 602
f 515 138 513
f 114 431 452
f 237 236 238
f 215 217 57
f 95 354 355
f 220 60 219
f 515 514 516
f 183 320 319
f 222 197 53
f 559 569 567
f 300 320 6
f 435 436 117
f 96 360 363
f 640 642 641
f 242 243 62
f 140 537 519
f 508 130 505
f 420 410 399
f 537 539 144
f 317 316 318
f 426 114 450
f 186 15 206
f 311 83 310
f 625 544 307
f 544 10 307
f 168 43 167
f 185 182 188
f 369 354 95
f 44 171 192
f 605 606 156
f 548 549 146
f 100 601 375
f 149 568 569
f 381 380 382
f 455 466 35
f 480 479 454
f 543 548 546
f 493 133 513
f 492 472 37
f 477 125 476
f 491 487 126
f 337 336 338
f 588 153 587
f 576 578 91
f 633 161 632
f 96 359 360
f 39 485 483
f 101 617 378
f 193 45 165
f 163 164 43
f 618 624 611
f 507 136 528
f 561 149 560
f 641 162 639
f 116 561 558
f 494 133 493
f 253 252 233
f 63 237 238
f 392 393 104
f 440 450 117
f 93 581 583
f 386 385 387
f 120 449 451
f 421 422 111
f 486 3 467
f 302 81 317
f 633 632 630
f 462 475 36
f 376 99 374
f 489 490 131
f 447 449 448
f 387 612 105
f 106 420 399
f 173 46 172
f 492 491 472
f 316 306 295
f 22 287 347
f 109 410 420
f 507 39 483
f 559 23 313
f 214 57 211
f 196 45 193
f 10 434 432
f 422 106 403
f 626 160 640
f 487 486 467
f 542 41 532
f 400 106 399
f 444 120 452
f 198 199 52
f 475 127 474
f 621 620 382
f 621 623 159
f 450 114 452
f 92 347 348
f 376 100 375
f 434 118 433
f 503 132 502
f 337 90 336
f 537 536 519
f 395 393 380
f 201 54 200
f 171 44 170
f 355 94 353
f 58 296 213
f 422 420 106
f 595 365 596
f 569 568 570
f 523 140 520
f 114 430 431
f 218 210 57
f 304 566 80
f 639 162 638
f 261 371 72
f 548 147 547
f 498 133 497
f 150 570 564
f 222 224 59
f 142 526 520
f 437 436 435
f 141 522 523
f 137 510 505
f 173 179 176
f 559 149 569
f 121 447 448
f 563 320 300
f 102 395 380
f 257 255 253
f 642 162 641
f 83 311 314
f 216 52 218
f 512 493 513
f 23 304 302
f 91 339 340
f 512 138 612
f 159 620 621
f 218 199 210
f 364 28 575
f 83 318 310
f 168 274 43
f 136 530 528
f 140 523 524
f 495 135 494
f 233 235 234
f 566 563 80
f 25 339 577
f 277 74 276
f 475 462 477
f 133 494 497
f 436 437 116
f 389 386 392
f 548 146 546
f 441 460 5
f 10 309 307
f 65 397 400
f 543 434 544
f 640 641 161
f 272 273 73
f 581 93 346
f 419 421 111
f 319 320 86
f 180 179 178
f 127 475 477
f 231 229 227
f 337 334 340
f 136 508 510
f 308 309 84
f 237 63 234
f 447 554 34
f 252 379 378
f 315 83 314
f 608 622 616
f 338 336 26
f 337 338 89
f 13 275 168
f 209 208 207
f 436 439 117
f 628 312 629
f 360 366 363
f 364 574 96
f 359 361 360
f 466 446 35
f 500 501 134
f 406 109 421
f 135 589 591
f 601 599 602
f 340 90 337
f 481 492 37
f 522 41 524
f 78 316 295
f 131 486 487
f 403 32 414
f 634 626 640
f 151 572 573
f 515 516 138
f 8 252 378
f 265 72 374
f 9 521 519
f 538 549 42
f 368 358 347
f 588 587 586
f 458 453 123
f 589 385 103
f 502 492 481
f 32 416 414
f 430 427 424
f 153 585 587
f 540 144 539
f 370 368 92
f 209 293 58
f 428 33 535
f 326 581 346
f 625 307 82
f 575 28 582
f 6 181 200
f 421 109 420
f 553 121 443
f 160 642 640
f 153 584 585
f 309 432 558
f 334 337 89
f 23 315 313
f 271 163 43
f 296 295 213
f 39 498 496
f 118 439 433
f 531 113 534
f 293 296 58
f 28 362 351
f 489 131 487
f 431 444 452
f 84 558 560
f 98 366 360
f 45 169 170
f 379 101 378
f 462 463 125
f 308 84 314
f 10 432 309
f 299 24 310
f 132 492 502
f 512 387 7
f 639 638 408
f 565 323 86
f 59 244 242
f 106 400 402
f 440 33 426
f 566 565 563
f 617 398 378
f 224 225 59
f 410 109 409
f 239 400 399
f 194 219 53
f 358 22 347
f 610 157 609
f 27 595 603
f 479 484 482
f 142 520 521
f 585 25 577
f 339 578 577
f 408 407 406
f 407 109 406
f 31 408 406
f 407 408 108
f 31 639 408
f 419 31 406
f 608 616 40
f 430 429 431
f 455 35 429
f 35 444 431
f 188 51 187
f 188 182 51
f 51 322 187
f 322 51 319
f 51 182 183
f 319 51 183
f 187 322 321
f 322 319 324
f 381 101 379
f 405 407 108
f 404 405 108
f 286 285 178
f 407 405 409
f 109 407 409
f 191 175 47
f 167 164 170
f 50 184 185
f 44 167 170
f 64 244 236
f 243 244 64
f 50 188 189
f 541 542 145
f 442 445 119
f 339 91 578
f 445 446 119
f 624 623 622
f 611 624 157
f 523 526 141
f 141 527 529
f 527 514 529
f 445 120 444
f 446 445 444
f 35 446 444
f 613 614 158
f 158 614 615
f 623 613 158
f 614 613 391
f 614 612 615
f 371 376 374
f 100 376 371
f 479 482 123
f 373 394 384
f 540 42 634
f 633 540 634
f 538 42 540
f 633 634 161
f 161 634 640
f 42 626 634
f 540 633 144
f 557 556 338
f 553 333 89
f 262 21 264
f 251 21 262
f 5 335 333
f 270 251 262
f 21 251 249
f 600 593 30
f 606 593 600
f 600 30 375
f 593 390 30
f 30 377 375
f 390 388 30
f 30 388 377
f 228 243 241
f 470 478 459
f 470 127 478
f 127 477 478
f 184 186 185
f 478 477 476
f 122 478 476
f 357 74 280
f 518 39 507
f 344 342 85
f 325 344 85
f 342 344 343
f 85 342 321
f 344 90 343
f 90 344 336
f 482 129 481
f 482 481 457
f 482 457 123
f 481 37 457
f 449 447 34
f 435 449 34
f 470 472 471
f 472 470 37
f 470 471 127
f 472 126 471
f 126 468 471
f 470 459 37
f 491 126 472
f 504 129 485
f 221 59 242
f 125 463 465
f 437 34 562
f 561 437 562
f 554 568 562
f 34 554 562
f 437 561 116
f 390 103 389
f 103 386 389
f 392 105 391
f 572 586 580
f 572 580 36
f 586 152 580
f 473 572 36
f 244 243 242
f 225 244 59
f 64 240 241
f 240 239 241
f 237 240 64
f 243 64 241
f 236 237 64
f 411 607 521
f 9 411 521
f 110 607 411
f 607 142 521
f 610 607 110
f 171 15 184
f 171 169 15
f 15 186 184
f 87 584 581
f 153 588 582
f 588 575 582
f 381 102 380
f 573 572 473
f 468 469 128
f 474 468 128
f 469 571 128
f 571 573 128
f 573 473 128
f 473 474 128
f 564 323 565
f 26 323 564
f 323 324 86
f 325 323 26
f 325 324 323
f 563 565 86
f 324 325 85
f 410 230 18
f 230 228 18
f 18 228 241
f 18 241 239
f 401 619 618
f 401 402 107
f 403 402 401
f 619 159 618
f 401 618 32
f 619 401 107
f 403 401 32
f 618 611 32
f 159 624 618
f 478 122 459
f 122 458 459
f 37 459 457
f 459 458 457
f 122 456 458
f 457 458 123
f 191 190 192
f 485 129 484
f 129 482 484
f 483 485 484
f 130 483 484
f 189 187 14
f 191 50 189
f 191 189 175
f 189 14 175
f 14 177 175
f 499 501 500
f 501 499 38
f 38 499 590
f 135 499 500
f 488 501 38
f 499 135 591
f 480 454 4
f 284 12 346
f 4 423 506
f 480 4 506
f 423 531 506
f 480 506 505
f 531 137 506
f 506 137 505
f 365 366 98
f 71 270 262
f 270 71 269
f 71 267 269
f 335 334 333
f 333 334 89
f 334 335 91
f 536 9 519
f 465 463 461
f 537 140 541
f 520 140 519
f 119 446 465
f 465 461 119
f 461 441 119
f 460 441 461
f 176 46 173
f 299 297 24
f 71 263 266
f 263 260 266
f 260 72 266
f 263 70 260
f 205 201 49
f 201 181 49
f 186 205 49
f 181 201 200
f 181 182 49
f 284 77 283
f 586 587 152
f 588 586 151
f 20 267 265
f 266 267 71
f 31 417 631
f 631 417 632
f 31 631 639
f 417 31 419
f 641 631 161
f 417 112 632
f 161 631 632
f 418 417 419
f 417 418 112
f 284 345 77
f 542 550 145
f 542 541 524
f 284 174 12
f 48 174 283
f 373 20 265
f 373 265 374
f 609 608 525
f 608 157 622
f 560 559 313
f 636 637 162
f 541 140 524
f 41 542 524
f 358 357 280
f 70 263 264
f 263 262 264
f 176 177 46
f 174 48 173
f 174 173 172
f 538 551 549
f 538 540 539
f 537 541 539
f 232 221 242
f 17 221 232
f 232 242 62
f 231 232 62
f 203 205 55
f 203 55 202
f 201 205 203
f 202 55 217
f 205 206 55
f 204 203 202
f 73 275 292
f 292 290 73
f 272 290 282
f 290 292 291
f 75 290 291
f 290 75 282
f 70 277 259
f 277 70 281
f 277 281 279
f 260 70 259
f 12 174 172
f 104 396 388
f 367 27 354
f 365 27 367
f 354 27 356
f 365 367 366
f 595 27 365
f 318 299 310
f 155 596 597
f 155 597 598
f 596 594 597
f 595 596 155
f 605 595 155
f 180 47 179
f 180 190 47
f 352 372 11
f 11 372 261
f 312 310 24
f 642 636 162
f 636 297 637
f 367 369 97
f 366 367 97
f 369 367 354
f 369 370 97
f 580 579 464
f 580 152 579
f 579 124 464
f 61 230 409
f 230 410 409
f 230 61 229
f 230 229 228
f 76 285 286
f 353 352 276
f 74 353 276
f 288 76 286
f 288 286 283
f 289 288 287
f 203 54 201
f 287 288 77
f 77 288 283
f 286 48 283
f 531 423 113
f 276 11 259
f 11 261 259
f 277 276 259
f 616 158 615
f 516 616 615
f 138 516 615
f 138 615 612
f 509 533 532
f 503 502 504
f 635 79 294
f 635 294 404
f 635 637 79
f 637 635 638
f 638 635 108
f 635 404 108
f 226 61 405
f 61 226 227
f 405 61 409
f 227 226 207
f 48 178 179
f 48 286 178
f 173 48 179
f 534 143 533
f 534 535 143
f 531 534 533
f 533 143 532
f 137 531 533
f 261 372 371
f 13 180 178
f 285 13 178
f 180 13 166
f 13 168 166
f 346 345 284
f 331 327 46
f 46 327 172
f 172 327 326
f 382 620 101
f 442 121 448
f 443 121 442
f 2 226 404
f 294 2 404
f 404 226 405
f 207 226 2
f 550 551 145
f 552 146 551
f 143 550 532
f 552 550 143
f 330 329 328
f 24 636 629
f 94 352 353
f 352 11 276
f 113 428 534
f 428 535 534
f 509 41 511
f 535 552 143
f 550 552 551
f 550 542 532
f 369 95 368
f 326 327 87
f 87 327 329
f 327 331 329
f 581 326 87
f 293 79 298
f 79 297 298
f 296 298 78
f 79 293 294
f 296 293 298
f 598 490 38
f 358 280 22
f 280 279 278
f 357 358 95
f 74 357 353
f 330 328 25
f 567 23 559
f 590 598 38
f 590 604 598
f 598 604 155
f 604 590 154
f 590 591 154
f 604 154 606
f 297 299 298
f 299 318 78
f 298 299 78
f 355 354 356
f 629 636 642
f 312 24 629
f 629 642 160
f 370 362 97
f 362 363 97
f 363 366 97
f 364 363 362
f 362 370 351
f 96 363 364
f 297 636 24
f 162 637 638
f 637 297 79
f 490 488 38
f 598 597 490
f 441 442 119
f 443 442 441
f 443 441 5
f 442 448 445
f 296 78 295
f 326 12 172
f 575 574 364
f 47 175 176
f 175 177 176
f 47 176 179
