# FEM surface export ¡ª frame 343
# Vertices: 642  Faces: 1280
v -0.52390563 1.31340635 -0.00045376
v 0.52389234 1.31197357 0.00084199
v -0.62098384 0.00000000 -0.01414241
v 0.57513928 0.01181370 0.00332017
v 0.00356866 0.06440760 0.94458759
v -0.00102981 1.01742947 0.86180025
v -0.00102617 0.06319399 -0.94876468
v -0.00042232 1.01563358 -0.86099613
v 0.89483321 0.53116173 -0.55420339
v 0.89438289 0.53162867 0.55347705
v -0.89409971 0.52918637 -0.55261666
v -0.89337951 0.53392297 0.55222923
v -0.82031977 0.99111086 0.31342274
v -0.51245302 0.81673914 0.83088857
v -0.30867952 1.27470720 0.49857229
v 0.30879012 1.27465498 0.50005430
v 0.00037859 1.45165789 0.00031518
v 0.30884960 1.27482963 -0.49857664
v -0.30865228 1.27546394 -0.49946272
v -0.51457053 0.81445992 -0.83036178
v -0.82118011 0.99189299 -0.31407213
v -1.04985487 0.52659321 -0.00088788
v 0.51388264 0.81747049 0.83209008
v 0.82088435 0.99076784 0.31324893
v -0.53971243 0.25263396 0.87768167
v 0.00107704 0.52825803 1.05121422
v -0.90280372 0.08750008 -0.34095237
v -0.89852506 0.09291464 0.34716499
v -0.00213646 0.53309435 -1.05107141
v -0.53857589 0.24836746 -0.87250286
v 0.82139826 0.98993134 -0.31360397
v 0.51171821 0.81539911 -0.83120394
v 0.89148533 0.08403277 0.33767110
v 0.54197180 0.24888684 0.87581772
v 0.35700074 0.00000000 0.57564873
v -0.37541348 0.00000000 0.58773398
v -0.00248952 0.00000000 0.00619930
v -0.35613081 0.00000000 -0.57642776
v 0.36299255 0.00000000 -0.56486440
v 0.54140848 0.24915032 -0.87882119
v 0.90054661 0.08330362 -0.33943793
v 1.05374229 0.53149754 -0.00114418
v -0.69527841 1.17669189 0.16044132
v -0.58963335 1.16472435 0.42652109
v -0.43215278 1.32421172 0.25837079
v -0.72572923 0.68069863 0.71888900
v -0.70043540 0.92369449 0.59857887
v -0.88794333 0.77076900 0.44536942
v -0.16119061 1.16942871 0.70398617
v -0.42945942 1.07340610 0.69356358
v -0.26472926 0.93282700 0.87930310
v -0.16095622 1.40594280 0.26138774
v -0.27083221 1.41640377 0.00026105
v 0.16014132 1.16812932 0.70442557
v -0.00010953 1.31221366 0.52417856
v 0.27137274 1.41552138 0.00065948
v 0.16197971 1.40618849 0.26201099
v 0.43261862 1.32294774 0.25980645
v -0.16119400 1.40620315 -0.26111701
v -0.43220788 1.32510769 -0.25918478
v 0.43277696 1.32441556 -0.25807947
v 0.16139604 1.40620875 -0.26094458
v -0.16080967 1.16822851 -0.70357013
v 0.00095806 1.31260073 -0.52382600
v 0.16167226 1.16796684 -0.70409113
v -0.59037066 1.16375995 -0.42655092
v -0.69549215 1.17623913 -0.16157699
v -0.26567537 0.93010098 -0.87725693
v -0.42915192 1.07183981 -0.69404012
v -0.88958251 0.77070349 -0.44805187
v -0.70081651 0.92249554 -0.59866607
v -0.72945869 0.67821318 -0.71992230
v -0.86135393 1.01540458 -0.00049568
v -1.01115251 0.52895164 -0.28806275
v -0.98254395 0.77356547 -0.16879722
v -0.97890836 0.77250147 0.16575781
v -1.00987625 0.52821422 0.28543732
v 0.59008491 1.16127682 0.42723590
v 0.69508737 1.17533112 0.16136786
v 0.26407835 0.93055576 0.87992519
v 0.42821321 1.07114148 0.69440091
v 0.88933843 0.77134168 0.44710407
v 0.70212209 0.92379767 0.59944028
v 0.72933036 0.68193036 0.71898478
v -0.27187842 0.68093723 0.98727149
v -0.00101342 0.78423285 0.99201232
v -0.74769092 0.38596466 0.73938513
v -0.54950523 0.53282821 0.89202011
v 0.00348899 0.27669525 1.03758132
v -0.27717870 0.38047728 1.01480091
v -0.28378758 0.13766541 0.94512451
v -1.02248526 0.28715974 0.17508943
v -0.92983299 0.29588169 0.46797645
v -0.92707336 0.29017416 -0.46691319
v -1.02378595 0.28801250 -0.17755085
v -0.80397552 0.00000000 0.18973917
v -0.95128810 0.06525032 0.00497657
v -0.80442005 0.00000000 -0.18569793
v -0.55290425 0.53052068 -0.89355022
v -0.74664527 0.38052183 -0.73748744
v -0.00173495 0.78420562 -0.99011964
v -0.27412930 0.68117368 -0.98788238
v -0.28651407 0.13669664 -0.94891804
v -0.28010264 0.38022700 -1.01200867
v 0.00007502 0.28297338 -1.03611553
v 0.42950428 1.07028913 -0.69378281
v 0.26464394 0.92955780 -0.87835443
v 0.69526851 1.17469132 -0.16048865
v 0.59052873 1.16168213 -0.42480463
v 0.72774947 0.67976069 -0.72147799
v 0.70175707 0.92269254 -0.60027111
v 0.88962895 0.77045190 -0.44911927
v 0.78959996 0.00000000 0.19028069
v 0.67082483 0.00000000 0.49165067
v 0.50496358 0.00000000 0.29788339
v 0.75066358 0.38509780 0.74234134
v 0.75191844 0.14436387 0.64439261
v 0.92793810 0.29205805 0.46720806
v 0.18226445 0.00000000 0.80409032
v 0.48028243 0.01610981 0.77483201
v 0.28692535 0.13811590 0.94938701
v 0.16858648 0.00000000 0.29259461
v 0.30828649 0.00000000 0.00285144
v -0.18461473 0.00000000 0.81635219
v -0.00920366 0.00000000 0.61598200
v -0.31507748 0.00000000 0.00264449
v -0.18494284 0.00000000 0.29163131
v -0.51621717 0.00000000 0.29503393
v 0.18942337 0.00000000 -0.29512981
v 0.48334295 0.00000000 -0.27707684
v -0.49055880 0.00000000 -0.30915913
v -0.18375334 0.00000000 -0.29525077
v 0.18240944 0.00000000 -0.80219251
v -0.00272039 0.00000000 -0.60295659
v -0.18167722 0.00000000 -0.81267506
v 0.67668033 0.00000000 -0.48422167
v 0.78680700 0.00000000 -0.18203701
v 0.28608531 0.13833585 -0.94985151
v 0.47934717 0.02407593 -0.77452976
v 0.92909658 0.28852746 -0.46500573
v 0.75494021 0.14335896 -0.64656812
v 0.75065017 0.38447723 -0.74212044
v 0.94597787 0.06648813 0.00007616
v 1.01330853 0.53216618 -0.29011226
v 1.02302599 0.29058418 -0.17456526
v 1.02462423 0.29201353 0.17698117
v 1.01037097 0.53186917 0.28713477
v 0.28105921 0.38232297 1.01261449
v 0.55350834 0.53442734 0.89415389
v 0.27296376 0.68163782 0.98724121
v -0.67649281 0.00000000 0.49640304
v -0.47424185 0.02224587 0.77708262
v -0.75520033 0.15572792 0.65181595
v -0.47744286 0.01868383 -0.78240114
v -0.68318784 0.00000000 -0.49401501
v -0.75473017 0.14514722 -0.64475918
v 0.55242658 0.53101128 -0.89345288
v 0.27943459 0.38665631 -1.01555383
v 0.27142236 0.68110085 -0.98814952
v 0.98085618 0.77293670 0.16684870
v 0.98018855 0.77259010 -0.16783240
v 0.86138904 1.01377618 0.00004830
v -0.61455870 1.25160110 0.08090567
v -0.56995296 1.25967920 0.21215820
v -0.48200011 1.32602048 0.13040397
v -0.71321893 1.08497906 0.37384862
v -0.64878696 1.17743492 0.29616320
v -0.76459438 1.08921278 0.23802240
v -0.37378559 1.30685878 0.38196844
v -0.51524037 1.25113404 0.34539539
v -0.45407733 1.22822130 0.46776903
v -0.81626678 0.60776240 0.64186138
v -0.81742823 0.72904700 0.58915955
v -0.89850277 0.65389669 0.50283366
v -0.61405116 0.87470353 0.72304827
v -0.72011423 0.80497414 0.66435319
v -0.62446553 0.75013924 0.78179038
v -0.86148053 0.88417304 0.38247919
v -0.80126941 0.85077953 0.52734274
v -0.76980799 0.96318835 0.46074930
v -0.08250374 1.09859109 0.78933555
v -0.21530297 1.05767393 0.80061525
v -0.13351767 0.97850925 0.87907600
v -0.37253901 1.18173242 0.60237604
v -0.29766789 1.12753308 0.70591640
v -0.23715413 1.22839999 0.60647517
v -0.39193591 0.87898475 0.86375844
v -0.35130259 1.00817978 0.79395938
v -0.47642037 0.95104611 0.77074087
v -0.65328604 1.05145574 0.51875412
v -0.57207853 1.00515866 0.65477991
v -0.51618195 1.12680447 0.56689280
v -0.35589334 1.38064289 0.13089649
v -0.40061921 1.37213945 0.00019237
v -0.23708163 1.35065997 0.38433903
v -0.29957211 1.37322414 0.26268250
v -0.13662244 1.44395411 0.00008390
v -0.21812537 1.41995406 0.13213155
v -0.08123260 1.44040585 0.13253447
v 0.08053216 1.09759951 0.78899950
v -0.00051475 1.17729461 0.71230972
v 0.15553689 1.30198717 0.51759642
v 0.08067251 1.24746132 0.61890793
v 0.23658542 1.22701991 0.60706377
v -0.08080517 1.24761271 0.61919510
v -0.15588111 1.30357492 0.51750696
v 0.40172496 1.37148118 0.00100048
v 0.35665286 1.37981439 0.13192636
v 0.48254380 1.32492399 0.13121833
v 0.08222454 1.43932402 0.13270783
v 0.21928565 1.42014897 0.13301075
v 0.13720179 1.44335258 0.00048887
v 0.37455651 1.30588961 0.38320774
v 0.30002156 1.37351573 0.26351744
v 0.23777175 1.34951222 0.38506600
v -0.08185081 1.37070274 0.39816165
v 0.08161189 1.37000263 0.39753449
v -0.00006256 1.41798925 0.26488885
v -0.35576373 1.38104105 -0.13092792
v -0.48210615 1.32658708 -0.13077393
v -0.08118828 1.44069636 -0.13194306
v -0.21833292 1.42116177 -0.13206160
v -0.37401444 1.30707502 -0.38254493
v -0.29940289 1.37404490 -0.26246062
v -0.23727848 1.35074925 -0.38420248
v 0.48306999 1.32602644 -0.12972286
v 0.35668901 1.38135278 -0.13013478
v 0.23788315 1.35089386 -0.38384870
v 0.29981080 1.37421894 -0.26193544
v 0.37424594 1.30737400 -0.38187128
v 0.21875772 1.42076778 -0.13140270
v 0.08175260 1.44071484 -0.13199821
v -0.08169384 1.09722948 -0.78914917
v 0.00065736 1.17636347 -0.71287346
v 0.08194371 1.09606779 -0.78908950
v -0.15538353 1.30332148 -0.51750261
v -0.08019208 1.24773300 -0.61954641
v -0.23665754 1.22784054 -0.60639971
v 0.23768142 1.22784054 -0.60659724
v 0.08187470 1.24776626 -0.61983794
v 0.15625969 1.30292046 -0.51718706
v 0.00011446 1.41809893 -0.26428941
v 0.08232918 1.37059581 -0.39673832
v -0.08130665 1.37085855 -0.39708903
v -0.57021368 1.25998330 -0.21313563
v -0.61505926 1.25195527 -0.08130503
v -0.45408115 1.22779119 -0.46864733
v -0.51588649 1.25208008 -0.34600502
v -0.76498997 1.08966875 -0.23955035
v -0.64965034 1.17716050 -0.29715535
v -0.71378893 1.08502173 -0.37503242
v -0.13399784 0.97791070 -0.87720096
v -0.21516117 1.05642247 -0.80019534
v -0.47674689 0.94845742 -0.77010751
v -0.35097435 1.00578654 -0.79315358
v -0.39343485 0.87653512 -0.86134714
v -0.29758030 1.12637568 -0.70679522
v -0.37254360 1.18145800 -0.60336864
v -0.90063822 0.65134549 -0.50461739
v -0.82017845 0.72735041 -0.59090668
v -0.81888026 0.60443455 -0.64279354
v -0.76980782 0.96275771 -0.46195734
v -0.80229193 0.85048711 -0.52843124
v -0.86285257 0.88480860 -0.38402715
v -0.62747139 0.74872965 -0.78263432
v -0.72290301 0.80356550 -0.66507900
v -0.61594486 0.87261540 -0.72290391
v -0.51628995 1.12560511 -0.56762356
v -0.57237017 1.00290811 -0.65564132
v -0.65304577 1.05032361 -0.51858848
v -0.70455027 1.18555069 -0.00018133
v -0.85143572 1.00987601 -0.15954682
v -0.78566331 1.10172713 -0.08223558
v -0.78516370 1.10143042 0.08103235
v -0.85022920 1.00893319 0.15814988
v -0.96204323 0.53003383 -0.42428407
v -0.96214569 0.65129906 -0.37297013
v -1.02700686 0.65204543 -0.08622870
v -1.00503933 0.65227538 -0.22969641
v -1.04071403 0.52912247 -0.14548512
v -0.94472635 0.77409685 -0.31132084
v -0.91125637 0.88694739 -0.24470070
v -0.96088958 0.65179485 0.37105387
v -0.96214980 0.53143972 0.42374951
v -0.90992171 0.88645780 0.24306819
v -0.94317627 0.77466023 0.30896556
v -1.04092336 0.52911431 0.14340721
v -1.00418758 0.65231401 0.22770552
v -1.02763903 0.65201664 0.08390692
v -0.93312037 0.90000975 -0.08500257
v -0.99438345 0.77616715 -0.00049260
v -0.93276095 0.89957291 0.08289083
v 0.57029217 1.25859344 0.21334970
v 0.61427593 1.24942350 0.08119535
v 0.45429617 1.22600377 0.46928072
v 0.51596540 1.24989009 0.34648117
v 0.76462024 1.08800209 0.23903529
v 0.64947236 1.17565072 0.29751712
v 0.71397352 1.08356357 0.37534651
v 0.13234405 0.97816885 0.87971765
v 0.21410884 1.05598819 0.80089343
v 0.47627264 0.95115155 0.77265930
v 0.34942332 1.00593805 0.79415816
v 0.39181912 0.87718064 0.86384881
v 0.29602712 1.12451649 0.70684141
v 0.37220475 1.17963755 0.60320663
v 0.89852720 0.65174276 0.50401062
v 0.81967783 0.72869682 0.58963054
v 0.81749624 0.60687417 0.64154911
v 0.77101910 0.96247101 0.46159405
v 0.80310720 0.85093820 0.52835029
v 0.86326343 0.88474375 0.38301402
v 0.62744075 0.75180221 0.78411335
v 0.72251225 0.80553484 0.66573226
v 0.61599916 0.87553120 0.72425622
v 0.51694888 1.12360132 0.56855756
v 0.57179433 1.00424087 0.65551615
v 0.65365356 1.04969585 0.51900017
v -0.13519399 0.86195350 0.94715387
v -0.00040042 0.90417910 0.93452364
v -0.39785382 0.75181144 0.91977942
v -0.27155817 0.80954599 0.94168919
v -0.00021777 0.65724236 1.03047597
v -0.13756858 0.73383039 0.99929315
v -0.13928403 0.60517859 1.03240025
v -0.82934475 0.45828843 0.65194482
v -0.74563652 0.53350300 0.73758876
v -0.54981750 0.38945559 0.89635301
v -0.65408385 0.45908323 0.82417738
v -0.64949602 0.31728879 0.81593293
v -0.64380753 0.60696918 0.81289130
v -0.53650934 0.67628813 0.87199622
v 0.00369197 0.15924785 1.00242341
v -0.14034817 0.20118240 1.00715268
v -0.14276122 0.09199949 0.95578790
v -0.13918126 0.45457745 1.04524815
v -0.13871996 0.32634914 1.03543270
v -0.00007319 0.40128505 1.05392504
v -0.41887265 0.18920906 0.92071790
v -0.28215286 0.25373611 0.99278378
v -0.41125059 0.31005928 0.95879620
v -0.41487598 0.60558778 0.95245415
v -0.42073977 0.45419431 0.96767086
v -0.27869070 0.53015292 1.01282954
v -0.98502159 0.41163260 0.38231054
v -0.91922325 0.41228142 0.51568460
v -1.04961836 0.40599230 0.08667742
v -1.02704000 0.40723336 0.23234652
v -0.92274898 0.18817899 0.41306663
v -0.98682386 0.29146793 0.32561672
v -0.97450972 0.18227044 0.26341698
v -0.91932082 0.40802866 -0.51563257
v -0.98242795 0.40771654 -0.38281891
v -0.97189170 0.17495166 -0.25996947
v -0.98439199 0.28636247 -0.32497787
v -0.92123157 0.17890716 -0.41044775
v -1.02810156 0.40618628 -0.23688561
v -1.05193460 0.40477407 -0.09021632
v -0.72489417 0.00000000 0.08373946
v -0.81537980 0.00000000 -0.00071726
v -0.71926695 0.00000000 -0.10228005
v -0.93956745 0.08280010 0.17843333
v -0.88506711 0.01040210 0.10176004
v -0.86042249 0.01685051 0.26999173
v -0.86399734 0.01232898 -0.26897073
v -0.88240606 0.00610054 -0.08681777
v -0.93850768 0.06515873 -0.16970475
v -1.03903377 0.28640950 -0.00109982
v -1.00272644 0.16929321 -0.08998616
v -1.00585318 0.17144209 0.09001669
v -0.74725479 0.52899164 -0.73772311
v -0.82855642 0.45378536 -0.65076911
v -0.54027158 0.67387921 -0.87150335
v -0.64837283 0.60375983 -0.81358641
v -0.65017813 0.31266540 -0.81233233
v -0.65605384 0.45394894 -0.82534796
v -0.55267823 0.38595122 -0.89593130
v -0.00068575 0.90361214 -0.93307590
v -0.13578641 0.86256993 -0.94569576
v -0.14025575 0.60821915 -1.03250623
v -0.13878711 0.73553908 -0.99822223
v -0.00158898 0.66067439 -1.03057778
v -0.27274835 0.80908072 -0.94063872
v -0.39925569 0.75082958 -0.91849399
v -0.14443539 0.09606989 -0.95965147
v -0.14283670 0.20461607 -1.00393116
v 0.00105922 0.16619518 -1.00177872
v -0.41258308 0.31024995 -0.95611805
v -0.28283313 0.25559026 -0.98911929
v -0.41690651 0.19042444 -0.92288542
v -0.00127290 0.40588036 -1.05549538
v -0.14234291 0.32832471 -1.03353262
v -0.14237879 0.45667499 -1.04460704
v -0.41805595 0.60671365 -0.95370996
v -0.28144288 0.53100735 -1.01353073
v -0.42257044 0.45312938 -0.96580034
v 0.21560165 1.05571461 -0.80002397
v 0.13301072 0.97685242 -0.87832665
v 0.37350076 1.18067122 -0.60252374
v 0.29829198 1.12565112 -0.70592654
v 0.39170367 0.87592536 -0.86267233
v 0.35110366 1.00515819 -0.79312938
v 0.47671360 0.94802880 -0.77028459
v 0.61505592 1.25043869 -0.08009510
v 0.57080495 1.25931537 -0.21180218
v 0.71363175 1.08293498 -0.37337139
v 0.64986295 1.17508805 -0.29580119
v 0.76456016 1.08689332 -0.23808968
v 0.51626939 1.25071228 -0.34465802
v 0.45465961 1.22738433 -0.46827045
v 0.81816435 0.60622489 -0.64402568
v 0.81990808 0.72877175 -0.59255290
v 0.90032166 0.65292323 -0.50656766
v 0.61475605 0.87317973 -0.72352874
v 0.72131920 0.80301934 -0.66629988
v 0.62524587 0.74990261 -0.78416878
v 0.86251163 0.88381785 -0.38461348
v 0.80230802 0.85067457 -0.52985817
v 0.76993960 0.96254909 -0.46172056
v 0.51714998 1.12371409 -0.56659454
v 0.65382922 1.04917431 -0.51797080
v 0.57226247 1.00273204 -0.65498048
v 0.69998527 0.00000000 0.09674899
v 0.65601277 0.00000000 0.25703582
v 0.56053531 0.00376858 0.14382268
v 0.80773067 0.02560236 0.41221562
v 0.74088007 0.00000000 0.34542382
v 0.86262727 0.01737060 0.26041856
v 0.43244529 0.00000000 0.44124383
v 0.59380341 0.00000000 0.41008517
v 0.52320665 0.00000000 0.54705012
v 0.83004498 0.45728892 0.65378183
v 0.85054785 0.33429822 0.61294019
v 0.91972995 0.41082081 0.51696068
v 0.65593082 0.19221430 0.77064371
v 0.75696057 0.26156521 0.69874847
v 0.65098315 0.31376174 0.81439680
v 0.91832221 0.18225256 0.40688232
v 0.84921682 0.21500711 0.56070191
v 0.83589220 0.10923789 0.50036317
v 0.09309494 0.00031605 0.88226891
v 0.24132858 0.02462249 0.88902116
v 0.14944568 0.09167892 0.95407760
v 0.42430404 0.00000000 0.69006395
v 0.33349442 0.00000000 0.79998732
v 0.27129614 0.00000000 0.70224237
v 0.41984060 0.19122189 0.92223883
v 0.38863316 0.07128663 0.87503952
v 0.51999545 0.12029472 0.83707792
v 0.73319358 0.04165771 0.57402444
v 0.62761182 0.07335576 0.71729070
v 0.58796066 0.00000000 0.64528346
v 0.41461995 0.00000000 0.15599126
v 0.44108969 0.00281168 0.02014751
v 0.27171108 0.00000000 0.44553509
v 0.33539617 0.00000000 0.29930404
v 0.15568413 0.00000000 0.00681951
v 0.23647825 0.00000000 0.15485498
v 0.08717208 0.00000000 0.14668138
v -0.09245993 0.01020298 0.88975072
v -0.00135600 0.00000000 0.82197642
v -0.19239299 0.00000000 0.61008018
v -0.10219255 0.00000000 0.72623664
v -0.28179374 0.00000000 0.71022755
v 0.08501710 0.00000000 0.72314340
v 0.18070285 0.00000000 0.61079258
v -0.47005659 0.00000000 -0.00704397
v -0.42257935 0.00000000 0.14595813
v -0.57696658 0.00000000 0.14054076
v -0.10009019 0.00000000 0.14715095
v -0.25599241 0.00176720 0.13771637
v -0.15832479 0.00000000 0.00405477
v -0.45049340 0.00000000 0.44592974
v -0.35320458 0.00000000 0.30218741
v -0.28693506 0.00000000 0.44708452
v 0.08952928 0.00039709 0.45956394
v -0.10078911 0.00011233 0.45789725
v -0.00867012 0.00000000 0.29885396
v 0.39359644 0.00000000 -0.13310456
v 0.52865577 0.00000000 -0.13963221
v 0.09801433 0.00000000 -0.14296772
v 0.24539141 0.00000000 -0.14627561
v 0.43339881 0.00000000 -0.41698697
v 0.33580813 0.00000000 -0.28367606
v 0.27995393 0.00000000 -0.42500111
v -0.55839181 0.00000000 -0.16398111
v -0.41012925 0.00000000 -0.15746845
v -0.27198786 0.00000000 -0.43952107
v -0.34177947 0.00000000 -0.29989862
v -0.42172992 0.00000000 -0.43870071
v -0.24952962 0.00000000 -0.14657442
v -0.09234349 0.00000000 -0.14921282
v 0.09181476 0.00019548 -0.89314878
v 0.00273786 0.00000000 -0.81776261
v -0.09018210 0.00040464 -0.89175409
v 0.18308122 0.00000000 -0.58822453
v 0.09507390 0.00000000 -0.71494520
v 0.27959254 0.00000000 -0.69502550
v -0.28352362 0.00000000 -0.70549029
v -0.09836551 0.00000000 -0.72321254
v -0.17742601 0.00000000 -0.59958005
v 0.00330138 0.00000000 -0.29357654
v -0.09350153 0.00000000 -0.44921994
v 0.08964595 0.00000000 -0.45166805
v 0.64695001 0.00000000 -0.23764448
v 0.69997913 0.00005036 -0.08323833
v 0.52250195 0.00000000 -0.53117335
v 0.58869839 0.00000000 -0.38769451
v 0.85253817 0.01555486 -0.26345804
v 0.73998249 0.00000000 -0.33706179
v 0.80058688 0.02501500 -0.41700473
v 0.14632805 0.09936358 -0.96054810
v 0.23988989 0.03455201 -0.89631945
v 0.51855308 0.11966784 -0.83780974
v 0.38751686 0.07294761 -0.87349433
v 0.41775101 0.18890780 -0.92177361
v 0.33553138 0.00000000 -0.80368525
v 0.42891124 0.00000000 -0.69114345
v 0.92064619 0.40892333 -0.51516199
v 0.85224497 0.33210823 -0.61376745
v 0.83127767 0.45498100 -0.65149701
v 0.83662182 0.10821857 -0.50073123
v 0.85262197 0.21281287 -0.55961472
v 0.92351687 0.17839783 -0.40837479
v 0.65475881 0.31408420 -0.81901014
v 0.76045549 0.25913945 -0.69956917
v 0.65672308 0.19403650 -0.77258784
v 0.58863801 0.00000000 -0.63324332
v 0.62689888 0.06917668 -0.72017437
v 0.72862649 0.03780765 -0.57468617
v 0.80356300 0.00000000 0.00105547
v 0.93332821 0.06835720 -0.17002054
v 0.87899143 0.00040761 -0.08894258
v 0.88291347 0.00133936 0.09232154
v 0.93592817 0.07146388 0.17213529
v 0.96282989 0.53180528 -0.42669109
v 0.98404759 0.41084352 -0.38169301
v 1.05304611 0.40921986 -0.08861926
v 1.02845860 0.41066623 -0.23456220
v 1.04366815 0.53242671 -0.14591622
v 0.98851413 0.29000744 -0.32469064
v 0.97448647 0.17869483 -0.25866744
v 0.98410839 0.41061130 0.38329780
v 0.96190161 0.53122163 0.42378902
v 0.97261906 0.18479794 0.26012576
v 0.98680896 0.29198873 0.32614884
v 1.04025054 0.53047150 0.14488159
v 1.02757621 0.40943033 0.23536994
v 1.04911804 0.41006875 0.08776426
v 0.99876612 0.17087440 -0.08905844
v 1.04247415 0.28924635 0.00153588
v 0.99777818 0.17306887 0.08878388
v 0.14581126 0.20205249 1.00556874
v 0.41578668 0.31362507 0.95763999
v 0.28726956 0.25597841 0.99249005
v 0.14335433 0.32915574 1.03473294
v 0.14104128 0.45450404 1.04469848
v 0.74660540 0.53431815 0.73829627
v 0.54130173 0.67784995 0.87550867
v 0.64881724 0.60908943 0.81494111
v 0.65722597 0.45926985 0.82579768
v 0.55393225 0.38975102 0.89435673
v 0.13392676 0.86045706 0.94692159
v 0.14016540 0.60601813 1.03323662
v 0.13657920 0.73369277 0.99951404
v 0.27065620 0.80969143 0.94332540
v 0.39810148 0.75225675 0.92015761
v 0.42357042 0.45559409 0.96485305
v 0.41883481 0.60767716 0.95541507
v 0.28096199 0.53107691 1.01379788
v -0.67694104 0.00000000 0.24117513
v -0.53115118 0.00000000 0.54577386
v -0.61199594 0.00000000 0.40129414
v -0.75175679 0.00000000 0.35032994
v -0.79829448 0.01323571 0.42301896
v -0.24090205 0.03225011 0.88944441
v -0.51709569 0.12430264 0.83329850
v -0.38711408 0.07314082 0.87384522
v -0.33533111 0.00000000 0.79628438
v -0.43307400 0.00000000 0.70186841
v -0.84941697 0.33894131 0.61328703
v -0.83491158 0.11689827 0.50622529
v -0.85095710 0.22241810 0.56326467
v -0.75950712 0.26553231 0.70387310
v -0.65540296 0.19721870 0.77449811
v -0.58397418 0.00000000 0.64937240
v -0.62870467 0.07837308 0.72011703
v -0.72935021 0.04112176 0.58191043
v -0.23457858 0.03755477 -0.90239644
v -0.43922853 0.00000000 -0.70265710
v -0.33431149 0.00000000 -0.80230546
v -0.38233113 0.07346503 -0.87675583
v -0.51367146 0.12322910 -0.83793122
v -0.65910500 0.00000000 -0.25248665
v -0.80362695 0.02340020 -0.42090780
v -0.75284028 0.00000000 -0.34330341
v -0.59496379 0.00000000 -0.40785125
v -0.51976496 0.00000000 -0.54400378
v -0.84807432 0.33343273 -0.61187124
v -0.65491772 0.19333066 -0.76870066
v -0.75859720 0.25739023 -0.69871056
v -0.85234195 0.21402362 -0.56251454
v -0.84014547 0.11184470 -0.50267637
v -0.59463573 0.00000000 -0.64847344
v -0.72722173 0.04079103 -0.58001530
v -0.62296778 0.07778101 -0.72148234
v 0.74823654 0.53137314 -0.73798716
v 0.55544555 0.38923085 -0.89671612
v 0.65704513 0.45730984 -0.82467514
v 0.64790511 0.60504609 -0.81478441
v 0.53931612 0.67504382 -0.87230551
v 0.14387061 0.20618375 -1.00826311
v 0.13939615 0.45870560 -1.04675615
v 0.14123954 0.33077949 -1.03616536
v 0.28630948 0.25861108 -0.99553651
v 0.41581777 0.31454292 -0.95968318
v 0.13416176 0.86109024 -0.94564396
v 0.39745900 0.74986780 -0.91935599
v 0.27057713 0.80784672 -0.94036490
v 0.13579674 0.73492950 -0.99848413
v 0.13730860 0.60771585 -1.03227174
v 0.42415783 0.45618454 -0.96566808
v 0.28020719 0.53315520 -1.01312160
v 0.41713238 0.60667872 -0.95274544
v 0.96195364 0.65311617 0.37399682
v 1.02923656 0.65167636 0.08658549
v 1.00803256 0.65506405 0.23017278
v 0.94482464 0.77553129 0.31043568
v 0.91185158 0.88688701 0.24309963
v 0.96185493 0.65316093 -0.37438694
v 0.91047478 0.88599211 -0.24502577
v 0.94561368 0.77443498 -0.31174514
v 1.00526106 0.65302449 -0.23027708
v 1.02914596 0.65465540 -0.08560701
v 0.70458257 1.18337822 0.00031286
v 0.85179204 1.00828254 0.15831749
v 0.78611296 1.10056829 0.08234941
v 0.78535360 1.09929001 -0.08111136
v 0.85124731 1.00684154 -0.15778218
v 0.99321139 0.77478999 0.00034456
v 0.93184930 0.89698303 -0.08458998
v 0.93304807 0.89814585 0.08345702
f 330 87 329
f 336 325 26
f 207 208 56
f 464 36 580
f 502 129 504
f 157 624 622
f 308 311 82
f 247 223 248
f 507 483 508
f 331 88 329
f 494 500 497
f 156 601 602
f 591 589 592
f 365 98 596
f 75 281 282
f 152 587 577
f 149 559 560
f 555 121 553
f 530 141 529
f 515 517 139
f 361 594 98
f 250 67 249
f 157 608 609
f 294 293 209
f 317 81 316
f 557 338 26
f 303 305 81
f 530 529 528
f 101 381 382
f 415 418 111
f 192 184 50
f 412 110 411
f 20 384 256
f 131 594 486
f 281 264 282
f 347 287 348
f 28 349 582
f 165 163 1
f 248 250 66
f 617 107 398
f 273 271 274
f 456 115 453
f 558 561 560
f 335 576 91
f 331 177 332
f 116 433 436
f 351 370 92
f 136 511 530
f 239 240 65
f 247 258 19
f 304 23 567
f 148 557 570
f 214 208 58
f 440 426 450
f 268 270 269
f 258 247 268
f 204 202 16
f 466 125 465
f 517 513 133
f 168 275 274
f 275 73 274
f 198 193 53
f 309 308 307
f 510 511 136
f 415 416 110
f 131 490 597
f 473 475 474
f 414 415 111
f 493 495 494
f 496 504 485
f 433 116 432
f 600 375 601
f 240 234 65
f 418 415 412
f 486 361 3
f 567 566 304
f 380 393 29
f 17 199 197
f 491 492 132
f 451 449 435
f 218 217 216
f 623 621 613
f 396 104 395
f 433 439 436
f 628 160 627
f 215 202 217
f 209 207 2
f 427 113 424
f 434 10 544
f 434 433 432
f 199 17 210
f 150 564 565
f 489 491 132
f 275 13 285
f 497 500 134
f 125 466 476
f 578 152 577
f 208 214 211
f 328 88 343
f 356 27 603
f 150 566 567
f 372 100 371
f 190 191 47
f 235 8 398
f 260 261 72
f 422 403 414
f 422 414 111
f 453 454 123
f 349 583 582
f 521 520 519
f 425 453 115
f 616 622 158
f 483 130 508
f 151 586 572
f 212 17 232
f 400 397 402
f 377 396 99
f 41 522 511
f 510 508 505
f 549 547 42
f 475 473 36
f 510 137 509
f 222 221 197
f 430 115 429
f 220 194 1
f 305 54 204
f 621 29 613
f 192 171 184
f 460 335 5
f 88 331 332
f 74 277 279
f 300 301 80
f 390 389 388
f 165 45 164
f 146 549 551
f 291 278 75
f 448 120 445
f 147 543 544
f 607 610 609
f 603 602 356
f 139 529 514
f 333 553 443
f 92 368 347
f 261 260 259
f 300 6 200
f 46 177 331
f 284 283 174
f 301 300 200
f 471 468 474
f 54 305 301
f 302 304 303
f 569 150 567
f 150 569 570
f 294 209 2
f 628 629 160
f 548 543 147
f 147 625 627
f 63 233 234
f 426 427 114
f 41 509 532
f 198 52 196
f 614 105 612
f 147 627 547
f 81 305 306
f 549 548 547
f 54 301 200
f 342 88 332
f 264 281 70
f 193 194 53
f 455 429 456
f 187 321 14
f 479 130 484
f 147 544 625
f 458 456 453
f 304 80 303
f 314 84 313
f 488 503 501
f 321 332 14
f 423 425 424
f 305 204 306
f 341 339 25
f 514 40 516
f 625 628 627
f 340 339 341
f 105 614 391
f 243 228 62
f 318 316 78
f 75 278 279
f 357 355 353
f 238 257 63
f 466 455 476
f 425 423 4
f 448 449 120
f 408 638 108
f 292 275 285
f 22 278 289
f 515 513 517
f 501 503 134
f 622 623 158
f 134 503 504
f 195 216 206
f 163 271 246
f 619 617 620
f 62 228 229
f 163 165 164
f 453 425 454
f 489 132 488
f 82 628 625
f 58 208 209
f 525 608 40
f 626 547 627
f 518 517 498
f 489 487 491
f 557 26 564
f 325 336 344
f 541 145 539
f 40 616 516
f 338 556 89
f 250 248 245
f 139 514 515
f 98 594 596
f 246 220 1
f 112 413 630
f 9 536 413
f 156 600 601
f 332 177 14
f 321 342 332
f 156 606 600
f 584 330 585
f 302 303 81
f 584 87 330
f 330 25 585
f 400 239 65
f 439 440 117
f 95 358 368
f 597 594 131
f 594 361 486
f 246 67 245
f 561 562 149
f 28 364 362
f 55 216 217
f 427 430 114
f 267 20 254
f 556 555 553
f 84 309 558
f 311 310 312
f 609 525 142
f 256 68 255
f 124 460 461
f 82 311 312
f 307 308 82
f 589 135 495
f 527 40 514
f 112 418 412
f 20 256 254
f 258 238 19
f 267 254 269
f 273 272 249
f 392 391 393
f 137 533 509
f 122 455 456
f 9 413 411
f 130 480 505
f 333 443 5
f 527 525 40
f 589 495 385
f 39 496 485
f 223 225 224
f 414 416 415
f 219 222 53
f 145 538 539
f 413 412 411
f 469 468 467
f 183 181 6
f 191 192 50
f 429 35 431
f 292 285 76
f 413 112 412
f 415 110 412
f 43 164 167
f 467 468 126
f 617 101 620
f 450 451 117
f 438 546 545
f 619 620 159
f 17 212 210
f 124 579 576
f 584 153 583
f 460 124 576
f 3 469 467
f 311 308 314
f 6 320 183
f 389 104 388
f 251 250 249
f 194 165 1
f 291 289 278
f 287 77 348
f 238 258 257
f 139 517 518
f 238 236 19
f 223 247 19
f 382 380 29
f 39 518 498
f 361 359 3
f 69 255 257
f 139 518 528
f 33 545 535
f 387 385 7
f 69 268 269
f 477 462 125
f 454 479 123
f 121 555 447
f 451 435 117
f 454 425 4
f 233 252 8
f 124 463 464
f 69 258 268
f 168 167 166
f 583 153 582
f 384 394 102
f 138 512 513
f 57 210 211
f 254 256 255
f 607 609 142
f 324 319 86
f 289 291 76
f 291 292 76
f 384 102 383
f 422 421 420
f 221 17 197
f 383 102 381
f 376 377 99
f 99 373 374
f 386 105 392
f 438 33 440
f 90 341 343
f 281 75 279
f 574 571 96
f 628 82 312
f 221 222 59
f 127 471 474
f 595 605 603
f 551 538 145
f 334 91 340
f 322 324 85
f 305 303 301
f 18 239 399
f 306 204 16
f 199 198 197
f 166 190 180
f 303 80 301
f 267 266 265
f 626 42 547
f 16 215 213
f 349 351 350
f 295 16 213
f 68 379 252
f 250 251 66
f 627 160 626
f 383 68 256
f 343 88 342
f 507 508 136
f 202 215 16
f 197 198 53
f 254 69 269
f 603 605 156
f 418 419 111
f 384 383 256
f 455 122 476
f 203 204 54
f 556 557 148
f 255 68 253
f 313 84 560
f 25 328 341
f 254 255 69
f 603 156 602
f 581 584 583
f 630 632 112
f 163 246 1
f 246 245 220
f 432 116 558
f 499 591 590
f 320 563 86
f 345 93 350
f 306 16 295
f 346 93 345
f 562 568 149
f 604 605 155
f 154 592 593
f 545 552 535
f 511 522 530
f 574 573 571
f 566 150 565
f 361 98 360
f 67 271 273
f 234 235 65
f 208 211 56
f 574 151 573
f 251 270 66
f 398 8 378
f 213 215 214
f 438 440 439
f 315 314 313
f 263 71 262
f 20 373 384
f 496 134 504
f 329 88 328
f 81 306 316
f 555 556 148
f 592 589 103
f 617 619 107
f 227 207 56
f 571 359 96
f 446 466 465
f 206 216 55
f 359 571 469
f 568 148 570
f 34 437 435
f 28 351 349
f 21 272 282
f 113 423 424
f 490 489 488
f 379 68 383
f 210 212 211
f 80 563 300
f 351 92 350
f 326 346 12
f 83 317 318
f 555 148 554
f 212 231 56
f 218 57 217
f 271 67 246
f 195 196 52
f 270 268 66
f 390 592 103
f 148 568 554
f 495 493 7
f 592 390 593
f 357 95 355
f 574 575 151
f 452 120 451
f 154 591 592
f 587 585 577
f 395 394 396
f 93 349 350
f 610 416 611
f 166 44 190
f 315 23 302
f 315 302 317
f 268 247 66
f 606 154 593
f 396 394 99
f 211 212 56
f 370 369 368
f 235 397 65
f 280 278 22
f 83 315 317
f 575 588 151
f 74 279 280
f 385 495 7
f 63 257 253
f 397 235 398
f 214 58 213
f 220 219 194
f 546 146 545
f 236 225 19
f 599 94 602
f 235 233 8
f 102 394 395
f 611 416 32
f 225 223 19
f 139 528 529
f 231 62 229
f 419 406 421
f 451 450 452
f 49 182 185
f 402 397 107
f 52 199 218
f 416 610 110
f 225 236 244
f 107 397 398
f 68 252 253
f 322 85 321
f 182 181 183
f 118 438 439
f 546 438 118
f 348 77 345
f 543 546 118
f 231 212 232
f 610 611 157
f 33 438 545
f 385 386 103
f 479 480 130
f 169 195 15
f 93 583 349
f 15 195 206
f 190 44 192
f 247 248 66
f 146 552 545
f 248 60 245
f 570 557 564
f 274 271 43
f 63 253 233
f 272 21 249
f 507 528 518
f 67 273 249
f 487 467 126
f 196 195 169
f 624 159 623
f 134 496 497
f 132 503 488
f 104 393 395
f 556 553 89
f 355 356 94
f 258 69 257
f 229 61 227
f 56 231 227
f 460 576 335
f 463 124 461
f 394 373 99
f 29 393 391
f 67 250 245
f 193 198 196
f 462 36 464
f 144 633 630
f 141 526 527
f 517 133 498
f 536 144 630
f 100 372 599
f 144 536 537
f 22 289 287
f 578 579 152
f 579 578 576
f 189 188 187
f 60 223 224
f 92 348 350
f 555 554 447
f 396 377 388
f 194 193 165
f 413 536 630
f 372 352 599
f 377 376 375
f 348 345 350
f 105 386 387
f 240 237 234
f 463 462 464
f 135 500 494
f 45 196 169
f 512 612 387
f 245 60 220
f 429 115 456
f 223 60 248
f 288 289 76
f 525 526 142
f 100 599 601
f 613 29 391
f 526 523 520
f 341 328 343
f 631 641 639
f 264 21 282
f 266 72 265
f 106 402 403
f 73 273 274
f 186 206 205
f 381 379 383
f 52 216 195
f 410 18 399
f 290 272 73
f 72 371 374
f 526 525 527
f 115 430 424
f 498 497 496
f 621 382 29
f 543 118 434
f 214 215 57
f 522 141 530
f 511 510 509
f 352 94 599
f 493 512 7
f 90 340 341
f 169 171 170
f 605 604 606
f 219 60 224
f 104 389 392
f 359 469 3
f 186 49 185
f 222 219 224
f 166 167 44
f 428 427 426
f 523 522 524
f 129 502 481
f 50 185 188
f 164 45 170
f 425 115 424
f 33 428 426
f 427 428 113
f 94 356 602
f 515 138 513
f 114 431 452
f 237 236 238
f 215 217 57
f 95 354 355
f 220 60 219
f 515 514 516
f 183 320 319
f 222 197 53
f 559 569 567
f 300 320 6
f 435 436 117
f 96 360 363
f 640 642 641
f 242 243 62
f 140 537 519
f 508 130 505
f 420 410 399
f 537 539 144
f 317 316 318
f 426 114 450
f 186 15 206
f 311 83 310
f 625 544 307
f 544 10 307
f 168 43 167
f 185 182 188
f 369 354 95
f 44 171 192
f 605 606 156
f 548 549 146
f 100 601 375
f 149 568 569
f 381 380 382
f 455 466 35
f 480 479 454
f 543 548 546
f 493 133 513
f 492 472 37
f 477 125 476
f 491 487 126
f 337 336 338
f 588 153 587
f 576 578 91
f 633 161 632
f 96 359 360
f 39 485 483
f 101 617 378
f 193 45 165
f 163 164 43
f 618 624 611
f 507 136 528
f 561 149 560
f 641 162 639
f 116 561 558
f 494 133 493
f 253 252 233
f 63 237 238
f 392 393 104
f 440 450 117
f 93 581 583
f 386 385 387
f 120 449 451
f 421 422 111
f 486 3 467
f 302 81 317
f 633 632 630
f 462 475 36
f 376 99 374
f 489 490 131
f 447 449 448
f 387 612 105
f 106 420 399
f 173 46 172
f 492 491 472
f 316 306 295
f 22 287 347
f 109 410 420
f 507 39 483
f 559 23 313
f 214 57 211
f 196 45 193
f 10 434 432
f 422 106 403
f 626 160 640
f 487 486 467
f 542 41 532
f 400 106 399
f 444 120 452
f 198 199 52
f 475 127 474
f 621 620 382
f 621 623 159
f 450 114 452
f 92 347 348
f 376 100 375
f 434 118 433
f 503 132 502
f 337 90 336
f 537 536 519
f 395 393 380
f 201 54 200
f 171 44 170
f 355 94 353
f 58 296 213
f 422 420 106
f 595 365 596
f 569 568 570
f 523 140 520
f 114 430 431
f 218 210 57
f 304 566 80
f 639 162 638
f 261 371 72
f 548 147 547
f 498 133 497
f 150 570 564
f 222 224 59
f 142 526 520
f 437 436 435
f 141 522 523
f 137 510 505
f 173 179 176
f 559 149 569
f 121 447 448
f 563 320 300
f 102 395 380
f 257 255 253
f 642 162 641
f 83 311 314
f 216 52 218
f 512 493 513
f 23 304 302
f 91 339 340
f 512 138 612
f 159 620 621
f 218 199 210
f 364 28 575
f 83 318 310
f 168 274 43
f 136 530 528
f 140 523 524
f 495 135 494
f 233 235 234
f 566 563 80
f 25 339 577
f 277 74 276
f 475 462 477
f 133 494 497
f 436 437 116
f 389 386 392
f 548 146 546
f 441 460 5
f 10 309 307
f 65 397 400
f 543 434 544
f 640 641 161
f 272 273 73
f 581 93 346
f 419 421 111
f 319 320 86
f 180 179 178
f 127 475 477
f 231 229 227
f 337 334 340
f 136 508 510
f 308 309 84
f 237 63 234
f 447 554 34
f 252 379 378
f 315 83 314
f 608 622 616
f 338 336 26
f 337 338 89
f 13 275 168
f 209 208 207
f 436 439 117
f 628 312 629
f 360 366 363
f 364 574 96
f 359 361 360
f 466 446 35
f 500 501 134
f 406 109 421
f 135 589 591
f 601 599 602
f 340 90 337
f 481 492 37
f 522 41 524
f 78 316 295
f 131 486 487
f 403 32 414
f 634 626 640
f 151 572 573
f 515 516 138
f 8 252 378
f 265 72 374
f 9 521 519
f 538 549 42
f 368 358 347
f 588 587 586
f 458 453 123
f 589 385 103
f 502 492 481
f 32 416 414
f 430 427 424
f 153 585 587
f 540 144 539
f 370 368 92
f 209 293 58
f 428 33 535
f 326 581 346
f 625 307 82
f 575 28 582
f 6 181 200
f 421 109 420
f 553 121 443
f 160 642 640
f 153 584 585
f 309 432 558
f 334 337 89
f 23 315 313
f 271 163 43
f 296 295 213
f 39 498 496
f 118 439 433
f 531 113 534
f 293 296 58
f 28 362 351
f 489 131 487
f 431 444 452
f 84 558 560
f 98 366 360
f 45 169 170
f 379 101 378
f 462 463 125
f 308 84 314
f 10 432 309
f 299 24 310
f 132 492 502
f 512 387 7
f 639 638 408
f 565 323 86
f 59 244 242
f 106 400 402
f 440 33 426
f 566 565 563
f 617 398 378
f 224 225 59
f 410 109 409
f 239 400 399
f 194 219 53
f 358 22 347
f 610 157 609
f 27 595 603
f 479 484 482
f 142 520 521
f 585 25 577
f 339 578 577
f 408 407 406
f 407 109 406
f 31 408 406
f 407 408 108
f 31 639 408
f 419 31 406
f 608 616 40
f 430 429 431
f 455 35 429
f 35 444 431
f 188 51 187
f 188 182 51
f 51 322 187
f 322 51 319
f 51 182 183
f 319 51 183
f 187 322 321
f 322 319 324
f 381 101 379
f 405 407 108
f 404 405 108
f 286 285 178
f 407 405 409
f 109 407 409
f 191 175 47
f 167 164 170
f 50 184 185
f 44 167 170
f 64 244 236
f 243 244 64
f 50 188 189
f 541 542 145
f 442 445 119
f 339 91 578
f 445 446 119
f 624 623 622
f 611 624 157
f 523 526 141
f 141 527 529
f 527 514 529
f 445 120 444
f 446 445 444
f 35 446 444
f 613 614 158
f 158 614 615
f 623 613 158
f 614 613 391
f 614 612 615
f 371 376 374
f 100 376 371
f 479 482 123
f 373 394 384
f 540 42 634
f 633 540 634
f 538 42 540
f 633 634 161
f 161 634 640
f 42 626 634
f 540 633 144
f 557 556 338
f 553 333 89
f 262 21 264
f 251 21 262
f 5 335 333
f 270 251 262
f 21 251 249
f 600 593 30
f 606 593 600
f 600 30 375
f 593 390 30
f 30 377 375
f 390 388 30
f 30 388 377
f 228 243 241
f 470 478 459
f 470 127 478
f 127 477 478
f 184 186 185
f 478 477 476
f 122 478 476
f 357 74 280
f 518 39 507
f 344 342 85
f 325 344 85
f 342 344 343
f 85 342 321
f 344 90 343
f 90 344 336
f 482 129 481
f 482 481 457
f 482 457 123
f 481 37 457
f 449 447 34
f 435 449 34
f 470 472 471
f 472 470 37
f 470 471 127
f 472 126 471
f 126 468 471
f 470 459 37
f 491 126 472
f 504 129 485
f 221 59 242
f 125 463 465
f 437 34 562
f 561 437 562
f 554 568 562
f 34 554 562
f 437 561 116
f 390 103 389
f 103 386 389
f 392 105 391
f 572 586 580
f 572 580 36
f 586 152 580
f 473 572 36
f 244 243 242
f 225 244 59
f 64 240 241
f 240 239 241
f 237 240 64
f 243 64 241
f 236 237 64
f 411 607 521
f 9 411 521
f 110 607 411
f 607 142 521
f 610 607 110
f 171 15 184
f 171 169 15
f 15 186 184
f 87 584 581
f 153 588 582
f 588 575 582
f 381 102 380
f 573 572 473
f 468 469 128
f 474 468 128
f 469 571 128
f 571 573 128
f 573 473 128
f 473 474 128
f 564 323 565
f 26 323 564
f 323 324 86
f 325 323 26
f 325 324 323
f 563 565 86
f 324 325 85
f 410 230 18
f 230 228 18
f 18 228 241
f 18 241 239
f 401 619 618
f 401 402 107
f 403 402 401
f 619 159 618
f 401 618 32
f 619 401 107
f 403 401 32
f 618 611 32
f 159 624 618
f 478 122 459
f 122 458 459
f 37 459 457
f 459 458 457
f 122 456 458
f 457 458 123
f 191 190 192
f 485 129 484
f 129 482 484
f 483 485 484
f 130 483 484
f 189 187 14
f 191 50 189
f 191 189 175
f 189 14 175
f 14 177 175
f 499 501 500
f 501 499 38
f 38 499 590
f 135 499 500
f 488 501 38
f 499 135 591
f 480 454 4
f 284 12 346
f 4 423 506
f 480 4 506
f 423 531 506
f 480 506 505
f 531 137 506
f 506 137 505
f 365 366 98
f 71 270 262
f 270 71 269
f 71 267 269
f 335 334 333
f 333 334 89
f 334 335 91
f 536 9 519
f 465 463 461
f 537 140 541
f 520 140 519
f 119 446 465
f 465 461 119
f 461 441 119
f 460 441 461
f 176 46 173
f 299 297 24
f 71 263 266
f 263 260 266
f 260 72 266
f 263 70 260
f 205 201 49
f 201 181 49
f 186 205 49
f 181 201 200
f 181 182 49
f 284 77 283
f 586 587 152
f 588 586 151
f 20 267 265
f 266 267 71
f 31 417 631
f 631 417 632
f 31 631 639
f 417 31 419
f 641 631 161
f 417 112 632
f 161 631 632
f 418 417 419
f 417 418 112
f 284 345 77
f 542 550 145
f 542 541 524
f 284 174 12
f 48 174 283
f 373 20 265
f 373 265 374
f 609 608 525
f 608 157 622
f 560 559 313
f 636 637 162
f 541 140 524
f 41 542 524
f 358 357 280
f 70 263 264
f 263 262 264
f 176 177 46
f 174 48 173
f 174 173 172
f 538 551 549
f 538 540 539
f 537 541 539
f 232 221 242
f 17 221 232
f 232 242 62
f 231 232 62
f 203 205 55
f 203 55 202
f 201 205 203
f 202 55 217
f 205 206 55
f 204 203 202
f 73 275 292
f 292 290 73
f 272 290 282
f 290 292 291
f 75 290 291
f 290 75 282
f 70 277 259
f 277 70 281
f 277 281 279
f 260 70 259
f 12 174 172
f 104 396 388
f 367 27 354
f 365 27 367
f 354 27 356
f 365 367 366
f 595 27 365
f 318 299 310
f 155 596 597
f 155 597 598
f 596 594 597
f 595 596 155
f 605 595 155
f 180 47 179
f 180 190 47
f 352 372 11
f 11 372 261
f 312 310 24
f 642 636 162
f 636 297 637
f 367 369 97
f 366 367 97
f 369 367 354
f 369 370 97
f 580 579 464
f 580 152 579
f 579 124 464
f 61 230 409
f 230 410 409
f 230 61 229
f 230 229 228
f 76 285 286
f 353 352 276
f 74 353 276
f 288 76 286
f 288 286 283
f 289 288 287
f 203 54 201
f 287 288 77
f 77 288 283
f 286 48 283
f 531 423 113
f 276 11 259
f 11 261 259
f 277 276 259
f 616 158 615
f 516 616 615
f 138 516 615
f 138 615 612
f 509 533 532
f 503 502 504
f 635 79 294
f 635 294 404
f 635 637 79
f 637 635 638
f 638 635 108
f 635 404 108
f 226 61 405
f 61 226 227
f 405 61 409
f 227 226 207
f 48 178 179
f 48 286 178
f 173 48 179
f 534 143 533
f 534 535 143
f 531 534 533
f 533 143 532
f 137 531 533
f 261 372 371
f 13 180 178
f 285 13 178
f 180 13 166
f 13 168 166
f 346 345 284
f 331 327 46
f 46 327 172
f 172 327 326
f 382 620 101
f 442 121 448
f 443 121 442
f 2 226 404
f 294 2 404
f 404 226 405
f 207 226 2
f 550 551 145
f 552 146 551
f 143 550 532
f 552 550 143
f 330 329 328
f 24 636 629
f 94 352 353
f 352 11 276
f 113 428 534
f 428 535 534
f 509 41 511
f 535 552 143
f 550 552 551
f 550 542 532
f 369 95 368
f 326 327 87
f 87 327 329
f 327 331 329
f 581 326 87
f 293 79 298
f 79 297 298
f 296 298 78
f 79 293 294
f 296 293 298
f 598 490 38
f 358 280 22
f 280 279 278
f 357 358 95
f 74 357 353
f 330 328 25
f 567 23 559
f 590 598 38
f 590 604 598
f 598 604 155
f 604 590 154
f 590 591 154
f 604 154 606
f 297 299 298
f 299 318 78
f 298 299 78
f 355 354 356
f 629 636 642
f 312 24 629
f 629 642 160
f 370 362 97
f 362 363 97
f 363 366 97
f 364 363 362
f 362 370 351
f 96 363 364
f 297 636 24
f 162 637 638
f 637 297 79
f 490 488 38
f 598 597 490
f 441 442 119
f 443 442 441
f 443 441 5
f 442 448 445
f 296 78 295
f 326 12 172
f 575 574 364
f 47 175 176
f 175 177 176
f 47 176 179
