# FEM surface export ¡ª frame 575
# Vertices: 642  Faces: 1280
v -0.51343805 0.86766613 0.00073786
v 0.51621240 0.86980158 0.00265661
v -0.49607024 0.45930240 0.00192217
v 0.52649683 0.41919020 -0.01355146
v -0.00750042 0.19061837 0.90302616
v -0.00393075 0.58783770 0.83240819
v -0.00014054 0.13236308 -0.88960558
v -0.00481870 0.58271164 -0.83876491
v 0.94357997 0.20266987 -0.59801376
v 0.93283826 0.18489841 0.56720984
v -0.94250172 0.17662346 -0.57178128
v -0.93051767 0.19440424 0.58041650
v -0.79198653 0.56246614 0.31013116
v -0.49140555 0.41293302 0.83043796
v -0.30287215 0.82199544 0.48690495
v 0.30428553 0.82940137 0.49049106
v -0.00153829 1.01208806 0.00189013
v 0.30476144 0.82523847 -0.48860860
v -0.30870995 0.82444638 -0.48722631
v -0.51305568 0.41538262 -0.81662995
v -0.80644631 0.55833483 -0.29340208
v -1.08978391 0.17440583 -0.00394276
v 0.51152736 0.42227161 0.82215959
v 0.80879170 0.55744141 0.30021444
v -0.57005662 0.00401730 0.90535980
v 0.00395846 0.18979402 1.10182047
v -0.85362083 0.19361506 -0.32599035
v -0.83880025 0.23299399 0.31974530
v -0.00833732 0.18935554 -1.11173546
v -0.57982540 0.00016579 -0.91208869
v 0.80084759 0.56277519 -0.31302842
v 0.50017828 0.42389679 -0.83200383
v 0.83065784 0.18809581 0.34387857
v 0.56063962 0.00000000 0.92120057
v 0.27716225 0.35465890 0.50037247
v -0.30603194 0.37309709 0.49921238
v 0.03704625 0.16144189 0.04994890
v -0.25373322 0.22728026 -0.52152145
v 0.31757730 0.23957409 -0.51359397
v 0.54286331 0.07900512 -0.85461217
v 0.87681454 0.15591080 -0.32707185
v 1.11254859 0.20530231 -0.01352599
v -0.66553611 0.72824824 0.16134891
v -0.56927216 0.71571696 0.41923925
v -0.42659834 0.87525415 0.25508922
v -0.71746814 0.31215465 0.74172604
v -0.67663908 0.50255585 0.59535116
v -0.87662101 0.38288850 0.45930842
v -0.15906435 0.71802247 0.68113333
v -0.40856400 0.62707442 0.66907167
v -0.25120860 0.50652039 0.86232698
v -0.16538382 0.96792352 0.25968120
v -0.26911283 0.97582531 0.00047562
v 0.15309712 0.72351122 0.68462914
v -0.00069704 0.86862445 0.51493108
v 0.27004540 0.97910172 0.00543765
v 0.15908071 0.96865624 0.26041210
v 0.43014291 0.87867838 0.25680828
v -0.16383776 0.96432889 -0.25604895
v -0.42606312 0.87866956 -0.25324246
v 0.42603546 0.87950498 -0.25345209
v 0.15831032 0.96637005 -0.25641483
v -0.16385871 0.72105563 -0.68492031
v -0.00175047 0.86710382 -0.51445222
v 0.15750033 0.72461540 -0.68460137
v -0.58018094 0.71455950 -0.40461048
v -0.67206734 0.71925676 -0.15210509
v -0.26606494 0.50414133 -0.85440069
v -0.42414439 0.62982607 -0.66740888
v -0.89580971 0.38508210 -0.43345064
v -0.69155502 0.50729090 -0.58056343
v -0.74782175 0.30468428 -0.71981442
v -0.83029163 0.58242381 0.00960340
v -1.05427969 0.17642032 -0.30837122
v -0.98668712 0.37926805 -0.15500160
v -0.96955520 0.37998649 0.17606914
v -1.05024791 0.18529893 0.30141398
v 0.58109039 0.71625763 0.41456854
v 0.68187410 0.72688740 0.15626930
v 0.25616321 0.51295316 0.85616487
v 0.41226709 0.63657147 0.67456645
v 0.88529098 0.37931320 0.43366924
v 0.68602473 0.50887769 0.58060610
v 0.74354786 0.30063409 0.70194578
v -0.26277575 0.30371544 1.00796270
v 0.00759055 0.39894381 0.99006653
v -0.81682986 0.07723422 0.79012960
v -0.56212312 0.19128785 0.93373942
v 0.00195517 0.05055399 1.11749184
v -0.30813602 0.08687565 1.08281553
v -0.28310522 0.14688304 0.92702729
v -1.06996059 0.01490630 0.16129419
v -0.99167144 0.00533760 0.47280285
v -0.97326386 0.03188268 -0.47539535
v -1.08539176 0.01172517 -0.17047803
v -0.68781251 0.38718495 0.15043871
v -0.88697439 0.24412653 0.02606686
v -0.69620103 0.36896652 -0.18225875
v -0.57787073 0.19801867 -0.92929143
v -0.82405317 0.07602262 -0.80557805
v -0.01034813 0.38764340 -0.99110502
v -0.27516142 0.30754358 -1.00586104
v -0.29794666 0.12218978 -0.94836956
v -0.30311832 0.07574449 -1.09987330
v 0.02183650 0.03590251 -1.09988558
v 0.42431796 0.63299608 -0.67329425
v 0.25756240 0.51319510 -0.86401325
v 0.67735767 0.72897083 -0.15480268
v 0.58015120 0.70962083 -0.41015661
v 0.73276842 0.31640723 -0.75187492
v 0.68945718 0.51031762 -0.59754246
v 0.89190495 0.38921154 -0.45370319
v 0.68597776 0.26556629 0.16008081
v 0.60805136 0.23638287 0.43353942
v 0.42207411 0.37293252 0.29558900
v 0.80344993 0.07001483 0.78940642
v 0.73973840 0.09691797 0.67327058
v 0.99036437 0.00140000 0.49866569
v 0.14593966 0.31062803 0.71815389
v 0.38645306 0.21274441 0.73770809
v 0.25122535 0.10588455 0.94256556
v 0.17948258 0.43061435 0.22832985
v 0.27355430 0.20178151 0.01417626
v -0.17274907 0.29836896 0.68936825
v -0.02085247 0.41943052 0.48797318
v -0.26828116 0.26752660 0.05083054
v -0.14876585 0.29341915 0.27816850
v -0.40341246 0.43417600 0.25636804
v 0.14766574 0.16477980 -0.24703223
v 0.46431598 0.27650341 -0.19847974
v -0.39583212 0.33023921 -0.27670565
v -0.19673714 0.13523299 -0.22245987
v 0.16126630 0.30694917 -0.71511883
v -0.02452111 0.14988443 -0.52047116
v -0.15767393 0.27774704 -0.70169604
v 0.61347973 0.31573176 -0.37401319
v 0.68417925 0.30986023 -0.14620784
v 0.29337206 0.12968946 -0.89741200
v 0.46764401 0.24426088 -0.68421412
v 0.97375250 0.00000000 -0.49614525
v 0.76069319 0.12940754 -0.63580227
v 0.79061043 0.08510250 -0.80677295
v 0.87510633 0.20261288 -0.00805818
v 1.07216644 0.19615550 -0.31267148
v 1.09662139 0.00000000 -0.18773894
v 1.10416663 0.00580816 0.19386278
v 1.05638480 0.20051181 0.28371754
v 0.29851320 0.10930202 1.08768499
v 0.58468741 0.20404617 0.92752492
v 0.28131503 0.31114653 0.99345815
v -0.60242587 0.29984847 0.43521613
v -0.43916962 0.23700178 0.70977163
v -0.72233260 0.11875534 0.60456574
v -0.43086714 0.21875644 -0.72896194
v -0.58442980 0.28918958 -0.46336907
v -0.74768388 0.08817531 -0.64199746
v 0.56576502 0.20083521 -0.94715774
v 0.28729373 0.06132255 -1.10463727
v 0.26063290 0.30650702 -1.01261532
v 0.97663122 0.37609556 0.15314312
v 0.96800363 0.36384222 -0.17676838
v 0.84344900 0.57920480 -0.00645852
v -0.59686184 0.79908729 0.07951183
v -0.55417681 0.80950922 0.20688953
v -0.47428018 0.88162303 0.12862357
v -0.68856442 0.64293015 0.37094635
v -0.62487847 0.72766095 0.29061541
v -0.73183012 0.64627612 0.23714341
v -0.36913052 0.85725021 0.37537384
v -0.50247055 0.79697752 0.33618721
v -0.44323957 0.77463663 0.45414168
v -0.82700187 0.25724709 0.67280364
v -0.80735505 0.35453531 0.61010772
v -0.90591246 0.30150560 0.52451324
v -0.59061307 0.46381575 0.72036344
v -0.70056194 0.41040245 0.67509282
v -0.60712159 0.36232924 0.79226023
v -0.84156966 0.46899432 0.38386905
v -0.78193563 0.44520673 0.53447968
v -0.74718416 0.53347915 0.45958859
v -0.08192019 0.65508658 0.76204747
v -0.20587401 0.61211574 0.77113843
v -0.12614211 0.54914296 0.85186803
v -0.36240569 0.73063886 0.58117771
v -0.28871056 0.67914796 0.68319839
v -0.23410283 0.77582151 0.59134579
v -0.37193918 0.45993567 0.85057992
v -0.33354828 0.56778383 0.76959270
v -0.45585167 0.52132404 0.75580734
v -0.63016897 0.60993510 0.51361662
v -0.54882276 0.56642306 0.64267749
v -0.49716306 0.67361569 0.55095601
v -0.35331750 0.94036412 0.13002415
v -0.39615199 0.93320000 0.00123648
v -0.23903561 0.90533715 0.37772831
v -0.29985893 0.92967683 0.25988859
v -0.13681656 1.00035703 0.00119541
v -0.22114648 0.98378819 0.13145956
v -0.08448645 1.00400317 0.13250585
v 0.07454266 0.65834498 0.76430887
v -0.00347175 0.73011535 0.68844259
v 0.15453380 0.85922295 0.50785172
v 0.07774670 0.80329216 0.60441458
v 0.22806291 0.78186101 0.59355545
v -0.08345219 0.79976034 0.60459822
v -0.15577601 0.85698909 0.50844985
v 0.39615080 0.93253541 0.00500814
v 0.35356173 0.94119722 0.13409787
v 0.47849521 0.88077879 0.13151179
v 0.07870483 1.00378156 0.13267986
v 0.21617870 0.98449653 0.13547662
v 0.13552640 1.00252533 0.00077000
v 0.37029746 0.86152261 0.37772560
v 0.29931983 0.93375951 0.26297876
v 0.23708653 0.91008002 0.38060224
v -0.08304853 0.92993170 0.39289039
v 0.08169059 0.93017304 0.39416316
v -0.00300016 0.98116314 0.26410562
v -0.35302627 0.93954813 -0.12798178
v -0.47466394 0.88282597 -0.12737101
v -0.08462874 0.99852425 -0.12830238
v -0.21819368 0.97786200 -0.12810349
v -0.37021887 0.85966218 -0.37259617
v -0.29774427 0.93063629 -0.25820404
v -0.23708813 0.90571165 -0.37776154
v 0.47561836 0.88364971 -0.12573169
v 0.35279012 0.94129801 -0.12492550
v 0.23467697 0.90630955 -0.37788793
v 0.29673752 0.93258995 -0.25764924
v 0.36918533 0.86409169 -0.37370569
v 0.21703412 0.98145801 -0.12865144
v 0.07811978 0.99997550 -0.12997799
v -0.08551279 0.65757215 -0.76872087
v -0.00428001 0.73229903 -0.69317526
v 0.07717688 0.65979302 -0.76796317
v -0.15793401 0.85703915 -0.50668496
v -0.08258165 0.79818976 -0.60253525
v -0.23623781 0.77789736 -0.58913571
v 0.23152255 0.78048497 -0.59147036
v 0.07717630 0.80125201 -0.60549718
v 0.15295823 0.85580015 -0.50687665
v -0.00358653 0.97785485 -0.26114163
v 0.08046703 0.92881811 -0.39119828
v -0.08300395 0.92800772 -0.39294180
v -0.55726993 0.80873203 -0.20545638
v -0.59821665 0.80105931 -0.07823178
v -0.44936192 0.77936435 -0.44845572
v -0.50885493 0.80463535 -0.33140549
v -0.74299163 0.63964140 -0.22320649
v -0.63362288 0.72142243 -0.28105962
v -0.70078266 0.63969302 -0.35197571
v -0.13590032 0.55376506 -0.85371220
v -0.21758702 0.61896080 -0.77961773
v -0.47434568 0.52712381 -0.74772412
v -0.35015151 0.57458901 -0.77023149
v -0.39117199 0.46545738 -0.84315652
v -0.29809129 0.68315011 -0.68422854
v -0.37046322 0.73147070 -0.58043474
v -0.91928333 0.28835225 -0.51057464
v -0.82979459 0.34517187 -0.58510756
v -0.84991813 0.23968187 -0.65532321
v -0.75870401 0.53454089 -0.44436479
v -0.79884076 0.44815344 -0.51573950
v -0.85858667 0.47414780 -0.36449504
v -0.63578230 0.36170146 -0.77327651
v -0.72675538 0.41263771 -0.65070868
v -0.61495078 0.46427575 -0.70565939
v -0.50840002 0.68293732 -0.54117328
v -0.56388235 0.57227981 -0.62685210
v -0.64210147 0.61247396 -0.49053809
v -0.67917997 0.73387361 0.00216976
v -0.82610744 0.57354140 -0.14337815
v -0.75658131 0.65131235 -0.07088733
v -0.75186360 0.65778774 0.08708540
v -0.81671983 0.57904202 0.16068572
v -0.99750966 0.18824992 -0.44611308
v -0.97913498 0.27625218 -0.37167981
v -1.04626024 0.28014699 -0.07473116
v -1.01710606 0.27337128 -0.22361003
v -1.07940686 0.18523583 -0.15324090
v -0.94943488 0.37894887 -0.29651117
v -0.90214276 0.47185665 -0.22639404
v -0.96952552 0.28861398 0.38322431
v -1.00161219 0.19176924 0.44690445
v -0.88575017 0.47268295 0.24775505
v -0.93635064 0.37862748 0.32040018
v -1.08800328 0.18861507 0.14896400
v -1.01575518 0.28515083 0.23762858
v -1.04735851 0.29052290 0.09015188
v -0.91606128 0.48375690 -0.07007588
v -0.98422199 0.38195169 0.01199745
v -0.90455234 0.48423016 0.09200269
v 0.56624699 0.81016892 0.20922114
v 0.60638779 0.80336070 0.07948598
v 0.44937554 0.78036159 0.45740634
v 0.50964695 0.80353147 0.33860934
v 0.75142109 0.64275217 0.22758533
v 0.63821435 0.72754997 0.28784978
v 0.70292383 0.64153636 0.36031774
v 0.12855704 0.55490977 0.85488647
v 0.20544377 0.62322235 0.77472514
v 0.46230212 0.53832668 0.75579500
v 0.33445704 0.58111900 0.77064747
v 0.38334513 0.47390115 0.84817827
v 0.28732711 0.68438786 0.68627775
v 0.36409959 0.73947924 0.58717817
v 0.90911180 0.28084505 0.49548611
v 0.82633066 0.33735192 0.57729799
v 0.83895081 0.22521035 0.64336926
v 0.75434238 0.53547466 0.44561681
v 0.79070693 0.44170412 0.51041633
v 0.85189575 0.46576145 0.37045610
v 0.63164699 0.37080720 0.76306605
v 0.71744293 0.40873927 0.64088619
v 0.60506034 0.47545093 0.70543486
v 0.50663960 0.68124175 0.55367482
v 0.55620944 0.58445525 0.63684618
v 0.63873088 0.61312640 0.50082266
v -0.12463592 0.45896512 0.93440080
v 0.00646380 0.49301618 0.91636908
v -0.38345701 0.35704440 0.92775035
v -0.25636873 0.40568617 0.93925154
v 0.01454925 0.29795280 1.05289578
v -0.12481678 0.35585296 1.00798142
v -0.13278665 0.25311747 1.06193697
v -0.88364267 0.12398361 0.69304115
v -0.77399981 0.19080922 0.77605492
v -0.59288937 0.06665923 0.94332594
v -0.69038725 0.13343811 0.87825096
v -0.70850641 0.00926914 0.85550815
v -0.64658964 0.24630401 0.84313351
v -0.52699047 0.29839647 0.89142758
v -0.02217168 0.09811329 1.01460636
v -0.15718940 0.09831611 1.03484285
v -0.14269315 0.18621317 0.92200255
v -0.14404714 0.11696983 1.10753047
v -0.15058926 0.00725218 1.11020935
v 0.01164059 0.09418488 1.12586665
v -0.42659858 0.04851500 0.93922776
v -0.29600894 0.05756206 1.04603624
v -0.44852236 0.00171333 1.02965701
v -0.40999353 0.23414189 0.98158550
v -0.44960380 0.11861654 1.01513219
v -0.27928093 0.18402173 1.05322719
v -1.04587424 0.08888540 0.40170237
v -0.98290509 0.08518544 0.54613286
v -1.12073982 0.09753442 0.08071305
v -1.09469986 0.08764236 0.24325788
v -0.90701717 0.10842950 0.38899302
v -1.03892279 0.00234315 0.32192028
v -0.96039242 0.12708904 0.25851598
v -0.98566037 0.07228031 -0.54458606
v -1.05239677 0.11353716 -0.40323463
v -0.97087526 0.10327548 -0.23522119
v -1.02330744 0.01168278 -0.33519307
v -0.92884642 0.13997377 -0.40067092
v -1.10284781 0.09671661 -0.25306407
v -1.13842106 0.11384742 -0.11308397
v -0.59606808 0.43597612 0.07943920
v -0.67499292 0.37947848 -0.00959239
v -0.59823805 0.41408387 -0.08876856
v -0.87464672 0.25052625 0.16941927
v -0.78296047 0.34904566 0.07277219
v -0.76913518 0.33964524 0.23568383
v -0.78583050 0.29058796 -0.24848236
v -0.77976239 0.28915551 -0.08709039
v -0.89116955 0.22366470 -0.15340142
v -1.09018755 0.01623374 -0.00828379
v -0.99311900 0.14307301 -0.06748032
v -1.00276279 0.14921275 0.09192671
v -0.78451115 0.17483829 -0.76245081
v -0.89206642 0.11595564 -0.68645328
v -0.55806839 0.31337890 -0.88321966
v -0.67769450 0.24473590 -0.83482105
v -0.69227785 0.00380766 -0.83868521
v -0.70333630 0.12083191 -0.87672085
v -0.60552657 0.07991911 -0.97807127
v -0.00682287 0.48853382 -0.91762608
v -0.13899168 0.45307118 -0.93084317
v -0.14574005 0.25643611 -1.07420528
v -0.13957860 0.35014626 -1.00510347
v -0.00821410 0.30011052 -1.06255984
v -0.27690575 0.40276399 -0.93110365
v -0.39887381 0.36213577 -0.91379905
v -0.14448465 0.12784903 -0.93208474
v -0.14104821 0.01815207 -1.00528717
v 0.00983945 0.09870796 -0.97408336
v -0.45504841 0.00912424 -1.03394425
v -0.30662155 0.00023282 -1.04262197
v -0.41815600 0.03319076 -0.92984605
v -0.01258279 0.08501772 -1.14879262
v -0.14530715 0.00162323 -1.11760664
v -0.16366529 0.12191761 -1.11795545
v -0.43415761 0.26520663 -0.98525828
v -0.30057719 0.19942868 -1.06437790
v -0.45150694 0.14400238 -1.03425276
v 0.20813209 0.62349516 -0.77935523
v 0.12630920 0.54854602 -0.85661137
v 0.36778551 0.73658091 -0.58479470
v 0.29311818 0.68347067 -0.68646502
v 0.38106695 0.47197446 -0.85554427
v 0.34380051 0.57862639 -0.77337515
v 0.46355772 0.53025532 -0.75643981
v 0.60270035 0.80709028 -0.07776246
v 0.56135464 0.81420678 -0.20665899
v 0.69578284 0.64432186 -0.36531195
v 0.63623708 0.72764444 -0.28641054
v 0.74326807 0.64966267 -0.23434937
v 0.50697148 0.80030751 -0.33329690
v 0.44824263 0.78028393 -0.45225242
v 0.84537703 0.26598090 -0.67995530
v 0.82834411 0.35777113 -0.61154044
v 0.91766208 0.29862335 -0.53112918
v 0.60158962 0.47058284 -0.71908993
v 0.71883398 0.40997776 -0.67834395
v 0.62235588 0.37209049 -0.79776007
v 0.84612381 0.47588077 -0.38925985
v 0.78938657 0.44504565 -0.53604823
v 0.74991781 0.53844088 -0.45557058
v 0.51182073 0.68173051 -0.55024260
v 0.64147574 0.61507738 -0.50777578
v 0.55972654 0.57428533 -0.64196712
v 0.59813523 0.33636424 0.09183063
v 0.56139779 0.32414082 0.21797848
v 0.47451571 0.39484277 0.13641861
v 0.74090648 0.20472173 0.41345593
v 0.64736259 0.27551481 0.30991927
v 0.75778103 0.25116208 0.27512133
v 0.36240625 0.36508963 0.40320697
v 0.50699759 0.30455714 0.35912713
v 0.44947758 0.28399113 0.48310307
v 0.89438760 0.11961050 0.69925010
v 0.91421121 0.00898444 0.66036457
v 0.99362302 0.09291492 0.55075002
v 0.64425397 0.00159915 0.78033006
v 0.78976780 0.00000000 0.76089251
v 0.69969290 0.00000000 0.88603586
v 0.92313820 0.06133678 0.38880122
v 0.86698353 0.00898503 0.59102589
v 0.81943744 0.11535697 0.50477439
v 0.10195263 0.25687566 0.81756133
v 0.23570837 0.20914221 0.85119933
v 0.11630044 0.15076555 0.93616879
v 0.34585130 0.30693007 0.60207880
v 0.27269459 0.27810311 0.70440549
v 0.18312012 0.36187771 0.61025238
v 0.39828280 0.05825706 0.93468803
v 0.34532362 0.15638787 0.85094279
v 0.47560024 0.09214819 0.81770349
v 0.67473602 0.15863101 0.57312304
v 0.56249595 0.13996476 0.71141148
v 0.52343363 0.22047366 0.59594905
v 0.37729779 0.26950920 0.14940664
v 0.42951664 0.28895140 0.02537016
v 0.22012986 0.38613701 0.36444309
v 0.31289160 0.39223173 0.24719098
v 0.15185553 0.20789623 0.03929279
v 0.25513786 0.37497303 0.08409917
v 0.13460666 0.26862097 0.15531217
v -0.08359747 0.28372693 0.80691111
v 0.01730075 0.32913187 0.72069895
v -0.14541721 0.39298862 0.51387936
v -0.08057614 0.36473632 0.62935531
v -0.24262577 0.33556664 0.61800653
v 0.05593117 0.36353579 0.59853733
v 0.11311822 0.41225731 0.47536895
v -0.41122368 0.33176407 0.03194212
v -0.33400312 0.43740949 0.13370541
v -0.45860413 0.48993203 0.13487506
v -0.04175442 0.23397207 0.15203209
v -0.18615776 0.39504823 0.13989155
v -0.12756522 0.21278550 0.05856416
v -0.36950067 0.39407083 0.38795489
v -0.25509533 0.43310481 0.24815075
v -0.21865575 0.40419078 0.40496570
v 0.08234421 0.45974755 0.33903265
v -0.07602401 0.43904662 0.38146791
v 0.04620176 0.26727489 0.30553436
v 0.38358375 0.27972728 -0.12498482
v 0.43661574 0.41386697 -0.09644232
v 0.08066219 0.18737279 -0.10340296
v 0.21586023 0.19139676 -0.12097621
v 0.38004595 0.27390072 -0.34784725
v 0.32360831 0.19111151 -0.24890150
v 0.23770665 0.17504296 -0.38822353
v -0.43830404 0.38292068 -0.13186112
v -0.36211365 0.24107778 -0.11671740
v -0.25440162 0.10652687 -0.34480241
v -0.33136755 0.16863881 -0.23423889
v -0.36050165 0.22432154 -0.40271816
v -0.25524560 0.12781872 -0.06253178
v -0.10721214 0.13681801 -0.07675847
v 0.09178445 0.20322396 -0.80984843
v -0.00342053 0.26071659 -0.74623251
v -0.09506914 0.18274239 -0.82009828
v 0.15589951 0.24163647 -0.52940470
v 0.05570838 0.20238504 -0.63112110
v 0.24643122 0.32541105 -0.61431772
v -0.22536051 0.17919451 -0.66094905
v -0.11042198 0.23396485 -0.64016086
v -0.15798925 0.15478443 -0.51728612
v 0.00028387 0.14672081 -0.20897210
v -0.07960304 0.11073404 -0.37072489
v 0.08951553 0.18847917 -0.38203943
v 0.53820622 0.35948265 -0.16908327
v 0.60447502 0.36666292 -0.05293370
v 0.44422588 0.36428151 -0.41293094
v 0.47823617 0.35890907 -0.30719486
v 0.78751218 0.23610236 -0.23936526
v 0.63280737 0.28650686 -0.26440865
v 0.74810112 0.21587355 -0.36556113
v 0.15452021 0.17573237 -0.86765003
v 0.24592966 0.22538847 -0.80662990
v 0.51108110 0.11238687 -0.76949406
v 0.38962761 0.17336063 -0.80116361
v 0.41382226 0.10250076 -0.87618440
v 0.34007096 0.29994729 -0.71551424
v 0.38700682 0.35493970 -0.59338093
v 0.98237115 0.08996647 -0.56712049
v 0.90560079 0.05636276 -0.68442082
v 0.87602836 0.14633027 -0.71270889
v 0.80900031 0.15907443 -0.48813733
v 0.88532847 0.08175474 -0.56733233
v 0.91750306 0.07441432 -0.40072456
v 0.70085865 0.00047116 -0.87297350
v 0.78368044 0.00000000 -0.70916843
v 0.67028517 0.08862958 -0.74448937
v 0.53552485 0.32684121 -0.52056044
v 0.61529058 0.19544134 -0.66912633
v 0.70362556 0.24994566 -0.50126380
v 0.70983386 0.27842417 0.01203282
v 0.89373440 0.21357982 -0.15480076
v 0.76710325 0.20674615 -0.09260183
v 0.77888548 0.23974659 0.09735274
v 0.84994972 0.21824300 0.17296311
v 1.01060760 0.18809307 -0.45699769
v 1.05676484 0.11084538 -0.41488856
v 1.14487469 0.09712362 -0.10104912
v 1.11678231 0.10955940 -0.26118973
v 1.10678017 0.19157381 -0.15691338
v 1.05440927 0.01591698 -0.34440932
v 0.98651385 0.08948199 -0.26671374
v 1.06379521 0.10533303 0.40705314
v 1.00825262 0.19187464 0.42583174
v 0.96503651 0.10076108 0.24408133
v 1.06522834 0.01562196 0.34970081
v 1.09079516 0.18490207 0.13912340
v 1.09698892 0.08735322 0.24690542
v 1.13022625 0.08585148 0.08201780
v 0.99255389 0.12147821 -0.09116580
v 1.10565042 0.00575265 0.00112411
v 0.99273330 0.14194740 0.08953805
v 0.15029459 0.09442172 1.02312517
v 0.44437620 0.05182671 1.03661692
v 0.28683618 0.00953755 1.04832709
v 0.16024721 0.02548308 1.11864674
v 0.16647284 0.13875192 1.11292851
v 0.78292894 0.19560772 0.76130205
v 0.55537903 0.31589451 0.87589288
v 0.67425579 0.25815973 0.82362467
v 0.70153582 0.13943268 0.86814004
v 0.60250902 0.08908956 0.96778893
v 0.13978903 0.45580640 0.93343323
v 0.15094756 0.25728008 1.06345642
v 0.14772375 0.36031872 1.00685000
v 0.27196172 0.41592243 0.93266547
v 0.39827657 0.36511266 0.91355485
v 0.44913656 0.15092503 1.01953208
v 0.43850473 0.25985584 0.97725612
v 0.29783252 0.19400454 1.05235434
v -0.54939461 0.43625295 0.23017044
v -0.47724673 0.36760858 0.45695204
v -0.49083441 0.37207434 0.34754640
v -0.64696127 0.36249205 0.30934739
v -0.74339521 0.28190696 0.37757695
v -0.23614773 0.26117021 0.81982380
v -0.51093942 0.11348069 0.80551296
v -0.38053185 0.16535410 0.83338273
v -0.33401936 0.26075405 0.68418157
v -0.40046462 0.33205789 0.58040261
v -0.93059582 0.01567176 0.64887202
v -0.81478107 0.17295364 0.48500445
v -0.87714827 0.07166389 0.53722715
v -0.80090594 0.00262580 0.70663226
v -0.67002618 0.05784382 0.75446284
v -0.54369217 0.28618267 0.58013958
v -0.59030998 0.16608435 0.67352515
v -0.68336147 0.25036401 0.53577924
v -0.23805030 0.15803553 -0.80081874
v -0.34617734 0.26848689 -0.59000701
v -0.30742314 0.22174744 -0.69559908
v -0.36448076 0.14826789 -0.83386356
v -0.50021398 0.11664356 -0.82137543
v -0.55654579 0.30887812 -0.22836934
v -0.73016781 0.29067850 -0.39439470
v -0.65188408 0.31872600 -0.31774235
v -0.51697350 0.33772415 -0.38178170
v -0.40989506 0.31390265 -0.50768214
v -0.90246987 0.00070031 -0.65542758
v -0.65296841 0.10823207 -0.77962375
v -0.78190744 0.03190662 -0.73825777
v -0.86290443 0.07249261 -0.57470447
v -0.78615338 0.17234129 -0.49593577
v -0.49424309 0.29534683 -0.59812605
v -0.66369635 0.22795267 -0.55954647
v -0.57773590 0.17933939 -0.66930395
v 0.78350246 0.21463266 -0.78435695
v 0.59503406 0.06732559 -0.96612668
v 0.69561177 0.13524795 -0.88927573
v 0.66169912 0.26608011 -0.85912043
v 0.53617662 0.31039017 -0.89707297
v 0.14918816 0.13638373 -0.99374592
v 0.13456142 0.10575864 -1.11900020
v 0.14895615 0.14109594 -1.07840025
v 0.30152744 0.10239431 -0.96729988
v 0.42070043 0.00712888 -1.00588393
v 0.12524503 0.45197684 -0.93857944
v 0.38661486 0.36735576 -0.92769337
v 0.25951779 0.40770018 -0.93665254
v 0.12904491 0.35490349 -1.00943148
v 0.12998118 0.24988787 -1.07025945
v 0.43414906 0.13084197 -1.03899217
v 0.27986634 0.18939131 -1.07238412
v 0.41598523 0.25134289 -0.99369276
v 0.98177218 0.29114512 0.36433235
v 1.05227983 0.29037762 0.07738703
v 1.03168225 0.29479671 0.21828419
v 0.94431907 0.38574231 0.29686645
v 0.90175670 0.47290963 0.23071410
v 0.98542327 0.28356853 -0.39171958
v 0.89221066 0.46756464 -0.25225481
v 0.94795108 0.38038731 -0.31833073
v 1.03128994 0.27929536 -0.24590021
v 1.05139339 0.29222631 -0.09903222
v 0.68940157 0.73827916 0.00064061
v 0.83746541 0.57054597 0.14597546
v 0.77088302 0.65527576 0.07764716
v 0.76412553 0.65582955 -0.08003242
v 0.82782984 0.57716566 -0.16164574
v 0.98529595 0.37141204 -0.01419683
v 0.90723413 0.47630784 -0.09450807
v 0.91779286 0.47142059 0.07055011
f 330 87 329
f 336 325 26
f 207 208 56
f 464 36 580
f 502 129 504
f 157 624 622
f 308 311 82
f 247 223 248
f 507 483 508
f 331 88 329
f 494 500 497
f 156 601 602
f 591 589 592
f 365 98 596
f 75 281 282
f 152 587 577
f 149 559 560
f 555 121 553
f 530 141 529
f 515 517 139
f 361 594 98
f 250 67 249
f 157 608 609
f 294 293 209
f 317 81 316
f 557 338 26
f 303 305 81
f 530 529 528
f 101 381 382
f 415 418 111
f 192 184 50
f 412 110 411
f 20 384 256
f 131 594 486
f 281 264 282
f 347 287 348
f 28 349 582
f 165 163 1
f 248 250 66
f 617 107 398
f 273 271 274
f 456 115 453
f 558 561 560
f 335 576 91
f 331 177 332
f 116 433 436
f 351 370 92
f 136 511 530
f 239 240 65
f 247 258 19
f 304 23 567
f 148 557 570
f 214 208 58
f 440 426 450
f 268 270 269
f 258 247 268
f 204 202 16
f 466 125 465
f 517 513 133
f 168 275 274
f 275 73 274
f 198 193 53
f 309 308 307
f 510 511 136
f 415 416 110
f 131 490 597
f 473 475 474
f 414 415 111
f 493 495 494
f 496 504 485
f 433 116 432
f 600 375 601
f 240 234 65
f 418 415 412
f 486 361 3
f 567 566 304
f 380 393 29
f 17 199 197
f 491 492 132
f 451 449 435
f 218 217 216
f 623 621 613
f 396 104 395
f 433 439 436
f 628 160 627
f 215 202 217
f 209 207 2
f 427 113 424
f 434 10 544
f 434 433 432
f 199 17 210
f 150 564 565
f 489 491 132
f 275 13 285
f 497 500 134
f 125 466 476
f 578 152 577
f 208 214 211
f 328 88 343
f 356 27 603
f 150 566 567
f 372 100 371
f 190 191 47
f 235 8 398
f 260 261 72
f 422 403 414
f 422 414 111
f 453 454 123
f 349 583 582
f 521 520 519
f 425 453 115
f 616 622 158
f 483 130 508
f 151 586 572
f 212 17 232
f 400 397 402
f 377 396 99
f 41 522 511
f 510 508 505
f 549 547 42
f 475 473 36
f 510 137 509
f 222 221 197
f 430 115 429
f 220 194 1
f 305 54 204
f 621 29 613
f 192 171 184
f 460 335 5
f 88 331 332
f 74 277 279
f 300 301 80
f 390 389 388
f 165 45 164
f 146 549 551
f 291 278 75
f 448 120 445
f 147 543 544
f 607 610 609
f 603 602 356
f 139 529 514
f 333 553 443
f 92 368 347
f 261 260 259
f 300 6 200
f 46 177 331
f 284 283 174
f 301 300 200
f 471 468 474
f 54 305 301
f 302 304 303
f 569 150 567
f 150 569 570
f 294 209 2
f 628 629 160
f 548 543 147
f 147 625 627
f 63 233 234
f 426 427 114
f 41 509 532
f 198 52 196
f 614 105 612
f 147 627 547
f 81 305 306
f 549 548 547
f 54 301 200
f 342 88 332
f 264 281 70
f 193 194 53
f 455 429 456
f 187 321 14
f 479 130 484
f 147 544 625
f 458 456 453
f 304 80 303
f 314 84 313
f 488 503 501
f 321 332 14
f 423 425 424
f 305 204 306
f 341 339 25
f 514 40 516
f 625 628 627
f 340 339 341
f 105 614 391
f 243 228 62
f 318 316 78
f 75 278 279
f 357 355 353
f 238 257 63
f 466 455 476
f 425 423 4
f 448 449 120
f 408 638 108
f 292 275 285
f 22 278 289
f 515 513 517
f 501 503 134
f 622 623 158
f 134 503 504
f 195 216 206
f 163 271 246
f 619 617 620
f 62 228 229
f 163 165 164
f 453 425 454
f 489 132 488
f 82 628 625
f 58 208 209
f 525 608 40
f 626 547 627
f 518 517 498
f 489 487 491
f 557 26 564
f 325 336 344
f 541 145 539
f 40 616 516
f 338 556 89
f 250 248 245
f 139 514 515
f 98 594 596
f 246 220 1
f 112 413 630
f 9 536 413
f 156 600 601
f 332 177 14
f 321 342 332
f 156 606 600
f 584 330 585
f 302 303 81
f 584 87 330
f 330 25 585
f 400 239 65
f 439 440 117
f 95 358 368
f 597 594 131
f 594 361 486
f 246 67 245
f 561 562 149
f 28 364 362
f 55 216 217
f 427 430 114
f 267 20 254
f 556 555 553
f 84 309 558
f 311 310 312
f 609 525 142
f 256 68 255
f 124 460 461
f 82 311 312
f 307 308 82
f 589 135 495
f 527 40 514
f 112 418 412
f 20 256 254
f 258 238 19
f 267 254 269
f 273 272 249
f 392 391 393
f 137 533 509
f 122 455 456
f 9 413 411
f 130 480 505
f 333 443 5
f 527 525 40
f 589 495 385
f 39 496 485
f 223 225 224
f 414 416 415
f 219 222 53
f 145 538 539
f 413 412 411
f 469 468 467
f 183 181 6
f 191 192 50
f 429 35 431
f 292 285 76
f 413 112 412
f 415 110 412
f 43 164 167
f 467 468 126
f 617 101 620
f 450 451 117
f 438 546 545
f 619 620 159
f 17 212 210
f 124 579 576
f 584 153 583
f 460 124 576
f 3 469 467
f 311 308 314
f 6 320 183
f 389 104 388
f 251 250 249
f 194 165 1
f 291 289 278
f 287 77 348
f 238 258 257
f 139 517 518
f 238 236 19
f 223 247 19
f 382 380 29
f 39 518 498
f 361 359 3
f 69 255 257
f 139 518 528
f 33 545 535
f 387 385 7
f 69 268 269
f 477 462 125
f 454 479 123
f 121 555 447
f 451 435 117
f 454 425 4
f 233 252 8
f 124 463 464
f 69 258 268
f 168 167 166
f 583 153 582
f 384 394 102
f 138 512 513
f 57 210 211
f 254 256 255
f 607 609 142
f 324 319 86
f 289 291 76
f 291 292 76
f 384 102 383
f 422 421 420
f 221 17 197
f 383 102 381
f 376 377 99
f 99 373 374
f 386 105 392
f 438 33 440
f 90 341 343
f 281 75 279
f 574 571 96
f 628 82 312
f 221 222 59
f 127 471 474
f 595 605 603
f 551 538 145
f 334 91 340
f 322 324 85
f 305 303 301
f 18 239 399
f 306 204 16
f 199 198 197
f 166 190 180
f 303 80 301
f 267 266 265
f 626 42 547
f 16 215 213
f 349 351 350
f 295 16 213
f 68 379 252
f 250 251 66
f 627 160 626
f 383 68 256
f 343 88 342
f 507 508 136
f 202 215 16
f 197 198 53
f 254 69 269
f 603 605 156
f 418 419 111
f 384 383 256
f 455 122 476
f 203 204 54
f 556 557 148
f 255 68 253
f 313 84 560
f 25 328 341
f 254 255 69
f 603 156 602
f 581 584 583
f 630 632 112
f 163 246 1
f 246 245 220
f 432 116 558
f 499 591 590
f 320 563 86
f 345 93 350
f 306 16 295
f 346 93 345
f 562 568 149
f 604 605 155
f 154 592 593
f 545 552 535
f 511 522 530
f 574 573 571
f 566 150 565
f 361 98 360
f 67 271 273
f 234 235 65
f 208 211 56
f 574 151 573
f 251 270 66
f 398 8 378
f 213 215 214
f 438 440 439
f 315 314 313
f 263 71 262
f 20 373 384
f 496 134 504
f 329 88 328
f 81 306 316
f 555 556 148
f 592 589 103
f 617 619 107
f 227 207 56
f 571 359 96
f 446 466 465
f 206 216 55
f 359 571 469
f 568 148 570
f 34 437 435
f 28 351 349
f 21 272 282
f 113 423 424
f 490 489 488
f 379 68 383
f 210 212 211
f 80 563 300
f 351 92 350
f 326 346 12
f 83 317 318
f 555 148 554
f 212 231 56
f 218 57 217
f 271 67 246
f 195 196 52
f 270 268 66
f 390 592 103
f 148 568 554
f 495 493 7
f 592 390 593
f 357 95 355
f 574 575 151
f 452 120 451
f 154 591 592
f 587 585 577
f 395 394 396
f 93 349 350
f 610 416 611
f 166 44 190
f 315 23 302
f 315 302 317
f 268 247 66
f 606 154 593
f 396 394 99
f 211 212 56
f 370 369 368
f 235 397 65
f 280 278 22
f 83 315 317
f 575 588 151
f 74 279 280
f 385 495 7
f 63 257 253
f 397 235 398
f 214 58 213
f 220 219 194
f 546 146 545
f 236 225 19
f 599 94 602
f 235 233 8
f 102 394 395
f 611 416 32
f 225 223 19
f 139 528 529
f 231 62 229
f 419 406 421
f 451 450 452
f 49 182 185
f 402 397 107
f 52 199 218
f 416 610 110
f 225 236 244
f 107 397 398
f 68 252 253
f 322 85 321
f 182 181 183
f 118 438 439
f 546 438 118
f 348 77 345
f 543 546 118
f 231 212 232
f 610 611 157
f 33 438 545
f 385 386 103
f 479 480 130
f 169 195 15
f 93 583 349
f 15 195 206
f 190 44 192
f 247 248 66
f 146 552 545
f 248 60 245
f 570 557 564
f 274 271 43
f 63 253 233
f 272 21 249
f 507 528 518
f 67 273 249
f 487 467 126
f 196 195 169
f 624 159 623
f 134 496 497
f 132 503 488
f 104 393 395
f 556 553 89
f 355 356 94
f 258 69 257
f 229 61 227
f 56 231 227
f 460 576 335
f 463 124 461
f 394 373 99
f 29 393 391
f 67 250 245
f 193 198 196
f 462 36 464
f 144 633 630
f 141 526 527
f 517 133 498
f 536 144 630
f 100 372 599
f 144 536 537
f 22 289 287
f 578 579 152
f 579 578 576
f 189 188 187
f 60 223 224
f 92 348 350
f 555 554 447
f 396 377 388
f 194 193 165
f 413 536 630
f 372 352 599
f 377 376 375
f 348 345 350
f 105 386 387
f 240 237 234
f 463 462 464
f 135 500 494
f 45 196 169
f 512 612 387
f 245 60 220
f 429 115 456
f 223 60 248
f 288 289 76
f 525 526 142
f 100 599 601
f 613 29 391
f 526 523 520
f 341 328 343
f 631 641 639
f 264 21 282
f 266 72 265
f 106 402 403
f 73 273 274
f 186 206 205
f 381 379 383
f 52 216 195
f 410 18 399
f 290 272 73
f 72 371 374
f 526 525 527
f 115 430 424
f 498 497 496
f 621 382 29
f 543 118 434
f 214 215 57
f 522 141 530
f 511 510 509
f 352 94 599
f 493 512 7
f 90 340 341
f 169 171 170
f 605 604 606
f 219 60 224
f 104 389 392
f 359 469 3
f 186 49 185
f 222 219 224
f 166 167 44
f 428 427 426
f 523 522 524
f 129 502 481
f 50 185 188
f 164 45 170
f 425 115 424
f 33 428 426
f 427 428 113
f 94 356 602
f 515 138 513
f 114 431 452
f 237 236 238
f 215 217 57
f 95 354 355
f 220 60 219
f 515 514 516
f 183 320 319
f 222 197 53
f 559 569 567
f 300 320 6
f 435 436 117
f 96 360 363
f 640 642 641
f 242 243 62
f 140 537 519
f 508 130 505
f 420 410 399
f 537 539 144
f 317 316 318
f 426 114 450
f 186 15 206
f 311 83 310
f 625 544 307
f 544 10 307
f 168 43 167
f 185 182 188
f 369 354 95
f 44 171 192
f 605 606 156
f 548 549 146
f 100 601 375
f 149 568 569
f 381 380 382
f 455 466 35
f 480 479 454
f 543 548 546
f 493 133 513
f 492 472 37
f 477 125 476
f 491 487 126
f 337 336 338
f 588 153 587
f 576 578 91
f 633 161 632
f 96 359 360
f 39 485 483
f 101 617 378
f 193 45 165
f 163 164 43
f 618 624 611
f 507 136 528
f 561 149 560
f 641 162 639
f 116 561 558
f 494 133 493
f 253 252 233
f 63 237 238
f 392 393 104
f 440 450 117
f 93 581 583
f 386 385 387
f 120 449 451
f 421 422 111
f 486 3 467
f 302 81 317
f 633 632 630
f 462 475 36
f 376 99 374
f 489 490 131
f 447 449 448
f 387 612 105
f 106 420 399
f 173 46 172
f 492 491 472
f 316 306 295
f 22 287 347
f 109 410 420
f 507 39 483
f 559 23 313
f 214 57 211
f 196 45 193
f 10 434 432
f 422 106 403
f 626 160 640
f 487 486 467
f 542 41 532
f 400 106 399
f 444 120 452
f 198 199 52
f 475 127 474
f 621 620 382
f 621 623 159
f 450 114 452
f 92 347 348
f 376 100 375
f 434 118 433
f 503 132 502
f 337 90 336
f 537 536 519
f 395 393 380
f 201 54 200
f 171 44 170
f 355 94 353
f 58 296 213
f 422 420 106
f 595 365 596
f 569 568 570
f 523 140 520
f 114 430 431
f 218 210 57
f 304 566 80
f 639 162 638
f 261 371 72
f 548 147 547
f 498 133 497
f 150 570 564
f 222 224 59
f 142 526 520
f 437 436 435
f 141 522 523
f 137 510 505
f 173 179 176
f 559 149 569
f 121 447 448
f 563 320 300
f 102 395 380
f 257 255 253
f 642 162 641
f 83 311 314
f 216 52 218
f 512 493 513
f 23 304 302
f 91 339 340
f 512 138 612
f 159 620 621
f 218 199 210
f 364 28 575
f 83 318 310
f 168 274 43
f 136 530 528
f 140 523 524
f 495 135 494
f 233 235 234
f 566 563 80
f 25 339 577
f 277 74 276
f 475 462 477
f 133 494 497
f 436 437 116
f 389 386 392
f 548 146 546
f 441 460 5
f 10 309 307
f 65 397 400
f 543 434 544
f 640 641 161
f 272 273 73
f 581 93 346
f 419 421 111
f 319 320 86
f 180 179 178
f 127 475 477
f 231 229 227
f 337 334 340
f 136 508 510
f 308 309 84
f 237 63 234
f 447 554 34
f 252 379 378
f 315 83 314
f 608 622 616
f 338 336 26
f 337 338 89
f 13 275 168
f 209 208 207
f 436 439 117
f 628 312 629
f 360 366 363
f 364 574 96
f 359 361 360
f 466 446 35
f 500 501 134
f 406 109 421
f 135 589 591
f 601 599 602
f 340 90 337
f 481 492 37
f 522 41 524
f 78 316 295
f 131 486 487
f 403 32 414
f 634 626 640
f 151 572 573
f 515 516 138
f 8 252 378
f 265 72 374
f 9 521 519
f 538 549 42
f 368 358 347
f 588 587 586
f 458 453 123
f 589 385 103
f 502 492 481
f 32 416 414
f 430 427 424
f 153 585 587
f 540 144 539
f 370 368 92
f 209 293 58
f 428 33 535
f 326 581 346
f 625 307 82
f 575 28 582
f 6 181 200
f 421 109 420
f 553 121 443
f 160 642 640
f 153 584 585
f 309 432 558
f 334 337 89
f 23 315 313
f 271 163 43
f 296 295 213
f 39 498 496
f 118 439 433
f 531 113 534
f 293 296 58
f 28 362 351
f 489 131 487
f 431 444 452
f 84 558 560
f 98 366 360
f 45 169 170
f 379 101 378
f 462 463 125
f 308 84 314
f 10 432 309
f 299 24 310
f 132 492 502
f 512 387 7
f 639 638 408
f 565 323 86
f 59 244 242
f 106 400 402
f 440 33 426
f 566 565 563
f 617 398 378
f 224 225 59
f 410 109 409
f 239 400 399
f 194 219 53
f 358 22 347
f 610 157 609
f 27 595 603
f 479 484 482
f 142 520 521
f 585 25 577
f 339 578 577
f 408 407 406
f 407 109 406
f 31 408 406
f 407 408 108
f 31 639 408
f 419 31 406
f 608 616 40
f 430 429 431
f 455 35 429
f 35 444 431
f 188 51 187
f 188 182 51
f 51 322 187
f 322 51 319
f 51 182 183
f 319 51 183
f 187 322 321
f 322 319 324
f 381 101 379
f 405 407 108
f 404 405 108
f 286 285 178
f 407 405 409
f 109 407 409
f 191 175 47
f 167 164 170
f 50 184 185
f 44 167 170
f 64 244 236
f 243 244 64
f 50 188 189
f 541 542 145
f 442 445 119
f 339 91 578
f 445 446 119
f 624 623 622
f 611 624 157
f 523 526 141
f 141 527 529
f 527 514 529
f 445 120 444
f 446 445 444
f 35 446 444
f 613 614 158
f 158 614 615
f 623 613 158
f 614 613 391
f 614 612 615
f 371 376 374
f 100 376 371
f 479 482 123
f 373 394 384
f 540 42 634
f 633 540 634
f 538 42 540
f 633 634 161
f 161 634 640
f 42 626 634
f 540 633 144
f 557 556 338
f 553 333 89
f 262 21 264
f 251 21 262
f 5 335 333
f 270 251 262
f 21 251 249
f 600 593 30
f 606 593 600
f 600 30 375
f 593 390 30
f 30 377 375
f 390 388 30
f 30 388 377
f 228 243 241
f 470 478 459
f 470 127 478
f 127 477 478
f 184 186 185
f 478 477 476
f 122 478 476
f 357 74 280
f 518 39 507
f 344 342 85
f 325 344 85
f 342 344 343
f 85 342 321
f 344 90 343
f 90 344 336
f 482 129 481
f 482 481 457
f 482 457 123
f 481 37 457
f 449 447 34
f 435 449 34
f 470 472 471
f 472 470 37
f 470 471 127
f 472 126 471
f 126 468 471
f 470 459 37
f 491 126 472
f 504 129 485
f 221 59 242
f 125 463 465
f 437 34 562
f 561 437 562
f 554 568 562
f 34 554 562
f 437 561 116
f 390 103 389
f 103 386 389
f 392 105 391
f 572 586 580
f 572 580 36
f 586 152 580
f 473 572 36
f 244 243 242
f 225 244 59
f 64 240 241
f 240 239 241
f 237 240 64
f 243 64 241
f 236 237 64
f 411 607 521
f 9 411 521
f 110 607 411
f 607 142 521
f 610 607 110
f 171 15 184
f 171 169 15
f 15 186 184
f 87 584 581
f 153 588 582
f 588 575 582
f 381 102 380
f 573 572 473
f 468 469 128
f 474 468 128
f 469 571 128
f 571 573 128
f 573 473 128
f 473 474 128
f 564 323 565
f 26 323 564
f 323 324 86
f 325 323 26
f 325 324 323
f 563 565 86
f 324 325 85
f 410 230 18
f 230 228 18
f 18 228 241
f 18 241 239
f 401 619 618
f 401 402 107
f 403 402 401
f 619 159 618
f 401 618 32
f 619 401 107
f 403 401 32
f 618 611 32
f 159 624 618
f 478 122 459
f 122 458 459
f 37 459 457
f 459 458 457
f 122 456 458
f 457 458 123
f 191 190 192
f 485 129 484
f 129 482 484
f 483 485 484
f 130 483 484
f 189 187 14
f 191 50 189
f 191 189 175
f 189 14 175
f 14 177 175
f 499 501 500
f 501 499 38
f 38 499 590
f 135 499 500
f 488 501 38
f 499 135 591
f 480 454 4
f 284 12 346
f 4 423 506
f 480 4 506
f 423 531 506
f 480 506 505
f 531 137 506
f 506 137 505
f 365 366 98
f 71 270 262
f 270 71 269
f 71 267 269
f 335 334 333
f 333 334 89
f 334 335 91
f 536 9 519
f 465 463 461
f 537 140 541
f 520 140 519
f 119 446 465
f 465 461 119
f 461 441 119
f 460 441 461
f 176 46 173
f 299 297 24
f 71 263 266
f 263 260 266
f 260 72 266
f 263 70 260
f 205 201 49
f 201 181 49
f 186 205 49
f 181 201 200
f 181 182 49
f 284 77 283
f 586 587 152
f 588 586 151
f 20 267 265
f 266 267 71
f 31 417 631
f 631 417 632
f 31 631 639
f 417 31 419
f 641 631 161
f 417 112 632
f 161 631 632
f 418 417 419
f 417 418 112
f 284 345 77
f 542 550 145
f 542 541 524
f 284 174 12
f 48 174 283
f 373 20 265
f 373 265 374
f 609 608 525
f 608 157 622
f 560 559 313
f 636 637 162
f 541 140 524
f 41 542 524
f 358 357 280
f 70 263 264
f 263 262 264
f 176 177 46
f 174 48 173
f 174 173 172
f 538 551 549
f 538 540 539
f 537 541 539
f 232 221 242
f 17 221 232
f 232 242 62
f 231 232 62
f 203 205 55
f 203 55 202
f 201 205 203
f 202 55 217
f 205 206 55
f 204 203 202
f 73 275 292
f 292 290 73
f 272 290 282
f 290 292 291
f 75 290 291
f 290 75 282
f 70 277 259
f 277 70 281
f 277 281 279
f 260 70 259
f 12 174 172
f 104 396 388
f 367 27 354
f 365 27 367
f 354 27 356
f 365 367 366
f 595 27 365
f 318 299 310
f 155 596 597
f 155 597 598
f 596 594 597
f 595 596 155
f 605 595 155
f 180 47 179
f 180 190 47
f 352 372 11
f 11 372 261
f 312 310 24
f 642 636 162
f 636 297 637
f 367 369 97
f 366 367 97
f 369 367 354
f 369 370 97
f 580 579 464
f 580 152 579
f 579 124 464
f 61 230 409
f 230 410 409
f 230 61 229
f 230 229 228
f 76 285 286
f 353 352 276
f 74 353 276
f 288 76 286
f 288 286 283
f 289 288 287
f 203 54 201
f 287 288 77
f 77 288 283
f 286 48 283
f 531 423 113
f 276 11 259
f 11 261 259
f 277 276 259
f 616 158 615
f 516 616 615
f 138 516 615
f 138 615 612
f 509 533 532
f 503 502 504
f 635 79 294
f 635 294 404
f 635 637 79
f 637 635 638
f 638 635 108
f 635 404 108
f 226 61 405
f 61 226 227
f 405 61 409
f 227 226 207
f 48 178 179
f 48 286 178
f 173 48 179
f 534 143 533
f 534 535 143
f 531 534 533
f 533 143 532
f 137 531 533
f 261 372 371
f 13 180 178
f 285 13 178
f 180 13 166
f 13 168 166
f 346 345 284
f 331 327 46
f 46 327 172
f 172 327 326
f 382 620 101
f 442 121 448
f 443 121 442
f 2 226 404
f 294 2 404
f 404 226 405
f 207 226 2
f 550 551 145
f 552 146 551
f 143 550 532
f 552 550 143
f 330 329 328
f 24 636 629
f 94 352 353
f 352 11 276
f 113 428 534
f 428 535 534
f 509 41 511
f 535 552 143
f 550 552 551
f 550 542 532
f 369 95 368
f 326 327 87
f 87 327 329
f 327 331 329
f 581 326 87
f 293 79 298
f 79 297 298
f 296 298 78
f 79 293 294
f 296 293 298
f 598 490 38
f 358 280 22
f 280 279 278
f 357 358 95
f 74 357 353
f 330 328 25
f 567 23 559
f 590 598 38
f 590 604 598
f 598 604 155
f 604 590 154
f 590 591 154
f 604 154 606
f 297 299 298
f 299 318 78
f 298 299 78
f 355 354 356
f 629 636 642
f 312 24 629
f 629 642 160
f 370 362 97
f 362 363 97
f 363 366 97
f 364 363 362
f 362 370 351
f 96 363 364
f 297 636 24
f 162 637 638
f 637 297 79
f 490 488 38
f 598 597 490
f 441 442 119
f 443 442 441
f 443 441 5
f 442 448 445
f 296 78 295
f 326 12 172
f 575 574 364
f 47 175 176
f 175 177 176
f 47 176 179
