1985  4  0
    0     323   432   576   426
    1     427   447   325   480
    2     467   471   466   523
    3     391   448   394   386
    4      59    62    60    42
    5     326   566   322   480
    6      95    93    92    94
    7     366   365   364   486
    8     436   426   437   433
    9     382   379   378   504
   10     533   531   516   517
   11     436   438   437   440
   12     374   381   375   378
   13     583   228    67   223
   14     456   579   460   459
   15     508   173   510   243
   16     215   226   502   232
   17      66   581   199   200
   18     313   361    17   311
   19      98   155   156   141
   20     409   412   316   318
   21     333   315   319   409
   22     275   274   277   284
   23     482   483   217   494
   24     520   533   526   516
   25     409   316   314   315
   26     159   555   135    11
   27     323   435   325   427
   28      55   479    57   191
   29     450   386   383   393
   30     365   581   360   362
   31     432   441   430   323
   32     120   134   119   554
   33     380   504   374   379
   34     414   398   413   410
   35     196    54   217   218
   36     335   420   568   481
   37     240   200   241   581
   38     552   288    20    38
   39     299   540   302   282
   40     447   576   436   578
   41     333   481   281   336
   42      64   222   224   223
   43     359   344   187   472
   44     492   580   532   534
   45     345   473   187   344
   46     348   476   346   357
   47     335   407   301   420
   48     572   501   223   362
   49     331   279   328   296
   50     329   566   541   296
   51     111   127   123   132
   52     509   507   506   487
   53       5   277   283   282
   54     521   585   532   522
   55      36     6   128   551
   56     450   449   446   448
   57     397   408   422   411
   58     300   573   567   421
   59      59    50    62    53
   60     576   435   436   438
   61     112   113   106   129
   62     342   343    48   187
   63     233   234   236   235
   64     381   504   380   505
   65     241   239   204   202
   66     546   545   548   478
   67     303   308   306   304
   68     338   339   281   336
   69     264   243   255   247
   70     518   584   529   526
   71     215   572   583   206
   72     406   397   419   395
   73     586   290   289   291
   74     376   489   490   451
   75      26    11   135   555
   76     332   541   342   331
   77     433   426   440   431
   78     340   543   330   328
   79     367   364   371   572
   80     464   463   524   585
   81     330   327   298   294
   82     131   110   111   132
   83     480   358   332   342
   84     510   242   243   262
   85     263   259   257   251
   86      67   225    64   222
   87      25    33    24    15
   88     585   461   524   464
   89      33    48   192   278
   90     431   426   440   432
   91     562   258   179   180
   92     317   319   545   494
   93     225   222    67   228
   94     581   486   360   485
   95      40    30   275   274
   96     466   467   470   471
   97     377   215   454   452
   98     334   300   421   573
   99     576   438   436   440
  100     338   337   333   336
  101     338   481   281   354
  102     348   476    51   347
  103     451   489   454   377
  104     492   531   532   209
  105     457   525   460   523
  106     575   295   429   427
  107     239   506   204   202
  108      90    84    82    81
  109     474   473   187   347
  110     486   363   360   485
  111     262   260   264   243
  112     170   172   559   171
  113     533   517   519   536
  114     218   479    57    55
  115     541   278   342   343
  116     282   540   302   539
  117     215   370   502   226
  118     232   226   227   208
  119     530   268   266   533
  120     115   124   133   119
  121      51   476    62    50
  122     584   533   510   526
  123     336   335   281   333
  124      73   205   203   240
  125     266   533   261   584
  126     516   520   519   536
  127      52   347    51   476
  128     480   569   325   326
  129      36   128     5     4
  130     474   347   346   353
  131     278   285    25    33
  132     536   517   519   516
  133     304   303   326   306
  134     401   397   422   411
  135     476   473   187   474
  136      45    52   187    49
  137     475   476    58   351
  138     417   397   419   406
  139     264   252   249   247
  140     181   169   182   176
  141     271   273   245   246
  142     234   208   216   236
  143     268   209   266   533
  144     480   541   326   566
  145     506   237   202   239
  146     126   197     6   561
  147     572   362   571   501
  148     571   501   215   572
  149     251   243   264   263
  150     309   497   308   307
  151     510   584   261   533
  152     173   165   263   170
  153     262   261   243   510
  154     343   331   342   541
  155     332   480   342   541
  156      49    41    31    32
  157     225   206    67    74
  158      80    76    74   225
  159     548   478   565   479
  160     328   296   541   331
  161     100   160    99   161
  162     257   264   249   247
  163      84   216   229   208
  164     331   329   541   328
  165     313   311    17   358
  166     500   572   583   501
  167     311   307   305   310
  168     206   166   167   208
  169     247   271   249   272
  170     192    26   135   555
  171     583   572    67   206
  172     572   365    67   452
  173     187   343    48    49
  174      14   148   144    26
  175      29    30    31    28
  176     202   241   203   204
  177     192    27   135    26
  178     304   569   325   435
  179     583   208   227   226
  180     313   360   582    17
  181     363   344   359   472
  182     359   312   313   358
  183     313   499    17   361
  184      94   150    92    95
  185     485   472   360   581
  186     274   286   276   284
  187      14   148    26     7
  188     286    41   280   279
  189     176   169   168   184
  190     303   306   325   326
  191      43    15    48    17
  192     215   501   369   370
  193     452   364   453   367
  194     561   551     6    37
  195     168   169   182   258
  196     563   197   116   194
  197     301   300   334   302
  198     275   284   277   282
  199     328   329   541   296
  200     436   440   437   426
  201     387   384   383   386
  202     489   370   502   215
  203     199    46   186    44
  204     241   200   204   581
  205      89    80    76    71
  206     424   414   412   413
  207      94   142    92   147
  208     149   147   140    94
  209     122   129   106   117
  210     115   123   133   124
  211     333   335   281   481
  212     192   162   135    27
  213     578   432   436   426
  214      25     7     8    14
  215     208    75   227   230
  216     156   137   136   141
  217       9     8   555    11
  218     301   335   574   407
  219     311   309   305   308
  220     343   331   328   341
  221     192   285   153    25
  222     543   542   544   538
  223     221   499    63   224
  224     482   494   321   483
  225     343   341   348   357
  226     279    41    51   348
  227     360   359   582   472
  228     582   581   199    66
  229      50    47   189    53
  230     103   106   105   104
  231     281   354   357   339
  232     329   566   326   541
  233     446   447   436   578
  234     104   127   106   109
  235       6   551   116   128
  236     416   410   415   423
  237     416   423   415   418
  238     395   397   419   401
  239     397   398   408   410
  240     124   123   133   131
  241     451   215   454   489
  242     465   461   521   585
  243     189    45   187    47
  244     424   423   425   415
  245     149    96    92   145
  246     301   420   568   335
  247     484   570   320   416
  248     422   411   402   401
  249     415   423   425   418
  250     400   418   425   423
  251     422   401   419   397
  252     499   361    63    17
  253     415   414   425   424
  254     306   305   324   326
  255     407   410   413   335
  256     573   407   421   335
  257     196   493   217   352
  258     415   418   417   405
  259     424   414   425   396
  260     409   335   413   410
  261     328   543   327   329
  262     417   407   419   408
  263     196   354   281   481
  264     443   391   392   390
  265     424   414   413   410
  266     311   308   305   307
  267     396   418   425   400
  268     341   543   328   542
  269     281   336   302   334
  270     335   573   574   421
  271     395   401   419   404
  272     396   418   400   399
  273     418   405   400   399
  274     540    62   283     5
  275     330   300   567   299
  276     409   335   333   315
  277     258   172   182   168
  278      93    91   161   160
  279     410   408   335   407
  280     281   339   357   540
  281     298   330   567   299
  282     493   481   482   494
  283     340   341   328   331
  284     217   290   218   493
  285     318   316   409   315
  286     510   526   529   584
  287     409   412   413   316
  288     428   427   429   426
  289     331   343   328   279
  290     420   335   413   409
  291     420   407   413   335
  292     561   551    37   116
  293     340   302   357   339
  294     232   214   502   215
  295     479   493   218   290
  296     540   339   357   302
  297     330   543   327   328
  298     332   541   326   480
  299     534   580   532   522
  300     296   543   328   329
  301     336   335   333   409
  302     281   568   302   540
  303     302   339   330   334
  304      22    35   116    37
  305      54    55   218    56
  306     478   352   477   493
  307     419   420   568   301
  308     320   425   314   416
  309     547   478   548   545
  310     281   481   568   420
  311     411   421   407   574
  312     422   407   419   301
  313     244   272   249   250
  314     494   319   545   337
  315     141   152    98   155
  316     335   481   333   315
  317      37   561    36     6
  318     409   318   319   333
  319     294   327   298   543
  320     421   407   574   335
  321     334   335   281   336
  322     158   162   558   160
  323     356   352   546   355
  324     545   355   546   337
  325      60   194    39   218
  326     316   318   317   315
  327     409   318   317   319
  328     409   315   317   318
  329     319   315   317   409
  330     196   195   217   483
  331     570   315   321   481
  332     333   315   317   319
  333     333   481   317   315
  334     548   547   565   478
  335     424   316   314   412
  336     217   218    23   195
  337     320   335   314   315
  338     123   198   124   197
  339     319   333   494   317
  340     319   337   494   333
  341     570   481   321   482
  342      54   493   218    55
  343     258   256   182   259
  344      22    35    37    21
  345     409   315   314   335
  346     337   338   494   336
  347     333   336   494   481
  348     337   336   494   333
  349     424   423   415   410
  350      55   493   218   477
  351     457   523   468   525
  352     289   290    57   218
  353     477   352   350   475
  354     218    54    60   196
  355      42     5    37   563
  356      37   563    39    42
  357     548   545   493   494
  358     546   545   493   548
  359     218   564   288    57
  360     545   337   493   494
  361     546   337   493   545
  362     546   352   493   355
  363       2     0    28     1
  364     549    27   157     0
  365     478   546   493   548
  366     546   355   493   337
  367     338   355   493   352
  368     356   546   493   478
  369     356   352   493   546
  370     478   352   493   356
  371     338   337   493   355
  372     494   337   493   338
  373     336   481   493   494
  374     336   338   493   481
  375     494   338   493   336
  376     354   338   493   352
  377     354   481   493   338
  378     352   481   493   354
  379     116   128   118     3
  380     317   315   321   494
  381     317   481   321   315
  382     482   481   321   494
  383     333   317   321   494
  384     333   481   321   317
  385     494   481   321   333
  386     320   420   314   335
  387     320   315   314   321
  388     472   344   349   363
  389     424   416   314   425
  390     425   416   320   423
  391     286   274   275   284
  392     407   410   417   420
  393     253   247   255   243
  394     413   424   416   412
  395     420   413   416   412
  396     301   403   419   422
  397     194   553    22    23
  398     410   424   416   413
  399     410   423   416   424
  400     413   407   416   410
  401     420   407   416   413
  402     420   410   416   407
  403     570   315   320   321
  404     410   414   415   424
  405     477   478   218   479
  406     397   396   399   398
  407     411   408   422   407
  408     301   407   419   420
  409     105   127   121   115
  410     398   396   399   418
  411     451   534   580   491
  412     424   412   314   416
  413     398   418   425   396
  414     414   418   425   398
  415     398   396   425   414
  416     413   316   314   409
  417     335   420   314   409
  418     416   423   425   424
  419     409   420   314   413
  420     412   420   314   416
  421     481   570   320   484
  422     481   315   320   570
  423     335   315   320   481
  424     434   390   445   444
  425     432   441   431   430
  426     481   420   320   335
  427     484   420   320   481
  428     320   484   314   420
  429     416   484   314   320
  430     416   420   314   484
  431     413   420   314   412
  432     412   316   314   413
  433     401   403   402   422
  434     301   573   574   335
  435     354   339   281   338
  436     428   448   434   433
  437     301   335   568   573
  438     336   481   281   338
  439     334   573   568   335
  440     397   396   395   399
  441     578   426   436   449
  442     395   404   419   406
  443     108   127   123   111
  444     417   420   419   407
  445     403   401   419   422
  446     335   481   568   281
  447     339   334   302   336
  448     301   573   568   334
  449     401   403   419   404
  450     422   408   419   407
  451     297   566   295   296
  452     334   335   568   281
  453     422   397   419   408
  454     417   408   419   397
  455     406   404   419   403
  456     212   268   210   265
  457     404   399   406   395
  458     404   405   406   399
  459      49   285   279   278
  460     341   339   357   354
  461     281   334   302   568
  462     399   405   417   418
  463     406   405   417   399
  464     397   398   417   408
  465     408   410   417   407
  466     416   410   417   415
  467     416   420   417   410
  468     415   420   417   416
  469     399   418   417   398
  470     398   418   417   414
  471     399   398   417   397
  472     398   410   417   408
  473     425   414   417   418
  474     415   414   417   425
  475     425   418   417   415
  476     415   410   417   414
  477     398   414   417   410
  478     406   395   417   397
  479     399   395   417   406
  480     399   397   417   395
  481     311   312   305   309
  482     354   481   196   352
  483     352   481   196   493
  484     196   481   217   493
  485      55   190    58   475
  486     301   300   574   334
  487     301   407   574   422
  488     407   411   574   422
  489     339   281   302   540
  490     299   539   544   282
  491     568   334   302   301
  492     339   336   302   281
  493     282   539   302   299
  494     279   343   328   341
  495     258   175   182   172
  496     300   574   334   421
  497     330   334   567   300
  498     299   300   302   334
  499      51    50    62    59
  500     532   516   510   531
  501     549   153   157    27
  502     301   334   574   573
  503     421   573   574   334
  504     295   566   427   575
  505     327   330   567   294
  506     296   542   328   543
  507     387   386   383   450
  508     488   581   485   507
  509     298   300   567   294
  510     294   330   567   298
  511      49   278    32   285
  512     573   300   567   334
  513     160   162   161   158
  514     135   153   157   549
  515     340   339   357   341
  516     327   334   567   330
  517     383   389   439   393
  518     578   576   436   432
  519     341   279   348    41
  520     489   370   369   502
  521     278    49   343   279
  522     434   391   387   448
  523     330   543   298   327
  524     341   542   328   279
  525      49   279   348   343
  526      58   476    59   351
  527     340   543   328   341
  528     328   329   327   330
  529     336   334   330   339
  530     272   250   244   271
  531     549   136   157   135
  532     340   339   330   302
  533     556   148     8    26
  534     576   323   325   441
  535     431   433   388   440
  536     427   435   325   569
  537      14    10     8    25
  538     303   305   306   308
  539      49   285    31    41
  540      32   285    31    49
  541     299   302   357   340
  542      28     0    29    27
  543     508   173   241   509
  544     493   548   479   478
  545     542   296   328   279
  546     255   254   247   253
  547     298   299   567   300
  548     302   299   330   340
  549     302   334   330   299
  550     334   300   330   299
  551     394   386   393   389
  552     544   538   298   543
  553     340   543   298   330
  554     544   299   298   539
  555     330   299   298   340
  556     294   327   293   292
  557     449   426   436   428
  558     293   297   577   295
  559     294   543   293   327
  560     480   447   325   569
  561     187   476    52   189
  562     543   296   293   329
  563     292   327   293   329
  564     543   329   293   327
  565     538   539   298   299
  566     544   539   298   538
  567     544   543   298   542
  568     341   543   298   340
  569     340   299   298   341
  570      29    27   287   285
  571     479   290   218   191
  572     577   297   427   295
  573     440   438   388   384
  574     446   436   439   437
  575     279   343   541   331
  576     295   577   429   427
  577     254   255   247   252
  578     394   386   392   391
  579     437   438   385   384
  580     297   566   427   295
  581     306   312   324   305
  582     323   441   576   432
  583     364   365   572   452
  584       8     9   192    25
  585     499   498   361   310
  586     504   503   378   382
  587     427   297   429   426
  588     577   297   429   427
  589     428   446   437   436
  590     138   556   139   558
  591     279   278   541   343
  592     296   279   541   331
  593     383   393   439   450
  594     440   384   388   431
  595     426   388   431   433
  596     431   432   440   441
  597     576   441   440   432
  598     499    17    63   224
  599     433   438   388   440
  600     345   344   349   473
  601     577   297   444   429
  602     394   389   392   386
  603     160   150   140    93
  604     445   577   297   444
  605     434   433   387   428
  606     434   390   443   445
  607     279   278   193   541
  608      41   274   280    40
  609      25    27    29   285
  610     434   448   387   433
  611      17   361    18   311
  612     386   448   387   391
  613     429   428   444   434
  614     141   155   156   152
  615     429   297   444   566
  616     428   433   437   446
  617     102   160    99   100
  618     394   448   450   386
  619     427   435   447   578
  620     266   209   510   533
  621     433   426   437   440
  622     578   449   446   450
  623     388   438   437   384
  624     449   428   436   446
  625     444   434   442   443
  626     385   389   439   383
  627     427   569   447   435
  628     562   178   179   256
  629     394   391   442   448
  630     391   386   392   389
  631     434   391   443   390
  632     558   556   159    11
  633     444   434   443   445
  634     286   282   275   299
  635     445   297   443   444
  636     443   566   442   297
  637     444   297   442   566
  638     443   297   442   444
  639     434   391   442   443
  640     434   448   442   391
  641     434   428   442   448
  642     444   428   442   434
  643     440   426   436   432
  644     442   394   392   391
  645     442   391   392   443
  646     146   162   558   158
  647     429   426   449   428
  648     297   426   449   429
  649     429   566   449   297
  650     219   495    13   220
  651     442   428   449   448
  652     444   566   449   429
  653     442   566   449   444
  654     297   566   449   427
  655     427   426   449   297
  656     394   386   450   393
  657     442   444   449   428
  658     429   428   449   444
  659     139    94   140   142
  660     427   435   578   323
  661     576   432   578   426
  662     323   435   578   576
  663     449   427   578   426
  664     323   426   578   427
  665     576   426   578   323
  666     435   576   447   578
  667     436   435   437   438
  668     436   433   437   428
  669     578   427   480   447
  670     541   566   480   449
  671     499   362   223   501
  672     385   384   439   437
  673     447   569   436   435
  674      97   101    98    91
  675     578   449   436   446
  676     296   566   322   329
  677     326   304   325   303
  678      25    10     8     9
  679     347    52    49   187
  680     450   393   439   446
  681     388   433   437   438
  682     386   389   383   393
  683     386   448   450   387
  684      25   285   153    27
  685     387   448   450   433
  686     428   448   446   449
  687     440   438   437   433
  688     292   329   322   327
  689     433   448   446   428
  690     450   448   446   433
  691     521   523   585   524
  692     486   581   360   365
  693      14     7    26    25
  694      72    70    67    80
  695     480   358   311   312
  696     326   569   325   304
  697     326   305   324   312
  698     435   576   436   447
  699     440   432   436   576
  700     383   388   439   384
  701      11    26   135   138
  702     428   426   436   433
  703      76    75   225   208
  704     383   384   439   385
  705     388   384   383   387
  706     326   323   325   427
  707     231   503   235   504
  708     437   384   439   388
  709     437   388   439   433
  710     437   433   439   446
  711     383   387   439   388
  712     383   450   439   387
  713     433   388   439   387
  714     433   450   439   446
  715     433   387   439   450
  716      14     7     8    10
  717      26     7     8    25
  718     309   569   304   435
  719     200    69    66   205
  720     326   323   322   329
  721     306   326   324   325
  722     520   535   519   536
  723     304   435   325   576
  724     329   332   331   541
  725     307   309   311   308
  726     576   441   325   304
  727     427   566   322   575
  728     454   451   490   215
  729     332   480   326   309
  730     562   258   257   256
  731     205    69   203   200
  732      80    72   167    67
  733      64   499    17   362
  734     307   497   311   309
  735      72    80   167    71
  736     242   510   243   508
  737     466   457   470   468
  738     312   311   480   309
  739     303   304   325   441
  740     360   362    17   313
  741     263   165   167   164
  742     326   329   322   566
  743     532   531   510   209
  744     454   465   209   580
  745     452   367   377   368
  746     576   435   325   323
  747     441   323   325   430
  748     441   306   430   325
  749     523   461   524   525
  750     304   308   326   309
  751     306   308   326   304
  752     304   309   326   569
  753     480   569   326   309
  754     306   305   326   308
  755     305   309   326   308
  756     427   323   322   326
  757     305   312   326   309
  758     427   569   325   447
  759     326   312   324   309
  760     326   309   324   332
  761     480   309   324   312
  762     332   309   324   480
  763     325   480   322   427
  764     326   480   322   325
  765     325   427   322   326
  766     449   566   322   427
  767     480   566   322   449
  768     295   575   322   566
  769     295   566   322   296
  770     480   578   322   427
  771     449   578   322   480
  772     449   427   322   578
  773     293   296   322   329
  774     293   329   322   292
  775     295   296   322   293
  776     292   295   322   293
  777     292   575   322   295
  778     485   363   360   472
  779     358   312   313   311
  780     208   228   225   206
  781     376   381   375   374
  782     459   461   460   456
  783     341    41   348   357
  784     586   565   289   290
  785     364   452   572   367
  786     490   491   209   215
  787     198   197   116    35
  788     214   503   505   235
  789     503   504   378   381
  790     503   214   505   381
  791     521   527   528   526
  792     259   175   258   172
  793     215   370   369   489
  794     572   501   500   223
  795     523   463   524   461
  796     359   472   360   363
  797     218    54   217   493
  798      25    14    24    26
  799     206   572    67   452
  800      64   581    66    68
  801     559   165   167   173
  802      55   475    58    54
  803      53   476   189    50
  804     189    52    51   476
  805     305   313   312   311
  806     356   352   477   478
  807     487   366   485   486
  808     507   366   485   487
  809     507   486   485   366
  810     510   242   529   508
  811     474   347   187   476
  812     240   241   203   201
  813     258   259   182   175
  814     462   512   579   452
  815     465   461   528   521
  816     358   313    43    17
  817     506   488   204   237
  818      74   206    67   208
  819     362   499   313   361
  820      64   362    17   360
  821     225   228    67   206
  822     206   228    67   583
  823     583   223    67   572
  824     303   307   305   308
  825     215   571   371   501
  826     465   580   464   522
  827     372   382   378   503
  828     239   242   243   508
  829     235   233   505   214
  830     491   451   490   454
  831     382   504   380   379
  832     535   513   536   537
  833     216    84   229    86
  834     500   370   215   226
  835     501   370   215   500
  836     205   200   203   240
  837     313   362    17   499
  838     572   452   215   571
  839     216    86   229   234
  840     268   209   533   530
  841     254   247   253   248
  842     368   367   371   452
  843     461   465   464   585
  844     520   513   519   535
  845      86    84   229    77
  846     452   571   371   215
  847     376   489   375   381
  848     489   215   502   214
  849     232   231   502   214
  850     381   504   505   503
  851     215   501   371   369
  852     231   503   214   235
  853     381   504   374   380
  854     489   214   502   503
  855     235   503   505   504
  856     214   231   502   503
  857     454   580   209   491
  858     381   214   489   503
  859     562   256   177   178
  860     186   187    48    45
  861     206   560   211   269
  862     231   232   215   214
  863     206   215   208   228
  864     214   233   215   235
  865     214   235   215   231
  866     370   501   369   571
  867     502   503   369   489
  868     571   452   371   572
  869     373   503   369   502
  870     372   503   369   373
  871     368   364   371   367
  872     369   501   371   571
  873     572   452   371   367
  874     373   502   369   370
  875     382   503   372   373
  876     343   347   348    49
  877     181   258   182   169
  878     580   491   534   209
  879      58   476    53    59
  880     463   467   585   522
  881     451   489   490   215
  882     452   368   377   371
  883     371   215   377   452
  884     368   372   377   369
  885     371   369   377   215
  886     489   215   377   369
  887     371   368   377   369
  888     378   379   374   504
  889     378   504   374   381
  890     377   378   375   372
  891     378   381   375   503
  892     489   503   375   381
  893     377   372   375   369
  894     209   531   533   530
  895     378   503   375   372
  896     528   521   510   580
  897     369   489   375   377
  898     369   503   375   489
  899     372   503   375   369
  900     477   356   350   352
  901     375   489   451   377
  902     376   489   451   375
  903     536   518   519   533
  904     526   533   510   516
  905     521   522   532   580
  906     536   535   519   513
  907     522   463   464   585
  908     377   489   454   215
  909     585   465   464   522
  910     520   533   519   518
  911     523   585   524   463
  912      53    47   189   188
  913     457   458   460   455
  914     257   251   249   264
  915     525   461   524   521
  916     516   517   519   533
  917     580   521   510   532
  918     509   485   506   507
  919     523   463   458   467
  920     580   451   491   454
  921     452   512   510   528
  922     461   523   458   525
  923     581   485   506   509
  924     523   461   458   463
  925     516   520   536   535
  926     533   209   510   531
  927     491   209   492   534
  928     453   452   511   512
  929     367   364   453   366
  930     532   521   510   516
  931     466   471   470   523
  932      90    85    82    84
  933     471   585   523   467
  934     463   467   523   585
  935     516   521   510   526
  936     559   165   173   170
  937     457   523   460   458
  938     467   523   466   458
  939     458   523   466   457
  940     458   457   466   455
  941      48   278    32    49
  942     260   243   255   264
  943     271   246   254   250
  944     507   366   453   486
  945     457   456   460   525
  946     528   527   510   526
  947     533   531   510   516
  948     528   526   510   521
  949     516   531   532   517
  950     492   209   532   580
  951     164   166   206   560
  952     521   461   524   585
  953     187    45   188    47
  954     585   522   521   465
  955     475   351    58   350
  956     518   527   519   520
  957     522   580   521   465
  958     515   517   533   536
  959     209   268   492   530
  960     324   480   358   332
  961     516   521   526   520
  962     471   521   523   585
  963     530   531   492   209
  964     290   548   479   493
  965     474   347   353   473
  966     209   580   492   534
  967     520   516   519   533
  968     510   533   261   266
  969      37     5    36   561
  970     345   347   187   473
  971     348   347   346   476
  972     194   196   217   218
  973     263   251   257   264
  974     584   533   526   518
  975     521   527   526   520
  976     465   580   510   209
  977     458   523   460   525
  978     518   533   526   520
  979     466   523   470   457
  980     170   175   259   172
  981     243   560   263   164
  982     528   461   525   521
  983     521   580   528   465
  984     584   533   514   515
  985     584   518   514   533
  986     536   518   514   519
  987     513   536   514   519
  988     536   533   514   518
  989     515   533   514   536
  990     537   515   514   536
  991     537   513   514   515
  992     536   513   514   537
  993     464   461   524   463
  994     579   452   511   453
  995     453   512   511   509
  996     579   512   511   452
  997     528   521   525   527
  998     452   581   509   365
  999     260   261   243   262
 1000      78    81    82    84
 1001     506   581   204   488
 1002     170   172   171   175
 1003     366   364   453   486
 1004     507   581   506   488
 1005     170   174   173   559
 1006     528   580   510   465
 1007     207   166   213   163
 1008     532   209   510   580
 1009     495   311   220   307
 1010     581   507   506   485
 1011     480   495   311   496
 1012     527   524   521   525
 1013     456   461   460   525
 1014     474   476   346   347
 1015      45   189    52    50
 1016     454   465   462   452
 1017     528   452   462   465
 1018     465   461   462   528
 1019     487   507   453   509
 1020     528   512   462   452
 1021     455   456   460   457
 1022     509   452   453   512
 1023     487   366   453   507
 1024     469   466   470   468
 1025     468   457   470   523
 1026     485   507   453   486
 1027     509   507   453   485
 1028     452   365   453   364
 1029     509   365   453   452
 1030     364   365   453   486
 1031     485   581   453   509
 1032     485   486   453   581
 1033     509   581   453   365
 1034     486   365   453   581
 1035     463   467   466   458
 1036     511   579   456   512
 1037     189    45    52   187
 1038     345   473   349   347
 1039     462   579   456   459
 1040     462   512   456   579
 1041     462   528   456   512
 1042     528   461   456   525
 1043     461   462   456   459
 1044     461   528   456   462
 1045     343   279   348   341
 1046     455   457   466   469
 1047     458   525   460   461
 1048     353   476   346   474
 1049     271   250   244   246
 1050     461   459   460   458
 1051       2     0    29    28
 1052     353   357   346   476
 1053      50    52    51   189
 1054     457   469   468   466
 1055     353   347   346   473
 1056     474   476   475   351
 1057     349   473   346   347
 1058     353   357   351   346
 1059     479   190    55   477
 1060     357   348   351   346
 1061     354   352   351   357
 1062     474   476   351   353
 1063     350   351    58   352
 1064     350   352    58   475
 1065     353   476   351   357
 1066      53    58   189   476
 1067     196   352   351   354
 1068     281   354   351   357
 1069     281   196   351   354
 1070     357   196   351   281
 1071     168   176   182   169
 1072     563   283    42     5
 1073     353   474   475   351
 1074      54   475    58   352
 1075     189   476    51    50
 1076     351   353   350   475
 1077     274     1    30   550
 1078     477   479   218    55
 1079     282   540   275   299
 1080     190   475    55   477
 1081     119    35   115   116
 1082     223   499   224    64
 1083     554   198   124   130
 1084     285    41    51   279
 1085      10     7    12    14
 1086     285    49    51    41
 1087     477   493    54    55
 1088      55   475    54   477
 1089     348   347    51    49
 1090     552    21    20   288
 1091     477   352    54   493
 1092     475   352    54   477
 1093     250   247   249   252
 1094      58   351    59   352
 1095      58   352    59    54
 1096     196   352    59   351
 1097      54   352    59   196
 1098       2    27   287     0
 1099     279    49    51   285
 1100     173   508   510   509
 1101      28     1    30   274
 1102      16   307   311   310
 1103      71    80   167    89
 1104     348    49    51   279
 1105     188    47   189   187
 1106      46    47   188    45
 1107      17    64    63   224
 1108     345   343   187   347
 1109      49   347   187   343
 1110     358   344   187   359
 1111     342   344   187   358
 1112     344   343   187   345
 1113     344   343   342   187
 1114     557   136   154   135
 1115      43   342    48   187
 1116     349   473   187   472
 1117     344   473   187   349
 1118     349   472   187   344
 1119     239   237   202   238
 1120     360   581    66    64
 1121     313   359   582   360
 1122     357   476    51   348
 1123     348    41    51   357
 1124     240   200   203   241
 1125     270   178   179   562
 1126     282   281   283   540
 1127     171   165   559   170
 1128     175   176   182   172
 1129     196   194    60   218
 1130     169   185   258   183
 1131     263   164   167   206
 1132     258   169   181   185
 1133      38   552    39    34
 1134     211   207   213   163
 1135     239   241   201   202
 1136     159   558   135   192
 1137     506   237   204   202
 1138      17   360   582    66
 1139     359   313   582    17
 1140     360   581   582    66
 1141     360   472   582   581
 1142     186    45    48    43
 1143     234   208   236   229
 1144     263   241   243   173
 1145     257   256   251   259
 1146      68   452    67   365
 1147     227   231   232   208
 1148     510   529   262   261
 1149     247   250   249   271
 1150     204   241   203   200
 1151     181   180   179   182
 1152     170   168   259   169
 1153     172   168   259   170
 1154     171   170   259   165
 1155     175   170   259   171
 1156     171   177   165   259
 1157     238   242   239   508
 1158     506   237   239   238
 1159      66    69   199    44
 1160     506   238   239   508
 1161     529   584   261   510
 1162     506   508   239   509
 1163     251   252   249   264
 1164     212   560   269   267
 1165     189    45    47    50
 1166     170   165   263   259
 1167     508   241   239   509
 1168     173   174   241   240
 1169     261   266   243   510
 1170     248   271   254   250
 1171     266   209   243   510
 1172     163   269   211   560
 1173     248   273   245   271
 1174     211   166   163   560
 1175     269   212   211   210
 1176     255   266   265   268
 1177     267   560   270   257
 1178     252   260   254   255
 1179     239   506   241   581
 1180     509   506   241   239
 1181     509   581   241   506
 1182      46    44    43   186
 1183     562   258   180   257
 1184     500   501   583   215
 1185     244   246   245   273
 1186     271   250   248   247
 1187     271   273   244   272
 1188     252   247   248   250
 1189     266   209   255   243
 1190     245   246   254   271
 1191     252   260   255   264
 1192     253   255   265   210
 1193     243   164   206   210
 1194     271   246   244   273
 1195     248   247   253   267
 1196     177   175   182   259
 1197     269   560   270   267
 1198     194   563    39    34
 1199      57    56   288   218
 1200     172   176   182   168
 1201     269   210   211   206
 1202     177   259   182   256
 1203     272   271   249   250
 1204     164   560   270   178
 1205     169   183   258   259
 1206     209   510   206   243
 1207     259   168   258   169
 1208     209   243   206   210
 1209     248   250   254   252
 1210     164   560   206   210
 1211     263   560   257   164
 1212     267   247   253   243
 1213     210   560   206   269
 1214     243   261   255   266
 1215     260   261   255   243
 1216     499   223   224   221
 1217      89    90    82    81
 1218     264   247   257   243
 1219     264   243   257   263
 1220     267   243   257   247
 1221     243   560   257   263
 1222     267   560   257   243
 1223     176   184   181   169
 1224     257   560   270   164
 1225     267   257   270   562
 1226     311   307   495   497
 1227     530   268   265   266
 1228     181   180   182   258
 1229     212   253   265   210
 1230     250   246   254   252
 1231     210   255   265   268
 1232     207   206   211   210
 1233      80    70    71    72
 1234     264   247   255   252
 1235     269   212   210   560
 1236     270   562   177   178
 1237     180   258   179   182
 1238     266   209   210   255
 1239     266   268   210   209
 1240     255   268   210   266
 1241     243   253   210   255
 1242     255   209   210   243
 1243     267   212   210   253
 1244     267   560   210   212
 1245     207   166   163   211
 1246     267   243   210   560
 1247     253   243   210   267
 1248     243   164   210   560
 1249     207   166   211   206
 1250     206   166   211   560
 1251     257   164   270   562
 1252     186   358    43   187
 1253     263   164   206   243
 1254     173   243   206   510
 1255     454   215   206   452
 1256     209   465   206   510
 1257     209   454   206   465
 1258     490   215   206   454
 1259     209   215   206   490
 1260     572   452   206   215
 1261     361   498   221   310
 1262     225    75   227   208
 1263     221   310    16   361
 1264      49    45    48   187
 1265      17   313    43   359
 1266     173   510   206   512
 1267     452   512   206   510
 1268     454   452   206   465
 1269     209   490   206   491
 1270     454   491   206   490
 1271     209   491   206   454
 1272     358   359    43   313
 1273      65   186    43    44
 1274     528   452   206   510
 1275     528   465   206   452
 1276     510   465   206   528
 1277     259   172   258   168
 1278     164   562   177   270
 1279     270   178   177   164
 1280     562   257   177   256
 1281     259   256   177   257
 1282     562   164   177   257
 1283     257   263   177   259
 1284     165   259   177   263
 1285     263   164   177   165
 1286     257   164   177   263
 1287     258   185   181   180
 1288     177   256   179   178
 1289     183   185   181   169
 1290     184   185   181   183
 1291     183   169   181   184
 1292      76    89    81    90
 1293      25    10    12    14
 1294     256   177   179   182
 1295     182   258   179   256
 1296      77    81    79    78
 1297      33    29    32   285
 1298      82    84    86    78
 1299     360   581    64   362
 1300      67   223    64   572
 1301      65   359    43   186
 1302     225   206    74   208
 1303      88   234   229    78
 1304     187   358    43   342
 1305      76    71    81    89
 1306     149    94    92   147
 1307      86    87   229   234
 1308     208   235   236   231
 1309       8    26    11   556
 1310      46    45    43    44
 1311     186    45    43    46
 1312     357   476    62    51
 1313      29   285    31    32
 1314      17   359    43    65
 1315     186   359    43   358
 1316     213   166    89   163
 1317     213   163    89    90
 1318     213   207    89   166
 1319     223   228    67   222
 1320     208    80    74   225
 1321     236   234   229   235
 1322      22   130   116   554
 1323     226   500   583   215
 1324      34   563    37   194
 1325      82    78    79    81
 1326     223   572   583   500
 1327      25    15    24    14
 1328      81    84    77    76
 1329      86   234   216    87
 1330      78    85    82    83
 1331      90    84    81    76
 1332      83    78    79    82
 1333     139   558   135   138
 1334      96    95    92   150
 1335      88    85    78    83
 1336     240    72    73    70
 1337      77    81    78    84
 1338      67   222    64   223
 1339      78    77   229   230
 1340      88    78    86    87
 1341      88    85    86    78
 1342      87    85    86    88
 1343      78    85    86    82
 1344      82    85    86    84
 1345      78   234    87    88
 1346      67   365    64    68
 1347     280     2   287    29
 1348     206   228   583   215
 1349      77    76   230    75
 1350      84    76   230    77
 1351      86    77   229    78
 1352     230    77   229    84
 1353     216   234   236    87
 1354     215   501   583   572
 1355     221   498    16   310
 1356     226   215   583   208
 1357      78    84    86    77
 1358     215   228   583   208
 1359     208   230   229    84
 1360     236   208   215   233
 1361     225    76    74    75
 1362     231   232   208   215
 1363     232   226   208   215
 1364      78   234   229    87
 1365      78    87   229    86
 1366     234   208   229   216
 1367     208   235   233   236
 1368     231   236   208   229
 1369     236   231   235   229
 1370     206   166   208   207
 1371     208    80   225    76
 1372     230    76   208    75
 1373      84    76   208   230
 1374      84    90   208    76
 1375      89   213   208   207
 1376      90   213   208    89
 1377      76    90   208    89
 1378     213    84   208   207
 1379      90    84   208   213
 1380     216    86   208    84
 1381     207    84   208    86
 1382     207   166   208    89
 1383      68   365    64   581
 1384      89    80   208    76
 1385     362   572    64   223
 1386      74   225    64    67
 1387     360    64    66    17
 1388     499   362    64   223
 1389     572   365    64    67
 1390     241   581   204   239
 1391     200   205    66    68
 1392      73   240   203   201
 1393      67    72   167    70
 1394     581   365    64   362
 1395     572   362    64   365
 1396      68   581    66   200
 1397     452   365    68   581
 1398     187   186    48    43
 1399     205    70    68   240
 1400     241   240   167   173
 1401     240    70    73   205
 1402     240   581    68   200
 1403     240   200    68   205
 1404     239   581   204   506
 1405     201   241   203   202
 1406     241   581    68   240
 1407      66   200   199    69
 1408     311   497   495   309
 1409       9    12    18    15
 1410      43   358    48   342
 1411     112   129   106   122
 1412     221   223   224   222
 1413       9   219    13    10
 1414      43    15    24    48
 1415     188   187   186    45
 1416     188    45   186    46
 1417     240    70   167    72
 1418      67   452   167   206
 1419     218   564   552   288
 1420     164   165   167   166
 1421     206   208   167    67
 1422     160    91   100    95
 1423     164   166   167   206
 1424     187   359   186   358
 1425     582   359   186   472
 1426     187   472   186   359
 1427     582   472   186   187
 1428      43    17    48   358
 1429      68    73    70   205
 1430     199    66    65   582
 1431      17    12    15    18
 1432     582    66    65    17
 1433      44    66    65   199
 1434     225   228   227    75
 1435     199   582    65   186
 1436     186    44    65   199
 1437     582   359    65   186
 1438     582    17    65   359
 1439      71    89   167    72
 1440     208   166   167    89
 1441     208    89   167    80
 1442     263   173   167   165
 1443     240   241   167    68
 1444     173   240   167   174
 1445     559   174   167   240
 1446     173   174   167   559
 1447      70   240   167    68
 1448      67    74   167    80
 1449     208    74   167    67
 1450     208    80   167    74
 1451      68   452   167    67
 1452      67    70   167    68
 1453     243   263   167   206
 1454     243   173   167   263
 1455     206   173   167   243
 1456     167   509   173   512
 1457     206   452   167   512
 1458     206   512   167   173
 1459      68   581   167   452
 1460     241   581   167    68
 1461     509   581   167   241
 1462     509   452   167   581
 1463     509   512   167   452
 1464     509   167   173   241
 1465     278   343    48   342
 1466     278    49    48   343
 1467      25    27   153   192
 1468     208   228   227   225
 1469      16   221    63   224
 1470      14    15    12    25
 1471      64   499   224    17
 1472      62     5    42   283
 1473      25    15     9    33
 1474      11   556   159   146
 1475      27    25   135    26
 1476      25    10     9    12
 1477      18   361    63    16
 1478     161   100    97    99
 1479      18    48   192     9
 1480      12    15     9    25
 1481     499   498   221   361
 1482     223   498   221   499
 1483     311   361    16   310
 1484      33    15     9    24
 1485      96   150   102    95
 1486      32    41    31    40
 1487     227   229   231   208
 1488     156   162   136   137
 1489     192   278   153   285
 1490      16   311    18   361
 1491      11     8   555    26
 1492      18    17    63   361
 1493      26   148     8     7
 1494     158   137   140   145
 1495     159   158   146   558
 1496      13   311    18    16
 1497     495   307   220   497
 1498      13    16    18    12
 1499     220   311    13   307
 1500     361   221    63    16
 1501     583   228   227   208
 1502     221   361    63   499
 1503     307   221   220   498
 1504     227   229   208   230
 1505     480   358   312   324
 1506      16   307    13   311
 1507     307   221    13   220
 1508     235   208   215   231
 1509     220   311    18    13
 1510     220   495    18   311
 1511      13   495    18   220
 1512      10     9    18    13
 1513      10    12    18     9
 1514      13    12    18    10
 1515      48    15    18    17
 1516      13     9    18   219
 1517     495   219    18     9
 1518      13   219    18   495
 1519       9    15    18    48
 1520      17   358    18    48
 1521      17   311    18   358
 1522     192   162   153   278
 1523     495   496    18   311
 1524     160    95   100   102
 1525     358   342    18    48
 1526     342   480    18   496
 1527     153   162   136   156
 1528     152   151   156   141
 1529     157   153   154    27
 1530     159    11   135   558
 1531     151   152   154   153
 1532      91    95   160    93
 1533     138    26   135    25
 1534       8    25   192   555
 1535     138   144   143   148
 1536       8    25   555    26
 1537      11   146   159   555
 1538     157    27   154   557
 1539     558   146   159   556
 1540     145   150   158   146
 1541     146   162   158   137
 1542     146   137   158   145
 1543     158   162   161   137
 1544     151   137   156   141
 1545     102   150   160    95
 1546     158   150   160   102
 1547     147   145   140   139
 1548      93    95   160   150
 1549     157   136   557   135
 1550     135   153   549    27
 1551     192    27   153   162
 1552     555     9   192     8
 1553      33    25   192     9
 1554      33   278   192    25
 1555       9    24   192    33
 1556      48    33   192    24
 1557      18   342   192    48
 1558     495   496   192    18
 1559      18     9   192   495
 1560     342   496   192   480
 1561     193   480   192   496
 1562      48   342   192   278
 1563      29    31   287   280
 1564      25    26   192   555
 1565      25    27   192    26
 1566       9    48   192    15
 1567      24    15   192    48
 1568       9    15   192    24
 1569     358   480   311    18
 1570     208   235   215   233
 1571     227   229   230   231
 1572     193   278   192   541
 1573     193   541   192   480
 1574     342   541   192   278
 1575     480   541   192   342
 1576      34    21    20   552
 1577     278   285   192    25
 1578     156   153   154   136
 1579     280   286   276   274
 1580     151   137   141   161
 1581     101   152    98   141
 1582     107   108   104   109
 1583     113   126   114   107
 1584     284   282   275   286
 1585     141    91    98   101
 1586     161    91   100   160
 1587     138    25   135    27
 1588     100   161    97    91
 1589     101    91    97   161
 1590      99   101    97   161
 1591     101   161   151    91
 1592     552   288    38   218
 1593     162   137   151   161
 1594     156   152   154   151
 1595     147   148   143   142
 1596      33   278    32    48
 1597     157    27     2     0
 1598     151   161   141    91
 1599      93    91   141   161
 1600     101   152   141   151
 1601     151    91   141   101
 1602     151   162   156   137
 1603     153   162   156   151
 1604     279   285   280   286
 1605      37   551    36   116
 1606     150    95    94    93
 1607     276   274   277   275
 1608      95    91    92    93
 1609     145   150    92    94
 1610     545   315   317   494
 1611       4     1   274   550
 1612     149   145    92    94
 1613     139   162   135   558
 1614     145   146   139   147
 1615     147   142   143   139
 1616     138   556   143   139
 1617     147   146   149   145
 1618     556   146   149   147
 1619      11   146   149   556
 1620     145   146   149    11
 1621     145    96    92   150
 1622     136   162   139   137
 1623     555   159   135   192
 1624     146   137   139   162
 1625     146   162   139   558
 1626     147   142   140    94
 1627     160    93   140   161
 1628     138   148   143   556
 1629      94    93   140   150
 1630     160   158   140   150
 1631      26   556   138    11
 1632     148    26   138   144
 1633     148   556   138    26
 1634     558   162   135   192
 1635      27   162   135   153
 1636     138   558   135    11
 1637     130   194   116   198
 1638     142   147   140   139
 1639      11   556   138   558
 1640      51    49    62    41
 1641     139    94   142   143
 1642     142   148   143   144
 1643     147   556   143   148
 1644     146   147   143   139
 1645     146   556   143   147
 1646     558   146   143   139
 1647     558   556   143   146
 1648     139   556   143   558
 1649     158   160   140   161
 1650     161   137   140   158
 1651     141    93   140   137
 1652     161    93   140   141
 1653     141   137   140   161
 1654     139   146   140   137
 1655     145   146   140   139
 1656     145   137   140   146
 1657     145   147   140   149
 1658      94   145   140   149
 1659     145   150   140   158
 1660      94   150   140   145
 1661      15    65    17    43
 1662      33    29   285    25
 1663      31   285   287    41
 1664      33   285    32   278
 1665      28   550    30     1
 1666      29   285   287    31
 1667     107   109   106   126
 1668     195   194   217   218
 1669     124   127   115   123
 1670     550     4    36    30
 1671     279    41   280   285
 1672     550   274   275    30
 1673     286   544   284   282
 1674     156   157   136   557
 1675     274    41   280   286
 1676      40    30     5   275
 1677     136   135   137   139
 1678      51    41    62   357
 1679      53    50    62   476
 1680     280   285   287   286
 1681     476    59    62    53
 1682     280    41   287   285
 1683      61   218    38   288
 1684      59   351    62   196
 1685     357   196    62   351
 1686     351   476    62   357
 1687      59   476    62   351
 1688     105   111   121   127
 1689     155   152   154   156
 1690     357   281    62   196
 1691     283     5   563   561
 1692      27    25    29   138
 1693     217   195    23   483
 1694      30     4    36   275
 1695     544   282   286   299
 1696     154     2    27   287
 1697     282   540     5   275
 1698      62   357    40   299
 1699     340   299    40   357
 1700     341   299    40   340
 1701     341    41    40   299
 1702      62    41    40   357
 1703     341   340    40   357
 1704     357    41    40   341
 1705     154   153   287    27
 1706     542   279   286   544
 1707       2     0   287    29
 1708     153   285   287    27
 1709     544   299   286   298
 1710     156   136   154   557
 1711     151   153   154   156
 1712     542   544   286   298
 1713      62   281   283   196
 1714     279   542   286   341
 1715     341    41   286   279
 1716     341   299   286    41
 1717     298   299   286   341
 1718     298   341   286   543
 1719     542   543   286   341
 1720     298   543   286   542
 1721      29     0   287    27
 1722      31    41   287   280
 1723     135   157   154   557
 1724     135   153   154   157
 1725     135   162   154   153
 1726     136   153   154   162
 1727     135   139   154   162
 1728     136   139   154   135
 1729     136   162   154   139
 1730     282   275     5   277
 1731      40    30   280    31
 1732      40   274   280    30
 1733     290   548   565   479
 1734      31    41   280    40
 1735      28    29   280    31
 1736      28     2   280    29
 1737       1     2   280    28
 1738      28   274   280     1
 1739      30    28   280    31
 1740      30   274   280    28
 1741       2   557    27   157
 1742     154     2   557    27
 1743     287   286   276   280
 1744     550     4   275   274
 1745      30     4   275   550
 1746      40    41   275   299
 1747     274    41   275    40
 1748     286   299   275    41
 1749     286    41   275   274
 1750     218   195   552    23
 1751     299    62   275    40
 1752     276   284   277   274
 1753     282   540   283     5
 1754     196   195   194   217
 1755     198   194   125   130
 1756      62    40     5   275
 1757      38    61    60   218
 1758     106   117   105   115
 1759     563   561   116   197
 1760     236   215   216   214
 1761     299    62     5   275
 1762      62   357     5   540
 1763     302   540     5   357
 1764     299   540     5   302
 1765     275   540     5   299
 1766     299   357     5    62
 1767     299   302     5   357
 1768     283   196   563    62
 1769     123   127   121   132
 1770     281   196   563   283
 1771     290   479   565   191
 1772     218    38    39    60
 1773     121   103   111   105
 1774     552    21    22    23
 1775     198    35   116   554
 1776     477   493   218   478
 1777      62   357   283   281
 1778     540   357   283    62
 1779     540   281   283   357
 1780      23   130    22   554
 1781      23   218    22   552
 1782     553   130   125   194
 1783     124   130   125   553
 1784       6     3   118   129
 1785     128     4   551   550
 1786     115   117   105   127
 1787     563   194   116    37
 1788     113   129   112   114
 1789     109   108   104   127
 1790     117   129   118   122
 1791     126   109   114   107
 1792     124   198   125   130
 1793       5   275    36     4
 1794     479   478   218   493
 1795      62    41    60    42
 1796     129   126   114   113
 1797       6   561    36     5
 1798     196   352   217    54
 1799     554    35   119   198
 1800     132   131   123   111
 1801      30    42    36    37
 1802     122   113   106   112
 1803      57    56    61   288
 1804     494   493   217   482
 1805     107   108   103   104
 1806     194   553    23   195
 1807     218   194   552   195
 1808     564   565   289   586
 1809     124   111   123   131
 1810     321   494   217   483
 1811     123   125   124   198
 1812     218   290    57   191
 1813     127   198   123   197
 1814     124   131   133   132
 1815      20    35    19    21
 1816     194    22   116    37
 1817     104   107   106   113
 1818     126   113   106   107
 1819      54   352   217   493
 1820     493   481   217   482
 1821      22    21    37    34
 1822     289   191    57   290
 1823     132   554   124   130
 1824     132   130   124   131
 1825      20    34    19    35
 1826     123   197   124   127
 1827     104   108   106   127
 1828     111   110   121   132
 1829      21    35    19   134
 1830     103   108   105   127
 1831     554   198   119   120
 1832     554   134   119    35
 1833     547   290   291   548
 1834     482   196   481   217
 1835     290   547   565   548
 1836      34   552    39   194
 1837      56    54    60   218
 1838     563     5    37   561
 1839     565   191   289   290
 1840     564   565    57   289
 1841     218   191    57   479
 1842     289   565    57   191
 1843     105   115   121   119
 1844      55    56    57   218
 1845     565   290   586   547
 1846     291   547   586   290
 1847     111   108   105   103
 1848     547   479   565   478
 1849      34    35    20    37
 1850     194   130    22   553
 1851      35   134    22   554
 1852      35    21    22   134
 1853      23   553    22   130
 1854     195   194   552    23
 1855      30     5    36    42
 1856      34   194    37    22
 1857     551     4    36   550
 1858      62    41    42    40
 1859     563    62    42   283
 1860     129   113   106   126
 1861     218   552    39    38
 1862     196    59    42    62
 1863      42   196    60    59
 1864      37    34    39   563
 1865      56   218    60    61
 1866     120    35   134    19
 1867      62    40    42     5
 1868     196    62    42   563
 1869      56   218    61   288
 1870      34   552    20    38
 1871     120    35   119   134
 1872     561   551   116     6
 1873     218   194    39   552
 1874      37    35    20    21
 1875     196    54    60    59
 1876      40    30    42     5
 1877      23    21    34   552
 1878     552   194    34    23
 1879      23   194    34    22
 1880      22    21    34    23
 1881     123   132   121   115
 1882     197   126   117   127
 1883      37    21    20    34
 1884     117   129   106   126
 1885      30    28    36   550
 1886     128    36   551     4
 1887      37    42    36     5
 1888      60    42    39   196
 1889      60   196    39   194
 1890      42   563    39   196
 1891     194   196    39   563
 1892      37   561   116   563
 1893     133   120   121   119
 1894     133   115   121   132
 1895     130   198   116   554
 1896     126   109   106   127
 1897     103   108   106   104
 1898     554   198   120   124
 1899     115   117   118   116
 1900     194   130   116    22
 1901     194   197   116   198
 1902     128     6     4     3
 1903     103   127   106   108
 1904     103   127   105   106
 1905     236   208   216   215
 1906      22   554   116    35
 1907     133   132   121   110
 1908     248   245   254   271
 1909       6   197   116   561
 1910     119    35   116   197
 1911     120   554   133   134
 1912     119   197   115   124
 1913      37   551     6    36
 1914       6    36   128     5
 1915     198    35   119   197
 1916     132   127   121   111
 1917     133   119   121   115
 1918     117   127   115   197
 1919     198   124   119   120
 1920     198   197   119   124
 1921     120   124   133   554
 1922      30   275    36     5
 1923     426   388   432   431
 1924     122   129   118     3
 1925     236   215   214   233
 1926     115   116   118   119
 1927     116     3   118     6
 1928     104   109   106   107
 1929     106   127   105   117
 1930     128     5     4     6
 1931     132   123   133   115
 1932     111   127   105   108
 1933     117   126   106   127
 1934     116   551   118   128
 1935     115   127   121   123
 1936     132   131   133   123
 1937     132   554   133   124
 1938     119   124   133   120
 1939     124   197   115   127
 1940     129   126   118     6
 1941     117   126   118   129
 1942     115   119   118   197
 1943     115   197   118   117
 1944     116     6   118   197
 1945     116   197   118   119
 1946     117   197   118   126
 1947       6   126   118   197
 1948     518   527   520   526
 1949     515   517   536   537
 1950     128     6     3   116
 1951     482   196   217   483
 1952     480   495   309   311
 1953     441   306   325   303
 1954     510   509   512   173
 1955     508   241   243   239
 1956     251   252   250   249
 1957      13     7    12    10
 1958     510   242   262   529
 1959     479   190   191    55
 1960     295   444   429   577
 1961     528   509   512   510
 1962     568   403   419   301
 1963     508   173   243   241
 1964     254   247   248   252
 1965     484   415   416   420
 1966     293   297   295   296
 1967     347    52   187   476
 1968     227   231   230   232
 1969     347    52    51    49
 1970     329   332   541   326
 1971       6   126   114   129
 1972     126     6   114   561
 1973      18   480   311   496
 1974     496    18   342   192
 1975     480   358   342    18
 1976     258   562   179   256
 1977     307   221   498    16
 1978      16   498   307   310
 1979     221   307    13    16
 1980     557   155   154   156
 1981     121   103   110   111
 1982     218   564    57   289
 1983     171   177   259   175
 1984     128   122   118     3
# Generated by .\tetgen.exe -p spot.ply 
